<?plantuml 1.2026.1?><svg xmlns="http://www.w3.org/2000/svg" xmlns:xlink="http://www.w3.org/1999/xlink" contentStyleType="text/css" data-diagram-type="SEQUENCE" height="1273px" preserveAspectRatio="none" style="width:1155px;height:1273px;background:#FCFCFD;" version="1.1" viewBox="0 0 1155 1273" width="1155px" zoomAndPan="magnify"><title>Sequence - jms/JmsTaskSchedules</title><defs/><g><rect fill="#FCFCFD" height="1273" style="stroke:none;stroke-width:1;" width="1155" x="0" y="0"/><text fill="#000000" font-family="Helvetica" font-size="14" font-weight="bold" lengthAdjust="spacing" textLength="236.5508" x="456.7446" y="25.7803">Sequence - jms/JmsTaskSchedules</text><rect fill="none" height="86" rx="8" ry="8" style="stroke:#CBD5E1;stroke-width:1.5;" width="326.8062" x="713.2241" y="319"/><rect fill="none" height="204" rx="8" ry="8" style="stroke:#CBD5E1;stroke-width:1.5;" width="346.8062" x="703.2241" y="419"/><rect fill="none" height="44" rx="8" ry="8" style="stroke:#CBD5E1;stroke-width:1.5;" width="326.8062" x="713.2241" y="470"/><rect fill="none" height="44" rx="8" ry="8" style="stroke:#CBD5E1;stroke-width:1.5;" width="326.8062" x="713.2241" y="572"/><rect fill="none" height="116" rx="8" ry="8" style="stroke:#CBD5E1;stroke-width:1.5;" width="346.8062" x="703.2241" y="637"/><rect fill="none" height="58" rx="8" ry="8" style="stroke:#CBD5E1;stroke-width:1.5;" width="326.8062" x="713.2241" y="688"/><g class="participant-lifeline" data-entity-uid="part1" data-qualified-name="Kubernetes" id="part1-lifeline"><g><title>Kubernetes</title><rect fill="#000000" fill-opacity="0.00000" height="1152" width="8" x="39.8032" y="114"/><line style="stroke:#94A3B8;stroke-width:0.5;stroke-dasharray:5,5;" x1="43" x2="43" y1="114" y2="1266"/></g></g><g class="participant-lifeline" data-entity-uid="part2" data-qualified-name="Controller" id="part2-lifeline"><g><title>Controller</title><rect fill="#000000" fill-opacity="0.00000" height="1152" width="8" x="303.4917" y="114"/><line style="stroke:#94A3B8;stroke-width:0.5;stroke-dasharray:5,5;" x1="307.147" x2="307.147" y1="114" y2="1266"/></g></g><g class="participant-lifeline" data-entity-uid="part3" data-qualified-name="BaseReconciler" id="part3-lifeline"><g><title>BaseReconciler</title><rect fill="#000000" fill-opacity="0.00000" height="1152" width="8" x="542.3179" y="114"/><line style="stroke:#94A3B8;stroke-width:0.5;stroke-dasharray:5,5;" x1="546.2939" x2="546.2939" y1="114" y2="1266"/></g></g><g class="participant-lifeline" data-entity-uid="part4" data-qualified-name="ServiceManager" id="part4-lifeline"><g><title>OSOKServiceManager</title><rect fill="#000000" fill-opacity="0.00000" height="1152" width="8" x="797.4204" y="114"/><line style="stroke:#94A3B8;stroke-width:0.5;stroke-dasharray:5,5;" x1="801.2241" x2="801.2241" y1="114" y2="1266"/></g></g><g class="participant-lifeline" data-entity-uid="part5" data-qualified-name="OCI" id="part5-lifeline"><g><title>OCI</title><rect fill="#000000" fill-opacity="0.00000" height="1152" width="8" x="1006.5854" y="114"/><line style="stroke:#94A3B8;stroke-width:0.5;stroke-dasharray:5,5;" x1="1010.1406" x2="1010.1406" y1="114" y2="1266"/></g></g><g class="participant participant-head" data-entity-uid="part1" data-qualified-name="Kubernetes" id="part1-head"><text fill="#000000" font-family="Helvetica" font-size="14" lengthAdjust="spacing" textLength="71.6064" x="5" y="110.7803">Kubernetes</text><ellipse cx="43.8032" cy="48.5" fill="#E2E8F0" rx="8" ry="8" style="stroke:#0F172A;stroke-width:0.5;"/><path d="M43.8032,56.5 L43.8032,83.5 M30.8032,64.5 L56.8032,64.5 M43.8032,83.5 L30.8032,98.5 M43.8032,83.5 L56.8032,98.5" fill="none" style="stroke:#0F172A;stroke-width:0.5;"/></g><g class="participant participant-head" data-entity-uid="part2" data-qualified-name="Controller" id="part2-head"><rect fill="#E2E8F0" height="28" rx="8" ry="8" style="stroke:#0F172A;stroke-width:0.5;" width="74.6895" x="270.147" y="85"/><text fill="#0F172A" font-family="Helvetica" font-size="14" lengthAdjust="spacing" textLength="60.6895" x="277.147" y="102.7803">Controller</text></g><g class="participant participant-head" data-entity-uid="part3" data-qualified-name="BaseReconciler" id="part3-head"><rect fill="#E2E8F0" height="28" rx="8" ry="8" style="stroke:#0F172A;stroke-width:0.5;" width="112.0479" x="490.2939" y="85"/><text fill="#0F172A" font-family="Helvetica" font-size="14" lengthAdjust="spacing" textLength="98.0479" x="497.2939" y="102.7803">BaseReconciler</text></g><g class="participant participant-head" data-entity-uid="part4" data-qualified-name="ServiceManager" id="part4-head"><rect fill="#E2E8F0" height="28" rx="8" ry="8" style="stroke:#0F172A;stroke-width:0.5;" width="156.3926" x="723.2241" y="85"/><text fill="#0F172A" font-family="Helvetica" font-size="14" lengthAdjust="spacing" textLength="142.3926" x="730.2241" y="102.7803">OSOKServiceManager</text></g><g class="participant participant-head" data-entity-uid="part5" data-qualified-name="OCI" id="part5-head"><rect fill="#E2E8F0" height="28" rx="8" ry="8" style="stroke:#0F172A;stroke-width:0.5;" width="38.8896" x="991.1406" y="85"/><text fill="#0F172A" font-family="Helvetica" font-size="14" lengthAdjust="spacing" textLength="24.8896" x="998.1406" y="102.7803">OCI</text></g><path d="M481,137 L481,187 A8,8 0 0 0 489,195 L857,195 A8,8 0 0 0 865,187 L865,139 L855,129 L489,129 A8,8 0 0 0 481,137" fill="#FFF7D6" style="stroke:#B45309;stroke-width:0.5;"/><path d="M855,129 L855,135 A4,4 0 0 0 859,139 L865,139 L855,129" fill="#FFF7D6" style="stroke:#B45309;stroke-width:0.5;"/><text fill="#334155" font-family="Helvetica" font-size="14" lengthAdjust="spacing" textLength="111.2891" x="514.9656" y="144.7803">shared resolution:</text><text fill="#334155" font-family="Helvetica" font-size="14" lengthAdjust="spacing" textLength="307.3916" x="514.9656" y="158.7803">shared/diagrams/shared-resolution-sequence.svg</text><text fill="#334155" font-family="Helvetica" font-size="14" lengthAdjust="spacing" textLength="88.7305" x="514.9656" y="172.7803">shared delete:</text><text fill="#334155" font-family="Helvetica" font-size="14" lengthAdjust="spacing" textLength="284.833" x="514.9656" y="186.7803">shared/diagrams/shared-delete-sequence.svg</text><g class="message" data-entity-1="part1" data-entity-2="part2" id="msg1"><polygon fill="#0F172A" points="295.4917,216,305.4917,220,295.4917,224,299.4917,220" style="stroke:#0F172A;stroke-width:1;"/><line style="stroke:#0F172A;stroke-width:1;" x1="43.8032" x2="301.4917" y1="220" y2="220"/><text fill="#000000" font-family="Helvetica" font-size="14" lengthAdjust="spacing" textLength="239.6885" x="50.8032" y="214.7803">enqueue JmsTaskSchedules reconcile</text></g><g class="message" data-entity-1="part2" data-entity-2="part3" id="msg2"><polygon fill="#0F172A" points="534.3179,244,544.3179,248,534.3179,252,538.3179,248" style="stroke:#0F172A;stroke-width:1;"/><line style="stroke:#0F172A;stroke-width:1;" x1="307.4917" x2="540.3179" y1="248" y2="248"/><text fill="#000000" font-family="Helvetica" font-size="14" lengthAdjust="spacing" textLength="117.4961" x="314.4917" y="242.7803">Reconcile(request)</text></g><g class="message" data-entity-1="part3" data-entity-2="part4" id="msg3"><polygon fill="#0F172A" points="789.4204,272,799.4204,276,789.4204,280,793.4204,276" style="stroke:#0F172A;stroke-width:1;"/><line style="stroke:#0F172A;stroke-width:1;" x1="546.3179" x2="795.4204" y1="276" y2="276"/><text fill="#000000" font-family="Helvetica" font-size="14" lengthAdjust="spacing" textLength="231.1025" x="553.3179" y="270.7803">reconcile desired JmsTaskSchedules</text></g><g class="message" data-entity-1="part4" data-entity-2="part5" id="msg4"><polygon fill="#0F172A" points="998.5854,300,1008.5854,304,998.5854,308,1002.5854,304" style="stroke:#0F172A;stroke-width:1;"/><line style="stroke:#0F172A;stroke-width:1;" x1="801.4204" x2="1004.5854" y1="304" y2="304"/><text fill="#000000" font-family="Helvetica" font-size="14" lengthAdjust="spacing" textLength="143.9443" x="808.4204" y="298.7803">GetJmsTaskSchedules</text></g><path d="M721.2241,319 L779.9897,319 L779.9897,325 L769.9897,335 L713.2241,335 L713.2241,327 A8,8 0 0 1 721.2241,319" fill="#F8FAFC" style="stroke:#CBD5E1;stroke-width:1.5;"/><rect fill="none" height="86" rx="8" ry="8" style="stroke:#CBD5E1;stroke-width:1.5;" width="326.8062" x="713.2241" y="319"/><text fill="#000000" font-family="Helvetica" font-size="14" font-weight="bold" lengthAdjust="spacing" textLength="21.7656" x="728.2241" y="330.7803">opt</text><text fill="#000000" font-family="Helvetica" font-size="14" font-weight="bold" lengthAdjust="spacing" textLength="135.3516" x="794.9897" y="331.7803">[list lookup fallback]</text><g class="message" data-entity-1="part4" data-entity-2="part5" id="msg5"><polygon fill="#0F172A" points="998.5854,365,1008.5854,369,998.5854,373,1002.5854,369" style="stroke:#0F172A;stroke-width:1;"/><line style="stroke:#0F172A;stroke-width:1;" x1="801.4204" x2="1004.5854" y1="369" y2="369"/><text fill="#000000" font-family="Helvetica" font-size="14" lengthAdjust="spacing" textLength="185.165" x="808.4204" y="349.7803">ListJmsTaskSchedules(filters:</text><text fill="#000000" font-family="Helvetica" font-size="14" lengthAdjust="spacing" textLength="143.1719" x="808.4204" y="363.7803">compartment_id, state)</text></g><g class="message" data-entity-1="part5" data-entity-2="part4" id="msg6"><polygon fill="#0F172A" points="812.4204,393,802.4204,397,812.4204,401,808.4204,397" style="stroke:#0F172A;stroke-width:1;"/><line style="stroke:#0F172A;stroke-width:1;stroke-dasharray:2,2;" x1="806.4204" x2="1009.5854" y1="397" y2="397"/><text fill="#000000" font-family="Helvetica" font-size="14" lengthAdjust="spacing" textLength="156.3994" x="818.4204" y="391.7803">matching collection items</text></g><path d="M711.2241,419 L764.562,419 L764.562,425 L754.562,435 L703.2241,435 L703.2241,427 A8,8 0 0 1 711.2241,419" fill="#F8FAFC" style="stroke:#CBD5E1;stroke-width:1.5;"/><rect fill="none" height="204" rx="8" ry="8" style="stroke:#CBD5E1;stroke-width:1.5;" width="346.8062" x="703.2241" y="419"/><text fill="#000000" font-family="Helvetica" font-size="14" font-weight="bold" lengthAdjust="spacing" textLength="16.3379" x="718.2241" y="430.7803">alt</text><text fill="#000000" font-family="Helvetica" font-size="14" font-weight="bold" lengthAdjust="spacing" textLength="135.3447" x="779.562" y="431.7803">[create or bind path]</text><g class="message" data-entity-1="part4" data-entity-2="part5" id="msg7"><polygon fill="#0F172A" points="998.5854,451,1008.5854,455,998.5854,459,1002.5854,455" style="stroke:#0F172A;stroke-width:1;"/><line style="stroke:#0F172A;stroke-width:1;" x1="801.4204" x2="1004.5854" y1="455" y2="455"/><text fill="#000000" font-family="Helvetica" font-size="14" lengthAdjust="spacing" textLength="163.3994" x="808.4204" y="449.7803">CreateJmsTaskSchedules</text></g><path d="M721.2241,470 L787.769,470 L787.769,476 L777.769,486 L713.2241,486 L713.2241,478 A8,8 0 0 1 721.2241,470" fill="#F8FAFC" style="stroke:#CBD5E1;stroke-width:1.5;"/><rect fill="none" height="44" rx="8" ry="8" style="stroke:#CBD5E1;stroke-width:1.5;" width="326.8062" x="713.2241" y="470"/><text fill="#000000" font-family="Helvetica" font-size="14" font-weight="bold" lengthAdjust="spacing" textLength="29.5449" x="728.2241" y="481.7803">loop</text><text fill="#000000" font-family="Helvetica" font-size="14" font-weight="bold" lengthAdjust="spacing" textLength="215.4756" x="802.769" y="482.7803">[create pending PROVISIONING]</text><g class="message" data-entity-1="part4" data-entity-2="part5" id="msg8"><polygon fill="#0F172A" points="998.5854,502,1008.5854,506,998.5854,510,1002.5854,506" style="stroke:#0F172A;stroke-width:1;"/><line style="stroke:#0F172A;stroke-width:1;" x1="801.4204" x2="1004.5854" y1="506" y2="506"/><text fill="#000000" font-family="Helvetica" font-size="14" lengthAdjust="spacing" textLength="143.9443" x="808.4204" y="500.7803">GetJmsTaskSchedules</text></g><line style="stroke:#CBD5E1;stroke-width:1;stroke-dasharray:2,2;" x1="703.2241" x2="1050.0303" y1="522" y2="522"/><text fill="#000000" font-family="Helvetica" font-size="14" font-weight="bold" lengthAdjust="spacing" textLength="137.6484" x="708.2241" y="532.7803">[update or drift path]</text><g class="message" data-entity-1="part4" data-entity-2="part5" id="msg9"><polygon fill="#0F172A" points="998.5854,553,1008.5854,557,998.5854,561,1002.5854,557" style="stroke:#0F172A;stroke-width:1;"/><line style="stroke:#0F172A;stroke-width:1;" x1="801.4204" x2="1004.5854" y1="557" y2="557"/><text fill="#000000" font-family="Helvetica" font-size="14" lengthAdjust="spacing" textLength="166.5234" x="808.4204" y="551.7803">UpdateJmsTaskSchedules</text></g><path d="M721.2241,572 L787.769,572 L787.769,578 L777.769,588 L713.2241,588 L713.2241,580 A8,8 0 0 1 721.2241,572" fill="#F8FAFC" style="stroke:#CBD5E1;stroke-width:1.5;"/><rect fill="none" height="44" rx="8" ry="8" style="stroke:#CBD5E1;stroke-width:1.5;" width="326.8062" x="713.2241" y="572"/><text fill="#000000" font-family="Helvetica" font-size="14" font-weight="bold" lengthAdjust="spacing" textLength="29.5449" x="728.2241" y="583.7803">loop</text><text fill="#000000" font-family="Helvetica" font-size="14" font-weight="bold" lengthAdjust="spacing" textLength="190.5381" x="802.769" y="584.7803">[update pending UPDATING]</text><g class="message" data-entity-1="part4" data-entity-2="part5" id="msg10"><polygon fill="#0F172A" points="998.5854,604,1008.5854,608,998.5854,612,1002.5854,608" style="stroke:#0F172A;stroke-width:1;"/><line style="stroke:#0F172A;stroke-width:1;" x1="801.4204" x2="1004.5854" y1="608" y2="608"/><text fill="#000000" font-family="Helvetica" font-size="14" lengthAdjust="spacing" textLength="143.9443" x="808.4204" y="602.7803">GetJmsTaskSchedules</text></g><path d="M711.2241,637 L769.9897,637 L769.9897,643 L759.9897,653 L703.2241,653 L703.2241,645 A8,8 0 0 1 711.2241,637" fill="#F8FAFC" style="stroke:#CBD5E1;stroke-width:1.5;"/><rect fill="none" height="116" rx="8" ry="8" style="stroke:#CBD5E1;stroke-width:1.5;" width="346.8062" x="703.2241" y="637"/><text fill="#000000" font-family="Helvetica" font-size="14" font-weight="bold" lengthAdjust="spacing" textLength="21.7656" x="718.2241" y="648.7803">opt</text><text fill="#000000" font-family="Helvetica" font-size="14" font-weight="bold" lengthAdjust="spacing" textLength="120.5859" x="784.9897" y="649.7803">[delete requested]</text><g class="message" data-entity-1="part4" data-entity-2="part5" id="msg11"><polygon fill="#0F172A" points="998.5854,669,1008.5854,673,998.5854,677,1002.5854,673" style="stroke:#0F172A;stroke-width:1;"/><line style="stroke:#0F172A;stroke-width:1;" x1="801.4204" x2="1004.5854" y1="673" y2="673"/><text fill="#000000" font-family="Helvetica" font-size="14" lengthAdjust="spacing" textLength="161.8477" x="808.4204" y="667.7803">DeleteJmsTaskSchedules</text></g><path d="M721.2241,688 L787.769,688 L787.769,694 L777.769,704 L713.2241,704 L713.2241,696 A8,8 0 0 1 721.2241,688" fill="#F8FAFC" style="stroke:#CBD5E1;stroke-width:1.5;"/><rect fill="none" height="58" rx="8" ry="8" style="stroke:#CBD5E1;stroke-width:1.5;" width="326.8062" x="713.2241" y="688"/><text fill="#000000" font-family="Helvetica" font-size="14" font-weight="bold" lengthAdjust="spacing" textLength="29.5449" x="728.2241" y="699.7803">loop</text><text fill="#000000" font-family="Helvetica" font-size="14" font-weight="bold" lengthAdjust="spacing" textLength="213.124" x="802.769" y="700.7803">[delete confirmation DELETING]</text><g class="message" data-entity-1="part4" data-entity-2="part5" id="msg12"><polygon fill="#0F172A" points="998.5854,734,1008.5854,738,998.5854,742,1002.5854,738" style="stroke:#0F172A;stroke-width:1;"/><line style="stroke:#0F172A;stroke-width:1;" x1="801.4204" x2="1004.5854" y1="738" y2="738"/><text fill="#000000" font-family="Helvetica" font-size="14" lengthAdjust="spacing" textLength="160.2822" x="808.4204" y="718.7803">GetJmsTaskSchedules or</text><text fill="#000000" font-family="Helvetica" font-size="14" lengthAdjust="spacing" textLength="143.165" x="808.4204" y="732.7803">ListJmsTaskSchedules</text></g><g class="message" data-entity-1="part4" data-entity-2="part3" id="msg13"><polygon fill="#0F172A" points="557.3179,790,547.3179,794,557.3179,798,553.3179,794" style="stroke:#0F172A;stroke-width:1;"/><line style="stroke:#0F172A;stroke-width:1;stroke-dasharray:2,2;" x1="551.3179" x2="800.4204" y1="794" y2="794"/><text fill="#000000" font-family="Helvetica" font-size="14" lengthAdjust="spacing" textLength="100.7822" x="563.3179" y="774.7803">status=required,</text><text fill="#000000" font-family="Helvetica" font-size="14" lengthAdjust="spacing" textLength="230.7197" x="563.3179" y="788.7803">finalizer=retain-until-confirmed-delete</text></g><g class="message" data-entity-1="part3" data-entity-2="part2" id="msg14"><polygon fill="#0F172A" points="318.4917,832,308.4917,836,318.4917,840,314.4917,836" style="stroke:#0F172A;stroke-width:1;"/><line style="stroke:#0F172A;stroke-width:1;stroke-dasharray:2,2;" x1="312.4917" x2="545.3179" y1="836" y2="836"/><text fill="#000000" font-family="Helvetica" font-size="14" lengthAdjust="spacing" textLength="214.8262" x="324.4917" y="816.7803">requeue on provisioning, updating,</text><text fill="#000000" font-family="Helvetica" font-size="14" lengthAdjust="spacing" textLength="69.2549" x="324.4917" y="830.7803">terminating</text></g><path d="M806,857 L806,1243 A8,8 0 0 0 814,1251 L1138,1251 A8,8 0 0 0 1146,1243 L1146,859 L1136,849 L814,849 A8,8 0 0 0 806,857" fill="#FFF7D6" style="stroke:#B45309;stroke-width:0.5;"/><path d="M1136,849 L1136,855 A4,4 0 0 0 1140,859 L1146,859 L1136,849" fill="#FFF7D6" style="stroke:#B45309;stroke-width:0.5;"/><text fill="#334155" font-family="Helvetica" font-size="14" lengthAdjust="spacing" textLength="101.165" x="812" y="864.7803">shared diagram:</text><text fill="#334155" font-family="Helvetica" font-size="14" lengthAdjust="spacing" textLength="307.3916" x="812" y="878.7803">shared/diagrams/shared-resolution-sequence.svg</text><text fill="#334155" font-family="Helvetica" font-size="14" lengthAdjust="spacing" textLength="143.1992" x="812" y="892.7803">shared delete diagram:</text><text fill="#334155" font-family="Helvetica" font-size="14" lengthAdjust="spacing" textLength="284.833" x="812" y="906.7803">shared/diagrams/shared-delete-sequence.svg</text><text fill="#334155" font-family="Helvetica" font-size="14" lengthAdjust="spacing" textLength="280.9297" x="812" y="920.7803">Start from the shared resolution sequence for</text><text fill="#334155" font-family="Helvetica" font-size="14" lengthAdjust="spacing" textLength="260.7295" x="812" y="934.7803">OCID binding, datasource pagination, and</text><text fill="#334155" font-family="Helvetica" font-size="14" lengthAdjust="spacing" textLength="163.4268" x="812" y="948.7803">create-or-update dispatch.</text><text fill="#334155" font-family="Helvetica" font-size="14" lengthAdjust="spacing" textLength="301.1982" x="812" y="962.7803">Layer the shared delete sequence when finalizer</text><text fill="#334155" font-family="Helvetica" font-size="14" lengthAdjust="spacing" textLength="269.2471" x="812" y="976.7803">retention, delete confirmation, work-request</text><text fill="#334155" font-family="Helvetica" font-size="14" lengthAdjust="spacing" textLength="199.2334" x="812" y="990.7803">polling, or Secret cleanup apply.</text><text fill="#334155" font-family="Helvetica" font-size="14" lengthAdjust="spacing" textLength="281.709" x="812" y="1004.7803">archetype batch: Generated service-manager</text><text fill="#334155" font-family="Helvetica" font-size="14" lengthAdjust="spacing" textLength="266.1504" x="812" y="1018.7803">controllers follow the shared resolution and</text><text fill="#334155" font-family="Helvetica" font-size="14" lengthAdjust="spacing" textLength="259.9297" x="812" y="1032.7803">delete sequences with imported waits and</text><text fill="#334155" font-family="Helvetica" font-size="14" lengthAdjust="spacing" textLength="134.6064" x="812" y="1046.7803">controller-local policy.</text><text fill="#334155" font-family="Helvetica" font-size="14" lengthAdjust="spacing" textLength="73.8965" x="812" y="1060.7803">service: jms</text><text fill="#334155" font-family="Helvetica" font-size="14" lengthAdjust="spacing" textLength="143.9512" x="812" y="1074.7803">slug: jmstaskschedules</text><text fill="#334155" font-family="Helvetica" font-size="14" lengthAdjust="spacing" textLength="154.8408" x="812" y="1088.7803">kind: JmsTaskSchedules</text><text fill="#334155" font-family="Helvetica" font-size="14" lengthAdjust="spacing" textLength="241.2402" x="812" y="1102.7803">archetype: generated-service-manager</text><text fill="#334155" font-family="Helvetica" font-size="14" lengthAdjust="spacing" textLength="156.4063" x="812" y="1116.7803">status/finalizer: required /</text><text fill="#334155" font-family="Helvetica" font-size="14" lengthAdjust="spacing" textLength="174.3027" x="812" y="1130.7803">retain-until-confirmed-delete</text><text fill="#334155" font-family="Helvetica" font-size="14" lengthAdjust="spacing" textLength="272.3984" x="812" y="1144.7803">requeue: provisioning, updating, terminating</text><text fill="#334155" font-family="Helvetica" font-size="14" lengthAdjust="spacing" textLength="295.6816" x="812" y="1158.7803">provider states: create PROVISIONING; update</text><text fill="#334155" font-family="Helvetica" font-size="14" lengthAdjust="spacing" textLength="192.165" x="812" y="1172.7803">UPDATING; delete DELETING</text><text fill="#334155" font-family="Helvetica" font-size="14" lengthAdjust="spacing" textLength="319.04" x="812" y="1186.7803">mutable/forceNew: display_name / compartment_id</text><text fill="#334155" font-family="Helvetica" font-size="14" lengthAdjust="spacing" textLength="104.3164" x="812" y="1200.7803">open gaps: none</text><text fill="#334155" font-family="Helvetica" font-size="14" lengthAdjust="spacing" textLength="224.9023" x="812" y="1214.7803">Scaffold metadata only; replace with</text><text fill="#334155" font-family="Helvetica" font-size="14" lengthAdjust="spacing" textLength="244.3232" x="812" y="1228.7803">controller-specific runtime states before</text><text fill="#334155" font-family="Helvetica" font-size="14" lengthAdjust="spacing" textLength="66.1445" x="812" y="1242.7803">promotion.</text><?plantuml-src fLRlRzis4Fskl-BGVMa1AqwQf4qLRC2QT5tMB2xgTfy253HviZbJf4PIzhnX__kE-cL9bhjrG-305e_7z-wzEz6jfSwPPHcu5HDcA_KIKgOSHgvTMJ2-NbfJQ75ZbB7mJShfJtGY1AQiKFu7e_q3on1-HBL1BpaRZvdBFn3EBZgBp5gphREVfcSldtTtQkFnzG66D7qfNWoZZ1LewuZ5nUNvwQj1H3Y-NZy_lpYxlEoib-cviHejdBs8lFGAOOw_5QWvGWo_PcxwK-O-ChUUynMAGg6BLb8WfCRuXVczayirs_wC01ZtnlQmrHoRfI4vV8vNwIajKp8geyoPzkFxkm7_9ak7Vvj3oHJlfUvNxzK5ErzSqMf8cVUM-49SubcxTA3CLSfI7lqLbTpWNR50AgcdMdLmm0q1iKOfjBt7hvd33yYDvdAuz6GsdxsRezr8ZZyppPPedm1pq7_KspAxkOk2wc0sf6a_zsImZ_nlKO15PrJXfT59_MWg95kIfcvQ_Oxt8N4ZyudRB9iC0XMnFRgxMkxlH2rATqRxOa7yNQT62Q2c-09XQ402N3EAzk5XSvzj0kttfpOSxVopg1yIDlLhakoJ4oid0xk31kXl2KcewWcyHNyGQd9FPdFqpvXraOT1ey9mEPRZdcA7IPwcKdcqBddKt6H1x0or_op519nd7fz5j1NY4IuPytmLvXiFDU91Fv0UCnVA7p7bWLjamImM5f8KoPbV7ODsKuOUC2HYUPCcfxJXkFSVPh_SpUzc3tSFRx-cMW4LqYI68XSrB65bwh-8wrCPEuwhpjFW-lJ-zlkF_mKJVOAIbP6XTXEAOtbkoxXnI7KECbagBGaKDBbzS__cAt5HRHxrc5jQmCDS8mqIx5EuRmEVuFJ98s7IJD6xoj93pwIE2-sbYckqRIyVzD6WTSiAKUiIjzoQZNJ4aWIOL8A4Ru-QB9tHQU5NDR6iNAuyc1J6nrGzLVxVZFh7B6EpQkwfvo2r9WE_GZWOc_jNNsfiQCRRifjAmaINELDOMipPikHhz0GO2LGrJMniNDjKI9U7ZZs9xjcEgjevh4RV7hHTeOPMh8Z4ef5GPXxnrmIsngxZshPHJYALsAYzvaWeQ0meP9h64yjpjJk9c2Kt-LsET14YFC60T4CWY88GbDh4MIqERrLtn5ufiprIey1umCB1LleLo2mtDkJUCkbTLPesQwmCPme8i-I4h3u-2JUJoAbYMNwZ4gzTsm1q8n79uTHkIIMmREZ4GpfLHqpRobPMBby3q-ZBBL5xFZdcUEWQleoX-qKrmLtIJD3kvBoknrVKZAthHjnsNcI5Pmk5K_8TnmVS9gM75Djzrk5IEeN-2uE66DbcoN8wK1kDqPopb5GJa16rO5NgMBMx9jAK9DYCzEcAuNBaCfKSR2W2dL31XmKI0WoiCXFKFcdVxty3?></g></svg>