<?plantuml 1.2026.1?><svg xmlns="http://www.w3.org/2000/svg" xmlns:xlink="http://www.w3.org/1999/xlink" contentStyleType="text/css" data-diagram-type="ACTIVITY" height="1315px" preserveAspectRatio="none" style="width:734px;height:1315px;background:#FCFCFD;" version="1.1" viewBox="0 0 734 1315" width="734px" zoomAndPan="magnify"><title>Activity - core/CoreComputeHostGroup</title><defs/><g><rect fill="#FCFCFD" height="1315" style="stroke:none;stroke-width:1;" width="734" x="0" y="0"/><g class="title" data-source-line="10"><text fill="#000000" font-family="Helvetica" font-size="14" font-weight="bold" lengthAdjust="spacing" textLength="262.1377" x="234.7004" y="30.7803">Activity - core/CoreComputeHostGroup</text></g><ellipse cx="351.4985" cy="55" fill="#1D4ED8" rx="10" ry="10" style="stroke:#222222;stroke-width:1;"/><rect fill="#F8FAFC" height="48" rx="8" ry="8" style="stroke:#0F172A;stroke-width:0.5;" width="304.7852" x="199.106" y="85"/><text fill="#0F172A" font-family="Helvetica" font-size="14" lengthAdjust="spacing" textLength="136.9375" x="209.106" y="105.7803">Start from shared flow</text><text fill="#0F172A" font-family="Helvetica" font-size="14" lengthAdjust="spacing" textLength="284.7852" x="209.106" y="119.7803">shared/diagrams/shared-reconcile-activity.svg</text><rect fill="#F8FAFC" height="48" rx="8" ry="8" style="stroke:#0F172A;stroke-width:0.5;" width="320.3984" x="191.2993" y="153"/><text fill="#0F172A" font-family="Helvetica" font-size="14" lengthAdjust="spacing" textLength="300.3984" x="201.2993" y="173.7803">Load desired CoreComputeHostGroup spec and</text><text fill="#0F172A" font-family="Helvetica" font-size="14" lengthAdjust="spacing" textLength="144.7373" x="201.2993" y="187.7803">status from Kubernetes</text><rect fill="#F8FAFC" height="48" rx="8" ry="8" style="stroke:#0F172A;stroke-width:0.5;" width="336.6885" x="183.1543" y="221"/><text fill="#0F172A" font-family="Helvetica" font-size="14" lengthAdjust="spacing" textLength="316.6885" x="193.1543" y="241.7803">Resolve OCI state via GetCoreComputeHostGroup</text><text fill="#0F172A" font-family="Helvetica" font-size="14" lengthAdjust="spacing" textLength="256.7783" x="193.1543" y="255.7803">with ListCoreComputeHostGroup fallback</text><rect fill="#F8FAFC" height="62" rx="8" ry="8" style="stroke:#0F172A;stroke-width:0.5;" width="320.3779" x="191.3096" y="289"/><text fill="#0F172A" font-family="Helvetica" font-size="14" lengthAdjust="spacing" textLength="300.3779" x="201.3096" y="309.7803">Use scaffold_core_corecomputehostgroup filters</text><text fill="#0F172A" font-family="Helvetica" font-size="14" lengthAdjust="spacing" textLength="276.2402" x="201.3096" y="323.7803">compartment_id, state when OCID lookup or</text><text fill="#0F172A" font-family="Helvetica" font-size="14" lengthAdjust="spacing" textLength="243.5645" x="201.3096" y="337.7803">bind-versus-create needs list resolution</text><polygon fill="#E2E8F0" points="297.8091,371,405.188,371,417.188,383,405.188,395,297.8091,395,285.8091,383,297.8091,371" style="stroke:#1D4ED8;stroke-width:0.5;"/><text fill="#0F172A" font-family="Helvetica" font-size="14" lengthAdjust="spacing" textLength="107.3789" x="297.8091" y="386.7803">Resource exists?</text><text fill="#000000" font-family="Helvetica" font-size="14" lengthAdjust="spacing" textLength="21.7861" x="264.0229" y="379.7803">yes</text><text fill="#000000" font-family="Helvetica" font-size="14" lengthAdjust="spacing" textLength="15.5723" x="417.188" y="379.7803">no</text><rect fill="#F8FAFC" height="34" rx="8" ry="8" style="stroke:#0F172A;stroke-width:0.5;" width="332.0605" x="11" y="405"/><text fill="#0F172A" font-family="Helvetica" font-size="14" lengthAdjust="spacing" textLength="312.0605" x="21" y="425.7803">Update path calls UpdateCoreComputeHostGroup</text><rect fill="#F8FAFC" height="48" rx="8" ry="8" style="stroke:#0F172A;stroke-width:0.5;" width="266.7021" x="43.6792" y="459"/><text fill="#0F172A" font-family="Helvetica" font-size="14" lengthAdjust="spacing" textLength="246.7021" x="53.6792" y="479.7803">Guard mutable fields display_name and</text><text fill="#0F172A" font-family="Helvetica" font-size="14" lengthAdjust="spacing" textLength="202.3096" x="53.6792" y="493.7803">force-new fields compartment_id</text><rect fill="#F8FAFC" height="34" rx="8" ry="8" style="stroke:#0F172A;stroke-width:0.5;" width="325.8125" x="363.0605" y="405"/><text fill="#0F172A" font-family="Helvetica" font-size="14" lengthAdjust="spacing" textLength="305.8125" x="373.0605" y="425.7803">Create path calls CreateCoreComputeHostGroup</text><polygon fill="#E2E8F0" points="351.4985,513,363.4985,525,351.4985,537,339.4985,525,351.4985,513" style="stroke:#1D4ED8;stroke-width:0.5;"/><rect fill="#F8FAFC" height="104" rx="8" ry="8" style="stroke:#0F172A;stroke-width:0.5;" width="334.3164" x="184.3403" y="557"/><text fill="#0F172A" font-family="Helvetica" font-size="14" lengthAdjust="spacing" textLength="164.2061" x="194.3403" y="577.7803">Run provider helper hooks</text><text fill="#0F172A" font-family="Helvetica" font-size="14" lengthAdjust="spacing" textLength="219.0508" x="194.3403" y="591.7803">create=tfresource.CreateResource,</text><text fill="#0F172A" font-family="Helvetica" font-size="14" lengthAdjust="spacing" textLength="314.3164" x="194.3403" y="605.7803">tfresource.WaitForWorkRequestWithErrorHandling</text><text fill="#0F172A" font-family="Helvetica" font-size="14" lengthAdjust="spacing" textLength="215.5439" x="194.3403" y="619.7803">entity=template action=CREATED;</text><text fill="#0F172A" font-family="Helvetica" font-size="14" lengthAdjust="spacing" textLength="226.085" x="194.3403" y="633.7803">update=tfresource.UpdateResource;</text><text fill="#0F172A" font-family="Helvetica" font-size="14" lengthAdjust="spacing" textLength="212.8438" x="194.3403" y="647.7803">delete=tfresource.DeleteResource</text><rect fill="#F8FAFC" height="34" rx="8" ry="8" style="stroke:#0F172A;stroke-width:0.5;" width="263.5918" x="219.7026" y="681"/><text fill="#0F172A" font-family="Helvetica" font-size="14" lengthAdjust="spacing" textLength="243.5918" x="229.7026" y="701.7803">Apply repo-authored secret policy none</text><rect fill="#F8FAFC" height="76" rx="8" ry="8" style="stroke:#0F172A;stroke-width:0.5;" width="324.2744" x="189.3613" y="735"/><text fill="#0F172A" font-family="Helvetica" font-size="14" lengthAdjust="spacing" textLength="304.2744" x="199.3613" y="755.7803">Delete path uses DeleteCoreComputeHostGroup</text><text fill="#0F172A" font-family="Helvetica" font-size="14" lengthAdjust="spacing" textLength="299.5781" x="199.3613" y="769.7803">with required via GetCoreComputeHostGroup or</text><text fill="#0F172A" font-family="Helvetica" font-size="14" lengthAdjust="spacing" textLength="260.6611" x="199.3613" y="783.7803">ListCoreComputeHostGroup to DELETED</text><text fill="#0F172A" font-family="Helvetica" font-size="14" lengthAdjust="spacing" textLength="76.2549" x="199.3613" y="797.7803">confirmation</text><rect fill="#F8FAFC" height="48" rx="8" ry="8" style="stroke:#0F172A;stroke-width:0.5;" width="279.1299" x="211.9336" y="831"/><text fill="#0F172A" font-family="Helvetica" font-size="14" lengthAdjust="spacing" textLength="259.1299" x="221.9336" y="851.7803">Project required status and finalizer policy</text><text fill="#0F172A" font-family="Helvetica" font-size="14" lengthAdjust="spacing" textLength="174.3027" x="221.9336" y="865.7803">retain-until-confirmed-delete</text><rect fill="#F8FAFC" height="34" rx="8" ry="8" style="stroke:#0F172A;stroke-width:0.5;" width="313.4189" x="194.7891" y="899"/><text fill="#0F172A" font-family="Helvetica" font-size="14" lengthAdjust="spacing" textLength="293.4189" x="204.7891" y="919.7803">Requeue on provisioning, updating, terminating</text><path d="M382.4985,943 L382.4985,1119 L362.4985,1123 L382.4985,1127 L382.4985,1303 A0,0 0 0 0 382.4985,1303 L722.5386,1303 A0,0 0 0 0 722.5386,1303 L722.5386,953 L712.5386,943 L382.4985,943 A0,0 0 0 0 382.4985,943" fill="#FFF7D6" style="stroke:#B45309;stroke-width:0.5;"/><path d="M712.5386,943 L712.5386,953 L722.5386,953 L712.5386,943" fill="#FFF7D6" style="stroke:#B45309;stroke-width:0.5;"/><text fill="#334155" font-family="Helvetica" font-size="14" lengthAdjust="spacing" textLength="101.165" x="388.4985" y="958.7803">shared diagram:</text><text fill="#334155" font-family="Helvetica" font-size="14" lengthAdjust="spacing" textLength="284.7852" x="388.4985" y="972.7803">shared/diagrams/shared-reconcile-activity.svg</text><text fill="#334155" font-family="Helvetica" font-size="14" lengthAdjust="spacing" textLength="265.3438" x="388.4985" y="986.7803">Start from the shared reconcile activity and</text><text fill="#334155" font-family="Helvetica" font-size="14" lengthAdjust="spacing" textLength="273.8955" x="388.4985" y="1000.7803">specialize provider-backed CRUD, wait, and</text><text fill="#334155" font-family="Helvetica" font-size="14" lengthAdjust="spacing" textLength="182.875" x="388.4985" y="1014.7803">status-projection details here.</text><text fill="#334155" font-family="Helvetica" font-size="14" lengthAdjust="spacing" textLength="229.5371" x="388.4985" y="1028.7803">Controller-local activity diagrams add</text><text fill="#334155" font-family="Helvetica" font-size="14" lengthAdjust="spacing" textLength="238.8955" x="388.4985" y="1042.7803">list-lookup hints, secret policies, delete</text><text fill="#334155" font-family="Helvetica" font-size="14" lengthAdjust="spacing" textLength="200.0332" x="388.4985" y="1056.7803">handling, and open formal gaps.</text><text fill="#334155" font-family="Helvetica" font-size="14" lengthAdjust="spacing" textLength="281.709" x="388.4985" y="1070.7803">archetype batch: Generated service-manager</text><text fill="#334155" font-family="Helvetica" font-size="14" lengthAdjust="spacing" textLength="291.0469" x="388.4985" y="1084.7803">controllers specialize the shared reconcile path</text><text fill="#334155" font-family="Helvetica" font-size="14" lengthAdjust="spacing" textLength="189.8477" x="388.4985" y="1098.7803">with formal runtime ownership.</text><text fill="#334155" font-family="Helvetica" font-size="14" lengthAdjust="spacing" textLength="79.3584" x="388.4985" y="1112.7803">service: core</text><text fill="#334155" font-family="Helvetica" font-size="14" lengthAdjust="spacing" textLength="176.6611" x="388.4985" y="1126.7803">slug: corecomputehostgroup</text><text fill="#334155" font-family="Helvetica" font-size="14" lengthAdjust="spacing" textLength="188.3096" x="388.4985" y="1140.7803">kind: CoreComputeHostGroup</text><text fill="#334155" font-family="Helvetica" font-size="14" lengthAdjust="spacing" textLength="241.2402" x="388.4985" y="1154.7803">archetype: generated-service-manager</text><text fill="#334155" font-family="Helvetica" font-size="14" lengthAdjust="spacing" textLength="156.4063" x="388.4985" y="1168.7803">status/finalizer: required /</text><text fill="#334155" font-family="Helvetica" font-size="14" lengthAdjust="spacing" textLength="174.3027" x="388.4985" y="1182.7803">retain-until-confirmed-delete</text><text fill="#334155" font-family="Helvetica" font-size="14" lengthAdjust="spacing" textLength="272.3984" x="388.4985" y="1196.7803">requeue: provisioning, updating, terminating</text><text fill="#334155" font-family="Helvetica" font-size="14" lengthAdjust="spacing" textLength="295.6816" x="388.4985" y="1210.7803">provider states: create PROVISIONING; update</text><text fill="#334155" font-family="Helvetica" font-size="14" lengthAdjust="spacing" textLength="192.165" x="388.4985" y="1224.7803">UPDATING; delete DELETING</text><text fill="#334155" font-family="Helvetica" font-size="14" lengthAdjust="spacing" textLength="319.04" x="388.4985" y="1238.7803">mutable/forceNew: display_name / compartment_id</text><text fill="#334155" font-family="Helvetica" font-size="14" lengthAdjust="spacing" textLength="104.3164" x="388.4985" y="1252.7803">open gaps: none</text><text fill="#334155" font-family="Helvetica" font-size="14" lengthAdjust="spacing" textLength="224.9023" x="388.4985" y="1266.7803">Scaffold metadata only; replace with</text><text fill="#334155" font-family="Helvetica" font-size="14" lengthAdjust="spacing" textLength="244.3232" x="388.4985" y="1280.7803">controller-specific runtime states before</text><text fill="#334155" font-family="Helvetica" font-size="14" lengthAdjust="spacing" textLength="66.1445" x="388.4985" y="1294.7803">promotion.</text><ellipse cx="351.4985" cy="1123" fill="none" rx="11" ry="11" style="stroke:#222222;stroke-width:1;"/><ellipse cx="351.4985" cy="1123" fill="#222222" rx="6" ry="6" style="stroke:#222222;stroke-width:1;"/><line style="stroke:#0F172A;stroke-width:1;" x1="351.4985" x2="351.4985" y1="65" y2="85"/><polygon fill="#0F172A" points="347.4985,75,351.4985,85,355.4985,75,351.4985,79" style="stroke:#0F172A;stroke-width:1;"/><line style="stroke:#0F172A;stroke-width:1;" x1="351.4985" x2="351.4985" y1="133" y2="153"/><polygon fill="#0F172A" points="347.4985,143,351.4985,153,355.4985,143,351.4985,147" style="stroke:#0F172A;stroke-width:1;"/><line style="stroke:#0F172A;stroke-width:1;" x1="351.4985" x2="351.4985" y1="201" y2="221"/><polygon fill="#0F172A" points="347.4985,211,351.4985,221,355.4985,211,351.4985,215" style="stroke:#0F172A;stroke-width:1;"/><line style="stroke:#0F172A;stroke-width:1;" x1="351.4985" x2="351.4985" y1="269" y2="289"/><polygon fill="#0F172A" points="347.4985,279,351.4985,289,355.4985,279,351.4985,283" style="stroke:#0F172A;stroke-width:1;"/><line style="stroke:#0F172A;stroke-width:1;" x1="177.0303" x2="177.0303" y1="439" y2="459"/><polygon fill="#0F172A" points="173.0303,449,177.0303,459,181.0303,449,177.0303,453" style="stroke:#0F172A;stroke-width:1;"/><line style="stroke:#0F172A;stroke-width:1;" x1="285.8091" x2="177.0303" y1="383" y2="383"/><line style="stroke:#0F172A;stroke-width:1;" x1="177.0303" x2="177.0303" y1="383" y2="405"/><polygon fill="#0F172A" points="173.0303,395,177.0303,405,181.0303,395,177.0303,399" style="stroke:#0F172A;stroke-width:1;"/><line style="stroke:#0F172A;stroke-width:1;" x1="417.188" x2="525.9668" y1="383" y2="383"/><line style="stroke:#0F172A;stroke-width:1;" x1="525.9668" x2="525.9668" y1="383" y2="405"/><polygon fill="#0F172A" points="521.9668,395,525.9668,405,529.9668,395,525.9668,399" style="stroke:#0F172A;stroke-width:1;"/><line style="stroke:#0F172A;stroke-width:1;" x1="177.0303" x2="177.0303" y1="507" y2="525"/><line style="stroke:#0F172A;stroke-width:1;" x1="177.0303" x2="339.4985" y1="525" y2="525"/><polygon fill="#0F172A" points="329.4985,521,339.4985,525,329.4985,529,333.4985,525" style="stroke:#0F172A;stroke-width:1;"/><line style="stroke:#0F172A;stroke-width:1;" x1="525.9668" x2="525.9668" y1="439" y2="525"/><line style="stroke:#0F172A;stroke-width:1;" x1="525.9668" x2="363.4985" y1="525" y2="525"/><polygon fill="#0F172A" points="373.4985,521,363.4985,525,373.4985,529,369.4985,525" style="stroke:#0F172A;stroke-width:1;"/><line style="stroke:#0F172A;stroke-width:1;" x1="351.4985" x2="351.4985" y1="351" y2="371"/><polygon fill="#0F172A" points="347.4985,361,351.4985,371,355.4985,361,351.4985,365" style="stroke:#0F172A;stroke-width:1;"/><line style="stroke:#0F172A;stroke-width:1;" x1="351.4985" x2="351.4985" y1="537" y2="557"/><polygon fill="#0F172A" points="347.4985,547,351.4985,557,355.4985,547,351.4985,551" style="stroke:#0F172A;stroke-width:1;"/><line style="stroke:#0F172A;stroke-width:1;" x1="351.4985" x2="351.4985" y1="661" y2="681"/><polygon fill="#0F172A" points="347.4985,671,351.4985,681,355.4985,671,351.4985,675" style="stroke:#0F172A;stroke-width:1;"/><line style="stroke:#0F172A;stroke-width:1;" x1="351.4985" x2="351.4985" y1="715" y2="735"/><polygon fill="#0F172A" points="347.4985,725,351.4985,735,355.4985,725,351.4985,729" style="stroke:#0F172A;stroke-width:1;"/><line style="stroke:#0F172A;stroke-width:1;" x1="351.4985" x2="351.4985" y1="811" y2="831"/><polygon fill="#0F172A" points="347.4985,821,351.4985,831,355.4985,821,351.4985,825" style="stroke:#0F172A;stroke-width:1;"/><line style="stroke:#0F172A;stroke-width:1;" x1="351.4985" x2="351.4985" y1="879" y2="899"/><polygon fill="#0F172A" points="347.4985,889,351.4985,899,355.4985,889,351.4985,893" style="stroke:#0F172A;stroke-width:1;"/><line style="stroke:#0F172A;stroke-width:1;" x1="351.4985" x2="351.4985" y1="933" y2="1112"/><polygon fill="#0F172A" points="347.4985,1102,351.4985,1112,355.4985,1102,351.4985,1106" style="stroke:#0F172A;stroke-width:1;"/><?plantuml-src bLPTJoCt57tthx3K5rRA9B30BfreLT641LG429Ro4Wavu-kCYyUUsfwaQTN_tcjxCXcoAMg5b6Ji-tNkFVSCxbNgcbbMKLSoRbPIBwXWoW5ntSsS5QyBQnhD9qOPItyG1VxndWK7mHhblnhjRra5z0hK4hmis7wRH_adqAEJtYMprgpQw8VYwFF7lgSs7dx-hWOXFlDFkrR6Sh2jnVpazFZmnnsBaBwzFpu-EJezxTt7y8Mn6Ymz-aIyz0heUU7bKlerpIXUmMY27nDJrOs7A-Fy9JhLVI0Ryxy8tTEuCy544MxwXRQ0AHNRuhepBbbbDFyEFto4Ct7OC-X7FE8dmC-sbr_t17QUMRzh3rtypcxETgB-JQ8hoH_35nNMHF9Ou5Geivhfz332t0jiYHkbvyn2ONGX5MIR9WtTSZ4c-OrX7EdXP0Ynhx_KrL1GfZd6zimtBYNzfPa33ik3mo0Fu0oIZjvDhWCq3tGf6Rq4lo_WJA-aB-cDT7klmmQeC3oC--I0ke89OHH_2Go87qNoAD5ZaJoayc3TJ8SRR4i5shz8FcXhMPMWGsbJgenvHNjZPtekDS-MwDMuhB0Gx3G0TrHXNTG6G8sNHe-95FGW06ni0HJ-m6ltqmVgGz23DRWFM6RDWt_D45Q1rJkQJlR1GrIN3RESLerdS-IuaA0mBPUkLcpzeiCAnsuBWmap3QkDoLjqOmAe5FH06wnWaX3qAaWd-oj0eac1KsiqhQrPIkGkBK7LuGix51ePlRzuOLlWmnHlquV1JFVkdfb4QR7Fnhu-mEyDEF-C4xv0MR5N24MXhiqqLesi--AXGfnOQ-2XqLyc3nVdtowcuvbkOi_wELCNDpdHX8E2joRJUDAPaFoyhjKQvrURZ3M-D87M3X2FfxLHibYZ4kbWc3nJone7ZgQ3TnXh4LjSatV87RdrhzJsXaulRYuGR-2g5j9MB94ilxVcDoZyDacxRDW_dBzc2cNRjX1c6k4mgRC6UwgoDX9kUUfFN4WSGmFKj1Dsc0IdCA2noV4NRao5SSF364N5r2H8DBLoKNhIIagh8ZdvNwf2Ujg4QxBHfyvugzC8ZWHvaH5UHyOih7-GeuUdwO2ka5s3P1fRajMfLGW9XGlxW6mlmSAGJ51fhL4A8oY3Qx1Dj2cSCiv9sF2ibO9IQky6RnWY0GzI9qdPqZVcfwR6dSUrh33qWjLkI9WjIl3h6b2fVL7cI0jyWI5f0-diKk82Lqop1LXITCKvsiEyjq61b2HohircmwHH6CmAmxjIraFIni_Zcv4urIpIprrr9FXwvFbUQT-MdzF5fl1ij_3KzL57mdpBqH5vbuZ49Xhc_uM4f9EYgDeEqIHHkt-u-_NwyVhkzlhsSfnyWJpTJy-_nOEKAkqL7f1MLqTHFczXbR-Lrj6EZ98ur33DF2e3UMpVDxH2Q9YBuHAfzJX8YcBu1WXZwGqpYxCKikXcbCgdSn1XC8YgCe6hmo2xyT-WVm00?></g></svg>