<?plantuml 1.2026.1?><svg xmlns="http://www.w3.org/2000/svg" xmlns:xlink="http://www.w3.org/1999/xlink" contentStyleType="text/css" data-diagram-type="ACTIVITY" height="2277px" preserveAspectRatio="none" style="width:1285px;height:2277px;background:#FCFCFD;" version="1.1" viewBox="0 0 1285 2277" width="1285px" zoomAndPan="magnify"><title>Activity - osmanagementhub/OsManagementHubManagedInstanceGroups</title><defs/><g><rect fill="#FCFCFD" height="2277" style="stroke:none;stroke-width:1;" width="1285" x="0" y="0"/><g class="title" data-source-line="10"><text fill="#000000" font-family="Helvetica" font-size="14" font-weight="bold" lengthAdjust="spacing" textLength="493.9717" x="394.0811" y="30.7803">Activity - osmanagementhub/OsManagementHubManagedInstanceGroups</text></g><ellipse cx="677.856" cy="55" fill="#1D4ED8" rx="10" ry="10" style="stroke:#222222;stroke-width:1;"/><rect fill="none" height="472" rx="8" ry="8" style="stroke:#000000;stroke-width:1.5;" width="746.7139" x="313.6438" y="75"/><path d="M435.7122,75 L435.7122,82 L425.7122,92 L313.6438,92" fill="none" style="stroke:#000000;stroke-width:1.5;"/><text fill="#000000" font-family="Helvetica" font-size="14" lengthAdjust="spacing" textLength="112.0684" x="316.6438" y="86.7803">Observe and Bind</text><rect fill="#F8FAFC" height="48" rx="8" ry="8" style="stroke:#0F172A;stroke-width:0.5;" width="304.7852" x="525.4634" y="109"/><text fill="#0F172A" font-family="Helvetica" font-size="14" lengthAdjust="spacing" textLength="136.9375" x="535.4634" y="129.7803">Start from shared flow</text><text fill="#0F172A" font-family="Helvetica" font-size="14" lengthAdjust="spacing" textLength="284.7852" x="535.4634" y="143.7803">shared/diagrams/shared-reconcile-activity.svg</text><rect fill="#F8FAFC" height="62" rx="8" ry="8" style="stroke:#0F172A;stroke-width:0.5;" width="339.8535" x="507.9292" y="177"/><text fill="#0F172A" font-family="Helvetica" font-size="14" lengthAdjust="spacing" textLength="83.2754" x="517.9292" y="197.7803">Read desired</text><text fill="#0F172A" font-family="Helvetica" font-size="14" lengthAdjust="spacing" textLength="319.8535" x="517.9292" y="211.7803">OsManagementHubManagedInstanceGroups spec,</text><text fill="#0F172A" font-family="Helvetica" font-size="14" lengthAdjust="spacing" textLength="198.4609" x="517.9292" y="225.7803">tracked status, and delete intent</text><polygon fill="#E2E8F0" points="548.3901,259,807.3218,259,819.3218,271,807.3218,283,548.3901,283,536.3901,271,548.3901,259" style="stroke:#1D4ED8;stroke-width:0.5;"/><text fill="#0F172A" font-family="Helvetica" font-size="14" lengthAdjust="spacing" textLength="258.9316" x="548.3901" y="274.7803">"Tracked or explicit OCI identity present?"</text><text fill="#000000" font-family="Helvetica" font-size="14" lengthAdjust="spacing" textLength="21.7861" x="514.604" y="267.7803">yes</text><text fill="#000000" font-family="Helvetica" font-size="14" lengthAdjust="spacing" textLength="15.5723" x="819.3218" y="267.7803">no</text><rect fill="#F8FAFC" height="48" rx="8" ry="8" style="stroke:#0F172A;stroke-width:0.5;" width="325.0674" x="333.6438" y="293"/><text fill="#0F172A" font-family="Helvetica" font-size="14" lengthAdjust="spacing" textLength="202.3027" x="343.6438" y="313.7803">Get the current OCI resource via</text><text fill="#0F172A" font-family="Helvetica" font-size="14" lengthAdjust="spacing" textLength="305.0674" x="343.6438" y="327.7803">GetOsManagementHubManagedInstanceGroups</text><rect fill="#F8FAFC" height="62" rx="8" ry="8" style="stroke:#0F172A;stroke-width:0.5;" width="361.6465" x="678.7112" y="293"/><text fill="#0F172A" font-family="Helvetica" font-size="14" lengthAdjust="spacing" textLength="259.9092" x="688.7112" y="313.7803">Resolve an existing OCI resource through</text><text fill="#0F172A" font-family="Helvetica" font-size="14" lengthAdjust="spacing" textLength="341.6465" x="688.7112" y="327.7803">ListOsManagementHubManagedInstanceGroups using</text><text fill="#0F172A" font-family="Helvetica" font-size="14" lengthAdjust="spacing" textLength="175.8477" x="688.7112" y="341.7803">filters compartment_id, state</text><rect fill="#F8FAFC" height="62" rx="8" ry="8" style="stroke:#0F172A;stroke-width:0.5;" width="344.5225" x="687.2732" y="375"/><text fill="#0F172A" font-family="Helvetica" font-size="14" lengthAdjust="spacing" textLength="174.2959" x="697.2732" y="395.7803">Create the OCI resource via</text><text fill="#0F172A" font-family="Helvetica" font-size="14" lengthAdjust="spacing" textLength="324.5225" x="697.2732" y="409.7803">CreateOsManagementHubManagedInstanceGroups</text><text fill="#0F172A" font-family="Helvetica" font-size="14" lengthAdjust="spacing" textLength="205.4609" x="697.2732" y="423.7803">when no reusable match is found</text><rect fill="#F8FAFC" height="48" rx="8" ry="8" style="stroke:#0F172A;stroke-width:0.5;" width="286.8955" x="716.0867" y="457"/><text fill="#0F172A" font-family="Helvetica" font-size="14" lengthAdjust="spacing" textLength="266.8955" x="726.0867" y="477.7803">Persist the resolved or created OCI identity</text><text fill="#0F172A" font-family="Helvetica" font-size="14" lengthAdjust="spacing" textLength="63.8135" x="726.0867" y="491.7803">into status</text><polygon fill="#E2E8F0" points="677.856,511,689.856,523,677.856,535,665.856,523,677.856,511" style="stroke:#1D4ED8;stroke-width:0.5;"/><polygon fill="#E2E8F0" points="615.6797,567,740.0322,567,752.0322,579,740.0322,591,615.6797,591,603.6797,579,615.6797,567" style="stroke:#1D4ED8;stroke-width:0.5;"/><text fill="#0F172A" font-family="Helvetica" font-size="14" lengthAdjust="spacing" textLength="124.3525" x="615.6797" y="582.7803">"Delete requested?"</text><text fill="#000000" font-family="Helvetica" font-size="14" lengthAdjust="spacing" textLength="21.7861" x="581.8936" y="575.7803">yes</text><text fill="#000000" font-family="Helvetica" font-size="14" lengthAdjust="spacing" textLength="15.5723" x="752.0322" y="575.7803">no</text><rect fill="none" height="408" rx="8" ry="8" style="stroke:#000000;stroke-width:1.5;" width="644.4814" x="11" y="601"/><path d="M61.4688,601 L61.4688,608 L51.4688,618 L11,618" fill="none" style="stroke:#000000;stroke-width:1.5;"/><text fill="#000000" font-family="Helvetica" font-size="14" lengthAdjust="spacing" textLength="40.4688" x="14" y="612.7803">Delete</text><rect fill="#F8FAFC" height="104" rx="8" ry="8" style="stroke:#0F172A;stroke-width:0.5;" width="342.9707" x="168.2588" y="635"/><text fill="#0F172A" font-family="Helvetica" font-size="14" lengthAdjust="spacing" textLength="105.0684" x="178.2588" y="655.7803">Delete path uses</text><text fill="#0F172A" font-family="Helvetica" font-size="14" lengthAdjust="spacing" textLength="322.9707" x="178.2588" y="669.7803">DeleteOsManagementHubManagedInstanceGroups</text><text fill="#0F172A" font-family="Helvetica" font-size="14" lengthAdjust="spacing" textLength="101.9375" x="178.2588" y="683.7803">with required via</text><text fill="#0F172A" font-family="Helvetica" font-size="14" lengthAdjust="spacing" textLength="321.4053" x="178.2588" y="697.7803">GetOsManagementHubManagedInstanceGroups or</text><text fill="#0F172A" font-family="Helvetica" font-size="14" lengthAdjust="spacing" textLength="319.8535" x="178.2588" y="711.7803">ListOsManagementHubManagedInstanceGroups to</text><text fill="#0F172A" font-family="Helvetica" font-size="14" lengthAdjust="spacing" textLength="144.7168" x="178.2588" y="725.7803">DELETED confirmation</text><rect fill="#F8FAFC" height="76" rx="8" ry="8" style="stroke:#0F172A;stroke-width:0.5;" width="353.8604" x="162.814" y="766"/><text fill="#0F172A" font-family="Helvetica" font-size="14" lengthAdjust="spacing" textLength="123.7236" x="172.814" y="786.7803">Confirm deletion via</text><text fill="#0F172A" font-family="Helvetica" font-size="14" lengthAdjust="spacing" textLength="321.4053" x="172.814" y="800.7803">GetOsManagementHubManagedInstanceGroups or</text><text fill="#0F172A" font-family="Helvetica" font-size="14" lengthAdjust="spacing" textLength="333.8604" x="172.814" y="814.7803">ListOsManagementHubManagedInstanceGroups until</text><text fill="#0F172A" font-family="Helvetica" font-size="14" lengthAdjust="spacing" textLength="147.0479" x="172.814" y="828.7803">OCI reaches DELETED</text><polygon fill="#E2E8F0" points="191.5718,877,487.9165,877,499.9165,889,487.9165,901,191.5718,901,179.5718,889,191.5718,877" style="stroke:#1D4ED8;stroke-width:0.5;"/><text fill="#0F172A" font-family="Helvetica" font-size="14" lengthAdjust="spacing" textLength="296.3447" x="191.5718" y="892.7803">"Delete cleanup and finalizer release succeed?"</text><text fill="#000000" font-family="Helvetica" font-size="14" lengthAdjust="spacing" textLength="21.7861" x="157.7856" y="885.7803">yes</text><text fill="#000000" font-family="Helvetica" font-size="14" lengthAdjust="spacing" textLength="15.5723" x="499.9165" y="885.7803">no</text><rect fill="#F8FAFC" height="34" rx="8" ry="8" style="stroke:#0F172A;stroke-width:0.5;" width="293.1436" x="23" y="911"/><text fill="#0F172A" font-family="Helvetica" font-size="14" lengthAdjust="spacing" textLength="273.1436" x="33" y="931.7803">Remove the finalizer after delete completion</text><rect fill="#F8FAFC" height="48" rx="8" ry="8" style="stroke:#0F172A;stroke-width:0.5;" width="251.1299" x="384.3516" y="911"/><text fill="#0F172A" font-family="Helvetica" font-size="14" lengthAdjust="spacing" textLength="231.1299" x="394.3516" y="931.7803">Stay blocked until cleanup or finalizer</text><text fill="#0F172A" font-family="Helvetica" font-size="14" lengthAdjust="spacing" textLength="108.9512" x="394.3516" y="945.7803">release succeeds</text><polygon fill="#E2E8F0" points="339.7441,965,351.7441,977,339.7441,989,327.7441,977,339.7441,965" style="stroke:#1D4ED8;stroke-width:0.5;"/><ellipse cx="339.7441" cy="1054" fill="none" rx="11" ry="11" style="stroke:#222222;stroke-width:1;"/><ellipse cx="339.7441" cy="1054" fill="#222222" rx="6" ry="6" style="stroke:#222222;stroke-width:1;"/><rect fill="none" height="450" rx="8" ry="8" style="stroke:#000000;stroke-width:1.5;" width="345.916" x="849.0098" y="601"/><path d="M999.8438,601 L999.8438,608 L989.8438,618 L849.0098,618" fill="none" style="stroke:#000000;stroke-width:1.5;"/><text fill="#000000" font-family="Helvetica" font-size="14" lengthAdjust="spacing" textLength="140.834" x="852.0098" y="612.7803">Lifecycle Classification</text><rect fill="#F8FAFC" height="48" rx="8" ry="8" style="stroke:#0F172A;stroke-width:0.5;" width="280.5928" x="875.6714" y="684"/><text fill="#0F172A" font-family="Helvetica" font-size="14" lengthAdjust="spacing" textLength="240.4541" x="885.6714" y="704.7803">Request requeue while OCI remains in</text><text fill="#0F172A" font-family="Helvetica" font-size="14" lengthAdjust="spacing" textLength="260.5928" x="885.6714" y="718.7803">PROVISIONING, UPDATING, DELETING</text><ellipse cx="1015.9678" cy="770" fill="none" rx="11" ry="11" style="stroke:#222222;stroke-width:1;"/><ellipse cx="1015.9678" cy="770" fill="#222222" rx="6" ry="6" style="stroke:#222222;stroke-width:1;"/><polygon fill="#E2E8F0" points="929.6846,635,1102.251,635,1114.251,647,1102.251,659,929.6846,659,917.6846,647,929.6846,635" style="stroke:#1D4ED8;stroke-width:0.5;"/><text fill="#000000" font-family="Helvetica" font-size="14" lengthAdjust="spacing" textLength="21.7861" x="1019.9678" y="669.7803">yes</text><text fill="#0F172A" font-family="Helvetica" font-size="14" lengthAdjust="spacing" textLength="172.5664" x="929.6846" y="650.7803">"OCI state in retryable set?"</text><rect fill="#F8FAFC" height="48" rx="8" ry="8" style="stroke:#0F172A;stroke-width:0.5;" width="293.916" x="869.0098" y="896"/><text fill="#0F172A" font-family="Helvetica" font-size="14" lengthAdjust="spacing" textLength="273.916" x="879.0098" y="916.7803">Return an unsuccessful reconcile result until</text><text fill="#0F172A" font-family="Helvetica" font-size="14" lengthAdjust="spacing" textLength="133.041" x="879.0098" y="930.7803">OCI reaches ACTIVE</text><ellipse cx="1015.9678" cy="990" fill="none" rx="11" ry="11" style="stroke:#222222;stroke-width:1;"/><ellipse cx="1015.9678" cy="990" fill="#222222" rx="6" ry="6" style="stroke:#222222;stroke-width:1;"/><polygon fill="#E2E8F0" points="895.4468,847,1136.4888,847,1148.4888,859,1136.4888,871,895.4468,871,883.4468,859,895.4468,847" style="stroke:#1D4ED8;stroke-width:0.5;"/><text fill="#000000" font-family="Helvetica" font-size="14" lengthAdjust="spacing" textLength="21.7861" x="1019.9678" y="881.7803">yes</text><text fill="#0F172A" font-family="Helvetica" font-size="14" lengthAdjust="spacing" textLength="241.042" x="895.4468" y="862.7803">"OCI state is outside success targets?"</text><rect fill="none" height="736.5" rx="8" ry="8" style="stroke:#000000;stroke-width:1.5;" width="598.6523" x="675.4814" y="1075"/><path d="M841.9014,1075 L841.9014,1082 L831.9014,1092 L675.4814,1092" fill="none" style="stroke:#000000;stroke-width:1.5;"/><text fill="#000000" font-family="Helvetica" font-size="14" lengthAdjust="spacing" textLength="156.4199" x="678.4814" y="1086.7803">Ready and Drift Handling</text><rect fill="#F8FAFC" height="48" rx="8" ry="8" style="stroke:#0F172A;stroke-width:0.5;" width="296.2402" x="867.8477" y="1109"/><text fill="#0F172A" font-family="Helvetica" font-size="14" lengthAdjust="spacing" textLength="276.2402" x="877.8477" y="1129.7803">Compare live OCI state against the imported</text><text fill="#0F172A" font-family="Helvetica" font-size="14" lengthAdjust="spacing" textLength="75.4824" x="877.8477" y="1143.7803">field surface</text><rect fill="#F8FAFC" height="48" rx="8" ry="8" style="stroke:#0F172A;stroke-width:0.5;" width="302.4473" x="864.7441" y="1226"/><text fill="#0F172A" font-family="Helvetica" font-size="14" lengthAdjust="spacing" textLength="282.4473" x="874.7441" y="1246.7803">Reject drift before OCI mutation for force-new</text><text fill="#0F172A" font-family="Helvetica" font-size="14" lengthAdjust="spacing" textLength="136.9512" x="874.7441" y="1260.7803">fields compartment_id</text><ellipse cx="1015.9678" cy="1306.5" fill="none" rx="11" ry="11" style="stroke:#222222;stroke-width:1;"/><ellipse cx="1015.9678" cy="1306.5" fill="#222222" rx="6" ry="6" style="stroke:#222222;stroke-width:1;"/><polygon fill="#E2E8F0" points="890.3848,1177,1141.5508,1177,1153.5508,1189,1141.5508,1201,890.3848,1201,878.3848,1189,890.3848,1177" style="stroke:#1D4ED8;stroke-width:0.5;"/><text fill="#000000" font-family="Helvetica" font-size="14" lengthAdjust="spacing" textLength="21.7861" x="1019.9678" y="1211.7803">yes</text><text fill="#0F172A" font-family="Helvetica" font-size="14" lengthAdjust="spacing" textLength="251.166" x="890.3848" y="1192.7803">"Force-new or conflicting drift detected?"</text><polygon fill="#E2E8F0" points="905.54,1359.5,1126.3955,1359.5,1138.3955,1371.5,1126.3955,1383.5,905.54,1383.5,893.54,1371.5,905.54,1359.5" style="stroke:#1D4ED8;stroke-width:0.5;"/><text fill="#0F172A" font-family="Helvetica" font-size="14" lengthAdjust="spacing" textLength="220.8555" x="905.54" y="1375.2803">"Supported mutable drift detected?"</text><text fill="#000000" font-family="Helvetica" font-size="14" lengthAdjust="spacing" textLength="21.7861" x="871.7539" y="1368.2803">yes</text><text fill="#000000" font-family="Helvetica" font-size="14" lengthAdjust="spacing" textLength="15.5723" x="1138.3955" y="1368.2803">no</text><rect fill="#F8FAFC" height="62" rx="8" ry="8" style="stroke:#0F172A;stroke-width:0.5;" width="347.6465" x="695.4814" y="1393.5"/><text fill="#0F172A" font-family="Helvetica" font-size="14" lengthAdjust="spacing" textLength="35.0205" x="705.4814" y="1414.2803">Apply</text><text fill="#0F172A" font-family="Helvetica" font-size="14" lengthAdjust="spacing" textLength="327.6465" x="705.4814" y="1428.2803">UpdateOsManagementHubManagedInstanceGroups</text><text fill="#0F172A" font-family="Helvetica" font-size="14" lengthAdjust="spacing" textLength="226.4541" x="705.4814" y="1442.2803">only for mutable fields display_name</text><rect fill="#F8FAFC" height="34" rx="8" ry="8" style="stroke:#0F172A;stroke-width:0.5;" width="199.0059" x="1063.1279" y="1393.5"/><text fill="#0F172A" font-family="Helvetica" font-size="14" lengthAdjust="spacing" textLength="179.0059" x="1073.1279" y="1414.2803">Skip the no-op mutation path</text><polygon fill="#E2E8F0" points="1015.9678,1461.5,1027.9678,1473.5,1015.9678,1485.5,1003.9678,1473.5,1015.9678,1461.5" style="stroke:#1D4ED8;stroke-width:0.5;"/><rect fill="#F8FAFC" height="118" rx="8" ry="8" style="stroke:#0F172A;stroke-width:0.5;" width="334.3164" x="848.8096" y="1505.5"/><text fill="#0F172A" font-family="Helvetica" font-size="14" lengthAdjust="spacing" textLength="164.2061" x="858.8096" y="1526.2803">Run provider helper hooks</text><text fill="#0F172A" font-family="Helvetica" font-size="14" lengthAdjust="spacing" textLength="219.0508" x="858.8096" y="1540.2803">create=tfresource.CreateResource,</text><text fill="#0F172A" font-family="Helvetica" font-size="14" lengthAdjust="spacing" textLength="314.3164" x="858.8096" y="1554.2803">tfresource.WaitForWorkRequestWithErrorHandling</text><text fill="#0F172A" font-family="Helvetica" font-size="14" lengthAdjust="spacing" textLength="215.5439" x="858.8096" y="1568.2803">entity=template action=CREATED;</text><text fill="#0F172A" font-family="Helvetica" font-size="14" lengthAdjust="spacing" textLength="226.085" x="858.8096" y="1582.2803">update=tfresource.UpdateResource;</text><text fill="#0F172A" font-family="Helvetica" font-size="14" lengthAdjust="spacing" textLength="273.5537" x="858.8096" y="1596.2803">delete=tfresource.DeleteResource when the</text><text fill="#0F172A" font-family="Helvetica" font-size="14" lengthAdjust="spacing" textLength="220.2334" x="858.8096" y="1610.2803">matching field-driven path executes</text><rect fill="#F8FAFC" height="34" rx="8" ry="8" style="stroke:#0F172A;stroke-width:0.5;" width="303.2197" x="864.3579" y="1643.5"/><text fill="#0F172A" font-family="Helvetica" font-size="14" lengthAdjust="spacing" textLength="283.2197" x="874.3579" y="1664.2803">Return success for the ACTIVE success state</text><rect fill="#F8FAFC" height="48" rx="8" ry="8" style="stroke:#0F172A;stroke-width:0.5;" width="279.1299" x="876.4028" y="1697.5"/><text fill="#0F172A" font-family="Helvetica" font-size="14" lengthAdjust="spacing" textLength="259.1299" x="886.4028" y="1718.2803">Project required status and finalizer policy</text><text fill="#0F172A" font-family="Helvetica" font-size="14" lengthAdjust="spacing" textLength="174.3027" x="886.4028" y="1732.2803">retain-until-confirmed-delete</text><rect fill="#F8FAFC" height="34" rx="8" ry="8" style="stroke:#0F172A;stroke-width:0.5;" width="313.4189" x="859.2583" y="1765.5"/><text fill="#0F172A" font-family="Helvetica" font-size="14" lengthAdjust="spacing" textLength="293.4189" x="869.2583" y="1786.2803">Requeue on provisioning, updating, terminating</text><path d="M708.856,1821.5 L708.856,2039.5 L688.856,2043.5 L708.856,2047.5 L708.856,2265.5 A0,0 0 0 0 708.856,2265.5 L1186.729,2265.5 A0,0 0 0 0 1186.729,2265.5 L1186.729,1831.5 L1176.729,1821.5 L708.856,1821.5 A0,0 0 0 0 708.856,1821.5" fill="#FFF7D6" style="stroke:#B45309;stroke-width:0.5;"/><path d="M1176.729,1821.5 L1176.729,1831.5 L1186.729,1831.5 L1176.729,1821.5" fill="#FFF7D6" style="stroke:#B45309;stroke-width:0.5;"/><text fill="#334155" font-family="Helvetica" font-size="14" lengthAdjust="spacing" textLength="101.165" x="714.856" y="1837.2803">shared diagram:</text><text fill="#334155" font-family="Helvetica" font-size="14" lengthAdjust="spacing" textLength="284.7852" x="714.856" y="1851.2803">shared/diagrams/shared-reconcile-activity.svg</text><text fill="#334155" font-family="Helvetica" font-size="14" lengthAdjust="spacing" textLength="265.3438" x="714.856" y="1865.2803">Start from the shared reconcile activity and</text><text fill="#334155" font-family="Helvetica" font-size="14" lengthAdjust="spacing" textLength="273.8955" x="714.856" y="1879.2803">specialize provider-backed CRUD, wait, and</text><text fill="#334155" font-family="Helvetica" font-size="14" lengthAdjust="spacing" textLength="182.875" x="714.856" y="1893.2803">status-projection details here.</text><text fill="#334155" font-family="Helvetica" font-size="14" lengthAdjust="spacing" textLength="229.5371" x="714.856" y="1907.2803">Controller-local activity diagrams add</text><text fill="#334155" font-family="Helvetica" font-size="14" lengthAdjust="spacing" textLength="238.8955" x="714.856" y="1921.2803">list-lookup hints, secret policies, delete</text><text fill="#334155" font-family="Helvetica" font-size="14" lengthAdjust="spacing" textLength="200.0332" x="714.856" y="1935.2803">handling, and open formal gaps.</text><text fill="#334155" font-family="Helvetica" font-size="14" lengthAdjust="spacing" textLength="281.709" x="714.856" y="1949.2803">archetype batch: Generated service-manager</text><text fill="#334155" font-family="Helvetica" font-size="14" lengthAdjust="spacing" textLength="291.0469" x="714.856" y="1963.2803">controllers specialize the shared reconcile path</text><text fill="#334155" font-family="Helvetica" font-size="14" lengthAdjust="spacing" textLength="189.8477" x="714.856" y="1977.2803">with formal runtime ownership.</text><text fill="#334155" font-family="Helvetica" font-size="14" lengthAdjust="spacing" textLength="171.9854" x="714.856" y="1991.2803">service: osmanagementhub</text><text fill="#334155" font-family="Helvetica" font-size="14" lengthAdjust="spacing" textLength="306.6533" x="714.856" y="2005.2803">slug: osmanagementhubmanagedinstancegroups</text><text fill="#334155" font-family="Helvetica" font-size="14" lengthAdjust="spacing" textLength="315.9639" x="714.856" y="2019.2803">kind: OsManagementHubManagedInstanceGroups</text><text fill="#334155" font-family="Helvetica" font-size="14" lengthAdjust="spacing" textLength="241.2402" x="714.856" y="2033.2803">archetype: generated-service-manager</text><text fill="#334155" font-family="Helvetica" font-size="14" lengthAdjust="spacing" textLength="156.4063" x="714.856" y="2047.2803">status/finalizer: required /</text><text fill="#334155" font-family="Helvetica" font-size="14" lengthAdjust="spacing" textLength="174.3027" x="714.856" y="2061.2803">retain-until-confirmed-delete</text><text fill="#334155" font-family="Helvetica" font-size="14" lengthAdjust="spacing" textLength="272.3984" x="714.856" y="2075.2803">requeue: provisioning, updating, terminating</text><text fill="#334155" font-family="Helvetica" font-size="14" lengthAdjust="spacing" textLength="295.6816" x="714.856" y="2089.2803">provider states: create PROVISIONING; update</text><text fill="#334155" font-family="Helvetica" font-size="14" lengthAdjust="spacing" textLength="192.165" x="714.856" y="2103.2803">UPDATING; delete DELETING</text><text fill="#334155" font-family="Helvetica" font-size="14" lengthAdjust="spacing" textLength="183.6611" x="714.856" y="2117.2803">supported drift: display_name</text><text fill="#334155" font-family="Helvetica" font-size="14" lengthAdjust="spacing" textLength="230.3301" x="714.856" y="2131.2803">reject before mutate: force-new fields</text><text fill="#334155" font-family="Helvetica" font-size="14" lengthAdjust="spacing" textLength="100.3789" x="714.856" y="2145.2803">compartment_id</text><text fill="#334155" font-family="Helvetica" font-size="14" lengthAdjust="spacing" textLength="66.1445" x="714.856" y="2159.2803">list lookup:</text><text fill="#334155" font-family="Helvetica" font-size="14" lengthAdjust="spacing" textLength="456.873" x="714.856" y="2173.2803">scaffold_osmanagementhub_osmanagementhubmanagedinstancegroups</text><text fill="#334155" font-family="Helvetica" font-size="14" lengthAdjust="spacing" textLength="175.8477" x="714.856" y="2187.2803">filters compartment_id, state</text><text fill="#334155" font-family="Helvetica" font-size="14" lengthAdjust="spacing" textLength="89.4961" x="714.856" y="2201.2803">conflicts: none</text><text fill="#334155" font-family="Helvetica" font-size="14" lengthAdjust="spacing" textLength="104.3164" x="714.856" y="2215.2803">open gaps: none</text><text fill="#334155" font-family="Helvetica" font-size="14" lengthAdjust="spacing" textLength="224.9023" x="714.856" y="2229.2803">Scaffold metadata only; replace with</text><text fill="#334155" font-family="Helvetica" font-size="14" lengthAdjust="spacing" textLength="244.3232" x="714.856" y="2243.2803">controller-specific runtime states before</text><text fill="#334155" font-family="Helvetica" font-size="14" lengthAdjust="spacing" textLength="66.1445" x="714.856" y="2257.2803">promotion.</text><ellipse cx="677.856" cy="2043.5" fill="none" rx="11" ry="11" style="stroke:#222222;stroke-width:1;"/><ellipse cx="677.856" cy="2043.5" fill="#222222" rx="6" ry="6" style="stroke:#222222;stroke-width:1;"/><line style="stroke:#0F172A;stroke-width:1;" x1="677.856" x2="677.856" y1="157" y2="177"/><polygon fill="#0F172A" points="673.856,167,677.856,177,681.856,167,677.856,171" style="stroke:#0F172A;stroke-width:1;"/><line style="stroke:#0F172A;stroke-width:1;" x1="859.5344" x2="859.5344" y1="355" y2="375"/><polygon fill="#0F172A" points="855.5344,365,859.5344,375,863.5344,365,859.5344,369" style="stroke:#0F172A;stroke-width:1;"/><line style="stroke:#0F172A;stroke-width:1;" x1="859.5344" x2="859.5344" y1="437" y2="457"/><polygon fill="#0F172A" points="855.5344,447,859.5344,457,863.5344,447,859.5344,451" style="stroke:#0F172A;stroke-width:1;"/><line style="stroke:#0F172A;stroke-width:1;" x1="536.3901" x2="496.1775" y1="271" y2="271"/><line style="stroke:#0F172A;stroke-width:1;" x1="496.1775" x2="496.1775" y1="271" y2="293"/><polygon fill="#0F172A" points="492.1775,283,496.1775,293,500.1775,283,496.1775,287" style="stroke:#0F172A;stroke-width:1;"/><line style="stroke:#0F172A;stroke-width:1;" x1="819.3218" x2="859.5344" y1="271" y2="271"/><line style="stroke:#0F172A;stroke-width:1;" x1="859.5344" x2="859.5344" y1="271" y2="293"/><polygon fill="#0F172A" points="855.5344,283,859.5344,293,863.5344,283,859.5344,287" style="stroke:#0F172A;stroke-width:1;"/><line style="stroke:#0F172A;stroke-width:1;" x1="496.1775" x2="496.1775" y1="341" y2="523"/><line style="stroke:#0F172A;stroke-width:1;" x1="496.1775" x2="665.856" y1="523" y2="523"/><polygon fill="#0F172A" points="655.856,519,665.856,523,655.856,527,659.856,523" style="stroke:#0F172A;stroke-width:1;"/><line style="stroke:#0F172A;stroke-width:1;" x1="859.5344" x2="859.5344" y1="505" y2="523"/><line style="stroke:#0F172A;stroke-width:1;" x1="859.5344" x2="689.856" y1="523" y2="523"/><polygon fill="#0F172A" points="699.856,519,689.856,523,699.856,527,695.856,523" style="stroke:#0F172A;stroke-width:1;"/><line style="stroke:#0F172A;stroke-width:1;" x1="677.856" x2="677.856" y1="239" y2="259"/><polygon fill="#0F172A" points="673.856,249,677.856,259,681.856,249,677.856,253" style="stroke:#0F172A;stroke-width:1;"/><line style="stroke:#0F172A;stroke-width:1;" x1="677.856" x2="677.856" y1="65" y2="109"/><polygon fill="#0F172A" points="673.856,99,677.856,109,681.856,99,677.856,103" style="stroke:#0F172A;stroke-width:1;"/><line style="stroke:#0F172A;stroke-width:1;" x1="339.7441" x2="339.7441" y1="739" y2="766"/><polygon fill="#0F172A" points="335.7441,756,339.7441,766,343.7441,756,339.7441,760" style="stroke:#0F172A;stroke-width:1;"/><line style="stroke:#0F172A;stroke-width:1;" x1="179.5718" x2="169.5718" y1="889" y2="889"/><line style="stroke:#0F172A;stroke-width:1;" x1="169.5718" x2="169.5718" y1="889" y2="911"/><polygon fill="#0F172A" points="165.5718,901,169.5718,911,173.5718,901,169.5718,905" style="stroke:#0F172A;stroke-width:1;"/><line style="stroke:#0F172A;stroke-width:1;" x1="499.9165" x2="509.9165" y1="889" y2="889"/><line style="stroke:#0F172A;stroke-width:1;" x1="509.9165" x2="509.9165" y1="889" y2="911"/><polygon fill="#0F172A" points="505.9165,901,509.9165,911,513.9165,901,509.9165,905" style="stroke:#0F172A;stroke-width:1;"/><line style="stroke:#0F172A;stroke-width:1;" x1="169.5718" x2="169.5718" y1="945" y2="977"/><line style="stroke:#0F172A;stroke-width:1;" x1="169.5718" x2="327.7441" y1="977" y2="977"/><polygon fill="#0F172A" points="317.7441,973,327.7441,977,317.7441,981,321.7441,977" style="stroke:#0F172A;stroke-width:1;"/><line style="stroke:#0F172A;stroke-width:1;" x1="509.9165" x2="509.9165" y1="959" y2="977"/><line style="stroke:#0F172A;stroke-width:1;" x1="509.9165" x2="351.7441" y1="977" y2="977"/><polygon fill="#0F172A" points="361.7441,973,351.7441,977,361.7441,981,357.7441,977" style="stroke:#0F172A;stroke-width:1;"/><line style="stroke:#0F172A;stroke-width:1;" x1="339.7441" x2="339.7441" y1="842" y2="877"/><polygon fill="#0F172A" points="335.7441,867,339.7441,877,343.7441,867,339.7441,871" style="stroke:#0F172A;stroke-width:1;"/><line style="stroke:#0F172A;stroke-width:1;" x1="339.7441" x2="339.7441" y1="989" y2="1043"/><polygon fill="#0F172A" points="335.7441,1033,339.7441,1043,343.7441,1033,339.7441,1037" style="stroke:#0F172A;stroke-width:1;"/><line style="stroke:#0F172A;stroke-width:1;" x1="1015.9678" x2="1015.9678" y1="732" y2="759"/><polygon fill="#0F172A" points="1011.9678,749,1015.9678,759,1019.9678,749,1015.9678,753" style="stroke:#0F172A;stroke-width:1;"/><line style="stroke:#0F172A;stroke-width:1;" x1="1015.9678" x2="1015.9678" y1="659" y2="684"/><polygon fill="#0F172A" points="1011.9678,674,1015.9678,684,1019.9678,674,1015.9678,678" style="stroke:#0F172A;stroke-width:1;"/><line style="stroke:#0F172A;stroke-width:1;" x1="1114.251" x2="1166.2642" y1="647" y2="647"/><polygon fill="#0F172A" points="1162.2642,723.5,1166.2642,733.5,1170.2642,723.5,1166.2642,727.5" style="stroke:#0F172A;stroke-width:1;"/><line style="stroke:#0F172A;stroke-width:1;" x1="1166.2642" x2="1166.2642" y1="647" y2="812"/><line style="stroke:#0F172A;stroke-width:1;" x1="1166.2642" x2="1015.9678" y1="812" y2="812"/><line style="stroke:#0F172A;stroke-width:1;" x1="1015.9678" x2="1015.9678" y1="812" y2="847"/><polygon fill="#0F172A" points="1011.9678,837,1015.9678,847,1019.9678,837,1015.9678,841" style="stroke:#0F172A;stroke-width:1;"/><line style="stroke:#0F172A;stroke-width:1;" x1="1015.9678" x2="1015.9678" y1="944" y2="979"/><polygon fill="#0F172A" points="1011.9678,969,1015.9678,979,1019.9678,969,1015.9678,973" style="stroke:#0F172A;stroke-width:1;"/><line style="stroke:#0F172A;stroke-width:1;" x1="1015.9678" x2="1015.9678" y1="871" y2="896"/><polygon fill="#0F172A" points="1011.9678,886,1015.9678,896,1019.9678,886,1015.9678,890" style="stroke:#0F172A;stroke-width:1;"/><line style="stroke:#0F172A;stroke-width:1;" x1="1148.4888" x2="1172.9258" y1="859" y2="859"/><polygon fill="#0F172A" points="1168.9258,935.5,1172.9258,945.5,1176.9258,935.5,1172.9258,939.5" style="stroke:#0F172A;stroke-width:1;"/><line style="stroke:#0F172A;stroke-width:1;" x1="1172.9258" x2="1172.9258" y1="859" y2="1031"/><line style="stroke:#0F172A;stroke-width:1;" x1="1172.9258" x2="1015.9678" y1="1031" y2="1031"/><line style="stroke:#0F172A;stroke-width:1;" x1="1015.9678" x2="1015.9678" y1="1031" y2="1109"/><polygon fill="#0F172A" points="1011.9678,1099,1015.9678,1109,1019.9678,1099,1015.9678,1103" style="stroke:#0F172A;stroke-width:1;"/><line style="stroke:#0F172A;stroke-width:1;" x1="1015.9678" x2="1015.9678" y1="1274" y2="1295.5"/><polygon fill="#0F172A" points="1011.9678,1285.5,1015.9678,1295.5,1019.9678,1285.5,1015.9678,1289.5" style="stroke:#0F172A;stroke-width:1;"/><line style="stroke:#0F172A;stroke-width:1;" x1="1015.9678" x2="1015.9678" y1="1201" y2="1226"/><polygon fill="#0F172A" points="1011.9678,1216,1015.9678,1226,1019.9678,1216,1015.9678,1220" style="stroke:#0F172A;stroke-width:1;"/><line style="stroke:#0F172A;stroke-width:1;" x1="1153.5508" x2="1177.1914" y1="1189" y2="1189"/><polygon fill="#0F172A" points="1173.1914,1265.5,1177.1914,1275.5,1181.1914,1265.5,1177.1914,1269.5" style="stroke:#0F172A;stroke-width:1;"/><line style="stroke:#0F172A;stroke-width:1;" x1="1177.1914" x2="1177.1914" y1="1189" y2="1339.5"/><line style="stroke:#0F172A;stroke-width:1;" x1="1177.1914" x2="1015.9678" y1="1339.5" y2="1339.5"/><line style="stroke:#0F172A;stroke-width:1;" x1="1015.9678" x2="1015.9678" y1="1339.5" y2="1359.5"/><polygon fill="#0F172A" points="1011.9678,1349.5,1015.9678,1359.5,1019.9678,1349.5,1015.9678,1353.5" style="stroke:#0F172A;stroke-width:1;"/><line style="stroke:#0F172A;stroke-width:1;" x1="1015.9678" x2="1015.9678" y1="1157" y2="1177"/><polygon fill="#0F172A" points="1011.9678,1167,1015.9678,1177,1019.9678,1167,1015.9678,1171" style="stroke:#0F172A;stroke-width:1;"/><line style="stroke:#0F172A;stroke-width:1;" x1="893.54" x2="869.3047" y1="1371.5" y2="1371.5"/><line style="stroke:#0F172A;stroke-width:1;" x1="869.3047" x2="869.3047" y1="1371.5" y2="1393.5"/><polygon fill="#0F172A" points="865.3047,1383.5,869.3047,1393.5,873.3047,1383.5,869.3047,1387.5" style="stroke:#0F172A;stroke-width:1;"/><line style="stroke:#0F172A;stroke-width:1;" x1="1138.3955" x2="1162.6309" y1="1371.5" y2="1371.5"/><line style="stroke:#0F172A;stroke-width:1;" x1="1162.6309" x2="1162.6309" y1="1371.5" y2="1393.5"/><polygon fill="#0F172A" points="1158.6309,1383.5,1162.6309,1393.5,1166.6309,1383.5,1162.6309,1387.5" style="stroke:#0F172A;stroke-width:1;"/><line style="stroke:#0F172A;stroke-width:1;" x1="869.3047" x2="869.3047" y1="1455.5" y2="1473.5"/><line style="stroke:#0F172A;stroke-width:1;" x1="869.3047" x2="1003.9678" y1="1473.5" y2="1473.5"/><polygon fill="#0F172A" points="993.9678,1469.5,1003.9678,1473.5,993.9678,1477.5,997.9678,1473.5" style="stroke:#0F172A;stroke-width:1;"/><line style="stroke:#0F172A;stroke-width:1;" x1="1162.6309" x2="1162.6309" y1="1427.5" y2="1473.5"/><line style="stroke:#0F172A;stroke-width:1;" x1="1162.6309" x2="1027.9678" y1="1473.5" y2="1473.5"/><polygon fill="#0F172A" points="1037.9678,1469.5,1027.9678,1473.5,1037.9678,1477.5,1033.9678,1473.5" style="stroke:#0F172A;stroke-width:1;"/><line style="stroke:#0F172A;stroke-width:1;" x1="1015.9678" x2="1015.9678" y1="1485.5" y2="1505.5"/><polygon fill="#0F172A" points="1011.9678,1495.5,1015.9678,1505.5,1019.9678,1495.5,1015.9678,1499.5" style="stroke:#0F172A;stroke-width:1;"/><line style="stroke:#0F172A;stroke-width:1;" x1="1015.9678" x2="1015.9678" y1="1623.5" y2="1643.5"/><polygon fill="#0F172A" points="1011.9678,1633.5,1015.9678,1643.5,1019.9678,1633.5,1015.9678,1637.5" style="stroke:#0F172A;stroke-width:1;"/><line style="stroke:#0F172A;stroke-width:1;" x1="1015.9678" x2="1015.9678" y1="1677.5" y2="1697.5"/><polygon fill="#0F172A" points="1011.9678,1687.5,1015.9678,1697.5,1019.9678,1687.5,1015.9678,1691.5" style="stroke:#0F172A;stroke-width:1;"/><line style="stroke:#0F172A;stroke-width:1;" x1="1015.9678" x2="1015.9678" y1="1745.5" y2="1765.5"/><polygon fill="#0F172A" points="1011.9678,1755.5,1015.9678,1765.5,1019.9678,1755.5,1015.9678,1759.5" style="stroke:#0F172A;stroke-width:1;"/><line style="stroke:#0F172A;stroke-width:1;" x1="603.6797" x2="339.7441" y1="579" y2="579"/><line style="stroke:#0F172A;stroke-width:1;" x1="339.7441" x2="339.7441" y1="579" y2="635"/><polygon fill="#0F172A" points="335.7441,625,339.7441,635,343.7441,625,339.7441,629" style="stroke:#0F172A;stroke-width:1;"/><line style="stroke:#0F172A;stroke-width:1;" x1="752.0322" x2="1015.9678" y1="579" y2="579"/><line style="stroke:#0F172A;stroke-width:1;" x1="1015.9678" x2="1015.9678" y1="579" y2="635"/><polygon fill="#0F172A" points="1011.9678,625,1015.9678,635,1019.9678,625,1015.9678,629" style="stroke:#0F172A;stroke-width:1;"/><line style="stroke:#0F172A;stroke-width:1;" x1="1015.9678" x2="1015.9678" y1="1799.5" y2="1816.5"/><line style="stroke:#0F172A;stroke-width:1;" x1="1015.9678" x2="677.856" y1="1816.5" y2="1816.5"/><line style="stroke:#0F172A;stroke-width:1;" x1="677.856" x2="677.856" y1="1816.5" y2="2032.5"/><polygon fill="#0F172A" points="673.856,2022.5,677.856,2032.5,681.856,2022.5,677.856,2026.5" style="stroke:#0F172A;stroke-width:1;"/><line style="stroke:#0F172A;stroke-width:1;" x1="677.856" x2="677.856" y1="535" y2="567"/><polygon fill="#0F172A" points="673.856,557,677.856,567,681.856,557,677.856,561" style="stroke:#0F172A;stroke-width:1;"/><?plantuml-src jLVRRjiu47tNLn3PbnQ8asQRNjP6iKYTD0tGRO8aRLyC1BGqihcXI2r9sUjTzD_ty29PjeF2VLWKGILnE9mvS-PmR1-5ghdX5RDpNkYbK3DMScafiztAbEUFCwCRLOorr8RzKkRuL_Gi2Yfv8zq7hTndNX7xI791JkJyQPixyG-nazFU8ZT6BvFt5-N9cr_xEvLsz7udXh9yKxpUjjAc89CifgUlNhxuRSl27v_MNxuyFNdrghSUtEVQA3Biv7NcX9F4pd8d5iAjs81fMt75PrIHSlDcUdnj_-ZUFpRJ-59SAUkuokaIxchRpx7rz6_6di3qRSdBtA_qSqXOC5Qku-w-5O9NMXKxqD2lzBPyqJFeUpmfJgbukrxyy8HZ963SjZrr_ZkxAT_o-ZqBMpCa3FI4LkpWUch9B8XnLR3tGXK7I7zuvwrOQNIWdQ62bL8l9og-72Eq6H2pn_5zO2ZNAXUI1Ys6HtOn6sN3M-85Y6K5h2PgdtemMrD-E57E03MSYpNNsCCGNa6I736X71oCCb6oPmVtoGv9qj-r5Bbmx7fynKG16r_Csf35u-y7pvcRasBFLcIVPyDBSlwTvOqnM0vxOAaRanDR23vHiDWdu556w4RsJEddFb-hPG0JqGZhVBTkU7PpR9hD9-eJLlV2ex5mCb6ba8wCPRckVF7ybWTH70Py24YF3U4XfBIRIbpSvxY9MdgGb8Q7nl8f6gpYBfypOK5nK1X7tI0EH1_ECZ7XW7yUJYasu9yeL4kdAW8gLOWIB0obEu_bDFHNGnORjqhKusYq3CnCcshkve26473yicTo0jlyWPwGFrLc9FWJHNCQSLrykhY_E4V5K3m3596ABrHyZMJssVr_KJGeWKJR1JxmV4wMfQ166nN89N7LrA77Ig6uXFmRRC5dCDisUKuxrG7LAxs8X5lluIL8slQffshCSQD7e2qhDfKwj6q8iGi09EfyJTHM03twMAVhdiiUKpw9al8L_B6nvDQA4dUSN_7S2IbxC4BFG4QGeZEhG79BRZV1mCl8puROSWw1IyrLSQ4iF4pKpUtrrwkxg-lFLvyl3zcNc_Ep-_0KWCRJA0KR8j-E0FLid4Mln1mjYCFDZ9pTZSKrHdbPQLGoBHl9EjtrVOYx-wcAdutlhxvUR8JnlO-Ob-XLAFsv4QLZ7_4e8JcXsyP1ROX9iOYfny3vpESV5K1KjJREotifI4Am6rFod1B3FcY8q43HCWW4g0-53gfOXCCAy2HtJv7hJtnFHbCgjOd7LuqBvOGM6VyNVQUZjyLn5_gxfex11aU-xZyEuwok9IJiIrtiBPzQoLM8hZqXXLO8Mqk-Ub0OlpRRuL7K0KYb1xfUP-WLhcNyyBR11wCNe8fXSvAr_q_hHnmOLVUTArl9FufgVvjU_LswNll61IOyyqsRnyJlRv342qntfYtyH4NfVkS8_HlAdVk8terlBywyTapGgiNMcH6YzaoOH0tecqInQKrOk6UGzqI52oRCjHwg0Kgoe9W_Bb7A6qTsrBL0soWUOezQf7VtkRqERumE3EgqFjv0Mn9NQz1nvPN6WT23q3s3fDSOQs8EeoG5a02Tgc011m8-P068y0JTg-3NlupGOB5kWNz-gcL6pEOkIxDK6f-6sK-DKrblAFEP9sTh3UZcLoIP-J5AX3GxuWocSLGQttuvFsHBCE4mcWPe1dM4p7Ely7X82wOPEifmOpcZfOG7g3QNwuFQm1alYapYMeA1VeIGevmEGvibiDD5c0NXGqGqcoUgnR5ErnGQkeBh6Q_jKSODfCkjQi842suCsILXvW_3XHzM1Te-JlecoxlWukYOSduI84-fB8m0wJJZAuwVGte9ztOkwgCi-Hzk_vZ8h6ncEr_ZIo6I2CpYJmhyeYY6RAzV7rscGpPhSnnivnWBTDpnThYczN7sG-vcwV8QxiFRh5EOq4Lsc2Owrh_ZHd4lPUrLDsgl-_R6osodia5TXnlQXuX2OoPH3tA7y3ejJtgPRKfv81UBv4BRvBmijImUjghni5TrVZX9P-qTXUoXvPG5SdfMflUxT3QhW3k0uCmh_WWLGOfUra2l7Ya7WPEOGZgkHMnJ_XxoIlkUE_AI4Nu1_mS0?></g></svg>