<?plantuml 1.2026.1?><svg xmlns="http://www.w3.org/2000/svg" xmlns:xlink="http://www.w3.org/1999/xlink" contentStyleType="text/css" data-diagram-type="ACTIVITY" height="1357px" preserveAspectRatio="none" style="width:662px;height:1357px;background:#FCFCFD;" version="1.1" viewBox="0 0 662 1357" width="662px" zoomAndPan="magnify"><title>Activity - identity/BulkEditTagsResourceType</title><defs/><g><rect fill="#FCFCFD" height="1357" style="stroke:none;stroke-width:1;" width="662" x="0" y="0"/><g class="title" data-source-line="10"><text fill="#000000" font-family="Helvetica" font-size="14" font-weight="bold" lengthAdjust="spacing" textLength="302.6201" x="178.6663" y="30.7803">Activity - identity/BulkEditTagsResourceType</text></g><ellipse cx="279.9126" cy="55" fill="#1D4ED8" rx="10" ry="10" style="stroke:#222222;stroke-width:1;"/><rect fill="#F8FAFC" height="48" rx="8" ry="8" style="stroke:#0F172A;stroke-width:0.5;" width="304.7852" x="127.52" y="85"/><text fill="#0F172A" font-family="Helvetica" font-size="14" lengthAdjust="spacing" textLength="136.9375" x="137.52" y="105.7803">Start from shared flow</text><text fill="#0F172A" font-family="Helvetica" font-size="14" lengthAdjust="spacing" textLength="284.7852" x="137.52" y="119.7803">shared/diagrams/shared-reconcile-activity.svg</text><rect fill="#F8FAFC" height="48" rx="8" ry="8" style="stroke:#0F172A;stroke-width:0.5;" width="339.0742" x="110.3755" y="153"/><text fill="#0F172A" font-family="Helvetica" font-size="14" lengthAdjust="spacing" textLength="319.0742" x="120.3755" y="173.7803">Load desired BulkEditTagsResourceType spec and</text><text fill="#0F172A" font-family="Helvetica" font-size="14" lengthAdjust="spacing" textLength="144.7373" x="120.3755" y="187.7803">status from Kubernetes</text><rect fill="#F8FAFC" height="62" rx="8" ry="8" style="stroke:#0F172A;stroke-width:0.5;" width="266.668" x="146.5786" y="221"/><text fill="#0F172A" font-family="Helvetica" font-size="14" lengthAdjust="spacing" textLength="135.3857" x="156.5786" y="241.7803">Resolve OCI state via</text><text fill="#0F172A" font-family="Helvetica" font-size="14" lengthAdjust="spacing" textLength="224.875" x="156.5786" y="255.7803">GetBulkEditTagsResourceType with</text><text fill="#0F172A" font-family="Helvetica" font-size="14" lengthAdjust="spacing" textLength="246.668" x="156.5786" y="269.7803">ListBulkEditTagsResourceType fallback</text><rect fill="#F8FAFC" height="62" rx="8" ry="8" style="stroke:#0F172A;stroke-width:0.5;" width="317.2402" x="121.2925" y="303"/><text fill="#0F172A" font-family="Helvetica" font-size="14" lengthAdjust="spacing" textLength="292.6123" x="131.2925" y="323.7803">Use scaffold_identity_bulkedittagsresourcetype</text><text fill="#0F172A" font-family="Helvetica" font-size="14" lengthAdjust="spacing" textLength="297.2402" x="131.2925" y="337.7803">filters compartment_id, state when OCID lookup</text><text fill="#0F172A" font-family="Helvetica" font-size="14" lengthAdjust="spacing" textLength="259.9023" x="131.2925" y="351.7803">or bind-versus-create needs list resolution</text><polygon fill="#E2E8F0" points="226.2231,385,333.6021,385,345.6021,397,333.6021,409,226.2231,409,214.2231,397,226.2231,385" style="stroke:#1D4ED8;stroke-width:0.5;"/><text fill="#0F172A" font-family="Helvetica" font-size="14" lengthAdjust="spacing" textLength="107.3789" x="226.2231" y="400.7803">Resource exists?</text><text fill="#000000" font-family="Helvetica" font-size="14" lengthAdjust="spacing" textLength="21.7861" x="192.437" y="393.7803">yes</text><text fill="#000000" font-family="Helvetica" font-size="14" lengthAdjust="spacing" textLength="15.5723" x="345.6021" y="393.7803">no</text><rect fill="#F8FAFC" height="48" rx="8" ry="8" style="stroke:#0F172A;stroke-width:0.5;" width="238.668" x="25.0171" y="419"/><text fill="#0F172A" font-family="Helvetica" font-size="14" lengthAdjust="spacing" textLength="108.1787" x="35.0171" y="439.7803">Update path calls</text><text fill="#0F172A" font-family="Helvetica" font-size="14" lengthAdjust="spacing" textLength="218.668" x="35.0171" y="453.7803">UpdateBulkEditTagsResourceType</text><rect fill="#F8FAFC" height="48" rx="8" ry="8" style="stroke:#0F172A;stroke-width:0.5;" width="266.7021" x="11" y="487"/><text fill="#0F172A" font-family="Helvetica" font-size="14" lengthAdjust="spacing" textLength="246.7021" x="21" y="507.7803">Guard mutable fields display_name and</text><text fill="#0F172A" font-family="Helvetica" font-size="14" lengthAdjust="spacing" textLength="202.3096" x="21" y="521.7803">force-new fields compartment_id</text><rect fill="#F8FAFC" height="48" rx="8" ry="8" style="stroke:#0F172A;stroke-width:0.5;" width="235.5439" x="297.7021" y="419"/><text fill="#0F172A" font-family="Helvetica" font-size="14" lengthAdjust="spacing" textLength="105.0547" x="307.7021" y="439.7803">Create path calls</text><text fill="#0F172A" font-family="Helvetica" font-size="14" lengthAdjust="spacing" textLength="215.5439" x="307.7021" y="453.7803">CreateBulkEditTagsResourceType</text><polygon fill="#E2E8F0" points="279.9126,541,291.9126,553,279.9126,565,267.9126,553,279.9126,541" style="stroke:#1D4ED8;stroke-width:0.5;"/><rect fill="#F8FAFC" height="104" rx="8" ry="8" style="stroke:#0F172A;stroke-width:0.5;" width="334.3164" x="112.7544" y="585"/><text fill="#0F172A" font-family="Helvetica" font-size="14" lengthAdjust="spacing" textLength="164.2061" x="122.7544" y="605.7803">Run provider helper hooks</text><text fill="#0F172A" font-family="Helvetica" font-size="14" lengthAdjust="spacing" textLength="219.0508" x="122.7544" y="619.7803">create=tfresource.CreateResource,</text><text fill="#0F172A" font-family="Helvetica" font-size="14" lengthAdjust="spacing" textLength="314.3164" x="122.7544" y="633.7803">tfresource.WaitForWorkRequestWithErrorHandling</text><text fill="#0F172A" font-family="Helvetica" font-size="14" lengthAdjust="spacing" textLength="215.5439" x="122.7544" y="647.7803">entity=template action=CREATED;</text><text fill="#0F172A" font-family="Helvetica" font-size="14" lengthAdjust="spacing" textLength="226.085" x="122.7544" y="661.7803">update=tfresource.UpdateResource;</text><text fill="#0F172A" font-family="Helvetica" font-size="14" lengthAdjust="spacing" textLength="212.8438" x="122.7544" y="675.7803">delete=tfresource.DeleteResource</text><rect fill="#F8FAFC" height="34" rx="8" ry="8" style="stroke:#0F172A;stroke-width:0.5;" width="263.5918" x="148.1167" y="709"/><text fill="#0F172A" font-family="Helvetica" font-size="14" lengthAdjust="spacing" textLength="243.5918" x="158.1167" y="729.7803">Apply repo-authored secret policy none</text><rect fill="#F8FAFC" height="90" rx="8" ry="8" style="stroke:#0F172A;stroke-width:0.5;" width="318.0332" x="120.896" y="763"/><text fill="#0F172A" font-family="Helvetica" font-size="14" lengthAdjust="spacing" textLength="105.0684" x="130.896" y="783.7803">Delete path uses</text><text fill="#0F172A" font-family="Helvetica" font-size="14" lengthAdjust="spacing" textLength="298.0332" x="130.896" y="797.7803">DeleteBulkEditTagsResourceType with required</text><text fill="#0F172A" font-family="Helvetica" font-size="14" lengthAdjust="spacing" textLength="234.2129" x="130.896" y="811.7803">via GetBulkEditTagsResourceType or</text><text fill="#0F172A" font-family="Helvetica" font-size="14" lengthAdjust="spacing" textLength="279.3369" x="130.896" y="825.7803">ListBulkEditTagsResourceType to DELETED</text><text fill="#0F172A" font-family="Helvetica" font-size="14" lengthAdjust="spacing" textLength="76.2549" x="130.896" y="839.7803">confirmation</text><rect fill="#F8FAFC" height="48" rx="8" ry="8" style="stroke:#0F172A;stroke-width:0.5;" width="279.1299" x="140.3477" y="873"/><text fill="#0F172A" font-family="Helvetica" font-size="14" lengthAdjust="spacing" textLength="259.1299" x="150.3477" y="893.7803">Project required status and finalizer policy</text><text fill="#0F172A" font-family="Helvetica" font-size="14" lengthAdjust="spacing" textLength="174.3027" x="150.3477" y="907.7803">retain-until-confirmed-delete</text><rect fill="#F8FAFC" height="34" rx="8" ry="8" style="stroke:#0F172A;stroke-width:0.5;" width="313.4189" x="123.2031" y="941"/><text fill="#0F172A" font-family="Helvetica" font-size="14" lengthAdjust="spacing" textLength="293.4189" x="133.2031" y="961.7803">Requeue on provisioning, updating, terminating</text><path d="M310.9126,985 L310.9126,1161 L290.9126,1165 L310.9126,1169 L310.9126,1345 A0,0 0 0 0 310.9126,1345 L650.9526,1345 A0,0 0 0 0 650.9526,1345 L650.9526,995 L640.9526,985 L310.9126,985 A0,0 0 0 0 310.9126,985" fill="#FFF7D6" style="stroke:#B45309;stroke-width:0.5;"/><path d="M640.9526,985 L640.9526,995 L650.9526,995 L640.9526,985" fill="#FFF7D6" style="stroke:#B45309;stroke-width:0.5;"/><text fill="#334155" font-family="Helvetica" font-size="14" lengthAdjust="spacing" textLength="101.165" x="316.9126" y="1000.7803">shared diagram:</text><text fill="#334155" font-family="Helvetica" font-size="14" lengthAdjust="spacing" textLength="284.7852" x="316.9126" y="1014.7803">shared/diagrams/shared-reconcile-activity.svg</text><text fill="#334155" font-family="Helvetica" font-size="14" lengthAdjust="spacing" textLength="265.3438" x="316.9126" y="1028.7803">Start from the shared reconcile activity and</text><text fill="#334155" font-family="Helvetica" font-size="14" lengthAdjust="spacing" textLength="273.8955" x="316.9126" y="1042.7803">specialize provider-backed CRUD, wait, and</text><text fill="#334155" font-family="Helvetica" font-size="14" lengthAdjust="spacing" textLength="182.875" x="316.9126" y="1056.7803">status-projection details here.</text><text fill="#334155" font-family="Helvetica" font-size="14" lengthAdjust="spacing" textLength="229.5371" x="316.9126" y="1070.7803">Controller-local activity diagrams add</text><text fill="#334155" font-family="Helvetica" font-size="14" lengthAdjust="spacing" textLength="238.8955" x="316.9126" y="1084.7803">list-lookup hints, secret policies, delete</text><text fill="#334155" font-family="Helvetica" font-size="14" lengthAdjust="spacing" textLength="200.0332" x="316.9126" y="1098.7803">handling, and open formal gaps.</text><text fill="#334155" font-family="Helvetica" font-size="14" lengthAdjust="spacing" textLength="281.709" x="316.9126" y="1112.7803">archetype batch: Generated service-manager</text><text fill="#334155" font-family="Helvetica" font-size="14" lengthAdjust="spacing" textLength="291.0469" x="316.9126" y="1126.7803">controllers specialize the shared reconcile path</text><text fill="#334155" font-family="Helvetica" font-size="14" lengthAdjust="spacing" textLength="189.8477" x="316.9126" y="1140.7803">with formal runtime ownership.</text><text fill="#334155" font-family="Helvetica" font-size="14" lengthAdjust="spacing" textLength="96.4824" x="316.9126" y="1154.7803">service: identity</text><text fill="#334155" font-family="Helvetica" font-size="14" lengthAdjust="spacing" textLength="189.1094" x="316.9126" y="1168.7803">slug: bulkedittagsresourcetype</text><text fill="#334155" font-family="Helvetica" font-size="14" lengthAdjust="spacing" textLength="206.9854" x="316.9126" y="1182.7803">kind: BulkEditTagsResourceType</text><text fill="#334155" font-family="Helvetica" font-size="14" lengthAdjust="spacing" textLength="241.2402" x="316.9126" y="1196.7803">archetype: generated-service-manager</text><text fill="#334155" font-family="Helvetica" font-size="14" lengthAdjust="spacing" textLength="156.4063" x="316.9126" y="1210.7803">status/finalizer: required /</text><text fill="#334155" font-family="Helvetica" font-size="14" lengthAdjust="spacing" textLength="174.3027" x="316.9126" y="1224.7803">retain-until-confirmed-delete</text><text fill="#334155" font-family="Helvetica" font-size="14" lengthAdjust="spacing" textLength="272.3984" x="316.9126" y="1238.7803">requeue: provisioning, updating, terminating</text><text fill="#334155" font-family="Helvetica" font-size="14" lengthAdjust="spacing" textLength="295.6816" x="316.9126" y="1252.7803">provider states: create PROVISIONING; update</text><text fill="#334155" font-family="Helvetica" font-size="14" lengthAdjust="spacing" textLength="192.165" x="316.9126" y="1266.7803">UPDATING; delete DELETING</text><text fill="#334155" font-family="Helvetica" font-size="14" lengthAdjust="spacing" textLength="319.04" x="316.9126" y="1280.7803">mutable/forceNew: display_name / compartment_id</text><text fill="#334155" font-family="Helvetica" font-size="14" lengthAdjust="spacing" textLength="104.3164" x="316.9126" y="1294.7803">open gaps: none</text><text fill="#334155" font-family="Helvetica" font-size="14" lengthAdjust="spacing" textLength="224.9023" x="316.9126" y="1308.7803">Scaffold metadata only; replace with</text><text fill="#334155" font-family="Helvetica" font-size="14" lengthAdjust="spacing" textLength="244.3232" x="316.9126" y="1322.7803">controller-specific runtime states before</text><text fill="#334155" font-family="Helvetica" font-size="14" lengthAdjust="spacing" textLength="66.1445" x="316.9126" y="1336.7803">promotion.</text><ellipse cx="279.9126" cy="1165" fill="none" rx="11" ry="11" style="stroke:#222222;stroke-width:1;"/><ellipse cx="279.9126" cy="1165" fill="#222222" rx="6" ry="6" style="stroke:#222222;stroke-width:1;"/><line style="stroke:#0F172A;stroke-width:1;" x1="279.9126" x2="279.9126" y1="65" y2="85"/><polygon fill="#0F172A" points="275.9126,75,279.9126,85,283.9126,75,279.9126,79" style="stroke:#0F172A;stroke-width:1;"/><line style="stroke:#0F172A;stroke-width:1;" x1="279.9126" x2="279.9126" y1="133" y2="153"/><polygon fill="#0F172A" points="275.9126,143,279.9126,153,283.9126,143,279.9126,147" style="stroke:#0F172A;stroke-width:1;"/><line style="stroke:#0F172A;stroke-width:1;" x1="279.9126" x2="279.9126" y1="201" y2="221"/><polygon fill="#0F172A" points="275.9126,211,279.9126,221,283.9126,211,279.9126,215" style="stroke:#0F172A;stroke-width:1;"/><line style="stroke:#0F172A;stroke-width:1;" x1="279.9126" x2="279.9126" y1="283" y2="303"/><polygon fill="#0F172A" points="275.9126,293,279.9126,303,283.9126,293,279.9126,297" style="stroke:#0F172A;stroke-width:1;"/><line style="stroke:#0F172A;stroke-width:1;" x1="144.3511" x2="144.3511" y1="467" y2="487"/><polygon fill="#0F172A" points="140.3511,477,144.3511,487,148.3511,477,144.3511,481" style="stroke:#0F172A;stroke-width:1;"/><line style="stroke:#0F172A;stroke-width:1;" x1="214.2231" x2="144.3511" y1="397" y2="397"/><line style="stroke:#0F172A;stroke-width:1;" x1="144.3511" x2="144.3511" y1="397" y2="419"/><polygon fill="#0F172A" points="140.3511,409,144.3511,419,148.3511,409,144.3511,413" style="stroke:#0F172A;stroke-width:1;"/><line style="stroke:#0F172A;stroke-width:1;" x1="345.6021" x2="415.4741" y1="397" y2="397"/><line style="stroke:#0F172A;stroke-width:1;" x1="415.4741" x2="415.4741" y1="397" y2="419"/><polygon fill="#0F172A" points="411.4741,409,415.4741,419,419.4741,409,415.4741,413" style="stroke:#0F172A;stroke-width:1;"/><line style="stroke:#0F172A;stroke-width:1;" x1="144.3511" x2="144.3511" y1="535" y2="553"/><line style="stroke:#0F172A;stroke-width:1;" x1="144.3511" x2="267.9126" y1="553" y2="553"/><polygon fill="#0F172A" points="257.9126,549,267.9126,553,257.9126,557,261.9126,553" style="stroke:#0F172A;stroke-width:1;"/><line style="stroke:#0F172A;stroke-width:1;" x1="415.4741" x2="415.4741" y1="467" y2="553"/><line style="stroke:#0F172A;stroke-width:1;" x1="415.4741" x2="291.9126" y1="553" y2="553"/><polygon fill="#0F172A" points="301.9126,549,291.9126,553,301.9126,557,297.9126,553" style="stroke:#0F172A;stroke-width:1;"/><line style="stroke:#0F172A;stroke-width:1;" x1="279.9126" x2="279.9126" y1="365" y2="385"/><polygon fill="#0F172A" points="275.9126,375,279.9126,385,283.9126,375,279.9126,379" style="stroke:#0F172A;stroke-width:1;"/><line style="stroke:#0F172A;stroke-width:1;" x1="279.9126" x2="279.9126" y1="565" y2="585"/><polygon fill="#0F172A" points="275.9126,575,279.9126,585,283.9126,575,279.9126,579" style="stroke:#0F172A;stroke-width:1;"/><line style="stroke:#0F172A;stroke-width:1;" x1="279.9126" x2="279.9126" y1="689" y2="709"/><polygon fill="#0F172A" points="275.9126,699,279.9126,709,283.9126,699,279.9126,703" style="stroke:#0F172A;stroke-width:1;"/><line style="stroke:#0F172A;stroke-width:1;" x1="279.9126" x2="279.9126" y1="743" y2="763"/><polygon fill="#0F172A" points="275.9126,753,279.9126,763,283.9126,753,279.9126,757" style="stroke:#0F172A;stroke-width:1;"/><line style="stroke:#0F172A;stroke-width:1;" x1="279.9126" x2="279.9126" y1="853" y2="873"/><polygon fill="#0F172A" points="275.9126,863,279.9126,873,283.9126,863,279.9126,867" style="stroke:#0F172A;stroke-width:1;"/><line style="stroke:#0F172A;stroke-width:1;" x1="279.9126" x2="279.9126" y1="921" y2="941"/><polygon fill="#0F172A" points="275.9126,931,279.9126,941,283.9126,931,279.9126,935" style="stroke:#0F172A;stroke-width:1;"/><line style="stroke:#0F172A;stroke-width:1;" x1="279.9126" x2="279.9126" y1="975" y2="1154"/><polygon fill="#0F172A" points="275.9126,1144,279.9126,1154,283.9126,1144,279.9126,1148" style="stroke:#0F172A;stroke-width:1;"/><?plantuml-src bLRRRkCs47tdLmpGbonWsSacsKrb14NMzcQ31acGI_DY8A35aSs68hKaPTSj-kyTYhAiPEEqXHziaNCzS-R8xbdgabjUW5jmOLPIpo7doY5pxSsCPyzpQoejHaOP2p_b6Nr4nq9WpYlblnhjhtY1y0tL4htC-DisT_9FX8EZpYMtrgoQwFlvmUUFNKzjF7xveOOy_om-lROoLg1jB6P7nuVxFx-o2EcR-yF3euFZuyvz7JupLgE5Wq_CIwyGpZ8lbzAl8G4fKDFXUl2bKiyJ8VqzdxjRTAQo6TwloovcVEFs5uCt03p9UPw5csx1JUC0-RR8zan8NXWjVi01F-99ljynw4Oy44SeJhQNNzy8x3ot_hKzjl5Rknb_5VLlLhkoz2vyGMvDJIAB0d9bLbCT7mQKUqwGk45yJYncHcTIOR81gU-Myo5BBmqNH1CdGuXT68ChCGEk1SNtt5Sk9lwrcY4DpgEZGC6U20ZNeulGdaTOIZxLv-XtHbr9lvZgI-bscz1Qg319Il3Wg8wCvxbHucb3YwSPUI9vUlAqZQSdpwdEfV9e7MIc87huWXp8hTSKjrgW3hMEGHdpN9LJJIZFf1R9afmgbsGMWvr650uKrGWXlAgyD7h8P0vxcq81_w1hzyi7y27etXhT1ogt5C6_v7u16NNXfZeUxUgLMZolk1LGL9xFQ0joYOfo2-bAnTTFEYnvFOFSa4kYSRKnUTdYa25f2UnfGsMCOXlTCkBHxZA8XpAdWLOQIckM1BM51QeoV15M525YS-hp3UBz67CJfpVLdRj7Bac1xAEnpxVulKBd7sdm4r8V-utwKIH_Knt7UUgne6Qfu41Jeqz7jvEp-ybuEDLL3LutPuHpavDC12fyQJAkJreJbfwLfLhJ94kJyCelJ62zG-h7GscKpDOaM3eOHi-8M-MGceudxvAP0d-lmYPDDP4VtkE-iV_2V6zWFBcSKFE4jo4ssu97xgKtrloEcM-pGREK12OnGdD5Kc-RVgQQUkDI9nK1h98c4Yb21AjUN9f9HHKrutQKX4RIWnhn-XVjKK5nmyEG1CYKBCWwM3bVUDR8JwCuAVjV2iGwEaRRiz6ordYhwTGS2p8aw_PQPYP17SXZTFimxi6AgDQBfZKaIHcXefP8v0W7vOZA5ljiHAfiZL8KGHbQZ6sYJU70XM1XyPEe4B2GshlU2xf8f8E895iqNAxpWob92cXH2mezvwNhCswpHIrDfEe-MwH43thf4OC30-rIqaeNNFCvMfQrnJdezFmcG86Xh2PVays6IPDKc1M5TmjPzbaJFstVfiofQfx2Bl5az4eLwSxNmRQL5EQR9fBNJSG935f2fbk-3jYxf6GsKZBzBuHahKRLmkvIQ9JxvlRwjukxY-khYwlpOVH5zd0pFhkl3sAgk6Dqm1hL7TJYUeMhzANm3bw9BAi772QRrfB1xffN4nJK6kNYj51gFGnQetWMzQ4psAIUQowpTbwnV9WXLO2Xgy84tlQ37jT_e_u1?></g></svg>