<?plantuml 1.2026.1?><svg xmlns="http://www.w3.org/2000/svg" xmlns:xlink="http://www.w3.org/1999/xlink" contentStyleType="text/css" data-diagram-type="SEQUENCE" height="1259px" preserveAspectRatio="none" style="width:1106px;height:1259px;background:#FCFCFD;" version="1.1" viewBox="0 0 1106 1259" width="1106px" zoomAndPan="magnify"><title>Sequence - core/SecurityList</title><defs/><g><rect fill="#FCFCFD" height="1259" style="stroke:none;stroke-width:1;" width="1106" x="0" y="0"/><text fill="#000000" font-family="Helvetica" font-size="14" font-weight="bold" lengthAdjust="spacing" textLength="192.1787" x="454.4307" y="25.7803">Sequence - core/SecurityList</text><rect fill="none" height="86" rx="8" ry="8" style="stroke:#CBD5E1;stroke-width:1.5;" width="350.937" x="663.8208" y="319"/><rect fill="none" height="204" rx="8" ry="8" style="stroke:#CBD5E1;stroke-width:1.5;" width="370.937" x="653.8208" y="419"/><rect fill="none" height="44" rx="8" ry="8" style="stroke:#CBD5E1;stroke-width:1.5;" width="350.937" x="663.8208" y="470"/><rect fill="none" height="44" rx="8" ry="8" style="stroke:#CBD5E1;stroke-width:1.5;" width="350.937" x="663.8208" y="572"/><rect fill="none" height="102" rx="8" ry="8" style="stroke:#CBD5E1;stroke-width:1.5;" width="370.937" x="653.8208" y="637"/><rect fill="none" height="44" rx="8" ry="8" style="stroke:#CBD5E1;stroke-width:1.5;" width="350.937" x="663.8208" y="688"/><g class="participant-lifeline" data-entity-uid="part1" data-qualified-name="Kubernetes" id="part1-lifeline"><g><title>Kubernetes</title><rect fill="#000000" fill-opacity="0.00000" height="1138" width="8" x="39.8032" y="114"/><line style="stroke:#94A3B8;stroke-width:0.5;stroke-dasharray:5,5;" x1="43" x2="43" y1="114" y2="1252"/></g></g><g class="participant-lifeline" data-entity-uid="part2" data-qualified-name="Controller" id="part2-lifeline"><g><title>Controller</title><rect fill="#000000" fill-opacity="0.00000" height="1138" width="8" x="254.4712" y="114"/><line style="stroke:#94A3B8;stroke-width:0.5;stroke-dasharray:5,5;" x1="258.1265" x2="258.1265" y1="114" y2="1252"/></g></g><g class="participant-lifeline" data-entity-uid="part3" data-qualified-name="BaseReconciler" id="part3-lifeline"><g><title>BaseReconciler</title><rect fill="#000000" fill-opacity="0.00000" height="1138" width="8" x="493.2974" y="114"/><line style="stroke:#94A3B8;stroke-width:0.5;stroke-dasharray:5,5;" x1="497.2734" x2="497.2734" y1="114" y2="1252"/></g></g><g class="participant-lifeline" data-entity-uid="part4" data-qualified-name="ServiceManager" id="part4-lifeline"><g><title>OSOKServiceManager</title><rect fill="#000000" fill-opacity="0.00000" height="1138" width="8" x="748.0171" y="114"/><line style="stroke:#94A3B8;stroke-width:0.5;stroke-dasharray:5,5;" x1="751.8208" x2="751.8208" y1="114" y2="1252"/></g></g><g class="participant-lifeline" data-entity-uid="part5" data-qualified-name="OCI" id="part5-lifeline"><g><title>OCI</title><rect fill="#000000" fill-opacity="0.00000" height="1138" width="8" x="981.313" y="114"/><line style="stroke:#94A3B8;stroke-width:0.5;stroke-dasharray:5,5;" x1="984.8682" x2="984.8682" y1="114" y2="1252"/></g></g><g class="participant participant-head" data-entity-uid="part1" data-qualified-name="Kubernetes" id="part1-head"><text fill="#000000" font-family="Helvetica" font-size="14" lengthAdjust="spacing" textLength="71.6064" x="5" y="110.7803">Kubernetes</text><ellipse cx="43.8032" cy="48.5" fill="#E2E8F0" rx="8" ry="8" style="stroke:#0F172A;stroke-width:0.5;"/><path d="M43.8032,56.5 L43.8032,83.5 M30.8032,64.5 L56.8032,64.5 M43.8032,83.5 L30.8032,98.5 M43.8032,83.5 L56.8032,98.5" fill="none" style="stroke:#0F172A;stroke-width:0.5;"/></g><g class="participant participant-head" data-entity-uid="part2" data-qualified-name="Controller" id="part2-head"><rect fill="#E2E8F0" height="28" rx="8" ry="8" style="stroke:#0F172A;stroke-width:0.5;" width="74.6895" x="221.1265" y="85"/><text fill="#0F172A" font-family="Helvetica" font-size="14" lengthAdjust="spacing" textLength="60.6895" x="228.1265" y="102.7803">Controller</text></g><g class="participant participant-head" data-entity-uid="part3" data-qualified-name="BaseReconciler" id="part3-head"><rect fill="#E2E8F0" height="28" rx="8" ry="8" style="stroke:#0F172A;stroke-width:0.5;" width="112.0479" x="441.2734" y="85"/><text fill="#0F172A" font-family="Helvetica" font-size="14" lengthAdjust="spacing" textLength="98.0479" x="448.2734" y="102.7803">BaseReconciler</text></g><g class="participant participant-head" data-entity-uid="part4" data-qualified-name="ServiceManager" id="part4-head"><rect fill="#E2E8F0" height="28" rx="8" ry="8" style="stroke:#0F172A;stroke-width:0.5;" width="156.3926" x="673.8208" y="85"/><text fill="#0F172A" font-family="Helvetica" font-size="14" lengthAdjust="spacing" textLength="142.3926" x="680.8208" y="102.7803">OSOKServiceManager</text></g><g class="participant participant-head" data-entity-uid="part5" data-qualified-name="OCI" id="part5-head"><rect fill="#E2E8F0" height="28" rx="8" ry="8" style="stroke:#0F172A;stroke-width:0.5;" width="38.8896" x="965.8682" y="85"/><text fill="#0F172A" font-family="Helvetica" font-size="14" lengthAdjust="spacing" textLength="24.8896" x="972.8682" y="102.7803">OCI</text></g><path d="M432,137 L432,187 A8,8 0 0 0 440,195 L807,195 A8,8 0 0 0 815,187 L815,139 L805,129 L440,129 A8,8 0 0 0 432,137" fill="#FFF7D6" style="stroke:#B45309;stroke-width:0.5;"/><path d="M805,129 L805,135 A4,4 0 0 0 809,139 L815,139 L805,129" fill="#FFF7D6" style="stroke:#B45309;stroke-width:0.5;"/><text fill="#334155" font-family="Helvetica" font-size="14" lengthAdjust="spacing" textLength="111.2891" x="465.7742" y="144.7803">shared resolution:</text><text fill="#334155" font-family="Helvetica" font-size="14" lengthAdjust="spacing" textLength="307.3916" x="465.7742" y="158.7803">shared/diagrams/shared-resolution-sequence.svg</text><text fill="#334155" font-family="Helvetica" font-size="14" lengthAdjust="spacing" textLength="88.7305" x="465.7742" y="172.7803">shared delete:</text><text fill="#334155" font-family="Helvetica" font-size="14" lengthAdjust="spacing" textLength="284.833" x="465.7742" y="186.7803">shared/diagrams/shared-delete-sequence.svg</text><g class="message" data-entity-1="part1" data-entity-2="part2" id="msg1"><polygon fill="#0F172A" points="246.4712,216,256.4712,220,246.4712,224,250.4712,220" style="stroke:#0F172A;stroke-width:1;"/><line style="stroke:#0F172A;stroke-width:1;" x1="43.8032" x2="252.4712" y1="220" y2="220"/><text fill="#000000" font-family="Helvetica" font-size="14" lengthAdjust="spacing" textLength="190.668" x="50.8032" y="214.7803">enqueue SecurityList reconcile</text></g><g class="message" data-entity-1="part2" data-entity-2="part3" id="msg2"><polygon fill="#0F172A" points="485.2974,244,495.2974,248,485.2974,252,489.2974,248" style="stroke:#0F172A;stroke-width:1;"/><line style="stroke:#0F172A;stroke-width:1;" x1="258.4712" x2="491.2974" y1="248" y2="248"/><text fill="#000000" font-family="Helvetica" font-size="14" lengthAdjust="spacing" textLength="117.4961" x="265.4712" y="242.7803">Reconcile(request)</text></g><g class="message" data-entity-1="part3" data-entity-2="part4" id="msg3"><polygon fill="#0F172A" points="740.0171,272,750.0171,276,740.0171,280,744.0171,276" style="stroke:#0F172A;stroke-width:1;"/><line style="stroke:#0F172A;stroke-width:1;" x1="497.2974" x2="746.0171" y1="276" y2="276"/><text fill="#000000" font-family="Helvetica" font-size="14" lengthAdjust="spacing" textLength="182.082" x="504.2974" y="270.7803">reconcile desired SecurityList</text></g><g class="message" data-entity-1="part4" data-entity-2="part5" id="msg4"><polygon fill="#0F172A" points="973.313,300,983.313,304,973.313,308,977.313,304" style="stroke:#0F172A;stroke-width:1;"/><line style="stroke:#0F172A;stroke-width:1;" x1="752.0171" x2="979.313" y1="304" y2="304"/><text fill="#000000" font-family="Helvetica" font-size="14" lengthAdjust="spacing" textLength="94.9238" x="759.0171" y="298.7803">GetSecurityList</text></g><path d="M671.8208,319 L730.5864,319 L730.5864,325 L720.5864,335 L663.8208,335 L663.8208,327 A8,8 0 0 1 671.8208,319" fill="#F8FAFC" style="stroke:#CBD5E1;stroke-width:1.5;"/><rect fill="none" height="86" rx="8" ry="8" style="stroke:#CBD5E1;stroke-width:1.5;" width="350.937" x="663.8208" y="319"/><text fill="#000000" font-family="Helvetica" font-size="14" font-weight="bold" lengthAdjust="spacing" textLength="21.7656" x="678.8208" y="330.7803">opt</text><text fill="#000000" font-family="Helvetica" font-size="14" font-weight="bold" lengthAdjust="spacing" textLength="135.3516" x="745.5864" y="331.7803">[list lookup fallback]</text><g class="message" data-entity-1="part4" data-entity-2="part5" id="msg5"><polygon fill="#0F172A" points="973.313,365,983.313,369,973.313,373,977.313,369" style="stroke:#0F172A;stroke-width:1;"/><line style="stroke:#0F172A;stroke-width:1;" x1="752.0171" x2="979.313" y1="369" y2="369"/><text fill="#000000" font-family="Helvetica" font-size="14" lengthAdjust="spacing" textLength="136.1445" x="759.0171" y="349.7803">ListSecurityList(filters:</text><text fill="#000000" font-family="Helvetica" font-size="14" lengthAdjust="spacing" textLength="143.1719" x="759.0171" y="363.7803">compartment_id, state)</text></g><g class="message" data-entity-1="part5" data-entity-2="part4" id="msg6"><polygon fill="#0F172A" points="763.0171,393,753.0171,397,763.0171,401,759.0171,397" style="stroke:#0F172A;stroke-width:1;"/><line style="stroke:#0F172A;stroke-width:1;stroke-dasharray:2,2;" x1="757.0171" x2="984.313" y1="397" y2="397"/><text fill="#000000" font-family="Helvetica" font-size="14" lengthAdjust="spacing" textLength="156.3994" x="769.0171" y="391.7803">matching collection items</text></g><path d="M661.8208,419 L715.1587,419 L715.1587,425 L705.1587,435 L653.8208,435 L653.8208,427 A8,8 0 0 1 661.8208,419" fill="#F8FAFC" style="stroke:#CBD5E1;stroke-width:1.5;"/><rect fill="none" height="204" rx="8" ry="8" style="stroke:#CBD5E1;stroke-width:1.5;" width="370.937" x="653.8208" y="419"/><text fill="#000000" font-family="Helvetica" font-size="14" font-weight="bold" lengthAdjust="spacing" textLength="16.3379" x="668.8208" y="430.7803">alt</text><text fill="#000000" font-family="Helvetica" font-size="14" font-weight="bold" lengthAdjust="spacing" textLength="135.3447" x="730.1587" y="431.7803">[create or bind path]</text><g class="message" data-entity-1="part4" data-entity-2="part5" id="msg7"><polygon fill="#0F172A" points="973.313,451,983.313,455,973.313,459,977.313,455" style="stroke:#0F172A;stroke-width:1;"/><line style="stroke:#0F172A;stroke-width:1;" x1="752.0171" x2="979.313" y1="455" y2="455"/><text fill="#000000" font-family="Helvetica" font-size="14" lengthAdjust="spacing" textLength="114.3789" x="759.0171" y="449.7803">CreateSecurityList</text></g><path d="M671.8208,470 L738.3657,470 L738.3657,476 L728.3657,486 L663.8208,486 L663.8208,478 A8,8 0 0 1 671.8208,470" fill="#F8FAFC" style="stroke:#CBD5E1;stroke-width:1.5;"/><rect fill="none" height="44" rx="8" ry="8" style="stroke:#CBD5E1;stroke-width:1.5;" width="350.937" x="663.8208" y="470"/><text fill="#000000" font-family="Helvetica" font-size="14" font-weight="bold" lengthAdjust="spacing" textLength="29.5449" x="678.8208" y="481.7803">loop</text><text fill="#000000" font-family="Helvetica" font-size="14" font-weight="bold" lengthAdjust="spacing" textLength="215.4756" x="753.3657" y="482.7803">[create pending PROVISIONING]</text><g class="message" data-entity-1="part4" data-entity-2="part5" id="msg8"><polygon fill="#0F172A" points="973.313,502,983.313,506,973.313,510,977.313,506" style="stroke:#0F172A;stroke-width:1;"/><line style="stroke:#0F172A;stroke-width:1;" x1="752.0171" x2="979.313" y1="506" y2="506"/><text fill="#000000" font-family="Helvetica" font-size="14" lengthAdjust="spacing" textLength="94.9238" x="759.0171" y="500.7803">GetSecurityList</text></g><line style="stroke:#CBD5E1;stroke-width:1;stroke-dasharray:2,2;" x1="653.8208" x2="1024.7578" y1="522" y2="522"/><text fill="#000000" font-family="Helvetica" font-size="14" font-weight="bold" lengthAdjust="spacing" textLength="137.6484" x="658.8208" y="532.7803">[update or drift path]</text><g class="message" data-entity-1="part4" data-entity-2="part5" id="msg9"><polygon fill="#0F172A" points="973.313,553,983.313,557,973.313,561,977.313,557" style="stroke:#0F172A;stroke-width:1;"/><line style="stroke:#0F172A;stroke-width:1;" x1="752.0171" x2="979.313" y1="557" y2="557"/><text fill="#000000" font-family="Helvetica" font-size="14" lengthAdjust="spacing" textLength="117.5029" x="759.0171" y="551.7803">UpdateSecurityList</text></g><path d="M671.8208,572 L738.3657,572 L738.3657,578 L728.3657,588 L663.8208,588 L663.8208,580 A8,8 0 0 1 671.8208,572" fill="#F8FAFC" style="stroke:#CBD5E1;stroke-width:1.5;"/><rect fill="none" height="44" rx="8" ry="8" style="stroke:#CBD5E1;stroke-width:1.5;" width="350.937" x="663.8208" y="572"/><text fill="#000000" font-family="Helvetica" font-size="14" font-weight="bold" lengthAdjust="spacing" textLength="29.5449" x="678.8208" y="583.7803">loop</text><text fill="#000000" font-family="Helvetica" font-size="14" font-weight="bold" lengthAdjust="spacing" textLength="190.5381" x="753.3657" y="584.7803">[update pending UPDATING]</text><g class="message" data-entity-1="part4" data-entity-2="part5" id="msg10"><polygon fill="#0F172A" points="973.313,604,983.313,608,973.313,612,977.313,608" style="stroke:#0F172A;stroke-width:1;"/><line style="stroke:#0F172A;stroke-width:1;" x1="752.0171" x2="979.313" y1="608" y2="608"/><text fill="#000000" font-family="Helvetica" font-size="14" lengthAdjust="spacing" textLength="94.9238" x="759.0171" y="602.7803">GetSecurityList</text></g><path d="M661.8208,637 L720.5864,637 L720.5864,643 L710.5864,653 L653.8208,653 L653.8208,645 A8,8 0 0 1 661.8208,637" fill="#F8FAFC" style="stroke:#CBD5E1;stroke-width:1.5;"/><rect fill="none" height="102" rx="8" ry="8" style="stroke:#CBD5E1;stroke-width:1.5;" width="370.937" x="653.8208" y="637"/><text fill="#000000" font-family="Helvetica" font-size="14" font-weight="bold" lengthAdjust="spacing" textLength="21.7656" x="668.8208" y="648.7803">opt</text><text fill="#000000" font-family="Helvetica" font-size="14" font-weight="bold" lengthAdjust="spacing" textLength="120.5859" x="735.5864" y="649.7803">[delete requested]</text><g class="message" data-entity-1="part4" data-entity-2="part5" id="msg11"><polygon fill="#0F172A" points="973.313,669,983.313,673,973.313,677,977.313,673" style="stroke:#0F172A;stroke-width:1;"/><line style="stroke:#0F172A;stroke-width:1;" x1="752.0171" x2="979.313" y1="673" y2="673"/><text fill="#000000" font-family="Helvetica" font-size="14" lengthAdjust="spacing" textLength="112.8271" x="759.0171" y="667.7803">DeleteSecurityList</text></g><path d="M671.8208,688 L738.3657,688 L738.3657,694 L728.3657,704 L663.8208,704 L663.8208,696 A8,8 0 0 1 671.8208,688" fill="#F8FAFC" style="stroke:#CBD5E1;stroke-width:1.5;"/><rect fill="none" height="44" rx="8" ry="8" style="stroke:#CBD5E1;stroke-width:1.5;" width="350.937" x="663.8208" y="688"/><text fill="#000000" font-family="Helvetica" font-size="14" font-weight="bold" lengthAdjust="spacing" textLength="29.5449" x="678.8208" y="699.7803">loop</text><text fill="#000000" font-family="Helvetica" font-size="14" font-weight="bold" lengthAdjust="spacing" textLength="213.124" x="753.3657" y="700.7803">[delete confirmation DELETING]</text><g class="message" data-entity-1="part4" data-entity-2="part5" id="msg12"><polygon fill="#0F172A" points="973.313,720,983.313,724,973.313,728,977.313,724" style="stroke:#0F172A;stroke-width:1;"/><line style="stroke:#0F172A;stroke-width:1;" x1="752.0171" x2="979.313" y1="724" y2="724"/><text fill="#000000" font-family="Helvetica" font-size="14" lengthAdjust="spacing" textLength="209.2959" x="759.0171" y="718.7803">GetSecurityList or ListSecurityList</text></g><g class="message" data-entity-1="part4" data-entity-2="part3" id="msg13"><polygon fill="#0F172A" points="508.2974,776,498.2974,780,508.2974,784,504.2974,780" style="stroke:#0F172A;stroke-width:1;"/><line style="stroke:#0F172A;stroke-width:1;stroke-dasharray:2,2;" x1="502.2974" x2="751.0171" y1="780" y2="780"/><text fill="#000000" font-family="Helvetica" font-size="14" lengthAdjust="spacing" textLength="100.7822" x="514.2974" y="760.7803">status=required,</text><text fill="#000000" font-family="Helvetica" font-size="14" lengthAdjust="spacing" textLength="230.7197" x="514.2974" y="774.7803">finalizer=retain-until-confirmed-delete</text></g><g class="message" data-entity-1="part3" data-entity-2="part2" id="msg14"><polygon fill="#0F172A" points="269.4712,818,259.4712,822,269.4712,826,265.4712,822" style="stroke:#0F172A;stroke-width:1;"/><line style="stroke:#0F172A;stroke-width:1;stroke-dasharray:2,2;" x1="263.4712" x2="496.2974" y1="822" y2="822"/><text fill="#000000" font-family="Helvetica" font-size="14" lengthAdjust="spacing" textLength="214.8262" x="275.4712" y="802.7803">requeue on provisioning, updating,</text><text fill="#000000" font-family="Helvetica" font-size="14" lengthAdjust="spacing" textLength="69.2549" x="275.4712" y="816.7803">terminating</text></g><path d="M757,843 L757,1229 A8,8 0 0 0 765,1237 L1089,1237 A8,8 0 0 0 1097,1229 L1097,845 L1087,835 L765,835 A8,8 0 0 0 757,843" fill="#FFF7D6" style="stroke:#B45309;stroke-width:0.5;"/><path d="M1087,835 L1087,841 A4,4 0 0 0 1091,845 L1097,845 L1087,835" fill="#FFF7D6" style="stroke:#B45309;stroke-width:0.5;"/><text fill="#334155" font-family="Helvetica" font-size="14" lengthAdjust="spacing" textLength="101.165" x="763" y="850.7803">shared diagram:</text><text fill="#334155" font-family="Helvetica" font-size="14" lengthAdjust="spacing" textLength="307.3916" x="763" y="864.7803">shared/diagrams/shared-resolution-sequence.svg</text><text fill="#334155" font-family="Helvetica" font-size="14" lengthAdjust="spacing" textLength="143.1992" x="763" y="878.7803">shared delete diagram:</text><text fill="#334155" font-family="Helvetica" font-size="14" lengthAdjust="spacing" textLength="284.833" x="763" y="892.7803">shared/diagrams/shared-delete-sequence.svg</text><text fill="#334155" font-family="Helvetica" font-size="14" lengthAdjust="spacing" textLength="280.9297" x="763" y="906.7803">Start from the shared resolution sequence for</text><text fill="#334155" font-family="Helvetica" font-size="14" lengthAdjust="spacing" textLength="260.7295" x="763" y="920.7803">OCID binding, datasource pagination, and</text><text fill="#334155" font-family="Helvetica" font-size="14" lengthAdjust="spacing" textLength="163.4268" x="763" y="934.7803">create-or-update dispatch.</text><text fill="#334155" font-family="Helvetica" font-size="14" lengthAdjust="spacing" textLength="301.1982" x="763" y="948.7803">Layer the shared delete sequence when finalizer</text><text fill="#334155" font-family="Helvetica" font-size="14" lengthAdjust="spacing" textLength="269.2471" x="763" y="962.7803">retention, delete confirmation, work-request</text><text fill="#334155" font-family="Helvetica" font-size="14" lengthAdjust="spacing" textLength="199.2334" x="763" y="976.7803">polling, or Secret cleanup apply.</text><text fill="#334155" font-family="Helvetica" font-size="14" lengthAdjust="spacing" textLength="281.709" x="763" y="990.7803">archetype batch: Generated service-manager</text><text fill="#334155" font-family="Helvetica" font-size="14" lengthAdjust="spacing" textLength="266.1504" x="763" y="1004.7803">controllers follow the shared resolution and</text><text fill="#334155" font-family="Helvetica" font-size="14" lengthAdjust="spacing" textLength="259.9297" x="763" y="1018.7803">delete sequences with imported waits and</text><text fill="#334155" font-family="Helvetica" font-size="14" lengthAdjust="spacing" textLength="134.6064" x="763" y="1032.7803">controller-local policy.</text><text fill="#334155" font-family="Helvetica" font-size="14" lengthAdjust="spacing" textLength="79.3584" x="763" y="1046.7803">service: core</text><text fill="#334155" font-family="Helvetica" font-size="14" lengthAdjust="spacing" textLength="98.8066" x="763" y="1060.7803">slug: securitylist</text><text fill="#334155" font-family="Helvetica" font-size="14" lengthAdjust="spacing" textLength="105.8203" x="763" y="1074.7803">kind: SecurityList</text><text fill="#334155" font-family="Helvetica" font-size="14" lengthAdjust="spacing" textLength="241.2402" x="763" y="1088.7803">archetype: generated-service-manager</text><text fill="#334155" font-family="Helvetica" font-size="14" lengthAdjust="spacing" textLength="156.4063" x="763" y="1102.7803">status/finalizer: required /</text><text fill="#334155" font-family="Helvetica" font-size="14" lengthAdjust="spacing" textLength="174.3027" x="763" y="1116.7803">retain-until-confirmed-delete</text><text fill="#334155" font-family="Helvetica" font-size="14" lengthAdjust="spacing" textLength="272.3984" x="763" y="1130.7803">requeue: provisioning, updating, terminating</text><text fill="#334155" font-family="Helvetica" font-size="14" lengthAdjust="spacing" textLength="295.6816" x="763" y="1144.7803">provider states: create PROVISIONING; update</text><text fill="#334155" font-family="Helvetica" font-size="14" lengthAdjust="spacing" textLength="192.165" x="763" y="1158.7803">UPDATING; delete DELETING</text><text fill="#334155" font-family="Helvetica" font-size="14" lengthAdjust="spacing" textLength="319.04" x="763" y="1172.7803">mutable/forceNew: display_name / compartment_id</text><text fill="#334155" font-family="Helvetica" font-size="14" lengthAdjust="spacing" textLength="104.3164" x="763" y="1186.7803">open gaps: none</text><text fill="#334155" font-family="Helvetica" font-size="14" lengthAdjust="spacing" textLength="224.9023" x="763" y="1200.7803">Scaffold metadata only; replace with</text><text fill="#334155" font-family="Helvetica" font-size="14" lengthAdjust="spacing" textLength="244.3232" x="763" y="1214.7803">controller-specific runtime states before</text><text fill="#334155" font-family="Helvetica" font-size="14" lengthAdjust="spacing" textLength="66.1445" x="763" y="1228.7803">promotion.</text><?plantuml-src fLPjRzis4FxENt7elhI05STDqgOADc1DkZPe5XVrkay12fewoKGeKYCfUrxH_xwZtYp9TjTYC0pOkXS-pzrpHxb7gGjkUGvknHEpaJg3b2k7p7MM9HUFcJMbJgwDCXP-IWLzafv7WYalbV_DQ7_FSuHtgDRefU27VHRo7uJPUS_8hJMR9ljfEdlvl1-fZSVNUnZIz6NoOknbR8AsyLYUNvoTlXfvXECR-zdP-UpYecUlqWjZDLgOlM1UUeMmmBzAr08X0ZBXT86YjD9lxwJpR2KJXDGOlpH_znAvDkOB0-326pi0rX1iJMDc-1mlqrCoKpAgeIouzeVZ-mxVawL7likXP8ftKWzBz-gSdoqloHfI5WEJM2ONEEjCUssvJ7ags5TMSOFtvHAfdXuTw-60Qm9YZL9e1uzVSuSVKHWjvDZqPBwOlr-WNKk1ltFDCxHFW3iOFXg4pAzlMMWvc3KrT9XxCeeZyLjCmA8pglJIwBXvD4qapwYdRbh_ZtOkKTlc4xVEsWm9Ac9xDBes3oDH9vKqsQvO4FtIgr4CgCc_36BSYO_0DcpOpZK43fd6qFr-QiEnpZzZGvSGDAn7l4jEZ9mCp0R27xg715Jj6DwY7xYPmfF02Aiovh4imcPHOPiSYmz1_GHFKwayMXS_Q67oqDmSjVyiamauppq-OnG6qG7yEVTY5PQP27KHeLyWFUOkb9jnvK5Ov44S5fQIEb1mlpe6wxfo7J0ZGaMReg2KuQWF7-T_tYvkv_Utzs-_jq813TAwXR986ZY9bQd_9fvFbUy-dYP7Y-VJXvjV__XHBFGDNQk52erYC3cMuwRosuVIn9E8Kccf6Q7-Ds_ktlm0db2BiI0wZECK1tGV55AwdmE58E390q7HND7TO-cXvr97fVPIHGt8RZptncCqZLLHQ1g9Kc7DMZeYH_MUrFKFlnuqgJQdqyA_UWbPcQs8KWg7Dq-pAFxVsldFB8VMpyBJM45gJGv-XR2t2NUtMMficBURQc0gmaINErDQCXOyg_WQFG5E3Qfd8p8sQbIPI5U4eJnXTtnBLUqTrg3l3jgiK4FNB4RDegclCX-GrGGsnZv6ZL9PGKsgi95wI3aK2q8XrxHzU56exGdZLgpGRmka5nl24tH7Dpv1J0X1rPieRveZkguxOg-KsHofKM0yOk5W8_qAP5uO6t9lkFIkBasNDL96S0M4MGf2rXmVLsyQpAao8nKtwWzhbD4RHX8FDt779eQivH6DUTIZCErAMckuMkjJzkrPQCGU7vCwz9LU-T2xGhsTNTnkoFvcl6hM56lNqrNRrMu_vANdIuLJ4fp0Uzp4bNWKttxMuUro2iFBW1OMwINZ1HseZKQs43obTYMG4xMWKHfLjRqYqfGaw8iQq--2Ar38L0gmeGXqGWqVbfY6HX2ht8GsdtHtzRy0?></g></svg>