<?plantuml 1.2026.1?><svg xmlns="http://www.w3.org/2000/svg" xmlns:xlink="http://www.w3.org/1999/xlink" contentStyleType="text/css" data-diagram-type="ACTIVITY" height="2576px" preserveAspectRatio="none" style="width:1223px;height:2576px;background:#FCFCFD;" version="1.1" viewBox="0 0 1223 2576" width="1223px" zoomAndPan="magnify"><title>Activity - generativeai/Model</title><defs/><g><rect fill="#FCFCFD" height="2576" style="stroke:none;stroke-width:1;" width="1223" x="0" y="0"/><g class="title" data-source-line="10"><text fill="#000000" font-family="Helvetica" font-size="14" font-weight="bold" lengthAdjust="spacing" textLength="189.0547" x="515.9561" y="30.7803">Activity - generativeai/Model</text></g><ellipse cx="654.3901" cy="55" fill="#1D4ED8" rx="10" ry="10" style="stroke:#222222;stroke-width:1;"/><rect fill="none" height="472" rx="8" ry="8" style="stroke:#000000;stroke-width:1.5;" width="662.584" x="330.2998" y="75"/><path d="M452.3682,75 L452.3682,82 L442.3682,92 L330.2998,92" fill="none" style="stroke:#000000;stroke-width:1.5;"/><text fill="#000000" font-family="Helvetica" font-size="14" lengthAdjust="spacing" textLength="112.0684" x="333.2998" y="86.7803">Observe and Bind</text><rect fill="#F8FAFC" height="48" rx="8" ry="8" style="stroke:#0F172A;stroke-width:0.5;" width="304.7852" x="501.9976" y="109"/><text fill="#0F172A" font-family="Helvetica" font-size="14" lengthAdjust="spacing" textLength="136.9375" x="511.9976" y="129.7803">Start from shared flow</text><text fill="#0F172A" font-family="Helvetica" font-size="14" lengthAdjust="spacing" textLength="284.7852" x="511.9976" y="143.7803">shared/diagrams/shared-reconcile-activity.svg</text><rect fill="#F8FAFC" height="48" rx="8" ry="8" style="stroke:#0F172A;stroke-width:0.5;" width="304.8262" x="501.9771" y="177"/><text fill="#0F172A" font-family="Helvetica" font-size="14" lengthAdjust="spacing" textLength="284.8262" x="511.9771" y="197.7803">Read desired Model spec, tracked status, and</text><text fill="#0F172A" font-family="Helvetica" font-size="14" lengthAdjust="spacing" textLength="76.2822" x="511.9771" y="211.7803">delete intent</text><polygon fill="#E2E8F0" points="524.9243,245,783.856,245,795.856,257,783.856,269,524.9243,269,512.9243,257,524.9243,245" style="stroke:#1D4ED8;stroke-width:0.5;"/><text fill="#0F172A" font-family="Helvetica" font-size="14" lengthAdjust="spacing" textLength="258.9316" x="524.9243" y="260.7803">"Tracked or explicit OCI identity present?"</text><text fill="#000000" font-family="Helvetica" font-size="14" lengthAdjust="spacing" textLength="21.7861" x="491.1382" y="253.7803">yes</text><text fill="#000000" font-family="Helvetica" font-size="14" lengthAdjust="spacing" textLength="15.5723" x="795.856" y="253.7803">no</text><rect fill="#F8FAFC" height="34" rx="8" ry="8" style="stroke:#0F172A;stroke-width:0.5;" width="286.8887" x="350.2998" y="279"/><text fill="#0F172A" font-family="Helvetica" font-size="14" lengthAdjust="spacing" textLength="266.8887" x="360.2998" y="299.7803">Get the current OCI resource via GetModel</text><rect fill="#F8FAFC" height="90" rx="8" ry="8" style="stroke:#0F172A;stroke-width:0.5;" width="280.7432" x="674.6646" y="279"/><text fill="#0F172A" font-family="Helvetica" font-size="14" lengthAdjust="spacing" textLength="259.9092" x="684.6646" y="299.7803">Resolve an existing OCI resource through</text><text fill="#0F172A" font-family="Helvetica" font-size="14" lengthAdjust="spacing" textLength="249.7715" x="684.6646" y="313.7803">ListModels using filters compartment_id,</text><text fill="#0F172A" font-family="Helvetica" font-size="14" lengthAdjust="spacing" textLength="98.8477" x="684.6646" y="327.7803">base_model_id,</text><text fill="#0F172A" font-family="Helvetica" font-size="14" lengthAdjust="spacing" textLength="260.7432" x="684.6646" y="341.7803">fine_tune_details.dedicated_ai_cluster_id,</text><text fill="#0F172A" font-family="Helvetica" font-size="14" lengthAdjust="spacing" textLength="151.3477" x="684.6646" y="355.7803">display_name (+1 more)</text><rect fill="#F8FAFC" height="48" rx="8" ry="8" style="stroke:#0F172A;stroke-width:0.5;" width="315.6953" x="657.1885" y="389"/><text fill="#0F172A" font-family="Helvetica" font-size="14" lengthAdjust="spacing" textLength="295.6953" x="667.1885" y="409.7803">Create the OCI resource via CreateModel when</text><text fill="#0F172A" font-family="Helvetica" font-size="14" lengthAdjust="spacing" textLength="168.1025" x="667.1885" y="423.7803">no reusable match is found</text><rect fill="#F8FAFC" height="48" rx="8" ry="8" style="stroke:#0F172A;stroke-width:0.5;" width="286.8955" x="671.5884" y="457"/><text fill="#0F172A" font-family="Helvetica" font-size="14" lengthAdjust="spacing" textLength="266.8955" x="681.5884" y="477.7803">Persist the resolved or created OCI identity</text><text fill="#0F172A" font-family="Helvetica" font-size="14" lengthAdjust="spacing" textLength="63.8135" x="681.5884" y="491.7803">into status</text><polygon fill="#E2E8F0" points="654.3901,511,666.3901,523,654.3901,535,642.3901,523,654.3901,511" style="stroke:#1D4ED8;stroke-width:0.5;"/><polygon fill="#E2E8F0" points="592.2139,567,716.5664,567,728.5664,579,716.5664,591,592.2139,591,580.2139,579,592.2139,567" style="stroke:#1D4ED8;stroke-width:0.5;"/><text fill="#0F172A" font-family="Helvetica" font-size="14" lengthAdjust="spacing" textLength="124.3525" x="592.2139" y="582.7803">"Delete requested?"</text><text fill="#000000" font-family="Helvetica" font-size="14" lengthAdjust="spacing" textLength="21.7861" x="558.4277" y="575.7803">yes</text><text fill="#000000" font-family="Helvetica" font-size="14" lengthAdjust="spacing" textLength="15.5723" x="728.5664" y="575.7803">no</text><rect fill="none" height="332" rx="8" ry="8" style="stroke:#000000;stroke-width:1.5;" width="644.4814" x="11" y="601"/><path d="M61.4688,601 L61.4688,608 L51.4688,618 L11,618" fill="none" style="stroke:#000000;stroke-width:1.5;"/><text fill="#000000" font-family="Helvetica" font-size="14" lengthAdjust="spacing" textLength="40.4688" x="14" y="612.7803">Delete</text><rect fill="#F8FAFC" height="48" rx="8" ry="8" style="stroke:#0F172A;stroke-width:0.5;" width="332.0127" x="173.7378" y="635"/><text fill="#0F172A" font-family="Helvetica" font-size="14" lengthAdjust="spacing" textLength="293.3848" x="183.7378" y="655.7803">Delete path uses DeleteModel with required via</text><text fill="#0F172A" font-family="Helvetica" font-size="14" lengthAdjust="spacing" textLength="312.0127" x="183.7378" y="669.7803">GetModel or ListModels to DELETED confirmation</text><rect fill="#F8FAFC" height="48" rx="8" ry="8" style="stroke:#0F172A;stroke-width:0.5;" width="295.4541" x="192.0171" y="718"/><text fill="#0F172A" font-family="Helvetica" font-size="14" lengthAdjust="spacing" textLength="275.4541" x="202.0171" y="738.7803">Confirm deletion via GetModel or ListModels</text><text fill="#0F172A" font-family="Helvetica" font-size="14" lengthAdjust="spacing" textLength="176.6201" x="202.0171" y="752.7803">until OCI reaches DELETED</text><polygon fill="#E2E8F0" points="191.5718,801,487.9165,801,499.9165,813,487.9165,825,191.5718,825,179.5718,813,191.5718,801" style="stroke:#1D4ED8;stroke-width:0.5;"/><text fill="#0F172A" font-family="Helvetica" font-size="14" lengthAdjust="spacing" textLength="296.3447" x="191.5718" y="816.7803">"Delete cleanup and finalizer release succeed?"</text><text fill="#000000" font-family="Helvetica" font-size="14" lengthAdjust="spacing" textLength="21.7861" x="157.7856" y="809.7803">yes</text><text fill="#000000" font-family="Helvetica" font-size="14" lengthAdjust="spacing" textLength="15.5723" x="499.9165" y="809.7803">no</text><rect fill="#F8FAFC" height="34" rx="8" ry="8" style="stroke:#0F172A;stroke-width:0.5;" width="293.1436" x="23" y="835"/><text fill="#0F172A" font-family="Helvetica" font-size="14" lengthAdjust="spacing" textLength="273.1436" x="33" y="855.7803">Remove the finalizer after delete completion</text><rect fill="#F8FAFC" height="48" rx="8" ry="8" style="stroke:#0F172A;stroke-width:0.5;" width="251.1299" x="384.3516" y="835"/><text fill="#0F172A" font-family="Helvetica" font-size="14" lengthAdjust="spacing" textLength="231.1299" x="394.3516" y="855.7803">Stay blocked until cleanup or finalizer</text><text fill="#0F172A" font-family="Helvetica" font-size="14" lengthAdjust="spacing" textLength="108.9512" x="394.3516" y="869.7803">release succeeds</text><polygon fill="#E2E8F0" points="339.7441,889,351.7441,901,339.7441,913,327.7441,901,339.7441,889" style="stroke:#1D4ED8;stroke-width:0.5;"/><ellipse cx="339.7441" cy="979" fill="none" rx="11" ry="11" style="stroke:#222222;stroke-width:1;"/><ellipse cx="339.7441" cy="979" fill="#222222" rx="6" ry="6" style="stroke:#222222;stroke-width:1;"/><rect fill="none" height="442" rx="8" ry="8" style="stroke:#000000;stroke-width:1.5;" width="392.5713" x="778.7505" y="601"/><path d="M929.5845,601 L929.5845,608 L919.5845,618 L778.7505,618" fill="none" style="stroke:#000000;stroke-width:1.5;"/><text fill="#000000" font-family="Helvetica" font-size="14" lengthAdjust="spacing" textLength="140.834" x="781.7505" y="612.7803">Lifecycle Classification</text><rect fill="#F8FAFC" height="48" rx="8" ry="8" style="stroke:#0F172A;stroke-width:0.5;" width="340.5713" x="798.7505" y="684"/><text fill="#0F172A" font-family="Helvetica" font-size="14" lengthAdjust="spacing" textLength="320.5713" x="808.7505" y="704.7803">Request requeue while OCI remains in CREATING,</text><text fill="#0F172A" font-family="Helvetica" font-size="14" lengthAdjust="spacing" textLength="70.0137" x="808.7505" y="718.7803">DELETING</text><ellipse cx="969.0361" cy="778" fill="none" rx="11" ry="11" style="stroke:#222222;stroke-width:1;"/><ellipse cx="969.0361" cy="778" fill="#222222" rx="6" ry="6" style="stroke:#222222;stroke-width:1;"/><polygon fill="#E2E8F0" points="882.7529,635,1055.3193,635,1067.3193,647,1055.3193,659,882.7529,659,870.7529,647,882.7529,635" style="stroke:#1D4ED8;stroke-width:0.5;"/><text fill="#000000" font-family="Helvetica" font-size="14" lengthAdjust="spacing" textLength="21.7861" x="973.0361" y="669.7803">yes</text><text fill="#0F172A" font-family="Helvetica" font-size="14" lengthAdjust="spacing" textLength="172.5664" x="882.7529" y="650.7803">"OCI state in retryable set?"</text><rect fill="#F8FAFC" height="48" rx="8" ry="8" style="stroke:#0F172A;stroke-width:0.5;" width="293.916" x="822.0781" y="904"/><text fill="#0F172A" font-family="Helvetica" font-size="14" lengthAdjust="spacing" textLength="273.916" x="832.0781" y="924.7803">Return an unsuccessful reconcile result until</text><text fill="#0F172A" font-family="Helvetica" font-size="14" lengthAdjust="spacing" textLength="133.041" x="832.0781" y="938.7803">OCI reaches ACTIVE</text><ellipse cx="969.0361" cy="998" fill="none" rx="11" ry="11" style="stroke:#222222;stroke-width:1;"/><ellipse cx="969.0361" cy="998" fill="#222222" rx="6" ry="6" style="stroke:#222222;stroke-width:1;"/><polygon fill="#E2E8F0" points="848.5151,855,1089.5571,855,1101.5571,867,1089.5571,879,848.5151,879,836.5151,867,848.5151,855" style="stroke:#1D4ED8;stroke-width:0.5;"/><text fill="#000000" font-family="Helvetica" font-size="14" lengthAdjust="spacing" textLength="21.7861" x="973.0361" y="889.7803">yes</text><text fill="#0F172A" font-family="Helvetica" font-size="14" lengthAdjust="spacing" textLength="241.042" x="848.5151" y="870.7803">"OCI state is outside success targets?"</text><rect fill="none" height="721" rx="8" ry="8" style="stroke:#000000;stroke-width:1.5;" width="537.4854" x="675.4814" y="1053"/><path d="M841.9014,1053 L841.9014,1060 L831.9014,1070 L675.4814,1070" fill="none" style="stroke:#000000;stroke-width:1.5;"/><text fill="#000000" font-family="Helvetica" font-size="14" lengthAdjust="spacing" textLength="156.4199" x="678.4814" y="1064.7803">Ready and Drift Handling</text><rect fill="#F8FAFC" height="48" rx="8" ry="8" style="stroke:#0F172A;stroke-width:0.5;" width="237.8818" x="850.0952" y="1087"/><text fill="#0F172A" font-family="Helvetica" font-size="14" lengthAdjust="spacing" textLength="217.8818" x="860.0952" y="1107.7803">Compare live OCI state against the</text><text fill="#0F172A" font-family="Helvetica" font-size="14" lengthAdjust="spacing" textLength="195.3369" x="860.0952" y="1121.7803">repo-authored mutation surface</text><rect fill="#F8FAFC" height="62" rx="8" ry="8" style="stroke:#0F172A;stroke-width:0.5;" width="302.4473" x="817.8125" y="1204"/><text fill="#0F172A" font-family="Helvetica" font-size="14" lengthAdjust="spacing" textLength="282.4473" x="827.8125" y="1224.7803">Reject drift before OCI mutation for force-new</text><text fill="#0F172A" font-family="Helvetica" font-size="14" lengthAdjust="spacing" textLength="243.5781" x="827.8125" y="1238.7803">fields base_model_id, compartment_id,</text><text fill="#0F172A" font-family="Helvetica" font-size="14" lengthAdjust="spacing" textLength="105.8613" x="827.8125" y="1252.7803">fine_tune_details</text><ellipse cx="969.0361" cy="1297" fill="none" rx="11" ry="11" style="stroke:#222222;stroke-width:1;"/><ellipse cx="969.0361" cy="1297" fill="#222222" rx="6" ry="6" style="stroke:#222222;stroke-width:1;"/><polygon fill="#E2E8F0" points="843.4531,1155,1094.6191,1155,1106.6191,1167,1094.6191,1179,843.4531,1179,831.4531,1167,843.4531,1155" style="stroke:#1D4ED8;stroke-width:0.5;"/><text fill="#000000" font-family="Helvetica" font-size="14" lengthAdjust="spacing" textLength="21.7861" x="973.0361" y="1189.7803">yes</text><text fill="#0F172A" font-family="Helvetica" font-size="14" lengthAdjust="spacing" textLength="251.166" x="843.4531" y="1170.7803">"Force-new or conflicting drift detected?"</text><polygon fill="#E2E8F0" points="858.6084,1350,1079.4639,1350,1091.4639,1362,1079.4639,1374,858.6084,1374,846.6084,1362,858.6084,1350" style="stroke:#1D4ED8;stroke-width:0.5;"/><text fill="#0F172A" font-family="Helvetica" font-size="14" lengthAdjust="spacing" textLength="220.8555" x="858.6084" y="1365.7803">"Supported mutable drift detected?"</text><text fill="#000000" font-family="Helvetica" font-size="14" lengthAdjust="spacing" textLength="21.7861" x="824.8223" y="1358.7803">yes</text><text fill="#000000" font-family="Helvetica" font-size="14" lengthAdjust="spacing" textLength="15.5723" x="1091.4639" y="1358.7803">no</text><rect fill="#F8FAFC" height="62" rx="8" ry="8" style="stroke:#0F172A;stroke-width:0.5;" width="282.2539" x="695.4814" y="1384"/><text fill="#0F172A" font-family="Helvetica" font-size="14" lengthAdjust="spacing" textLength="262.2539" x="705.4814" y="1404.7803">Apply UpdateModel only for mutable fields</text><text fill="#0F172A" font-family="Helvetica" font-size="14" lengthAdjust="spacing" textLength="253.7158" x="705.4814" y="1418.7803">defined_tags, description, display_name,</text><text fill="#0F172A" font-family="Helvetica" font-size="14" lengthAdjust="spacing" textLength="151.334" x="705.4814" y="1432.7803">freeform_tags (+2 more)</text><rect fill="#F8FAFC" height="34" rx="8" ry="8" style="stroke:#0F172A;stroke-width:0.5;" width="199.0059" x="1001.9609" y="1384"/><text fill="#0F172A" font-family="Helvetica" font-size="14" lengthAdjust="spacing" textLength="179.0059" x="1011.9609" y="1404.7803">Skip the no-op mutation path</text><polygon fill="#E2E8F0" points="969.0361,1452,981.0361,1464,969.0361,1476,957.0361,1464,969.0361,1452" style="stroke:#1D4ED8;stroke-width:0.5;"/><rect fill="#F8FAFC" height="90" rx="8" ry="8" style="stroke:#0F172A;stroke-width:0.5;" width="293.5537" x="822.2593" y="1496"/><text fill="#0F172A" font-family="Helvetica" font-size="14" lengthAdjust="spacing" textLength="164.2061" x="832.2593" y="1516.7803">Run provider helper hooks</text><text fill="#0F172A" font-family="Helvetica" font-size="14" lengthAdjust="spacing" textLength="219.0508" x="832.2593" y="1530.7803">create=tfresource.CreateResource;</text><text fill="#0F172A" font-family="Helvetica" font-size="14" lengthAdjust="spacing" textLength="226.085" x="832.2593" y="1544.7803">update=tfresource.UpdateResource;</text><text fill="#0F172A" font-family="Helvetica" font-size="14" lengthAdjust="spacing" textLength="273.5537" x="832.2593" y="1558.7803">delete=tfresource.DeleteResource when the</text><text fill="#0F172A" font-family="Helvetica" font-size="14" lengthAdjust="spacing" textLength="220.2334" x="832.2593" y="1572.7803">matching field-driven path executes</text><rect fill="#F8FAFC" height="34" rx="8" ry="8" style="stroke:#0F172A;stroke-width:0.5;" width="303.2197" x="817.4263" y="1606"/><text fill="#0F172A" font-family="Helvetica" font-size="14" lengthAdjust="spacing" textLength="283.2197" x="827.4263" y="1626.7803">Return success for the ACTIVE success state</text><rect fill="#F8FAFC" height="48" rx="8" ry="8" style="stroke:#0F172A;stroke-width:0.5;" width="279.1299" x="829.4712" y="1660"/><text fill="#0F172A" font-family="Helvetica" font-size="14" lengthAdjust="spacing" textLength="259.1299" x="839.4712" y="1680.7803">Project required status and finalizer policy</text><text fill="#0F172A" font-family="Helvetica" font-size="14" lengthAdjust="spacing" textLength="174.3027" x="839.4712" y="1694.7803">retain-until-confirmed-delete</text><rect fill="#F8FAFC" height="34" rx="8" ry="8" style="stroke:#0F172A;stroke-width:0.5;" width="251.9229" x="843.0747" y="1728"/><text fill="#0F172A" font-family="Helvetica" font-size="14" lengthAdjust="spacing" textLength="231.9229" x="853.0747" y="1748.7803">Requeue on provisioning, terminating</text><path d="M685.3901,1784 L685.3901,2170 L665.3901,2174 L685.3901,2178 L685.3901,2564 A0,0 0 0 0 685.3901,2564 L1025.813,2564 A0,0 0 0 0 1025.813,2564 L1025.813,1794 L1015.813,1784 L685.3901,1784 A0,0 0 0 0 685.3901,1784" fill="#FFF7D6" style="stroke:#B45309;stroke-width:0.5;"/><path d="M1015.813,1784 L1015.813,1794 L1025.813,1794 L1015.813,1784" fill="#FFF7D6" style="stroke:#B45309;stroke-width:0.5;"/><text fill="#334155" font-family="Helvetica" font-size="14" lengthAdjust="spacing" textLength="101.165" x="691.3901" y="1799.7803">shared diagram:</text><text fill="#334155" font-family="Helvetica" font-size="14" lengthAdjust="spacing" textLength="284.7852" x="691.3901" y="1813.7803">shared/diagrams/shared-reconcile-activity.svg</text><text fill="#334155" font-family="Helvetica" font-size="14" lengthAdjust="spacing" textLength="265.3438" x="691.3901" y="1827.7803">Start from the shared reconcile activity and</text><text fill="#334155" font-family="Helvetica" font-size="14" lengthAdjust="spacing" textLength="273.8955" x="691.3901" y="1841.7803">specialize provider-backed CRUD, wait, and</text><text fill="#334155" font-family="Helvetica" font-size="14" lengthAdjust="spacing" textLength="182.875" x="691.3901" y="1855.7803">status-projection details here.</text><text fill="#334155" font-family="Helvetica" font-size="14" lengthAdjust="spacing" textLength="229.5371" x="691.3901" y="1869.7803">Controller-local activity diagrams add</text><text fill="#334155" font-family="Helvetica" font-size="14" lengthAdjust="spacing" textLength="238.8955" x="691.3901" y="1883.7803">list-lookup hints, secret policies, delete</text><text fill="#334155" font-family="Helvetica" font-size="14" lengthAdjust="spacing" textLength="200.0332" x="691.3901" y="1897.7803">handling, and open formal gaps.</text><text fill="#334155" font-family="Helvetica" font-size="14" lengthAdjust="spacing" textLength="281.709" x="691.3901" y="1911.7803">archetype batch: Generated service-manager</text><text fill="#334155" font-family="Helvetica" font-size="14" lengthAdjust="spacing" textLength="291.0469" x="691.3901" y="1925.7803">controllers specialize the shared reconcile path</text><text fill="#334155" font-family="Helvetica" font-size="14" lengthAdjust="spacing" textLength="189.8477" x="691.3901" y="1939.7803">with formal runtime ownership.</text><text fill="#334155" font-family="Helvetica" font-size="14" lengthAdjust="spacing" textLength="128.3994" x="691.3901" y="1953.7803">service: generativeai</text><text fill="#334155" font-family="Helvetica" font-size="14" lengthAdjust="spacing" textLength="71.5928" x="691.3901" y="1967.7803">slug: model</text><text fill="#334155" font-family="Helvetica" font-size="14" lengthAdjust="spacing" textLength="71.5928" x="691.3901" y="1981.7803">kind: Model</text><text fill="#334155" font-family="Helvetica" font-size="14" lengthAdjust="spacing" textLength="241.2402" x="691.3901" y="1995.7803">archetype: generated-service-manager</text><text fill="#334155" font-family="Helvetica" font-size="14" lengthAdjust="spacing" textLength="156.4063" x="691.3901" y="2009.7803">status/finalizer: required /</text><text fill="#334155" font-family="Helvetica" font-size="14" lengthAdjust="spacing" textLength="174.3027" x="691.3901" y="2023.7803">retain-until-confirmed-delete</text><text fill="#334155" font-family="Helvetica" font-size="14" lengthAdjust="spacing" textLength="210.9023" x="691.3901" y="2037.7803">requeue: provisioning, terminating</text><text fill="#334155" font-family="Helvetica" font-size="14" lengthAdjust="spacing" textLength="304.2607" x="691.3901" y="2051.7803">provider states: create CREATING; update none;</text><text fill="#334155" font-family="Helvetica" font-size="14" lengthAdjust="spacing" textLength="112.0479" x="691.3901" y="2065.7803">delete DELETING</text><text fill="#334155" font-family="Helvetica" font-size="14" lengthAdjust="spacing" textLength="256.8262" x="691.3901" y="2079.7803">supported drift: defined_tags, description,</text><text fill="#334155" font-family="Helvetica" font-size="14" lengthAdjust="spacing" textLength="245.499" x="691.3901" y="2093.7803">display_name, freeform_tags (+2 more)</text><text fill="#334155" font-family="Helvetica" font-size="14" lengthAdjust="spacing" textLength="230.3301" x="691.3901" y="2107.7803">reject before mutate: force-new fields</text><text fill="#334155" font-family="Helvetica" font-size="14" lengthAdjust="spacing" textLength="316.7568" x="691.3901" y="2121.7803">base_model_id, compartment_id, fine_tune_details</text><text fill="#334155" font-family="Helvetica" font-size="14" lengthAdjust="spacing" textLength="144.751" x="691.3901" y="2135.7803">create-only fields: none</text><text fill="#334155" font-family="Helvetica" font-size="14" lengthAdjust="spacing" textLength="270.0332" x="691.3901" y="2149.7803">list lookup: oci_generative_ai_models filters</text><text fill="#334155" font-family="Helvetica" font-size="14" lengthAdjust="spacing" textLength="207.0059" x="691.3901" y="2163.7803">compartment_id, base_model_id,</text><text fill="#334155" font-family="Helvetica" font-size="14" lengthAdjust="spacing" textLength="260.7432" x="691.3901" y="2177.7803">fine_tune_details.dedicated_ai_cluster_id,</text><text fill="#334155" font-family="Helvetica" font-size="14" lengthAdjust="spacing" textLength="319.4229" x="691.3901" y="2191.7803">display_name (+1 more); exact compartmentId plus</text><text fill="#334155" font-family="Helvetica" font-size="14" lengthAdjust="spacing" textLength="107.4131" x="691.3901" y="2205.7803">baseModelId and</text><text fill="#334155" font-family="Helvetica" font-size="14" lengthAdjust="spacing" textLength="263.0264" x="691.3901" y="2219.7803">fineTuneDetails.dedicatedAiClusterId, with</text><text fill="#334155" font-family="Helvetica" font-size="14" lengthAdjust="spacing" textLength="280.1777" x="691.3901" y="2233.7803">displayName required when populated; blank</text><text fill="#334155" font-family="Helvetica" font-size="14" lengthAdjust="spacing" textLength="155.6201" x="691.3901" y="2247.7803">displayName skips reuse</text><text fill="#334155" font-family="Helvetica" font-size="14" lengthAdjust="spacing" textLength="89.4961" x="691.3901" y="2261.7803">conflicts: none</text><text fill="#334155" font-family="Helvetica" font-size="14" lengthAdjust="spacing" textLength="104.3164" x="691.3901" y="2275.7803">open gaps: none</text><text fill="#334155" font-family="Helvetica" font-size="14" lengthAdjust="spacing" textLength="302.7227" x="691.3901" y="2289.7803">The generated runtime scopes ListModels by the</text><text fill="#334155" font-family="Helvetica" font-size="14" lengthAdjust="spacing" textLength="288.7363" x="691.3901" y="2303.7803">required compartment and only binds a unique</text><text fill="#334155" font-family="Helvetica" font-size="14" lengthAdjust="spacing" textLength="266.1504" x="691.3901" y="2317.7803">returned model that matches baseModelId,</text><text fill="#334155" font-family="Helvetica" font-size="14" lengthAdjust="spacing" textLength="287.9502" x="691.3901" y="2331.7803">fineTuneDetails.dedicatedAiClusterId, and any</text><text fill="#334155" font-family="Helvetica" font-size="14" lengthAdjust="spacing" textLength="150.2061" x="691.3901" y="2345.7803">populated displayName.</text><text fill="#334155" font-family="Helvetica" font-size="14" lengthAdjust="spacing" textLength="287.8887" x="691.3901" y="2359.7803">A service-local wrapper skips pre-create reuse</text><text fill="#334155" font-family="Helvetica" font-size="14" lengthAdjust="spacing" textLength="276.2402" x="691.3901" y="2373.7803">when displayName is empty and clears stale</text><text fill="#334155" font-family="Helvetica" font-size="14" lengthAdjust="spacing" textLength="280.916" x="691.3901" y="2387.7803">tracked IDs before recreating so create never</text><text fill="#334155" font-family="Helvetica" font-size="14" lengthAdjust="spacing" textLength="224.123" x="691.3901" y="2401.7803">guesses across older fine-tune jobs.</text><text fill="#334155" font-family="Helvetica" font-size="14" lengthAdjust="spacing" textLength="301.1641" x="691.3901" y="2415.7803">Create and update use read-after-write follow-up</text><text fill="#334155" font-family="Helvetica" font-size="14" lengthAdjust="spacing" textLength="287.9365" x="691.3901" y="2429.7803">through GetModel before the controller reports</text><text fill="#334155" font-family="Helvetica" font-size="14" lengthAdjust="spacing" textLength="315.9844" x="691.3901" y="2443.7803">steady state; the vendored SDK does not expose a</text><text fill="#334155" font-family="Helvetica" font-size="14" lengthAdjust="spacing" textLength="289.4404" x="691.3901" y="2457.7803">separate UPDATING lifecycle enum for Model.</text><text fill="#334155" font-family="Helvetica" font-size="14" lengthAdjust="spacing" textLength="276.2539" x="691.3901" y="2471.7803">In-place updates are limited to displayName,</text><text fill="#334155" font-family="Helvetica" font-size="14" lengthAdjust="spacing" textLength="293.3643" x="691.3901" y="2485.7803">description, vendor, version, freeformTags, and</text><text fill="#334155" font-family="Helvetica" font-size="14" lengthAdjust="spacing" textLength="297.2881" x="691.3901" y="2499.7803">definedTags; compartmentId, baseModelId, and</text><text fill="#334155" font-family="Helvetica" font-size="14" lengthAdjust="spacing" textLength="229.5645" x="691.3901" y="2513.7803">fineTuneDetails require replacement.</text><text fill="#334155" font-family="Helvetica" font-size="14" lengthAdjust="spacing" textLength="256.0195" x="691.3901" y="2527.7803">Delete retains the finalizer until GetModel</text><text fill="#334155" font-family="Helvetica" font-size="14" lengthAdjust="spacing" textLength="299.5576" x="691.3901" y="2541.7803">confirms DELETED or OCI no longer returns the</text><text fill="#334155" font-family="Helvetica" font-size="14" lengthAdjust="spacing" textLength="42.0205" x="691.3901" y="2555.7803">model.</text><ellipse cx="654.3901" cy="2174" fill="none" rx="11" ry="11" style="stroke:#222222;stroke-width:1;"/><ellipse cx="654.3901" cy="2174" fill="#222222" rx="6" ry="6" style="stroke:#222222;stroke-width:1;"/><line style="stroke:#0F172A;stroke-width:1;" x1="654.3901" x2="654.3901" y1="157" y2="177"/><polygon fill="#0F172A" points="650.3901,167,654.3901,177,658.3901,167,654.3901,171" style="stroke:#0F172A;stroke-width:1;"/><line style="stroke:#0F172A;stroke-width:1;" x1="815.0361" x2="815.0361" y1="369" y2="389"/><polygon fill="#0F172A" points="811.0361,379,815.0361,389,819.0361,379,815.0361,383" style="stroke:#0F172A;stroke-width:1;"/><line style="stroke:#0F172A;stroke-width:1;" x1="815.0361" x2="815.0361" y1="437" y2="457"/><polygon fill="#0F172A" points="811.0361,447,815.0361,457,819.0361,447,815.0361,451" style="stroke:#0F172A;stroke-width:1;"/><line style="stroke:#0F172A;stroke-width:1;" x1="512.9243" x2="493.7441" y1="257" y2="257"/><line style="stroke:#0F172A;stroke-width:1;" x1="493.7441" x2="493.7441" y1="257" y2="279"/><polygon fill="#0F172A" points="489.7441,269,493.7441,279,497.7441,269,493.7441,273" style="stroke:#0F172A;stroke-width:1;"/><line style="stroke:#0F172A;stroke-width:1;" x1="795.856" x2="815.0361" y1="257" y2="257"/><line style="stroke:#0F172A;stroke-width:1;" x1="815.0361" x2="815.0361" y1="257" y2="279"/><polygon fill="#0F172A" points="811.0361,269,815.0361,279,819.0361,269,815.0361,273" style="stroke:#0F172A;stroke-width:1;"/><line style="stroke:#0F172A;stroke-width:1;" x1="493.7441" x2="493.7441" y1="313" y2="523"/><line style="stroke:#0F172A;stroke-width:1;" x1="493.7441" x2="642.3901" y1="523" y2="523"/><polygon fill="#0F172A" points="632.3901,519,642.3901,523,632.3901,527,636.3901,523" style="stroke:#0F172A;stroke-width:1;"/><line style="stroke:#0F172A;stroke-width:1;" x1="815.0361" x2="815.0361" y1="505" y2="523"/><line style="stroke:#0F172A;stroke-width:1;" x1="815.0361" x2="666.3901" y1="523" y2="523"/><polygon fill="#0F172A" points="676.3901,519,666.3901,523,676.3901,527,672.3901,523" style="stroke:#0F172A;stroke-width:1;"/><line style="stroke:#0F172A;stroke-width:1;" x1="654.3901" x2="654.3901" y1="225" y2="245"/><polygon fill="#0F172A" points="650.3901,235,654.3901,245,658.3901,235,654.3901,239" style="stroke:#0F172A;stroke-width:1;"/><line style="stroke:#0F172A;stroke-width:1;" x1="654.3901" x2="654.3901" y1="65" y2="109"/><polygon fill="#0F172A" points="650.3901,99,654.3901,109,658.3901,99,654.3901,103" style="stroke:#0F172A;stroke-width:1;"/><line style="stroke:#0F172A;stroke-width:1;" x1="339.7441" x2="339.7441" y1="683" y2="718"/><polygon fill="#0F172A" points="335.7441,708,339.7441,718,343.7441,708,339.7441,712" style="stroke:#0F172A;stroke-width:1;"/><line style="stroke:#0F172A;stroke-width:1;" x1="179.5718" x2="169.5718" y1="813" y2="813"/><line style="stroke:#0F172A;stroke-width:1;" x1="169.5718" x2="169.5718" y1="813" y2="835"/><polygon fill="#0F172A" points="165.5718,825,169.5718,835,173.5718,825,169.5718,829" style="stroke:#0F172A;stroke-width:1;"/><line style="stroke:#0F172A;stroke-width:1;" x1="499.9165" x2="509.9165" y1="813" y2="813"/><line style="stroke:#0F172A;stroke-width:1;" x1="509.9165" x2="509.9165" y1="813" y2="835"/><polygon fill="#0F172A" points="505.9165,825,509.9165,835,513.9165,825,509.9165,829" style="stroke:#0F172A;stroke-width:1;"/><line style="stroke:#0F172A;stroke-width:1;" x1="169.5718" x2="169.5718" y1="869" y2="901"/><line style="stroke:#0F172A;stroke-width:1;" x1="169.5718" x2="327.7441" y1="901" y2="901"/><polygon fill="#0F172A" points="317.7441,897,327.7441,901,317.7441,905,321.7441,901" style="stroke:#0F172A;stroke-width:1;"/><line style="stroke:#0F172A;stroke-width:1;" x1="509.9165" x2="509.9165" y1="883" y2="901"/><line style="stroke:#0F172A;stroke-width:1;" x1="509.9165" x2="351.7441" y1="901" y2="901"/><polygon fill="#0F172A" points="361.7441,897,351.7441,901,361.7441,905,357.7441,901" style="stroke:#0F172A;stroke-width:1;"/><line style="stroke:#0F172A;stroke-width:1;" x1="339.7441" x2="339.7441" y1="766" y2="801"/><polygon fill="#0F172A" points="335.7441,791,339.7441,801,343.7441,791,339.7441,795" style="stroke:#0F172A;stroke-width:1;"/><line style="stroke:#0F172A;stroke-width:1;" x1="339.7441" x2="339.7441" y1="913" y2="968"/><polygon fill="#0F172A" points="335.7441,958,339.7441,968,343.7441,958,339.7441,962" style="stroke:#0F172A;stroke-width:1;"/><line style="stroke:#0F172A;stroke-width:1;" x1="969.0361" x2="969.0361" y1="732" y2="767"/><polygon fill="#0F172A" points="965.0361,757,969.0361,767,973.0361,757,969.0361,761" style="stroke:#0F172A;stroke-width:1;"/><line style="stroke:#0F172A;stroke-width:1;" x1="969.0361" x2="969.0361" y1="659" y2="684"/><polygon fill="#0F172A" points="965.0361,674,969.0361,684,973.0361,674,969.0361,678" style="stroke:#0F172A;stroke-width:1;"/><line style="stroke:#0F172A;stroke-width:1;" x1="1067.3193" x2="1149.3218" y1="647" y2="647"/><polygon fill="#0F172A" points="1145.3218,723.5,1149.3218,733.5,1153.3218,723.5,1149.3218,727.5" style="stroke:#0F172A;stroke-width:1;"/><line style="stroke:#0F172A;stroke-width:1;" x1="1149.3218" x2="1149.3218" y1="647" y2="820"/><line style="stroke:#0F172A;stroke-width:1;" x1="1149.3218" x2="969.0361" y1="820" y2="820"/><line style="stroke:#0F172A;stroke-width:1;" x1="969.0361" x2="969.0361" y1="820" y2="855"/><polygon fill="#0F172A" points="965.0361,845,969.0361,855,973.0361,845,969.0361,849" style="stroke:#0F172A;stroke-width:1;"/><line style="stroke:#0F172A;stroke-width:1;" x1="969.0361" x2="969.0361" y1="952" y2="987"/><polygon fill="#0F172A" points="965.0361,977,969.0361,987,973.0361,977,969.0361,981" style="stroke:#0F172A;stroke-width:1;"/><line style="stroke:#0F172A;stroke-width:1;" x1="969.0361" x2="969.0361" y1="879" y2="904"/><polygon fill="#0F172A" points="965.0361,894,969.0361,904,973.0361,894,969.0361,898" style="stroke:#0F172A;stroke-width:1;"/><line style="stroke:#0F172A;stroke-width:1;" x1="1101.5571" x2="1125.9941" y1="867" y2="867"/><polygon fill="#0F172A" points="1121.9941,943.5,1125.9941,953.5,1129.9941,943.5,1125.9941,947.5" style="stroke:#0F172A;stroke-width:1;"/><line style="stroke:#0F172A;stroke-width:1;" x1="1125.9941" x2="1125.9941" y1="867" y2="1031"/><line style="stroke:#0F172A;stroke-width:1;" x1="1125.9941" x2="969.0361" y1="1031" y2="1031"/><line style="stroke:#0F172A;stroke-width:1;" x1="969.0361" x2="969.0361" y1="1031" y2="1087"/><polygon fill="#0F172A" points="965.0361,1077,969.0361,1087,973.0361,1077,969.0361,1081" style="stroke:#0F172A;stroke-width:1;"/><line style="stroke:#0F172A;stroke-width:1;" x1="969.0361" x2="969.0361" y1="1266" y2="1286"/><polygon fill="#0F172A" points="965.0361,1276,969.0361,1286,973.0361,1276,969.0361,1280" style="stroke:#0F172A;stroke-width:1;"/><line style="stroke:#0F172A;stroke-width:1;" x1="969.0361" x2="969.0361" y1="1179" y2="1204"/><polygon fill="#0F172A" points="965.0361,1194,969.0361,1204,973.0361,1194,969.0361,1198" style="stroke:#0F172A;stroke-width:1;"/><line style="stroke:#0F172A;stroke-width:1;" x1="1106.6191" x2="1130.2598" y1="1167" y2="1167"/><polygon fill="#0F172A" points="1126.2598,1250.5,1130.2598,1260.5,1134.2598,1250.5,1130.2598,1254.5" style="stroke:#0F172A;stroke-width:1;"/><line style="stroke:#0F172A;stroke-width:1;" x1="1130.2598" x2="1130.2598" y1="1167" y2="1330"/><line style="stroke:#0F172A;stroke-width:1;" x1="1130.2598" x2="969.0361" y1="1330" y2="1330"/><line style="stroke:#0F172A;stroke-width:1;" x1="969.0361" x2="969.0361" y1="1330" y2="1350"/><polygon fill="#0F172A" points="965.0361,1340,969.0361,1350,973.0361,1340,969.0361,1344" style="stroke:#0F172A;stroke-width:1;"/><line style="stroke:#0F172A;stroke-width:1;" x1="969.0361" x2="969.0361" y1="1135" y2="1155"/><polygon fill="#0F172A" points="965.0361,1145,969.0361,1155,973.0361,1145,969.0361,1149" style="stroke:#0F172A;stroke-width:1;"/><line style="stroke:#0F172A;stroke-width:1;" x1="846.6084" x2="836.6084" y1="1362" y2="1362"/><line style="stroke:#0F172A;stroke-width:1;" x1="836.6084" x2="836.6084" y1="1362" y2="1384"/><polygon fill="#0F172A" points="832.6084,1374,836.6084,1384,840.6084,1374,836.6084,1378" style="stroke:#0F172A;stroke-width:1;"/><line style="stroke:#0F172A;stroke-width:1;" x1="1091.4639" x2="1101.4639" y1="1362" y2="1362"/><line style="stroke:#0F172A;stroke-width:1;" x1="1101.4639" x2="1101.4639" y1="1362" y2="1384"/><polygon fill="#0F172A" points="1097.4639,1374,1101.4639,1384,1105.4639,1374,1101.4639,1378" style="stroke:#0F172A;stroke-width:1;"/><line style="stroke:#0F172A;stroke-width:1;" x1="836.6084" x2="836.6084" y1="1446" y2="1464"/><line style="stroke:#0F172A;stroke-width:1;" x1="836.6084" x2="957.0361" y1="1464" y2="1464"/><polygon fill="#0F172A" points="947.0361,1460,957.0361,1464,947.0361,1468,951.0361,1464" style="stroke:#0F172A;stroke-width:1;"/><line style="stroke:#0F172A;stroke-width:1;" x1="1101.4639" x2="1101.4639" y1="1418" y2="1464"/><line style="stroke:#0F172A;stroke-width:1;" x1="1101.4639" x2="981.0361" y1="1464" y2="1464"/><polygon fill="#0F172A" points="991.0361,1460,981.0361,1464,991.0361,1468,987.0361,1464" style="stroke:#0F172A;stroke-width:1;"/><line style="stroke:#0F172A;stroke-width:1;" x1="969.0361" x2="969.0361" y1="1476" y2="1496"/><polygon fill="#0F172A" points="965.0361,1486,969.0361,1496,973.0361,1486,969.0361,1490" style="stroke:#0F172A;stroke-width:1;"/><line style="stroke:#0F172A;stroke-width:1;" x1="969.0361" x2="969.0361" y1="1586" y2="1606"/><polygon fill="#0F172A" points="965.0361,1596,969.0361,1606,973.0361,1596,969.0361,1600" style="stroke:#0F172A;stroke-width:1;"/><line style="stroke:#0F172A;stroke-width:1;" x1="969.0361" x2="969.0361" y1="1640" y2="1660"/><polygon fill="#0F172A" points="965.0361,1650,969.0361,1660,973.0361,1650,969.0361,1654" style="stroke:#0F172A;stroke-width:1;"/><line style="stroke:#0F172A;stroke-width:1;" x1="969.0361" x2="969.0361" y1="1708" y2="1728"/><polygon fill="#0F172A" points="965.0361,1718,969.0361,1728,973.0361,1718,969.0361,1722" style="stroke:#0F172A;stroke-width:1;"/><line style="stroke:#0F172A;stroke-width:1;" x1="580.2139" x2="339.7441" y1="579" y2="579"/><line style="stroke:#0F172A;stroke-width:1;" x1="339.7441" x2="339.7441" y1="579" y2="635"/><polygon fill="#0F172A" points="335.7441,625,339.7441,635,343.7441,625,339.7441,629" style="stroke:#0F172A;stroke-width:1;"/><line style="stroke:#0F172A;stroke-width:1;" x1="728.5664" x2="969.0361" y1="579" y2="579"/><line style="stroke:#0F172A;stroke-width:1;" x1="969.0361" x2="969.0361" y1="579" y2="635"/><polygon fill="#0F172A" points="965.0361,625,969.0361,635,973.0361,625,969.0361,629" style="stroke:#0F172A;stroke-width:1;"/><line style="stroke:#0F172A;stroke-width:1;" x1="969.0361" x2="969.0361" y1="1762" y2="1779"/><line style="stroke:#0F172A;stroke-width:1;" x1="969.0361" x2="654.3901" y1="1779" y2="1779"/><line style="stroke:#0F172A;stroke-width:1;" x1="654.3901" x2="654.3901" y1="1779" y2="2163"/><polygon fill="#0F172A" points="650.3901,2153,654.3901,2163,658.3901,2153,654.3901,2157" style="stroke:#0F172A;stroke-width:1;"/><line style="stroke:#0F172A;stroke-width:1;" x1="654.3901" x2="654.3901" y1="535" y2="567"/><polygon fill="#0F172A" points="650.3901,557,654.3901,567,658.3901,557,654.3901,561" style="stroke:#0F172A;stroke-width:1;"/><?plantuml-src bLXjRnkv4VxENq6aNnBKakEytAKIYi8dEtT6qxk3u_IJ08FQvKeyxv9RaYjLBUw_zvaXTxMIdE2A0B6NEpklppmpT7WojbLUDJ9iLEbsngvbfUgWHHZUh5JnjFQki-N2rSxBFrK5_fKZYL9NgglZHsVZpwhHyYTTRtKqXNfUvhFvZvPNxqOlbVTkbxM_hgw-VpF-qhgeVpZpeQg-BxyxbNA-r3vBhDwzV_lwBoSIP3w_V_lstTNxzwFthBvmtcelhxuJqSHQo-iYcgs9UpcHQuqt2ezQcSj_k5BNumXwkVyA-Kp6FbIgAkZDsCCSgPJLmQlXh3IgSROy2ro_qH-groE1iSQhyfqkFnnUVdn6SOZAnrDvFUWVv5RgHEllWZyL21YvCSxA5x-iWlPRBPKjvG_6bYyG_kmpISdAEmQLrwMiQhTRslHm2TVMo5YuJCyJhmjd2rFhIP_3QTYkvs9shrK9s0H3AZZVChIwk93H8oauWpkn2nTaVMdnMaSjZOtQnhambNpvuY4B8WZzxxOsXOdobyMTD2Lag5Yjrm6__kt5AnatsigNUnrUYTcFEjApB3hlyPg_WQJhVA7brYW90NPeBZHwHRwqxXNv6rpDoO0r4oBrqj6NSOD2hZTB-mbl-ViWky0jP-geVP25QoYx3Om-cl9YQLSgwCU6HDDpPQn-Z1t-AtLKfWxJKfTejAZBHsKUYxeBK9HaInFQMkqVBRNaopzVoSPv_Gg9NNYD3pZ2iyZIkvJj7LAojDP1eWjgXMveL2msqWGW5eY4gb_XDO9XNJx5p-akM4rvbEsbHN5ShXeo1mShW8ehTPEgv_M_Eeq8ofEAZ22N91be-QDMnGtog8DC1zbvWrFIn_11Q4lRLuqS79K0FjtSVhfzkBr1_f5XZoXXYXAL7YLZYwoFQt-iPMax15ddXAfYG-uahVEZ48jQAzkrt3Aefgf1XXwVu1X82brHwBFm0Qt6RLF53j-e2gMM6VU4dEJa4IRHYtkvgXstGVAmTm3k3xgMziI1KNr2TEr8vQWKdqobYptqoKMjGZ0L0H5lg3WSCYM3oarjYH2ZtpEAWexd0NBX4m0w3UY1478o6sLi80sB-zlhXxkVVmIsERNuTPxTOrzFRGRfkXW0lnHLGAcLN-iOpgt7pbjgtCvcqQghvS1C16tChfJ0fHtN-7hnSFVFsoCtVX_dY4XipyM-yQQAyYVyMgFb6S0BRdSjQymKUN1ShIbYRYegJEicgeiRHpXkkiWfHaI-KeNEsFheqByJgtVSUq0jk8xvfsIZu0fTnETWzHlEiz1ALp31RWnMAW99hvlOHzTbaCUaT4vQPoHrNgNFNTiw7tD418flUthTjlLUVcdBWPoSnG7vroj8pj4W8FlbOrHhp0RCZyARbgB1muWHoK-lAUQ6HS6GRtg673VGascvxwoRkFQG6IATlaTcznqElDi2QbvkTDtI3-UUu4qYmh_6gcVPQMBO-_mu1t5mL6EH5ET893NvM2InII_2L9tmmXITPWhoCK5QjpgvYwcaYoxgC1yGt_S5vP62J6WUZXcEnFBUCL06EaqSVi9XhGFgzeHO5DrEk5accL4nvrCCyzphw76NanQGJpYCkQvz0sq4t3cwA2MNaKEhc_HclOaYhnHvYvY9_skh4AFTXEBDoWwDFgnn24tGjc4ukA6warNQA1RtNsukv4wPU954EI6JDYMA09AX3pXuFHMO9D6xkeO6aB6g3uPwnwKgIr5Zda30FO6VKSG800SD2CMKNACPqPH7iSb4mlQbQpLtQmFLQzM6gL0U_1JthKQx0X4pp2rUNwbwsDaCUhfHLgsr5yNWN92Zc9zD4059y6pDrZpL6Gk6sq5zs9XsAhB-sT76B4BThMUIQKDWRIvdQQSxE3h8etodBgRyNWvWcnsmU2c-2JYHHyhiws0JG-youCCiho_3m9dBrACW0Gi4vv7Rpo0H1Z9Z4fl9hrEGEA8W-HK6Wi_SRvcIcNGGmC34cUl4jubOdl6mI75D4dUoZXd7nC2J2NWpwGhpU2WTxPLDsfJocYfE3Htx8VxuaYg-igE2gj0Wuu3kIjdYEmwPSOC3QZoozG1JDwUMhiqYsRc3WmJOtXRVK0VqC76shkrg-cYENKdPfoDHtF7Qm2km5lrexTF6RKVzbfyVq383Y8VM20NamdZbNEsfkyJWnIZGrCvKe1MQ1BI0hSC0mOHoK3PDJ9v_SQDYsiTrciWvAnT_C2LaHjcz66ANew2dudfWYSHNEwzQ6cif6xWtJNAFfCHm6iTPm_AbcpOHAQ-SdiT9hKL_Uxkx2Jt0lMPbDBM2wvlFwYqQVusra5PxLNY7YUHgQbEAS480ax-v5RWkNsZ8L6vK-4GhMZdX9NcoymQ75JZExIPTA_9DxB3BPqVuqZUmeQJToyS0zk4jBer35i9CBNaX-tppTrawE8WHHPTC1yCA34X_5O39Bx_UC8DWnUjtPMsxXWSkMvwAEpj1rZ33a-i8bJV2nb1DS3SPPHNzCbvdaXFqqmS-wEdaWNc7sYCp4HtCZzlfuWWqp_LItoIK1dAGlfkAuQOMUIq_lfAa6qQVLP6vUBW9qNPA-oMkbBMpQyumWPhLY2Rb0q7ndsh-1m00?></g></svg>