<?plantuml 1.2026.1?><svg xmlns="http://www.w3.org/2000/svg" xmlns:xlink="http://www.w3.org/1999/xlink" contentStyleType="text/css" data-diagram-type="ACTIVITY" height="1315px" preserveAspectRatio="none" style="width:707px;height:1315px;background:#FCFCFD;" version="1.1" viewBox="0 0 707 1315" width="707px" zoomAndPan="magnify"><title>Activity - optimizer/OptimizerCategories</title><defs/><g><rect fill="#FCFCFD" height="1315" style="stroke:none;stroke-width:1;" width="707" x="0" y="0"/><g class="title" data-source-line="10"><text fill="#000000" font-family="Helvetica" font-size="14" font-weight="bold" lengthAdjust="spacing" textLength="266.0547" x="219.1179" y="30.7803">Activity - optimizer/OptimizerCategories</text></g><ellipse cx="324.2505" cy="55" fill="#1D4ED8" rx="10" ry="10" style="stroke:#222222;stroke-width:1;"/><rect fill="#F8FAFC" height="48" rx="8" ry="8" style="stroke:#0F172A;stroke-width:0.5;" width="304.7852" x="171.8579" y="85"/><text fill="#0F172A" font-family="Helvetica" font-size="14" lengthAdjust="spacing" textLength="136.9375" x="181.8579" y="105.7803">Start from shared flow</text><text fill="#0F172A" font-family="Helvetica" font-size="14" lengthAdjust="spacing" textLength="284.7852" x="181.8579" y="119.7803">shared/diagrams/shared-reconcile-activity.svg</text><rect fill="#F8FAFC" height="48" rx="8" ry="8" style="stroke:#0F172A;stroke-width:0.5;" width="293.1504" x="177.6753" y="153"/><text fill="#0F172A" font-family="Helvetica" font-size="14" lengthAdjust="spacing" textLength="273.1504" x="187.6753" y="173.7803">Load desired OptimizerCategories spec and</text><text fill="#0F172A" font-family="Helvetica" font-size="14" lengthAdjust="spacing" textLength="144.7373" x="187.6753" y="187.7803">status from Kubernetes</text><rect fill="#F8FAFC" height="48" rx="8" ry="8" style="stroke:#0F172A;stroke-width:0.5;" width="309.4404" x="169.5303" y="221"/><text fill="#0F172A" font-family="Helvetica" font-size="14" lengthAdjust="spacing" textLength="289.4404" x="179.5303" y="241.7803">Resolve OCI state via GetOptimizerCategories</text><text fill="#0F172A" font-family="Helvetica" font-size="14" lengthAdjust="spacing" textLength="229.5303" x="179.5303" y="255.7803">with ListOptimizerCategories fallback</text><rect fill="#F8FAFC" height="62" rx="8" ry="8" style="stroke:#0F172A;stroke-width:0.5;" width="317.2402" x="165.6304" y="289"/><text fill="#0F172A" font-family="Helvetica" font-size="14" lengthAdjust="spacing" textLength="270.7852" x="175.6304" y="309.7803">Use scaffold_optimizer_optimizercategories</text><text fill="#0F172A" font-family="Helvetica" font-size="14" lengthAdjust="spacing" textLength="297.2402" x="175.6304" y="323.7803">filters compartment_id, state when OCID lookup</text><text fill="#0F172A" font-family="Helvetica" font-size="14" lengthAdjust="spacing" textLength="259.9023" x="175.6304" y="337.7803">or bind-versus-create needs list resolution</text><polygon fill="#E2E8F0" points="270.561,371,377.9399,371,389.9399,383,377.9399,395,270.561,395,258.561,383,270.561,371" style="stroke:#1D4ED8;stroke-width:0.5;"/><text fill="#0F172A" font-family="Helvetica" font-size="14" lengthAdjust="spacing" textLength="107.3789" x="270.561" y="386.7803">Resource exists?</text><text fill="#000000" font-family="Helvetica" font-size="14" lengthAdjust="spacing" textLength="21.7861" x="236.7749" y="379.7803">yes</text><text fill="#000000" font-family="Helvetica" font-size="14" lengthAdjust="spacing" textLength="15.5723" x="389.9399" y="379.7803">no</text><rect fill="#F8FAFC" height="34" rx="8" ry="8" style="stroke:#0F172A;stroke-width:0.5;" width="304.8125" x="11" y="405"/><text fill="#0F172A" font-family="Helvetica" font-size="14" lengthAdjust="spacing" textLength="284.8125" x="21" y="425.7803">Update path calls UpdateOptimizerCategories</text><rect fill="#F8FAFC" height="48" rx="8" ry="8" style="stroke:#0F172A;stroke-width:0.5;" width="266.7021" x="30.0552" y="459"/><text fill="#0F172A" font-family="Helvetica" font-size="14" lengthAdjust="spacing" textLength="246.7021" x="40.0552" y="479.7803">Guard mutable fields display_name and</text><text fill="#0F172A" font-family="Helvetica" font-size="14" lengthAdjust="spacing" textLength="202.3096" x="40.0552" y="493.7803">force-new fields compartment_id</text><rect fill="#F8FAFC" height="34" rx="8" ry="8" style="stroke:#0F172A;stroke-width:0.5;" width="298.5645" x="335.8125" y="405"/><text fill="#0F172A" font-family="Helvetica" font-size="14" lengthAdjust="spacing" textLength="278.5645" x="345.8125" y="425.7803">Create path calls CreateOptimizerCategories</text><polygon fill="#E2E8F0" points="324.2505,513,336.2505,525,324.2505,537,312.2505,525,324.2505,513" style="stroke:#1D4ED8;stroke-width:0.5;"/><rect fill="#F8FAFC" height="104" rx="8" ry="8" style="stroke:#0F172A;stroke-width:0.5;" width="334.3164" x="157.0923" y="557"/><text fill="#0F172A" font-family="Helvetica" font-size="14" lengthAdjust="spacing" textLength="164.2061" x="167.0923" y="577.7803">Run provider helper hooks</text><text fill="#0F172A" font-family="Helvetica" font-size="14" lengthAdjust="spacing" textLength="219.0508" x="167.0923" y="591.7803">create=tfresource.CreateResource,</text><text fill="#0F172A" font-family="Helvetica" font-size="14" lengthAdjust="spacing" textLength="314.3164" x="167.0923" y="605.7803">tfresource.WaitForWorkRequestWithErrorHandling</text><text fill="#0F172A" font-family="Helvetica" font-size="14" lengthAdjust="spacing" textLength="215.5439" x="167.0923" y="619.7803">entity=template action=CREATED;</text><text fill="#0F172A" font-family="Helvetica" font-size="14" lengthAdjust="spacing" textLength="226.085" x="167.0923" y="633.7803">update=tfresource.UpdateResource;</text><text fill="#0F172A" font-family="Helvetica" font-size="14" lengthAdjust="spacing" textLength="212.8438" x="167.0923" y="647.7803">delete=tfresource.DeleteResource</text><rect fill="#F8FAFC" height="34" rx="8" ry="8" style="stroke:#0F172A;stroke-width:0.5;" width="263.5918" x="192.4546" y="681"/><text fill="#0F172A" font-family="Helvetica" font-size="14" lengthAdjust="spacing" textLength="243.5918" x="202.4546" y="701.7803">Apply repo-authored secret policy none</text><rect fill="#F8FAFC" height="76" rx="8" ry="8" style="stroke:#0F172A;stroke-width:0.5;" width="297.0264" x="175.7373" y="735"/><text fill="#0F172A" font-family="Helvetica" font-size="14" lengthAdjust="spacing" textLength="277.0264" x="185.7373" y="755.7803">Delete path uses DeleteOptimizerCategories</text><text fill="#0F172A" font-family="Helvetica" font-size="14" lengthAdjust="spacing" textLength="272.3301" x="185.7373" y="769.7803">with required via GetOptimizerCategories or</text><text fill="#0F172A" font-family="Helvetica" font-size="14" lengthAdjust="spacing" textLength="233.4131" x="185.7373" y="783.7803">ListOptimizerCategories to DELETED</text><text fill="#0F172A" font-family="Helvetica" font-size="14" lengthAdjust="spacing" textLength="76.2549" x="185.7373" y="797.7803">confirmation</text><rect fill="#F8FAFC" height="48" rx="8" ry="8" style="stroke:#0F172A;stroke-width:0.5;" width="279.1299" x="184.6855" y="831"/><text fill="#0F172A" font-family="Helvetica" font-size="14" lengthAdjust="spacing" textLength="259.1299" x="194.6855" y="851.7803">Project required status and finalizer policy</text><text fill="#0F172A" font-family="Helvetica" font-size="14" lengthAdjust="spacing" textLength="174.3027" x="194.6855" y="865.7803">retain-until-confirmed-delete</text><rect fill="#F8FAFC" height="34" rx="8" ry="8" style="stroke:#0F172A;stroke-width:0.5;" width="313.4189" x="167.541" y="899"/><text fill="#0F172A" font-family="Helvetica" font-size="14" lengthAdjust="spacing" textLength="293.4189" x="177.541" y="919.7803">Requeue on provisioning, updating, terminating</text><path d="M355.2505,943 L355.2505,1119 L335.2505,1123 L355.2505,1127 L355.2505,1303 A0,0 0 0 0 355.2505,1303 L695.2905,1303 A0,0 0 0 0 695.2905,1303 L695.2905,953 L685.2905,943 L355.2505,943 A0,0 0 0 0 355.2505,943" fill="#FFF7D6" style="stroke:#B45309;stroke-width:0.5;"/><path d="M685.2905,943 L685.2905,953 L695.2905,953 L685.2905,943" fill="#FFF7D6" style="stroke:#B45309;stroke-width:0.5;"/><text fill="#334155" font-family="Helvetica" font-size="14" lengthAdjust="spacing" textLength="101.165" x="361.2505" y="958.7803">shared diagram:</text><text fill="#334155" font-family="Helvetica" font-size="14" lengthAdjust="spacing" textLength="284.7852" x="361.2505" y="972.7803">shared/diagrams/shared-reconcile-activity.svg</text><text fill="#334155" font-family="Helvetica" font-size="14" lengthAdjust="spacing" textLength="265.3438" x="361.2505" y="986.7803">Start from the shared reconcile activity and</text><text fill="#334155" font-family="Helvetica" font-size="14" lengthAdjust="spacing" textLength="273.8955" x="361.2505" y="1000.7803">specialize provider-backed CRUD, wait, and</text><text fill="#334155" font-family="Helvetica" font-size="14" lengthAdjust="spacing" textLength="182.875" x="361.2505" y="1014.7803">status-projection details here.</text><text fill="#334155" font-family="Helvetica" font-size="14" lengthAdjust="spacing" textLength="229.5371" x="361.2505" y="1028.7803">Controller-local activity diagrams add</text><text fill="#334155" font-family="Helvetica" font-size="14" lengthAdjust="spacing" textLength="238.8955" x="361.2505" y="1042.7803">list-lookup hints, secret policies, delete</text><text fill="#334155" font-family="Helvetica" font-size="14" lengthAdjust="spacing" textLength="200.0332" x="361.2505" y="1056.7803">handling, and open formal gaps.</text><text fill="#334155" font-family="Helvetica" font-size="14" lengthAdjust="spacing" textLength="281.709" x="361.2505" y="1070.7803">archetype batch: Generated service-manager</text><text fill="#334155" font-family="Helvetica" font-size="14" lengthAdjust="spacing" textLength="291.0469" x="361.2505" y="1084.7803">controllers specialize the shared reconcile path</text><text fill="#334155" font-family="Helvetica" font-size="14" lengthAdjust="spacing" textLength="189.8477" x="361.2505" y="1098.7803">with formal runtime ownership.</text><text fill="#334155" font-family="Helvetica" font-size="14" lengthAdjust="spacing" textLength="108.917" x="361.2505" y="1112.7803">service: optimizer</text><text fill="#334155" font-family="Helvetica" font-size="14" lengthAdjust="spacing" textLength="154.8477" x="361.2505" y="1126.7803">slug: optimizercategories</text><text fill="#334155" font-family="Helvetica" font-size="14" lengthAdjust="spacing" textLength="161.0615" x="361.2505" y="1140.7803">kind: OptimizerCategories</text><text fill="#334155" font-family="Helvetica" font-size="14" lengthAdjust="spacing" textLength="241.2402" x="361.2505" y="1154.7803">archetype: generated-service-manager</text><text fill="#334155" font-family="Helvetica" font-size="14" lengthAdjust="spacing" textLength="156.4063" x="361.2505" y="1168.7803">status/finalizer: required /</text><text fill="#334155" font-family="Helvetica" font-size="14" lengthAdjust="spacing" textLength="174.3027" x="361.2505" y="1182.7803">retain-until-confirmed-delete</text><text fill="#334155" font-family="Helvetica" font-size="14" lengthAdjust="spacing" textLength="272.3984" x="361.2505" y="1196.7803">requeue: provisioning, updating, terminating</text><text fill="#334155" font-family="Helvetica" font-size="14" lengthAdjust="spacing" textLength="295.6816" x="361.2505" y="1210.7803">provider states: create PROVISIONING; update</text><text fill="#334155" font-family="Helvetica" font-size="14" lengthAdjust="spacing" textLength="192.165" x="361.2505" y="1224.7803">UPDATING; delete DELETING</text><text fill="#334155" font-family="Helvetica" font-size="14" lengthAdjust="spacing" textLength="319.04" x="361.2505" y="1238.7803">mutable/forceNew: display_name / compartment_id</text><text fill="#334155" font-family="Helvetica" font-size="14" lengthAdjust="spacing" textLength="104.3164" x="361.2505" y="1252.7803">open gaps: none</text><text fill="#334155" font-family="Helvetica" font-size="14" lengthAdjust="spacing" textLength="224.9023" x="361.2505" y="1266.7803">Scaffold metadata only; replace with</text><text fill="#334155" font-family="Helvetica" font-size="14" lengthAdjust="spacing" textLength="244.3232" x="361.2505" y="1280.7803">controller-specific runtime states before</text><text fill="#334155" font-family="Helvetica" font-size="14" lengthAdjust="spacing" textLength="66.1445" x="361.2505" y="1294.7803">promotion.</text><ellipse cx="324.2505" cy="1123" fill="none" rx="11" ry="11" style="stroke:#222222;stroke-width:1;"/><ellipse cx="324.2505" cy="1123" fill="#222222" rx="6" ry="6" style="stroke:#222222;stroke-width:1;"/><line style="stroke:#0F172A;stroke-width:1;" x1="324.2505" x2="324.2505" y1="65" y2="85"/><polygon fill="#0F172A" points="320.2505,75,324.2505,85,328.2505,75,324.2505,79" style="stroke:#0F172A;stroke-width:1;"/><line style="stroke:#0F172A;stroke-width:1;" x1="324.2505" x2="324.2505" y1="133" y2="153"/><polygon fill="#0F172A" points="320.2505,143,324.2505,153,328.2505,143,324.2505,147" style="stroke:#0F172A;stroke-width:1;"/><line style="stroke:#0F172A;stroke-width:1;" x1="324.2505" x2="324.2505" y1="201" y2="221"/><polygon fill="#0F172A" points="320.2505,211,324.2505,221,328.2505,211,324.2505,215" style="stroke:#0F172A;stroke-width:1;"/><line style="stroke:#0F172A;stroke-width:1;" x1="324.2505" x2="324.2505" y1="269" y2="289"/><polygon fill="#0F172A" points="320.2505,279,324.2505,289,328.2505,279,324.2505,283" style="stroke:#0F172A;stroke-width:1;"/><line style="stroke:#0F172A;stroke-width:1;" x1="163.4063" x2="163.4063" y1="439" y2="459"/><polygon fill="#0F172A" points="159.4063,449,163.4063,459,167.4063,449,163.4063,453" style="stroke:#0F172A;stroke-width:1;"/><line style="stroke:#0F172A;stroke-width:1;" x1="258.561" x2="163.4063" y1="383" y2="383"/><line style="stroke:#0F172A;stroke-width:1;" x1="163.4063" x2="163.4063" y1="383" y2="405"/><polygon fill="#0F172A" points="159.4063,395,163.4063,405,167.4063,395,163.4063,399" style="stroke:#0F172A;stroke-width:1;"/><line style="stroke:#0F172A;stroke-width:1;" x1="389.9399" x2="485.0947" y1="383" y2="383"/><line style="stroke:#0F172A;stroke-width:1;" x1="485.0947" x2="485.0947" y1="383" y2="405"/><polygon fill="#0F172A" points="481.0947,395,485.0947,405,489.0947,395,485.0947,399" style="stroke:#0F172A;stroke-width:1;"/><line style="stroke:#0F172A;stroke-width:1;" x1="163.4063" x2="163.4063" y1="507" y2="525"/><line style="stroke:#0F172A;stroke-width:1;" x1="163.4063" x2="312.2505" y1="525" y2="525"/><polygon fill="#0F172A" points="302.2505,521,312.2505,525,302.2505,529,306.2505,525" style="stroke:#0F172A;stroke-width:1;"/><line style="stroke:#0F172A;stroke-width:1;" x1="485.0947" x2="485.0947" y1="439" y2="525"/><line style="stroke:#0F172A;stroke-width:1;" x1="485.0947" x2="336.2505" y1="525" y2="525"/><polygon fill="#0F172A" points="346.2505,521,336.2505,525,346.2505,529,342.2505,525" style="stroke:#0F172A;stroke-width:1;"/><line style="stroke:#0F172A;stroke-width:1;" x1="324.2505" x2="324.2505" y1="351" y2="371"/><polygon fill="#0F172A" points="320.2505,361,324.2505,371,328.2505,361,324.2505,365" style="stroke:#0F172A;stroke-width:1;"/><line style="stroke:#0F172A;stroke-width:1;" x1="324.2505" x2="324.2505" y1="537" y2="557"/><polygon fill="#0F172A" points="320.2505,547,324.2505,557,328.2505,547,324.2505,551" style="stroke:#0F172A;stroke-width:1;"/><line style="stroke:#0F172A;stroke-width:1;" x1="324.2505" x2="324.2505" y1="661" y2="681"/><polygon fill="#0F172A" points="320.2505,671,324.2505,681,328.2505,671,324.2505,675" style="stroke:#0F172A;stroke-width:1;"/><line style="stroke:#0F172A;stroke-width:1;" x1="324.2505" x2="324.2505" y1="715" y2="735"/><polygon fill="#0F172A" points="320.2505,725,324.2505,735,328.2505,725,324.2505,729" style="stroke:#0F172A;stroke-width:1;"/><line style="stroke:#0F172A;stroke-width:1;" x1="324.2505" x2="324.2505" y1="811" y2="831"/><polygon fill="#0F172A" points="320.2505,821,324.2505,831,328.2505,821,324.2505,825" style="stroke:#0F172A;stroke-width:1;"/><line style="stroke:#0F172A;stroke-width:1;" x1="324.2505" x2="324.2505" y1="879" y2="899"/><polygon fill="#0F172A" points="320.2505,889,324.2505,899,328.2505,889,324.2505,893" style="stroke:#0F172A;stroke-width:1;"/><line style="stroke:#0F172A;stroke-width:1;" x1="324.2505" x2="324.2505" y1="933" y2="1112"/><polygon fill="#0F172A" points="320.2505,1102,324.2505,1112,328.2505,1102,324.2505,1106" style="stroke:#0F172A;stroke-width:1;"/><?plantuml-src bLPHJoCt47xthnYfBvoKJU20ExeHgcZ2SQW841pb9H9orhDP5w-zjRr9qwh_lUFrPhFaGjMAX-pQu_5yttppBUvLwefRNe8hk30hgHUGS-MGkMvdphFNXJMr5XEZZ8KVyep-H2z2OCvhvRyOxMzvYV0LrHAzpFZ-c4Vv9yBHIM-JMsjMRVR3_EZpn_v9RJp-_5qDUVvPVDgDCbQWRIFc9wV7Xp_kH8Jhs_tZuvEZqzFUVfC-CrQZXQDFp4kl42uoBvVIho41KtbPKkbsTBTvcd2F2sCbkZwOpP6_6EmXxopdUHPs-iMse07oRO7Tcf2yD5fynm5-nBFyi1VGptWaJb2SRJU_x4diFBT-Dnwx_5tSdEza_PirHrdw67uWjwOHa4K1kJAhcOul8xfxGPIuKNnFB6P6Pr9XiY5fw9QBCKjl31Sa4IT3YZtqWgim0wu5fVRSroxU-KizH-gNHqSv7j0PqXtSJQu3Ce-mb1okqE_9DzChwGkuaMxVRXW15Jf7MPySWijudXibNZe9R9-oNivSAe_MGMPAae8lKViNAGPjDQi2TIXk2igOrxgQQM9qBhL8bdIeTabcCSHfHE50KMbW0wJQIwF7JEPm423MDaF0FsZR_VG1V4Xwi4RtWKgjH3XVSKAM4G87SMKFGW9sLNCheAmzdvFESucARXNILOglNtGOuuRktD1zYSRL9kGjk353SWiuq8OAc4G0lGBYoju2I6SofwxL6YfhbfAa2mMgAlmGFqHdvEFSvxQ5FOpfDYmCPhgtzymbkOjzDlRr0N-lqVbdQl4bEOlzIaWKMTjCKz4akdEF9S6aKeCCZJwVF5nUVBkSZcUwRXZhtnavtDn98G8LlWsPDYjT24ilgagjgNkLINZj2nDKxP3mUAYCajcQp4Y7m7WoCbOxKbvSU5-nbg0rG_A-ji7OcNvFsTx0zFBcai0IluOKQqiUzPNUM_CRPdvxHJjfH1xrNdCLKhNrppHXuL8dDH6gaZOJJNWafvb6wa6DODhsEhg4MZ20Xk7cYMQbfBpXPKo6OYeMB1giN1IUjNRIEaZA_fUZi9ulqOHilAaBtdeqWMF1MsG3hrDY4gQVJamUdgO3M96q1Z6qeIIf8bK4YKoBU22b5sXno2RaijOeHHcKeH7ONhGf7BWGB0nt4bq02gcz6xoH1pLg0959LhJQRUwdRn2DEuraIQaNl793ncrMe5zNI2xjio8bKT07Z1eU56UNaeQtv9elqBAiAoxwQOjvBq51aQnHN7kR3PqcKp0hIkyAMGrPcp_TVXcPK_MYzxurHqQVHv7ki_OjWXGMczgJtTeZyQDEX-bMfYFshrfaDYen_IywP9qLDPxjKcXD-VxXxjVhn-kxs-lRgt4yY-pfVdhnhLc8LyNHeWNMskgeSSzRNALldNMquwAiwMjeQDeu0tjilpXG4ZIwYzCSgVKuM8hYvF-XCxr-9aqxSvbrROhbmnof0WoeIXFaEWoss_mdz0y0?></g></svg>