<?plantuml 1.2026.1?><svg xmlns="http://www.w3.org/2000/svg" xmlns:xlink="http://www.w3.org/1999/xlink" contentStyleType="text/css" data-diagram-type="ACTIVITY" height="2249px" preserveAspectRatio="none" style="width:1299px;height:2249px;background:#FCFCFD;" version="1.1" viewBox="0 0 1299 2249" width="1299px" zoomAndPan="magnify"><title>Activity - osubusage/OsubUsageComputedUsageAggregateds</title><defs/><g><rect fill="#FCFCFD" height="2249" style="stroke:none;stroke-width:1;" width="1299" x="0" y="0"/><g class="title" data-source-line="10"><text fill="#000000" font-family="Helvetica" font-size="14" font-weight="bold" lengthAdjust="spacing" textLength="415.4131" x="440.7568" y="30.7803">Activity - osubusage/OsubUsageComputedUsageAggregateds</text></g><ellipse cx="683.4033" cy="55" fill="#1D4ED8" rx="10" ry="10" style="stroke:#222222;stroke-width:1;"/><rect fill="none" height="458" rx="8" ry="8" style="stroke:#000000;stroke-width:1.5;" width="718.7139" x="338.2498" y="75"/><path d="M460.3181,75 L460.3181,82 L450.3181,92 L338.2498,92" fill="none" style="stroke:#000000;stroke-width:1.5;"/><text fill="#000000" font-family="Helvetica" font-size="14" lengthAdjust="spacing" textLength="112.0684" x="341.2498" y="86.7803">Observe and Bind</text><rect fill="#F8FAFC" height="48" rx="8" ry="8" style="stroke:#0F172A;stroke-width:0.5;" width="304.7852" x="531.0107" y="109"/><text fill="#0F172A" font-family="Helvetica" font-size="14" lengthAdjust="spacing" textLength="136.9375" x="541.0107" y="129.7803">Start from shared flow</text><text fill="#0F172A" font-family="Helvetica" font-size="14" lengthAdjust="spacing" textLength="284.7852" x="541.0107" y="143.7803">shared/diagrams/shared-reconcile-activity.svg</text><rect fill="#F8FAFC" height="48" rx="8" ry="8" style="stroke:#0F172A;stroke-width:0.5;" width="365.5498" x="500.6284" y="177"/><text fill="#0F172A" font-family="Helvetica" font-size="14" lengthAdjust="spacing" textLength="345.5498" x="510.6284" y="197.7803">Read desired OsubUsageComputedUsageAggregateds</text><text fill="#0F172A" font-family="Helvetica" font-size="14" lengthAdjust="spacing" textLength="235.8125" x="510.6284" y="211.7803">spec, tracked status, and delete intent</text><polygon fill="#E2E8F0" points="553.9375,245,812.8691,245,824.8691,257,812.8691,269,553.9375,269,541.9375,257,553.9375,245" style="stroke:#1D4ED8;stroke-width:0.5;"/><text fill="#0F172A" font-family="Helvetica" font-size="14" lengthAdjust="spacing" textLength="258.9316" x="553.9375" y="260.7803">"Tracked or explicit OCI identity present?"</text><text fill="#000000" font-family="Helvetica" font-size="14" lengthAdjust="spacing" textLength="21.7861" x="520.1514" y="253.7803">yes</text><text fill="#000000" font-family="Helvetica" font-size="14" lengthAdjust="spacing" textLength="15.5723" x="824.8691" y="253.7803">no</text><rect fill="#F8FAFC" height="48" rx="8" ry="8" style="stroke:#0F172A;stroke-width:0.5;" width="300.9502" x="358.2498" y="279"/><text fill="#0F172A" font-family="Helvetica" font-size="14" lengthAdjust="spacing" textLength="202.3027" x="368.2498" y="299.7803">Get the current OCI resource via</text><text fill="#0F172A" font-family="Helvetica" font-size="14" lengthAdjust="spacing" textLength="280.9502" x="368.2498" y="313.7803">GetOsubUsageComputedUsageAggregateds</text><rect fill="#F8FAFC" height="62" rx="8" ry="8" style="stroke:#0F172A;stroke-width:0.5;" width="337.5293" x="689.3171" y="279"/><text fill="#0F172A" font-family="Helvetica" font-size="14" lengthAdjust="spacing" textLength="259.9092" x="699.3171" y="299.7803">Resolve an existing OCI resource through</text><text fill="#0F172A" font-family="Helvetica" font-size="14" lengthAdjust="spacing" textLength="317.5293" x="699.3171" y="313.7803">ListOsubUsageComputedUsageAggregateds using</text><text fill="#0F172A" font-family="Helvetica" font-size="14" lengthAdjust="spacing" textLength="175.8477" x="699.3171" y="327.7803">filters compartment_id, state</text><rect fill="#F8FAFC" height="62" rx="8" ry="8" style="stroke:#0F172A;stroke-width:0.5;" width="357.7637" x="679.2" y="361"/><text fill="#0F172A" font-family="Helvetica" font-size="14" lengthAdjust="spacing" textLength="174.2959" x="689.2" y="381.7803">Create the OCI resource via</text><text fill="#0F172A" font-family="Helvetica" font-size="14" lengthAdjust="spacing" textLength="337.7637" x="689.2" y="395.7803">CreateOsubUsageComputedUsageAggregateds when</text><text fill="#0F172A" font-family="Helvetica" font-size="14" lengthAdjust="spacing" textLength="168.1025" x="689.2" y="409.7803">no reusable match is found</text><rect fill="#F8FAFC" height="48" rx="8" ry="8" style="stroke:#0F172A;stroke-width:0.5;" width="286.8955" x="714.634" y="443"/><text fill="#0F172A" font-family="Helvetica" font-size="14" lengthAdjust="spacing" textLength="266.8955" x="724.634" y="463.7803">Persist the resolved or created OCI identity</text><text fill="#0F172A" font-family="Helvetica" font-size="14" lengthAdjust="spacing" textLength="63.8135" x="724.634" y="477.7803">into status</text><polygon fill="#E2E8F0" points="683.4033,497,695.4033,509,683.4033,521,671.4033,509,683.4033,497" style="stroke:#1D4ED8;stroke-width:0.5;"/><polygon fill="#E2E8F0" points="621.2271,553,745.5796,553,757.5796,565,745.5796,577,621.2271,577,609.2271,565,621.2271,553" style="stroke:#1D4ED8;stroke-width:0.5;"/><text fill="#0F172A" font-family="Helvetica" font-size="14" lengthAdjust="spacing" textLength="124.3525" x="621.2271" y="568.7803">"Delete requested?"</text><text fill="#000000" font-family="Helvetica" font-size="14" lengthAdjust="spacing" textLength="21.7861" x="587.4409" y="561.7803">yes</text><text fill="#000000" font-family="Helvetica" font-size="14" lengthAdjust="spacing" textLength="15.5723" x="757.5796" y="561.7803">no</text><rect fill="none" height="408" rx="8" ry="8" style="stroke:#000000;stroke-width:1.5;" width="644.4814" x="11" y="587"/><path d="M61.4688,587 L61.4688,594 L51.4688,604 L11,604" fill="none" style="stroke:#000000;stroke-width:1.5;"/><text fill="#000000" font-family="Helvetica" font-size="14" lengthAdjust="spacing" textLength="40.4688" x="14" y="598.7803">Delete</text><rect fill="#F8FAFC" height="104" rx="8" ry="8" style="stroke:#0F172A;stroke-width:0.5;" width="347.6396" x="165.9243" y="621"/><text fill="#0F172A" font-family="Helvetica" font-size="14" lengthAdjust="spacing" textLength="105.0684" x="175.9243" y="641.7803">Delete path uses</text><text fill="#0F172A" font-family="Helvetica" font-size="14" lengthAdjust="spacing" textLength="327.6396" x="175.9243" y="655.7803">DeleteOsubUsageComputedUsageAggregateds with</text><text fill="#0F172A" font-family="Helvetica" font-size="14" lengthAdjust="spacing" textLength="73.1514" x="175.9243" y="669.7803">required via</text><text fill="#0F172A" font-family="Helvetica" font-size="14" lengthAdjust="spacing" textLength="297.2881" x="175.9243" y="683.7803">GetOsubUsageComputedUsageAggregateds or</text><text fill="#0F172A" font-family="Helvetica" font-size="14" lengthAdjust="spacing" textLength="295.7363" x="175.9243" y="697.7803">ListOsubUsageComputedUsageAggregateds to</text><text fill="#0F172A" font-family="Helvetica" font-size="14" lengthAdjust="spacing" textLength="144.7168" x="175.9243" y="711.7803">DELETED confirmation</text><rect fill="#F8FAFC" height="76" rx="8" ry="8" style="stroke:#0F172A;stroke-width:0.5;" width="329.7432" x="174.8726" y="752"/><text fill="#0F172A" font-family="Helvetica" font-size="14" lengthAdjust="spacing" textLength="123.7236" x="184.8726" y="772.7803">Confirm deletion via</text><text fill="#0F172A" font-family="Helvetica" font-size="14" lengthAdjust="spacing" textLength="297.2881" x="184.8726" y="786.7803">GetOsubUsageComputedUsageAggregateds or</text><text fill="#0F172A" font-family="Helvetica" font-size="14" lengthAdjust="spacing" textLength="309.7432" x="184.8726" y="800.7803">ListOsubUsageComputedUsageAggregateds until</text><text fill="#0F172A" font-family="Helvetica" font-size="14" lengthAdjust="spacing" textLength="147.0479" x="184.8726" y="814.7803">OCI reaches DELETED</text><polygon fill="#E2E8F0" points="191.5718,863,487.9165,863,499.9165,875,487.9165,887,191.5718,887,179.5718,875,191.5718,863" style="stroke:#1D4ED8;stroke-width:0.5;"/><text fill="#0F172A" font-family="Helvetica" font-size="14" lengthAdjust="spacing" textLength="296.3447" x="191.5718" y="878.7803">"Delete cleanup and finalizer release succeed?"</text><text fill="#000000" font-family="Helvetica" font-size="14" lengthAdjust="spacing" textLength="21.7861" x="157.7856" y="871.7803">yes</text><text fill="#000000" font-family="Helvetica" font-size="14" lengthAdjust="spacing" textLength="15.5723" x="499.9165" y="871.7803">no</text><rect fill="#F8FAFC" height="34" rx="8" ry="8" style="stroke:#0F172A;stroke-width:0.5;" width="293.1436" x="23" y="897"/><text fill="#0F172A" font-family="Helvetica" font-size="14" lengthAdjust="spacing" textLength="273.1436" x="33" y="917.7803">Remove the finalizer after delete completion</text><rect fill="#F8FAFC" height="48" rx="8" ry="8" style="stroke:#0F172A;stroke-width:0.5;" width="251.1299" x="384.3516" y="897"/><text fill="#0F172A" font-family="Helvetica" font-size="14" lengthAdjust="spacing" textLength="231.1299" x="394.3516" y="917.7803">Stay blocked until cleanup or finalizer</text><text fill="#0F172A" font-family="Helvetica" font-size="14" lengthAdjust="spacing" textLength="108.9512" x="394.3516" y="931.7803">release succeeds</text><polygon fill="#E2E8F0" points="339.7441,951,351.7441,963,339.7441,975,327.7441,963,339.7441,951" style="stroke:#1D4ED8;stroke-width:0.5;"/><ellipse cx="339.7441" cy="1040" fill="none" rx="11" ry="11" style="stroke:#222222;stroke-width:1;"/><ellipse cx="339.7441" cy="1040" fill="#222222" rx="6" ry="6" style="stroke:#222222;stroke-width:1;"/><rect fill="none" height="450" rx="8" ry="8" style="stroke:#000000;stroke-width:1.5;" width="345.916" x="860.1045" y="587"/><path d="M1010.9385,587 L1010.9385,594 L1000.9385,604 L860.1045,604" fill="none" style="stroke:#000000;stroke-width:1.5;"/><text fill="#000000" font-family="Helvetica" font-size="14" lengthAdjust="spacing" textLength="140.834" x="863.1045" y="598.7803">Lifecycle Classification</text><rect fill="#F8FAFC" height="48" rx="8" ry="8" style="stroke:#0F172A;stroke-width:0.5;" width="280.5928" x="886.7661" y="670"/><text fill="#0F172A" font-family="Helvetica" font-size="14" lengthAdjust="spacing" textLength="240.4541" x="896.7661" y="690.7803">Request requeue while OCI remains in</text><text fill="#0F172A" font-family="Helvetica" font-size="14" lengthAdjust="spacing" textLength="260.5928" x="896.7661" y="704.7803">PROVISIONING, UPDATING, DELETING</text><ellipse cx="1027.0625" cy="756" fill="none" rx="11" ry="11" style="stroke:#222222;stroke-width:1;"/><ellipse cx="1027.0625" cy="756" fill="#222222" rx="6" ry="6" style="stroke:#222222;stroke-width:1;"/><polygon fill="#E2E8F0" points="940.7793,621,1113.3457,621,1125.3457,633,1113.3457,645,940.7793,645,928.7793,633,940.7793,621" style="stroke:#1D4ED8;stroke-width:0.5;"/><text fill="#000000" font-family="Helvetica" font-size="14" lengthAdjust="spacing" textLength="21.7861" x="1031.0625" y="655.7803">yes</text><text fill="#0F172A" font-family="Helvetica" font-size="14" lengthAdjust="spacing" textLength="172.5664" x="940.7793" y="636.7803">"OCI state in retryable set?"</text><rect fill="#F8FAFC" height="48" rx="8" ry="8" style="stroke:#0F172A;stroke-width:0.5;" width="293.916" x="880.1045" y="882"/><text fill="#0F172A" font-family="Helvetica" font-size="14" lengthAdjust="spacing" textLength="273.916" x="890.1045" y="902.7803">Return an unsuccessful reconcile result until</text><text fill="#0F172A" font-family="Helvetica" font-size="14" lengthAdjust="spacing" textLength="133.041" x="890.1045" y="916.7803">OCI reaches ACTIVE</text><ellipse cx="1027.0625" cy="976" fill="none" rx="11" ry="11" style="stroke:#222222;stroke-width:1;"/><ellipse cx="1027.0625" cy="976" fill="#222222" rx="6" ry="6" style="stroke:#222222;stroke-width:1;"/><polygon fill="#E2E8F0" points="906.5415,833,1147.5835,833,1159.5835,845,1147.5835,857,906.5415,857,894.5415,845,906.5415,833" style="stroke:#1D4ED8;stroke-width:0.5;"/><text fill="#000000" font-family="Helvetica" font-size="14" lengthAdjust="spacing" textLength="21.7861" x="1031.0625" y="867.7803">yes</text><text fill="#0F172A" font-family="Helvetica" font-size="14" lengthAdjust="spacing" textLength="241.042" x="906.5415" y="848.7803">"OCI state is outside success targets?"</text><rect fill="none" height="722.5" rx="8" ry="8" style="stroke:#000000;stroke-width:1.5;" width="613.4453" x="675.4814" y="1061"/><path d="M841.9014,1061 L841.9014,1068 L831.9014,1078 L675.4814,1078" fill="none" style="stroke:#000000;stroke-width:1.5;"/><text fill="#000000" font-family="Helvetica" font-size="14" lengthAdjust="spacing" textLength="156.4199" x="678.4814" y="1072.7803">Ready and Drift Handling</text><rect fill="#F8FAFC" height="48" rx="8" ry="8" style="stroke:#0F172A;stroke-width:0.5;" width="296.2402" x="878.9424" y="1095"/><text fill="#0F172A" font-family="Helvetica" font-size="14" lengthAdjust="spacing" textLength="276.2402" x="888.9424" y="1115.7803">Compare live OCI state against the imported</text><text fill="#0F172A" font-family="Helvetica" font-size="14" lengthAdjust="spacing" textLength="75.4824" x="888.9424" y="1129.7803">field surface</text><rect fill="#F8FAFC" height="48" rx="8" ry="8" style="stroke:#0F172A;stroke-width:0.5;" width="302.4473" x="875.8389" y="1212"/><text fill="#0F172A" font-family="Helvetica" font-size="14" lengthAdjust="spacing" textLength="282.4473" x="885.8389" y="1232.7803">Reject drift before OCI mutation for force-new</text><text fill="#0F172A" font-family="Helvetica" font-size="14" lengthAdjust="spacing" textLength="136.9512" x="885.8389" y="1246.7803">fields compartment_id</text><ellipse cx="1027.0625" cy="1292.5" fill="none" rx="11" ry="11" style="stroke:#222222;stroke-width:1;"/><ellipse cx="1027.0625" cy="1292.5" fill="#222222" rx="6" ry="6" style="stroke:#222222;stroke-width:1;"/><polygon fill="#E2E8F0" points="901.4795,1163,1152.6455,1163,1164.6455,1175,1152.6455,1187,901.4795,1187,889.4795,1175,901.4795,1163" style="stroke:#1D4ED8;stroke-width:0.5;"/><text fill="#000000" font-family="Helvetica" font-size="14" lengthAdjust="spacing" textLength="21.7861" x="1031.0625" y="1197.7803">yes</text><text fill="#0F172A" font-family="Helvetica" font-size="14" lengthAdjust="spacing" textLength="251.166" x="901.4795" y="1178.7803">"Force-new or conflicting drift detected?"</text><polygon fill="#E2E8F0" points="916.6348,1345.5,1137.4902,1345.5,1149.4902,1357.5,1137.4902,1369.5,916.6348,1369.5,904.6348,1357.5,916.6348,1345.5" style="stroke:#1D4ED8;stroke-width:0.5;"/><text fill="#0F172A" font-family="Helvetica" font-size="14" lengthAdjust="spacing" textLength="220.8555" x="916.6348" y="1361.2803">"Supported mutable drift detected?"</text><text fill="#000000" font-family="Helvetica" font-size="14" lengthAdjust="spacing" textLength="21.7861" x="882.8486" y="1354.2803">yes</text><text fill="#000000" font-family="Helvetica" font-size="14" lengthAdjust="spacing" textLength="15.5723" x="1149.4902" y="1354.2803">no</text><rect fill="#F8FAFC" height="48" rx="8" ry="8" style="stroke:#0F172A;stroke-width:0.5;" width="362.4395" x="695.4814" y="1379.5"/><text fill="#0F172A" font-family="Helvetica" font-size="14" lengthAdjust="spacing" textLength="342.4395" x="705.4814" y="1400.2803">Apply UpdateOsubUsageComputedUsageAggregateds</text><text fill="#0F172A" font-family="Helvetica" font-size="14" lengthAdjust="spacing" textLength="226.4541" x="705.4814" y="1414.2803">only for mutable fields display_name</text><rect fill="#F8FAFC" height="34" rx="8" ry="8" style="stroke:#0F172A;stroke-width:0.5;" width="199.0059" x="1077.9209" y="1379.5"/><text fill="#0F172A" font-family="Helvetica" font-size="14" lengthAdjust="spacing" textLength="179.0059" x="1087.9209" y="1400.2803">Skip the no-op mutation path</text><polygon fill="#E2E8F0" points="1027.0625,1433.5,1039.0625,1445.5,1027.0625,1457.5,1015.0625,1445.5,1027.0625,1433.5" style="stroke:#1D4ED8;stroke-width:0.5;"/><rect fill="#F8FAFC" height="118" rx="8" ry="8" style="stroke:#0F172A;stroke-width:0.5;" width="334.3164" x="859.9043" y="1477.5"/><text fill="#0F172A" font-family="Helvetica" font-size="14" lengthAdjust="spacing" textLength="164.2061" x="869.9043" y="1498.2803">Run provider helper hooks</text><text fill="#0F172A" font-family="Helvetica" font-size="14" lengthAdjust="spacing" textLength="219.0508" x="869.9043" y="1512.2803">create=tfresource.CreateResource,</text><text fill="#0F172A" font-family="Helvetica" font-size="14" lengthAdjust="spacing" textLength="314.3164" x="869.9043" y="1526.2803">tfresource.WaitForWorkRequestWithErrorHandling</text><text fill="#0F172A" font-family="Helvetica" font-size="14" lengthAdjust="spacing" textLength="215.5439" x="869.9043" y="1540.2803">entity=template action=CREATED;</text><text fill="#0F172A" font-family="Helvetica" font-size="14" lengthAdjust="spacing" textLength="226.085" x="869.9043" y="1554.2803">update=tfresource.UpdateResource;</text><text fill="#0F172A" font-family="Helvetica" font-size="14" lengthAdjust="spacing" textLength="273.5537" x="869.9043" y="1568.2803">delete=tfresource.DeleteResource when the</text><text fill="#0F172A" font-family="Helvetica" font-size="14" lengthAdjust="spacing" textLength="220.2334" x="869.9043" y="1582.2803">matching field-driven path executes</text><rect fill="#F8FAFC" height="34" rx="8" ry="8" style="stroke:#0F172A;stroke-width:0.5;" width="303.2197" x="875.4526" y="1615.5"/><text fill="#0F172A" font-family="Helvetica" font-size="14" lengthAdjust="spacing" textLength="283.2197" x="885.4526" y="1636.2803">Return success for the ACTIVE success state</text><rect fill="#F8FAFC" height="48" rx="8" ry="8" style="stroke:#0F172A;stroke-width:0.5;" width="279.1299" x="887.4976" y="1669.5"/><text fill="#0F172A" font-family="Helvetica" font-size="14" lengthAdjust="spacing" textLength="259.1299" x="897.4976" y="1690.2803">Project required status and finalizer policy</text><text fill="#0F172A" font-family="Helvetica" font-size="14" lengthAdjust="spacing" textLength="174.3027" x="897.4976" y="1704.2803">retain-until-confirmed-delete</text><rect fill="#F8FAFC" height="34" rx="8" ry="8" style="stroke:#0F172A;stroke-width:0.5;" width="313.4189" x="870.353" y="1737.5"/><text fill="#0F172A" font-family="Helvetica" font-size="14" lengthAdjust="spacing" textLength="293.4189" x="880.353" y="1758.2803">Requeue on provisioning, updating, terminating</text><path d="M714.4033,1793.5 L714.4033,2011.5 L694.4033,2015.5 L714.4033,2019.5 L714.4033,2237.5 A0,0 0 0 0 714.4033,2237.5 L1113.6973,2237.5 A0,0 0 0 0 1113.6973,2237.5 L1113.6973,1803.5 L1103.6973,1793.5 L714.4033,1793.5 A0,0 0 0 0 714.4033,1793.5" fill="#FFF7D6" style="stroke:#B45309;stroke-width:0.5;"/><path d="M1103.6973,1793.5 L1103.6973,1803.5 L1113.6973,1803.5 L1103.6973,1793.5" fill="#FFF7D6" style="stroke:#B45309;stroke-width:0.5;"/><text fill="#334155" font-family="Helvetica" font-size="14" lengthAdjust="spacing" textLength="101.165" x="720.4033" y="1809.2803">shared diagram:</text><text fill="#334155" font-family="Helvetica" font-size="14" lengthAdjust="spacing" textLength="284.7852" x="720.4033" y="1823.2803">shared/diagrams/shared-reconcile-activity.svg</text><text fill="#334155" font-family="Helvetica" font-size="14" lengthAdjust="spacing" textLength="265.3438" x="720.4033" y="1837.2803">Start from the shared reconcile activity and</text><text fill="#334155" font-family="Helvetica" font-size="14" lengthAdjust="spacing" textLength="273.8955" x="720.4033" y="1851.2803">specialize provider-backed CRUD, wait, and</text><text fill="#334155" font-family="Helvetica" font-size="14" lengthAdjust="spacing" textLength="182.875" x="720.4033" y="1865.2803">status-projection details here.</text><text fill="#334155" font-family="Helvetica" font-size="14" lengthAdjust="spacing" textLength="229.5371" x="720.4033" y="1879.2803">Controller-local activity diagrams add</text><text fill="#334155" font-family="Helvetica" font-size="14" lengthAdjust="spacing" textLength="238.8955" x="720.4033" y="1893.2803">list-lookup hints, secret policies, delete</text><text fill="#334155" font-family="Helvetica" font-size="14" lengthAdjust="spacing" textLength="200.0332" x="720.4033" y="1907.2803">handling, and open formal gaps.</text><text fill="#334155" font-family="Helvetica" font-size="14" lengthAdjust="spacing" textLength="281.709" x="720.4033" y="1921.2803">archetype batch: Generated service-manager</text><text fill="#334155" font-family="Helvetica" font-size="14" lengthAdjust="spacing" textLength="291.0469" x="720.4033" y="1935.2803">controllers specialize the shared reconcile path</text><text fill="#334155" font-family="Helvetica" font-size="14" lengthAdjust="spacing" textLength="189.8477" x="720.4033" y="1949.2803">with formal runtime ownership.</text><text fill="#334155" font-family="Helvetica" font-size="14" lengthAdjust="spacing" textLength="120.627" x="720.4033" y="1963.2803">service: osubusage</text><text fill="#334155" font-family="Helvetica" font-size="14" lengthAdjust="spacing" textLength="279.4326" x="720.4033" y="1977.2803">slug: osubusagecomputedusageaggregateds</text><text fill="#334155" font-family="Helvetica" font-size="14" lengthAdjust="spacing" textLength="291.8467" x="720.4033" y="1991.2803">kind: OsubUsageComputedUsageAggregateds</text><text fill="#334155" font-family="Helvetica" font-size="14" lengthAdjust="spacing" textLength="241.2402" x="720.4033" y="2005.2803">archetype: generated-service-manager</text><text fill="#334155" font-family="Helvetica" font-size="14" lengthAdjust="spacing" textLength="156.4063" x="720.4033" y="2019.2803">status/finalizer: required /</text><text fill="#334155" font-family="Helvetica" font-size="14" lengthAdjust="spacing" textLength="174.3027" x="720.4033" y="2033.2803">retain-until-confirmed-delete</text><text fill="#334155" font-family="Helvetica" font-size="14" lengthAdjust="spacing" textLength="272.3984" x="720.4033" y="2047.2803">requeue: provisioning, updating, terminating</text><text fill="#334155" font-family="Helvetica" font-size="14" lengthAdjust="spacing" textLength="295.6816" x="720.4033" y="2061.2803">provider states: create PROVISIONING; update</text><text fill="#334155" font-family="Helvetica" font-size="14" lengthAdjust="spacing" textLength="192.165" x="720.4033" y="2075.2803">UPDATING; delete DELETING</text><text fill="#334155" font-family="Helvetica" font-size="14" lengthAdjust="spacing" textLength="183.6611" x="720.4033" y="2089.2803">supported drift: display_name</text><text fill="#334155" font-family="Helvetica" font-size="14" lengthAdjust="spacing" textLength="230.3301" x="720.4033" y="2103.2803">reject before mutate: force-new fields</text><text fill="#334155" font-family="Helvetica" font-size="14" lengthAdjust="spacing" textLength="100.3789" x="720.4033" y="2117.2803">compartment_id</text><text fill="#334155" font-family="Helvetica" font-size="14" lengthAdjust="spacing" textLength="66.1445" x="720.4033" y="2131.2803">list lookup:</text><text fill="#334155" font-family="Helvetica" font-size="14" lengthAdjust="spacing" textLength="378.2939" x="720.4033" y="2145.2803">scaffold_osubusage_osubusagecomputedusageaggregateds</text><text fill="#334155" font-family="Helvetica" font-size="14" lengthAdjust="spacing" textLength="175.8477" x="720.4033" y="2159.2803">filters compartment_id, state</text><text fill="#334155" font-family="Helvetica" font-size="14" lengthAdjust="spacing" textLength="89.4961" x="720.4033" y="2173.2803">conflicts: none</text><text fill="#334155" font-family="Helvetica" font-size="14" lengthAdjust="spacing" textLength="104.3164" x="720.4033" y="2187.2803">open gaps: none</text><text fill="#334155" font-family="Helvetica" font-size="14" lengthAdjust="spacing" textLength="224.9023" x="720.4033" y="2201.2803">Scaffold metadata only; replace with</text><text fill="#334155" font-family="Helvetica" font-size="14" lengthAdjust="spacing" textLength="244.3232" x="720.4033" y="2215.2803">controller-specific runtime states before</text><text fill="#334155" font-family="Helvetica" font-size="14" lengthAdjust="spacing" textLength="66.1445" x="720.4033" y="2229.2803">promotion.</text><ellipse cx="683.4033" cy="2015.5" fill="none" rx="11" ry="11" style="stroke:#222222;stroke-width:1;"/><ellipse cx="683.4033" cy="2015.5" fill="#222222" rx="6" ry="6" style="stroke:#222222;stroke-width:1;"/><line style="stroke:#0F172A;stroke-width:1;" x1="683.4033" x2="683.4033" y1="157" y2="177"/><polygon fill="#0F172A" points="679.4033,167,683.4033,177,687.4033,167,683.4033,171" style="stroke:#0F172A;stroke-width:1;"/><line style="stroke:#0F172A;stroke-width:1;" x1="858.0818" x2="858.0818" y1="341" y2="361"/><polygon fill="#0F172A" points="854.0818,351,858.0818,361,862.0818,351,858.0818,355" style="stroke:#0F172A;stroke-width:1;"/><line style="stroke:#0F172A;stroke-width:1;" x1="858.0818" x2="858.0818" y1="423" y2="443"/><polygon fill="#0F172A" points="854.0818,433,858.0818,443,862.0818,433,858.0818,437" style="stroke:#0F172A;stroke-width:1;"/><line style="stroke:#0F172A;stroke-width:1;" x1="541.9375" x2="508.7249" y1="257" y2="257"/><line style="stroke:#0F172A;stroke-width:1;" x1="508.7249" x2="508.7249" y1="257" y2="279"/><polygon fill="#0F172A" points="504.7249,269,508.7249,279,512.7249,269,508.7249,273" style="stroke:#0F172A;stroke-width:1;"/><line style="stroke:#0F172A;stroke-width:1;" x1="824.8691" x2="858.0818" y1="257" y2="257"/><line style="stroke:#0F172A;stroke-width:1;" x1="858.0818" x2="858.0818" y1="257" y2="279"/><polygon fill="#0F172A" points="854.0818,269,858.0818,279,862.0818,269,858.0818,273" style="stroke:#0F172A;stroke-width:1;"/><line style="stroke:#0F172A;stroke-width:1;" x1="508.7249" x2="508.7249" y1="327" y2="509"/><line style="stroke:#0F172A;stroke-width:1;" x1="508.7249" x2="671.4033" y1="509" y2="509"/><polygon fill="#0F172A" points="661.4033,505,671.4033,509,661.4033,513,665.4033,509" style="stroke:#0F172A;stroke-width:1;"/><line style="stroke:#0F172A;stroke-width:1;" x1="858.0818" x2="858.0818" y1="491" y2="509"/><line style="stroke:#0F172A;stroke-width:1;" x1="858.0818" x2="695.4033" y1="509" y2="509"/><polygon fill="#0F172A" points="705.4033,505,695.4033,509,705.4033,513,701.4033,509" style="stroke:#0F172A;stroke-width:1;"/><line style="stroke:#0F172A;stroke-width:1;" x1="683.4033" x2="683.4033" y1="225" y2="245"/><polygon fill="#0F172A" points="679.4033,235,683.4033,245,687.4033,235,683.4033,239" style="stroke:#0F172A;stroke-width:1;"/><line style="stroke:#0F172A;stroke-width:1;" x1="683.4033" x2="683.4033" y1="65" y2="109"/><polygon fill="#0F172A" points="679.4033,99,683.4033,109,687.4033,99,683.4033,103" style="stroke:#0F172A;stroke-width:1;"/><line style="stroke:#0F172A;stroke-width:1;" x1="339.7441" x2="339.7441" y1="725" y2="752"/><polygon fill="#0F172A" points="335.7441,742,339.7441,752,343.7441,742,339.7441,746" style="stroke:#0F172A;stroke-width:1;"/><line style="stroke:#0F172A;stroke-width:1;" x1="179.5718" x2="169.5718" y1="875" y2="875"/><line style="stroke:#0F172A;stroke-width:1;" x1="169.5718" x2="169.5718" y1="875" y2="897"/><polygon fill="#0F172A" points="165.5718,887,169.5718,897,173.5718,887,169.5718,891" style="stroke:#0F172A;stroke-width:1;"/><line style="stroke:#0F172A;stroke-width:1;" x1="499.9165" x2="509.9165" y1="875" y2="875"/><line style="stroke:#0F172A;stroke-width:1;" x1="509.9165" x2="509.9165" y1="875" y2="897"/><polygon fill="#0F172A" points="505.9165,887,509.9165,897,513.9165,887,509.9165,891" style="stroke:#0F172A;stroke-width:1;"/><line style="stroke:#0F172A;stroke-width:1;" x1="169.5718" x2="169.5718" y1="931" y2="963"/><line style="stroke:#0F172A;stroke-width:1;" x1="169.5718" x2="327.7441" y1="963" y2="963"/><polygon fill="#0F172A" points="317.7441,959,327.7441,963,317.7441,967,321.7441,963" style="stroke:#0F172A;stroke-width:1;"/><line style="stroke:#0F172A;stroke-width:1;" x1="509.9165" x2="509.9165" y1="945" y2="963"/><line style="stroke:#0F172A;stroke-width:1;" x1="509.9165" x2="351.7441" y1="963" y2="963"/><polygon fill="#0F172A" points="361.7441,959,351.7441,963,361.7441,967,357.7441,963" style="stroke:#0F172A;stroke-width:1;"/><line style="stroke:#0F172A;stroke-width:1;" x1="339.7441" x2="339.7441" y1="828" y2="863"/><polygon fill="#0F172A" points="335.7441,853,339.7441,863,343.7441,853,339.7441,857" style="stroke:#0F172A;stroke-width:1;"/><line style="stroke:#0F172A;stroke-width:1;" x1="339.7441" x2="339.7441" y1="975" y2="1029"/><polygon fill="#0F172A" points="335.7441,1019,339.7441,1029,343.7441,1019,339.7441,1023" style="stroke:#0F172A;stroke-width:1;"/><line style="stroke:#0F172A;stroke-width:1;" x1="1027.0625" x2="1027.0625" y1="718" y2="745"/><polygon fill="#0F172A" points="1023.0625,735,1027.0625,745,1031.0625,735,1027.0625,739" style="stroke:#0F172A;stroke-width:1;"/><line style="stroke:#0F172A;stroke-width:1;" x1="1027.0625" x2="1027.0625" y1="645" y2="670"/><polygon fill="#0F172A" points="1023.0625,660,1027.0625,670,1031.0625,660,1027.0625,664" style="stroke:#0F172A;stroke-width:1;"/><line style="stroke:#0F172A;stroke-width:1;" x1="1125.3457" x2="1177.3589" y1="633" y2="633"/><polygon fill="#0F172A" points="1173.3589,709.5,1177.3589,719.5,1181.3589,709.5,1177.3589,713.5" style="stroke:#0F172A;stroke-width:1;"/><line style="stroke:#0F172A;stroke-width:1;" x1="1177.3589" x2="1177.3589" y1="633" y2="798"/><line style="stroke:#0F172A;stroke-width:1;" x1="1177.3589" x2="1027.0625" y1="798" y2="798"/><line style="stroke:#0F172A;stroke-width:1;" x1="1027.0625" x2="1027.0625" y1="798" y2="833"/><polygon fill="#0F172A" points="1023.0625,823,1027.0625,833,1031.0625,823,1027.0625,827" style="stroke:#0F172A;stroke-width:1;"/><line style="stroke:#0F172A;stroke-width:1;" x1="1027.0625" x2="1027.0625" y1="930" y2="965"/><polygon fill="#0F172A" points="1023.0625,955,1027.0625,965,1031.0625,955,1027.0625,959" style="stroke:#0F172A;stroke-width:1;"/><line style="stroke:#0F172A;stroke-width:1;" x1="1027.0625" x2="1027.0625" y1="857" y2="882"/><polygon fill="#0F172A" points="1023.0625,872,1027.0625,882,1031.0625,872,1027.0625,876" style="stroke:#0F172A;stroke-width:1;"/><line style="stroke:#0F172A;stroke-width:1;" x1="1159.5835" x2="1184.0205" y1="845" y2="845"/><polygon fill="#0F172A" points="1180.0205,921.5,1184.0205,931.5,1188.0205,921.5,1184.0205,925.5" style="stroke:#0F172A;stroke-width:1;"/><line style="stroke:#0F172A;stroke-width:1;" x1="1184.0205" x2="1184.0205" y1="845" y2="1017"/><line style="stroke:#0F172A;stroke-width:1;" x1="1184.0205" x2="1027.0625" y1="1017" y2="1017"/><line style="stroke:#0F172A;stroke-width:1;" x1="1027.0625" x2="1027.0625" y1="1017" y2="1095"/><polygon fill="#0F172A" points="1023.0625,1085,1027.0625,1095,1031.0625,1085,1027.0625,1089" style="stroke:#0F172A;stroke-width:1;"/><line style="stroke:#0F172A;stroke-width:1;" x1="1027.0625" x2="1027.0625" y1="1260" y2="1281.5"/><polygon fill="#0F172A" points="1023.0625,1271.5,1027.0625,1281.5,1031.0625,1271.5,1027.0625,1275.5" style="stroke:#0F172A;stroke-width:1;"/><line style="stroke:#0F172A;stroke-width:1;" x1="1027.0625" x2="1027.0625" y1="1187" y2="1212"/><polygon fill="#0F172A" points="1023.0625,1202,1027.0625,1212,1031.0625,1202,1027.0625,1206" style="stroke:#0F172A;stroke-width:1;"/><line style="stroke:#0F172A;stroke-width:1;" x1="1164.6455" x2="1188.2861" y1="1175" y2="1175"/><polygon fill="#0F172A" points="1184.2861,1251.5,1188.2861,1261.5,1192.2861,1251.5,1188.2861,1255.5" style="stroke:#0F172A;stroke-width:1;"/><line style="stroke:#0F172A;stroke-width:1;" x1="1188.2861" x2="1188.2861" y1="1175" y2="1325.5"/><line style="stroke:#0F172A;stroke-width:1;" x1="1188.2861" x2="1027.0625" y1="1325.5" y2="1325.5"/><line style="stroke:#0F172A;stroke-width:1;" x1="1027.0625" x2="1027.0625" y1="1325.5" y2="1345.5"/><polygon fill="#0F172A" points="1023.0625,1335.5,1027.0625,1345.5,1031.0625,1335.5,1027.0625,1339.5" style="stroke:#0F172A;stroke-width:1;"/><line style="stroke:#0F172A;stroke-width:1;" x1="1027.0625" x2="1027.0625" y1="1143" y2="1163"/><polygon fill="#0F172A" points="1023.0625,1153,1027.0625,1163,1031.0625,1153,1027.0625,1157" style="stroke:#0F172A;stroke-width:1;"/><line style="stroke:#0F172A;stroke-width:1;" x1="904.6348" x2="876.7012" y1="1357.5" y2="1357.5"/><line style="stroke:#0F172A;stroke-width:1;" x1="876.7012" x2="876.7012" y1="1357.5" y2="1379.5"/><polygon fill="#0F172A" points="872.7012,1369.5,876.7012,1379.5,880.7012,1369.5,876.7012,1373.5" style="stroke:#0F172A;stroke-width:1;"/><line style="stroke:#0F172A;stroke-width:1;" x1="1149.4902" x2="1177.4238" y1="1357.5" y2="1357.5"/><line style="stroke:#0F172A;stroke-width:1;" x1="1177.4238" x2="1177.4238" y1="1357.5" y2="1379.5"/><polygon fill="#0F172A" points="1173.4238,1369.5,1177.4238,1379.5,1181.4238,1369.5,1177.4238,1373.5" style="stroke:#0F172A;stroke-width:1;"/><line style="stroke:#0F172A;stroke-width:1;" x1="876.7012" x2="876.7012" y1="1427.5" y2="1445.5"/><line style="stroke:#0F172A;stroke-width:1;" x1="876.7012" x2="1015.0625" y1="1445.5" y2="1445.5"/><polygon fill="#0F172A" points="1005.0625,1441.5,1015.0625,1445.5,1005.0625,1449.5,1009.0625,1445.5" style="stroke:#0F172A;stroke-width:1;"/><line style="stroke:#0F172A;stroke-width:1;" x1="1177.4238" x2="1177.4238" y1="1413.5" y2="1445.5"/><line style="stroke:#0F172A;stroke-width:1;" x1="1177.4238" x2="1039.0625" y1="1445.5" y2="1445.5"/><polygon fill="#0F172A" points="1049.0625,1441.5,1039.0625,1445.5,1049.0625,1449.5,1045.0625,1445.5" style="stroke:#0F172A;stroke-width:1;"/><line style="stroke:#0F172A;stroke-width:1;" x1="1027.0625" x2="1027.0625" y1="1457.5" y2="1477.5"/><polygon fill="#0F172A" points="1023.0625,1467.5,1027.0625,1477.5,1031.0625,1467.5,1027.0625,1471.5" style="stroke:#0F172A;stroke-width:1;"/><line style="stroke:#0F172A;stroke-width:1;" x1="1027.0625" x2="1027.0625" y1="1595.5" y2="1615.5"/><polygon fill="#0F172A" points="1023.0625,1605.5,1027.0625,1615.5,1031.0625,1605.5,1027.0625,1609.5" style="stroke:#0F172A;stroke-width:1;"/><line style="stroke:#0F172A;stroke-width:1;" x1="1027.0625" x2="1027.0625" y1="1649.5" y2="1669.5"/><polygon fill="#0F172A" points="1023.0625,1659.5,1027.0625,1669.5,1031.0625,1659.5,1027.0625,1663.5" style="stroke:#0F172A;stroke-width:1;"/><line style="stroke:#0F172A;stroke-width:1;" x1="1027.0625" x2="1027.0625" y1="1717.5" y2="1737.5"/><polygon fill="#0F172A" points="1023.0625,1727.5,1027.0625,1737.5,1031.0625,1727.5,1027.0625,1731.5" style="stroke:#0F172A;stroke-width:1;"/><line style="stroke:#0F172A;stroke-width:1;" x1="609.2271" x2="339.7441" y1="565" y2="565"/><line style="stroke:#0F172A;stroke-width:1;" x1="339.7441" x2="339.7441" y1="565" y2="621"/><polygon fill="#0F172A" points="335.7441,611,339.7441,621,343.7441,611,339.7441,615" style="stroke:#0F172A;stroke-width:1;"/><line style="stroke:#0F172A;stroke-width:1;" x1="757.5796" x2="1027.0625" y1="565" y2="565"/><line style="stroke:#0F172A;stroke-width:1;" x1="1027.0625" x2="1027.0625" y1="565" y2="621"/><polygon fill="#0F172A" points="1023.0625,611,1027.0625,621,1031.0625,611,1027.0625,615" style="stroke:#0F172A;stroke-width:1;"/><line style="stroke:#0F172A;stroke-width:1;" x1="1027.0625" x2="1027.0625" y1="1771.5" y2="1788.5"/><line style="stroke:#0F172A;stroke-width:1;" x1="1027.0625" x2="683.4033" y1="1788.5" y2="1788.5"/><line style="stroke:#0F172A;stroke-width:1;" x1="683.4033" x2="683.4033" y1="1788.5" y2="2004.5"/><polygon fill="#0F172A" points="679.4033,1994.5,683.4033,2004.5,687.4033,1994.5,683.4033,1998.5" style="stroke:#0F172A;stroke-width:1;"/><line style="stroke:#0F172A;stroke-width:1;" x1="683.4033" x2="683.4033" y1="521" y2="553"/><polygon fill="#0F172A" points="679.4033,543,683.4033,553,687.4033,543,683.4033,547" style="stroke:#0F172A;stroke-width:1;"/><?plantuml-src jLVRRjiu47tNLn3PbnQmasPxNHl58dNIDa3H1BcqBmO2MXp9t4YabgISzIxwxtjuaImxGPDzM1H1HN4qd3bpvd1iRwLgkE4riqikz9rK9IjuPIcp_Sw2vxUbqQqICrrfmtufSlmJ0mj11Myhzr4hzvNNn3vJjI8dS_wmpQNyczZXgy4cDqRV9UylYiEtlmw_LDhHXtin5CLRyMRNIXj19baiNhr--UAt7Gj_VDf_-VBLuUlNW_tWFjT6aM67Rp8dNKNiA7To9TsQZPcsxQArlAI3CpnT-wUPhflMaGYBex8qL78ixJ2rpi4_6Ni0odS5BtA_CmmzGS1OiGctVoSahxKIzn2XN-bTyM9WCFHuA5wHUBVP_FY0O-kuSRlsrFllxHPyn-kFB7oQ8M609hLYUsSBIsP5Z2l1FaWbzf3-vD9RiSBem3P3WXMLlfkhk3X0Q2KGimTnFJQKQvNBYiOTXljsLKwpoGLn0JvPwLqyMWluRoWVCMU063v0hAwren2Qe8eSCQaSAJVDPC6UxLqbEoH8VpMLpALZPxDJ9WLiV24RGnQFl-yzPsv9YZrRatsUJJwHyskMjyPWEtm3IzsQdDXAyhc2nQFHJZD2zx5dIZ_tYLfT1HGHYhJET-UMMxS40yhbN7t1xgE-MMlXOQuAMJaobkMmGqLgH7iZnIWWGy1tPWWF8PdxISJDny-w0pHpfJG-HzCiq4erT_cIIGjMWxKuvnn18Evma8cf1jZpS8JOGdskK2ITYWUGb905Y1SgTXohQEZFbYm-tAdCW9RHCf0nVTHmjmGk19h4Dq_8J3eWxayB17noQP7QKmlbDC8v-N9oTNACAg5W1k0X0r-Sk8pKzKdz7-UtmBoQgrXzdY_9iXJET0lol2AksYRqKY4Lhw3i1f_WDKXispodU-K0gskzYlJQVCCBKBBhHq_CcDrMEq0_rcnHwT2U8SG-0B2cz-LhinN0W2_MwMRWSa2DBxAWV0r_R5PnQsM1wyllUBA4b3qOeKCW5qZHcNLWjILtFy50n4Z8bj0A4B7KIZMNoiB3N9rVd7qxlJmz-thwzTE8NPyV7rs5fm0qdgOfs13vRWGePkiicYFcQ44PRafozduihZNAAqYhacdHLgpNLjzuk9OVglZHxEhqsybM63-6Y7aPNeVI7njPEFOPZnK49hJNB6WBiKgkOkenS5xw_6FBoxhH1dJpWaGLXBar1SyfCUoZXkIC5Tq5HG3feSH104KuJ80dkNk8N7_WVJ9QKA5DFBvkNIWdnCVul-Wx7RqhXVUXlsoR66nmvEl-yp2EcgPQi-j6F4KhvqehMFl8EkyfB25jK_7rZS9KjTqAjx8982ezriqcEozd7Tid5orU6Bq2JGnRKjNu_xI-nO5HOj-xeXFt_QZh5savcgl1tdSkCRYPxzhS9cv_XmQUO6WpNT7dAkhqUqVetL3gt4VqVdPnSkHrOuus5JjdHdowCs4I-tze4eMcCmctYizxhi9j4iPL3zKOvLXHp1zt9UN0sKvx-dTDuY7sg4Lgzw-xY-_SwC2UNjlZTRCZRuq65TTUPHp8F0wTCqugZR4bvZ1DCe3srwaA5d0Wu14BG8GdQ5uDltunHNF5kWNk-M6L6LakNPPcfJGUJRB_D2vbWw7BPvwSRVg_dq-HPEOd9HdIx8apNiHnQ7PnVJnYTs32A9e6QCPDXCnpJtWyAWkc6ThFS4yvewiA7g3OlDeSr0NEk11PXVi81leM8evoEWncbi1E5s6MX1SHqMoPg1P7DzrGQEOQhalUsFsC6yYMMpU42HNScB1FX54-J19-69Le-Pehj9x9yZuu57-JyuC0UKfb_ixlJZE-ulYLe-_WtYvbivyb_vFDRuJCLcqvMEUfzyE23tufu8U2c3m-nMwocx2ooskycrSioa7FrSc6oWVPJ_cQfSjgyXIkPhsgXCwnapIoiU6TDetVKjPTRTFkUkzkkCpsgXhKTBAbTuWeD6CIyI1n2A_NxgIHsRPq1qAnI2YqIiwBGbVYfg_3pUCL-Ubud7LN4PA6R5CMUEW9cDQNwKXM0sxapvaNzoaAWSoyWe590_wD0_qmRFIqYf2cj3tIjVRjjU_L8Vo6_HS0?></g></svg>