<?plantuml 1.2026.1?><svg xmlns="http://www.w3.org/2000/svg" xmlns:xlink="http://www.w3.org/1999/xlink" contentStyleType="text/css" data-diagram-type="ACTIVITY" height="1413px" preserveAspectRatio="none" style="width:717px;height:1413px;background:#FCFCFD;" version="1.1" viewBox="0 0 717 1413" width="717px" zoomAndPan="magnify"><title>Activity - core/ComputeGlobalImageCapabilitySchema</title><defs/><g><rect fill="#FCFCFD" height="1413" style="stroke:none;stroke-width:1;" width="717" x="0" y="0"/><g class="title" data-source-line="10"><text fill="#000000" font-family="Helvetica" font-size="14" font-weight="bold" lengthAdjust="spacing" textLength="361.7578" x="176.3326" y="30.7803">Activity - core/ComputeGlobalImageCapabilitySchema</text></g><ellipse cx="334.3831" cy="55" fill="#1D4ED8" rx="10" ry="10" style="stroke:#222222;stroke-width:1;"/><rect fill="#F8FAFC" height="48" rx="8" ry="8" style="stroke:#0F172A;stroke-width:0.5;" width="304.7852" x="181.9905" y="85"/><text fill="#0F172A" font-family="Helvetica" font-size="14" lengthAdjust="spacing" textLength="136.9375" x="191.9905" y="105.7803">Start from shared flow</text><text fill="#0F172A" font-family="Helvetica" font-size="14" lengthAdjust="spacing" textLength="284.7852" x="191.9905" y="119.7803">shared/diagrams/shared-reconcile-activity.svg</text><rect fill="#F8FAFC" height="62" rx="8" ry="8" style="stroke:#0F172A;stroke-width:0.5;" width="329.7295" x="169.5183" y="153"/><text fill="#0F172A" font-family="Helvetica" font-size="14" lengthAdjust="spacing" textLength="80.9512" x="179.5183" y="173.7803">Load desired</text><text fill="#0F172A" font-family="Helvetica" font-size="14" lengthAdjust="spacing" textLength="309.7295" x="179.5183" y="187.7803">ComputeGlobalImageCapabilitySchema spec and</text><text fill="#0F172A" font-family="Helvetica" font-size="14" lengthAdjust="spacing" textLength="144.7373" x="179.5183" y="201.7803">status from Kubernetes</text><rect fill="#F8FAFC" height="76" rx="8" ry="8" style="stroke:#0F172A;stroke-width:0.5;" width="320.3711" x="174.1975" y="235"/><text fill="#0F172A" font-family="Helvetica" font-size="14" lengthAdjust="spacing" textLength="135.3857" x="184.1975" y="255.7803">Resolve OCI state via</text><text fill="#0F172A" font-family="Helvetica" font-size="14" lengthAdjust="spacing" textLength="300.3711" x="184.1975" y="269.7803">GetComputeGlobalImageCapabilitySchema with</text><text fill="#0F172A" font-family="Helvetica" font-size="14" lengthAdjust="spacing" textLength="270.8057" x="184.1975" y="283.7803">ListComputeGlobalImageCapabilitySchema</text><text fill="#0F172A" font-family="Helvetica" font-size="14" lengthAdjust="spacing" textLength="47.4688" x="184.1975" y="297.7803">fallback</text><rect fill="#F8FAFC" height="76" rx="8" ry="8" style="stroke:#0F172A;stroke-width:0.5;" width="347.6328" x="160.5667" y="331"/><text fill="#0F172A" font-family="Helvetica" font-size="14" lengthAdjust="spacing" textLength="24.8965" x="170.5667" y="351.7803">Use</text><text fill="#0F172A" font-family="Helvetica" font-size="14" lengthAdjust="spacing" textLength="327.6328" x="170.5667" y="365.7803">scaffold_core_computeglobalimagecapabilityschema</text><text fill="#0F172A" font-family="Helvetica" font-size="14" lengthAdjust="spacing" textLength="297.2402" x="170.5667" y="379.7803">filters compartment_id, state when OCID lookup</text><text fill="#0F172A" font-family="Helvetica" font-size="14" lengthAdjust="spacing" textLength="259.9023" x="170.5667" y="393.7803">or bind-versus-create needs list resolution</text><polygon fill="#E2E8F0" points="280.6936,427,388.0725,427,400.0725,439,388.0725,451,280.6936,451,268.6936,439,280.6936,427" style="stroke:#1D4ED8;stroke-width:0.5;"/><text fill="#0F172A" font-family="Helvetica" font-size="14" lengthAdjust="spacing" textLength="107.3789" x="280.6936" y="442.7803">Resource exists?</text><text fill="#000000" font-family="Helvetica" font-size="14" lengthAdjust="spacing" textLength="21.7861" x="246.9075" y="435.7803">yes</text><text fill="#000000" font-family="Helvetica" font-size="14" lengthAdjust="spacing" textLength="15.5723" x="400.0725" y="435.7803">no</text><rect fill="#F8FAFC" height="48" rx="8" ry="8" style="stroke:#0F172A;stroke-width:0.5;" width="314.1641" x="11" y="461"/><text fill="#0F172A" font-family="Helvetica" font-size="14" lengthAdjust="spacing" textLength="108.1787" x="21" y="481.7803">Update path calls</text><text fill="#0F172A" font-family="Helvetica" font-size="14" lengthAdjust="spacing" textLength="294.1641" x="21" y="495.7803">UpdateComputeGlobalImageCapabilitySchema</text><rect fill="#F8FAFC" height="48" rx="8" ry="8" style="stroke:#0F172A;stroke-width:0.5;" width="266.7021" x="34.731" y="529"/><text fill="#0F172A" font-family="Helvetica" font-size="14" lengthAdjust="spacing" textLength="246.7021" x="44.731" y="549.7803">Guard mutable fields display_name and</text><text fill="#0F172A" font-family="Helvetica" font-size="14" lengthAdjust="spacing" textLength="202.3096" x="44.731" y="563.7803">force-new fields compartment_id</text><rect fill="#F8FAFC" height="48" rx="8" ry="8" style="stroke:#0F172A;stroke-width:0.5;" width="311.04" x="345.1641" y="461"/><text fill="#0F172A" font-family="Helvetica" font-size="14" lengthAdjust="spacing" textLength="105.0547" x="355.1641" y="481.7803">Create path calls</text><text fill="#0F172A" font-family="Helvetica" font-size="14" lengthAdjust="spacing" textLength="291.04" x="355.1641" y="495.7803">CreateComputeGlobalImageCapabilitySchema</text><polygon fill="#E2E8F0" points="334.3831,583,346.3831,595,334.3831,607,322.3831,595,334.3831,583" style="stroke:#1D4ED8;stroke-width:0.5;"/><rect fill="#F8FAFC" height="104" rx="8" ry="8" style="stroke:#0F172A;stroke-width:0.5;" width="334.3164" x="167.2249" y="627"/><text fill="#0F172A" font-family="Helvetica" font-size="14" lengthAdjust="spacing" textLength="164.2061" x="177.2249" y="647.7803">Run provider helper hooks</text><text fill="#0F172A" font-family="Helvetica" font-size="14" lengthAdjust="spacing" textLength="219.0508" x="177.2249" y="661.7803">create=tfresource.CreateResource,</text><text fill="#0F172A" font-family="Helvetica" font-size="14" lengthAdjust="spacing" textLength="314.3164" x="177.2249" y="675.7803">tfresource.WaitForWorkRequestWithErrorHandling</text><text fill="#0F172A" font-family="Helvetica" font-size="14" lengthAdjust="spacing" textLength="215.5439" x="177.2249" y="689.7803">entity=template action=CREATED;</text><text fill="#0F172A" font-family="Helvetica" font-size="14" lengthAdjust="spacing" textLength="226.085" x="177.2249" y="703.7803">update=tfresource.UpdateResource;</text><text fill="#0F172A" font-family="Helvetica" font-size="14" lengthAdjust="spacing" textLength="212.8438" x="177.2249" y="717.7803">delete=tfresource.DeleteResource</text><rect fill="#F8FAFC" height="34" rx="8" ry="8" style="stroke:#0F172A;stroke-width:0.5;" width="263.5918" x="202.5872" y="751"/><text fill="#0F172A" font-family="Helvetica" font-size="14" lengthAdjust="spacing" textLength="243.5918" x="212.5872" y="771.7803">Apply repo-authored secret policy none</text><rect fill="#F8FAFC" height="104" rx="8" ry="8" style="stroke:#0F172A;stroke-width:0.5;" width="338.2744" x="165.2458" y="805"/><text fill="#0F172A" font-family="Helvetica" font-size="14" lengthAdjust="spacing" textLength="105.0684" x="175.2458" y="825.7803">Delete path uses</text><text fill="#0F172A" font-family="Helvetica" font-size="14" lengthAdjust="spacing" textLength="318.2744" x="175.2458" y="839.7803">DeleteComputeGlobalImageCapabilitySchema with</text><text fill="#0F172A" font-family="Helvetica" font-size="14" lengthAdjust="spacing" textLength="73.1514" x="175.2458" y="853.7803">required via</text><text fill="#0F172A" font-family="Helvetica" font-size="14" lengthAdjust="spacing" textLength="287.9229" x="175.2458" y="867.7803">GetComputeGlobalImageCapabilitySchema or</text><text fill="#0F172A" font-family="Helvetica" font-size="14" lengthAdjust="spacing" textLength="286.3711" x="175.2458" y="881.7803">ListComputeGlobalImageCapabilitySchema to</text><text fill="#0F172A" font-family="Helvetica" font-size="14" lengthAdjust="spacing" textLength="144.7168" x="175.2458" y="895.7803">DELETED confirmation</text><rect fill="#F8FAFC" height="48" rx="8" ry="8" style="stroke:#0F172A;stroke-width:0.5;" width="279.1299" x="194.8181" y="929"/><text fill="#0F172A" font-family="Helvetica" font-size="14" lengthAdjust="spacing" textLength="259.1299" x="204.8181" y="949.7803">Project required status and finalizer policy</text><text fill="#0F172A" font-family="Helvetica" font-size="14" lengthAdjust="spacing" textLength="174.3027" x="204.8181" y="963.7803">retain-until-confirmed-delete</text><rect fill="#F8FAFC" height="34" rx="8" ry="8" style="stroke:#0F172A;stroke-width:0.5;" width="313.4189" x="177.6736" y="997"/><text fill="#0F172A" font-family="Helvetica" font-size="14" lengthAdjust="spacing" textLength="293.4189" x="187.6736" y="1017.7803">Requeue on provisioning, updating, terminating</text><path d="M365.3831,1041 L365.3831,1217 L345.3831,1221 L365.3831,1225 L365.3831,1401 A0,0 0 0 0 365.3831,1401 L705.4231,1401 A0,0 0 0 0 705.4231,1401 L705.4231,1051 L695.4231,1041 L365.3831,1041 A0,0 0 0 0 365.3831,1041" fill="#FFF7D6" style="stroke:#B45309;stroke-width:0.5;"/><path d="M695.4231,1041 L695.4231,1051 L705.4231,1051 L695.4231,1041" fill="#FFF7D6" style="stroke:#B45309;stroke-width:0.5;"/><text fill="#334155" font-family="Helvetica" font-size="14" lengthAdjust="spacing" textLength="101.165" x="371.3831" y="1056.7803">shared diagram:</text><text fill="#334155" font-family="Helvetica" font-size="14" lengthAdjust="spacing" textLength="284.7852" x="371.3831" y="1070.7803">shared/diagrams/shared-reconcile-activity.svg</text><text fill="#334155" font-family="Helvetica" font-size="14" lengthAdjust="spacing" textLength="265.3438" x="371.3831" y="1084.7803">Start from the shared reconcile activity and</text><text fill="#334155" font-family="Helvetica" font-size="14" lengthAdjust="spacing" textLength="273.8955" x="371.3831" y="1098.7803">specialize provider-backed CRUD, wait, and</text><text fill="#334155" font-family="Helvetica" font-size="14" lengthAdjust="spacing" textLength="182.875" x="371.3831" y="1112.7803">status-projection details here.</text><text fill="#334155" font-family="Helvetica" font-size="14" lengthAdjust="spacing" textLength="229.5371" x="371.3831" y="1126.7803">Controller-local activity diagrams add</text><text fill="#334155" font-family="Helvetica" font-size="14" lengthAdjust="spacing" textLength="238.8955" x="371.3831" y="1140.7803">list-lookup hints, secret policies, delete</text><text fill="#334155" font-family="Helvetica" font-size="14" lengthAdjust="spacing" textLength="200.0332" x="371.3831" y="1154.7803">handling, and open formal gaps.</text><text fill="#334155" font-family="Helvetica" font-size="14" lengthAdjust="spacing" textLength="281.709" x="371.3831" y="1168.7803">archetype batch: Generated service-manager</text><text fill="#334155" font-family="Helvetica" font-size="14" lengthAdjust="spacing" textLength="291.0469" x="371.3831" y="1182.7803">controllers specialize the shared reconcile path</text><text fill="#334155" font-family="Helvetica" font-size="14" lengthAdjust="spacing" textLength="189.8477" x="371.3831" y="1196.7803">with formal runtime ownership.</text><text fill="#334155" font-family="Helvetica" font-size="14" lengthAdjust="spacing" textLength="79.3584" x="371.3831" y="1210.7803">service: core</text><text fill="#334155" font-family="Helvetica" font-size="14" lengthAdjust="spacing" textLength="270.04" x="371.3831" y="1224.7803">slug: computeglobalimagecapabilityschema</text><text fill="#334155" font-family="Helvetica" font-size="14" lengthAdjust="spacing" textLength="282.4814" x="371.3831" y="1238.7803">kind: ComputeGlobalImageCapabilitySchema</text><text fill="#334155" font-family="Helvetica" font-size="14" lengthAdjust="spacing" textLength="241.2402" x="371.3831" y="1252.7803">archetype: generated-service-manager</text><text fill="#334155" font-family="Helvetica" font-size="14" lengthAdjust="spacing" textLength="156.4063" x="371.3831" y="1266.7803">status/finalizer: required /</text><text fill="#334155" font-family="Helvetica" font-size="14" lengthAdjust="spacing" textLength="174.3027" x="371.3831" y="1280.7803">retain-until-confirmed-delete</text><text fill="#334155" font-family="Helvetica" font-size="14" lengthAdjust="spacing" textLength="272.3984" x="371.3831" y="1294.7803">requeue: provisioning, updating, terminating</text><text fill="#334155" font-family="Helvetica" font-size="14" lengthAdjust="spacing" textLength="295.6816" x="371.3831" y="1308.7803">provider states: create PROVISIONING; update</text><text fill="#334155" font-family="Helvetica" font-size="14" lengthAdjust="spacing" textLength="192.165" x="371.3831" y="1322.7803">UPDATING; delete DELETING</text><text fill="#334155" font-family="Helvetica" font-size="14" lengthAdjust="spacing" textLength="319.04" x="371.3831" y="1336.7803">mutable/forceNew: display_name / compartment_id</text><text fill="#334155" font-family="Helvetica" font-size="14" lengthAdjust="spacing" textLength="104.3164" x="371.3831" y="1350.7803">open gaps: none</text><text fill="#334155" font-family="Helvetica" font-size="14" lengthAdjust="spacing" textLength="224.9023" x="371.3831" y="1364.7803">Scaffold metadata only; replace with</text><text fill="#334155" font-family="Helvetica" font-size="14" lengthAdjust="spacing" textLength="244.3232" x="371.3831" y="1378.7803">controller-specific runtime states before</text><text fill="#334155" font-family="Helvetica" font-size="14" lengthAdjust="spacing" textLength="66.1445" x="371.3831" y="1392.7803">promotion.</text><ellipse cx="334.3831" cy="1221" fill="none" rx="11" ry="11" style="stroke:#222222;stroke-width:1;"/><ellipse cx="334.3831" cy="1221" fill="#222222" rx="6" ry="6" style="stroke:#222222;stroke-width:1;"/><line style="stroke:#0F172A;stroke-width:1;" x1="334.3831" x2="334.3831" y1="65" y2="85"/><polygon fill="#0F172A" points="330.3831,75,334.3831,85,338.3831,75,334.3831,79" style="stroke:#0F172A;stroke-width:1;"/><line style="stroke:#0F172A;stroke-width:1;" x1="334.3831" x2="334.3831" y1="133" y2="153"/><polygon fill="#0F172A" points="330.3831,143,334.3831,153,338.3831,143,334.3831,147" style="stroke:#0F172A;stroke-width:1;"/><line style="stroke:#0F172A;stroke-width:1;" x1="334.3831" x2="334.3831" y1="215" y2="235"/><polygon fill="#0F172A" points="330.3831,225,334.3831,235,338.3831,225,334.3831,229" style="stroke:#0F172A;stroke-width:1;"/><line style="stroke:#0F172A;stroke-width:1;" x1="334.3831" x2="334.3831" y1="311" y2="331"/><polygon fill="#0F172A" points="330.3831,321,334.3831,331,338.3831,321,334.3831,325" style="stroke:#0F172A;stroke-width:1;"/><line style="stroke:#0F172A;stroke-width:1;" x1="168.082" x2="168.082" y1="509" y2="529"/><polygon fill="#0F172A" points="164.082,519,168.082,529,172.082,519,168.082,523" style="stroke:#0F172A;stroke-width:1;"/><line style="stroke:#0F172A;stroke-width:1;" x1="268.6936" x2="168.082" y1="439" y2="439"/><line style="stroke:#0F172A;stroke-width:1;" x1="168.082" x2="168.082" y1="439" y2="461"/><polygon fill="#0F172A" points="164.082,451,168.082,461,172.082,451,168.082,455" style="stroke:#0F172A;stroke-width:1;"/><line style="stroke:#0F172A;stroke-width:1;" x1="400.0725" x2="500.6841" y1="439" y2="439"/><line style="stroke:#0F172A;stroke-width:1;" x1="500.6841" x2="500.6841" y1="439" y2="461"/><polygon fill="#0F172A" points="496.6841,451,500.6841,461,504.6841,451,500.6841,455" style="stroke:#0F172A;stroke-width:1;"/><line style="stroke:#0F172A;stroke-width:1;" x1="168.082" x2="168.082" y1="577" y2="595"/><line style="stroke:#0F172A;stroke-width:1;" x1="168.082" x2="322.3831" y1="595" y2="595"/><polygon fill="#0F172A" points="312.3831,591,322.3831,595,312.3831,599,316.3831,595" style="stroke:#0F172A;stroke-width:1;"/><line style="stroke:#0F172A;stroke-width:1;" x1="500.6841" x2="500.6841" y1="509" y2="595"/><line style="stroke:#0F172A;stroke-width:1;" x1="500.6841" x2="346.3831" y1="595" y2="595"/><polygon fill="#0F172A" points="356.3831,591,346.3831,595,356.3831,599,352.3831,595" style="stroke:#0F172A;stroke-width:1;"/><line style="stroke:#0F172A;stroke-width:1;" x1="334.3831" x2="334.3831" y1="407" y2="427"/><polygon fill="#0F172A" points="330.3831,417,334.3831,427,338.3831,417,334.3831,421" style="stroke:#0F172A;stroke-width:1;"/><line style="stroke:#0F172A;stroke-width:1;" x1="334.3831" x2="334.3831" y1="607" y2="627"/><polygon fill="#0F172A" points="330.3831,617,334.3831,627,338.3831,617,334.3831,621" style="stroke:#0F172A;stroke-width:1;"/><line style="stroke:#0F172A;stroke-width:1;" x1="334.3831" x2="334.3831" y1="731" y2="751"/><polygon fill="#0F172A" points="330.3831,741,334.3831,751,338.3831,741,334.3831,745" style="stroke:#0F172A;stroke-width:1;"/><line style="stroke:#0F172A;stroke-width:1;" x1="334.3831" x2="334.3831" y1="785" y2="805"/><polygon fill="#0F172A" points="330.3831,795,334.3831,805,338.3831,795,334.3831,799" style="stroke:#0F172A;stroke-width:1;"/><line style="stroke:#0F172A;stroke-width:1;" x1="334.3831" x2="334.3831" y1="909" y2="929"/><polygon fill="#0F172A" points="330.3831,919,334.3831,929,338.3831,919,334.3831,923" style="stroke:#0F172A;stroke-width:1;"/><line style="stroke:#0F172A;stroke-width:1;" x1="334.3831" x2="334.3831" y1="977" y2="997"/><polygon fill="#0F172A" points="330.3831,987,334.3831,997,338.3831,987,334.3831,991" style="stroke:#0F172A;stroke-width:1;"/><line style="stroke:#0F172A;stroke-width:1;" x1="334.3831" x2="334.3831" y1="1031" y2="1210"/><polygon fill="#0F172A" points="330.3831,1200,334.3831,1210,338.3831,1200,334.3831,1204" style="stroke:#0F172A;stroke-width:1;"/><?plantuml-src bLPXJniv4FtkNs7flb0fcq2XBRSHEd61KbG42Chn9H9oTcSJ7rvxp_Ocbvxklz_pUhCi51sfa0Ynn-DvRzuyunwbheGL9NSBaPkLr7DU2EM8kMvd9hB7kJMrpYT66Sj_AJByvBs8d0fHA__PQ7yfIk9VI2t9oqoy7dChlnFVE-Xj2clDgis-M-nzUjy_gOsdtt-eeIW-vHzVHXcRasqZPWSVzdT_VH4Hhc_tz_SFzZvywEqtwJDZDLc-zv5vwHNnuypBfVHhdd1iqMXYoghsTARCJAZpKinf8Yenamenjzc2odxbOdFu7yPVeV6m44KMTlfbj_0vBvvAxTPoAKgZyn_OeFTqMEps0lePz_83oW-VDZ-_ajXvOVtBUEhoTt4pyIBhlwmvojBRyC4BQnefMSfveSnggkEN4UwUWn8tYjyJIvdHcLIKR4WQkkLypD8B8tA8nKb4JVNRT7DNKSQ5HZ0gyRMBDNojPuHEUdB8UKFEG97yQd8Ua7hYIocc-epy5lbNqY-c-aAwBOAd6iEZGgTnwvqZr9I9eZ0gVmZgmQycmxp984E6hClWDXcaycGT3x6Wj2Jj7sG-Q0jVBKW772TS6VDOLrEDPioapfCb3jKkoIo5E4sKEwvGDRS1VUsbqMCc2xuJsAXjHfp-nhRxxHtt8UdEcjmxL5tbuNmb_89d0EEcEYwzZHwOpsfXSrxMNimmF8KaXIfowIebrWywU4FJgSBW_aJJQXFo7EoO4Io8xsY3WYOHKB-WkBHDGP2mB220MlFAcgN4LF05gIfyW3_aYdmT-SAsj0nZzWrBWwdkxTqB2GkpzyO-tj1VDJb_3tcSmhxi5o1JyC-f1WYKSEIf16oK7XHkzD7avlJus-d9UAhhXj3-dP7YpPq8oKdHyv2JPgKBOUbnLQarkbkPHDH-OSBCEG8UpokZPBQ6u-aG64z61cj701rNjXQ_1TGmZpypDiPkEpJS6rHqUd4ASY04380jHPHhUctDdvG53RSLj3CEhY4TZI7wZbP6kA5EBwHEQl2laZOJl2PosVW0MbOJDwqQ72v1nmQyQKZp5qQlHDxmPGnhCnKBpmQtShxmh3MsrijIzbFUndeEYO7Rk6GN_FHQ01mBhYORU9rma-0hE36vkJiPy1MKE8YX3IL95Qa29DWdU50EIhSqP1FulJLA8OCocA2dYpQ5Sv7dB7X54as5BwJsRl1CJPAm49baYrRgpVtSL70FJ7I9r7DHkI4J5etrwuhmNlXiaV8pmgCAWGU1sgN4x9T2GmgMPLrnZlSmlqfG430BYjpSPaEduIbcXVHk8QiXQ_EdpMlDdAhdAN_RTHcUx3pbMppk7RIKppUWafUWOaT6dK3J9_sEsF-AbDaeqNGRWRBEqfgtmG5fzChhcwi_pc_FhoxFBy_6yIonk-kJus_DGhoADoE71TRQzQXnvKjQfSyTU_J2dLdJyD3fj74OTjk-SRm4DDo5uTTgFGxMf0JUcT2oNgEJfi-5pBh-nVBvZ8hGDA0gJT3nCDXtys_RVm00?></g></svg>