<?plantuml 1.2026.1?><svg xmlns="http://www.w3.org/2000/svg" xmlns:xlink="http://www.w3.org/1999/xlink" contentStyleType="text/css" data-diagram-type="ACTIVITY" height="1357px" preserveAspectRatio="none" style="width:660px;height:1357px;background:#FCFCFD;" version="1.1" viewBox="0 0 660 1357" width="660px" zoomAndPan="magnify"><title>Activity - core/CoreInstancePoolInstance</title><defs/><g><rect fill="#FCFCFD" height="1357" style="stroke:none;stroke-width:1;" width="660" x="0" y="0"/><g class="title" data-source-line="10"><text fill="#000000" font-family="Helvetica" font-size="14" font-weight="bold" lengthAdjust="spacing" textLength="272.3027" x="192.6611" y="30.7803">Activity - core/CoreInstancePoolInstance</text></g><ellipse cx="277.585" cy="55" fill="#1D4ED8" rx="10" ry="10" style="stroke:#222222;stroke-width:1;"/><rect fill="#F8FAFC" height="48" rx="8" ry="8" style="stroke:#0F172A;stroke-width:0.5;" width="304.7852" x="125.1924" y="85"/><text fill="#0F172A" font-family="Helvetica" font-size="14" lengthAdjust="spacing" textLength="136.9375" x="135.1924" y="105.7803">Start from shared flow</text><text fill="#0F172A" font-family="Helvetica" font-size="14" lengthAdjust="spacing" textLength="284.7852" x="135.1924" y="119.7803">shared/diagrams/shared-reconcile-activity.svg</text><rect fill="#F8FAFC" height="48" rx="8" ry="8" style="stroke:#0F172A;stroke-width:0.5;" width="329.7637" x="112.7031" y="153"/><text fill="#0F172A" font-family="Helvetica" font-size="14" lengthAdjust="spacing" textLength="309.7637" x="122.7031" y="173.7803">Load desired CoreInstancePoolInstance spec and</text><text fill="#0F172A" font-family="Helvetica" font-size="14" lengthAdjust="spacing" textLength="144.7373" x="122.7031" y="187.7803">status from Kubernetes</text><rect fill="#F8FAFC" height="62" rx="8" ry="8" style="stroke:#0F172A;stroke-width:0.5;" width="257.3574" x="148.9063" y="221"/><text fill="#0F172A" font-family="Helvetica" font-size="14" lengthAdjust="spacing" textLength="135.3857" x="158.9063" y="241.7803">Resolve OCI state via</text><text fill="#0F172A" font-family="Helvetica" font-size="14" lengthAdjust="spacing" textLength="215.5645" x="158.9063" y="255.7803">GetCoreInstancePoolInstance with</text><text fill="#0F172A" font-family="Helvetica" font-size="14" lengthAdjust="spacing" textLength="237.3574" x="158.9063" y="269.7803">ListCoreInstancePoolInstance fallback</text><rect fill="#F8FAFC" height="62" rx="8" ry="8" style="stroke:#0F172A;stroke-width:0.5;" width="317.2402" x="118.9648" y="303"/><text fill="#0F172A" font-family="Helvetica" font-size="14" lengthAdjust="spacing" textLength="277.833" x="128.9648" y="323.7803">Use scaffold_core_coreinstancepoolinstance</text><text fill="#0F172A" font-family="Helvetica" font-size="14" lengthAdjust="spacing" textLength="297.2402" x="128.9648" y="337.7803">filters compartment_id, state when OCID lookup</text><text fill="#0F172A" font-family="Helvetica" font-size="14" lengthAdjust="spacing" textLength="259.9023" x="128.9648" y="351.7803">or bind-versus-create needs list resolution</text><polygon fill="#E2E8F0" points="223.8955,385,331.2744,385,343.2744,397,331.2744,409,223.8955,409,211.8955,397,223.8955,385" style="stroke:#1D4ED8;stroke-width:0.5;"/><text fill="#0F172A" font-family="Helvetica" font-size="14" lengthAdjust="spacing" textLength="107.3789" x="223.8955" y="400.7803">Resource exists?</text><text fill="#000000" font-family="Helvetica" font-size="14" lengthAdjust="spacing" textLength="21.7861" x="190.1094" y="393.7803">yes</text><text fill="#000000" font-family="Helvetica" font-size="14" lengthAdjust="spacing" textLength="15.5723" x="343.2744" y="393.7803">no</text><rect fill="#F8FAFC" height="48" rx="8" ry="8" style="stroke:#0F172A;stroke-width:0.5;" width="229.3574" x="29.6724" y="419"/><text fill="#0F172A" font-family="Helvetica" font-size="14" lengthAdjust="spacing" textLength="108.1787" x="39.6724" y="439.7803">Update path calls</text><text fill="#0F172A" font-family="Helvetica" font-size="14" lengthAdjust="spacing" textLength="209.3574" x="39.6724" y="453.7803">UpdateCoreInstancePoolInstance</text><rect fill="#F8FAFC" height="48" rx="8" ry="8" style="stroke:#0F172A;stroke-width:0.5;" width="266.7021" x="11" y="487"/><text fill="#0F172A" font-family="Helvetica" font-size="14" lengthAdjust="spacing" textLength="246.7021" x="21" y="507.7803">Guard mutable fields display_name and</text><text fill="#0F172A" font-family="Helvetica" font-size="14" lengthAdjust="spacing" textLength="202.3096" x="21" y="521.7803">force-new fields compartment_id</text><rect fill="#F8FAFC" height="48" rx="8" ry="8" style="stroke:#0F172A;stroke-width:0.5;" width="226.2334" x="297.7021" y="419"/><text fill="#0F172A" font-family="Helvetica" font-size="14" lengthAdjust="spacing" textLength="105.0547" x="307.7021" y="439.7803">Create path calls</text><text fill="#0F172A" font-family="Helvetica" font-size="14" lengthAdjust="spacing" textLength="206.2334" x="307.7021" y="453.7803">CreateCoreInstancePoolInstance</text><polygon fill="#E2E8F0" points="277.585,541,289.585,553,277.585,565,265.585,553,277.585,541" style="stroke:#1D4ED8;stroke-width:0.5;"/><rect fill="#F8FAFC" height="104" rx="8" ry="8" style="stroke:#0F172A;stroke-width:0.5;" width="334.3164" x="110.4268" y="585"/><text fill="#0F172A" font-family="Helvetica" font-size="14" lengthAdjust="spacing" textLength="164.2061" x="120.4268" y="605.7803">Run provider helper hooks</text><text fill="#0F172A" font-family="Helvetica" font-size="14" lengthAdjust="spacing" textLength="219.0508" x="120.4268" y="619.7803">create=tfresource.CreateResource,</text><text fill="#0F172A" font-family="Helvetica" font-size="14" lengthAdjust="spacing" textLength="314.3164" x="120.4268" y="633.7803">tfresource.WaitForWorkRequestWithErrorHandling</text><text fill="#0F172A" font-family="Helvetica" font-size="14" lengthAdjust="spacing" textLength="215.5439" x="120.4268" y="647.7803">entity=template action=CREATED;</text><text fill="#0F172A" font-family="Helvetica" font-size="14" lengthAdjust="spacing" textLength="226.085" x="120.4268" y="661.7803">update=tfresource.UpdateResource;</text><text fill="#0F172A" font-family="Helvetica" font-size="14" lengthAdjust="spacing" textLength="212.8438" x="120.4268" y="675.7803">delete=tfresource.DeleteResource</text><rect fill="#F8FAFC" height="34" rx="8" ry="8" style="stroke:#0F172A;stroke-width:0.5;" width="263.5918" x="145.7891" y="709"/><text fill="#0F172A" font-family="Helvetica" font-size="14" lengthAdjust="spacing" textLength="243.5918" x="155.7891" y="729.7803">Apply repo-authored secret policy none</text><rect fill="#F8FAFC" height="90" rx="8" ry="8" style="stroke:#0F172A;stroke-width:0.5;" width="308.7227" x="123.2236" y="763"/><text fill="#0F172A" font-family="Helvetica" font-size="14" lengthAdjust="spacing" textLength="105.0684" x="133.2236" y="783.7803">Delete path uses</text><text fill="#0F172A" font-family="Helvetica" font-size="14" lengthAdjust="spacing" textLength="288.7227" x="133.2236" y="797.7803">DeleteCoreInstancePoolInstance with required</text><text fill="#0F172A" font-family="Helvetica" font-size="14" lengthAdjust="spacing" textLength="224.9023" x="133.2236" y="811.7803">via GetCoreInstancePoolInstance or</text><text fill="#0F172A" font-family="Helvetica" font-size="14" lengthAdjust="spacing" textLength="270.0264" x="133.2236" y="825.7803">ListCoreInstancePoolInstance to DELETED</text><text fill="#0F172A" font-family="Helvetica" font-size="14" lengthAdjust="spacing" textLength="76.2549" x="133.2236" y="839.7803">confirmation</text><rect fill="#F8FAFC" height="48" rx="8" ry="8" style="stroke:#0F172A;stroke-width:0.5;" width="279.1299" x="138.02" y="873"/><text fill="#0F172A" font-family="Helvetica" font-size="14" lengthAdjust="spacing" textLength="259.1299" x="148.02" y="893.7803">Project required status and finalizer policy</text><text fill="#0F172A" font-family="Helvetica" font-size="14" lengthAdjust="spacing" textLength="174.3027" x="148.02" y="907.7803">retain-until-confirmed-delete</text><rect fill="#F8FAFC" height="34" rx="8" ry="8" style="stroke:#0F172A;stroke-width:0.5;" width="313.4189" x="120.8755" y="941"/><text fill="#0F172A" font-family="Helvetica" font-size="14" lengthAdjust="spacing" textLength="293.4189" x="130.8755" y="961.7803">Requeue on provisioning, updating, terminating</text><path d="M308.585,985 L308.585,1161 L288.585,1165 L308.585,1169 L308.585,1345 A0,0 0 0 0 308.585,1345 L648.625,1345 A0,0 0 0 0 648.625,1345 L648.625,995 L638.625,985 L308.585,985 A0,0 0 0 0 308.585,985" fill="#FFF7D6" style="stroke:#B45309;stroke-width:0.5;"/><path d="M638.625,985 L638.625,995 L648.625,995 L638.625,985" fill="#FFF7D6" style="stroke:#B45309;stroke-width:0.5;"/><text fill="#334155" font-family="Helvetica" font-size="14" lengthAdjust="spacing" textLength="101.165" x="314.585" y="1000.7803">shared diagram:</text><text fill="#334155" font-family="Helvetica" font-size="14" lengthAdjust="spacing" textLength="284.7852" x="314.585" y="1014.7803">shared/diagrams/shared-reconcile-activity.svg</text><text fill="#334155" font-family="Helvetica" font-size="14" lengthAdjust="spacing" textLength="265.3438" x="314.585" y="1028.7803">Start from the shared reconcile activity and</text><text fill="#334155" font-family="Helvetica" font-size="14" lengthAdjust="spacing" textLength="273.8955" x="314.585" y="1042.7803">specialize provider-backed CRUD, wait, and</text><text fill="#334155" font-family="Helvetica" font-size="14" lengthAdjust="spacing" textLength="182.875" x="314.585" y="1056.7803">status-projection details here.</text><text fill="#334155" font-family="Helvetica" font-size="14" lengthAdjust="spacing" textLength="229.5371" x="314.585" y="1070.7803">Controller-local activity diagrams add</text><text fill="#334155" font-family="Helvetica" font-size="14" lengthAdjust="spacing" textLength="238.8955" x="314.585" y="1084.7803">list-lookup hints, secret policies, delete</text><text fill="#334155" font-family="Helvetica" font-size="14" lengthAdjust="spacing" textLength="200.0332" x="314.585" y="1098.7803">handling, and open formal gaps.</text><text fill="#334155" font-family="Helvetica" font-size="14" lengthAdjust="spacing" textLength="281.709" x="314.585" y="1112.7803">archetype batch: Generated service-manager</text><text fill="#334155" font-family="Helvetica" font-size="14" lengthAdjust="spacing" textLength="291.0469" x="314.585" y="1126.7803">controllers specialize the shared reconcile path</text><text fill="#334155" font-family="Helvetica" font-size="14" lengthAdjust="spacing" textLength="189.8477" x="314.585" y="1140.7803">with formal runtime ownership.</text><text fill="#334155" font-family="Helvetica" font-size="14" lengthAdjust="spacing" textLength="79.3584" x="314.585" y="1154.7803">service: core</text><text fill="#334155" font-family="Helvetica" font-size="14" lengthAdjust="spacing" textLength="191.4541" x="314.585" y="1168.7803">slug: coreinstancepoolinstance</text><text fill="#334155" font-family="Helvetica" font-size="14" lengthAdjust="spacing" textLength="197.6748" x="314.585" y="1182.7803">kind: CoreInstancePoolInstance</text><text fill="#334155" font-family="Helvetica" font-size="14" lengthAdjust="spacing" textLength="241.2402" x="314.585" y="1196.7803">archetype: generated-service-manager</text><text fill="#334155" font-family="Helvetica" font-size="14" lengthAdjust="spacing" textLength="156.4063" x="314.585" y="1210.7803">status/finalizer: required /</text><text fill="#334155" font-family="Helvetica" font-size="14" lengthAdjust="spacing" textLength="174.3027" x="314.585" y="1224.7803">retain-until-confirmed-delete</text><text fill="#334155" font-family="Helvetica" font-size="14" lengthAdjust="spacing" textLength="272.3984" x="314.585" y="1238.7803">requeue: provisioning, updating, terminating</text><text fill="#334155" font-family="Helvetica" font-size="14" lengthAdjust="spacing" textLength="295.6816" x="314.585" y="1252.7803">provider states: create PROVISIONING; update</text><text fill="#334155" font-family="Helvetica" font-size="14" lengthAdjust="spacing" textLength="192.165" x="314.585" y="1266.7803">UPDATING; delete DELETING</text><text fill="#334155" font-family="Helvetica" font-size="14" lengthAdjust="spacing" textLength="319.04" x="314.585" y="1280.7803">mutable/forceNew: display_name / compartment_id</text><text fill="#334155" font-family="Helvetica" font-size="14" lengthAdjust="spacing" textLength="104.3164" x="314.585" y="1294.7803">open gaps: none</text><text fill="#334155" font-family="Helvetica" font-size="14" lengthAdjust="spacing" textLength="224.9023" x="314.585" y="1308.7803">Scaffold metadata only; replace with</text><text fill="#334155" font-family="Helvetica" font-size="14" lengthAdjust="spacing" textLength="244.3232" x="314.585" y="1322.7803">controller-specific runtime states before</text><text fill="#334155" font-family="Helvetica" font-size="14" lengthAdjust="spacing" textLength="66.1445" x="314.585" y="1336.7803">promotion.</text><ellipse cx="277.585" cy="1165" fill="none" rx="11" ry="11" style="stroke:#222222;stroke-width:1;"/><ellipse cx="277.585" cy="1165" fill="#222222" rx="6" ry="6" style="stroke:#222222;stroke-width:1;"/><line style="stroke:#0F172A;stroke-width:1;" x1="277.585" x2="277.585" y1="65" y2="85"/><polygon fill="#0F172A" points="273.585,75,277.585,85,281.585,75,277.585,79" style="stroke:#0F172A;stroke-width:1;"/><line style="stroke:#0F172A;stroke-width:1;" x1="277.585" x2="277.585" y1="133" y2="153"/><polygon fill="#0F172A" points="273.585,143,277.585,153,281.585,143,277.585,147" style="stroke:#0F172A;stroke-width:1;"/><line style="stroke:#0F172A;stroke-width:1;" x1="277.585" x2="277.585" y1="201" y2="221"/><polygon fill="#0F172A" points="273.585,211,277.585,221,281.585,211,277.585,215" style="stroke:#0F172A;stroke-width:1;"/><line style="stroke:#0F172A;stroke-width:1;" x1="277.585" x2="277.585" y1="283" y2="303"/><polygon fill="#0F172A" points="273.585,293,277.585,303,281.585,293,277.585,297" style="stroke:#0F172A;stroke-width:1;"/><line style="stroke:#0F172A;stroke-width:1;" x1="144.3511" x2="144.3511" y1="467" y2="487"/><polygon fill="#0F172A" points="140.3511,477,144.3511,487,148.3511,477,144.3511,481" style="stroke:#0F172A;stroke-width:1;"/><line style="stroke:#0F172A;stroke-width:1;" x1="211.8955" x2="144.3511" y1="397" y2="397"/><line style="stroke:#0F172A;stroke-width:1;" x1="144.3511" x2="144.3511" y1="397" y2="419"/><polygon fill="#0F172A" points="140.3511,409,144.3511,419,148.3511,409,144.3511,413" style="stroke:#0F172A;stroke-width:1;"/><line style="stroke:#0F172A;stroke-width:1;" x1="343.2744" x2="410.8188" y1="397" y2="397"/><line style="stroke:#0F172A;stroke-width:1;" x1="410.8188" x2="410.8188" y1="397" y2="419"/><polygon fill="#0F172A" points="406.8188,409,410.8188,419,414.8188,409,410.8188,413" style="stroke:#0F172A;stroke-width:1;"/><line style="stroke:#0F172A;stroke-width:1;" x1="144.3511" x2="144.3511" y1="535" y2="553"/><line style="stroke:#0F172A;stroke-width:1;" x1="144.3511" x2="265.585" y1="553" y2="553"/><polygon fill="#0F172A" points="255.585,549,265.585,553,255.585,557,259.585,553" style="stroke:#0F172A;stroke-width:1;"/><line style="stroke:#0F172A;stroke-width:1;" x1="410.8188" x2="410.8188" y1="467" y2="553"/><line style="stroke:#0F172A;stroke-width:1;" x1="410.8188" x2="289.585" y1="553" y2="553"/><polygon fill="#0F172A" points="299.585,549,289.585,553,299.585,557,295.585,553" style="stroke:#0F172A;stroke-width:1;"/><line style="stroke:#0F172A;stroke-width:1;" x1="277.585" x2="277.585" y1="365" y2="385"/><polygon fill="#0F172A" points="273.585,375,277.585,385,281.585,375,277.585,379" style="stroke:#0F172A;stroke-width:1;"/><line style="stroke:#0F172A;stroke-width:1;" x1="277.585" x2="277.585" y1="565" y2="585"/><polygon fill="#0F172A" points="273.585,575,277.585,585,281.585,575,277.585,579" style="stroke:#0F172A;stroke-width:1;"/><line style="stroke:#0F172A;stroke-width:1;" x1="277.585" x2="277.585" y1="689" y2="709"/><polygon fill="#0F172A" points="273.585,699,277.585,709,281.585,699,277.585,703" style="stroke:#0F172A;stroke-width:1;"/><line style="stroke:#0F172A;stroke-width:1;" x1="277.585" x2="277.585" y1="743" y2="763"/><polygon fill="#0F172A" points="273.585,753,277.585,763,281.585,753,277.585,757" style="stroke:#0F172A;stroke-width:1;"/><line style="stroke:#0F172A;stroke-width:1;" x1="277.585" x2="277.585" y1="853" y2="873"/><polygon fill="#0F172A" points="273.585,863,277.585,873,281.585,863,277.585,867" style="stroke:#0F172A;stroke-width:1;"/><line style="stroke:#0F172A;stroke-width:1;" x1="277.585" x2="277.585" y1="921" y2="941"/><polygon fill="#0F172A" points="273.585,931,277.585,941,281.585,931,277.585,935" style="stroke:#0F172A;stroke-width:1;"/><line style="stroke:#0F172A;stroke-width:1;" x1="277.585" x2="277.585" y1="975" y2="1154"/><polygon fill="#0F172A" points="273.585,1144,277.585,1154,281.585,1144,277.585,1148" style="stroke:#0F172A;stroke-width:1;"/><?plantuml-src bLPXJoCt4FtkNs6fNpWfcy31tT6DK4KJZaE70C5HlaH2pkviukArzsnlqhJgV-_pUfCi7A6ja9ADFPwPz-RvBUv9wafOKN8t5xbPIZtZXL2EcDliJ4NsDBEcrld8A6FvJqM6lxmJaLCXQkK_6-slH4dy2wa5UPc9rsFkv9_43uuwcy9QisopxnS7dzvtJshZwTSVUYYAJ_d7br76vcJRYEdHXyFzdrz4XFBj_k7XqS673vtz9drch2RB3puoBxqYVffvkP1-nHEEBHgCy76XdHSwenjZrFgv2sPzv2_6No7lk1155dQwpRQWEI-s3MxMSYbAe_CVEA3tT5piTmAw6G_o8ygFjvkVNqcCrgr_6K-R_9kugNYHzM_M76NfNVZYXJMDW2pbl51cET7nnm2rPw343UBln59cT2OL9MkI-cun6xBqqeWS4d4ofDZ5CNSLPLpeV18MVErYuQ_rb30qJmw9RiaPY8zVZou2F4zy8SL4dvFVcNKf_NoYBwNR7O8heS8aKU3UeOzC58LH-MEGHFCXsyWAfzRF4rr8vSawAAU4D7n9sZ_AlDSsjfoJ3dsEkJBcgQuc6WnFfSwJ1GxLBiaiXJXDb3kkq1-t0LtjfT539Wk-5z3M5WtI7zXslxpZFYJTMv5xXrQhF9olX9_p30ZSHCUbNJW1xxmMDkTbxSKKwYyaATJEfQkKM3tgSBaR_Wk3geccvJhaESGX8tW8tzC6ROmYZ6uRSMbt6z2WB33CMlFAceM4hFcSL1M-m1KoH6vEV65R2lenvvgHtaHtzXw4XFFO1sEVRkbxJSu_OEXdS1tx1NWmijb4etK8yiHJ2R1eE4ZKw9FHxTdfjxFnSABhXhnkpKZdkYP2SbBqF6JSh6n2M7fQLMg5ILOc4RMVcw1uHy3ZUGNnP2iObGw1yMJahNO4q77bJI4ZyVSwtAA9Xl3vMxetzbzKxmqVdrsU0JpuDb2pBKNKNdfZpU-K-Kqrtbv8a0b5QA5WyRR5Cz709gHEQX2iaZOJt22IrLnQpAH6H-su7OfW93tUCDuyuHwLo1j-364-fcB1phcLixbdhVMqRfEo_-K-hEDXk3rh7zi4R_qSu5Ym8Dd0soWp2SuGRElsVjpZIqYj5qCRIf8gKWL8C3Zme1oaRAdFHd1aQvH21cLmCRQ5rerpaUSiNFmaEWIVI-rTxvbS964XCidchPQR-jnKi09Sr1AfPw9oVIPiDYU_gWYExhDv2ddWPGS51mNQXSILBeKMCx8ispJdU0VpgmG5XR96V6qr6oODgp1Bf7TpMVLPcpzjtgBCgNeM7rypJePNQPxkV0riOQHyjWQGl0GGsHzin9XkjJfWRmgIsIZ7zB-8aMtygJ5r1rJHxcvkht-xkBkulhguEX_6iyJkRyQdtvg5M2hUBoomrd47ZR5UqJ9zRhg35mRBck66gQQDNR2xzfN4Iq13BO7Bf5R3u3DAjDxG6MhIpBIGsMPMiNq-fI8C2AXA4pJR3rxS_Elq3m00?></g></svg>