<?plantuml 1.2026.1?><svg xmlns="http://www.w3.org/2000/svg" xmlns:xlink="http://www.w3.org/1999/xlink" contentStyleType="text/css" data-diagram-type="SEQUENCE" height="1978px" preserveAspectRatio="none" style="width:1227px;height:1978px;background:#FCFCFD;" version="1.1" viewBox="0 0 1227 1978" width="1227px" zoomAndPan="magnify"><title>Sequence - core/CoreNatGateway</title><defs/><g><rect fill="#FCFCFD" height="1978" style="stroke:none;stroke-width:1;" width="1227" x="0" y="0"/><text fill="#000000" font-family="Helvetica" font-size="14" font-weight="bold" lengthAdjust="spacing" textLength="224.082" x="507.9377" y="25.7803">Sequence - core/CoreNatGateway</text><rect fill="none" height="290" rx="8" ry="8" style="stroke:#CBD5E1;stroke-width:1.5;" width="738.3779" x="466.2939" y="314"/><rect fill="none" height="146" rx="8" ry="8" style="stroke:#CBD5E1;stroke-width:1.5;" width="475.9575" x="718.7144" y="423"/><rect fill="none" height="44" rx="8" ry="8" style="stroke:#CBD5E1;stroke-width:1.5;" width="455.9575" x="728.7144" y="474"/><rect fill="none" height="812" rx="8" ry="8" style="stroke:#CBD5E1;stroke-width:1.5;" width="774.6636" x="446.2939" y="618"/><rect fill="none" height="260" rx="8" ry="8" style="stroke:#CBD5E1;stroke-width:1.5;" width="738.3779" x="456.2939" y="641"/><rect fill="none" height="58" rx="8" ry="8" style="stroke:#CBD5E1;stroke-width:1.5;" width="455.9575" x="728.7144" y="734"/><rect fill="none" height="88" rx="8" ry="8" style="stroke:#CBD5E1;stroke-width:1.5;" width="438.813" x="466.2939" y="806"/><rect fill="none" height="378" rx="8" ry="8" style="stroke:#CBD5E1;stroke-width:1.5;" width="754.6636" x="456.2939" y="1003"/><rect fill="none" height="44" rx="8" ry="8" style="stroke:#CBD5E1;stroke-width:1.5;" width="438.813" x="466.2939" y="1102"/><rect fill="none" height="116" rx="8" ry="8" style="stroke:#CBD5E1;stroke-width:1.5;" width="475.9575" x="718.7144" y="1160"/><rect fill="none" height="44" rx="8" ry="8" style="stroke:#CBD5E1;stroke-width:1.5;" width="455.9575" x="728.7144" y="1225"/><g class="participant-lifeline" data-entity-uid="part1" data-qualified-name="Kubernetes" id="part1-lifeline"><g><title>Kubernetes</title><rect fill="#000000" fill-opacity="0.00000" height="1857" width="8" x="39.8032" y="114"/><line style="stroke:#94A3B8;stroke-width:0.5;stroke-dasharray:5,5;" x1="43" x2="43" y1="114" y2="1971"/></g></g><g class="participant-lifeline" data-entity-uid="part2" data-qualified-name="Controller" id="part2-lifeline"><g><title>Controller</title><rect fill="#000000" fill-opacity="0.00000" height="1857" width="8" x="289.4917" y="114"/><line style="stroke:#94A3B8;stroke-width:0.5;stroke-dasharray:5,5;" x1="293.147" x2="293.147" y1="114" y2="1971"/></g></g><g class="participant-lifeline" data-entity-uid="part3" data-qualified-name="BaseReconciler" id="part3-lifeline"><g><title>BaseReconciler</title><rect fill="#000000" fill-opacity="0.00000" height="1857" width="8" x="528.3179" y="114"/><line style="stroke:#94A3B8;stroke-width:0.5;stroke-dasharray:5,5;" x1="532.2939" x2="532.2939" y1="114" y2="1971"/></g></g><g class="participant-lifeline" data-entity-uid="part4" data-qualified-name="ServiceManager" id="part4-lifeline"><g><title>OSOKServiceManager</title><rect fill="#000000" fill-opacity="0.00000" height="1857" width="8" x="812.9106" y="114"/><line style="stroke:#94A3B8;stroke-width:0.5;stroke-dasharray:5,5;" x1="816.7144" x2="816.7144" y1="114" y2="1971"/></g></g><g class="participant-lifeline" data-entity-uid="part5" data-qualified-name="OCI" id="part5-lifeline"><g><title>OCI</title><rect fill="#000000" fill-opacity="0.00000" height="1857" width="8" x="1151.2271" y="114"/><line style="stroke:#94A3B8;stroke-width:0.5;stroke-dasharray:5,5;" x1="1154.7822" x2="1154.7822" y1="114" y2="1971"/></g></g><g class="participant participant-head" data-entity-uid="part1" data-qualified-name="Kubernetes" id="part1-head"><text fill="#000000" font-family="Helvetica" font-size="14" lengthAdjust="spacing" textLength="71.6064" x="5" y="110.7803">Kubernetes</text><ellipse cx="43.8032" cy="48.5" fill="#E2E8F0" rx="8" ry="8" style="stroke:#0F172A;stroke-width:0.5;"/><path d="M43.8032,56.5 L43.8032,83.5 M30.8032,64.5 L56.8032,64.5 M43.8032,83.5 L30.8032,98.5 M43.8032,83.5 L56.8032,98.5" fill="none" style="stroke:#0F172A;stroke-width:0.5;"/></g><g class="participant participant-head" data-entity-uid="part2" data-qualified-name="Controller" id="part2-head"><rect fill="#E2E8F0" height="28" rx="8" ry="8" style="stroke:#0F172A;stroke-width:0.5;" width="74.6895" x="256.147" y="85"/><text fill="#0F172A" font-family="Helvetica" font-size="14" lengthAdjust="spacing" textLength="60.6895" x="263.147" y="102.7803">Controller</text></g><g class="participant participant-head" data-entity-uid="part3" data-qualified-name="BaseReconciler" id="part3-head"><rect fill="#E2E8F0" height="28" rx="8" ry="8" style="stroke:#0F172A;stroke-width:0.5;" width="112.0479" x="476.2939" y="85"/><text fill="#0F172A" font-family="Helvetica" font-size="14" lengthAdjust="spacing" textLength="98.0479" x="483.2939" y="102.7803">BaseReconciler</text></g><g class="participant participant-head" data-entity-uid="part4" data-qualified-name="ServiceManager" id="part4-head"><rect fill="#E2E8F0" height="28" rx="8" ry="8" style="stroke:#0F172A;stroke-width:0.5;" width="156.3926" x="738.7144" y="85"/><text fill="#0F172A" font-family="Helvetica" font-size="14" lengthAdjust="spacing" textLength="142.3926" x="745.7144" y="102.7803">OSOKServiceManager</text></g><g class="participant participant-head" data-entity-uid="part5" data-qualified-name="OCI" id="part5-head"><rect fill="#E2E8F0" height="28" rx="8" ry="8" style="stroke:#0F172A;stroke-width:0.5;" width="38.8896" x="1135.7822" y="85"/><text fill="#0F172A" font-family="Helvetica" font-size="14" lengthAdjust="spacing" textLength="24.8896" x="1142.7822" y="102.7803">OCI</text></g><path d="M467,137 L467,187 A8,8 0 0 0 475,195 L872,195 A8,8 0 0 0 880,187 L880,139 L870,129 L475,129 A8,8 0 0 0 467,137" fill="#FFF7D6" style="stroke:#B45309;stroke-width:0.5;"/><path d="M870,129 L870,135 A4,4 0 0 0 874,139 L880,139 L870,129" fill="#FFF7D6" style="stroke:#B45309;stroke-width:0.5;"/><text fill="#334155" font-family="Helvetica" font-size="14" lengthAdjust="spacing" textLength="111.2891" x="515.7107" y="144.7803">shared resolution:</text><text fill="#334155" font-family="Helvetica" font-size="14" lengthAdjust="spacing" textLength="307.3916" x="515.7107" y="158.7803">shared/diagrams/shared-resolution-sequence.svg</text><text fill="#334155" font-family="Helvetica" font-size="14" lengthAdjust="spacing" textLength="88.7305" x="515.7107" y="172.7803">shared delete:</text><text fill="#334155" font-family="Helvetica" font-size="14" lengthAdjust="spacing" textLength="284.833" x="515.7107" y="186.7803">shared/diagrams/shared-delete-sequence.svg</text><g class="message" data-entity-1="part1" data-entity-2="part2" id="msg1"><polygon fill="#0F172A" points="281.4917,216,291.4917,220,281.4917,224,285.4917,220" style="stroke:#0F172A;stroke-width:1;"/><line style="stroke:#0F172A;stroke-width:1;" x1="43.8032" x2="287.4917" y1="220" y2="220"/><text fill="#000000" font-family="Helvetica" font-size="14" lengthAdjust="spacing" textLength="225.6885" x="50.8032" y="214.7803">enqueue CoreNatGateway reconcile</text></g><g class="message" data-entity-1="part2" data-entity-2="part3" id="msg2"><polygon fill="#0F172A" points="520.3179,244,530.3179,248,520.3179,252,524.3179,248" style="stroke:#0F172A;stroke-width:1;"/><line style="stroke:#0F172A;stroke-width:1;" x1="293.4917" x2="526.3179" y1="248" y2="248"/><text fill="#000000" font-family="Helvetica" font-size="14" lengthAdjust="spacing" textLength="117.4961" x="300.4917" y="242.7803">Reconcile(request)</text></g><g class="message" data-entity-1="part3" data-entity-2="part4" id="msg3"><polygon fill="#0F172A" points="804.9106,272,814.9106,276,804.9106,280,808.9106,276" style="stroke:#0F172A;stroke-width:1;"/><line style="stroke:#0F172A;stroke-width:1;" x1="532.3179" x2="810.9106" y1="276" y2="276"/><text fill="#000000" font-family="Helvetica" font-size="14" lengthAdjust="spacing" textLength="217.1025" x="539.3179" y="270.7803">reconcile desired CoreNatGateway</text></g><path d="M474.2939,314 L527.6318,314 L527.6318,320 L517.6318,330 L466.2939,330 L466.2939,322 A8,8 0 0 1 474.2939,314" fill="#F8FAFC" style="stroke:#CBD5E1;stroke-width:1.5;"/><rect fill="none" height="290" rx="8" ry="8" style="stroke:#CBD5E1;stroke-width:1.5;" width="738.3779" x="466.2939" y="314"/><text fill="#000000" font-family="Helvetica" font-size="14" font-weight="bold" lengthAdjust="spacing" textLength="16.3379" x="481.2939" y="325.7803">alt</text><text fill="#000000" font-family="Helvetica" font-size="14" font-weight="bold" lengthAdjust="spacing" textLength="308.1094" x="542.6318" y="326.7803">[tracked or explicit OCI identity already exists]</text><g class="message" data-entity-1="part4" data-entity-2="part5" id="msg4"><polygon fill="#0F172A" points="1143.2271,346,1153.2271,350,1143.2271,354,1147.2271,350" style="stroke:#0F172A;stroke-width:1;"/><line style="stroke:#0F172A;stroke-width:1;" x1="816.9106" x2="1149.2271" y1="350" y2="350"/><text fill="#000000" font-family="Helvetica" font-size="14" lengthAdjust="spacing" textLength="129.9443" x="823.9106" y="344.7803">GetCoreNatGateway</text></g><line style="stroke:#CBD5E1;stroke-width:1;stroke-dasharray:2,2;" x1="466.2939" x2="1204.6719" y1="359" y2="359"/><text fill="#000000" font-family="Helvetica" font-size="14" font-weight="bold" lengthAdjust="spacing" textLength="185.1582" x="471.2939" y="369.7803">[tracked identity is missing]</text><g class="message" data-entity-1="part4" data-entity-2="part5" id="msg5"><polygon fill="#0F172A" points="1143.2271,404,1153.2271,408,1143.2271,412,1147.2271,408" style="stroke:#0F172A;stroke-width:1;"/><line style="stroke:#0F172A;stroke-width:1;" x1="816.9106" x2="1149.2271" y1="408" y2="408"/><text fill="#000000" font-family="Helvetica" font-size="14" lengthAdjust="spacing" textLength="171.165" x="823.9106" y="388.7803">ListCoreNatGateway(filters:</text><text fill="#000000" font-family="Helvetica" font-size="14" lengthAdjust="spacing" textLength="143.1719" x="823.9106" y="402.7803">compartment_id, state)</text></g><path d="M726.7144,423 L780.0522,423 L780.0522,429 L770.0522,439 L718.7144,439 L718.7144,431 A8,8 0 0 1 726.7144,423" fill="#F8FAFC" style="stroke:#CBD5E1;stroke-width:1.5;"/><rect fill="none" height="146" rx="8" ry="8" style="stroke:#CBD5E1;stroke-width:1.5;" width="475.9575" x="718.7144" y="423"/><text fill="#000000" font-family="Helvetica" font-size="14" font-weight="bold" lengthAdjust="spacing" textLength="16.3379" x="733.7144" y="434.7803">alt</text><text fill="#000000" font-family="Helvetica" font-size="14" font-weight="bold" lengthAdjust="spacing" textLength="242.7031" x="795.0522" y="435.7803">[reusable OCI resource is not found]</text><g class="message" data-entity-1="part4" data-entity-2="part5" id="msg6"><polygon fill="#0F172A" points="1143.2271,455,1153.2271,459,1143.2271,463,1147.2271,459" style="stroke:#0F172A;stroke-width:1;"/><line style="stroke:#0F172A;stroke-width:1;" x1="816.9106" x2="1149.2271" y1="459" y2="459"/><text fill="#000000" font-family="Helvetica" font-size="14" lengthAdjust="spacing" textLength="149.3994" x="823.9106" y="453.7803">CreateCoreNatGateway</text></g><path d="M736.7144,474 L803.2593,474 L803.2593,480 L793.2593,490 L728.7144,490 L728.7144,482 A8,8 0 0 1 736.7144,474" fill="#F8FAFC" style="stroke:#CBD5E1;stroke-width:1.5;"/><rect fill="none" height="44" rx="8" ry="8" style="stroke:#CBD5E1;stroke-width:1.5;" width="455.9575" x="728.7144" y="474"/><text fill="#000000" font-family="Helvetica" font-size="14" font-weight="bold" lengthAdjust="spacing" textLength="29.5449" x="743.7144" y="485.7803">loop</text><text fill="#000000" font-family="Helvetica" font-size="14" font-weight="bold" lengthAdjust="spacing" textLength="215.4756" x="818.2593" y="486.7803">[create pending PROVISIONING]</text><g class="message" data-entity-1="part4" data-entity-2="part5" id="msg7"><polygon fill="#0F172A" points="1143.2271,506,1153.2271,510,1143.2271,514,1147.2271,510" style="stroke:#0F172A;stroke-width:1;"/><line style="stroke:#0F172A;stroke-width:1;" x1="816.9106" x2="1149.2271" y1="510" y2="510"/><text fill="#000000" font-family="Helvetica" font-size="14" lengthAdjust="spacing" textLength="129.9443" x="823.9106" y="504.7803">GetCoreNatGateway</text></g><line style="stroke:#CBD5E1;stroke-width:1;stroke-dasharray:2,2;" x1="718.7144" x2="1194.6719" y1="526" y2="526"/><text fill="#000000" font-family="Helvetica" font-size="14" font-weight="bold" lengthAdjust="spacing" textLength="255.2334" x="723.7144" y="536.7803">[reusable OCI resource already exists]</text><g class="message" data-entity-1="part4" data-entity-2="part5" id="msg8"><polygon fill="#0F172A" points="1143.2271,557,1153.2271,561,1143.2271,565,1147.2271,561" style="stroke:#0F172A;stroke-width:1;"/><line style="stroke:#0F172A;stroke-width:1;" x1="816.9106" x2="1149.2271" y1="561" y2="561"/><text fill="#000000" font-family="Helvetica" font-size="14" lengthAdjust="spacing" textLength="129.9443" x="823.9106" y="555.7803">GetCoreNatGateway</text></g><g class="message" data-entity-1="part4" data-entity-2="part3" id="msg9"><polygon fill="#0F172A" points="543.3179,592,533.3179,596,543.3179,600,539.3179,596" style="stroke:#0F172A;stroke-width:1;"/><line style="stroke:#0F172A;stroke-width:1;stroke-dasharray:2,2;" x1="537.3179" x2="815.9106" y1="596" y2="596"/><text fill="#000000" font-family="Helvetica" font-size="14" lengthAdjust="spacing" textLength="231.0957" x="549.3179" y="590.7803">persist resolved OCI identity in status</text></g><path d="M454.2939,618 L507.6318,618 L507.6318,624 L497.6318,634 L446.2939,634 L446.2939,626 A8,8 0 0 1 454.2939,618" fill="#F8FAFC" style="stroke:#CBD5E1;stroke-width:1.5;"/><rect fill="none" height="812" rx="8" ry="8" style="stroke:#CBD5E1;stroke-width:1.5;" width="774.6636" x="446.2939" y="618"/><text fill="#000000" font-family="Helvetica" font-size="14" font-weight="bold" lengthAdjust="spacing" textLength="16.3379" x="461.2939" y="629.7803">alt</text><text fill="#000000" font-family="Helvetica" font-size="14" font-weight="bold" lengthAdjust="spacing" textLength="120.5859" x="522.6318" y="630.7803">[delete requested]</text><path d="M464.2939,641 L543.3145,641 L543.3145,647 L533.3145,657 L456.2939,657 L456.2939,649 A8,8 0 0 1 464.2939,641" fill="#F8FAFC" style="stroke:#CBD5E1;stroke-width:1.5;"/><rect fill="none" height="260" rx="8" ry="8" style="stroke:#CBD5E1;stroke-width:1.5;" width="738.3779" x="456.2939" y="641"/><text fill="#000000" font-family="Helvetica" font-size="14" font-weight="bold" lengthAdjust="spacing" textLength="42.0205" x="471.2939" y="652.7803">Delete</text><g class="message" data-entity-1="part4" data-entity-2="part5" id="msg10"><polygon fill="#0F172A" points="1143.2271,673,1153.2271,677,1143.2271,681,1147.2271,677" style="stroke:#0F172A;stroke-width:1;"/><line style="stroke:#0F172A;stroke-width:1;" x1="816.9106" x2="1149.2271" y1="677" y2="677"/><text fill="#000000" font-family="Helvetica" font-size="14" lengthAdjust="spacing" textLength="147.8477" x="823.9106" y="671.7803">DeleteCoreNatGateway</text></g><g class="message" data-entity-1="part4" data-entity-2="part5" id="msg11"><polygon fill="#0F172A" points="1143.2271,715,1153.2271,719,1143.2271,723,1147.2271,719" style="stroke:#0F172A;stroke-width:1;"/><line style="stroke:#0F172A;stroke-width:1;" x1="816.9106" x2="1149.2271" y1="719" y2="719"/><text fill="#000000" font-family="Helvetica" font-size="14" lengthAdjust="spacing" textLength="243.5508" x="823.9106" y="699.7803">confirm delete via GetCoreNatGateway</text><text fill="#000000" font-family="Helvetica" font-size="14" lengthAdjust="spacing" textLength="145.5029" x="823.9106" y="713.7803">or ListCoreNatGateway</text></g><path d="M736.7144,734 L803.2593,734 L803.2593,740 L793.2593,750 L728.7144,750 L728.7144,742 A8,8 0 0 1 736.7144,734" fill="#F8FAFC" style="stroke:#CBD5E1;stroke-width:1.5;"/><rect fill="none" height="58" rx="8" ry="8" style="stroke:#CBD5E1;stroke-width:1.5;" width="455.9575" x="728.7144" y="734"/><text fill="#000000" font-family="Helvetica" font-size="14" font-weight="bold" lengthAdjust="spacing" textLength="29.5449" x="743.7144" y="745.7803">loop</text><text fill="#000000" font-family="Helvetica" font-size="14" font-weight="bold" lengthAdjust="spacing" textLength="182.7793" x="818.2593" y="746.7803">[delete pending DELETING]</text><g class="message" data-entity-1="part4" data-entity-2="part5" id="msg12"><polygon fill="#0F172A" points="1143.2271,780,1153.2271,784,1143.2271,788,1147.2271,784" style="stroke:#0F172A;stroke-width:1;"/><line style="stroke:#0F172A;stroke-width:1;" x1="816.9106" x2="1149.2271" y1="784" y2="784"/><text fill="#000000" font-family="Helvetica" font-size="14" lengthAdjust="spacing" textLength="146.2822" x="823.9106" y="764.7803">GetCoreNatGateway or</text><text fill="#000000" font-family="Helvetica" font-size="14" lengthAdjust="spacing" textLength="129.165" x="823.9106" y="778.7803">ListCoreNatGateway</text></g><path d="M474.2939,806 L527.6318,806 L527.6318,812 L517.6318,822 L466.2939,822 L466.2939,814 A8,8 0 0 1 474.2939,806" fill="#F8FAFC" style="stroke:#CBD5E1;stroke-width:1.5;"/><rect fill="none" height="88" rx="8" ry="8" style="stroke:#CBD5E1;stroke-width:1.5;" width="438.813" x="466.2939" y="806"/><text fill="#000000" font-family="Helvetica" font-size="14" font-weight="bold" lengthAdjust="spacing" textLength="16.3379" x="481.2939" y="817.7803">alt</text><text fill="#000000" font-family="Helvetica" font-size="14" font-weight="bold" lengthAdjust="spacing" textLength="261.4268" x="542.6318" y="818.7803">[cleanup or finalizer release is blocked]</text><g class="message" data-entity-1="part4" data-entity-2="part3" id="msg13"><polygon fill="#0F172A" points="543.3179,838,533.3179,842,543.3179,846,539.3179,842" style="stroke:#0F172A;stroke-width:1;"/><line style="stroke:#0F172A;stroke-width:1;stroke-dasharray:2,2;" x1="537.3179" x2="815.9106" y1="842" y2="842"/><text fill="#000000" font-family="Helvetica" font-size="14" lengthAdjust="spacing" textLength="170.4336" x="549.3179" y="836.7803">retain delete state and retry</text></g><line style="stroke:#CBD5E1;stroke-width:1;stroke-dasharray:2,2;" x1="466.2939" x2="905.1069" y1="851" y2="851"/><text fill="#000000" font-family="Helvetica" font-size="14" font-weight="bold" lengthAdjust="spacing" textLength="194.4824" x="471.2939" y="861.7803">[delete completion observed]</text><g class="message" data-entity-1="part4" data-entity-2="part3" id="msg14"><polygon fill="#0F172A" points="543.3179,882,533.3179,886,543.3179,890,539.3179,886" style="stroke:#0F172A;stroke-width:1;"/><line style="stroke:#0F172A;stroke-width:1;stroke-dasharray:2,2;" x1="537.3179" x2="815.9106" y1="886" y2="886"/><text fill="#000000" font-family="Helvetica" font-size="14" lengthAdjust="spacing" textLength="243.5781" x="549.3179" y="880.7803">release finalizer after delete completion</text></g><line style="stroke:#CBD5E1;stroke-width:1;stroke-dasharray:2,2;" x1="446.2939" x2="1220.9575" y1="909" y2="909"/><text fill="#000000" font-family="Helvetica" font-size="14" font-weight="bold" lengthAdjust="spacing" textLength="149.3857" x="451.2939" y="919.7803">[OCI state is retryable]</text><g class="message" data-entity-1="part4" data-entity-2="part3" id="msg15"><polygon fill="#0F172A" points="543.3179,954,533.3179,958,543.3179,962,539.3179,958" style="stroke:#0F172A;stroke-width:1;"/><line style="stroke:#0F172A;stroke-width:1;stroke-dasharray:2,2;" x1="537.3179" x2="815.9106" y1="958" y2="958"/><text fill="#000000" font-family="Helvetica" font-size="14" lengthAdjust="spacing" textLength="184.4199" x="549.3179" y="938.7803">requeue while OCI remains in</text><text fill="#000000" font-family="Helvetica" font-size="14" lengthAdjust="spacing" textLength="260.5928" x="549.3179" y="952.7803">PROVISIONING, UPDATING, DELETING</text></g><line style="stroke:#CBD5E1;stroke-width:1;stroke-dasharray:2,2;" x1="446.2939" x2="1220.9575" y1="967" y2="967"/><text fill="#000000" font-family="Helvetica" font-size="14" font-weight="bold" lengthAdjust="spacing" textLength="200.751" x="451.2939" y="977.7803">[live state requires field-aware</text><text fill="#000000" font-family="Helvetica" font-size="14" font-weight="bold" lengthAdjust="spacing" textLength="105.0068" x="451.2939" y="991.7803">drift evaluation]</text><path d="M464.2939,1003 L592.2803,1003 L592.2803,1009 L582.2803,1019 L456.2939,1019 L456.2939,1011 A8,8 0 0 1 464.2939,1003" fill="#F8FAFC" style="stroke:#CBD5E1;stroke-width:1.5;"/><rect fill="none" height="378" rx="8" ry="8" style="stroke:#CBD5E1;stroke-width:1.5;" width="754.6636" x="456.2939" y="1003"/><text fill="#000000" font-family="Helvetica" font-size="14" font-weight="bold" lengthAdjust="spacing" textLength="90.9863" x="471.2939" y="1014.7803">Drift handling</text><path d="M770,1032 L770,1082 A8,8 0 0 0 778,1090 L1192,1090 A8,8 0 0 0 1200,1082 L1200,1034 L1190,1024 L778,1024 A8,8 0 0 0 770,1032" fill="#FFF7D6" style="stroke:#B45309;stroke-width:0.5;"/><path d="M1190,1024 L1190,1030 A4,4 0 0 0 1194,1034 L1200,1034 L1190,1024" fill="#FFF7D6" style="stroke:#B45309;stroke-width:0.5;"/><text fill="#334155" font-family="Helvetica" font-size="14" lengthAdjust="spacing" textLength="255.2813" x="853.3381" y="1039.7803">Supported update surface: display_name</text><text fill="#334155" font-family="Helvetica" font-size="14" lengthAdjust="spacing" textLength="235.7783" x="853.3381" y="1053.7803">Reject before mutate: force-new fields</text><text fill="#334155" font-family="Helvetica" font-size="14" lengthAdjust="spacing" textLength="100.3789" x="853.3381" y="1067.7803">compartment_id</text><text fill="#334155" font-family="Helvetica" font-size="14" lengthAdjust="spacing" textLength="229.5576" x="853.3381" y="1081.7803">Lookup filters: compartment_id, state</text><path d="M474.2939,1102 L533.0596,1102 L533.0596,1108 L523.0596,1118 L466.2939,1118 L466.2939,1110 A8,8 0 0 1 474.2939,1102" fill="#F8FAFC" style="stroke:#CBD5E1;stroke-width:1.5;"/><rect fill="none" height="44" rx="8" ry="8" style="stroke:#CBD5E1;stroke-width:1.5;" width="438.813" x="466.2939" y="1102"/><text fill="#000000" font-family="Helvetica" font-size="14" font-weight="bold" lengthAdjust="spacing" textLength="21.7656" x="481.2939" y="1113.7803">opt</text><text fill="#000000" font-family="Helvetica" font-size="14" font-weight="bold" lengthAdjust="spacing" textLength="276.1309" x="548.0596" y="1114.7803">[force-new or conflicting drift is detected]</text><g class="message" data-entity-1="part4" data-entity-2="part3" id="msg16"><polygon fill="#0F172A" points="543.3179,1134,533.3179,1138,543.3179,1142,539.3179,1138" style="stroke:#0F172A;stroke-width:1;"/><line style="stroke:#0F172A;stroke-width:1;stroke-dasharray:2,2;" x1="537.3179" x2="815.9106" y1="1138" y2="1138"/><text fill="#000000" font-family="Helvetica" font-size="14" lengthAdjust="spacing" textLength="164.1855" x="549.3179" y="1132.7803">reject before OCI mutation</text></g><path d="M726.7144,1160 L785.48,1160 L785.48,1166 L775.48,1176 L718.7144,1176 L718.7144,1168 A8,8 0 0 1 726.7144,1160" fill="#F8FAFC" style="stroke:#CBD5E1;stroke-width:1.5;"/><rect fill="none" height="116" rx="8" ry="8" style="stroke:#CBD5E1;stroke-width:1.5;" width="475.9575" x="718.7144" y="1160"/><text fill="#000000" font-family="Helvetica" font-size="14" font-weight="bold" lengthAdjust="spacing" textLength="21.7656" x="733.7144" y="1171.7803">opt</text><text fill="#000000" font-family="Helvetica" font-size="14" font-weight="bold" lengthAdjust="spacing" textLength="243.4619" x="800.48" y="1172.7803">[supported mutable drift is detected]</text><g class="message" data-entity-1="part4" data-entity-2="part5" id="msg17"><polygon fill="#0F172A" points="1143.2271,1206,1153.2271,1210,1143.2271,1214,1147.2271,1210" style="stroke:#0F172A;stroke-width:1;"/><line style="stroke:#0F172A;stroke-width:1;" x1="816.9106" x2="1149.2271" y1="1210" y2="1210"/><text fill="#000000" font-family="Helvetica" font-size="14" lengthAdjust="spacing" textLength="241.2334" x="823.9106" y="1190.7803">Apply UpdateCoreNatGateway only for</text><text fill="#000000" font-family="Helvetica" font-size="14" lengthAdjust="spacing" textLength="176.6543" x="823.9106" y="1204.7803">mutable fields display_name</text></g><path d="M736.7144,1225 L803.2593,1225 L803.2593,1231 L793.2593,1241 L728.7144,1241 L728.7144,1233 A8,8 0 0 1 736.7144,1225" fill="#F8FAFC" style="stroke:#CBD5E1;stroke-width:1.5;"/><rect fill="none" height="44" rx="8" ry="8" style="stroke:#CBD5E1;stroke-width:1.5;" width="455.9575" x="728.7144" y="1225"/><text fill="#000000" font-family="Helvetica" font-size="14" font-weight="bold" lengthAdjust="spacing" textLength="29.5449" x="743.7144" y="1236.7803">loop</text><text fill="#000000" font-family="Helvetica" font-size="14" font-weight="bold" lengthAdjust="spacing" textLength="190.5381" x="818.2593" y="1237.7803">[update pending UPDATING]</text><g class="message" data-entity-1="part4" data-entity-2="part5" id="msg18"><polygon fill="#0F172A" points="1143.2271,1257,1153.2271,1261,1143.2271,1265,1147.2271,1261" style="stroke:#0F172A;stroke-width:1;"/><line style="stroke:#0F172A;stroke-width:1;" x1="816.9106" x2="1149.2271" y1="1261" y2="1261"/><text fill="#000000" font-family="Helvetica" font-size="14" lengthAdjust="spacing" textLength="129.9443" x="823.9106" y="1255.7803">GetCoreNatGateway</text></g><g class="message" data-entity-1="part4" data-entity-2="part5" id="msg19"><polygon fill="#0F172A" points="1143.2271,1369,1153.2271,1373,1143.2271,1377,1147.2271,1373" style="stroke:#0F172A;stroke-width:1;"/><line style="stroke:#0F172A;stroke-width:1;" x1="816.9106" x2="1149.2271" y1="1373" y2="1373"/><text fill="#000000" font-family="Helvetica" font-size="14" lengthAdjust="spacing" textLength="104.2891" x="823.9106" y="1297.7803">run helper hooks</text><text fill="#000000" font-family="Helvetica" font-size="14" lengthAdjust="spacing" textLength="219.0508" x="823.9106" y="1311.7803">create=tfresource.CreateResource,</text><text fill="#000000" font-family="Helvetica" font-size="14" lengthAdjust="spacing" textLength="314.3164" x="823.9106" y="1325.7803">tfresource.WaitForWorkRequestWithErrorHandling</text><text fill="#000000" font-family="Helvetica" font-size="14" lengthAdjust="spacing" textLength="215.5439" x="823.9106" y="1339.7803">entity=template action=CREATED;</text><text fill="#000000" font-family="Helvetica" font-size="14" lengthAdjust="spacing" textLength="226.085" x="823.9106" y="1353.7803">update=tfresource.UpdateResource;</text><text fill="#000000" font-family="Helvetica" font-size="14" lengthAdjust="spacing" textLength="212.8438" x="823.9106" y="1367.7803">delete=tfresource.DeleteResource</text></g><g class="message" data-entity-1="part4" data-entity-2="part3" id="msg20"><polygon fill="#0F172A" points="543.3179,1418,533.3179,1422,543.3179,1426,539.3179,1422" style="stroke:#0F172A;stroke-width:1;"/><line style="stroke:#0F172A;stroke-width:1;stroke-dasharray:2,2;" x1="537.3179" x2="815.9106" y1="1422" y2="1422"/><text fill="#000000" font-family="Helvetica" font-size="14" lengthAdjust="spacing" textLength="100.7822" x="549.3179" y="1402.7803">status=required,</text><text fill="#000000" font-family="Helvetica" font-size="14" lengthAdjust="spacing" textLength="230.7197" x="549.3179" y="1416.7803">finalizer=retain-until-confirmed-delete</text></g><g class="message" data-entity-1="part3" data-entity-2="part2" id="msg21"><polygon fill="#0F172A" points="304.4917,1467,294.4917,1471,304.4917,1475,300.4917,1471" style="stroke:#0F172A;stroke-width:1;"/><line style="stroke:#0F172A;stroke-width:1;stroke-dasharray:2,2;" x1="298.4917" x2="531.3179" y1="1471" y2="1471"/><text fill="#000000" font-family="Helvetica" font-size="14" lengthAdjust="spacing" textLength="214.8262" x="310.4917" y="1451.7803">requeue on provisioning, updating,</text><text fill="#000000" font-family="Helvetica" font-size="14" lengthAdjust="spacing" textLength="69.2549" x="310.4917" y="1465.7803">terminating</text></g><path d="M821,1492 L821,1948 A8,8 0 0 0 829,1956 L1141,1956 A8,8 0 0 0 1149,1948 L1149,1494 L1139,1484 L829,1484 A8,8 0 0 0 821,1492" fill="#FFF7D6" style="stroke:#B45309;stroke-width:0.5;"/><path d="M1139,1484 L1139,1490 A4,4 0 0 0 1143,1494 L1149,1494 L1139,1484" fill="#FFF7D6" style="stroke:#B45309;stroke-width:0.5;"/><text fill="#334155" font-family="Helvetica" font-size="14" lengthAdjust="spacing" textLength="101.165" x="827" y="1499.7803">shared diagram:</text><text fill="#334155" font-family="Helvetica" font-size="14" lengthAdjust="spacing" textLength="307.3916" x="827" y="1513.7803">shared/diagrams/shared-resolution-sequence.svg</text><text fill="#334155" font-family="Helvetica" font-size="14" lengthAdjust="spacing" textLength="143.1992" x="827" y="1527.7803">shared delete diagram:</text><text fill="#334155" font-family="Helvetica" font-size="14" lengthAdjust="spacing" textLength="284.833" x="827" y="1541.7803">shared/diagrams/shared-delete-sequence.svg</text><text fill="#334155" font-family="Helvetica" font-size="14" lengthAdjust="spacing" textLength="280.9297" x="827" y="1555.7803">Start from the shared resolution sequence for</text><text fill="#334155" font-family="Helvetica" font-size="14" lengthAdjust="spacing" textLength="260.7295" x="827" y="1569.7803">OCID binding, datasource pagination, and</text><text fill="#334155" font-family="Helvetica" font-size="14" lengthAdjust="spacing" textLength="163.4268" x="827" y="1583.7803">create-or-update dispatch.</text><text fill="#334155" font-family="Helvetica" font-size="14" lengthAdjust="spacing" textLength="301.1982" x="827" y="1597.7803">Layer the shared delete sequence when finalizer</text><text fill="#334155" font-family="Helvetica" font-size="14" lengthAdjust="spacing" textLength="269.2471" x="827" y="1611.7803">retention, delete confirmation, work-request</text><text fill="#334155" font-family="Helvetica" font-size="14" lengthAdjust="spacing" textLength="199.2334" x="827" y="1625.7803">polling, or Secret cleanup apply.</text><text fill="#334155" font-family="Helvetica" font-size="14" lengthAdjust="spacing" textLength="281.709" x="827" y="1639.7803">archetype batch: Generated service-manager</text><text fill="#334155" font-family="Helvetica" font-size="14" lengthAdjust="spacing" textLength="266.1504" x="827" y="1653.7803">controllers follow the shared resolution and</text><text fill="#334155" font-family="Helvetica" font-size="14" lengthAdjust="spacing" textLength="259.9297" x="827" y="1667.7803">delete sequences with imported waits and</text><text fill="#334155" font-family="Helvetica" font-size="14" lengthAdjust="spacing" textLength="134.6064" x="827" y="1681.7803">controller-local policy.</text><text fill="#334155" font-family="Helvetica" font-size="14" lengthAdjust="spacing" textLength="79.3584" x="827" y="1695.7803">service: core</text><text fill="#334155" font-family="Helvetica" font-size="14" lengthAdjust="spacing" textLength="132.3027" x="827" y="1709.7803">slug: corenatgateway</text><text fill="#334155" font-family="Helvetica" font-size="14" lengthAdjust="spacing" textLength="140.8408" x="827" y="1723.7803">kind: CoreNatGateway</text><text fill="#334155" font-family="Helvetica" font-size="14" lengthAdjust="spacing" textLength="241.2402" x="827" y="1737.7803">archetype: generated-service-manager</text><text fill="#334155" font-family="Helvetica" font-size="14" lengthAdjust="spacing" textLength="156.4063" x="827" y="1751.7803">status/finalizer: required /</text><text fill="#334155" font-family="Helvetica" font-size="14" lengthAdjust="spacing" textLength="174.3027" x="827" y="1765.7803">retain-until-confirmed-delete</text><text fill="#334155" font-family="Helvetica" font-size="14" lengthAdjust="spacing" textLength="272.3984" x="827" y="1779.7803">requeue: provisioning, updating, terminating</text><text fill="#334155" font-family="Helvetica" font-size="14" lengthAdjust="spacing" textLength="295.6816" x="827" y="1793.7803">provider states: create PROVISIONING; update</text><text fill="#334155" font-family="Helvetica" font-size="14" lengthAdjust="spacing" textLength="192.165" x="827" y="1807.7803">UPDATING; delete DELETING</text><text fill="#334155" font-family="Helvetica" font-size="14" lengthAdjust="spacing" textLength="183.6611" x="827" y="1821.7803">supported drift: display_name</text><text fill="#334155" font-family="Helvetica" font-size="14" lengthAdjust="spacing" textLength="230.3301" x="827" y="1835.7803">reject before mutate: force-new fields</text><text fill="#334155" font-family="Helvetica" font-size="14" lengthAdjust="spacing" textLength="100.3789" x="827" y="1849.7803">compartment_id</text><text fill="#334155" font-family="Helvetica" font-size="14" lengthAdjust="spacing" textLength="259.9297" x="827" y="1863.7803">list lookup: scaffold_core_corenatgateway</text><text fill="#334155" font-family="Helvetica" font-size="14" lengthAdjust="spacing" textLength="175.8477" x="827" y="1877.7803">filters compartment_id, state</text><text fill="#334155" font-family="Helvetica" font-size="14" lengthAdjust="spacing" textLength="89.4961" x="827" y="1891.7803">conflicts: none</text><text fill="#334155" font-family="Helvetica" font-size="14" lengthAdjust="spacing" textLength="104.3164" x="827" y="1905.7803">open gaps: none</text><text fill="#334155" font-family="Helvetica" font-size="14" lengthAdjust="spacing" textLength="224.9023" x="827" y="1919.7803">Scaffold metadata only; replace with</text><text fill="#334155" font-family="Helvetica" font-size="14" lengthAdjust="spacing" textLength="244.3232" x="827" y="1933.7803">controller-specific runtime states before</text><text fill="#334155" font-family="Helvetica" font-size="14" lengthAdjust="spacing" textLength="66.1445" x="827" y="1947.7803">promotion.</text><?plantuml-src fLThRzis5FskNq5iNreWJfecwSD11hH9rWRDaY9kroy60bgwihb8f4PIThDX_ts73ycIOgzfXmADB9BtSUwvvrBcJiYAQruoi-2PMWavPpal32McNPdnz6wkLIspKrKepNxEK_pBEZioodbTs5-Lj5Uy9FQUYYLPaVBDUoRYBsBxXvr5hhLQHUlFylsNpxidfRBqza4CUVuoUp7SfNH6EkwO7HuTF7izsE7Sn_M3WyFzewFEkZUVAYr9i_qNYHMs83QXFskIAR4HmnBjdUA_AsxVSKihVfyiH4OiLyhErDUEATES-ZjXZATMwLveCSLcQPWRFQTN-JCimnXG51MNTlFvxeR7MEcatzeeH4wNGlR1Utt83sQliEfCLhsbT9OTqNwxzA0mhtAUfya_YS-DVQXd14GjcQGJ1pj585eL1UdUwxVSq0sbIgPYkFJJzUJwmuJqKgJq6vTyJlednWthl-eTkJwzI5pHcLgYf7tREuDpeB-cZ6aoggYjK78SN-rbWizHKxCNVe_MMqPDcNVDSjvOoAX0jbjFX-N-IPAP9sUo1ekDVkbWD6OaiRycrgSVmetv9ElDxcW_rp5hdvzevzZOfqb_YplKHsIyDewSZ72v3SZl2S0kbRh37uuaPa9c2Iyiingqm04GWBvM1GhYgy7GBH9zTSzueObdzrWLnfgaxze5WzrZzexim2L1cbhhhJLXM2cCWNXjitG9DtrJJt9HMD9cF9MfAXrjIbYx5TaECnPRdlf4DDM6pm21YzvLljReQlX3lT3teFqsZwT8qD8W_4AfYgL-XLKekvFRZpVNlrzCBgwlBgxUVGSGyEp1s1pX3-Ex8Q4DVAe070o7TbcY5BtY2kaXh8qtvs0Ch6UHV9H5wfpvrzkY2wk30BViHMYvq6NZQ2dum-Ic4dHyI8HGb7YmAShP-UNvf-yf2AW-bHkCDmYa1N69b152BYGlC08ryC1Ru_aqAvJZz6F0rsGv88uHUxBwxiDx7JiahZbYum5InTJCmF9Z7OImre7o7Atoq6fWOSD4nu4G3VBnmJXUFivXKBVLGhH4Bf6Z0PMcijiWE-ppnxCtd_nJMoFllH3B1Wnd3dfba00LsOYleBnJcMcHMqPBNjJS1nyvw5yl063Xz6CzB_fnxxXXCgchIcdmbzLLvZoPMkSyfJ7BXAaAVdyhSVr9RkWFIYsRKGukiB9sGOsX5cZCaQHL2CiaVTb9eeusiiGsgj9wLgZATao2Lgu5eBJMqJVaYZ9aA5Xg7rlsRjYk2ZxqfixEeMa1S4jETRxjANRCcwegxjbdZzkmTIHMSjT0ZTM0K1zLtwOHzwPD6p9yfsvkLsrTIxQW0lh65gY7mN3mQdrYyqPRTuEotyIVErFPMVl21IvP-elITpT1xBu8kpZ7zLQ_ZnIRoY2J9vRGHxvvKmVooUdD-PjFvsV7KncoxFeCk3K-iINqOdTBaCjcosELF0ZrIMoP3DcqNNyIX6PK8znY51MslS9u1yDBnE3MqlGrzAVIQYaCqWG2Ew6CxWdWaIxXqRRDfyLyOPdAsUORMhnG_R_hsJUjRBgcJIpQaULQbSmkY3suCQvl_U1o0ZgT-GkHJnZfyZYQApxt-IgvusGx2GGRAJsAv7QivpPTx2QN_1weTfmrcjyuMYr8hcKwGS4SjvpbLgjzrQAx5MWvYaCugL0a7vjoMeSeraEAkrxTJRXE5sJlAy8d8E9nxOHl8-xQtuJQZCfOdBIjEbGNVzLg2qOkuq4MXgtG8qoKKLfMw24Je6cjZZ0UUS4GiqWHMNG_zjzaYIdgUNW4hlFOwFWMoyR36skRqPZDcrn6mrn2I-ori8wRWPAnlUI_Uo8IVhoDxgpBThy7trL1sPtYXujXTzuTHyLB6gKxRYhRJh-r9dij7imY_KEpg72Nky8F94X4odFKDBjr2DyEO8xZQikqQcOIafDAkg45livvrVoUHDEi1AokH_miE0RWoC3n6yJeii1Kb8fSf4wdhIZZm3SnFOTegHpDTjiv-Iy0?></g></svg>