<?plantuml 1.2026.1?><svg xmlns="http://www.w3.org/2000/svg" xmlns:xlink="http://www.w3.org/1999/xlink" contentStyleType="text/css" data-diagram-type="ACTIVITY" height="1301px" preserveAspectRatio="none" style="width:688px;height:1301px;background:#FCFCFD;" version="1.1" viewBox="0 0 688 1301" width="688px" zoomAndPan="magnify"><title>Activity - core/CpeDeviceShape</title><defs/><g><rect fill="#FCFCFD" height="1301" style="stroke:none;stroke-width:1;" width="688" x="0" y="0"/><g class="title" data-source-line="10"><text fill="#000000" font-family="Helvetica" font-size="14" font-weight="bold" lengthAdjust="spacing" textLength="210.082" x="237.7834" y="30.7803">Activity - core/CpeDeviceShape</text></g><ellipse cx="305.6089" cy="55" fill="#1D4ED8" rx="10" ry="10" style="stroke:#222222;stroke-width:1;"/><rect fill="#F8FAFC" height="48" rx="8" ry="8" style="stroke:#0F172A;stroke-width:0.5;" width="304.7852" x="153.2163" y="85"/><text fill="#0F172A" font-family="Helvetica" font-size="14" lengthAdjust="spacing" textLength="136.9375" x="163.2163" y="105.7803">Start from shared flow</text><text fill="#0F172A" font-family="Helvetica" font-size="14" lengthAdjust="spacing" textLength="284.7852" x="163.2163" y="119.7803">shared/diagrams/shared-reconcile-activity.svg</text><rect fill="#F8FAFC" height="48" rx="8" ry="8" style="stroke:#0F172A;stroke-width:0.5;" width="315.75" x="147.7339" y="153"/><text fill="#0F172A" font-family="Helvetica" font-size="14" lengthAdjust="spacing" textLength="295.75" x="157.7339" y="173.7803">Load desired CpeDeviceShape spec and status</text><text fill="#0F172A" font-family="Helvetica" font-size="14" lengthAdjust="spacing" textLength="103.4961" x="157.7339" y="187.7803">from Kubernetes</text><rect fill="#F8FAFC" height="48" rx="8" ry="8" style="stroke:#0F172A;stroke-width:0.5;" width="319.585" x="145.8164" y="221"/><text fill="#0F172A" font-family="Helvetica" font-size="14" lengthAdjust="spacing" textLength="299.585" x="155.8164" y="241.7803">Resolve OCI state via GetCpeDeviceShape with</text><text fill="#0F172A" font-family="Helvetica" font-size="14" lengthAdjust="spacing" textLength="182.1025" x="155.8164" y="255.7803">ListCpeDeviceShape fallback</text><rect fill="#F8FAFC" height="62" rx="8" ry="8" style="stroke:#0F172A;stroke-width:0.5;" width="296.2402" x="157.4888" y="289"/><text fill="#0F172A" font-family="Helvetica" font-size="14" lengthAdjust="spacing" textLength="258.3643" x="167.4888" y="309.7803">Use scaffold_core_cpedeviceshape filters</text><text fill="#0F172A" font-family="Helvetica" font-size="14" lengthAdjust="spacing" textLength="276.2402" x="167.4888" y="323.7803">compartment_id, state when OCID lookup or</text><text fill="#0F172A" font-family="Helvetica" font-size="14" lengthAdjust="spacing" textLength="243.5645" x="167.4888" y="337.7803">bind-versus-create needs list resolution</text><polygon fill="#E2E8F0" points="251.9194,371,359.2983,371,371.2983,383,359.2983,395,251.9194,395,239.9194,383,251.9194,371" style="stroke:#1D4ED8;stroke-width:0.5;"/><text fill="#0F172A" font-family="Helvetica" font-size="14" lengthAdjust="spacing" textLength="107.3789" x="251.9194" y="386.7803">Resource exists?</text><text fill="#000000" font-family="Helvetica" font-size="14" lengthAdjust="spacing" textLength="21.7861" x="218.1333" y="379.7803">yes</text><text fill="#000000" font-family="Helvetica" font-size="14" lengthAdjust="spacing" textLength="15.5723" x="371.2983" y="379.7803">no</text><rect fill="#F8FAFC" height="34" rx="8" ry="8" style="stroke:#0F172A;stroke-width:0.5;" width="286.1709" x="11" y="405"/><text fill="#0F172A" font-family="Helvetica" font-size="14" lengthAdjust="spacing" textLength="266.1709" x="21" y="425.7803">Update path calls UpdateCpeDeviceShape</text><rect fill="#F8FAFC" height="48" rx="8" ry="8" style="stroke:#0F172A;stroke-width:0.5;" width="266.7021" x="20.7344" y="459"/><text fill="#0F172A" font-family="Helvetica" font-size="14" lengthAdjust="spacing" textLength="246.7021" x="30.7344" y="479.7803">Guard mutable fields display_name and</text><text fill="#0F172A" font-family="Helvetica" font-size="14" lengthAdjust="spacing" textLength="202.3096" x="30.7344" y="493.7803">force-new fields compartment_id</text><rect fill="#F8FAFC" height="34" rx="8" ry="8" style="stroke:#0F172A;stroke-width:0.5;" width="279.9229" x="317.1709" y="405"/><text fill="#0F172A" font-family="Helvetica" font-size="14" lengthAdjust="spacing" textLength="259.9229" x="327.1709" y="425.7803">Create path calls CreateCpeDeviceShape</text><polygon fill="#E2E8F0" points="305.6089,513,317.6089,525,305.6089,537,293.6089,525,305.6089,513" style="stroke:#1D4ED8;stroke-width:0.5;"/><rect fill="#F8FAFC" height="104" rx="8" ry="8" style="stroke:#0F172A;stroke-width:0.5;" width="334.3164" x="138.4507" y="557"/><text fill="#0F172A" font-family="Helvetica" font-size="14" lengthAdjust="spacing" textLength="164.2061" x="148.4507" y="577.7803">Run provider helper hooks</text><text fill="#0F172A" font-family="Helvetica" font-size="14" lengthAdjust="spacing" textLength="219.0508" x="148.4507" y="591.7803">create=tfresource.CreateResource,</text><text fill="#0F172A" font-family="Helvetica" font-size="14" lengthAdjust="spacing" textLength="314.3164" x="148.4507" y="605.7803">tfresource.WaitForWorkRequestWithErrorHandling</text><text fill="#0F172A" font-family="Helvetica" font-size="14" lengthAdjust="spacing" textLength="215.5439" x="148.4507" y="619.7803">entity=template action=CREATED;</text><text fill="#0F172A" font-family="Helvetica" font-size="14" lengthAdjust="spacing" textLength="226.085" x="148.4507" y="633.7803">update=tfresource.UpdateResource;</text><text fill="#0F172A" font-family="Helvetica" font-size="14" lengthAdjust="spacing" textLength="212.8438" x="148.4507" y="647.7803">delete=tfresource.DeleteResource</text><rect fill="#F8FAFC" height="34" rx="8" ry="8" style="stroke:#0F172A;stroke-width:0.5;" width="263.5918" x="173.813" y="681"/><text fill="#0F172A" font-family="Helvetica" font-size="14" lengthAdjust="spacing" textLength="243.5918" x="183.813" y="701.7803">Apply repo-authored secret policy none</text><rect fill="#F8FAFC" height="62" rx="8" ry="8" style="stroke:#0F172A;stroke-width:0.5;" width="314.916" x="148.1509" y="735"/><text fill="#0F172A" font-family="Helvetica" font-size="14" lengthAdjust="spacing" textLength="287.1709" x="158.1509" y="755.7803">Delete path uses DeleteCpeDeviceShape with</text><text fill="#0F172A" font-family="Helvetica" font-size="14" lengthAdjust="spacing" textLength="224.9023" x="158.1509" y="769.7803">required via GetCpeDeviceShape or</text><text fill="#0F172A" font-family="Helvetica" font-size="14" lengthAdjust="spacing" textLength="294.916" x="158.1509" y="783.7803">ListCpeDeviceShape to DELETED confirmation</text><rect fill="#F8FAFC" height="48" rx="8" ry="8" style="stroke:#0F172A;stroke-width:0.5;" width="279.1299" x="166.0439" y="817"/><text fill="#0F172A" font-family="Helvetica" font-size="14" lengthAdjust="spacing" textLength="259.1299" x="176.0439" y="837.7803">Project required status and finalizer policy</text><text fill="#0F172A" font-family="Helvetica" font-size="14" lengthAdjust="spacing" textLength="174.3027" x="176.0439" y="851.7803">retain-until-confirmed-delete</text><rect fill="#F8FAFC" height="34" rx="8" ry="8" style="stroke:#0F172A;stroke-width:0.5;" width="313.4189" x="148.8994" y="885"/><text fill="#0F172A" font-family="Helvetica" font-size="14" lengthAdjust="spacing" textLength="293.4189" x="158.8994" y="905.7803">Requeue on provisioning, updating, terminating</text><path d="M336.6089,929 L336.6089,1105 L316.6089,1109 L336.6089,1113 L336.6089,1289 A0,0 0 0 0 336.6089,1289 L676.6489,1289 A0,0 0 0 0 676.6489,1289 L676.6489,939 L666.6489,929 L336.6089,929 A0,0 0 0 0 336.6089,929" fill="#FFF7D6" style="stroke:#B45309;stroke-width:0.5;"/><path d="M666.6489,929 L666.6489,939 L676.6489,939 L666.6489,929" fill="#FFF7D6" style="stroke:#B45309;stroke-width:0.5;"/><text fill="#334155" font-family="Helvetica" font-size="14" lengthAdjust="spacing" textLength="101.165" x="342.6089" y="944.7803">shared diagram:</text><text fill="#334155" font-family="Helvetica" font-size="14" lengthAdjust="spacing" textLength="284.7852" x="342.6089" y="958.7803">shared/diagrams/shared-reconcile-activity.svg</text><text fill="#334155" font-family="Helvetica" font-size="14" lengthAdjust="spacing" textLength="265.3438" x="342.6089" y="972.7803">Start from the shared reconcile activity and</text><text fill="#334155" font-family="Helvetica" font-size="14" lengthAdjust="spacing" textLength="273.8955" x="342.6089" y="986.7803">specialize provider-backed CRUD, wait, and</text><text fill="#334155" font-family="Helvetica" font-size="14" lengthAdjust="spacing" textLength="182.875" x="342.6089" y="1000.7803">status-projection details here.</text><text fill="#334155" font-family="Helvetica" font-size="14" lengthAdjust="spacing" textLength="229.5371" x="342.6089" y="1014.7803">Controller-local activity diagrams add</text><text fill="#334155" font-family="Helvetica" font-size="14" lengthAdjust="spacing" textLength="238.8955" x="342.6089" y="1028.7803">list-lookup hints, secret policies, delete</text><text fill="#334155" font-family="Helvetica" font-size="14" lengthAdjust="spacing" textLength="200.0332" x="342.6089" y="1042.7803">handling, and open formal gaps.</text><text fill="#334155" font-family="Helvetica" font-size="14" lengthAdjust="spacing" textLength="281.709" x="342.6089" y="1056.7803">archetype batch: Generated service-manager</text><text fill="#334155" font-family="Helvetica" font-size="14" lengthAdjust="spacing" textLength="291.0469" x="342.6089" y="1070.7803">controllers specialize the shared reconcile path</text><text fill="#334155" font-family="Helvetica" font-size="14" lengthAdjust="spacing" textLength="189.8477" x="342.6089" y="1084.7803">with formal runtime ownership.</text><text fill="#334155" font-family="Helvetica" font-size="14" lengthAdjust="spacing" textLength="79.3584" x="342.6089" y="1098.7803">service: core</text><text fill="#334155" font-family="Helvetica" font-size="14" lengthAdjust="spacing" textLength="134.6475" x="342.6089" y="1112.7803">slug: cpedeviceshape</text><text fill="#334155" font-family="Helvetica" font-size="14" lengthAdjust="spacing" textLength="142.4199" x="342.6089" y="1126.7803">kind: CpeDeviceShape</text><text fill="#334155" font-family="Helvetica" font-size="14" lengthAdjust="spacing" textLength="241.2402" x="342.6089" y="1140.7803">archetype: generated-service-manager</text><text fill="#334155" font-family="Helvetica" font-size="14" lengthAdjust="spacing" textLength="156.4063" x="342.6089" y="1154.7803">status/finalizer: required /</text><text fill="#334155" font-family="Helvetica" font-size="14" lengthAdjust="spacing" textLength="174.3027" x="342.6089" y="1168.7803">retain-until-confirmed-delete</text><text fill="#334155" font-family="Helvetica" font-size="14" lengthAdjust="spacing" textLength="272.3984" x="342.6089" y="1182.7803">requeue: provisioning, updating, terminating</text><text fill="#334155" font-family="Helvetica" font-size="14" lengthAdjust="spacing" textLength="295.6816" x="342.6089" y="1196.7803">provider states: create PROVISIONING; update</text><text fill="#334155" font-family="Helvetica" font-size="14" lengthAdjust="spacing" textLength="192.165" x="342.6089" y="1210.7803">UPDATING; delete DELETING</text><text fill="#334155" font-family="Helvetica" font-size="14" lengthAdjust="spacing" textLength="319.04" x="342.6089" y="1224.7803">mutable/forceNew: display_name / compartment_id</text><text fill="#334155" font-family="Helvetica" font-size="14" lengthAdjust="spacing" textLength="104.3164" x="342.6089" y="1238.7803">open gaps: none</text><text fill="#334155" font-family="Helvetica" font-size="14" lengthAdjust="spacing" textLength="224.9023" x="342.6089" y="1252.7803">Scaffold metadata only; replace with</text><text fill="#334155" font-family="Helvetica" font-size="14" lengthAdjust="spacing" textLength="244.3232" x="342.6089" y="1266.7803">controller-specific runtime states before</text><text fill="#334155" font-family="Helvetica" font-size="14" lengthAdjust="spacing" textLength="66.1445" x="342.6089" y="1280.7803">promotion.</text><ellipse cx="305.6089" cy="1109" fill="none" rx="11" ry="11" style="stroke:#222222;stroke-width:1;"/><ellipse cx="305.6089" cy="1109" fill="#222222" rx="6" ry="6" style="stroke:#222222;stroke-width:1;"/><line style="stroke:#0F172A;stroke-width:1;" x1="305.6089" x2="305.6089" y1="65" y2="85"/><polygon fill="#0F172A" points="301.6089,75,305.6089,85,309.6089,75,305.6089,79" style="stroke:#0F172A;stroke-width:1;"/><line style="stroke:#0F172A;stroke-width:1;" x1="305.6089" x2="305.6089" y1="133" y2="153"/><polygon fill="#0F172A" points="301.6089,143,305.6089,153,309.6089,143,305.6089,147" style="stroke:#0F172A;stroke-width:1;"/><line style="stroke:#0F172A;stroke-width:1;" x1="305.6089" x2="305.6089" y1="201" y2="221"/><polygon fill="#0F172A" points="301.6089,211,305.6089,221,309.6089,211,305.6089,215" style="stroke:#0F172A;stroke-width:1;"/><line style="stroke:#0F172A;stroke-width:1;" x1="305.6089" x2="305.6089" y1="269" y2="289"/><polygon fill="#0F172A" points="301.6089,279,305.6089,289,309.6089,279,305.6089,283" style="stroke:#0F172A;stroke-width:1;"/><line style="stroke:#0F172A;stroke-width:1;" x1="154.0854" x2="154.0854" y1="439" y2="459"/><polygon fill="#0F172A" points="150.0854,449,154.0854,459,158.0854,449,154.0854,453" style="stroke:#0F172A;stroke-width:1;"/><line style="stroke:#0F172A;stroke-width:1;" x1="239.9194" x2="154.0854" y1="383" y2="383"/><line style="stroke:#0F172A;stroke-width:1;" x1="154.0854" x2="154.0854" y1="383" y2="405"/><polygon fill="#0F172A" points="150.0854,395,154.0854,405,158.0854,395,154.0854,399" style="stroke:#0F172A;stroke-width:1;"/><line style="stroke:#0F172A;stroke-width:1;" x1="371.2983" x2="457.1323" y1="383" y2="383"/><line style="stroke:#0F172A;stroke-width:1;" x1="457.1323" x2="457.1323" y1="383" y2="405"/><polygon fill="#0F172A" points="453.1323,395,457.1323,405,461.1323,395,457.1323,399" style="stroke:#0F172A;stroke-width:1;"/><line style="stroke:#0F172A;stroke-width:1;" x1="154.0854" x2="154.0854" y1="507" y2="525"/><line style="stroke:#0F172A;stroke-width:1;" x1="154.0854" x2="293.6089" y1="525" y2="525"/><polygon fill="#0F172A" points="283.6089,521,293.6089,525,283.6089,529,287.6089,525" style="stroke:#0F172A;stroke-width:1;"/><line style="stroke:#0F172A;stroke-width:1;" x1="457.1323" x2="457.1323" y1="439" y2="525"/><line style="stroke:#0F172A;stroke-width:1;" x1="457.1323" x2="317.6089" y1="525" y2="525"/><polygon fill="#0F172A" points="327.6089,521,317.6089,525,327.6089,529,323.6089,525" style="stroke:#0F172A;stroke-width:1;"/><line style="stroke:#0F172A;stroke-width:1;" x1="305.6089" x2="305.6089" y1="351" y2="371"/><polygon fill="#0F172A" points="301.6089,361,305.6089,371,309.6089,361,305.6089,365" style="stroke:#0F172A;stroke-width:1;"/><line style="stroke:#0F172A;stroke-width:1;" x1="305.6089" x2="305.6089" y1="537" y2="557"/><polygon fill="#0F172A" points="301.6089,547,305.6089,557,309.6089,547,305.6089,551" style="stroke:#0F172A;stroke-width:1;"/><line style="stroke:#0F172A;stroke-width:1;" x1="305.6089" x2="305.6089" y1="661" y2="681"/><polygon fill="#0F172A" points="301.6089,671,305.6089,681,309.6089,671,305.6089,675" style="stroke:#0F172A;stroke-width:1;"/><line style="stroke:#0F172A;stroke-width:1;" x1="305.6089" x2="305.6089" y1="715" y2="735"/><polygon fill="#0F172A" points="301.6089,725,305.6089,735,309.6089,725,305.6089,729" style="stroke:#0F172A;stroke-width:1;"/><line style="stroke:#0F172A;stroke-width:1;" x1="305.6089" x2="305.6089" y1="797" y2="817"/><polygon fill="#0F172A" points="301.6089,807,305.6089,817,309.6089,807,305.6089,811" style="stroke:#0F172A;stroke-width:1;"/><line style="stroke:#0F172A;stroke-width:1;" x1="305.6089" x2="305.6089" y1="865" y2="885"/><polygon fill="#0F172A" points="301.6089,875,305.6089,885,309.6089,875,305.6089,879" style="stroke:#0F172A;stroke-width:1;"/><line style="stroke:#0F172A;stroke-width:1;" x1="305.6089" x2="305.6089" y1="919" y2="1098"/><polygon fill="#0F172A" points="301.6089,1088,305.6089,1098,309.6089,1088,305.6089,1092" style="stroke:#0F172A;stroke-width:1;"/><?plantuml-src bLPDR-Cs4BtpLn3e9GjOTh99TbCPGP7QsMpG80cIJNCn4D3ao693aIf9sNMB_lSEILcMlKRHmWTRdE5yl7dpPFSkTSqigwWhcJ0hgHUqOCe1SPrbplZxmff6YubHnj8V2euVqVCGKB16-Iz6-tjM0VqAQWbUSdROvrd-2VJah6TarffL6_suEFdyiNzJ6my_VrT3KNmMd_QzZ1LWMu_vsVdfyOzx7Y5zQpyzFJivF-_POtXkh0PBJpuHBxq2UiMzN4g_fXb54umcDKnXAJaybwpkeyGsZdyHUW2oYu8LF5Zw9RQjKbfio-hEX6ILqUAxpk4ZN1J7FOT-n1Dn1k9YQ_no8B3ppFfzV-ZYTtvpjXVrRnAlalmvVD72caWR2u8MogncEZsCCFS28N6Zz9nPu4PpgI3RW3HqoyMOv7U62II6ao74BhBKrS0fqoAKwnitqp7TByqSS40U75v_0cUGQFHXSXkzW2ubepVWzqAjf2zd-awwVGCoNOLHOQmNXoavAmgZn5kOz1klGKHVbtobyc2n3cugdBYlGFitAGPjvbK9EXGofSgOzwQcnixqN6gHBV5Mup9k8VXf0E6embge3UKtNXez9hAWHw6TndAWy0UQtKyVg0z1ZzRWFc21jGZtQ-PBoh5kHzF9RalOoKt3hA1LuzbSXR91OK8XNQtO-as7zKHK4Kw3gJ8DgutBRbzZ0gW2z4WRp3r9jVTofvFzt4WYMU1S6arhQvOIUKbBK7NuGbG2UF7UfIzis-mmHThqFfZfdksLIHGC-shi-nFyte3phpZAQnGB-nMRKAXMCutr8gCkFLJO8LOPE6RqvUJf-khRzNGyqqt4gPyp8RV9YIu25EowJED9vqBogxfMQvnPRJBM-D84oZh0VZojZP9yZVgYWsEwcS1g73YQ3Wvoqc9NaVo7YHiuT82stj3fzTqrTeT3quMq5KiioX-j-Grue5ORDorFtAD2QgPGUMrRRyZkcTHPWm2gh8s4wvh0YFk5c3TOHZjEXqaGyW6DYCPVk18LnWqFOrG7KvEWijJAHUb9gmsj7EJaVya3wOaCxi56Q3hdhU1YSoIeXOpjTSpBmcO7NNbwcGxe2gaqIAuHagnEK65Bg4280vAw10j3Ca79j4OfZA0CidsRQ5CuPKAGiC9Pk-kbrDuDTkWW0GyIagHikHhpKrFZKkFsLHXwmMet9Cpo4lmQ9pjddfSvCW7VGSZGm30RvfvLJBC5MCAxuXpjzNmGeC104dYsoMR3f77_pGh3krBMGzB6p-FBZJZLBF3dZl0HVCE9V4-TjoNdTB4fDjilDY4zweYNRtav8lzAFc8JzVB_GZpIQKsKOeST9BrwV7huzVRvzk7-zlvcdEu2UNcSNdsB1obLMYKy8AraZg8otiCgtrNDqPv2aZZ8CC4yhZvvRbyVjCBMC1V3nL7hST0CnNXQ-Tu0ipY_Gl9kBgbyEeSY30ExgapWvp3eQlptyWy0?></g></svg>