<?plantuml 1.2026.1?><svg xmlns="http://www.w3.org/2000/svg" xmlns:xlink="http://www.w3.org/1999/xlink" contentStyleType="text/css" data-diagram-type="ACTIVITY" height="1329px" preserveAspectRatio="none" style="width:749px;height:1329px;background:#FCFCFD;" version="1.1" viewBox="0 0 749 1329" width="749px" zoomAndPan="magnify"><title>Activity - adm/AdmRemediationRunStage</title><defs/><g><rect fill="#FCFCFD" height="1329" style="stroke:none;stroke-width:1;" width="749" x="0" y="0"/><g class="title" data-source-line="10"><text fill="#000000" font-family="Helvetica" font-size="14" font-weight="bold" lengthAdjust="spacing" textLength="276.1514" x="235.0969" y="30.7803">Activity - adm/AdmRemediationRunStage</text></g><ellipse cx="366.3052" cy="55" fill="#1D4ED8" rx="10" ry="10" style="stroke:#222222;stroke-width:1;"/><rect fill="#F8FAFC" height="48" rx="8" ry="8" style="stroke:#0F172A;stroke-width:0.5;" width="304.7852" x="213.9126" y="85"/><text fill="#0F172A" font-family="Helvetica" font-size="14" lengthAdjust="spacing" textLength="136.9375" x="223.9126" y="105.7803">Start from shared flow</text><text fill="#0F172A" font-family="Helvetica" font-size="14" lengthAdjust="spacing" textLength="284.7852" x="223.9126" y="119.7803">shared/diagrams/shared-reconcile-activity.svg</text><rect fill="#F8FAFC" height="48" rx="8" ry="8" style="stroke:#0F172A;stroke-width:0.5;" width="335.2051" x="198.7026" y="153"/><text fill="#0F172A" font-family="Helvetica" font-size="14" lengthAdjust="spacing" textLength="315.2051" x="208.7026" y="173.7803">Load desired AdmRemediationRunStage spec and</text><text fill="#0F172A" font-family="Helvetica" font-size="14" lengthAdjust="spacing" textLength="144.7373" x="208.7026" y="187.7803">status from Kubernetes</text><rect fill="#F8FAFC" height="62" rx="8" ry="8" style="stroke:#0F172A;stroke-width:0.5;" width="262.7988" x="234.9058" y="221"/><text fill="#0F172A" font-family="Helvetica" font-size="14" lengthAdjust="spacing" textLength="135.3857" x="244.9058" y="241.7803">Resolve OCI state via</text><text fill="#0F172A" font-family="Helvetica" font-size="14" lengthAdjust="spacing" textLength="221.0059" x="244.9058" y="255.7803">GetAdmRemediationRunStage with</text><text fill="#0F172A" font-family="Helvetica" font-size="14" lengthAdjust="spacing" textLength="242.7988" x="244.9058" y="269.7803">ListAdmRemediationRunStage fallback</text><rect fill="#F8FAFC" height="62" rx="8" ry="8" style="stroke:#0F172A;stroke-width:0.5;" width="317.2402" x="207.6851" y="303"/><text fill="#0F172A" font-family="Helvetica" font-size="14" lengthAdjust="spacing" textLength="274.709" x="217.6851" y="323.7803">Use scaffold_adm_admremediationrunstage</text><text fill="#0F172A" font-family="Helvetica" font-size="14" lengthAdjust="spacing" textLength="297.2402" x="217.6851" y="337.7803">filters compartment_id, state when OCID lookup</text><text fill="#0F172A" font-family="Helvetica" font-size="14" lengthAdjust="spacing" textLength="259.9023" x="217.6851" y="351.7803">or bind-versus-create needs list resolution</text><polygon fill="#E2E8F0" points="312.6157,385,419.9946,385,431.9946,397,419.9946,409,312.6157,409,300.6157,397,312.6157,385" style="stroke:#1D4ED8;stroke-width:0.5;"/><text fill="#0F172A" font-family="Helvetica" font-size="14" lengthAdjust="spacing" textLength="107.3789" x="312.6157" y="400.7803">Resource exists?</text><text fill="#000000" font-family="Helvetica" font-size="14" lengthAdjust="spacing" textLength="21.7861" x="278.8296" y="393.7803">yes</text><text fill="#000000" font-family="Helvetica" font-size="14" lengthAdjust="spacing" textLength="15.5723" x="431.9946" y="393.7803">no</text><rect fill="#F8FAFC" height="34" rx="8" ry="8" style="stroke:#0F172A;stroke-width:0.5;" width="346.8672" x="11" y="419"/><text fill="#0F172A" font-family="Helvetica" font-size="14" lengthAdjust="spacing" textLength="326.8672" x="21" y="439.7803">Update path calls UpdateAdmRemediationRunStage</text><rect fill="#F8FAFC" height="48" rx="8" ry="8" style="stroke:#0F172A;stroke-width:0.5;" width="266.7021" x="51.0825" y="473"/><text fill="#0F172A" font-family="Helvetica" font-size="14" lengthAdjust="spacing" textLength="246.7021" x="61.0825" y="493.7803">Guard mutable fields display_name and</text><text fill="#0F172A" font-family="Helvetica" font-size="14" lengthAdjust="spacing" textLength="202.3096" x="61.0825" y="507.7803">force-new fields compartment_id</text><rect fill="#F8FAFC" height="34" rx="8" ry="8" style="stroke:#0F172A;stroke-width:0.5;" width="340.6191" x="377.8672" y="419"/><text fill="#0F172A" font-family="Helvetica" font-size="14" lengthAdjust="spacing" textLength="320.6191" x="387.8672" y="439.7803">Create path calls CreateAdmRemediationRunStage</text><polygon fill="#E2E8F0" points="366.3052,527,378.3052,539,366.3052,551,354.3052,539,366.3052,527" style="stroke:#1D4ED8;stroke-width:0.5;"/><rect fill="#F8FAFC" height="104" rx="8" ry="8" style="stroke:#0F172A;stroke-width:0.5;" width="334.3164" x="199.147" y="571"/><text fill="#0F172A" font-family="Helvetica" font-size="14" lengthAdjust="spacing" textLength="164.2061" x="209.147" y="591.7803">Run provider helper hooks</text><text fill="#0F172A" font-family="Helvetica" font-size="14" lengthAdjust="spacing" textLength="219.0508" x="209.147" y="605.7803">create=tfresource.CreateResource,</text><text fill="#0F172A" font-family="Helvetica" font-size="14" lengthAdjust="spacing" textLength="314.3164" x="209.147" y="619.7803">tfresource.WaitForWorkRequestWithErrorHandling</text><text fill="#0F172A" font-family="Helvetica" font-size="14" lengthAdjust="spacing" textLength="215.5439" x="209.147" y="633.7803">entity=template action=CREATED;</text><text fill="#0F172A" font-family="Helvetica" font-size="14" lengthAdjust="spacing" textLength="226.085" x="209.147" y="647.7803">update=tfresource.UpdateResource;</text><text fill="#0F172A" font-family="Helvetica" font-size="14" lengthAdjust="spacing" textLength="212.8438" x="209.147" y="661.7803">delete=tfresource.DeleteResource</text><rect fill="#F8FAFC" height="34" rx="8" ry="8" style="stroke:#0F172A;stroke-width:0.5;" width="263.5918" x="234.5093" y="695"/><text fill="#0F172A" font-family="Helvetica" font-size="14" lengthAdjust="spacing" textLength="243.5918" x="244.5093" y="715.7803">Apply repo-authored secret policy none</text><rect fill="#F8FAFC" height="76" rx="8" ry="8" style="stroke:#0F172A;stroke-width:0.5;" width="339.0811" x="196.7646" y="749"/><text fill="#0F172A" font-family="Helvetica" font-size="14" lengthAdjust="spacing" textLength="319.0811" x="206.7646" y="769.7803">Delete path uses DeleteAdmRemediationRunStage</text><text fill="#0F172A" font-family="Helvetica" font-size="14" lengthAdjust="spacing" textLength="314.3848" x="206.7646" y="783.7803">with required via GetAdmRemediationRunStage or</text><text fill="#0F172A" font-family="Helvetica" font-size="14" lengthAdjust="spacing" textLength="275.4678" x="206.7646" y="797.7803">ListAdmRemediationRunStage to DELETED</text><text fill="#0F172A" font-family="Helvetica" font-size="14" lengthAdjust="spacing" textLength="76.2549" x="206.7646" y="811.7803">confirmation</text><rect fill="#F8FAFC" height="48" rx="8" ry="8" style="stroke:#0F172A;stroke-width:0.5;" width="279.1299" x="226.7402" y="845"/><text fill="#0F172A" font-family="Helvetica" font-size="14" lengthAdjust="spacing" textLength="259.1299" x="236.7402" y="865.7803">Project required status and finalizer policy</text><text fill="#0F172A" font-family="Helvetica" font-size="14" lengthAdjust="spacing" textLength="174.3027" x="236.7402" y="879.7803">retain-until-confirmed-delete</text><rect fill="#F8FAFC" height="34" rx="8" ry="8" style="stroke:#0F172A;stroke-width:0.5;" width="313.4189" x="209.5957" y="913"/><text fill="#0F172A" font-family="Helvetica" font-size="14" lengthAdjust="spacing" textLength="293.4189" x="219.5957" y="933.7803">Requeue on provisioning, updating, terminating</text><path d="M397.3052,957 L397.3052,1133 L377.3052,1137 L397.3052,1141 L397.3052,1317 A0,0 0 0 0 397.3052,1317 L737.3452,1317 A0,0 0 0 0 737.3452,1317 L737.3452,967 L727.3452,957 L397.3052,957 A0,0 0 0 0 397.3052,957" fill="#FFF7D6" style="stroke:#B45309;stroke-width:0.5;"/><path d="M727.3452,957 L727.3452,967 L737.3452,967 L727.3452,957" fill="#FFF7D6" style="stroke:#B45309;stroke-width:0.5;"/><text fill="#334155" font-family="Helvetica" font-size="14" lengthAdjust="spacing" textLength="101.165" x="403.3052" y="972.7803">shared diagram:</text><text fill="#334155" font-family="Helvetica" font-size="14" lengthAdjust="spacing" textLength="284.7852" x="403.3052" y="986.7803">shared/diagrams/shared-reconcile-activity.svg</text><text fill="#334155" font-family="Helvetica" font-size="14" lengthAdjust="spacing" textLength="265.3438" x="403.3052" y="1000.7803">Start from the shared reconcile activity and</text><text fill="#334155" font-family="Helvetica" font-size="14" lengthAdjust="spacing" textLength="273.8955" x="403.3052" y="1014.7803">specialize provider-backed CRUD, wait, and</text><text fill="#334155" font-family="Helvetica" font-size="14" lengthAdjust="spacing" textLength="182.875" x="403.3052" y="1028.7803">status-projection details here.</text><text fill="#334155" font-family="Helvetica" font-size="14" lengthAdjust="spacing" textLength="229.5371" x="403.3052" y="1042.7803">Controller-local activity diagrams add</text><text fill="#334155" font-family="Helvetica" font-size="14" lengthAdjust="spacing" textLength="238.8955" x="403.3052" y="1056.7803">list-lookup hints, secret policies, delete</text><text fill="#334155" font-family="Helvetica" font-size="14" lengthAdjust="spacing" textLength="200.0332" x="403.3052" y="1070.7803">handling, and open formal gaps.</text><text fill="#334155" font-family="Helvetica" font-size="14" lengthAdjust="spacing" textLength="281.709" x="403.3052" y="1084.7803">archetype batch: Generated service-manager</text><text fill="#334155" font-family="Helvetica" font-size="14" lengthAdjust="spacing" textLength="291.0469" x="403.3052" y="1098.7803">controllers specialize the shared reconcile path</text><text fill="#334155" font-family="Helvetica" font-size="14" lengthAdjust="spacing" textLength="189.8477" x="403.3052" y="1112.7803">with formal runtime ownership.</text><text fill="#334155" font-family="Helvetica" font-size="14" lengthAdjust="spacing" textLength="79.3584" x="403.3052" y="1126.7803">service: adm</text><text fill="#334155" font-family="Helvetica" font-size="14" lengthAdjust="spacing" textLength="188.3301" x="403.3052" y="1140.7803">slug: admremediationrunstage</text><text fill="#334155" font-family="Helvetica" font-size="14" lengthAdjust="spacing" textLength="203.1162" x="403.3052" y="1154.7803">kind: AdmRemediationRunStage</text><text fill="#334155" font-family="Helvetica" font-size="14" lengthAdjust="spacing" textLength="241.2402" x="403.3052" y="1168.7803">archetype: generated-service-manager</text><text fill="#334155" font-family="Helvetica" font-size="14" lengthAdjust="spacing" textLength="156.4063" x="403.3052" y="1182.7803">status/finalizer: required /</text><text fill="#334155" font-family="Helvetica" font-size="14" lengthAdjust="spacing" textLength="174.3027" x="403.3052" y="1196.7803">retain-until-confirmed-delete</text><text fill="#334155" font-family="Helvetica" font-size="14" lengthAdjust="spacing" textLength="272.3984" x="403.3052" y="1210.7803">requeue: provisioning, updating, terminating</text><text fill="#334155" font-family="Helvetica" font-size="14" lengthAdjust="spacing" textLength="295.6816" x="403.3052" y="1224.7803">provider states: create PROVISIONING; update</text><text fill="#334155" font-family="Helvetica" font-size="14" lengthAdjust="spacing" textLength="192.165" x="403.3052" y="1238.7803">UPDATING; delete DELETING</text><text fill="#334155" font-family="Helvetica" font-size="14" lengthAdjust="spacing" textLength="319.04" x="403.3052" y="1252.7803">mutable/forceNew: display_name / compartment_id</text><text fill="#334155" font-family="Helvetica" font-size="14" lengthAdjust="spacing" textLength="104.3164" x="403.3052" y="1266.7803">open gaps: none</text><text fill="#334155" font-family="Helvetica" font-size="14" lengthAdjust="spacing" textLength="224.9023" x="403.3052" y="1280.7803">Scaffold metadata only; replace with</text><text fill="#334155" font-family="Helvetica" font-size="14" lengthAdjust="spacing" textLength="244.3232" x="403.3052" y="1294.7803">controller-specific runtime states before</text><text fill="#334155" font-family="Helvetica" font-size="14" lengthAdjust="spacing" textLength="66.1445" x="403.3052" y="1308.7803">promotion.</text><ellipse cx="366.3052" cy="1137" fill="none" rx="11" ry="11" style="stroke:#222222;stroke-width:1;"/><ellipse cx="366.3052" cy="1137" fill="#222222" rx="6" ry="6" style="stroke:#222222;stroke-width:1;"/><line style="stroke:#0F172A;stroke-width:1;" x1="366.3052" x2="366.3052" y1="65" y2="85"/><polygon fill="#0F172A" points="362.3052,75,366.3052,85,370.3052,75,366.3052,79" style="stroke:#0F172A;stroke-width:1;"/><line style="stroke:#0F172A;stroke-width:1;" x1="366.3052" x2="366.3052" y1="133" y2="153"/><polygon fill="#0F172A" points="362.3052,143,366.3052,153,370.3052,143,366.3052,147" style="stroke:#0F172A;stroke-width:1;"/><line style="stroke:#0F172A;stroke-width:1;" x1="366.3052" x2="366.3052" y1="201" y2="221"/><polygon fill="#0F172A" points="362.3052,211,366.3052,221,370.3052,211,366.3052,215" style="stroke:#0F172A;stroke-width:1;"/><line style="stroke:#0F172A;stroke-width:1;" x1="366.3052" x2="366.3052" y1="283" y2="303"/><polygon fill="#0F172A" points="362.3052,293,366.3052,303,370.3052,293,366.3052,297" style="stroke:#0F172A;stroke-width:1;"/><line style="stroke:#0F172A;stroke-width:1;" x1="184.4336" x2="184.4336" y1="453" y2="473"/><polygon fill="#0F172A" points="180.4336,463,184.4336,473,188.4336,463,184.4336,467" style="stroke:#0F172A;stroke-width:1;"/><line style="stroke:#0F172A;stroke-width:1;" x1="300.6157" x2="184.4336" y1="397" y2="397"/><line style="stroke:#0F172A;stroke-width:1;" x1="184.4336" x2="184.4336" y1="397" y2="419"/><polygon fill="#0F172A" points="180.4336,409,184.4336,419,188.4336,409,184.4336,413" style="stroke:#0F172A;stroke-width:1;"/><line style="stroke:#0F172A;stroke-width:1;" x1="431.9946" x2="548.1768" y1="397" y2="397"/><line style="stroke:#0F172A;stroke-width:1;" x1="548.1768" x2="548.1768" y1="397" y2="419"/><polygon fill="#0F172A" points="544.1768,409,548.1768,419,552.1768,409,548.1768,413" style="stroke:#0F172A;stroke-width:1;"/><line style="stroke:#0F172A;stroke-width:1;" x1="184.4336" x2="184.4336" y1="521" y2="539"/><line style="stroke:#0F172A;stroke-width:1;" x1="184.4336" x2="354.3052" y1="539" y2="539"/><polygon fill="#0F172A" points="344.3052,535,354.3052,539,344.3052,543,348.3052,539" style="stroke:#0F172A;stroke-width:1;"/><line style="stroke:#0F172A;stroke-width:1;" x1="548.1768" x2="548.1768" y1="453" y2="539"/><line style="stroke:#0F172A;stroke-width:1;" x1="548.1768" x2="378.3052" y1="539" y2="539"/><polygon fill="#0F172A" points="388.3052,535,378.3052,539,388.3052,543,384.3052,539" style="stroke:#0F172A;stroke-width:1;"/><line style="stroke:#0F172A;stroke-width:1;" x1="366.3052" x2="366.3052" y1="365" y2="385"/><polygon fill="#0F172A" points="362.3052,375,366.3052,385,370.3052,375,366.3052,379" style="stroke:#0F172A;stroke-width:1;"/><line style="stroke:#0F172A;stroke-width:1;" x1="366.3052" x2="366.3052" y1="551" y2="571"/><polygon fill="#0F172A" points="362.3052,561,366.3052,571,370.3052,561,366.3052,565" style="stroke:#0F172A;stroke-width:1;"/><line style="stroke:#0F172A;stroke-width:1;" x1="366.3052" x2="366.3052" y1="675" y2="695"/><polygon fill="#0F172A" points="362.3052,685,366.3052,695,370.3052,685,366.3052,689" style="stroke:#0F172A;stroke-width:1;"/><line style="stroke:#0F172A;stroke-width:1;" x1="366.3052" x2="366.3052" y1="729" y2="749"/><polygon fill="#0F172A" points="362.3052,739,366.3052,749,370.3052,739,366.3052,743" style="stroke:#0F172A;stroke-width:1;"/><line style="stroke:#0F172A;stroke-width:1;" x1="366.3052" x2="366.3052" y1="825" y2="845"/><polygon fill="#0F172A" points="362.3052,835,366.3052,845,370.3052,835,366.3052,839" style="stroke:#0F172A;stroke-width:1;"/><line style="stroke:#0F172A;stroke-width:1;" x1="366.3052" x2="366.3052" y1="893" y2="913"/><polygon fill="#0F172A" points="362.3052,903,366.3052,913,370.3052,903,366.3052,907" style="stroke:#0F172A;stroke-width:1;"/><line style="stroke:#0F172A;stroke-width:1;" x1="366.3052" x2="366.3052" y1="947" y2="1126"/><polygon fill="#0F172A" points="362.3052,1116,366.3052,1126,370.3052,1116,366.3052,1120" style="stroke:#0F172A;stroke-width:1;"/><?plantuml-src bLPjRzis4FxENt70lgI0PITDqcOoWY6pqpHOa0HEitmn4D3YoU92aIf9sVE6_lSUHTbMNAVOO1YMoEEzFFVSGxiNgIjkUGckuC8ifPv3pfL3vZOxCvwzpAsfjHWPPIpyacVq4HqBWJclbVzajB_b9S9dL0lqCkFxRHxaFmX79vrDRgrPjjuFywEFxxidjV7u-myvvFb7yM7NobY1jhMOdPmU7_wwOn72j_l7noT7fwUT_SPzPgn62qSVc9TU8LnaNYwaNq42N9I32r5Ei4GXkPT6JshzuFcy2nPVs__BO0zoPpdFix3JpRIj623VPhTPer2bqU870F0zdkM77OEknoDnWk9ik_bfZsFdkVMxzhZnlx6RyHsltrXpbAKFuGToQnhsM1IGAxESwlWoeDXpWiGDudjYCJCwamgJDKXzjvWFMNfZk21-E1bSx4SON8KPS2t8k-U-TZ7i7_KCgLyU7RcPe3F4ExWRNOVYFC92ygc-Gl-6pwNqnLJVIFUM0Ks22Zqavu-ESiXudXibdea9uMktHsmTyfhZLETIURGECbCI8to9sZzBqMipMXQeGu9ZKCQyrDLK4x0pgKMoe4ErIpABmKuZ2WUAKWCRogf3a26JEHo4CckR8U3VjEr-UmS-E3rOeNj7ULOYdA-uBo2Zz1t4bVqLKc5NDRS2ojhp6T4zbwWei92kKdprhCCqDwZdXa8c6fThazVr3HcIQC21DfJ3ADRGoI6kl9K3aKxcrBzQGsNDGXAFeK1LXHz2oKrrHENSvxOjlXyzhh7eJNLdxubBqXdxPEpB1B_MwFmJTVgIDCP-fc8KYTnKKzx4m7EF9LLAsGPE6dq-cbnUVBaS3wUwRd3hnen8hcEIYK25hqt6pSh6XAKNLQLMrCFA9BpsXGaKTqZrUAYCajcAP4a7mtWoWbOxT10NzcCsrO6xvFPhtGmD4HtUvhcnFsMvDp2-lBcagWbeGmIs9OzqI--j-GiplmtK3X-XI3pGN96IsxQGgQQYkDH9JSYgfFL4SnzHQWQKcb5JFcsV7GMXNlIWWRfvej4foMzu6PBCc8e5rGOhvuLdhSYqkfAo_wKphADMD31hnTeORvMRYcD1RcHJteQIIL02EZ6QF8vxi2IEzQ9f0qbIHQYe998ome5ONw35FXkHzbgZ57bGXiPX6sYTEDqiWeLPJw8eG26rTxrNF9582n59LhGaRkA3gMZwQJnBSZtdbUipRhC2_Qf2qcwV5IbHW-uqecwWdbr86kIIQsgzPTacEGUTclS25AZ96jwrqMpeD0c4MP9xLyYgprh_QRWicLFrl7dQ8vICRaoHlg7ssmfIcAzpJtPpZy0FDZnCjpGTi9zoaTd8nFI_y91jDAcHS9T2gz7taxi_hn-kxswlRw-6yIoon_lnnPTc8OQAeqKBh9NOGQEajxXCNwliO4THMTFNqD2qaGZsqDu-K59f58lJ7AdLC6YBubcypJhzJ9fsvZBRj2cc3pEa331KLPe0UZ_eR_Fdw3i0?></g></svg>