<?plantuml 1.2026.1?><svg xmlns="http://www.w3.org/2000/svg" xmlns:xlink="http://www.w3.org/1999/xlink" contentStyleType="text/css" data-diagram-type="ACTIVITY" height="1413px" preserveAspectRatio="none" style="width:743px;height:1413px;background:#FCFCFD;" version="1.1" viewBox="0 0 743 1413" width="743px" zoomAndPan="magnify"><title>Activity - databasemanagement/DatabaseManagementCloudClusterInstance</title><defs/><g><rect fill="#FCFCFD" height="1413" style="stroke:none;stroke-width:1;" width="743" x="0" y="0"/><g class="title" data-source-line="10"><text fill="#000000" font-family="Helvetica" font-size="14" font-weight="bold" lengthAdjust="spacing" textLength="506.4746" x="117.212" y="30.7803">Activity - databasemanagement/DatabaseManagementCloudClusterInstance</text></g><ellipse cx="360.8586" cy="55" fill="#1D4ED8" rx="10" ry="10" style="stroke:#222222;stroke-width:1;"/><rect fill="#F8FAFC" height="48" rx="8" ry="8" style="stroke:#0F172A;stroke-width:0.5;" width="304.7852" x="208.4661" y="85"/><text fill="#0F172A" font-family="Helvetica" font-size="14" lengthAdjust="spacing" textLength="136.9375" x="218.4661" y="105.7803">Start from shared flow</text><text fill="#0F172A" font-family="Helvetica" font-size="14" lengthAdjust="spacing" textLength="284.7852" x="218.4661" y="119.7803">shared/diagrams/shared-reconcile-activity.svg</text><rect fill="#F8FAFC" height="62" rx="8" ry="8" style="stroke:#0F172A;stroke-width:0.5;" width="328.957" x="196.3801" y="153"/><text fill="#0F172A" font-family="Helvetica" font-size="14" lengthAdjust="spacing" textLength="80.9512" x="206.3801" y="173.7803">Load desired</text><text fill="#0F172A" font-family="Helvetica" font-size="14" lengthAdjust="spacing" textLength="308.957" x="206.3801" y="187.7803">DatabaseManagementCloudClusterInstance spec</text><text fill="#0F172A" font-family="Helvetica" font-size="14" lengthAdjust="spacing" textLength="171.9854" x="206.3801" y="201.7803">and status from Kubernetes</text><rect fill="#F8FAFC" height="76" rx="8" ry="8" style="stroke:#0F172A;stroke-width:0.5;" width="346.8467" x="187.4353" y="235"/><text fill="#0F172A" font-family="Helvetica" font-size="14" lengthAdjust="spacing" textLength="135.3857" x="197.4353" y="255.7803">Resolve OCI state via</text><text fill="#0F172A" font-family="Helvetica" font-size="14" lengthAdjust="spacing" textLength="326.8467" x="197.4353" y="269.7803">GetDatabaseManagementCloudClusterInstance with</text><text fill="#0F172A" font-family="Helvetica" font-size="14" lengthAdjust="spacing" textLength="297.2813" x="197.4353" y="283.7803">ListDatabaseManagementCloudClusterInstance</text><text fill="#0F172A" font-family="Helvetica" font-size="14" lengthAdjust="spacing" textLength="47.4688" x="197.4353" y="297.7803">fallback</text><rect fill="#F8FAFC" height="76" rx="8" ry="8" style="stroke:#0F172A;stroke-width:0.5;" width="489.3145" x="116.2014" y="331"/><text fill="#0F172A" font-family="Helvetica" font-size="14" lengthAdjust="spacing" textLength="24.8965" x="126.2014" y="351.7803">Use</text><text fill="#0F172A" font-family="Helvetica" font-size="14" lengthAdjust="spacing" textLength="469.3145" x="126.2014" y="365.7803">scaffold_databasemanagement_databasemanagementcloudclusterinstance</text><text fill="#0F172A" font-family="Helvetica" font-size="14" lengthAdjust="spacing" textLength="297.2402" x="126.2014" y="379.7803">filters compartment_id, state when OCID lookup</text><text fill="#0F172A" font-family="Helvetica" font-size="14" lengthAdjust="spacing" textLength="259.9023" x="126.2014" y="393.7803">or bind-versus-create needs list resolution</text><polygon fill="#E2E8F0" points="307.1692,427,414.5481,427,426.5481,439,414.5481,451,307.1692,451,295.1692,439,307.1692,427" style="stroke:#1D4ED8;stroke-width:0.5;"/><text fill="#0F172A" font-family="Helvetica" font-size="14" lengthAdjust="spacing" textLength="107.3789" x="307.1692" y="442.7803">Resource exists?</text><text fill="#000000" font-family="Helvetica" font-size="14" lengthAdjust="spacing" textLength="21.7861" x="273.3831" y="435.7803">yes</text><text fill="#000000" font-family="Helvetica" font-size="14" lengthAdjust="spacing" textLength="15.5723" x="426.5481" y="435.7803">no</text><rect fill="#F8FAFC" height="48" rx="8" ry="8" style="stroke:#0F172A;stroke-width:0.5;" width="340.6396" x="11" y="461"/><text fill="#0F172A" font-family="Helvetica" font-size="14" lengthAdjust="spacing" textLength="108.1787" x="21" y="481.7803">Update path calls</text><text fill="#0F172A" font-family="Helvetica" font-size="14" lengthAdjust="spacing" textLength="320.6396" x="21" y="495.7803">UpdateDatabaseManagementCloudClusterInstance</text><rect fill="#F8FAFC" height="48" rx="8" ry="8" style="stroke:#0F172A;stroke-width:0.5;" width="266.7021" x="47.9688" y="529"/><text fill="#0F172A" font-family="Helvetica" font-size="14" lengthAdjust="spacing" textLength="246.7021" x="57.9688" y="549.7803">Guard mutable fields display_name and</text><text fill="#0F172A" font-family="Helvetica" font-size="14" lengthAdjust="spacing" textLength="202.3096" x="57.9688" y="563.7803">force-new fields compartment_id</text><rect fill="#F8FAFC" height="48" rx="8" ry="8" style="stroke:#0F172A;stroke-width:0.5;" width="337.5156" x="371.6396" y="461"/><text fill="#0F172A" font-family="Helvetica" font-size="14" lengthAdjust="spacing" textLength="105.0547" x="381.6396" y="481.7803">Create path calls</text><text fill="#0F172A" font-family="Helvetica" font-size="14" lengthAdjust="spacing" textLength="317.5156" x="381.6396" y="495.7803">CreateDatabaseManagementCloudClusterInstance</text><polygon fill="#E2E8F0" points="360.8586,583,372.8586,595,360.8586,607,348.8586,595,360.8586,583" style="stroke:#1D4ED8;stroke-width:0.5;"/><rect fill="#F8FAFC" height="104" rx="8" ry="8" style="stroke:#0F172A;stroke-width:0.5;" width="334.3164" x="193.7004" y="627"/><text fill="#0F172A" font-family="Helvetica" font-size="14" lengthAdjust="spacing" textLength="164.2061" x="203.7004" y="647.7803">Run provider helper hooks</text><text fill="#0F172A" font-family="Helvetica" font-size="14" lengthAdjust="spacing" textLength="219.0508" x="203.7004" y="661.7803">create=tfresource.CreateResource,</text><text fill="#0F172A" font-family="Helvetica" font-size="14" lengthAdjust="spacing" textLength="314.3164" x="203.7004" y="675.7803">tfresource.WaitForWorkRequestWithErrorHandling</text><text fill="#0F172A" font-family="Helvetica" font-size="14" lengthAdjust="spacing" textLength="215.5439" x="203.7004" y="689.7803">entity=template action=CREATED;</text><text fill="#0F172A" font-family="Helvetica" font-size="14" lengthAdjust="spacing" textLength="226.085" x="203.7004" y="703.7803">update=tfresource.UpdateResource;</text><text fill="#0F172A" font-family="Helvetica" font-size="14" lengthAdjust="spacing" textLength="212.8438" x="203.7004" y="717.7803">delete=tfresource.DeleteResource</text><rect fill="#F8FAFC" height="34" rx="8" ry="8" style="stroke:#0F172A;stroke-width:0.5;" width="263.5918" x="229.0627" y="751"/><text fill="#0F172A" font-family="Helvetica" font-size="14" lengthAdjust="spacing" textLength="243.5918" x="239.0627" y="771.7803">Apply repo-authored secret policy none</text><rect fill="#F8FAFC" height="104" rx="8" ry="8" style="stroke:#0F172A;stroke-width:0.5;" width="335.9639" x="192.8767" y="805"/><text fill="#0F172A" font-family="Helvetica" font-size="14" lengthAdjust="spacing" textLength="105.0684" x="202.8767" y="825.7803">Delete path uses</text><text fill="#0F172A" font-family="Helvetica" font-size="14" lengthAdjust="spacing" textLength="315.9639" x="202.8767" y="839.7803">DeleteDatabaseManagementCloudClusterInstance</text><text fill="#0F172A" font-family="Helvetica" font-size="14" lengthAdjust="spacing" textLength="101.9375" x="202.8767" y="853.7803">with required via</text><text fill="#0F172A" font-family="Helvetica" font-size="14" lengthAdjust="spacing" textLength="314.3984" x="202.8767" y="867.7803">GetDatabaseManagementCloudClusterInstance or</text><text fill="#0F172A" font-family="Helvetica" font-size="14" lengthAdjust="spacing" textLength="312.8467" x="202.8767" y="881.7803">ListDatabaseManagementCloudClusterInstance to</text><text fill="#0F172A" font-family="Helvetica" font-size="14" lengthAdjust="spacing" textLength="144.7168" x="202.8767" y="895.7803">DELETED confirmation</text><rect fill="#F8FAFC" height="48" rx="8" ry="8" style="stroke:#0F172A;stroke-width:0.5;" width="279.1299" x="221.2937" y="929"/><text fill="#0F172A" font-family="Helvetica" font-size="14" lengthAdjust="spacing" textLength="259.1299" x="231.2937" y="949.7803">Project required status and finalizer policy</text><text fill="#0F172A" font-family="Helvetica" font-size="14" lengthAdjust="spacing" textLength="174.3027" x="231.2937" y="963.7803">retain-until-confirmed-delete</text><rect fill="#F8FAFC" height="34" rx="8" ry="8" style="stroke:#0F172A;stroke-width:0.5;" width="313.4189" x="204.1492" y="997"/><text fill="#0F172A" font-family="Helvetica" font-size="14" lengthAdjust="spacing" textLength="293.4189" x="214.1492" y="1017.7803">Requeue on provisioning, updating, terminating</text><path d="M391.8586,1041 L391.8586,1217 L371.8586,1221 L391.8586,1225 L391.8586,1401 A0,0 0 0 0 391.8586,1401 L731.8987,1401 A0,0 0 0 0 731.8987,1401 L731.8987,1051 L721.8987,1041 L391.8586,1041 A0,0 0 0 0 391.8586,1041" fill="#FFF7D6" style="stroke:#B45309;stroke-width:0.5;"/><path d="M721.8987,1041 L721.8987,1051 L731.8987,1051 L721.8987,1041" fill="#FFF7D6" style="stroke:#B45309;stroke-width:0.5;"/><text fill="#334155" font-family="Helvetica" font-size="14" lengthAdjust="spacing" textLength="101.165" x="397.8586" y="1056.7803">shared diagram:</text><text fill="#334155" font-family="Helvetica" font-size="14" lengthAdjust="spacing" textLength="284.7852" x="397.8586" y="1070.7803">shared/diagrams/shared-reconcile-activity.svg</text><text fill="#334155" font-family="Helvetica" font-size="14" lengthAdjust="spacing" textLength="265.3438" x="397.8586" y="1084.7803">Start from the shared reconcile activity and</text><text fill="#334155" font-family="Helvetica" font-size="14" lengthAdjust="spacing" textLength="273.8955" x="397.8586" y="1098.7803">specialize provider-backed CRUD, wait, and</text><text fill="#334155" font-family="Helvetica" font-size="14" lengthAdjust="spacing" textLength="182.875" x="397.8586" y="1112.7803">status-projection details here.</text><text fill="#334155" font-family="Helvetica" font-size="14" lengthAdjust="spacing" textLength="229.5371" x="397.8586" y="1126.7803">Controller-local activity diagrams add</text><text fill="#334155" font-family="Helvetica" font-size="14" lengthAdjust="spacing" textLength="238.8955" x="397.8586" y="1140.7803">list-lookup hints, secret policies, delete</text><text fill="#334155" font-family="Helvetica" font-size="14" lengthAdjust="spacing" textLength="200.0332" x="397.8586" y="1154.7803">handling, and open formal gaps.</text><text fill="#334155" font-family="Helvetica" font-size="14" lengthAdjust="spacing" textLength="281.709" x="397.8586" y="1168.7803">archetype batch: Generated service-manager</text><text fill="#334155" font-family="Helvetica" font-size="14" lengthAdjust="spacing" textLength="291.0469" x="397.8586" y="1182.7803">controllers specialize the shared reconcile path</text><text fill="#334155" font-family="Helvetica" font-size="14" lengthAdjust="spacing" textLength="189.8477" x="397.8586" y="1196.7803">with formal runtime ownership.</text><text fill="#334155" font-family="Helvetica" font-size="14" lengthAdjust="spacing" textLength="191.4473" x="397.8586" y="1210.7803">service: databasemanagement</text><text fill="#334155" font-family="Helvetica" font-size="14" lengthAdjust="spacing" textLength="299.6328" x="397.8586" y="1224.7803">slug: databasemanagementcloudclusterinstance</text><text fill="#334155" font-family="Helvetica" font-size="14" lengthAdjust="spacing" textLength="308.957" x="397.8586" y="1238.7803">kind: DatabaseManagementCloudClusterInstance</text><text fill="#334155" font-family="Helvetica" font-size="14" lengthAdjust="spacing" textLength="241.2402" x="397.8586" y="1252.7803">archetype: generated-service-manager</text><text fill="#334155" font-family="Helvetica" font-size="14" lengthAdjust="spacing" textLength="156.4063" x="397.8586" y="1266.7803">status/finalizer: required /</text><text fill="#334155" font-family="Helvetica" font-size="14" lengthAdjust="spacing" textLength="174.3027" x="397.8586" y="1280.7803">retain-until-confirmed-delete</text><text fill="#334155" font-family="Helvetica" font-size="14" lengthAdjust="spacing" textLength="272.3984" x="397.8586" y="1294.7803">requeue: provisioning, updating, terminating</text><text fill="#334155" font-family="Helvetica" font-size="14" lengthAdjust="spacing" textLength="295.6816" x="397.8586" y="1308.7803">provider states: create PROVISIONING; update</text><text fill="#334155" font-family="Helvetica" font-size="14" lengthAdjust="spacing" textLength="192.165" x="397.8586" y="1322.7803">UPDATING; delete DELETING</text><text fill="#334155" font-family="Helvetica" font-size="14" lengthAdjust="spacing" textLength="319.04" x="397.8586" y="1336.7803">mutable/forceNew: display_name / compartment_id</text><text fill="#334155" font-family="Helvetica" font-size="14" lengthAdjust="spacing" textLength="104.3164" x="397.8586" y="1350.7803">open gaps: none</text><text fill="#334155" font-family="Helvetica" font-size="14" lengthAdjust="spacing" textLength="224.9023" x="397.8586" y="1364.7803">Scaffold metadata only; replace with</text><text fill="#334155" font-family="Helvetica" font-size="14" lengthAdjust="spacing" textLength="244.3232" x="397.8586" y="1378.7803">controller-specific runtime states before</text><text fill="#334155" font-family="Helvetica" font-size="14" lengthAdjust="spacing" textLength="66.1445" x="397.8586" y="1392.7803">promotion.</text><ellipse cx="360.8586" cy="1221" fill="none" rx="11" ry="11" style="stroke:#222222;stroke-width:1;"/><ellipse cx="360.8586" cy="1221" fill="#222222" rx="6" ry="6" style="stroke:#222222;stroke-width:1;"/><line style="stroke:#0F172A;stroke-width:1;" x1="360.8586" x2="360.8586" y1="65" y2="85"/><polygon fill="#0F172A" points="356.8586,75,360.8586,85,364.8586,75,360.8586,79" style="stroke:#0F172A;stroke-width:1;"/><line style="stroke:#0F172A;stroke-width:1;" x1="360.8586" x2="360.8586" y1="133" y2="153"/><polygon fill="#0F172A" points="356.8586,143,360.8586,153,364.8586,143,360.8586,147" style="stroke:#0F172A;stroke-width:1;"/><line style="stroke:#0F172A;stroke-width:1;" x1="360.8586" x2="360.8586" y1="215" y2="235"/><polygon fill="#0F172A" points="356.8586,225,360.8586,235,364.8586,225,360.8586,229" style="stroke:#0F172A;stroke-width:1;"/><line style="stroke:#0F172A;stroke-width:1;" x1="360.8586" x2="360.8586" y1="311" y2="331"/><polygon fill="#0F172A" points="356.8586,321,360.8586,331,364.8586,321,360.8586,325" style="stroke:#0F172A;stroke-width:1;"/><line style="stroke:#0F172A;stroke-width:1;" x1="181.3198" x2="181.3198" y1="509" y2="529"/><polygon fill="#0F172A" points="177.3198,519,181.3198,529,185.3198,519,181.3198,523" style="stroke:#0F172A;stroke-width:1;"/><line style="stroke:#0F172A;stroke-width:1;" x1="295.1692" x2="181.3198" y1="439" y2="439"/><line style="stroke:#0F172A;stroke-width:1;" x1="181.3198" x2="181.3198" y1="439" y2="461"/><polygon fill="#0F172A" points="177.3198,451,181.3198,461,185.3198,451,181.3198,455" style="stroke:#0F172A;stroke-width:1;"/><line style="stroke:#0F172A;stroke-width:1;" x1="426.5481" x2="540.3975" y1="439" y2="439"/><line style="stroke:#0F172A;stroke-width:1;" x1="540.3975" x2="540.3975" y1="439" y2="461"/><polygon fill="#0F172A" points="536.3975,451,540.3975,461,544.3975,451,540.3975,455" style="stroke:#0F172A;stroke-width:1;"/><line style="stroke:#0F172A;stroke-width:1;" x1="181.3198" x2="181.3198" y1="577" y2="595"/><line style="stroke:#0F172A;stroke-width:1;" x1="181.3198" x2="348.8586" y1="595" y2="595"/><polygon fill="#0F172A" points="338.8586,591,348.8586,595,338.8586,599,342.8586,595" style="stroke:#0F172A;stroke-width:1;"/><line style="stroke:#0F172A;stroke-width:1;" x1="540.3975" x2="540.3975" y1="509" y2="595"/><line style="stroke:#0F172A;stroke-width:1;" x1="540.3975" x2="372.8586" y1="595" y2="595"/><polygon fill="#0F172A" points="382.8586,591,372.8586,595,382.8586,599,378.8586,595" style="stroke:#0F172A;stroke-width:1;"/><line style="stroke:#0F172A;stroke-width:1;" x1="360.8586" x2="360.8586" y1="407" y2="427"/><polygon fill="#0F172A" points="356.8586,417,360.8586,427,364.8586,417,360.8586,421" style="stroke:#0F172A;stroke-width:1;"/><line style="stroke:#0F172A;stroke-width:1;" x1="360.8586" x2="360.8586" y1="607" y2="627"/><polygon fill="#0F172A" points="356.8586,617,360.8586,627,364.8586,617,360.8586,621" style="stroke:#0F172A;stroke-width:1;"/><line style="stroke:#0F172A;stroke-width:1;" x1="360.8586" x2="360.8586" y1="731" y2="751"/><polygon fill="#0F172A" points="356.8586,741,360.8586,751,364.8586,741,360.8586,745" style="stroke:#0F172A;stroke-width:1;"/><line style="stroke:#0F172A;stroke-width:1;" x1="360.8586" x2="360.8586" y1="785" y2="805"/><polygon fill="#0F172A" points="356.8586,795,360.8586,805,364.8586,795,360.8586,799" style="stroke:#0F172A;stroke-width:1;"/><line style="stroke:#0F172A;stroke-width:1;" x1="360.8586" x2="360.8586" y1="909" y2="929"/><polygon fill="#0F172A" points="356.8586,919,360.8586,929,364.8586,919,360.8586,923" style="stroke:#0F172A;stroke-width:1;"/><line style="stroke:#0F172A;stroke-width:1;" x1="360.8586" x2="360.8586" y1="977" y2="997"/><polygon fill="#0F172A" points="356.8586,987,360.8586,997,364.8586,987,360.8586,991" style="stroke:#0F172A;stroke-width:1;"/><line style="stroke:#0F172A;stroke-width:1;" x1="360.8586" x2="360.8586" y1="1031" y2="1210"/><polygon fill="#0F172A" points="356.8586,1200,360.8586,1210,364.8586,1200,360.8586,1204" style="stroke:#0F172A;stroke-width:1;"/><?plantuml-src bLRVJoCt47xtNs6fBvoKJU20ExeHgcZ2SQWK41pbPQMJOyzcNRpsdkrDcbRztpjURpPBYAeW7c3jyVpuvfjlS2zILyooahg22REKUavpfXmGrztC67-PMrDhCJ7AMFfJpl57z2m4vAnM_elH_fQLGB-2Me2NdEssUPH_0pqwwLqoQysozNwO7tt-s7-fZOTVt-IGvv_5fsqhOmNOrc9sSdfy-FEMHGZVtXyVdnoTdlRk6_VSM0sM7dqYNde5z89xkP1-HHCgc6Spvg1acisX1Er7q_Rez-veeamj9gfs7korTfvftiUIhTtzG-WEOCzoblDmqo-a1OJIV9DyToOaAuqMR_21Zt2M7_OC-XwFn0c8iytbbnsECNNhj-sXyz_PpTYMrtz9yvIaZ-4NpQrfo6L1q5oPPQRZnmXZpn4IDuhVYGLkD9SAaZL8GxUOZqbwOvX0-ZY9LfdU3tBgAk2PPbg4GdpjOXw_rJF0_dfmwFS1d46Uqhl9TMC4T25Pfg_0xnbZANsHwHlfzdoGQHmj5RgEqPySVZlEyjmeyVqjjtOSyU2JHvzourCg_7QKcn8vvfktKWpQafO5w53Xb2fZNkegqzYgcTGYMU2ZsYNSGh3J0C9HXRLG6t2flJHwJ6HE3m9EjSLwuI-yThzye3uuFLY1-u1rL2AyhvWlACVoNARZqNwO819NDRE2bZMQuy3b4XHc8gIh55jzrq5Fi8rOfy4S4WtBjSdhWiS4KBReWJQOr2GMrKyg7ksR519TvaYHMjFAceN4sQ45g2hyGXpHNyJjtEUsXMSO8wpH6cIwT_VC94gVVJRsvG5-rE3yCvBd4cNFViNg5EfkfZ4RPFsvXn9Bn_J371XzFdculFXsEHrdkcw0xSUCKAzZeea01QzDfir9PqBIYwfIA-noPH9M-yA4oNI0zNXQ6INv2fLI1yFuCg9OEy2Yuyc-R0_pWN5-r65otpjSnhvdjAWtcDtbpIK2XSJ0eR0bYnHExwtv4xZVPD8gGX27N6gcS1tPjlHC8mnCwgJ6NgYazOJg575jL0FRLsD-BJCS1i7k3MZJdEOlpAj4l-5ZZ69eAX9M3xLoNdZIIc6hVYbvbngIdgRY4AvrjJFUx1SiZWGDb4rv7OcJe3xuOlBmD1tG9R9o44qRI98gGeKbeU0Y3ieXwoqCoGGtX3LAeGTbSA8sWTQ9KoO42VgHHA6XXTJU3LunIm8UH2H9qTA-YKzDXOg24rwYwpcht90momlmgmfmmtXUfFGAS34ZsGDPxKAY5aHbj8HtoJdQgtadG87Cf25c6ys6JgF6c2MwTuMiXgJrd-xO-CIfUhxhOfSs4rpx8gLx_fFG5PpI-RhKPBlKsATHHzjqm-eH-L_g4Xk9c-v3MzA9NhD5N4hRDN7_SFV7zUFrtUtrxTKulWNoT3-z-DOSn52q6KGy8AseZnhjleLb-bhNHriQJXeQXFwdZGQHntO_qX9B2w3ZsAdLE8YNOkq6xhK_QRgVIzvrDQPFPu0PGAYgD87Tmo3mpJ-4_m40?></g></svg>