<?plantuml 1.2026.1?><svg xmlns="http://www.w3.org/2000/svg" xmlns:xlink="http://www.w3.org/1999/xlink" contentStyleType="text/css" data-diagram-type="SEQUENCE" height="1329px" preserveAspectRatio="none" style="width:1223px;height:1329px;background:#FCFCFD;" version="1.1" viewBox="0 0 1223 1329" width="1223px" zoomAndPan="magnify"><title>Sequence - database/AutonomousExadataInfrastructureShape</title><defs/><g><rect fill="#FCFCFD" height="1329" style="stroke:none;stroke-width:1;" width="1223" x="0" y="0"/><text fill="#000000" font-family="Helvetica" font-size="14" font-weight="bold" lengthAdjust="spacing" textLength="416.2129" x="404.7285" y="25.7803">Sequence - database/AutonomousExadataInfrastructureShape</text><rect fill="none" height="86" rx="8" ry="8" style="stroke:#CBD5E1;stroke-width:1.5;" width="458.3638" x="748.3062" y="361"/><rect fill="none" height="204" rx="8" ry="8" style="stroke:#CBD5E1;stroke-width:1.5;" width="478.3638" x="738.3062" y="461"/><rect fill="none" height="44" rx="8" ry="8" style="stroke:#CBD5E1;stroke-width:1.5;" width="458.3638" x="748.3062" y="512"/><rect fill="none" height="44" rx="8" ry="8" style="stroke:#CBD5E1;stroke-width:1.5;" width="458.3638" x="748.3062" y="614"/><rect fill="none" height="130" rx="8" ry="8" style="stroke:#CBD5E1;stroke-width:1.5;" width="478.3638" x="738.3062" y="679"/><rect fill="none" height="72" rx="8" ry="8" style="stroke:#CBD5E1;stroke-width:1.5;" width="458.3638" x="748.3062" y="730"/><g class="participant-lifeline" data-entity-uid="part1" data-qualified-name="Kubernetes" id="part1-lifeline"><g><title>Kubernetes</title><rect fill="#000000" fill-opacity="0.00000" height="1208" width="8" x="39.8032" y="114"/><line style="stroke:#94A3B8;stroke-width:0.5;stroke-dasharray:5,5;" x1="43" x2="43" y1="114" y2="1322"/></g></g><g class="participant-lifeline" data-entity-uid="part2" data-qualified-name="Controller" id="part2-lifeline"><g><title>Controller</title><rect fill="#000000" fill-opacity="0.00000" height="1208" width="8" x="316.7397" y="114"/><line style="stroke:#94A3B8;stroke-width:0.5;stroke-dasharray:5,5;" x1="320.395" x2="320.395" y1="114" y2="1322"/></g></g><g class="participant-lifeline" data-entity-uid="part3" data-qualified-name="BaseReconciler" id="part3-lifeline"><g><title>BaseReconciler</title><rect fill="#000000" fill-opacity="0.00000" height="1208" width="8" x="555.5659" y="114"/><line style="stroke:#94A3B8;stroke-width:0.5;stroke-dasharray:5,5;" x1="559.542" x2="559.542" y1="114" y2="1322"/></g></g><g class="participant-lifeline" data-entity-uid="part4" data-qualified-name="ServiceManager" id="part4-lifeline"><g><title>OSOKServiceManager</title><rect fill="#000000" fill-opacity="0.00000" height="1208" width="8" x="832.5024" y="114"/><line style="stroke:#94A3B8;stroke-width:0.5;stroke-dasharray:5,5;" x1="836.3062" x2="836.3062" y1="114" y2="1322"/></g></g><g class="participant-lifeline" data-entity-uid="part5" data-qualified-name="OCI" id="part5-lifeline"><g><title>OCI</title><rect fill="#000000" fill-opacity="0.00000" height="1208" width="8" x="1173.2251" y="114"/><line style="stroke:#94A3B8;stroke-width:0.5;stroke-dasharray:5,5;" x1="1176.7803" x2="1176.7803" y1="114" y2="1322"/></g></g><g class="participant participant-head" data-entity-uid="part1" data-qualified-name="Kubernetes" id="part1-head"><text fill="#000000" font-family="Helvetica" font-size="14" lengthAdjust="spacing" textLength="71.6064" x="5" y="110.7803">Kubernetes</text><ellipse cx="43.8032" cy="48.5" fill="#E2E8F0" rx="8" ry="8" style="stroke:#0F172A;stroke-width:0.5;"/><path d="M43.8032,56.5 L43.8032,83.5 M30.8032,64.5 L56.8032,64.5 M43.8032,83.5 L30.8032,98.5 M43.8032,83.5 L56.8032,98.5" fill="none" style="stroke:#0F172A;stroke-width:0.5;"/></g><g class="participant participant-head" data-entity-uid="part2" data-qualified-name="Controller" id="part2-head"><rect fill="#E2E8F0" height="28" rx="8" ry="8" style="stroke:#0F172A;stroke-width:0.5;" width="74.6895" x="283.395" y="85"/><text fill="#0F172A" font-family="Helvetica" font-size="14" lengthAdjust="spacing" textLength="60.6895" x="290.395" y="102.7803">Controller</text></g><g class="participant participant-head" data-entity-uid="part3" data-qualified-name="BaseReconciler" id="part3-head"><rect fill="#E2E8F0" height="28" rx="8" ry="8" style="stroke:#0F172A;stroke-width:0.5;" width="112.0479" x="503.542" y="85"/><text fill="#0F172A" font-family="Helvetica" font-size="14" lengthAdjust="spacing" textLength="98.0479" x="510.542" y="102.7803">BaseReconciler</text></g><g class="participant participant-head" data-entity-uid="part4" data-qualified-name="ServiceManager" id="part4-head"><rect fill="#E2E8F0" height="28" rx="8" ry="8" style="stroke:#0F172A;stroke-width:0.5;" width="156.3926" x="758.3062" y="85"/><text fill="#0F172A" font-family="Helvetica" font-size="14" lengthAdjust="spacing" textLength="142.3926" x="765.3062" y="102.7803">OSOKServiceManager</text></g><g class="participant participant-head" data-entity-uid="part5" data-qualified-name="OCI" id="part5-head"><rect fill="#E2E8F0" height="28" rx="8" ry="8" style="stroke:#0F172A;stroke-width:0.5;" width="38.8896" x="1157.7803" y="85"/><text fill="#0F172A" font-family="Helvetica" font-size="14" lengthAdjust="spacing" textLength="24.8896" x="1164.7803" y="102.7803">OCI</text></g><path d="M494,137 L494,187 A8,8 0 0 0 502,195 L892,195 A8,8 0 0 0 900,187 L900,139 L890,129 L502,129 A8,8 0 0 0 494,137" fill="#FFF7D6" style="stroke:#B45309;stroke-width:0.5;"/><path d="M890,129 L890,135 A4,4 0 0 0 894,139 L900,139 L890,129" fill="#FFF7D6" style="stroke:#B45309;stroke-width:0.5;"/><text fill="#334155" font-family="Helvetica" font-size="14" lengthAdjust="spacing" textLength="111.2891" x="538.8826" y="144.7803">shared resolution:</text><text fill="#334155" font-family="Helvetica" font-size="14" lengthAdjust="spacing" textLength="307.3916" x="538.8826" y="158.7803">shared/diagrams/shared-resolution-sequence.svg</text><text fill="#334155" font-family="Helvetica" font-size="14" lengthAdjust="spacing" textLength="88.7305" x="538.8826" y="172.7803">shared delete:</text><text fill="#334155" font-family="Helvetica" font-size="14" lengthAdjust="spacing" textLength="284.833" x="538.8826" y="186.7803">shared/diagrams/shared-delete-sequence.svg</text><g class="message" data-entity-1="part1" data-entity-2="part2" id="msg1"><polygon fill="#0F172A" points="308.7397,244,318.7397,248,308.7397,252,312.7397,248" style="stroke:#0F172A;stroke-width:1;"/><line style="stroke:#0F172A;stroke-width:1;" x1="43.8032" x2="314.7397" y1="248" y2="248"/><text fill="#000000" font-family="Helvetica" font-size="14" lengthAdjust="spacing" textLength="54.5029" x="50.8032" y="214.7803">enqueue</text><text fill="#000000" font-family="Helvetica" font-size="14" lengthAdjust="spacing" textLength="252.9365" x="50.8032" y="228.7803">AutonomousExadataInfrastructureShape</text><text fill="#000000" font-family="Helvetica" font-size="14" lengthAdjust="spacing" textLength="56.0273" x="50.8032" y="242.7803">reconcile</text></g><g class="message" data-entity-1="part2" data-entity-2="part3" id="msg2"><polygon fill="#0F172A" points="547.5659,272,557.5659,276,547.5659,280,551.5659,276" style="stroke:#0F172A;stroke-width:1;"/><line style="stroke:#0F172A;stroke-width:1;" x1="320.7397" x2="553.5659" y1="276" y2="276"/><text fill="#000000" font-family="Helvetica" font-size="14" lengthAdjust="spacing" textLength="117.4961" x="327.7397" y="270.7803">Reconcile(request)</text></g><g class="message" data-entity-1="part3" data-entity-2="part4" id="msg3"><polygon fill="#0F172A" points="824.5024,314,834.5024,318,824.5024,322,828.5024,318" style="stroke:#0F172A;stroke-width:1;"/><line style="stroke:#0F172A;stroke-width:1;" x1="559.5659" x2="830.5024" y1="318" y2="318"/><text fill="#000000" font-family="Helvetica" font-size="14" lengthAdjust="spacing" textLength="105.834" x="566.5659" y="298.7803">reconcile desired</text><text fill="#000000" font-family="Helvetica" font-size="14" lengthAdjust="spacing" textLength="252.9365" x="566.5659" y="312.7803">AutonomousExadataInfrastructureShape</text></g><g class="message" data-entity-1="part4" data-entity-2="part5" id="msg4"><polygon fill="#0F172A" points="1165.2251,342,1175.2251,346,1165.2251,350,1169.2251,346" style="stroke:#0F172A;stroke-width:1;"/><line style="stroke:#0F172A;stroke-width:1;" x1="836.5024" x2="1171.2251" y1="346" y2="346"/><text fill="#000000" font-family="Helvetica" font-size="14" lengthAdjust="spacing" textLength="275.502" x="843.5024" y="340.7803">GetAutonomousExadataInfrastructureShape</text></g><path d="M756.3062,361 L815.0718,361 L815.0718,367 L805.0718,377 L748.3062,377 L748.3062,369 A8,8 0 0 1 756.3062,361" fill="#F8FAFC" style="stroke:#CBD5E1;stroke-width:1.5;"/><rect fill="none" height="86" rx="8" ry="8" style="stroke:#CBD5E1;stroke-width:1.5;" width="458.3638" x="748.3062" y="361"/><text fill="#000000" font-family="Helvetica" font-size="14" font-weight="bold" lengthAdjust="spacing" textLength="21.7656" x="763.3062" y="372.7803">opt</text><text fill="#000000" font-family="Helvetica" font-size="14" font-weight="bold" lengthAdjust="spacing" textLength="135.3516" x="830.0718" y="373.7803">[list lookup fallback]</text><g class="message" data-entity-1="part4" data-entity-2="part5" id="msg5"><polygon fill="#0F172A" points="1165.2251,407,1175.2251,411,1165.2251,415,1169.2251,411" style="stroke:#0F172A;stroke-width:1;"/><line style="stroke:#0F172A;stroke-width:1;" x1="836.5024" x2="1171.2251" y1="411" y2="411"/><text fill="#000000" font-family="Helvetica" font-size="14" lengthAdjust="spacing" textLength="316.7227" x="843.5024" y="391.7803">ListAutonomousExadataInfrastructureShape(filters:</text><text fill="#000000" font-family="Helvetica" font-size="14" lengthAdjust="spacing" textLength="143.1719" x="843.5024" y="405.7803">compartment_id, state)</text></g><g class="message" data-entity-1="part5" data-entity-2="part4" id="msg6"><polygon fill="#0F172A" points="847.5024,435,837.5024,439,847.5024,443,843.5024,439" style="stroke:#0F172A;stroke-width:1;"/><line style="stroke:#0F172A;stroke-width:1;stroke-dasharray:2,2;" x1="841.5024" x2="1176.2251" y1="439" y2="439"/><text fill="#000000" font-family="Helvetica" font-size="14" lengthAdjust="spacing" textLength="156.3994" x="853.5024" y="433.7803">matching collection items</text></g><path d="M746.3062,461 L799.644,461 L799.644,467 L789.644,477 L738.3062,477 L738.3062,469 A8,8 0 0 1 746.3062,461" fill="#F8FAFC" style="stroke:#CBD5E1;stroke-width:1.5;"/><rect fill="none" height="204" rx="8" ry="8" style="stroke:#CBD5E1;stroke-width:1.5;" width="478.3638" x="738.3062" y="461"/><text fill="#000000" font-family="Helvetica" font-size="14" font-weight="bold" lengthAdjust="spacing" textLength="16.3379" x="753.3062" y="472.7803">alt</text><text fill="#000000" font-family="Helvetica" font-size="14" font-weight="bold" lengthAdjust="spacing" textLength="135.3447" x="814.644" y="473.7803">[create or bind path]</text><g class="message" data-entity-1="part4" data-entity-2="part5" id="msg7"><polygon fill="#0F172A" points="1165.2251,493,1175.2251,497,1165.2251,501,1169.2251,497" style="stroke:#0F172A;stroke-width:1;"/><line style="stroke:#0F172A;stroke-width:1;" x1="836.5024" x2="1171.2251" y1="497" y2="497"/><text fill="#000000" font-family="Helvetica" font-size="14" lengthAdjust="spacing" textLength="294.957" x="843.5024" y="491.7803">CreateAutonomousExadataInfrastructureShape</text></g><path d="M756.3062,512 L822.8511,512 L822.8511,518 L812.8511,528 L748.3062,528 L748.3062,520 A8,8 0 0 1 756.3062,512" fill="#F8FAFC" style="stroke:#CBD5E1;stroke-width:1.5;"/><rect fill="none" height="44" rx="8" ry="8" style="stroke:#CBD5E1;stroke-width:1.5;" width="458.3638" x="748.3062" y="512"/><text fill="#000000" font-family="Helvetica" font-size="14" font-weight="bold" lengthAdjust="spacing" textLength="29.5449" x="763.3062" y="523.7803">loop</text><text fill="#000000" font-family="Helvetica" font-size="14" font-weight="bold" lengthAdjust="spacing" textLength="215.4756" x="837.8511" y="524.7803">[create pending PROVISIONING]</text><g class="message" data-entity-1="part4" data-entity-2="part5" id="msg8"><polygon fill="#0F172A" points="1165.2251,544,1175.2251,548,1165.2251,552,1169.2251,548" style="stroke:#0F172A;stroke-width:1;"/><line style="stroke:#0F172A;stroke-width:1;" x1="836.5024" x2="1171.2251" y1="548" y2="548"/><text fill="#000000" font-family="Helvetica" font-size="14" lengthAdjust="spacing" textLength="275.502" x="843.5024" y="542.7803">GetAutonomousExadataInfrastructureShape</text></g><line style="stroke:#CBD5E1;stroke-width:1;stroke-dasharray:2,2;" x1="738.3062" x2="1216.6699" y1="564" y2="564"/><text fill="#000000" font-family="Helvetica" font-size="14" font-weight="bold" lengthAdjust="spacing" textLength="137.6484" x="743.3062" y="574.7803">[update or drift path]</text><g class="message" data-entity-1="part4" data-entity-2="part5" id="msg9"><polygon fill="#0F172A" points="1165.2251,595,1175.2251,599,1165.2251,603,1169.2251,599" style="stroke:#0F172A;stroke-width:1;"/><line style="stroke:#0F172A;stroke-width:1;" x1="836.5024" x2="1171.2251" y1="599" y2="599"/><text fill="#000000" font-family="Helvetica" font-size="14" lengthAdjust="spacing" textLength="298.0811" x="843.5024" y="593.7803">UpdateAutonomousExadataInfrastructureShape</text></g><path d="M756.3062,614 L822.8511,614 L822.8511,620 L812.8511,630 L748.3062,630 L748.3062,622 A8,8 0 0 1 756.3062,614" fill="#F8FAFC" style="stroke:#CBD5E1;stroke-width:1.5;"/><rect fill="none" height="44" rx="8" ry="8" style="stroke:#CBD5E1;stroke-width:1.5;" width="458.3638" x="748.3062" y="614"/><text fill="#000000" font-family="Helvetica" font-size="14" font-weight="bold" lengthAdjust="spacing" textLength="29.5449" x="763.3062" y="625.7803">loop</text><text fill="#000000" font-family="Helvetica" font-size="14" font-weight="bold" lengthAdjust="spacing" textLength="190.5381" x="837.8511" y="626.7803">[update pending UPDATING]</text><g class="message" data-entity-1="part4" data-entity-2="part5" id="msg10"><polygon fill="#0F172A" points="1165.2251,646,1175.2251,650,1165.2251,654,1169.2251,650" style="stroke:#0F172A;stroke-width:1;"/><line style="stroke:#0F172A;stroke-width:1;" x1="836.5024" x2="1171.2251" y1="650" y2="650"/><text fill="#000000" font-family="Helvetica" font-size="14" lengthAdjust="spacing" textLength="275.502" x="843.5024" y="644.7803">GetAutonomousExadataInfrastructureShape</text></g><path d="M746.3062,679 L805.0718,679 L805.0718,685 L795.0718,695 L738.3062,695 L738.3062,687 A8,8 0 0 1 746.3062,679" fill="#F8FAFC" style="stroke:#CBD5E1;stroke-width:1.5;"/><rect fill="none" height="130" rx="8" ry="8" style="stroke:#CBD5E1;stroke-width:1.5;" width="478.3638" x="738.3062" y="679"/><text fill="#000000" font-family="Helvetica" font-size="14" font-weight="bold" lengthAdjust="spacing" textLength="21.7656" x="753.3062" y="690.7803">opt</text><text fill="#000000" font-family="Helvetica" font-size="14" font-weight="bold" lengthAdjust="spacing" textLength="120.5859" x="820.0718" y="691.7803">[delete requested]</text><g class="message" data-entity-1="part4" data-entity-2="part5" id="msg11"><polygon fill="#0F172A" points="1165.2251,711,1175.2251,715,1165.2251,719,1169.2251,715" style="stroke:#0F172A;stroke-width:1;"/><line style="stroke:#0F172A;stroke-width:1;" x1="836.5024" x2="1171.2251" y1="715" y2="715"/><text fill="#000000" font-family="Helvetica" font-size="14" lengthAdjust="spacing" textLength="293.4053" x="843.5024" y="709.7803">DeleteAutonomousExadataInfrastructureShape</text></g><path d="M756.3062,730 L822.8511,730 L822.8511,736 L812.8511,746 L748.3062,746 L748.3062,738 A8,8 0 0 1 756.3062,730" fill="#F8FAFC" style="stroke:#CBD5E1;stroke-width:1.5;"/><rect fill="none" height="72" rx="8" ry="8" style="stroke:#CBD5E1;stroke-width:1.5;" width="458.3638" x="748.3062" y="730"/><text fill="#000000" font-family="Helvetica" font-size="14" font-weight="bold" lengthAdjust="spacing" textLength="29.5449" x="763.3062" y="741.7803">loop</text><text fill="#000000" font-family="Helvetica" font-size="14" font-weight="bold" lengthAdjust="spacing" textLength="213.124" x="837.8511" y="742.7803">[delete confirmation DELETING]</text><g class="message" data-entity-1="part4" data-entity-2="part5" id="msg12"><polygon fill="#0F172A" points="1165.2251,790,1175.2251,794,1165.2251,798,1169.2251,794" style="stroke:#0F172A;stroke-width:1;"/><line style="stroke:#0F172A;stroke-width:1;" x1="836.5024" x2="1171.2251" y1="794" y2="794"/><text fill="#000000" font-family="Helvetica" font-size="14" lengthAdjust="spacing" textLength="275.502" x="843.5024" y="760.7803">GetAutonomousExadataInfrastructureShape</text><text fill="#000000" font-family="Helvetica" font-size="14" lengthAdjust="spacing" textLength="12.4482" x="843.5024" y="774.7803">or</text><text fill="#000000" font-family="Helvetica" font-size="14" lengthAdjust="spacing" textLength="274.7227" x="843.5024" y="788.7803">ListAutonomousExadataInfrastructureShape</text></g><g class="message" data-entity-1="part4" data-entity-2="part3" id="msg13"><polygon fill="#0F172A" points="570.5659,846,560.5659,850,570.5659,854,566.5659,850" style="stroke:#0F172A;stroke-width:1;"/><line style="stroke:#0F172A;stroke-width:1;stroke-dasharray:2,2;" x1="564.5659" x2="835.5024" y1="850" y2="850"/><text fill="#000000" font-family="Helvetica" font-size="14" lengthAdjust="spacing" textLength="100.7822" x="576.5659" y="830.7803">status=required,</text><text fill="#000000" font-family="Helvetica" font-size="14" lengthAdjust="spacing" textLength="230.7197" x="576.5659" y="844.7803">finalizer=retain-until-confirmed-delete</text></g><g class="message" data-entity-1="part3" data-entity-2="part2" id="msg14"><polygon fill="#0F172A" points="331.7397,888,321.7397,892,331.7397,896,327.7397,892" style="stroke:#0F172A;stroke-width:1;"/><line style="stroke:#0F172A;stroke-width:1;stroke-dasharray:2,2;" x1="325.7397" x2="558.5659" y1="892" y2="892"/><text fill="#000000" font-family="Helvetica" font-size="14" lengthAdjust="spacing" textLength="214.8262" x="337.7397" y="872.7803">requeue on provisioning, updating,</text><text fill="#000000" font-family="Helvetica" font-size="14" lengthAdjust="spacing" textLength="69.2549" x="337.7397" y="886.7803">terminating</text></g><path d="M841,913 L841,1299 A8,8 0 0 0 849,1307 L1173,1307 A8,8 0 0 0 1181,1299 L1181,915 L1171,905 L849,905 A8,8 0 0 0 841,913" fill="#FFF7D6" style="stroke:#B45309;stroke-width:0.5;"/><path d="M1171,905 L1171,911 A4,4 0 0 0 1175,915 L1181,915 L1171,905" fill="#FFF7D6" style="stroke:#B45309;stroke-width:0.5;"/><text fill="#334155" font-family="Helvetica" font-size="14" lengthAdjust="spacing" textLength="101.165" x="847" y="920.7803">shared diagram:</text><text fill="#334155" font-family="Helvetica" font-size="14" lengthAdjust="spacing" textLength="307.3916" x="847" y="934.7803">shared/diagrams/shared-resolution-sequence.svg</text><text fill="#334155" font-family="Helvetica" font-size="14" lengthAdjust="spacing" textLength="143.1992" x="847" y="948.7803">shared delete diagram:</text><text fill="#334155" font-family="Helvetica" font-size="14" lengthAdjust="spacing" textLength="284.833" x="847" y="962.7803">shared/diagrams/shared-delete-sequence.svg</text><text fill="#334155" font-family="Helvetica" font-size="14" lengthAdjust="spacing" textLength="280.9297" x="847" y="976.7803">Start from the shared resolution sequence for</text><text fill="#334155" font-family="Helvetica" font-size="14" lengthAdjust="spacing" textLength="260.7295" x="847" y="990.7803">OCID binding, datasource pagination, and</text><text fill="#334155" font-family="Helvetica" font-size="14" lengthAdjust="spacing" textLength="163.4268" x="847" y="1004.7803">create-or-update dispatch.</text><text fill="#334155" font-family="Helvetica" font-size="14" lengthAdjust="spacing" textLength="301.1982" x="847" y="1018.7803">Layer the shared delete sequence when finalizer</text><text fill="#334155" font-family="Helvetica" font-size="14" lengthAdjust="spacing" textLength="269.2471" x="847" y="1032.7803">retention, delete confirmation, work-request</text><text fill="#334155" font-family="Helvetica" font-size="14" lengthAdjust="spacing" textLength="199.2334" x="847" y="1046.7803">polling, or Secret cleanup apply.</text><text fill="#334155" font-family="Helvetica" font-size="14" lengthAdjust="spacing" textLength="281.709" x="847" y="1060.7803">archetype batch: Generated service-manager</text><text fill="#334155" font-family="Helvetica" font-size="14" lengthAdjust="spacing" textLength="266.1504" x="847" y="1074.7803">controllers follow the shared resolution and</text><text fill="#334155" font-family="Helvetica" font-size="14" lengthAdjust="spacing" textLength="259.9297" x="847" y="1088.7803">delete sequences with imported waits and</text><text fill="#334155" font-family="Helvetica" font-size="14" lengthAdjust="spacing" textLength="134.6064" x="847" y="1102.7803">controller-local policy.</text><text fill="#334155" font-family="Helvetica" font-size="14" lengthAdjust="spacing" textLength="109.7305" x="847" y="1116.7803">service: database</text><text fill="#334155" font-family="Helvetica" font-size="14" lengthAdjust="spacing" textLength="280.1777" x="847" y="1130.7803">slug: autonomousexadatainfrastructureshape</text><text fill="#334155" font-family="Helvetica" font-size="14" lengthAdjust="spacing" textLength="286.3984" x="847" y="1144.7803">kind: AutonomousExadataInfrastructureShape</text><text fill="#334155" font-family="Helvetica" font-size="14" lengthAdjust="spacing" textLength="241.2402" x="847" y="1158.7803">archetype: generated-service-manager</text><text fill="#334155" font-family="Helvetica" font-size="14" lengthAdjust="spacing" textLength="156.4063" x="847" y="1172.7803">status/finalizer: required /</text><text fill="#334155" font-family="Helvetica" font-size="14" lengthAdjust="spacing" textLength="174.3027" x="847" y="1186.7803">retain-until-confirmed-delete</text><text fill="#334155" font-family="Helvetica" font-size="14" lengthAdjust="spacing" textLength="272.3984" x="847" y="1200.7803">requeue: provisioning, updating, terminating</text><text fill="#334155" font-family="Helvetica" font-size="14" lengthAdjust="spacing" textLength="295.6816" x="847" y="1214.7803">provider states: create PROVISIONING; update</text><text fill="#334155" font-family="Helvetica" font-size="14" lengthAdjust="spacing" textLength="192.165" x="847" y="1228.7803">UPDATING; delete DELETING</text><text fill="#334155" font-family="Helvetica" font-size="14" lengthAdjust="spacing" textLength="319.04" x="847" y="1242.7803">mutable/forceNew: display_name / compartment_id</text><text fill="#334155" font-family="Helvetica" font-size="14" lengthAdjust="spacing" textLength="104.3164" x="847" y="1256.7803">open gaps: none</text><text fill="#334155" font-family="Helvetica" font-size="14" lengthAdjust="spacing" textLength="224.9023" x="847" y="1270.7803">Scaffold metadata only; replace with</text><text fill="#334155" font-family="Helvetica" font-size="14" lengthAdjust="spacing" textLength="244.3232" x="847" y="1284.7803">controller-specific runtime states before</text><text fill="#334155" font-family="Helvetica" font-size="14" lengthAdjust="spacing" textLength="66.1445" x="847" y="1298.7803">promotion.</text><?plantuml-src hLRRRXit47tdLmpIbmJGMbPi9yuQBP3ORYh4jOAewPE0W29d9S9SSajohRX5_xt3lNbNbb812GmP4cTuUERCXVHtoXJSyHpycakxKMO56TSUcUyiIoxkLiwMHbvQRHtyb0dwapqFYHalTVZLcd3BSuJVKDzZK8Blzfchln4cfpqZTyvk6lJZRFBwPN-diG7VFU6GPQ_bgsqlwoIwncDvUdPo_6RB8nxVs4zEJYTdPprx1I-iC-XWyee55JJ27FygqGY412GFVCazZj-MmHgRsz9VV-LnTMeontrmfGYbm_cQ5yZMIY9areQb_TexnBTu_p00Be9r0z9DyArfEsfyYUVPCPa9ZFHL1JTXz_w-mo4eFM4w3Aqol55cAEkRKtwoF2ThX2m69h6KPpZfJ4zITfxnJB1_MHKRV2YNI5e7zAp70ow9YBDQeniiloFXFw6mHgXjqxFPVFPXZkvU2VoT6xv2zmouX-7IOCliSifYEO2zfsGFiKTR-wWn74fmwAqkWx8cRPR6Kl4LvTIFwz_9eqlIfld8twzQ18cQejsxkpOFTwAHLTcoHx4W-QMdKGfeoB_4XJcaAXV6jN6oHv08ETGWXUxxSnS9-V223LtYfg5IANJW5AjN5DHXhDWG9o9JWb9uZ-6WxRO8LAkU_bbxLnPnWEaujFRXtf3l8S3FCwK3EfykZB1vh9ySJVYYv0Xyu05VC8A3P8SGEGzY7MUfY0ABM1AW0kO-PfHn7K0uvB7-72mL9RdWORsFxcNbUf0I943HGXTqLAJmyTFip-byEhkTthx_NgKZUwJR0Sf2DlIbKrdu9l_FbU_X_1libl_dZrTl__XHtEaJgwNkDMXA6-K-xAlAxt3g3IvrGQOS5K7C-zNrpVKFuBymrYtCeQNRHRjzw8vMZxLS-f-Z6B5dHmiYRxYcIzhHOk3A9AK9IYTDMDsiUZ8HjaPJ9Mz9LMAWSFPUUPA3CZggCno_BGprLqwdnL_rH7PgjGvWCzWzXfkf-Nqp-7zHTitYUQ0109cpEOGrmfDhuV5gpwoBa-6gQkqgu9WbRqj7neAlgdYj6G6d1DNTcbYND7KlbI_Y-3XYD_o1LEqTrh3l3jgiqK2NB4R9elbK8Uyen15ihBjBcffd1IMfuaOzF4TYGJD98pSqFtbHw8SZnfrOOtWea5w0n2TMAZsDYA8a1bLkahn9ZkYoxYbwhUrcZqOnugqeF6nKM8FA2-iYzeQhu6jfEjH4My4r46SbY5bpVDezoPZNvIe5tdK6rfsX1ftXgywWfvXCuQ0cwXH8OTN6dcp7NhVFk4j3NVUnas3Cljq_JOEa-ze3-jrH-T1ZgxvxVDhE-VvylsY69sk7vaLR2TqKoakIJEEOYbJWBMxIgk0qV_XYujDz3CEhZiObrTYA5tIWiORkQi4pIh64d4ABmb5xwuSB2ff0OarIClkPymKAbIa1Bef09zJqOOd406DKkOsbSTGzTlu3?></g></svg>