<?plantuml 1.2026.1?><svg xmlns="http://www.w3.org/2000/svg" xmlns:xlink="http://www.w3.org/1999/xlink" contentStyleType="text/css" data-diagram-type="SEQUENCE" height="1301px" preserveAspectRatio="none" style="width:1120px;height:1301px;background:#FCFCFD;" version="1.1" viewBox="0 0 1120 1301" width="1120px" zoomAndPan="magnify"><title>Sequence - mysql/MysqlHeatWaveCluster</title><defs/><g><rect fill="#FCFCFD" height="1301" style="stroke:none;stroke-width:1;" width="1120" x="0" y="0"/><text fill="#000000" font-family="Helvetica" font-size="14" font-weight="bold" lengthAdjust="spacing" textLength="277.7578" x="418.6411" y="25.7803">Sequence - mysql/MysqlHeatWaveCluster</text><rect fill="none" height="86" rx="8" ry="8" style="stroke:#CBD5E1;stroke-width:1.5;" width="351.689" x="677.8071" y="347"/><rect fill="none" height="204" rx="8" ry="8" style="stroke:#CBD5E1;stroke-width:1.5;" width="371.689" x="667.8071" y="447"/><rect fill="none" height="44" rx="8" ry="8" style="stroke:#CBD5E1;stroke-width:1.5;" width="351.689" x="677.8071" y="498"/><rect fill="none" height="44" rx="8" ry="8" style="stroke:#CBD5E1;stroke-width:1.5;" width="351.689" x="677.8071" y="600"/><rect fill="none" height="116" rx="8" ry="8" style="stroke:#CBD5E1;stroke-width:1.5;" width="371.689" x="667.8071" y="665"/><rect fill="none" height="58" rx="8" ry="8" style="stroke:#CBD5E1;stroke-width:1.5;" width="351.689" x="677.8071" y="716"/><g class="participant-lifeline" data-entity-uid="part1" data-qualified-name="Kubernetes" id="part1-lifeline"><g><title>Kubernetes</title><rect fill="#000000" fill-opacity="0.00000" height="1180" width="8" x="39.8032" y="114"/><line style="stroke:#94A3B8;stroke-width:0.5;stroke-dasharray:5,5;" x1="43" x2="43" y1="114" y2="1294"/></g></g><g class="participant-lifeline" data-entity-uid="part2" data-qualified-name="Controller" id="part2-lifeline"><g><title>Controller</title><rect fill="#000000" fill-opacity="0.00000" height="1180" width="8" x="268.4575" y="114"/><line style="stroke:#94A3B8;stroke-width:0.5;stroke-dasharray:5,5;" x1="272.1128" x2="272.1128" y1="114" y2="1294"/></g></g><g class="participant-lifeline" data-entity-uid="part3" data-qualified-name="BaseReconciler" id="part3-lifeline"><g><title>BaseReconciler</title><rect fill="#000000" fill-opacity="0.00000" height="1180" width="8" x="507.2837" y="114"/><line style="stroke:#94A3B8;stroke-width:0.5;stroke-dasharray:5,5;" x1="511.2598" x2="511.2598" y1="114" y2="1294"/></g></g><g class="participant-lifeline" data-entity-uid="part4" data-qualified-name="ServiceManager" id="part4-lifeline"><g><title>OSOKServiceManager</title><rect fill="#000000" fill-opacity="0.00000" height="1180" width="8" x="762.0034" y="114"/><line style="stroke:#94A3B8;stroke-width:0.5;stroke-dasharray:5,5;" x1="765.8071" x2="765.8071" y1="114" y2="1294"/></g></g><g class="participant-lifeline" data-entity-uid="part5" data-qualified-name="OCI" id="part5-lifeline"><g><title>OCI</title><rect fill="#000000" fill-opacity="0.00000" height="1180" width="8" x="996.0513" y="114"/><line style="stroke:#94A3B8;stroke-width:0.5;stroke-dasharray:5,5;" x1="999.6064" x2="999.6064" y1="114" y2="1294"/></g></g><g class="participant participant-head" data-entity-uid="part1" data-qualified-name="Kubernetes" id="part1-head"><text fill="#000000" font-family="Helvetica" font-size="14" lengthAdjust="spacing" textLength="71.6064" x="5" y="110.7803">Kubernetes</text><ellipse cx="43.8032" cy="48.5" fill="#E2E8F0" rx="8" ry="8" style="stroke:#0F172A;stroke-width:0.5;"/><path d="M43.8032,56.5 L43.8032,83.5 M30.8032,64.5 L56.8032,64.5 M43.8032,83.5 L30.8032,98.5 M43.8032,83.5 L56.8032,98.5" fill="none" style="stroke:#0F172A;stroke-width:0.5;"/></g><g class="participant participant-head" data-entity-uid="part2" data-qualified-name="Controller" id="part2-head"><rect fill="#E2E8F0" height="28" rx="8" ry="8" style="stroke:#0F172A;stroke-width:0.5;" width="74.6895" x="235.1128" y="85"/><text fill="#0F172A" font-family="Helvetica" font-size="14" lengthAdjust="spacing" textLength="60.6895" x="242.1128" y="102.7803">Controller</text></g><g class="participant participant-head" data-entity-uid="part3" data-qualified-name="BaseReconciler" id="part3-head"><rect fill="#E2E8F0" height="28" rx="8" ry="8" style="stroke:#0F172A;stroke-width:0.5;" width="112.0479" x="455.2598" y="85"/><text fill="#0F172A" font-family="Helvetica" font-size="14" lengthAdjust="spacing" textLength="98.0479" x="462.2598" y="102.7803">BaseReconciler</text></g><g class="participant participant-head" data-entity-uid="part4" data-qualified-name="ServiceManager" id="part4-head"><rect fill="#E2E8F0" height="28" rx="8" ry="8" style="stroke:#0F172A;stroke-width:0.5;" width="156.3926" x="687.8071" y="85"/><text fill="#0F172A" font-family="Helvetica" font-size="14" lengthAdjust="spacing" textLength="142.3926" x="694.8071" y="102.7803">OSOKServiceManager</text></g><g class="participant participant-head" data-entity-uid="part5" data-qualified-name="OCI" id="part5-head"><rect fill="#E2E8F0" height="28" rx="8" ry="8" style="stroke:#0F172A;stroke-width:0.5;" width="38.8896" x="980.6064" y="85"/><text fill="#0F172A" font-family="Helvetica" font-size="14" lengthAdjust="spacing" textLength="24.8896" x="987.6064" y="102.7803">OCI</text></g><path d="M446,137 L446,187 A8,8 0 0 0 454,195 L821,195 A8,8 0 0 0 829,187 L829,139 L819,129 L454,129 A8,8 0 0 0 446,137" fill="#FFF7D6" style="stroke:#B45309;stroke-width:0.5;"/><path d="M819,129 L819,135 A4,4 0 0 0 823,139 L829,139 L819,129" fill="#FFF7D6" style="stroke:#B45309;stroke-width:0.5;"/><text fill="#334155" font-family="Helvetica" font-size="14" lengthAdjust="spacing" textLength="111.2891" x="479.7742" y="144.7803">shared resolution:</text><text fill="#334155" font-family="Helvetica" font-size="14" lengthAdjust="spacing" textLength="307.3916" x="479.7742" y="158.7803">shared/diagrams/shared-resolution-sequence.svg</text><text fill="#334155" font-family="Helvetica" font-size="14" lengthAdjust="spacing" textLength="88.7305" x="479.7742" y="172.7803">shared delete:</text><text fill="#334155" font-family="Helvetica" font-size="14" lengthAdjust="spacing" textLength="284.833" x="479.7742" y="186.7803">shared/diagrams/shared-delete-sequence.svg</text><g class="message" data-entity-1="part1" data-entity-2="part2" id="msg1"><polygon fill="#0F172A" points="260.4575,230,270.4575,234,260.4575,238,264.4575,234" style="stroke:#0F172A;stroke-width:1;"/><line style="stroke:#0F172A;stroke-width:1;" x1="43.8032" x2="266.4575" y1="234" y2="234"/><text fill="#000000" font-family="Helvetica" font-size="14" lengthAdjust="spacing" textLength="204.6543" x="50.8032" y="214.7803">enqueue MysqlHeatWaveCluster</text><text fill="#000000" font-family="Helvetica" font-size="14" lengthAdjust="spacing" textLength="56.0273" x="50.8032" y="228.7803">reconcile</text></g><g class="message" data-entity-1="part2" data-entity-2="part3" id="msg2"><polygon fill="#0F172A" points="499.2837,258,509.2837,262,499.2837,266,503.2837,262" style="stroke:#0F172A;stroke-width:1;"/><line style="stroke:#0F172A;stroke-width:1;" x1="272.4575" x2="505.2837" y1="262" y2="262"/><text fill="#000000" font-family="Helvetica" font-size="14" lengthAdjust="spacing" textLength="117.4961" x="279.4575" y="256.7803">Reconcile(request)</text></g><g class="message" data-entity-1="part3" data-entity-2="part4" id="msg3"><polygon fill="#0F172A" points="754.0034,300,764.0034,304,754.0034,308,758.0034,304" style="stroke:#0F172A;stroke-width:1;"/><line style="stroke:#0F172A;stroke-width:1;" x1="511.2837" x2="760.0034" y1="304" y2="304"/><text fill="#000000" font-family="Helvetica" font-size="14" lengthAdjust="spacing" textLength="105.834" x="518.2837" y="284.7803">reconcile desired</text><text fill="#000000" font-family="Helvetica" font-size="14" lengthAdjust="spacing" textLength="146.2617" x="518.2837" y="298.7803">MysqlHeatWaveCluster</text></g><g class="message" data-entity-1="part4" data-entity-2="part5" id="msg4"><polygon fill="#0F172A" points="988.0513,328,998.0513,332,988.0513,336,992.0513,332" style="stroke:#0F172A;stroke-width:1;"/><line style="stroke:#0F172A;stroke-width:1;" x1="766.0034" x2="994.0513" y1="332" y2="332"/><text fill="#000000" font-family="Helvetica" font-size="14" lengthAdjust="spacing" textLength="168.8271" x="773.0034" y="326.7803">GetMysqlHeatWaveCluster</text></g><path d="M685.8071,347 L744.5728,347 L744.5728,353 L734.5728,363 L677.8071,363 L677.8071,355 A8,8 0 0 1 685.8071,347" fill="#F8FAFC" style="stroke:#CBD5E1;stroke-width:1.5;"/><rect fill="none" height="86" rx="8" ry="8" style="stroke:#CBD5E1;stroke-width:1.5;" width="351.689" x="677.8071" y="347"/><text fill="#000000" font-family="Helvetica" font-size="14" font-weight="bold" lengthAdjust="spacing" textLength="21.7656" x="692.8071" y="358.7803">opt</text><text fill="#000000" font-family="Helvetica" font-size="14" font-weight="bold" lengthAdjust="spacing" textLength="135.3516" x="759.5728" y="359.7803">[list lookup fallback]</text><g class="message" data-entity-1="part4" data-entity-2="part5" id="msg5"><polygon fill="#0F172A" points="988.0513,393,998.0513,397,988.0513,401,992.0513,397" style="stroke:#0F172A;stroke-width:1;"/><line style="stroke:#0F172A;stroke-width:1;" x1="766.0034" x2="994.0513" y1="397" y2="397"/><text fill="#000000" font-family="Helvetica" font-size="14" lengthAdjust="spacing" textLength="210.0479" x="773.0034" y="377.7803">ListMysqlHeatWaveCluster(filters:</text><text fill="#000000" font-family="Helvetica" font-size="14" lengthAdjust="spacing" textLength="143.1719" x="773.0034" y="391.7803">compartment_id, state)</text></g><g class="message" data-entity-1="part5" data-entity-2="part4" id="msg6"><polygon fill="#0F172A" points="777.0034,421,767.0034,425,777.0034,429,773.0034,425" style="stroke:#0F172A;stroke-width:1;"/><line style="stroke:#0F172A;stroke-width:1;stroke-dasharray:2,2;" x1="771.0034" x2="999.0513" y1="425" y2="425"/><text fill="#000000" font-family="Helvetica" font-size="14" lengthAdjust="spacing" textLength="156.3994" x="783.0034" y="419.7803">matching collection items</text></g><path d="M675.8071,447 L729.145,447 L729.145,453 L719.145,463 L667.8071,463 L667.8071,455 A8,8 0 0 1 675.8071,447" fill="#F8FAFC" style="stroke:#CBD5E1;stroke-width:1.5;"/><rect fill="none" height="204" rx="8" ry="8" style="stroke:#CBD5E1;stroke-width:1.5;" width="371.689" x="667.8071" y="447"/><text fill="#000000" font-family="Helvetica" font-size="14" font-weight="bold" lengthAdjust="spacing" textLength="16.3379" x="682.8071" y="458.7803">alt</text><text fill="#000000" font-family="Helvetica" font-size="14" font-weight="bold" lengthAdjust="spacing" textLength="135.3447" x="744.145" y="459.7803">[create or bind path]</text><g class="message" data-entity-1="part4" data-entity-2="part5" id="msg7"><polygon fill="#0F172A" points="988.0513,479,998.0513,483,988.0513,487,992.0513,483" style="stroke:#0F172A;stroke-width:1;"/><line style="stroke:#0F172A;stroke-width:1;" x1="766.0034" x2="994.0513" y1="483" y2="483"/><text fill="#000000" font-family="Helvetica" font-size="14" lengthAdjust="spacing" textLength="188.2822" x="773.0034" y="477.7803">CreateMysqlHeatWaveCluster</text></g><path d="M685.8071,498 L752.3521,498 L752.3521,504 L742.3521,514 L677.8071,514 L677.8071,506 A8,8 0 0 1 685.8071,498" fill="#F8FAFC" style="stroke:#CBD5E1;stroke-width:1.5;"/><rect fill="none" height="44" rx="8" ry="8" style="stroke:#CBD5E1;stroke-width:1.5;" width="351.689" x="677.8071" y="498"/><text fill="#000000" font-family="Helvetica" font-size="14" font-weight="bold" lengthAdjust="spacing" textLength="29.5449" x="692.8071" y="509.7803">loop</text><text fill="#000000" font-family="Helvetica" font-size="14" font-weight="bold" lengthAdjust="spacing" textLength="215.4756" x="767.3521" y="510.7803">[create pending PROVISIONING]</text><g class="message" data-entity-1="part4" data-entity-2="part5" id="msg8"><polygon fill="#0F172A" points="988.0513,530,998.0513,534,988.0513,538,992.0513,534" style="stroke:#0F172A;stroke-width:1;"/><line style="stroke:#0F172A;stroke-width:1;" x1="766.0034" x2="994.0513" y1="534" y2="534"/><text fill="#000000" font-family="Helvetica" font-size="14" lengthAdjust="spacing" textLength="168.8271" x="773.0034" y="528.7803">GetMysqlHeatWaveCluster</text></g><line style="stroke:#CBD5E1;stroke-width:1;stroke-dasharray:2,2;" x1="667.8071" x2="1039.4961" y1="550" y2="550"/><text fill="#000000" font-family="Helvetica" font-size="14" font-weight="bold" lengthAdjust="spacing" textLength="137.6484" x="672.8071" y="560.7803">[update or drift path]</text><g class="message" data-entity-1="part4" data-entity-2="part5" id="msg9"><polygon fill="#0F172A" points="988.0513,581,998.0513,585,988.0513,589,992.0513,585" style="stroke:#0F172A;stroke-width:1;"/><line style="stroke:#0F172A;stroke-width:1;" x1="766.0034" x2="994.0513" y1="585" y2="585"/><text fill="#000000" font-family="Helvetica" font-size="14" lengthAdjust="spacing" textLength="191.4063" x="773.0034" y="579.7803">UpdateMysqlHeatWaveCluster</text></g><path d="M685.8071,600 L752.3521,600 L752.3521,606 L742.3521,616 L677.8071,616 L677.8071,608 A8,8 0 0 1 685.8071,600" fill="#F8FAFC" style="stroke:#CBD5E1;stroke-width:1.5;"/><rect fill="none" height="44" rx="8" ry="8" style="stroke:#CBD5E1;stroke-width:1.5;" width="351.689" x="677.8071" y="600"/><text fill="#000000" font-family="Helvetica" font-size="14" font-weight="bold" lengthAdjust="spacing" textLength="29.5449" x="692.8071" y="611.7803">loop</text><text fill="#000000" font-family="Helvetica" font-size="14" font-weight="bold" lengthAdjust="spacing" textLength="190.5381" x="767.3521" y="612.7803">[update pending UPDATING]</text><g class="message" data-entity-1="part4" data-entity-2="part5" id="msg10"><polygon fill="#0F172A" points="988.0513,632,998.0513,636,988.0513,640,992.0513,636" style="stroke:#0F172A;stroke-width:1;"/><line style="stroke:#0F172A;stroke-width:1;" x1="766.0034" x2="994.0513" y1="636" y2="636"/><text fill="#000000" font-family="Helvetica" font-size="14" lengthAdjust="spacing" textLength="168.8271" x="773.0034" y="630.7803">GetMysqlHeatWaveCluster</text></g><path d="M675.8071,665 L734.5728,665 L734.5728,671 L724.5728,681 L667.8071,681 L667.8071,673 A8,8 0 0 1 675.8071,665" fill="#F8FAFC" style="stroke:#CBD5E1;stroke-width:1.5;"/><rect fill="none" height="116" rx="8" ry="8" style="stroke:#CBD5E1;stroke-width:1.5;" width="371.689" x="667.8071" y="665"/><text fill="#000000" font-family="Helvetica" font-size="14" font-weight="bold" lengthAdjust="spacing" textLength="21.7656" x="682.8071" y="676.7803">opt</text><text fill="#000000" font-family="Helvetica" font-size="14" font-weight="bold" lengthAdjust="spacing" textLength="120.5859" x="749.5728" y="677.7803">[delete requested]</text><g class="message" data-entity-1="part4" data-entity-2="part5" id="msg11"><polygon fill="#0F172A" points="988.0513,697,998.0513,701,988.0513,705,992.0513,701" style="stroke:#0F172A;stroke-width:1;"/><line style="stroke:#0F172A;stroke-width:1;" x1="766.0034" x2="994.0513" y1="701" y2="701"/><text fill="#000000" font-family="Helvetica" font-size="14" lengthAdjust="spacing" textLength="186.7305" x="773.0034" y="695.7803">DeleteMysqlHeatWaveCluster</text></g><path d="M685.8071,716 L752.3521,716 L752.3521,722 L742.3521,732 L677.8071,732 L677.8071,724 A8,8 0 0 1 685.8071,716" fill="#F8FAFC" style="stroke:#CBD5E1;stroke-width:1.5;"/><rect fill="none" height="58" rx="8" ry="8" style="stroke:#CBD5E1;stroke-width:1.5;" width="351.689" x="677.8071" y="716"/><text fill="#000000" font-family="Helvetica" font-size="14" font-weight="bold" lengthAdjust="spacing" textLength="29.5449" x="692.8071" y="727.7803">loop</text><text fill="#000000" font-family="Helvetica" font-size="14" font-weight="bold" lengthAdjust="spacing" textLength="213.124" x="767.3521" y="728.7803">[delete confirmation DELETING]</text><g class="message" data-entity-1="part4" data-entity-2="part5" id="msg12"><polygon fill="#0F172A" points="988.0513,762,998.0513,766,988.0513,770,992.0513,766" style="stroke:#0F172A;stroke-width:1;"/><line style="stroke:#0F172A;stroke-width:1;" x1="766.0034" x2="994.0513" y1="766" y2="766"/><text fill="#000000" font-family="Helvetica" font-size="14" lengthAdjust="spacing" textLength="185.165" x="773.0034" y="746.7803">GetMysqlHeatWaveCluster or</text><text fill="#000000" font-family="Helvetica" font-size="14" lengthAdjust="spacing" textLength="168.0479" x="773.0034" y="760.7803">ListMysqlHeatWaveCluster</text></g><g class="message" data-entity-1="part4" data-entity-2="part3" id="msg13"><polygon fill="#0F172A" points="522.2837,818,512.2837,822,522.2837,826,518.2837,822" style="stroke:#0F172A;stroke-width:1;"/><line style="stroke:#0F172A;stroke-width:1;stroke-dasharray:2,2;" x1="516.2837" x2="765.0034" y1="822" y2="822"/><text fill="#000000" font-family="Helvetica" font-size="14" lengthAdjust="spacing" textLength="100.7822" x="528.2837" y="802.7803">status=required,</text><text fill="#000000" font-family="Helvetica" font-size="14" lengthAdjust="spacing" textLength="230.7197" x="528.2837" y="816.7803">finalizer=retain-until-confirmed-delete</text></g><g class="message" data-entity-1="part3" data-entity-2="part2" id="msg14"><polygon fill="#0F172A" points="283.4575,860,273.4575,864,283.4575,868,279.4575,864" style="stroke:#0F172A;stroke-width:1;"/><line style="stroke:#0F172A;stroke-width:1;stroke-dasharray:2,2;" x1="277.4575" x2="510.2837" y1="864" y2="864"/><text fill="#000000" font-family="Helvetica" font-size="14" lengthAdjust="spacing" textLength="214.8262" x="289.4575" y="844.7803">requeue on provisioning, updating,</text><text fill="#000000" font-family="Helvetica" font-size="14" lengthAdjust="spacing" textLength="69.2549" x="289.4575" y="858.7803">terminating</text></g><path d="M771,885 L771,1271 A8,8 0 0 0 779,1279 L1103,1279 A8,8 0 0 0 1111,1271 L1111,887 L1101,877 L779,877 A8,8 0 0 0 771,885" fill="#FFF7D6" style="stroke:#B45309;stroke-width:0.5;"/><path d="M1101,877 L1101,883 A4,4 0 0 0 1105,887 L1111,887 L1101,877" fill="#FFF7D6" style="stroke:#B45309;stroke-width:0.5;"/><text fill="#334155" font-family="Helvetica" font-size="14" lengthAdjust="spacing" textLength="101.165" x="777" y="892.7803">shared diagram:</text><text fill="#334155" font-family="Helvetica" font-size="14" lengthAdjust="spacing" textLength="307.3916" x="777" y="906.7803">shared/diagrams/shared-resolution-sequence.svg</text><text fill="#334155" font-family="Helvetica" font-size="14" lengthAdjust="spacing" textLength="143.1992" x="777" y="920.7803">shared delete diagram:</text><text fill="#334155" font-family="Helvetica" font-size="14" lengthAdjust="spacing" textLength="284.833" x="777" y="934.7803">shared/diagrams/shared-delete-sequence.svg</text><text fill="#334155" font-family="Helvetica" font-size="14" lengthAdjust="spacing" textLength="280.9297" x="777" y="948.7803">Start from the shared resolution sequence for</text><text fill="#334155" font-family="Helvetica" font-size="14" lengthAdjust="spacing" textLength="260.7295" x="777" y="962.7803">OCID binding, datasource pagination, and</text><text fill="#334155" font-family="Helvetica" font-size="14" lengthAdjust="spacing" textLength="163.4268" x="777" y="976.7803">create-or-update dispatch.</text><text fill="#334155" font-family="Helvetica" font-size="14" lengthAdjust="spacing" textLength="301.1982" x="777" y="990.7803">Layer the shared delete sequence when finalizer</text><text fill="#334155" font-family="Helvetica" font-size="14" lengthAdjust="spacing" textLength="269.2471" x="777" y="1004.7803">retention, delete confirmation, work-request</text><text fill="#334155" font-family="Helvetica" font-size="14" lengthAdjust="spacing" textLength="199.2334" x="777" y="1018.7803">polling, or Secret cleanup apply.</text><text fill="#334155" font-family="Helvetica" font-size="14" lengthAdjust="spacing" textLength="281.709" x="777" y="1032.7803">archetype batch: Generated service-manager</text><text fill="#334155" font-family="Helvetica" font-size="14" lengthAdjust="spacing" textLength="266.1504" x="777" y="1046.7803">controllers follow the shared resolution and</text><text fill="#334155" font-family="Helvetica" font-size="14" lengthAdjust="spacing" textLength="259.9297" x="777" y="1060.7803">delete sequences with imported waits and</text><text fill="#334155" font-family="Helvetica" font-size="14" lengthAdjust="spacing" textLength="134.6064" x="777" y="1074.7803">controller-local policy.</text><text fill="#334155" font-family="Helvetica" font-size="14" lengthAdjust="spacing" textLength="88.6826" x="777" y="1088.7803">service: mysql</text><text fill="#334155" font-family="Helvetica" font-size="14" lengthAdjust="spacing" textLength="171.1855" x="777" y="1102.7803">slug: mysqlheatwavecluster</text><text fill="#334155" font-family="Helvetica" font-size="14" lengthAdjust="spacing" textLength="179.7236" x="777" y="1116.7803">kind: MysqlHeatWaveCluster</text><text fill="#334155" font-family="Helvetica" font-size="14" lengthAdjust="spacing" textLength="241.2402" x="777" y="1130.7803">archetype: generated-service-manager</text><text fill="#334155" font-family="Helvetica" font-size="14" lengthAdjust="spacing" textLength="156.4063" x="777" y="1144.7803">status/finalizer: required /</text><text fill="#334155" font-family="Helvetica" font-size="14" lengthAdjust="spacing" textLength="174.3027" x="777" y="1158.7803">retain-until-confirmed-delete</text><text fill="#334155" font-family="Helvetica" font-size="14" lengthAdjust="spacing" textLength="272.3984" x="777" y="1172.7803">requeue: provisioning, updating, terminating</text><text fill="#334155" font-family="Helvetica" font-size="14" lengthAdjust="spacing" textLength="295.6816" x="777" y="1186.7803">provider states: create PROVISIONING; update</text><text fill="#334155" font-family="Helvetica" font-size="14" lengthAdjust="spacing" textLength="192.165" x="777" y="1200.7803">UPDATING; delete DELETING</text><text fill="#334155" font-family="Helvetica" font-size="14" lengthAdjust="spacing" textLength="319.04" x="777" y="1214.7803">mutable/forceNew: display_name / compartment_id</text><text fill="#334155" font-family="Helvetica" font-size="14" lengthAdjust="spacing" textLength="104.3164" x="777" y="1228.7803">open gaps: none</text><text fill="#334155" font-family="Helvetica" font-size="14" lengthAdjust="spacing" textLength="224.9023" x="777" y="1242.7803">Scaffold metadata only; replace with</text><text fill="#334155" font-family="Helvetica" font-size="14" lengthAdjust="spacing" textLength="244.3232" x="777" y="1256.7803">controller-specific runtime states before</text><text fill="#334155" font-family="Helvetica" font-size="14" lengthAdjust="spacing" textLength="66.1445" x="777" y="1270.7803">promotion.</text><?plantuml-src fLRlRzis4FtEl-BGVMa1AuwRf4qLRC3gT6tGD2xgTVjYeA2faqs48bMIikiD_Tzxr2zBZjnj7O8ajdXyVE_UtOdkNkgSMvw1M_F4RALUGSgLG-RQbIKNzojh2frCZJ8MVae5_IITY0HJNYZ_cz7-ZcS8Rr1jq4l1XsFcyY-4oNbdaLjhjZNwQJfv_hIxKnkFBnzmIDFdoRF3A6CJj7N4ylpYxFJ5GKGulbu_EpkVN5nqrajuOQn62vDdp4kl4ERukK0j42B8Tkwp6hyBVzyWzt_o3KvLuJnQjfO9GcgCNvel7KJNRFwR0N3XZUqnh9KsIuSIyIbUfgUqJ62KJ9bpxOVtTmF-3Ked2os6aYdUIjtFuOjpVhQyfDK0cVUMn3Avm4cxzC2VovIdWdrbfJPuMooH4klHiGuFc18HQvIY57OVl-GEFw0mMiZ3fKUp-Upj7Er62dp7DL-XVGJSGVzHRyjiUiE2zs0sv6mVUtImZxh0OW8MdL65bqR7zQDn8lcAF7NZwdkq3uaQcq_SPjKW9AX8xT7TrN9_9-gah56sJnP4ltHo50DgYYyGXefmeMqZY-tt18I-v1ZQpuzjED_v9wmV4ZRr4nD32qxId2GD2ptO2lrz0Odo7yDhz8FX9lTKUex-67DVv67ug31mZk7SKkmGqEDKAlhdueKM9WlsPwZz9vcCm7dkyGcZxH0D2Cku5-imzqH8c0YEWlIOkM08uyg3i7GMbO-5fIIFSkxNn-XDoz11fIGmRw1oWWv7llym--DcVZExkxbx_Lyp5zWXJMeeygIcbrYP-k_o-rZ67kTNOpNyFhw__lNt7-L6ly7TgjIXBZLCZc5Tbt77gTKuL8Mfj6HQyEdwrUsh7-17kLheOvNKaZ_47EYaK5g5-pbe2oqnMX0tpHMztomzz5pggD1UggXctNR-WuOxQFGoMzJef36tPYCTgIL3HfL1uTD24zUCJWlVglbcvMhjmQGmFDJg6VJ_9je_eWnDjhcdVeJKcWpy6k71aDs_A5DZGwDUbvrM2YQvt9d2qcBELwLUeqV0oQ2gcI9Zexfi4-doqCqdx9RlAAkTmshsxK7RDMfepM9a5esB4dcWpaQmDVO-gakOvMHIoOrQRex4WaQ4GgvfVF4yLxiJngrOez_bI9SduXCAaMuLH34X1gKtKLQR8rhN7QbNocoFv2WeFb3XO2lz6cIM6nkmjrnwLwMcHOsK4Lm1SPQ2cDN7nzLjXZbLhEhFQqhcbjf0r6r0jvWa7dpJxEN5i6g4HOV2gjuOjpckYZgq2OpPzvkZhlxuMEr3j_JB6BgNL7FUnSsCxSxMgtgmiMQWNJKsjnCaApnVAXnJ1GgymsrSLfFYkqywN6d7q7-jq6YZ0bhnd0xKHYER2vwIVmba92qKBVMksbsHQ0891KTETMrnEGgPIW4s985EgEZ34ea11bMP2RwVjFU2Rm00?></g></svg>