<?plantuml 1.2026.1?><svg xmlns="http://www.w3.org/2000/svg" xmlns:xlink="http://www.w3.org/1999/xlink" contentStyleType="text/css" data-diagram-type="ACTIVITY" height="2226px" preserveAspectRatio="none" style="width:1216px;height:2226px;background:#FCFCFD;" version="1.1" viewBox="0 0 1216 2226" width="1216px" zoomAndPan="magnify"><title>Activity - identity/IdentityTagDefault</title><defs/><g><rect fill="#FCFCFD" height="2226" style="stroke:none;stroke-width:1;" width="1216" x="0" y="0"/><g class="title" data-source-line="10"><text fill="#000000" font-family="Helvetica" font-size="14" font-weight="bold" lengthAdjust="spacing" textLength="238.7998" x="487.3887" y="30.7803">Activity - identity/IdentityTagDefault</text></g><ellipse cx="650.6953" cy="55" fill="#1D4ED8" rx="10" ry="10" style="stroke:#222222;stroke-width:1;"/><rect fill="none" height="458" rx="8" ry="8" style="stroke:#000000;stroke-width:1.5;" width="599.1099" x="368.0781" y="75"/><path d="M490.1465,75 L490.1465,82 L480.1465,92 L368.0781,92" fill="none" style="stroke:#000000;stroke-width:1.5;"/><text fill="#000000" font-family="Helvetica" font-size="14" lengthAdjust="spacing" textLength="112.0684" x="371.0781" y="86.7803">Observe and Bind</text><rect fill="#F8FAFC" height="48" rx="8" ry="8" style="stroke:#0F172A;stroke-width:0.5;" width="304.7852" x="498.3027" y="109"/><text fill="#0F172A" font-family="Helvetica" font-size="14" lengthAdjust="spacing" textLength="136.9375" x="508.3027" y="129.7803">Start from shared flow</text><text fill="#0F172A" font-family="Helvetica" font-size="14" lengthAdjust="spacing" textLength="284.7852" x="508.3027" y="143.7803">shared/diagrams/shared-reconcile-activity.svg</text><rect fill="#F8FAFC" height="48" rx="8" ry="8" style="stroke:#0F172A;stroke-width:0.5;" width="307.9365" x="496.7271" y="177"/><text fill="#0F172A" font-family="Helvetica" font-size="14" lengthAdjust="spacing" textLength="287.9365" x="506.7271" y="197.7803">Read desired IdentityTagDefault spec, tracked</text><text fill="#0F172A" font-family="Helvetica" font-size="14" lengthAdjust="spacing" textLength="148.6611" x="506.7271" y="211.7803">status, and delete intent</text><polygon fill="#E2E8F0" points="521.2295,245,780.1611,245,792.1611,257,780.1611,269,521.2295,269,509.2295,257,521.2295,245" style="stroke:#1D4ED8;stroke-width:0.5;"/><text fill="#0F172A" font-family="Helvetica" font-size="14" lengthAdjust="spacing" textLength="258.9316" x="521.2295" y="260.7803">"Tracked or explicit OCI identity present?"</text><text fill="#000000" font-family="Helvetica" font-size="14" lengthAdjust="spacing" textLength="21.7861" x="487.4434" y="253.7803">yes</text><text fill="#000000" font-family="Helvetica" font-size="14" lengthAdjust="spacing" textLength="15.5723" x="792.1611" y="253.7803">no</text><rect fill="#F8FAFC" height="48" rx="8" ry="8" style="stroke:#0F172A;stroke-width:0.5;" width="222.3027" x="388.0781" y="279"/><text fill="#0F172A" font-family="Helvetica" font-size="14" lengthAdjust="spacing" textLength="202.3027" x="398.0781" y="299.7803">Get the current OCI resource via</text><text fill="#0F172A" font-family="Helvetica" font-size="14" lengthAdjust="spacing" textLength="136.1855" x="398.0781" y="313.7803">GetIdentityTagDefault</text><rect fill="#F8FAFC" height="62" rx="8" ry="8" style="stroke:#0F172A;stroke-width:0.5;" width="279.9092" x="662.2065" y="279"/><text fill="#0F172A" font-family="Helvetica" font-size="14" lengthAdjust="spacing" textLength="259.9092" x="672.2065" y="299.7803">Resolve an existing OCI resource through</text><text fill="#0F172A" font-family="Helvetica" font-size="14" lengthAdjust="spacing" textLength="210.1025" x="672.2065" y="313.7803">ListIdentityTagDefault using filters</text><text fill="#0F172A" font-family="Helvetica" font-size="14" lengthAdjust="spacing" textLength="138.5098" x="672.2065" y="327.7803">compartment_id, state</text><rect fill="#F8FAFC" height="62" rx="8" ry="8" style="stroke:#0F172A;stroke-width:0.5;" width="290.0537" x="657.1343" y="361"/><text fill="#0F172A" font-family="Helvetica" font-size="14" lengthAdjust="spacing" textLength="174.2959" x="667.1343" y="381.7803">Create the OCI resource via</text><text fill="#0F172A" font-family="Helvetica" font-size="14" lengthAdjust="spacing" textLength="270.0537" x="667.1343" y="395.7803">CreateIdentityTagDefault when no reusable</text><text fill="#0F172A" font-family="Helvetica" font-size="14" lengthAdjust="spacing" textLength="91.0479" x="667.1343" y="409.7803">match is found</text><rect fill="#F8FAFC" height="48" rx="8" ry="8" style="stroke:#0F172A;stroke-width:0.5;" width="286.8955" x="658.7134" y="443"/><text fill="#0F172A" font-family="Helvetica" font-size="14" lengthAdjust="spacing" textLength="266.8955" x="668.7134" y="463.7803">Persist the resolved or created OCI identity</text><text fill="#0F172A" font-family="Helvetica" font-size="14" lengthAdjust="spacing" textLength="63.8135" x="668.7134" y="477.7803">into status</text><polygon fill="#E2E8F0" points="650.6953,497,662.6953,509,650.6953,521,638.6953,509,650.6953,497" style="stroke:#1D4ED8;stroke-width:0.5;"/><polygon fill="#E2E8F0" points="588.519,553,712.8716,553,724.8716,565,712.8716,577,588.519,577,576.519,565,588.519,553" style="stroke:#1D4ED8;stroke-width:0.5;"/><text fill="#0F172A" font-family="Helvetica" font-size="14" lengthAdjust="spacing" textLength="124.3525" x="588.519" y="568.7803">"Delete requested?"</text><text fill="#000000" font-family="Helvetica" font-size="14" lengthAdjust="spacing" textLength="21.7861" x="554.7329" y="561.7803">yes</text><text fill="#000000" font-family="Helvetica" font-size="14" lengthAdjust="spacing" textLength="15.5723" x="724.8716" y="561.7803">no</text><rect fill="none" height="356" rx="8" ry="8" style="stroke:#000000;stroke-width:1.5;" width="644.4814" x="11" y="587"/><path d="M61.4688,587 L61.4688,594 L51.4688,604 L11,604" fill="none" style="stroke:#000000;stroke-width:1.5;"/><text fill="#000000" font-family="Helvetica" font-size="14" lengthAdjust="spacing" textLength="40.4688" x="14" y="598.7803">Delete</text><rect fill="#F8FAFC" height="62" rx="8" ry="8" style="stroke:#0F172A;stroke-width:0.5;" width="319.5781" x="179.9551" y="621"/><text fill="#0F172A" font-family="Helvetica" font-size="14" lengthAdjust="spacing" textLength="291.833" x="189.9551" y="641.7803">Delete path uses DeleteIdentityTagDefault with</text><text fill="#0F172A" font-family="Helvetica" font-size="14" lengthAdjust="spacing" textLength="229.5645" x="189.9551" y="655.7803">required via GetIdentityTagDefault or</text><text fill="#0F172A" font-family="Helvetica" font-size="14" lengthAdjust="spacing" textLength="299.5781" x="189.9551" y="669.7803">ListIdentityTagDefault to DELETED confirmation</text><rect fill="#F8FAFC" height="62" rx="8" ry="8" style="stroke:#0F172A;stroke-width:0.5;" width="300.1367" x="189.6758" y="718"/><text fill="#0F172A" font-family="Helvetica" font-size="14" lengthAdjust="spacing" textLength="280.1367" x="199.6758" y="738.7803">Confirm deletion via GetIdentityTagDefault or</text><text fill="#0F172A" font-family="Helvetica" font-size="14" lengthAdjust="spacing" textLength="247.4541" x="199.6758" y="752.7803">ListIdentityTagDefault until OCI reaches</text><text fill="#0F172A" font-family="Helvetica" font-size="14" lengthAdjust="spacing" textLength="64.5723" x="199.6758" y="766.7803">DELETED</text><polygon fill="#E2E8F0" points="191.5718,811,487.9165,811,499.9165,823,487.9165,835,191.5718,835,179.5718,823,191.5718,811" style="stroke:#1D4ED8;stroke-width:0.5;"/><text fill="#0F172A" font-family="Helvetica" font-size="14" lengthAdjust="spacing" textLength="296.3447" x="191.5718" y="826.7803">"Delete cleanup and finalizer release succeed?"</text><text fill="#000000" font-family="Helvetica" font-size="14" lengthAdjust="spacing" textLength="21.7861" x="157.7856" y="819.7803">yes</text><text fill="#000000" font-family="Helvetica" font-size="14" lengthAdjust="spacing" textLength="15.5723" x="499.9165" y="819.7803">no</text><rect fill="#F8FAFC" height="34" rx="8" ry="8" style="stroke:#0F172A;stroke-width:0.5;" width="293.1436" x="23" y="845"/><text fill="#0F172A" font-family="Helvetica" font-size="14" lengthAdjust="spacing" textLength="273.1436" x="33" y="865.7803">Remove the finalizer after delete completion</text><rect fill="#F8FAFC" height="48" rx="8" ry="8" style="stroke:#0F172A;stroke-width:0.5;" width="251.1299" x="384.3516" y="845"/><text fill="#0F172A" font-family="Helvetica" font-size="14" lengthAdjust="spacing" textLength="231.1299" x="394.3516" y="865.7803">Stay blocked until cleanup or finalizer</text><text fill="#0F172A" font-family="Helvetica" font-size="14" lengthAdjust="spacing" textLength="108.9512" x="394.3516" y="879.7803">release succeeds</text><polygon fill="#E2E8F0" points="339.7441,899,351.7441,911,339.7441,923,327.7441,911,339.7441,899" style="stroke:#1D4ED8;stroke-width:0.5;"/><ellipse cx="339.7441" cy="983" fill="none" rx="11" ry="11" style="stroke:#222222;stroke-width:1;"/><ellipse cx="339.7441" cy="983" fill="#222222" rx="6" ry="6" style="stroke:#222222;stroke-width:1;"/><rect fill="none" height="441" rx="8" ry="8" style="stroke:#000000;stroke-width:1.5;" width="345.916" x="794.6885" y="587"/><path d="M945.5225,587 L945.5225,594 L935.5225,604 L794.6885,604" fill="none" style="stroke:#000000;stroke-width:1.5;"/><text fill="#000000" font-family="Helvetica" font-size="14" lengthAdjust="spacing" textLength="140.834" x="797.6885" y="598.7803">Lifecycle Classification</text><rect fill="#F8FAFC" height="48" rx="8" ry="8" style="stroke:#0F172A;stroke-width:0.5;" width="280.5928" x="821.3501" y="670"/><text fill="#0F172A" font-family="Helvetica" font-size="14" lengthAdjust="spacing" textLength="240.4541" x="831.3501" y="690.7803">Request requeue while OCI remains in</text><text fill="#0F172A" font-family="Helvetica" font-size="14" lengthAdjust="spacing" textLength="260.5928" x="831.3501" y="704.7803">PROVISIONING, UPDATING, DELETING</text><ellipse cx="961.6465" cy="764" fill="none" rx="11" ry="11" style="stroke:#222222;stroke-width:1;"/><ellipse cx="961.6465" cy="764" fill="#222222" rx="6" ry="6" style="stroke:#222222;stroke-width:1;"/><polygon fill="#E2E8F0" points="875.3633,621,1047.9297,621,1059.9297,633,1047.9297,645,875.3633,645,863.3633,633,875.3633,621" style="stroke:#1D4ED8;stroke-width:0.5;"/><text fill="#000000" font-family="Helvetica" font-size="14" lengthAdjust="spacing" textLength="21.7861" x="965.6465" y="655.7803">yes</text><text fill="#0F172A" font-family="Helvetica" font-size="14" lengthAdjust="spacing" textLength="172.5664" x="875.3633" y="636.7803">"OCI state in retryable set?"</text><rect fill="#F8FAFC" height="48" rx="8" ry="8" style="stroke:#0F172A;stroke-width:0.5;" width="293.916" x="814.6885" y="886"/><text fill="#0F172A" font-family="Helvetica" font-size="14" lengthAdjust="spacing" textLength="273.916" x="824.6885" y="906.7803">Return an unsuccessful reconcile result until</text><text fill="#0F172A" font-family="Helvetica" font-size="14" lengthAdjust="spacing" textLength="133.041" x="824.6885" y="920.7803">OCI reaches ACTIVE</text><ellipse cx="961.6465" cy="974" fill="none" rx="11" ry="11" style="stroke:#222222;stroke-width:1;"/><ellipse cx="961.6465" cy="974" fill="#222222" rx="6" ry="6" style="stroke:#222222;stroke-width:1;"/><polygon fill="#E2E8F0" points="841.1255,837,1082.1675,837,1094.1675,849,1082.1675,861,841.1255,861,829.1255,849,841.1255,837" style="stroke:#1D4ED8;stroke-width:0.5;"/><text fill="#000000" font-family="Helvetica" font-size="14" lengthAdjust="spacing" textLength="21.7861" x="965.6465" y="871.7803">yes</text><text fill="#0F172A" font-family="Helvetica" font-size="14" lengthAdjust="spacing" textLength="241.042" x="841.1255" y="852.7803">"OCI state is outside success targets?"</text><rect fill="none" height="722.5" rx="8" ry="8" style="stroke:#000000;stroke-width:1.5;" width="530.0957" x="675.4814" y="1038"/><path d="M841.9014,1038 L841.9014,1045 L831.9014,1055 L675.4814,1055" fill="none" style="stroke:#000000;stroke-width:1.5;"/><text fill="#000000" font-family="Helvetica" font-size="14" lengthAdjust="spacing" textLength="156.4199" x="678.4814" y="1049.7803">Ready and Drift Handling</text><rect fill="#F8FAFC" height="48" rx="8" ry="8" style="stroke:#0F172A;stroke-width:0.5;" width="296.2402" x="813.5264" y="1072"/><text fill="#0F172A" font-family="Helvetica" font-size="14" lengthAdjust="spacing" textLength="276.2402" x="823.5264" y="1092.7803">Compare live OCI state against the imported</text><text fill="#0F172A" font-family="Helvetica" font-size="14" lengthAdjust="spacing" textLength="75.4824" x="823.5264" y="1106.7803">field surface</text><rect fill="#F8FAFC" height="48" rx="8" ry="8" style="stroke:#0F172A;stroke-width:0.5;" width="302.4473" x="810.4229" y="1189"/><text fill="#0F172A" font-family="Helvetica" font-size="14" lengthAdjust="spacing" textLength="282.4473" x="820.4229" y="1209.7803">Reject drift before OCI mutation for force-new</text><text fill="#0F172A" font-family="Helvetica" font-size="14" lengthAdjust="spacing" textLength="136.9512" x="820.4229" y="1223.7803">fields compartment_id</text><ellipse cx="961.6465" cy="1269.5" fill="none" rx="11" ry="11" style="stroke:#222222;stroke-width:1;"/><ellipse cx="961.6465" cy="1269.5" fill="#222222" rx="6" ry="6" style="stroke:#222222;stroke-width:1;"/><polygon fill="#E2E8F0" points="836.0635,1140,1087.2295,1140,1099.2295,1152,1087.2295,1164,836.0635,1164,824.0635,1152,836.0635,1140" style="stroke:#1D4ED8;stroke-width:0.5;"/><text fill="#000000" font-family="Helvetica" font-size="14" lengthAdjust="spacing" textLength="21.7861" x="965.6465" y="1174.7803">yes</text><text fill="#0F172A" font-family="Helvetica" font-size="14" lengthAdjust="spacing" textLength="251.166" x="836.0635" y="1155.7803">"Force-new or conflicting drift detected?"</text><polygon fill="#E2E8F0" points="851.2188,1322.5,1072.0742,1322.5,1084.0742,1334.5,1072.0742,1346.5,851.2188,1346.5,839.2188,1334.5,851.2188,1322.5" style="stroke:#1D4ED8;stroke-width:0.5;"/><text fill="#0F172A" font-family="Helvetica" font-size="14" lengthAdjust="spacing" textLength="220.8555" x="851.2188" y="1338.2803">"Supported mutable drift detected?"</text><text fill="#000000" font-family="Helvetica" font-size="14" lengthAdjust="spacing" textLength="21.7861" x="817.4326" y="1331.2803">yes</text><text fill="#000000" font-family="Helvetica" font-size="14" lengthAdjust="spacing" textLength="15.5723" x="1084.0742" y="1331.2803">no</text><rect fill="#F8FAFC" height="48" rx="8" ry="8" style="stroke:#0F172A;stroke-width:0.5;" width="267.4746" x="695.4814" y="1356.5"/><text fill="#0F172A" font-family="Helvetica" font-size="14" lengthAdjust="spacing" textLength="247.4746" x="705.4814" y="1377.2803">Apply UpdateIdentityTagDefault only for</text><text fill="#0F172A" font-family="Helvetica" font-size="14" lengthAdjust="spacing" textLength="176.6543" x="705.4814" y="1391.2803">mutable fields display_name</text><rect fill="#F8FAFC" height="34" rx="8" ry="8" style="stroke:#0F172A;stroke-width:0.5;" width="199.0059" x="994.5713" y="1356.5"/><text fill="#0F172A" font-family="Helvetica" font-size="14" lengthAdjust="spacing" textLength="179.0059" x="1004.5713" y="1377.2803">Skip the no-op mutation path</text><polygon fill="#E2E8F0" points="961.6465,1410.5,973.6465,1422.5,961.6465,1434.5,949.6465,1422.5,961.6465,1410.5" style="stroke:#1D4ED8;stroke-width:0.5;"/><rect fill="#F8FAFC" height="118" rx="8" ry="8" style="stroke:#0F172A;stroke-width:0.5;" width="334.3164" x="794.4883" y="1454.5"/><text fill="#0F172A" font-family="Helvetica" font-size="14" lengthAdjust="spacing" textLength="164.2061" x="804.4883" y="1475.2803">Run provider helper hooks</text><text fill="#0F172A" font-family="Helvetica" font-size="14" lengthAdjust="spacing" textLength="219.0508" x="804.4883" y="1489.2803">create=tfresource.CreateResource,</text><text fill="#0F172A" font-family="Helvetica" font-size="14" lengthAdjust="spacing" textLength="314.3164" x="804.4883" y="1503.2803">tfresource.WaitForWorkRequestWithErrorHandling</text><text fill="#0F172A" font-family="Helvetica" font-size="14" lengthAdjust="spacing" textLength="215.5439" x="804.4883" y="1517.2803">entity=template action=CREATED;</text><text fill="#0F172A" font-family="Helvetica" font-size="14" lengthAdjust="spacing" textLength="226.085" x="804.4883" y="1531.2803">update=tfresource.UpdateResource;</text><text fill="#0F172A" font-family="Helvetica" font-size="14" lengthAdjust="spacing" textLength="273.5537" x="804.4883" y="1545.2803">delete=tfresource.DeleteResource when the</text><text fill="#0F172A" font-family="Helvetica" font-size="14" lengthAdjust="spacing" textLength="220.2334" x="804.4883" y="1559.2803">matching field-driven path executes</text><rect fill="#F8FAFC" height="34" rx="8" ry="8" style="stroke:#0F172A;stroke-width:0.5;" width="303.2197" x="810.0366" y="1592.5"/><text fill="#0F172A" font-family="Helvetica" font-size="14" lengthAdjust="spacing" textLength="283.2197" x="820.0366" y="1613.2803">Return success for the ACTIVE success state</text><rect fill="#F8FAFC" height="48" rx="8" ry="8" style="stroke:#0F172A;stroke-width:0.5;" width="279.1299" x="822.0815" y="1646.5"/><text fill="#0F172A" font-family="Helvetica" font-size="14" lengthAdjust="spacing" textLength="259.1299" x="832.0815" y="1667.2803">Project required status and finalizer policy</text><text fill="#0F172A" font-family="Helvetica" font-size="14" lengthAdjust="spacing" textLength="174.3027" x="832.0815" y="1681.2803">retain-until-confirmed-delete</text><rect fill="#F8FAFC" height="34" rx="8" ry="8" style="stroke:#0F172A;stroke-width:0.5;" width="313.4189" x="804.937" y="1714.5"/><text fill="#0F172A" font-family="Helvetica" font-size="14" lengthAdjust="spacing" textLength="293.4189" x="814.937" y="1735.2803">Requeue on provisioning, updating, terminating</text><path d="M681.6953,1770.5 L681.6953,1988.5 L661.6953,1992.5 L681.6953,1996.5 L681.6953,2214.5 A0,0 0 0 0 681.6953,2214.5 L998.377,2214.5 A0,0 0 0 0 998.377,2214.5 L998.377,1780.5 L988.377,1770.5 L681.6953,1770.5 A0,0 0 0 0 681.6953,1770.5" fill="#FFF7D6" style="stroke:#B45309;stroke-width:0.5;"/><path d="M988.377,1770.5 L988.377,1780.5 L998.377,1780.5 L988.377,1770.5" fill="#FFF7D6" style="stroke:#B45309;stroke-width:0.5;"/><text fill="#334155" font-family="Helvetica" font-size="14" lengthAdjust="spacing" textLength="101.165" x="687.6953" y="1786.2803">shared diagram:</text><text fill="#334155" font-family="Helvetica" font-size="14" lengthAdjust="spacing" textLength="284.7852" x="687.6953" y="1800.2803">shared/diagrams/shared-reconcile-activity.svg</text><text fill="#334155" font-family="Helvetica" font-size="14" lengthAdjust="spacing" textLength="265.3438" x="687.6953" y="1814.2803">Start from the shared reconcile activity and</text><text fill="#334155" font-family="Helvetica" font-size="14" lengthAdjust="spacing" textLength="273.8955" x="687.6953" y="1828.2803">specialize provider-backed CRUD, wait, and</text><text fill="#334155" font-family="Helvetica" font-size="14" lengthAdjust="spacing" textLength="182.875" x="687.6953" y="1842.2803">status-projection details here.</text><text fill="#334155" font-family="Helvetica" font-size="14" lengthAdjust="spacing" textLength="229.5371" x="687.6953" y="1856.2803">Controller-local activity diagrams add</text><text fill="#334155" font-family="Helvetica" font-size="14" lengthAdjust="spacing" textLength="238.8955" x="687.6953" y="1870.2803">list-lookup hints, secret policies, delete</text><text fill="#334155" font-family="Helvetica" font-size="14" lengthAdjust="spacing" textLength="200.0332" x="687.6953" y="1884.2803">handling, and open formal gaps.</text><text fill="#334155" font-family="Helvetica" font-size="14" lengthAdjust="spacing" textLength="281.709" x="687.6953" y="1898.2803">archetype batch: Generated service-manager</text><text fill="#334155" font-family="Helvetica" font-size="14" lengthAdjust="spacing" textLength="291.0469" x="687.6953" y="1912.2803">controllers specialize the shared reconcile path</text><text fill="#334155" font-family="Helvetica" font-size="14" lengthAdjust="spacing" textLength="189.8477" x="687.6953" y="1926.2803">with formal runtime ownership.</text><text fill="#334155" font-family="Helvetica" font-size="14" lengthAdjust="spacing" textLength="96.4824" x="687.6953" y="1940.2803">service: identity</text><text fill="#334155" font-family="Helvetica" font-size="14" lengthAdjust="spacing" textLength="139.3164" x="687.6953" y="1954.2803">slug: identitytagdefault</text><text fill="#334155" font-family="Helvetica" font-size="14" lengthAdjust="spacing" textLength="147.082" x="687.6953" y="1968.2803">kind: IdentityTagDefault</text><text fill="#334155" font-family="Helvetica" font-size="14" lengthAdjust="spacing" textLength="241.2402" x="687.6953" y="1982.2803">archetype: generated-service-manager</text><text fill="#334155" font-family="Helvetica" font-size="14" lengthAdjust="spacing" textLength="156.4063" x="687.6953" y="1996.2803">status/finalizer: required /</text><text fill="#334155" font-family="Helvetica" font-size="14" lengthAdjust="spacing" textLength="174.3027" x="687.6953" y="2010.2803">retain-until-confirmed-delete</text><text fill="#334155" font-family="Helvetica" font-size="14" lengthAdjust="spacing" textLength="272.3984" x="687.6953" y="2024.2803">requeue: provisioning, updating, terminating</text><text fill="#334155" font-family="Helvetica" font-size="14" lengthAdjust="spacing" textLength="295.6816" x="687.6953" y="2038.2803">provider states: create PROVISIONING; update</text><text fill="#334155" font-family="Helvetica" font-size="14" lengthAdjust="spacing" textLength="192.165" x="687.6953" y="2052.2803">UPDATING; delete DELETING</text><text fill="#334155" font-family="Helvetica" font-size="14" lengthAdjust="spacing" textLength="183.6611" x="687.6953" y="2066.2803">supported drift: display_name</text><text fill="#334155" font-family="Helvetica" font-size="14" lengthAdjust="spacing" textLength="230.3301" x="687.6953" y="2080.2803">reject before mutate: force-new fields</text><text fill="#334155" font-family="Helvetica" font-size="14" lengthAdjust="spacing" textLength="100.3789" x="687.6953" y="2094.2803">compartment_id</text><text fill="#334155" font-family="Helvetica" font-size="14" lengthAdjust="spacing" textLength="66.1445" x="687.6953" y="2108.2803">list lookup:</text><text fill="#334155" font-family="Helvetica" font-size="14" lengthAdjust="spacing" textLength="251.3711" x="687.6953" y="2122.2803">scaffold_identity_identitytagdefault filters</text><text fill="#334155" font-family="Helvetica" font-size="14" lengthAdjust="spacing" textLength="138.5098" x="687.6953" y="2136.2803">compartment_id, state</text><text fill="#334155" font-family="Helvetica" font-size="14" lengthAdjust="spacing" textLength="89.4961" x="687.6953" y="2150.2803">conflicts: none</text><text fill="#334155" font-family="Helvetica" font-size="14" lengthAdjust="spacing" textLength="104.3164" x="687.6953" y="2164.2803">open gaps: none</text><text fill="#334155" font-family="Helvetica" font-size="14" lengthAdjust="spacing" textLength="224.9023" x="687.6953" y="2178.2803">Scaffold metadata only; replace with</text><text fill="#334155" font-family="Helvetica" font-size="14" lengthAdjust="spacing" textLength="244.3232" x="687.6953" y="2192.2803">controller-specific runtime states before</text><text fill="#334155" font-family="Helvetica" font-size="14" lengthAdjust="spacing" textLength="66.1445" x="687.6953" y="2206.2803">promotion.</text><ellipse cx="650.6953" cy="1992.5" fill="none" rx="11" ry="11" style="stroke:#222222;stroke-width:1;"/><ellipse cx="650.6953" cy="1992.5" fill="#222222" rx="6" ry="6" style="stroke:#222222;stroke-width:1;"/><line style="stroke:#0F172A;stroke-width:1;" x1="650.6953" x2="650.6953" y1="157" y2="177"/><polygon fill="#0F172A" points="646.6953,167,650.6953,177,654.6953,167,650.6953,171" style="stroke:#0F172A;stroke-width:1;"/><line style="stroke:#0F172A;stroke-width:1;" x1="802.1611" x2="802.1611" y1="341" y2="361"/><polygon fill="#0F172A" points="798.1611,351,802.1611,361,806.1611,351,802.1611,355" style="stroke:#0F172A;stroke-width:1;"/><line style="stroke:#0F172A;stroke-width:1;" x1="802.1611" x2="802.1611" y1="423" y2="443"/><polygon fill="#0F172A" points="798.1611,433,802.1611,443,806.1611,433,802.1611,437" style="stroke:#0F172A;stroke-width:1;"/><line style="stroke:#0F172A;stroke-width:1;" x1="509.2295" x2="499.2295" y1="257" y2="257"/><line style="stroke:#0F172A;stroke-width:1;" x1="499.2295" x2="499.2295" y1="257" y2="279"/><polygon fill="#0F172A" points="495.2295,269,499.2295,279,503.2295,269,499.2295,273" style="stroke:#0F172A;stroke-width:1;"/><line style="stroke:#0F172A;stroke-width:1;" x1="792.1611" x2="802.1611" y1="257" y2="257"/><line style="stroke:#0F172A;stroke-width:1;" x1="802.1611" x2="802.1611" y1="257" y2="279"/><polygon fill="#0F172A" points="798.1611,269,802.1611,279,806.1611,269,802.1611,273" style="stroke:#0F172A;stroke-width:1;"/><line style="stroke:#0F172A;stroke-width:1;" x1="499.2295" x2="499.2295" y1="327" y2="509"/><line style="stroke:#0F172A;stroke-width:1;" x1="499.2295" x2="638.6953" y1="509" y2="509"/><polygon fill="#0F172A" points="628.6953,505,638.6953,509,628.6953,513,632.6953,509" style="stroke:#0F172A;stroke-width:1;"/><line style="stroke:#0F172A;stroke-width:1;" x1="802.1611" x2="802.1611" y1="491" y2="509"/><line style="stroke:#0F172A;stroke-width:1;" x1="802.1611" x2="662.6953" y1="509" y2="509"/><polygon fill="#0F172A" points="672.6953,505,662.6953,509,672.6953,513,668.6953,509" style="stroke:#0F172A;stroke-width:1;"/><line style="stroke:#0F172A;stroke-width:1;" x1="650.6953" x2="650.6953" y1="225" y2="245"/><polygon fill="#0F172A" points="646.6953,235,650.6953,245,654.6953,235,650.6953,239" style="stroke:#0F172A;stroke-width:1;"/><line style="stroke:#0F172A;stroke-width:1;" x1="650.6953" x2="650.6953" y1="65" y2="109"/><polygon fill="#0F172A" points="646.6953,99,650.6953,109,654.6953,99,650.6953,103" style="stroke:#0F172A;stroke-width:1;"/><line style="stroke:#0F172A;stroke-width:1;" x1="339.7441" x2="339.7441" y1="683" y2="718"/><polygon fill="#0F172A" points="335.7441,708,339.7441,718,343.7441,708,339.7441,712" style="stroke:#0F172A;stroke-width:1;"/><line style="stroke:#0F172A;stroke-width:1;" x1="179.5718" x2="169.5718" y1="823" y2="823"/><line style="stroke:#0F172A;stroke-width:1;" x1="169.5718" x2="169.5718" y1="823" y2="845"/><polygon fill="#0F172A" points="165.5718,835,169.5718,845,173.5718,835,169.5718,839" style="stroke:#0F172A;stroke-width:1;"/><line style="stroke:#0F172A;stroke-width:1;" x1="499.9165" x2="509.9165" y1="823" y2="823"/><line style="stroke:#0F172A;stroke-width:1;" x1="509.9165" x2="509.9165" y1="823" y2="845"/><polygon fill="#0F172A" points="505.9165,835,509.9165,845,513.9165,835,509.9165,839" style="stroke:#0F172A;stroke-width:1;"/><line style="stroke:#0F172A;stroke-width:1;" x1="169.5718" x2="169.5718" y1="879" y2="911"/><line style="stroke:#0F172A;stroke-width:1;" x1="169.5718" x2="327.7441" y1="911" y2="911"/><polygon fill="#0F172A" points="317.7441,907,327.7441,911,317.7441,915,321.7441,911" style="stroke:#0F172A;stroke-width:1;"/><line style="stroke:#0F172A;stroke-width:1;" x1="509.9165" x2="509.9165" y1="893" y2="911"/><line style="stroke:#0F172A;stroke-width:1;" x1="509.9165" x2="351.7441" y1="911" y2="911"/><polygon fill="#0F172A" points="361.7441,907,351.7441,911,361.7441,915,357.7441,911" style="stroke:#0F172A;stroke-width:1;"/><line style="stroke:#0F172A;stroke-width:1;" x1="339.7441" x2="339.7441" y1="780" y2="811"/><polygon fill="#0F172A" points="335.7441,801,339.7441,811,343.7441,801,339.7441,805" style="stroke:#0F172A;stroke-width:1;"/><line style="stroke:#0F172A;stroke-width:1;" x1="339.7441" x2="339.7441" y1="923" y2="972"/><polygon fill="#0F172A" points="335.7441,962,339.7441,972,343.7441,962,339.7441,966" style="stroke:#0F172A;stroke-width:1;"/><line style="stroke:#0F172A;stroke-width:1;" x1="961.6465" x2="961.6465" y1="718" y2="753"/><polygon fill="#0F172A" points="957.6465,743,961.6465,753,965.6465,743,961.6465,747" style="stroke:#0F172A;stroke-width:1;"/><line style="stroke:#0F172A;stroke-width:1;" x1="961.6465" x2="961.6465" y1="645" y2="670"/><polygon fill="#0F172A" points="957.6465,660,961.6465,670,965.6465,660,961.6465,664" style="stroke:#0F172A;stroke-width:1;"/><line style="stroke:#0F172A;stroke-width:1;" x1="1059.9297" x2="1111.9429" y1="633" y2="633"/><polygon fill="#0F172A" points="1107.9429,709.5,1111.9429,719.5,1115.9429,709.5,1111.9429,713.5" style="stroke:#0F172A;stroke-width:1;"/><line style="stroke:#0F172A;stroke-width:1;" x1="1111.9429" x2="1111.9429" y1="633" y2="802"/><line style="stroke:#0F172A;stroke-width:1;" x1="1111.9429" x2="961.6465" y1="802" y2="802"/><line style="stroke:#0F172A;stroke-width:1;" x1="961.6465" x2="961.6465" y1="802" y2="837"/><polygon fill="#0F172A" points="957.6465,827,961.6465,837,965.6465,827,961.6465,831" style="stroke:#0F172A;stroke-width:1;"/><line style="stroke:#0F172A;stroke-width:1;" x1="961.6465" x2="961.6465" y1="934" y2="963"/><polygon fill="#0F172A" points="957.6465,953,961.6465,963,965.6465,953,961.6465,957" style="stroke:#0F172A;stroke-width:1;"/><line style="stroke:#0F172A;stroke-width:1;" x1="961.6465" x2="961.6465" y1="861" y2="886"/><polygon fill="#0F172A" points="957.6465,876,961.6465,886,965.6465,876,961.6465,880" style="stroke:#0F172A;stroke-width:1;"/><line style="stroke:#0F172A;stroke-width:1;" x1="1094.1675" x2="1118.6045" y1="849" y2="849"/><polygon fill="#0F172A" points="1114.6045,925.5,1118.6045,935.5,1122.6045,925.5,1118.6045,929.5" style="stroke:#0F172A;stroke-width:1;"/><line style="stroke:#0F172A;stroke-width:1;" x1="1118.6045" x2="1118.6045" y1="849" y2="1016"/><line style="stroke:#0F172A;stroke-width:1;" x1="1118.6045" x2="961.6465" y1="1016" y2="1016"/><line style="stroke:#0F172A;stroke-width:1;" x1="961.6465" x2="961.6465" y1="1016" y2="1072"/><polygon fill="#0F172A" points="957.6465,1062,961.6465,1072,965.6465,1062,961.6465,1066" style="stroke:#0F172A;stroke-width:1;"/><line style="stroke:#0F172A;stroke-width:1;" x1="961.6465" x2="961.6465" y1="1237" y2="1258.5"/><polygon fill="#0F172A" points="957.6465,1248.5,961.6465,1258.5,965.6465,1248.5,961.6465,1252.5" style="stroke:#0F172A;stroke-width:1;"/><line style="stroke:#0F172A;stroke-width:1;" x1="961.6465" x2="961.6465" y1="1164" y2="1189"/><polygon fill="#0F172A" points="957.6465,1179,961.6465,1189,965.6465,1179,961.6465,1183" style="stroke:#0F172A;stroke-width:1;"/><line style="stroke:#0F172A;stroke-width:1;" x1="1099.2295" x2="1122.8701" y1="1152" y2="1152"/><polygon fill="#0F172A" points="1118.8701,1228.5,1122.8701,1238.5,1126.8701,1228.5,1122.8701,1232.5" style="stroke:#0F172A;stroke-width:1;"/><line style="stroke:#0F172A;stroke-width:1;" x1="1122.8701" x2="1122.8701" y1="1152" y2="1302.5"/><line style="stroke:#0F172A;stroke-width:1;" x1="1122.8701" x2="961.6465" y1="1302.5" y2="1302.5"/><line style="stroke:#0F172A;stroke-width:1;" x1="961.6465" x2="961.6465" y1="1302.5" y2="1322.5"/><polygon fill="#0F172A" points="957.6465,1312.5,961.6465,1322.5,965.6465,1312.5,961.6465,1316.5" style="stroke:#0F172A;stroke-width:1;"/><line style="stroke:#0F172A;stroke-width:1;" x1="961.6465" x2="961.6465" y1="1120" y2="1140"/><polygon fill="#0F172A" points="957.6465,1130,961.6465,1140,965.6465,1130,961.6465,1134" style="stroke:#0F172A;stroke-width:1;"/><line style="stroke:#0F172A;stroke-width:1;" x1="839.2188" x2="829.2188" y1="1334.5" y2="1334.5"/><line style="stroke:#0F172A;stroke-width:1;" x1="829.2188" x2="829.2188" y1="1334.5" y2="1356.5"/><polygon fill="#0F172A" points="825.2188,1346.5,829.2188,1356.5,833.2188,1346.5,829.2188,1350.5" style="stroke:#0F172A;stroke-width:1;"/><line style="stroke:#0F172A;stroke-width:1;" x1="1084.0742" x2="1094.0742" y1="1334.5" y2="1334.5"/><line style="stroke:#0F172A;stroke-width:1;" x1="1094.0742" x2="1094.0742" y1="1334.5" y2="1356.5"/><polygon fill="#0F172A" points="1090.0742,1346.5,1094.0742,1356.5,1098.0742,1346.5,1094.0742,1350.5" style="stroke:#0F172A;stroke-width:1;"/><line style="stroke:#0F172A;stroke-width:1;" x1="829.2188" x2="829.2188" y1="1404.5" y2="1422.5"/><line style="stroke:#0F172A;stroke-width:1;" x1="829.2188" x2="949.6465" y1="1422.5" y2="1422.5"/><polygon fill="#0F172A" points="939.6465,1418.5,949.6465,1422.5,939.6465,1426.5,943.6465,1422.5" style="stroke:#0F172A;stroke-width:1;"/><line style="stroke:#0F172A;stroke-width:1;" x1="1094.0742" x2="1094.0742" y1="1390.5" y2="1422.5"/><line style="stroke:#0F172A;stroke-width:1;" x1="1094.0742" x2="973.6465" y1="1422.5" y2="1422.5"/><polygon fill="#0F172A" points="983.6465,1418.5,973.6465,1422.5,983.6465,1426.5,979.6465,1422.5" style="stroke:#0F172A;stroke-width:1;"/><line style="stroke:#0F172A;stroke-width:1;" x1="961.6465" x2="961.6465" y1="1434.5" y2="1454.5"/><polygon fill="#0F172A" points="957.6465,1444.5,961.6465,1454.5,965.6465,1444.5,961.6465,1448.5" style="stroke:#0F172A;stroke-width:1;"/><line style="stroke:#0F172A;stroke-width:1;" x1="961.6465" x2="961.6465" y1="1572.5" y2="1592.5"/><polygon fill="#0F172A" points="957.6465,1582.5,961.6465,1592.5,965.6465,1582.5,961.6465,1586.5" style="stroke:#0F172A;stroke-width:1;"/><line style="stroke:#0F172A;stroke-width:1;" x1="961.6465" x2="961.6465" y1="1626.5" y2="1646.5"/><polygon fill="#0F172A" points="957.6465,1636.5,961.6465,1646.5,965.6465,1636.5,961.6465,1640.5" style="stroke:#0F172A;stroke-width:1;"/><line style="stroke:#0F172A;stroke-width:1;" x1="961.6465" x2="961.6465" y1="1694.5" y2="1714.5"/><polygon fill="#0F172A" points="957.6465,1704.5,961.6465,1714.5,965.6465,1704.5,961.6465,1708.5" style="stroke:#0F172A;stroke-width:1;"/><line style="stroke:#0F172A;stroke-width:1;" x1="576.519" x2="339.7441" y1="565" y2="565"/><line style="stroke:#0F172A;stroke-width:1;" x1="339.7441" x2="339.7441" y1="565" y2="621"/><polygon fill="#0F172A" points="335.7441,611,339.7441,621,343.7441,611,339.7441,615" style="stroke:#0F172A;stroke-width:1;"/><line style="stroke:#0F172A;stroke-width:1;" x1="724.8716" x2="961.6465" y1="565" y2="565"/><line style="stroke:#0F172A;stroke-width:1;" x1="961.6465" x2="961.6465" y1="565" y2="621"/><polygon fill="#0F172A" points="957.6465,611,961.6465,621,965.6465,611,961.6465,615" style="stroke:#0F172A;stroke-width:1;"/><line style="stroke:#0F172A;stroke-width:1;" x1="961.6465" x2="961.6465" y1="1748.5" y2="1765.5"/><line style="stroke:#0F172A;stroke-width:1;" x1="961.6465" x2="650.6953" y1="1765.5" y2="1765.5"/><line style="stroke:#0F172A;stroke-width:1;" x1="650.6953" x2="650.6953" y1="1765.5" y2="1981.5"/><polygon fill="#0F172A" points="646.6953,1971.5,650.6953,1981.5,654.6953,1971.5,650.6953,1975.5" style="stroke:#0F172A;stroke-width:1;"/><line style="stroke:#0F172A;stroke-width:1;" x1="650.6953" x2="650.6953" y1="521" y2="553"/><polygon fill="#0F172A" points="646.6953,543,650.6953,553,654.6953,543,650.6953,547" style="stroke:#0F172A;stroke-width:1;"/><?plantuml-src dLVRRXit47tVho3SbmIGx3ZtIWWAHtOQ0q5is4xo8i2WbhCIQuhSabovQf5_x-5bLwjBWxO8ZEmkXyEPCsSEH-v1wffRlcHkmOLvb7hEAguS5QvRcV7oOMvDeyN4A6FPJrM9Vw9d8QZYZV8VZFQV-PBOHr8hyhBaXsrkvP_4Jb_s5hcrvZ5xVrQTlddUtwcDf_TxCLJL6_5wryfOGJPRp5w-Ul7ivnsBS7nUV_7YvUchLxtrwBuqLfDbfwyBBxqYTbPwkP9-pOPC2jBuk3wvp0ztV7wUikgdqcxugs07e7jRyQeCA_rGSygCLPlmkcz2ygNHOWy1UavlgsSzWxx7K_6InDlDueS3Zftdrk_QK-U_ivln7Q_VYxYrGCA0GHhDZgvcZkoA6DU2lPTQ727zqMsmOfKraLsM1AkKUPpgz7A2qEP0p9sazw6bqkXIAXgs61wxrNnSZ6w82_37oU1Y7tpcQYe7p5iWH0BkFVUD6yHO12donAJss3KkPCMU7DqbGuQCw8zQoL9wTZMvxEhBQaiEZxySFML-GPezMPDxMen-9H_UMTbOY-Mu1vQciIMnbUHJ3OlzyCO5eP_O4ssUXbISKH4dd2sT3_ssvSSlKEFvOge_OVL0hesBBIgL9-kckZJBK8KbxEwb68IQUW9a4qjuYE7kXvaM3pX_3Dbg0_F6yPcYgLvoNowOT60cc0V7rpWMaKNFDYKJaIoZJx45v5G3TyDIFG235h82UM8HpbDXBFtUaCF67R1xr4gMaL1vKytz0a2GO-d3eKoa1uR1UoGDqcO7YuFG_n5gX7v-yUdYxkASWPYLj0034GLqqsjYLmZoV_bly47byl1oGIXdFc-yXL6fYEkcZdokfEOAyccn1v_1AzUK9UtX1w8jpIeHOBE7Ls1DsnE1EYdyBOQYQTTifaniaHHY6m3AtFaAu6u5q2kmywRkkUpLyfEig5p37viexfoiS4U4bL3Tc7908t8OBOiKlLq77Z97VZ_1o9p4e8R0NIX7HdF9fNRmCDNNDrTVBsylhpvVVlvrmBvSdv_TnQS8D9x6ETWO-Mu4Zfd6Ex0vvUWSWw3DoRlzM7nZTMZgHcVJgb6i4xJGALt5fxfNSdOskRlyUh4LnlS-Oa7xrh7qvrPMddt4eu84n7wOnEudfkGgfPu2v_EGV-fHkQoDzK4MAqbA81DRyP8ompuOYC9GqsDiOR0QQXWrISJ317XI-aFa-WtViz6CAcFJySl6nt92BMpuIxxpqOvjYzK-zBTDdOADZaBTVnp6MLshDVjIYyDgPZHMgz20hRiSXv2kLdnzhp6hR7F_GTOHDMs6fjwa4mIdfVVefi47QrRWXMKBKdNupvY7eCPH1D_vgjNRuoIrD_brCDMzjMzSOXootunzo6J-1jMwm2XasofFTShgdISqQwnj6I9wDxcvE0j2CKLVYfqp4o3jcJ193TytIShIcYJTHzvPxzCD0wY6m7z5AN_SLrGsdjouutlR5Q7Q0RN4vUvpUnTTMnFfqgbnkX1szAmsuDuwo8e7UuUnLOPPTp4Sf1p6kU_HxoPNmG4E13nW4OZu195Rmczu6QERKjqYsS88oAoSBp2nfOaa3o6ZuZyD9KLlj0cPPsURXk-cG2HPXFb4nZGxuWndQGQPt7mv7x17C66GJ2Cqmpf15hWd0XxAWMcMZWlSFDuQfU014itLvg0sSCQ5A1Hk71YO1wWsokan3Ja2Ets2MH8-94IBHQPQcfTCJR5xbt0zvxKxBhY5JlbrJPW3mOqHxZaCoF6k3oEVH8ylkUPpiaNP1UTOB-U300LA5U6MRa-peUBuxM0UuTujP7rSPF-ZRg0ed6hccrVFv_bNHO7nMumEp8QRy4TitWO-t0qyeNxIaN6quUf9yKD25ldw6VqRCXQTRCJMSACyDR7-BJLEUwbeBwjnUs6tTrRXEfsC-ZZQ4ZH45BijotBKC8JNgN4MmM9RZ2DZM68CUg7aLMMKk6-Hlj-7l9r1YuCZQD5U9aXI6qr595PWL7w_pKUm9U15lZpAzHZ08vCWIQ16Zr33o2UC2nrF4eGvpO3iqeH-EGxj7d_g_Gq0?></g></svg>