<?plantuml 1.2026.1?><svg xmlns="http://www.w3.org/2000/svg" xmlns:xlink="http://www.w3.org/1999/xlink" contentStyleType="text/css" data-diagram-type="STATE" height="583px" preserveAspectRatio="none" style="width:3613px;height:583px;background:#FCFCFD;" version="1.1" viewBox="0 0 3613 583" width="3613px" zoomAndPan="magnify"><title>State Machine - identity/IdentityTagDefault</title><defs/><g><rect fill="#FCFCFD" height="583" style="stroke:none;stroke-width:1;" width="3613" x="0" y="0"/><g class="title" data-source-line="10"><text fill="#000000" font-family="Helvetica" font-size="14" font-weight="bold" lengthAdjust="spacing" textLength="282.3652" x="1658.3804" y="20.7803">State Machine - identity/IdentityTagDefault</text></g><g><rect fill="#F8FAFC" height="62" rx="8" ry="8" style="stroke:#0F172A;stroke-width:0.5;" width="264.3643" x="243" y="403"/><line style="stroke:#0F172A;stroke-width:0.5;" x1="243" x2="507.3643" y1="427" y2="427"/><text fill="#0F172A" font-family="Helvetica" font-size="14" lengthAdjust="spacing" textLength="52.9102" x="348.7271" y="418.7803">Observe</text><text fill="#0F172A" font-family="Helvetica" font-size="14" lengthAdjust="spacing" textLength="244.3643" x="248" y="442.7803">read spec, tracked status, delete intent,</text><text fill="#0F172A" font-family="Helvetica" font-size="14" lengthAdjust="spacing" textLength="153.2822" x="248" y="456.7803">and current OCI lifecycle</text></g><rect fill="#F8FAFC" height="40" rx="8" ry="8" style="stroke:#0F172A;stroke-width:0.5;" width="104.9512" x="1304.36" y="246"/><text fill="#0F172A" font-family="Helvetica" font-size="14" lengthAdjust="spacing" textLength="94.9512" x="1309.36" y="269.7803">EvaluateReady</text><rect fill="#F8FAFC" height="40" rx="8" ry="8" style="stroke:#0F172A;stroke-width:0.5;" width="50.4688" x="2063.32" y="246"/><text fill="#0F172A" font-family="Helvetica" font-size="14" lengthAdjust="spacing" textLength="40.4688" x="2068.32" y="269.7803">Ready</text><rect fill="#F8FAFC" height="40" rx="8" ry="8" style="stroke:#0F172A;stroke-width:0.5;" width="69.917" x="1321.88" y="381"/><text fill="#0F172A" font-family="Helvetica" font-size="14" lengthAdjust="spacing" textLength="59.917" x="1326.88" y="404.7803">Retryable</text><rect fill="#F8FAFC" height="40" rx="8" ry="8" style="stroke:#0F172A;stroke-width:0.5;" width="50" x="1331.84" y="500"/><text fill="#0F172A" font-family="Helvetica" font-size="14" lengthAdjust="spacing" textLength="38.1309" x="1337.7746" y="523.7803">Failed</text><rect fill="#F8FAFC" height="40" rx="8" ry="8" style="stroke:#0F172A;stroke-width:0.5;" width="122.8477" x="785.44" y="357"/><text fill="#0F172A" font-family="Helvetica" font-size="14" lengthAdjust="spacing" textLength="112.8477" x="790.44" y="380.7803">ResolveByLookup</text><rect fill="#F8FAFC" height="40" rx="8" ry="8" style="stroke:#0F172A;stroke-width:0.5;" width="155.5098" x="1638.56" y="336"/><text fill="#0F172A" font-family="Helvetica" font-size="14" lengthAdjust="spacing" textLength="145.5098" x="1643.56" y="359.7803">RejectUnsupportedDrift</text><rect fill="#F8FAFC" height="40" rx="8" ry="8" style="stroke:#0F172A;stroke-width:0.5;" width="90.165" x="1671.23" y="175"/><text fill="#0F172A" font-family="Helvetica" font-size="14" lengthAdjust="spacing" textLength="80.165" x="1676.23" y="198.7803">ApplyUpdate</text><rect fill="#F8FAFC" height="40" rx="8" ry="8" style="stroke:#0F172A;stroke-width:0.5;" width="101.8477" x="2405.1" y="492"/><text fill="#0F172A" font-family="Helvetica" font-size="14" lengthAdjust="spacing" textLength="91.8477" x="2410.1" y="515.7803">DeletePending</text><rect fill="#F8FAFC" height="40" rx="8" ry="8" style="stroke:#0F172A;stroke-width:0.5;" width="58.2549" x="3524.41" y="433"/><text fill="#0F172A" font-family="Helvetica" font-size="14" lengthAdjust="spacing" textLength="48.2549" x="3529.41" y="456.7803">Deleted</text><rect fill="#F8FAFC" height="40" rx="8" ry="8" style="stroke:#0F172A;stroke-width:0.5;" width="152.4268" x="3027.62" y="433"/><text fill="#0F172A" font-family="Helvetica" font-size="14" lengthAdjust="spacing" textLength="142.4268" x="3032.62" y="456.7803">DeleteCleanupBlocked</text><ellipse cx="16" cy="434" fill="#222222" rx="10" ry="10" style="stroke:#222222;stroke-width:1;"/><g class="entity" data-qualified-name="GMN2" data-source-line="55" id="ent0003"><path d="M2279.78,49 L2279.78,253.16 L2114.1,264.86 L2279.78,261.16 L2279.78,449 A8,8 0 0 0 2287.78,457 L2624.2614,457 A8,8 0 0 0 2632.2614,449 L2632.2614,51 L2622.2614,41 L2287.78,41 A8,8 0 0 0 2279.78,49" fill="#FFF7D6" style="stroke:#B45309;stroke-width:0.5;"/><path d="M2622.2614,41 L2622.2614,47 A4,4 0 0 0 2626.2614,51 L2632.2614,51 L2622.2614,41" fill="#FFF7D6" style="stroke:#B45309;stroke-width:0.5;"/><text fill="#334155" font-family="Helvetica" font-size="14" lengthAdjust="spacing" textLength="101.165" x="2285.78" y="56.7803">shared diagram:</text><text fill="#334155" font-family="Helvetica" font-size="14" lengthAdjust="spacing" textLength="331.4814" x="2285.78" y="70.7803">shared/diagrams/shared-controller-state-machine.svg</text><text fill="#334155" font-family="Helvetica" font-size="14" lengthAdjust="spacing" textLength="304.2744" x="2285.78" y="84.7803">Start from the shared controller phase model and</text><text fill="#334155" font-family="Helvetica" font-size="14" lengthAdjust="spacing" textLength="261.4678" x="2285.78" y="98.7803">specialize imported provider states, delete</text><text fill="#334155" font-family="Helvetica" font-size="14" lengthAdjust="spacing" textLength="184.4336" x="2285.78" y="112.7803">targets, and failure exits here.</text><text fill="#334155" font-family="Helvetica" font-size="14" lengthAdjust="spacing" textLength="281.709" x="2285.78" y="126.7803">archetype batch: Generated service-manager</text><text fill="#334155" font-family="Helvetica" font-size="14" lengthAdjust="spacing" textLength="287.9229" x="2285.78" y="140.7803">controllers map provider states into the shared</text><text fill="#334155" font-family="Helvetica" font-size="14" lengthAdjust="spacing" textLength="261.4609" x="2285.78" y="154.7803">controller phases with explicit finalizer and</text><text fill="#334155" font-family="Helvetica" font-size="14" lengthAdjust="spacing" textLength="105.8477" x="2285.78" y="168.7803">requeue policies.</text><text fill="#334155" font-family="Helvetica" font-size="14" lengthAdjust="spacing" textLength="96.4824" x="2285.78" y="182.7803">service: identity</text><text fill="#334155" font-family="Helvetica" font-size="14" lengthAdjust="spacing" textLength="139.3164" x="2285.78" y="196.7803">slug: identitytagdefault</text><text fill="#334155" font-family="Helvetica" font-size="14" lengthAdjust="spacing" textLength="147.082" x="2285.78" y="210.7803">kind: IdentityTagDefault</text><text fill="#334155" font-family="Helvetica" font-size="14" lengthAdjust="spacing" textLength="241.2402" x="2285.78" y="224.7803">archetype: generated-service-manager</text><text fill="#334155" font-family="Helvetica" font-size="14" lengthAdjust="spacing" textLength="156.4063" x="2285.78" y="238.7803">status/finalizer: required /</text><text fill="#334155" font-family="Helvetica" font-size="14" lengthAdjust="spacing" textLength="174.3027" x="2285.78" y="252.7803">retain-until-confirmed-delete</text><text fill="#334155" font-family="Helvetica" font-size="14" lengthAdjust="spacing" textLength="272.3984" x="2285.78" y="266.7803">requeue: provisioning, updating, terminating</text><text fill="#334155" font-family="Helvetica" font-size="14" lengthAdjust="spacing" textLength="295.6816" x="2285.78" y="280.7803">provider states: create PROVISIONING; update</text><text fill="#334155" font-family="Helvetica" font-size="14" lengthAdjust="spacing" textLength="192.165" x="2285.78" y="294.7803">UPDATING; delete DELETING</text><text fill="#334155" font-family="Helvetica" font-size="14" lengthAdjust="spacing" textLength="183.6611" x="2285.78" y="308.7803">supported drift: display_name</text><text fill="#334155" font-family="Helvetica" font-size="14" lengthAdjust="spacing" textLength="230.3301" x="2285.78" y="322.7803">reject before mutate: force-new fields</text><text fill="#334155" font-family="Helvetica" font-size="14" lengthAdjust="spacing" textLength="100.3789" x="2285.78" y="336.7803">compartment_id</text><text fill="#334155" font-family="Helvetica" font-size="14" lengthAdjust="spacing" textLength="66.1445" x="2285.78" y="350.7803">list lookup:</text><text fill="#334155" font-family="Helvetica" font-size="14" lengthAdjust="spacing" textLength="251.3711" x="2285.78" y="364.7803">scaffold_identity_identitytagdefault filters</text><text fill="#334155" font-family="Helvetica" font-size="14" lengthAdjust="spacing" textLength="138.5098" x="2285.78" y="378.7803">compartment_id, state</text><text fill="#334155" font-family="Helvetica" font-size="14" lengthAdjust="spacing" textLength="89.4961" x="2285.78" y="392.7803">conflicts: none</text><text fill="#334155" font-family="Helvetica" font-size="14" lengthAdjust="spacing" textLength="104.3164" x="2285.78" y="406.7803">open gaps: none</text><text fill="#334155" font-family="Helvetica" font-size="14" lengthAdjust="spacing" textLength="224.9023" x="2285.78" y="420.7803">Scaffold metadata only; replace with</text><text fill="#334155" font-family="Helvetica" font-size="14" lengthAdjust="spacing" textLength="244.3232" x="2285.78" y="434.7803">controller-specific runtime states before</text><text fill="#334155" font-family="Helvetica" font-size="14" lengthAdjust="spacing" textLength="66.1445" x="2285.78" y="448.7803">promotion.</text></g><g class="entity" data-qualified-name="GMN5" data-source-line="86" id="ent0006"><path d="M2967.27,516 L2967.27,530.89 L2507.43,514.26 L2967.27,538.89 L2967.27,566 A8,8 0 0 0 2975.27,574 L3232.4136,574 A8,8 0 0 0 3240.4136,566 L3240.4136,518 L3230.4136,508 L2975.27,508 A8,8 0 0 0 2967.27,516" fill="#FFF7D6" style="stroke:#B45309;stroke-width:0.5;"/><path d="M3230.4136,508 L3230.4136,514 A4,4 0 0 0 3234.4136,518 L3240.4136,518 L3230.4136,508" fill="#FFF7D6" style="stroke:#B45309;stroke-width:0.5;"/><text fill="#334155" font-family="Helvetica" font-size="14" lengthAdjust="spacing" textLength="136.9717" x="2973.27" y="523.7803">delete policy: required</text><text fill="#334155" font-family="Helvetica" font-size="14" lengthAdjust="spacing" textLength="252.1436" x="2973.27" y="537.7803">delete observe: GetIdentityTagDefault or</text><text fill="#334155" font-family="Helvetica" font-size="14" lengthAdjust="spacing" textLength="135.4063" x="2973.27" y="551.7803">ListIdentityTagDefault</text><text fill="#334155" font-family="Helvetica" font-size="14" lengthAdjust="spacing" textLength="157.1855" x="2973.27" y="565.7803">delete targets: DELETED</text></g><!--link *start* to observe--><g class="link" data-entity-1="ent0002" data-entity-2="ent0002" data-link-type="dependency" data-source-line="32" id="lnk3"><path d="M26.19,434 C56.71,434 151.61,434 236.96,434" fill="none" id="*start*-to-observe" style="stroke:#0F172A;stroke-width:1;"/><polygon fill="#0F172A" points="242.96,434,233.96,430,237.96,434,233.96,438,242.96,434" style="stroke:#0F172A;stroke-width:1;"/><text fill="#000000" font-family="Helvetica" font-size="14" lengthAdjust="spacing" textLength="155.6406" x="57" y="429.7803">CreateIdentityTagDefault</text></g><!--link observe to resolve_by_lookup--><g class="link" data-entity-1="ent0002" data-entity-2="ent0007" data-link-type="dependency" data-source-line="33" id="lnk4"><path d="M507.64,418.05 C598.55,407.01 709.3337,393.5731 779.1837,385.0931" fill="none" id="observe-to-resolve_by_lookup" style="stroke:#0F172A;stroke-width:1;"/><polygon fill="#0F172A" points="785.14,384.37,775.7235,381.4838,780.1764,384.9726,776.6877,389.4255,785.14,384.37" style="stroke:#0F172A;stroke-width:1;"/><text fill="#000000" font-family="Helvetica" font-size="14" lengthAdjust="spacing" textLength="145.5029" x="538.36" y="392.8403">tracked identity missing</text></g><!--link resolve_by_lookup to evaluate_ready--><g class="link" data-entity-1="ent0007" data-entity-2="ent0003" data-link-type="dependency" data-source-line="34" id="lnk5"><path d="M908.57,365.58 C1022.1,344.19 1256.77,299.79 1274.36,295 C1284.07,292.36 1288.6038,291.0543 1298.3838,287.7043" fill="none" id="resolve_by_lookup-to-evaluate_ready" style="stroke:#0F172A;stroke-width:1;"/><polygon fill="#0F172A" points="1304.06,285.76,1294.2494,284.8923,1299.3298,287.3803,1296.8419,292.4606,1304.06,285.76" style="stroke:#0F172A;stroke-width:1;"/><text fill="#000000" font-family="Helvetica" font-size="14" lengthAdjust="spacing" textLength="154.0889" x="1064.86" y="276.7803">lookup or create reaches</text><text fill="#000000" font-family="Helvetica" font-size="14" lengthAdjust="spacing" textLength="50.5654" x="1116.6217" y="290.7803">ACTIVE</text></g><!--link resolve_by_lookup to retryable--><g class="link" data-entity-1="ent0007" data-entity-2="ent0005" data-link-type="dependency" data-source-line="35" id="lnk6"><path d="M908.63,379.87 C1016.21,384.95 1230.8067,395.0973 1315.5967,399.0973" fill="none" id="resolve_by_lookup-to-retryable" style="stroke:#0F172A;stroke-width:1;"/><polygon fill="#0F172A" points="1321.59,399.38,1312.7885,394.9603,1316.5956,399.1444,1312.4115,402.9514,1321.59,399.38" style="stroke:#0F172A;stroke-width:1;"/><text fill="#000000" font-family="Helvetica" font-size="14" lengthAdjust="spacing" textLength="184.3789" x="1049.86" y="366.5403">OCI state in PROVISIONING,</text><text fill="#000000" font-family="Helvetica" font-size="14" lengthAdjust="spacing" textLength="150.1309" x="1066.984" y="380.5403">UPDATING, DELETING</text></g><!--link resolve_by_lookup to failed--><g class="link" data-entity-1="ent0007" data-entity-2="ent0006" data-link-type="dependency" data-source-line="36" id="lnk7"><path d="M908.63,394.11 C1020.69,425.65 1249.5847,490.0834 1325.6747,511.5134" fill="none" id="resolve_by_lookup-to-failed" style="stroke:#0F172A;stroke-width:1;"/><polygon fill="#0F172A" points="1331.45,513.14,1323.8714,506.8499,1326.6372,511.7845,1321.7026,514.5504,1331.45,513.14" style="stroke:#0F172A;stroke-width:1;"/><text fill="#000000" font-family="Helvetica" font-size="14" lengthAdjust="spacing" textLength="263.7783" x="1010.36" y="419.0303">unresolved OCI error or non-success state</text></g><!--link observe to evaluate_ready--><g class="link" data-entity-1="ent0002" data-entity-2="ent0003" data-link-type="dependency" data-source-line="37" id="lnk8"><path d="M452.96,402.64 C479.45,392.43 509.47,381.55 537.36,373 C743.5,309.82 795.22,286.06 1009.36,261 C1113.33,248.83 1230.0497,255.0341 1297.9897,260.5541" fill="none" id="observe-to-evaluate_ready" style="stroke:#0F172A;stroke-width:1;"/><polygon fill="#0F172A" points="1303.97,261.04,1295.3235,256.3243,1298.9864,260.6351,1294.6756,264.298,1303.97,261.04" style="stroke:#0F172A;stroke-width:1;"/><text fill="#000000" font-family="Helvetica" font-size="14" lengthAdjust="spacing" textLength="128.3721" x="782.86" y="260.9503">OCI state in ACTIVE</text></g><!--link observe to retryable--><g class="link" data-entity-1="ent0002" data-entity-2="ent0005" data-link-type="dependency" data-source-line="38" id="lnk9"><path d="M507.47,438.33 C570.11,440.38 646.11,442.85 714.36,445 C963.16,452.84 1035.72,524.79 1274.36,454 C1285.77,450.62 1304.445,438.3638 1323.305,424.9138" fill="none" id="observe-to-retryable" style="stroke:#0F172A;stroke-width:1;"/><polygon fill="#0F172A" points="1328.19,421.43,1318.54,423.3989,1324.1191,424.3331,1323.185,429.9123,1328.19,421.43" style="stroke:#0F172A;stroke-width:1;"/><text fill="#000000" font-family="Helvetica" font-size="14" lengthAdjust="spacing" textLength="184.3789" x="754.86" y="426.7803">OCI state in PROVISIONING,</text><text fill="#000000" font-family="Helvetica" font-size="14" lengthAdjust="spacing" textLength="150.1309" x="771.984" y="440.7803">UPDATING, DELETING</text></g><!--link observe to failed--><g class="link" data-entity-1="ent0002" data-entity-2="ent0006" data-link-type="dependency" data-source-line="39" id="lnk10"><path d="M507.52,464.76 C569.83,478.03 645.56,492.26 714.36,500 C953.8,526.92 1240.4516,522.7695 1325.5616,520.7895" fill="none" id="observe-to-failed" style="stroke:#0F172A;stroke-width:1;"/><polygon fill="#0F172A" points="1331.56,520.65,1322.4694,516.8604,1326.5614,520.7663,1322.6555,524.8582,1331.56,520.65" style="stroke:#0F172A;stroke-width:1;"/><text fill="#000000" font-family="Helvetica" font-size="14" lengthAdjust="spacing" textLength="263.7783" x="715.36" y="495.7803">unresolved OCI error or non-success state</text></g><!--link evaluate_ready to reject_unsupported_drift--><g class="link" data-entity-1="ent0003" data-entity-2="ent0008" data-link-type="dependency" data-source-line="40" id="lnk11"><path d="M1381.06,286.48 C1396.49,298.89 1417.81,313.85 1439.32,322 C1503.53,346.35 1575.6042,353.9058 1632.3042,356.0258" fill="none" id="evaluate_ready-to-reject_unsupported_drift" style="stroke:#0F172A;stroke-width:1;"/><polygon fill="#0F172A" points="1638.3,356.25,1629.4557,351.9165,1633.3035,356.0632,1629.1568,359.9109,1638.3,356.25" style="stroke:#0F172A;stroke-width:1;"/><text fill="#000000" font-family="Helvetica" font-size="14" lengthAdjust="spacing" textLength="143.9512" x="1450.32" y="303.7803">force-new or conflicting</text><text fill="#000000" font-family="Helvetica" font-size="14" lengthAdjust="spacing" textLength="80.9375" x="1481.8268" y="317.7803">drift detected</text></g><!--link reject_unsupported_drift to ready--><g class="link" data-entity-1="ent0008" data-entity-2="ent0004" data-link-type="dependency" data-source-line="41" id="lnk12"><path d="M1794.32,355.06 C1860.2,351.77 1956.3,341 2033.32,308 C2045.36,302.84 2052.4802,298.2363 2061.9202,290.2463" fill="none" id="reject_unsupported_drift-to-ready" style="stroke:#0F172A;stroke-width:1;"/><polygon fill="#0F172A" points="2066.5,286.37,2057.0461,289.1313,2062.6835,289.6003,2062.2146,295.2376,2066.5,286.37" style="stroke:#0F172A;stroke-width:1;"/><text fill="#000000" font-family="Helvetica" font-size="14" lengthAdjust="spacing" textLength="203.8818" x="1829.32" y="303.7803">wait for spec or live state change</text></g><!--link evaluate_ready to apply_update--><g class="link" data-entity-1="ent0003" data-entity-2="ent0009" data-link-type="dependency" data-source-line="42" id="lnk13"><path d="M1409.72,248.96 C1419.49,246.07 1429.67,243.27 1439.32,241 C1520.17,221.95 1610.2022,208.6097 1665.0322,201.3297" fill="none" id="evaluate_ready-to-apply_update" style="stroke:#0F172A;stroke-width:1;"/><polygon fill="#0F172A" points="1670.98,200.54,1661.5318,197.7594,1666.0235,201.1981,1662.5848,205.6898,1670.98,200.54" style="stroke:#0F172A;stroke-width:1;"/><text fill="#000000" font-family="Helvetica" font-size="14" lengthAdjust="spacing" textLength="163.4199" x="1440.32" y="192.0903">supported mutable drift for</text><text fill="#000000" font-family="Helvetica" font-size="14" lengthAdjust="spacing" textLength="86.3857" x="1478.8371" y="206.0903">display_name</text></g><!--link apply_update to ready--><g class="link" data-entity-1="ent0009" data-entity-2="ent0004" data-link-type="dependency" data-source-line="43" id="lnk14"><path d="M1761.88,197.45 C1823.86,201.76 1939.1,213.07 2033.32,241 C2043.36,243.98 2048.5025,245.9001 2057.6125,250.2801" fill="none" id="apply_update-to-ready" style="stroke:#0F172A;stroke-width:1;"/><polygon fill="#0F172A" points="2063.02,252.88,2056.642,245.3752,2058.5138,250.7135,2053.1756,252.5852,2063.02,252.88" style="stroke:#0F172A;stroke-width:1;"/><text fill="#000000" font-family="Helvetica" font-size="14" lengthAdjust="spacing" textLength="141.6543" x="1860.32" y="199.4503">update path completes</text></g><!--link evaluate_ready to ready--><g class="link" data-entity-1="ent0003" data-entity-2="ent0004" data-link-type="dependency" data-source-line="44" id="lnk15"><path d="M1409.73,266 C1554.46,266 1952.77,266 2056.86,266" fill="none" id="evaluate_ready-to-ready" style="stroke:#0F172A;stroke-width:1;"/><polygon fill="#0F172A" points="2062.86,266,2053.86,262,2057.86,266,2053.86,270,2062.86,266" style="stroke:#0F172A;stroke-width:1;"/><text fill="#000000" font-family="Helvetica" font-size="14" lengthAdjust="spacing" textLength="162.6406" x="1635.32" y="261.7803">no supported drift remains</text></g><!--link ready to ready--><g class="link" data-entity-1="ent0004" data-entity-2="ent0004" data-link-type="dependency" data-source-line="45" id="lnk16"><path d="M2071.35,245.69 C2064,228.73 2069.74,211 2088.55,211 C2107.36,211 2115.4858,223.2247 2108.1358,240.1847" fill="none" id="ready-to-ready" style="stroke:#0F172A;stroke-width:1;"/><polygon fill="#0F172A" points="2105.75,245.69,2112.9989,239.0227,2107.7382,241.1023,2105.6586,235.8416,2105.75,245.69" style="stroke:#0F172A;stroke-width:1;"/><text fill="#000000" font-family="Helvetica" font-size="14" lengthAdjust="spacing" textLength="162.6406" x="2007.55" y="201.7803">no supported drift remains</text></g><!--link retryable to retryable--><g class="link" data-entity-1="ent0005" data-entity-2="ent0005" data-link-type="dependency" data-source-line="46" id="lnk17"><path d="M1330.63,380.69 C1319.42,363.73 1328.16,346 1356.84,346 C1385.52,346 1397.5564,358.7232 1386.3564,375.6832" fill="none" id="retryable-to-retryable" style="stroke:#0F172A;stroke-width:1;"/><polygon fill="#0F172A" points="1383.05,380.69,1391.3474,375.3841,1385.8053,376.5177,1384.6717,370.9756,1383.05,380.69" style="stroke:#0F172A;stroke-width:1;"/><text fill="#000000" font-family="Helvetica" font-size="14" lengthAdjust="spacing" textLength="136.9307" x="1288.84" y="336.7803">OCI remains retryable</text></g><!--link failed to failed--><g class="link" data-entity-1="ent0006" data-entity-2="ent0006" data-link-type="dependency" data-source-line="47" id="lnk18"><path d="M1331.41,500.83 C1319.04,483.53 1327.52,465 1356.84,465 C1386.16,465 1398.1298,478.6493 1385.7598,495.9493" fill="none" id="failed-to-failed" style="stroke:#0F172A;stroke-width:1;"/><polygon fill="#0F172A" points="1382.27,500.83,1390.7585,495.8355,1385.1782,496.7628,1384.251,491.1824,1382.27,500.83" style="stroke:#0F172A;stroke-width:1;"/><text fill="#000000" font-family="Helvetica" font-size="14" lengthAdjust="spacing" textLength="132.2549" x="1290.84" y="455.7803">OCI remains terminal</text></g><!--link ready to delete_pending--><g class="link" data-entity-1="ent0004" data-entity-2="ent0010" data-link-type="dependency" data-source-line="48" id="lnk19"><path d="M2114.1,281.72 C2148.51,304.84 2211.19,351.04 2249.78,404 C2269.96,431.68 2253.35,453.21 2279.78,475 C2314.69,503.78 2360.535,511.5554 2398.775,513.1154" fill="none" id="ready-to-delete_pending" style="stroke:#0F172A;stroke-width:1;"/><polygon fill="#0F172A" points="2404.77,513.36,2395.9405,508.9965,2399.7742,513.1562,2395.6144,516.9898,2404.77,513.36" style="stroke:#0F172A;stroke-width:1;"/><text fill="#000000" font-family="Helvetica" font-size="14" lengthAdjust="spacing" textLength="104.3027" x="2144.78" y="299.3403">delete requested</text></g><!--link retryable to delete_pending--><g class="link" data-entity-1="ent0005" data-entity-2="ent0010" data-link-type="dependency" data-source-line="49" id="lnk20"><path d="M1391.89,404.08 C1510.37,414.87 1915.63,452.17 2249.78,488 C2302.75,493.68 2357.3732,500.1316 2398.9132,505.1416" fill="none" id="retryable-to-delete_pending" style="stroke:#0F172A;stroke-width:1;"/><polygon fill="#0F172A" points="2404.87,505.86,2396.4137,500.8111,2399.906,505.2613,2395.4558,508.7536,2404.87,505.86" style="stroke:#0F172A;stroke-width:1;"/><text fill="#000000" font-family="Helvetica" font-size="14" lengthAdjust="spacing" textLength="104.3027" x="1878.82" y="441.7603">delete requested</text></g><!--link failed to delete_pending--><g class="link" data-entity-1="ent0006" data-entity-2="ent0010" data-link-type="dependency" data-source-line="50" id="lnk21"><path d="M1382.29,519.82 C1521.18,518.81 2205.3002,513.8238 2398.6202,512.4138" fill="none" id="failed-to-delete_pending" style="stroke:#0F172A;stroke-width:1;"/><polygon fill="#0F172A" points="2404.62,512.37,2395.5911,508.4357,2399.6201,512.4065,2395.6494,516.4355,2404.62,512.37" style="stroke:#0F172A;stroke-width:1;"/><text fill="#000000" font-family="Helvetica" font-size="14" lengthAdjust="spacing" textLength="104.3027" x="1878.82" y="510.8603">delete requested</text></g><!--link delete_pending to delete_cleanup_blocked--><g class="link" data-entity-1="ent0010" data-entity-2="ent0012" data-link-type="dependency" data-source-line="51" id="lnk22"><path d="M2507.43,507.39 C2620.31,497.08 2887.9549,472.6362 3021.3049,460.4462" fill="none" id="delete_pending-to-delete_cleanup_blocked" style="stroke:#0F172A;stroke-width:1;"/><polygon fill="#0F172A" points="3027.28,459.9,3017.9532,456.7359,3022.3008,460.3552,3018.6815,464.7027,3027.28,459.9" style="stroke:#0F172A;stroke-width:1;"/><text fill="#000000" font-family="Helvetica" font-size="14" lengthAdjust="spacing" textLength="273.1436" x="2663.27" y="464.6003">cleanup or finalizer release remains blocked</text></g><!--link delete_cleanup_blocked to deleted--><g class="link" data-entity-1="ent0012" data-entity-2="ent0011" data-link-type="dependency" data-source-line="52" id="lnk23"><path d="M3180.53,453 C3281.64,453 3449.93,453 3518.07,453" fill="none" id="delete_cleanup_blocked-to-deleted" style="stroke:#0F172A;stroke-width:1;"/><polygon fill="#0F172A" points="3524.07,453,3515.07,449,3519.07,453,3515.07,457,3524.07,453" style="stroke:#0F172A;stroke-width:1;"/><text fill="#000000" font-family="Helvetica" font-size="14" lengthAdjust="spacing" textLength="222.5645" x="3271.41" y="448.7803">retry delete completion until allowed</text></g><!--link deleted to deleted--><g class="link" data-entity-1="ent0011" data-entity-2="ent0011" data-link-type="dependency" data-source-line="53" id="lnk24"><path d="M3526.35,432.69 C3514.73,415.73 3523.79,398 3553.54,398 C3583.28,398 3595.7412,410.7803 3584.1212,427.7403" fill="none" id="deleted-to-deleted" style="stroke:#0F172A;stroke-width:1;"/><polygon fill="#0F172A" points="3580.73,432.69,3589.1167,427.5263,3583.556,428.5653,3582.5171,423.0046,3580.73,432.69" style="stroke:#0F172A;stroke-width:1;"/><text fill="#000000" font-family="Helvetica" font-size="14" lengthAdjust="spacing" textLength="92.5859" x="3507.54" y="388.7803">terminal stutter</text></g><?plantuml-src dLPPRzms47xdhnYaRuNNZXldw0OeaDXEQi2r3HzvQOe5bnnfsL2aIb9sjaN_UuU7j5fvZQ21NiIvECStC_HVb6cvumtu5PVsGPaQAguzCZzmbbnygPtjZ3ossZhueHBqoP64n8ftEdom9bpm1k5NrFSObE2xPMxKtmY7HoCcTyu-5ElFgyFNFuqrZGtu_f4FLVLQlffAMIVH5OdbqSiNpt-UICJh2__5YwF3boz7_6HUM6VGmU4h5bJG23U11uJVk5WfWp039T4GPtrmLdvkUNsIGnkPyadh7mOxalUcufM8dB6p9MY0QkFWG2DhhYSUoYEKRuY8WyKYzo_JM0K85fogLm6aSYY2ieQjo6d0fWrhge8NJhM9d9ryThdqwExn6N0FDl_thDDxhZlwkqOkrqa02sNX8gcNs_0dvE3MVAcniCgfPt_WIgDCl2hzid8zp9CTy2sAFGYEKeWovRJpUnI2Hb9N9b01zZuRRYI8pZawmUNn6MXLeLYBpJtNw2tXyVtwtDelNLkSIRJ5ShtGYReH_fEoTcTyrxRM1PGdJbMXw4JMejlm5Z8oUzLtRQlNTwsaGvBdyRpe4g6NEKdENr7ngDEIL0vdqMRIjfmSISXjrh56RhhslROnEMDB8dCMoynYl__u1yncly0ckSUKtO0x0DoBHF576IB5lXHz4q2Zl8zUFnQE9hR1Glg5Hw0LoOLOPh52_zcyExuz-tJwX9q1EMGYLZWdGXcukhxyT7PpTdbnTl6Ha71tTVBkDlx2oUdvQVnxmc266rdhJ16GoJ3I67BHFMFDp7T2eFVvjgtKF8fhowaIodOklpk0iPdlS7lYQdPcDup9RcMTm9d1XrGYQogjQ8AO-hF94fBm9I8KdxIHByXPUU0gH9EfZwD5hIYG7BjOSLFlT6_SDMHak02QBgGKvel8BdcbVAlvUc5ewR0jnR4VXTJoiAAWcZPsYT-TcQnWxEZQV9t3XYlZsVyKxik-2mH5QZGNItstIZsM3EWQPRWUUR4zFKY-J4U7VtNeSwd6JdnRVkJ4juKd4YEboHGYvKA9GAXY5FG8S6IAg1w74FkXzOILpGKoBGaAhNUgL9OM6xL7K1gurlPXC3NLxND9UEm27LXy7PJDQQj-ZwsuYrLLlAQjFY_dWtBs1_ayequ9pcgDRfRGFMloSs7VtzVi9Yvlg9nj8AmGYicD2hIhc836acz0kup5Rb4fFQ2QWglMsNiQkYvtpx046TckCT0vBi5OkSxHfl-gWeSLEjndtD5y3UiMwI4In6eE7v6UDppQZ7D5YUYiuJKbOEEIXuQtqplZmhMZ4DWq10yFYZeClxOqDMBd3qMEKINCTDI5DdBHxxDo_tpO9iphhjuS0w_Bcv7HkqhEOSV26iARGzq7Dfi6bXyE1uC_ymHW5Sjm4Dk3W3TBa8c5h9Hho4R9R_5wdfFX2Lm4yxqyKT9VWL4yi4d2vlsI6m_vjsKQiNxKl-tnEqpyoJIXhXjFkJnvOOaq037Dn83ZmLqfrDAps0s4kuOojb2IQUL3sRw4Oi6hocgvw3EzU9noigCfjgcXlR9M-jtWu_mpj1rf0a3Ds_vyKww0Xj9ByNAmHg_VKk8f4e49AMpSDX7pbHBWOY4Qx36NmuoPRMnixNr6aoOzv2VzEdb5bPmciAqtzUxfPQd6RWYFKKKJYfrJmdRWhUYNjfldefsU35xz1m00?></g></svg>