<?plantuml 1.2026.1?><svg xmlns="http://www.w3.org/2000/svg" xmlns:xlink="http://www.w3.org/1999/xlink" contentStyleType="text/css" data-diagram-type="SEQUENCE" height="2090px" preserveAspectRatio="none" style="width:1243px;height:2090px;background:#FCFCFD;" version="1.1" viewBox="0 0 1243 2090" width="1243px" zoomAndPan="magnify"><title>Sequence - redis/RedisRedisClusterCreateIdentityToken</title><defs/><g><rect fill="#FCFCFD" height="2090" style="stroke:none;stroke-width:1;" width="1243" x="0" y="0"/><text fill="#000000" font-family="Helvetica" font-size="14" font-weight="bold" lengthAdjust="spacing" textLength="374.999" x="440.4792" y="25.7803">Sequence - redis/RedisRedisClusterCreateIdentityToken</text><rect fill="none" height="290" rx="8" ry="8" style="stroke:#CBD5E1;stroke-width:1.5;" width="738.3779" x="482.6045" y="356"/><rect fill="none" height="146" rx="8" ry="8" style="stroke:#CBD5E1;stroke-width:1.5;" width="475.9575" x="735.0249" y="465"/><rect fill="none" height="44" rx="8" ry="8" style="stroke:#CBD5E1;stroke-width:1.5;" width="455.9575" x="745.0249" y="516"/><rect fill="none" height="868" rx="8" ry="8" style="stroke:#CBD5E1;stroke-width:1.5;" width="774.353" x="462.6045" y="660"/><rect fill="none" height="302" rx="8" ry="8" style="stroke:#CBD5E1;stroke-width:1.5;" width="738.3779" x="472.6045" y="683"/><rect fill="none" height="72" rx="8" ry="8" style="stroke:#CBD5E1;stroke-width:1.5;" width="455.9575" x="745.0249" y="804"/><rect fill="none" height="88" rx="8" ry="8" style="stroke:#CBD5E1;stroke-width:1.5;" width="438.813" x="482.6045" y="890"/><rect fill="none" height="392" rx="8" ry="8" style="stroke:#CBD5E1;stroke-width:1.5;" width="754.353" x="472.6045" y="1087"/><rect fill="none" height="44" rx="8" ry="8" style="stroke:#CBD5E1;stroke-width:1.5;" width="438.813" x="482.6045" y="1186"/><rect fill="none" height="130" rx="8" ry="8" style="stroke:#CBD5E1;stroke-width:1.5;" width="475.9575" x="735.0249" y="1244"/><rect fill="none" height="44" rx="8" ry="8" style="stroke:#CBD5E1;stroke-width:1.5;" width="455.9575" x="745.0249" y="1323"/><g class="participant-lifeline" data-entity-uid="part1" data-qualified-name="Kubernetes" id="part1-lifeline"><g><title>Kubernetes</title><rect fill="#000000" fill-opacity="0.00000" height="1969" width="8" x="39.8032" y="114"/><line style="stroke:#94A3B8;stroke-width:0.5;stroke-dasharray:5,5;" x1="43" x2="43" y1="114" y2="2083"/></g></g><g class="participant-lifeline" data-entity-uid="part2" data-qualified-name="Controller" id="part2-lifeline"><g><title>Controller</title><rect fill="#000000" fill-opacity="0.00000" height="1969" width="8" x="305.8022" y="114"/><line style="stroke:#94A3B8;stroke-width:0.5;stroke-dasharray:5,5;" x1="309.4575" x2="309.4575" y1="114" y2="2083"/></g></g><g class="participant-lifeline" data-entity-uid="part3" data-qualified-name="BaseReconciler" id="part3-lifeline"><g><title>BaseReconciler</title><rect fill="#000000" fill-opacity="0.00000" height="1969" width="8" x="544.6284" y="114"/><line style="stroke:#94A3B8;stroke-width:0.5;stroke-dasharray:5,5;" x1="548.6045" x2="548.6045" y1="114" y2="2083"/></g></g><g class="participant-lifeline" data-entity-uid="part4" data-qualified-name="ServiceManager" id="part4-lifeline"><g><title>OSOKServiceManager</title><rect fill="#000000" fill-opacity="0.00000" height="1969" width="8" x="829.2212" y="114"/><line style="stroke:#94A3B8;stroke-width:0.5;stroke-dasharray:5,5;" x1="833.0249" x2="833.0249" y1="114" y2="2083"/></g></g><g class="participant-lifeline" data-entity-uid="part5" data-qualified-name="OCI" id="part5-lifeline"><g><title>OCI</title><rect fill="#000000" fill-opacity="0.00000" height="1969" width="8" x="1167.5376" y="114"/><line style="stroke:#94A3B8;stroke-width:0.5;stroke-dasharray:5,5;" x1="1171.0928" x2="1171.0928" y1="114" y2="2083"/></g></g><g class="participant participant-head" data-entity-uid="part1" data-qualified-name="Kubernetes" id="part1-head"><text fill="#000000" font-family="Helvetica" font-size="14" lengthAdjust="spacing" textLength="71.6064" x="5" y="110.7803">Kubernetes</text><ellipse cx="43.8032" cy="48.5" fill="#E2E8F0" rx="8" ry="8" style="stroke:#0F172A;stroke-width:0.5;"/><path d="M43.8032,56.5 L43.8032,83.5 M30.8032,64.5 L56.8032,64.5 M43.8032,83.5 L30.8032,98.5 M43.8032,83.5 L56.8032,98.5" fill="none" style="stroke:#0F172A;stroke-width:0.5;"/></g><g class="participant participant-head" data-entity-uid="part2" data-qualified-name="Controller" id="part2-head"><rect fill="#E2E8F0" height="28" rx="8" ry="8" style="stroke:#0F172A;stroke-width:0.5;" width="74.6895" x="272.4575" y="85"/><text fill="#0F172A" font-family="Helvetica" font-size="14" lengthAdjust="spacing" textLength="60.6895" x="279.4575" y="102.7803">Controller</text></g><g class="participant participant-head" data-entity-uid="part3" data-qualified-name="BaseReconciler" id="part3-head"><rect fill="#E2E8F0" height="28" rx="8" ry="8" style="stroke:#0F172A;stroke-width:0.5;" width="112.0479" x="492.6045" y="85"/><text fill="#0F172A" font-family="Helvetica" font-size="14" lengthAdjust="spacing" textLength="98.0479" x="499.6045" y="102.7803">BaseReconciler</text></g><g class="participant participant-head" data-entity-uid="part4" data-qualified-name="ServiceManager" id="part4-head"><rect fill="#E2E8F0" height="28" rx="8" ry="8" style="stroke:#0F172A;stroke-width:0.5;" width="156.3926" x="755.0249" y="85"/><text fill="#0F172A" font-family="Helvetica" font-size="14" lengthAdjust="spacing" textLength="142.3926" x="762.0249" y="102.7803">OSOKServiceManager</text></g><g class="participant participant-head" data-entity-uid="part5" data-qualified-name="OCI" id="part5-head"><rect fill="#E2E8F0" height="28" rx="8" ry="8" style="stroke:#0F172A;stroke-width:0.5;" width="38.8896" x="1152.0928" y="85"/><text fill="#0F172A" font-family="Helvetica" font-size="14" lengthAdjust="spacing" textLength="24.8896" x="1159.0928" y="102.7803">OCI</text></g><path d="M484,137 L484,187 A8,8 0 0 0 492,195 L889,195 A8,8 0 0 0 897,187 L897,139 L887,129 L492,129 A8,8 0 0 0 484,137" fill="#FFF7D6" style="stroke:#B45309;stroke-width:0.5;"/><path d="M887,129 L887,135 A4,4 0 0 0 891,139 L897,139 L887,129" fill="#FFF7D6" style="stroke:#B45309;stroke-width:0.5;"/><text fill="#334155" font-family="Helvetica" font-size="14" lengthAdjust="spacing" textLength="111.2891" x="532.7107" y="144.7803">shared resolution:</text><text fill="#334155" font-family="Helvetica" font-size="14" lengthAdjust="spacing" textLength="307.3916" x="532.7107" y="158.7803">shared/diagrams/shared-resolution-sequence.svg</text><text fill="#334155" font-family="Helvetica" font-size="14" lengthAdjust="spacing" textLength="88.7305" x="532.7107" y="172.7803">shared delete:</text><text fill="#334155" font-family="Helvetica" font-size="14" lengthAdjust="spacing" textLength="284.833" x="532.7107" y="186.7803">shared/diagrams/shared-delete-sequence.svg</text><g class="message" data-entity-1="part1" data-entity-2="part2" id="msg1"><polygon fill="#0F172A" points="297.8022,244,307.8022,248,297.8022,252,301.8022,248" style="stroke:#0F172A;stroke-width:1;"/><line style="stroke:#0F172A;stroke-width:1;" x1="43.8032" x2="303.8022" y1="248" y2="248"/><text fill="#000000" font-family="Helvetica" font-size="14" lengthAdjust="spacing" textLength="54.5029" x="50.8032" y="214.7803">enqueue</text><text fill="#000000" font-family="Helvetica" font-size="14" lengthAdjust="spacing" textLength="241.999" x="50.8032" y="228.7803">RedisRedisClusterCreateIdentityToken</text><text fill="#000000" font-family="Helvetica" font-size="14" lengthAdjust="spacing" textLength="56.0273" x="50.8032" y="242.7803">reconcile</text></g><g class="message" data-entity-1="part2" data-entity-2="part3" id="msg2"><polygon fill="#0F172A" points="536.6284,272,546.6284,276,536.6284,280,540.6284,276" style="stroke:#0F172A;stroke-width:1;"/><line style="stroke:#0F172A;stroke-width:1;" x1="309.8022" x2="542.6284" y1="276" y2="276"/><text fill="#000000" font-family="Helvetica" font-size="14" lengthAdjust="spacing" textLength="117.4961" x="316.8022" y="270.7803">Reconcile(request)</text></g><g class="message" data-entity-1="part3" data-entity-2="part4" id="msg3"><polygon fill="#0F172A" points="821.2212,314,831.2212,318,821.2212,322,825.2212,318" style="stroke:#0F172A;stroke-width:1;"/><line style="stroke:#0F172A;stroke-width:1;" x1="548.6284" x2="827.2212" y1="318" y2="318"/><text fill="#000000" font-family="Helvetica" font-size="14" lengthAdjust="spacing" textLength="105.834" x="555.6284" y="298.7803">reconcile desired</text><text fill="#000000" font-family="Helvetica" font-size="14" lengthAdjust="spacing" textLength="241.999" x="555.6284" y="312.7803">RedisRedisClusterCreateIdentityToken</text></g><path d="M490.6045,356 L543.9424,356 L543.9424,362 L533.9424,372 L482.6045,372 L482.6045,364 A8,8 0 0 1 490.6045,356" fill="#F8FAFC" style="stroke:#CBD5E1;stroke-width:1.5;"/><rect fill="none" height="290" rx="8" ry="8" style="stroke:#CBD5E1;stroke-width:1.5;" width="738.3779" x="482.6045" y="356"/><text fill="#000000" font-family="Helvetica" font-size="14" font-weight="bold" lengthAdjust="spacing" textLength="16.3379" x="497.6045" y="367.7803">alt</text><text fill="#000000" font-family="Helvetica" font-size="14" font-weight="bold" lengthAdjust="spacing" textLength="308.1094" x="558.9424" y="368.7803">[tracked or explicit OCI identity already exists]</text><g class="message" data-entity-1="part4" data-entity-2="part5" id="msg4"><polygon fill="#0F172A" points="1159.5376,388,1169.5376,392,1159.5376,396,1163.5376,392" style="stroke:#0F172A;stroke-width:1;"/><line style="stroke:#0F172A;stroke-width:1;" x1="833.2212" x2="1165.5376" y1="392" y2="392"/><text fill="#000000" font-family="Helvetica" font-size="14" lengthAdjust="spacing" textLength="264.5645" x="840.2212" y="386.7803">GetRedisRedisClusterCreateIdentityToken</text></g><line style="stroke:#CBD5E1;stroke-width:1;stroke-dasharray:2,2;" x1="482.6045" x2="1220.9824" y1="401" y2="401"/><text fill="#000000" font-family="Helvetica" font-size="14" font-weight="bold" lengthAdjust="spacing" textLength="185.1582" x="487.6045" y="411.7803">[tracked identity is missing]</text><g class="message" data-entity-1="part4" data-entity-2="part5" id="msg5"><polygon fill="#0F172A" points="1159.5376,446,1169.5376,450,1159.5376,454,1163.5376,450" style="stroke:#0F172A;stroke-width:1;"/><line style="stroke:#0F172A;stroke-width:1;" x1="833.2212" x2="1165.5376" y1="450" y2="450"/><text fill="#000000" font-family="Helvetica" font-size="14" lengthAdjust="spacing" textLength="305.7852" x="840.2212" y="430.7803">ListRedisRedisClusterCreateIdentityToken(filters:</text><text fill="#000000" font-family="Helvetica" font-size="14" lengthAdjust="spacing" textLength="143.1719" x="840.2212" y="444.7803">compartment_id, state)</text></g><path d="M743.0249,465 L796.3628,465 L796.3628,471 L786.3628,481 L735.0249,481 L735.0249,473 A8,8 0 0 1 743.0249,465" fill="#F8FAFC" style="stroke:#CBD5E1;stroke-width:1.5;"/><rect fill="none" height="146" rx="8" ry="8" style="stroke:#CBD5E1;stroke-width:1.5;" width="475.9575" x="735.0249" y="465"/><text fill="#000000" font-family="Helvetica" font-size="14" font-weight="bold" lengthAdjust="spacing" textLength="16.3379" x="750.0249" y="476.7803">alt</text><text fill="#000000" font-family="Helvetica" font-size="14" font-weight="bold" lengthAdjust="spacing" textLength="242.7031" x="811.3628" y="477.7803">[reusable OCI resource is not found]</text><g class="message" data-entity-1="part4" data-entity-2="part5" id="msg6"><polygon fill="#0F172A" points="1159.5376,497,1169.5376,501,1159.5376,505,1163.5376,501" style="stroke:#0F172A;stroke-width:1;"/><line style="stroke:#0F172A;stroke-width:1;" x1="833.2212" x2="1165.5376" y1="501" y2="501"/><text fill="#000000" font-family="Helvetica" font-size="14" lengthAdjust="spacing" textLength="284.0195" x="840.2212" y="495.7803">CreateRedisRedisClusterCreateIdentityToken</text></g><path d="M753.0249,516 L819.5698,516 L819.5698,522 L809.5698,532 L745.0249,532 L745.0249,524 A8,8 0 0 1 753.0249,516" fill="#F8FAFC" style="stroke:#CBD5E1;stroke-width:1.5;"/><rect fill="none" height="44" rx="8" ry="8" style="stroke:#CBD5E1;stroke-width:1.5;" width="455.9575" x="745.0249" y="516"/><text fill="#000000" font-family="Helvetica" font-size="14" font-weight="bold" lengthAdjust="spacing" textLength="29.5449" x="760.0249" y="527.7803">loop</text><text fill="#000000" font-family="Helvetica" font-size="14" font-weight="bold" lengthAdjust="spacing" textLength="215.4756" x="834.5698" y="528.7803">[create pending PROVISIONING]</text><g class="message" data-entity-1="part4" data-entity-2="part5" id="msg7"><polygon fill="#0F172A" points="1159.5376,548,1169.5376,552,1159.5376,556,1163.5376,552" style="stroke:#0F172A;stroke-width:1;"/><line style="stroke:#0F172A;stroke-width:1;" x1="833.2212" x2="1165.5376" y1="552" y2="552"/><text fill="#000000" font-family="Helvetica" font-size="14" lengthAdjust="spacing" textLength="264.5645" x="840.2212" y="546.7803">GetRedisRedisClusterCreateIdentityToken</text></g><line style="stroke:#CBD5E1;stroke-width:1;stroke-dasharray:2,2;" x1="735.0249" x2="1210.9824" y1="568" y2="568"/><text fill="#000000" font-family="Helvetica" font-size="14" font-weight="bold" lengthAdjust="spacing" textLength="255.2334" x="740.0249" y="578.7803">[reusable OCI resource already exists]</text><g class="message" data-entity-1="part4" data-entity-2="part5" id="msg8"><polygon fill="#0F172A" points="1159.5376,599,1169.5376,603,1159.5376,607,1163.5376,603" style="stroke:#0F172A;stroke-width:1;"/><line style="stroke:#0F172A;stroke-width:1;" x1="833.2212" x2="1165.5376" y1="603" y2="603"/><text fill="#000000" font-family="Helvetica" font-size="14" lengthAdjust="spacing" textLength="264.5645" x="840.2212" y="597.7803">GetRedisRedisClusterCreateIdentityToken</text></g><g class="message" data-entity-1="part4" data-entity-2="part3" id="msg9"><polygon fill="#0F172A" points="559.6284,634,549.6284,638,559.6284,642,555.6284,638" style="stroke:#0F172A;stroke-width:1;"/><line style="stroke:#0F172A;stroke-width:1;stroke-dasharray:2,2;" x1="553.6284" x2="832.2212" y1="638" y2="638"/><text fill="#000000" font-family="Helvetica" font-size="14" lengthAdjust="spacing" textLength="231.0957" x="565.6284" y="632.7803">persist resolved OCI identity in status</text></g><path d="M470.6045,660 L523.9424,660 L523.9424,666 L513.9424,676 L462.6045,676 L462.6045,668 A8,8 0 0 1 470.6045,660" fill="#F8FAFC" style="stroke:#CBD5E1;stroke-width:1.5;"/><rect fill="none" height="868" rx="8" ry="8" style="stroke:#CBD5E1;stroke-width:1.5;" width="774.353" x="462.6045" y="660"/><text fill="#000000" font-family="Helvetica" font-size="14" font-weight="bold" lengthAdjust="spacing" textLength="16.3379" x="477.6045" y="671.7803">alt</text><text fill="#000000" font-family="Helvetica" font-size="14" font-weight="bold" lengthAdjust="spacing" textLength="120.5859" x="538.9424" y="672.7803">[delete requested]</text><path d="M480.6045,683 L559.625,683 L559.625,689 L549.625,699 L472.6045,699 L472.6045,691 A8,8 0 0 1 480.6045,683" fill="#F8FAFC" style="stroke:#CBD5E1;stroke-width:1.5;"/><rect fill="none" height="302" rx="8" ry="8" style="stroke:#CBD5E1;stroke-width:1.5;" width="738.3779" x="472.6045" y="683"/><text fill="#000000" font-family="Helvetica" font-size="14" font-weight="bold" lengthAdjust="spacing" textLength="42.0205" x="487.6045" y="694.7803">Delete</text><g class="message" data-entity-1="part4" data-entity-2="part5" id="msg10"><polygon fill="#0F172A" points="1159.5376,715,1169.5376,719,1159.5376,723,1163.5376,719" style="stroke:#0F172A;stroke-width:1;"/><line style="stroke:#0F172A;stroke-width:1;" x1="833.2212" x2="1165.5376" y1="719" y2="719"/><text fill="#000000" font-family="Helvetica" font-size="14" lengthAdjust="spacing" textLength="282.4678" x="840.2212" y="713.7803">DeleteRedisRedisClusterCreateIdentityToken</text></g><g class="message" data-entity-1="part4" data-entity-2="part5" id="msg11"><polygon fill="#0F172A" points="1159.5376,785,1169.5376,789,1159.5376,793,1163.5376,789" style="stroke:#0F172A;stroke-width:1;"/><line style="stroke:#0F172A;stroke-width:1;" x1="833.2212" x2="1165.5376" y1="789" y2="789"/><text fill="#000000" font-family="Helvetica" font-size="14" lengthAdjust="spacing" textLength="109.7168" x="840.2212" y="741.7803">confirm delete via</text><text fill="#000000" font-family="Helvetica" font-size="14" lengthAdjust="spacing" textLength="264.5645" x="840.2212" y="755.7803">GetRedisRedisClusterCreateIdentityToken</text><text fill="#000000" font-family="Helvetica" font-size="14" lengthAdjust="spacing" textLength="12.4482" x="840.2212" y="769.7803">or</text><text fill="#000000" font-family="Helvetica" font-size="14" lengthAdjust="spacing" textLength="263.7852" x="840.2212" y="783.7803">ListRedisRedisClusterCreateIdentityToken</text></g><path d="M753.0249,804 L819.5698,804 L819.5698,810 L809.5698,820 L745.0249,820 L745.0249,812 A8,8 0 0 1 753.0249,804" fill="#F8FAFC" style="stroke:#CBD5E1;stroke-width:1.5;"/><rect fill="none" height="72" rx="8" ry="8" style="stroke:#CBD5E1;stroke-width:1.5;" width="455.9575" x="745.0249" y="804"/><text fill="#000000" font-family="Helvetica" font-size="14" font-weight="bold" lengthAdjust="spacing" textLength="29.5449" x="760.0249" y="815.7803">loop</text><text fill="#000000" font-family="Helvetica" font-size="14" font-weight="bold" lengthAdjust="spacing" textLength="182.7793" x="834.5698" y="816.7803">[delete pending DELETING]</text><g class="message" data-entity-1="part4" data-entity-2="part5" id="msg12"><polygon fill="#0F172A" points="1159.5376,864,1169.5376,868,1159.5376,872,1163.5376,868" style="stroke:#0F172A;stroke-width:1;"/><line style="stroke:#0F172A;stroke-width:1;" x1="833.2212" x2="1165.5376" y1="868" y2="868"/><text fill="#000000" font-family="Helvetica" font-size="14" lengthAdjust="spacing" textLength="264.5645" x="840.2212" y="834.7803">GetRedisRedisClusterCreateIdentityToken</text><text fill="#000000" font-family="Helvetica" font-size="14" lengthAdjust="spacing" textLength="12.4482" x="840.2212" y="848.7803">or</text><text fill="#000000" font-family="Helvetica" font-size="14" lengthAdjust="spacing" textLength="263.7852" x="840.2212" y="862.7803">ListRedisRedisClusterCreateIdentityToken</text></g><path d="M490.6045,890 L543.9424,890 L543.9424,896 L533.9424,906 L482.6045,906 L482.6045,898 A8,8 0 0 1 490.6045,890" fill="#F8FAFC" style="stroke:#CBD5E1;stroke-width:1.5;"/><rect fill="none" height="88" rx="8" ry="8" style="stroke:#CBD5E1;stroke-width:1.5;" width="438.813" x="482.6045" y="890"/><text fill="#000000" font-family="Helvetica" font-size="14" font-weight="bold" lengthAdjust="spacing" textLength="16.3379" x="497.6045" y="901.7803">alt</text><text fill="#000000" font-family="Helvetica" font-size="14" font-weight="bold" lengthAdjust="spacing" textLength="261.4268" x="558.9424" y="902.7803">[cleanup or finalizer release is blocked]</text><g class="message" data-entity-1="part4" data-entity-2="part3" id="msg13"><polygon fill="#0F172A" points="559.6284,922,549.6284,926,559.6284,930,555.6284,926" style="stroke:#0F172A;stroke-width:1;"/><line style="stroke:#0F172A;stroke-width:1;stroke-dasharray:2,2;" x1="553.6284" x2="832.2212" y1="926" y2="926"/><text fill="#000000" font-family="Helvetica" font-size="14" lengthAdjust="spacing" textLength="170.4336" x="565.6284" y="920.7803">retain delete state and retry</text></g><line style="stroke:#CBD5E1;stroke-width:1;stroke-dasharray:2,2;" x1="482.6045" x2="921.4175" y1="935" y2="935"/><text fill="#000000" font-family="Helvetica" font-size="14" font-weight="bold" lengthAdjust="spacing" textLength="194.4824" x="487.6045" y="945.7803">[delete completion observed]</text><g class="message" data-entity-1="part4" data-entity-2="part3" id="msg14"><polygon fill="#0F172A" points="559.6284,966,549.6284,970,559.6284,974,555.6284,970" style="stroke:#0F172A;stroke-width:1;"/><line style="stroke:#0F172A;stroke-width:1;stroke-dasharray:2,2;" x1="553.6284" x2="832.2212" y1="970" y2="970"/><text fill="#000000" font-family="Helvetica" font-size="14" lengthAdjust="spacing" textLength="243.5781" x="565.6284" y="964.7803">release finalizer after delete completion</text></g><line style="stroke:#CBD5E1;stroke-width:1;stroke-dasharray:2,2;" x1="462.6045" x2="1236.9575" y1="993" y2="993"/><text fill="#000000" font-family="Helvetica" font-size="14" font-weight="bold" lengthAdjust="spacing" textLength="149.3857" x="467.6045" y="1003.7803">[OCI state is retryable]</text><g class="message" data-entity-1="part4" data-entity-2="part3" id="msg15"><polygon fill="#0F172A" points="559.6284,1038,549.6284,1042,559.6284,1046,555.6284,1042" style="stroke:#0F172A;stroke-width:1;"/><line style="stroke:#0F172A;stroke-width:1;stroke-dasharray:2,2;" x1="553.6284" x2="832.2212" y1="1042" y2="1042"/><text fill="#000000" font-family="Helvetica" font-size="14" lengthAdjust="spacing" textLength="184.4199" x="565.6284" y="1022.7803">requeue while OCI remains in</text><text fill="#000000" font-family="Helvetica" font-size="14" lengthAdjust="spacing" textLength="260.5928" x="565.6284" y="1036.7803">PROVISIONING, UPDATING, DELETING</text></g><line style="stroke:#CBD5E1;stroke-width:1;stroke-dasharray:2,2;" x1="462.6045" x2="1236.9575" y1="1051" y2="1051"/><text fill="#000000" font-family="Helvetica" font-size="14" font-weight="bold" lengthAdjust="spacing" textLength="200.751" x="467.6045" y="1061.7803">[live state requires field-aware</text><text fill="#000000" font-family="Helvetica" font-size="14" font-weight="bold" lengthAdjust="spacing" textLength="105.0068" x="467.6045" y="1075.7803">drift evaluation]</text><path d="M480.6045,1087 L608.5908,1087 L608.5908,1093 L598.5908,1103 L472.6045,1103 L472.6045,1095 A8,8 0 0 1 480.6045,1087" fill="#F8FAFC" style="stroke:#CBD5E1;stroke-width:1.5;"/><rect fill="none" height="392" rx="8" ry="8" style="stroke:#CBD5E1;stroke-width:1.5;" width="754.353" x="472.6045" y="1087"/><text fill="#000000" font-family="Helvetica" font-size="14" font-weight="bold" lengthAdjust="spacing" textLength="90.9863" x="487.6045" y="1098.7803">Drift handling</text><path d="M786,1116 L786,1166 A8,8 0 0 0 794,1174 L1208,1174 A8,8 0 0 0 1216,1166 L1216,1118 L1206,1108 L794,1108 A8,8 0 0 0 786,1116" fill="#FFF7D6" style="stroke:#B45309;stroke-width:0.5;"/><path d="M1206,1108 L1206,1114 A4,4 0 0 0 1210,1118 L1216,1118 L1206,1108" fill="#FFF7D6" style="stroke:#B45309;stroke-width:0.5;"/><text fill="#334155" font-family="Helvetica" font-size="14" lengthAdjust="spacing" textLength="255.2813" x="869.3381" y="1123.7803">Supported update surface: display_name</text><text fill="#334155" font-family="Helvetica" font-size="14" lengthAdjust="spacing" textLength="235.7783" x="869.3381" y="1137.7803">Reject before mutate: force-new fields</text><text fill="#334155" font-family="Helvetica" font-size="14" lengthAdjust="spacing" textLength="100.3789" x="869.3381" y="1151.7803">compartment_id</text><text fill="#334155" font-family="Helvetica" font-size="14" lengthAdjust="spacing" textLength="229.5576" x="869.3381" y="1165.7803">Lookup filters: compartment_id, state</text><path d="M490.6045,1186 L549.3701,1186 L549.3701,1192 L539.3701,1202 L482.6045,1202 L482.6045,1194 A8,8 0 0 1 490.6045,1186" fill="#F8FAFC" style="stroke:#CBD5E1;stroke-width:1.5;"/><rect fill="none" height="44" rx="8" ry="8" style="stroke:#CBD5E1;stroke-width:1.5;" width="438.813" x="482.6045" y="1186"/><text fill="#000000" font-family="Helvetica" font-size="14" font-weight="bold" lengthAdjust="spacing" textLength="21.7656" x="497.6045" y="1197.7803">opt</text><text fill="#000000" font-family="Helvetica" font-size="14" font-weight="bold" lengthAdjust="spacing" textLength="276.1309" x="564.3701" y="1198.7803">[force-new or conflicting drift is detected]</text><g class="message" data-entity-1="part4" data-entity-2="part3" id="msg16"><polygon fill="#0F172A" points="559.6284,1218,549.6284,1222,559.6284,1226,555.6284,1222" style="stroke:#0F172A;stroke-width:1;"/><line style="stroke:#0F172A;stroke-width:1;stroke-dasharray:2,2;" x1="553.6284" x2="832.2212" y1="1222" y2="1222"/><text fill="#000000" font-family="Helvetica" font-size="14" lengthAdjust="spacing" textLength="164.1855" x="565.6284" y="1216.7803">reject before OCI mutation</text></g><path d="M743.0249,1244 L801.7905,1244 L801.7905,1250 L791.7905,1260 L735.0249,1260 L735.0249,1252 A8,8 0 0 1 743.0249,1244" fill="#F8FAFC" style="stroke:#CBD5E1;stroke-width:1.5;"/><rect fill="none" height="130" rx="8" ry="8" style="stroke:#CBD5E1;stroke-width:1.5;" width="475.9575" x="735.0249" y="1244"/><text fill="#000000" font-family="Helvetica" font-size="14" font-weight="bold" lengthAdjust="spacing" textLength="21.7656" x="750.0249" y="1255.7803">opt</text><text fill="#000000" font-family="Helvetica" font-size="14" font-weight="bold" lengthAdjust="spacing" textLength="243.4619" x="816.7905" y="1256.7803">[supported mutable drift is detected]</text><g class="message" data-entity-1="part4" data-entity-2="part5" id="msg17"><polygon fill="#0F172A" points="1159.5376,1304,1169.5376,1308,1159.5376,1312,1163.5376,1308" style="stroke:#0F172A;stroke-width:1;"/><line style="stroke:#0F172A;stroke-width:1;" x1="833.2212" x2="1165.5376" y1="1308" y2="1308"/><text fill="#000000" font-family="Helvetica" font-size="14" lengthAdjust="spacing" textLength="35.0205" x="840.2212" y="1274.7803">Apply</text><text fill="#000000" font-family="Helvetica" font-size="14" lengthAdjust="spacing" textLength="287.1436" x="840.2212" y="1288.7803">UpdateRedisRedisClusterCreateIdentityToken</text><text fill="#000000" font-family="Helvetica" font-size="14" lengthAdjust="spacing" textLength="226.4541" x="840.2212" y="1302.7803">only for mutable fields display_name</text></g><path d="M753.0249,1323 L819.5698,1323 L819.5698,1329 L809.5698,1339 L745.0249,1339 L745.0249,1331 A8,8 0 0 1 753.0249,1323" fill="#F8FAFC" style="stroke:#CBD5E1;stroke-width:1.5;"/><rect fill="none" height="44" rx="8" ry="8" style="stroke:#CBD5E1;stroke-width:1.5;" width="455.9575" x="745.0249" y="1323"/><text fill="#000000" font-family="Helvetica" font-size="14" font-weight="bold" lengthAdjust="spacing" textLength="29.5449" x="760.0249" y="1334.7803">loop</text><text fill="#000000" font-family="Helvetica" font-size="14" font-weight="bold" lengthAdjust="spacing" textLength="190.5381" x="834.5698" y="1335.7803">[update pending UPDATING]</text><g class="message" data-entity-1="part4" data-entity-2="part5" id="msg18"><polygon fill="#0F172A" points="1159.5376,1355,1169.5376,1359,1159.5376,1363,1163.5376,1359" style="stroke:#0F172A;stroke-width:1;"/><line style="stroke:#0F172A;stroke-width:1;" x1="833.2212" x2="1165.5376" y1="1359" y2="1359"/><text fill="#000000" font-family="Helvetica" font-size="14" lengthAdjust="spacing" textLength="264.5645" x="840.2212" y="1353.7803">GetRedisRedisClusterCreateIdentityToken</text></g><g class="message" data-entity-1="part4" data-entity-2="part5" id="msg19"><polygon fill="#0F172A" points="1159.5376,1467,1169.5376,1471,1159.5376,1475,1163.5376,1471" style="stroke:#0F172A;stroke-width:1;"/><line style="stroke:#0F172A;stroke-width:1;" x1="833.2212" x2="1165.5376" y1="1471" y2="1471"/><text fill="#000000" font-family="Helvetica" font-size="14" lengthAdjust="spacing" textLength="104.2891" x="840.2212" y="1395.7803">run helper hooks</text><text fill="#000000" font-family="Helvetica" font-size="14" lengthAdjust="spacing" textLength="219.0508" x="840.2212" y="1409.7803">create=tfresource.CreateResource,</text><text fill="#000000" font-family="Helvetica" font-size="14" lengthAdjust="spacing" textLength="314.3164" x="840.2212" y="1423.7803">tfresource.WaitForWorkRequestWithErrorHandling</text><text fill="#000000" font-family="Helvetica" font-size="14" lengthAdjust="spacing" textLength="215.5439" x="840.2212" y="1437.7803">entity=template action=CREATED;</text><text fill="#000000" font-family="Helvetica" font-size="14" lengthAdjust="spacing" textLength="226.085" x="840.2212" y="1451.7803">update=tfresource.UpdateResource;</text><text fill="#000000" font-family="Helvetica" font-size="14" lengthAdjust="spacing" textLength="212.8438" x="840.2212" y="1465.7803">delete=tfresource.DeleteResource</text></g><g class="message" data-entity-1="part4" data-entity-2="part3" id="msg20"><polygon fill="#0F172A" points="559.6284,1516,549.6284,1520,559.6284,1524,555.6284,1520" style="stroke:#0F172A;stroke-width:1;"/><line style="stroke:#0F172A;stroke-width:1;stroke-dasharray:2,2;" x1="553.6284" x2="832.2212" y1="1520" y2="1520"/><text fill="#000000" font-family="Helvetica" font-size="14" lengthAdjust="spacing" textLength="100.7822" x="565.6284" y="1500.7803">status=required,</text><text fill="#000000" font-family="Helvetica" font-size="14" lengthAdjust="spacing" textLength="230.7197" x="565.6284" y="1514.7803">finalizer=retain-until-confirmed-delete</text></g><g class="message" data-entity-1="part3" data-entity-2="part2" id="msg21"><polygon fill="#0F172A" points="320.8022,1565,310.8022,1569,320.8022,1573,316.8022,1569" style="stroke:#0F172A;stroke-width:1;"/><line style="stroke:#0F172A;stroke-width:1;stroke-dasharray:2,2;" x1="314.8022" x2="547.6284" y1="1569" y2="1569"/><text fill="#000000" font-family="Helvetica" font-size="14" lengthAdjust="spacing" textLength="214.8262" x="326.8022" y="1549.7803">requeue on provisioning, updating,</text><text fill="#000000" font-family="Helvetica" font-size="14" lengthAdjust="spacing" textLength="69.2549" x="326.8022" y="1563.7803">terminating</text></g><path d="M838,1590 L838,2060 A8,8 0 0 0 846,2068 L1164,2068 A8,8 0 0 0 1172,2060 L1172,1592 L1162,1582 L846,1582 A8,8 0 0 0 838,1590" fill="#FFF7D6" style="stroke:#B45309;stroke-width:0.5;"/><path d="M1162,1582 L1162,1588 A4,4 0 0 0 1166,1592 L1172,1592 L1162,1582" fill="#FFF7D6" style="stroke:#B45309;stroke-width:0.5;"/><text fill="#334155" font-family="Helvetica" font-size="14" lengthAdjust="spacing" textLength="101.165" x="844" y="1597.7803">shared diagram:</text><text fill="#334155" font-family="Helvetica" font-size="14" lengthAdjust="spacing" textLength="307.3916" x="844" y="1611.7803">shared/diagrams/shared-resolution-sequence.svg</text><text fill="#334155" font-family="Helvetica" font-size="14" lengthAdjust="spacing" textLength="143.1992" x="844" y="1625.7803">shared delete diagram:</text><text fill="#334155" font-family="Helvetica" font-size="14" lengthAdjust="spacing" textLength="284.833" x="844" y="1639.7803">shared/diagrams/shared-delete-sequence.svg</text><text fill="#334155" font-family="Helvetica" font-size="14" lengthAdjust="spacing" textLength="280.9297" x="844" y="1653.7803">Start from the shared resolution sequence for</text><text fill="#334155" font-family="Helvetica" font-size="14" lengthAdjust="spacing" textLength="260.7295" x="844" y="1667.7803">OCID binding, datasource pagination, and</text><text fill="#334155" font-family="Helvetica" font-size="14" lengthAdjust="spacing" textLength="163.4268" x="844" y="1681.7803">create-or-update dispatch.</text><text fill="#334155" font-family="Helvetica" font-size="14" lengthAdjust="spacing" textLength="301.1982" x="844" y="1695.7803">Layer the shared delete sequence when finalizer</text><text fill="#334155" font-family="Helvetica" font-size="14" lengthAdjust="spacing" textLength="269.2471" x="844" y="1709.7803">retention, delete confirmation, work-request</text><text fill="#334155" font-family="Helvetica" font-size="14" lengthAdjust="spacing" textLength="199.2334" x="844" y="1723.7803">polling, or Secret cleanup apply.</text><text fill="#334155" font-family="Helvetica" font-size="14" lengthAdjust="spacing" textLength="281.709" x="844" y="1737.7803">archetype batch: Generated service-manager</text><text fill="#334155" font-family="Helvetica" font-size="14" lengthAdjust="spacing" textLength="266.1504" x="844" y="1751.7803">controllers follow the shared resolution and</text><text fill="#334155" font-family="Helvetica" font-size="14" lengthAdjust="spacing" textLength="259.9297" x="844" y="1765.7803">delete sequences with imported waits and</text><text fill="#334155" font-family="Helvetica" font-size="14" lengthAdjust="spacing" textLength="134.6064" x="844" y="1779.7803">controller-local policy.</text><text fill="#334155" font-family="Helvetica" font-size="14" lengthAdjust="spacing" textLength="82.4688" x="844" y="1793.7803">service: redis</text><text fill="#334155" font-family="Helvetica" font-size="14" lengthAdjust="spacing" textLength="252.9023" x="844" y="1807.7803">slug: redisredisclustercreateidentitytoken</text><text fill="#334155" font-family="Helvetica" font-size="14" lengthAdjust="spacing" textLength="275.4609" x="844" y="1821.7803">kind: RedisRedisClusterCreateIdentityToken</text><text fill="#334155" font-family="Helvetica" font-size="14" lengthAdjust="spacing" textLength="241.2402" x="844" y="1835.7803">archetype: generated-service-manager</text><text fill="#334155" font-family="Helvetica" font-size="14" lengthAdjust="spacing" textLength="156.4063" x="844" y="1849.7803">status/finalizer: required /</text><text fill="#334155" font-family="Helvetica" font-size="14" lengthAdjust="spacing" textLength="174.3027" x="844" y="1863.7803">retain-until-confirmed-delete</text><text fill="#334155" font-family="Helvetica" font-size="14" lengthAdjust="spacing" textLength="272.3984" x="844" y="1877.7803">requeue: provisioning, updating, terminating</text><text fill="#334155" font-family="Helvetica" font-size="14" lengthAdjust="spacing" textLength="295.6816" x="844" y="1891.7803">provider states: create PROVISIONING; update</text><text fill="#334155" font-family="Helvetica" font-size="14" lengthAdjust="spacing" textLength="192.165" x="844" y="1905.7803">UPDATING; delete DELETING</text><text fill="#334155" font-family="Helvetica" font-size="14" lengthAdjust="spacing" textLength="183.6611" x="844" y="1919.7803">supported drift: display_name</text><text fill="#334155" font-family="Helvetica" font-size="14" lengthAdjust="spacing" textLength="230.3301" x="844" y="1933.7803">reject before mutate: force-new fields</text><text fill="#334155" font-family="Helvetica" font-size="14" lengthAdjust="spacing" textLength="100.3789" x="844" y="1947.7803">compartment_id</text><text fill="#334155" font-family="Helvetica" font-size="14" lengthAdjust="spacing" textLength="66.1445" x="844" y="1961.7803">list lookup:</text><text fill="#334155" font-family="Helvetica" font-size="14" lengthAdjust="spacing" textLength="313.6055" x="844" y="1975.7803">scaffold_redis_redisredisclustercreateidentitytoken</text><text fill="#334155" font-family="Helvetica" font-size="14" lengthAdjust="spacing" textLength="175.8477" x="844" y="1989.7803">filters compartment_id, state</text><text fill="#334155" font-family="Helvetica" font-size="14" lengthAdjust="spacing" textLength="89.4961" x="844" y="2003.7803">conflicts: none</text><text fill="#334155" font-family="Helvetica" font-size="14" lengthAdjust="spacing" textLength="104.3164" x="844" y="2017.7803">open gaps: none</text><text fill="#334155" font-family="Helvetica" font-size="14" lengthAdjust="spacing" textLength="224.9023" x="844" y="2031.7803">Scaffold metadata only; replace with</text><text fill="#334155" font-family="Helvetica" font-size="14" lengthAdjust="spacing" textLength="244.3232" x="844" y="2045.7803">controller-specific runtime states before</text><text fill="#334155" font-family="Helvetica" font-size="14" lengthAdjust="spacing" textLength="66.1445" x="844" y="2059.7803">promotion.</text><?plantuml-src hLTRRzis67tNho2wbnQmawP9Ud6G0MsIjK6pf8ZJzSL0G4kKpOKYDPAowmtxxpkyI9OSUzNM8e0ZYTHtFUTyb7dWigIQ5iJCQQQMNCv8JeLXYMbMfZHzc6bLoUnC2QN9JtcAlwor8sCvhOJzHKbxJGj6FZ2nO9QdTFkUCV-JaOEZrYBLMYsZzUVvmQiNxJUbikpTenZo_5NsSdENqXdJSSVqwFZm-PkD7SvzN3yyF3euFcwjU_Efqf9fSl0oiTmAHiRiZuh9b94XqIpZPl_M_VgVCr4P2tUQKSikCoRnnkfEFJ2Pp7d6IAwKdQglBG-cDlPNGWXDhTATY6FczT9cokm5Uvq_npACeRYyfD9kVx-zeO-LLbKQ6uBdx8hBRatV7D73wMkiEfDbPocTPiVie5bwrA_NEStJvE_4vqO-LbE6GbjcabOSv0o1Q2K4qvt7xwXXjonLCkMRIqzknZSVnqmlUCf-fPBEc7v2g27THvrNRiuk4uS5eXReTDVsOECzi09jH-kD4fNbIexYe_sCqnbwQlR3_N2zPLYtUSyiPhM5Z0bak_FjiDnzaydCOpPP5uiCVsxLQ4IOnFwAJMGVL4wahlDCraQSoMuDHgIvVgfTGCO-IxfRt4lTIer8Onov6ewa-aMLUBoGAwKUy8yYvocNMKA59LO3HQWTyCA-bWBzyyqZFBvFg82zR8LLRgn9kX6v6B5xHDupsoiG1jbhV3O-k245DmR2kCl-5PptSV0qvm8hPZIHgIeS8WkitlDiG8p5vcS-QSqgGwUeeilKWQhI40n40IX0Ki2eNN44bxrI5KgL9FKBf0JEdEn_khtvxN9yUNDzUVt-kqk9A7qvjsVpW_ksfIHRG5sYz70NkBn0YpjGuj8teJBUd6j4e2I9361P1EgvVxmhvh3QA-mT5X1mpdLHkrzmEf4zAp6HIazaNpW644GtDGZEBwukxhuV0FynahhagM1KeiOWVCub5JWdQ3G0Jusdm5GeHyu-tTRCKlGqfkVvvSK5p_KgO3EkEIxY0i9DrDJ0Sby78Qnre3H7Ue-j1ZBKX72W2z4W7n-CeqS_XrxhoNBE6puLoD40knFPPk-0VFvq_lRENpKDzTu5NzJ5SEQWqWO9C94DwH9pQ28ppNDBs8AAYlhW8-ZzupaAA9mGhgTdD-w16wtZgYoL1c58LMREawbqJbCs8W11AUZgNkACcDootrbgoPJbIZDIL2we4GGE-Z2KR1d2CabNAPCu9ceb9Lk5T3qvLMbR9W4hnouC4kkm7d956p8qBBLzszuEstN1XrxtsJaqJG7SaXE_RtkAz7fRbc8raPzzuNeIJOgLox5n5WhNBRQdUcn7JVKQ8pz4wtTF9Lr9CcS2walcQ9x1yFD6JcrUpuEzUdA5sy54jjQ-K8xpgVwYzCDjaE8ltCulyC6WFqGyJcI8vzGoaCupFNKTEJsxlNXxTt5-Cf4XzxRFkiRX5bi2STjRQZ4FjttdJ1WZfv5V6R9f9E8qgDAmGhXY69M-EVrv1vldh8q3Noq24AjIgmKtI1CL68JckYiKZ-a27ct3LCrdSqjKJhOVRkDPzFjEjj-qiks4ExRWBicrAeYTC_BeiBt-O0B04y3ft1yEVS98byRZH4bdFbyb1qxZam2meTB327d71MhJ-LvoHLUeQijPFI1gHyivasjDJz0mXordkH5stxNeRWbO3kCH8IdH91-RSiA8ADOJZJfYxoLKftDcLoN3HpNYSIJ3roPrMc52RuP5R4xQT1qIZVzgkQD6BkEDB0nPWYE45r67bk2G2QLfh0unIwaWY9cdY2ow7uMltCI8QXQl_KyQ-1ygMn-QhES_lcupzydGGogQz4TaLYS-t4myy6U_wS6e7bKPsK_-dK2H7QDTt21jQlWz-7uDCyFDad0URa_IaoYQIIsM9pKCchcwLdklyXjJJl-lAIVSELNuKGS-fJG70B9xtuZxNZs9yt77UAo787B6-71J4fYVqRA-7qUFf42r7S-86p8dw0CISnm1kDf8CYLBUSvJf_MM5_64OMBMhj25Sb3TQmRpFm00?></g></svg>