<?plantuml 1.2026.1?><svg xmlns="http://www.w3.org/2000/svg" xmlns:xlink="http://www.w3.org/1999/xlink" contentStyleType="text/css" data-diagram-type="STATE" height="590px" preserveAspectRatio="none" style="width:3684px;height:590px;background:#FCFCFD;" version="1.1" viewBox="0 0 3684 590" width="3684px" zoomAndPan="magnify"><title>State Machine - datascience/DatascienceModelArtifactImport</title><defs/><g><rect fill="#FCFCFD" height="590" style="stroke:none;stroke-width:1;" width="3684" x="0" y="0"/><g class="title" data-source-line="10"><text fill="#000000" font-family="Helvetica" font-size="14" font-weight="bold" lengthAdjust="spacing" textLength="405.3438" x="1632.3811" y="20.7803">State Machine - datascience/DatascienceModelArtifactImport</text></g><g><rect fill="#F8FAFC" height="62" rx="8" ry="8" style="stroke:#0F172A;stroke-width:0.5;" width="264.3643" x="328" y="403"/><line style="stroke:#0F172A;stroke-width:0.5;" x1="328" x2="592.3643" y1="427" y2="427"/><text fill="#0F172A" font-family="Helvetica" font-size="14" lengthAdjust="spacing" textLength="52.9102" x="433.7271" y="418.7803">Observe</text><text fill="#0F172A" font-family="Helvetica" font-size="14" lengthAdjust="spacing" textLength="244.3643" x="333" y="442.7803">read spec, tracked status, delete intent,</text><text fill="#0F172A" font-family="Helvetica" font-size="14" lengthAdjust="spacing" textLength="153.2822" x="333" y="456.7803">and current OCI lifecycle</text></g><rect fill="#F8FAFC" height="40" rx="8" ry="8" style="stroke:#0F172A;stroke-width:0.5;" width="104.9512" x="1389.36" y="246"/><text fill="#0F172A" font-family="Helvetica" font-size="14" lengthAdjust="spacing" textLength="94.9512" x="1394.36" y="269.7803">EvaluateReady</text><rect fill="#F8FAFC" height="40" rx="8" ry="8" style="stroke:#0F172A;stroke-width:0.5;" width="50.4688" x="2148.32" y="246"/><text fill="#0F172A" font-family="Helvetica" font-size="14" lengthAdjust="spacing" textLength="40.4688" x="2153.32" y="269.7803">Ready</text><rect fill="#F8FAFC" height="40" rx="8" ry="8" style="stroke:#0F172A;stroke-width:0.5;" width="69.917" x="1406.88" y="381"/><text fill="#0F172A" font-family="Helvetica" font-size="14" lengthAdjust="spacing" textLength="59.917" x="1411.88" y="404.7803">Retryable</text><rect fill="#F8FAFC" height="40" rx="8" ry="8" style="stroke:#0F172A;stroke-width:0.5;" width="50" x="1416.84" y="500"/><text fill="#0F172A" font-family="Helvetica" font-size="14" lengthAdjust="spacing" textLength="38.1309" x="1422.7746" y="523.7803">Failed</text><rect fill="#F8FAFC" height="40" rx="8" ry="8" style="stroke:#0F172A;stroke-width:0.5;" width="122.8477" x="870.44" y="357"/><text fill="#0F172A" font-family="Helvetica" font-size="14" lengthAdjust="spacing" textLength="112.8477" x="875.44" y="380.7803">ResolveByLookup</text><rect fill="#F8FAFC" height="40" rx="8" ry="8" style="stroke:#0F172A;stroke-width:0.5;" width="155.5098" x="1723.56" y="336"/><text fill="#0F172A" font-family="Helvetica" font-size="14" lengthAdjust="spacing" textLength="145.5098" x="1728.56" y="359.7803">RejectUnsupportedDrift</text><rect fill="#F8FAFC" height="40" rx="8" ry="8" style="stroke:#0F172A;stroke-width:0.5;" width="90.165" x="1756.23" y="175"/><text fill="#0F172A" font-family="Helvetica" font-size="14" lengthAdjust="spacing" textLength="80.165" x="1761.23" y="198.7803">ApplyUpdate</text><rect fill="#F8FAFC" height="40" rx="8" ry="8" style="stroke:#0F172A;stroke-width:0.5;" width="101.8477" x="2490.51" y="492"/><text fill="#0F172A" font-family="Helvetica" font-size="14" lengthAdjust="spacing" textLength="91.8477" x="2495.51" y="515.7803">DeletePending</text><rect fill="#F8FAFC" height="40" rx="8" ry="8" style="stroke:#0F172A;stroke-width:0.5;" width="58.2549" x="3595.4" y="426"/><text fill="#0F172A" font-family="Helvetica" font-size="14" lengthAdjust="spacing" textLength="48.2549" x="3600.4" y="449.7803">Deleted</text><rect fill="#F8FAFC" height="40" rx="8" ry="8" style="stroke:#0F172A;stroke-width:0.5;" width="152.4268" x="3106.02" y="426"/><text fill="#0F172A" font-family="Helvetica" font-size="14" lengthAdjust="spacing" textLength="142.4268" x="3111.02" y="449.7803">DeleteCleanupBlocked</text><ellipse cx="16" cy="434" fill="#222222" rx="10" ry="10" style="stroke:#222222;stroke-width:1;"/><g class="entity" data-qualified-name="GMN2" data-source-line="55" id="ent0003"><path d="M2364.78,49 L2364.78,253.18 L2199.12,264.86 L2364.78,261.18 L2364.78,449 A8,8 0 0 0 2372.78,457 L2710.0749,457 A8,8 0 0 0 2718.0749,449 L2718.0749,51 L2708.0749,41 L2372.78,41 A8,8 0 0 0 2364.78,49" fill="#FFF7D6" style="stroke:#B45309;stroke-width:0.5;"/><path d="M2708.0749,41 L2708.0749,47 A4,4 0 0 0 2712.0749,51 L2718.0749,51 L2708.0749,41" fill="#FFF7D6" style="stroke:#B45309;stroke-width:0.5;"/><text fill="#334155" font-family="Helvetica" font-size="14" lengthAdjust="spacing" textLength="101.165" x="2370.78" y="56.7803">shared diagram:</text><text fill="#334155" font-family="Helvetica" font-size="14" lengthAdjust="spacing" textLength="331.4814" x="2370.78" y="70.7803">shared/diagrams/shared-controller-state-machine.svg</text><text fill="#334155" font-family="Helvetica" font-size="14" lengthAdjust="spacing" textLength="304.2744" x="2370.78" y="84.7803">Start from the shared controller phase model and</text><text fill="#334155" font-family="Helvetica" font-size="14" lengthAdjust="spacing" textLength="261.4678" x="2370.78" y="98.7803">specialize imported provider states, delete</text><text fill="#334155" font-family="Helvetica" font-size="14" lengthAdjust="spacing" textLength="184.4336" x="2370.78" y="112.7803">targets, and failure exits here.</text><text fill="#334155" font-family="Helvetica" font-size="14" lengthAdjust="spacing" textLength="281.709" x="2370.78" y="126.7803">archetype batch: Generated service-manager</text><text fill="#334155" font-family="Helvetica" font-size="14" lengthAdjust="spacing" textLength="287.9229" x="2370.78" y="140.7803">controllers map provider states into the shared</text><text fill="#334155" font-family="Helvetica" font-size="14" lengthAdjust="spacing" textLength="261.4609" x="2370.78" y="154.7803">controller phases with explicit finalizer and</text><text fill="#334155" font-family="Helvetica" font-size="14" lengthAdjust="spacing" textLength="105.8477" x="2370.78" y="168.7803">requeue policies.</text><text fill="#334155" font-family="Helvetica" font-size="14" lengthAdjust="spacing" textLength="126.8408" x="2370.78" y="182.7803">service: datascience</text><text fill="#334155" font-family="Helvetica" font-size="14" lengthAdjust="spacing" textLength="227.2197" x="2370.78" y="196.7803">slug: datasciencemodelartifactimport</text><text fill="#334155" font-family="Helvetica" font-size="14" lengthAdjust="spacing" textLength="231.875" x="2370.78" y="210.7803">kind: DatascienceModelArtifactImport</text><text fill="#334155" font-family="Helvetica" font-size="14" lengthAdjust="spacing" textLength="241.2402" x="2370.78" y="224.7803">archetype: generated-service-manager</text><text fill="#334155" font-family="Helvetica" font-size="14" lengthAdjust="spacing" textLength="156.4063" x="2370.78" y="238.7803">status/finalizer: required /</text><text fill="#334155" font-family="Helvetica" font-size="14" lengthAdjust="spacing" textLength="174.3027" x="2370.78" y="252.7803">retain-until-confirmed-delete</text><text fill="#334155" font-family="Helvetica" font-size="14" lengthAdjust="spacing" textLength="272.3984" x="2370.78" y="266.7803">requeue: provisioning, updating, terminating</text><text fill="#334155" font-family="Helvetica" font-size="14" lengthAdjust="spacing" textLength="295.6816" x="2370.78" y="280.7803">provider states: create PROVISIONING; update</text><text fill="#334155" font-family="Helvetica" font-size="14" lengthAdjust="spacing" textLength="192.165" x="2370.78" y="294.7803">UPDATING; delete DELETING</text><text fill="#334155" font-family="Helvetica" font-size="14" lengthAdjust="spacing" textLength="183.6611" x="2370.78" y="308.7803">supported drift: display_name</text><text fill="#334155" font-family="Helvetica" font-size="14" lengthAdjust="spacing" textLength="230.3301" x="2370.78" y="322.7803">reject before mutate: force-new fields</text><text fill="#334155" font-family="Helvetica" font-size="14" lengthAdjust="spacing" textLength="100.3789" x="2370.78" y="336.7803">compartment_id</text><text fill="#334155" font-family="Helvetica" font-size="14" lengthAdjust="spacing" textLength="66.1445" x="2370.78" y="350.7803">list lookup:</text><text fill="#334155" font-family="Helvetica" font-size="14" lengthAdjust="spacing" textLength="332.2949" x="2370.78" y="364.7803">scaffold_datascience_datasciencemodelartifactimport</text><text fill="#334155" font-family="Helvetica" font-size="14" lengthAdjust="spacing" textLength="175.8477" x="2370.78" y="378.7803">filters compartment_id, state</text><text fill="#334155" font-family="Helvetica" font-size="14" lengthAdjust="spacing" textLength="89.4961" x="2370.78" y="392.7803">conflicts: none</text><text fill="#334155" font-family="Helvetica" font-size="14" lengthAdjust="spacing" textLength="104.3164" x="2370.78" y="406.7803">open gaps: none</text><text fill="#334155" font-family="Helvetica" font-size="14" lengthAdjust="spacing" textLength="224.9023" x="2370.78" y="420.7803">Scaffold metadata only; replace with</text><text fill="#334155" font-family="Helvetica" font-size="14" lengthAdjust="spacing" textLength="244.3232" x="2370.78" y="434.7803">controller-specific runtime states before</text><text fill="#334155" font-family="Helvetica" font-size="14" lengthAdjust="spacing" textLength="66.1445" x="2370.78" y="448.7803">promotion.</text></g><g class="entity" data-qualified-name="GMN5" data-source-line="86" id="ent0006"><path d="M3053.08,509 L3053.08,531.16 L2592.82,514.29 L3053.08,539.16 L3053.08,573 A8,8 0 0 0 3061.08,581 L3303.3964,581 A8,8 0 0 0 3311.3964,573 L3311.3964,511 L3301.3964,501 L3061.08,501 A8,8 0 0 0 3053.08,509" fill="#FFF7D6" style="stroke:#B45309;stroke-width:0.5;"/><path d="M3301.3964,501 L3301.3964,507 A4,4 0 0 0 3305.3964,511 L3311.3964,511 L3301.3964,501" fill="#FFF7D6" style="stroke:#B45309;stroke-width:0.5;"/><text fill="#334155" font-family="Helvetica" font-size="14" lengthAdjust="spacing" textLength="136.9717" x="3059.08" y="516.7803">delete policy: required</text><text fill="#334155" font-family="Helvetica" font-size="14" lengthAdjust="spacing" textLength="95.7305" x="3059.08" y="530.7803">delete observe:</text><text fill="#334155" font-family="Helvetica" font-size="14" lengthAdjust="spacing" textLength="237.3164" x="3059.08" y="544.7803">GetDatascienceModelArtifactImport or</text><text fill="#334155" font-family="Helvetica" font-size="14" lengthAdjust="spacing" textLength="220.1992" x="3059.08" y="558.7803">ListDatascienceModelArtifactImport</text><text fill="#334155" font-family="Helvetica" font-size="14" lengthAdjust="spacing" textLength="157.1855" x="3059.08" y="572.7803">delete targets: DELETED</text></g><!--link *start* to observe--><g class="link" data-entity-1="ent0002" data-entity-2="ent0002" data-link-type="dependency" data-source-line="32" id="lnk3"><path d="M26.24,434 C64.62,434 208.8,434 321.59,434" fill="none" id="*start*-to-observe" style="stroke:#0F172A;stroke-width:1;"/><polygon fill="#0F172A" points="327.59,434,318.59,430,322.59,434,318.59,438,327.59,434" style="stroke:#0F172A;stroke-width:1;"/><text fill="#000000" font-family="Helvetica" font-size="14" lengthAdjust="spacing" textLength="240.4336" x="57" y="429.7803">CreateDatascienceModelArtifactImport</text></g><!--link observe to resolve_by_lookup--><g class="link" data-entity-1="ent0002" data-entity-2="ent0007" data-link-type="dependency" data-source-line="33" id="lnk4"><path d="M592.64,418.05 C683.55,407.01 794.3337,393.5731 864.1837,385.0931" fill="none" id="observe-to-resolve_by_lookup" style="stroke:#0F172A;stroke-width:1;"/><polygon fill="#0F172A" points="870.14,384.37,860.7235,381.4838,865.1764,384.9726,861.6877,389.4255,870.14,384.37" style="stroke:#0F172A;stroke-width:1;"/><text fill="#000000" font-family="Helvetica" font-size="14" lengthAdjust="spacing" textLength="145.5029" x="623.36" y="392.8403">tracked identity missing</text></g><!--link resolve_by_lookup to evaluate_ready--><g class="link" data-entity-1="ent0007" data-entity-2="ent0003" data-link-type="dependency" data-source-line="34" id="lnk5"><path d="M993.57,365.58 C1107.1,344.19 1341.77,299.79 1359.36,295 C1369.07,292.36 1373.6038,291.0543 1383.3838,287.7043" fill="none" id="resolve_by_lookup-to-evaluate_ready" style="stroke:#0F172A;stroke-width:1;"/><polygon fill="#0F172A" points="1389.06,285.76,1379.2494,284.8923,1384.3298,287.3803,1381.8419,292.4606,1389.06,285.76" style="stroke:#0F172A;stroke-width:1;"/><text fill="#000000" font-family="Helvetica" font-size="14" lengthAdjust="spacing" textLength="154.0889" x="1149.86" y="276.7803">lookup or create reaches</text><text fill="#000000" font-family="Helvetica" font-size="14" lengthAdjust="spacing" textLength="50.5654" x="1201.6217" y="290.7803">ACTIVE</text></g><!--link resolve_by_lookup to retryable--><g class="link" data-entity-1="ent0007" data-entity-2="ent0005" data-link-type="dependency" data-source-line="35" id="lnk6"><path d="M993.63,379.87 C1101.21,384.95 1315.8067,395.0973 1400.5967,399.0973" fill="none" id="resolve_by_lookup-to-retryable" style="stroke:#0F172A;stroke-width:1;"/><polygon fill="#0F172A" points="1406.59,399.38,1397.7885,394.9603,1401.5956,399.1444,1397.4115,402.9514,1406.59,399.38" style="stroke:#0F172A;stroke-width:1;"/><text fill="#000000" font-family="Helvetica" font-size="14" lengthAdjust="spacing" textLength="184.3789" x="1134.86" y="366.5403">OCI state in PROVISIONING,</text><text fill="#000000" font-family="Helvetica" font-size="14" lengthAdjust="spacing" textLength="150.1309" x="1151.984" y="380.5403">UPDATING, DELETING</text></g><!--link resolve_by_lookup to failed--><g class="link" data-entity-1="ent0007" data-entity-2="ent0006" data-link-type="dependency" data-source-line="36" id="lnk7"><path d="M993.63,394.11 C1105.69,425.65 1334.5847,490.0834 1410.6747,511.5134" fill="none" id="resolve_by_lookup-to-failed" style="stroke:#0F172A;stroke-width:1;"/><polygon fill="#0F172A" points="1416.45,513.14,1408.8714,506.8499,1411.6372,511.7845,1406.7026,514.5504,1416.45,513.14" style="stroke:#0F172A;stroke-width:1;"/><text fill="#000000" font-family="Helvetica" font-size="14" lengthAdjust="spacing" textLength="263.7783" x="1095.36" y="419.0303">unresolved OCI error or non-success state</text></g><!--link observe to evaluate_ready--><g class="link" data-entity-1="ent0002" data-entity-2="ent0003" data-link-type="dependency" data-source-line="37" id="lnk8"><path d="M537.96,402.64 C564.45,392.43 594.47,381.55 622.36,373 C828.5,309.82 880.22,286.06 1094.36,261 C1198.33,248.83 1315.0497,255.0341 1382.9897,260.5541" fill="none" id="observe-to-evaluate_ready" style="stroke:#0F172A;stroke-width:1;"/><polygon fill="#0F172A" points="1388.97,261.04,1380.3235,256.3243,1383.9864,260.6351,1379.6756,264.298,1388.97,261.04" style="stroke:#0F172A;stroke-width:1;"/><text fill="#000000" font-family="Helvetica" font-size="14" lengthAdjust="spacing" textLength="128.3721" x="867.86" y="260.9503">OCI state in ACTIVE</text></g><!--link observe to retryable--><g class="link" data-entity-1="ent0002" data-entity-2="ent0005" data-link-type="dependency" data-source-line="38" id="lnk9"><path d="M592.47,438.33 C655.11,440.38 731.11,442.85 799.36,445 C1048.16,452.84 1120.72,524.79 1359.36,454 C1370.77,450.62 1389.445,438.3638 1408.305,424.9138" fill="none" id="observe-to-retryable" style="stroke:#0F172A;stroke-width:1;"/><polygon fill="#0F172A" points="1413.19,421.43,1403.54,423.3989,1409.1191,424.3331,1408.185,429.9123,1413.19,421.43" style="stroke:#0F172A;stroke-width:1;"/><text fill="#000000" font-family="Helvetica" font-size="14" lengthAdjust="spacing" textLength="184.3789" x="839.86" y="426.7803">OCI state in PROVISIONING,</text><text fill="#000000" font-family="Helvetica" font-size="14" lengthAdjust="spacing" textLength="150.1309" x="856.984" y="440.7803">UPDATING, DELETING</text></g><!--link observe to failed--><g class="link" data-entity-1="ent0002" data-entity-2="ent0006" data-link-type="dependency" data-source-line="39" id="lnk10"><path d="M592.52,464.76 C654.83,478.03 730.56,492.26 799.36,500 C1038.8,526.92 1325.4516,522.7695 1410.5616,520.7895" fill="none" id="observe-to-failed" style="stroke:#0F172A;stroke-width:1;"/><polygon fill="#0F172A" points="1416.56,520.65,1407.4694,516.8604,1411.5614,520.7663,1407.6555,524.8582,1416.56,520.65" style="stroke:#0F172A;stroke-width:1;"/><text fill="#000000" font-family="Helvetica" font-size="14" lengthAdjust="spacing" textLength="263.7783" x="800.36" y="495.7803">unresolved OCI error or non-success state</text></g><!--link evaluate_ready to reject_unsupported_drift--><g class="link" data-entity-1="ent0003" data-entity-2="ent0008" data-link-type="dependency" data-source-line="40" id="lnk11"><path d="M1466.06,286.48 C1481.49,298.89 1502.81,313.85 1524.32,322 C1588.53,346.35 1660.6042,353.9058 1717.3042,356.0258" fill="none" id="evaluate_ready-to-reject_unsupported_drift" style="stroke:#0F172A;stroke-width:1;"/><polygon fill="#0F172A" points="1723.3,356.25,1714.4557,351.9165,1718.3035,356.0632,1714.1568,359.9109,1723.3,356.25" style="stroke:#0F172A;stroke-width:1;"/><text fill="#000000" font-family="Helvetica" font-size="14" lengthAdjust="spacing" textLength="143.9512" x="1535.32" y="303.7803">force-new or conflicting</text><text fill="#000000" font-family="Helvetica" font-size="14" lengthAdjust="spacing" textLength="80.9375" x="1566.8268" y="317.7803">drift detected</text></g><!--link reject_unsupported_drift to ready--><g class="link" data-entity-1="ent0008" data-entity-2="ent0004" data-link-type="dependency" data-source-line="41" id="lnk12"><path d="M1879.32,355.06 C1945.2,351.77 2041.3,341 2118.32,308 C2130.36,302.84 2137.4802,298.2363 2146.9202,290.2463" fill="none" id="reject_unsupported_drift-to-ready" style="stroke:#0F172A;stroke-width:1;"/><polygon fill="#0F172A" points="2151.5,286.37,2142.0461,289.1313,2147.6835,289.6003,2147.2146,295.2376,2151.5,286.37" style="stroke:#0F172A;stroke-width:1;"/><text fill="#000000" font-family="Helvetica" font-size="14" lengthAdjust="spacing" textLength="203.8818" x="1914.32" y="303.7803">wait for spec or live state change</text></g><!--link evaluate_ready to apply_update--><g class="link" data-entity-1="ent0003" data-entity-2="ent0009" data-link-type="dependency" data-source-line="42" id="lnk13"><path d="M1494.72,248.96 C1504.49,246.07 1514.67,243.27 1524.32,241 C1605.17,221.95 1695.2022,208.6097 1750.0322,201.3297" fill="none" id="evaluate_ready-to-apply_update" style="stroke:#0F172A;stroke-width:1;"/><polygon fill="#0F172A" points="1755.98,200.54,1746.5318,197.7594,1751.0235,201.1981,1747.5848,205.6898,1755.98,200.54" style="stroke:#0F172A;stroke-width:1;"/><text fill="#000000" font-family="Helvetica" font-size="14" lengthAdjust="spacing" textLength="163.4199" x="1525.32" y="192.0903">supported mutable drift for</text><text fill="#000000" font-family="Helvetica" font-size="14" lengthAdjust="spacing" textLength="86.3857" x="1563.8371" y="206.0903">display_name</text></g><!--link apply_update to ready--><g class="link" data-entity-1="ent0009" data-entity-2="ent0004" data-link-type="dependency" data-source-line="43" id="lnk14"><path d="M1846.88,197.45 C1908.86,201.76 2024.1,213.07 2118.32,241 C2128.36,243.98 2133.5025,245.9001 2142.6125,250.2801" fill="none" id="apply_update-to-ready" style="stroke:#0F172A;stroke-width:1;"/><polygon fill="#0F172A" points="2148.02,252.88,2141.642,245.3752,2143.5138,250.7135,2138.1756,252.5852,2148.02,252.88" style="stroke:#0F172A;stroke-width:1;"/><text fill="#000000" font-family="Helvetica" font-size="14" lengthAdjust="spacing" textLength="141.6543" x="1945.32" y="199.4503">update path completes</text></g><!--link evaluate_ready to ready--><g class="link" data-entity-1="ent0003" data-entity-2="ent0004" data-link-type="dependency" data-source-line="44" id="lnk15"><path d="M1494.73,266 C1639.46,266 2037.77,266 2141.86,266" fill="none" id="evaluate_ready-to-ready" style="stroke:#0F172A;stroke-width:1;"/><polygon fill="#0F172A" points="2147.86,266,2138.86,262,2142.86,266,2138.86,270,2147.86,266" style="stroke:#0F172A;stroke-width:1;"/><text fill="#000000" font-family="Helvetica" font-size="14" lengthAdjust="spacing" textLength="162.6406" x="1720.32" y="261.7803">no supported drift remains</text></g><!--link ready to ready--><g class="link" data-entity-1="ent0004" data-entity-2="ent0004" data-link-type="dependency" data-source-line="45" id="lnk16"><path d="M2156.35,245.69 C2149,228.73 2154.74,211 2173.55,211 C2192.36,211 2200.4858,223.2247 2193.1358,240.1847" fill="none" id="ready-to-ready" style="stroke:#0F172A;stroke-width:1;"/><polygon fill="#0F172A" points="2190.75,245.69,2197.9989,239.0227,2192.7382,241.1023,2190.6586,235.8416,2190.75,245.69" style="stroke:#0F172A;stroke-width:1;"/><text fill="#000000" font-family="Helvetica" font-size="14" lengthAdjust="spacing" textLength="162.6406" x="2092.55" y="201.7803">no supported drift remains</text></g><!--link retryable to retryable--><g class="link" data-entity-1="ent0005" data-entity-2="ent0005" data-link-type="dependency" data-source-line="46" id="lnk17"><path d="M1415.63,380.69 C1404.42,363.73 1413.16,346 1441.84,346 C1470.52,346 1482.5564,358.7232 1471.3564,375.6832" fill="none" id="retryable-to-retryable" style="stroke:#0F172A;stroke-width:1;"/><polygon fill="#0F172A" points="1468.05,380.69,1476.3474,375.3841,1470.8053,376.5177,1469.6717,370.9756,1468.05,380.69" style="stroke:#0F172A;stroke-width:1;"/><text fill="#000000" font-family="Helvetica" font-size="14" lengthAdjust="spacing" textLength="136.9307" x="1373.84" y="336.7803">OCI remains retryable</text></g><!--link failed to failed--><g class="link" data-entity-1="ent0006" data-entity-2="ent0006" data-link-type="dependency" data-source-line="47" id="lnk18"><path d="M1416.41,500.83 C1404.04,483.53 1412.52,465 1441.84,465 C1471.16,465 1483.1298,478.6493 1470.7598,495.9493" fill="none" id="failed-to-failed" style="stroke:#0F172A;stroke-width:1;"/><polygon fill="#0F172A" points="1467.27,500.83,1475.7585,495.8355,1470.1782,496.7628,1469.251,491.1824,1467.27,500.83" style="stroke:#0F172A;stroke-width:1;"/><text fill="#000000" font-family="Helvetica" font-size="14" lengthAdjust="spacing" textLength="132.2549" x="1375.84" y="455.7803">OCI remains terminal</text></g><!--link ready to delete_pending--><g class="link" data-entity-1="ent0004" data-entity-2="ent0010" data-link-type="dependency" data-source-line="48" id="lnk19"><path d="M2199.1,281.72 C2233.51,304.84 2296.19,351.04 2334.78,404 C2354.96,431.68 2338.35,453.21 2364.78,475 C2399.77,503.84 2445.7348,511.6091 2484.0648,513.1491" fill="none" id="ready-to-delete_pending" style="stroke:#0F172A;stroke-width:1;"/><polygon fill="#0F172A" points="2490.06,513.39,2481.2278,509.0319,2485.064,513.1893,2480.9067,517.0255,2490.06,513.39" style="stroke:#0F172A;stroke-width:1;"/><text fill="#000000" font-family="Helvetica" font-size="14" lengthAdjust="spacing" textLength="104.3027" x="2229.78" y="299.3403">delete requested</text></g><!--link retryable to delete_pending--><g class="link" data-entity-1="ent0005" data-entity-2="ent0010" data-link-type="dependency" data-source-line="49" id="lnk20"><path d="M1476.89,404.09 C1595.37,414.88 2000.63,452.21 2334.78,488 C2387.86,493.68 2442.6032,500.1315 2484.2232,505.1515" fill="none" id="retryable-to-delete_pending" style="stroke:#0F172A;stroke-width:1;"/><polygon fill="#0F172A" points="2490.18,505.87,2481.7237,500.8211,2485.216,505.2713,2480.7658,508.7635,2490.18,505.87" style="stroke:#0F172A;stroke-width:1;"/><text fill="#000000" font-family="Helvetica" font-size="14" lengthAdjust="spacing" textLength="104.3027" x="1963.82" y="441.7803">delete requested</text></g><!--link failed to delete_pending--><g class="link" data-entity-1="ent0006" data-entity-2="ent0010" data-link-type="dependency" data-source-line="50" id="lnk21"><path d="M1467.3,519.82 C1606.32,518.81 2291.4102,513.8135 2484.3402,512.4135" fill="none" id="failed-to-delete_pending" style="stroke:#0F172A;stroke-width:1;"/><polygon fill="#0F172A" points="2490.34,512.37,2481.3112,508.4354,2485.3401,512.4063,2481.3693,516.4352,2490.34,512.37" style="stroke:#0F172A;stroke-width:1;"/><text fill="#000000" font-family="Helvetica" font-size="14" lengthAdjust="spacing" textLength="104.3027" x="1963.82" y="510.8603">delete requested</text></g><!--link delete_pending to delete_cleanup_blocked--><g class="link" data-entity-1="ent0010" data-entity-2="ent0012" data-link-type="dependency" data-source-line="51" id="lnk22"><path d="M2592.82,506.79 C2704.56,495.25 2967.6418,468.0667 3099.6518,454.4267" fill="none" id="delete_pending-to-delete_cleanup_blocked" style="stroke:#0F172A;stroke-width:1;"/><polygon fill="#0F172A" points="3105.62,453.81,3096.2565,450.7562,3100.6465,454.3239,3097.0788,458.7138,3105.62,453.81" style="stroke:#0F172A;stroke-width:1;"/><text fill="#000000" font-family="Helvetica" font-size="14" lengthAdjust="spacing" textLength="273.1436" x="2749.08" y="459.4803">cleanup or finalizer release remains blocked</text></g><!--link delete_cleanup_blocked to deleted--><g class="link" data-entity-1="ent0012" data-entity-2="ent0011" data-link-type="dependency" data-source-line="52" id="lnk23"><path d="M3258.93,446 C3358.26,446 3521.84,446 3588.96,446" fill="none" id="delete_cleanup_blocked-to-deleted" style="stroke:#0F172A;stroke-width:1;"/><polygon fill="#0F172A" points="3594.96,446,3585.96,442,3589.96,446,3585.96,450,3594.96,446" style="stroke:#0F172A;stroke-width:1;"/><text fill="#000000" font-family="Helvetica" font-size="14" lengthAdjust="spacing" textLength="222.5645" x="3342.4" y="441.7803">retry delete completion until allowed</text></g><!--link deleted to deleted--><g class="link" data-entity-1="ent0011" data-entity-2="ent0011" data-link-type="dependency" data-source-line="53" id="lnk24"><path d="M3597.33,425.69 C3585.71,408.73 3594.78,391 3624.52,391 C3654.27,391 3666.7212,403.7803 3655.1012,420.7403" fill="none" id="deleted-to-deleted" style="stroke:#0F172A;stroke-width:1;"/><polygon fill="#0F172A" points="3651.71,425.69,3660.0967,420.5263,3654.536,421.5653,3653.4971,416.0046,3651.71,425.69" style="stroke:#0F172A;stroke-width:1;"/><text fill="#000000" font-family="Helvetica" font-size="14" lengthAdjust="spacing" textLength="92.5859" x="3578.52" y="381.7803">terminal stutter</text></g><?plantuml-src dLVRRXit47tdLn3fMs7PSUDSgW057Dj93JXn42TvQGg18eSI6owv9RbsrAB_tXcIkrgjxHeDzBBa30zdpjoe-DMuLWJHyBWMojyOj-9Qs0Wi3fAba5zNmNTEdNZh0_z1I_ofaOO2BJgRNdkNtea6-AzWho4PAUxMkJ9_0Jyy6Wb52FwceZ_MXyz_6fzqFi6hMpPe_Lmzcshve21KZUNHqoUFVvveqFLL_kJ9qU7JfoDvXfS-E0Zyy1bB9bdWLqaau6-5N1i7VCQLI29A0qx2mUds-wrNO8z3Cbh8TDwqFgGHSimWVpD-1vSljD2I96FRAmUSwwszmnwYXNxpK1s1Ue6RC21MlN-O1PruyZoOrJfnPGB8PBnZQwE0GzEc3GOboc3Ql5sCV7IvZ12kuH4NaVlotOlEheNjyEi32BN92b1t5e6sUhsjVBATmaOiBLHHNVNYry9OK5ccyoUhr_Dvnk6n1Rd7Kq0AGMLEkxY7BbZ0uyObS6dlYnDESTc5W2j-UNBEhT4WDt9xpmU87jFprUR2-wzTMut9UulbPc7pxbRv3sJjaujTIp45THgCJlKCYHRTLhPG9EoF7hUjtNngCM6AmuBMYovlz3gdsVZt63milAnLt5cqPMjNJuqqrAxen89mNVlAUY9dZ2IBPB4i8lRRZx_psUmNlYNt1DbDy40oz-fqz1PR2DA71NFBOULiU6DY90zkAnF4RkBW-Ih319RP70gvN4FyuevFFfv_Fhi7PyWYXA1e5rACu-y_N7u-lpg_V7V-xWrcnQVtfySVwPEVdbsSqTSzW2Nr4ArpLK5bOC0E5SWyvzqiTb92ZEMs7Mfk-RLZL7LbbyllTc0CynrcJqmjnjoTqeYhVP0mSt2JG-ITjWQxYLjzSKL3OQv9IijxCSe5XPKROH91vfecH6lGaUAxN0ktkjEySGKXo701RxgKAImN8IvQPM9hnMRXS1wndODZE-fMAz8QdMfQgfXuDpFbWFEZQyjr0HfXN6J_KxaF-rr9KBL6FRB6ToVKOyq4eJ5Es94Lkvq4zMkd3F1d1x64Qcp4m_eZ8nvMdcYC3aqw4XwkEvG8chp0zq50ADoDCBZODx1xKBONg3mmqBNUg1fP779O7ibOBgprDmFKz6pF9UPZbt31wE5GfwZN_KnRYq1HDMA54tvUrmTr7G_AUeQLaeAt5i8iP_UiAI-9_NYzObSqoBaElk5f3Rn2Re_mTaq4DDIEESurHjLYCZtSD3Mlsk2liUc6KZt3G6I8lOA4Qng85BakuDJ_PbBaQmYmpqJ0_fesBU2Z9CdrdBy1VFa8mgI-OYGPwyGA2TYQ57aZskcTD7pzo0KsTI7o6uCL1jzQx1fK-KEGoQkSCnrMeISfn7rMxv-FNriiscwrivDv4NLC5JuOFhdKd3ymomRFvtpL-poR-bpU5mU3gVESsuOYT42LWpavozb4CTOcD8XHgQyEpGjF4VCEAs2lD9lyLJEC5cp2vRoVV-F-_x8sAjPFWPTzQW_3OD9eaAXn0onDcIy1UoFaTfbWtDEr0QiYeq91GXiSuGkZc3KnrS6C2Iw5rjvYDz-IktWW6jhOH3cpYxjN1r0_HI9rIeTp57i5NucsNr_L6tc3RDDDt3kxUObnGCSav9nYumAZwj16ya1nQQ3Fpk8r4TruQWBx37jI_ZSmgUp9swjIdDDoimr_lr_7xvozWVJV2OTzZLqWbm-aPSMjXJiliJqx7Qpz5m00?></g></svg>