<?plantuml 1.2026.1?><svg xmlns="http://www.w3.org/2000/svg" xmlns:xlink="http://www.w3.org/1999/xlink" contentStyleType="text/css" data-diagram-type="ACTIVITY" height="1371px" preserveAspectRatio="none" style="width:666px;height:1371px;background:#FCFCFD;" version="1.1" viewBox="0 0 666 1371" width="666px" zoomAndPan="magnify"><title>Activity - licensemanager/LicenseManagerConfiguration</title><defs/><g><rect fill="#FCFCFD" height="1371" style="stroke:none;stroke-width:1;" width="666" x="0" y="0"/><g class="title" data-source-line="10"><text fill="#000000" font-family="Helvetica" font-size="14" font-weight="bold" lengthAdjust="spacing" textLength="374.2061" x="144.531" y="30.7803">Activity - licensemanager/LicenseManagerConfiguration</text></g><ellipse cx="283.228" cy="55" fill="#1D4ED8" rx="10" ry="10" style="stroke:#222222;stroke-width:1;"/><rect fill="#F8FAFC" height="48" rx="8" ry="8" style="stroke:#0F172A;stroke-width:0.5;" width="304.7852" x="130.8354" y="85"/><text fill="#0F172A" font-family="Helvetica" font-size="14" lengthAdjust="spacing" textLength="136.9375" x="140.8354" y="105.7803">Start from shared flow</text><text fill="#0F172A" font-family="Helvetica" font-size="14" lengthAdjust="spacing" textLength="284.7852" x="140.8354" y="119.7803">shared/diagrams/shared-reconcile-activity.svg</text><rect fill="#F8FAFC" height="48" rx="8" ry="8" style="stroke:#0F172A;stroke-width:0.5;" width="325.0879" x="120.6841" y="153"/><text fill="#0F172A" font-family="Helvetica" font-size="14" lengthAdjust="spacing" textLength="305.0879" x="130.6841" y="173.7803">Load desired LicenseManagerConfiguration spec</text><text fill="#0F172A" font-family="Helvetica" font-size="14" lengthAdjust="spacing" textLength="171.9854" x="130.6841" y="187.7803">and status from Kubernetes</text><rect fill="#F8FAFC" height="62" rx="8" ry="8" style="stroke:#0F172A;stroke-width:0.5;" width="279.9297" x="143.2632" y="221"/><text fill="#0F172A" font-family="Helvetica" font-size="14" lengthAdjust="spacing" textLength="135.3857" x="153.2632" y="241.7803">Resolve OCI state via</text><text fill="#0F172A" font-family="Helvetica" font-size="14" lengthAdjust="spacing" textLength="238.1367" x="153.2632" y="255.7803">GetLicenseManagerConfiguration with</text><text fill="#0F172A" font-family="Helvetica" font-size="14" lengthAdjust="spacing" textLength="259.9297" x="153.2632" y="269.7803">ListLicenseManagerConfiguration fallback</text><rect fill="#F8FAFC" height="76" rx="8" ry="8" style="stroke:#0F172A;stroke-width:0.5;" width="361.6533" x="102.4014" y="303"/><text fill="#0F172A" font-family="Helvetica" font-size="14" lengthAdjust="spacing" textLength="24.8965" x="112.4014" y="323.7803">Use</text><text fill="#0F172A" font-family="Helvetica" font-size="14" lengthAdjust="spacing" textLength="341.6533" x="112.4014" y="337.7803">scaffold_licensemanager_licensemanagerconfiguration</text><text fill="#0F172A" font-family="Helvetica" font-size="14" lengthAdjust="spacing" textLength="297.2402" x="112.4014" y="351.7803">filters compartment_id, state when OCID lookup</text><text fill="#0F172A" font-family="Helvetica" font-size="14" lengthAdjust="spacing" textLength="259.9023" x="112.4014" y="365.7803">or bind-versus-create needs list resolution</text><polygon fill="#E2E8F0" points="229.5386,399,336.9175,399,348.9175,411,336.9175,423,229.5386,423,217.5386,411,229.5386,399" style="stroke:#1D4ED8;stroke-width:0.5;"/><text fill="#0F172A" font-family="Helvetica" font-size="14" lengthAdjust="spacing" textLength="107.3789" x="229.5386" y="414.7803">Resource exists?</text><text fill="#000000" font-family="Helvetica" font-size="14" lengthAdjust="spacing" textLength="21.7861" x="195.7524" y="407.7803">yes</text><text fill="#000000" font-family="Helvetica" font-size="14" lengthAdjust="spacing" textLength="15.5723" x="348.9175" y="407.7803">no</text><rect fill="#F8FAFC" height="48" rx="8" ry="8" style="stroke:#0F172A;stroke-width:0.5;" width="251.9297" x="18.3862" y="433"/><text fill="#0F172A" font-family="Helvetica" font-size="14" lengthAdjust="spacing" textLength="108.1787" x="28.3862" y="453.7803">Update path calls</text><text fill="#0F172A" font-family="Helvetica" font-size="14" lengthAdjust="spacing" textLength="231.9297" x="28.3862" y="467.7803">UpdateLicenseManagerConfiguration</text><rect fill="#F8FAFC" height="48" rx="8" ry="8" style="stroke:#0F172A;stroke-width:0.5;" width="266.7021" x="11" y="501"/><text fill="#0F172A" font-family="Helvetica" font-size="14" lengthAdjust="spacing" textLength="246.7021" x="21" y="521.7803">Guard mutable fields display_name and</text><text fill="#0F172A" font-family="Helvetica" font-size="14" lengthAdjust="spacing" textLength="202.3096" x="21" y="535.7803">force-new fields compartment_id</text><rect fill="#F8FAFC" height="48" rx="8" ry="8" style="stroke:#0F172A;stroke-width:0.5;" width="248.8057" x="297.7021" y="433"/><text fill="#0F172A" font-family="Helvetica" font-size="14" lengthAdjust="spacing" textLength="105.0547" x="307.7021" y="453.7803">Create path calls</text><text fill="#0F172A" font-family="Helvetica" font-size="14" lengthAdjust="spacing" textLength="228.8057" x="307.7021" y="467.7803">CreateLicenseManagerConfiguration</text><polygon fill="#E2E8F0" points="283.228,555,295.228,567,283.228,579,271.228,567,283.228,555" style="stroke:#1D4ED8;stroke-width:0.5;"/><rect fill="#F8FAFC" height="104" rx="8" ry="8" style="stroke:#0F172A;stroke-width:0.5;" width="334.3164" x="116.0698" y="599"/><text fill="#0F172A" font-family="Helvetica" font-size="14" lengthAdjust="spacing" textLength="164.2061" x="126.0698" y="619.7803">Run provider helper hooks</text><text fill="#0F172A" font-family="Helvetica" font-size="14" lengthAdjust="spacing" textLength="219.0508" x="126.0698" y="633.7803">create=tfresource.CreateResource,</text><text fill="#0F172A" font-family="Helvetica" font-size="14" lengthAdjust="spacing" textLength="314.3164" x="126.0698" y="647.7803">tfresource.WaitForWorkRequestWithErrorHandling</text><text fill="#0F172A" font-family="Helvetica" font-size="14" lengthAdjust="spacing" textLength="215.5439" x="126.0698" y="661.7803">entity=template action=CREATED;</text><text fill="#0F172A" font-family="Helvetica" font-size="14" lengthAdjust="spacing" textLength="226.085" x="126.0698" y="675.7803">update=tfresource.UpdateResource;</text><text fill="#0F172A" font-family="Helvetica" font-size="14" lengthAdjust="spacing" textLength="212.8438" x="126.0698" y="689.7803">delete=tfresource.DeleteResource</text><rect fill="#F8FAFC" height="34" rx="8" ry="8" style="stroke:#0F172A;stroke-width:0.5;" width="263.5918" x="151.4321" y="723"/><text fill="#0F172A" font-family="Helvetica" font-size="14" lengthAdjust="spacing" textLength="243.5918" x="161.4321" y="743.7803">Apply repo-authored secret policy none</text><rect fill="#F8FAFC" height="90" rx="8" ry="8" style="stroke:#0F172A;stroke-width:0.5;" width="322.7295" x="121.8633" y="777"/><text fill="#0F172A" font-family="Helvetica" font-size="14" lengthAdjust="spacing" textLength="105.0684" x="131.8633" y="797.7803">Delete path uses</text><text fill="#0F172A" font-family="Helvetica" font-size="14" lengthAdjust="spacing" textLength="256.04" x="131.8633" y="811.7803">DeleteLicenseManagerConfiguration with</text><text fill="#0F172A" font-family="Helvetica" font-size="14" lengthAdjust="spacing" textLength="302.7295" x="131.8633" y="825.7803">required via GetLicenseManagerConfiguration or</text><text fill="#0F172A" font-family="Helvetica" font-size="14" lengthAdjust="spacing" textLength="292.5986" x="131.8633" y="839.7803">ListLicenseManagerConfiguration to DELETED</text><text fill="#0F172A" font-family="Helvetica" font-size="14" lengthAdjust="spacing" textLength="76.2549" x="131.8633" y="853.7803">confirmation</text><rect fill="#F8FAFC" height="48" rx="8" ry="8" style="stroke:#0F172A;stroke-width:0.5;" width="279.1299" x="143.6631" y="887"/><text fill="#0F172A" font-family="Helvetica" font-size="14" lengthAdjust="spacing" textLength="259.1299" x="153.6631" y="907.7803">Project required status and finalizer policy</text><text fill="#0F172A" font-family="Helvetica" font-size="14" lengthAdjust="spacing" textLength="174.3027" x="153.6631" y="921.7803">retain-until-confirmed-delete</text><rect fill="#F8FAFC" height="34" rx="8" ry="8" style="stroke:#0F172A;stroke-width:0.5;" width="313.4189" x="126.5186" y="955"/><text fill="#0F172A" font-family="Helvetica" font-size="14" lengthAdjust="spacing" textLength="293.4189" x="136.5186" y="975.7803">Requeue on provisioning, updating, terminating</text><path d="M314.228,999 L314.228,1175 L294.228,1179 L314.228,1183 L314.228,1359 A0,0 0 0 0 314.228,1359 L654.2681,1359 A0,0 0 0 0 654.2681,1359 L654.2681,1009 L644.2681,999 L314.228,999 A0,0 0 0 0 314.228,999" fill="#FFF7D6" style="stroke:#B45309;stroke-width:0.5;"/><path d="M644.2681,999 L644.2681,1009 L654.2681,1009 L644.2681,999" fill="#FFF7D6" style="stroke:#B45309;stroke-width:0.5;"/><text fill="#334155" font-family="Helvetica" font-size="14" lengthAdjust="spacing" textLength="101.165" x="320.228" y="1014.7803">shared diagram:</text><text fill="#334155" font-family="Helvetica" font-size="14" lengthAdjust="spacing" textLength="284.7852" x="320.228" y="1028.7803">shared/diagrams/shared-reconcile-activity.svg</text><text fill="#334155" font-family="Helvetica" font-size="14" lengthAdjust="spacing" textLength="265.3438" x="320.228" y="1042.7803">Start from the shared reconcile activity and</text><text fill="#334155" font-family="Helvetica" font-size="14" lengthAdjust="spacing" textLength="273.8955" x="320.228" y="1056.7803">specialize provider-backed CRUD, wait, and</text><text fill="#334155" font-family="Helvetica" font-size="14" lengthAdjust="spacing" textLength="182.875" x="320.228" y="1070.7803">status-projection details here.</text><text fill="#334155" font-family="Helvetica" font-size="14" lengthAdjust="spacing" textLength="229.5371" x="320.228" y="1084.7803">Controller-local activity diagrams add</text><text fill="#334155" font-family="Helvetica" font-size="14" lengthAdjust="spacing" textLength="238.8955" x="320.228" y="1098.7803">list-lookup hints, secret policies, delete</text><text fill="#334155" font-family="Helvetica" font-size="14" lengthAdjust="spacing" textLength="200.0332" x="320.228" y="1112.7803">handling, and open formal gaps.</text><text fill="#334155" font-family="Helvetica" font-size="14" lengthAdjust="spacing" textLength="281.709" x="320.228" y="1126.7803">archetype batch: Generated service-manager</text><text fill="#334155" font-family="Helvetica" font-size="14" lengthAdjust="spacing" textLength="291.0469" x="320.228" y="1140.7803">controllers specialize the shared reconcile path</text><text fill="#334155" font-family="Helvetica" font-size="14" lengthAdjust="spacing" textLength="189.8477" x="320.228" y="1154.7803">with formal runtime ownership.</text><text fill="#334155" font-family="Helvetica" font-size="14" lengthAdjust="spacing" textLength="150.958" x="320.228" y="1168.7803">service: licensemanager</text><text fill="#334155" font-family="Helvetica" font-size="14" lengthAdjust="spacing" textLength="212.4609" x="320.228" y="1182.7803">slug: licensemanagerconfiguration</text><text fill="#334155" font-family="Helvetica" font-size="14" lengthAdjust="spacing" textLength="220.2471" x="320.228" y="1196.7803">kind: LicenseManagerConfiguration</text><text fill="#334155" font-family="Helvetica" font-size="14" lengthAdjust="spacing" textLength="241.2402" x="320.228" y="1210.7803">archetype: generated-service-manager</text><text fill="#334155" font-family="Helvetica" font-size="14" lengthAdjust="spacing" textLength="156.4063" x="320.228" y="1224.7803">status/finalizer: required /</text><text fill="#334155" font-family="Helvetica" font-size="14" lengthAdjust="spacing" textLength="174.3027" x="320.228" y="1238.7803">retain-until-confirmed-delete</text><text fill="#334155" font-family="Helvetica" font-size="14" lengthAdjust="spacing" textLength="272.3984" x="320.228" y="1252.7803">requeue: provisioning, updating, terminating</text><text fill="#334155" font-family="Helvetica" font-size="14" lengthAdjust="spacing" textLength="295.6816" x="320.228" y="1266.7803">provider states: create PROVISIONING; update</text><text fill="#334155" font-family="Helvetica" font-size="14" lengthAdjust="spacing" textLength="192.165" x="320.228" y="1280.7803">UPDATING; delete DELETING</text><text fill="#334155" font-family="Helvetica" font-size="14" lengthAdjust="spacing" textLength="319.04" x="320.228" y="1294.7803">mutable/forceNew: display_name / compartment_id</text><text fill="#334155" font-family="Helvetica" font-size="14" lengthAdjust="spacing" textLength="104.3164" x="320.228" y="1308.7803">open gaps: none</text><text fill="#334155" font-family="Helvetica" font-size="14" lengthAdjust="spacing" textLength="224.9023" x="320.228" y="1322.7803">Scaffold metadata only; replace with</text><text fill="#334155" font-family="Helvetica" font-size="14" lengthAdjust="spacing" textLength="244.3232" x="320.228" y="1336.7803">controller-specific runtime states before</text><text fill="#334155" font-family="Helvetica" font-size="14" lengthAdjust="spacing" textLength="66.1445" x="320.228" y="1350.7803">promotion.</text><ellipse cx="283.228" cy="1179" fill="none" rx="11" ry="11" style="stroke:#222222;stroke-width:1;"/><ellipse cx="283.228" cy="1179" fill="#222222" rx="6" ry="6" style="stroke:#222222;stroke-width:1;"/><line style="stroke:#0F172A;stroke-width:1;" x1="283.228" x2="283.228" y1="65" y2="85"/><polygon fill="#0F172A" points="279.228,75,283.228,85,287.228,75,283.228,79" style="stroke:#0F172A;stroke-width:1;"/><line style="stroke:#0F172A;stroke-width:1;" x1="283.228" x2="283.228" y1="133" y2="153"/><polygon fill="#0F172A" points="279.228,143,283.228,153,287.228,143,283.228,147" style="stroke:#0F172A;stroke-width:1;"/><line style="stroke:#0F172A;stroke-width:1;" x1="283.228" x2="283.228" y1="201" y2="221"/><polygon fill="#0F172A" points="279.228,211,283.228,221,287.228,211,283.228,215" style="stroke:#0F172A;stroke-width:1;"/><line style="stroke:#0F172A;stroke-width:1;" x1="283.228" x2="283.228" y1="283" y2="303"/><polygon fill="#0F172A" points="279.228,293,283.228,303,287.228,293,283.228,297" style="stroke:#0F172A;stroke-width:1;"/><line style="stroke:#0F172A;stroke-width:1;" x1="144.3511" x2="144.3511" y1="481" y2="501"/><polygon fill="#0F172A" points="140.3511,491,144.3511,501,148.3511,491,144.3511,495" style="stroke:#0F172A;stroke-width:1;"/><line style="stroke:#0F172A;stroke-width:1;" x1="217.5386" x2="144.3511" y1="411" y2="411"/><line style="stroke:#0F172A;stroke-width:1;" x1="144.3511" x2="144.3511" y1="411" y2="433"/><polygon fill="#0F172A" points="140.3511,423,144.3511,433,148.3511,423,144.3511,427" style="stroke:#0F172A;stroke-width:1;"/><line style="stroke:#0F172A;stroke-width:1;" x1="348.9175" x2="422.105" y1="411" y2="411"/><line style="stroke:#0F172A;stroke-width:1;" x1="422.105" x2="422.105" y1="411" y2="433"/><polygon fill="#0F172A" points="418.105,423,422.105,433,426.105,423,422.105,427" style="stroke:#0F172A;stroke-width:1;"/><line style="stroke:#0F172A;stroke-width:1;" x1="144.3511" x2="144.3511" y1="549" y2="567"/><line style="stroke:#0F172A;stroke-width:1;" x1="144.3511" x2="271.228" y1="567" y2="567"/><polygon fill="#0F172A" points="261.228,563,271.228,567,261.228,571,265.228,567" style="stroke:#0F172A;stroke-width:1;"/><line style="stroke:#0F172A;stroke-width:1;" x1="422.105" x2="422.105" y1="481" y2="567"/><line style="stroke:#0F172A;stroke-width:1;" x1="422.105" x2="295.228" y1="567" y2="567"/><polygon fill="#0F172A" points="305.228,563,295.228,567,305.228,571,301.228,567" style="stroke:#0F172A;stroke-width:1;"/><line style="stroke:#0F172A;stroke-width:1;" x1="283.228" x2="283.228" y1="379" y2="399"/><polygon fill="#0F172A" points="279.228,389,283.228,399,287.228,389,283.228,393" style="stroke:#0F172A;stroke-width:1;"/><line style="stroke:#0F172A;stroke-width:1;" x1="283.228" x2="283.228" y1="579" y2="599"/><polygon fill="#0F172A" points="279.228,589,283.228,599,287.228,589,283.228,593" style="stroke:#0F172A;stroke-width:1;"/><line style="stroke:#0F172A;stroke-width:1;" x1="283.228" x2="283.228" y1="703" y2="723"/><polygon fill="#0F172A" points="279.228,713,283.228,723,287.228,713,283.228,717" style="stroke:#0F172A;stroke-width:1;"/><line style="stroke:#0F172A;stroke-width:1;" x1="283.228" x2="283.228" y1="757" y2="777"/><polygon fill="#0F172A" points="279.228,767,283.228,777,287.228,767,283.228,771" style="stroke:#0F172A;stroke-width:1;"/><line style="stroke:#0F172A;stroke-width:1;" x1="283.228" x2="283.228" y1="867" y2="887"/><polygon fill="#0F172A" points="279.228,877,283.228,887,287.228,877,283.228,881" style="stroke:#0F172A;stroke-width:1;"/><line style="stroke:#0F172A;stroke-width:1;" x1="283.228" x2="283.228" y1="935" y2="955"/><polygon fill="#0F172A" points="279.228,945,283.228,955,287.228,945,283.228,949" style="stroke:#0F172A;stroke-width:1;"/><line style="stroke:#0F172A;stroke-width:1;" x1="283.228" x2="283.228" y1="989" y2="1168"/><polygon fill="#0F172A" points="279.228,1158,283.228,1168,287.228,1158,283.228,1162" style="stroke:#0F172A;stroke-width:1;"/><?plantuml-src bLRVJoCt47xtNp5INpWfcy01TtGZLD64ur0f83ZAIoJah6UpBbvxQtkJfbN_zuxNcsIJGw5L7XBRu_dnpJUVurwbhhZb9RY22xEGUWOvLmwPMvzCUVOwiwRMOcIKiV13dj57T2m4vhnM_elH_fQN25zHpT7BZBzjyoZ_GZWwwHnoQysYzNwO7tt-sBsfZSUVlyiXpp-BJxjMnWgqhSNqvFJuyCSTYn2-FJy-FZawFUsSD-upOpLQEFh4lFGAuIBpSYxz4X9GCaFjiEIQpz0ERkBorxWS6PtBMMsvbqPtArlT_vl16qYUvJpFmaatynO1W7oJxNfFI5uQBRu313_YMNxOCUXwF18dACusXr_USEmyjtxN7jV-rtPJlkFr7zPSPUbZ-8BScePD5WNaoYmcEYu657j6aBX1N2SMCwCpgJ1PWTHtyzcGfJU62-ABay757fZ1LPXDDDSY9Ezh5sF_Ka-HckZHaQy7T8R827UZwyO8OIxvH5-Xt-Tu8NqnqJVIxRMYGL6XfHJcoI7LcV4yDqgyR3DbPvbrVKpej_9e7MIc9CRu4hL_aQBN9hieK8VSnw2CUQshYIRWfrABP4wNQfTa5eETHXIE6Eeys51n7PmFcSpX821Gsmm1_wHZzzC7yC7fmHBT1qgy4k5-nNq16TNZ9ZfkxIcSwhsgkHLGrfvFQKXoYOh22-agnPSlEcW0TOMACnGuqRXOcMnNEMH8KWC7sb0cerX9DvEujJSJ8gZCgSsrXigQkIJEGu6g2b-463c929txtBP0zAFR5IwzYUwSFND96cMVZNrzm3zgTFwPk719-cI_KacA17AYANjYwxd7akgbd0D_ZJuVFLnUVBiS3oUwRY3ineoWhcAIYK25soRZPcTjmjABgb9BwcTb4bxxmeHnS4ZrUAWCaMf9agQ3ORmPeQiTKj5nvtsAMwgn6JEQ2dXdA8nzVoIyWV7bpIMXGC274rkkA7DlpU-O1Nws8TkP3UERIyqLlGgsBImavhdKIKr8gwJrH9eHKMlccffJ8vYsxuw2K6zwq43V_AAnAiblM0n9eap5mWi0LiuAprg1QZKfPVzBerX7wMYOLcgtDjweFXN7Wah9fhmrHPCW6tHZzF0qxi62EDUBfWqaIHMX2e2AW8Don6cBVKPWUskK8W_Aq91i0gqI1ou42pgGHC60GchlUbkyaKWR4KbMjAHkueEfI1beQ4joFUELwpDkimBziaBIVPyLAP64taUYSg2YdHCLabRNMBPEpa6dvZS12bHbWOAhQ3PqccJ3BCYzAsJLPwt_TEVXPKxLiztDBL5bzFgATD_BiIahXTcge6IteDYDmPgSwOQx0xQNeCn6UgR_XPniBLoDvhiKMb6_VxZxxVhn-kxs-lPg6EyYUxeVNtnhDcAeE6-qmLer7ZIYUukBT5kG1plYovfcXowdZOwmn_RvWf9AerYSXaijXq605AVt8xIhq-IawN4kitNlOlemHSe0GrMb2M3tWqWt_xx-1G00?></g></svg>