<?plantuml 1.2026.1?><svg xmlns="http://www.w3.org/2000/svg" xmlns:xlink="http://www.w3.org/1999/xlink" contentStyleType="text/css" data-diagram-type="ACTIVITY" height="2294px" preserveAspectRatio="none" style="width:1288px;height:2294px;background:#FCFCFD;" version="1.1" viewBox="0 0 1288 2294" width="1288px" zoomAndPan="magnify"><title>Activity - operatoraccesscontrol/OperatorAccessControlAccessRequestHistory</title><defs/><g><rect fill="#FCFCFD" height="2294" style="stroke:none;stroke-width:1;" width="1288" x="0" y="0"/><g class="title" data-source-line="10"><text fill="#000000" font-family="Helvetica" font-size="14" font-weight="bold" lengthAdjust="spacing" textLength="528.2881" x="378.8369" y="30.7803">Activity - operatoraccesscontrol/OperatorAccessControlAccessRequestHistory</text></g><ellipse cx="679.2915" cy="55" fill="#1D4ED8" rx="10" ry="10" style="stroke:#222222;stroke-width:1;"/><rect fill="none" height="472" rx="8" ry="8" style="stroke:#000000;stroke-width:1.5;" width="737.2461" x="315.5322" y="75"/><path d="M437.6006,75 L437.6006,82 L427.6006,92 L315.5322,92" fill="none" style="stroke:#000000;stroke-width:1.5;"/><text fill="#000000" font-family="Helvetica" font-size="14" lengthAdjust="spacing" textLength="112.0684" x="318.5322" y="86.7803">Observe and Bind</text><rect fill="#F8FAFC" height="48" rx="8" ry="8" style="stroke:#0F172A;stroke-width:0.5;" width="304.7852" x="526.8989" y="109"/><text fill="#0F172A" font-family="Helvetica" font-size="14" lengthAdjust="spacing" textLength="136.9375" x="536.8989" y="129.7803">Start from shared flow</text><text fill="#0F172A" font-family="Helvetica" font-size="14" lengthAdjust="spacing" textLength="284.7852" x="536.8989" y="143.7803">shared/diagrams/shared-reconcile-activity.svg</text><rect fill="#F8FAFC" height="62" rx="8" ry="8" style="stroke:#0F172A;stroke-width:0.5;" width="306.3301" x="526.1265" y="177"/><text fill="#0F172A" font-family="Helvetica" font-size="14" lengthAdjust="spacing" textLength="83.2754" x="536.1265" y="197.7803">Read desired</text><text fill="#0F172A" font-family="Helvetica" font-size="14" lengthAdjust="spacing" textLength="286.3301" x="536.1265" y="211.7803">OperatorAccessControlAccessRequestHistory</text><text fill="#0F172A" font-family="Helvetica" font-size="14" lengthAdjust="spacing" textLength="235.8125" x="536.1265" y="225.7803">spec, tracked status, and delete intent</text><polygon fill="#E2E8F0" points="549.8257,259,808.7573,259,820.7573,271,808.7573,283,549.8257,283,537.8257,271,549.8257,259" style="stroke:#1D4ED8;stroke-width:0.5;"/><text fill="#0F172A" font-family="Helvetica" font-size="14" lengthAdjust="spacing" textLength="258.9316" x="549.8257" y="274.7803">"Tracked or explicit OCI identity present?"</text><text fill="#000000" font-family="Helvetica" font-size="14" lengthAdjust="spacing" textLength="21.7861" x="516.0396" y="267.7803">yes</text><text fill="#000000" font-family="Helvetica" font-size="14" lengthAdjust="spacing" textLength="15.5723" x="820.7573" y="267.7803">no</text><rect fill="#F8FAFC" height="48" rx="8" ry="8" style="stroke:#0F172A;stroke-width:0.5;" width="328.8955" x="335.5322" y="293"/><text fill="#0F172A" font-family="Helvetica" font-size="14" lengthAdjust="spacing" textLength="202.3027" x="345.5322" y="313.7803">Get the current OCI resource via</text><text fill="#0F172A" font-family="Helvetica" font-size="14" lengthAdjust="spacing" textLength="308.8955" x="345.5322" y="327.7803">GetOperatorAccessControlAccessRequestHistory</text><rect fill="#F8FAFC" height="62" rx="8" ry="8" style="stroke:#0F172A;stroke-width:0.5;" width="328.1162" x="694.5449" y="293"/><text fill="#0F172A" font-family="Helvetica" font-size="14" lengthAdjust="spacing" textLength="259.9092" x="704.5449" y="313.7803">Resolve an existing OCI resource through</text><text fill="#0F172A" font-family="Helvetica" font-size="14" lengthAdjust="spacing" textLength="308.1162" x="704.5449" y="327.7803">ListOperatorAccessControlAccessRequestHistory</text><text fill="#0F172A" font-family="Helvetica" font-size="14" lengthAdjust="spacing" textLength="213.2061" x="704.5449" y="341.7803">using filters compartment_id, state</text><rect fill="#F8FAFC" height="62" rx="8" ry="8" style="stroke:#0F172A;stroke-width:0.5;" width="348.3506" x="684.4277" y="375"/><text fill="#0F172A" font-family="Helvetica" font-size="14" lengthAdjust="spacing" textLength="174.2959" x="694.4277" y="395.7803">Create the OCI resource via</text><text fill="#0F172A" font-family="Helvetica" font-size="14" lengthAdjust="spacing" textLength="328.3506" x="694.4277" y="409.7803">CreateOperatorAccessControlAccessRequestHistory</text><text fill="#0F172A" font-family="Helvetica" font-size="14" lengthAdjust="spacing" textLength="205.4609" x="694.4277" y="423.7803">when no reusable match is found</text><rect fill="#F8FAFC" height="48" rx="8" ry="8" style="stroke:#0F172A;stroke-width:0.5;" width="286.8955" x="715.1553" y="457"/><text fill="#0F172A" font-family="Helvetica" font-size="14" lengthAdjust="spacing" textLength="266.8955" x="725.1553" y="477.7803">Persist the resolved or created OCI identity</text><text fill="#0F172A" font-family="Helvetica" font-size="14" lengthAdjust="spacing" textLength="63.8135" x="725.1553" y="491.7803">into status</text><polygon fill="#E2E8F0" points="679.2915,511,691.2915,523,679.2915,535,667.2915,523,679.2915,511" style="stroke:#1D4ED8;stroke-width:0.5;"/><polygon fill="#E2E8F0" points="617.1152,567,741.4678,567,753.4678,579,741.4678,591,617.1152,591,605.1152,579,617.1152,567" style="stroke:#1D4ED8;stroke-width:0.5;"/><text fill="#0F172A" font-family="Helvetica" font-size="14" lengthAdjust="spacing" textLength="124.3525" x="617.1152" y="582.7803">"Delete requested?"</text><text fill="#000000" font-family="Helvetica" font-size="14" lengthAdjust="spacing" textLength="21.7861" x="583.3291" y="575.7803">yes</text><text fill="#000000" font-family="Helvetica" font-size="14" lengthAdjust="spacing" textLength="15.5723" x="753.4678" y="575.7803">no</text><rect fill="none" height="444" rx="8" ry="8" style="stroke:#000000;stroke-width:1.5;" width="644.4814" x="11" y="601"/><path d="M61.4688,601 L61.4688,608 L51.4688,618 L11,618" fill="none" style="stroke:#000000;stroke-width:1.5;"/><text fill="#000000" font-family="Helvetica" font-size="14" lengthAdjust="spacing" textLength="40.4688" x="14" y="612.7803">Delete</text><rect fill="#F8FAFC" height="118" rx="8" ry="8" style="stroke:#0F172A;stroke-width:0.5;" width="346.7988" x="166.3447" y="635"/><text fill="#0F172A" font-family="Helvetica" font-size="14" lengthAdjust="spacing" textLength="105.0684" x="176.3447" y="655.7803">Delete path uses</text><text fill="#0F172A" font-family="Helvetica" font-size="14" lengthAdjust="spacing" textLength="326.7988" x="176.3447" y="669.7803">DeleteOperatorAccessControlAccessRequestHistory</text><text fill="#0F172A" font-family="Helvetica" font-size="14" lengthAdjust="spacing" textLength="101.9375" x="176.3447" y="683.7803">with required via</text><text fill="#0F172A" font-family="Helvetica" font-size="14" lengthAdjust="spacing" textLength="308.8955" x="176.3447" y="697.7803">GetOperatorAccessControlAccessRequestHistory</text><text fill="#0F172A" font-family="Helvetica" font-size="14" lengthAdjust="spacing" textLength="12.4482" x="176.3447" y="711.7803">or</text><text fill="#0F172A" font-family="Helvetica" font-size="14" lengthAdjust="spacing" textLength="308.1162" x="176.3447" y="725.7803">ListOperatorAccessControlAccessRequestHistory</text><text fill="#0F172A" font-family="Helvetica" font-size="14" lengthAdjust="spacing" textLength="160.2822" x="176.3447" y="739.7803">to DELETED confirmation</text><rect fill="#F8FAFC" height="90" rx="8" ry="8" style="stroke:#0F172A;stroke-width:0.5;" width="328.8955" x="175.2964" y="788"/><text fill="#0F172A" font-family="Helvetica" font-size="14" lengthAdjust="spacing" textLength="123.7236" x="185.2964" y="808.7803">Confirm deletion via</text><text fill="#0F172A" font-family="Helvetica" font-size="14" lengthAdjust="spacing" textLength="308.8955" x="185.2964" y="822.7803">GetOperatorAccessControlAccessRequestHistory</text><text fill="#0F172A" font-family="Helvetica" font-size="14" lengthAdjust="spacing" textLength="12.4482" x="185.2964" y="836.7803">or</text><text fill="#0F172A" font-family="Helvetica" font-size="14" lengthAdjust="spacing" textLength="308.1162" x="185.2964" y="850.7803">ListOperatorAccessControlAccessRequestHistory</text><text fill="#0F172A" font-family="Helvetica" font-size="14" lengthAdjust="spacing" textLength="176.6201" x="185.2964" y="864.7803">until OCI reaches DELETED</text><polygon fill="#E2E8F0" points="191.5718,913,487.9165,913,499.9165,925,487.9165,937,191.5718,937,179.5718,925,191.5718,913" style="stroke:#1D4ED8;stroke-width:0.5;"/><text fill="#0F172A" font-family="Helvetica" font-size="14" lengthAdjust="spacing" textLength="296.3447" x="191.5718" y="928.7803">"Delete cleanup and finalizer release succeed?"</text><text fill="#000000" font-family="Helvetica" font-size="14" lengthAdjust="spacing" textLength="21.7861" x="157.7856" y="921.7803">yes</text><text fill="#000000" font-family="Helvetica" font-size="14" lengthAdjust="spacing" textLength="15.5723" x="499.9165" y="921.7803">no</text><rect fill="#F8FAFC" height="34" rx="8" ry="8" style="stroke:#0F172A;stroke-width:0.5;" width="293.1436" x="23" y="947"/><text fill="#0F172A" font-family="Helvetica" font-size="14" lengthAdjust="spacing" textLength="273.1436" x="33" y="967.7803">Remove the finalizer after delete completion</text><rect fill="#F8FAFC" height="48" rx="8" ry="8" style="stroke:#0F172A;stroke-width:0.5;" width="251.1299" x="384.3516" y="947"/><text fill="#0F172A" font-family="Helvetica" font-size="14" lengthAdjust="spacing" textLength="231.1299" x="394.3516" y="967.7803">Stay blocked until cleanup or finalizer</text><text fill="#0F172A" font-family="Helvetica" font-size="14" lengthAdjust="spacing" textLength="108.9512" x="394.3516" y="981.7803">release succeeds</text><polygon fill="#E2E8F0" points="339.7441,1001,351.7441,1013,339.7441,1025,327.7441,1013,339.7441,1001" style="stroke:#1D4ED8;stroke-width:0.5;"/><ellipse cx="339.7441" cy="1088" fill="none" rx="11" ry="11" style="stroke:#222222;stroke-width:1;"/><ellipse cx="339.7441" cy="1088" fill="#222222" rx="6" ry="6" style="stroke:#222222;stroke-width:1;"/><rect fill="none" height="456" rx="8" ry="8" style="stroke:#000000;stroke-width:1.5;" width="345.916" x="851.8809" y="601"/><path d="M1002.7148,601 L1002.7148,608 L992.7148,618 L851.8809,618" fill="none" style="stroke:#000000;stroke-width:1.5;"/><text fill="#000000" font-family="Helvetica" font-size="14" lengthAdjust="spacing" textLength="140.834" x="854.8809" y="612.7803">Lifecycle Classification</text><rect fill="#F8FAFC" height="48" rx="8" ry="8" style="stroke:#0F172A;stroke-width:0.5;" width="280.5928" x="878.5425" y="684"/><text fill="#0F172A" font-family="Helvetica" font-size="14" lengthAdjust="spacing" textLength="240.4541" x="888.5425" y="704.7803">Request requeue while OCI remains in</text><text fill="#0F172A" font-family="Helvetica" font-size="14" lengthAdjust="spacing" textLength="260.5928" x="888.5425" y="718.7803">PROVISIONING, UPDATING, DELETING</text><ellipse cx="1018.8389" cy="778" fill="none" rx="11" ry="11" style="stroke:#222222;stroke-width:1;"/><ellipse cx="1018.8389" cy="778" fill="#222222" rx="6" ry="6" style="stroke:#222222;stroke-width:1;"/><polygon fill="#E2E8F0" points="932.5557,635,1105.1221,635,1117.1221,647,1105.1221,659,932.5557,659,920.5557,647,932.5557,635" style="stroke:#1D4ED8;stroke-width:0.5;"/><text fill="#000000" font-family="Helvetica" font-size="14" lengthAdjust="spacing" textLength="21.7861" x="1022.8389" y="669.7803">yes</text><text fill="#0F172A" font-family="Helvetica" font-size="14" lengthAdjust="spacing" textLength="172.5664" x="932.5557" y="650.7803">"OCI state in retryable set?"</text><rect fill="#F8FAFC" height="48" rx="8" ry="8" style="stroke:#0F172A;stroke-width:0.5;" width="293.916" x="871.8809" y="904"/><text fill="#0F172A" font-family="Helvetica" font-size="14" lengthAdjust="spacing" textLength="273.916" x="881.8809" y="924.7803">Return an unsuccessful reconcile result until</text><text fill="#0F172A" font-family="Helvetica" font-size="14" lengthAdjust="spacing" textLength="133.041" x="881.8809" y="938.7803">OCI reaches ACTIVE</text><ellipse cx="1018.8389" cy="998" fill="none" rx="11" ry="11" style="stroke:#222222;stroke-width:1;"/><ellipse cx="1018.8389" cy="998" fill="#222222" rx="6" ry="6" style="stroke:#222222;stroke-width:1;"/><polygon fill="#E2E8F0" points="898.3179,855,1139.3599,855,1151.3599,867,1139.3599,879,898.3179,879,886.3179,867,898.3179,855" style="stroke:#1D4ED8;stroke-width:0.5;"/><text fill="#000000" font-family="Helvetica" font-size="14" lengthAdjust="spacing" textLength="21.7861" x="1022.8389" y="889.7803">yes</text><text fill="#0F172A" font-family="Helvetica" font-size="14" lengthAdjust="spacing" textLength="241.042" x="898.3179" y="870.7803">"OCI state is outside success targets?"</text><rect fill="none" height="736.5" rx="8" ry="8" style="stroke:#000000;stroke-width:1.5;" width="602.4805" x="675.4814" y="1092"/><path d="M841.9014,1092 L841.9014,1099 L831.9014,1109 L675.4814,1109" fill="none" style="stroke:#000000;stroke-width:1.5;"/><text fill="#000000" font-family="Helvetica" font-size="14" lengthAdjust="spacing" textLength="156.4199" x="678.4814" y="1103.7803">Ready and Drift Handling</text><rect fill="#F8FAFC" height="48" rx="8" ry="8" style="stroke:#0F172A;stroke-width:0.5;" width="296.2402" x="870.7188" y="1126"/><text fill="#0F172A" font-family="Helvetica" font-size="14" lengthAdjust="spacing" textLength="276.2402" x="880.7188" y="1146.7803">Compare live OCI state against the imported</text><text fill="#0F172A" font-family="Helvetica" font-size="14" lengthAdjust="spacing" textLength="75.4824" x="880.7188" y="1160.7803">field surface</text><rect fill="#F8FAFC" height="48" rx="8" ry="8" style="stroke:#0F172A;stroke-width:0.5;" width="302.4473" x="867.6152" y="1243"/><text fill="#0F172A" font-family="Helvetica" font-size="14" lengthAdjust="spacing" textLength="282.4473" x="877.6152" y="1263.7803">Reject drift before OCI mutation for force-new</text><text fill="#0F172A" font-family="Helvetica" font-size="14" lengthAdjust="spacing" textLength="136.9512" x="877.6152" y="1277.7803">fields compartment_id</text><ellipse cx="1018.8389" cy="1323.5" fill="none" rx="11" ry="11" style="stroke:#222222;stroke-width:1;"/><ellipse cx="1018.8389" cy="1323.5" fill="#222222" rx="6" ry="6" style="stroke:#222222;stroke-width:1;"/><polygon fill="#E2E8F0" points="893.2559,1194,1144.4219,1194,1156.4219,1206,1144.4219,1218,893.2559,1218,881.2559,1206,893.2559,1194" style="stroke:#1D4ED8;stroke-width:0.5;"/><text fill="#000000" font-family="Helvetica" font-size="14" lengthAdjust="spacing" textLength="21.7861" x="1022.8389" y="1228.7803">yes</text><text fill="#0F172A" font-family="Helvetica" font-size="14" lengthAdjust="spacing" textLength="251.166" x="893.2559" y="1209.7803">"Force-new or conflicting drift detected?"</text><polygon fill="#E2E8F0" points="908.4111,1376.5,1129.2666,1376.5,1141.2666,1388.5,1129.2666,1400.5,908.4111,1400.5,896.4111,1388.5,908.4111,1376.5" style="stroke:#1D4ED8;stroke-width:0.5;"/><text fill="#0F172A" font-family="Helvetica" font-size="14" lengthAdjust="spacing" textLength="220.8555" x="908.4111" y="1392.2803">"Supported mutable drift detected?"</text><text fill="#000000" font-family="Helvetica" font-size="14" lengthAdjust="spacing" textLength="21.7861" x="874.625" y="1385.2803">yes</text><text fill="#000000" font-family="Helvetica" font-size="14" lengthAdjust="spacing" textLength="15.5723" x="1141.2666" y="1385.2803">no</text><rect fill="#F8FAFC" height="62" rx="8" ry="8" style="stroke:#0F172A;stroke-width:0.5;" width="351.4746" x="695.4814" y="1410.5"/><text fill="#0F172A" font-family="Helvetica" font-size="14" lengthAdjust="spacing" textLength="35.0205" x="705.4814" y="1431.2803">Apply</text><text fill="#0F172A" font-family="Helvetica" font-size="14" lengthAdjust="spacing" textLength="331.4746" x="705.4814" y="1445.2803">UpdateOperatorAccessControlAccessRequestHistory</text><text fill="#0F172A" font-family="Helvetica" font-size="14" lengthAdjust="spacing" textLength="226.4541" x="705.4814" y="1459.2803">only for mutable fields display_name</text><rect fill="#F8FAFC" height="34" rx="8" ry="8" style="stroke:#0F172A;stroke-width:0.5;" width="199.0059" x="1066.9561" y="1410.5"/><text fill="#0F172A" font-family="Helvetica" font-size="14" lengthAdjust="spacing" textLength="179.0059" x="1076.9561" y="1431.2803">Skip the no-op mutation path</text><polygon fill="#E2E8F0" points="1018.8389,1478.5,1030.8389,1490.5,1018.8389,1502.5,1006.8389,1490.5,1018.8389,1478.5" style="stroke:#1D4ED8;stroke-width:0.5;"/><rect fill="#F8FAFC" height="118" rx="8" ry="8" style="stroke:#0F172A;stroke-width:0.5;" width="334.3164" x="851.6807" y="1522.5"/><text fill="#0F172A" font-family="Helvetica" font-size="14" lengthAdjust="spacing" textLength="164.2061" x="861.6807" y="1543.2803">Run provider helper hooks</text><text fill="#0F172A" font-family="Helvetica" font-size="14" lengthAdjust="spacing" textLength="219.0508" x="861.6807" y="1557.2803">create=tfresource.CreateResource,</text><text fill="#0F172A" font-family="Helvetica" font-size="14" lengthAdjust="spacing" textLength="314.3164" x="861.6807" y="1571.2803">tfresource.WaitForWorkRequestWithErrorHandling</text><text fill="#0F172A" font-family="Helvetica" font-size="14" lengthAdjust="spacing" textLength="215.5439" x="861.6807" y="1585.2803">entity=template action=CREATED;</text><text fill="#0F172A" font-family="Helvetica" font-size="14" lengthAdjust="spacing" textLength="226.085" x="861.6807" y="1599.2803">update=tfresource.UpdateResource;</text><text fill="#0F172A" font-family="Helvetica" font-size="14" lengthAdjust="spacing" textLength="273.5537" x="861.6807" y="1613.2803">delete=tfresource.DeleteResource when the</text><text fill="#0F172A" font-family="Helvetica" font-size="14" lengthAdjust="spacing" textLength="220.2334" x="861.6807" y="1627.2803">matching field-driven path executes</text><rect fill="#F8FAFC" height="34" rx="8" ry="8" style="stroke:#0F172A;stroke-width:0.5;" width="303.2197" x="867.229" y="1660.5"/><text fill="#0F172A" font-family="Helvetica" font-size="14" lengthAdjust="spacing" textLength="283.2197" x="877.229" y="1681.2803">Return success for the ACTIVE success state</text><rect fill="#F8FAFC" height="48" rx="8" ry="8" style="stroke:#0F172A;stroke-width:0.5;" width="279.1299" x="879.2739" y="1714.5"/><text fill="#0F172A" font-family="Helvetica" font-size="14" lengthAdjust="spacing" textLength="259.1299" x="889.2739" y="1735.2803">Project required status and finalizer policy</text><text fill="#0F172A" font-family="Helvetica" font-size="14" lengthAdjust="spacing" textLength="174.3027" x="889.2739" y="1749.2803">retain-until-confirmed-delete</text><rect fill="#F8FAFC" height="34" rx="8" ry="8" style="stroke:#0F172A;stroke-width:0.5;" width="313.4189" x="862.1294" y="1782.5"/><text fill="#0F172A" font-family="Helvetica" font-size="14" lengthAdjust="spacing" textLength="293.4189" x="872.1294" y="1803.2803">Requeue on provisioning, updating, terminating</text><path d="M710.2915,1838.5 L710.2915,2056.5 L690.2915,2060.5 L710.2915,2064.5 L710.2915,2282.5 A0,0 0 0 0 710.2915,2282.5 L1202.0894,2282.5 A0,0 0 0 0 1202.0894,2282.5 L1202.0894,1848.5 L1192.0894,1838.5 L710.2915,1838.5 A0,0 0 0 0 710.2915,1838.5" fill="#FFF7D6" style="stroke:#B45309;stroke-width:0.5;"/><path d="M1192.0894,1838.5 L1192.0894,1848.5 L1202.0894,1848.5 L1192.0894,1838.5" fill="#FFF7D6" style="stroke:#B45309;stroke-width:0.5;"/><text fill="#334155" font-family="Helvetica" font-size="14" lengthAdjust="spacing" textLength="101.165" x="716.2915" y="1854.2803">shared diagram:</text><text fill="#334155" font-family="Helvetica" font-size="14" lengthAdjust="spacing" textLength="284.7852" x="716.2915" y="1868.2803">shared/diagrams/shared-reconcile-activity.svg</text><text fill="#334155" font-family="Helvetica" font-size="14" lengthAdjust="spacing" textLength="265.3438" x="716.2915" y="1882.2803">Start from the shared reconcile activity and</text><text fill="#334155" font-family="Helvetica" font-size="14" lengthAdjust="spacing" textLength="273.8955" x="716.2915" y="1896.2803">specialize provider-backed CRUD, wait, and</text><text fill="#334155" font-family="Helvetica" font-size="14" lengthAdjust="spacing" textLength="182.875" x="716.2915" y="1910.2803">status-projection details here.</text><text fill="#334155" font-family="Helvetica" font-size="14" lengthAdjust="spacing" textLength="229.5371" x="716.2915" y="1924.2803">Controller-local activity diagrams add</text><text fill="#334155" font-family="Helvetica" font-size="14" lengthAdjust="spacing" textLength="238.8955" x="716.2915" y="1938.2803">list-lookup hints, secret policies, delete</text><text fill="#334155" font-family="Helvetica" font-size="14" lengthAdjust="spacing" textLength="200.0332" x="716.2915" y="1952.2803">handling, and open formal gaps.</text><text fill="#334155" font-family="Helvetica" font-size="14" lengthAdjust="spacing" textLength="281.709" x="716.2915" y="1966.2803">archetype batch: Generated service-manager</text><text fill="#334155" font-family="Helvetica" font-size="14" lengthAdjust="spacing" textLength="291.0469" x="716.2915" y="1980.2803">controllers specialize the shared reconcile path</text><text fill="#334155" font-family="Helvetica" font-size="14" lengthAdjust="spacing" textLength="189.8477" x="716.2915" y="1994.2803">with formal runtime ownership.</text><text fill="#334155" font-family="Helvetica" font-size="14" lengthAdjust="spacing" textLength="189.8613" x="716.2915" y="2008.2803">service: operatoraccesscontrol</text><text fill="#334155" font-family="Helvetica" font-size="14" lengthAdjust="spacing" textLength="302.7021" x="716.2915" y="2022.2803">slug: operatoraccesscontrolaccessrequesthistory</text><text fill="#334155" font-family="Helvetica" font-size="14" lengthAdjust="spacing" textLength="319.792" x="716.2915" y="2036.2803">kind: OperatorAccessControlAccessRequestHistory</text><text fill="#334155" font-family="Helvetica" font-size="14" lengthAdjust="spacing" textLength="241.2402" x="716.2915" y="2050.2803">archetype: generated-service-manager</text><text fill="#334155" font-family="Helvetica" font-size="14" lengthAdjust="spacing" textLength="156.4063" x="716.2915" y="2064.2803">status/finalizer: required /</text><text fill="#334155" font-family="Helvetica" font-size="14" lengthAdjust="spacing" textLength="174.3027" x="716.2915" y="2078.2803">retain-until-confirmed-delete</text><text fill="#334155" font-family="Helvetica" font-size="14" lengthAdjust="spacing" textLength="272.3984" x="716.2915" y="2092.2803">requeue: provisioning, updating, terminating</text><text fill="#334155" font-family="Helvetica" font-size="14" lengthAdjust="spacing" textLength="295.6816" x="716.2915" y="2106.2803">provider states: create PROVISIONING; update</text><text fill="#334155" font-family="Helvetica" font-size="14" lengthAdjust="spacing" textLength="192.165" x="716.2915" y="2120.2803">UPDATING; delete DELETING</text><text fill="#334155" font-family="Helvetica" font-size="14" lengthAdjust="spacing" textLength="183.6611" x="716.2915" y="2134.2803">supported drift: display_name</text><text fill="#334155" font-family="Helvetica" font-size="14" lengthAdjust="spacing" textLength="230.3301" x="716.2915" y="2148.2803">reject before mutate: force-new fields</text><text fill="#334155" font-family="Helvetica" font-size="14" lengthAdjust="spacing" textLength="100.3789" x="716.2915" y="2162.2803">compartment_id</text><text fill="#334155" font-family="Helvetica" font-size="14" lengthAdjust="spacing" textLength="66.1445" x="716.2915" y="2176.2803">list lookup:</text><text fill="#334155" font-family="Helvetica" font-size="14" lengthAdjust="spacing" textLength="470.7979" x="716.2915" y="2190.2803">scaffold_operatoraccesscontrol_operatoraccesscontrolaccessrequesthistory</text><text fill="#334155" font-family="Helvetica" font-size="14" lengthAdjust="spacing" textLength="175.8477" x="716.2915" y="2204.2803">filters compartment_id, state</text><text fill="#334155" font-family="Helvetica" font-size="14" lengthAdjust="spacing" textLength="89.4961" x="716.2915" y="2218.2803">conflicts: none</text><text fill="#334155" font-family="Helvetica" font-size="14" lengthAdjust="spacing" textLength="104.3164" x="716.2915" y="2232.2803">open gaps: none</text><text fill="#334155" font-family="Helvetica" font-size="14" lengthAdjust="spacing" textLength="224.9023" x="716.2915" y="2246.2803">Scaffold metadata only; replace with</text><text fill="#334155" font-family="Helvetica" font-size="14" lengthAdjust="spacing" textLength="244.3232" x="716.2915" y="2260.2803">controller-specific runtime states before</text><text fill="#334155" font-family="Helvetica" font-size="14" lengthAdjust="spacing" textLength="66.1445" x="716.2915" y="2274.2803">promotion.</text><ellipse cx="679.2915" cy="2060.5" fill="none" rx="11" ry="11" style="stroke:#222222;stroke-width:1;"/><ellipse cx="679.2915" cy="2060.5" fill="#222222" rx="6" ry="6" style="stroke:#222222;stroke-width:1;"/><line style="stroke:#0F172A;stroke-width:1;" x1="679.2915" x2="679.2915" y1="157" y2="177"/><polygon fill="#0F172A" points="675.2915,167,679.2915,177,683.2915,167,679.2915,171" style="stroke:#0F172A;stroke-width:1;"/><line style="stroke:#0F172A;stroke-width:1;" x1="858.603" x2="858.603" y1="355" y2="375"/><polygon fill="#0F172A" points="854.603,365,858.603,375,862.603,365,858.603,369" style="stroke:#0F172A;stroke-width:1;"/><line style="stroke:#0F172A;stroke-width:1;" x1="858.603" x2="858.603" y1="437" y2="457"/><polygon fill="#0F172A" points="854.603,447,858.603,457,862.603,447,858.603,451" style="stroke:#0F172A;stroke-width:1;"/><line style="stroke:#0F172A;stroke-width:1;" x1="537.8257" x2="499.98" y1="271" y2="271"/><line style="stroke:#0F172A;stroke-width:1;" x1="499.98" x2="499.98" y1="271" y2="293"/><polygon fill="#0F172A" points="495.98,283,499.98,293,503.98,283,499.98,287" style="stroke:#0F172A;stroke-width:1;"/><line style="stroke:#0F172A;stroke-width:1;" x1="820.7573" x2="858.603" y1="271" y2="271"/><line style="stroke:#0F172A;stroke-width:1;" x1="858.603" x2="858.603" y1="271" y2="293"/><polygon fill="#0F172A" points="854.603,283,858.603,293,862.603,283,858.603,287" style="stroke:#0F172A;stroke-width:1;"/><line style="stroke:#0F172A;stroke-width:1;" x1="499.98" x2="499.98" y1="341" y2="523"/><line style="stroke:#0F172A;stroke-width:1;" x1="499.98" x2="667.2915" y1="523" y2="523"/><polygon fill="#0F172A" points="657.2915,519,667.2915,523,657.2915,527,661.2915,523" style="stroke:#0F172A;stroke-width:1;"/><line style="stroke:#0F172A;stroke-width:1;" x1="858.603" x2="858.603" y1="505" y2="523"/><line style="stroke:#0F172A;stroke-width:1;" x1="858.603" x2="691.2915" y1="523" y2="523"/><polygon fill="#0F172A" points="701.2915,519,691.2915,523,701.2915,527,697.2915,523" style="stroke:#0F172A;stroke-width:1;"/><line style="stroke:#0F172A;stroke-width:1;" x1="679.2915" x2="679.2915" y1="239" y2="259"/><polygon fill="#0F172A" points="675.2915,249,679.2915,259,683.2915,249,679.2915,253" style="stroke:#0F172A;stroke-width:1;"/><line style="stroke:#0F172A;stroke-width:1;" x1="679.2915" x2="679.2915" y1="65" y2="109"/><polygon fill="#0F172A" points="675.2915,99,679.2915,109,683.2915,99,679.2915,103" style="stroke:#0F172A;stroke-width:1;"/><line style="stroke:#0F172A;stroke-width:1;" x1="339.7441" x2="339.7441" y1="753" y2="788"/><polygon fill="#0F172A" points="335.7441,778,339.7441,788,343.7441,778,339.7441,782" style="stroke:#0F172A;stroke-width:1;"/><line style="stroke:#0F172A;stroke-width:1;" x1="179.5718" x2="169.5718" y1="925" y2="925"/><line style="stroke:#0F172A;stroke-width:1;" x1="169.5718" x2="169.5718" y1="925" y2="947"/><polygon fill="#0F172A" points="165.5718,937,169.5718,947,173.5718,937,169.5718,941" style="stroke:#0F172A;stroke-width:1;"/><line style="stroke:#0F172A;stroke-width:1;" x1="499.9165" x2="509.9165" y1="925" y2="925"/><line style="stroke:#0F172A;stroke-width:1;" x1="509.9165" x2="509.9165" y1="925" y2="947"/><polygon fill="#0F172A" points="505.9165,937,509.9165,947,513.9165,937,509.9165,941" style="stroke:#0F172A;stroke-width:1;"/><line style="stroke:#0F172A;stroke-width:1;" x1="169.5718" x2="169.5718" y1="981" y2="1013"/><line style="stroke:#0F172A;stroke-width:1;" x1="169.5718" x2="327.7441" y1="1013" y2="1013"/><polygon fill="#0F172A" points="317.7441,1009,327.7441,1013,317.7441,1017,321.7441,1013" style="stroke:#0F172A;stroke-width:1;"/><line style="stroke:#0F172A;stroke-width:1;" x1="509.9165" x2="509.9165" y1="995" y2="1013"/><line style="stroke:#0F172A;stroke-width:1;" x1="509.9165" x2="351.7441" y1="1013" y2="1013"/><polygon fill="#0F172A" points="361.7441,1009,351.7441,1013,361.7441,1017,357.7441,1013" style="stroke:#0F172A;stroke-width:1;"/><line style="stroke:#0F172A;stroke-width:1;" x1="339.7441" x2="339.7441" y1="878" y2="913"/><polygon fill="#0F172A" points="335.7441,903,339.7441,913,343.7441,903,339.7441,907" style="stroke:#0F172A;stroke-width:1;"/><line style="stroke:#0F172A;stroke-width:1;" x1="339.7441" x2="339.7441" y1="1025" y2="1077"/><polygon fill="#0F172A" points="335.7441,1067,339.7441,1077,343.7441,1067,339.7441,1071" style="stroke:#0F172A;stroke-width:1;"/><line style="stroke:#0F172A;stroke-width:1;" x1="1018.8389" x2="1018.8389" y1="732" y2="767"/><polygon fill="#0F172A" points="1014.8389,757,1018.8389,767,1022.8389,757,1018.8389,761" style="stroke:#0F172A;stroke-width:1;"/><line style="stroke:#0F172A;stroke-width:1;" x1="1018.8389" x2="1018.8389" y1="659" y2="684"/><polygon fill="#0F172A" points="1014.8389,674,1018.8389,684,1022.8389,674,1018.8389,678" style="stroke:#0F172A;stroke-width:1;"/><line style="stroke:#0F172A;stroke-width:1;" x1="1117.1221" x2="1169.1353" y1="647" y2="647"/><polygon fill="#0F172A" points="1165.1353,723.5,1169.1353,733.5,1173.1353,723.5,1169.1353,727.5" style="stroke:#0F172A;stroke-width:1;"/><line style="stroke:#0F172A;stroke-width:1;" x1="1169.1353" x2="1169.1353" y1="647" y2="820"/><line style="stroke:#0F172A;stroke-width:1;" x1="1169.1353" x2="1018.8389" y1="820" y2="820"/><line style="stroke:#0F172A;stroke-width:1;" x1="1018.8389" x2="1018.8389" y1="820" y2="855"/><polygon fill="#0F172A" points="1014.8389,845,1018.8389,855,1022.8389,845,1018.8389,849" style="stroke:#0F172A;stroke-width:1;"/><line style="stroke:#0F172A;stroke-width:1;" x1="1018.8389" x2="1018.8389" y1="952" y2="987"/><polygon fill="#0F172A" points="1014.8389,977,1018.8389,987,1022.8389,977,1018.8389,981" style="stroke:#0F172A;stroke-width:1;"/><line style="stroke:#0F172A;stroke-width:1;" x1="1018.8389" x2="1018.8389" y1="879" y2="904"/><polygon fill="#0F172A" points="1014.8389,894,1018.8389,904,1022.8389,894,1018.8389,898" style="stroke:#0F172A;stroke-width:1;"/><line style="stroke:#0F172A;stroke-width:1;" x1="1151.3599" x2="1175.7969" y1="867" y2="867"/><polygon fill="#0F172A" points="1171.7969,943.5,1175.7969,953.5,1179.7969,943.5,1175.7969,947.5" style="stroke:#0F172A;stroke-width:1;"/><line style="stroke:#0F172A;stroke-width:1;" x1="1175.7969" x2="1175.7969" y1="867" y2="1040"/><line style="stroke:#0F172A;stroke-width:1;" x1="1175.7969" x2="1018.8389" y1="1040" y2="1040"/><line style="stroke:#0F172A;stroke-width:1;" x1="1018.8389" x2="1018.8389" y1="1040" y2="1126"/><polygon fill="#0F172A" points="1014.8389,1116,1018.8389,1126,1022.8389,1116,1018.8389,1120" style="stroke:#0F172A;stroke-width:1;"/><line style="stroke:#0F172A;stroke-width:1;" x1="1018.8389" x2="1018.8389" y1="1291" y2="1312.5"/><polygon fill="#0F172A" points="1014.8389,1302.5,1018.8389,1312.5,1022.8389,1302.5,1018.8389,1306.5" style="stroke:#0F172A;stroke-width:1;"/><line style="stroke:#0F172A;stroke-width:1;" x1="1018.8389" x2="1018.8389" y1="1218" y2="1243"/><polygon fill="#0F172A" points="1014.8389,1233,1018.8389,1243,1022.8389,1233,1018.8389,1237" style="stroke:#0F172A;stroke-width:1;"/><line style="stroke:#0F172A;stroke-width:1;" x1="1156.4219" x2="1180.0625" y1="1206" y2="1206"/><polygon fill="#0F172A" points="1176.0625,1282.5,1180.0625,1292.5,1184.0625,1282.5,1180.0625,1286.5" style="stroke:#0F172A;stroke-width:1;"/><line style="stroke:#0F172A;stroke-width:1;" x1="1180.0625" x2="1180.0625" y1="1206" y2="1356.5"/><line style="stroke:#0F172A;stroke-width:1;" x1="1180.0625" x2="1018.8389" y1="1356.5" y2="1356.5"/><line style="stroke:#0F172A;stroke-width:1;" x1="1018.8389" x2="1018.8389" y1="1356.5" y2="1376.5"/><polygon fill="#0F172A" points="1014.8389,1366.5,1018.8389,1376.5,1022.8389,1366.5,1018.8389,1370.5" style="stroke:#0F172A;stroke-width:1;"/><line style="stroke:#0F172A;stroke-width:1;" x1="1018.8389" x2="1018.8389" y1="1174" y2="1194"/><polygon fill="#0F172A" points="1014.8389,1184,1018.8389,1194,1022.8389,1184,1018.8389,1188" style="stroke:#0F172A;stroke-width:1;"/><line style="stroke:#0F172A;stroke-width:1;" x1="896.4111" x2="871.2188" y1="1388.5" y2="1388.5"/><line style="stroke:#0F172A;stroke-width:1;" x1="871.2188" x2="871.2188" y1="1388.5" y2="1410.5"/><polygon fill="#0F172A" points="867.2188,1400.5,871.2188,1410.5,875.2188,1400.5,871.2188,1404.5" style="stroke:#0F172A;stroke-width:1;"/><line style="stroke:#0F172A;stroke-width:1;" x1="1141.2666" x2="1166.459" y1="1388.5" y2="1388.5"/><line style="stroke:#0F172A;stroke-width:1;" x1="1166.459" x2="1166.459" y1="1388.5" y2="1410.5"/><polygon fill="#0F172A" points="1162.459,1400.5,1166.459,1410.5,1170.459,1400.5,1166.459,1404.5" style="stroke:#0F172A;stroke-width:1;"/><line style="stroke:#0F172A;stroke-width:1;" x1="871.2188" x2="871.2188" y1="1472.5" y2="1490.5"/><line style="stroke:#0F172A;stroke-width:1;" x1="871.2188" x2="1006.8389" y1="1490.5" y2="1490.5"/><polygon fill="#0F172A" points="996.8389,1486.5,1006.8389,1490.5,996.8389,1494.5,1000.8389,1490.5" style="stroke:#0F172A;stroke-width:1;"/><line style="stroke:#0F172A;stroke-width:1;" x1="1166.459" x2="1166.459" y1="1444.5" y2="1490.5"/><line style="stroke:#0F172A;stroke-width:1;" x1="1166.459" x2="1030.8389" y1="1490.5" y2="1490.5"/><polygon fill="#0F172A" points="1040.8389,1486.5,1030.8389,1490.5,1040.8389,1494.5,1036.8389,1490.5" style="stroke:#0F172A;stroke-width:1;"/><line style="stroke:#0F172A;stroke-width:1;" x1="1018.8389" x2="1018.8389" y1="1502.5" y2="1522.5"/><polygon fill="#0F172A" points="1014.8389,1512.5,1018.8389,1522.5,1022.8389,1512.5,1018.8389,1516.5" style="stroke:#0F172A;stroke-width:1;"/><line style="stroke:#0F172A;stroke-width:1;" x1="1018.8389" x2="1018.8389" y1="1640.5" y2="1660.5"/><polygon fill="#0F172A" points="1014.8389,1650.5,1018.8389,1660.5,1022.8389,1650.5,1018.8389,1654.5" style="stroke:#0F172A;stroke-width:1;"/><line style="stroke:#0F172A;stroke-width:1;" x1="1018.8389" x2="1018.8389" y1="1694.5" y2="1714.5"/><polygon fill="#0F172A" points="1014.8389,1704.5,1018.8389,1714.5,1022.8389,1704.5,1018.8389,1708.5" style="stroke:#0F172A;stroke-width:1;"/><line style="stroke:#0F172A;stroke-width:1;" x1="1018.8389" x2="1018.8389" y1="1762.5" y2="1782.5"/><polygon fill="#0F172A" points="1014.8389,1772.5,1018.8389,1782.5,1022.8389,1772.5,1018.8389,1776.5" style="stroke:#0F172A;stroke-width:1;"/><line style="stroke:#0F172A;stroke-width:1;" x1="605.1152" x2="339.7441" y1="579" y2="579"/><line style="stroke:#0F172A;stroke-width:1;" x1="339.7441" x2="339.7441" y1="579" y2="635"/><polygon fill="#0F172A" points="335.7441,625,339.7441,635,343.7441,625,339.7441,629" style="stroke:#0F172A;stroke-width:1;"/><line style="stroke:#0F172A;stroke-width:1;" x1="753.4678" x2="1018.8389" y1="579" y2="579"/><line style="stroke:#0F172A;stroke-width:1;" x1="1018.8389" x2="1018.8389" y1="579" y2="635"/><polygon fill="#0F172A" points="1014.8389,625,1018.8389,635,1022.8389,625,1018.8389,629" style="stroke:#0F172A;stroke-width:1;"/><line style="stroke:#0F172A;stroke-width:1;" x1="1018.8389" x2="1018.8389" y1="1816.5" y2="1833.5"/><line style="stroke:#0F172A;stroke-width:1;" x1="1018.8389" x2="679.2915" y1="1833.5" y2="1833.5"/><line style="stroke:#0F172A;stroke-width:1;" x1="679.2915" x2="679.2915" y1="1833.5" y2="2049.5"/><polygon fill="#0F172A" points="675.2915,2039.5,679.2915,2049.5,683.2915,2039.5,679.2915,2043.5" style="stroke:#0F172A;stroke-width:1;"/><line style="stroke:#0F172A;stroke-width:1;" x1="679.2915" x2="679.2915" y1="535" y2="567"/><polygon fill="#0F172A" points="675.2915,557,679.2915,567,683.2915,557,679.2915,561" style="stroke:#0F172A;stroke-width:1;"/><?plantuml-src lLVRRjiu47tNLn3PbnQmasQRNjP6iKYTj0rGD46IjYy60beQsTnGf9QaxFKk-kzxU94iszaYULaKGILoD9mvS-PmRE-5ghdX5RCBNkYLK7DMScafiztEZEVtSwCRLKoqr8RzKkRuL_Gi2Yfv8zq7hTmNNX7xH799JkJyOPiRyJUnuvFU9ZT6hvBt5-Nncr_xNohjwFrU36NvfdYzQwLDGIPPp4vUlNpnsuw5FpxjltnvSlpgLMy_kC-rKMJOyUlC2IU9dUPEB8LRio7JDHdkjE5vJjRcy6IqFBfCgwTXTH9Nuyir_TcGTP-4nVwwdsxhz9-CFG3lsvANkT_ffvDWOQpSfD2j5O9NMXLxAD6lzBPyqJFeUpmkJgXukzdyy81ZwxXnk_RK-U_iPdp7wuyiV9eXOG0fj687bpDBPacCguAz5weuGFgZ6s_5IgC30mqLh9HwDLNnvGYXpO6OFOhlGqF0FHUIXYs6XtOv7sUZQ-85E6O5hARgqKN1GJNb0-PGrNiSZg1TOmSXne8aEM92EL9kd8cIFJkuJNR8bFwgfSY5OvUJ2oOAsFYAreOi7dy_UCxSWXHxjYRxF1jz9EVVMTuOW-tm3InrOt9YIy6d2XQFZdgS4LgKFLFwkS_SQXbWHKZOzosyvTujG8dvOge-O_S9o3Gsg86GZenbkQvyBIj4VoUAGK2A0Fp441v2Slj9nSqddBdoc2aDDutbC_HVnLs-OCA2zg0rphj2CB0E1vgOUYX77eugjgenLIYUJaK5QAeG9PWPAdaMgsjY05JiLAp7ssWPs9e-ghbRiCQIdQguyfGC1RxrftgcFhtqKwNDaoi93CxEFv_Vdf-XZAeK1gWYDL-z-1gvxhFzVm9gK1wP-CBp1Tasll5MSN99N3LrwCPIA2vnSHXyWcNGtpRmlLSuz4Ebbv6Gcszu2HAt7Usf7DFTQYH8qPhDf0uD7YDi0m2_EbzJjHD0Zrb8h-wvx97eioWfNyCVcqXkhIXnE_eTJwkGiWSZz1G41oawimxyj-Js4mnWHkesn5OBw642i-92MNYOgglhosyNDnUNNow-V1omhrTdfxVXAG2Dft4ADaI-6u5bkd4MRHHpj9P1fkVax7uihZ7AQq-ZacdPIDR9j6zHtFeHJkXoh-AdazkBR-TROVpe8-OLVHrAVsP4wTWdF4eeKcZ4IL0ZOb8iO-enS3xt-KTn45MjZVEtGIb8GjeRK_AS4iC-Q8ZKKD4gQ0Uw05eUfBC8XnNWIUuU8jSVM4z6CogrYSTNZGlbX4mP_nTzfwDtnNCV-fkcZi46HxxkFm_ZjAubskXhNJnDNhMIwn1YUqoAhn2sbdnzfp2zRVV4lQW3caeFTRr9qojWI_lHTOC5evVWYs4BahN_J-jxo6DKvNUkRE-5mtWbNAVN0SHfi_UT2mo8vhiszodoxr3BSmo7fgt-L4LfV-S8JHngdlk8taskpq-zW41S0YhzCoDExPamYKBGDucAqvgmS0yXxwaA5r2y207L47LPKimVrotbZICxxlgWxHOFiKSjShnRRk_CAwC3ZRfh8DvGEpfNQt1oxUN6WTN3q4B3fDyOXM8EuwG7q06Tgc011m8Ui014U8BuLV3hNyReibYtG48_53CZvWkNfVahZLoZx4aZMDORv7pcoTb62BgP5qbcVkWI8SsEECDPdAmcrr_F1cm59WoYQO1cM4V8FFSAZuUqO9gXmopnNS83f9lBpK5ju8mNHIRH0Z3Gzr1pbDDXnhC4The8io0iH4IpHQ9Qd08nzOUkhk1wpcjxc743_NBhcZ3rWXiZzf6Kxq1VHmou0hrVSSNdPBAy2mx5t-Jy842UKbcO3j9fnbSSlwRq2kxjGjI7MV8_UlYtI6PbC_-FlVYIffr5-aM27oJ5Y3t-5qoN-OZDsvo7kpd7WXrrF1vjQ7wK_PJBMRhHHe_XSTOfJkWgEqeJ8EjVVEFuBMNj_JTkPu3s6ini9xr1SaTRMeY8GgCcfG_oX_0wWK_wcMthUo0RYsH36-MyBBKixXwioztZg_NJIJnhxp000PcdBF3M4pQztwGmM8KI01FE_6KmHd6GhLSyCA_7rs6WAwQKZeOHvWI5Hx_IlXqFlPg4tzR_0W00?></g></svg>