<?plantuml 1.2026.1?><svg xmlns="http://www.w3.org/2000/svg" xmlns:xlink="http://www.w3.org/1999/xlink" contentStyleType="text/css" data-diagram-type="SEQUENCE" height="1329px" preserveAspectRatio="none" style="width:1113px;height:1329px;background:#FCFCFD;" version="1.1" viewBox="0 0 1113 1329" width="1113px" zoomAndPan="magnify"><title>Sequence - core/CoreVirtualCircuitPublicPrefixes</title><defs/><g><rect fill="#FCFCFD" height="1329" style="stroke:none;stroke-width:1;" width="1113" x="0" y="0"/><text fill="#000000" font-family="Helvetica" font-size="14" font-weight="bold" lengthAdjust="spacing" textLength="328.3301" x="389.855" y="25.7803">Sequence - core/CoreVirtualCircuitPublicPrefixes</text><rect fill="none" height="86" rx="8" ry="8" style="stroke:#CBD5E1;stroke-width:1.5;" width="403.8267" x="671.5522" y="361"/><rect fill="none" height="204" rx="8" ry="8" style="stroke:#CBD5E1;stroke-width:1.5;" width="423.8267" x="661.5522" y="461"/><rect fill="none" height="44" rx="8" ry="8" style="stroke:#CBD5E1;stroke-width:1.5;" width="403.8267" x="671.5522" y="512"/><rect fill="none" height="44" rx="8" ry="8" style="stroke:#CBD5E1;stroke-width:1.5;" width="403.8267" x="671.5522" y="614"/><rect fill="none" height="130" rx="8" ry="8" style="stroke:#CBD5E1;stroke-width:1.5;" width="423.8267" x="661.5522" y="679"/><rect fill="none" height="72" rx="8" ry="8" style="stroke:#CBD5E1;stroke-width:1.5;" width="403.8267" x="671.5522" y="730"/><g class="participant-lifeline" data-entity-uid="part1" data-qualified-name="Kubernetes" id="part1-lifeline"><g><title>Kubernetes</title><rect fill="#000000" fill-opacity="0.00000" height="1208" width="8" x="39.8032" y="114"/><line style="stroke:#94A3B8;stroke-width:0.5;stroke-dasharray:5,5;" x1="43" x2="43" y1="114" y2="1322"/></g></g><g class="participant-lifeline" data-entity-uid="part2" data-qualified-name="Controller" id="part2-lifeline"><g><title>Controller</title><rect fill="#000000" fill-opacity="0.00000" height="1208" width="8" x="262.2026" y="114"/><line style="stroke:#94A3B8;stroke-width:0.5;stroke-dasharray:5,5;" x1="265.8579" x2="265.8579" y1="114" y2="1322"/></g></g><g class="participant-lifeline" data-entity-uid="part3" data-qualified-name="BaseReconciler" id="part3-lifeline"><g><title>BaseReconciler</title><rect fill="#000000" fill-opacity="0.00000" height="1208" width="8" x="501.0288" y="114"/><line style="stroke:#94A3B8;stroke-width:0.5;stroke-dasharray:5,5;" x1="505.0049" x2="505.0049" y1="114" y2="1322"/></g></g><g class="participant-lifeline" data-entity-uid="part4" data-qualified-name="ServiceManager" id="part4-lifeline"><g><title>OSOKServiceManager</title><rect fill="#000000" fill-opacity="0.00000" height="1208" width="8" x="755.7485" y="114"/><line style="stroke:#94A3B8;stroke-width:0.5;stroke-dasharray:5,5;" x1="759.5522" x2="759.5522" y1="114" y2="1322"/></g></g><g class="participant-lifeline" data-entity-uid="part5" data-qualified-name="OCI" id="part5-lifeline"><g><title>OCI</title><rect fill="#000000" fill-opacity="0.00000" height="1208" width="8" x="1041.9341" y="114"/><line style="stroke:#94A3B8;stroke-width:0.5;stroke-dasharray:5,5;" x1="1045.4893" x2="1045.4893" y1="114" y2="1322"/></g></g><g class="participant participant-head" data-entity-uid="part1" data-qualified-name="Kubernetes" id="part1-head"><text fill="#000000" font-family="Helvetica" font-size="14" lengthAdjust="spacing" textLength="71.6064" x="5" y="110.7803">Kubernetes</text><ellipse cx="43.8032" cy="48.5" fill="#E2E8F0" rx="8" ry="8" style="stroke:#0F172A;stroke-width:0.5;"/><path d="M43.8032,56.5 L43.8032,83.5 M30.8032,64.5 L56.8032,64.5 M43.8032,83.5 L30.8032,98.5 M43.8032,83.5 L56.8032,98.5" fill="none" style="stroke:#0F172A;stroke-width:0.5;"/></g><g class="participant participant-head" data-entity-uid="part2" data-qualified-name="Controller" id="part2-head"><rect fill="#E2E8F0" height="28" rx="8" ry="8" style="stroke:#0F172A;stroke-width:0.5;" width="74.6895" x="228.8579" y="85"/><text fill="#0F172A" font-family="Helvetica" font-size="14" lengthAdjust="spacing" textLength="60.6895" x="235.8579" y="102.7803">Controller</text></g><g class="participant participant-head" data-entity-uid="part3" data-qualified-name="BaseReconciler" id="part3-head"><rect fill="#E2E8F0" height="28" rx="8" ry="8" style="stroke:#0F172A;stroke-width:0.5;" width="112.0479" x="449.0049" y="85"/><text fill="#0F172A" font-family="Helvetica" font-size="14" lengthAdjust="spacing" textLength="98.0479" x="456.0049" y="102.7803">BaseReconciler</text></g><g class="participant participant-head" data-entity-uid="part4" data-qualified-name="ServiceManager" id="part4-head"><rect fill="#E2E8F0" height="28" rx="8" ry="8" style="stroke:#0F172A;stroke-width:0.5;" width="156.3926" x="681.5522" y="85"/><text fill="#0F172A" font-family="Helvetica" font-size="14" lengthAdjust="spacing" textLength="142.3926" x="688.5522" y="102.7803">OSOKServiceManager</text></g><g class="participant participant-head" data-entity-uid="part5" data-qualified-name="OCI" id="part5-head"><rect fill="#E2E8F0" height="28" rx="8" ry="8" style="stroke:#0F172A;stroke-width:0.5;" width="38.8896" x="1026.4893" y="85"/><text fill="#0F172A" font-family="Helvetica" font-size="14" lengthAdjust="spacing" textLength="24.8896" x="1033.4893" y="102.7803">OCI</text></g><path d="M440,137 L440,187 A8,8 0 0 0 448,195 L815,195 A8,8 0 0 0 823,187 L823,139 L813,129 L448,129 A8,8 0 0 0 440,137" fill="#FFF7D6" style="stroke:#B45309;stroke-width:0.5;"/><path d="M813,129 L813,135 A4,4 0 0 0 817,139 L823,139 L813,129" fill="#FFF7D6" style="stroke:#B45309;stroke-width:0.5;"/><text fill="#334155" font-family="Helvetica" font-size="14" lengthAdjust="spacing" textLength="111.2891" x="473.7742" y="144.7803">shared resolution:</text><text fill="#334155" font-family="Helvetica" font-size="14" lengthAdjust="spacing" textLength="307.3916" x="473.7742" y="158.7803">shared/diagrams/shared-resolution-sequence.svg</text><text fill="#334155" font-family="Helvetica" font-size="14" lengthAdjust="spacing" textLength="88.7305" x="473.7742" y="172.7803">shared delete:</text><text fill="#334155" font-family="Helvetica" font-size="14" lengthAdjust="spacing" textLength="284.833" x="473.7742" y="186.7803">shared/diagrams/shared-delete-sequence.svg</text><g class="message" data-entity-1="part1" data-entity-2="part2" id="msg1"><polygon fill="#0F172A" points="254.2026,244,264.2026,248,254.2026,252,258.2026,248" style="stroke:#0F172A;stroke-width:1;"/><line style="stroke:#0F172A;stroke-width:1;" x1="43.8032" x2="260.2026" y1="248" y2="248"/><text fill="#000000" font-family="Helvetica" font-size="14" lengthAdjust="spacing" textLength="54.5029" x="50.8032" y="214.7803">enqueue</text><text fill="#000000" font-family="Helvetica" font-size="14" lengthAdjust="spacing" textLength="198.3994" x="50.8032" y="228.7803">CoreVirtualCircuitPublicPrefixes</text><text fill="#000000" font-family="Helvetica" font-size="14" lengthAdjust="spacing" textLength="56.0273" x="50.8032" y="242.7803">reconcile</text></g><g class="message" data-entity-1="part2" data-entity-2="part3" id="msg2"><polygon fill="#0F172A" points="493.0288,272,503.0288,276,493.0288,280,497.0288,276" style="stroke:#0F172A;stroke-width:1;"/><line style="stroke:#0F172A;stroke-width:1;" x1="266.2026" x2="499.0288" y1="276" y2="276"/><text fill="#000000" font-family="Helvetica" font-size="14" lengthAdjust="spacing" textLength="117.4961" x="273.2026" y="270.7803">Reconcile(request)</text></g><g class="message" data-entity-1="part3" data-entity-2="part4" id="msg3"><polygon fill="#0F172A" points="747.7485,314,757.7485,318,747.7485,322,751.7485,318" style="stroke:#0F172A;stroke-width:1;"/><line style="stroke:#0F172A;stroke-width:1;" x1="505.0288" x2="753.7485" y1="318" y2="318"/><text fill="#000000" font-family="Helvetica" font-size="14" lengthAdjust="spacing" textLength="105.834" x="512.0288" y="298.7803">reconcile desired</text><text fill="#000000" font-family="Helvetica" font-size="14" lengthAdjust="spacing" textLength="198.3994" x="512.0288" y="312.7803">CoreVirtualCircuitPublicPrefixes</text></g><g class="message" data-entity-1="part4" data-entity-2="part5" id="msg4"><polygon fill="#0F172A" points="1033.9341,342,1043.9341,346,1033.9341,350,1037.9341,346" style="stroke:#0F172A;stroke-width:1;"/><line style="stroke:#0F172A;stroke-width:1;" x1="759.7485" x2="1039.9341" y1="346" y2="346"/><text fill="#000000" font-family="Helvetica" font-size="14" lengthAdjust="spacing" textLength="220.9648" x="766.7485" y="340.7803">GetCoreVirtualCircuitPublicPrefixes</text></g><path d="M679.5522,361 L738.3179,361 L738.3179,367 L728.3179,377 L671.5522,377 L671.5522,369 A8,8 0 0 1 679.5522,361" fill="#F8FAFC" style="stroke:#CBD5E1;stroke-width:1.5;"/><rect fill="none" height="86" rx="8" ry="8" style="stroke:#CBD5E1;stroke-width:1.5;" width="403.8267" x="671.5522" y="361"/><text fill="#000000" font-family="Helvetica" font-size="14" font-weight="bold" lengthAdjust="spacing" textLength="21.7656" x="686.5522" y="372.7803">opt</text><text fill="#000000" font-family="Helvetica" font-size="14" font-weight="bold" lengthAdjust="spacing" textLength="135.3516" x="753.3179" y="373.7803">[list lookup fallback]</text><g class="message" data-entity-1="part4" data-entity-2="part5" id="msg5"><polygon fill="#0F172A" points="1033.9341,407,1043.9341,411,1033.9341,415,1037.9341,411" style="stroke:#0F172A;stroke-width:1;"/><line style="stroke:#0F172A;stroke-width:1;" x1="759.7485" x2="1039.9341" y1="411" y2="411"/><text fill="#000000" font-family="Helvetica" font-size="14" lengthAdjust="spacing" textLength="262.1855" x="766.7485" y="391.7803">ListCoreVirtualCircuitPublicPrefixes(filters:</text><text fill="#000000" font-family="Helvetica" font-size="14" lengthAdjust="spacing" textLength="143.1719" x="766.7485" y="405.7803">compartment_id, state)</text></g><g class="message" data-entity-1="part5" data-entity-2="part4" id="msg6"><polygon fill="#0F172A" points="770.7485,435,760.7485,439,770.7485,443,766.7485,439" style="stroke:#0F172A;stroke-width:1;"/><line style="stroke:#0F172A;stroke-width:1;stroke-dasharray:2,2;" x1="764.7485" x2="1044.9341" y1="439" y2="439"/><text fill="#000000" font-family="Helvetica" font-size="14" lengthAdjust="spacing" textLength="156.3994" x="776.7485" y="433.7803">matching collection items</text></g><path d="M669.5522,461 L722.8901,461 L722.8901,467 L712.8901,477 L661.5522,477 L661.5522,469 A8,8 0 0 1 669.5522,461" fill="#F8FAFC" style="stroke:#CBD5E1;stroke-width:1.5;"/><rect fill="none" height="204" rx="8" ry="8" style="stroke:#CBD5E1;stroke-width:1.5;" width="423.8267" x="661.5522" y="461"/><text fill="#000000" font-family="Helvetica" font-size="14" font-weight="bold" lengthAdjust="spacing" textLength="16.3379" x="676.5522" y="472.7803">alt</text><text fill="#000000" font-family="Helvetica" font-size="14" font-weight="bold" lengthAdjust="spacing" textLength="135.3447" x="737.8901" y="473.7803">[create or bind path]</text><g class="message" data-entity-1="part4" data-entity-2="part5" id="msg7"><polygon fill="#0F172A" points="1033.9341,493,1043.9341,497,1033.9341,501,1037.9341,497" style="stroke:#0F172A;stroke-width:1;"/><line style="stroke:#0F172A;stroke-width:1;" x1="759.7485" x2="1039.9341" y1="497" y2="497"/><text fill="#000000" font-family="Helvetica" font-size="14" lengthAdjust="spacing" textLength="240.4199" x="766.7485" y="491.7803">CreateCoreVirtualCircuitPublicPrefixes</text></g><path d="M679.5522,512 L746.0972,512 L746.0972,518 L736.0972,528 L671.5522,528 L671.5522,520 A8,8 0 0 1 679.5522,512" fill="#F8FAFC" style="stroke:#CBD5E1;stroke-width:1.5;"/><rect fill="none" height="44" rx="8" ry="8" style="stroke:#CBD5E1;stroke-width:1.5;" width="403.8267" x="671.5522" y="512"/><text fill="#000000" font-family="Helvetica" font-size="14" font-weight="bold" lengthAdjust="spacing" textLength="29.5449" x="686.5522" y="523.7803">loop</text><text fill="#000000" font-family="Helvetica" font-size="14" font-weight="bold" lengthAdjust="spacing" textLength="215.4756" x="761.0972" y="524.7803">[create pending PROVISIONING]</text><g class="message" data-entity-1="part4" data-entity-2="part5" id="msg8"><polygon fill="#0F172A" points="1033.9341,544,1043.9341,548,1033.9341,552,1037.9341,548" style="stroke:#0F172A;stroke-width:1;"/><line style="stroke:#0F172A;stroke-width:1;" x1="759.7485" x2="1039.9341" y1="548" y2="548"/><text fill="#000000" font-family="Helvetica" font-size="14" lengthAdjust="spacing" textLength="220.9648" x="766.7485" y="542.7803">GetCoreVirtualCircuitPublicPrefixes</text></g><line style="stroke:#CBD5E1;stroke-width:1;stroke-dasharray:2,2;" x1="661.5522" x2="1085.3789" y1="564" y2="564"/><text fill="#000000" font-family="Helvetica" font-size="14" font-weight="bold" lengthAdjust="spacing" textLength="137.6484" x="666.5522" y="574.7803">[update or drift path]</text><g class="message" data-entity-1="part4" data-entity-2="part5" id="msg9"><polygon fill="#0F172A" points="1033.9341,595,1043.9341,599,1033.9341,603,1037.9341,599" style="stroke:#0F172A;stroke-width:1;"/><line style="stroke:#0F172A;stroke-width:1;" x1="759.7485" x2="1039.9341" y1="599" y2="599"/><text fill="#000000" font-family="Helvetica" font-size="14" lengthAdjust="spacing" textLength="243.5439" x="766.7485" y="593.7803">UpdateCoreVirtualCircuitPublicPrefixes</text></g><path d="M679.5522,614 L746.0972,614 L746.0972,620 L736.0972,630 L671.5522,630 L671.5522,622 A8,8 0 0 1 679.5522,614" fill="#F8FAFC" style="stroke:#CBD5E1;stroke-width:1.5;"/><rect fill="none" height="44" rx="8" ry="8" style="stroke:#CBD5E1;stroke-width:1.5;" width="403.8267" x="671.5522" y="614"/><text fill="#000000" font-family="Helvetica" font-size="14" font-weight="bold" lengthAdjust="spacing" textLength="29.5449" x="686.5522" y="625.7803">loop</text><text fill="#000000" font-family="Helvetica" font-size="14" font-weight="bold" lengthAdjust="spacing" textLength="190.5381" x="761.0972" y="626.7803">[update pending UPDATING]</text><g class="message" data-entity-1="part4" data-entity-2="part5" id="msg10"><polygon fill="#0F172A" points="1033.9341,646,1043.9341,650,1033.9341,654,1037.9341,650" style="stroke:#0F172A;stroke-width:1;"/><line style="stroke:#0F172A;stroke-width:1;" x1="759.7485" x2="1039.9341" y1="650" y2="650"/><text fill="#000000" font-family="Helvetica" font-size="14" lengthAdjust="spacing" textLength="220.9648" x="766.7485" y="644.7803">GetCoreVirtualCircuitPublicPrefixes</text></g><path d="M669.5522,679 L728.3179,679 L728.3179,685 L718.3179,695 L661.5522,695 L661.5522,687 A8,8 0 0 1 669.5522,679" fill="#F8FAFC" style="stroke:#CBD5E1;stroke-width:1.5;"/><rect fill="none" height="130" rx="8" ry="8" style="stroke:#CBD5E1;stroke-width:1.5;" width="423.8267" x="661.5522" y="679"/><text fill="#000000" font-family="Helvetica" font-size="14" font-weight="bold" lengthAdjust="spacing" textLength="21.7656" x="676.5522" y="690.7803">opt</text><text fill="#000000" font-family="Helvetica" font-size="14" font-weight="bold" lengthAdjust="spacing" textLength="120.5859" x="743.3179" y="691.7803">[delete requested]</text><g class="message" data-entity-1="part4" data-entity-2="part5" id="msg11"><polygon fill="#0F172A" points="1033.9341,711,1043.9341,715,1033.9341,719,1037.9341,715" style="stroke:#0F172A;stroke-width:1;"/><line style="stroke:#0F172A;stroke-width:1;" x1="759.7485" x2="1039.9341" y1="715" y2="715"/><text fill="#000000" font-family="Helvetica" font-size="14" lengthAdjust="spacing" textLength="238.8682" x="766.7485" y="709.7803">DeleteCoreVirtualCircuitPublicPrefixes</text></g><path d="M679.5522,730 L746.0972,730 L746.0972,736 L736.0972,746 L671.5522,746 L671.5522,738 A8,8 0 0 1 679.5522,730" fill="#F8FAFC" style="stroke:#CBD5E1;stroke-width:1.5;"/><rect fill="none" height="72" rx="8" ry="8" style="stroke:#CBD5E1;stroke-width:1.5;" width="403.8267" x="671.5522" y="730"/><text fill="#000000" font-family="Helvetica" font-size="14" font-weight="bold" lengthAdjust="spacing" textLength="29.5449" x="686.5522" y="741.7803">loop</text><text fill="#000000" font-family="Helvetica" font-size="14" font-weight="bold" lengthAdjust="spacing" textLength="213.124" x="761.0972" y="742.7803">[delete confirmation DELETING]</text><g class="message" data-entity-1="part4" data-entity-2="part5" id="msg12"><polygon fill="#0F172A" points="1033.9341,790,1043.9341,794,1033.9341,798,1037.9341,794" style="stroke:#0F172A;stroke-width:1;"/><line style="stroke:#0F172A;stroke-width:1;" x1="759.7485" x2="1039.9341" y1="794" y2="794"/><text fill="#000000" font-family="Helvetica" font-size="14" lengthAdjust="spacing" textLength="220.9648" x="766.7485" y="760.7803">GetCoreVirtualCircuitPublicPrefixes</text><text fill="#000000" font-family="Helvetica" font-size="14" lengthAdjust="spacing" textLength="12.4482" x="766.7485" y="774.7803">or</text><text fill="#000000" font-family="Helvetica" font-size="14" lengthAdjust="spacing" textLength="220.1855" x="766.7485" y="788.7803">ListCoreVirtualCircuitPublicPrefixes</text></g><g class="message" data-entity-1="part4" data-entity-2="part3" id="msg13"><polygon fill="#0F172A" points="516.0288,846,506.0288,850,516.0288,854,512.0288,850" style="stroke:#0F172A;stroke-width:1;"/><line style="stroke:#0F172A;stroke-width:1;stroke-dasharray:2,2;" x1="510.0288" x2="758.7485" y1="850" y2="850"/><text fill="#000000" font-family="Helvetica" font-size="14" lengthAdjust="spacing" textLength="100.7822" x="522.0288" y="830.7803">status=required,</text><text fill="#000000" font-family="Helvetica" font-size="14" lengthAdjust="spacing" textLength="230.7197" x="522.0288" y="844.7803">finalizer=retain-until-confirmed-delete</text></g><g class="message" data-entity-1="part3" data-entity-2="part2" id="msg14"><polygon fill="#0F172A" points="277.2026,888,267.2026,892,277.2026,896,273.2026,892" style="stroke:#0F172A;stroke-width:1;"/><line style="stroke:#0F172A;stroke-width:1;stroke-dasharray:2,2;" x1="271.2026" x2="504.0288" y1="892" y2="892"/><text fill="#000000" font-family="Helvetica" font-size="14" lengthAdjust="spacing" textLength="214.8262" x="283.2026" y="872.7803">requeue on provisioning, updating,</text><text fill="#000000" font-family="Helvetica" font-size="14" lengthAdjust="spacing" textLength="69.2549" x="283.2026" y="886.7803">terminating</text></g><path d="M764,913 L764,1299 A8,8 0 0 0 772,1307 L1096,1307 A8,8 0 0 0 1104,1299 L1104,915 L1094,905 L772,905 A8,8 0 0 0 764,913" fill="#FFF7D6" style="stroke:#B45309;stroke-width:0.5;"/><path d="M1094,905 L1094,911 A4,4 0 0 0 1098,915 L1104,915 L1094,905" fill="#FFF7D6" style="stroke:#B45309;stroke-width:0.5;"/><text fill="#334155" font-family="Helvetica" font-size="14" lengthAdjust="spacing" textLength="101.165" x="770" y="920.7803">shared diagram:</text><text fill="#334155" font-family="Helvetica" font-size="14" lengthAdjust="spacing" textLength="307.3916" x="770" y="934.7803">shared/diagrams/shared-resolution-sequence.svg</text><text fill="#334155" font-family="Helvetica" font-size="14" lengthAdjust="spacing" textLength="143.1992" x="770" y="948.7803">shared delete diagram:</text><text fill="#334155" font-family="Helvetica" font-size="14" lengthAdjust="spacing" textLength="284.833" x="770" y="962.7803">shared/diagrams/shared-delete-sequence.svg</text><text fill="#334155" font-family="Helvetica" font-size="14" lengthAdjust="spacing" textLength="280.9297" x="770" y="976.7803">Start from the shared resolution sequence for</text><text fill="#334155" font-family="Helvetica" font-size="14" lengthAdjust="spacing" textLength="260.7295" x="770" y="990.7803">OCID binding, datasource pagination, and</text><text fill="#334155" font-family="Helvetica" font-size="14" lengthAdjust="spacing" textLength="163.4268" x="770" y="1004.7803">create-or-update dispatch.</text><text fill="#334155" font-family="Helvetica" font-size="14" lengthAdjust="spacing" textLength="301.1982" x="770" y="1018.7803">Layer the shared delete sequence when finalizer</text><text fill="#334155" font-family="Helvetica" font-size="14" lengthAdjust="spacing" textLength="269.2471" x="770" y="1032.7803">retention, delete confirmation, work-request</text><text fill="#334155" font-family="Helvetica" font-size="14" lengthAdjust="spacing" textLength="199.2334" x="770" y="1046.7803">polling, or Secret cleanup apply.</text><text fill="#334155" font-family="Helvetica" font-size="14" lengthAdjust="spacing" textLength="281.709" x="770" y="1060.7803">archetype batch: Generated service-manager</text><text fill="#334155" font-family="Helvetica" font-size="14" lengthAdjust="spacing" textLength="266.1504" x="770" y="1074.7803">controllers follow the shared resolution and</text><text fill="#334155" font-family="Helvetica" font-size="14" lengthAdjust="spacing" textLength="259.9297" x="770" y="1088.7803">delete sequences with imported waits and</text><text fill="#334155" font-family="Helvetica" font-size="14" lengthAdjust="spacing" textLength="134.6064" x="770" y="1102.7803">controller-local policy.</text><text fill="#334155" font-family="Helvetica" font-size="14" lengthAdjust="spacing" textLength="79.3584" x="770" y="1116.7803">service: core</text><text fill="#334155" font-family="Helvetica" font-size="14" lengthAdjust="spacing" textLength="220.1992" x="770" y="1130.7803">slug: corevirtualcircuitpublicprefixes</text><text fill="#334155" font-family="Helvetica" font-size="14" lengthAdjust="spacing" textLength="231.8613" x="770" y="1144.7803">kind: CoreVirtualCircuitPublicPrefixes</text><text fill="#334155" font-family="Helvetica" font-size="14" lengthAdjust="spacing" textLength="241.2402" x="770" y="1158.7803">archetype: generated-service-manager</text><text fill="#334155" font-family="Helvetica" font-size="14" lengthAdjust="spacing" textLength="156.4063" x="770" y="1172.7803">status/finalizer: required /</text><text fill="#334155" font-family="Helvetica" font-size="14" lengthAdjust="spacing" textLength="174.3027" x="770" y="1186.7803">retain-until-confirmed-delete</text><text fill="#334155" font-family="Helvetica" font-size="14" lengthAdjust="spacing" textLength="272.3984" x="770" y="1200.7803">requeue: provisioning, updating, terminating</text><text fill="#334155" font-family="Helvetica" font-size="14" lengthAdjust="spacing" textLength="295.6816" x="770" y="1214.7803">provider states: create PROVISIONING; update</text><text fill="#334155" font-family="Helvetica" font-size="14" lengthAdjust="spacing" textLength="192.165" x="770" y="1228.7803">UPDATING; delete DELETING</text><text fill="#334155" font-family="Helvetica" font-size="14" lengthAdjust="spacing" textLength="319.04" x="770" y="1242.7803">mutable/forceNew: display_name / compartment_id</text><text fill="#334155" font-family="Helvetica" font-size="14" lengthAdjust="spacing" textLength="104.3164" x="770" y="1256.7803">open gaps: none</text><text fill="#334155" font-family="Helvetica" font-size="14" lengthAdjust="spacing" textLength="224.9023" x="770" y="1270.7803">Scaffold metadata only; replace with</text><text fill="#334155" font-family="Helvetica" font-size="14" lengthAdjust="spacing" textLength="244.3232" x="770" y="1284.7803">controller-specific runtime states before</text><text fill="#334155" font-family="Helvetica" font-size="14" lengthAdjust="spacing" textLength="66.1445" x="770" y="1298.7803">promotion.</text><?plantuml-src hLRlRzis4Fskl-BGVMa1AqwQf4qLRC3gT5tGB0dgjPyC53Hrj8bG94TIThDX__kE-XN9iUi06O8OjdXyVE_ktOd-JchB72l0Brbkrb8lG33bCV7TofpnkuKpfSudHXa7FmbEVtal8aV1IXL-CpfSimBXTrGh39ApxJ5J-JV2qKblaJbdrWtweJXw-xg_Kvk0xnzn4E9j_cOpohWSNHCnFpazFdot4H6FRzQFZq-EJazxwnKyDqwZWwCtIP118Kpnhn8rHqY1bd0yeO-lqeMIgObql9JXjfmhoMyT2laTVRAKEO8m9ipDznwuRt7-IG0O3yODo3QYswLDjVWQpyGXBHCOvLLQfiFs_Vs0fw3q4j9XA2dmIkfXEj-TiEFv6Qr6I3jOulFy58-wfKUbEXDCyEJVfD86dyevKeu3vQh70oP4n1cbq0qUlsSUFoCtcilDfHStqvjFKtGhoV4Ffja2tGjW7eQF1bjk9fT9j06O5HLvY3tQs4SDuJ07XzweCaYZi-RHE9TiGJNru_ft-X2IjcK-yAj5Yv2Z8hKxTzVBmvseyygkoKEo8FsbbwCCK5DyYJEzpv4pxLgDoGD0X1lgpw3x_j95CZwyIeOXSTCmInbquAJJInAqdr4on8YeL9WCFcBOkzNOGFxqz67CNMdZi59nGEt2lABOVQ0lXLG1dSzccfiY-gL07Rx9V0G-i82l4eA2T8luWWM-Z3EJnwJoQ06G0GiVAvWm5O0xPD5l3kQIYcfPMEwYEgb2zsQ0XDiMrj8nyVZRppTVBwUNDzUNrn-Vazt86cdwGsdpXdRkf0W_vFsbYdqQxmQtvVtbzkBNF_yFplGVdL7t4ZJsnNmNxaKLzpJA3IQvN4X71OyrllXmzU6Pl6VQk9b-YZqxXPk7RMdXwDVI_nmJ47jnD2FIcYbwuJfw69ZKQQc3L6aZfvi_ZpfzOznKAIt94HgiColfAGrKmL5TqVXjfgc72Zej_ggdh9EBPG0ZOFjeRIRXy-RgNfHjytKQgCb1E5D0M28y6lKFhsjXNEp-YwfzAy4abtbJEbgqR57fDNe4Z0fKTsLgNDhuF9VUnX5na5onUyfgxx26VNVGUeaQkc8bL2oQGHNo5WEEO6tSNThuFB5Kf8eRzUiKYGND7OLCqtnarghxWuGvliHmRv5kSyGdEfIkEKGn9mPLRTAYAGxlgkv9lL9clID7KV662Wzh6POW2sjSn5up6NoTcWurLOOp1SHPScBM79zLrwl4gt9HVrtL7S7hZh1LHzYs8-XQbTF0tDSudUeC5gtUT5DltJBZBlMrrsFtm3ZvSSyqJP7jQWdeTqGLGvUc-ftYitQ6zsVtUJCWatOmdhVLxoPEKGOsLpWcOtAyndLMcKon-sywNht7C7o5qLWaNosOfGErqPXCEHDKrXmAaXQzJ2sjxiz9D8547r81-zNo5haKaeEBIQ0JQlemHn4BHgeA4-rmq5rQ_WC0?></g></svg>