<?plantuml 1.2026.1?><svg xmlns="http://www.w3.org/2000/svg" xmlns:xlink="http://www.w3.org/1999/xlink" contentStyleType="text/css" data-diagram-type="STATE" height="800px" preserveAspectRatio="none" style="width:3551px;height:800px;background:#FCFCFD;" version="1.1" viewBox="0 0 3551 800" width="3551px" zoomAndPan="magnify"><title>State Machine - nosql/Table</title><defs/><g><rect fill="#FCFCFD" height="800" style="stroke:none;stroke-width:1;" width="3551" x="0" y="0"/><g class="title" data-source-line="10"><text fill="#000000" font-family="Helvetica" font-size="14" font-weight="bold" lengthAdjust="spacing" textLength="184.3652" x="1676.6004" y="20.7803">State Machine - nosql/Table</text></g><g><rect fill="#F8FAFC" height="62" rx="8" ry="8" style="stroke:#0F172A;stroke-width:0.5;" width="264.3643" x="165" y="657"/><line style="stroke:#0F172A;stroke-width:0.5;" x1="165" x2="429.3643" y1="681" y2="681"/><text fill="#0F172A" font-family="Helvetica" font-size="14" lengthAdjust="spacing" textLength="52.9102" x="270.7271" y="672.7803">Observe</text><text fill="#0F172A" font-family="Helvetica" font-size="14" lengthAdjust="spacing" textLength="244.3643" x="170" y="696.7803">read spec, tracked status, delete intent,</text><text fill="#0F172A" font-family="Helvetica" font-size="14" lengthAdjust="spacing" textLength="153.2822" x="170" y="710.7803">and current OCI lifecycle</text></g><rect fill="#F8FAFC" height="40" rx="8" ry="8" style="stroke:#0F172A;stroke-width:0.5;" width="104.9512" x="1226.36" y="500"/><text fill="#0F172A" font-family="Helvetica" font-size="14" lengthAdjust="spacing" textLength="94.9512" x="1231.36" y="523.7803">EvaluateReady</text><rect fill="#F8FAFC" height="40" rx="8" ry="8" style="stroke:#0F172A;stroke-width:0.5;" width="50.4688" x="1996.32" y="500"/><text fill="#0F172A" font-family="Helvetica" font-size="14" lengthAdjust="spacing" textLength="40.4688" x="2001.32" y="523.7803">Ready</text><rect fill="#F8FAFC" height="40" rx="8" ry="8" style="stroke:#0F172A;stroke-width:0.5;" width="69.917" x="1243.88" y="635"/><text fill="#0F172A" font-family="Helvetica" font-size="14" lengthAdjust="spacing" textLength="59.917" x="1248.88" y="658.7803">Retryable</text><rect fill="#F8FAFC" height="40" rx="8" ry="8" style="stroke:#0F172A;stroke-width:0.5;" width="50" x="1253.84" y="754"/><text fill="#0F172A" font-family="Helvetica" font-size="14" lengthAdjust="spacing" textLength="38.1309" x="1259.7746" y="777.7803">Failed</text><rect fill="#F8FAFC" height="40" rx="8" ry="8" style="stroke:#0F172A;stroke-width:0.5;" width="122.8477" x="707.44" y="611"/><text fill="#0F172A" font-family="Helvetica" font-size="14" lengthAdjust="spacing" textLength="112.8477" x="712.44" y="634.7803">ResolveByLookup</text><rect fill="#F8FAFC" height="40" rx="8" ry="8" style="stroke:#0F172A;stroke-width:0.5;" width="155.5098" x="1571.56" y="590"/><text fill="#0F172A" font-family="Helvetica" font-size="14" lengthAdjust="spacing" textLength="145.5098" x="1576.56" y="613.7803">RejectUnsupportedDrift</text><rect fill="#F8FAFC" height="40" rx="8" ry="8" style="stroke:#0F172A;stroke-width:0.5;" width="90.165" x="1604.23" y="429"/><text fill="#0F172A" font-family="Helvetica" font-size="14" lengthAdjust="spacing" textLength="80.165" x="1609.23" y="452.7803">ApplyUpdate</text><rect fill="#F8FAFC" height="40" rx="8" ry="8" style="stroke:#0F172A;stroke-width:0.5;" width="101.8477" x="2346.27" y="716"/><text fill="#0F172A" font-family="Helvetica" font-size="14" lengthAdjust="spacing" textLength="91.8477" x="2351.27" y="739.7803">DeletePending</text><rect fill="#F8FAFC" height="40" rx="8" ry="8" style="stroke:#0F172A;stroke-width:0.5;" width="58.2549" x="3462.85" y="664"/><text fill="#0F172A" font-family="Helvetica" font-size="14" lengthAdjust="spacing" textLength="48.2549" x="3467.85" y="687.7803">Deleted</text><rect fill="#F8FAFC" height="40" rx="8" ry="8" style="stroke:#0F172A;stroke-width:0.5;" width="152.4268" x="2971.52" y="664"/><text fill="#0F172A" font-family="Helvetica" font-size="14" lengthAdjust="spacing" textLength="142.4268" x="2976.52" y="687.7803">DeleteCleanupBlocked</text><ellipse cx="16" cy="688" fill="#222222" rx="10" ry="10" style="stroke:#222222;stroke-width:1;"/><g class="entity" data-qualified-name="GMN2" data-source-line="55" id="ent0003"><path d="M2212.78,49 L2212.78,435.16 L2047.07,509.57 L2212.78,443.16 L2212.78,673 A8,8 0 0 0 2220.78,681 L2573.6062,681 A8,8 0 0 0 2581.6062,673 L2581.6062,51 L2571.6062,41 L2220.78,41 A8,8 0 0 0 2212.78,49" fill="#FFF7D6" style="stroke:#B45309;stroke-width:0.5;"/><path d="M2571.6062,41 L2571.6062,47 A4,4 0 0 0 2575.6062,51 L2581.6062,51 L2571.6062,41" fill="#FFF7D6" style="stroke:#B45309;stroke-width:0.5;"/><text fill="#334155" font-family="Helvetica" font-size="14" lengthAdjust="spacing" textLength="101.165" x="2218.78" y="56.7803">shared diagram:</text><text fill="#334155" font-family="Helvetica" font-size="14" lengthAdjust="spacing" textLength="331.4814" x="2218.78" y="70.7803">shared/diagrams/shared-controller-state-machine.svg</text><text fill="#334155" font-family="Helvetica" font-size="14" lengthAdjust="spacing" textLength="304.2744" x="2218.78" y="84.7803">Start from the shared controller phase model and</text><text fill="#334155" font-family="Helvetica" font-size="14" lengthAdjust="spacing" textLength="261.4678" x="2218.78" y="98.7803">specialize imported provider states, delete</text><text fill="#334155" font-family="Helvetica" font-size="14" lengthAdjust="spacing" textLength="184.4336" x="2218.78" y="112.7803">targets, and failure exits here.</text><text fill="#334155" font-family="Helvetica" font-size="14" lengthAdjust="spacing" textLength="281.709" x="2218.78" y="126.7803">archetype batch: Generated service-manager</text><text fill="#334155" font-family="Helvetica" font-size="14" lengthAdjust="spacing" textLength="287.9229" x="2218.78" y="140.7803">controllers map provider states into the shared</text><text fill="#334155" font-family="Helvetica" font-size="14" lengthAdjust="spacing" textLength="261.4609" x="2218.78" y="154.7803">controller phases with explicit finalizer and</text><text fill="#334155" font-family="Helvetica" font-size="14" lengthAdjust="spacing" textLength="105.8477" x="2218.78" y="168.7803">requeue policies.</text><text fill="#334155" font-family="Helvetica" font-size="14" lengthAdjust="spacing" textLength="85.5928" x="2218.78" y="182.7803">service: nosql</text><text fill="#334155" font-family="Helvetica" font-size="14" lengthAdjust="spacing" textLength="63.8203" x="2218.78" y="196.7803">slug: table</text><text fill="#334155" font-family="Helvetica" font-size="14" lengthAdjust="spacing" textLength="68.4824" x="2218.78" y="210.7803">kind: Table</text><text fill="#334155" font-family="Helvetica" font-size="14" lengthAdjust="spacing" textLength="241.2402" x="2218.78" y="224.7803">archetype: generated-service-manager</text><text fill="#334155" font-family="Helvetica" font-size="14" lengthAdjust="spacing" textLength="156.4063" x="2218.78" y="238.7803">status/finalizer: required /</text><text fill="#334155" font-family="Helvetica" font-size="14" lengthAdjust="spacing" textLength="174.3027" x="2218.78" y="252.7803">retain-until-confirmed-delete</text><text fill="#334155" font-family="Helvetica" font-size="14" lengthAdjust="spacing" textLength="272.3984" x="2218.78" y="266.7803">requeue: provisioning, updating, terminating</text><text fill="#334155" font-family="Helvetica" font-size="14" lengthAdjust="spacing" textLength="265.3369" x="2218.78" y="280.7803">provider states: create CREATING; update</text><text fill="#334155" font-family="Helvetica" font-size="14" lengthAdjust="spacing" textLength="192.165" x="2218.78" y="294.7803">UPDATING; delete DELETING</text><text fill="#334155" font-family="Helvetica" font-size="14" lengthAdjust="spacing" textLength="289.502" x="2218.78" y="308.7803">supported drift: compartment_id, defined_tags,</text><text fill="#334155" font-family="Helvetica" font-size="14" lengthAdjust="spacing" textLength="286.7471" x="2218.78" y="322.7803">freeform_tags, table_limits.capacity_mode (+3</text><text fill="#334155" font-family="Helvetica" font-size="14" lengthAdjust="spacing" textLength="36.5586" x="2218.78" y="336.7803">more)</text><text fill="#334155" font-family="Helvetica" font-size="14" lengthAdjust="spacing" textLength="230.3301" x="2218.78" y="350.7803">reject before mutate: force-new fields</text><text fill="#334155" font-family="Helvetica" font-size="14" lengthAdjust="spacing" textLength="167.3164" x="2218.78" y="364.7803">is_auto_reclaimable, name</text><text fill="#334155" font-family="Helvetica" font-size="14" lengthAdjust="spacing" textLength="201.5508" x="2218.78" y="378.7803">create-only fields: ddl_statement</text><text fill="#334155" font-family="Helvetica" font-size="14" lengthAdjust="spacing" textLength="211.668" x="2218.78" y="392.7803">list lookup: oci_nosql_tables filters</text><text fill="#334155" font-family="Helvetica" font-size="14" lengthAdjust="spacing" textLength="295.3193" x="2218.78" y="406.7803">compartment_id, name, state=ALL; exact-name</text><text fill="#334155" font-family="Helvetica" font-size="14" lengthAdjust="spacing" textLength="311.2813" x="2218.78" y="420.7803">unique match only; duplicate exact-name matches</text><text fill="#334155" font-family="Helvetica" font-size="14" lengthAdjust="spacing" textLength="17.8965" x="2218.78" y="434.7803">fail</text><text fill="#334155" font-family="Helvetica" font-size="14" lengthAdjust="spacing" textLength="89.4961" x="2218.78" y="448.7803">conflicts: none</text><text fill="#334155" font-family="Helvetica" font-size="14" lengthAdjust="spacing" textLength="104.3164" x="2218.78" y="462.7803">open gaps: none</text><text fill="#334155" font-family="Helvetica" font-size="14" lengthAdjust="spacing" textLength="291.0264" x="2218.78" y="476.7803">Handwritten Table bind first checks the tracked</text><text fill="#334155" font-family="Helvetica" font-size="14" lengthAdjust="spacing" textLength="302.7158" x="2218.78" y="490.7803">OCID, then searches ListTables in the requested</text><text fill="#334155" font-family="Helvetica" font-size="14" lengthAdjust="spacing" textLength="293.3711" x="2218.78" y="504.7803">compartment, and rereads a single exact-name</text><text fill="#334155" font-family="Helvetica" font-size="14" lengthAdjust="spacing" textLength="259.1436" x="2218.78" y="518.7803">match through GetTable before reusing it.</text><text fill="#334155" font-family="Helvetica" font-size="14" lengthAdjust="spacing" textLength="319.8535" x="2218.78" y="532.7803">Create, compartment move, update, and delete use</text><text fill="#334155" font-family="Helvetica" font-size="14" lengthAdjust="spacing" textLength="239.6611" x="2218.78" y="546.7803">read-after-write confirmation instead of</text><text fill="#334155" font-family="Helvetica" font-size="14" lengthAdjust="spacing" textLength="255.9717" x="2218.78" y="560.7803">explicit work-request polling; CREATING,</text><text fill="#334155" font-family="Helvetica" font-size="14" lengthAdjust="spacing" textLength="347.8262" x="2218.78" y="574.7803">UPDATING, and DELETING keep one-minute requeues</text><text fill="#334155" font-family="Helvetica" font-size="14" lengthAdjust="spacing" textLength="222.5439" x="2218.78" y="588.7803">until ACTIVE or delete confirmation.</text><text fill="#334155" font-family="Helvetica" font-size="14" lengthAdjust="spacing" textLength="313.5576" x="2218.78" y="602.7803">DDL remains create-only; compartment moves run</text><text fill="#334155" font-family="Helvetica" font-size="14" lengthAdjust="spacing" textLength="265.3848" x="2218.78" y="616.7803">before table-limit or tag updates when both</text><text fill="#334155" font-family="Helvetica" font-size="14" lengthAdjust="spacing" textLength="154.0752" x="2218.78" y="630.7803">kinds of drift are present.</text><text fill="#334155" font-family="Helvetica" font-size="14" lengthAdjust="spacing" textLength="269.2471" x="2218.78" y="644.7803">Delete retains the finalizer until GetTable or</text><text fill="#334155" font-family="Helvetica" font-size="14" lengthAdjust="spacing" textLength="286.3643" x="2218.78" y="658.7803">ListTables confirms the Table is deleted or not</text><text fill="#334155" font-family="Helvetica" font-size="14" lengthAdjust="spacing" textLength="38.9238" x="2218.78" y="672.7803">found.</text></g><g class="entity" data-qualified-name="GMN5" data-source-line="102" id="ent0006"><path d="M2916.61,747 L2916.61,755.16 L2448.55,738.25 L2916.61,763.16 L2916.61,783 A8,8 0 0 0 2924.61,791 L3170.8502,791 A8,8 0 0 0 3178.8502,783 L3178.8502,749 L3168.8502,739 L2924.61,739 A8,8 0 0 0 2916.61,747" fill="#FFF7D6" style="stroke:#B45309;stroke-width:0.5;"/><path d="M3168.8502,739 L3168.8502,745 A4,4 0 0 0 3172.8502,749 L3178.8502,749 L3168.8502,739" fill="#FFF7D6" style="stroke:#B45309;stroke-width:0.5;"/><text fill="#334155" font-family="Helvetica" font-size="14" lengthAdjust="spacing" textLength="136.9717" x="2922.61" y="754.7803">delete policy: required</text><text fill="#334155" font-family="Helvetica" font-size="14" lengthAdjust="spacing" textLength="241.2402" x="2922.61" y="768.7803">delete observe: GetTable or ListTables</text><text fill="#334155" font-family="Helvetica" font-size="14" lengthAdjust="spacing" textLength="157.1855" x="2922.61" y="782.7803">delete targets: DELETED</text></g><!--link *start* to observe--><g class="link" data-entity-1="ent0002" data-entity-2="ent0002" data-link-type="dependency" data-source-line="32" id="lnk3"><path d="M26.29,688 C48.57,688 101.45,688 158.56,688" fill="none" id="*start*-to-observe" style="stroke:#0F172A;stroke-width:1;"/><polygon fill="#0F172A" points="164.56,688,155.56,684,159.56,688,155.56,692,164.56,688" style="stroke:#0F172A;stroke-width:1;"/><text fill="#000000" font-family="Helvetica" font-size="14" lengthAdjust="spacing" textLength="77.041" x="57" y="683.7803">CreateTable</text></g><!--link observe to resolve_by_lookup--><g class="link" data-entity-1="ent0002" data-entity-2="ent0007" data-link-type="dependency" data-source-line="33" id="lnk4"><path d="M429.64,672.05 C520.55,661.01 631.3337,647.5731 701.1837,639.0931" fill="none" id="observe-to-resolve_by_lookup" style="stroke:#0F172A;stroke-width:1;"/><polygon fill="#0F172A" points="707.14,638.37,697.7235,635.4838,702.1764,638.9726,698.6877,643.4255,707.14,638.37" style="stroke:#0F172A;stroke-width:1;"/><text fill="#000000" font-family="Helvetica" font-size="14" lengthAdjust="spacing" textLength="145.5029" x="460.36" y="646.8403">tracked identity missing</text></g><!--link resolve_by_lookup to evaluate_ready--><g class="link" data-entity-1="ent0007" data-entity-2="ent0003" data-link-type="dependency" data-source-line="34" id="lnk5"><path d="M830.57,619.58 C944.1,598.19 1178.77,553.79 1196.36,549 C1206.07,546.36 1210.6038,545.0543 1220.3838,541.7043" fill="none" id="resolve_by_lookup-to-evaluate_ready" style="stroke:#0F172A;stroke-width:1;"/><polygon fill="#0F172A" points="1226.06,539.76,1216.2494,538.8923,1221.3298,541.3803,1218.8419,546.4606,1226.06,539.76" style="stroke:#0F172A;stroke-width:1;"/><text fill="#000000" font-family="Helvetica" font-size="14" lengthAdjust="spacing" textLength="154.0889" x="986.86" y="530.7803">lookup or create reaches</text><text fill="#000000" font-family="Helvetica" font-size="14" lengthAdjust="spacing" textLength="50.5654" x="1038.6217" y="544.7803">ACTIVE</text></g><!--link resolve_by_lookup to retryable--><g class="link" data-entity-1="ent0007" data-entity-2="ent0005" data-link-type="dependency" data-source-line="35" id="lnk6"><path d="M830.63,633.87 C938.21,638.95 1152.8067,649.0973 1237.5967,653.0973" fill="none" id="resolve_by_lookup-to-retryable" style="stroke:#0F172A;stroke-width:1;"/><polygon fill="#0F172A" points="1243.59,653.38,1234.7885,648.9603,1238.5956,653.1444,1234.4115,656.9514,1243.59,653.38" style="stroke:#0F172A;stroke-width:1;"/><text fill="#000000" font-family="Helvetica" font-size="14" lengthAdjust="spacing" textLength="154.0342" x="986.86" y="620.5403">OCI state in CREATING,</text><text fill="#000000" font-family="Helvetica" font-size="14" lengthAdjust="spacing" textLength="150.1309" x="988.8117" y="634.5403">UPDATING, DELETING</text></g><!--link resolve_by_lookup to failed--><g class="link" data-entity-1="ent0007" data-entity-2="ent0006" data-link-type="dependency" data-source-line="36" id="lnk7"><path d="M830.63,648.11 C942.69,679.65 1171.5847,744.0834 1247.6747,765.5134" fill="none" id="resolve_by_lookup-to-failed" style="stroke:#0F172A;stroke-width:1;"/><polygon fill="#0F172A" points="1253.45,767.14,1245.8714,760.8499,1248.6372,765.7845,1243.7026,768.5504,1253.45,767.14" style="stroke:#0F172A;stroke-width:1;"/><text fill="#000000" font-family="Helvetica" font-size="14" lengthAdjust="spacing" textLength="263.7783" x="932.36" y="673.0303">unresolved OCI error or non-success state</text></g><!--link observe to evaluate_ready--><g class="link" data-entity-1="ent0002" data-entity-2="ent0003" data-link-type="dependency" data-source-line="37" id="lnk8"><path d="M374.96,656.64 C401.45,646.43 431.47,635.55 459.36,627 C665.5,563.82 717.22,540.06 931.36,515 C1035.33,502.83 1152.0497,509.0341 1219.9897,514.5541" fill="none" id="observe-to-evaluate_ready" style="stroke:#0F172A;stroke-width:1;"/><polygon fill="#0F172A" points="1225.97,515.04,1217.3235,510.3243,1220.9864,514.6351,1216.6756,518.298,1225.97,515.04" style="stroke:#0F172A;stroke-width:1;"/><text fill="#000000" font-family="Helvetica" font-size="14" lengthAdjust="spacing" textLength="128.3721" x="704.86" y="514.9503">OCI state in ACTIVE</text></g><!--link observe to retryable--><g class="link" data-entity-1="ent0002" data-entity-2="ent0005" data-link-type="dependency" data-source-line="38" id="lnk9"><path d="M429.47,692.33 C492.11,694.38 568.11,696.85 636.36,699 C885.16,706.84 957.72,778.79 1196.36,708 C1207.77,704.62 1226.445,692.3638 1245.305,678.9138" fill="none" id="observe-to-retryable" style="stroke:#0F172A;stroke-width:1;"/><polygon fill="#0F172A" points="1250.19,675.43,1240.54,677.3989,1246.1191,678.3331,1245.185,683.9123,1250.19,675.43" style="stroke:#0F172A;stroke-width:1;"/><text fill="#000000" font-family="Helvetica" font-size="14" lengthAdjust="spacing" textLength="154.0342" x="691.86" y="680.7803">OCI state in CREATING,</text><text fill="#000000" font-family="Helvetica" font-size="14" lengthAdjust="spacing" textLength="150.1309" x="693.8117" y="694.7803">UPDATING, DELETING</text></g><!--link observe to failed--><g class="link" data-entity-1="ent0002" data-entity-2="ent0006" data-link-type="dependency" data-source-line="39" id="lnk10"><path d="M429.52,718.76 C491.83,732.03 567.56,746.26 636.36,754 C875.8,780.92 1162.4516,776.7695 1247.5616,774.7895" fill="none" id="observe-to-failed" style="stroke:#0F172A;stroke-width:1;"/><polygon fill="#0F172A" points="1253.56,774.65,1244.4694,770.8604,1248.5614,774.7663,1244.6555,778.8582,1253.56,774.65" style="stroke:#0F172A;stroke-width:1;"/><text fill="#000000" font-family="Helvetica" font-size="14" lengthAdjust="spacing" textLength="263.7783" x="637.36" y="749.7803">unresolved OCI error or non-success state</text></g><!--link evaluate_ready to reject_unsupported_drift--><g class="link" data-entity-1="ent0003" data-entity-2="ent0008" data-link-type="dependency" data-source-line="40" id="lnk11"><path d="M1302.71,540.23 C1318.16,552.71 1339.63,567.84 1361.32,576 C1429.29,601.59 1506.1525,608.9377 1565.3325,610.6377" fill="none" id="evaluate_ready-to-reject_unsupported_drift" style="stroke:#0F172A;stroke-width:1;"/><polygon fill="#0F172A" points="1571.33,610.81,1562.4486,606.5532,1566.3321,610.6664,1562.2189,614.5499,1571.33,610.81" style="stroke:#0F172A;stroke-width:1;"/><text fill="#000000" font-family="Helvetica" font-size="14" lengthAdjust="spacing" textLength="143.9512" x="1377.82" y="557.7803">force-new or conflicting</text><text fill="#000000" font-family="Helvetica" font-size="14" lengthAdjust="spacing" textLength="80.9375" x="1409.3268" y="571.7803">drift detected</text></g><!--link reject_unsupported_drift to ready--><g class="link" data-entity-1="ent0008" data-entity-2="ent0004" data-link-type="dependency" data-source-line="41" id="lnk12"><path d="M1727.32,609.06 C1793.2,605.77 1889.3,595 1966.32,562 C1978.36,556.84 1985.4802,552.2363 1994.9202,544.2463" fill="none" id="reject_unsupported_drift-to-ready" style="stroke:#0F172A;stroke-width:1;"/><polygon fill="#0F172A" points="1999.5,540.37,1990.0461,543.1313,1995.6835,543.6003,1995.2146,549.2376,1999.5,540.37" style="stroke:#0F172A;stroke-width:1;"/><text fill="#000000" font-family="Helvetica" font-size="14" lengthAdjust="spacing" textLength="203.8818" x="1762.32" y="557.7803">wait for spec or live state change</text></g><!--link evaluate_ready to apply_update--><g class="link" data-entity-1="ent0003" data-entity-2="ent0009" data-link-type="dependency" data-source-line="42" id="lnk13"><path d="M1331.7,502.91 C1341.48,500.03 1351.66,497.24 1361.32,495 C1446.35,475.24 1541.5658,461.9197 1598.2358,454.8797" fill="none" id="evaluate_ready-to-apply_update" style="stroke:#0F172A;stroke-width:1;"/><polygon fill="#0F172A" points="1604.19,454.14,1594.7655,451.28,1599.2281,454.7564,1595.7518,459.219,1604.19,454.14" style="stroke:#0F172A;stroke-width:1;"/><text fill="#000000" font-family="Helvetica" font-size="14" lengthAdjust="spacing" textLength="163.4199" x="1367.7751" y="417.8003">supported mutable drift for</text><text fill="#000000" font-family="Helvetica" font-size="14" lengthAdjust="spacing" textLength="104.2686" x="1397.3508" y="431.8003">compartment_id,</text><text fill="#000000" font-family="Helvetica" font-size="14" lengthAdjust="spacing" textLength="174.3301" x="1362.32" y="445.8003">defined_tags, freeform_tags</text><text fill="#000000" font-family="Helvetica" font-size="14" lengthAdjust="spacing" textLength="61.0723" x="1418.9489" y="459.8003">(+4 more)</text></g><!--link apply_update to ready--><g class="link" data-entity-1="ent0009" data-entity-2="ent0004" data-link-type="dependency" data-source-line="43" id="lnk14"><path d="M1694.88,451.45 C1756.86,455.76 1872.1,467.07 1966.32,495 C1976.36,497.98 1981.5025,499.9001 1990.6125,504.2801" fill="none" id="apply_update-to-ready" style="stroke:#0F172A;stroke-width:1;"/><polygon fill="#0F172A" points="1996.02,506.88,1989.642,499.3752,1991.5138,504.7135,1986.1756,506.5852,1996.02,506.88" style="stroke:#0F172A;stroke-width:1;"/><text fill="#000000" font-family="Helvetica" font-size="14" lengthAdjust="spacing" textLength="141.6543" x="1793.32" y="453.4503">update path completes</text></g><!--link evaluate_ready to ready--><g class="link" data-entity-1="ent0003" data-entity-2="ent0004" data-link-type="dependency" data-source-line="44" id="lnk15"><path d="M1331.63,520 C1478.06,520 1885.25,520 1990.11,520" fill="none" id="evaluate_ready-to-ready" style="stroke:#0F172A;stroke-width:1;"/><polygon fill="#0F172A" points="1996.11,520,1987.11,516,1991.11,520,1987.11,524,1996.11,520" style="stroke:#0F172A;stroke-width:1;"/><text fill="#000000" font-family="Helvetica" font-size="14" lengthAdjust="spacing" textLength="162.6406" x="1568.32" y="515.7803">no supported drift remains</text></g><!--link ready to ready--><g class="link" data-entity-1="ent0004" data-entity-2="ent0004" data-link-type="dependency" data-source-line="45" id="lnk16"><path d="M2004.35,499.69 C1997,482.73 2002.74,465 2021.55,465 C2040.36,465 2048.4858,477.2247 2041.1358,494.1847" fill="none" id="ready-to-ready" style="stroke:#0F172A;stroke-width:1;"/><polygon fill="#0F172A" points="2038.75,499.69,2045.9989,493.0227,2040.7382,495.1023,2038.6586,489.8416,2038.75,499.69" style="stroke:#0F172A;stroke-width:1;"/><text fill="#000000" font-family="Helvetica" font-size="14" lengthAdjust="spacing" textLength="162.6406" x="1940.55" y="455.7803">no supported drift remains</text></g><!--link retryable to retryable--><g class="link" data-entity-1="ent0005" data-entity-2="ent0005" data-link-type="dependency" data-source-line="46" id="lnk17"><path d="M1251.75,634.69 C1240.18,617.73 1249.21,600 1278.84,600 C1308.47,600 1320.8813,612.7735 1309.3113,629.7335" fill="none" id="retryable-to-retryable" style="stroke:#0F172A;stroke-width:1;"/><polygon fill="#0F172A" points="1305.93,634.69,1314.3063,629.5094,1308.7477,630.5596,1307.6976,625.0011,1305.93,634.69" style="stroke:#0F172A;stroke-width:1;"/><text fill="#000000" font-family="Helvetica" font-size="14" lengthAdjust="spacing" textLength="136.9307" x="1210.84" y="590.7803">OCI remains retryable</text></g><!--link failed to failed--><g class="link" data-entity-1="ent0006" data-entity-2="ent0006" data-link-type="dependency" data-source-line="47" id="lnk18"><path d="M1253.44,755.97 C1239.41,738.36 1247.87,719 1278.84,719 C1309.81,719 1322.0087,733.6673 1307.9787,751.2773" fill="none" id="failed-to-failed" style="stroke:#0F172A;stroke-width:1;"/><polygon fill="#0F172A" points="1304.24,755.97,1312.9766,751.4234,1307.3556,752.0594,1306.7196,746.4384,1304.24,755.97" style="stroke:#0F172A;stroke-width:1;"/><text fill="#000000" font-family="Helvetica" font-size="14" lengthAdjust="spacing" textLength="132.2549" x="1212.84" y="709.7803">OCI remains terminal</text></g><!--link ready to delete_pending--><g class="link" data-entity-1="ent0004" data-entity-2="ent0010" data-link-type="dependency" data-source-line="48" id="lnk19"><path d="M2047.15,538.31 C2079.98,563.38 2139.07,610.67 2182.78,658 C2198.1,674.59 2193.76,686.83 2212.78,699 C2252.74,724.56 2300.7825,732.6123 2339.8525,735.1423" fill="none" id="ready-to-delete_pending" style="stroke:#0F172A;stroke-width:1;"/><polygon fill="#0F172A" points="2345.84,735.53,2337.1173,730.9568,2340.8505,735.2069,2336.6003,738.9401,2345.84,735.53" style="stroke:#0F172A;stroke-width:1;"/><text fill="#000000" font-family="Helvetica" font-size="14" lengthAdjust="spacing" textLength="104.3027" x="2077.78" y="558.8903">delete requested</text></g><!--link retryable to delete_pending--><g class="link" data-entity-1="ent0005" data-entity-2="ent0010" data-link-type="dependency" data-source-line="49" id="lnk20"><path d="M1314.29,657.33 C1434.19,665.48 1844.29,693.52 2182.78,719 C2238.75,723.21 2296.9598,727.8833 2340.2098,731.4033" fill="none" id="retryable-to-delete_pending" style="stroke:#0F172A;stroke-width:1;"/><polygon fill="#0F172A" points="2346.19,731.89,2337.5441,727.1731,2341.2065,731.4844,2336.8952,735.1467,2346.19,731.89" style="stroke:#0F172A;stroke-width:1;"/><text fill="#000000" font-family="Helvetica" font-size="14" lengthAdjust="spacing" textLength="104.3027" x="1811.82" y="684.3303">delete requested</text></g><!--link failed to delete_pending--><g class="link" data-entity-1="ent0006" data-entity-2="ent0010" data-link-type="dependency" data-source-line="50" id="lnk21"><path d="M1304.19,773.17 C1444.49,768.4 2144.1335,744.5841 2339.8135,737.9241" fill="none" id="failed-to-delete_pending" style="stroke:#0F172A;stroke-width:1;"/><polygon fill="#0F172A" points="2345.81,737.72,2336.6791,734.0285,2340.8129,737.8901,2336.9513,742.0238,2345.81,737.72" style="stroke:#0F172A;stroke-width:1;"/><text fill="#000000" font-family="Helvetica" font-size="14" lengthAdjust="spacing" textLength="104.3027" x="1811.82" y="746.4303">delete requested</text></g><!--link delete_pending to delete_cleanup_blocked--><g class="link" data-entity-1="ent0010" data-entity-2="ent0012" data-link-type="dependency" data-source-line="51" id="lnk22"><path d="M2448.55,731.96 C2561.79,722.88 2831.1092,701.2896 2965.0492,690.5496" fill="none" id="delete_pending-to-delete_cleanup_blocked" style="stroke:#0F172A;stroke-width:1;"/><polygon fill="#0F172A" points="2971.03,690.07,2961.7391,686.8022,2966.046,690.4696,2962.3785,694.7766,2971.03,690.07" style="stroke:#0F172A;stroke-width:1;"/><text fill="#000000" font-family="Helvetica" font-size="14" lengthAdjust="spacing" textLength="273.1436" x="2612.61" y="693.7303">cleanup or finalizer release remains blocked</text></g><!--link delete_cleanup_blocked to deleted--><g class="link" data-entity-1="ent0012" data-entity-2="ent0011" data-link-type="dependency" data-source-line="52" id="lnk23"><path d="M3124.25,684 C3224.17,684 3389.48,684 3456.71,684" fill="none" id="delete_cleanup_blocked-to-deleted" style="stroke:#0F172A;stroke-width:1;"/><polygon fill="#0F172A" points="3462.71,684,3453.71,680,3457.71,684,3453.71,688,3462.71,684" style="stroke:#0F172A;stroke-width:1;"/><text fill="#000000" font-family="Helvetica" font-size="14" lengthAdjust="spacing" textLength="222.5645" x="3209.85" y="679.7803">retry delete completion until allowed</text></g><!--link deleted to deleted--><g class="link" data-entity-1="ent0011" data-entity-2="ent0011" data-link-type="dependency" data-source-line="53" id="lnk24"><path d="M3464.79,663.69 C3453.17,646.73 3462.23,629 3491.98,629 C3521.72,629 3534.1812,641.7803 3522.5612,658.7403" fill="none" id="deleted-to-deleted" style="stroke:#0F172A;stroke-width:1;"/><polygon fill="#0F172A" points="3519.17,663.69,3527.5567,658.5263,3521.996,659.5653,3520.9571,654.0046,3519.17,663.69" style="stroke:#0F172A;stroke-width:1;"/><text fill="#000000" font-family="Helvetica" font-size="14" lengthAdjust="spacing" textLength="92.5859" x="3445.98" y="619.7803">terminal stutter</text></g><?plantuml-src dLVRRjms47tdLn3jIzgixBXsBbsZ1HAlSm7S94YSljI5m9L6AzOKgP2KDzkY_zuPahgiR2Dei2yYEHpEvSoPMNSjTIkiQBYhHMcsKczu9PG3veQJjIYkDzPqkZmpobZ-VLNWhvn8b529JlcNHlkteW7-6jGDU5c8ksK-oh-17vrC3eMrPfkqFwgEdluqlQcDXnUtRAYgf-MJkPIn9TWaiJvvVFpevva4FP_EZuzFZXu_dfm7zOMn6Ym_UiAyz0huHoyyyDz4KKiDF4CbxhCwl1HhDGsH2rB_C7v7i9vLeYheP6fSSfBpQZHes4DjjjyyAa-WV8QRC6XCSlyo1PNdtd0hDxNdfRHGU6aqgsK979hMxp3ghh2o3TlHoE_UhHtO6_YE2yTD_EwFpc-4wl3h0uXo5mGWxUIMjdgvyNosxUsE8fEEqge_VYcaWZASLU6JfUVvCkZXheLYmRt5448POjgv1RgW0AzBxK7xnPKMkkH5Posk-BkpDrp92efTCRxp0Pn1_BtONHXptRN9cB2NhtUv2hkZy5yOjK_QTMrhh8ToPMNbqnqwohlnB2_fiB_wl6tLxbDRuYB82rhdNTZePLR1-FUOFAoi81NToTkujIzNJYJA_QCp1K9txGjbA3XJJKKyoTVnYFtnuvyyotxbOt3FCBeU8cRxNPAu5HIKxQEF4D9O0JlUIEV8qDl2f68V7tW_dI5EY_0gPRQemLtfvsUNRtu_lqVF01PKGKcDlalDppwSFxzyy_OL9lxJ-rNyvAlpYtFwkaTPH1TgwdGIA8DIG9QnP9esEdDTKO1pyQMziDpoQS-WvCP-7B_9-AcARp1vPcOqv6x4ejxAs08o3TkG6gCh9P4izEPAHuaIeLGGwkxL4H-84TaAwKbbA5dIg2Gw4lqkQg4tTvetBH1KCZp0cyw7yCM7KE-LBao3rEeRH64kImmWzWzau3BtOeEaK5a0b6l2yae_U7Z26sFX1xRtnjJajDKANtDIJhNZxWvYlA3DnC9ecOL6IEtO_nJkqN4NLfBKX2qJ5FPGCPNqO1kfXPfOiSyfA9yuqyBd3bpCwjI8hyjFZFYwy4nYScd6JNWvxH1cAl82Hm6Bgd3NmU1YJsNtQ1aVA4FhGDTwer9ciTrX9Ncfk53AR0TLyxjzB16wdSS5enaXzLDJzTsj5fQoAiK6U_qohG_JsXt6TOP5vQrH2cmM2Y5huj1mu6usx2ErT4IjQRYlWIULunNUrXI0ng1j73iSeyAI8JnSDWbNhJKtoCis5jhG6Xdgte37DRL6obndiVz_aTxn6YmSC66HWlsk1HnFV54l-Il08KUGJg8WMP2nMcmm0AD9ZZUYdRz9RTXCN61p5npVIgmm-D8YmH1934achm9cEgn2GwVW3bXwVna7A-PKjy6qX4B0wQfSyjYs1W-MVDFRdirjZnF3uV3aCc1KKgGFgG8GMrb01UMgahP17Ic4oR1bzDSXVX39YqWQuIiXXHPi5fDbt-fwkZzDPCDwqZ_juJbm_umibdp6TtoFxjWUtIrYV78b6qpnGI5QWP7UvGGU_k3XCOjC68cSh-aY18hrCEq3bGHLEYPTBZfla00B9MH3cXTSunJFebUPqMgNXB7sIvK7hybGfgJpgUClkIba7fAO1_Dmo9CAe-ROt3LIleYn--NvnSKfWaKKFWjlTbfY8X1v25DEBsFeEe8InNUKYmB8tuHsrhSpHoZIsCoHYVX6jFtwDK9lQoKMk8vmucj9bI8jcezgYciN89rc7uPikrhGZiRo2CXp_09TlOn-OMCdwP7_9Wx66hH0p84J8QVHIKqjPz4rN-D_X4sDXUYJHJ5D5ZgwmgK_O75iMqoXWGHn0mcM4DzAoEeSX8QGYGg3df6xm1FCHU1395PFKxQfs52TMsEli-G85QN2jq_7iOMDKmizrQENNmCWWskiFAcxlXMW3XOvDuv8HF43Auzs7B3Lwc9W-Wd6JcyvYbsnqon59e0g2vWdpLW8AGp8E9IfjV5re0n7p1rRC38K5ZGuL8ZFzctBnpQAAHp9AHe-PCDODabuCZ_UYG9o6DFZSEPPHV_v3XZsmF17SzP9PbD_YakWmTr8K_r-cWoNKuCc2Ep54kylOsBELyFZ_m40?></g></svg>