<?plantuml 1.2026.1?><svg xmlns="http://www.w3.org/2000/svg" xmlns:xlink="http://www.w3.org/1999/xlink" contentStyleType="text/css" data-diagram-type="SEQUENCE" height="1964px" preserveAspectRatio="none" style="width:1215px;height:1964px;background:#FCFCFD;" version="1.1" viewBox="0 0 1215 1964" width="1215px" zoomAndPan="magnify"><title>Sequence - apmtraces/ApmTracesLog</title><defs/><g><rect fill="#FCFCFD" height="1964" style="stroke:none;stroke-width:1;" width="1215" x="0" y="0"/><text fill="#000000" font-family="Helvetica" font-size="14" font-weight="bold" lengthAdjust="spacing" textLength="254.4199" x="486.7688" y="25.7803">Sequence - apmtraces/ApmTracesLog</text><rect fill="none" height="290" rx="8" ry="8" style="stroke:#CBD5E1;stroke-width:1.5;" width="738.3779" x="453.8457" y="314"/><rect fill="none" height="146" rx="8" ry="8" style="stroke:#CBD5E1;stroke-width:1.5;" width="475.9575" x="706.2661" y="423"/><rect fill="none" height="44" rx="8" ry="8" style="stroke:#CBD5E1;stroke-width:1.5;" width="455.9575" x="716.2661" y="474"/><rect fill="none" height="798" rx="8" ry="8" style="stroke:#CBD5E1;stroke-width:1.5;" width="775.1118" x="433.8457" y="618"/><rect fill="none" height="246" rx="8" ry="8" style="stroke:#CBD5E1;stroke-width:1.5;" width="738.3779" x="443.8457" y="641"/><rect fill="none" height="44" rx="8" ry="8" style="stroke:#CBD5E1;stroke-width:1.5;" width="455.9575" x="716.2661" y="734"/><rect fill="none" height="88" rx="8" ry="8" style="stroke:#CBD5E1;stroke-width:1.5;" width="438.813" x="453.8457" y="792"/><rect fill="none" height="378" rx="8" ry="8" style="stroke:#CBD5E1;stroke-width:1.5;" width="755.1118" x="443.8457" y="989"/><rect fill="none" height="44" rx="8" ry="8" style="stroke:#CBD5E1;stroke-width:1.5;" width="438.813" x="453.8457" y="1088"/><rect fill="none" height="116" rx="8" ry="8" style="stroke:#CBD5E1;stroke-width:1.5;" width="475.9575" x="706.2661" y="1146"/><rect fill="none" height="44" rx="8" ry="8" style="stroke:#CBD5E1;stroke-width:1.5;" width="455.9575" x="716.2661" y="1211"/><g class="participant-lifeline" data-entity-uid="part1" data-qualified-name="Kubernetes" id="part1-lifeline"><g><title>Kubernetes</title><rect fill="#000000" fill-opacity="0.00000" height="1843" width="8" x="39.8032" y="114"/><line style="stroke:#94A3B8;stroke-width:0.5;stroke-dasharray:5,5;" x1="43" x2="43" y1="114" y2="1957"/></g></g><g class="participant-lifeline" data-entity-uid="part2" data-qualified-name="Controller" id="part2-lifeline"><g><title>Controller</title><rect fill="#000000" fill-opacity="0.00000" height="1843" width="8" x="277.0435" y="114"/><line style="stroke:#94A3B8;stroke-width:0.5;stroke-dasharray:5,5;" x1="280.6987" x2="280.6987" y1="114" y2="1957"/></g></g><g class="participant-lifeline" data-entity-uid="part3" data-qualified-name="BaseReconciler" id="part3-lifeline"><g><title>BaseReconciler</title><rect fill="#000000" fill-opacity="0.00000" height="1843" width="8" x="515.8696" y="114"/><line style="stroke:#94A3B8;stroke-width:0.5;stroke-dasharray:5,5;" x1="519.8457" x2="519.8457" y1="114" y2="1957"/></g></g><g class="participant-lifeline" data-entity-uid="part4" data-qualified-name="ServiceManager" id="part4-lifeline"><g><title>OSOKServiceManager</title><rect fill="#000000" fill-opacity="0.00000" height="1843" width="8" x="800.4624" y="114"/><line style="stroke:#94A3B8;stroke-width:0.5;stroke-dasharray:5,5;" x1="804.2661" x2="804.2661" y1="114" y2="1957"/></g></g><g class="participant-lifeline" data-entity-uid="part5" data-qualified-name="OCI" id="part5-lifeline"><g><title>OCI</title><rect fill="#000000" fill-opacity="0.00000" height="1843" width="8" x="1138.7788" y="114"/><line style="stroke:#94A3B8;stroke-width:0.5;stroke-dasharray:5,5;" x1="1142.334" x2="1142.334" y1="114" y2="1957"/></g></g><g class="participant participant-head" data-entity-uid="part1" data-qualified-name="Kubernetes" id="part1-head"><text fill="#000000" font-family="Helvetica" font-size="14" lengthAdjust="spacing" textLength="71.6064" x="5" y="110.7803">Kubernetes</text><ellipse cx="43.8032" cy="48.5" fill="#E2E8F0" rx="8" ry="8" style="stroke:#0F172A;stroke-width:0.5;"/><path d="M43.8032,56.5 L43.8032,83.5 M30.8032,64.5 L56.8032,64.5 M43.8032,83.5 L30.8032,98.5 M43.8032,83.5 L56.8032,98.5" fill="none" style="stroke:#0F172A;stroke-width:0.5;"/></g><g class="participant participant-head" data-entity-uid="part2" data-qualified-name="Controller" id="part2-head"><rect fill="#E2E8F0" height="28" rx="8" ry="8" style="stroke:#0F172A;stroke-width:0.5;" width="74.6895" x="243.6987" y="85"/><text fill="#0F172A" font-family="Helvetica" font-size="14" lengthAdjust="spacing" textLength="60.6895" x="250.6987" y="102.7803">Controller</text></g><g class="participant participant-head" data-entity-uid="part3" data-qualified-name="BaseReconciler" id="part3-head"><rect fill="#E2E8F0" height="28" rx="8" ry="8" style="stroke:#0F172A;stroke-width:0.5;" width="112.0479" x="463.8457" y="85"/><text fill="#0F172A" font-family="Helvetica" font-size="14" lengthAdjust="spacing" textLength="98.0479" x="470.8457" y="102.7803">BaseReconciler</text></g><g class="participant participant-head" data-entity-uid="part4" data-qualified-name="ServiceManager" id="part4-head"><rect fill="#E2E8F0" height="28" rx="8" ry="8" style="stroke:#0F172A;stroke-width:0.5;" width="156.3926" x="726.2661" y="85"/><text fill="#0F172A" font-family="Helvetica" font-size="14" lengthAdjust="spacing" textLength="142.3926" x="733.2661" y="102.7803">OSOKServiceManager</text></g><g class="participant participant-head" data-entity-uid="part5" data-qualified-name="OCI" id="part5-head"><rect fill="#E2E8F0" height="28" rx="8" ry="8" style="stroke:#0F172A;stroke-width:0.5;" width="38.8896" x="1123.334" y="85"/><text fill="#0F172A" font-family="Helvetica" font-size="14" lengthAdjust="spacing" textLength="24.8896" x="1130.334" y="102.7803">OCI</text></g><path d="M455,137 L455,187 A8,8 0 0 0 463,195 L860,195 A8,8 0 0 0 868,187 L868,139 L858,129 L463,129 A8,8 0 0 0 455,137" fill="#FFF7D6" style="stroke:#B45309;stroke-width:0.5;"/><path d="M858,129 L858,135 A4,4 0 0 0 862,139 L868,139 L858,129" fill="#FFF7D6" style="stroke:#B45309;stroke-width:0.5;"/><text fill="#334155" font-family="Helvetica" font-size="14" lengthAdjust="spacing" textLength="111.2891" x="503.7107" y="144.7803">shared resolution:</text><text fill="#334155" font-family="Helvetica" font-size="14" lengthAdjust="spacing" textLength="307.3916" x="503.7107" y="158.7803">shared/diagrams/shared-resolution-sequence.svg</text><text fill="#334155" font-family="Helvetica" font-size="14" lengthAdjust="spacing" textLength="88.7305" x="503.7107" y="172.7803">shared delete:</text><text fill="#334155" font-family="Helvetica" font-size="14" lengthAdjust="spacing" textLength="284.833" x="503.7107" y="186.7803">shared/diagrams/shared-delete-sequence.svg</text><g class="message" data-entity-1="part1" data-entity-2="part2" id="msg1"><polygon fill="#0F172A" points="269.0435,216,279.0435,220,269.0435,224,273.0435,220" style="stroke:#0F172A;stroke-width:1;"/><line style="stroke:#0F172A;stroke-width:1;" x1="43.8032" x2="275.0435" y1="220" y2="220"/><text fill="#000000" font-family="Helvetica" font-size="14" lengthAdjust="spacing" textLength="213.2402" x="50.8032" y="214.7803">enqueue ApmTracesLog reconcile</text></g><g class="message" data-entity-1="part2" data-entity-2="part3" id="msg2"><polygon fill="#0F172A" points="507.8696,244,517.8696,248,507.8696,252,511.8696,248" style="stroke:#0F172A;stroke-width:1;"/><line style="stroke:#0F172A;stroke-width:1;" x1="281.0435" x2="513.8696" y1="248" y2="248"/><text fill="#000000" font-family="Helvetica" font-size="14" lengthAdjust="spacing" textLength="117.4961" x="288.0435" y="242.7803">Reconcile(request)</text></g><g class="message" data-entity-1="part3" data-entity-2="part4" id="msg3"><polygon fill="#0F172A" points="792.4624,272,802.4624,276,792.4624,280,796.4624,276" style="stroke:#0F172A;stroke-width:1;"/><line style="stroke:#0F172A;stroke-width:1;" x1="519.8696" x2="798.4624" y1="276" y2="276"/><text fill="#000000" font-family="Helvetica" font-size="14" lengthAdjust="spacing" textLength="204.6543" x="526.8696" y="270.7803">reconcile desired ApmTracesLog</text></g><path d="M461.8457,314 L515.1836,314 L515.1836,320 L505.1836,330 L453.8457,330 L453.8457,322 A8,8 0 0 1 461.8457,314" fill="#F8FAFC" style="stroke:#CBD5E1;stroke-width:1.5;"/><rect fill="none" height="290" rx="8" ry="8" style="stroke:#CBD5E1;stroke-width:1.5;" width="738.3779" x="453.8457" y="314"/><text fill="#000000" font-family="Helvetica" font-size="14" font-weight="bold" lengthAdjust="spacing" textLength="16.3379" x="468.8457" y="325.7803">alt</text><text fill="#000000" font-family="Helvetica" font-size="14" font-weight="bold" lengthAdjust="spacing" textLength="308.1094" x="530.1836" y="326.7803">[tracked or explicit OCI identity already exists]</text><g class="message" data-entity-1="part4" data-entity-2="part5" id="msg4"><polygon fill="#0F172A" points="1130.7788,346,1140.7788,350,1130.7788,354,1134.7788,350" style="stroke:#0F172A;stroke-width:1;"/><line style="stroke:#0F172A;stroke-width:1;" x1="804.4624" x2="1136.7788" y1="350" y2="350"/><text fill="#000000" font-family="Helvetica" font-size="14" lengthAdjust="spacing" textLength="117.4961" x="811.4624" y="344.7803">GetApmTracesLog</text></g><line style="stroke:#CBD5E1;stroke-width:1;stroke-dasharray:2,2;" x1="453.8457" x2="1192.2236" y1="359" y2="359"/><text fill="#000000" font-family="Helvetica" font-size="14" font-weight="bold" lengthAdjust="spacing" textLength="185.1582" x="458.8457" y="369.7803">[tracked identity is missing]</text><g class="message" data-entity-1="part4" data-entity-2="part5" id="msg5"><polygon fill="#0F172A" points="1130.7788,404,1140.7788,408,1130.7788,412,1134.7788,408" style="stroke:#0F172A;stroke-width:1;"/><line style="stroke:#0F172A;stroke-width:1;" x1="804.4624" x2="1136.7788" y1="408" y2="408"/><text fill="#000000" font-family="Helvetica" font-size="14" lengthAdjust="spacing" textLength="158.7168" x="811.4624" y="388.7803">ListApmTracesLog(filters:</text><text fill="#000000" font-family="Helvetica" font-size="14" lengthAdjust="spacing" textLength="143.1719" x="811.4624" y="402.7803">compartment_id, state)</text></g><path d="M714.2661,423 L767.604,423 L767.604,429 L757.604,439 L706.2661,439 L706.2661,431 A8,8 0 0 1 714.2661,423" fill="#F8FAFC" style="stroke:#CBD5E1;stroke-width:1.5;"/><rect fill="none" height="146" rx="8" ry="8" style="stroke:#CBD5E1;stroke-width:1.5;" width="475.9575" x="706.2661" y="423"/><text fill="#000000" font-family="Helvetica" font-size="14" font-weight="bold" lengthAdjust="spacing" textLength="16.3379" x="721.2661" y="434.7803">alt</text><text fill="#000000" font-family="Helvetica" font-size="14" font-weight="bold" lengthAdjust="spacing" textLength="242.7031" x="782.604" y="435.7803">[reusable OCI resource is not found]</text><g class="message" data-entity-1="part4" data-entity-2="part5" id="msg6"><polygon fill="#0F172A" points="1130.7788,455,1140.7788,459,1130.7788,463,1134.7788,459" style="stroke:#0F172A;stroke-width:1;"/><line style="stroke:#0F172A;stroke-width:1;" x1="804.4624" x2="1136.7788" y1="459" y2="459"/><text fill="#000000" font-family="Helvetica" font-size="14" lengthAdjust="spacing" textLength="136.9512" x="811.4624" y="453.7803">CreateApmTracesLog</text></g><path d="M724.2661,474 L790.811,474 L790.811,480 L780.811,490 L716.2661,490 L716.2661,482 A8,8 0 0 1 724.2661,474" fill="#F8FAFC" style="stroke:#CBD5E1;stroke-width:1.5;"/><rect fill="none" height="44" rx="8" ry="8" style="stroke:#CBD5E1;stroke-width:1.5;" width="455.9575" x="716.2661" y="474"/><text fill="#000000" font-family="Helvetica" font-size="14" font-weight="bold" lengthAdjust="spacing" textLength="29.5449" x="731.2661" y="485.7803">loop</text><text fill="#000000" font-family="Helvetica" font-size="14" font-weight="bold" lengthAdjust="spacing" textLength="215.4756" x="805.811" y="486.7803">[create pending PROVISIONING]</text><g class="message" data-entity-1="part4" data-entity-2="part5" id="msg7"><polygon fill="#0F172A" points="1130.7788,506,1140.7788,510,1130.7788,514,1134.7788,510" style="stroke:#0F172A;stroke-width:1;"/><line style="stroke:#0F172A;stroke-width:1;" x1="804.4624" x2="1136.7788" y1="510" y2="510"/><text fill="#000000" font-family="Helvetica" font-size="14" lengthAdjust="spacing" textLength="117.4961" x="811.4624" y="504.7803">GetApmTracesLog</text></g><line style="stroke:#CBD5E1;stroke-width:1;stroke-dasharray:2,2;" x1="706.2661" x2="1182.2236" y1="526" y2="526"/><text fill="#000000" font-family="Helvetica" font-size="14" font-weight="bold" lengthAdjust="spacing" textLength="255.2334" x="711.2661" y="536.7803">[reusable OCI resource already exists]</text><g class="message" data-entity-1="part4" data-entity-2="part5" id="msg8"><polygon fill="#0F172A" points="1130.7788,557,1140.7788,561,1130.7788,565,1134.7788,561" style="stroke:#0F172A;stroke-width:1;"/><line style="stroke:#0F172A;stroke-width:1;" x1="804.4624" x2="1136.7788" y1="561" y2="561"/><text fill="#000000" font-family="Helvetica" font-size="14" lengthAdjust="spacing" textLength="117.4961" x="811.4624" y="555.7803">GetApmTracesLog</text></g><g class="message" data-entity-1="part4" data-entity-2="part3" id="msg9"><polygon fill="#0F172A" points="530.8696,592,520.8696,596,530.8696,600,526.8696,596" style="stroke:#0F172A;stroke-width:1;"/><line style="stroke:#0F172A;stroke-width:1;stroke-dasharray:2,2;" x1="524.8696" x2="803.4624" y1="596" y2="596"/><text fill="#000000" font-family="Helvetica" font-size="14" lengthAdjust="spacing" textLength="231.0957" x="536.8696" y="590.7803">persist resolved OCI identity in status</text></g><path d="M441.8457,618 L495.1836,618 L495.1836,624 L485.1836,634 L433.8457,634 L433.8457,626 A8,8 0 0 1 441.8457,618" fill="#F8FAFC" style="stroke:#CBD5E1;stroke-width:1.5;"/><rect fill="none" height="798" rx="8" ry="8" style="stroke:#CBD5E1;stroke-width:1.5;" width="775.1118" x="433.8457" y="618"/><text fill="#000000" font-family="Helvetica" font-size="14" font-weight="bold" lengthAdjust="spacing" textLength="16.3379" x="448.8457" y="629.7803">alt</text><text fill="#000000" font-family="Helvetica" font-size="14" font-weight="bold" lengthAdjust="spacing" textLength="120.5859" x="510.1836" y="630.7803">[delete requested]</text><path d="M451.8457,641 L530.8662,641 L530.8662,647 L520.8662,657 L443.8457,657 L443.8457,649 A8,8 0 0 1 451.8457,641" fill="#F8FAFC" style="stroke:#CBD5E1;stroke-width:1.5;"/><rect fill="none" height="246" rx="8" ry="8" style="stroke:#CBD5E1;stroke-width:1.5;" width="738.3779" x="443.8457" y="641"/><text fill="#000000" font-family="Helvetica" font-size="14" font-weight="bold" lengthAdjust="spacing" textLength="42.0205" x="458.8457" y="652.7803">Delete</text><g class="message" data-entity-1="part4" data-entity-2="part5" id="msg10"><polygon fill="#0F172A" points="1130.7788,673,1140.7788,677,1130.7788,681,1134.7788,677" style="stroke:#0F172A;stroke-width:1;"/><line style="stroke:#0F172A;stroke-width:1;" x1="804.4624" x2="1136.7788" y1="677" y2="677"/><text fill="#000000" font-family="Helvetica" font-size="14" lengthAdjust="spacing" textLength="135.3994" x="811.4624" y="671.7803">DeleteApmTracesLog</text></g><g class="message" data-entity-1="part4" data-entity-2="part5" id="msg11"><polygon fill="#0F172A" points="1130.7788,715,1140.7788,719,1130.7788,723,1134.7788,719" style="stroke:#0F172A;stroke-width:1;"/><line style="stroke:#0F172A;stroke-width:1;" x1="804.4624" x2="1136.7788" y1="719" y2="719"/><text fill="#000000" font-family="Helvetica" font-size="14" lengthAdjust="spacing" textLength="231.1025" x="811.4624" y="699.7803">confirm delete via GetApmTracesLog</text><text fill="#000000" font-family="Helvetica" font-size="14" lengthAdjust="spacing" textLength="133.0547" x="811.4624" y="713.7803">or ListApmTracesLog</text></g><path d="M724.2661,734 L790.811,734 L790.811,740 L780.811,750 L716.2661,750 L716.2661,742 A8,8 0 0 1 724.2661,734" fill="#F8FAFC" style="stroke:#CBD5E1;stroke-width:1.5;"/><rect fill="none" height="44" rx="8" ry="8" style="stroke:#CBD5E1;stroke-width:1.5;" width="455.9575" x="716.2661" y="734"/><text fill="#000000" font-family="Helvetica" font-size="14" font-weight="bold" lengthAdjust="spacing" textLength="29.5449" x="731.2661" y="745.7803">loop</text><text fill="#000000" font-family="Helvetica" font-size="14" font-weight="bold" lengthAdjust="spacing" textLength="182.7793" x="805.811" y="746.7803">[delete pending DELETING]</text><g class="message" data-entity-1="part4" data-entity-2="part5" id="msg12"><polygon fill="#0F172A" points="1130.7788,766,1140.7788,770,1130.7788,774,1134.7788,770" style="stroke:#0F172A;stroke-width:1;"/><line style="stroke:#0F172A;stroke-width:1;" x1="804.4624" x2="1136.7788" y1="770" y2="770"/><text fill="#000000" font-family="Helvetica" font-size="14" lengthAdjust="spacing" textLength="254.4404" x="811.4624" y="764.7803">GetApmTracesLog or ListApmTracesLog</text></g><path d="M461.8457,792 L515.1836,792 L515.1836,798 L505.1836,808 L453.8457,808 L453.8457,800 A8,8 0 0 1 461.8457,792" fill="#F8FAFC" style="stroke:#CBD5E1;stroke-width:1.5;"/><rect fill="none" height="88" rx="8" ry="8" style="stroke:#CBD5E1;stroke-width:1.5;" width="438.813" x="453.8457" y="792"/><text fill="#000000" font-family="Helvetica" font-size="14" font-weight="bold" lengthAdjust="spacing" textLength="16.3379" x="468.8457" y="803.7803">alt</text><text fill="#000000" font-family="Helvetica" font-size="14" font-weight="bold" lengthAdjust="spacing" textLength="261.4268" x="530.1836" y="804.7803">[cleanup or finalizer release is blocked]</text><g class="message" data-entity-1="part4" data-entity-2="part3" id="msg13"><polygon fill="#0F172A" points="530.8696,824,520.8696,828,530.8696,832,526.8696,828" style="stroke:#0F172A;stroke-width:1;"/><line style="stroke:#0F172A;stroke-width:1;stroke-dasharray:2,2;" x1="524.8696" x2="803.4624" y1="828" y2="828"/><text fill="#000000" font-family="Helvetica" font-size="14" lengthAdjust="spacing" textLength="170.4336" x="536.8696" y="822.7803">retain delete state and retry</text></g><line style="stroke:#CBD5E1;stroke-width:1;stroke-dasharray:2,2;" x1="453.8457" x2="892.6587" y1="837" y2="837"/><text fill="#000000" font-family="Helvetica" font-size="14" font-weight="bold" lengthAdjust="spacing" textLength="194.4824" x="458.8457" y="847.7803">[delete completion observed]</text><g class="message" data-entity-1="part4" data-entity-2="part3" id="msg14"><polygon fill="#0F172A" points="530.8696,868,520.8696,872,530.8696,876,526.8696,872" style="stroke:#0F172A;stroke-width:1;"/><line style="stroke:#0F172A;stroke-width:1;stroke-dasharray:2,2;" x1="524.8696" x2="803.4624" y1="872" y2="872"/><text fill="#000000" font-family="Helvetica" font-size="14" lengthAdjust="spacing" textLength="243.5781" x="536.8696" y="866.7803">release finalizer after delete completion</text></g><line style="stroke:#CBD5E1;stroke-width:1;stroke-dasharray:2,2;" x1="433.8457" x2="1208.9575" y1="895" y2="895"/><text fill="#000000" font-family="Helvetica" font-size="14" font-weight="bold" lengthAdjust="spacing" textLength="149.3857" x="438.8457" y="905.7803">[OCI state is retryable]</text><g class="message" data-entity-1="part4" data-entity-2="part3" id="msg15"><polygon fill="#0F172A" points="530.8696,940,520.8696,944,530.8696,948,526.8696,944" style="stroke:#0F172A;stroke-width:1;"/><line style="stroke:#0F172A;stroke-width:1;stroke-dasharray:2,2;" x1="524.8696" x2="803.4624" y1="944" y2="944"/><text fill="#000000" font-family="Helvetica" font-size="14" lengthAdjust="spacing" textLength="184.4199" x="536.8696" y="924.7803">requeue while OCI remains in</text><text fill="#000000" font-family="Helvetica" font-size="14" lengthAdjust="spacing" textLength="260.5928" x="536.8696" y="938.7803">PROVISIONING, UPDATING, DELETING</text></g><line style="stroke:#CBD5E1;stroke-width:1;stroke-dasharray:2,2;" x1="433.8457" x2="1208.9575" y1="953" y2="953"/><text fill="#000000" font-family="Helvetica" font-size="14" font-weight="bold" lengthAdjust="spacing" textLength="200.751" x="438.8457" y="963.7803">[live state requires field-aware</text><text fill="#000000" font-family="Helvetica" font-size="14" font-weight="bold" lengthAdjust="spacing" textLength="105.0068" x="438.8457" y="977.7803">drift evaluation]</text><path d="M451.8457,989 L579.832,989 L579.832,995 L569.832,1005 L443.8457,1005 L443.8457,997 A8,8 0 0 1 451.8457,989" fill="#F8FAFC" style="stroke:#CBD5E1;stroke-width:1.5;"/><rect fill="none" height="378" rx="8" ry="8" style="stroke:#CBD5E1;stroke-width:1.5;" width="755.1118" x="443.8457" y="989"/><text fill="#000000" font-family="Helvetica" font-size="14" font-weight="bold" lengthAdjust="spacing" textLength="90.9863" x="458.8457" y="1000.7803">Drift handling</text><path d="M758,1018 L758,1068 A8,8 0 0 0 766,1076 L1180,1076 A8,8 0 0 0 1188,1068 L1188,1020 L1178,1010 L766,1010 A8,8 0 0 0 758,1018" fill="#FFF7D6" style="stroke:#B45309;stroke-width:0.5;"/><path d="M1178,1010 L1178,1016 A4,4 0 0 0 1182,1020 L1188,1020 L1178,1010" fill="#FFF7D6" style="stroke:#B45309;stroke-width:0.5;"/><text fill="#334155" font-family="Helvetica" font-size="14" lengthAdjust="spacing" textLength="255.2813" x="841.3381" y="1025.7803">Supported update surface: display_name</text><text fill="#334155" font-family="Helvetica" font-size="14" lengthAdjust="spacing" textLength="235.7783" x="841.3381" y="1039.7803">Reject before mutate: force-new fields</text><text fill="#334155" font-family="Helvetica" font-size="14" lengthAdjust="spacing" textLength="100.3789" x="841.3381" y="1053.7803">compartment_id</text><text fill="#334155" font-family="Helvetica" font-size="14" lengthAdjust="spacing" textLength="229.5576" x="841.3381" y="1067.7803">Lookup filters: compartment_id, state</text><path d="M461.8457,1088 L520.6113,1088 L520.6113,1094 L510.6113,1104 L453.8457,1104 L453.8457,1096 A8,8 0 0 1 461.8457,1088" fill="#F8FAFC" style="stroke:#CBD5E1;stroke-width:1.5;"/><rect fill="none" height="44" rx="8" ry="8" style="stroke:#CBD5E1;stroke-width:1.5;" width="438.813" x="453.8457" y="1088"/><text fill="#000000" font-family="Helvetica" font-size="14" font-weight="bold" lengthAdjust="spacing" textLength="21.7656" x="468.8457" y="1099.7803">opt</text><text fill="#000000" font-family="Helvetica" font-size="14" font-weight="bold" lengthAdjust="spacing" textLength="276.1309" x="535.6113" y="1100.7803">[force-new or conflicting drift is detected]</text><g class="message" data-entity-1="part4" data-entity-2="part3" id="msg16"><polygon fill="#0F172A" points="530.8696,1120,520.8696,1124,530.8696,1128,526.8696,1124" style="stroke:#0F172A;stroke-width:1;"/><line style="stroke:#0F172A;stroke-width:1;stroke-dasharray:2,2;" x1="524.8696" x2="803.4624" y1="1124" y2="1124"/><text fill="#000000" font-family="Helvetica" font-size="14" lengthAdjust="spacing" textLength="164.1855" x="536.8696" y="1118.7803">reject before OCI mutation</text></g><path d="M714.2661,1146 L773.0317,1146 L773.0317,1152 L763.0317,1162 L706.2661,1162 L706.2661,1154 A8,8 0 0 1 714.2661,1146" fill="#F8FAFC" style="stroke:#CBD5E1;stroke-width:1.5;"/><rect fill="none" height="116" rx="8" ry="8" style="stroke:#CBD5E1;stroke-width:1.5;" width="475.9575" x="706.2661" y="1146"/><text fill="#000000" font-family="Helvetica" font-size="14" font-weight="bold" lengthAdjust="spacing" textLength="21.7656" x="721.2661" y="1157.7803">opt</text><text fill="#000000" font-family="Helvetica" font-size="14" font-weight="bold" lengthAdjust="spacing" textLength="243.4619" x="788.0317" y="1158.7803">[supported mutable drift is detected]</text><g class="message" data-entity-1="part4" data-entity-2="part5" id="msg17"><polygon fill="#0F172A" points="1130.7788,1192,1140.7788,1196,1130.7788,1200,1134.7788,1196" style="stroke:#0F172A;stroke-width:1;"/><line style="stroke:#0F172A;stroke-width:1;" x1="804.4624" x2="1136.7788" y1="1196" y2="1196"/><text fill="#000000" font-family="Helvetica" font-size="14" lengthAdjust="spacing" textLength="228.7852" x="811.4624" y="1176.7803">Apply UpdateApmTracesLog only for</text><text fill="#000000" font-family="Helvetica" font-size="14" lengthAdjust="spacing" textLength="176.6543" x="811.4624" y="1190.7803">mutable fields display_name</text></g><path d="M724.2661,1211 L790.811,1211 L790.811,1217 L780.811,1227 L716.2661,1227 L716.2661,1219 A8,8 0 0 1 724.2661,1211" fill="#F8FAFC" style="stroke:#CBD5E1;stroke-width:1.5;"/><rect fill="none" height="44" rx="8" ry="8" style="stroke:#CBD5E1;stroke-width:1.5;" width="455.9575" x="716.2661" y="1211"/><text fill="#000000" font-family="Helvetica" font-size="14" font-weight="bold" lengthAdjust="spacing" textLength="29.5449" x="731.2661" y="1222.7803">loop</text><text fill="#000000" font-family="Helvetica" font-size="14" font-weight="bold" lengthAdjust="spacing" textLength="190.5381" x="805.811" y="1223.7803">[update pending UPDATING]</text><g class="message" data-entity-1="part4" data-entity-2="part5" id="msg18"><polygon fill="#0F172A" points="1130.7788,1243,1140.7788,1247,1130.7788,1251,1134.7788,1247" style="stroke:#0F172A;stroke-width:1;"/><line style="stroke:#0F172A;stroke-width:1;" x1="804.4624" x2="1136.7788" y1="1247" y2="1247"/><text fill="#000000" font-family="Helvetica" font-size="14" lengthAdjust="spacing" textLength="117.4961" x="811.4624" y="1241.7803">GetApmTracesLog</text></g><g class="message" data-entity-1="part4" data-entity-2="part5" id="msg19"><polygon fill="#0F172A" points="1130.7788,1355,1140.7788,1359,1130.7788,1363,1134.7788,1359" style="stroke:#0F172A;stroke-width:1;"/><line style="stroke:#0F172A;stroke-width:1;" x1="804.4624" x2="1136.7788" y1="1359" y2="1359"/><text fill="#000000" font-family="Helvetica" font-size="14" lengthAdjust="spacing" textLength="104.2891" x="811.4624" y="1283.7803">run helper hooks</text><text fill="#000000" font-family="Helvetica" font-size="14" lengthAdjust="spacing" textLength="219.0508" x="811.4624" y="1297.7803">create=tfresource.CreateResource,</text><text fill="#000000" font-family="Helvetica" font-size="14" lengthAdjust="spacing" textLength="314.3164" x="811.4624" y="1311.7803">tfresource.WaitForWorkRequestWithErrorHandling</text><text fill="#000000" font-family="Helvetica" font-size="14" lengthAdjust="spacing" textLength="215.5439" x="811.4624" y="1325.7803">entity=template action=CREATED;</text><text fill="#000000" font-family="Helvetica" font-size="14" lengthAdjust="spacing" textLength="226.085" x="811.4624" y="1339.7803">update=tfresource.UpdateResource;</text><text fill="#000000" font-family="Helvetica" font-size="14" lengthAdjust="spacing" textLength="212.8438" x="811.4624" y="1353.7803">delete=tfresource.DeleteResource</text></g><g class="message" data-entity-1="part4" data-entity-2="part3" id="msg20"><polygon fill="#0F172A" points="530.8696,1404,520.8696,1408,530.8696,1412,526.8696,1408" style="stroke:#0F172A;stroke-width:1;"/><line style="stroke:#0F172A;stroke-width:1;stroke-dasharray:2,2;" x1="524.8696" x2="803.4624" y1="1408" y2="1408"/><text fill="#000000" font-family="Helvetica" font-size="14" lengthAdjust="spacing" textLength="100.7822" x="536.8696" y="1388.7803">status=required,</text><text fill="#000000" font-family="Helvetica" font-size="14" lengthAdjust="spacing" textLength="230.7197" x="536.8696" y="1402.7803">finalizer=retain-until-confirmed-delete</text></g><g class="message" data-entity-1="part3" data-entity-2="part2" id="msg21"><polygon fill="#0F172A" points="292.0435,1453,282.0435,1457,292.0435,1461,288.0435,1457" style="stroke:#0F172A;stroke-width:1;"/><line style="stroke:#0F172A;stroke-width:1;stroke-dasharray:2,2;" x1="286.0435" x2="518.8696" y1="1457" y2="1457"/><text fill="#000000" font-family="Helvetica" font-size="14" lengthAdjust="spacing" textLength="214.8262" x="298.0435" y="1437.7803">requeue on provisioning, updating,</text><text fill="#000000" font-family="Helvetica" font-size="14" lengthAdjust="spacing" textLength="69.2549" x="298.0435" y="1451.7803">terminating</text></g><path d="M809,1478 L809,1934 A8,8 0 0 0 817,1942 L1129,1942 A8,8 0 0 0 1137,1934 L1137,1480 L1127,1470 L817,1470 A8,8 0 0 0 809,1478" fill="#FFF7D6" style="stroke:#B45309;stroke-width:0.5;"/><path d="M1127,1470 L1127,1476 A4,4 0 0 0 1131,1480 L1137,1480 L1127,1470" fill="#FFF7D6" style="stroke:#B45309;stroke-width:0.5;"/><text fill="#334155" font-family="Helvetica" font-size="14" lengthAdjust="spacing" textLength="101.165" x="815" y="1485.7803">shared diagram:</text><text fill="#334155" font-family="Helvetica" font-size="14" lengthAdjust="spacing" textLength="307.3916" x="815" y="1499.7803">shared/diagrams/shared-resolution-sequence.svg</text><text fill="#334155" font-family="Helvetica" font-size="14" lengthAdjust="spacing" textLength="143.1992" x="815" y="1513.7803">shared delete diagram:</text><text fill="#334155" font-family="Helvetica" font-size="14" lengthAdjust="spacing" textLength="284.833" x="815" y="1527.7803">shared/diagrams/shared-delete-sequence.svg</text><text fill="#334155" font-family="Helvetica" font-size="14" lengthAdjust="spacing" textLength="280.9297" x="815" y="1541.7803">Start from the shared resolution sequence for</text><text fill="#334155" font-family="Helvetica" font-size="14" lengthAdjust="spacing" textLength="260.7295" x="815" y="1555.7803">OCID binding, datasource pagination, and</text><text fill="#334155" font-family="Helvetica" font-size="14" lengthAdjust="spacing" textLength="163.4268" x="815" y="1569.7803">create-or-update dispatch.</text><text fill="#334155" font-family="Helvetica" font-size="14" lengthAdjust="spacing" textLength="301.1982" x="815" y="1583.7803">Layer the shared delete sequence when finalizer</text><text fill="#334155" font-family="Helvetica" font-size="14" lengthAdjust="spacing" textLength="269.2471" x="815" y="1597.7803">retention, delete confirmation, work-request</text><text fill="#334155" font-family="Helvetica" font-size="14" lengthAdjust="spacing" textLength="199.2334" x="815" y="1611.7803">polling, or Secret cleanup apply.</text><text fill="#334155" font-family="Helvetica" font-size="14" lengthAdjust="spacing" textLength="281.709" x="815" y="1625.7803">archetype batch: Generated service-manager</text><text fill="#334155" font-family="Helvetica" font-size="14" lengthAdjust="spacing" textLength="266.1504" x="815" y="1639.7803">controllers follow the shared resolution and</text><text fill="#334155" font-family="Helvetica" font-size="14" lengthAdjust="spacing" textLength="259.9297" x="815" y="1653.7803">delete sequences with imported waits and</text><text fill="#334155" font-family="Helvetica" font-size="14" lengthAdjust="spacing" textLength="134.6064" x="815" y="1667.7803">controller-local policy.</text><text fill="#334155" font-family="Helvetica" font-size="14" lengthAdjust="spacing" textLength="117.4824" x="815" y="1681.7803">service: apmtraces</text><text fill="#334155" font-family="Helvetica" font-size="14" lengthAdjust="spacing" textLength="117.5029" x="815" y="1695.7803">slug: apmtraceslog</text><text fill="#334155" font-family="Helvetica" font-size="14" lengthAdjust="spacing" textLength="128.3926" x="815" y="1709.7803">kind: ApmTracesLog</text><text fill="#334155" font-family="Helvetica" font-size="14" lengthAdjust="spacing" textLength="241.2402" x="815" y="1723.7803">archetype: generated-service-manager</text><text fill="#334155" font-family="Helvetica" font-size="14" lengthAdjust="spacing" textLength="156.4063" x="815" y="1737.7803">status/finalizer: required /</text><text fill="#334155" font-family="Helvetica" font-size="14" lengthAdjust="spacing" textLength="174.3027" x="815" y="1751.7803">retain-until-confirmed-delete</text><text fill="#334155" font-family="Helvetica" font-size="14" lengthAdjust="spacing" textLength="272.3984" x="815" y="1765.7803">requeue: provisioning, updating, terminating</text><text fill="#334155" font-family="Helvetica" font-size="14" lengthAdjust="spacing" textLength="295.6816" x="815" y="1779.7803">provider states: create PROVISIONING; update</text><text fill="#334155" font-family="Helvetica" font-size="14" lengthAdjust="spacing" textLength="192.165" x="815" y="1793.7803">UPDATING; delete DELETING</text><text fill="#334155" font-family="Helvetica" font-size="14" lengthAdjust="spacing" textLength="183.6611" x="815" y="1807.7803">supported drift: display_name</text><text fill="#334155" font-family="Helvetica" font-size="14" lengthAdjust="spacing" textLength="230.3301" x="815" y="1821.7803">reject before mutate: force-new fields</text><text fill="#334155" font-family="Helvetica" font-size="14" lengthAdjust="spacing" textLength="100.3789" x="815" y="1835.7803">compartment_id</text><text fill="#334155" font-family="Helvetica" font-size="14" lengthAdjust="spacing" textLength="283.2539" x="815" y="1849.7803">list lookup: scaffold_apmtraces_apmtraceslog</text><text fill="#334155" font-family="Helvetica" font-size="14" lengthAdjust="spacing" textLength="175.8477" x="815" y="1863.7803">filters compartment_id, state</text><text fill="#334155" font-family="Helvetica" font-size="14" lengthAdjust="spacing" textLength="89.4961" x="815" y="1877.7803">conflicts: none</text><text fill="#334155" font-family="Helvetica" font-size="14" lengthAdjust="spacing" textLength="104.3164" x="815" y="1891.7803">open gaps: none</text><text fill="#334155" font-family="Helvetica" font-size="14" lengthAdjust="spacing" textLength="224.9023" x="815" y="1905.7803">Scaffold metadata only; replace with</text><text fill="#334155" font-family="Helvetica" font-size="14" lengthAdjust="spacing" textLength="244.3232" x="815" y="1919.7803">controller-specific runtime states before</text><text fill="#334155" font-family="Helvetica" font-size="14" lengthAdjust="spacing" textLength="66.1445" x="815" y="1933.7803">promotion.</text><?plantuml-src fLTRRzis57xNhpZeNbh0IfecwSL11gH9rWRDaY9ErnS30IqTsLmeKYCfkzwm_xx3YsJ9iLUlGnuYY-IvVESxtw7C8vSLqwm4CsEvMd0vXO89WubfLoOiUvngLSlyN0cbuQSYex-yioF7WjN2_gAalM4bmaSKSxGyOvltZFYV20T7dKMcjLf4wo-BWpUlkYUbilZ-IGn5yIP_lRvBwHnrt34vEZvy-MvjXtCVrmyFZmwEZplhtdocj4GD1wyJowr06E4VDSeC8GLMbLQp3Ct-MLNU-wThDKrcF4SebB8JzQrZpJG7_qe0M6QLxaKNisoMrjF3L_YsU4dBP8o0v1MJTlFvxePTh7GGQ6q8Nk0rbttytXsnmybRMdKcgzvIDicFyQ1TUbARjmKhikJlnES6d-e94gWMJTA90yuf4As4GDrx_PuPlCDCoOolBpsx7Tr-6g6Uymn_PP9DKJy3Pg3_gdVazlmgSNK7DQUgzcqFrivH1sZCGQDHehPSoM5yjPzpDgMQcltmErrjIPioxvdvjB6Gew1ijvuEo_sJA7FFpsG55gG_Tp0Q0ahQNoDqoKV1ncoIrLPti9_f4DhdvzgvDVP5qj_Y3lNn6AwCKqQ6kynwnFV5Xskb7kaVemGcNEO94nPScppITYe-Vgi45SDN0gXJ9BNL4fZGoF8bhN9ZJT9tx4AXtKFuWBRd44cNMjkjBMwWvCQGScspSqrEkeQU5rnOr6Oubfag7LrAilN0ym4Oooo-y4beh0sRKF8kSbVnMbCtapUg4_KxqNsRltDApc8lTA5K1Pb_3nKLs-divxlRtwv6LxStLpSVTeQ0l7eODaVtWxXkI6K3Xog2ZCo61fbJ2NebvTA3LnjlpW4OU0wHS9X7mbpurzjY2wkzyBRifC0Ahil6pPopzSJ6aWYuNlnGYdYeASN5vVNb_UvbW4rscxGpWKnIdhIdu9896dQQGA2tnjDd8fGZy2w8QxICS8t1UcxwHgFtUXbu4DSSZ-c150dKn93bNHs4i5Q1ie8wuwdLGBo6VAxm8HhAnmVZgBYRmo1YYnblkLjIZeRuCvRTZXZ0byyNP_V-gIsFzoxul073cIDXCfG0YZnb2nBOiSmrBopWd8cQ-U0ZyVph6G4ed5Yina8_xe6R6QEwgfGcqa9TvSwJgNL1bHv2paqbsF91qaKdkSFVCRCmmK9fXB9sGGr97AWNKucB49P9-YgJHCbiL0WsYj1g9AZATamIhHppILIjOsx8bSgGKy4okslPks6xAlZGcpexXwO5m2qveVc-fzWiPrKbbl35uzRl6adloULODZO3FdrCVNz6r9l-RAZmdsHokq3hMi8C1GaQpAWMXkQ0b-PJMpHIkXT4_2x-78nbP-qhutIFqb-LVhmBwlQLszabNMBrnqYliGowU6gHUiWtRkO0FZs_kpoxlxmu6SkGOzTdmApnILj27tQt17rijkmgtK6PJsExv9HDs_6dGMJIci8LQHJLzfRY7QpV5DOk9arFa_PKMisveJG9WK4eediYy52NvD6sZQVvT6P15R3v4XRlJF_l1lPTAvjkOYDBhGY5LYNO6SAJI-7gOazCJeXE5_xUunEcT5cSn1MR-doL73Z9JWB1KgNJI6t7UMQpsLvopPQ4QiTPe_UDeyKCvKgY4ogOuvQptEgqhrfqjo1Qfd7g9XKLoSUcdCvH5Ai1nLoVxYLCPpEqomhfGu_YSSr4Nq3CjRu9jKdBM9oihJefBlrNYoqOkOpNiZ2me1u1NaPPML0FcG1DQpMbqSW4KCmyeyYY--7gooinefvsVWlgTVhYoeVzcscRqX2cJJBfUZAX9_PRN8VDDCbXF_dtfeYC7sxZEtJfxlVGjrEGTIVtuHhO7NOdKV2IHkXEcjAsesybo5w8rmQH_g519DnrJlXfH1gHiOAAcZ-qw3xqS8xZQikqQcOIvIULT4EBE3jbLVDx5Ar3ISYwFl7Ju8GmfoGSnuaSNIQO2ZDUyCnfjULb7FWcPkX0BPMZsbux9_y1?></g></svg>