<?plantuml 1.2026.1?><svg xmlns="http://www.w3.org/2000/svg" xmlns:xlink="http://www.w3.org/1999/xlink" contentStyleType="text/css" data-diagram-type="ACTIVITY" height="2229px" preserveAspectRatio="none" style="width:1263px;height:2229px;background:#FCFCFD;" version="1.1" viewBox="0 0 1263 2229" width="1263px" zoomAndPan="magnify"><title>Activity - osmanagementhub/OsManagementHubProfiles</title><defs/><g><rect fill="#FCFCFD" height="2229" style="stroke:none;stroke-width:1;" width="1263" x="0" y="0"/><g class="title" data-source-line="10"><text fill="#000000" font-family="Helvetica" font-size="14" font-weight="bold" lengthAdjust="spacing" textLength="378.0684" x="441.1226" y="30.7803">Activity - osmanagementhub/OsManagementHubProfiles</text></g><ellipse cx="669.6733" cy="55" fill="#1D4ED8" rx="10" ry="10" style="stroke:#222222;stroke-width:1;"/><rect fill="none" height="458" rx="8" ry="8" style="stroke:#000000;stroke-width:1.5;" width="630.708" x="385.845" y="75"/><path d="M507.9133,75 L507.9133,82 L497.9133,92 L385.845,92" fill="none" style="stroke:#000000;stroke-width:1.5;"/><text fill="#000000" font-family="Helvetica" font-size="14" lengthAdjust="spacing" textLength="112.0684" x="388.845" y="86.7803">Observe and Bind</text><rect fill="#F8FAFC" height="48" rx="8" ry="8" style="stroke:#0F172A;stroke-width:0.5;" width="304.7852" x="517.2808" y="109"/><text fill="#0F172A" font-family="Helvetica" font-size="14" lengthAdjust="spacing" textLength="136.9375" x="527.2808" y="129.7803">Start from shared flow</text><text fill="#0F172A" font-family="Helvetica" font-size="14" lengthAdjust="spacing" textLength="284.7852" x="527.2808" y="143.7803">shared/diagrams/shared-reconcile-activity.svg</text><rect fill="#F8FAFC" height="48" rx="8" ry="8" style="stroke:#0F172A;stroke-width:0.5;" width="316.4883" x="511.4292" y="177"/><text fill="#0F172A" font-family="Helvetica" font-size="14" lengthAdjust="spacing" textLength="296.4883" x="521.4292" y="197.7803">Read desired OsManagementHubProfiles spec,</text><text fill="#0F172A" font-family="Helvetica" font-size="14" lengthAdjust="spacing" textLength="198.4609" x="521.4292" y="211.7803">tracked status, and delete intent</text><polygon fill="#E2E8F0" points="540.2075,245,799.1392,245,811.1392,257,799.1392,269,540.2075,269,528.2075,257,540.2075,245" style="stroke:#1D4ED8;stroke-width:0.5;"/><text fill="#0F172A" font-family="Helvetica" font-size="14" lengthAdjust="spacing" textLength="258.9316" x="540.2075" y="260.7803">"Tracked or explicit OCI identity present?"</text><text fill="#000000" font-family="Helvetica" font-size="14" lengthAdjust="spacing" textLength="21.7861" x="506.4214" y="253.7803">yes</text><text fill="#000000" font-family="Helvetica" font-size="14" lengthAdjust="spacing" textLength="15.5723" x="811.1392" y="253.7803">no</text><rect fill="#F8FAFC" height="48" rx="8" ry="8" style="stroke:#0F172A;stroke-width:0.5;" width="222.3027" x="405.845" y="279"/><text fill="#0F172A" font-family="Helvetica" font-size="14" lengthAdjust="spacing" textLength="202.3027" x="415.845" y="299.7803">Get the current OCI resource via</text><text fill="#0F172A" font-family="Helvetica" font-size="14" lengthAdjust="spacing" textLength="194.5371" x="415.845" y="313.7803">GetOsManagementHubProfiles</text><rect fill="#F8FAFC" height="62" rx="8" ry="8" style="stroke:#0F172A;stroke-width:0.5;" width="288.4541" x="678.1233" y="279"/><text fill="#0F172A" font-family="Helvetica" font-size="14" lengthAdjust="spacing" textLength="259.9092" x="688.1233" y="299.7803">Resolve an existing OCI resource through</text><text fill="#0F172A" font-family="Helvetica" font-size="14" lengthAdjust="spacing" textLength="268.4541" x="688.1233" y="313.7803">ListOsManagementHubProfiles using filters</text><text fill="#0F172A" font-family="Helvetica" font-size="14" lengthAdjust="spacing" textLength="138.5098" x="688.1233" y="327.7803">compartment_id, state</text><rect fill="#F8FAFC" height="62" rx="8" ry="8" style="stroke:#0F172A;stroke-width:0.5;" width="348.4053" x="648.1477" y="361"/><text fill="#0F172A" font-family="Helvetica" font-size="14" lengthAdjust="spacing" textLength="174.2959" x="658.1477" y="381.7803">Create the OCI resource via</text><text fill="#0F172A" font-family="Helvetica" font-size="14" lengthAdjust="spacing" textLength="328.4053" x="658.1477" y="395.7803">CreateOsManagementHubProfiles when no reusable</text><text fill="#0F172A" font-family="Helvetica" font-size="14" lengthAdjust="spacing" textLength="91.0479" x="658.1477" y="409.7803">match is found</text><rect fill="#F8FAFC" height="48" rx="8" ry="8" style="stroke:#0F172A;stroke-width:0.5;" width="286.8955" x="678.9026" y="443"/><text fill="#0F172A" font-family="Helvetica" font-size="14" lengthAdjust="spacing" textLength="266.8955" x="688.9026" y="463.7803">Persist the resolved or created OCI identity</text><text fill="#0F172A" font-family="Helvetica" font-size="14" lengthAdjust="spacing" textLength="63.8135" x="688.9026" y="477.7803">into status</text><polygon fill="#E2E8F0" points="669.6733,497,681.6733,509,669.6733,521,657.6733,509,669.6733,497" style="stroke:#1D4ED8;stroke-width:0.5;"/><polygon fill="#E2E8F0" points="607.4971,553,731.8496,553,743.8496,565,731.8496,577,607.4971,577,595.4971,565,607.4971,553" style="stroke:#1D4ED8;stroke-width:0.5;"/><text fill="#0F172A" font-family="Helvetica" font-size="14" lengthAdjust="spacing" textLength="124.3525" x="607.4971" y="568.7803">"Delete requested?"</text><text fill="#000000" font-family="Helvetica" font-size="14" lengthAdjust="spacing" textLength="21.7861" x="573.7109" y="561.7803">yes</text><text fill="#000000" font-family="Helvetica" font-size="14" lengthAdjust="spacing" textLength="15.5723" x="743.8496" y="561.7803">no</text><rect fill="none" height="375" rx="8" ry="8" style="stroke:#000000;stroke-width:1.5;" width="644.4814" x="11" y="587"/><path d="M61.4688,587 L61.4688,594 L51.4688,604 L11,604" fill="none" style="stroke:#000000;stroke-width:1.5;"/><text fill="#000000" font-family="Helvetica" font-size="14" lengthAdjust="spacing" textLength="40.4688" x="14" y="598.7803">Delete</text><rect fill="#F8FAFC" height="76" rx="8" ry="8" style="stroke:#0F172A;stroke-width:0.5;" width="341.3984" x="169.0449" y="621"/><text fill="#0F172A" font-family="Helvetica" font-size="14" lengthAdjust="spacing" textLength="321.3984" x="179.0449" y="641.7803">Delete path uses DeleteOsManagementHubProfiles</text><text fill="#0F172A" font-family="Helvetica" font-size="14" lengthAdjust="spacing" textLength="300.3643" x="179.0449" y="655.7803">with required via GetOsManagementHubProfiles</text><text fill="#0F172A" font-family="Helvetica" font-size="14" lengthAdjust="spacing" textLength="294.123" x="179.0449" y="669.7803">or ListOsManagementHubProfiles to DELETED</text><text fill="#0F172A" font-family="Helvetica" font-size="14" lengthAdjust="spacing" textLength="76.2549" x="179.0449" y="683.7803">confirmation</text><rect fill="#F8FAFC" height="76" rx="8" ry="8" style="stroke:#0F172A;stroke-width:0.5;" width="325.8057" x="176.8413" y="732"/><text fill="#0F172A" font-family="Helvetica" font-size="14" lengthAdjust="spacing" textLength="123.7236" x="186.8413" y="752.7803">Confirm deletion via</text><text fill="#0F172A" font-family="Helvetica" font-size="14" lengthAdjust="spacing" textLength="210.875" x="186.8413" y="766.7803">GetOsManagementHubProfiles or</text><text fill="#0F172A" font-family="Helvetica" font-size="14" lengthAdjust="spacing" textLength="305.8057" x="186.8413" y="780.7803">ListOsManagementHubProfiles until OCI reaches</text><text fill="#0F172A" font-family="Helvetica" font-size="14" lengthAdjust="spacing" textLength="64.5723" x="186.8413" y="794.7803">DELETED</text><polygon fill="#E2E8F0" points="191.5718,830,487.9165,830,499.9165,842,487.9165,854,191.5718,854,179.5718,842,191.5718,830" style="stroke:#1D4ED8;stroke-width:0.5;"/><text fill="#0F172A" font-family="Helvetica" font-size="14" lengthAdjust="spacing" textLength="296.3447" x="191.5718" y="845.7803">"Delete cleanup and finalizer release succeed?"</text><text fill="#000000" font-family="Helvetica" font-size="14" lengthAdjust="spacing" textLength="21.7861" x="157.7856" y="838.7803">yes</text><text fill="#000000" font-family="Helvetica" font-size="14" lengthAdjust="spacing" textLength="15.5723" x="499.9165" y="838.7803">no</text><rect fill="#F8FAFC" height="34" rx="8" ry="8" style="stroke:#0F172A;stroke-width:0.5;" width="293.1436" x="23" y="864"/><text fill="#0F172A" font-family="Helvetica" font-size="14" lengthAdjust="spacing" textLength="273.1436" x="33" y="884.7803">Remove the finalizer after delete completion</text><rect fill="#F8FAFC" height="48" rx="8" ry="8" style="stroke:#0F172A;stroke-width:0.5;" width="251.1299" x="384.3516" y="864"/><text fill="#0F172A" font-family="Helvetica" font-size="14" lengthAdjust="spacing" textLength="231.1299" x="394.3516" y="884.7803">Stay blocked until cleanup or finalizer</text><text fill="#0F172A" font-family="Helvetica" font-size="14" lengthAdjust="spacing" textLength="108.9512" x="394.3516" y="898.7803">release succeeds</text><polygon fill="#E2E8F0" points="339.7441,918,351.7441,930,339.7441,942,327.7441,930,339.7441,918" style="stroke:#1D4ED8;stroke-width:0.5;"/><ellipse cx="339.7441" cy="1008" fill="none" rx="11" ry="11" style="stroke:#222222;stroke-width:1;"/><ellipse cx="339.7441" cy="1008" fill="#222222" rx="6" ry="6" style="stroke:#222222;stroke-width:1;"/><rect fill="none" height="444" rx="8" ry="8" style="stroke:#000000;stroke-width:1.5;" width="345.916" x="832.6445" y="587"/><path d="M983.4785,587 L983.4785,594 L973.4785,604 L832.6445,604" fill="none" style="stroke:#000000;stroke-width:1.5;"/><text fill="#000000" font-family="Helvetica" font-size="14" lengthAdjust="spacing" textLength="140.834" x="835.6445" y="598.7803">Lifecycle Classification</text><rect fill="#F8FAFC" height="48" rx="8" ry="8" style="stroke:#0F172A;stroke-width:0.5;" width="280.5928" x="859.3062" y="670"/><text fill="#0F172A" font-family="Helvetica" font-size="14" lengthAdjust="spacing" textLength="240.4541" x="869.3062" y="690.7803">Request requeue while OCI remains in</text><text fill="#0F172A" font-family="Helvetica" font-size="14" lengthAdjust="spacing" textLength="260.5928" x="869.3062" y="704.7803">PROVISIONING, UPDATING, DELETING</text><ellipse cx="999.6025" cy="764" fill="none" rx="11" ry="11" style="stroke:#222222;stroke-width:1;"/><ellipse cx="999.6025" cy="764" fill="#222222" rx="6" ry="6" style="stroke:#222222;stroke-width:1;"/><polygon fill="#E2E8F0" points="913.3193,621,1085.8857,621,1097.8857,633,1085.8857,645,913.3193,645,901.3193,633,913.3193,621" style="stroke:#1D4ED8;stroke-width:0.5;"/><text fill="#000000" font-family="Helvetica" font-size="14" lengthAdjust="spacing" textLength="21.7861" x="1003.6025" y="655.7803">yes</text><text fill="#0F172A" font-family="Helvetica" font-size="14" lengthAdjust="spacing" textLength="172.5664" x="913.3193" y="636.7803">"OCI state in retryable set?"</text><rect fill="#F8FAFC" height="48" rx="8" ry="8" style="stroke:#0F172A;stroke-width:0.5;" width="293.916" x="852.6445" y="877"/><text fill="#0F172A" font-family="Helvetica" font-size="14" lengthAdjust="spacing" textLength="273.916" x="862.6445" y="897.7803">Return an unsuccessful reconcile result until</text><text fill="#0F172A" font-family="Helvetica" font-size="14" lengthAdjust="spacing" textLength="133.041" x="862.6445" y="911.7803">OCI reaches ACTIVE</text><ellipse cx="999.6025" cy="971" fill="none" rx="11" ry="11" style="stroke:#222222;stroke-width:1;"/><ellipse cx="999.6025" cy="971" fill="#222222" rx="6" ry="6" style="stroke:#222222;stroke-width:1;"/><polygon fill="#E2E8F0" points="879.0815,828,1120.1235,828,1132.1235,840,1120.1235,852,879.0815,852,867.0815,840,879.0815,828" style="stroke:#1D4ED8;stroke-width:0.5;"/><text fill="#000000" font-family="Helvetica" font-size="14" lengthAdjust="spacing" textLength="21.7861" x="1003.6025" y="862.7803">yes</text><text fill="#0F172A" font-family="Helvetica" font-size="14" lengthAdjust="spacing" textLength="241.042" x="879.0815" y="843.7803">"OCI state is outside success targets?"</text><rect fill="none" height="722.5" rx="8" ry="8" style="stroke:#000000;stroke-width:1.5;" width="576.832" x="675.4814" y="1041"/><path d="M841.9014,1041 L841.9014,1048 L831.9014,1058 L675.4814,1058" fill="none" style="stroke:#000000;stroke-width:1.5;"/><text fill="#000000" font-family="Helvetica" font-size="14" lengthAdjust="spacing" textLength="156.4199" x="678.4814" y="1052.7803">Ready and Drift Handling</text><rect fill="#F8FAFC" height="48" rx="8" ry="8" style="stroke:#0F172A;stroke-width:0.5;" width="296.2402" x="851.4824" y="1075"/><text fill="#0F172A" font-family="Helvetica" font-size="14" lengthAdjust="spacing" textLength="276.2402" x="861.4824" y="1095.7803">Compare live OCI state against the imported</text><text fill="#0F172A" font-family="Helvetica" font-size="14" lengthAdjust="spacing" textLength="75.4824" x="861.4824" y="1109.7803">field surface</text><rect fill="#F8FAFC" height="48" rx="8" ry="8" style="stroke:#0F172A;stroke-width:0.5;" width="302.4473" x="848.3789" y="1192"/><text fill="#0F172A" font-family="Helvetica" font-size="14" lengthAdjust="spacing" textLength="282.4473" x="858.3789" y="1212.7803">Reject drift before OCI mutation for force-new</text><text fill="#0F172A" font-family="Helvetica" font-size="14" lengthAdjust="spacing" textLength="136.9512" x="858.3789" y="1226.7803">fields compartment_id</text><ellipse cx="999.6025" cy="1272.5" fill="none" rx="11" ry="11" style="stroke:#222222;stroke-width:1;"/><ellipse cx="999.6025" cy="1272.5" fill="#222222" rx="6" ry="6" style="stroke:#222222;stroke-width:1;"/><polygon fill="#E2E8F0" points="874.0195,1143,1125.1855,1143,1137.1855,1155,1125.1855,1167,874.0195,1167,862.0195,1155,874.0195,1143" style="stroke:#1D4ED8;stroke-width:0.5;"/><text fill="#000000" font-family="Helvetica" font-size="14" lengthAdjust="spacing" textLength="21.7861" x="1003.6025" y="1177.7803">yes</text><text fill="#0F172A" font-family="Helvetica" font-size="14" lengthAdjust="spacing" textLength="251.166" x="874.0195" y="1158.7803">"Force-new or conflicting drift detected?"</text><polygon fill="#E2E8F0" points="889.1748,1325.5,1110.0303,1325.5,1122.0303,1337.5,1110.0303,1349.5,889.1748,1349.5,877.1748,1337.5,889.1748,1325.5" style="stroke:#1D4ED8;stroke-width:0.5;"/><text fill="#0F172A" font-family="Helvetica" font-size="14" lengthAdjust="spacing" textLength="220.8555" x="889.1748" y="1341.2803">"Supported mutable drift detected?"</text><text fill="#000000" font-family="Helvetica" font-size="14" lengthAdjust="spacing" textLength="21.7861" x="855.3887" y="1334.2803">yes</text><text fill="#000000" font-family="Helvetica" font-size="14" lengthAdjust="spacing" textLength="15.5723" x="1122.0303" y="1334.2803">no</text><rect fill="#F8FAFC" height="48" rx="8" ry="8" style="stroke:#0F172A;stroke-width:0.5;" width="325.8262" x="695.4814" y="1359.5"/><text fill="#0F172A" font-family="Helvetica" font-size="14" lengthAdjust="spacing" textLength="305.8262" x="705.4814" y="1380.2803">Apply UpdateOsManagementHubProfiles only for</text><text fill="#0F172A" font-family="Helvetica" font-size="14" lengthAdjust="spacing" textLength="176.6543" x="705.4814" y="1394.2803">mutable fields display_name</text><rect fill="#F8FAFC" height="34" rx="8" ry="8" style="stroke:#0F172A;stroke-width:0.5;" width="199.0059" x="1041.3076" y="1359.5"/><text fill="#0F172A" font-family="Helvetica" font-size="14" lengthAdjust="spacing" textLength="179.0059" x="1051.3076" y="1380.2803">Skip the no-op mutation path</text><polygon fill="#E2E8F0" points="999.6025,1413.5,1011.6025,1425.5,999.6025,1437.5,987.6025,1425.5,999.6025,1413.5" style="stroke:#1D4ED8;stroke-width:0.5;"/><rect fill="#F8FAFC" height="118" rx="8" ry="8" style="stroke:#0F172A;stroke-width:0.5;" width="334.3164" x="832.4443" y="1457.5"/><text fill="#0F172A" font-family="Helvetica" font-size="14" lengthAdjust="spacing" textLength="164.2061" x="842.4443" y="1478.2803">Run provider helper hooks</text><text fill="#0F172A" font-family="Helvetica" font-size="14" lengthAdjust="spacing" textLength="219.0508" x="842.4443" y="1492.2803">create=tfresource.CreateResource,</text><text fill="#0F172A" font-family="Helvetica" font-size="14" lengthAdjust="spacing" textLength="314.3164" x="842.4443" y="1506.2803">tfresource.WaitForWorkRequestWithErrorHandling</text><text fill="#0F172A" font-family="Helvetica" font-size="14" lengthAdjust="spacing" textLength="215.5439" x="842.4443" y="1520.2803">entity=template action=CREATED;</text><text fill="#0F172A" font-family="Helvetica" font-size="14" lengthAdjust="spacing" textLength="226.085" x="842.4443" y="1534.2803">update=tfresource.UpdateResource;</text><text fill="#0F172A" font-family="Helvetica" font-size="14" lengthAdjust="spacing" textLength="273.5537" x="842.4443" y="1548.2803">delete=tfresource.DeleteResource when the</text><text fill="#0F172A" font-family="Helvetica" font-size="14" lengthAdjust="spacing" textLength="220.2334" x="842.4443" y="1562.2803">matching field-driven path executes</text><rect fill="#F8FAFC" height="34" rx="8" ry="8" style="stroke:#0F172A;stroke-width:0.5;" width="303.2197" x="847.9927" y="1595.5"/><text fill="#0F172A" font-family="Helvetica" font-size="14" lengthAdjust="spacing" textLength="283.2197" x="857.9927" y="1616.2803">Return success for the ACTIVE success state</text><rect fill="#F8FAFC" height="48" rx="8" ry="8" style="stroke:#0F172A;stroke-width:0.5;" width="279.1299" x="860.0376" y="1649.5"/><text fill="#0F172A" font-family="Helvetica" font-size="14" lengthAdjust="spacing" textLength="259.1299" x="870.0376" y="1670.2803">Project required status and finalizer policy</text><text fill="#0F172A" font-family="Helvetica" font-size="14" lengthAdjust="spacing" textLength="174.3027" x="870.0376" y="1684.2803">retain-until-confirmed-delete</text><rect fill="#F8FAFC" height="34" rx="8" ry="8" style="stroke:#0F172A;stroke-width:0.5;" width="313.4189" x="842.8931" y="1717.5"/><text fill="#0F172A" font-family="Helvetica" font-size="14" lengthAdjust="spacing" textLength="293.4189" x="852.8931" y="1738.2803">Requeue on provisioning, updating, terminating</text><path d="M700.6733,1773.5 L700.6733,1991.5 L680.6733,1995.5 L700.6733,1999.5 L700.6733,2217.5 A0,0 0 0 0 700.6733,2217.5 L1070.3472,2217.5 A0,0 0 0 0 1070.3472,2217.5 L1070.3472,1783.5 L1060.3472,1773.5 L700.6733,1773.5 A0,0 0 0 0 700.6733,1773.5" fill="#FFF7D6" style="stroke:#B45309;stroke-width:0.5;"/><path d="M1060.3472,1773.5 L1060.3472,1783.5 L1070.3472,1783.5 L1060.3472,1773.5" fill="#FFF7D6" style="stroke:#B45309;stroke-width:0.5;"/><text fill="#334155" font-family="Helvetica" font-size="14" lengthAdjust="spacing" textLength="101.165" x="706.6733" y="1789.2803">shared diagram:</text><text fill="#334155" font-family="Helvetica" font-size="14" lengthAdjust="spacing" textLength="284.7852" x="706.6733" y="1803.2803">shared/diagrams/shared-reconcile-activity.svg</text><text fill="#334155" font-family="Helvetica" font-size="14" lengthAdjust="spacing" textLength="265.3438" x="706.6733" y="1817.2803">Start from the shared reconcile activity and</text><text fill="#334155" font-family="Helvetica" font-size="14" lengthAdjust="spacing" textLength="273.8955" x="706.6733" y="1831.2803">specialize provider-backed CRUD, wait, and</text><text fill="#334155" font-family="Helvetica" font-size="14" lengthAdjust="spacing" textLength="182.875" x="706.6733" y="1845.2803">status-projection details here.</text><text fill="#334155" font-family="Helvetica" font-size="14" lengthAdjust="spacing" textLength="229.5371" x="706.6733" y="1859.2803">Controller-local activity diagrams add</text><text fill="#334155" font-family="Helvetica" font-size="14" lengthAdjust="spacing" textLength="238.8955" x="706.6733" y="1873.2803">list-lookup hints, secret policies, delete</text><text fill="#334155" font-family="Helvetica" font-size="14" lengthAdjust="spacing" textLength="200.0332" x="706.6733" y="1887.2803">handling, and open formal gaps.</text><text fill="#334155" font-family="Helvetica" font-size="14" lengthAdjust="spacing" textLength="281.709" x="706.6733" y="1901.2803">archetype batch: Generated service-manager</text><text fill="#334155" font-family="Helvetica" font-size="14" lengthAdjust="spacing" textLength="291.0469" x="706.6733" y="1915.2803">controllers specialize the shared reconcile path</text><text fill="#334155" font-family="Helvetica" font-size="14" lengthAdjust="spacing" textLength="189.8477" x="706.6733" y="1929.2803">with formal runtime ownership.</text><text fill="#334155" font-family="Helvetica" font-size="14" lengthAdjust="spacing" textLength="171.9854" x="706.6733" y="1943.2803">service: osmanagementhub</text><text fill="#334155" font-family="Helvetica" font-size="14" lengthAdjust="spacing" textLength="198.4541" x="706.6733" y="1957.2803">slug: osmanagementhubprofiles</text><text fill="#334155" font-family="Helvetica" font-size="14" lengthAdjust="spacing" textLength="205.4336" x="706.6733" y="1971.2803">kind: OsManagementHubProfiles</text><text fill="#334155" font-family="Helvetica" font-size="14" lengthAdjust="spacing" textLength="241.2402" x="706.6733" y="1985.2803">archetype: generated-service-manager</text><text fill="#334155" font-family="Helvetica" font-size="14" lengthAdjust="spacing" textLength="156.4063" x="706.6733" y="1999.2803">status/finalizer: required /</text><text fill="#334155" font-family="Helvetica" font-size="14" lengthAdjust="spacing" textLength="174.3027" x="706.6733" y="2013.2803">retain-until-confirmed-delete</text><text fill="#334155" font-family="Helvetica" font-size="14" lengthAdjust="spacing" textLength="272.3984" x="706.6733" y="2027.2803">requeue: provisioning, updating, terminating</text><text fill="#334155" font-family="Helvetica" font-size="14" lengthAdjust="spacing" textLength="295.6816" x="706.6733" y="2041.2803">provider states: create PROVISIONING; update</text><text fill="#334155" font-family="Helvetica" font-size="14" lengthAdjust="spacing" textLength="192.165" x="706.6733" y="2055.2803">UPDATING; delete DELETING</text><text fill="#334155" font-family="Helvetica" font-size="14" lengthAdjust="spacing" textLength="183.6611" x="706.6733" y="2069.2803">supported drift: display_name</text><text fill="#334155" font-family="Helvetica" font-size="14" lengthAdjust="spacing" textLength="230.3301" x="706.6733" y="2083.2803">reject before mutate: force-new fields</text><text fill="#334155" font-family="Helvetica" font-size="14" lengthAdjust="spacing" textLength="100.3789" x="706.6733" y="2097.2803">compartment_id</text><text fill="#334155" font-family="Helvetica" font-size="14" lengthAdjust="spacing" textLength="66.1445" x="706.6733" y="2111.2803">list lookup:</text><text fill="#334155" font-family="Helvetica" font-size="14" lengthAdjust="spacing" textLength="348.6738" x="706.6733" y="2125.2803">scaffold_osmanagementhub_osmanagementhubprofiles</text><text fill="#334155" font-family="Helvetica" font-size="14" lengthAdjust="spacing" textLength="175.8477" x="706.6733" y="2139.2803">filters compartment_id, state</text><text fill="#334155" font-family="Helvetica" font-size="14" lengthAdjust="spacing" textLength="89.4961" x="706.6733" y="2153.2803">conflicts: none</text><text fill="#334155" font-family="Helvetica" font-size="14" lengthAdjust="spacing" textLength="104.3164" x="706.6733" y="2167.2803">open gaps: none</text><text fill="#334155" font-family="Helvetica" font-size="14" lengthAdjust="spacing" textLength="224.9023" x="706.6733" y="2181.2803">Scaffold metadata only; replace with</text><text fill="#334155" font-family="Helvetica" font-size="14" lengthAdjust="spacing" textLength="244.3232" x="706.6733" y="2195.2803">controller-specific runtime states before</text><text fill="#334155" font-family="Helvetica" font-size="14" lengthAdjust="spacing" textLength="66.1445" x="706.6733" y="2209.2803">promotion.</text><ellipse cx="669.6733" cy="1995.5" fill="none" rx="11" ry="11" style="stroke:#222222;stroke-width:1;"/><ellipse cx="669.6733" cy="1995.5" fill="#222222" rx="6" ry="6" style="stroke:#222222;stroke-width:1;"/><line style="stroke:#0F172A;stroke-width:1;" x1="669.6733" x2="669.6733" y1="157" y2="177"/><polygon fill="#0F172A" points="665.6733,167,669.6733,177,673.6733,167,669.6733,171" style="stroke:#0F172A;stroke-width:1;"/><line style="stroke:#0F172A;stroke-width:1;" x1="822.3503" x2="822.3503" y1="341" y2="361"/><polygon fill="#0F172A" points="818.3503,351,822.3503,361,826.3503,351,822.3503,355" style="stroke:#0F172A;stroke-width:1;"/><line style="stroke:#0F172A;stroke-width:1;" x1="822.3503" x2="822.3503" y1="423" y2="443"/><polygon fill="#0F172A" points="818.3503,433,822.3503,443,826.3503,433,822.3503,437" style="stroke:#0F172A;stroke-width:1;"/><line style="stroke:#0F172A;stroke-width:1;" x1="528.2075" x2="516.9963" y1="257" y2="257"/><line style="stroke:#0F172A;stroke-width:1;" x1="516.9963" x2="516.9963" y1="257" y2="279"/><polygon fill="#0F172A" points="512.9963,269,516.9963,279,520.9963,269,516.9963,273" style="stroke:#0F172A;stroke-width:1;"/><line style="stroke:#0F172A;stroke-width:1;" x1="811.1392" x2="822.3503" y1="257" y2="257"/><line style="stroke:#0F172A;stroke-width:1;" x1="822.3503" x2="822.3503" y1="257" y2="279"/><polygon fill="#0F172A" points="818.3503,269,822.3503,279,826.3503,269,822.3503,273" style="stroke:#0F172A;stroke-width:1;"/><line style="stroke:#0F172A;stroke-width:1;" x1="516.9963" x2="516.9963" y1="327" y2="509"/><line style="stroke:#0F172A;stroke-width:1;" x1="516.9963" x2="657.6733" y1="509" y2="509"/><polygon fill="#0F172A" points="647.6733,505,657.6733,509,647.6733,513,651.6733,509" style="stroke:#0F172A;stroke-width:1;"/><line style="stroke:#0F172A;stroke-width:1;" x1="822.3503" x2="822.3503" y1="491" y2="509"/><line style="stroke:#0F172A;stroke-width:1;" x1="822.3503" x2="681.6733" y1="509" y2="509"/><polygon fill="#0F172A" points="691.6733,505,681.6733,509,691.6733,513,687.6733,509" style="stroke:#0F172A;stroke-width:1;"/><line style="stroke:#0F172A;stroke-width:1;" x1="669.6733" x2="669.6733" y1="225" y2="245"/><polygon fill="#0F172A" points="665.6733,235,669.6733,245,673.6733,235,669.6733,239" style="stroke:#0F172A;stroke-width:1;"/><line style="stroke:#0F172A;stroke-width:1;" x1="669.6733" x2="669.6733" y1="65" y2="109"/><polygon fill="#0F172A" points="665.6733,99,669.6733,109,673.6733,99,669.6733,103" style="stroke:#0F172A;stroke-width:1;"/><line style="stroke:#0F172A;stroke-width:1;" x1="339.7441" x2="339.7441" y1="697" y2="732"/><polygon fill="#0F172A" points="335.7441,722,339.7441,732,343.7441,722,339.7441,726" style="stroke:#0F172A;stroke-width:1;"/><line style="stroke:#0F172A;stroke-width:1;" x1="179.5718" x2="169.5718" y1="842" y2="842"/><line style="stroke:#0F172A;stroke-width:1;" x1="169.5718" x2="169.5718" y1="842" y2="864"/><polygon fill="#0F172A" points="165.5718,854,169.5718,864,173.5718,854,169.5718,858" style="stroke:#0F172A;stroke-width:1;"/><line style="stroke:#0F172A;stroke-width:1;" x1="499.9165" x2="509.9165" y1="842" y2="842"/><line style="stroke:#0F172A;stroke-width:1;" x1="509.9165" x2="509.9165" y1="842" y2="864"/><polygon fill="#0F172A" points="505.9165,854,509.9165,864,513.9165,854,509.9165,858" style="stroke:#0F172A;stroke-width:1;"/><line style="stroke:#0F172A;stroke-width:1;" x1="169.5718" x2="169.5718" y1="898" y2="930"/><line style="stroke:#0F172A;stroke-width:1;" x1="169.5718" x2="327.7441" y1="930" y2="930"/><polygon fill="#0F172A" points="317.7441,926,327.7441,930,317.7441,934,321.7441,930" style="stroke:#0F172A;stroke-width:1;"/><line style="stroke:#0F172A;stroke-width:1;" x1="509.9165" x2="509.9165" y1="912" y2="930"/><line style="stroke:#0F172A;stroke-width:1;" x1="509.9165" x2="351.7441" y1="930" y2="930"/><polygon fill="#0F172A" points="361.7441,926,351.7441,930,361.7441,934,357.7441,930" style="stroke:#0F172A;stroke-width:1;"/><line style="stroke:#0F172A;stroke-width:1;" x1="339.7441" x2="339.7441" y1="808" y2="830"/><polygon fill="#0F172A" points="335.7441,820,339.7441,830,343.7441,820,339.7441,824" style="stroke:#0F172A;stroke-width:1;"/><line style="stroke:#0F172A;stroke-width:1;" x1="339.7441" x2="339.7441" y1="942" y2="997"/><polygon fill="#0F172A" points="335.7441,987,339.7441,997,343.7441,987,339.7441,991" style="stroke:#0F172A;stroke-width:1;"/><line style="stroke:#0F172A;stroke-width:1;" x1="999.6025" x2="999.6025" y1="718" y2="753"/><polygon fill="#0F172A" points="995.6025,743,999.6025,753,1003.6025,743,999.6025,747" style="stroke:#0F172A;stroke-width:1;"/><line style="stroke:#0F172A;stroke-width:1;" x1="999.6025" x2="999.6025" y1="645" y2="670"/><polygon fill="#0F172A" points="995.6025,660,999.6025,670,1003.6025,660,999.6025,664" style="stroke:#0F172A;stroke-width:1;"/><line style="stroke:#0F172A;stroke-width:1;" x1="1097.8857" x2="1149.8989" y1="633" y2="633"/><polygon fill="#0F172A" points="1145.8989,709.5,1149.8989,719.5,1153.8989,709.5,1149.8989,713.5" style="stroke:#0F172A;stroke-width:1;"/><line style="stroke:#0F172A;stroke-width:1;" x1="1149.8989" x2="1149.8989" y1="633" y2="806"/><line style="stroke:#0F172A;stroke-width:1;" x1="1149.8989" x2="999.6025" y1="806" y2="806"/><line style="stroke:#0F172A;stroke-width:1;" x1="999.6025" x2="999.6025" y1="806" y2="828"/><polygon fill="#0F172A" points="995.6025,818,999.6025,828,1003.6025,818,999.6025,822" style="stroke:#0F172A;stroke-width:1;"/><line style="stroke:#0F172A;stroke-width:1;" x1="999.6025" x2="999.6025" y1="925" y2="960"/><polygon fill="#0F172A" points="995.6025,950,999.6025,960,1003.6025,950,999.6025,954" style="stroke:#0F172A;stroke-width:1;"/><line style="stroke:#0F172A;stroke-width:1;" x1="999.6025" x2="999.6025" y1="852" y2="877"/><polygon fill="#0F172A" points="995.6025,867,999.6025,877,1003.6025,867,999.6025,871" style="stroke:#0F172A;stroke-width:1;"/><line style="stroke:#0F172A;stroke-width:1;" x1="1132.1235" x2="1156.5605" y1="840" y2="840"/><polygon fill="#0F172A" points="1152.5605,916.5,1156.5605,926.5,1160.5605,916.5,1156.5605,920.5" style="stroke:#0F172A;stroke-width:1;"/><line style="stroke:#0F172A;stroke-width:1;" x1="1156.5605" x2="1156.5605" y1="840" y2="1013"/><line style="stroke:#0F172A;stroke-width:1;" x1="1156.5605" x2="999.6025" y1="1013" y2="1013"/><line style="stroke:#0F172A;stroke-width:1;" x1="999.6025" x2="999.6025" y1="1013" y2="1075"/><polygon fill="#0F172A" points="995.6025,1065,999.6025,1075,1003.6025,1065,999.6025,1069" style="stroke:#0F172A;stroke-width:1;"/><line style="stroke:#0F172A;stroke-width:1;" x1="999.6025" x2="999.6025" y1="1240" y2="1261.5"/><polygon fill="#0F172A" points="995.6025,1251.5,999.6025,1261.5,1003.6025,1251.5,999.6025,1255.5" style="stroke:#0F172A;stroke-width:1;"/><line style="stroke:#0F172A;stroke-width:1;" x1="999.6025" x2="999.6025" y1="1167" y2="1192"/><polygon fill="#0F172A" points="995.6025,1182,999.6025,1192,1003.6025,1182,999.6025,1186" style="stroke:#0F172A;stroke-width:1;"/><line style="stroke:#0F172A;stroke-width:1;" x1="1137.1855" x2="1160.8262" y1="1155" y2="1155"/><polygon fill="#0F172A" points="1156.8262,1231.5,1160.8262,1241.5,1164.8262,1231.5,1160.8262,1235.5" style="stroke:#0F172A;stroke-width:1;"/><line style="stroke:#0F172A;stroke-width:1;" x1="1160.8262" x2="1160.8262" y1="1155" y2="1305.5"/><line style="stroke:#0F172A;stroke-width:1;" x1="1160.8262" x2="999.6025" y1="1305.5" y2="1305.5"/><line style="stroke:#0F172A;stroke-width:1;" x1="999.6025" x2="999.6025" y1="1305.5" y2="1325.5"/><polygon fill="#0F172A" points="995.6025,1315.5,999.6025,1325.5,1003.6025,1315.5,999.6025,1319.5" style="stroke:#0F172A;stroke-width:1;"/><line style="stroke:#0F172A;stroke-width:1;" x1="999.6025" x2="999.6025" y1="1123" y2="1143"/><polygon fill="#0F172A" points="995.6025,1133,999.6025,1143,1003.6025,1133,999.6025,1137" style="stroke:#0F172A;stroke-width:1;"/><line style="stroke:#0F172A;stroke-width:1;" x1="877.1748" x2="858.3945" y1="1337.5" y2="1337.5"/><line style="stroke:#0F172A;stroke-width:1;" x1="858.3945" x2="858.3945" y1="1337.5" y2="1359.5"/><polygon fill="#0F172A" points="854.3945,1349.5,858.3945,1359.5,862.3945,1349.5,858.3945,1353.5" style="stroke:#0F172A;stroke-width:1;"/><line style="stroke:#0F172A;stroke-width:1;" x1="1122.0303" x2="1140.8105" y1="1337.5" y2="1337.5"/><line style="stroke:#0F172A;stroke-width:1;" x1="1140.8105" x2="1140.8105" y1="1337.5" y2="1359.5"/><polygon fill="#0F172A" points="1136.8105,1349.5,1140.8105,1359.5,1144.8105,1349.5,1140.8105,1353.5" style="stroke:#0F172A;stroke-width:1;"/><line style="stroke:#0F172A;stroke-width:1;" x1="858.3945" x2="858.3945" y1="1407.5" y2="1425.5"/><line style="stroke:#0F172A;stroke-width:1;" x1="858.3945" x2="987.6025" y1="1425.5" y2="1425.5"/><polygon fill="#0F172A" points="977.6025,1421.5,987.6025,1425.5,977.6025,1429.5,981.6025,1425.5" style="stroke:#0F172A;stroke-width:1;"/><line style="stroke:#0F172A;stroke-width:1;" x1="1140.8105" x2="1140.8105" y1="1393.5" y2="1425.5"/><line style="stroke:#0F172A;stroke-width:1;" x1="1140.8105" x2="1011.6025" y1="1425.5" y2="1425.5"/><polygon fill="#0F172A" points="1021.6025,1421.5,1011.6025,1425.5,1021.6025,1429.5,1017.6025,1425.5" style="stroke:#0F172A;stroke-width:1;"/><line style="stroke:#0F172A;stroke-width:1;" x1="999.6025" x2="999.6025" y1="1437.5" y2="1457.5"/><polygon fill="#0F172A" points="995.6025,1447.5,999.6025,1457.5,1003.6025,1447.5,999.6025,1451.5" style="stroke:#0F172A;stroke-width:1;"/><line style="stroke:#0F172A;stroke-width:1;" x1="999.6025" x2="999.6025" y1="1575.5" y2="1595.5"/><polygon fill="#0F172A" points="995.6025,1585.5,999.6025,1595.5,1003.6025,1585.5,999.6025,1589.5" style="stroke:#0F172A;stroke-width:1;"/><line style="stroke:#0F172A;stroke-width:1;" x1="999.6025" x2="999.6025" y1="1629.5" y2="1649.5"/><polygon fill="#0F172A" points="995.6025,1639.5,999.6025,1649.5,1003.6025,1639.5,999.6025,1643.5" style="stroke:#0F172A;stroke-width:1;"/><line style="stroke:#0F172A;stroke-width:1;" x1="999.6025" x2="999.6025" y1="1697.5" y2="1717.5"/><polygon fill="#0F172A" points="995.6025,1707.5,999.6025,1717.5,1003.6025,1707.5,999.6025,1711.5" style="stroke:#0F172A;stroke-width:1;"/><line style="stroke:#0F172A;stroke-width:1;" x1="595.4971" x2="339.7441" y1="565" y2="565"/><line style="stroke:#0F172A;stroke-width:1;" x1="339.7441" x2="339.7441" y1="565" y2="621"/><polygon fill="#0F172A" points="335.7441,611,339.7441,621,343.7441,611,339.7441,615" style="stroke:#0F172A;stroke-width:1;"/><line style="stroke:#0F172A;stroke-width:1;" x1="743.8496" x2="999.6025" y1="565" y2="565"/><line style="stroke:#0F172A;stroke-width:1;" x1="999.6025" x2="999.6025" y1="565" y2="621"/><polygon fill="#0F172A" points="995.6025,611,999.6025,621,1003.6025,611,999.6025,615" style="stroke:#0F172A;stroke-width:1;"/><line style="stroke:#0F172A;stroke-width:1;" x1="999.6025" x2="999.6025" y1="1751.5" y2="1768.5"/><line style="stroke:#0F172A;stroke-width:1;" x1="999.6025" x2="669.6733" y1="1768.5" y2="1768.5"/><line style="stroke:#0F172A;stroke-width:1;" x1="669.6733" x2="669.6733" y1="1768.5" y2="1984.5"/><polygon fill="#0F172A" points="665.6733,1974.5,669.6733,1984.5,673.6733,1974.5,669.6733,1978.5" style="stroke:#0F172A;stroke-width:1;"/><line style="stroke:#0F172A;stroke-width:1;" x1="669.6733" x2="669.6733" y1="521" y2="553"/><polygon fill="#0F172A" points="665.6733,543,669.6733,553,673.6733,543,669.6733,547" style="stroke:#0F172A;stroke-width:1;"/><?plantuml-src bLTjRzis4FwkNq5aNreWJfg-pqOnf4xQ1kYQ84dRBm82MZhPN6XI8obxtj3_leSlacKxJZS4GIJnUBnxxhc75tilLCqDdpCxuwLU2ZLb5PUMCjkjJ7XnFpMwKULOIstOBrM1dx9dKLB56-a-QEM-y3cnJoGNv4J17xQv4NyJEtdPM-J6w6No_gmwUVEylrDfH-ztOgYgD-NhRIjjIZB9OlBorOjdlsvP-EFJ-eiNBqzUlUgj1_U5DeeCEtcTEU4aiTF2YOLmApPWsiwvubEQatApPd9yQN_ltZyraokZAo79zjDgD_-JiGTWV5lngl0h_R1J-enLwr2xRwNWSwtA7JJeERsjdlKC-XvFofTKlbqlVdZ0iNNSk6rxwlntTXE-vVL75hPcI1Y02QtOmUN4abaGuwfaxuKg3v3-yCPRiShem3H39QkaNkOglXmZj2aGiyVnVM2eqAe0d8CMmoExc8wouJNn4boomhlOKm5cQoeES-KCS88P8dIDFGm1bIJ94HFAOSye4nLxSd2Rx90M_LLBKGZ7BiSNJ9ImyUMh3Lay_dRmbBaPAVPaHVPfDln8ph-peZ46os4FB7LZ2c8BmNC5YpqnZZ92bx4dIZ_rILaj0s88G5Zdkt33cPkXsjDPhZvZTL_MZGtTAwGZOtDLwBalYhUw4-LXG860uDWG7aBWkm77nNqdB7toIcDFO_b4Kgxct1Kp9YpO2ZR2-nNEHep1lObf1M2BuBZSm3LNA8DEvG4WgXGL21LgSXRhPEZFXYmsRc7Verkq32HBcshkPa030SSFUzB9rLB0q1yHs0G0sFw2vGfPF0O_CZax_tn-UtxciLULC0074Nh8usiadm_w9-G0O3yfDV2JgNoycFdeqjcZ3VWAILmrTM1-9HINK5w3FVWCyjccA6W7Mh1nhXUH8Eizl0Ahskxnr8gPRD0OFRvY4wb3CyKGsm20NUShLri1z6fldQvxBdjb_YmgAbRmnyQIMoigN2z-nHS-fEpH21n7SoD5PrQUeioIsqqma2gIgo7G6g0cDETSA0iFkRgwllnsSNDn-UNYoyT3zlNgxFGsF0MWyJHAmOR8joD02HjdGVIOemKzk9cIixknkCOet_cDIgPL8rcdVxw9S6r6E7FLApax7TzUV3lV2ED77p4lbQjG-ZCZAiS-uL528aAhZ8Cw49DY4LEFWVEfpp-shvZNsg3rSf2N96IqCHKlA37iWuPe31GjGtU3uD3D85nbEAm4Jmht4Bd-mFTaDA5ActZyl76Xd10Iut-ZxtIqPPjYjWlzJLF7O8CZN_V7mpYjQxbYN-lo4RNJ2YQLRyNMPmgc5BQMV7MdCEjiDi2zg0DqIWzqlSx92rBByU5rWmz6Bq0EmsOaQ_z7wtilsK4atxcg5UMZgCVNwTNVQUkrxrnWd3BVjRbFZFuEFJl7A6NQKkSgAkqxH-ZOKE32H_HkV7r-wjKYHtEMMsT6LDepOHAxlcyIvQKrYVS2yaxtGRo60DK0HLXGp1yt6nMDypTVI_gsDNp9FMgHqDtdzi92GG9dEg6E5yQMgDKQ15nvRN6Wy23qoo3fC0QAcCCeDJ-QNgSgMC21W0zP028yGUdcyEjVHcYfMBV0E3z2CYEcCvUbAIODBiFiVmqoMMySyfadP-kkxoP799dvSKQ4D3lY32PnP1bVVpqxP4imuJ2Q1cW6TOJCSw_qU4WBfXawod0JEQEbX0VeD9VhWzh06I_BJEBkWO6-XtIZd0x3aoMmqqMO1U53H3IR9Qh5yKhN55fu3jTJNjkZZ1k8bLlLXDaHt1ZYYiM07MO1FoOAD7eSgqrMTC754Ixb_210db9PkB_JQSPN7Fzxw2NSsvceZxBaVxWzkMTMDjEThtKxlsDyBuVxPijrFaCsRJCPR6SIot3SiNEu9kznzYX3itGf3VyBExDEHqAls64QirZ_xXh5lPIrLzYelSRRcoopdNe6rHnkA1mY2ksNn3g86iBhD3gfOhOfqO52B588pL7mgjAolDl2_6vV3T8KonuSOhFska72IYlA0kiytTBxJJgEpG4rSkT1oqSe0hBoUWNUzDWs26J3GD6HACAPKlOepxLlfYEl1U7_o7y1?></g></svg>