<?plantuml 1.2026.1?><svg xmlns="http://www.w3.org/2000/svg" xmlns:xlink="http://www.w3.org/1999/xlink" contentStyleType="text/css" data-diagram-type="STATE" height="625px" preserveAspectRatio="none" style="width:4886px;height:625px;background:#FCFCFD;" version="1.1" viewBox="0 0 4886 625" width="4886px" zoomAndPan="magnify"><title>State Machine - databasemanagement/DatabaseManagementExternalcontainerdatabaseExternalContainerDbmFeaturesManagement</title><defs/><g><rect fill="#FCFCFD" height="625" style="stroke:none;stroke-width:1;" width="4886" x="0" y="0"/><g class="title" data-source-line="10"><text fill="#000000" font-family="Helvetica" font-size="14" font-weight="bold" lengthAdjust="spacing" textLength="879.9355" x="1996.1652" y="20.7803">State Machine - databasemanagement/DatabaseManagementExternalcontainerdatabaseExternalContainerDbmFeaturesManagement</text></g><g><rect fill="#F8FAFC" height="62" rx="8" ry="8" style="stroke:#0F172A;stroke-width:0.5;" width="264.3643" x="716" y="423"/><line style="stroke:#0F172A;stroke-width:0.5;" x1="716" x2="980.3643" y1="447" y2="447"/><text fill="#0F172A" font-family="Helvetica" font-size="14" lengthAdjust="spacing" textLength="52.9102" x="821.7271" y="438.7803">Observe</text><text fill="#0F172A" font-family="Helvetica" font-size="14" lengthAdjust="spacing" textLength="244.3643" x="721" y="462.7803">read spec, tracked status, delete intent,</text><text fill="#0F172A" font-family="Helvetica" font-size="14" lengthAdjust="spacing" textLength="153.2822" x="721" y="476.7803">and current OCI lifecycle</text></g><rect fill="#F8FAFC" height="40" rx="8" ry="8" style="stroke:#0F172A;stroke-width:0.5;" width="104.9512" x="1777.36" y="266"/><text fill="#0F172A" font-family="Helvetica" font-size="14" lengthAdjust="spacing" textLength="94.9512" x="1782.36" y="289.7803">EvaluateReady</text><rect fill="#F8FAFC" height="40" rx="8" ry="8" style="stroke:#0F172A;stroke-width:0.5;" width="50.4688" x="2536.32" y="266"/><text fill="#0F172A" font-family="Helvetica" font-size="14" lengthAdjust="spacing" textLength="40.4688" x="2541.32" y="289.7803">Ready</text><rect fill="#F8FAFC" height="40" rx="8" ry="8" style="stroke:#0F172A;stroke-width:0.5;" width="69.917" x="1794.88" y="401"/><text fill="#0F172A" font-family="Helvetica" font-size="14" lengthAdjust="spacing" textLength="59.917" x="1799.88" y="424.7803">Retryable</text><rect fill="#F8FAFC" height="40" rx="8" ry="8" style="stroke:#0F172A;stroke-width:0.5;" width="50" x="1804.84" y="520"/><text fill="#0F172A" font-family="Helvetica" font-size="14" lengthAdjust="spacing" textLength="38.1309" x="1810.7746" y="543.7803">Failed</text><rect fill="#F8FAFC" height="40" rx="8" ry="8" style="stroke:#0F172A;stroke-width:0.5;" width="122.8477" x="1258.44" y="377"/><text fill="#0F172A" font-family="Helvetica" font-size="14" lengthAdjust="spacing" textLength="112.8477" x="1263.44" y="400.7803">ResolveByLookup</text><rect fill="#F8FAFC" height="40" rx="8" ry="8" style="stroke:#0F172A;stroke-width:0.5;" width="155.5098" x="2111.56" y="356"/><text fill="#0F172A" font-family="Helvetica" font-size="14" lengthAdjust="spacing" textLength="145.5098" x="2116.56" y="379.7803">RejectUnsupportedDrift</text><rect fill="#F8FAFC" height="40" rx="8" ry="8" style="stroke:#0F172A;stroke-width:0.5;" width="90.165" x="2144.23" y="195"/><text fill="#0F172A" font-family="Helvetica" font-size="14" lengthAdjust="spacing" textLength="80.165" x="2149.23" y="218.7803">ApplyUpdate</text><rect fill="#F8FAFC" height="40" rx="8" ry="8" style="stroke:#0F172A;stroke-width:0.5;" width="101.8477" x="3099.56" y="520"/><text fill="#0F172A" font-family="Helvetica" font-size="14" lengthAdjust="spacing" textLength="91.8477" x="3104.56" y="543.7803">DeletePending</text><rect fill="#F8FAFC" height="40" rx="8" ry="8" style="stroke:#0F172A;stroke-width:0.5;" width="58.2549" x="4797.55" y="447"/><text fill="#0F172A" font-family="Helvetica" font-size="14" lengthAdjust="spacing" textLength="48.2549" x="4802.55" y="470.7803">Deleted</text><rect fill="#F8FAFC" height="40" rx="8" ry="8" style="stroke:#0F172A;stroke-width:0.5;" width="152.4268" x="4122.16" y="447"/><text fill="#0F172A" font-family="Helvetica" font-size="14" lengthAdjust="spacing" textLength="142.4268" x="4127.16" y="470.7803">DeleteCleanupBlocked</text><ellipse cx="16" cy="454" fill="#222222" rx="10" ry="10" style="stroke:#222222;stroke-width:1;"/><g class="entity" data-qualified-name="GMN2" data-source-line="55" id="ent0003"><path d="M2752.78,49 L2752.78,274.56 L2587.02,285.04 L2752.78,282.56 L2752.78,477 A8,8 0 0 0 2760.78,485 L3540.1892,485 A8,8 0 0 0 3548.1892,477 L3548.1892,51 L3538.1892,41 L2760.78,41 A8,8 0 0 0 2752.78,49" fill="#FFF7D6" style="stroke:#B45309;stroke-width:0.5;"/><path d="M3538.1892,41 L3538.1892,47 A4,4 0 0 0 3542.1892,51 L3548.1892,51 L3538.1892,41" fill="#FFF7D6" style="stroke:#B45309;stroke-width:0.5;"/><text fill="#334155" font-family="Helvetica" font-size="14" lengthAdjust="spacing" textLength="101.165" x="2758.78" y="56.7803">shared diagram:</text><text fill="#334155" font-family="Helvetica" font-size="14" lengthAdjust="spacing" textLength="331.4814" x="2758.78" y="70.7803">shared/diagrams/shared-controller-state-machine.svg</text><text fill="#334155" font-family="Helvetica" font-size="14" lengthAdjust="spacing" textLength="304.2744" x="2758.78" y="84.7803">Start from the shared controller phase model and</text><text fill="#334155" font-family="Helvetica" font-size="14" lengthAdjust="spacing" textLength="261.4678" x="2758.78" y="98.7803">specialize imported provider states, delete</text><text fill="#334155" font-family="Helvetica" font-size="14" lengthAdjust="spacing" textLength="184.4336" x="2758.78" y="112.7803">targets, and failure exits here.</text><text fill="#334155" font-family="Helvetica" font-size="14" lengthAdjust="spacing" textLength="281.709" x="2758.78" y="126.7803">archetype batch: Generated service-manager</text><text fill="#334155" font-family="Helvetica" font-size="14" lengthAdjust="spacing" textLength="287.9229" x="2758.78" y="140.7803">controllers map provider states into the shared</text><text fill="#334155" font-family="Helvetica" font-size="14" lengthAdjust="spacing" textLength="261.4609" x="2758.78" y="154.7803">controller phases with explicit finalizer and</text><text fill="#334155" font-family="Helvetica" font-size="14" lengthAdjust="spacing" textLength="105.8477" x="2758.78" y="168.7803">requeue policies.</text><text fill="#334155" font-family="Helvetica" font-size="14" lengthAdjust="spacing" textLength="191.4473" x="2758.78" y="182.7803">service: databasemanagement</text><text fill="#334155" font-family="Helvetica" font-size="14" lengthAdjust="spacing" textLength="29.5723" x="2758.78" y="196.7803">slug:</text><text fill="#334155" font-family="Helvetica" font-size="14" lengthAdjust="spacing" textLength="571.2656" x="2758.78" y="210.7803">databasemanagementexternalcontainerdatabaseexternalcontainerdbmfeaturesmanagement</text><text fill="#334155" font-family="Helvetica" font-size="14" lengthAdjust="spacing" textLength="29.5723" x="2758.78" y="224.7803">kind:</text><text fill="#334155" font-family="Helvetica" font-size="14" lengthAdjust="spacing" textLength="586.79" x="2758.78" y="238.7803">DatabaseManagementExternalcontainerdatabaseExternalContainerDbmFeaturesManagement</text><text fill="#334155" font-family="Helvetica" font-size="14" lengthAdjust="spacing" textLength="241.2402" x="2758.78" y="252.7803">archetype: generated-service-manager</text><text fill="#334155" font-family="Helvetica" font-size="14" lengthAdjust="spacing" textLength="156.4063" x="2758.78" y="266.7803">status/finalizer: required /</text><text fill="#334155" font-family="Helvetica" font-size="14" lengthAdjust="spacing" textLength="174.3027" x="2758.78" y="280.7803">retain-until-confirmed-delete</text><text fill="#334155" font-family="Helvetica" font-size="14" lengthAdjust="spacing" textLength="272.3984" x="2758.78" y="294.7803">requeue: provisioning, updating, terminating</text><text fill="#334155" font-family="Helvetica" font-size="14" lengthAdjust="spacing" textLength="295.6816" x="2758.78" y="308.7803">provider states: create PROVISIONING; update</text><text fill="#334155" font-family="Helvetica" font-size="14" lengthAdjust="spacing" textLength="192.165" x="2758.78" y="322.7803">UPDATING; delete DELETING</text><text fill="#334155" font-family="Helvetica" font-size="14" lengthAdjust="spacing" textLength="183.6611" x="2758.78" y="336.7803">supported drift: display_name</text><text fill="#334155" font-family="Helvetica" font-size="14" lengthAdjust="spacing" textLength="230.3301" x="2758.78" y="350.7803">reject before mutate: force-new fields</text><text fill="#334155" font-family="Helvetica" font-size="14" lengthAdjust="spacing" textLength="100.3789" x="2758.78" y="364.7803">compartment_id</text><text fill="#334155" font-family="Helvetica" font-size="14" lengthAdjust="spacing" textLength="66.1445" x="2758.78" y="378.7803">list lookup:</text><text fill="#334155" font-family="Helvetica" font-size="14" lengthAdjust="spacing" textLength="774.4092" x="2758.78" y="392.7803">scaffold_databasemanagement_databasemanagementexternalcontainerdatabaseexternalcontainerdbmfeaturesmanagement</text><text fill="#334155" font-family="Helvetica" font-size="14" lengthAdjust="spacing" textLength="175.8477" x="2758.78" y="406.7803">filters compartment_id, state</text><text fill="#334155" font-family="Helvetica" font-size="14" lengthAdjust="spacing" textLength="89.4961" x="2758.78" y="420.7803">conflicts: none</text><text fill="#334155" font-family="Helvetica" font-size="14" lengthAdjust="spacing" textLength="104.3164" x="2758.78" y="434.7803">open gaps: none</text><text fill="#334155" font-family="Helvetica" font-size="14" lengthAdjust="spacing" textLength="224.9023" x="2758.78" y="448.7803">Scaffold metadata only; replace with</text><text fill="#334155" font-family="Helvetica" font-size="14" lengthAdjust="spacing" textLength="244.3232" x="2758.78" y="462.7803">controller-specific runtime states before</text><text fill="#334155" font-family="Helvetica" font-size="14" lengthAdjust="spacing" textLength="66.1445" x="2758.78" y="476.7803">promotion.</text></g><g class="entity" data-qualified-name="GMN5" data-source-line="88" id="ent0006"><path d="M3883.19,530 L3883.19,556.28 L3201.58,541.39 L3883.19,564.28 L3883.19,608 A8,8 0 0 0 3891.19,616 L4505.5455,616 A8,8 0 0 0 4513.5455,608 L4513.5455,532 L4503.5455,522 L3891.19,522 A8,8 0 0 0 3883.19,530" fill="#FFF7D6" style="stroke:#B45309;stroke-width:0.5;"/><path d="M4503.5455,522 L4503.5455,528 A4,4 0 0 0 4507.5455,532 L4513.5455,532 L4503.5455,522" fill="#FFF7D6" style="stroke:#B45309;stroke-width:0.5;"/><text fill="#334155" font-family="Helvetica" font-size="14" lengthAdjust="spacing" textLength="136.9717" x="3889.19" y="537.7803">delete policy: required</text><text fill="#334155" font-family="Helvetica" font-size="14" lengthAdjust="spacing" textLength="95.7305" x="3889.19" y="551.7803">delete observe:</text><text fill="#334155" font-family="Helvetica" font-size="14" lengthAdjust="spacing" textLength="609.3555" x="3889.19" y="565.7803">GetDatabaseManagementExternalcontainerdatabaseExternalContainerDbmFeaturesManagement</text><text fill="#334155" font-family="Helvetica" font-size="14" lengthAdjust="spacing" textLength="12.4482" x="3889.19" y="579.7803">or</text><text fill="#334155" font-family="Helvetica" font-size="14" lengthAdjust="spacing" textLength="608.5762" x="3889.19" y="593.7803">ListDatabaseManagementExternalcontainerdatabaseExternalContainerDbmFeaturesManagement</text><text fill="#334155" font-family="Helvetica" font-size="14" lengthAdjust="spacing" textLength="157.1855" x="3889.19" y="607.7803">delete targets: DELETED</text></g><!--link *start* to observe--><g class="link" data-entity-1="ent0002" data-entity-2="ent0002" data-link-type="dependency" data-source-line="32" id="lnk3"><path d="M26.32,454 C93.04,454 495.32,454 709.81,454" fill="none" id="*start*-to-observe" style="stroke:#0F172A;stroke-width:1;"/><polygon fill="#0F172A" points="715.81,454,706.81,450,710.81,454,706.81,458,715.81,454" style="stroke:#0F172A;stroke-width:1;"/><text fill="#000000" font-family="Helvetica" font-size="14" lengthAdjust="spacing" textLength="628.8105" x="57" y="449.7803">CreateDatabaseManagementExternalcontainerdatabaseExternalContainerDbmFeaturesManagement</text></g><!--link observe to resolve_by_lookup--><g class="link" data-entity-1="ent0002" data-entity-2="ent0007" data-link-type="dependency" data-source-line="33" id="lnk4"><path d="M980.64,438.05 C1071.55,427.01 1182.3337,413.5731 1252.1837,405.0931" fill="none" id="observe-to-resolve_by_lookup" style="stroke:#0F172A;stroke-width:1;"/><polygon fill="#0F172A" points="1258.14,404.37,1248.7235,401.4838,1253.1764,404.9726,1249.6877,409.4255,1258.14,404.37" style="stroke:#0F172A;stroke-width:1;"/><text fill="#000000" font-family="Helvetica" font-size="14" lengthAdjust="spacing" textLength="145.5029" x="1011.36" y="412.8403">tracked identity missing</text></g><!--link resolve_by_lookup to evaluate_ready--><g class="link" data-entity-1="ent0007" data-entity-2="ent0003" data-link-type="dependency" data-source-line="34" id="lnk5"><path d="M1381.57,385.58 C1495.1,364.19 1729.77,319.79 1747.36,315 C1757.07,312.36 1761.6038,311.0543 1771.3838,307.7043" fill="none" id="resolve_by_lookup-to-evaluate_ready" style="stroke:#0F172A;stroke-width:1;"/><polygon fill="#0F172A" points="1777.06,305.76,1767.2494,304.8923,1772.3298,307.3803,1769.8419,312.4606,1777.06,305.76" style="stroke:#0F172A;stroke-width:1;"/><text fill="#000000" font-family="Helvetica" font-size="14" lengthAdjust="spacing" textLength="154.0889" x="1537.86" y="296.7803">lookup or create reaches</text><text fill="#000000" font-family="Helvetica" font-size="14" lengthAdjust="spacing" textLength="50.5654" x="1589.6217" y="310.7803">ACTIVE</text></g><!--link resolve_by_lookup to retryable--><g class="link" data-entity-1="ent0007" data-entity-2="ent0005" data-link-type="dependency" data-source-line="35" id="lnk6"><path d="M1381.63,399.87 C1489.21,404.95 1703.8067,415.0973 1788.5967,419.0973" fill="none" id="resolve_by_lookup-to-retryable" style="stroke:#0F172A;stroke-width:1;"/><polygon fill="#0F172A" points="1794.59,419.38,1785.7885,414.9603,1789.5956,419.1444,1785.4115,422.9514,1794.59,419.38" style="stroke:#0F172A;stroke-width:1;"/><text fill="#000000" font-family="Helvetica" font-size="14" lengthAdjust="spacing" textLength="184.3789" x="1522.86" y="386.5403">OCI state in PROVISIONING,</text><text fill="#000000" font-family="Helvetica" font-size="14" lengthAdjust="spacing" textLength="150.1309" x="1539.984" y="400.5403">UPDATING, DELETING</text></g><!--link resolve_by_lookup to failed--><g class="link" data-entity-1="ent0007" data-entity-2="ent0006" data-link-type="dependency" data-source-line="36" id="lnk7"><path d="M1381.63,414.11 C1493.69,445.65 1722.5847,510.0834 1798.6747,531.5134" fill="none" id="resolve_by_lookup-to-failed" style="stroke:#0F172A;stroke-width:1;"/><polygon fill="#0F172A" points="1804.45,533.14,1796.8714,526.8499,1799.6372,531.7845,1794.7026,534.5504,1804.45,533.14" style="stroke:#0F172A;stroke-width:1;"/><text fill="#000000" font-family="Helvetica" font-size="14" lengthAdjust="spacing" textLength="263.7783" x="1483.36" y="439.0303">unresolved OCI error or non-success state</text></g><!--link observe to evaluate_ready--><g class="link" data-entity-1="ent0002" data-entity-2="ent0003" data-link-type="dependency" data-source-line="37" id="lnk8"><path d="M925.96,422.64 C952.45,412.43 982.47,401.55 1010.36,393 C1216.5,329.82 1268.22,306.06 1482.36,281 C1586.33,268.83 1703.0497,275.0341 1770.9897,280.5541" fill="none" id="observe-to-evaluate_ready" style="stroke:#0F172A;stroke-width:1;"/><polygon fill="#0F172A" points="1776.97,281.04,1768.3235,276.3243,1771.9864,280.6351,1767.6756,284.298,1776.97,281.04" style="stroke:#0F172A;stroke-width:1;"/><text fill="#000000" font-family="Helvetica" font-size="14" lengthAdjust="spacing" textLength="128.3721" x="1255.86" y="280.9503">OCI state in ACTIVE</text></g><!--link observe to retryable--><g class="link" data-entity-1="ent0002" data-entity-2="ent0005" data-link-type="dependency" data-source-line="38" id="lnk9"><path d="M980.47,458.33 C1043.11,460.38 1119.11,462.85 1187.36,465 C1436.16,472.84 1508.72,544.79 1747.36,474 C1758.77,470.62 1777.445,458.3638 1796.305,444.9138" fill="none" id="observe-to-retryable" style="stroke:#0F172A;stroke-width:1;"/><polygon fill="#0F172A" points="1801.19,441.43,1791.54,443.3989,1797.1191,444.3331,1796.185,449.9123,1801.19,441.43" style="stroke:#0F172A;stroke-width:1;"/><text fill="#000000" font-family="Helvetica" font-size="14" lengthAdjust="spacing" textLength="184.3789" x="1227.86" y="446.7803">OCI state in PROVISIONING,</text><text fill="#000000" font-family="Helvetica" font-size="14" lengthAdjust="spacing" textLength="150.1309" x="1244.984" y="460.7803">UPDATING, DELETING</text></g><!--link observe to failed--><g class="link" data-entity-1="ent0002" data-entity-2="ent0006" data-link-type="dependency" data-source-line="39" id="lnk10"><path d="M980.52,484.76 C1042.83,498.03 1118.56,512.26 1187.36,520 C1426.8,546.92 1713.4516,542.7695 1798.5616,540.7895" fill="none" id="observe-to-failed" style="stroke:#0F172A;stroke-width:1;"/><polygon fill="#0F172A" points="1804.56,540.65,1795.4694,536.8604,1799.5614,540.7663,1795.6555,544.8582,1804.56,540.65" style="stroke:#0F172A;stroke-width:1;"/><text fill="#000000" font-family="Helvetica" font-size="14" lengthAdjust="spacing" textLength="263.7783" x="1188.36" y="515.7803">unresolved OCI error or non-success state</text></g><!--link evaluate_ready to reject_unsupported_drift--><g class="link" data-entity-1="ent0003" data-entity-2="ent0008" data-link-type="dependency" data-source-line="40" id="lnk11"><path d="M1854.06,306.48 C1869.49,318.89 1890.81,333.85 1912.32,342 C1976.53,366.35 2048.6042,373.9058 2105.3042,376.0258" fill="none" id="evaluate_ready-to-reject_unsupported_drift" style="stroke:#0F172A;stroke-width:1;"/><polygon fill="#0F172A" points="2111.3,376.25,2102.4557,371.9165,2106.3035,376.0632,2102.1568,379.9109,2111.3,376.25" style="stroke:#0F172A;stroke-width:1;"/><text fill="#000000" font-family="Helvetica" font-size="14" lengthAdjust="spacing" textLength="143.9512" x="1923.32" y="323.7803">force-new or conflicting</text><text fill="#000000" font-family="Helvetica" font-size="14" lengthAdjust="spacing" textLength="80.9375" x="1954.8268" y="337.7803">drift detected</text></g><!--link reject_unsupported_drift to ready--><g class="link" data-entity-1="ent0008" data-entity-2="ent0004" data-link-type="dependency" data-source-line="41" id="lnk12"><path d="M2267.32,375.06 C2333.2,371.77 2429.3,361 2506.32,328 C2518.36,322.84 2525.4802,318.2363 2534.9202,310.2463" fill="none" id="reject_unsupported_drift-to-ready" style="stroke:#0F172A;stroke-width:1;"/><polygon fill="#0F172A" points="2539.5,306.37,2530.0461,309.1313,2535.6835,309.6003,2535.2146,315.2376,2539.5,306.37" style="stroke:#0F172A;stroke-width:1;"/><text fill="#000000" font-family="Helvetica" font-size="14" lengthAdjust="spacing" textLength="203.8818" x="2302.32" y="323.7803">wait for spec or live state change</text></g><!--link evaluate_ready to apply_update--><g class="link" data-entity-1="ent0003" data-entity-2="ent0009" data-link-type="dependency" data-source-line="42" id="lnk13"><path d="M1882.72,268.96 C1892.49,266.07 1902.67,263.27 1912.32,261 C1993.17,241.95 2083.2022,228.6097 2138.0322,221.3297" fill="none" id="evaluate_ready-to-apply_update" style="stroke:#0F172A;stroke-width:1;"/><polygon fill="#0F172A" points="2143.98,220.54,2134.5318,217.7594,2139.0235,221.1981,2135.5848,225.6898,2143.98,220.54" style="stroke:#0F172A;stroke-width:1;"/><text fill="#000000" font-family="Helvetica" font-size="14" lengthAdjust="spacing" textLength="163.4199" x="1913.32" y="212.0903">supported mutable drift for</text><text fill="#000000" font-family="Helvetica" font-size="14" lengthAdjust="spacing" textLength="86.3857" x="1951.8371" y="226.0903">display_name</text></g><!--link apply_update to ready--><g class="link" data-entity-1="ent0009" data-entity-2="ent0004" data-link-type="dependency" data-source-line="43" id="lnk14"><path d="M2234.88,217.45 C2296.86,221.76 2412.1,233.07 2506.32,261 C2516.36,263.98 2521.5025,265.9001 2530.6125,270.2801" fill="none" id="apply_update-to-ready" style="stroke:#0F172A;stroke-width:1;"/><polygon fill="#0F172A" points="2536.02,272.88,2529.642,265.3752,2531.5138,270.7135,2526.1756,272.5852,2536.02,272.88" style="stroke:#0F172A;stroke-width:1;"/><text fill="#000000" font-family="Helvetica" font-size="14" lengthAdjust="spacing" textLength="141.6543" x="2333.32" y="219.4503">update path completes</text></g><!--link evaluate_ready to ready--><g class="link" data-entity-1="ent0003" data-entity-2="ent0004" data-link-type="dependency" data-source-line="44" id="lnk15"><path d="M1882.73,286 C2027.46,286 2425.77,286 2529.86,286" fill="none" id="evaluate_ready-to-ready" style="stroke:#0F172A;stroke-width:1;"/><polygon fill="#0F172A" points="2535.86,286,2526.86,282,2530.86,286,2526.86,290,2535.86,286" style="stroke:#0F172A;stroke-width:1;"/><text fill="#000000" font-family="Helvetica" font-size="14" lengthAdjust="spacing" textLength="162.6406" x="2108.32" y="281.7803">no supported drift remains</text></g><!--link ready to ready--><g class="link" data-entity-1="ent0004" data-entity-2="ent0004" data-link-type="dependency" data-source-line="45" id="lnk16"><path d="M2544.35,265.69 C2537,248.73 2542.74,231 2561.55,231 C2580.36,231 2588.4858,243.2247 2581.1358,260.1847" fill="none" id="ready-to-ready" style="stroke:#0F172A;stroke-width:1;"/><polygon fill="#0F172A" points="2578.75,265.69,2585.9989,259.0227,2580.7382,261.1023,2578.6586,255.8416,2578.75,265.69" style="stroke:#0F172A;stroke-width:1;"/><text fill="#000000" font-family="Helvetica" font-size="14" lengthAdjust="spacing" textLength="162.6406" x="2480.55" y="221.7803">no supported drift remains</text></g><!--link retryable to retryable--><g class="link" data-entity-1="ent0005" data-entity-2="ent0005" data-link-type="dependency" data-source-line="46" id="lnk17"><path d="M1803.63,400.69 C1792.42,383.73 1801.16,366 1829.84,366 C1858.52,366 1870.5564,378.7232 1859.3564,395.6832" fill="none" id="retryable-to-retryable" style="stroke:#0F172A;stroke-width:1;"/><polygon fill="#0F172A" points="1856.05,400.69,1864.3474,395.3841,1858.8053,396.5177,1857.6717,390.9756,1856.05,400.69" style="stroke:#0F172A;stroke-width:1;"/><text fill="#000000" font-family="Helvetica" font-size="14" lengthAdjust="spacing" textLength="136.9307" x="1761.84" y="356.7803">OCI remains retryable</text></g><!--link failed to failed--><g class="link" data-entity-1="ent0006" data-entity-2="ent0006" data-link-type="dependency" data-source-line="47" id="lnk18"><path d="M1804.41,520.83 C1792.04,503.53 1800.52,485 1829.84,485 C1859.16,485 1871.1298,498.6493 1858.7598,515.9493" fill="none" id="failed-to-failed" style="stroke:#0F172A;stroke-width:1;"/><polygon fill="#0F172A" points="1855.27,520.83,1863.7585,515.8355,1858.1782,516.7628,1857.251,511.1824,1855.27,520.83" style="stroke:#0F172A;stroke-width:1;"/><text fill="#000000" font-family="Helvetica" font-size="14" lengthAdjust="spacing" textLength="132.2549" x="1763.84" y="475.7803">OCI remains terminal</text></g><!--link ready to delete_pending--><g class="link" data-entity-1="ent0004" data-entity-2="ent0010" data-link-type="dependency" data-source-line="48" id="lnk19"><path d="M2587.04,301.51 C2621.67,324.58 2684.93,371.03 2722.78,425 C2744.11,455.41 2723.18,480.57 2752.78,503 C2855.06,580.48 3011.5004,566.1378 3093.1604,551.7978" fill="none" id="ready-to-delete_pending" style="stroke:#0F172A;stroke-width:1;"/><polygon fill="#0F172A" points="3099.07,550.76,3089.5138,548.3769,3094.1454,551.6248,3090.8975,556.2564,3099.07,550.76" style="stroke:#0F172A;stroke-width:1;"/><text fill="#000000" font-family="Helvetica" font-size="14" lengthAdjust="spacing" textLength="104.3027" x="2617.78" y="319.3703">delete requested</text></g><!--link retryable to delete_pending--><g class="link" data-entity-1="ent0005" data-entity-2="ent0010" data-link-type="dependency" data-source-line="49" id="lnk20"><path d="M1865.1,424.09 C2045.41,440.36 2878.3743,515.5305 3093.2643,534.9305" fill="none" id="retryable-to-delete_pending" style="stroke:#0F172A;stroke-width:1;"/><polygon fill="#0F172A" points="3099.24,535.47,3090.6361,530.677,3094.2603,535.0204,3089.9168,538.6446,3099.24,535.47" style="stroke:#0F172A;stroke-width:1;"/><text fill="#000000" font-family="Helvetica" font-size="14" lengthAdjust="spacing" textLength="104.3027" x="2351.82" y="459.9903">delete requested</text></g><!--link failed to delete_pending--><g class="link" data-entity-1="ent0006" data-entity-2="ent0010" data-link-type="dependency" data-source-line="50" id="lnk21"><path d="M1855.14,540 C2011.87,540 2874.55,540 3093.42,540" fill="none" id="failed-to-delete_pending" style="stroke:#0F172A;stroke-width:1;"/><polygon fill="#0F172A" points="3099.42,540,3090.42,536,3094.42,540,3090.42,544,3099.42,540" style="stroke:#0F172A;stroke-width:1;"/><text fill="#000000" font-family="Helvetica" font-size="14" lengthAdjust="spacing" textLength="104.3027" x="2351.82" y="535.7803">delete requested</text></g><!--link delete_pending to delete_cleanup_blocked--><g class="link" data-entity-1="ent0010" data-entity-2="ent0012" data-link-type="dependency" data-source-line="51" id="lnk22"><path d="M3201.58,536.5 C3370.49,524.71 3913.8146,486.7876 4115.8946,472.6876" fill="none" id="delete_pending-to-delete_cleanup_blocked" style="stroke:#0F172A;stroke-width:1;"/><polygon fill="#0F172A" points="4121.88,472.27,4112.6234,468.9061,4116.8921,472.618,4113.1802,476.8867,4121.88,472.27" style="stroke:#0F172A;stroke-width:1;"/><text fill="#000000" font-family="Helvetica" font-size="14" lengthAdjust="spacing" textLength="273.1436" x="3579.19" y="488.4803">cleanup or finalizer release remains blocked</text></g><!--link delete_cleanup_blocked to deleted--><g class="link" data-entity-1="ent0012" data-entity-2="ent0011" data-link-type="dependency" data-source-line="52" id="lnk23"><path d="M4274.92,467 C4414.17,467 4699.47,467 4791.31,467" fill="none" id="delete_cleanup_blocked-to-deleted" style="stroke:#0F172A;stroke-width:1;"/><polygon fill="#0F172A" points="4797.31,467,4788.31,463,4792.31,467,4788.31,471,4797.31,467" style="stroke:#0F172A;stroke-width:1;"/><text fill="#000000" font-family="Helvetica" font-size="14" lengthAdjust="spacing" textLength="222.5645" x="4544.55" y="462.7803">retry delete completion until allowed</text></g><!--link deleted to deleted--><g class="link" data-entity-1="ent0011" data-entity-2="ent0011" data-link-type="dependency" data-source-line="53" id="lnk24"><path d="M4799.49,446.69 C4787.87,429.73 4796.93,412 4826.68,412 C4856.42,412 4868.8812,424.7803 4857.2612,441.7403" fill="none" id="deleted-to-deleted" style="stroke:#0F172A;stroke-width:1;"/><polygon fill="#0F172A" points="4853.87,446.69,4862.2567,441.5263,4856.696,442.5653,4855.6571,437.0046,4853.87,446.69" style="stroke:#0F172A;stroke-width:1;"/><text fill="#000000" font-family="Helvetica" font-size="14" lengthAdjust="spacing" textLength="92.5859" x="4780.68" y="402.7803">terminal stutter</text></g><?plantuml-src jLTBRnit4BxpLn3fhR3ik74UbO42YUMa1fmuYEDScaAWo5c93PVSabmxQj7_tXcIkrgjP0GDNEYod1b-yvwXmXTj6-55pSDAA7UdxP9NmWHWeUSiXFoozAwrwimPv_aFbSIV6aWeg4HhucjdupjH0_yLp2r4BSL-cMlz5_3Zam5JUE_k2lhZwlZvJyERraLujMD3LJrNpyPIpYlmHM9nylJ9uvz74gI-y9yyEJb--dJ0J_3IUGkU7pzZKKS3_3gA2Foja2jjWK-u4b4iH81QMB646cmycXNIsvvq_ZM2jy98r2RmdkzkTOopZZ5RrAz1nDP3s5mVs1II-hyPtvE55vMe9766NfVeSLvjFErfYEOxuh4w0VK2YT0Z5hb_c84gykYuryjLv4fxa54xorPQ0OUwYMjCPv1UDucSZNnqjGZWR-4H5u6x_Dsnpc-5QV7h0mYrJW9GA7DFf4vkmn-Her-BXO72AgUE_Lfe0ohnglJ9Yde-JJWyD20FUFGOGb0ffcquG1SCu7Lj8yRyuBCLLd7PUeydVdLsmOskGAxbHiy720uB-zNwqhalRLECIRJvOZqtYReH_WEZTcD3spJEHr0phwjOxX1htcvuSqNCxkhBfZ7hcmQB9Ziiw3nl4w6JcINZtsFoi6MJL7PdtcJIjfmQIAXjrfa1OTlcbN4Kd26Ip9pv8hFORp_-pYUJN_Wck6SOtGWFN_-T1jAs4s3KssKIoz5YcwvvhKCWftU52MAxrl1-uM7Do-G1LObSGVXiNvvzlFXqVWzENtW8GGMIuwWjV__XwjF5zSNLkujtRx2GRjxFNdwaJpuxlpodhti0SxKYMckBW4h0WEFGatdMsKbefOGGihQjqEpujMLKSMKxbj_jm13cEymUcPgDsTy5Y5ivBs5YuIwboDdAQ1n0TldPPWc5vIcfak_5o0foLEw4ZWIPnW0X6esEPD_bIjZbNlE6JOSWlG9Ujp65C2j2NBHAXyQ8zTpYycDR5uTs558ZuWgTgXjgih0_Clc2TGErMPt7nQDjOFzHk4lxlY8eKeEnMlAxbUgX9FPmhR6B1rPi3n-KByFLmvyjX9ogeH7VbXyOyMtXaSJWqcY8uUL2eKAeo0jyZ7Y4Gcg0tiLkvjs3ib6Wqev1rpgZIcPnBs9xH6suCCRTzL3ZkrqiiHxRY0T6hvIoU5tLhS6Ly9HLBPRuA9YMyr4vXwDydj2uzSuOy9DKtPCwFriEm-sINTFkvvLtDOyhu0LoSuKtAmf0xT0sZgkGKRVe51wkwr9NZNUtE7Hzxfv-XpB4NaB4C-rGoXmET0vVTGny1HuEcV0uN-Ew0Np7HBcQyZU0qryG9iqLBSbOcl-URKmAl1RDM2VjQpTmWOrT2FnEOuV1rmQd1dL-dsJoAjLCYrteY0lXa1NzqprFEnPCkvooNGRSj-1s6OkwAWjkW8llEpLb3xyu-p1F-R8By6GSuFp-EUhZCasDfAaSZgXD4N-IIfSAgjA-HeoIvnAzQKvAm2B7TZl8aorzbNAc0nibRjejs-6oEIrJaNKhvxJhetxpZAOQvcauRVC6u0l0GGnfDaSOBf1AWr61KLTY_LEGvbeneqCihm3i9YcgoXbS7JjvdZzywYjj8fNsjaK7PKzsooxGGBUuxd6ayQLeklDriPNNc2VIp9qrwrFC88P4GYfzDfm3rCILbjnJHclecYZ7Yr9KEvfLXmn7P_g7D1f0erTbIKxgdlMcS3fwUILCsHk8_yEpqBDBJDp30nVhonIRvjexd_Kn-HS0?></g></svg>