<?plantuml 1.2026.1?><svg xmlns="http://www.w3.org/2000/svg" xmlns:xlink="http://www.w3.org/1999/xlink" contentStyleType="text/css" data-diagram-type="STATE" height="825px" preserveAspectRatio="none" style="width:669px;height:825px;background:#FCFCFD;" version="1.1" viewBox="0 0 669 825" width="669px" zoomAndPan="magnify"><title>State Machine - vault/VaultSecret</title><defs/><g><rect fill="#FCFCFD" height="825" style="stroke:none;stroke-width:1;" width="669" x="0" y="0"/><g class="title" data-source-line="10"><text fill="#000000" font-family="Helvetica" font-size="14" font-weight="bold" lengthAdjust="spacing" textLength="220.1787" x="216.7064" y="20.7803">State Machine - vault/VaultSecret</text></g><g><rect fill="#F8FAFC" height="50" rx="8" ry="8" style="stroke:#0F172A;stroke-width:0.5;" width="181.041" x="117.83" y="137"/><line style="stroke:#0F172A;stroke-width:0.5;" x1="117.83" x2="298.871" y1="175" y2="175"/><text fill="#0F172A" font-family="Helvetica" font-size="14" lengthAdjust="spacing" textLength="74.71" x="127.83" y="152.7803">provisioning</text><text fill="#0F172A" font-family="Helvetica" font-size="14" lengthAdjust="spacing" textLength="161.041" x="127.83" y="166.7803">provider: PROVISIONING</text></g><g><rect fill="#F8FAFC" height="50" rx="8" ry="8" style="stroke:#0F172A;stroke-width:0.5;" width="128.9238" x="143.89" y="404"/><line style="stroke:#0F172A;stroke-width:0.5;" x1="143.89" x2="272.8138" y1="442" y2="442"/><text fill="#0F172A" font-family="Helvetica" font-size="14" lengthAdjust="spacing" textLength="36.5723" x="153.89" y="419.7803">active</text><text fill="#0F172A" font-family="Helvetica" font-size="14" lengthAdjust="spacing" textLength="108.9238" x="153.89" y="433.7803">provider: ACTIVE</text></g><g><rect fill="#F8FAFC" height="50" rx="8" ry="8" style="stroke:#0F172A;stroke-width:0.5;" width="150.6963" x="7" y="671"/><line style="stroke:#0F172A;stroke-width:0.5;" x1="7" x2="157.6963" y1="709" y2="709"/><text fill="#0F172A" font-family="Helvetica" font-size="14" lengthAdjust="spacing" textLength="53.7168" x="17" y="686.7803">updating</text><text fill="#0F172A" font-family="Helvetica" font-size="14" lengthAdjust="spacing" textLength="130.6963" x="17" y="700.7803">provider: UPDATING</text></g><g><rect fill="#F8FAFC" height="50" rx="8" ry="8" style="stroke:#0F172A;stroke-width:0.5;" width="148.3721" x="226.16" y="671"/><line style="stroke:#0F172A;stroke-width:0.5;" x1="226.16" x2="374.5321" y1="709" y2="709"/><text fill="#0F172A" font-family="Helvetica" font-size="14" lengthAdjust="spacing" textLength="69.2549" x="236.16" y="686.7803">terminating</text><text fill="#0F172A" font-family="Helvetica" font-size="14" lengthAdjust="spacing" textLength="128.3721" x="236.16" y="700.7803">provider: DELETING</text></g><ellipse cx="208.35" cy="51" fill="#222222" rx="10" ry="10" style="stroke:#222222;stroke-width:1;"/><ellipse cx="300.35" cy="808" fill="none" rx="11" ry="11" style="stroke:#222222;stroke-width:1;"/><ellipse cx="300.35" cy="808" fill="#222222" rx="6" ry="6" style="stroke:#222222;stroke-width:1;"/><g class="entity" data-qualified-name="GMN2" data-source-line="29" id="ent0003"><path d="M308.11,271 L308.11,425 L273.31,429 L308.11,433 L308.11,587 A8,8 0 0 0 316.11,595 L652.5914,595 A8,8 0 0 0 660.5914,587 L660.5914,273 L650.5914,263 L316.11,263 A8,8 0 0 0 308.11,271" fill="#FFF7D6" style="stroke:#B45309;stroke-width:0.5;"/><path d="M650.5914,263 L650.5914,269 A4,4 0 0 0 654.5914,273 L660.5914,273 L650.5914,263" fill="#FFF7D6" style="stroke:#B45309;stroke-width:0.5;"/><text fill="#334155" font-family="Helvetica" font-size="14" lengthAdjust="spacing" textLength="101.165" x="314.11" y="278.7803">shared diagram:</text><text fill="#334155" font-family="Helvetica" font-size="14" lengthAdjust="spacing" textLength="331.4814" x="314.11" y="292.7803">shared/diagrams/shared-controller-state-machine.svg</text><text fill="#334155" font-family="Helvetica" font-size="14" lengthAdjust="spacing" textLength="304.2744" x="314.11" y="306.7803">Start from the shared controller phase model and</text><text fill="#334155" font-family="Helvetica" font-size="14" lengthAdjust="spacing" textLength="261.4678" x="314.11" y="320.7803">specialize imported provider states, delete</text><text fill="#334155" font-family="Helvetica" font-size="14" lengthAdjust="spacing" textLength="184.4336" x="314.11" y="334.7803">targets, and failure exits here.</text><text fill="#334155" font-family="Helvetica" font-size="14" lengthAdjust="spacing" textLength="281.709" x="314.11" y="348.7803">archetype batch: Generated service-manager</text><text fill="#334155" font-family="Helvetica" font-size="14" lengthAdjust="spacing" textLength="287.9229" x="314.11" y="362.7803">controllers map provider states into the shared</text><text fill="#334155" font-family="Helvetica" font-size="14" lengthAdjust="spacing" textLength="261.4609" x="314.11" y="376.7803">controller phases with explicit finalizer and</text><text fill="#334155" font-family="Helvetica" font-size="14" lengthAdjust="spacing" textLength="105.8477" x="314.11" y="390.7803">requeue policies.</text><text fill="#334155" font-family="Helvetica" font-size="14" lengthAdjust="spacing" textLength="81.6963" x="314.11" y="404.7803">service: vault</text><text fill="#334155" font-family="Helvetica" font-size="14" lengthAdjust="spacing" textLength="101.1582" x="314.11" y="418.7803">slug: vaultsecret</text><text fill="#334155" font-family="Helvetica" font-size="14" lengthAdjust="spacing" textLength="105.834" x="314.11" y="432.7803">kind: VaultSecret</text><text fill="#334155" font-family="Helvetica" font-size="14" lengthAdjust="spacing" textLength="241.2402" x="314.11" y="446.7803">archetype: generated-service-manager</text><text fill="#334155" font-family="Helvetica" font-size="14" lengthAdjust="spacing" textLength="156.4063" x="314.11" y="460.7803">status/finalizer: required /</text><text fill="#334155" font-family="Helvetica" font-size="14" lengthAdjust="spacing" textLength="174.3027" x="314.11" y="474.7803">retain-until-confirmed-delete</text><text fill="#334155" font-family="Helvetica" font-size="14" lengthAdjust="spacing" textLength="272.3984" x="314.11" y="488.7803">requeue: provisioning, updating, terminating</text><text fill="#334155" font-family="Helvetica" font-size="14" lengthAdjust="spacing" textLength="295.6816" x="314.11" y="502.7803">provider states: create PROVISIONING; update</text><text fill="#334155" font-family="Helvetica" font-size="14" lengthAdjust="spacing" textLength="192.165" x="314.11" y="516.7803">UPDATING; delete DELETING</text><text fill="#334155" font-family="Helvetica" font-size="14" lengthAdjust="spacing" textLength="319.04" x="314.11" y="530.7803">mutable/forceNew: display_name / compartment_id</text><text fill="#334155" font-family="Helvetica" font-size="14" lengthAdjust="spacing" textLength="104.3164" x="314.11" y="544.7803">open gaps: none</text><text fill="#334155" font-family="Helvetica" font-size="14" lengthAdjust="spacing" textLength="224.9023" x="314.11" y="558.7803">Scaffold metadata only; replace with</text><text fill="#334155" font-family="Helvetica" font-size="14" lengthAdjust="spacing" textLength="244.3232" x="314.11" y="572.7803">controller-specific runtime states before</text><text fill="#334155" font-family="Helvetica" font-size="14" lengthAdjust="spacing" textLength="66.1445" x="314.11" y="586.7803">promotion.</text></g><!--link *start* to provisioning--><g class="link" data-entity-1="ent0002" data-entity-2="ent0002" data-link-type="dependency" data-source-line="22" id="lnk3"><path d="M208.35,61.29 C208.35,77.87 208.35,107.03 208.35,130.85" fill="none" id="*start*-to-provisioning" style="stroke:#0F172A;stroke-width:1;"/><polygon fill="#0F172A" points="208.35,136.85,212.35,127.85,208.35,131.85,204.35,127.85,208.35,136.85" style="stroke:#0F172A;stroke-width:1;"/><text fill="#000000" font-family="Helvetica" font-size="14" lengthAdjust="spacing" textLength="114.3926" x="209.35" y="102.7803">CreateVaultSecret</text></g><!--link provisioning to active--><g class="link" data-entity-1="ent0002" data-entity-2="ent0003" data-link-type="dependency" data-source-line="23" id="lnk4"><path d="M208.35,187.46 C208.35,237.94 208.35,347.17 208.35,397.6" fill="none" id="provisioning-to-active" style="stroke:#0F172A;stroke-width:1;"/><polygon fill="#0F172A" points="208.35,403.6,212.35,394.6,208.35,398.6,204.35,394.6,208.35,403.6" style="stroke:#0F172A;stroke-width:1;"/><text fill="#000000" font-family="Helvetica" font-size="14" lengthAdjust="spacing" textLength="50.5654" x="209.35" y="228.7803">ACTIVE</text></g><!--link active to updating--><g class="link" data-entity-1="ent0003" data-entity-2="ent0004" data-link-type="dependency" data-source-line="24" id="lnk5"><path d="M177.81,454.46 C138.61,488.03 72.51,552.56 46.35,625 C40.64,640.81 45.1137,652.8023 55.0537,665.9623" fill="none" id="active-to-updating" style="stroke:#0F172A;stroke-width:1;"/><polygon fill="#0F172A" points="58.67,670.75,56.4374,661.1575,55.6564,666.7602,50.0538,665.9792,58.67,670.75" style="stroke:#0F172A;stroke-width:1;"/><text fill="#000000" font-family="Helvetica" font-size="14" lengthAdjust="spacing" textLength="117.5166" x="47.35" y="636.7803">UpdateVaultSecret</text></g><!--link updating to active--><g class="link" data-entity-1="ent0004" data-entity-2="ent0003" data-link-type="dependency" data-source-line="25" id="lnk6"><path d="M136.9,670.76 C149.25,662.91 161.13,653.04 169.35,641 C208.94,583.01 211.5807,502.0163 210.1107,460.1763" fill="none" id="updating-to-active" style="stroke:#0F172A;stroke-width:1;"/><polygon fill="#0F172A" points="209.9,454.18,206.2185,463.3149,210.0756,459.1769,214.2135,463.034,209.9,454.18" style="stroke:#0F172A;stroke-width:1;"/><text fill="#000000" font-family="Helvetica" font-size="14" lengthAdjust="spacing" textLength="50.5654" x="179.3" y="636.7803">ACTIVE</text></g><!--link active to terminating--><g class="link" data-entity-1="ent0003" data-entity-2="ent0005" data-link-type="dependency" data-source-line="26" id="lnk7"><path d="M216.84,454.46 C234.36,504.94 272.402,614.5019 289.912,664.9319" fill="none" id="active-to-terminating" style="stroke:#0F172A;stroke-width:1;"/><polygon fill="#0F172A" points="291.88,670.6,292.7067,660.7859,290.24,665.8766,285.1493,663.4099,291.88,670.6" style="stroke:#0F172A;stroke-width:1;"/><text fill="#000000" font-family="Helvetica" font-size="14" lengthAdjust="spacing" textLength="112.8408" x="281.48" y="636.7803">DeleteVaultSecret</text></g><!--link terminating to *end*--><g class="link" data-entity-1="ent0005" data-entity-2="ent0008" data-link-type="dependency" data-source-line="27" id="lnk9"><path d="M300.35,721.41 C300.35,744.96 300.35,773.47 300.35,790.58" fill="none" id="terminating-to-*end*" style="stroke:#0F172A;stroke-width:1;"/><polygon fill="#0F172A" points="300.35,796.58,304.35,787.58,300.35,791.58,296.35,787.58,300.35,796.58" style="stroke:#0F172A;stroke-width:1;"/><text fill="#000000" font-family="Helvetica" font-size="14" lengthAdjust="spacing" textLength="64.5723" x="301.35" y="762.7803">DELETED</text></g><?plantuml-src XLHjRzCm4FxkNt62RsXfLzQza4b8OorZ4dGJtVO5qEGwbyIQOmVRQHc8_yuvRqkxIQXI5VkUU-wUUx5xaBhabXVWSfwOZTGPf5mvPAwthBXuoAofT79kbB7mEXNqImQ815DUAV_HQB_W1S8dL6lqKl2NCKlv6s4o7HYvjMRJik-da-EtGqzjF7vubaEQ7YT7koXZ4xGjOZKzFDX_juC8uLlxmS5qSdWuiDVqmbYD5YP7p4kl49QUUuGlNEHI8qIm3YB6T-5_YSAY7n2u6lk7mGibEqbvAe9bc68h5I1zIgk_8pRRNKwIAIOdT8azOulxovgehqfhrj99ewc5ttLzea0nN7-zkhjSNbujBXSNhu0x608xPowyNEFGxUpyvl9kNZiqnWvQbGdtEp5khsTdDnr_1-WSFDf2wcS-i_ddUUypmB1lRtv05BtVoXDYEBT8TCF2Rm62HvCeTCcpzXnCNL9al0sVMqIzyJyaWop9FaE5spn3Uy079QtG-Oo5yGChizo3IVkYvjnY0eda6KrGt9x7xTcDctCaQ3wiKGfjL5SrAfg17BbrnfPXK22rfW2V8xIKJovGvjmX52P11LpJufOe95TX2sLH6ki9tZMc6MAtH_iQv37Ypj3JcHpfPP2giWZuIte7ELeSCMv5ZlwnH1fwB_8OBf0MY0TEXtOjHKXMymmjUqh9GS7BtPWWjJS32MnNWeEDz3b5BvKKaYHJiOCAMwko-BF22g4qmOfknDhuSREqpAagQxzTqp3Qt2I6OGjxDJ5adOveLqT8jtBZFdmC8ROCLHzJ6fvB7LNQInNwbafR44TRpZR9U6kwz_hntDlQX9twn23g7TXQwTF65rctWwTjv_e5OqNb-KhXE3LMu08tCOsRAnL_lDVXiHxJg1JqWFa2jR-N2JCbQiXuIG6rqSYMWgUfKGaK98rYSJ1QFPwIQ28HM3U53ISqZ5Sg1TXG18hGjdU5b046LONnf7p4w3MhN-L_?></g></svg>