<?plantuml 1.2026.1?><svg xmlns="http://www.w3.org/2000/svg" xmlns:xlink="http://www.w3.org/1999/xlink" contentStyleType="text/css" data-diagram-type="STATE" height="625px" preserveAspectRatio="none" style="width:4310px;height:625px;background:#FCFCFD;" version="1.1" viewBox="0 0 4310 625" width="4310px" zoomAndPan="magnify"><title>State Machine - osmanagementhub/OsManagementHubManagedInstanceAvailableSoftwareSources</title><defs/><g><rect fill="#FCFCFD" height="625" style="stroke:none;stroke-width:1;" width="4310" x="0" y="0"/><g class="title" data-source-line="10"><text fill="#000000" font-family="Helvetica" font-size="14" font-weight="bold" lengthAdjust="spacing" textLength="663.6055" x="1816.3652" y="20.7803">State Machine - osmanagementhub/OsManagementHubManagedInstanceAvailableSoftwareSources</text></g><g><rect fill="#F8FAFC" height="62" rx="8" ry="8" style="stroke:#0F172A;stroke-width:0.5;" width="264.3643" x="530" y="423"/><line style="stroke:#0F172A;stroke-width:0.5;" x1="530" x2="794.3643" y1="447" y2="447"/><text fill="#0F172A" font-family="Helvetica" font-size="14" lengthAdjust="spacing" textLength="52.9102" x="635.7271" y="438.7803">Observe</text><text fill="#0F172A" font-family="Helvetica" font-size="14" lengthAdjust="spacing" textLength="244.3643" x="535" y="462.7803">read spec, tracked status, delete intent,</text><text fill="#0F172A" font-family="Helvetica" font-size="14" lengthAdjust="spacing" textLength="153.2822" x="535" y="476.7803">and current OCI lifecycle</text></g><rect fill="#F8FAFC" height="40" rx="8" ry="8" style="stroke:#0F172A;stroke-width:0.5;" width="104.9512" x="1591.36" y="266"/><text fill="#0F172A" font-family="Helvetica" font-size="14" lengthAdjust="spacing" textLength="94.9512" x="1596.36" y="289.7803">EvaluateReady</text><rect fill="#F8FAFC" height="40" rx="8" ry="8" style="stroke:#0F172A;stroke-width:0.5;" width="50.4688" x="2350.32" y="266"/><text fill="#0F172A" font-family="Helvetica" font-size="14" lengthAdjust="spacing" textLength="40.4688" x="2355.32" y="289.7803">Ready</text><rect fill="#F8FAFC" height="40" rx="8" ry="8" style="stroke:#0F172A;stroke-width:0.5;" width="69.917" x="1608.88" y="401"/><text fill="#0F172A" font-family="Helvetica" font-size="14" lengthAdjust="spacing" textLength="59.917" x="1613.88" y="424.7803">Retryable</text><rect fill="#F8FAFC" height="40" rx="8" ry="8" style="stroke:#0F172A;stroke-width:0.5;" width="50" x="1618.84" y="520"/><text fill="#0F172A" font-family="Helvetica" font-size="14" lengthAdjust="spacing" textLength="38.1309" x="1624.7746" y="543.7803">Failed</text><rect fill="#F8FAFC" height="40" rx="8" ry="8" style="stroke:#0F172A;stroke-width:0.5;" width="122.8477" x="1072.44" y="377"/><text fill="#0F172A" font-family="Helvetica" font-size="14" lengthAdjust="spacing" textLength="112.8477" x="1077.44" y="400.7803">ResolveByLookup</text><rect fill="#F8FAFC" height="40" rx="8" ry="8" style="stroke:#0F172A;stroke-width:0.5;" width="155.5098" x="1925.56" y="356"/><text fill="#0F172A" font-family="Helvetica" font-size="14" lengthAdjust="spacing" textLength="145.5098" x="1930.56" y="379.7803">RejectUnsupportedDrift</text><rect fill="#F8FAFC" height="40" rx="8" ry="8" style="stroke:#0F172A;stroke-width:0.5;" width="90.165" x="1958.23" y="195"/><text fill="#0F172A" font-family="Helvetica" font-size="14" lengthAdjust="spacing" textLength="80.165" x="1963.23" y="218.7803">ApplyUpdate</text><rect fill="#F8FAFC" height="40" rx="8" ry="8" style="stroke:#0F172A;stroke-width:0.5;" width="101.8477" x="2811.99" y="520"/><text fill="#0F172A" font-family="Helvetica" font-size="14" lengthAdjust="spacing" textLength="91.8477" x="2816.99" y="543.7803">DeletePending</text><rect fill="#F8FAFC" height="40" rx="8" ry="8" style="stroke:#0F172A;stroke-width:0.5;" width="58.2549" x="4221.62" y="447"/><text fill="#0F172A" font-family="Helvetica" font-size="14" lengthAdjust="spacing" textLength="48.2549" x="4226.62" y="470.7803">Deleted</text><rect fill="#F8FAFC" height="40" rx="8" ry="8" style="stroke:#0F172A;stroke-width:0.5;" width="152.4268" x="3639.62" y="447"/><text fill="#0F172A" font-family="Helvetica" font-size="14" lengthAdjust="spacing" textLength="142.4268" x="3644.62" y="470.7803">DeleteCleanupBlocked</text><ellipse cx="16" cy="454" fill="#222222" rx="10" ry="10" style="stroke:#222222;stroke-width:1;"/><g class="entity" data-qualified-name="GMN2" data-source-line="55" id="ent0003"><path d="M2566.78,49 L2566.78,273 L2400.95,284.84 L2566.78,281 L2566.78,477 A8,8 0 0 0 2574.78,485 L3151.0388,485 A8,8 0 0 0 3159.0388,477 L3159.0388,51 L3149.0388,41 L2574.78,41 A8,8 0 0 0 2566.78,49" fill="#FFF7D6" style="stroke:#B45309;stroke-width:0.5;"/><path d="M3149.0388,41 L3149.0388,47 A4,4 0 0 0 3153.0388,51 L3159.0388,51 L3149.0388,41" fill="#FFF7D6" style="stroke:#B45309;stroke-width:0.5;"/><text fill="#334155" font-family="Helvetica" font-size="14" lengthAdjust="spacing" textLength="101.165" x="2572.78" y="56.7803">shared diagram:</text><text fill="#334155" font-family="Helvetica" font-size="14" lengthAdjust="spacing" textLength="331.4814" x="2572.78" y="70.7803">shared/diagrams/shared-controller-state-machine.svg</text><text fill="#334155" font-family="Helvetica" font-size="14" lengthAdjust="spacing" textLength="304.2744" x="2572.78" y="84.7803">Start from the shared controller phase model and</text><text fill="#334155" font-family="Helvetica" font-size="14" lengthAdjust="spacing" textLength="261.4678" x="2572.78" y="98.7803">specialize imported provider states, delete</text><text fill="#334155" font-family="Helvetica" font-size="14" lengthAdjust="spacing" textLength="184.4336" x="2572.78" y="112.7803">targets, and failure exits here.</text><text fill="#334155" font-family="Helvetica" font-size="14" lengthAdjust="spacing" textLength="281.709" x="2572.78" y="126.7803">archetype batch: Generated service-manager</text><text fill="#334155" font-family="Helvetica" font-size="14" lengthAdjust="spacing" textLength="287.9229" x="2572.78" y="140.7803">controllers map provider states into the shared</text><text fill="#334155" font-family="Helvetica" font-size="14" lengthAdjust="spacing" textLength="261.4609" x="2572.78" y="154.7803">controller phases with explicit finalizer and</text><text fill="#334155" font-family="Helvetica" font-size="14" lengthAdjust="spacing" textLength="105.8477" x="2572.78" y="168.7803">requeue policies.</text><text fill="#334155" font-family="Helvetica" font-size="14" lengthAdjust="spacing" textLength="171.9854" x="2572.78" y="182.7803">service: osmanagementhub</text><text fill="#334155" font-family="Helvetica" font-size="14" lengthAdjust="spacing" textLength="29.5723" x="2572.78" y="196.7803">slug:</text><text fill="#334155" font-family="Helvetica" font-size="14" lengthAdjust="spacing" textLength="387.5771" x="2572.78" y="210.7803">osmanagementhubmanagedinstanceavailablesoftwaresources</text><text fill="#334155" font-family="Helvetica" font-size="14" lengthAdjust="spacing" textLength="29.5723" x="2572.78" y="224.7803">kind:</text><text fill="#334155" font-family="Helvetica" font-size="14" lengthAdjust="spacing" textLength="400.0117" x="2572.78" y="238.7803">OsManagementHubManagedInstanceAvailableSoftwareSources</text><text fill="#334155" font-family="Helvetica" font-size="14" lengthAdjust="spacing" textLength="241.2402" x="2572.78" y="252.7803">archetype: generated-service-manager</text><text fill="#334155" font-family="Helvetica" font-size="14" lengthAdjust="spacing" textLength="156.4063" x="2572.78" y="266.7803">status/finalizer: required /</text><text fill="#334155" font-family="Helvetica" font-size="14" lengthAdjust="spacing" textLength="174.3027" x="2572.78" y="280.7803">retain-until-confirmed-delete</text><text fill="#334155" font-family="Helvetica" font-size="14" lengthAdjust="spacing" textLength="272.3984" x="2572.78" y="294.7803">requeue: provisioning, updating, terminating</text><text fill="#334155" font-family="Helvetica" font-size="14" lengthAdjust="spacing" textLength="295.6816" x="2572.78" y="308.7803">provider states: create PROVISIONING; update</text><text fill="#334155" font-family="Helvetica" font-size="14" lengthAdjust="spacing" textLength="192.165" x="2572.78" y="322.7803">UPDATING; delete DELETING</text><text fill="#334155" font-family="Helvetica" font-size="14" lengthAdjust="spacing" textLength="183.6611" x="2572.78" y="336.7803">supported drift: display_name</text><text fill="#334155" font-family="Helvetica" font-size="14" lengthAdjust="spacing" textLength="230.3301" x="2572.78" y="350.7803">reject before mutate: force-new fields</text><text fill="#334155" font-family="Helvetica" font-size="14" lengthAdjust="spacing" textLength="100.3789" x="2572.78" y="364.7803">compartment_id</text><text fill="#334155" font-family="Helvetica" font-size="14" lengthAdjust="spacing" textLength="66.1445" x="2572.78" y="378.7803">list lookup:</text><text fill="#334155" font-family="Helvetica" font-size="14" lengthAdjust="spacing" textLength="571.2588" x="2572.78" y="392.7803">scaffold_osmanagementhub_osmanagementhubmanagedinstanceavailablesoftwaresources</text><text fill="#334155" font-family="Helvetica" font-size="14" lengthAdjust="spacing" textLength="175.8477" x="2572.78" y="406.7803">filters compartment_id, state</text><text fill="#334155" font-family="Helvetica" font-size="14" lengthAdjust="spacing" textLength="89.4961" x="2572.78" y="420.7803">conflicts: none</text><text fill="#334155" font-family="Helvetica" font-size="14" lengthAdjust="spacing" textLength="104.3164" x="2572.78" y="434.7803">open gaps: none</text><text fill="#334155" font-family="Helvetica" font-size="14" lengthAdjust="spacing" textLength="224.9023" x="2572.78" y="448.7803">Scaffold metadata only; replace with</text><text fill="#334155" font-family="Helvetica" font-size="14" lengthAdjust="spacing" textLength="244.3232" x="2572.78" y="462.7803">controller-specific runtime states before</text><text fill="#334155" font-family="Helvetica" font-size="14" lengthAdjust="spacing" textLength="66.1445" x="2572.78" y="476.7803">promotion.</text></g><g class="entity" data-qualified-name="GMN5" data-source-line="88" id="ent0006"><path d="M3494.04,530 L3494.04,557.47 L2914.28,541.72 L3494.04,565.47 L3494.04,608 A8,8 0 0 0 3502.04,616 L3929.6171,616 A8,8 0 0 0 3937.6171,608 L3937.6171,532 L3927.6171,522 L3502.04,522 A8,8 0 0 0 3494.04,530" fill="#FFF7D6" style="stroke:#B45309;stroke-width:0.5;"/><path d="M3927.6171,522 L3927.6171,528 A4,4 0 0 0 3931.6171,532 L3937.6171,532 L3927.6171,522" fill="#FFF7D6" style="stroke:#B45309;stroke-width:0.5;"/><text fill="#334155" font-family="Helvetica" font-size="14" lengthAdjust="spacing" textLength="136.9717" x="3500.04" y="537.7803">delete policy: required</text><text fill="#334155" font-family="Helvetica" font-size="14" lengthAdjust="spacing" textLength="95.7305" x="3500.04" y="551.7803">delete observe:</text><text fill="#334155" font-family="Helvetica" font-size="14" lengthAdjust="spacing" textLength="422.5771" x="3500.04" y="565.7803">GetOsManagementHubManagedInstanceAvailableSoftwareSources</text><text fill="#334155" font-family="Helvetica" font-size="14" lengthAdjust="spacing" textLength="12.4482" x="3500.04" y="579.7803">or</text><text fill="#334155" font-family="Helvetica" font-size="14" lengthAdjust="spacing" textLength="421.7979" x="3500.04" y="593.7803">ListOsManagementHubManagedInstanceAvailableSoftwareSources</text><text fill="#334155" font-family="Helvetica" font-size="14" lengthAdjust="spacing" textLength="157.1855" x="3500.04" y="607.7803">delete targets: DELETED</text></g><!--link *start* to observe--><g class="link" data-entity-1="ent0002" data-entity-2="ent0002" data-link-type="dependency" data-source-line="32" id="lnk3"><path d="M26.35,454 C80.78,454 354.05,454 523.54,454" fill="none" id="*start*-to-observe" style="stroke:#0F172A;stroke-width:1;"/><polygon fill="#0F172A" points="529.54,454,520.54,450,524.54,454,520.54,458,529.54,454" style="stroke:#0F172A;stroke-width:1;"/><text fill="#000000" font-family="Helvetica" font-size="14" lengthAdjust="spacing" textLength="442.0322" x="57" y="449.7803">CreateOsManagementHubManagedInstanceAvailableSoftwareSources</text></g><!--link observe to resolve_by_lookup--><g class="link" data-entity-1="ent0002" data-entity-2="ent0007" data-link-type="dependency" data-source-line="33" id="lnk4"><path d="M794.64,438.05 C885.55,427.01 996.3337,413.5731 1066.1837,405.0931" fill="none" id="observe-to-resolve_by_lookup" style="stroke:#0F172A;stroke-width:1;"/><polygon fill="#0F172A" points="1072.14,404.37,1062.7235,401.4838,1067.1764,404.9726,1063.6877,409.4255,1072.14,404.37" style="stroke:#0F172A;stroke-width:1;"/><text fill="#000000" font-family="Helvetica" font-size="14" lengthAdjust="spacing" textLength="145.5029" x="825.36" y="412.8403">tracked identity missing</text></g><!--link resolve_by_lookup to evaluate_ready--><g class="link" data-entity-1="ent0007" data-entity-2="ent0003" data-link-type="dependency" data-source-line="34" id="lnk5"><path d="M1195.57,385.58 C1309.1,364.19 1543.77,319.79 1561.36,315 C1571.07,312.36 1575.6038,311.0543 1585.3838,307.7043" fill="none" id="resolve_by_lookup-to-evaluate_ready" style="stroke:#0F172A;stroke-width:1;"/><polygon fill="#0F172A" points="1591.06,305.76,1581.2494,304.8923,1586.3298,307.3803,1583.8419,312.4606,1591.06,305.76" style="stroke:#0F172A;stroke-width:1;"/><text fill="#000000" font-family="Helvetica" font-size="14" lengthAdjust="spacing" textLength="154.0889" x="1351.86" y="296.7803">lookup or create reaches</text><text fill="#000000" font-family="Helvetica" font-size="14" lengthAdjust="spacing" textLength="50.5654" x="1403.6217" y="310.7803">ACTIVE</text></g><!--link resolve_by_lookup to retryable--><g class="link" data-entity-1="ent0007" data-entity-2="ent0005" data-link-type="dependency" data-source-line="35" id="lnk6"><path d="M1195.63,399.87 C1303.21,404.95 1517.8067,415.0973 1602.5967,419.0973" fill="none" id="resolve_by_lookup-to-retryable" style="stroke:#0F172A;stroke-width:1;"/><polygon fill="#0F172A" points="1608.59,419.38,1599.7885,414.9603,1603.5956,419.1444,1599.4115,422.9514,1608.59,419.38" style="stroke:#0F172A;stroke-width:1;"/><text fill="#000000" font-family="Helvetica" font-size="14" lengthAdjust="spacing" textLength="184.3789" x="1336.86" y="386.5403">OCI state in PROVISIONING,</text><text fill="#000000" font-family="Helvetica" font-size="14" lengthAdjust="spacing" textLength="150.1309" x="1353.984" y="400.5403">UPDATING, DELETING</text></g><!--link resolve_by_lookup to failed--><g class="link" data-entity-1="ent0007" data-entity-2="ent0006" data-link-type="dependency" data-source-line="36" id="lnk7"><path d="M1195.63,414.11 C1307.69,445.65 1536.5847,510.0834 1612.6747,531.5134" fill="none" id="resolve_by_lookup-to-failed" style="stroke:#0F172A;stroke-width:1;"/><polygon fill="#0F172A" points="1618.45,533.14,1610.8714,526.8499,1613.6372,531.7845,1608.7026,534.5504,1618.45,533.14" style="stroke:#0F172A;stroke-width:1;"/><text fill="#000000" font-family="Helvetica" font-size="14" lengthAdjust="spacing" textLength="263.7783" x="1297.36" y="439.0303">unresolved OCI error or non-success state</text></g><!--link observe to evaluate_ready--><g class="link" data-entity-1="ent0002" data-entity-2="ent0003" data-link-type="dependency" data-source-line="37" id="lnk8"><path d="M739.96,422.64 C766.45,412.43 796.47,401.55 824.36,393 C1030.5,329.82 1082.22,306.06 1296.36,281 C1400.33,268.83 1517.0497,275.0341 1584.9897,280.5541" fill="none" id="observe-to-evaluate_ready" style="stroke:#0F172A;stroke-width:1;"/><polygon fill="#0F172A" points="1590.97,281.04,1582.3235,276.3243,1585.9864,280.6351,1581.6756,284.298,1590.97,281.04" style="stroke:#0F172A;stroke-width:1;"/><text fill="#000000" font-family="Helvetica" font-size="14" lengthAdjust="spacing" textLength="128.3721" x="1069.86" y="280.9503">OCI state in ACTIVE</text></g><!--link observe to retryable--><g class="link" data-entity-1="ent0002" data-entity-2="ent0005" data-link-type="dependency" data-source-line="38" id="lnk9"><path d="M794.47,458.33 C857.11,460.38 933.11,462.85 1001.36,465 C1250.16,472.84 1322.72,544.79 1561.36,474 C1572.77,470.62 1591.445,458.3638 1610.305,444.9138" fill="none" id="observe-to-retryable" style="stroke:#0F172A;stroke-width:1;"/><polygon fill="#0F172A" points="1615.19,441.43,1605.54,443.3989,1611.1191,444.3331,1610.185,449.9123,1615.19,441.43" style="stroke:#0F172A;stroke-width:1;"/><text fill="#000000" font-family="Helvetica" font-size="14" lengthAdjust="spacing" textLength="184.3789" x="1041.86" y="446.7803">OCI state in PROVISIONING,</text><text fill="#000000" font-family="Helvetica" font-size="14" lengthAdjust="spacing" textLength="150.1309" x="1058.984" y="460.7803">UPDATING, DELETING</text></g><!--link observe to failed--><g class="link" data-entity-1="ent0002" data-entity-2="ent0006" data-link-type="dependency" data-source-line="39" id="lnk10"><path d="M794.52,484.76 C856.83,498.03 932.56,512.26 1001.36,520 C1240.8,546.92 1527.4516,542.7695 1612.5616,540.7895" fill="none" id="observe-to-failed" style="stroke:#0F172A;stroke-width:1;"/><polygon fill="#0F172A" points="1618.56,540.65,1609.4694,536.8604,1613.5614,540.7663,1609.6555,544.8582,1618.56,540.65" style="stroke:#0F172A;stroke-width:1;"/><text fill="#000000" font-family="Helvetica" font-size="14" lengthAdjust="spacing" textLength="263.7783" x="1002.36" y="515.7803">unresolved OCI error or non-success state</text></g><!--link evaluate_ready to reject_unsupported_drift--><g class="link" data-entity-1="ent0003" data-entity-2="ent0008" data-link-type="dependency" data-source-line="40" id="lnk11"><path d="M1668.06,306.48 C1683.49,318.89 1704.81,333.85 1726.32,342 C1790.53,366.35 1862.6042,373.9058 1919.3042,376.0258" fill="none" id="evaluate_ready-to-reject_unsupported_drift" style="stroke:#0F172A;stroke-width:1;"/><polygon fill="#0F172A" points="1925.3,376.25,1916.4557,371.9165,1920.3035,376.0632,1916.1568,379.9109,1925.3,376.25" style="stroke:#0F172A;stroke-width:1;"/><text fill="#000000" font-family="Helvetica" font-size="14" lengthAdjust="spacing" textLength="143.9512" x="1737.32" y="323.7803">force-new or conflicting</text><text fill="#000000" font-family="Helvetica" font-size="14" lengthAdjust="spacing" textLength="80.9375" x="1768.8268" y="337.7803">drift detected</text></g><!--link reject_unsupported_drift to ready--><g class="link" data-entity-1="ent0008" data-entity-2="ent0004" data-link-type="dependency" data-source-line="41" id="lnk12"><path d="M2081.32,375.06 C2147.2,371.77 2243.3,361 2320.32,328 C2332.36,322.84 2339.4802,318.2363 2348.9202,310.2463" fill="none" id="reject_unsupported_drift-to-ready" style="stroke:#0F172A;stroke-width:1;"/><polygon fill="#0F172A" points="2353.5,306.37,2344.0461,309.1313,2349.6835,309.6003,2349.2146,315.2376,2353.5,306.37" style="stroke:#0F172A;stroke-width:1;"/><text fill="#000000" font-family="Helvetica" font-size="14" lengthAdjust="spacing" textLength="203.8818" x="2116.32" y="323.7803">wait for spec or live state change</text></g><!--link evaluate_ready to apply_update--><g class="link" data-entity-1="ent0003" data-entity-2="ent0009" data-link-type="dependency" data-source-line="42" id="lnk13"><path d="M1696.72,268.96 C1706.49,266.07 1716.67,263.27 1726.32,261 C1807.17,241.95 1897.2022,228.6097 1952.0322,221.3297" fill="none" id="evaluate_ready-to-apply_update" style="stroke:#0F172A;stroke-width:1;"/><polygon fill="#0F172A" points="1957.98,220.54,1948.5318,217.7594,1953.0235,221.1981,1949.5848,225.6898,1957.98,220.54" style="stroke:#0F172A;stroke-width:1;"/><text fill="#000000" font-family="Helvetica" font-size="14" lengthAdjust="spacing" textLength="163.4199" x="1727.32" y="212.0903">supported mutable drift for</text><text fill="#000000" font-family="Helvetica" font-size="14" lengthAdjust="spacing" textLength="86.3857" x="1765.8371" y="226.0903">display_name</text></g><!--link apply_update to ready--><g class="link" data-entity-1="ent0009" data-entity-2="ent0004" data-link-type="dependency" data-source-line="43" id="lnk14"><path d="M2048.88,217.45 C2110.86,221.76 2226.1,233.07 2320.32,261 C2330.36,263.98 2335.5025,265.9001 2344.6125,270.2801" fill="none" id="apply_update-to-ready" style="stroke:#0F172A;stroke-width:1;"/><polygon fill="#0F172A" points="2350.02,272.88,2343.642,265.3752,2345.5138,270.7135,2340.1756,272.5852,2350.02,272.88" style="stroke:#0F172A;stroke-width:1;"/><text fill="#000000" font-family="Helvetica" font-size="14" lengthAdjust="spacing" textLength="141.6543" x="2147.32" y="219.4503">update path completes</text></g><!--link evaluate_ready to ready--><g class="link" data-entity-1="ent0003" data-entity-2="ent0004" data-link-type="dependency" data-source-line="44" id="lnk15"><path d="M1696.73,286 C1841.46,286 2239.77,286 2343.86,286" fill="none" id="evaluate_ready-to-ready" style="stroke:#0F172A;stroke-width:1;"/><polygon fill="#0F172A" points="2349.86,286,2340.86,282,2344.86,286,2340.86,290,2349.86,286" style="stroke:#0F172A;stroke-width:1;"/><text fill="#000000" font-family="Helvetica" font-size="14" lengthAdjust="spacing" textLength="162.6406" x="1922.32" y="281.7803">no supported drift remains</text></g><!--link ready to ready--><g class="link" data-entity-1="ent0004" data-entity-2="ent0004" data-link-type="dependency" data-source-line="45" id="lnk16"><path d="M2358.35,265.69 C2351,248.73 2356.74,231 2375.55,231 C2394.36,231 2402.4858,243.2247 2395.1358,260.1847" fill="none" id="ready-to-ready" style="stroke:#0F172A;stroke-width:1;"/><polygon fill="#0F172A" points="2392.75,265.69,2399.9989,259.0227,2394.7382,261.1023,2392.6586,255.8416,2392.75,265.69" style="stroke:#0F172A;stroke-width:1;"/><text fill="#000000" font-family="Helvetica" font-size="14" lengthAdjust="spacing" textLength="162.6406" x="2294.55" y="221.7803">no supported drift remains</text></g><!--link retryable to retryable--><g class="link" data-entity-1="ent0005" data-entity-2="ent0005" data-link-type="dependency" data-source-line="46" id="lnk17"><path d="M1617.63,400.69 C1606.42,383.73 1615.16,366 1643.84,366 C1672.52,366 1684.5564,378.7232 1673.3564,395.6832" fill="none" id="retryable-to-retryable" style="stroke:#0F172A;stroke-width:1;"/><polygon fill="#0F172A" points="1670.05,400.69,1678.3474,395.3841,1672.8053,396.5177,1671.6717,390.9756,1670.05,400.69" style="stroke:#0F172A;stroke-width:1;"/><text fill="#000000" font-family="Helvetica" font-size="14" lengthAdjust="spacing" textLength="136.9307" x="1575.84" y="356.7803">OCI remains retryable</text></g><!--link failed to failed--><g class="link" data-entity-1="ent0006" data-entity-2="ent0006" data-link-type="dependency" data-source-line="47" id="lnk18"><path d="M1618.41,520.83 C1606.04,503.53 1614.52,485 1643.84,485 C1673.16,485 1685.1298,498.6493 1672.7598,515.9493" fill="none" id="failed-to-failed" style="stroke:#0F172A;stroke-width:1;"/><polygon fill="#0F172A" points="1669.27,520.83,1677.7585,515.8355,1672.1782,516.7628,1671.251,511.1824,1669.27,520.83" style="stroke:#0F172A;stroke-width:1;"/><text fill="#000000" font-family="Helvetica" font-size="14" lengthAdjust="spacing" textLength="132.2549" x="1577.84" y="475.7803">OCI remains terminal</text></g><!--link ready to delete_pending--><g class="link" data-entity-1="ent0004" data-entity-2="ent0010" data-link-type="dependency" data-source-line="48" id="lnk19"><path d="M2401.04,301.51 C2435.67,324.58 2498.93,371.03 2536.78,425 C2558.11,455.41 2537.54,480.11 2566.78,503 C2637.33,558.23 2741.8502,556.2831 2805.7402,548.8531" fill="none" id="ready-to-delete_pending" style="stroke:#0F172A;stroke-width:1;"/><polygon fill="#0F172A" points="2811.7,548.16,2802.2982,545.2264,2806.7335,548.7376,2803.2223,553.1729,2811.7,548.16" style="stroke:#0F172A;stroke-width:1;"/><text fill="#000000" font-family="Helvetica" font-size="14" lengthAdjust="spacing" textLength="104.3027" x="2431.78" y="319.3703">delete requested</text></g><!--link retryable to delete_pending--><g class="link" data-entity-1="ent0005" data-entity-2="ent0010" data-link-type="dependency" data-source-line="49" id="lnk20"><path d="M1678.98,424.34 C1849.42,441 2602.0285,514.5861 2805.5485,534.4861" fill="none" id="retryable-to-delete_pending" style="stroke:#0F172A;stroke-width:1;"/><polygon fill="#0F172A" points="2811.52,535.07,2802.952,530.2132,2806.5437,534.5834,2802.1735,538.1752,2811.52,535.07" style="stroke:#0F172A;stroke-width:1;"/><text fill="#000000" font-family="Helvetica" font-size="14" lengthAdjust="spacing" textLength="104.3027" x="2165.82" y="464.0003">delete requested</text></g><!--link failed to delete_pending--><g class="link" data-entity-1="ent0006" data-entity-2="ent0010" data-link-type="dependency" data-source-line="50" id="lnk21"><path d="M1669.15,540 C1817.74,540 2597.86,540 2805.56,540" fill="none" id="failed-to-delete_pending" style="stroke:#0F172A;stroke-width:1;"/><polygon fill="#0F172A" points="2811.56,540,2802.56,536,2806.56,540,2802.56,544,2811.56,540" style="stroke:#0F172A;stroke-width:1;"/><text fill="#000000" font-family="Helvetica" font-size="14" lengthAdjust="spacing" textLength="104.3027" x="2165.82" y="535.7803">delete requested</text></g><!--link delete_pending to delete_cleanup_blocked--><g class="link" data-entity-1="ent0010" data-entity-2="ent0012" data-link-type="dependency" data-source-line="51" id="lnk22"><path d="M2914.28,535.68 C3057.71,523.37 3462.9719,488.6027 3633.4319,473.9827" fill="none" id="delete_pending-to-delete_cleanup_blocked" style="stroke:#0F172A;stroke-width:1;"/><polygon fill="#0F172A" points="3639.41,473.47,3630.1011,470.2537,3634.4283,473.8973,3630.7847,478.2245,3639.41,473.47" style="stroke:#0F172A;stroke-width:1;"/><text fill="#000000" font-family="Helvetica" font-size="14" lengthAdjust="spacing" textLength="273.1436" x="3190.04" y="484.3503">cleanup or finalizer release remains blocked</text></g><!--link delete_cleanup_blocked to deleted--><g class="link" data-entity-1="ent0012" data-entity-2="ent0011" data-link-type="dependency" data-source-line="52" id="lnk23"><path d="M3792.34,467 C3912.36,467 4135.28,467 4215.29,467" fill="none" id="delete_cleanup_blocked-to-deleted" style="stroke:#0F172A;stroke-width:1;"/><polygon fill="#0F172A" points="4221.29,467,4212.29,463,4216.29,467,4212.29,471,4221.29,467" style="stroke:#0F172A;stroke-width:1;"/><text fill="#000000" font-family="Helvetica" font-size="14" lengthAdjust="spacing" textLength="222.5645" x="3968.62" y="462.7803">retry delete completion until allowed</text></g><!--link deleted to deleted--><g class="link" data-entity-1="ent0011" data-entity-2="ent0011" data-link-type="dependency" data-source-line="53" id="lnk24"><path d="M4223.56,446.69 C4211.94,429.73 4221,412 4250.75,412 C4280.49,412 4292.9512,424.7803 4281.3312,441.7403" fill="none" id="deleted-to-deleted" style="stroke:#0F172A;stroke-width:1;"/><polygon fill="#0F172A" points="4277.94,446.69,4286.3267,441.5263,4280.766,442.5653,4279.7271,437.0046,4277.94,446.69" style="stroke:#0F172A;stroke-width:1;"/><text fill="#000000" font-family="Helvetica" font-size="14" lengthAdjust="spacing" textLength="92.5859" x="4204.75" y="402.7803">terminal stutter</text></g><?plantuml-src dLTjRnit3FwkNo5qtuOuQTRqPGum84tIDa3Q577JByjWo1BbqwgJRf8khZViluzwkVFvug2OaGyvYHH5Fdn8olwRCWrphAQ-OiAkb5bIoRG7udl9Wl5lIsTR8ywjjex-93d-YO660CbQ7TvP4pwn6kW7q0yG56UxTMRgRw379mCXSywkYlNdylZrByEJnWPu-yW7AL-BLsCjwmIueh4uUVdY-QyZZNXzaRzuSNByykL0dinpwmmuUloA11Kqq5bW0UX7nYjbW4wezJKpR0arc52rYwCR_x5VVsWNUI6kZ0_CS3XxO4gpXOQPbM757Fvl7GS_kDMd2_uXT0VERoIJF4g6SHLyA9MRMFezjEQwpMDn0k8DRa9liUZzIpJ8G8EbJYshG8Lom8EoXbHA08Mw2MjCcETEDMaxE_diPk71FS0poZor-RiJNJumtUBNBJ2nJWfGTkOkRdLw6_beExXr1Ag8ogeJlqCOGIIPJ9-aN4-doGxr3V036Xn2229Xsle334437bScO7OExWqpWlBMELpHc_ChgfK4lkQRUsx1MwJks_MrjT_QfZYJzkQBzLodtOtoduZQdV5jqrWNG5mu9KCv4qNpTYERYoZiZfurZLxVDG8NIP_5zRnD6vtEHNB-CoOFYp9fvN3cJTxQrXC33R4jEjV0JDkyrJQ2CxJ4isI-o2Bo-yz_qCdaDxe1znpH3R0doJipqUGZ5D5uboxadC5gMzDQUHyZUwmSJMmJ2iyN6HAR9pSZ5NW5_jwSdN-v-dhvX9sUNMWYiY23fGpzV7lpzMfsTVFfwjDxPClTvukpB_6JNbnUNyQl9mncIgArrXG5aGm3TZKNtJFMJ7pB4HEVRzk2vb5SMqwLKBQnt3k0ePazt1wvcftPJNMqAotIO69WbL9aZTGAkunPtfki8P23FDBrIHlvWepAYgaGJQPQZnQrma1oxBnYPhdJlM5beP7-0bgt8K6OBqAxw9NoZMRhkS4PHhOE3lqeMmqB5GPLDx6I_6vayW5Z1zVcwnpKJ1bF_gTob_PT92XQWzvPyhkLwg5c05Shm_J0Y-qEW_gbWphugmMVKpLquiVw0oT-h3pI61mQTIeyN7OY4MIC0jyK3atXheS-nAwnFM5bSu58WmH3wvmgcSNXX-KHbAPCQxlgJOtFTbWY7zk02n8V6sMwMjdDkWgR8sPLiILE_cbP7vMrFyhh2LPAS5PhS9F4xacTNn-7_c59Pd70K-biJKC5j9ZS7A5D5G6eBVf6STwHM2qgmKDLNNZLEFk0JTVbwka79K7RImYuZeCoPgvr-1huheAd5JWu9CnXVmth1l2n4dWrfUy1NqiisenzHV7eR1mEZcnSyhHcpVZEE9Jj80Go3i7JbS8AW-yDTerO-NsIOrI9CorMeOrIy8Uat3yTlz28r-roIaQxUO4iooECTIFCbn7comZ3PvgOaZtdNu_Mb2uxd2PZdF9RvQWFRvhgGSMi7iLgGnvF4WCZBwHoDTeewIeWJ3Es7hcALNEG6rJwAgoC2pB2VzhDpE7CE2tDZNIJuxGhXtw0Z9eJ5l6mQUP6JXU0_HHIYmqmd0DIWHQUnE926aSuvqeGhNmemnoBWZCfhHRpKSRcUsPGAXqY1xVlF2W3hPjAFdPUWtCPUmzTigPRpuetjCPC83ICMgFNfvWZ39f3uYWP5coiDgauTJ5dDNHipuZ49DGsDfL3WZqk_I8PTOhH6w_0dsY-tb2Zso_ZV4hUGzZtaUR8DUA_v-dYHsaSqyoJoui-kly0?></g></svg>