<?plantuml 1.2026.1?><svg xmlns="http://www.w3.org/2000/svg" xmlns:xlink="http://www.w3.org/1999/xlink" contentStyleType="text/css" data-diagram-type="SEQUENCE" height="2090px" preserveAspectRatio="none" style="width:1371px;height:2090px;background:#FCFCFD;" version="1.1" viewBox="0 0 1371 2090" width="1371px" zoomAndPan="magnify"><title>Sequence - loganalytics/LogAnalyticsNamespaceStorageArchivalConfig</title><defs/><g><rect fill="#FCFCFD" height="2090" style="stroke:none;stroke-width:1;" width="1371" x="0" y="0"/><text fill="#000000" font-family="Helvetica" font-size="14" font-weight="bold" lengthAdjust="spacing" textLength="480.8057" x="451.4998" y="25.7803">Sequence - loganalytics/LogAnalyticsNamespaceStorageArchivalConfig</text><rect fill="none" height="290" rx="8" ry="8" style="stroke:#CBD5E1;stroke-width:1.5;" width="814.0107" x="533.9834" y="356"/><rect fill="none" height="146" rx="8" ry="8" style="stroke:#CBD5E1;stroke-width:1.5;" width="518.8052" x="819.189" y="465"/><rect fill="none" height="44" rx="8" ry="8" style="stroke:#CBD5E1;stroke-width:1.5;" width="498.8052" x="829.189" y="516"/><rect fill="none" height="868" rx="8" ry="8" style="stroke:#CBD5E1;stroke-width:1.5;" width="850.8218" x="513.9834" y="660"/><rect fill="none" height="302" rx="8" ry="8" style="stroke:#CBD5E1;stroke-width:1.5;" width="814.0107" x="523.9834" y="683"/><rect fill="none" height="72" rx="8" ry="8" style="stroke:#CBD5E1;stroke-width:1.5;" width="498.8052" x="829.189" y="804"/><rect fill="none" height="88" rx="8" ry="8" style="stroke:#CBD5E1;stroke-width:1.5;" width="471.5981" x="533.9834" y="890"/><rect fill="none" height="392" rx="8" ry="8" style="stroke:#CBD5E1;stroke-width:1.5;" width="830.8218" x="523.9834" y="1087"/><rect fill="none" height="44" rx="8" ry="8" style="stroke:#CBD5E1;stroke-width:1.5;" width="471.5981" x="533.9834" y="1186"/><rect fill="none" height="130" rx="8" ry="8" style="stroke:#CBD5E1;stroke-width:1.5;" width="518.8052" x="819.189" y="1244"/><rect fill="none" height="44" rx="8" ry="8" style="stroke:#CBD5E1;stroke-width:1.5;" width="498.8052" x="829.189" y="1323"/><g class="participant-lifeline" data-entity-uid="part1" data-qualified-name="Kubernetes" id="part1-lifeline"><g><title>Kubernetes</title><rect fill="#000000" fill-opacity="0.00000" height="1969" width="8" x="39.8032" y="114"/><line style="stroke:#94A3B8;stroke-width:0.5;stroke-dasharray:5,5;" x1="43" x2="43" y1="114" y2="2083"/></g></g><g class="participant-lifeline" data-entity-uid="part2" data-qualified-name="Controller" id="part2-lifeline"><g><title>Controller</title><rect fill="#000000" fill-opacity="0.00000" height="1969" width="8" x="357.1812" y="114"/><line style="stroke:#94A3B8;stroke-width:0.5;stroke-dasharray:5,5;" x1="360.8364" x2="360.8364" y1="114" y2="2083"/></g></g><g class="participant-lifeline" data-entity-uid="part3" data-qualified-name="BaseReconciler" id="part3-lifeline"><g><title>BaseReconciler</title><rect fill="#000000" fill-opacity="0.00000" height="1969" width="8" x="596.0073" y="114"/><line style="stroke:#94A3B8;stroke-width:0.5;stroke-dasharray:5,5;" x1="599.9834" x2="599.9834" y1="114" y2="2083"/></g></g><g class="participant-lifeline" data-entity-uid="part4" data-qualified-name="ServiceManager" id="part4-lifeline"><g><title>OSOKServiceManager</title><rect fill="#000000" fill-opacity="0.00000" height="1969" width="8" x="913.3853" y="114"/><line style="stroke:#94A3B8;stroke-width:0.5;stroke-dasharray:5,5;" x1="917.189" x2="917.189" y1="114" y2="2083"/></g></g><g class="participant-lifeline" data-entity-uid="part5" data-qualified-name="OCI" id="part5-lifeline"><g><title>OCI</title><rect fill="#000000" fill-opacity="0.00000" height="1969" width="8" x="1294.5493" y="114"/><line style="stroke:#94A3B8;stroke-width:0.5;stroke-dasharray:5,5;" x1="1298.1045" x2="1298.1045" y1="114" y2="2083"/></g></g><g class="participant participant-head" data-entity-uid="part1" data-qualified-name="Kubernetes" id="part1-head"><text fill="#000000" font-family="Helvetica" font-size="14" lengthAdjust="spacing" textLength="71.6064" x="5" y="110.7803">Kubernetes</text><ellipse cx="43.8032" cy="48.5" fill="#E2E8F0" rx="8" ry="8" style="stroke:#0F172A;stroke-width:0.5;"/><path d="M43.8032,56.5 L43.8032,83.5 M30.8032,64.5 L56.8032,64.5 M43.8032,83.5 L30.8032,98.5 M43.8032,83.5 L56.8032,98.5" fill="none" style="stroke:#0F172A;stroke-width:0.5;"/></g><g class="participant participant-head" data-entity-uid="part2" data-qualified-name="Controller" id="part2-head"><rect fill="#E2E8F0" height="28" rx="8" ry="8" style="stroke:#0F172A;stroke-width:0.5;" width="74.6895" x="323.8364" y="85"/><text fill="#0F172A" font-family="Helvetica" font-size="14" lengthAdjust="spacing" textLength="60.6895" x="330.8364" y="102.7803">Controller</text></g><g class="participant participant-head" data-entity-uid="part3" data-qualified-name="BaseReconciler" id="part3-head"><rect fill="#E2E8F0" height="28" rx="8" ry="8" style="stroke:#0F172A;stroke-width:0.5;" width="112.0479" x="543.9834" y="85"/><text fill="#0F172A" font-family="Helvetica" font-size="14" lengthAdjust="spacing" textLength="98.0479" x="550.9834" y="102.7803">BaseReconciler</text></g><g class="participant participant-head" data-entity-uid="part4" data-qualified-name="ServiceManager" id="part4-head"><rect fill="#E2E8F0" height="28" rx="8" ry="8" style="stroke:#0F172A;stroke-width:0.5;" width="156.3926" x="839.189" y="85"/><text fill="#0F172A" font-family="Helvetica" font-size="14" lengthAdjust="spacing" textLength="142.3926" x="846.189" y="102.7803">OSOKServiceManager</text></g><g class="participant participant-head" data-entity-uid="part5" data-qualified-name="OCI" id="part5-head"><rect fill="#E2E8F0" height="28" rx="8" ry="8" style="stroke:#0F172A;stroke-width:0.5;" width="38.8896" x="1279.1045" y="85"/><text fill="#0F172A" font-family="Helvetica" font-size="14" lengthAdjust="spacing" textLength="24.8896" x="1286.1045" y="102.7803">OCI</text></g><path d="M535,137 L535,187 A8,8 0 0 0 543,195 L973,195 A8,8 0 0 0 981,187 L981,139 L971,129 L543,129 A8,8 0 0 0 535,137" fill="#FFF7D6" style="stroke:#B45309;stroke-width:0.5;"/><path d="M971,129 L971,135 A4,4 0 0 0 975,139 L981,139 L971,129" fill="#FFF7D6" style="stroke:#B45309;stroke-width:0.5;"/><text fill="#334155" font-family="Helvetica" font-size="14" lengthAdjust="spacing" textLength="111.2891" x="600.1033" y="144.7803">shared resolution:</text><text fill="#334155" font-family="Helvetica" font-size="14" lengthAdjust="spacing" textLength="307.3916" x="600.1033" y="158.7803">shared/diagrams/shared-resolution-sequence.svg</text><text fill="#334155" font-family="Helvetica" font-size="14" lengthAdjust="spacing" textLength="88.7305" x="600.1033" y="172.7803">shared delete:</text><text fill="#334155" font-family="Helvetica" font-size="14" lengthAdjust="spacing" textLength="284.833" x="600.1033" y="186.7803">shared/diagrams/shared-delete-sequence.svg</text><g class="message" data-entity-1="part1" data-entity-2="part2" id="msg1"><polygon fill="#0F172A" points="349.1812,244,359.1812,248,349.1812,252,353.1812,248" style="stroke:#0F172A;stroke-width:1;"/><line style="stroke:#0F172A;stroke-width:1;" x1="43.8032" x2="355.1812" y1="248" y2="248"/><text fill="#000000" font-family="Helvetica" font-size="14" lengthAdjust="spacing" textLength="54.5029" x="50.8032" y="214.7803">enqueue</text><text fill="#000000" font-family="Helvetica" font-size="14" lengthAdjust="spacing" textLength="293.3779" x="50.8032" y="228.7803">LogAnalyticsNamespaceStorageArchivalConfig</text><text fill="#000000" font-family="Helvetica" font-size="14" lengthAdjust="spacing" textLength="56.0273" x="50.8032" y="242.7803">reconcile</text></g><g class="message" data-entity-1="part2" data-entity-2="part3" id="msg2"><polygon fill="#0F172A" points="588.0073,272,598.0073,276,588.0073,280,592.0073,276" style="stroke:#0F172A;stroke-width:1;"/><line style="stroke:#0F172A;stroke-width:1;" x1="361.1812" x2="594.0073" y1="276" y2="276"/><text fill="#000000" font-family="Helvetica" font-size="14" lengthAdjust="spacing" textLength="117.4961" x="368.1812" y="270.7803">Reconcile(request)</text></g><g class="message" data-entity-1="part3" data-entity-2="part4" id="msg3"><polygon fill="#0F172A" points="905.3853,314,915.3853,318,905.3853,322,909.3853,318" style="stroke:#0F172A;stroke-width:1;"/><line style="stroke:#0F172A;stroke-width:1;" x1="600.0073" x2="911.3853" y1="318" y2="318"/><text fill="#000000" font-family="Helvetica" font-size="14" lengthAdjust="spacing" textLength="105.834" x="607.0073" y="298.7803">reconcile desired</text><text fill="#000000" font-family="Helvetica" font-size="14" lengthAdjust="spacing" textLength="293.3779" x="607.0073" y="312.7803">LogAnalyticsNamespaceStorageArchivalConfig</text></g><path d="M541.9834,356 L595.3213,356 L595.3213,362 L585.3213,372 L533.9834,372 L533.9834,364 A8,8 0 0 1 541.9834,356" fill="#F8FAFC" style="stroke:#CBD5E1;stroke-width:1.5;"/><rect fill="none" height="290" rx="8" ry="8" style="stroke:#CBD5E1;stroke-width:1.5;" width="814.0107" x="533.9834" y="356"/><text fill="#000000" font-family="Helvetica" font-size="14" font-weight="bold" lengthAdjust="spacing" textLength="16.3379" x="548.9834" y="367.7803">alt</text><text fill="#000000" font-family="Helvetica" font-size="14" font-weight="bold" lengthAdjust="spacing" textLength="308.1094" x="610.3213" y="368.7803">[tracked or explicit OCI identity already exists]</text><g class="message" data-entity-1="part4" data-entity-2="part5" id="msg4"><polygon fill="#0F172A" points="1286.5493,388,1296.5493,392,1286.5493,396,1290.5493,392" style="stroke:#0F172A;stroke-width:1;"/><line style="stroke:#0F172A;stroke-width:1;" x1="917.3853" x2="1292.5493" y1="392" y2="392"/><text fill="#000000" font-family="Helvetica" font-size="14" lengthAdjust="spacing" textLength="315.9434" x="924.3853" y="386.7803">GetLogAnalyticsNamespaceStorageArchivalConfig</text></g><line style="stroke:#CBD5E1;stroke-width:1;stroke-dasharray:2,2;" x1="533.9834" x2="1347.9941" y1="401" y2="401"/><text fill="#000000" font-family="Helvetica" font-size="14" font-weight="bold" lengthAdjust="spacing" textLength="185.1582" x="538.9834" y="411.7803">[tracked identity is missing]</text><g class="message" data-entity-1="part4" data-entity-2="part5" id="msg5"><polygon fill="#0F172A" points="1286.5493,446,1296.5493,450,1286.5493,454,1290.5493,450" style="stroke:#0F172A;stroke-width:1;"/><line style="stroke:#0F172A;stroke-width:1;" x1="917.3853" x2="1292.5493" y1="450" y2="450"/><text fill="#000000" font-family="Helvetica" font-size="14" lengthAdjust="spacing" textLength="357.1641" x="924.3853" y="430.7803">ListLogAnalyticsNamespaceStorageArchivalConfig(filters:</text><text fill="#000000" font-family="Helvetica" font-size="14" lengthAdjust="spacing" textLength="143.1719" x="924.3853" y="444.7803">compartment_id, state)</text></g><path d="M827.189,465 L880.5269,465 L880.5269,471 L870.5269,481 L819.189,481 L819.189,473 A8,8 0 0 1 827.189,465" fill="#F8FAFC" style="stroke:#CBD5E1;stroke-width:1.5;"/><rect fill="none" height="146" rx="8" ry="8" style="stroke:#CBD5E1;stroke-width:1.5;" width="518.8052" x="819.189" y="465"/><text fill="#000000" font-family="Helvetica" font-size="14" font-weight="bold" lengthAdjust="spacing" textLength="16.3379" x="834.189" y="476.7803">alt</text><text fill="#000000" font-family="Helvetica" font-size="14" font-weight="bold" lengthAdjust="spacing" textLength="242.7031" x="895.5269" y="477.7803">[reusable OCI resource is not found]</text><g class="message" data-entity-1="part4" data-entity-2="part5" id="msg6"><polygon fill="#0F172A" points="1286.5493,497,1296.5493,501,1286.5493,505,1290.5493,501" style="stroke:#0F172A;stroke-width:1;"/><line style="stroke:#0F172A;stroke-width:1;" x1="917.3853" x2="1292.5493" y1="501" y2="501"/><text fill="#000000" font-family="Helvetica" font-size="14" lengthAdjust="spacing" textLength="335.3984" x="924.3853" y="495.7803">CreateLogAnalyticsNamespaceStorageArchivalConfig</text></g><path d="M837.189,516 L903.7339,516 L903.7339,522 L893.7339,532 L829.189,532 L829.189,524 A8,8 0 0 1 837.189,516" fill="#F8FAFC" style="stroke:#CBD5E1;stroke-width:1.5;"/><rect fill="none" height="44" rx="8" ry="8" style="stroke:#CBD5E1;stroke-width:1.5;" width="498.8052" x="829.189" y="516"/><text fill="#000000" font-family="Helvetica" font-size="14" font-weight="bold" lengthAdjust="spacing" textLength="29.5449" x="844.189" y="527.7803">loop</text><text fill="#000000" font-family="Helvetica" font-size="14" font-weight="bold" lengthAdjust="spacing" textLength="215.4756" x="918.7339" y="528.7803">[create pending PROVISIONING]</text><g class="message" data-entity-1="part4" data-entity-2="part5" id="msg7"><polygon fill="#0F172A" points="1286.5493,548,1296.5493,552,1286.5493,556,1290.5493,552" style="stroke:#0F172A;stroke-width:1;"/><line style="stroke:#0F172A;stroke-width:1;" x1="917.3853" x2="1292.5493" y1="552" y2="552"/><text fill="#000000" font-family="Helvetica" font-size="14" lengthAdjust="spacing" textLength="315.9434" x="924.3853" y="546.7803">GetLogAnalyticsNamespaceStorageArchivalConfig</text></g><line style="stroke:#CBD5E1;stroke-width:1;stroke-dasharray:2,2;" x1="819.189" x2="1337.9941" y1="568" y2="568"/><text fill="#000000" font-family="Helvetica" font-size="14" font-weight="bold" lengthAdjust="spacing" textLength="255.2334" x="824.189" y="578.7803">[reusable OCI resource already exists]</text><g class="message" data-entity-1="part4" data-entity-2="part5" id="msg8"><polygon fill="#0F172A" points="1286.5493,599,1296.5493,603,1286.5493,607,1290.5493,603" style="stroke:#0F172A;stroke-width:1;"/><line style="stroke:#0F172A;stroke-width:1;" x1="917.3853" x2="1292.5493" y1="603" y2="603"/><text fill="#000000" font-family="Helvetica" font-size="14" lengthAdjust="spacing" textLength="315.9434" x="924.3853" y="597.7803">GetLogAnalyticsNamespaceStorageArchivalConfig</text></g><g class="message" data-entity-1="part4" data-entity-2="part3" id="msg9"><polygon fill="#0F172A" points="611.0073,634,601.0073,638,611.0073,642,607.0073,638" style="stroke:#0F172A;stroke-width:1;"/><line style="stroke:#0F172A;stroke-width:1;stroke-dasharray:2,2;" x1="605.0073" x2="916.3853" y1="638" y2="638"/><text fill="#000000" font-family="Helvetica" font-size="14" lengthAdjust="spacing" textLength="231.0957" x="617.0073" y="632.7803">persist resolved OCI identity in status</text></g><path d="M521.9834,660 L575.3213,660 L575.3213,666 L565.3213,676 L513.9834,676 L513.9834,668 A8,8 0 0 1 521.9834,660" fill="#F8FAFC" style="stroke:#CBD5E1;stroke-width:1.5;"/><rect fill="none" height="868" rx="8" ry="8" style="stroke:#CBD5E1;stroke-width:1.5;" width="850.8218" x="513.9834" y="660"/><text fill="#000000" font-family="Helvetica" font-size="14" font-weight="bold" lengthAdjust="spacing" textLength="16.3379" x="528.9834" y="671.7803">alt</text><text fill="#000000" font-family="Helvetica" font-size="14" font-weight="bold" lengthAdjust="spacing" textLength="120.5859" x="590.3213" y="672.7803">[delete requested]</text><path d="M531.9834,683 L611.0039,683 L611.0039,689 L601.0039,699 L523.9834,699 L523.9834,691 A8,8 0 0 1 531.9834,683" fill="#F8FAFC" style="stroke:#CBD5E1;stroke-width:1.5;"/><rect fill="none" height="302" rx="8" ry="8" style="stroke:#CBD5E1;stroke-width:1.5;" width="814.0107" x="523.9834" y="683"/><text fill="#000000" font-family="Helvetica" font-size="14" font-weight="bold" lengthAdjust="spacing" textLength="42.0205" x="538.9834" y="694.7803">Delete</text><g class="message" data-entity-1="part4" data-entity-2="part5" id="msg10"><polygon fill="#0F172A" points="1286.5493,715,1296.5493,719,1286.5493,723,1290.5493,719" style="stroke:#0F172A;stroke-width:1;"/><line style="stroke:#0F172A;stroke-width:1;" x1="917.3853" x2="1292.5493" y1="719" y2="719"/><text fill="#000000" font-family="Helvetica" font-size="14" lengthAdjust="spacing" textLength="333.8467" x="924.3853" y="713.7803">DeleteLogAnalyticsNamespaceStorageArchivalConfig</text></g><g class="message" data-entity-1="part4" data-entity-2="part5" id="msg11"><polygon fill="#0F172A" points="1286.5493,785,1296.5493,789,1286.5493,793,1290.5493,789" style="stroke:#0F172A;stroke-width:1;"/><line style="stroke:#0F172A;stroke-width:1;" x1="917.3853" x2="1292.5493" y1="789" y2="789"/><text fill="#000000" font-family="Helvetica" font-size="14" lengthAdjust="spacing" textLength="109.7168" x="924.3853" y="741.7803">confirm delete via</text><text fill="#000000" font-family="Helvetica" font-size="14" lengthAdjust="spacing" textLength="315.9434" x="924.3853" y="755.7803">GetLogAnalyticsNamespaceStorageArchivalConfig</text><text fill="#000000" font-family="Helvetica" font-size="14" lengthAdjust="spacing" textLength="12.4482" x="924.3853" y="769.7803">or</text><text fill="#000000" font-family="Helvetica" font-size="14" lengthAdjust="spacing" textLength="315.1641" x="924.3853" y="783.7803">ListLogAnalyticsNamespaceStorageArchivalConfig</text></g><path d="M837.189,804 L903.7339,804 L903.7339,810 L893.7339,820 L829.189,820 L829.189,812 A8,8 0 0 1 837.189,804" fill="#F8FAFC" style="stroke:#CBD5E1;stroke-width:1.5;"/><rect fill="none" height="72" rx="8" ry="8" style="stroke:#CBD5E1;stroke-width:1.5;" width="498.8052" x="829.189" y="804"/><text fill="#000000" font-family="Helvetica" font-size="14" font-weight="bold" lengthAdjust="spacing" textLength="29.5449" x="844.189" y="815.7803">loop</text><text fill="#000000" font-family="Helvetica" font-size="14" font-weight="bold" lengthAdjust="spacing" textLength="182.7793" x="918.7339" y="816.7803">[delete pending DELETING]</text><g class="message" data-entity-1="part4" data-entity-2="part5" id="msg12"><polygon fill="#0F172A" points="1286.5493,864,1296.5493,868,1286.5493,872,1290.5493,868" style="stroke:#0F172A;stroke-width:1;"/><line style="stroke:#0F172A;stroke-width:1;" x1="917.3853" x2="1292.5493" y1="868" y2="868"/><text fill="#000000" font-family="Helvetica" font-size="14" lengthAdjust="spacing" textLength="315.9434" x="924.3853" y="834.7803">GetLogAnalyticsNamespaceStorageArchivalConfig</text><text fill="#000000" font-family="Helvetica" font-size="14" lengthAdjust="spacing" textLength="12.4482" x="924.3853" y="848.7803">or</text><text fill="#000000" font-family="Helvetica" font-size="14" lengthAdjust="spacing" textLength="315.1641" x="924.3853" y="862.7803">ListLogAnalyticsNamespaceStorageArchivalConfig</text></g><path d="M541.9834,890 L595.3213,890 L595.3213,896 L585.3213,906 L533.9834,906 L533.9834,898 A8,8 0 0 1 541.9834,890" fill="#F8FAFC" style="stroke:#CBD5E1;stroke-width:1.5;"/><rect fill="none" height="88" rx="8" ry="8" style="stroke:#CBD5E1;stroke-width:1.5;" width="471.5981" x="533.9834" y="890"/><text fill="#000000" font-family="Helvetica" font-size="14" font-weight="bold" lengthAdjust="spacing" textLength="16.3379" x="548.9834" y="901.7803">alt</text><text fill="#000000" font-family="Helvetica" font-size="14" font-weight="bold" lengthAdjust="spacing" textLength="261.4268" x="610.3213" y="902.7803">[cleanup or finalizer release is blocked]</text><g class="message" data-entity-1="part4" data-entity-2="part3" id="msg13"><polygon fill="#0F172A" points="611.0073,922,601.0073,926,611.0073,930,607.0073,926" style="stroke:#0F172A;stroke-width:1;"/><line style="stroke:#0F172A;stroke-width:1;stroke-dasharray:2,2;" x1="605.0073" x2="916.3853" y1="926" y2="926"/><text fill="#000000" font-family="Helvetica" font-size="14" lengthAdjust="spacing" textLength="170.4336" x="617.0073" y="920.7803">retain delete state and retry</text></g><line style="stroke:#CBD5E1;stroke-width:1;stroke-dasharray:2,2;" x1="533.9834" x2="1005.5815" y1="935" y2="935"/><text fill="#000000" font-family="Helvetica" font-size="14" font-weight="bold" lengthAdjust="spacing" textLength="194.4824" x="538.9834" y="945.7803">[delete completion observed]</text><g class="message" data-entity-1="part4" data-entity-2="part3" id="msg14"><polygon fill="#0F172A" points="611.0073,966,601.0073,970,611.0073,974,607.0073,970" style="stroke:#0F172A;stroke-width:1;"/><line style="stroke:#0F172A;stroke-width:1;stroke-dasharray:2,2;" x1="605.0073" x2="916.3853" y1="970" y2="970"/><text fill="#000000" font-family="Helvetica" font-size="14" lengthAdjust="spacing" textLength="243.5781" x="617.0073" y="964.7803">release finalizer after delete completion</text></g><line style="stroke:#CBD5E1;stroke-width:1;stroke-dasharray:2,2;" x1="513.9834" x2="1364.8052" y1="993" y2="993"/><text fill="#000000" font-family="Helvetica" font-size="14" font-weight="bold" lengthAdjust="spacing" textLength="149.3857" x="518.9834" y="1003.7803">[OCI state is retryable]</text><g class="message" data-entity-1="part4" data-entity-2="part3" id="msg15"><polygon fill="#0F172A" points="611.0073,1038,601.0073,1042,611.0073,1046,607.0073,1042" style="stroke:#0F172A;stroke-width:1;"/><line style="stroke:#0F172A;stroke-width:1;stroke-dasharray:2,2;" x1="605.0073" x2="916.3853" y1="1042" y2="1042"/><text fill="#000000" font-family="Helvetica" font-size="14" lengthAdjust="spacing" textLength="184.4199" x="617.0073" y="1022.7803">requeue while OCI remains in</text><text fill="#000000" font-family="Helvetica" font-size="14" lengthAdjust="spacing" textLength="260.5928" x="617.0073" y="1036.7803">PROVISIONING, UPDATING, DELETING</text></g><line style="stroke:#CBD5E1;stroke-width:1;stroke-dasharray:2,2;" x1="513.9834" x2="1364.8052" y1="1051" y2="1051"/><text fill="#000000" font-family="Helvetica" font-size="14" font-weight="bold" lengthAdjust="spacing" textLength="200.751" x="518.9834" y="1061.7803">[live state requires field-aware</text><text fill="#000000" font-family="Helvetica" font-size="14" font-weight="bold" lengthAdjust="spacing" textLength="105.0068" x="518.9834" y="1075.7803">drift evaluation]</text><path d="M531.9834,1087 L659.9697,1087 L659.9697,1093 L649.9697,1103 L523.9834,1103 L523.9834,1095 A8,8 0 0 1 531.9834,1087" fill="#F8FAFC" style="stroke:#CBD5E1;stroke-width:1.5;"/><rect fill="none" height="392" rx="8" ry="8" style="stroke:#CBD5E1;stroke-width:1.5;" width="830.8218" x="523.9834" y="1087"/><text fill="#000000" font-family="Helvetica" font-size="14" font-weight="bold" lengthAdjust="spacing" textLength="90.9863" x="538.9834" y="1098.7803">Drift handling</text><path d="M871,1116 L871,1166 A8,8 0 0 0 879,1174 L1336,1174 A8,8 0 0 0 1344,1166 L1344,1118 L1334,1108 L879,1108 A8,8 0 0 0 871,1116" fill="#FFF7D6" style="stroke:#B45309;stroke-width:0.5;"/><path d="M1334,1108 L1334,1114 A4,4 0 0 0 1338,1118 L1344,1118 L1334,1108" fill="#FFF7D6" style="stroke:#B45309;stroke-width:0.5;"/><text fill="#334155" font-family="Helvetica" font-size="14" lengthAdjust="spacing" textLength="255.2813" x="975.762" y="1123.7803">Supported update surface: display_name</text><text fill="#334155" font-family="Helvetica" font-size="14" lengthAdjust="spacing" textLength="235.7783" x="975.762" y="1137.7803">Reject before mutate: force-new fields</text><text fill="#334155" font-family="Helvetica" font-size="14" lengthAdjust="spacing" textLength="100.3789" x="975.762" y="1151.7803">compartment_id</text><text fill="#334155" font-family="Helvetica" font-size="14" lengthAdjust="spacing" textLength="229.5576" x="975.762" y="1165.7803">Lookup filters: compartment_id, state</text><path d="M541.9834,1186 L600.749,1186 L600.749,1192 L590.749,1202 L533.9834,1202 L533.9834,1194 A8,8 0 0 1 541.9834,1186" fill="#F8FAFC" style="stroke:#CBD5E1;stroke-width:1.5;"/><rect fill="none" height="44" rx="8" ry="8" style="stroke:#CBD5E1;stroke-width:1.5;" width="471.5981" x="533.9834" y="1186"/><text fill="#000000" font-family="Helvetica" font-size="14" font-weight="bold" lengthAdjust="spacing" textLength="21.7656" x="548.9834" y="1197.7803">opt</text><text fill="#000000" font-family="Helvetica" font-size="14" font-weight="bold" lengthAdjust="spacing" textLength="276.1309" x="615.749" y="1198.7803">[force-new or conflicting drift is detected]</text><g class="message" data-entity-1="part4" data-entity-2="part3" id="msg16"><polygon fill="#0F172A" points="611.0073,1218,601.0073,1222,611.0073,1226,607.0073,1222" style="stroke:#0F172A;stroke-width:1;"/><line style="stroke:#0F172A;stroke-width:1;stroke-dasharray:2,2;" x1="605.0073" x2="916.3853" y1="1222" y2="1222"/><text fill="#000000" font-family="Helvetica" font-size="14" lengthAdjust="spacing" textLength="164.1855" x="617.0073" y="1216.7803">reject before OCI mutation</text></g><path d="M827.189,1244 L885.9546,1244 L885.9546,1250 L875.9546,1260 L819.189,1260 L819.189,1252 A8,8 0 0 1 827.189,1244" fill="#F8FAFC" style="stroke:#CBD5E1;stroke-width:1.5;"/><rect fill="none" height="130" rx="8" ry="8" style="stroke:#CBD5E1;stroke-width:1.5;" width="518.8052" x="819.189" y="1244"/><text fill="#000000" font-family="Helvetica" font-size="14" font-weight="bold" lengthAdjust="spacing" textLength="21.7656" x="834.189" y="1255.7803">opt</text><text fill="#000000" font-family="Helvetica" font-size="14" font-weight="bold" lengthAdjust="spacing" textLength="243.4619" x="900.9546" y="1256.7803">[supported mutable drift is detected]</text><g class="message" data-entity-1="part4" data-entity-2="part5" id="msg17"><polygon fill="#0F172A" points="1286.5493,1304,1296.5493,1308,1286.5493,1312,1290.5493,1308" style="stroke:#0F172A;stroke-width:1;"/><line style="stroke:#0F172A;stroke-width:1;" x1="917.3853" x2="1292.5493" y1="1308" y2="1308"/><text fill="#000000" font-family="Helvetica" font-size="14" lengthAdjust="spacing" textLength="35.0205" x="924.3853" y="1274.7803">Apply</text><text fill="#000000" font-family="Helvetica" font-size="14" lengthAdjust="spacing" textLength="338.5225" x="924.3853" y="1288.7803">UpdateLogAnalyticsNamespaceStorageArchivalConfig</text><text fill="#000000" font-family="Helvetica" font-size="14" lengthAdjust="spacing" textLength="226.4541" x="924.3853" y="1302.7803">only for mutable fields display_name</text></g><path d="M837.189,1323 L903.7339,1323 L903.7339,1329 L893.7339,1339 L829.189,1339 L829.189,1331 A8,8 0 0 1 837.189,1323" fill="#F8FAFC" style="stroke:#CBD5E1;stroke-width:1.5;"/><rect fill="none" height="44" rx="8" ry="8" style="stroke:#CBD5E1;stroke-width:1.5;" width="498.8052" x="829.189" y="1323"/><text fill="#000000" font-family="Helvetica" font-size="14" font-weight="bold" lengthAdjust="spacing" textLength="29.5449" x="844.189" y="1334.7803">loop</text><text fill="#000000" font-family="Helvetica" font-size="14" font-weight="bold" lengthAdjust="spacing" textLength="190.5381" x="918.7339" y="1335.7803">[update pending UPDATING]</text><g class="message" data-entity-1="part4" data-entity-2="part5" id="msg18"><polygon fill="#0F172A" points="1286.5493,1355,1296.5493,1359,1286.5493,1363,1290.5493,1359" style="stroke:#0F172A;stroke-width:1;"/><line style="stroke:#0F172A;stroke-width:1;" x1="917.3853" x2="1292.5493" y1="1359" y2="1359"/><text fill="#000000" font-family="Helvetica" font-size="14" lengthAdjust="spacing" textLength="315.9434" x="924.3853" y="1353.7803">GetLogAnalyticsNamespaceStorageArchivalConfig</text></g><g class="message" data-entity-1="part4" data-entity-2="part5" id="msg19"><polygon fill="#0F172A" points="1286.5493,1467,1296.5493,1471,1286.5493,1475,1290.5493,1471" style="stroke:#0F172A;stroke-width:1;"/><line style="stroke:#0F172A;stroke-width:1;" x1="917.3853" x2="1292.5493" y1="1471" y2="1471"/><text fill="#000000" font-family="Helvetica" font-size="14" lengthAdjust="spacing" textLength="104.2891" x="924.3853" y="1395.7803">run helper hooks</text><text fill="#000000" font-family="Helvetica" font-size="14" lengthAdjust="spacing" textLength="219.0508" x="924.3853" y="1409.7803">create=tfresource.CreateResource,</text><text fill="#000000" font-family="Helvetica" font-size="14" lengthAdjust="spacing" textLength="314.3164" x="924.3853" y="1423.7803">tfresource.WaitForWorkRequestWithErrorHandling</text><text fill="#000000" font-family="Helvetica" font-size="14" lengthAdjust="spacing" textLength="215.5439" x="924.3853" y="1437.7803">entity=template action=CREATED;</text><text fill="#000000" font-family="Helvetica" font-size="14" lengthAdjust="spacing" textLength="226.085" x="924.3853" y="1451.7803">update=tfresource.UpdateResource;</text><text fill="#000000" font-family="Helvetica" font-size="14" lengthAdjust="spacing" textLength="212.8438" x="924.3853" y="1465.7803">delete=tfresource.DeleteResource</text></g><g class="message" data-entity-1="part4" data-entity-2="part3" id="msg20"><polygon fill="#0F172A" points="611.0073,1516,601.0073,1520,611.0073,1524,607.0073,1520" style="stroke:#0F172A;stroke-width:1;"/><line style="stroke:#0F172A;stroke-width:1;stroke-dasharray:2,2;" x1="605.0073" x2="916.3853" y1="1520" y2="1520"/><text fill="#000000" font-family="Helvetica" font-size="14" lengthAdjust="spacing" textLength="100.7822" x="617.0073" y="1500.7803">status=required,</text><text fill="#000000" font-family="Helvetica" font-size="14" lengthAdjust="spacing" textLength="230.7197" x="617.0073" y="1514.7803">finalizer=retain-until-confirmed-delete</text></g><g class="message" data-entity-1="part3" data-entity-2="part2" id="msg21"><polygon fill="#0F172A" points="372.1812,1565,362.1812,1569,372.1812,1573,368.1812,1569" style="stroke:#0F172A;stroke-width:1;"/><line style="stroke:#0F172A;stroke-width:1;stroke-dasharray:2,2;" x1="366.1812" x2="599.0073" y1="1569" y2="1569"/><text fill="#000000" font-family="Helvetica" font-size="14" lengthAdjust="spacing" textLength="214.8262" x="378.1812" y="1549.7803">requeue on provisioning, updating,</text><text fill="#000000" font-family="Helvetica" font-size="14" lengthAdjust="spacing" textLength="69.2549" x="378.1812" y="1563.7803">terminating</text></g><path d="M922,1590 L922,2060 A8,8 0 0 0 930,2068 L1349,2068 A8,8 0 0 0 1357,2060 L1357,1592 L1347,1582 L930,1582 A8,8 0 0 0 922,1590" fill="#FFF7D6" style="stroke:#B45309;stroke-width:0.5;"/><path d="M1347,1582 L1347,1588 A4,4 0 0 0 1351,1592 L1357,1592 L1347,1582" fill="#FFF7D6" style="stroke:#B45309;stroke-width:0.5;"/><text fill="#334155" font-family="Helvetica" font-size="14" lengthAdjust="spacing" textLength="101.165" x="928" y="1597.7803">shared diagram:</text><text fill="#334155" font-family="Helvetica" font-size="14" lengthAdjust="spacing" textLength="307.3916" x="928" y="1611.7803">shared/diagrams/shared-resolution-sequence.svg</text><text fill="#334155" font-family="Helvetica" font-size="14" lengthAdjust="spacing" textLength="143.1992" x="928" y="1625.7803">shared delete diagram:</text><text fill="#334155" font-family="Helvetica" font-size="14" lengthAdjust="spacing" textLength="284.833" x="928" y="1639.7803">shared/diagrams/shared-delete-sequence.svg</text><text fill="#334155" font-family="Helvetica" font-size="14" lengthAdjust="spacing" textLength="280.9297" x="928" y="1653.7803">Start from the shared resolution sequence for</text><text fill="#334155" font-family="Helvetica" font-size="14" lengthAdjust="spacing" textLength="260.7295" x="928" y="1667.7803">OCID binding, datasource pagination, and</text><text fill="#334155" font-family="Helvetica" font-size="14" lengthAdjust="spacing" textLength="163.4268" x="928" y="1681.7803">create-or-update dispatch.</text><text fill="#334155" font-family="Helvetica" font-size="14" lengthAdjust="spacing" textLength="301.1982" x="928" y="1695.7803">Layer the shared delete sequence when finalizer</text><text fill="#334155" font-family="Helvetica" font-size="14" lengthAdjust="spacing" textLength="269.2471" x="928" y="1709.7803">retention, delete confirmation, work-request</text><text fill="#334155" font-family="Helvetica" font-size="14" lengthAdjust="spacing" textLength="199.2334" x="928" y="1723.7803">polling, or Secret cleanup apply.</text><text fill="#334155" font-family="Helvetica" font-size="14" lengthAdjust="spacing" textLength="281.709" x="928" y="1737.7803">archetype batch: Generated service-manager</text><text fill="#334155" font-family="Helvetica" font-size="14" lengthAdjust="spacing" textLength="266.1504" x="928" y="1751.7803">controllers follow the shared resolution and</text><text fill="#334155" font-family="Helvetica" font-size="14" lengthAdjust="spacing" textLength="259.9297" x="928" y="1765.7803">delete sequences with imported waits and</text><text fill="#334155" font-family="Helvetica" font-size="14" lengthAdjust="spacing" textLength="134.6064" x="928" y="1779.7803">controller-local policy.</text><text fill="#334155" font-family="Helvetica" font-size="14" lengthAdjust="spacing" textLength="125.2754" x="928" y="1793.7803">service: loganalytics</text><text fill="#334155" font-family="Helvetica" font-size="14" lengthAdjust="spacing" textLength="311.2881" x="928" y="1807.7803">slug: loganalyticsnamespacestoragearchivalconfig</text><text fill="#334155" font-family="Helvetica" font-size="14" lengthAdjust="spacing" textLength="326.8398" x="928" y="1821.7803">kind: LogAnalyticsNamespaceStorageArchivalConfig</text><text fill="#334155" font-family="Helvetica" font-size="14" lengthAdjust="spacing" textLength="241.2402" x="928" y="1835.7803">archetype: generated-service-manager</text><text fill="#334155" font-family="Helvetica" font-size="14" lengthAdjust="spacing" textLength="156.4063" x="928" y="1849.7803">status/finalizer: required /</text><text fill="#334155" font-family="Helvetica" font-size="14" lengthAdjust="spacing" textLength="174.3027" x="928" y="1863.7803">retain-until-confirmed-delete</text><text fill="#334155" font-family="Helvetica" font-size="14" lengthAdjust="spacing" textLength="272.3984" x="928" y="1877.7803">requeue: provisioning, updating, terminating</text><text fill="#334155" font-family="Helvetica" font-size="14" lengthAdjust="spacing" textLength="295.6816" x="928" y="1891.7803">provider states: create PROVISIONING; update</text><text fill="#334155" font-family="Helvetica" font-size="14" lengthAdjust="spacing" textLength="192.165" x="928" y="1905.7803">UPDATING; delete DELETING</text><text fill="#334155" font-family="Helvetica" font-size="14" lengthAdjust="spacing" textLength="183.6611" x="928" y="1919.7803">supported drift: display_name</text><text fill="#334155" font-family="Helvetica" font-size="14" lengthAdjust="spacing" textLength="230.3301" x="928" y="1933.7803">reject before mutate: force-new fields</text><text fill="#334155" font-family="Helvetica" font-size="14" lengthAdjust="spacing" textLength="100.3789" x="928" y="1947.7803">compartment_id</text><text fill="#334155" font-family="Helvetica" font-size="14" lengthAdjust="spacing" textLength="66.1445" x="928" y="1961.7803">list lookup:</text><text fill="#334155" font-family="Helvetica" font-size="14" lengthAdjust="spacing" textLength="414.7979" x="928" y="1975.7803">scaffold_loganalytics_loganalyticsnamespacestoragearchivalconfig</text><text fill="#334155" font-family="Helvetica" font-size="14" lengthAdjust="spacing" textLength="175.8477" x="928" y="1989.7803">filters compartment_id, state</text><text fill="#334155" font-family="Helvetica" font-size="14" lengthAdjust="spacing" textLength="89.4961" x="928" y="2003.7803">conflicts: none</text><text fill="#334155" font-family="Helvetica" font-size="14" lengthAdjust="spacing" textLength="104.3164" x="928" y="2017.7803">open gaps: none</text><text fill="#334155" font-family="Helvetica" font-size="14" lengthAdjust="spacing" textLength="224.9023" x="928" y="2031.7803">Scaffold metadata only; replace with</text><text fill="#334155" font-family="Helvetica" font-size="14" lengthAdjust="spacing" textLength="244.3232" x="928" y="2045.7803">controller-specific runtime states before</text><text fill="#334155" font-family="Helvetica" font-size="14" lengthAdjust="spacing" textLength="66.1445" x="928" y="2059.7803">promotion.</text><?plantuml-src jLTRRzis67tNho2wbnQmawP9Ud6G0McIjK6pf8ZRzSL0G4kKpOKYDPAowmtxxpkyI9OSUxMx3dc89PBVxNpdEvHvuBAacXR4J6ccvbnEI4w5OObfLiOqVPXeLSdiN0cboKzvYh-ijIDZEQs4_KL9UqCBHjupCMEMftJzdY7_av63ezOYrLhDe_Nd-S6h5-sJKbdszb4CUVugUxcwI-cCwRXZV7Hy-FpDoWxdFguV7XuT71-trhtvL6d9D3bucLXk1ID3zaV5PCf8dmWrePAA1H8p-zTgSbO_k9nDILCsj4hJ2JlJwPJFg3XNCkUJPCepHdAbx5XzRRapjUM_4a9eYgETy6CPwgNL_DaBzZf_ZcKOGmoyfDAkFz_Ui8sLLeaQ6uBdx9hBRe7V7D73yMkiEfDbPoaTPyVie5bw1DxhdEPfydVYSoCVgZ53rIqpIIiEWl9PhOHWklFwBJNiZgLAfdnrwSdjyFR3aEaPJzclm6h2z1D23Uc-wXovFRzAN6CGDGFiNTkzbNEWY6OPqSmeKLckv22-siyudG1Jin-U-yij_HhcFJERr1Oo9f3jnjDXkNkIoSmtSB8i5kd_tAhHW329_HKRoUrxSoHrdMsoDEKCToin8Ctlfzg5PUopfBl57UhMQq0QuyZOSAIsIso9xnrohTG3_b7aF-OoIwYmn6fq5Eg8tc5VIm4iFP04H9EWxO9GeHdD5bZbnfga6vUB5Bi7v1spEuJ3C1KRpuqdRaZ1ZS7StEJb6Y5ix-PfpeLbsWn6CbM5wzG2dkvvrYF6KikU-G9eLXawHbrTrgxPAer1WbZG8XWrODgcQCvH6CjsI5ieLPBKdo8bkj0fnCUxsz-kXbUtDrStxtvGSH6nB_3wpFuNFDSKQKtZbm03JWFhPu2-qsXSUbWguyqvQ09vIMG9os8RN_ZNco8Fgpi4ly5EwbPrKGSnutGaTwhAI2eDakxKig55eikwHIukhoy__QZs-AweQa1ImQW40XWMESTPN3uquC5Ruoap5ifHUfjUqCnI81vJzNpqWmdlzIBqRrnptCKF201HOmFBspe8OIq3fJccmMEhWJ0rQLnBXcYGZm_6KMWxXrupo7pA6yuLoD6WiqUopVCU-VpnukoJ_zM0wxqBFgkBuSnXpXiam4JMftFesKXcckUMC41JKHzyf8H_FKK1XHkVInNknjrp4Zsiob9fq8bKPUOycKhdW7v0CcvAGHVt4jsGtB7VMMh9cELACr9KBgW11Y9cI5-oUGZB9Dt9caI9gISlMJjubmgiIjioYRPoh8C8MTVt8LV0a06mr6uBUpjiXu8FlSRPEJHD0ToI6v3VzXIfTbQMOZ6IdttXTYAT50kNQUCobAzRSa_-24fD_hfJVg0sR5OqNKaoPG9pcam1f85mUhKwjNcj7tj1zUxYOsyaMsjVACUTLtzH-k4k3Eqlt4ulyKMYtyVU7Camxayj0m4zwrE7pkdvtUNPfykBav4C5MZx3FMkVM9B875xInZxzPPj5Ia8pcdaMePicd5n6YPKlqAueX_LeBbHUWUhjxQLIsGz432uIgrct21DLA0N87Q_K3oc2tYq3MirdqmjKJbPVs6Ezzl_Tbl-ffLrj-QX1Oz9hbL1x9IHHnVuvKSOsZn1ErtuIwPF6EdIUFqewSJdgsJFpViaD5XVwNviVCS8QjFfNd9D5wXgoraj5hMZ-PJ9vNnF09ZhBMUv6V8UjUXkZhRinyj4KW8a7vjoGn9HBDMDEfBl9HJKONPHCdor8nv7DNpEKZStJC2cNqHmqWPrZ6lyL_CDDN8PhsHXo1mS8Ro8CsaE3fbGciPg7xfA1K7CF4LaqVsWyncT655DkgzaFGnC60Oq3eCq30DyFcUuKsy_FPgA3CYahaL_jHQ1KliDB8DQoJAod_mxfo9X1fleGjfiyNlmcHmanKbDk5YtXVOaJjEadg8dTMSqihiK0oy2AoAelqi4XRla2g-4e5XAS_H4Tjz6vdu7cAAMRf3IMZ1H08YCKrHmOaBB-daOtPC2fNSy94wAJW0AidGSGlErEysKBEKvJvqMM5x4suY99N1LBvHhvRr6nFy1?></g></svg>