<?plantuml 1.2026.1?><svg xmlns="http://www.w3.org/2000/svg" xmlns:xlink="http://www.w3.org/1999/xlink" contentStyleType="text/css" data-diagram-type="SEQUENCE" height="1301px" preserveAspectRatio="none" style="width:1134px;height:1301px;background:#FCFCFD;" version="1.1" viewBox="0 0 1134 1301" width="1134px" zoomAndPan="magnify"><title>Sequence - database/DatabaseSystemVersions</title><defs/><g><rect fill="#FCFCFD" height="1301" style="stroke:none;stroke-width:1;" width="1134" x="0" y="0"/><text fill="#000000" font-family="Helvetica" font-size="14" font-weight="bold" lengthAdjust="spacing" textLength="314.3643" x="407.3379" y="25.7803">Sequence - database/DatabaseSystemVersions</text><rect fill="none" height="86" rx="8" ry="8" style="stroke:#CBD5E1;stroke-width:1.5;" width="366.5024" x="692.6206" y="347"/><rect fill="none" height="204" rx="8" ry="8" style="stroke:#CBD5E1;stroke-width:1.5;" width="386.5024" x="682.6206" y="447"/><rect fill="none" height="44" rx="8" ry="8" style="stroke:#CBD5E1;stroke-width:1.5;" width="366.5024" x="692.6206" y="498"/><rect fill="none" height="44" rx="8" ry="8" style="stroke:#CBD5E1;stroke-width:1.5;" width="366.5024" x="692.6206" y="600"/><rect fill="none" height="116" rx="8" ry="8" style="stroke:#CBD5E1;stroke-width:1.5;" width="386.5024" x="682.6206" y="665"/><rect fill="none" height="58" rx="8" ry="8" style="stroke:#CBD5E1;stroke-width:1.5;" width="366.5024" x="692.6206" y="716"/><g class="participant-lifeline" data-entity-uid="part1" data-qualified-name="Kubernetes" id="part1-lifeline"><g><title>Kubernetes</title><rect fill="#000000" fill-opacity="0.00000" height="1180" width="8" x="39.8032" y="114"/><line style="stroke:#94A3B8;stroke-width:0.5;stroke-dasharray:5,5;" x1="43" x2="43" y1="114" y2="1294"/></g></g><g class="participant-lifeline" data-entity-uid="part2" data-qualified-name="Controller" id="part2-lifeline"><g><title>Controller</title><rect fill="#000000" fill-opacity="0.00000" height="1180" width="8" x="283.271" y="114"/><line style="stroke:#94A3B8;stroke-width:0.5;stroke-dasharray:5,5;" x1="286.9263" x2="286.9263" y1="114" y2="1294"/></g></g><g class="participant-lifeline" data-entity-uid="part3" data-qualified-name="BaseReconciler" id="part3-lifeline"><g><title>BaseReconciler</title><rect fill="#000000" fill-opacity="0.00000" height="1180" width="8" x="522.0972" y="114"/><line style="stroke:#94A3B8;stroke-width:0.5;stroke-dasharray:5,5;" x1="526.0732" x2="526.0732" y1="114" y2="1294"/></g></g><g class="participant-lifeline" data-entity-uid="part4" data-qualified-name="ServiceManager" id="part4-lifeline"><g><title>OSOKServiceManager</title><rect fill="#000000" fill-opacity="0.00000" height="1180" width="8" x="776.8169" y="114"/><line style="stroke:#94A3B8;stroke-width:0.5;stroke-dasharray:5,5;" x1="780.6206" x2="780.6206" y1="114" y2="1294"/></g></g><g class="participant-lifeline" data-entity-uid="part5" data-qualified-name="OCI" id="part5-lifeline"><g><title>OCI</title><rect fill="#000000" fill-opacity="0.00000" height="1180" width="8" x="1025.6782" y="114"/><line style="stroke:#94A3B8;stroke-width:0.5;stroke-dasharray:5,5;" x1="1029.2334" x2="1029.2334" y1="114" y2="1294"/></g></g><g class="participant participant-head" data-entity-uid="part1" data-qualified-name="Kubernetes" id="part1-head"><text fill="#000000" font-family="Helvetica" font-size="14" lengthAdjust="spacing" textLength="71.6064" x="5" y="110.7803">Kubernetes</text><ellipse cx="43.8032" cy="48.5" fill="#E2E8F0" rx="8" ry="8" style="stroke:#0F172A;stroke-width:0.5;"/><path d="M43.8032,56.5 L43.8032,83.5 M30.8032,64.5 L56.8032,64.5 M43.8032,83.5 L30.8032,98.5 M43.8032,83.5 L56.8032,98.5" fill="none" style="stroke:#0F172A;stroke-width:0.5;"/></g><g class="participant participant-head" data-entity-uid="part2" data-qualified-name="Controller" id="part2-head"><rect fill="#E2E8F0" height="28" rx="8" ry="8" style="stroke:#0F172A;stroke-width:0.5;" width="74.6895" x="249.9263" y="85"/><text fill="#0F172A" font-family="Helvetica" font-size="14" lengthAdjust="spacing" textLength="60.6895" x="256.9263" y="102.7803">Controller</text></g><g class="participant participant-head" data-entity-uid="part3" data-qualified-name="BaseReconciler" id="part3-head"><rect fill="#E2E8F0" height="28" rx="8" ry="8" style="stroke:#0F172A;stroke-width:0.5;" width="112.0479" x="470.0732" y="85"/><text fill="#0F172A" font-family="Helvetica" font-size="14" lengthAdjust="spacing" textLength="98.0479" x="477.0732" y="102.7803">BaseReconciler</text></g><g class="participant participant-head" data-entity-uid="part4" data-qualified-name="ServiceManager" id="part4-head"><rect fill="#E2E8F0" height="28" rx="8" ry="8" style="stroke:#0F172A;stroke-width:0.5;" width="156.3926" x="702.6206" y="85"/><text fill="#0F172A" font-family="Helvetica" font-size="14" lengthAdjust="spacing" textLength="142.3926" x="709.6206" y="102.7803">OSOKServiceManager</text></g><g class="participant participant-head" data-entity-uid="part5" data-qualified-name="OCI" id="part5-head"><rect fill="#E2E8F0" height="28" rx="8" ry="8" style="stroke:#0F172A;stroke-width:0.5;" width="38.8896" x="1010.2334" y="85"/><text fill="#0F172A" font-family="Helvetica" font-size="14" lengthAdjust="spacing" textLength="24.8896" x="1017.2334" y="102.7803">OCI</text></g><path d="M461,137 L461,187 A8,8 0 0 0 469,195 L836,195 A8,8 0 0 0 844,187 L844,139 L834,129 L469,129 A8,8 0 0 0 461,137" fill="#FFF7D6" style="stroke:#B45309;stroke-width:0.5;"/><path d="M834,129 L834,135 A4,4 0 0 0 838,139 L844,139 L834,129" fill="#FFF7D6" style="stroke:#B45309;stroke-width:0.5;"/><text fill="#334155" font-family="Helvetica" font-size="14" lengthAdjust="spacing" textLength="111.2891" x="494.7742" y="144.7803">shared resolution:</text><text fill="#334155" font-family="Helvetica" font-size="14" lengthAdjust="spacing" textLength="307.3916" x="494.7742" y="158.7803">shared/diagrams/shared-resolution-sequence.svg</text><text fill="#334155" font-family="Helvetica" font-size="14" lengthAdjust="spacing" textLength="88.7305" x="494.7742" y="172.7803">shared delete:</text><text fill="#334155" font-family="Helvetica" font-size="14" lengthAdjust="spacing" textLength="284.833" x="494.7742" y="186.7803">shared/diagrams/shared-delete-sequence.svg</text><g class="message" data-entity-1="part1" data-entity-2="part2" id="msg1"><polygon fill="#0F172A" points="275.271,230,285.271,234,275.271,238,279.271,234" style="stroke:#0F172A;stroke-width:1;"/><line style="stroke:#0F172A;stroke-width:1;" x1="43.8032" x2="281.271" y1="234" y2="234"/><text fill="#000000" font-family="Helvetica" font-size="14" lengthAdjust="spacing" textLength="219.4678" x="50.8032" y="214.7803">enqueue DatabaseSystemVersions</text><text fill="#000000" font-family="Helvetica" font-size="14" lengthAdjust="spacing" textLength="56.0273" x="50.8032" y="228.7803">reconcile</text></g><g class="message" data-entity-1="part2" data-entity-2="part3" id="msg2"><polygon fill="#0F172A" points="514.0972,258,524.0972,262,514.0972,266,518.0972,262" style="stroke:#0F172A;stroke-width:1;"/><line style="stroke:#0F172A;stroke-width:1;" x1="287.271" x2="520.0972" y1="262" y2="262"/><text fill="#000000" font-family="Helvetica" font-size="14" lengthAdjust="spacing" textLength="117.4961" x="294.271" y="256.7803">Reconcile(request)</text></g><g class="message" data-entity-1="part3" data-entity-2="part4" id="msg3"><polygon fill="#0F172A" points="768.8169,300,778.8169,304,768.8169,308,772.8169,304" style="stroke:#0F172A;stroke-width:1;"/><line style="stroke:#0F172A;stroke-width:1;" x1="526.0972" x2="774.8169" y1="304" y2="304"/><text fill="#000000" font-family="Helvetica" font-size="14" lengthAdjust="spacing" textLength="105.834" x="533.0972" y="284.7803">reconcile desired</text><text fill="#000000" font-family="Helvetica" font-size="14" lengthAdjust="spacing" textLength="161.0752" x="533.0972" y="298.7803">DatabaseSystemVersions</text></g><g class="message" data-entity-1="part4" data-entity-2="part5" id="msg4"><polygon fill="#0F172A" points="1017.6782,328,1027.6782,332,1017.6782,336,1021.6782,332" style="stroke:#0F172A;stroke-width:1;"/><line style="stroke:#0F172A;stroke-width:1;" x1="780.8169" x2="1023.6782" y1="332" y2="332"/><text fill="#000000" font-family="Helvetica" font-size="14" lengthAdjust="spacing" textLength="183.6406" x="787.8169" y="326.7803">GetDatabaseSystemVersions</text></g><path d="M700.6206,347 L759.3862,347 L759.3862,353 L749.3862,363 L692.6206,363 L692.6206,355 A8,8 0 0 1 700.6206,347" fill="#F8FAFC" style="stroke:#CBD5E1;stroke-width:1.5;"/><rect fill="none" height="86" rx="8" ry="8" style="stroke:#CBD5E1;stroke-width:1.5;" width="366.5024" x="692.6206" y="347"/><text fill="#000000" font-family="Helvetica" font-size="14" font-weight="bold" lengthAdjust="spacing" textLength="21.7656" x="707.6206" y="358.7803">opt</text><text fill="#000000" font-family="Helvetica" font-size="14" font-weight="bold" lengthAdjust="spacing" textLength="135.3516" x="774.3862" y="359.7803">[list lookup fallback]</text><g class="message" data-entity-1="part4" data-entity-2="part5" id="msg5"><polygon fill="#0F172A" points="1017.6782,393,1027.6782,397,1017.6782,401,1021.6782,397" style="stroke:#0F172A;stroke-width:1;"/><line style="stroke:#0F172A;stroke-width:1;" x1="780.8169" x2="1023.6782" y1="397" y2="397"/><text fill="#000000" font-family="Helvetica" font-size="14" lengthAdjust="spacing" textLength="224.8613" x="787.8169" y="377.7803">ListDatabaseSystemVersions(filters:</text><text fill="#000000" font-family="Helvetica" font-size="14" lengthAdjust="spacing" textLength="143.1719" x="787.8169" y="391.7803">compartment_id, state)</text></g><g class="message" data-entity-1="part5" data-entity-2="part4" id="msg6"><polygon fill="#0F172A" points="791.8169,421,781.8169,425,791.8169,429,787.8169,425" style="stroke:#0F172A;stroke-width:1;"/><line style="stroke:#0F172A;stroke-width:1;stroke-dasharray:2,2;" x1="785.8169" x2="1028.6782" y1="425" y2="425"/><text fill="#000000" font-family="Helvetica" font-size="14" lengthAdjust="spacing" textLength="156.3994" x="797.8169" y="419.7803">matching collection items</text></g><path d="M690.6206,447 L743.9585,447 L743.9585,453 L733.9585,463 L682.6206,463 L682.6206,455 A8,8 0 0 1 690.6206,447" fill="#F8FAFC" style="stroke:#CBD5E1;stroke-width:1.5;"/><rect fill="none" height="204" rx="8" ry="8" style="stroke:#CBD5E1;stroke-width:1.5;" width="386.5024" x="682.6206" y="447"/><text fill="#000000" font-family="Helvetica" font-size="14" font-weight="bold" lengthAdjust="spacing" textLength="16.3379" x="697.6206" y="458.7803">alt</text><text fill="#000000" font-family="Helvetica" font-size="14" font-weight="bold" lengthAdjust="spacing" textLength="135.3447" x="758.9585" y="459.7803">[create or bind path]</text><g class="message" data-entity-1="part4" data-entity-2="part5" id="msg7"><polygon fill="#0F172A" points="1017.6782,479,1027.6782,483,1017.6782,487,1021.6782,483" style="stroke:#0F172A;stroke-width:1;"/><line style="stroke:#0F172A;stroke-width:1;" x1="780.8169" x2="1023.6782" y1="483" y2="483"/><text fill="#000000" font-family="Helvetica" font-size="14" lengthAdjust="spacing" textLength="203.0957" x="787.8169" y="477.7803">CreateDatabaseSystemVersions</text></g><path d="M700.6206,498 L767.1655,498 L767.1655,504 L757.1655,514 L692.6206,514 L692.6206,506 A8,8 0 0 1 700.6206,498" fill="#F8FAFC" style="stroke:#CBD5E1;stroke-width:1.5;"/><rect fill="none" height="44" rx="8" ry="8" style="stroke:#CBD5E1;stroke-width:1.5;" width="366.5024" x="692.6206" y="498"/><text fill="#000000" font-family="Helvetica" font-size="14" font-weight="bold" lengthAdjust="spacing" textLength="29.5449" x="707.6206" y="509.7803">loop</text><text fill="#000000" font-family="Helvetica" font-size="14" font-weight="bold" lengthAdjust="spacing" textLength="215.4756" x="782.1655" y="510.7803">[create pending PROVISIONING]</text><g class="message" data-entity-1="part4" data-entity-2="part5" id="msg8"><polygon fill="#0F172A" points="1017.6782,530,1027.6782,534,1017.6782,538,1021.6782,534" style="stroke:#0F172A;stroke-width:1;"/><line style="stroke:#0F172A;stroke-width:1;" x1="780.8169" x2="1023.6782" y1="534" y2="534"/><text fill="#000000" font-family="Helvetica" font-size="14" lengthAdjust="spacing" textLength="183.6406" x="787.8169" y="528.7803">GetDatabaseSystemVersions</text></g><line style="stroke:#CBD5E1;stroke-width:1;stroke-dasharray:2,2;" x1="682.6206" x2="1069.123" y1="550" y2="550"/><text fill="#000000" font-family="Helvetica" font-size="14" font-weight="bold" lengthAdjust="spacing" textLength="137.6484" x="687.6206" y="560.7803">[update or drift path]</text><g class="message" data-entity-1="part4" data-entity-2="part5" id="msg9"><polygon fill="#0F172A" points="1017.6782,581,1027.6782,585,1017.6782,589,1021.6782,585" style="stroke:#0F172A;stroke-width:1;"/><line style="stroke:#0F172A;stroke-width:1;" x1="780.8169" x2="1023.6782" y1="585" y2="585"/><text fill="#000000" font-family="Helvetica" font-size="14" lengthAdjust="spacing" textLength="206.2197" x="787.8169" y="579.7803">UpdateDatabaseSystemVersions</text></g><path d="M700.6206,600 L767.1655,600 L767.1655,606 L757.1655,616 L692.6206,616 L692.6206,608 A8,8 0 0 1 700.6206,600" fill="#F8FAFC" style="stroke:#CBD5E1;stroke-width:1.5;"/><rect fill="none" height="44" rx="8" ry="8" style="stroke:#CBD5E1;stroke-width:1.5;" width="366.5024" x="692.6206" y="600"/><text fill="#000000" font-family="Helvetica" font-size="14" font-weight="bold" lengthAdjust="spacing" textLength="29.5449" x="707.6206" y="611.7803">loop</text><text fill="#000000" font-family="Helvetica" font-size="14" font-weight="bold" lengthAdjust="spacing" textLength="190.5381" x="782.1655" y="612.7803">[update pending UPDATING]</text><g class="message" data-entity-1="part4" data-entity-2="part5" id="msg10"><polygon fill="#0F172A" points="1017.6782,632,1027.6782,636,1017.6782,640,1021.6782,636" style="stroke:#0F172A;stroke-width:1;"/><line style="stroke:#0F172A;stroke-width:1;" x1="780.8169" x2="1023.6782" y1="636" y2="636"/><text fill="#000000" font-family="Helvetica" font-size="14" lengthAdjust="spacing" textLength="183.6406" x="787.8169" y="630.7803">GetDatabaseSystemVersions</text></g><path d="M690.6206,665 L749.3862,665 L749.3862,671 L739.3862,681 L682.6206,681 L682.6206,673 A8,8 0 0 1 690.6206,665" fill="#F8FAFC" style="stroke:#CBD5E1;stroke-width:1.5;"/><rect fill="none" height="116" rx="8" ry="8" style="stroke:#CBD5E1;stroke-width:1.5;" width="386.5024" x="682.6206" y="665"/><text fill="#000000" font-family="Helvetica" font-size="14" font-weight="bold" lengthAdjust="spacing" textLength="21.7656" x="697.6206" y="676.7803">opt</text><text fill="#000000" font-family="Helvetica" font-size="14" font-weight="bold" lengthAdjust="spacing" textLength="120.5859" x="764.3862" y="677.7803">[delete requested]</text><g class="message" data-entity-1="part4" data-entity-2="part5" id="msg11"><polygon fill="#0F172A" points="1017.6782,697,1027.6782,701,1017.6782,705,1021.6782,701" style="stroke:#0F172A;stroke-width:1;"/><line style="stroke:#0F172A;stroke-width:1;" x1="780.8169" x2="1023.6782" y1="701" y2="701"/><text fill="#000000" font-family="Helvetica" font-size="14" lengthAdjust="spacing" textLength="201.5439" x="787.8169" y="695.7803">DeleteDatabaseSystemVersions</text></g><path d="M700.6206,716 L767.1655,716 L767.1655,722 L757.1655,732 L692.6206,732 L692.6206,724 A8,8 0 0 1 700.6206,716" fill="#F8FAFC" style="stroke:#CBD5E1;stroke-width:1.5;"/><rect fill="none" height="58" rx="8" ry="8" style="stroke:#CBD5E1;stroke-width:1.5;" width="366.5024" x="692.6206" y="716"/><text fill="#000000" font-family="Helvetica" font-size="14" font-weight="bold" lengthAdjust="spacing" textLength="29.5449" x="707.6206" y="727.7803">loop</text><text fill="#000000" font-family="Helvetica" font-size="14" font-weight="bold" lengthAdjust="spacing" textLength="213.124" x="782.1655" y="728.7803">[delete confirmation DELETING]</text><g class="message" data-entity-1="part4" data-entity-2="part5" id="msg12"><polygon fill="#0F172A" points="1017.6782,762,1027.6782,766,1017.6782,770,1021.6782,766" style="stroke:#0F172A;stroke-width:1;"/><line style="stroke:#0F172A;stroke-width:1;" x1="780.8169" x2="1023.6782" y1="766" y2="766"/><text fill="#000000" font-family="Helvetica" font-size="14" lengthAdjust="spacing" textLength="199.9785" x="787.8169" y="746.7803">GetDatabaseSystemVersions or</text><text fill="#000000" font-family="Helvetica" font-size="14" lengthAdjust="spacing" textLength="182.8613" x="787.8169" y="760.7803">ListDatabaseSystemVersions</text></g><g class="message" data-entity-1="part4" data-entity-2="part3" id="msg13"><polygon fill="#0F172A" points="537.0972,818,527.0972,822,537.0972,826,533.0972,822" style="stroke:#0F172A;stroke-width:1;"/><line style="stroke:#0F172A;stroke-width:1;stroke-dasharray:2,2;" x1="531.0972" x2="779.8169" y1="822" y2="822"/><text fill="#000000" font-family="Helvetica" font-size="14" lengthAdjust="spacing" textLength="100.7822" x="543.0972" y="802.7803">status=required,</text><text fill="#000000" font-family="Helvetica" font-size="14" lengthAdjust="spacing" textLength="230.7197" x="543.0972" y="816.7803">finalizer=retain-until-confirmed-delete</text></g><g class="message" data-entity-1="part3" data-entity-2="part2" id="msg14"><polygon fill="#0F172A" points="298.271,860,288.271,864,298.271,868,294.271,864" style="stroke:#0F172A;stroke-width:1;"/><line style="stroke:#0F172A;stroke-width:1;stroke-dasharray:2,2;" x1="292.271" x2="525.0972" y1="864" y2="864"/><text fill="#000000" font-family="Helvetica" font-size="14" lengthAdjust="spacing" textLength="214.8262" x="304.271" y="844.7803">requeue on provisioning, updating,</text><text fill="#000000" font-family="Helvetica" font-size="14" lengthAdjust="spacing" textLength="69.2549" x="304.271" y="858.7803">terminating</text></g><path d="M785,885 L785,1271 A8,8 0 0 0 793,1279 L1117,1279 A8,8 0 0 0 1125,1271 L1125,887 L1115,877 L793,877 A8,8 0 0 0 785,885" fill="#FFF7D6" style="stroke:#B45309;stroke-width:0.5;"/><path d="M1115,877 L1115,883 A4,4 0 0 0 1119,887 L1125,887 L1115,877" fill="#FFF7D6" style="stroke:#B45309;stroke-width:0.5;"/><text fill="#334155" font-family="Helvetica" font-size="14" lengthAdjust="spacing" textLength="101.165" x="791" y="892.7803">shared diagram:</text><text fill="#334155" font-family="Helvetica" font-size="14" lengthAdjust="spacing" textLength="307.3916" x="791" y="906.7803">shared/diagrams/shared-resolution-sequence.svg</text><text fill="#334155" font-family="Helvetica" font-size="14" lengthAdjust="spacing" textLength="143.1992" x="791" y="920.7803">shared delete diagram:</text><text fill="#334155" font-family="Helvetica" font-size="14" lengthAdjust="spacing" textLength="284.833" x="791" y="934.7803">shared/diagrams/shared-delete-sequence.svg</text><text fill="#334155" font-family="Helvetica" font-size="14" lengthAdjust="spacing" textLength="280.9297" x="791" y="948.7803">Start from the shared resolution sequence for</text><text fill="#334155" font-family="Helvetica" font-size="14" lengthAdjust="spacing" textLength="260.7295" x="791" y="962.7803">OCID binding, datasource pagination, and</text><text fill="#334155" font-family="Helvetica" font-size="14" lengthAdjust="spacing" textLength="163.4268" x="791" y="976.7803">create-or-update dispatch.</text><text fill="#334155" font-family="Helvetica" font-size="14" lengthAdjust="spacing" textLength="301.1982" x="791" y="990.7803">Layer the shared delete sequence when finalizer</text><text fill="#334155" font-family="Helvetica" font-size="14" lengthAdjust="spacing" textLength="269.2471" x="791" y="1004.7803">retention, delete confirmation, work-request</text><text fill="#334155" font-family="Helvetica" font-size="14" lengthAdjust="spacing" textLength="199.2334" x="791" y="1018.7803">polling, or Secret cleanup apply.</text><text fill="#334155" font-family="Helvetica" font-size="14" lengthAdjust="spacing" textLength="281.709" x="791" y="1032.7803">archetype batch: Generated service-manager</text><text fill="#334155" font-family="Helvetica" font-size="14" lengthAdjust="spacing" textLength="266.1504" x="791" y="1046.7803">controllers follow the shared resolution and</text><text fill="#334155" font-family="Helvetica" font-size="14" lengthAdjust="spacing" textLength="259.9297" x="791" y="1060.7803">delete sequences with imported waits and</text><text fill="#334155" font-family="Helvetica" font-size="14" lengthAdjust="spacing" textLength="134.6064" x="791" y="1074.7803">controller-local policy.</text><text fill="#334155" font-family="Helvetica" font-size="14" lengthAdjust="spacing" textLength="109.7305" x="791" y="1088.7803">service: database</text><text fill="#334155" font-family="Helvetica" font-size="14" lengthAdjust="spacing" textLength="187.5371" x="791" y="1102.7803">slug: databasesystemversions</text><text fill="#334155" font-family="Helvetica" font-size="14" lengthAdjust="spacing" textLength="194.5371" x="791" y="1116.7803">kind: DatabaseSystemVersions</text><text fill="#334155" font-family="Helvetica" font-size="14" lengthAdjust="spacing" textLength="241.2402" x="791" y="1130.7803">archetype: generated-service-manager</text><text fill="#334155" font-family="Helvetica" font-size="14" lengthAdjust="spacing" textLength="156.4063" x="791" y="1144.7803">status/finalizer: required /</text><text fill="#334155" font-family="Helvetica" font-size="14" lengthAdjust="spacing" textLength="174.3027" x="791" y="1158.7803">retain-until-confirmed-delete</text><text fill="#334155" font-family="Helvetica" font-size="14" lengthAdjust="spacing" textLength="272.3984" x="791" y="1172.7803">requeue: provisioning, updating, terminating</text><text fill="#334155" font-family="Helvetica" font-size="14" lengthAdjust="spacing" textLength="295.6816" x="791" y="1186.7803">provider states: create PROVISIONING; update</text><text fill="#334155" font-family="Helvetica" font-size="14" lengthAdjust="spacing" textLength="192.165" x="791" y="1200.7803">UPDATING; delete DELETING</text><text fill="#334155" font-family="Helvetica" font-size="14" lengthAdjust="spacing" textLength="319.04" x="791" y="1214.7803">mutable/forceNew: display_name / compartment_id</text><text fill="#334155" font-family="Helvetica" font-size="14" lengthAdjust="spacing" textLength="104.3164" x="791" y="1228.7803">open gaps: none</text><text fill="#334155" font-family="Helvetica" font-size="14" lengthAdjust="spacing" textLength="224.9023" x="791" y="1242.7803">Scaffold metadata only; replace with</text><text fill="#334155" font-family="Helvetica" font-size="14" lengthAdjust="spacing" textLength="244.3232" x="791" y="1256.7803">controller-specific runtime states before</text><text fill="#334155" font-family="Helvetica" font-size="14" lengthAdjust="spacing" textLength="66.1445" x="791" y="1270.7803">promotion.</text><?plantuml-src fLRlRzis4FtEl-BGVMa1AqwQf4qLRC2QT5tGB2dgjPyC53HviebGf4PIzhnX__kE-cN9iRAjGv525e-FxzsxEz4_A5DmntFmAoxjHfabP5nxPBvRMN3ni7IsDFBAQklWkqpGFzcBa9ZnKeUVh0btF4Vu6VKQWnBySCnC_O5mSjPRvCxPJOD-d9syVjdVQMp0juyuPDbh-Me_oZg9hebOd9sV7h_PYuZ7D-kdfsSdv-UzzGfUM6VGmSah5bJG23FyhKGZ41AGFF05zpYzRXvcMnym_uBEAsiyMoc9a5aR5lRt7gnl4Vva05m4wmOq6xdjqhvEV8aNsJ4j4nXbL1NSXCFx-m7_1gMNYWv3gmnlbHacyiqPFrrSq6g4B0PBOY7FyQHRUcJIHSOpmVvYbJRuK2wGiXlGinuFk28YpcgDRl3wBMNu4mfhXDfVUdO_k_ymGxTM0d_XXY_HFGFkOVXgiEN-weR50W2x9dk7s9EzVTGA3YKuz5QNWRnDcrTJgVYIFFNJ-dUo2qbQcu_yUjaYIDIaTdHtlJpSYKPMXSfsoOBaXrwEKa13yIN2uJAS6zSAOxjT4MCeEeNk-RcB37numOOXSTCmDIbqu2JEAr8nDoFjCDmPiSY35DvZ6DbWYq05wEa_Qn_A8iuX7MVF6D8jnHw6Ufuf7UWvdHjXyrW6EPhmLSa9-C03lc040Ca1UJaFOXM7e8Xf4z5PK8Jiep6Cwm328Ozbv62XoAk2XzKOmQigT4GjYInQi8B0uw4VFzr_kPdTtD_TtBt_x_cB3956DvI5R2XAfxBm9CVFLUnJ71kqbkFdZzS__lhj_EWl-boNFZI5Xt8CxRgAUufUWqHLcIb7zaN7hj_TllicZfIpkHclgqx2Fkw1xeg5LlhleyBO9fCvyJDSqwVFqSl0bKbA4vHE6kRTF7ZKX7ljN-MCsfzq5iwkLMH6nange-BJt53nvtHQ_5LFFQUMgm0sWyEZhfbC_s_E_IFAeNat2zITa3cRGrWXF1gzkyzdPbris-kgxoh1yOFiRUbeiU3BIgyr4-1aKDrOYNL9KxvI-IBszX6xvLlAQk-mXdrtq6Q51Zgp69b5mwD2Fb1h4zXOzv0qXSmACgdYHiqtGs910qCZDpJEU57exH7ZJgmmR0kaUnNnYSL85mwYA8b1vKsID-Q8pdLFwhMscv4SHSLxAZniL5Y1oWlh8lQ6g-3hr7IeYRQ2Qo3EIX2pvlYqk-WmhylbxgUlUc7TzW9TS6GwyX7QgKnXsUfBzlNLBJBjKbtNTkmMcBAdUwHfWdIi1Q3V0LKCNLhguU_JTkpsn-rbC-TOEzykMxUxOPAN95NZb0fHu1rkqggeDDz-DV7IEuNXjuRc7DNHaXTqeB46sKpmZ6oKa9Eqc5HgORsz9D444kkE3EkxumiKAbC2N4m2dL3JXmKI0uogSXljF-ek3Ny3?></g></svg>