<?plantuml 1.2026.2?><svg xmlns="http://www.w3.org/2000/svg" xmlns:xlink="http://www.w3.org/1999/xlink" contentStyleType="text/css" data-diagram-type="STATE" height="597px" preserveAspectRatio="none" style="width:3585px;height:597px;background:#FCFCFD;" version="1.1" viewBox="0 0 3585 597" width="3585px" zoomAndPan="magnify"><title>State Machine - osmanagementhub/SoftwareSource</title><defs/><g><rect fill="#FCFCFD" height="597" style="stroke:none;stroke-width:1;" width="3585" x="0" y="0"/><g class="title" data-source-line="10"><text fill="#000000" font-family="Helvetica" font-size="14" font-weight="bold" lengthAdjust="spacing" textLength="345.4063" x="1612.8498" y="20.7803">State Machine - osmanagementhub/SoftwareSource</text></g><g class="entity" data-qualified-name="observe" id="ent0002"><rect fill="#F8FAFC" height="62" rx="8" ry="8" style="stroke:#0F172A;stroke-width:0.5;" width="264.3643" x="229" y="413"/><line style="stroke:#0F172A;stroke-width:0.5;" x1="229" x2="493.3643" y1="437" y2="437"/><text fill="#0F172A" font-family="Helvetica" font-size="14" lengthAdjust="spacing" textLength="52.9102" x="334.7271" y="428.7803">Observe</text><text fill="#0F172A" font-family="Helvetica" font-size="14" lengthAdjust="spacing" textLength="244.3643" x="234" y="452.7803">read spec, tracked status, delete intent,</text><text fill="#0F172A" font-family="Helvetica" font-size="14" lengthAdjust="spacing" textLength="153.2822" x="234" y="466.7803">and current OCI lifecycle</text></g><rect fill="#F8FAFC" height="40" rx="8" ry="8" style="stroke:#0F172A;stroke-width:0.5;" width="104.9512" x="1290.36" y="256"/><text fill="#0F172A" font-family="Helvetica" font-size="14" lengthAdjust="spacing" textLength="94.9512" x="1295.36" y="279.7803">EvaluateReady</text><rect fill="#F8FAFC" height="40" rx="8" ry="8" style="stroke:#0F172A;stroke-width:0.5;" width="50.4688" x="2049.32" y="256"/><text fill="#0F172A" font-family="Helvetica" font-size="14" lengthAdjust="spacing" textLength="40.4688" x="2054.32" y="279.7803">Ready</text><rect fill="#F8FAFC" height="40" rx="8" ry="8" style="stroke:#0F172A;stroke-width:0.5;" width="69.917" x="1307.88" y="391"/><text fill="#0F172A" font-family="Helvetica" font-size="14" lengthAdjust="spacing" textLength="59.917" x="1312.88" y="414.7803">Retryable</text><rect fill="#F8FAFC" height="40" rx="8" ry="8" style="stroke:#0F172A;stroke-width:0.5;" width="50" x="1317.84" y="510"/><text fill="#0F172A" font-family="Helvetica" font-size="14" lengthAdjust="spacing" textLength="38.1309" x="1323.7746" y="533.7803">Failed</text><rect fill="#F8FAFC" height="40" rx="8" ry="8" style="stroke:#0F172A;stroke-width:0.5;" width="122.8477" x="771.44" y="367"/><text fill="#0F172A" font-family="Helvetica" font-size="14" lengthAdjust="spacing" textLength="112.8477" x="776.44" y="390.7803">ResolveByLookup</text><rect fill="#F8FAFC" height="40" rx="8" ry="8" style="stroke:#0F172A;stroke-width:0.5;" width="155.5098" x="1624.56" y="346"/><text fill="#0F172A" font-family="Helvetica" font-size="14" lengthAdjust="spacing" textLength="145.5098" x="1629.56" y="369.7803">RejectUnsupportedDrift</text><rect fill="#F8FAFC" height="40" rx="8" ry="8" style="stroke:#0F172A;stroke-width:0.5;" width="90.165" x="1657.23" y="185"/><text fill="#0F172A" font-family="Helvetica" font-size="14" lengthAdjust="spacing" textLength="80.165" x="1662.23" y="208.7803">ApplyUpdate</text><rect fill="#F8FAFC" height="40" rx="8" ry="8" style="stroke:#0F172A;stroke-width:0.5;" width="101.8477" x="2391.1" y="506"/><text fill="#0F172A" font-family="Helvetica" font-size="14" lengthAdjust="spacing" textLength="91.8477" x="2396.1" y="529.7803">DeletePending</text><rect fill="#F8FAFC" height="40" rx="8" ry="8" style="stroke:#0F172A;stroke-width:0.5;" width="58.2549" x="3496.4" y="447"/><text fill="#0F172A" font-family="Helvetica" font-size="14" lengthAdjust="spacing" textLength="48.2549" x="3501.4" y="470.7803">Deleted</text><rect fill="#F8FAFC" height="40" rx="8" ry="8" style="stroke:#0F172A;stroke-width:0.5;" width="152.4268" x="3006.62" y="447"/><text fill="#0F172A" font-family="Helvetica" font-size="14" lengthAdjust="spacing" textLength="142.4268" x="3011.62" y="470.7803">DeleteCleanupBlocked</text><g class="start_entity" data-qualified-name=".start." data-source-line="32" id="ent0002"><ellipse cx="16" cy="444" fill="#222222" rx="10" ry="10" style="stroke:#222222;stroke-width:1;"/></g><g class="entity" data-qualified-name="GMN2" data-source-line="55" id="ent0003"><path d="M2265.78,49 L2265.78,261.6 L2100.1,274.66 L2265.78,269.6 L2265.78,463 A8,8 0 0 0 2273.78,471 L2610.2614,471 A8,8 0 0 0 2618.2614,463 L2618.2614,51 L2608.2614,41 L2273.78,41 A8,8 0 0 0 2265.78,49" fill="#FFF7D6" style="stroke:#B45309;stroke-width:0.5;"/><path d="M2608.2614,41 L2608.2614,47 A4,4 0 0 0 2612.2614,51 L2618.2614,51 L2608.2614,41" fill="#FFF7D6" style="stroke:#B45309;stroke-width:0.5;"/><text fill="#334155" font-family="Helvetica" font-size="14" lengthAdjust="spacing" textLength="101.165" x="2271.78" y="56.7803">shared diagram:</text><text fill="#334155" font-family="Helvetica" font-size="14" lengthAdjust="spacing" textLength="331.4814" x="2271.78" y="70.7803">shared/diagrams/shared-controller-state-machine.svg</text><text fill="#334155" font-family="Helvetica" font-size="14" lengthAdjust="spacing" textLength="304.2744" x="2271.78" y="84.7803">Start from the shared controller phase model and</text><text fill="#334155" font-family="Helvetica" font-size="14" lengthAdjust="spacing" textLength="261.4678" x="2271.78" y="98.7803">specialize imported provider states, delete</text><text fill="#334155" font-family="Helvetica" font-size="14" lengthAdjust="spacing" textLength="184.4336" x="2271.78" y="112.7803">targets, and failure exits here.</text><text fill="#334155" font-family="Helvetica" font-size="14" lengthAdjust="spacing" textLength="281.709" x="2271.78" y="126.7803">archetype batch: Generated service-manager</text><text fill="#334155" font-family="Helvetica" font-size="14" lengthAdjust="spacing" textLength="287.9229" x="2271.78" y="140.7803">controllers map provider states into the shared</text><text fill="#334155" font-family="Helvetica" font-size="14" lengthAdjust="spacing" textLength="261.4609" x="2271.78" y="154.7803">controller phases with explicit finalizer and</text><text fill="#334155" font-family="Helvetica" font-size="14" lengthAdjust="spacing" textLength="105.8477" x="2271.78" y="168.7803">requeue policies.</text><text fill="#334155" font-family="Helvetica" font-size="14" lengthAdjust="spacing" textLength="171.9854" x="2271.78" y="182.7803">service: osmanagementhub</text><text fill="#334155" font-family="Helvetica" font-size="14" lengthAdjust="spacing" textLength="128.3926" x="2271.78" y="196.7803">slug: softwaresource</text><text fill="#334155" font-family="Helvetica" font-size="14" lengthAdjust="spacing" textLength="133.0684" x="2271.78" y="210.7803">kind: SoftwareSource</text><text fill="#334155" font-family="Helvetica" font-size="14" lengthAdjust="spacing" textLength="241.2402" x="2271.78" y="224.7803">archetype: generated-service-manager</text><text fill="#334155" font-family="Helvetica" font-size="14" lengthAdjust="spacing" textLength="156.4063" x="2271.78" y="238.7803">status/finalizer: required /</text><text fill="#334155" font-family="Helvetica" font-size="14" lengthAdjust="spacing" textLength="174.3027" x="2271.78" y="252.7803">retain-until-confirmed-delete</text><text fill="#334155" font-family="Helvetica" font-size="14" lengthAdjust="spacing" textLength="272.3984" x="2271.78" y="266.7803">requeue: provisioning, updating, terminating</text><text fill="#334155" font-family="Helvetica" font-size="14" lengthAdjust="spacing" textLength="295.6816" x="2271.78" y="280.7803">provider states: create PROVISIONING; update</text><text fill="#334155" font-family="Helvetica" font-size="14" lengthAdjust="spacing" textLength="192.165" x="2271.78" y="294.7803">UPDATING; delete DELETING</text><text fill="#334155" font-family="Helvetica" font-size="14" lengthAdjust="spacing" textLength="183.6611" x="2271.78" y="308.7803">supported drift: display_name</text><text fill="#334155" font-family="Helvetica" font-size="14" lengthAdjust="spacing" textLength="230.3301" x="2271.78" y="322.7803">reject before mutate: force-new fields</text><text fill="#334155" font-family="Helvetica" font-size="14" lengthAdjust="spacing" textLength="100.3789" x="2271.78" y="336.7803">compartment_id</text><text fill="#334155" font-family="Helvetica" font-size="14" lengthAdjust="spacing" textLength="144.751" x="2271.78" y="350.7803">create-only fields: none</text><text fill="#334155" font-family="Helvetica" font-size="14" lengthAdjust="spacing" textLength="66.1445" x="2271.78" y="364.7803">list lookup:</text><text fill="#334155" font-family="Helvetica" font-size="14" lengthAdjust="spacing" textLength="315.9502" x="2271.78" y="378.7803">scaffold_osmanagementhub_softwaresource filters</text><text fill="#334155" font-family="Helvetica" font-size="14" lengthAdjust="spacing" textLength="138.5098" x="2271.78" y="392.7803">compartment_id, state</text><text fill="#334155" font-family="Helvetica" font-size="14" lengthAdjust="spacing" textLength="89.4961" x="2271.78" y="406.7803">conflicts: none</text><text fill="#334155" font-family="Helvetica" font-size="14" lengthAdjust="spacing" textLength="104.3164" x="2271.78" y="420.7803">open gaps: none</text><text fill="#334155" font-family="Helvetica" font-size="14" lengthAdjust="spacing" textLength="224.9023" x="2271.78" y="434.7803">Scaffold metadata only; replace with</text><text fill="#334155" font-family="Helvetica" font-size="14" lengthAdjust="spacing" textLength="244.3232" x="2271.78" y="448.7803">controller-specific runtime states before</text><text fill="#334155" font-family="Helvetica" font-size="14" lengthAdjust="spacing" textLength="66.1445" x="2271.78" y="462.7803">promotion.</text></g><g class="entity" data-qualified-name="GMN5" data-source-line="87" id="ent0006"><path d="M2953.27,530 L2953.27,545.15 L2493.42,528.29 L2953.27,553.15 L2953.27,580 A8,8 0 0 0 2961.27,588 L3204.3999,588 A8,8 0 0 0 3212.3999,580 L3212.3999,532 L3202.3999,522 L2961.27,522 A8,8 0 0 0 2953.27,530" fill="#FFF7D6" style="stroke:#B45309;stroke-width:0.5;"/><path d="M3202.3999,522 L3202.3999,528 A4,4 0 0 0 3206.3999,532 L3212.3999,532 L3202.3999,522" fill="#FFF7D6" style="stroke:#B45309;stroke-width:0.5;"/><text fill="#334155" font-family="Helvetica" font-size="14" lengthAdjust="spacing" textLength="136.9717" x="2959.27" y="537.7803">delete policy: required</text><text fill="#334155" font-family="Helvetica" font-size="14" lengthAdjust="spacing" textLength="238.1299" x="2959.27" y="551.7803">delete observe: GetSoftwareSource or</text><text fill="#334155" font-family="Helvetica" font-size="14" lengthAdjust="spacing" textLength="121.3926" x="2959.27" y="565.7803">ListSoftwareSource</text><text fill="#334155" font-family="Helvetica" font-size="14" lengthAdjust="spacing" textLength="157.1855" x="2959.27" y="579.7803">delete targets: DELETED</text></g><!--link *start* to observe--><g class="link" data-entity-1="ent0002" data-entity-2="ent0002" data-link-type="dependency" data-source-line="32" id="lnk3"><path d="M26.18,444 C55.28,444 142.31,444 222.81,444" fill="none" id="*start*-to-observe" style="stroke:#0F172A;stroke-width:1;"/><polygon fill="#0F172A" points="228.81,444,219.81,440,223.81,444,219.81,448,228.81,444" style="stroke:#0F172A;stroke-width:1;"/><text fill="#000000" font-family="Helvetica" font-size="14" lengthAdjust="spacing" textLength="141.627" x="57" y="439.7803">CreateSoftwareSource</text></g><!--link observe to resolve_by_lookup--><g class="link" data-entity-1="ent0002" data-entity-2="ent0007" data-link-type="dependency" data-source-line="33" id="lnk4"><path d="M493.64,428.05 C584.55,417.01 695.3337,403.5731 765.1837,395.0931" fill="none" id="observe-to-resolve_by_lookup" style="stroke:#0F172A;stroke-width:1;"/><polygon fill="#0F172A" points="771.14,394.37,761.7235,391.4838,766.1764,394.9726,762.6877,399.4255,771.14,394.37" style="stroke:#0F172A;stroke-width:1;"/><text fill="#000000" font-family="Helvetica" font-size="14" lengthAdjust="spacing" textLength="145.5029" x="524.36" y="402.8403">tracked identity missing</text></g><!--link resolve_by_lookup to evaluate_ready--><g class="link" data-entity-1="ent0007" data-entity-2="ent0003" data-link-type="dependency" data-source-line="34" id="lnk5"><path d="M894.57,375.58 C1008.1,354.19 1242.77,309.79 1260.36,305 C1270.07,302.36 1274.6038,301.0543 1284.3838,297.7043" fill="none" id="resolve_by_lookup-to-evaluate_ready" style="stroke:#0F172A;stroke-width:1;"/><polygon fill="#0F172A" points="1290.06,295.76,1280.2494,294.8923,1285.3298,297.3803,1282.8419,302.4606,1290.06,295.76" style="stroke:#0F172A;stroke-width:1;"/><text fill="#000000" font-family="Helvetica" font-size="14" lengthAdjust="spacing" textLength="154.0889" x="1050.86" y="286.7803">lookup or create reaches</text><text fill="#000000" font-family="Helvetica" font-size="14" lengthAdjust="spacing" textLength="50.5654" x="1102.6217" y="300.7803">ACTIVE</text></g><!--link resolve_by_lookup to retryable--><g class="link" data-entity-1="ent0007" data-entity-2="ent0005" data-link-type="dependency" data-source-line="35" id="lnk6"><path d="M894.63,389.87 C1002.21,394.95 1216.8067,405.0973 1301.5967,409.0973" fill="none" id="resolve_by_lookup-to-retryable" style="stroke:#0F172A;stroke-width:1;"/><polygon fill="#0F172A" points="1307.59,409.38,1298.7885,404.9603,1302.5956,409.1444,1298.4115,412.9514,1307.59,409.38" style="stroke:#0F172A;stroke-width:1;"/><text fill="#000000" font-family="Helvetica" font-size="14" lengthAdjust="spacing" textLength="184.3789" x="1035.86" y="376.5403">OCI state in PROVISIONING,</text><text fill="#000000" font-family="Helvetica" font-size="14" lengthAdjust="spacing" textLength="150.1309" x="1052.984" y="390.5403">UPDATING, DELETING</text></g><!--link resolve_by_lookup to failed--><g class="link" data-entity-1="ent0007" data-entity-2="ent0006" data-link-type="dependency" data-source-line="36" id="lnk7"><path d="M894.63,404.11 C1006.69,435.65 1235.5847,500.0834 1311.6747,521.5134" fill="none" id="resolve_by_lookup-to-failed" style="stroke:#0F172A;stroke-width:1;"/><polygon fill="#0F172A" points="1317.45,523.14,1309.8714,516.8499,1312.6372,521.7845,1307.7026,524.5504,1317.45,523.14" style="stroke:#0F172A;stroke-width:1;"/><text fill="#000000" font-family="Helvetica" font-size="14" lengthAdjust="spacing" textLength="263.7783" x="996.36" y="429.0303">unresolved OCI error or non-success state</text></g><!--link observe to evaluate_ready--><g class="link" data-entity-1="ent0002" data-entity-2="ent0003" data-link-type="dependency" data-source-line="37" id="lnk8"><path d="M438.96,412.64 C465.45,402.43 495.47,391.55 523.36,383 C729.5,319.82 781.22,296.06 995.36,271 C1099.33,258.83 1216.0497,265.0341 1283.9897,270.5541" fill="none" id="observe-to-evaluate_ready" style="stroke:#0F172A;stroke-width:1;"/><polygon fill="#0F172A" points="1289.97,271.04,1281.3235,266.3243,1284.9864,270.6351,1280.6756,274.298,1289.97,271.04" style="stroke:#0F172A;stroke-width:1;"/><text fill="#000000" font-family="Helvetica" font-size="14" lengthAdjust="spacing" textLength="128.3721" x="768.86" y="270.9503">OCI state in ACTIVE</text></g><!--link observe to retryable--><g class="link" data-entity-1="ent0002" data-entity-2="ent0005" data-link-type="dependency" data-source-line="38" id="lnk9"><path d="M493.47,448.33 C556.11,450.38 632.11,452.85 700.36,455 C949.16,462.84 1021.72,534.79 1260.36,464 C1271.77,460.62 1290.445,448.3638 1309.305,434.9138" fill="none" id="observe-to-retryable" style="stroke:#0F172A;stroke-width:1;"/><polygon fill="#0F172A" points="1314.19,431.43,1304.54,433.3989,1310.1191,434.3331,1309.185,439.9123,1314.19,431.43" style="stroke:#0F172A;stroke-width:1;"/><text fill="#000000" font-family="Helvetica" font-size="14" lengthAdjust="spacing" textLength="184.3789" x="740.86" y="436.7803">OCI state in PROVISIONING,</text><text fill="#000000" font-family="Helvetica" font-size="14" lengthAdjust="spacing" textLength="150.1309" x="757.984" y="450.7803">UPDATING, DELETING</text></g><!--link observe to failed--><g class="link" data-entity-1="ent0002" data-entity-2="ent0006" data-link-type="dependency" data-source-line="39" id="lnk10"><path d="M493.52,474.76 C555.83,488.03 631.56,502.26 700.36,510 C939.8,536.92 1226.4516,532.7695 1311.5616,530.7895" fill="none" id="observe-to-failed" style="stroke:#0F172A;stroke-width:1;"/><polygon fill="#0F172A" points="1317.56,530.65,1308.4694,526.8604,1312.5614,530.7663,1308.6555,534.8582,1317.56,530.65" style="stroke:#0F172A;stroke-width:1;"/><text fill="#000000" font-family="Helvetica" font-size="14" lengthAdjust="spacing" textLength="263.7783" x="701.36" y="505.7803">unresolved OCI error or non-success state</text></g><!--link evaluate_ready to reject_unsupported_drift--><g class="link" data-entity-1="ent0003" data-entity-2="ent0008" data-link-type="dependency" data-source-line="40" id="lnk11"><path d="M1367.06,296.48 C1382.49,308.89 1403.81,323.85 1425.32,332 C1489.53,356.35 1561.6042,363.9058 1618.3042,366.0258" fill="none" id="evaluate_ready-to-reject_unsupported_drift" style="stroke:#0F172A;stroke-width:1;"/><polygon fill="#0F172A" points="1624.3,366.25,1615.4557,361.9165,1619.3035,366.0632,1615.1568,369.9109,1624.3,366.25" style="stroke:#0F172A;stroke-width:1;"/><text fill="#000000" font-family="Helvetica" font-size="14" lengthAdjust="spacing" textLength="143.9512" x="1436.32" y="313.7803">force-new or conflicting</text><text fill="#000000" font-family="Helvetica" font-size="14" lengthAdjust="spacing" textLength="80.9375" x="1467.8268" y="327.7803">drift detected</text></g><!--link reject_unsupported_drift to ready--><g class="link" data-entity-1="ent0008" data-entity-2="ent0004" data-link-type="dependency" data-source-line="41" id="lnk12"><path d="M1780.32,365.06 C1846.2,361.77 1942.3,351 2019.32,318 C2031.36,312.84 2038.4802,308.2363 2047.9202,300.2463" fill="none" id="reject_unsupported_drift-to-ready" style="stroke:#0F172A;stroke-width:1;"/><polygon fill="#0F172A" points="2052.5,296.37,2043.0461,299.1313,2048.6835,299.6003,2048.2146,305.2376,2052.5,296.37" style="stroke:#0F172A;stroke-width:1;"/><text fill="#000000" font-family="Helvetica" font-size="14" lengthAdjust="spacing" textLength="203.8818" x="1815.32" y="313.7803">wait for spec or live state change</text></g><!--link evaluate_ready to apply_update--><g class="link" data-entity-1="ent0003" data-entity-2="ent0009" data-link-type="dependency" data-source-line="42" id="lnk13"><path d="M1395.72,258.96 C1405.49,256.07 1415.67,253.27 1425.32,251 C1506.17,231.95 1596.2022,218.6097 1651.0322,211.3297" fill="none" id="evaluate_ready-to-apply_update" style="stroke:#0F172A;stroke-width:1;"/><polygon fill="#0F172A" points="1656.98,210.54,1647.5318,207.7594,1652.0235,211.1981,1648.5848,215.6898,1656.98,210.54" style="stroke:#0F172A;stroke-width:1;"/><text fill="#000000" font-family="Helvetica" font-size="14" lengthAdjust="spacing" textLength="163.4199" x="1426.32" y="202.0903">supported mutable drift for</text><text fill="#000000" font-family="Helvetica" font-size="14" lengthAdjust="spacing" textLength="86.3857" x="1464.8371" y="216.0903">display_name</text></g><!--link apply_update to ready--><g class="link" data-entity-1="ent0009" data-entity-2="ent0004" data-link-type="dependency" data-source-line="43" id="lnk14"><path d="M1747.88,207.45 C1809.86,211.76 1925.1,223.07 2019.32,251 C2029.36,253.98 2034.5025,255.9001 2043.6125,260.2801" fill="none" id="apply_update-to-ready" style="stroke:#0F172A;stroke-width:1;"/><polygon fill="#0F172A" points="2049.02,262.88,2042.642,255.3752,2044.5138,260.7135,2039.1756,262.5852,2049.02,262.88" style="stroke:#0F172A;stroke-width:1;"/><text fill="#000000" font-family="Helvetica" font-size="14" lengthAdjust="spacing" textLength="141.6543" x="1846.32" y="209.4503">update path completes</text></g><!--link evaluate_ready to ready--><g class="link" data-entity-1="ent0003" data-entity-2="ent0004" data-link-type="dependency" data-source-line="44" id="lnk15"><path d="M1395.73,276 C1540.46,276 1938.77,276 2042.86,276" fill="none" id="evaluate_ready-to-ready" style="stroke:#0F172A;stroke-width:1;"/><polygon fill="#0F172A" points="2048.86,276,2039.86,272,2043.86,276,2039.86,280,2048.86,276" style="stroke:#0F172A;stroke-width:1;"/><text fill="#000000" font-family="Helvetica" font-size="14" lengthAdjust="spacing" textLength="162.6406" x="1621.32" y="271.7803">no supported drift remains</text></g><!--link ready to ready--><g class="link" data-entity-1="ent0004" data-entity-2="ent0004" data-link-type="dependency" data-source-line="45" id="lnk16"><path d="M2057.35,255.69 C2050,238.73 2055.74,221 2074.55,221 C2093.36,221 2101.4858,233.2247 2094.1358,250.1847" fill="none" id="ready-to-ready" style="stroke:#0F172A;stroke-width:1;"/><polygon fill="#0F172A" points="2091.75,255.69,2098.9989,249.0227,2093.7382,251.1023,2091.6586,245.8416,2091.75,255.69" style="stroke:#0F172A;stroke-width:1;"/><text fill="#000000" font-family="Helvetica" font-size="14" lengthAdjust="spacing" textLength="162.6406" x="1993.55" y="211.7803">no supported drift remains</text></g><!--link retryable to retryable--><g class="link" data-entity-1="ent0005" data-entity-2="ent0005" data-link-type="dependency" data-source-line="46" id="lnk17"><path d="M1316.63,390.69 C1305.42,373.73 1314.16,356 1342.84,356 C1371.52,356 1383.5564,368.7232 1372.3564,385.6832" fill="none" id="retryable-to-retryable" style="stroke:#0F172A;stroke-width:1;"/><polygon fill="#0F172A" points="1369.05,390.69,1377.3474,385.3841,1371.8053,386.5177,1370.6717,380.9756,1369.05,390.69" style="stroke:#0F172A;stroke-width:1;"/><text fill="#000000" font-family="Helvetica" font-size="14" lengthAdjust="spacing" textLength="136.9307" x="1274.84" y="346.7803">OCI remains retryable</text></g><!--link failed to failed--><g class="link" data-entity-1="ent0006" data-entity-2="ent0006" data-link-type="dependency" data-source-line="47" id="lnk18"><path d="M1317.41,510.83 C1305.04,493.53 1313.52,475 1342.84,475 C1372.16,475 1384.1298,488.6493 1371.7598,505.9493" fill="none" id="failed-to-failed" style="stroke:#0F172A;stroke-width:1;"/><polygon fill="#0F172A" points="1368.27,510.83,1376.7585,505.8355,1371.1782,506.7628,1370.251,501.1824,1368.27,510.83" style="stroke:#0F172A;stroke-width:1;"/><text fill="#000000" font-family="Helvetica" font-size="14" lengthAdjust="spacing" textLength="132.2549" x="1276.84" y="465.7803">OCI remains terminal</text></g><!--link ready to delete_pending--><g class="link" data-entity-1="ent0004" data-entity-2="ent0010" data-link-type="dependency" data-source-line="48" id="lnk19"><path d="M2100.21,291.65 C2134.75,314.67 2197.57,360.76 2235.78,414 C2256.48,442.83 2238.63,465.15 2265.78,488 C2300.44,517.17 2346.316,525.181 2384.636,526.901" fill="none" id="ready-to-delete_pending" style="stroke:#0F172A;stroke-width:1;"/><polygon fill="#0F172A" points="2390.63,527.17,2381.8184,522.7705,2385.635,526.9458,2381.4597,530.7624,2390.63,527.17" style="stroke:#0F172A;stroke-width:1;"/><text fill="#000000" font-family="Helvetica" font-size="14" lengthAdjust="spacing" textLength="104.3027" x="2130.78" y="309.2003">delete requested</text></g><!--link retryable to delete_pending--><g class="link" data-entity-1="ent0005" data-entity-2="ent0010" data-link-type="dependency" data-source-line="49" id="lnk20"><path d="M1377.89,414.18 C1496.39,425.3 1901.67,463.8 2235.78,501 C2288.76,506.9 2343.387,513.6203 2384.917,518.8503" fill="none" id="retryable-to-delete_pending" style="stroke:#0F172A;stroke-width:1;"/><polygon fill="#0F172A" points="2390.87,519.6,2382.4403,514.5068,2385.9092,518.9753,2381.4407,522.4441,2390.87,519.6" style="stroke:#0F172A;stroke-width:1;"/><text fill="#000000" font-family="Helvetica" font-size="14" lengthAdjust="spacing" textLength="104.3027" x="1864.82" y="453.2403">delete requested</text></g><!--link failed to delete_pending--><g class="link" data-entity-1="ent0006" data-entity-2="ent0010" data-link-type="dependency" data-source-line="50" id="lnk21"><path d="M1368.29,529.91 C1507.18,529.4 2191.3,526.912 2384.62,526.202" fill="none" id="failed-to-delete_pending" style="stroke:#0F172A;stroke-width:1;"/><polygon fill="#0F172A" points="2390.62,526.18,2381.6054,522.2131,2385.62,526.1984,2381.6348,530.213,2390.62,526.18" style="stroke:#0F172A;stroke-width:1;"/><text fill="#000000" font-family="Helvetica" font-size="14" lengthAdjust="spacing" textLength="104.3027" x="1864.82" y="523.3203">delete requested</text></g><!--link delete_pending to delete_cleanup_blocked--><g class="link" data-entity-1="ent0010" data-entity-2="ent0012" data-link-type="dependency" data-source-line="51" id="lnk22"><path d="M2493.42,521.35 C2605.15,511.03 2868.2255,486.7322 3000.2355,474.5322" fill="none" id="delete_pending-to-delete_cleanup_blocked" style="stroke:#0F172A;stroke-width:1;"/><polygon fill="#0F172A" points="3006.21,473.98,2996.8801,470.8252,3001.2312,474.4401,2997.6163,478.7913,3006.21,473.98" style="stroke:#0F172A;stroke-width:1;"/><text fill="#000000" font-family="Helvetica" font-size="14" lengthAdjust="spacing" textLength="273.1436" x="2649.27" y="478.6003">cleanup or finalizer release remains blocked</text></g><!--link delete_cleanup_blocked to deleted--><g class="link" data-entity-1="ent0012" data-entity-2="ent0011" data-link-type="dependency" data-source-line="52" id="lnk23"><path d="M3159.34,467 C3258.71,467 3422.63,467 3489.9,467" fill="none" id="delete_cleanup_blocked-to-deleted" style="stroke:#0F172A;stroke-width:1;"/><polygon fill="#0F172A" points="3495.9,467,3486.9,463,3490.9,467,3486.9,471,3495.9,467" style="stroke:#0F172A;stroke-width:1;"/><text fill="#000000" font-family="Helvetica" font-size="14" lengthAdjust="spacing" textLength="222.5645" x="3243.4" y="462.7803">retry delete completion until allowed</text></g><!--link deleted to deleted--><g class="link" data-entity-1="ent0011" data-entity-2="ent0011" data-link-type="dependency" data-source-line="53" id="lnk24"><path d="M3498.33,446.69 C3486.71,429.73 3495.78,412 3525.52,412 C3555.27,412 3567.7212,424.7803 3556.1012,441.7403" fill="none" id="deleted-to-deleted" style="stroke:#0F172A;stroke-width:1;"/><polygon fill="#0F172A" points="3552.71,446.69,3561.0967,441.5263,3555.536,442.5653,3554.4971,437.0046,3552.71,446.69" style="stroke:#0F172A;stroke-width:1;"/><text fill="#000000" font-family="Helvetica" font-size="14" lengthAdjust="spacing" textLength="92.5859" x="3479.52" y="402.7803">terminal stutter</text></g><?plantuml-src dLPBRzms4BxpLmpIM-6ruzfEqZLGmA-a1bpRyCQvrCM2AuvMh2bI9IbljaN_UuSFQRMoZQ21BkBCS9xVpD0zIjrmosjm5HTc9VKIIguSCjTp5hnuN5hJQd5cbB7mGrdG9mOI0alUAl_HQ7_DQuHVKJsXbmL_MMOc_qROFnmmkRLcbRM_BVVV_pIygOt7qsS-bELxyMuiPQn0coKMXqS7RtyUIGJpcNzmSBX_T3JWH_M5iHejxBzZNdg5CFFS8_p6YqfgX0aOLtFDbrYZzbMxs9kPqg-unPbfRJ7CceiN_s7mGlu-bBmi0cVeRuuReDpusDD8c-s8--8GnGSYOgyno_tB59OUl04hbvK78IqMNXhDAYaGi6xycWhX2YkRI4vElhbPEBHF-0Qu0vF-EzR54rSj_TqX5-ieW9aoju7KoMtu8xAtQxvGc5dvrB4_SgbGH5uPVras3zEe1ro3nGvuIob44NFQkXqAGI5TbzfJ5NOUDDS2YjPQEi7DsIKeMMAnBZPsxj0PWkJf-igOnxR9paJQVB6UgqZT2Fz9MRlNhcqQOpsASojBd-y4rhpTyEOYCBkh9qsZrlUDe4EKv-4yRoEXapcFpjzIyQZPebGAPzuaqhQS64Y8RTQPGgxRvbIPa9oXfY9nvel4Oh__-0TC9h_09hbdb5sF8_1sx23wB3jqgIi3OKbJTwoXbiu5ZvyB1nNRGA7xcKU0BQBvKEAYGlUWJyu-NtwvU4LFZnfI4QgRaY0rtDxTVBcSNTvSNrv_8XJStvwVV0w_S7vnTH7-Nb6Oe4RQMfq5H5ICD8LiS4yRFN5jKQ1poTfMQfx5jULK3cKxbzyTm53DTxWzSZKvypA4IMzf20KJZQjO8gDB9MbwwEM3JXA2i5K46Bwg8nb8MLbnwOFAsCD1ev8KI8gzgBXUlkZUi6D8IMy0wjR752P3f9UyagvHV3tNj7FOriMX7vdKS5zHK7KJEiIzd9bqGPk1sMJEOisbTkn_2dTbVma4MMem4tDzjqezbFHeQwcv6dYnFJb8Faz6Yt-rw5AfXavyMtxWnBU5HnA3IwC9H9Sp9G2X357G6y2IAg8wx4Fi1jOhMZO6H5mG55hdLAuiBJLg3oyLSANCgbSrljlbal3OUZgmy3Z8MzEKtGwhQ3PILILVqaQVvlDUFhkzT9vGftXhb48xYUYUrEcriEkUbcmM5ZUKrjJWAuIiSdC5cYeae3Ra6z0UOw5RP4mFo3hZgh7cYOQkJTtJBq16kfVewHmMOAXSQsdBVvNUGOKMTnctD5_zka5wXFYYci8dfDSD3ph3N955S3OyPopRkEIWvitOPbYsPX026uVWO2Mfm_1hGrCZT7vVv11Ln4nBNMW25zqko_QdunSLSwfTKkFdrUJIQg9dbPZ2Q5_rqKrXsSKr6SULtWnxlJlJY5yPgh0NkeDmDuc82NKifQr9HqvlTdgQSk48MuJodJHGubz6KJYmKRwctOuRplZZF8nOD-cFE_Zs0tyqJAZfXaCk3LvO8Cq_Z2FHut1kbnALS2mq0y4kP7GkgLJHaudHQfqbmjpIo9HqFczbGdV1oz8eCHyLPBvT2jAWAEwnaPsySRgrqPamD1nWoPlkFCjMeARKKouu1BUEgIWK9MaF86B3ZWhjKCe2R2XIZHqSKmf2rciJkdwNqH2AJ_nHAuyULpdV4OVh3HOwUjwteL7yDjfeSB4hojS8W_bUxiHfAkJ5UU_DVm00?></g></svg>