<?plantuml 1.2026.1?><svg xmlns="http://www.w3.org/2000/svg" xmlns:xlink="http://www.w3.org/1999/xlink" contentStyleType="text/css" data-diagram-type="ACTIVITY" height="2229px" preserveAspectRatio="none" style="width:1252px;height:2229px;background:#FCFCFD;" version="1.1" viewBox="0 0 1252 2229" width="1252px" zoomAndPan="magnify"><title>Activity - generativeai/GenerativeAiImportedModels</title><defs/><g><rect fill="#FCFCFD" height="2229" style="stroke:none;stroke-width:1;" width="1252" x="0" y="0"/><g class="title" data-source-line="10"><text fill="#000000" font-family="Helvetica" font-size="14" font-weight="bold" lengthAdjust="spacing" textLength="343.1025" x="453.1606" y="30.7803">Activity - generativeai/GenerativeAiImportedModels</text></g><ellipse cx="665.5897" cy="55" fill="#1D4ED8" rx="10" ry="10" style="stroke:#222222;stroke-width:1;"/><rect fill="none" height="458" rx="8" ry="8" style="stroke:#000000;stroke-width:1.5;" width="604.9443" x="382.1864" y="75"/><path d="M504.2548,75 L504.2548,82 L494.2548,92 L382.1864,92" fill="none" style="stroke:#000000;stroke-width:1.5;"/><text fill="#000000" font-family="Helvetica" font-size="14" lengthAdjust="spacing" textLength="112.0684" x="385.1864" y="86.7803">Observe and Bind</text><rect fill="#F8FAFC" height="48" rx="8" ry="8" style="stroke:#0F172A;stroke-width:0.5;" width="304.7852" x="513.1971" y="109"/><text fill="#0F172A" font-family="Helvetica" font-size="14" lengthAdjust="spacing" textLength="136.9375" x="523.1971" y="129.7803">Start from shared flow</text><text fill="#0F172A" font-family="Helvetica" font-size="14" lengthAdjust="spacing" textLength="284.7852" x="523.1971" y="143.7803">shared/diagrams/shared-reconcile-activity.svg</text><rect fill="#F8FAFC" height="48" rx="8" ry="8" style="stroke:#0F172A;stroke-width:0.5;" width="325.8262" x="502.6766" y="177"/><text fill="#0F172A" font-family="Helvetica" font-size="14" lengthAdjust="spacing" textLength="305.8262" x="512.6766" y="197.7803">Read desired GenerativeAiImportedModels spec,</text><text fill="#0F172A" font-family="Helvetica" font-size="14" lengthAdjust="spacing" textLength="198.4609" x="512.6766" y="211.7803">tracked status, and delete intent</text><polygon fill="#E2E8F0" points="536.1239,245,795.0555,245,807.0555,257,795.0555,269,536.1239,269,524.1239,257,536.1239,245" style="stroke:#1D4ED8;stroke-width:0.5;"/><text fill="#0F172A" font-family="Helvetica" font-size="14" lengthAdjust="spacing" textLength="258.9316" x="536.1239" y="260.7803">"Tracked or explicit OCI identity present?"</text><text fill="#000000" font-family="Helvetica" font-size="14" lengthAdjust="spacing" textLength="21.7861" x="502.3378" y="253.7803">yes</text><text fill="#000000" font-family="Helvetica" font-size="14" lengthAdjust="spacing" textLength="15.5723" x="807.0555" y="253.7803">no</text><rect fill="#F8FAFC" height="48" rx="8" ry="8" style="stroke:#0F172A;stroke-width:0.5;" width="223.875" x="402.1864" y="279"/><text fill="#0F172A" font-family="Helvetica" font-size="14" lengthAdjust="spacing" textLength="202.3027" x="412.1864" y="299.7803">Get the current OCI resource via</text><text fill="#0F172A" font-family="Helvetica" font-size="14" lengthAdjust="spacing" textLength="203.875" x="412.1864" y="313.7803">GetGenerativeAiImportedModels</text><rect fill="#F8FAFC" height="62" rx="8" ry="8" style="stroke:#0F172A;stroke-width:0.5;" width="297.792" x="668.1595" y="279"/><text fill="#0F172A" font-family="Helvetica" font-size="14" lengthAdjust="spacing" textLength="259.9092" x="678.1595" y="299.7803">Resolve an existing OCI resource through</text><text fill="#0F172A" font-family="Helvetica" font-size="14" lengthAdjust="spacing" textLength="277.792" x="678.1595" y="313.7803">ListGenerativeAiImportedModels using filters</text><text fill="#0F172A" font-family="Helvetica" font-size="14" lengthAdjust="spacing" textLength="138.5098" x="678.1595" y="327.7803">compartment_id, state</text><rect fill="#F8FAFC" height="62" rx="8" ry="8" style="stroke:#0F172A;stroke-width:0.5;" width="300.1504" x="666.9803" y="361"/><text fill="#0F172A" font-family="Helvetica" font-size="14" lengthAdjust="spacing" textLength="174.2959" x="676.9803" y="381.7803">Create the OCI resource via</text><text fill="#0F172A" font-family="Helvetica" font-size="14" lengthAdjust="spacing" textLength="280.1504" x="676.9803" y="395.7803">CreateGenerativeAiImportedModels when no</text><text fill="#0F172A" font-family="Helvetica" font-size="14" lengthAdjust="spacing" textLength="148.6406" x="676.9803" y="409.7803">reusable match is found</text><rect fill="#F8FAFC" height="48" rx="8" ry="8" style="stroke:#0F172A;stroke-width:0.5;" width="286.8955" x="673.6078" y="443"/><text fill="#0F172A" font-family="Helvetica" font-size="14" lengthAdjust="spacing" textLength="266.8955" x="683.6078" y="463.7803">Persist the resolved or created OCI identity</text><text fill="#0F172A" font-family="Helvetica" font-size="14" lengthAdjust="spacing" textLength="63.8135" x="683.6078" y="477.7803">into status</text><polygon fill="#E2E8F0" points="665.5897,497,677.5897,509,665.5897,521,653.5897,509,665.5897,497" style="stroke:#1D4ED8;stroke-width:0.5;"/><polygon fill="#E2E8F0" points="603.4135,553,727.766,553,739.766,565,727.766,577,603.4135,577,591.4135,565,603.4135,553" style="stroke:#1D4ED8;stroke-width:0.5;"/><text fill="#0F172A" font-family="Helvetica" font-size="14" lengthAdjust="spacing" textLength="124.3525" x="603.4135" y="568.7803">"Delete requested?"</text><text fill="#000000" font-family="Helvetica" font-size="14" lengthAdjust="spacing" textLength="21.7861" x="569.6273" y="561.7803">yes</text><text fill="#000000" font-family="Helvetica" font-size="14" lengthAdjust="spacing" textLength="15.5723" x="739.766" y="561.7803">no</text><rect fill="none" height="395.5" rx="8" ry="8" style="stroke:#000000;stroke-width:1.5;" width="644.4814" x="11" y="587"/><path d="M61.4688,587 L61.4688,594 L51.4688,604 L11,604" fill="none" style="stroke:#000000;stroke-width:1.5;"/><text fill="#000000" font-family="Helvetica" font-size="14" lengthAdjust="spacing" textLength="40.4688" x="14" y="598.7803">Delete</text><rect fill="#F8FAFC" height="90" rx="8" ry="8" style="stroke:#0F172A;stroke-width:0.5;" width="325.8193" x="176.8345" y="621"/><text fill="#0F172A" font-family="Helvetica" font-size="14" lengthAdjust="spacing" textLength="105.0684" x="186.8345" y="641.7803">Delete path uses</text><text fill="#0F172A" font-family="Helvetica" font-size="14" lengthAdjust="spacing" textLength="305.8193" x="186.8345" y="655.7803">DeleteGenerativeAiImportedModels with required</text><text fill="#0F172A" font-family="Helvetica" font-size="14" lengthAdjust="spacing" textLength="241.999" x="186.8345" y="669.7803">via GetGenerativeAiImportedModels or</text><text fill="#0F172A" font-family="Helvetica" font-size="14" lengthAdjust="spacing" textLength="287.123" x="186.8345" y="683.7803">ListGenerativeAiImportedModels to DELETED</text><text fill="#0F172A" font-family="Helvetica" font-size="14" lengthAdjust="spacing" textLength="76.2549" x="186.8345" y="697.7803">confirmation</text><rect fill="#F8FAFC" height="76" rx="8" ry="8" style="stroke:#0F172A;stroke-width:0.5;" width="281.4473" x="199.0205" y="739.5"/><text fill="#0F172A" font-family="Helvetica" font-size="14" lengthAdjust="spacing" textLength="123.7236" x="209.0205" y="760.2803">Confirm deletion via</text><text fill="#0F172A" font-family="Helvetica" font-size="14" lengthAdjust="spacing" textLength="220.2129" x="209.0205" y="774.2803">GetGenerativeAiImportedModels or</text><text fill="#0F172A" font-family="Helvetica" font-size="14" lengthAdjust="spacing" textLength="261.4473" x="209.0205" y="788.2803">ListGenerativeAiImportedModels until OCI</text><text fill="#0F172A" font-family="Helvetica" font-size="14" lengthAdjust="spacing" textLength="118.2686" x="209.0205" y="802.2803">reaches DELETED</text><polygon fill="#E2E8F0" points="191.5718,850.5,487.9165,850.5,499.9165,862.5,487.9165,874.5,191.5718,874.5,179.5718,862.5,191.5718,850.5" style="stroke:#1D4ED8;stroke-width:0.5;"/><text fill="#0F172A" font-family="Helvetica" font-size="14" lengthAdjust="spacing" textLength="296.3447" x="191.5718" y="866.2803">"Delete cleanup and finalizer release succeed?"</text><text fill="#000000" font-family="Helvetica" font-size="14" lengthAdjust="spacing" textLength="21.7861" x="157.7856" y="859.2803">yes</text><text fill="#000000" font-family="Helvetica" font-size="14" lengthAdjust="spacing" textLength="15.5723" x="499.9165" y="859.2803">no</text><rect fill="#F8FAFC" height="34" rx="8" ry="8" style="stroke:#0F172A;stroke-width:0.5;" width="293.1436" x="23" y="884.5"/><text fill="#0F172A" font-family="Helvetica" font-size="14" lengthAdjust="spacing" textLength="273.1436" x="33" y="905.2803">Remove the finalizer after delete completion</text><rect fill="#F8FAFC" height="48" rx="8" ry="8" style="stroke:#0F172A;stroke-width:0.5;" width="251.1299" x="384.3516" y="884.5"/><text fill="#0F172A" font-family="Helvetica" font-size="14" lengthAdjust="spacing" textLength="231.1299" x="394.3516" y="905.2803">Stay blocked until cleanup or finalizer</text><text fill="#0F172A" font-family="Helvetica" font-size="14" lengthAdjust="spacing" textLength="108.9512" x="394.3516" y="919.2803">release succeeds</text><polygon fill="#E2E8F0" points="339.7441,938.5,351.7441,950.5,339.7441,962.5,327.7441,950.5,339.7441,938.5" style="stroke:#1D4ED8;stroke-width:0.5;"/><ellipse cx="339.7441" cy="1019.5" fill="none" rx="11" ry="11" style="stroke:#222222;stroke-width:1;"/><ellipse cx="339.7441" cy="1019.5" fill="#222222" rx="6" ry="6" style="stroke:#222222;stroke-width:1;"/><rect fill="none" height="443.5" rx="8" ry="8" style="stroke:#000000;stroke-width:1.5;" width="345.916" x="824.4773" y="587"/><path d="M975.3113,587 L975.3113,594 L965.3113,604 L824.4773,604" fill="none" style="stroke:#000000;stroke-width:1.5;"/><text fill="#000000" font-family="Helvetica" font-size="14" lengthAdjust="spacing" textLength="140.834" x="827.4773" y="598.7803">Lifecycle Classification</text><rect fill="#F8FAFC" height="48" rx="8" ry="8" style="stroke:#0F172A;stroke-width:0.5;" width="280.5928" x="851.1389" y="670"/><text fill="#0F172A" font-family="Helvetica" font-size="14" lengthAdjust="spacing" textLength="240.4541" x="861.1389" y="690.7803">Request requeue while OCI remains in</text><text fill="#0F172A" font-family="Helvetica" font-size="14" lengthAdjust="spacing" textLength="260.5928" x="861.1389" y="704.7803">PROVISIONING, UPDATING, DELETING</text><ellipse cx="991.4353" cy="757.5" fill="none" rx="11" ry="11" style="stroke:#222222;stroke-width:1;"/><ellipse cx="991.4353" cy="757.5" fill="#222222" rx="6" ry="6" style="stroke:#222222;stroke-width:1;"/><polygon fill="#E2E8F0" points="905.1521,621,1077.7185,621,1089.7185,633,1077.7185,645,905.1521,645,893.1521,633,905.1521,621" style="stroke:#1D4ED8;stroke-width:0.5;"/><text fill="#000000" font-family="Helvetica" font-size="14" lengthAdjust="spacing" textLength="21.7861" x="995.4353" y="655.7803">yes</text><text fill="#0F172A" font-family="Helvetica" font-size="14" lengthAdjust="spacing" textLength="172.5664" x="905.1521" y="636.7803">"OCI state in retryable set?"</text><rect fill="#F8FAFC" height="48" rx="8" ry="8" style="stroke:#0F172A;stroke-width:0.5;" width="293.916" x="844.4773" y="883.5"/><text fill="#0F172A" font-family="Helvetica" font-size="14" lengthAdjust="spacing" textLength="273.916" x="854.4773" y="904.2803">Return an unsuccessful reconcile result until</text><text fill="#0F172A" font-family="Helvetica" font-size="14" lengthAdjust="spacing" textLength="133.041" x="854.4773" y="918.2803">OCI reaches ACTIVE</text><ellipse cx="991.4353" cy="977.5" fill="none" rx="11" ry="11" style="stroke:#222222;stroke-width:1;"/><ellipse cx="991.4353" cy="977.5" fill="#222222" rx="6" ry="6" style="stroke:#222222;stroke-width:1;"/><polygon fill="#E2E8F0" points="870.9143,834.5,1111.9563,834.5,1123.9563,846.5,1111.9563,858.5,870.9143,858.5,858.9143,846.5,870.9143,834.5" style="stroke:#1D4ED8;stroke-width:0.5;"/><text fill="#000000" font-family="Helvetica" font-size="14" lengthAdjust="spacing" textLength="21.7861" x="995.4353" y="869.2803">yes</text><text fill="#0F172A" font-family="Helvetica" font-size="14" lengthAdjust="spacing" textLength="241.042" x="870.9143" y="850.2803">"OCI state is outside success targets?"</text><rect fill="none" height="722.5" rx="8" ry="8" style="stroke:#000000;stroke-width:1.5;" width="565.9424" x="675.4814" y="1040.5"/><path d="M841.9014,1040.5 L841.9014,1047.5 L831.9014,1057.5 L675.4814,1057.5" fill="none" style="stroke:#000000;stroke-width:1.5;"/><text fill="#000000" font-family="Helvetica" font-size="14" lengthAdjust="spacing" textLength="156.4199" x="678.4814" y="1052.2803">Ready and Drift Handling</text><rect fill="#F8FAFC" height="48" rx="8" ry="8" style="stroke:#0F172A;stroke-width:0.5;" width="296.2402" x="843.3152" y="1074.5"/><text fill="#0F172A" font-family="Helvetica" font-size="14" lengthAdjust="spacing" textLength="276.2402" x="853.3152" y="1095.2803">Compare live OCI state against the imported</text><text fill="#0F172A" font-family="Helvetica" font-size="14" lengthAdjust="spacing" textLength="75.4824" x="853.3152" y="1109.2803">field surface</text><rect fill="#F8FAFC" height="48" rx="8" ry="8" style="stroke:#0F172A;stroke-width:0.5;" width="302.4473" x="840.2117" y="1191.5"/><text fill="#0F172A" font-family="Helvetica" font-size="14" lengthAdjust="spacing" textLength="282.4473" x="850.2117" y="1212.2803">Reject drift before OCI mutation for force-new</text><text fill="#0F172A" font-family="Helvetica" font-size="14" lengthAdjust="spacing" textLength="136.9512" x="850.2117" y="1226.2803">fields compartment_id</text><ellipse cx="991.4353" cy="1272" fill="none" rx="11" ry="11" style="stroke:#222222;stroke-width:1;"/><ellipse cx="991.4353" cy="1272" fill="#222222" rx="6" ry="6" style="stroke:#222222;stroke-width:1;"/><polygon fill="#E2E8F0" points="865.8523,1142.5,1117.0183,1142.5,1129.0183,1154.5,1117.0183,1166.5,865.8523,1166.5,853.8523,1154.5,865.8523,1142.5" style="stroke:#1D4ED8;stroke-width:0.5;"/><text fill="#000000" font-family="Helvetica" font-size="14" lengthAdjust="spacing" textLength="21.7861" x="995.4353" y="1177.2803">yes</text><text fill="#0F172A" font-family="Helvetica" font-size="14" lengthAdjust="spacing" textLength="251.166" x="865.8523" y="1158.2803">"Force-new or conflicting drift detected?"</text><polygon fill="#E2E8F0" points="881.0076,1325,1101.863,1325,1113.863,1337,1101.863,1349,881.0076,1349,869.0076,1337,881.0076,1325" style="stroke:#1D4ED8;stroke-width:0.5;"/><text fill="#0F172A" font-family="Helvetica" font-size="14" lengthAdjust="spacing" textLength="220.8555" x="881.0076" y="1340.7803">"Supported mutable drift detected?"</text><text fill="#000000" font-family="Helvetica" font-size="14" lengthAdjust="spacing" textLength="21.7861" x="847.2214" y="1333.7803">yes</text><text fill="#000000" font-family="Helvetica" font-size="14" lengthAdjust="spacing" textLength="15.5723" x="1113.863" y="1333.7803">no</text><rect fill="#F8FAFC" height="48" rx="8" ry="8" style="stroke:#0F172A;stroke-width:0.5;" width="314.9365" x="695.4814" y="1359"/><text fill="#0F172A" font-family="Helvetica" font-size="14" lengthAdjust="spacing" textLength="294.9365" x="705.4814" y="1379.7803">Apply UpdateGenerativeAiImportedModels only</text><text fill="#0F172A" font-family="Helvetica" font-size="14" lengthAdjust="spacing" textLength="196.8818" x="705.4814" y="1393.7803">for mutable fields display_name</text><rect fill="#F8FAFC" height="34" rx="8" ry="8" style="stroke:#0F172A;stroke-width:0.5;" width="199.0059" x="1030.418" y="1359"/><text fill="#0F172A" font-family="Helvetica" font-size="14" lengthAdjust="spacing" textLength="179.0059" x="1040.418" y="1379.7803">Skip the no-op mutation path</text><polygon fill="#E2E8F0" points="991.4353,1413,1003.4353,1425,991.4353,1437,979.4353,1425,991.4353,1413" style="stroke:#1D4ED8;stroke-width:0.5;"/><rect fill="#F8FAFC" height="118" rx="8" ry="8" style="stroke:#0F172A;stroke-width:0.5;" width="334.3164" x="824.2771" y="1457"/><text fill="#0F172A" font-family="Helvetica" font-size="14" lengthAdjust="spacing" textLength="164.2061" x="834.2771" y="1477.7803">Run provider helper hooks</text><text fill="#0F172A" font-family="Helvetica" font-size="14" lengthAdjust="spacing" textLength="219.0508" x="834.2771" y="1491.7803">create=tfresource.CreateResource,</text><text fill="#0F172A" font-family="Helvetica" font-size="14" lengthAdjust="spacing" textLength="314.3164" x="834.2771" y="1505.7803">tfresource.WaitForWorkRequestWithErrorHandling</text><text fill="#0F172A" font-family="Helvetica" font-size="14" lengthAdjust="spacing" textLength="215.5439" x="834.2771" y="1519.7803">entity=template action=CREATED;</text><text fill="#0F172A" font-family="Helvetica" font-size="14" lengthAdjust="spacing" textLength="226.085" x="834.2771" y="1533.7803">update=tfresource.UpdateResource;</text><text fill="#0F172A" font-family="Helvetica" font-size="14" lengthAdjust="spacing" textLength="273.5537" x="834.2771" y="1547.7803">delete=tfresource.DeleteResource when the</text><text fill="#0F172A" font-family="Helvetica" font-size="14" lengthAdjust="spacing" textLength="220.2334" x="834.2771" y="1561.7803">matching field-driven path executes</text><rect fill="#F8FAFC" height="34" rx="8" ry="8" style="stroke:#0F172A;stroke-width:0.5;" width="303.2197" x="839.8254" y="1595"/><text fill="#0F172A" font-family="Helvetica" font-size="14" lengthAdjust="spacing" textLength="283.2197" x="849.8254" y="1615.7803">Return success for the ACTIVE success state</text><rect fill="#F8FAFC" height="48" rx="8" ry="8" style="stroke:#0F172A;stroke-width:0.5;" width="279.1299" x="851.8704" y="1649"/><text fill="#0F172A" font-family="Helvetica" font-size="14" lengthAdjust="spacing" textLength="259.1299" x="861.8704" y="1669.7803">Project required status and finalizer policy</text><text fill="#0F172A" font-family="Helvetica" font-size="14" lengthAdjust="spacing" textLength="174.3027" x="861.8704" y="1683.7803">retain-until-confirmed-delete</text><rect fill="#F8FAFC" height="34" rx="8" ry="8" style="stroke:#0F172A;stroke-width:0.5;" width="313.4189" x="834.7258" y="1717"/><text fill="#0F172A" font-family="Helvetica" font-size="14" lengthAdjust="spacing" textLength="293.4189" x="844.7258" y="1737.7803">Requeue on provisioning, updating, terminating</text><path d="M696.5897,1773 L696.5897,1991 L676.5897,1995 L696.5897,1999 L696.5897,2217 A0,0 0 0 0 696.5897,2217 L1033.5604,2217 A0,0 0 0 0 1033.5604,2217 L1033.5604,1783 L1023.5604,1773 L696.5897,1773 A0,0 0 0 0 696.5897,1773" fill="#FFF7D6" style="stroke:#B45309;stroke-width:0.5;"/><path d="M1023.5604,1773 L1023.5604,1783 L1033.5604,1783 L1023.5604,1773" fill="#FFF7D6" style="stroke:#B45309;stroke-width:0.5;"/><text fill="#334155" font-family="Helvetica" font-size="14" lengthAdjust="spacing" textLength="101.165" x="702.5897" y="1788.7803">shared diagram:</text><text fill="#334155" font-family="Helvetica" font-size="14" lengthAdjust="spacing" textLength="284.7852" x="702.5897" y="1802.7803">shared/diagrams/shared-reconcile-activity.svg</text><text fill="#334155" font-family="Helvetica" font-size="14" lengthAdjust="spacing" textLength="265.3438" x="702.5897" y="1816.7803">Start from the shared reconcile activity and</text><text fill="#334155" font-family="Helvetica" font-size="14" lengthAdjust="spacing" textLength="273.8955" x="702.5897" y="1830.7803">specialize provider-backed CRUD, wait, and</text><text fill="#334155" font-family="Helvetica" font-size="14" lengthAdjust="spacing" textLength="182.875" x="702.5897" y="1844.7803">status-projection details here.</text><text fill="#334155" font-family="Helvetica" font-size="14" lengthAdjust="spacing" textLength="229.5371" x="702.5897" y="1858.7803">Controller-local activity diagrams add</text><text fill="#334155" font-family="Helvetica" font-size="14" lengthAdjust="spacing" textLength="238.8955" x="702.5897" y="1872.7803">list-lookup hints, secret policies, delete</text><text fill="#334155" font-family="Helvetica" font-size="14" lengthAdjust="spacing" textLength="200.0332" x="702.5897" y="1886.7803">handling, and open formal gaps.</text><text fill="#334155" font-family="Helvetica" font-size="14" lengthAdjust="spacing" textLength="281.709" x="702.5897" y="1900.7803">archetype batch: Generated service-manager</text><text fill="#334155" font-family="Helvetica" font-size="14" lengthAdjust="spacing" textLength="291.0469" x="702.5897" y="1914.7803">controllers specialize the shared reconcile path</text><text fill="#334155" font-family="Helvetica" font-size="14" lengthAdjust="spacing" textLength="189.8477" x="702.5897" y="1928.7803">with formal runtime ownership.</text><text fill="#334155" font-family="Helvetica" font-size="14" lengthAdjust="spacing" textLength="128.3994" x="702.5897" y="1942.7803">service: generativeai</text><text fill="#334155" font-family="Helvetica" font-size="14" lengthAdjust="spacing" textLength="209.3369" x="702.5897" y="1956.7803">slug: generativeaiimportedmodels</text><text fill="#334155" font-family="Helvetica" font-size="14" lengthAdjust="spacing" textLength="214.7715" x="702.5897" y="1970.7803">kind: GenerativeAiImportedModels</text><text fill="#334155" font-family="Helvetica" font-size="14" lengthAdjust="spacing" textLength="241.2402" x="702.5897" y="1984.7803">archetype: generated-service-manager</text><text fill="#334155" font-family="Helvetica" font-size="14" lengthAdjust="spacing" textLength="156.4063" x="702.5897" y="1998.7803">status/finalizer: required /</text><text fill="#334155" font-family="Helvetica" font-size="14" lengthAdjust="spacing" textLength="174.3027" x="702.5897" y="2012.7803">retain-until-confirmed-delete</text><text fill="#334155" font-family="Helvetica" font-size="14" lengthAdjust="spacing" textLength="272.3984" x="702.5897" y="2026.7803">requeue: provisioning, updating, terminating</text><text fill="#334155" font-family="Helvetica" font-size="14" lengthAdjust="spacing" textLength="295.6816" x="702.5897" y="2040.7803">provider states: create PROVISIONING; update</text><text fill="#334155" font-family="Helvetica" font-size="14" lengthAdjust="spacing" textLength="192.165" x="702.5897" y="2054.7803">UPDATING; delete DELETING</text><text fill="#334155" font-family="Helvetica" font-size="14" lengthAdjust="spacing" textLength="183.6611" x="702.5897" y="2068.7803">supported drift: display_name</text><text fill="#334155" font-family="Helvetica" font-size="14" lengthAdjust="spacing" textLength="230.3301" x="702.5897" y="2082.7803">reject before mutate: force-new fields</text><text fill="#334155" font-family="Helvetica" font-size="14" lengthAdjust="spacing" textLength="100.3789" x="702.5897" y="2096.7803">compartment_id</text><text fill="#334155" font-family="Helvetica" font-size="14" lengthAdjust="spacing" textLength="66.1445" x="702.5897" y="2110.7803">list lookup:</text><text fill="#334155" font-family="Helvetica" font-size="14" lengthAdjust="spacing" textLength="315.9707" x="702.5897" y="2124.7803">scaffold_generativeai_generativeaiimportedmodels</text><text fill="#334155" font-family="Helvetica" font-size="14" lengthAdjust="spacing" textLength="175.8477" x="702.5897" y="2138.7803">filters compartment_id, state</text><text fill="#334155" font-family="Helvetica" font-size="14" lengthAdjust="spacing" textLength="89.4961" x="702.5897" y="2152.7803">conflicts: none</text><text fill="#334155" font-family="Helvetica" font-size="14" lengthAdjust="spacing" textLength="104.3164" x="702.5897" y="2166.7803">open gaps: none</text><text fill="#334155" font-family="Helvetica" font-size="14" lengthAdjust="spacing" textLength="224.9023" x="702.5897" y="2180.7803">Scaffold metadata only; replace with</text><text fill="#334155" font-family="Helvetica" font-size="14" lengthAdjust="spacing" textLength="244.3232" x="702.5897" y="2194.7803">controller-specific runtime states before</text><text fill="#334155" font-family="Helvetica" font-size="14" lengthAdjust="spacing" textLength="66.1445" x="702.5897" y="2208.7803">promotion.</text><ellipse cx="665.5897" cy="1995" fill="none" rx="11" ry="11" style="stroke:#222222;stroke-width:1;"/><ellipse cx="665.5897" cy="1995" fill="#222222" rx="6" ry="6" style="stroke:#222222;stroke-width:1;"/><line style="stroke:#0F172A;stroke-width:1;" x1="665.5897" x2="665.5897" y1="157" y2="177"/><polygon fill="#0F172A" points="661.5897,167,665.5897,177,669.5897,167,665.5897,171" style="stroke:#0F172A;stroke-width:1;"/><line style="stroke:#0F172A;stroke-width:1;" x1="817.0555" x2="817.0555" y1="341" y2="361"/><polygon fill="#0F172A" points="813.0555,351,817.0555,361,821.0555,351,817.0555,355" style="stroke:#0F172A;stroke-width:1;"/><line style="stroke:#0F172A;stroke-width:1;" x1="817.0555" x2="817.0555" y1="423" y2="443"/><polygon fill="#0F172A" points="813.0555,433,817.0555,443,821.0555,433,817.0555,437" style="stroke:#0F172A;stroke-width:1;"/><line style="stroke:#0F172A;stroke-width:1;" x1="524.1239" x2="514.1239" y1="257" y2="257"/><line style="stroke:#0F172A;stroke-width:1;" x1="514.1239" x2="514.1239" y1="257" y2="279"/><polygon fill="#0F172A" points="510.1239,269,514.1239,279,518.1239,269,514.1239,273" style="stroke:#0F172A;stroke-width:1;"/><line style="stroke:#0F172A;stroke-width:1;" x1="807.0555" x2="817.0555" y1="257" y2="257"/><line style="stroke:#0F172A;stroke-width:1;" x1="817.0555" x2="817.0555" y1="257" y2="279"/><polygon fill="#0F172A" points="813.0555,269,817.0555,279,821.0555,269,817.0555,273" style="stroke:#0F172A;stroke-width:1;"/><line style="stroke:#0F172A;stroke-width:1;" x1="514.1239" x2="514.1239" y1="327" y2="509"/><line style="stroke:#0F172A;stroke-width:1;" x1="514.1239" x2="653.5897" y1="509" y2="509"/><polygon fill="#0F172A" points="643.5897,505,653.5897,509,643.5897,513,647.5897,509" style="stroke:#0F172A;stroke-width:1;"/><line style="stroke:#0F172A;stroke-width:1;" x1="817.0555" x2="817.0555" y1="491" y2="509"/><line style="stroke:#0F172A;stroke-width:1;" x1="817.0555" x2="677.5897" y1="509" y2="509"/><polygon fill="#0F172A" points="687.5897,505,677.5897,509,687.5897,513,683.5897,509" style="stroke:#0F172A;stroke-width:1;"/><line style="stroke:#0F172A;stroke-width:1;" x1="665.5897" x2="665.5897" y1="225" y2="245"/><polygon fill="#0F172A" points="661.5897,235,665.5897,245,669.5897,235,665.5897,239" style="stroke:#0F172A;stroke-width:1;"/><line style="stroke:#0F172A;stroke-width:1;" x1="665.5897" x2="665.5897" y1="65" y2="109"/><polygon fill="#0F172A" points="661.5897,99,665.5897,109,669.5897,99,665.5897,103" style="stroke:#0F172A;stroke-width:1;"/><line style="stroke:#0F172A;stroke-width:1;" x1="339.7441" x2="339.7441" y1="711" y2="739.5"/><polygon fill="#0F172A" points="335.7441,729.5,339.7441,739.5,343.7441,729.5,339.7441,733.5" style="stroke:#0F172A;stroke-width:1;"/><line style="stroke:#0F172A;stroke-width:1;" x1="179.5718" x2="169.5718" y1="862.5" y2="862.5"/><line style="stroke:#0F172A;stroke-width:1;" x1="169.5718" x2="169.5718" y1="862.5" y2="884.5"/><polygon fill="#0F172A" points="165.5718,874.5,169.5718,884.5,173.5718,874.5,169.5718,878.5" style="stroke:#0F172A;stroke-width:1;"/><line style="stroke:#0F172A;stroke-width:1;" x1="499.9165" x2="509.9165" y1="862.5" y2="862.5"/><line style="stroke:#0F172A;stroke-width:1;" x1="509.9165" x2="509.9165" y1="862.5" y2="884.5"/><polygon fill="#0F172A" points="505.9165,874.5,509.9165,884.5,513.9165,874.5,509.9165,878.5" style="stroke:#0F172A;stroke-width:1;"/><line style="stroke:#0F172A;stroke-width:1;" x1="169.5718" x2="169.5718" y1="918.5" y2="950.5"/><line style="stroke:#0F172A;stroke-width:1;" x1="169.5718" x2="327.7441" y1="950.5" y2="950.5"/><polygon fill="#0F172A" points="317.7441,946.5,327.7441,950.5,317.7441,954.5,321.7441,950.5" style="stroke:#0F172A;stroke-width:1;"/><line style="stroke:#0F172A;stroke-width:1;" x1="509.9165" x2="509.9165" y1="932.5" y2="950.5"/><line style="stroke:#0F172A;stroke-width:1;" x1="509.9165" x2="351.7441" y1="950.5" y2="950.5"/><polygon fill="#0F172A" points="361.7441,946.5,351.7441,950.5,361.7441,954.5,357.7441,950.5" style="stroke:#0F172A;stroke-width:1;"/><line style="stroke:#0F172A;stroke-width:1;" x1="339.7441" x2="339.7441" y1="815.5" y2="850.5"/><polygon fill="#0F172A" points="335.7441,840.5,339.7441,850.5,343.7441,840.5,339.7441,844.5" style="stroke:#0F172A;stroke-width:1;"/><line style="stroke:#0F172A;stroke-width:1;" x1="339.7441" x2="339.7441" y1="962.5" y2="1008.5"/><polygon fill="#0F172A" points="335.7441,998.5,339.7441,1008.5,343.7441,998.5,339.7441,1002.5" style="stroke:#0F172A;stroke-width:1;"/><line style="stroke:#0F172A;stroke-width:1;" x1="991.4353" x2="991.4353" y1="718" y2="746.5"/><polygon fill="#0F172A" points="987.4353,736.5,991.4353,746.5,995.4353,736.5,991.4353,740.5" style="stroke:#0F172A;stroke-width:1;"/><line style="stroke:#0F172A;stroke-width:1;" x1="991.4353" x2="991.4353" y1="645" y2="670"/><polygon fill="#0F172A" points="987.4353,660,991.4353,670,995.4353,660,991.4353,664" style="stroke:#0F172A;stroke-width:1;"/><line style="stroke:#0F172A;stroke-width:1;" x1="1089.7185" x2="1141.7317" y1="633" y2="633"/><polygon fill="#0F172A" points="1137.7317,709.5,1141.7317,719.5,1145.7317,709.5,1141.7317,713.5" style="stroke:#0F172A;stroke-width:1;"/><line style="stroke:#0F172A;stroke-width:1;" x1="1141.7317" x2="1141.7317" y1="633" y2="799.5"/><line style="stroke:#0F172A;stroke-width:1;" x1="1141.7317" x2="991.4353" y1="799.5" y2="799.5"/><line style="stroke:#0F172A;stroke-width:1;" x1="991.4353" x2="991.4353" y1="799.5" y2="834.5"/><polygon fill="#0F172A" points="987.4353,824.5,991.4353,834.5,995.4353,824.5,991.4353,828.5" style="stroke:#0F172A;stroke-width:1;"/><line style="stroke:#0F172A;stroke-width:1;" x1="991.4353" x2="991.4353" y1="931.5" y2="966.5"/><polygon fill="#0F172A" points="987.4353,956.5,991.4353,966.5,995.4353,956.5,991.4353,960.5" style="stroke:#0F172A;stroke-width:1;"/><line style="stroke:#0F172A;stroke-width:1;" x1="991.4353" x2="991.4353" y1="858.5" y2="883.5"/><polygon fill="#0F172A" points="987.4353,873.5,991.4353,883.5,995.4353,873.5,991.4353,877.5" style="stroke:#0F172A;stroke-width:1;"/><line style="stroke:#0F172A;stroke-width:1;" x1="1123.9563" x2="1148.3933" y1="846.5" y2="846.5"/><polygon fill="#0F172A" points="1144.3933,923,1148.3933,933,1152.3933,923,1148.3933,927" style="stroke:#0F172A;stroke-width:1;"/><line style="stroke:#0F172A;stroke-width:1;" x1="1148.3933" x2="1148.3933" y1="846.5" y2="1010.5"/><line style="stroke:#0F172A;stroke-width:1;" x1="1148.3933" x2="991.4353" y1="1010.5" y2="1010.5"/><line style="stroke:#0F172A;stroke-width:1;" x1="991.4353" x2="991.4353" y1="1010.5" y2="1074.5"/><polygon fill="#0F172A" points="987.4353,1064.5,991.4353,1074.5,995.4353,1064.5,991.4353,1068.5" style="stroke:#0F172A;stroke-width:1;"/><line style="stroke:#0F172A;stroke-width:1;" x1="991.4353" x2="991.4353" y1="1239.5" y2="1261"/><polygon fill="#0F172A" points="987.4353,1251,991.4353,1261,995.4353,1251,991.4353,1255" style="stroke:#0F172A;stroke-width:1;"/><line style="stroke:#0F172A;stroke-width:1;" x1="991.4353" x2="991.4353" y1="1166.5" y2="1191.5"/><polygon fill="#0F172A" points="987.4353,1181.5,991.4353,1191.5,995.4353,1181.5,991.4353,1185.5" style="stroke:#0F172A;stroke-width:1;"/><line style="stroke:#0F172A;stroke-width:1;" x1="1129.0183" x2="1152.6589" y1="1154.5" y2="1154.5"/><polygon fill="#0F172A" points="1148.6589,1231,1152.6589,1241,1156.6589,1231,1152.6589,1235" style="stroke:#0F172A;stroke-width:1;"/><line style="stroke:#0F172A;stroke-width:1;" x1="1152.6589" x2="1152.6589" y1="1154.5" y2="1305"/><line style="stroke:#0F172A;stroke-width:1;" x1="1152.6589" x2="991.4353" y1="1305" y2="1305"/><line style="stroke:#0F172A;stroke-width:1;" x1="991.4353" x2="991.4353" y1="1305" y2="1325"/><polygon fill="#0F172A" points="987.4353,1315,991.4353,1325,995.4353,1315,991.4353,1319" style="stroke:#0F172A;stroke-width:1;"/><line style="stroke:#0F172A;stroke-width:1;" x1="991.4353" x2="991.4353" y1="1122.5" y2="1142.5"/><polygon fill="#0F172A" points="987.4353,1132.5,991.4353,1142.5,995.4353,1132.5,991.4353,1136.5" style="stroke:#0F172A;stroke-width:1;"/><line style="stroke:#0F172A;stroke-width:1;" x1="869.0076" x2="852.9497" y1="1337" y2="1337"/><line style="stroke:#0F172A;stroke-width:1;" x1="852.9497" x2="852.9497" y1="1337" y2="1359"/><polygon fill="#0F172A" points="848.9497,1349,852.9497,1359,856.9497,1349,852.9497,1353" style="stroke:#0F172A;stroke-width:1;"/><line style="stroke:#0F172A;stroke-width:1;" x1="1113.863" x2="1129.9209" y1="1337" y2="1337"/><line style="stroke:#0F172A;stroke-width:1;" x1="1129.9209" x2="1129.9209" y1="1337" y2="1359"/><polygon fill="#0F172A" points="1125.9209,1349,1129.9209,1359,1133.9209,1349,1129.9209,1353" style="stroke:#0F172A;stroke-width:1;"/><line style="stroke:#0F172A;stroke-width:1;" x1="852.9497" x2="852.9497" y1="1407" y2="1425"/><line style="stroke:#0F172A;stroke-width:1;" x1="852.9497" x2="979.4353" y1="1425" y2="1425"/><polygon fill="#0F172A" points="969.4353,1421,979.4353,1425,969.4353,1429,973.4353,1425" style="stroke:#0F172A;stroke-width:1;"/><line style="stroke:#0F172A;stroke-width:1;" x1="1129.9209" x2="1129.9209" y1="1393" y2="1425"/><line style="stroke:#0F172A;stroke-width:1;" x1="1129.9209" x2="1003.4353" y1="1425" y2="1425"/><polygon fill="#0F172A" points="1013.4353,1421,1003.4353,1425,1013.4353,1429,1009.4353,1425" style="stroke:#0F172A;stroke-width:1;"/><line style="stroke:#0F172A;stroke-width:1;" x1="991.4353" x2="991.4353" y1="1437" y2="1457"/><polygon fill="#0F172A" points="987.4353,1447,991.4353,1457,995.4353,1447,991.4353,1451" style="stroke:#0F172A;stroke-width:1;"/><line style="stroke:#0F172A;stroke-width:1;" x1="991.4353" x2="991.4353" y1="1575" y2="1595"/><polygon fill="#0F172A" points="987.4353,1585,991.4353,1595,995.4353,1585,991.4353,1589" style="stroke:#0F172A;stroke-width:1;"/><line style="stroke:#0F172A;stroke-width:1;" x1="991.4353" x2="991.4353" y1="1629" y2="1649"/><polygon fill="#0F172A" points="987.4353,1639,991.4353,1649,995.4353,1639,991.4353,1643" style="stroke:#0F172A;stroke-width:1;"/><line style="stroke:#0F172A;stroke-width:1;" x1="991.4353" x2="991.4353" y1="1697" y2="1717"/><polygon fill="#0F172A" points="987.4353,1707,991.4353,1717,995.4353,1707,991.4353,1711" style="stroke:#0F172A;stroke-width:1;"/><line style="stroke:#0F172A;stroke-width:1;" x1="591.4135" x2="339.7441" y1="565" y2="565"/><line style="stroke:#0F172A;stroke-width:1;" x1="339.7441" x2="339.7441" y1="565" y2="621"/><polygon fill="#0F172A" points="335.7441,611,339.7441,621,343.7441,611,339.7441,615" style="stroke:#0F172A;stroke-width:1;"/><line style="stroke:#0F172A;stroke-width:1;" x1="739.766" x2="991.4353" y1="565" y2="565"/><line style="stroke:#0F172A;stroke-width:1;" x1="991.4353" x2="991.4353" y1="565" y2="621"/><polygon fill="#0F172A" points="987.4353,611,991.4353,621,995.4353,611,991.4353,615" style="stroke:#0F172A;stroke-width:1;"/><line style="stroke:#0F172A;stroke-width:1;" x1="991.4353" x2="991.4353" y1="1751" y2="1768"/><line style="stroke:#0F172A;stroke-width:1;" x1="991.4353" x2="665.5897" y1="1768" y2="1768"/><line style="stroke:#0F172A;stroke-width:1;" x1="665.5897" x2="665.5897" y1="1768" y2="1984"/><polygon fill="#0F172A" points="661.5897,1974,665.5897,1984,669.5897,1974,665.5897,1978" style="stroke:#0F172A;stroke-width:1;"/><line style="stroke:#0F172A;stroke-width:1;" x1="665.5897" x2="665.5897" y1="521" y2="553"/><polygon fill="#0F172A" points="661.5897,543,665.5897,553,669.5897,543,665.5897,547" style="stroke:#0F172A;stroke-width:1;"/><?plantuml-src bLTjRzis4FwkNq5aNreWJferVPcDOaYTj0tGDK6IjbyC1BHqihbGf4PIzhoX_tqFNoJBTkfs29gAukbuzznp3o_sGQYQ6runE-U5NWerOoMNbZBRxKnv_Z0pkb75M4jjs2zbZf-YPr5GoHlftcdbFl6As0UI2t8Yvu_Rt8f_Y9sSzZQvCNgPl3yhJrxzslzIQKTlTs8eorV5osqhRGeooM9w-kBviz-sBFpnQV_vyzEJ5ozw-y5zheqYmqvUPauuIUmiTs8Xt8eDs8ommx4aBexVTuipSLdLsZWg_j05ITjFg_tutumz0kFhafUvt-c7dT9dh5o7shqh1A-qAdRGe5_fTVciPz3tU5ASKl5wlVdk4SVMSUEsxQdptzbD-PRNRrduD4F204nenGwkffRCWXXN1NihL760z8UttegLHWUc6IfOAVLoekBY6A7DW9WzZkk1eLohN4WQj1WUsSLib0rlY1VWaXNUnVUBm6nD-U54EGEeO8aWNMCFGqpO9qTCA4VAZJ9HiYS7TyaEcT7VjHIvSEngVCb40HjVmTgGnUFl1q-PcvDYJrPadsR3z-JyckMDCTWEty1IDoOdjX1yec3n_J176NuHUwBqKv-QrJBWXXY4TRuND_ovEMe-cq_KH-pkoRsneOs5T6JiHEMwyjMf4D-zA0u35WGenuRm4CBV3JjkxZbawL5GUg8CDPPFqIeLT_cS2GlcWfauu1h78z9mWed91OJpuBlO07YYK0-TwWHOL25Aa2iKvpmMpD1V3Lbyk5M47lMYPI1S-gZcRWv023Z4D_jI4h3rftXoJHHmO7khXrn-M0laT7xnyUBkujmNGfN202R4wl6FoyX77_wF-V8p9pR0KtfiVMbuFYVRHZ3QW3ENn5LJXvOeXU8IgcoGFbw3ahR9Szg16Xojz29oPlqDBq6qjgqyss8-6-H6_w_OLEhGPJ74DW0melFbOzu8eCS5wtJTSzah-qTHKhw2FpQMt5fHukhnEvu88MNFj41xT3rIT6OL66l9xIOOI1R9rX1e3X5A_L5neImyJDJrpTMNozlBgq-NdzuVii_NvsTtuIa0ZQTH2ZP4lXq1gjWu2-B772r8misCdDsDnJL6UJreL38j6yawRVHDXIirmZbHCSXOyRFntUMNYuqmllKHypAw2gK_Dw9qx0CU9LGZjCuu20On2NgnTU1yvlEFxImIvoQWC4deQsDAdbDYs3iD7HaeMePk1yqXg47EYd1O0PxaxZ5o_OdtoMXAfJRn-AfnePmG5kF_HT_fQCiszMqN-jkcZi46Hxxk-yCugskvOf_hOhy0QYMXMZwarcsAfn2sbdnrhp0ARVR0WwW3UaeFTBrEosjKI_FXJOCNHY_03yFc96l_dzOFNiY3RhvnPIlLHr6bRzBIttVhlQzSODeoNxLvIAJ-2dsxmAHbscfFL1JVDuxGjA76kO_epVZcuimBnWJzMMoT6O5fpuH9RFo-ILIOrYHU5SXxei8L4IydG3L07HOKyyULHtdZo8uwthVTuI7sg4LETw_RQ-pQw42RLhZJ7RAbQxK61rTUNXnOF0WjCqY2Z7aZvZ1A_O--rwaA5d0Wu4CMW0XF4BiAVlrYXAwATGkaynCcCs8sTraQSj9SCyp-rvoJzQObdtbojcxyRh14afaVTKH8ioFEO1h7cV7Dv_D3jWGJ3gDfW6PGHyWyzmgF1zWy9qD76QuaPxIKy02fvd9zK1iuuqMHITn0CD0FK6-Kqs6miWHskWYp8Bo8Y6RpHBKuUkcQGXTNS3tZjJtAk85UkLLD62t1ZM4xq_awOeeKwFMAApuZa-LTS76yIpa_2f2dL1RkytIQyHN7doPw2VTsBkgZBFaVRWpscPNDRFDLgtLL7EyntHV3FQFdEgNE3GgzdKoin757qE6QlyVPNf9cwMeQ_Wn1iqvAGhlOOHg-MFy66yLlAMilib5xcRVtMMOx3GtQETmGEKGKEZ19Tj0rXDSfTHB6R5Ee0ujOP17w8-TbgMLntqV-VayPqdZB7frki_RIGS9AAye2yJpZqles7SSgG8tSUP3p4Og0hBnaWJezmWq2tp1MT3oASAQKFSgLzlrqvEKW_ANv7m00?></g></svg>