<?plantuml 1.2026.1?><svg xmlns="http://www.w3.org/2000/svg" xmlns:xlink="http://www.w3.org/1999/xlink" contentStyleType="text/css" data-diagram-type="STATE" height="625px" preserveAspectRatio="none" style="width:4086px;height:625px;background:#FCFCFD;" version="1.1" viewBox="0 0 4086 625" width="4086px" zoomAndPan="magnify"><title>State Machine - meteringcomputation/MeteringComputationUsageCarbonEmissionsQuery</title><defs/><g><rect fill="#FCFCFD" height="625" style="stroke:none;stroke-width:1;" width="4086" x="0" y="0"/><g class="title" data-source-line="10"><text fill="#000000" font-family="Helvetica" font-size="14" font-weight="bold" lengthAdjust="spacing" textLength="599.751" x="1736.4875" y="20.7803">State Machine - meteringcomputation/MeteringComputationUsageCarbonEmissionsQuery</text></g><g><rect fill="#F8FAFC" height="62" rx="8" ry="8" style="stroke:#0F172A;stroke-width:0.5;" width="264.3643" x="452" y="423"/><line style="stroke:#0F172A;stroke-width:0.5;" x1="452" x2="716.3643" y1="447" y2="447"/><text fill="#0F172A" font-family="Helvetica" font-size="14" lengthAdjust="spacing" textLength="52.9102" x="557.7271" y="438.7803">Observe</text><text fill="#0F172A" font-family="Helvetica" font-size="14" lengthAdjust="spacing" textLength="244.3643" x="457" y="462.7803">read spec, tracked status, delete intent,</text><text fill="#0F172A" font-family="Helvetica" font-size="14" lengthAdjust="spacing" textLength="153.2822" x="457" y="476.7803">and current OCI lifecycle</text></g><rect fill="#F8FAFC" height="40" rx="8" ry="8" style="stroke:#0F172A;stroke-width:0.5;" width="104.9512" x="1513.36" y="266"/><text fill="#0F172A" font-family="Helvetica" font-size="14" lengthAdjust="spacing" textLength="94.9512" x="1518.36" y="289.7803">EvaluateReady</text><rect fill="#F8FAFC" height="40" rx="8" ry="8" style="stroke:#0F172A;stroke-width:0.5;" width="50.4688" x="2272.32" y="266"/><text fill="#0F172A" font-family="Helvetica" font-size="14" lengthAdjust="spacing" textLength="40.4688" x="2277.32" y="289.7803">Ready</text><rect fill="#F8FAFC" height="40" rx="8" ry="8" style="stroke:#0F172A;stroke-width:0.5;" width="69.917" x="1530.88" y="401"/><text fill="#0F172A" font-family="Helvetica" font-size="14" lengthAdjust="spacing" textLength="59.917" x="1535.88" y="424.7803">Retryable</text><rect fill="#F8FAFC" height="40" rx="8" ry="8" style="stroke:#0F172A;stroke-width:0.5;" width="50" x="1540.84" y="520"/><text fill="#0F172A" font-family="Helvetica" font-size="14" lengthAdjust="spacing" textLength="38.1309" x="1546.7746" y="543.7803">Failed</text><rect fill="#F8FAFC" height="40" rx="8" ry="8" style="stroke:#0F172A;stroke-width:0.5;" width="122.8477" x="994.44" y="377"/><text fill="#0F172A" font-family="Helvetica" font-size="14" lengthAdjust="spacing" textLength="112.8477" x="999.44" y="400.7803">ResolveByLookup</text><rect fill="#F8FAFC" height="40" rx="8" ry="8" style="stroke:#0F172A;stroke-width:0.5;" width="155.5098" x="1847.56" y="356"/><text fill="#0F172A" font-family="Helvetica" font-size="14" lengthAdjust="spacing" textLength="145.5098" x="1852.56" y="379.7803">RejectUnsupportedDrift</text><rect fill="#F8FAFC" height="40" rx="8" ry="8" style="stroke:#0F172A;stroke-width:0.5;" width="90.165" x="1880.23" y="195"/><text fill="#0F172A" font-family="Helvetica" font-size="14" lengthAdjust="spacing" textLength="80.165" x="1885.23" y="218.7803">ApplyUpdate</text><rect fill="#F8FAFC" height="40" rx="8" ry="8" style="stroke:#0F172A;stroke-width:0.5;" width="101.8477" x="2700.11" y="520"/><text fill="#0F172A" font-family="Helvetica" font-size="14" lengthAdjust="spacing" textLength="91.8477" x="2705.11" y="543.7803">DeletePending</text><rect fill="#F8FAFC" height="40" rx="8" ry="8" style="stroke:#0F172A;stroke-width:0.5;" width="58.2549" x="3998.01" y="447"/><text fill="#0F172A" font-family="Helvetica" font-size="14" lengthAdjust="spacing" textLength="48.2549" x="4003.01" y="470.7803">Deleted</text><rect fill="#F8FAFC" height="40" rx="8" ry="8" style="stroke:#0F172A;stroke-width:0.5;" width="152.4268" x="3454.94" y="447"/><text fill="#0F172A" font-family="Helvetica" font-size="14" lengthAdjust="spacing" textLength="142.4268" x="3459.94" y="470.7803">DeleteCleanupBlocked</text><ellipse cx="16" cy="454" fill="#222222" rx="10" ry="10" style="stroke:#222222;stroke-width:1;"/><g class="entity" data-qualified-name="GMN2" data-source-line="55" id="ent0003"><path d="M2488.78,49 L2488.78,272.33 L2323.14,284.75 L2488.78,280.33 L2488.78,477 A8,8 0 0 0 2496.78,485 L3005.2878,485 A8,8 0 0 0 3013.2878,477 L3013.2878,51 L3003.2878,41 L2496.78,41 A8,8 0 0 0 2488.78,49" fill="#FFF7D6" style="stroke:#B45309;stroke-width:0.5;"/><path d="M3003.2878,41 L3003.2878,47 A4,4 0 0 0 3007.2878,51 L3013.2878,51 L3003.2878,41" fill="#FFF7D6" style="stroke:#B45309;stroke-width:0.5;"/><text fill="#334155" font-family="Helvetica" font-size="14" lengthAdjust="spacing" textLength="101.165" x="2494.78" y="56.7803">shared diagram:</text><text fill="#334155" font-family="Helvetica" font-size="14" lengthAdjust="spacing" textLength="331.4814" x="2494.78" y="70.7803">shared/diagrams/shared-controller-state-machine.svg</text><text fill="#334155" font-family="Helvetica" font-size="14" lengthAdjust="spacing" textLength="304.2744" x="2494.78" y="84.7803">Start from the shared controller phase model and</text><text fill="#334155" font-family="Helvetica" font-size="14" lengthAdjust="spacing" textLength="261.4678" x="2494.78" y="98.7803">specialize imported provider states, delete</text><text fill="#334155" font-family="Helvetica" font-size="14" lengthAdjust="spacing" textLength="184.4336" x="2494.78" y="112.7803">targets, and failure exits here.</text><text fill="#334155" font-family="Helvetica" font-size="14" lengthAdjust="spacing" textLength="281.709" x="2494.78" y="126.7803">archetype batch: Generated service-manager</text><text fill="#334155" font-family="Helvetica" font-size="14" lengthAdjust="spacing" textLength="287.9229" x="2494.78" y="140.7803">controllers map provider states into the shared</text><text fill="#334155" font-family="Helvetica" font-size="14" lengthAdjust="spacing" textLength="261.4609" x="2494.78" y="154.7803">controller phases with explicit finalizer and</text><text fill="#334155" font-family="Helvetica" font-size="14" lengthAdjust="spacing" textLength="105.8477" x="2494.78" y="168.7803">requeue policies.</text><text fill="#334155" font-family="Helvetica" font-size="14" lengthAdjust="spacing" textLength="182.8613" x="2494.78" y="182.7803">service: meteringcomputation</text><text fill="#334155" font-family="Helvetica" font-size="14" lengthAdjust="spacing" textLength="29.5723" x="2494.78" y="196.7803">slug:</text><text fill="#334155" font-family="Helvetica" font-size="14" lengthAdjust="spacing" textLength="308.9502" x="2494.78" y="210.7803">meteringcomputationusagecarbonemissionsquery</text><text fill="#334155" font-family="Helvetica" font-size="14" lengthAdjust="spacing" textLength="29.5723" x="2494.78" y="224.7803">kind:</text><text fill="#334155" font-family="Helvetica" font-size="14" lengthAdjust="spacing" textLength="322.1504" x="2494.78" y="238.7803">MeteringComputationUsageCarbonEmissionsQuery</text><text fill="#334155" font-family="Helvetica" font-size="14" lengthAdjust="spacing" textLength="241.2402" x="2494.78" y="252.7803">archetype: generated-service-manager</text><text fill="#334155" font-family="Helvetica" font-size="14" lengthAdjust="spacing" textLength="156.4063" x="2494.78" y="266.7803">status/finalizer: required /</text><text fill="#334155" font-family="Helvetica" font-size="14" lengthAdjust="spacing" textLength="174.3027" x="2494.78" y="280.7803">retain-until-confirmed-delete</text><text fill="#334155" font-family="Helvetica" font-size="14" lengthAdjust="spacing" textLength="272.3984" x="2494.78" y="294.7803">requeue: provisioning, updating, terminating</text><text fill="#334155" font-family="Helvetica" font-size="14" lengthAdjust="spacing" textLength="295.6816" x="2494.78" y="308.7803">provider states: create PROVISIONING; update</text><text fill="#334155" font-family="Helvetica" font-size="14" lengthAdjust="spacing" textLength="192.165" x="2494.78" y="322.7803">UPDATING; delete DELETING</text><text fill="#334155" font-family="Helvetica" font-size="14" lengthAdjust="spacing" textLength="183.6611" x="2494.78" y="336.7803">supported drift: display_name</text><text fill="#334155" font-family="Helvetica" font-size="14" lengthAdjust="spacing" textLength="230.3301" x="2494.78" y="350.7803">reject before mutate: force-new fields</text><text fill="#334155" font-family="Helvetica" font-size="14" lengthAdjust="spacing" textLength="100.3789" x="2494.78" y="364.7803">compartment_id</text><text fill="#334155" font-family="Helvetica" font-size="14" lengthAdjust="spacing" textLength="66.1445" x="2494.78" y="378.7803">list lookup:</text><text fill="#334155" font-family="Helvetica" font-size="14" lengthAdjust="spacing" textLength="503.5078" x="2494.78" y="392.7803">scaffold_meteringcomputation_meteringcomputationusagecarbonemissionsquery</text><text fill="#334155" font-family="Helvetica" font-size="14" lengthAdjust="spacing" textLength="175.8477" x="2494.78" y="406.7803">filters compartment_id, state</text><text fill="#334155" font-family="Helvetica" font-size="14" lengthAdjust="spacing" textLength="89.4961" x="2494.78" y="420.7803">conflicts: none</text><text fill="#334155" font-family="Helvetica" font-size="14" lengthAdjust="spacing" textLength="104.3164" x="2494.78" y="434.7803">open gaps: none</text><text fill="#334155" font-family="Helvetica" font-size="14" lengthAdjust="spacing" textLength="224.9023" x="2494.78" y="448.7803">Scaffold metadata only; replace with</text><text fill="#334155" font-family="Helvetica" font-size="14" lengthAdjust="spacing" textLength="244.3232" x="2494.78" y="462.7803">controller-specific runtime states before</text><text fill="#334155" font-family="Helvetica" font-size="14" lengthAdjust="spacing" textLength="66.1445" x="2494.78" y="476.7803">promotion.</text></g><g class="entity" data-qualified-name="GMN5" data-source-line="88" id="ent0006"><path d="M3348.29,530 L3348.29,558.22 L2802.19,541.87 L3348.29,566.22 L3348.29,608 A8,8 0 0 0 3356.29,616 L3706.0058,616 A8,8 0 0 0 3714.0058,608 L3714.0058,532 L3704.0058,522 L3356.29,522 A8,8 0 0 0 3348.29,530" fill="#FFF7D6" style="stroke:#B45309;stroke-width:0.5;"/><path d="M3704.0058,522 L3704.0058,528 A4,4 0 0 0 3708.0058,532 L3714.0058,532 L3704.0058,522" fill="#FFF7D6" style="stroke:#B45309;stroke-width:0.5;"/><text fill="#334155" font-family="Helvetica" font-size="14" lengthAdjust="spacing" textLength="136.9717" x="3354.29" y="537.7803">delete policy: required</text><text fill="#334155" font-family="Helvetica" font-size="14" lengthAdjust="spacing" textLength="95.7305" x="3354.29" y="551.7803">delete observe:</text><text fill="#334155" font-family="Helvetica" font-size="14" lengthAdjust="spacing" textLength="344.7158" x="3354.29" y="565.7803">GetMeteringComputationUsageCarbonEmissionsQuery</text><text fill="#334155" font-family="Helvetica" font-size="14" lengthAdjust="spacing" textLength="12.4482" x="3354.29" y="579.7803">or</text><text fill="#334155" font-family="Helvetica" font-size="14" lengthAdjust="spacing" textLength="343.9365" x="3354.29" y="593.7803">ListMeteringComputationUsageCarbonEmissionsQuery</text><text fill="#334155" font-family="Helvetica" font-size="14" lengthAdjust="spacing" textLength="157.1855" x="3354.29" y="607.7803">delete targets: DELETED</text></g><!--link *start* to observe--><g class="link" data-entity-1="ent0002" data-entity-2="ent0002" data-link-type="dependency" data-source-line="32" id="lnk3"><path d="M26.35,454 C75.06,454 297.06,454 445.79,454" fill="none" id="*start*-to-observe" style="stroke:#0F172A;stroke-width:1;"/><polygon fill="#0F172A" points="451.79,454,442.79,450,446.79,454,442.79,458,451.79,454" style="stroke:#0F172A;stroke-width:1;"/><text fill="#000000" font-family="Helvetica" font-size="14" lengthAdjust="spacing" textLength="364.1709" x="57" y="449.7803">CreateMeteringComputationUsageCarbonEmissionsQuery</text></g><!--link observe to resolve_by_lookup--><g class="link" data-entity-1="ent0002" data-entity-2="ent0007" data-link-type="dependency" data-source-line="33" id="lnk4"><path d="M716.64,438.05 C807.55,427.01 918.3337,413.5731 988.1837,405.0931" fill="none" id="observe-to-resolve_by_lookup" style="stroke:#0F172A;stroke-width:1;"/><polygon fill="#0F172A" points="994.14,404.37,984.7235,401.4838,989.1764,404.9726,985.6877,409.4255,994.14,404.37" style="stroke:#0F172A;stroke-width:1;"/><text fill="#000000" font-family="Helvetica" font-size="14" lengthAdjust="spacing" textLength="145.5029" x="747.36" y="412.8403">tracked identity missing</text></g><!--link resolve_by_lookup to evaluate_ready--><g class="link" data-entity-1="ent0007" data-entity-2="ent0003" data-link-type="dependency" data-source-line="34" id="lnk5"><path d="M1117.57,385.58 C1231.1,364.19 1465.77,319.79 1483.36,315 C1493.07,312.36 1497.6038,311.0543 1507.3838,307.7043" fill="none" id="resolve_by_lookup-to-evaluate_ready" style="stroke:#0F172A;stroke-width:1;"/><polygon fill="#0F172A" points="1513.06,305.76,1503.2494,304.8923,1508.3298,307.3803,1505.8419,312.4606,1513.06,305.76" style="stroke:#0F172A;stroke-width:1;"/><text fill="#000000" font-family="Helvetica" font-size="14" lengthAdjust="spacing" textLength="154.0889" x="1273.86" y="296.7803">lookup or create reaches</text><text fill="#000000" font-family="Helvetica" font-size="14" lengthAdjust="spacing" textLength="50.5654" x="1325.6217" y="310.7803">ACTIVE</text></g><!--link resolve_by_lookup to retryable--><g class="link" data-entity-1="ent0007" data-entity-2="ent0005" data-link-type="dependency" data-source-line="35" id="lnk6"><path d="M1117.63,399.87 C1225.21,404.95 1439.8067,415.0973 1524.5967,419.0973" fill="none" id="resolve_by_lookup-to-retryable" style="stroke:#0F172A;stroke-width:1;"/><polygon fill="#0F172A" points="1530.59,419.38,1521.7885,414.9603,1525.5956,419.1444,1521.4115,422.9514,1530.59,419.38" style="stroke:#0F172A;stroke-width:1;"/><text fill="#000000" font-family="Helvetica" font-size="14" lengthAdjust="spacing" textLength="184.3789" x="1258.86" y="386.5403">OCI state in PROVISIONING,</text><text fill="#000000" font-family="Helvetica" font-size="14" lengthAdjust="spacing" textLength="150.1309" x="1275.984" y="400.5403">UPDATING, DELETING</text></g><!--link resolve_by_lookup to failed--><g class="link" data-entity-1="ent0007" data-entity-2="ent0006" data-link-type="dependency" data-source-line="36" id="lnk7"><path d="M1117.63,414.11 C1229.69,445.65 1458.5847,510.0834 1534.6747,531.5134" fill="none" id="resolve_by_lookup-to-failed" style="stroke:#0F172A;stroke-width:1;"/><polygon fill="#0F172A" points="1540.45,533.14,1532.8714,526.8499,1535.6372,531.7845,1530.7026,534.5504,1540.45,533.14" style="stroke:#0F172A;stroke-width:1;"/><text fill="#000000" font-family="Helvetica" font-size="14" lengthAdjust="spacing" textLength="263.7783" x="1219.36" y="439.0303">unresolved OCI error or non-success state</text></g><!--link observe to evaluate_ready--><g class="link" data-entity-1="ent0002" data-entity-2="ent0003" data-link-type="dependency" data-source-line="37" id="lnk8"><path d="M661.96,422.64 C688.45,412.43 718.47,401.55 746.36,393 C952.5,329.82 1004.22,306.06 1218.36,281 C1322.33,268.83 1439.0497,275.0341 1506.9897,280.5541" fill="none" id="observe-to-evaluate_ready" style="stroke:#0F172A;stroke-width:1;"/><polygon fill="#0F172A" points="1512.97,281.04,1504.3235,276.3243,1507.9864,280.6351,1503.6756,284.298,1512.97,281.04" style="stroke:#0F172A;stroke-width:1;"/><text fill="#000000" font-family="Helvetica" font-size="14" lengthAdjust="spacing" textLength="128.3721" x="991.86" y="280.9503">OCI state in ACTIVE</text></g><!--link observe to retryable--><g class="link" data-entity-1="ent0002" data-entity-2="ent0005" data-link-type="dependency" data-source-line="38" id="lnk9"><path d="M716.47,458.33 C779.11,460.38 855.11,462.85 923.36,465 C1172.16,472.84 1244.72,544.79 1483.36,474 C1494.77,470.62 1513.445,458.3638 1532.305,444.9138" fill="none" id="observe-to-retryable" style="stroke:#0F172A;stroke-width:1;"/><polygon fill="#0F172A" points="1537.19,441.43,1527.54,443.3989,1533.1191,444.3331,1532.185,449.9123,1537.19,441.43" style="stroke:#0F172A;stroke-width:1;"/><text fill="#000000" font-family="Helvetica" font-size="14" lengthAdjust="spacing" textLength="184.3789" x="963.86" y="446.7803">OCI state in PROVISIONING,</text><text fill="#000000" font-family="Helvetica" font-size="14" lengthAdjust="spacing" textLength="150.1309" x="980.984" y="460.7803">UPDATING, DELETING</text></g><!--link observe to failed--><g class="link" data-entity-1="ent0002" data-entity-2="ent0006" data-link-type="dependency" data-source-line="39" id="lnk10"><path d="M716.52,484.76 C778.83,498.03 854.56,512.26 923.36,520 C1162.8,546.92 1449.4516,542.7695 1534.5616,540.7895" fill="none" id="observe-to-failed" style="stroke:#0F172A;stroke-width:1;"/><polygon fill="#0F172A" points="1540.56,540.65,1531.4694,536.8604,1535.5614,540.7663,1531.6555,544.8582,1540.56,540.65" style="stroke:#0F172A;stroke-width:1;"/><text fill="#000000" font-family="Helvetica" font-size="14" lengthAdjust="spacing" textLength="263.7783" x="924.36" y="515.7803">unresolved OCI error or non-success state</text></g><!--link evaluate_ready to reject_unsupported_drift--><g class="link" data-entity-1="ent0003" data-entity-2="ent0008" data-link-type="dependency" data-source-line="40" id="lnk11"><path d="M1590.06,306.48 C1605.49,318.89 1626.81,333.85 1648.32,342 C1712.53,366.35 1784.6042,373.9058 1841.3042,376.0258" fill="none" id="evaluate_ready-to-reject_unsupported_drift" style="stroke:#0F172A;stroke-width:1;"/><polygon fill="#0F172A" points="1847.3,376.25,1838.4557,371.9165,1842.3035,376.0632,1838.1568,379.9109,1847.3,376.25" style="stroke:#0F172A;stroke-width:1;"/><text fill="#000000" font-family="Helvetica" font-size="14" lengthAdjust="spacing" textLength="143.9512" x="1659.32" y="323.7803">force-new or conflicting</text><text fill="#000000" font-family="Helvetica" font-size="14" lengthAdjust="spacing" textLength="80.9375" x="1690.8268" y="337.7803">drift detected</text></g><!--link reject_unsupported_drift to ready--><g class="link" data-entity-1="ent0008" data-entity-2="ent0004" data-link-type="dependency" data-source-line="41" id="lnk12"><path d="M2003.32,375.06 C2069.2,371.77 2165.3,361 2242.32,328 C2254.36,322.84 2261.4802,318.2363 2270.9202,310.2463" fill="none" id="reject_unsupported_drift-to-ready" style="stroke:#0F172A;stroke-width:1;"/><polygon fill="#0F172A" points="2275.5,306.37,2266.0461,309.1313,2271.6835,309.6003,2271.2146,315.2376,2275.5,306.37" style="stroke:#0F172A;stroke-width:1;"/><text fill="#000000" font-family="Helvetica" font-size="14" lengthAdjust="spacing" textLength="203.8818" x="2038.32" y="323.7803">wait for spec or live state change</text></g><!--link evaluate_ready to apply_update--><g class="link" data-entity-1="ent0003" data-entity-2="ent0009" data-link-type="dependency" data-source-line="42" id="lnk13"><path d="M1618.72,268.96 C1628.49,266.07 1638.67,263.27 1648.32,261 C1729.17,241.95 1819.2022,228.6097 1874.0322,221.3297" fill="none" id="evaluate_ready-to-apply_update" style="stroke:#0F172A;stroke-width:1;"/><polygon fill="#0F172A" points="1879.98,220.54,1870.5318,217.7594,1875.0235,221.1981,1871.5848,225.6898,1879.98,220.54" style="stroke:#0F172A;stroke-width:1;"/><text fill="#000000" font-family="Helvetica" font-size="14" lengthAdjust="spacing" textLength="163.4199" x="1649.32" y="212.0903">supported mutable drift for</text><text fill="#000000" font-family="Helvetica" font-size="14" lengthAdjust="spacing" textLength="86.3857" x="1687.8371" y="226.0903">display_name</text></g><!--link apply_update to ready--><g class="link" data-entity-1="ent0009" data-entity-2="ent0004" data-link-type="dependency" data-source-line="43" id="lnk14"><path d="M1970.88,217.45 C2032.86,221.76 2148.1,233.07 2242.32,261 C2252.36,263.98 2257.5025,265.9001 2266.6125,270.2801" fill="none" id="apply_update-to-ready" style="stroke:#0F172A;stroke-width:1;"/><polygon fill="#0F172A" points="2272.02,272.88,2265.642,265.3752,2267.5138,270.7135,2262.1756,272.5852,2272.02,272.88" style="stroke:#0F172A;stroke-width:1;"/><text fill="#000000" font-family="Helvetica" font-size="14" lengthAdjust="spacing" textLength="141.6543" x="2069.32" y="219.4503">update path completes</text></g><!--link evaluate_ready to ready--><g class="link" data-entity-1="ent0003" data-entity-2="ent0004" data-link-type="dependency" data-source-line="44" id="lnk15"><path d="M1618.73,286 C1763.46,286 2161.77,286 2265.86,286" fill="none" id="evaluate_ready-to-ready" style="stroke:#0F172A;stroke-width:1;"/><polygon fill="#0F172A" points="2271.86,286,2262.86,282,2266.86,286,2262.86,290,2271.86,286" style="stroke:#0F172A;stroke-width:1;"/><text fill="#000000" font-family="Helvetica" font-size="14" lengthAdjust="spacing" textLength="162.6406" x="1844.32" y="281.7803">no supported drift remains</text></g><!--link ready to ready--><g class="link" data-entity-1="ent0004" data-entity-2="ent0004" data-link-type="dependency" data-source-line="45" id="lnk16"><path d="M2280.35,265.69 C2273,248.73 2278.74,231 2297.55,231 C2316.36,231 2324.4858,243.2247 2317.1358,260.1847" fill="none" id="ready-to-ready" style="stroke:#0F172A;stroke-width:1;"/><polygon fill="#0F172A" points="2314.75,265.69,2321.9989,259.0227,2316.7382,261.1023,2314.6586,255.8416,2314.75,265.69" style="stroke:#0F172A;stroke-width:1;"/><text fill="#000000" font-family="Helvetica" font-size="14" lengthAdjust="spacing" textLength="162.6406" x="2216.55" y="221.7803">no supported drift remains</text></g><!--link retryable to retryable--><g class="link" data-entity-1="ent0005" data-entity-2="ent0005" data-link-type="dependency" data-source-line="46" id="lnk17"><path d="M1539.63,400.69 C1528.42,383.73 1537.16,366 1565.84,366 C1594.52,366 1606.5564,378.7232 1595.3564,395.6832" fill="none" id="retryable-to-retryable" style="stroke:#0F172A;stroke-width:1;"/><polygon fill="#0F172A" points="1592.05,400.69,1600.3474,395.3841,1594.8053,396.5177,1593.6717,390.9756,1592.05,400.69" style="stroke:#0F172A;stroke-width:1;"/><text fill="#000000" font-family="Helvetica" font-size="14" lengthAdjust="spacing" textLength="136.9307" x="1497.84" y="356.7803">OCI remains retryable</text></g><!--link failed to failed--><g class="link" data-entity-1="ent0006" data-entity-2="ent0006" data-link-type="dependency" data-source-line="47" id="lnk18"><path d="M1540.41,520.83 C1528.04,503.53 1536.52,485 1565.84,485 C1595.16,485 1607.1298,498.6493 1594.7598,515.9493" fill="none" id="failed-to-failed" style="stroke:#0F172A;stroke-width:1;"/><polygon fill="#0F172A" points="1591.27,520.83,1599.7585,515.8355,1594.1782,516.7628,1593.251,511.1824,1591.27,520.83" style="stroke:#0F172A;stroke-width:1;"/><text fill="#000000" font-family="Helvetica" font-size="14" lengthAdjust="spacing" textLength="132.2549" x="1499.84" y="475.7803">OCI remains terminal</text></g><!--link ready to delete_pending--><g class="link" data-entity-1="ent0004" data-entity-2="ent0010" data-link-type="dependency" data-source-line="48" id="lnk19"><path d="M2323.04,301.51 C2357.67,324.58 2420.93,371.03 2458.78,425 C2480.11,455.41 2459.72,479.87 2488.78,503 C2548.91,550.85 2636.4425,552.3993 2693.7625,547.4193" fill="none" id="ready-to-delete_pending" style="stroke:#0F172A;stroke-width:1;"/><polygon fill="#0F172A" points="2699.74,546.9,2690.4276,543.694,2694.7588,547.3328,2691.12,551.664,2699.74,546.9" style="stroke:#0F172A;stroke-width:1;"/><text fill="#000000" font-family="Helvetica" font-size="14" lengthAdjust="spacing" textLength="104.3027" x="2353.78" y="319.3703">delete requested</text></g><!--link retryable to delete_pending--><g class="link" data-entity-1="ent0005" data-entity-2="ent0010" data-link-type="dependency" data-source-line="49" id="lnk20"><path d="M1601.29,424.46 C1769.1,441.34 2494.9001,514.3395 2693.9401,534.3595" fill="none" id="retryable-to-delete_pending" style="stroke:#0F172A;stroke-width:1;"/><polygon fill="#0F172A" points="2699.91,534.96,2691.3555,530.0794,2694.9351,534.4596,2690.5549,538.0392,2699.91,534.96" style="stroke:#0F172A;stroke-width:1;"/><text fill="#000000" font-family="Helvetica" font-size="14" lengthAdjust="spacing" textLength="104.3027" x="2087.82" y="465.3503">delete requested</text></g><!--link failed to delete_pending--><g class="link" data-entity-1="ent0006" data-entity-2="ent0010" data-link-type="dependency" data-source-line="50" id="lnk21"><path d="M1591.28,540 C1737.45,540 2490.49,540 2693.86,540" fill="none" id="failed-to-delete_pending" style="stroke:#0F172A;stroke-width:1;"/><polygon fill="#0F172A" points="2699.86,540,2690.86,536,2694.86,540,2690.86,544,2699.86,540" style="stroke:#0F172A;stroke-width:1;"/><text fill="#000000" font-family="Helvetica" font-size="14" lengthAdjust="spacing" textLength="104.3027" x="2087.82" y="535.7803">delete requested</text></g><!--link delete_pending to delete_cleanup_blocked--><g class="link" data-entity-1="ent0010" data-entity-2="ent0012" data-link-type="dependency" data-source-line="51" id="lnk22"><path d="M2802.19,535.29 C2935.04,522.83 3290.6262,489.4704 3448.6062,474.6504" fill="none" id="delete_pending-to-delete_cleanup_blocked" style="stroke:#0F172A;stroke-width:1;"/><polygon fill="#0F172A" points="3454.58,474.09,3445.2457,470.9481,3449.6019,474.557,3445.9929,478.9131,3454.58,474.09" style="stroke:#0F172A;stroke-width:1;"/><text fill="#000000" font-family="Helvetica" font-size="14" lengthAdjust="spacing" textLength="273.1436" x="3044.29" y="484.3503">cleanup or finalizer release remains blocked</text></g><!--link delete_cleanup_blocked to deleted--><g class="link" data-entity-1="ent0012" data-entity-2="ent0011" data-link-type="dependency" data-source-line="52" id="lnk23"><path d="M3607.71,467 C3719.34,467 3917.13,467 3991.77,467" fill="none" id="delete_cleanup_blocked-to-deleted" style="stroke:#0F172A;stroke-width:1;"/><polygon fill="#0F172A" points="3997.77,467,3988.77,463,3992.77,467,3988.77,471,3997.77,467" style="stroke:#0F172A;stroke-width:1;"/><text fill="#000000" font-family="Helvetica" font-size="14" lengthAdjust="spacing" textLength="222.5645" x="3745.01" y="462.7803">retry delete completion until allowed</text></g><!--link deleted to deleted--><g class="link" data-entity-1="ent0011" data-entity-2="ent0011" data-link-type="dependency" data-source-line="53" id="lnk24"><path d="M3999.94,446.69 C3988.33,429.73 3997.39,412 4027.14,412 C4056.88,412 4069.3412,424.7803 4057.7212,441.7403" fill="none" id="deleted-to-deleted" style="stroke:#0F172A;stroke-width:1;"/><polygon fill="#0F172A" points="4054.33,446.69,4062.7167,441.5263,4057.156,442.5653,4056.1171,437.0046,4054.33,446.69" style="stroke:#0F172A;stroke-width:1;"/><text fill="#000000" font-family="Helvetica" font-size="14" lengthAdjust="spacing" textLength="92.5859" x="3981.14" y="402.7803">terminal stutter</text></g><?plantuml-src dLVTRzis47_dNq5qRqESD6lwCHSOq3ff5w1jkgRfopeOD7cokLAaIb99jM7_--v8IfOL1qKAluXtn_lytHqTlcZR22zg7ZP2kHjjrxmI9W0B0sSbv9UrTwrL2sUSvpzL4dzg9A6W4gs9hvoDxqGD_7Smrn2r5FjbBlK_m8zFHapXlRifsXzMnqz_6T-qBiBBMpvKrLFrP2hbl09V95OdZnyz_7KYGUOB_z6Za-F7ZqVyf5uwRy7puoSiwcY0NqOHWRyLSgCjy1cl8OB7B4bNDotojBD7RmjjiQLT1R66XV0hPyzg7GAImXyj-6vaBoJL_pA-9yFFAb59uemZAfdXlDf6CT1Gc--9n-e4r3Camg2noFt735IHHyUzNcyYLzg398VPHYlWK3Unmr85wNMJoDd91nUh0FuQ7d0HkClVFUliMfWMlpw0K5qIW49PUYBrSbl-X1nz9rO62gkSUlOheGsenAlI9olc-JpfuQ41US2ZnnI2IZbjmm66OB0eNDi8DXvyji8gBbllySGl5kVSw0fa9xTsFa1m2DgNtHldlhHDSIRHbgjkQH9rA_mtPktAXhPfd8-WJhskOhb3h6MxvIqLCVkhBvh6T5UDmaEI5tHUjedGovmcvzzZyH1KIIg7ismoQLTEZIJKBcjXGDYsUMaS9MUiIMRESfLPxC-V_-ApsMzyczm5PZV2lQ3TNoP5jtA7AliY8T8iTbV7qtMCvxOmgTY54TulF8IpJCuH0EG6mcVxOl7n_DFP7Ne6JA4AgdrEaRRy_OUBJ-UNvnVlpj-zHenSlJzzyP4--UdPcpFwkaDX1Y9gQsqHK4anu1Jpv9vrTXPQAI64R6qdDRVYsd6gXBARonyEOApc1zoUk9gTsGzmr5ivBs5cuIQLoDdAQ9mjTltPPWc5O984qZjrP0CvApT2HrAPEfmq6es1vDZbHjZrNlV6_OHA1WEyHlXI2hCXr8jUwT0OqIqjxYosSt7iHo4r8cuuJNtgdx0_C_c2TIEpsPo7McWRs3s5-xBl0q6H6atCKj-TKeybiPDhROKPUR4xLr2-p4qFNri8kLHZ9xulFtBY-y8JYT6boNp2ouL2GAWe2dn3U5I5r013YFqukqFBre1AwmD3wvqgbSLXXkqHjU7267Spg9hUxNE9U6mZ7XWzBifETLM_uJR2KrMrMEE-dvVpKJc7etoUOQT4xum1FqledjNvjN4OhjViajOwhxohUTm0BogtLtYpeGJK3dtZkEKOTOjEwU6wBhXglBl6eUjpzmphaQ7kDKGyqtgaohKUtm3VT0ny0nuEcV0uNsFN03vHejpC-Ml0rv4WdJHNj2HdBUu3pxOk1LwBPcgJLh4RXS2c8GH-ex73u5k3KuCwVoWoHPKmqs8NEk92E6J5_dpVYum5qwxdR0-dfUKbq_A2VdbzJSiBdsLgpkwrxuRipFcwpyjicfVy8ZaQmfad_6kguX5r5-9sbX17EAYqhr57AKy9UfvpIORHiuCyaD9NGI4Ts2JVytv7ZdV4ypBCMByfdlVm7nR6P1XXquw7P1xSV0KuFo6Dr0ZZkLzfC2emIZZ2jiOrlzIA6HrYMTxO159KbJDgkQSwotjLhD8c4jfshHsKrTNldq0prk86nYd3rwBfpvV53yAFmAG8xgpfdcDrC5m92Orit9hKLvMMt5ErQkXndND1wQyT-Nl8S9gb_ngJcJ1vmvN49q1tMr3qzBAuv-mrnFizmZnxW_c-rvrYiuo3UKR3sUaGoVy0?></g></svg>