<?plantuml 1.2026.1?><svg xmlns="http://www.w3.org/2000/svg" xmlns:xlink="http://www.w3.org/1999/xlink" contentStyleType="text/css" data-diagram-type="ACTIVITY" height="2249px" preserveAspectRatio="none" style="width:1289px;height:2249px;background:#FCFCFD;" version="1.1" viewBox="0 0 1289 2249" width="1289px" zoomAndPan="magnify"><title>Activity - fleetappsmanagement/FleetAppsManagementRunbookVersion</title><defs/><g><rect fill="#FCFCFD" height="2249" style="stroke:none;stroke-width:1;" width="1289" x="0" y="0"/><g class="title" data-source-line="10"><text fill="#000000" font-family="Helvetica" font-size="14" font-weight="bold" lengthAdjust="spacing" textLength="479.9785" x="403.4121" y="30.7803">Activity - fleetappsmanagement/FleetAppsManagementRunbookVersion</text></g><ellipse cx="679.6068" cy="55" fill="#1D4ED8" rx="10" ry="10" style="stroke:#222222;stroke-width:1;"/><rect fill="none" height="458" rx="8" ry="8" style="stroke:#000000;stroke-width:1.5;" width="698.4658" x="344.5773" y="75"/><path d="M466.6456,75 L466.6456,82 L456.6456,92 L344.5773,92" fill="none" style="stroke:#000000;stroke-width:1.5;"/><text fill="#000000" font-family="Helvetica" font-size="14" lengthAdjust="spacing" textLength="112.0684" x="347.5773" y="86.7803">Observe and Bind</text><rect fill="#F8FAFC" height="48" rx="8" ry="8" style="stroke:#0F172A;stroke-width:0.5;" width="304.7852" x="527.2142" y="109"/><text fill="#0F172A" font-family="Helvetica" font-size="14" lengthAdjust="spacing" textLength="136.9375" x="537.2142" y="129.7803">Start from shared flow</text><text fill="#0F172A" font-family="Helvetica" font-size="14" lengthAdjust="spacing" textLength="284.7852" x="537.2142" y="143.7803">shared/diagrams/shared-reconcile-activity.svg</text><rect fill="#F8FAFC" height="48" rx="8" ry="8" style="stroke:#0F172A;stroke-width:0.5;" width="355.4258" x="501.8939" y="177"/><text fill="#0F172A" font-family="Helvetica" font-size="14" lengthAdjust="spacing" textLength="335.4258" x="511.8939" y="197.7803">Read desired FleetAppsManagementRunbookVersion</text><text fill="#0F172A" font-family="Helvetica" font-size="14" lengthAdjust="spacing" textLength="235.8125" x="511.8939" y="211.7803">spec, tracked status, and delete intent</text><polygon fill="#E2E8F0" points="550.141,245,809.0726,245,821.0726,257,809.0726,269,550.141,269,538.141,257,550.141,245" style="stroke:#1D4ED8;stroke-width:0.5;"/><text fill="#0F172A" font-family="Helvetica" font-size="14" lengthAdjust="spacing" textLength="258.9316" x="550.141" y="260.7803">"Tracked or explicit OCI identity present?"</text><text fill="#000000" font-family="Helvetica" font-size="14" lengthAdjust="spacing" textLength="21.7861" x="516.3549" y="253.7803">yes</text><text fill="#000000" font-family="Helvetica" font-size="14" lengthAdjust="spacing" textLength="15.5723" x="821.0726" y="253.7803">no</text><rect fill="#F8FAFC" height="48" rx="8" ry="8" style="stroke:#0F172A;stroke-width:0.5;" width="290.8262" x="364.5773" y="279"/><text fill="#0F172A" font-family="Helvetica" font-size="14" lengthAdjust="spacing" textLength="202.3027" x="374.5773" y="299.7803">Get the current OCI resource via</text><text fill="#0F172A" font-family="Helvetica" font-size="14" lengthAdjust="spacing" textLength="270.8262" x="374.5773" y="313.7803">GetFleetAppsManagementRunbookVersion</text><rect fill="#F8FAFC" height="62" rx="8" ry="8" style="stroke:#0F172A;stroke-width:0.5;" width="327.4053" x="685.5206" y="279"/><text fill="#0F172A" font-family="Helvetica" font-size="14" lengthAdjust="spacing" textLength="259.9092" x="695.5206" y="299.7803">Resolve an existing OCI resource through</text><text fill="#0F172A" font-family="Helvetica" font-size="14" lengthAdjust="spacing" textLength="307.4053" x="695.5206" y="313.7803">ListFleetAppsManagementRunbookVersion using</text><text fill="#0F172A" font-family="Helvetica" font-size="14" lengthAdjust="spacing" textLength="175.8477" x="695.5206" y="327.7803">filters compartment_id, state</text><rect fill="#F8FAFC" height="62" rx="8" ry="8" style="stroke:#0F172A;stroke-width:0.5;" width="347.6396" x="675.4034" y="361"/><text fill="#0F172A" font-family="Helvetica" font-size="14" lengthAdjust="spacing" textLength="174.2959" x="685.4034" y="381.7803">Create the OCI resource via</text><text fill="#0F172A" font-family="Helvetica" font-size="14" lengthAdjust="spacing" textLength="327.6396" x="685.4034" y="395.7803">CreateFleetAppsManagementRunbookVersion when</text><text fill="#0F172A" font-family="Helvetica" font-size="14" lengthAdjust="spacing" textLength="168.1025" x="685.4034" y="409.7803">no reusable match is found</text><rect fill="#F8FAFC" height="48" rx="8" ry="8" style="stroke:#0F172A;stroke-width:0.5;" width="286.8955" x="705.7755" y="443"/><text fill="#0F172A" font-family="Helvetica" font-size="14" lengthAdjust="spacing" textLength="266.8955" x="715.7755" y="463.7803">Persist the resolved or created OCI identity</text><text fill="#0F172A" font-family="Helvetica" font-size="14" lengthAdjust="spacing" textLength="63.8135" x="715.7755" y="477.7803">into status</text><polygon fill="#E2E8F0" points="679.6068,497,691.6068,509,679.6068,521,667.6068,509,679.6068,497" style="stroke:#1D4ED8;stroke-width:0.5;"/><polygon fill="#E2E8F0" points="617.4305,553,741.7831,553,753.7831,565,741.7831,577,617.4305,577,605.4305,565,617.4305,553" style="stroke:#1D4ED8;stroke-width:0.5;"/><text fill="#0F172A" font-family="Helvetica" font-size="14" lengthAdjust="spacing" textLength="124.3525" x="617.4305" y="568.7803">"Delete requested?"</text><text fill="#000000" font-family="Helvetica" font-size="14" lengthAdjust="spacing" textLength="21.7861" x="583.6444" y="561.7803">yes</text><text fill="#000000" font-family="Helvetica" font-size="14" lengthAdjust="spacing" textLength="15.5723" x="753.7831" y="561.7803">no</text><rect fill="none" height="408" rx="8" ry="8" style="stroke:#000000;stroke-width:1.5;" width="644.4814" x="11" y="587"/><path d="M61.4688,587 L61.4688,594 L51.4688,604 L11,604" fill="none" style="stroke:#000000;stroke-width:1.5;"/><text fill="#000000" font-family="Helvetica" font-size="14" lengthAdjust="spacing" textLength="40.4688" x="14" y="598.7803">Delete</text><rect fill="#F8FAFC" height="104" rx="8" ry="8" style="stroke:#0F172A;stroke-width:0.5;" width="337.5156" x="170.9863" y="621"/><text fill="#0F172A" font-family="Helvetica" font-size="14" lengthAdjust="spacing" textLength="105.0684" x="180.9863" y="641.7803">Delete path uses</text><text fill="#0F172A" font-family="Helvetica" font-size="14" lengthAdjust="spacing" textLength="317.5156" x="180.9863" y="655.7803">DeleteFleetAppsManagementRunbookVersion with</text><text fill="#0F172A" font-family="Helvetica" font-size="14" lengthAdjust="spacing" textLength="73.1514" x="180.9863" y="669.7803">required via</text><text fill="#0F172A" font-family="Helvetica" font-size="14" lengthAdjust="spacing" textLength="287.1641" x="180.9863" y="683.7803">GetFleetAppsManagementRunbookVersion or</text><text fill="#0F172A" font-family="Helvetica" font-size="14" lengthAdjust="spacing" textLength="285.6123" x="180.9863" y="697.7803">ListFleetAppsManagementRunbookVersion to</text><text fill="#0F172A" font-family="Helvetica" font-size="14" lengthAdjust="spacing" textLength="144.7168" x="180.9863" y="711.7803">DELETED confirmation</text><rect fill="#F8FAFC" height="76" rx="8" ry="8" style="stroke:#0F172A;stroke-width:0.5;" width="319.6191" x="179.9346" y="752"/><text fill="#0F172A" font-family="Helvetica" font-size="14" lengthAdjust="spacing" textLength="123.7236" x="189.9346" y="772.7803">Confirm deletion via</text><text fill="#0F172A" font-family="Helvetica" font-size="14" lengthAdjust="spacing" textLength="287.1641" x="189.9346" y="786.7803">GetFleetAppsManagementRunbookVersion or</text><text fill="#0F172A" font-family="Helvetica" font-size="14" lengthAdjust="spacing" textLength="299.6191" x="189.9346" y="800.7803">ListFleetAppsManagementRunbookVersion until</text><text fill="#0F172A" font-family="Helvetica" font-size="14" lengthAdjust="spacing" textLength="147.0479" x="189.9346" y="814.7803">OCI reaches DELETED</text><polygon fill="#E2E8F0" points="191.5718,863,487.9165,863,499.9165,875,487.9165,887,191.5718,887,179.5718,875,191.5718,863" style="stroke:#1D4ED8;stroke-width:0.5;"/><text fill="#0F172A" font-family="Helvetica" font-size="14" lengthAdjust="spacing" textLength="296.3447" x="191.5718" y="878.7803">"Delete cleanup and finalizer release succeed?"</text><text fill="#000000" font-family="Helvetica" font-size="14" lengthAdjust="spacing" textLength="21.7861" x="157.7856" y="871.7803">yes</text><text fill="#000000" font-family="Helvetica" font-size="14" lengthAdjust="spacing" textLength="15.5723" x="499.9165" y="871.7803">no</text><rect fill="#F8FAFC" height="34" rx="8" ry="8" style="stroke:#0F172A;stroke-width:0.5;" width="293.1436" x="23" y="897"/><text fill="#0F172A" font-family="Helvetica" font-size="14" lengthAdjust="spacing" textLength="273.1436" x="33" y="917.7803">Remove the finalizer after delete completion</text><rect fill="#F8FAFC" height="48" rx="8" ry="8" style="stroke:#0F172A;stroke-width:0.5;" width="251.1299" x="384.3516" y="897"/><text fill="#0F172A" font-family="Helvetica" font-size="14" lengthAdjust="spacing" textLength="231.1299" x="394.3516" y="917.7803">Stay blocked until cleanup or finalizer</text><text fill="#0F172A" font-family="Helvetica" font-size="14" lengthAdjust="spacing" textLength="108.9512" x="394.3516" y="931.7803">release succeeds</text><polygon fill="#E2E8F0" points="339.7441,951,351.7441,963,339.7441,975,327.7441,963,339.7441,951" style="stroke:#1D4ED8;stroke-width:0.5;"/><ellipse cx="339.7441" cy="1040" fill="none" rx="11" ry="11" style="stroke:#222222;stroke-width:1;"/><ellipse cx="339.7441" cy="1040" fill="#222222" rx="6" ry="6" style="stroke:#222222;stroke-width:1;"/><rect fill="none" height="450" rx="8" ry="8" style="stroke:#000000;stroke-width:1.5;" width="345.916" x="852.5115" y="587"/><path d="M1003.3455,587 L1003.3455,594 L993.3455,604 L852.5115,604" fill="none" style="stroke:#000000;stroke-width:1.5;"/><text fill="#000000" font-family="Helvetica" font-size="14" lengthAdjust="spacing" textLength="140.834" x="855.5115" y="598.7803">Lifecycle Classification</text><rect fill="#F8FAFC" height="48" rx="8" ry="8" style="stroke:#0F172A;stroke-width:0.5;" width="280.5928" x="879.1731" y="670"/><text fill="#0F172A" font-family="Helvetica" font-size="14" lengthAdjust="spacing" textLength="240.4541" x="889.1731" y="690.7803">Request requeue while OCI remains in</text><text fill="#0F172A" font-family="Helvetica" font-size="14" lengthAdjust="spacing" textLength="260.5928" x="889.1731" y="704.7803">PROVISIONING, UPDATING, DELETING</text><ellipse cx="1019.4695" cy="756" fill="none" rx="11" ry="11" style="stroke:#222222;stroke-width:1;"/><ellipse cx="1019.4695" cy="756" fill="#222222" rx="6" ry="6" style="stroke:#222222;stroke-width:1;"/><polygon fill="#E2E8F0" points="933.1863,621,1105.7527,621,1117.7527,633,1105.7527,645,933.1863,645,921.1863,633,933.1863,621" style="stroke:#1D4ED8;stroke-width:0.5;"/><text fill="#000000" font-family="Helvetica" font-size="14" lengthAdjust="spacing" textLength="21.7861" x="1023.4695" y="655.7803">yes</text><text fill="#0F172A" font-family="Helvetica" font-size="14" lengthAdjust="spacing" textLength="172.5664" x="933.1863" y="636.7803">"OCI state in retryable set?"</text><rect fill="#F8FAFC" height="48" rx="8" ry="8" style="stroke:#0F172A;stroke-width:0.5;" width="293.916" x="872.5115" y="882"/><text fill="#0F172A" font-family="Helvetica" font-size="14" lengthAdjust="spacing" textLength="273.916" x="882.5115" y="902.7803">Return an unsuccessful reconcile result until</text><text fill="#0F172A" font-family="Helvetica" font-size="14" lengthAdjust="spacing" textLength="133.041" x="882.5115" y="916.7803">OCI reaches ACTIVE</text><ellipse cx="1019.4695" cy="976" fill="none" rx="11" ry="11" style="stroke:#222222;stroke-width:1;"/><ellipse cx="1019.4695" cy="976" fill="#222222" rx="6" ry="6" style="stroke:#222222;stroke-width:1;"/><polygon fill="#E2E8F0" points="898.9485,833,1139.9905,833,1151.9905,845,1139.9905,857,898.9485,857,886.9485,845,898.9485,833" style="stroke:#1D4ED8;stroke-width:0.5;"/><text fill="#000000" font-family="Helvetica" font-size="14" lengthAdjust="spacing" textLength="21.7861" x="1023.4695" y="867.7803">yes</text><text fill="#0F172A" font-family="Helvetica" font-size="14" lengthAdjust="spacing" textLength="241.042" x="898.9485" y="848.7803">"OCI state is outside success targets?"</text><rect fill="none" height="722.5" rx="8" ry="8" style="stroke:#000000;stroke-width:1.5;" width="603.3213" x="675.4814" y="1061"/><path d="M841.9014,1061 L841.9014,1068 L831.9014,1078 L675.4814,1078" fill="none" style="stroke:#000000;stroke-width:1.5;"/><text fill="#000000" font-family="Helvetica" font-size="14" lengthAdjust="spacing" textLength="156.4199" x="678.4814" y="1072.7803">Ready and Drift Handling</text><rect fill="#F8FAFC" height="48" rx="8" ry="8" style="stroke:#0F172A;stroke-width:0.5;" width="296.2402" x="871.3494" y="1095"/><text fill="#0F172A" font-family="Helvetica" font-size="14" lengthAdjust="spacing" textLength="276.2402" x="881.3494" y="1115.7803">Compare live OCI state against the imported</text><text fill="#0F172A" font-family="Helvetica" font-size="14" lengthAdjust="spacing" textLength="75.4824" x="881.3494" y="1129.7803">field surface</text><rect fill="#F8FAFC" height="48" rx="8" ry="8" style="stroke:#0F172A;stroke-width:0.5;" width="302.4473" x="868.2458" y="1212"/><text fill="#0F172A" font-family="Helvetica" font-size="14" lengthAdjust="spacing" textLength="282.4473" x="878.2458" y="1232.7803">Reject drift before OCI mutation for force-new</text><text fill="#0F172A" font-family="Helvetica" font-size="14" lengthAdjust="spacing" textLength="136.9512" x="878.2458" y="1246.7803">fields compartment_id</text><ellipse cx="1019.4695" cy="1292.5" fill="none" rx="11" ry="11" style="stroke:#222222;stroke-width:1;"/><ellipse cx="1019.4695" cy="1292.5" fill="#222222" rx="6" ry="6" style="stroke:#222222;stroke-width:1;"/><polygon fill="#E2E8F0" points="893.8865,1163,1145.0525,1163,1157.0525,1175,1145.0525,1187,893.8865,1187,881.8865,1175,893.8865,1163" style="stroke:#1D4ED8;stroke-width:0.5;"/><text fill="#000000" font-family="Helvetica" font-size="14" lengthAdjust="spacing" textLength="21.7861" x="1023.4695" y="1197.7803">yes</text><text fill="#0F172A" font-family="Helvetica" font-size="14" lengthAdjust="spacing" textLength="251.166" x="893.8865" y="1178.7803">"Force-new or conflicting drift detected?"</text><polygon fill="#E2E8F0" points="909.0417,1345.5,1129.8972,1345.5,1141.8972,1357.5,1129.8972,1369.5,909.0417,1369.5,897.0417,1357.5,909.0417,1345.5" style="stroke:#1D4ED8;stroke-width:0.5;"/><text fill="#0F172A" font-family="Helvetica" font-size="14" lengthAdjust="spacing" textLength="220.8555" x="909.0417" y="1361.2803">"Supported mutable drift detected?"</text><text fill="#000000" font-family="Helvetica" font-size="14" lengthAdjust="spacing" textLength="21.7861" x="875.2556" y="1354.2803">yes</text><text fill="#000000" font-family="Helvetica" font-size="14" lengthAdjust="spacing" textLength="15.5723" x="1141.8972" y="1354.2803">no</text><rect fill="#F8FAFC" height="48" rx="8" ry="8" style="stroke:#0F172A;stroke-width:0.5;" width="352.3154" x="695.4814" y="1379.5"/><text fill="#0F172A" font-family="Helvetica" font-size="14" lengthAdjust="spacing" textLength="332.3154" x="705.4814" y="1400.2803">Apply UpdateFleetAppsManagementRunbookVersion</text><text fill="#0F172A" font-family="Helvetica" font-size="14" lengthAdjust="spacing" textLength="226.4541" x="705.4814" y="1414.2803">only for mutable fields display_name</text><rect fill="#F8FAFC" height="34" rx="8" ry="8" style="stroke:#0F172A;stroke-width:0.5;" width="199.0059" x="1067.7969" y="1379.5"/><text fill="#0F172A" font-family="Helvetica" font-size="14" lengthAdjust="spacing" textLength="179.0059" x="1077.7969" y="1400.2803">Skip the no-op mutation path</text><polygon fill="#E2E8F0" points="1019.4695,1433.5,1031.4695,1445.5,1019.4695,1457.5,1007.4695,1445.5,1019.4695,1433.5" style="stroke:#1D4ED8;stroke-width:0.5;"/><rect fill="#F8FAFC" height="118" rx="8" ry="8" style="stroke:#0F172A;stroke-width:0.5;" width="334.3164" x="852.3113" y="1477.5"/><text fill="#0F172A" font-family="Helvetica" font-size="14" lengthAdjust="spacing" textLength="164.2061" x="862.3113" y="1498.2803">Run provider helper hooks</text><text fill="#0F172A" font-family="Helvetica" font-size="14" lengthAdjust="spacing" textLength="219.0508" x="862.3113" y="1512.2803">create=tfresource.CreateResource,</text><text fill="#0F172A" font-family="Helvetica" font-size="14" lengthAdjust="spacing" textLength="314.3164" x="862.3113" y="1526.2803">tfresource.WaitForWorkRequestWithErrorHandling</text><text fill="#0F172A" font-family="Helvetica" font-size="14" lengthAdjust="spacing" textLength="215.5439" x="862.3113" y="1540.2803">entity=template action=CREATED;</text><text fill="#0F172A" font-family="Helvetica" font-size="14" lengthAdjust="spacing" textLength="226.085" x="862.3113" y="1554.2803">update=tfresource.UpdateResource;</text><text fill="#0F172A" font-family="Helvetica" font-size="14" lengthAdjust="spacing" textLength="273.5537" x="862.3113" y="1568.2803">delete=tfresource.DeleteResource when the</text><text fill="#0F172A" font-family="Helvetica" font-size="14" lengthAdjust="spacing" textLength="220.2334" x="862.3113" y="1582.2803">matching field-driven path executes</text><rect fill="#F8FAFC" height="34" rx="8" ry="8" style="stroke:#0F172A;stroke-width:0.5;" width="303.2197" x="867.8596" y="1615.5"/><text fill="#0F172A" font-family="Helvetica" font-size="14" lengthAdjust="spacing" textLength="283.2197" x="877.8596" y="1636.2803">Return success for the ACTIVE success state</text><rect fill="#F8FAFC" height="48" rx="8" ry="8" style="stroke:#0F172A;stroke-width:0.5;" width="279.1299" x="879.9045" y="1669.5"/><text fill="#0F172A" font-family="Helvetica" font-size="14" lengthAdjust="spacing" textLength="259.1299" x="889.9045" y="1690.2803">Project required status and finalizer policy</text><text fill="#0F172A" font-family="Helvetica" font-size="14" lengthAdjust="spacing" textLength="174.3027" x="889.9045" y="1704.2803">retain-until-confirmed-delete</text><rect fill="#F8FAFC" height="34" rx="8" ry="8" style="stroke:#0F172A;stroke-width:0.5;" width="313.4189" x="862.76" y="1737.5"/><text fill="#0F172A" font-family="Helvetica" font-size="14" lengthAdjust="spacing" textLength="293.4189" x="872.76" y="1758.2803">Requeue on provisioning, updating, terminating</text><path d="M710.6068,1793.5 L710.6068,2011.5 L690.6068,2015.5 L710.6068,2019.5 L710.6068,2237.5 A0,0 0 0 0 710.6068,2237.5 L1168.225,2237.5 A0,0 0 0 0 1168.225,2237.5 L1168.225,1803.5 L1158.225,1793.5 L710.6068,1793.5 A0,0 0 0 0 710.6068,1793.5" fill="#FFF7D6" style="stroke:#B45309;stroke-width:0.5;"/><path d="M1158.225,1793.5 L1158.225,1803.5 L1168.225,1803.5 L1158.225,1793.5" fill="#FFF7D6" style="stroke:#B45309;stroke-width:0.5;"/><text fill="#334155" font-family="Helvetica" font-size="14" lengthAdjust="spacing" textLength="101.165" x="716.6068" y="1809.2803">shared diagram:</text><text fill="#334155" font-family="Helvetica" font-size="14" lengthAdjust="spacing" textLength="284.7852" x="716.6068" y="1823.2803">shared/diagrams/shared-reconcile-activity.svg</text><text fill="#334155" font-family="Helvetica" font-size="14" lengthAdjust="spacing" textLength="265.3438" x="716.6068" y="1837.2803">Start from the shared reconcile activity and</text><text fill="#334155" font-family="Helvetica" font-size="14" lengthAdjust="spacing" textLength="273.8955" x="716.6068" y="1851.2803">specialize provider-backed CRUD, wait, and</text><text fill="#334155" font-family="Helvetica" font-size="14" lengthAdjust="spacing" textLength="182.875" x="716.6068" y="1865.2803">status-projection details here.</text><text fill="#334155" font-family="Helvetica" font-size="14" lengthAdjust="spacing" textLength="229.5371" x="716.6068" y="1879.2803">Controller-local activity diagrams add</text><text fill="#334155" font-family="Helvetica" font-size="14" lengthAdjust="spacing" textLength="238.8955" x="716.6068" y="1893.2803">list-lookup hints, secret policies, delete</text><text fill="#334155" font-family="Helvetica" font-size="14" lengthAdjust="spacing" textLength="200.0332" x="716.6068" y="1907.2803">handling, and open formal gaps.</text><text fill="#334155" font-family="Helvetica" font-size="14" lengthAdjust="spacing" textLength="281.709" x="716.6068" y="1921.2803">archetype batch: Generated service-manager</text><text fill="#334155" font-family="Helvetica" font-size="14" lengthAdjust="spacing" textLength="291.0469" x="716.6068" y="1935.2803">controllers specialize the shared reconcile path</text><text fill="#334155" font-family="Helvetica" font-size="14" lengthAdjust="spacing" textLength="189.8477" x="716.6068" y="1949.2803">with formal runtime ownership.</text><text fill="#334155" font-family="Helvetica" font-size="14" lengthAdjust="spacing" textLength="190.6611" x="716.6068" y="1963.2803">service: fleetappsmanagement</text><text fill="#334155" font-family="Helvetica" font-size="14" lengthAdjust="spacing" textLength="267.7227" x="716.6068" y="1977.2803">slug: fleetappsmanagementrunbookversion</text><text fill="#334155" font-family="Helvetica" font-size="14" lengthAdjust="spacing" textLength="281.7227" x="716.6068" y="1991.2803">kind: FleetAppsManagementRunbookVersion</text><text fill="#334155" font-family="Helvetica" font-size="14" lengthAdjust="spacing" textLength="241.2402" x="716.6068" y="2005.2803">archetype: generated-service-manager</text><text fill="#334155" font-family="Helvetica" font-size="14" lengthAdjust="spacing" textLength="156.4063" x="716.6068" y="2019.2803">status/finalizer: required /</text><text fill="#334155" font-family="Helvetica" font-size="14" lengthAdjust="spacing" textLength="174.3027" x="716.6068" y="2033.2803">retain-until-confirmed-delete</text><text fill="#334155" font-family="Helvetica" font-size="14" lengthAdjust="spacing" textLength="272.3984" x="716.6068" y="2047.2803">requeue: provisioning, updating, terminating</text><text fill="#334155" font-family="Helvetica" font-size="14" lengthAdjust="spacing" textLength="295.6816" x="716.6068" y="2061.2803">provider states: create PROVISIONING; update</text><text fill="#334155" font-family="Helvetica" font-size="14" lengthAdjust="spacing" textLength="192.165" x="716.6068" y="2075.2803">UPDATING; delete DELETING</text><text fill="#334155" font-family="Helvetica" font-size="14" lengthAdjust="spacing" textLength="183.6611" x="716.6068" y="2089.2803">supported drift: display_name</text><text fill="#334155" font-family="Helvetica" font-size="14" lengthAdjust="spacing" textLength="230.3301" x="716.6068" y="2103.2803">reject before mutate: force-new fields</text><text fill="#334155" font-family="Helvetica" font-size="14" lengthAdjust="spacing" textLength="100.3789" x="716.6068" y="2117.2803">compartment_id</text><text fill="#334155" font-family="Helvetica" font-size="14" lengthAdjust="spacing" textLength="66.1445" x="716.6068" y="2131.2803">list lookup:</text><text fill="#334155" font-family="Helvetica" font-size="14" lengthAdjust="spacing" textLength="436.6182" x="716.6068" y="2145.2803">scaffold_fleetappsmanagement_fleetappsmanagementrunbookversion</text><text fill="#334155" font-family="Helvetica" font-size="14" lengthAdjust="spacing" textLength="175.8477" x="716.6068" y="2159.2803">filters compartment_id, state</text><text fill="#334155" font-family="Helvetica" font-size="14" lengthAdjust="spacing" textLength="89.4961" x="716.6068" y="2173.2803">conflicts: none</text><text fill="#334155" font-family="Helvetica" font-size="14" lengthAdjust="spacing" textLength="104.3164" x="716.6068" y="2187.2803">open gaps: none</text><text fill="#334155" font-family="Helvetica" font-size="14" lengthAdjust="spacing" textLength="224.9023" x="716.6068" y="2201.2803">Scaffold metadata only; replace with</text><text fill="#334155" font-family="Helvetica" font-size="14" lengthAdjust="spacing" textLength="244.3232" x="716.6068" y="2215.2803">controller-specific runtime states before</text><text fill="#334155" font-family="Helvetica" font-size="14" lengthAdjust="spacing" textLength="66.1445" x="716.6068" y="2229.2803">promotion.</text><ellipse cx="679.6068" cy="2015.5" fill="none" rx="11" ry="11" style="stroke:#222222;stroke-width:1;"/><ellipse cx="679.6068" cy="2015.5" fill="#222222" rx="6" ry="6" style="stroke:#222222;stroke-width:1;"/><line style="stroke:#0F172A;stroke-width:1;" x1="679.6068" x2="679.6068" y1="157" y2="177"/><polygon fill="#0F172A" points="675.6068,167,679.6068,177,683.6068,167,679.6068,171" style="stroke:#0F172A;stroke-width:1;"/><line style="stroke:#0F172A;stroke-width:1;" x1="849.2233" x2="849.2233" y1="341" y2="361"/><polygon fill="#0F172A" points="845.2233,351,849.2233,361,853.2233,351,849.2233,355" style="stroke:#0F172A;stroke-width:1;"/><line style="stroke:#0F172A;stroke-width:1;" x1="849.2233" x2="849.2233" y1="423" y2="443"/><polygon fill="#0F172A" points="845.2233,433,849.2233,443,853.2233,433,849.2233,437" style="stroke:#0F172A;stroke-width:1;"/><line style="stroke:#0F172A;stroke-width:1;" x1="538.141" x2="509.9904" y1="257" y2="257"/><line style="stroke:#0F172A;stroke-width:1;" x1="509.9904" x2="509.9904" y1="257" y2="279"/><polygon fill="#0F172A" points="505.9904,269,509.9904,279,513.9904,269,509.9904,273" style="stroke:#0F172A;stroke-width:1;"/><line style="stroke:#0F172A;stroke-width:1;" x1="821.0726" x2="849.2233" y1="257" y2="257"/><line style="stroke:#0F172A;stroke-width:1;" x1="849.2233" x2="849.2233" y1="257" y2="279"/><polygon fill="#0F172A" points="845.2233,269,849.2233,279,853.2233,269,849.2233,273" style="stroke:#0F172A;stroke-width:1;"/><line style="stroke:#0F172A;stroke-width:1;" x1="509.9904" x2="509.9904" y1="327" y2="509"/><line style="stroke:#0F172A;stroke-width:1;" x1="509.9904" x2="667.6068" y1="509" y2="509"/><polygon fill="#0F172A" points="657.6068,505,667.6068,509,657.6068,513,661.6068,509" style="stroke:#0F172A;stroke-width:1;"/><line style="stroke:#0F172A;stroke-width:1;" x1="849.2233" x2="849.2233" y1="491" y2="509"/><line style="stroke:#0F172A;stroke-width:1;" x1="849.2233" x2="691.6068" y1="509" y2="509"/><polygon fill="#0F172A" points="701.6068,505,691.6068,509,701.6068,513,697.6068,509" style="stroke:#0F172A;stroke-width:1;"/><line style="stroke:#0F172A;stroke-width:1;" x1="679.6068" x2="679.6068" y1="225" y2="245"/><polygon fill="#0F172A" points="675.6068,235,679.6068,245,683.6068,235,679.6068,239" style="stroke:#0F172A;stroke-width:1;"/><line style="stroke:#0F172A;stroke-width:1;" x1="679.6068" x2="679.6068" y1="65" y2="109"/><polygon fill="#0F172A" points="675.6068,99,679.6068,109,683.6068,99,679.6068,103" style="stroke:#0F172A;stroke-width:1;"/><line style="stroke:#0F172A;stroke-width:1;" x1="339.7441" x2="339.7441" y1="725" y2="752"/><polygon fill="#0F172A" points="335.7441,742,339.7441,752,343.7441,742,339.7441,746" style="stroke:#0F172A;stroke-width:1;"/><line style="stroke:#0F172A;stroke-width:1;" x1="179.5718" x2="169.5718" y1="875" y2="875"/><line style="stroke:#0F172A;stroke-width:1;" x1="169.5718" x2="169.5718" y1="875" y2="897"/><polygon fill="#0F172A" points="165.5718,887,169.5718,897,173.5718,887,169.5718,891" style="stroke:#0F172A;stroke-width:1;"/><line style="stroke:#0F172A;stroke-width:1;" x1="499.9165" x2="509.9165" y1="875" y2="875"/><line style="stroke:#0F172A;stroke-width:1;" x1="509.9165" x2="509.9165" y1="875" y2="897"/><polygon fill="#0F172A" points="505.9165,887,509.9165,897,513.9165,887,509.9165,891" style="stroke:#0F172A;stroke-width:1;"/><line style="stroke:#0F172A;stroke-width:1;" x1="169.5718" x2="169.5718" y1="931" y2="963"/><line style="stroke:#0F172A;stroke-width:1;" x1="169.5718" x2="327.7441" y1="963" y2="963"/><polygon fill="#0F172A" points="317.7441,959,327.7441,963,317.7441,967,321.7441,963" style="stroke:#0F172A;stroke-width:1;"/><line style="stroke:#0F172A;stroke-width:1;" x1="509.9165" x2="509.9165" y1="945" y2="963"/><line style="stroke:#0F172A;stroke-width:1;" x1="509.9165" x2="351.7441" y1="963" y2="963"/><polygon fill="#0F172A" points="361.7441,959,351.7441,963,361.7441,967,357.7441,963" style="stroke:#0F172A;stroke-width:1;"/><line style="stroke:#0F172A;stroke-width:1;" x1="339.7441" x2="339.7441" y1="828" y2="863"/><polygon fill="#0F172A" points="335.7441,853,339.7441,863,343.7441,853,339.7441,857" style="stroke:#0F172A;stroke-width:1;"/><line style="stroke:#0F172A;stroke-width:1;" x1="339.7441" x2="339.7441" y1="975" y2="1029"/><polygon fill="#0F172A" points="335.7441,1019,339.7441,1029,343.7441,1019,339.7441,1023" style="stroke:#0F172A;stroke-width:1;"/><line style="stroke:#0F172A;stroke-width:1;" x1="1019.4695" x2="1019.4695" y1="718" y2="745"/><polygon fill="#0F172A" points="1015.4695,735,1019.4695,745,1023.4695,735,1019.4695,739" style="stroke:#0F172A;stroke-width:1;"/><line style="stroke:#0F172A;stroke-width:1;" x1="1019.4695" x2="1019.4695" y1="645" y2="670"/><polygon fill="#0F172A" points="1015.4695,660,1019.4695,670,1023.4695,660,1019.4695,664" style="stroke:#0F172A;stroke-width:1;"/><line style="stroke:#0F172A;stroke-width:1;" x1="1117.7527" x2="1169.7659" y1="633" y2="633"/><polygon fill="#0F172A" points="1165.7659,709.5,1169.7659,719.5,1173.7659,709.5,1169.7659,713.5" style="stroke:#0F172A;stroke-width:1;"/><line style="stroke:#0F172A;stroke-width:1;" x1="1169.7659" x2="1169.7659" y1="633" y2="798"/><line style="stroke:#0F172A;stroke-width:1;" x1="1169.7659" x2="1019.4695" y1="798" y2="798"/><line style="stroke:#0F172A;stroke-width:1;" x1="1019.4695" x2="1019.4695" y1="798" y2="833"/><polygon fill="#0F172A" points="1015.4695,823,1019.4695,833,1023.4695,823,1019.4695,827" style="stroke:#0F172A;stroke-width:1;"/><line style="stroke:#0F172A;stroke-width:1;" x1="1019.4695" x2="1019.4695" y1="930" y2="965"/><polygon fill="#0F172A" points="1015.4695,955,1019.4695,965,1023.4695,955,1019.4695,959" style="stroke:#0F172A;stroke-width:1;"/><line style="stroke:#0F172A;stroke-width:1;" x1="1019.4695" x2="1019.4695" y1="857" y2="882"/><polygon fill="#0F172A" points="1015.4695,872,1019.4695,882,1023.4695,872,1019.4695,876" style="stroke:#0F172A;stroke-width:1;"/><line style="stroke:#0F172A;stroke-width:1;" x1="1151.9905" x2="1176.4275" y1="845" y2="845"/><polygon fill="#0F172A" points="1172.4275,921.5,1176.4275,931.5,1180.4275,921.5,1176.4275,925.5" style="stroke:#0F172A;stroke-width:1;"/><line style="stroke:#0F172A;stroke-width:1;" x1="1176.4275" x2="1176.4275" y1="845" y2="1017"/><line style="stroke:#0F172A;stroke-width:1;" x1="1176.4275" x2="1019.4695" y1="1017" y2="1017"/><line style="stroke:#0F172A;stroke-width:1;" x1="1019.4695" x2="1019.4695" y1="1017" y2="1095"/><polygon fill="#0F172A" points="1015.4695,1085,1019.4695,1095,1023.4695,1085,1019.4695,1089" style="stroke:#0F172A;stroke-width:1;"/><line style="stroke:#0F172A;stroke-width:1;" x1="1019.4695" x2="1019.4695" y1="1260" y2="1281.5"/><polygon fill="#0F172A" points="1015.4695,1271.5,1019.4695,1281.5,1023.4695,1271.5,1019.4695,1275.5" style="stroke:#0F172A;stroke-width:1;"/><line style="stroke:#0F172A;stroke-width:1;" x1="1019.4695" x2="1019.4695" y1="1187" y2="1212"/><polygon fill="#0F172A" points="1015.4695,1202,1019.4695,1212,1023.4695,1202,1019.4695,1206" style="stroke:#0F172A;stroke-width:1;"/><line style="stroke:#0F172A;stroke-width:1;" x1="1157.0525" x2="1180.6931" y1="1175" y2="1175"/><polygon fill="#0F172A" points="1176.6931,1251.5,1180.6931,1261.5,1184.6931,1251.5,1180.6931,1255.5" style="stroke:#0F172A;stroke-width:1;"/><line style="stroke:#0F172A;stroke-width:1;" x1="1180.6931" x2="1180.6931" y1="1175" y2="1325.5"/><line style="stroke:#0F172A;stroke-width:1;" x1="1180.6931" x2="1019.4695" y1="1325.5" y2="1325.5"/><line style="stroke:#0F172A;stroke-width:1;" x1="1019.4695" x2="1019.4695" y1="1325.5" y2="1345.5"/><polygon fill="#0F172A" points="1015.4695,1335.5,1019.4695,1345.5,1023.4695,1335.5,1019.4695,1339.5" style="stroke:#0F172A;stroke-width:1;"/><line style="stroke:#0F172A;stroke-width:1;" x1="1019.4695" x2="1019.4695" y1="1143" y2="1163"/><polygon fill="#0F172A" points="1015.4695,1153,1019.4695,1163,1023.4695,1153,1019.4695,1157" style="stroke:#0F172A;stroke-width:1;"/><line style="stroke:#0F172A;stroke-width:1;" x1="897.0417" x2="871.6392" y1="1357.5" y2="1357.5"/><line style="stroke:#0F172A;stroke-width:1;" x1="871.6392" x2="871.6392" y1="1357.5" y2="1379.5"/><polygon fill="#0F172A" points="867.6392,1369.5,871.6392,1379.5,875.6392,1369.5,871.6392,1373.5" style="stroke:#0F172A;stroke-width:1;"/><line style="stroke:#0F172A;stroke-width:1;" x1="1141.8972" x2="1167.2998" y1="1357.5" y2="1357.5"/><line style="stroke:#0F172A;stroke-width:1;" x1="1167.2998" x2="1167.2998" y1="1357.5" y2="1379.5"/><polygon fill="#0F172A" points="1163.2998,1369.5,1167.2998,1379.5,1171.2998,1369.5,1167.2998,1373.5" style="stroke:#0F172A;stroke-width:1;"/><line style="stroke:#0F172A;stroke-width:1;" x1="871.6392" x2="871.6392" y1="1427.5" y2="1445.5"/><line style="stroke:#0F172A;stroke-width:1;" x1="871.6392" x2="1007.4695" y1="1445.5" y2="1445.5"/><polygon fill="#0F172A" points="997.4695,1441.5,1007.4695,1445.5,997.4695,1449.5,1001.4695,1445.5" style="stroke:#0F172A;stroke-width:1;"/><line style="stroke:#0F172A;stroke-width:1;" x1="1167.2998" x2="1167.2998" y1="1413.5" y2="1445.5"/><line style="stroke:#0F172A;stroke-width:1;" x1="1167.2998" x2="1031.4695" y1="1445.5" y2="1445.5"/><polygon fill="#0F172A" points="1041.4695,1441.5,1031.4695,1445.5,1041.4695,1449.5,1037.4695,1445.5" style="stroke:#0F172A;stroke-width:1;"/><line style="stroke:#0F172A;stroke-width:1;" x1="1019.4695" x2="1019.4695" y1="1457.5" y2="1477.5"/><polygon fill="#0F172A" points="1015.4695,1467.5,1019.4695,1477.5,1023.4695,1467.5,1019.4695,1471.5" style="stroke:#0F172A;stroke-width:1;"/><line style="stroke:#0F172A;stroke-width:1;" x1="1019.4695" x2="1019.4695" y1="1595.5" y2="1615.5"/><polygon fill="#0F172A" points="1015.4695,1605.5,1019.4695,1615.5,1023.4695,1605.5,1019.4695,1609.5" style="stroke:#0F172A;stroke-width:1;"/><line style="stroke:#0F172A;stroke-width:1;" x1="1019.4695" x2="1019.4695" y1="1649.5" y2="1669.5"/><polygon fill="#0F172A" points="1015.4695,1659.5,1019.4695,1669.5,1023.4695,1659.5,1019.4695,1663.5" style="stroke:#0F172A;stroke-width:1;"/><line style="stroke:#0F172A;stroke-width:1;" x1="1019.4695" x2="1019.4695" y1="1717.5" y2="1737.5"/><polygon fill="#0F172A" points="1015.4695,1727.5,1019.4695,1737.5,1023.4695,1727.5,1019.4695,1731.5" style="stroke:#0F172A;stroke-width:1;"/><line style="stroke:#0F172A;stroke-width:1;" x1="605.4305" x2="339.7441" y1="565" y2="565"/><line style="stroke:#0F172A;stroke-width:1;" x1="339.7441" x2="339.7441" y1="565" y2="621"/><polygon fill="#0F172A" points="335.7441,611,339.7441,621,343.7441,611,339.7441,615" style="stroke:#0F172A;stroke-width:1;"/><line style="stroke:#0F172A;stroke-width:1;" x1="753.7831" x2="1019.4695" y1="565" y2="565"/><line style="stroke:#0F172A;stroke-width:1;" x1="1019.4695" x2="1019.4695" y1="565" y2="621"/><polygon fill="#0F172A" points="1015.4695,611,1019.4695,621,1023.4695,611,1019.4695,615" style="stroke:#0F172A;stroke-width:1;"/><line style="stroke:#0F172A;stroke-width:1;" x1="1019.4695" x2="1019.4695" y1="1771.5" y2="1788.5"/><line style="stroke:#0F172A;stroke-width:1;" x1="1019.4695" x2="679.6068" y1="1788.5" y2="1788.5"/><line style="stroke:#0F172A;stroke-width:1;" x1="679.6068" x2="679.6068" y1="1788.5" y2="2004.5"/><polygon fill="#0F172A" points="675.6068,1994.5,679.6068,2004.5,683.6068,1994.5,679.6068,1998.5" style="stroke:#0F172A;stroke-width:1;"/><line style="stroke:#0F172A;stroke-width:1;" x1="679.6068" x2="679.6068" y1="521" y2="553"/><polygon fill="#0F172A" points="675.6068,543,679.6068,553,683.6068,543,679.6068,547" style="stroke:#0F172A;stroke-width:1;"/><?plantuml-src jLVRRjiu47tNLn3PbnQmawPDBskZMAHEqWReDa6IjYy60beQsTnGf9QadFKk-kzxU94iEqQJVLWKGILnE9mvS-PmRE-4ghdX5RCBNkXxeUQivD9IPhkL6S_lvaOtgfXegGtxfSpnh-XP55JoHhephTmNNX7xH799JkHyjysr-9lOuL5laHkZxvFt5-NXsvVzdKex-l0WXh9yMxpPjjAc89CiPaUlNxtuTSl27v_MNxqwEdpzkhSUtEVQA3Biy4tcX9F4ZdCdbiAjs92LaiZnkhOLLtnE5IbtSEQ_7UFRxzstgqRDjBxxHiOAhVf9jgx-oTWEKD-LlCpzIZ-910PZvJhmxbiXUALLyG0RUadloXSzWxx7m-A8YdVhnRCTZgtZnctRK-U_ivlnBQy_ih0rGyA03-cplOkP9RCanbN1FWXLx27zqRMtOgNHWNU62e2hxwSglXmWj3aGimVnVMWeroeNaeOjXljsEHzdeolY1PXbXNVnQ2tWlwPym9m1OjY0M5rZ1o6qWYGvOa8vR1jdecJFzcwI7HAalsefSk7OnUISYG8slf2r8Ol7t_QUCxSWnPwjo3xFHX_9-NUMDyPWEUo1fMvCJcmf-5J1uj5enncX3zapfP_xHAsM0KM48gppVRhXrYt0WFbYgZvZzL7VhB7mC5Mba0vVMAuhNp9lU2kAGK26WE_441v2CW-JY8kFdtKFQAPAQMnlB9-XgIhkyWKJ5gm6Qt7EfJUr4JKJKmsmv-68OWFrgKAHT2eUG5A5A46yKB6JM4L3VpPaiN6hCZrQHij0nhIfvcu1NCXELVpoXCo40-B-j4309vSMgJsrK4uZdDFFfpUd9wWI2cO0Nc37Q19V8tMzxVznVWFCvLJ5wlDyGPQbSCORaEUIk6hgq4kbK5n2umssu3D8R9iyfmVb0AihlOpqMk_X9IZPzgCdPinkensW7oisapgqPmYn2m2iwNpvscm4qEEBTRhkkUnHuxCeAL_17vj8RgqeSP7v5K-MaB878tG8v08fEhCAhBRa7YOOY1W9sH1Q0IAMMgdYGbbucAhBgujlvzVd5r_EltmSiA-N9yStuIa0ZQTn2ZP4lXs1PRfn5iqHSxIMGLldvEp3M5nZb5UGHYNJif6iqrRVUBYWTrNyU79p_krq8umVVSIy3Az2wK-CA1txX4S9WGdjDGdQGaoAPKmz1ixdFl_OygAgjK6xUa4Y2M5kJCbpIWmxqv2SeQBxe0WWFPGu260H3Yl0azpj8jSV-9wCPbHg4u-l6XVA2V4n_Y_wJaTlI-53wA-REWOR7Fcw_pmCT9TSiQzryHIjd2gjOEqZQxsdi0fXQybNjmhprMOht8awWAZqKDVhxBoSjMmVuHHSLde9cXYs85dx_t0ij2vAx7jNjkA-7tNzAhqEfggtzfqBZ73ckpPtYTlVeO6d6DzCM_IfYZhztX5wDvGwzn6zdroT7dlTcA9DYwqp8pxjcJ29_TytYKBJceHRnUSzLU4s2OEhXsg8SYmfve-xalB6aHrtz6-Rn4FiKOlKxZwt5z-bqO4zdRR7wsPBtceDAgwyoZYGUHWwPvXK6cDBp66SP03jhrCLVAaHy8058C8JDA-2N_yoHdF5kWNk-R6L6J5Vk2pDIcay6cN_QLpAUaENppmvM_T_DvyYoSnFIYAasH5dE8lZqEJgwyc0tOC9WsWQe1dM4JBFlSBZ8IsOPcW_mptbZ9OI7g3ONAuFQWDdl2WoYVi81leE8evoEWncbi1E5s4MX0yHqMoHg1P7DrrJQEOAhkUyjliPDv0jjwe94oguCM8V2KDzc2JyC2hGyd66DrdU1OVYhtFU2P2dLERl_FOquokEtplw7kxjGjJxMV8_slLh8REocUzSCL45bkat0tuo5AF7vzbrdYCsRpCSRcSOotFGiNQq9lL1zbFcPkdQ6Zs5jLcdBw67x2WDRwn_kutZNihQIsxSNlJjNPVPJb-3heusb0yHXRPCSXx4pcFTtH1HBRDD4G_KOf5QQ9gSbwMMnUsEEjm-NfkVZinPUpqXVKWvPO6RdfJf_JeTpYeS0oGuyu8_HacGerSriAl7oM6W90QGZceHt0I0nxpIlkNslMA4NxZ_0W00?></g></svg>