<?plantuml 1.2026.1?><svg xmlns="http://www.w3.org/2000/svg" xmlns:xlink="http://www.w3.org/1999/xlink" contentStyleType="text/css" data-diagram-type="STATE" height="590px" preserveAspectRatio="none" style="width:3888px;height:590px;background:#FCFCFD;" version="1.1" viewBox="0 0 3888 590" width="3888px" zoomAndPan="magnify"><title>State Machine - fleetappsmanagement/FleetAppsManagementRunbookVersion</title><defs/><g><rect fill="#FCFCFD" height="590" style="stroke:none;stroke-width:1;" width="3888" x="0" y="0"/><g class="title" data-source-line="10"><text fill="#000000" font-family="Helvetica" font-size="14" font-weight="bold" lengthAdjust="spacing" textLength="523.5439" x="1675.366" y="20.7803">State Machine - fleetappsmanagement/FleetAppsManagementRunbookVersion</text></g><g><rect fill="#F8FAFC" height="62" rx="8" ry="8" style="stroke:#0F172A;stroke-width:0.5;" width="264.3643" x="378" y="403"/><line style="stroke:#0F172A;stroke-width:0.5;" x1="378" x2="642.3643" y1="427" y2="427"/><text fill="#0F172A" font-family="Helvetica" font-size="14" lengthAdjust="spacing" textLength="52.9102" x="483.7271" y="418.7803">Observe</text><text fill="#0F172A" font-family="Helvetica" font-size="14" lengthAdjust="spacing" textLength="244.3643" x="383" y="442.7803">read spec, tracked status, delete intent,</text><text fill="#0F172A" font-family="Helvetica" font-size="14" lengthAdjust="spacing" textLength="153.2822" x="383" y="456.7803">and current OCI lifecycle</text></g><rect fill="#F8FAFC" height="40" rx="8" ry="8" style="stroke:#0F172A;stroke-width:0.5;" width="104.9512" x="1439.36" y="246"/><text fill="#0F172A" font-family="Helvetica" font-size="14" lengthAdjust="spacing" textLength="94.9512" x="1444.36" y="269.7803">EvaluateReady</text><rect fill="#F8FAFC" height="40" rx="8" ry="8" style="stroke:#0F172A;stroke-width:0.5;" width="50.4688" x="2198.32" y="246"/><text fill="#0F172A" font-family="Helvetica" font-size="14" lengthAdjust="spacing" textLength="40.4688" x="2203.32" y="269.7803">Ready</text><rect fill="#F8FAFC" height="40" rx="8" ry="8" style="stroke:#0F172A;stroke-width:0.5;" width="69.917" x="1456.88" y="381"/><text fill="#0F172A" font-family="Helvetica" font-size="14" lengthAdjust="spacing" textLength="59.917" x="1461.88" y="404.7803">Retryable</text><rect fill="#F8FAFC" height="40" rx="8" ry="8" style="stroke:#0F172A;stroke-width:0.5;" width="50" x="1466.84" y="500"/><text fill="#0F172A" font-family="Helvetica" font-size="14" lengthAdjust="spacing" textLength="38.1309" x="1472.7746" y="523.7803">Failed</text><rect fill="#F8FAFC" height="40" rx="8" ry="8" style="stroke:#0F172A;stroke-width:0.5;" width="122.8477" x="920.44" y="357"/><text fill="#0F172A" font-family="Helvetica" font-size="14" lengthAdjust="spacing" textLength="112.8477" x="925.44" y="380.7803">ResolveByLookup</text><rect fill="#F8FAFC" height="40" rx="8" ry="8" style="stroke:#0F172A;stroke-width:0.5;" width="155.5098" x="1773.56" y="336"/><text fill="#0F172A" font-family="Helvetica" font-size="14" lengthAdjust="spacing" textLength="145.5098" x="1778.56" y="359.7803">RejectUnsupportedDrift</text><rect fill="#F8FAFC" height="40" rx="8" ry="8" style="stroke:#0F172A;stroke-width:0.5;" width="90.165" x="1806.23" y="175"/><text fill="#0F172A" font-family="Helvetica" font-size="14" lengthAdjust="spacing" textLength="80.165" x="1811.23" y="198.7803">ApplyUpdate</text><rect fill="#F8FAFC" height="40" rx="8" ry="8" style="stroke:#0F172A;stroke-width:0.5;" width="101.8477" x="2592.67" y="492"/><text fill="#0F172A" font-family="Helvetica" font-size="14" lengthAdjust="spacing" textLength="91.8477" x="2597.67" y="515.7803">DeletePending</text><rect fill="#F8FAFC" height="40" rx="8" ry="8" style="stroke:#0F172A;stroke-width:0.5;" width="58.2549" x="3799.57" y="426"/><text fill="#0F172A" font-family="Helvetica" font-size="14" lengthAdjust="spacing" textLength="48.2549" x="3804.57" y="449.7803">Deleted</text><rect fill="#F8FAFC" height="40" rx="8" ry="8" style="stroke:#0F172A;stroke-width:0.5;" width="152.4268" x="3285.27" y="426"/><text fill="#0F172A" font-family="Helvetica" font-size="14" lengthAdjust="spacing" textLength="142.4268" x="3290.27" y="449.7803">DeleteCleanupBlocked</text><ellipse cx="16" cy="434" fill="#222222" rx="10" ry="10" style="stroke:#222222;stroke-width:1;"/><g class="entity" data-qualified-name="GMN2" data-source-line="55" id="ent0003"><path d="M2414.78,49 L2414.78,254.28 L2249.14,265 L2414.78,262.28 L2414.78,449 A8,8 0 0 0 2422.78,457 L2864.3982,457 A8,8 0 0 0 2872.3982,449 L2872.3982,51 L2862.3982,41 L2422.78,41 A8,8 0 0 0 2414.78,49" fill="#FFF7D6" style="stroke:#B45309;stroke-width:0.5;"/><path d="M2862.3982,41 L2862.3982,47 A4,4 0 0 0 2866.3982,51 L2872.3982,51 L2862.3982,41" fill="#FFF7D6" style="stroke:#B45309;stroke-width:0.5;"/><text fill="#334155" font-family="Helvetica" font-size="14" lengthAdjust="spacing" textLength="101.165" x="2420.78" y="56.7803">shared diagram:</text><text fill="#334155" font-family="Helvetica" font-size="14" lengthAdjust="spacing" textLength="331.4814" x="2420.78" y="70.7803">shared/diagrams/shared-controller-state-machine.svg</text><text fill="#334155" font-family="Helvetica" font-size="14" lengthAdjust="spacing" textLength="304.2744" x="2420.78" y="84.7803">Start from the shared controller phase model and</text><text fill="#334155" font-family="Helvetica" font-size="14" lengthAdjust="spacing" textLength="261.4678" x="2420.78" y="98.7803">specialize imported provider states, delete</text><text fill="#334155" font-family="Helvetica" font-size="14" lengthAdjust="spacing" textLength="184.4336" x="2420.78" y="112.7803">targets, and failure exits here.</text><text fill="#334155" font-family="Helvetica" font-size="14" lengthAdjust="spacing" textLength="281.709" x="2420.78" y="126.7803">archetype batch: Generated service-manager</text><text fill="#334155" font-family="Helvetica" font-size="14" lengthAdjust="spacing" textLength="287.9229" x="2420.78" y="140.7803">controllers map provider states into the shared</text><text fill="#334155" font-family="Helvetica" font-size="14" lengthAdjust="spacing" textLength="261.4609" x="2420.78" y="154.7803">controller phases with explicit finalizer and</text><text fill="#334155" font-family="Helvetica" font-size="14" lengthAdjust="spacing" textLength="105.8477" x="2420.78" y="168.7803">requeue policies.</text><text fill="#334155" font-family="Helvetica" font-size="14" lengthAdjust="spacing" textLength="190.6611" x="2420.78" y="182.7803">service: fleetappsmanagement</text><text fill="#334155" font-family="Helvetica" font-size="14" lengthAdjust="spacing" textLength="267.7227" x="2420.78" y="196.7803">slug: fleetappsmanagementrunbookversion</text><text fill="#334155" font-family="Helvetica" font-size="14" lengthAdjust="spacing" textLength="281.7227" x="2420.78" y="210.7803">kind: FleetAppsManagementRunbookVersion</text><text fill="#334155" font-family="Helvetica" font-size="14" lengthAdjust="spacing" textLength="241.2402" x="2420.78" y="224.7803">archetype: generated-service-manager</text><text fill="#334155" font-family="Helvetica" font-size="14" lengthAdjust="spacing" textLength="156.4063" x="2420.78" y="238.7803">status/finalizer: required /</text><text fill="#334155" font-family="Helvetica" font-size="14" lengthAdjust="spacing" textLength="174.3027" x="2420.78" y="252.7803">retain-until-confirmed-delete</text><text fill="#334155" font-family="Helvetica" font-size="14" lengthAdjust="spacing" textLength="272.3984" x="2420.78" y="266.7803">requeue: provisioning, updating, terminating</text><text fill="#334155" font-family="Helvetica" font-size="14" lengthAdjust="spacing" textLength="295.6816" x="2420.78" y="280.7803">provider states: create PROVISIONING; update</text><text fill="#334155" font-family="Helvetica" font-size="14" lengthAdjust="spacing" textLength="192.165" x="2420.78" y="294.7803">UPDATING; delete DELETING</text><text fill="#334155" font-family="Helvetica" font-size="14" lengthAdjust="spacing" textLength="183.6611" x="2420.78" y="308.7803">supported drift: display_name</text><text fill="#334155" font-family="Helvetica" font-size="14" lengthAdjust="spacing" textLength="230.3301" x="2420.78" y="322.7803">reject before mutate: force-new fields</text><text fill="#334155" font-family="Helvetica" font-size="14" lengthAdjust="spacing" textLength="100.3789" x="2420.78" y="336.7803">compartment_id</text><text fill="#334155" font-family="Helvetica" font-size="14" lengthAdjust="spacing" textLength="66.1445" x="2420.78" y="350.7803">list lookup:</text><text fill="#334155" font-family="Helvetica" font-size="14" lengthAdjust="spacing" textLength="436.6182" x="2420.78" y="364.7803">scaffold_fleetappsmanagement_fleetappsmanagementrunbookversion</text><text fill="#334155" font-family="Helvetica" font-size="14" lengthAdjust="spacing" textLength="175.8477" x="2420.78" y="378.7803">filters compartment_id, state</text><text fill="#334155" font-family="Helvetica" font-size="14" lengthAdjust="spacing" textLength="89.4961" x="2420.78" y="392.7803">conflicts: none</text><text fill="#334155" font-family="Helvetica" font-size="14" lengthAdjust="spacing" textLength="104.3164" x="2420.78" y="406.7803">open gaps: none</text><text fill="#334155" font-family="Helvetica" font-size="14" lengthAdjust="spacing" textLength="224.9023" x="2420.78" y="420.7803">Scaffold metadata only; replace with</text><text fill="#334155" font-family="Helvetica" font-size="14" lengthAdjust="spacing" textLength="244.3232" x="2420.78" y="434.7803">controller-specific runtime states before</text><text fill="#334155" font-family="Helvetica" font-size="14" lengthAdjust="spacing" textLength="66.1445" x="2420.78" y="448.7803">promotion.</text></g><g class="entity" data-qualified-name="GMN5" data-source-line="86" id="ent0006"><path d="M3207.4,509 L3207.4,530.78 L2694.93,514.04 L3207.4,538.78 L3207.4,573 A8,8 0 0 0 3215.4,581 L3507.5641,581 A8,8 0 0 0 3515.5641,573 L3515.5641,511 L3505.5641,501 L3215.4,501 A8,8 0 0 0 3207.4,509" fill="#FFF7D6" style="stroke:#B45309;stroke-width:0.5;"/><path d="M3505.5641,501 L3505.5641,507 A4,4 0 0 0 3509.5641,511 L3515.5641,511 L3505.5641,501" fill="#FFF7D6" style="stroke:#B45309;stroke-width:0.5;"/><text fill="#334155" font-family="Helvetica" font-size="14" lengthAdjust="spacing" textLength="136.9717" x="3213.4" y="516.7803">delete policy: required</text><text fill="#334155" font-family="Helvetica" font-size="14" lengthAdjust="spacing" textLength="95.7305" x="3213.4" y="530.7803">delete observe:</text><text fill="#334155" font-family="Helvetica" font-size="14" lengthAdjust="spacing" textLength="287.1641" x="3213.4" y="544.7803">GetFleetAppsManagementRunbookVersion or</text><text fill="#334155" font-family="Helvetica" font-size="14" lengthAdjust="spacing" textLength="270.0469" x="3213.4" y="558.7803">ListFleetAppsManagementRunbookVersion</text><text fill="#334155" font-family="Helvetica" font-size="14" lengthAdjust="spacing" textLength="157.1855" x="3213.4" y="572.7803">delete targets: DELETED</text></g><!--link *start* to observe--><g class="link" data-entity-1="ent0002" data-entity-2="ent0002" data-link-type="dependency" data-source-line="32" id="lnk3"><path d="M26.39,434 C69.29,434 243.95,434 371.64,434" fill="none" id="*start*-to-observe" style="stroke:#0F172A;stroke-width:1;"/><polygon fill="#0F172A" points="377.64,434,368.64,430,372.64,434,368.64,438,377.64,434" style="stroke:#0F172A;stroke-width:1;"/><text fill="#000000" font-family="Helvetica" font-size="14" lengthAdjust="spacing" textLength="290.2813" x="57" y="429.7803">CreateFleetAppsManagementRunbookVersion</text></g><!--link observe to resolve_by_lookup--><g class="link" data-entity-1="ent0002" data-entity-2="ent0007" data-link-type="dependency" data-source-line="33" id="lnk4"><path d="M642.64,418.05 C733.55,407.01 844.3337,393.5731 914.1837,385.0931" fill="none" id="observe-to-resolve_by_lookup" style="stroke:#0F172A;stroke-width:1;"/><polygon fill="#0F172A" points="920.14,384.37,910.7235,381.4838,915.1764,384.9726,911.6877,389.4255,920.14,384.37" style="stroke:#0F172A;stroke-width:1;"/><text fill="#000000" font-family="Helvetica" font-size="14" lengthAdjust="spacing" textLength="145.5029" x="673.36" y="392.8403">tracked identity missing</text></g><!--link resolve_by_lookup to evaluate_ready--><g class="link" data-entity-1="ent0007" data-entity-2="ent0003" data-link-type="dependency" data-source-line="34" id="lnk5"><path d="M1043.57,365.58 C1157.1,344.19 1391.77,299.79 1409.36,295 C1419.07,292.36 1423.6038,291.0543 1433.3838,287.7043" fill="none" id="resolve_by_lookup-to-evaluate_ready" style="stroke:#0F172A;stroke-width:1;"/><polygon fill="#0F172A" points="1439.06,285.76,1429.2494,284.8923,1434.3298,287.3803,1431.8419,292.4606,1439.06,285.76" style="stroke:#0F172A;stroke-width:1;"/><text fill="#000000" font-family="Helvetica" font-size="14" lengthAdjust="spacing" textLength="154.0889" x="1199.86" y="276.7803">lookup or create reaches</text><text fill="#000000" font-family="Helvetica" font-size="14" lengthAdjust="spacing" textLength="50.5654" x="1251.6217" y="290.7803">ACTIVE</text></g><!--link resolve_by_lookup to retryable--><g class="link" data-entity-1="ent0007" data-entity-2="ent0005" data-link-type="dependency" data-source-line="35" id="lnk6"><path d="M1043.63,379.87 C1151.21,384.95 1365.8067,395.0973 1450.5967,399.0973" fill="none" id="resolve_by_lookup-to-retryable" style="stroke:#0F172A;stroke-width:1;"/><polygon fill="#0F172A" points="1456.59,399.38,1447.7885,394.9603,1451.5956,399.1444,1447.4115,402.9514,1456.59,399.38" style="stroke:#0F172A;stroke-width:1;"/><text fill="#000000" font-family="Helvetica" font-size="14" lengthAdjust="spacing" textLength="184.3789" x="1184.86" y="366.5403">OCI state in PROVISIONING,</text><text fill="#000000" font-family="Helvetica" font-size="14" lengthAdjust="spacing" textLength="150.1309" x="1201.984" y="380.5403">UPDATING, DELETING</text></g><!--link resolve_by_lookup to failed--><g class="link" data-entity-1="ent0007" data-entity-2="ent0006" data-link-type="dependency" data-source-line="36" id="lnk7"><path d="M1043.63,394.11 C1155.69,425.65 1384.5847,490.0834 1460.6747,511.5134" fill="none" id="resolve_by_lookup-to-failed" style="stroke:#0F172A;stroke-width:1;"/><polygon fill="#0F172A" points="1466.45,513.14,1458.8714,506.8499,1461.6372,511.7845,1456.7026,514.5504,1466.45,513.14" style="stroke:#0F172A;stroke-width:1;"/><text fill="#000000" font-family="Helvetica" font-size="14" lengthAdjust="spacing" textLength="263.7783" x="1145.36" y="419.0303">unresolved OCI error or non-success state</text></g><!--link observe to evaluate_ready--><g class="link" data-entity-1="ent0002" data-entity-2="ent0003" data-link-type="dependency" data-source-line="37" id="lnk8"><path d="M587.96,402.64 C614.45,392.43 644.47,381.55 672.36,373 C878.5,309.82 930.22,286.06 1144.36,261 C1248.33,248.83 1365.0497,255.0341 1432.9897,260.5541" fill="none" id="observe-to-evaluate_ready" style="stroke:#0F172A;stroke-width:1;"/><polygon fill="#0F172A" points="1438.97,261.04,1430.3235,256.3243,1433.9864,260.6351,1429.6756,264.298,1438.97,261.04" style="stroke:#0F172A;stroke-width:1;"/><text fill="#000000" font-family="Helvetica" font-size="14" lengthAdjust="spacing" textLength="128.3721" x="917.86" y="260.9503">OCI state in ACTIVE</text></g><!--link observe to retryable--><g class="link" data-entity-1="ent0002" data-entity-2="ent0005" data-link-type="dependency" data-source-line="38" id="lnk9"><path d="M642.47,438.33 C705.11,440.38 781.11,442.85 849.36,445 C1098.16,452.84 1170.72,524.79 1409.36,454 C1420.77,450.62 1439.445,438.3638 1458.305,424.9138" fill="none" id="observe-to-retryable" style="stroke:#0F172A;stroke-width:1;"/><polygon fill="#0F172A" points="1463.19,421.43,1453.54,423.3989,1459.1191,424.3331,1458.185,429.9123,1463.19,421.43" style="stroke:#0F172A;stroke-width:1;"/><text fill="#000000" font-family="Helvetica" font-size="14" lengthAdjust="spacing" textLength="184.3789" x="889.86" y="426.7803">OCI state in PROVISIONING,</text><text fill="#000000" font-family="Helvetica" font-size="14" lengthAdjust="spacing" textLength="150.1309" x="906.984" y="440.7803">UPDATING, DELETING</text></g><!--link observe to failed--><g class="link" data-entity-1="ent0002" data-entity-2="ent0006" data-link-type="dependency" data-source-line="39" id="lnk10"><path d="M642.52,464.76 C704.83,478.03 780.56,492.26 849.36,500 C1088.8,526.92 1375.4516,522.7695 1460.5616,520.7895" fill="none" id="observe-to-failed" style="stroke:#0F172A;stroke-width:1;"/><polygon fill="#0F172A" points="1466.56,520.65,1457.4694,516.8604,1461.5614,520.7663,1457.6555,524.8582,1466.56,520.65" style="stroke:#0F172A;stroke-width:1;"/><text fill="#000000" font-family="Helvetica" font-size="14" lengthAdjust="spacing" textLength="263.7783" x="850.36" y="495.7803">unresolved OCI error or non-success state</text></g><!--link evaluate_ready to reject_unsupported_drift--><g class="link" data-entity-1="ent0003" data-entity-2="ent0008" data-link-type="dependency" data-source-line="40" id="lnk11"><path d="M1516.06,286.48 C1531.49,298.89 1552.81,313.85 1574.32,322 C1638.53,346.35 1710.6042,353.9058 1767.3042,356.0258" fill="none" id="evaluate_ready-to-reject_unsupported_drift" style="stroke:#0F172A;stroke-width:1;"/><polygon fill="#0F172A" points="1773.3,356.25,1764.4557,351.9165,1768.3035,356.0632,1764.1568,359.9109,1773.3,356.25" style="stroke:#0F172A;stroke-width:1;"/><text fill="#000000" font-family="Helvetica" font-size="14" lengthAdjust="spacing" textLength="143.9512" x="1585.32" y="303.7803">force-new or conflicting</text><text fill="#000000" font-family="Helvetica" font-size="14" lengthAdjust="spacing" textLength="80.9375" x="1616.8268" y="317.7803">drift detected</text></g><!--link reject_unsupported_drift to ready--><g class="link" data-entity-1="ent0008" data-entity-2="ent0004" data-link-type="dependency" data-source-line="41" id="lnk12"><path d="M1929.32,355.06 C1995.2,351.77 2091.3,341 2168.32,308 C2180.36,302.84 2187.4802,298.2363 2196.9202,290.2463" fill="none" id="reject_unsupported_drift-to-ready" style="stroke:#0F172A;stroke-width:1;"/><polygon fill="#0F172A" points="2201.5,286.37,2192.0461,289.1313,2197.6835,289.6003,2197.2146,295.2376,2201.5,286.37" style="stroke:#0F172A;stroke-width:1;"/><text fill="#000000" font-family="Helvetica" font-size="14" lengthAdjust="spacing" textLength="203.8818" x="1964.32" y="303.7803">wait for spec or live state change</text></g><!--link evaluate_ready to apply_update--><g class="link" data-entity-1="ent0003" data-entity-2="ent0009" data-link-type="dependency" data-source-line="42" id="lnk13"><path d="M1544.72,248.96 C1554.49,246.07 1564.67,243.27 1574.32,241 C1655.17,221.95 1745.2022,208.6097 1800.0322,201.3297" fill="none" id="evaluate_ready-to-apply_update" style="stroke:#0F172A;stroke-width:1;"/><polygon fill="#0F172A" points="1805.98,200.54,1796.5318,197.7594,1801.0235,201.1981,1797.5848,205.6898,1805.98,200.54" style="stroke:#0F172A;stroke-width:1;"/><text fill="#000000" font-family="Helvetica" font-size="14" lengthAdjust="spacing" textLength="163.4199" x="1575.32" y="192.0903">supported mutable drift for</text><text fill="#000000" font-family="Helvetica" font-size="14" lengthAdjust="spacing" textLength="86.3857" x="1613.8371" y="206.0903">display_name</text></g><!--link apply_update to ready--><g class="link" data-entity-1="ent0009" data-entity-2="ent0004" data-link-type="dependency" data-source-line="43" id="lnk14"><path d="M1896.88,197.45 C1958.86,201.76 2074.1,213.07 2168.32,241 C2178.36,243.98 2183.5025,245.9001 2192.6125,250.2801" fill="none" id="apply_update-to-ready" style="stroke:#0F172A;stroke-width:1;"/><polygon fill="#0F172A" points="2198.02,252.88,2191.642,245.3752,2193.5138,250.7135,2188.1756,252.5852,2198.02,252.88" style="stroke:#0F172A;stroke-width:1;"/><text fill="#000000" font-family="Helvetica" font-size="14" lengthAdjust="spacing" textLength="141.6543" x="1995.32" y="199.4503">update path completes</text></g><!--link evaluate_ready to ready--><g class="link" data-entity-1="ent0003" data-entity-2="ent0004" data-link-type="dependency" data-source-line="44" id="lnk15"><path d="M1544.73,266 C1689.46,266 2087.77,266 2191.86,266" fill="none" id="evaluate_ready-to-ready" style="stroke:#0F172A;stroke-width:1;"/><polygon fill="#0F172A" points="2197.86,266,2188.86,262,2192.86,266,2188.86,270,2197.86,266" style="stroke:#0F172A;stroke-width:1;"/><text fill="#000000" font-family="Helvetica" font-size="14" lengthAdjust="spacing" textLength="162.6406" x="1770.32" y="261.7803">no supported drift remains</text></g><!--link ready to ready--><g class="link" data-entity-1="ent0004" data-entity-2="ent0004" data-link-type="dependency" data-source-line="45" id="lnk16"><path d="M2206.35,245.69 C2199,228.73 2204.74,211 2223.55,211 C2242.36,211 2250.4858,223.2247 2243.1358,240.1847" fill="none" id="ready-to-ready" style="stroke:#0F172A;stroke-width:1;"/><polygon fill="#0F172A" points="2240.75,245.69,2247.9989,239.0227,2242.7382,241.1023,2240.6586,235.8416,2240.75,245.69" style="stroke:#0F172A;stroke-width:1;"/><text fill="#000000" font-family="Helvetica" font-size="14" lengthAdjust="spacing" textLength="162.6406" x="2142.55" y="201.7803">no supported drift remains</text></g><!--link retryable to retryable--><g class="link" data-entity-1="ent0005" data-entity-2="ent0005" data-link-type="dependency" data-source-line="46" id="lnk17"><path d="M1465.63,380.69 C1454.42,363.73 1463.16,346 1491.84,346 C1520.52,346 1532.5564,358.7232 1521.3564,375.6832" fill="none" id="retryable-to-retryable" style="stroke:#0F172A;stroke-width:1;"/><polygon fill="#0F172A" points="1518.05,380.69,1526.3474,375.3841,1520.8053,376.5177,1519.6717,370.9756,1518.05,380.69" style="stroke:#0F172A;stroke-width:1;"/><text fill="#000000" font-family="Helvetica" font-size="14" lengthAdjust="spacing" textLength="136.9307" x="1423.84" y="336.7803">OCI remains retryable</text></g><!--link failed to failed--><g class="link" data-entity-1="ent0006" data-entity-2="ent0006" data-link-type="dependency" data-source-line="47" id="lnk18"><path d="M1466.41,500.83 C1454.04,483.53 1462.52,465 1491.84,465 C1521.16,465 1533.1298,478.6493 1520.7598,495.9493" fill="none" id="failed-to-failed" style="stroke:#0F172A;stroke-width:1;"/><polygon fill="#0F172A" points="1517.27,500.83,1525.7585,495.8355,1520.1782,496.7628,1519.251,491.1824,1517.27,500.83" style="stroke:#0F172A;stroke-width:1;"/><text fill="#000000" font-family="Helvetica" font-size="14" lengthAdjust="spacing" textLength="132.2549" x="1425.84" y="455.7803">OCI remains terminal</text></g><!--link ready to delete_pending--><g class="link" data-entity-1="ent0004" data-entity-2="ent0010" data-link-type="dependency" data-source-line="48" id="lnk19"><path d="M2249.1,281.72 C2283.51,304.84 2346.19,351.04 2384.78,404 C2404.96,431.68 2387.85,453.83 2414.78,475 C2465.35,514.73 2536.0658,519.4539 2586.2558,517.2439" fill="none" id="ready-to-delete_pending" style="stroke:#0F172A;stroke-width:1;"/><polygon fill="#0F172A" points="2592.25,516.98,2583.0828,513.3798,2587.2548,517.2,2583.4347,521.372,2592.25,516.98" style="stroke:#0F172A;stroke-width:1;"/><text fill="#000000" font-family="Helvetica" font-size="14" lengthAdjust="spacing" textLength="104.3027" x="2279.78" y="299.3403">delete requested</text></g><!--link retryable to delete_pending--><g class="link" data-entity-1="ent0005" data-entity-2="ent0010" data-link-type="dependency" data-source-line="49" id="lnk20"><path d="M1527.25,404.32 C1691.65,420.19 2391.2278,487.7335 2586.4078,506.5735" fill="none" id="retryable-to-delete_pending" style="stroke:#0F172A;stroke-width:1;"/><polygon fill="#0F172A" points="2592.38,507.15,2583.806,502.3038,2587.4031,506.6696,2583.0373,510.2668,2592.38,507.15" style="stroke:#0F172A;stroke-width:1;"/><text fill="#000000" font-family="Helvetica" font-size="14" lengthAdjust="spacing" textLength="104.3027" x="2013.82" y="443.3503">delete requested</text></g><!--link failed to delete_pending--><g class="link" data-entity-1="ent0006" data-entity-2="ent0010" data-link-type="dependency" data-source-line="50" id="lnk21"><path d="M1517.12,519.83 C1660.07,518.84 2386.5501,513.7818 2586.2501,512.3918" fill="none" id="failed-to-delete_pending" style="stroke:#0F172A;stroke-width:1;"/><polygon fill="#0F172A" points="2592.25,512.35,2583.2224,508.4127,2587.2501,512.3848,2583.2781,516.4125,2592.25,512.35" style="stroke:#0F172A;stroke-width:1;"/><text fill="#000000" font-family="Helvetica" font-size="14" lengthAdjust="spacing" textLength="104.3027" x="2013.82" y="511.1403">delete requested</text></g><!--link delete_pending to delete_cleanup_blocked--><g class="link" data-entity-1="ent0010" data-entity-2="ent0012" data-link-type="dependency" data-source-line="51" id="lnk22"><path d="M2694.93,507.36 C2818.66,495.95 3132.2153,467.0407 3278.8853,453.5207" fill="none" id="delete_pending-to-delete_cleanup_blocked" style="stroke:#0F172A;stroke-width:1;"/><polygon fill="#0F172A" points="3284.86,452.97,3275.5308,449.813,3279.8811,453.429,3276.2652,457.7792,3284.86,452.97" style="stroke:#0F172A;stroke-width:1;"/><text fill="#000000" font-family="Helvetica" font-size="14" lengthAdjust="spacing" textLength="273.1436" x="2903.4" y="459.4803">cleanup or finalizer release remains blocked</text></g><!--link delete_cleanup_blocked to deleted--><g class="link" data-entity-1="ent0012" data-entity-2="ent0011" data-link-type="dependency" data-source-line="52" id="lnk23"><path d="M3438,446 C3543.12,446 3722.56,446 3793.25,446" fill="none" id="delete_cleanup_blocked-to-deleted" style="stroke:#0F172A;stroke-width:1;"/><polygon fill="#0F172A" points="3799.25,446,3790.25,442,3794.25,446,3790.25,450,3799.25,446" style="stroke:#0F172A;stroke-width:1;"/><text fill="#000000" font-family="Helvetica" font-size="14" lengthAdjust="spacing" textLength="222.5645" x="3546.57" y="441.7803">retry delete completion until allowed</text></g><!--link deleted to deleted--><g class="link" data-entity-1="ent0011" data-entity-2="ent0011" data-link-type="dependency" data-source-line="53" id="lnk24"><path d="M3801.5,425.69 C3789.88,408.73 3798.95,391 3828.69,391 C3858.44,391 3870.8912,403.7803 3859.2712,420.7403" fill="none" id="deleted-to-deleted" style="stroke:#0F172A;stroke-width:1;"/><polygon fill="#0F172A" points="3855.88,425.69,3864.2667,420.5263,3858.706,421.5653,3857.6671,416.0046,3855.88,425.69" style="stroke:#0F172A;stroke-width:1;"/><text fill="#000000" font-family="Helvetica" font-size="14" lengthAdjust="spacing" textLength="92.5859" x="3782.69" y="381.7803">terminal stutter</text></g><?plantuml-src dLVTRnit37_NNo5qRqESD6lwCGSOq2Pf5o1DWgJjop8OiiIpjUgacwHBwWxxtqTAklFvui1OuPSJIV7pHr8ENxLjX1Sr3qkXt8Es2ru94u25dZCNykl2kzQg4sUSvpzL4dzg8A6W4gs9xvsDbw86_ZkOUuXQYkqoj_exyCEZ0LDuxnwAzkVLuUjVXZUjY_3kaGzLzLgz6aivhy0NYVdHonVFVnr9aFd2V_7YwF3bom4_gPVEM_3yy1MBEXhWjr54u1-5N6eBVC8h0n15quHQMB606cmyU4-qjqZxsDDkMZjtxkiNy44xEp0Iahv_6D-IrZULg2HnXc6KT71UhLtlQQZDTyH3TGJg3HAXrrZa_cK6giYZurulbf4hxK56yckf5N2ecxZ2-WJfTPF8sSbdL_C0_XwUSH6uozyTw-nUc1Q_Ra2eLHA0Gfbv8dLoQ_w87FrAp0qKLZbrxFT26r29LwLFLippQTB3GmDoZqUFAGILSjg6FGp105xNDc85zkwii8hBrdiyyQkJSsvq1N8brtPk83X4whlL1TQgROepYJQRhsOcKTV2Vs7MFjlGDetp4TIfrrKiTuWrQzUycI9cTnMnOLQV6uM792_eF6iJePCvJSvVO_6m1vDK3cVMPDAcd1f8g4tMYG5Xs-QTSPISeIQPERDvPh4_VlwJJoQ_yNLoJp2xs2GxyTpTeDkF4ePwkieWl2psqOhNEWGAuh4mgTZ43julFCImJ1vHrUKImfrzU_Bf_ClP4tfw8A4AAdZEYxRy-kRgo_dj-TNb-UK71CRdwzEtd-YJdvvTdD7N4mep-b1RQuk0Iee1vvKdzwopaz1A2I5aQnkfUHJNXbCbbCrS_d00GpK_uFR8rUpCTbIZtifv2HCB3wb4pbP6uq2nYpkR9HJ2JH8odzIH3UIiF0WTIMLgQz9eD0QIOvTBOHTRtHis4Ihf3V2wZIc5sH3gHQzqQ8nOpInk9xPnSUX78JKYBZ6ekg6c2TipaozODp2RpNceXRQ1_K_XhkpRG52a1cEor7UZr4F92BxMLfY15vl31ENBiFJmTmiXbshen6xvWHExXKSIWqkZeOIN2uM0K54K-5hmg0gf0VeGkndsX9Qr0PLs1eRMELKgYsCCsoDgmuKnxg5NDRxRvHBns4OyC7f6b4NggcwjBOMdgcgnm2K_BUU3SWu7-Jp1JedU6GD-aj0zgVExOZ_SBzWjxN9UULVpk0HULAwly6P92QWT-iPnjJ7g5ftImtLTSDLuTuz3r-VkwNSYGzqBY7YcdKYLQpqk_cyw1hu43_jCU9olSTK0lakYN4xv1y1ta22TD5Uq96Tf6tYsTYdmMZHZcxH_tI04DWuXy0UD7GRV6fmQrFbzaIcgX9aMkz0H5y8-A_QdszvUB9XsiPNZyyQwBniB7s1godTljZuFKxxeCZ0PPo0_E0vwnwS9wPhgTK1zX0YT96nHnIljQzHH2b72c-QiaKdiXxqyUj9NmHiTs2YpqsuR3hV1SHbRhDi9nntG-zKm6ZlOdiDnc4SqdmDEIaZ3Cy9mmbSQZ0gCsWO1IYcRQSMC3h6iQOIx55NbZ9fjgSDiTsqgRIA1QTF4NjbCtNe9D48jBbWS8dmXckvyMupp6irW9WHtrgoEiIGOeuG4DZRiF6gRIalkgKGrTB3D2Q2Sruwcmpx3OPN-D8nQVlGkAzbEU5sjaT3HorwUiWyGTy8FPnwxmCpkncdHNlfwcejzTjhx_1y0?></g></svg>