<?plantuml 1.2026.1?><svg xmlns="http://www.w3.org/2000/svg" xmlns:xlink="http://www.w3.org/1999/xlink" contentStyleType="text/css" data-diagram-type="SEQUENCE" height="2048px" preserveAspectRatio="none" style="width:1255px;height:2048px;background:#FCFCFD;" version="1.1" viewBox="0 0 1255 2048" width="1255px" zoomAndPan="magnify"><title>Sequence - opsi/OpsiEnterpriseManagerBridges</title><defs/><g><rect fill="#FCFCFD" height="2048" style="stroke:none;stroke-width:1;" width="1255" x="0" y="0"/><text fill="#000000" font-family="Helvetica" font-size="14" font-weight="bold" lengthAdjust="spacing" textLength="321.3096" x="473.324" y="25.7803">Sequence - opsi/OpsiEnterpriseManagerBridges</text><rect fill="none" height="290" rx="8" ry="8" style="stroke:#CBD5E1;stroke-width:1.5;" width="738.3779" x="494.3145" y="342"/><rect fill="none" height="146" rx="8" ry="8" style="stroke:#CBD5E1;stroke-width:1.5;" width="475.9575" x="746.7349" y="451"/><rect fill="none" height="44" rx="8" ry="8" style="stroke:#CBD5E1;stroke-width:1.5;" width="455.9575" x="756.7349" y="502"/><rect fill="none" height="840" rx="8" ry="8" style="stroke:#CBD5E1;stroke-width:1.5;" width="774.6431" x="474.3145" y="646"/><rect fill="none" height="274" rx="8" ry="8" style="stroke:#CBD5E1;stroke-width:1.5;" width="738.3779" x="484.3145" y="669"/><rect fill="none" height="58" rx="8" ry="8" style="stroke:#CBD5E1;stroke-width:1.5;" width="455.9575" x="756.7349" y="776"/><rect fill="none" height="88" rx="8" ry="8" style="stroke:#CBD5E1;stroke-width:1.5;" width="438.813" x="494.3145" y="848"/><rect fill="none" height="392" rx="8" ry="8" style="stroke:#CBD5E1;stroke-width:1.5;" width="754.6431" x="484.3145" y="1045"/><rect fill="none" height="44" rx="8" ry="8" style="stroke:#CBD5E1;stroke-width:1.5;" width="438.813" x="494.3145" y="1144"/><rect fill="none" height="130" rx="8" ry="8" style="stroke:#CBD5E1;stroke-width:1.5;" width="475.9575" x="746.7349" y="1202"/><rect fill="none" height="44" rx="8" ry="8" style="stroke:#CBD5E1;stroke-width:1.5;" width="455.9575" x="756.7349" y="1281"/><g class="participant-lifeline" data-entity-uid="part1" data-qualified-name="Kubernetes" id="part1-lifeline"><g><title>Kubernetes</title><rect fill="#000000" fill-opacity="0.00000" height="1927" width="8" x="39.8032" y="114"/><line style="stroke:#94A3B8;stroke-width:0.5;stroke-dasharray:5,5;" x1="43" x2="43" y1="114" y2="2041"/></g></g><g class="participant-lifeline" data-entity-uid="part2" data-qualified-name="Controller" id="part2-lifeline"><g><title>Controller</title><rect fill="#000000" fill-opacity="0.00000" height="1927" width="8" x="317.5122" y="114"/><line style="stroke:#94A3B8;stroke-width:0.5;stroke-dasharray:5,5;" x1="321.1675" x2="321.1675" y1="114" y2="2041"/></g></g><g class="participant-lifeline" data-entity-uid="part3" data-qualified-name="BaseReconciler" id="part3-lifeline"><g><title>BaseReconciler</title><rect fill="#000000" fill-opacity="0.00000" height="1927" width="8" x="556.3384" y="114"/><line style="stroke:#94A3B8;stroke-width:0.5;stroke-dasharray:5,5;" x1="560.3145" x2="560.3145" y1="114" y2="2041"/></g></g><g class="participant-lifeline" data-entity-uid="part4" data-qualified-name="ServiceManager" id="part4-lifeline"><g><title>OSOKServiceManager</title><rect fill="#000000" fill-opacity="0.00000" height="1927" width="8" x="840.9312" y="114"/><line style="stroke:#94A3B8;stroke-width:0.5;stroke-dasharray:5,5;" x1="844.7349" x2="844.7349" y1="114" y2="2041"/></g></g><g class="participant-lifeline" data-entity-uid="part5" data-qualified-name="OCI" id="part5-lifeline"><g><title>OCI</title><rect fill="#000000" fill-opacity="0.00000" height="1927" width="8" x="1179.2476" y="114"/><line style="stroke:#94A3B8;stroke-width:0.5;stroke-dasharray:5,5;" x1="1182.8027" x2="1182.8027" y1="114" y2="2041"/></g></g><g class="participant participant-head" data-entity-uid="part1" data-qualified-name="Kubernetes" id="part1-head"><text fill="#000000" font-family="Helvetica" font-size="14" lengthAdjust="spacing" textLength="71.6064" x="5" y="110.7803">Kubernetes</text><ellipse cx="43.8032" cy="48.5" fill="#E2E8F0" rx="8" ry="8" style="stroke:#0F172A;stroke-width:0.5;"/><path d="M43.8032,56.5 L43.8032,83.5 M30.8032,64.5 L56.8032,64.5 M43.8032,83.5 L30.8032,98.5 M43.8032,83.5 L56.8032,98.5" fill="none" style="stroke:#0F172A;stroke-width:0.5;"/></g><g class="participant participant-head" data-entity-uid="part2" data-qualified-name="Controller" id="part2-head"><rect fill="#E2E8F0" height="28" rx="8" ry="8" style="stroke:#0F172A;stroke-width:0.5;" width="74.6895" x="284.1675" y="85"/><text fill="#0F172A" font-family="Helvetica" font-size="14" lengthAdjust="spacing" textLength="60.6895" x="291.1675" y="102.7803">Controller</text></g><g class="participant participant-head" data-entity-uid="part3" data-qualified-name="BaseReconciler" id="part3-head"><rect fill="#E2E8F0" height="28" rx="8" ry="8" style="stroke:#0F172A;stroke-width:0.5;" width="112.0479" x="504.3145" y="85"/><text fill="#0F172A" font-family="Helvetica" font-size="14" lengthAdjust="spacing" textLength="98.0479" x="511.3145" y="102.7803">BaseReconciler</text></g><g class="participant participant-head" data-entity-uid="part4" data-qualified-name="ServiceManager" id="part4-head"><rect fill="#E2E8F0" height="28" rx="8" ry="8" style="stroke:#0F172A;stroke-width:0.5;" width="156.3926" x="766.7349" y="85"/><text fill="#0F172A" font-family="Helvetica" font-size="14" lengthAdjust="spacing" textLength="142.3926" x="773.7349" y="102.7803">OSOKServiceManager</text></g><g class="participant participant-head" data-entity-uid="part5" data-qualified-name="OCI" id="part5-head"><rect fill="#E2E8F0" height="28" rx="8" ry="8" style="stroke:#0F172A;stroke-width:0.5;" width="38.8896" x="1163.8027" y="85"/><text fill="#0F172A" font-family="Helvetica" font-size="14" lengthAdjust="spacing" textLength="24.8896" x="1170.8027" y="102.7803">OCI</text></g><path d="M495,137 L495,187 A8,8 0 0 0 503,195 L900,195 A8,8 0 0 0 908,187 L908,139 L898,129 L503,129 A8,8 0 0 0 495,137" fill="#FFF7D6" style="stroke:#B45309;stroke-width:0.5;"/><path d="M898,129 L898,135 A4,4 0 0 0 902,139 L908,139 L898,129" fill="#FFF7D6" style="stroke:#B45309;stroke-width:0.5;"/><text fill="#334155" font-family="Helvetica" font-size="14" lengthAdjust="spacing" textLength="111.2891" x="543.7107" y="144.7803">shared resolution:</text><text fill="#334155" font-family="Helvetica" font-size="14" lengthAdjust="spacing" textLength="307.3916" x="543.7107" y="158.7803">shared/diagrams/shared-resolution-sequence.svg</text><text fill="#334155" font-family="Helvetica" font-size="14" lengthAdjust="spacing" textLength="88.7305" x="543.7107" y="172.7803">shared delete:</text><text fill="#334155" font-family="Helvetica" font-size="14" lengthAdjust="spacing" textLength="284.833" x="543.7107" y="186.7803">shared/diagrams/shared-delete-sequence.svg</text><g class="message" data-entity-1="part1" data-entity-2="part2" id="msg1"><polygon fill="#0F172A" points="309.5122,230,319.5122,234,309.5122,238,313.5122,234" style="stroke:#0F172A;stroke-width:1;"/><line style="stroke:#0F172A;stroke-width:1;" x1="43.8032" x2="315.5122" y1="234" y2="234"/><text fill="#000000" font-family="Helvetica" font-size="14" lengthAdjust="spacing" textLength="253.709" x="50.8032" y="214.7803">enqueue OpsiEnterpriseManagerBridges</text><text fill="#000000" font-family="Helvetica" font-size="14" lengthAdjust="spacing" textLength="56.0273" x="50.8032" y="228.7803">reconcile</text></g><g class="message" data-entity-1="part2" data-entity-2="part3" id="msg2"><polygon fill="#0F172A" points="548.3384,258,558.3384,262,548.3384,266,552.3384,262" style="stroke:#0F172A;stroke-width:1;"/><line style="stroke:#0F172A;stroke-width:1;" x1="321.5122" x2="554.3384" y1="262" y2="262"/><text fill="#000000" font-family="Helvetica" font-size="14" lengthAdjust="spacing" textLength="117.4961" x="328.5122" y="256.7803">Reconcile(request)</text></g><g class="message" data-entity-1="part3" data-entity-2="part4" id="msg3"><polygon fill="#0F172A" points="832.9312,300,842.9312,304,832.9312,308,836.9312,304" style="stroke:#0F172A;stroke-width:1;"/><line style="stroke:#0F172A;stroke-width:1;" x1="560.3384" x2="838.9312" y1="304" y2="304"/><text fill="#000000" font-family="Helvetica" font-size="14" lengthAdjust="spacing" textLength="105.834" x="567.3384" y="284.7803">reconcile desired</text><text fill="#000000" font-family="Helvetica" font-size="14" lengthAdjust="spacing" textLength="195.3164" x="567.3384" y="298.7803">OpsiEnterpriseManagerBridges</text></g><path d="M502.3145,342 L555.6523,342 L555.6523,348 L545.6523,358 L494.3145,358 L494.3145,350 A8,8 0 0 1 502.3145,342" fill="#F8FAFC" style="stroke:#CBD5E1;stroke-width:1.5;"/><rect fill="none" height="290" rx="8" ry="8" style="stroke:#CBD5E1;stroke-width:1.5;" width="738.3779" x="494.3145" y="342"/><text fill="#000000" font-family="Helvetica" font-size="14" font-weight="bold" lengthAdjust="spacing" textLength="16.3379" x="509.3145" y="353.7803">alt</text><text fill="#000000" font-family="Helvetica" font-size="14" font-weight="bold" lengthAdjust="spacing" textLength="308.1094" x="570.6523" y="354.7803">[tracked or explicit OCI identity already exists]</text><g class="message" data-entity-1="part4" data-entity-2="part5" id="msg4"><polygon fill="#0F172A" points="1171.2476,374,1181.2476,378,1171.2476,382,1175.2476,378" style="stroke:#0F172A;stroke-width:1;"/><line style="stroke:#0F172A;stroke-width:1;" x1="844.9312" x2="1177.2476" y1="378" y2="378"/><text fill="#000000" font-family="Helvetica" font-size="14" lengthAdjust="spacing" textLength="217.8818" x="851.9312" y="372.7803">GetOpsiEnterpriseManagerBridges</text></g><line style="stroke:#CBD5E1;stroke-width:1;stroke-dasharray:2,2;" x1="494.3145" x2="1232.6924" y1="387" y2="387"/><text fill="#000000" font-family="Helvetica" font-size="14" font-weight="bold" lengthAdjust="spacing" textLength="185.1582" x="499.3145" y="397.7803">[tracked identity is missing]</text><g class="message" data-entity-1="part4" data-entity-2="part5" id="msg5"><polygon fill="#0F172A" points="1171.2476,432,1181.2476,436,1171.2476,440,1175.2476,436" style="stroke:#0F172A;stroke-width:1;"/><line style="stroke:#0F172A;stroke-width:1;" x1="844.9312" x2="1177.2476" y1="436" y2="436"/><text fill="#000000" font-family="Helvetica" font-size="14" lengthAdjust="spacing" textLength="259.1025" x="851.9312" y="416.7803">ListOpsiEnterpriseManagerBridges(filters:</text><text fill="#000000" font-family="Helvetica" font-size="14" lengthAdjust="spacing" textLength="143.1719" x="851.9312" y="430.7803">compartment_id, state)</text></g><path d="M754.7349,451 L808.0728,451 L808.0728,457 L798.0728,467 L746.7349,467 L746.7349,459 A8,8 0 0 1 754.7349,451" fill="#F8FAFC" style="stroke:#CBD5E1;stroke-width:1.5;"/><rect fill="none" height="146" rx="8" ry="8" style="stroke:#CBD5E1;stroke-width:1.5;" width="475.9575" x="746.7349" y="451"/><text fill="#000000" font-family="Helvetica" font-size="14" font-weight="bold" lengthAdjust="spacing" textLength="16.3379" x="761.7349" y="462.7803">alt</text><text fill="#000000" font-family="Helvetica" font-size="14" font-weight="bold" lengthAdjust="spacing" textLength="242.7031" x="823.0728" y="463.7803">[reusable OCI resource is not found]</text><g class="message" data-entity-1="part4" data-entity-2="part5" id="msg6"><polygon fill="#0F172A" points="1171.2476,483,1181.2476,487,1171.2476,491,1175.2476,487" style="stroke:#0F172A;stroke-width:1;"/><line style="stroke:#0F172A;stroke-width:1;" x1="844.9312" x2="1177.2476" y1="487" y2="487"/><text fill="#000000" font-family="Helvetica" font-size="14" lengthAdjust="spacing" textLength="237.3369" x="851.9312" y="481.7803">CreateOpsiEnterpriseManagerBridges</text></g><path d="M764.7349,502 L831.2798,502 L831.2798,508 L821.2798,518 L756.7349,518 L756.7349,510 A8,8 0 0 1 764.7349,502" fill="#F8FAFC" style="stroke:#CBD5E1;stroke-width:1.5;"/><rect fill="none" height="44" rx="8" ry="8" style="stroke:#CBD5E1;stroke-width:1.5;" width="455.9575" x="756.7349" y="502"/><text fill="#000000" font-family="Helvetica" font-size="14" font-weight="bold" lengthAdjust="spacing" textLength="29.5449" x="771.7349" y="513.7803">loop</text><text fill="#000000" font-family="Helvetica" font-size="14" font-weight="bold" lengthAdjust="spacing" textLength="215.4756" x="846.2798" y="514.7803">[create pending PROVISIONING]</text><g class="message" data-entity-1="part4" data-entity-2="part5" id="msg7"><polygon fill="#0F172A" points="1171.2476,534,1181.2476,538,1171.2476,542,1175.2476,538" style="stroke:#0F172A;stroke-width:1;"/><line style="stroke:#0F172A;stroke-width:1;" x1="844.9312" x2="1177.2476" y1="538" y2="538"/><text fill="#000000" font-family="Helvetica" font-size="14" lengthAdjust="spacing" textLength="217.8818" x="851.9312" y="532.7803">GetOpsiEnterpriseManagerBridges</text></g><line style="stroke:#CBD5E1;stroke-width:1;stroke-dasharray:2,2;" x1="746.7349" x2="1222.6924" y1="554" y2="554"/><text fill="#000000" font-family="Helvetica" font-size="14" font-weight="bold" lengthAdjust="spacing" textLength="255.2334" x="751.7349" y="564.7803">[reusable OCI resource already exists]</text><g class="message" data-entity-1="part4" data-entity-2="part5" id="msg8"><polygon fill="#0F172A" points="1171.2476,585,1181.2476,589,1171.2476,593,1175.2476,589" style="stroke:#0F172A;stroke-width:1;"/><line style="stroke:#0F172A;stroke-width:1;" x1="844.9312" x2="1177.2476" y1="589" y2="589"/><text fill="#000000" font-family="Helvetica" font-size="14" lengthAdjust="spacing" textLength="217.8818" x="851.9312" y="583.7803">GetOpsiEnterpriseManagerBridges</text></g><g class="message" data-entity-1="part4" data-entity-2="part3" id="msg9"><polygon fill="#0F172A" points="571.3384,620,561.3384,624,571.3384,628,567.3384,624" style="stroke:#0F172A;stroke-width:1;"/><line style="stroke:#0F172A;stroke-width:1;stroke-dasharray:2,2;" x1="565.3384" x2="843.9312" y1="624" y2="624"/><text fill="#000000" font-family="Helvetica" font-size="14" lengthAdjust="spacing" textLength="231.0957" x="577.3384" y="618.7803">persist resolved OCI identity in status</text></g><path d="M482.3145,646 L535.6523,646 L535.6523,652 L525.6523,662 L474.3145,662 L474.3145,654 A8,8 0 0 1 482.3145,646" fill="#F8FAFC" style="stroke:#CBD5E1;stroke-width:1.5;"/><rect fill="none" height="840" rx="8" ry="8" style="stroke:#CBD5E1;stroke-width:1.5;" width="774.6431" x="474.3145" y="646"/><text fill="#000000" font-family="Helvetica" font-size="14" font-weight="bold" lengthAdjust="spacing" textLength="16.3379" x="489.3145" y="657.7803">alt</text><text fill="#000000" font-family="Helvetica" font-size="14" font-weight="bold" lengthAdjust="spacing" textLength="120.5859" x="550.6523" y="658.7803">[delete requested]</text><path d="M492.3145,669 L571.335,669 L571.335,675 L561.335,685 L484.3145,685 L484.3145,677 A8,8 0 0 1 492.3145,669" fill="#F8FAFC" style="stroke:#CBD5E1;stroke-width:1.5;"/><rect fill="none" height="274" rx="8" ry="8" style="stroke:#CBD5E1;stroke-width:1.5;" width="738.3779" x="484.3145" y="669"/><text fill="#000000" font-family="Helvetica" font-size="14" font-weight="bold" lengthAdjust="spacing" textLength="42.0205" x="499.3145" y="680.7803">Delete</text><g class="message" data-entity-1="part4" data-entity-2="part5" id="msg10"><polygon fill="#0F172A" points="1171.2476,701,1181.2476,705,1171.2476,709,1175.2476,705" style="stroke:#0F172A;stroke-width:1;"/><line style="stroke:#0F172A;stroke-width:1;" x1="844.9312" x2="1177.2476" y1="705" y2="705"/><text fill="#000000" font-family="Helvetica" font-size="14" lengthAdjust="spacing" textLength="235.7852" x="851.9312" y="699.7803">DeleteOpsiEnterpriseManagerBridges</text></g><g class="message" data-entity-1="part4" data-entity-2="part5" id="msg11"><polygon fill="#0F172A" points="1171.2476,757,1181.2476,761,1171.2476,765,1175.2476,761" style="stroke:#0F172A;stroke-width:1;"/><line style="stroke:#0F172A;stroke-width:1;" x1="844.9312" x2="1177.2476" y1="761" y2="761"/><text fill="#000000" font-family="Helvetica" font-size="14" lengthAdjust="spacing" textLength="109.7168" x="851.9312" y="727.7803">confirm delete via</text><text fill="#000000" font-family="Helvetica" font-size="14" lengthAdjust="spacing" textLength="234.2197" x="851.9312" y="741.7803">GetOpsiEnterpriseManagerBridges or</text><text fill="#000000" font-family="Helvetica" font-size="14" lengthAdjust="spacing" textLength="217.1025" x="851.9312" y="755.7803">ListOpsiEnterpriseManagerBridges</text></g><path d="M764.7349,776 L831.2798,776 L831.2798,782 L821.2798,792 L756.7349,792 L756.7349,784 A8,8 0 0 1 764.7349,776" fill="#F8FAFC" style="stroke:#CBD5E1;stroke-width:1.5;"/><rect fill="none" height="58" rx="8" ry="8" style="stroke:#CBD5E1;stroke-width:1.5;" width="455.9575" x="756.7349" y="776"/><text fill="#000000" font-family="Helvetica" font-size="14" font-weight="bold" lengthAdjust="spacing" textLength="29.5449" x="771.7349" y="787.7803">loop</text><text fill="#000000" font-family="Helvetica" font-size="14" font-weight="bold" lengthAdjust="spacing" textLength="182.7793" x="846.2798" y="788.7803">[delete pending DELETING]</text><g class="message" data-entity-1="part4" data-entity-2="part5" id="msg12"><polygon fill="#0F172A" points="1171.2476,822,1181.2476,826,1171.2476,830,1175.2476,826" style="stroke:#0F172A;stroke-width:1;"/><line style="stroke:#0F172A;stroke-width:1;" x1="844.9312" x2="1177.2476" y1="826" y2="826"/><text fill="#000000" font-family="Helvetica" font-size="14" lengthAdjust="spacing" textLength="234.2197" x="851.9312" y="806.7803">GetOpsiEnterpriseManagerBridges or</text><text fill="#000000" font-family="Helvetica" font-size="14" lengthAdjust="spacing" textLength="217.1025" x="851.9312" y="820.7803">ListOpsiEnterpriseManagerBridges</text></g><path d="M502.3145,848 L555.6523,848 L555.6523,854 L545.6523,864 L494.3145,864 L494.3145,856 A8,8 0 0 1 502.3145,848" fill="#F8FAFC" style="stroke:#CBD5E1;stroke-width:1.5;"/><rect fill="none" height="88" rx="8" ry="8" style="stroke:#CBD5E1;stroke-width:1.5;" width="438.813" x="494.3145" y="848"/><text fill="#000000" font-family="Helvetica" font-size="14" font-weight="bold" lengthAdjust="spacing" textLength="16.3379" x="509.3145" y="859.7803">alt</text><text fill="#000000" font-family="Helvetica" font-size="14" font-weight="bold" lengthAdjust="spacing" textLength="261.4268" x="570.6523" y="860.7803">[cleanup or finalizer release is blocked]</text><g class="message" data-entity-1="part4" data-entity-2="part3" id="msg13"><polygon fill="#0F172A" points="571.3384,880,561.3384,884,571.3384,888,567.3384,884" style="stroke:#0F172A;stroke-width:1;"/><line style="stroke:#0F172A;stroke-width:1;stroke-dasharray:2,2;" x1="565.3384" x2="843.9312" y1="884" y2="884"/><text fill="#000000" font-family="Helvetica" font-size="14" lengthAdjust="spacing" textLength="170.4336" x="577.3384" y="878.7803">retain delete state and retry</text></g><line style="stroke:#CBD5E1;stroke-width:1;stroke-dasharray:2,2;" x1="494.3145" x2="933.1274" y1="893" y2="893"/><text fill="#000000" font-family="Helvetica" font-size="14" font-weight="bold" lengthAdjust="spacing" textLength="194.4824" x="499.3145" y="903.7803">[delete completion observed]</text><g class="message" data-entity-1="part4" data-entity-2="part3" id="msg14"><polygon fill="#0F172A" points="571.3384,924,561.3384,928,571.3384,932,567.3384,928" style="stroke:#0F172A;stroke-width:1;"/><line style="stroke:#0F172A;stroke-width:1;stroke-dasharray:2,2;" x1="565.3384" x2="843.9312" y1="928" y2="928"/><text fill="#000000" font-family="Helvetica" font-size="14" lengthAdjust="spacing" textLength="243.5781" x="577.3384" y="922.7803">release finalizer after delete completion</text></g><line style="stroke:#CBD5E1;stroke-width:1;stroke-dasharray:2,2;" x1="474.3145" x2="1248.9575" y1="951" y2="951"/><text fill="#000000" font-family="Helvetica" font-size="14" font-weight="bold" lengthAdjust="spacing" textLength="149.3857" x="479.3145" y="961.7803">[OCI state is retryable]</text><g class="message" data-entity-1="part4" data-entity-2="part3" id="msg15"><polygon fill="#0F172A" points="571.3384,996,561.3384,1000,571.3384,1004,567.3384,1000" style="stroke:#0F172A;stroke-width:1;"/><line style="stroke:#0F172A;stroke-width:1;stroke-dasharray:2,2;" x1="565.3384" x2="843.9312" y1="1000" y2="1000"/><text fill="#000000" font-family="Helvetica" font-size="14" lengthAdjust="spacing" textLength="184.4199" x="577.3384" y="980.7803">requeue while OCI remains in</text><text fill="#000000" font-family="Helvetica" font-size="14" lengthAdjust="spacing" textLength="260.5928" x="577.3384" y="994.7803">PROVISIONING, UPDATING, DELETING</text></g><line style="stroke:#CBD5E1;stroke-width:1;stroke-dasharray:2,2;" x1="474.3145" x2="1248.9575" y1="1009" y2="1009"/><text fill="#000000" font-family="Helvetica" font-size="14" font-weight="bold" lengthAdjust="spacing" textLength="200.751" x="479.3145" y="1019.7803">[live state requires field-aware</text><text fill="#000000" font-family="Helvetica" font-size="14" font-weight="bold" lengthAdjust="spacing" textLength="105.0068" x="479.3145" y="1033.7803">drift evaluation]</text><path d="M492.3145,1045 L620.3008,1045 L620.3008,1051 L610.3008,1061 L484.3145,1061 L484.3145,1053 A8,8 0 0 1 492.3145,1045" fill="#F8FAFC" style="stroke:#CBD5E1;stroke-width:1.5;"/><rect fill="none" height="392" rx="8" ry="8" style="stroke:#CBD5E1;stroke-width:1.5;" width="754.6431" x="484.3145" y="1045"/><text fill="#000000" font-family="Helvetica" font-size="14" font-weight="bold" lengthAdjust="spacing" textLength="90.9863" x="499.3145" y="1056.7803">Drift handling</text><path d="M798,1074 L798,1124 A8,8 0 0 0 806,1132 L1220,1132 A8,8 0 0 0 1228,1124 L1228,1076 L1218,1066 L806,1066 A8,8 0 0 0 798,1074" fill="#FFF7D6" style="stroke:#B45309;stroke-width:0.5;"/><path d="M1218,1066 L1218,1072 A4,4 0 0 0 1222,1076 L1228,1076 L1218,1066" fill="#FFF7D6" style="stroke:#B45309;stroke-width:0.5;"/><text fill="#334155" font-family="Helvetica" font-size="14" lengthAdjust="spacing" textLength="255.2813" x="881.3381" y="1081.7803">Supported update surface: display_name</text><text fill="#334155" font-family="Helvetica" font-size="14" lengthAdjust="spacing" textLength="235.7783" x="881.3381" y="1095.7803">Reject before mutate: force-new fields</text><text fill="#334155" font-family="Helvetica" font-size="14" lengthAdjust="spacing" textLength="100.3789" x="881.3381" y="1109.7803">compartment_id</text><text fill="#334155" font-family="Helvetica" font-size="14" lengthAdjust="spacing" textLength="229.5576" x="881.3381" y="1123.7803">Lookup filters: compartment_id, state</text><path d="M502.3145,1144 L561.0801,1144 L561.0801,1150 L551.0801,1160 L494.3145,1160 L494.3145,1152 A8,8 0 0 1 502.3145,1144" fill="#F8FAFC" style="stroke:#CBD5E1;stroke-width:1.5;"/><rect fill="none" height="44" rx="8" ry="8" style="stroke:#CBD5E1;stroke-width:1.5;" width="438.813" x="494.3145" y="1144"/><text fill="#000000" font-family="Helvetica" font-size="14" font-weight="bold" lengthAdjust="spacing" textLength="21.7656" x="509.3145" y="1155.7803">opt</text><text fill="#000000" font-family="Helvetica" font-size="14" font-weight="bold" lengthAdjust="spacing" textLength="276.1309" x="576.0801" y="1156.7803">[force-new or conflicting drift is detected]</text><g class="message" data-entity-1="part4" data-entity-2="part3" id="msg16"><polygon fill="#0F172A" points="571.3384,1176,561.3384,1180,571.3384,1184,567.3384,1180" style="stroke:#0F172A;stroke-width:1;"/><line style="stroke:#0F172A;stroke-width:1;stroke-dasharray:2,2;" x1="565.3384" x2="843.9312" y1="1180" y2="1180"/><text fill="#000000" font-family="Helvetica" font-size="14" lengthAdjust="spacing" textLength="164.1855" x="577.3384" y="1174.7803">reject before OCI mutation</text></g><path d="M754.7349,1202 L813.5005,1202 L813.5005,1208 L803.5005,1218 L746.7349,1218 L746.7349,1210 A8,8 0 0 1 754.7349,1202" fill="#F8FAFC" style="stroke:#CBD5E1;stroke-width:1.5;"/><rect fill="none" height="130" rx="8" ry="8" style="stroke:#CBD5E1;stroke-width:1.5;" width="475.9575" x="746.7349" y="1202"/><text fill="#000000" font-family="Helvetica" font-size="14" font-weight="bold" lengthAdjust="spacing" textLength="21.7656" x="761.7349" y="1213.7803">opt</text><text fill="#000000" font-family="Helvetica" font-size="14" font-weight="bold" lengthAdjust="spacing" textLength="243.4619" x="828.5005" y="1214.7803">[supported mutable drift is detected]</text><g class="message" data-entity-1="part4" data-entity-2="part5" id="msg17"><polygon fill="#0F172A" points="1171.2476,1262,1181.2476,1266,1171.2476,1270,1175.2476,1266" style="stroke:#0F172A;stroke-width:1;"/><line style="stroke:#0F172A;stroke-width:1;" x1="844.9312" x2="1177.2476" y1="1266" y2="1266"/><text fill="#000000" font-family="Helvetica" font-size="14" lengthAdjust="spacing" textLength="35.0205" x="851.9312" y="1232.7803">Apply</text><text fill="#000000" font-family="Helvetica" font-size="14" lengthAdjust="spacing" textLength="240.4609" x="851.9312" y="1246.7803">UpdateOpsiEnterpriseManagerBridges</text><text fill="#000000" font-family="Helvetica" font-size="14" lengthAdjust="spacing" textLength="226.4541" x="851.9312" y="1260.7803">only for mutable fields display_name</text></g><path d="M764.7349,1281 L831.2798,1281 L831.2798,1287 L821.2798,1297 L756.7349,1297 L756.7349,1289 A8,8 0 0 1 764.7349,1281" fill="#F8FAFC" style="stroke:#CBD5E1;stroke-width:1.5;"/><rect fill="none" height="44" rx="8" ry="8" style="stroke:#CBD5E1;stroke-width:1.5;" width="455.9575" x="756.7349" y="1281"/><text fill="#000000" font-family="Helvetica" font-size="14" font-weight="bold" lengthAdjust="spacing" textLength="29.5449" x="771.7349" y="1292.7803">loop</text><text fill="#000000" font-family="Helvetica" font-size="14" font-weight="bold" lengthAdjust="spacing" textLength="190.5381" x="846.2798" y="1293.7803">[update pending UPDATING]</text><g class="message" data-entity-1="part4" data-entity-2="part5" id="msg18"><polygon fill="#0F172A" points="1171.2476,1313,1181.2476,1317,1171.2476,1321,1175.2476,1317" style="stroke:#0F172A;stroke-width:1;"/><line style="stroke:#0F172A;stroke-width:1;" x1="844.9312" x2="1177.2476" y1="1317" y2="1317"/><text fill="#000000" font-family="Helvetica" font-size="14" lengthAdjust="spacing" textLength="217.8818" x="851.9312" y="1311.7803">GetOpsiEnterpriseManagerBridges</text></g><g class="message" data-entity-1="part4" data-entity-2="part5" id="msg19"><polygon fill="#0F172A" points="1171.2476,1425,1181.2476,1429,1171.2476,1433,1175.2476,1429" style="stroke:#0F172A;stroke-width:1;"/><line style="stroke:#0F172A;stroke-width:1;" x1="844.9312" x2="1177.2476" y1="1429" y2="1429"/><text fill="#000000" font-family="Helvetica" font-size="14" lengthAdjust="spacing" textLength="104.2891" x="851.9312" y="1353.7803">run helper hooks</text><text fill="#000000" font-family="Helvetica" font-size="14" lengthAdjust="spacing" textLength="219.0508" x="851.9312" y="1367.7803">create=tfresource.CreateResource,</text><text fill="#000000" font-family="Helvetica" font-size="14" lengthAdjust="spacing" textLength="314.3164" x="851.9312" y="1381.7803">tfresource.WaitForWorkRequestWithErrorHandling</text><text fill="#000000" font-family="Helvetica" font-size="14" lengthAdjust="spacing" textLength="215.5439" x="851.9312" y="1395.7803">entity=template action=CREATED;</text><text fill="#000000" font-family="Helvetica" font-size="14" lengthAdjust="spacing" textLength="226.085" x="851.9312" y="1409.7803">update=tfresource.UpdateResource;</text><text fill="#000000" font-family="Helvetica" font-size="14" lengthAdjust="spacing" textLength="212.8438" x="851.9312" y="1423.7803">delete=tfresource.DeleteResource</text></g><g class="message" data-entity-1="part4" data-entity-2="part3" id="msg20"><polygon fill="#0F172A" points="571.3384,1474,561.3384,1478,571.3384,1482,567.3384,1478" style="stroke:#0F172A;stroke-width:1;"/><line style="stroke:#0F172A;stroke-width:1;stroke-dasharray:2,2;" x1="565.3384" x2="843.9312" y1="1478" y2="1478"/><text fill="#000000" font-family="Helvetica" font-size="14" lengthAdjust="spacing" textLength="100.7822" x="577.3384" y="1458.7803">status=required,</text><text fill="#000000" font-family="Helvetica" font-size="14" lengthAdjust="spacing" textLength="230.7197" x="577.3384" y="1472.7803">finalizer=retain-until-confirmed-delete</text></g><g class="message" data-entity-1="part3" data-entity-2="part2" id="msg21"><polygon fill="#0F172A" points="332.5122,1523,322.5122,1527,332.5122,1531,328.5122,1527" style="stroke:#0F172A;stroke-width:1;"/><line style="stroke:#0F172A;stroke-width:1;stroke-dasharray:2,2;" x1="326.5122" x2="559.3384" y1="1527" y2="1527"/><text fill="#000000" font-family="Helvetica" font-size="14" lengthAdjust="spacing" textLength="214.8262" x="338.5122" y="1507.7803">requeue on provisioning, updating,</text><text fill="#000000" font-family="Helvetica" font-size="14" lengthAdjust="spacing" textLength="69.2549" x="338.5122" y="1521.7803">terminating</text></g><path d="M849,1548 L849,2018 A8,8 0 0 0 857,2026 L1169,2026 A8,8 0 0 0 1177,2018 L1177,1550 L1167,1540 L857,1540 A8,8 0 0 0 849,1548" fill="#FFF7D6" style="stroke:#B45309;stroke-width:0.5;"/><path d="M1167,1540 L1167,1546 A4,4 0 0 0 1171,1550 L1177,1550 L1167,1540" fill="#FFF7D6" style="stroke:#B45309;stroke-width:0.5;"/><text fill="#334155" font-family="Helvetica" font-size="14" lengthAdjust="spacing" textLength="101.165" x="855" y="1555.7803">shared diagram:</text><text fill="#334155" font-family="Helvetica" font-size="14" lengthAdjust="spacing" textLength="307.3916" x="855" y="1569.7803">shared/diagrams/shared-resolution-sequence.svg</text><text fill="#334155" font-family="Helvetica" font-size="14" lengthAdjust="spacing" textLength="143.1992" x="855" y="1583.7803">shared delete diagram:</text><text fill="#334155" font-family="Helvetica" font-size="14" lengthAdjust="spacing" textLength="284.833" x="855" y="1597.7803">shared/diagrams/shared-delete-sequence.svg</text><text fill="#334155" font-family="Helvetica" font-size="14" lengthAdjust="spacing" textLength="280.9297" x="855" y="1611.7803">Start from the shared resolution sequence for</text><text fill="#334155" font-family="Helvetica" font-size="14" lengthAdjust="spacing" textLength="260.7295" x="855" y="1625.7803">OCID binding, datasource pagination, and</text><text fill="#334155" font-family="Helvetica" font-size="14" lengthAdjust="spacing" textLength="163.4268" x="855" y="1639.7803">create-or-update dispatch.</text><text fill="#334155" font-family="Helvetica" font-size="14" lengthAdjust="spacing" textLength="301.1982" x="855" y="1653.7803">Layer the shared delete sequence when finalizer</text><text fill="#334155" font-family="Helvetica" font-size="14" lengthAdjust="spacing" textLength="269.2471" x="855" y="1667.7803">retention, delete confirmation, work-request</text><text fill="#334155" font-family="Helvetica" font-size="14" lengthAdjust="spacing" textLength="199.2334" x="855" y="1681.7803">polling, or Secret cleanup apply.</text><text fill="#334155" font-family="Helvetica" font-size="14" lengthAdjust="spacing" textLength="281.709" x="855" y="1695.7803">archetype batch: Generated service-manager</text><text fill="#334155" font-family="Helvetica" font-size="14" lengthAdjust="spacing" textLength="266.1504" x="855" y="1709.7803">controllers follow the shared resolution and</text><text fill="#334155" font-family="Helvetica" font-size="14" lengthAdjust="spacing" textLength="259.9297" x="855" y="1723.7803">delete sequences with imported waits and</text><text fill="#334155" font-family="Helvetica" font-size="14" lengthAdjust="spacing" textLength="134.6064" x="855" y="1737.7803">controller-local policy.</text><text fill="#334155" font-family="Helvetica" font-size="14" lengthAdjust="spacing" textLength="77.8066" x="855" y="1751.7803">service: opsi</text><text fill="#334155" font-family="Helvetica" font-size="14" lengthAdjust="spacing" textLength="222.5713" x="855" y="1765.7803">slug: opsienterprisemanagerbridges</text><text fill="#334155" font-family="Helvetica" font-size="14" lengthAdjust="spacing" textLength="228.7783" x="855" y="1779.7803">kind: OpsiEnterpriseManagerBridges</text><text fill="#334155" font-family="Helvetica" font-size="14" lengthAdjust="spacing" textLength="241.2402" x="855" y="1793.7803">archetype: generated-service-manager</text><text fill="#334155" font-family="Helvetica" font-size="14" lengthAdjust="spacing" textLength="156.4063" x="855" y="1807.7803">status/finalizer: required /</text><text fill="#334155" font-family="Helvetica" font-size="14" lengthAdjust="spacing" textLength="174.3027" x="855" y="1821.7803">retain-until-confirmed-delete</text><text fill="#334155" font-family="Helvetica" font-size="14" lengthAdjust="spacing" textLength="272.3984" x="855" y="1835.7803">requeue: provisioning, updating, terminating</text><text fill="#334155" font-family="Helvetica" font-size="14" lengthAdjust="spacing" textLength="295.6816" x="855" y="1849.7803">provider states: create PROVISIONING; update</text><text fill="#334155" font-family="Helvetica" font-size="14" lengthAdjust="spacing" textLength="192.165" x="855" y="1863.7803">UPDATING; delete DELETING</text><text fill="#334155" font-family="Helvetica" font-size="14" lengthAdjust="spacing" textLength="183.6611" x="855" y="1877.7803">supported drift: display_name</text><text fill="#334155" font-family="Helvetica" font-size="14" lengthAdjust="spacing" textLength="230.3301" x="855" y="1891.7803">reject before mutate: force-new fields</text><text fill="#334155" font-family="Helvetica" font-size="14" lengthAdjust="spacing" textLength="100.3789" x="855" y="1905.7803">compartment_id</text><text fill="#334155" font-family="Helvetica" font-size="14" lengthAdjust="spacing" textLength="66.1445" x="855" y="1919.7803">list lookup:</text><text fill="#334155" font-family="Helvetica" font-size="14" lengthAdjust="spacing" textLength="278.6123" x="855" y="1933.7803">scaffold_opsi_opsienterprisemanagerbridges</text><text fill="#334155" font-family="Helvetica" font-size="14" lengthAdjust="spacing" textLength="175.8477" x="855" y="1947.7803">filters compartment_id, state</text><text fill="#334155" font-family="Helvetica" font-size="14" lengthAdjust="spacing" textLength="89.4961" x="855" y="1961.7803">conflicts: none</text><text fill="#334155" font-family="Helvetica" font-size="14" lengthAdjust="spacing" textLength="104.3164" x="855" y="1975.7803">open gaps: none</text><text fill="#334155" font-family="Helvetica" font-size="14" lengthAdjust="spacing" textLength="224.9023" x="855" y="1989.7803">Scaffold metadata only; replace with</text><text fill="#334155" font-family="Helvetica" font-size="14" lengthAdjust="spacing" textLength="244.3232" x="855" y="2003.7803">controller-specific runtime states before</text><text fill="#334155" font-family="Helvetica" font-size="14" lengthAdjust="spacing" textLength="66.1445" x="855" y="2017.7803">promotion.</text><?plantuml-src hLTRRzis57xNhpZeNbeWIfecwSL11hH9rWRDcY9krnS30IqTsLmeKYCfkzwm_xx3YsJ9iHsZ7GeqiaYUw_TzXpBtN5PCinBCbELgpkK42YOC9gPT6RFiVg9LBVDp9PI6NugC_kMT7JaMh1RsDoNj9rOYV40nGyipjdxFaF-DS7ZSMMHQgtcq_hmuVFMYUr8gY-yUn50Kh_ANgxkKpb777UFZawFdRrPsEFTn_UZe-F3afBFkpMTAIzHm-3Ant0g48VvLeymGKb2LuGStzD-bjAWhpGt-pYIRe7wdUJv1aqnvZb0ePSVgUyUmQMpyam2mp2hT2pGct2ojPeely7Nnd9R96DMKLqpQzUUx6tQnqYb6QqFm0g-vx9VopJ4x6h-cLMUowYrbu_m43zkb1srwNR0YI_vDV6xmiHuZrTTIhJfnm3a5efKGg7kltp63jvWfcV7LfIStmvkFGzGpdZLDU0BCGFzLxyZD-LNY801gHWtkszvREKTaq9Y3HgD4RRcIW_Zg8ETiGZqr1-5tkjoIDctUDxD9Oo57GTbkF1sM-oTHvXwgoR9OaFxQgT40KDB-6c4R64TID-aboxFEKZ_r0RJFJxMBmzXdIN-BEzGlq01QuvIYuPJBI6wbXeS7N2jrJtyOfJZcCa-Oi60rWOPAHV30xvMWTlbU0N594WSNm8H6bYzebHjhaduaBZRQFO3tQBS6W2HghQ_MDZTGScD8zZRPlIQdsmm_BRYW5JCOoKoL3d0bsRxZ-HuOoom-yqbgh0qRKxLSPWupjIOz8E_KQL8C8imc_-UKlCMjgGcbAiZyFgW8Fax4Fz_U_74rlBhvTFNf_G-NZABoPLiV_V_KbpMfhm5fHIKcDu6ICsfX3o9S-cBNmPmhU60MH4HZ7W5uuLzlYZMiRWrtmqaAjE2wRDpEE1l9Hp8dm8_aO-WAlOrMczvUN5vVVldnlkxck2ba9f19gXpHi-2I2PhTcifARuq7y5WeHwbTUgZHCkfKpCQpmqi1lTUBWBIuvfX43wIgeCQ6BE_g88Ir39GLbDv3gm7Q3RmTb48qb8yFne5zDuT1YETJthAZf1mD8N8aknpSWw-VBzv-yKzj_xntmMTDCPmvqb932Q38KpQd8J6IkUQ51PmnKJCVV8IoVpsb0WedNylHrezxpyszOLrLIXCDeAvovydKkc0P3Y3dfX9iSIVftfRSuf-OMHXZeJH2MRkW1YHFnFPKuZo4PPA-pYLHr1iTXBKok1nhgh8TamGhnnsIVUkW7NAbDkJKiCpkslPksAuBFlIcpywXQGlWbfoKFUufikbjLOd5I7xrXTi-SPKK2vTRwoGKh5zap-ZOXeRH3JP-Igatpn1TIvYY80s5AJMB8WtJuimMZPhlXpbp6t_kZMHdxHlZT5dKtvI-lms2-etRwILTslM7YB-H359yPf58vfcTkGwSdTzUllroUN4waY7dhizGqyOdRGb4xMu9ajnisNLQX65m5lcKKpQj99m55Kfh2bUaKRVRgvXti7hxMRbzDQGdSQgqcd53QL85za9JtTF8zQaaZxPbfkQJgGLLmFgRPhmO_jmryr4hwwwRGqjSXKAh4kmKuS7DT_drGi1E24uN_khc4wPqMRmCL6pYyrLopsbw4W2MAfr6g3iEC9jDzvDhjg2gTfmr0w5nD9-YN6fuGWrps7AMMo7tNOlkvWJBD0xwfA8c-TYK4qAAOZd1c2FoVi9qDaMxg90-R2aUHoxwucDE6qpeJLh6vcHjrqcIwQ-QRwYHotWb2mDpuWZmCkhEd3XaGcbQgodDJYQ0OkOPHHRT3_oNPc94FGcFsD8-1ZQEjASlp7omzIjWcUq09asUwMgUWIu7RSa7pIJAuI3PpfT8Xi4cAa2N2NuFVJk6aU16HRYqTWVbQTJ6fD74qwRhxTXSYhaNyPKXfdzeY0btkHH-aX5zCbPGl_CxL_sxhIs8Ks_3q6j66wLAmy7DFaBsX5NDxs5q12KLsR49t0WvfV9JFeu91A4kNao56IzuvXJTyZBU6qnCrjMtL0wG--su_Gy0?></g></svg>