<?plantuml 1.2026.1?><svg xmlns="http://www.w3.org/2000/svg" xmlns:xlink="http://www.w3.org/1999/xlink" contentStyleType="text/css" data-diagram-type="SEQUENCE" height="2090px" preserveAspectRatio="none" style="width:1310px;height:2090px;background:#FCFCFD;" version="1.1" viewBox="0 0 1310 2090" width="1310px" zoomAndPan="magnify"><title>Sequence - identitydomains/IdentityDomainsMyOAuth2ClientCredential</title><defs/><g><rect fill="#FCFCFD" height="2090" style="stroke:none;stroke-width:1;" width="1310" x="0" y="0"/><text fill="#000000" font-family="Helvetica" font-size="14" font-weight="bold" lengthAdjust="spacing" textLength="476.0684" x="422.0854" y="25.7803">Sequence - identitydomains/IdentityDomainsMyOAuth2ClientCredential</text><rect fill="none" height="290" rx="8" ry="8" style="stroke:#CBD5E1;stroke-width:1.5;" width="759.501" x="506.7285" y="356"/><rect fill="none" height="146" rx="8" ry="8" style="stroke:#CBD5E1;stroke-width:1.5;" width="491.5503" x="764.6792" y="465"/><rect fill="none" height="44" rx="8" ry="8" style="stroke:#CBD5E1;stroke-width:1.5;" width="471.5503" x="774.6792" y="516"/><rect fill="none" height="868" rx="8" ry="8" style="stroke:#CBD5E1;stroke-width:1.5;" width="795.8218" x="486.7285" y="660"/><rect fill="none" height="302" rx="8" ry="8" style="stroke:#CBD5E1;stroke-width:1.5;" width="759.501" x="496.7285" y="683"/><rect fill="none" height="72" rx="8" ry="8" style="stroke:#CBD5E1;stroke-width:1.5;" width="471.5503" x="774.6792" y="804"/><rect fill="none" height="88" rx="8" ry="8" style="stroke:#CBD5E1;stroke-width:1.5;" width="444.3433" x="506.7285" y="890"/><rect fill="none" height="392" rx="8" ry="8" style="stroke:#CBD5E1;stroke-width:1.5;" width="775.8218" x="496.7285" y="1087"/><rect fill="none" height="44" rx="8" ry="8" style="stroke:#CBD5E1;stroke-width:1.5;" width="444.3433" x="506.7285" y="1186"/><rect fill="none" height="130" rx="8" ry="8" style="stroke:#CBD5E1;stroke-width:1.5;" width="491.5503" x="764.6792" y="1244"/><rect fill="none" height="44" rx="8" ry="8" style="stroke:#CBD5E1;stroke-width:1.5;" width="471.5503" x="774.6792" y="1323"/><g class="participant-lifeline" data-entity-uid="part1" data-qualified-name="Kubernetes" id="part1-lifeline"><g><title>Kubernetes</title><rect fill="#000000" fill-opacity="0.00000" height="1969" width="8" x="39.8032" y="114"/><line style="stroke:#94A3B8;stroke-width:0.5;stroke-dasharray:5,5;" x1="43" x2="43" y1="114" y2="2083"/></g></g><g class="participant-lifeline" data-entity-uid="part2" data-qualified-name="Controller" id="part2-lifeline"><g><title>Controller</title><rect fill="#000000" fill-opacity="0.00000" height="1969" width="8" x="329.9263" y="114"/><line style="stroke:#94A3B8;stroke-width:0.5;stroke-dasharray:5,5;" x1="333.5815" x2="333.5815" y1="114" y2="2083"/></g></g><g class="participant-lifeline" data-entity-uid="part3" data-qualified-name="BaseReconciler" id="part3-lifeline"><g><title>BaseReconciler</title><rect fill="#000000" fill-opacity="0.00000" height="1969" width="8" x="568.7524" y="114"/><line style="stroke:#94A3B8;stroke-width:0.5;stroke-dasharray:5,5;" x1="572.7285" x2="572.7285" y1="114" y2="2083"/></g></g><g class="participant-lifeline" data-entity-uid="part4" data-qualified-name="ServiceManager" id="part4-lifeline"><g><title>OSOKServiceManager</title><rect fill="#000000" fill-opacity="0.00000" height="1969" width="8" x="858.8755" y="114"/><line style="stroke:#94A3B8;stroke-width:0.5;stroke-dasharray:5,5;" x1="862.6792" x2="862.6792" y1="114" y2="2083"/></g></g><g class="participant-lifeline" data-entity-uid="part5" data-qualified-name="OCI" id="part5-lifeline"><g><title>OCI</title><rect fill="#000000" fill-opacity="0.00000" height="1969" width="8" x="1212.7847" y="114"/><line style="stroke:#94A3B8;stroke-width:0.5;stroke-dasharray:5,5;" x1="1216.3398" x2="1216.3398" y1="114" y2="2083"/></g></g><g class="participant participant-head" data-entity-uid="part1" data-qualified-name="Kubernetes" id="part1-head"><text fill="#000000" font-family="Helvetica" font-size="14" lengthAdjust="spacing" textLength="71.6064" x="5" y="110.7803">Kubernetes</text><ellipse cx="43.8032" cy="48.5" fill="#E2E8F0" rx="8" ry="8" style="stroke:#0F172A;stroke-width:0.5;"/><path d="M43.8032,56.5 L43.8032,83.5 M30.8032,64.5 L56.8032,64.5 M43.8032,83.5 L30.8032,98.5 M43.8032,83.5 L56.8032,98.5" fill="none" style="stroke:#0F172A;stroke-width:0.5;"/></g><g class="participant participant-head" data-entity-uid="part2" data-qualified-name="Controller" id="part2-head"><rect fill="#E2E8F0" height="28" rx="8" ry="8" style="stroke:#0F172A;stroke-width:0.5;" width="74.6895" x="296.5815" y="85"/><text fill="#0F172A" font-family="Helvetica" font-size="14" lengthAdjust="spacing" textLength="60.6895" x="303.5815" y="102.7803">Controller</text></g><g class="participant participant-head" data-entity-uid="part3" data-qualified-name="BaseReconciler" id="part3-head"><rect fill="#E2E8F0" height="28" rx="8" ry="8" style="stroke:#0F172A;stroke-width:0.5;" width="112.0479" x="516.7285" y="85"/><text fill="#0F172A" font-family="Helvetica" font-size="14" lengthAdjust="spacing" textLength="98.0479" x="523.7285" y="102.7803">BaseReconciler</text></g><g class="participant participant-head" data-entity-uid="part4" data-qualified-name="ServiceManager" id="part4-head"><rect fill="#E2E8F0" height="28" rx="8" ry="8" style="stroke:#0F172A;stroke-width:0.5;" width="156.3926" x="784.6792" y="85"/><text fill="#0F172A" font-family="Helvetica" font-size="14" lengthAdjust="spacing" textLength="142.3926" x="791.6792" y="102.7803">OSOKServiceManager</text></g><g class="participant participant-head" data-entity-uid="part5" data-qualified-name="OCI" id="part5-head"><rect fill="#E2E8F0" height="28" rx="8" ry="8" style="stroke:#0F172A;stroke-width:0.5;" width="38.8896" x="1197.3398" y="85"/><text fill="#0F172A" font-family="Helvetica" font-size="14" lengthAdjust="spacing" textLength="24.8896" x="1204.3398" y="102.7803">OCI</text></g><path d="M508,137 L508,187 A8,8 0 0 0 516,195 L919,195 A8,8 0 0 0 927,187 L927,139 L917,129 L516,129 A8,8 0 0 0 508,137" fill="#FFF7D6" style="stroke:#B45309;stroke-width:0.5;"/><path d="M917,129 L917,135 A4,4 0 0 0 921,139 L927,139 L917,129" fill="#FFF7D6" style="stroke:#B45309;stroke-width:0.5;"/><text fill="#334155" font-family="Helvetica" font-size="14" lengthAdjust="spacing" textLength="111.2891" x="559.4758" y="144.7803">shared resolution:</text><text fill="#334155" font-family="Helvetica" font-size="14" lengthAdjust="spacing" textLength="307.3916" x="559.4758" y="158.7803">shared/diagrams/shared-resolution-sequence.svg</text><text fill="#334155" font-family="Helvetica" font-size="14" lengthAdjust="spacing" textLength="88.7305" x="559.4758" y="172.7803">shared delete:</text><text fill="#334155" font-family="Helvetica" font-size="14" lengthAdjust="spacing" textLength="284.833" x="559.4758" y="186.7803">shared/diagrams/shared-delete-sequence.svg</text><g class="message" data-entity-1="part1" data-entity-2="part2" id="msg1"><polygon fill="#0F172A" points="321.9263,244,331.9263,248,321.9263,252,325.9263,248" style="stroke:#0F172A;stroke-width:1;"/><line style="stroke:#0F172A;stroke-width:1;" x1="43.8032" x2="327.9263" y1="248" y2="248"/><text fill="#000000" font-family="Helvetica" font-size="14" lengthAdjust="spacing" textLength="54.5029" x="50.8032" y="214.7803">enqueue</text><text fill="#000000" font-family="Helvetica" font-size="14" lengthAdjust="spacing" textLength="266.123" x="50.8032" y="228.7803">IdentityDomainsMyOAuth2ClientCredential</text><text fill="#000000" font-family="Helvetica" font-size="14" lengthAdjust="spacing" textLength="56.0273" x="50.8032" y="242.7803">reconcile</text></g><g class="message" data-entity-1="part2" data-entity-2="part3" id="msg2"><polygon fill="#0F172A" points="560.7524,272,570.7524,276,560.7524,280,564.7524,276" style="stroke:#0F172A;stroke-width:1;"/><line style="stroke:#0F172A;stroke-width:1;" x1="333.9263" x2="566.7524" y1="276" y2="276"/><text fill="#000000" font-family="Helvetica" font-size="14" lengthAdjust="spacing" textLength="117.4961" x="340.9263" y="270.7803">Reconcile(request)</text></g><g class="message" data-entity-1="part3" data-entity-2="part4" id="msg3"><polygon fill="#0F172A" points="850.8755,314,860.8755,318,850.8755,322,854.8755,318" style="stroke:#0F172A;stroke-width:1;"/><line style="stroke:#0F172A;stroke-width:1;" x1="572.7524" x2="856.8755" y1="318" y2="318"/><text fill="#000000" font-family="Helvetica" font-size="14" lengthAdjust="spacing" textLength="105.834" x="579.7524" y="298.7803">reconcile desired</text><text fill="#000000" font-family="Helvetica" font-size="14" lengthAdjust="spacing" textLength="266.123" x="579.7524" y="312.7803">IdentityDomainsMyOAuth2ClientCredential</text></g><path d="M514.7285,356 L568.0664,356 L568.0664,362 L558.0664,372 L506.7285,372 L506.7285,364 A8,8 0 0 1 514.7285,356" fill="#F8FAFC" style="stroke:#CBD5E1;stroke-width:1.5;"/><rect fill="none" height="290" rx="8" ry="8" style="stroke:#CBD5E1;stroke-width:1.5;" width="759.501" x="506.7285" y="356"/><text fill="#000000" font-family="Helvetica" font-size="14" font-weight="bold" lengthAdjust="spacing" textLength="16.3379" x="521.7285" y="367.7803">alt</text><text fill="#000000" font-family="Helvetica" font-size="14" font-weight="bold" lengthAdjust="spacing" textLength="308.1094" x="583.0664" y="368.7803">[tracked or explicit OCI identity already exists]</text><g class="message" data-entity-1="part4" data-entity-2="part5" id="msg4"><polygon fill="#0F172A" points="1204.7847,388,1214.7847,392,1204.7847,396,1208.7847,392" style="stroke:#0F172A;stroke-width:1;"/><line style="stroke:#0F172A;stroke-width:1;" x1="862.8755" x2="1210.7847" y1="392" y2="392"/><text fill="#000000" font-family="Helvetica" font-size="14" lengthAdjust="spacing" textLength="288.6885" x="869.8755" y="386.7803">GetIdentityDomainsMyOAuth2ClientCredential</text></g><line style="stroke:#CBD5E1;stroke-width:1;stroke-dasharray:2,2;" x1="506.7285" x2="1266.2295" y1="401" y2="401"/><text fill="#000000" font-family="Helvetica" font-size="14" font-weight="bold" lengthAdjust="spacing" textLength="185.1582" x="511.7285" y="411.7803">[tracked identity is missing]</text><g class="message" data-entity-1="part4" data-entity-2="part5" id="msg5"><polygon fill="#0F172A" points="1204.7847,446,1214.7847,450,1204.7847,454,1208.7847,450" style="stroke:#0F172A;stroke-width:1;"/><line style="stroke:#0F172A;stroke-width:1;" x1="862.8755" x2="1210.7847" y1="450" y2="450"/><text fill="#000000" font-family="Helvetica" font-size="14" lengthAdjust="spacing" textLength="329.9092" x="869.8755" y="430.7803">ListIdentityDomainsMyOAuth2ClientCredential(filters:</text><text fill="#000000" font-family="Helvetica" font-size="14" lengthAdjust="spacing" textLength="143.1719" x="869.8755" y="444.7803">compartment_id, state)</text></g><path d="M772.6792,465 L826.0171,465 L826.0171,471 L816.0171,481 L764.6792,481 L764.6792,473 A8,8 0 0 1 772.6792,465" fill="#F8FAFC" style="stroke:#CBD5E1;stroke-width:1.5;"/><rect fill="none" height="146" rx="8" ry="8" style="stroke:#CBD5E1;stroke-width:1.5;" width="491.5503" x="764.6792" y="465"/><text fill="#000000" font-family="Helvetica" font-size="14" font-weight="bold" lengthAdjust="spacing" textLength="16.3379" x="779.6792" y="476.7803">alt</text><text fill="#000000" font-family="Helvetica" font-size="14" font-weight="bold" lengthAdjust="spacing" textLength="242.7031" x="841.0171" y="477.7803">[reusable OCI resource is not found]</text><g class="message" data-entity-1="part4" data-entity-2="part5" id="msg6"><polygon fill="#0F172A" points="1204.7847,497,1214.7847,501,1204.7847,505,1208.7847,501" style="stroke:#0F172A;stroke-width:1;"/><line style="stroke:#0F172A;stroke-width:1;" x1="862.8755" x2="1210.7847" y1="501" y2="501"/><text fill="#000000" font-family="Helvetica" font-size="14" lengthAdjust="spacing" textLength="308.1436" x="869.8755" y="495.7803">CreateIdentityDomainsMyOAuth2ClientCredential</text></g><path d="M782.6792,516 L849.2241,516 L849.2241,522 L839.2241,532 L774.6792,532 L774.6792,524 A8,8 0 0 1 782.6792,516" fill="#F8FAFC" style="stroke:#CBD5E1;stroke-width:1.5;"/><rect fill="none" height="44" rx="8" ry="8" style="stroke:#CBD5E1;stroke-width:1.5;" width="471.5503" x="774.6792" y="516"/><text fill="#000000" font-family="Helvetica" font-size="14" font-weight="bold" lengthAdjust="spacing" textLength="29.5449" x="789.6792" y="527.7803">loop</text><text fill="#000000" font-family="Helvetica" font-size="14" font-weight="bold" lengthAdjust="spacing" textLength="215.4756" x="864.2241" y="528.7803">[create pending PROVISIONING]</text><g class="message" data-entity-1="part4" data-entity-2="part5" id="msg7"><polygon fill="#0F172A" points="1204.7847,548,1214.7847,552,1204.7847,556,1208.7847,552" style="stroke:#0F172A;stroke-width:1;"/><line style="stroke:#0F172A;stroke-width:1;" x1="862.8755" x2="1210.7847" y1="552" y2="552"/><text fill="#000000" font-family="Helvetica" font-size="14" lengthAdjust="spacing" textLength="288.6885" x="869.8755" y="546.7803">GetIdentityDomainsMyOAuth2ClientCredential</text></g><line style="stroke:#CBD5E1;stroke-width:1;stroke-dasharray:2,2;" x1="764.6792" x2="1256.2295" y1="568" y2="568"/><text fill="#000000" font-family="Helvetica" font-size="14" font-weight="bold" lengthAdjust="spacing" textLength="255.2334" x="769.6792" y="578.7803">[reusable OCI resource already exists]</text><g class="message" data-entity-1="part4" data-entity-2="part5" id="msg8"><polygon fill="#0F172A" points="1204.7847,599,1214.7847,603,1204.7847,607,1208.7847,603" style="stroke:#0F172A;stroke-width:1;"/><line style="stroke:#0F172A;stroke-width:1;" x1="862.8755" x2="1210.7847" y1="603" y2="603"/><text fill="#000000" font-family="Helvetica" font-size="14" lengthAdjust="spacing" textLength="288.6885" x="869.8755" y="597.7803">GetIdentityDomainsMyOAuth2ClientCredential</text></g><g class="message" data-entity-1="part4" data-entity-2="part3" id="msg9"><polygon fill="#0F172A" points="583.7524,634,573.7524,638,583.7524,642,579.7524,638" style="stroke:#0F172A;stroke-width:1;"/><line style="stroke:#0F172A;stroke-width:1;stroke-dasharray:2,2;" x1="577.7524" x2="861.8755" y1="638" y2="638"/><text fill="#000000" font-family="Helvetica" font-size="14" lengthAdjust="spacing" textLength="231.0957" x="589.7524" y="632.7803">persist resolved OCI identity in status</text></g><path d="M494.7285,660 L548.0664,660 L548.0664,666 L538.0664,676 L486.7285,676 L486.7285,668 A8,8 0 0 1 494.7285,660" fill="#F8FAFC" style="stroke:#CBD5E1;stroke-width:1.5;"/><rect fill="none" height="868" rx="8" ry="8" style="stroke:#CBD5E1;stroke-width:1.5;" width="795.8218" x="486.7285" y="660"/><text fill="#000000" font-family="Helvetica" font-size="14" font-weight="bold" lengthAdjust="spacing" textLength="16.3379" x="501.7285" y="671.7803">alt</text><text fill="#000000" font-family="Helvetica" font-size="14" font-weight="bold" lengthAdjust="spacing" textLength="120.5859" x="563.0664" y="672.7803">[delete requested]</text><path d="M504.7285,683 L583.749,683 L583.749,689 L573.749,699 L496.7285,699 L496.7285,691 A8,8 0 0 1 504.7285,683" fill="#F8FAFC" style="stroke:#CBD5E1;stroke-width:1.5;"/><rect fill="none" height="302" rx="8" ry="8" style="stroke:#CBD5E1;stroke-width:1.5;" width="759.501" x="496.7285" y="683"/><text fill="#000000" font-family="Helvetica" font-size="14" font-weight="bold" lengthAdjust="spacing" textLength="42.0205" x="511.7285" y="694.7803">Delete</text><g class="message" data-entity-1="part4" data-entity-2="part5" id="msg10"><polygon fill="#0F172A" points="1204.7847,715,1214.7847,719,1204.7847,723,1208.7847,719" style="stroke:#0F172A;stroke-width:1;"/><line style="stroke:#0F172A;stroke-width:1;" x1="862.8755" x2="1210.7847" y1="719" y2="719"/><text fill="#000000" font-family="Helvetica" font-size="14" lengthAdjust="spacing" textLength="306.5918" x="869.8755" y="713.7803">DeleteIdentityDomainsMyOAuth2ClientCredential</text></g><g class="message" data-entity-1="part4" data-entity-2="part5" id="msg11"><polygon fill="#0F172A" points="1204.7847,785,1214.7847,789,1204.7847,793,1208.7847,789" style="stroke:#0F172A;stroke-width:1;"/><line style="stroke:#0F172A;stroke-width:1;" x1="862.8755" x2="1210.7847" y1="789" y2="789"/><text fill="#000000" font-family="Helvetica" font-size="14" lengthAdjust="spacing" textLength="109.7168" x="869.8755" y="741.7803">confirm delete via</text><text fill="#000000" font-family="Helvetica" font-size="14" lengthAdjust="spacing" textLength="288.6885" x="869.8755" y="755.7803">GetIdentityDomainsMyOAuth2ClientCredential</text><text fill="#000000" font-family="Helvetica" font-size="14" lengthAdjust="spacing" textLength="12.4482" x="869.8755" y="769.7803">or</text><text fill="#000000" font-family="Helvetica" font-size="14" lengthAdjust="spacing" textLength="287.9092" x="869.8755" y="783.7803">ListIdentityDomainsMyOAuth2ClientCredential</text></g><path d="M782.6792,804 L849.2241,804 L849.2241,810 L839.2241,820 L774.6792,820 L774.6792,812 A8,8 0 0 1 782.6792,804" fill="#F8FAFC" style="stroke:#CBD5E1;stroke-width:1.5;"/><rect fill="none" height="72" rx="8" ry="8" style="stroke:#CBD5E1;stroke-width:1.5;" width="471.5503" x="774.6792" y="804"/><text fill="#000000" font-family="Helvetica" font-size="14" font-weight="bold" lengthAdjust="spacing" textLength="29.5449" x="789.6792" y="815.7803">loop</text><text fill="#000000" font-family="Helvetica" font-size="14" font-weight="bold" lengthAdjust="spacing" textLength="182.7793" x="864.2241" y="816.7803">[delete pending DELETING]</text><g class="message" data-entity-1="part4" data-entity-2="part5" id="msg12"><polygon fill="#0F172A" points="1204.7847,864,1214.7847,868,1204.7847,872,1208.7847,868" style="stroke:#0F172A;stroke-width:1;"/><line style="stroke:#0F172A;stroke-width:1;" x1="862.8755" x2="1210.7847" y1="868" y2="868"/><text fill="#000000" font-family="Helvetica" font-size="14" lengthAdjust="spacing" textLength="288.6885" x="869.8755" y="834.7803">GetIdentityDomainsMyOAuth2ClientCredential</text><text fill="#000000" font-family="Helvetica" font-size="14" lengthAdjust="spacing" textLength="12.4482" x="869.8755" y="848.7803">or</text><text fill="#000000" font-family="Helvetica" font-size="14" lengthAdjust="spacing" textLength="287.9092" x="869.8755" y="862.7803">ListIdentityDomainsMyOAuth2ClientCredential</text></g><path d="M514.7285,890 L568.0664,890 L568.0664,896 L558.0664,906 L506.7285,906 L506.7285,898 A8,8 0 0 1 514.7285,890" fill="#F8FAFC" style="stroke:#CBD5E1;stroke-width:1.5;"/><rect fill="none" height="88" rx="8" ry="8" style="stroke:#CBD5E1;stroke-width:1.5;" width="444.3433" x="506.7285" y="890"/><text fill="#000000" font-family="Helvetica" font-size="14" font-weight="bold" lengthAdjust="spacing" textLength="16.3379" x="521.7285" y="901.7803">alt</text><text fill="#000000" font-family="Helvetica" font-size="14" font-weight="bold" lengthAdjust="spacing" textLength="261.4268" x="583.0664" y="902.7803">[cleanup or finalizer release is blocked]</text><g class="message" data-entity-1="part4" data-entity-2="part3" id="msg13"><polygon fill="#0F172A" points="583.7524,922,573.7524,926,583.7524,930,579.7524,926" style="stroke:#0F172A;stroke-width:1;"/><line style="stroke:#0F172A;stroke-width:1;stroke-dasharray:2,2;" x1="577.7524" x2="861.8755" y1="926" y2="926"/><text fill="#000000" font-family="Helvetica" font-size="14" lengthAdjust="spacing" textLength="170.4336" x="589.7524" y="920.7803">retain delete state and retry</text></g><line style="stroke:#CBD5E1;stroke-width:1;stroke-dasharray:2,2;" x1="506.7285" x2="951.0718" y1="935" y2="935"/><text fill="#000000" font-family="Helvetica" font-size="14" font-weight="bold" lengthAdjust="spacing" textLength="194.4824" x="511.7285" y="945.7803">[delete completion observed]</text><g class="message" data-entity-1="part4" data-entity-2="part3" id="msg14"><polygon fill="#0F172A" points="583.7524,966,573.7524,970,583.7524,974,579.7524,970" style="stroke:#0F172A;stroke-width:1;"/><line style="stroke:#0F172A;stroke-width:1;stroke-dasharray:2,2;" x1="577.7524" x2="861.8755" y1="970" y2="970"/><text fill="#000000" font-family="Helvetica" font-size="14" lengthAdjust="spacing" textLength="243.5781" x="589.7524" y="964.7803">release finalizer after delete completion</text></g><line style="stroke:#CBD5E1;stroke-width:1;stroke-dasharray:2,2;" x1="486.7285" x2="1282.5503" y1="993" y2="993"/><text fill="#000000" font-family="Helvetica" font-size="14" font-weight="bold" lengthAdjust="spacing" textLength="149.3857" x="491.7285" y="1003.7803">[OCI state is retryable]</text><g class="message" data-entity-1="part4" data-entity-2="part3" id="msg15"><polygon fill="#0F172A" points="583.7524,1038,573.7524,1042,583.7524,1046,579.7524,1042" style="stroke:#0F172A;stroke-width:1;"/><line style="stroke:#0F172A;stroke-width:1;stroke-dasharray:2,2;" x1="577.7524" x2="861.8755" y1="1042" y2="1042"/><text fill="#000000" font-family="Helvetica" font-size="14" lengthAdjust="spacing" textLength="184.4199" x="589.7524" y="1022.7803">requeue while OCI remains in</text><text fill="#000000" font-family="Helvetica" font-size="14" lengthAdjust="spacing" textLength="260.5928" x="589.7524" y="1036.7803">PROVISIONING, UPDATING, DELETING</text></g><line style="stroke:#CBD5E1;stroke-width:1;stroke-dasharray:2,2;" x1="486.7285" x2="1282.5503" y1="1051" y2="1051"/><text fill="#000000" font-family="Helvetica" font-size="14" font-weight="bold" lengthAdjust="spacing" textLength="200.751" x="491.7285" y="1061.7803">[live state requires field-aware</text><text fill="#000000" font-family="Helvetica" font-size="14" font-weight="bold" lengthAdjust="spacing" textLength="105.0068" x="491.7285" y="1075.7803">drift evaluation]</text><path d="M504.7285,1087 L632.7148,1087 L632.7148,1093 L622.7148,1103 L496.7285,1103 L496.7285,1095 A8,8 0 0 1 504.7285,1087" fill="#F8FAFC" style="stroke:#CBD5E1;stroke-width:1.5;"/><rect fill="none" height="392" rx="8" ry="8" style="stroke:#CBD5E1;stroke-width:1.5;" width="775.8218" x="496.7285" y="1087"/><text fill="#000000" font-family="Helvetica" font-size="14" font-weight="bold" lengthAdjust="spacing" textLength="90.9863" x="511.7285" y="1098.7803">Drift handling</text><path d="M816,1116 L816,1166 A8,8 0 0 0 824,1174 L1254,1174 A8,8 0 0 0 1262,1166 L1262,1118 L1252,1108 L824,1108 A8,8 0 0 0 816,1116" fill="#FFF7D6" style="stroke:#B45309;stroke-width:0.5;"/><path d="M1252,1108 L1252,1114 A4,4 0 0 0 1256,1118 L1262,1118 L1252,1108" fill="#FFF7D6" style="stroke:#B45309;stroke-width:0.5;"/><text fill="#334155" font-family="Helvetica" font-size="14" lengthAdjust="spacing" textLength="255.2813" x="907.1345" y="1123.7803">Supported update surface: display_name</text><text fill="#334155" font-family="Helvetica" font-size="14" lengthAdjust="spacing" textLength="235.7783" x="907.1345" y="1137.7803">Reject before mutate: force-new fields</text><text fill="#334155" font-family="Helvetica" font-size="14" lengthAdjust="spacing" textLength="100.3789" x="907.1345" y="1151.7803">compartment_id</text><text fill="#334155" font-family="Helvetica" font-size="14" lengthAdjust="spacing" textLength="229.5576" x="907.1345" y="1165.7803">Lookup filters: compartment_id, state</text><path d="M514.7285,1186 L573.4941,1186 L573.4941,1192 L563.4941,1202 L506.7285,1202 L506.7285,1194 A8,8 0 0 1 514.7285,1186" fill="#F8FAFC" style="stroke:#CBD5E1;stroke-width:1.5;"/><rect fill="none" height="44" rx="8" ry="8" style="stroke:#CBD5E1;stroke-width:1.5;" width="444.3433" x="506.7285" y="1186"/><text fill="#000000" font-family="Helvetica" font-size="14" font-weight="bold" lengthAdjust="spacing" textLength="21.7656" x="521.7285" y="1197.7803">opt</text><text fill="#000000" font-family="Helvetica" font-size="14" font-weight="bold" lengthAdjust="spacing" textLength="276.1309" x="588.4941" y="1198.7803">[force-new or conflicting drift is detected]</text><g class="message" data-entity-1="part4" data-entity-2="part3" id="msg16"><polygon fill="#0F172A" points="583.7524,1218,573.7524,1222,583.7524,1226,579.7524,1222" style="stroke:#0F172A;stroke-width:1;"/><line style="stroke:#0F172A;stroke-width:1;stroke-dasharray:2,2;" x1="577.7524" x2="861.8755" y1="1222" y2="1222"/><text fill="#000000" font-family="Helvetica" font-size="14" lengthAdjust="spacing" textLength="164.1855" x="589.7524" y="1216.7803">reject before OCI mutation</text></g><path d="M772.6792,1244 L831.4448,1244 L831.4448,1250 L821.4448,1260 L764.6792,1260 L764.6792,1252 A8,8 0 0 1 772.6792,1244" fill="#F8FAFC" style="stroke:#CBD5E1;stroke-width:1.5;"/><rect fill="none" height="130" rx="8" ry="8" style="stroke:#CBD5E1;stroke-width:1.5;" width="491.5503" x="764.6792" y="1244"/><text fill="#000000" font-family="Helvetica" font-size="14" font-weight="bold" lengthAdjust="spacing" textLength="21.7656" x="779.6792" y="1255.7803">opt</text><text fill="#000000" font-family="Helvetica" font-size="14" font-weight="bold" lengthAdjust="spacing" textLength="243.4619" x="846.4448" y="1256.7803">[supported mutable drift is detected]</text><g class="message" data-entity-1="part4" data-entity-2="part5" id="msg17"><polygon fill="#0F172A" points="1204.7847,1304,1214.7847,1308,1204.7847,1312,1208.7847,1308" style="stroke:#0F172A;stroke-width:1;"/><line style="stroke:#0F172A;stroke-width:1;" x1="862.8755" x2="1210.7847" y1="1308" y2="1308"/><text fill="#000000" font-family="Helvetica" font-size="14" lengthAdjust="spacing" textLength="35.0205" x="869.8755" y="1274.7803">Apply</text><text fill="#000000" font-family="Helvetica" font-size="14" lengthAdjust="spacing" textLength="311.2676" x="869.8755" y="1288.7803">UpdateIdentityDomainsMyOAuth2ClientCredential</text><text fill="#000000" font-family="Helvetica" font-size="14" lengthAdjust="spacing" textLength="226.4541" x="869.8755" y="1302.7803">only for mutable fields display_name</text></g><path d="M782.6792,1323 L849.2241,1323 L849.2241,1329 L839.2241,1339 L774.6792,1339 L774.6792,1331 A8,8 0 0 1 782.6792,1323" fill="#F8FAFC" style="stroke:#CBD5E1;stroke-width:1.5;"/><rect fill="none" height="44" rx="8" ry="8" style="stroke:#CBD5E1;stroke-width:1.5;" width="471.5503" x="774.6792" y="1323"/><text fill="#000000" font-family="Helvetica" font-size="14" font-weight="bold" lengthAdjust="spacing" textLength="29.5449" x="789.6792" y="1334.7803">loop</text><text fill="#000000" font-family="Helvetica" font-size="14" font-weight="bold" lengthAdjust="spacing" textLength="190.5381" x="864.2241" y="1335.7803">[update pending UPDATING]</text><g class="message" data-entity-1="part4" data-entity-2="part5" id="msg18"><polygon fill="#0F172A" points="1204.7847,1355,1214.7847,1359,1204.7847,1363,1208.7847,1359" style="stroke:#0F172A;stroke-width:1;"/><line style="stroke:#0F172A;stroke-width:1;" x1="862.8755" x2="1210.7847" y1="1359" y2="1359"/><text fill="#000000" font-family="Helvetica" font-size="14" lengthAdjust="spacing" textLength="288.6885" x="869.8755" y="1353.7803">GetIdentityDomainsMyOAuth2ClientCredential</text></g><g class="message" data-entity-1="part4" data-entity-2="part5" id="msg19"><polygon fill="#0F172A" points="1204.7847,1467,1214.7847,1471,1204.7847,1475,1208.7847,1471" style="stroke:#0F172A;stroke-width:1;"/><line style="stroke:#0F172A;stroke-width:1;" x1="862.8755" x2="1210.7847" y1="1471" y2="1471"/><text fill="#000000" font-family="Helvetica" font-size="14" lengthAdjust="spacing" textLength="104.2891" x="869.8755" y="1395.7803">run helper hooks</text><text fill="#000000" font-family="Helvetica" font-size="14" lengthAdjust="spacing" textLength="219.0508" x="869.8755" y="1409.7803">create=tfresource.CreateResource,</text><text fill="#000000" font-family="Helvetica" font-size="14" lengthAdjust="spacing" textLength="314.3164" x="869.8755" y="1423.7803">tfresource.WaitForWorkRequestWithErrorHandling</text><text fill="#000000" font-family="Helvetica" font-size="14" lengthAdjust="spacing" textLength="215.5439" x="869.8755" y="1437.7803">entity=template action=CREATED;</text><text fill="#000000" font-family="Helvetica" font-size="14" lengthAdjust="spacing" textLength="226.085" x="869.8755" y="1451.7803">update=tfresource.UpdateResource;</text><text fill="#000000" font-family="Helvetica" font-size="14" lengthAdjust="spacing" textLength="212.8438" x="869.8755" y="1465.7803">delete=tfresource.DeleteResource</text></g><g class="message" data-entity-1="part4" data-entity-2="part3" id="msg20"><polygon fill="#0F172A" points="583.7524,1516,573.7524,1520,583.7524,1524,579.7524,1520" style="stroke:#0F172A;stroke-width:1;"/><line style="stroke:#0F172A;stroke-width:1;stroke-dasharray:2,2;" x1="577.7524" x2="861.8755" y1="1520" y2="1520"/><text fill="#000000" font-family="Helvetica" font-size="14" lengthAdjust="spacing" textLength="100.7822" x="589.7524" y="1500.7803">status=required,</text><text fill="#000000" font-family="Helvetica" font-size="14" lengthAdjust="spacing" textLength="230.7197" x="589.7524" y="1514.7803">finalizer=retain-until-confirmed-delete</text></g><g class="message" data-entity-1="part3" data-entity-2="part2" id="msg21"><polygon fill="#0F172A" points="344.9263,1565,334.9263,1569,344.9263,1573,340.9263,1569" style="stroke:#0F172A;stroke-width:1;"/><line style="stroke:#0F172A;stroke-width:1;stroke-dasharray:2,2;" x1="338.9263" x2="571.7524" y1="1569" y2="1569"/><text fill="#000000" font-family="Helvetica" font-size="14" lengthAdjust="spacing" textLength="214.8262" x="350.9263" y="1549.7803">requeue on provisioning, updating,</text><text fill="#000000" font-family="Helvetica" font-size="14" lengthAdjust="spacing" textLength="69.2549" x="350.9263" y="1563.7803">terminating</text></g><path d="M867,1590 L867,2060 A8,8 0 0 0 875,2068 L1293,2068 A8,8 0 0 0 1301,2060 L1301,1592 L1291,1582 L875,1582 A8,8 0 0 0 867,1590" fill="#FFF7D6" style="stroke:#B45309;stroke-width:0.5;"/><path d="M1291,1582 L1291,1588 A4,4 0 0 0 1295,1592 L1301,1592 L1291,1582" fill="#FFF7D6" style="stroke:#B45309;stroke-width:0.5;"/><text fill="#334155" font-family="Helvetica" font-size="14" lengthAdjust="spacing" textLength="101.165" x="873" y="1597.7803">shared diagram:</text><text fill="#334155" font-family="Helvetica" font-size="14" lengthAdjust="spacing" textLength="307.3916" x="873" y="1611.7803">shared/diagrams/shared-resolution-sequence.svg</text><text fill="#334155" font-family="Helvetica" font-size="14" lengthAdjust="spacing" textLength="143.1992" x="873" y="1625.7803">shared delete diagram:</text><text fill="#334155" font-family="Helvetica" font-size="14" lengthAdjust="spacing" textLength="284.833" x="873" y="1639.7803">shared/diagrams/shared-delete-sequence.svg</text><text fill="#334155" font-family="Helvetica" font-size="14" lengthAdjust="spacing" textLength="280.9297" x="873" y="1653.7803">Start from the shared resolution sequence for</text><text fill="#334155" font-family="Helvetica" font-size="14" lengthAdjust="spacing" textLength="260.7295" x="873" y="1667.7803">OCID binding, datasource pagination, and</text><text fill="#334155" font-family="Helvetica" font-size="14" lengthAdjust="spacing" textLength="163.4268" x="873" y="1681.7803">create-or-update dispatch.</text><text fill="#334155" font-family="Helvetica" font-size="14" lengthAdjust="spacing" textLength="301.1982" x="873" y="1695.7803">Layer the shared delete sequence when finalizer</text><text fill="#334155" font-family="Helvetica" font-size="14" lengthAdjust="spacing" textLength="269.2471" x="873" y="1709.7803">retention, delete confirmation, work-request</text><text fill="#334155" font-family="Helvetica" font-size="14" lengthAdjust="spacing" textLength="199.2334" x="873" y="1723.7803">polling, or Secret cleanup apply.</text><text fill="#334155" font-family="Helvetica" font-size="14" lengthAdjust="spacing" textLength="281.709" x="873" y="1737.7803">archetype batch: Generated service-manager</text><text fill="#334155" font-family="Helvetica" font-size="14" lengthAdjust="spacing" textLength="266.1504" x="873" y="1751.7803">controllers follow the shared resolution and</text><text fill="#334155" font-family="Helvetica" font-size="14" lengthAdjust="spacing" textLength="259.9297" x="873" y="1765.7803">delete sequences with imported waits and</text><text fill="#334155" font-family="Helvetica" font-size="14" lengthAdjust="spacing" textLength="134.6064" x="873" y="1779.7803">controller-local policy.</text><text fill="#334155" font-family="Helvetica" font-size="14" lengthAdjust="spacing" textLength="149.3994" x="873" y="1793.7803">service: identitydomains</text><text fill="#334155" font-family="Helvetica" font-size="14" lengthAdjust="spacing" textLength="285.6055" x="873" y="1807.7803">slug: identitydomainsmyoauth2clientcredential</text><text fill="#334155" font-family="Helvetica" font-size="14" lengthAdjust="spacing" textLength="299.585" x="873" y="1821.7803">kind: IdentityDomainsMyOAuth2ClientCredential</text><text fill="#334155" font-family="Helvetica" font-size="14" lengthAdjust="spacing" textLength="241.2402" x="873" y="1835.7803">archetype: generated-service-manager</text><text fill="#334155" font-family="Helvetica" font-size="14" lengthAdjust="spacing" textLength="156.4063" x="873" y="1849.7803">status/finalizer: required /</text><text fill="#334155" font-family="Helvetica" font-size="14" lengthAdjust="spacing" textLength="174.3027" x="873" y="1863.7803">retain-until-confirmed-delete</text><text fill="#334155" font-family="Helvetica" font-size="14" lengthAdjust="spacing" textLength="272.3984" x="873" y="1877.7803">requeue: provisioning, updating, terminating</text><text fill="#334155" font-family="Helvetica" font-size="14" lengthAdjust="spacing" textLength="295.6816" x="873" y="1891.7803">provider states: create PROVISIONING; update</text><text fill="#334155" font-family="Helvetica" font-size="14" lengthAdjust="spacing" textLength="192.165" x="873" y="1905.7803">UPDATING; delete DELETING</text><text fill="#334155" font-family="Helvetica" font-size="14" lengthAdjust="spacing" textLength="183.6611" x="873" y="1919.7803">supported drift: display_name</text><text fill="#334155" font-family="Helvetica" font-size="14" lengthAdjust="spacing" textLength="230.3301" x="873" y="1933.7803">reject before mutate: force-new fields</text><text fill="#334155" font-family="Helvetica" font-size="14" lengthAdjust="spacing" textLength="100.3789" x="873" y="1947.7803">compartment_id</text><text fill="#334155" font-family="Helvetica" font-size="14" lengthAdjust="spacing" textLength="66.1445" x="873" y="1961.7803">list lookup:</text><text fill="#334155" font-family="Helvetica" font-size="14" lengthAdjust="spacing" textLength="413.2393" x="873" y="1975.7803">scaffold_identitydomains_identitydomainsmyoauth2clientcredential</text><text fill="#334155" font-family="Helvetica" font-size="14" lengthAdjust="spacing" textLength="175.8477" x="873" y="1989.7803">filters compartment_id, state</text><text fill="#334155" font-family="Helvetica" font-size="14" lengthAdjust="spacing" textLength="89.4961" x="873" y="2003.7803">conflicts: none</text><text fill="#334155" font-family="Helvetica" font-size="14" lengthAdjust="spacing" textLength="104.3164" x="873" y="2017.7803">open gaps: none</text><text fill="#334155" font-family="Helvetica" font-size="14" lengthAdjust="spacing" textLength="224.9023" x="873" y="2031.7803">Scaffold metadata only; replace with</text><text fill="#334155" font-family="Helvetica" font-size="14" lengthAdjust="spacing" textLength="244.3232" x="873" y="2045.7803">controller-specific runtime states before</text><text fill="#334155" font-family="Helvetica" font-size="14" lengthAdjust="spacing" textLength="66.1445" x="873" y="2059.7803">promotion.</text><?plantuml-src hLTRRzis57xNhpZeNbh0JfecwSL11gH9jWPDco9krnS30IqTsLmeKYCfkzwm_xx3YsJ9iLTr2_8GYwJEvJld-mvbxhaicMO5c3dBr9BB6UHC64nCipDbwVrCgqfcvqee3J_bAVrbhHCPvgmIzXSbxKTM8Bn3iK3BKxRzp9Z_YN1mrDfaMgjbjFuyFtZrelscL1RVFeWXprzbBpTFAPsXZYUcHyU7pzzid73ku_xXuT71yN5htvjFbPQeuU1bOhaL26FyeqAP8Wo1PoXfSPMfWd5fzg_YyqLu_h2wEQli_CMvuBH-hj5lCv7CwKN8bR9JzQtbpjIM_qe0M6gLxeGVOQYtDlF75_WwVqxRP8oGvYMJTllxxGDzhBGWQcm8dkCrbrs0tnonm-bhsdKcoyvMEisEyQ3PUb2yrpdBq-JlnES6xwif4keMJTAA0yuf4As4GDrPViiCtcAgPCetjvxSZ6_UZr4lU8eVc6Gpr4-06UWkTLwvERzAN6E0Mb3PkxO76-yHHQYgeD4eKLckv2WkxMUSpQYcPZyy3zT7XdMPzynYLbl8K52sEzyEszqtKMQ-WPCrM33ykONH253I-GedicTZJgIkKqtMTfpLBWmZQ7u_rIucOvybtIFkfIvO8sYCKxg6azVUWIM-Q-1QgNlwnoZpAPTPmeG5gwcN247g6lnM2ggYBs73JM128yjMjCkDDKatA1ScdHx1hsZxne8aXetRnWqtK71ZI2vtkRWc_przFCsviAZDQ29JLRZkB6ZZZcS3C9PPVEPJrrWPDYKuNRwkmIfDua61K5kGl12xTeL2diXAtuI5KYMa_XKegUtSIFXqU_FRrVZgvkFLnryV0rEArUEwFQV7h-4MRBQqUKar88-1u0igTwUpkFJLg8mtvoeIU0gH4vZ5lhtmoxl23hjz8zzXX6BEkIxg21QSJMH_F2PIwOdyWGODFH6TrJrnSNbz-VbH-k77uwaha0faaY0dESYvP88k5fhgGQl6KsCgbEDjd-9hjEIoJjBppaiFhUjLwDQuvpXAFqZSGKqDMUxh88Ir3fJbnFg7LWCzQegu7WpHK3u-64UOVWxzF83bd3SCyx1IAqzacz83-FBfukop_zMKrNiNV563uSoHZ1jA04KsP4kQLHEPQPvRm0KJ5VF1HmxuvJa1A9n6hYTiD-w16x_ZgYoL9lv0LMREawbqpb8SGSPDATZgJjAbChd5tp6rCCLSQOIYSa6DIFX8COOIbo4iatGLD8b3f5POs2gmw-cgIjioIMtbc4PZnhgE3xbI6J8gM6hxbhqTjgk23xskitDe6W3SbfF3xtkA93ihIx6Qo2yUkFvqasBbqcpy1UowU7lEnuhKdA_RvB5cmEwPfIi9SnGaoJ2d4XeQZNuadTgydXDxOQxTniV1HBRslZ9EDrdzLUdxsw3FNxcTNz9tXduNkt8YGwId5ebwdk-fgylf-UtbsUVBYvE93EctVGQaQvzq9D2tVIGeV7sax_09i-KqiYoZR1gXE0tQDAmeN36Csj_S4xs3pUlOnjMmbWAIh5Ah1JUK9Y4m2FLrlmWyr0Lvj0rVDP_DBQWSjb-3uwtr_zs1lsjbsrruR8d1a6jLW9qZFBYMhp-jgCSJQgSBVu7q2LEwB5upIZRp-IevS4gVX0ORAZsCNU_em6mwtqkksOfGRJchnqJjQ3b7kLRsX0hcUijPRkJTLoswMr9R3kEz8IcfI3usvUIHebZFDURelPSmdSxHhagaRt6An_6CFbAPKmmJQZCiOd7IfkearFHVBNTWv3BUoCB0aZW2l8Xgj2GEcG1DOtL84vK9e9XvIf55zwFDZ-F4Y6hsOBLOAUR48FLYaAx5W3wAin7qbOu6ZX7CQY26cq04FkqtDHdL0oo3_UJV2HNPCjh55MXJnP-XBzymITo42LVdzdmzYJgQrFfvKhT5CstNCy1h_yRiq_zfzWbtcHL-01A_KfPJGsHt6pMvwrkZE49tJD1wJX80D5xS82L2p5XPFu-ZUoW8UaT2S4FeX8f2MJe2KUUrsyoKcFASfsuGM5x4IuY943ZK2-NwUA-PtVy0?></g></svg>