<?plantuml 1.2026.1?><svg xmlns="http://www.w3.org/2000/svg" xmlns:xlink="http://www.w3.org/1999/xlink" contentStyleType="text/css" data-diagram-type="ACTIVITY" height="2229px" preserveAspectRatio="none" style="width:1257px;height:2229px;background:#FCFCFD;" version="1.1" viewBox="0 0 1257 2229" width="1257px" zoomAndPan="magnify"><title>Activity - optimizer/OptimizerResourceActions</title><defs/><g><rect fill="#FCFCFD" height="2229" style="stroke:none;stroke-width:1;" width="1257" x="0" y="0"/><g class="title" data-source-line="10"><text fill="#000000" font-family="Helvetica" font-size="14" font-weight="bold" lengthAdjust="spacing" textLength="308.8408" x="472.6123" y="30.7803">Activity - optimizer/OptimizerResourceActions</text></g><ellipse cx="667.3303" cy="55" fill="#1D4ED8" rx="10" ry="10" style="stroke:#222222;stroke-width:1;"/><rect fill="none" height="458" rx="8" ry="8" style="stroke:#000000;stroke-width:1.5;" width="597.5308" x="384.7131" y="75"/><path d="M506.7815,75 L506.7815,82 L496.7815,92 L384.7131,92" fill="none" style="stroke:#000000;stroke-width:1.5;"/><text fill="#000000" font-family="Helvetica" font-size="14" lengthAdjust="spacing" textLength="112.0684" x="387.7131" y="86.7803">Observe and Bind</text><rect fill="#F8FAFC" height="48" rx="8" ry="8" style="stroke:#0F172A;stroke-width:0.5;" width="304.7852" x="514.9377" y="109"/><text fill="#0F172A" font-family="Helvetica" font-size="14" lengthAdjust="spacing" textLength="136.9375" x="524.9377" y="129.7803">Start from shared flow</text><text fill="#0F172A" font-family="Helvetica" font-size="14" lengthAdjust="spacing" textLength="284.7852" x="524.9377" y="143.7803">shared/diagrams/shared-reconcile-activity.svg</text><rect fill="#F8FAFC" height="48" rx="8" ry="8" style="stroke:#0F172A;stroke-width:0.5;" width="310.2402" x="512.2102" y="177"/><text fill="#0F172A" font-family="Helvetica" font-size="14" lengthAdjust="spacing" textLength="290.2402" x="522.2102" y="197.7803">Read desired OptimizerResourceActions spec,</text><text fill="#0F172A" font-family="Helvetica" font-size="14" lengthAdjust="spacing" textLength="198.4609" x="522.2102" y="211.7803">tracked status, and delete intent</text><polygon fill="#E2E8F0" points="537.8645,245,796.7961,245,808.7961,257,796.7961,269,537.8645,269,525.8645,257,537.8645,245" style="stroke:#1D4ED8;stroke-width:0.5;"/><text fill="#0F172A" font-family="Helvetica" font-size="14" lengthAdjust="spacing" textLength="258.9316" x="537.8645" y="260.7803">"Tracked or explicit OCI identity present?"</text><text fill="#000000" font-family="Helvetica" font-size="14" lengthAdjust="spacing" textLength="21.7861" x="504.0784" y="253.7803">yes</text><text fill="#000000" font-family="Helvetica" font-size="14" lengthAdjust="spacing" textLength="15.5723" x="808.7961" y="253.7803">no</text><rect fill="#F8FAFC" height="48" rx="8" ry="8" style="stroke:#0F172A;stroke-width:0.5;" width="222.3027" x="404.7131" y="279"/><text fill="#0F172A" font-family="Helvetica" font-size="14" lengthAdjust="spacing" textLength="202.3027" x="414.7131" y="299.7803">Get the current OCI resource via</text><text fill="#0F172A" font-family="Helvetica" font-size="14" lengthAdjust="spacing" textLength="188.2891" x="414.7131" y="313.7803">GetOptimizerResourceActions</text><rect fill="#F8FAFC" height="62" rx="8" ry="8" style="stroke:#0F172A;stroke-width:0.5;" width="282.2061" x="677.6931" y="279"/><text fill="#0F172A" font-family="Helvetica" font-size="14" lengthAdjust="spacing" textLength="259.9092" x="687.6931" y="299.7803">Resolve an existing OCI resource through</text><text fill="#0F172A" font-family="Helvetica" font-size="14" lengthAdjust="spacing" textLength="262.2061" x="687.6931" y="313.7803">ListOptimizerResourceActions using filters</text><text fill="#0F172A" font-family="Helvetica" font-size="14" lengthAdjust="spacing" textLength="138.5098" x="687.6931" y="327.7803">compartment_id, state</text><rect fill="#F8FAFC" height="62" rx="8" ry="8" style="stroke:#0F172A;stroke-width:0.5;" width="284.5645" x="676.5139" y="361"/><text fill="#0F172A" font-family="Helvetica" font-size="14" lengthAdjust="spacing" textLength="174.2959" x="686.5139" y="381.7803">Create the OCI resource via</text><text fill="#0F172A" font-family="Helvetica" font-size="14" lengthAdjust="spacing" textLength="264.5645" x="686.5139" y="395.7803">CreateOptimizerResourceActions when no</text><text fill="#0F172A" font-family="Helvetica" font-size="14" lengthAdjust="spacing" textLength="148.6406" x="686.5139" y="409.7803">reusable match is found</text><rect fill="#F8FAFC" height="48" rx="8" ry="8" style="stroke:#0F172A;stroke-width:0.5;" width="286.8955" x="675.3484" y="443"/><text fill="#0F172A" font-family="Helvetica" font-size="14" lengthAdjust="spacing" textLength="266.8955" x="685.3484" y="463.7803">Persist the resolved or created OCI identity</text><text fill="#0F172A" font-family="Helvetica" font-size="14" lengthAdjust="spacing" textLength="63.8135" x="685.3484" y="477.7803">into status</text><polygon fill="#E2E8F0" points="667.3303,497,679.3303,509,667.3303,521,655.3303,509,667.3303,497" style="stroke:#1D4ED8;stroke-width:0.5;"/><polygon fill="#E2E8F0" points="605.1541,553,729.5066,553,741.5066,565,729.5066,577,605.1541,577,593.1541,565,605.1541,553" style="stroke:#1D4ED8;stroke-width:0.5;"/><text fill="#0F172A" font-family="Helvetica" font-size="14" lengthAdjust="spacing" textLength="124.3525" x="605.1541" y="568.7803">"Delete requested?"</text><text fill="#000000" font-family="Helvetica" font-size="14" lengthAdjust="spacing" textLength="21.7861" x="571.3679" y="561.7803">yes</text><text fill="#000000" font-family="Helvetica" font-size="14" lengthAdjust="spacing" textLength="15.5723" x="741.5066" y="561.7803">no</text><rect fill="none" height="395.5" rx="8" ry="8" style="stroke:#000000;stroke-width:1.5;" width="644.4814" x="11" y="587"/><path d="M61.4688,587 L61.4688,594 L51.4688,604 L11,604" fill="none" style="stroke:#000000;stroke-width:1.5;"/><text fill="#000000" font-family="Helvetica" font-size="14" lengthAdjust="spacing" textLength="40.4688" x="14" y="598.7803">Delete</text><rect fill="#F8FAFC" height="90" rx="8" ry="8" style="stroke:#0F172A;stroke-width:0.5;" width="310.2334" x="184.6274" y="621"/><text fill="#0F172A" font-family="Helvetica" font-size="14" lengthAdjust="spacing" textLength="105.0684" x="194.6274" y="641.7803">Delete path uses</text><text fill="#0F172A" font-family="Helvetica" font-size="14" lengthAdjust="spacing" textLength="290.2334" x="194.6274" y="655.7803">DeleteOptimizerResourceActions with required</text><text fill="#0F172A" font-family="Helvetica" font-size="14" lengthAdjust="spacing" textLength="226.4131" x="194.6274" y="669.7803">via GetOptimizerResourceActions or</text><text fill="#0F172A" font-family="Helvetica" font-size="14" lengthAdjust="spacing" textLength="271.5371" x="194.6274" y="683.7803">ListOptimizerResourceActions to DELETED</text><text fill="#0F172A" font-family="Helvetica" font-size="14" lengthAdjust="spacing" textLength="76.2549" x="194.6274" y="697.7803">confirmation</text><rect fill="#F8FAFC" height="76" rx="8" ry="8" style="stroke:#0F172A;stroke-width:0.5;" width="319.5576" x="179.9653" y="739.5"/><text fill="#0F172A" font-family="Helvetica" font-size="14" lengthAdjust="spacing" textLength="123.7236" x="189.9653" y="760.2803">Confirm deletion via</text><text fill="#0F172A" font-family="Helvetica" font-size="14" lengthAdjust="spacing" textLength="204.627" x="189.9653" y="774.2803">GetOptimizerResourceActions or</text><text fill="#0F172A" font-family="Helvetica" font-size="14" lengthAdjust="spacing" textLength="299.5576" x="189.9653" y="788.2803">ListOptimizerResourceActions until OCI reaches</text><text fill="#0F172A" font-family="Helvetica" font-size="14" lengthAdjust="spacing" textLength="64.5723" x="189.9653" y="802.2803">DELETED</text><polygon fill="#E2E8F0" points="191.5718,850.5,487.9165,850.5,499.9165,862.5,487.9165,874.5,191.5718,874.5,179.5718,862.5,191.5718,850.5" style="stroke:#1D4ED8;stroke-width:0.5;"/><text fill="#0F172A" font-family="Helvetica" font-size="14" lengthAdjust="spacing" textLength="296.3447" x="191.5718" y="866.2803">"Delete cleanup and finalizer release succeed?"</text><text fill="#000000" font-family="Helvetica" font-size="14" lengthAdjust="spacing" textLength="21.7861" x="157.7856" y="859.2803">yes</text><text fill="#000000" font-family="Helvetica" font-size="14" lengthAdjust="spacing" textLength="15.5723" x="499.9165" y="859.2803">no</text><rect fill="#F8FAFC" height="34" rx="8" ry="8" style="stroke:#0F172A;stroke-width:0.5;" width="293.1436" x="23" y="884.5"/><text fill="#0F172A" font-family="Helvetica" font-size="14" lengthAdjust="spacing" textLength="273.1436" x="33" y="905.2803">Remove the finalizer after delete completion</text><rect fill="#F8FAFC" height="48" rx="8" ry="8" style="stroke:#0F172A;stroke-width:0.5;" width="251.1299" x="384.3516" y="884.5"/><text fill="#0F172A" font-family="Helvetica" font-size="14" lengthAdjust="spacing" textLength="231.1299" x="394.3516" y="905.2803">Stay blocked until cleanup or finalizer</text><text fill="#0F172A" font-family="Helvetica" font-size="14" lengthAdjust="spacing" textLength="108.9512" x="394.3516" y="919.2803">release succeeds</text><polygon fill="#E2E8F0" points="339.7441,938.5,351.7441,950.5,339.7441,962.5,327.7441,950.5,339.7441,938.5" style="stroke:#1D4ED8;stroke-width:0.5;"/><ellipse cx="339.7441" cy="1019.5" fill="none" rx="11" ry="11" style="stroke:#222222;stroke-width:1;"/><ellipse cx="339.7441" cy="1019.5" fill="#222222" rx="6" ry="6" style="stroke:#222222;stroke-width:1;"/><rect fill="none" height="443.5" rx="8" ry="8" style="stroke:#000000;stroke-width:1.5;" width="345.916" x="827.9585" y="587"/><path d="M978.7925,587 L978.7925,594 L968.7925,604 L827.9585,604" fill="none" style="stroke:#000000;stroke-width:1.5;"/><text fill="#000000" font-family="Helvetica" font-size="14" lengthAdjust="spacing" textLength="140.834" x="830.9585" y="598.7803">Lifecycle Classification</text><rect fill="#F8FAFC" height="48" rx="8" ry="8" style="stroke:#0F172A;stroke-width:0.5;" width="280.5928" x="854.6201" y="670"/><text fill="#0F172A" font-family="Helvetica" font-size="14" lengthAdjust="spacing" textLength="240.4541" x="864.6201" y="690.7803">Request requeue while OCI remains in</text><text fill="#0F172A" font-family="Helvetica" font-size="14" lengthAdjust="spacing" textLength="260.5928" x="864.6201" y="704.7803">PROVISIONING, UPDATING, DELETING</text><ellipse cx="994.9165" cy="757.5" fill="none" rx="11" ry="11" style="stroke:#222222;stroke-width:1;"/><ellipse cx="994.9165" cy="757.5" fill="#222222" rx="6" ry="6" style="stroke:#222222;stroke-width:1;"/><polygon fill="#E2E8F0" points="908.6333,621,1081.1997,621,1093.1997,633,1081.1997,645,908.6333,645,896.6333,633,908.6333,621" style="stroke:#1D4ED8;stroke-width:0.5;"/><text fill="#000000" font-family="Helvetica" font-size="14" lengthAdjust="spacing" textLength="21.7861" x="998.9165" y="655.7803">yes</text><text fill="#0F172A" font-family="Helvetica" font-size="14" lengthAdjust="spacing" textLength="172.5664" x="908.6333" y="636.7803">"OCI state in retryable set?"</text><rect fill="#F8FAFC" height="48" rx="8" ry="8" style="stroke:#0F172A;stroke-width:0.5;" width="293.916" x="847.9585" y="883.5"/><text fill="#0F172A" font-family="Helvetica" font-size="14" lengthAdjust="spacing" textLength="273.916" x="857.9585" y="904.2803">Return an unsuccessful reconcile result until</text><text fill="#0F172A" font-family="Helvetica" font-size="14" lengthAdjust="spacing" textLength="133.041" x="857.9585" y="918.2803">OCI reaches ACTIVE</text><ellipse cx="994.9165" cy="977.5" fill="none" rx="11" ry="11" style="stroke:#222222;stroke-width:1;"/><ellipse cx="994.9165" cy="977.5" fill="#222222" rx="6" ry="6" style="stroke:#222222;stroke-width:1;"/><polygon fill="#E2E8F0" points="874.3955,834.5,1115.4375,834.5,1127.4375,846.5,1115.4375,858.5,874.3955,858.5,862.3955,846.5,874.3955,834.5" style="stroke:#1D4ED8;stroke-width:0.5;"/><text fill="#000000" font-family="Helvetica" font-size="14" lengthAdjust="spacing" textLength="21.7861" x="998.9165" y="869.2803">yes</text><text fill="#0F172A" font-family="Helvetica" font-size="14" lengthAdjust="spacing" textLength="241.042" x="874.3955" y="850.2803">"OCI state is outside success targets?"</text><rect fill="none" height="722.5" rx="8" ry="8" style="stroke:#000000;stroke-width:1.5;" width="570.584" x="675.4814" y="1040.5"/><path d="M841.9014,1040.5 L841.9014,1047.5 L831.9014,1057.5 L675.4814,1057.5" fill="none" style="stroke:#000000;stroke-width:1.5;"/><text fill="#000000" font-family="Helvetica" font-size="14" lengthAdjust="spacing" textLength="156.4199" x="678.4814" y="1052.2803">Ready and Drift Handling</text><rect fill="#F8FAFC" height="48" rx="8" ry="8" style="stroke:#0F172A;stroke-width:0.5;" width="296.2402" x="846.7964" y="1074.5"/><text fill="#0F172A" font-family="Helvetica" font-size="14" lengthAdjust="spacing" textLength="276.2402" x="856.7964" y="1095.2803">Compare live OCI state against the imported</text><text fill="#0F172A" font-family="Helvetica" font-size="14" lengthAdjust="spacing" textLength="75.4824" x="856.7964" y="1109.2803">field surface</text><rect fill="#F8FAFC" height="48" rx="8" ry="8" style="stroke:#0F172A;stroke-width:0.5;" width="302.4473" x="843.6929" y="1191.5"/><text fill="#0F172A" font-family="Helvetica" font-size="14" lengthAdjust="spacing" textLength="282.4473" x="853.6929" y="1212.2803">Reject drift before OCI mutation for force-new</text><text fill="#0F172A" font-family="Helvetica" font-size="14" lengthAdjust="spacing" textLength="136.9512" x="853.6929" y="1226.2803">fields compartment_id</text><ellipse cx="994.9165" cy="1272" fill="none" rx="11" ry="11" style="stroke:#222222;stroke-width:1;"/><ellipse cx="994.9165" cy="1272" fill="#222222" rx="6" ry="6" style="stroke:#222222;stroke-width:1;"/><polygon fill="#E2E8F0" points="869.3335,1142.5,1120.4995,1142.5,1132.4995,1154.5,1120.4995,1166.5,869.3335,1166.5,857.3335,1154.5,869.3335,1142.5" style="stroke:#1D4ED8;stroke-width:0.5;"/><text fill="#000000" font-family="Helvetica" font-size="14" lengthAdjust="spacing" textLength="21.7861" x="998.9165" y="1177.2803">yes</text><text fill="#0F172A" font-family="Helvetica" font-size="14" lengthAdjust="spacing" textLength="251.166" x="869.3335" y="1158.2803">"Force-new or conflicting drift detected?"</text><polygon fill="#E2E8F0" points="884.4888,1325,1105.3442,1325,1117.3442,1337,1105.3442,1349,884.4888,1349,872.4888,1337,884.4888,1325" style="stroke:#1D4ED8;stroke-width:0.5;"/><text fill="#0F172A" font-family="Helvetica" font-size="14" lengthAdjust="spacing" textLength="220.8555" x="884.4888" y="1340.7803">"Supported mutable drift detected?"</text><text fill="#000000" font-family="Helvetica" font-size="14" lengthAdjust="spacing" textLength="21.7861" x="850.7026" y="1333.7803">yes</text><text fill="#000000" font-family="Helvetica" font-size="14" lengthAdjust="spacing" textLength="15.5723" x="1117.3442" y="1333.7803">no</text><rect fill="#F8FAFC" height="48" rx="8" ry="8" style="stroke:#0F172A;stroke-width:0.5;" width="319.5781" x="695.4814" y="1359"/><text fill="#0F172A" font-family="Helvetica" font-size="14" lengthAdjust="spacing" textLength="299.5781" x="705.4814" y="1379.7803">Apply UpdateOptimizerResourceActions only for</text><text fill="#0F172A" font-family="Helvetica" font-size="14" lengthAdjust="spacing" textLength="176.6543" x="705.4814" y="1393.7803">mutable fields display_name</text><rect fill="#F8FAFC" height="34" rx="8" ry="8" style="stroke:#0F172A;stroke-width:0.5;" width="199.0059" x="1035.0596" y="1359"/><text fill="#0F172A" font-family="Helvetica" font-size="14" lengthAdjust="spacing" textLength="179.0059" x="1045.0596" y="1379.7803">Skip the no-op mutation path</text><polygon fill="#E2E8F0" points="994.9165,1413,1006.9165,1425,994.9165,1437,982.9165,1425,994.9165,1413" style="stroke:#1D4ED8;stroke-width:0.5;"/><rect fill="#F8FAFC" height="118" rx="8" ry="8" style="stroke:#0F172A;stroke-width:0.5;" width="334.3164" x="827.7583" y="1457"/><text fill="#0F172A" font-family="Helvetica" font-size="14" lengthAdjust="spacing" textLength="164.2061" x="837.7583" y="1477.7803">Run provider helper hooks</text><text fill="#0F172A" font-family="Helvetica" font-size="14" lengthAdjust="spacing" textLength="219.0508" x="837.7583" y="1491.7803">create=tfresource.CreateResource,</text><text fill="#0F172A" font-family="Helvetica" font-size="14" lengthAdjust="spacing" textLength="314.3164" x="837.7583" y="1505.7803">tfresource.WaitForWorkRequestWithErrorHandling</text><text fill="#0F172A" font-family="Helvetica" font-size="14" lengthAdjust="spacing" textLength="215.5439" x="837.7583" y="1519.7803">entity=template action=CREATED;</text><text fill="#0F172A" font-family="Helvetica" font-size="14" lengthAdjust="spacing" textLength="226.085" x="837.7583" y="1533.7803">update=tfresource.UpdateResource;</text><text fill="#0F172A" font-family="Helvetica" font-size="14" lengthAdjust="spacing" textLength="273.5537" x="837.7583" y="1547.7803">delete=tfresource.DeleteResource when the</text><text fill="#0F172A" font-family="Helvetica" font-size="14" lengthAdjust="spacing" textLength="220.2334" x="837.7583" y="1561.7803">matching field-driven path executes</text><rect fill="#F8FAFC" height="34" rx="8" ry="8" style="stroke:#0F172A;stroke-width:0.5;" width="303.2197" x="843.3066" y="1595"/><text fill="#0F172A" font-family="Helvetica" font-size="14" lengthAdjust="spacing" textLength="283.2197" x="853.3066" y="1615.7803">Return success for the ACTIVE success state</text><rect fill="#F8FAFC" height="48" rx="8" ry="8" style="stroke:#0F172A;stroke-width:0.5;" width="279.1299" x="855.3516" y="1649"/><text fill="#0F172A" font-family="Helvetica" font-size="14" lengthAdjust="spacing" textLength="259.1299" x="865.3516" y="1669.7803">Project required status and finalizer policy</text><text fill="#0F172A" font-family="Helvetica" font-size="14" lengthAdjust="spacing" textLength="174.3027" x="865.3516" y="1683.7803">retain-until-confirmed-delete</text><rect fill="#F8FAFC" height="34" rx="8" ry="8" style="stroke:#0F172A;stroke-width:0.5;" width="313.4189" x="838.207" y="1717"/><text fill="#0F172A" font-family="Helvetica" font-size="14" lengthAdjust="spacing" textLength="293.4189" x="848.207" y="1737.7803">Requeue on provisioning, updating, terminating</text><path d="M698.3303,1773 L698.3303,1991 L678.3303,1995 L698.3303,1999 L698.3303,2217 A0,0 0 0 0 698.3303,2217 L1015.012,2217 A0,0 0 0 0 1015.012,2217 L1015.012,1783 L1005.012,1773 L698.3303,1773 A0,0 0 0 0 698.3303,1773" fill="#FFF7D6" style="stroke:#B45309;stroke-width:0.5;"/><path d="M1005.012,1773 L1005.012,1783 L1015.012,1783 L1005.012,1773" fill="#FFF7D6" style="stroke:#B45309;stroke-width:0.5;"/><text fill="#334155" font-family="Helvetica" font-size="14" lengthAdjust="spacing" textLength="101.165" x="704.3303" y="1788.7803">shared diagram:</text><text fill="#334155" font-family="Helvetica" font-size="14" lengthAdjust="spacing" textLength="284.7852" x="704.3303" y="1802.7803">shared/diagrams/shared-reconcile-activity.svg</text><text fill="#334155" font-family="Helvetica" font-size="14" lengthAdjust="spacing" textLength="265.3438" x="704.3303" y="1816.7803">Start from the shared reconcile activity and</text><text fill="#334155" font-family="Helvetica" font-size="14" lengthAdjust="spacing" textLength="273.8955" x="704.3303" y="1830.7803">specialize provider-backed CRUD, wait, and</text><text fill="#334155" font-family="Helvetica" font-size="14" lengthAdjust="spacing" textLength="182.875" x="704.3303" y="1844.7803">status-projection details here.</text><text fill="#334155" font-family="Helvetica" font-size="14" lengthAdjust="spacing" textLength="229.5371" x="704.3303" y="1858.7803">Controller-local activity diagrams add</text><text fill="#334155" font-family="Helvetica" font-size="14" lengthAdjust="spacing" textLength="238.8955" x="704.3303" y="1872.7803">list-lookup hints, secret policies, delete</text><text fill="#334155" font-family="Helvetica" font-size="14" lengthAdjust="spacing" textLength="200.0332" x="704.3303" y="1886.7803">handling, and open formal gaps.</text><text fill="#334155" font-family="Helvetica" font-size="14" lengthAdjust="spacing" textLength="281.709" x="704.3303" y="1900.7803">archetype batch: Generated service-manager</text><text fill="#334155" font-family="Helvetica" font-size="14" lengthAdjust="spacing" textLength="291.0469" x="704.3303" y="1914.7803">controllers specialize the shared reconcile path</text><text fill="#334155" font-family="Helvetica" font-size="14" lengthAdjust="spacing" textLength="189.8477" x="704.3303" y="1928.7803">with formal runtime ownership.</text><text fill="#334155" font-family="Helvetica" font-size="14" lengthAdjust="spacing" textLength="108.917" x="704.3303" y="1942.7803">service: optimizer</text><text fill="#334155" font-family="Helvetica" font-size="14" lengthAdjust="spacing" textLength="189.082" x="704.3303" y="1956.7803">slug: optimizerresourceactions</text><text fill="#334155" font-family="Helvetica" font-size="14" lengthAdjust="spacing" textLength="199.1855" x="704.3303" y="1970.7803">kind: OptimizerResourceActions</text><text fill="#334155" font-family="Helvetica" font-size="14" lengthAdjust="spacing" textLength="241.2402" x="704.3303" y="1984.7803">archetype: generated-service-manager</text><text fill="#334155" font-family="Helvetica" font-size="14" lengthAdjust="spacing" textLength="156.4063" x="704.3303" y="1998.7803">status/finalizer: required /</text><text fill="#334155" font-family="Helvetica" font-size="14" lengthAdjust="spacing" textLength="174.3027" x="704.3303" y="2012.7803">retain-until-confirmed-delete</text><text fill="#334155" font-family="Helvetica" font-size="14" lengthAdjust="spacing" textLength="272.3984" x="704.3303" y="2026.7803">requeue: provisioning, updating, terminating</text><text fill="#334155" font-family="Helvetica" font-size="14" lengthAdjust="spacing" textLength="295.6816" x="704.3303" y="2040.7803">provider states: create PROVISIONING; update</text><text fill="#334155" font-family="Helvetica" font-size="14" lengthAdjust="spacing" textLength="192.165" x="704.3303" y="2054.7803">UPDATING; delete DELETING</text><text fill="#334155" font-family="Helvetica" font-size="14" lengthAdjust="spacing" textLength="183.6611" x="704.3303" y="2068.7803">supported drift: display_name</text><text fill="#334155" font-family="Helvetica" font-size="14" lengthAdjust="spacing" textLength="230.3301" x="704.3303" y="2082.7803">reject before mutate: force-new fields</text><text fill="#334155" font-family="Helvetica" font-size="14" lengthAdjust="spacing" textLength="100.3789" x="704.3303" y="2096.7803">compartment_id</text><text fill="#334155" font-family="Helvetica" font-size="14" lengthAdjust="spacing" textLength="66.1445" x="704.3303" y="2110.7803">list lookup:</text><text fill="#334155" font-family="Helvetica" font-size="14" lengthAdjust="spacing" textLength="276.2334" x="704.3303" y="2124.7803">scaffold_optimizer_optimizerresourceactions</text><text fill="#334155" font-family="Helvetica" font-size="14" lengthAdjust="spacing" textLength="175.8477" x="704.3303" y="2138.7803">filters compartment_id, state</text><text fill="#334155" font-family="Helvetica" font-size="14" lengthAdjust="spacing" textLength="89.4961" x="704.3303" y="2152.7803">conflicts: none</text><text fill="#334155" font-family="Helvetica" font-size="14" lengthAdjust="spacing" textLength="104.3164" x="704.3303" y="2166.7803">open gaps: none</text><text fill="#334155" font-family="Helvetica" font-size="14" lengthAdjust="spacing" textLength="224.9023" x="704.3303" y="2180.7803">Scaffold metadata only; replace with</text><text fill="#334155" font-family="Helvetica" font-size="14" lengthAdjust="spacing" textLength="244.3232" x="704.3303" y="2194.7803">controller-specific runtime states before</text><text fill="#334155" font-family="Helvetica" font-size="14" lengthAdjust="spacing" textLength="66.1445" x="704.3303" y="2208.7803">promotion.</text><ellipse cx="667.3303" cy="1995" fill="none" rx="11" ry="11" style="stroke:#222222;stroke-width:1;"/><ellipse cx="667.3303" cy="1995" fill="#222222" rx="6" ry="6" style="stroke:#222222;stroke-width:1;"/><line style="stroke:#0F172A;stroke-width:1;" x1="667.3303" x2="667.3303" y1="157" y2="177"/><polygon fill="#0F172A" points="663.3303,167,667.3303,177,671.3303,167,667.3303,171" style="stroke:#0F172A;stroke-width:1;"/><line style="stroke:#0F172A;stroke-width:1;" x1="818.7961" x2="818.7961" y1="341" y2="361"/><polygon fill="#0F172A" points="814.7961,351,818.7961,361,822.7961,351,818.7961,355" style="stroke:#0F172A;stroke-width:1;"/><line style="stroke:#0F172A;stroke-width:1;" x1="818.7961" x2="818.7961" y1="423" y2="443"/><polygon fill="#0F172A" points="814.7961,433,818.7961,443,822.7961,433,818.7961,437" style="stroke:#0F172A;stroke-width:1;"/><line style="stroke:#0F172A;stroke-width:1;" x1="525.8645" x2="515.8645" y1="257" y2="257"/><line style="stroke:#0F172A;stroke-width:1;" x1="515.8645" x2="515.8645" y1="257" y2="279"/><polygon fill="#0F172A" points="511.8645,269,515.8645,279,519.8645,269,515.8645,273" style="stroke:#0F172A;stroke-width:1;"/><line style="stroke:#0F172A;stroke-width:1;" x1="808.7961" x2="818.7961" y1="257" y2="257"/><line style="stroke:#0F172A;stroke-width:1;" x1="818.7961" x2="818.7961" y1="257" y2="279"/><polygon fill="#0F172A" points="814.7961,269,818.7961,279,822.7961,269,818.7961,273" style="stroke:#0F172A;stroke-width:1;"/><line style="stroke:#0F172A;stroke-width:1;" x1="515.8645" x2="515.8645" y1="327" y2="509"/><line style="stroke:#0F172A;stroke-width:1;" x1="515.8645" x2="655.3303" y1="509" y2="509"/><polygon fill="#0F172A" points="645.3303,505,655.3303,509,645.3303,513,649.3303,509" style="stroke:#0F172A;stroke-width:1;"/><line style="stroke:#0F172A;stroke-width:1;" x1="818.7961" x2="818.7961" y1="491" y2="509"/><line style="stroke:#0F172A;stroke-width:1;" x1="818.7961" x2="679.3303" y1="509" y2="509"/><polygon fill="#0F172A" points="689.3303,505,679.3303,509,689.3303,513,685.3303,509" style="stroke:#0F172A;stroke-width:1;"/><line style="stroke:#0F172A;stroke-width:1;" x1="667.3303" x2="667.3303" y1="225" y2="245"/><polygon fill="#0F172A" points="663.3303,235,667.3303,245,671.3303,235,667.3303,239" style="stroke:#0F172A;stroke-width:1;"/><line style="stroke:#0F172A;stroke-width:1;" x1="667.3303" x2="667.3303" y1="65" y2="109"/><polygon fill="#0F172A" points="663.3303,99,667.3303,109,671.3303,99,667.3303,103" style="stroke:#0F172A;stroke-width:1;"/><line style="stroke:#0F172A;stroke-width:1;" x1="339.7441" x2="339.7441" y1="711" y2="739.5"/><polygon fill="#0F172A" points="335.7441,729.5,339.7441,739.5,343.7441,729.5,339.7441,733.5" style="stroke:#0F172A;stroke-width:1;"/><line style="stroke:#0F172A;stroke-width:1;" x1="179.5718" x2="169.5718" y1="862.5" y2="862.5"/><line style="stroke:#0F172A;stroke-width:1;" x1="169.5718" x2="169.5718" y1="862.5" y2="884.5"/><polygon fill="#0F172A" points="165.5718,874.5,169.5718,884.5,173.5718,874.5,169.5718,878.5" style="stroke:#0F172A;stroke-width:1;"/><line style="stroke:#0F172A;stroke-width:1;" x1="499.9165" x2="509.9165" y1="862.5" y2="862.5"/><line style="stroke:#0F172A;stroke-width:1;" x1="509.9165" x2="509.9165" y1="862.5" y2="884.5"/><polygon fill="#0F172A" points="505.9165,874.5,509.9165,884.5,513.9165,874.5,509.9165,878.5" style="stroke:#0F172A;stroke-width:1;"/><line style="stroke:#0F172A;stroke-width:1;" x1="169.5718" x2="169.5718" y1="918.5" y2="950.5"/><line style="stroke:#0F172A;stroke-width:1;" x1="169.5718" x2="327.7441" y1="950.5" y2="950.5"/><polygon fill="#0F172A" points="317.7441,946.5,327.7441,950.5,317.7441,954.5,321.7441,950.5" style="stroke:#0F172A;stroke-width:1;"/><line style="stroke:#0F172A;stroke-width:1;" x1="509.9165" x2="509.9165" y1="932.5" y2="950.5"/><line style="stroke:#0F172A;stroke-width:1;" x1="509.9165" x2="351.7441" y1="950.5" y2="950.5"/><polygon fill="#0F172A" points="361.7441,946.5,351.7441,950.5,361.7441,954.5,357.7441,950.5" style="stroke:#0F172A;stroke-width:1;"/><line style="stroke:#0F172A;stroke-width:1;" x1="339.7441" x2="339.7441" y1="815.5" y2="850.5"/><polygon fill="#0F172A" points="335.7441,840.5,339.7441,850.5,343.7441,840.5,339.7441,844.5" style="stroke:#0F172A;stroke-width:1;"/><line style="stroke:#0F172A;stroke-width:1;" x1="339.7441" x2="339.7441" y1="962.5" y2="1008.5"/><polygon fill="#0F172A" points="335.7441,998.5,339.7441,1008.5,343.7441,998.5,339.7441,1002.5" style="stroke:#0F172A;stroke-width:1;"/><line style="stroke:#0F172A;stroke-width:1;" x1="994.9165" x2="994.9165" y1="718" y2="746.5"/><polygon fill="#0F172A" points="990.9165,736.5,994.9165,746.5,998.9165,736.5,994.9165,740.5" style="stroke:#0F172A;stroke-width:1;"/><line style="stroke:#0F172A;stroke-width:1;" x1="994.9165" x2="994.9165" y1="645" y2="670"/><polygon fill="#0F172A" points="990.9165,660,994.9165,670,998.9165,660,994.9165,664" style="stroke:#0F172A;stroke-width:1;"/><line style="stroke:#0F172A;stroke-width:1;" x1="1093.1997" x2="1145.2129" y1="633" y2="633"/><polygon fill="#0F172A" points="1141.2129,709.5,1145.2129,719.5,1149.2129,709.5,1145.2129,713.5" style="stroke:#0F172A;stroke-width:1;"/><line style="stroke:#0F172A;stroke-width:1;" x1="1145.2129" x2="1145.2129" y1="633" y2="799.5"/><line style="stroke:#0F172A;stroke-width:1;" x1="1145.2129" x2="994.9165" y1="799.5" y2="799.5"/><line style="stroke:#0F172A;stroke-width:1;" x1="994.9165" x2="994.9165" y1="799.5" y2="834.5"/><polygon fill="#0F172A" points="990.9165,824.5,994.9165,834.5,998.9165,824.5,994.9165,828.5" style="stroke:#0F172A;stroke-width:1;"/><line style="stroke:#0F172A;stroke-width:1;" x1="994.9165" x2="994.9165" y1="931.5" y2="966.5"/><polygon fill="#0F172A" points="990.9165,956.5,994.9165,966.5,998.9165,956.5,994.9165,960.5" style="stroke:#0F172A;stroke-width:1;"/><line style="stroke:#0F172A;stroke-width:1;" x1="994.9165" x2="994.9165" y1="858.5" y2="883.5"/><polygon fill="#0F172A" points="990.9165,873.5,994.9165,883.5,998.9165,873.5,994.9165,877.5" style="stroke:#0F172A;stroke-width:1;"/><line style="stroke:#0F172A;stroke-width:1;" x1="1127.4375" x2="1151.8745" y1="846.5" y2="846.5"/><polygon fill="#0F172A" points="1147.8745,923,1151.8745,933,1155.8745,923,1151.8745,927" style="stroke:#0F172A;stroke-width:1;"/><line style="stroke:#0F172A;stroke-width:1;" x1="1151.8745" x2="1151.8745" y1="846.5" y2="1010.5"/><line style="stroke:#0F172A;stroke-width:1;" x1="1151.8745" x2="994.9165" y1="1010.5" y2="1010.5"/><line style="stroke:#0F172A;stroke-width:1;" x1="994.9165" x2="994.9165" y1="1010.5" y2="1074.5"/><polygon fill="#0F172A" points="990.9165,1064.5,994.9165,1074.5,998.9165,1064.5,994.9165,1068.5" style="stroke:#0F172A;stroke-width:1;"/><line style="stroke:#0F172A;stroke-width:1;" x1="994.9165" x2="994.9165" y1="1239.5" y2="1261"/><polygon fill="#0F172A" points="990.9165,1251,994.9165,1261,998.9165,1251,994.9165,1255" style="stroke:#0F172A;stroke-width:1;"/><line style="stroke:#0F172A;stroke-width:1;" x1="994.9165" x2="994.9165" y1="1166.5" y2="1191.5"/><polygon fill="#0F172A" points="990.9165,1181.5,994.9165,1191.5,998.9165,1181.5,994.9165,1185.5" style="stroke:#0F172A;stroke-width:1;"/><line style="stroke:#0F172A;stroke-width:1;" x1="1132.4995" x2="1156.1401" y1="1154.5" y2="1154.5"/><polygon fill="#0F172A" points="1152.1401,1231,1156.1401,1241,1160.1401,1231,1156.1401,1235" style="stroke:#0F172A;stroke-width:1;"/><line style="stroke:#0F172A;stroke-width:1;" x1="1156.1401" x2="1156.1401" y1="1154.5" y2="1305"/><line style="stroke:#0F172A;stroke-width:1;" x1="1156.1401" x2="994.9165" y1="1305" y2="1305"/><line style="stroke:#0F172A;stroke-width:1;" x1="994.9165" x2="994.9165" y1="1305" y2="1325"/><polygon fill="#0F172A" points="990.9165,1315,994.9165,1325,998.9165,1315,994.9165,1319" style="stroke:#0F172A;stroke-width:1;"/><line style="stroke:#0F172A;stroke-width:1;" x1="994.9165" x2="994.9165" y1="1122.5" y2="1142.5"/><polygon fill="#0F172A" points="990.9165,1132.5,994.9165,1142.5,998.9165,1132.5,994.9165,1136.5" style="stroke:#0F172A;stroke-width:1;"/><line style="stroke:#0F172A;stroke-width:1;" x1="872.4888" x2="855.2705" y1="1337" y2="1337"/><line style="stroke:#0F172A;stroke-width:1;" x1="855.2705" x2="855.2705" y1="1337" y2="1359"/><polygon fill="#0F172A" points="851.2705,1349,855.2705,1359,859.2705,1349,855.2705,1353" style="stroke:#0F172A;stroke-width:1;"/><line style="stroke:#0F172A;stroke-width:1;" x1="1117.3442" x2="1134.5625" y1="1337" y2="1337"/><line style="stroke:#0F172A;stroke-width:1;" x1="1134.5625" x2="1134.5625" y1="1337" y2="1359"/><polygon fill="#0F172A" points="1130.5625,1349,1134.5625,1359,1138.5625,1349,1134.5625,1353" style="stroke:#0F172A;stroke-width:1;"/><line style="stroke:#0F172A;stroke-width:1;" x1="855.2705" x2="855.2705" y1="1407" y2="1425"/><line style="stroke:#0F172A;stroke-width:1;" x1="855.2705" x2="982.9165" y1="1425" y2="1425"/><polygon fill="#0F172A" points="972.9165,1421,982.9165,1425,972.9165,1429,976.9165,1425" style="stroke:#0F172A;stroke-width:1;"/><line style="stroke:#0F172A;stroke-width:1;" x1="1134.5625" x2="1134.5625" y1="1393" y2="1425"/><line style="stroke:#0F172A;stroke-width:1;" x1="1134.5625" x2="1006.9165" y1="1425" y2="1425"/><polygon fill="#0F172A" points="1016.9165,1421,1006.9165,1425,1016.9165,1429,1012.9165,1425" style="stroke:#0F172A;stroke-width:1;"/><line style="stroke:#0F172A;stroke-width:1;" x1="994.9165" x2="994.9165" y1="1437" y2="1457"/><polygon fill="#0F172A" points="990.9165,1447,994.9165,1457,998.9165,1447,994.9165,1451" style="stroke:#0F172A;stroke-width:1;"/><line style="stroke:#0F172A;stroke-width:1;" x1="994.9165" x2="994.9165" y1="1575" y2="1595"/><polygon fill="#0F172A" points="990.9165,1585,994.9165,1595,998.9165,1585,994.9165,1589" style="stroke:#0F172A;stroke-width:1;"/><line style="stroke:#0F172A;stroke-width:1;" x1="994.9165" x2="994.9165" y1="1629" y2="1649"/><polygon fill="#0F172A" points="990.9165,1639,994.9165,1649,998.9165,1639,994.9165,1643" style="stroke:#0F172A;stroke-width:1;"/><line style="stroke:#0F172A;stroke-width:1;" x1="994.9165" x2="994.9165" y1="1697" y2="1717"/><polygon fill="#0F172A" points="990.9165,1707,994.9165,1717,998.9165,1707,994.9165,1711" style="stroke:#0F172A;stroke-width:1;"/><line style="stroke:#0F172A;stroke-width:1;" x1="593.1541" x2="339.7441" y1="565" y2="565"/><line style="stroke:#0F172A;stroke-width:1;" x1="339.7441" x2="339.7441" y1="565" y2="621"/><polygon fill="#0F172A" points="335.7441,611,339.7441,621,343.7441,611,339.7441,615" style="stroke:#0F172A;stroke-width:1;"/><line style="stroke:#0F172A;stroke-width:1;" x1="741.5066" x2="994.9165" y1="565" y2="565"/><line style="stroke:#0F172A;stroke-width:1;" x1="994.9165" x2="994.9165" y1="565" y2="621"/><polygon fill="#0F172A" points="990.9165,611,994.9165,621,998.9165,611,994.9165,615" style="stroke:#0F172A;stroke-width:1;"/><line style="stroke:#0F172A;stroke-width:1;" x1="994.9165" x2="994.9165" y1="1751" y2="1768"/><line style="stroke:#0F172A;stroke-width:1;" x1="994.9165" x2="667.3303" y1="1768" y2="1768"/><line style="stroke:#0F172A;stroke-width:1;" x1="667.3303" x2="667.3303" y1="1768" y2="1984"/><polygon fill="#0F172A" points="663.3303,1974,667.3303,1984,671.3303,1974,667.3303,1978" style="stroke:#0F172A;stroke-width:1;"/><line style="stroke:#0F172A;stroke-width:1;" x1="667.3303" x2="667.3303" y1="521" y2="553"/><polygon fill="#0F172A" points="663.3303,543,667.3303,553,671.3303,543,667.3303,547" style="stroke:#0F172A;stroke-width:1;"/><?plantuml-src bLTjRzis4FwkNq5aNrh0JfesVPcDOaYTT0rGD46IjbyC1BHqihbGf4PIzhoX_tqFNoJBJfnk2898ul5uzznp3o_sNgYQ6runk-25NWarPoMNbZBRhSnuVZytkb75H4jjs2zbZf-YPr5GoHlfFchbll2As2UIIt8Yvu_Rt8Y_YHsVz1QvCNgLlByeZz--xEzKsj671p6KvTlYpQwLDWMPP34xUVtgnQyx5lxujFxgrSdnwzUzzU0-rqQHOSTlCYUS97QQEx4KRis6JDTEL0ZT75ssJzTaTMDoybPQsNv6xRv_ClO8WkzANkP-fHznofonSXDbzwqGlDAgU004lQHtvOkUGT_ZSN52nRlDuiT775l7ZTkrfyv_PpVZErv_P65hXeI15V9d1vSpIsP9ZAk2VH2gE43wenjlnKgZ0yaC5QoKUZLLyUK8eSs1c3sAxqD3kLQva3HiCJoqo_au6rqJBq0ZAxoBVILWjgPyC5NE02ZO8KJNs468g219ZfXGZfGRPw9apmvkantoehzgANBXsENaWea2Dhv-jI6BnzyEdZEt8CMUhSa-pqQ_a_FlB6-CmNBOOr8eR2duLC5YNv3ZZD1Yx9dIptrQLik06I8GrlaMtFBc5gZtV35Ldx6wD-_6XjuLqf6nKvNhojUbGcnteXW470WWJWpX8OJ-CEIukFU8bSzVwQaor5W-GtTKtEKB9YmO2qR2_HKEHvJ1luc91MppuBdOWdQgK0cTAWH8L25Aa2gKvIoMoj2V3Lbit86_Hxbe6OYMDjNSBG070ONuPNz20fR-34-fgG86x8cg8O-Vr03Pd9r_FhyzF_C5KAKm00Wh7lVu6Zde0_yPHtv-MWCKPQeYpnSXttZwU0l4N19NJHrQe1IAI-yCU_0P9BHDdjC3WC7AIYyZJpPxU0bojMta6HPpsQ8pkdtDPbA7heeXjW601vqlJwAj07eCi4xNFPUzOdyM9ULh-6CJoQqL9UuOl-BB7rBsQ0IgeykHeZFhm5DBxc62WLgHOWs1t92SX6R51V0LQggkhY-_NTnSN7wv-FBxW7szEZkz3Ky1Q3oDKx0Xyjq8KCF6MT0zvcX146xcvEp3M5nZb5U0HYNJif6iKqBVIhWx8vnJrIivEvtSNdmxtmhZHnynBvhhKFep8qh7Fk5HGYb2mqo2I12JOXbJZu7pkSy_Dh6eQcsSxuvIa8IUDgRaEIM6VTJWur3HAlGuA0u13G9MXCCAy2HtZv7h3tnFHZCgjOd7LuqBvOIS6FyRVQUZBTlMj8VGtpHr33OuydL_EepJkfPhzhKkdX8zhM1J-cPidQPe2c5hoTTt2XFFTWVSYpfWf_HGrvkal2wr91zTD_XWz1BiC6n1ilP_jBxtqXsqyhqhMt4-ZBhSHkPljytQToumL9dlsjmdId-7gfrZe39jhQSg2kvxHsZPKE6GtFl9zVcfbuifkhFOEJF2qfu9azZsVPEeBwr9l1wGDv3orqAyZW3L45LOKimVLnpbZICxxbZVzeQlkKSjChhxt5vSLqO7qhHodUwD7LMhDHYuzkBYmE5XQ9XXacBC5Z67SUf-TBrELR200m4FM00YF47gAlZrBsFqLAnRe9mV99aHyuNBqa2JPfXHzhzccgmt6VdCaxDDstT399BC_60ZGfeTSOQpEBnChh-U3TWAJ1X4qm3Di8wGUUuL7WzfmJH3Xnak8sUqbF00eUPoSr0REED5aKdSFZ3Gzz1kbDDXZB84The8io1yY8XcYqIrE6Zfca8FLt0zvxKzpBY1MhbrJHWZmOqHxbcCsM4ay1EZGATNNF4vcIplWel3NChvKO0yfR9mYwVJZAyu_WFHAxYt2r4VPid_Q3E_PrOsyzvxIsYUfdWCySLexuIvoMN4vcqMmzqiOWcEEcQEDiGzofvaPvPkfD5_OMRMQKZe4pjAanRhNrpZk9UozluQjtTuUurbjfFE89cZBNL3HA7rab87GKDudK0dHSoszJdGXqNwe35oNfPQ5dSTwdTxyKz3B7jqXitQQmQvAgqe2sJpB4llD-aaLW5bfCs3X8-1FnBoCWMwz4Ws31p38D5n9oAPilK0Lzh7TUWb8FmJ-Iy0?></g></svg>