<?plantuml 1.2026.1?><svg xmlns="http://www.w3.org/2000/svg" xmlns:xlink="http://www.w3.org/1999/xlink" contentStyleType="text/css" data-diagram-type="ACTIVITY" height="1441px" preserveAspectRatio="none" style="width:752px;height:1441px;background:#FCFCFD;" version="1.1" viewBox="0 0 752 1441" width="752px" zoomAndPan="magnify"><title>Activity - dataintegration/DataintegrationWorkspaceApplicationPatches</title><defs/><g><rect fill="#FCFCFD" height="1441" style="stroke:none;stroke-width:1;" width="752" x="0" y="0"/><g class="title" data-source-line="10"><text fill="#000000" font-family="Helvetica" font-size="14" font-weight="bold" lengthAdjust="spacing" textLength="475.3096" x="137.0704" y="30.7803">Activity - dataintegration/DataintegrationWorkspaceApplicationPatches</text></g><ellipse cx="369.4104" cy="55" fill="#1D4ED8" rx="10" ry="10" style="stroke:#222222;stroke-width:1;"/><rect fill="#F8FAFC" height="48" rx="8" ry="8" style="stroke:#0F172A;stroke-width:0.5;" width="304.7852" x="217.0178" y="85"/><text fill="#0F172A" font-family="Helvetica" font-size="14" lengthAdjust="spacing" textLength="136.9375" x="227.0178" y="105.7803">Start from shared flow</text><text fill="#0F172A" font-family="Helvetica" font-size="14" lengthAdjust="spacing" textLength="284.7852" x="227.0178" y="119.7803">shared/diagrams/shared-reconcile-activity.svg</text><rect fill="#F8FAFC" height="62" rx="8" ry="8" style="stroke:#0F172A;stroke-width:0.5;" width="304.0469" x="217.387" y="153"/><text fill="#0F172A" font-family="Helvetica" font-size="14" lengthAdjust="spacing" textLength="80.9512" x="227.387" y="173.7803">Load desired</text><text fill="#0F172A" font-family="Helvetica" font-size="14" lengthAdjust="spacing" textLength="284.0469" x="227.387" y="187.7803">DataintegrationWorkspaceApplicationPatches</text><text fill="#0F172A" font-family="Helvetica" font-size="14" lengthAdjust="spacing" textLength="205.4473" x="227.387" y="201.7803">spec and status from Kubernetes</text><rect fill="#F8FAFC" height="90" rx="8" ry="8" style="stroke:#0F172A;stroke-width:0.5;" width="326.6123" x="206.1042" y="235"/><text fill="#0F172A" font-family="Helvetica" font-size="14" lengthAdjust="spacing" textLength="135.3857" x="216.1042" y="255.7803">Resolve OCI state via</text><text fill="#0F172A" font-family="Helvetica" font-size="14" lengthAdjust="spacing" textLength="306.6123" x="216.1042" y="269.7803">GetDataintegrationWorkspaceApplicationPatches</text><text fill="#0F172A" font-family="Helvetica" font-size="14" lengthAdjust="spacing" textLength="24.8965" x="216.1042" y="283.7803">with</text><text fill="#0F172A" font-family="Helvetica" font-size="14" lengthAdjust="spacing" textLength="305.833" x="216.1042" y="297.7803">ListDataintegrationWorkspaceApplicationPatches</text><text fill="#0F172A" font-family="Helvetica" font-size="14" lengthAdjust="spacing" textLength="47.4688" x="216.1042" y="311.7803">fallback</text><rect fill="#F8FAFC" height="76" rx="8" ry="8" style="stroke:#0F172A;stroke-width:0.5;" width="451.9629" x="143.429" y="345"/><text fill="#0F172A" font-family="Helvetica" font-size="14" lengthAdjust="spacing" textLength="24.8965" x="153.429" y="365.7803">Use</text><text fill="#0F172A" font-family="Helvetica" font-size="14" lengthAdjust="spacing" textLength="431.9629" x="153.429" y="379.7803">scaffold_dataintegration_dataintegrationworkspaceapplicationpatches</text><text fill="#0F172A" font-family="Helvetica" font-size="14" lengthAdjust="spacing" textLength="297.2402" x="153.429" y="393.7803">filters compartment_id, state when OCID lookup</text><text fill="#0F172A" font-family="Helvetica" font-size="14" lengthAdjust="spacing" textLength="259.9023" x="153.429" y="407.7803">or bind-versus-create needs list resolution</text><polygon fill="#E2E8F0" points="315.7209,441,423.0999,441,435.0999,453,423.0999,465,315.7209,465,303.7209,453,315.7209,441" style="stroke:#1D4ED8;stroke-width:0.5;"/><text fill="#0F172A" font-family="Helvetica" font-size="14" lengthAdjust="spacing" textLength="107.3789" x="315.7209" y="456.7803">Resource exists?</text><text fill="#000000" font-family="Helvetica" font-size="14" lengthAdjust="spacing" textLength="21.7861" x="281.9348" y="449.7803">yes</text><text fill="#000000" font-family="Helvetica" font-size="14" lengthAdjust="spacing" textLength="15.5723" x="435.0999" y="449.7803">no</text><rect fill="#F8FAFC" height="48" rx="8" ry="8" style="stroke:#0F172A;stroke-width:0.5;" width="349.1914" x="11" y="475"/><text fill="#0F172A" font-family="Helvetica" font-size="14" lengthAdjust="spacing" textLength="108.1787" x="21" y="495.7803">Update path calls</text><text fill="#0F172A" font-family="Helvetica" font-size="14" lengthAdjust="spacing" textLength="329.1914" x="21" y="509.7803">UpdateDataintegrationWorkspaceApplicationPatches</text><rect fill="#F8FAFC" height="48" rx="8" ry="8" style="stroke:#0F172A;stroke-width:0.5;" width="266.7021" x="52.2446" y="543"/><text fill="#0F172A" font-family="Helvetica" font-size="14" lengthAdjust="spacing" textLength="246.7021" x="62.2446" y="563.7803">Guard mutable fields display_name and</text><text fill="#0F172A" font-family="Helvetica" font-size="14" lengthAdjust="spacing" textLength="202.3096" x="62.2446" y="577.7803">force-new fields compartment_id</text><rect fill="#F8FAFC" height="48" rx="8" ry="8" style="stroke:#0F172A;stroke-width:0.5;" width="346.0674" x="380.1914" y="475"/><text fill="#0F172A" font-family="Helvetica" font-size="14" lengthAdjust="spacing" textLength="105.0547" x="390.1914" y="495.7803">Create path calls</text><text fill="#0F172A" font-family="Helvetica" font-size="14" lengthAdjust="spacing" textLength="326.0674" x="390.1914" y="509.7803">CreateDataintegrationWorkspaceApplicationPatches</text><polygon fill="#E2E8F0" points="369.4104,597,381.4104,609,369.4104,621,357.4104,609,369.4104,597" style="stroke:#1D4ED8;stroke-width:0.5;"/><rect fill="#F8FAFC" height="104" rx="8" ry="8" style="stroke:#0F172A;stroke-width:0.5;" width="334.3164" x="202.2522" y="641"/><text fill="#0F172A" font-family="Helvetica" font-size="14" lengthAdjust="spacing" textLength="164.2061" x="212.2522" y="661.7803">Run provider helper hooks</text><text fill="#0F172A" font-family="Helvetica" font-size="14" lengthAdjust="spacing" textLength="219.0508" x="212.2522" y="675.7803">create=tfresource.CreateResource,</text><text fill="#0F172A" font-family="Helvetica" font-size="14" lengthAdjust="spacing" textLength="314.3164" x="212.2522" y="689.7803">tfresource.WaitForWorkRequestWithErrorHandling</text><text fill="#0F172A" font-family="Helvetica" font-size="14" lengthAdjust="spacing" textLength="215.5439" x="212.2522" y="703.7803">entity=template action=CREATED;</text><text fill="#0F172A" font-family="Helvetica" font-size="14" lengthAdjust="spacing" textLength="226.085" x="212.2522" y="717.7803">update=tfresource.UpdateResource;</text><text fill="#0F172A" font-family="Helvetica" font-size="14" lengthAdjust="spacing" textLength="212.8438" x="212.2522" y="731.7803">delete=tfresource.DeleteResource</text><rect fill="#F8FAFC" height="34" rx="8" ry="8" style="stroke:#0F172A;stroke-width:0.5;" width="263.5918" x="237.6145" y="765"/><text fill="#0F172A" font-family="Helvetica" font-size="14" lengthAdjust="spacing" textLength="243.5918" x="247.6145" y="785.7803">Apply repo-authored secret policy none</text><rect fill="#F8FAFC" height="118" rx="8" ry="8" style="stroke:#0F172A;stroke-width:0.5;" width="344.5156" x="197.1526" y="819"/><text fill="#0F172A" font-family="Helvetica" font-size="14" lengthAdjust="spacing" textLength="105.0684" x="207.1526" y="839.7803">Delete path uses</text><text fill="#0F172A" font-family="Helvetica" font-size="14" lengthAdjust="spacing" textLength="324.5156" x="207.1526" y="853.7803">DeleteDataintegrationWorkspaceApplicationPatches</text><text fill="#0F172A" font-family="Helvetica" font-size="14" lengthAdjust="spacing" textLength="101.9375" x="207.1526" y="867.7803">with required via</text><text fill="#0F172A" font-family="Helvetica" font-size="14" lengthAdjust="spacing" textLength="306.6123" x="207.1526" y="881.7803">GetDataintegrationWorkspaceApplicationPatches</text><text fill="#0F172A" font-family="Helvetica" font-size="14" lengthAdjust="spacing" textLength="12.4482" x="207.1526" y="895.7803">or</text><text fill="#0F172A" font-family="Helvetica" font-size="14" lengthAdjust="spacing" textLength="305.833" x="207.1526" y="909.7803">ListDataintegrationWorkspaceApplicationPatches</text><text fill="#0F172A" font-family="Helvetica" font-size="14" lengthAdjust="spacing" textLength="160.2822" x="207.1526" y="923.7803">to DELETED confirmation</text><rect fill="#F8FAFC" height="48" rx="8" ry="8" style="stroke:#0F172A;stroke-width:0.5;" width="279.1299" x="229.8455" y="957"/><text fill="#0F172A" font-family="Helvetica" font-size="14" lengthAdjust="spacing" textLength="259.1299" x="239.8455" y="977.7803">Project required status and finalizer policy</text><text fill="#0F172A" font-family="Helvetica" font-size="14" lengthAdjust="spacing" textLength="174.3027" x="239.8455" y="991.7803">retain-until-confirmed-delete</text><rect fill="#F8FAFC" height="34" rx="8" ry="8" style="stroke:#0F172A;stroke-width:0.5;" width="313.4189" x="212.7009" y="1025"/><text fill="#0F172A" font-family="Helvetica" font-size="14" lengthAdjust="spacing" textLength="293.4189" x="222.7009" y="1045.7803">Requeue on provisioning, updating, terminating</text><path d="M400.4104,1069 L400.4104,1245 L380.4104,1249 L400.4104,1253 L400.4104,1429 A0,0 0 0 0 400.4104,1429 L740.4504,1429 A0,0 0 0 0 740.4504,1429 L740.4504,1079 L730.4504,1069 L400.4104,1069 A0,0 0 0 0 400.4104,1069" fill="#FFF7D6" style="stroke:#B45309;stroke-width:0.5;"/><path d="M730.4504,1069 L730.4504,1079 L740.4504,1079 L730.4504,1069" fill="#FFF7D6" style="stroke:#B45309;stroke-width:0.5;"/><text fill="#334155" font-family="Helvetica" font-size="14" lengthAdjust="spacing" textLength="101.165" x="406.4104" y="1084.7803">shared diagram:</text><text fill="#334155" font-family="Helvetica" font-size="14" lengthAdjust="spacing" textLength="284.7852" x="406.4104" y="1098.7803">shared/diagrams/shared-reconcile-activity.svg</text><text fill="#334155" font-family="Helvetica" font-size="14" lengthAdjust="spacing" textLength="265.3438" x="406.4104" y="1112.7803">Start from the shared reconcile activity and</text><text fill="#334155" font-family="Helvetica" font-size="14" lengthAdjust="spacing" textLength="273.8955" x="406.4104" y="1126.7803">specialize provider-backed CRUD, wait, and</text><text fill="#334155" font-family="Helvetica" font-size="14" lengthAdjust="spacing" textLength="182.875" x="406.4104" y="1140.7803">status-projection details here.</text><text fill="#334155" font-family="Helvetica" font-size="14" lengthAdjust="spacing" textLength="229.5371" x="406.4104" y="1154.7803">Controller-local activity diagrams add</text><text fill="#334155" font-family="Helvetica" font-size="14" lengthAdjust="spacing" textLength="238.8955" x="406.4104" y="1168.7803">list-lookup hints, secret policies, delete</text><text fill="#334155" font-family="Helvetica" font-size="14" lengthAdjust="spacing" textLength="200.0332" x="406.4104" y="1182.7803">handling, and open formal gaps.</text><text fill="#334155" font-family="Helvetica" font-size="14" lengthAdjust="spacing" textLength="281.709" x="406.4104" y="1196.7803">archetype batch: Generated service-manager</text><text fill="#334155" font-family="Helvetica" font-size="14" lengthAdjust="spacing" textLength="291.0469" x="406.4104" y="1210.7803">controllers specialize the shared reconcile path</text><text fill="#334155" font-family="Helvetica" font-size="14" lengthAdjust="spacing" textLength="189.8477" x="406.4104" y="1224.7803">with formal runtime ownership.</text><text fill="#334155" font-family="Helvetica" font-size="14" lengthAdjust="spacing" textLength="144.751" x="406.4104" y="1238.7803">service: dataintegration</text><text fill="#334155" font-family="Helvetica" font-size="14" lengthAdjust="spacing" textLength="308.9775" x="406.4104" y="1252.7803">slug: dataintegrationworkspaceapplicationpatches</text><text fill="#334155" font-family="Helvetica" font-size="14" lengthAdjust="spacing" textLength="317.5088" x="406.4104" y="1266.7803">kind: DataintegrationWorkspaceApplicationPatches</text><text fill="#334155" font-family="Helvetica" font-size="14" lengthAdjust="spacing" textLength="241.2402" x="406.4104" y="1280.7803">archetype: generated-service-manager</text><text fill="#334155" font-family="Helvetica" font-size="14" lengthAdjust="spacing" textLength="156.4063" x="406.4104" y="1294.7803">status/finalizer: required /</text><text fill="#334155" font-family="Helvetica" font-size="14" lengthAdjust="spacing" textLength="174.3027" x="406.4104" y="1308.7803">retain-until-confirmed-delete</text><text fill="#334155" font-family="Helvetica" font-size="14" lengthAdjust="spacing" textLength="272.3984" x="406.4104" y="1322.7803">requeue: provisioning, updating, terminating</text><text fill="#334155" font-family="Helvetica" font-size="14" lengthAdjust="spacing" textLength="295.6816" x="406.4104" y="1336.7803">provider states: create PROVISIONING; update</text><text fill="#334155" font-family="Helvetica" font-size="14" lengthAdjust="spacing" textLength="192.165" x="406.4104" y="1350.7803">UPDATING; delete DELETING</text><text fill="#334155" font-family="Helvetica" font-size="14" lengthAdjust="spacing" textLength="319.04" x="406.4104" y="1364.7803">mutable/forceNew: display_name / compartment_id</text><text fill="#334155" font-family="Helvetica" font-size="14" lengthAdjust="spacing" textLength="104.3164" x="406.4104" y="1378.7803">open gaps: none</text><text fill="#334155" font-family="Helvetica" font-size="14" lengthAdjust="spacing" textLength="224.9023" x="406.4104" y="1392.7803">Scaffold metadata only; replace with</text><text fill="#334155" font-family="Helvetica" font-size="14" lengthAdjust="spacing" textLength="244.3232" x="406.4104" y="1406.7803">controller-specific runtime states before</text><text fill="#334155" font-family="Helvetica" font-size="14" lengthAdjust="spacing" textLength="66.1445" x="406.4104" y="1420.7803">promotion.</text><ellipse cx="369.4104" cy="1249" fill="none" rx="11" ry="11" style="stroke:#222222;stroke-width:1;"/><ellipse cx="369.4104" cy="1249" fill="#222222" rx="6" ry="6" style="stroke:#222222;stroke-width:1;"/><line style="stroke:#0F172A;stroke-width:1;" x1="369.4104" x2="369.4104" y1="65" y2="85"/><polygon fill="#0F172A" points="365.4104,75,369.4104,85,373.4104,75,369.4104,79" style="stroke:#0F172A;stroke-width:1;"/><line style="stroke:#0F172A;stroke-width:1;" x1="369.4104" x2="369.4104" y1="133" y2="153"/><polygon fill="#0F172A" points="365.4104,143,369.4104,153,373.4104,143,369.4104,147" style="stroke:#0F172A;stroke-width:1;"/><line style="stroke:#0F172A;stroke-width:1;" x1="369.4104" x2="369.4104" y1="215" y2="235"/><polygon fill="#0F172A" points="365.4104,225,369.4104,235,373.4104,225,369.4104,229" style="stroke:#0F172A;stroke-width:1;"/><line style="stroke:#0F172A;stroke-width:1;" x1="369.4104" x2="369.4104" y1="325" y2="345"/><polygon fill="#0F172A" points="365.4104,335,369.4104,345,373.4104,335,369.4104,339" style="stroke:#0F172A;stroke-width:1;"/><line style="stroke:#0F172A;stroke-width:1;" x1="185.5957" x2="185.5957" y1="523" y2="543"/><polygon fill="#0F172A" points="181.5957,533,185.5957,543,189.5957,533,185.5957,537" style="stroke:#0F172A;stroke-width:1;"/><line style="stroke:#0F172A;stroke-width:1;" x1="303.7209" x2="185.5957" y1="453" y2="453"/><line style="stroke:#0F172A;stroke-width:1;" x1="185.5957" x2="185.5957" y1="453" y2="475"/><polygon fill="#0F172A" points="181.5957,465,185.5957,475,189.5957,465,185.5957,469" style="stroke:#0F172A;stroke-width:1;"/><line style="stroke:#0F172A;stroke-width:1;" x1="435.0999" x2="553.2251" y1="453" y2="453"/><line style="stroke:#0F172A;stroke-width:1;" x1="553.2251" x2="553.2251" y1="453" y2="475"/><polygon fill="#0F172A" points="549.2251,465,553.2251,475,557.2251,465,553.2251,469" style="stroke:#0F172A;stroke-width:1;"/><line style="stroke:#0F172A;stroke-width:1;" x1="185.5957" x2="185.5957" y1="591" y2="609"/><line style="stroke:#0F172A;stroke-width:1;" x1="185.5957" x2="357.4104" y1="609" y2="609"/><polygon fill="#0F172A" points="347.4104,605,357.4104,609,347.4104,613,351.4104,609" style="stroke:#0F172A;stroke-width:1;"/><line style="stroke:#0F172A;stroke-width:1;" x1="553.2251" x2="553.2251" y1="523" y2="609"/><line style="stroke:#0F172A;stroke-width:1;" x1="553.2251" x2="381.4104" y1="609" y2="609"/><polygon fill="#0F172A" points="391.4104,605,381.4104,609,391.4104,613,387.4104,609" style="stroke:#0F172A;stroke-width:1;"/><line style="stroke:#0F172A;stroke-width:1;" x1="369.4104" x2="369.4104" y1="421" y2="441"/><polygon fill="#0F172A" points="365.4104,431,369.4104,441,373.4104,431,369.4104,435" style="stroke:#0F172A;stroke-width:1;"/><line style="stroke:#0F172A;stroke-width:1;" x1="369.4104" x2="369.4104" y1="621" y2="641"/><polygon fill="#0F172A" points="365.4104,631,369.4104,641,373.4104,631,369.4104,635" style="stroke:#0F172A;stroke-width:1;"/><line style="stroke:#0F172A;stroke-width:1;" x1="369.4104" x2="369.4104" y1="745" y2="765"/><polygon fill="#0F172A" points="365.4104,755,369.4104,765,373.4104,755,369.4104,759" style="stroke:#0F172A;stroke-width:1;"/><line style="stroke:#0F172A;stroke-width:1;" x1="369.4104" x2="369.4104" y1="799" y2="819"/><polygon fill="#0F172A" points="365.4104,809,369.4104,819,373.4104,809,369.4104,813" style="stroke:#0F172A;stroke-width:1;"/><line style="stroke:#0F172A;stroke-width:1;" x1="369.4104" x2="369.4104" y1="937" y2="957"/><polygon fill="#0F172A" points="365.4104,947,369.4104,957,373.4104,947,369.4104,951" style="stroke:#0F172A;stroke-width:1;"/><line style="stroke:#0F172A;stroke-width:1;" x1="369.4104" x2="369.4104" y1="1005" y2="1025"/><polygon fill="#0F172A" points="365.4104,1015,369.4104,1025,373.4104,1015,369.4104,1019" style="stroke:#0F172A;stroke-width:1;"/><line style="stroke:#0F172A;stroke-width:1;" x1="369.4104" x2="369.4104" y1="1059" y2="1238"/><polygon fill="#0F172A" points="365.4104,1228,369.4104,1238,373.4104,1228,369.4104,1232" style="stroke:#0F172A;stroke-width:1;"/><?plantuml-src dLRVJoCt47xtNp5INpWfcy01TtGZLD64uz0XG72KbqZ8MSycBbvxp_OcJQl-xnslDvibe1EfU0Ysn_FZcsy-htkMkkIM5-3cN9Ybr3F8kNB8N7iovTdpp9fAYv5Hni8lUKP_ecCXCEULyb-CzjUyGFYAQe5UPlnjctlvDyB1KUUGMskMZVVz_E3pn-vDRJp-_Yg7FFyiFcrR6IlGDXRJe-F3_L-tB4BuvlpmyEZW-BXpNhlFZDLeuU0Jyz8hXBFCouNqAqX0SC-bzZYpt4kZ1-ENwqTZdrt9CpmhIqMrXxrRxhCvkcwbQt__C7W3sPESvrauwLRI80AGRx9lzuJaXT7Y5K3u4K_o_Ov1r-E1E49niZdyyePZvxdrs_RO-c_jfdpBwx-ilihI-_03kJKrkomAo9LPJdHS32WsGLUuGLmd5ZEZCwamMOFKTulPaALNXWlYZvDaDT7lXvqYbPW1ro8KuoiNS_bMJP6QxD6HxpjqXiWADwFBsWXX8Vb4Nw3V9SvI-lb4NqctqoqQD1KeG6ayEAHiCvxdHecdBQPjhvThftpZj6oTIkNHEiXCGOpp1Mh_94MlAMuvHnrg7OCovhag9veQDvLQ90kwLBaainZiDA9meAWWi06XAiGOCfd3Na2iiXa2_aN7xhSFu8FJlHMw3rH8AS9zIcSE6TL76SMjzmD3S5nKt0eeAi-dD8EvH4NP2EbAnLTFEaWCDPLgDPH7ed6vDdbPz90XAHdiQKE9ZM9XtSJYrYw94VrbJgIfD9JMB2HD5CnHbU67y2IV4RzJdzi6fdwCiaQjDz6TiqSkIH5jY7c7Fofq_f6OT4vgQBzIXOhaUAAf69g5Kuy5bKybXEam-dHqTtxs_NmydEYg1hWRCqA-Zaac0XM-D1dNEwq9IqEzA-fsQH9U-Ra9y-gGwl5G6a9YHGAgWs6y6P6iNE1StDbrO2ZMZohCzFyQEMDt7pXlO7n-TKwe4LDeKcp18w_JMsl-nCnlKce48sX7BZLNz6JP1eU99amePb9HOrJIU281Yo3NeaAzh11CGnD7GQYLFQWxLVz7CrgGtx0OabwQaeNd2QoSpJrhrB8Ho9Jj99Yi8xiqcMlfROqtJn0Lnu92ohgybj59q2IwCRfx6FTWIHJjHTCQagICK559fCc4Wt8q0XRxR4IFY3LAaGTbQCGsWTQ90nU21L59elh0d3hdUYze9f4s8f9itin07HzCIJ938r-GwnalNPznIttrgnBf4Q8Mft21z7WJymDpxKAIE1HSynbQbhN9EUZK_2P0WTciPcWJpOPEa-YO9RbtSrdsMUC_tVugO4vLirUxFr5iHfy68eKTFYRQgbEOhUjDjkkDpHgqt4qtr1wmd_ANsSZUz3tSPQqCrk-BIw5vG6xlRlwulB-ykRwylXZ6kyWURiTdt-kD62fE8ssmHke7jQ9Vup9zgVQ3BMLdDHS22T9QbTXzytH2GQK5y6dsr6eOv4mHYX2wsU50KbCWbrdRsfW-J94om51LOGBc_I3vzPVZVm00?></g></svg>