<?plantuml 1.2026.1?><svg xmlns="http://www.w3.org/2000/svg" xmlns:xlink="http://www.w3.org/1999/xlink" contentStyleType="text/css" data-diagram-type="SEQUENCE" height="2034px" preserveAspectRatio="none" style="width:1211px;height:2034px;background:#FCFCFD;" version="1.1" viewBox="0 0 1211 2034" width="1211px" zoomAndPan="magnify"><title>Sequence - identitydomains/IdentityDomainsMyApps</title><defs/><g><rect fill="#FCFCFD" height="2034" style="stroke:none;stroke-width:1;" width="1211" x="0" y="0"/><text fill="#000000" font-family="Helvetica" font-size="14" font-weight="bold" lengthAdjust="spacing" textLength="353.165" x="435.3962" y="25.7803">Sequence - identitydomains/IdentityDomainsMyApps</text><rect fill="none" height="290" rx="8" ry="8" style="stroke:#CBD5E1;stroke-width:1.5;" width="738.3779" x="449.9492" y="342"/><rect fill="none" height="146" rx="8" ry="8" style="stroke:#CBD5E1;stroke-width:1.5;" width="475.9575" x="702.3696" y="451"/><rect fill="none" height="44" rx="8" ry="8" style="stroke:#CBD5E1;stroke-width:1.5;" width="455.9575" x="712.3696" y="502"/><rect fill="none" height="826" rx="8" ry="8" style="stroke:#CBD5E1;stroke-width:1.5;" width="775.0083" x="429.9492" y="646"/><rect fill="none" height="274" rx="8" ry="8" style="stroke:#CBD5E1;stroke-width:1.5;" width="738.3779" x="439.9492" y="669"/><rect fill="none" height="58" rx="8" ry="8" style="stroke:#CBD5E1;stroke-width:1.5;" width="455.9575" x="712.3696" y="776"/><rect fill="none" height="88" rx="8" ry="8" style="stroke:#CBD5E1;stroke-width:1.5;" width="438.813" x="449.9492" y="848"/><rect fill="none" height="378" rx="8" ry="8" style="stroke:#CBD5E1;stroke-width:1.5;" width="755.0083" x="439.9492" y="1045"/><rect fill="none" height="44" rx="8" ry="8" style="stroke:#CBD5E1;stroke-width:1.5;" width="438.813" x="449.9492" y="1144"/><rect fill="none" height="116" rx="8" ry="8" style="stroke:#CBD5E1;stroke-width:1.5;" width="475.9575" x="702.3696" y="1202"/><rect fill="none" height="44" rx="8" ry="8" style="stroke:#CBD5E1;stroke-width:1.5;" width="455.9575" x="712.3696" y="1267"/><g class="participant-lifeline" data-entity-uid="part1" data-qualified-name="Kubernetes" id="part1-lifeline"><g><title>Kubernetes</title><rect fill="#000000" fill-opacity="0.00000" height="1913" width="8" x="39.8032" y="114"/><line style="stroke:#94A3B8;stroke-width:0.5;stroke-dasharray:5,5;" x1="43" x2="43" y1="114" y2="2027"/></g></g><g class="participant-lifeline" data-entity-uid="part2" data-qualified-name="Controller" id="part2-lifeline"><g><title>Controller</title><rect fill="#000000" fill-opacity="0.00000" height="1913" width="8" x="273.147" y="114"/><line style="stroke:#94A3B8;stroke-width:0.5;stroke-dasharray:5,5;" x1="276.8022" x2="276.8022" y1="114" y2="2027"/></g></g><g class="participant-lifeline" data-entity-uid="part3" data-qualified-name="BaseReconciler" id="part3-lifeline"><g><title>BaseReconciler</title><rect fill="#000000" fill-opacity="0.00000" height="1913" width="8" x="511.9731" y="114"/><line style="stroke:#94A3B8;stroke-width:0.5;stroke-dasharray:5,5;" x1="515.9492" x2="515.9492" y1="114" y2="2027"/></g></g><g class="participant-lifeline" data-entity-uid="part4" data-qualified-name="ServiceManager" id="part4-lifeline"><g><title>OSOKServiceManager</title><rect fill="#000000" fill-opacity="0.00000" height="1913" width="8" x="796.5659" y="114"/><line style="stroke:#94A3B8;stroke-width:0.5;stroke-dasharray:5,5;" x1="800.3696" x2="800.3696" y1="114" y2="2027"/></g></g><g class="participant-lifeline" data-entity-uid="part5" data-qualified-name="OCI" id="part5-lifeline"><g><title>OCI</title><rect fill="#000000" fill-opacity="0.00000" height="1913" width="8" x="1134.8823" y="114"/><line style="stroke:#94A3B8;stroke-width:0.5;stroke-dasharray:5,5;" x1="1138.4375" x2="1138.4375" y1="114" y2="2027"/></g></g><g class="participant participant-head" data-entity-uid="part1" data-qualified-name="Kubernetes" id="part1-head"><text fill="#000000" font-family="Helvetica" font-size="14" lengthAdjust="spacing" textLength="71.6064" x="5" y="110.7803">Kubernetes</text><ellipse cx="43.8032" cy="48.5" fill="#E2E8F0" rx="8" ry="8" style="stroke:#0F172A;stroke-width:0.5;"/><path d="M43.8032,56.5 L43.8032,83.5 M30.8032,64.5 L56.8032,64.5 M43.8032,83.5 L30.8032,98.5 M43.8032,83.5 L56.8032,98.5" fill="none" style="stroke:#0F172A;stroke-width:0.5;"/></g><g class="participant participant-head" data-entity-uid="part2" data-qualified-name="Controller" id="part2-head"><rect fill="#E2E8F0" height="28" rx="8" ry="8" style="stroke:#0F172A;stroke-width:0.5;" width="74.6895" x="239.8022" y="85"/><text fill="#0F172A" font-family="Helvetica" font-size="14" lengthAdjust="spacing" textLength="60.6895" x="246.8022" y="102.7803">Controller</text></g><g class="participant participant-head" data-entity-uid="part3" data-qualified-name="BaseReconciler" id="part3-head"><rect fill="#E2E8F0" height="28" rx="8" ry="8" style="stroke:#0F172A;stroke-width:0.5;" width="112.0479" x="459.9492" y="85"/><text fill="#0F172A" font-family="Helvetica" font-size="14" lengthAdjust="spacing" textLength="98.0479" x="466.9492" y="102.7803">BaseReconciler</text></g><g class="participant participant-head" data-entity-uid="part4" data-qualified-name="ServiceManager" id="part4-head"><rect fill="#E2E8F0" height="28" rx="8" ry="8" style="stroke:#0F172A;stroke-width:0.5;" width="156.3926" x="722.3696" y="85"/><text fill="#0F172A" font-family="Helvetica" font-size="14" lengthAdjust="spacing" textLength="142.3926" x="729.3696" y="102.7803">OSOKServiceManager</text></g><g class="participant participant-head" data-entity-uid="part5" data-qualified-name="OCI" id="part5-head"><rect fill="#E2E8F0" height="28" rx="8" ry="8" style="stroke:#0F172A;stroke-width:0.5;" width="38.8896" x="1119.4375" y="85"/><text fill="#0F172A" font-family="Helvetica" font-size="14" lengthAdjust="spacing" textLength="24.8896" x="1126.4375" y="102.7803">OCI</text></g><path d="M451,137 L451,187 A8,8 0 0 0 459,195 L856,195 A8,8 0 0 0 864,187 L864,139 L854,129 L459,129 A8,8 0 0 0 451,137" fill="#FFF7D6" style="stroke:#B45309;stroke-width:0.5;"/><path d="M854,129 L854,135 A4,4 0 0 0 858,139 L864,139 L854,129" fill="#FFF7D6" style="stroke:#B45309;stroke-width:0.5;"/><text fill="#334155" font-family="Helvetica" font-size="14" lengthAdjust="spacing" textLength="111.2891" x="499.7107" y="144.7803">shared resolution:</text><text fill="#334155" font-family="Helvetica" font-size="14" lengthAdjust="spacing" textLength="307.3916" x="499.7107" y="158.7803">shared/diagrams/shared-resolution-sequence.svg</text><text fill="#334155" font-family="Helvetica" font-size="14" lengthAdjust="spacing" textLength="88.7305" x="499.7107" y="172.7803">shared delete:</text><text fill="#334155" font-family="Helvetica" font-size="14" lengthAdjust="spacing" textLength="284.833" x="499.7107" y="186.7803">shared/diagrams/shared-delete-sequence.svg</text><g class="message" data-entity-1="part1" data-entity-2="part2" id="msg1"><polygon fill="#0F172A" points="265.147,230,275.147,234,265.147,238,269.147,234" style="stroke:#0F172A;stroke-width:1;"/><line style="stroke:#0F172A;stroke-width:1;" x1="43.8032" x2="271.147" y1="234" y2="234"/><text fill="#000000" font-family="Helvetica" font-size="14" lengthAdjust="spacing" textLength="209.3438" x="50.8032" y="214.7803">enqueue IdentityDomainsMyApps</text><text fill="#000000" font-family="Helvetica" font-size="14" lengthAdjust="spacing" textLength="56.0273" x="50.8032" y="228.7803">reconcile</text></g><g class="message" data-entity-1="part2" data-entity-2="part3" id="msg2"><polygon fill="#0F172A" points="503.9731,258,513.9731,262,503.9731,266,507.9731,262" style="stroke:#0F172A;stroke-width:1;"/><line style="stroke:#0F172A;stroke-width:1;" x1="277.147" x2="509.9731" y1="262" y2="262"/><text fill="#000000" font-family="Helvetica" font-size="14" lengthAdjust="spacing" textLength="117.4961" x="284.147" y="256.7803">Reconcile(request)</text></g><g class="message" data-entity-1="part3" data-entity-2="part4" id="msg3"><polygon fill="#0F172A" points="788.5659,300,798.5659,304,788.5659,308,792.5659,304" style="stroke:#0F172A;stroke-width:1;"/><line style="stroke:#0F172A;stroke-width:1;" x1="515.9731" x2="794.5659" y1="304" y2="304"/><text fill="#000000" font-family="Helvetica" font-size="14" lengthAdjust="spacing" textLength="105.834" x="522.9731" y="284.7803">reconcile desired</text><text fill="#000000" font-family="Helvetica" font-size="14" lengthAdjust="spacing" textLength="150.9512" x="522.9731" y="298.7803">IdentityDomainsMyApps</text></g><path d="M457.9492,342 L511.2871,342 L511.2871,348 L501.2871,358 L449.9492,358 L449.9492,350 A8,8 0 0 1 457.9492,342" fill="#F8FAFC" style="stroke:#CBD5E1;stroke-width:1.5;"/><rect fill="none" height="290" rx="8" ry="8" style="stroke:#CBD5E1;stroke-width:1.5;" width="738.3779" x="449.9492" y="342"/><text fill="#000000" font-family="Helvetica" font-size="14" font-weight="bold" lengthAdjust="spacing" textLength="16.3379" x="464.9492" y="353.7803">alt</text><text fill="#000000" font-family="Helvetica" font-size="14" font-weight="bold" lengthAdjust="spacing" textLength="308.1094" x="526.2871" y="354.7803">[tracked or explicit OCI identity already exists]</text><g class="message" data-entity-1="part4" data-entity-2="part5" id="msg4"><polygon fill="#0F172A" points="1126.8823,374,1136.8823,378,1126.8823,382,1130.8823,378" style="stroke:#0F172A;stroke-width:1;"/><line style="stroke:#0F172A;stroke-width:1;" x1="800.5659" x2="1132.8823" y1="378" y2="378"/><text fill="#000000" font-family="Helvetica" font-size="14" lengthAdjust="spacing" textLength="173.5166" x="807.5659" y="372.7803">GetIdentityDomainsMyApps</text></g><line style="stroke:#CBD5E1;stroke-width:1;stroke-dasharray:2,2;" x1="449.9492" x2="1188.3271" y1="387" y2="387"/><text fill="#000000" font-family="Helvetica" font-size="14" font-weight="bold" lengthAdjust="spacing" textLength="185.1582" x="454.9492" y="397.7803">[tracked identity is missing]</text><g class="message" data-entity-1="part4" data-entity-2="part5" id="msg5"><polygon fill="#0F172A" points="1126.8823,432,1136.8823,436,1126.8823,440,1130.8823,436" style="stroke:#0F172A;stroke-width:1;"/><line style="stroke:#0F172A;stroke-width:1;" x1="800.5659" x2="1132.8823" y1="436" y2="436"/><text fill="#000000" font-family="Helvetica" font-size="14" lengthAdjust="spacing" textLength="214.7373" x="807.5659" y="416.7803">ListIdentityDomainsMyApps(filters:</text><text fill="#000000" font-family="Helvetica" font-size="14" lengthAdjust="spacing" textLength="143.1719" x="807.5659" y="430.7803">compartment_id, state)</text></g><path d="M710.3696,451 L763.7075,451 L763.7075,457 L753.7075,467 L702.3696,467 L702.3696,459 A8,8 0 0 1 710.3696,451" fill="#F8FAFC" style="stroke:#CBD5E1;stroke-width:1.5;"/><rect fill="none" height="146" rx="8" ry="8" style="stroke:#CBD5E1;stroke-width:1.5;" width="475.9575" x="702.3696" y="451"/><text fill="#000000" font-family="Helvetica" font-size="14" font-weight="bold" lengthAdjust="spacing" textLength="16.3379" x="717.3696" y="462.7803">alt</text><text fill="#000000" font-family="Helvetica" font-size="14" font-weight="bold" lengthAdjust="spacing" textLength="242.7031" x="778.7075" y="463.7803">[reusable OCI resource is not found]</text><g class="message" data-entity-1="part4" data-entity-2="part5" id="msg6"><polygon fill="#0F172A" points="1126.8823,483,1136.8823,487,1126.8823,491,1130.8823,487" style="stroke:#0F172A;stroke-width:1;"/><line style="stroke:#0F172A;stroke-width:1;" x1="800.5659" x2="1132.8823" y1="487" y2="487"/><text fill="#000000" font-family="Helvetica" font-size="14" lengthAdjust="spacing" textLength="192.9717" x="807.5659" y="481.7803">CreateIdentityDomainsMyApps</text></g><path d="M720.3696,502 L786.9146,502 L786.9146,508 L776.9146,518 L712.3696,518 L712.3696,510 A8,8 0 0 1 720.3696,502" fill="#F8FAFC" style="stroke:#CBD5E1;stroke-width:1.5;"/><rect fill="none" height="44" rx="8" ry="8" style="stroke:#CBD5E1;stroke-width:1.5;" width="455.9575" x="712.3696" y="502"/><text fill="#000000" font-family="Helvetica" font-size="14" font-weight="bold" lengthAdjust="spacing" textLength="29.5449" x="727.3696" y="513.7803">loop</text><text fill="#000000" font-family="Helvetica" font-size="14" font-weight="bold" lengthAdjust="spacing" textLength="215.4756" x="801.9146" y="514.7803">[create pending PROVISIONING]</text><g class="message" data-entity-1="part4" data-entity-2="part5" id="msg7"><polygon fill="#0F172A" points="1126.8823,534,1136.8823,538,1126.8823,542,1130.8823,538" style="stroke:#0F172A;stroke-width:1;"/><line style="stroke:#0F172A;stroke-width:1;" x1="800.5659" x2="1132.8823" y1="538" y2="538"/><text fill="#000000" font-family="Helvetica" font-size="14" lengthAdjust="spacing" textLength="173.5166" x="807.5659" y="532.7803">GetIdentityDomainsMyApps</text></g><line style="stroke:#CBD5E1;stroke-width:1;stroke-dasharray:2,2;" x1="702.3696" x2="1178.3271" y1="554" y2="554"/><text fill="#000000" font-family="Helvetica" font-size="14" font-weight="bold" lengthAdjust="spacing" textLength="255.2334" x="707.3696" y="564.7803">[reusable OCI resource already exists]</text><g class="message" data-entity-1="part4" data-entity-2="part5" id="msg8"><polygon fill="#0F172A" points="1126.8823,585,1136.8823,589,1126.8823,593,1130.8823,589" style="stroke:#0F172A;stroke-width:1;"/><line style="stroke:#0F172A;stroke-width:1;" x1="800.5659" x2="1132.8823" y1="589" y2="589"/><text fill="#000000" font-family="Helvetica" font-size="14" lengthAdjust="spacing" textLength="173.5166" x="807.5659" y="583.7803">GetIdentityDomainsMyApps</text></g><g class="message" data-entity-1="part4" data-entity-2="part3" id="msg9"><polygon fill="#0F172A" points="526.9731,620,516.9731,624,526.9731,628,522.9731,624" style="stroke:#0F172A;stroke-width:1;"/><line style="stroke:#0F172A;stroke-width:1;stroke-dasharray:2,2;" x1="520.9731" x2="799.5659" y1="624" y2="624"/><text fill="#000000" font-family="Helvetica" font-size="14" lengthAdjust="spacing" textLength="231.0957" x="532.9731" y="618.7803">persist resolved OCI identity in status</text></g><path d="M437.9492,646 L491.2871,646 L491.2871,652 L481.2871,662 L429.9492,662 L429.9492,654 A8,8 0 0 1 437.9492,646" fill="#F8FAFC" style="stroke:#CBD5E1;stroke-width:1.5;"/><rect fill="none" height="826" rx="8" ry="8" style="stroke:#CBD5E1;stroke-width:1.5;" width="775.0083" x="429.9492" y="646"/><text fill="#000000" font-family="Helvetica" font-size="14" font-weight="bold" lengthAdjust="spacing" textLength="16.3379" x="444.9492" y="657.7803">alt</text><text fill="#000000" font-family="Helvetica" font-size="14" font-weight="bold" lengthAdjust="spacing" textLength="120.5859" x="506.2871" y="658.7803">[delete requested]</text><path d="M447.9492,669 L526.9697,669 L526.9697,675 L516.9697,685 L439.9492,685 L439.9492,677 A8,8 0 0 1 447.9492,669" fill="#F8FAFC" style="stroke:#CBD5E1;stroke-width:1.5;"/><rect fill="none" height="274" rx="8" ry="8" style="stroke:#CBD5E1;stroke-width:1.5;" width="738.3779" x="439.9492" y="669"/><text fill="#000000" font-family="Helvetica" font-size="14" font-weight="bold" lengthAdjust="spacing" textLength="42.0205" x="454.9492" y="680.7803">Delete</text><g class="message" data-entity-1="part4" data-entity-2="part5" id="msg10"><polygon fill="#0F172A" points="1126.8823,701,1136.8823,705,1126.8823,709,1130.8823,705" style="stroke:#0F172A;stroke-width:1;"/><line style="stroke:#0F172A;stroke-width:1;" x1="800.5659" x2="1132.8823" y1="705" y2="705"/><text fill="#000000" font-family="Helvetica" font-size="14" lengthAdjust="spacing" textLength="191.4199" x="807.5659" y="699.7803">DeleteIdentityDomainsMyApps</text></g><g class="message" data-entity-1="part4" data-entity-2="part5" id="msg11"><polygon fill="#0F172A" points="1126.8823,757,1136.8823,761,1126.8823,765,1130.8823,761" style="stroke:#0F172A;stroke-width:1;"/><line style="stroke:#0F172A;stroke-width:1;" x1="800.5659" x2="1132.8823" y1="761" y2="761"/><text fill="#000000" font-family="Helvetica" font-size="14" lengthAdjust="spacing" textLength="109.7168" x="807.5659" y="727.7803">confirm delete via</text><text fill="#000000" font-family="Helvetica" font-size="14" lengthAdjust="spacing" textLength="189.8545" x="807.5659" y="741.7803">GetIdentityDomainsMyApps or</text><text fill="#000000" font-family="Helvetica" font-size="14" lengthAdjust="spacing" textLength="172.7373" x="807.5659" y="755.7803">ListIdentityDomainsMyApps</text></g><path d="M720.3696,776 L786.9146,776 L786.9146,782 L776.9146,792 L712.3696,792 L712.3696,784 A8,8 0 0 1 720.3696,776" fill="#F8FAFC" style="stroke:#CBD5E1;stroke-width:1.5;"/><rect fill="none" height="58" rx="8" ry="8" style="stroke:#CBD5E1;stroke-width:1.5;" width="455.9575" x="712.3696" y="776"/><text fill="#000000" font-family="Helvetica" font-size="14" font-weight="bold" lengthAdjust="spacing" textLength="29.5449" x="727.3696" y="787.7803">loop</text><text fill="#000000" font-family="Helvetica" font-size="14" font-weight="bold" lengthAdjust="spacing" textLength="182.7793" x="801.9146" y="788.7803">[delete pending DELETING]</text><g class="message" data-entity-1="part4" data-entity-2="part5" id="msg12"><polygon fill="#0F172A" points="1126.8823,822,1136.8823,826,1126.8823,830,1130.8823,826" style="stroke:#0F172A;stroke-width:1;"/><line style="stroke:#0F172A;stroke-width:1;" x1="800.5659" x2="1132.8823" y1="826" y2="826"/><text fill="#000000" font-family="Helvetica" font-size="14" lengthAdjust="spacing" textLength="189.8545" x="807.5659" y="806.7803">GetIdentityDomainsMyApps or</text><text fill="#000000" font-family="Helvetica" font-size="14" lengthAdjust="spacing" textLength="172.7373" x="807.5659" y="820.7803">ListIdentityDomainsMyApps</text></g><path d="M457.9492,848 L511.2871,848 L511.2871,854 L501.2871,864 L449.9492,864 L449.9492,856 A8,8 0 0 1 457.9492,848" fill="#F8FAFC" style="stroke:#CBD5E1;stroke-width:1.5;"/><rect fill="none" height="88" rx="8" ry="8" style="stroke:#CBD5E1;stroke-width:1.5;" width="438.813" x="449.9492" y="848"/><text fill="#000000" font-family="Helvetica" font-size="14" font-weight="bold" lengthAdjust="spacing" textLength="16.3379" x="464.9492" y="859.7803">alt</text><text fill="#000000" font-family="Helvetica" font-size="14" font-weight="bold" lengthAdjust="spacing" textLength="261.4268" x="526.2871" y="860.7803">[cleanup or finalizer release is blocked]</text><g class="message" data-entity-1="part4" data-entity-2="part3" id="msg13"><polygon fill="#0F172A" points="526.9731,880,516.9731,884,526.9731,888,522.9731,884" style="stroke:#0F172A;stroke-width:1;"/><line style="stroke:#0F172A;stroke-width:1;stroke-dasharray:2,2;" x1="520.9731" x2="799.5659" y1="884" y2="884"/><text fill="#000000" font-family="Helvetica" font-size="14" lengthAdjust="spacing" textLength="170.4336" x="532.9731" y="878.7803">retain delete state and retry</text></g><line style="stroke:#CBD5E1;stroke-width:1;stroke-dasharray:2,2;" x1="449.9492" x2="888.7622" y1="893" y2="893"/><text fill="#000000" font-family="Helvetica" font-size="14" font-weight="bold" lengthAdjust="spacing" textLength="194.4824" x="454.9492" y="903.7803">[delete completion observed]</text><g class="message" data-entity-1="part4" data-entity-2="part3" id="msg14"><polygon fill="#0F172A" points="526.9731,924,516.9731,928,526.9731,932,522.9731,928" style="stroke:#0F172A;stroke-width:1;"/><line style="stroke:#0F172A;stroke-width:1;stroke-dasharray:2,2;" x1="520.9731" x2="799.5659" y1="928" y2="928"/><text fill="#000000" font-family="Helvetica" font-size="14" lengthAdjust="spacing" textLength="243.5781" x="532.9731" y="922.7803">release finalizer after delete completion</text></g><line style="stroke:#CBD5E1;stroke-width:1;stroke-dasharray:2,2;" x1="429.9492" x2="1204.9575" y1="951" y2="951"/><text fill="#000000" font-family="Helvetica" font-size="14" font-weight="bold" lengthAdjust="spacing" textLength="149.3857" x="434.9492" y="961.7803">[OCI state is retryable]</text><g class="message" data-entity-1="part4" data-entity-2="part3" id="msg15"><polygon fill="#0F172A" points="526.9731,996,516.9731,1000,526.9731,1004,522.9731,1000" style="stroke:#0F172A;stroke-width:1;"/><line style="stroke:#0F172A;stroke-width:1;stroke-dasharray:2,2;" x1="520.9731" x2="799.5659" y1="1000" y2="1000"/><text fill="#000000" font-family="Helvetica" font-size="14" lengthAdjust="spacing" textLength="184.4199" x="532.9731" y="980.7803">requeue while OCI remains in</text><text fill="#000000" font-family="Helvetica" font-size="14" lengthAdjust="spacing" textLength="260.5928" x="532.9731" y="994.7803">PROVISIONING, UPDATING, DELETING</text></g><line style="stroke:#CBD5E1;stroke-width:1;stroke-dasharray:2,2;" x1="429.9492" x2="1204.9575" y1="1009" y2="1009"/><text fill="#000000" font-family="Helvetica" font-size="14" font-weight="bold" lengthAdjust="spacing" textLength="200.751" x="434.9492" y="1019.7803">[live state requires field-aware</text><text fill="#000000" font-family="Helvetica" font-size="14" font-weight="bold" lengthAdjust="spacing" textLength="105.0068" x="434.9492" y="1033.7803">drift evaluation]</text><path d="M447.9492,1045 L575.9355,1045 L575.9355,1051 L565.9355,1061 L439.9492,1061 L439.9492,1053 A8,8 0 0 1 447.9492,1045" fill="#F8FAFC" style="stroke:#CBD5E1;stroke-width:1.5;"/><rect fill="none" height="378" rx="8" ry="8" style="stroke:#CBD5E1;stroke-width:1.5;" width="755.0083" x="439.9492" y="1045"/><text fill="#000000" font-family="Helvetica" font-size="14" font-weight="bold" lengthAdjust="spacing" textLength="90.9863" x="454.9492" y="1056.7803">Drift handling</text><path d="M754,1074 L754,1124 A8,8 0 0 0 762,1132 L1176,1132 A8,8 0 0 0 1184,1124 L1184,1076 L1174,1066 L762,1066 A8,8 0 0 0 754,1074" fill="#FFF7D6" style="stroke:#B45309;stroke-width:0.5;"/><path d="M1174,1066 L1174,1072 A4,4 0 0 0 1178,1076 L1184,1076 L1174,1066" fill="#FFF7D6" style="stroke:#B45309;stroke-width:0.5;"/><text fill="#334155" font-family="Helvetica" font-size="14" lengthAdjust="spacing" textLength="255.2813" x="837.3381" y="1081.7803">Supported update surface: display_name</text><text fill="#334155" font-family="Helvetica" font-size="14" lengthAdjust="spacing" textLength="235.7783" x="837.3381" y="1095.7803">Reject before mutate: force-new fields</text><text fill="#334155" font-family="Helvetica" font-size="14" lengthAdjust="spacing" textLength="100.3789" x="837.3381" y="1109.7803">compartment_id</text><text fill="#334155" font-family="Helvetica" font-size="14" lengthAdjust="spacing" textLength="229.5576" x="837.3381" y="1123.7803">Lookup filters: compartment_id, state</text><path d="M457.9492,1144 L516.7148,1144 L516.7148,1150 L506.7148,1160 L449.9492,1160 L449.9492,1152 A8,8 0 0 1 457.9492,1144" fill="#F8FAFC" style="stroke:#CBD5E1;stroke-width:1.5;"/><rect fill="none" height="44" rx="8" ry="8" style="stroke:#CBD5E1;stroke-width:1.5;" width="438.813" x="449.9492" y="1144"/><text fill="#000000" font-family="Helvetica" font-size="14" font-weight="bold" lengthAdjust="spacing" textLength="21.7656" x="464.9492" y="1155.7803">opt</text><text fill="#000000" font-family="Helvetica" font-size="14" font-weight="bold" lengthAdjust="spacing" textLength="276.1309" x="531.7148" y="1156.7803">[force-new or conflicting drift is detected]</text><g class="message" data-entity-1="part4" data-entity-2="part3" id="msg16"><polygon fill="#0F172A" points="526.9731,1176,516.9731,1180,526.9731,1184,522.9731,1180" style="stroke:#0F172A;stroke-width:1;"/><line style="stroke:#0F172A;stroke-width:1;stroke-dasharray:2,2;" x1="520.9731" x2="799.5659" y1="1180" y2="1180"/><text fill="#000000" font-family="Helvetica" font-size="14" lengthAdjust="spacing" textLength="164.1855" x="532.9731" y="1174.7803">reject before OCI mutation</text></g><path d="M710.3696,1202 L769.1353,1202 L769.1353,1208 L759.1353,1218 L702.3696,1218 L702.3696,1210 A8,8 0 0 1 710.3696,1202" fill="#F8FAFC" style="stroke:#CBD5E1;stroke-width:1.5;"/><rect fill="none" height="116" rx="8" ry="8" style="stroke:#CBD5E1;stroke-width:1.5;" width="475.9575" x="702.3696" y="1202"/><text fill="#000000" font-family="Helvetica" font-size="14" font-weight="bold" lengthAdjust="spacing" textLength="21.7656" x="717.3696" y="1213.7803">opt</text><text fill="#000000" font-family="Helvetica" font-size="14" font-weight="bold" lengthAdjust="spacing" textLength="243.4619" x="784.1353" y="1214.7803">[supported mutable drift is detected]</text><g class="message" data-entity-1="part4" data-entity-2="part5" id="msg17"><polygon fill="#0F172A" points="1126.8823,1248,1136.8823,1252,1126.8823,1256,1130.8823,1252" style="stroke:#0F172A;stroke-width:1;"/><line style="stroke:#0F172A;stroke-width:1;" x1="800.5659" x2="1132.8823" y1="1252" y2="1252"/><text fill="#000000" font-family="Helvetica" font-size="14" lengthAdjust="spacing" textLength="235.0059" x="807.5659" y="1232.7803">Apply UpdateIdentityDomainsMyApps</text><text fill="#000000" font-family="Helvetica" font-size="14" lengthAdjust="spacing" textLength="226.4541" x="807.5659" y="1246.7803">only for mutable fields display_name</text></g><path d="M720.3696,1267 L786.9146,1267 L786.9146,1273 L776.9146,1283 L712.3696,1283 L712.3696,1275 A8,8 0 0 1 720.3696,1267" fill="#F8FAFC" style="stroke:#CBD5E1;stroke-width:1.5;"/><rect fill="none" height="44" rx="8" ry="8" style="stroke:#CBD5E1;stroke-width:1.5;" width="455.9575" x="712.3696" y="1267"/><text fill="#000000" font-family="Helvetica" font-size="14" font-weight="bold" lengthAdjust="spacing" textLength="29.5449" x="727.3696" y="1278.7803">loop</text><text fill="#000000" font-family="Helvetica" font-size="14" font-weight="bold" lengthAdjust="spacing" textLength="190.5381" x="801.9146" y="1279.7803">[update pending UPDATING]</text><g class="message" data-entity-1="part4" data-entity-2="part5" id="msg18"><polygon fill="#0F172A" points="1126.8823,1299,1136.8823,1303,1126.8823,1307,1130.8823,1303" style="stroke:#0F172A;stroke-width:1;"/><line style="stroke:#0F172A;stroke-width:1;" x1="800.5659" x2="1132.8823" y1="1303" y2="1303"/><text fill="#000000" font-family="Helvetica" font-size="14" lengthAdjust="spacing" textLength="173.5166" x="807.5659" y="1297.7803">GetIdentityDomainsMyApps</text></g><g class="message" data-entity-1="part4" data-entity-2="part5" id="msg19"><polygon fill="#0F172A" points="1126.8823,1411,1136.8823,1415,1126.8823,1419,1130.8823,1415" style="stroke:#0F172A;stroke-width:1;"/><line style="stroke:#0F172A;stroke-width:1;" x1="800.5659" x2="1132.8823" y1="1415" y2="1415"/><text fill="#000000" font-family="Helvetica" font-size="14" lengthAdjust="spacing" textLength="104.2891" x="807.5659" y="1339.7803">run helper hooks</text><text fill="#000000" font-family="Helvetica" font-size="14" lengthAdjust="spacing" textLength="219.0508" x="807.5659" y="1353.7803">create=tfresource.CreateResource,</text><text fill="#000000" font-family="Helvetica" font-size="14" lengthAdjust="spacing" textLength="314.3164" x="807.5659" y="1367.7803">tfresource.WaitForWorkRequestWithErrorHandling</text><text fill="#000000" font-family="Helvetica" font-size="14" lengthAdjust="spacing" textLength="215.5439" x="807.5659" y="1381.7803">entity=template action=CREATED;</text><text fill="#000000" font-family="Helvetica" font-size="14" lengthAdjust="spacing" textLength="226.085" x="807.5659" y="1395.7803">update=tfresource.UpdateResource;</text><text fill="#000000" font-family="Helvetica" font-size="14" lengthAdjust="spacing" textLength="212.8438" x="807.5659" y="1409.7803">delete=tfresource.DeleteResource</text></g><g class="message" data-entity-1="part4" data-entity-2="part3" id="msg20"><polygon fill="#0F172A" points="526.9731,1460,516.9731,1464,526.9731,1468,522.9731,1464" style="stroke:#0F172A;stroke-width:1;"/><line style="stroke:#0F172A;stroke-width:1;stroke-dasharray:2,2;" x1="520.9731" x2="799.5659" y1="1464" y2="1464"/><text fill="#000000" font-family="Helvetica" font-size="14" lengthAdjust="spacing" textLength="100.7822" x="532.9731" y="1444.7803">status=required,</text><text fill="#000000" font-family="Helvetica" font-size="14" lengthAdjust="spacing" textLength="230.7197" x="532.9731" y="1458.7803">finalizer=retain-until-confirmed-delete</text></g><g class="message" data-entity-1="part3" data-entity-2="part2" id="msg21"><polygon fill="#0F172A" points="288.147,1509,278.147,1513,288.147,1517,284.147,1513" style="stroke:#0F172A;stroke-width:1;"/><line style="stroke:#0F172A;stroke-width:1;stroke-dasharray:2,2;" x1="282.147" x2="514.9731" y1="1513" y2="1513"/><text fill="#000000" font-family="Helvetica" font-size="14" lengthAdjust="spacing" textLength="214.8262" x="294.147" y="1493.7803">requeue on provisioning, updating,</text><text fill="#000000" font-family="Helvetica" font-size="14" lengthAdjust="spacing" textLength="69.2549" x="294.147" y="1507.7803">terminating</text></g><path d="M805,1534 L805,2004 A8,8 0 0 0 813,2012 L1125,2012 A8,8 0 0 0 1133,2004 L1133,1536 L1123,1526 L813,1526 A8,8 0 0 0 805,1534" fill="#FFF7D6" style="stroke:#B45309;stroke-width:0.5;"/><path d="M1123,1526 L1123,1532 A4,4 0 0 0 1127,1536 L1133,1536 L1123,1526" fill="#FFF7D6" style="stroke:#B45309;stroke-width:0.5;"/><text fill="#334155" font-family="Helvetica" font-size="14" lengthAdjust="spacing" textLength="101.165" x="811" y="1541.7803">shared diagram:</text><text fill="#334155" font-family="Helvetica" font-size="14" lengthAdjust="spacing" textLength="307.3916" x="811" y="1555.7803">shared/diagrams/shared-resolution-sequence.svg</text><text fill="#334155" font-family="Helvetica" font-size="14" lengthAdjust="spacing" textLength="143.1992" x="811" y="1569.7803">shared delete diagram:</text><text fill="#334155" font-family="Helvetica" font-size="14" lengthAdjust="spacing" textLength="284.833" x="811" y="1583.7803">shared/diagrams/shared-delete-sequence.svg</text><text fill="#334155" font-family="Helvetica" font-size="14" lengthAdjust="spacing" textLength="280.9297" x="811" y="1597.7803">Start from the shared resolution sequence for</text><text fill="#334155" font-family="Helvetica" font-size="14" lengthAdjust="spacing" textLength="260.7295" x="811" y="1611.7803">OCID binding, datasource pagination, and</text><text fill="#334155" font-family="Helvetica" font-size="14" lengthAdjust="spacing" textLength="163.4268" x="811" y="1625.7803">create-or-update dispatch.</text><text fill="#334155" font-family="Helvetica" font-size="14" lengthAdjust="spacing" textLength="301.1982" x="811" y="1639.7803">Layer the shared delete sequence when finalizer</text><text fill="#334155" font-family="Helvetica" font-size="14" lengthAdjust="spacing" textLength="269.2471" x="811" y="1653.7803">retention, delete confirmation, work-request</text><text fill="#334155" font-family="Helvetica" font-size="14" lengthAdjust="spacing" textLength="199.2334" x="811" y="1667.7803">polling, or Secret cleanup apply.</text><text fill="#334155" font-family="Helvetica" font-size="14" lengthAdjust="spacing" textLength="281.709" x="811" y="1681.7803">archetype batch: Generated service-manager</text><text fill="#334155" font-family="Helvetica" font-size="14" lengthAdjust="spacing" textLength="266.1504" x="811" y="1695.7803">controllers follow the shared resolution and</text><text fill="#334155" font-family="Helvetica" font-size="14" lengthAdjust="spacing" textLength="259.9297" x="811" y="1709.7803">delete sequences with imported waits and</text><text fill="#334155" font-family="Helvetica" font-size="14" lengthAdjust="spacing" textLength="134.6064" x="811" y="1723.7803">controller-local policy.</text><text fill="#334155" font-family="Helvetica" font-size="14" lengthAdjust="spacing" textLength="149.3994" x="811" y="1737.7803">service: identitydomains</text><text fill="#334155" font-family="Helvetica" font-size="14" lengthAdjust="spacing" textLength="179.7578" x="811" y="1751.7803">slug: identitydomainsmyapps</text><text fill="#334155" font-family="Helvetica" font-size="14" lengthAdjust="spacing" textLength="184.4131" x="811" y="1765.7803">kind: IdentityDomainsMyApps</text><text fill="#334155" font-family="Helvetica" font-size="14" lengthAdjust="spacing" textLength="241.2402" x="811" y="1779.7803">archetype: generated-service-manager</text><text fill="#334155" font-family="Helvetica" font-size="14" lengthAdjust="spacing" textLength="156.4063" x="811" y="1793.7803">status/finalizer: required /</text><text fill="#334155" font-family="Helvetica" font-size="14" lengthAdjust="spacing" textLength="174.3027" x="811" y="1807.7803">retain-until-confirmed-delete</text><text fill="#334155" font-family="Helvetica" font-size="14" lengthAdjust="spacing" textLength="272.3984" x="811" y="1821.7803">requeue: provisioning, updating, terminating</text><text fill="#334155" font-family="Helvetica" font-size="14" lengthAdjust="spacing" textLength="295.6816" x="811" y="1835.7803">provider states: create PROVISIONING; update</text><text fill="#334155" font-family="Helvetica" font-size="14" lengthAdjust="spacing" textLength="192.165" x="811" y="1849.7803">UPDATING; delete DELETING</text><text fill="#334155" font-family="Helvetica" font-size="14" lengthAdjust="spacing" textLength="183.6611" x="811" y="1863.7803">supported drift: display_name</text><text fill="#334155" font-family="Helvetica" font-size="14" lengthAdjust="spacing" textLength="230.3301" x="811" y="1877.7803">reject before mutate: force-new fields</text><text fill="#334155" font-family="Helvetica" font-size="14" lengthAdjust="spacing" textLength="100.3789" x="811" y="1891.7803">compartment_id</text><text fill="#334155" font-family="Helvetica" font-size="14" lengthAdjust="spacing" textLength="66.1445" x="811" y="1905.7803">list lookup:</text><text fill="#334155" font-family="Helvetica" font-size="14" lengthAdjust="spacing" textLength="307.3916" x="811" y="1919.7803">scaffold_identitydomains_identitydomainsmyapps</text><text fill="#334155" font-family="Helvetica" font-size="14" lengthAdjust="spacing" textLength="175.8477" x="811" y="1933.7803">filters compartment_id, state</text><text fill="#334155" font-family="Helvetica" font-size="14" lengthAdjust="spacing" textLength="89.4961" x="811" y="1947.7803">conflicts: none</text><text fill="#334155" font-family="Helvetica" font-size="14" lengthAdjust="spacing" textLength="104.3164" x="811" y="1961.7803">open gaps: none</text><text fill="#334155" font-family="Helvetica" font-size="14" lengthAdjust="spacing" textLength="224.9023" x="811" y="1975.7803">Scaffold metadata only; replace with</text><text fill="#334155" font-family="Helvetica" font-size="14" lengthAdjust="spacing" textLength="244.3232" x="811" y="1989.7803">controller-specific runtime states before</text><text fill="#334155" font-family="Helvetica" font-size="14" lengthAdjust="spacing" textLength="66.1445" x="811" y="2003.7803">promotion.</text><?plantuml-src fLTRRzis57xNhpZeNbh0IfecwSL11hH9rWPDco9krnS30IqTsLmeKYCfkzwm_xx3YsJ9aTUiHHvYYUIvVjztA7F7PSKqAy4iMAvMNCwXOC9WOjgL6SlkvbhLCZzJGcdufSZeB-_ioB5WjR2_AMa_iXBX7OebMfwnuJqJ_XV2mL5daMcjLj7wq-BWnRFkIQailhaNGr6yo9zlxr8wHnrtp8wE3v--sjhXtCVrmyEZW-FZphetdoajKSF1yyHoAn0c-6UDCaD8WUSewUKwLoNZqknVnkVpyFnX_RggJBAWRL0ePMVgMyUuQUpydG2mp2hT2pOctInjPulFy6Nnb9R96DMLLqpQuVFT3G-nqYb8QqFm0g-ux9VprH4xdBsaLMUowYrbi_mO3zgbUwrwMR0YI_v9V6xmlfuXrTYYIJfnm1a5efKGg7kltp23DvWfcV7jfKVNa-lt4zHBdk479jaSzIDW1lglUaUkpouJ1mDGIsfot_PewnmHGcCE6eqIjULAZkEh_PopEVNKx8VdTBCbRTgyPvRpnaAEWhBTUJeizq-Yp3rSaqsn8FsrKwCneAJzDS8W2gTIDtabcqFEH3_dCRI_7siNWB5FaluMTwXVcJ6qnYatmoc9gHmcWmS4N2brH_yO9JNZCa-Oi60rmOIAGu30RvMW1ldkj2G39ZIoV4sht5YJz4DmGT7kCRn5E-mPISDQ9wrHRg3anf3AxJ9uHTu6BJukkB2epNWgCrKwK9MqwvRd8p2MMNpYqz9O6pQZmhXS72vgJPmdjzHDKWKYnIx7PvIknU5aX58LP7u3L8GDfzAVRgv_lvnSNd-y_FZs_rU7ul0L6extPsi_aEK0z2gg9jaF35jIcthzvzBNjGxcN6q3KI3Y5FE8hdF_UbUGONKupXr7ACA2wxBnj-HiAdVbIlYTofsO2OsBTfh6dLzSNNp-WQPznrLJfKmWarGM8bR19HCqQpNLZDuQ3yIPK8uJ3scGHaiEclWzoZs9wRrU1_p4DSS8-a4A26fcoF937OImDe6oWZXstse0R0DQXvCG3UNZWt4GVfZ389gh1Mynxuj8S9lABgL6yENJ-UlF_bVRCUzTy6LJ36UEvCzG0YZobAr8qASorxomW4icQkQ3ZpZrhnTKGE7qPpE6-d6Ft8oQr5MbD64SwYftdaoj2vRX679kAi7MjvBkMSaD_e6PXHaMIYEKjGjgJ39374ubha9O9kdhLHBbkD4p69IppGXIbUsO95WvVf1WMmVca2kr8QU6PVQXRU-6xRhWGs_wx1oQjW1koGdKzpr5_X0Rn1g--Bhj68vAqWvotXeFXUeNrtCtbh_XReE97nFStUAlQmaB5AI8iA3kK8X1xKzjqOZoNXWGD_5nD9MTjQ-CqqrEVrNwxYR8urTk5nTqgzRl8k2cCiHrQf5OvQcSkPAVdjrSlFvySNuobI7PhizGnSOdRGdCx6u90jjiUQZs1sa_ZGJAAPjM0qw3xAGrXIlIACRjFSaxsBwXR5sD6fQJ6bLQBRcXDAa2ez1DzukAXxeaZxQbekRpXGLLmF0rCDxQVkuE-5qhGtV1YILoGg5L2NQ1SEzQklcq84Gd1ATpVylo2LEwBCxqYirzlagEd8Wd0M2fqcd4k0C_izbYBxbYQwfgnrap0Hf7gmNAZMWdr327BMUvLMxVjUXkHR1CuzXEAcgIZqqvvQCeDYEBEURk9Knd2xJh2kdBa-9nhA9FCkR4m8JUf6LiJjPsdJIO_glLZXgvZBUoCB0YZW0lez2iY4CcbAQrcjAmP08ePfvHPD7zUFjJC36YdjzxMwwPepvz0kRZuMlw9jKnp9iaq-qa0rVsstgFcxcJmtxotsI9J1ZluW5qQU3tq5TT601kC8GRPtSidaH5J1ebF6bQtWx9ZNHxoTuQMVg7HfPmzqJXvnPn9sC5DJk_tQhtxN3zuvpRCUQQOKRfqbXmquwWFMTLypo9pg2aGZiwWHiU9zG2oibHWJ3K1OofCEC5pvoaMrx6cuA92RiQbyeXSgyTiFy2?></g></svg>