<?plantuml 1.2026.1?><svg xmlns="http://www.w3.org/2000/svg" xmlns:xlink="http://www.w3.org/1999/xlink" contentStyleType="text/css" data-diagram-type="ACTIVITY" height="1413px" preserveAspectRatio="none" style="width:694px;height:1413px;background:#FCFCFD;" version="1.1" viewBox="0 0 694 1413" width="694px" zoomAndPan="magnify"><title>Activity - stackmonitoring/StackMonitoringBaselineableMetrics</title><defs/><g><rect fill="#FCFCFD" height="1413" style="stroke:none;stroke-width:1;" width="694" x="0" y="0"/><g class="title" data-source-line="10"><text fill="#000000" font-family="Helvetica" font-size="14" font-weight="bold" lengthAdjust="spacing" textLength="420.0957" x="135.4845" y="30.7803">Activity - stackmonitoring/StackMonitoringBaselineableMetrics</text></g><ellipse cx="311.0247" cy="55" fill="#1D4ED8" rx="10" ry="10" style="stroke:#222222;stroke-width:1;"/><rect fill="#F8FAFC" height="48" rx="8" ry="8" style="stroke:#0F172A;stroke-width:0.5;" width="304.7852" x="158.6321" y="85"/><text fill="#0F172A" font-family="Helvetica" font-size="14" lengthAdjust="spacing" textLength="136.9375" x="168.6321" y="105.7803">Start from shared flow</text><text fill="#0F172A" font-family="Helvetica" font-size="14" lengthAdjust="spacing" textLength="284.7852" x="168.6321" y="119.7803">shared/diagrams/shared-reconcile-activity.svg</text><rect fill="#F8FAFC" height="62" rx="8" ry="8" style="stroke:#0F172A;stroke-width:0.5;" width="306.3711" x="157.8391" y="153"/><text fill="#0F172A" font-family="Helvetica" font-size="14" lengthAdjust="spacing" textLength="80.9512" x="167.8391" y="173.7803">Load desired</text><text fill="#0F172A" font-family="Helvetica" font-size="14" lengthAdjust="spacing" textLength="286.3711" x="167.8391" y="187.7803">StackMonitoringBaselineableMetrics spec and</text><text fill="#0F172A" font-family="Helvetica" font-size="14" lengthAdjust="spacing" textLength="144.7373" x="167.8391" y="201.7803">status from Kubernetes</text><rect fill="#F8FAFC" height="76" rx="8" ry="8" style="stroke:#0F172A;stroke-width:0.5;" width="297.0127" x="162.5183" y="235"/><text fill="#0F172A" font-family="Helvetica" font-size="14" lengthAdjust="spacing" textLength="135.3857" x="172.5183" y="255.7803">Resolve OCI state via</text><text fill="#0F172A" font-family="Helvetica" font-size="14" lengthAdjust="spacing" textLength="277.0127" x="172.5183" y="269.7803">GetStackMonitoringBaselineableMetrics with</text><text fill="#0F172A" font-family="Helvetica" font-size="14" lengthAdjust="spacing" textLength="247.4473" x="172.5183" y="283.7803">ListStackMonitoringBaselineableMetrics</text><text fill="#0F172A" font-family="Helvetica" font-size="14" lengthAdjust="spacing" textLength="47.4688" x="172.5183" y="297.7803">fallback</text><rect fill="#F8FAFC" height="76" rx="8" ry="8" style="stroke:#0F172A;stroke-width:0.5;" width="403.6328" x="109.2083" y="331"/><text fill="#0F172A" font-family="Helvetica" font-size="14" lengthAdjust="spacing" textLength="24.8965" x="119.2083" y="351.7803">Use</text><text fill="#0F172A" font-family="Helvetica" font-size="14" lengthAdjust="spacing" textLength="383.6328" x="119.2083" y="365.7803">scaffold_stackmonitoring_stackmonitoringbaselineablemetrics</text><text fill="#0F172A" font-family="Helvetica" font-size="14" lengthAdjust="spacing" textLength="297.2402" x="119.2083" y="379.7803">filters compartment_id, state when OCID lookup</text><text fill="#0F172A" font-family="Helvetica" font-size="14" lengthAdjust="spacing" textLength="259.9023" x="119.2083" y="393.7803">or bind-versus-create needs list resolution</text><polygon fill="#E2E8F0" points="257.3352,427,364.7141,427,376.7141,439,364.7141,451,257.3352,451,245.3352,439,257.3352,427" style="stroke:#1D4ED8;stroke-width:0.5;"/><text fill="#0F172A" font-family="Helvetica" font-size="14" lengthAdjust="spacing" textLength="107.3789" x="257.3352" y="442.7803">Resource exists?</text><text fill="#000000" font-family="Helvetica" font-size="14" lengthAdjust="spacing" textLength="21.7861" x="223.5491" y="435.7803">yes</text><text fill="#000000" font-family="Helvetica" font-size="14" lengthAdjust="spacing" textLength="15.5723" x="376.7141" y="435.7803">no</text><rect fill="#F8FAFC" height="48" rx="8" ry="8" style="stroke:#0F172A;stroke-width:0.5;" width="290.8057" x="11" y="461"/><text fill="#0F172A" font-family="Helvetica" font-size="14" lengthAdjust="spacing" textLength="108.1787" x="21" y="481.7803">Update path calls</text><text fill="#0F172A" font-family="Helvetica" font-size="14" lengthAdjust="spacing" textLength="270.8057" x="21" y="495.7803">UpdateStackMonitoringBaselineableMetrics</text><rect fill="#F8FAFC" height="48" rx="8" ry="8" style="stroke:#0F172A;stroke-width:0.5;" width="266.7021" x="23.0518" y="529"/><text fill="#0F172A" font-family="Helvetica" font-size="14" lengthAdjust="spacing" textLength="246.7021" x="33.0518" y="549.7803">Guard mutable fields display_name and</text><text fill="#0F172A" font-family="Helvetica" font-size="14" lengthAdjust="spacing" textLength="202.3096" x="33.0518" y="563.7803">force-new fields compartment_id</text><rect fill="#F8FAFC" height="48" rx="8" ry="8" style="stroke:#0F172A;stroke-width:0.5;" width="287.6816" x="321.8057" y="461"/><text fill="#0F172A" font-family="Helvetica" font-size="14" lengthAdjust="spacing" textLength="105.0547" x="331.8057" y="481.7803">Create path calls</text><text fill="#0F172A" font-family="Helvetica" font-size="14" lengthAdjust="spacing" textLength="267.6816" x="331.8057" y="495.7803">CreateStackMonitoringBaselineableMetrics</text><polygon fill="#E2E8F0" points="311.0247,583,323.0247,595,311.0247,607,299.0247,595,311.0247,583" style="stroke:#1D4ED8;stroke-width:0.5;"/><rect fill="#F8FAFC" height="104" rx="8" ry="8" style="stroke:#0F172A;stroke-width:0.5;" width="334.3164" x="143.8665" y="627"/><text fill="#0F172A" font-family="Helvetica" font-size="14" lengthAdjust="spacing" textLength="164.2061" x="153.8665" y="647.7803">Run provider helper hooks</text><text fill="#0F172A" font-family="Helvetica" font-size="14" lengthAdjust="spacing" textLength="219.0508" x="153.8665" y="661.7803">create=tfresource.CreateResource,</text><text fill="#0F172A" font-family="Helvetica" font-size="14" lengthAdjust="spacing" textLength="314.3164" x="153.8665" y="675.7803">tfresource.WaitForWorkRequestWithErrorHandling</text><text fill="#0F172A" font-family="Helvetica" font-size="14" lengthAdjust="spacing" textLength="215.5439" x="153.8665" y="689.7803">entity=template action=CREATED;</text><text fill="#0F172A" font-family="Helvetica" font-size="14" lengthAdjust="spacing" textLength="226.085" x="153.8665" y="703.7803">update=tfresource.UpdateResource;</text><text fill="#0F172A" font-family="Helvetica" font-size="14" lengthAdjust="spacing" textLength="212.8438" x="153.8665" y="717.7803">delete=tfresource.DeleteResource</text><rect fill="#F8FAFC" height="34" rx="8" ry="8" style="stroke:#0F172A;stroke-width:0.5;" width="263.5918" x="179.2288" y="751"/><text fill="#0F172A" font-family="Helvetica" font-size="14" lengthAdjust="spacing" textLength="243.5918" x="189.2288" y="771.7803">Apply repo-authored secret policy none</text><rect fill="#F8FAFC" height="104" rx="8" ry="8" style="stroke:#0F172A;stroke-width:0.5;" width="314.916" x="153.5667" y="805"/><text fill="#0F172A" font-family="Helvetica" font-size="14" lengthAdjust="spacing" textLength="105.0684" x="163.5667" y="825.7803">Delete path uses</text><text fill="#0F172A" font-family="Helvetica" font-size="14" lengthAdjust="spacing" textLength="294.916" x="163.5667" y="839.7803">DeleteStackMonitoringBaselineableMetrics with</text><text fill="#0F172A" font-family="Helvetica" font-size="14" lengthAdjust="spacing" textLength="73.1514" x="163.5667" y="853.7803">required via</text><text fill="#0F172A" font-family="Helvetica" font-size="14" lengthAdjust="spacing" textLength="264.5645" x="163.5667" y="867.7803">GetStackMonitoringBaselineableMetrics or</text><text fill="#0F172A" font-family="Helvetica" font-size="14" lengthAdjust="spacing" textLength="263.0127" x="163.5667" y="881.7803">ListStackMonitoringBaselineableMetrics to</text><text fill="#0F172A" font-family="Helvetica" font-size="14" lengthAdjust="spacing" textLength="144.7168" x="163.5667" y="895.7803">DELETED confirmation</text><rect fill="#F8FAFC" height="48" rx="8" ry="8" style="stroke:#0F172A;stroke-width:0.5;" width="279.1299" x="171.4597" y="929"/><text fill="#0F172A" font-family="Helvetica" font-size="14" lengthAdjust="spacing" textLength="259.1299" x="181.4597" y="949.7803">Project required status and finalizer policy</text><text fill="#0F172A" font-family="Helvetica" font-size="14" lengthAdjust="spacing" textLength="174.3027" x="181.4597" y="963.7803">retain-until-confirmed-delete</text><rect fill="#F8FAFC" height="34" rx="8" ry="8" style="stroke:#0F172A;stroke-width:0.5;" width="313.4189" x="154.3152" y="997"/><text fill="#0F172A" font-family="Helvetica" font-size="14" lengthAdjust="spacing" textLength="293.4189" x="164.3152" y="1017.7803">Requeue on provisioning, updating, terminating</text><path d="M342.0247,1041 L342.0247,1217 L322.0247,1221 L342.0247,1225 L342.0247,1401 A0,0 0 0 0 342.0247,1401 L682.0647,1401 A0,0 0 0 0 682.0647,1401 L682.0647,1051 L672.0647,1041 L342.0247,1041 A0,0 0 0 0 342.0247,1041" fill="#FFF7D6" style="stroke:#B45309;stroke-width:0.5;"/><path d="M672.0647,1041 L672.0647,1051 L682.0647,1051 L672.0647,1041" fill="#FFF7D6" style="stroke:#B45309;stroke-width:0.5;"/><text fill="#334155" font-family="Helvetica" font-size="14" lengthAdjust="spacing" textLength="101.165" x="348.0247" y="1056.7803">shared diagram:</text><text fill="#334155" font-family="Helvetica" font-size="14" lengthAdjust="spacing" textLength="284.7852" x="348.0247" y="1070.7803">shared/diagrams/shared-reconcile-activity.svg</text><text fill="#334155" font-family="Helvetica" font-size="14" lengthAdjust="spacing" textLength="265.3438" x="348.0247" y="1084.7803">Start from the shared reconcile activity and</text><text fill="#334155" font-family="Helvetica" font-size="14" lengthAdjust="spacing" textLength="273.8955" x="348.0247" y="1098.7803">specialize provider-backed CRUD, wait, and</text><text fill="#334155" font-family="Helvetica" font-size="14" lengthAdjust="spacing" textLength="182.875" x="348.0247" y="1112.7803">status-projection details here.</text><text fill="#334155" font-family="Helvetica" font-size="14" lengthAdjust="spacing" textLength="229.5371" x="348.0247" y="1126.7803">Controller-local activity diagrams add</text><text fill="#334155" font-family="Helvetica" font-size="14" lengthAdjust="spacing" textLength="238.8955" x="348.0247" y="1140.7803">list-lookup hints, secret policies, delete</text><text fill="#334155" font-family="Helvetica" font-size="14" lengthAdjust="spacing" textLength="200.0332" x="348.0247" y="1154.7803">handling, and open formal gaps.</text><text fill="#334155" font-family="Helvetica" font-size="14" lengthAdjust="spacing" textLength="281.709" x="348.0247" y="1168.7803">archetype batch: Generated service-manager</text><text fill="#334155" font-family="Helvetica" font-size="14" lengthAdjust="spacing" textLength="291.0469" x="348.0247" y="1182.7803">controllers specialize the shared reconcile path</text><text fill="#334155" font-family="Helvetica" font-size="14" lengthAdjust="spacing" textLength="189.8477" x="348.0247" y="1196.7803">with formal runtime ownership.</text><text fill="#334155" font-family="Helvetica" font-size="14" lengthAdjust="spacing" textLength="150.165" x="348.0247" y="1210.7803">service: stackmonitoring</text><text fill="#334155" font-family="Helvetica" font-size="14" lengthAdjust="spacing" textLength="255.2334" x="348.0247" y="1224.7803">slug: stackmonitoringbaselineablemetrics</text><text fill="#334155" font-family="Helvetica" font-size="14" lengthAdjust="spacing" textLength="259.123" x="348.0247" y="1238.7803">kind: StackMonitoringBaselineableMetrics</text><text fill="#334155" font-family="Helvetica" font-size="14" lengthAdjust="spacing" textLength="241.2402" x="348.0247" y="1252.7803">archetype: generated-service-manager</text><text fill="#334155" font-family="Helvetica" font-size="14" lengthAdjust="spacing" textLength="156.4063" x="348.0247" y="1266.7803">status/finalizer: required /</text><text fill="#334155" font-family="Helvetica" font-size="14" lengthAdjust="spacing" textLength="174.3027" x="348.0247" y="1280.7803">retain-until-confirmed-delete</text><text fill="#334155" font-family="Helvetica" font-size="14" lengthAdjust="spacing" textLength="272.3984" x="348.0247" y="1294.7803">requeue: provisioning, updating, terminating</text><text fill="#334155" font-family="Helvetica" font-size="14" lengthAdjust="spacing" textLength="295.6816" x="348.0247" y="1308.7803">provider states: create PROVISIONING; update</text><text fill="#334155" font-family="Helvetica" font-size="14" lengthAdjust="spacing" textLength="192.165" x="348.0247" y="1322.7803">UPDATING; delete DELETING</text><text fill="#334155" font-family="Helvetica" font-size="14" lengthAdjust="spacing" textLength="319.04" x="348.0247" y="1336.7803">mutable/forceNew: display_name / compartment_id</text><text fill="#334155" font-family="Helvetica" font-size="14" lengthAdjust="spacing" textLength="104.3164" x="348.0247" y="1350.7803">open gaps: none</text><text fill="#334155" font-family="Helvetica" font-size="14" lengthAdjust="spacing" textLength="224.9023" x="348.0247" y="1364.7803">Scaffold metadata only; replace with</text><text fill="#334155" font-family="Helvetica" font-size="14" lengthAdjust="spacing" textLength="244.3232" x="348.0247" y="1378.7803">controller-specific runtime states before</text><text fill="#334155" font-family="Helvetica" font-size="14" lengthAdjust="spacing" textLength="66.1445" x="348.0247" y="1392.7803">promotion.</text><ellipse cx="311.0247" cy="1221" fill="none" rx="11" ry="11" style="stroke:#222222;stroke-width:1;"/><ellipse cx="311.0247" cy="1221" fill="#222222" rx="6" ry="6" style="stroke:#222222;stroke-width:1;"/><line style="stroke:#0F172A;stroke-width:1;" x1="311.0247" x2="311.0247" y1="65" y2="85"/><polygon fill="#0F172A" points="307.0247,75,311.0247,85,315.0247,75,311.0247,79" style="stroke:#0F172A;stroke-width:1;"/><line style="stroke:#0F172A;stroke-width:1;" x1="311.0247" x2="311.0247" y1="133" y2="153"/><polygon fill="#0F172A" points="307.0247,143,311.0247,153,315.0247,143,311.0247,147" style="stroke:#0F172A;stroke-width:1;"/><line style="stroke:#0F172A;stroke-width:1;" x1="311.0247" x2="311.0247" y1="215" y2="235"/><polygon fill="#0F172A" points="307.0247,225,311.0247,235,315.0247,225,311.0247,229" style="stroke:#0F172A;stroke-width:1;"/><line style="stroke:#0F172A;stroke-width:1;" x1="311.0247" x2="311.0247" y1="311" y2="331"/><polygon fill="#0F172A" points="307.0247,321,311.0247,331,315.0247,321,311.0247,325" style="stroke:#0F172A;stroke-width:1;"/><line style="stroke:#0F172A;stroke-width:1;" x1="156.4028" x2="156.4028" y1="509" y2="529"/><polygon fill="#0F172A" points="152.4028,519,156.4028,529,160.4028,519,156.4028,523" style="stroke:#0F172A;stroke-width:1;"/><line style="stroke:#0F172A;stroke-width:1;" x1="245.3352" x2="156.4028" y1="439" y2="439"/><line style="stroke:#0F172A;stroke-width:1;" x1="156.4028" x2="156.4028" y1="439" y2="461"/><polygon fill="#0F172A" points="152.4028,451,156.4028,461,160.4028,451,156.4028,455" style="stroke:#0F172A;stroke-width:1;"/><line style="stroke:#0F172A;stroke-width:1;" x1="376.7141" x2="465.6465" y1="439" y2="439"/><line style="stroke:#0F172A;stroke-width:1;" x1="465.6465" x2="465.6465" y1="439" y2="461"/><polygon fill="#0F172A" points="461.6465,451,465.6465,461,469.6465,451,465.6465,455" style="stroke:#0F172A;stroke-width:1;"/><line style="stroke:#0F172A;stroke-width:1;" x1="156.4028" x2="156.4028" y1="577" y2="595"/><line style="stroke:#0F172A;stroke-width:1;" x1="156.4028" x2="299.0247" y1="595" y2="595"/><polygon fill="#0F172A" points="289.0247,591,299.0247,595,289.0247,599,293.0247,595" style="stroke:#0F172A;stroke-width:1;"/><line style="stroke:#0F172A;stroke-width:1;" x1="465.6465" x2="465.6465" y1="509" y2="595"/><line style="stroke:#0F172A;stroke-width:1;" x1="465.6465" x2="323.0247" y1="595" y2="595"/><polygon fill="#0F172A" points="333.0247,591,323.0247,595,333.0247,599,329.0247,595" style="stroke:#0F172A;stroke-width:1;"/><line style="stroke:#0F172A;stroke-width:1;" x1="311.0247" x2="311.0247" y1="407" y2="427"/><polygon fill="#0F172A" points="307.0247,417,311.0247,427,315.0247,417,311.0247,421" style="stroke:#0F172A;stroke-width:1;"/><line style="stroke:#0F172A;stroke-width:1;" x1="311.0247" x2="311.0247" y1="607" y2="627"/><polygon fill="#0F172A" points="307.0247,617,311.0247,627,315.0247,617,311.0247,621" style="stroke:#0F172A;stroke-width:1;"/><line style="stroke:#0F172A;stroke-width:1;" x1="311.0247" x2="311.0247" y1="731" y2="751"/><polygon fill="#0F172A" points="307.0247,741,311.0247,751,315.0247,741,311.0247,745" style="stroke:#0F172A;stroke-width:1;"/><line style="stroke:#0F172A;stroke-width:1;" x1="311.0247" x2="311.0247" y1="785" y2="805"/><polygon fill="#0F172A" points="307.0247,795,311.0247,805,315.0247,795,311.0247,799" style="stroke:#0F172A;stroke-width:1;"/><line style="stroke:#0F172A;stroke-width:1;" x1="311.0247" x2="311.0247" y1="909" y2="929"/><polygon fill="#0F172A" points="307.0247,919,311.0247,929,315.0247,919,311.0247,923" style="stroke:#0F172A;stroke-width:1;"/><line style="stroke:#0F172A;stroke-width:1;" x1="311.0247" x2="311.0247" y1="977" y2="997"/><polygon fill="#0F172A" points="307.0247,987,311.0247,997,315.0247,987,311.0247,991" style="stroke:#0F172A;stroke-width:1;"/><line style="stroke:#0F172A;stroke-width:1;" x1="311.0247" x2="311.0247" y1="1031" y2="1210"/><polygon fill="#0F172A" points="307.0247,1200,311.0247,1210,315.0247,1200,311.0247,1204" style="stroke:#0F172A;stroke-width:1;"/><?plantuml-src bLPHJ-Cu47xthnZfNbYfQM61NIuLEh65PT6oW60vNYeXDvuqFXmxPpljzKxttsySfo4KTDiL3n1xF9xlcsy-uvwahhZb9RY22xEKUWuvLmwPwtPcF7kQMrDhCJ7AMFWbp-X7z284vhnM_hFH_egN25zGBT3BZByTSoV_HjWxw6roQysopRwRxtrytp-fZSTFhsh8yu_YmsQKiG9j6p4xEDpV_NKZ8bpVxk_l7-mT7lRsc_IPiHejx7rWNdg5S99vkP1-1GauJqMKHajlBF4qkWlVtxhlJzoXaXhvJE4tz5PchezmdUSV1cymUfJpF0ixVGGj4m3vSzNTcf2SQX6lYC7tU9JlzWBw6VV40OgZvytFRoGccDPlncENlukRyOsi_xBcA4llmY_8hMbKPL50hinogkF7YEwU4oLk5ByJYvdHcLIOh4aQkiLypD9BmmNfnacAckeVqmskmWoufc2gnDSkrl2rdY4rrQEZdBVe38aJhYSN0Qb7M4W-rUVejyY_bBwOwalfjWYUQfeZ5JfDjzuxf9eodkT6YSSD8Mr-pth9oYwPL1wjWyoK92XVelQFKWnQ3Ci2TO1q2igOfxgQQkhBJ6gHBEXGxPBCOeZJYCA18W1W0n6rbqQFcSnX9n1Jsmm1_w9jzzixy27fpWhTEm9GYN2-uhw0Z71HHN7fnqGG_FEQMm5bxSCov18LLI6agnHVFUhW64tJSaFt9ngNwv2NOCSCoPXWHnigQ181zGkAIziKH6gMEMcXrb1Piv0q852Wgi8luezoHRwEVMvRMeOn-vgbmLJtzXwu96Ep3yO-tUAVDJh_G4ev8rEpNmWPtJ-VQW91qZxsM19iAZs8tUZZoUtPoVUpq_5KrmsX_JiZnUixAKIWmfSXfyrA5yBIawfIA-fkPH9U-yA4yND8U3nKHibiHJweGs0y6Hci7HBekBBr75Y26aRpPoR8s6td1xoXYiukpuWS4W8DW2rvb6jwOyqVc0KDjnMquqvSatGqL_J0s1PkgDDpgPEQ-5T9cubi9tBPM0Arh4OmhHeSNK8r3Q1fIFCNZLv9USF7c5pEL2my9c3blF2izRZMrbBsKpR7UcP90xSsp2xu-U4WS2mOd6pWTS9DWiNGYSdj_Ua0bgJ4GGnjA4cgI1L18YSb7fGZfLiSiWbPlpLAKGPbQ8AUBreN3bm85hmYYQO2XTJU3LweII8jH2PPqKgzkHzCHUv14rrIwZclt91ncnNeLnNIq-6p8eLpfAUM11u4QXUIPh_aci_HigmhBffwY_bDWeA0ML3a-ZOREasUOfQKtXMo6h8sVxhvXZEdwlchrJSCcD53BbBOuidlKAOmN-DBDl75vemwhQRFKXwn_zKhir6jwJPQPPsxDS-4Iw5z1svkht-_kBkulhguEX_7iyZkRqvFlZSByIfefeyMMElSeyQWht2PlZJlqOPHiwRteUbfOpRihdtvWDZaT1UdMLEhSN0fnUd92TthzJnfMfxBh6jbB1zcI1LWG5MQ8EbXSFBc_xh_0000?></g></svg>