<?plantuml 1.2026.1?><svg xmlns="http://www.w3.org/2000/svg" xmlns:xlink="http://www.w3.org/1999/xlink" contentStyleType="text/css" data-diagram-type="SEQUENCE" height="2118px" preserveAspectRatio="none" style="width:1682px;height:2118px;background:#FCFCFD;" version="1.1" viewBox="0 0 1682 2118" width="1682px" zoomAndPan="magnify"><title>Sequence - capacitymanagement/CapacityManagementOccmDemandSignalCatalogResources</title><defs/><g><rect fill="#FCFCFD" height="2118" style="stroke:none;stroke-width:1;" width="1682" x="0" y="0"/><text fill="#000000" font-family="Helvetica" font-size="14" font-weight="bold" lengthAdjust="spacing" textLength="627.874" x="532.165" y="25.7803">Sequence - capacitymanagement/CapacityManagementOccmDemandSignalCatalogResources</text><rect fill="none" height="290" rx="8" ry="8" style="stroke:#CBD5E1;stroke-width:1.5;" width="986.7412" x="620.3486" y="356"/><rect fill="none" height="146" rx="8" ry="8" style="stroke:#CBD5E1;stroke-width:1.5;" width="605.1704" x="991.9194" y="465"/><rect fill="none" height="44" rx="8" ry="8" style="stroke:#CBD5E1;stroke-width:1.5;" width="585.1704" x="1001.9194" y="516"/><rect fill="none" height="868" rx="8" ry="8" style="stroke:#CBD5E1;stroke-width:1.5;" width="1022.8218" x="600.3486" y="660"/><rect fill="none" height="302" rx="8" ry="8" style="stroke:#CBD5E1;stroke-width:1.5;" width="986.7412" x="610.3486" y="683"/><rect fill="none" height="72" rx="8" ry="8" style="stroke:#CBD5E1;stroke-width:1.5;" width="585.1704" x="1001.9194" y="804"/><rect fill="none" height="88" rx="8" ry="8" style="stroke:#CBD5E1;stroke-width:1.5;" width="557.9634" x="620.3486" y="890"/><rect fill="none" height="392" rx="8" ry="8" style="stroke:#CBD5E1;stroke-width:1.5;" width="1002.8218" x="610.3486" y="1087"/><rect fill="none" height="44" rx="8" ry="8" style="stroke:#CBD5E1;stroke-width:1.5;" width="557.9634" x="620.3486" y="1186"/><rect fill="none" height="130" rx="8" ry="8" style="stroke:#CBD5E1;stroke-width:1.5;" width="605.1704" x="991.9194" y="1244"/><rect fill="none" height="44" rx="8" ry="8" style="stroke:#CBD5E1;stroke-width:1.5;" width="585.1704" x="1001.9194" y="1323"/><g class="participant-lifeline" data-entity-uid="part1" data-qualified-name="Kubernetes" id="part1-lifeline"><g><title>Kubernetes</title><rect fill="#000000" fill-opacity="0.00000" height="1997" width="8" x="39.8032" y="114"/><line style="stroke:#94A3B8;stroke-width:0.5;stroke-dasharray:5,5;" x1="43" x2="43" y1="114" y2="2111"/></g></g><g class="participant-lifeline" data-entity-uid="part2" data-qualified-name="Controller" id="part2-lifeline"><g><title>Controller</title><rect fill="#000000" fill-opacity="0.00000" height="1997" width="8" x="443.5464" y="114"/><line style="stroke:#94A3B8;stroke-width:0.5;stroke-dasharray:5,5;" x1="447.2017" x2="447.2017" y1="114" y2="2111"/></g></g><g class="participant-lifeline" data-entity-uid="part3" data-qualified-name="BaseReconciler" id="part3-lifeline"><g><title>BaseReconciler</title><rect fill="#000000" fill-opacity="0.00000" height="1997" width="8" x="682.3726" y="114"/><line style="stroke:#94A3B8;stroke-width:0.5;stroke-dasharray:5,5;" x1="686.3486" x2="686.3486" y1="114" y2="2111"/></g></g><g class="participant-lifeline" data-entity-uid="part4" data-qualified-name="ServiceManager" id="part4-lifeline"><g><title>OSOKServiceManager</title><rect fill="#000000" fill-opacity="0.00000" height="1997" width="8" x="1086.1157" y="114"/><line style="stroke:#94A3B8;stroke-width:0.5;stroke-dasharray:5,5;" x1="1089.9194" x2="1089.9194" y1="114" y2="2111"/></g></g><g class="participant-lifeline" data-entity-uid="part5" data-qualified-name="OCI" id="part5-lifeline"><g><title>OCI</title><rect fill="#000000" fill-opacity="0.00000" height="1997" width="8" x="1553.645" y="114"/><line style="stroke:#94A3B8;stroke-width:0.5;stroke-dasharray:5,5;" x1="1557.2002" x2="1557.2002" y1="114" y2="2111"/></g></g><g class="participant participant-head" data-entity-uid="part1" data-qualified-name="Kubernetes" id="part1-head"><text fill="#000000" font-family="Helvetica" font-size="14" lengthAdjust="spacing" textLength="71.6064" x="5" y="110.7803">Kubernetes</text><ellipse cx="43.8032" cy="48.5" fill="#E2E8F0" rx="8" ry="8" style="stroke:#0F172A;stroke-width:0.5;"/><path d="M43.8032,56.5 L43.8032,83.5 M30.8032,64.5 L56.8032,64.5 M43.8032,83.5 L30.8032,98.5 M43.8032,83.5 L56.8032,98.5" fill="none" style="stroke:#0F172A;stroke-width:0.5;"/></g><g class="participant participant-head" data-entity-uid="part2" data-qualified-name="Controller" id="part2-head"><rect fill="#E2E8F0" height="28" rx="8" ry="8" style="stroke:#0F172A;stroke-width:0.5;" width="74.6895" x="410.2017" y="85"/><text fill="#0F172A" font-family="Helvetica" font-size="14" lengthAdjust="spacing" textLength="60.6895" x="417.2017" y="102.7803">Controller</text></g><g class="participant participant-head" data-entity-uid="part3" data-qualified-name="BaseReconciler" id="part3-head"><rect fill="#E2E8F0" height="28" rx="8" ry="8" style="stroke:#0F172A;stroke-width:0.5;" width="112.0479" x="630.3486" y="85"/><text fill="#0F172A" font-family="Helvetica" font-size="14" lengthAdjust="spacing" textLength="98.0479" x="637.3486" y="102.7803">BaseReconciler</text></g><g class="participant participant-head" data-entity-uid="part4" data-qualified-name="ServiceManager" id="part4-head"><rect fill="#E2E8F0" height="28" rx="8" ry="8" style="stroke:#0F172A;stroke-width:0.5;" width="156.3926" x="1011.9194" y="85"/><text fill="#0F172A" font-family="Helvetica" font-size="14" lengthAdjust="spacing" textLength="142.3926" x="1018.9194" y="102.7803">OSOKServiceManager</text></g><g class="participant participant-head" data-entity-uid="part5" data-qualified-name="OCI" id="part5-head"><rect fill="#E2E8F0" height="28" rx="8" ry="8" style="stroke:#0F172A;stroke-width:0.5;" width="38.8896" x="1538.2002" y="85"/><text fill="#0F172A" font-family="Helvetica" font-size="14" lengthAdjust="spacing" textLength="24.8896" x="1545.2002" y="102.7803">OCI</text></g><path d="M621,137 L621,187 A8,8 0 0 0 629,195 L1145,195 A8,8 0 0 0 1153,187 L1153,139 L1143,129 L629,129 A8,8 0 0 0 621,137" fill="#FFF7D6" style="stroke:#B45309;stroke-width:0.5;"/><path d="M1143,129 L1143,135 A4,4 0 0 0 1147,139 L1153,139 L1143,129" fill="#FFF7D6" style="stroke:#B45309;stroke-width:0.5;"/><text fill="#334155" font-family="Helvetica" font-size="14" lengthAdjust="spacing" textLength="111.2891" x="729.2859" y="144.7803">shared resolution:</text><text fill="#334155" font-family="Helvetica" font-size="14" lengthAdjust="spacing" textLength="307.3916" x="729.2859" y="158.7803">shared/diagrams/shared-resolution-sequence.svg</text><text fill="#334155" font-family="Helvetica" font-size="14" lengthAdjust="spacing" textLength="88.7305" x="729.2859" y="172.7803">shared delete:</text><text fill="#334155" font-family="Helvetica" font-size="14" lengthAdjust="spacing" textLength="284.833" x="729.2859" y="186.7803">shared/diagrams/shared-delete-sequence.svg</text><g class="message" data-entity-1="part1" data-entity-2="part2" id="msg1"><polygon fill="#0F172A" points="435.5464,244,445.5464,248,435.5464,252,439.5464,248" style="stroke:#0F172A;stroke-width:1;"/><line style="stroke:#0F172A;stroke-width:1;" x1="43.8032" x2="441.5464" y1="248" y2="248"/><text fill="#000000" font-family="Helvetica" font-size="14" lengthAdjust="spacing" textLength="54.5029" x="50.8032" y="214.7803">enqueue</text><text fill="#000000" font-family="Helvetica" font-size="14" lengthAdjust="spacing" textLength="379.7432" x="50.8032" y="228.7803">CapacityManagementOccmDemandSignalCatalogResources</text><text fill="#000000" font-family="Helvetica" font-size="14" lengthAdjust="spacing" textLength="56.0273" x="50.8032" y="242.7803">reconcile</text></g><g class="message" data-entity-1="part2" data-entity-2="part3" id="msg2"><polygon fill="#0F172A" points="674.3726,272,684.3726,276,674.3726,280,678.3726,276" style="stroke:#0F172A;stroke-width:1;"/><line style="stroke:#0F172A;stroke-width:1;" x1="447.5464" x2="680.3726" y1="276" y2="276"/><text fill="#000000" font-family="Helvetica" font-size="14" lengthAdjust="spacing" textLength="117.4961" x="454.5464" y="270.7803">Reconcile(request)</text></g><g class="message" data-entity-1="part3" data-entity-2="part4" id="msg3"><polygon fill="#0F172A" points="1078.1157,314,1088.1157,318,1078.1157,322,1082.1157,318" style="stroke:#0F172A;stroke-width:1;"/><line style="stroke:#0F172A;stroke-width:1;" x1="686.3726" x2="1084.1157" y1="318" y2="318"/><text fill="#000000" font-family="Helvetica" font-size="14" lengthAdjust="spacing" textLength="105.834" x="693.3726" y="298.7803">reconcile desired</text><text fill="#000000" font-family="Helvetica" font-size="14" lengthAdjust="spacing" textLength="379.7432" x="693.3726" y="312.7803">CapacityManagementOccmDemandSignalCatalogResources</text></g><path d="M628.3486,356 L681.6865,356 L681.6865,362 L671.6865,372 L620.3486,372 L620.3486,364 A8,8 0 0 1 628.3486,356" fill="#F8FAFC" style="stroke:#CBD5E1;stroke-width:1.5;"/><rect fill="none" height="290" rx="8" ry="8" style="stroke:#CBD5E1;stroke-width:1.5;" width="986.7412" x="620.3486" y="356"/><text fill="#000000" font-family="Helvetica" font-size="14" font-weight="bold" lengthAdjust="spacing" textLength="16.3379" x="635.3486" y="367.7803">alt</text><text fill="#000000" font-family="Helvetica" font-size="14" font-weight="bold" lengthAdjust="spacing" textLength="308.1094" x="696.6865" y="368.7803">[tracked or explicit OCI identity already exists]</text><g class="message" data-entity-1="part4" data-entity-2="part5" id="msg4"><polygon fill="#0F172A" points="1545.645,388,1555.645,392,1545.645,396,1549.645,392" style="stroke:#0F172A;stroke-width:1;"/><line style="stroke:#0F172A;stroke-width:1;" x1="1090.1157" x2="1551.645" y1="392" y2="392"/><text fill="#000000" font-family="Helvetica" font-size="14" lengthAdjust="spacing" textLength="402.3086" x="1097.1157" y="386.7803">GetCapacityManagementOccmDemandSignalCatalogResources</text></g><line style="stroke:#CBD5E1;stroke-width:1;stroke-dasharray:2,2;" x1="620.3486" x2="1607.0898" y1="401" y2="401"/><text fill="#000000" font-family="Helvetica" font-size="14" font-weight="bold" lengthAdjust="spacing" textLength="185.1582" x="625.3486" y="411.7803">[tracked identity is missing]</text><g class="message" data-entity-1="part4" data-entity-2="part5" id="msg5"><polygon fill="#0F172A" points="1545.645,446,1555.645,450,1545.645,454,1549.645,450" style="stroke:#0F172A;stroke-width:1;"/><line style="stroke:#0F172A;stroke-width:1;" x1="1090.1157" x2="1551.645" y1="450" y2="450"/><text fill="#000000" font-family="Helvetica" font-size="14" lengthAdjust="spacing" textLength="443.5293" x="1097.1157" y="430.7803">ListCapacityManagementOccmDemandSignalCatalogResources(filters:</text><text fill="#000000" font-family="Helvetica" font-size="14" lengthAdjust="spacing" textLength="143.1719" x="1097.1157" y="444.7803">compartment_id, state)</text></g><path d="M999.9194,465 L1053.2573,465 L1053.2573,471 L1043.2573,481 L991.9194,481 L991.9194,473 A8,8 0 0 1 999.9194,465" fill="#F8FAFC" style="stroke:#CBD5E1;stroke-width:1.5;"/><rect fill="none" height="146" rx="8" ry="8" style="stroke:#CBD5E1;stroke-width:1.5;" width="605.1704" x="991.9194" y="465"/><text fill="#000000" font-family="Helvetica" font-size="14" font-weight="bold" lengthAdjust="spacing" textLength="16.3379" x="1006.9194" y="476.7803">alt</text><text fill="#000000" font-family="Helvetica" font-size="14" font-weight="bold" lengthAdjust="spacing" textLength="242.7031" x="1068.2573" y="477.7803">[reusable OCI resource is not found]</text><g class="message" data-entity-1="part4" data-entity-2="part5" id="msg6"><polygon fill="#0F172A" points="1545.645,497,1555.645,501,1545.645,505,1549.645,501" style="stroke:#0F172A;stroke-width:1;"/><line style="stroke:#0F172A;stroke-width:1;" x1="1090.1157" x2="1551.645" y1="501" y2="501"/><text fill="#000000" font-family="Helvetica" font-size="14" lengthAdjust="spacing" textLength="421.7637" x="1097.1157" y="495.7803">CreateCapacityManagementOccmDemandSignalCatalogResources</text></g><path d="M1009.9194,516 L1076.4644,516 L1076.4644,522 L1066.4644,532 L1001.9194,532 L1001.9194,524 A8,8 0 0 1 1009.9194,516" fill="#F8FAFC" style="stroke:#CBD5E1;stroke-width:1.5;"/><rect fill="none" height="44" rx="8" ry="8" style="stroke:#CBD5E1;stroke-width:1.5;" width="585.1704" x="1001.9194" y="516"/><text fill="#000000" font-family="Helvetica" font-size="14" font-weight="bold" lengthAdjust="spacing" textLength="29.5449" x="1016.9194" y="527.7803">loop</text><text fill="#000000" font-family="Helvetica" font-size="14" font-weight="bold" lengthAdjust="spacing" textLength="215.4756" x="1091.4644" y="528.7803">[create pending PROVISIONING]</text><g class="message" data-entity-1="part4" data-entity-2="part5" id="msg7"><polygon fill="#0F172A" points="1545.645,548,1555.645,552,1545.645,556,1549.645,552" style="stroke:#0F172A;stroke-width:1;"/><line style="stroke:#0F172A;stroke-width:1;" x1="1090.1157" x2="1551.645" y1="552" y2="552"/><text fill="#000000" font-family="Helvetica" font-size="14" lengthAdjust="spacing" textLength="402.3086" x="1097.1157" y="546.7803">GetCapacityManagementOccmDemandSignalCatalogResources</text></g><line style="stroke:#CBD5E1;stroke-width:1;stroke-dasharray:2,2;" x1="991.9194" x2="1597.0898" y1="568" y2="568"/><text fill="#000000" font-family="Helvetica" font-size="14" font-weight="bold" lengthAdjust="spacing" textLength="255.2334" x="996.9194" y="578.7803">[reusable OCI resource already exists]</text><g class="message" data-entity-1="part4" data-entity-2="part5" id="msg8"><polygon fill="#0F172A" points="1545.645,599,1555.645,603,1545.645,607,1549.645,603" style="stroke:#0F172A;stroke-width:1;"/><line style="stroke:#0F172A;stroke-width:1;" x1="1090.1157" x2="1551.645" y1="603" y2="603"/><text fill="#000000" font-family="Helvetica" font-size="14" lengthAdjust="spacing" textLength="402.3086" x="1097.1157" y="597.7803">GetCapacityManagementOccmDemandSignalCatalogResources</text></g><g class="message" data-entity-1="part4" data-entity-2="part3" id="msg9"><polygon fill="#0F172A" points="697.3726,634,687.3726,638,697.3726,642,693.3726,638" style="stroke:#0F172A;stroke-width:1;"/><line style="stroke:#0F172A;stroke-width:1;stroke-dasharray:2,2;" x1="691.3726" x2="1089.1157" y1="638" y2="638"/><text fill="#000000" font-family="Helvetica" font-size="14" lengthAdjust="spacing" textLength="231.0957" x="703.3726" y="632.7803">persist resolved OCI identity in status</text></g><path d="M608.3486,660 L661.6865,660 L661.6865,666 L651.6865,676 L600.3486,676 L600.3486,668 A8,8 0 0 1 608.3486,660" fill="#F8FAFC" style="stroke:#CBD5E1;stroke-width:1.5;"/><rect fill="none" height="868" rx="8" ry="8" style="stroke:#CBD5E1;stroke-width:1.5;" width="1022.8218" x="600.3486" y="660"/><text fill="#000000" font-family="Helvetica" font-size="14" font-weight="bold" lengthAdjust="spacing" textLength="16.3379" x="615.3486" y="671.7803">alt</text><text fill="#000000" font-family="Helvetica" font-size="14" font-weight="bold" lengthAdjust="spacing" textLength="120.5859" x="676.6865" y="672.7803">[delete requested]</text><path d="M618.3486,683 L697.3691,683 L697.3691,689 L687.3691,699 L610.3486,699 L610.3486,691 A8,8 0 0 1 618.3486,683" fill="#F8FAFC" style="stroke:#CBD5E1;stroke-width:1.5;"/><rect fill="none" height="302" rx="8" ry="8" style="stroke:#CBD5E1;stroke-width:1.5;" width="986.7412" x="610.3486" y="683"/><text fill="#000000" font-family="Helvetica" font-size="14" font-weight="bold" lengthAdjust="spacing" textLength="42.0205" x="625.3486" y="694.7803">Delete</text><g class="message" data-entity-1="part4" data-entity-2="part5" id="msg10"><polygon fill="#0F172A" points="1545.645,715,1555.645,719,1545.645,723,1549.645,719" style="stroke:#0F172A;stroke-width:1;"/><line style="stroke:#0F172A;stroke-width:1;" x1="1090.1157" x2="1551.645" y1="719" y2="719"/><text fill="#000000" font-family="Helvetica" font-size="14" lengthAdjust="spacing" textLength="420.2119" x="1097.1157" y="713.7803">DeleteCapacityManagementOccmDemandSignalCatalogResources</text></g><g class="message" data-entity-1="part4" data-entity-2="part5" id="msg11"><polygon fill="#0F172A" points="1545.645,785,1555.645,789,1545.645,793,1549.645,789" style="stroke:#0F172A;stroke-width:1;"/><line style="stroke:#0F172A;stroke-width:1;" x1="1090.1157" x2="1551.645" y1="789" y2="789"/><text fill="#000000" font-family="Helvetica" font-size="14" lengthAdjust="spacing" textLength="109.7168" x="1097.1157" y="741.7803">confirm delete via</text><text fill="#000000" font-family="Helvetica" font-size="14" lengthAdjust="spacing" textLength="402.3086" x="1097.1157" y="755.7803">GetCapacityManagementOccmDemandSignalCatalogResources</text><text fill="#000000" font-family="Helvetica" font-size="14" lengthAdjust="spacing" textLength="12.4482" x="1097.1157" y="769.7803">or</text><text fill="#000000" font-family="Helvetica" font-size="14" lengthAdjust="spacing" textLength="401.5293" x="1097.1157" y="783.7803">ListCapacityManagementOccmDemandSignalCatalogResources</text></g><path d="M1009.9194,804 L1076.4644,804 L1076.4644,810 L1066.4644,820 L1001.9194,820 L1001.9194,812 A8,8 0 0 1 1009.9194,804" fill="#F8FAFC" style="stroke:#CBD5E1;stroke-width:1.5;"/><rect fill="none" height="72" rx="8" ry="8" style="stroke:#CBD5E1;stroke-width:1.5;" width="585.1704" x="1001.9194" y="804"/><text fill="#000000" font-family="Helvetica" font-size="14" font-weight="bold" lengthAdjust="spacing" textLength="29.5449" x="1016.9194" y="815.7803">loop</text><text fill="#000000" font-family="Helvetica" font-size="14" font-weight="bold" lengthAdjust="spacing" textLength="182.7793" x="1091.4644" y="816.7803">[delete pending DELETING]</text><g class="message" data-entity-1="part4" data-entity-2="part5" id="msg12"><polygon fill="#0F172A" points="1545.645,864,1555.645,868,1545.645,872,1549.645,868" style="stroke:#0F172A;stroke-width:1;"/><line style="stroke:#0F172A;stroke-width:1;" x1="1090.1157" x2="1551.645" y1="868" y2="868"/><text fill="#000000" font-family="Helvetica" font-size="14" lengthAdjust="spacing" textLength="402.3086" x="1097.1157" y="834.7803">GetCapacityManagementOccmDemandSignalCatalogResources</text><text fill="#000000" font-family="Helvetica" font-size="14" lengthAdjust="spacing" textLength="12.4482" x="1097.1157" y="848.7803">or</text><text fill="#000000" font-family="Helvetica" font-size="14" lengthAdjust="spacing" textLength="401.5293" x="1097.1157" y="862.7803">ListCapacityManagementOccmDemandSignalCatalogResources</text></g><path d="M628.3486,890 L681.6865,890 L681.6865,896 L671.6865,906 L620.3486,906 L620.3486,898 A8,8 0 0 1 628.3486,890" fill="#F8FAFC" style="stroke:#CBD5E1;stroke-width:1.5;"/><rect fill="none" height="88" rx="8" ry="8" style="stroke:#CBD5E1;stroke-width:1.5;" width="557.9634" x="620.3486" y="890"/><text fill="#000000" font-family="Helvetica" font-size="14" font-weight="bold" lengthAdjust="spacing" textLength="16.3379" x="635.3486" y="901.7803">alt</text><text fill="#000000" font-family="Helvetica" font-size="14" font-weight="bold" lengthAdjust="spacing" textLength="261.4268" x="696.6865" y="902.7803">[cleanup or finalizer release is blocked]</text><g class="message" data-entity-1="part4" data-entity-2="part3" id="msg13"><polygon fill="#0F172A" points="697.3726,922,687.3726,926,697.3726,930,693.3726,926" style="stroke:#0F172A;stroke-width:1;"/><line style="stroke:#0F172A;stroke-width:1;stroke-dasharray:2,2;" x1="691.3726" x2="1089.1157" y1="926" y2="926"/><text fill="#000000" font-family="Helvetica" font-size="14" lengthAdjust="spacing" textLength="170.4336" x="703.3726" y="920.7803">retain delete state and retry</text></g><line style="stroke:#CBD5E1;stroke-width:1;stroke-dasharray:2,2;" x1="620.3486" x2="1178.312" y1="935" y2="935"/><text fill="#000000" font-family="Helvetica" font-size="14" font-weight="bold" lengthAdjust="spacing" textLength="194.4824" x="625.3486" y="945.7803">[delete completion observed]</text><g class="message" data-entity-1="part4" data-entity-2="part3" id="msg14"><polygon fill="#0F172A" points="697.3726,966,687.3726,970,697.3726,974,693.3726,970" style="stroke:#0F172A;stroke-width:1;"/><line style="stroke:#0F172A;stroke-width:1;stroke-dasharray:2,2;" x1="691.3726" x2="1089.1157" y1="970" y2="970"/><text fill="#000000" font-family="Helvetica" font-size="14" lengthAdjust="spacing" textLength="243.5781" x="703.3726" y="964.7803">release finalizer after delete completion</text></g><line style="stroke:#CBD5E1;stroke-width:1;stroke-dasharray:2,2;" x1="600.3486" x2="1623.1704" y1="993" y2="993"/><text fill="#000000" font-family="Helvetica" font-size="14" font-weight="bold" lengthAdjust="spacing" textLength="149.3857" x="605.3486" y="1003.7803">[OCI state is retryable]</text><g class="message" data-entity-1="part4" data-entity-2="part3" id="msg15"><polygon fill="#0F172A" points="697.3726,1038,687.3726,1042,697.3726,1046,693.3726,1042" style="stroke:#0F172A;stroke-width:1;"/><line style="stroke:#0F172A;stroke-width:1;stroke-dasharray:2,2;" x1="691.3726" x2="1089.1157" y1="1042" y2="1042"/><text fill="#000000" font-family="Helvetica" font-size="14" lengthAdjust="spacing" textLength="184.4199" x="703.3726" y="1022.7803">requeue while OCI remains in</text><text fill="#000000" font-family="Helvetica" font-size="14" lengthAdjust="spacing" textLength="260.5928" x="703.3726" y="1036.7803">PROVISIONING, UPDATING, DELETING</text></g><line style="stroke:#CBD5E1;stroke-width:1;stroke-dasharray:2,2;" x1="600.3486" x2="1623.1704" y1="1051" y2="1051"/><text fill="#000000" font-family="Helvetica" font-size="14" font-weight="bold" lengthAdjust="spacing" textLength="200.751" x="605.3486" y="1061.7803">[live state requires field-aware</text><text fill="#000000" font-family="Helvetica" font-size="14" font-weight="bold" lengthAdjust="spacing" textLength="105.0068" x="605.3486" y="1075.7803">drift evaluation]</text><path d="M618.3486,1087 L746.335,1087 L746.335,1093 L736.335,1103 L610.3486,1103 L610.3486,1095 A8,8 0 0 1 618.3486,1087" fill="#F8FAFC" style="stroke:#CBD5E1;stroke-width:1.5;"/><rect fill="none" height="392" rx="8" ry="8" style="stroke:#CBD5E1;stroke-width:1.5;" width="1002.8218" x="610.3486" y="1087"/><text fill="#000000" font-family="Helvetica" font-size="14" font-weight="bold" lengthAdjust="spacing" textLength="90.9863" x="625.3486" y="1098.7803">Drift handling</text><path d="M1043,1116 L1043,1166 A8,8 0 0 0 1051,1174 L1595,1174 A8,8 0 0 0 1603,1166 L1603,1118 L1593,1108 L1051,1108 A8,8 0 0 0 1043,1116" fill="#FFF7D6" style="stroke:#B45309;stroke-width:0.5;"/><path d="M1593,1108 L1593,1114 A4,4 0 0 0 1597,1118 L1603,1118 L1593,1108" fill="#FFF7D6" style="stroke:#B45309;stroke-width:0.5;"/><text fill="#334155" font-family="Helvetica" font-size="14" lengthAdjust="spacing" textLength="255.2813" x="1190.9446" y="1123.7803">Supported update surface: display_name</text><text fill="#334155" font-family="Helvetica" font-size="14" lengthAdjust="spacing" textLength="235.7783" x="1190.9446" y="1137.7803">Reject before mutate: force-new fields</text><text fill="#334155" font-family="Helvetica" font-size="14" lengthAdjust="spacing" textLength="100.3789" x="1190.9446" y="1151.7803">compartment_id</text><text fill="#334155" font-family="Helvetica" font-size="14" lengthAdjust="spacing" textLength="229.5576" x="1190.9446" y="1165.7803">Lookup filters: compartment_id, state</text><path d="M628.3486,1186 L687.1143,1186 L687.1143,1192 L677.1143,1202 L620.3486,1202 L620.3486,1194 A8,8 0 0 1 628.3486,1186" fill="#F8FAFC" style="stroke:#CBD5E1;stroke-width:1.5;"/><rect fill="none" height="44" rx="8" ry="8" style="stroke:#CBD5E1;stroke-width:1.5;" width="557.9634" x="620.3486" y="1186"/><text fill="#000000" font-family="Helvetica" font-size="14" font-weight="bold" lengthAdjust="spacing" textLength="21.7656" x="635.3486" y="1197.7803">opt</text><text fill="#000000" font-family="Helvetica" font-size="14" font-weight="bold" lengthAdjust="spacing" textLength="276.1309" x="702.1143" y="1198.7803">[force-new or conflicting drift is detected]</text><g class="message" data-entity-1="part4" data-entity-2="part3" id="msg16"><polygon fill="#0F172A" points="697.3726,1218,687.3726,1222,697.3726,1226,693.3726,1222" style="stroke:#0F172A;stroke-width:1;"/><line style="stroke:#0F172A;stroke-width:1;stroke-dasharray:2,2;" x1="691.3726" x2="1089.1157" y1="1222" y2="1222"/><text fill="#000000" font-family="Helvetica" font-size="14" lengthAdjust="spacing" textLength="164.1855" x="703.3726" y="1216.7803">reject before OCI mutation</text></g><path d="M999.9194,1244 L1058.6851,1244 L1058.6851,1250 L1048.6851,1260 L991.9194,1260 L991.9194,1252 A8,8 0 0 1 999.9194,1244" fill="#F8FAFC" style="stroke:#CBD5E1;stroke-width:1.5;"/><rect fill="none" height="130" rx="8" ry="8" style="stroke:#CBD5E1;stroke-width:1.5;" width="605.1704" x="991.9194" y="1244"/><text fill="#000000" font-family="Helvetica" font-size="14" font-weight="bold" lengthAdjust="spacing" textLength="21.7656" x="1006.9194" y="1255.7803">opt</text><text fill="#000000" font-family="Helvetica" font-size="14" font-weight="bold" lengthAdjust="spacing" textLength="243.4619" x="1073.6851" y="1256.7803">[supported mutable drift is detected]</text><g class="message" data-entity-1="part4" data-entity-2="part5" id="msg17"><polygon fill="#0F172A" points="1545.645,1304,1555.645,1308,1545.645,1312,1549.645,1308" style="stroke:#0F172A;stroke-width:1;"/><line style="stroke:#0F172A;stroke-width:1;" x1="1090.1157" x2="1551.645" y1="1308" y2="1308"/><text fill="#000000" font-family="Helvetica" font-size="14" lengthAdjust="spacing" textLength="35.0205" x="1097.1157" y="1274.7803">Apply</text><text fill="#000000" font-family="Helvetica" font-size="14" lengthAdjust="spacing" textLength="424.8877" x="1097.1157" y="1288.7803">UpdateCapacityManagementOccmDemandSignalCatalogResources</text><text fill="#000000" font-family="Helvetica" font-size="14" lengthAdjust="spacing" textLength="226.4541" x="1097.1157" y="1302.7803">only for mutable fields display_name</text></g><path d="M1009.9194,1323 L1076.4644,1323 L1076.4644,1329 L1066.4644,1339 L1001.9194,1339 L1001.9194,1331 A8,8 0 0 1 1009.9194,1323" fill="#F8FAFC" style="stroke:#CBD5E1;stroke-width:1.5;"/><rect fill="none" height="44" rx="8" ry="8" style="stroke:#CBD5E1;stroke-width:1.5;" width="585.1704" x="1001.9194" y="1323"/><text fill="#000000" font-family="Helvetica" font-size="14" font-weight="bold" lengthAdjust="spacing" textLength="29.5449" x="1016.9194" y="1334.7803">loop</text><text fill="#000000" font-family="Helvetica" font-size="14" font-weight="bold" lengthAdjust="spacing" textLength="190.5381" x="1091.4644" y="1335.7803">[update pending UPDATING]</text><g class="message" data-entity-1="part4" data-entity-2="part5" id="msg18"><polygon fill="#0F172A" points="1545.645,1355,1555.645,1359,1545.645,1363,1549.645,1359" style="stroke:#0F172A;stroke-width:1;"/><line style="stroke:#0F172A;stroke-width:1;" x1="1090.1157" x2="1551.645" y1="1359" y2="1359"/><text fill="#000000" font-family="Helvetica" font-size="14" lengthAdjust="spacing" textLength="402.3086" x="1097.1157" y="1353.7803">GetCapacityManagementOccmDemandSignalCatalogResources</text></g><g class="message" data-entity-1="part4" data-entity-2="part5" id="msg19"><polygon fill="#0F172A" points="1545.645,1467,1555.645,1471,1545.645,1475,1549.645,1471" style="stroke:#0F172A;stroke-width:1;"/><line style="stroke:#0F172A;stroke-width:1;" x1="1090.1157" x2="1551.645" y1="1471" y2="1471"/><text fill="#000000" font-family="Helvetica" font-size="14" lengthAdjust="spacing" textLength="104.2891" x="1097.1157" y="1395.7803">run helper hooks</text><text fill="#000000" font-family="Helvetica" font-size="14" lengthAdjust="spacing" textLength="219.0508" x="1097.1157" y="1409.7803">create=tfresource.CreateResource,</text><text fill="#000000" font-family="Helvetica" font-size="14" lengthAdjust="spacing" textLength="314.3164" x="1097.1157" y="1423.7803">tfresource.WaitForWorkRequestWithErrorHandling</text><text fill="#000000" font-family="Helvetica" font-size="14" lengthAdjust="spacing" textLength="215.5439" x="1097.1157" y="1437.7803">entity=template action=CREATED;</text><text fill="#000000" font-family="Helvetica" font-size="14" lengthAdjust="spacing" textLength="226.085" x="1097.1157" y="1451.7803">update=tfresource.UpdateResource;</text><text fill="#000000" font-family="Helvetica" font-size="14" lengthAdjust="spacing" textLength="212.8438" x="1097.1157" y="1465.7803">delete=tfresource.DeleteResource</text></g><g class="message" data-entity-1="part4" data-entity-2="part3" id="msg20"><polygon fill="#0F172A" points="697.3726,1516,687.3726,1520,697.3726,1524,693.3726,1520" style="stroke:#0F172A;stroke-width:1;"/><line style="stroke:#0F172A;stroke-width:1;stroke-dasharray:2,2;" x1="691.3726" x2="1089.1157" y1="1520" y2="1520"/><text fill="#000000" font-family="Helvetica" font-size="14" lengthAdjust="spacing" textLength="100.7822" x="703.3726" y="1500.7803">status=required,</text><text fill="#000000" font-family="Helvetica" font-size="14" lengthAdjust="spacing" textLength="230.7197" x="703.3726" y="1514.7803">finalizer=retain-until-confirmed-delete</text></g><g class="message" data-entity-1="part3" data-entity-2="part2" id="msg21"><polygon fill="#0F172A" points="458.5464,1565,448.5464,1569,458.5464,1573,454.5464,1569" style="stroke:#0F172A;stroke-width:1;"/><line style="stroke:#0F172A;stroke-width:1;stroke-dasharray:2,2;" x1="452.5464" x2="685.3726" y1="1569" y2="1569"/><text fill="#000000" font-family="Helvetica" font-size="14" lengthAdjust="spacing" textLength="214.8262" x="464.5464" y="1549.7803">requeue on provisioning, updating,</text><text fill="#000000" font-family="Helvetica" font-size="14" lengthAdjust="spacing" textLength="69.2549" x="464.5464" y="1563.7803">terminating</text></g><path d="M1095,1590 L1095,2088 A8,8 0 0 0 1103,2096 L1665,2096 A8,8 0 0 0 1673,2088 L1673,1592 L1663,1582 L1103,1582 A8,8 0 0 0 1095,1590" fill="#FFF7D6" style="stroke:#B45309;stroke-width:0.5;"/><path d="M1663,1582 L1663,1588 A4,4 0 0 0 1667,1592 L1673,1592 L1663,1582" fill="#FFF7D6" style="stroke:#B45309;stroke-width:0.5;"/><text fill="#334155" font-family="Helvetica" font-size="14" lengthAdjust="spacing" textLength="101.165" x="1101" y="1597.7803">shared diagram:</text><text fill="#334155" font-family="Helvetica" font-size="14" lengthAdjust="spacing" textLength="307.3916" x="1101" y="1611.7803">shared/diagrams/shared-resolution-sequence.svg</text><text fill="#334155" font-family="Helvetica" font-size="14" lengthAdjust="spacing" textLength="143.1992" x="1101" y="1625.7803">shared delete diagram:</text><text fill="#334155" font-family="Helvetica" font-size="14" lengthAdjust="spacing" textLength="284.833" x="1101" y="1639.7803">shared/diagrams/shared-delete-sequence.svg</text><text fill="#334155" font-family="Helvetica" font-size="14" lengthAdjust="spacing" textLength="280.9297" x="1101" y="1653.7803">Start from the shared resolution sequence for</text><text fill="#334155" font-family="Helvetica" font-size="14" lengthAdjust="spacing" textLength="260.7295" x="1101" y="1667.7803">OCID binding, datasource pagination, and</text><text fill="#334155" font-family="Helvetica" font-size="14" lengthAdjust="spacing" textLength="163.4268" x="1101" y="1681.7803">create-or-update dispatch.</text><text fill="#334155" font-family="Helvetica" font-size="14" lengthAdjust="spacing" textLength="301.1982" x="1101" y="1695.7803">Layer the shared delete sequence when finalizer</text><text fill="#334155" font-family="Helvetica" font-size="14" lengthAdjust="spacing" textLength="269.2471" x="1101" y="1709.7803">retention, delete confirmation, work-request</text><text fill="#334155" font-family="Helvetica" font-size="14" lengthAdjust="spacing" textLength="199.2334" x="1101" y="1723.7803">polling, or Secret cleanup apply.</text><text fill="#334155" font-family="Helvetica" font-size="14" lengthAdjust="spacing" textLength="281.709" x="1101" y="1737.7803">archetype batch: Generated service-manager</text><text fill="#334155" font-family="Helvetica" font-size="14" lengthAdjust="spacing" textLength="266.1504" x="1101" y="1751.7803">controllers follow the shared resolution and</text><text fill="#334155" font-family="Helvetica" font-size="14" lengthAdjust="spacing" textLength="259.9297" x="1101" y="1765.7803">delete sequences with imported waits and</text><text fill="#334155" font-family="Helvetica" font-size="14" lengthAdjust="spacing" textLength="134.6064" x="1101" y="1779.7803">controller-local policy.</text><text fill="#334155" font-family="Helvetica" font-size="14" lengthAdjust="spacing" textLength="185.1992" x="1101" y="1793.7803">service: capacitymanagement</text><text fill="#334155" font-family="Helvetica" font-size="14" lengthAdjust="spacing" textLength="29.5723" x="1101" y="1807.7803">slug:</text><text fill="#334155" font-family="Helvetica" font-size="14" lengthAdjust="spacing" textLength="360.3086" x="1101" y="1821.7803">capacitymanagementoccmdemandsignalcatalogresources</text><text fill="#334155" font-family="Helvetica" font-size="14" lengthAdjust="spacing" textLength="29.5723" x="1101" y="1835.7803">kind:</text><text fill="#334155" font-family="Helvetica" font-size="14" lengthAdjust="spacing" textLength="379.7432" x="1101" y="1849.7803">CapacityManagementOccmDemandSignalCatalogResources</text><text fill="#334155" font-family="Helvetica" font-size="14" lengthAdjust="spacing" textLength="241.2402" x="1101" y="1863.7803">archetype: generated-service-manager</text><text fill="#334155" font-family="Helvetica" font-size="14" lengthAdjust="spacing" textLength="156.4063" x="1101" y="1877.7803">status/finalizer: required /</text><text fill="#334155" font-family="Helvetica" font-size="14" lengthAdjust="spacing" textLength="174.3027" x="1101" y="1891.7803">retain-until-confirmed-delete</text><text fill="#334155" font-family="Helvetica" font-size="14" lengthAdjust="spacing" textLength="272.3984" x="1101" y="1905.7803">requeue: provisioning, updating, terminating</text><text fill="#334155" font-family="Helvetica" font-size="14" lengthAdjust="spacing" textLength="295.6816" x="1101" y="1919.7803">provider states: create PROVISIONING; update</text><text fill="#334155" font-family="Helvetica" font-size="14" lengthAdjust="spacing" textLength="192.165" x="1101" y="1933.7803">UPDATING; delete DELETING</text><text fill="#334155" font-family="Helvetica" font-size="14" lengthAdjust="spacing" textLength="183.6611" x="1101" y="1947.7803">supported drift: display_name</text><text fill="#334155" font-family="Helvetica" font-size="14" lengthAdjust="spacing" textLength="230.3301" x="1101" y="1961.7803">reject before mutate: force-new fields</text><text fill="#334155" font-family="Helvetica" font-size="14" lengthAdjust="spacing" textLength="100.3789" x="1101" y="1975.7803">compartment_id</text><text fill="#334155" font-family="Helvetica" font-size="14" lengthAdjust="spacing" textLength="66.1445" x="1101" y="1989.7803">list lookup:</text><text fill="#334155" font-family="Helvetica" font-size="14" lengthAdjust="spacing" textLength="557.2041" x="1101" y="2003.7803">scaffold_capacitymanagement_capacitymanagementoccmdemandsignalcatalogresources</text><text fill="#334155" font-family="Helvetica" font-size="14" lengthAdjust="spacing" textLength="175.8477" x="1101" y="2017.7803">filters compartment_id, state</text><text fill="#334155" font-family="Helvetica" font-size="14" lengthAdjust="spacing" textLength="89.4961" x="1101" y="2031.7803">conflicts: none</text><text fill="#334155" font-family="Helvetica" font-size="14" lengthAdjust="spacing" textLength="104.3164" x="1101" y="2045.7803">open gaps: none</text><text fill="#334155" font-family="Helvetica" font-size="14" lengthAdjust="spacing" textLength="224.9023" x="1101" y="2059.7803">Scaffold metadata only; replace with</text><text fill="#334155" font-family="Helvetica" font-size="14" lengthAdjust="spacing" textLength="244.3232" x="1101" y="2073.7803">controller-specific runtime states before</text><text fill="#334155" font-family="Helvetica" font-size="14" lengthAdjust="spacing" textLength="66.1445" x="1101" y="2087.7803">promotion.</text><?plantuml-src jLTRRzis57xNhpZeNbeWJfgcLmSPq2PPMpHhYhXTNmm4D7LaSw58ZQJiUiF--mulaYN7NbEtHHuYY-IvVzz7sHkXAcPO2NR6ShqGQWe5anOpswvC6B-P6bsh_5HBRU2NWjDVtjcHOy5gwNxJohrd9S8Rb7DqWhFDUqRYRuJ3nvr5PenU9EiFYyDdZxedbNRuwbOCHV4iVxg-IviSJTenUVpawE6BjHtUVLe_Edfy-EH9PpsOvzeeD73uD7F2IOGH_bMZuWW3uAnYNBXboHIROedA7PocLx-thouvBy-GjkGZCLLCdZB7f9vUeTMruMYpcSWH2gtTH7_fEBUDdtyo0CQTDhraKb6QfVLgu2DyNZoaPJ96THSLKsxp-Uw6krZf5Aor8KM15qBro_tYCJkQFATLRxBgBV59_WGFswLRhNnUi89d_sOXDtXNJv1wuAXMdJZWb08nMaeqlTUlcCKhv5fniRvqxt9q-Mw4PYuunWQPUy0iz5_rZboUlityc82Uqn3qRU-jdIF06Cp1K6TbxOHMm_Jg81TiIZsr1_7tOBLbqBHvtywdZOKS9MMxzNHSxfz4bOTnpbR5Wi6ldHeD0HNjht6ildr6nyeqMMShazv1lo93Q9_l6n-UTG-o_XP_g5-t8RJ6ANChACLTOip2BC65rZVqZxR1HAWyOzA1CpHXL5UQ9VnIIUfjQ2mGy1I1UWbC6cJvabQ5TJRhn-SZfjr3U8rkXx2GkBEDeFKeB9J2McBNRTukA9HlTtU_4DAXiSEnuhhqa-nFNOjy3wnZ3X-4WXYiBPjGlNqLJ3hhOw8H8YeY96wBwfGAvN27CaYjA-3XD5GqhLvNFbnT_l5szFRo_TlthtzmqIc3KFZDcVxKVcyetWQWLDGaSXxPOawZqHj8eKAxwcZEjoo27XAgC4_ZVXPURyiWhkwGn1Px57uXJDa4CnTih7QgqbXfCrQxZNWSfHH2CqfdvnVd7t_q67rNb4tZk4Icg5D4FeMWZNJLCTH6Uci3v2PIUsguoymOT8mc8wKUy1o8ZjwRPPptjEQnJmyaCA0dbYpVrK4CQnKeAuXDRbkD06j0vaStHaFvX60yvExcC6WIB6QYnMX9ELf2m5Xr-M4FFdquU_anFBND3jwbc3V5yEP8FombW38Vi0NfvLZbHXGESCvapKBm2JhXzOmAA3qDhrI-7_UUlmACwghIXc07TPLxJxOs1UCuX5pOIhBbjQ9hRdQ5Vo9tCC526uIoza4DYL1f80OA5p4ic_MPEKkIrJ0tR2JkbSBhodLCqbXvL9AeEO-3c2kr8QU6SNVNjdV3zbq8eJTzzWvjMm2_v0drwvuIz5vMbLoErQTGk9r0gEJIPzowZcNibpwGGcfEGmhDnFm4RTckaAPMC4D9_0upQYp57rNln1MD_kn75MrCxerLP-qp4tJ7Df-rkRcAPFzPkDavVG-PDsbMnohAn8b30cHW0UwxTN9wTVxou_dPyLZ5IdHznletFcbB17LtIvIBPijTbImArKd2NaxPjFHn4XbhK5EuSf3Kext11WVhjyErIsj344HabT5pOIbDgi1URBL_ekAXAScZQr5in7JcG1Um-OAUxjFVTpl_gfLDj_IH8rn3ONG9RePmwuDXzT57uvxHE9s5Isn8cD9bwVfIiMd8Lwizp_zP7B21DeC408yCvlXiFxjWIwfgnraZ7esZnGpLYkypQfYVBM-v9VtGjUHkGMCvI9UGhA8cXTYq9qsAOgLsp8D-FsE6pz0jAuI9ZyT3ZZwccUSH6tipA5DpUDjrec_whnTRQkGpNil2me8m0g9C7BKW3DbOcjRgW7IMIQ2O1QV8allXXe_upCfwEinkBsYYXZnGWmtKm2Crc9OQwECz7sOxS4fRfo5CcmeDrYiKWNRGDclOw5qE1zd_8ot1QBWDHD35KDX37-jHUBmWnMjxLuwF4zTc3SSUD_FIYlDACe9Kh4cbsKagfRyoow2N13pE2fgK_FfsfwvtQ5xItotosuWibOC4oQimuMRAgkRtA0K39JN2OnMyR1rJYoXdZpCQqEuqsWgvA0JtUk54cMumDXN4zw3KVjptM-7_3m00?></g></svg>