<?plantuml 1.2026.1?><svg xmlns="http://www.w3.org/2000/svg" xmlns:xlink="http://www.w3.org/1999/xlink" contentStyleType="text/css" data-diagram-type="ACTIVITY" height="1413px" preserveAspectRatio="none" style="width:722px;height:1413px;background:#FCFCFD;" version="1.1" viewBox="0 0 722 1413" width="722px" zoomAndPan="magnify"><title>Activity - datasafe/DataSafeUnsetUserAssessmentBaseline</title><defs/><g><rect fill="#FCFCFD" height="1413" style="stroke:none;stroke-width:1;" width="722" x="0" y="0"/><g class="title" data-source-line="10"><text fill="#000000" font-family="Helvetica" font-size="14" font-weight="bold" lengthAdjust="spacing" textLength="393.7295" x="163.0641" y="30.7803">Activity - datasafe/DataSafeUnsetUserAssessmentBaseline</text></g><ellipse cx="339.8176" cy="55" fill="#1D4ED8" rx="10" ry="10" style="stroke:#222222;stroke-width:1;"/><rect fill="#F8FAFC" height="48" rx="8" ry="8" style="stroke:#0F172A;stroke-width:0.5;" width="304.7852" x="187.425" y="85"/><text fill="#0F172A" font-family="Helvetica" font-size="14" lengthAdjust="spacing" textLength="136.9375" x="197.425" y="105.7803">Start from shared flow</text><text fill="#0F172A" font-family="Helvetica" font-size="14" lengthAdjust="spacing" textLength="284.7852" x="197.425" y="119.7803">shared/diagrams/shared-reconcile-activity.svg</text><rect fill="#F8FAFC" height="62" rx="8" ry="8" style="stroke:#0F172A;stroke-width:0.5;" width="335.1641" x="172.2356" y="153"/><text fill="#0F172A" font-family="Helvetica" font-size="14" lengthAdjust="spacing" textLength="80.9512" x="182.2356" y="173.7803">Load desired</text><text fill="#0F172A" font-family="Helvetica" font-size="14" lengthAdjust="spacing" textLength="315.1641" x="182.2356" y="187.7803">DataSafeUnsetUserAssessmentBaseline spec and</text><text fill="#0F172A" font-family="Helvetica" font-size="14" lengthAdjust="spacing" textLength="144.7373" x="182.2356" y="201.7803">status from Kubernetes</text><rect fill="#F8FAFC" height="76" rx="8" ry="8" style="stroke:#0F172A;stroke-width:0.5;" width="325.8057" x="176.9148" y="235"/><text fill="#0F172A" font-family="Helvetica" font-size="14" lengthAdjust="spacing" textLength="135.3857" x="186.9148" y="255.7803">Resolve OCI state via</text><text fill="#0F172A" font-family="Helvetica" font-size="14" lengthAdjust="spacing" textLength="305.8057" x="186.9148" y="269.7803">GetDataSafeUnsetUserAssessmentBaseline with</text><text fill="#0F172A" font-family="Helvetica" font-size="14" lengthAdjust="spacing" textLength="276.2402" x="186.9148" y="283.7803">ListDataSafeUnsetUserAssessmentBaseline</text><text fill="#0F172A" font-family="Helvetica" font-size="14" lengthAdjust="spacing" textLength="47.4688" x="186.9148" y="297.7803">fallback</text><rect fill="#F8FAFC" height="76" rx="8" ry="8" style="stroke:#0F172A;stroke-width:0.5;" width="379.5703" x="150.0325" y="331"/><text fill="#0F172A" font-family="Helvetica" font-size="14" lengthAdjust="spacing" textLength="24.8965" x="160.0325" y="351.7803">Use</text><text fill="#0F172A" font-family="Helvetica" font-size="14" lengthAdjust="spacing" textLength="359.5703" x="160.0325" y="365.7803">scaffold_datasafe_datasafeunsetuserassessmentbaseline</text><text fill="#0F172A" font-family="Helvetica" font-size="14" lengthAdjust="spacing" textLength="297.2402" x="160.0325" y="379.7803">filters compartment_id, state when OCID lookup</text><text fill="#0F172A" font-family="Helvetica" font-size="14" lengthAdjust="spacing" textLength="259.9023" x="160.0325" y="393.7803">or bind-versus-create needs list resolution</text><polygon fill="#E2E8F0" points="286.1282,427,393.5071,427,405.5071,439,393.5071,451,286.1282,451,274.1282,439,286.1282,427" style="stroke:#1D4ED8;stroke-width:0.5;"/><text fill="#0F172A" font-family="Helvetica" font-size="14" lengthAdjust="spacing" textLength="107.3789" x="286.1282" y="442.7803">Resource exists?</text><text fill="#000000" font-family="Helvetica" font-size="14" lengthAdjust="spacing" textLength="21.7861" x="252.342" y="435.7803">yes</text><text fill="#000000" font-family="Helvetica" font-size="14" lengthAdjust="spacing" textLength="15.5723" x="405.5071" y="435.7803">no</text><rect fill="#F8FAFC" height="48" rx="8" ry="8" style="stroke:#0F172A;stroke-width:0.5;" width="319.5986" x="11" y="461"/><text fill="#0F172A" font-family="Helvetica" font-size="14" lengthAdjust="spacing" textLength="108.1787" x="21" y="481.7803">Update path calls</text><text fill="#0F172A" font-family="Helvetica" font-size="14" lengthAdjust="spacing" textLength="299.5986" x="21" y="495.7803">UpdateDataSafeUnsetUserAssessmentBaseline</text><rect fill="#F8FAFC" height="48" rx="8" ry="8" style="stroke:#0F172A;stroke-width:0.5;" width="266.7021" x="37.4482" y="529"/><text fill="#0F172A" font-family="Helvetica" font-size="14" lengthAdjust="spacing" textLength="246.7021" x="47.4482" y="549.7803">Guard mutable fields display_name and</text><text fill="#0F172A" font-family="Helvetica" font-size="14" lengthAdjust="spacing" textLength="202.3096" x="47.4482" y="563.7803">force-new fields compartment_id</text><rect fill="#F8FAFC" height="48" rx="8" ry="8" style="stroke:#0F172A;stroke-width:0.5;" width="316.4746" x="350.5986" y="461"/><text fill="#0F172A" font-family="Helvetica" font-size="14" lengthAdjust="spacing" textLength="105.0547" x="360.5986" y="481.7803">Create path calls</text><text fill="#0F172A" font-family="Helvetica" font-size="14" lengthAdjust="spacing" textLength="296.4746" x="360.5986" y="495.7803">CreateDataSafeUnsetUserAssessmentBaseline</text><polygon fill="#E2E8F0" points="339.8176,583,351.8176,595,339.8176,607,327.8176,595,339.8176,583" style="stroke:#1D4ED8;stroke-width:0.5;"/><rect fill="#F8FAFC" height="104" rx="8" ry="8" style="stroke:#0F172A;stroke-width:0.5;" width="334.3164" x="172.6594" y="627"/><text fill="#0F172A" font-family="Helvetica" font-size="14" lengthAdjust="spacing" textLength="164.2061" x="182.6594" y="647.7803">Run provider helper hooks</text><text fill="#0F172A" font-family="Helvetica" font-size="14" lengthAdjust="spacing" textLength="219.0508" x="182.6594" y="661.7803">create=tfresource.CreateResource,</text><text fill="#0F172A" font-family="Helvetica" font-size="14" lengthAdjust="spacing" textLength="314.3164" x="182.6594" y="675.7803">tfresource.WaitForWorkRequestWithErrorHandling</text><text fill="#0F172A" font-family="Helvetica" font-size="14" lengthAdjust="spacing" textLength="215.5439" x="182.6594" y="689.7803">entity=template action=CREATED;</text><text fill="#0F172A" font-family="Helvetica" font-size="14" lengthAdjust="spacing" textLength="226.085" x="182.6594" y="703.7803">update=tfresource.UpdateResource;</text><text fill="#0F172A" font-family="Helvetica" font-size="14" lengthAdjust="spacing" textLength="212.8438" x="182.6594" y="717.7803">delete=tfresource.DeleteResource</text><rect fill="#F8FAFC" height="34" rx="8" ry="8" style="stroke:#0F172A;stroke-width:0.5;" width="263.5918" x="208.0217" y="751"/><text fill="#0F172A" font-family="Helvetica" font-size="14" lengthAdjust="spacing" textLength="243.5918" x="218.0217" y="771.7803">Apply repo-authored secret policy none</text><rect fill="#F8FAFC" height="104" rx="8" ry="8" style="stroke:#0F172A;stroke-width:0.5;" width="343.709" x="167.9631" y="805"/><text fill="#0F172A" font-family="Helvetica" font-size="14" lengthAdjust="spacing" textLength="105.0684" x="177.9631" y="825.7803">Delete path uses</text><text fill="#0F172A" font-family="Helvetica" font-size="14" lengthAdjust="spacing" textLength="323.709" x="177.9631" y="839.7803">DeleteDataSafeUnsetUserAssessmentBaseline with</text><text fill="#0F172A" font-family="Helvetica" font-size="14" lengthAdjust="spacing" textLength="73.1514" x="177.9631" y="853.7803">required via</text><text fill="#0F172A" font-family="Helvetica" font-size="14" lengthAdjust="spacing" textLength="293.3574" x="177.9631" y="867.7803">GetDataSafeUnsetUserAssessmentBaseline or</text><text fill="#0F172A" font-family="Helvetica" font-size="14" lengthAdjust="spacing" textLength="291.8057" x="177.9631" y="881.7803">ListDataSafeUnsetUserAssessmentBaseline to</text><text fill="#0F172A" font-family="Helvetica" font-size="14" lengthAdjust="spacing" textLength="144.7168" x="177.9631" y="895.7803">DELETED confirmation</text><rect fill="#F8FAFC" height="48" rx="8" ry="8" style="stroke:#0F172A;stroke-width:0.5;" width="279.1299" x="200.2527" y="929"/><text fill="#0F172A" font-family="Helvetica" font-size="14" lengthAdjust="spacing" textLength="259.1299" x="210.2527" y="949.7803">Project required status and finalizer policy</text><text fill="#0F172A" font-family="Helvetica" font-size="14" lengthAdjust="spacing" textLength="174.3027" x="210.2527" y="963.7803">retain-until-confirmed-delete</text><rect fill="#F8FAFC" height="34" rx="8" ry="8" style="stroke:#0F172A;stroke-width:0.5;" width="313.4189" x="183.1082" y="997"/><text fill="#0F172A" font-family="Helvetica" font-size="14" lengthAdjust="spacing" textLength="293.4189" x="193.1082" y="1017.7803">Requeue on provisioning, updating, terminating</text><path d="M370.8176,1041 L370.8176,1217 L350.8176,1221 L370.8176,1225 L370.8176,1401 A0,0 0 0 0 370.8176,1401 L710.8577,1401 A0,0 0 0 0 710.8577,1401 L710.8577,1051 L700.8577,1041 L370.8176,1041 A0,0 0 0 0 370.8176,1041" fill="#FFF7D6" style="stroke:#B45309;stroke-width:0.5;"/><path d="M700.8577,1041 L700.8577,1051 L710.8577,1051 L700.8577,1041" fill="#FFF7D6" style="stroke:#B45309;stroke-width:0.5;"/><text fill="#334155" font-family="Helvetica" font-size="14" lengthAdjust="spacing" textLength="101.165" x="376.8176" y="1056.7803">shared diagram:</text><text fill="#334155" font-family="Helvetica" font-size="14" lengthAdjust="spacing" textLength="284.7852" x="376.8176" y="1070.7803">shared/diagrams/shared-reconcile-activity.svg</text><text fill="#334155" font-family="Helvetica" font-size="14" lengthAdjust="spacing" textLength="265.3438" x="376.8176" y="1084.7803">Start from the shared reconcile activity and</text><text fill="#334155" font-family="Helvetica" font-size="14" lengthAdjust="spacing" textLength="273.8955" x="376.8176" y="1098.7803">specialize provider-backed CRUD, wait, and</text><text fill="#334155" font-family="Helvetica" font-size="14" lengthAdjust="spacing" textLength="182.875" x="376.8176" y="1112.7803">status-projection details here.</text><text fill="#334155" font-family="Helvetica" font-size="14" lengthAdjust="spacing" textLength="229.5371" x="376.8176" y="1126.7803">Controller-local activity diagrams add</text><text fill="#334155" font-family="Helvetica" font-size="14" lengthAdjust="spacing" textLength="238.8955" x="376.8176" y="1140.7803">list-lookup hints, secret policies, delete</text><text fill="#334155" font-family="Helvetica" font-size="14" lengthAdjust="spacing" textLength="200.0332" x="376.8176" y="1154.7803">handling, and open formal gaps.</text><text fill="#334155" font-family="Helvetica" font-size="14" lengthAdjust="spacing" textLength="281.709" x="376.8176" y="1168.7803">archetype batch: Generated service-manager</text><text fill="#334155" font-family="Helvetica" font-size="14" lengthAdjust="spacing" textLength="291.0469" x="376.8176" y="1182.7803">controllers specialize the shared reconcile path</text><text fill="#334155" font-family="Helvetica" font-size="14" lengthAdjust="spacing" textLength="189.8477" x="376.8176" y="1196.7803">with formal runtime ownership.</text><text fill="#334155" font-family="Helvetica" font-size="14" lengthAdjust="spacing" textLength="105.834" x="376.8176" y="1210.7803">service: datasafe</text><text fill="#334155" font-family="Helvetica" font-size="14" lengthAdjust="spacing" textLength="275.502" x="376.8176" y="1224.7803">slug: datasafeunsetuserassessmentbaseline</text><text fill="#334155" font-family="Helvetica" font-size="14" lengthAdjust="spacing" textLength="287.916" x="376.8176" y="1238.7803">kind: DataSafeUnsetUserAssessmentBaseline</text><text fill="#334155" font-family="Helvetica" font-size="14" lengthAdjust="spacing" textLength="241.2402" x="376.8176" y="1252.7803">archetype: generated-service-manager</text><text fill="#334155" font-family="Helvetica" font-size="14" lengthAdjust="spacing" textLength="156.4063" x="376.8176" y="1266.7803">status/finalizer: required /</text><text fill="#334155" font-family="Helvetica" font-size="14" lengthAdjust="spacing" textLength="174.3027" x="376.8176" y="1280.7803">retain-until-confirmed-delete</text><text fill="#334155" font-family="Helvetica" font-size="14" lengthAdjust="spacing" textLength="272.3984" x="376.8176" y="1294.7803">requeue: provisioning, updating, terminating</text><text fill="#334155" font-family="Helvetica" font-size="14" lengthAdjust="spacing" textLength="295.6816" x="376.8176" y="1308.7803">provider states: create PROVISIONING; update</text><text fill="#334155" font-family="Helvetica" font-size="14" lengthAdjust="spacing" textLength="192.165" x="376.8176" y="1322.7803">UPDATING; delete DELETING</text><text fill="#334155" font-family="Helvetica" font-size="14" lengthAdjust="spacing" textLength="319.04" x="376.8176" y="1336.7803">mutable/forceNew: display_name / compartment_id</text><text fill="#334155" font-family="Helvetica" font-size="14" lengthAdjust="spacing" textLength="104.3164" x="376.8176" y="1350.7803">open gaps: none</text><text fill="#334155" font-family="Helvetica" font-size="14" lengthAdjust="spacing" textLength="224.9023" x="376.8176" y="1364.7803">Scaffold metadata only; replace with</text><text fill="#334155" font-family="Helvetica" font-size="14" lengthAdjust="spacing" textLength="244.3232" x="376.8176" y="1378.7803">controller-specific runtime states before</text><text fill="#334155" font-family="Helvetica" font-size="14" lengthAdjust="spacing" textLength="66.1445" x="376.8176" y="1392.7803">promotion.</text><ellipse cx="339.8176" cy="1221" fill="none" rx="11" ry="11" style="stroke:#222222;stroke-width:1;"/><ellipse cx="339.8176" cy="1221" fill="#222222" rx="6" ry="6" style="stroke:#222222;stroke-width:1;"/><line style="stroke:#0F172A;stroke-width:1;" x1="339.8176" x2="339.8176" y1="65" y2="85"/><polygon fill="#0F172A" points="335.8176,75,339.8176,85,343.8176,75,339.8176,79" style="stroke:#0F172A;stroke-width:1;"/><line style="stroke:#0F172A;stroke-width:1;" x1="339.8176" x2="339.8176" y1="133" y2="153"/><polygon fill="#0F172A" points="335.8176,143,339.8176,153,343.8176,143,339.8176,147" style="stroke:#0F172A;stroke-width:1;"/><line style="stroke:#0F172A;stroke-width:1;" x1="339.8176" x2="339.8176" y1="215" y2="235"/><polygon fill="#0F172A" points="335.8176,225,339.8176,235,343.8176,225,339.8176,229" style="stroke:#0F172A;stroke-width:1;"/><line style="stroke:#0F172A;stroke-width:1;" x1="339.8176" x2="339.8176" y1="311" y2="331"/><polygon fill="#0F172A" points="335.8176,321,339.8176,331,343.8176,321,339.8176,325" style="stroke:#0F172A;stroke-width:1;"/><line style="stroke:#0F172A;stroke-width:1;" x1="170.7993" x2="170.7993" y1="509" y2="529"/><polygon fill="#0F172A" points="166.7993,519,170.7993,529,174.7993,519,170.7993,523" style="stroke:#0F172A;stroke-width:1;"/><line style="stroke:#0F172A;stroke-width:1;" x1="274.1282" x2="170.7993" y1="439" y2="439"/><line style="stroke:#0F172A;stroke-width:1;" x1="170.7993" x2="170.7993" y1="439" y2="461"/><polygon fill="#0F172A" points="166.7993,451,170.7993,461,174.7993,451,170.7993,455" style="stroke:#0F172A;stroke-width:1;"/><line style="stroke:#0F172A;stroke-width:1;" x1="405.5071" x2="508.8359" y1="439" y2="439"/><line style="stroke:#0F172A;stroke-width:1;" x1="508.8359" x2="508.8359" y1="439" y2="461"/><polygon fill="#0F172A" points="504.8359,451,508.8359,461,512.8359,451,508.8359,455" style="stroke:#0F172A;stroke-width:1;"/><line style="stroke:#0F172A;stroke-width:1;" x1="170.7993" x2="170.7993" y1="577" y2="595"/><line style="stroke:#0F172A;stroke-width:1;" x1="170.7993" x2="327.8176" y1="595" y2="595"/><polygon fill="#0F172A" points="317.8176,591,327.8176,595,317.8176,599,321.8176,595" style="stroke:#0F172A;stroke-width:1;"/><line style="stroke:#0F172A;stroke-width:1;" x1="508.8359" x2="508.8359" y1="509" y2="595"/><line style="stroke:#0F172A;stroke-width:1;" x1="508.8359" x2="351.8176" y1="595" y2="595"/><polygon fill="#0F172A" points="361.8176,591,351.8176,595,361.8176,599,357.8176,595" style="stroke:#0F172A;stroke-width:1;"/><line style="stroke:#0F172A;stroke-width:1;" x1="339.8176" x2="339.8176" y1="407" y2="427"/><polygon fill="#0F172A" points="335.8176,417,339.8176,427,343.8176,417,339.8176,421" style="stroke:#0F172A;stroke-width:1;"/><line style="stroke:#0F172A;stroke-width:1;" x1="339.8176" x2="339.8176" y1="607" y2="627"/><polygon fill="#0F172A" points="335.8176,617,339.8176,627,343.8176,617,339.8176,621" style="stroke:#0F172A;stroke-width:1;"/><line style="stroke:#0F172A;stroke-width:1;" x1="339.8176" x2="339.8176" y1="731" y2="751"/><polygon fill="#0F172A" points="335.8176,741,339.8176,751,343.8176,741,339.8176,745" style="stroke:#0F172A;stroke-width:1;"/><line style="stroke:#0F172A;stroke-width:1;" x1="339.8176" x2="339.8176" y1="785" y2="805"/><polygon fill="#0F172A" points="335.8176,795,339.8176,805,343.8176,795,339.8176,799" style="stroke:#0F172A;stroke-width:1;"/><line style="stroke:#0F172A;stroke-width:1;" x1="339.8176" x2="339.8176" y1="909" y2="929"/><polygon fill="#0F172A" points="335.8176,919,339.8176,929,343.8176,919,339.8176,923" style="stroke:#0F172A;stroke-width:1;"/><line style="stroke:#0F172A;stroke-width:1;" x1="339.8176" x2="339.8176" y1="977" y2="997"/><polygon fill="#0F172A" points="335.8176,987,339.8176,997,343.8176,987,339.8176,991" style="stroke:#0F172A;stroke-width:1;"/><line style="stroke:#0F172A;stroke-width:1;" x1="339.8176" x2="339.8176" y1="1031" y2="1210"/><polygon fill="#0F172A" points="335.8176,1200,339.8176,1210,343.8176,1200,339.8176,1204" style="stroke:#0F172A;stroke-width:1;"/><?plantuml-src bLPHJ-Cu47xthnZfNbYfQM5XTxbKwCIsB8iE0OBbUAc4t7ZI-73idEsqrplTVxzndAQXYrPTyT34deo_-UQRpxWNgIjkUGckuCAif5v0pfL3vhgTESzU5jRKMaoCCXP-oJFw4xq8WJclbVzYjB_X9S9NL4lqCkDlnpp8Vn2EJdgRt5gpQhCVvaUVtlU_rCRZv-ymvFadyN4tobY1jesOdtmuFlnr9o8St-uV7vySVVZGss_IPyPgj73qaNdf5S9vvkLI-ZKa8BZdZkSucjB30pqyQeV-qQ4zTmwTAr7xpzoXahfF7zza-9V16roUvZpFmauVUyi1GBx5swq9oKkZnNUKu7iypGzx0VsCH-84nUbsyyiRYPtdrk_6OvU_YvlpdQp_iUPJbZw47yYjQVHaKK2kp6gcuyk8pbuG9MuKtnEBcT6PL9XiI1gwvMBCqcl31Id6IOgQwJtu1bTX1bnJD47njOiWVg_dIFtqw2ZfFJf3keJRoLKerICi9P_fI_Jx7B2IlfZfQ-dsYPvf6Y8LcatdKWYXodYU6oMUDohg7kgGfgOql4iptwQHogDra9cIrEJ3vhCKWnR_ga0Tofc2CkQbhcQQcZANMYHB-gXsIMOnn6b4uK0HTh21XDfBeyTCvd0GIAbjXe1_qxRxxHtuaFHWZUuTGQz4-BxYle2CAd8p7PVsu80glwov5L3Mdizfb7A9Yc08wIh5ryywE4NJiTmGW4JZQXFokjenGp8aED2644rYHNr4SMalH2HccPCIQWsLDKj9ym45gYhy48EKB39svdFR4ZECwJSy3MQwj_V49JcQVJBsvHx_gj7v9vB91RcP_KgbqQ6BcIO4fEmpZoNLJTY3req-cznVd7-xc8vdkcuexPyPITwSII425RuEcJOhNGXBpwjAhQc_bKbuxGiJfiyXrUEXCafcQpB0fYlnoqWXwOwAZYlxJu6bMiDe_jG06Rlt-80t1EhY-eBu8J7G5DYIHyscTzRyYLaGSekXdNUYc-IZkQBBnROL1wIUIvtKr0ALj9d8U2ATZITGrse2rmh2qI7Kj04qFMcUQFvAoXjUnkHpfcBX8W4h5uLdhSkrnfQodp8wrhDBchgDPNR1swk3YcF1uMHJNgVT93WCVJ6vVvmEO4LY7CJGXfAaYbHHIUIbn8Do97QBGpOXyxT6ASgW34tHzg0DSE12i60OINGMAAJsRl1AK19f8JB9YbRjpVbWAh8GckgIKYzuvOQCswn0lwwGBW-V5IbS8bspfF6WKRkKDFybrto1bcKTE0UzcjyaA6YO1KrkJhEXq-GhPaNfNI6h8MlpfztzpPog5zlN7_WleqjSfB3FVTyLcC9YKrgoMrhiowYJQRfLyOZzKAhCHg6c-yYKTTxMN1CkXVOUkBk__UFguUhsvkhcSXo_HVPuDpt_rYp4ew0PF5fWhN6F6d--mLNwshj7EpxDchQ7VgUDrR27ziw3aaeBTDEOgVKuU9JYMJIJNhkJfjkvpBekHlWmHqA0eQhI13KFWuyt_yxz3m00?></g></svg>