<?plantuml 1.2026.1?><svg xmlns="http://www.w3.org/2000/svg" xmlns:xlink="http://www.w3.org/1999/xlink" contentStyleType="text/css" data-diagram-type="ACTIVITY" height="2277px" preserveAspectRatio="none" style="width:1266px;height:2277px;background:#FCFCFD;" version="1.1" viewBox="0 0 1266 2277" width="1266px" zoomAndPan="magnify"><title>Activity - dataintegration/DataintegrationWorkspaceImportRequests</title><defs/><g><rect fill="#FCFCFD" height="2277" style="stroke:none;stroke-width:1;" width="1266" x="0" y="0"/><g class="title" data-source-line="10"><text fill="#000000" font-family="Helvetica" font-size="14" font-weight="bold" lengthAdjust="spacing" textLength="451.9648" x="405.7295" y="30.7803">Activity - dataintegration/DataintegrationWorkspaceImportRequests</text></g><ellipse cx="670.8397" cy="55" fill="#1D4ED8" rx="10" ry="10" style="stroke:#222222;stroke-width:1;"/><rect fill="none" height="472" rx="8" ry="8" style="stroke:#000000;stroke-width:1.5;" width="692.1699" x="329.6185" y="75"/><path d="M451.6869,75 L451.6869,82 L441.6869,92 L329.6185,92" fill="none" style="stroke:#000000;stroke-width:1.5;"/><text fill="#000000" font-family="Helvetica" font-size="14" lengthAdjust="spacing" textLength="112.0684" x="332.6185" y="86.7803">Observe and Bind</text><rect fill="#F8FAFC" height="48" rx="8" ry="8" style="stroke:#0F172A;stroke-width:0.5;" width="304.7852" x="518.4471" y="109"/><text fill="#0F172A" font-family="Helvetica" font-size="14" lengthAdjust="spacing" textLength="136.9375" x="528.4471" y="129.7803">Start from shared flow</text><text fill="#0F172A" font-family="Helvetica" font-size="14" lengthAdjust="spacing" textLength="284.7852" x="528.4471" y="143.7803">shared/diagrams/shared-reconcile-activity.svg</text><rect fill="#F8FAFC" height="62" rx="8" ry="8" style="stroke:#0F172A;stroke-width:0.5;" width="321.1436" x="510.2679" y="177"/><text fill="#0F172A" font-family="Helvetica" font-size="14" lengthAdjust="spacing" textLength="83.2754" x="520.2679" y="197.7803">Read desired</text><text fill="#0F172A" font-family="Helvetica" font-size="14" lengthAdjust="spacing" textLength="301.1436" x="520.2679" y="211.7803">DataintegrationWorkspaceImportRequests spec,</text><text fill="#0F172A" font-family="Helvetica" font-size="14" lengthAdjust="spacing" textLength="198.4609" x="520.2679" y="225.7803">tracked status, and delete intent</text><polygon fill="#E2E8F0" points="541.3739,259,800.3055,259,812.3055,271,800.3055,283,541.3739,283,529.3739,271,541.3739,259" style="stroke:#1D4ED8;stroke-width:0.5;"/><text fill="#0F172A" font-family="Helvetica" font-size="14" lengthAdjust="spacing" textLength="258.9316" x="541.3739" y="274.7803">"Tracked or explicit OCI identity present?"</text><text fill="#000000" font-family="Helvetica" font-size="14" lengthAdjust="spacing" textLength="21.7861" x="507.5878" y="267.7803">yes</text><text fill="#000000" font-family="Helvetica" font-size="14" lengthAdjust="spacing" textLength="15.5723" x="812.3055" y="267.7803">no</text><rect fill="#F8FAFC" height="48" rx="8" ry="8" style="stroke:#0F172A;stroke-width:0.5;" width="306.3574" x="349.6185" y="293"/><text fill="#0F172A" font-family="Helvetica" font-size="14" lengthAdjust="spacing" textLength="202.3027" x="359.6185" y="313.7803">Get the current OCI resource via</text><text fill="#0F172A" font-family="Helvetica" font-size="14" lengthAdjust="spacing" textLength="286.3574" x="359.6185" y="327.7803">GetDataintegrationWorkspaceImportRequests</text><rect fill="#F8FAFC" height="62" rx="8" ry="8" style="stroke:#0F172A;stroke-width:0.5;" width="305.5781" x="686.0931" y="293"/><text fill="#0F172A" font-family="Helvetica" font-size="14" lengthAdjust="spacing" textLength="259.9092" x="696.0931" y="313.7803">Resolve an existing OCI resource through</text><text fill="#0F172A" font-family="Helvetica" font-size="14" lengthAdjust="spacing" textLength="285.5781" x="696.0931" y="327.7803">ListDataintegrationWorkspaceImportRequests</text><text fill="#0F172A" font-family="Helvetica" font-size="14" lengthAdjust="spacing" textLength="213.2061" x="696.0931" y="341.7803">using filters compartment_id, state</text><rect fill="#F8FAFC" height="62" rx="8" ry="8" style="stroke:#0F172A;stroke-width:0.5;" width="325.8125" x="675.976" y="375"/><text fill="#0F172A" font-family="Helvetica" font-size="14" lengthAdjust="spacing" textLength="174.2959" x="685.976" y="395.7803">Create the OCI resource via</text><text fill="#0F172A" font-family="Helvetica" font-size="14" lengthAdjust="spacing" textLength="305.8125" x="685.976" y="409.7803">CreateDataintegrationWorkspaceImportRequests</text><text fill="#0F172A" font-family="Helvetica" font-size="14" lengthAdjust="spacing" textLength="205.4609" x="685.976" y="423.7803">when no reusable match is found</text><rect fill="#F8FAFC" height="48" rx="8" ry="8" style="stroke:#0F172A;stroke-width:0.5;" width="286.8955" x="695.4344" y="457"/><text fill="#0F172A" font-family="Helvetica" font-size="14" lengthAdjust="spacing" textLength="266.8955" x="705.4344" y="477.7803">Persist the resolved or created OCI identity</text><text fill="#0F172A" font-family="Helvetica" font-size="14" lengthAdjust="spacing" textLength="63.8135" x="705.4344" y="491.7803">into status</text><polygon fill="#E2E8F0" points="670.8397,511,682.8397,523,670.8397,535,658.8397,523,670.8397,511" style="stroke:#1D4ED8;stroke-width:0.5;"/><polygon fill="#E2E8F0" points="608.6635,567,733.016,567,745.016,579,733.016,591,608.6635,591,596.6635,579,608.6635,567" style="stroke:#1D4ED8;stroke-width:0.5;"/><text fill="#0F172A" font-family="Helvetica" font-size="14" lengthAdjust="spacing" textLength="124.3525" x="608.6635" y="582.7803">"Delete requested?"</text><text fill="#000000" font-family="Helvetica" font-size="14" lengthAdjust="spacing" textLength="21.7861" x="574.8773" y="575.7803">yes</text><text fill="#000000" font-family="Helvetica" font-size="14" lengthAdjust="spacing" textLength="15.5723" x="745.016" y="575.7803">no</text><rect fill="none" height="408" rx="8" ry="8" style="stroke:#000000;stroke-width:1.5;" width="644.4814" x="11" y="601"/><path d="M61.4688,601 L61.4688,608 L51.4688,618 L11,618" fill="none" style="stroke:#000000;stroke-width:1.5;"/><text fill="#000000" font-family="Helvetica" font-size="14" lengthAdjust="spacing" textLength="40.4688" x="14" y="612.7803">Delete</text><rect fill="#F8FAFC" height="104" rx="8" ry="8" style="stroke:#0F172A;stroke-width:0.5;" width="324.2607" x="177.6138" y="635"/><text fill="#0F172A" font-family="Helvetica" font-size="14" lengthAdjust="spacing" textLength="105.0684" x="187.6138" y="655.7803">Delete path uses</text><text fill="#0F172A" font-family="Helvetica" font-size="14" lengthAdjust="spacing" textLength="304.2607" x="187.6138" y="669.7803">DeleteDataintegrationWorkspaceImportRequests</text><text fill="#0F172A" font-family="Helvetica" font-size="14" lengthAdjust="spacing" textLength="101.9375" x="187.6138" y="683.7803">with required via</text><text fill="#0F172A" font-family="Helvetica" font-size="14" lengthAdjust="spacing" textLength="302.6953" x="187.6138" y="697.7803">GetDataintegrationWorkspaceImportRequests or</text><text fill="#0F172A" font-family="Helvetica" font-size="14" lengthAdjust="spacing" textLength="301.1436" x="187.6138" y="711.7803">ListDataintegrationWorkspaceImportRequests to</text><text fill="#0F172A" font-family="Helvetica" font-size="14" lengthAdjust="spacing" textLength="144.7168" x="187.6138" y="725.7803">DELETED confirmation</text><rect fill="#F8FAFC" height="76" rx="8" ry="8" style="stroke:#0F172A;stroke-width:0.5;" width="322.6953" x="178.3965" y="766"/><text fill="#0F172A" font-family="Helvetica" font-size="14" lengthAdjust="spacing" textLength="123.7236" x="188.3965" y="786.7803">Confirm deletion via</text><text fill="#0F172A" font-family="Helvetica" font-size="14" lengthAdjust="spacing" textLength="302.6953" x="188.3965" y="800.7803">GetDataintegrationWorkspaceImportRequests or</text><text fill="#0F172A" font-family="Helvetica" font-size="14" lengthAdjust="spacing" textLength="285.5781" x="188.3965" y="814.7803">ListDataintegrationWorkspaceImportRequests</text><text fill="#0F172A" font-family="Helvetica" font-size="14" lengthAdjust="spacing" textLength="176.6201" x="188.3965" y="828.7803">until OCI reaches DELETED</text><polygon fill="#E2E8F0" points="191.5718,877,487.9165,877,499.9165,889,487.9165,901,191.5718,901,179.5718,889,191.5718,877" style="stroke:#1D4ED8;stroke-width:0.5;"/><text fill="#0F172A" font-family="Helvetica" font-size="14" lengthAdjust="spacing" textLength="296.3447" x="191.5718" y="892.7803">"Delete cleanup and finalizer release succeed?"</text><text fill="#000000" font-family="Helvetica" font-size="14" lengthAdjust="spacing" textLength="21.7861" x="157.7856" y="885.7803">yes</text><text fill="#000000" font-family="Helvetica" font-size="14" lengthAdjust="spacing" textLength="15.5723" x="499.9165" y="885.7803">no</text><rect fill="#F8FAFC" height="34" rx="8" ry="8" style="stroke:#0F172A;stroke-width:0.5;" width="293.1436" x="23" y="911"/><text fill="#0F172A" font-family="Helvetica" font-size="14" lengthAdjust="spacing" textLength="273.1436" x="33" y="931.7803">Remove the finalizer after delete completion</text><rect fill="#F8FAFC" height="48" rx="8" ry="8" style="stroke:#0F172A;stroke-width:0.5;" width="251.1299" x="384.3516" y="911"/><text fill="#0F172A" font-family="Helvetica" font-size="14" lengthAdjust="spacing" textLength="231.1299" x="394.3516" y="931.7803">Stay blocked until cleanup or finalizer</text><text fill="#0F172A" font-family="Helvetica" font-size="14" lengthAdjust="spacing" textLength="108.9512" x="394.3516" y="945.7803">release succeeds</text><polygon fill="#E2E8F0" points="339.7441,965,351.7441,977,339.7441,989,327.7441,977,339.7441,965" style="stroke:#1D4ED8;stroke-width:0.5;"/><ellipse cx="339.7441" cy="1054" fill="none" rx="11" ry="11" style="stroke:#222222;stroke-width:1;"/><ellipse cx="339.7441" cy="1054" fill="#222222" rx="6" ry="6" style="stroke:#222222;stroke-width:1;"/><rect fill="none" height="450" rx="8" ry="8" style="stroke:#000000;stroke-width:1.5;" width="345.916" x="834.9773" y="601"/><path d="M985.8113,601 L985.8113,608 L975.8113,618 L834.9773,618" fill="none" style="stroke:#000000;stroke-width:1.5;"/><text fill="#000000" font-family="Helvetica" font-size="14" lengthAdjust="spacing" textLength="140.834" x="837.9773" y="612.7803">Lifecycle Classification</text><rect fill="#F8FAFC" height="48" rx="8" ry="8" style="stroke:#0F172A;stroke-width:0.5;" width="280.5928" x="861.6389" y="684"/><text fill="#0F172A" font-family="Helvetica" font-size="14" lengthAdjust="spacing" textLength="240.4541" x="871.6389" y="704.7803">Request requeue while OCI remains in</text><text fill="#0F172A" font-family="Helvetica" font-size="14" lengthAdjust="spacing" textLength="260.5928" x="871.6389" y="718.7803">PROVISIONING, UPDATING, DELETING</text><ellipse cx="1001.9353" cy="770" fill="none" rx="11" ry="11" style="stroke:#222222;stroke-width:1;"/><ellipse cx="1001.9353" cy="770" fill="#222222" rx="6" ry="6" style="stroke:#222222;stroke-width:1;"/><polygon fill="#E2E8F0" points="915.6521,635,1088.2185,635,1100.2185,647,1088.2185,659,915.6521,659,903.6521,647,915.6521,635" style="stroke:#1D4ED8;stroke-width:0.5;"/><text fill="#000000" font-family="Helvetica" font-size="14" lengthAdjust="spacing" textLength="21.7861" x="1005.9353" y="669.7803">yes</text><text fill="#0F172A" font-family="Helvetica" font-size="14" lengthAdjust="spacing" textLength="172.5664" x="915.6521" y="650.7803">"OCI state in retryable set?"</text><rect fill="#F8FAFC" height="48" rx="8" ry="8" style="stroke:#0F172A;stroke-width:0.5;" width="293.916" x="854.9773" y="896"/><text fill="#0F172A" font-family="Helvetica" font-size="14" lengthAdjust="spacing" textLength="273.916" x="864.9773" y="916.7803">Return an unsuccessful reconcile result until</text><text fill="#0F172A" font-family="Helvetica" font-size="14" lengthAdjust="spacing" textLength="133.041" x="864.9773" y="930.7803">OCI reaches ACTIVE</text><ellipse cx="1001.9353" cy="990" fill="none" rx="11" ry="11" style="stroke:#222222;stroke-width:1;"/><ellipse cx="1001.9353" cy="990" fill="#222222" rx="6" ry="6" style="stroke:#222222;stroke-width:1;"/><polygon fill="#E2E8F0" points="881.4143,847,1122.4563,847,1134.4563,859,1122.4563,871,881.4143,871,869.4143,859,881.4143,847" style="stroke:#1D4ED8;stroke-width:0.5;"/><text fill="#000000" font-family="Helvetica" font-size="14" lengthAdjust="spacing" textLength="21.7861" x="1005.9353" y="881.7803">yes</text><text fill="#0F172A" font-family="Helvetica" font-size="14" lengthAdjust="spacing" textLength="241.042" x="881.4143" y="862.7803">"OCI state is outside success targets?"</text><rect fill="none" height="736.5" rx="8" ry="8" style="stroke:#000000;stroke-width:1.5;" width="579.9424" x="675.4814" y="1075"/><path d="M841.9014,1075 L841.9014,1082 L831.9014,1092 L675.4814,1092" fill="none" style="stroke:#000000;stroke-width:1.5;"/><text fill="#000000" font-family="Helvetica" font-size="14" lengthAdjust="spacing" textLength="156.4199" x="678.4814" y="1086.7803">Ready and Drift Handling</text><rect fill="#F8FAFC" height="48" rx="8" ry="8" style="stroke:#0F172A;stroke-width:0.5;" width="296.2402" x="853.8152" y="1109"/><text fill="#0F172A" font-family="Helvetica" font-size="14" lengthAdjust="spacing" textLength="276.2402" x="863.8152" y="1129.7803">Compare live OCI state against the imported</text><text fill="#0F172A" font-family="Helvetica" font-size="14" lengthAdjust="spacing" textLength="75.4824" x="863.8152" y="1143.7803">field surface</text><rect fill="#F8FAFC" height="48" rx="8" ry="8" style="stroke:#0F172A;stroke-width:0.5;" width="302.4473" x="850.7117" y="1226"/><text fill="#0F172A" font-family="Helvetica" font-size="14" lengthAdjust="spacing" textLength="282.4473" x="860.7117" y="1246.7803">Reject drift before OCI mutation for force-new</text><text fill="#0F172A" font-family="Helvetica" font-size="14" lengthAdjust="spacing" textLength="136.9512" x="860.7117" y="1260.7803">fields compartment_id</text><ellipse cx="1001.9353" cy="1306.5" fill="none" rx="11" ry="11" style="stroke:#222222;stroke-width:1;"/><ellipse cx="1001.9353" cy="1306.5" fill="#222222" rx="6" ry="6" style="stroke:#222222;stroke-width:1;"/><polygon fill="#E2E8F0" points="876.3523,1177,1127.5183,1177,1139.5183,1189,1127.5183,1201,876.3523,1201,864.3523,1189,876.3523,1177" style="stroke:#1D4ED8;stroke-width:0.5;"/><text fill="#000000" font-family="Helvetica" font-size="14" lengthAdjust="spacing" textLength="21.7861" x="1005.9353" y="1211.7803">yes</text><text fill="#0F172A" font-family="Helvetica" font-size="14" lengthAdjust="spacing" textLength="251.166" x="876.3523" y="1192.7803">"Force-new or conflicting drift detected?"</text><polygon fill="#E2E8F0" points="891.5076,1359.5,1112.363,1359.5,1124.363,1371.5,1112.363,1383.5,891.5076,1383.5,879.5076,1371.5,891.5076,1359.5" style="stroke:#1D4ED8;stroke-width:0.5;"/><text fill="#0F172A" font-family="Helvetica" font-size="14" lengthAdjust="spacing" textLength="220.8555" x="891.5076" y="1375.2803">"Supported mutable drift detected?"</text><text fill="#000000" font-family="Helvetica" font-size="14" lengthAdjust="spacing" textLength="21.7861" x="857.7214" y="1368.2803">yes</text><text fill="#000000" font-family="Helvetica" font-size="14" lengthAdjust="spacing" textLength="15.5723" x="1124.363" y="1368.2803">no</text><rect fill="#F8FAFC" height="62" rx="8" ry="8" style="stroke:#0F172A;stroke-width:0.5;" width="328.9365" x="695.4814" y="1393.5"/><text fill="#0F172A" font-family="Helvetica" font-size="14" lengthAdjust="spacing" textLength="35.0205" x="705.4814" y="1414.2803">Apply</text><text fill="#0F172A" font-family="Helvetica" font-size="14" lengthAdjust="spacing" textLength="308.9365" x="705.4814" y="1428.2803">UpdateDataintegrationWorkspaceImportRequests</text><text fill="#0F172A" font-family="Helvetica" font-size="14" lengthAdjust="spacing" textLength="226.4541" x="705.4814" y="1442.2803">only for mutable fields display_name</text><rect fill="#F8FAFC" height="34" rx="8" ry="8" style="stroke:#0F172A;stroke-width:0.5;" width="199.0059" x="1044.418" y="1393.5"/><text fill="#0F172A" font-family="Helvetica" font-size="14" lengthAdjust="spacing" textLength="179.0059" x="1054.418" y="1414.2803">Skip the no-op mutation path</text><polygon fill="#E2E8F0" points="1001.9353,1461.5,1013.9353,1473.5,1001.9353,1485.5,989.9353,1473.5,1001.9353,1461.5" style="stroke:#1D4ED8;stroke-width:0.5;"/><rect fill="#F8FAFC" height="118" rx="8" ry="8" style="stroke:#0F172A;stroke-width:0.5;" width="334.3164" x="834.7771" y="1505.5"/><text fill="#0F172A" font-family="Helvetica" font-size="14" lengthAdjust="spacing" textLength="164.2061" x="844.7771" y="1526.2803">Run provider helper hooks</text><text fill="#0F172A" font-family="Helvetica" font-size="14" lengthAdjust="spacing" textLength="219.0508" x="844.7771" y="1540.2803">create=tfresource.CreateResource,</text><text fill="#0F172A" font-family="Helvetica" font-size="14" lengthAdjust="spacing" textLength="314.3164" x="844.7771" y="1554.2803">tfresource.WaitForWorkRequestWithErrorHandling</text><text fill="#0F172A" font-family="Helvetica" font-size="14" lengthAdjust="spacing" textLength="215.5439" x="844.7771" y="1568.2803">entity=template action=CREATED;</text><text fill="#0F172A" font-family="Helvetica" font-size="14" lengthAdjust="spacing" textLength="226.085" x="844.7771" y="1582.2803">update=tfresource.UpdateResource;</text><text fill="#0F172A" font-family="Helvetica" font-size="14" lengthAdjust="spacing" textLength="273.5537" x="844.7771" y="1596.2803">delete=tfresource.DeleteResource when the</text><text fill="#0F172A" font-family="Helvetica" font-size="14" lengthAdjust="spacing" textLength="220.2334" x="844.7771" y="1610.2803">matching field-driven path executes</text><rect fill="#F8FAFC" height="34" rx="8" ry="8" style="stroke:#0F172A;stroke-width:0.5;" width="303.2197" x="850.3254" y="1643.5"/><text fill="#0F172A" font-family="Helvetica" font-size="14" lengthAdjust="spacing" textLength="283.2197" x="860.3254" y="1664.2803">Return success for the ACTIVE success state</text><rect fill="#F8FAFC" height="48" rx="8" ry="8" style="stroke:#0F172A;stroke-width:0.5;" width="279.1299" x="862.3704" y="1697.5"/><text fill="#0F172A" font-family="Helvetica" font-size="14" lengthAdjust="spacing" textLength="259.1299" x="872.3704" y="1718.2803">Project required status and finalizer policy</text><text fill="#0F172A" font-family="Helvetica" font-size="14" lengthAdjust="spacing" textLength="174.3027" x="872.3704" y="1732.2803">retain-until-confirmed-delete</text><rect fill="#F8FAFC" height="34" rx="8" ry="8" style="stroke:#0F172A;stroke-width:0.5;" width="313.4189" x="845.2258" y="1765.5"/><text fill="#0F172A" font-family="Helvetica" font-size="14" lengthAdjust="spacing" textLength="293.4189" x="855.2258" y="1786.2803">Requeue on provisioning, updating, terminating</text><path d="M701.8397,1821.5 L701.8397,2039.5 L681.8397,2043.5 L701.8397,2047.5 L701.8397,2265.5 A0,0 0 0 0 701.8397,2265.5 L1131.4237,2265.5 A0,0 0 0 0 1131.4237,2265.5 L1131.4237,1831.5 L1121.4237,1821.5 L701.8397,1821.5 A0,0 0 0 0 701.8397,1821.5" fill="#FFF7D6" style="stroke:#B45309;stroke-width:0.5;"/><path d="M1121.4237,1821.5 L1121.4237,1831.5 L1131.4237,1831.5 L1121.4237,1821.5" fill="#FFF7D6" style="stroke:#B45309;stroke-width:0.5;"/><text fill="#334155" font-family="Helvetica" font-size="14" lengthAdjust="spacing" textLength="101.165" x="707.8397" y="1837.2803">shared diagram:</text><text fill="#334155" font-family="Helvetica" font-size="14" lengthAdjust="spacing" textLength="284.7852" x="707.8397" y="1851.2803">shared/diagrams/shared-reconcile-activity.svg</text><text fill="#334155" font-family="Helvetica" font-size="14" lengthAdjust="spacing" textLength="265.3438" x="707.8397" y="1865.2803">Start from the shared reconcile activity and</text><text fill="#334155" font-family="Helvetica" font-size="14" lengthAdjust="spacing" textLength="273.8955" x="707.8397" y="1879.2803">specialize provider-backed CRUD, wait, and</text><text fill="#334155" font-family="Helvetica" font-size="14" lengthAdjust="spacing" textLength="182.875" x="707.8397" y="1893.2803">status-projection details here.</text><text fill="#334155" font-family="Helvetica" font-size="14" lengthAdjust="spacing" textLength="229.5371" x="707.8397" y="1907.2803">Controller-local activity diagrams add</text><text fill="#334155" font-family="Helvetica" font-size="14" lengthAdjust="spacing" textLength="238.8955" x="707.8397" y="1921.2803">list-lookup hints, secret policies, delete</text><text fill="#334155" font-family="Helvetica" font-size="14" lengthAdjust="spacing" textLength="200.0332" x="707.8397" y="1935.2803">handling, and open formal gaps.</text><text fill="#334155" font-family="Helvetica" font-size="14" lengthAdjust="spacing" textLength="281.709" x="707.8397" y="1949.2803">archetype batch: Generated service-manager</text><text fill="#334155" font-family="Helvetica" font-size="14" lengthAdjust="spacing" textLength="291.0469" x="707.8397" y="1963.2803">controllers specialize the shared reconcile path</text><text fill="#334155" font-family="Helvetica" font-size="14" lengthAdjust="spacing" textLength="189.8477" x="707.8397" y="1977.2803">with formal runtime ownership.</text><text fill="#334155" font-family="Helvetica" font-size="14" lengthAdjust="spacing" textLength="144.751" x="707.8397" y="1991.2803">service: dataintegration</text><text fill="#334155" font-family="Helvetica" font-size="14" lengthAdjust="spacing" textLength="285.5986" x="707.8397" y="2005.2803">slug: dataintegrationworkspaceimportrequests</text><text fill="#334155" font-family="Helvetica" font-size="14" lengthAdjust="spacing" textLength="297.2539" x="707.8397" y="2019.2803">kind: DataintegrationWorkspaceImportRequests</text><text fill="#334155" font-family="Helvetica" font-size="14" lengthAdjust="spacing" textLength="241.2402" x="707.8397" y="2033.2803">archetype: generated-service-manager</text><text fill="#334155" font-family="Helvetica" font-size="14" lengthAdjust="spacing" textLength="156.4063" x="707.8397" y="2047.2803">status/finalizer: required /</text><text fill="#334155" font-family="Helvetica" font-size="14" lengthAdjust="spacing" textLength="174.3027" x="707.8397" y="2061.2803">retain-until-confirmed-delete</text><text fill="#334155" font-family="Helvetica" font-size="14" lengthAdjust="spacing" textLength="272.3984" x="707.8397" y="2075.2803">requeue: provisioning, updating, terminating</text><text fill="#334155" font-family="Helvetica" font-size="14" lengthAdjust="spacing" textLength="295.6816" x="707.8397" y="2089.2803">provider states: create PROVISIONING; update</text><text fill="#334155" font-family="Helvetica" font-size="14" lengthAdjust="spacing" textLength="192.165" x="707.8397" y="2103.2803">UPDATING; delete DELETING</text><text fill="#334155" font-family="Helvetica" font-size="14" lengthAdjust="spacing" textLength="183.6611" x="707.8397" y="2117.2803">supported drift: display_name</text><text fill="#334155" font-family="Helvetica" font-size="14" lengthAdjust="spacing" textLength="230.3301" x="707.8397" y="2131.2803">reject before mutate: force-new fields</text><text fill="#334155" font-family="Helvetica" font-size="14" lengthAdjust="spacing" textLength="100.3789" x="707.8397" y="2145.2803">compartment_id</text><text fill="#334155" font-family="Helvetica" font-size="14" lengthAdjust="spacing" textLength="66.1445" x="707.8397" y="2159.2803">list lookup:</text><text fill="#334155" font-family="Helvetica" font-size="14" lengthAdjust="spacing" textLength="408.584" x="707.8397" y="2173.2803">scaffold_dataintegration_dataintegrationworkspaceimportrequests</text><text fill="#334155" font-family="Helvetica" font-size="14" lengthAdjust="spacing" textLength="175.8477" x="707.8397" y="2187.2803">filters compartment_id, state</text><text fill="#334155" font-family="Helvetica" font-size="14" lengthAdjust="spacing" textLength="89.4961" x="707.8397" y="2201.2803">conflicts: none</text><text fill="#334155" font-family="Helvetica" font-size="14" lengthAdjust="spacing" textLength="104.3164" x="707.8397" y="2215.2803">open gaps: none</text><text fill="#334155" font-family="Helvetica" font-size="14" lengthAdjust="spacing" textLength="224.9023" x="707.8397" y="2229.2803">Scaffold metadata only; replace with</text><text fill="#334155" font-family="Helvetica" font-size="14" lengthAdjust="spacing" textLength="244.3232" x="707.8397" y="2243.2803">controller-specific runtime states before</text><text fill="#334155" font-family="Helvetica" font-size="14" lengthAdjust="spacing" textLength="66.1445" x="707.8397" y="2257.2803">promotion.</text><ellipse cx="670.8397" cy="2043.5" fill="none" rx="11" ry="11" style="stroke:#222222;stroke-width:1;"/><ellipse cx="670.8397" cy="2043.5" fill="#222222" rx="6" ry="6" style="stroke:#222222;stroke-width:1;"/><line style="stroke:#0F172A;stroke-width:1;" x1="670.8397" x2="670.8397" y1="157" y2="177"/><polygon fill="#0F172A" points="666.8397,167,670.8397,177,674.8397,167,670.8397,171" style="stroke:#0F172A;stroke-width:1;"/><line style="stroke:#0F172A;stroke-width:1;" x1="838.8822" x2="838.8822" y1="355" y2="375"/><polygon fill="#0F172A" points="834.8822,365,838.8822,375,842.8822,365,838.8822,369" style="stroke:#0F172A;stroke-width:1;"/><line style="stroke:#0F172A;stroke-width:1;" x1="838.8822" x2="838.8822" y1="437" y2="457"/><polygon fill="#0F172A" points="834.8822,447,838.8822,457,842.8822,447,838.8822,451" style="stroke:#0F172A;stroke-width:1;"/><line style="stroke:#0F172A;stroke-width:1;" x1="529.3739" x2="502.7972" y1="271" y2="271"/><line style="stroke:#0F172A;stroke-width:1;" x1="502.7972" x2="502.7972" y1="271" y2="293"/><polygon fill="#0F172A" points="498.7972,283,502.7972,293,506.7972,283,502.7972,287" style="stroke:#0F172A;stroke-width:1;"/><line style="stroke:#0F172A;stroke-width:1;" x1="812.3055" x2="838.8822" y1="271" y2="271"/><line style="stroke:#0F172A;stroke-width:1;" x1="838.8822" x2="838.8822" y1="271" y2="293"/><polygon fill="#0F172A" points="834.8822,283,838.8822,293,842.8822,283,838.8822,287" style="stroke:#0F172A;stroke-width:1;"/><line style="stroke:#0F172A;stroke-width:1;" x1="502.7972" x2="502.7972" y1="341" y2="523"/><line style="stroke:#0F172A;stroke-width:1;" x1="502.7972" x2="658.8397" y1="523" y2="523"/><polygon fill="#0F172A" points="648.8397,519,658.8397,523,648.8397,527,652.8397,523" style="stroke:#0F172A;stroke-width:1;"/><line style="stroke:#0F172A;stroke-width:1;" x1="838.8822" x2="838.8822" y1="505" y2="523"/><line style="stroke:#0F172A;stroke-width:1;" x1="838.8822" x2="682.8397" y1="523" y2="523"/><polygon fill="#0F172A" points="692.8397,519,682.8397,523,692.8397,527,688.8397,523" style="stroke:#0F172A;stroke-width:1;"/><line style="stroke:#0F172A;stroke-width:1;" x1="670.8397" x2="670.8397" y1="239" y2="259"/><polygon fill="#0F172A" points="666.8397,249,670.8397,259,674.8397,249,670.8397,253" style="stroke:#0F172A;stroke-width:1;"/><line style="stroke:#0F172A;stroke-width:1;" x1="670.8397" x2="670.8397" y1="65" y2="109"/><polygon fill="#0F172A" points="666.8397,99,670.8397,109,674.8397,99,670.8397,103" style="stroke:#0F172A;stroke-width:1;"/><line style="stroke:#0F172A;stroke-width:1;" x1="339.7441" x2="339.7441" y1="739" y2="766"/><polygon fill="#0F172A" points="335.7441,756,339.7441,766,343.7441,756,339.7441,760" style="stroke:#0F172A;stroke-width:1;"/><line style="stroke:#0F172A;stroke-width:1;" x1="179.5718" x2="169.5718" y1="889" y2="889"/><line style="stroke:#0F172A;stroke-width:1;" x1="169.5718" x2="169.5718" y1="889" y2="911"/><polygon fill="#0F172A" points="165.5718,901,169.5718,911,173.5718,901,169.5718,905" style="stroke:#0F172A;stroke-width:1;"/><line style="stroke:#0F172A;stroke-width:1;" x1="499.9165" x2="509.9165" y1="889" y2="889"/><line style="stroke:#0F172A;stroke-width:1;" x1="509.9165" x2="509.9165" y1="889" y2="911"/><polygon fill="#0F172A" points="505.9165,901,509.9165,911,513.9165,901,509.9165,905" style="stroke:#0F172A;stroke-width:1;"/><line style="stroke:#0F172A;stroke-width:1;" x1="169.5718" x2="169.5718" y1="945" y2="977"/><line style="stroke:#0F172A;stroke-width:1;" x1="169.5718" x2="327.7441" y1="977" y2="977"/><polygon fill="#0F172A" points="317.7441,973,327.7441,977,317.7441,981,321.7441,977" style="stroke:#0F172A;stroke-width:1;"/><line style="stroke:#0F172A;stroke-width:1;" x1="509.9165" x2="509.9165" y1="959" y2="977"/><line style="stroke:#0F172A;stroke-width:1;" x1="509.9165" x2="351.7441" y1="977" y2="977"/><polygon fill="#0F172A" points="361.7441,973,351.7441,977,361.7441,981,357.7441,977" style="stroke:#0F172A;stroke-width:1;"/><line style="stroke:#0F172A;stroke-width:1;" x1="339.7441" x2="339.7441" y1="842" y2="877"/><polygon fill="#0F172A" points="335.7441,867,339.7441,877,343.7441,867,339.7441,871" style="stroke:#0F172A;stroke-width:1;"/><line style="stroke:#0F172A;stroke-width:1;" x1="339.7441" x2="339.7441" y1="989" y2="1043"/><polygon fill="#0F172A" points="335.7441,1033,339.7441,1043,343.7441,1033,339.7441,1037" style="stroke:#0F172A;stroke-width:1;"/><line style="stroke:#0F172A;stroke-width:1;" x1="1001.9353" x2="1001.9353" y1="732" y2="759"/><polygon fill="#0F172A" points="997.9353,749,1001.9353,759,1005.9353,749,1001.9353,753" style="stroke:#0F172A;stroke-width:1;"/><line style="stroke:#0F172A;stroke-width:1;" x1="1001.9353" x2="1001.9353" y1="659" y2="684"/><polygon fill="#0F172A" points="997.9353,674,1001.9353,684,1005.9353,674,1001.9353,678" style="stroke:#0F172A;stroke-width:1;"/><line style="stroke:#0F172A;stroke-width:1;" x1="1100.2185" x2="1152.2317" y1="647" y2="647"/><polygon fill="#0F172A" points="1148.2317,723.5,1152.2317,733.5,1156.2317,723.5,1152.2317,727.5" style="stroke:#0F172A;stroke-width:1;"/><line style="stroke:#0F172A;stroke-width:1;" x1="1152.2317" x2="1152.2317" y1="647" y2="812"/><line style="stroke:#0F172A;stroke-width:1;" x1="1152.2317" x2="1001.9353" y1="812" y2="812"/><line style="stroke:#0F172A;stroke-width:1;" x1="1001.9353" x2="1001.9353" y1="812" y2="847"/><polygon fill="#0F172A" points="997.9353,837,1001.9353,847,1005.9353,837,1001.9353,841" style="stroke:#0F172A;stroke-width:1;"/><line style="stroke:#0F172A;stroke-width:1;" x1="1001.9353" x2="1001.9353" y1="944" y2="979"/><polygon fill="#0F172A" points="997.9353,969,1001.9353,979,1005.9353,969,1001.9353,973" style="stroke:#0F172A;stroke-width:1;"/><line style="stroke:#0F172A;stroke-width:1;" x1="1001.9353" x2="1001.9353" y1="871" y2="896"/><polygon fill="#0F172A" points="997.9353,886,1001.9353,896,1005.9353,886,1001.9353,890" style="stroke:#0F172A;stroke-width:1;"/><line style="stroke:#0F172A;stroke-width:1;" x1="1134.4563" x2="1158.8933" y1="859" y2="859"/><polygon fill="#0F172A" points="1154.8933,935.5,1158.8933,945.5,1162.8933,935.5,1158.8933,939.5" style="stroke:#0F172A;stroke-width:1;"/><line style="stroke:#0F172A;stroke-width:1;" x1="1158.8933" x2="1158.8933" y1="859" y2="1031"/><line style="stroke:#0F172A;stroke-width:1;" x1="1158.8933" x2="1001.9353" y1="1031" y2="1031"/><line style="stroke:#0F172A;stroke-width:1;" x1="1001.9353" x2="1001.9353" y1="1031" y2="1109"/><polygon fill="#0F172A" points="997.9353,1099,1001.9353,1109,1005.9353,1099,1001.9353,1103" style="stroke:#0F172A;stroke-width:1;"/><line style="stroke:#0F172A;stroke-width:1;" x1="1001.9353" x2="1001.9353" y1="1274" y2="1295.5"/><polygon fill="#0F172A" points="997.9353,1285.5,1001.9353,1295.5,1005.9353,1285.5,1001.9353,1289.5" style="stroke:#0F172A;stroke-width:1;"/><line style="stroke:#0F172A;stroke-width:1;" x1="1001.9353" x2="1001.9353" y1="1201" y2="1226"/><polygon fill="#0F172A" points="997.9353,1216,1001.9353,1226,1005.9353,1216,1001.9353,1220" style="stroke:#0F172A;stroke-width:1;"/><line style="stroke:#0F172A;stroke-width:1;" x1="1139.5183" x2="1163.1589" y1="1189" y2="1189"/><polygon fill="#0F172A" points="1159.1589,1265.5,1163.1589,1275.5,1167.1589,1265.5,1163.1589,1269.5" style="stroke:#0F172A;stroke-width:1;"/><line style="stroke:#0F172A;stroke-width:1;" x1="1163.1589" x2="1163.1589" y1="1189" y2="1339.5"/><line style="stroke:#0F172A;stroke-width:1;" x1="1163.1589" x2="1001.9353" y1="1339.5" y2="1339.5"/><line style="stroke:#0F172A;stroke-width:1;" x1="1001.9353" x2="1001.9353" y1="1339.5" y2="1359.5"/><polygon fill="#0F172A" points="997.9353,1349.5,1001.9353,1359.5,1005.9353,1349.5,1001.9353,1353.5" style="stroke:#0F172A;stroke-width:1;"/><line style="stroke:#0F172A;stroke-width:1;" x1="1001.9353" x2="1001.9353" y1="1157" y2="1177"/><polygon fill="#0F172A" points="997.9353,1167,1001.9353,1177,1005.9353,1167,1001.9353,1171" style="stroke:#0F172A;stroke-width:1;"/><line style="stroke:#0F172A;stroke-width:1;" x1="879.5076" x2="859.9497" y1="1371.5" y2="1371.5"/><line style="stroke:#0F172A;stroke-width:1;" x1="859.9497" x2="859.9497" y1="1371.5" y2="1393.5"/><polygon fill="#0F172A" points="855.9497,1383.5,859.9497,1393.5,863.9497,1383.5,859.9497,1387.5" style="stroke:#0F172A;stroke-width:1;"/><line style="stroke:#0F172A;stroke-width:1;" x1="1124.363" x2="1143.9209" y1="1371.5" y2="1371.5"/><line style="stroke:#0F172A;stroke-width:1;" x1="1143.9209" x2="1143.9209" y1="1371.5" y2="1393.5"/><polygon fill="#0F172A" points="1139.9209,1383.5,1143.9209,1393.5,1147.9209,1383.5,1143.9209,1387.5" style="stroke:#0F172A;stroke-width:1;"/><line style="stroke:#0F172A;stroke-width:1;" x1="859.9497" x2="859.9497" y1="1455.5" y2="1473.5"/><line style="stroke:#0F172A;stroke-width:1;" x1="859.9497" x2="989.9353" y1="1473.5" y2="1473.5"/><polygon fill="#0F172A" points="979.9353,1469.5,989.9353,1473.5,979.9353,1477.5,983.9353,1473.5" style="stroke:#0F172A;stroke-width:1;"/><line style="stroke:#0F172A;stroke-width:1;" x1="1143.9209" x2="1143.9209" y1="1427.5" y2="1473.5"/><line style="stroke:#0F172A;stroke-width:1;" x1="1143.9209" x2="1013.9353" y1="1473.5" y2="1473.5"/><polygon fill="#0F172A" points="1023.9353,1469.5,1013.9353,1473.5,1023.9353,1477.5,1019.9353,1473.5" style="stroke:#0F172A;stroke-width:1;"/><line style="stroke:#0F172A;stroke-width:1;" x1="1001.9353" x2="1001.9353" y1="1485.5" y2="1505.5"/><polygon fill="#0F172A" points="997.9353,1495.5,1001.9353,1505.5,1005.9353,1495.5,1001.9353,1499.5" style="stroke:#0F172A;stroke-width:1;"/><line style="stroke:#0F172A;stroke-width:1;" x1="1001.9353" x2="1001.9353" y1="1623.5" y2="1643.5"/><polygon fill="#0F172A" points="997.9353,1633.5,1001.9353,1643.5,1005.9353,1633.5,1001.9353,1637.5" style="stroke:#0F172A;stroke-width:1;"/><line style="stroke:#0F172A;stroke-width:1;" x1="1001.9353" x2="1001.9353" y1="1677.5" y2="1697.5"/><polygon fill="#0F172A" points="997.9353,1687.5,1001.9353,1697.5,1005.9353,1687.5,1001.9353,1691.5" style="stroke:#0F172A;stroke-width:1;"/><line style="stroke:#0F172A;stroke-width:1;" x1="1001.9353" x2="1001.9353" y1="1745.5" y2="1765.5"/><polygon fill="#0F172A" points="997.9353,1755.5,1001.9353,1765.5,1005.9353,1755.5,1001.9353,1759.5" style="stroke:#0F172A;stroke-width:1;"/><line style="stroke:#0F172A;stroke-width:1;" x1="596.6635" x2="339.7441" y1="579" y2="579"/><line style="stroke:#0F172A;stroke-width:1;" x1="339.7441" x2="339.7441" y1="579" y2="635"/><polygon fill="#0F172A" points="335.7441,625,339.7441,635,343.7441,625,339.7441,629" style="stroke:#0F172A;stroke-width:1;"/><line style="stroke:#0F172A;stroke-width:1;" x1="745.016" x2="1001.9353" y1="579" y2="579"/><line style="stroke:#0F172A;stroke-width:1;" x1="1001.9353" x2="1001.9353" y1="579" y2="635"/><polygon fill="#0F172A" points="997.9353,625,1001.9353,635,1005.9353,625,1001.9353,629" style="stroke:#0F172A;stroke-width:1;"/><line style="stroke:#0F172A;stroke-width:1;" x1="1001.9353" x2="1001.9353" y1="1799.5" y2="1816.5"/><line style="stroke:#0F172A;stroke-width:1;" x1="1001.9353" x2="670.8397" y1="1816.5" y2="1816.5"/><line style="stroke:#0F172A;stroke-width:1;" x1="670.8397" x2="670.8397" y1="1816.5" y2="2032.5"/><polygon fill="#0F172A" points="666.8397,2022.5,670.8397,2032.5,674.8397,2022.5,670.8397,2026.5" style="stroke:#0F172A;stroke-width:1;"/><line style="stroke:#0F172A;stroke-width:1;" x1="670.8397" x2="670.8397" y1="535" y2="567"/><polygon fill="#0F172A" points="666.8397,557,670.8397,567,674.8397,557,670.8397,561" style="stroke:#0F172A;stroke-width:1;"/><?plantuml-src jLVRRjiu47tNLn3PbnQ8awPDBskZMAHEsWOecY19snS30IsDR6ueKajIzdeN_VSzl4YMxQ1m7XQ14KaSpVNCcP5z4AhcXbVCpdcXbqBDMCcbfSns9rEUFyoCRbGnrb8RzbkPuw_eIHHKyaQwZrgvhxmYzfdaWfp8-UCoj-8VOYUdlKDkZ5ucxI_AaxSl-sygxUZ3ZWzb-RPuiosbJK4cIKnFNxzwyVkMX3UVpb-zEZrv_Rft7jJdsYWoxEHDveIJnCvo9nR2hTY05TnneHpD37T2g-FppViVsZpOckTqMTNQk1lwgo7hR3_ALjU_6Niag-zANkR-f1z5oWPZvThpxbaXUALLiPCSUadloXSzWRx6a-AKYdVhmu-FABQE6xSjJvt-JcxAjxJ-pCAh6G96_f0LTd0rjMGMnBWgs0UXYWE4FxprKgmqEW3FKC5AgPSJ5M-EuHgoMjdZU3ymb6kL2qc3DeT7TZ4RPSCRuWMWPGMa9cg_YZ1RKtuuKSuWRx0CZrrZ3uE31KbonBmIvKQPADcpWxiaXp3fxrgAN3XsDRvaee2CBsTjoEBoZuFdpCr9iMShii-puITo_fxbZJ4u3kz0KZSc9xOGVA8WiP_BeupGa-oPqizzp5RBa53u8wppFRkXsyq1XjbyehxWT3y34zNOqFj2EZAMvRho9QpWzxqe3aEE2FaU6y9526itd7Yuhy6bJvNIqD5OFaMhLTpbSoOie0uemzWrF444mPg9GOSgvC5EiL64YO9DdMg9TAb2b41ZAE1vBAg9fgdOAbGFgr4o83IzL7CtPuqbE1oVx1sUm8lUf8Vc4ykD89zIFEOqlBluSd5tSOxAgLAOAiZxWiNR26mVu__g2M24QiY43PxFoRBas6YZ5haahfewz5mf59SO2GQlu35mRfiyfvqw0VYLNaJmhT_X9G3Rzgs7ROnpesF0DYisbJgqSVImTG1mwdHDr9O3FI1Pf-kUoXvcleYIyXNqiR7areeISy-VU1I5a7qoGl-0LX2YCwi0TqjkDy2GneZKXjXo3ifBoQoGVWiD4tLzS_NzylRowklbrq-7xDlr-TbTk0g9njKeEHiyt_O05MsSHTV462t0mysCdDtrnJL6UP9fL18j6yaw9lOTYNaUqpbH_OgVZUyklrzikF6pdp5FsgjG-dCZIiS-urA2VKBVZGFp49DY4KEFZlEPZpzoWGYOyuHV2f8WyCQKW692s4SDGXeeMWQg0Fp1s84ZYs2i04voznYu_iJp93IbKfjelcfSA2TOoVXVr9rCRnFbRkflcpew6nJvkl_QZREwbY2pRtNn12hLIgw2VwsDv5mXR2tvwbvXATjiY0THXrGgFT3rEaRFTYtcXpSD7XYz05WCcvEi_J-j7s0mCl1xLxO3u2Xo_qswzTDrVVQ32-nznhkVVFu1Shp0pcVQqazKfF7tZj31eU2vz-Zz-ERYpBC7c2Maf6yp9gcr2P780dsHI3Uj20ip1t5FL1WsSU8XLGCKPK4nVWnLoXj7TjGrGTigFiK-Qn7WtUDsE5uR7J3KiNwSHbiaLsi0SkMvnXTt4Ffda5WRgqwCOPJ802IWKnKiqW673rb8HBW2yrNGwsz6QB5Oju10l-io8sPpbwNzAgrKm-n9ArRMMzHyv4dPcWMwdHP1Pdwn4Y7C3ZY3QLoUnZVVpW_P4aWuZA8XDOCwfinZh_3va1P8CtIKOMuvewM41l0sbsj3hUEC5qKcCPeWe1z0vIYdmnfd2UXqCSs2y21cD9idgCL5JzSKMhg2wXclxL763SZBhMh2LWji3DadmfT0M3Jy0YlG-1LNV4OcoplduZAPOduqGHvIMLW6aZNZAuwF9Bs4UZiNzL6Mz0-tFp4oAvlPpjDbImEH1qtxeO7lZ6B8zlmgwQ8TibaRvs0xpbYaumwxmpMqZxDVuZTB8sou3tQpZcL29zbXsl1OVzADuhkKjGDlr0xzTkvbjkFQmB733Vw3Hw4v4xK7oeDx7QCdpims2Jq0Z4M0eNLoNfPQ5lTR5RdViqA_tAwpTbOXVZ0wPG6Y7flf_ZPPPnKoxoqop_iZr0H1Ud83o7hG70HaOXlf41UpcpBWarvfx-sH9uxmTVmV?></g></svg>