<?plantuml 1.2026.1?><svg xmlns="http://www.w3.org/2000/svg" xmlns:xlink="http://www.w3.org/1999/xlink" contentStyleType="text/css" data-diagram-type="ACTIVITY" height="1315px" preserveAspectRatio="none" style="width:717px;height:1315px;background:#FCFCFD;" version="1.1" viewBox="0 0 717 1315" width="717px" zoomAndPan="magnify"><title>Activity - desktops/DesktopsDesktopPool</title><defs/><g><rect fill="#FCFCFD" height="1315" style="stroke:none;stroke-width:1;" width="717" x="0" y="0"/><g class="title" data-source-line="10"><text fill="#000000" font-family="Helvetica" font-size="14" font-weight="bold" lengthAdjust="spacing" textLength="276.9512" x="218.7385" y="30.7803">Activity - desktops/DesktopsDesktopPool</text></g><ellipse cx="334.3882" cy="55" fill="#1D4ED8" rx="10" ry="10" style="stroke:#222222;stroke-width:1;"/><rect fill="#F8FAFC" height="48" rx="8" ry="8" style="stroke:#0F172A;stroke-width:0.5;" width="304.7852" x="181.9956" y="85"/><text fill="#0F172A" font-family="Helvetica" font-size="14" lengthAdjust="spacing" textLength="136.9375" x="191.9956" y="105.7803">Start from shared flow</text><text fill="#0F172A" font-family="Helvetica" font-size="14" lengthAdjust="spacing" textLength="284.7852" x="191.9956" y="119.7803">shared/diagrams/shared-reconcile-activity.svg</text><rect fill="#F8FAFC" height="48" rx="8" ry="8" style="stroke:#0F172A;stroke-width:0.5;" width="303.2881" x="182.7441" y="153"/><text fill="#0F172A" font-family="Helvetica" font-size="14" lengthAdjust="spacing" textLength="283.2881" x="192.7441" y="173.7803">Load desired DesktopsDesktopPool spec and</text><text fill="#0F172A" font-family="Helvetica" font-size="14" lengthAdjust="spacing" textLength="144.7373" x="192.7441" y="187.7803">status from Kubernetes</text><rect fill="#F8FAFC" height="48" rx="8" ry="8" style="stroke:#0F172A;stroke-width:0.5;" width="319.5781" x="174.5991" y="221"/><text fill="#0F172A" font-family="Helvetica" font-size="14" lengthAdjust="spacing" textLength="299.5781" x="184.5991" y="241.7803">Resolve OCI state via GetDesktopsDesktopPool</text><text fill="#0F172A" font-family="Helvetica" font-size="14" lengthAdjust="spacing" textLength="239.668" x="184.5991" y="255.7803">with ListDesktopsDesktopPool fallback</text><rect fill="#F8FAFC" height="62" rx="8" ry="8" style="stroke:#0F172A;stroke-width:0.5;" width="317.2402" x="175.7681" y="289"/><text fill="#0F172A" font-family="Helvetica" font-size="14" lengthAdjust="spacing" textLength="280.1777" x="185.7681" y="309.7803">Use scaffold_desktops_desktopsdesktoppool</text><text fill="#0F172A" font-family="Helvetica" font-size="14" lengthAdjust="spacing" textLength="297.2402" x="185.7681" y="323.7803">filters compartment_id, state when OCID lookup</text><text fill="#0F172A" font-family="Helvetica" font-size="14" lengthAdjust="spacing" textLength="259.9023" x="185.7681" y="337.7803">or bind-versus-create needs list resolution</text><polygon fill="#E2E8F0" points="280.6987,371,388.0776,371,400.0776,383,388.0776,395,280.6987,395,268.6987,383,280.6987,371" style="stroke:#1D4ED8;stroke-width:0.5;"/><text fill="#0F172A" font-family="Helvetica" font-size="14" lengthAdjust="spacing" textLength="107.3789" x="280.6987" y="386.7803">Resource exists?</text><text fill="#000000" font-family="Helvetica" font-size="14" lengthAdjust="spacing" textLength="21.7861" x="246.9126" y="379.7803">yes</text><text fill="#000000" font-family="Helvetica" font-size="14" lengthAdjust="spacing" textLength="15.5723" x="400.0776" y="379.7803">no</text><rect fill="#F8FAFC" height="34" rx="8" ry="8" style="stroke:#0F172A;stroke-width:0.5;" width="314.9502" x="11" y="405"/><text fill="#0F172A" font-family="Helvetica" font-size="14" lengthAdjust="spacing" textLength="294.9502" x="21" y="425.7803">Update path calls UpdateDesktopsDesktopPool</text><rect fill="#F8FAFC" height="48" rx="8" ry="8" style="stroke:#0F172A;stroke-width:0.5;" width="266.7021" x="35.124" y="459"/><text fill="#0F172A" font-family="Helvetica" font-size="14" lengthAdjust="spacing" textLength="246.7021" x="45.124" y="479.7803">Guard mutable fields display_name and</text><text fill="#0F172A" font-family="Helvetica" font-size="14" lengthAdjust="spacing" textLength="202.3096" x="45.124" y="493.7803">force-new fields compartment_id</text><rect fill="#F8FAFC" height="34" rx="8" ry="8" style="stroke:#0F172A;stroke-width:0.5;" width="308.7021" x="345.9502" y="405"/><text fill="#0F172A" font-family="Helvetica" font-size="14" lengthAdjust="spacing" textLength="288.7021" x="355.9502" y="425.7803">Create path calls CreateDesktopsDesktopPool</text><polygon fill="#E2E8F0" points="334.3882,513,346.3882,525,334.3882,537,322.3882,525,334.3882,513" style="stroke:#1D4ED8;stroke-width:0.5;"/><rect fill="#F8FAFC" height="104" rx="8" ry="8" style="stroke:#0F172A;stroke-width:0.5;" width="334.3164" x="167.23" y="557"/><text fill="#0F172A" font-family="Helvetica" font-size="14" lengthAdjust="spacing" textLength="164.2061" x="177.23" y="577.7803">Run provider helper hooks</text><text fill="#0F172A" font-family="Helvetica" font-size="14" lengthAdjust="spacing" textLength="219.0508" x="177.23" y="591.7803">create=tfresource.CreateResource,</text><text fill="#0F172A" font-family="Helvetica" font-size="14" lengthAdjust="spacing" textLength="314.3164" x="177.23" y="605.7803">tfresource.WaitForWorkRequestWithErrorHandling</text><text fill="#0F172A" font-family="Helvetica" font-size="14" lengthAdjust="spacing" textLength="215.5439" x="177.23" y="619.7803">entity=template action=CREATED;</text><text fill="#0F172A" font-family="Helvetica" font-size="14" lengthAdjust="spacing" textLength="226.085" x="177.23" y="633.7803">update=tfresource.UpdateResource;</text><text fill="#0F172A" font-family="Helvetica" font-size="14" lengthAdjust="spacing" textLength="212.8438" x="177.23" y="647.7803">delete=tfresource.DeleteResource</text><rect fill="#F8FAFC" height="34" rx="8" ry="8" style="stroke:#0F172A;stroke-width:0.5;" width="263.5918" x="202.5923" y="681"/><text fill="#0F172A" font-family="Helvetica" font-size="14" lengthAdjust="spacing" textLength="243.5918" x="212.5923" y="701.7803">Apply repo-authored secret policy none</text><rect fill="#F8FAFC" height="76" rx="8" ry="8" style="stroke:#0F172A;stroke-width:0.5;" width="307.1641" x="180.8062" y="735"/><text fill="#0F172A" font-family="Helvetica" font-size="14" lengthAdjust="spacing" textLength="287.1641" x="190.8062" y="755.7803">Delete path uses DeleteDesktopsDesktopPool</text><text fill="#0F172A" font-family="Helvetica" font-size="14" lengthAdjust="spacing" textLength="282.4678" x="190.8062" y="769.7803">with required via GetDesktopsDesktopPool or</text><text fill="#0F172A" font-family="Helvetica" font-size="14" lengthAdjust="spacing" textLength="243.5508" x="190.8062" y="783.7803">ListDesktopsDesktopPool to DELETED</text><text fill="#0F172A" font-family="Helvetica" font-size="14" lengthAdjust="spacing" textLength="76.2549" x="190.8062" y="797.7803">confirmation</text><rect fill="#F8FAFC" height="48" rx="8" ry="8" style="stroke:#0F172A;stroke-width:0.5;" width="279.1299" x="194.8232" y="831"/><text fill="#0F172A" font-family="Helvetica" font-size="14" lengthAdjust="spacing" textLength="259.1299" x="204.8232" y="851.7803">Project required status and finalizer policy</text><text fill="#0F172A" font-family="Helvetica" font-size="14" lengthAdjust="spacing" textLength="174.3027" x="204.8232" y="865.7803">retain-until-confirmed-delete</text><rect fill="#F8FAFC" height="34" rx="8" ry="8" style="stroke:#0F172A;stroke-width:0.5;" width="313.4189" x="177.6787" y="899"/><text fill="#0F172A" font-family="Helvetica" font-size="14" lengthAdjust="spacing" textLength="293.4189" x="187.6787" y="919.7803">Requeue on provisioning, updating, terminating</text><path d="M365.3882,943 L365.3882,1119 L345.3882,1123 L365.3882,1127 L365.3882,1303 A0,0 0 0 0 365.3882,1303 L705.4282,1303 A0,0 0 0 0 705.4282,1303 L705.4282,953 L695.4282,943 L365.3882,943 A0,0 0 0 0 365.3882,943" fill="#FFF7D6" style="stroke:#B45309;stroke-width:0.5;"/><path d="M695.4282,943 L695.4282,953 L705.4282,953 L695.4282,943" fill="#FFF7D6" style="stroke:#B45309;stroke-width:0.5;"/><text fill="#334155" font-family="Helvetica" font-size="14" lengthAdjust="spacing" textLength="101.165" x="371.3882" y="958.7803">shared diagram:</text><text fill="#334155" font-family="Helvetica" font-size="14" lengthAdjust="spacing" textLength="284.7852" x="371.3882" y="972.7803">shared/diagrams/shared-reconcile-activity.svg</text><text fill="#334155" font-family="Helvetica" font-size="14" lengthAdjust="spacing" textLength="265.3438" x="371.3882" y="986.7803">Start from the shared reconcile activity and</text><text fill="#334155" font-family="Helvetica" font-size="14" lengthAdjust="spacing" textLength="273.8955" x="371.3882" y="1000.7803">specialize provider-backed CRUD, wait, and</text><text fill="#334155" font-family="Helvetica" font-size="14" lengthAdjust="spacing" textLength="182.875" x="371.3882" y="1014.7803">status-projection details here.</text><text fill="#334155" font-family="Helvetica" font-size="14" lengthAdjust="spacing" textLength="229.5371" x="371.3882" y="1028.7803">Controller-local activity diagrams add</text><text fill="#334155" font-family="Helvetica" font-size="14" lengthAdjust="spacing" textLength="238.8955" x="371.3882" y="1042.7803">list-lookup hints, secret policies, delete</text><text fill="#334155" font-family="Helvetica" font-size="14" lengthAdjust="spacing" textLength="200.0332" x="371.3882" y="1056.7803">handling, and open formal gaps.</text><text fill="#334155" font-family="Helvetica" font-size="14" lengthAdjust="spacing" textLength="281.709" x="371.3882" y="1070.7803">archetype batch: Generated service-manager</text><text fill="#334155" font-family="Helvetica" font-size="14" lengthAdjust="spacing" textLength="291.0469" x="371.3882" y="1084.7803">controllers specialize the shared reconcile path</text><text fill="#334155" font-family="Helvetica" font-size="14" lengthAdjust="spacing" textLength="189.8477" x="371.3882" y="1098.7803">with formal runtime ownership.</text><text fill="#334155" font-family="Helvetica" font-size="14" lengthAdjust="spacing" textLength="108.1582" x="371.3882" y="1112.7803">service: desktops</text><text fill="#334155" font-family="Helvetica" font-size="14" lengthAdjust="spacing" textLength="164.999" x="371.3882" y="1126.7803">slug: desktopsdesktoppool</text><text fill="#334155" font-family="Helvetica" font-size="14" lengthAdjust="spacing" textLength="171.1992" x="371.3882" y="1140.7803">kind: DesktopsDesktopPool</text><text fill="#334155" font-family="Helvetica" font-size="14" lengthAdjust="spacing" textLength="241.2402" x="371.3882" y="1154.7803">archetype: generated-service-manager</text><text fill="#334155" font-family="Helvetica" font-size="14" lengthAdjust="spacing" textLength="156.4063" x="371.3882" y="1168.7803">status/finalizer: required /</text><text fill="#334155" font-family="Helvetica" font-size="14" lengthAdjust="spacing" textLength="174.3027" x="371.3882" y="1182.7803">retain-until-confirmed-delete</text><text fill="#334155" font-family="Helvetica" font-size="14" lengthAdjust="spacing" textLength="272.3984" x="371.3882" y="1196.7803">requeue: provisioning, updating, terminating</text><text fill="#334155" font-family="Helvetica" font-size="14" lengthAdjust="spacing" textLength="295.6816" x="371.3882" y="1210.7803">provider states: create PROVISIONING; update</text><text fill="#334155" font-family="Helvetica" font-size="14" lengthAdjust="spacing" textLength="192.165" x="371.3882" y="1224.7803">UPDATING; delete DELETING</text><text fill="#334155" font-family="Helvetica" font-size="14" lengthAdjust="spacing" textLength="319.04" x="371.3882" y="1238.7803">mutable/forceNew: display_name / compartment_id</text><text fill="#334155" font-family="Helvetica" font-size="14" lengthAdjust="spacing" textLength="104.3164" x="371.3882" y="1252.7803">open gaps: none</text><text fill="#334155" font-family="Helvetica" font-size="14" lengthAdjust="spacing" textLength="224.9023" x="371.3882" y="1266.7803">Scaffold metadata only; replace with</text><text fill="#334155" font-family="Helvetica" font-size="14" lengthAdjust="spacing" textLength="244.3232" x="371.3882" y="1280.7803">controller-specific runtime states before</text><text fill="#334155" font-family="Helvetica" font-size="14" lengthAdjust="spacing" textLength="66.1445" x="371.3882" y="1294.7803">promotion.</text><ellipse cx="334.3882" cy="1123" fill="none" rx="11" ry="11" style="stroke:#222222;stroke-width:1;"/><ellipse cx="334.3882" cy="1123" fill="#222222" rx="6" ry="6" style="stroke:#222222;stroke-width:1;"/><line style="stroke:#0F172A;stroke-width:1;" x1="334.3882" x2="334.3882" y1="65" y2="85"/><polygon fill="#0F172A" points="330.3882,75,334.3882,85,338.3882,75,334.3882,79" style="stroke:#0F172A;stroke-width:1;"/><line style="stroke:#0F172A;stroke-width:1;" x1="334.3882" x2="334.3882" y1="133" y2="153"/><polygon fill="#0F172A" points="330.3882,143,334.3882,153,338.3882,143,334.3882,147" style="stroke:#0F172A;stroke-width:1;"/><line style="stroke:#0F172A;stroke-width:1;" x1="334.3882" x2="334.3882" y1="201" y2="221"/><polygon fill="#0F172A" points="330.3882,211,334.3882,221,338.3882,211,334.3882,215" style="stroke:#0F172A;stroke-width:1;"/><line style="stroke:#0F172A;stroke-width:1;" x1="334.3882" x2="334.3882" y1="269" y2="289"/><polygon fill="#0F172A" points="330.3882,279,334.3882,289,338.3882,279,334.3882,283" style="stroke:#0F172A;stroke-width:1;"/><line style="stroke:#0F172A;stroke-width:1;" x1="168.4751" x2="168.4751" y1="439" y2="459"/><polygon fill="#0F172A" points="164.4751,449,168.4751,459,172.4751,449,168.4751,453" style="stroke:#0F172A;stroke-width:1;"/><line style="stroke:#0F172A;stroke-width:1;" x1="268.6987" x2="168.4751" y1="383" y2="383"/><line style="stroke:#0F172A;stroke-width:1;" x1="168.4751" x2="168.4751" y1="383" y2="405"/><polygon fill="#0F172A" points="164.4751,395,168.4751,405,172.4751,395,168.4751,399" style="stroke:#0F172A;stroke-width:1;"/><line style="stroke:#0F172A;stroke-width:1;" x1="400.0776" x2="500.3013" y1="383" y2="383"/><line style="stroke:#0F172A;stroke-width:1;" x1="500.3013" x2="500.3013" y1="383" y2="405"/><polygon fill="#0F172A" points="496.3013,395,500.3013,405,504.3013,395,500.3013,399" style="stroke:#0F172A;stroke-width:1;"/><line style="stroke:#0F172A;stroke-width:1;" x1="168.4751" x2="168.4751" y1="507" y2="525"/><line style="stroke:#0F172A;stroke-width:1;" x1="168.4751" x2="322.3882" y1="525" y2="525"/><polygon fill="#0F172A" points="312.3882,521,322.3882,525,312.3882,529,316.3882,525" style="stroke:#0F172A;stroke-width:1;"/><line style="stroke:#0F172A;stroke-width:1;" x1="500.3013" x2="500.3013" y1="439" y2="525"/><line style="stroke:#0F172A;stroke-width:1;" x1="500.3013" x2="346.3882" y1="525" y2="525"/><polygon fill="#0F172A" points="356.3882,521,346.3882,525,356.3882,529,352.3882,525" style="stroke:#0F172A;stroke-width:1;"/><line style="stroke:#0F172A;stroke-width:1;" x1="334.3882" x2="334.3882" y1="351" y2="371"/><polygon fill="#0F172A" points="330.3882,361,334.3882,371,338.3882,361,334.3882,365" style="stroke:#0F172A;stroke-width:1;"/><line style="stroke:#0F172A;stroke-width:1;" x1="334.3882" x2="334.3882" y1="537" y2="557"/><polygon fill="#0F172A" points="330.3882,547,334.3882,557,338.3882,547,334.3882,551" style="stroke:#0F172A;stroke-width:1;"/><line style="stroke:#0F172A;stroke-width:1;" x1="334.3882" x2="334.3882" y1="661" y2="681"/><polygon fill="#0F172A" points="330.3882,671,334.3882,681,338.3882,671,334.3882,675" style="stroke:#0F172A;stroke-width:1;"/><line style="stroke:#0F172A;stroke-width:1;" x1="334.3882" x2="334.3882" y1="715" y2="735"/><polygon fill="#0F172A" points="330.3882,725,334.3882,735,338.3882,725,334.3882,729" style="stroke:#0F172A;stroke-width:1;"/><line style="stroke:#0F172A;stroke-width:1;" x1="334.3882" x2="334.3882" y1="811" y2="831"/><polygon fill="#0F172A" points="330.3882,821,334.3882,831,338.3882,821,334.3882,825" style="stroke:#0F172A;stroke-width:1;"/><line style="stroke:#0F172A;stroke-width:1;" x1="334.3882" x2="334.3882" y1="879" y2="899"/><polygon fill="#0F172A" points="330.3882,889,334.3882,899,338.3882,889,334.3882,893" style="stroke:#0F172A;stroke-width:1;"/><line style="stroke:#0F172A;stroke-width:1;" x1="334.3882" x2="334.3882" y1="933" y2="1112"/><polygon fill="#0F172A" points="330.3882,1102,334.3882,1112,338.3882,1102,334.3882,1106" style="stroke:#0F172A;stroke-width:1;"/><?plantuml-src bLPHJoCt47xthnYfBvoKJU20ExeHgcZ2SQW841pb9H9orhDP5w-zjRr9qwh_lUFrPhFaGjMAXytQu_5yttppBUvLwefRNe8hk30hgHUGS-MGkMvdphFNXJMr5XEZZ8KVyep-H2z2OCvhvRyOxMzvYV0LrHAzpFZ-c4Vv9yBHIM-JMsjMRVR3_EZpn_v9RJp-_5qDUVvPVDgDCbQWRIFc9wV7Xp_kH8Jhs_tZuvEZqzFUVfC-CrQZXQDFp4kl42uoBvVIho4X1ExLcygDfksFzdblZEfZsPpuYy4UxivodcTXfrzhYnaWtzRNhGd9IwF5TnJWHppB3ti1_On7uWJ5sNRpovx4pdFhT-Enoz_5pVbErhzPSvIbZ-41kJMDVYmAo9LPpNHy6T7T2wB4ZU9xOZ4pEfCAamr9GxTSZ5bwOxW8_CgGOW-zu2hCW6j1gJttjOjt_bBFaThbqL6E1tI6P0Tta-k0p2Ci9OShz7lopVHA-W9kfDkt6oP0XSvHrYU7u3AUvqQ9buq2kX_jisfIvb9vj0uoKv8IV8dQlqWnQ8jP5QX3RLDGnhpMrKmJeNEfHRAaGxLBCeiXJYCA1ueg0niGrLuQFMOoXuE0iBOP0lv1s-wd3-13qeCrkWzKQIN2-OeJi8m0E8WhUm0IhgkQMm5bxVcSL9vBL7IhaAvIVFsYmn0tREU6xaiqhZOXRy6D6P9Nm84sLC0a0kWL45Vs5a0oaparhTPGMREKf5meK5NXGVoucOvydFlSjh27CTs6XS5Cz_QUkIHliS_6lZxWxpKw_qmTlYHViLy9YI9ZcsagcZHtxh4ac5HgKA7HvvE7oujlbzFnJDSDO_qx8uUREob4eCAt8TDcfGjXwKLLgJLrhp89htrXWgWT4XuFbL4oMvCLwH0OJqR6QeSEuiBxWhK4hPcHzwKDnixqUyBs1gQNDvS4blWrf5XRygYlzDwQtp3psolQGIFogFUQAp9jszO_quI5IvtKHAXAsamqu96SPXYf1pM2QTlhw19gmG0QXfjVD2ibvGqlO_8JKx5Wq63bel2iTPFMG5Bslmo5zMo99cHZJLtmrg8970lM8XjudHAJCFnqOlBmD1t0YgGrYA4D9KaLgI98v5d40oczG8j3DY6JjKOfog0CZS3seatXm8LWORYJw09GIEtTu8qy9D92P98LhNQR-y5KDEuqaYMbNl3A3HctMO5-NI6PjC-Ab4H1dozIR52SNKeQtf9hla3Biguu1ptCUmaAYcIDujhRREWqcO9PKNfNo6h8slnfzrraJjMBxMlF6nbz74MwpzYt059OR4fFTakFl8yw6QPRbOxOlqgHsIZ4zB_8a7LEr5YsIw7rvFk7kr-l7w_lRgzlhyRnBBAd--d5jsOXNXKdYnPOwwgZnZnlSPM-DTRHZecofgsXdsbZ3Eon_Tv0IT3eBavZfDRZu2YAa_s7nlJQcJJTp6NMTIcM3tEa2Z2WAarGwp2uRlDlq3y0?></g></svg>