<?plantuml 1.2026.1?><svg xmlns="http://www.w3.org/2000/svg" xmlns:xlink="http://www.w3.org/1999/xlink" contentStyleType="text/css" data-diagram-type="ACTIVITY" height="2226px" preserveAspectRatio="none" style="width:1258px;height:2226px;background:#FCFCFD;" version="1.1" viewBox="0 0 1258 2226" width="1258px" zoomAndPan="magnify"><title>Activity - objectstorage/ObjectStorageTier</title><defs/><g><rect fill="#FCFCFD" height="2226" style="stroke:none;stroke-width:1;" width="1258" x="0" y="0"/><g class="title" data-source-line="10"><text fill="#000000" font-family="Helvetica" font-size="14" font-weight="bold" lengthAdjust="spacing" textLength="280.0684" x="487.7881" y="30.7803">Activity - objectstorage/ObjectStorageTier</text></g><ellipse cx="667.9225" cy="55" fill="#1D4ED8" rx="10" ry="10" style="stroke:#222222;stroke-width:1;"/><rect fill="none" height="458" rx="8" ry="8" style="stroke:#000000;stroke-width:1.5;" width="620.1099" x="385.3053" y="75"/><path d="M507.3737,75 L507.3737,82 L497.3737,92 L385.3053,92" fill="none" style="stroke:#000000;stroke-width:1.5;"/><text fill="#000000" font-family="Helvetica" font-size="14" lengthAdjust="spacing" textLength="112.0684" x="388.3053" y="86.7803">Observe and Bind</text><rect fill="#F8FAFC" height="48" rx="8" ry="8" style="stroke:#0F172A;stroke-width:0.5;" width="304.7852" x="515.5299" y="109"/><text fill="#0F172A" font-family="Helvetica" font-size="14" lengthAdjust="spacing" textLength="136.9375" x="525.5299" y="129.7803">Start from shared flow</text><text fill="#0F172A" font-family="Helvetica" font-size="14" lengthAdjust="spacing" textLength="284.7852" x="525.5299" y="143.7803">shared/diagrams/shared-reconcile-activity.svg</text><rect fill="#F8FAFC" height="48" rx="8" ry="8" style="stroke:#0F172A;stroke-width:0.5;" width="307.9229" x="513.9611" y="177"/><text fill="#0F172A" font-family="Helvetica" font-size="14" lengthAdjust="spacing" textLength="287.9229" x="523.9611" y="197.7803">Read desired ObjectStorageTier spec, tracked</text><text fill="#0F172A" font-family="Helvetica" font-size="14" lengthAdjust="spacing" textLength="148.6611" x="523.9611" y="211.7803">status, and delete intent</text><polygon fill="#E2E8F0" points="538.4567,245,797.3883,245,809.3883,257,797.3883,269,538.4567,269,526.4567,257,538.4567,245" style="stroke:#1D4ED8;stroke-width:0.5;"/><text fill="#0F172A" font-family="Helvetica" font-size="14" lengthAdjust="spacing" textLength="258.9316" x="538.4567" y="260.7803">"Tracked or explicit OCI identity present?"</text><text fill="#000000" font-family="Helvetica" font-size="14" lengthAdjust="spacing" textLength="21.7861" x="504.6705" y="253.7803">yes</text><text fill="#000000" font-family="Helvetica" font-size="14" lengthAdjust="spacing" textLength="15.5723" x="809.3883" y="253.7803">no</text><rect fill="#F8FAFC" height="48" rx="8" ry="8" style="stroke:#0F172A;stroke-width:0.5;" width="222.3027" x="405.3053" y="279"/><text fill="#0F172A" font-family="Helvetica" font-size="14" lengthAdjust="spacing" textLength="202.3027" x="415.3053" y="299.7803">Get the current OCI resource via</text><text fill="#0F172A" font-family="Helvetica" font-size="14" lengthAdjust="spacing" textLength="136.1719" x="415.3053" y="313.7803">GetObjectStorageTier</text><rect fill="#F8FAFC" height="62" rx="8" ry="8" style="stroke:#0F172A;stroke-width:0.5;" width="279.9092" x="679.4337" y="279"/><text fill="#0F172A" font-family="Helvetica" font-size="14" lengthAdjust="spacing" textLength="259.9092" x="689.4337" y="299.7803">Resolve an existing OCI resource through</text><text fill="#0F172A" font-family="Helvetica" font-size="14" lengthAdjust="spacing" textLength="210.0889" x="689.4337" y="313.7803">ListObjectStorageTier using filters</text><text fill="#0F172A" font-family="Helvetica" font-size="14" lengthAdjust="spacing" textLength="138.5098" x="689.4337" y="327.7803">compartment_id, state</text><rect fill="#F8FAFC" height="62" rx="8" ry="8" style="stroke:#0F172A;stroke-width:0.5;" width="332.0537" x="653.3615" y="361"/><text fill="#0F172A" font-family="Helvetica" font-size="14" lengthAdjust="spacing" textLength="174.2959" x="663.3615" y="381.7803">Create the OCI resource via</text><text fill="#0F172A" font-family="Helvetica" font-size="14" lengthAdjust="spacing" textLength="312.0537" x="663.3615" y="395.7803">CreateObjectStorageTier when no reusable match</text><text fill="#0F172A" font-family="Helvetica" font-size="14" lengthAdjust="spacing" textLength="49.0342" x="663.3615" y="409.7803">is found</text><rect fill="#F8FAFC" height="48" rx="8" ry="8" style="stroke:#0F172A;stroke-width:0.5;" width="286.8955" x="675.9406" y="443"/><text fill="#0F172A" font-family="Helvetica" font-size="14" lengthAdjust="spacing" textLength="266.8955" x="685.9406" y="463.7803">Persist the resolved or created OCI identity</text><text fill="#0F172A" font-family="Helvetica" font-size="14" lengthAdjust="spacing" textLength="63.8135" x="685.9406" y="477.7803">into status</text><polygon fill="#E2E8F0" points="667.9225,497,679.9225,509,667.9225,521,655.9225,509,667.9225,497" style="stroke:#1D4ED8;stroke-width:0.5;"/><polygon fill="#E2E8F0" points="605.7462,553,730.0988,553,742.0988,565,730.0988,577,605.7462,577,593.7462,565,605.7462,553" style="stroke:#1D4ED8;stroke-width:0.5;"/><text fill="#0F172A" font-family="Helvetica" font-size="14" lengthAdjust="spacing" textLength="124.3525" x="605.7462" y="568.7803">"Delete requested?"</text><text fill="#000000" font-family="Helvetica" font-size="14" lengthAdjust="spacing" textLength="21.7861" x="571.9601" y="561.7803">yes</text><text fill="#000000" font-family="Helvetica" font-size="14" lengthAdjust="spacing" textLength="15.5723" x="742.0988" y="561.7803">no</text><rect fill="none" height="356" rx="8" ry="8" style="stroke:#000000;stroke-width:1.5;" width="644.4814" x="11" y="587"/><path d="M61.4688,587 L61.4688,594 L51.4688,604 L11,604" fill="none" style="stroke:#000000;stroke-width:1.5;"/><text fill="#000000" font-family="Helvetica" font-size="14" lengthAdjust="spacing" textLength="40.4688" x="14" y="598.7803">Delete</text><rect fill="#F8FAFC" height="62" rx="8" ry="8" style="stroke:#0F172A;stroke-width:0.5;" width="319.5645" x="179.9619" y="621"/><text fill="#0F172A" font-family="Helvetica" font-size="14" lengthAdjust="spacing" textLength="291.8193" x="189.9619" y="641.7803">Delete path uses DeleteObjectStorageTier with</text><text fill="#0F172A" font-family="Helvetica" font-size="14" lengthAdjust="spacing" textLength="229.5508" x="189.9619" y="655.7803">required via GetObjectStorageTier or</text><text fill="#0F172A" font-family="Helvetica" font-size="14" lengthAdjust="spacing" textLength="299.5645" x="189.9619" y="669.7803">ListObjectStorageTier to DELETED confirmation</text><rect fill="#F8FAFC" height="62" rx="8" ry="8" style="stroke:#0F172A;stroke-width:0.5;" width="300.123" x="189.6826" y="718"/><text fill="#0F172A" font-family="Helvetica" font-size="14" lengthAdjust="spacing" textLength="280.123" x="199.6826" y="738.7803">Confirm deletion via GetObjectStorageTier or</text><text fill="#0F172A" font-family="Helvetica" font-size="14" lengthAdjust="spacing" textLength="247.4404" x="199.6826" y="752.7803">ListObjectStorageTier until OCI reaches</text><text fill="#0F172A" font-family="Helvetica" font-size="14" lengthAdjust="spacing" textLength="64.5723" x="199.6826" y="766.7803">DELETED</text><polygon fill="#E2E8F0" points="191.5718,811,487.9165,811,499.9165,823,487.9165,835,191.5718,835,179.5718,823,191.5718,811" style="stroke:#1D4ED8;stroke-width:0.5;"/><text fill="#0F172A" font-family="Helvetica" font-size="14" lengthAdjust="spacing" textLength="296.3447" x="191.5718" y="826.7803">"Delete cleanup and finalizer release succeed?"</text><text fill="#000000" font-family="Helvetica" font-size="14" lengthAdjust="spacing" textLength="21.7861" x="157.7856" y="819.7803">yes</text><text fill="#000000" font-family="Helvetica" font-size="14" lengthAdjust="spacing" textLength="15.5723" x="499.9165" y="819.7803">no</text><rect fill="#F8FAFC" height="34" rx="8" ry="8" style="stroke:#0F172A;stroke-width:0.5;" width="293.1436" x="23" y="845"/><text fill="#0F172A" font-family="Helvetica" font-size="14" lengthAdjust="spacing" textLength="273.1436" x="33" y="865.7803">Remove the finalizer after delete completion</text><rect fill="#F8FAFC" height="48" rx="8" ry="8" style="stroke:#0F172A;stroke-width:0.5;" width="251.1299" x="384.3516" y="845"/><text fill="#0F172A" font-family="Helvetica" font-size="14" lengthAdjust="spacing" textLength="231.1299" x="394.3516" y="865.7803">Stay blocked until cleanup or finalizer</text><text fill="#0F172A" font-family="Helvetica" font-size="14" lengthAdjust="spacing" textLength="108.9512" x="394.3516" y="879.7803">release succeeds</text><polygon fill="#E2E8F0" points="339.7441,899,351.7441,911,339.7441,923,327.7441,911,339.7441,899" style="stroke:#1D4ED8;stroke-width:0.5;"/><ellipse cx="339.7441" cy="983" fill="none" rx="11" ry="11" style="stroke:#222222;stroke-width:1;"/><ellipse cx="339.7441" cy="983" fill="#222222" rx="6" ry="6" style="stroke:#222222;stroke-width:1;"/><rect fill="none" height="441" rx="8" ry="8" style="stroke:#000000;stroke-width:1.5;" width="345.916" x="829.1428" y="587"/><path d="M979.9768,587 L979.9768,594 L969.9768,604 L829.1428,604" fill="none" style="stroke:#000000;stroke-width:1.5;"/><text fill="#000000" font-family="Helvetica" font-size="14" lengthAdjust="spacing" textLength="140.834" x="832.1428" y="598.7803">Lifecycle Classification</text><rect fill="#F8FAFC" height="48" rx="8" ry="8" style="stroke:#0F172A;stroke-width:0.5;" width="280.5928" x="855.8044" y="670"/><text fill="#0F172A" font-family="Helvetica" font-size="14" lengthAdjust="spacing" textLength="240.4541" x="865.8044" y="690.7803">Request requeue while OCI remains in</text><text fill="#0F172A" font-family="Helvetica" font-size="14" lengthAdjust="spacing" textLength="260.5928" x="865.8044" y="704.7803">PROVISIONING, UPDATING, DELETING</text><ellipse cx="996.1008" cy="764" fill="none" rx="11" ry="11" style="stroke:#222222;stroke-width:1;"/><ellipse cx="996.1008" cy="764" fill="#222222" rx="6" ry="6" style="stroke:#222222;stroke-width:1;"/><polygon fill="#E2E8F0" points="909.8176,621,1082.384,621,1094.384,633,1082.384,645,909.8176,645,897.8176,633,909.8176,621" style="stroke:#1D4ED8;stroke-width:0.5;"/><text fill="#000000" font-family="Helvetica" font-size="14" lengthAdjust="spacing" textLength="21.7861" x="1000.1008" y="655.7803">yes</text><text fill="#0F172A" font-family="Helvetica" font-size="14" lengthAdjust="spacing" textLength="172.5664" x="909.8176" y="636.7803">"OCI state in retryable set?"</text><rect fill="#F8FAFC" height="48" rx="8" ry="8" style="stroke:#0F172A;stroke-width:0.5;" width="293.916" x="849.1428" y="886"/><text fill="#0F172A" font-family="Helvetica" font-size="14" lengthAdjust="spacing" textLength="273.916" x="859.1428" y="906.7803">Return an unsuccessful reconcile result until</text><text fill="#0F172A" font-family="Helvetica" font-size="14" lengthAdjust="spacing" textLength="133.041" x="859.1428" y="920.7803">OCI reaches ACTIVE</text><ellipse cx="996.1008" cy="974" fill="none" rx="11" ry="11" style="stroke:#222222;stroke-width:1;"/><ellipse cx="996.1008" cy="974" fill="#222222" rx="6" ry="6" style="stroke:#222222;stroke-width:1;"/><polygon fill="#E2E8F0" points="875.5798,837,1116.6218,837,1128.6218,849,1116.6218,861,875.5798,861,863.5798,849,875.5798,837" style="stroke:#1D4ED8;stroke-width:0.5;"/><text fill="#000000" font-family="Helvetica" font-size="14" lengthAdjust="spacing" textLength="21.7861" x="1000.1008" y="871.7803">yes</text><text fill="#0F172A" font-family="Helvetica" font-size="14" lengthAdjust="spacing" textLength="241.042" x="875.5798" y="852.7803">"OCI state is outside success targets?"</text><rect fill="none" height="722.5" rx="8" ry="8" style="stroke:#000000;stroke-width:1.5;" width="572.1631" x="675.4814" y="1038"/><path d="M841.9014,1038 L841.9014,1045 L831.9014,1055 L675.4814,1055" fill="none" style="stroke:#000000;stroke-width:1.5;"/><text fill="#000000" font-family="Helvetica" font-size="14" lengthAdjust="spacing" textLength="156.4199" x="678.4814" y="1049.7803">Ready and Drift Handling</text><rect fill="#F8FAFC" height="48" rx="8" ry="8" style="stroke:#0F172A;stroke-width:0.5;" width="296.2402" x="847.9807" y="1072"/><text fill="#0F172A" font-family="Helvetica" font-size="14" lengthAdjust="spacing" textLength="276.2402" x="857.9807" y="1092.7803">Compare live OCI state against the imported</text><text fill="#0F172A" font-family="Helvetica" font-size="14" lengthAdjust="spacing" textLength="75.4824" x="857.9807" y="1106.7803">field surface</text><rect fill="#F8FAFC" height="48" rx="8" ry="8" style="stroke:#0F172A;stroke-width:0.5;" width="302.4473" x="844.8772" y="1189"/><text fill="#0F172A" font-family="Helvetica" font-size="14" lengthAdjust="spacing" textLength="282.4473" x="854.8772" y="1209.7803">Reject drift before OCI mutation for force-new</text><text fill="#0F172A" font-family="Helvetica" font-size="14" lengthAdjust="spacing" textLength="136.9512" x="854.8772" y="1223.7803">fields compartment_id</text><ellipse cx="996.1008" cy="1269.5" fill="none" rx="11" ry="11" style="stroke:#222222;stroke-width:1;"/><ellipse cx="996.1008" cy="1269.5" fill="#222222" rx="6" ry="6" style="stroke:#222222;stroke-width:1;"/><polygon fill="#E2E8F0" points="870.5178,1140,1121.6838,1140,1133.6838,1152,1121.6838,1164,870.5178,1164,858.5178,1152,870.5178,1140" style="stroke:#1D4ED8;stroke-width:0.5;"/><text fill="#000000" font-family="Helvetica" font-size="14" lengthAdjust="spacing" textLength="21.7861" x="1000.1008" y="1174.7803">yes</text><text fill="#0F172A" font-family="Helvetica" font-size="14" lengthAdjust="spacing" textLength="251.166" x="870.5178" y="1155.7803">"Force-new or conflicting drift detected?"</text><polygon fill="#E2E8F0" points="885.6731,1322.5,1106.5286,1322.5,1118.5286,1334.5,1106.5286,1346.5,885.6731,1346.5,873.6731,1334.5,885.6731,1322.5" style="stroke:#1D4ED8;stroke-width:0.5;"/><text fill="#0F172A" font-family="Helvetica" font-size="14" lengthAdjust="spacing" textLength="220.8555" x="885.6731" y="1338.2803">"Supported mutable drift detected?"</text><text fill="#000000" font-family="Helvetica" font-size="14" lengthAdjust="spacing" textLength="21.7861" x="851.887" y="1331.2803">yes</text><text fill="#000000" font-family="Helvetica" font-size="14" lengthAdjust="spacing" textLength="15.5723" x="1118.5286" y="1331.2803">no</text><rect fill="#F8FAFC" height="48" rx="8" ry="8" style="stroke:#0F172A;stroke-width:0.5;" width="321.1572" x="695.4814" y="1356.5"/><text fill="#0F172A" font-family="Helvetica" font-size="14" lengthAdjust="spacing" textLength="301.1572" x="705.4814" y="1377.2803">Apply UpdateObjectStorageTier only for mutable</text><text fill="#0F172A" font-family="Helvetica" font-size="14" lengthAdjust="spacing" textLength="122.958" x="705.4814" y="1391.2803">fields display_name</text><rect fill="#F8FAFC" height="34" rx="8" ry="8" style="stroke:#0F172A;stroke-width:0.5;" width="199.0059" x="1036.6387" y="1356.5"/><text fill="#0F172A" font-family="Helvetica" font-size="14" lengthAdjust="spacing" textLength="179.0059" x="1046.6387" y="1377.2803">Skip the no-op mutation path</text><polygon fill="#E2E8F0" points="996.1008,1410.5,1008.1008,1422.5,996.1008,1434.5,984.1008,1422.5,996.1008,1410.5" style="stroke:#1D4ED8;stroke-width:0.5;"/><rect fill="#F8FAFC" height="118" rx="8" ry="8" style="stroke:#0F172A;stroke-width:0.5;" width="334.3164" x="828.9426" y="1454.5"/><text fill="#0F172A" font-family="Helvetica" font-size="14" lengthAdjust="spacing" textLength="164.2061" x="838.9426" y="1475.2803">Run provider helper hooks</text><text fill="#0F172A" font-family="Helvetica" font-size="14" lengthAdjust="spacing" textLength="219.0508" x="838.9426" y="1489.2803">create=tfresource.CreateResource,</text><text fill="#0F172A" font-family="Helvetica" font-size="14" lengthAdjust="spacing" textLength="314.3164" x="838.9426" y="1503.2803">tfresource.WaitForWorkRequestWithErrorHandling</text><text fill="#0F172A" font-family="Helvetica" font-size="14" lengthAdjust="spacing" textLength="215.5439" x="838.9426" y="1517.2803">entity=template action=CREATED;</text><text fill="#0F172A" font-family="Helvetica" font-size="14" lengthAdjust="spacing" textLength="226.085" x="838.9426" y="1531.2803">update=tfresource.UpdateResource;</text><text fill="#0F172A" font-family="Helvetica" font-size="14" lengthAdjust="spacing" textLength="273.5537" x="838.9426" y="1545.2803">delete=tfresource.DeleteResource when the</text><text fill="#0F172A" font-family="Helvetica" font-size="14" lengthAdjust="spacing" textLength="220.2334" x="838.9426" y="1559.2803">matching field-driven path executes</text><rect fill="#F8FAFC" height="34" rx="8" ry="8" style="stroke:#0F172A;stroke-width:0.5;" width="303.2197" x="844.491" y="1592.5"/><text fill="#0F172A" font-family="Helvetica" font-size="14" lengthAdjust="spacing" textLength="283.2197" x="854.491" y="1613.2803">Return success for the ACTIVE success state</text><rect fill="#F8FAFC" height="48" rx="8" ry="8" style="stroke:#0F172A;stroke-width:0.5;" width="279.1299" x="856.5359" y="1646.5"/><text fill="#0F172A" font-family="Helvetica" font-size="14" lengthAdjust="spacing" textLength="259.1299" x="866.5359" y="1667.2803">Project required status and finalizer policy</text><text fill="#0F172A" font-family="Helvetica" font-size="14" lengthAdjust="spacing" textLength="174.3027" x="866.5359" y="1681.2803">retain-until-confirmed-delete</text><rect fill="#F8FAFC" height="34" rx="8" ry="8" style="stroke:#0F172A;stroke-width:0.5;" width="313.4189" x="839.3914" y="1714.5"/><text fill="#0F172A" font-family="Helvetica" font-size="14" lengthAdjust="spacing" textLength="293.4189" x="849.3914" y="1735.2803">Requeue on provisioning, updating, terminating</text><path d="M698.9225,1770.5 L698.9225,1988.5 L678.9225,1992.5 L698.9225,1996.5 L698.9225,2214.5 A0,0 0 0 0 698.9225,2214.5 L1015.6041,2214.5 A0,0 0 0 0 1015.6041,2214.5 L1015.6041,1780.5 L1005.6041,1770.5 L698.9225,1770.5 A0,0 0 0 0 698.9225,1770.5" fill="#FFF7D6" style="stroke:#B45309;stroke-width:0.5;"/><path d="M1005.6041,1770.5 L1005.6041,1780.5 L1015.6041,1780.5 L1005.6041,1770.5" fill="#FFF7D6" style="stroke:#B45309;stroke-width:0.5;"/><text fill="#334155" font-family="Helvetica" font-size="14" lengthAdjust="spacing" textLength="101.165" x="704.9225" y="1786.2803">shared diagram:</text><text fill="#334155" font-family="Helvetica" font-size="14" lengthAdjust="spacing" textLength="284.7852" x="704.9225" y="1800.2803">shared/diagrams/shared-reconcile-activity.svg</text><text fill="#334155" font-family="Helvetica" font-size="14" lengthAdjust="spacing" textLength="265.3438" x="704.9225" y="1814.2803">Start from the shared reconcile activity and</text><text fill="#334155" font-family="Helvetica" font-size="14" lengthAdjust="spacing" textLength="273.8955" x="704.9225" y="1828.2803">specialize provider-backed CRUD, wait, and</text><text fill="#334155" font-family="Helvetica" font-size="14" lengthAdjust="spacing" textLength="182.875" x="704.9225" y="1842.2803">status-projection details here.</text><text fill="#334155" font-family="Helvetica" font-size="14" lengthAdjust="spacing" textLength="229.5371" x="704.9225" y="1856.2803">Controller-local activity diagrams add</text><text fill="#334155" font-family="Helvetica" font-size="14" lengthAdjust="spacing" textLength="238.8955" x="704.9225" y="1870.2803">list-lookup hints, secret policies, delete</text><text fill="#334155" font-family="Helvetica" font-size="14" lengthAdjust="spacing" textLength="200.0332" x="704.9225" y="1884.2803">handling, and open formal gaps.</text><text fill="#334155" font-family="Helvetica" font-size="14" lengthAdjust="spacing" textLength="281.709" x="704.9225" y="1898.2803">archetype batch: Generated service-manager</text><text fill="#334155" font-family="Helvetica" font-size="14" lengthAdjust="spacing" textLength="291.0469" x="704.9225" y="1912.2803">controllers specialize the shared reconcile path</text><text fill="#334155" font-family="Helvetica" font-size="14" lengthAdjust="spacing" textLength="189.8477" x="704.9225" y="1926.2803">with formal runtime ownership.</text><text fill="#334155" font-family="Helvetica" font-size="14" lengthAdjust="spacing" textLength="136.1787" x="704.9225" y="1940.2803">service: objectstorage</text><text fill="#334155" font-family="Helvetica" font-size="14" lengthAdjust="spacing" textLength="136.9648" x="704.9225" y="1954.2803">slug: objectstoragetier</text><text fill="#334155" font-family="Helvetica" font-size="14" lengthAdjust="spacing" textLength="147.0684" x="704.9225" y="1968.2803">kind: ObjectStorageTier</text><text fill="#334155" font-family="Helvetica" font-size="14" lengthAdjust="spacing" textLength="241.2402" x="704.9225" y="1982.2803">archetype: generated-service-manager</text><text fill="#334155" font-family="Helvetica" font-size="14" lengthAdjust="spacing" textLength="156.4063" x="704.9225" y="1996.2803">status/finalizer: required /</text><text fill="#334155" font-family="Helvetica" font-size="14" lengthAdjust="spacing" textLength="174.3027" x="704.9225" y="2010.2803">retain-until-confirmed-delete</text><text fill="#334155" font-family="Helvetica" font-size="14" lengthAdjust="spacing" textLength="272.3984" x="704.9225" y="2024.2803">requeue: provisioning, updating, terminating</text><text fill="#334155" font-family="Helvetica" font-size="14" lengthAdjust="spacing" textLength="295.6816" x="704.9225" y="2038.2803">provider states: create PROVISIONING; update</text><text fill="#334155" font-family="Helvetica" font-size="14" lengthAdjust="spacing" textLength="192.165" x="704.9225" y="2052.2803">UPDATING; delete DELETING</text><text fill="#334155" font-family="Helvetica" font-size="14" lengthAdjust="spacing" textLength="183.6611" x="704.9225" y="2066.2803">supported drift: display_name</text><text fill="#334155" font-family="Helvetica" font-size="14" lengthAdjust="spacing" textLength="230.3301" x="704.9225" y="2080.2803">reject before mutate: force-new fields</text><text fill="#334155" font-family="Helvetica" font-size="14" lengthAdjust="spacing" textLength="100.3789" x="704.9225" y="2094.2803">compartment_id</text><text fill="#334155" font-family="Helvetica" font-size="14" lengthAdjust="spacing" textLength="66.1445" x="704.9225" y="2108.2803">list lookup:</text><text fill="#334155" font-family="Helvetica" font-size="14" lengthAdjust="spacing" textLength="288.7158" x="704.9225" y="2122.2803">scaffold_objectstorage_objectstoragetier filters</text><text fill="#334155" font-family="Helvetica" font-size="14" lengthAdjust="spacing" textLength="138.5098" x="704.9225" y="2136.2803">compartment_id, state</text><text fill="#334155" font-family="Helvetica" font-size="14" lengthAdjust="spacing" textLength="89.4961" x="704.9225" y="2150.2803">conflicts: none</text><text fill="#334155" font-family="Helvetica" font-size="14" lengthAdjust="spacing" textLength="104.3164" x="704.9225" y="2164.2803">open gaps: none</text><text fill="#334155" font-family="Helvetica" font-size="14" lengthAdjust="spacing" textLength="224.9023" x="704.9225" y="2178.2803">Scaffold metadata only; replace with</text><text fill="#334155" font-family="Helvetica" font-size="14" lengthAdjust="spacing" textLength="244.3232" x="704.9225" y="2192.2803">controller-specific runtime states before</text><text fill="#334155" font-family="Helvetica" font-size="14" lengthAdjust="spacing" textLength="66.1445" x="704.9225" y="2206.2803">promotion.</text><ellipse cx="667.9225" cy="1992.5" fill="none" rx="11" ry="11" style="stroke:#222222;stroke-width:1;"/><ellipse cx="667.9225" cy="1992.5" fill="#222222" rx="6" ry="6" style="stroke:#222222;stroke-width:1;"/><line style="stroke:#0F172A;stroke-width:1;" x1="667.9225" x2="667.9225" y1="157" y2="177"/><polygon fill="#0F172A" points="663.9225,167,667.9225,177,671.9225,167,667.9225,171" style="stroke:#0F172A;stroke-width:1;"/><line style="stroke:#0F172A;stroke-width:1;" x1="819.3883" x2="819.3883" y1="341" y2="361"/><polygon fill="#0F172A" points="815.3883,351,819.3883,361,823.3883,351,819.3883,355" style="stroke:#0F172A;stroke-width:1;"/><line style="stroke:#0F172A;stroke-width:1;" x1="819.3883" x2="819.3883" y1="423" y2="443"/><polygon fill="#0F172A" points="815.3883,433,819.3883,443,823.3883,433,819.3883,437" style="stroke:#0F172A;stroke-width:1;"/><line style="stroke:#0F172A;stroke-width:1;" x1="526.4567" x2="516.4567" y1="257" y2="257"/><line style="stroke:#0F172A;stroke-width:1;" x1="516.4567" x2="516.4567" y1="257" y2="279"/><polygon fill="#0F172A" points="512.4567,269,516.4567,279,520.4567,269,516.4567,273" style="stroke:#0F172A;stroke-width:1;"/><line style="stroke:#0F172A;stroke-width:1;" x1="809.3883" x2="819.3883" y1="257" y2="257"/><line style="stroke:#0F172A;stroke-width:1;" x1="819.3883" x2="819.3883" y1="257" y2="279"/><polygon fill="#0F172A" points="815.3883,269,819.3883,279,823.3883,269,819.3883,273" style="stroke:#0F172A;stroke-width:1;"/><line style="stroke:#0F172A;stroke-width:1;" x1="516.4567" x2="516.4567" y1="327" y2="509"/><line style="stroke:#0F172A;stroke-width:1;" x1="516.4567" x2="655.9225" y1="509" y2="509"/><polygon fill="#0F172A" points="645.9225,505,655.9225,509,645.9225,513,649.9225,509" style="stroke:#0F172A;stroke-width:1;"/><line style="stroke:#0F172A;stroke-width:1;" x1="819.3883" x2="819.3883" y1="491" y2="509"/><line style="stroke:#0F172A;stroke-width:1;" x1="819.3883" x2="679.9225" y1="509" y2="509"/><polygon fill="#0F172A" points="689.9225,505,679.9225,509,689.9225,513,685.9225,509" style="stroke:#0F172A;stroke-width:1;"/><line style="stroke:#0F172A;stroke-width:1;" x1="667.9225" x2="667.9225" y1="225" y2="245"/><polygon fill="#0F172A" points="663.9225,235,667.9225,245,671.9225,235,667.9225,239" style="stroke:#0F172A;stroke-width:1;"/><line style="stroke:#0F172A;stroke-width:1;" x1="667.9225" x2="667.9225" y1="65" y2="109"/><polygon fill="#0F172A" points="663.9225,99,667.9225,109,671.9225,99,667.9225,103" style="stroke:#0F172A;stroke-width:1;"/><line style="stroke:#0F172A;stroke-width:1;" x1="339.7441" x2="339.7441" y1="683" y2="718"/><polygon fill="#0F172A" points="335.7441,708,339.7441,718,343.7441,708,339.7441,712" style="stroke:#0F172A;stroke-width:1;"/><line style="stroke:#0F172A;stroke-width:1;" x1="179.5718" x2="169.5718" y1="823" y2="823"/><line style="stroke:#0F172A;stroke-width:1;" x1="169.5718" x2="169.5718" y1="823" y2="845"/><polygon fill="#0F172A" points="165.5718,835,169.5718,845,173.5718,835,169.5718,839" style="stroke:#0F172A;stroke-width:1;"/><line style="stroke:#0F172A;stroke-width:1;" x1="499.9165" x2="509.9165" y1="823" y2="823"/><line style="stroke:#0F172A;stroke-width:1;" x1="509.9165" x2="509.9165" y1="823" y2="845"/><polygon fill="#0F172A" points="505.9165,835,509.9165,845,513.9165,835,509.9165,839" style="stroke:#0F172A;stroke-width:1;"/><line style="stroke:#0F172A;stroke-width:1;" x1="169.5718" x2="169.5718" y1="879" y2="911"/><line style="stroke:#0F172A;stroke-width:1;" x1="169.5718" x2="327.7441" y1="911" y2="911"/><polygon fill="#0F172A" points="317.7441,907,327.7441,911,317.7441,915,321.7441,911" style="stroke:#0F172A;stroke-width:1;"/><line style="stroke:#0F172A;stroke-width:1;" x1="509.9165" x2="509.9165" y1="893" y2="911"/><line style="stroke:#0F172A;stroke-width:1;" x1="509.9165" x2="351.7441" y1="911" y2="911"/><polygon fill="#0F172A" points="361.7441,907,351.7441,911,361.7441,915,357.7441,911" style="stroke:#0F172A;stroke-width:1;"/><line style="stroke:#0F172A;stroke-width:1;" x1="339.7441" x2="339.7441" y1="780" y2="811"/><polygon fill="#0F172A" points="335.7441,801,339.7441,811,343.7441,801,339.7441,805" style="stroke:#0F172A;stroke-width:1;"/><line style="stroke:#0F172A;stroke-width:1;" x1="339.7441" x2="339.7441" y1="923" y2="972"/><polygon fill="#0F172A" points="335.7441,962,339.7441,972,343.7441,962,339.7441,966" style="stroke:#0F172A;stroke-width:1;"/><line style="stroke:#0F172A;stroke-width:1;" x1="996.1008" x2="996.1008" y1="718" y2="753"/><polygon fill="#0F172A" points="992.1008,743,996.1008,753,1000.1008,743,996.1008,747" style="stroke:#0F172A;stroke-width:1;"/><line style="stroke:#0F172A;stroke-width:1;" x1="996.1008" x2="996.1008" y1="645" y2="670"/><polygon fill="#0F172A" points="992.1008,660,996.1008,670,1000.1008,660,996.1008,664" style="stroke:#0F172A;stroke-width:1;"/><line style="stroke:#0F172A;stroke-width:1;" x1="1094.384" x2="1146.3972" y1="633" y2="633"/><polygon fill="#0F172A" points="1142.3972,709.5,1146.3972,719.5,1150.3972,709.5,1146.3972,713.5" style="stroke:#0F172A;stroke-width:1;"/><line style="stroke:#0F172A;stroke-width:1;" x1="1146.3972" x2="1146.3972" y1="633" y2="802"/><line style="stroke:#0F172A;stroke-width:1;" x1="1146.3972" x2="996.1008" y1="802" y2="802"/><line style="stroke:#0F172A;stroke-width:1;" x1="996.1008" x2="996.1008" y1="802" y2="837"/><polygon fill="#0F172A" points="992.1008,827,996.1008,837,1000.1008,827,996.1008,831" style="stroke:#0F172A;stroke-width:1;"/><line style="stroke:#0F172A;stroke-width:1;" x1="996.1008" x2="996.1008" y1="934" y2="963"/><polygon fill="#0F172A" points="992.1008,953,996.1008,963,1000.1008,953,996.1008,957" style="stroke:#0F172A;stroke-width:1;"/><line style="stroke:#0F172A;stroke-width:1;" x1="996.1008" x2="996.1008" y1="861" y2="886"/><polygon fill="#0F172A" points="992.1008,876,996.1008,886,1000.1008,876,996.1008,880" style="stroke:#0F172A;stroke-width:1;"/><line style="stroke:#0F172A;stroke-width:1;" x1="1128.6218" x2="1153.0588" y1="849" y2="849"/><polygon fill="#0F172A" points="1149.0588,925.5,1153.0588,935.5,1157.0588,925.5,1153.0588,929.5" style="stroke:#0F172A;stroke-width:1;"/><line style="stroke:#0F172A;stroke-width:1;" x1="1153.0588" x2="1153.0588" y1="849" y2="1016"/><line style="stroke:#0F172A;stroke-width:1;" x1="1153.0588" x2="996.1008" y1="1016" y2="1016"/><line style="stroke:#0F172A;stroke-width:1;" x1="996.1008" x2="996.1008" y1="1016" y2="1072"/><polygon fill="#0F172A" points="992.1008,1062,996.1008,1072,1000.1008,1062,996.1008,1066" style="stroke:#0F172A;stroke-width:1;"/><line style="stroke:#0F172A;stroke-width:1;" x1="996.1008" x2="996.1008" y1="1237" y2="1258.5"/><polygon fill="#0F172A" points="992.1008,1248.5,996.1008,1258.5,1000.1008,1248.5,996.1008,1252.5" style="stroke:#0F172A;stroke-width:1;"/><line style="stroke:#0F172A;stroke-width:1;" x1="996.1008" x2="996.1008" y1="1164" y2="1189"/><polygon fill="#0F172A" points="992.1008,1179,996.1008,1189,1000.1008,1179,996.1008,1183" style="stroke:#0F172A;stroke-width:1;"/><line style="stroke:#0F172A;stroke-width:1;" x1="1133.6838" x2="1157.3245" y1="1152" y2="1152"/><polygon fill="#0F172A" points="1153.3245,1228.5,1157.3245,1238.5,1161.3245,1228.5,1157.3245,1232.5" style="stroke:#0F172A;stroke-width:1;"/><line style="stroke:#0F172A;stroke-width:1;" x1="1157.3245" x2="1157.3245" y1="1152" y2="1302.5"/><line style="stroke:#0F172A;stroke-width:1;" x1="1157.3245" x2="996.1008" y1="1302.5" y2="1302.5"/><line style="stroke:#0F172A;stroke-width:1;" x1="996.1008" x2="996.1008" y1="1302.5" y2="1322.5"/><polygon fill="#0F172A" points="992.1008,1312.5,996.1008,1322.5,1000.1008,1312.5,996.1008,1316.5" style="stroke:#0F172A;stroke-width:1;"/><line style="stroke:#0F172A;stroke-width:1;" x1="996.1008" x2="996.1008" y1="1120" y2="1140"/><polygon fill="#0F172A" points="992.1008,1130,996.1008,1140,1000.1008,1130,996.1008,1134" style="stroke:#0F172A;stroke-width:1;"/><line style="stroke:#0F172A;stroke-width:1;" x1="873.6731" x2="856.0601" y1="1334.5" y2="1334.5"/><line style="stroke:#0F172A;stroke-width:1;" x1="856.0601" x2="856.0601" y1="1334.5" y2="1356.5"/><polygon fill="#0F172A" points="852.0601,1346.5,856.0601,1356.5,860.0601,1346.5,856.0601,1350.5" style="stroke:#0F172A;stroke-width:1;"/><line style="stroke:#0F172A;stroke-width:1;" x1="1118.5286" x2="1136.1416" y1="1334.5" y2="1334.5"/><line style="stroke:#0F172A;stroke-width:1;" x1="1136.1416" x2="1136.1416" y1="1334.5" y2="1356.5"/><polygon fill="#0F172A" points="1132.1416,1346.5,1136.1416,1356.5,1140.1416,1346.5,1136.1416,1350.5" style="stroke:#0F172A;stroke-width:1;"/><line style="stroke:#0F172A;stroke-width:1;" x1="856.0601" x2="856.0601" y1="1404.5" y2="1422.5"/><line style="stroke:#0F172A;stroke-width:1;" x1="856.0601" x2="984.1008" y1="1422.5" y2="1422.5"/><polygon fill="#0F172A" points="974.1008,1418.5,984.1008,1422.5,974.1008,1426.5,978.1008,1422.5" style="stroke:#0F172A;stroke-width:1;"/><line style="stroke:#0F172A;stroke-width:1;" x1="1136.1416" x2="1136.1416" y1="1390.5" y2="1422.5"/><line style="stroke:#0F172A;stroke-width:1;" x1="1136.1416" x2="1008.1008" y1="1422.5" y2="1422.5"/><polygon fill="#0F172A" points="1018.1008,1418.5,1008.1008,1422.5,1018.1008,1426.5,1014.1008,1422.5" style="stroke:#0F172A;stroke-width:1;"/><line style="stroke:#0F172A;stroke-width:1;" x1="996.1008" x2="996.1008" y1="1434.5" y2="1454.5"/><polygon fill="#0F172A" points="992.1008,1444.5,996.1008,1454.5,1000.1008,1444.5,996.1008,1448.5" style="stroke:#0F172A;stroke-width:1;"/><line style="stroke:#0F172A;stroke-width:1;" x1="996.1008" x2="996.1008" y1="1572.5" y2="1592.5"/><polygon fill="#0F172A" points="992.1008,1582.5,996.1008,1592.5,1000.1008,1582.5,996.1008,1586.5" style="stroke:#0F172A;stroke-width:1;"/><line style="stroke:#0F172A;stroke-width:1;" x1="996.1008" x2="996.1008" y1="1626.5" y2="1646.5"/><polygon fill="#0F172A" points="992.1008,1636.5,996.1008,1646.5,1000.1008,1636.5,996.1008,1640.5" style="stroke:#0F172A;stroke-width:1;"/><line style="stroke:#0F172A;stroke-width:1;" x1="996.1008" x2="996.1008" y1="1694.5" y2="1714.5"/><polygon fill="#0F172A" points="992.1008,1704.5,996.1008,1714.5,1000.1008,1704.5,996.1008,1708.5" style="stroke:#0F172A;stroke-width:1;"/><line style="stroke:#0F172A;stroke-width:1;" x1="593.7462" x2="339.7441" y1="565" y2="565"/><line style="stroke:#0F172A;stroke-width:1;" x1="339.7441" x2="339.7441" y1="565" y2="621"/><polygon fill="#0F172A" points="335.7441,611,339.7441,621,343.7441,611,339.7441,615" style="stroke:#0F172A;stroke-width:1;"/><line style="stroke:#0F172A;stroke-width:1;" x1="742.0988" x2="996.1008" y1="565" y2="565"/><line style="stroke:#0F172A;stroke-width:1;" x1="996.1008" x2="996.1008" y1="565" y2="621"/><polygon fill="#0F172A" points="992.1008,611,996.1008,621,1000.1008,611,996.1008,615" style="stroke:#0F172A;stroke-width:1;"/><line style="stroke:#0F172A;stroke-width:1;" x1="996.1008" x2="996.1008" y1="1748.5" y2="1765.5"/><line style="stroke:#0F172A;stroke-width:1;" x1="996.1008" x2="667.9225" y1="1765.5" y2="1765.5"/><line style="stroke:#0F172A;stroke-width:1;" x1="667.9225" x2="667.9225" y1="1765.5" y2="1981.5"/><polygon fill="#0F172A" points="663.9225,1971.5,667.9225,1981.5,671.9225,1971.5,667.9225,1975.5" style="stroke:#0F172A;stroke-width:1;"/><line style="stroke:#0F172A;stroke-width:1;" x1="667.9225" x2="667.9225" y1="521" y2="553"/><polygon fill="#0F172A" points="663.9225,543,667.9225,553,671.9225,543,667.9225,547" style="stroke:#0F172A;stroke-width:1;"/><?plantuml-src dLVRRXit47tVho3SbmIGx3ZtIWWAHtOQ0q5is4xo8i2WbhCIQuhSabovQf5_x-5bLwjBWxOm3EykXyEPCsSEn-v1wffRlcHkmOLvb7hEAguS5QvRcV7oOMvDeyN4A6FPJrM97z6p45JnHlaFHllFV4di8waLULdompQtyazYfozxYznQyvYzFwjEtpplxzJ6q_kz6AhgZNYzQsMi89ijPYzVlNZsyuv5E3wlltZnylJLgzvwT5yQgycoqzU5bruHEokzN4c_PaDcPhzHwPqtbi_fv2g-tQQtEqcsdqwxwQ-27O3lRSMhCgpqmyrfCrPjGko-2ScNHeiz5EWvlQsUzGpw7a_5In9lDuiV3ZXsdbk_Qq-T_yvkndUyVY_YrW890oXfD3kwcZcoAs9S2_PUQd64z4UtmOfLraI6MHAiKkPngjFB2KAR0p5tajw7bagZIwbes69ux5RpSJ6w8Ix08IU3YpticQkf731l0H09UFVSDsuGGn6ao1EJsfFsuq9MxCdHNJ9aI8Z-g9KifMTNaqic1Mn2uMfB3e-_73rbVa6QFLcJUrgCVYKVtbdPM8lbk0UMfh4biPNaKmsBlUZ61Q6Zs1DjdeP4d54H9HmjdGyTj-N6Br3X-MAgFs5rFzF6nHwLofDrKrsQPIZ14j7SIp481VK4l2QMy123tGyoBUxxVWofQWFhnl4PsB_alaGaqe6LO1tyNkDKn1KTsvHAXB6CBiKMYjYelM6f60112rc1EB42vwagbdvlo67Z3j8zMYNBIAQygUP-0Hp8iVJXG2BI8-pWFF85IRD3XK7W_mGpuZw_-7HnTt7EmCXAMa21S0AowJNnAaJuFxmtm4Vbml1oGIXaFcsy1K-fYEkcZZokfEOAoccn1vz1ADUK9Ur11uOjpIgLVhE7L-1Bsmk1D2duBMgYLzTifaniZHHY6m0gtFaAm6u5qAijrB7kkUoLyPEig5p37viexfoiS3s4bL3Oc7908x8NhOeKlLr72Zho-mb6qYJoD0JQGZ0ocaikjOE7gRw-kVfwUNjvzVdoywy3zkNw_EmkFaMWyJJEmSR8ToDmp3JUWSWfH-SOT6nEtkt7uXkhGpStEfjMZMATZeKcmRMNu9pgNidPsUJkykl5LXZV-uW5oLl7qfzRMNds4OyApHzROHBxdfYIgvHw2fpFG_wfFUMoDjO7EQmaAO5CRCLBoWpxO207GqsFiNl1QQXW52CH3nFWIUaFaIjmEHlDg38s7RziV2mdXCA6t-Gx7-tOjapjGt_Rr2dOw2ZK_STXdDMrMhCljJYeOqPZCGIIdNLX2EbgnTVt6bFADlKVP1r1qsPewaqsGMfQTezk6domPWLQMBOWLOS_nZm46OxozyvNhT0U9uszoQ-3gUwjVUCIWv3zPkn3vl8t2DO5XY3R5dcgauQ-yuHUZQKjGqJl9ZSNPq4dfcXBiNDcmgCz4oQft_icILXQawJuo7kgezIdgmLG3G7_YbB-kAUeR3ovSKVtjYa2nW6rHENkSti9NLiJsT89SReATkIiDg3UEgYA1tc7iLE6MNGn4gGSnhdjqUucLy413WGyO168-0IDMy9lU1cZcLBT8jV2yCUid2zyaUUGF7gCYlyqYXIzWIPadfrj-hsR_P1a4SOI6TFiY3ESfT5ZSlFbVC0UmOH1CetG3Ei4MU2U27We1wPPEYvmxNXhb887A3HNcuFQm1aNeb2uRs1W7Y3QAAV74EG8xFG9Padua10j5fbgQKmoDSNcNSBrdDVkkE0MCkNNDM7w0pT6kEGm6iTRFWnw4Ys-v1ezPuko2ywnNiu70GgKAi85tPvcGyNnNuDvX7ktaFLnaVsFjcVkmgbcllFDXyaRWxSOxK-5cmn6RDx6FjoDFG5_ql5njA7hIV53JXRv0Xhz6puMdNB4xd2ZF3An_ZqrJdkfQA-hSNjbjxTMuJgbZ0evsj8qH1GRBWjpb364r-bnQcvNRCjn90rBf44xbBogZ1BtMpZVxw7Upg35mH6qQAyK9AgDfYBoAn0hlz_cOzWI42Dd7bLx3F2HJL0cCAJ7gs6a5OQ6ZYu9nfngG7TfGjiSXwwF_-lz3G00?></g></svg>