<?plantuml 1.2026.1?><svg xmlns="http://www.w3.org/2000/svg" xmlns:xlink="http://www.w3.org/1999/xlink" contentStyleType="text/css" data-diagram-type="SEQUENCE" height="2062px" preserveAspectRatio="none" style="width:1265px;height:2062px;background:#FCFCFD;" version="1.1" viewBox="0 0 1265 2062" width="1265px" zoomAndPan="magnify"><title>Sequence - databasemanagement/DatabaseManagementCloudCluster</title><defs/><g><rect fill="#FCFCFD" height="2062" style="stroke:none;stroke-width:1;" width="1265" x="0" y="0"/><text fill="#000000" font-family="Helvetica" font-size="14" font-weight="bold" lengthAdjust="spacing" textLength="465.2402" x="404.9648" y="25.7803">Sequence - databasemanagement/DatabaseManagementCloudCluster</text><rect fill="none" height="290" rx="8" ry="8" style="stroke:#CBD5E1;stroke-width:1.5;" width="738.3779" x="463.1768" y="356"/><rect fill="none" height="146" rx="8" ry="8" style="stroke:#CBD5E1;stroke-width:1.5;" width="475.9575" x="715.5972" y="465"/><rect fill="none" height="44" rx="8" ry="8" style="stroke:#CBD5E1;stroke-width:1.5;" width="455.9575" x="725.5972" y="516"/><rect fill="none" height="840" rx="8" ry="8" style="stroke:#CBD5E1;stroke-width:1.5;" width="774.7808" x="443.1768" y="660"/><rect fill="none" height="274" rx="8" ry="8" style="stroke:#CBD5E1;stroke-width:1.5;" width="738.3779" x="453.1768" y="683"/><rect fill="none" height="58" rx="8" ry="8" style="stroke:#CBD5E1;stroke-width:1.5;" width="455.9575" x="725.5972" y="790"/><rect fill="none" height="88" rx="8" ry="8" style="stroke:#CBD5E1;stroke-width:1.5;" width="438.813" x="463.1768" y="862"/><rect fill="none" height="392" rx="8" ry="8" style="stroke:#CBD5E1;stroke-width:1.5;" width="754.7808" x="453.1768" y="1059"/><rect fill="none" height="44" rx="8" ry="8" style="stroke:#CBD5E1;stroke-width:1.5;" width="438.813" x="463.1768" y="1158"/><rect fill="none" height="130" rx="8" ry="8" style="stroke:#CBD5E1;stroke-width:1.5;" width="475.9575" x="715.5972" y="1216"/><rect fill="none" height="44" rx="8" ry="8" style="stroke:#CBD5E1;stroke-width:1.5;" width="455.9575" x="725.5972" y="1295"/><g class="participant-lifeline" data-entity-uid="part1" data-qualified-name="Kubernetes" id="part1-lifeline"><g><title>Kubernetes</title><rect fill="#000000" fill-opacity="0.00000" height="1941" width="8" x="39.8032" y="114"/><line style="stroke:#94A3B8;stroke-width:0.5;stroke-dasharray:5,5;" x1="43" x2="43" y1="114" y2="2055"/></g></g><g class="participant-lifeline" data-entity-uid="part2" data-qualified-name="Controller" id="part2-lifeline"><g><title>Controller</title><rect fill="#000000" fill-opacity="0.00000" height="1941" width="8" x="286.3745" y="114"/><line style="stroke:#94A3B8;stroke-width:0.5;stroke-dasharray:5,5;" x1="290.0298" x2="290.0298" y1="114" y2="2055"/></g></g><g class="participant-lifeline" data-entity-uid="part3" data-qualified-name="BaseReconciler" id="part3-lifeline"><g><title>BaseReconciler</title><rect fill="#000000" fill-opacity="0.00000" height="1941" width="8" x="525.2007" y="114"/><line style="stroke:#94A3B8;stroke-width:0.5;stroke-dasharray:5,5;" x1="529.1768" x2="529.1768" y1="114" y2="2055"/></g></g><g class="participant-lifeline" data-entity-uid="part4" data-qualified-name="ServiceManager" id="part4-lifeline"><g><title>OSOKServiceManager</title><rect fill="#000000" fill-opacity="0.00000" height="1941" width="8" x="809.7935" y="114"/><line style="stroke:#94A3B8;stroke-width:0.5;stroke-dasharray:5,5;" x1="813.5972" x2="813.5972" y1="114" y2="2055"/></g></g><g class="participant-lifeline" data-entity-uid="part5" data-qualified-name="OCI" id="part5-lifeline"><g><title>OCI</title><rect fill="#000000" fill-opacity="0.00000" height="1941" width="8" x="1148.1099" y="114"/><line style="stroke:#94A3B8;stroke-width:0.5;stroke-dasharray:5,5;" x1="1151.665" x2="1151.665" y1="114" y2="2055"/></g></g><g class="participant participant-head" data-entity-uid="part1" data-qualified-name="Kubernetes" id="part1-head"><text fill="#000000" font-family="Helvetica" font-size="14" lengthAdjust="spacing" textLength="71.6064" x="5" y="110.7803">Kubernetes</text><ellipse cx="43.8032" cy="48.5" fill="#E2E8F0" rx="8" ry="8" style="stroke:#0F172A;stroke-width:0.5;"/><path d="M43.8032,56.5 L43.8032,83.5 M30.8032,64.5 L56.8032,64.5 M43.8032,83.5 L30.8032,98.5 M43.8032,83.5 L56.8032,98.5" fill="none" style="stroke:#0F172A;stroke-width:0.5;"/></g><g class="participant participant-head" data-entity-uid="part2" data-qualified-name="Controller" id="part2-head"><rect fill="#E2E8F0" height="28" rx="8" ry="8" style="stroke:#0F172A;stroke-width:0.5;" width="74.6895" x="253.0298" y="85"/><text fill="#0F172A" font-family="Helvetica" font-size="14" lengthAdjust="spacing" textLength="60.6895" x="260.0298" y="102.7803">Controller</text></g><g class="participant participant-head" data-entity-uid="part3" data-qualified-name="BaseReconciler" id="part3-head"><rect fill="#E2E8F0" height="28" rx="8" ry="8" style="stroke:#0F172A;stroke-width:0.5;" width="112.0479" x="473.1768" y="85"/><text fill="#0F172A" font-family="Helvetica" font-size="14" lengthAdjust="spacing" textLength="98.0479" x="480.1768" y="102.7803">BaseReconciler</text></g><g class="participant participant-head" data-entity-uid="part4" data-qualified-name="ServiceManager" id="part4-head"><rect fill="#E2E8F0" height="28" rx="8" ry="8" style="stroke:#0F172A;stroke-width:0.5;" width="156.3926" x="735.5972" y="85"/><text fill="#0F172A" font-family="Helvetica" font-size="14" lengthAdjust="spacing" textLength="142.3926" x="742.5972" y="102.7803">OSOKServiceManager</text></g><g class="participant participant-head" data-entity-uid="part5" data-qualified-name="OCI" id="part5-head"><rect fill="#E2E8F0" height="28" rx="8" ry="8" style="stroke:#0F172A;stroke-width:0.5;" width="38.8896" x="1132.665" y="85"/><text fill="#0F172A" font-family="Helvetica" font-size="14" lengthAdjust="spacing" textLength="24.8896" x="1139.665" y="102.7803">OCI</text></g><path d="M464,137 L464,187 A8,8 0 0 0 472,195 L869,195 A8,8 0 0 0 877,187 L877,139 L867,129 L472,129 A8,8 0 0 0 464,137" fill="#FFF7D6" style="stroke:#B45309;stroke-width:0.5;"/><path d="M867,129 L867,135 A4,4 0 0 0 871,139 L877,139 L867,129" fill="#FFF7D6" style="stroke:#B45309;stroke-width:0.5;"/><text fill="#334155" font-family="Helvetica" font-size="14" lengthAdjust="spacing" textLength="111.2891" x="512.7107" y="144.7803">shared resolution:</text><text fill="#334155" font-family="Helvetica" font-size="14" lengthAdjust="spacing" textLength="307.3916" x="512.7107" y="158.7803">shared/diagrams/shared-resolution-sequence.svg</text><text fill="#334155" font-family="Helvetica" font-size="14" lengthAdjust="spacing" textLength="88.7305" x="512.7107" y="172.7803">shared delete:</text><text fill="#334155" font-family="Helvetica" font-size="14" lengthAdjust="spacing" textLength="284.833" x="512.7107" y="186.7803">shared/diagrams/shared-delete-sequence.svg</text><g class="message" data-entity-1="part1" data-entity-2="part2" id="msg1"><polygon fill="#0F172A" points="278.3745,244,288.3745,248,278.3745,252,282.3745,248" style="stroke:#0F172A;stroke-width:1;"/><line style="stroke:#0F172A;stroke-width:1;" x1="43.8032" x2="284.3745" y1="248" y2="248"/><text fill="#000000" font-family="Helvetica" font-size="14" lengthAdjust="spacing" textLength="54.5029" x="50.8032" y="214.7803">enqueue</text><text fill="#000000" font-family="Helvetica" font-size="14" lengthAdjust="spacing" textLength="222.5713" x="50.8032" y="228.7803">DatabaseManagementCloudCluster</text><text fill="#000000" font-family="Helvetica" font-size="14" lengthAdjust="spacing" textLength="56.0273" x="50.8032" y="242.7803">reconcile</text></g><g class="message" data-entity-1="part2" data-entity-2="part3" id="msg2"><polygon fill="#0F172A" points="517.2007,272,527.2007,276,517.2007,280,521.2007,276" style="stroke:#0F172A;stroke-width:1;"/><line style="stroke:#0F172A;stroke-width:1;" x1="290.3745" x2="523.2007" y1="276" y2="276"/><text fill="#000000" font-family="Helvetica" font-size="14" lengthAdjust="spacing" textLength="117.4961" x="297.3745" y="270.7803">Reconcile(request)</text></g><g class="message" data-entity-1="part3" data-entity-2="part4" id="msg3"><polygon fill="#0F172A" points="801.7935,314,811.7935,318,801.7935,322,805.7935,318" style="stroke:#0F172A;stroke-width:1;"/><line style="stroke:#0F172A;stroke-width:1;" x1="529.2007" x2="807.7935" y1="318" y2="318"/><text fill="#000000" font-family="Helvetica" font-size="14" lengthAdjust="spacing" textLength="105.834" x="536.2007" y="298.7803">reconcile desired</text><text fill="#000000" font-family="Helvetica" font-size="14" lengthAdjust="spacing" textLength="222.5713" x="536.2007" y="312.7803">DatabaseManagementCloudCluster</text></g><path d="M471.1768,356 L524.5146,356 L524.5146,362 L514.5146,372 L463.1768,372 L463.1768,364 A8,8 0 0 1 471.1768,356" fill="#F8FAFC" style="stroke:#CBD5E1;stroke-width:1.5;"/><rect fill="none" height="290" rx="8" ry="8" style="stroke:#CBD5E1;stroke-width:1.5;" width="738.3779" x="463.1768" y="356"/><text fill="#000000" font-family="Helvetica" font-size="14" font-weight="bold" lengthAdjust="spacing" textLength="16.3379" x="478.1768" y="367.7803">alt</text><text fill="#000000" font-family="Helvetica" font-size="14" font-weight="bold" lengthAdjust="spacing" textLength="308.1094" x="539.5146" y="368.7803">[tracked or explicit OCI identity already exists]</text><g class="message" data-entity-1="part4" data-entity-2="part5" id="msg4"><polygon fill="#0F172A" points="1140.1099,388,1150.1099,392,1140.1099,396,1144.1099,392" style="stroke:#0F172A;stroke-width:1;"/><line style="stroke:#0F172A;stroke-width:1;" x1="813.7935" x2="1146.1099" y1="392" y2="392"/><text fill="#000000" font-family="Helvetica" font-size="14" lengthAdjust="spacing" textLength="245.1367" x="820.7935" y="386.7803">GetDatabaseManagementCloudCluster</text></g><line style="stroke:#CBD5E1;stroke-width:1;stroke-dasharray:2,2;" x1="463.1768" x2="1201.5547" y1="401" y2="401"/><text fill="#000000" font-family="Helvetica" font-size="14" font-weight="bold" lengthAdjust="spacing" textLength="185.1582" x="468.1768" y="411.7803">[tracked identity is missing]</text><g class="message" data-entity-1="part4" data-entity-2="part5" id="msg5"><polygon fill="#0F172A" points="1140.1099,446,1150.1099,450,1140.1099,454,1144.1099,450" style="stroke:#0F172A;stroke-width:1;"/><line style="stroke:#0F172A;stroke-width:1;" x1="813.7935" x2="1146.1099" y1="450" y2="450"/><text fill="#000000" font-family="Helvetica" font-size="14" lengthAdjust="spacing" textLength="286.3574" x="820.7935" y="430.7803">ListDatabaseManagementCloudCluster(filters:</text><text fill="#000000" font-family="Helvetica" font-size="14" lengthAdjust="spacing" textLength="143.1719" x="820.7935" y="444.7803">compartment_id, state)</text></g><path d="M723.5972,465 L776.9351,465 L776.9351,471 L766.9351,481 L715.5972,481 L715.5972,473 A8,8 0 0 1 723.5972,465" fill="#F8FAFC" style="stroke:#CBD5E1;stroke-width:1.5;"/><rect fill="none" height="146" rx="8" ry="8" style="stroke:#CBD5E1;stroke-width:1.5;" width="475.9575" x="715.5972" y="465"/><text fill="#000000" font-family="Helvetica" font-size="14" font-weight="bold" lengthAdjust="spacing" textLength="16.3379" x="730.5972" y="476.7803">alt</text><text fill="#000000" font-family="Helvetica" font-size="14" font-weight="bold" lengthAdjust="spacing" textLength="242.7031" x="791.9351" y="477.7803">[reusable OCI resource is not found]</text><g class="message" data-entity-1="part4" data-entity-2="part5" id="msg6"><polygon fill="#0F172A" points="1140.1099,497,1150.1099,501,1140.1099,505,1144.1099,501" style="stroke:#0F172A;stroke-width:1;"/><line style="stroke:#0F172A;stroke-width:1;" x1="813.7935" x2="1146.1099" y1="501" y2="501"/><text fill="#000000" font-family="Helvetica" font-size="14" lengthAdjust="spacing" textLength="264.5918" x="820.7935" y="495.7803">CreateDatabaseManagementCloudCluster</text></g><path d="M733.5972,516 L800.1421,516 L800.1421,522 L790.1421,532 L725.5972,532 L725.5972,524 A8,8 0 0 1 733.5972,516" fill="#F8FAFC" style="stroke:#CBD5E1;stroke-width:1.5;"/><rect fill="none" height="44" rx="8" ry="8" style="stroke:#CBD5E1;stroke-width:1.5;" width="455.9575" x="725.5972" y="516"/><text fill="#000000" font-family="Helvetica" font-size="14" font-weight="bold" lengthAdjust="spacing" textLength="29.5449" x="740.5972" y="527.7803">loop</text><text fill="#000000" font-family="Helvetica" font-size="14" font-weight="bold" lengthAdjust="spacing" textLength="215.4756" x="815.1421" y="528.7803">[create pending PROVISIONING]</text><g class="message" data-entity-1="part4" data-entity-2="part5" id="msg7"><polygon fill="#0F172A" points="1140.1099,548,1150.1099,552,1140.1099,556,1144.1099,552" style="stroke:#0F172A;stroke-width:1;"/><line style="stroke:#0F172A;stroke-width:1;" x1="813.7935" x2="1146.1099" y1="552" y2="552"/><text fill="#000000" font-family="Helvetica" font-size="14" lengthAdjust="spacing" textLength="245.1367" x="820.7935" y="546.7803">GetDatabaseManagementCloudCluster</text></g><line style="stroke:#CBD5E1;stroke-width:1;stroke-dasharray:2,2;" x1="715.5972" x2="1191.5547" y1="568" y2="568"/><text fill="#000000" font-family="Helvetica" font-size="14" font-weight="bold" lengthAdjust="spacing" textLength="255.2334" x="720.5972" y="578.7803">[reusable OCI resource already exists]</text><g class="message" data-entity-1="part4" data-entity-2="part5" id="msg8"><polygon fill="#0F172A" points="1140.1099,599,1150.1099,603,1140.1099,607,1144.1099,603" style="stroke:#0F172A;stroke-width:1;"/><line style="stroke:#0F172A;stroke-width:1;" x1="813.7935" x2="1146.1099" y1="603" y2="603"/><text fill="#000000" font-family="Helvetica" font-size="14" lengthAdjust="spacing" textLength="245.1367" x="820.7935" y="597.7803">GetDatabaseManagementCloudCluster</text></g><g class="message" data-entity-1="part4" data-entity-2="part3" id="msg9"><polygon fill="#0F172A" points="540.2007,634,530.2007,638,540.2007,642,536.2007,638" style="stroke:#0F172A;stroke-width:1;"/><line style="stroke:#0F172A;stroke-width:1;stroke-dasharray:2,2;" x1="534.2007" x2="812.7935" y1="638" y2="638"/><text fill="#000000" font-family="Helvetica" font-size="14" lengthAdjust="spacing" textLength="231.0957" x="546.2007" y="632.7803">persist resolved OCI identity in status</text></g><path d="M451.1768,660 L504.5146,660 L504.5146,666 L494.5146,676 L443.1768,676 L443.1768,668 A8,8 0 0 1 451.1768,660" fill="#F8FAFC" style="stroke:#CBD5E1;stroke-width:1.5;"/><rect fill="none" height="840" rx="8" ry="8" style="stroke:#CBD5E1;stroke-width:1.5;" width="774.7808" x="443.1768" y="660"/><text fill="#000000" font-family="Helvetica" font-size="14" font-weight="bold" lengthAdjust="spacing" textLength="16.3379" x="458.1768" y="671.7803">alt</text><text fill="#000000" font-family="Helvetica" font-size="14" font-weight="bold" lengthAdjust="spacing" textLength="120.5859" x="519.5146" y="672.7803">[delete requested]</text><path d="M461.1768,683 L540.1973,683 L540.1973,689 L530.1973,699 L453.1768,699 L453.1768,691 A8,8 0 0 1 461.1768,683" fill="#F8FAFC" style="stroke:#CBD5E1;stroke-width:1.5;"/><rect fill="none" height="274" rx="8" ry="8" style="stroke:#CBD5E1;stroke-width:1.5;" width="738.3779" x="453.1768" y="683"/><text fill="#000000" font-family="Helvetica" font-size="14" font-weight="bold" lengthAdjust="spacing" textLength="42.0205" x="468.1768" y="694.7803">Delete</text><g class="message" data-entity-1="part4" data-entity-2="part5" id="msg10"><polygon fill="#0F172A" points="1140.1099,715,1150.1099,719,1140.1099,723,1144.1099,719" style="stroke:#0F172A;stroke-width:1;"/><line style="stroke:#0F172A;stroke-width:1;" x1="813.7935" x2="1146.1099" y1="719" y2="719"/><text fill="#000000" font-family="Helvetica" font-size="14" lengthAdjust="spacing" textLength="263.04" x="820.7935" y="713.7803">DeleteDatabaseManagementCloudCluster</text></g><g class="message" data-entity-1="part4" data-entity-2="part5" id="msg11"><polygon fill="#0F172A" points="1140.1099,771,1150.1099,775,1140.1099,779,1144.1099,775" style="stroke:#0F172A;stroke-width:1;"/><line style="stroke:#0F172A;stroke-width:1;" x1="813.7935" x2="1146.1099" y1="775" y2="775"/><text fill="#000000" font-family="Helvetica" font-size="14" lengthAdjust="spacing" textLength="109.7168" x="820.7935" y="741.7803">confirm delete via</text><text fill="#000000" font-family="Helvetica" font-size="14" lengthAdjust="spacing" textLength="261.4746" x="820.7935" y="755.7803">GetDatabaseManagementCloudCluster or</text><text fill="#000000" font-family="Helvetica" font-size="14" lengthAdjust="spacing" textLength="244.3574" x="820.7935" y="769.7803">ListDatabaseManagementCloudCluster</text></g><path d="M733.5972,790 L800.1421,790 L800.1421,796 L790.1421,806 L725.5972,806 L725.5972,798 A8,8 0 0 1 733.5972,790" fill="#F8FAFC" style="stroke:#CBD5E1;stroke-width:1.5;"/><rect fill="none" height="58" rx="8" ry="8" style="stroke:#CBD5E1;stroke-width:1.5;" width="455.9575" x="725.5972" y="790"/><text fill="#000000" font-family="Helvetica" font-size="14" font-weight="bold" lengthAdjust="spacing" textLength="29.5449" x="740.5972" y="801.7803">loop</text><text fill="#000000" font-family="Helvetica" font-size="14" font-weight="bold" lengthAdjust="spacing" textLength="182.7793" x="815.1421" y="802.7803">[delete pending DELETING]</text><g class="message" data-entity-1="part4" data-entity-2="part5" id="msg12"><polygon fill="#0F172A" points="1140.1099,836,1150.1099,840,1140.1099,844,1144.1099,840" style="stroke:#0F172A;stroke-width:1;"/><line style="stroke:#0F172A;stroke-width:1;" x1="813.7935" x2="1146.1099" y1="840" y2="840"/><text fill="#000000" font-family="Helvetica" font-size="14" lengthAdjust="spacing" textLength="261.4746" x="820.7935" y="820.7803">GetDatabaseManagementCloudCluster or</text><text fill="#000000" font-family="Helvetica" font-size="14" lengthAdjust="spacing" textLength="244.3574" x="820.7935" y="834.7803">ListDatabaseManagementCloudCluster</text></g><path d="M471.1768,862 L524.5146,862 L524.5146,868 L514.5146,878 L463.1768,878 L463.1768,870 A8,8 0 0 1 471.1768,862" fill="#F8FAFC" style="stroke:#CBD5E1;stroke-width:1.5;"/><rect fill="none" height="88" rx="8" ry="8" style="stroke:#CBD5E1;stroke-width:1.5;" width="438.813" x="463.1768" y="862"/><text fill="#000000" font-family="Helvetica" font-size="14" font-weight="bold" lengthAdjust="spacing" textLength="16.3379" x="478.1768" y="873.7803">alt</text><text fill="#000000" font-family="Helvetica" font-size="14" font-weight="bold" lengthAdjust="spacing" textLength="261.4268" x="539.5146" y="874.7803">[cleanup or finalizer release is blocked]</text><g class="message" data-entity-1="part4" data-entity-2="part3" id="msg13"><polygon fill="#0F172A" points="540.2007,894,530.2007,898,540.2007,902,536.2007,898" style="stroke:#0F172A;stroke-width:1;"/><line style="stroke:#0F172A;stroke-width:1;stroke-dasharray:2,2;" x1="534.2007" x2="812.7935" y1="898" y2="898"/><text fill="#000000" font-family="Helvetica" font-size="14" lengthAdjust="spacing" textLength="170.4336" x="546.2007" y="892.7803">retain delete state and retry</text></g><line style="stroke:#CBD5E1;stroke-width:1;stroke-dasharray:2,2;" x1="463.1768" x2="901.9897" y1="907" y2="907"/><text fill="#000000" font-family="Helvetica" font-size="14" font-weight="bold" lengthAdjust="spacing" textLength="194.4824" x="468.1768" y="917.7803">[delete completion observed]</text><g class="message" data-entity-1="part4" data-entity-2="part3" id="msg14"><polygon fill="#0F172A" points="540.2007,938,530.2007,942,540.2007,946,536.2007,942" style="stroke:#0F172A;stroke-width:1;"/><line style="stroke:#0F172A;stroke-width:1;stroke-dasharray:2,2;" x1="534.2007" x2="812.7935" y1="942" y2="942"/><text fill="#000000" font-family="Helvetica" font-size="14" lengthAdjust="spacing" textLength="243.5781" x="546.2007" y="936.7803">release finalizer after delete completion</text></g><line style="stroke:#CBD5E1;stroke-width:1;stroke-dasharray:2,2;" x1="443.1768" x2="1217.9575" y1="965" y2="965"/><text fill="#000000" font-family="Helvetica" font-size="14" font-weight="bold" lengthAdjust="spacing" textLength="149.3857" x="448.1768" y="975.7803">[OCI state is retryable]</text><g class="message" data-entity-1="part4" data-entity-2="part3" id="msg15"><polygon fill="#0F172A" points="540.2007,1010,530.2007,1014,540.2007,1018,536.2007,1014" style="stroke:#0F172A;stroke-width:1;"/><line style="stroke:#0F172A;stroke-width:1;stroke-dasharray:2,2;" x1="534.2007" x2="812.7935" y1="1014" y2="1014"/><text fill="#000000" font-family="Helvetica" font-size="14" lengthAdjust="spacing" textLength="184.4199" x="546.2007" y="994.7803">requeue while OCI remains in</text><text fill="#000000" font-family="Helvetica" font-size="14" lengthAdjust="spacing" textLength="260.5928" x="546.2007" y="1008.7803">PROVISIONING, UPDATING, DELETING</text></g><line style="stroke:#CBD5E1;stroke-width:1;stroke-dasharray:2,2;" x1="443.1768" x2="1217.9575" y1="1023" y2="1023"/><text fill="#000000" font-family="Helvetica" font-size="14" font-weight="bold" lengthAdjust="spacing" textLength="200.751" x="448.1768" y="1033.7803">[live state requires field-aware</text><text fill="#000000" font-family="Helvetica" font-size="14" font-weight="bold" lengthAdjust="spacing" textLength="105.0068" x="448.1768" y="1047.7803">drift evaluation]</text><path d="M461.1768,1059 L589.1631,1059 L589.1631,1065 L579.1631,1075 L453.1768,1075 L453.1768,1067 A8,8 0 0 1 461.1768,1059" fill="#F8FAFC" style="stroke:#CBD5E1;stroke-width:1.5;"/><rect fill="none" height="392" rx="8" ry="8" style="stroke:#CBD5E1;stroke-width:1.5;" width="754.7808" x="453.1768" y="1059"/><text fill="#000000" font-family="Helvetica" font-size="14" font-weight="bold" lengthAdjust="spacing" textLength="90.9863" x="468.1768" y="1070.7803">Drift handling</text><path d="M767,1088 L767,1138 A8,8 0 0 0 775,1146 L1189,1146 A8,8 0 0 0 1197,1138 L1197,1090 L1187,1080 L775,1080 A8,8 0 0 0 767,1088" fill="#FFF7D6" style="stroke:#B45309;stroke-width:0.5;"/><path d="M1187,1080 L1187,1086 A4,4 0 0 0 1191,1090 L1197,1090 L1187,1080" fill="#FFF7D6" style="stroke:#B45309;stroke-width:0.5;"/><text fill="#334155" font-family="Helvetica" font-size="14" lengthAdjust="spacing" textLength="255.2813" x="850.3381" y="1095.7803">Supported update surface: display_name</text><text fill="#334155" font-family="Helvetica" font-size="14" lengthAdjust="spacing" textLength="235.7783" x="850.3381" y="1109.7803">Reject before mutate: force-new fields</text><text fill="#334155" font-family="Helvetica" font-size="14" lengthAdjust="spacing" textLength="100.3789" x="850.3381" y="1123.7803">compartment_id</text><text fill="#334155" font-family="Helvetica" font-size="14" lengthAdjust="spacing" textLength="229.5576" x="850.3381" y="1137.7803">Lookup filters: compartment_id, state</text><path d="M471.1768,1158 L529.9424,1158 L529.9424,1164 L519.9424,1174 L463.1768,1174 L463.1768,1166 A8,8 0 0 1 471.1768,1158" fill="#F8FAFC" style="stroke:#CBD5E1;stroke-width:1.5;"/><rect fill="none" height="44" rx="8" ry="8" style="stroke:#CBD5E1;stroke-width:1.5;" width="438.813" x="463.1768" y="1158"/><text fill="#000000" font-family="Helvetica" font-size="14" font-weight="bold" lengthAdjust="spacing" textLength="21.7656" x="478.1768" y="1169.7803">opt</text><text fill="#000000" font-family="Helvetica" font-size="14" font-weight="bold" lengthAdjust="spacing" textLength="276.1309" x="544.9424" y="1170.7803">[force-new or conflicting drift is detected]</text><g class="message" data-entity-1="part4" data-entity-2="part3" id="msg16"><polygon fill="#0F172A" points="540.2007,1190,530.2007,1194,540.2007,1198,536.2007,1194" style="stroke:#0F172A;stroke-width:1;"/><line style="stroke:#0F172A;stroke-width:1;stroke-dasharray:2,2;" x1="534.2007" x2="812.7935" y1="1194" y2="1194"/><text fill="#000000" font-family="Helvetica" font-size="14" lengthAdjust="spacing" textLength="164.1855" x="546.2007" y="1188.7803">reject before OCI mutation</text></g><path d="M723.5972,1216 L782.3628,1216 L782.3628,1222 L772.3628,1232 L715.5972,1232 L715.5972,1224 A8,8 0 0 1 723.5972,1216" fill="#F8FAFC" style="stroke:#CBD5E1;stroke-width:1.5;"/><rect fill="none" height="130" rx="8" ry="8" style="stroke:#CBD5E1;stroke-width:1.5;" width="475.9575" x="715.5972" y="1216"/><text fill="#000000" font-family="Helvetica" font-size="14" font-weight="bold" lengthAdjust="spacing" textLength="21.7656" x="730.5972" y="1227.7803">opt</text><text fill="#000000" font-family="Helvetica" font-size="14" font-weight="bold" lengthAdjust="spacing" textLength="243.4619" x="797.3628" y="1228.7803">[supported mutable drift is detected]</text><g class="message" data-entity-1="part4" data-entity-2="part5" id="msg17"><polygon fill="#0F172A" points="1140.1099,1276,1150.1099,1280,1140.1099,1284,1144.1099,1280" style="stroke:#0F172A;stroke-width:1;"/><line style="stroke:#0F172A;stroke-width:1;" x1="813.7935" x2="1146.1099" y1="1280" y2="1280"/><text fill="#000000" font-family="Helvetica" font-size="14" lengthAdjust="spacing" textLength="35.0205" x="820.7935" y="1246.7803">Apply</text><text fill="#000000" font-family="Helvetica" font-size="14" lengthAdjust="spacing" textLength="267.7158" x="820.7935" y="1260.7803">UpdateDatabaseManagementCloudCluster</text><text fill="#000000" font-family="Helvetica" font-size="14" lengthAdjust="spacing" textLength="226.4541" x="820.7935" y="1274.7803">only for mutable fields display_name</text></g><path d="M733.5972,1295 L800.1421,1295 L800.1421,1301 L790.1421,1311 L725.5972,1311 L725.5972,1303 A8,8 0 0 1 733.5972,1295" fill="#F8FAFC" style="stroke:#CBD5E1;stroke-width:1.5;"/><rect fill="none" height="44" rx="8" ry="8" style="stroke:#CBD5E1;stroke-width:1.5;" width="455.9575" x="725.5972" y="1295"/><text fill="#000000" font-family="Helvetica" font-size="14" font-weight="bold" lengthAdjust="spacing" textLength="29.5449" x="740.5972" y="1306.7803">loop</text><text fill="#000000" font-family="Helvetica" font-size="14" font-weight="bold" lengthAdjust="spacing" textLength="190.5381" x="815.1421" y="1307.7803">[update pending UPDATING]</text><g class="message" data-entity-1="part4" data-entity-2="part5" id="msg18"><polygon fill="#0F172A" points="1140.1099,1327,1150.1099,1331,1140.1099,1335,1144.1099,1331" style="stroke:#0F172A;stroke-width:1;"/><line style="stroke:#0F172A;stroke-width:1;" x1="813.7935" x2="1146.1099" y1="1331" y2="1331"/><text fill="#000000" font-family="Helvetica" font-size="14" lengthAdjust="spacing" textLength="245.1367" x="820.7935" y="1325.7803">GetDatabaseManagementCloudCluster</text></g><g class="message" data-entity-1="part4" data-entity-2="part5" id="msg19"><polygon fill="#0F172A" points="1140.1099,1439,1150.1099,1443,1140.1099,1447,1144.1099,1443" style="stroke:#0F172A;stroke-width:1;"/><line style="stroke:#0F172A;stroke-width:1;" x1="813.7935" x2="1146.1099" y1="1443" y2="1443"/><text fill="#000000" font-family="Helvetica" font-size="14" lengthAdjust="spacing" textLength="104.2891" x="820.7935" y="1367.7803">run helper hooks</text><text fill="#000000" font-family="Helvetica" font-size="14" lengthAdjust="spacing" textLength="219.0508" x="820.7935" y="1381.7803">create=tfresource.CreateResource,</text><text fill="#000000" font-family="Helvetica" font-size="14" lengthAdjust="spacing" textLength="314.3164" x="820.7935" y="1395.7803">tfresource.WaitForWorkRequestWithErrorHandling</text><text fill="#000000" font-family="Helvetica" font-size="14" lengthAdjust="spacing" textLength="215.5439" x="820.7935" y="1409.7803">entity=template action=CREATED;</text><text fill="#000000" font-family="Helvetica" font-size="14" lengthAdjust="spacing" textLength="226.085" x="820.7935" y="1423.7803">update=tfresource.UpdateResource;</text><text fill="#000000" font-family="Helvetica" font-size="14" lengthAdjust="spacing" textLength="212.8438" x="820.7935" y="1437.7803">delete=tfresource.DeleteResource</text></g><g class="message" data-entity-1="part4" data-entity-2="part3" id="msg20"><polygon fill="#0F172A" points="540.2007,1488,530.2007,1492,540.2007,1496,536.2007,1492" style="stroke:#0F172A;stroke-width:1;"/><line style="stroke:#0F172A;stroke-width:1;stroke-dasharray:2,2;" x1="534.2007" x2="812.7935" y1="1492" y2="1492"/><text fill="#000000" font-family="Helvetica" font-size="14" lengthAdjust="spacing" textLength="100.7822" x="546.2007" y="1472.7803">status=required,</text><text fill="#000000" font-family="Helvetica" font-size="14" lengthAdjust="spacing" textLength="230.7197" x="546.2007" y="1486.7803">finalizer=retain-until-confirmed-delete</text></g><g class="message" data-entity-1="part3" data-entity-2="part2" id="msg21"><polygon fill="#0F172A" points="301.3745,1537,291.3745,1541,301.3745,1545,297.3745,1541" style="stroke:#0F172A;stroke-width:1;"/><line style="stroke:#0F172A;stroke-width:1;stroke-dasharray:2,2;" x1="295.3745" x2="528.2007" y1="1541" y2="1541"/><text fill="#000000" font-family="Helvetica" font-size="14" lengthAdjust="spacing" textLength="214.8262" x="307.3745" y="1521.7803">requeue on provisioning, updating,</text><text fill="#000000" font-family="Helvetica" font-size="14" lengthAdjust="spacing" textLength="69.2549" x="307.3745" y="1535.7803">terminating</text></g><path d="M818,1562 L818,2032 A8,8 0 0 0 826,2040 L1248,2040 A8,8 0 0 0 1256,2032 L1256,1564 L1246,1554 L826,1554 A8,8 0 0 0 818,1562" fill="#FFF7D6" style="stroke:#B45309;stroke-width:0.5;"/><path d="M1246,1554 L1246,1560 A4,4 0 0 0 1250,1564 L1256,1564 L1246,1554" fill="#FFF7D6" style="stroke:#B45309;stroke-width:0.5;"/><text fill="#334155" font-family="Helvetica" font-size="14" lengthAdjust="spacing" textLength="101.165" x="824" y="1569.7803">shared diagram:</text><text fill="#334155" font-family="Helvetica" font-size="14" lengthAdjust="spacing" textLength="307.3916" x="824" y="1583.7803">shared/diagrams/shared-resolution-sequence.svg</text><text fill="#334155" font-family="Helvetica" font-size="14" lengthAdjust="spacing" textLength="143.1992" x="824" y="1597.7803">shared delete diagram:</text><text fill="#334155" font-family="Helvetica" font-size="14" lengthAdjust="spacing" textLength="284.833" x="824" y="1611.7803">shared/diagrams/shared-delete-sequence.svg</text><text fill="#334155" font-family="Helvetica" font-size="14" lengthAdjust="spacing" textLength="280.9297" x="824" y="1625.7803">Start from the shared resolution sequence for</text><text fill="#334155" font-family="Helvetica" font-size="14" lengthAdjust="spacing" textLength="260.7295" x="824" y="1639.7803">OCID binding, datasource pagination, and</text><text fill="#334155" font-family="Helvetica" font-size="14" lengthAdjust="spacing" textLength="163.4268" x="824" y="1653.7803">create-or-update dispatch.</text><text fill="#334155" font-family="Helvetica" font-size="14" lengthAdjust="spacing" textLength="301.1982" x="824" y="1667.7803">Layer the shared delete sequence when finalizer</text><text fill="#334155" font-family="Helvetica" font-size="14" lengthAdjust="spacing" textLength="269.2471" x="824" y="1681.7803">retention, delete confirmation, work-request</text><text fill="#334155" font-family="Helvetica" font-size="14" lengthAdjust="spacing" textLength="199.2334" x="824" y="1695.7803">polling, or Secret cleanup apply.</text><text fill="#334155" font-family="Helvetica" font-size="14" lengthAdjust="spacing" textLength="281.709" x="824" y="1709.7803">archetype batch: Generated service-manager</text><text fill="#334155" font-family="Helvetica" font-size="14" lengthAdjust="spacing" textLength="266.1504" x="824" y="1723.7803">controllers follow the shared resolution and</text><text fill="#334155" font-family="Helvetica" font-size="14" lengthAdjust="spacing" textLength="259.9297" x="824" y="1737.7803">delete sequences with imported waits and</text><text fill="#334155" font-family="Helvetica" font-size="14" lengthAdjust="spacing" textLength="134.6064" x="824" y="1751.7803">controller-local policy.</text><text fill="#334155" font-family="Helvetica" font-size="14" lengthAdjust="spacing" textLength="191.4473" x="824" y="1765.7803">service: databasemanagement</text><text fill="#334155" font-family="Helvetica" font-size="14" lengthAdjust="spacing" textLength="247.4883" x="824" y="1779.7803">slug: databasemanagementcloudcluster</text><text fill="#334155" font-family="Helvetica" font-size="14" lengthAdjust="spacing" textLength="256.0332" x="824" y="1793.7803">kind: DatabaseManagementCloudCluster</text><text fill="#334155" font-family="Helvetica" font-size="14" lengthAdjust="spacing" textLength="241.2402" x="824" y="1807.7803">archetype: generated-service-manager</text><text fill="#334155" font-family="Helvetica" font-size="14" lengthAdjust="spacing" textLength="156.4063" x="824" y="1821.7803">status/finalizer: required /</text><text fill="#334155" font-family="Helvetica" font-size="14" lengthAdjust="spacing" textLength="174.3027" x="824" y="1835.7803">retain-until-confirmed-delete</text><text fill="#334155" font-family="Helvetica" font-size="14" lengthAdjust="spacing" textLength="272.3984" x="824" y="1849.7803">requeue: provisioning, updating, terminating</text><text fill="#334155" font-family="Helvetica" font-size="14" lengthAdjust="spacing" textLength="295.6816" x="824" y="1863.7803">provider states: create PROVISIONING; update</text><text fill="#334155" font-family="Helvetica" font-size="14" lengthAdjust="spacing" textLength="192.165" x="824" y="1877.7803">UPDATING; delete DELETING</text><text fill="#334155" font-family="Helvetica" font-size="14" lengthAdjust="spacing" textLength="183.6611" x="824" y="1891.7803">supported drift: display_name</text><text fill="#334155" font-family="Helvetica" font-size="14" lengthAdjust="spacing" textLength="230.3301" x="824" y="1905.7803">reject before mutate: force-new fields</text><text fill="#334155" font-family="Helvetica" font-size="14" lengthAdjust="spacing" textLength="100.3789" x="824" y="1919.7803">compartment_id</text><text fill="#334155" font-family="Helvetica" font-size="14" lengthAdjust="spacing" textLength="66.1445" x="824" y="1933.7803">list lookup:</text><text fill="#334155" font-family="Helvetica" font-size="14" lengthAdjust="spacing" textLength="417.1699" x="824" y="1947.7803">scaffold_databasemanagement_databasemanagementcloudcluster</text><text fill="#334155" font-family="Helvetica" font-size="14" lengthAdjust="spacing" textLength="175.8477" x="824" y="1961.7803">filters compartment_id, state</text><text fill="#334155" font-family="Helvetica" font-size="14" lengthAdjust="spacing" textLength="89.4961" x="824" y="1975.7803">conflicts: none</text><text fill="#334155" font-family="Helvetica" font-size="14" lengthAdjust="spacing" textLength="104.3164" x="824" y="1989.7803">open gaps: none</text><text fill="#334155" font-family="Helvetica" font-size="14" lengthAdjust="spacing" textLength="224.9023" x="824" y="2003.7803">Scaffold metadata only; replace with</text><text fill="#334155" font-family="Helvetica" font-size="14" lengthAdjust="spacing" textLength="244.3232" x="824" y="2017.7803">controller-specific runtime states before</text><text fill="#334155" font-family="Helvetica" font-size="14" lengthAdjust="spacing" textLength="66.1445" x="824" y="2031.7803">promotion.</text><?plantuml-src hLTRRzis57xNhpZeNbh0JfecwSL11hHEjWRDcY9krnS30IqTsLmeKYCfkzwm_xx3YsJ9iMDZ6VnWMoJFzVk-GvbxBakcMG5cnZAru78AEHC64zEiJ5XwFzMgajbG2QNXfpobJzRQaM7EAc5_KT9-PWN2HnHpj3nbc_UC-5y8HoUjHQQrMaJhB_EZDw_Q9wMo-E5137d-9dkzlalf37NSCJavFNxvRcs7Sn_NZuzFZavFM-lUVAgqH0r7hnFBhK0OuPyLoXIX3ncpRC8C5aooAHOexU55VFHRysWeL9KDHMKiwcJ6CuHSAJjHFrgEJ6tpxmI0fLRfJk2n0FNIUkRu2j_cBscPZ56DUScatNo-lM4VAwtYD3O4p_6QosvftvsmuybRMdKcoyvIEibEyQXPUj2sjpdBq-IVnES6dwe9KhqjcgGL1mmf4As4e1As7t-WIjzYgcJArvUUtOnkFerGptaQcw6V0JFGVTGvSZEyIXmaGCsfuLtRlRLpH0wD6MWqIbIMApc8ZmuppgRKKtCO_lTNM_frcm_CV5fRo51GjbjFX-NkIPIPXswoAXRqVsxLQ00eQN-5O_au7iTIrnacg-FEM3Vx0JI_dsiNYh4lakuMTwXRem4qnYbBmocTNV4a7YDmhTGzVJ7ASy9bbZ1XmMf23jMBC88_Ia4zymq38fGaOYw12OqiMz8gDzOatLXSTBHx0B-YtH42ajOrtXhht431ZI4rt6Rvcjm-RlfvpWLzcS5Ofgfmo7CxxdZM0sEPnHS-KOsLOHEgcSlEWQVI90padrfEqa7CsHR1a0fWSKTwGgaIKhyJIaAIq_SljpU_NuskRZvVVVxr2OMZo7pnDcVml_LdGm4s0BQaGfEZmD0vjR835YvzoIlZpRco1w91H3Tc4OeN_l6sQCFgZe2tdALGSwwBsl6Six7ScJt1Vont8orqELgkktnnUNtvzIaTtjTvNT9K89DKGw9ipYKJDEGr5PYU6W_eYL2EPFjqKwDbrBEOaMUBbmTwhfS1TN7DCOj-aDo2cXYolA-34DOgK9Qxb1zO3J2leUv05QAXV7mm3lZxEVGA3OiPRvXIK8w6i3cMRKRsuDkNY_TV_Q-cXzwxuFEw6CuSAQoX151aVRQWwJ6McUQv1PmpKJ4VV0IrVpoZ0WedQAkPrusxvmRYg2fBfOaGK9MPysGgdRCK1v1nKmgsl9DqmKjkyGzCBKmmLngXg5nG0v8hOdvVuYA4PPAkxYLHw6jTX8sok9ftghGjamGhno4Q1TR1E-HARSYeOQdTj-tji5qNVEXrdvr3qnJ0BJbPs-qfCkfzMOhbM7xpXTirYPKKIvTTuoQKh5jcp-lOY9hNDJgUgDpRvugk9CnGaAB2Z1fcQ7pv-N5kyrhT3yBikOr_UsFPMllEEDqazNUbxs-3l7xdTdP9DtpzCM9mB8CmdriaedbsfwuBvyFRo_TVBo_EnZ9atVOPwbhxf2s1hEqjGQ3hBVlEZZ0QpYEdCigcaONpe4JzYi8L_QZXpJtDErY_5wrTpMhYaq2LMisveJIf0htGLlUBYeUw88-sOQVcqva5bSFcQsYyDJxj3hhJogQxwCWINo7NgW0xGtXmBLwzsX2q4uBJXR_I-OJTwrEy79HiwlDLikTqFGa0wolTZs1tB60sdHqarsn9LMqvguT2xMWnGxdIyOGQvh3bB3TYxhiMtIq8blquzfEIckHZKquCAOhL56EEp0S9q-aCxR94UWkcU1ozwFMGENqmeJVz8ZOdRRfEiapVQh6bHYxZjImCB8WZm8keFGlYa0cbQQpsQNuo0HGpJocow7wmuRKqCQAQRbf8dGoaKGReTJIZEytZMj7aFu1fdNb_FVD0eCEc2ODwFcLmc3pEe4YFmJPoG9iRVW-zQeP1uGP8kDYsn-TPrCkaricp6WVDC5r9l9VsjT6c_zDe4-xoAVny8qAbB2S4P7SFEt2teobnDcuPZVK0fDHfWBW9ITYVihB-FugEeQ2YEq_WnimPjOFoSrmXaBKHPKfCUSvJf_cM5_5sOMBohjw5Sf0zQ8Rolm00?></g></svg>