<?plantuml 1.2026.1?><svg xmlns="http://www.w3.org/2000/svg" xmlns:xlink="http://www.w3.org/1999/xlink" contentStyleType="text/css" data-diagram-type="ACTIVITY" height="1343px" preserveAspectRatio="none" style="width:661px;height:1343px;background:#FCFCFD;" version="1.1" viewBox="0 0 661 1343" width="661px" zoomAndPan="magnify"><title>Activity - database/DbHomePatchHistoryEntry</title><defs/><g><rect fill="#FCFCFD" height="1343" style="stroke:none;stroke-width:1;" width="661" x="0" y="0"/><g class="title" data-source-line="10"><text fill="#000000" font-family="Helvetica" font-size="14" font-weight="bold" lengthAdjust="spacing" textLength="307.3027" x="175.5439" y="30.7803">Activity - database/DbHomePatchHistoryEntry</text></g><ellipse cx="278.3506" cy="55" fill="#1D4ED8" rx="10" ry="10" style="stroke:#222222;stroke-width:1;"/><rect fill="#F8FAFC" height="48" rx="8" ry="8" style="stroke:#0F172A;stroke-width:0.5;" width="304.7852" x="125.958" y="85"/><text fill="#0F172A" font-family="Helvetica" font-size="14" lengthAdjust="spacing" textLength="136.9375" x="135.958" y="105.7803">Start from shared flow</text><text fill="#0F172A" font-family="Helvetica" font-size="14" lengthAdjust="spacing" textLength="284.7852" x="135.958" y="119.7803">shared/diagrams/shared-reconcile-activity.svg</text><rect fill="#F8FAFC" height="48" rx="8" ry="8" style="stroke:#0F172A;stroke-width:0.5;" width="332.8262" x="111.9375" y="153"/><text fill="#0F172A" font-family="Helvetica" font-size="14" lengthAdjust="spacing" textLength="312.8262" x="121.9375" y="173.7803">Load desired DbHomePatchHistoryEntry spec and</text><text fill="#0F172A" font-family="Helvetica" font-size="14" lengthAdjust="spacing" textLength="144.7373" x="121.9375" y="187.7803">status from Kubernetes</text><rect fill="#F8FAFC" height="62" rx="8" ry="8" style="stroke:#0F172A;stroke-width:0.5;" width="260.4199" x="148.1406" y="221"/><text fill="#0F172A" font-family="Helvetica" font-size="14" lengthAdjust="spacing" textLength="135.3857" x="158.1406" y="241.7803">Resolve OCI state via</text><text fill="#0F172A" font-family="Helvetica" font-size="14" lengthAdjust="spacing" textLength="218.627" x="158.1406" y="255.7803">GetDbHomePatchHistoryEntry with</text><text fill="#0F172A" font-family="Helvetica" font-size="14" lengthAdjust="spacing" textLength="240.4199" x="158.1406" y="269.7803">ListDbHomePatchHistoryEntry fallback</text><rect fill="#F8FAFC" height="62" rx="8" ry="8" style="stroke:#0F172A;stroke-width:0.5;" width="327.4121" x="114.6445" y="303"/><text fill="#0F172A" font-family="Helvetica" font-size="14" lengthAdjust="spacing" textLength="307.4121" x="124.6445" y="323.7803">Use scaffold_database_dbhomepatchhistoryentry</text><text fill="#0F172A" font-family="Helvetica" font-size="14" lengthAdjust="spacing" textLength="297.2402" x="124.6445" y="337.7803">filters compartment_id, state when OCID lookup</text><text fill="#0F172A" font-family="Helvetica" font-size="14" lengthAdjust="spacing" textLength="259.9023" x="124.6445" y="351.7803">or bind-versus-create needs list resolution</text><polygon fill="#E2E8F0" points="224.6611,385,332.04,385,344.04,397,332.04,409,224.6611,409,212.6611,397,224.6611,385" style="stroke:#1D4ED8;stroke-width:0.5;"/><text fill="#0F172A" font-family="Helvetica" font-size="14" lengthAdjust="spacing" textLength="107.3789" x="224.6611" y="400.7803">Resource exists?</text><text fill="#000000" font-family="Helvetica" font-size="14" lengthAdjust="spacing" textLength="21.7861" x="190.875" y="393.7803">yes</text><text fill="#000000" font-family="Helvetica" font-size="14" lengthAdjust="spacing" textLength="15.5723" x="344.04" y="393.7803">no</text><rect fill="#F8FAFC" height="48" rx="8" ry="8" style="stroke:#0F172A;stroke-width:0.5;" width="232.4199" x="28.1411" y="419"/><text fill="#0F172A" font-family="Helvetica" font-size="14" lengthAdjust="spacing" textLength="108.1787" x="38.1411" y="439.7803">Update path calls</text><text fill="#0F172A" font-family="Helvetica" font-size="14" lengthAdjust="spacing" textLength="212.4199" x="38.1411" y="453.7803">UpdateDbHomePatchHistoryEntry</text><rect fill="#F8FAFC" height="48" rx="8" ry="8" style="stroke:#0F172A;stroke-width:0.5;" width="266.7021" x="11" y="487"/><text fill="#0F172A" font-family="Helvetica" font-size="14" lengthAdjust="spacing" textLength="246.7021" x="21" y="507.7803">Guard mutable fields display_name and</text><text fill="#0F172A" font-family="Helvetica" font-size="14" lengthAdjust="spacing" textLength="202.3096" x="21" y="521.7803">force-new fields compartment_id</text><rect fill="#F8FAFC" height="48" rx="8" ry="8" style="stroke:#0F172A;stroke-width:0.5;" width="229.2959" x="297.7021" y="419"/><text fill="#0F172A" font-family="Helvetica" font-size="14" lengthAdjust="spacing" textLength="105.0547" x="307.7021" y="439.7803">Create path calls</text><text fill="#0F172A" font-family="Helvetica" font-size="14" lengthAdjust="spacing" textLength="209.2959" x="307.7021" y="453.7803">CreateDbHomePatchHistoryEntry</text><polygon fill="#E2E8F0" points="278.3506,541,290.3506,553,278.3506,565,266.3506,553,278.3506,541" style="stroke:#1D4ED8;stroke-width:0.5;"/><rect fill="#F8FAFC" height="104" rx="8" ry="8" style="stroke:#0F172A;stroke-width:0.5;" width="334.3164" x="111.1924" y="585"/><text fill="#0F172A" font-family="Helvetica" font-size="14" lengthAdjust="spacing" textLength="164.2061" x="121.1924" y="605.7803">Run provider helper hooks</text><text fill="#0F172A" font-family="Helvetica" font-size="14" lengthAdjust="spacing" textLength="219.0508" x="121.1924" y="619.7803">create=tfresource.CreateResource,</text><text fill="#0F172A" font-family="Helvetica" font-size="14" lengthAdjust="spacing" textLength="314.3164" x="121.1924" y="633.7803">tfresource.WaitForWorkRequestWithErrorHandling</text><text fill="#0F172A" font-family="Helvetica" font-size="14" lengthAdjust="spacing" textLength="215.5439" x="121.1924" y="647.7803">entity=template action=CREATED;</text><text fill="#0F172A" font-family="Helvetica" font-size="14" lengthAdjust="spacing" textLength="226.085" x="121.1924" y="661.7803">update=tfresource.UpdateResource;</text><text fill="#0F172A" font-family="Helvetica" font-size="14" lengthAdjust="spacing" textLength="212.8438" x="121.1924" y="675.7803">delete=tfresource.DeleteResource</text><rect fill="#F8FAFC" height="34" rx="8" ry="8" style="stroke:#0F172A;stroke-width:0.5;" width="263.5918" x="146.5547" y="709"/><text fill="#0F172A" font-family="Helvetica" font-size="14" lengthAdjust="spacing" textLength="243.5918" x="156.5547" y="729.7803">Apply repo-authored secret policy none</text><rect fill="#F8FAFC" height="76" rx="8" ry="8" style="stroke:#0F172A;stroke-width:0.5;" width="336.7021" x="109.9995" y="763"/><text fill="#0F172A" font-family="Helvetica" font-size="14" lengthAdjust="spacing" textLength="316.7021" x="119.9995" y="783.7803">Delete path uses DeleteDbHomePatchHistoryEntry</text><text fill="#0F172A" font-family="Helvetica" font-size="14" lengthAdjust="spacing" textLength="295.668" x="119.9995" y="797.7803">with required via GetDbHomePatchHistoryEntry</text><text fill="#0F172A" font-family="Helvetica" font-size="14" lengthAdjust="spacing" textLength="289.4268" x="119.9995" y="811.7803">or ListDbHomePatchHistoryEntry to DELETED</text><text fill="#0F172A" font-family="Helvetica" font-size="14" lengthAdjust="spacing" textLength="76.2549" x="119.9995" y="825.7803">confirmation</text><rect fill="#F8FAFC" height="48" rx="8" ry="8" style="stroke:#0F172A;stroke-width:0.5;" width="279.1299" x="138.7856" y="859"/><text fill="#0F172A" font-family="Helvetica" font-size="14" lengthAdjust="spacing" textLength="259.1299" x="148.7856" y="879.7803">Project required status and finalizer policy</text><text fill="#0F172A" font-family="Helvetica" font-size="14" lengthAdjust="spacing" textLength="174.3027" x="148.7856" y="893.7803">retain-until-confirmed-delete</text><rect fill="#F8FAFC" height="34" rx="8" ry="8" style="stroke:#0F172A;stroke-width:0.5;" width="313.4189" x="121.6411" y="927"/><text fill="#0F172A" font-family="Helvetica" font-size="14" lengthAdjust="spacing" textLength="293.4189" x="131.6411" y="947.7803">Requeue on provisioning, updating, terminating</text><path d="M309.3506,971 L309.3506,1147 L289.3506,1151 L309.3506,1155 L309.3506,1331 A0,0 0 0 0 309.3506,1331 L649.3906,1331 A0,0 0 0 0 649.3906,1331 L649.3906,981 L639.3906,971 L309.3506,971 A0,0 0 0 0 309.3506,971" fill="#FFF7D6" style="stroke:#B45309;stroke-width:0.5;"/><path d="M639.3906,971 L639.3906,981 L649.3906,981 L639.3906,971" fill="#FFF7D6" style="stroke:#B45309;stroke-width:0.5;"/><text fill="#334155" font-family="Helvetica" font-size="14" lengthAdjust="spacing" textLength="101.165" x="315.3506" y="986.7803">shared diagram:</text><text fill="#334155" font-family="Helvetica" font-size="14" lengthAdjust="spacing" textLength="284.7852" x="315.3506" y="1000.7803">shared/diagrams/shared-reconcile-activity.svg</text><text fill="#334155" font-family="Helvetica" font-size="14" lengthAdjust="spacing" textLength="265.3438" x="315.3506" y="1014.7803">Start from the shared reconcile activity and</text><text fill="#334155" font-family="Helvetica" font-size="14" lengthAdjust="spacing" textLength="273.8955" x="315.3506" y="1028.7803">specialize provider-backed CRUD, wait, and</text><text fill="#334155" font-family="Helvetica" font-size="14" lengthAdjust="spacing" textLength="182.875" x="315.3506" y="1042.7803">status-projection details here.</text><text fill="#334155" font-family="Helvetica" font-size="14" lengthAdjust="spacing" textLength="229.5371" x="315.3506" y="1056.7803">Controller-local activity diagrams add</text><text fill="#334155" font-family="Helvetica" font-size="14" lengthAdjust="spacing" textLength="238.8955" x="315.3506" y="1070.7803">list-lookup hints, secret policies, delete</text><text fill="#334155" font-family="Helvetica" font-size="14" lengthAdjust="spacing" textLength="200.0332" x="315.3506" y="1084.7803">handling, and open formal gaps.</text><text fill="#334155" font-family="Helvetica" font-size="14" lengthAdjust="spacing" textLength="281.709" x="315.3506" y="1098.7803">archetype batch: Generated service-manager</text><text fill="#334155" font-family="Helvetica" font-size="14" lengthAdjust="spacing" textLength="291.0469" x="315.3506" y="1112.7803">controllers specialize the shared reconcile path</text><text fill="#334155" font-family="Helvetica" font-size="14" lengthAdjust="spacing" textLength="189.8477" x="315.3506" y="1126.7803">with formal runtime ownership.</text><text fill="#334155" font-family="Helvetica" font-size="14" lengthAdjust="spacing" textLength="109.7305" x="315.3506" y="1140.7803">service: database</text><text fill="#334155" font-family="Helvetica" font-size="14" lengthAdjust="spacing" textLength="190.6611" x="315.3506" y="1154.7803">slug: dbhomepatchhistoryentry</text><text fill="#334155" font-family="Helvetica" font-size="14" lengthAdjust="spacing" textLength="200.7373" x="315.3506" y="1168.7803">kind: DbHomePatchHistoryEntry</text><text fill="#334155" font-family="Helvetica" font-size="14" lengthAdjust="spacing" textLength="241.2402" x="315.3506" y="1182.7803">archetype: generated-service-manager</text><text fill="#334155" font-family="Helvetica" font-size="14" lengthAdjust="spacing" textLength="156.4063" x="315.3506" y="1196.7803">status/finalizer: required /</text><text fill="#334155" font-family="Helvetica" font-size="14" lengthAdjust="spacing" textLength="174.3027" x="315.3506" y="1210.7803">retain-until-confirmed-delete</text><text fill="#334155" font-family="Helvetica" font-size="14" lengthAdjust="spacing" textLength="272.3984" x="315.3506" y="1224.7803">requeue: provisioning, updating, terminating</text><text fill="#334155" font-family="Helvetica" font-size="14" lengthAdjust="spacing" textLength="295.6816" x="315.3506" y="1238.7803">provider states: create PROVISIONING; update</text><text fill="#334155" font-family="Helvetica" font-size="14" lengthAdjust="spacing" textLength="192.165" x="315.3506" y="1252.7803">UPDATING; delete DELETING</text><text fill="#334155" font-family="Helvetica" font-size="14" lengthAdjust="spacing" textLength="319.04" x="315.3506" y="1266.7803">mutable/forceNew: display_name / compartment_id</text><text fill="#334155" font-family="Helvetica" font-size="14" lengthAdjust="spacing" textLength="104.3164" x="315.3506" y="1280.7803">open gaps: none</text><text fill="#334155" font-family="Helvetica" font-size="14" lengthAdjust="spacing" textLength="224.9023" x="315.3506" y="1294.7803">Scaffold metadata only; replace with</text><text fill="#334155" font-family="Helvetica" font-size="14" lengthAdjust="spacing" textLength="244.3232" x="315.3506" y="1308.7803">controller-specific runtime states before</text><text fill="#334155" font-family="Helvetica" font-size="14" lengthAdjust="spacing" textLength="66.1445" x="315.3506" y="1322.7803">promotion.</text><ellipse cx="278.3506" cy="1151" fill="none" rx="11" ry="11" style="stroke:#222222;stroke-width:1;"/><ellipse cx="278.3506" cy="1151" fill="#222222" rx="6" ry="6" style="stroke:#222222;stroke-width:1;"/><line style="stroke:#0F172A;stroke-width:1;" x1="278.3506" x2="278.3506" y1="65" y2="85"/><polygon fill="#0F172A" points="274.3506,75,278.3506,85,282.3506,75,278.3506,79" style="stroke:#0F172A;stroke-width:1;"/><line style="stroke:#0F172A;stroke-width:1;" x1="278.3506" x2="278.3506" y1="133" y2="153"/><polygon fill="#0F172A" points="274.3506,143,278.3506,153,282.3506,143,278.3506,147" style="stroke:#0F172A;stroke-width:1;"/><line style="stroke:#0F172A;stroke-width:1;" x1="278.3506" x2="278.3506" y1="201" y2="221"/><polygon fill="#0F172A" points="274.3506,211,278.3506,221,282.3506,211,278.3506,215" style="stroke:#0F172A;stroke-width:1;"/><line style="stroke:#0F172A;stroke-width:1;" x1="278.3506" x2="278.3506" y1="283" y2="303"/><polygon fill="#0F172A" points="274.3506,293,278.3506,303,282.3506,293,278.3506,297" style="stroke:#0F172A;stroke-width:1;"/><line style="stroke:#0F172A;stroke-width:1;" x1="144.3511" x2="144.3511" y1="467" y2="487"/><polygon fill="#0F172A" points="140.3511,477,144.3511,487,148.3511,477,144.3511,481" style="stroke:#0F172A;stroke-width:1;"/><line style="stroke:#0F172A;stroke-width:1;" x1="212.6611" x2="144.3511" y1="397" y2="397"/><line style="stroke:#0F172A;stroke-width:1;" x1="144.3511" x2="144.3511" y1="397" y2="419"/><polygon fill="#0F172A" points="140.3511,409,144.3511,419,148.3511,409,144.3511,413" style="stroke:#0F172A;stroke-width:1;"/><line style="stroke:#0F172A;stroke-width:1;" x1="344.04" x2="412.3501" y1="397" y2="397"/><line style="stroke:#0F172A;stroke-width:1;" x1="412.3501" x2="412.3501" y1="397" y2="419"/><polygon fill="#0F172A" points="408.3501,409,412.3501,419,416.3501,409,412.3501,413" style="stroke:#0F172A;stroke-width:1;"/><line style="stroke:#0F172A;stroke-width:1;" x1="144.3511" x2="144.3511" y1="535" y2="553"/><line style="stroke:#0F172A;stroke-width:1;" x1="144.3511" x2="266.3506" y1="553" y2="553"/><polygon fill="#0F172A" points="256.3506,549,266.3506,553,256.3506,557,260.3506,553" style="stroke:#0F172A;stroke-width:1;"/><line style="stroke:#0F172A;stroke-width:1;" x1="412.3501" x2="412.3501" y1="467" y2="553"/><line style="stroke:#0F172A;stroke-width:1;" x1="412.3501" x2="290.3506" y1="553" y2="553"/><polygon fill="#0F172A" points="300.3506,549,290.3506,553,300.3506,557,296.3506,553" style="stroke:#0F172A;stroke-width:1;"/><line style="stroke:#0F172A;stroke-width:1;" x1="278.3506" x2="278.3506" y1="365" y2="385"/><polygon fill="#0F172A" points="274.3506,375,278.3506,385,282.3506,375,278.3506,379" style="stroke:#0F172A;stroke-width:1;"/><line style="stroke:#0F172A;stroke-width:1;" x1="278.3506" x2="278.3506" y1="565" y2="585"/><polygon fill="#0F172A" points="274.3506,575,278.3506,585,282.3506,575,278.3506,579" style="stroke:#0F172A;stroke-width:1;"/><line style="stroke:#0F172A;stroke-width:1;" x1="278.3506" x2="278.3506" y1="689" y2="709"/><polygon fill="#0F172A" points="274.3506,699,278.3506,709,282.3506,699,278.3506,703" style="stroke:#0F172A;stroke-width:1;"/><line style="stroke:#0F172A;stroke-width:1;" x1="278.3506" x2="278.3506" y1="743" y2="763"/><polygon fill="#0F172A" points="274.3506,753,278.3506,763,282.3506,753,278.3506,757" style="stroke:#0F172A;stroke-width:1;"/><line style="stroke:#0F172A;stroke-width:1;" x1="278.3506" x2="278.3506" y1="839" y2="859"/><polygon fill="#0F172A" points="274.3506,849,278.3506,859,282.3506,849,278.3506,853" style="stroke:#0F172A;stroke-width:1;"/><line style="stroke:#0F172A;stroke-width:1;" x1="278.3506" x2="278.3506" y1="907" y2="927"/><polygon fill="#0F172A" points="274.3506,917,278.3506,927,282.3506,917,278.3506,921" style="stroke:#0F172A;stroke-width:1;"/><line style="stroke:#0F172A;stroke-width:1;" x1="278.3506" x2="278.3506" y1="961" y2="1140"/><polygon fill="#0F172A" points="274.3506,1130,278.3506,1140,282.3506,1130,278.3506,1134" style="stroke:#0F172A;stroke-width:1;"/><?plantuml-src bLPHJoCt47xthnYfBvoKJU20ExeHgcYI0rG428xo4WavwzciYzVUixr9qwh_lUFr9bbovDIA1rXxF9xlcsy-urwbhhZb9RY22xEKUWuvLmwPs-pCUFOwjwRMOcIKiV1Jdj6Fw4G8p7cj_1UZ_Iql4QvGBT3BZByVyoZ_GZWwwMnoQysopNwO7tt-s3sfZSTVlwiXpp-BJxjHnWgqRSJivFJuyEUTY71zktzyV79qUjhPRz9dncgqSFI9UUaLmaNcvKBw5IGWkESpxd0mdbsP4k-vpuehwRongudsTjN5ipxrDuDt-3lBUPw5dMwzBMw0V5lZPar8NXejlgC1F-9PVjW9w6Oy4YSephQRNzv9x3otVZSUD_atSJE-a_KVrXnbwMFu1RarZOOi2iYLMKvr_1ZGtNEYn0tYTs8nCpgJ2fCrINstc0zPUcEu89Ku6LBieHXSXHbmBIYzvxvsyTxVwXbIspmwolE0pf3yu6vq7T1vX8NaKts9Vb_IfVJ5LD_Gqhu86WaLsaZfdno2otYU6oLUrf9u4RE23bRXO14FOZWurRbK7gs3p9Ga3L_IyeiKlRQoPO4w53e6PSnhNKqrCJoJMYGBEbIx9BCOuZIYSA0eCzW0h_RIw26JEHm4kBND4F1FsdQ_V00VaXwiq7sWQYiHpbDX1MG4marrNDg3b01UrjmAA6j2HlhF9IgwMaXNARvwqM6y6_vpGvSc6fVhaBS8Xmp9HU106wfY555qguXBUwiW1SgSUbbhgAnPI18r5AYgy8kOeWIHcNEVsvQ0VaovvgCtrPszPox9UkopiQyF-Ar6vv-fwHEo7Nj5S1JvtbHJvIJ7SuybOQLwWq2DFXyzJ2w-JiR3gQuRwhftHZBNTrA8G8LlGyRDoYQ4fHTLfLRKnyealFQ52NftI7WyL4R9R4LEfKDWF1bfgnqwY0jxI9lge6FA-wrkHeXK3_j5toZjHvBt1iQJcma19wuDwTYMFAeklRVc3ypyzgfs5eb84eFcYlpTjbYccd1ngPEQo5L9cuby81BLp2lreqOmRQiTNKBjw473TlCNJL19USF7a6p7L2nuELWvBpnhJQVrcPJzBzzX7VUYkLaxs2Puw-G4ZWNtaGsyZIgJO0jqOlJmDEx1acJMYw4D9KaLgI98P6t4Wt8aOujzDY8ljaOfog0CpSJsedNXm8LWOUIJw0rGIErTxurK9D92P98LhOwR-y5KP08qeoMbdlFAzHctMO5-LI5vEJKx9N7GIqVg3Ugp2qdJN7BDvsXPjYdEGGVpkmG5TR96UUrjDdIQNC8iARqhPDLdRVvqyuGof-evVRxlcepUKP7kUmEsG5AOho4akn0Y_uED7DEjMWViXv9aDWeo_IzoP1jtQWpTfT0wzlt3tU_NZzTtjzUtbyDu5jdJ_VZYQxCGhueJHWkijTj1uwgtk4pVEkvWnrrPqzxGrxGn2_ROlaXG4hJ0CesJMWs3ooXEZqDeKAUjITFLN6QRRiNoOOPK0GPKfGcgxGSdRlvp-XS0?></g></svg>