<?plantuml 1.2026.1?><svg xmlns="http://www.w3.org/2000/svg" xmlns:xlink="http://www.w3.org/1999/xlink" contentStyleType="text/css" data-diagram-type="SEQUENCE" height="1329px" preserveAspectRatio="none" style="width:1323px;height:1329px;background:#FCFCFD;" version="1.1" viewBox="0 0 1323 1329" width="1323px" zoomAndPan="magnify"><title>Sequence - lustrefilestorage/LustreFileStorageObjectStorageLinkSyncJobs</title><defs/><g><rect fill="#FCFCFD" height="1329" style="stroke:none;stroke-width:1;" width="1323" x="0" y="0"/><text fill="#000000" font-family="Helvetica" font-size="14" font-weight="bold" lengthAdjust="spacing" textLength="501.0264" x="412.4839" y="25.7803">Sequence - lustrefilestorage/LustreFileStorageObjectStorageLinkSyncJobs</text><rect fill="none" height="86" rx="8" ry="8" style="stroke:#CBD5E1;stroke-width:1.5;" width="491.8052" x="815.189" y="361"/><rect fill="none" height="204" rx="8" ry="8" style="stroke:#CBD5E1;stroke-width:1.5;" width="511.8052" x="805.189" y="461"/><rect fill="none" height="44" rx="8" ry="8" style="stroke:#CBD5E1;stroke-width:1.5;" width="491.8052" x="815.189" y="512"/><rect fill="none" height="44" rx="8" ry="8" style="stroke:#CBD5E1;stroke-width:1.5;" width="491.8052" x="815.189" y="614"/><rect fill="none" height="130" rx="8" ry="8" style="stroke:#CBD5E1;stroke-width:1.5;" width="511.8052" x="805.189" y="679"/><rect fill="none" height="72" rx="8" ry="8" style="stroke:#CBD5E1;stroke-width:1.5;" width="491.8052" x="815.189" y="730"/><g class="participant-lifeline" data-entity-uid="part1" data-qualified-name="Kubernetes" id="part1-lifeline"><g><title>Kubernetes</title><rect fill="#000000" fill-opacity="0.00000" height="1208" width="8" x="39.8032" y="114"/><line style="stroke:#94A3B8;stroke-width:0.5;stroke-dasharray:5,5;" x1="43" x2="43" y1="114" y2="1322"/></g></g><g class="participant-lifeline" data-entity-uid="part2" data-qualified-name="Controller" id="part2-lifeline"><g><title>Controller</title><rect fill="#000000" fill-opacity="0.00000" height="1208" width="8" x="350.1812" y="114"/><line style="stroke:#94A3B8;stroke-width:0.5;stroke-dasharray:5,5;" x1="353.8364" x2="353.8364" y1="114" y2="1322"/></g></g><g class="participant-lifeline" data-entity-uid="part3" data-qualified-name="BaseReconciler" id="part3-lifeline"><g><title>BaseReconciler</title><rect fill="#000000" fill-opacity="0.00000" height="1208" width="8" x="589.0073" y="114"/><line style="stroke:#94A3B8;stroke-width:0.5;stroke-dasharray:5,5;" x1="592.9834" x2="592.9834" y1="114" y2="1322"/></g></g><g class="participant-lifeline" data-entity-uid="part4" data-qualified-name="ServiceManager" id="part4-lifeline"><g><title>OSOKServiceManager</title><rect fill="#000000" fill-opacity="0.00000" height="1208" width="8" x="899.3853" y="114"/><line style="stroke:#94A3B8;stroke-width:0.5;stroke-dasharray:5,5;" x1="903.189" x2="903.189" y1="114" y2="1322"/></g></g><g class="participant-lifeline" data-entity-uid="part5" data-qualified-name="OCI" id="part5-lifeline"><g><title>OCI</title><rect fill="#000000" fill-opacity="0.00000" height="1208" width="8" x="1273.5493" y="114"/><line style="stroke:#94A3B8;stroke-width:0.5;stroke-dasharray:5,5;" x1="1277.1045" x2="1277.1045" y1="114" y2="1322"/></g></g><g class="participant participant-head" data-entity-uid="part1" data-qualified-name="Kubernetes" id="part1-head"><text fill="#000000" font-family="Helvetica" font-size="14" lengthAdjust="spacing" textLength="71.6064" x="5" y="110.7803">Kubernetes</text><ellipse cx="43.8032" cy="48.5" fill="#E2E8F0" rx="8" ry="8" style="stroke:#0F172A;stroke-width:0.5;"/><path d="M43.8032,56.5 L43.8032,83.5 M30.8032,64.5 L56.8032,64.5 M43.8032,83.5 L30.8032,98.5 M43.8032,83.5 L56.8032,98.5" fill="none" style="stroke:#0F172A;stroke-width:0.5;"/></g><g class="participant participant-head" data-entity-uid="part2" data-qualified-name="Controller" id="part2-head"><rect fill="#E2E8F0" height="28" rx="8" ry="8" style="stroke:#0F172A;stroke-width:0.5;" width="74.6895" x="316.8364" y="85"/><text fill="#0F172A" font-family="Helvetica" font-size="14" lengthAdjust="spacing" textLength="60.6895" x="323.8364" y="102.7803">Controller</text></g><g class="participant participant-head" data-entity-uid="part3" data-qualified-name="BaseReconciler" id="part3-head"><rect fill="#E2E8F0" height="28" rx="8" ry="8" style="stroke:#0F172A;stroke-width:0.5;" width="112.0479" x="536.9834" y="85"/><text fill="#0F172A" font-family="Helvetica" font-size="14" lengthAdjust="spacing" textLength="98.0479" x="543.9834" y="102.7803">BaseReconciler</text></g><g class="participant participant-head" data-entity-uid="part4" data-qualified-name="ServiceManager" id="part4-head"><rect fill="#E2E8F0" height="28" rx="8" ry="8" style="stroke:#0F172A;stroke-width:0.5;" width="156.3926" x="825.189" y="85"/><text fill="#0F172A" font-family="Helvetica" font-size="14" lengthAdjust="spacing" textLength="142.3926" x="832.189" y="102.7803">OSOKServiceManager</text></g><g class="participant participant-head" data-entity-uid="part5" data-qualified-name="OCI" id="part5-head"><rect fill="#E2E8F0" height="28" rx="8" ry="8" style="stroke:#0F172A;stroke-width:0.5;" width="38.8896" x="1258.1045" y="85"/><text fill="#0F172A" font-family="Helvetica" font-size="14" lengthAdjust="spacing" textLength="24.8896" x="1265.1045" y="102.7803">OCI</text></g><path d="M528,137 L528,187 A8,8 0 0 0 536,195 L959,195 A8,8 0 0 0 967,187 L967,139 L957,129 L536,129 A8,8 0 0 0 528,137" fill="#FFF7D6" style="stroke:#B45309;stroke-width:0.5;"/><path d="M957,129 L957,135 A4,4 0 0 0 961,139 L967,139 L957,129" fill="#FFF7D6" style="stroke:#B45309;stroke-width:0.5;"/><text fill="#334155" font-family="Helvetica" font-size="14" lengthAdjust="spacing" textLength="111.2891" x="589.6033" y="144.7803">shared resolution:</text><text fill="#334155" font-family="Helvetica" font-size="14" lengthAdjust="spacing" textLength="307.3916" x="589.6033" y="158.7803">shared/diagrams/shared-resolution-sequence.svg</text><text fill="#334155" font-family="Helvetica" font-size="14" lengthAdjust="spacing" textLength="88.7305" x="589.6033" y="172.7803">shared delete:</text><text fill="#334155" font-family="Helvetica" font-size="14" lengthAdjust="spacing" textLength="284.833" x="589.6033" y="186.7803">shared/diagrams/shared-delete-sequence.svg</text><g class="message" data-entity-1="part1" data-entity-2="part2" id="msg1"><polygon fill="#0F172A" points="342.1812,244,352.1812,248,342.1812,252,346.1812,248" style="stroke:#0F172A;stroke-width:1;"/><line style="stroke:#0F172A;stroke-width:1;" x1="43.8032" x2="348.1812" y1="248" y2="248"/><text fill="#000000" font-family="Helvetica" font-size="14" lengthAdjust="spacing" textLength="54.5029" x="50.8032" y="214.7803">enqueue</text><text fill="#000000" font-family="Helvetica" font-size="14" lengthAdjust="spacing" textLength="286.3779" x="50.8032" y="228.7803">LustreFileStorageObjectStorageLinkSyncJobs</text><text fill="#000000" font-family="Helvetica" font-size="14" lengthAdjust="spacing" textLength="56.0273" x="50.8032" y="242.7803">reconcile</text></g><g class="message" data-entity-1="part2" data-entity-2="part3" id="msg2"><polygon fill="#0F172A" points="581.0073,272,591.0073,276,581.0073,280,585.0073,276" style="stroke:#0F172A;stroke-width:1;"/><line style="stroke:#0F172A;stroke-width:1;" x1="354.1812" x2="587.0073" y1="276" y2="276"/><text fill="#000000" font-family="Helvetica" font-size="14" lengthAdjust="spacing" textLength="117.4961" x="361.1812" y="270.7803">Reconcile(request)</text></g><g class="message" data-entity-1="part3" data-entity-2="part4" id="msg3"><polygon fill="#0F172A" points="891.3853,314,901.3853,318,891.3853,322,895.3853,318" style="stroke:#0F172A;stroke-width:1;"/><line style="stroke:#0F172A;stroke-width:1;" x1="593.0073" x2="897.3853" y1="318" y2="318"/><text fill="#000000" font-family="Helvetica" font-size="14" lengthAdjust="spacing" textLength="105.834" x="600.0073" y="298.7803">reconcile desired</text><text fill="#000000" font-family="Helvetica" font-size="14" lengthAdjust="spacing" textLength="286.3779" x="600.0073" y="312.7803">LustreFileStorageObjectStorageLinkSyncJobs</text></g><g class="message" data-entity-1="part4" data-entity-2="part5" id="msg4"><polygon fill="#0F172A" points="1265.5493,342,1275.5493,346,1265.5493,350,1269.5493,346" style="stroke:#0F172A;stroke-width:1;"/><line style="stroke:#0F172A;stroke-width:1;" x1="903.3853" x2="1271.5493" y1="346" y2="346"/><text fill="#000000" font-family="Helvetica" font-size="14" lengthAdjust="spacing" textLength="308.9434" x="910.3853" y="340.7803">GetLustreFileStorageObjectStorageLinkSyncJobs</text></g><path d="M823.189,361 L881.9546,361 L881.9546,367 L871.9546,377 L815.189,377 L815.189,369 A8,8 0 0 1 823.189,361" fill="#F8FAFC" style="stroke:#CBD5E1;stroke-width:1.5;"/><rect fill="none" height="86" rx="8" ry="8" style="stroke:#CBD5E1;stroke-width:1.5;" width="491.8052" x="815.189" y="361"/><text fill="#000000" font-family="Helvetica" font-size="14" font-weight="bold" lengthAdjust="spacing" textLength="21.7656" x="830.189" y="372.7803">opt</text><text fill="#000000" font-family="Helvetica" font-size="14" font-weight="bold" lengthAdjust="spacing" textLength="135.3516" x="896.9546" y="373.7803">[list lookup fallback]</text><g class="message" data-entity-1="part4" data-entity-2="part5" id="msg5"><polygon fill="#0F172A" points="1265.5493,407,1275.5493,411,1265.5493,415,1269.5493,411" style="stroke:#0F172A;stroke-width:1;"/><line style="stroke:#0F172A;stroke-width:1;" x1="903.3853" x2="1271.5493" y1="411" y2="411"/><text fill="#000000" font-family="Helvetica" font-size="14" lengthAdjust="spacing" textLength="350.1641" x="910.3853" y="391.7803">ListLustreFileStorageObjectStorageLinkSyncJobs(filters:</text><text fill="#000000" font-family="Helvetica" font-size="14" lengthAdjust="spacing" textLength="143.1719" x="910.3853" y="405.7803">compartment_id, state)</text></g><g class="message" data-entity-1="part5" data-entity-2="part4" id="msg6"><polygon fill="#0F172A" points="914.3853,435,904.3853,439,914.3853,443,910.3853,439" style="stroke:#0F172A;stroke-width:1;"/><line style="stroke:#0F172A;stroke-width:1;stroke-dasharray:2,2;" x1="908.3853" x2="1276.5493" y1="439" y2="439"/><text fill="#000000" font-family="Helvetica" font-size="14" lengthAdjust="spacing" textLength="156.3994" x="920.3853" y="433.7803">matching collection items</text></g><path d="M813.189,461 L866.5269,461 L866.5269,467 L856.5269,477 L805.189,477 L805.189,469 A8,8 0 0 1 813.189,461" fill="#F8FAFC" style="stroke:#CBD5E1;stroke-width:1.5;"/><rect fill="none" height="204" rx="8" ry="8" style="stroke:#CBD5E1;stroke-width:1.5;" width="511.8052" x="805.189" y="461"/><text fill="#000000" font-family="Helvetica" font-size="14" font-weight="bold" lengthAdjust="spacing" textLength="16.3379" x="820.189" y="472.7803">alt</text><text fill="#000000" font-family="Helvetica" font-size="14" font-weight="bold" lengthAdjust="spacing" textLength="135.3447" x="881.5269" y="473.7803">[create or bind path]</text><g class="message" data-entity-1="part4" data-entity-2="part5" id="msg7"><polygon fill="#0F172A" points="1265.5493,493,1275.5493,497,1265.5493,501,1269.5493,497" style="stroke:#0F172A;stroke-width:1;"/><line style="stroke:#0F172A;stroke-width:1;" x1="903.3853" x2="1271.5493" y1="497" y2="497"/><text fill="#000000" font-family="Helvetica" font-size="14" lengthAdjust="spacing" textLength="328.3984" x="910.3853" y="491.7803">CreateLustreFileStorageObjectStorageLinkSyncJobs</text></g><path d="M823.189,512 L889.7339,512 L889.7339,518 L879.7339,528 L815.189,528 L815.189,520 A8,8 0 0 1 823.189,512" fill="#F8FAFC" style="stroke:#CBD5E1;stroke-width:1.5;"/><rect fill="none" height="44" rx="8" ry="8" style="stroke:#CBD5E1;stroke-width:1.5;" width="491.8052" x="815.189" y="512"/><text fill="#000000" font-family="Helvetica" font-size="14" font-weight="bold" lengthAdjust="spacing" textLength="29.5449" x="830.189" y="523.7803">loop</text><text fill="#000000" font-family="Helvetica" font-size="14" font-weight="bold" lengthAdjust="spacing" textLength="215.4756" x="904.7339" y="524.7803">[create pending PROVISIONING]</text><g class="message" data-entity-1="part4" data-entity-2="part5" id="msg8"><polygon fill="#0F172A" points="1265.5493,544,1275.5493,548,1265.5493,552,1269.5493,548" style="stroke:#0F172A;stroke-width:1;"/><line style="stroke:#0F172A;stroke-width:1;" x1="903.3853" x2="1271.5493" y1="548" y2="548"/><text fill="#000000" font-family="Helvetica" font-size="14" lengthAdjust="spacing" textLength="308.9434" x="910.3853" y="542.7803">GetLustreFileStorageObjectStorageLinkSyncJobs</text></g><line style="stroke:#CBD5E1;stroke-width:1;stroke-dasharray:2,2;" x1="805.189" x2="1316.9941" y1="564" y2="564"/><text fill="#000000" font-family="Helvetica" font-size="14" font-weight="bold" lengthAdjust="spacing" textLength="137.6484" x="810.189" y="574.7803">[update or drift path]</text><g class="message" data-entity-1="part4" data-entity-2="part5" id="msg9"><polygon fill="#0F172A" points="1265.5493,595,1275.5493,599,1265.5493,603,1269.5493,599" style="stroke:#0F172A;stroke-width:1;"/><line style="stroke:#0F172A;stroke-width:1;" x1="903.3853" x2="1271.5493" y1="599" y2="599"/><text fill="#000000" font-family="Helvetica" font-size="14" lengthAdjust="spacing" textLength="331.5225" x="910.3853" y="593.7803">UpdateLustreFileStorageObjectStorageLinkSyncJobs</text></g><path d="M823.189,614 L889.7339,614 L889.7339,620 L879.7339,630 L815.189,630 L815.189,622 A8,8 0 0 1 823.189,614" fill="#F8FAFC" style="stroke:#CBD5E1;stroke-width:1.5;"/><rect fill="none" height="44" rx="8" ry="8" style="stroke:#CBD5E1;stroke-width:1.5;" width="491.8052" x="815.189" y="614"/><text fill="#000000" font-family="Helvetica" font-size="14" font-weight="bold" lengthAdjust="spacing" textLength="29.5449" x="830.189" y="625.7803">loop</text><text fill="#000000" font-family="Helvetica" font-size="14" font-weight="bold" lengthAdjust="spacing" textLength="190.5381" x="904.7339" y="626.7803">[update pending UPDATING]</text><g class="message" data-entity-1="part4" data-entity-2="part5" id="msg10"><polygon fill="#0F172A" points="1265.5493,646,1275.5493,650,1265.5493,654,1269.5493,650" style="stroke:#0F172A;stroke-width:1;"/><line style="stroke:#0F172A;stroke-width:1;" x1="903.3853" x2="1271.5493" y1="650" y2="650"/><text fill="#000000" font-family="Helvetica" font-size="14" lengthAdjust="spacing" textLength="308.9434" x="910.3853" y="644.7803">GetLustreFileStorageObjectStorageLinkSyncJobs</text></g><path d="M813.189,679 L871.9546,679 L871.9546,685 L861.9546,695 L805.189,695 L805.189,687 A8,8 0 0 1 813.189,679" fill="#F8FAFC" style="stroke:#CBD5E1;stroke-width:1.5;"/><rect fill="none" height="130" rx="8" ry="8" style="stroke:#CBD5E1;stroke-width:1.5;" width="511.8052" x="805.189" y="679"/><text fill="#000000" font-family="Helvetica" font-size="14" font-weight="bold" lengthAdjust="spacing" textLength="21.7656" x="820.189" y="690.7803">opt</text><text fill="#000000" font-family="Helvetica" font-size="14" font-weight="bold" lengthAdjust="spacing" textLength="120.5859" x="886.9546" y="691.7803">[delete requested]</text><g class="message" data-entity-1="part4" data-entity-2="part5" id="msg11"><polygon fill="#0F172A" points="1265.5493,711,1275.5493,715,1265.5493,719,1269.5493,715" style="stroke:#0F172A;stroke-width:1;"/><line style="stroke:#0F172A;stroke-width:1;" x1="903.3853" x2="1271.5493" y1="715" y2="715"/><text fill="#000000" font-family="Helvetica" font-size="14" lengthAdjust="spacing" textLength="326.8467" x="910.3853" y="709.7803">DeleteLustreFileStorageObjectStorageLinkSyncJobs</text></g><path d="M823.189,730 L889.7339,730 L889.7339,736 L879.7339,746 L815.189,746 L815.189,738 A8,8 0 0 1 823.189,730" fill="#F8FAFC" style="stroke:#CBD5E1;stroke-width:1.5;"/><rect fill="none" height="72" rx="8" ry="8" style="stroke:#CBD5E1;stroke-width:1.5;" width="491.8052" x="815.189" y="730"/><text fill="#000000" font-family="Helvetica" font-size="14" font-weight="bold" lengthAdjust="spacing" textLength="29.5449" x="830.189" y="741.7803">loop</text><text fill="#000000" font-family="Helvetica" font-size="14" font-weight="bold" lengthAdjust="spacing" textLength="213.124" x="904.7339" y="742.7803">[delete confirmation DELETING]</text><g class="message" data-entity-1="part4" data-entity-2="part5" id="msg12"><polygon fill="#0F172A" points="1265.5493,790,1275.5493,794,1265.5493,798,1269.5493,794" style="stroke:#0F172A;stroke-width:1;"/><line style="stroke:#0F172A;stroke-width:1;" x1="903.3853" x2="1271.5493" y1="794" y2="794"/><text fill="#000000" font-family="Helvetica" font-size="14" lengthAdjust="spacing" textLength="308.9434" x="910.3853" y="760.7803">GetLustreFileStorageObjectStorageLinkSyncJobs</text><text fill="#000000" font-family="Helvetica" font-size="14" lengthAdjust="spacing" textLength="12.4482" x="910.3853" y="774.7803">or</text><text fill="#000000" font-family="Helvetica" font-size="14" lengthAdjust="spacing" textLength="308.1641" x="910.3853" y="788.7803">ListLustreFileStorageObjectStorageLinkSyncJobs</text></g><g class="message" data-entity-1="part4" data-entity-2="part3" id="msg13"><polygon fill="#0F172A" points="604.0073,846,594.0073,850,604.0073,854,600.0073,850" style="stroke:#0F172A;stroke-width:1;"/><line style="stroke:#0F172A;stroke-width:1;stroke-dasharray:2,2;" x1="598.0073" x2="902.3853" y1="850" y2="850"/><text fill="#000000" font-family="Helvetica" font-size="14" lengthAdjust="spacing" textLength="100.7822" x="610.0073" y="830.7803">status=required,</text><text fill="#000000" font-family="Helvetica" font-size="14" lengthAdjust="spacing" textLength="230.7197" x="610.0073" y="844.7803">finalizer=retain-until-confirmed-delete</text></g><g class="message" data-entity-1="part3" data-entity-2="part2" id="msg14"><polygon fill="#0F172A" points="365.1812,888,355.1812,892,365.1812,896,361.1812,892" style="stroke:#0F172A;stroke-width:1;"/><line style="stroke:#0F172A;stroke-width:1;stroke-dasharray:2,2;" x1="359.1812" x2="592.0073" y1="892" y2="892"/><text fill="#000000" font-family="Helvetica" font-size="14" lengthAdjust="spacing" textLength="214.8262" x="371.1812" y="872.7803">requeue on provisioning, updating,</text><text fill="#000000" font-family="Helvetica" font-size="14" lengthAdjust="spacing" textLength="69.2549" x="371.1812" y="886.7803">terminating</text></g><path d="M908,913 L908,1299 A8,8 0 0 0 916,1307 L1240,1307 A8,8 0 0 0 1248,1299 L1248,915 L1238,905 L916,905 A8,8 0 0 0 908,913" fill="#FFF7D6" style="stroke:#B45309;stroke-width:0.5;"/><path d="M1238,905 L1238,911 A4,4 0 0 0 1242,915 L1248,915 L1238,905" fill="#FFF7D6" style="stroke:#B45309;stroke-width:0.5;"/><text fill="#334155" font-family="Helvetica" font-size="14" lengthAdjust="spacing" textLength="101.165" x="914" y="920.7803">shared diagram:</text><text fill="#334155" font-family="Helvetica" font-size="14" lengthAdjust="spacing" textLength="307.3916" x="914" y="934.7803">shared/diagrams/shared-resolution-sequence.svg</text><text fill="#334155" font-family="Helvetica" font-size="14" lengthAdjust="spacing" textLength="143.1992" x="914" y="948.7803">shared delete diagram:</text><text fill="#334155" font-family="Helvetica" font-size="14" lengthAdjust="spacing" textLength="284.833" x="914" y="962.7803">shared/diagrams/shared-delete-sequence.svg</text><text fill="#334155" font-family="Helvetica" font-size="14" lengthAdjust="spacing" textLength="280.9297" x="914" y="976.7803">Start from the shared resolution sequence for</text><text fill="#334155" font-family="Helvetica" font-size="14" lengthAdjust="spacing" textLength="260.7295" x="914" y="990.7803">OCID binding, datasource pagination, and</text><text fill="#334155" font-family="Helvetica" font-size="14" lengthAdjust="spacing" textLength="163.4268" x="914" y="1004.7803">create-or-update dispatch.</text><text fill="#334155" font-family="Helvetica" font-size="14" lengthAdjust="spacing" textLength="301.1982" x="914" y="1018.7803">Layer the shared delete sequence when finalizer</text><text fill="#334155" font-family="Helvetica" font-size="14" lengthAdjust="spacing" textLength="269.2471" x="914" y="1032.7803">retention, delete confirmation, work-request</text><text fill="#334155" font-family="Helvetica" font-size="14" lengthAdjust="spacing" textLength="199.2334" x="914" y="1046.7803">polling, or Secret cleanup apply.</text><text fill="#334155" font-family="Helvetica" font-size="14" lengthAdjust="spacing" textLength="281.709" x="914" y="1060.7803">archetype batch: Generated service-manager</text><text fill="#334155" font-family="Helvetica" font-size="14" lengthAdjust="spacing" textLength="266.1504" x="914" y="1074.7803">controllers follow the shared resolution and</text><text fill="#334155" font-family="Helvetica" font-size="14" lengthAdjust="spacing" textLength="259.9297" x="914" y="1088.7803">delete sequences with imported waits and</text><text fill="#334155" font-family="Helvetica" font-size="14" lengthAdjust="spacing" textLength="134.6064" x="914" y="1102.7803">controller-local policy.</text><text fill="#334155" font-family="Helvetica" font-size="14" lengthAdjust="spacing" textLength="150.9512" x="914" y="1116.7803">service: lustrefilestorage</text><text fill="#334155" font-family="Helvetica" font-size="14" lengthAdjust="spacing" textLength="291.8193" x="914" y="1130.7803">slug: lustrefilestorageobjectstoragelinksyncjobs</text><text fill="#334155" font-family="Helvetica" font-size="14" lengthAdjust="spacing" textLength="319.8398" x="914" y="1144.7803">kind: LustreFileStorageObjectStorageLinkSyncJobs</text><text fill="#334155" font-family="Helvetica" font-size="14" lengthAdjust="spacing" textLength="241.2402" x="914" y="1158.7803">archetype: generated-service-manager</text><text fill="#334155" font-family="Helvetica" font-size="14" lengthAdjust="spacing" textLength="156.4063" x="914" y="1172.7803">status/finalizer: required /</text><text fill="#334155" font-family="Helvetica" font-size="14" lengthAdjust="spacing" textLength="174.3027" x="914" y="1186.7803">retain-until-confirmed-delete</text><text fill="#334155" font-family="Helvetica" font-size="14" lengthAdjust="spacing" textLength="272.3984" x="914" y="1200.7803">requeue: provisioning, updating, terminating</text><text fill="#334155" font-family="Helvetica" font-size="14" lengthAdjust="spacing" textLength="295.6816" x="914" y="1214.7803">provider states: create PROVISIONING; update</text><text fill="#334155" font-family="Helvetica" font-size="14" lengthAdjust="spacing" textLength="192.165" x="914" y="1228.7803">UPDATING; delete DELETING</text><text fill="#334155" font-family="Helvetica" font-size="14" lengthAdjust="spacing" textLength="319.04" x="914" y="1242.7803">mutable/forceNew: display_name / compartment_id</text><text fill="#334155" font-family="Helvetica" font-size="14" lengthAdjust="spacing" textLength="104.3164" x="914" y="1256.7803">open gaps: none</text><text fill="#334155" font-family="Helvetica" font-size="14" lengthAdjust="spacing" textLength="224.9023" x="914" y="1270.7803">Scaffold metadata only; replace with</text><text fill="#334155" font-family="Helvetica" font-size="14" lengthAdjust="spacing" textLength="244.3232" x="914" y="1284.7803">controller-specific runtime states before</text><text fill="#334155" font-family="Helvetica" font-size="14" lengthAdjust="spacing" textLength="66.1445" x="914" y="1298.7803">promotion.</text><?plantuml-src hLTjRzis4FxENt7elhI05ITDqgOADc1DsYvh5XVrkay62eewsQmfKYMfU5xH_xwZtY8vTXTZGP309eztzpntzv1nIwaBRdaERi5Jiv9w3XbN3fdhTX8kbdDhIfrU66Ki_9G9-abx5Ybcl5J-hT7-XkS8lw6wHIy5tsupbVyW79tqDhcrPjLuFyoENZxldzJ6u-jxEMJPo_J5ffMnATh68ZavFJvyjM4HmZVxnySdHwUdlVtAlJ1MeuMZ5ynBhn2c-BL4BH0YKANp5ZEfq7bZ-Hp7rzNAMrgPrYkJv0iAttovbdevNMlnkqaSMyWK8JF69-RlNapNkl_60BYWWmCC3HVjrYO9-1pFiaFQ9cT4joouzjlFzmqUugN7K-T3oInW6hByweGV9sUq6rmMWosHfATur6tTg-1PnZF1lhCA6xml4oJgFJhMomCkA15hb48xM7xD7Nv4ORIGcrjF9jF9-odQModm3wwf4FO9S0V3fS6HoSKL2zq1vfPgF_GzsZX7Ss8n1OlEgD9Be-DcQPnAFgUQkd7zFRepYTeo7xZRUUiXHKLeTvwkjuSdKQTL5xCxiY3wfSTH3AZ9liIPVdXlphHjqR8xLy7na8aOkizFRKZB-MTiQ18E3VcAeNDEY9qaQFlaneRUWdygLWplqE_Xn1IUkjVH7sEMPH4KJWLLs-NzccmVxlufIO97w-AP5YOFVPMZzfzbEWBdkSTdZ9n2j8MQd7kn298h0kKYj0f8ZxaBbMPSUH0MUUXB2ucauXVSBtObVL6Pxi4AaL6q0GeA61Bvy77orzNqQd9pTVFkSRWFI90k52YBj86IMfdv7sBvLDdkYwM9q6BvzE7orpyV5mVzXbwgPnEQ8S1qLuJBocvV68rtcffCMcgHq1MNRwxVF1gMcJQMXd2l9k_mRoQmHIP2rvVkvq1FcFVHZ81ehkZMjxJekTHHgRrKKGEnKxjxQh8XRXNX9VMGXiAQM-c86ghqgAvy-3JJD8avHGlVQastShxmO3BOBkIDxlu_5VzFBzlKVEf9AY2p9WU_GBXtiTmz3Z9ZWuPSLY9G0IQut9dIqcR1vnLUeqV0gK3rH4V6HiqyfD8LGMWEs3LV4wkzO4tsNQ3L0ZLqnM9KB5AoolEMfXp1ojXbr4m1AwX8LMuquLEaB4Yz579DUikBGgqF6BTYWNvT83qfAP_GjVJMeXHJog2gJPGtnH5TrHsXLygiTd0K46-WSB2IVW4oBumDlbTSUbTJqtcDb15S0UKi1MNMX8_ll_6OK-Lyoxgf1gNvGhYNZWRbInWKUjkbT8KyVB8wMcAOjuH4cuJKCpNkQbCFGnWl6BCV3rKpDV6kcO7-o5Gsz8QhhouNjnT4_s8uRvIMjGfxthP79rDvwNcYS4oTA_06Lt7LXOglF-lm3y8OXZSbgIertfmN550RZMmgU4PrJo4dQA7PQURL-fn0avFGg5JXVZbTWK9cKe0D9524Edr8a3B0W2eteLyEkZVKlm00?></g></svg>