<?plantuml 1.2026.1?><svg xmlns="http://www.w3.org/2000/svg" xmlns:xlink="http://www.w3.org/1999/xlink" contentStyleType="text/css" data-diagram-type="SEQUENCE" height="1992px" preserveAspectRatio="none" style="width:1236px;height:1992px;background:#FCFCFD;" version="1.1" viewBox="0 0 1236 1992" width="1236px" zoomAndPan="magnify"><title>Sequence - nosql/WorkRequestError</title><defs/><g><rect fill="#FCFCFD" height="1992" style="stroke:none;stroke-width:1;" width="1236" x="0" y="0"/><text fill="#000000" font-family="Helvetica" font-size="14" font-weight="bold" lengthAdjust="spacing" textLength="244.2686" x="502.3445" y="25.7803">Sequence - nosql/WorkRequestError</text><rect fill="none" height="290" rx="8" ry="8" style="stroke:#CBD5E1;stroke-width:1.5;" width="738.3779" x="474.832" y="314"/><rect fill="none" height="146" rx="8" ry="8" style="stroke:#CBD5E1;stroke-width:1.5;" width="475.9575" x="727.2524" y="423"/><rect fill="none" height="44" rx="8" ry="8" style="stroke:#CBD5E1;stroke-width:1.5;" width="455.9575" x="737.2524" y="474"/><rect fill="none" height="826" rx="8" ry="8" style="stroke:#CBD5E1;stroke-width:1.5;" width="775.1255" x="454.832" y="618"/><rect fill="none" height="274" rx="8" ry="8" style="stroke:#CBD5E1;stroke-width:1.5;" width="738.3779" x="464.832" y="641"/><rect fill="none" height="58" rx="8" ry="8" style="stroke:#CBD5E1;stroke-width:1.5;" width="455.9575" x="737.2524" y="748"/><rect fill="none" height="88" rx="8" ry="8" style="stroke:#CBD5E1;stroke-width:1.5;" width="438.813" x="474.832" y="820"/><rect fill="none" height="378" rx="8" ry="8" style="stroke:#CBD5E1;stroke-width:1.5;" width="755.1255" x="464.832" y="1017"/><rect fill="none" height="44" rx="8" ry="8" style="stroke:#CBD5E1;stroke-width:1.5;" width="438.813" x="474.832" y="1116"/><rect fill="none" height="116" rx="8" ry="8" style="stroke:#CBD5E1;stroke-width:1.5;" width="475.9575" x="727.2524" y="1174"/><rect fill="none" height="44" rx="8" ry="8" style="stroke:#CBD5E1;stroke-width:1.5;" width="455.9575" x="737.2524" y="1239"/><g class="participant-lifeline" data-entity-uid="part1" data-qualified-name="Kubernetes" id="part1-lifeline"><g><title>Kubernetes</title><rect fill="#000000" fill-opacity="0.00000" height="1871" width="8" x="39.8032" y="114"/><line style="stroke:#94A3B8;stroke-width:0.5;stroke-dasharray:5,5;" x1="43" x2="43" y1="114" y2="1985"/></g></g><g class="participant-lifeline" data-entity-uid="part2" data-qualified-name="Controller" id="part2-lifeline"><g><title>Controller</title><rect fill="#000000" fill-opacity="0.00000" height="1871" width="8" x="298.0298" y="114"/><line style="stroke:#94A3B8;stroke-width:0.5;stroke-dasharray:5,5;" x1="301.6851" x2="301.6851" y1="114" y2="1985"/></g></g><g class="participant-lifeline" data-entity-uid="part3" data-qualified-name="BaseReconciler" id="part3-lifeline"><g><title>BaseReconciler</title><rect fill="#000000" fill-opacity="0.00000" height="1871" width="8" x="536.856" y="114"/><line style="stroke:#94A3B8;stroke-width:0.5;stroke-dasharray:5,5;" x1="540.832" x2="540.832" y1="114" y2="1985"/></g></g><g class="participant-lifeline" data-entity-uid="part4" data-qualified-name="ServiceManager" id="part4-lifeline"><g><title>OSOKServiceManager</title><rect fill="#000000" fill-opacity="0.00000" height="1871" width="8" x="821.4487" y="114"/><line style="stroke:#94A3B8;stroke-width:0.5;stroke-dasharray:5,5;" x1="825.2524" x2="825.2524" y1="114" y2="1985"/></g></g><g class="participant-lifeline" data-entity-uid="part5" data-qualified-name="OCI" id="part5-lifeline"><g><title>OCI</title><rect fill="#000000" fill-opacity="0.00000" height="1871" width="8" x="1159.7651" y="114"/><line style="stroke:#94A3B8;stroke-width:0.5;stroke-dasharray:5,5;" x1="1163.3203" x2="1163.3203" y1="114" y2="1985"/></g></g><g class="participant participant-head" data-entity-uid="part1" data-qualified-name="Kubernetes" id="part1-head"><text fill="#000000" font-family="Helvetica" font-size="14" lengthAdjust="spacing" textLength="71.6064" x="5" y="110.7803">Kubernetes</text><ellipse cx="43.8032" cy="48.5" fill="#E2E8F0" rx="8" ry="8" style="stroke:#0F172A;stroke-width:0.5;"/><path d="M43.8032,56.5 L43.8032,83.5 M30.8032,64.5 L56.8032,64.5 M43.8032,83.5 L30.8032,98.5 M43.8032,83.5 L56.8032,98.5" fill="none" style="stroke:#0F172A;stroke-width:0.5;"/></g><g class="participant participant-head" data-entity-uid="part2" data-qualified-name="Controller" id="part2-head"><rect fill="#E2E8F0" height="28" rx="8" ry="8" style="stroke:#0F172A;stroke-width:0.5;" width="74.6895" x="264.6851" y="85"/><text fill="#0F172A" font-family="Helvetica" font-size="14" lengthAdjust="spacing" textLength="60.6895" x="271.6851" y="102.7803">Controller</text></g><g class="participant participant-head" data-entity-uid="part3" data-qualified-name="BaseReconciler" id="part3-head"><rect fill="#E2E8F0" height="28" rx="8" ry="8" style="stroke:#0F172A;stroke-width:0.5;" width="112.0479" x="484.832" y="85"/><text fill="#0F172A" font-family="Helvetica" font-size="14" lengthAdjust="spacing" textLength="98.0479" x="491.832" y="102.7803">BaseReconciler</text></g><g class="participant participant-head" data-entity-uid="part4" data-qualified-name="ServiceManager" id="part4-head"><rect fill="#E2E8F0" height="28" rx="8" ry="8" style="stroke:#0F172A;stroke-width:0.5;" width="156.3926" x="747.2524" y="85"/><text fill="#0F172A" font-family="Helvetica" font-size="14" lengthAdjust="spacing" textLength="142.3926" x="754.2524" y="102.7803">OSOKServiceManager</text></g><g class="participant participant-head" data-entity-uid="part5" data-qualified-name="OCI" id="part5-head"><rect fill="#E2E8F0" height="28" rx="8" ry="8" style="stroke:#0F172A;stroke-width:0.5;" width="38.8896" x="1144.3203" y="85"/><text fill="#0F172A" font-family="Helvetica" font-size="14" lengthAdjust="spacing" textLength="24.8896" x="1151.3203" y="102.7803">OCI</text></g><path d="M476,137 L476,187 A8,8 0 0 0 484,195 L881,195 A8,8 0 0 0 889,187 L889,139 L879,129 L484,129 A8,8 0 0 0 476,137" fill="#FFF7D6" style="stroke:#B45309;stroke-width:0.5;"/><path d="M879,129 L879,135 A4,4 0 0 0 883,139 L889,139 L879,129" fill="#FFF7D6" style="stroke:#B45309;stroke-width:0.5;"/><text fill="#334155" font-family="Helvetica" font-size="14" lengthAdjust="spacing" textLength="111.2891" x="524.7107" y="144.7803">shared resolution:</text><text fill="#334155" font-family="Helvetica" font-size="14" lengthAdjust="spacing" textLength="307.3916" x="524.7107" y="158.7803">shared/diagrams/shared-resolution-sequence.svg</text><text fill="#334155" font-family="Helvetica" font-size="14" lengthAdjust="spacing" textLength="88.7305" x="524.7107" y="172.7803">shared delete:</text><text fill="#334155" font-family="Helvetica" font-size="14" lengthAdjust="spacing" textLength="284.833" x="524.7107" y="186.7803">shared/diagrams/shared-delete-sequence.svg</text><g class="message" data-entity-1="part1" data-entity-2="part2" id="msg1"><polygon fill="#0F172A" points="290.0298,216,300.0298,220,290.0298,224,294.0298,220" style="stroke:#0F172A;stroke-width:1;"/><line style="stroke:#0F172A;stroke-width:1;" x1="43.8032" x2="296.0298" y1="220" y2="220"/><text fill="#000000" font-family="Helvetica" font-size="14" lengthAdjust="spacing" textLength="234.2266" x="50.8032" y="214.7803">enqueue WorkRequestError reconcile</text></g><g class="message" data-entity-1="part2" data-entity-2="part3" id="msg2"><polygon fill="#0F172A" points="528.856,244,538.856,248,528.856,252,532.856,248" style="stroke:#0F172A;stroke-width:1;"/><line style="stroke:#0F172A;stroke-width:1;" x1="302.0298" x2="534.856" y1="248" y2="248"/><text fill="#000000" font-family="Helvetica" font-size="14" lengthAdjust="spacing" textLength="117.4961" x="309.0298" y="242.7803">Reconcile(request)</text></g><g class="message" data-entity-1="part3" data-entity-2="part4" id="msg3"><polygon fill="#0F172A" points="813.4487,272,823.4487,276,813.4487,280,817.4487,276" style="stroke:#0F172A;stroke-width:1;"/><line style="stroke:#0F172A;stroke-width:1;" x1="540.856" x2="819.4487" y1="276" y2="276"/><text fill="#000000" font-family="Helvetica" font-size="14" lengthAdjust="spacing" textLength="225.6406" x="547.856" y="270.7803">reconcile desired WorkRequestError</text></g><path d="M482.832,314 L536.1699,314 L536.1699,320 L526.1699,330 L474.832,330 L474.832,322 A8,8 0 0 1 482.832,314" fill="#F8FAFC" style="stroke:#CBD5E1;stroke-width:1.5;"/><rect fill="none" height="290" rx="8" ry="8" style="stroke:#CBD5E1;stroke-width:1.5;" width="738.3779" x="474.832" y="314"/><text fill="#000000" font-family="Helvetica" font-size="14" font-weight="bold" lengthAdjust="spacing" textLength="16.3379" x="489.832" y="325.7803">alt</text><text fill="#000000" font-family="Helvetica" font-size="14" font-weight="bold" lengthAdjust="spacing" textLength="308.1094" x="551.1699" y="326.7803">[tracked or explicit OCI identity already exists]</text><g class="message" data-entity-1="part4" data-entity-2="part5" id="msg4"><polygon fill="#0F172A" points="1151.7651,346,1161.7651,350,1151.7651,354,1155.7651,350" style="stroke:#0F172A;stroke-width:1;"/><line style="stroke:#0F172A;stroke-width:1;" x1="825.4487" x2="1157.7651" y1="350" y2="350"/><text fill="#000000" font-family="Helvetica" font-size="14" lengthAdjust="spacing" textLength="138.4824" x="832.4487" y="344.7803">GetWorkRequestError</text></g><line style="stroke:#CBD5E1;stroke-width:1;stroke-dasharray:2,2;" x1="474.832" x2="1213.21" y1="359" y2="359"/><text fill="#000000" font-family="Helvetica" font-size="14" font-weight="bold" lengthAdjust="spacing" textLength="185.1582" x="479.832" y="369.7803">[tracked identity is missing]</text><g class="message" data-entity-1="part4" data-entity-2="part5" id="msg5"><polygon fill="#0F172A" points="1151.7651,404,1161.7651,408,1151.7651,412,1155.7651,408" style="stroke:#0F172A;stroke-width:1;"/><line style="stroke:#0F172A;stroke-width:1;" x1="825.4487" x2="1157.7651" y1="408" y2="408"/><text fill="#000000" font-family="Helvetica" font-size="14" lengthAdjust="spacing" textLength="179.7031" x="832.4487" y="388.7803">ListWorkRequestError(filters:</text><text fill="#000000" font-family="Helvetica" font-size="14" lengthAdjust="spacing" textLength="143.1719" x="832.4487" y="402.7803">compartment_id, state)</text></g><path d="M735.2524,423 L788.5903,423 L788.5903,429 L778.5903,439 L727.2524,439 L727.2524,431 A8,8 0 0 1 735.2524,423" fill="#F8FAFC" style="stroke:#CBD5E1;stroke-width:1.5;"/><rect fill="none" height="146" rx="8" ry="8" style="stroke:#CBD5E1;stroke-width:1.5;" width="475.9575" x="727.2524" y="423"/><text fill="#000000" font-family="Helvetica" font-size="14" font-weight="bold" lengthAdjust="spacing" textLength="16.3379" x="742.2524" y="434.7803">alt</text><text fill="#000000" font-family="Helvetica" font-size="14" font-weight="bold" lengthAdjust="spacing" textLength="242.7031" x="803.5903" y="435.7803">[reusable OCI resource is not found]</text><g class="message" data-entity-1="part4" data-entity-2="part5" id="msg6"><polygon fill="#0F172A" points="1151.7651,455,1161.7651,459,1151.7651,463,1155.7651,459" style="stroke:#0F172A;stroke-width:1;"/><line style="stroke:#0F172A;stroke-width:1;" x1="825.4487" x2="1157.7651" y1="459" y2="459"/><text fill="#000000" font-family="Helvetica" font-size="14" lengthAdjust="spacing" textLength="157.9375" x="832.4487" y="453.7803">CreateWorkRequestError</text></g><path d="M745.2524,474 L811.7974,474 L811.7974,480 L801.7974,490 L737.2524,490 L737.2524,482 A8,8 0 0 1 745.2524,474" fill="#F8FAFC" style="stroke:#CBD5E1;stroke-width:1.5;"/><rect fill="none" height="44" rx="8" ry="8" style="stroke:#CBD5E1;stroke-width:1.5;" width="455.9575" x="737.2524" y="474"/><text fill="#000000" font-family="Helvetica" font-size="14" font-weight="bold" lengthAdjust="spacing" textLength="29.5449" x="752.2524" y="485.7803">loop</text><text fill="#000000" font-family="Helvetica" font-size="14" font-weight="bold" lengthAdjust="spacing" textLength="215.4756" x="826.7974" y="486.7803">[create pending PROVISIONING]</text><g class="message" data-entity-1="part4" data-entity-2="part5" id="msg7"><polygon fill="#0F172A" points="1151.7651,506,1161.7651,510,1151.7651,514,1155.7651,510" style="stroke:#0F172A;stroke-width:1;"/><line style="stroke:#0F172A;stroke-width:1;" x1="825.4487" x2="1157.7651" y1="510" y2="510"/><text fill="#000000" font-family="Helvetica" font-size="14" lengthAdjust="spacing" textLength="138.4824" x="832.4487" y="504.7803">GetWorkRequestError</text></g><line style="stroke:#CBD5E1;stroke-width:1;stroke-dasharray:2,2;" x1="727.2524" x2="1203.21" y1="526" y2="526"/><text fill="#000000" font-family="Helvetica" font-size="14" font-weight="bold" lengthAdjust="spacing" textLength="255.2334" x="732.2524" y="536.7803">[reusable OCI resource already exists]</text><g class="message" data-entity-1="part4" data-entity-2="part5" id="msg8"><polygon fill="#0F172A" points="1151.7651,557,1161.7651,561,1151.7651,565,1155.7651,561" style="stroke:#0F172A;stroke-width:1;"/><line style="stroke:#0F172A;stroke-width:1;" x1="825.4487" x2="1157.7651" y1="561" y2="561"/><text fill="#000000" font-family="Helvetica" font-size="14" lengthAdjust="spacing" textLength="138.4824" x="832.4487" y="555.7803">GetWorkRequestError</text></g><g class="message" data-entity-1="part4" data-entity-2="part3" id="msg9"><polygon fill="#0F172A" points="551.856,592,541.856,596,551.856,600,547.856,596" style="stroke:#0F172A;stroke-width:1;"/><line style="stroke:#0F172A;stroke-width:1;stroke-dasharray:2,2;" x1="545.856" x2="824.4487" y1="596" y2="596"/><text fill="#000000" font-family="Helvetica" font-size="14" lengthAdjust="spacing" textLength="231.0957" x="557.856" y="590.7803">persist resolved OCI identity in status</text></g><path d="M462.832,618 L516.1699,618 L516.1699,624 L506.1699,634 L454.832,634 L454.832,626 A8,8 0 0 1 462.832,618" fill="#F8FAFC" style="stroke:#CBD5E1;stroke-width:1.5;"/><rect fill="none" height="826" rx="8" ry="8" style="stroke:#CBD5E1;stroke-width:1.5;" width="775.1255" x="454.832" y="618"/><text fill="#000000" font-family="Helvetica" font-size="14" font-weight="bold" lengthAdjust="spacing" textLength="16.3379" x="469.832" y="629.7803">alt</text><text fill="#000000" font-family="Helvetica" font-size="14" font-weight="bold" lengthAdjust="spacing" textLength="120.5859" x="531.1699" y="630.7803">[delete requested]</text><path d="M472.832,641 L551.8525,641 L551.8525,647 L541.8525,657 L464.832,657 L464.832,649 A8,8 0 0 1 472.832,641" fill="#F8FAFC" style="stroke:#CBD5E1;stroke-width:1.5;"/><rect fill="none" height="274" rx="8" ry="8" style="stroke:#CBD5E1;stroke-width:1.5;" width="738.3779" x="464.832" y="641"/><text fill="#000000" font-family="Helvetica" font-size="14" font-weight="bold" lengthAdjust="spacing" textLength="42.0205" x="479.832" y="652.7803">Delete</text><g class="message" data-entity-1="part4" data-entity-2="part5" id="msg10"><polygon fill="#0F172A" points="1151.7651,673,1161.7651,677,1151.7651,681,1155.7651,677" style="stroke:#0F172A;stroke-width:1;"/><line style="stroke:#0F172A;stroke-width:1;" x1="825.4487" x2="1157.7651" y1="677" y2="677"/><text fill="#000000" font-family="Helvetica" font-size="14" lengthAdjust="spacing" textLength="156.3857" x="832.4487" y="671.7803">DeleteWorkRequestError</text></g><g class="message" data-entity-1="part4" data-entity-2="part5" id="msg11"><polygon fill="#0F172A" points="1151.7651,729,1161.7651,733,1151.7651,737,1155.7651,733" style="stroke:#0F172A;stroke-width:1;"/><line style="stroke:#0F172A;stroke-width:1;" x1="825.4487" x2="1157.7651" y1="733" y2="733"/><text fill="#000000" font-family="Helvetica" font-size="14" lengthAdjust="spacing" textLength="109.7168" x="832.4487" y="699.7803">confirm delete via</text><text fill="#000000" font-family="Helvetica" font-size="14" lengthAdjust="spacing" textLength="154.8203" x="832.4487" y="713.7803">GetWorkRequestError or</text><text fill="#000000" font-family="Helvetica" font-size="14" lengthAdjust="spacing" textLength="137.7031" x="832.4487" y="727.7803">ListWorkRequestError</text></g><path d="M745.2524,748 L811.7974,748 L811.7974,754 L801.7974,764 L737.2524,764 L737.2524,756 A8,8 0 0 1 745.2524,748" fill="#F8FAFC" style="stroke:#CBD5E1;stroke-width:1.5;"/><rect fill="none" height="58" rx="8" ry="8" style="stroke:#CBD5E1;stroke-width:1.5;" width="455.9575" x="737.2524" y="748"/><text fill="#000000" font-family="Helvetica" font-size="14" font-weight="bold" lengthAdjust="spacing" textLength="29.5449" x="752.2524" y="759.7803">loop</text><text fill="#000000" font-family="Helvetica" font-size="14" font-weight="bold" lengthAdjust="spacing" textLength="182.7793" x="826.7974" y="760.7803">[delete pending DELETING]</text><g class="message" data-entity-1="part4" data-entity-2="part5" id="msg12"><polygon fill="#0F172A" points="1151.7651,794,1161.7651,798,1151.7651,802,1155.7651,798" style="stroke:#0F172A;stroke-width:1;"/><line style="stroke:#0F172A;stroke-width:1;" x1="825.4487" x2="1157.7651" y1="798" y2="798"/><text fill="#000000" font-family="Helvetica" font-size="14" lengthAdjust="spacing" textLength="154.8203" x="832.4487" y="778.7803">GetWorkRequestError or</text><text fill="#000000" font-family="Helvetica" font-size="14" lengthAdjust="spacing" textLength="137.7031" x="832.4487" y="792.7803">ListWorkRequestError</text></g><path d="M482.832,820 L536.1699,820 L536.1699,826 L526.1699,836 L474.832,836 L474.832,828 A8,8 0 0 1 482.832,820" fill="#F8FAFC" style="stroke:#CBD5E1;stroke-width:1.5;"/><rect fill="none" height="88" rx="8" ry="8" style="stroke:#CBD5E1;stroke-width:1.5;" width="438.813" x="474.832" y="820"/><text fill="#000000" font-family="Helvetica" font-size="14" font-weight="bold" lengthAdjust="spacing" textLength="16.3379" x="489.832" y="831.7803">alt</text><text fill="#000000" font-family="Helvetica" font-size="14" font-weight="bold" lengthAdjust="spacing" textLength="261.4268" x="551.1699" y="832.7803">[cleanup or finalizer release is blocked]</text><g class="message" data-entity-1="part4" data-entity-2="part3" id="msg13"><polygon fill="#0F172A" points="551.856,852,541.856,856,551.856,860,547.856,856" style="stroke:#0F172A;stroke-width:1;"/><line style="stroke:#0F172A;stroke-width:1;stroke-dasharray:2,2;" x1="545.856" x2="824.4487" y1="856" y2="856"/><text fill="#000000" font-family="Helvetica" font-size="14" lengthAdjust="spacing" textLength="170.4336" x="557.856" y="850.7803">retain delete state and retry</text></g><line style="stroke:#CBD5E1;stroke-width:1;stroke-dasharray:2,2;" x1="474.832" x2="913.645" y1="865" y2="865"/><text fill="#000000" font-family="Helvetica" font-size="14" font-weight="bold" lengthAdjust="spacing" textLength="194.4824" x="479.832" y="875.7803">[delete completion observed]</text><g class="message" data-entity-1="part4" data-entity-2="part3" id="msg14"><polygon fill="#0F172A" points="551.856,896,541.856,900,551.856,904,547.856,900" style="stroke:#0F172A;stroke-width:1;"/><line style="stroke:#0F172A;stroke-width:1;stroke-dasharray:2,2;" x1="545.856" x2="824.4487" y1="900" y2="900"/><text fill="#000000" font-family="Helvetica" font-size="14" lengthAdjust="spacing" textLength="243.5781" x="557.856" y="894.7803">release finalizer after delete completion</text></g><line style="stroke:#CBD5E1;stroke-width:1;stroke-dasharray:2,2;" x1="454.832" x2="1229.9575" y1="923" y2="923"/><text fill="#000000" font-family="Helvetica" font-size="14" font-weight="bold" lengthAdjust="spacing" textLength="149.3857" x="459.832" y="933.7803">[OCI state is retryable]</text><g class="message" data-entity-1="part4" data-entity-2="part3" id="msg15"><polygon fill="#0F172A" points="551.856,968,541.856,972,551.856,976,547.856,972" style="stroke:#0F172A;stroke-width:1;"/><line style="stroke:#0F172A;stroke-width:1;stroke-dasharray:2,2;" x1="545.856" x2="824.4487" y1="972" y2="972"/><text fill="#000000" font-family="Helvetica" font-size="14" lengthAdjust="spacing" textLength="184.4199" x="557.856" y="952.7803">requeue while OCI remains in</text><text fill="#000000" font-family="Helvetica" font-size="14" lengthAdjust="spacing" textLength="260.5928" x="557.856" y="966.7803">PROVISIONING, UPDATING, DELETING</text></g><line style="stroke:#CBD5E1;stroke-width:1;stroke-dasharray:2,2;" x1="454.832" x2="1229.9575" y1="981" y2="981"/><text fill="#000000" font-family="Helvetica" font-size="14" font-weight="bold" lengthAdjust="spacing" textLength="200.751" x="459.832" y="991.7803">[live state requires field-aware</text><text fill="#000000" font-family="Helvetica" font-size="14" font-weight="bold" lengthAdjust="spacing" textLength="105.0068" x="459.832" y="1005.7803">drift evaluation]</text><path d="M472.832,1017 L600.8184,1017 L600.8184,1023 L590.8184,1033 L464.832,1033 L464.832,1025 A8,8 0 0 1 472.832,1017" fill="#F8FAFC" style="stroke:#CBD5E1;stroke-width:1.5;"/><rect fill="none" height="378" rx="8" ry="8" style="stroke:#CBD5E1;stroke-width:1.5;" width="755.1255" x="464.832" y="1017"/><text fill="#000000" font-family="Helvetica" font-size="14" font-weight="bold" lengthAdjust="spacing" textLength="90.9863" x="479.832" y="1028.7803">Drift handling</text><path d="M779,1046 L779,1096 A8,8 0 0 0 787,1104 L1201,1104 A8,8 0 0 0 1209,1096 L1209,1048 L1199,1038 L787,1038 A8,8 0 0 0 779,1046" fill="#FFF7D6" style="stroke:#B45309;stroke-width:0.5;"/><path d="M1199,1038 L1199,1044 A4,4 0 0 0 1203,1048 L1209,1048 L1199,1038" fill="#FFF7D6" style="stroke:#B45309;stroke-width:0.5;"/><text fill="#334155" font-family="Helvetica" font-size="14" lengthAdjust="spacing" textLength="255.2813" x="862.3381" y="1053.7803">Supported update surface: display_name</text><text fill="#334155" font-family="Helvetica" font-size="14" lengthAdjust="spacing" textLength="235.7783" x="862.3381" y="1067.7803">Reject before mutate: force-new fields</text><text fill="#334155" font-family="Helvetica" font-size="14" lengthAdjust="spacing" textLength="100.3789" x="862.3381" y="1081.7803">compartment_id</text><text fill="#334155" font-family="Helvetica" font-size="14" lengthAdjust="spacing" textLength="229.5576" x="862.3381" y="1095.7803">Lookup filters: compartment_id, state</text><path d="M482.832,1116 L541.5977,1116 L541.5977,1122 L531.5977,1132 L474.832,1132 L474.832,1124 A8,8 0 0 1 482.832,1116" fill="#F8FAFC" style="stroke:#CBD5E1;stroke-width:1.5;"/><rect fill="none" height="44" rx="8" ry="8" style="stroke:#CBD5E1;stroke-width:1.5;" width="438.813" x="474.832" y="1116"/><text fill="#000000" font-family="Helvetica" font-size="14" font-weight="bold" lengthAdjust="spacing" textLength="21.7656" x="489.832" y="1127.7803">opt</text><text fill="#000000" font-family="Helvetica" font-size="14" font-weight="bold" lengthAdjust="spacing" textLength="276.1309" x="556.5977" y="1128.7803">[force-new or conflicting drift is detected]</text><g class="message" data-entity-1="part4" data-entity-2="part3" id="msg16"><polygon fill="#0F172A" points="551.856,1148,541.856,1152,551.856,1156,547.856,1152" style="stroke:#0F172A;stroke-width:1;"/><line style="stroke:#0F172A;stroke-width:1;stroke-dasharray:2,2;" x1="545.856" x2="824.4487" y1="1152" y2="1152"/><text fill="#000000" font-family="Helvetica" font-size="14" lengthAdjust="spacing" textLength="164.1855" x="557.856" y="1146.7803">reject before OCI mutation</text></g><path d="M735.2524,1174 L794.0181,1174 L794.0181,1180 L784.0181,1190 L727.2524,1190 L727.2524,1182 A8,8 0 0 1 735.2524,1174" fill="#F8FAFC" style="stroke:#CBD5E1;stroke-width:1.5;"/><rect fill="none" height="116" rx="8" ry="8" style="stroke:#CBD5E1;stroke-width:1.5;" width="475.9575" x="727.2524" y="1174"/><text fill="#000000" font-family="Helvetica" font-size="14" font-weight="bold" lengthAdjust="spacing" textLength="21.7656" x="742.2524" y="1185.7803">opt</text><text fill="#000000" font-family="Helvetica" font-size="14" font-weight="bold" lengthAdjust="spacing" textLength="243.4619" x="809.0181" y="1186.7803">[supported mutable drift is detected]</text><g class="message" data-entity-1="part4" data-entity-2="part5" id="msg17"><polygon fill="#0F172A" points="1151.7651,1220,1161.7651,1224,1151.7651,1228,1155.7651,1224" style="stroke:#0F172A;stroke-width:1;"/><line style="stroke:#0F172A;stroke-width:1;" x1="825.4487" x2="1157.7651" y1="1224" y2="1224"/><text fill="#000000" font-family="Helvetica" font-size="14" lengthAdjust="spacing" textLength="229.5439" x="832.4487" y="1204.7803">Apply UpdateWorkRequestError only</text><text fill="#000000" font-family="Helvetica" font-size="14" lengthAdjust="spacing" textLength="196.8818" x="832.4487" y="1218.7803">for mutable fields display_name</text></g><path d="M745.2524,1239 L811.7974,1239 L811.7974,1245 L801.7974,1255 L737.2524,1255 L737.2524,1247 A8,8 0 0 1 745.2524,1239" fill="#F8FAFC" style="stroke:#CBD5E1;stroke-width:1.5;"/><rect fill="none" height="44" rx="8" ry="8" style="stroke:#CBD5E1;stroke-width:1.5;" width="455.9575" x="737.2524" y="1239"/><text fill="#000000" font-family="Helvetica" font-size="14" font-weight="bold" lengthAdjust="spacing" textLength="29.5449" x="752.2524" y="1250.7803">loop</text><text fill="#000000" font-family="Helvetica" font-size="14" font-weight="bold" lengthAdjust="spacing" textLength="190.5381" x="826.7974" y="1251.7803">[update pending UPDATING]</text><g class="message" data-entity-1="part4" data-entity-2="part5" id="msg18"><polygon fill="#0F172A" points="1151.7651,1271,1161.7651,1275,1151.7651,1279,1155.7651,1275" style="stroke:#0F172A;stroke-width:1;"/><line style="stroke:#0F172A;stroke-width:1;" x1="825.4487" x2="1157.7651" y1="1275" y2="1275"/><text fill="#000000" font-family="Helvetica" font-size="14" lengthAdjust="spacing" textLength="138.4824" x="832.4487" y="1269.7803">GetWorkRequestError</text></g><g class="message" data-entity-1="part4" data-entity-2="part5" id="msg19"><polygon fill="#0F172A" points="1151.7651,1383,1161.7651,1387,1151.7651,1391,1155.7651,1387" style="stroke:#0F172A;stroke-width:1;"/><line style="stroke:#0F172A;stroke-width:1;" x1="825.4487" x2="1157.7651" y1="1387" y2="1387"/><text fill="#000000" font-family="Helvetica" font-size="14" lengthAdjust="spacing" textLength="104.2891" x="832.4487" y="1311.7803">run helper hooks</text><text fill="#000000" font-family="Helvetica" font-size="14" lengthAdjust="spacing" textLength="219.0508" x="832.4487" y="1325.7803">create=tfresource.CreateResource,</text><text fill="#000000" font-family="Helvetica" font-size="14" lengthAdjust="spacing" textLength="314.3164" x="832.4487" y="1339.7803">tfresource.WaitForWorkRequestWithErrorHandling</text><text fill="#000000" font-family="Helvetica" font-size="14" lengthAdjust="spacing" textLength="215.5439" x="832.4487" y="1353.7803">entity=template action=CREATED;</text><text fill="#000000" font-family="Helvetica" font-size="14" lengthAdjust="spacing" textLength="226.085" x="832.4487" y="1367.7803">update=tfresource.UpdateResource;</text><text fill="#000000" font-family="Helvetica" font-size="14" lengthAdjust="spacing" textLength="212.8438" x="832.4487" y="1381.7803">delete=tfresource.DeleteResource</text></g><g class="message" data-entity-1="part4" data-entity-2="part3" id="msg20"><polygon fill="#0F172A" points="551.856,1432,541.856,1436,551.856,1440,547.856,1436" style="stroke:#0F172A;stroke-width:1;"/><line style="stroke:#0F172A;stroke-width:1;stroke-dasharray:2,2;" x1="545.856" x2="824.4487" y1="1436" y2="1436"/><text fill="#000000" font-family="Helvetica" font-size="14" lengthAdjust="spacing" textLength="100.7822" x="557.856" y="1416.7803">status=required,</text><text fill="#000000" font-family="Helvetica" font-size="14" lengthAdjust="spacing" textLength="230.7197" x="557.856" y="1430.7803">finalizer=retain-until-confirmed-delete</text></g><g class="message" data-entity-1="part3" data-entity-2="part2" id="msg21"><polygon fill="#0F172A" points="313.0298,1481,303.0298,1485,313.0298,1489,309.0298,1485" style="stroke:#0F172A;stroke-width:1;"/><line style="stroke:#0F172A;stroke-width:1;stroke-dasharray:2,2;" x1="307.0298" x2="539.856" y1="1485" y2="1485"/><text fill="#000000" font-family="Helvetica" font-size="14" lengthAdjust="spacing" textLength="214.8262" x="319.0298" y="1465.7803">requeue on provisioning, updating,</text><text fill="#000000" font-family="Helvetica" font-size="14" lengthAdjust="spacing" textLength="69.2549" x="319.0298" y="1479.7803">terminating</text></g><path d="M830,1506 L830,1962 A8,8 0 0 0 838,1970 L1150,1970 A8,8 0 0 0 1158,1962 L1158,1508 L1148,1498 L838,1498 A8,8 0 0 0 830,1506" fill="#FFF7D6" style="stroke:#B45309;stroke-width:0.5;"/><path d="M1148,1498 L1148,1504 A4,4 0 0 0 1152,1508 L1158,1508 L1148,1498" fill="#FFF7D6" style="stroke:#B45309;stroke-width:0.5;"/><text fill="#334155" font-family="Helvetica" font-size="14" lengthAdjust="spacing" textLength="101.165" x="836" y="1513.7803">shared diagram:</text><text fill="#334155" font-family="Helvetica" font-size="14" lengthAdjust="spacing" textLength="307.3916" x="836" y="1527.7803">shared/diagrams/shared-resolution-sequence.svg</text><text fill="#334155" font-family="Helvetica" font-size="14" lengthAdjust="spacing" textLength="143.1992" x="836" y="1541.7803">shared delete diagram:</text><text fill="#334155" font-family="Helvetica" font-size="14" lengthAdjust="spacing" textLength="284.833" x="836" y="1555.7803">shared/diagrams/shared-delete-sequence.svg</text><text fill="#334155" font-family="Helvetica" font-size="14" lengthAdjust="spacing" textLength="280.9297" x="836" y="1569.7803">Start from the shared resolution sequence for</text><text fill="#334155" font-family="Helvetica" font-size="14" lengthAdjust="spacing" textLength="260.7295" x="836" y="1583.7803">OCID binding, datasource pagination, and</text><text fill="#334155" font-family="Helvetica" font-size="14" lengthAdjust="spacing" textLength="163.4268" x="836" y="1597.7803">create-or-update dispatch.</text><text fill="#334155" font-family="Helvetica" font-size="14" lengthAdjust="spacing" textLength="301.1982" x="836" y="1611.7803">Layer the shared delete sequence when finalizer</text><text fill="#334155" font-family="Helvetica" font-size="14" lengthAdjust="spacing" textLength="269.2471" x="836" y="1625.7803">retention, delete confirmation, work-request</text><text fill="#334155" font-family="Helvetica" font-size="14" lengthAdjust="spacing" textLength="199.2334" x="836" y="1639.7803">polling, or Secret cleanup apply.</text><text fill="#334155" font-family="Helvetica" font-size="14" lengthAdjust="spacing" textLength="281.709" x="836" y="1653.7803">archetype batch: Generated service-manager</text><text fill="#334155" font-family="Helvetica" font-size="14" lengthAdjust="spacing" textLength="266.1504" x="836" y="1667.7803">controllers follow the shared resolution and</text><text fill="#334155" font-family="Helvetica" font-size="14" lengthAdjust="spacing" textLength="259.9297" x="836" y="1681.7803">delete sequences with imported waits and</text><text fill="#334155" font-family="Helvetica" font-size="14" lengthAdjust="spacing" textLength="134.6064" x="836" y="1695.7803">controller-local policy.</text><text fill="#334155" font-family="Helvetica" font-size="14" lengthAdjust="spacing" textLength="85.5928" x="836" y="1709.7803">service: nosql</text><text fill="#334155" font-family="Helvetica" font-size="14" lengthAdjust="spacing" textLength="139.2754" x="836" y="1723.7803">slug: workrequesterror</text><text fill="#334155" font-family="Helvetica" font-size="14" lengthAdjust="spacing" textLength="149.3789" x="836" y="1737.7803">kind: WorkRequestError</text><text fill="#334155" font-family="Helvetica" font-size="14" lengthAdjust="spacing" textLength="241.2402" x="836" y="1751.7803">archetype: generated-service-manager</text><text fill="#334155" font-family="Helvetica" font-size="14" lengthAdjust="spacing" textLength="156.4063" x="836" y="1765.7803">status/finalizer: required /</text><text fill="#334155" font-family="Helvetica" font-size="14" lengthAdjust="spacing" textLength="174.3027" x="836" y="1779.7803">retain-until-confirmed-delete</text><text fill="#334155" font-family="Helvetica" font-size="14" lengthAdjust="spacing" textLength="272.3984" x="836" y="1793.7803">requeue: provisioning, updating, terminating</text><text fill="#334155" font-family="Helvetica" font-size="14" lengthAdjust="spacing" textLength="295.6816" x="836" y="1807.7803">provider states: create PROVISIONING; update</text><text fill="#334155" font-family="Helvetica" font-size="14" lengthAdjust="spacing" textLength="192.165" x="836" y="1821.7803">UPDATING; delete DELETING</text><text fill="#334155" font-family="Helvetica" font-size="14" lengthAdjust="spacing" textLength="183.6611" x="836" y="1835.7803">supported drift: display_name</text><text fill="#334155" font-family="Helvetica" font-size="14" lengthAdjust="spacing" textLength="230.3301" x="836" y="1849.7803">reject before mutate: force-new fields</text><text fill="#334155" font-family="Helvetica" font-size="14" lengthAdjust="spacing" textLength="100.3789" x="836" y="1863.7803">compartment_id</text><text fill="#334155" font-family="Helvetica" font-size="14" lengthAdjust="spacing" textLength="273.1367" x="836" y="1877.7803">list lookup: scaffold_nosql_workrequesterror</text><text fill="#334155" font-family="Helvetica" font-size="14" lengthAdjust="spacing" textLength="175.8477" x="836" y="1891.7803">filters compartment_id, state</text><text fill="#334155" font-family="Helvetica" font-size="14" lengthAdjust="spacing" textLength="89.4961" x="836" y="1905.7803">conflicts: none</text><text fill="#334155" font-family="Helvetica" font-size="14" lengthAdjust="spacing" textLength="104.3164" x="836" y="1919.7803">open gaps: none</text><text fill="#334155" font-family="Helvetica" font-size="14" lengthAdjust="spacing" textLength="224.9023" x="836" y="1933.7803">Scaffold metadata only; replace with</text><text fill="#334155" font-family="Helvetica" font-size="14" lengthAdjust="spacing" textLength="244.3232" x="836" y="1947.7803">controller-specific runtime states before</text><text fill="#334155" font-family="Helvetica" font-size="14" lengthAdjust="spacing" textLength="66.1445" x="836" y="1961.7803">promotion.</text><?plantuml-src fLVRRjms47tNLmpIbmImx3YsSv7X0edj9aRSEF0cpSi21bSQxRAcI8MaThCj-kyTNgILzj8u3VnWhKZEvSoPCvIvvx9ccbLWPgnG2owdK39XC37ToeJbzrEj6bcSAw4q_5Bcz5VqTXHOiaROtvIq7rY5y0x572tFsVOz8_uNmk5nRv5fhHRH-jFoyCMp_acfBBxPYA4iNnJFrtSfNQ2EEoR79qTFNwtjSExZ-j7HyU79IM_Tcy-LbgZXy7bYkHK88_pQeCmHKZflleg3BqhVtxgNnbvIr3gPyGAXLCfErBUUDTCU_3i1OBbLUX1TpB9TMayFd-7ByYajap42ajTCsktd-niUOgM7G6T3y1AlkHpYz-gO7KrUqgepMG-MyabnWeVTqaPjNfQip9D_4fyRl6ycIA1QD4al3ZYdGBGI0lNWzHjcy1Pp9NE-llJePdJpVeHwpdFydKasHVq8c87Xgy6Hc_EhnDKTr9ogEhIzjtQEEa1Z0HgD4etbIcRnrK71sPHgQWx2xtIr9MtBl6_cqzP2WOAotNawB0zFeYmyFvCLM93-siCe0vIqlq5O9o0573DALjlTuM6s6NJFZtKu_YGPRd67XfXaA-EKbU4kkuq6y2I0QwNkwH-ZH2PS5WaJ5gmcQj0H2XA_rOAAuYi2r36Isci9J6XanP9MkR4c6JftuT3k3DwYtN2Af56T_SuUDr1nOqZ5Tjcw9aVhnXwNN5ZK9XlBN5MEFXNPk-F57XZBB3xnoMXi39iG42u3nu16KtUJHweRzJ_HVvVFSqhIuaOAGgaQShy6DH70QU_7svi_haPNDn-kFhpz8JZ8kuTaUvG_WVEMjBPmgoRuo7HedZcLP51cBZsGZV7c79YX1o0I4Oj8eWl_UbTyONKZn1sxARYIwwfrDUTiBBTaIEGSossi2FM9fzlwN5nUNtxwiThiTj22aGjaahAdlIMNJD1uT5rDRuqds4GeH_E7r46ZPOHsZDgprxSalTVBm92uvfXE3wHXe2Q6B3_KGGXh5IWhgNSshGPAjhHqT0ZHK3u-64VIXpaCihUOyOxL5ULeY5LZsU-NFVZyyUBr9__KrSbx5tpUWk7CaOmPIW15aR85IV9O5fgN5d3EHCDyy96E_lMC01HEKbQ3P1ZtdfioewQkbIOgGrCNpfDfTCbopA3WfXPiUIVfQfJSuf-OMvXWgJH2rRYWCf8Fwj9KuYA4PPAX3YLHN5kTWgqojHeYghOzaqGhrmialzPHEEHAPIYeOBbzQDdxORig-D3REZk7fWF0BJa9-hwds3MlwreiuRF7RRDzf5YE9Vdjx0QCXhZwPet8jytQqk67XNItbEj6mWm5oHtCg2Q69eONy3DRjcAx7-J-DlxS6ylUsXV6wGQcUsw_S3lphjz5cerbKCqpYzHBle5p1_JP-Utbwq-N5wTZ6VBi-mpOjJvfI-Z7_fQWdksMXmfxqEsps3O5PTDr_baGcxIXS4KQvRQxttW7w_UBjIjDszkaGRLMSsueJK9WBnJIFH5ug2loQBi6r7mwiw1As7vzYxUjdxkxVTVAjZlSo59BGgbL1NQ6i76TN7qI49aJejE5lodvX2bT5cTrpQO-NoNtd7GdWM2fqccaj-Czi_biFxbcIqArvwpL_TRHOePo9TK95SnnordkzDfNBRfR42tJE9EJcehaOrDExoYArQ1Yhb_t4wRp6TfbZVI9IF6uXg9l9-Oam8JQf5KiJjvLdPIN_gl53enSncjP65XGZm2lehmig8TCWAQpcjA8P08ePfvJPD5z5hxP4YEQQUQpQoySljVfMwt8Dk-pNLePJDk4qlM4GbySTDXcxMGfu23vxyQ8hCzsSHxwbFTxwCihIBoJ_d1Xx0--qoXyIIjufsrvkp6u4cSlocj3IV-leIJSXK_uoKGwaREI2blSUSJlDh2Eesl7v6hdat4Lasw04M-dh6v_Zw9rg0XProj-AfmIvfI4upaHfCy6KsFEIvuxlRQyYiFVn0mTg9LoTDllPkQ_?></g></svg>