<?plantuml 1.2026.1?><svg xmlns="http://www.w3.org/2000/svg" xmlns:xlink="http://www.w3.org/1999/xlink" contentStyleType="text/css" data-diagram-type="ACTIVITY" height="1441px" preserveAspectRatio="none" style="width:751px;height:1441px;background:#FCFCFD;" version="1.1" viewBox="0 0 751 1441" width="751px" zoomAndPan="magnify"><title>Activity - dbmulticloud/DbmulticloudOracleDbAwsIdentityConnectors</title><defs/><g><rect fill="#FCFCFD" height="1441" style="stroke:none;stroke-width:1;" width="751" x="0" y="0"/><g class="title" data-source-line="10"><text fill="#000000" font-family="Helvetica" font-size="14" font-weight="bold" lengthAdjust="spacing" textLength="462.8135" x="142.9117" y="30.7803">Activity - dbmulticloud/DbmulticloudOracleDbAwsIdentityConnectors</text></g><ellipse cx="368.5969" cy="55" fill="#1D4ED8" rx="10" ry="10" style="stroke:#222222;stroke-width:1;"/><rect fill="#F8FAFC" height="48" rx="8" ry="8" style="stroke:#0F172A;stroke-width:0.5;" width="304.7852" x="216.2043" y="85"/><text fill="#0F172A" font-family="Helvetica" font-size="14" lengthAdjust="spacing" textLength="136.9375" x="226.2043" y="105.7803">Start from shared flow</text><text fill="#0F172A" font-family="Helvetica" font-size="14" lengthAdjust="spacing" textLength="284.7852" x="226.2043" y="119.7803">shared/diagrams/shared-reconcile-activity.svg</text><rect fill="#F8FAFC" height="62" rx="8" ry="8" style="stroke:#0F172A;stroke-width:0.5;" width="336.6953" x="200.2493" y="153"/><text fill="#0F172A" font-family="Helvetica" font-size="14" lengthAdjust="spacing" textLength="80.9512" x="210.2493" y="173.7803">Load desired</text><text fill="#0F172A" font-family="Helvetica" font-size="14" lengthAdjust="spacing" textLength="316.6953" x="210.2493" y="187.7803">DbmulticloudOracleDbAwsIdentityConnectors spec</text><text fill="#0F172A" font-family="Helvetica" font-size="14" lengthAdjust="spacing" textLength="171.9854" x="210.2493" y="201.7803">and status from Kubernetes</text><rect fill="#F8FAFC" height="90" rx="8" ry="8" style="stroke:#0F172A;stroke-width:0.5;" width="325.7988" x="205.6975" y="235"/><text fill="#0F172A" font-family="Helvetica" font-size="14" lengthAdjust="spacing" textLength="135.3857" x="215.6975" y="255.7803">Resolve OCI state via</text><text fill="#0F172A" font-family="Helvetica" font-size="14" lengthAdjust="spacing" textLength="305.7988" x="215.6975" y="269.7803">GetDbmulticloudOracleDbAwsIdentityConnectors</text><text fill="#0F172A" font-family="Helvetica" font-size="14" lengthAdjust="spacing" textLength="24.8965" x="215.6975" y="283.7803">with</text><text fill="#0F172A" font-family="Helvetica" font-size="14" lengthAdjust="spacing" textLength="305.0195" x="215.6975" y="297.7803">ListDbmulticloudOracleDbAwsIdentityConnectors</text><text fill="#0F172A" font-family="Helvetica" font-size="14" lengthAdjust="spacing" textLength="47.4688" x="215.6975" y="311.7803">fallback</text><rect fill="#F8FAFC" height="76" rx="8" ry="8" style="stroke:#0F172A;stroke-width:0.5;" width="432.46" x="152.3669" y="345"/><text fill="#0F172A" font-family="Helvetica" font-size="14" lengthAdjust="spacing" textLength="24.8965" x="162.3669" y="365.7803">Use</text><text fill="#0F172A" font-family="Helvetica" font-size="14" lengthAdjust="spacing" textLength="412.46" x="162.3669" y="379.7803">scaffold_dbmulticloud_dbmulticloudoracledbawsidentityconnectors</text><text fill="#0F172A" font-family="Helvetica" font-size="14" lengthAdjust="spacing" textLength="297.2402" x="162.3669" y="393.7803">filters compartment_id, state when OCID lookup</text><text fill="#0F172A" font-family="Helvetica" font-size="14" lengthAdjust="spacing" textLength="259.9023" x="162.3669" y="407.7803">or bind-versus-create needs list resolution</text><polygon fill="#E2E8F0" points="314.9075,441,422.2864,441,434.2864,453,422.2864,465,314.9075,465,302.9075,453,314.9075,441" style="stroke:#1D4ED8;stroke-width:0.5;"/><text fill="#0F172A" font-family="Helvetica" font-size="14" lengthAdjust="spacing" textLength="107.3789" x="314.9075" y="456.7803">Resource exists?</text><text fill="#000000" font-family="Helvetica" font-size="14" lengthAdjust="spacing" textLength="21.7861" x="281.1213" y="449.7803">yes</text><text fill="#000000" font-family="Helvetica" font-size="14" lengthAdjust="spacing" textLength="15.5723" x="434.2864" y="449.7803">no</text><rect fill="#F8FAFC" height="48" rx="8" ry="8" style="stroke:#0F172A;stroke-width:0.5;" width="348.3779" x="11" y="475"/><text fill="#0F172A" font-family="Helvetica" font-size="14" lengthAdjust="spacing" textLength="108.1787" x="21" y="495.7803">Update path calls</text><text fill="#0F172A" font-family="Helvetica" font-size="14" lengthAdjust="spacing" textLength="328.3779" x="21" y="509.7803">UpdateDbmulticloudOracleDbAwsIdentityConnectors</text><rect fill="#F8FAFC" height="48" rx="8" ry="8" style="stroke:#0F172A;stroke-width:0.5;" width="266.7021" x="51.8379" y="543"/><text fill="#0F172A" font-family="Helvetica" font-size="14" lengthAdjust="spacing" textLength="246.7021" x="61.8379" y="563.7803">Guard mutable fields display_name and</text><text fill="#0F172A" font-family="Helvetica" font-size="14" lengthAdjust="spacing" textLength="202.3096" x="61.8379" y="577.7803">force-new fields compartment_id</text><rect fill="#F8FAFC" height="48" rx="8" ry="8" style="stroke:#0F172A;stroke-width:0.5;" width="345.2539" x="379.3779" y="475"/><text fill="#0F172A" font-family="Helvetica" font-size="14" lengthAdjust="spacing" textLength="105.0547" x="389.3779" y="495.7803">Create path calls</text><text fill="#0F172A" font-family="Helvetica" font-size="14" lengthAdjust="spacing" textLength="325.2539" x="389.3779" y="509.7803">CreateDbmulticloudOracleDbAwsIdentityConnectors</text><polygon fill="#E2E8F0" points="368.5969,597,380.5969,609,368.5969,621,356.5969,609,368.5969,597" style="stroke:#1D4ED8;stroke-width:0.5;"/><rect fill="#F8FAFC" height="104" rx="8" ry="8" style="stroke:#0F172A;stroke-width:0.5;" width="334.3164" x="201.4387" y="641"/><text fill="#0F172A" font-family="Helvetica" font-size="14" lengthAdjust="spacing" textLength="164.2061" x="211.4387" y="661.7803">Run provider helper hooks</text><text fill="#0F172A" font-family="Helvetica" font-size="14" lengthAdjust="spacing" textLength="219.0508" x="211.4387" y="675.7803">create=tfresource.CreateResource,</text><text fill="#0F172A" font-family="Helvetica" font-size="14" lengthAdjust="spacing" textLength="314.3164" x="211.4387" y="689.7803">tfresource.WaitForWorkRequestWithErrorHandling</text><text fill="#0F172A" font-family="Helvetica" font-size="14" lengthAdjust="spacing" textLength="215.5439" x="211.4387" y="703.7803">entity=template action=CREATED;</text><text fill="#0F172A" font-family="Helvetica" font-size="14" lengthAdjust="spacing" textLength="226.085" x="211.4387" y="717.7803">update=tfresource.UpdateResource;</text><text fill="#0F172A" font-family="Helvetica" font-size="14" lengthAdjust="spacing" textLength="212.8438" x="211.4387" y="731.7803">delete=tfresource.DeleteResource</text><rect fill="#F8FAFC" height="34" rx="8" ry="8" style="stroke:#0F172A;stroke-width:0.5;" width="263.5918" x="236.801" y="765"/><text fill="#0F172A" font-family="Helvetica" font-size="14" lengthAdjust="spacing" textLength="243.5918" x="246.801" y="785.7803">Apply repo-authored secret policy none</text><rect fill="#F8FAFC" height="118" rx="8" ry="8" style="stroke:#0F172A;stroke-width:0.5;" width="343.7021" x="196.7458" y="819"/><text fill="#0F172A" font-family="Helvetica" font-size="14" lengthAdjust="spacing" textLength="105.0684" x="206.7458" y="839.7803">Delete path uses</text><text fill="#0F172A" font-family="Helvetica" font-size="14" lengthAdjust="spacing" textLength="323.7021" x="206.7458" y="853.7803">DeleteDbmulticloudOracleDbAwsIdentityConnectors</text><text fill="#0F172A" font-family="Helvetica" font-size="14" lengthAdjust="spacing" textLength="101.9375" x="206.7458" y="867.7803">with required via</text><text fill="#0F172A" font-family="Helvetica" font-size="14" lengthAdjust="spacing" textLength="305.7988" x="206.7458" y="881.7803">GetDbmulticloudOracleDbAwsIdentityConnectors</text><text fill="#0F172A" font-family="Helvetica" font-size="14" lengthAdjust="spacing" textLength="12.4482" x="206.7458" y="895.7803">or</text><text fill="#0F172A" font-family="Helvetica" font-size="14" lengthAdjust="spacing" textLength="305.0195" x="206.7458" y="909.7803">ListDbmulticloudOracleDbAwsIdentityConnectors</text><text fill="#0F172A" font-family="Helvetica" font-size="14" lengthAdjust="spacing" textLength="160.2822" x="206.7458" y="923.7803">to DELETED confirmation</text><rect fill="#F8FAFC" height="48" rx="8" ry="8" style="stroke:#0F172A;stroke-width:0.5;" width="279.1299" x="229.032" y="957"/><text fill="#0F172A" font-family="Helvetica" font-size="14" lengthAdjust="spacing" textLength="259.1299" x="239.032" y="977.7803">Project required status and finalizer policy</text><text fill="#0F172A" font-family="Helvetica" font-size="14" lengthAdjust="spacing" textLength="174.3027" x="239.032" y="991.7803">retain-until-confirmed-delete</text><rect fill="#F8FAFC" height="34" rx="8" ry="8" style="stroke:#0F172A;stroke-width:0.5;" width="313.4189" x="211.8875" y="1025"/><text fill="#0F172A" font-family="Helvetica" font-size="14" lengthAdjust="spacing" textLength="293.4189" x="221.8875" y="1045.7803">Requeue on provisioning, updating, terminating</text><path d="M399.5969,1069 L399.5969,1245 L379.5969,1249 L399.5969,1253 L399.5969,1429 A0,0 0 0 0 399.5969,1429 L739.637,1429 A0,0 0 0 0 739.637,1429 L739.637,1079 L729.637,1069 L399.5969,1069 A0,0 0 0 0 399.5969,1069" fill="#FFF7D6" style="stroke:#B45309;stroke-width:0.5;"/><path d="M729.637,1069 L729.637,1079 L739.637,1079 L729.637,1069" fill="#FFF7D6" style="stroke:#B45309;stroke-width:0.5;"/><text fill="#334155" font-family="Helvetica" font-size="14" lengthAdjust="spacing" textLength="101.165" x="405.5969" y="1084.7803">shared diagram:</text><text fill="#334155" font-family="Helvetica" font-size="14" lengthAdjust="spacing" textLength="284.7852" x="405.5969" y="1098.7803">shared/diagrams/shared-reconcile-activity.svg</text><text fill="#334155" font-family="Helvetica" font-size="14" lengthAdjust="spacing" textLength="265.3438" x="405.5969" y="1112.7803">Start from the shared reconcile activity and</text><text fill="#334155" font-family="Helvetica" font-size="14" lengthAdjust="spacing" textLength="273.8955" x="405.5969" y="1126.7803">specialize provider-backed CRUD, wait, and</text><text fill="#334155" font-family="Helvetica" font-size="14" lengthAdjust="spacing" textLength="182.875" x="405.5969" y="1140.7803">status-projection details here.</text><text fill="#334155" font-family="Helvetica" font-size="14" lengthAdjust="spacing" textLength="229.5371" x="405.5969" y="1154.7803">Controller-local activity diagrams add</text><text fill="#334155" font-family="Helvetica" font-size="14" lengthAdjust="spacing" textLength="238.8955" x="405.5969" y="1168.7803">list-lookup hints, secret policies, delete</text><text fill="#334155" font-family="Helvetica" font-size="14" lengthAdjust="spacing" textLength="200.0332" x="405.5969" y="1182.7803">handling, and open formal gaps.</text><text fill="#334155" font-family="Helvetica" font-size="14" lengthAdjust="spacing" textLength="281.709" x="405.5969" y="1196.7803">archetype batch: Generated service-manager</text><text fill="#334155" font-family="Helvetica" font-size="14" lengthAdjust="spacing" textLength="291.0469" x="405.5969" y="1210.7803">controllers specialize the shared reconcile path</text><text fill="#334155" font-family="Helvetica" font-size="14" lengthAdjust="spacing" textLength="189.8477" x="405.5969" y="1224.7803">with formal runtime ownership.</text><text fill="#334155" font-family="Helvetica" font-size="14" lengthAdjust="spacing" textLength="130.7236" x="405.5969" y="1238.7803">service: dbmulticloud</text><text fill="#334155" font-family="Helvetica" font-size="14" lengthAdjust="spacing" textLength="303.502" x="405.5969" y="1252.7803">slug: dbmulticloudoracledbawsidentityconnectors</text><text fill="#334155" font-family="Helvetica" font-size="14" lengthAdjust="spacing" textLength="316.6953" x="405.5969" y="1266.7803">kind: DbmulticloudOracleDbAwsIdentityConnectors</text><text fill="#334155" font-family="Helvetica" font-size="14" lengthAdjust="spacing" textLength="241.2402" x="405.5969" y="1280.7803">archetype: generated-service-manager</text><text fill="#334155" font-family="Helvetica" font-size="14" lengthAdjust="spacing" textLength="156.4063" x="405.5969" y="1294.7803">status/finalizer: required /</text><text fill="#334155" font-family="Helvetica" font-size="14" lengthAdjust="spacing" textLength="174.3027" x="405.5969" y="1308.7803">retain-until-confirmed-delete</text><text fill="#334155" font-family="Helvetica" font-size="14" lengthAdjust="spacing" textLength="272.3984" x="405.5969" y="1322.7803">requeue: provisioning, updating, terminating</text><text fill="#334155" font-family="Helvetica" font-size="14" lengthAdjust="spacing" textLength="295.6816" x="405.5969" y="1336.7803">provider states: create PROVISIONING; update</text><text fill="#334155" font-family="Helvetica" font-size="14" lengthAdjust="spacing" textLength="192.165" x="405.5969" y="1350.7803">UPDATING; delete DELETING</text><text fill="#334155" font-family="Helvetica" font-size="14" lengthAdjust="spacing" textLength="319.04" x="405.5969" y="1364.7803">mutable/forceNew: display_name / compartment_id</text><text fill="#334155" font-family="Helvetica" font-size="14" lengthAdjust="spacing" textLength="104.3164" x="405.5969" y="1378.7803">open gaps: none</text><text fill="#334155" font-family="Helvetica" font-size="14" lengthAdjust="spacing" textLength="224.9023" x="405.5969" y="1392.7803">Scaffold metadata only; replace with</text><text fill="#334155" font-family="Helvetica" font-size="14" lengthAdjust="spacing" textLength="244.3232" x="405.5969" y="1406.7803">controller-specific runtime states before</text><text fill="#334155" font-family="Helvetica" font-size="14" lengthAdjust="spacing" textLength="66.1445" x="405.5969" y="1420.7803">promotion.</text><ellipse cx="368.5969" cy="1249" fill="none" rx="11" ry="11" style="stroke:#222222;stroke-width:1;"/><ellipse cx="368.5969" cy="1249" fill="#222222" rx="6" ry="6" style="stroke:#222222;stroke-width:1;"/><line style="stroke:#0F172A;stroke-width:1;" x1="368.5969" x2="368.5969" y1="65" y2="85"/><polygon fill="#0F172A" points="364.5969,75,368.5969,85,372.5969,75,368.5969,79" style="stroke:#0F172A;stroke-width:1;"/><line style="stroke:#0F172A;stroke-width:1;" x1="368.5969" x2="368.5969" y1="133" y2="153"/><polygon fill="#0F172A" points="364.5969,143,368.5969,153,372.5969,143,368.5969,147" style="stroke:#0F172A;stroke-width:1;"/><line style="stroke:#0F172A;stroke-width:1;" x1="368.5969" x2="368.5969" y1="215" y2="235"/><polygon fill="#0F172A" points="364.5969,225,368.5969,235,372.5969,225,368.5969,229" style="stroke:#0F172A;stroke-width:1;"/><line style="stroke:#0F172A;stroke-width:1;" x1="368.5969" x2="368.5969" y1="325" y2="345"/><polygon fill="#0F172A" points="364.5969,335,368.5969,345,372.5969,335,368.5969,339" style="stroke:#0F172A;stroke-width:1;"/><line style="stroke:#0F172A;stroke-width:1;" x1="185.189" x2="185.189" y1="523" y2="543"/><polygon fill="#0F172A" points="181.189,533,185.189,543,189.189,533,185.189,537" style="stroke:#0F172A;stroke-width:1;"/><line style="stroke:#0F172A;stroke-width:1;" x1="302.9075" x2="185.189" y1="453" y2="453"/><line style="stroke:#0F172A;stroke-width:1;" x1="185.189" x2="185.189" y1="453" y2="475"/><polygon fill="#0F172A" points="181.189,465,185.189,475,189.189,465,185.189,469" style="stroke:#0F172A;stroke-width:1;"/><line style="stroke:#0F172A;stroke-width:1;" x1="434.2864" x2="552.0049" y1="453" y2="453"/><line style="stroke:#0F172A;stroke-width:1;" x1="552.0049" x2="552.0049" y1="453" y2="475"/><polygon fill="#0F172A" points="548.0049,465,552.0049,475,556.0049,465,552.0049,469" style="stroke:#0F172A;stroke-width:1;"/><line style="stroke:#0F172A;stroke-width:1;" x1="185.189" x2="185.189" y1="591" y2="609"/><line style="stroke:#0F172A;stroke-width:1;" x1="185.189" x2="356.5969" y1="609" y2="609"/><polygon fill="#0F172A" points="346.5969,605,356.5969,609,346.5969,613,350.5969,609" style="stroke:#0F172A;stroke-width:1;"/><line style="stroke:#0F172A;stroke-width:1;" x1="552.0049" x2="552.0049" y1="523" y2="609"/><line style="stroke:#0F172A;stroke-width:1;" x1="552.0049" x2="380.5969" y1="609" y2="609"/><polygon fill="#0F172A" points="390.5969,605,380.5969,609,390.5969,613,386.5969,609" style="stroke:#0F172A;stroke-width:1;"/><line style="stroke:#0F172A;stroke-width:1;" x1="368.5969" x2="368.5969" y1="421" y2="441"/><polygon fill="#0F172A" points="364.5969,431,368.5969,441,372.5969,431,368.5969,435" style="stroke:#0F172A;stroke-width:1;"/><line style="stroke:#0F172A;stroke-width:1;" x1="368.5969" x2="368.5969" y1="621" y2="641"/><polygon fill="#0F172A" points="364.5969,631,368.5969,641,372.5969,631,368.5969,635" style="stroke:#0F172A;stroke-width:1;"/><line style="stroke:#0F172A;stroke-width:1;" x1="368.5969" x2="368.5969" y1="745" y2="765"/><polygon fill="#0F172A" points="364.5969,755,368.5969,765,372.5969,755,368.5969,759" style="stroke:#0F172A;stroke-width:1;"/><line style="stroke:#0F172A;stroke-width:1;" x1="368.5969" x2="368.5969" y1="799" y2="819"/><polygon fill="#0F172A" points="364.5969,809,368.5969,819,372.5969,809,368.5969,813" style="stroke:#0F172A;stroke-width:1;"/><line style="stroke:#0F172A;stroke-width:1;" x1="368.5969" x2="368.5969" y1="937" y2="957"/><polygon fill="#0F172A" points="364.5969,947,368.5969,957,372.5969,947,368.5969,951" style="stroke:#0F172A;stroke-width:1;"/><line style="stroke:#0F172A;stroke-width:1;" x1="368.5969" x2="368.5969" y1="1005" y2="1025"/><polygon fill="#0F172A" points="364.5969,1015,368.5969,1025,372.5969,1015,368.5969,1019" style="stroke:#0F172A;stroke-width:1;"/><line style="stroke:#0F172A;stroke-width:1;" x1="368.5969" x2="368.5969" y1="1059" y2="1238"/><polygon fill="#0F172A" points="364.5969,1228,368.5969,1238,372.5969,1228,368.5969,1232" style="stroke:#0F172A;stroke-width:1;"/><?plantuml-src dLPHJniv47xthx1qBrJA9b2WfHkX4vTGYee0GJbULaAEFPlruRMtjZUvtEd-UyVhpMQJeWfEF0JRuvdvlfdvlEvPwefPLb9NC66MKizfpfG3uhgJ6UFFSsjgBIP66Kj_opd-YPw5W9pLodyssb-p4kWNK0lmahENRUxbFq0FZdg7p5gpRBtlvmSVt_TlQkFXZvzooFEFuiEkbR42R6inEpe-tF-qOn72j-U7XqS7nyUzyyOzDrQ3fGSVY9TU0JtZNYwaNz64Ybc902HNfXQZQMznOnbNC9sTBTsb08qNLnEZDN1lhEkZNFlwbz0NM3t9MSx3IHz5omQb-IRpRaz8LXejVY87tiD9ljypw7iy44SWJZQ7drzmx3opVjSUEl-TtOpjUFsFD5T9UXz-Q6vDqraM1CsLMMOwBaOOUuwKk55S9nQuqLmgIDOa3TrYFYRfbM42UyT9jChqgrcdhWAUQQP5mE9h5rFvMiy0w-l1eUixS0RxbDvCBXiZe0l9Cdq1_jLXChsKliZqbNHlkOGJfaBzCOa71qWAPtbkb7ZgjzZMmZGEnOmjdMmTyhv3gJmWQcvAR3LVeiMJ58CMrh807L1EgJBckQuoZHMRIIsI1LwgNS8j13iD81nLY8NQm4tjfT5Z8dEw5xYgBGSAV-En-_qTzS7ftWhSEmHHYN2_OhwW7B5XHd7hrPmW4nSriuAMjMSpdBjSWi9aX7ILOgid7MG5gubG3QQHQ5YkJROnZmcWUj4zRJ2lISJLpojklI4lx7gPOxFKcbRMB91zImjGLVX1Dj5bPE_KvxObQHY3h3aRPBftziWaYg1zDFRv3hxNuFmZjj0v2g3zWW0LAd2cOngd7af4ZmZ2K1XzEhaxF_jsFXrdkcxexSUCXAzZeea01TicqsQdCo7fMLMf5TQwCWchVM72c3f0F9vMHac-GitKmJ3UZ4JM3X1qt7dZe62extMOvFypQSQ-USwyeTFpgtEa3Bi4XyIMBBPqUclDNsYrIQXLYI0OkTHCuHDbMn8oZOGmgPCQ0wYazOIY5Hbkb0GBMGCrROyu389r7D2cJCr_E9ub-WsBCMgagKXuZgYLyyAJLY5RKKp9cqIIzAGMXt8jjvtnvjb1S2JeecpWTUsS12d26vExX-c0Bh4_1z6qeIIf8bK82NKOUL0E-z_2a23JtXgbq8CoE5wRGEl4AHE213r9el3GGchl1biz9W4t8fEaQ0UWYKzDXGg3urwYwpcht90momlmgmhmuV6yIEa5u6EDRH_QrYua2aF9D9k39RnBBhu5BUON2GfjJPh-RAFPK6aK7BD4zwwGrP2q_jEjhm3YL3tVtlgbK1Fy510fVVstGmSufVCrr6GNQgpJg6lRTDFL8_BBrYKsDcxwchObdVmrhufBQVjitDxT_7bvVtbpVNbzCOvtWJpSJi--DHinL1n4t22jmeyQ8R-6PRejygCTGITD6uJwfuqQaVlsiQGbGiDO3CTEhSP1nXJ35oeKibV-fAb-BdbNrPW-dG5c005LQK9t3uFKDn-9Fm00?></g></svg>