<?plantuml 1.2026.1?><svg xmlns="http://www.w3.org/2000/svg" xmlns:xlink="http://www.w3.org/1999/xlink" contentStyleType="text/css" data-diagram-type="SEQUENCE" height="1992px" preserveAspectRatio="none" style="width:1230px;height:1992px;background:#FCFCFD;" version="1.1" viewBox="0 0 1230 1992" width="1230px" zoomAndPan="magnify"><title>Sequence - dataflow/DataflowRunLogs</title><defs/><g><rect fill="#FCFCFD" height="1992" style="stroke:none;stroke-width:1;" width="1230" x="0" y="0"/><text fill="#000000" font-family="Helvetica" font-size="14" font-weight="bold" lengthAdjust="spacing" textLength="258.2412" x="492.3582" y="25.7803">Sequence - dataflow/DataflowRunLogs</text><rect fill="none" height="290" rx="8" ry="8" style="stroke:#CBD5E1;stroke-width:1.5;" width="738.3779" x="469.4248" y="314"/><rect fill="none" height="146" rx="8" ry="8" style="stroke:#CBD5E1;stroke-width:1.5;" width="475.9575" x="721.8452" y="423"/><rect fill="none" height="44" rx="8" ry="8" style="stroke:#CBD5E1;stroke-width:1.5;" width="455.9575" x="731.8452" y="474"/><rect fill="none" height="826" rx="8" ry="8" style="stroke:#CBD5E1;stroke-width:1.5;" width="774.5327" x="449.4248" y="618"/><rect fill="none" height="274" rx="8" ry="8" style="stroke:#CBD5E1;stroke-width:1.5;" width="738.3779" x="459.4248" y="641"/><rect fill="none" height="58" rx="8" ry="8" style="stroke:#CBD5E1;stroke-width:1.5;" width="455.9575" x="731.8452" y="748"/><rect fill="none" height="88" rx="8" ry="8" style="stroke:#CBD5E1;stroke-width:1.5;" width="438.813" x="469.4248" y="820"/><rect fill="none" height="378" rx="8" ry="8" style="stroke:#CBD5E1;stroke-width:1.5;" width="754.5327" x="459.4248" y="1017"/><rect fill="none" height="44" rx="8" ry="8" style="stroke:#CBD5E1;stroke-width:1.5;" width="438.813" x="469.4248" y="1116"/><rect fill="none" height="116" rx="8" ry="8" style="stroke:#CBD5E1;stroke-width:1.5;" width="475.9575" x="721.8452" y="1174"/><rect fill="none" height="44" rx="8" ry="8" style="stroke:#CBD5E1;stroke-width:1.5;" width="455.9575" x="731.8452" y="1239"/><g class="participant-lifeline" data-entity-uid="part1" data-qualified-name="Kubernetes" id="part1-lifeline"><g><title>Kubernetes</title><rect fill="#000000" fill-opacity="0.00000" height="1871" width="8" x="39.8032" y="114"/><line style="stroke:#94A3B8;stroke-width:0.5;stroke-dasharray:5,5;" x1="43" x2="43" y1="114" y2="1985"/></g></g><g class="participant-lifeline" data-entity-uid="part2" data-qualified-name="Controller" id="part2-lifeline"><g><title>Controller</title><rect fill="#000000" fill-opacity="0.00000" height="1871" width="8" x="292.6226" y="114"/><line style="stroke:#94A3B8;stroke-width:0.5;stroke-dasharray:5,5;" x1="296.2778" x2="296.2778" y1="114" y2="1985"/></g></g><g class="participant-lifeline" data-entity-uid="part3" data-qualified-name="BaseReconciler" id="part3-lifeline"><g><title>BaseReconciler</title><rect fill="#000000" fill-opacity="0.00000" height="1871" width="8" x="531.4487" y="114"/><line style="stroke:#94A3B8;stroke-width:0.5;stroke-dasharray:5,5;" x1="535.4248" x2="535.4248" y1="114" y2="1985"/></g></g><g class="participant-lifeline" data-entity-uid="part4" data-qualified-name="ServiceManager" id="part4-lifeline"><g><title>OSOKServiceManager</title><rect fill="#000000" fill-opacity="0.00000" height="1871" width="8" x="816.0415" y="114"/><line style="stroke:#94A3B8;stroke-width:0.5;stroke-dasharray:5,5;" x1="819.8452" x2="819.8452" y1="114" y2="1985"/></g></g><g class="participant-lifeline" data-entity-uid="part5" data-qualified-name="OCI" id="part5-lifeline"><g><title>OCI</title><rect fill="#000000" fill-opacity="0.00000" height="1871" width="8" x="1154.3579" y="114"/><line style="stroke:#94A3B8;stroke-width:0.5;stroke-dasharray:5,5;" x1="1157.9131" x2="1157.9131" y1="114" y2="1985"/></g></g><g class="participant participant-head" data-entity-uid="part1" data-qualified-name="Kubernetes" id="part1-head"><text fill="#000000" font-family="Helvetica" font-size="14" lengthAdjust="spacing" textLength="71.6064" x="5" y="110.7803">Kubernetes</text><ellipse cx="43.8032" cy="48.5" fill="#E2E8F0" rx="8" ry="8" style="stroke:#0F172A;stroke-width:0.5;"/><path d="M43.8032,56.5 L43.8032,83.5 M30.8032,64.5 L56.8032,64.5 M43.8032,83.5 L30.8032,98.5 M43.8032,83.5 L56.8032,98.5" fill="none" style="stroke:#0F172A;stroke-width:0.5;"/></g><g class="participant participant-head" data-entity-uid="part2" data-qualified-name="Controller" id="part2-head"><rect fill="#E2E8F0" height="28" rx="8" ry="8" style="stroke:#0F172A;stroke-width:0.5;" width="74.6895" x="259.2778" y="85"/><text fill="#0F172A" font-family="Helvetica" font-size="14" lengthAdjust="spacing" textLength="60.6895" x="266.2778" y="102.7803">Controller</text></g><g class="participant participant-head" data-entity-uid="part3" data-qualified-name="BaseReconciler" id="part3-head"><rect fill="#E2E8F0" height="28" rx="8" ry="8" style="stroke:#0F172A;stroke-width:0.5;" width="112.0479" x="479.4248" y="85"/><text fill="#0F172A" font-family="Helvetica" font-size="14" lengthAdjust="spacing" textLength="98.0479" x="486.4248" y="102.7803">BaseReconciler</text></g><g class="participant participant-head" data-entity-uid="part4" data-qualified-name="ServiceManager" id="part4-head"><rect fill="#E2E8F0" height="28" rx="8" ry="8" style="stroke:#0F172A;stroke-width:0.5;" width="156.3926" x="741.8452" y="85"/><text fill="#0F172A" font-family="Helvetica" font-size="14" lengthAdjust="spacing" textLength="142.3926" x="748.8452" y="102.7803">OSOKServiceManager</text></g><g class="participant participant-head" data-entity-uid="part5" data-qualified-name="OCI" id="part5-head"><rect fill="#E2E8F0" height="28" rx="8" ry="8" style="stroke:#0F172A;stroke-width:0.5;" width="38.8896" x="1138.9131" y="85"/><text fill="#0F172A" font-family="Helvetica" font-size="14" lengthAdjust="spacing" textLength="24.8896" x="1145.9131" y="102.7803">OCI</text></g><path d="M470,137 L470,187 A8,8 0 0 0 478,195 L875,195 A8,8 0 0 0 883,187 L883,139 L873,129 L478,129 A8,8 0 0 0 470,137" fill="#FFF7D6" style="stroke:#B45309;stroke-width:0.5;"/><path d="M873,129 L873,135 A4,4 0 0 0 877,139 L883,139 L873,129" fill="#FFF7D6" style="stroke:#B45309;stroke-width:0.5;"/><text fill="#334155" font-family="Helvetica" font-size="14" lengthAdjust="spacing" textLength="111.2891" x="518.7107" y="144.7803">shared resolution:</text><text fill="#334155" font-family="Helvetica" font-size="14" lengthAdjust="spacing" textLength="307.3916" x="518.7107" y="158.7803">shared/diagrams/shared-resolution-sequence.svg</text><text fill="#334155" font-family="Helvetica" font-size="14" lengthAdjust="spacing" textLength="88.7305" x="518.7107" y="172.7803">shared delete:</text><text fill="#334155" font-family="Helvetica" font-size="14" lengthAdjust="spacing" textLength="284.833" x="518.7107" y="186.7803">shared/diagrams/shared-delete-sequence.svg</text><g class="message" data-entity-1="part1" data-entity-2="part2" id="msg1"><polygon fill="#0F172A" points="284.6226,216,294.6226,220,284.6226,224,288.6226,220" style="stroke:#0F172A;stroke-width:1;"/><line style="stroke:#0F172A;stroke-width:1;" x1="43.8032" x2="290.6226" y1="220" y2="220"/><text fill="#000000" font-family="Helvetica" font-size="14" lengthAdjust="spacing" textLength="228.8193" x="50.8032" y="214.7803">enqueue DataflowRunLogs reconcile</text></g><g class="message" data-entity-1="part2" data-entity-2="part3" id="msg2"><polygon fill="#0F172A" points="523.4487,244,533.4487,248,523.4487,252,527.4487,248" style="stroke:#0F172A;stroke-width:1;"/><line style="stroke:#0F172A;stroke-width:1;" x1="296.6226" x2="529.4487" y1="248" y2="248"/><text fill="#000000" font-family="Helvetica" font-size="14" lengthAdjust="spacing" textLength="117.4961" x="303.6226" y="242.7803">Reconcile(request)</text></g><g class="message" data-entity-1="part3" data-entity-2="part4" id="msg3"><polygon fill="#0F172A" points="808.0415,272,818.0415,276,808.0415,280,812.0415,276" style="stroke:#0F172A;stroke-width:1;"/><line style="stroke:#0F172A;stroke-width:1;" x1="535.4487" x2="814.0415" y1="276" y2="276"/><text fill="#000000" font-family="Helvetica" font-size="14" lengthAdjust="spacing" textLength="220.2334" x="542.4487" y="270.7803">reconcile desired DataflowRunLogs</text></g><path d="M477.4248,314 L530.7627,314 L530.7627,320 L520.7627,330 L469.4248,330 L469.4248,322 A8,8 0 0 1 477.4248,314" fill="#F8FAFC" style="stroke:#CBD5E1;stroke-width:1.5;"/><rect fill="none" height="290" rx="8" ry="8" style="stroke:#CBD5E1;stroke-width:1.5;" width="738.3779" x="469.4248" y="314"/><text fill="#000000" font-family="Helvetica" font-size="14" font-weight="bold" lengthAdjust="spacing" textLength="16.3379" x="484.4248" y="325.7803">alt</text><text fill="#000000" font-family="Helvetica" font-size="14" font-weight="bold" lengthAdjust="spacing" textLength="308.1094" x="545.7627" y="326.7803">[tracked or explicit OCI identity already exists]</text><g class="message" data-entity-1="part4" data-entity-2="part5" id="msg4"><polygon fill="#0F172A" points="1146.3579,346,1156.3579,350,1146.3579,354,1150.3579,350" style="stroke:#0F172A;stroke-width:1;"/><line style="stroke:#0F172A;stroke-width:1;" x1="820.0415" x2="1152.3579" y1="350" y2="350"/><text fill="#000000" font-family="Helvetica" font-size="14" lengthAdjust="spacing" textLength="133.0752" x="827.0415" y="344.7803">GetDataflowRunLogs</text></g><line style="stroke:#CBD5E1;stroke-width:1;stroke-dasharray:2,2;" x1="469.4248" x2="1207.8027" y1="359" y2="359"/><text fill="#000000" font-family="Helvetica" font-size="14" font-weight="bold" lengthAdjust="spacing" textLength="185.1582" x="474.4248" y="369.7803">[tracked identity is missing]</text><g class="message" data-entity-1="part4" data-entity-2="part5" id="msg5"><polygon fill="#0F172A" points="1146.3579,404,1156.3579,408,1146.3579,412,1150.3579,408" style="stroke:#0F172A;stroke-width:1;"/><line style="stroke:#0F172A;stroke-width:1;" x1="820.0415" x2="1152.3579" y1="408" y2="408"/><text fill="#000000" font-family="Helvetica" font-size="14" lengthAdjust="spacing" textLength="174.2959" x="827.0415" y="388.7803">ListDataflowRunLogs(filters:</text><text fill="#000000" font-family="Helvetica" font-size="14" lengthAdjust="spacing" textLength="143.1719" x="827.0415" y="402.7803">compartment_id, state)</text></g><path d="M729.8452,423 L783.1831,423 L783.1831,429 L773.1831,439 L721.8452,439 L721.8452,431 A8,8 0 0 1 729.8452,423" fill="#F8FAFC" style="stroke:#CBD5E1;stroke-width:1.5;"/><rect fill="none" height="146" rx="8" ry="8" style="stroke:#CBD5E1;stroke-width:1.5;" width="475.9575" x="721.8452" y="423"/><text fill="#000000" font-family="Helvetica" font-size="14" font-weight="bold" lengthAdjust="spacing" textLength="16.3379" x="736.8452" y="434.7803">alt</text><text fill="#000000" font-family="Helvetica" font-size="14" font-weight="bold" lengthAdjust="spacing" textLength="242.7031" x="798.1831" y="435.7803">[reusable OCI resource is not found]</text><g class="message" data-entity-1="part4" data-entity-2="part5" id="msg6"><polygon fill="#0F172A" points="1146.3579,455,1156.3579,459,1146.3579,463,1150.3579,459" style="stroke:#0F172A;stroke-width:1;"/><line style="stroke:#0F172A;stroke-width:1;" x1="820.0415" x2="1152.3579" y1="459" y2="459"/><text fill="#000000" font-family="Helvetica" font-size="14" lengthAdjust="spacing" textLength="152.5303" x="827.0415" y="453.7803">CreateDataflowRunLogs</text></g><path d="M739.8452,474 L806.3901,474 L806.3901,480 L796.3901,490 L731.8452,490 L731.8452,482 A8,8 0 0 1 739.8452,474" fill="#F8FAFC" style="stroke:#CBD5E1;stroke-width:1.5;"/><rect fill="none" height="44" rx="8" ry="8" style="stroke:#CBD5E1;stroke-width:1.5;" width="455.9575" x="731.8452" y="474"/><text fill="#000000" font-family="Helvetica" font-size="14" font-weight="bold" lengthAdjust="spacing" textLength="29.5449" x="746.8452" y="485.7803">loop</text><text fill="#000000" font-family="Helvetica" font-size="14" font-weight="bold" lengthAdjust="spacing" textLength="215.4756" x="821.3901" y="486.7803">[create pending PROVISIONING]</text><g class="message" data-entity-1="part4" data-entity-2="part5" id="msg7"><polygon fill="#0F172A" points="1146.3579,506,1156.3579,510,1146.3579,514,1150.3579,510" style="stroke:#0F172A;stroke-width:1;"/><line style="stroke:#0F172A;stroke-width:1;" x1="820.0415" x2="1152.3579" y1="510" y2="510"/><text fill="#000000" font-family="Helvetica" font-size="14" lengthAdjust="spacing" textLength="133.0752" x="827.0415" y="504.7803">GetDataflowRunLogs</text></g><line style="stroke:#CBD5E1;stroke-width:1;stroke-dasharray:2,2;" x1="721.8452" x2="1197.8027" y1="526" y2="526"/><text fill="#000000" font-family="Helvetica" font-size="14" font-weight="bold" lengthAdjust="spacing" textLength="255.2334" x="726.8452" y="536.7803">[reusable OCI resource already exists]</text><g class="message" data-entity-1="part4" data-entity-2="part5" id="msg8"><polygon fill="#0F172A" points="1146.3579,557,1156.3579,561,1146.3579,565,1150.3579,561" style="stroke:#0F172A;stroke-width:1;"/><line style="stroke:#0F172A;stroke-width:1;" x1="820.0415" x2="1152.3579" y1="561" y2="561"/><text fill="#000000" font-family="Helvetica" font-size="14" lengthAdjust="spacing" textLength="133.0752" x="827.0415" y="555.7803">GetDataflowRunLogs</text></g><g class="message" data-entity-1="part4" data-entity-2="part3" id="msg9"><polygon fill="#0F172A" points="546.4487,592,536.4487,596,546.4487,600,542.4487,596" style="stroke:#0F172A;stroke-width:1;"/><line style="stroke:#0F172A;stroke-width:1;stroke-dasharray:2,2;" x1="540.4487" x2="819.0415" y1="596" y2="596"/><text fill="#000000" font-family="Helvetica" font-size="14" lengthAdjust="spacing" textLength="231.0957" x="552.4487" y="590.7803">persist resolved OCI identity in status</text></g><path d="M457.4248,618 L510.7627,618 L510.7627,624 L500.7627,634 L449.4248,634 L449.4248,626 A8,8 0 0 1 457.4248,618" fill="#F8FAFC" style="stroke:#CBD5E1;stroke-width:1.5;"/><rect fill="none" height="826" rx="8" ry="8" style="stroke:#CBD5E1;stroke-width:1.5;" width="774.5327" x="449.4248" y="618"/><text fill="#000000" font-family="Helvetica" font-size="14" font-weight="bold" lengthAdjust="spacing" textLength="16.3379" x="464.4248" y="629.7803">alt</text><text fill="#000000" font-family="Helvetica" font-size="14" font-weight="bold" lengthAdjust="spacing" textLength="120.5859" x="525.7627" y="630.7803">[delete requested]</text><path d="M467.4248,641 L546.4453,641 L546.4453,647 L536.4453,657 L459.4248,657 L459.4248,649 A8,8 0 0 1 467.4248,641" fill="#F8FAFC" style="stroke:#CBD5E1;stroke-width:1.5;"/><rect fill="none" height="274" rx="8" ry="8" style="stroke:#CBD5E1;stroke-width:1.5;" width="738.3779" x="459.4248" y="641"/><text fill="#000000" font-family="Helvetica" font-size="14" font-weight="bold" lengthAdjust="spacing" textLength="42.0205" x="474.4248" y="652.7803">Delete</text><g class="message" data-entity-1="part4" data-entity-2="part5" id="msg10"><polygon fill="#0F172A" points="1146.3579,673,1156.3579,677,1146.3579,681,1150.3579,677" style="stroke:#0F172A;stroke-width:1;"/><line style="stroke:#0F172A;stroke-width:1;" x1="820.0415" x2="1152.3579" y1="677" y2="677"/><text fill="#000000" font-family="Helvetica" font-size="14" lengthAdjust="spacing" textLength="150.9785" x="827.0415" y="671.7803">DeleteDataflowRunLogs</text></g><g class="message" data-entity-1="part4" data-entity-2="part5" id="msg11"><polygon fill="#0F172A" points="1146.3579,729,1156.3579,733,1146.3579,737,1150.3579,733" style="stroke:#0F172A;stroke-width:1;"/><line style="stroke:#0F172A;stroke-width:1;" x1="820.0415" x2="1152.3579" y1="733" y2="733"/><text fill="#000000" font-family="Helvetica" font-size="14" lengthAdjust="spacing" textLength="109.7168" x="827.0415" y="699.7803">confirm delete via</text><text fill="#000000" font-family="Helvetica" font-size="14" lengthAdjust="spacing" textLength="149.4131" x="827.0415" y="713.7803">GetDataflowRunLogs or</text><text fill="#000000" font-family="Helvetica" font-size="14" lengthAdjust="spacing" textLength="132.2959" x="827.0415" y="727.7803">ListDataflowRunLogs</text></g><path d="M739.8452,748 L806.3901,748 L806.3901,754 L796.3901,764 L731.8452,764 L731.8452,756 A8,8 0 0 1 739.8452,748" fill="#F8FAFC" style="stroke:#CBD5E1;stroke-width:1.5;"/><rect fill="none" height="58" rx="8" ry="8" style="stroke:#CBD5E1;stroke-width:1.5;" width="455.9575" x="731.8452" y="748"/><text fill="#000000" font-family="Helvetica" font-size="14" font-weight="bold" lengthAdjust="spacing" textLength="29.5449" x="746.8452" y="759.7803">loop</text><text fill="#000000" font-family="Helvetica" font-size="14" font-weight="bold" lengthAdjust="spacing" textLength="182.7793" x="821.3901" y="760.7803">[delete pending DELETING]</text><g class="message" data-entity-1="part4" data-entity-2="part5" id="msg12"><polygon fill="#0F172A" points="1146.3579,794,1156.3579,798,1146.3579,802,1150.3579,798" style="stroke:#0F172A;stroke-width:1;"/><line style="stroke:#0F172A;stroke-width:1;" x1="820.0415" x2="1152.3579" y1="798" y2="798"/><text fill="#000000" font-family="Helvetica" font-size="14" lengthAdjust="spacing" textLength="149.4131" x="827.0415" y="778.7803">GetDataflowRunLogs or</text><text fill="#000000" font-family="Helvetica" font-size="14" lengthAdjust="spacing" textLength="132.2959" x="827.0415" y="792.7803">ListDataflowRunLogs</text></g><path d="M477.4248,820 L530.7627,820 L530.7627,826 L520.7627,836 L469.4248,836 L469.4248,828 A8,8 0 0 1 477.4248,820" fill="#F8FAFC" style="stroke:#CBD5E1;stroke-width:1.5;"/><rect fill="none" height="88" rx="8" ry="8" style="stroke:#CBD5E1;stroke-width:1.5;" width="438.813" x="469.4248" y="820"/><text fill="#000000" font-family="Helvetica" font-size="14" font-weight="bold" lengthAdjust="spacing" textLength="16.3379" x="484.4248" y="831.7803">alt</text><text fill="#000000" font-family="Helvetica" font-size="14" font-weight="bold" lengthAdjust="spacing" textLength="261.4268" x="545.7627" y="832.7803">[cleanup or finalizer release is blocked]</text><g class="message" data-entity-1="part4" data-entity-2="part3" id="msg13"><polygon fill="#0F172A" points="546.4487,852,536.4487,856,546.4487,860,542.4487,856" style="stroke:#0F172A;stroke-width:1;"/><line style="stroke:#0F172A;stroke-width:1;stroke-dasharray:2,2;" x1="540.4487" x2="819.0415" y1="856" y2="856"/><text fill="#000000" font-family="Helvetica" font-size="14" lengthAdjust="spacing" textLength="170.4336" x="552.4487" y="850.7803">retain delete state and retry</text></g><line style="stroke:#CBD5E1;stroke-width:1;stroke-dasharray:2,2;" x1="469.4248" x2="908.2378" y1="865" y2="865"/><text fill="#000000" font-family="Helvetica" font-size="14" font-weight="bold" lengthAdjust="spacing" textLength="194.4824" x="474.4248" y="875.7803">[delete completion observed]</text><g class="message" data-entity-1="part4" data-entity-2="part3" id="msg14"><polygon fill="#0F172A" points="546.4487,896,536.4487,900,546.4487,904,542.4487,900" style="stroke:#0F172A;stroke-width:1;"/><line style="stroke:#0F172A;stroke-width:1;stroke-dasharray:2,2;" x1="540.4487" x2="819.0415" y1="900" y2="900"/><text fill="#000000" font-family="Helvetica" font-size="14" lengthAdjust="spacing" textLength="243.5781" x="552.4487" y="894.7803">release finalizer after delete completion</text></g><line style="stroke:#CBD5E1;stroke-width:1;stroke-dasharray:2,2;" x1="449.4248" x2="1223.9575" y1="923" y2="923"/><text fill="#000000" font-family="Helvetica" font-size="14" font-weight="bold" lengthAdjust="spacing" textLength="149.3857" x="454.4248" y="933.7803">[OCI state is retryable]</text><g class="message" data-entity-1="part4" data-entity-2="part3" id="msg15"><polygon fill="#0F172A" points="546.4487,968,536.4487,972,546.4487,976,542.4487,972" style="stroke:#0F172A;stroke-width:1;"/><line style="stroke:#0F172A;stroke-width:1;stroke-dasharray:2,2;" x1="540.4487" x2="819.0415" y1="972" y2="972"/><text fill="#000000" font-family="Helvetica" font-size="14" lengthAdjust="spacing" textLength="184.4199" x="552.4487" y="952.7803">requeue while OCI remains in</text><text fill="#000000" font-family="Helvetica" font-size="14" lengthAdjust="spacing" textLength="260.5928" x="552.4487" y="966.7803">PROVISIONING, UPDATING, DELETING</text></g><line style="stroke:#CBD5E1;stroke-width:1;stroke-dasharray:2,2;" x1="449.4248" x2="1223.9575" y1="981" y2="981"/><text fill="#000000" font-family="Helvetica" font-size="14" font-weight="bold" lengthAdjust="spacing" textLength="200.751" x="454.4248" y="991.7803">[live state requires field-aware</text><text fill="#000000" font-family="Helvetica" font-size="14" font-weight="bold" lengthAdjust="spacing" textLength="105.0068" x="454.4248" y="1005.7803">drift evaluation]</text><path d="M467.4248,1017 L595.4111,1017 L595.4111,1023 L585.4111,1033 L459.4248,1033 L459.4248,1025 A8,8 0 0 1 467.4248,1017" fill="#F8FAFC" style="stroke:#CBD5E1;stroke-width:1.5;"/><rect fill="none" height="378" rx="8" ry="8" style="stroke:#CBD5E1;stroke-width:1.5;" width="754.5327" x="459.4248" y="1017"/><text fill="#000000" font-family="Helvetica" font-size="14" font-weight="bold" lengthAdjust="spacing" textLength="90.9863" x="474.4248" y="1028.7803">Drift handling</text><path d="M773,1046 L773,1096 A8,8 0 0 0 781,1104 L1195,1104 A8,8 0 0 0 1203,1096 L1203,1048 L1193,1038 L781,1038 A8,8 0 0 0 773,1046" fill="#FFF7D6" style="stroke:#B45309;stroke-width:0.5;"/><path d="M1193,1038 L1193,1044 A4,4 0 0 0 1197,1048 L1203,1048 L1193,1038" fill="#FFF7D6" style="stroke:#B45309;stroke-width:0.5;"/><text fill="#334155" font-family="Helvetica" font-size="14" lengthAdjust="spacing" textLength="255.2813" x="856.3381" y="1053.7803">Supported update surface: display_name</text><text fill="#334155" font-family="Helvetica" font-size="14" lengthAdjust="spacing" textLength="235.7783" x="856.3381" y="1067.7803">Reject before mutate: force-new fields</text><text fill="#334155" font-family="Helvetica" font-size="14" lengthAdjust="spacing" textLength="100.3789" x="856.3381" y="1081.7803">compartment_id</text><text fill="#334155" font-family="Helvetica" font-size="14" lengthAdjust="spacing" textLength="229.5576" x="856.3381" y="1095.7803">Lookup filters: compartment_id, state</text><path d="M477.4248,1116 L536.1904,1116 L536.1904,1122 L526.1904,1132 L469.4248,1132 L469.4248,1124 A8,8 0 0 1 477.4248,1116" fill="#F8FAFC" style="stroke:#CBD5E1;stroke-width:1.5;"/><rect fill="none" height="44" rx="8" ry="8" style="stroke:#CBD5E1;stroke-width:1.5;" width="438.813" x="469.4248" y="1116"/><text fill="#000000" font-family="Helvetica" font-size="14" font-weight="bold" lengthAdjust="spacing" textLength="21.7656" x="484.4248" y="1127.7803">opt</text><text fill="#000000" font-family="Helvetica" font-size="14" font-weight="bold" lengthAdjust="spacing" textLength="276.1309" x="551.1904" y="1128.7803">[force-new or conflicting drift is detected]</text><g class="message" data-entity-1="part4" data-entity-2="part3" id="msg16"><polygon fill="#0F172A" points="546.4487,1148,536.4487,1152,546.4487,1156,542.4487,1152" style="stroke:#0F172A;stroke-width:1;"/><line style="stroke:#0F172A;stroke-width:1;stroke-dasharray:2,2;" x1="540.4487" x2="819.0415" y1="1152" y2="1152"/><text fill="#000000" font-family="Helvetica" font-size="14" lengthAdjust="spacing" textLength="164.1855" x="552.4487" y="1146.7803">reject before OCI mutation</text></g><path d="M729.8452,1174 L788.6108,1174 L788.6108,1180 L778.6108,1190 L721.8452,1190 L721.8452,1182 A8,8 0 0 1 729.8452,1174" fill="#F8FAFC" style="stroke:#CBD5E1;stroke-width:1.5;"/><rect fill="none" height="116" rx="8" ry="8" style="stroke:#CBD5E1;stroke-width:1.5;" width="475.9575" x="721.8452" y="1174"/><text fill="#000000" font-family="Helvetica" font-size="14" font-weight="bold" lengthAdjust="spacing" textLength="21.7656" x="736.8452" y="1185.7803">opt</text><text fill="#000000" font-family="Helvetica" font-size="14" font-weight="bold" lengthAdjust="spacing" textLength="243.4619" x="803.6108" y="1186.7803">[supported mutable drift is detected]</text><g class="message" data-entity-1="part4" data-entity-2="part5" id="msg17"><polygon fill="#0F172A" points="1146.3579,1220,1156.3579,1224,1146.3579,1228,1150.3579,1224" style="stroke:#0F172A;stroke-width:1;"/><line style="stroke:#0F172A;stroke-width:1;" x1="820.0415" x2="1152.3579" y1="1224" y2="1224"/><text fill="#000000" font-family="Helvetica" font-size="14" lengthAdjust="spacing" textLength="244.3643" x="827.0415" y="1204.7803">Apply UpdateDataflowRunLogs only for</text><text fill="#000000" font-family="Helvetica" font-size="14" lengthAdjust="spacing" textLength="176.6543" x="827.0415" y="1218.7803">mutable fields display_name</text></g><path d="M739.8452,1239 L806.3901,1239 L806.3901,1245 L796.3901,1255 L731.8452,1255 L731.8452,1247 A8,8 0 0 1 739.8452,1239" fill="#F8FAFC" style="stroke:#CBD5E1;stroke-width:1.5;"/><rect fill="none" height="44" rx="8" ry="8" style="stroke:#CBD5E1;stroke-width:1.5;" width="455.9575" x="731.8452" y="1239"/><text fill="#000000" font-family="Helvetica" font-size="14" font-weight="bold" lengthAdjust="spacing" textLength="29.5449" x="746.8452" y="1250.7803">loop</text><text fill="#000000" font-family="Helvetica" font-size="14" font-weight="bold" lengthAdjust="spacing" textLength="190.5381" x="821.3901" y="1251.7803">[update pending UPDATING]</text><g class="message" data-entity-1="part4" data-entity-2="part5" id="msg18"><polygon fill="#0F172A" points="1146.3579,1271,1156.3579,1275,1146.3579,1279,1150.3579,1275" style="stroke:#0F172A;stroke-width:1;"/><line style="stroke:#0F172A;stroke-width:1;" x1="820.0415" x2="1152.3579" y1="1275" y2="1275"/><text fill="#000000" font-family="Helvetica" font-size="14" lengthAdjust="spacing" textLength="133.0752" x="827.0415" y="1269.7803">GetDataflowRunLogs</text></g><g class="message" data-entity-1="part4" data-entity-2="part5" id="msg19"><polygon fill="#0F172A" points="1146.3579,1383,1156.3579,1387,1146.3579,1391,1150.3579,1387" style="stroke:#0F172A;stroke-width:1;"/><line style="stroke:#0F172A;stroke-width:1;" x1="820.0415" x2="1152.3579" y1="1387" y2="1387"/><text fill="#000000" font-family="Helvetica" font-size="14" lengthAdjust="spacing" textLength="104.2891" x="827.0415" y="1311.7803">run helper hooks</text><text fill="#000000" font-family="Helvetica" font-size="14" lengthAdjust="spacing" textLength="219.0508" x="827.0415" y="1325.7803">create=tfresource.CreateResource,</text><text fill="#000000" font-family="Helvetica" font-size="14" lengthAdjust="spacing" textLength="314.3164" x="827.0415" y="1339.7803">tfresource.WaitForWorkRequestWithErrorHandling</text><text fill="#000000" font-family="Helvetica" font-size="14" lengthAdjust="spacing" textLength="215.5439" x="827.0415" y="1353.7803">entity=template action=CREATED;</text><text fill="#000000" font-family="Helvetica" font-size="14" lengthAdjust="spacing" textLength="226.085" x="827.0415" y="1367.7803">update=tfresource.UpdateResource;</text><text fill="#000000" font-family="Helvetica" font-size="14" lengthAdjust="spacing" textLength="212.8438" x="827.0415" y="1381.7803">delete=tfresource.DeleteResource</text></g><g class="message" data-entity-1="part4" data-entity-2="part3" id="msg20"><polygon fill="#0F172A" points="546.4487,1432,536.4487,1436,546.4487,1440,542.4487,1436" style="stroke:#0F172A;stroke-width:1;"/><line style="stroke:#0F172A;stroke-width:1;stroke-dasharray:2,2;" x1="540.4487" x2="819.0415" y1="1436" y2="1436"/><text fill="#000000" font-family="Helvetica" font-size="14" lengthAdjust="spacing" textLength="100.7822" x="552.4487" y="1416.7803">status=required,</text><text fill="#000000" font-family="Helvetica" font-size="14" lengthAdjust="spacing" textLength="230.7197" x="552.4487" y="1430.7803">finalizer=retain-until-confirmed-delete</text></g><g class="message" data-entity-1="part3" data-entity-2="part2" id="msg21"><polygon fill="#0F172A" points="307.6226,1481,297.6226,1485,307.6226,1489,303.6226,1485" style="stroke:#0F172A;stroke-width:1;"/><line style="stroke:#0F172A;stroke-width:1;stroke-dasharray:2,2;" x1="301.6226" x2="534.4487" y1="1485" y2="1485"/><text fill="#000000" font-family="Helvetica" font-size="14" lengthAdjust="spacing" textLength="214.8262" x="313.6226" y="1465.7803">requeue on provisioning, updating,</text><text fill="#000000" font-family="Helvetica" font-size="14" lengthAdjust="spacing" textLength="69.2549" x="313.6226" y="1479.7803">terminating</text></g><path d="M825,1506 L825,1962 A8,8 0 0 0 833,1970 L1145,1970 A8,8 0 0 0 1153,1962 L1153,1508 L1143,1498 L833,1498 A8,8 0 0 0 825,1506" fill="#FFF7D6" style="stroke:#B45309;stroke-width:0.5;"/><path d="M1143,1498 L1143,1504 A4,4 0 0 0 1147,1508 L1153,1508 L1143,1498" fill="#FFF7D6" style="stroke:#B45309;stroke-width:0.5;"/><text fill="#334155" font-family="Helvetica" font-size="14" lengthAdjust="spacing" textLength="101.165" x="831" y="1513.7803">shared diagram:</text><text fill="#334155" font-family="Helvetica" font-size="14" lengthAdjust="spacing" textLength="307.3916" x="831" y="1527.7803">shared/diagrams/shared-resolution-sequence.svg</text><text fill="#334155" font-family="Helvetica" font-size="14" lengthAdjust="spacing" textLength="143.1992" x="831" y="1541.7803">shared delete diagram:</text><text fill="#334155" font-family="Helvetica" font-size="14" lengthAdjust="spacing" textLength="284.833" x="831" y="1555.7803">shared/diagrams/shared-delete-sequence.svg</text><text fill="#334155" font-family="Helvetica" font-size="14" lengthAdjust="spacing" textLength="280.9297" x="831" y="1569.7803">Start from the shared resolution sequence for</text><text fill="#334155" font-family="Helvetica" font-size="14" lengthAdjust="spacing" textLength="260.7295" x="831" y="1583.7803">OCID binding, datasource pagination, and</text><text fill="#334155" font-family="Helvetica" font-size="14" lengthAdjust="spacing" textLength="163.4268" x="831" y="1597.7803">create-or-update dispatch.</text><text fill="#334155" font-family="Helvetica" font-size="14" lengthAdjust="spacing" textLength="301.1982" x="831" y="1611.7803">Layer the shared delete sequence when finalizer</text><text fill="#334155" font-family="Helvetica" font-size="14" lengthAdjust="spacing" textLength="269.2471" x="831" y="1625.7803">retention, delete confirmation, work-request</text><text fill="#334155" font-family="Helvetica" font-size="14" lengthAdjust="spacing" textLength="199.2334" x="831" y="1639.7803">polling, or Secret cleanup apply.</text><text fill="#334155" font-family="Helvetica" font-size="14" lengthAdjust="spacing" textLength="281.709" x="831" y="1653.7803">archetype batch: Generated service-manager</text><text fill="#334155" font-family="Helvetica" font-size="14" lengthAdjust="spacing" textLength="266.1504" x="831" y="1667.7803">controllers follow the shared resolution and</text><text fill="#334155" font-family="Helvetica" font-size="14" lengthAdjust="spacing" textLength="259.9297" x="831" y="1681.7803">delete sequences with imported waits and</text><text fill="#334155" font-family="Helvetica" font-size="14" lengthAdjust="spacing" textLength="134.6064" x="831" y="1695.7803">controller-local policy.</text><text fill="#334155" font-family="Helvetica" font-size="14" lengthAdjust="spacing" textLength="104.2686" x="831" y="1709.7803">service: dataflow</text><text fill="#334155" font-family="Helvetica" font-size="14" lengthAdjust="spacing" textLength="131.5234" x="831" y="1723.7803">slug: dataflowrunlogs</text><text fill="#334155" font-family="Helvetica" font-size="14" lengthAdjust="spacing" textLength="143.9717" x="831" y="1737.7803">kind: DataflowRunLogs</text><text fill="#334155" font-family="Helvetica" font-size="14" lengthAdjust="spacing" textLength="241.2402" x="831" y="1751.7803">archetype: generated-service-manager</text><text fill="#334155" font-family="Helvetica" font-size="14" lengthAdjust="spacing" textLength="156.4063" x="831" y="1765.7803">status/finalizer: required /</text><text fill="#334155" font-family="Helvetica" font-size="14" lengthAdjust="spacing" textLength="174.3027" x="831" y="1779.7803">retain-until-confirmed-delete</text><text fill="#334155" font-family="Helvetica" font-size="14" lengthAdjust="spacing" textLength="272.3984" x="831" y="1793.7803">requeue: provisioning, updating, terminating</text><text fill="#334155" font-family="Helvetica" font-size="14" lengthAdjust="spacing" textLength="295.6816" x="831" y="1807.7803">provider states: create PROVISIONING; update</text><text fill="#334155" font-family="Helvetica" font-size="14" lengthAdjust="spacing" textLength="192.165" x="831" y="1821.7803">UPDATING; delete DELETING</text><text fill="#334155" font-family="Helvetica" font-size="14" lengthAdjust="spacing" textLength="183.6611" x="831" y="1835.7803">supported drift: display_name</text><text fill="#334155" font-family="Helvetica" font-size="14" lengthAdjust="spacing" textLength="230.3301" x="831" y="1849.7803">reject before mutate: force-new fields</text><text fill="#334155" font-family="Helvetica" font-size="14" lengthAdjust="spacing" textLength="100.3789" x="831" y="1863.7803">compartment_id</text><text fill="#334155" font-family="Helvetica" font-size="14" lengthAdjust="spacing" textLength="284.0605" x="831" y="1877.7803">list lookup: scaffold_dataflow_dataflowrunlogs</text><text fill="#334155" font-family="Helvetica" font-size="14" lengthAdjust="spacing" textLength="175.8477" x="831" y="1891.7803">filters compartment_id, state</text><text fill="#334155" font-family="Helvetica" font-size="14" lengthAdjust="spacing" textLength="89.4961" x="831" y="1905.7803">conflicts: none</text><text fill="#334155" font-family="Helvetica" font-size="14" lengthAdjust="spacing" textLength="104.3164" x="831" y="1919.7803">open gaps: none</text><text fill="#334155" font-family="Helvetica" font-size="14" lengthAdjust="spacing" textLength="224.9023" x="831" y="1933.7803">Scaffold metadata only; replace with</text><text fill="#334155" font-family="Helvetica" font-size="14" lengthAdjust="spacing" textLength="244.3232" x="831" y="1947.7803">controller-specific runtime states before</text><text fill="#334155" font-family="Helvetica" font-size="14" lengthAdjust="spacing" textLength="66.1445" x="831" y="1961.7803">promotion.</text><?plantuml-src fLVRRjiu47tNLmowBorW9qsJzE8W2xH9jWsQRGgxtRuO26XfP7D3aIf9sVKkzjztU94ioVOsxI8FaKLoBcVEdA7CFPSbqwm0is2PMd4vXvm9WubfLcOilPzhLSdiGWcbuPSyfR-ijIF3d5N2_gQa_S0AX7SebcXvodRlcV2_48vEMejCQxMArf_cHo-UjKzAPV7DLWnv_Y9xtj-bT8OwxfYTd1u_VTNRuTp7zUFZawFJqzQwDvygBL73qVF4SYiG9lYrGfaY325ZbkL2hGuluyEuaZTgRf85pn1ofUnCVMlPC_NHlnC0bbgbE_75FEkbVeBu35_cJscPZ16Kl6JIxZxVtl0GAoqC6Xk2vtZ3PHV1LoViUFQILft9ihEKph9JF6gMjghpCcTvcloJ-DpWVJL3WjMYILfnm0K5efKGg3kltp23OqoLJ7b_wT7jvFRz1FMIf_WxasoE-X4m0zrNdIEt5zU9gpoe9TMrQtlGEqSze343ZKQ9od8bH_7LOSRPd6fg3iFluMRBi2xpWLdEQmiP2ifsx-cmt3s9ClCCJJPWmV3N5aOZG4dxAuGU_oZUc52osUtETfCTGVFyM3lFnZv9kblSeIuaeurnIifmbroV_fu2SAFKFVrZbCQCoonXmeBLH0mwGHJ0RwMWalXw0FMBfFPQ0nCQMRQcLMwiIRg-NJIqUmHlqVPz8abKOxunnmqKt1WIiNscRiXFpzRZd0kBseocCbM5eqv1vkvuDW1ZcSKdFXMDbM4pGi75xwfVQUfiSaWrezudwkzpUK4fMkmd89Gg8VLBK5BjdV1-7D_-SJsvllrm_U7jZs11lZqUksFyUOntvBI3LILXHvP3roof79qAS-bHh88vXsGWFqGAOXRvS-bVxmilhFOZtBEPOikvBcfFIywcSZi_OkLKxk13A4qyMvVcykhcwjCFbMMl-Hg7L22Jb3WrHyub4pGKDQ52Ruqdramen-w7b42ZPGHqZDcprZSYlTVhm8suvXXE3wHRe6Q6B3_KGGXh4oZBgMUshGOoreHqJ0ZHS1E2SVHycCCWTQi5R_XSK8w623MLxKOPmEUFbwy_-QUcIjwxuCiQ36UEjCjG0YYo8LkH34zbfdbk0PTCLCm77vdeNoy8GE6KP3Cykd4Ft6IPL6MfDB4OgZ9pdaobSvRY239kIi7MTv8kHCaO_yJKmWnpfH6AoWKr8jcW_XnAN8MmJDBLdoHAQgrFi5EUDeD3bRPbacZb-e14rpe2Xrof31aLBBKFBNixR5S57tfTP-VGD02u9IS-t_SKU-PrMOerVFQuRJMFfANSjL1jDa3KXTLtQWI-xjIQ3JygeFi5N5SI5YX8vs115J4q9xnkdzky5jc38FBZ-7CmbQsrBupJdKj_KVf-74Jl2xUBAxhowdUHP5CPvFBS8dMIRz_KmNn-CRvw_UdgycmgGvfjdm6vsYTj2TtOtX9aizxoK4KFWdqUcoQZR9g-FmzICwmeN36CGjlSQBo3_fMYTucfEviKgDHgoGsbIGWCGXtT4u67kY2Fjca_pUSB2og7tHUsUB_wVxUrxrhPTMkRM6f8oBKgm2uGjYwGcuy08dD2TBhqjoEViFkUY3EwP7EVhv839zn98DXGwM5ajwCzi-dY8BbXQqArvQnM_ThHQe5o8zG95SnnorbkrDfNBRfR4Is7SHWd9HN9nwQSsb4Kcp75NBSU94od2xJh4kcpaE9n_KJVIym9W0cr6HQnE6bJTT9T-gzMUp1o6VUoCB2Y7W5UH75PKG-P04rZTKW3aWcWc7bAaKNte-OxBJ6Yccz-KXiBr-tqVPQDjYwnJLuZcDSP3ViPXSOuRC0TrOCbWyFalpiZqdwqZ_JGvhpVGnzRGU6TyeUBOdlkdKNXIsh1Ewlhsqp1ZJPxJUxD9FrJCqcugvxmWuc48cKvLJQxgp6-wuCTPzUUqLKFACfGAkac655tpihwzoJQXuAmTQRzN3WZr2aDHtNYI9iGfiIKvpnracrv4QU_YJawM0lb67VG3Cr_0G00?></g></svg>