<?plantuml 1.2026.1?><svg xmlns="http://www.w3.org/2000/svg" xmlns:xlink="http://www.w3.org/1999/xlink" contentStyleType="text/css" data-diagram-type="ACTIVITY" height="2322px" preserveAspectRatio="none" style="width:1353px;height:2322px;background:#FCFCFD;" version="1.1" viewBox="0 0 1353 2322" width="1353px" zoomAndPan="magnify"><title>Activity - databasemanagement/DatabaseManagementManagedDatabaseTableStatistics</title><defs/><g><rect fill="#FCFCFD" height="2322" style="stroke:none;stroke-width:1;" width="1353" x="0" y="0"/><g class="title" data-source-line="10"><text fill="#000000" font-family="Helvetica" font-size="14" font-weight="bold" lengthAdjust="spacing" textLength="583.5293" x="383.5469" y="30.7803">Activity - databasemanagement/DatabaseManagementManagedDatabaseTableStatistics</text></g><ellipse cx="703.5394" cy="55" fill="#1D4ED8" rx="10" ry="10" style="stroke:#222222;stroke-width:1;"/><rect fill="none" height="472" rx="8" ry="8" style="stroke:#000000;stroke-width:1.5;" width="866.5684" x="275.119" y="75"/><path d="M397.1874,75 L397.1874,82 L387.1874,92 L275.119,92" fill="none" style="stroke:#000000;stroke-width:1.5;"/><text fill="#000000" font-family="Helvetica" font-size="14" lengthAdjust="spacing" textLength="112.0684" x="278.119" y="86.7803">Observe and Bind</text><rect fill="#F8FAFC" height="48" rx="8" ry="8" style="stroke:#0F172A;stroke-width:0.5;" width="304.7852" x="551.1469" y="109"/><text fill="#0F172A" font-family="Helvetica" font-size="14" lengthAdjust="spacing" textLength="136.9375" x="561.1469" y="129.7803">Start from shared flow</text><text fill="#0F172A" font-family="Helvetica" font-size="14" lengthAdjust="spacing" textLength="284.7852" x="561.1469" y="143.7803">shared/diagrams/shared-reconcile-activity.svg</text><rect fill="#F8FAFC" height="62" rx="8" ry="8" style="stroke:#0F172A;stroke-width:0.5;" width="370.9912" x="518.0438" y="177"/><text fill="#0F172A" font-family="Helvetica" font-size="14" lengthAdjust="spacing" textLength="83.2754" x="528.0438" y="197.7803">Read desired</text><text fill="#0F172A" font-family="Helvetica" font-size="14" lengthAdjust="spacing" textLength="350.9912" x="528.0438" y="211.7803">DatabaseManagementManagedDatabaseTableStatistics</text><text fill="#0F172A" font-family="Helvetica" font-size="14" lengthAdjust="spacing" textLength="235.8125" x="528.0438" y="225.7803">spec, tracked status, and delete intent</text><polygon fill="#E2E8F0" points="574.0736,259,833.0052,259,845.0052,271,833.0052,283,574.0736,283,562.0736,271,574.0736,259" style="stroke:#1D4ED8;stroke-width:0.5;"/><text fill="#0F172A" font-family="Helvetica" font-size="14" lengthAdjust="spacing" textLength="258.9316" x="574.0736" y="274.7803">"Tracked or explicit OCI identity present?"</text><text fill="#000000" font-family="Helvetica" font-size="14" lengthAdjust="spacing" textLength="21.7861" x="540.2875" y="267.7803">yes</text><text fill="#000000" font-family="Helvetica" font-size="14" lengthAdjust="spacing" textLength="15.5723" x="845.0052" y="267.7803">no</text><rect fill="#F8FAFC" height="48" rx="8" ry="8" style="stroke:#0F172A;stroke-width:0.5;" width="393.5566" x="295.119" y="293"/><text fill="#0F172A" font-family="Helvetica" font-size="14" lengthAdjust="spacing" textLength="202.3027" x="305.119" y="313.7803">Get the current OCI resource via</text><text fill="#0F172A" font-family="Helvetica" font-size="14" lengthAdjust="spacing" textLength="373.5566" x="305.119" y="327.7803">GetDatabaseManagementManagedDatabaseTableStatistics</text><rect fill="#F8FAFC" height="62" rx="8" ry="8" style="stroke:#0F172A;stroke-width:0.5;" width="392.7773" x="718.7928" y="293"/><text fill="#0F172A" font-family="Helvetica" font-size="14" lengthAdjust="spacing" textLength="259.9092" x="728.7928" y="313.7803">Resolve an existing OCI resource through</text><text fill="#0F172A" font-family="Helvetica" font-size="14" lengthAdjust="spacing" textLength="372.7773" x="728.7928" y="327.7803">ListDatabaseManagementManagedDatabaseTableStatistics</text><text fill="#0F172A" font-family="Helvetica" font-size="14" lengthAdjust="spacing" textLength="213.2061" x="728.7928" y="341.7803">using filters compartment_id, state</text><rect fill="#F8FAFC" height="62" rx="8" ry="8" style="stroke:#0F172A;stroke-width:0.5;" width="413.0117" x="708.6757" y="375"/><text fill="#0F172A" font-family="Helvetica" font-size="14" lengthAdjust="spacing" textLength="174.2959" x="718.6757" y="395.7803">Create the OCI resource via</text><text fill="#0F172A" font-family="Helvetica" font-size="14" lengthAdjust="spacing" textLength="393.0117" x="718.6757" y="409.7803">CreateDatabaseManagementManagedDatabaseTableStatistics</text><text fill="#0F172A" font-family="Helvetica" font-size="14" lengthAdjust="spacing" textLength="205.4609" x="718.6757" y="423.7803">when no reusable match is found</text><rect fill="#F8FAFC" height="48" rx="8" ry="8" style="stroke:#0F172A;stroke-width:0.5;" width="286.8955" x="771.7338" y="457"/><text fill="#0F172A" font-family="Helvetica" font-size="14" lengthAdjust="spacing" textLength="266.8955" x="781.7338" y="477.7803">Persist the resolved or created OCI identity</text><text fill="#0F172A" font-family="Helvetica" font-size="14" lengthAdjust="spacing" textLength="63.8135" x="781.7338" y="491.7803">into status</text><polygon fill="#E2E8F0" points="703.5394,511,715.5394,523,703.5394,535,691.5394,523,703.5394,511" style="stroke:#1D4ED8;stroke-width:0.5;"/><polygon fill="#E2E8F0" points="641.3632,567,765.7157,567,777.7157,579,765.7157,591,641.3632,591,629.3632,579,641.3632,567" style="stroke:#1D4ED8;stroke-width:0.5;"/><text fill="#0F172A" font-family="Helvetica" font-size="14" lengthAdjust="spacing" textLength="124.3525" x="641.3632" y="582.7803">"Delete requested?"</text><text fill="#000000" font-family="Helvetica" font-size="14" lengthAdjust="spacing" textLength="21.7861" x="607.577" y="575.7803">yes</text><text fill="#000000" font-family="Helvetica" font-size="14" lengthAdjust="spacing" textLength="15.5723" x="777.7157" y="575.7803">no</text><rect fill="none" height="444" rx="8" ry="8" style="stroke:#000000;stroke-width:1.5;" width="644.4814" x="11" y="601"/><path d="M61.4688,601 L61.4688,608 L51.4688,618 L11,618" fill="none" style="stroke:#000000;stroke-width:1.5;"/><text fill="#000000" font-family="Helvetica" font-size="14" lengthAdjust="spacing" textLength="40.4688" x="14" y="612.7803">Delete</text><rect fill="#F8FAFC" height="118" rx="8" ry="8" style="stroke:#0F172A;stroke-width:0.5;" width="411.46" x="134.0142" y="635"/><text fill="#0F172A" font-family="Helvetica" font-size="14" lengthAdjust="spacing" textLength="105.0684" x="144.0142" y="655.7803">Delete path uses</text><text fill="#0F172A" font-family="Helvetica" font-size="14" lengthAdjust="spacing" textLength="391.46" x="144.0142" y="669.7803">DeleteDatabaseManagementManagedDatabaseTableStatistics</text><text fill="#0F172A" font-family="Helvetica" font-size="14" lengthAdjust="spacing" textLength="101.9375" x="144.0142" y="683.7803">with required via</text><text fill="#0F172A" font-family="Helvetica" font-size="14" lengthAdjust="spacing" textLength="373.5566" x="144.0142" y="697.7803">GetDatabaseManagementManagedDatabaseTableStatistics</text><text fill="#0F172A" font-family="Helvetica" font-size="14" lengthAdjust="spacing" textLength="12.4482" x="144.0142" y="711.7803">or</text><text fill="#0F172A" font-family="Helvetica" font-size="14" lengthAdjust="spacing" textLength="372.7773" x="144.0142" y="725.7803">ListDatabaseManagementManagedDatabaseTableStatistics</text><text fill="#0F172A" font-family="Helvetica" font-size="14" lengthAdjust="spacing" textLength="160.2822" x="144.0142" y="739.7803">to DELETED confirmation</text><rect fill="#F8FAFC" height="90" rx="8" ry="8" style="stroke:#0F172A;stroke-width:0.5;" width="393.5566" x="142.9658" y="788"/><text fill="#0F172A" font-family="Helvetica" font-size="14" lengthAdjust="spacing" textLength="123.7236" x="152.9658" y="808.7803">Confirm deletion via</text><text fill="#0F172A" font-family="Helvetica" font-size="14" lengthAdjust="spacing" textLength="373.5566" x="152.9658" y="822.7803">GetDatabaseManagementManagedDatabaseTableStatistics</text><text fill="#0F172A" font-family="Helvetica" font-size="14" lengthAdjust="spacing" textLength="12.4482" x="152.9658" y="836.7803">or</text><text fill="#0F172A" font-family="Helvetica" font-size="14" lengthAdjust="spacing" textLength="372.7773" x="152.9658" y="850.7803">ListDatabaseManagementManagedDatabaseTableStatistics</text><text fill="#0F172A" font-family="Helvetica" font-size="14" lengthAdjust="spacing" textLength="176.6201" x="152.9658" y="864.7803">until OCI reaches DELETED</text><polygon fill="#E2E8F0" points="191.5718,913,487.9165,913,499.9165,925,487.9165,937,191.5718,937,179.5718,925,191.5718,913" style="stroke:#1D4ED8;stroke-width:0.5;"/><text fill="#0F172A" font-family="Helvetica" font-size="14" lengthAdjust="spacing" textLength="296.3447" x="191.5718" y="928.7803">"Delete cleanup and finalizer release succeed?"</text><text fill="#000000" font-family="Helvetica" font-size="14" lengthAdjust="spacing" textLength="21.7861" x="157.7856" y="921.7803">yes</text><text fill="#000000" font-family="Helvetica" font-size="14" lengthAdjust="spacing" textLength="15.5723" x="499.9165" y="921.7803">no</text><rect fill="#F8FAFC" height="34" rx="8" ry="8" style="stroke:#0F172A;stroke-width:0.5;" width="293.1436" x="23" y="947"/><text fill="#0F172A" font-family="Helvetica" font-size="14" lengthAdjust="spacing" textLength="273.1436" x="33" y="967.7803">Remove the finalizer after delete completion</text><rect fill="#F8FAFC" height="48" rx="8" ry="8" style="stroke:#0F172A;stroke-width:0.5;" width="251.1299" x="384.3516" y="947"/><text fill="#0F172A" font-family="Helvetica" font-size="14" lengthAdjust="spacing" textLength="231.1299" x="394.3516" y="967.7803">Stay blocked until cleanup or finalizer</text><text fill="#0F172A" font-family="Helvetica" font-size="14" lengthAdjust="spacing" textLength="108.9512" x="394.3516" y="981.7803">release succeeds</text><polygon fill="#E2E8F0" points="339.7441,1001,351.7441,1013,339.7441,1025,327.7441,1013,339.7441,1001" style="stroke:#1D4ED8;stroke-width:0.5;"/><ellipse cx="339.7441" cy="1088" fill="none" rx="11" ry="11" style="stroke:#222222;stroke-width:1;"/><ellipse cx="339.7441" cy="1088" fill="#222222" rx="6" ry="6" style="stroke:#222222;stroke-width:1;"/><rect fill="none" height="456" rx="8" ry="8" style="stroke:#000000;stroke-width:1.5;" width="345.916" x="900.3767" y="601"/><path d="M1051.2107,601 L1051.2107,608 L1041.2107,618 L900.3767,618" fill="none" style="stroke:#000000;stroke-width:1.5;"/><text fill="#000000" font-family="Helvetica" font-size="14" lengthAdjust="spacing" textLength="140.834" x="903.3767" y="612.7803">Lifecycle Classification</text><rect fill="#F8FAFC" height="48" rx="8" ry="8" style="stroke:#0F172A;stroke-width:0.5;" width="280.5928" x="927.0383" y="684"/><text fill="#0F172A" font-family="Helvetica" font-size="14" lengthAdjust="spacing" textLength="240.4541" x="937.0383" y="704.7803">Request requeue while OCI remains in</text><text fill="#0F172A" font-family="Helvetica" font-size="14" lengthAdjust="spacing" textLength="260.5928" x="937.0383" y="718.7803">PROVISIONING, UPDATING, DELETING</text><ellipse cx="1067.3347" cy="778" fill="none" rx="11" ry="11" style="stroke:#222222;stroke-width:1;"/><ellipse cx="1067.3347" cy="778" fill="#222222" rx="6" ry="6" style="stroke:#222222;stroke-width:1;"/><polygon fill="#E2E8F0" points="981.0515,635,1153.6179,635,1165.6179,647,1153.6179,659,981.0515,659,969.0515,647,981.0515,635" style="stroke:#1D4ED8;stroke-width:0.5;"/><text fill="#000000" font-family="Helvetica" font-size="14" lengthAdjust="spacing" textLength="21.7861" x="1071.3347" y="669.7803">yes</text><text fill="#0F172A" font-family="Helvetica" font-size="14" lengthAdjust="spacing" textLength="172.5664" x="981.0515" y="650.7803">"OCI state in retryable set?"</text><rect fill="#F8FAFC" height="48" rx="8" ry="8" style="stroke:#0F172A;stroke-width:0.5;" width="293.916" x="920.3767" y="904"/><text fill="#0F172A" font-family="Helvetica" font-size="14" lengthAdjust="spacing" textLength="273.916" x="930.3767" y="924.7803">Return an unsuccessful reconcile result until</text><text fill="#0F172A" font-family="Helvetica" font-size="14" lengthAdjust="spacing" textLength="133.041" x="930.3767" y="938.7803">OCI reaches ACTIVE</text><ellipse cx="1067.3347" cy="998" fill="none" rx="11" ry="11" style="stroke:#222222;stroke-width:1;"/><ellipse cx="1067.3347" cy="998" fill="#222222" rx="6" ry="6" style="stroke:#222222;stroke-width:1;"/><polygon fill="#E2E8F0" points="946.8137,855,1187.8557,855,1199.8557,867,1187.8557,879,946.8137,879,934.8137,867,946.8137,855" style="stroke:#1D4ED8;stroke-width:0.5;"/><text fill="#000000" font-family="Helvetica" font-size="14" lengthAdjust="spacing" textLength="21.7861" x="1071.3347" y="889.7803">yes</text><text fill="#0F172A" font-family="Helvetica" font-size="14" lengthAdjust="spacing" textLength="241.042" x="946.8137" y="870.7803">"OCI state is outside success targets?"</text><rect fill="none" height="736.5" rx="8" ry="8" style="stroke:#000000;stroke-width:1.5;" width="667.1416" x="675.4814" y="1092"/><path d="M841.9014,1092 L841.9014,1099 L831.9014,1109 L675.4814,1109" fill="none" style="stroke:#000000;stroke-width:1.5;"/><text fill="#000000" font-family="Helvetica" font-size="14" lengthAdjust="spacing" textLength="156.4199" x="678.4814" y="1103.7803">Ready and Drift Handling</text><rect fill="#F8FAFC" height="48" rx="8" ry="8" style="stroke:#0F172A;stroke-width:0.5;" width="296.2402" x="919.2146" y="1126"/><text fill="#0F172A" font-family="Helvetica" font-size="14" lengthAdjust="spacing" textLength="276.2402" x="929.2146" y="1146.7803">Compare live OCI state against the imported</text><text fill="#0F172A" font-family="Helvetica" font-size="14" lengthAdjust="spacing" textLength="75.4824" x="929.2146" y="1160.7803">field surface</text><rect fill="#F8FAFC" height="48" rx="8" ry="8" style="stroke:#0F172A;stroke-width:0.5;" width="302.4473" x="916.1111" y="1243"/><text fill="#0F172A" font-family="Helvetica" font-size="14" lengthAdjust="spacing" textLength="282.4473" x="926.1111" y="1263.7803">Reject drift before OCI mutation for force-new</text><text fill="#0F172A" font-family="Helvetica" font-size="14" lengthAdjust="spacing" textLength="136.9512" x="926.1111" y="1277.7803">fields compartment_id</text><ellipse cx="1067.3347" cy="1323.5" fill="none" rx="11" ry="11" style="stroke:#222222;stroke-width:1;"/><ellipse cx="1067.3347" cy="1323.5" fill="#222222" rx="6" ry="6" style="stroke:#222222;stroke-width:1;"/><polygon fill="#E2E8F0" points="941.7517,1194,1192.9177,1194,1204.9177,1206,1192.9177,1218,941.7517,1218,929.7517,1206,941.7517,1194" style="stroke:#1D4ED8;stroke-width:0.5;"/><text fill="#000000" font-family="Helvetica" font-size="14" lengthAdjust="spacing" textLength="21.7861" x="1071.3347" y="1228.7803">yes</text><text fill="#0F172A" font-family="Helvetica" font-size="14" lengthAdjust="spacing" textLength="251.166" x="941.7517" y="1209.7803">"Force-new or conflicting drift detected?"</text><polygon fill="#E2E8F0" points="956.907,1376.5,1177.7625,1376.5,1189.7625,1388.5,1177.7625,1400.5,956.907,1400.5,944.907,1388.5,956.907,1376.5" style="stroke:#1D4ED8;stroke-width:0.5;"/><text fill="#0F172A" font-family="Helvetica" font-size="14" lengthAdjust="spacing" textLength="220.8555" x="956.907" y="1392.2803">"Supported mutable drift detected?"</text><text fill="#000000" font-family="Helvetica" font-size="14" lengthAdjust="spacing" textLength="21.7861" x="923.1208" y="1385.2803">yes</text><text fill="#000000" font-family="Helvetica" font-size="14" lengthAdjust="spacing" textLength="15.5723" x="1189.7625" y="1385.2803">no</text><rect fill="#F8FAFC" height="62" rx="8" ry="8" style="stroke:#0F172A;stroke-width:0.5;" width="416.1357" x="695.4814" y="1410.5"/><text fill="#0F172A" font-family="Helvetica" font-size="14" lengthAdjust="spacing" textLength="35.0205" x="705.4814" y="1431.2803">Apply</text><text fill="#0F172A" font-family="Helvetica" font-size="14" lengthAdjust="spacing" textLength="396.1357" x="705.4814" y="1445.2803">UpdateDatabaseManagementManagedDatabaseTableStatistics</text><text fill="#0F172A" font-family="Helvetica" font-size="14" lengthAdjust="spacing" textLength="226.4541" x="705.4814" y="1459.2803">only for mutable fields display_name</text><rect fill="#F8FAFC" height="34" rx="8" ry="8" style="stroke:#0F172A;stroke-width:0.5;" width="199.0059" x="1131.6172" y="1410.5"/><text fill="#0F172A" font-family="Helvetica" font-size="14" lengthAdjust="spacing" textLength="179.0059" x="1141.6172" y="1431.2803">Skip the no-op mutation path</text><polygon fill="#E2E8F0" points="1067.3347,1478.5,1079.3347,1490.5,1067.3347,1502.5,1055.3347,1490.5,1067.3347,1478.5" style="stroke:#1D4ED8;stroke-width:0.5;"/><rect fill="#F8FAFC" height="118" rx="8" ry="8" style="stroke:#0F172A;stroke-width:0.5;" width="334.3164" x="900.1765" y="1522.5"/><text fill="#0F172A" font-family="Helvetica" font-size="14" lengthAdjust="spacing" textLength="164.2061" x="910.1765" y="1543.2803">Run provider helper hooks</text><text fill="#0F172A" font-family="Helvetica" font-size="14" lengthAdjust="spacing" textLength="219.0508" x="910.1765" y="1557.2803">create=tfresource.CreateResource,</text><text fill="#0F172A" font-family="Helvetica" font-size="14" lengthAdjust="spacing" textLength="314.3164" x="910.1765" y="1571.2803">tfresource.WaitForWorkRequestWithErrorHandling</text><text fill="#0F172A" font-family="Helvetica" font-size="14" lengthAdjust="spacing" textLength="215.5439" x="910.1765" y="1585.2803">entity=template action=CREATED;</text><text fill="#0F172A" font-family="Helvetica" font-size="14" lengthAdjust="spacing" textLength="226.085" x="910.1765" y="1599.2803">update=tfresource.UpdateResource;</text><text fill="#0F172A" font-family="Helvetica" font-size="14" lengthAdjust="spacing" textLength="273.5537" x="910.1765" y="1613.2803">delete=tfresource.DeleteResource when the</text><text fill="#0F172A" font-family="Helvetica" font-size="14" lengthAdjust="spacing" textLength="220.2334" x="910.1765" y="1627.2803">matching field-driven path executes</text><rect fill="#F8FAFC" height="34" rx="8" ry="8" style="stroke:#0F172A;stroke-width:0.5;" width="303.2197" x="915.7249" y="1660.5"/><text fill="#0F172A" font-family="Helvetica" font-size="14" lengthAdjust="spacing" textLength="283.2197" x="925.7249" y="1681.2803">Return success for the ACTIVE success state</text><rect fill="#F8FAFC" height="48" rx="8" ry="8" style="stroke:#0F172A;stroke-width:0.5;" width="279.1299" x="927.7698" y="1714.5"/><text fill="#0F172A" font-family="Helvetica" font-size="14" lengthAdjust="spacing" textLength="259.1299" x="937.7698" y="1735.2803">Project required status and finalizer policy</text><text fill="#0F172A" font-family="Helvetica" font-size="14" lengthAdjust="spacing" textLength="174.3027" x="937.7698" y="1749.2803">retain-until-confirmed-delete</text><rect fill="#F8FAFC" height="34" rx="8" ry="8" style="stroke:#0F172A;stroke-width:0.5;" width="313.4189" x="910.6252" y="1782.5"/><text fill="#0F172A" font-family="Helvetica" font-size="14" lengthAdjust="spacing" textLength="293.4189" x="920.6252" y="1803.2803">Requeue on provisioning, updating, terminating</text><path d="M734.5394,1838.5 L734.5394,2070.5 L714.5394,2074.5 L734.5394,2078.5 L734.5394,2310.5 A0,0 0 0 0 734.5394,2310.5 L1298.0258,2310.5 A0,0 0 0 0 1298.0258,2310.5 L1298.0258,1848.5 L1288.0258,1838.5 L734.5394,1838.5 A0,0 0 0 0 734.5394,1838.5" fill="#FFF7D6" style="stroke:#B45309;stroke-width:0.5;"/><path d="M1288.0258,1838.5 L1288.0258,1848.5 L1298.0258,1848.5 L1288.0258,1838.5" fill="#FFF7D6" style="stroke:#B45309;stroke-width:0.5;"/><text fill="#334155" font-family="Helvetica" font-size="14" lengthAdjust="spacing" textLength="101.165" x="740.5394" y="1854.2803">shared diagram:</text><text fill="#334155" font-family="Helvetica" font-size="14" lengthAdjust="spacing" textLength="284.7852" x="740.5394" y="1868.2803">shared/diagrams/shared-reconcile-activity.svg</text><text fill="#334155" font-family="Helvetica" font-size="14" lengthAdjust="spacing" textLength="265.3438" x="740.5394" y="1882.2803">Start from the shared reconcile activity and</text><text fill="#334155" font-family="Helvetica" font-size="14" lengthAdjust="spacing" textLength="273.8955" x="740.5394" y="1896.2803">specialize provider-backed CRUD, wait, and</text><text fill="#334155" font-family="Helvetica" font-size="14" lengthAdjust="spacing" textLength="182.875" x="740.5394" y="1910.2803">status-projection details here.</text><text fill="#334155" font-family="Helvetica" font-size="14" lengthAdjust="spacing" textLength="229.5371" x="740.5394" y="1924.2803">Controller-local activity diagrams add</text><text fill="#334155" font-family="Helvetica" font-size="14" lengthAdjust="spacing" textLength="238.8955" x="740.5394" y="1938.2803">list-lookup hints, secret policies, delete</text><text fill="#334155" font-family="Helvetica" font-size="14" lengthAdjust="spacing" textLength="200.0332" x="740.5394" y="1952.2803">handling, and open formal gaps.</text><text fill="#334155" font-family="Helvetica" font-size="14" lengthAdjust="spacing" textLength="281.709" x="740.5394" y="1966.2803">archetype batch: Generated service-manager</text><text fill="#334155" font-family="Helvetica" font-size="14" lengthAdjust="spacing" textLength="291.0469" x="740.5394" y="1980.2803">controllers specialize the shared reconcile path</text><text fill="#334155" font-family="Helvetica" font-size="14" lengthAdjust="spacing" textLength="189.8477" x="740.5394" y="1994.2803">with formal runtime ownership.</text><text fill="#334155" font-family="Helvetica" font-size="14" lengthAdjust="spacing" textLength="191.4473" x="740.5394" y="2008.2803">service: databasemanagement</text><text fill="#334155" font-family="Helvetica" font-size="14" lengthAdjust="spacing" textLength="29.5723" x="740.5394" y="2022.2803">slug:</text><text fill="#334155" font-family="Helvetica" font-size="14" lengthAdjust="spacing" textLength="339.3428" x="740.5394" y="2036.2803">databasemanagementmanageddatabasetablestatistics</text><text fill="#334155" font-family="Helvetica" font-size="14" lengthAdjust="spacing" textLength="29.5723" x="740.5394" y="2050.2803">kind:</text><text fill="#334155" font-family="Helvetica" font-size="14" lengthAdjust="spacing" textLength="350.9912" x="740.5394" y="2064.2803">DatabaseManagementManagedDatabaseTableStatistics</text><text fill="#334155" font-family="Helvetica" font-size="14" lengthAdjust="spacing" textLength="241.2402" x="740.5394" y="2078.2803">archetype: generated-service-manager</text><text fill="#334155" font-family="Helvetica" font-size="14" lengthAdjust="spacing" textLength="156.4063" x="740.5394" y="2092.2803">status/finalizer: required /</text><text fill="#334155" font-family="Helvetica" font-size="14" lengthAdjust="spacing" textLength="174.3027" x="740.5394" y="2106.2803">retain-until-confirmed-delete</text><text fill="#334155" font-family="Helvetica" font-size="14" lengthAdjust="spacing" textLength="272.3984" x="740.5394" y="2120.2803">requeue: provisioning, updating, terminating</text><text fill="#334155" font-family="Helvetica" font-size="14" lengthAdjust="spacing" textLength="295.6816" x="740.5394" y="2134.2803">provider states: create PROVISIONING; update</text><text fill="#334155" font-family="Helvetica" font-size="14" lengthAdjust="spacing" textLength="192.165" x="740.5394" y="2148.2803">UPDATING; delete DELETING</text><text fill="#334155" font-family="Helvetica" font-size="14" lengthAdjust="spacing" textLength="183.6611" x="740.5394" y="2162.2803">supported drift: display_name</text><text fill="#334155" font-family="Helvetica" font-size="14" lengthAdjust="spacing" textLength="230.3301" x="740.5394" y="2176.2803">reject before mutate: force-new fields</text><text fill="#334155" font-family="Helvetica" font-size="14" lengthAdjust="spacing" textLength="100.3789" x="740.5394" y="2190.2803">compartment_id</text><text fill="#334155" font-family="Helvetica" font-size="14" lengthAdjust="spacing" textLength="66.1445" x="740.5394" y="2204.2803">list lookup:</text><text fill="#334155" font-family="Helvetica" font-size="14" lengthAdjust="spacing" textLength="542.4863" x="740.5394" y="2218.2803">scaffold_databasemanagement_databasemanagementmanageddatabasetablestatistics</text><text fill="#334155" font-family="Helvetica" font-size="14" lengthAdjust="spacing" textLength="175.8477" x="740.5394" y="2232.2803">filters compartment_id, state</text><text fill="#334155" font-family="Helvetica" font-size="14" lengthAdjust="spacing" textLength="89.4961" x="740.5394" y="2246.2803">conflicts: none</text><text fill="#334155" font-family="Helvetica" font-size="14" lengthAdjust="spacing" textLength="104.3164" x="740.5394" y="2260.2803">open gaps: none</text><text fill="#334155" font-family="Helvetica" font-size="14" lengthAdjust="spacing" textLength="224.9023" x="740.5394" y="2274.2803">Scaffold metadata only; replace with</text><text fill="#334155" font-family="Helvetica" font-size="14" lengthAdjust="spacing" textLength="244.3232" x="740.5394" y="2288.2803">controller-specific runtime states before</text><text fill="#334155" font-family="Helvetica" font-size="14" lengthAdjust="spacing" textLength="66.1445" x="740.5394" y="2302.2803">promotion.</text><ellipse cx="703.5394" cy="2074.5" fill="none" rx="11" ry="11" style="stroke:#222222;stroke-width:1;"/><ellipse cx="703.5394" cy="2074.5" fill="#222222" rx="6" ry="6" style="stroke:#222222;stroke-width:1;"/><line style="stroke:#0F172A;stroke-width:1;" x1="703.5394" x2="703.5394" y1="157" y2="177"/><polygon fill="#0F172A" points="699.5394,167,703.5394,177,707.5394,167,703.5394,171" style="stroke:#0F172A;stroke-width:1;"/><line style="stroke:#0F172A;stroke-width:1;" x1="915.1815" x2="915.1815" y1="355" y2="375"/><polygon fill="#0F172A" points="911.1815,365,915.1815,375,919.1815,365,915.1815,369" style="stroke:#0F172A;stroke-width:1;"/><line style="stroke:#0F172A;stroke-width:1;" x1="915.1815" x2="915.1815" y1="437" y2="457"/><polygon fill="#0F172A" points="911.1815,447,915.1815,457,919.1815,447,915.1815,451" style="stroke:#0F172A;stroke-width:1;"/><line style="stroke:#0F172A;stroke-width:1;" x1="562.0736" x2="491.8973" y1="271" y2="271"/><line style="stroke:#0F172A;stroke-width:1;" x1="491.8973" x2="491.8973" y1="271" y2="293"/><polygon fill="#0F172A" points="487.8973,283,491.8973,293,495.8973,283,491.8973,287" style="stroke:#0F172A;stroke-width:1;"/><line style="stroke:#0F172A;stroke-width:1;" x1="845.0052" x2="915.1815" y1="271" y2="271"/><line style="stroke:#0F172A;stroke-width:1;" x1="915.1815" x2="915.1815" y1="271" y2="293"/><polygon fill="#0F172A" points="911.1815,283,915.1815,293,919.1815,283,915.1815,287" style="stroke:#0F172A;stroke-width:1;"/><line style="stroke:#0F172A;stroke-width:1;" x1="491.8973" x2="491.8973" y1="341" y2="523"/><line style="stroke:#0F172A;stroke-width:1;" x1="491.8973" x2="691.5394" y1="523" y2="523"/><polygon fill="#0F172A" points="681.5394,519,691.5394,523,681.5394,527,685.5394,523" style="stroke:#0F172A;stroke-width:1;"/><line style="stroke:#0F172A;stroke-width:1;" x1="915.1815" x2="915.1815" y1="505" y2="523"/><line style="stroke:#0F172A;stroke-width:1;" x1="915.1815" x2="715.5394" y1="523" y2="523"/><polygon fill="#0F172A" points="725.5394,519,715.5394,523,725.5394,527,721.5394,523" style="stroke:#0F172A;stroke-width:1;"/><line style="stroke:#0F172A;stroke-width:1;" x1="703.5394" x2="703.5394" y1="239" y2="259"/><polygon fill="#0F172A" points="699.5394,249,703.5394,259,707.5394,249,703.5394,253" style="stroke:#0F172A;stroke-width:1;"/><line style="stroke:#0F172A;stroke-width:1;" x1="703.5394" x2="703.5394" y1="65" y2="109"/><polygon fill="#0F172A" points="699.5394,99,703.5394,109,707.5394,99,703.5394,103" style="stroke:#0F172A;stroke-width:1;"/><line style="stroke:#0F172A;stroke-width:1;" x1="339.7441" x2="339.7441" y1="753" y2="788"/><polygon fill="#0F172A" points="335.7441,778,339.7441,788,343.7441,778,339.7441,782" style="stroke:#0F172A;stroke-width:1;"/><line style="stroke:#0F172A;stroke-width:1;" x1="179.5718" x2="169.5718" y1="925" y2="925"/><line style="stroke:#0F172A;stroke-width:1;" x1="169.5718" x2="169.5718" y1="925" y2="947"/><polygon fill="#0F172A" points="165.5718,937,169.5718,947,173.5718,937,169.5718,941" style="stroke:#0F172A;stroke-width:1;"/><line style="stroke:#0F172A;stroke-width:1;" x1="499.9165" x2="509.9165" y1="925" y2="925"/><line style="stroke:#0F172A;stroke-width:1;" x1="509.9165" x2="509.9165" y1="925" y2="947"/><polygon fill="#0F172A" points="505.9165,937,509.9165,947,513.9165,937,509.9165,941" style="stroke:#0F172A;stroke-width:1;"/><line style="stroke:#0F172A;stroke-width:1;" x1="169.5718" x2="169.5718" y1="981" y2="1013"/><line style="stroke:#0F172A;stroke-width:1;" x1="169.5718" x2="327.7441" y1="1013" y2="1013"/><polygon fill="#0F172A" points="317.7441,1009,327.7441,1013,317.7441,1017,321.7441,1013" style="stroke:#0F172A;stroke-width:1;"/><line style="stroke:#0F172A;stroke-width:1;" x1="509.9165" x2="509.9165" y1="995" y2="1013"/><line style="stroke:#0F172A;stroke-width:1;" x1="509.9165" x2="351.7441" y1="1013" y2="1013"/><polygon fill="#0F172A" points="361.7441,1009,351.7441,1013,361.7441,1017,357.7441,1013" style="stroke:#0F172A;stroke-width:1;"/><line style="stroke:#0F172A;stroke-width:1;" x1="339.7441" x2="339.7441" y1="878" y2="913"/><polygon fill="#0F172A" points="335.7441,903,339.7441,913,343.7441,903,339.7441,907" style="stroke:#0F172A;stroke-width:1;"/><line style="stroke:#0F172A;stroke-width:1;" x1="339.7441" x2="339.7441" y1="1025" y2="1077"/><polygon fill="#0F172A" points="335.7441,1067,339.7441,1077,343.7441,1067,339.7441,1071" style="stroke:#0F172A;stroke-width:1;"/><line style="stroke:#0F172A;stroke-width:1;" x1="1067.3347" x2="1067.3347" y1="732" y2="767"/><polygon fill="#0F172A" points="1063.3347,757,1067.3347,767,1071.3347,757,1067.3347,761" style="stroke:#0F172A;stroke-width:1;"/><line style="stroke:#0F172A;stroke-width:1;" x1="1067.3347" x2="1067.3347" y1="659" y2="684"/><polygon fill="#0F172A" points="1063.3347,674,1067.3347,684,1071.3347,674,1067.3347,678" style="stroke:#0F172A;stroke-width:1;"/><line style="stroke:#0F172A;stroke-width:1;" x1="1165.6179" x2="1217.6311" y1="647" y2="647"/><polygon fill="#0F172A" points="1213.6311,723.5,1217.6311,733.5,1221.6311,723.5,1217.6311,727.5" style="stroke:#0F172A;stroke-width:1;"/><line style="stroke:#0F172A;stroke-width:1;" x1="1217.6311" x2="1217.6311" y1="647" y2="820"/><line style="stroke:#0F172A;stroke-width:1;" x1="1217.6311" x2="1067.3347" y1="820" y2="820"/><line style="stroke:#0F172A;stroke-width:1;" x1="1067.3347" x2="1067.3347" y1="820" y2="855"/><polygon fill="#0F172A" points="1063.3347,845,1067.3347,855,1071.3347,845,1067.3347,849" style="stroke:#0F172A;stroke-width:1;"/><line style="stroke:#0F172A;stroke-width:1;" x1="1067.3347" x2="1067.3347" y1="952" y2="987"/><polygon fill="#0F172A" points="1063.3347,977,1067.3347,987,1071.3347,977,1067.3347,981" style="stroke:#0F172A;stroke-width:1;"/><line style="stroke:#0F172A;stroke-width:1;" x1="1067.3347" x2="1067.3347" y1="879" y2="904"/><polygon fill="#0F172A" points="1063.3347,894,1067.3347,904,1071.3347,894,1067.3347,898" style="stroke:#0F172A;stroke-width:1;"/><line style="stroke:#0F172A;stroke-width:1;" x1="1199.8557" x2="1224.2927" y1="867" y2="867"/><polygon fill="#0F172A" points="1220.2927,943.5,1224.2927,953.5,1228.2927,943.5,1224.2927,947.5" style="stroke:#0F172A;stroke-width:1;"/><line style="stroke:#0F172A;stroke-width:1;" x1="1224.2927" x2="1224.2927" y1="867" y2="1040"/><line style="stroke:#0F172A;stroke-width:1;" x1="1224.2927" x2="1067.3347" y1="1040" y2="1040"/><line style="stroke:#0F172A;stroke-width:1;" x1="1067.3347" x2="1067.3347" y1="1040" y2="1126"/><polygon fill="#0F172A" points="1063.3347,1116,1067.3347,1126,1071.3347,1116,1067.3347,1120" style="stroke:#0F172A;stroke-width:1;"/><line style="stroke:#0F172A;stroke-width:1;" x1="1067.3347" x2="1067.3347" y1="1291" y2="1312.5"/><polygon fill="#0F172A" points="1063.3347,1302.5,1067.3347,1312.5,1071.3347,1302.5,1067.3347,1306.5" style="stroke:#0F172A;stroke-width:1;"/><line style="stroke:#0F172A;stroke-width:1;" x1="1067.3347" x2="1067.3347" y1="1218" y2="1243"/><polygon fill="#0F172A" points="1063.3347,1233,1067.3347,1243,1071.3347,1233,1067.3347,1237" style="stroke:#0F172A;stroke-width:1;"/><line style="stroke:#0F172A;stroke-width:1;" x1="1204.9177" x2="1228.5583" y1="1206" y2="1206"/><polygon fill="#0F172A" points="1224.5583,1282.5,1228.5583,1292.5,1232.5583,1282.5,1228.5583,1286.5" style="stroke:#0F172A;stroke-width:1;"/><line style="stroke:#0F172A;stroke-width:1;" x1="1228.5583" x2="1228.5583" y1="1206" y2="1356.5"/><line style="stroke:#0F172A;stroke-width:1;" x1="1228.5583" x2="1067.3347" y1="1356.5" y2="1356.5"/><line style="stroke:#0F172A;stroke-width:1;" x1="1067.3347" x2="1067.3347" y1="1356.5" y2="1376.5"/><polygon fill="#0F172A" points="1063.3347,1366.5,1067.3347,1376.5,1071.3347,1366.5,1067.3347,1370.5" style="stroke:#0F172A;stroke-width:1;"/><line style="stroke:#0F172A;stroke-width:1;" x1="1067.3347" x2="1067.3347" y1="1174" y2="1194"/><polygon fill="#0F172A" points="1063.3347,1184,1067.3347,1194,1071.3347,1184,1067.3347,1188" style="stroke:#0F172A;stroke-width:1;"/><line style="stroke:#0F172A;stroke-width:1;" x1="944.907" x2="903.5493" y1="1388.5" y2="1388.5"/><line style="stroke:#0F172A;stroke-width:1;" x1="903.5493" x2="903.5493" y1="1388.5" y2="1410.5"/><polygon fill="#0F172A" points="899.5493,1400.5,903.5493,1410.5,907.5493,1400.5,903.5493,1404.5" style="stroke:#0F172A;stroke-width:1;"/><line style="stroke:#0F172A;stroke-width:1;" x1="1189.7625" x2="1231.1201" y1="1388.5" y2="1388.5"/><line style="stroke:#0F172A;stroke-width:1;" x1="1231.1201" x2="1231.1201" y1="1388.5" y2="1410.5"/><polygon fill="#0F172A" points="1227.1201,1400.5,1231.1201,1410.5,1235.1201,1400.5,1231.1201,1404.5" style="stroke:#0F172A;stroke-width:1;"/><line style="stroke:#0F172A;stroke-width:1;" x1="903.5493" x2="903.5493" y1="1472.5" y2="1490.5"/><line style="stroke:#0F172A;stroke-width:1;" x1="903.5493" x2="1055.3347" y1="1490.5" y2="1490.5"/><polygon fill="#0F172A" points="1045.3347,1486.5,1055.3347,1490.5,1045.3347,1494.5,1049.3347,1490.5" style="stroke:#0F172A;stroke-width:1;"/><line style="stroke:#0F172A;stroke-width:1;" x1="1231.1201" x2="1231.1201" y1="1444.5" y2="1490.5"/><line style="stroke:#0F172A;stroke-width:1;" x1="1231.1201" x2="1079.3347" y1="1490.5" y2="1490.5"/><polygon fill="#0F172A" points="1089.3347,1486.5,1079.3347,1490.5,1089.3347,1494.5,1085.3347,1490.5" style="stroke:#0F172A;stroke-width:1;"/><line style="stroke:#0F172A;stroke-width:1;" x1="1067.3347" x2="1067.3347" y1="1502.5" y2="1522.5"/><polygon fill="#0F172A" points="1063.3347,1512.5,1067.3347,1522.5,1071.3347,1512.5,1067.3347,1516.5" style="stroke:#0F172A;stroke-width:1;"/><line style="stroke:#0F172A;stroke-width:1;" x1="1067.3347" x2="1067.3347" y1="1640.5" y2="1660.5"/><polygon fill="#0F172A" points="1063.3347,1650.5,1067.3347,1660.5,1071.3347,1650.5,1067.3347,1654.5" style="stroke:#0F172A;stroke-width:1;"/><line style="stroke:#0F172A;stroke-width:1;" x1="1067.3347" x2="1067.3347" y1="1694.5" y2="1714.5"/><polygon fill="#0F172A" points="1063.3347,1704.5,1067.3347,1714.5,1071.3347,1704.5,1067.3347,1708.5" style="stroke:#0F172A;stroke-width:1;"/><line style="stroke:#0F172A;stroke-width:1;" x1="1067.3347" x2="1067.3347" y1="1762.5" y2="1782.5"/><polygon fill="#0F172A" points="1063.3347,1772.5,1067.3347,1782.5,1071.3347,1772.5,1067.3347,1776.5" style="stroke:#0F172A;stroke-width:1;"/><line style="stroke:#0F172A;stroke-width:1;" x1="629.3632" x2="339.7441" y1="579" y2="579"/><line style="stroke:#0F172A;stroke-width:1;" x1="339.7441" x2="339.7441" y1="579" y2="635"/><polygon fill="#0F172A" points="335.7441,625,339.7441,635,343.7441,625,339.7441,629" style="stroke:#0F172A;stroke-width:1;"/><line style="stroke:#0F172A;stroke-width:1;" x1="777.7157" x2="1067.3347" y1="579" y2="579"/><line style="stroke:#0F172A;stroke-width:1;" x1="1067.3347" x2="1067.3347" y1="579" y2="635"/><polygon fill="#0F172A" points="1063.3347,625,1067.3347,635,1071.3347,625,1067.3347,629" style="stroke:#0F172A;stroke-width:1;"/><line style="stroke:#0F172A;stroke-width:1;" x1="1067.3347" x2="1067.3347" y1="1816.5" y2="1833.5"/><line style="stroke:#0F172A;stroke-width:1;" x1="1067.3347" x2="703.5394" y1="1833.5" y2="1833.5"/><line style="stroke:#0F172A;stroke-width:1;" x1="703.5394" x2="703.5394" y1="1833.5" y2="2063.5"/><polygon fill="#0F172A" points="699.5394,2053.5,703.5394,2063.5,707.5394,2053.5,703.5394,2057.5" style="stroke:#0F172A;stroke-width:1;"/><line style="stroke:#0F172A;stroke-width:1;" x1="703.5394" x2="703.5394" y1="535" y2="567"/><polygon fill="#0F172A" points="699.5394,557,703.5394,567,707.5394,557,703.5394,561" style="stroke:#0F172A;stroke-width:1;"/><?plantuml-src nLVRRjiu47tNLn3PbnQmawRtjL4iKYTj0tIR84dR5mC1BOriRYXIIrBsUXVzzpsyI9RjeDZaPH4OaSGHENFcp9cHlHEgvePNp2vueLT2pLd9fQNCTYipdj_DZMvKCT5I6_PBcUElw5aKLF96kWzQkI-y8lQ9v9ASoFdzDjVYRsB7BtkBt1YzIhi_Au_VFE-_gRIZzti-bEMRulMkbJO5cMGnU_dgnRDVTopyyMdznOkNnwzUzTR3zhasYWmxVfqvuIInazo9fN1hDcG5Ttp6BLLSyJbLfDpHQNhqU_SeNXNjmWsVIRfst0aBF6m_v7RZVp9s3yHlIrxcVgKVKeA6iN8JHlUi4BpIgjX3YfxJs_9Ppw2_ut7naegtcyKFzsni7JTkrvww_Jkx6T_PzKSMNiqGCC0KMh63YvabioJ6LS7U2rKS8FpHjRTYfT61XOOALagzcgfuSmJNva3C7iNxeQ5Sgrn86hOO7jhbV9oDheWNu9aLi9ggX-O6vzMK3vWpG10-m7VNs45mjI19ZfXG3jkCCr6o9mStoGu1qr-r5Bbmx69opaG16v_Osf35vMy7JvbRa69FrcIVPgEFvFmzonjZi1pUWQLkJ4viAVXKmUAXpeypGj6o9qe_zJXOBGF8yColewYtJd4B46I-cAhFM7quJeqDCY6a8sDPhYkVOF_YhIW60JT2DYQ6S152tGynBZxyw9K7KcdirbY_nYhkyWKJ5YK1okFOI_W4wt2kYK247ENXn68hHLE5ZEgKQK2e2b62jI6zfp7bXlvioEB5dJJsE1qj0vFJIpLt2zPOWiFnoIC25TZ27-x9_6XQJ9KsZyqoW3az-tnsStQA5AjI642DU7rcussi2W_1_-5UWmpAn2oUByYstewtyfTBuggfGnMNGd69tcFm2XwZNcoJvxINMnHGfPUHkfjtU0cwjqhWIH-3tweyEBXcCwc3C4GFMmT0mMwlgTfne4S-wtJTsxB7iy-Yf7oD_TX4Scj5YGRhLpppGiWUZ51z42g4wCmwb8WbjnzWO7LaTqDijO2S9Z0hBfJ53bDrUNNnxVpw_EBB-PUF0_RrylJa9bm5e74rJiu6ptSzi4mtpgBIOepMCgZyd9pTzyKrHdcnQbGoBHl9EfNtLOp18S8vLVsCdqnkph-TRRdneu-ORmZhaFfJ8qh7Fk5IGhj2hKw2RX6JOXb3ZuxpkOy_weUeQcsSRoQb88cMq9YIvvGOza53peQALa5UK1Fe0K5hYt1O0PxaxZvo_O7doMX6fJRn-Afn8PrGCkD_SUzqzAxCxaD_tTJHsR2Hp_lFtJYfQma1_5eNZn9YhUGwUDgUbjmiXAqbNzygp87RfN4dwW2gqaDTRwBrMjcoVtJLu87HIz36i0N9sl_J-Wu7Hlr-vygsaHp67dALRWTGhCtQToumQfhlsjmbhd-7e9vXp3Gj2QOgDe5tZb3B8VMvz-ZTvEhinEi8D2Q0qpypmjMU2PEe1tsJA3oj2GiT2t5FLMXLiNC2gY7IiwGOFzeqvOqZE-xAeIqQ3x57BLAzUzmssKkZ0vkwJX5xsOxSrHhKN7lLSI3tC5JIC8aw1geOmpZ90kH0fonOm0671om04QwWWHNszJTZ55lCM-2Y7w-P4VE5oz8KbmQtKVQWGIxhZOC-yhJPHW-woHb1Pdvc4o7CZZZ3MHpC9bTVJmTi1IOCecc0PbX7o3pt2e-7j62QeSCCRSqPBILsW89pkJceTPpneiWaIW06-WwYZdGwZ8YMm4uNOHQ41n7HR96e5eT8NLCexWfRptbj3pDk86DkNHDcPt1Zn3uIFZx2cEB7P049Y1yR9iixvv3yJSpt0kGfbOK18frcVCRnNQPNsDukH7sOfVr7ztpLP5Osyr6sln2lYdOXrBtTVDlWqwOOPG_-9Ef06B5v6_vmD_oOkwEEqgCDuu-odz8wIprkz5yedNNY4mhCZjBOoFgjS1pVfQpjYEDsAcWROsOxCGuYFDgIHNWKQZPfVr12kDT9VfBIR5ln0-zOv1qgAkTbgMLnkv-bsmSdxgUJVDPsDe01rQSiqDZpDzrV9rTOXOtz4SptXZ4IX8Yz08A8FVeE0tinktIiZ50dE7m6Akshyz2BI_Xe_nS0?></g></svg>