<?plantuml 1.2026.1?><svg xmlns="http://www.w3.org/2000/svg" xmlns:xlink="http://www.w3.org/1999/xlink" contentStyleType="text/css" data-diagram-type="SEQUENCE" height="1301px" preserveAspectRatio="none" style="width:1177px;height:1301px;background:#FCFCFD;" version="1.1" viewBox="0 0 1177 1301" width="1177px" zoomAndPan="magnify"><title>Sequence - opensearch/OpensearchOpensearchClusters</title><defs/><g><rect fill="#FCFCFD" height="1301" style="stroke:none;stroke-width:1;" width="1177" x="0" y="0"/><text fill="#000000" font-family="Helvetica" font-size="14" font-weight="bold" lengthAdjust="spacing" textLength="378.9229" x="396.5586" y="25.7803">Sequence - opensearch/OpensearchOpensearchClusters</text><rect fill="none" height="86" rx="8" ry="8" style="stroke:#CBD5E1;stroke-width:1.5;" width="409.3091" x="735.4272" y="347"/><rect fill="none" height="204" rx="8" ry="8" style="stroke:#CBD5E1;stroke-width:1.5;" width="429.3091" x="725.4272" y="447"/><rect fill="none" height="44" rx="8" ry="8" style="stroke:#CBD5E1;stroke-width:1.5;" width="409.3091" x="735.4272" y="498"/><rect fill="none" height="44" rx="8" ry="8" style="stroke:#CBD5E1;stroke-width:1.5;" width="409.3091" x="735.4272" y="600"/><rect fill="none" height="116" rx="8" ry="8" style="stroke:#CBD5E1;stroke-width:1.5;" width="429.3091" x="725.4272" y="665"/><rect fill="none" height="58" rx="8" ry="8" style="stroke:#CBD5E1;stroke-width:1.5;" width="409.3091" x="735.4272" y="716"/><g class="participant-lifeline" data-entity-uid="part1" data-qualified-name="Kubernetes" id="part1-lifeline"><g><title>Kubernetes</title><rect fill="#000000" fill-opacity="0.00000" height="1180" width="8" x="39.8032" y="114"/><line style="stroke:#94A3B8;stroke-width:0.5;stroke-dasharray:5,5;" x1="43" x2="43" y1="114" y2="1294"/></g></g><g class="participant-lifeline" data-entity-uid="part2" data-qualified-name="Controller" id="part2-lifeline"><g><title>Controller</title><rect fill="#000000" fill-opacity="0.00000" height="1180" width="8" x="326.0776" y="114"/><line style="stroke:#94A3B8;stroke-width:0.5;stroke-dasharray:5,5;" x1="329.7329" x2="329.7329" y1="114" y2="1294"/></g></g><g class="participant-lifeline" data-entity-uid="part3" data-qualified-name="BaseReconciler" id="part3-lifeline"><g><title>BaseReconciler</title><rect fill="#000000" fill-opacity="0.00000" height="1180" width="8" x="564.9038" y="114"/><line style="stroke:#94A3B8;stroke-width:0.5;stroke-dasharray:5,5;" x1="568.8799" x2="568.8799" y1="114" y2="1294"/></g></g><g class="participant-lifeline" data-entity-uid="part4" data-qualified-name="ServiceManager" id="part4-lifeline"><g><title>OSOKServiceManager</title><rect fill="#000000" fill-opacity="0.00000" height="1180" width="8" x="819.6235" y="114"/><line style="stroke:#94A3B8;stroke-width:0.5;stroke-dasharray:5,5;" x1="823.4272" x2="823.4272" y1="114" y2="1294"/></g></g><g class="participant-lifeline" data-entity-uid="part5" data-qualified-name="OCI" id="part5-lifeline"><g><title>OCI</title><rect fill="#000000" fill-opacity="0.00000" height="1180" width="8" x="1111.2915" y="114"/><line style="stroke:#94A3B8;stroke-width:0.5;stroke-dasharray:5,5;" x1="1114.8467" x2="1114.8467" y1="114" y2="1294"/></g></g><g class="participant participant-head" data-entity-uid="part1" data-qualified-name="Kubernetes" id="part1-head"><text fill="#000000" font-family="Helvetica" font-size="14" lengthAdjust="spacing" textLength="71.6064" x="5" y="110.7803">Kubernetes</text><ellipse cx="43.8032" cy="48.5" fill="#E2E8F0" rx="8" ry="8" style="stroke:#0F172A;stroke-width:0.5;"/><path d="M43.8032,56.5 L43.8032,83.5 M30.8032,64.5 L56.8032,64.5 M43.8032,83.5 L30.8032,98.5 M43.8032,83.5 L56.8032,98.5" fill="none" style="stroke:#0F172A;stroke-width:0.5;"/></g><g class="participant participant-head" data-entity-uid="part2" data-qualified-name="Controller" id="part2-head"><rect fill="#E2E8F0" height="28" rx="8" ry="8" style="stroke:#0F172A;stroke-width:0.5;" width="74.6895" x="292.7329" y="85"/><text fill="#0F172A" font-family="Helvetica" font-size="14" lengthAdjust="spacing" textLength="60.6895" x="299.7329" y="102.7803">Controller</text></g><g class="participant participant-head" data-entity-uid="part3" data-qualified-name="BaseReconciler" id="part3-head"><rect fill="#E2E8F0" height="28" rx="8" ry="8" style="stroke:#0F172A;stroke-width:0.5;" width="112.0479" x="512.8799" y="85"/><text fill="#0F172A" font-family="Helvetica" font-size="14" lengthAdjust="spacing" textLength="98.0479" x="519.8799" y="102.7803">BaseReconciler</text></g><g class="participant participant-head" data-entity-uid="part4" data-qualified-name="ServiceManager" id="part4-head"><rect fill="#E2E8F0" height="28" rx="8" ry="8" style="stroke:#0F172A;stroke-width:0.5;" width="156.3926" x="745.4272" y="85"/><text fill="#0F172A" font-family="Helvetica" font-size="14" lengthAdjust="spacing" textLength="142.3926" x="752.4272" y="102.7803">OSOKServiceManager</text></g><g class="participant participant-head" data-entity-uid="part5" data-qualified-name="OCI" id="part5-head"><rect fill="#E2E8F0" height="28" rx="8" ry="8" style="stroke:#0F172A;stroke-width:0.5;" width="38.8896" x="1095.8467" y="85"/><text fill="#0F172A" font-family="Helvetica" font-size="14" lengthAdjust="spacing" textLength="24.8896" x="1102.8467" y="102.7803">OCI</text></g><path d="M504,137 L504,187 A8,8 0 0 0 512,195 L879,195 A8,8 0 0 0 887,187 L887,139 L877,129 L512,129 A8,8 0 0 0 504,137" fill="#FFF7D6" style="stroke:#B45309;stroke-width:0.5;"/><path d="M877,129 L877,135 A4,4 0 0 0 881,139 L887,139 L877,129" fill="#FFF7D6" style="stroke:#B45309;stroke-width:0.5;"/><text fill="#334155" font-family="Helvetica" font-size="14" lengthAdjust="spacing" textLength="111.2891" x="537.7742" y="144.7803">shared resolution:</text><text fill="#334155" font-family="Helvetica" font-size="14" lengthAdjust="spacing" textLength="307.3916" x="537.7742" y="158.7803">shared/diagrams/shared-resolution-sequence.svg</text><text fill="#334155" font-family="Helvetica" font-size="14" lengthAdjust="spacing" textLength="88.7305" x="537.7742" y="172.7803">shared delete:</text><text fill="#334155" font-family="Helvetica" font-size="14" lengthAdjust="spacing" textLength="284.833" x="537.7742" y="186.7803">shared/diagrams/shared-delete-sequence.svg</text><g class="message" data-entity-1="part1" data-entity-2="part2" id="msg1"><polygon fill="#0F172A" points="318.0776,230,328.0776,234,318.0776,238,322.0776,234" style="stroke:#0F172A;stroke-width:1;"/><line style="stroke:#0F172A;stroke-width:1;" x1="43.8032" x2="324.0776" y1="234" y2="234"/><text fill="#000000" font-family="Helvetica" font-size="14" lengthAdjust="spacing" textLength="262.2744" x="50.8032" y="214.7803">enqueue OpensearchOpensearchClusters</text><text fill="#000000" font-family="Helvetica" font-size="14" lengthAdjust="spacing" textLength="56.0273" x="50.8032" y="228.7803">reconcile</text></g><g class="message" data-entity-1="part2" data-entity-2="part3" id="msg2"><polygon fill="#0F172A" points="556.9038,258,566.9038,262,556.9038,266,560.9038,262" style="stroke:#0F172A;stroke-width:1;"/><line style="stroke:#0F172A;stroke-width:1;" x1="330.0776" x2="562.9038" y1="262" y2="262"/><text fill="#000000" font-family="Helvetica" font-size="14" lengthAdjust="spacing" textLength="117.4961" x="337.0776" y="256.7803">Reconcile(request)</text></g><g class="message" data-entity-1="part3" data-entity-2="part4" id="msg3"><polygon fill="#0F172A" points="811.6235,300,821.6235,304,811.6235,308,815.6235,304" style="stroke:#0F172A;stroke-width:1;"/><line style="stroke:#0F172A;stroke-width:1;" x1="568.9038" x2="817.6235" y1="304" y2="304"/><text fill="#000000" font-family="Helvetica" font-size="14" lengthAdjust="spacing" textLength="105.834" x="575.9038" y="284.7803">reconcile desired</text><text fill="#000000" font-family="Helvetica" font-size="14" lengthAdjust="spacing" textLength="203.8818" x="575.9038" y="298.7803">OpensearchOpensearchClusters</text></g><g class="message" data-entity-1="part4" data-entity-2="part5" id="msg4"><polygon fill="#0F172A" points="1103.2915,328,1113.2915,332,1103.2915,336,1107.2915,332" style="stroke:#0F172A;stroke-width:1;"/><line style="stroke:#0F172A;stroke-width:1;" x1="823.6235" x2="1109.2915" y1="332" y2="332"/><text fill="#000000" font-family="Helvetica" font-size="14" lengthAdjust="spacing" textLength="226.4473" x="830.6235" y="326.7803">GetOpensearchOpensearchClusters</text></g><path d="M743.4272,347 L802.1929,347 L802.1929,353 L792.1929,363 L735.4272,363 L735.4272,355 A8,8 0 0 1 743.4272,347" fill="#F8FAFC" style="stroke:#CBD5E1;stroke-width:1.5;"/><rect fill="none" height="86" rx="8" ry="8" style="stroke:#CBD5E1;stroke-width:1.5;" width="409.3091" x="735.4272" y="347"/><text fill="#000000" font-family="Helvetica" font-size="14" font-weight="bold" lengthAdjust="spacing" textLength="21.7656" x="750.4272" y="358.7803">opt</text><text fill="#000000" font-family="Helvetica" font-size="14" font-weight="bold" lengthAdjust="spacing" textLength="135.3516" x="817.1929" y="359.7803">[list lookup fallback]</text><g class="message" data-entity-1="part4" data-entity-2="part5" id="msg5"><polygon fill="#0F172A" points="1103.2915,393,1113.2915,397,1103.2915,401,1107.2915,397" style="stroke:#0F172A;stroke-width:1;"/><line style="stroke:#0F172A;stroke-width:1;" x1="823.6235" x2="1109.2915" y1="397" y2="397"/><text fill="#000000" font-family="Helvetica" font-size="14" lengthAdjust="spacing" textLength="267.668" x="830.6235" y="377.7803">ListOpensearchOpensearchClusters(filters:</text><text fill="#000000" font-family="Helvetica" font-size="14" lengthAdjust="spacing" textLength="143.1719" x="830.6235" y="391.7803">compartment_id, state)</text></g><g class="message" data-entity-1="part5" data-entity-2="part4" id="msg6"><polygon fill="#0F172A" points="834.6235,421,824.6235,425,834.6235,429,830.6235,425" style="stroke:#0F172A;stroke-width:1;"/><line style="stroke:#0F172A;stroke-width:1;stroke-dasharray:2,2;" x1="828.6235" x2="1114.2915" y1="425" y2="425"/><text fill="#000000" font-family="Helvetica" font-size="14" lengthAdjust="spacing" textLength="156.3994" x="840.6235" y="419.7803">matching collection items</text></g><path d="M733.4272,447 L786.7651,447 L786.7651,453 L776.7651,463 L725.4272,463 L725.4272,455 A8,8 0 0 1 733.4272,447" fill="#F8FAFC" style="stroke:#CBD5E1;stroke-width:1.5;"/><rect fill="none" height="204" rx="8" ry="8" style="stroke:#CBD5E1;stroke-width:1.5;" width="429.3091" x="725.4272" y="447"/><text fill="#000000" font-family="Helvetica" font-size="14" font-weight="bold" lengthAdjust="spacing" textLength="16.3379" x="740.4272" y="458.7803">alt</text><text fill="#000000" font-family="Helvetica" font-size="14" font-weight="bold" lengthAdjust="spacing" textLength="135.3447" x="801.7651" y="459.7803">[create or bind path]</text><g class="message" data-entity-1="part4" data-entity-2="part5" id="msg7"><polygon fill="#0F172A" points="1103.2915,479,1113.2915,483,1103.2915,487,1107.2915,483" style="stroke:#0F172A;stroke-width:1;"/><line style="stroke:#0F172A;stroke-width:1;" x1="823.6235" x2="1109.2915" y1="483" y2="483"/><text fill="#000000" font-family="Helvetica" font-size="14" lengthAdjust="spacing" textLength="245.9023" x="830.6235" y="477.7803">CreateOpensearchOpensearchClusters</text></g><path d="M743.4272,498 L809.9722,498 L809.9722,504 L799.9722,514 L735.4272,514 L735.4272,506 A8,8 0 0 1 743.4272,498" fill="#F8FAFC" style="stroke:#CBD5E1;stroke-width:1.5;"/><rect fill="none" height="44" rx="8" ry="8" style="stroke:#CBD5E1;stroke-width:1.5;" width="409.3091" x="735.4272" y="498"/><text fill="#000000" font-family="Helvetica" font-size="14" font-weight="bold" lengthAdjust="spacing" textLength="29.5449" x="750.4272" y="509.7803">loop</text><text fill="#000000" font-family="Helvetica" font-size="14" font-weight="bold" lengthAdjust="spacing" textLength="215.4756" x="824.9722" y="510.7803">[create pending PROVISIONING]</text><g class="message" data-entity-1="part4" data-entity-2="part5" id="msg8"><polygon fill="#0F172A" points="1103.2915,530,1113.2915,534,1103.2915,538,1107.2915,534" style="stroke:#0F172A;stroke-width:1;"/><line style="stroke:#0F172A;stroke-width:1;" x1="823.6235" x2="1109.2915" y1="534" y2="534"/><text fill="#000000" font-family="Helvetica" font-size="14" lengthAdjust="spacing" textLength="226.4473" x="830.6235" y="528.7803">GetOpensearchOpensearchClusters</text></g><line style="stroke:#CBD5E1;stroke-width:1;stroke-dasharray:2,2;" x1="725.4272" x2="1154.7363" y1="550" y2="550"/><text fill="#000000" font-family="Helvetica" font-size="14" font-weight="bold" lengthAdjust="spacing" textLength="137.6484" x="730.4272" y="560.7803">[update or drift path]</text><g class="message" data-entity-1="part4" data-entity-2="part5" id="msg9"><polygon fill="#0F172A" points="1103.2915,581,1113.2915,585,1103.2915,589,1107.2915,585" style="stroke:#0F172A;stroke-width:1;"/><line style="stroke:#0F172A;stroke-width:1;" x1="823.6235" x2="1109.2915" y1="585" y2="585"/><text fill="#000000" font-family="Helvetica" font-size="14" lengthAdjust="spacing" textLength="249.0264" x="830.6235" y="579.7803">UpdateOpensearchOpensearchClusters</text></g><path d="M743.4272,600 L809.9722,600 L809.9722,606 L799.9722,616 L735.4272,616 L735.4272,608 A8,8 0 0 1 743.4272,600" fill="#F8FAFC" style="stroke:#CBD5E1;stroke-width:1.5;"/><rect fill="none" height="44" rx="8" ry="8" style="stroke:#CBD5E1;stroke-width:1.5;" width="409.3091" x="735.4272" y="600"/><text fill="#000000" font-family="Helvetica" font-size="14" font-weight="bold" lengthAdjust="spacing" textLength="29.5449" x="750.4272" y="611.7803">loop</text><text fill="#000000" font-family="Helvetica" font-size="14" font-weight="bold" lengthAdjust="spacing" textLength="190.5381" x="824.9722" y="612.7803">[update pending UPDATING]</text><g class="message" data-entity-1="part4" data-entity-2="part5" id="msg10"><polygon fill="#0F172A" points="1103.2915,632,1113.2915,636,1103.2915,640,1107.2915,636" style="stroke:#0F172A;stroke-width:1;"/><line style="stroke:#0F172A;stroke-width:1;" x1="823.6235" x2="1109.2915" y1="636" y2="636"/><text fill="#000000" font-family="Helvetica" font-size="14" lengthAdjust="spacing" textLength="226.4473" x="830.6235" y="630.7803">GetOpensearchOpensearchClusters</text></g><path d="M733.4272,665 L792.1929,665 L792.1929,671 L782.1929,681 L725.4272,681 L725.4272,673 A8,8 0 0 1 733.4272,665" fill="#F8FAFC" style="stroke:#CBD5E1;stroke-width:1.5;"/><rect fill="none" height="116" rx="8" ry="8" style="stroke:#CBD5E1;stroke-width:1.5;" width="429.3091" x="725.4272" y="665"/><text fill="#000000" font-family="Helvetica" font-size="14" font-weight="bold" lengthAdjust="spacing" textLength="21.7656" x="740.4272" y="676.7803">opt</text><text fill="#000000" font-family="Helvetica" font-size="14" font-weight="bold" lengthAdjust="spacing" textLength="120.5859" x="807.1929" y="677.7803">[delete requested]</text><g class="message" data-entity-1="part4" data-entity-2="part5" id="msg11"><polygon fill="#0F172A" points="1103.2915,697,1113.2915,701,1103.2915,705,1107.2915,701" style="stroke:#0F172A;stroke-width:1;"/><line style="stroke:#0F172A;stroke-width:1;" x1="823.6235" x2="1109.2915" y1="701" y2="701"/><text fill="#000000" font-family="Helvetica" font-size="14" lengthAdjust="spacing" textLength="244.3506" x="830.6235" y="695.7803">DeleteOpensearchOpensearchClusters</text></g><path d="M743.4272,716 L809.9722,716 L809.9722,722 L799.9722,732 L735.4272,732 L735.4272,724 A8,8 0 0 1 743.4272,716" fill="#F8FAFC" style="stroke:#CBD5E1;stroke-width:1.5;"/><rect fill="none" height="58" rx="8" ry="8" style="stroke:#CBD5E1;stroke-width:1.5;" width="409.3091" x="735.4272" y="716"/><text fill="#000000" font-family="Helvetica" font-size="14" font-weight="bold" lengthAdjust="spacing" textLength="29.5449" x="750.4272" y="727.7803">loop</text><text fill="#000000" font-family="Helvetica" font-size="14" font-weight="bold" lengthAdjust="spacing" textLength="213.124" x="824.9722" y="728.7803">[delete confirmation DELETING]</text><g class="message" data-entity-1="part4" data-entity-2="part5" id="msg12"><polygon fill="#0F172A" points="1103.2915,762,1113.2915,766,1103.2915,770,1107.2915,766" style="stroke:#0F172A;stroke-width:1;"/><line style="stroke:#0F172A;stroke-width:1;" x1="823.6235" x2="1109.2915" y1="766" y2="766"/><text fill="#000000" font-family="Helvetica" font-size="14" lengthAdjust="spacing" textLength="242.7852" x="830.6235" y="746.7803">GetOpensearchOpensearchClusters or</text><text fill="#000000" font-family="Helvetica" font-size="14" lengthAdjust="spacing" textLength="225.668" x="830.6235" y="760.7803">ListOpensearchOpensearchClusters</text></g><g class="message" data-entity-1="part4" data-entity-2="part3" id="msg13"><polygon fill="#0F172A" points="579.9038,818,569.9038,822,579.9038,826,575.9038,822" style="stroke:#0F172A;stroke-width:1;"/><line style="stroke:#0F172A;stroke-width:1;stroke-dasharray:2,2;" x1="573.9038" x2="822.6235" y1="822" y2="822"/><text fill="#000000" font-family="Helvetica" font-size="14" lengthAdjust="spacing" textLength="100.7822" x="585.9038" y="802.7803">status=required,</text><text fill="#000000" font-family="Helvetica" font-size="14" lengthAdjust="spacing" textLength="230.7197" x="585.9038" y="816.7803">finalizer=retain-until-confirmed-delete</text></g><g class="message" data-entity-1="part3" data-entity-2="part2" id="msg14"><polygon fill="#0F172A" points="341.0776,860,331.0776,864,341.0776,868,337.0776,864" style="stroke:#0F172A;stroke-width:1;"/><line style="stroke:#0F172A;stroke-width:1;stroke-dasharray:2,2;" x1="335.0776" x2="567.9038" y1="864" y2="864"/><text fill="#000000" font-family="Helvetica" font-size="14" lengthAdjust="spacing" textLength="214.8262" x="347.0776" y="844.7803">requeue on provisioning, updating,</text><text fill="#000000" font-family="Helvetica" font-size="14" lengthAdjust="spacing" textLength="69.2549" x="347.0776" y="858.7803">terminating</text></g><path d="M828,885 L828,1271 A8,8 0 0 0 836,1279 L1160,1279 A8,8 0 0 0 1168,1271 L1168,887 L1158,877 L836,877 A8,8 0 0 0 828,885" fill="#FFF7D6" style="stroke:#B45309;stroke-width:0.5;"/><path d="M1158,877 L1158,883 A4,4 0 0 0 1162,887 L1168,887 L1158,877" fill="#FFF7D6" style="stroke:#B45309;stroke-width:0.5;"/><text fill="#334155" font-family="Helvetica" font-size="14" lengthAdjust="spacing" textLength="101.165" x="834" y="892.7803">shared diagram:</text><text fill="#334155" font-family="Helvetica" font-size="14" lengthAdjust="spacing" textLength="307.3916" x="834" y="906.7803">shared/diagrams/shared-resolution-sequence.svg</text><text fill="#334155" font-family="Helvetica" font-size="14" lengthAdjust="spacing" textLength="143.1992" x="834" y="920.7803">shared delete diagram:</text><text fill="#334155" font-family="Helvetica" font-size="14" lengthAdjust="spacing" textLength="284.833" x="834" y="934.7803">shared/diagrams/shared-delete-sequence.svg</text><text fill="#334155" font-family="Helvetica" font-size="14" lengthAdjust="spacing" textLength="280.9297" x="834" y="948.7803">Start from the shared resolution sequence for</text><text fill="#334155" font-family="Helvetica" font-size="14" lengthAdjust="spacing" textLength="260.7295" x="834" y="962.7803">OCID binding, datasource pagination, and</text><text fill="#334155" font-family="Helvetica" font-size="14" lengthAdjust="spacing" textLength="163.4268" x="834" y="976.7803">create-or-update dispatch.</text><text fill="#334155" font-family="Helvetica" font-size="14" lengthAdjust="spacing" textLength="301.1982" x="834" y="990.7803">Layer the shared delete sequence when finalizer</text><text fill="#334155" font-family="Helvetica" font-size="14" lengthAdjust="spacing" textLength="269.2471" x="834" y="1004.7803">retention, delete confirmation, work-request</text><text fill="#334155" font-family="Helvetica" font-size="14" lengthAdjust="spacing" textLength="199.2334" x="834" y="1018.7803">polling, or Secret cleanup apply.</text><text fill="#334155" font-family="Helvetica" font-size="14" lengthAdjust="spacing" textLength="281.709" x="834" y="1032.7803">archetype batch: Generated service-manager</text><text fill="#334155" font-family="Helvetica" font-size="14" lengthAdjust="spacing" textLength="266.1504" x="834" y="1046.7803">controllers follow the shared resolution and</text><text fill="#334155" font-family="Helvetica" font-size="14" lengthAdjust="spacing" textLength="259.9297" x="834" y="1060.7803">delete sequences with imported waits and</text><text fill="#334155" font-family="Helvetica" font-size="14" lengthAdjust="spacing" textLength="134.6064" x="834" y="1074.7803">controller-local policy.</text><text fill="#334155" font-family="Helvetica" font-size="14" lengthAdjust="spacing" textLength="125.2891" x="834" y="1088.7803">service: opensearch</text><text fill="#334155" font-family="Helvetica" font-size="14" lengthAdjust="spacing" textLength="228.0264" x="834" y="1102.7803">slug: opensearchopensearchclusters</text><text fill="#334155" font-family="Helvetica" font-size="14" lengthAdjust="spacing" textLength="237.3438" x="834" y="1116.7803">kind: OpensearchOpensearchClusters</text><text fill="#334155" font-family="Helvetica" font-size="14" lengthAdjust="spacing" textLength="241.2402" x="834" y="1130.7803">archetype: generated-service-manager</text><text fill="#334155" font-family="Helvetica" font-size="14" lengthAdjust="spacing" textLength="156.4063" x="834" y="1144.7803">status/finalizer: required /</text><text fill="#334155" font-family="Helvetica" font-size="14" lengthAdjust="spacing" textLength="174.3027" x="834" y="1158.7803">retain-until-confirmed-delete</text><text fill="#334155" font-family="Helvetica" font-size="14" lengthAdjust="spacing" textLength="272.3984" x="834" y="1172.7803">requeue: provisioning, updating, terminating</text><text fill="#334155" font-family="Helvetica" font-size="14" lengthAdjust="spacing" textLength="295.6816" x="834" y="1186.7803">provider states: create PROVISIONING; update</text><text fill="#334155" font-family="Helvetica" font-size="14" lengthAdjust="spacing" textLength="192.165" x="834" y="1200.7803">UPDATING; delete DELETING</text><text fill="#334155" font-family="Helvetica" font-size="14" lengthAdjust="spacing" textLength="319.04" x="834" y="1214.7803">mutable/forceNew: display_name / compartment_id</text><text fill="#334155" font-family="Helvetica" font-size="14" lengthAdjust="spacing" textLength="104.3164" x="834" y="1228.7803">open gaps: none</text><text fill="#334155" font-family="Helvetica" font-size="14" lengthAdjust="spacing" textLength="224.9023" x="834" y="1242.7803">Scaffold metadata only; replace with</text><text fill="#334155" font-family="Helvetica" font-size="14" lengthAdjust="spacing" textLength="244.3232" x="834" y="1256.7803">controller-specific runtime states before</text><text fill="#334155" font-family="Helvetica" font-size="14" lengthAdjust="spacing" textLength="66.1445" x="834" y="1270.7803">promotion.</text><?plantuml-src fLPTRzis57tdhxZeNbh0YfCcQLC56x0cNHiqYujwtPE1WYQlR28KgP6KlMpOVz-blYmvjZCiCEB8kfU7vzmlqjyhKt37S_1BBkrQcGLaN7jalhFCkRXVE5iQUMMrTV139kWZUnuICrxgy8iruOxd29zGhp0emNVxJDLV22TdFIDtpguRzEFivEth_afZ0xv_n27BtietsrxMINIDn_pi_FJutPP7tBwndvwUdPoVz-mLlB3Ee8EJDooee16c-4U9HY0aO0iq7haJo_6aUzmyNUdI1tIUBPL4oAmDS_jd3zwtI7yp02w2TGEwZUpMjAqNN-D5Tanc0gF8geARi7jzt-6_eFH2qc5ebU6jCiE0lZlZf_CBiaR8Oc0IStcE9vtfKR8kCfu9zW-hjC7dSeuKvO2UzNZ05H5nLcjqWzVlkSUlAAmHQjlqOZATV9wYMoc1ltB35-XU0FSmV3LOChcwOR4GmAuepKFiqTOwQWc74XnwgykWh4cRLsEf-89owiVrxsJZahHfFlAhHOiWKPFQlQjhyt0b6baLBDi42vAVUZ5A0GtvbmY7Yd5cN2kFRTP6fA7q5BhdboxoyE4L6xh4HSC0fT21aqIlIClC76oDuVg8IFb8uIE6Wyji4QWaFNrPUryMSKBfE9NsuTsIxo70bvdIyNywCyBciJnoDE6xaYFmWGTynGW6aXs2Snx4CWv94GCfOiP11SnzJ1ZZEe1mo6DvEPWhoc71mt8VpQlAzQ1o4boqa6ILSUilNoU_tqnl9dStTn__RqGZMwGn3sKX6xhIgImSvFkjydsQRuFPyltsvVhdtvxBbVvY5TIj0as9ejo7ULtvFKsrmQCgpfIZvCPyNd-u_V0ClXJBcNcg0ZjHstliwCnOagN_CMgEBJQQ4LV3DHsYZbu6hanIcg1qqgZe9igZ1juQ85KKQO2GviBPbVAadX8sgXCOdsQ6oEQqM_nLpqsd5ii0DeFTmxAPRS-Rb4-Yx9gOqq1z39cpEOGbmgFXlJc0C-jYWrzN7Le99hdSszAHiU2BIgyr8-2KeBhv4kkIfgobyaMS0aVibZzGL7kRDUoxZTPBDD0bYr6oQCnKo3lgRWHhw-wJfhHPGKcgk55hJf5Oq6ZHo0sDFruK-k68nNh2y50WtT28JonCkheGHKaCgjmaUPCSqMNTatgjxNfFZABYBHKUrYeiGUM5TH5xpLNmTMWwr4HRmJKGPoM8MRDzshioCQ_BHV_5vacqFK5N9PaUFCuscbDOj6gJRRLrmuoxmDUL7di7nknmnpGjaUvh2EZtG-L3bw3wqF1fEwZx0_gocOQidOANRUwxCPENWSyrZgai1TxXEgrAJFE7xoPUfiSmFADOZ1miU44R6ckGJGNFAAaISf8MAvaQMZzSacW2YLL8wUldoXSeLAO4k1W4sg6c3tCa1XXLvJOMmr5t2VaN?></g></svg>