<?plantuml 1.2026.2?><svg xmlns="http://www.w3.org/2000/svg" xmlns:xlink="http://www.w3.org/1999/xlink" contentStyleType="text/css" data-diagram-type="ACTIVITY" height="2575px" preserveAspectRatio="none" style="width:1253px;height:2575px;background:#FCFCFD;" version="1.1" viewBox="0 0 1253 2575" width="1253px" zoomAndPan="magnify"><title>Activity - lustrefilestorage/LustreFileSystem</title><defs/><g><rect fill="#FCFCFD" height="2575" style="stroke:none;stroke-width:1;" width="1253" x="0" y="0"/><g class="title" data-source-line="10"><text fill="#000000" font-family="Helvetica" font-size="14" font-weight="bold" lengthAdjust="spacing" textLength="292.5371" x="478.8228" y="30.7803">Activity - lustrefilestorage/LustreFileSystem</text></g><ellipse cx="665.8743" cy="55" fill="#1D4ED8" rx="10" ry="10" style="stroke:#222222;stroke-width:1;"/><rect fill="none" height="472" rx="8" ry="8" style="stroke:#000000;stroke-width:1.5;" width="617.3789" x="383.2571" y="75"/><path d="M505.3254,75 L505.3254,82 L495.3254,92 L383.2571,92" fill="none" style="stroke:#000000;stroke-width:1.5;"/><text fill="#000000" font-family="Helvetica" font-size="14" lengthAdjust="spacing" textLength="112.0684" x="386.2571" y="86.7803">Observe and Bind</text><rect fill="#F8FAFC" height="48" rx="8" ry="8" style="stroke:#0F172A;stroke-width:0.5;" width="304.7852" x="513.4817" y="109"/><text fill="#0F172A" font-family="Helvetica" font-size="14" lengthAdjust="spacing" textLength="136.9375" x="523.4817" y="129.7803">Start from shared flow</text><text fill="#0F172A" font-family="Helvetica" font-size="14" lengthAdjust="spacing" textLength="284.7852" x="523.4817" y="143.7803">shared/diagrams/shared-reconcile-activity.svg</text><rect fill="#F8FAFC" height="48" rx="8" ry="8" style="stroke:#0F172A;stroke-width:0.5;" width="302.4609" x="514.6438" y="177"/><text fill="#0F172A" font-family="Helvetica" font-size="14" lengthAdjust="spacing" textLength="282.4609" x="524.6438" y="197.7803">Read desired LustreFileSystem spec, tracked</text><text fill="#0F172A" font-family="Helvetica" font-size="14" lengthAdjust="spacing" textLength="148.6611" x="524.6438" y="211.7803">status, and delete intent</text><polygon fill="#E2E8F0" points="536.4084,245,795.3401,245,807.3401,257,795.3401,269,536.4084,269,524.4084,257,536.4084,245" style="stroke:#1D4ED8;stroke-width:0.5;"/><text fill="#0F172A" font-family="Helvetica" font-size="14" lengthAdjust="spacing" textLength="258.9316" x="536.4084" y="260.7803">"Tracked or explicit OCI identity present?"</text><text fill="#000000" font-family="Helvetica" font-size="14" lengthAdjust="spacing" textLength="21.7861" x="502.6223" y="253.7803">yes</text><text fill="#000000" font-family="Helvetica" font-size="14" lengthAdjust="spacing" textLength="15.5723" x="807.3401" y="253.7803">no</text><rect fill="#F8FAFC" height="48" rx="8" ry="8" style="stroke:#0F172A;stroke-width:0.5;" width="222.3027" x="403.2571" y="279"/><text fill="#0F172A" font-family="Helvetica" font-size="14" lengthAdjust="spacing" textLength="202.3027" x="413.2571" y="299.7803">Get the current OCI resource via</text><text fill="#0F172A" font-family="Helvetica" font-size="14" lengthAdjust="spacing" textLength="130.71" x="413.2571" y="313.7803">GetLustreFileSystem</text><rect fill="#F8FAFC" height="76" rx="8" ry="8" style="stroke:#0F172A;stroke-width:0.5;" width="279.9092" x="677.3855" y="279"/><text fill="#0F172A" font-family="Helvetica" font-size="14" lengthAdjust="spacing" textLength="259.9092" x="687.3855" y="299.7803">Resolve an existing OCI resource through</text><text fill="#0F172A" font-family="Helvetica" font-size="14" lengthAdjust="spacing" textLength="211.627" x="687.3855" y="313.7803">ListLustreFileSystems using filters</text><text fill="#0F172A" font-family="Helvetica" font-size="14" lengthAdjust="spacing" textLength="230.3369" x="687.3855" y="327.7803">availability_domain, compartment_id,</text><text fill="#0F172A" font-family="Helvetica" font-size="14" lengthAdjust="spacing" textLength="170.0234" x="687.3855" y="341.7803">display_name, id (+1 more)</text><rect fill="#F8FAFC" height="62" rx="8" ry="8" style="stroke:#0F172A;stroke-width:0.5;" width="326.5918" x="654.0442" y="375"/><text fill="#0F172A" font-family="Helvetica" font-size="14" lengthAdjust="spacing" textLength="174.2959" x="664.0442" y="395.7803">Create the OCI resource via</text><text fill="#0F172A" font-family="Helvetica" font-size="14" lengthAdjust="spacing" textLength="306.5918" x="664.0442" y="409.7803">CreateLustreFileSystem when no reusable match</text><text fill="#0F172A" font-family="Helvetica" font-size="14" lengthAdjust="spacing" textLength="49.0342" x="664.0442" y="423.7803">is found</text><rect fill="#F8FAFC" height="48" rx="8" ry="8" style="stroke:#0F172A;stroke-width:0.5;" width="286.8955" x="673.8923" y="457"/><text fill="#0F172A" font-family="Helvetica" font-size="14" lengthAdjust="spacing" textLength="266.8955" x="683.8923" y="477.7803">Persist the resolved or created OCI identity</text><text fill="#0F172A" font-family="Helvetica" font-size="14" lengthAdjust="spacing" textLength="63.8135" x="683.8923" y="491.7803">into status</text><polygon fill="#E2E8F0" points="665.8743,511,677.8743,523,665.8743,535,653.8743,523,665.8743,511" style="stroke:#1D4ED8;stroke-width:0.5;"/><polygon fill="#E2E8F0" points="603.698,567,728.0505,567,740.0505,579,728.0505,591,603.698,591,591.698,579,603.698,567" style="stroke:#1D4ED8;stroke-width:0.5;"/><text fill="#0F172A" font-family="Helvetica" font-size="14" lengthAdjust="spacing" textLength="124.3525" x="603.698" y="582.7803">"Delete requested?"</text><text fill="#000000" font-family="Helvetica" font-size="14" lengthAdjust="spacing" textLength="21.7861" x="569.9119" y="575.7803">yes</text><text fill="#000000" font-family="Helvetica" font-size="14" lengthAdjust="spacing" textLength="15.5723" x="740.0505" y="575.7803">no</text><rect fill="none" height="356" rx="8" ry="8" style="stroke:#000000;stroke-width:1.5;" width="644.4814" x="11" y="601"/><path d="M61.4688,601 L61.4688,608 L51.4688,618 L11,618" fill="none" style="stroke:#000000;stroke-width:1.5;"/><text fill="#000000" font-family="Helvetica" font-size="14" lengthAdjust="spacing" textLength="40.4688" x="14" y="612.7803">Delete</text><rect fill="#F8FAFC" height="62" rx="8" ry="8" style="stroke:#0F172A;stroke-width:0.5;" width="321.1025" x="179.1929" y="635"/><text fill="#0F172A" font-family="Helvetica" font-size="14" lengthAdjust="spacing" textLength="286.3574" x="189.1929" y="655.7803">Delete path uses DeleteLustreFileSystem with</text><text fill="#0F172A" font-family="Helvetica" font-size="14" lengthAdjust="spacing" textLength="224.0889" x="189.1929" y="669.7803">required via GetLustreFileSystem or</text><text fill="#0F172A" font-family="Helvetica" font-size="14" lengthAdjust="spacing" textLength="301.1025" x="189.1929" y="683.7803">ListLustreFileSystems to DELETED confirmation</text><rect fill="#F8FAFC" height="62" rx="8" ry="8" style="stroke:#0F172A;stroke-width:0.5;" width="294.6611" x="192.4136" y="732"/><text fill="#0F172A" font-family="Helvetica" font-size="14" lengthAdjust="spacing" textLength="274.6611" x="202.4136" y="752.7803">Confirm deletion via GetLustreFileSystem or</text><text fill="#0F172A" font-family="Helvetica" font-size="14" lengthAdjust="spacing" textLength="248.9785" x="202.4136" y="766.7803">ListLustreFileSystems until OCI reaches</text><text fill="#0F172A" font-family="Helvetica" font-size="14" lengthAdjust="spacing" textLength="64.5723" x="202.4136" y="780.7803">DELETED</text><polygon fill="#E2E8F0" points="191.5718,825,487.9165,825,499.9165,837,487.9165,849,191.5718,849,179.5718,837,191.5718,825" style="stroke:#1D4ED8;stroke-width:0.5;"/><text fill="#0F172A" font-family="Helvetica" font-size="14" lengthAdjust="spacing" textLength="296.3447" x="191.5718" y="840.7803">"Delete cleanup and finalizer release succeed?"</text><text fill="#000000" font-family="Helvetica" font-size="14" lengthAdjust="spacing" textLength="21.7861" x="157.7856" y="833.7803">yes</text><text fill="#000000" font-family="Helvetica" font-size="14" lengthAdjust="spacing" textLength="15.5723" x="499.9165" y="833.7803">no</text><rect fill="#F8FAFC" height="34" rx="8" ry="8" style="stroke:#0F172A;stroke-width:0.5;" width="293.1436" x="23" y="859"/><text fill="#0F172A" font-family="Helvetica" font-size="14" lengthAdjust="spacing" textLength="273.1436" x="33" y="879.7803">Remove the finalizer after delete completion</text><rect fill="#F8FAFC" height="48" rx="8" ry="8" style="stroke:#0F172A;stroke-width:0.5;" width="251.1299" x="384.3516" y="859"/><text fill="#0F172A" font-family="Helvetica" font-size="14" lengthAdjust="spacing" textLength="231.1299" x="394.3516" y="879.7803">Stay blocked until cleanup or finalizer</text><text fill="#0F172A" font-family="Helvetica" font-size="14" lengthAdjust="spacing" textLength="108.9512" x="394.3516" y="893.7803">release succeeds</text><polygon fill="#E2E8F0" points="339.7441,913,351.7441,925,339.7441,937,327.7441,925,339.7441,913" style="stroke:#1D4ED8;stroke-width:0.5;"/><ellipse cx="339.7441" cy="997" fill="none" rx="11" ry="11" style="stroke:#222222;stroke-width:1;"/><ellipse cx="339.7441" cy="997" fill="#222222" rx="6" ry="6" style="stroke:#222222;stroke-width:1;"/><rect fill="none" height="441" rx="8" ry="8" style="stroke:#000000;stroke-width:1.5;" width="392.5713" x="801.7188" y="601"/><path d="M952.5527,601 L952.5527,608 L942.5527,618 L801.7188,618" fill="none" style="stroke:#000000;stroke-width:1.5;"/><text fill="#000000" font-family="Helvetica" font-size="14" lengthAdjust="spacing" textLength="140.834" x="804.7188" y="612.7803">Lifecycle Classification</text><rect fill="#F8FAFC" height="48" rx="8" ry="8" style="stroke:#0F172A;stroke-width:0.5;" width="340.5713" x="821.7188" y="684"/><text fill="#0F172A" font-family="Helvetica" font-size="14" lengthAdjust="spacing" textLength="320.5713" x="831.7188" y="704.7803">Request requeue while OCI remains in CREATING,</text><text fill="#0F172A" font-family="Helvetica" font-size="14" lengthAdjust="spacing" textLength="150.1309" x="831.7188" y="718.7803">UPDATING, DELETING</text><ellipse cx="992.0044" cy="778" fill="none" rx="11" ry="11" style="stroke:#222222;stroke-width:1;"/><ellipse cx="992.0044" cy="778" fill="#222222" rx="6" ry="6" style="stroke:#222222;stroke-width:1;"/><polygon fill="#E2E8F0" points="905.7212,635,1078.2876,635,1090.2876,647,1078.2876,659,905.7212,659,893.7212,647,905.7212,635" style="stroke:#1D4ED8;stroke-width:0.5;"/><text fill="#000000" font-family="Helvetica" font-size="14" lengthAdjust="spacing" textLength="21.7861" x="996.0044" y="669.7803">yes</text><text fill="#0F172A" font-family="Helvetica" font-size="14" lengthAdjust="spacing" textLength="172.5664" x="905.7212" y="650.7803">"OCI state in retryable set?"</text><rect fill="#F8FAFC" height="48" rx="8" ry="8" style="stroke:#0F172A;stroke-width:0.5;" width="293.916" x="845.0464" y="900"/><text fill="#0F172A" font-family="Helvetica" font-size="14" lengthAdjust="spacing" textLength="273.916" x="855.0464" y="920.7803">Return an unsuccessful reconcile result until</text><text fill="#0F172A" font-family="Helvetica" font-size="14" lengthAdjust="spacing" textLength="205.3857" x="855.0464" y="934.7803">OCI reaches ACTIVE, INACTIVE</text><ellipse cx="992.0044" cy="988" fill="none" rx="11" ry="11" style="stroke:#222222;stroke-width:1;"/><ellipse cx="992.0044" cy="988" fill="#222222" rx="6" ry="6" style="stroke:#222222;stroke-width:1;"/><polygon fill="#E2E8F0" points="871.4834,851,1112.5254,851,1124.5254,863,1112.5254,875,871.4834,875,859.4834,863,871.4834,851" style="stroke:#1D4ED8;stroke-width:0.5;"/><text fill="#000000" font-family="Helvetica" font-size="14" lengthAdjust="spacing" textLength="21.7861" x="996.0044" y="885.7803">yes</text><text fill="#0F172A" font-family="Helvetica" font-size="14" lengthAdjust="spacing" textLength="241.042" x="871.4834" y="866.7803">"OCI state is outside success targets?"</text><rect fill="none" height="847" rx="8" ry="8" style="stroke:#000000;stroke-width:1.5;" width="566.7012" x="675.4814" y="1052"/><path d="M841.9014,1052 L841.9014,1059 L831.9014,1069 L675.4814,1069" fill="none" style="stroke:#000000;stroke-width:1.5;"/><text fill="#000000" font-family="Helvetica" font-size="14" lengthAdjust="spacing" textLength="156.4199" x="678.4814" y="1063.7803">Ready and Drift Handling</text><rect fill="#F8FAFC" height="48" rx="8" ry="8" style="stroke:#0F172A;stroke-width:0.5;" width="296.2402" x="843.8843" y="1086"/><text fill="#0F172A" font-family="Helvetica" font-size="14" lengthAdjust="spacing" textLength="276.2402" x="853.8843" y="1106.7803">Compare live OCI state against the imported</text><text fill="#0F172A" font-family="Helvetica" font-size="14" lengthAdjust="spacing" textLength="75.4824" x="853.8843" y="1120.7803">field surface</text><rect fill="#F8FAFC" height="76" rx="8" ry="8" style="stroke:#0F172A;stroke-width:0.5;" width="307.9365" x="838.0361" y="1203"/><text fill="#0F172A" font-family="Helvetica" font-size="14" lengthAdjust="spacing" textLength="282.4473" x="848.0361" y="1223.7803">Reject drift before OCI mutation for force-new</text><text fill="#0F172A" font-family="Helvetica" font-size="14" lengthAdjust="spacing" textLength="158.751" x="848.0361" y="1237.7803">fields availability_domain,</text><text fill="#0F172A" font-family="Helvetica" font-size="14" lengthAdjust="spacing" textLength="287.9365" x="848.0361" y="1251.7803">cluster_placement_group_id, compartment_id,</text><text fill="#0F172A" font-family="Helvetica" font-size="14" lengthAdjust="spacing" textLength="177.7891" x="848.0361" y="1265.7803">file_system_name (+2 more)</text><ellipse cx="992.0044" cy="1310" fill="none" rx="11" ry="11" style="stroke:#222222;stroke-width:1;"/><ellipse cx="992.0044" cy="1310" fill="#222222" rx="6" ry="6" style="stroke:#222222;stroke-width:1;"/><polygon fill="#E2E8F0" points="866.4214,1154,1117.5874,1154,1129.5874,1166,1117.5874,1178,866.4214,1178,854.4214,1166,866.4214,1154" style="stroke:#1D4ED8;stroke-width:0.5;"/><text fill="#000000" font-family="Helvetica" font-size="14" lengthAdjust="spacing" textLength="21.7861" x="996.0044" y="1188.7803">yes</text><text fill="#0F172A" font-family="Helvetica" font-size="14" lengthAdjust="spacing" textLength="251.166" x="866.4214" y="1169.7803">"Force-new or conflicting drift detected?"</text><polygon fill="#E2E8F0" points="881.5767,1363,1102.4321,1363,1114.4321,1375,1102.4321,1387,881.5767,1387,869.5767,1375,881.5767,1363" style="stroke:#1D4ED8;stroke-width:0.5;"/><text fill="#0F172A" font-family="Helvetica" font-size="14" lengthAdjust="spacing" textLength="220.8555" x="881.5767" y="1378.7803">"Supported mutable drift detected?"</text><text fill="#000000" font-family="Helvetica" font-size="14" lengthAdjust="spacing" textLength="21.7861" x="847.7905" y="1371.7803">yes</text><text fill="#000000" font-family="Helvetica" font-size="14" lengthAdjust="spacing" textLength="15.5723" x="1114.4321" y="1371.7803">no</text><rect fill="#F8FAFC" height="76" rx="8" ry="8" style="stroke:#0F172A;stroke-width:0.5;" width="315.6953" x="695.4814" y="1397"/><text fill="#0F172A" font-family="Helvetica" font-size="14" lengthAdjust="spacing" textLength="295.6953" x="705.4814" y="1417.7803">Apply UpdateLustreFileSystem only for mutable</text><text fill="#0F172A" font-family="Helvetica" font-size="14" lengthAdjust="spacing" textLength="228.8193" x="705.4814" y="1431.7803">fields capacity_in_gbs, defined_tags,</text><text fill="#0F172A" font-family="Helvetica" font-size="14" lengthAdjust="spacing" textLength="264.1885" x="705.4814" y="1445.7803">display_name, file_system_description (+5</text><text fill="#0F172A" font-family="Helvetica" font-size="14" lengthAdjust="spacing" textLength="36.5586" x="705.4814" y="1459.7803">more)</text><rect fill="#F8FAFC" height="34" rx="8" ry="8" style="stroke:#0F172A;stroke-width:0.5;" width="199.0059" x="1031.1768" y="1397"/><text fill="#0F172A" font-family="Helvetica" font-size="14" lengthAdjust="spacing" textLength="179.0059" x="1041.1768" y="1417.7803">Skip the no-op mutation path</text><polygon fill="#E2E8F0" points="992.0044,1479,1004.0044,1491,992.0044,1503,980.0044,1491,992.0044,1479" style="stroke:#1D4ED8;stroke-width:0.5;"/><rect fill="#F8FAFC" height="174" rx="8" ry="8" style="stroke:#0F172A;stroke-width:0.5;" width="334.3164" x="824.8462" y="1523"/><text fill="#0F172A" font-family="Helvetica" font-size="14" lengthAdjust="spacing" textLength="164.2061" x="834.8462" y="1543.7803">Run provider helper hooks</text><text fill="#0F172A" font-family="Helvetica" font-size="14" lengthAdjust="spacing" textLength="219.0508" x="834.8462" y="1557.7803">create=tfresource.CreateResource,</text><text fill="#0F172A" font-family="Helvetica" font-size="14" lengthAdjust="spacing" textLength="314.3164" x="834.8462" y="1571.7803">tfresource.WaitForWorkRequestWithErrorHandling</text><text fill="#0F172A" font-family="Helvetica" font-size="14" lengthAdjust="spacing" textLength="258.3164" x="834.8462" y="1585.7803">entity=lustrefilesystem action=CREATED;</text><text fill="#0F172A" font-family="Helvetica" font-size="14" lengthAdjust="spacing" textLength="226.085" x="834.8462" y="1599.7803">update=tfresource.UpdateResource,</text><text fill="#0F172A" font-family="Helvetica" font-size="14" lengthAdjust="spacing" textLength="314.3164" x="834.8462" y="1613.7803">tfresource.WaitForWorkRequestWithErrorHandling</text><text fill="#0F172A" font-family="Helvetica" font-size="14" lengthAdjust="spacing" textLength="258.3164" x="834.8462" y="1627.7803">entity=lustrefilesystem action=UPDATED;</text><text fill="#0F172A" font-family="Helvetica" font-size="14" lengthAdjust="spacing" textLength="216.7334" x="834.8462" y="1641.7803">delete=tfresource.DeleteResource,</text><text fill="#0F172A" font-family="Helvetica" font-size="14" lengthAdjust="spacing" textLength="314.3164" x="834.8462" y="1655.7803">tfresource.WaitForWorkRequestWithErrorHandling</text><text fill="#0F172A" font-family="Helvetica" font-size="14" lengthAdjust="spacing" textLength="289.4609" x="834.8462" y="1669.7803">entity=lustrefilesystem action=DELETED when</text><text fill="#0F172A" font-family="Helvetica" font-size="14" lengthAdjust="spacing" textLength="243.585" x="834.8462" y="1683.7803">the matching field-driven path executes</text><rect fill="#F8FAFC" height="48" rx="8" ry="8" style="stroke:#0F172A;stroke-width:0.5;" width="286.8613" x="848.5737" y="1717"/><text fill="#0F172A" font-family="Helvetica" font-size="14" lengthAdjust="spacing" textLength="266.8613" x="858.5737" y="1737.7803">Return success for the ACTIVE, INACTIVE</text><text fill="#0F172A" font-family="Helvetica" font-size="14" lengthAdjust="spacing" textLength="84.8135" x="858.5737" y="1751.7803">success state</text><rect fill="#F8FAFC" height="48" rx="8" ry="8" style="stroke:#0F172A;stroke-width:0.5;" width="279.1299" x="852.4395" y="1785"/><text fill="#0F172A" font-family="Helvetica" font-size="14" lengthAdjust="spacing" textLength="259.1299" x="862.4395" y="1805.7803">Project required status and finalizer policy</text><text fill="#0F172A" font-family="Helvetica" font-size="14" lengthAdjust="spacing" textLength="174.3027" x="862.4395" y="1819.7803">retain-until-confirmed-delete</text><rect fill="#F8FAFC" height="34" rx="8" ry="8" style="stroke:#0F172A;stroke-width:0.5;" width="313.4189" x="835.2949" y="1853"/><text fill="#0F172A" font-family="Helvetica" font-size="14" lengthAdjust="spacing" textLength="293.4189" x="845.2949" y="1873.7803">Requeue on provisioning, updating, terminating</text><path d="M696.8743,1909 L696.8743,2232 L676.8743,2236 L696.8743,2240 L696.8743,2563 A0,0 0 0 0 696.8743,2563 L1030.6731,2563 A0,0 0 0 0 1030.6731,2563 L1030.6731,1919 L1020.6731,1909 L696.8743,1909 A0,0 0 0 0 696.8743,1909" fill="#FFF7D6" style="stroke:#B45309;stroke-width:0.5;"/><path d="M1020.6731,1909 L1020.6731,1919 L1030.6731,1919 L1020.6731,1909" fill="#FFF7D6" style="stroke:#B45309;stroke-width:0.5;"/><text fill="#334155" font-family="Helvetica" font-size="14" lengthAdjust="spacing" textLength="101.165" x="702.8743" y="1924.7803">shared diagram:</text><text fill="#334155" font-family="Helvetica" font-size="14" lengthAdjust="spacing" textLength="284.7852" x="702.8743" y="1938.7803">shared/diagrams/shared-reconcile-activity.svg</text><text fill="#334155" font-family="Helvetica" font-size="14" lengthAdjust="spacing" textLength="265.3438" x="702.8743" y="1952.7803">Start from the shared reconcile activity and</text><text fill="#334155" font-family="Helvetica" font-size="14" lengthAdjust="spacing" textLength="273.8955" x="702.8743" y="1966.7803">specialize provider-backed CRUD, wait, and</text><text fill="#334155" font-family="Helvetica" font-size="14" lengthAdjust="spacing" textLength="182.875" x="702.8743" y="1980.7803">status-projection details here.</text><text fill="#334155" font-family="Helvetica" font-size="14" lengthAdjust="spacing" textLength="229.5371" x="702.8743" y="1994.7803">Controller-local activity diagrams add</text><text fill="#334155" font-family="Helvetica" font-size="14" lengthAdjust="spacing" textLength="238.8955" x="702.8743" y="2008.7803">list-lookup hints, secret policies, delete</text><text fill="#334155" font-family="Helvetica" font-size="14" lengthAdjust="spacing" textLength="200.0332" x="702.8743" y="2022.7803">handling, and open formal gaps.</text><text fill="#334155" font-family="Helvetica" font-size="14" lengthAdjust="spacing" textLength="281.709" x="702.8743" y="2036.7803">archetype batch: Generated service-manager</text><text fill="#334155" font-family="Helvetica" font-size="14" lengthAdjust="spacing" textLength="291.0469" x="702.8743" y="2050.7803">controllers specialize the shared reconcile path</text><text fill="#334155" font-family="Helvetica" font-size="14" lengthAdjust="spacing" textLength="189.8477" x="702.8743" y="2064.7803">with formal runtime ownership.</text><text fill="#334155" font-family="Helvetica" font-size="14" lengthAdjust="spacing" textLength="150.9512" x="702.8743" y="2078.7803">service: lustrefilestorage</text><text fill="#334155" font-family="Helvetica" font-size="14" lengthAdjust="spacing" textLength="129.9307" x="702.8743" y="2092.7803">slug: lustrefilesystem</text><text fill="#334155" font-family="Helvetica" font-size="14" lengthAdjust="spacing" textLength="141.6064" x="702.8743" y="2106.7803">kind: LustreFileSystem</text><text fill="#334155" font-family="Helvetica" font-size="14" lengthAdjust="spacing" textLength="241.2402" x="702.8743" y="2120.7803">archetype: generated-service-manager</text><text fill="#334155" font-family="Helvetica" font-size="14" lengthAdjust="spacing" textLength="156.4063" x="702.8743" y="2134.7803">status/finalizer: required /</text><text fill="#334155" font-family="Helvetica" font-size="14" lengthAdjust="spacing" textLength="174.3027" x="702.8743" y="2148.7803">retain-until-confirmed-delete</text><text fill="#334155" font-family="Helvetica" font-size="14" lengthAdjust="spacing" textLength="272.3984" x="702.8743" y="2162.7803">requeue: provisioning, updating, terminating</text><text fill="#334155" font-family="Helvetica" font-size="14" lengthAdjust="spacing" textLength="265.3369" x="702.8743" y="2176.7803">provider states: create CREATING; update</text><text fill="#334155" font-family="Helvetica" font-size="14" lengthAdjust="spacing" textLength="192.165" x="702.8743" y="2190.7803">UPDATING; delete DELETING</text><text fill="#334155" font-family="Helvetica" font-size="14" lengthAdjust="spacing" textLength="289.5225" x="702.8743" y="2204.7803">supported drift: capacity_in_gbs, defined_tags,</text><text fill="#334155" font-family="Helvetica" font-size="14" lengthAdjust="spacing" textLength="304.6367" x="702.8743" y="2218.7803">display_name, file_system_description (+5 more)</text><text fill="#334155" font-family="Helvetica" font-size="14" lengthAdjust="spacing" textLength="230.3301" x="702.8743" y="2232.7803">reject before mutate: force-new fields</text><text fill="#334155" font-family="Helvetica" font-size="14" lengthAdjust="spacing" textLength="305.8467" x="702.8743" y="2246.7803">availability_domain, cluster_placement_group_id,</text><text fill="#334155" font-family="Helvetica" font-size="14" lengthAdjust="spacing" textLength="285.9473" x="702.8743" y="2260.7803">compartment_id, file_system_name (+2 more)</text><text fill="#334155" font-family="Helvetica" font-size="14" lengthAdjust="spacing" textLength="144.751" x="702.8743" y="2274.7803">create-only fields: none</text><text fill="#334155" font-family="Helvetica" font-size="14" lengthAdjust="spacing" textLength="66.1445" x="702.8743" y="2288.7803">list lookup:</text><text fill="#334155" font-family="Helvetica" font-size="14" lengthAdjust="spacing" textLength="266.9092" x="702.8743" y="2302.7803">oci_lustre_file_storage_lustre_file_systems</text><text fill="#334155" font-family="Helvetica" font-size="14" lengthAdjust="spacing" textLength="267.6748" x="702.8743" y="2316.7803">filters availability_domain, compartment_id,</text><text fill="#334155" font-family="Helvetica" font-size="14" lengthAdjust="spacing" textLength="170.0234" x="702.8743" y="2330.7803">display_name, id (+1 more)</text><text fill="#334155" font-family="Helvetica" font-size="14" lengthAdjust="spacing" textLength="89.4961" x="702.8743" y="2344.7803">conflicts: none</text><text fill="#334155" font-family="Helvetica" font-size="14" lengthAdjust="spacing" textLength="104.3164" x="702.8743" y="2358.7803">open gaps: none</text><text fill="#334155" font-family="Helvetica" font-size="14" lengthAdjust="spacing" textLength="300.3164" x="702.8743" y="2372.7803">Ready state maps to OCI ACTIVE or INACTIVE.</text><text fill="#334155" font-family="Helvetica" font-size="14" lengthAdjust="spacing" textLength="312.7988" x="702.8743" y="2386.7803">Requeue continues while OCI reports CREATING,</text><text fill="#334155" font-family="Helvetica" font-size="14" lengthAdjust="spacing" textLength="170.3584" x="702.8743" y="2400.7803">UPDATING, or DELETING.</text><text fill="#334155" font-family="Helvetica" font-size="14" lengthAdjust="spacing" textLength="228.7852" x="702.8743" y="2414.7803">Bind-before-create reuses only exact</text><text fill="#334155" font-family="Helvetica" font-size="14" lengthAdjust="spacing" textLength="235.7783" x="702.8743" y="2428.7803">compartment, availability-domain, and</text><text fill="#334155" font-family="Helvetica" font-size="14" lengthAdjust="spacing" textLength="287.1162" x="702.8743" y="2442.7803">display-name matches that remain in ACTIVE,</text><text fill="#334155" font-family="Helvetica" font-size="14" lengthAdjust="spacing" textLength="245.0273" x="702.8743" y="2456.7803">CREATING, UPDATING, or INACTIVE.</text><text fill="#334155" font-family="Helvetica" font-size="14" lengthAdjust="spacing" textLength="189.916" x="702.8743" y="2470.7803">Create, update, and delete are</text><text fill="#334155" font-family="Helvetica" font-size="14" lengthAdjust="spacing" textLength="302.709" x="702.8743" y="2484.7803">work-request-backed, but steady-state readiness</text><text fill="#334155" font-family="Helvetica" font-size="14" lengthAdjust="spacing" textLength="240.3926" x="702.8743" y="2498.7803">is still classified from Lustre file system</text><text fill="#334155" font-family="Helvetica" font-size="14" lengthAdjust="spacing" textLength="87.9238" x="702.8743" y="2512.7803">lifecycle state.</text><text fill="#334155" font-family="Helvetica" font-size="14" lengthAdjust="spacing" textLength="291.0059" x="702.8743" y="2526.7803">Delete completes after GetLustreFileSystem or</text><text fill="#334155" font-family="Helvetica" font-size="14" lengthAdjust="spacing" textLength="288.6543" x="702.8743" y="2540.7803">ListLustreFileSystems returns DELETED or no</text><text fill="#334155" font-family="Helvetica" font-size="14" lengthAdjust="spacing" textLength="157.9785" x="702.8743" y="2554.7803">longer finds the resource.</text><ellipse cx="665.8743" cy="2236" fill="none" rx="11" ry="11" style="stroke:#222222;stroke-width:1;"/><ellipse cx="665.8743" cy="2236" fill="#222222" rx="6" ry="6" style="stroke:#222222;stroke-width:1;"/><line style="stroke:#0F172A;stroke-width:1;" x1="665.8743" x2="665.8743" y1="157" y2="177"/><polygon fill="#0F172A" points="661.8743,167,665.8743,177,669.8743,167,665.8743,171" style="stroke:#0F172A;stroke-width:1;"/><line style="stroke:#0F172A;stroke-width:1;" x1="817.3401" x2="817.3401" y1="355" y2="375"/><polygon fill="#0F172A" points="813.3401,365,817.3401,375,821.3401,365,817.3401,369" style="stroke:#0F172A;stroke-width:1;"/><line style="stroke:#0F172A;stroke-width:1;" x1="817.3401" x2="817.3401" y1="437" y2="457"/><polygon fill="#0F172A" points="813.3401,447,817.3401,457,821.3401,447,817.3401,451" style="stroke:#0F172A;stroke-width:1;"/><line style="stroke:#0F172A;stroke-width:1;" x1="524.4084" x2="514.4084" y1="257" y2="257"/><line style="stroke:#0F172A;stroke-width:1;" x1="514.4084" x2="514.4084" y1="257" y2="279"/><polygon fill="#0F172A" points="510.4084,269,514.4084,279,518.4084,269,514.4084,273" style="stroke:#0F172A;stroke-width:1;"/><line style="stroke:#0F172A;stroke-width:1;" x1="807.3401" x2="817.3401" y1="257" y2="257"/><line style="stroke:#0F172A;stroke-width:1;" x1="817.3401" x2="817.3401" y1="257" y2="279"/><polygon fill="#0F172A" points="813.3401,269,817.3401,279,821.3401,269,817.3401,273" style="stroke:#0F172A;stroke-width:1;"/><line style="stroke:#0F172A;stroke-width:1;" x1="514.4084" x2="514.4084" y1="327" y2="523"/><line style="stroke:#0F172A;stroke-width:1;" x1="514.4084" x2="653.8743" y1="523" y2="523"/><polygon fill="#0F172A" points="643.8743,519,653.8743,523,643.8743,527,647.8743,523" style="stroke:#0F172A;stroke-width:1;"/><line style="stroke:#0F172A;stroke-width:1;" x1="817.3401" x2="817.3401" y1="505" y2="523"/><line style="stroke:#0F172A;stroke-width:1;" x1="817.3401" x2="677.8743" y1="523" y2="523"/><polygon fill="#0F172A" points="687.8743,519,677.8743,523,687.8743,527,683.8743,523" style="stroke:#0F172A;stroke-width:1;"/><line style="stroke:#0F172A;stroke-width:1;" x1="665.8743" x2="665.8743" y1="225" y2="245"/><polygon fill="#0F172A" points="661.8743,235,665.8743,245,669.8743,235,665.8743,239" style="stroke:#0F172A;stroke-width:1;"/><line style="stroke:#0F172A;stroke-width:1;" x1="665.8743" x2="665.8743" y1="65" y2="109"/><polygon fill="#0F172A" points="661.8743,99,665.8743,109,669.8743,99,665.8743,103" style="stroke:#0F172A;stroke-width:1;"/><line style="stroke:#0F172A;stroke-width:1;" x1="339.7441" x2="339.7441" y1="697" y2="732"/><polygon fill="#0F172A" points="335.7441,722,339.7441,732,343.7441,722,339.7441,726" style="stroke:#0F172A;stroke-width:1;"/><line style="stroke:#0F172A;stroke-width:1;" x1="179.5718" x2="169.5718" y1="837" y2="837"/><line style="stroke:#0F172A;stroke-width:1;" x1="169.5718" x2="169.5718" y1="837" y2="859"/><polygon fill="#0F172A" points="165.5718,849,169.5718,859,173.5718,849,169.5718,853" style="stroke:#0F172A;stroke-width:1;"/><line style="stroke:#0F172A;stroke-width:1;" x1="499.9165" x2="509.9165" y1="837" y2="837"/><line style="stroke:#0F172A;stroke-width:1;" x1="509.9165" x2="509.9165" y1="837" y2="859"/><polygon fill="#0F172A" points="505.9165,849,509.9165,859,513.9165,849,509.9165,853" style="stroke:#0F172A;stroke-width:1;"/><line style="stroke:#0F172A;stroke-width:1;" x1="169.5718" x2="169.5718" y1="893" y2="925"/><line style="stroke:#0F172A;stroke-width:1;" x1="169.5718" x2="327.7441" y1="925" y2="925"/><polygon fill="#0F172A" points="317.7441,921,327.7441,925,317.7441,929,321.7441,925" style="stroke:#0F172A;stroke-width:1;"/><line style="stroke:#0F172A;stroke-width:1;" x1="509.9165" x2="509.9165" y1="907" y2="925"/><line style="stroke:#0F172A;stroke-width:1;" x1="509.9165" x2="351.7441" y1="925" y2="925"/><polygon fill="#0F172A" points="361.7441,921,351.7441,925,361.7441,929,357.7441,925" style="stroke:#0F172A;stroke-width:1;"/><line style="stroke:#0F172A;stroke-width:1;" x1="339.7441" x2="339.7441" y1="794" y2="825"/><polygon fill="#0F172A" points="335.7441,815,339.7441,825,343.7441,815,339.7441,819" style="stroke:#0F172A;stroke-width:1;"/><line style="stroke:#0F172A;stroke-width:1;" x1="339.7441" x2="339.7441" y1="937" y2="986"/><polygon fill="#0F172A" points="335.7441,976,339.7441,986,343.7441,976,339.7441,980" style="stroke:#0F172A;stroke-width:1;"/><line style="stroke:#0F172A;stroke-width:1;" x1="992.0044" x2="992.0044" y1="732" y2="767"/><polygon fill="#0F172A" points="988.0044,757,992.0044,767,996.0044,757,992.0044,761" style="stroke:#0F172A;stroke-width:1;"/><line style="stroke:#0F172A;stroke-width:1;" x1="992.0044" x2="992.0044" y1="659" y2="684"/><polygon fill="#0F172A" points="988.0044,674,992.0044,684,996.0044,674,992.0044,678" style="stroke:#0F172A;stroke-width:1;"/><line style="stroke:#0F172A;stroke-width:1;" x1="1090.2876" x2="1172.29" y1="647" y2="647"/><polygon fill="#0F172A" points="1168.29,723.5,1172.29,733.5,1176.29,723.5,1172.29,727.5" style="stroke:#0F172A;stroke-width:1;"/><line style="stroke:#0F172A;stroke-width:1;" x1="1172.29" x2="1172.29" y1="647" y2="816"/><line style="stroke:#0F172A;stroke-width:1;" x1="1172.29" x2="992.0044" y1="816" y2="816"/><line style="stroke:#0F172A;stroke-width:1;" x1="992.0044" x2="992.0044" y1="816" y2="851"/><polygon fill="#0F172A" points="988.0044,841,992.0044,851,996.0044,841,992.0044,845" style="stroke:#0F172A;stroke-width:1;"/><line style="stroke:#0F172A;stroke-width:1;" x1="992.0044" x2="992.0044" y1="948" y2="977"/><polygon fill="#0F172A" points="988.0044,967,992.0044,977,996.0044,967,992.0044,971" style="stroke:#0F172A;stroke-width:1;"/><line style="stroke:#0F172A;stroke-width:1;" x1="992.0044" x2="992.0044" y1="875" y2="900"/><polygon fill="#0F172A" points="988.0044,890,992.0044,900,996.0044,890,992.0044,894" style="stroke:#0F172A;stroke-width:1;"/><line style="stroke:#0F172A;stroke-width:1;" x1="1124.5254" x2="1148.9624" y1="863" y2="863"/><polygon fill="#0F172A" points="1144.9624,939.5,1148.9624,949.5,1152.9624,939.5,1148.9624,943.5" style="stroke:#0F172A;stroke-width:1;"/><line style="stroke:#0F172A;stroke-width:1;" x1="1148.9624" x2="1148.9624" y1="863" y2="1030"/><line style="stroke:#0F172A;stroke-width:1;" x1="1148.9624" x2="992.0044" y1="1030" y2="1030"/><line style="stroke:#0F172A;stroke-width:1;" x1="992.0044" x2="992.0044" y1="1030" y2="1086"/><polygon fill="#0F172A" points="988.0044,1076,992.0044,1086,996.0044,1076,992.0044,1080" style="stroke:#0F172A;stroke-width:1;"/><line style="stroke:#0F172A;stroke-width:1;" x1="992.0044" x2="992.0044" y1="1279" y2="1299"/><polygon fill="#0F172A" points="988.0044,1289,992.0044,1299,996.0044,1289,992.0044,1293" style="stroke:#0F172A;stroke-width:1;"/><line style="stroke:#0F172A;stroke-width:1;" x1="992.0044" x2="992.0044" y1="1178" y2="1203"/><polygon fill="#0F172A" points="988.0044,1193,992.0044,1203,996.0044,1193,992.0044,1197" style="stroke:#0F172A;stroke-width:1;"/><line style="stroke:#0F172A;stroke-width:1;" x1="1129.5874" x2="1155.9727" y1="1166" y2="1166"/><polygon fill="#0F172A" points="1151.9727,1256.5,1155.9727,1266.5,1159.9727,1256.5,1155.9727,1260.5" style="stroke:#0F172A;stroke-width:1;"/><line style="stroke:#0F172A;stroke-width:1;" x1="1155.9727" x2="1155.9727" y1="1166" y2="1343"/><line style="stroke:#0F172A;stroke-width:1;" x1="1155.9727" x2="992.0044" y1="1343" y2="1343"/><line style="stroke:#0F172A;stroke-width:1;" x1="992.0044" x2="992.0044" y1="1343" y2="1363"/><polygon fill="#0F172A" points="988.0044,1353,992.0044,1363,996.0044,1353,992.0044,1357" style="stroke:#0F172A;stroke-width:1;"/><line style="stroke:#0F172A;stroke-width:1;" x1="992.0044" x2="992.0044" y1="1134" y2="1154"/><polygon fill="#0F172A" points="988.0044,1144,992.0044,1154,996.0044,1144,992.0044,1148" style="stroke:#0F172A;stroke-width:1;"/><line style="stroke:#0F172A;stroke-width:1;" x1="869.5767" x2="853.3291" y1="1375" y2="1375"/><line style="stroke:#0F172A;stroke-width:1;" x1="853.3291" x2="853.3291" y1="1375" y2="1397"/><polygon fill="#0F172A" points="849.3291,1387,853.3291,1397,857.3291,1387,853.3291,1391" style="stroke:#0F172A;stroke-width:1;"/><line style="stroke:#0F172A;stroke-width:1;" x1="1114.4321" x2="1130.6797" y1="1375" y2="1375"/><line style="stroke:#0F172A;stroke-width:1;" x1="1130.6797" x2="1130.6797" y1="1375" y2="1397"/><polygon fill="#0F172A" points="1126.6797,1387,1130.6797,1397,1134.6797,1387,1130.6797,1391" style="stroke:#0F172A;stroke-width:1;"/><line style="stroke:#0F172A;stroke-width:1;" x1="853.3291" x2="853.3291" y1="1473" y2="1491"/><line style="stroke:#0F172A;stroke-width:1;" x1="853.3291" x2="980.0044" y1="1491" y2="1491"/><polygon fill="#0F172A" points="970.0044,1487,980.0044,1491,970.0044,1495,974.0044,1491" style="stroke:#0F172A;stroke-width:1;"/><line style="stroke:#0F172A;stroke-width:1;" x1="1130.6797" x2="1130.6797" y1="1431" y2="1491"/><line style="stroke:#0F172A;stroke-width:1;" x1="1130.6797" x2="1004.0044" y1="1491" y2="1491"/><polygon fill="#0F172A" points="1014.0044,1487,1004.0044,1491,1014.0044,1495,1010.0044,1491" style="stroke:#0F172A;stroke-width:1;"/><line style="stroke:#0F172A;stroke-width:1;" x1="992.0044" x2="992.0044" y1="1503" y2="1523"/><polygon fill="#0F172A" points="988.0044,1513,992.0044,1523,996.0044,1513,992.0044,1517" style="stroke:#0F172A;stroke-width:1;"/><line style="stroke:#0F172A;stroke-width:1;" x1="992.0044" x2="992.0044" y1="1697" y2="1717"/><polygon fill="#0F172A" points="988.0044,1707,992.0044,1717,996.0044,1707,992.0044,1711" style="stroke:#0F172A;stroke-width:1;"/><line style="stroke:#0F172A;stroke-width:1;" x1="992.0044" x2="992.0044" y1="1765" y2="1785"/><polygon fill="#0F172A" points="988.0044,1775,992.0044,1785,996.0044,1775,992.0044,1779" style="stroke:#0F172A;stroke-width:1;"/><line style="stroke:#0F172A;stroke-width:1;" x1="992.0044" x2="992.0044" y1="1833" y2="1853"/><polygon fill="#0F172A" points="988.0044,1843,992.0044,1853,996.0044,1843,992.0044,1847" style="stroke:#0F172A;stroke-width:1;"/><line style="stroke:#0F172A;stroke-width:1;" x1="591.698" x2="339.7441" y1="579" y2="579"/><line style="stroke:#0F172A;stroke-width:1;" x1="339.7441" x2="339.7441" y1="579" y2="635"/><polygon fill="#0F172A" points="335.7441,625,339.7441,635,343.7441,625,339.7441,629" style="stroke:#0F172A;stroke-width:1;"/><line style="stroke:#0F172A;stroke-width:1;" x1="740.0505" x2="992.0044" y1="579" y2="579"/><line style="stroke:#0F172A;stroke-width:1;" x1="992.0044" x2="992.0044" y1="579" y2="635"/><polygon fill="#0F172A" points="988.0044,625,992.0044,635,996.0044,625,992.0044,629" style="stroke:#0F172A;stroke-width:1;"/><line style="stroke:#0F172A;stroke-width:1;" x1="992.0044" x2="992.0044" y1="1887" y2="1904"/><line style="stroke:#0F172A;stroke-width:1;" x1="992.0044" x2="665.8743" y1="1904" y2="1904"/><line style="stroke:#0F172A;stroke-width:1;" x1="665.8743" x2="665.8743" y1="1904" y2="2225"/><polygon fill="#0F172A" points="661.8743,2215,665.8743,2225,669.8743,2215,665.8743,2219" style="stroke:#0F172A;stroke-width:1;"/><line style="stroke:#0F172A;stroke-width:1;" x1="665.8743" x2="665.8743" y1="535" y2="567"/><polygon fill="#0F172A" points="661.8743,557,665.8743,567,669.8743,557,665.8743,561" style="stroke:#0F172A;stroke-width:1;"/><?plantuml-src jLXTZzks4dtdho1oNpQejPlDHvjh8oZItKqR84YBJNBpOc11IoERTsLIbwIyTOl-ztk6f6Jv8stwK0H1B94QpfmvSsOOVwzDgvnQIxzIbNtGPYbhrNWIVbXPgF9-wMndgYlRM2V_LPVuKursL5IhhWblh0dlrPhaJzHiAEXIdTxpGVz6ylBvQ54vPn-ozIVrvNTFnryQ6-Y78n_g-hlgsyDTrbNayex5ynVFdlpxO0SVdzUVFNj--UB5Q3sQBwqpvEJbjoBeq91yNGQzqM4h2zbqFZYgTKC-MAUMTF4kldc3Dn-sFj1w757_tUz2da3mPQtgabV67kV8fQntNWxlAgtMrbH7GD1JUba_6MqOMxoidbFrShVuveHX7vGBX_jfi3_iMwW3gt-8-Ab0mC1AMoCV_Rpmv3OabQda3zfKZn3-z0FlahMpaMIEAbatzc5kqiC5N5i2CN-HdWj7fJKbC2rw3C_zPZaJqrjI5MZaDPiuX5xwbig930xuK0NZGONEJw8d5JKKI6eJo8IPqBKyU_GnRPI8Xtvj6rtg87--UYjrXJsSjzQHny_l7psMOKL6dct9FnRJ7odmiomxvx0Sly5EsxcIv4QhkS6EG-TcWb1IyipOnno6jqt422Th7xZazgo45VAxNCtDEwmUclAoyx58THF8-RbH6wKRjT0DdBwhx5ffCv6bNNDMrl3mJbUJkQcqRnkrlJCepmc2b6VVNCgrTVGOm5uvKe5YMCVXfCKZk1yO4sEnkVDgWK9Pgr32P-t1Nh0JPd-1VuWWsdKfw8Xt6IrMUt3ZGnEiJ5a3N72u1i5YggvJ-XpzhqFbKNMGaX7zqiv8klnHgy8AY96NwSLn73h0QxOTQOMGvOa4mkqlfGDUNz-yk_buSmtKJQqTW80p36jwJFHZ__w-yGxWD3afgbmHyfqFc-rXKpQaJDT6jjVQg0OAw_0DNeDtlYjBEi8DH5pRJKhxxXjLWrPznJ2Dakzx34P1R-MYiR60aekz0qZlO8jXtNDWb5WeQ3ioEShXErrJkOKzUTKextMDDi8hdDKOCgF1FE62HeZ1RIF_F8NZ02DZ4dCw0cS1RKQJwyIpXQlRczSVtxx_4KNowPVhz3Db5BzcsT7ezU7fNjekU30unUV11UMM5Fon7w5pXWk-CtbhtJLo43gk3hJ61ENSZD8jNrzzVFkVcuby-pxzsdFeZp5kh8xRI81hf-iWVyBF1aeHg-4gwW79HcyI02a4jMGKKeNgTMjTOEciDJKLOdArAYdpx8s581I67c81WzXGpAXSLJoi0blAS8fY_yNxl6b1DGGd7h_kGamgjCBntsGx7-tbAKsRcv8RCBax25b9KTgu4ROiSCU2nstwpiSoYg87mNlQ2zvXJZzqROez-iLa-lEeNhTjivMVskgKC5g3DGuhsng2AbMhIWv8cxlb0gq94v4sLDq5jVH74Zts7pslTBgDW9rzys9kSXpZahpNRKoZiOLjT_Yo_lLLDxtjyCBP3IZhv8gQbl-nzXwgaZJvLQXxyJzFkd-R7-7VQEspqXZat6VhxdEDVOQCtc28SptjvYO9-wlHr9G0ugvkpQjOTz2nEMIZEZWxGVlFdHqBFPwTX6vyTbBKV-xilbbm0uNnLUwSgQU3A0Mujw6KEGm8L7Q1_6mGaLvgc67yyQ50p7k5IINERTZPM8H3ZqjDzg1Nj1OLlMN93gYs8afHaHiQXhA4qonhAhJKPYfvn0JV9p9cCVv2ZQvXbnzcqAX4lbXpF85BfvUh8F8ac8U_gVXRmw0OZPGCGZQs4zHX-aQGWYT37SCSs5yiqlHtTVlfUY8VaDP9sXgXATe46HTGnNWq7kNYw5oWfGTdcmOMqFvKipkeTroggX8DcZass7jqH6GseDWzeSH2WbbJh7v6LAmoRzAaQbkAchY6wQLg_RbG3dqWR5l2_0sQJ350u7uIvoSUjJMKSwqCBYDEb8DpNevYFWaGiqlmxDEVvZZZa4dx0FD-fTjpaUrFZoy-mZVTSkzzklxWzbDDZqRpNGnJkUozBmwzJz1V38oSxWXx8VwKbIBtz-dNC58C0XZhmq_pE3hC0RFq7Ob-6fZrqr0_50W_z8lO9wP_8UtYgvKzDIZ44miszykevGXkQ9D99xmuFVb_kKcAWoOflzmZHGAbICqi7ZT5Qp4KgIqJjQV2blekaU0ksKhqs7-NHbcHBopoQ-uhuilN5T4F7xr3iMIuLl9pceFIVBF6QnxGUUH8yiZZIo-Lvw8NCwuSRQ3dUoCYvzZlvaEn6mzXf2V3kU1xRf5oLMGkyQK8nY9wz2iqOWpzP0-2eeU0vIU7NSHanBO0As6bGXvOULxDWYy6l-IUNxlWKWFFPK1xDs68WNX04olodIhBuKGkkW3e6C4Y8GWR5PZilT3SKNJ3etuQo_aUpmASoZsIIMOTQ8OPFbev5zTxzma4bQuPfoz3ulHToCK6w8VR5e8rLZJMG3suaLL-k6d6PisD9_wVp_y1?></g></svg>