<?plantuml 1.2026.1?><svg xmlns="http://www.w3.org/2000/svg" xmlns:xlink="http://www.w3.org/1999/xlink" contentStyleType="text/css" data-diagram-type="SEQUENCE" height="2118px" preserveAspectRatio="none" style="width:1495px;height:2118px;background:#FCFCFD;" version="1.1" viewBox="0 0 1495 2118" width="1495px" zoomAndPan="magnify"><title>Sequence - networkfirewall/NetworkFirewallNetworkFirewallPolicyDecryptionRule</title><defs/><g><rect fill="#FCFCFD" height="2118" style="stroke:none;stroke-width:1;" width="1495" x="0" y="0"/><text fill="#000000" font-family="Helvetica" font-size="14" font-weight="bold" lengthAdjust="spacing" textLength="543.8193" x="480.7446" y="25.7803">Sequence - networkfirewall/NetworkFirewallNetworkFirewallPolicyDecryptionRule</text><rect fill="none" height="290" rx="8" ry="8" style="stroke:#CBD5E1;stroke-width:1.5;" width="891.6533" x="572.8047" y="356"/><rect fill="none" height="146" rx="8" ry="8" style="stroke:#CBD5E1;stroke-width:1.5;" width="557.6265" x="896.8315" y="465"/><rect fill="none" height="44" rx="8" ry="8" style="stroke:#CBD5E1;stroke-width:1.5;" width="537.6265" x="906.8315" y="516"/><rect fill="none" height="868" rx="8" ry="8" style="stroke:#CBD5E1;stroke-width:1.5;" width="927.8218" x="552.8047" y="660"/><rect fill="none" height="302" rx="8" ry="8" style="stroke:#CBD5E1;stroke-width:1.5;" width="891.6533" x="562.8047" y="683"/><rect fill="none" height="72" rx="8" ry="8" style="stroke:#CBD5E1;stroke-width:1.5;" width="537.6265" x="906.8315" y="804"/><rect fill="none" height="88" rx="8" ry="8" style="stroke:#CBD5E1;stroke-width:1.5;" width="510.4194" x="572.8047" y="890"/><rect fill="none" height="392" rx="8" ry="8" style="stroke:#CBD5E1;stroke-width:1.5;" width="907.8218" x="562.8047" y="1087"/><rect fill="none" height="44" rx="8" ry="8" style="stroke:#CBD5E1;stroke-width:1.5;" width="510.4194" x="572.8047" y="1186"/><rect fill="none" height="130" rx="8" ry="8" style="stroke:#CBD5E1;stroke-width:1.5;" width="557.6265" x="896.8315" y="1244"/><rect fill="none" height="44" rx="8" ry="8" style="stroke:#CBD5E1;stroke-width:1.5;" width="537.6265" x="906.8315" y="1323"/><g class="participant-lifeline" data-entity-uid="part1" data-qualified-name="Kubernetes" id="part1-lifeline"><g><title>Kubernetes</title><rect fill="#000000" fill-opacity="0.00000" height="1997" width="8" x="39.8032" y="114"/><line style="stroke:#94A3B8;stroke-width:0.5;stroke-dasharray:5,5;" x1="43" x2="43" y1="114" y2="2111"/></g></g><g class="participant-lifeline" data-entity-uid="part2" data-qualified-name="Controller" id="part2-lifeline"><g><title>Controller</title><rect fill="#000000" fill-opacity="0.00000" height="1997" width="8" x="396.0024" y="114"/><line style="stroke:#94A3B8;stroke-width:0.5;stroke-dasharray:5,5;" x1="399.6577" x2="399.6577" y1="114" y2="2111"/></g></g><g class="participant-lifeline" data-entity-uid="part3" data-qualified-name="BaseReconciler" id="part3-lifeline"><g><title>BaseReconciler</title><rect fill="#000000" fill-opacity="0.00000" height="1997" width="8" x="634.8286" y="114"/><line style="stroke:#94A3B8;stroke-width:0.5;stroke-dasharray:5,5;" x1="638.8047" x2="638.8047" y1="114" y2="2111"/></g></g><g class="participant-lifeline" data-entity-uid="part4" data-qualified-name="ServiceManager" id="part4-lifeline"><g><title>OSOKServiceManager</title><rect fill="#000000" fill-opacity="0.00000" height="1997" width="8" x="991.0278" y="114"/><line style="stroke:#94A3B8;stroke-width:0.5;stroke-dasharray:5,5;" x1="994.8315" x2="994.8315" y1="114" y2="2111"/></g></g><g class="participant-lifeline" data-entity-uid="part5" data-qualified-name="OCI" id="part5-lifeline"><g><title>OCI</title><rect fill="#000000" fill-opacity="0.00000" height="1997" width="8" x="1411.0132" y="114"/><line style="stroke:#94A3B8;stroke-width:0.5;stroke-dasharray:5,5;" x1="1414.5684" x2="1414.5684" y1="114" y2="2111"/></g></g><g class="participant participant-head" data-entity-uid="part1" data-qualified-name="Kubernetes" id="part1-head"><text fill="#000000" font-family="Helvetica" font-size="14" lengthAdjust="spacing" textLength="71.6064" x="5" y="110.7803">Kubernetes</text><ellipse cx="43.8032" cy="48.5" fill="#E2E8F0" rx="8" ry="8" style="stroke:#0F172A;stroke-width:0.5;"/><path d="M43.8032,56.5 L43.8032,83.5 M30.8032,64.5 L56.8032,64.5 M43.8032,83.5 L30.8032,98.5 M43.8032,83.5 L56.8032,98.5" fill="none" style="stroke:#0F172A;stroke-width:0.5;"/></g><g class="participant participant-head" data-entity-uid="part2" data-qualified-name="Controller" id="part2-head"><rect fill="#E2E8F0" height="28" rx="8" ry="8" style="stroke:#0F172A;stroke-width:0.5;" width="74.6895" x="362.6577" y="85"/><text fill="#0F172A" font-family="Helvetica" font-size="14" lengthAdjust="spacing" textLength="60.6895" x="369.6577" y="102.7803">Controller</text></g><g class="participant participant-head" data-entity-uid="part3" data-qualified-name="BaseReconciler" id="part3-head"><rect fill="#E2E8F0" height="28" rx="8" ry="8" style="stroke:#0F172A;stroke-width:0.5;" width="112.0479" x="582.8047" y="85"/><text fill="#0F172A" font-family="Helvetica" font-size="14" lengthAdjust="spacing" textLength="98.0479" x="589.8047" y="102.7803">BaseReconciler</text></g><g class="participant participant-head" data-entity-uid="part4" data-qualified-name="ServiceManager" id="part4-head"><rect fill="#E2E8F0" height="28" rx="8" ry="8" style="stroke:#0F172A;stroke-width:0.5;" width="156.3926" x="916.8315" y="85"/><text fill="#0F172A" font-family="Helvetica" font-size="14" lengthAdjust="spacing" textLength="142.3926" x="923.8315" y="102.7803">OSOKServiceManager</text></g><g class="participant participant-head" data-entity-uid="part5" data-qualified-name="OCI" id="part5-head"><rect fill="#E2E8F0" height="28" rx="8" ry="8" style="stroke:#0F172A;stroke-width:0.5;" width="38.8896" x="1395.5684" y="85"/><text fill="#0F172A" font-family="Helvetica" font-size="14" lengthAdjust="spacing" textLength="24.8896" x="1402.5684" y="102.7803">OCI</text></g><path d="M574,137 L574,187 A8,8 0 0 0 582,195 L1051,195 A8,8 0 0 0 1059,187 L1059,139 L1049,129 L582,129 A8,8 0 0 0 574,137" fill="#FFF7D6" style="stroke:#B45309;stroke-width:0.5;"/><path d="M1049,129 L1049,135 A4,4 0 0 0 1053,139 L1059,139 L1049,129" fill="#FFF7D6" style="stroke:#B45309;stroke-width:0.5;"/><text fill="#334155" font-family="Helvetica" font-size="14" lengthAdjust="spacing" textLength="111.2891" x="658.5139" y="144.7803">shared resolution:</text><text fill="#334155" font-family="Helvetica" font-size="14" lengthAdjust="spacing" textLength="307.3916" x="658.5139" y="158.7803">shared/diagrams/shared-resolution-sequence.svg</text><text fill="#334155" font-family="Helvetica" font-size="14" lengthAdjust="spacing" textLength="88.7305" x="658.5139" y="172.7803">shared delete:</text><text fill="#334155" font-family="Helvetica" font-size="14" lengthAdjust="spacing" textLength="284.833" x="658.5139" y="186.7803">shared/diagrams/shared-delete-sequence.svg</text><g class="message" data-entity-1="part1" data-entity-2="part2" id="msg1"><polygon fill="#0F172A" points="388.0024,244,398.0024,248,388.0024,252,392.0024,248" style="stroke:#0F172A;stroke-width:1;"/><line style="stroke:#0F172A;stroke-width:1;" x1="43.8032" x2="394.0024" y1="248" y2="248"/><text fill="#000000" font-family="Helvetica" font-size="14" lengthAdjust="spacing" textLength="54.5029" x="50.8032" y="214.7803">enqueue</text><text fill="#000000" font-family="Helvetica" font-size="14" lengthAdjust="spacing" textLength="332.1992" x="50.8032" y="228.7803">NetworkFirewallNetworkFirewallPolicyDecryptionRule</text><text fill="#000000" font-family="Helvetica" font-size="14" lengthAdjust="spacing" textLength="56.0273" x="50.8032" y="242.7803">reconcile</text></g><g class="message" data-entity-1="part2" data-entity-2="part3" id="msg2"><polygon fill="#0F172A" points="626.8286,272,636.8286,276,626.8286,280,630.8286,276" style="stroke:#0F172A;stroke-width:1;"/><line style="stroke:#0F172A;stroke-width:1;" x1="400.0024" x2="632.8286" y1="276" y2="276"/><text fill="#000000" font-family="Helvetica" font-size="14" lengthAdjust="spacing" textLength="117.4961" x="407.0024" y="270.7803">Reconcile(request)</text></g><g class="message" data-entity-1="part3" data-entity-2="part4" id="msg3"><polygon fill="#0F172A" points="983.0278,314,993.0278,318,983.0278,322,987.0278,318" style="stroke:#0F172A;stroke-width:1;"/><line style="stroke:#0F172A;stroke-width:1;" x1="638.8286" x2="989.0278" y1="318" y2="318"/><text fill="#000000" font-family="Helvetica" font-size="14" lengthAdjust="spacing" textLength="105.834" x="645.8286" y="298.7803">reconcile desired</text><text fill="#000000" font-family="Helvetica" font-size="14" lengthAdjust="spacing" textLength="332.1992" x="645.8286" y="312.7803">NetworkFirewallNetworkFirewallPolicyDecryptionRule</text></g><path d="M580.8047,356 L634.1426,356 L634.1426,362 L624.1426,372 L572.8047,372 L572.8047,364 A8,8 0 0 1 580.8047,356" fill="#F8FAFC" style="stroke:#CBD5E1;stroke-width:1.5;"/><rect fill="none" height="290" rx="8" ry="8" style="stroke:#CBD5E1;stroke-width:1.5;" width="891.6533" x="572.8047" y="356"/><text fill="#000000" font-family="Helvetica" font-size="14" font-weight="bold" lengthAdjust="spacing" textLength="16.3379" x="587.8047" y="367.7803">alt</text><text fill="#000000" font-family="Helvetica" font-size="14" font-weight="bold" lengthAdjust="spacing" textLength="308.1094" x="649.1426" y="368.7803">[tracked or explicit OCI identity already exists]</text><g class="message" data-entity-1="part4" data-entity-2="part5" id="msg4"><polygon fill="#0F172A" points="1403.0132,388,1413.0132,392,1403.0132,396,1407.0132,392" style="stroke:#0F172A;stroke-width:1;"/><line style="stroke:#0F172A;stroke-width:1;" x1="995.0278" x2="1409.0132" y1="392" y2="392"/><text fill="#000000" font-family="Helvetica" font-size="14" lengthAdjust="spacing" textLength="354.7646" x="1002.0278" y="386.7803">GetNetworkFirewallNetworkFirewallPolicyDecryptionRule</text></g><line style="stroke:#CBD5E1;stroke-width:1;stroke-dasharray:2,2;" x1="572.8047" x2="1464.458" y1="401" y2="401"/><text fill="#000000" font-family="Helvetica" font-size="14" font-weight="bold" lengthAdjust="spacing" textLength="185.1582" x="577.8047" y="411.7803">[tracked identity is missing]</text><g class="message" data-entity-1="part4" data-entity-2="part5" id="msg5"><polygon fill="#0F172A" points="1403.0132,446,1413.0132,450,1403.0132,454,1407.0132,450" style="stroke:#0F172A;stroke-width:1;"/><line style="stroke:#0F172A;stroke-width:1;" x1="995.0278" x2="1409.0132" y1="450" y2="450"/><text fill="#000000" font-family="Helvetica" font-size="14" lengthAdjust="spacing" textLength="395.9854" x="1002.0278" y="430.7803">ListNetworkFirewallNetworkFirewallPolicyDecryptionRule(filters:</text><text fill="#000000" font-family="Helvetica" font-size="14" lengthAdjust="spacing" textLength="143.1719" x="1002.0278" y="444.7803">compartment_id, state)</text></g><path d="M904.8315,465 L958.1694,465 L958.1694,471 L948.1694,481 L896.8315,481 L896.8315,473 A8,8 0 0 1 904.8315,465" fill="#F8FAFC" style="stroke:#CBD5E1;stroke-width:1.5;"/><rect fill="none" height="146" rx="8" ry="8" style="stroke:#CBD5E1;stroke-width:1.5;" width="557.6265" x="896.8315" y="465"/><text fill="#000000" font-family="Helvetica" font-size="14" font-weight="bold" lengthAdjust="spacing" textLength="16.3379" x="911.8315" y="476.7803">alt</text><text fill="#000000" font-family="Helvetica" font-size="14" font-weight="bold" lengthAdjust="spacing" textLength="242.7031" x="973.1694" y="477.7803">[reusable OCI resource is not found]</text><g class="message" data-entity-1="part4" data-entity-2="part5" id="msg6"><polygon fill="#0F172A" points="1403.0132,497,1413.0132,501,1403.0132,505,1407.0132,501" style="stroke:#0F172A;stroke-width:1;"/><line style="stroke:#0F172A;stroke-width:1;" x1="995.0278" x2="1409.0132" y1="501" y2="501"/><text fill="#000000" font-family="Helvetica" font-size="14" lengthAdjust="spacing" textLength="374.2197" x="1002.0278" y="495.7803">CreateNetworkFirewallNetworkFirewallPolicyDecryptionRule</text></g><path d="M914.8315,516 L981.3765,516 L981.3765,522 L971.3765,532 L906.8315,532 L906.8315,524 A8,8 0 0 1 914.8315,516" fill="#F8FAFC" style="stroke:#CBD5E1;stroke-width:1.5;"/><rect fill="none" height="44" rx="8" ry="8" style="stroke:#CBD5E1;stroke-width:1.5;" width="537.6265" x="906.8315" y="516"/><text fill="#000000" font-family="Helvetica" font-size="14" font-weight="bold" lengthAdjust="spacing" textLength="29.5449" x="921.8315" y="527.7803">loop</text><text fill="#000000" font-family="Helvetica" font-size="14" font-weight="bold" lengthAdjust="spacing" textLength="215.4756" x="996.3765" y="528.7803">[create pending PROVISIONING]</text><g class="message" data-entity-1="part4" data-entity-2="part5" id="msg7"><polygon fill="#0F172A" points="1403.0132,548,1413.0132,552,1403.0132,556,1407.0132,552" style="stroke:#0F172A;stroke-width:1;"/><line style="stroke:#0F172A;stroke-width:1;" x1="995.0278" x2="1409.0132" y1="552" y2="552"/><text fill="#000000" font-family="Helvetica" font-size="14" lengthAdjust="spacing" textLength="354.7646" x="1002.0278" y="546.7803">GetNetworkFirewallNetworkFirewallPolicyDecryptionRule</text></g><line style="stroke:#CBD5E1;stroke-width:1;stroke-dasharray:2,2;" x1="896.8315" x2="1454.458" y1="568" y2="568"/><text fill="#000000" font-family="Helvetica" font-size="14" font-weight="bold" lengthAdjust="spacing" textLength="255.2334" x="901.8315" y="578.7803">[reusable OCI resource already exists]</text><g class="message" data-entity-1="part4" data-entity-2="part5" id="msg8"><polygon fill="#0F172A" points="1403.0132,599,1413.0132,603,1403.0132,607,1407.0132,603" style="stroke:#0F172A;stroke-width:1;"/><line style="stroke:#0F172A;stroke-width:1;" x1="995.0278" x2="1409.0132" y1="603" y2="603"/><text fill="#000000" font-family="Helvetica" font-size="14" lengthAdjust="spacing" textLength="354.7646" x="1002.0278" y="597.7803">GetNetworkFirewallNetworkFirewallPolicyDecryptionRule</text></g><g class="message" data-entity-1="part4" data-entity-2="part3" id="msg9"><polygon fill="#0F172A" points="649.8286,634,639.8286,638,649.8286,642,645.8286,638" style="stroke:#0F172A;stroke-width:1;"/><line style="stroke:#0F172A;stroke-width:1;stroke-dasharray:2,2;" x1="643.8286" x2="994.0278" y1="638" y2="638"/><text fill="#000000" font-family="Helvetica" font-size="14" lengthAdjust="spacing" textLength="231.0957" x="655.8286" y="632.7803">persist resolved OCI identity in status</text></g><path d="M560.8047,660 L614.1426,660 L614.1426,666 L604.1426,676 L552.8047,676 L552.8047,668 A8,8 0 0 1 560.8047,660" fill="#F8FAFC" style="stroke:#CBD5E1;stroke-width:1.5;"/><rect fill="none" height="868" rx="8" ry="8" style="stroke:#CBD5E1;stroke-width:1.5;" width="927.8218" x="552.8047" y="660"/><text fill="#000000" font-family="Helvetica" font-size="14" font-weight="bold" lengthAdjust="spacing" textLength="16.3379" x="567.8047" y="671.7803">alt</text><text fill="#000000" font-family="Helvetica" font-size="14" font-weight="bold" lengthAdjust="spacing" textLength="120.5859" x="629.1426" y="672.7803">[delete requested]</text><path d="M570.8047,683 L649.8252,683 L649.8252,689 L639.8252,699 L562.8047,699 L562.8047,691 A8,8 0 0 1 570.8047,683" fill="#F8FAFC" style="stroke:#CBD5E1;stroke-width:1.5;"/><rect fill="none" height="302" rx="8" ry="8" style="stroke:#CBD5E1;stroke-width:1.5;" width="891.6533" x="562.8047" y="683"/><text fill="#000000" font-family="Helvetica" font-size="14" font-weight="bold" lengthAdjust="spacing" textLength="42.0205" x="577.8047" y="694.7803">Delete</text><g class="message" data-entity-1="part4" data-entity-2="part5" id="msg10"><polygon fill="#0F172A" points="1403.0132,715,1413.0132,719,1403.0132,723,1407.0132,719" style="stroke:#0F172A;stroke-width:1;"/><line style="stroke:#0F172A;stroke-width:1;" x1="995.0278" x2="1409.0132" y1="719" y2="719"/><text fill="#000000" font-family="Helvetica" font-size="14" lengthAdjust="spacing" textLength="372.668" x="1002.0278" y="713.7803">DeleteNetworkFirewallNetworkFirewallPolicyDecryptionRule</text></g><g class="message" data-entity-1="part4" data-entity-2="part5" id="msg11"><polygon fill="#0F172A" points="1403.0132,785,1413.0132,789,1403.0132,793,1407.0132,789" style="stroke:#0F172A;stroke-width:1;"/><line style="stroke:#0F172A;stroke-width:1;" x1="995.0278" x2="1409.0132" y1="789" y2="789"/><text fill="#000000" font-family="Helvetica" font-size="14" lengthAdjust="spacing" textLength="109.7168" x="1002.0278" y="741.7803">confirm delete via</text><text fill="#000000" font-family="Helvetica" font-size="14" lengthAdjust="spacing" textLength="354.7646" x="1002.0278" y="755.7803">GetNetworkFirewallNetworkFirewallPolicyDecryptionRule</text><text fill="#000000" font-family="Helvetica" font-size="14" lengthAdjust="spacing" textLength="12.4482" x="1002.0278" y="769.7803">or</text><text fill="#000000" font-family="Helvetica" font-size="14" lengthAdjust="spacing" textLength="353.9854" x="1002.0278" y="783.7803">ListNetworkFirewallNetworkFirewallPolicyDecryptionRule</text></g><path d="M914.8315,804 L981.3765,804 L981.3765,810 L971.3765,820 L906.8315,820 L906.8315,812 A8,8 0 0 1 914.8315,804" fill="#F8FAFC" style="stroke:#CBD5E1;stroke-width:1.5;"/><rect fill="none" height="72" rx="8" ry="8" style="stroke:#CBD5E1;stroke-width:1.5;" width="537.6265" x="906.8315" y="804"/><text fill="#000000" font-family="Helvetica" font-size="14" font-weight="bold" lengthAdjust="spacing" textLength="29.5449" x="921.8315" y="815.7803">loop</text><text fill="#000000" font-family="Helvetica" font-size="14" font-weight="bold" lengthAdjust="spacing" textLength="182.7793" x="996.3765" y="816.7803">[delete pending DELETING]</text><g class="message" data-entity-1="part4" data-entity-2="part5" id="msg12"><polygon fill="#0F172A" points="1403.0132,864,1413.0132,868,1403.0132,872,1407.0132,868" style="stroke:#0F172A;stroke-width:1;"/><line style="stroke:#0F172A;stroke-width:1;" x1="995.0278" x2="1409.0132" y1="868" y2="868"/><text fill="#000000" font-family="Helvetica" font-size="14" lengthAdjust="spacing" textLength="354.7646" x="1002.0278" y="834.7803">GetNetworkFirewallNetworkFirewallPolicyDecryptionRule</text><text fill="#000000" font-family="Helvetica" font-size="14" lengthAdjust="spacing" textLength="12.4482" x="1002.0278" y="848.7803">or</text><text fill="#000000" font-family="Helvetica" font-size="14" lengthAdjust="spacing" textLength="353.9854" x="1002.0278" y="862.7803">ListNetworkFirewallNetworkFirewallPolicyDecryptionRule</text></g><path d="M580.8047,890 L634.1426,890 L634.1426,896 L624.1426,906 L572.8047,906 L572.8047,898 A8,8 0 0 1 580.8047,890" fill="#F8FAFC" style="stroke:#CBD5E1;stroke-width:1.5;"/><rect fill="none" height="88" rx="8" ry="8" style="stroke:#CBD5E1;stroke-width:1.5;" width="510.4194" x="572.8047" y="890"/><text fill="#000000" font-family="Helvetica" font-size="14" font-weight="bold" lengthAdjust="spacing" textLength="16.3379" x="587.8047" y="901.7803">alt</text><text fill="#000000" font-family="Helvetica" font-size="14" font-weight="bold" lengthAdjust="spacing" textLength="261.4268" x="649.1426" y="902.7803">[cleanup or finalizer release is blocked]</text><g class="message" data-entity-1="part4" data-entity-2="part3" id="msg13"><polygon fill="#0F172A" points="649.8286,922,639.8286,926,649.8286,930,645.8286,926" style="stroke:#0F172A;stroke-width:1;"/><line style="stroke:#0F172A;stroke-width:1;stroke-dasharray:2,2;" x1="643.8286" x2="994.0278" y1="926" y2="926"/><text fill="#000000" font-family="Helvetica" font-size="14" lengthAdjust="spacing" textLength="170.4336" x="655.8286" y="920.7803">retain delete state and retry</text></g><line style="stroke:#CBD5E1;stroke-width:1;stroke-dasharray:2,2;" x1="572.8047" x2="1083.2241" y1="935" y2="935"/><text fill="#000000" font-family="Helvetica" font-size="14" font-weight="bold" lengthAdjust="spacing" textLength="194.4824" x="577.8047" y="945.7803">[delete completion observed]</text><g class="message" data-entity-1="part4" data-entity-2="part3" id="msg14"><polygon fill="#0F172A" points="649.8286,966,639.8286,970,649.8286,974,645.8286,970" style="stroke:#0F172A;stroke-width:1;"/><line style="stroke:#0F172A;stroke-width:1;stroke-dasharray:2,2;" x1="643.8286" x2="994.0278" y1="970" y2="970"/><text fill="#000000" font-family="Helvetica" font-size="14" lengthAdjust="spacing" textLength="243.5781" x="655.8286" y="964.7803">release finalizer after delete completion</text></g><line style="stroke:#CBD5E1;stroke-width:1;stroke-dasharray:2,2;" x1="552.8047" x2="1480.6265" y1="993" y2="993"/><text fill="#000000" font-family="Helvetica" font-size="14" font-weight="bold" lengthAdjust="spacing" textLength="149.3857" x="557.8047" y="1003.7803">[OCI state is retryable]</text><g class="message" data-entity-1="part4" data-entity-2="part3" id="msg15"><polygon fill="#0F172A" points="649.8286,1038,639.8286,1042,649.8286,1046,645.8286,1042" style="stroke:#0F172A;stroke-width:1;"/><line style="stroke:#0F172A;stroke-width:1;stroke-dasharray:2,2;" x1="643.8286" x2="994.0278" y1="1042" y2="1042"/><text fill="#000000" font-family="Helvetica" font-size="14" lengthAdjust="spacing" textLength="184.4199" x="655.8286" y="1022.7803">requeue while OCI remains in</text><text fill="#000000" font-family="Helvetica" font-size="14" lengthAdjust="spacing" textLength="260.5928" x="655.8286" y="1036.7803">PROVISIONING, UPDATING, DELETING</text></g><line style="stroke:#CBD5E1;stroke-width:1;stroke-dasharray:2,2;" x1="552.8047" x2="1480.6265" y1="1051" y2="1051"/><text fill="#000000" font-family="Helvetica" font-size="14" font-weight="bold" lengthAdjust="spacing" textLength="200.751" x="557.8047" y="1061.7803">[live state requires field-aware</text><text fill="#000000" font-family="Helvetica" font-size="14" font-weight="bold" lengthAdjust="spacing" textLength="105.0068" x="557.8047" y="1075.7803">drift evaluation]</text><path d="M570.8047,1087 L698.791,1087 L698.791,1093 L688.791,1103 L562.8047,1103 L562.8047,1095 A8,8 0 0 1 570.8047,1087" fill="#F8FAFC" style="stroke:#CBD5E1;stroke-width:1.5;"/><rect fill="none" height="392" rx="8" ry="8" style="stroke:#CBD5E1;stroke-width:1.5;" width="907.8218" x="562.8047" y="1087"/><text fill="#000000" font-family="Helvetica" font-size="14" font-weight="bold" lengthAdjust="spacing" textLength="90.9863" x="577.8047" y="1098.7803">Drift handling</text><path d="M948,1116 L948,1166 A8,8 0 0 0 956,1174 L1452,1174 A8,8 0 0 0 1460,1166 L1460,1118 L1450,1108 L956,1108 A8,8 0 0 0 948,1116" fill="#FFF7D6" style="stroke:#B45309;stroke-width:0.5;"/><path d="M1450,1108 L1450,1114 A4,4 0 0 0 1454,1118 L1460,1118 L1450,1108" fill="#FFF7D6" style="stroke:#B45309;stroke-width:0.5;"/><text fill="#334155" font-family="Helvetica" font-size="14" lengthAdjust="spacing" textLength="255.2813" x="1072.1726" y="1123.7803">Supported update surface: display_name</text><text fill="#334155" font-family="Helvetica" font-size="14" lengthAdjust="spacing" textLength="235.7783" x="1072.1726" y="1137.7803">Reject before mutate: force-new fields</text><text fill="#334155" font-family="Helvetica" font-size="14" lengthAdjust="spacing" textLength="100.3789" x="1072.1726" y="1151.7803">compartment_id</text><text fill="#334155" font-family="Helvetica" font-size="14" lengthAdjust="spacing" textLength="229.5576" x="1072.1726" y="1165.7803">Lookup filters: compartment_id, state</text><path d="M580.8047,1186 L639.5703,1186 L639.5703,1192 L629.5703,1202 L572.8047,1202 L572.8047,1194 A8,8 0 0 1 580.8047,1186" fill="#F8FAFC" style="stroke:#CBD5E1;stroke-width:1.5;"/><rect fill="none" height="44" rx="8" ry="8" style="stroke:#CBD5E1;stroke-width:1.5;" width="510.4194" x="572.8047" y="1186"/><text fill="#000000" font-family="Helvetica" font-size="14" font-weight="bold" lengthAdjust="spacing" textLength="21.7656" x="587.8047" y="1197.7803">opt</text><text fill="#000000" font-family="Helvetica" font-size="14" font-weight="bold" lengthAdjust="spacing" textLength="276.1309" x="654.5703" y="1198.7803">[force-new or conflicting drift is detected]</text><g class="message" data-entity-1="part4" data-entity-2="part3" id="msg16"><polygon fill="#0F172A" points="649.8286,1218,639.8286,1222,649.8286,1226,645.8286,1222" style="stroke:#0F172A;stroke-width:1;"/><line style="stroke:#0F172A;stroke-width:1;stroke-dasharray:2,2;" x1="643.8286" x2="994.0278" y1="1222" y2="1222"/><text fill="#000000" font-family="Helvetica" font-size="14" lengthAdjust="spacing" textLength="164.1855" x="655.8286" y="1216.7803">reject before OCI mutation</text></g><path d="M904.8315,1244 L963.5972,1244 L963.5972,1250 L953.5972,1260 L896.8315,1260 L896.8315,1252 A8,8 0 0 1 904.8315,1244" fill="#F8FAFC" style="stroke:#CBD5E1;stroke-width:1.5;"/><rect fill="none" height="130" rx="8" ry="8" style="stroke:#CBD5E1;stroke-width:1.5;" width="557.6265" x="896.8315" y="1244"/><text fill="#000000" font-family="Helvetica" font-size="14" font-weight="bold" lengthAdjust="spacing" textLength="21.7656" x="911.8315" y="1255.7803">opt</text><text fill="#000000" font-family="Helvetica" font-size="14" font-weight="bold" lengthAdjust="spacing" textLength="243.4619" x="978.5972" y="1256.7803">[supported mutable drift is detected]</text><g class="message" data-entity-1="part4" data-entity-2="part5" id="msg17"><polygon fill="#0F172A" points="1403.0132,1304,1413.0132,1308,1403.0132,1312,1407.0132,1308" style="stroke:#0F172A;stroke-width:1;"/><line style="stroke:#0F172A;stroke-width:1;" x1="995.0278" x2="1409.0132" y1="1308" y2="1308"/><text fill="#000000" font-family="Helvetica" font-size="14" lengthAdjust="spacing" textLength="35.0205" x="1002.0278" y="1274.7803">Apply</text><text fill="#000000" font-family="Helvetica" font-size="14" lengthAdjust="spacing" textLength="377.3438" x="1002.0278" y="1288.7803">UpdateNetworkFirewallNetworkFirewallPolicyDecryptionRule</text><text fill="#000000" font-family="Helvetica" font-size="14" lengthAdjust="spacing" textLength="226.4541" x="1002.0278" y="1302.7803">only for mutable fields display_name</text></g><path d="M914.8315,1323 L981.3765,1323 L981.3765,1329 L971.3765,1339 L906.8315,1339 L906.8315,1331 A8,8 0 0 1 914.8315,1323" fill="#F8FAFC" style="stroke:#CBD5E1;stroke-width:1.5;"/><rect fill="none" height="44" rx="8" ry="8" style="stroke:#CBD5E1;stroke-width:1.5;" width="537.6265" x="906.8315" y="1323"/><text fill="#000000" font-family="Helvetica" font-size="14" font-weight="bold" lengthAdjust="spacing" textLength="29.5449" x="921.8315" y="1334.7803">loop</text><text fill="#000000" font-family="Helvetica" font-size="14" font-weight="bold" lengthAdjust="spacing" textLength="190.5381" x="996.3765" y="1335.7803">[update pending UPDATING]</text><g class="message" data-entity-1="part4" data-entity-2="part5" id="msg18"><polygon fill="#0F172A" points="1403.0132,1355,1413.0132,1359,1403.0132,1363,1407.0132,1359" style="stroke:#0F172A;stroke-width:1;"/><line style="stroke:#0F172A;stroke-width:1;" x1="995.0278" x2="1409.0132" y1="1359" y2="1359"/><text fill="#000000" font-family="Helvetica" font-size="14" lengthAdjust="spacing" textLength="354.7646" x="1002.0278" y="1353.7803">GetNetworkFirewallNetworkFirewallPolicyDecryptionRule</text></g><g class="message" data-entity-1="part4" data-entity-2="part5" id="msg19"><polygon fill="#0F172A" points="1403.0132,1467,1413.0132,1471,1403.0132,1475,1407.0132,1471" style="stroke:#0F172A;stroke-width:1;"/><line style="stroke:#0F172A;stroke-width:1;" x1="995.0278" x2="1409.0132" y1="1471" y2="1471"/><text fill="#000000" font-family="Helvetica" font-size="14" lengthAdjust="spacing" textLength="104.2891" x="1002.0278" y="1395.7803">run helper hooks</text><text fill="#000000" font-family="Helvetica" font-size="14" lengthAdjust="spacing" textLength="219.0508" x="1002.0278" y="1409.7803">create=tfresource.CreateResource,</text><text fill="#000000" font-family="Helvetica" font-size="14" lengthAdjust="spacing" textLength="314.3164" x="1002.0278" y="1423.7803">tfresource.WaitForWorkRequestWithErrorHandling</text><text fill="#000000" font-family="Helvetica" font-size="14" lengthAdjust="spacing" textLength="215.5439" x="1002.0278" y="1437.7803">entity=template action=CREATED;</text><text fill="#000000" font-family="Helvetica" font-size="14" lengthAdjust="spacing" textLength="226.085" x="1002.0278" y="1451.7803">update=tfresource.UpdateResource;</text><text fill="#000000" font-family="Helvetica" font-size="14" lengthAdjust="spacing" textLength="212.8438" x="1002.0278" y="1465.7803">delete=tfresource.DeleteResource</text></g><g class="message" data-entity-1="part4" data-entity-2="part3" id="msg20"><polygon fill="#0F172A" points="649.8286,1516,639.8286,1520,649.8286,1524,645.8286,1520" style="stroke:#0F172A;stroke-width:1;"/><line style="stroke:#0F172A;stroke-width:1;stroke-dasharray:2,2;" x1="643.8286" x2="994.0278" y1="1520" y2="1520"/><text fill="#000000" font-family="Helvetica" font-size="14" lengthAdjust="spacing" textLength="100.7822" x="655.8286" y="1500.7803">status=required,</text><text fill="#000000" font-family="Helvetica" font-size="14" lengthAdjust="spacing" textLength="230.7197" x="655.8286" y="1514.7803">finalizer=retain-until-confirmed-delete</text></g><g class="message" data-entity-1="part3" data-entity-2="part2" id="msg21"><polygon fill="#0F172A" points="411.0024,1565,401.0024,1569,411.0024,1573,407.0024,1569" style="stroke:#0F172A;stroke-width:1;"/><line style="stroke:#0F172A;stroke-width:1;stroke-dasharray:2,2;" x1="405.0024" x2="637.8286" y1="1569" y2="1569"/><text fill="#000000" font-family="Helvetica" font-size="14" lengthAdjust="spacing" textLength="214.8262" x="417.0024" y="1549.7803">requeue on provisioning, updating,</text><text fill="#000000" font-family="Helvetica" font-size="14" lengthAdjust="spacing" textLength="69.2549" x="417.0024" y="1563.7803">terminating</text></g><path d="M1000,1590 L1000,2088 A8,8 0 0 0 1008,2096 L1478,2096 A8,8 0 0 0 1486,2088 L1486,1592 L1476,1582 L1008,1582 A8,8 0 0 0 1000,1590" fill="#FFF7D6" style="stroke:#B45309;stroke-width:0.5;"/><path d="M1476,1582 L1476,1588 A4,4 0 0 0 1480,1592 L1486,1592 L1476,1582" fill="#FFF7D6" style="stroke:#B45309;stroke-width:0.5;"/><text fill="#334155" font-family="Helvetica" font-size="14" lengthAdjust="spacing" textLength="101.165" x="1006" y="1597.7803">shared diagram:</text><text fill="#334155" font-family="Helvetica" font-size="14" lengthAdjust="spacing" textLength="307.3916" x="1006" y="1611.7803">shared/diagrams/shared-resolution-sequence.svg</text><text fill="#334155" font-family="Helvetica" font-size="14" lengthAdjust="spacing" textLength="143.1992" x="1006" y="1625.7803">shared delete diagram:</text><text fill="#334155" font-family="Helvetica" font-size="14" lengthAdjust="spacing" textLength="284.833" x="1006" y="1639.7803">shared/diagrams/shared-delete-sequence.svg</text><text fill="#334155" font-family="Helvetica" font-size="14" lengthAdjust="spacing" textLength="280.9297" x="1006" y="1653.7803">Start from the shared resolution sequence for</text><text fill="#334155" font-family="Helvetica" font-size="14" lengthAdjust="spacing" textLength="260.7295" x="1006" y="1667.7803">OCID binding, datasource pagination, and</text><text fill="#334155" font-family="Helvetica" font-size="14" lengthAdjust="spacing" textLength="163.4268" x="1006" y="1681.7803">create-or-update dispatch.</text><text fill="#334155" font-family="Helvetica" font-size="14" lengthAdjust="spacing" textLength="301.1982" x="1006" y="1695.7803">Layer the shared delete sequence when finalizer</text><text fill="#334155" font-family="Helvetica" font-size="14" lengthAdjust="spacing" textLength="269.2471" x="1006" y="1709.7803">retention, delete confirmation, work-request</text><text fill="#334155" font-family="Helvetica" font-size="14" lengthAdjust="spacing" textLength="199.2334" x="1006" y="1723.7803">polling, or Secret cleanup apply.</text><text fill="#334155" font-family="Helvetica" font-size="14" lengthAdjust="spacing" textLength="281.709" x="1006" y="1737.7803">archetype batch: Generated service-manager</text><text fill="#334155" font-family="Helvetica" font-size="14" lengthAdjust="spacing" textLength="266.1504" x="1006" y="1751.7803">controllers follow the shared resolution and</text><text fill="#334155" font-family="Helvetica" font-size="14" lengthAdjust="spacing" textLength="259.9297" x="1006" y="1765.7803">delete sequences with imported waits and</text><text fill="#334155" font-family="Helvetica" font-size="14" lengthAdjust="spacing" textLength="134.6064" x="1006" y="1779.7803">controller-local policy.</text><text fill="#334155" font-family="Helvetica" font-size="14" lengthAdjust="spacing" textLength="144.71" x="1006" y="1793.7803">service: networkfirewall</text><text fill="#334155" font-family="Helvetica" font-size="14" lengthAdjust="spacing" textLength="29.5723" x="1006" y="1807.7803">slug:</text><text fill="#334155" font-family="Helvetica" font-size="14" lengthAdjust="spacing" textLength="308.9023" x="1006" y="1821.7803">networkfirewallnetworkfirewallpolicydecryptionrule</text><text fill="#334155" font-family="Helvetica" font-size="14" lengthAdjust="spacing" textLength="29.5723" x="1006" y="1835.7803">kind:</text><text fill="#334155" font-family="Helvetica" font-size="14" lengthAdjust="spacing" textLength="332.1992" x="1006" y="1849.7803">NetworkFirewallNetworkFirewallPolicyDecryptionRule</text><text fill="#334155" font-family="Helvetica" font-size="14" lengthAdjust="spacing" textLength="241.2402" x="1006" y="1863.7803">archetype: generated-service-manager</text><text fill="#334155" font-family="Helvetica" font-size="14" lengthAdjust="spacing" textLength="156.4063" x="1006" y="1877.7803">status/finalizer: required /</text><text fill="#334155" font-family="Helvetica" font-size="14" lengthAdjust="spacing" textLength="174.3027" x="1006" y="1891.7803">retain-until-confirmed-delete</text><text fill="#334155" font-family="Helvetica" font-size="14" lengthAdjust="spacing" textLength="272.3984" x="1006" y="1905.7803">requeue: provisioning, updating, terminating</text><text fill="#334155" font-family="Helvetica" font-size="14" lengthAdjust="spacing" textLength="295.6816" x="1006" y="1919.7803">provider states: create PROVISIONING; update</text><text fill="#334155" font-family="Helvetica" font-size="14" lengthAdjust="spacing" textLength="192.165" x="1006" y="1933.7803">UPDATING; delete DELETING</text><text fill="#334155" font-family="Helvetica" font-size="14" lengthAdjust="spacing" textLength="183.6611" x="1006" y="1947.7803">supported drift: display_name</text><text fill="#334155" font-family="Helvetica" font-size="14" lengthAdjust="spacing" textLength="230.3301" x="1006" y="1961.7803">reject before mutate: force-new fields</text><text fill="#334155" font-family="Helvetica" font-size="14" lengthAdjust="spacing" textLength="100.3789" x="1006" y="1975.7803">compartment_id</text><text fill="#334155" font-family="Helvetica" font-size="14" lengthAdjust="spacing" textLength="66.1445" x="1006" y="1989.7803">list lookup:</text><text fill="#334155" font-family="Helvetica" font-size="14" lengthAdjust="spacing" textLength="465.3086" x="1006" y="2003.7803">scaffold_networkfirewall_networkfirewallnetworkfirewallpolicydecryptionrule</text><text fill="#334155" font-family="Helvetica" font-size="14" lengthAdjust="spacing" textLength="175.8477" x="1006" y="2017.7803">filters compartment_id, state</text><text fill="#334155" font-family="Helvetica" font-size="14" lengthAdjust="spacing" textLength="89.4961" x="1006" y="2031.7803">conflicts: none</text><text fill="#334155" font-family="Helvetica" font-size="14" lengthAdjust="spacing" textLength="104.3164" x="1006" y="2045.7803">open gaps: none</text><text fill="#334155" font-family="Helvetica" font-size="14" lengthAdjust="spacing" textLength="224.9023" x="1006" y="2059.7803">Scaffold metadata only; replace with</text><text fill="#334155" font-family="Helvetica" font-size="14" lengthAdjust="spacing" textLength="244.3232" x="1006" y="2073.7803">controller-specific runtime states before</text><text fill="#334155" font-family="Helvetica" font-size="14" lengthAdjust="spacing" textLength="66.1445" x="1006" y="2087.7803">promotion.</text><?plantuml-src jLTRRzis67tdho2sbnQmagP9Ud6G0MsIja6pfB3RzSL0G4kVR2uKgP6KNM_OVz_7YsH9iTVKRP67M2BvtSyvbBdZicIQ5TJCMQQMNCvepeG1OfgLAKllPbfLCZjJGcdwQvxYNzRQaK7EAc7VA6clMG7q7OW5M9wopNl6_6-W1qUjHQQrMaRhJ_A3vq_R9wMoyFfU37d-F7lMtwLq1Zhkc1uT7pvvsTlXtCVrmyEZW-FZrhetdoejGTE3PyHoAu2EuQyAP0eqeHBiKkcxd6jOCY7shyFpc_ZSU_oW14zNvv3gLMcvagDA09dp36Ykb9sgBotFfdRo3w6KfLRfJYQn8lLIlnJm55xaJt0PZM7HUScatNo-lU4XLbhLQcm8diCLbzrQlpnYXzCNkEfCbfsbT9eTmq6pTA-FBtAMf-HVudEZxwifO0Ci6DAAWvvX85e90Rhp-ZKpC89KoPJtbtwv6T-y7uDUy1H-PvBDGFz2cQ7TLvqZDsUNnCq8LGkSWAxjGUySeaL3HZKO9IhNtc5yjPznDiEUcltmdAot97MRzynYLbl8G62sMq-7vUv9a9cVPR8k5ar-QzLeI47Y_WecyjjdT29rdJLPctGEkXKPqkRt8-t2C_OnwMvnXxfr6zB6E6PkC8nibnY9doLwfTGT_cDOZocN6M72Kgjnmh2kE4lmfSIZt3UM8l0a8df5cT30iXMkScCDwSRd8iRTG_eMx0vX0H9d4q7ZaHjQS6EGMhTvky9GljtTevmB2zeC9p9LXPla0ZtUycn0ZMKM7lk2QAWCcsAzNHNSC5OQYGPZmX52Aa8aRelg30jbOOSo2ALAclhJjCHfTQBoONJpn-NuykRwylhj3ouwPk0BlpdJdzhl3SNR09GIcuJE0riiS3Gw0ycbRrTbl3dNiW1w6b45MHptS_zwMmPXTOSajjZ3y57fYZgO1MSJkLEL9bBfYTnjnCCenH3gKJg_kBhu-AF7wBkYh1kN2c0IEuNaatF91DvpDBOHtneFkQbGZXeUCZCQBCF9YAbxF7kYm_Tw5UOzhZdium-CXQgfGSiFTH32MWVAScIJ-rO3m6gGkT4DqM0-FXW7kOSvz9f4btFUOBJ070qYO2BR_32WdpwSl_heVpNDzju5NzJ5SEQm9mOJ094bR8bwEP6Pvhcbi62YOZxu21t_Ueu558w6rohVZNlWhW3ZgYoLHjZHgioS9rFfdAKmf1atfM2hMubtN3A2Fo6rT0gvqa2BoWKrH495paaaB4DOXdIPcKJ9gfcRRYJkjSAhqhPCubWvLE80MeU3a2ks8SE6fVQXRM-7xRhWGw_xx1oQfW1koH7grpr5wBqgIx6Qo4--S3k1K8gLoxXn7ShOBRqdXTYScXJgYVa9sh9T8NKbwHm4yZkTOsCD2h5NlLERr_gp5rHq51y74zbQ-ymuth7rPmnZ5CZ-CxVp2_mOqk_Yh4vaa8bJ2mX8pmAf2-_qR7JnwkF5-Sb4XagqVORwrpvnIm1rUqkGYthBGvKi2DLfn5w6sJJqSHeOAwamN954zMXkiDv1_tROkxJM1854Lcgru0RJn0eCGglTBomUw08zsWR5ci_cbggSRhwWn_lqzztElsfbqorzR17NDDUge7OEzDu7m_gZ3yUTu3YT-qkiJnZJPV7wKhAPprV9WUD_4WOiKJg90738O3QTxv4hjiAgjfpLub4xMiv1hlcUOCFSR3dB3UdxhaLt3Xr9l8IG4flaOrEED36AjTen1_ezmdGw1xigWKvTF0vo-2ND78-Oq9kaYCr9cwuZVUD_jTnI8vTnBmj3buWHoel8KKl4a0cbQQmcgBDCqD93Uez4zyF-5pmnefeDIUzjxp4OoHfUq8uNyCiz6v8T2AKfqf3Ewl8a_V84bEqtdHhMOfVHVVB_C8iO6cv346q3oE_1B_MWEawDmfszhSKdaMX9JR0dzR0qohpM2wyJFPtKE-caSFTbuSKIKPUo7CSak-srvdQ7paNbtIAyjRnYBL2AdFuYOcQih9_7CH9QO1SSIgaJh1Fi3oRi48QZsPv3KqBASvuwfR2yY7SN4wlX6b0e5zfU8_d_0G00?></g></svg>