<?plantuml 1.2026.1?><svg xmlns="http://www.w3.org/2000/svg" xmlns:xlink="http://www.w3.org/1999/xlink" contentStyleType="text/css" data-diagram-type="SEQUENCE" height="1357px" preserveAspectRatio="none" style="width:1576px;height:1357px;background:#FCFCFD;" version="1.1" viewBox="0 0 1576 1357" width="1576px" zoomAndPan="magnify"><title>Sequence - fleetappsmanagement/FleetAppsManagementSchedulerDefinitionScheduledFleets</title><defs/><g><rect fill="#FCFCFD" height="1357" style="stroke:none;stroke-width:1;" width="1576" x="0" y="0"/><text fill="#000000" font-family="Helvetica" font-size="14" font-weight="bold" lengthAdjust="spacing" textLength="627.0264" x="475.5864" y="25.7803">Sequence - fleetappsmanagement/FleetAppsManagementSchedulerDefinitionScheduledFleets</text><rect fill="none" height="86" rx="8" ry="8" style="stroke:#CBD5E1;stroke-width:1.5;" width="575.8735" x="983.3257" y="361"/><rect fill="none" height="204" rx="8" ry="8" style="stroke:#CBD5E1;stroke-width:1.5;" width="595.8735" x="973.3257" y="461"/><rect fill="none" height="44" rx="8" ry="8" style="stroke:#CBD5E1;stroke-width:1.5;" width="575.8735" x="983.3257" y="512"/><rect fill="none" height="44" rx="8" ry="8" style="stroke:#CBD5E1;stroke-width:1.5;" width="575.8735" x="983.3257" y="614"/><rect fill="none" height="130" rx="8" ry="8" style="stroke:#CBD5E1;stroke-width:1.5;" width="595.8735" x="973.3257" y="679"/><rect fill="none" height="72" rx="8" ry="8" style="stroke:#CBD5E1;stroke-width:1.5;" width="575.8735" x="983.3257" y="730"/><g class="participant-lifeline" data-entity-uid="part1" data-qualified-name="Kubernetes" id="part1-lifeline"><g><title>Kubernetes</title><rect fill="#000000" fill-opacity="0.00000" height="1236" width="8" x="39.8032" y="114"/><line style="stroke:#94A3B8;stroke-width:0.5;stroke-dasharray:5,5;" x1="43" x2="43" y1="114" y2="1350"/></g></g><g class="participant-lifeline" data-entity-uid="part2" data-qualified-name="Controller" id="part2-lifeline"><g><title>Controller</title><rect fill="#000000" fill-opacity="0.00000" height="1236" width="8" x="434.2495" y="114"/><line style="stroke:#94A3B8;stroke-width:0.5;stroke-dasharray:5,5;" x1="437.9048" x2="437.9048" y1="114" y2="1350"/></g></g><g class="participant-lifeline" data-entity-uid="part3" data-qualified-name="BaseReconciler" id="part3-lifeline"><g><title>BaseReconciler</title><rect fill="#000000" fill-opacity="0.00000" height="1236" width="8" x="673.0757" y="114"/><line style="stroke:#94A3B8;stroke-width:0.5;stroke-dasharray:5,5;" x1="677.0518" x2="677.0518" y1="114" y2="1350"/></g></g><g class="participant-lifeline" data-entity-uid="part4" data-qualified-name="ServiceManager" id="part4-lifeline"><g><title>OSOKServiceManager</title><rect fill="#000000" fill-opacity="0.00000" height="1236" width="8" x="1067.522" y="114"/><line style="stroke:#94A3B8;stroke-width:0.5;stroke-dasharray:5,5;" x1="1071.3257" x2="1071.3257" y1="114" y2="1350"/></g></g><g class="participant-lifeline" data-entity-uid="part5" data-qualified-name="OCI" id="part5-lifeline"><g><title>OCI</title><rect fill="#000000" fill-opacity="0.00000" height="1236" width="8" x="1525.7544" y="114"/><line style="stroke:#94A3B8;stroke-width:0.5;stroke-dasharray:5,5;" x1="1529.3096" x2="1529.3096" y1="114" y2="1350"/></g></g><g class="participant participant-head" data-entity-uid="part1" data-qualified-name="Kubernetes" id="part1-head"><text fill="#000000" font-family="Helvetica" font-size="14" lengthAdjust="spacing" textLength="71.6064" x="5" y="110.7803">Kubernetes</text><ellipse cx="43.8032" cy="48.5" fill="#E2E8F0" rx="8" ry="8" style="stroke:#0F172A;stroke-width:0.5;"/><path d="M43.8032,56.5 L43.8032,83.5 M30.8032,64.5 L56.8032,64.5 M43.8032,83.5 L30.8032,98.5 M43.8032,83.5 L56.8032,98.5" fill="none" style="stroke:#0F172A;stroke-width:0.5;"/></g><g class="participant participant-head" data-entity-uid="part2" data-qualified-name="Controller" id="part2-head"><rect fill="#E2E8F0" height="28" rx="8" ry="8" style="stroke:#0F172A;stroke-width:0.5;" width="74.6895" x="400.9048" y="85"/><text fill="#0F172A" font-family="Helvetica" font-size="14" lengthAdjust="spacing" textLength="60.6895" x="407.9048" y="102.7803">Controller</text></g><g class="participant participant-head" data-entity-uid="part3" data-qualified-name="BaseReconciler" id="part3-head"><rect fill="#E2E8F0" height="28" rx="8" ry="8" style="stroke:#0F172A;stroke-width:0.5;" width="112.0479" x="621.0518" y="85"/><text fill="#0F172A" font-family="Helvetica" font-size="14" lengthAdjust="spacing" textLength="98.0479" x="628.0518" y="102.7803">BaseReconciler</text></g><g class="participant participant-head" data-entity-uid="part4" data-qualified-name="ServiceManager" id="part4-head"><rect fill="#E2E8F0" height="28" rx="8" ry="8" style="stroke:#0F172A;stroke-width:0.5;" width="156.3926" x="993.3257" y="85"/><text fill="#0F172A" font-family="Helvetica" font-size="14" lengthAdjust="spacing" textLength="142.3926" x="1000.3257" y="102.7803">OSOKServiceManager</text></g><g class="participant participant-head" data-entity-uid="part5" data-qualified-name="OCI" id="part5-head"><rect fill="#E2E8F0" height="28" rx="8" ry="8" style="stroke:#0F172A;stroke-width:0.5;" width="38.8896" x="1510.3096" y="85"/><text fill="#0F172A" font-family="Helvetica" font-size="14" lengthAdjust="spacing" textLength="24.8896" x="1517.3096" y="102.7803">OCI</text></g><path d="M612,137 L612,187 A8,8 0 0 0 620,195 L1127,195 A8,8 0 0 0 1135,187 L1135,139 L1125,129 L620,129 A8,8 0 0 0 612,137" fill="#FFF7D6" style="stroke:#B45309;stroke-width:0.5;"/><path d="M1125,129 L1125,135 A4,4 0 0 0 1129,139 L1135,139 L1125,129" fill="#FFF7D6" style="stroke:#B45309;stroke-width:0.5;"/><text fill="#334155" font-family="Helvetica" font-size="14" lengthAdjust="spacing" textLength="111.2891" x="715.6375" y="144.7803">shared resolution:</text><text fill="#334155" font-family="Helvetica" font-size="14" lengthAdjust="spacing" textLength="307.3916" x="715.6375" y="158.7803">shared/diagrams/shared-resolution-sequence.svg</text><text fill="#334155" font-family="Helvetica" font-size="14" lengthAdjust="spacing" textLength="88.7305" x="715.6375" y="172.7803">shared delete:</text><text fill="#334155" font-family="Helvetica" font-size="14" lengthAdjust="spacing" textLength="284.833" x="715.6375" y="186.7803">shared/diagrams/shared-delete-sequence.svg</text><g class="message" data-entity-1="part1" data-entity-2="part2" id="msg1"><polygon fill="#0F172A" points="426.2495,244,436.2495,248,426.2495,252,430.2495,248" style="stroke:#0F172A;stroke-width:1;"/><line style="stroke:#0F172A;stroke-width:1;" x1="43.8032" x2="432.2495" y1="248" y2="248"/><text fill="#000000" font-family="Helvetica" font-size="14" lengthAdjust="spacing" textLength="54.5029" x="50.8032" y="214.7803">enqueue</text><text fill="#000000" font-family="Helvetica" font-size="14" lengthAdjust="spacing" textLength="370.4463" x="50.8032" y="228.7803">FleetAppsManagementSchedulerDefinitionScheduledFleets</text><text fill="#000000" font-family="Helvetica" font-size="14" lengthAdjust="spacing" textLength="56.0273" x="50.8032" y="242.7803">reconcile</text></g><g class="message" data-entity-1="part2" data-entity-2="part3" id="msg2"><polygon fill="#0F172A" points="665.0757,272,675.0757,276,665.0757,280,669.0757,276" style="stroke:#0F172A;stroke-width:1;"/><line style="stroke:#0F172A;stroke-width:1;" x1="438.2495" x2="671.0757" y1="276" y2="276"/><text fill="#000000" font-family="Helvetica" font-size="14" lengthAdjust="spacing" textLength="117.4961" x="445.2495" y="270.7803">Reconcile(request)</text></g><g class="message" data-entity-1="part3" data-entity-2="part4" id="msg3"><polygon fill="#0F172A" points="1059.522,314,1069.522,318,1059.522,322,1063.522,318" style="stroke:#0F172A;stroke-width:1;"/><line style="stroke:#0F172A;stroke-width:1;" x1="677.0757" x2="1065.522" y1="318" y2="318"/><text fill="#000000" font-family="Helvetica" font-size="14" lengthAdjust="spacing" textLength="105.834" x="684.0757" y="298.7803">reconcile desired</text><text fill="#000000" font-family="Helvetica" font-size="14" lengthAdjust="spacing" textLength="370.4463" x="684.0757" y="312.7803">FleetAppsManagementSchedulerDefinitionScheduledFleets</text></g><g class="message" data-entity-1="part4" data-entity-2="part5" id="msg4"><polygon fill="#0F172A" points="1517.7544,342,1527.7544,346,1517.7544,350,1521.7544,346" style="stroke:#0F172A;stroke-width:1;"/><line style="stroke:#0F172A;stroke-width:1;" x1="1071.522" x2="1523.7544" y1="346" y2="346"/><text fill="#000000" font-family="Helvetica" font-size="14" lengthAdjust="spacing" textLength="393.0117" x="1078.522" y="340.7803">GetFleetAppsManagementSchedulerDefinitionScheduledFleets</text></g><path d="M991.3257,361 L1050.0913,361 L1050.0913,367 L1040.0913,377 L983.3257,377 L983.3257,369 A8,8 0 0 1 991.3257,361" fill="#F8FAFC" style="stroke:#CBD5E1;stroke-width:1.5;"/><rect fill="none" height="86" rx="8" ry="8" style="stroke:#CBD5E1;stroke-width:1.5;" width="575.8735" x="983.3257" y="361"/><text fill="#000000" font-family="Helvetica" font-size="14" font-weight="bold" lengthAdjust="spacing" textLength="21.7656" x="998.3257" y="372.7803">opt</text><text fill="#000000" font-family="Helvetica" font-size="14" font-weight="bold" lengthAdjust="spacing" textLength="135.3516" x="1065.0913" y="373.7803">[list lookup fallback]</text><g class="message" data-entity-1="part4" data-entity-2="part5" id="msg5"><polygon fill="#0F172A" points="1517.7544,407,1527.7544,411,1517.7544,415,1521.7544,411" style="stroke:#0F172A;stroke-width:1;"/><line style="stroke:#0F172A;stroke-width:1;" x1="1071.522" x2="1523.7544" y1="411" y2="411"/><text fill="#000000" font-family="Helvetica" font-size="14" lengthAdjust="spacing" textLength="434.2324" x="1078.522" y="391.7803">ListFleetAppsManagementSchedulerDefinitionScheduledFleets(filters:</text><text fill="#000000" font-family="Helvetica" font-size="14" lengthAdjust="spacing" textLength="143.1719" x="1078.522" y="405.7803">compartment_id, state)</text></g><g class="message" data-entity-1="part5" data-entity-2="part4" id="msg6"><polygon fill="#0F172A" points="1082.522,435,1072.522,439,1082.522,443,1078.522,439" style="stroke:#0F172A;stroke-width:1;"/><line style="stroke:#0F172A;stroke-width:1;stroke-dasharray:2,2;" x1="1076.522" x2="1528.7544" y1="439" y2="439"/><text fill="#000000" font-family="Helvetica" font-size="14" lengthAdjust="spacing" textLength="156.3994" x="1088.522" y="433.7803">matching collection items</text></g><path d="M981.3257,461 L1034.6636,461 L1034.6636,467 L1024.6636,477 L973.3257,477 L973.3257,469 A8,8 0 0 1 981.3257,461" fill="#F8FAFC" style="stroke:#CBD5E1;stroke-width:1.5;"/><rect fill="none" height="204" rx="8" ry="8" style="stroke:#CBD5E1;stroke-width:1.5;" width="595.8735" x="973.3257" y="461"/><text fill="#000000" font-family="Helvetica" font-size="14" font-weight="bold" lengthAdjust="spacing" textLength="16.3379" x="988.3257" y="472.7803">alt</text><text fill="#000000" font-family="Helvetica" font-size="14" font-weight="bold" lengthAdjust="spacing" textLength="135.3447" x="1049.6636" y="473.7803">[create or bind path]</text><g class="message" data-entity-1="part4" data-entity-2="part5" id="msg7"><polygon fill="#0F172A" points="1517.7544,493,1527.7544,497,1517.7544,501,1521.7544,497" style="stroke:#0F172A;stroke-width:1;"/><line style="stroke:#0F172A;stroke-width:1;" x1="1071.522" x2="1523.7544" y1="497" y2="497"/><text fill="#000000" font-family="Helvetica" font-size="14" lengthAdjust="spacing" textLength="412.4668" x="1078.522" y="491.7803">CreateFleetAppsManagementSchedulerDefinitionScheduledFleets</text></g><path d="M991.3257,512 L1057.8706,512 L1057.8706,518 L1047.8706,528 L983.3257,528 L983.3257,520 A8,8 0 0 1 991.3257,512" fill="#F8FAFC" style="stroke:#CBD5E1;stroke-width:1.5;"/><rect fill="none" height="44" rx="8" ry="8" style="stroke:#CBD5E1;stroke-width:1.5;" width="575.8735" x="983.3257" y="512"/><text fill="#000000" font-family="Helvetica" font-size="14" font-weight="bold" lengthAdjust="spacing" textLength="29.5449" x="998.3257" y="523.7803">loop</text><text fill="#000000" font-family="Helvetica" font-size="14" font-weight="bold" lengthAdjust="spacing" textLength="215.4756" x="1072.8706" y="524.7803">[create pending PROVISIONING]</text><g class="message" data-entity-1="part4" data-entity-2="part5" id="msg8"><polygon fill="#0F172A" points="1517.7544,544,1527.7544,548,1517.7544,552,1521.7544,548" style="stroke:#0F172A;stroke-width:1;"/><line style="stroke:#0F172A;stroke-width:1;" x1="1071.522" x2="1523.7544" y1="548" y2="548"/><text fill="#000000" font-family="Helvetica" font-size="14" lengthAdjust="spacing" textLength="393.0117" x="1078.522" y="542.7803">GetFleetAppsManagementSchedulerDefinitionScheduledFleets</text></g><line style="stroke:#CBD5E1;stroke-width:1;stroke-dasharray:2,2;" x1="973.3257" x2="1569.1992" y1="564" y2="564"/><text fill="#000000" font-family="Helvetica" font-size="14" font-weight="bold" lengthAdjust="spacing" textLength="137.6484" x="978.3257" y="574.7803">[update or drift path]</text><g class="message" data-entity-1="part4" data-entity-2="part5" id="msg9"><polygon fill="#0F172A" points="1517.7544,595,1527.7544,599,1517.7544,603,1521.7544,599" style="stroke:#0F172A;stroke-width:1;"/><line style="stroke:#0F172A;stroke-width:1;" x1="1071.522" x2="1523.7544" y1="599" y2="599"/><text fill="#000000" font-family="Helvetica" font-size="14" lengthAdjust="spacing" textLength="415.5908" x="1078.522" y="593.7803">UpdateFleetAppsManagementSchedulerDefinitionScheduledFleets</text></g><path d="M991.3257,614 L1057.8706,614 L1057.8706,620 L1047.8706,630 L983.3257,630 L983.3257,622 A8,8 0 0 1 991.3257,614" fill="#F8FAFC" style="stroke:#CBD5E1;stroke-width:1.5;"/><rect fill="none" height="44" rx="8" ry="8" style="stroke:#CBD5E1;stroke-width:1.5;" width="575.8735" x="983.3257" y="614"/><text fill="#000000" font-family="Helvetica" font-size="14" font-weight="bold" lengthAdjust="spacing" textLength="29.5449" x="998.3257" y="625.7803">loop</text><text fill="#000000" font-family="Helvetica" font-size="14" font-weight="bold" lengthAdjust="spacing" textLength="190.5381" x="1072.8706" y="626.7803">[update pending UPDATING]</text><g class="message" data-entity-1="part4" data-entity-2="part5" id="msg10"><polygon fill="#0F172A" points="1517.7544,646,1527.7544,650,1517.7544,654,1521.7544,650" style="stroke:#0F172A;stroke-width:1;"/><line style="stroke:#0F172A;stroke-width:1;" x1="1071.522" x2="1523.7544" y1="650" y2="650"/><text fill="#000000" font-family="Helvetica" font-size="14" lengthAdjust="spacing" textLength="393.0117" x="1078.522" y="644.7803">GetFleetAppsManagementSchedulerDefinitionScheduledFleets</text></g><path d="M981.3257,679 L1040.0913,679 L1040.0913,685 L1030.0913,695 L973.3257,695 L973.3257,687 A8,8 0 0 1 981.3257,679" fill="#F8FAFC" style="stroke:#CBD5E1;stroke-width:1.5;"/><rect fill="none" height="130" rx="8" ry="8" style="stroke:#CBD5E1;stroke-width:1.5;" width="595.8735" x="973.3257" y="679"/><text fill="#000000" font-family="Helvetica" font-size="14" font-weight="bold" lengthAdjust="spacing" textLength="21.7656" x="988.3257" y="690.7803">opt</text><text fill="#000000" font-family="Helvetica" font-size="14" font-weight="bold" lengthAdjust="spacing" textLength="120.5859" x="1055.0913" y="691.7803">[delete requested]</text><g class="message" data-entity-1="part4" data-entity-2="part5" id="msg11"><polygon fill="#0F172A" points="1517.7544,711,1527.7544,715,1517.7544,719,1521.7544,715" style="stroke:#0F172A;stroke-width:1;"/><line style="stroke:#0F172A;stroke-width:1;" x1="1071.522" x2="1523.7544" y1="715" y2="715"/><text fill="#000000" font-family="Helvetica" font-size="14" lengthAdjust="spacing" textLength="410.915" x="1078.522" y="709.7803">DeleteFleetAppsManagementSchedulerDefinitionScheduledFleets</text></g><path d="M991.3257,730 L1057.8706,730 L1057.8706,736 L1047.8706,746 L983.3257,746 L983.3257,738 A8,8 0 0 1 991.3257,730" fill="#F8FAFC" style="stroke:#CBD5E1;stroke-width:1.5;"/><rect fill="none" height="72" rx="8" ry="8" style="stroke:#CBD5E1;stroke-width:1.5;" width="575.8735" x="983.3257" y="730"/><text fill="#000000" font-family="Helvetica" font-size="14" font-weight="bold" lengthAdjust="spacing" textLength="29.5449" x="998.3257" y="741.7803">loop</text><text fill="#000000" font-family="Helvetica" font-size="14" font-weight="bold" lengthAdjust="spacing" textLength="213.124" x="1072.8706" y="742.7803">[delete confirmation DELETING]</text><g class="message" data-entity-1="part4" data-entity-2="part5" id="msg12"><polygon fill="#0F172A" points="1517.7544,790,1527.7544,794,1517.7544,798,1521.7544,794" style="stroke:#0F172A;stroke-width:1;"/><line style="stroke:#0F172A;stroke-width:1;" x1="1071.522" x2="1523.7544" y1="794" y2="794"/><text fill="#000000" font-family="Helvetica" font-size="14" lengthAdjust="spacing" textLength="393.0117" x="1078.522" y="760.7803">GetFleetAppsManagementSchedulerDefinitionScheduledFleets</text><text fill="#000000" font-family="Helvetica" font-size="14" lengthAdjust="spacing" textLength="12.4482" x="1078.522" y="774.7803">or</text><text fill="#000000" font-family="Helvetica" font-size="14" lengthAdjust="spacing" textLength="392.2324" x="1078.522" y="788.7803">ListFleetAppsManagementSchedulerDefinitionScheduledFleets</text></g><g class="message" data-entity-1="part4" data-entity-2="part3" id="msg13"><polygon fill="#0F172A" points="688.0757,846,678.0757,850,688.0757,854,684.0757,850" style="stroke:#0F172A;stroke-width:1;"/><line style="stroke:#0F172A;stroke-width:1;stroke-dasharray:2,2;" x1="682.0757" x2="1070.522" y1="850" y2="850"/><text fill="#000000" font-family="Helvetica" font-size="14" lengthAdjust="spacing" textLength="100.7822" x="694.0757" y="830.7803">status=required,</text><text fill="#000000" font-family="Helvetica" font-size="14" lengthAdjust="spacing" textLength="230.7197" x="694.0757" y="844.7803">finalizer=retain-until-confirmed-delete</text></g><g class="message" data-entity-1="part3" data-entity-2="part2" id="msg14"><polygon fill="#0F172A" points="449.2495,888,439.2495,892,449.2495,896,445.2495,892" style="stroke:#0F172A;stroke-width:1;"/><line style="stroke:#0F172A;stroke-width:1;stroke-dasharray:2,2;" x1="443.2495" x2="676.0757" y1="892" y2="892"/><text fill="#000000" font-family="Helvetica" font-size="14" lengthAdjust="spacing" textLength="214.8262" x="455.2495" y="872.7803">requeue on provisioning, updating,</text><text fill="#000000" font-family="Helvetica" font-size="14" lengthAdjust="spacing" textLength="69.2549" x="455.2495" y="886.7803">terminating</text></g><path d="M1076,913 L1076,1327 A8,8 0 0 0 1084,1335 L1459,1335 A8,8 0 0 0 1467,1327 L1467,915 L1457,905 L1084,905 A8,8 0 0 0 1076,913" fill="#FFF7D6" style="stroke:#B45309;stroke-width:0.5;"/><path d="M1457,905 L1457,911 A4,4 0 0 0 1461,915 L1467,915 L1457,905" fill="#FFF7D6" style="stroke:#B45309;stroke-width:0.5;"/><text fill="#334155" font-family="Helvetica" font-size="14" lengthAdjust="spacing" textLength="101.165" x="1082" y="920.7803">shared diagram:</text><text fill="#334155" font-family="Helvetica" font-size="14" lengthAdjust="spacing" textLength="307.3916" x="1082" y="934.7803">shared/diagrams/shared-resolution-sequence.svg</text><text fill="#334155" font-family="Helvetica" font-size="14" lengthAdjust="spacing" textLength="143.1992" x="1082" y="948.7803">shared delete diagram:</text><text fill="#334155" font-family="Helvetica" font-size="14" lengthAdjust="spacing" textLength="284.833" x="1082" y="962.7803">shared/diagrams/shared-delete-sequence.svg</text><text fill="#334155" font-family="Helvetica" font-size="14" lengthAdjust="spacing" textLength="280.9297" x="1082" y="976.7803">Start from the shared resolution sequence for</text><text fill="#334155" font-family="Helvetica" font-size="14" lengthAdjust="spacing" textLength="260.7295" x="1082" y="990.7803">OCID binding, datasource pagination, and</text><text fill="#334155" font-family="Helvetica" font-size="14" lengthAdjust="spacing" textLength="163.4268" x="1082" y="1004.7803">create-or-update dispatch.</text><text fill="#334155" font-family="Helvetica" font-size="14" lengthAdjust="spacing" textLength="301.1982" x="1082" y="1018.7803">Layer the shared delete sequence when finalizer</text><text fill="#334155" font-family="Helvetica" font-size="14" lengthAdjust="spacing" textLength="269.2471" x="1082" y="1032.7803">retention, delete confirmation, work-request</text><text fill="#334155" font-family="Helvetica" font-size="14" lengthAdjust="spacing" textLength="199.2334" x="1082" y="1046.7803">polling, or Secret cleanup apply.</text><text fill="#334155" font-family="Helvetica" font-size="14" lengthAdjust="spacing" textLength="281.709" x="1082" y="1060.7803">archetype batch: Generated service-manager</text><text fill="#334155" font-family="Helvetica" font-size="14" lengthAdjust="spacing" textLength="266.1504" x="1082" y="1074.7803">controllers follow the shared resolution and</text><text fill="#334155" font-family="Helvetica" font-size="14" lengthAdjust="spacing" textLength="259.9297" x="1082" y="1088.7803">delete sequences with imported waits and</text><text fill="#334155" font-family="Helvetica" font-size="14" lengthAdjust="spacing" textLength="134.6064" x="1082" y="1102.7803">controller-local policy.</text><text fill="#334155" font-family="Helvetica" font-size="14" lengthAdjust="spacing" textLength="190.6611" x="1082" y="1116.7803">service: fleetappsmanagement</text><text fill="#334155" font-family="Helvetica" font-size="14" lengthAdjust="spacing" textLength="29.5723" x="1082" y="1130.7803">slug:</text><text fill="#334155" font-family="Helvetica" font-size="14" lengthAdjust="spacing" textLength="352.5703" x="1082" y="1144.7803">fleetappsmanagementschedulerdefinitionscheduledfleets</text><text fill="#334155" font-family="Helvetica" font-size="14" lengthAdjust="spacing" textLength="29.5723" x="1082" y="1158.7803">kind:</text><text fill="#334155" font-family="Helvetica" font-size="14" lengthAdjust="spacing" textLength="370.4463" x="1082" y="1172.7803">FleetAppsManagementSchedulerDefinitionScheduledFleets</text><text fill="#334155" font-family="Helvetica" font-size="14" lengthAdjust="spacing" textLength="241.2402" x="1082" y="1186.7803">archetype: generated-service-manager</text><text fill="#334155" font-family="Helvetica" font-size="14" lengthAdjust="spacing" textLength="156.4063" x="1082" y="1200.7803">status/finalizer: required /</text><text fill="#334155" font-family="Helvetica" font-size="14" lengthAdjust="spacing" textLength="174.3027" x="1082" y="1214.7803">retain-until-confirmed-delete</text><text fill="#334155" font-family="Helvetica" font-size="14" lengthAdjust="spacing" textLength="272.3984" x="1082" y="1228.7803">requeue: provisioning, updating, terminating</text><text fill="#334155" font-family="Helvetica" font-size="14" lengthAdjust="spacing" textLength="295.6816" x="1082" y="1242.7803">provider states: create PROVISIONING; update</text><text fill="#334155" font-family="Helvetica" font-size="14" lengthAdjust="spacing" textLength="192.165" x="1082" y="1256.7803">UPDATING; delete DELETING</text><text fill="#334155" font-family="Helvetica" font-size="14" lengthAdjust="spacing" textLength="319.04" x="1082" y="1270.7803">mutable/forceNew: display_name / compartment_id</text><text fill="#334155" font-family="Helvetica" font-size="14" lengthAdjust="spacing" textLength="104.3164" x="1082" y="1284.7803">open gaps: none</text><text fill="#334155" font-family="Helvetica" font-size="14" lengthAdjust="spacing" textLength="224.9023" x="1082" y="1298.7803">Scaffold metadata only; replace with</text><text fill="#334155" font-family="Helvetica" font-size="14" lengthAdjust="spacing" textLength="244.3232" x="1082" y="1312.7803">controller-specific runtime states before</text><text fill="#334155" font-family="Helvetica" font-size="14" lengthAdjust="spacing" textLength="66.1445" x="1082" y="1326.7803">promotion.</text><?plantuml-src jLTjRnit3FwkNq5qNreW5pTDqgONR42Rj5tGB2dgTPyC5B94sK9qqatInSk6_VTHzvOxn-u6PqMGm1OfaW_va5J2ZRObzxo0iEJIhRHTWE8c80kzPCx5pSAxoiepPvo77vIW7pdGaAXuPU9xP-CLBn1-HdEBKGk-MMUg_qGuE1e8kVTkrLf_hWvUlHZUj2xYsmSnAFLAlbpNSbwYRpNcHyU7pr-lQIJthVpmyEZW-7WWhyqBvorwE7Z9eeu6OOg_LsW5GWRA84PUbg7WbY-mG1idxzFP6phxfJ-RYYNAog0_HwMjZjhPxaZMwe4jjKHGpiMv-sCGGEXy_SK0k8ZEZm2rYUb4wnd15tYYdfEOZ57kTSbjt7n_gF1Vh0oIrjimMk6bjkEKlpxYX_CJaYQJvKWavl8O3thHWtAUAAu4-vlLsE1ZDKUgGyJ01d706GNYdQ7SZexVye2VKJWhzBheoVNq-kCK_QqMs9J8Fm4UO7mqkd9zTi4ILS3T4X76jlVMxb7JU9JWCJXJfKhdxT54QhwWceP9ypsxLycwCk-7sqLdGQ8Xj5jlD-BnJRIofZIxJnPaFmrob0DQqgzmPdUYwSpw3ZYxjvfyZ9EIG__vgKyHXlYCZLNIfN7gSkYD4_YW2UMEORAnuUIAIfZ31uoxsNDb97e7-kFSJLMcUMZI3Dpcw99qT_BqL6aJqOTyPeKh4WVJlQzQxa68FE8pHlOXsv2xWaUnJBDQf9g8P1jqn28aLZ1k8WYFF77OmrmJKKeUbzlYFwjLTyiLfQZiV9NaEyNqwVFrRnVJY-khYwiF_tjn4Zwa_GHLALk0qciLludmIwtx28IjimxXbq_dRtxzRkZeDr6mwNbeEmhbDcVdjTuZmBMEg1kLziIiHARpTvVllWV2cNL-PdVkc3v1ws5j64gfXQhmOyfVcYvxCu9dkQ6tXwV3oBNDAXkroLhW_PXzCBlMfcfTaOgePw7qxbO7YfDOiTUm97sQMMhhWhobRyqoyNgnZE0KRDuWxS1_tFhuLokRriWqqjm1vLq1SOdmOAFTlqgKysaWdTSJfGPCS7bmbITXoHSrNcVtW5E1cfcGEP-rlIDrADFKscUN_8woEd3MHjyxMYtHGbyiHiKYSjIMDr1r3rREtsHjcx2IYbJ7HeDXYXG5ZKA3tD8SfwURkTjdt1Edubs9zB2bU1ANwSL78KgAeAvDLhJ54NtL0w4tngssv2WXNaCHOANZ4dHHEfzihxYEeKbDRpKpJd035BCM55dhFj_qqcJ1L8kSRP24hcjatpNTaLHDrz0BK-PijuxhqvN3eajKjfwefjScVSsQ9abj1nFsxMPhkodVraimRALQXnwLpNuCURTwXYldj9tMh9lIfnrj-g5ML97F3Kw8qGAlS9NNx3JyxgjD_xvCOBoEQHmJ8HUy98VMMMHJmHNnGK91q58Jq2mmTwS4cema0bFbXsKE9Ggjj02Vaa0Ucl1XZXG19bI5IxdVxnzr_m00?></g></svg>