<?plantuml 1.2026.1?><svg xmlns="http://www.w3.org/2000/svg" xmlns:xlink="http://www.w3.org/1999/xlink" contentStyleType="text/css" data-diagram-type="STATE" height="590px" preserveAspectRatio="none" style="width:3712px;height:590px;background:#FCFCFD;" version="1.1" viewBox="0 0 3712 590" width="3712px" zoomAndPan="magnify"><title>State Machine - stackmonitoring/StackMonitoringMetricExtension</title><defs/><g><rect fill="#FCFCFD" height="590" style="stroke:none;stroke-width:1;" width="3712" x="0" y="0"/><g class="title" data-source-line="10"><text fill="#000000" font-family="Helvetica" font-size="14" font-weight="bold" lengthAdjust="spacing" textLength="437.1787" x="1630.5686" y="20.7803">State Machine - stackmonitoring/StackMonitoringMetricExtension</text></g><g><rect fill="#F8FAFC" height="62" rx="8" ry="8" style="stroke:#0F172A;stroke-width:0.5;" width="264.3643" x="329" y="403"/><line style="stroke:#0F172A;stroke-width:0.5;" x1="329" x2="593.3643" y1="427" y2="427"/><text fill="#0F172A" font-family="Helvetica" font-size="14" lengthAdjust="spacing" textLength="52.9102" x="434.7271" y="418.7803">Observe</text><text fill="#0F172A" font-family="Helvetica" font-size="14" lengthAdjust="spacing" textLength="244.3643" x="334" y="442.7803">read spec, tracked status, delete intent,</text><text fill="#0F172A" font-family="Helvetica" font-size="14" lengthAdjust="spacing" textLength="153.2822" x="334" y="456.7803">and current OCI lifecycle</text></g><rect fill="#F8FAFC" height="40" rx="8" ry="8" style="stroke:#0F172A;stroke-width:0.5;" width="104.9512" x="1390.36" y="246"/><text fill="#0F172A" font-family="Helvetica" font-size="14" lengthAdjust="spacing" textLength="94.9512" x="1395.36" y="269.7803">EvaluateReady</text><rect fill="#F8FAFC" height="40" rx="8" ry="8" style="stroke:#0F172A;stroke-width:0.5;" width="50.4688" x="2149.32" y="246"/><text fill="#0F172A" font-family="Helvetica" font-size="14" lengthAdjust="spacing" textLength="40.4688" x="2154.32" y="269.7803">Ready</text><rect fill="#F8FAFC" height="40" rx="8" ry="8" style="stroke:#0F172A;stroke-width:0.5;" width="69.917" x="1407.88" y="381"/><text fill="#0F172A" font-family="Helvetica" font-size="14" lengthAdjust="spacing" textLength="59.917" x="1412.88" y="404.7803">Retryable</text><rect fill="#F8FAFC" height="40" rx="8" ry="8" style="stroke:#0F172A;stroke-width:0.5;" width="50" x="1417.84" y="500"/><text fill="#0F172A" font-family="Helvetica" font-size="14" lengthAdjust="spacing" textLength="38.1309" x="1423.7746" y="523.7803">Failed</text><rect fill="#F8FAFC" height="40" rx="8" ry="8" style="stroke:#0F172A;stroke-width:0.5;" width="122.8477" x="871.44" y="357"/><text fill="#0F172A" font-family="Helvetica" font-size="14" lengthAdjust="spacing" textLength="112.8477" x="876.44" y="380.7803">ResolveByLookup</text><rect fill="#F8FAFC" height="40" rx="8" ry="8" style="stroke:#0F172A;stroke-width:0.5;" width="155.5098" x="1724.56" y="336"/><text fill="#0F172A" font-family="Helvetica" font-size="14" lengthAdjust="spacing" textLength="145.5098" x="1729.56" y="359.7803">RejectUnsupportedDrift</text><rect fill="#F8FAFC" height="40" rx="8" ry="8" style="stroke:#0F172A;stroke-width:0.5;" width="90.165" x="1757.23" y="175"/><text fill="#0F172A" font-family="Helvetica" font-size="14" lengthAdjust="spacing" textLength="80.165" x="1762.23" y="198.7803">ApplyUpdate</text><rect fill="#F8FAFC" height="40" rx="8" ry="8" style="stroke:#0F172A;stroke-width:0.5;" width="101.8477" x="2504.33" y="492"/><text fill="#0F172A" font-family="Helvetica" font-size="14" lengthAdjust="spacing" textLength="91.8477" x="2509.33" y="515.7803">DeletePending</text><rect fill="#F8FAFC" height="40" rx="8" ry="8" style="stroke:#0F172A;stroke-width:0.5;" width="58.2549" x="3623.6" y="426"/><text fill="#0F172A" font-family="Helvetica" font-size="14" lengthAdjust="spacing" textLength="48.2549" x="3628.6" y="449.7803">Deleted</text><rect fill="#F8FAFC" height="40" rx="8" ry="8" style="stroke:#0F172A;stroke-width:0.5;" width="152.4268" x="3133.45" y="426"/><text fill="#0F172A" font-family="Helvetica" font-size="14" lengthAdjust="spacing" textLength="142.4268" x="3138.45" y="449.7803">DeleteCleanupBlocked</text><ellipse cx="16" cy="434" fill="#222222" rx="10" ry="10" style="stroke:#222222;stroke-width:1;"/><g class="entity" data-qualified-name="GMN2" data-source-line="55" id="ent0003"><path d="M2365.78,49 L2365.78,253.48 L2200.11,264.9 L2365.78,261.48 L2365.78,449 A8,8 0 0 0 2373.78,457 L2736.7234,457 A8,8 0 0 0 2744.7234,449 L2744.7234,51 L2734.7234,41 L2373.78,41 A8,8 0 0 0 2365.78,49" fill="#FFF7D6" style="stroke:#B45309;stroke-width:0.5;"/><path d="M2734.7234,41 L2734.7234,47 A4,4 0 0 0 2738.7234,51 L2744.7234,51 L2734.7234,41" fill="#FFF7D6" style="stroke:#B45309;stroke-width:0.5;"/><text fill="#334155" font-family="Helvetica" font-size="14" lengthAdjust="spacing" textLength="101.165" x="2371.78" y="56.7803">shared diagram:</text><text fill="#334155" font-family="Helvetica" font-size="14" lengthAdjust="spacing" textLength="331.4814" x="2371.78" y="70.7803">shared/diagrams/shared-controller-state-machine.svg</text><text fill="#334155" font-family="Helvetica" font-size="14" lengthAdjust="spacing" textLength="304.2744" x="2371.78" y="84.7803">Start from the shared controller phase model and</text><text fill="#334155" font-family="Helvetica" font-size="14" lengthAdjust="spacing" textLength="261.4678" x="2371.78" y="98.7803">specialize imported provider states, delete</text><text fill="#334155" font-family="Helvetica" font-size="14" lengthAdjust="spacing" textLength="184.4336" x="2371.78" y="112.7803">targets, and failure exits here.</text><text fill="#334155" font-family="Helvetica" font-size="14" lengthAdjust="spacing" textLength="281.709" x="2371.78" y="126.7803">archetype batch: Generated service-manager</text><text fill="#334155" font-family="Helvetica" font-size="14" lengthAdjust="spacing" textLength="287.9229" x="2371.78" y="140.7803">controllers map provider states into the shared</text><text fill="#334155" font-family="Helvetica" font-size="14" lengthAdjust="spacing" textLength="261.4609" x="2371.78" y="154.7803">controller phases with explicit finalizer and</text><text fill="#334155" font-family="Helvetica" font-size="14" lengthAdjust="spacing" textLength="105.8477" x="2371.78" y="168.7803">requeue policies.</text><text fill="#334155" font-family="Helvetica" font-size="14" lengthAdjust="spacing" textLength="150.165" x="2371.78" y="182.7803">service: stackmonitoring</text><text fill="#334155" font-family="Helvetica" font-size="14" lengthAdjust="spacing" textLength="229.5439" x="2371.78" y="196.7803">slug: stackmonitoringmetricextension</text><text fill="#334155" font-family="Helvetica" font-size="14" lengthAdjust="spacing" textLength="233.4336" x="2371.78" y="210.7803">kind: StackMonitoringMetricExtension</text><text fill="#334155" font-family="Helvetica" font-size="14" lengthAdjust="spacing" textLength="241.2402" x="2371.78" y="224.7803">archetype: generated-service-manager</text><text fill="#334155" font-family="Helvetica" font-size="14" lengthAdjust="spacing" textLength="156.4063" x="2371.78" y="238.7803">status/finalizer: required /</text><text fill="#334155" font-family="Helvetica" font-size="14" lengthAdjust="spacing" textLength="174.3027" x="2371.78" y="252.7803">retain-until-confirmed-delete</text><text fill="#334155" font-family="Helvetica" font-size="14" lengthAdjust="spacing" textLength="272.3984" x="2371.78" y="266.7803">requeue: provisioning, updating, terminating</text><text fill="#334155" font-family="Helvetica" font-size="14" lengthAdjust="spacing" textLength="295.6816" x="2371.78" y="280.7803">provider states: create PROVISIONING; update</text><text fill="#334155" font-family="Helvetica" font-size="14" lengthAdjust="spacing" textLength="192.165" x="2371.78" y="294.7803">UPDATING; delete DELETING</text><text fill="#334155" font-family="Helvetica" font-size="14" lengthAdjust="spacing" textLength="183.6611" x="2371.78" y="308.7803">supported drift: display_name</text><text fill="#334155" font-family="Helvetica" font-size="14" lengthAdjust="spacing" textLength="230.3301" x="2371.78" y="322.7803">reject before mutate: force-new fields</text><text fill="#334155" font-family="Helvetica" font-size="14" lengthAdjust="spacing" textLength="100.3789" x="2371.78" y="336.7803">compartment_id</text><text fill="#334155" font-family="Helvetica" font-size="14" lengthAdjust="spacing" textLength="66.1445" x="2371.78" y="350.7803">list lookup:</text><text fill="#334155" font-family="Helvetica" font-size="14" lengthAdjust="spacing" textLength="357.9434" x="2371.78" y="364.7803">scaffold_stackmonitoring_stackmonitoringmetricextension</text><text fill="#334155" font-family="Helvetica" font-size="14" lengthAdjust="spacing" textLength="175.8477" x="2371.78" y="378.7803">filters compartment_id, state</text><text fill="#334155" font-family="Helvetica" font-size="14" lengthAdjust="spacing" textLength="89.4961" x="2371.78" y="392.7803">conflicts: none</text><text fill="#334155" font-family="Helvetica" font-size="14" lengthAdjust="spacing" textLength="104.3164" x="2371.78" y="406.7803">open gaps: none</text><text fill="#334155" font-family="Helvetica" font-size="14" lengthAdjust="spacing" textLength="224.9023" x="2371.78" y="420.7803">Scaffold metadata only; replace with</text><text fill="#334155" font-family="Helvetica" font-size="14" lengthAdjust="spacing" textLength="244.3232" x="2371.78" y="434.7803">controller-specific runtime states before</text><text fill="#334155" font-family="Helvetica" font-size="14" lengthAdjust="spacing" textLength="66.1445" x="2371.78" y="448.7803">promotion.</text></g><g class="entity" data-qualified-name="GMN5" data-source-line="86" id="ent0006"><path d="M3079.73,509 L3079.73,531.26 L2606.64,514.24 L3079.73,539.26 L3079.73,573 A8,8 0 0 0 3087.73,581 L3331.605,581 A8,8 0 0 0 3339.605,573 L3339.605,511 L3329.605,501 L3087.73,501 A8,8 0 0 0 3079.73,509" fill="#FFF7D6" style="stroke:#B45309;stroke-width:0.5;"/><path d="M3329.605,501 L3329.605,507 A4,4 0 0 0 3333.605,511 L3339.605,511 L3329.605,501" fill="#FFF7D6" style="stroke:#B45309;stroke-width:0.5;"/><text fill="#334155" font-family="Helvetica" font-size="14" lengthAdjust="spacing" textLength="136.9717" x="3085.73" y="516.7803">delete policy: required</text><text fill="#334155" font-family="Helvetica" font-size="14" lengthAdjust="spacing" textLength="95.7305" x="3085.73" y="530.7803">delete observe:</text><text fill="#334155" font-family="Helvetica" font-size="14" lengthAdjust="spacing" textLength="238.875" x="3085.73" y="544.7803">GetStackMonitoringMetricExtension or</text><text fill="#334155" font-family="Helvetica" font-size="14" lengthAdjust="spacing" textLength="221.7578" x="3085.73" y="558.7803">ListStackMonitoringMetricExtension</text><text fill="#334155" font-family="Helvetica" font-size="14" lengthAdjust="spacing" textLength="157.1855" x="3085.73" y="572.7803">delete targets: DELETED</text></g><!--link *start* to observe--><g class="link" data-entity-1="ent0002" data-entity-2="ent0002" data-link-type="dependency" data-source-line="32" id="lnk3"><path d="M26.26,434 C64.76,434 209.49,434 322.57,434" fill="none" id="*start*-to-observe" style="stroke:#0F172A;stroke-width:1;"/><polygon fill="#0F172A" points="328.57,434,319.57,430,323.57,434,319.57,438,328.57,434" style="stroke:#0F172A;stroke-width:1;"/><text fill="#000000" font-family="Helvetica" font-size="14" lengthAdjust="spacing" textLength="241.9922" x="57" y="429.7803">CreateStackMonitoringMetricExtension</text></g><!--link observe to resolve_by_lookup--><g class="link" data-entity-1="ent0002" data-entity-2="ent0007" data-link-type="dependency" data-source-line="33" id="lnk4"><path d="M593.64,418.05 C684.55,407.01 795.3337,393.5731 865.1837,385.0931" fill="none" id="observe-to-resolve_by_lookup" style="stroke:#0F172A;stroke-width:1;"/><polygon fill="#0F172A" points="871.14,384.37,861.7235,381.4838,866.1764,384.9726,862.6877,389.4255,871.14,384.37" style="stroke:#0F172A;stroke-width:1;"/><text fill="#000000" font-family="Helvetica" font-size="14" lengthAdjust="spacing" textLength="145.5029" x="624.36" y="392.8403">tracked identity missing</text></g><!--link resolve_by_lookup to evaluate_ready--><g class="link" data-entity-1="ent0007" data-entity-2="ent0003" data-link-type="dependency" data-source-line="34" id="lnk5"><path d="M994.57,365.58 C1108.1,344.19 1342.77,299.79 1360.36,295 C1370.07,292.36 1374.6038,291.0543 1384.3838,287.7043" fill="none" id="resolve_by_lookup-to-evaluate_ready" style="stroke:#0F172A;stroke-width:1;"/><polygon fill="#0F172A" points="1390.06,285.76,1380.2494,284.8923,1385.3298,287.3803,1382.8419,292.4606,1390.06,285.76" style="stroke:#0F172A;stroke-width:1;"/><text fill="#000000" font-family="Helvetica" font-size="14" lengthAdjust="spacing" textLength="154.0889" x="1150.86" y="276.7803">lookup or create reaches</text><text fill="#000000" font-family="Helvetica" font-size="14" lengthAdjust="spacing" textLength="50.5654" x="1202.6217" y="290.7803">ACTIVE</text></g><!--link resolve_by_lookup to retryable--><g class="link" data-entity-1="ent0007" data-entity-2="ent0005" data-link-type="dependency" data-source-line="35" id="lnk6"><path d="M994.63,379.87 C1102.21,384.95 1316.8067,395.0973 1401.5967,399.0973" fill="none" id="resolve_by_lookup-to-retryable" style="stroke:#0F172A;stroke-width:1;"/><polygon fill="#0F172A" points="1407.59,399.38,1398.7885,394.9603,1402.5956,399.1444,1398.4115,402.9514,1407.59,399.38" style="stroke:#0F172A;stroke-width:1;"/><text fill="#000000" font-family="Helvetica" font-size="14" lengthAdjust="spacing" textLength="184.3789" x="1135.86" y="366.5403">OCI state in PROVISIONING,</text><text fill="#000000" font-family="Helvetica" font-size="14" lengthAdjust="spacing" textLength="150.1309" x="1152.984" y="380.5403">UPDATING, DELETING</text></g><!--link resolve_by_lookup to failed--><g class="link" data-entity-1="ent0007" data-entity-2="ent0006" data-link-type="dependency" data-source-line="36" id="lnk7"><path d="M994.63,394.11 C1106.69,425.65 1335.5847,490.0834 1411.6747,511.5134" fill="none" id="resolve_by_lookup-to-failed" style="stroke:#0F172A;stroke-width:1;"/><polygon fill="#0F172A" points="1417.45,513.14,1409.8714,506.8499,1412.6372,511.7845,1407.7026,514.5504,1417.45,513.14" style="stroke:#0F172A;stroke-width:1;"/><text fill="#000000" font-family="Helvetica" font-size="14" lengthAdjust="spacing" textLength="263.7783" x="1096.36" y="419.0303">unresolved OCI error or non-success state</text></g><!--link observe to evaluate_ready--><g class="link" data-entity-1="ent0002" data-entity-2="ent0003" data-link-type="dependency" data-source-line="37" id="lnk8"><path d="M538.96,402.64 C565.45,392.43 595.47,381.55 623.36,373 C829.5,309.82 881.22,286.06 1095.36,261 C1199.33,248.83 1316.0497,255.0341 1383.9897,260.5541" fill="none" id="observe-to-evaluate_ready" style="stroke:#0F172A;stroke-width:1;"/><polygon fill="#0F172A" points="1389.97,261.04,1381.3235,256.3243,1384.9864,260.6351,1380.6756,264.298,1389.97,261.04" style="stroke:#0F172A;stroke-width:1;"/><text fill="#000000" font-family="Helvetica" font-size="14" lengthAdjust="spacing" textLength="128.3721" x="868.86" y="260.9503">OCI state in ACTIVE</text></g><!--link observe to retryable--><g class="link" data-entity-1="ent0002" data-entity-2="ent0005" data-link-type="dependency" data-source-line="38" id="lnk9"><path d="M593.47,438.33 C656.11,440.38 732.11,442.85 800.36,445 C1049.16,452.84 1121.72,524.79 1360.36,454 C1371.77,450.62 1390.445,438.3638 1409.305,424.9138" fill="none" id="observe-to-retryable" style="stroke:#0F172A;stroke-width:1;"/><polygon fill="#0F172A" points="1414.19,421.43,1404.54,423.3989,1410.1191,424.3331,1409.185,429.9123,1414.19,421.43" style="stroke:#0F172A;stroke-width:1;"/><text fill="#000000" font-family="Helvetica" font-size="14" lengthAdjust="spacing" textLength="184.3789" x="840.86" y="426.7803">OCI state in PROVISIONING,</text><text fill="#000000" font-family="Helvetica" font-size="14" lengthAdjust="spacing" textLength="150.1309" x="857.984" y="440.7803">UPDATING, DELETING</text></g><!--link observe to failed--><g class="link" data-entity-1="ent0002" data-entity-2="ent0006" data-link-type="dependency" data-source-line="39" id="lnk10"><path d="M593.52,464.76 C655.83,478.03 731.56,492.26 800.36,500 C1039.8,526.92 1326.4516,522.7695 1411.5616,520.7895" fill="none" id="observe-to-failed" style="stroke:#0F172A;stroke-width:1;"/><polygon fill="#0F172A" points="1417.56,520.65,1408.4694,516.8604,1412.5614,520.7663,1408.6555,524.8582,1417.56,520.65" style="stroke:#0F172A;stroke-width:1;"/><text fill="#000000" font-family="Helvetica" font-size="14" lengthAdjust="spacing" textLength="263.7783" x="801.36" y="495.7803">unresolved OCI error or non-success state</text></g><!--link evaluate_ready to reject_unsupported_drift--><g class="link" data-entity-1="ent0003" data-entity-2="ent0008" data-link-type="dependency" data-source-line="40" id="lnk11"><path d="M1467.06,286.48 C1482.49,298.89 1503.81,313.85 1525.32,322 C1589.53,346.35 1661.6042,353.9058 1718.3042,356.0258" fill="none" id="evaluate_ready-to-reject_unsupported_drift" style="stroke:#0F172A;stroke-width:1;"/><polygon fill="#0F172A" points="1724.3,356.25,1715.4557,351.9165,1719.3035,356.0632,1715.1568,359.9109,1724.3,356.25" style="stroke:#0F172A;stroke-width:1;"/><text fill="#000000" font-family="Helvetica" font-size="14" lengthAdjust="spacing" textLength="143.9512" x="1536.32" y="303.7803">force-new or conflicting</text><text fill="#000000" font-family="Helvetica" font-size="14" lengthAdjust="spacing" textLength="80.9375" x="1567.8268" y="317.7803">drift detected</text></g><!--link reject_unsupported_drift to ready--><g class="link" data-entity-1="ent0008" data-entity-2="ent0004" data-link-type="dependency" data-source-line="41" id="lnk12"><path d="M1880.32,355.06 C1946.2,351.77 2042.3,341 2119.32,308 C2131.36,302.84 2138.4802,298.2363 2147.9202,290.2463" fill="none" id="reject_unsupported_drift-to-ready" style="stroke:#0F172A;stroke-width:1;"/><polygon fill="#0F172A" points="2152.5,286.37,2143.0461,289.1313,2148.6835,289.6003,2148.2146,295.2376,2152.5,286.37" style="stroke:#0F172A;stroke-width:1;"/><text fill="#000000" font-family="Helvetica" font-size="14" lengthAdjust="spacing" textLength="203.8818" x="1915.32" y="303.7803">wait for spec or live state change</text></g><!--link evaluate_ready to apply_update--><g class="link" data-entity-1="ent0003" data-entity-2="ent0009" data-link-type="dependency" data-source-line="42" id="lnk13"><path d="M1495.72,248.96 C1505.49,246.07 1515.67,243.27 1525.32,241 C1606.17,221.95 1696.2022,208.6097 1751.0322,201.3297" fill="none" id="evaluate_ready-to-apply_update" style="stroke:#0F172A;stroke-width:1;"/><polygon fill="#0F172A" points="1756.98,200.54,1747.5318,197.7594,1752.0235,201.1981,1748.5848,205.6898,1756.98,200.54" style="stroke:#0F172A;stroke-width:1;"/><text fill="#000000" font-family="Helvetica" font-size="14" lengthAdjust="spacing" textLength="163.4199" x="1526.32" y="192.0903">supported mutable drift for</text><text fill="#000000" font-family="Helvetica" font-size="14" lengthAdjust="spacing" textLength="86.3857" x="1564.8371" y="206.0903">display_name</text></g><!--link apply_update to ready--><g class="link" data-entity-1="ent0009" data-entity-2="ent0004" data-link-type="dependency" data-source-line="43" id="lnk14"><path d="M1847.88,197.45 C1909.86,201.76 2025.1,213.07 2119.32,241 C2129.36,243.98 2134.5025,245.9001 2143.6125,250.2801" fill="none" id="apply_update-to-ready" style="stroke:#0F172A;stroke-width:1;"/><polygon fill="#0F172A" points="2149.02,252.88,2142.642,245.3752,2144.5138,250.7135,2139.1756,252.5852,2149.02,252.88" style="stroke:#0F172A;stroke-width:1;"/><text fill="#000000" font-family="Helvetica" font-size="14" lengthAdjust="spacing" textLength="141.6543" x="1946.32" y="199.4503">update path completes</text></g><!--link evaluate_ready to ready--><g class="link" data-entity-1="ent0003" data-entity-2="ent0004" data-link-type="dependency" data-source-line="44" id="lnk15"><path d="M1495.73,266 C1640.46,266 2038.77,266 2142.86,266" fill="none" id="evaluate_ready-to-ready" style="stroke:#0F172A;stroke-width:1;"/><polygon fill="#0F172A" points="2148.86,266,2139.86,262,2143.86,266,2139.86,270,2148.86,266" style="stroke:#0F172A;stroke-width:1;"/><text fill="#000000" font-family="Helvetica" font-size="14" lengthAdjust="spacing" textLength="162.6406" x="1721.32" y="261.7803">no supported drift remains</text></g><!--link ready to ready--><g class="link" data-entity-1="ent0004" data-entity-2="ent0004" data-link-type="dependency" data-source-line="45" id="lnk16"><path d="M2157.35,245.69 C2150,228.73 2155.74,211 2174.55,211 C2193.36,211 2201.4858,223.2247 2194.1358,240.1847" fill="none" id="ready-to-ready" style="stroke:#0F172A;stroke-width:1;"/><polygon fill="#0F172A" points="2191.75,245.69,2198.9989,239.0227,2193.7382,241.1023,2191.6586,235.8416,2191.75,245.69" style="stroke:#0F172A;stroke-width:1;"/><text fill="#000000" font-family="Helvetica" font-size="14" lengthAdjust="spacing" textLength="162.6406" x="2093.55" y="201.7803">no supported drift remains</text></g><!--link retryable to retryable--><g class="link" data-entity-1="ent0005" data-entity-2="ent0005" data-link-type="dependency" data-source-line="46" id="lnk17"><path d="M1416.63,380.69 C1405.42,363.73 1414.16,346 1442.84,346 C1471.52,346 1483.5564,358.7232 1472.3564,375.6832" fill="none" id="retryable-to-retryable" style="stroke:#0F172A;stroke-width:1;"/><polygon fill="#0F172A" points="1469.05,380.69,1477.3474,375.3841,1471.8053,376.5177,1470.6717,370.9756,1469.05,380.69" style="stroke:#0F172A;stroke-width:1;"/><text fill="#000000" font-family="Helvetica" font-size="14" lengthAdjust="spacing" textLength="136.9307" x="1374.84" y="336.7803">OCI remains retryable</text></g><!--link failed to failed--><g class="link" data-entity-1="ent0006" data-entity-2="ent0006" data-link-type="dependency" data-source-line="47" id="lnk18"><path d="M1417.41,500.83 C1405.04,483.53 1413.52,465 1442.84,465 C1472.16,465 1484.1298,478.6493 1471.7598,495.9493" fill="none" id="failed-to-failed" style="stroke:#0F172A;stroke-width:1;"/><polygon fill="#0F172A" points="1468.27,500.83,1476.7585,495.8355,1471.1782,496.7628,1470.251,491.1824,1468.27,500.83" style="stroke:#0F172A;stroke-width:1;"/><text fill="#000000" font-family="Helvetica" font-size="14" lengthAdjust="spacing" textLength="132.2549" x="1376.84" y="455.7803">OCI remains terminal</text></g><!--link ready to delete_pending--><g class="link" data-entity-1="ent0004" data-entity-2="ent0010" data-link-type="dependency" data-source-line="48" id="lnk19"><path d="M2200.1,281.72 C2234.51,304.84 2297.19,351.04 2335.78,404 C2355.96,431.68 2339.2,453.39 2365.78,475 C2404.6,506.55 2456.6407,513.7402 2498.0407,514.3602" fill="none" id="ready-to-delete_pending" style="stroke:#0F172A;stroke-width:1;"/><polygon fill="#0F172A" points="2504.04,514.45,2495.1009,510.3157,2499.0406,514.3751,2494.9811,518.3148,2504.04,514.45" style="stroke:#0F172A;stroke-width:1;"/><text fill="#000000" font-family="Helvetica" font-size="14" lengthAdjust="spacing" textLength="104.3027" x="2230.78" y="299.3403">delete requested</text></g><!--link retryable to delete_pending--><g class="link" data-entity-1="ent0005" data-entity-2="ent0010" data-link-type="dependency" data-source-line="49" id="lnk20"><path d="M1478.29,404.21 C1597.27,415.32 2001.9,453.38 2335.78,488 C2393.47,493.98 2453.7176,500.6493 2497.9876,505.6293" fill="none" id="retryable-to-delete_pending" style="stroke:#0F172A;stroke-width:1;"/><polygon fill="#0F172A" points="2503.95,506.3,2495.4536,501.319,2498.9813,505.7411,2494.5593,509.2689,2503.95,506.3" style="stroke:#0F172A;stroke-width:1;"/><text fill="#000000" font-family="Helvetica" font-size="14" lengthAdjust="spacing" textLength="104.3027" x="1964.82" y="442.3703">delete requested</text></g><!--link failed to delete_pending--><g class="link" data-entity-1="ent0006" data-entity-2="ent0010" data-link-type="dependency" data-source-line="50" id="lnk21"><path d="M1468.33,519.82 C1608.42,518.81 2302.9402,513.8134 2497.8602,512.4034" fill="none" id="failed-to-delete_pending" style="stroke:#0F172A;stroke-width:1;"/><polygon fill="#0F172A" points="2503.86,512.36,2494.8313,508.4252,2498.8601,512.3962,2494.8892,516.425,2503.86,512.36" style="stroke:#0F172A;stroke-width:1;"/><text fill="#000000" font-family="Helvetica" font-size="14" lengthAdjust="spacing" textLength="104.3027" x="1964.82" y="510.9503">delete requested</text></g><!--link delete_pending to delete_cleanup_blocked--><g class="link" data-entity-1="ent0010" data-entity-2="ent0012" data-link-type="dependency" data-source-line="51" id="lnk22"><path d="M2606.64,506.9 C2720.51,495.38 2992.3104,467.8837 3126.9904,454.2637" fill="none" id="delete_pending-to-delete_cleanup_blocked" style="stroke:#0F172A;stroke-width:1;"/><polygon fill="#0F172A" points="3132.96,453.66,3123.6032,450.5858,3127.9854,454.1631,3124.4081,458.5452,3132.96,453.66" style="stroke:#0F172A;stroke-width:1;"/><text fill="#000000" font-family="Helvetica" font-size="14" lengthAdjust="spacing" textLength="273.1436" x="2775.73" y="459.4803">cleanup or finalizer release remains blocked</text></g><!--link delete_cleanup_blocked to deleted--><g class="link" data-entity-1="ent0012" data-entity-2="ent0011" data-link-type="dependency" data-source-line="52" id="lnk23"><path d="M3286.24,446 C3385.94,446 3550.6,446 3617.58,446" fill="none" id="delete_cleanup_blocked-to-deleted" style="stroke:#0F172A;stroke-width:1;"/><polygon fill="#0F172A" points="3623.58,446,3614.58,442,3618.58,446,3614.58,450,3623.58,446" style="stroke:#0F172A;stroke-width:1;"/><text fill="#000000" font-family="Helvetica" font-size="14" lengthAdjust="spacing" textLength="222.5645" x="3370.6" y="441.7803">retry delete completion until allowed</text></g><!--link deleted to deleted--><g class="link" data-entity-1="ent0011" data-entity-2="ent0011" data-link-type="dependency" data-source-line="53" id="lnk24"><path d="M3625.54,425.69 C3613.92,408.73 3622.98,391 3652.73,391 C3682.48,391 3694.9312,403.7803 3683.3112,420.7403" fill="none" id="deleted-to-deleted" style="stroke:#0F172A;stroke-width:1;"/><polygon fill="#0F172A" points="3679.92,425.69,3688.3067,420.5263,3682.746,421.5653,3681.7071,416.0046,3679.92,425.69" style="stroke:#0F172A;stroke-width:1;"/><text fill="#000000" font-family="Helvetica" font-size="14" lengthAdjust="spacing" textLength="92.5859" x="3606.73" y="381.7803">terminal stutter</text></g><?plantuml-src dLVRRXit47tVhnYaRuLbnurpgGmKI6mdDP34GHpdfIa4YfoLs739BScrenRzzywGtDLgRTTee9SbPtWubpCpLFYgRIkyQ22iXN8tsgwW5YPW5GR9KiYlA-ywgqwSSHv-g2Nzr4X3OIqw4ryx6z-B1k5NDDSOjHHtwrpgln0EZqP2uRsxAUYFwyFdFurFMXVnrIqRwlgvUZRLSbwXBnhBewTF7lyyqU3hY_p9awF3fqz7yWGldRVeuV1P5NKq29THH8HtGgwrHPX1Y6H9uwoEpbEm3Yvv_MvOlyFejJpx5j46xUm8FIIWloku8vulQb5BbepjBt40gBSs3tk4vllDGtM4wWLjue1OzFwf3DOHeWElL-i8IdkKaUrQQuM0JHitb9WWlMxJTZRoqSKoeB_6Ho02kFpTYywkXUdewoCAjKaAM7OMdhTwlQryiXtzHYmD5b5PzUBNGXjKILQdpwfS3_E40w55kGVHKmXHfPXsOOzSC4Z7jQMmnxqlLbW5ilEULd1nSWv6roWtSdlFHmoEAFfgyzQvhrrRZ4bxY-LcOTBkLlaFYjgL3LtREXzHdNfTntA6HOjkArie5lP7NxQjsLorYXP9N_1wqQMDNkSq6V-1aaVyILhPdKMRjtRrr4X3xOfE30hRjQ-Cu-2CaMIMB9PPLFtsu-ymc_q2s-2UK7GZFa3cNfsFteeMWVHf8MvPgfuDD3e4zk2sCaFi4eVE5naHM2PpEELoZU6BVNdowVppsJqu0ui8WhETWw8jVFXuyVdyylpY_VdxDyIAgm-dBp_n9voUlJtZhti0C_K8hRD5GILWf2xbsJphx2nqKc88-RQTqDpoQyUeuifkBB_RWJ7CTvWzCJKRSpUb2RTsNkBCuarAaRErqTHDxEgBpHgAk2QPblTYv0joL6w4ZWoPQfeHZIP7ikzoBUpgJlF65KGWmmNGT365C5z4k6IL3gqHcuMbcLJj71pRKRPQ4TVaLDDonOIx8vCFM3UwDb_diH7QXkf_AlTflui4HMlK8qj-Tr8zrepe6ss56Lcnsqb8ltHAZtzs67AgnaOyh3youc7bYSReqAGZqU6omqIesGjw8tY2ejs0Wujz0xi7PNk1IWE3NEkDAfcbDaRb4RK1OOox6Q2cP_jO4X-xI8kA7mzbYhgwdsbhuJchMgnemi_B-g2imq5UpwXIedV6e9ybTi-Q_9hO3zUhwf87ETJUDH3N20LoUmJQDGUWSMGRq5ohk5fq2W_efl2gzUwQcgxFrJCCn8gmLnXfpGEHCzTvclhVT0omHe_xbV3KN-EcHNgKHBcUmnkaruzWJEuhMhAnLgme05kJ0ZIYdTx9mzUDNAYcBWIuqLHX-Asbhi6LFoIPlKgSwQWA7Kinx5Vb_ldqnLK5qwrkxJPfLE4mgkZPfURmm3mRl9_3glTxDlKxlp4E1dFdYT-QitJ0rKEyd2L6SPvhxHl2AE4lJirphFXACc8lDvpqLLZ6YseIpta_0ySpuBWqgwgV1CSzlOU1C6asL9JZ9fWRCooH-YEcbXbntDThZKQ5Yek5QDdG65zeLHaTOXdEH78fwjePjPXaOF50Hcfj8dDd5tkl3A9-cWJkc9RcAVKCM8csNr-MMu5W1OL0WBDcSqov8ESa9cvLuqBZAgcr1C-vQR1dQVQSWzquRWRx5VMczCzWKk6JDrW9SwBdPak1Vh-CuNdr1kD_auxwM_MMula0DGjkAU1vpk_PwM3jlm00?></g></svg>