<?plantuml 1.2026.1?><svg xmlns="http://www.w3.org/2000/svg" xmlns:xlink="http://www.w3.org/1999/xlink" contentStyleType="text/css" data-diagram-type="STATE" height="590px" preserveAspectRatio="none" style="width:3983px;height:590px;background:#FCFCFD;" version="1.1" viewBox="0 0 3983 590" width="3983px" zoomAndPan="magnify"><title>State Machine - databasemanagement/DatabaseManagementCloudAsmDiskGroups</title><defs/><g><rect fill="#FCFCFD" height="590" style="stroke:none;stroke-width:1;" width="3983" x="0" y="0"/><g class="title" data-source-line="10"><text fill="#000000" font-family="Helvetica" font-size="14" font-weight="bold" lengthAdjust="spacing" textLength="554.7021" x="1707.5719" y="20.7803">State Machine - databasemanagement/DatabaseManagementCloudAsmDiskGroups</text></g><g><rect fill="#F8FAFC" height="62" rx="8" ry="8" style="stroke:#0F172A;stroke-width:0.5;" width="264.3643" x="409" y="403"/><line style="stroke:#0F172A;stroke-width:0.5;" x1="409" x2="673.3643" y1="427" y2="427"/><text fill="#0F172A" font-family="Helvetica" font-size="14" lengthAdjust="spacing" textLength="52.9102" x="514.7271" y="418.7803">Observe</text><text fill="#0F172A" font-family="Helvetica" font-size="14" lengthAdjust="spacing" textLength="244.3643" x="414" y="442.7803">read spec, tracked status, delete intent,</text><text fill="#0F172A" font-family="Helvetica" font-size="14" lengthAdjust="spacing" textLength="153.2822" x="414" y="456.7803">and current OCI lifecycle</text></g><rect fill="#F8FAFC" height="40" rx="8" ry="8" style="stroke:#0F172A;stroke-width:0.5;" width="104.9512" x="1470.36" y="246"/><text fill="#0F172A" font-family="Helvetica" font-size="14" lengthAdjust="spacing" textLength="94.9512" x="1475.36" y="269.7803">EvaluateReady</text><rect fill="#F8FAFC" height="40" rx="8" ry="8" style="stroke:#0F172A;stroke-width:0.5;" width="50.4688" x="2229.32" y="246"/><text fill="#0F172A" font-family="Helvetica" font-size="14" lengthAdjust="spacing" textLength="40.4688" x="2234.32" y="269.7803">Ready</text><rect fill="#F8FAFC" height="40" rx="8" ry="8" style="stroke:#0F172A;stroke-width:0.5;" width="69.917" x="1487.88" y="381"/><text fill="#0F172A" font-family="Helvetica" font-size="14" lengthAdjust="spacing" textLength="59.917" x="1492.88" y="404.7803">Retryable</text><rect fill="#F8FAFC" height="40" rx="8" ry="8" style="stroke:#0F172A;stroke-width:0.5;" width="50" x="1497.84" y="500"/><text fill="#0F172A" font-family="Helvetica" font-size="14" lengthAdjust="spacing" textLength="38.1309" x="1503.7746" y="523.7803">Failed</text><rect fill="#F8FAFC" height="40" rx="8" ry="8" style="stroke:#0F172A;stroke-width:0.5;" width="122.8477" x="951.44" y="357"/><text fill="#0F172A" font-family="Helvetica" font-size="14" lengthAdjust="spacing" textLength="112.8477" x="956.44" y="380.7803">ResolveByLookup</text><rect fill="#F8FAFC" height="40" rx="8" ry="8" style="stroke:#0F172A;stroke-width:0.5;" width="155.5098" x="1804.56" y="336"/><text fill="#0F172A" font-family="Helvetica" font-size="14" lengthAdjust="spacing" textLength="145.5098" x="1809.56" y="359.7803">RejectUnsupportedDrift</text><rect fill="#F8FAFC" height="40" rx="8" ry="8" style="stroke:#0F172A;stroke-width:0.5;" width="90.165" x="1837.23" y="175"/><text fill="#0F172A" font-family="Helvetica" font-size="14" lengthAdjust="spacing" textLength="80.165" x="1842.23" y="198.7803">ApplyUpdate</text><rect fill="#F8FAFC" height="40" rx="8" ry="8" style="stroke:#0F172A;stroke-width:0.5;" width="101.8477" x="2640.4" y="492"/><text fill="#0F172A" font-family="Helvetica" font-size="14" lengthAdjust="spacing" textLength="91.8477" x="2645.4" y="515.7803">DeletePending</text><rect fill="#F8FAFC" height="40" rx="8" ry="8" style="stroke:#0F172A;stroke-width:0.5;" width="58.2549" x="3895.13" y="426"/><text fill="#0F172A" font-family="Helvetica" font-size="14" lengthAdjust="spacing" textLength="48.2549" x="3900.13" y="449.7803">Deleted</text><rect fill="#F8FAFC" height="40" rx="8" ry="8" style="stroke:#0F172A;stroke-width:0.5;" width="152.4268" x="3365.29" y="426"/><text fill="#0F172A" font-family="Helvetica" font-size="14" lengthAdjust="spacing" textLength="142.4268" x="3370.29" y="449.7803">DeleteCleanupBlocked</text><ellipse cx="16" cy="434" fill="#222222" rx="10" ry="10" style="stroke:#222222;stroke-width:1;"/><g class="entity" data-qualified-name="GMN2" data-source-line="55" id="ent0003"><path d="M2445.78,49 L2445.78,254.57 L2280.17,265.04 L2445.78,262.57 L2445.78,449 A8,8 0 0 0 2453.78,457 L2928.8669,457 A8,8 0 0 0 2936.8669,449 L2936.8669,51 L2926.8669,41 L2453.78,41 A8,8 0 0 0 2445.78,49" fill="#FFF7D6" style="stroke:#B45309;stroke-width:0.5;"/><path d="M2926.8669,41 L2926.8669,47 A4,4 0 0 0 2930.8669,51 L2936.8669,51 L2926.8669,41" fill="#FFF7D6" style="stroke:#B45309;stroke-width:0.5;"/><text fill="#334155" font-family="Helvetica" font-size="14" lengthAdjust="spacing" textLength="101.165" x="2451.78" y="56.7803">shared diagram:</text><text fill="#334155" font-family="Helvetica" font-size="14" lengthAdjust="spacing" textLength="331.4814" x="2451.78" y="70.7803">shared/diagrams/shared-controller-state-machine.svg</text><text fill="#334155" font-family="Helvetica" font-size="14" lengthAdjust="spacing" textLength="304.2744" x="2451.78" y="84.7803">Start from the shared controller phase model and</text><text fill="#334155" font-family="Helvetica" font-size="14" lengthAdjust="spacing" textLength="261.4678" x="2451.78" y="98.7803">specialize imported provider states, delete</text><text fill="#334155" font-family="Helvetica" font-size="14" lengthAdjust="spacing" textLength="184.4336" x="2451.78" y="112.7803">targets, and failure exits here.</text><text fill="#334155" font-family="Helvetica" font-size="14" lengthAdjust="spacing" textLength="281.709" x="2451.78" y="126.7803">archetype batch: Generated service-manager</text><text fill="#334155" font-family="Helvetica" font-size="14" lengthAdjust="spacing" textLength="287.9229" x="2451.78" y="140.7803">controllers map provider states into the shared</text><text fill="#334155" font-family="Helvetica" font-size="14" lengthAdjust="spacing" textLength="261.4609" x="2451.78" y="154.7803">controller phases with explicit finalizer and</text><text fill="#334155" font-family="Helvetica" font-size="14" lengthAdjust="spacing" textLength="105.8477" x="2451.78" y="168.7803">requeue policies.</text><text fill="#334155" font-family="Helvetica" font-size="14" lengthAdjust="spacing" textLength="191.4473" x="2451.78" y="182.7803">service: databasemanagement</text><text fill="#334155" font-family="Helvetica" font-size="14" lengthAdjust="spacing" textLength="300.4053" x="2451.78" y="196.7803">slug: databasemanagementcloudasmdiskgroups</text><text fill="#334155" font-family="Helvetica" font-size="14" lengthAdjust="spacing" textLength="312.8193" x="2451.78" y="210.7803">kind: DatabaseManagementCloudAsmDiskGroups</text><text fill="#334155" font-family="Helvetica" font-size="14" lengthAdjust="spacing" textLength="241.2402" x="2451.78" y="224.7803">archetype: generated-service-manager</text><text fill="#334155" font-family="Helvetica" font-size="14" lengthAdjust="spacing" textLength="156.4063" x="2451.78" y="238.7803">status/finalizer: required /</text><text fill="#334155" font-family="Helvetica" font-size="14" lengthAdjust="spacing" textLength="174.3027" x="2451.78" y="252.7803">retain-until-confirmed-delete</text><text fill="#334155" font-family="Helvetica" font-size="14" lengthAdjust="spacing" textLength="272.3984" x="2451.78" y="266.7803">requeue: provisioning, updating, terminating</text><text fill="#334155" font-family="Helvetica" font-size="14" lengthAdjust="spacing" textLength="295.6816" x="2451.78" y="280.7803">provider states: create PROVISIONING; update</text><text fill="#334155" font-family="Helvetica" font-size="14" lengthAdjust="spacing" textLength="192.165" x="2451.78" y="294.7803">UPDATING; delete DELETING</text><text fill="#334155" font-family="Helvetica" font-size="14" lengthAdjust="spacing" textLength="183.6611" x="2451.78" y="308.7803">supported drift: display_name</text><text fill="#334155" font-family="Helvetica" font-size="14" lengthAdjust="spacing" textLength="230.3301" x="2451.78" y="322.7803">reject before mutate: force-new fields</text><text fill="#334155" font-family="Helvetica" font-size="14" lengthAdjust="spacing" textLength="100.3789" x="2451.78" y="336.7803">compartment_id</text><text fill="#334155" font-family="Helvetica" font-size="14" lengthAdjust="spacing" textLength="66.1445" x="2451.78" y="350.7803">list lookup:</text><text fill="#334155" font-family="Helvetica" font-size="14" lengthAdjust="spacing" textLength="470.0869" x="2451.78" y="364.7803">scaffold_databasemanagement_databasemanagementcloudasmdiskgroups</text><text fill="#334155" font-family="Helvetica" font-size="14" lengthAdjust="spacing" textLength="175.8477" x="2451.78" y="378.7803">filters compartment_id, state</text><text fill="#334155" font-family="Helvetica" font-size="14" lengthAdjust="spacing" textLength="89.4961" x="2451.78" y="392.7803">conflicts: none</text><text fill="#334155" font-family="Helvetica" font-size="14" lengthAdjust="spacing" textLength="104.3164" x="2451.78" y="406.7803">open gaps: none</text><text fill="#334155" font-family="Helvetica" font-size="14" lengthAdjust="spacing" textLength="224.9023" x="2451.78" y="420.7803">Scaffold metadata only; replace with</text><text fill="#334155" font-family="Helvetica" font-size="14" lengthAdjust="spacing" textLength="244.3232" x="2451.78" y="434.7803">controller-specific runtime states before</text><text fill="#334155" font-family="Helvetica" font-size="14" lengthAdjust="spacing" textLength="66.1445" x="2451.78" y="448.7803">promotion.</text></g><g class="entity" data-qualified-name="GMN5" data-source-line="86" id="ent0006"><path d="M3271.87,509 L3271.87,530.45 L2742.58,513.95 L3271.87,538.45 L3271.87,573 A8,8 0 0 0 3279.87,581 L3603.1307,581 A8,8 0 0 0 3611.1307,573 L3611.1307,511 L3601.1307,501 L3279.87,501 A8,8 0 0 0 3271.87,509" fill="#FFF7D6" style="stroke:#B45309;stroke-width:0.5;"/><path d="M3601.1307,501 L3601.1307,507 A4,4 0 0 0 3605.1307,511 L3611.1307,511 L3601.1307,501" fill="#FFF7D6" style="stroke:#B45309;stroke-width:0.5;"/><text fill="#334155" font-family="Helvetica" font-size="14" lengthAdjust="spacing" textLength="136.9717" x="3277.87" y="516.7803">delete policy: required</text><text fill="#334155" font-family="Helvetica" font-size="14" lengthAdjust="spacing" textLength="95.7305" x="3277.87" y="530.7803">delete observe:</text><text fill="#334155" font-family="Helvetica" font-size="14" lengthAdjust="spacing" textLength="318.2607" x="3277.87" y="544.7803">GetDatabaseManagementCloudAsmDiskGroups or</text><text fill="#334155" font-family="Helvetica" font-size="14" lengthAdjust="spacing" textLength="301.1436" x="3277.87" y="558.7803">ListDatabaseManagementCloudAsmDiskGroups</text><text fill="#334155" font-family="Helvetica" font-size="14" lengthAdjust="spacing" textLength="157.1855" x="3277.87" y="572.7803">delete targets: DELETED</text></g><!--link *start* to observe--><g class="link" data-entity-1="ent0002" data-entity-2="ent0002" data-link-type="dependency" data-source-line="32" id="lnk3"><path d="M26.08,434 C70.89,434 265.79,434 402.77,434" fill="none" id="*start*-to-observe" style="stroke:#0F172A;stroke-width:1;"/><polygon fill="#0F172A" points="408.77,434,399.77,430,403.77,434,399.77,438,408.77,434" style="stroke:#0F172A;stroke-width:1;"/><text fill="#000000" font-family="Helvetica" font-size="14" lengthAdjust="spacing" textLength="321.3779" x="57" y="429.7803">CreateDatabaseManagementCloudAsmDiskGroups</text></g><!--link observe to resolve_by_lookup--><g class="link" data-entity-1="ent0002" data-entity-2="ent0007" data-link-type="dependency" data-source-line="33" id="lnk4"><path d="M673.64,418.05 C764.55,407.01 875.3337,393.5731 945.1837,385.0931" fill="none" id="observe-to-resolve_by_lookup" style="stroke:#0F172A;stroke-width:1;"/><polygon fill="#0F172A" points="951.14,384.37,941.7235,381.4838,946.1764,384.9726,942.6877,389.4255,951.14,384.37" style="stroke:#0F172A;stroke-width:1;"/><text fill="#000000" font-family="Helvetica" font-size="14" lengthAdjust="spacing" textLength="145.5029" x="704.36" y="392.8403">tracked identity missing</text></g><!--link resolve_by_lookup to evaluate_ready--><g class="link" data-entity-1="ent0007" data-entity-2="ent0003" data-link-type="dependency" data-source-line="34" id="lnk5"><path d="M1074.57,365.58 C1188.1,344.19 1422.77,299.79 1440.36,295 C1450.07,292.36 1454.6038,291.0543 1464.3838,287.7043" fill="none" id="resolve_by_lookup-to-evaluate_ready" style="stroke:#0F172A;stroke-width:1;"/><polygon fill="#0F172A" points="1470.06,285.76,1460.2494,284.8923,1465.3298,287.3803,1462.8419,292.4606,1470.06,285.76" style="stroke:#0F172A;stroke-width:1;"/><text fill="#000000" font-family="Helvetica" font-size="14" lengthAdjust="spacing" textLength="154.0889" x="1230.86" y="276.7803">lookup or create reaches</text><text fill="#000000" font-family="Helvetica" font-size="14" lengthAdjust="spacing" textLength="50.5654" x="1282.6217" y="290.7803">ACTIVE</text></g><!--link resolve_by_lookup to retryable--><g class="link" data-entity-1="ent0007" data-entity-2="ent0005" data-link-type="dependency" data-source-line="35" id="lnk6"><path d="M1074.63,379.87 C1182.21,384.95 1396.8067,395.0973 1481.5967,399.0973" fill="none" id="resolve_by_lookup-to-retryable" style="stroke:#0F172A;stroke-width:1;"/><polygon fill="#0F172A" points="1487.59,399.38,1478.7885,394.9603,1482.5956,399.1444,1478.4115,402.9514,1487.59,399.38" style="stroke:#0F172A;stroke-width:1;"/><text fill="#000000" font-family="Helvetica" font-size="14" lengthAdjust="spacing" textLength="184.3789" x="1215.86" y="366.5403">OCI state in PROVISIONING,</text><text fill="#000000" font-family="Helvetica" font-size="14" lengthAdjust="spacing" textLength="150.1309" x="1232.984" y="380.5403">UPDATING, DELETING</text></g><!--link resolve_by_lookup to failed--><g class="link" data-entity-1="ent0007" data-entity-2="ent0006" data-link-type="dependency" data-source-line="36" id="lnk7"><path d="M1074.63,394.11 C1186.69,425.65 1415.5847,490.0834 1491.6747,511.5134" fill="none" id="resolve_by_lookup-to-failed" style="stroke:#0F172A;stroke-width:1;"/><polygon fill="#0F172A" points="1497.45,513.14,1489.8714,506.8499,1492.6372,511.7845,1487.7026,514.5504,1497.45,513.14" style="stroke:#0F172A;stroke-width:1;"/><text fill="#000000" font-family="Helvetica" font-size="14" lengthAdjust="spacing" textLength="263.7783" x="1176.36" y="419.0303">unresolved OCI error or non-success state</text></g><!--link observe to evaluate_ready--><g class="link" data-entity-1="ent0002" data-entity-2="ent0003" data-link-type="dependency" data-source-line="37" id="lnk8"><path d="M618.96,402.64 C645.45,392.43 675.47,381.55 703.36,373 C909.5,309.82 961.22,286.06 1175.36,261 C1279.33,248.83 1396.0497,255.0341 1463.9897,260.5541" fill="none" id="observe-to-evaluate_ready" style="stroke:#0F172A;stroke-width:1;"/><polygon fill="#0F172A" points="1469.97,261.04,1461.3235,256.3243,1464.9864,260.6351,1460.6756,264.298,1469.97,261.04" style="stroke:#0F172A;stroke-width:1;"/><text fill="#000000" font-family="Helvetica" font-size="14" lengthAdjust="spacing" textLength="128.3721" x="948.86" y="260.9503">OCI state in ACTIVE</text></g><!--link observe to retryable--><g class="link" data-entity-1="ent0002" data-entity-2="ent0005" data-link-type="dependency" data-source-line="38" id="lnk9"><path d="M673.47,438.33 C736.11,440.38 812.11,442.85 880.36,445 C1129.16,452.84 1201.72,524.79 1440.36,454 C1451.77,450.62 1470.445,438.3638 1489.305,424.9138" fill="none" id="observe-to-retryable" style="stroke:#0F172A;stroke-width:1;"/><polygon fill="#0F172A" points="1494.19,421.43,1484.54,423.3989,1490.1191,424.3331,1489.185,429.9123,1494.19,421.43" style="stroke:#0F172A;stroke-width:1;"/><text fill="#000000" font-family="Helvetica" font-size="14" lengthAdjust="spacing" textLength="184.3789" x="920.86" y="426.7803">OCI state in PROVISIONING,</text><text fill="#000000" font-family="Helvetica" font-size="14" lengthAdjust="spacing" textLength="150.1309" x="937.984" y="440.7803">UPDATING, DELETING</text></g><!--link observe to failed--><g class="link" data-entity-1="ent0002" data-entity-2="ent0006" data-link-type="dependency" data-source-line="39" id="lnk10"><path d="M673.52,464.76 C735.83,478.03 811.56,492.26 880.36,500 C1119.8,526.92 1406.4516,522.7695 1491.5616,520.7895" fill="none" id="observe-to-failed" style="stroke:#0F172A;stroke-width:1;"/><polygon fill="#0F172A" points="1497.56,520.65,1488.4694,516.8604,1492.5614,520.7663,1488.6555,524.8582,1497.56,520.65" style="stroke:#0F172A;stroke-width:1;"/><text fill="#000000" font-family="Helvetica" font-size="14" lengthAdjust="spacing" textLength="263.7783" x="881.36" y="495.7803">unresolved OCI error or non-success state</text></g><!--link evaluate_ready to reject_unsupported_drift--><g class="link" data-entity-1="ent0003" data-entity-2="ent0008" data-link-type="dependency" data-source-line="40" id="lnk11"><path d="M1547.06,286.48 C1562.49,298.89 1583.81,313.85 1605.32,322 C1669.53,346.35 1741.6042,353.9058 1798.3042,356.0258" fill="none" id="evaluate_ready-to-reject_unsupported_drift" style="stroke:#0F172A;stroke-width:1;"/><polygon fill="#0F172A" points="1804.3,356.25,1795.4557,351.9165,1799.3035,356.0632,1795.1568,359.9109,1804.3,356.25" style="stroke:#0F172A;stroke-width:1;"/><text fill="#000000" font-family="Helvetica" font-size="14" lengthAdjust="spacing" textLength="143.9512" x="1616.32" y="303.7803">force-new or conflicting</text><text fill="#000000" font-family="Helvetica" font-size="14" lengthAdjust="spacing" textLength="80.9375" x="1647.8268" y="317.7803">drift detected</text></g><!--link reject_unsupported_drift to ready--><g class="link" data-entity-1="ent0008" data-entity-2="ent0004" data-link-type="dependency" data-source-line="41" id="lnk12"><path d="M1960.32,355.06 C2026.2,351.77 2122.3,341 2199.32,308 C2211.36,302.84 2218.4802,298.2363 2227.9202,290.2463" fill="none" id="reject_unsupported_drift-to-ready" style="stroke:#0F172A;stroke-width:1;"/><polygon fill="#0F172A" points="2232.5,286.37,2223.0461,289.1313,2228.6835,289.6003,2228.2146,295.2376,2232.5,286.37" style="stroke:#0F172A;stroke-width:1;"/><text fill="#000000" font-family="Helvetica" font-size="14" lengthAdjust="spacing" textLength="203.8818" x="1995.32" y="303.7803">wait for spec or live state change</text></g><!--link evaluate_ready to apply_update--><g class="link" data-entity-1="ent0003" data-entity-2="ent0009" data-link-type="dependency" data-source-line="42" id="lnk13"><path d="M1575.72,248.96 C1585.49,246.07 1595.67,243.27 1605.32,241 C1686.17,221.95 1776.2022,208.6097 1831.0322,201.3297" fill="none" id="evaluate_ready-to-apply_update" style="stroke:#0F172A;stroke-width:1;"/><polygon fill="#0F172A" points="1836.98,200.54,1827.5318,197.7594,1832.0235,201.1981,1828.5848,205.6898,1836.98,200.54" style="stroke:#0F172A;stroke-width:1;"/><text fill="#000000" font-family="Helvetica" font-size="14" lengthAdjust="spacing" textLength="163.4199" x="1606.32" y="192.0903">supported mutable drift for</text><text fill="#000000" font-family="Helvetica" font-size="14" lengthAdjust="spacing" textLength="86.3857" x="1644.8371" y="206.0903">display_name</text></g><!--link apply_update to ready--><g class="link" data-entity-1="ent0009" data-entity-2="ent0004" data-link-type="dependency" data-source-line="43" id="lnk14"><path d="M1927.88,197.45 C1989.86,201.76 2105.1,213.07 2199.32,241 C2209.36,243.98 2214.5025,245.9001 2223.6125,250.2801" fill="none" id="apply_update-to-ready" style="stroke:#0F172A;stroke-width:1;"/><polygon fill="#0F172A" points="2229.02,252.88,2222.642,245.3752,2224.5138,250.7135,2219.1756,252.5852,2229.02,252.88" style="stroke:#0F172A;stroke-width:1;"/><text fill="#000000" font-family="Helvetica" font-size="14" lengthAdjust="spacing" textLength="141.6543" x="2026.32" y="199.4503">update path completes</text></g><!--link evaluate_ready to ready--><g class="link" data-entity-1="ent0003" data-entity-2="ent0004" data-link-type="dependency" data-source-line="44" id="lnk15"><path d="M1575.73,266 C1720.46,266 2118.77,266 2222.86,266" fill="none" id="evaluate_ready-to-ready" style="stroke:#0F172A;stroke-width:1;"/><polygon fill="#0F172A" points="2228.86,266,2219.86,262,2223.86,266,2219.86,270,2228.86,266" style="stroke:#0F172A;stroke-width:1;"/><text fill="#000000" font-family="Helvetica" font-size="14" lengthAdjust="spacing" textLength="162.6406" x="1801.32" y="261.7803">no supported drift remains</text></g><!--link ready to ready--><g class="link" data-entity-1="ent0004" data-entity-2="ent0004" data-link-type="dependency" data-source-line="45" id="lnk16"><path d="M2237.35,245.69 C2230,228.73 2235.74,211 2254.55,211 C2273.36,211 2281.4858,223.2247 2274.1358,240.1847" fill="none" id="ready-to-ready" style="stroke:#0F172A;stroke-width:1;"/><polygon fill="#0F172A" points="2271.75,245.69,2278.9989,239.0227,2273.7382,241.1023,2271.6586,235.8416,2271.75,245.69" style="stroke:#0F172A;stroke-width:1;"/><text fill="#000000" font-family="Helvetica" font-size="14" lengthAdjust="spacing" textLength="162.6406" x="2173.55" y="201.7803">no supported drift remains</text></g><!--link retryable to retryable--><g class="link" data-entity-1="ent0005" data-entity-2="ent0005" data-link-type="dependency" data-source-line="46" id="lnk17"><path d="M1496.63,380.69 C1485.42,363.73 1494.16,346 1522.84,346 C1551.52,346 1563.5564,358.7232 1552.3564,375.6832" fill="none" id="retryable-to-retryable" style="stroke:#0F172A;stroke-width:1;"/><polygon fill="#0F172A" points="1549.05,380.69,1557.3474,375.3841,1551.8053,376.5177,1550.6717,370.9756,1549.05,380.69" style="stroke:#0F172A;stroke-width:1;"/><text fill="#000000" font-family="Helvetica" font-size="14" lengthAdjust="spacing" textLength="136.9307" x="1454.84" y="336.7803">OCI remains retryable</text></g><!--link failed to failed--><g class="link" data-entity-1="ent0006" data-entity-2="ent0006" data-link-type="dependency" data-source-line="47" id="lnk18"><path d="M1497.41,500.83 C1485.04,483.53 1493.52,465 1522.84,465 C1552.16,465 1564.1298,478.6493 1551.7598,495.9493" fill="none" id="failed-to-failed" style="stroke:#0F172A;stroke-width:1;"/><polygon fill="#0F172A" points="1548.27,500.83,1556.7585,495.8355,1551.1782,496.7628,1550.251,491.1824,1548.27,500.83" style="stroke:#0F172A;stroke-width:1;"/><text fill="#000000" font-family="Helvetica" font-size="14" lengthAdjust="spacing" textLength="132.2549" x="1456.84" y="455.7803">OCI remains terminal</text></g><!--link ready to delete_pending--><g class="link" data-entity-1="ent0004" data-entity-2="ent0010" data-link-type="dependency" data-source-line="48" id="lnk19"><path d="M2280.1,281.72 C2314.51,304.84 2377.19,351.04 2415.78,404 C2435.96,431.68 2418.73,453.98 2445.78,475 C2501.56,518.34 2580.6424,521.6448 2634.3224,518.1948" fill="none" id="ready-to-delete_pending" style="stroke:#0F172A;stroke-width:1;"/><polygon fill="#0F172A" points="2640.31,517.81,2631.072,514.3955,2635.3203,518.1307,2631.5851,522.379,2640.31,517.81" style="stroke:#0F172A;stroke-width:1;"/><text fill="#000000" font-family="Helvetica" font-size="14" lengthAdjust="spacing" textLength="104.3027" x="2310.78" y="299.3403">delete requested</text></g><!--link retryable to delete_pending--><g class="link" data-entity-1="ent0005" data-entity-2="ent0010" data-link-type="dependency" data-source-line="49" id="lnk20"><path d="M1558.12,404.26 C1723.89,420.04 2436.507,487.8516 2633.977,506.6416" fill="none" id="retryable-to-delete_pending" style="stroke:#0F172A;stroke-width:1;"/><polygon fill="#0F172A" points="2639.95,507.21,2631.3694,502.3755,2634.9725,506.7364,2630.6116,510.3395,2639.95,507.21" style="stroke:#0F172A;stroke-width:1;"/><text fill="#000000" font-family="Helvetica" font-size="14" lengthAdjust="spacing" textLength="104.3027" x="2044.82" y="442.0903">delete requested</text></g><!--link failed to delete_pending--><g class="link" data-entity-1="ent0006" data-entity-2="ent0010" data-link-type="dependency" data-source-line="50" id="lnk21"><path d="M1548.2,519.83 C1692.81,518.84 2432.9201,513.7611 2634.2301,512.3811" fill="none" id="failed-to-delete_pending" style="stroke:#0F172A;stroke-width:1;"/><polygon fill="#0F172A" points="2640.23,512.34,2631.2028,508.4018,2635.2301,512.3743,2631.2576,516.4016,2640.23,512.34" style="stroke:#0F172A;stroke-width:1;"/><text fill="#000000" font-family="Helvetica" font-size="14" lengthAdjust="spacing" textLength="104.3027" x="2044.82" y="511.2303">delete requested</text></g><!--link delete_pending to delete_cleanup_blocked--><g class="link" data-entity-1="ent0010" data-entity-2="ent0012" data-link-type="dependency" data-source-line="51" id="lnk22"><path d="M2742.58,507.57 C2871.09,496.23 3206.3532,466.6572 3358.9432,453.1972" fill="none" id="delete_pending-to-delete_cleanup_blocked" style="stroke:#0F172A;stroke-width:1;"/><polygon fill="#0F172A" points="3364.92,452.67,3355.6033,449.4763,3359.9393,453.1093,3356.3063,457.4453,3364.92,452.67" style="stroke:#0F172A;stroke-width:1;"/><text fill="#000000" font-family="Helvetica" font-size="14" lengthAdjust="spacing" textLength="273.1436" x="2967.87" y="459.4803">cleanup or finalizer release remains blocked</text></g><!--link delete_cleanup_blocked to deleted--><g class="link" data-entity-1="ent0012" data-entity-2="ent0011" data-link-type="dependency" data-source-line="52" id="lnk23"><path d="M3518.15,446 C3626.83,446 3816.07,446 3888.87,446" fill="none" id="delete_cleanup_blocked-to-deleted" style="stroke:#0F172A;stroke-width:1;"/><polygon fill="#0F172A" points="3894.87,446,3885.87,442,3889.87,446,3885.87,450,3894.87,446" style="stroke:#0F172A;stroke-width:1;"/><text fill="#000000" font-family="Helvetica" font-size="14" lengthAdjust="spacing" textLength="222.5645" x="3642.13" y="441.7803">retry delete completion until allowed</text></g><!--link deleted to deleted--><g class="link" data-entity-1="ent0011" data-entity-2="ent0011" data-link-type="dependency" data-source-line="53" id="lnk24"><path d="M3897.07,425.69 C3885.45,408.73 3894.51,391 3924.26,391 C3954.01,391 3966.4612,403.7803 3954.8412,420.7403" fill="none" id="deleted-to-deleted" style="stroke:#0F172A;stroke-width:1;"/><polygon fill="#0F172A" points="3951.45,425.69,3959.8367,420.5263,3954.276,421.5653,3953.2371,416.0046,3951.45,425.69" style="stroke:#0F172A;stroke-width:1;"/><text fill="#000000" font-family="Helvetica" font-size="14" lengthAdjust="spacing" textLength="92.5859" x="3878.26" y="381.7803">terminal stutter</text></g><?plantuml-src dLVTRnit37_NNo5qRqESD6lwCHSOaCPf5g1jWgJjopeOiiIpjUYacwHBwWxxtqTAklFvug1PuPSJIV7pHr8EDzesmekQXvLGxaxR9Q-42S12pra8URFqhhNgn1dd-K-Ln9yQI2YeH6lYMsVZ1r43_ntCBKGjnMwPQ_qD-E7HW2cyTtT5-zFgyEKlmvlMHNXppuUgUgbUZAMSL-2BnEBe-REdluuao7pXFtjsTFZy-O2Vr4ldBNX--8957GtmwoWYyFT2hhG5Fk5AHB4G0MfXnH9giF5WLaZlUzA9SQqw3lLCXvipLDk4WPcGDFx3-8x4lgf49Oap3AGaXFDgutnFGss-8nwg8r2la0YznYBtBpDGHHuTztgvYbnf3p9gPzbAA-1GDt6D5GhIwoQHivDFBXO1_2qyuI9mbxyxrkcjC2r-NO5GwoG0XJBtHEhaDlmHEVgrM1Weh7Bgs6-5Dg0IhqgVh9ZdqwI7XmRa7eyUKmWgvRGDUnY20RokRSGgx7snmYekM-_nn2zEphdH5SYrtDYvWk0Ggs_MxvoxQPlYJABD5-kvITIDy5-OjKysj4tZV0GryxgAvGwnvks6DrV4xAuUDurPVseGFJbWGUTvcmYTp2mvVud5movCKZcSUPD9st9g8A6sMIS6X6sRDyPHSeQQPERC5vd5_lZvJpwP_COtoJt1x4Pu5AIxIwJWNivGLLSSH9Z5PbhpMeT0STmN9XNRyC7xXOSmbiafAhnSGVXYZqy-ddy-VK1FZoLKGJNFgT6MNrvTV3w_Fh_uSFxX3B7nwN9s_94--UpqtIbzFQ0m0n2rjRO8gAGOS6XvSiywEmcjb112jhQLcdjnRJbLGjdEvGy7C5Jp0swFNCtEx0OswgsSbp2nS9TAv6nbDCuKk_nYiuH2n4a2vuCwie6SbJkX8wbCdKqQZSP0Skno9Unoftl3Fa8blG5Ujp6bC1j2lUYL3eqHwxd55SMsBWxzAAH6n1K6LJVKDs5tPl85wmPcipcFwq7RmFwdS5VsNI0eKeD9MUgxLUgXP0HVQolCm8ljUOBoPLvw-Bk5a4irTEBxyWCdlYyyaXXS6iqbl5me18IAei0dWqTLI0tGXzYDiGUqR0oej3OmjCwfKbbSTTWUKHikZ75tlQhntIwNYCSsue7HMwBiKbTrcsqbF5LLYoNk-Mav7vHpECZd2NPAzCuOy9E4xacT7nVxuNR9hccTyygxciSLyA9oSuKtAqf0xT0tZjkDKRVeb1wkwuAhnhjR7Be-Tq-_5XdgNaB4Cwr5gbphSVT_rJ7m5NZOPyBZV8th1l1f4kLgoiy07qE2TD9SqPASfOtWsSQbm6lHZ6tI2dQ34DWuXC3lD7OOV6rmQb3dzqMcg19cMkn2Hrm8-wpOd-vuWB5WskKkXgIT9KADZP_UMRYpy1McflnHwwrFnfGlkpHCncd83u-3tljfWhkceXrGCo5C9mbWLFPA-nfrb6gK6ASvTG6XY4snb-TF-YgWemCRfNVQhSJXIdXTPXVh5iFh3ktzVXZD7apQS2RcESqNWECIqWIDC1ppbGQZ0gFUGPHIskPQCQD3BBiQCIz5LJc30_vUDUQFAb2bJIHCRHlPAmkgspA19gd5FOkpX2z5qvslYtbUO-h97dVMh5zZKJ1A2GbpRDY0r3sLbjnJaMheq9jJG5cl7Gs9VOOpA_s167N-w8LMyfrWkzvWeQENzJnbPn0VWq6SVkmTflTHU2qsIfDFSz5FPxtd_m40?></g></svg>