<?plantuml 1.2026.1?><svg xmlns="http://www.w3.org/2000/svg" xmlns:xlink="http://www.w3.org/1999/xlink" contentStyleType="text/css" data-diagram-type="SEQUENCE" height="1273px" preserveAspectRatio="none" style="width:1147px;height:1273px;background:#FCFCFD;" version="1.1" viewBox="0 0 1147 1273" width="1147px" zoomAndPan="magnify"><title>Sequence - jms/JmsJavaReleases</title><defs/><g><rect fill="#FCFCFD" height="1273" style="stroke:none;stroke-width:1;" width="1147" x="0" y="0"/><text fill="#000000" font-family="Helvetica" font-size="14" font-weight="bold" lengthAdjust="spacing" textLength="226.4746" x="457.7827" y="25.7803">Sequence - jms/JmsJavaReleases</text><rect fill="none" height="86" rx="8" ry="8" style="stroke:#CBD5E1;stroke-width:1.5;" width="319.0269" x="705.062" y="319"/><rect fill="none" height="204" rx="8" ry="8" style="stroke:#CBD5E1;stroke-width:1.5;" width="339.0269" x="695.062" y="419"/><rect fill="none" height="44" rx="8" ry="8" style="stroke:#CBD5E1;stroke-width:1.5;" width="319.0269" x="705.062" y="470"/><rect fill="none" height="44" rx="8" ry="8" style="stroke:#CBD5E1;stroke-width:1.5;" width="319.0269" x="705.062" y="572"/><rect fill="none" height="116" rx="8" ry="8" style="stroke:#CBD5E1;stroke-width:1.5;" width="339.0269" x="695.062" y="637"/><rect fill="none" height="58" rx="8" ry="8" style="stroke:#CBD5E1;stroke-width:1.5;" width="319.0269" x="705.062" y="688"/><g class="participant-lifeline" data-entity-uid="part1" data-qualified-name="Kubernetes" id="part1-lifeline"><g><title>Kubernetes</title><rect fill="#000000" fill-opacity="0.00000" height="1152" width="8" x="39.8032" y="114"/><line style="stroke:#94A3B8;stroke-width:0.5;stroke-dasharray:5,5;" x1="43" x2="43" y1="114" y2="1266"/></g></g><g class="participant-lifeline" data-entity-uid="part2" data-qualified-name="Controller" id="part2-lifeline"><g><title>Controller</title><rect fill="#000000" fill-opacity="0.00000" height="1152" width="8" x="295.7124" y="114"/><line style="stroke:#94A3B8;stroke-width:0.5;stroke-dasharray:5,5;" x1="299.3677" x2="299.3677" y1="114" y2="1266"/></g></g><g class="participant-lifeline" data-entity-uid="part3" data-qualified-name="BaseReconciler" id="part3-lifeline"><g><title>BaseReconciler</title><rect fill="#000000" fill-opacity="0.00000" height="1152" width="8" x="534.5386" y="114"/><line style="stroke:#94A3B8;stroke-width:0.5;stroke-dasharray:5,5;" x1="538.5146" x2="538.5146" y1="114" y2="1266"/></g></g><g class="participant-lifeline" data-entity-uid="part4" data-qualified-name="ServiceManager" id="part4-lifeline"><g><title>OSOKServiceManager</title><rect fill="#000000" fill-opacity="0.00000" height="1152" width="8" x="789.2583" y="114"/><line style="stroke:#94A3B8;stroke-width:0.5;stroke-dasharray:5,5;" x1="793.062" x2="793.062" y1="114" y2="1266"/></g></g><g class="participant-lifeline" data-entity-uid="part5" data-qualified-name="OCI" id="part5-lifeline"><g><title>OCI</title><rect fill="#000000" fill-opacity="0.00000" height="1152" width="8" x="990.644" y="114"/><line style="stroke:#94A3B8;stroke-width:0.5;stroke-dasharray:5,5;" x1="994.1992" x2="994.1992" y1="114" y2="1266"/></g></g><g class="participant participant-head" data-entity-uid="part1" data-qualified-name="Kubernetes" id="part1-head"><text fill="#000000" font-family="Helvetica" font-size="14" lengthAdjust="spacing" textLength="71.6064" x="5" y="110.7803">Kubernetes</text><ellipse cx="43.8032" cy="48.5" fill="#E2E8F0" rx="8" ry="8" style="stroke:#0F172A;stroke-width:0.5;"/><path d="M43.8032,56.5 L43.8032,83.5 M30.8032,64.5 L56.8032,64.5 M43.8032,83.5 L30.8032,98.5 M43.8032,83.5 L56.8032,98.5" fill="none" style="stroke:#0F172A;stroke-width:0.5;"/></g><g class="participant participant-head" data-entity-uid="part2" data-qualified-name="Controller" id="part2-head"><rect fill="#E2E8F0" height="28" rx="8" ry="8" style="stroke:#0F172A;stroke-width:0.5;" width="74.6895" x="262.3677" y="85"/><text fill="#0F172A" font-family="Helvetica" font-size="14" lengthAdjust="spacing" textLength="60.6895" x="269.3677" y="102.7803">Controller</text></g><g class="participant participant-head" data-entity-uid="part3" data-qualified-name="BaseReconciler" id="part3-head"><rect fill="#E2E8F0" height="28" rx="8" ry="8" style="stroke:#0F172A;stroke-width:0.5;" width="112.0479" x="482.5146" y="85"/><text fill="#0F172A" font-family="Helvetica" font-size="14" lengthAdjust="spacing" textLength="98.0479" x="489.5146" y="102.7803">BaseReconciler</text></g><g class="participant participant-head" data-entity-uid="part4" data-qualified-name="ServiceManager" id="part4-head"><rect fill="#E2E8F0" height="28" rx="8" ry="8" style="stroke:#0F172A;stroke-width:0.5;" width="156.3926" x="715.062" y="85"/><text fill="#0F172A" font-family="Helvetica" font-size="14" lengthAdjust="spacing" textLength="142.3926" x="722.062" y="102.7803">OSOKServiceManager</text></g><g class="participant participant-head" data-entity-uid="part5" data-qualified-name="OCI" id="part5-head"><rect fill="#E2E8F0" height="28" rx="8" ry="8" style="stroke:#0F172A;stroke-width:0.5;" width="38.8896" x="975.1992" y="85"/><text fill="#0F172A" font-family="Helvetica" font-size="14" lengthAdjust="spacing" textLength="24.8896" x="982.1992" y="102.7803">OCI</text></g><path d="M473,137 L473,187 A8,8 0 0 0 481,195 L848,195 A8,8 0 0 0 856,187 L856,139 L846,129 L481,129 A8,8 0 0 0 473,137" fill="#FFF7D6" style="stroke:#B45309;stroke-width:0.5;"/><path d="M846,129 L846,135 A4,4 0 0 0 850,139 L856,139 L846,129" fill="#FFF7D6" style="stroke:#B45309;stroke-width:0.5;"/><text fill="#334155" font-family="Helvetica" font-size="14" lengthAdjust="spacing" textLength="111.2891" x="506.7742" y="144.7803">shared resolution:</text><text fill="#334155" font-family="Helvetica" font-size="14" lengthAdjust="spacing" textLength="307.3916" x="506.7742" y="158.7803">shared/diagrams/shared-resolution-sequence.svg</text><text fill="#334155" font-family="Helvetica" font-size="14" lengthAdjust="spacing" textLength="88.7305" x="506.7742" y="172.7803">shared delete:</text><text fill="#334155" font-family="Helvetica" font-size="14" lengthAdjust="spacing" textLength="284.833" x="506.7742" y="186.7803">shared/diagrams/shared-delete-sequence.svg</text><g class="message" data-entity-1="part1" data-entity-2="part2" id="msg1"><polygon fill="#0F172A" points="287.7124,216,297.7124,220,287.7124,224,291.7124,220" style="stroke:#0F172A;stroke-width:1;"/><line style="stroke:#0F172A;stroke-width:1;" x1="43.8032" x2="293.7124" y1="220" y2="220"/><text fill="#000000" font-family="Helvetica" font-size="14" lengthAdjust="spacing" textLength="231.9092" x="50.8032" y="214.7803">enqueue JmsJavaReleases reconcile</text></g><g class="message" data-entity-1="part2" data-entity-2="part3" id="msg2"><polygon fill="#0F172A" points="526.5386,244,536.5386,248,526.5386,252,530.5386,248" style="stroke:#0F172A;stroke-width:1;"/><line style="stroke:#0F172A;stroke-width:1;" x1="299.7124" x2="532.5386" y1="248" y2="248"/><text fill="#000000" font-family="Helvetica" font-size="14" lengthAdjust="spacing" textLength="117.4961" x="306.7124" y="242.7803">Reconcile(request)</text></g><g class="message" data-entity-1="part3" data-entity-2="part4" id="msg3"><polygon fill="#0F172A" points="781.2583,272,791.2583,276,781.2583,280,785.2583,276" style="stroke:#0F172A;stroke-width:1;"/><line style="stroke:#0F172A;stroke-width:1;" x1="538.5386" x2="787.2583" y1="276" y2="276"/><text fill="#000000" font-family="Helvetica" font-size="14" lengthAdjust="spacing" textLength="223.3232" x="545.5386" y="270.7803">reconcile desired JmsJavaReleases</text></g><g class="message" data-entity-1="part4" data-entity-2="part5" id="msg4"><polygon fill="#0F172A" points="982.644,300,992.644,304,982.644,308,986.644,304" style="stroke:#0F172A;stroke-width:1;"/><line style="stroke:#0F172A;stroke-width:1;" x1="793.2583" x2="988.644" y1="304" y2="304"/><text fill="#000000" font-family="Helvetica" font-size="14" lengthAdjust="spacing" textLength="136.165" x="800.2583" y="298.7803">GetJmsJavaReleases</text></g><path d="M713.062,319 L771.8276,319 L771.8276,325 L761.8276,335 L705.062,335 L705.062,327 A8,8 0 0 1 713.062,319" fill="#F8FAFC" style="stroke:#CBD5E1;stroke-width:1.5;"/><rect fill="none" height="86" rx="8" ry="8" style="stroke:#CBD5E1;stroke-width:1.5;" width="319.0269" x="705.062" y="319"/><text fill="#000000" font-family="Helvetica" font-size="14" font-weight="bold" lengthAdjust="spacing" textLength="21.7656" x="720.062" y="330.7803">opt</text><text fill="#000000" font-family="Helvetica" font-size="14" font-weight="bold" lengthAdjust="spacing" textLength="135.3516" x="786.8276" y="331.7803">[list lookup fallback]</text><g class="message" data-entity-1="part4" data-entity-2="part5" id="msg5"><polygon fill="#0F172A" points="982.644,365,992.644,369,982.644,373,986.644,369" style="stroke:#0F172A;stroke-width:1;"/><line style="stroke:#0F172A;stroke-width:1;" x1="793.2583" x2="988.644" y1="369" y2="369"/><text fill="#000000" font-family="Helvetica" font-size="14" lengthAdjust="spacing" textLength="177.3857" x="800.2583" y="349.7803">ListJmsJavaReleases(filters:</text><text fill="#000000" font-family="Helvetica" font-size="14" lengthAdjust="spacing" textLength="143.1719" x="800.2583" y="363.7803">compartment_id, state)</text></g><g class="message" data-entity-1="part5" data-entity-2="part4" id="msg6"><polygon fill="#0F172A" points="804.2583,393,794.2583,397,804.2583,401,800.2583,397" style="stroke:#0F172A;stroke-width:1;"/><line style="stroke:#0F172A;stroke-width:1;stroke-dasharray:2,2;" x1="798.2583" x2="993.644" y1="397" y2="397"/><text fill="#000000" font-family="Helvetica" font-size="14" lengthAdjust="spacing" textLength="156.3994" x="810.2583" y="391.7803">matching collection items</text></g><path d="M703.062,419 L756.3999,419 L756.3999,425 L746.3999,435 L695.062,435 L695.062,427 A8,8 0 0 1 703.062,419" fill="#F8FAFC" style="stroke:#CBD5E1;stroke-width:1.5;"/><rect fill="none" height="204" rx="8" ry="8" style="stroke:#CBD5E1;stroke-width:1.5;" width="339.0269" x="695.062" y="419"/><text fill="#000000" font-family="Helvetica" font-size="14" font-weight="bold" lengthAdjust="spacing" textLength="16.3379" x="710.062" y="430.7803">alt</text><text fill="#000000" font-family="Helvetica" font-size="14" font-weight="bold" lengthAdjust="spacing" textLength="135.3447" x="771.3999" y="431.7803">[create or bind path]</text><g class="message" data-entity-1="part4" data-entity-2="part5" id="msg7"><polygon fill="#0F172A" points="982.644,451,992.644,455,982.644,459,986.644,455" style="stroke:#0F172A;stroke-width:1;"/><line style="stroke:#0F172A;stroke-width:1;" x1="793.2583" x2="988.644" y1="455" y2="455"/><text fill="#000000" font-family="Helvetica" font-size="14" lengthAdjust="spacing" textLength="155.6201" x="800.2583" y="449.7803">CreateJmsJavaReleases</text></g><path d="M713.062,470 L779.6069,470 L779.6069,476 L769.6069,486 L705.062,486 L705.062,478 A8,8 0 0 1 713.062,470" fill="#F8FAFC" style="stroke:#CBD5E1;stroke-width:1.5;"/><rect fill="none" height="44" rx="8" ry="8" style="stroke:#CBD5E1;stroke-width:1.5;" width="319.0269" x="705.062" y="470"/><text fill="#000000" font-family="Helvetica" font-size="14" font-weight="bold" lengthAdjust="spacing" textLength="29.5449" x="720.062" y="481.7803">loop</text><text fill="#000000" font-family="Helvetica" font-size="14" font-weight="bold" lengthAdjust="spacing" textLength="215.4756" x="794.6069" y="482.7803">[create pending PROVISIONING]</text><g class="message" data-entity-1="part4" data-entity-2="part5" id="msg8"><polygon fill="#0F172A" points="982.644,502,992.644,506,982.644,510,986.644,506" style="stroke:#0F172A;stroke-width:1;"/><line style="stroke:#0F172A;stroke-width:1;" x1="793.2583" x2="988.644" y1="506" y2="506"/><text fill="#000000" font-family="Helvetica" font-size="14" lengthAdjust="spacing" textLength="136.165" x="800.2583" y="500.7803">GetJmsJavaReleases</text></g><line style="stroke:#CBD5E1;stroke-width:1;stroke-dasharray:2,2;" x1="695.062" x2="1034.0889" y1="522" y2="522"/><text fill="#000000" font-family="Helvetica" font-size="14" font-weight="bold" lengthAdjust="spacing" textLength="137.6484" x="700.062" y="532.7803">[update or drift path]</text><g class="message" data-entity-1="part4" data-entity-2="part5" id="msg9"><polygon fill="#0F172A" points="982.644,553,992.644,557,982.644,561,986.644,557" style="stroke:#0F172A;stroke-width:1;"/><line style="stroke:#0F172A;stroke-width:1;" x1="793.2583" x2="988.644" y1="557" y2="557"/><text fill="#000000" font-family="Helvetica" font-size="14" lengthAdjust="spacing" textLength="158.7441" x="800.2583" y="551.7803">UpdateJmsJavaReleases</text></g><path d="M713.062,572 L779.6069,572 L779.6069,578 L769.6069,588 L705.062,588 L705.062,580 A8,8 0 0 1 713.062,572" fill="#F8FAFC" style="stroke:#CBD5E1;stroke-width:1.5;"/><rect fill="none" height="44" rx="8" ry="8" style="stroke:#CBD5E1;stroke-width:1.5;" width="319.0269" x="705.062" y="572"/><text fill="#000000" font-family="Helvetica" font-size="14" font-weight="bold" lengthAdjust="spacing" textLength="29.5449" x="720.062" y="583.7803">loop</text><text fill="#000000" font-family="Helvetica" font-size="14" font-weight="bold" lengthAdjust="spacing" textLength="190.5381" x="794.6069" y="584.7803">[update pending UPDATING]</text><g class="message" data-entity-1="part4" data-entity-2="part5" id="msg10"><polygon fill="#0F172A" points="982.644,604,992.644,608,982.644,612,986.644,608" style="stroke:#0F172A;stroke-width:1;"/><line style="stroke:#0F172A;stroke-width:1;" x1="793.2583" x2="988.644" y1="608" y2="608"/><text fill="#000000" font-family="Helvetica" font-size="14" lengthAdjust="spacing" textLength="136.165" x="800.2583" y="602.7803">GetJmsJavaReleases</text></g><path d="M703.062,637 L761.8276,637 L761.8276,643 L751.8276,653 L695.062,653 L695.062,645 A8,8 0 0 1 703.062,637" fill="#F8FAFC" style="stroke:#CBD5E1;stroke-width:1.5;"/><rect fill="none" height="116" rx="8" ry="8" style="stroke:#CBD5E1;stroke-width:1.5;" width="339.0269" x="695.062" y="637"/><text fill="#000000" font-family="Helvetica" font-size="14" font-weight="bold" lengthAdjust="spacing" textLength="21.7656" x="710.062" y="648.7803">opt</text><text fill="#000000" font-family="Helvetica" font-size="14" font-weight="bold" lengthAdjust="spacing" textLength="120.5859" x="776.8276" y="649.7803">[delete requested]</text><g class="message" data-entity-1="part4" data-entity-2="part5" id="msg11"><polygon fill="#0F172A" points="982.644,669,992.644,673,982.644,677,986.644,673" style="stroke:#0F172A;stroke-width:1;"/><line style="stroke:#0F172A;stroke-width:1;" x1="793.2583" x2="988.644" y1="673" y2="673"/><text fill="#000000" font-family="Helvetica" font-size="14" lengthAdjust="spacing" textLength="154.0684" x="800.2583" y="667.7803">DeleteJmsJavaReleases</text></g><path d="M713.062,688 L779.6069,688 L779.6069,694 L769.6069,704 L705.062,704 L705.062,696 A8,8 0 0 1 713.062,688" fill="#F8FAFC" style="stroke:#CBD5E1;stroke-width:1.5;"/><rect fill="none" height="58" rx="8" ry="8" style="stroke:#CBD5E1;stroke-width:1.5;" width="319.0269" x="705.062" y="688"/><text fill="#000000" font-family="Helvetica" font-size="14" font-weight="bold" lengthAdjust="spacing" textLength="29.5449" x="720.062" y="699.7803">loop</text><text fill="#000000" font-family="Helvetica" font-size="14" font-weight="bold" lengthAdjust="spacing" textLength="213.124" x="794.6069" y="700.7803">[delete confirmation DELETING]</text><g class="message" data-entity-1="part4" data-entity-2="part5" id="msg12"><polygon fill="#0F172A" points="982.644,734,992.644,738,982.644,742,986.644,738" style="stroke:#0F172A;stroke-width:1;"/><line style="stroke:#0F172A;stroke-width:1;" x1="793.2583" x2="988.644" y1="738" y2="738"/><text fill="#000000" font-family="Helvetica" font-size="14" lengthAdjust="spacing" textLength="152.5029" x="800.2583" y="718.7803">GetJmsJavaReleases or</text><text fill="#000000" font-family="Helvetica" font-size="14" lengthAdjust="spacing" textLength="135.3857" x="800.2583" y="732.7803">ListJmsJavaReleases</text></g><g class="message" data-entity-1="part4" data-entity-2="part3" id="msg13"><polygon fill="#0F172A" points="549.5386,790,539.5386,794,549.5386,798,545.5386,794" style="stroke:#0F172A;stroke-width:1;"/><line style="stroke:#0F172A;stroke-width:1;stroke-dasharray:2,2;" x1="543.5386" x2="792.2583" y1="794" y2="794"/><text fill="#000000" font-family="Helvetica" font-size="14" lengthAdjust="spacing" textLength="100.7822" x="555.5386" y="774.7803">status=required,</text><text fill="#000000" font-family="Helvetica" font-size="14" lengthAdjust="spacing" textLength="230.7197" x="555.5386" y="788.7803">finalizer=retain-until-confirmed-delete</text></g><g class="message" data-entity-1="part3" data-entity-2="part2" id="msg14"><polygon fill="#0F172A" points="310.7124,832,300.7124,836,310.7124,840,306.7124,836" style="stroke:#0F172A;stroke-width:1;"/><line style="stroke:#0F172A;stroke-width:1;stroke-dasharray:2,2;" x1="304.7124" x2="537.5386" y1="836" y2="836"/><text fill="#000000" font-family="Helvetica" font-size="14" lengthAdjust="spacing" textLength="214.8262" x="316.7124" y="816.7803">requeue on provisioning, updating,</text><text fill="#000000" font-family="Helvetica" font-size="14" lengthAdjust="spacing" textLength="69.2549" x="316.7124" y="830.7803">terminating</text></g><path d="M798,857 L798,1243 A8,8 0 0 0 806,1251 L1130,1251 A8,8 0 0 0 1138,1243 L1138,859 L1128,849 L806,849 A8,8 0 0 0 798,857" fill="#FFF7D6" style="stroke:#B45309;stroke-width:0.5;"/><path d="M1128,849 L1128,855 A4,4 0 0 0 1132,859 L1138,859 L1128,849" fill="#FFF7D6" style="stroke:#B45309;stroke-width:0.5;"/><text fill="#334155" font-family="Helvetica" font-size="14" lengthAdjust="spacing" textLength="101.165" x="804" y="864.7803">shared diagram:</text><text fill="#334155" font-family="Helvetica" font-size="14" lengthAdjust="spacing" textLength="307.3916" x="804" y="878.7803">shared/diagrams/shared-resolution-sequence.svg</text><text fill="#334155" font-family="Helvetica" font-size="14" lengthAdjust="spacing" textLength="143.1992" x="804" y="892.7803">shared delete diagram:</text><text fill="#334155" font-family="Helvetica" font-size="14" lengthAdjust="spacing" textLength="284.833" x="804" y="906.7803">shared/diagrams/shared-delete-sequence.svg</text><text fill="#334155" font-family="Helvetica" font-size="14" lengthAdjust="spacing" textLength="280.9297" x="804" y="920.7803">Start from the shared resolution sequence for</text><text fill="#334155" font-family="Helvetica" font-size="14" lengthAdjust="spacing" textLength="260.7295" x="804" y="934.7803">OCID binding, datasource pagination, and</text><text fill="#334155" font-family="Helvetica" font-size="14" lengthAdjust="spacing" textLength="163.4268" x="804" y="948.7803">create-or-update dispatch.</text><text fill="#334155" font-family="Helvetica" font-size="14" lengthAdjust="spacing" textLength="301.1982" x="804" y="962.7803">Layer the shared delete sequence when finalizer</text><text fill="#334155" font-family="Helvetica" font-size="14" lengthAdjust="spacing" textLength="269.2471" x="804" y="976.7803">retention, delete confirmation, work-request</text><text fill="#334155" font-family="Helvetica" font-size="14" lengthAdjust="spacing" textLength="199.2334" x="804" y="990.7803">polling, or Secret cleanup apply.</text><text fill="#334155" font-family="Helvetica" font-size="14" lengthAdjust="spacing" textLength="281.709" x="804" y="1004.7803">archetype batch: Generated service-manager</text><text fill="#334155" font-family="Helvetica" font-size="14" lengthAdjust="spacing" textLength="266.1504" x="804" y="1018.7803">controllers follow the shared resolution and</text><text fill="#334155" font-family="Helvetica" font-size="14" lengthAdjust="spacing" textLength="259.9297" x="804" y="1032.7803">delete sequences with imported waits and</text><text fill="#334155" font-family="Helvetica" font-size="14" lengthAdjust="spacing" textLength="134.6064" x="804" y="1046.7803">controller-local policy.</text><text fill="#334155" font-family="Helvetica" font-size="14" lengthAdjust="spacing" textLength="73.8965" x="804" y="1060.7803">service: jms</text><text fill="#334155" font-family="Helvetica" font-size="14" lengthAdjust="spacing" textLength="133.834" x="804" y="1074.7803">slug: jmsjavareleases</text><text fill="#334155" font-family="Helvetica" font-size="14" lengthAdjust="spacing" textLength="147.0615" x="804" y="1088.7803">kind: JmsJavaReleases</text><text fill="#334155" font-family="Helvetica" font-size="14" lengthAdjust="spacing" textLength="241.2402" x="804" y="1102.7803">archetype: generated-service-manager</text><text fill="#334155" font-family="Helvetica" font-size="14" lengthAdjust="spacing" textLength="156.4063" x="804" y="1116.7803">status/finalizer: required /</text><text fill="#334155" font-family="Helvetica" font-size="14" lengthAdjust="spacing" textLength="174.3027" x="804" y="1130.7803">retain-until-confirmed-delete</text><text fill="#334155" font-family="Helvetica" font-size="14" lengthAdjust="spacing" textLength="272.3984" x="804" y="1144.7803">requeue: provisioning, updating, terminating</text><text fill="#334155" font-family="Helvetica" font-size="14" lengthAdjust="spacing" textLength="295.6816" x="804" y="1158.7803">provider states: create PROVISIONING; update</text><text fill="#334155" font-family="Helvetica" font-size="14" lengthAdjust="spacing" textLength="192.165" x="804" y="1172.7803">UPDATING; delete DELETING</text><text fill="#334155" font-family="Helvetica" font-size="14" lengthAdjust="spacing" textLength="319.04" x="804" y="1186.7803">mutable/forceNew: display_name / compartment_id</text><text fill="#334155" font-family="Helvetica" font-size="14" lengthAdjust="spacing" textLength="104.3164" x="804" y="1200.7803">open gaps: none</text><text fill="#334155" font-family="Helvetica" font-size="14" lengthAdjust="spacing" textLength="224.9023" x="804" y="1214.7803">Scaffold metadata only; replace with</text><text fill="#334155" font-family="Helvetica" font-size="14" lengthAdjust="spacing" textLength="244.3232" x="804" y="1228.7803">controller-specific runtime states before</text><text fill="#334155" font-family="Helvetica" font-size="14" lengthAdjust="spacing" textLength="66.1445" x="804" y="1242.7803">promotion.</text><?plantuml-src fLRlRzis4Fskl-BGVMa1AqwQf4qLRC2QT5tQB2xYTPy253HvajbGf4fIzhnX__kE-cL9jhjrG-305e_7z-wzEz4zIbqmot9mIoRCMkeCKgOSHgvRMJ3-c5bJQd5bbB7mNShfJ_GY1AQiLFude_qTon5-HhL2BpdR7pENVo2SdFKMcRLctMG_JazUFk_lrCRZwnqCQVfIl1X76IlGDX6Bi_FJurUZY71yitvwUdPoVjvRhz9pOpLQE7aHUUaLmXo_bAWvGWoVSpTzbxjtRCNkKI5pwAAb50YfCNvXVk-bSkskFoC0nhsn0sWDnNPfp0sVuqLwJCkKZAee2wRz_ltzW7-JfKU_ow5aYhTI3ultweoTBYveDQGi1ajy8Sxnf5lQ4UOYPIcF_eegRl2-N21Lr5EjUZZWYe1OenJQmUFNLDHxv4PpELvwCflFti_HhYJ7NvXc6Tedm1mC7msspAvkeY0wc1L9Eimz6UqZ-riKOD4PLNffTD8ycWh9CjBKJUlVyJOaRcK-SgkipI386XuFxgwNXpjHYygSqRPO4F_Ggr42g2c-H1ZvZ_0sXA9jTDWx99j0z_sf3ISx_omQXeHDmv8as-H4oib0Rcp_uOwGWsgUm5lquqXJU7AQet_6F9P5638g39P3AMufTfJZQIgLH-kI1yrD7eJEKVjFKap0UURnMKGx8Tv396UUByDeuw50F6W7qcFkGkaZfZnmYomOnS92aXe5yyj3oAwgq34_ebMqMGhA6axxS3_xxMP-CxkxkNlx3QKAc916C9I5Q409ArF_LLGVgzYzg9eqBQgF7wv__FK_8A9F4B4sC3GsGd4epNKLjnTGauBCbKfBsWGvhj_SllasL5IN1xt79XtQSQOzRH5yKxhl0vdWxya38T9CqVl9qaFFf8vBxQMA6wnT0-zqpwXVg_9GlnApmfgLTCIHYZ-fnGZV7ZHvEQVJmgzwJ5cPBJsO5FRFfcQK_B_1z8zPzWsekQTcWzIQ7FmIOMTMRjztgR6X2w-hDge84rtcJ6bfiM1PnTVe2J0Ig6wNsDYuiQYGhWYjUXJTiWrLjNTOWxuxQBr43PrO4Ob5iw3AlCTT4rWR-nWtdeqA4gd2HfqrHq91_K_UqJIMM56epL74B5-YtnH8bn_24-n7jmA2A0X1fKsSD-BmJdL7x9KowmCr2en7B1oifL-2p0jZG-urazxLfUconifmfe0mIqx8ckEJS1k9d2gpwjjdyhzj_K-t497iZEgEKW9PIoOUawdxOThLjJPoDVgdqTSRed5ySiZlqBTx5KDNYdfmkwITdFs9UTaChgWTM9UjjDsio4lF5Wgdv3gETxXEAWSfjlcampLq2iFt1CqlCat62ZfG6utHdBEKD1EG4xLWLEfNjRaaqfGac8pKwKlX2kGobHniA0ATKCE71H823Ano4xG-wbxfVmC0?></g></svg>