<?plantuml 1.2026.1?><svg xmlns="http://www.w3.org/2000/svg" xmlns:xlink="http://www.w3.org/1999/xlink" contentStyleType="text/css" data-diagram-type="ACTIVITY" height="1469px" preserveAspectRatio="none" style="width:797px;height:1469px;background:#FCFCFD;" version="1.1" viewBox="0 0 797 1469" width="797px" zoomAndPan="magnify"><title>Activity - datascience/DatascienceModelCustomMetadataArtifactContent</title><defs/><g><rect fill="#FCFCFD" height="1469" style="stroke:none;stroke-width:1;" width="797" x="0" y="0"/><g class="title" data-source-line="10"><text fill="#000000" font-family="Helvetica" font-size="14" font-weight="bold" lengthAdjust="spacing" textLength="483.8955" x="155.5127" y="30.7803">Activity - datascience/DatascienceModelCustomMetadataArtifactContent</text></g><ellipse cx="399.7415" cy="55" fill="#1D4ED8" rx="10" ry="10" style="stroke:#222222;stroke-width:1;"/><rect fill="#F8FAFC" height="48" rx="8" ry="8" style="stroke:#0F172A;stroke-width:0.5;" width="304.7852" x="247.3489" y="85"/><text fill="#0F172A" font-family="Helvetica" font-size="14" lengthAdjust="spacing" textLength="136.9375" x="257.3489" y="105.7803">Start from shared flow</text><text fill="#0F172A" font-family="Helvetica" font-size="14" lengthAdjust="spacing" textLength="284.7852" x="257.3489" y="119.7803">shared/diagrams/shared-reconcile-activity.svg</text><rect fill="#F8FAFC" height="62" rx="8" ry="8" style="stroke:#0F172A;stroke-width:0.5;" width="334.3779" x="232.5525" y="153"/><text fill="#0F172A" font-family="Helvetica" font-size="14" lengthAdjust="spacing" textLength="80.9512" x="242.5525" y="173.7803">Load desired</text><text fill="#0F172A" font-family="Helvetica" font-size="14" lengthAdjust="spacing" textLength="314.3779" x="242.5525" y="187.7803">DatascienceModelCustomMetadataArtifactContent</text><text fill="#0F172A" font-family="Helvetica" font-size="14" lengthAdjust="spacing" textLength="205.4473" x="242.5525" y="201.7803">spec and status from Kubernetes</text><rect fill="#F8FAFC" height="90" rx="8" ry="8" style="stroke:#0F172A;stroke-width:0.5;" width="356.9434" x="221.2698" y="235"/><text fill="#0F172A" font-family="Helvetica" font-size="14" lengthAdjust="spacing" textLength="135.3857" x="231.2698" y="255.7803">Resolve OCI state via</text><text fill="#0F172A" font-family="Helvetica" font-size="14" lengthAdjust="spacing" textLength="336.9434" x="231.2698" y="269.7803">GetDatascienceModelCustomMetadataArtifactContent</text><text fill="#0F172A" font-family="Helvetica" font-size="14" lengthAdjust="spacing" textLength="24.8965" x="231.2698" y="283.7803">with</text><text fill="#0F172A" font-family="Helvetica" font-size="14" lengthAdjust="spacing" textLength="336.1641" x="231.2698" y="297.7803">ListDatascienceModelCustomMetadataArtifactContent</text><text fill="#0F172A" font-family="Helvetica" font-size="14" lengthAdjust="spacing" textLength="47.4688" x="231.2698" y="311.7803">fallback</text><rect fill="#F8FAFC" height="76" rx="8" ry="8" style="stroke:#0F172A;stroke-width:0.5;" width="462.8184" x="168.3323" y="345"/><text fill="#0F172A" font-family="Helvetica" font-size="14" lengthAdjust="spacing" textLength="24.8965" x="178.3323" y="365.7803">Use</text><text fill="#0F172A" font-family="Helvetica" font-size="14" lengthAdjust="spacing" textLength="442.8184" x="178.3323" y="379.7803">scaffold_datascience_datasciencemodelcustommetadataartifactcontent</text><text fill="#0F172A" font-family="Helvetica" font-size="14" lengthAdjust="spacing" textLength="297.2402" x="178.3323" y="393.7803">filters compartment_id, state when OCID lookup</text><text fill="#0F172A" font-family="Helvetica" font-size="14" lengthAdjust="spacing" textLength="259.9023" x="178.3323" y="407.7803">or bind-versus-create needs list resolution</text><polygon fill="#E2E8F0" points="346.052,441,453.4309,441,465.4309,453,453.4309,465,346.052,465,334.052,453,346.052,441" style="stroke:#1D4ED8;stroke-width:0.5;"/><text fill="#0F172A" font-family="Helvetica" font-size="14" lengthAdjust="spacing" textLength="107.3789" x="346.052" y="456.7803">Resource exists?</text><text fill="#000000" font-family="Helvetica" font-size="14" lengthAdjust="spacing" textLength="21.7861" x="312.2659" y="449.7803">yes</text><text fill="#000000" font-family="Helvetica" font-size="14" lengthAdjust="spacing" textLength="15.5723" x="465.4309" y="449.7803">no</text><rect fill="#F8FAFC" height="48" rx="8" ry="8" style="stroke:#0F172A;stroke-width:0.5;" width="379.5225" x="11" y="475"/><text fill="#0F172A" font-family="Helvetica" font-size="14" lengthAdjust="spacing" textLength="108.1787" x="21" y="495.7803">Update path calls</text><text fill="#0F172A" font-family="Helvetica" font-size="14" lengthAdjust="spacing" textLength="359.5225" x="21" y="509.7803">UpdateDatascienceModelCustomMetadataArtifactContent</text><rect fill="#F8FAFC" height="48" rx="8" ry="8" style="stroke:#0F172A;stroke-width:0.5;" width="266.7021" x="67.4102" y="543"/><text fill="#0F172A" font-family="Helvetica" font-size="14" lengthAdjust="spacing" textLength="246.7021" x="77.4102" y="563.7803">Guard mutable fields display_name and</text><text fill="#0F172A" font-family="Helvetica" font-size="14" lengthAdjust="spacing" textLength="202.3096" x="77.4102" y="577.7803">force-new fields compartment_id</text><rect fill="#F8FAFC" height="48" rx="8" ry="8" style="stroke:#0F172A;stroke-width:0.5;" width="376.3984" x="410.5225" y="475"/><text fill="#0F172A" font-family="Helvetica" font-size="14" lengthAdjust="spacing" textLength="105.0547" x="420.5225" y="495.7803">Create path calls</text><text fill="#0F172A" font-family="Helvetica" font-size="14" lengthAdjust="spacing" textLength="356.3984" x="420.5225" y="509.7803">CreateDatascienceModelCustomMetadataArtifactContent</text><polygon fill="#E2E8F0" points="399.7415,597,411.7415,609,399.7415,621,387.7415,609,399.7415,597" style="stroke:#1D4ED8;stroke-width:0.5;"/><rect fill="#F8FAFC" height="104" rx="8" ry="8" style="stroke:#0F172A;stroke-width:0.5;" width="334.3164" x="232.5833" y="641"/><text fill="#0F172A" font-family="Helvetica" font-size="14" lengthAdjust="spacing" textLength="164.2061" x="242.5833" y="661.7803">Run provider helper hooks</text><text fill="#0F172A" font-family="Helvetica" font-size="14" lengthAdjust="spacing" textLength="219.0508" x="242.5833" y="675.7803">create=tfresource.CreateResource,</text><text fill="#0F172A" font-family="Helvetica" font-size="14" lengthAdjust="spacing" textLength="314.3164" x="242.5833" y="689.7803">tfresource.WaitForWorkRequestWithErrorHandling</text><text fill="#0F172A" font-family="Helvetica" font-size="14" lengthAdjust="spacing" textLength="215.5439" x="242.5833" y="703.7803">entity=template action=CREATED;</text><text fill="#0F172A" font-family="Helvetica" font-size="14" lengthAdjust="spacing" textLength="226.085" x="242.5833" y="717.7803">update=tfresource.UpdateResource;</text><text fill="#0F172A" font-family="Helvetica" font-size="14" lengthAdjust="spacing" textLength="212.8438" x="242.5833" y="731.7803">delete=tfresource.DeleteResource</text><rect fill="#F8FAFC" height="34" rx="8" ry="8" style="stroke:#0F172A;stroke-width:0.5;" width="263.5918" x="267.9456" y="765"/><text fill="#0F172A" font-family="Helvetica" font-size="14" lengthAdjust="spacing" textLength="243.5918" x="277.9456" y="785.7803">Apply repo-authored secret policy none</text><rect fill="#F8FAFC" height="118" rx="8" ry="8" style="stroke:#0F172A;stroke-width:0.5;" width="374.8467" x="212.3181" y="819"/><text fill="#0F172A" font-family="Helvetica" font-size="14" lengthAdjust="spacing" textLength="105.0684" x="222.3181" y="839.7803">Delete path uses</text><text fill="#0F172A" font-family="Helvetica" font-size="14" lengthAdjust="spacing" textLength="354.8467" x="222.3181" y="853.7803">DeleteDatascienceModelCustomMetadataArtifactContent</text><text fill="#0F172A" font-family="Helvetica" font-size="14" lengthAdjust="spacing" textLength="101.9375" x="222.3181" y="867.7803">with required via</text><text fill="#0F172A" font-family="Helvetica" font-size="14" lengthAdjust="spacing" textLength="336.9434" x="222.3181" y="881.7803">GetDatascienceModelCustomMetadataArtifactContent</text><text fill="#0F172A" font-family="Helvetica" font-size="14" lengthAdjust="spacing" textLength="12.4482" x="222.3181" y="895.7803">or</text><text fill="#0F172A" font-family="Helvetica" font-size="14" lengthAdjust="spacing" textLength="336.1641" x="222.3181" y="909.7803">ListDatascienceModelCustomMetadataArtifactContent</text><text fill="#0F172A" font-family="Helvetica" font-size="14" lengthAdjust="spacing" textLength="160.2822" x="222.3181" y="923.7803">to DELETED confirmation</text><rect fill="#F8FAFC" height="48" rx="8" ry="8" style="stroke:#0F172A;stroke-width:0.5;" width="279.1299" x="260.1765" y="957"/><text fill="#0F172A" font-family="Helvetica" font-size="14" lengthAdjust="spacing" textLength="259.1299" x="270.1765" y="977.7803">Project required status and finalizer policy</text><text fill="#0F172A" font-family="Helvetica" font-size="14" lengthAdjust="spacing" textLength="174.3027" x="270.1765" y="991.7803">retain-until-confirmed-delete</text><rect fill="#F8FAFC" height="34" rx="8" ry="8" style="stroke:#0F172A;stroke-width:0.5;" width="313.4189" x="243.032" y="1025"/><text fill="#0F172A" font-family="Helvetica" font-size="14" lengthAdjust="spacing" textLength="293.4189" x="253.032" y="1045.7803">Requeue on provisioning, updating, terminating</text><path d="M430.7415,1069 L430.7415,1259 L410.7415,1263 L430.7415,1267 L430.7415,1457 A0,0 0 0 0 430.7415,1457 L770.7815,1457 A0,0 0 0 0 770.7815,1457 L770.7815,1079 L760.7815,1069 L430.7415,1069 A0,0 0 0 0 430.7415,1069" fill="#FFF7D6" style="stroke:#B45309;stroke-width:0.5;"/><path d="M760.7815,1069 L760.7815,1079 L770.7815,1079 L760.7815,1069" fill="#FFF7D6" style="stroke:#B45309;stroke-width:0.5;"/><text fill="#334155" font-family="Helvetica" font-size="14" lengthAdjust="spacing" textLength="101.165" x="436.7415" y="1084.7803">shared diagram:</text><text fill="#334155" font-family="Helvetica" font-size="14" lengthAdjust="spacing" textLength="284.7852" x="436.7415" y="1098.7803">shared/diagrams/shared-reconcile-activity.svg</text><text fill="#334155" font-family="Helvetica" font-size="14" lengthAdjust="spacing" textLength="265.3438" x="436.7415" y="1112.7803">Start from the shared reconcile activity and</text><text fill="#334155" font-family="Helvetica" font-size="14" lengthAdjust="spacing" textLength="273.8955" x="436.7415" y="1126.7803">specialize provider-backed CRUD, wait, and</text><text fill="#334155" font-family="Helvetica" font-size="14" lengthAdjust="spacing" textLength="182.875" x="436.7415" y="1140.7803">status-projection details here.</text><text fill="#334155" font-family="Helvetica" font-size="14" lengthAdjust="spacing" textLength="229.5371" x="436.7415" y="1154.7803">Controller-local activity diagrams add</text><text fill="#334155" font-family="Helvetica" font-size="14" lengthAdjust="spacing" textLength="238.8955" x="436.7415" y="1168.7803">list-lookup hints, secret policies, delete</text><text fill="#334155" font-family="Helvetica" font-size="14" lengthAdjust="spacing" textLength="200.0332" x="436.7415" y="1182.7803">handling, and open formal gaps.</text><text fill="#334155" font-family="Helvetica" font-size="14" lengthAdjust="spacing" textLength="281.709" x="436.7415" y="1196.7803">archetype batch: Generated service-manager</text><text fill="#334155" font-family="Helvetica" font-size="14" lengthAdjust="spacing" textLength="291.0469" x="436.7415" y="1210.7803">controllers specialize the shared reconcile path</text><text fill="#334155" font-family="Helvetica" font-size="14" lengthAdjust="spacing" textLength="189.8477" x="436.7415" y="1224.7803">with formal runtime ownership.</text><text fill="#334155" font-family="Helvetica" font-size="14" lengthAdjust="spacing" textLength="126.8408" x="436.7415" y="1238.7803">service: datascience</text><text fill="#334155" font-family="Helvetica" font-size="14" lengthAdjust="spacing" textLength="29.5723" x="436.7415" y="1252.7803">slug:</text><text fill="#334155" font-family="Helvetica" font-size="14" lengthAdjust="spacing" textLength="304.2813" x="436.7415" y="1266.7803">datasciencemodelcustommetadataartifactcontent</text><text fill="#334155" font-family="Helvetica" font-size="14" lengthAdjust="spacing" textLength="29.5723" x="436.7415" y="1280.7803">kind:</text><text fill="#334155" font-family="Helvetica" font-size="14" lengthAdjust="spacing" textLength="314.3779" x="436.7415" y="1294.7803">DatascienceModelCustomMetadataArtifactContent</text><text fill="#334155" font-family="Helvetica" font-size="14" lengthAdjust="spacing" textLength="241.2402" x="436.7415" y="1308.7803">archetype: generated-service-manager</text><text fill="#334155" font-family="Helvetica" font-size="14" lengthAdjust="spacing" textLength="156.4063" x="436.7415" y="1322.7803">status/finalizer: required /</text><text fill="#334155" font-family="Helvetica" font-size="14" lengthAdjust="spacing" textLength="174.3027" x="436.7415" y="1336.7803">retain-until-confirmed-delete</text><text fill="#334155" font-family="Helvetica" font-size="14" lengthAdjust="spacing" textLength="272.3984" x="436.7415" y="1350.7803">requeue: provisioning, updating, terminating</text><text fill="#334155" font-family="Helvetica" font-size="14" lengthAdjust="spacing" textLength="295.6816" x="436.7415" y="1364.7803">provider states: create PROVISIONING; update</text><text fill="#334155" font-family="Helvetica" font-size="14" lengthAdjust="spacing" textLength="192.165" x="436.7415" y="1378.7803">UPDATING; delete DELETING</text><text fill="#334155" font-family="Helvetica" font-size="14" lengthAdjust="spacing" textLength="319.04" x="436.7415" y="1392.7803">mutable/forceNew: display_name / compartment_id</text><text fill="#334155" font-family="Helvetica" font-size="14" lengthAdjust="spacing" textLength="104.3164" x="436.7415" y="1406.7803">open gaps: none</text><text fill="#334155" font-family="Helvetica" font-size="14" lengthAdjust="spacing" textLength="224.9023" x="436.7415" y="1420.7803">Scaffold metadata only; replace with</text><text fill="#334155" font-family="Helvetica" font-size="14" lengthAdjust="spacing" textLength="244.3232" x="436.7415" y="1434.7803">controller-specific runtime states before</text><text fill="#334155" font-family="Helvetica" font-size="14" lengthAdjust="spacing" textLength="66.1445" x="436.7415" y="1448.7803">promotion.</text><ellipse cx="399.7415" cy="1263" fill="none" rx="11" ry="11" style="stroke:#222222;stroke-width:1;"/><ellipse cx="399.7415" cy="1263" fill="#222222" rx="6" ry="6" style="stroke:#222222;stroke-width:1;"/><line style="stroke:#0F172A;stroke-width:1;" x1="399.7415" x2="399.7415" y1="65" y2="85"/><polygon fill="#0F172A" points="395.7415,75,399.7415,85,403.7415,75,399.7415,79" style="stroke:#0F172A;stroke-width:1;"/><line style="stroke:#0F172A;stroke-width:1;" x1="399.7415" x2="399.7415" y1="133" y2="153"/><polygon fill="#0F172A" points="395.7415,143,399.7415,153,403.7415,143,399.7415,147" style="stroke:#0F172A;stroke-width:1;"/><line style="stroke:#0F172A;stroke-width:1;" x1="399.7415" x2="399.7415" y1="215" y2="235"/><polygon fill="#0F172A" points="395.7415,225,399.7415,235,403.7415,225,399.7415,229" style="stroke:#0F172A;stroke-width:1;"/><line style="stroke:#0F172A;stroke-width:1;" x1="399.7415" x2="399.7415" y1="325" y2="345"/><polygon fill="#0F172A" points="395.7415,335,399.7415,345,403.7415,335,399.7415,339" style="stroke:#0F172A;stroke-width:1;"/><line style="stroke:#0F172A;stroke-width:1;" x1="200.7612" x2="200.7612" y1="523" y2="543"/><polygon fill="#0F172A" points="196.7612,533,200.7612,543,204.7612,533,200.7612,537" style="stroke:#0F172A;stroke-width:1;"/><line style="stroke:#0F172A;stroke-width:1;" x1="334.052" x2="200.7612" y1="453" y2="453"/><line style="stroke:#0F172A;stroke-width:1;" x1="200.7612" x2="200.7612" y1="453" y2="475"/><polygon fill="#0F172A" points="196.7612,465,200.7612,475,204.7612,465,200.7612,469" style="stroke:#0F172A;stroke-width:1;"/><line style="stroke:#0F172A;stroke-width:1;" x1="465.4309" x2="598.7217" y1="453" y2="453"/><line style="stroke:#0F172A;stroke-width:1;" x1="598.7217" x2="598.7217" y1="453" y2="475"/><polygon fill="#0F172A" points="594.7217,465,598.7217,475,602.7217,465,598.7217,469" style="stroke:#0F172A;stroke-width:1;"/><line style="stroke:#0F172A;stroke-width:1;" x1="200.7612" x2="200.7612" y1="591" y2="609"/><line style="stroke:#0F172A;stroke-width:1;" x1="200.7612" x2="387.7415" y1="609" y2="609"/><polygon fill="#0F172A" points="377.7415,605,387.7415,609,377.7415,613,381.7415,609" style="stroke:#0F172A;stroke-width:1;"/><line style="stroke:#0F172A;stroke-width:1;" x1="598.7217" x2="598.7217" y1="523" y2="609"/><line style="stroke:#0F172A;stroke-width:1;" x1="598.7217" x2="411.7415" y1="609" y2="609"/><polygon fill="#0F172A" points="421.7415,605,411.7415,609,421.7415,613,417.7415,609" style="stroke:#0F172A;stroke-width:1;"/><line style="stroke:#0F172A;stroke-width:1;" x1="399.7415" x2="399.7415" y1="421" y2="441"/><polygon fill="#0F172A" points="395.7415,431,399.7415,441,403.7415,431,399.7415,435" style="stroke:#0F172A;stroke-width:1;"/><line style="stroke:#0F172A;stroke-width:1;" x1="399.7415" x2="399.7415" y1="621" y2="641"/><polygon fill="#0F172A" points="395.7415,631,399.7415,641,403.7415,631,399.7415,635" style="stroke:#0F172A;stroke-width:1;"/><line style="stroke:#0F172A;stroke-width:1;" x1="399.7415" x2="399.7415" y1="745" y2="765"/><polygon fill="#0F172A" points="395.7415,755,399.7415,765,403.7415,755,399.7415,759" style="stroke:#0F172A;stroke-width:1;"/><line style="stroke:#0F172A;stroke-width:1;" x1="399.7415" x2="399.7415" y1="799" y2="819"/><polygon fill="#0F172A" points="395.7415,809,399.7415,819,403.7415,809,399.7415,813" style="stroke:#0F172A;stroke-width:1;"/><line style="stroke:#0F172A;stroke-width:1;" x1="399.7415" x2="399.7415" y1="937" y2="957"/><polygon fill="#0F172A" points="395.7415,947,399.7415,957,403.7415,947,399.7415,951" style="stroke:#0F172A;stroke-width:1;"/><line style="stroke:#0F172A;stroke-width:1;" x1="399.7415" x2="399.7415" y1="1005" y2="1025"/><polygon fill="#0F172A" points="395.7415,1015,399.7415,1025,403.7415,1015,399.7415,1019" style="stroke:#0F172A;stroke-width:1;"/><line style="stroke:#0F172A;stroke-width:1;" x1="399.7415" x2="399.7415" y1="1059" y2="1252"/><polygon fill="#0F172A" points="395.7415,1242,399.7415,1252,403.7415,1242,399.7415,1246" style="stroke:#0F172A;stroke-width:1;"/><?plantuml-src dLPTRzis57tdho2mbnImxAH9san6C7XscWPBay1fbXS30KrUMLmeKYKfUzxG_zvBKPOLDnZcm0-MoClxSUwvXtBFKfVCieAwd0cpadf1CwOS4DVkp1b_NbXJQJ4sobZwIyRn9peM0Z9MAV_9Q7_32g2VGIt1IyvUjxcN_m0zEkbiCclDgl5-c1rzVDyzgOs7tt_A8Si-YW-xLiOAi8t5_EJq-F3N7OiGlja_FZuvEZtjxDVkkR4QB3twGBpq2kY8UxcKVaqJAfXdZalG70QJxVCN8q2DA-TDyGKy2rOZwsN6E4RI7hJl5hfnzo-Xhm1xbh6CXvrk8GqWb6RRvDir8LbXjFW97tWFPzbXnw3hyKYSW3ZRRdvwnR7ppFfTUsZzjtPpjkFrEwcFalG-_D7CcffS5WJDb5dDT7mPOEm5Gk86yJsnm8tcKa6o0QdlbeiXIQyD4qWV9z5gflT27eELm2dJ8jJZAnVJ-QEQ0xRPWqFtKt06wKflnrUr4T2bP3Dz2NxFK2lfyvc-bcxVWpXmAd01atbmW3bpbcL6YQSEuxhFHV39Qvz5uvCrFddhKoeFrb5k2cIUBt3nIOfUK-4g1nqAdb1bp7DLpZGsS2wrI9Pug789jn3iD81mL659r0QOAY-D7XAPqOC0MsKvKFWRjzrlxwWFJW_MuDvX7QK8vqlcSygnF3VJSMalQ12GoufPGOlAipbEOoP1OK92kbAnzPCEOeFDnN8Dff9eM6rCNjOz982QHW-qmTp6iRPkRd5fpznm66I6_AaqBQrPIfmlceCgmn-YYcuZYkS-imrO_HXeWrrlfZjxZqoYFDf7Ov-dyAq2vn-HKHSeZVOp5gbGcsSQ8-Dad7ie406i8ioAqUVZwSNewyLaEDDL3NCtPWH-4nDDi3HuQJAfLreJaexAKgsnvwL9MELp4wRN0TRZQMcKv6jKKnqCuya8PkK0YuuhRvWT3FUj2aF-rW4qzatZvmsTN5nV87p86XmSMx18y_JEch-0-srYZOW4FScaPWelCji0CjC83fCwgR13AcayeQv5j6kXmQPMG4t35uT1iASzMhUiViAHBT1lU1cYZ9gIX4kBMhd8yHQ98jhePahsqb7IKMCSr8qYjyRRcmcB8q4rPLrUI-qaA1IU64yV9ZswGgxsecaDIL96gB0ab6h4GJcS1Gjz4c2sHYdqe0oEspRG9d7AX211Ov8eHZINshlU2xv9m8M89CcROQZZKrEYwk3u5-XwmKhN9ypo7Fow1BoRFCzJUWbufUC810hRfKIXA9Xc2x24jyavsgdvLO02nKdDqoQQ3Pr60J8hTEzoMVP9up_jVYiGfwf5IlRIRu8V328b-trbj7MdTB6fEDcjEBPhqB8ttP9xGFwJmSH6_gR_XxsaLSJwmd4fRMwKk-djdrVtLxStLpUNmtWMoCFTPFIrNeYXuZpY0cc4Vr3h-msiqfVQFzZHULAp8T0WhGMAt3TNATq0ZTEdriEWR8hXvHNwsM51KfCWaxnjRaoVpW4pW51LOGB9-q7zwo_A7m00?></g></svg>