<?plantuml 1.2026.1?><svg xmlns="http://www.w3.org/2000/svg" xmlns:xlink="http://www.w3.org/1999/xlink" contentStyleType="text/css" data-diagram-type="ACTIVITY" height="2229px" preserveAspectRatio="none" style="width:1254px;height:2229px;background:#FCFCFD;" version="1.1" viewBox="0 0 1254 2229" width="1254px" zoomAndPan="magnify"><title>Activity - cloudbridge/CloudBridgeAssetSources</title><defs/><g><rect fill="#FCFCFD" height="2229" style="stroke:none;stroke-width:1;" width="1254" x="0" y="0"/><g class="title" data-source-line="10"><text fill="#000000" font-family="Helvetica" font-size="14" font-weight="bold" lengthAdjust="spacing" textLength="324.3857" x="463.688" y="30.7803">Activity - cloudbridge/CloudBridgeAssetSources</text></g><ellipse cx="666.4664" cy="55" fill="#1D4ED8" rx="10" ry="10" style="stroke:#222222;stroke-width:1;"/><rect fill="none" height="458" rx="8" ry="8" style="stroke:#000000;stroke-width:1.5;" width="624.0098" x="383.8492" y="75"/><path d="M505.9176,75 L505.9176,82 L495.9176,92 L383.8492,92" fill="none" style="stroke:#000000;stroke-width:1.5;"/><text fill="#000000" font-family="Helvetica" font-size="14" lengthAdjust="spacing" textLength="112.0684" x="386.8492" y="86.7803">Observe and Bind</text><rect fill="#F8FAFC" height="48" rx="8" ry="8" style="stroke:#0F172A;stroke-width:0.5;" width="304.7852" x="514.0739" y="109"/><text fill="#0F172A" font-family="Helvetica" font-size="14" lengthAdjust="spacing" textLength="136.9375" x="524.0739" y="129.7803">Start from shared flow</text><text fill="#0F172A" font-family="Helvetica" font-size="14" lengthAdjust="spacing" textLength="284.7852" x="524.0739" y="143.7803">shared/diagrams/shared-reconcile-activity.svg</text><rect fill="#F8FAFC" height="48" rx="8" ry="8" style="stroke:#0F172A;stroke-width:0.5;" width="307.9365" x="512.4982" y="177"/><text fill="#0F172A" font-family="Helvetica" font-size="14" lengthAdjust="spacing" textLength="287.9365" x="522.4982" y="197.7803">Read desired CloudBridgeAssetSources spec,</text><text fill="#0F172A" font-family="Helvetica" font-size="14" lengthAdjust="spacing" textLength="198.4609" x="522.4982" y="211.7803">tracked status, and delete intent</text><polygon fill="#E2E8F0" points="537.0006,245,795.9323,245,807.9323,257,795.9323,269,537.0006,269,525.0006,257,537.0006,245" style="stroke:#1D4ED8;stroke-width:0.5;"/><text fill="#0F172A" font-family="Helvetica" font-size="14" lengthAdjust="spacing" textLength="258.9316" x="537.0006" y="260.7803">"Tracked or explicit OCI identity present?"</text><text fill="#000000" font-family="Helvetica" font-size="14" lengthAdjust="spacing" textLength="21.7861" x="503.2145" y="253.7803">yes</text><text fill="#000000" font-family="Helvetica" font-size="14" lengthAdjust="spacing" textLength="15.5723" x="807.9323" y="253.7803">no</text><rect fill="#F8FAFC" height="48" rx="8" ry="8" style="stroke:#0F172A;stroke-width:0.5;" width="222.3027" x="403.8492" y="279"/><text fill="#0F172A" font-family="Helvetica" font-size="14" lengthAdjust="spacing" textLength="202.3027" x="413.8492" y="299.7803">Get the current OCI resource via</text><text fill="#0F172A" font-family="Helvetica" font-size="14" lengthAdjust="spacing" textLength="185.9854" x="413.8492" y="313.7803">GetCloudBridgeAssetSources</text><rect fill="#F8FAFC" height="62" rx="8" ry="8" style="stroke:#0F172A;stroke-width:0.5;" width="279.9092" x="677.9777" y="279"/><text fill="#0F172A" font-family="Helvetica" font-size="14" lengthAdjust="spacing" textLength="259.9092" x="687.9777" y="299.7803">Resolve an existing OCI resource through</text><text fill="#0F172A" font-family="Helvetica" font-size="14" lengthAdjust="spacing" textLength="259.9023" x="687.9777" y="313.7803">ListCloudBridgeAssetSources using filters</text><text fill="#0F172A" font-family="Helvetica" font-size="14" lengthAdjust="spacing" textLength="138.5098" x="687.9777" y="327.7803">compartment_id, state</text><rect fill="#F8FAFC" height="62" rx="8" ry="8" style="stroke:#0F172A;stroke-width:0.5;" width="339.8535" x="648.0055" y="361"/><text fill="#0F172A" font-family="Helvetica" font-size="14" lengthAdjust="spacing" textLength="174.2959" x="658.0055" y="381.7803">Create the OCI resource via</text><text fill="#0F172A" font-family="Helvetica" font-size="14" lengthAdjust="spacing" textLength="319.8535" x="658.0055" y="395.7803">CreateCloudBridgeAssetSources when no reusable</text><text fill="#0F172A" font-family="Helvetica" font-size="14" lengthAdjust="spacing" textLength="91.0479" x="658.0055" y="409.7803">match is found</text><rect fill="#F8FAFC" height="48" rx="8" ry="8" style="stroke:#0F172A;stroke-width:0.5;" width="286.8955" x="674.4845" y="443"/><text fill="#0F172A" font-family="Helvetica" font-size="14" lengthAdjust="spacing" textLength="266.8955" x="684.4845" y="463.7803">Persist the resolved or created OCI identity</text><text fill="#0F172A" font-family="Helvetica" font-size="14" lengthAdjust="spacing" textLength="63.8135" x="684.4845" y="477.7803">into status</text><polygon fill="#E2E8F0" points="666.4664,497,678.4664,509,666.4664,521,654.4664,509,666.4664,497" style="stroke:#1D4ED8;stroke-width:0.5;"/><polygon fill="#E2E8F0" points="604.2902,553,728.6427,553,740.6427,565,728.6427,577,604.2902,577,592.2902,565,604.2902,553" style="stroke:#1D4ED8;stroke-width:0.5;"/><text fill="#0F172A" font-family="Helvetica" font-size="14" lengthAdjust="spacing" textLength="124.3525" x="604.2902" y="568.7803">"Delete requested?"</text><text fill="#000000" font-family="Helvetica" font-size="14" lengthAdjust="spacing" textLength="21.7861" x="570.504" y="561.7803">yes</text><text fill="#000000" font-family="Helvetica" font-size="14" lengthAdjust="spacing" textLength="15.5723" x="740.6427" y="561.7803">no</text><rect fill="none" height="375" rx="8" ry="8" style="stroke:#000000;stroke-width:1.5;" width="644.4814" x="11" y="587"/><path d="M61.4688,587 L61.4688,594 L51.4688,604 L11,604" fill="none" style="stroke:#000000;stroke-width:1.5;"/><text fill="#000000" font-family="Helvetica" font-size="14" lengthAdjust="spacing" textLength="40.4688" x="14" y="598.7803">Delete</text><rect fill="#F8FAFC" height="76" rx="8" ry="8" style="stroke:#0F172A;stroke-width:0.5;" width="332.8467" x="173.3208" y="621"/><text fill="#0F172A" font-family="Helvetica" font-size="14" lengthAdjust="spacing" textLength="312.8467" x="183.3208" y="641.7803">Delete path uses DeleteCloudBridgeAssetSources</text><text fill="#0F172A" font-family="Helvetica" font-size="14" lengthAdjust="spacing" textLength="291.8125" x="183.3208" y="655.7803">with required via GetCloudBridgeAssetSources</text><text fill="#0F172A" font-family="Helvetica" font-size="14" lengthAdjust="spacing" textLength="285.5713" x="183.3208" y="669.7803">or ListCloudBridgeAssetSources to DELETED</text><text fill="#0F172A" font-family="Helvetica" font-size="14" lengthAdjust="spacing" textLength="76.2549" x="183.3208" y="683.7803">confirmation</text><rect fill="#F8FAFC" height="76" rx="8" ry="8" style="stroke:#0F172A;stroke-width:0.5;" width="317.2539" x="181.1172" y="732"/><text fill="#0F172A" font-family="Helvetica" font-size="14" lengthAdjust="spacing" textLength="123.7236" x="191.1172" y="752.7803">Confirm deletion via</text><text fill="#0F172A" font-family="Helvetica" font-size="14" lengthAdjust="spacing" textLength="202.3232" x="191.1172" y="766.7803">GetCloudBridgeAssetSources or</text><text fill="#0F172A" font-family="Helvetica" font-size="14" lengthAdjust="spacing" textLength="297.2539" x="191.1172" y="780.7803">ListCloudBridgeAssetSources until OCI reaches</text><text fill="#0F172A" font-family="Helvetica" font-size="14" lengthAdjust="spacing" textLength="64.5723" x="191.1172" y="794.7803">DELETED</text><polygon fill="#E2E8F0" points="191.5718,830,487.9165,830,499.9165,842,487.9165,854,191.5718,854,179.5718,842,191.5718,830" style="stroke:#1D4ED8;stroke-width:0.5;"/><text fill="#0F172A" font-family="Helvetica" font-size="14" lengthAdjust="spacing" textLength="296.3447" x="191.5718" y="845.7803">"Delete cleanup and finalizer release succeed?"</text><text fill="#000000" font-family="Helvetica" font-size="14" lengthAdjust="spacing" textLength="21.7861" x="157.7856" y="838.7803">yes</text><text fill="#000000" font-family="Helvetica" font-size="14" lengthAdjust="spacing" textLength="15.5723" x="499.9165" y="838.7803">no</text><rect fill="#F8FAFC" height="34" rx="8" ry="8" style="stroke:#0F172A;stroke-width:0.5;" width="293.1436" x="23" y="864"/><text fill="#0F172A" font-family="Helvetica" font-size="14" lengthAdjust="spacing" textLength="273.1436" x="33" y="884.7803">Remove the finalizer after delete completion</text><rect fill="#F8FAFC" height="48" rx="8" ry="8" style="stroke:#0F172A;stroke-width:0.5;" width="251.1299" x="384.3516" y="864"/><text fill="#0F172A" font-family="Helvetica" font-size="14" lengthAdjust="spacing" textLength="231.1299" x="394.3516" y="884.7803">Stay blocked until cleanup or finalizer</text><text fill="#0F172A" font-family="Helvetica" font-size="14" lengthAdjust="spacing" textLength="108.9512" x="394.3516" y="898.7803">release succeeds</text><polygon fill="#E2E8F0" points="339.7441,918,351.7441,930,339.7441,942,327.7441,930,339.7441,918" style="stroke:#1D4ED8;stroke-width:0.5;"/><ellipse cx="339.7441" cy="1008" fill="none" rx="11" ry="11" style="stroke:#222222;stroke-width:1;"/><ellipse cx="339.7441" cy="1008" fill="#222222" rx="6" ry="6" style="stroke:#222222;stroke-width:1;"/><rect fill="none" height="444" rx="8" ry="8" style="stroke:#000000;stroke-width:1.5;" width="345.916" x="826.2307" y="587"/><path d="M977.0647,587 L977.0647,594 L967.0647,604 L826.2307,604" fill="none" style="stroke:#000000;stroke-width:1.5;"/><text fill="#000000" font-family="Helvetica" font-size="14" lengthAdjust="spacing" textLength="140.834" x="829.2307" y="598.7803">Lifecycle Classification</text><rect fill="#F8FAFC" height="48" rx="8" ry="8" style="stroke:#0F172A;stroke-width:0.5;" width="280.5928" x="852.8923" y="670"/><text fill="#0F172A" font-family="Helvetica" font-size="14" lengthAdjust="spacing" textLength="240.4541" x="862.8923" y="690.7803">Request requeue while OCI remains in</text><text fill="#0F172A" font-family="Helvetica" font-size="14" lengthAdjust="spacing" textLength="260.5928" x="862.8923" y="704.7803">PROVISIONING, UPDATING, DELETING</text><ellipse cx="993.1887" cy="764" fill="none" rx="11" ry="11" style="stroke:#222222;stroke-width:1;"/><ellipse cx="993.1887" cy="764" fill="#222222" rx="6" ry="6" style="stroke:#222222;stroke-width:1;"/><polygon fill="#E2E8F0" points="906.9055,621,1079.4719,621,1091.4719,633,1079.4719,645,906.9055,645,894.9055,633,906.9055,621" style="stroke:#1D4ED8;stroke-width:0.5;"/><text fill="#000000" font-family="Helvetica" font-size="14" lengthAdjust="spacing" textLength="21.7861" x="997.1887" y="655.7803">yes</text><text fill="#0F172A" font-family="Helvetica" font-size="14" lengthAdjust="spacing" textLength="172.5664" x="906.9055" y="636.7803">"OCI state in retryable set?"</text><rect fill="#F8FAFC" height="48" rx="8" ry="8" style="stroke:#0F172A;stroke-width:0.5;" width="293.916" x="846.2307" y="877"/><text fill="#0F172A" font-family="Helvetica" font-size="14" lengthAdjust="spacing" textLength="273.916" x="856.2307" y="897.7803">Return an unsuccessful reconcile result until</text><text fill="#0F172A" font-family="Helvetica" font-size="14" lengthAdjust="spacing" textLength="133.041" x="856.2307" y="911.7803">OCI reaches ACTIVE</text><ellipse cx="993.1887" cy="971" fill="none" rx="11" ry="11" style="stroke:#222222;stroke-width:1;"/><ellipse cx="993.1887" cy="971" fill="#222222" rx="6" ry="6" style="stroke:#222222;stroke-width:1;"/><polygon fill="#E2E8F0" points="872.6677,828,1113.7097,828,1125.7097,840,1113.7097,852,872.6677,852,860.6677,840,872.6677,828" style="stroke:#1D4ED8;stroke-width:0.5;"/><text fill="#000000" font-family="Helvetica" font-size="14" lengthAdjust="spacing" textLength="21.7861" x="997.1887" y="862.7803">yes</text><text fill="#0F172A" font-family="Helvetica" font-size="14" lengthAdjust="spacing" textLength="241.042" x="872.6677" y="843.7803">"OCI state is outside success targets?"</text><rect fill="none" height="722.5" rx="8" ry="8" style="stroke:#000000;stroke-width:1.5;" width="568.2803" x="675.4814" y="1041"/><path d="M841.9014,1041 L841.9014,1048 L831.9014,1058 L675.4814,1058" fill="none" style="stroke:#000000;stroke-width:1.5;"/><text fill="#000000" font-family="Helvetica" font-size="14" lengthAdjust="spacing" textLength="156.4199" x="678.4814" y="1052.7803">Ready and Drift Handling</text><rect fill="#F8FAFC" height="48" rx="8" ry="8" style="stroke:#0F172A;stroke-width:0.5;" width="296.2402" x="845.0686" y="1075"/><text fill="#0F172A" font-family="Helvetica" font-size="14" lengthAdjust="spacing" textLength="276.2402" x="855.0686" y="1095.7803">Compare live OCI state against the imported</text><text fill="#0F172A" font-family="Helvetica" font-size="14" lengthAdjust="spacing" textLength="75.4824" x="855.0686" y="1109.7803">field surface</text><rect fill="#F8FAFC" height="48" rx="8" ry="8" style="stroke:#0F172A;stroke-width:0.5;" width="302.4473" x="841.9651" y="1192"/><text fill="#0F172A" font-family="Helvetica" font-size="14" lengthAdjust="spacing" textLength="282.4473" x="851.9651" y="1212.7803">Reject drift before OCI mutation for force-new</text><text fill="#0F172A" font-family="Helvetica" font-size="14" lengthAdjust="spacing" textLength="136.9512" x="851.9651" y="1226.7803">fields compartment_id</text><ellipse cx="993.1887" cy="1272.5" fill="none" rx="11" ry="11" style="stroke:#222222;stroke-width:1;"/><ellipse cx="993.1887" cy="1272.5" fill="#222222" rx="6" ry="6" style="stroke:#222222;stroke-width:1;"/><polygon fill="#E2E8F0" points="867.6057,1143,1118.7717,1143,1130.7717,1155,1118.7717,1167,867.6057,1167,855.6057,1155,867.6057,1143" style="stroke:#1D4ED8;stroke-width:0.5;"/><text fill="#000000" font-family="Helvetica" font-size="14" lengthAdjust="spacing" textLength="21.7861" x="997.1887" y="1177.7803">yes</text><text fill="#0F172A" font-family="Helvetica" font-size="14" lengthAdjust="spacing" textLength="251.166" x="867.6057" y="1158.7803">"Force-new or conflicting drift detected?"</text><polygon fill="#E2E8F0" points="882.761,1325.5,1103.6165,1325.5,1115.6165,1337.5,1103.6165,1349.5,882.761,1349.5,870.761,1337.5,882.761,1325.5" style="stroke:#1D4ED8;stroke-width:0.5;"/><text fill="#0F172A" font-family="Helvetica" font-size="14" lengthAdjust="spacing" textLength="220.8555" x="882.761" y="1341.2803">"Supported mutable drift detected?"</text><text fill="#000000" font-family="Helvetica" font-size="14" lengthAdjust="spacing" textLength="21.7861" x="848.9749" y="1334.2803">yes</text><text fill="#000000" font-family="Helvetica" font-size="14" lengthAdjust="spacing" textLength="15.5723" x="1115.6165" y="1334.2803">no</text><rect fill="#F8FAFC" height="48" rx="8" ry="8" style="stroke:#0F172A;stroke-width:0.5;" width="317.2744" x="695.4814" y="1359.5"/><text fill="#0F172A" font-family="Helvetica" font-size="14" lengthAdjust="spacing" textLength="297.2744" x="705.4814" y="1380.2803">Apply UpdateCloudBridgeAssetSources only for</text><text fill="#0F172A" font-family="Helvetica" font-size="14" lengthAdjust="spacing" textLength="176.6543" x="705.4814" y="1394.2803">mutable fields display_name</text><rect fill="#F8FAFC" height="34" rx="8" ry="8" style="stroke:#0F172A;stroke-width:0.5;" width="199.0059" x="1032.7559" y="1359.5"/><text fill="#0F172A" font-family="Helvetica" font-size="14" lengthAdjust="spacing" textLength="179.0059" x="1042.7559" y="1380.2803">Skip the no-op mutation path</text><polygon fill="#E2E8F0" points="993.1887,1413.5,1005.1887,1425.5,993.1887,1437.5,981.1887,1425.5,993.1887,1413.5" style="stroke:#1D4ED8;stroke-width:0.5;"/><rect fill="#F8FAFC" height="118" rx="8" ry="8" style="stroke:#0F172A;stroke-width:0.5;" width="334.3164" x="826.0305" y="1457.5"/><text fill="#0F172A" font-family="Helvetica" font-size="14" lengthAdjust="spacing" textLength="164.2061" x="836.0305" y="1478.2803">Run provider helper hooks</text><text fill="#0F172A" font-family="Helvetica" font-size="14" lengthAdjust="spacing" textLength="219.0508" x="836.0305" y="1492.2803">create=tfresource.CreateResource,</text><text fill="#0F172A" font-family="Helvetica" font-size="14" lengthAdjust="spacing" textLength="314.3164" x="836.0305" y="1506.2803">tfresource.WaitForWorkRequestWithErrorHandling</text><text fill="#0F172A" font-family="Helvetica" font-size="14" lengthAdjust="spacing" textLength="215.5439" x="836.0305" y="1520.2803">entity=template action=CREATED;</text><text fill="#0F172A" font-family="Helvetica" font-size="14" lengthAdjust="spacing" textLength="226.085" x="836.0305" y="1534.2803">update=tfresource.UpdateResource;</text><text fill="#0F172A" font-family="Helvetica" font-size="14" lengthAdjust="spacing" textLength="273.5537" x="836.0305" y="1548.2803">delete=tfresource.DeleteResource when the</text><text fill="#0F172A" font-family="Helvetica" font-size="14" lengthAdjust="spacing" textLength="220.2334" x="836.0305" y="1562.2803">matching field-driven path executes</text><rect fill="#F8FAFC" height="34" rx="8" ry="8" style="stroke:#0F172A;stroke-width:0.5;" width="303.2197" x="841.5789" y="1595.5"/><text fill="#0F172A" font-family="Helvetica" font-size="14" lengthAdjust="spacing" textLength="283.2197" x="851.5789" y="1616.2803">Return success for the ACTIVE success state</text><rect fill="#F8FAFC" height="48" rx="8" ry="8" style="stroke:#0F172A;stroke-width:0.5;" width="279.1299" x="853.6238" y="1649.5"/><text fill="#0F172A" font-family="Helvetica" font-size="14" lengthAdjust="spacing" textLength="259.1299" x="863.6238" y="1670.2803">Project required status and finalizer policy</text><text fill="#0F172A" font-family="Helvetica" font-size="14" lengthAdjust="spacing" textLength="174.3027" x="863.6238" y="1684.2803">retain-until-confirmed-delete</text><rect fill="#F8FAFC" height="34" rx="8" ry="8" style="stroke:#0F172A;stroke-width:0.5;" width="313.4189" x="836.4792" y="1717.5"/><text fill="#0F172A" font-family="Helvetica" font-size="14" lengthAdjust="spacing" textLength="293.4189" x="846.4792" y="1738.2803">Requeue on provisioning, updating, terminating</text><path d="M697.4664,1773.5 L697.4664,1991.5 L677.4664,1995.5 L697.4664,1999.5 L697.4664,2217.5 A0,0 0 0 0 697.4664,2217.5 L1014.1481,2217.5 A0,0 0 0 0 1014.1481,2217.5 L1014.1481,1783.5 L1004.1481,1773.5 L697.4664,1773.5 A0,0 0 0 0 697.4664,1773.5" fill="#FFF7D6" style="stroke:#B45309;stroke-width:0.5;"/><path d="M1004.1481,1773.5 L1004.1481,1783.5 L1014.1481,1783.5 L1004.1481,1773.5" fill="#FFF7D6" style="stroke:#B45309;stroke-width:0.5;"/><text fill="#334155" font-family="Helvetica" font-size="14" lengthAdjust="spacing" textLength="101.165" x="703.4664" y="1789.2803">shared diagram:</text><text fill="#334155" font-family="Helvetica" font-size="14" lengthAdjust="spacing" textLength="284.7852" x="703.4664" y="1803.2803">shared/diagrams/shared-reconcile-activity.svg</text><text fill="#334155" font-family="Helvetica" font-size="14" lengthAdjust="spacing" textLength="265.3438" x="703.4664" y="1817.2803">Start from the shared reconcile activity and</text><text fill="#334155" font-family="Helvetica" font-size="14" lengthAdjust="spacing" textLength="273.8955" x="703.4664" y="1831.2803">specialize provider-backed CRUD, wait, and</text><text fill="#334155" font-family="Helvetica" font-size="14" lengthAdjust="spacing" textLength="182.875" x="703.4664" y="1845.2803">status-projection details here.</text><text fill="#334155" font-family="Helvetica" font-size="14" lengthAdjust="spacing" textLength="229.5371" x="703.4664" y="1859.2803">Controller-local activity diagrams add</text><text fill="#334155" font-family="Helvetica" font-size="14" lengthAdjust="spacing" textLength="238.8955" x="703.4664" y="1873.2803">list-lookup hints, secret policies, delete</text><text fill="#334155" font-family="Helvetica" font-size="14" lengthAdjust="spacing" textLength="200.0332" x="703.4664" y="1887.2803">handling, and open formal gaps.</text><text fill="#334155" font-family="Helvetica" font-size="14" lengthAdjust="spacing" textLength="281.709" x="703.4664" y="1901.2803">archetype batch: Generated service-manager</text><text fill="#334155" font-family="Helvetica" font-size="14" lengthAdjust="spacing" textLength="291.0469" x="703.4664" y="1915.2803">controllers specialize the shared reconcile path</text><text fill="#334155" font-family="Helvetica" font-size="14" lengthAdjust="spacing" textLength="189.8477" x="703.4664" y="1929.2803">with formal runtime ownership.</text><text fill="#334155" font-family="Helvetica" font-size="14" lengthAdjust="spacing" textLength="124.5098" x="703.4664" y="1943.2803">service: cloudbridge</text><text fill="#334155" font-family="Helvetica" font-size="14" lengthAdjust="spacing" textLength="188.3301" x="703.4664" y="1957.2803">slug: cloudbridgeassetsources</text><text fill="#334155" font-family="Helvetica" font-size="14" lengthAdjust="spacing" textLength="196.8818" x="703.4664" y="1971.2803">kind: CloudBridgeAssetSources</text><text fill="#334155" font-family="Helvetica" font-size="14" lengthAdjust="spacing" textLength="241.2402" x="703.4664" y="1985.2803">archetype: generated-service-manager</text><text fill="#334155" font-family="Helvetica" font-size="14" lengthAdjust="spacing" textLength="156.4063" x="703.4664" y="1999.2803">status/finalizer: required /</text><text fill="#334155" font-family="Helvetica" font-size="14" lengthAdjust="spacing" textLength="174.3027" x="703.4664" y="2013.2803">retain-until-confirmed-delete</text><text fill="#334155" font-family="Helvetica" font-size="14" lengthAdjust="spacing" textLength="272.3984" x="703.4664" y="2027.2803">requeue: provisioning, updating, terminating</text><text fill="#334155" font-family="Helvetica" font-size="14" lengthAdjust="spacing" textLength="295.6816" x="703.4664" y="2041.2803">provider states: create PROVISIONING; update</text><text fill="#334155" font-family="Helvetica" font-size="14" lengthAdjust="spacing" textLength="192.165" x="703.4664" y="2055.2803">UPDATING; delete DELETING</text><text fill="#334155" font-family="Helvetica" font-size="14" lengthAdjust="spacing" textLength="183.6611" x="703.4664" y="2069.2803">supported drift: display_name</text><text fill="#334155" font-family="Helvetica" font-size="14" lengthAdjust="spacing" textLength="230.3301" x="703.4664" y="2083.2803">reject before mutate: force-new fields</text><text fill="#334155" font-family="Helvetica" font-size="14" lengthAdjust="spacing" textLength="100.3789" x="703.4664" y="2097.2803">compartment_id</text><text fill="#334155" font-family="Helvetica" font-size="14" lengthAdjust="spacing" textLength="66.1445" x="703.4664" y="2111.2803">list lookup:</text><text fill="#334155" font-family="Helvetica" font-size="14" lengthAdjust="spacing" textLength="291.0742" x="703.4664" y="2125.2803">scaffold_cloudbridge_cloudbridgeassetsources</text><text fill="#334155" font-family="Helvetica" font-size="14" lengthAdjust="spacing" textLength="175.8477" x="703.4664" y="2139.2803">filters compartment_id, state</text><text fill="#334155" font-family="Helvetica" font-size="14" lengthAdjust="spacing" textLength="89.4961" x="703.4664" y="2153.2803">conflicts: none</text><text fill="#334155" font-family="Helvetica" font-size="14" lengthAdjust="spacing" textLength="104.3164" x="703.4664" y="2167.2803">open gaps: none</text><text fill="#334155" font-family="Helvetica" font-size="14" lengthAdjust="spacing" textLength="224.9023" x="703.4664" y="2181.2803">Scaffold metadata only; replace with</text><text fill="#334155" font-family="Helvetica" font-size="14" lengthAdjust="spacing" textLength="244.3232" x="703.4664" y="2195.2803">controller-specific runtime states before</text><text fill="#334155" font-family="Helvetica" font-size="14" lengthAdjust="spacing" textLength="66.1445" x="703.4664" y="2209.2803">promotion.</text><ellipse cx="666.4664" cy="1995.5" fill="none" rx="11" ry="11" style="stroke:#222222;stroke-width:1;"/><ellipse cx="666.4664" cy="1995.5" fill="#222222" rx="6" ry="6" style="stroke:#222222;stroke-width:1;"/><line style="stroke:#0F172A;stroke-width:1;" x1="666.4664" x2="666.4664" y1="157" y2="177"/><polygon fill="#0F172A" points="662.4664,167,666.4664,177,670.4664,167,666.4664,171" style="stroke:#0F172A;stroke-width:1;"/><line style="stroke:#0F172A;stroke-width:1;" x1="817.9323" x2="817.9323" y1="341" y2="361"/><polygon fill="#0F172A" points="813.9323,351,817.9323,361,821.9323,351,817.9323,355" style="stroke:#0F172A;stroke-width:1;"/><line style="stroke:#0F172A;stroke-width:1;" x1="817.9323" x2="817.9323" y1="423" y2="443"/><polygon fill="#0F172A" points="813.9323,433,817.9323,443,821.9323,433,817.9323,437" style="stroke:#0F172A;stroke-width:1;"/><line style="stroke:#0F172A;stroke-width:1;" x1="525.0006" x2="515.0006" y1="257" y2="257"/><line style="stroke:#0F172A;stroke-width:1;" x1="515.0006" x2="515.0006" y1="257" y2="279"/><polygon fill="#0F172A" points="511.0006,269,515.0006,279,519.0006,269,515.0006,273" style="stroke:#0F172A;stroke-width:1;"/><line style="stroke:#0F172A;stroke-width:1;" x1="807.9323" x2="817.9323" y1="257" y2="257"/><line style="stroke:#0F172A;stroke-width:1;" x1="817.9323" x2="817.9323" y1="257" y2="279"/><polygon fill="#0F172A" points="813.9323,269,817.9323,279,821.9323,269,817.9323,273" style="stroke:#0F172A;stroke-width:1;"/><line style="stroke:#0F172A;stroke-width:1;" x1="515.0006" x2="515.0006" y1="327" y2="509"/><line style="stroke:#0F172A;stroke-width:1;" x1="515.0006" x2="654.4664" y1="509" y2="509"/><polygon fill="#0F172A" points="644.4664,505,654.4664,509,644.4664,513,648.4664,509" style="stroke:#0F172A;stroke-width:1;"/><line style="stroke:#0F172A;stroke-width:1;" x1="817.9323" x2="817.9323" y1="491" y2="509"/><line style="stroke:#0F172A;stroke-width:1;" x1="817.9323" x2="678.4664" y1="509" y2="509"/><polygon fill="#0F172A" points="688.4664,505,678.4664,509,688.4664,513,684.4664,509" style="stroke:#0F172A;stroke-width:1;"/><line style="stroke:#0F172A;stroke-width:1;" x1="666.4664" x2="666.4664" y1="225" y2="245"/><polygon fill="#0F172A" points="662.4664,235,666.4664,245,670.4664,235,666.4664,239" style="stroke:#0F172A;stroke-width:1;"/><line style="stroke:#0F172A;stroke-width:1;" x1="666.4664" x2="666.4664" y1="65" y2="109"/><polygon fill="#0F172A" points="662.4664,99,666.4664,109,670.4664,99,666.4664,103" style="stroke:#0F172A;stroke-width:1;"/><line style="stroke:#0F172A;stroke-width:1;" x1="339.7441" x2="339.7441" y1="697" y2="732"/><polygon fill="#0F172A" points="335.7441,722,339.7441,732,343.7441,722,339.7441,726" style="stroke:#0F172A;stroke-width:1;"/><line style="stroke:#0F172A;stroke-width:1;" x1="179.5718" x2="169.5718" y1="842" y2="842"/><line style="stroke:#0F172A;stroke-width:1;" x1="169.5718" x2="169.5718" y1="842" y2="864"/><polygon fill="#0F172A" points="165.5718,854,169.5718,864,173.5718,854,169.5718,858" style="stroke:#0F172A;stroke-width:1;"/><line style="stroke:#0F172A;stroke-width:1;" x1="499.9165" x2="509.9165" y1="842" y2="842"/><line style="stroke:#0F172A;stroke-width:1;" x1="509.9165" x2="509.9165" y1="842" y2="864"/><polygon fill="#0F172A" points="505.9165,854,509.9165,864,513.9165,854,509.9165,858" style="stroke:#0F172A;stroke-width:1;"/><line style="stroke:#0F172A;stroke-width:1;" x1="169.5718" x2="169.5718" y1="898" y2="930"/><line style="stroke:#0F172A;stroke-width:1;" x1="169.5718" x2="327.7441" y1="930" y2="930"/><polygon fill="#0F172A" points="317.7441,926,327.7441,930,317.7441,934,321.7441,930" style="stroke:#0F172A;stroke-width:1;"/><line style="stroke:#0F172A;stroke-width:1;" x1="509.9165" x2="509.9165" y1="912" y2="930"/><line style="stroke:#0F172A;stroke-width:1;" x1="509.9165" x2="351.7441" y1="930" y2="930"/><polygon fill="#0F172A" points="361.7441,926,351.7441,930,361.7441,934,357.7441,930" style="stroke:#0F172A;stroke-width:1;"/><line style="stroke:#0F172A;stroke-width:1;" x1="339.7441" x2="339.7441" y1="808" y2="830"/><polygon fill="#0F172A" points="335.7441,820,339.7441,830,343.7441,820,339.7441,824" style="stroke:#0F172A;stroke-width:1;"/><line style="stroke:#0F172A;stroke-width:1;" x1="339.7441" x2="339.7441" y1="942" y2="997"/><polygon fill="#0F172A" points="335.7441,987,339.7441,997,343.7441,987,339.7441,991" style="stroke:#0F172A;stroke-width:1;"/><line style="stroke:#0F172A;stroke-width:1;" x1="993.1887" x2="993.1887" y1="718" y2="753"/><polygon fill="#0F172A" points="989.1887,743,993.1887,753,997.1887,743,993.1887,747" style="stroke:#0F172A;stroke-width:1;"/><line style="stroke:#0F172A;stroke-width:1;" x1="993.1887" x2="993.1887" y1="645" y2="670"/><polygon fill="#0F172A" points="989.1887,660,993.1887,670,997.1887,660,993.1887,664" style="stroke:#0F172A;stroke-width:1;"/><line style="stroke:#0F172A;stroke-width:1;" x1="1091.4719" x2="1143.4851" y1="633" y2="633"/><polygon fill="#0F172A" points="1139.4851,709.5,1143.4851,719.5,1147.4851,709.5,1143.4851,713.5" style="stroke:#0F172A;stroke-width:1;"/><line style="stroke:#0F172A;stroke-width:1;" x1="1143.4851" x2="1143.4851" y1="633" y2="806"/><line style="stroke:#0F172A;stroke-width:1;" x1="1143.4851" x2="993.1887" y1="806" y2="806"/><line style="stroke:#0F172A;stroke-width:1;" x1="993.1887" x2="993.1887" y1="806" y2="828"/><polygon fill="#0F172A" points="989.1887,818,993.1887,828,997.1887,818,993.1887,822" style="stroke:#0F172A;stroke-width:1;"/><line style="stroke:#0F172A;stroke-width:1;" x1="993.1887" x2="993.1887" y1="925" y2="960"/><polygon fill="#0F172A" points="989.1887,950,993.1887,960,997.1887,950,993.1887,954" style="stroke:#0F172A;stroke-width:1;"/><line style="stroke:#0F172A;stroke-width:1;" x1="993.1887" x2="993.1887" y1="852" y2="877"/><polygon fill="#0F172A" points="989.1887,867,993.1887,877,997.1887,867,993.1887,871" style="stroke:#0F172A;stroke-width:1;"/><line style="stroke:#0F172A;stroke-width:1;" x1="1125.7097" x2="1150.1467" y1="840" y2="840"/><polygon fill="#0F172A" points="1146.1467,916.5,1150.1467,926.5,1154.1467,916.5,1150.1467,920.5" style="stroke:#0F172A;stroke-width:1;"/><line style="stroke:#0F172A;stroke-width:1;" x1="1150.1467" x2="1150.1467" y1="840" y2="1013"/><line style="stroke:#0F172A;stroke-width:1;" x1="1150.1467" x2="993.1887" y1="1013" y2="1013"/><line style="stroke:#0F172A;stroke-width:1;" x1="993.1887" x2="993.1887" y1="1013" y2="1075"/><polygon fill="#0F172A" points="989.1887,1065,993.1887,1075,997.1887,1065,993.1887,1069" style="stroke:#0F172A;stroke-width:1;"/><line style="stroke:#0F172A;stroke-width:1;" x1="993.1887" x2="993.1887" y1="1240" y2="1261.5"/><polygon fill="#0F172A" points="989.1887,1251.5,993.1887,1261.5,997.1887,1251.5,993.1887,1255.5" style="stroke:#0F172A;stroke-width:1;"/><line style="stroke:#0F172A;stroke-width:1;" x1="993.1887" x2="993.1887" y1="1167" y2="1192"/><polygon fill="#0F172A" points="989.1887,1182,993.1887,1192,997.1887,1182,993.1887,1186" style="stroke:#0F172A;stroke-width:1;"/><line style="stroke:#0F172A;stroke-width:1;" x1="1130.7717" x2="1154.4124" y1="1155" y2="1155"/><polygon fill="#0F172A" points="1150.4124,1231.5,1154.4124,1241.5,1158.4124,1231.5,1154.4124,1235.5" style="stroke:#0F172A;stroke-width:1;"/><line style="stroke:#0F172A;stroke-width:1;" x1="1154.4124" x2="1154.4124" y1="1155" y2="1305.5"/><line style="stroke:#0F172A;stroke-width:1;" x1="1154.4124" x2="993.1887" y1="1305.5" y2="1305.5"/><line style="stroke:#0F172A;stroke-width:1;" x1="993.1887" x2="993.1887" y1="1305.5" y2="1325.5"/><polygon fill="#0F172A" points="989.1887,1315.5,993.1887,1325.5,997.1887,1315.5,993.1887,1319.5" style="stroke:#0F172A;stroke-width:1;"/><line style="stroke:#0F172A;stroke-width:1;" x1="993.1887" x2="993.1887" y1="1123" y2="1143"/><polygon fill="#0F172A" points="989.1887,1133,993.1887,1143,997.1887,1133,993.1887,1137" style="stroke:#0F172A;stroke-width:1;"/><line style="stroke:#0F172A;stroke-width:1;" x1="870.761" x2="854.1187" y1="1337.5" y2="1337.5"/><line style="stroke:#0F172A;stroke-width:1;" x1="854.1187" x2="854.1187" y1="1337.5" y2="1359.5"/><polygon fill="#0F172A" points="850.1187,1349.5,854.1187,1359.5,858.1187,1349.5,854.1187,1353.5" style="stroke:#0F172A;stroke-width:1;"/><line style="stroke:#0F172A;stroke-width:1;" x1="1115.6165" x2="1132.2588" y1="1337.5" y2="1337.5"/><line style="stroke:#0F172A;stroke-width:1;" x1="1132.2588" x2="1132.2588" y1="1337.5" y2="1359.5"/><polygon fill="#0F172A" points="1128.2588,1349.5,1132.2588,1359.5,1136.2588,1349.5,1132.2588,1353.5" style="stroke:#0F172A;stroke-width:1;"/><line style="stroke:#0F172A;stroke-width:1;" x1="854.1187" x2="854.1187" y1="1407.5" y2="1425.5"/><line style="stroke:#0F172A;stroke-width:1;" x1="854.1187" x2="981.1887" y1="1425.5" y2="1425.5"/><polygon fill="#0F172A" points="971.1887,1421.5,981.1887,1425.5,971.1887,1429.5,975.1887,1425.5" style="stroke:#0F172A;stroke-width:1;"/><line style="stroke:#0F172A;stroke-width:1;" x1="1132.2588" x2="1132.2588" y1="1393.5" y2="1425.5"/><line style="stroke:#0F172A;stroke-width:1;" x1="1132.2588" x2="1005.1887" y1="1425.5" y2="1425.5"/><polygon fill="#0F172A" points="1015.1887,1421.5,1005.1887,1425.5,1015.1887,1429.5,1011.1887,1425.5" style="stroke:#0F172A;stroke-width:1;"/><line style="stroke:#0F172A;stroke-width:1;" x1="993.1887" x2="993.1887" y1="1437.5" y2="1457.5"/><polygon fill="#0F172A" points="989.1887,1447.5,993.1887,1457.5,997.1887,1447.5,993.1887,1451.5" style="stroke:#0F172A;stroke-width:1;"/><line style="stroke:#0F172A;stroke-width:1;" x1="993.1887" x2="993.1887" y1="1575.5" y2="1595.5"/><polygon fill="#0F172A" points="989.1887,1585.5,993.1887,1595.5,997.1887,1585.5,993.1887,1589.5" style="stroke:#0F172A;stroke-width:1;"/><line style="stroke:#0F172A;stroke-width:1;" x1="993.1887" x2="993.1887" y1="1629.5" y2="1649.5"/><polygon fill="#0F172A" points="989.1887,1639.5,993.1887,1649.5,997.1887,1639.5,993.1887,1643.5" style="stroke:#0F172A;stroke-width:1;"/><line style="stroke:#0F172A;stroke-width:1;" x1="993.1887" x2="993.1887" y1="1697.5" y2="1717.5"/><polygon fill="#0F172A" points="989.1887,1707.5,993.1887,1717.5,997.1887,1707.5,993.1887,1711.5" style="stroke:#0F172A;stroke-width:1;"/><line style="stroke:#0F172A;stroke-width:1;" x1="592.2902" x2="339.7441" y1="565" y2="565"/><line style="stroke:#0F172A;stroke-width:1;" x1="339.7441" x2="339.7441" y1="565" y2="621"/><polygon fill="#0F172A" points="335.7441,611,339.7441,621,343.7441,611,339.7441,615" style="stroke:#0F172A;stroke-width:1;"/><line style="stroke:#0F172A;stroke-width:1;" x1="740.6427" x2="993.1887" y1="565" y2="565"/><line style="stroke:#0F172A;stroke-width:1;" x1="993.1887" x2="993.1887" y1="565" y2="621"/><polygon fill="#0F172A" points="989.1887,611,993.1887,621,997.1887,611,993.1887,615" style="stroke:#0F172A;stroke-width:1;"/><line style="stroke:#0F172A;stroke-width:1;" x1="993.1887" x2="993.1887" y1="1751.5" y2="1768.5"/><line style="stroke:#0F172A;stroke-width:1;" x1="993.1887" x2="666.4664" y1="1768.5" y2="1768.5"/><line style="stroke:#0F172A;stroke-width:1;" x1="666.4664" x2="666.4664" y1="1768.5" y2="1984.5"/><polygon fill="#0F172A" points="662.4664,1974.5,666.4664,1984.5,670.4664,1974.5,666.4664,1978.5" style="stroke:#0F172A;stroke-width:1;"/><line style="stroke:#0F172A;stroke-width:1;" x1="666.4664" x2="666.4664" y1="521" y2="553"/><polygon fill="#0F172A" points="662.4664,543,666.4664,553,670.4664,543,666.4664,547" style="stroke:#0F172A;stroke-width:1;"/><?plantuml-src bLTjJniv4Fw-lyBYlhGIWTBIbqjKdIZGAr9L4D3sIoJah6SJ7uwzPtkJovtwt-_nosusWT0x8SJkUZoUUUQPnuExbxhcbi-Pct5Xbb9FMSMLey9rAnDUta-jQRGuDSfOzajLuaVqB0HLl57-ez7-2vyJ-qHgGLwM_76R6_atiQFZtYAtrYopznVLqTkN_PtQUFhm88QgUYlUR5iPAyXcYydnwrSlVjso2CVdzLUlZezUl-wjH_UbiPeiEtfJUEaLiPFIouNqApPWfJADc5WffdHu6fu_nESJvyZVcCQMvFefjHl_ATWZ4BwhU5M6bNx8ENN6gdMOtJSX-TneyG09UadlgXSzWxx78t5CujrwyUCZZftdrc_RK-U_ivlmBQy_YhYrGC80InhDzYudZko26DU2VP1Qx27zuKsmOfKraMMM1AkKMOvrUZb4Q5CWvWxJ-y1IQNGf5GrQ30_SOZegXjV41NZaP72nemBCrLJkZxMtm0bcYD0tRZy694YH9oQr9-r7XQpOixtRR8UqwAzQoL9wTdbwmQI0JIXVRSdXyRUzvypFIBDdAtBFY-7lvCCxAnjhiHptm386mHQIZpKiTiGuAWWTnfvfypmavOoAY240wNpem0rdVePgJsTZ_Hchkx9kNEnSgJnPDzQbcOUYp17PdHJx4GK2WgUMy103VnXmMjnrmZ8ahmtsD8vF58trdFjongG3My56UB_2sOWnkhSfhGXi6HsB3Lp76cKmkJm0H0jPWL2n9cUfJfR-RCXXunRsFReboqYolAdcVWOq473wi2ETiLvA68OZ8fi00DjTiB565a_1ZqpEpZ-VtvwV1Unr9It0GOG1ylIQo1U2_Wav0DXFIWtyL2uVBsSXkdpsQ0E-KX7NJHsPNqdD5LJNOWy-WtokAKjw02tOE3UBH93r7bw1LMtt16gbJ3PeZ1vViOaoiPbIY6q0mAxpDTPR0VHgxxofUovxPVuiAofNy8Ukvyx92bTBM0c5Zoa7D2B7qTn8qTjLe2W3QWyJZAHAv6e8j8RGP3JdN6e73sDzTNtvxUBculBBnPVVzzdNgxEJs_WKWSRJA0SR8z-E02Lil0FHKuuEzE1sIjuzZCKtLeVERtGshHh5ElqBJOGhCy4vrhsIivFJsujlvnjX_EWZ5gHo5Kj_PcNbsISyAaX4R9NJg0x4b5oar5FWV1hoJ-qhvxMnQBqno4iACjhOYfUK6VRHW8a3JSlOtI0uT3CAbuY72V2az8-HwmzypqOJgenDnyyR7yi98R7XD_dEHpksAMOFeRzfwXHiT1Jg_dGO9tMjLknhBPvGEwDXKeLMR7tcO8HqjUAhEuqvPxC1xcKTeTDcOEfrJa6GMeuFhnjyi6O1SbWs8rM7FyRS1ycE8ldULwqe7oGzliwluKvRhttd4gEK_MxiVMRqT-ZPESOesvPwh9FIllU4Zeq5BaD4xq-lpq-2MepHd6Bhp8HAUoPCKjVtJPAyj2RfNa3U-Jv8rn2W6g082qhvusQZil7Xvcj9txP6A7b0BH6w-znUM5VMHCvqGfqkZ2rHgmq8k0hQua7XGUoNGTPX31GfXr5kVZIzoLLmW0C1xxC8H7o2qitXDxoCq5AfRf5nONnaLavdliXJJ1vSXiN_6cIAtZWKCi_ErbtVJOv8iWZZZ8nfTiGPJDB8SdhzzMoVBS64_MGQeHdK2RB0FH7mK0vCitHGu2RorYW53z1fhjO7jO4pBaIXSFV0mDn3kb5EZ-794TZf4yoIy24XMimorT9uPMgABJo7wocltK71BSJAhsh2x0Xk3775OhYEiq0O4oKQVSurdv8joYwuDCBbd1y5A52gYFTtFis6YkF_3hE4UpUJzK6H_G_xKtlXL3FT-C93pxiyksDq5yDTS-Kwbo6RjbaCjhD89JZic3bS4_UmU9ATHRwGXl-5cKMd8R5Ft32FMAn_RutINYhQwslKNk7jBLQuJZcZOWutr0qHnTRBGXq53U5r-fmLiTYKvqWVbkY3nYXvLHabxdgOt-t2Fq-lxD7XjMYl6IIhZQOYiYtGBB_VvAFO730ZRnurV8G28AEWK-1BZsM3I38C4Xrv4fGvtO3mt8GcEWWQ4Fzt_1S0?></g></svg>