<?plantuml 1.2026.1?><svg xmlns="http://www.w3.org/2000/svg" xmlns:xlink="http://www.w3.org/1999/xlink" contentStyleType="text/css" data-diagram-type="ACTIVITY" height="1301px" preserveAspectRatio="none" style="width:682px;height:1301px;background:#FCFCFD;" version="1.1" viewBox="0 0 682 1301" width="682px" zoomAndPan="magnify"><title>Activity - core/CoreRouteTable</title><defs/><g><rect fill="#FCFCFD" height="1301" style="stroke:none;stroke-width:1;" width="682" x="0" y="0"/><g class="title" data-source-line="10"><text fill="#000000" font-family="Helvetica" font-size="14" font-weight="bold" lengthAdjust="spacing" textLength="204.5996" x="237.4075" y="30.7803">Activity - core/CoreRouteTable</text></g><ellipse cx="299.3745" cy="55" fill="#1D4ED8" rx="10" ry="10" style="stroke:#222222;stroke-width:1;"/><rect fill="#F8FAFC" height="48" rx="8" ry="8" style="stroke:#0F172A;stroke-width:0.5;" width="304.7852" x="146.9819" y="85"/><text fill="#0F172A" font-family="Helvetica" font-size="14" lengthAdjust="spacing" textLength="136.9375" x="156.9819" y="105.7803">Start from shared flow</text><text fill="#0F172A" font-family="Helvetica" font-size="14" lengthAdjust="spacing" textLength="284.7852" x="156.9819" y="119.7803">shared/diagrams/shared-reconcile-activity.svg</text><rect fill="#F8FAFC" height="48" rx="8" ry="8" style="stroke:#0F172A;stroke-width:0.5;" width="309.5156" x="144.6167" y="153"/><text fill="#0F172A" font-family="Helvetica" font-size="14" lengthAdjust="spacing" textLength="289.5156" x="154.6167" y="173.7803">Load desired CoreRouteTable spec and status</text><text fill="#0F172A" font-family="Helvetica" font-size="14" lengthAdjust="spacing" textLength="103.4961" x="154.6167" y="187.7803">from Kubernetes</text><rect fill="#F8FAFC" height="48" rx="8" ry="8" style="stroke:#0F172A;stroke-width:0.5;" width="313.3506" x="142.6992" y="221"/><text fill="#0F172A" font-family="Helvetica" font-size="14" lengthAdjust="spacing" textLength="293.3506" x="152.6992" y="241.7803">Resolve OCI state via GetCoreRouteTable with</text><text fill="#0F172A" font-family="Helvetica" font-size="14" lengthAdjust="spacing" textLength="175.8682" x="152.6992" y="255.7803">ListCoreRouteTable fallback</text><rect fill="#F8FAFC" height="62" rx="8" ry="8" style="stroke:#0F172A;stroke-width:0.5;" width="296.2402" x="151.2544" y="289"/><text fill="#0F172A" font-family="Helvetica" font-size="14" lengthAdjust="spacing" textLength="246.6816" x="161.2544" y="309.7803">Use scaffold_core_coreroutetable filters</text><text fill="#0F172A" font-family="Helvetica" font-size="14" lengthAdjust="spacing" textLength="276.2402" x="161.2544" y="323.7803">compartment_id, state when OCID lookup or</text><text fill="#0F172A" font-family="Helvetica" font-size="14" lengthAdjust="spacing" textLength="243.5645" x="161.2544" y="337.7803">bind-versus-create needs list resolution</text><polygon fill="#E2E8F0" points="245.6851,371,353.064,371,365.064,383,353.064,395,245.6851,395,233.6851,383,245.6851,371" style="stroke:#1D4ED8;stroke-width:0.5;"/><text fill="#0F172A" font-family="Helvetica" font-size="14" lengthAdjust="spacing" textLength="107.3789" x="245.6851" y="386.7803">Resource exists?</text><text fill="#000000" font-family="Helvetica" font-size="14" lengthAdjust="spacing" textLength="21.7861" x="211.8989" y="379.7803">yes</text><text fill="#000000" font-family="Helvetica" font-size="14" lengthAdjust="spacing" textLength="15.5723" x="365.064" y="379.7803">no</text><rect fill="#F8FAFC" height="34" rx="8" ry="8" style="stroke:#0F172A;stroke-width:0.5;" width="279.9365" x="11" y="405"/><text fill="#0F172A" font-family="Helvetica" font-size="14" lengthAdjust="spacing" textLength="259.9365" x="21" y="425.7803">Update path calls UpdateCoreRouteTable</text><rect fill="#F8FAFC" height="48" rx="8" ry="8" style="stroke:#0F172A;stroke-width:0.5;" width="266.7021" x="17.6172" y="459"/><text fill="#0F172A" font-family="Helvetica" font-size="14" lengthAdjust="spacing" textLength="246.7021" x="27.6172" y="479.7803">Guard mutable fields display_name and</text><text fill="#0F172A" font-family="Helvetica" font-size="14" lengthAdjust="spacing" textLength="202.3096" x="27.6172" y="493.7803">force-new fields compartment_id</text><rect fill="#F8FAFC" height="34" rx="8" ry="8" style="stroke:#0F172A;stroke-width:0.5;" width="273.6885" x="310.9365" y="405"/><text fill="#0F172A" font-family="Helvetica" font-size="14" lengthAdjust="spacing" textLength="253.6885" x="320.9365" y="425.7803">Create path calls CreateCoreRouteTable</text><polygon fill="#E2E8F0" points="299.3745,513,311.3745,525,299.3745,537,287.3745,525,299.3745,513" style="stroke:#1D4ED8;stroke-width:0.5;"/><rect fill="#F8FAFC" height="104" rx="8" ry="8" style="stroke:#0F172A;stroke-width:0.5;" width="334.3164" x="132.2163" y="557"/><text fill="#0F172A" font-family="Helvetica" font-size="14" lengthAdjust="spacing" textLength="164.2061" x="142.2163" y="577.7803">Run provider helper hooks</text><text fill="#0F172A" font-family="Helvetica" font-size="14" lengthAdjust="spacing" textLength="219.0508" x="142.2163" y="591.7803">create=tfresource.CreateResource,</text><text fill="#0F172A" font-family="Helvetica" font-size="14" lengthAdjust="spacing" textLength="314.3164" x="142.2163" y="605.7803">tfresource.WaitForWorkRequestWithErrorHandling</text><text fill="#0F172A" font-family="Helvetica" font-size="14" lengthAdjust="spacing" textLength="215.5439" x="142.2163" y="619.7803">entity=template action=CREATED;</text><text fill="#0F172A" font-family="Helvetica" font-size="14" lengthAdjust="spacing" textLength="226.085" x="142.2163" y="633.7803">update=tfresource.UpdateResource;</text><text fill="#0F172A" font-family="Helvetica" font-size="14" lengthAdjust="spacing" textLength="212.8438" x="142.2163" y="647.7803">delete=tfresource.DeleteResource</text><rect fill="#F8FAFC" height="34" rx="8" ry="8" style="stroke:#0F172A;stroke-width:0.5;" width="263.5918" x="167.5786" y="681"/><text fill="#0F172A" font-family="Helvetica" font-size="14" lengthAdjust="spacing" textLength="243.5918" x="177.5786" y="701.7803">Apply repo-authored secret policy none</text><rect fill="#F8FAFC" height="62" rx="8" ry="8" style="stroke:#0F172A;stroke-width:0.5;" width="308.6816" x="145.0337" y="735"/><text fill="#0F172A" font-family="Helvetica" font-size="14" lengthAdjust="spacing" textLength="280.9365" x="155.0337" y="755.7803">Delete path uses DeleteCoreRouteTable with</text><text fill="#0F172A" font-family="Helvetica" font-size="14" lengthAdjust="spacing" textLength="218.668" x="155.0337" y="769.7803">required via GetCoreRouteTable or</text><text fill="#0F172A" font-family="Helvetica" font-size="14" lengthAdjust="spacing" textLength="288.6816" x="155.0337" y="783.7803">ListCoreRouteTable to DELETED confirmation</text><rect fill="#F8FAFC" height="48" rx="8" ry="8" style="stroke:#0F172A;stroke-width:0.5;" width="279.1299" x="159.8096" y="817"/><text fill="#0F172A" font-family="Helvetica" font-size="14" lengthAdjust="spacing" textLength="259.1299" x="169.8096" y="837.7803">Project required status and finalizer policy</text><text fill="#0F172A" font-family="Helvetica" font-size="14" lengthAdjust="spacing" textLength="174.3027" x="169.8096" y="851.7803">retain-until-confirmed-delete</text><rect fill="#F8FAFC" height="34" rx="8" ry="8" style="stroke:#0F172A;stroke-width:0.5;" width="313.4189" x="142.665" y="885"/><text fill="#0F172A" font-family="Helvetica" font-size="14" lengthAdjust="spacing" textLength="293.4189" x="152.665" y="905.7803">Requeue on provisioning, updating, terminating</text><path d="M330.3745,929 L330.3745,1105 L310.3745,1109 L330.3745,1113 L330.3745,1289 A0,0 0 0 0 330.3745,1289 L670.4146,1289 A0,0 0 0 0 670.4146,1289 L670.4146,939 L660.4146,929 L330.3745,929 A0,0 0 0 0 330.3745,929" fill="#FFF7D6" style="stroke:#B45309;stroke-width:0.5;"/><path d="M660.4146,929 L660.4146,939 L670.4146,939 L660.4146,929" fill="#FFF7D6" style="stroke:#B45309;stroke-width:0.5;"/><text fill="#334155" font-family="Helvetica" font-size="14" lengthAdjust="spacing" textLength="101.165" x="336.3745" y="944.7803">shared diagram:</text><text fill="#334155" font-family="Helvetica" font-size="14" lengthAdjust="spacing" textLength="284.7852" x="336.3745" y="958.7803">shared/diagrams/shared-reconcile-activity.svg</text><text fill="#334155" font-family="Helvetica" font-size="14" lengthAdjust="spacing" textLength="265.3438" x="336.3745" y="972.7803">Start from the shared reconcile activity and</text><text fill="#334155" font-family="Helvetica" font-size="14" lengthAdjust="spacing" textLength="273.8955" x="336.3745" y="986.7803">specialize provider-backed CRUD, wait, and</text><text fill="#334155" font-family="Helvetica" font-size="14" lengthAdjust="spacing" textLength="182.875" x="336.3745" y="1000.7803">status-projection details here.</text><text fill="#334155" font-family="Helvetica" font-size="14" lengthAdjust="spacing" textLength="229.5371" x="336.3745" y="1014.7803">Controller-local activity diagrams add</text><text fill="#334155" font-family="Helvetica" font-size="14" lengthAdjust="spacing" textLength="238.8955" x="336.3745" y="1028.7803">list-lookup hints, secret policies, delete</text><text fill="#334155" font-family="Helvetica" font-size="14" lengthAdjust="spacing" textLength="200.0332" x="336.3745" y="1042.7803">handling, and open formal gaps.</text><text fill="#334155" font-family="Helvetica" font-size="14" lengthAdjust="spacing" textLength="281.709" x="336.3745" y="1056.7803">archetype batch: Generated service-manager</text><text fill="#334155" font-family="Helvetica" font-size="14" lengthAdjust="spacing" textLength="291.0469" x="336.3745" y="1070.7803">controllers specialize the shared reconcile path</text><text fill="#334155" font-family="Helvetica" font-size="14" lengthAdjust="spacing" textLength="189.8477" x="336.3745" y="1084.7803">with formal runtime ownership.</text><text fill="#334155" font-family="Helvetica" font-size="14" lengthAdjust="spacing" textLength="79.3584" x="336.3745" y="1098.7803">service: core</text><text fill="#334155" font-family="Helvetica" font-size="14" lengthAdjust="spacing" textLength="122.9648" x="336.3745" y="1112.7803">slug: coreroutetable</text><text fill="#334155" font-family="Helvetica" font-size="14" lengthAdjust="spacing" textLength="136.1855" x="336.3745" y="1126.7803">kind: CoreRouteTable</text><text fill="#334155" font-family="Helvetica" font-size="14" lengthAdjust="spacing" textLength="241.2402" x="336.3745" y="1140.7803">archetype: generated-service-manager</text><text fill="#334155" font-family="Helvetica" font-size="14" lengthAdjust="spacing" textLength="156.4063" x="336.3745" y="1154.7803">status/finalizer: required /</text><text fill="#334155" font-family="Helvetica" font-size="14" lengthAdjust="spacing" textLength="174.3027" x="336.3745" y="1168.7803">retain-until-confirmed-delete</text><text fill="#334155" font-family="Helvetica" font-size="14" lengthAdjust="spacing" textLength="272.3984" x="336.3745" y="1182.7803">requeue: provisioning, updating, terminating</text><text fill="#334155" font-family="Helvetica" font-size="14" lengthAdjust="spacing" textLength="295.6816" x="336.3745" y="1196.7803">provider states: create PROVISIONING; update</text><text fill="#334155" font-family="Helvetica" font-size="14" lengthAdjust="spacing" textLength="192.165" x="336.3745" y="1210.7803">UPDATING; delete DELETING</text><text fill="#334155" font-family="Helvetica" font-size="14" lengthAdjust="spacing" textLength="319.04" x="336.3745" y="1224.7803">mutable/forceNew: display_name / compartment_id</text><text fill="#334155" font-family="Helvetica" font-size="14" lengthAdjust="spacing" textLength="104.3164" x="336.3745" y="1238.7803">open gaps: none</text><text fill="#334155" font-family="Helvetica" font-size="14" lengthAdjust="spacing" textLength="224.9023" x="336.3745" y="1252.7803">Scaffold metadata only; replace with</text><text fill="#334155" font-family="Helvetica" font-size="14" lengthAdjust="spacing" textLength="244.3232" x="336.3745" y="1266.7803">controller-specific runtime states before</text><text fill="#334155" font-family="Helvetica" font-size="14" lengthAdjust="spacing" textLength="66.1445" x="336.3745" y="1280.7803">promotion.</text><ellipse cx="299.3745" cy="1109" fill="none" rx="11" ry="11" style="stroke:#222222;stroke-width:1;"/><ellipse cx="299.3745" cy="1109" fill="#222222" rx="6" ry="6" style="stroke:#222222;stroke-width:1;"/><line style="stroke:#0F172A;stroke-width:1;" x1="299.3745" x2="299.3745" y1="65" y2="85"/><polygon fill="#0F172A" points="295.3745,75,299.3745,85,303.3745,75,299.3745,79" style="stroke:#0F172A;stroke-width:1;"/><line style="stroke:#0F172A;stroke-width:1;" x1="299.3745" x2="299.3745" y1="133" y2="153"/><polygon fill="#0F172A" points="295.3745,143,299.3745,153,303.3745,143,299.3745,147" style="stroke:#0F172A;stroke-width:1;"/><line style="stroke:#0F172A;stroke-width:1;" x1="299.3745" x2="299.3745" y1="201" y2="221"/><polygon fill="#0F172A" points="295.3745,211,299.3745,221,303.3745,211,299.3745,215" style="stroke:#0F172A;stroke-width:1;"/><line style="stroke:#0F172A;stroke-width:1;" x1="299.3745" x2="299.3745" y1="269" y2="289"/><polygon fill="#0F172A" points="295.3745,279,299.3745,289,303.3745,279,299.3745,283" style="stroke:#0F172A;stroke-width:1;"/><line style="stroke:#0F172A;stroke-width:1;" x1="150.9683" x2="150.9683" y1="439" y2="459"/><polygon fill="#0F172A" points="146.9683,449,150.9683,459,154.9683,449,150.9683,453" style="stroke:#0F172A;stroke-width:1;"/><line style="stroke:#0F172A;stroke-width:1;" x1="233.6851" x2="150.9683" y1="383" y2="383"/><line style="stroke:#0F172A;stroke-width:1;" x1="150.9683" x2="150.9683" y1="383" y2="405"/><polygon fill="#0F172A" points="146.9683,395,150.9683,405,154.9683,395,150.9683,399" style="stroke:#0F172A;stroke-width:1;"/><line style="stroke:#0F172A;stroke-width:1;" x1="365.064" x2="447.7808" y1="383" y2="383"/><line style="stroke:#0F172A;stroke-width:1;" x1="447.7808" x2="447.7808" y1="383" y2="405"/><polygon fill="#0F172A" points="443.7808,395,447.7808,405,451.7808,395,447.7808,399" style="stroke:#0F172A;stroke-width:1;"/><line style="stroke:#0F172A;stroke-width:1;" x1="150.9683" x2="150.9683" y1="507" y2="525"/><line style="stroke:#0F172A;stroke-width:1;" x1="150.9683" x2="287.3745" y1="525" y2="525"/><polygon fill="#0F172A" points="277.3745,521,287.3745,525,277.3745,529,281.3745,525" style="stroke:#0F172A;stroke-width:1;"/><line style="stroke:#0F172A;stroke-width:1;" x1="447.7808" x2="447.7808" y1="439" y2="525"/><line style="stroke:#0F172A;stroke-width:1;" x1="447.7808" x2="311.3745" y1="525" y2="525"/><polygon fill="#0F172A" points="321.3745,521,311.3745,525,321.3745,529,317.3745,525" style="stroke:#0F172A;stroke-width:1;"/><line style="stroke:#0F172A;stroke-width:1;" x1="299.3745" x2="299.3745" y1="351" y2="371"/><polygon fill="#0F172A" points="295.3745,361,299.3745,371,303.3745,361,299.3745,365" style="stroke:#0F172A;stroke-width:1;"/><line style="stroke:#0F172A;stroke-width:1;" x1="299.3745" x2="299.3745" y1="537" y2="557"/><polygon fill="#0F172A" points="295.3745,547,299.3745,557,303.3745,547,299.3745,551" style="stroke:#0F172A;stroke-width:1;"/><line style="stroke:#0F172A;stroke-width:1;" x1="299.3745" x2="299.3745" y1="661" y2="681"/><polygon fill="#0F172A" points="295.3745,671,299.3745,681,303.3745,671,299.3745,675" style="stroke:#0F172A;stroke-width:1;"/><line style="stroke:#0F172A;stroke-width:1;" x1="299.3745" x2="299.3745" y1="715" y2="735"/><polygon fill="#0F172A" points="295.3745,725,299.3745,735,303.3745,725,299.3745,729" style="stroke:#0F172A;stroke-width:1;"/><line style="stroke:#0F172A;stroke-width:1;" x1="299.3745" x2="299.3745" y1="797" y2="817"/><polygon fill="#0F172A" points="295.3745,807,299.3745,817,303.3745,807,299.3745,811" style="stroke:#0F172A;stroke-width:1;"/><line style="stroke:#0F172A;stroke-width:1;" x1="299.3745" x2="299.3745" y1="865" y2="885"/><polygon fill="#0F172A" points="295.3745,875,299.3745,885,303.3745,875,299.3745,879" style="stroke:#0F172A;stroke-width:1;"/><line style="stroke:#0F172A;stroke-width:1;" x1="299.3745" x2="299.3745" y1="919" y2="1098"/><polygon fill="#0F172A" points="295.3745,1088,299.3745,1098,303.3745,1088,299.3745,1092" style="stroke:#0F172A;stroke-width:1;"/><?plantuml-src bLPjRo8t4FxkNs6fNt8I2-6ItAMBeYe5BXSrIYAID5-G8hEUPTruxQtjXTBg_lkDxMLPE5IrYWIiPpmlppppREoxK1KphAIsO5olXLhId4aBnBQM1SlUbqRNYe-rr8R-b6VunpiU779MI_T5AtVFIg1VGQx0YOmTztaIVmCTddUCp1YzRgAVviFF7xitbNRmwmyrvFbd_kdGIniEfl5Od5-SdVvyuE7JD_Qpi_FXnKN77i9dsYWmTFY9EE4aqElCYPLm6vfGDC5WZ1ypNJjuPWlPHObj7VyXz0XabpdBCs_fbjYqIcc-AwizuuALMl4VEeUFS9cVTXow4OVy7FZbplZbI63hc767_j36R_qMx23gDnAkalJ9Vz7Sw40R0vpcKg_dAZuCCFSI8R63-9mOoBJAX8Ha2rBVhfOZajvfnf4OLlWG-yXIMq56cUA-N5VRkGhfVgiNW0DoOF7w3An6ej67yMtm0heIZDw0EmYr5gwOgpjX3mt8TEb7XR5UBARCM9vhoT_yfCE7yRuk-Whfm60TcIvnugu4vTu4xpMPrmKeNyY4IgtVwufgCrSBeNYombkrJJ83tay1S4ibraADBxzsGgiH4JazyUtK9WCAVw7P_lA1EX_qP0Fs0nPOSN-_OgwW6TPjQJpPRmaxkQcPuRIijsM3n8HSs4gopPlowuce8fmQKoKArbkN_Rv61505w8dIc7iSQ-_aZYU7kP548iUvr8fMHgy4yf8M82l_XQXuyCAzAvURfjb-ZBJjlJTN7Tih4oWOvbMRzndyMODrhpZAAOg5-OfDI5IhkS9waL5N3ahi4Alq7DFgQZoRNZzF9wEvgWDEtPmHkMrETE4WOTzb4avQ5v9ULvNSuCmgdR3Q5TfJrWBsusYbfSWsg2_AEyQR4QpQWgNnu2Wd3NOLo7-Sk9v3HsZhD9rCxwRO7GvDvSAKBB8eVJJw3yWyjPguSNd27kL2COdAQvfwVNR7X4fg150cJIHSrmX6s2_4lCOocd5QJ8AGzsX0DFp2bIWnhdyOeJheYdYLfKOi2qSQRMZa82N_Inv8HsHm3xP2qphl11UR8rujH6YlPLxYDzlhoknbqgDhf58lkWP8aYf2XIsX0Y4EIEe23FJ962NJQ2anWjJ8zbsYRU6KSKxy2YVDhXT2ETlReuC0F8X8agBXQiXFTOLBZTjNOkWbgsoVC9CLu3OLeEIwh4YH2VWEGePwXfcLm3qjcM9BC2HhYxEqq_DHW3m3YUVPDflnayRzrsiCRmjHzKaJFmqlDs9blOm_Ty97y0t7qmDrtfMSqkMssEIms8Zqe2LUkkFbWFmh-OY9r4l_2_58gpL1YYrs4FNgSVRm--tJxSFzxVtDADu5yl8ukNuE1p5LN2Ky88ra3e8otiCwtLVDmO52aZ18Fy4qh3vvQbuVjCJMC1V3nP6RaTSCoRAuyfq19c5-kSZQkSJowG9oFmpigjIUdtslg-6_b-y0?></g></svg>