<?plantuml 1.2026.2?><svg xmlns="http://www.w3.org/2000/svg" xmlns:xlink="http://www.w3.org/1999/xlink" contentStyleType="text/css" data-diagram-type="SEQUENCE" height="2608px" preserveAspectRatio="none" style="width:1169px;height:2608px;background:#FCFCFD;" version="1.1" viewBox="0 0 1169 2608" width="1169px" zoomAndPan="magnify"><title>Sequence - dashboardservice/DashboardGroup</title><defs/><g><rect fill="#FCFCFD" height="2608" style="stroke:none;stroke-width:1;" width="1169" x="0" y="0"/><text fill="#000000" font-family="Helvetica" font-size="14" font-weight="bold" lengthAdjust="spacing" textLength="317.4199" x="430.938" y="25.7803">Sequence - dashboardservice/DashboardGroup</text><rect fill="none" height="290" rx="8" ry="8" style="stroke:#CBD5E1;stroke-width:1.5;" width="652.1836" x="466.3145" y="314"/><rect fill="none" height="146" rx="8" ry="8" style="stroke:#CBD5E1;stroke-width:1.5;" width="406.7778" x="701.7202" y="423"/><rect fill="none" height="44" rx="8" ry="8" style="stroke:#CBD5E1;stroke-width:1.5;" width="386.7778" x="711.7202" y="474"/><rect fill="none" height="994" rx="8" ry="8" style="stroke:#CBD5E1;stroke-width:1.5;" width="688.4634" x="446.3145" y="618"/><rect fill="none" height="260" rx="8" ry="8" style="stroke:#CBD5E1;stroke-width:1.5;" width="652.1836" x="456.3145" y="641"/><rect fill="none" height="58" rx="8" ry="8" style="stroke:#CBD5E1;stroke-width:1.5;" width="386.7778" x="711.7202" y="734"/><rect fill="none" height="88" rx="8" ry="8" style="stroke:#CBD5E1;stroke-width:1.5;" width="421.7983" x="466.3145" y="806"/><rect fill="none" height="560" rx="8" ry="8" style="stroke:#CBD5E1;stroke-width:1.5;" width="668.4634" x="456.3145" y="1003"/><rect fill="none" height="44" rx="8" ry="8" style="stroke:#CBD5E1;stroke-width:1.5;" width="421.7983" x="466.3145" y="1186"/><rect fill="none" height="172" rx="8" ry="8" style="stroke:#CBD5E1;stroke-width:1.5;" width="406.7778" x="701.7202" y="1244"/><rect fill="none" height="44" rx="8" ry="8" style="stroke:#CBD5E1;stroke-width:1.5;" width="386.7778" x="711.7202" y="1365"/><g class="participant-lifeline" data-entity-uid="part1" data-qualified-name="Kubernetes" id="part1-lifeline"><g><title>Kubernetes</title><rect fill="#000000" fill-opacity="0.00000" height="2487" width="8" x="39.8032" y="114"/><line style="stroke:#94A3B8;stroke-width:0.5;stroke-dasharray:5,5;" x1="43" x2="43" y1="114" y2="2601"/></g></g><g class="participant-lifeline" data-entity-uid="part2" data-qualified-name="Controller" id="part2-lifeline"><g><title>Controller</title><rect fill="#000000" fill-opacity="0.00000" height="2487" width="8" x="289.5122" y="114"/><line style="stroke:#94A3B8;stroke-width:0.5;stroke-dasharray:5,5;" x1="293.1675" x2="293.1675" y1="114" y2="2601"/></g></g><g class="participant-lifeline" data-entity-uid="part3" data-qualified-name="BaseReconciler" id="part3-lifeline"><g><title>BaseReconciler</title><rect fill="#000000" fill-opacity="0.00000" height="2487" width="8" x="528.3384" y="114"/><line style="stroke:#94A3B8;stroke-width:0.5;stroke-dasharray:5,5;" x1="532.3145" x2="532.3145" y1="114" y2="2601"/></g></g><g class="participant-lifeline" data-entity-uid="part4" data-qualified-name="ServiceManager" id="part4-lifeline"><g><title>OSOKServiceManager</title><rect fill="#000000" fill-opacity="0.00000" height="2487" width="8" x="795.9165" y="114"/><line style="stroke:#94A3B8;stroke-width:0.5;stroke-dasharray:5,5;" x1="799.7202" x2="799.7202" y1="114" y2="2601"/></g></g><g class="participant-lifeline" data-entity-uid="part5" data-qualified-name="OCI" id="part5-lifeline"><g><title>OCI</title><rect fill="#000000" fill-opacity="0.00000" height="2487" width="8" x="1065.0532" y="114"/><line style="stroke:#94A3B8;stroke-width:0.5;stroke-dasharray:5,5;" x1="1068.6084" x2="1068.6084" y1="114" y2="2601"/></g></g><g class="participant participant-head" data-entity-uid="part1" data-qualified-name="Kubernetes" id="part1-head"><text fill="#000000" font-family="Helvetica" font-size="14" lengthAdjust="spacing" textLength="71.6064" x="5" y="110.7803">Kubernetes</text><ellipse cx="43.8032" cy="48.5" fill="#E2E8F0" rx="8" ry="8" style="stroke:#0F172A;stroke-width:0.5;"/><path d="M43.8032,56.5 L43.8032,83.5 M30.8032,64.5 L56.8032,64.5 M43.8032,83.5 L30.8032,98.5 M43.8032,83.5 L56.8032,98.5" fill="none" style="stroke:#0F172A;stroke-width:0.5;"/></g><g class="participant participant-head" data-entity-uid="part2" data-qualified-name="Controller" id="part2-head"><rect fill="#E2E8F0" height="28" rx="8" ry="8" style="stroke:#0F172A;stroke-width:0.5;" width="74.6895" x="256.1675" y="85"/><text fill="#0F172A" font-family="Helvetica" font-size="14" lengthAdjust="spacing" textLength="60.6895" x="263.1675" y="102.7803">Controller</text></g><g class="participant participant-head" data-entity-uid="part3" data-qualified-name="BaseReconciler" id="part3-head"><rect fill="#E2E8F0" height="28" rx="8" ry="8" style="stroke:#0F172A;stroke-width:0.5;" width="112.0479" x="476.3145" y="85"/><text fill="#0F172A" font-family="Helvetica" font-size="14" lengthAdjust="spacing" textLength="98.0479" x="483.3145" y="102.7803">BaseReconciler</text></g><g class="participant participant-head" data-entity-uid="part4" data-qualified-name="ServiceManager" id="part4-head"><rect fill="#E2E8F0" height="28" rx="8" ry="8" style="stroke:#0F172A;stroke-width:0.5;" width="156.3926" x="721.7202" y="85"/><text fill="#0F172A" font-family="Helvetica" font-size="14" lengthAdjust="spacing" textLength="142.3926" x="728.7202" y="102.7803">OSOKServiceManager</text></g><g class="participant participant-head" data-entity-uid="part5" data-qualified-name="OCI" id="part5-head"><rect fill="#E2E8F0" height="28" rx="8" ry="8" style="stroke:#0F172A;stroke-width:0.5;" width="38.8896" x="1049.6084" y="85"/><text fill="#0F172A" font-family="Helvetica" font-size="14" lengthAdjust="spacing" textLength="24.8896" x="1056.6084" y="102.7803">OCI</text></g><path d="M467,137 L467,187 A8,8 0 0 0 475,195 L855,195 A8,8 0 0 0 863,187 L863,139 L853,129 L475,129 A8,8 0 0 0 467,137" fill="#FFF7D6" style="stroke:#B45309;stroke-width:0.5;"/><path d="M853,129 L853,135 A4,4 0 0 0 857,139 L863,139 L853,129" fill="#FFF7D6" style="stroke:#B45309;stroke-width:0.5;"/><text fill="#334155" font-family="Helvetica" font-size="14" lengthAdjust="spacing" textLength="111.2891" x="507.2034" y="144.7803">shared resolution:</text><text fill="#334155" font-family="Helvetica" font-size="14" lengthAdjust="spacing" textLength="307.3916" x="507.2034" y="158.7803">shared/diagrams/shared-resolution-sequence.svg</text><text fill="#334155" font-family="Helvetica" font-size="14" lengthAdjust="spacing" textLength="88.7305" x="507.2034" y="172.7803">shared delete:</text><text fill="#334155" font-family="Helvetica" font-size="14" lengthAdjust="spacing" textLength="284.833" x="507.2034" y="186.7803">shared/diagrams/shared-delete-sequence.svg</text><g class="message" data-entity-1="part1" data-entity-2="part2" id="msg1"><polygon fill="#0F172A" points="281.5122,216,291.5122,220,281.5122,224,285.5122,220" style="stroke:#0F172A;stroke-width:1;"/><line style="stroke:#0F172A;stroke-width:1;" x1="43.8032" x2="287.5122" y1="220" y2="220"/><text fill="#000000" font-family="Helvetica" font-size="14" lengthAdjust="spacing" textLength="225.709" x="50.8032" y="214.7803">enqueue DashboardGroup reconcile</text></g><g class="message" data-entity-1="part2" data-entity-2="part3" id="msg2"><polygon fill="#0F172A" points="520.3384,244,530.3384,248,520.3384,252,524.3384,248" style="stroke:#0F172A;stroke-width:1;"/><line style="stroke:#0F172A;stroke-width:1;" x1="293.5122" x2="526.3384" y1="248" y2="248"/><text fill="#000000" font-family="Helvetica" font-size="14" lengthAdjust="spacing" textLength="117.4961" x="300.5122" y="242.7803">Reconcile(request)</text></g><g class="message" data-entity-1="part3" data-entity-2="part4" id="msg3"><polygon fill="#0F172A" points="787.9165,272,797.9165,276,787.9165,280,791.9165,276" style="stroke:#0F172A;stroke-width:1;"/><line style="stroke:#0F172A;stroke-width:1;" x1="532.3384" x2="793.9165" y1="276" y2="276"/><text fill="#000000" font-family="Helvetica" font-size="14" lengthAdjust="spacing" textLength="217.123" x="539.3384" y="270.7803">reconcile desired DashboardGroup</text></g><path d="M474.3145,314 L527.6523,314 L527.6523,320 L517.6523,330 L466.3145,330 L466.3145,322 A8,8 0 0 1 474.3145,314" fill="#F8FAFC" style="stroke:#CBD5E1;stroke-width:1.5;"/><rect fill="none" height="290" rx="8" ry="8" style="stroke:#CBD5E1;stroke-width:1.5;" width="652.1836" x="466.3145" y="314"/><text fill="#000000" font-family="Helvetica" font-size="14" font-weight="bold" lengthAdjust="spacing" textLength="16.3379" x="481.3145" y="325.7803">alt</text><text fill="#000000" font-family="Helvetica" font-size="14" font-weight="bold" lengthAdjust="spacing" textLength="308.1094" x="542.6523" y="326.7803">[tracked or explicit OCI identity already exists]</text><g class="message" data-entity-1="part4" data-entity-2="part5" id="msg4"><polygon fill="#0F172A" points="1057.0532,346,1067.0532,350,1057.0532,354,1061.0532,350" style="stroke:#0F172A;stroke-width:1;"/><line style="stroke:#0F172A;stroke-width:1;" x1="799.9165" x2="1063.0532" y1="350" y2="350"/><text fill="#000000" font-family="Helvetica" font-size="14" lengthAdjust="spacing" textLength="129.9648" x="806.9165" y="344.7803">GetDashboardGroup</text></g><line style="stroke:#CBD5E1;stroke-width:1;stroke-dasharray:2,2;" x1="466.3145" x2="1118.498" y1="359" y2="359"/><text fill="#000000" font-family="Helvetica" font-size="14" font-weight="bold" lengthAdjust="spacing" textLength="185.1582" x="471.3145" y="369.7803">[tracked identity is missing]</text><g class="message" data-entity-1="part4" data-entity-2="part5" id="msg5"><polygon fill="#0F172A" points="1057.0532,404,1067.0532,408,1057.0532,412,1061.0532,408" style="stroke:#0F172A;stroke-width:1;"/><line style="stroke:#0F172A;stroke-width:1;" x1="799.9165" x2="1063.0532" y1="408" y2="408"/><text fill="#000000" font-family="Helvetica" font-size="14" lengthAdjust="spacing" textLength="178.1855" x="806.9165" y="388.7803">ListDashboardGroups(filters:</text><text fill="#000000" font-family="Helvetica" font-size="14" lengthAdjust="spacing" textLength="186.7373" x="806.9165" y="402.7803">compartmentId, displayName)</text></g><path d="M709.7202,423 L763.0581,423 L763.0581,429 L753.0581,439 L701.7202,439 L701.7202,431 A8,8 0 0 1 709.7202,423" fill="#F8FAFC" style="stroke:#CBD5E1;stroke-width:1.5;"/><rect fill="none" height="146" rx="8" ry="8" style="stroke:#CBD5E1;stroke-width:1.5;" width="406.7778" x="701.7202" y="423"/><text fill="#000000" font-family="Helvetica" font-size="14" font-weight="bold" lengthAdjust="spacing" textLength="16.3379" x="716.7202" y="434.7803">alt</text><text fill="#000000" font-family="Helvetica" font-size="14" font-weight="bold" lengthAdjust="spacing" textLength="242.7031" x="778.0581" y="435.7803">[reusable OCI resource is not found]</text><g class="message" data-entity-1="part4" data-entity-2="part5" id="msg6"><polygon fill="#0F172A" points="1057.0532,455,1067.0532,459,1057.0532,463,1061.0532,459" style="stroke:#0F172A;stroke-width:1;"/><line style="stroke:#0F172A;stroke-width:1;" x1="799.9165" x2="1063.0532" y1="459" y2="459"/><text fill="#000000" font-family="Helvetica" font-size="14" lengthAdjust="spacing" textLength="149.4199" x="806.9165" y="453.7803">CreateDashboardGroup</text></g><path d="M719.7202,474 L786.2651,474 L786.2651,480 L776.2651,490 L711.7202,490 L711.7202,482 A8,8 0 0 1 719.7202,474" fill="#F8FAFC" style="stroke:#CBD5E1;stroke-width:1.5;"/><rect fill="none" height="44" rx="8" ry="8" style="stroke:#CBD5E1;stroke-width:1.5;" width="386.7778" x="711.7202" y="474"/><text fill="#000000" font-family="Helvetica" font-size="14" font-weight="bold" lengthAdjust="spacing" textLength="29.5449" x="726.7202" y="485.7803">loop</text><text fill="#000000" font-family="Helvetica" font-size="14" font-weight="bold" lengthAdjust="spacing" textLength="185.9033" x="801.2651" y="486.7803">[create pending CREATING]</text><g class="message" data-entity-1="part4" data-entity-2="part5" id="msg7"><polygon fill="#0F172A" points="1057.0532,506,1067.0532,510,1057.0532,514,1061.0532,510" style="stroke:#0F172A;stroke-width:1;"/><line style="stroke:#0F172A;stroke-width:1;" x1="799.9165" x2="1063.0532" y1="510" y2="510"/><text fill="#000000" font-family="Helvetica" font-size="14" lengthAdjust="spacing" textLength="129.9648" x="806.9165" y="504.7803">GetDashboardGroup</text></g><line style="stroke:#CBD5E1;stroke-width:1;stroke-dasharray:2,2;" x1="701.7202" x2="1108.498" y1="526" y2="526"/><text fill="#000000" font-family="Helvetica" font-size="14" font-weight="bold" lengthAdjust="spacing" textLength="255.2334" x="706.7202" y="536.7803">[reusable OCI resource already exists]</text><g class="message" data-entity-1="part4" data-entity-2="part5" id="msg8"><polygon fill="#0F172A" points="1057.0532,557,1067.0532,561,1057.0532,565,1061.0532,561" style="stroke:#0F172A;stroke-width:1;"/><line style="stroke:#0F172A;stroke-width:1;" x1="799.9165" x2="1063.0532" y1="561" y2="561"/><text fill="#000000" font-family="Helvetica" font-size="14" lengthAdjust="spacing" textLength="129.9648" x="806.9165" y="555.7803">GetDashboardGroup</text></g><g class="message" data-entity-1="part4" data-entity-2="part3" id="msg9"><polygon fill="#0F172A" points="543.3384,592,533.3384,596,543.3384,600,539.3384,596" style="stroke:#0F172A;stroke-width:1;"/><line style="stroke:#0F172A;stroke-width:1;stroke-dasharray:2,2;" x1="537.3384" x2="798.9165" y1="596" y2="596"/><text fill="#000000" font-family="Helvetica" font-size="14" lengthAdjust="spacing" textLength="231.0957" x="549.3384" y="590.7803">persist resolved OCI identity in status</text></g><path d="M454.3145,618 L507.6523,618 L507.6523,624 L497.6523,634 L446.3145,634 L446.3145,626 A8,8 0 0 1 454.3145,618" fill="#F8FAFC" style="stroke:#CBD5E1;stroke-width:1.5;"/><rect fill="none" height="994" rx="8" ry="8" style="stroke:#CBD5E1;stroke-width:1.5;" width="688.4634" x="446.3145" y="618"/><text fill="#000000" font-family="Helvetica" font-size="14" font-weight="bold" lengthAdjust="spacing" textLength="16.3379" x="461.3145" y="629.7803">alt</text><text fill="#000000" font-family="Helvetica" font-size="14" font-weight="bold" lengthAdjust="spacing" textLength="120.5859" x="522.6523" y="630.7803">[delete requested]</text><path d="M464.3145,641 L543.335,641 L543.335,647 L533.335,657 L456.3145,657 L456.3145,649 A8,8 0 0 1 464.3145,641" fill="#F8FAFC" style="stroke:#CBD5E1;stroke-width:1.5;"/><rect fill="none" height="260" rx="8" ry="8" style="stroke:#CBD5E1;stroke-width:1.5;" width="652.1836" x="456.3145" y="641"/><text fill="#000000" font-family="Helvetica" font-size="14" font-weight="bold" lengthAdjust="spacing" textLength="42.0205" x="471.3145" y="652.7803">Delete</text><g class="message" data-entity-1="part4" data-entity-2="part5" id="msg10"><polygon fill="#0F172A" points="1057.0532,673,1067.0532,677,1057.0532,681,1061.0532,677" style="stroke:#0F172A;stroke-width:1;"/><line style="stroke:#0F172A;stroke-width:1;" x1="799.9165" x2="1063.0532" y1="677" y2="677"/><text fill="#000000" font-family="Helvetica" font-size="14" lengthAdjust="spacing" textLength="147.8682" x="806.9165" y="671.7803">DeleteDashboardGroup</text></g><g class="message" data-entity-1="part4" data-entity-2="part5" id="msg11"><polygon fill="#0F172A" points="1057.0532,715,1067.0532,719,1057.0532,723,1061.0532,719" style="stroke:#0F172A;stroke-width:1;"/><line style="stroke:#0F172A;stroke-width:1;" x1="799.9165" x2="1063.0532" y1="719" y2="719"/><text fill="#000000" font-family="Helvetica" font-size="14" lengthAdjust="spacing" textLength="243.5713" x="806.9165" y="699.7803">confirm delete via GetDashboardGroup</text><text fill="#000000" font-family="Helvetica" font-size="14" lengthAdjust="spacing" textLength="152.5234" x="806.9165" y="713.7803">or ListDashboardGroups</text></g><path d="M719.7202,734 L786.2651,734 L786.2651,740 L776.2651,750 L711.7202,750 L711.7202,742 A8,8 0 0 1 719.7202,734" fill="#F8FAFC" style="stroke:#CBD5E1;stroke-width:1.5;"/><rect fill="none" height="58" rx="8" ry="8" style="stroke:#CBD5E1;stroke-width:1.5;" width="386.7778" x="711.7202" y="734"/><text fill="#000000" font-family="Helvetica" font-size="14" font-weight="bold" lengthAdjust="spacing" textLength="29.5449" x="726.7202" y="745.7803">loop</text><text fill="#000000" font-family="Helvetica" font-size="14" font-weight="bold" lengthAdjust="spacing" textLength="182.7793" x="801.2651" y="746.7803">[delete pending DELETING]</text><g class="message" data-entity-1="part4" data-entity-2="part5" id="msg12"><polygon fill="#0F172A" points="1057.0532,780,1067.0532,784,1057.0532,788,1061.0532,784" style="stroke:#0F172A;stroke-width:1;"/><line style="stroke:#0F172A;stroke-width:1;" x1="799.9165" x2="1063.0532" y1="784" y2="784"/><text fill="#000000" font-family="Helvetica" font-size="14" lengthAdjust="spacing" textLength="146.3027" x="806.9165" y="764.7803">GetDashboardGroup or</text><text fill="#000000" font-family="Helvetica" font-size="14" lengthAdjust="spacing" textLength="136.1855" x="806.9165" y="778.7803">ListDashboardGroups</text></g><path d="M474.3145,806 L527.6523,806 L527.6523,812 L517.6523,822 L466.3145,822 L466.3145,814 A8,8 0 0 1 474.3145,806" fill="#F8FAFC" style="stroke:#CBD5E1;stroke-width:1.5;"/><rect fill="none" height="88" rx="8" ry="8" style="stroke:#CBD5E1;stroke-width:1.5;" width="421.7983" x="466.3145" y="806"/><text fill="#000000" font-family="Helvetica" font-size="14" font-weight="bold" lengthAdjust="spacing" textLength="16.3379" x="481.3145" y="817.7803">alt</text><text fill="#000000" font-family="Helvetica" font-size="14" font-weight="bold" lengthAdjust="spacing" textLength="261.4268" x="542.6523" y="818.7803">[cleanup or finalizer release is blocked]</text><g class="message" data-entity-1="part4" data-entity-2="part3" id="msg13"><polygon fill="#0F172A" points="543.3384,838,533.3384,842,543.3384,846,539.3384,842" style="stroke:#0F172A;stroke-width:1;"/><line style="stroke:#0F172A;stroke-width:1;stroke-dasharray:2,2;" x1="537.3384" x2="798.9165" y1="842" y2="842"/><text fill="#000000" font-family="Helvetica" font-size="14" lengthAdjust="spacing" textLength="170.4336" x="549.3384" y="836.7803">retain delete state and retry</text></g><line style="stroke:#CBD5E1;stroke-width:1;stroke-dasharray:2,2;" x1="466.3145" x2="888.1128" y1="851" y2="851"/><text fill="#000000" font-family="Helvetica" font-size="14" font-weight="bold" lengthAdjust="spacing" textLength="194.4824" x="471.3145" y="861.7803">[delete completion observed]</text><g class="message" data-entity-1="part4" data-entity-2="part3" id="msg14"><polygon fill="#0F172A" points="543.3384,882,533.3384,886,543.3384,890,539.3384,886" style="stroke:#0F172A;stroke-width:1;"/><line style="stroke:#0F172A;stroke-width:1;stroke-dasharray:2,2;" x1="537.3384" x2="798.9165" y1="886" y2="886"/><text fill="#000000" font-family="Helvetica" font-size="14" lengthAdjust="spacing" textLength="243.5781" x="549.3384" y="880.7803">release finalizer after delete completion</text></g><line style="stroke:#CBD5E1;stroke-width:1;stroke-dasharray:2,2;" x1="446.3145" x2="1134.7778" y1="909" y2="909"/><text fill="#000000" font-family="Helvetica" font-size="14" font-weight="bold" lengthAdjust="spacing" textLength="149.3857" x="451.3145" y="919.7803">[OCI state is retryable]</text><g class="message" data-entity-1="part4" data-entity-2="part3" id="msg15"><polygon fill="#0F172A" points="543.3384,954,533.3384,958,543.3384,962,539.3384,958" style="stroke:#0F172A;stroke-width:1;"/><line style="stroke:#0F172A;stroke-width:1;stroke-dasharray:2,2;" x1="537.3384" x2="798.9165" y1="958" y2="958"/><text fill="#000000" font-family="Helvetica" font-size="14" lengthAdjust="spacing" textLength="184.4199" x="549.3384" y="938.7803">requeue while OCI remains in</text><text fill="#000000" font-family="Helvetica" font-size="14" lengthAdjust="spacing" textLength="230.248" x="549.3384" y="952.7803">CREATING, UPDATING, DELETING</text></g><line style="stroke:#CBD5E1;stroke-width:1;stroke-dasharray:2,2;" x1="446.3145" x2="1134.7778" y1="967" y2="967"/><text fill="#000000" font-family="Helvetica" font-size="14" font-weight="bold" lengthAdjust="spacing" textLength="200.751" x="451.3145" y="977.7803">[live state requires field-aware</text><text fill="#000000" font-family="Helvetica" font-size="14" font-weight="bold" lengthAdjust="spacing" textLength="105.0068" x="451.3145" y="991.7803">drift evaluation]</text><path d="M464.3145,1003 L592.3008,1003 L592.3008,1009 L582.3008,1019 L456.3145,1019 L456.3145,1011 A8,8 0 0 1 464.3145,1003" fill="#F8FAFC" style="stroke:#CBD5E1;stroke-width:1.5;"/><rect fill="none" height="560" rx="8" ry="8" style="stroke:#CBD5E1;stroke-width:1.5;" width="668.4634" x="456.3145" y="1003"/><text fill="#000000" font-family="Helvetica" font-size="14" font-weight="bold" lengthAdjust="spacing" textLength="90.9863" x="471.3145" y="1014.7803">Drift handling</text><path d="M753,1032 L753,1166 A8,8 0 0 0 761,1174 L1106,1174 A8,8 0 0 0 1114,1166 L1114,1034 L1104,1024 L761,1024 A8,8 0 0 0 753,1032" fill="#FFF7D6" style="stroke:#B45309;stroke-width:0.5;"/><path d="M1104,1024 L1104,1030 A4,4 0 0 0 1108,1034 L1114,1034 L1104,1024" fill="#FFF7D6" style="stroke:#B45309;stroke-width:0.5;"/><text fill="#334155" font-family="Helvetica" font-size="14" lengthAdjust="spacing" textLength="249.8398" x="779.634" y="1039.7803">Supported update surface: definedTags,</text><text fill="#334155" font-family="Helvetica" font-size="14" lengthAdjust="spacing" textLength="247.4336" x="779.634" y="1053.7803">description, displayName, freeformTags</text><text fill="#334155" font-family="Helvetica" font-size="14" lengthAdjust="spacing" textLength="235.7783" x="779.634" y="1067.7803">Reject before mutate: force-new fields</text><text fill="#334155" font-family="Helvetica" font-size="14" lengthAdjust="spacing" textLength="176.6133" x="779.634" y="1081.7803">compartmentId, systemTags</text><text fill="#334155" font-family="Helvetica" font-size="14" lengthAdjust="spacing" textLength="188.3096" x="779.634" y="1095.7803">Lookup filters: compartmentId,</text><text fill="#334155" font-family="Helvetica" font-size="14" lengthAdjust="spacing" textLength="80.9238" x="779.634" y="1109.7803">displayName</text><text fill="#334155" font-family="Helvetica" font-size="14" lengthAdjust="spacing" textLength="245.1299" x="779.634" y="1123.7803">Lookup matching: exact compartmentId</text><text fill="#334155" font-family="Helvetica" font-size="14" lengthAdjust="spacing" textLength="271.5713" x="779.634" y="1137.7803">plus displayName unique match in ACTIVE,</text><text fill="#334155" font-family="Helvetica" font-size="14" lengthAdjust="spacing" textLength="299.5098" x="779.634" y="1151.7803">CREATING, or UPDATING; empty displayName</text><text fill="#334155" font-family="Helvetica" font-size="14" lengthAdjust="spacing" textLength="242.8057" x="779.634" y="1165.7803">skips lookup and duplicate matches fail</text><path d="M474.3145,1186 L533.0801,1186 L533.0801,1192 L523.0801,1202 L466.3145,1202 L466.3145,1194 A8,8 0 0 1 474.3145,1186" fill="#F8FAFC" style="stroke:#CBD5E1;stroke-width:1.5;"/><rect fill="none" height="44" rx="8" ry="8" style="stroke:#CBD5E1;stroke-width:1.5;" width="421.7983" x="466.3145" y="1186"/><text fill="#000000" font-family="Helvetica" font-size="14" font-weight="bold" lengthAdjust="spacing" textLength="21.7656" x="481.3145" y="1197.7803">opt</text><text fill="#000000" font-family="Helvetica" font-size="14" font-weight="bold" lengthAdjust="spacing" textLength="276.1309" x="548.0801" y="1198.7803">[force-new or conflicting drift is detected]</text><g class="message" data-entity-1="part4" data-entity-2="part3" id="msg16"><polygon fill="#0F172A" points="543.3384,1218,533.3384,1222,543.3384,1226,539.3384,1222" style="stroke:#0F172A;stroke-width:1;"/><line style="stroke:#0F172A;stroke-width:1;stroke-dasharray:2,2;" x1="537.3384" x2="798.9165" y1="1222" y2="1222"/><text fill="#000000" font-family="Helvetica" font-size="14" lengthAdjust="spacing" textLength="164.1855" x="549.3384" y="1216.7803">reject before OCI mutation</text></g><path d="M709.7202,1244 L768.4858,1244 L768.4858,1250 L758.4858,1260 L701.7202,1260 L701.7202,1252 A8,8 0 0 1 709.7202,1244" fill="#F8FAFC" style="stroke:#CBD5E1;stroke-width:1.5;"/><rect fill="none" height="172" rx="8" ry="8" style="stroke:#CBD5E1;stroke-width:1.5;" width="406.7778" x="701.7202" y="1244"/><text fill="#000000" font-family="Helvetica" font-size="14" font-weight="bold" lengthAdjust="spacing" textLength="21.7656" x="716.7202" y="1255.7803">opt</text><text fill="#000000" font-family="Helvetica" font-size="14" font-weight="bold" lengthAdjust="spacing" textLength="243.4619" x="783.4858" y="1256.7803">[supported mutable drift is detected]</text><g class="message" data-entity-1="part4" data-entity-2="part5" id="msg17"><polygon fill="#0F172A" points="1057.0532,1346,1067.0532,1350,1057.0532,1354,1061.0532,1350" style="stroke:#0F172A;stroke-width:1;"/><line style="stroke:#0F172A;stroke-width:1;" x1="799.9165" x2="1063.0532" y1="1350" y2="1350"/><text fill="#000000" font-family="Helvetica" font-size="14" lengthAdjust="spacing" textLength="35.0205" x="806.9165" y="1274.7803">Apply</text><text fill="#000000" font-family="Helvetica" font-size="14" lengthAdjust="spacing" textLength="245.1367" x="806.9165" y="1288.7803">ChangeDashboardGroupCompartment,</text><text fill="#000000" font-family="Helvetica" font-size="14" lengthAdjust="spacing" textLength="202.3438" x="806.9165" y="1302.7803">UpdateDashboardGroup only for</text><text fill="#000000" font-family="Helvetica" font-size="14" lengthAdjust="spacing" textLength="171.2129" x="806.9165" y="1316.7803">mutable fields definedTags,</text><text fill="#000000" font-family="Helvetica" font-size="14" lengthAdjust="spacing" textLength="160.2959" x="806.9165" y="1330.7803">description, displayName,</text><text fill="#000000" font-family="Helvetica" font-size="14" lengthAdjust="spacing" textLength="83.248" x="806.9165" y="1344.7803">freeformTags</text></g><path d="M719.7202,1365 L786.2651,1365 L786.2651,1371 L776.2651,1381 L711.7202,1381 L711.7202,1373 A8,8 0 0 1 719.7202,1365" fill="#F8FAFC" style="stroke:#CBD5E1;stroke-width:1.5;"/><rect fill="none" height="44" rx="8" ry="8" style="stroke:#CBD5E1;stroke-width:1.5;" width="386.7778" x="711.7202" y="1365"/><text fill="#000000" font-family="Helvetica" font-size="14" font-weight="bold" lengthAdjust="spacing" textLength="29.5449" x="726.7202" y="1376.7803">loop</text><text fill="#000000" font-family="Helvetica" font-size="14" font-weight="bold" lengthAdjust="spacing" textLength="190.5381" x="801.2651" y="1377.7803">[update pending UPDATING]</text><g class="message" data-entity-1="part4" data-entity-2="part5" id="msg18"><polygon fill="#0F172A" points="1057.0532,1397,1067.0532,1401,1057.0532,1405,1061.0532,1401" style="stroke:#0F172A;stroke-width:1;"/><line style="stroke:#0F172A;stroke-width:1;" x1="799.9165" x2="1063.0532" y1="1401" y2="1401"/><text fill="#000000" font-family="Helvetica" font-size="14" lengthAdjust="spacing" textLength="129.9648" x="806.9165" y="1395.7803">GetDashboardGroup</text></g><g class="message" data-entity-1="part4" data-entity-2="part5" id="msg19"><polygon fill="#0F172A" points="1057.0532,1481,1067.0532,1485,1057.0532,1489,1061.0532,1485" style="stroke:#0F172A;stroke-width:1;"/><line style="stroke:#0F172A;stroke-width:1;" x1="799.9165" x2="1063.0532" y1="1485" y2="1485"/><text fill="#000000" font-family="Helvetica" font-size="14" lengthAdjust="spacing" textLength="104.2891" x="806.9165" y="1437.7803">run helper hooks</text><text fill="#000000" font-family="Helvetica" font-size="14" lengthAdjust="spacing" textLength="219.0508" x="806.9165" y="1451.7803">create=tfresource.CreateResource;</text><text fill="#000000" font-family="Helvetica" font-size="14" lengthAdjust="spacing" textLength="226.085" x="806.9165" y="1465.7803">update=tfresource.UpdateResource;</text><text fill="#000000" font-family="Helvetica" font-size="14" lengthAdjust="spacing" textLength="212.8438" x="806.9165" y="1479.7803">delete=tfresource.DeleteResource</text></g><g class="message" data-entity-1="part4" data-entity-2="part5" id="msg20"><polygon fill="#0F172A" points="1057.0532,1551,1067.0532,1555,1057.0532,1559,1061.0532,1555" style="stroke:#0F172A;stroke-width:1;"/><line style="stroke:#0F172A;stroke-width:1;" x1="799.9165" x2="1063.0532" y1="1555" y2="1555"/><text fill="#000000" font-family="Helvetica" font-size="14" lengthAdjust="spacing" textLength="147.0752" x="806.9165" y="1507.7803">apply follow-up strategy</text><text fill="#000000" font-family="Helvetica" font-size="14" lengthAdjust="spacing" textLength="145.8926" x="806.9165" y="1521.7803">create=read-after-write;</text><text fill="#000000" font-family="Helvetica" font-size="14" lengthAdjust="spacing" textLength="149.8027" x="806.9165" y="1535.7803">update=read-after-write;</text><text fill="#000000" font-family="Helvetica" font-size="14" lengthAdjust="spacing" textLength="135.0234" x="806.9165" y="1549.7803">delete=confirm-delete</text></g><g class="message" data-entity-1="part4" data-entity-2="part3" id="msg21"><polygon fill="#0F172A" points="543.3384,1600,533.3384,1604,543.3384,1608,539.3384,1604" style="stroke:#0F172A;stroke-width:1;"/><line style="stroke:#0F172A;stroke-width:1;stroke-dasharray:2,2;" x1="537.3384" x2="798.9165" y1="1604" y2="1604"/><text fill="#000000" font-family="Helvetica" font-size="14" lengthAdjust="spacing" textLength="100.7822" x="549.3384" y="1584.7803">status=required,</text><text fill="#000000" font-family="Helvetica" font-size="14" lengthAdjust="spacing" textLength="230.7197" x="549.3384" y="1598.7803">finalizer=retain-until-confirmed-delete</text></g><g class="message" data-entity-1="part3" data-entity-2="part2" id="msg22"><polygon fill="#0F172A" points="304.5122,1649,294.5122,1653,304.5122,1657,300.5122,1653" style="stroke:#0F172A;stroke-width:1;"/><line style="stroke:#0F172A;stroke-width:1;stroke-dasharray:2,2;" x1="298.5122" x2="531.3384" y1="1653" y2="1653"/><text fill="#000000" font-family="Helvetica" font-size="14" lengthAdjust="spacing" textLength="214.8262" x="310.5122" y="1633.7803">requeue on provisioning, updating,</text><text fill="#000000" font-family="Helvetica" font-size="14" lengthAdjust="spacing" textLength="69.2549" x="310.5122" y="1647.7803">terminating</text></g><path d="M804,1674 L804,2578 A8,8 0 0 0 812,2586 L1152,2586 A8,8 0 0 0 1160,2578 L1160,1676 L1150,1666 L812,1666 A8,8 0 0 0 804,1674" fill="#FFF7D6" style="stroke:#B45309;stroke-width:0.5;"/><path d="M1150,1666 L1150,1672 A4,4 0 0 0 1154,1676 L1160,1676 L1150,1666" fill="#FFF7D6" style="stroke:#B45309;stroke-width:0.5;"/><text fill="#334155" font-family="Helvetica" font-size="14" lengthAdjust="spacing" textLength="101.165" x="810" y="1681.7803">shared diagram:</text><text fill="#334155" font-family="Helvetica" font-size="14" lengthAdjust="spacing" textLength="307.3916" x="810" y="1695.7803">shared/diagrams/shared-resolution-sequence.svg</text><text fill="#334155" font-family="Helvetica" font-size="14" lengthAdjust="spacing" textLength="143.1992" x="810" y="1709.7803">shared delete diagram:</text><text fill="#334155" font-family="Helvetica" font-size="14" lengthAdjust="spacing" textLength="284.833" x="810" y="1723.7803">shared/diagrams/shared-delete-sequence.svg</text><text fill="#334155" font-family="Helvetica" font-size="14" lengthAdjust="spacing" textLength="280.9297" x="810" y="1737.7803">Start from the shared resolution sequence for</text><text fill="#334155" font-family="Helvetica" font-size="14" lengthAdjust="spacing" textLength="260.7295" x="810" y="1751.7803">OCID binding, datasource pagination, and</text><text fill="#334155" font-family="Helvetica" font-size="14" lengthAdjust="spacing" textLength="163.4268" x="810" y="1765.7803">create-or-update dispatch.</text><text fill="#334155" font-family="Helvetica" font-size="14" lengthAdjust="spacing" textLength="301.1982" x="810" y="1779.7803">Layer the shared delete sequence when finalizer</text><text fill="#334155" font-family="Helvetica" font-size="14" lengthAdjust="spacing" textLength="269.2471" x="810" y="1793.7803">retention, delete confirmation, work-request</text><text fill="#334155" font-family="Helvetica" font-size="14" lengthAdjust="spacing" textLength="199.2334" x="810" y="1807.7803">polling, or Secret cleanup apply.</text><text fill="#334155" font-family="Helvetica" font-size="14" lengthAdjust="spacing" textLength="281.709" x="810" y="1821.7803">archetype batch: Generated service-manager</text><text fill="#334155" font-family="Helvetica" font-size="14" lengthAdjust="spacing" textLength="266.1504" x="810" y="1835.7803">controllers follow the shared resolution and</text><text fill="#334155" font-family="Helvetica" font-size="14" lengthAdjust="spacing" textLength="259.9297" x="810" y="1849.7803">delete sequences with imported waits and</text><text fill="#334155" font-family="Helvetica" font-size="14" lengthAdjust="spacing" textLength="134.6064" x="810" y="1863.7803">controller-local policy.</text><text fill="#334155" font-family="Helvetica" font-size="14" lengthAdjust="spacing" textLength="162.6338" x="810" y="1877.7803">service: dashboardservice</text><text fill="#334155" font-family="Helvetica" font-size="14" lengthAdjust="spacing" textLength="135.4336" x="810" y="1891.7803">slug: dashboardgroup</text><text fill="#334155" font-family="Helvetica" font-size="14" lengthAdjust="spacing" textLength="140.8613" x="810" y="1905.7803">kind: DashboardGroup</text><text fill="#334155" font-family="Helvetica" font-size="14" lengthAdjust="spacing" textLength="241.2402" x="810" y="1919.7803">archetype: generated-service-manager</text><text fill="#334155" font-family="Helvetica" font-size="14" lengthAdjust="spacing" textLength="156.4063" x="810" y="1933.7803">status/finalizer: required /</text><text fill="#334155" font-family="Helvetica" font-size="14" lengthAdjust="spacing" textLength="174.3027" x="810" y="1947.7803">retain-until-confirmed-delete</text><text fill="#334155" font-family="Helvetica" font-size="14" lengthAdjust="spacing" textLength="272.3984" x="810" y="1961.7803">requeue: provisioning, updating, terminating</text><text fill="#334155" font-family="Helvetica" font-size="14" lengthAdjust="spacing" textLength="265.3369" x="810" y="1975.7803">provider states: create CREATING; update</text><text fill="#334155" font-family="Helvetica" font-size="14" lengthAdjust="spacing" textLength="192.165" x="810" y="1989.7803">UPDATING; delete DELETING</text><text fill="#334155" font-family="Helvetica" font-size="14" lengthAdjust="spacing" textLength="209.6992" x="810" y="2003.7803">follow-up: create=read-after-write;</text><text fill="#334155" font-family="Helvetica" font-size="14" lengthAdjust="spacing" textLength="288.7158" x="810" y="2017.7803">update=read-after-write; delete=confirm-delete</text><text fill="#334155" font-family="Helvetica" font-size="14" lengthAdjust="spacing" textLength="253.7021" x="810" y="2031.7803">supported drift: definedTags, description,</text><text fill="#334155" font-family="Helvetica" font-size="14" lengthAdjust="spacing" textLength="171.9512" x="810" y="2045.7803">displayName, freeformTags</text><text fill="#334155" font-family="Helvetica" font-size="14" lengthAdjust="spacing" textLength="230.3301" x="810" y="2059.7803">reject before mutate: force-new fields</text><text fill="#334155" font-family="Helvetica" font-size="14" lengthAdjust="spacing" textLength="176.6133" x="810" y="2073.7803">compartmentId, systemTags</text><text fill="#334155" font-family="Helvetica" font-size="14" lengthAdjust="spacing" textLength="144.751" x="810" y="2087.7803">create-only fields: none</text><text fill="#334155" font-family="Helvetica" font-size="14" lengthAdjust="spacing" textLength="66.1445" x="810" y="2101.7803">list lookup:</text><text fill="#334155" font-family="Helvetica" font-size="14" lengthAdjust="spacing" textLength="305.8604" x="810" y="2115.7803">oci_dashboard_service_dashboard_groups filters</text><text fill="#334155" font-family="Helvetica" font-size="14" lengthAdjust="spacing" textLength="320.5781" x="810" y="2129.7803">compartmentId, displayName; exact compartmentId</text><text fill="#334155" font-family="Helvetica" font-size="14" lengthAdjust="spacing" textLength="271.5713" x="810" y="2143.7803">plus displayName unique match in ACTIVE,</text><text fill="#334155" font-family="Helvetica" font-size="14" lengthAdjust="spacing" textLength="335.2959" x="810" y="2157.7803">CREATING, or UPDATING; empty displayName skips</text><text fill="#334155" font-family="Helvetica" font-size="14" lengthAdjust="spacing" textLength="207.0195" x="810" y="2171.7803">lookup and duplicate matches fail</text><text fill="#334155" font-family="Helvetica" font-size="14" lengthAdjust="spacing" textLength="89.4961" x="810" y="2185.7803">conflicts: none</text><text fill="#334155" font-family="Helvetica" font-size="14" lengthAdjust="spacing" textLength="136.9785" x="810" y="2199.7803">open gaps: drift-guard</text><text fill="#334155" font-family="Helvetica" font-size="14" lengthAdjust="spacing" textLength="306.5576" x="810" y="2213.7803">Reviewed lifecycle mapping treats CREATING as</text><text fill="#334155" font-family="Helvetica" font-size="14" lengthAdjust="spacing" textLength="308.1299" x="810" y="2227.7803">provisioning, UPDATING as updating, ACTIVE as</text><text fill="#334155" font-family="Helvetica" font-size="14" lengthAdjust="spacing" textLength="318.2266" x="810" y="2241.7803">success, and DELETING as terminating; FAILED is</text><text fill="#334155" font-family="Helvetica" font-size="14" lengthAdjust="spacing" textLength="305.8057" x="810" y="2255.7803">terminal and DELETED is the delete-confirmation</text><text fill="#334155" font-family="Helvetica" font-size="14" lengthAdjust="spacing" textLength="39.6895" x="810" y="2269.7803">target.</text><text fill="#334155" font-family="Helvetica" font-size="14" lengthAdjust="spacing" textLength="280.1504" x="810" y="2283.7803">Existing-before-create lookup runs only when</text><text fill="#334155" font-family="Helvetica" font-size="14" lengthAdjust="spacing" textLength="315.1709" x="810" y="2297.7803">both compartmentId and displayName are present,</text><text fill="#334155" font-family="Helvetica" font-size="14" lengthAdjust="spacing" textLength="271.5986" x="810" y="2311.7803">then scopes ListDashboardGroups by exact</text><text fill="#334155" font-family="Helvetica" font-size="14" lengthAdjust="spacing" textLength="322.1641" x="810" y="2325.7803">compartmentId plus displayName and reuses only a</text><text fill="#334155" font-family="Helvetica" font-size="14" lengthAdjust="spacing" textLength="276.2334" x="810" y="2339.7803">unique candidate in ACTIVE, CREATING, or</text><text fill="#334155" font-family="Helvetica" font-size="14" lengthAdjust="spacing" textLength="76.2275" x="810" y="2353.7803">UPDATING.</text><text fill="#334155" font-family="Helvetica" font-size="14" lengthAdjust="spacing" textLength="311.2471" x="810" y="2367.7803">Only displayName, description, freeformTags, and</text><text fill="#334155" font-family="Helvetica" font-size="14" lengthAdjust="spacing" textLength="297.2881" x="810" y="2381.7803">definedTags reconcile in place. The handwritten</text><text fill="#334155" font-family="Helvetica" font-size="14" lengthAdjust="spacing" textLength="291.8535" x="810" y="2395.7803">update builder keeps non-empty string updates</text><text fill="#334155" font-family="Helvetica" font-size="14" lengthAdjust="spacing" textLength="292.5986" x="810" y="2409.7803">for displayName and description and preserves</text><text fill="#334155" font-family="Helvetica" font-size="14" lengthAdjust="spacing" textLength="266.8818" x="810" y="2423.7803">explicit empty-map clears for the tag maps;</text><text fill="#334155" font-family="Helvetica" font-size="14" lengthAdjust="spacing" textLength="305.0332" x="810" y="2437.7803">empty-string displayName and description values</text><text fill="#334155" font-family="Helvetica" font-size="14" lengthAdjust="spacing" textLength="258.3643" x="810" y="2451.7803">are treated as omission until the spec can</text><text fill="#334155" font-family="Helvetica" font-size="14" lengthAdjust="spacing" textLength="294.123" x="810" y="2465.7803">distinguish clear from omit. CompartmentId and</text><text fill="#334155" font-family="Helvetica" font-size="14" lengthAdjust="spacing" textLength="287.8955" x="810" y="2479.7803">systemTags remain replacement-only drift and</text><text fill="#334155" font-family="Helvetica" font-size="14" lengthAdjust="spacing" textLength="316.7295" x="810" y="2493.7803">ChangeDashboardGroupCompartment stays out of</text><text fill="#334155" font-family="Helvetica" font-size="14" lengthAdjust="spacing" textLength="41.248" x="810" y="2507.7803">scope.</text><text fill="#334155" font-family="Helvetica" font-size="14" lengthAdjust="spacing" textLength="210.9229" x="810" y="2521.7803">Create, get, and update return the</text><text fill="#334155" font-family="Helvetica" font-size="14" lengthAdjust="spacing" textLength="283.2676" x="810" y="2535.7803">DashboardGroup body directly, delete returns</text><text fill="#334155" font-family="Helvetica" font-size="14" lengthAdjust="spacing" textLength="296.5225" x="810" y="2549.7803">headers only, and the Dashboards home-region</text><text fill="#334155" font-family="Helvetica" font-size="14" lengthAdjust="spacing" textLength="294.1504" x="810" y="2563.7803">caveat remains explicit in the published runtime</text><text fill="#334155" font-family="Helvetica" font-size="14" lengthAdjust="spacing" textLength="53.6895" x="810" y="2577.7803">contract.</text><?plantuml-src lLXRRnit5dxdho2wBosWaUCcQLCPAP3QRjQejrd4wJu9AAWPZiIQ6av9ZXJjOl_xVeVaN2KrpXOe_629btFzpdSEvHvLLGihjjnjH67sgbhpKcWdcUjsLY9_N5lJLCMrqSRolvKv_eh1YKAMej7-HrFvdyLMyhzBlPDUvUBqcGVrRyalNmmsXRLcdwG_Ao-__Nfuip9U_d1aGrb-MtmpFMLi8MqwiNhnylcpxoOdI7tQV_xynUNBbuFz83utjfAMNtx3lF9QyWVvUoEhNFAC5y9jLaROmacxKxcyk6aNtk9gpJQgaBmqng_Cnu5Orqhu3-DSvDxOaPd9tNPhwgVyMhugds4RmX1HLOlAdxu_FF0KAODGT3AqAkMzgiQ1_Ew5UBvwXLqIMO-sybNnKbvsMqT9UbMACcV_PS4t_bEpaeYkbuuDxE3NCCGQhQKTBVyWd7mlSrFbQhhrnRk7Tpyzn2pyGrHYBUqNN3W-NXfTUNTznmW0tEoGth7isUGUIi7AWblfZ6wyCjKYBLqKIgoHKtSHlsVzaQnDyzpjrgs4GcfuU_Pst1xVb5KHWChwOF7i-q6C5bnMEDz8FeOVp4t-iFumNHtxkk3TvoyjANR-ApO-GfV64Ldqmk6JK-JR1Fm10FpUc4Vy4t1YfQg22Usvju05BW00ycEjaP2G3OvggL1Z1owqbQ8uO5SvxzXODHc3qml-Llg9IWcQwgHtqfJZM-KSYEoSf7ke6OjoNvPAUsdTObdbPakusKBSNJ7ZXNAr5WUYjQ-2ErOsJgmG2FA1yjzOr3Qq8ckeVe3_dDvhkEdbn0bjJCtpiCDh99y8-FhzxPiFTp-__OnGG6i8nsdh_ky8dt3c1A9gH0w2Oy7ia8nHUbN5dHU-SK4SXJ3YdYVuoIA1voOidxCkxauCF7CMffNARbj5EoMEdLjM0EG9ACICf9jjHcvkxsy_AoD0-x8w9RsDGQwbgC8vNgfAQBH4YuXWrGKqhRGXN3yb_5PwWI0daodMCbGWrkqXmYBj4RRn0NJ5pOgws5CLHBDwGqM9QZcM6d7OOf5G4As1Fy4OGkRJ54Q6sszK1-KjV7G0qx9gosF6V_ddJVhK9IXerchN1e94WQySZ9UwoCGUpBki2gjAp-LEw4O4mnC2m_86mTF47ts_6DiyesRoqDIriK0lR-g2DBd6bYAN2vfqq4AB3sBjPWnqcLjLav8HcSnuQQKiZTtIEVPU_YPpprUq8lcs8TiNe1DKRrR9VRJUiGavkGFA9mf8pDlo61-VP0FDxT6jyFa6RgAXV4H_7jzWjMxSq5xUL0f9YRUefjzSVxZxr-sCzTa0bDk4N76vhL7xGxMOY6h7TTyXYeQw0OKk2AKS2QNx3cXgFuW0f5DPuuQdYemP1B0AG33tJmNoCCg4gn3f5hcaq7LffIrYqazhIYJmfgxr0V04VjOJehhkOpjRLhy4m4m9ez87SdTPjOfZpaTm0dBFuMbPZG0LM2mXisMnDZkVsLVETpJRL7mZDVYVRv1NX-uPEjbhNxQzPnwxtllqzMfPHQE6Hs8y1aSYiGoFHFPlZvopHr0644IjpJv3J1sc0o_NXyukQeDP8AziRvKVc7DY9rcHcacQrfxQ4sFBUvtefw3qjEpvEX9srg0_wYo9xyR1e60wa4qcm9OVmUErDJlbW0OaU1OJJf-M5JpPGgFlYCogzSPpK_BJqsuQJl_SgFj9AQT6tWUFqW0TcYtt6ycFfk_-1GLqCoJw9WoNmM6uAzAGKujry9SA0_J2OiepOxDK1bGjH3HpTYyEYEf0MTixMqNxZQpwTiUGC1fcGicrFIzaBQdR6_kOfN66rKXIiCrGtu0LVRCF-9mpOS5s_b1BFArX3nKUtfo2I2SzBRDjIaxUPTqbN9-94NayySBnlVBWwcqYjBrGtiNGT58pZ1b2SzYiSbYMr2-EthhCwMOzM0xzak6DMoocBu7EkmLVjtvbKxzYULnq8LwqZRhW5-oFwoE1Vt4E-do8_706xzKu3L1VZADssxMk4aUoldEbA7OJHKSdxULZhc3dI8IVvf2-oOJcCXuP-93YsVcHmVxPaQ4jaD1umk456cybcQPXFZRg1JEv-hLB-wyfZuELW0JN3Xxi_FFfwg-PCtYOCzYdvunsccYzDcYJV2rgV0zPoTOD_CDajbDoZrJHRoFv0QKCCNLD_THJ05s79IuS6sEoDPD-c-Zn6JsYqwx9KQOky5K7E3eyWF0L__7DtVtj3IOGbfPrVpwi1qf8p3ea9WPYNKi_PxVqxeEiB88bIqMGOeGkxkBuGRJ7LWQaCKfIZE8Wn20VL9zqDCumJrpfSeJFdNfFyTKX9duC3NwK-FXaQPnCnWYMe91ZHmK6x-70Xt3eYdVEtj7DKSsC1gPX0SqIPtQLD_YH0ueW0Vs9Vq1ewK50zOmca2gThngbYLOUfQpfwLzb4OYOE0WPyPG3TzWZ7mS6XUyXa7YAuMtO_ZmIP84hwz0v0lN7TkN5cj3dhbWyajJzaGfwuq0sfIpW5KW6m4puZGJRWMHZJwbbJh4coY6mDCfjelxOct75p_dr51YiPvJqIiE_43mw4zabZj1q-1F3CT7q0TOrDAYm0AevYnFa3Dt4nqf9EK2RQ6n5jhF9BBqo1Q40-VJwCEj_Rw3pZct0qjHFoRGeaDplH3ZCibk9Thwc4ih53jgxzsUN8XKKyxfPWIqtr8ifadZcXDuAkC-xXyp_0000?></g></svg>