<?plantuml 1.2026.1?><svg xmlns="http://www.w3.org/2000/svg" xmlns:xlink="http://www.w3.org/1999/xlink" contentStyleType="text/css" data-diagram-type="SEQUENCE" height="1357px" preserveAspectRatio="none" style="width:1461px;height:1357px;background:#FCFCFD;" version="1.1" viewBox="0 0 1461 1357" width="1461px" zoomAndPan="magnify"><title>Sequence - distributeddatabase/DistributedDatabaseDistributedAutonomousDatabase</title><defs/><g><rect fill="#FCFCFD" height="1357" style="stroke:none;stroke-width:1;" width="1461" x="0" y="0"/><text fill="#000000" font-family="Helvetica" font-size="14" font-weight="bold" lengthAdjust="spacing" textLength="574.1025" x="444.8315" y="25.7803">Sequence - distributeddatabase/DistributedDatabaseDistributedAutonomousDatabase</text><rect fill="none" height="86" rx="8" ry="8" style="stroke:#CBD5E1;stroke-width:1.5;" width="537.729" x="907.0366" y="361"/><rect fill="none" height="204" rx="8" ry="8" style="stroke:#CBD5E1;stroke-width:1.5;" width="557.729" x="897.0366" y="461"/><rect fill="none" height="44" rx="8" ry="8" style="stroke:#CBD5E1;stroke-width:1.5;" width="537.729" x="907.0366" y="512"/><rect fill="none" height="44" rx="8" ry="8" style="stroke:#CBD5E1;stroke-width:1.5;" width="537.729" x="907.0366" y="614"/><rect fill="none" height="130" rx="8" ry="8" style="stroke:#CBD5E1;stroke-width:1.5;" width="557.729" x="897.0366" y="679"/><rect fill="none" height="72" rx="8" ry="8" style="stroke:#CBD5E1;stroke-width:1.5;" width="537.729" x="907.0366" y="730"/><g class="participant-lifeline" data-entity-uid="part1" data-qualified-name="Kubernetes" id="part1-lifeline"><g><title>Kubernetes</title><rect fill="#000000" fill-opacity="0.00000" height="1236" width="8" x="39.8032" y="114"/><line style="stroke:#94A3B8;stroke-width:0.5;stroke-dasharray:5,5;" x1="43" x2="43" y1="114" y2="1350"/></g></g><g class="participant-lifeline" data-entity-uid="part2" data-qualified-name="Controller" id="part2-lifeline"><g><title>Controller</title><rect fill="#000000" fill-opacity="0.00000" height="1236" width="8" x="396.105" y="114"/><line style="stroke:#94A3B8;stroke-width:0.5;stroke-dasharray:5,5;" x1="399.7603" x2="399.7603" y1="114" y2="1350"/></g></g><g class="participant-lifeline" data-entity-uid="part3" data-qualified-name="BaseReconciler" id="part3-lifeline"><g><title>BaseReconciler</title><rect fill="#000000" fill-opacity="0.00000" height="1236" width="8" x="634.9312" y="114"/><line style="stroke:#94A3B8;stroke-width:0.5;stroke-dasharray:5,5;" x1="638.9072" x2="638.9072" y1="114" y2="1350"/></g></g><g class="participant-lifeline" data-entity-uid="part4" data-qualified-name="ServiceManager" id="part4-lifeline"><g><title>OSOKServiceManager</title><rect fill="#000000" fill-opacity="0.00000" height="1236" width="8" x="991.2329" y="114"/><line style="stroke:#94A3B8;stroke-width:0.5;stroke-dasharray:5,5;" x1="995.0366" x2="995.0366" y1="114" y2="1350"/></g></g><g class="participant-lifeline" data-entity-uid="part5" data-qualified-name="OCI" id="part5-lifeline"><g><title>OCI</title><rect fill="#000000" fill-opacity="0.00000" height="1236" width="8" x="1411.3208" y="114"/><line style="stroke:#94A3B8;stroke-width:0.5;stroke-dasharray:5,5;" x1="1414.876" x2="1414.876" y1="114" y2="1350"/></g></g><g class="participant participant-head" data-entity-uid="part1" data-qualified-name="Kubernetes" id="part1-head"><text fill="#000000" font-family="Helvetica" font-size="14" lengthAdjust="spacing" textLength="71.6064" x="5" y="110.7803">Kubernetes</text><ellipse cx="43.8032" cy="48.5" fill="#E2E8F0" rx="8" ry="8" style="stroke:#0F172A;stroke-width:0.5;"/><path d="M43.8032,56.5 L43.8032,83.5 M30.8032,64.5 L56.8032,64.5 M43.8032,83.5 L30.8032,98.5 M43.8032,83.5 L56.8032,98.5" fill="none" style="stroke:#0F172A;stroke-width:0.5;"/></g><g class="participant participant-head" data-entity-uid="part2" data-qualified-name="Controller" id="part2-head"><rect fill="#E2E8F0" height="28" rx="8" ry="8" style="stroke:#0F172A;stroke-width:0.5;" width="74.6895" x="362.7603" y="85"/><text fill="#0F172A" font-family="Helvetica" font-size="14" lengthAdjust="spacing" textLength="60.6895" x="369.7603" y="102.7803">Controller</text></g><g class="participant participant-head" data-entity-uid="part3" data-qualified-name="BaseReconciler" id="part3-head"><rect fill="#E2E8F0" height="28" rx="8" ry="8" style="stroke:#0F172A;stroke-width:0.5;" width="112.0479" x="582.9072" y="85"/><text fill="#0F172A" font-family="Helvetica" font-size="14" lengthAdjust="spacing" textLength="98.0479" x="589.9072" y="102.7803">BaseReconciler</text></g><g class="participant participant-head" data-entity-uid="part4" data-qualified-name="ServiceManager" id="part4-head"><rect fill="#E2E8F0" height="28" rx="8" ry="8" style="stroke:#0F172A;stroke-width:0.5;" width="156.3926" x="917.0366" y="85"/><text fill="#0F172A" font-family="Helvetica" font-size="14" lengthAdjust="spacing" textLength="142.3926" x="924.0366" y="102.7803">OSOKServiceManager</text></g><g class="participant participant-head" data-entity-uid="part5" data-qualified-name="OCI" id="part5-head"><rect fill="#E2E8F0" height="28" rx="8" ry="8" style="stroke:#0F172A;stroke-width:0.5;" width="38.8896" x="1395.876" y="85"/><text fill="#0F172A" font-family="Helvetica" font-size="14" lengthAdjust="spacing" textLength="24.8896" x="1402.876" y="102.7803">OCI</text></g><path d="M574,137 L574,187 A8,8 0 0 0 582,195 L1051,195 A8,8 0 0 0 1059,187 L1059,139 L1049,129 L582,129 A8,8 0 0 0 574,137" fill="#FFF7D6" style="stroke:#B45309;stroke-width:0.5;"/><path d="M1049,129 L1049,135 A4,4 0 0 0 1053,139 L1059,139 L1049,129" fill="#FFF7D6" style="stroke:#B45309;stroke-width:0.5;"/><text fill="#334155" font-family="Helvetica" font-size="14" lengthAdjust="spacing" textLength="111.2891" x="658.5652" y="144.7803">shared resolution:</text><text fill="#334155" font-family="Helvetica" font-size="14" lengthAdjust="spacing" textLength="307.3916" x="658.5652" y="158.7803">shared/diagrams/shared-resolution-sequence.svg</text><text fill="#334155" font-family="Helvetica" font-size="14" lengthAdjust="spacing" textLength="88.7305" x="658.5652" y="172.7803">shared delete:</text><text fill="#334155" font-family="Helvetica" font-size="14" lengthAdjust="spacing" textLength="284.833" x="658.5652" y="186.7803">shared/diagrams/shared-delete-sequence.svg</text><g class="message" data-entity-1="part1" data-entity-2="part2" id="msg1"><polygon fill="#0F172A" points="388.105,244,398.105,248,388.105,252,392.105,248" style="stroke:#0F172A;stroke-width:1;"/><line style="stroke:#0F172A;stroke-width:1;" x1="43.8032" x2="394.105" y1="248" y2="248"/><text fill="#000000" font-family="Helvetica" font-size="14" lengthAdjust="spacing" textLength="54.5029" x="50.8032" y="214.7803">enqueue</text><text fill="#000000" font-family="Helvetica" font-size="14" lengthAdjust="spacing" textLength="332.3018" x="50.8032" y="228.7803">DistributedDatabaseDistributedAutonomousDatabase</text><text fill="#000000" font-family="Helvetica" font-size="14" lengthAdjust="spacing" textLength="56.0273" x="50.8032" y="242.7803">reconcile</text></g><g class="message" data-entity-1="part2" data-entity-2="part3" id="msg2"><polygon fill="#0F172A" points="626.9312,272,636.9312,276,626.9312,280,630.9312,276" style="stroke:#0F172A;stroke-width:1;"/><line style="stroke:#0F172A;stroke-width:1;" x1="400.105" x2="632.9312" y1="276" y2="276"/><text fill="#000000" font-family="Helvetica" font-size="14" lengthAdjust="spacing" textLength="117.4961" x="407.105" y="270.7803">Reconcile(request)</text></g><g class="message" data-entity-1="part3" data-entity-2="part4" id="msg3"><polygon fill="#0F172A" points="983.2329,314,993.2329,318,983.2329,322,987.2329,318" style="stroke:#0F172A;stroke-width:1;"/><line style="stroke:#0F172A;stroke-width:1;" x1="638.9312" x2="989.2329" y1="318" y2="318"/><text fill="#000000" font-family="Helvetica" font-size="14" lengthAdjust="spacing" textLength="105.834" x="645.9312" y="298.7803">reconcile desired</text><text fill="#000000" font-family="Helvetica" font-size="14" lengthAdjust="spacing" textLength="332.3018" x="645.9312" y="312.7803">DistributedDatabaseDistributedAutonomousDatabase</text></g><g class="message" data-entity-1="part4" data-entity-2="part5" id="msg4"><polygon fill="#0F172A" points="1403.3208,342,1413.3208,346,1403.3208,350,1407.3208,346" style="stroke:#0F172A;stroke-width:1;"/><line style="stroke:#0F172A;stroke-width:1;" x1="995.2329" x2="1409.3208" y1="346" y2="346"/><text fill="#000000" font-family="Helvetica" font-size="14" lengthAdjust="spacing" textLength="354.8672" x="1002.2329" y="340.7803">GetDistributedDatabaseDistributedAutonomousDatabase</text></g><path d="M915.0366,361 L973.8022,361 L973.8022,367 L963.8022,377 L907.0366,377 L907.0366,369 A8,8 0 0 1 915.0366,361" fill="#F8FAFC" style="stroke:#CBD5E1;stroke-width:1.5;"/><rect fill="none" height="86" rx="8" ry="8" style="stroke:#CBD5E1;stroke-width:1.5;" width="537.729" x="907.0366" y="361"/><text fill="#000000" font-family="Helvetica" font-size="14" font-weight="bold" lengthAdjust="spacing" textLength="21.7656" x="922.0366" y="372.7803">opt</text><text fill="#000000" font-family="Helvetica" font-size="14" font-weight="bold" lengthAdjust="spacing" textLength="135.3516" x="988.8022" y="373.7803">[list lookup fallback]</text><g class="message" data-entity-1="part4" data-entity-2="part5" id="msg5"><polygon fill="#0F172A" points="1403.3208,407,1413.3208,411,1403.3208,415,1407.3208,411" style="stroke:#0F172A;stroke-width:1;"/><line style="stroke:#0F172A;stroke-width:1;" x1="995.2329" x2="1409.3208" y1="411" y2="411"/><text fill="#000000" font-family="Helvetica" font-size="14" lengthAdjust="spacing" textLength="396.0879" x="1002.2329" y="391.7803">ListDistributedDatabaseDistributedAutonomousDatabase(filters:</text><text fill="#000000" font-family="Helvetica" font-size="14" lengthAdjust="spacing" textLength="143.1719" x="1002.2329" y="405.7803">compartment_id, state)</text></g><g class="message" data-entity-1="part5" data-entity-2="part4" id="msg6"><polygon fill="#0F172A" points="1006.2329,435,996.2329,439,1006.2329,443,1002.2329,439" style="stroke:#0F172A;stroke-width:1;"/><line style="stroke:#0F172A;stroke-width:1;stroke-dasharray:2,2;" x1="1000.2329" x2="1414.3208" y1="439" y2="439"/><text fill="#000000" font-family="Helvetica" font-size="14" lengthAdjust="spacing" textLength="156.3994" x="1012.2329" y="433.7803">matching collection items</text></g><path d="M905.0366,461 L958.3745,461 L958.3745,467 L948.3745,477 L897.0366,477 L897.0366,469 A8,8 0 0 1 905.0366,461" fill="#F8FAFC" style="stroke:#CBD5E1;stroke-width:1.5;"/><rect fill="none" height="204" rx="8" ry="8" style="stroke:#CBD5E1;stroke-width:1.5;" width="557.729" x="897.0366" y="461"/><text fill="#000000" font-family="Helvetica" font-size="14" font-weight="bold" lengthAdjust="spacing" textLength="16.3379" x="912.0366" y="472.7803">alt</text><text fill="#000000" font-family="Helvetica" font-size="14" font-weight="bold" lengthAdjust="spacing" textLength="135.3447" x="973.3745" y="473.7803">[create or bind path]</text><g class="message" data-entity-1="part4" data-entity-2="part5" id="msg7"><polygon fill="#0F172A" points="1403.3208,493,1413.3208,497,1403.3208,501,1407.3208,497" style="stroke:#0F172A;stroke-width:1;"/><line style="stroke:#0F172A;stroke-width:1;" x1="995.2329" x2="1409.3208" y1="497" y2="497"/><text fill="#000000" font-family="Helvetica" font-size="14" lengthAdjust="spacing" textLength="374.3223" x="1002.2329" y="491.7803">CreateDistributedDatabaseDistributedAutonomousDatabase</text></g><path d="M915.0366,512 L981.5815,512 L981.5815,518 L971.5815,528 L907.0366,528 L907.0366,520 A8,8 0 0 1 915.0366,512" fill="#F8FAFC" style="stroke:#CBD5E1;stroke-width:1.5;"/><rect fill="none" height="44" rx="8" ry="8" style="stroke:#CBD5E1;stroke-width:1.5;" width="537.729" x="907.0366" y="512"/><text fill="#000000" font-family="Helvetica" font-size="14" font-weight="bold" lengthAdjust="spacing" textLength="29.5449" x="922.0366" y="523.7803">loop</text><text fill="#000000" font-family="Helvetica" font-size="14" font-weight="bold" lengthAdjust="spacing" textLength="215.4756" x="996.5815" y="524.7803">[create pending PROVISIONING]</text><g class="message" data-entity-1="part4" data-entity-2="part5" id="msg8"><polygon fill="#0F172A" points="1403.3208,544,1413.3208,548,1403.3208,552,1407.3208,548" style="stroke:#0F172A;stroke-width:1;"/><line style="stroke:#0F172A;stroke-width:1;" x1="995.2329" x2="1409.3208" y1="548" y2="548"/><text fill="#000000" font-family="Helvetica" font-size="14" lengthAdjust="spacing" textLength="354.8672" x="1002.2329" y="542.7803">GetDistributedDatabaseDistributedAutonomousDatabase</text></g><line style="stroke:#CBD5E1;stroke-width:1;stroke-dasharray:2,2;" x1="897.0366" x2="1454.7656" y1="564" y2="564"/><text fill="#000000" font-family="Helvetica" font-size="14" font-weight="bold" lengthAdjust="spacing" textLength="137.6484" x="902.0366" y="574.7803">[update or drift path]</text><g class="message" data-entity-1="part4" data-entity-2="part5" id="msg9"><polygon fill="#0F172A" points="1403.3208,595,1413.3208,599,1403.3208,603,1407.3208,599" style="stroke:#0F172A;stroke-width:1;"/><line style="stroke:#0F172A;stroke-width:1;" x1="995.2329" x2="1409.3208" y1="599" y2="599"/><text fill="#000000" font-family="Helvetica" font-size="14" lengthAdjust="spacing" textLength="377.4463" x="1002.2329" y="593.7803">UpdateDistributedDatabaseDistributedAutonomousDatabase</text></g><path d="M915.0366,614 L981.5815,614 L981.5815,620 L971.5815,630 L907.0366,630 L907.0366,622 A8,8 0 0 1 915.0366,614" fill="#F8FAFC" style="stroke:#CBD5E1;stroke-width:1.5;"/><rect fill="none" height="44" rx="8" ry="8" style="stroke:#CBD5E1;stroke-width:1.5;" width="537.729" x="907.0366" y="614"/><text fill="#000000" font-family="Helvetica" font-size="14" font-weight="bold" lengthAdjust="spacing" textLength="29.5449" x="922.0366" y="625.7803">loop</text><text fill="#000000" font-family="Helvetica" font-size="14" font-weight="bold" lengthAdjust="spacing" textLength="190.5381" x="996.5815" y="626.7803">[update pending UPDATING]</text><g class="message" data-entity-1="part4" data-entity-2="part5" id="msg10"><polygon fill="#0F172A" points="1403.3208,646,1413.3208,650,1403.3208,654,1407.3208,650" style="stroke:#0F172A;stroke-width:1;"/><line style="stroke:#0F172A;stroke-width:1;" x1="995.2329" x2="1409.3208" y1="650" y2="650"/><text fill="#000000" font-family="Helvetica" font-size="14" lengthAdjust="spacing" textLength="354.8672" x="1002.2329" y="644.7803">GetDistributedDatabaseDistributedAutonomousDatabase</text></g><path d="M905.0366,679 L963.8022,679 L963.8022,685 L953.8022,695 L897.0366,695 L897.0366,687 A8,8 0 0 1 905.0366,679" fill="#F8FAFC" style="stroke:#CBD5E1;stroke-width:1.5;"/><rect fill="none" height="130" rx="8" ry="8" style="stroke:#CBD5E1;stroke-width:1.5;" width="557.729" x="897.0366" y="679"/><text fill="#000000" font-family="Helvetica" font-size="14" font-weight="bold" lengthAdjust="spacing" textLength="21.7656" x="912.0366" y="690.7803">opt</text><text fill="#000000" font-family="Helvetica" font-size="14" font-weight="bold" lengthAdjust="spacing" textLength="120.5859" x="978.8022" y="691.7803">[delete requested]</text><g class="message" data-entity-1="part4" data-entity-2="part5" id="msg11"><polygon fill="#0F172A" points="1403.3208,711,1413.3208,715,1403.3208,719,1407.3208,715" style="stroke:#0F172A;stroke-width:1;"/><line style="stroke:#0F172A;stroke-width:1;" x1="995.2329" x2="1409.3208" y1="715" y2="715"/><text fill="#000000" font-family="Helvetica" font-size="14" lengthAdjust="spacing" textLength="372.7705" x="1002.2329" y="709.7803">DeleteDistributedDatabaseDistributedAutonomousDatabase</text></g><path d="M915.0366,730 L981.5815,730 L981.5815,736 L971.5815,746 L907.0366,746 L907.0366,738 A8,8 0 0 1 915.0366,730" fill="#F8FAFC" style="stroke:#CBD5E1;stroke-width:1.5;"/><rect fill="none" height="72" rx="8" ry="8" style="stroke:#CBD5E1;stroke-width:1.5;" width="537.729" x="907.0366" y="730"/><text fill="#000000" font-family="Helvetica" font-size="14" font-weight="bold" lengthAdjust="spacing" textLength="29.5449" x="922.0366" y="741.7803">loop</text><text fill="#000000" font-family="Helvetica" font-size="14" font-weight="bold" lengthAdjust="spacing" textLength="213.124" x="996.5815" y="742.7803">[delete confirmation DELETING]</text><g class="message" data-entity-1="part4" data-entity-2="part5" id="msg12"><polygon fill="#0F172A" points="1403.3208,790,1413.3208,794,1403.3208,798,1407.3208,794" style="stroke:#0F172A;stroke-width:1;"/><line style="stroke:#0F172A;stroke-width:1;" x1="995.2329" x2="1409.3208" y1="794" y2="794"/><text fill="#000000" font-family="Helvetica" font-size="14" lengthAdjust="spacing" textLength="354.8672" x="1002.2329" y="760.7803">GetDistributedDatabaseDistributedAutonomousDatabase</text><text fill="#000000" font-family="Helvetica" font-size="14" lengthAdjust="spacing" textLength="12.4482" x="1002.2329" y="774.7803">or</text><text fill="#000000" font-family="Helvetica" font-size="14" lengthAdjust="spacing" textLength="354.0879" x="1002.2329" y="788.7803">ListDistributedDatabaseDistributedAutonomousDatabase</text></g><g class="message" data-entity-1="part4" data-entity-2="part3" id="msg13"><polygon fill="#0F172A" points="649.9312,846,639.9312,850,649.9312,854,645.9312,850" style="stroke:#0F172A;stroke-width:1;"/><line style="stroke:#0F172A;stroke-width:1;stroke-dasharray:2,2;" x1="643.9312" x2="994.2329" y1="850" y2="850"/><text fill="#000000" font-family="Helvetica" font-size="14" lengthAdjust="spacing" textLength="100.7822" x="655.9312" y="830.7803">status=required,</text><text fill="#000000" font-family="Helvetica" font-size="14" lengthAdjust="spacing" textLength="230.7197" x="655.9312" y="844.7803">finalizer=retain-until-confirmed-delete</text></g><g class="message" data-entity-1="part3" data-entity-2="part2" id="msg14"><polygon fill="#0F172A" points="411.105,888,401.105,892,411.105,896,407.105,892" style="stroke:#0F172A;stroke-width:1;"/><line style="stroke:#0F172A;stroke-width:1;stroke-dasharray:2,2;" x1="405.105" x2="637.9312" y1="892" y2="892"/><text fill="#000000" font-family="Helvetica" font-size="14" lengthAdjust="spacing" textLength="214.8262" x="417.105" y="872.7803">requeue on provisioning, updating,</text><text fill="#000000" font-family="Helvetica" font-size="14" lengthAdjust="spacing" textLength="69.2549" x="417.105" y="886.7803">terminating</text></g><path d="M1000,913 L1000,1327 A8,8 0 0 0 1008,1335 L1345,1335 A8,8 0 0 0 1353,1327 L1353,915 L1343,905 L1008,905 A8,8 0 0 0 1000,913" fill="#FFF7D6" style="stroke:#B45309;stroke-width:0.5;"/><path d="M1343,905 L1343,911 A4,4 0 0 0 1347,915 L1353,915 L1343,905" fill="#FFF7D6" style="stroke:#B45309;stroke-width:0.5;"/><text fill="#334155" font-family="Helvetica" font-size="14" lengthAdjust="spacing" textLength="101.165" x="1006" y="920.7803">shared diagram:</text><text fill="#334155" font-family="Helvetica" font-size="14" lengthAdjust="spacing" textLength="307.3916" x="1006" y="934.7803">shared/diagrams/shared-resolution-sequence.svg</text><text fill="#334155" font-family="Helvetica" font-size="14" lengthAdjust="spacing" textLength="143.1992" x="1006" y="948.7803">shared delete diagram:</text><text fill="#334155" font-family="Helvetica" font-size="14" lengthAdjust="spacing" textLength="284.833" x="1006" y="962.7803">shared/diagrams/shared-delete-sequence.svg</text><text fill="#334155" font-family="Helvetica" font-size="14" lengthAdjust="spacing" textLength="280.9297" x="1006" y="976.7803">Start from the shared resolution sequence for</text><text fill="#334155" font-family="Helvetica" font-size="14" lengthAdjust="spacing" textLength="260.7295" x="1006" y="990.7803">OCID binding, datasource pagination, and</text><text fill="#334155" font-family="Helvetica" font-size="14" lengthAdjust="spacing" textLength="163.4268" x="1006" y="1004.7803">create-or-update dispatch.</text><text fill="#334155" font-family="Helvetica" font-size="14" lengthAdjust="spacing" textLength="301.1982" x="1006" y="1018.7803">Layer the shared delete sequence when finalizer</text><text fill="#334155" font-family="Helvetica" font-size="14" lengthAdjust="spacing" textLength="269.2471" x="1006" y="1032.7803">retention, delete confirmation, work-request</text><text fill="#334155" font-family="Helvetica" font-size="14" lengthAdjust="spacing" textLength="199.2334" x="1006" y="1046.7803">polling, or Secret cleanup apply.</text><text fill="#334155" font-family="Helvetica" font-size="14" lengthAdjust="spacing" textLength="281.709" x="1006" y="1060.7803">archetype batch: Generated service-manager</text><text fill="#334155" font-family="Helvetica" font-size="14" lengthAdjust="spacing" textLength="266.1504" x="1006" y="1074.7803">controllers follow the shared resolution and</text><text fill="#334155" font-family="Helvetica" font-size="14" lengthAdjust="spacing" textLength="259.9297" x="1006" y="1088.7803">delete sequences with imported waits and</text><text fill="#334155" font-family="Helvetica" font-size="14" lengthAdjust="spacing" textLength="134.6064" x="1006" y="1102.7803">controller-local policy.</text><text fill="#334155" font-family="Helvetica" font-size="14" lengthAdjust="spacing" textLength="174.3232" x="1006" y="1116.7803">service: distributeddatabase</text><text fill="#334155" font-family="Helvetica" font-size="14" lengthAdjust="spacing" textLength="29.5723" x="1006" y="1130.7803">slug:</text><text fill="#334155" font-family="Helvetica" font-size="14" lengthAdjust="spacing" textLength="321.4531" x="1006" y="1144.7803">distributeddatabasedistributedautonomousdatabase</text><text fill="#334155" font-family="Helvetica" font-size="14" lengthAdjust="spacing" textLength="29.5723" x="1006" y="1158.7803">kind:</text><text fill="#334155" font-family="Helvetica" font-size="14" lengthAdjust="spacing" textLength="332.3018" x="1006" y="1172.7803">DistributedDatabaseDistributedAutonomousDatabase</text><text fill="#334155" font-family="Helvetica" font-size="14" lengthAdjust="spacing" textLength="241.2402" x="1006" y="1186.7803">archetype: generated-service-manager</text><text fill="#334155" font-family="Helvetica" font-size="14" lengthAdjust="spacing" textLength="156.4063" x="1006" y="1200.7803">status/finalizer: required /</text><text fill="#334155" font-family="Helvetica" font-size="14" lengthAdjust="spacing" textLength="174.3027" x="1006" y="1214.7803">retain-until-confirmed-delete</text><text fill="#334155" font-family="Helvetica" font-size="14" lengthAdjust="spacing" textLength="272.3984" x="1006" y="1228.7803">requeue: provisioning, updating, terminating</text><text fill="#334155" font-family="Helvetica" font-size="14" lengthAdjust="spacing" textLength="295.6816" x="1006" y="1242.7803">provider states: create PROVISIONING; update</text><text fill="#334155" font-family="Helvetica" font-size="14" lengthAdjust="spacing" textLength="192.165" x="1006" y="1256.7803">UPDATING; delete DELETING</text><text fill="#334155" font-family="Helvetica" font-size="14" lengthAdjust="spacing" textLength="319.04" x="1006" y="1270.7803">mutable/forceNew: display_name / compartment_id</text><text fill="#334155" font-family="Helvetica" font-size="14" lengthAdjust="spacing" textLength="104.3164" x="1006" y="1284.7803">open gaps: none</text><text fill="#334155" font-family="Helvetica" font-size="14" lengthAdjust="spacing" textLength="224.9023" x="1006" y="1298.7803">Scaffold metadata only; replace with</text><text fill="#334155" font-family="Helvetica" font-size="14" lengthAdjust="spacing" textLength="244.3232" x="1006" y="1312.7803">controller-specific runtime states before</text><text fill="#334155" font-family="Helvetica" font-size="14" lengthAdjust="spacing" textLength="66.1445" x="1006" y="1326.7803">promotion.</text><?plantuml-src jLTjRnit3FwkNq5qNrh05oTDqgONR40RTrtGD2dgTPyC5BB4iuNef9kaivSD_U-ZxYrtZjtDMOSWWIrI99-7BsByhJ85Tpm7l-JIhfLPGCQrH-OxoPoBsuMpfP4NLbi7FsI2VcHFGsB6Inr-jYPSynpX5zGh34hmxJfJzIV2qKbFo9spwyRwONRqydd_fh41tpo88SjUoXURMjP9T8t6_EJq-F3LXaPqtyYFZq-EJazxyigyiCwWWwCNBAYW4QRuUub682GWbGzEpSk0KlB0vzpZU79_DcdEUaUlos2DpMtfMo5RAecGMHlcze-URz-w-Oi1S16i6s1fE6b5csJWSppB3abCneXsLN0Jjj_lA_mRAps-EXjQPNYbp93jLoVyU7v6qcYo68Z4N9xYKITwaCcpZ6U2VMKLDdXVpf5I4D2pNXnmGO4ugpMwmV4RulGJ2ck4sXGzkPdUl9-YMoc17xZX2tHFW7iO7Wskt5nSibWbO5TK0qFReurxr2yE9JZqLfT1MPCsHsEf-89owiVrz-HU9MdJVE1NYzQ2H4reTzwknSERQ6HLpUoUB4X-wd6K0XhIBt5czgtGcN4jPdPlC9eVyf52z_cfYy7vy8mDLUAb8MifTCO9jrS4SFy8sT1cz4A9I-4TXhrDsI9GFNlwO-rjMSJPf-Eys-NZYdJtTV8qKpgWy-dC29l7UilHX2zAZi077l0P8zEGR24hvq4iuqWMCGaYbX2eWBcF5S2u3Y0SybYl3kQAYgBWORahz8jATM-6Y9YYTLEGsnZEnqytlrrEBs-kBw_VVSziH5H8Zm-KXMnWIQUoy4rSdolTn-5g_BIuFd-SlFxr_y14lx7Iwbw6fbrGxl8pgVGU1wdnGLsMAKS556jcylRgxNV6DJFMpSnZsg5ZP3EOBICczaVfVuo4nLancX4empNj3uuE0rScAKrGEcdWTlFomIJQ68zL2aggC0E5iolbYIQgW55T4V7Jp53FvkGjVgjV1QSMom0sW-rFGJEv_zixy8zMjhq7qq131J9dSmXBX0TFq_rwaLaNfysa6XSLuBZAU5iw4XPyKU6rPWIS4bHtVM9TqlG9RK1574a7x8hV4QizPqtqdQFr4WrqoMAKB9fvbUKj1Jg2jNMtITCNhA0aLR5H_q-Heg0vfv4Rci-yAFJT0UDEB37S5KZBASKJAvYsDWfHKWHLRfAyIOxeiku9lTPslOEZY7W3XOUr2ajGUM5TjBtcAlYQcivgegtW6YXc9IYondswRLjaNfUBb6sHz8vurp3TDTeIPShsxhEEf1GMBJt99ZrrXusxJDMj4PiDnkpRBTRqKBghWw3VG9KExOJra-VJzadfFoNdpJncxHm-Rukb6s1vIU0qZgcE1LxZkkAvqFpkYud_U8nX-CBIrAKoNF2271fhQ7KGFACga90Jj4WmJG1zTqwWoKWiMyftFxc-GA4o9S154iX37JxCaIB0Y2gtiNeEkftiRm00?></g></svg>