<?plantuml 1.2026.1?><svg xmlns="http://www.w3.org/2000/svg" xmlns:xlink="http://www.w3.org/1999/xlink" contentStyleType="text/css" data-diagram-type="SEQUENCE" height="2118px" preserveAspectRatio="none" style="width:1418px;height:2118px;background:#FCFCFD;" version="1.1" viewBox="0 0 1418 2118" width="1418px" zoomAndPan="magnify"><title>Sequence - datasafe/DataSafeSensitiveDataModelReferentialRelations</title><defs/><g><rect fill="#FCFCFD" height="2118" style="stroke:none;stroke-width:1;" width="1418" x="0" y="0"/><text fill="#000000" font-family="Helvetica" font-size="14" font-weight="bold" lengthAdjust="spacing" textLength="466.8262" x="481.7756" y="25.7803">Sequence - datasafe/DataSafeSensitiveDataModelReferentialRelations</text><rect fill="none" height="290" rx="8" ry="8" style="stroke:#CBD5E1;stroke-width:1.5;" width="845.1553" x="549.5557" y="356"/><rect fill="none" height="146" rx="8" ry="8" style="stroke:#CBD5E1;stroke-width:1.5;" width="534.3774" x="850.3335" y="465"/><rect fill="none" height="44" rx="8" ry="8" style="stroke:#CBD5E1;stroke-width:1.5;" width="514.3774" x="860.3335" y="516"/><rect fill="none" height="868" rx="8" ry="8" style="stroke:#CBD5E1;stroke-width:1.5;" width="881.8218" x="529.5557" y="660"/><rect fill="none" height="302" rx="8" ry="8" style="stroke:#CBD5E1;stroke-width:1.5;" width="845.1553" x="539.5557" y="683"/><rect fill="none" height="72" rx="8" ry="8" style="stroke:#CBD5E1;stroke-width:1.5;" width="514.3774" x="860.3335" y="804"/><rect fill="none" height="88" rx="8" ry="8" style="stroke:#CBD5E1;stroke-width:1.5;" width="487.1704" x="549.5557" y="890"/><rect fill="none" height="392" rx="8" ry="8" style="stroke:#CBD5E1;stroke-width:1.5;" width="861.8218" x="539.5557" y="1087"/><rect fill="none" height="44" rx="8" ry="8" style="stroke:#CBD5E1;stroke-width:1.5;" width="487.1704" x="549.5557" y="1186"/><rect fill="none" height="130" rx="8" ry="8" style="stroke:#CBD5E1;stroke-width:1.5;" width="534.3774" x="850.3335" y="1244"/><rect fill="none" height="44" rx="8" ry="8" style="stroke:#CBD5E1;stroke-width:1.5;" width="514.3774" x="860.3335" y="1323"/><g class="participant-lifeline" data-entity-uid="part1" data-qualified-name="Kubernetes" id="part1-lifeline"><g><title>Kubernetes</title><rect fill="#000000" fill-opacity="0.00000" height="1997" width="8" x="39.8032" y="114"/><line style="stroke:#94A3B8;stroke-width:0.5;stroke-dasharray:5,5;" x1="43" x2="43" y1="114" y2="2111"/></g></g><g class="participant-lifeline" data-entity-uid="part2" data-qualified-name="Controller" id="part2-lifeline"><g><title>Controller</title><rect fill="#000000" fill-opacity="0.00000" height="1997" width="8" x="372.7534" y="114"/><line style="stroke:#94A3B8;stroke-width:0.5;stroke-dasharray:5,5;" x1="376.4087" x2="376.4087" y1="114" y2="2111"/></g></g><g class="participant-lifeline" data-entity-uid="part3" data-qualified-name="BaseReconciler" id="part3-lifeline"><g><title>BaseReconciler</title><rect fill="#000000" fill-opacity="0.00000" height="1997" width="8" x="611.5796" y="114"/><line style="stroke:#94A3B8;stroke-width:0.5;stroke-dasharray:5,5;" x1="615.5557" x2="615.5557" y1="114" y2="2111"/></g></g><g class="participant-lifeline" data-entity-uid="part4" data-qualified-name="ServiceManager" id="part4-lifeline"><g><title>OSOKServiceManager</title><rect fill="#000000" fill-opacity="0.00000" height="1997" width="8" x="944.5298" y="114"/><line style="stroke:#94A3B8;stroke-width:0.5;stroke-dasharray:5,5;" x1="948.3335" x2="948.3335" y1="114" y2="2111"/></g></g><g class="participant-lifeline" data-entity-uid="part5" data-qualified-name="OCI" id="part5-lifeline"><g><title>OCI</title><rect fill="#000000" fill-opacity="0.00000" height="1997" width="8" x="1341.2661" y="114"/><line style="stroke:#94A3B8;stroke-width:0.5;stroke-dasharray:5,5;" x1="1344.8213" x2="1344.8213" y1="114" y2="2111"/></g></g><g class="participant participant-head" data-entity-uid="part1" data-qualified-name="Kubernetes" id="part1-head"><text fill="#000000" font-family="Helvetica" font-size="14" lengthAdjust="spacing" textLength="71.6064" x="5" y="110.7803">Kubernetes</text><ellipse cx="43.8032" cy="48.5" fill="#E2E8F0" rx="8" ry="8" style="stroke:#0F172A;stroke-width:0.5;"/><path d="M43.8032,56.5 L43.8032,83.5 M30.8032,64.5 L56.8032,64.5 M43.8032,83.5 L30.8032,98.5 M43.8032,83.5 L56.8032,98.5" fill="none" style="stroke:#0F172A;stroke-width:0.5;"/></g><g class="participant participant-head" data-entity-uid="part2" data-qualified-name="Controller" id="part2-head"><rect fill="#E2E8F0" height="28" rx="8" ry="8" style="stroke:#0F172A;stroke-width:0.5;" width="74.6895" x="339.4087" y="85"/><text fill="#0F172A" font-family="Helvetica" font-size="14" lengthAdjust="spacing" textLength="60.6895" x="346.4087" y="102.7803">Controller</text></g><g class="participant participant-head" data-entity-uid="part3" data-qualified-name="BaseReconciler" id="part3-head"><rect fill="#E2E8F0" height="28" rx="8" ry="8" style="stroke:#0F172A;stroke-width:0.5;" width="112.0479" x="559.5557" y="85"/><text fill="#0F172A" font-family="Helvetica" font-size="14" lengthAdjust="spacing" textLength="98.0479" x="566.5557" y="102.7803">BaseReconciler</text></g><g class="participant participant-head" data-entity-uid="part4" data-qualified-name="ServiceManager" id="part4-head"><rect fill="#E2E8F0" height="28" rx="8" ry="8" style="stroke:#0F172A;stroke-width:0.5;" width="156.3926" x="870.3335" y="85"/><text fill="#0F172A" font-family="Helvetica" font-size="14" lengthAdjust="spacing" textLength="142.3926" x="877.3335" y="102.7803">OSOKServiceManager</text></g><g class="participant participant-head" data-entity-uid="part5" data-qualified-name="OCI" id="part5-head"><rect fill="#E2E8F0" height="28" rx="8" ry="8" style="stroke:#0F172A;stroke-width:0.5;" width="38.8896" x="1325.8213" y="85"/><text fill="#0F172A" font-family="Helvetica" font-size="14" lengthAdjust="spacing" textLength="24.8896" x="1332.8213" y="102.7803">OCI</text></g><path d="M550,137 L550,187 A8,8 0 0 0 558,195 L1004,195 A8,8 0 0 0 1012,187 L1012,139 L1002,129 L558,129 A8,8 0 0 0 550,137" fill="#FFF7D6" style="stroke:#B45309;stroke-width:0.5;"/><path d="M1002,129 L1002,135 A4,4 0 0 0 1006,139 L1012,139 L1002,129" fill="#FFF7D6" style="stroke:#B45309;stroke-width:0.5;"/><text fill="#334155" font-family="Helvetica" font-size="14" lengthAdjust="spacing" textLength="111.2891" x="622.8894" y="144.7803">shared resolution:</text><text fill="#334155" font-family="Helvetica" font-size="14" lengthAdjust="spacing" textLength="307.3916" x="622.8894" y="158.7803">shared/diagrams/shared-resolution-sequence.svg</text><text fill="#334155" font-family="Helvetica" font-size="14" lengthAdjust="spacing" textLength="88.7305" x="622.8894" y="172.7803">shared delete:</text><text fill="#334155" font-family="Helvetica" font-size="14" lengthAdjust="spacing" textLength="284.833" x="622.8894" y="186.7803">shared/diagrams/shared-delete-sequence.svg</text><g class="message" data-entity-1="part1" data-entity-2="part2" id="msg1"><polygon fill="#0F172A" points="364.7534,244,374.7534,248,364.7534,252,368.7534,248" style="stroke:#0F172A;stroke-width:1;"/><line style="stroke:#0F172A;stroke-width:1;" x1="43.8032" x2="370.7534" y1="248" y2="248"/><text fill="#000000" font-family="Helvetica" font-size="14" lengthAdjust="spacing" textLength="54.5029" x="50.8032" y="214.7803">enqueue</text><text fill="#000000" font-family="Helvetica" font-size="14" lengthAdjust="spacing" textLength="308.9502" x="50.8032" y="228.7803">DataSafeSensitiveDataModelReferentialRelations</text><text fill="#000000" font-family="Helvetica" font-size="14" lengthAdjust="spacing" textLength="56.0273" x="50.8032" y="242.7803">reconcile</text></g><g class="message" data-entity-1="part2" data-entity-2="part3" id="msg2"><polygon fill="#0F172A" points="603.5796,272,613.5796,276,603.5796,280,607.5796,276" style="stroke:#0F172A;stroke-width:1;"/><line style="stroke:#0F172A;stroke-width:1;" x1="376.7534" x2="609.5796" y1="276" y2="276"/><text fill="#000000" font-family="Helvetica" font-size="14" lengthAdjust="spacing" textLength="117.4961" x="383.7534" y="270.7803">Reconcile(request)</text></g><g class="message" data-entity-1="part3" data-entity-2="part4" id="msg3"><polygon fill="#0F172A" points="936.5298,314,946.5298,318,936.5298,322,940.5298,318" style="stroke:#0F172A;stroke-width:1;"/><line style="stroke:#0F172A;stroke-width:1;" x1="615.5796" x2="942.5298" y1="318" y2="318"/><text fill="#000000" font-family="Helvetica" font-size="14" lengthAdjust="spacing" textLength="105.834" x="622.5796" y="298.7803">reconcile desired</text><text fill="#000000" font-family="Helvetica" font-size="14" lengthAdjust="spacing" textLength="308.9502" x="622.5796" y="312.7803">DataSafeSensitiveDataModelReferentialRelations</text></g><path d="M557.5557,356 L610.8936,356 L610.8936,362 L600.8936,372 L549.5557,372 L549.5557,364 A8,8 0 0 1 557.5557,356" fill="#F8FAFC" style="stroke:#CBD5E1;stroke-width:1.5;"/><rect fill="none" height="290" rx="8" ry="8" style="stroke:#CBD5E1;stroke-width:1.5;" width="845.1553" x="549.5557" y="356"/><text fill="#000000" font-family="Helvetica" font-size="14" font-weight="bold" lengthAdjust="spacing" textLength="16.3379" x="564.5557" y="367.7803">alt</text><text fill="#000000" font-family="Helvetica" font-size="14" font-weight="bold" lengthAdjust="spacing" textLength="308.1094" x="625.8936" y="368.7803">[tracked or explicit OCI identity already exists]</text><g class="message" data-entity-1="part4" data-entity-2="part5" id="msg4"><polygon fill="#0F172A" points="1333.2661,388,1343.2661,392,1333.2661,396,1337.2661,392" style="stroke:#0F172A;stroke-width:1;"/><line style="stroke:#0F172A;stroke-width:1;" x1="948.5298" x2="1339.2661" y1="392" y2="392"/><text fill="#000000" font-family="Helvetica" font-size="14" lengthAdjust="spacing" textLength="331.5156" x="955.5298" y="386.7803">GetDataSafeSensitiveDataModelReferentialRelations</text></g><line style="stroke:#CBD5E1;stroke-width:1;stroke-dasharray:2,2;" x1="549.5557" x2="1394.7109" y1="401" y2="401"/><text fill="#000000" font-family="Helvetica" font-size="14" font-weight="bold" lengthAdjust="spacing" textLength="185.1582" x="554.5557" y="411.7803">[tracked identity is missing]</text><g class="message" data-entity-1="part4" data-entity-2="part5" id="msg5"><polygon fill="#0F172A" points="1333.2661,446,1343.2661,450,1333.2661,454,1337.2661,450" style="stroke:#0F172A;stroke-width:1;"/><line style="stroke:#0F172A;stroke-width:1;" x1="948.5298" x2="1339.2661" y1="450" y2="450"/><text fill="#000000" font-family="Helvetica" font-size="14" lengthAdjust="spacing" textLength="372.7363" x="955.5298" y="430.7803">ListDataSafeSensitiveDataModelReferentialRelations(filters:</text><text fill="#000000" font-family="Helvetica" font-size="14" lengthAdjust="spacing" textLength="143.1719" x="955.5298" y="444.7803">compartment_id, state)</text></g><path d="M858.3335,465 L911.6714,465 L911.6714,471 L901.6714,481 L850.3335,481 L850.3335,473 A8,8 0 0 1 858.3335,465" fill="#F8FAFC" style="stroke:#CBD5E1;stroke-width:1.5;"/><rect fill="none" height="146" rx="8" ry="8" style="stroke:#CBD5E1;stroke-width:1.5;" width="534.3774" x="850.3335" y="465"/><text fill="#000000" font-family="Helvetica" font-size="14" font-weight="bold" lengthAdjust="spacing" textLength="16.3379" x="865.3335" y="476.7803">alt</text><text fill="#000000" font-family="Helvetica" font-size="14" font-weight="bold" lengthAdjust="spacing" textLength="242.7031" x="926.6714" y="477.7803">[reusable OCI resource is not found]</text><g class="message" data-entity-1="part4" data-entity-2="part5" id="msg6"><polygon fill="#0F172A" points="1333.2661,497,1343.2661,501,1333.2661,505,1337.2661,501" style="stroke:#0F172A;stroke-width:1;"/><line style="stroke:#0F172A;stroke-width:1;" x1="948.5298" x2="1339.2661" y1="501" y2="501"/><text fill="#000000" font-family="Helvetica" font-size="14" lengthAdjust="spacing" textLength="350.9707" x="955.5298" y="495.7803">CreateDataSafeSensitiveDataModelReferentialRelations</text></g><path d="M868.3335,516 L934.8784,516 L934.8784,522 L924.8784,532 L860.3335,532 L860.3335,524 A8,8 0 0 1 868.3335,516" fill="#F8FAFC" style="stroke:#CBD5E1;stroke-width:1.5;"/><rect fill="none" height="44" rx="8" ry="8" style="stroke:#CBD5E1;stroke-width:1.5;" width="514.3774" x="860.3335" y="516"/><text fill="#000000" font-family="Helvetica" font-size="14" font-weight="bold" lengthAdjust="spacing" textLength="29.5449" x="875.3335" y="527.7803">loop</text><text fill="#000000" font-family="Helvetica" font-size="14" font-weight="bold" lengthAdjust="spacing" textLength="215.4756" x="949.8784" y="528.7803">[create pending PROVISIONING]</text><g class="message" data-entity-1="part4" data-entity-2="part5" id="msg7"><polygon fill="#0F172A" points="1333.2661,548,1343.2661,552,1333.2661,556,1337.2661,552" style="stroke:#0F172A;stroke-width:1;"/><line style="stroke:#0F172A;stroke-width:1;" x1="948.5298" x2="1339.2661" y1="552" y2="552"/><text fill="#000000" font-family="Helvetica" font-size="14" lengthAdjust="spacing" textLength="331.5156" x="955.5298" y="546.7803">GetDataSafeSensitiveDataModelReferentialRelations</text></g><line style="stroke:#CBD5E1;stroke-width:1;stroke-dasharray:2,2;" x1="850.3335" x2="1384.7109" y1="568" y2="568"/><text fill="#000000" font-family="Helvetica" font-size="14" font-weight="bold" lengthAdjust="spacing" textLength="255.2334" x="855.3335" y="578.7803">[reusable OCI resource already exists]</text><g class="message" data-entity-1="part4" data-entity-2="part5" id="msg8"><polygon fill="#0F172A" points="1333.2661,599,1343.2661,603,1333.2661,607,1337.2661,603" style="stroke:#0F172A;stroke-width:1;"/><line style="stroke:#0F172A;stroke-width:1;" x1="948.5298" x2="1339.2661" y1="603" y2="603"/><text fill="#000000" font-family="Helvetica" font-size="14" lengthAdjust="spacing" textLength="331.5156" x="955.5298" y="597.7803">GetDataSafeSensitiveDataModelReferentialRelations</text></g><g class="message" data-entity-1="part4" data-entity-2="part3" id="msg9"><polygon fill="#0F172A" points="626.5796,634,616.5796,638,626.5796,642,622.5796,638" style="stroke:#0F172A;stroke-width:1;"/><line style="stroke:#0F172A;stroke-width:1;stroke-dasharray:2,2;" x1="620.5796" x2="947.5298" y1="638" y2="638"/><text fill="#000000" font-family="Helvetica" font-size="14" lengthAdjust="spacing" textLength="231.0957" x="632.5796" y="632.7803">persist resolved OCI identity in status</text></g><path d="M537.5557,660 L590.8936,660 L590.8936,666 L580.8936,676 L529.5557,676 L529.5557,668 A8,8 0 0 1 537.5557,660" fill="#F8FAFC" style="stroke:#CBD5E1;stroke-width:1.5;"/><rect fill="none" height="868" rx="8" ry="8" style="stroke:#CBD5E1;stroke-width:1.5;" width="881.8218" x="529.5557" y="660"/><text fill="#000000" font-family="Helvetica" font-size="14" font-weight="bold" lengthAdjust="spacing" textLength="16.3379" x="544.5557" y="671.7803">alt</text><text fill="#000000" font-family="Helvetica" font-size="14" font-weight="bold" lengthAdjust="spacing" textLength="120.5859" x="605.8936" y="672.7803">[delete requested]</text><path d="M547.5557,683 L626.5762,683 L626.5762,689 L616.5762,699 L539.5557,699 L539.5557,691 A8,8 0 0 1 547.5557,683" fill="#F8FAFC" style="stroke:#CBD5E1;stroke-width:1.5;"/><rect fill="none" height="302" rx="8" ry="8" style="stroke:#CBD5E1;stroke-width:1.5;" width="845.1553" x="539.5557" y="683"/><text fill="#000000" font-family="Helvetica" font-size="14" font-weight="bold" lengthAdjust="spacing" textLength="42.0205" x="554.5557" y="694.7803">Delete</text><g class="message" data-entity-1="part4" data-entity-2="part5" id="msg10"><polygon fill="#0F172A" points="1333.2661,715,1343.2661,719,1333.2661,723,1337.2661,719" style="stroke:#0F172A;stroke-width:1;"/><line style="stroke:#0F172A;stroke-width:1;" x1="948.5298" x2="1339.2661" y1="719" y2="719"/><text fill="#000000" font-family="Helvetica" font-size="14" lengthAdjust="spacing" textLength="349.4189" x="955.5298" y="713.7803">DeleteDataSafeSensitiveDataModelReferentialRelations</text></g><g class="message" data-entity-1="part4" data-entity-2="part5" id="msg11"><polygon fill="#0F172A" points="1333.2661,785,1343.2661,789,1333.2661,793,1337.2661,789" style="stroke:#0F172A;stroke-width:1;"/><line style="stroke:#0F172A;stroke-width:1;" x1="948.5298" x2="1339.2661" y1="789" y2="789"/><text fill="#000000" font-family="Helvetica" font-size="14" lengthAdjust="spacing" textLength="109.7168" x="955.5298" y="741.7803">confirm delete via</text><text fill="#000000" font-family="Helvetica" font-size="14" lengthAdjust="spacing" textLength="331.5156" x="955.5298" y="755.7803">GetDataSafeSensitiveDataModelReferentialRelations</text><text fill="#000000" font-family="Helvetica" font-size="14" lengthAdjust="spacing" textLength="12.4482" x="955.5298" y="769.7803">or</text><text fill="#000000" font-family="Helvetica" font-size="14" lengthAdjust="spacing" textLength="330.7363" x="955.5298" y="783.7803">ListDataSafeSensitiveDataModelReferentialRelations</text></g><path d="M868.3335,804 L934.8784,804 L934.8784,810 L924.8784,820 L860.3335,820 L860.3335,812 A8,8 0 0 1 868.3335,804" fill="#F8FAFC" style="stroke:#CBD5E1;stroke-width:1.5;"/><rect fill="none" height="72" rx="8" ry="8" style="stroke:#CBD5E1;stroke-width:1.5;" width="514.3774" x="860.3335" y="804"/><text fill="#000000" font-family="Helvetica" font-size="14" font-weight="bold" lengthAdjust="spacing" textLength="29.5449" x="875.3335" y="815.7803">loop</text><text fill="#000000" font-family="Helvetica" font-size="14" font-weight="bold" lengthAdjust="spacing" textLength="182.7793" x="949.8784" y="816.7803">[delete pending DELETING]</text><g class="message" data-entity-1="part4" data-entity-2="part5" id="msg12"><polygon fill="#0F172A" points="1333.2661,864,1343.2661,868,1333.2661,872,1337.2661,868" style="stroke:#0F172A;stroke-width:1;"/><line style="stroke:#0F172A;stroke-width:1;" x1="948.5298" x2="1339.2661" y1="868" y2="868"/><text fill="#000000" font-family="Helvetica" font-size="14" lengthAdjust="spacing" textLength="331.5156" x="955.5298" y="834.7803">GetDataSafeSensitiveDataModelReferentialRelations</text><text fill="#000000" font-family="Helvetica" font-size="14" lengthAdjust="spacing" textLength="12.4482" x="955.5298" y="848.7803">or</text><text fill="#000000" font-family="Helvetica" font-size="14" lengthAdjust="spacing" textLength="330.7363" x="955.5298" y="862.7803">ListDataSafeSensitiveDataModelReferentialRelations</text></g><path d="M557.5557,890 L610.8936,890 L610.8936,896 L600.8936,906 L549.5557,906 L549.5557,898 A8,8 0 0 1 557.5557,890" fill="#F8FAFC" style="stroke:#CBD5E1;stroke-width:1.5;"/><rect fill="none" height="88" rx="8" ry="8" style="stroke:#CBD5E1;stroke-width:1.5;" width="487.1704" x="549.5557" y="890"/><text fill="#000000" font-family="Helvetica" font-size="14" font-weight="bold" lengthAdjust="spacing" textLength="16.3379" x="564.5557" y="901.7803">alt</text><text fill="#000000" font-family="Helvetica" font-size="14" font-weight="bold" lengthAdjust="spacing" textLength="261.4268" x="625.8936" y="902.7803">[cleanup or finalizer release is blocked]</text><g class="message" data-entity-1="part4" data-entity-2="part3" id="msg13"><polygon fill="#0F172A" points="626.5796,922,616.5796,926,626.5796,930,622.5796,926" style="stroke:#0F172A;stroke-width:1;"/><line style="stroke:#0F172A;stroke-width:1;stroke-dasharray:2,2;" x1="620.5796" x2="947.5298" y1="926" y2="926"/><text fill="#000000" font-family="Helvetica" font-size="14" lengthAdjust="spacing" textLength="170.4336" x="632.5796" y="920.7803">retain delete state and retry</text></g><line style="stroke:#CBD5E1;stroke-width:1;stroke-dasharray:2,2;" x1="549.5557" x2="1036.7261" y1="935" y2="935"/><text fill="#000000" font-family="Helvetica" font-size="14" font-weight="bold" lengthAdjust="spacing" textLength="194.4824" x="554.5557" y="945.7803">[delete completion observed]</text><g class="message" data-entity-1="part4" data-entity-2="part3" id="msg14"><polygon fill="#0F172A" points="626.5796,966,616.5796,970,626.5796,974,622.5796,970" style="stroke:#0F172A;stroke-width:1;"/><line style="stroke:#0F172A;stroke-width:1;stroke-dasharray:2,2;" x1="620.5796" x2="947.5298" y1="970" y2="970"/><text fill="#000000" font-family="Helvetica" font-size="14" lengthAdjust="spacing" textLength="243.5781" x="632.5796" y="964.7803">release finalizer after delete completion</text></g><line style="stroke:#CBD5E1;stroke-width:1;stroke-dasharray:2,2;" x1="529.5557" x2="1411.3774" y1="993" y2="993"/><text fill="#000000" font-family="Helvetica" font-size="14" font-weight="bold" lengthAdjust="spacing" textLength="149.3857" x="534.5557" y="1003.7803">[OCI state is retryable]</text><g class="message" data-entity-1="part4" data-entity-2="part3" id="msg15"><polygon fill="#0F172A" points="626.5796,1038,616.5796,1042,626.5796,1046,622.5796,1042" style="stroke:#0F172A;stroke-width:1;"/><line style="stroke:#0F172A;stroke-width:1;stroke-dasharray:2,2;" x1="620.5796" x2="947.5298" y1="1042" y2="1042"/><text fill="#000000" font-family="Helvetica" font-size="14" lengthAdjust="spacing" textLength="184.4199" x="632.5796" y="1022.7803">requeue while OCI remains in</text><text fill="#000000" font-family="Helvetica" font-size="14" lengthAdjust="spacing" textLength="260.5928" x="632.5796" y="1036.7803">PROVISIONING, UPDATING, DELETING</text></g><line style="stroke:#CBD5E1;stroke-width:1;stroke-dasharray:2,2;" x1="529.5557" x2="1411.3774" y1="1051" y2="1051"/><text fill="#000000" font-family="Helvetica" font-size="14" font-weight="bold" lengthAdjust="spacing" textLength="200.751" x="534.5557" y="1061.7803">[live state requires field-aware</text><text fill="#000000" font-family="Helvetica" font-size="14" font-weight="bold" lengthAdjust="spacing" textLength="105.0068" x="534.5557" y="1075.7803">drift evaluation]</text><path d="M547.5557,1087 L675.542,1087 L675.542,1093 L665.542,1103 L539.5557,1103 L539.5557,1095 A8,8 0 0 1 547.5557,1087" fill="#F8FAFC" style="stroke:#CBD5E1;stroke-width:1.5;"/><rect fill="none" height="392" rx="8" ry="8" style="stroke:#CBD5E1;stroke-width:1.5;" width="861.8218" x="539.5557" y="1087"/><text fill="#000000" font-family="Helvetica" font-size="14" font-weight="bold" lengthAdjust="spacing" textLength="90.9863" x="554.5557" y="1098.7803">Drift handling</text><path d="M902,1116 L902,1166 A8,8 0 0 0 910,1174 L1383,1174 A8,8 0 0 0 1391,1166 L1391,1118 L1381,1108 L910,1108 A8,8 0 0 0 902,1116" fill="#FFF7D6" style="stroke:#B45309;stroke-width:0.5;"/><path d="M1381,1108 L1381,1114 A4,4 0 0 0 1385,1118 L1391,1118 L1381,1108" fill="#FFF7D6" style="stroke:#B45309;stroke-width:0.5;"/><text fill="#334155" font-family="Helvetica" font-size="14" lengthAdjust="spacing" textLength="255.2813" x="1014.5481" y="1123.7803">Supported update surface: display_name</text><text fill="#334155" font-family="Helvetica" font-size="14" lengthAdjust="spacing" textLength="235.7783" x="1014.5481" y="1137.7803">Reject before mutate: force-new fields</text><text fill="#334155" font-family="Helvetica" font-size="14" lengthAdjust="spacing" textLength="100.3789" x="1014.5481" y="1151.7803">compartment_id</text><text fill="#334155" font-family="Helvetica" font-size="14" lengthAdjust="spacing" textLength="229.5576" x="1014.5481" y="1165.7803">Lookup filters: compartment_id, state</text><path d="M557.5557,1186 L616.3213,1186 L616.3213,1192 L606.3213,1202 L549.5557,1202 L549.5557,1194 A8,8 0 0 1 557.5557,1186" fill="#F8FAFC" style="stroke:#CBD5E1;stroke-width:1.5;"/><rect fill="none" height="44" rx="8" ry="8" style="stroke:#CBD5E1;stroke-width:1.5;" width="487.1704" x="549.5557" y="1186"/><text fill="#000000" font-family="Helvetica" font-size="14" font-weight="bold" lengthAdjust="spacing" textLength="21.7656" x="564.5557" y="1197.7803">opt</text><text fill="#000000" font-family="Helvetica" font-size="14" font-weight="bold" lengthAdjust="spacing" textLength="276.1309" x="631.3213" y="1198.7803">[force-new or conflicting drift is detected]</text><g class="message" data-entity-1="part4" data-entity-2="part3" id="msg16"><polygon fill="#0F172A" points="626.5796,1218,616.5796,1222,626.5796,1226,622.5796,1222" style="stroke:#0F172A;stroke-width:1;"/><line style="stroke:#0F172A;stroke-width:1;stroke-dasharray:2,2;" x1="620.5796" x2="947.5298" y1="1222" y2="1222"/><text fill="#000000" font-family="Helvetica" font-size="14" lengthAdjust="spacing" textLength="164.1855" x="632.5796" y="1216.7803">reject before OCI mutation</text></g><path d="M858.3335,1244 L917.0991,1244 L917.0991,1250 L907.0991,1260 L850.3335,1260 L850.3335,1252 A8,8 0 0 1 858.3335,1244" fill="#F8FAFC" style="stroke:#CBD5E1;stroke-width:1.5;"/><rect fill="none" height="130" rx="8" ry="8" style="stroke:#CBD5E1;stroke-width:1.5;" width="534.3774" x="850.3335" y="1244"/><text fill="#000000" font-family="Helvetica" font-size="14" font-weight="bold" lengthAdjust="spacing" textLength="21.7656" x="865.3335" y="1255.7803">opt</text><text fill="#000000" font-family="Helvetica" font-size="14" font-weight="bold" lengthAdjust="spacing" textLength="243.4619" x="932.0991" y="1256.7803">[supported mutable drift is detected]</text><g class="message" data-entity-1="part4" data-entity-2="part5" id="msg17"><polygon fill="#0F172A" points="1333.2661,1304,1343.2661,1308,1333.2661,1312,1337.2661,1308" style="stroke:#0F172A;stroke-width:1;"/><line style="stroke:#0F172A;stroke-width:1;" x1="948.5298" x2="1339.2661" y1="1308" y2="1308"/><text fill="#000000" font-family="Helvetica" font-size="14" lengthAdjust="spacing" textLength="35.0205" x="955.5298" y="1274.7803">Apply</text><text fill="#000000" font-family="Helvetica" font-size="14" lengthAdjust="spacing" textLength="354.0947" x="955.5298" y="1288.7803">UpdateDataSafeSensitiveDataModelReferentialRelations</text><text fill="#000000" font-family="Helvetica" font-size="14" lengthAdjust="spacing" textLength="226.4541" x="955.5298" y="1302.7803">only for mutable fields display_name</text></g><path d="M868.3335,1323 L934.8784,1323 L934.8784,1329 L924.8784,1339 L860.3335,1339 L860.3335,1331 A8,8 0 0 1 868.3335,1323" fill="#F8FAFC" style="stroke:#CBD5E1;stroke-width:1.5;"/><rect fill="none" height="44" rx="8" ry="8" style="stroke:#CBD5E1;stroke-width:1.5;" width="514.3774" x="860.3335" y="1323"/><text fill="#000000" font-family="Helvetica" font-size="14" font-weight="bold" lengthAdjust="spacing" textLength="29.5449" x="875.3335" y="1334.7803">loop</text><text fill="#000000" font-family="Helvetica" font-size="14" font-weight="bold" lengthAdjust="spacing" textLength="190.5381" x="949.8784" y="1335.7803">[update pending UPDATING]</text><g class="message" data-entity-1="part4" data-entity-2="part5" id="msg18"><polygon fill="#0F172A" points="1333.2661,1355,1343.2661,1359,1333.2661,1363,1337.2661,1359" style="stroke:#0F172A;stroke-width:1;"/><line style="stroke:#0F172A;stroke-width:1;" x1="948.5298" x2="1339.2661" y1="1359" y2="1359"/><text fill="#000000" font-family="Helvetica" font-size="14" lengthAdjust="spacing" textLength="331.5156" x="955.5298" y="1353.7803">GetDataSafeSensitiveDataModelReferentialRelations</text></g><g class="message" data-entity-1="part4" data-entity-2="part5" id="msg19"><polygon fill="#0F172A" points="1333.2661,1467,1343.2661,1471,1333.2661,1475,1337.2661,1471" style="stroke:#0F172A;stroke-width:1;"/><line style="stroke:#0F172A;stroke-width:1;" x1="948.5298" x2="1339.2661" y1="1471" y2="1471"/><text fill="#000000" font-family="Helvetica" font-size="14" lengthAdjust="spacing" textLength="104.2891" x="955.5298" y="1395.7803">run helper hooks</text><text fill="#000000" font-family="Helvetica" font-size="14" lengthAdjust="spacing" textLength="219.0508" x="955.5298" y="1409.7803">create=tfresource.CreateResource,</text><text fill="#000000" font-family="Helvetica" font-size="14" lengthAdjust="spacing" textLength="314.3164" x="955.5298" y="1423.7803">tfresource.WaitForWorkRequestWithErrorHandling</text><text fill="#000000" font-family="Helvetica" font-size="14" lengthAdjust="spacing" textLength="215.5439" x="955.5298" y="1437.7803">entity=template action=CREATED;</text><text fill="#000000" font-family="Helvetica" font-size="14" lengthAdjust="spacing" textLength="226.085" x="955.5298" y="1451.7803">update=tfresource.UpdateResource;</text><text fill="#000000" font-family="Helvetica" font-size="14" lengthAdjust="spacing" textLength="212.8438" x="955.5298" y="1465.7803">delete=tfresource.DeleteResource</text></g><g class="message" data-entity-1="part4" data-entity-2="part3" id="msg20"><polygon fill="#0F172A" points="626.5796,1516,616.5796,1520,626.5796,1524,622.5796,1520" style="stroke:#0F172A;stroke-width:1;"/><line style="stroke:#0F172A;stroke-width:1;stroke-dasharray:2,2;" x1="620.5796" x2="947.5298" y1="1520" y2="1520"/><text fill="#000000" font-family="Helvetica" font-size="14" lengthAdjust="spacing" textLength="100.7822" x="632.5796" y="1500.7803">status=required,</text><text fill="#000000" font-family="Helvetica" font-size="14" lengthAdjust="spacing" textLength="230.7197" x="632.5796" y="1514.7803">finalizer=retain-until-confirmed-delete</text></g><g class="message" data-entity-1="part3" data-entity-2="part2" id="msg21"><polygon fill="#0F172A" points="387.7534,1565,377.7534,1569,387.7534,1573,383.7534,1569" style="stroke:#0F172A;stroke-width:1;"/><line style="stroke:#0F172A;stroke-width:1;stroke-dasharray:2,2;" x1="381.7534" x2="614.5796" y1="1569" y2="1569"/><text fill="#000000" font-family="Helvetica" font-size="14" lengthAdjust="spacing" textLength="214.8262" x="393.7534" y="1549.7803">requeue on provisioning, updating,</text><text fill="#000000" font-family="Helvetica" font-size="14" lengthAdjust="spacing" textLength="69.2549" x="393.7534" y="1563.7803">terminating</text></g><path d="M953,1590 L953,2088 A8,8 0 0 0 961,2096 L1372,2096 A8,8 0 0 0 1380,2088 L1380,1592 L1370,1582 L961,1582 A8,8 0 0 0 953,1590" fill="#FFF7D6" style="stroke:#B45309;stroke-width:0.5;"/><path d="M1370,1582 L1370,1588 A4,4 0 0 0 1374,1592 L1380,1592 L1370,1582" fill="#FFF7D6" style="stroke:#B45309;stroke-width:0.5;"/><text fill="#334155" font-family="Helvetica" font-size="14" lengthAdjust="spacing" textLength="101.165" x="959" y="1597.7803">shared diagram:</text><text fill="#334155" font-family="Helvetica" font-size="14" lengthAdjust="spacing" textLength="307.3916" x="959" y="1611.7803">shared/diagrams/shared-resolution-sequence.svg</text><text fill="#334155" font-family="Helvetica" font-size="14" lengthAdjust="spacing" textLength="143.1992" x="959" y="1625.7803">shared delete diagram:</text><text fill="#334155" font-family="Helvetica" font-size="14" lengthAdjust="spacing" textLength="284.833" x="959" y="1639.7803">shared/diagrams/shared-delete-sequence.svg</text><text fill="#334155" font-family="Helvetica" font-size="14" lengthAdjust="spacing" textLength="280.9297" x="959" y="1653.7803">Start from the shared resolution sequence for</text><text fill="#334155" font-family="Helvetica" font-size="14" lengthAdjust="spacing" textLength="260.7295" x="959" y="1667.7803">OCID binding, datasource pagination, and</text><text fill="#334155" font-family="Helvetica" font-size="14" lengthAdjust="spacing" textLength="163.4268" x="959" y="1681.7803">create-or-update dispatch.</text><text fill="#334155" font-family="Helvetica" font-size="14" lengthAdjust="spacing" textLength="301.1982" x="959" y="1695.7803">Layer the shared delete sequence when finalizer</text><text fill="#334155" font-family="Helvetica" font-size="14" lengthAdjust="spacing" textLength="269.2471" x="959" y="1709.7803">retention, delete confirmation, work-request</text><text fill="#334155" font-family="Helvetica" font-size="14" lengthAdjust="spacing" textLength="199.2334" x="959" y="1723.7803">polling, or Secret cleanup apply.</text><text fill="#334155" font-family="Helvetica" font-size="14" lengthAdjust="spacing" textLength="281.709" x="959" y="1737.7803">archetype batch: Generated service-manager</text><text fill="#334155" font-family="Helvetica" font-size="14" lengthAdjust="spacing" textLength="266.1504" x="959" y="1751.7803">controllers follow the shared resolution and</text><text fill="#334155" font-family="Helvetica" font-size="14" lengthAdjust="spacing" textLength="259.9297" x="959" y="1765.7803">delete sequences with imported waits and</text><text fill="#334155" font-family="Helvetica" font-size="14" lengthAdjust="spacing" textLength="134.6064" x="959" y="1779.7803">controller-local policy.</text><text fill="#334155" font-family="Helvetica" font-size="14" lengthAdjust="spacing" textLength="105.834" x="959" y="1793.7803">service: datasafe</text><text fill="#334155" font-family="Helvetica" font-size="14" lengthAdjust="spacing" textLength="29.5723" x="959" y="1807.7803">slug:</text><text fill="#334155" font-family="Helvetica" font-size="14" lengthAdjust="spacing" textLength="288.7295" x="959" y="1821.7803">datasafesensitivedatamodelreferentialrelations</text><text fill="#334155" font-family="Helvetica" font-size="14" lengthAdjust="spacing" textLength="29.5723" x="959" y="1835.7803">kind:</text><text fill="#334155" font-family="Helvetica" font-size="14" lengthAdjust="spacing" textLength="308.9502" x="959" y="1849.7803">DataSafeSensitiveDataModelReferentialRelations</text><text fill="#334155" font-family="Helvetica" font-size="14" lengthAdjust="spacing" textLength="241.2402" x="959" y="1863.7803">archetype: generated-service-manager</text><text fill="#334155" font-family="Helvetica" font-size="14" lengthAdjust="spacing" textLength="156.4063" x="959" y="1877.7803">status/finalizer: required /</text><text fill="#334155" font-family="Helvetica" font-size="14" lengthAdjust="spacing" textLength="174.3027" x="959" y="1891.7803">retain-until-confirmed-delete</text><text fill="#334155" font-family="Helvetica" font-size="14" lengthAdjust="spacing" textLength="272.3984" x="959" y="1905.7803">requeue: provisioning, updating, terminating</text><text fill="#334155" font-family="Helvetica" font-size="14" lengthAdjust="spacing" textLength="295.6816" x="959" y="1919.7803">provider states: create PROVISIONING; update</text><text fill="#334155" font-family="Helvetica" font-size="14" lengthAdjust="spacing" textLength="192.165" x="959" y="1933.7803">UPDATING; delete DELETING</text><text fill="#334155" font-family="Helvetica" font-size="14" lengthAdjust="spacing" textLength="183.6611" x="959" y="1947.7803">supported drift: display_name</text><text fill="#334155" font-family="Helvetica" font-size="14" lengthAdjust="spacing" textLength="230.3301" x="959" y="1961.7803">reject before mutate: force-new fields</text><text fill="#334155" font-family="Helvetica" font-size="14" lengthAdjust="spacing" textLength="100.3789" x="959" y="1975.7803">compartment_id</text><text fill="#334155" font-family="Helvetica" font-size="14" lengthAdjust="spacing" textLength="66.1445" x="959" y="1989.7803">list lookup:</text><text fill="#334155" font-family="Helvetica" font-size="14" lengthAdjust="spacing" textLength="406.2598" x="959" y="2003.7803">scaffold_datasafe_datasafesensitivedatamodelreferentialrelations</text><text fill="#334155" font-family="Helvetica" font-size="14" lengthAdjust="spacing" textLength="175.8477" x="959" y="2017.7803">filters compartment_id, state</text><text fill="#334155" font-family="Helvetica" font-size="14" lengthAdjust="spacing" textLength="89.4961" x="959" y="2031.7803">conflicts: none</text><text fill="#334155" font-family="Helvetica" font-size="14" lengthAdjust="spacing" textLength="104.3164" x="959" y="2045.7803">open gaps: none</text><text fill="#334155" font-family="Helvetica" font-size="14" lengthAdjust="spacing" textLength="224.9023" x="959" y="2059.7803">Scaffold metadata only; replace with</text><text fill="#334155" font-family="Helvetica" font-size="14" lengthAdjust="spacing" textLength="244.3232" x="959" y="2073.7803">controller-specific runtime states before</text><text fill="#334155" font-family="Helvetica" font-size="14" lengthAdjust="spacing" textLength="66.1445" x="959" y="2087.7803">promotion.</text><?plantuml-src jLTRRzis67tdho2wbnQ8agP9Ud6G0MsIhK7Jfh3RzSL0G4kVR2uKgP6KNM_OVz_7comvzXft7V8GcQI--pc7CdTSraopYfePAzI2ooajcJ10JBipOVdTLAj65kTAA4r_AdFyAped2YXP8-mlIjeFh0Bw5iGSBC_PvZCZ_YVGm-FE9jDQBQBrf-NXYsVTDwMoyEPU36NvedY-Vahf0dGyCJa-ENhwQks4Sn_tZuwE3qzEEllUVAwq14qFdnFBhG0wWZyQa3dGZ1RCCiDAEBZ0Xn4-Z40QRlaStC9xLO0OGWaQfEKC7mMpN4b3Phm0MYfb9-fhnvr9blyYbBBSAjqBFvOXRQtd3y_WPVaKjz4OLfhNJDhDxtSFFCHAfqIj3S5BkEQoN-1Nn-neyX9tdScwjvLFYXCuRBVkDUzboSgS_4ryRlHTCm6ikWL3Ed7GSmn4Ao50zvRVC0D3o9NC-VhMevlHpRiHw3dFuJsJR0hw4MM6zfTwhzoSNn4t65JDiUrzstjhxo54D1HKWr6YSRqTnAM3WhCfzjGSXD_PwaYMshnlvjDa0IS5iztwTjZklmcoy0DCLiMYsS-T6WqeI3pVm5ZkDfzZgLF6P6NE6UzNOq3RvyVQXMRi4z8_ubxgrsn0M-EOjU6Otgxn4Jz3z5gfE_p7i0uJBWl2XALMusHXFN66u6ijiAU-eHG1XpRiaZAXWHLBtEN66jAFpKMBfmVqLx0xXWJ8aAttrXitjEB688TkytIDOUpcwd79XGLj1cEPgyfDReKdRdcnHurb5fxuGcXe39jWZLtsRlWQZSI2yU388FKWyhP5T8u5ih1Z-aAfckR-JLhZP3hL-3Yy-UrgT7NpuUh3hp-mq1YvB_Rc3F-t_cues0P0rDWOT1mOOOwZq1i-BdsBcc3EjIa0cqRqG157-y8lRui-xEwOm1PR67h9TPK2cNCsbZjNPooL7ilTHpcCJNITnkRYylhoquyScU-EBZKf5y0aTWL9fUII2RoiQ6mPhXeFgObG3lOFcGyDbk4Kn9GzNZs1uRfUXhcEUmxR-821K3KnQFcX3a9Ogq1PYMnntse0KWAJ6zCG3URZWt7GUfX3hp5qCUCj5YlCqU2qZsMN0_RevuyNhp_vfxR9thl0LaJtpXngWi44G1GPMw3-ZMMXUMafp9beV6yIJFpo30ie7CMkLBiVzvwJz55JrqeZn6XJ5ywJQNJ9SXZGWfjQiEMjn8ig6SBla5iwWL9fe5NZWXeWOIAtP18M8In3-inBeXGbPgORYNcbsAgs7PCuLWw5A5RMpN_85TjGOCDo-z2sTyDsNV2XfpuxXwOjWDjonFbjJn5oh-jQBCVoio_Spk2JOkcoRTs64lRBxeaWDYOHGPgM7wmTsvLFDvBEG227qnas56CFYdPcowGl-q4TX_7dtbXszhumZdTb_KNfks4Wz2_SpYxnIqQ_ZJCwba4ApYmW43twSnVRsVdmylMdoulJiGnLwFeCTKy-yKW0S_T8a8HqvA5g5SJeB6Akm6nQsZWBJ9Kr6Ax8eagqDr7lOFscjtRvJCI015PhDUS6qyGAx8KskoSi7kWAFTeMlPfFPvQgacw-QCTxyN-xPN_JogRRziWYdccfLKNj3EYzY__gumr7dU0uNVXBgK_OVoQ6wqdDfZvV9VSSxvCmO9dIMHn-Xmfcyza-kMPBh6h7MHADv6Wn0xdYUO8DSxFbBBTaxxiMtIrmBBDuqI0rDid7fXnPOXGhbMCExFk4wNm6Tba3VkrZF0vk-1dC77-Oq9kiYit9swuZRUD_jTXI8vVnMXQ6BX0Zb5UHcnQ88HDAqrhDK5-Pe1Wppp6ow7xGVduJ8vhfWAIV9f61MwWS6UWL6UYM3F2pknYG7HcahSg0JbCzilLw15WTjAqP95Khw07vTrn5q0osGOPs4UFFu2Tsa1SdE-42tXNTqyYg9B7fQPgELe9Nmk05OKqGzNS9ed2NOE5L4M6MinBdehXD7RhTiLLHLxV8QX9FB02AZLDNnCMKrUdtABgd5PRUEQ9EaawnAPYbmn4EO7VQJ0qvBtdkzC3oAjvCJ2o1gtgbN5pxhQ3_0m00?></g></svg>