<?plantuml 1.2026.1?><svg xmlns="http://www.w3.org/2000/svg" xmlns:xlink="http://www.w3.org/1999/xlink" contentStyleType="text/css" data-diagram-type="SEQUENCE" height="1301px" preserveAspectRatio="none" style="width:1183px;height:1301px;background:#FCFCFD;" version="1.1" viewBox="0 0 1183 1301" width="1183px" zoomAndPan="magnify"><title>Sequence - core/CoreComputeGpuMemoryFabrics</title><defs/><g><rect fill="#FCFCFD" height="1301" style="stroke:none;stroke-width:1;" width="1183" x="0" y="0"/><text fill="#000000" font-family="Helvetica" font-size="14" font-weight="bold" lengthAdjust="spacing" textLength="336.0752" x="420.9824" y="25.7803">Sequence - core/CoreComputeGpuMemoryFabrics</text><rect fill="none" height="86" rx="8" ry="8" style="stroke:#CBD5E1;stroke-width:1.5;" width="415.4956" x="741.6138" y="347"/><rect fill="none" height="204" rx="8" ry="8" style="stroke:#CBD5E1;stroke-width:1.5;" width="435.4956" x="731.6138" y="447"/><rect fill="none" height="44" rx="8" ry="8" style="stroke:#CBD5E1;stroke-width:1.5;" width="415.4956" x="741.6138" y="498"/><rect fill="none" height="44" rx="8" ry="8" style="stroke:#CBD5E1;stroke-width:1.5;" width="415.4956" x="741.6138" y="600"/><rect fill="none" height="116" rx="8" ry="8" style="stroke:#CBD5E1;stroke-width:1.5;" width="435.4956" x="731.6138" y="665"/><rect fill="none" height="58" rx="8" ry="8" style="stroke:#CBD5E1;stroke-width:1.5;" width="415.4956" x="741.6138" y="716"/><g class="participant-lifeline" data-entity-uid="part1" data-qualified-name="Kubernetes" id="part1-lifeline"><g><title>Kubernetes</title><rect fill="#000000" fill-opacity="0.00000" height="1180" width="8" x="39.8032" y="114"/><line style="stroke:#94A3B8;stroke-width:0.5;stroke-dasharray:5,5;" x1="43" x2="43" y1="114" y2="1294"/></g></g><g class="participant-lifeline" data-entity-uid="part2" data-qualified-name="Controller" id="part2-lifeline"><g><title>Controller</title><rect fill="#000000" fill-opacity="0.00000" height="1180" width="8" x="332.2642" y="114"/><line style="stroke:#94A3B8;stroke-width:0.5;stroke-dasharray:5,5;" x1="335.9194" x2="335.9194" y1="114" y2="1294"/></g></g><g class="participant-lifeline" data-entity-uid="part3" data-qualified-name="BaseReconciler" id="part3-lifeline"><g><title>BaseReconciler</title><rect fill="#000000" fill-opacity="0.00000" height="1180" width="8" x="571.0903" y="114"/><line style="stroke:#94A3B8;stroke-width:0.5;stroke-dasharray:5,5;" x1="575.0664" x2="575.0664" y1="114" y2="1294"/></g></g><g class="participant-lifeline" data-entity-uid="part4" data-qualified-name="ServiceManager" id="part4-lifeline"><g><title>OSOKServiceManager</title><rect fill="#000000" fill-opacity="0.00000" height="1180" width="8" x="825.8101" y="114"/><line style="stroke:#94A3B8;stroke-width:0.5;stroke-dasharray:5,5;" x1="829.6138" x2="829.6138" y1="114" y2="1294"/></g></g><g class="participant-lifeline" data-entity-uid="part5" data-qualified-name="OCI" id="part5-lifeline"><g><title>OCI</title><rect fill="#000000" fill-opacity="0.00000" height="1180" width="8" x="1123.6646" y="114"/><line style="stroke:#94A3B8;stroke-width:0.5;stroke-dasharray:5,5;" x1="1127.2197" x2="1127.2197" y1="114" y2="1294"/></g></g><g class="participant participant-head" data-entity-uid="part1" data-qualified-name="Kubernetes" id="part1-head"><text fill="#000000" font-family="Helvetica" font-size="14" lengthAdjust="spacing" textLength="71.6064" x="5" y="110.7803">Kubernetes</text><ellipse cx="43.8032" cy="48.5" fill="#E2E8F0" rx="8" ry="8" style="stroke:#0F172A;stroke-width:0.5;"/><path d="M43.8032,56.5 L43.8032,83.5 M30.8032,64.5 L56.8032,64.5 M43.8032,83.5 L30.8032,98.5 M43.8032,83.5 L56.8032,98.5" fill="none" style="stroke:#0F172A;stroke-width:0.5;"/></g><g class="participant participant-head" data-entity-uid="part2" data-qualified-name="Controller" id="part2-head"><rect fill="#E2E8F0" height="28" rx="8" ry="8" style="stroke:#0F172A;stroke-width:0.5;" width="74.6895" x="298.9194" y="85"/><text fill="#0F172A" font-family="Helvetica" font-size="14" lengthAdjust="spacing" textLength="60.6895" x="305.9194" y="102.7803">Controller</text></g><g class="participant participant-head" data-entity-uid="part3" data-qualified-name="BaseReconciler" id="part3-head"><rect fill="#E2E8F0" height="28" rx="8" ry="8" style="stroke:#0F172A;stroke-width:0.5;" width="112.0479" x="519.0664" y="85"/><text fill="#0F172A" font-family="Helvetica" font-size="14" lengthAdjust="spacing" textLength="98.0479" x="526.0664" y="102.7803">BaseReconciler</text></g><g class="participant participant-head" data-entity-uid="part4" data-qualified-name="ServiceManager" id="part4-head"><rect fill="#E2E8F0" height="28" rx="8" ry="8" style="stroke:#0F172A;stroke-width:0.5;" width="156.3926" x="751.6138" y="85"/><text fill="#0F172A" font-family="Helvetica" font-size="14" lengthAdjust="spacing" textLength="142.3926" x="758.6138" y="102.7803">OSOKServiceManager</text></g><g class="participant participant-head" data-entity-uid="part5" data-qualified-name="OCI" id="part5-head"><rect fill="#E2E8F0" height="28" rx="8" ry="8" style="stroke:#0F172A;stroke-width:0.5;" width="38.8896" x="1108.2197" y="85"/><text fill="#0F172A" font-family="Helvetica" font-size="14" lengthAdjust="spacing" textLength="24.8896" x="1115.2197" y="102.7803">OCI</text></g><path d="M510,137 L510,187 A8,8 0 0 0 518,195 L885,195 A8,8 0 0 0 893,187 L893,139 L883,129 L518,129 A8,8 0 0 0 510,137" fill="#FFF7D6" style="stroke:#B45309;stroke-width:0.5;"/><path d="M883,129 L883,135 A4,4 0 0 0 887,139 L893,139 L883,129" fill="#FFF7D6" style="stroke:#B45309;stroke-width:0.5;"/><text fill="#334155" font-family="Helvetica" font-size="14" lengthAdjust="spacing" textLength="111.2891" x="543.7742" y="144.7803">shared resolution:</text><text fill="#334155" font-family="Helvetica" font-size="14" lengthAdjust="spacing" textLength="307.3916" x="543.7742" y="158.7803">shared/diagrams/shared-resolution-sequence.svg</text><text fill="#334155" font-family="Helvetica" font-size="14" lengthAdjust="spacing" textLength="88.7305" x="543.7742" y="172.7803">shared delete:</text><text fill="#334155" font-family="Helvetica" font-size="14" lengthAdjust="spacing" textLength="284.833" x="543.7742" y="186.7803">shared/diagrams/shared-delete-sequence.svg</text><g class="message" data-entity-1="part1" data-entity-2="part2" id="msg1"><polygon fill="#0F172A" points="324.2642,230,334.2642,234,324.2642,238,328.2642,234" style="stroke:#0F172A;stroke-width:1;"/><line style="stroke:#0F172A;stroke-width:1;" x1="43.8032" x2="330.2642" y1="234" y2="234"/><text fill="#000000" font-family="Helvetica" font-size="14" lengthAdjust="spacing" textLength="268.4609" x="50.8032" y="214.7803">enqueue CoreComputeGpuMemoryFabrics</text><text fill="#000000" font-family="Helvetica" font-size="14" lengthAdjust="spacing" textLength="56.0273" x="50.8032" y="228.7803">reconcile</text></g><g class="message" data-entity-1="part2" data-entity-2="part3" id="msg2"><polygon fill="#0F172A" points="563.0903,258,573.0903,262,563.0903,266,567.0903,262" style="stroke:#0F172A;stroke-width:1;"/><line style="stroke:#0F172A;stroke-width:1;" x1="336.2642" x2="569.0903" y1="262" y2="262"/><text fill="#000000" font-family="Helvetica" font-size="14" lengthAdjust="spacing" textLength="117.4961" x="343.2642" y="256.7803">Reconcile(request)</text></g><g class="message" data-entity-1="part3" data-entity-2="part4" id="msg3"><polygon fill="#0F172A" points="817.8101,300,827.8101,304,817.8101,308,821.8101,304" style="stroke:#0F172A;stroke-width:1;"/><line style="stroke:#0F172A;stroke-width:1;" x1="575.0903" x2="823.8101" y1="304" y2="304"/><text fill="#000000" font-family="Helvetica" font-size="14" lengthAdjust="spacing" textLength="105.834" x="582.0903" y="284.7803">reconcile desired</text><text fill="#000000" font-family="Helvetica" font-size="14" lengthAdjust="spacing" textLength="210.0684" x="582.0903" y="298.7803">CoreComputeGpuMemoryFabrics</text></g><g class="message" data-entity-1="part4" data-entity-2="part5" id="msg4"><polygon fill="#0F172A" points="1115.6646,328,1125.6646,332,1115.6646,336,1119.6646,332" style="stroke:#0F172A;stroke-width:1;"/><line style="stroke:#0F172A;stroke-width:1;" x1="829.8101" x2="1121.6646" y1="332" y2="332"/><text fill="#000000" font-family="Helvetica" font-size="14" lengthAdjust="spacing" textLength="232.6338" x="836.8101" y="326.7803">GetCoreComputeGpuMemoryFabrics</text></g><path d="M749.6138,347 L808.3794,347 L808.3794,353 L798.3794,363 L741.6138,363 L741.6138,355 A8,8 0 0 1 749.6138,347" fill="#F8FAFC" style="stroke:#CBD5E1;stroke-width:1.5;"/><rect fill="none" height="86" rx="8" ry="8" style="stroke:#CBD5E1;stroke-width:1.5;" width="415.4956" x="741.6138" y="347"/><text fill="#000000" font-family="Helvetica" font-size="14" font-weight="bold" lengthAdjust="spacing" textLength="21.7656" x="756.6138" y="358.7803">opt</text><text fill="#000000" font-family="Helvetica" font-size="14" font-weight="bold" lengthAdjust="spacing" textLength="135.3516" x="823.3794" y="359.7803">[list lookup fallback]</text><g class="message" data-entity-1="part4" data-entity-2="part5" id="msg5"><polygon fill="#0F172A" points="1115.6646,393,1125.6646,397,1115.6646,401,1119.6646,397" style="stroke:#0F172A;stroke-width:1;"/><line style="stroke:#0F172A;stroke-width:1;" x1="829.8101" x2="1121.6646" y1="397" y2="397"/><text fill="#000000" font-family="Helvetica" font-size="14" lengthAdjust="spacing" textLength="273.8545" x="836.8101" y="377.7803">ListCoreComputeGpuMemoryFabrics(filters:</text><text fill="#000000" font-family="Helvetica" font-size="14" lengthAdjust="spacing" textLength="143.1719" x="836.8101" y="391.7803">compartment_id, state)</text></g><g class="message" data-entity-1="part5" data-entity-2="part4" id="msg6"><polygon fill="#0F172A" points="840.8101,421,830.8101,425,840.8101,429,836.8101,425" style="stroke:#0F172A;stroke-width:1;"/><line style="stroke:#0F172A;stroke-width:1;stroke-dasharray:2,2;" x1="834.8101" x2="1126.6646" y1="425" y2="425"/><text fill="#000000" font-family="Helvetica" font-size="14" lengthAdjust="spacing" textLength="156.3994" x="846.8101" y="419.7803">matching collection items</text></g><path d="M739.6138,447 L792.9517,447 L792.9517,453 L782.9517,463 L731.6138,463 L731.6138,455 A8,8 0 0 1 739.6138,447" fill="#F8FAFC" style="stroke:#CBD5E1;stroke-width:1.5;"/><rect fill="none" height="204" rx="8" ry="8" style="stroke:#CBD5E1;stroke-width:1.5;" width="435.4956" x="731.6138" y="447"/><text fill="#000000" font-family="Helvetica" font-size="14" font-weight="bold" lengthAdjust="spacing" textLength="16.3379" x="746.6138" y="458.7803">alt</text><text fill="#000000" font-family="Helvetica" font-size="14" font-weight="bold" lengthAdjust="spacing" textLength="135.3447" x="807.9517" y="459.7803">[create or bind path]</text><g class="message" data-entity-1="part4" data-entity-2="part5" id="msg7"><polygon fill="#0F172A" points="1115.6646,479,1125.6646,483,1115.6646,487,1119.6646,483" style="stroke:#0F172A;stroke-width:1;"/><line style="stroke:#0F172A;stroke-width:1;" x1="829.8101" x2="1121.6646" y1="483" y2="483"/><text fill="#000000" font-family="Helvetica" font-size="14" lengthAdjust="spacing" textLength="252.0889" x="836.8101" y="477.7803">CreateCoreComputeGpuMemoryFabrics</text></g><path d="M749.6138,498 L816.1587,498 L816.1587,504 L806.1587,514 L741.6138,514 L741.6138,506 A8,8 0 0 1 749.6138,498" fill="#F8FAFC" style="stroke:#CBD5E1;stroke-width:1.5;"/><rect fill="none" height="44" rx="8" ry="8" style="stroke:#CBD5E1;stroke-width:1.5;" width="415.4956" x="741.6138" y="498"/><text fill="#000000" font-family="Helvetica" font-size="14" font-weight="bold" lengthAdjust="spacing" textLength="29.5449" x="756.6138" y="509.7803">loop</text><text fill="#000000" font-family="Helvetica" font-size="14" font-weight="bold" lengthAdjust="spacing" textLength="215.4756" x="831.1587" y="510.7803">[create pending PROVISIONING]</text><g class="message" data-entity-1="part4" data-entity-2="part5" id="msg8"><polygon fill="#0F172A" points="1115.6646,530,1125.6646,534,1115.6646,538,1119.6646,534" style="stroke:#0F172A;stroke-width:1;"/><line style="stroke:#0F172A;stroke-width:1;" x1="829.8101" x2="1121.6646" y1="534" y2="534"/><text fill="#000000" font-family="Helvetica" font-size="14" lengthAdjust="spacing" textLength="232.6338" x="836.8101" y="528.7803">GetCoreComputeGpuMemoryFabrics</text></g><line style="stroke:#CBD5E1;stroke-width:1;stroke-dasharray:2,2;" x1="731.6138" x2="1167.1094" y1="550" y2="550"/><text fill="#000000" font-family="Helvetica" font-size="14" font-weight="bold" lengthAdjust="spacing" textLength="137.6484" x="736.6138" y="560.7803">[update or drift path]</text><g class="message" data-entity-1="part4" data-entity-2="part5" id="msg9"><polygon fill="#0F172A" points="1115.6646,581,1125.6646,585,1115.6646,589,1119.6646,585" style="stroke:#0F172A;stroke-width:1;"/><line style="stroke:#0F172A;stroke-width:1;" x1="829.8101" x2="1121.6646" y1="585" y2="585"/><text fill="#000000" font-family="Helvetica" font-size="14" lengthAdjust="spacing" textLength="255.2129" x="836.8101" y="579.7803">UpdateCoreComputeGpuMemoryFabrics</text></g><path d="M749.6138,600 L816.1587,600 L816.1587,606 L806.1587,616 L741.6138,616 L741.6138,608 A8,8 0 0 1 749.6138,600" fill="#F8FAFC" style="stroke:#CBD5E1;stroke-width:1.5;"/><rect fill="none" height="44" rx="8" ry="8" style="stroke:#CBD5E1;stroke-width:1.5;" width="415.4956" x="741.6138" y="600"/><text fill="#000000" font-family="Helvetica" font-size="14" font-weight="bold" lengthAdjust="spacing" textLength="29.5449" x="756.6138" y="611.7803">loop</text><text fill="#000000" font-family="Helvetica" font-size="14" font-weight="bold" lengthAdjust="spacing" textLength="190.5381" x="831.1587" y="612.7803">[update pending UPDATING]</text><g class="message" data-entity-1="part4" data-entity-2="part5" id="msg10"><polygon fill="#0F172A" points="1115.6646,632,1125.6646,636,1115.6646,640,1119.6646,636" style="stroke:#0F172A;stroke-width:1;"/><line style="stroke:#0F172A;stroke-width:1;" x1="829.8101" x2="1121.6646" y1="636" y2="636"/><text fill="#000000" font-family="Helvetica" font-size="14" lengthAdjust="spacing" textLength="232.6338" x="836.8101" y="630.7803">GetCoreComputeGpuMemoryFabrics</text></g><path d="M739.6138,665 L798.3794,665 L798.3794,671 L788.3794,681 L731.6138,681 L731.6138,673 A8,8 0 0 1 739.6138,665" fill="#F8FAFC" style="stroke:#CBD5E1;stroke-width:1.5;"/><rect fill="none" height="116" rx="8" ry="8" style="stroke:#CBD5E1;stroke-width:1.5;" width="435.4956" x="731.6138" y="665"/><text fill="#000000" font-family="Helvetica" font-size="14" font-weight="bold" lengthAdjust="spacing" textLength="21.7656" x="746.6138" y="676.7803">opt</text><text fill="#000000" font-family="Helvetica" font-size="14" font-weight="bold" lengthAdjust="spacing" textLength="120.5859" x="813.3794" y="677.7803">[delete requested]</text><g class="message" data-entity-1="part4" data-entity-2="part5" id="msg11"><polygon fill="#0F172A" points="1115.6646,697,1125.6646,701,1115.6646,705,1119.6646,701" style="stroke:#0F172A;stroke-width:1;"/><line style="stroke:#0F172A;stroke-width:1;" x1="829.8101" x2="1121.6646" y1="701" y2="701"/><text fill="#000000" font-family="Helvetica" font-size="14" lengthAdjust="spacing" textLength="250.5371" x="836.8101" y="695.7803">DeleteCoreComputeGpuMemoryFabrics</text></g><path d="M749.6138,716 L816.1587,716 L816.1587,722 L806.1587,732 L741.6138,732 L741.6138,724 A8,8 0 0 1 749.6138,716" fill="#F8FAFC" style="stroke:#CBD5E1;stroke-width:1.5;"/><rect fill="none" height="58" rx="8" ry="8" style="stroke:#CBD5E1;stroke-width:1.5;" width="415.4956" x="741.6138" y="716"/><text fill="#000000" font-family="Helvetica" font-size="14" font-weight="bold" lengthAdjust="spacing" textLength="29.5449" x="756.6138" y="727.7803">loop</text><text fill="#000000" font-family="Helvetica" font-size="14" font-weight="bold" lengthAdjust="spacing" textLength="213.124" x="831.1587" y="728.7803">[delete confirmation DELETING]</text><g class="message" data-entity-1="part4" data-entity-2="part5" id="msg12"><polygon fill="#0F172A" points="1115.6646,762,1125.6646,766,1115.6646,770,1119.6646,766" style="stroke:#0F172A;stroke-width:1;"/><line style="stroke:#0F172A;stroke-width:1;" x1="829.8101" x2="1121.6646" y1="766" y2="766"/><text fill="#000000" font-family="Helvetica" font-size="14" lengthAdjust="spacing" textLength="248.9717" x="836.8101" y="746.7803">GetCoreComputeGpuMemoryFabrics or</text><text fill="#000000" font-family="Helvetica" font-size="14" lengthAdjust="spacing" textLength="231.8545" x="836.8101" y="760.7803">ListCoreComputeGpuMemoryFabrics</text></g><g class="message" data-entity-1="part4" data-entity-2="part3" id="msg13"><polygon fill="#0F172A" points="586.0903,818,576.0903,822,586.0903,826,582.0903,822" style="stroke:#0F172A;stroke-width:1;"/><line style="stroke:#0F172A;stroke-width:1;stroke-dasharray:2,2;" x1="580.0903" x2="828.8101" y1="822" y2="822"/><text fill="#000000" font-family="Helvetica" font-size="14" lengthAdjust="spacing" textLength="100.7822" x="592.0903" y="802.7803">status=required,</text><text fill="#000000" font-family="Helvetica" font-size="14" lengthAdjust="spacing" textLength="230.7197" x="592.0903" y="816.7803">finalizer=retain-until-confirmed-delete</text></g><g class="message" data-entity-1="part3" data-entity-2="part2" id="msg14"><polygon fill="#0F172A" points="347.2642,860,337.2642,864,347.2642,868,343.2642,864" style="stroke:#0F172A;stroke-width:1;"/><line style="stroke:#0F172A;stroke-width:1;stroke-dasharray:2,2;" x1="341.2642" x2="574.0903" y1="864" y2="864"/><text fill="#000000" font-family="Helvetica" font-size="14" lengthAdjust="spacing" textLength="214.8262" x="353.2642" y="844.7803">requeue on provisioning, updating,</text><text fill="#000000" font-family="Helvetica" font-size="14" lengthAdjust="spacing" textLength="69.2549" x="353.2642" y="858.7803">terminating</text></g><path d="M834,885 L834,1271 A8,8 0 0 0 842,1279 L1166,1279 A8,8 0 0 0 1174,1271 L1174,887 L1164,877 L842,877 A8,8 0 0 0 834,885" fill="#FFF7D6" style="stroke:#B45309;stroke-width:0.5;"/><path d="M1164,877 L1164,883 A4,4 0 0 0 1168,887 L1174,887 L1164,877" fill="#FFF7D6" style="stroke:#B45309;stroke-width:0.5;"/><text fill="#334155" font-family="Helvetica" font-size="14" lengthAdjust="spacing" textLength="101.165" x="840" y="892.7803">shared diagram:</text><text fill="#334155" font-family="Helvetica" font-size="14" lengthAdjust="spacing" textLength="307.3916" x="840" y="906.7803">shared/diagrams/shared-resolution-sequence.svg</text><text fill="#334155" font-family="Helvetica" font-size="14" lengthAdjust="spacing" textLength="143.1992" x="840" y="920.7803">shared delete diagram:</text><text fill="#334155" font-family="Helvetica" font-size="14" lengthAdjust="spacing" textLength="284.833" x="840" y="934.7803">shared/diagrams/shared-delete-sequence.svg</text><text fill="#334155" font-family="Helvetica" font-size="14" lengthAdjust="spacing" textLength="280.9297" x="840" y="948.7803">Start from the shared resolution sequence for</text><text fill="#334155" font-family="Helvetica" font-size="14" lengthAdjust="spacing" textLength="260.7295" x="840" y="962.7803">OCID binding, datasource pagination, and</text><text fill="#334155" font-family="Helvetica" font-size="14" lengthAdjust="spacing" textLength="163.4268" x="840" y="976.7803">create-or-update dispatch.</text><text fill="#334155" font-family="Helvetica" font-size="14" lengthAdjust="spacing" textLength="301.1982" x="840" y="990.7803">Layer the shared delete sequence when finalizer</text><text fill="#334155" font-family="Helvetica" font-size="14" lengthAdjust="spacing" textLength="269.2471" x="840" y="1004.7803">retention, delete confirmation, work-request</text><text fill="#334155" font-family="Helvetica" font-size="14" lengthAdjust="spacing" textLength="199.2334" x="840" y="1018.7803">polling, or Secret cleanup apply.</text><text fill="#334155" font-family="Helvetica" font-size="14" lengthAdjust="spacing" textLength="281.709" x="840" y="1032.7803">archetype batch: Generated service-manager</text><text fill="#334155" font-family="Helvetica" font-size="14" lengthAdjust="spacing" textLength="266.1504" x="840" y="1046.7803">controllers follow the shared resolution and</text><text fill="#334155" font-family="Helvetica" font-size="14" lengthAdjust="spacing" textLength="259.9297" x="840" y="1060.7803">delete sequences with imported waits and</text><text fill="#334155" font-family="Helvetica" font-size="14" lengthAdjust="spacing" textLength="134.6064" x="840" y="1074.7803">controller-local policy.</text><text fill="#334155" font-family="Helvetica" font-size="14" lengthAdjust="spacing" textLength="79.3584" x="840" y="1088.7803">service: core</text><text fill="#334155" font-family="Helvetica" font-size="14" lengthAdjust="spacing" textLength="229.5439" x="840" y="1102.7803">slug: corecomputegpumemoryfabrics</text><text fill="#334155" font-family="Helvetica" font-size="14" lengthAdjust="spacing" textLength="243.5303" x="840" y="1116.7803">kind: CoreComputeGpuMemoryFabrics</text><text fill="#334155" font-family="Helvetica" font-size="14" lengthAdjust="spacing" textLength="241.2402" x="840" y="1130.7803">archetype: generated-service-manager</text><text fill="#334155" font-family="Helvetica" font-size="14" lengthAdjust="spacing" textLength="156.4063" x="840" y="1144.7803">status/finalizer: required /</text><text fill="#334155" font-family="Helvetica" font-size="14" lengthAdjust="spacing" textLength="174.3027" x="840" y="1158.7803">retain-until-confirmed-delete</text><text fill="#334155" font-family="Helvetica" font-size="14" lengthAdjust="spacing" textLength="272.3984" x="840" y="1172.7803">requeue: provisioning, updating, terminating</text><text fill="#334155" font-family="Helvetica" font-size="14" lengthAdjust="spacing" textLength="295.6816" x="840" y="1186.7803">provider states: create PROVISIONING; update</text><text fill="#334155" font-family="Helvetica" font-size="14" lengthAdjust="spacing" textLength="192.165" x="840" y="1200.7803">UPDATING; delete DELETING</text><text fill="#334155" font-family="Helvetica" font-size="14" lengthAdjust="spacing" textLength="319.04" x="840" y="1214.7803">mutable/forceNew: display_name / compartment_id</text><text fill="#334155" font-family="Helvetica" font-size="14" lengthAdjust="spacing" textLength="104.3164" x="840" y="1228.7803">open gaps: none</text><text fill="#334155" font-family="Helvetica" font-size="14" lengthAdjust="spacing" textLength="224.9023" x="840" y="1242.7803">Scaffold metadata only; replace with</text><text fill="#334155" font-family="Helvetica" font-size="14" lengthAdjust="spacing" textLength="244.3232" x="840" y="1256.7803">controller-specific runtime states before</text><text fill="#334155" font-family="Helvetica" font-size="14" lengthAdjust="spacing" textLength="66.1445" x="840" y="1270.7803">promotion.</text><?plantuml-src fLRlRzis4Fskl-BGVMa1AuwRf4qLRC3gj5dGD2dgTPyC53HraebG94TIyRoX_tkF-cN9iPsXHH335e-FxzsxEz7T2sMOPGMu9KlrIgWSCYOTHgvRMJ1-drjTgdIgfRRmIyRfB-r5f9YnKlhtMlbRLY3yWV81lU1iTynC_8imEUqjCclrga4_pYQlN_PtAktnxICEMVOwVRKTfMsAjebOd9wT7B_PYWZ7D-id9wUJixFUUWNFjLLeOV8gyi9BX1d-NQBY237G4ewdz37LXIazNfdo8nRQhj-pXHNSHKkH8cHQ-uN-fuVhMeZ_8W36lRO3detUTcbRABx4y-oObWcCKYeCKtxt_dx0_q7fvQB3a2B36w66cNnpoauMvxGQ8CrWYI_ICvnqIuzSEizOngDlKQKDFfGBfFHwT56F1qo9YDLIeXqyViiSVaQk5HVRIy_kPdSVPcWV1CUFJB4SxJDW3eQF1blkfjTHg03G3-Jl47kqjOzwmM8A5fsMfHTQ9SsZSIfOJfwwSVqxteJ4hSr7xY5l4LAKf7Rlxdfvk1DLMbLgj4aMnB_rSfG0Aeel4GxKubpPLbsqsHg0XieJwBu_ju66yo-YOKZODCnF0XquANI2fCpLeSOORW-0v4O2L-WFxTB6Kpqw-j3wlZHXBiamY_R1tL3i0RpdcP0UhKlcYbC4bKQ1odyLwGYSPnvVH8G2yGwr1VDy6IOZ3rdamMqG7WiNp8gOzC0jib1Q5XQ2_3FCB_Und5QXXtIJNDCY6ZeXdFpfyzrVrxFhkzlhswiVJ6VWYZJPeJHfGpQr8lC7sNwfOfzasq2sRBzyklpzpvzaIl-X0EeMWQOsCTq7ULd5FKcqWQFgpOGbNuELb-zktlquMyhZN3rHUfsYxHDsz6EenTBz6WI7nXhDYQbYabwPbXvw9bHSAYzat6ZeniYZjjsQ6bKAQMgGOcFrWt2adSmQrUQ5RtD5_L7GQU5NFIojo9SUT0Qx9sGpq7vkF3w9icjCpZmrC6HM5-2N28yczkQjcsaRElkoQirACCbbJfUM5WtBAxrQZO2HGNNRnTh6JKcdmfdG_aVH3LjJLdk7DUoxWrPBLD2P5P5PD5ygv1rLDuALjlTnKzUH8PCgRjILCoGMD5CaCaLZZnaZrqSHito9VcsGxcF49vGbNLI8OaeCAc_YeZ67TwuxKY-bNkt9KL2yfSB1IlWbYC9e6x1NJ7XNfwP3ZQNcJ09n5foODSSdrGKfShBCww-yReRSb4NL35dJ37GnIfD3Bw-DrWJoLcMyhR9kb76NyBh2Gy_0E3hSAKqh9FiQ0VfzKCNGZQT-IxYa7StzaNpHJC2edNmNhUVTS2bApnOInrIE76znbLIb9TdwgmfNvZ4CNqeq_AYQScReGAKLHZFECZ8pXOAaXGgcHfRh2n9D8A7woBQ-HyuW5vdWO4CIw8IQFYmm2pQHgaA78ZZgRXpV0G00?></g></svg>