<?plantuml 1.2026.1?><svg xmlns="http://www.w3.org/2000/svg" xmlns:xlink="http://www.w3.org/1999/xlink" contentStyleType="text/css" data-diagram-type="ACTIVITY" height="1469px" preserveAspectRatio="none" style="width:857px;height:1469px;background:#FCFCFD;" version="1.1" viewBox="0 0 857 1469" width="857px" zoomAndPan="magnify"><title>Activity - databasemanagement/DatabaseManagementManagedDatabaseSqlTuningSet</title><defs/><g><rect fill="#FCFCFD" height="1469" style="stroke:none;stroke-width:1;" width="857" x="0" y="0"/><g class="title" data-source-line="10"><text fill="#000000" font-family="Helvetica" font-size="14" font-weight="bold" lengthAdjust="spacing" textLength="574.9297" x="139.6294" y="30.7803">Activity - databasemanagement/DatabaseManagementManagedDatabaseSqlTuningSet</text></g><ellipse cx="429.3752" cy="55" fill="#1D4ED8" rx="10" ry="10" style="stroke:#222222;stroke-width:1;"/><rect fill="#F8FAFC" height="48" rx="8" ry="8" style="stroke:#0F172A;stroke-width:0.5;" width="304.7852" x="276.9827" y="85"/><text fill="#0F172A" font-family="Helvetica" font-size="14" lengthAdjust="spacing" textLength="136.9375" x="286.9827" y="105.7803">Start from shared flow</text><text fill="#0F172A" font-family="Helvetica" font-size="14" lengthAdjust="spacing" textLength="284.7852" x="286.9827" y="119.7803">shared/diagrams/shared-reconcile-activity.svg</text><rect fill="#F8FAFC" height="62" rx="8" ry="8" style="stroke:#0F172A;stroke-width:0.5;" width="364.0117" x="247.3694" y="153"/><text fill="#0F172A" font-family="Helvetica" font-size="14" lengthAdjust="spacing" textLength="80.9512" x="257.3694" y="173.7803">Load desired</text><text fill="#0F172A" font-family="Helvetica" font-size="14" lengthAdjust="spacing" textLength="344.0117" x="257.3694" y="187.7803">DatabaseManagementManagedDatabaseSqlTuningSet</text><text fill="#0F172A" font-family="Helvetica" font-size="14" lengthAdjust="spacing" textLength="205.4473" x="257.3694" y="201.7803">spec and status from Kubernetes</text><rect fill="#F8FAFC" height="90" rx="8" ry="8" style="stroke:#0F172A;stroke-width:0.5;" width="386.5771" x="236.0867" y="235"/><text fill="#0F172A" font-family="Helvetica" font-size="14" lengthAdjust="spacing" textLength="135.3857" x="246.0867" y="255.7803">Resolve OCI state via</text><text fill="#0F172A" font-family="Helvetica" font-size="14" lengthAdjust="spacing" textLength="366.5771" x="246.0867" y="269.7803">GetDatabaseManagementManagedDatabaseSqlTuningSet</text><text fill="#0F172A" font-family="Helvetica" font-size="14" lengthAdjust="spacing" textLength="24.8965" x="246.0867" y="283.7803">with</text><text fill="#0F172A" font-family="Helvetica" font-size="14" lengthAdjust="spacing" textLength="365.7979" x="246.0867" y="297.7803">ListDatabaseManagementManagedDatabaseSqlTuningSet</text><text fill="#0F172A" font-family="Helvetica" font-size="14" lengthAdjust="spacing" textLength="47.4688" x="246.0867" y="311.7803">fallback</text><rect fill="#F8FAFC" height="76" rx="8" ry="8" style="stroke:#0F172A;stroke-width:0.5;" width="553.1689" x="152.7908" y="345"/><text fill="#0F172A" font-family="Helvetica" font-size="14" lengthAdjust="spacing" textLength="24.8965" x="162.7908" y="365.7803">Use</text><text fill="#0F172A" font-family="Helvetica" font-size="14" lengthAdjust="spacing" textLength="533.1689" x="162.7908" y="379.7803">scaffold_databasemanagement_databasemanagementmanageddatabasesqltuningset</text><text fill="#0F172A" font-family="Helvetica" font-size="14" lengthAdjust="spacing" textLength="297.2402" x="162.7908" y="393.7803">filters compartment_id, state when OCID lookup</text><text fill="#0F172A" font-family="Helvetica" font-size="14" lengthAdjust="spacing" textLength="259.9023" x="162.7908" y="407.7803">or bind-versus-create needs list resolution</text><polygon fill="#E2E8F0" points="375.6858,441,483.0647,441,495.0647,453,483.0647,465,375.6858,465,363.6858,453,375.6858,441" style="stroke:#1D4ED8;stroke-width:0.5;"/><text fill="#0F172A" font-family="Helvetica" font-size="14" lengthAdjust="spacing" textLength="107.3789" x="375.6858" y="456.7803">Resource exists?</text><text fill="#000000" font-family="Helvetica" font-size="14" lengthAdjust="spacing" textLength="21.7861" x="341.8997" y="449.7803">yes</text><text fill="#000000" font-family="Helvetica" font-size="14" lengthAdjust="spacing" textLength="15.5723" x="495.0647" y="449.7803">no</text><rect fill="#F8FAFC" height="48" rx="8" ry="8" style="stroke:#0F172A;stroke-width:0.5;" width="409.1563" x="11" y="475"/><text fill="#0F172A" font-family="Helvetica" font-size="14" lengthAdjust="spacing" textLength="108.1787" x="21" y="495.7803">Update path calls</text><text fill="#0F172A" font-family="Helvetica" font-size="14" lengthAdjust="spacing" textLength="389.1563" x="21" y="509.7803">UpdateDatabaseManagementManagedDatabaseSqlTuningSet</text><rect fill="#F8FAFC" height="48" rx="8" ry="8" style="stroke:#0F172A;stroke-width:0.5;" width="266.7021" x="82.2271" y="543"/><text fill="#0F172A" font-family="Helvetica" font-size="14" lengthAdjust="spacing" textLength="246.7021" x="92.2271" y="563.7803">Guard mutable fields display_name and</text><text fill="#0F172A" font-family="Helvetica" font-size="14" lengthAdjust="spacing" textLength="202.3096" x="92.2271" y="577.7803">force-new fields compartment_id</text><rect fill="#F8FAFC" height="48" rx="8" ry="8" style="stroke:#0F172A;stroke-width:0.5;" width="406.0322" x="440.1563" y="475"/><text fill="#0F172A" font-family="Helvetica" font-size="14" lengthAdjust="spacing" textLength="105.0547" x="450.1563" y="495.7803">Create path calls</text><text fill="#0F172A" font-family="Helvetica" font-size="14" lengthAdjust="spacing" textLength="386.0322" x="450.1563" y="509.7803">CreateDatabaseManagementManagedDatabaseSqlTuningSet</text><polygon fill="#E2E8F0" points="429.3752,597,441.3752,609,429.3752,621,417.3752,609,429.3752,597" style="stroke:#1D4ED8;stroke-width:0.5;"/><rect fill="#F8FAFC" height="104" rx="8" ry="8" style="stroke:#0F172A;stroke-width:0.5;" width="334.3164" x="262.217" y="641"/><text fill="#0F172A" font-family="Helvetica" font-size="14" lengthAdjust="spacing" textLength="164.2061" x="272.217" y="661.7803">Run provider helper hooks</text><text fill="#0F172A" font-family="Helvetica" font-size="14" lengthAdjust="spacing" textLength="219.0508" x="272.217" y="675.7803">create=tfresource.CreateResource,</text><text fill="#0F172A" font-family="Helvetica" font-size="14" lengthAdjust="spacing" textLength="314.3164" x="272.217" y="689.7803">tfresource.WaitForWorkRequestWithErrorHandling</text><text fill="#0F172A" font-family="Helvetica" font-size="14" lengthAdjust="spacing" textLength="215.5439" x="272.217" y="703.7803">entity=template action=CREATED;</text><text fill="#0F172A" font-family="Helvetica" font-size="14" lengthAdjust="spacing" textLength="226.085" x="272.217" y="717.7803">update=tfresource.UpdateResource;</text><text fill="#0F172A" font-family="Helvetica" font-size="14" lengthAdjust="spacing" textLength="212.8438" x="272.217" y="731.7803">delete=tfresource.DeleteResource</text><rect fill="#F8FAFC" height="34" rx="8" ry="8" style="stroke:#0F172A;stroke-width:0.5;" width="263.5918" x="297.5793" y="765"/><text fill="#0F172A" font-family="Helvetica" font-size="14" lengthAdjust="spacing" textLength="243.5918" x="307.5793" y="785.7803">Apply repo-authored secret policy none</text><rect fill="#F8FAFC" height="118" rx="8" ry="8" style="stroke:#0F172A;stroke-width:0.5;" width="404.4805" x="227.135" y="819"/><text fill="#0F172A" font-family="Helvetica" font-size="14" lengthAdjust="spacing" textLength="105.0684" x="237.135" y="839.7803">Delete path uses</text><text fill="#0F172A" font-family="Helvetica" font-size="14" lengthAdjust="spacing" textLength="384.4805" x="237.135" y="853.7803">DeleteDatabaseManagementManagedDatabaseSqlTuningSet</text><text fill="#0F172A" font-family="Helvetica" font-size="14" lengthAdjust="spacing" textLength="101.9375" x="237.135" y="867.7803">with required via</text><text fill="#0F172A" font-family="Helvetica" font-size="14" lengthAdjust="spacing" textLength="366.5771" x="237.135" y="881.7803">GetDatabaseManagementManagedDatabaseSqlTuningSet</text><text fill="#0F172A" font-family="Helvetica" font-size="14" lengthAdjust="spacing" textLength="12.4482" x="237.135" y="895.7803">or</text><text fill="#0F172A" font-family="Helvetica" font-size="14" lengthAdjust="spacing" textLength="365.7979" x="237.135" y="909.7803">ListDatabaseManagementManagedDatabaseSqlTuningSet</text><text fill="#0F172A" font-family="Helvetica" font-size="14" lengthAdjust="spacing" textLength="160.2822" x="237.135" y="923.7803">to DELETED confirmation</text><rect fill="#F8FAFC" height="48" rx="8" ry="8" style="stroke:#0F172A;stroke-width:0.5;" width="279.1299" x="289.8103" y="957"/><text fill="#0F172A" font-family="Helvetica" font-size="14" lengthAdjust="spacing" textLength="259.1299" x="299.8103" y="977.7803">Project required status and finalizer policy</text><text fill="#0F172A" font-family="Helvetica" font-size="14" lengthAdjust="spacing" textLength="174.3027" x="299.8103" y="991.7803">retain-until-confirmed-delete</text><rect fill="#F8FAFC" height="34" rx="8" ry="8" style="stroke:#0F172A;stroke-width:0.5;" width="313.4189" x="272.6658" y="1025"/><text fill="#0F172A" font-family="Helvetica" font-size="14" lengthAdjust="spacing" textLength="293.4189" x="282.6658" y="1045.7803">Requeue on provisioning, updating, terminating</text><path d="M460.3752,1069 L460.3752,1259 L440.3752,1263 L460.3752,1267 L460.3752,1457 A0,0 0 0 0 460.3752,1457 L825.387,1457 A0,0 0 0 0 825.387,1457 L825.387,1079 L815.387,1069 L460.3752,1069 A0,0 0 0 0 460.3752,1069" fill="#FFF7D6" style="stroke:#B45309;stroke-width:0.5;"/><path d="M815.387,1069 L815.387,1079 L825.387,1079 L815.387,1069" fill="#FFF7D6" style="stroke:#B45309;stroke-width:0.5;"/><text fill="#334155" font-family="Helvetica" font-size="14" lengthAdjust="spacing" textLength="101.165" x="466.3752" y="1084.7803">shared diagram:</text><text fill="#334155" font-family="Helvetica" font-size="14" lengthAdjust="spacing" textLength="284.7852" x="466.3752" y="1098.7803">shared/diagrams/shared-reconcile-activity.svg</text><text fill="#334155" font-family="Helvetica" font-size="14" lengthAdjust="spacing" textLength="265.3438" x="466.3752" y="1112.7803">Start from the shared reconcile activity and</text><text fill="#334155" font-family="Helvetica" font-size="14" lengthAdjust="spacing" textLength="273.8955" x="466.3752" y="1126.7803">specialize provider-backed CRUD, wait, and</text><text fill="#334155" font-family="Helvetica" font-size="14" lengthAdjust="spacing" textLength="182.875" x="466.3752" y="1140.7803">status-projection details here.</text><text fill="#334155" font-family="Helvetica" font-size="14" lengthAdjust="spacing" textLength="229.5371" x="466.3752" y="1154.7803">Controller-local activity diagrams add</text><text fill="#334155" font-family="Helvetica" font-size="14" lengthAdjust="spacing" textLength="238.8955" x="466.3752" y="1168.7803">list-lookup hints, secret policies, delete</text><text fill="#334155" font-family="Helvetica" font-size="14" lengthAdjust="spacing" textLength="200.0332" x="466.3752" y="1182.7803">handling, and open formal gaps.</text><text fill="#334155" font-family="Helvetica" font-size="14" lengthAdjust="spacing" textLength="281.709" x="466.3752" y="1196.7803">archetype batch: Generated service-manager</text><text fill="#334155" font-family="Helvetica" font-size="14" lengthAdjust="spacing" textLength="291.0469" x="466.3752" y="1210.7803">controllers specialize the shared reconcile path</text><text fill="#334155" font-family="Helvetica" font-size="14" lengthAdjust="spacing" textLength="189.8477" x="466.3752" y="1224.7803">with formal runtime ownership.</text><text fill="#334155" font-family="Helvetica" font-size="14" lengthAdjust="spacing" textLength="191.4473" x="466.3752" y="1238.7803">service: databasemanagement</text><text fill="#334155" font-family="Helvetica" font-size="14" lengthAdjust="spacing" textLength="29.5723" x="466.3752" y="1252.7803">slug:</text><text fill="#334155" font-family="Helvetica" font-size="14" lengthAdjust="spacing" textLength="330.0254" x="466.3752" y="1266.7803">databasemanagementmanageddatabasesqltuningset</text><text fill="#334155" font-family="Helvetica" font-size="14" lengthAdjust="spacing" textLength="29.5723" x="466.3752" y="1280.7803">kind:</text><text fill="#334155" font-family="Helvetica" font-size="14" lengthAdjust="spacing" textLength="344.0117" x="466.3752" y="1294.7803">DatabaseManagementManagedDatabaseSqlTuningSet</text><text fill="#334155" font-family="Helvetica" font-size="14" lengthAdjust="spacing" textLength="241.2402" x="466.3752" y="1308.7803">archetype: generated-service-manager</text><text fill="#334155" font-family="Helvetica" font-size="14" lengthAdjust="spacing" textLength="156.4063" x="466.3752" y="1322.7803">status/finalizer: required /</text><text fill="#334155" font-family="Helvetica" font-size="14" lengthAdjust="spacing" textLength="174.3027" x="466.3752" y="1336.7803">retain-until-confirmed-delete</text><text fill="#334155" font-family="Helvetica" font-size="14" lengthAdjust="spacing" textLength="272.3984" x="466.3752" y="1350.7803">requeue: provisioning, updating, terminating</text><text fill="#334155" font-family="Helvetica" font-size="14" lengthAdjust="spacing" textLength="295.6816" x="466.3752" y="1364.7803">provider states: create PROVISIONING; update</text><text fill="#334155" font-family="Helvetica" font-size="14" lengthAdjust="spacing" textLength="192.165" x="466.3752" y="1378.7803">UPDATING; delete DELETING</text><text fill="#334155" font-family="Helvetica" font-size="14" lengthAdjust="spacing" textLength="319.04" x="466.3752" y="1392.7803">mutable/forceNew: display_name / compartment_id</text><text fill="#334155" font-family="Helvetica" font-size="14" lengthAdjust="spacing" textLength="104.3164" x="466.3752" y="1406.7803">open gaps: none</text><text fill="#334155" font-family="Helvetica" font-size="14" lengthAdjust="spacing" textLength="224.9023" x="466.3752" y="1420.7803">Scaffold metadata only; replace with</text><text fill="#334155" font-family="Helvetica" font-size="14" lengthAdjust="spacing" textLength="244.3232" x="466.3752" y="1434.7803">controller-specific runtime states before</text><text fill="#334155" font-family="Helvetica" font-size="14" lengthAdjust="spacing" textLength="66.1445" x="466.3752" y="1448.7803">promotion.</text><ellipse cx="429.3752" cy="1263" fill="none" rx="11" ry="11" style="stroke:#222222;stroke-width:1;"/><ellipse cx="429.3752" cy="1263" fill="#222222" rx="6" ry="6" style="stroke:#222222;stroke-width:1;"/><line style="stroke:#0F172A;stroke-width:1;" x1="429.3752" x2="429.3752" y1="65" y2="85"/><polygon fill="#0F172A" points="425.3752,75,429.3752,85,433.3752,75,429.3752,79" style="stroke:#0F172A;stroke-width:1;"/><line style="stroke:#0F172A;stroke-width:1;" x1="429.3752" x2="429.3752" y1="133" y2="153"/><polygon fill="#0F172A" points="425.3752,143,429.3752,153,433.3752,143,429.3752,147" style="stroke:#0F172A;stroke-width:1;"/><line style="stroke:#0F172A;stroke-width:1;" x1="429.3752" x2="429.3752" y1="215" y2="235"/><polygon fill="#0F172A" points="425.3752,225,429.3752,235,433.3752,225,429.3752,229" style="stroke:#0F172A;stroke-width:1;"/><line style="stroke:#0F172A;stroke-width:1;" x1="429.3752" x2="429.3752" y1="325" y2="345"/><polygon fill="#0F172A" points="425.3752,335,429.3752,345,433.3752,335,429.3752,339" style="stroke:#0F172A;stroke-width:1;"/><line style="stroke:#0F172A;stroke-width:1;" x1="215.5781" x2="215.5781" y1="523" y2="543"/><polygon fill="#0F172A" points="211.5781,533,215.5781,543,219.5781,533,215.5781,537" style="stroke:#0F172A;stroke-width:1;"/><line style="stroke:#0F172A;stroke-width:1;" x1="363.6858" x2="215.5781" y1="453" y2="453"/><line style="stroke:#0F172A;stroke-width:1;" x1="215.5781" x2="215.5781" y1="453" y2="475"/><polygon fill="#0F172A" points="211.5781,465,215.5781,475,219.5781,465,215.5781,469" style="stroke:#0F172A;stroke-width:1;"/><line style="stroke:#0F172A;stroke-width:1;" x1="495.0647" x2="643.1724" y1="453" y2="453"/><line style="stroke:#0F172A;stroke-width:1;" x1="643.1724" x2="643.1724" y1="453" y2="475"/><polygon fill="#0F172A" points="639.1724,465,643.1724,475,647.1724,465,643.1724,469" style="stroke:#0F172A;stroke-width:1;"/><line style="stroke:#0F172A;stroke-width:1;" x1="215.5781" x2="215.5781" y1="591" y2="609"/><line style="stroke:#0F172A;stroke-width:1;" x1="215.5781" x2="417.3752" y1="609" y2="609"/><polygon fill="#0F172A" points="407.3752,605,417.3752,609,407.3752,613,411.3752,609" style="stroke:#0F172A;stroke-width:1;"/><line style="stroke:#0F172A;stroke-width:1;" x1="643.1724" x2="643.1724" y1="523" y2="609"/><line style="stroke:#0F172A;stroke-width:1;" x1="643.1724" x2="441.3752" y1="609" y2="609"/><polygon fill="#0F172A" points="451.3752,605,441.3752,609,451.3752,613,447.3752,609" style="stroke:#0F172A;stroke-width:1;"/><line style="stroke:#0F172A;stroke-width:1;" x1="429.3752" x2="429.3752" y1="421" y2="441"/><polygon fill="#0F172A" points="425.3752,431,429.3752,441,433.3752,431,429.3752,435" style="stroke:#0F172A;stroke-width:1;"/><line style="stroke:#0F172A;stroke-width:1;" x1="429.3752" x2="429.3752" y1="621" y2="641"/><polygon fill="#0F172A" points="425.3752,631,429.3752,641,433.3752,631,429.3752,635" style="stroke:#0F172A;stroke-width:1;"/><line style="stroke:#0F172A;stroke-width:1;" x1="429.3752" x2="429.3752" y1="745" y2="765"/><polygon fill="#0F172A" points="425.3752,755,429.3752,765,433.3752,755,429.3752,759" style="stroke:#0F172A;stroke-width:1;"/><line style="stroke:#0F172A;stroke-width:1;" x1="429.3752" x2="429.3752" y1="799" y2="819"/><polygon fill="#0F172A" points="425.3752,809,429.3752,819,433.3752,809,429.3752,813" style="stroke:#0F172A;stroke-width:1;"/><line style="stroke:#0F172A;stroke-width:1;" x1="429.3752" x2="429.3752" y1="937" y2="957"/><polygon fill="#0F172A" points="425.3752,947,429.3752,957,433.3752,947,429.3752,951" style="stroke:#0F172A;stroke-width:1;"/><line style="stroke:#0F172A;stroke-width:1;" x1="429.3752" x2="429.3752" y1="1005" y2="1025"/><polygon fill="#0F172A" points="425.3752,1015,429.3752,1025,433.3752,1015,429.3752,1019" style="stroke:#0F172A;stroke-width:1;"/><line style="stroke:#0F172A;stroke-width:1;" x1="429.3752" x2="429.3752" y1="1059" y2="1252"/><polygon fill="#0F172A" points="425.3752,1242,429.3752,1252,433.3752,1242,429.3752,1246" style="stroke:#0F172A;stroke-width:1;"/><?plantuml-src dLPDR-Cs4BtpLn3e9GjOThB9xgOoWYArizbWqoI8a-PYO46B8uiDHIeaPTSj-jyx96LPSOoY3domH0xdu_7D6zbdeIfcM4bjmRXU2ZMdEPCMY6rtPYnxdXjTApxIKXlwKvxXZtSiEEIibkwhLkw6bK2_WLo04ndRRJCHVm4zEkbiCcFqil5-c1zz-TWzgRI3Nz_aaETV-ETjAsqucCPYTlBf-F3dBGiVlja_FZuv-lIfin_SPzeeCFJeCt72IQ3dcHCBuLOqePmvDcCMIgRO74fGRZ1kbdvhb-8JNszCNkH3hH3L2RXklMklVnEw0z_JdEMPt-dMq-12QRwfeLtZWfLQyJSmmKSupGyx1bsFH_m4-Ebcy-iEnzOnuxRjeVNVsitObjT_I3XAqed_exdHWMC6ECsbNavLV1bWx3b2OWVnFJ6GQPK92SaQfBvTp8SalTQC8ukiGAkfsWjv35P1HfdYlXvNsvZEzte6UDiEBBg_1wkHjVHsT1MCW2u4cwfBS7k6MWfNJDMriFiUnBwJdWkOpAC5p3bZUQub__6MU3kMuXDVRzWNwO9h6rmBwS1OckaI2UY22y5xJQ7B0fIlUqobrizrDLLuZpEXUBB0GxLDCWFUJW5mIoLMHer7gtP2go4HEJtmwDKc0mf_uhRzvGDrtkd12km7BAVY_dp5N44phD9ELLpQ2o74vR9cXjEonatipLo0n8Iui9Lagn_AIm_UCPQhCPL4mN9jyhhk8G5KE7gWDEOsYhLrSujBU-Q6FI5of56jQ6NqGc2RqG9avVyGLNGRKJnpkMd0wiT0Q-nwKzNPUs82nT8yQVDy3oyrMFU4nBf0eJJVi4Y9SQSAay86ENDG8W9OXMyPhSv6znVd3nVZuLJL0UPkp0ZyEYQQS93mscGSLbeJafvNbLpXdLSwORKhj6zY2rYFevMM8bkXjYfl64z6C6ia8VPfM7b72s6ubzht-dlxK9jtTQ7JT7nnVO7m8MkmSKp98itJEwF_WCnj4ckqnCjABXIJEDPC0yXK8JXCgAJ66v99umdbBQ8Tz0OljGQg6xvO388vz6Yuil24BLkYN_yoH3NL5V4ZZ1enBt2OH2rjv3CbUyafwOWoDkfQc5lZpO32ueWNJn7AQwcTUA724wFxnt6FBf6hlMWQ84cg21MMX8gDE4YBlM2WJqOuOeoM4Zr8ZUss2RHEd3BEYTUO98eHBOHojlUARm9m8I99YgOPGdogArGTRFyINSzPPVk4cQm0jwe0HvJBYfHU0WvuR05FORCGA1HHEWt9skGixTIy4o1FSH9usaGp_gPHWFGItTj2L7tI-4ztV3aGA-jvIlQISOAV3pmb-trpjEMdTBukFDakFDxQe2Lnkk7uWFmdaOc9D4x_3ub9AunXxjYKDeFbxlxszwl9rUtDrStbC9u5ydWtFdy82p5KR4jS88t-3uBCty0oVJq21bjoJm8fF1lIe5DaqWnMMc9f7cbiGhaQUe6J36UOlzOE6PB0XLnaxHt7zEaCC0FmLPNQSxtlXq3upFmN?></g></svg>