<?plantuml 1.2026.1?><svg xmlns="http://www.w3.org/2000/svg" xmlns:xlink="http://www.w3.org/1999/xlink" contentStyleType="text/css" data-diagram-type="ACTIVITY" height="1385px" preserveAspectRatio="none" style="width:711px;height:1385px;background:#FCFCFD;" version="1.1" viewBox="0 0 711 1385" width="711px" zoomAndPan="magnify"><title>Activity - fleetappsmanagement/FleetAppsManagementFleetResources</title><defs/><g><rect fill="#FCFCFD" height="1385" style="stroke:none;stroke-width:1;" width="711" x="0" y="0"/><g class="title" data-source-line="10"><text fill="#000000" font-family="Helvetica" font-size="14" font-weight="bold" lengthAdjust="spacing" textLength="472.2402" x="117.9777" y="30.7803">Activity - fleetappsmanagement/FleetAppsManagementFleetResources</text></g><ellipse cx="328.1555" cy="55" fill="#1D4ED8" rx="10" ry="10" style="stroke:#222222;stroke-width:1;"/><rect fill="#F8FAFC" height="48" rx="8" ry="8" style="stroke:#0F172A;stroke-width:0.5;" width="304.7852" x="175.7629" y="85"/><text fill="#0F172A" font-family="Helvetica" font-size="14" lengthAdjust="spacing" textLength="136.9375" x="185.7629" y="105.7803">Start from shared flow</text><text fill="#0F172A" font-family="Helvetica" font-size="14" lengthAdjust="spacing" textLength="284.7852" x="185.7629" y="119.7803">shared/diagrams/shared-reconcile-activity.svg</text><rect fill="#F8FAFC" height="48" rx="8" ry="8" style="stroke:#0F172A;stroke-width:0.5;" width="347.6328" x="154.3391" y="153"/><text fill="#0F172A" font-family="Helvetica" font-size="14" lengthAdjust="spacing" textLength="327.6328" x="164.3391" y="173.7803">Load desired FleetAppsManagementFleetResources</text><text fill="#0F172A" font-family="Helvetica" font-size="14" lengthAdjust="spacing" textLength="205.4473" x="164.3391" y="187.7803">spec and status from Kubernetes</text><rect fill="#F8FAFC" height="62" rx="8" ry="8" style="stroke:#0F172A;stroke-width:0.5;" width="335.9365" x="160.1873" y="221"/><text fill="#0F172A" font-family="Helvetica" font-size="14" lengthAdjust="spacing" textLength="135.3857" x="170.1873" y="241.7803">Resolve OCI state via</text><text fill="#0F172A" font-family="Helvetica" font-size="14" lengthAdjust="spacing" textLength="294.1436" x="170.1873" y="255.7803">GetFleetAppsManagementFleetResources with</text><text fill="#0F172A" font-family="Helvetica" font-size="14" lengthAdjust="spacing" textLength="315.9365" x="170.1873" y="269.7803">ListFleetAppsManagementFleetResources fallback</text><rect fill="#F8FAFC" height="76" rx="8" ry="8" style="stroke:#0F172A;stroke-width:0.5;" width="448.8252" x="103.7429" y="303"/><text fill="#0F172A" font-family="Helvetica" font-size="14" lengthAdjust="spacing" textLength="24.8965" x="113.7429" y="323.7803">Use</text><text fill="#0F172A" font-family="Helvetica" font-size="14" lengthAdjust="spacing" textLength="428.8252" x="113.7429" y="337.7803">scaffold_fleetappsmanagement_fleetappsmanagementfleetresources</text><text fill="#0F172A" font-family="Helvetica" font-size="14" lengthAdjust="spacing" textLength="297.2402" x="113.7429" y="351.7803">filters compartment_id, state when OCID lookup</text><text fill="#0F172A" font-family="Helvetica" font-size="14" lengthAdjust="spacing" textLength="259.9023" x="113.7429" y="365.7803">or bind-versus-create needs list resolution</text><polygon fill="#E2E8F0" points="274.4661,399,381.845,399,393.845,411,381.845,423,274.4661,423,262.4661,411,274.4661,399" style="stroke:#1D4ED8;stroke-width:0.5;"/><text fill="#0F172A" font-family="Helvetica" font-size="14" lengthAdjust="spacing" textLength="107.3789" x="274.4661" y="414.7803">Resource exists?</text><text fill="#000000" font-family="Helvetica" font-size="14" lengthAdjust="spacing" textLength="21.7861" x="240.6799" y="407.7803">yes</text><text fill="#000000" font-family="Helvetica" font-size="14" lengthAdjust="spacing" textLength="15.5723" x="393.845" y="407.7803">no</text><rect fill="#F8FAFC" height="48" rx="8" ry="8" style="stroke:#0F172A;stroke-width:0.5;" width="307.9365" x="11" y="433"/><text fill="#0F172A" font-family="Helvetica" font-size="14" lengthAdjust="spacing" textLength="108.1787" x="21" y="453.7803">Update path calls</text><text fill="#0F172A" font-family="Helvetica" font-size="14" lengthAdjust="spacing" textLength="287.9365" x="21" y="467.7803">UpdateFleetAppsManagementFleetResources</text><rect fill="#F8FAFC" height="48" rx="8" ry="8" style="stroke:#0F172A;stroke-width:0.5;" width="266.7021" x="31.6172" y="501"/><text fill="#0F172A" font-family="Helvetica" font-size="14" lengthAdjust="spacing" textLength="246.7021" x="41.6172" y="521.7803">Guard mutable fields display_name and</text><text fill="#0F172A" font-family="Helvetica" font-size="14" lengthAdjust="spacing" textLength="202.3096" x="41.6172" y="535.7803">force-new fields compartment_id</text><rect fill="#F8FAFC" height="48" rx="8" ry="8" style="stroke:#0F172A;stroke-width:0.5;" width="304.8125" x="338.9365" y="433"/><text fill="#0F172A" font-family="Helvetica" font-size="14" lengthAdjust="spacing" textLength="105.0547" x="348.9365" y="453.7803">Create path calls</text><text fill="#0F172A" font-family="Helvetica" font-size="14" lengthAdjust="spacing" textLength="284.8125" x="348.9365" y="467.7803">CreateFleetAppsManagementFleetResources</text><polygon fill="#E2E8F0" points="328.1555,555,340.1555,567,328.1555,579,316.1555,567,328.1555,555" style="stroke:#1D4ED8;stroke-width:0.5;"/><rect fill="#F8FAFC" height="104" rx="8" ry="8" style="stroke:#0F172A;stroke-width:0.5;" width="334.3164" x="160.9973" y="599"/><text fill="#0F172A" font-family="Helvetica" font-size="14" lengthAdjust="spacing" textLength="164.2061" x="170.9973" y="619.7803">Run provider helper hooks</text><text fill="#0F172A" font-family="Helvetica" font-size="14" lengthAdjust="spacing" textLength="219.0508" x="170.9973" y="633.7803">create=tfresource.CreateResource,</text><text fill="#0F172A" font-family="Helvetica" font-size="14" lengthAdjust="spacing" textLength="314.3164" x="170.9973" y="647.7803">tfresource.WaitForWorkRequestWithErrorHandling</text><text fill="#0F172A" font-family="Helvetica" font-size="14" lengthAdjust="spacing" textLength="215.5439" x="170.9973" y="661.7803">entity=template action=CREATED;</text><text fill="#0F172A" font-family="Helvetica" font-size="14" lengthAdjust="spacing" textLength="226.085" x="170.9973" y="675.7803">update=tfresource.UpdateResource;</text><text fill="#0F172A" font-family="Helvetica" font-size="14" lengthAdjust="spacing" textLength="212.8438" x="170.9973" y="689.7803">delete=tfresource.DeleteResource</text><rect fill="#F8FAFC" height="34" rx="8" ry="8" style="stroke:#0F172A;stroke-width:0.5;" width="263.5918" x="196.3596" y="723"/><text fill="#0F172A" font-family="Helvetica" font-size="14" lengthAdjust="spacing" textLength="243.5918" x="206.3596" y="743.7803">Apply repo-authored secret policy none</text><rect fill="#F8FAFC" height="104" rx="8" ry="8" style="stroke:#0F172A;stroke-width:0.5;" width="332.0469" x="162.1321" y="777"/><text fill="#0F172A" font-family="Helvetica" font-size="14" lengthAdjust="spacing" textLength="105.0684" x="172.1321" y="797.7803">Delete path uses</text><text fill="#0F172A" font-family="Helvetica" font-size="14" lengthAdjust="spacing" textLength="312.0469" x="172.1321" y="811.7803">DeleteFleetAppsManagementFleetResources with</text><text fill="#0F172A" font-family="Helvetica" font-size="14" lengthAdjust="spacing" textLength="73.1514" x="172.1321" y="825.7803">required via</text><text fill="#0F172A" font-family="Helvetica" font-size="14" lengthAdjust="spacing" textLength="281.6953" x="172.1321" y="839.7803">GetFleetAppsManagementFleetResources or</text><text fill="#0F172A" font-family="Helvetica" font-size="14" lengthAdjust="spacing" textLength="280.1436" x="172.1321" y="853.7803">ListFleetAppsManagementFleetResources to</text><text fill="#0F172A" font-family="Helvetica" font-size="14" lengthAdjust="spacing" textLength="144.7168" x="172.1321" y="867.7803">DELETED confirmation</text><rect fill="#F8FAFC" height="48" rx="8" ry="8" style="stroke:#0F172A;stroke-width:0.5;" width="279.1299" x="188.5906" y="901"/><text fill="#0F172A" font-family="Helvetica" font-size="14" lengthAdjust="spacing" textLength="259.1299" x="198.5906" y="921.7803">Project required status and finalizer policy</text><text fill="#0F172A" font-family="Helvetica" font-size="14" lengthAdjust="spacing" textLength="174.3027" x="198.5906" y="935.7803">retain-until-confirmed-delete</text><rect fill="#F8FAFC" height="34" rx="8" ry="8" style="stroke:#0F172A;stroke-width:0.5;" width="313.4189" x="171.446" y="969"/><text fill="#0F172A" font-family="Helvetica" font-size="14" lengthAdjust="spacing" textLength="293.4189" x="181.446" y="989.7803">Requeue on provisioning, updating, terminating</text><path d="M359.1555,1013 L359.1555,1189 L339.1555,1193 L359.1555,1197 L359.1555,1373 A0,0 0 0 0 359.1555,1373 L699.1956,1373 A0,0 0 0 0 699.1956,1373 L699.1956,1023 L689.1956,1013 L359.1555,1013 A0,0 0 0 0 359.1555,1013" fill="#FFF7D6" style="stroke:#B45309;stroke-width:0.5;"/><path d="M689.1956,1013 L689.1956,1023 L699.1956,1023 L689.1956,1013" fill="#FFF7D6" style="stroke:#B45309;stroke-width:0.5;"/><text fill="#334155" font-family="Helvetica" font-size="14" lengthAdjust="spacing" textLength="101.165" x="365.1555" y="1028.7803">shared diagram:</text><text fill="#334155" font-family="Helvetica" font-size="14" lengthAdjust="spacing" textLength="284.7852" x="365.1555" y="1042.7803">shared/diagrams/shared-reconcile-activity.svg</text><text fill="#334155" font-family="Helvetica" font-size="14" lengthAdjust="spacing" textLength="265.3438" x="365.1555" y="1056.7803">Start from the shared reconcile activity and</text><text fill="#334155" font-family="Helvetica" font-size="14" lengthAdjust="spacing" textLength="273.8955" x="365.1555" y="1070.7803">specialize provider-backed CRUD, wait, and</text><text fill="#334155" font-family="Helvetica" font-size="14" lengthAdjust="spacing" textLength="182.875" x="365.1555" y="1084.7803">status-projection details here.</text><text fill="#334155" font-family="Helvetica" font-size="14" lengthAdjust="spacing" textLength="229.5371" x="365.1555" y="1098.7803">Controller-local activity diagrams add</text><text fill="#334155" font-family="Helvetica" font-size="14" lengthAdjust="spacing" textLength="238.8955" x="365.1555" y="1112.7803">list-lookup hints, secret policies, delete</text><text fill="#334155" font-family="Helvetica" font-size="14" lengthAdjust="spacing" textLength="200.0332" x="365.1555" y="1126.7803">handling, and open formal gaps.</text><text fill="#334155" font-family="Helvetica" font-size="14" lengthAdjust="spacing" textLength="281.709" x="365.1555" y="1140.7803">archetype batch: Generated service-manager</text><text fill="#334155" font-family="Helvetica" font-size="14" lengthAdjust="spacing" textLength="291.0469" x="365.1555" y="1154.7803">controllers specialize the shared reconcile path</text><text fill="#334155" font-family="Helvetica" font-size="14" lengthAdjust="spacing" textLength="189.8477" x="365.1555" y="1168.7803">with formal runtime ownership.</text><text fill="#334155" font-family="Helvetica" font-size="14" lengthAdjust="spacing" textLength="190.6611" x="365.1555" y="1182.7803">service: fleetappsmanagement</text><text fill="#334155" font-family="Helvetica" font-size="14" lengthAdjust="spacing" textLength="259.9297" x="365.1555" y="1196.7803">slug: fleetappsmanagementfleetresources</text><text fill="#334155" font-family="Helvetica" font-size="14" lengthAdjust="spacing" textLength="276.2539" x="365.1555" y="1210.7803">kind: FleetAppsManagementFleetResources</text><text fill="#334155" font-family="Helvetica" font-size="14" lengthAdjust="spacing" textLength="241.2402" x="365.1555" y="1224.7803">archetype: generated-service-manager</text><text fill="#334155" font-family="Helvetica" font-size="14" lengthAdjust="spacing" textLength="156.4063" x="365.1555" y="1238.7803">status/finalizer: required /</text><text fill="#334155" font-family="Helvetica" font-size="14" lengthAdjust="spacing" textLength="174.3027" x="365.1555" y="1252.7803">retain-until-confirmed-delete</text><text fill="#334155" font-family="Helvetica" font-size="14" lengthAdjust="spacing" textLength="272.3984" x="365.1555" y="1266.7803">requeue: provisioning, updating, terminating</text><text fill="#334155" font-family="Helvetica" font-size="14" lengthAdjust="spacing" textLength="295.6816" x="365.1555" y="1280.7803">provider states: create PROVISIONING; update</text><text fill="#334155" font-family="Helvetica" font-size="14" lengthAdjust="spacing" textLength="192.165" x="365.1555" y="1294.7803">UPDATING; delete DELETING</text><text fill="#334155" font-family="Helvetica" font-size="14" lengthAdjust="spacing" textLength="319.04" x="365.1555" y="1308.7803">mutable/forceNew: display_name / compartment_id</text><text fill="#334155" font-family="Helvetica" font-size="14" lengthAdjust="spacing" textLength="104.3164" x="365.1555" y="1322.7803">open gaps: none</text><text fill="#334155" font-family="Helvetica" font-size="14" lengthAdjust="spacing" textLength="224.9023" x="365.1555" y="1336.7803">Scaffold metadata only; replace with</text><text fill="#334155" font-family="Helvetica" font-size="14" lengthAdjust="spacing" textLength="244.3232" x="365.1555" y="1350.7803">controller-specific runtime states before</text><text fill="#334155" font-family="Helvetica" font-size="14" lengthAdjust="spacing" textLength="66.1445" x="365.1555" y="1364.7803">promotion.</text><ellipse cx="328.1555" cy="1193" fill="none" rx="11" ry="11" style="stroke:#222222;stroke-width:1;"/><ellipse cx="328.1555" cy="1193" fill="#222222" rx="6" ry="6" style="stroke:#222222;stroke-width:1;"/><line style="stroke:#0F172A;stroke-width:1;" x1="328.1555" x2="328.1555" y1="65" y2="85"/><polygon fill="#0F172A" points="324.1555,75,328.1555,85,332.1555,75,328.1555,79" style="stroke:#0F172A;stroke-width:1;"/><line style="stroke:#0F172A;stroke-width:1;" x1="328.1555" x2="328.1555" y1="133" y2="153"/><polygon fill="#0F172A" points="324.1555,143,328.1555,153,332.1555,143,328.1555,147" style="stroke:#0F172A;stroke-width:1;"/><line style="stroke:#0F172A;stroke-width:1;" x1="328.1555" x2="328.1555" y1="201" y2="221"/><polygon fill="#0F172A" points="324.1555,211,328.1555,221,332.1555,211,328.1555,215" style="stroke:#0F172A;stroke-width:1;"/><line style="stroke:#0F172A;stroke-width:1;" x1="328.1555" x2="328.1555" y1="283" y2="303"/><polygon fill="#0F172A" points="324.1555,293,328.1555,303,332.1555,293,328.1555,297" style="stroke:#0F172A;stroke-width:1;"/><line style="stroke:#0F172A;stroke-width:1;" x1="164.9683" x2="164.9683" y1="481" y2="501"/><polygon fill="#0F172A" points="160.9683,491,164.9683,501,168.9683,491,164.9683,495" style="stroke:#0F172A;stroke-width:1;"/><line style="stroke:#0F172A;stroke-width:1;" x1="262.4661" x2="164.9683" y1="411" y2="411"/><line style="stroke:#0F172A;stroke-width:1;" x1="164.9683" x2="164.9683" y1="411" y2="433"/><polygon fill="#0F172A" points="160.9683,423,164.9683,433,168.9683,423,164.9683,427" style="stroke:#0F172A;stroke-width:1;"/><line style="stroke:#0F172A;stroke-width:1;" x1="393.845" x2="491.3428" y1="411" y2="411"/><line style="stroke:#0F172A;stroke-width:1;" x1="491.3428" x2="491.3428" y1="411" y2="433"/><polygon fill="#0F172A" points="487.3428,423,491.3428,433,495.3428,423,491.3428,427" style="stroke:#0F172A;stroke-width:1;"/><line style="stroke:#0F172A;stroke-width:1;" x1="164.9683" x2="164.9683" y1="549" y2="567"/><line style="stroke:#0F172A;stroke-width:1;" x1="164.9683" x2="316.1555" y1="567" y2="567"/><polygon fill="#0F172A" points="306.1555,563,316.1555,567,306.1555,571,310.1555,567" style="stroke:#0F172A;stroke-width:1;"/><line style="stroke:#0F172A;stroke-width:1;" x1="491.3428" x2="491.3428" y1="481" y2="567"/><line style="stroke:#0F172A;stroke-width:1;" x1="491.3428" x2="340.1555" y1="567" y2="567"/><polygon fill="#0F172A" points="350.1555,563,340.1555,567,350.1555,571,346.1555,567" style="stroke:#0F172A;stroke-width:1;"/><line style="stroke:#0F172A;stroke-width:1;" x1="328.1555" x2="328.1555" y1="379" y2="399"/><polygon fill="#0F172A" points="324.1555,389,328.1555,399,332.1555,389,328.1555,393" style="stroke:#0F172A;stroke-width:1;"/><line style="stroke:#0F172A;stroke-width:1;" x1="328.1555" x2="328.1555" y1="579" y2="599"/><polygon fill="#0F172A" points="324.1555,589,328.1555,599,332.1555,589,328.1555,593" style="stroke:#0F172A;stroke-width:1;"/><line style="stroke:#0F172A;stroke-width:1;" x1="328.1555" x2="328.1555" y1="703" y2="723"/><polygon fill="#0F172A" points="324.1555,713,328.1555,723,332.1555,713,328.1555,717" style="stroke:#0F172A;stroke-width:1;"/><line style="stroke:#0F172A;stroke-width:1;" x1="328.1555" x2="328.1555" y1="757" y2="777"/><polygon fill="#0F172A" points="324.1555,767,328.1555,777,332.1555,767,328.1555,771" style="stroke:#0F172A;stroke-width:1;"/><line style="stroke:#0F172A;stroke-width:1;" x1="328.1555" x2="328.1555" y1="881" y2="901"/><polygon fill="#0F172A" points="324.1555,891,328.1555,901,332.1555,891,328.1555,895" style="stroke:#0F172A;stroke-width:1;"/><line style="stroke:#0F172A;stroke-width:1;" x1="328.1555" x2="328.1555" y1="949" y2="969"/><polygon fill="#0F172A" points="324.1555,959,328.1555,969,332.1555,959,328.1555,963" style="stroke:#0F172A;stroke-width:1;"/><line style="stroke:#0F172A;stroke-width:1;" x1="328.1555" x2="328.1555" y1="1003" y2="1182"/><polygon fill="#0F172A" points="324.1555,1172,328.1555,1182,332.1555,1172,328.1555,1176" style="stroke:#0F172A;stroke-width:1;"/><?plantuml-src bLRVJoCt47xtNs6fBvoKJU20ExeHgcZuSQWKK3ZAIwIJivxDkdZjhUrDcbRztpksTpTBBYgfU0WPZyVppNppJUohK1KphAIsO5olX5hGd4aBn7OdSvQzBeok5PzegGtz8S_mZ_SyEEIibkvQAtVFIg1VG2x1YOpjzdaIVm4zEkaTCcFqgeb-c1zz_jY_gRI3dx_B8Sy_yq_RNjfmC8t7_EJq-F37BG__V7D-V7noT7hQEm_XCsqK67hqYJZX9D2Bp8cbS6kQq5m2E5PLjcIABQ04vKRNtdQ1jbyxMp1DmUhQP63x8DjGVnEwewXdESipVz87qHI3qdoJU6VZWfLQyUzg0n_XB3_iEVGZ7l4Ju6URm-iTWQrZnctxGnU_yvkphQZ_a72Lf4_-W-P61s8Pu5WzlPgf-6M4Ro-m97OKloS6Cgqo8I5fYpIqoyMOf7UQSQIE5Jx4kyN6-1Lab2dk8RZQnWn-gUU0NNLWCQ9tHdRIXybjS0Aw56ocRi2z6vwkX2jcwaxOFNnnYgHlCZxvR04porYUQyc_xQ3HBbimcGsoN4W7nj9CbqWd5wu9FcWmh0fG7j8bbLg_rjLCOLVcGl5aYPTgcsG6l9y2u9PAH41zR5axeTMOY9mUjAbJ-1EFxKyVgFD13zPWFo26Yllx5NC5pH0QPXHDxrO22t1JCyDfMJisnv7A1KXCWWjRIRR-fhnYOCiGeaR_HC6gTNcBTKm0XOaUA8tvJ2AUVZxHj4S-o6IH8nDgHIkZbmA7WnOWA_-1rSDGiLhdBcyRC8p1so23cUgTlJ21kcPUj7cTmXyrMFU2HBb2JJDV49X4KPqfp0DfVUwWHDIOkIUwLkUJwTN5rwlByKpLePpzDsE1spVHXOE4jowNmTAva1IHopNsjj89grsX_TnOG3oELbgAR8qogBnZl1aBM5lFi6ZPTmeC8WrJkV_uQBFly3YDwLpTNM5ba0J8VLEooDJqqUZV8VFqRTvl9jqFVIuKaxXSJ8FLP-cOK4cDnPT94mdr9XOog07sgmQg6ofOV0JRDQ2X6-4_dBeIu_elOvGtNH6_IAWHYyAHHjmQFKl9_z8tqbD9dBLMAJldpSP0SCHBcmZmEjOcNc3mncJwV3cWAwJX8Bg6aYHLB1L2GWd5EaYBD3Sm91FKVAEbn0XIu_Hi7ceJfunpucKYYNf22w6S7RoXaW0qn4gIek5vU9_g2eK3fxd4q0jMsI5X9Yl0hIl0dU6o8gKtW6iMsUtPQPO2vpvAdo5PbvobFSmx2-JPIpmVszUCxpJgYLvXU5k8QaYQ-Eck_Ksih1SxJzxABy4bpjFt5z06PqeNBS9a6s5ipwXZQxeXyuZy9sE9YNnDzs4hwSGjx0YRqcO9F4uVVhjzkdsulxs_6SUxG9uVBo--1aDyYeRvGmDfT7iKvFaULkbRwHvjoJG9tVTjJuFMaATcyz4IeU5R3ATDhiTUf2J3VUFxr-jw4fgUYwnhPaoVpW4p08-gr9xKGo_auLVTlm00?></g></svg>