<?plantuml 1.2026.1?><svg xmlns="http://www.w3.org/2000/svg" xmlns:xlink="http://www.w3.org/1999/xlink" contentStyleType="text/css" data-diagram-type="STATE" height="590px" preserveAspectRatio="none" style="width:3859px;height:590px;background:#FCFCFD;" version="1.1" viewBox="0 0 3859 590" width="3859px" zoomAndPan="magnify"><title>State Machine - genericartifactscontent/GenericArtifactsContentArtifactByPath</title><defs/><g><rect fill="#FCFCFD" height="590" style="stroke:none;stroke-width:1;" width="3859" x="0" y="0"/><g class="title" data-source-line="10"><text fill="#000000" font-family="Helvetica" font-size="14" font-weight="bold" lengthAdjust="spacing" textLength="524.3369" x="1660.4845" y="20.7803">State Machine - genericartifactscontent/GenericArtifactsContentArtifactByPath</text></g><g><rect fill="#F8FAFC" height="62" rx="8" ry="8" style="stroke:#0F172A;stroke-width:0.5;" width="264.3643" x="367" y="403"/><line style="stroke:#0F172A;stroke-width:0.5;" x1="367" x2="631.3643" y1="427" y2="427"/><text fill="#0F172A" font-family="Helvetica" font-size="14" lengthAdjust="spacing" textLength="52.9102" x="472.7271" y="418.7803">Observe</text><text fill="#0F172A" font-family="Helvetica" font-size="14" lengthAdjust="spacing" textLength="244.3643" x="372" y="442.7803">read spec, tracked status, delete intent,</text><text fill="#0F172A" font-family="Helvetica" font-size="14" lengthAdjust="spacing" textLength="153.2822" x="372" y="456.7803">and current OCI lifecycle</text></g><rect fill="#F8FAFC" height="40" rx="8" ry="8" style="stroke:#0F172A;stroke-width:0.5;" width="104.9512" x="1428.36" y="246"/><text fill="#0F172A" font-family="Helvetica" font-size="14" lengthAdjust="spacing" textLength="94.9512" x="1433.36" y="269.7803">EvaluateReady</text><rect fill="#F8FAFC" height="40" rx="8" ry="8" style="stroke:#0F172A;stroke-width:0.5;" width="50.4688" x="2187.32" y="246"/><text fill="#0F172A" font-family="Helvetica" font-size="14" lengthAdjust="spacing" textLength="40.4688" x="2192.32" y="269.7803">Ready</text><rect fill="#F8FAFC" height="40" rx="8" ry="8" style="stroke:#0F172A;stroke-width:0.5;" width="69.917" x="1445.88" y="381"/><text fill="#0F172A" font-family="Helvetica" font-size="14" lengthAdjust="spacing" textLength="59.917" x="1450.88" y="404.7803">Retryable</text><rect fill="#F8FAFC" height="40" rx="8" ry="8" style="stroke:#0F172A;stroke-width:0.5;" width="50" x="1455.84" y="500"/><text fill="#0F172A" font-family="Helvetica" font-size="14" lengthAdjust="spacing" textLength="38.1309" x="1461.7746" y="523.7803">Failed</text><rect fill="#F8FAFC" height="40" rx="8" ry="8" style="stroke:#0F172A;stroke-width:0.5;" width="122.8477" x="909.44" y="357"/><text fill="#0F172A" font-family="Helvetica" font-size="14" lengthAdjust="spacing" textLength="112.8477" x="914.44" y="380.7803">ResolveByLookup</text><rect fill="#F8FAFC" height="40" rx="8" ry="8" style="stroke:#0F172A;stroke-width:0.5;" width="155.5098" x="1762.56" y="336"/><text fill="#0F172A" font-family="Helvetica" font-size="14" lengthAdjust="spacing" textLength="145.5098" x="1767.56" y="359.7803">RejectUnsupportedDrift</text><rect fill="#F8FAFC" height="40" rx="8" ry="8" style="stroke:#0F172A;stroke-width:0.5;" width="90.165" x="1795.23" y="175"/><text fill="#0F172A" font-family="Helvetica" font-size="14" lengthAdjust="spacing" textLength="80.165" x="1800.23" y="198.7803">ApplyUpdate</text><rect fill="#F8FAFC" height="40" rx="8" ry="8" style="stroke:#0F172A;stroke-width:0.5;" width="101.8477" x="2578.15" y="492"/><text fill="#0F172A" font-family="Helvetica" font-size="14" lengthAdjust="spacing" textLength="91.8477" x="2583.15" y="515.7803">DeletePending</text><rect fill="#F8FAFC" height="40" rx="8" ry="8" style="stroke:#0F172A;stroke-width:0.5;" width="58.2549" x="3770.59" y="426"/><text fill="#0F172A" font-family="Helvetica" font-size="14" lengthAdjust="spacing" textLength="48.2549" x="3775.59" y="449.7803">Deleted</text><rect fill="#F8FAFC" height="40" rx="8" ry="8" style="stroke:#0F172A;stroke-width:0.5;" width="152.4268" x="3261.76" y="426"/><text fill="#0F172A" font-family="Helvetica" font-size="14" lengthAdjust="spacing" textLength="142.4268" x="3266.76" y="449.7803">DeleteCleanupBlocked</text><ellipse cx="16" cy="434" fill="#222222" rx="10" ry="10" style="stroke:#222222;stroke-width:1;"/><g class="entity" data-qualified-name="GMN2" data-source-line="55" id="ent0003"><path d="M2403.78,49 L2403.78,254.21 L2238.24,264.99 L2403.78,262.21 L2403.78,449 A8,8 0 0 0 2411.78,457 L2846.3571,457 A8,8 0 0 0 2854.3571,449 L2854.3571,51 L2844.3571,41 L2411.78,41 A8,8 0 0 0 2403.78,49" fill="#FFF7D6" style="stroke:#B45309;stroke-width:0.5;"/><path d="M2844.3571,41 L2844.3571,47 A4,4 0 0 0 2848.3571,51 L2854.3571,51 L2844.3571,41" fill="#FFF7D6" style="stroke:#B45309;stroke-width:0.5;"/><text fill="#334155" font-family="Helvetica" font-size="14" lengthAdjust="spacing" textLength="101.165" x="2409.78" y="56.7803">shared diagram:</text><text fill="#334155" font-family="Helvetica" font-size="14" lengthAdjust="spacing" textLength="331.4814" x="2409.78" y="70.7803">shared/diagrams/shared-controller-state-machine.svg</text><text fill="#334155" font-family="Helvetica" font-size="14" lengthAdjust="spacing" textLength="304.2744" x="2409.78" y="84.7803">Start from the shared controller phase model and</text><text fill="#334155" font-family="Helvetica" font-size="14" lengthAdjust="spacing" textLength="261.4678" x="2409.78" y="98.7803">specialize imported provider states, delete</text><text fill="#334155" font-family="Helvetica" font-size="14" lengthAdjust="spacing" textLength="184.4336" x="2409.78" y="112.7803">targets, and failure exits here.</text><text fill="#334155" font-family="Helvetica" font-size="14" lengthAdjust="spacing" textLength="281.709" x="2409.78" y="126.7803">archetype batch: Generated service-manager</text><text fill="#334155" font-family="Helvetica" font-size="14" lengthAdjust="spacing" textLength="287.9229" x="2409.78" y="140.7803">controllers map provider states into the shared</text><text fill="#334155" font-family="Helvetica" font-size="14" lengthAdjust="spacing" textLength="261.4609" x="2409.78" y="154.7803">controller phases with explicit finalizer and</text><text fill="#334155" font-family="Helvetica" font-size="14" lengthAdjust="spacing" textLength="105.8477" x="2409.78" y="168.7803">requeue policies.</text><text fill="#334155" font-family="Helvetica" font-size="14" lengthAdjust="spacing" textLength="192.9785" x="2409.78" y="182.7803">service: genericartifactscontent</text><text fill="#334155" font-family="Helvetica" font-size="14" lengthAdjust="spacing" textLength="258.3643" x="2409.78" y="196.7803">slug: genericartifactscontentartifactbypath</text><text fill="#334155" font-family="Helvetica" font-size="14" lengthAdjust="spacing" textLength="270.7852" x="2409.78" y="210.7803">kind: GenericArtifactsContentArtifactByPath</text><text fill="#334155" font-family="Helvetica" font-size="14" lengthAdjust="spacing" textLength="241.2402" x="2409.78" y="224.7803">archetype: generated-service-manager</text><text fill="#334155" font-family="Helvetica" font-size="14" lengthAdjust="spacing" textLength="156.4063" x="2409.78" y="238.7803">status/finalizer: required /</text><text fill="#334155" font-family="Helvetica" font-size="14" lengthAdjust="spacing" textLength="174.3027" x="2409.78" y="252.7803">retain-until-confirmed-delete</text><text fill="#334155" font-family="Helvetica" font-size="14" lengthAdjust="spacing" textLength="272.3984" x="2409.78" y="266.7803">requeue: provisioning, updating, terminating</text><text fill="#334155" font-family="Helvetica" font-size="14" lengthAdjust="spacing" textLength="295.6816" x="2409.78" y="280.7803">provider states: create PROVISIONING; update</text><text fill="#334155" font-family="Helvetica" font-size="14" lengthAdjust="spacing" textLength="192.165" x="2409.78" y="294.7803">UPDATING; delete DELETING</text><text fill="#334155" font-family="Helvetica" font-size="14" lengthAdjust="spacing" textLength="183.6611" x="2409.78" y="308.7803">supported drift: display_name</text><text fill="#334155" font-family="Helvetica" font-size="14" lengthAdjust="spacing" textLength="230.3301" x="2409.78" y="322.7803">reject before mutate: force-new fields</text><text fill="#334155" font-family="Helvetica" font-size="14" lengthAdjust="spacing" textLength="100.3789" x="2409.78" y="336.7803">compartment_id</text><text fill="#334155" font-family="Helvetica" font-size="14" lengthAdjust="spacing" textLength="66.1445" x="2409.78" y="350.7803">list lookup:</text><text fill="#334155" font-family="Helvetica" font-size="14" lengthAdjust="spacing" textLength="429.5771" x="2409.78" y="364.7803">scaffold_genericartifactscontent_genericartifactscontentartifactbypath</text><text fill="#334155" font-family="Helvetica" font-size="14" lengthAdjust="spacing" textLength="175.8477" x="2409.78" y="378.7803">filters compartment_id, state</text><text fill="#334155" font-family="Helvetica" font-size="14" lengthAdjust="spacing" textLength="89.4961" x="2409.78" y="392.7803">conflicts: none</text><text fill="#334155" font-family="Helvetica" font-size="14" lengthAdjust="spacing" textLength="104.3164" x="2409.78" y="406.7803">open gaps: none</text><text fill="#334155" font-family="Helvetica" font-size="14" lengthAdjust="spacing" textLength="224.9023" x="2409.78" y="420.7803">Scaffold metadata only; replace with</text><text fill="#334155" font-family="Helvetica" font-size="14" lengthAdjust="spacing" textLength="244.3232" x="2409.78" y="434.7803">controller-specific runtime states before</text><text fill="#334155" font-family="Helvetica" font-size="14" lengthAdjust="spacing" textLength="66.1445" x="2409.78" y="448.7803">promotion.</text></g><g class="entity" data-qualified-name="GMN5" data-source-line="86" id="ent0006"><path d="M3189.36,509 L3189.36,530.93 L2680.34,514.06 L3189.36,538.93 L3189.36,573 A8,8 0 0 0 3197.36,581 L3478.5866,581 A8,8 0 0 0 3486.5866,573 L3486.5866,511 L3476.5866,501 L3197.36,501 A8,8 0 0 0 3189.36,509" fill="#FFF7D6" style="stroke:#B45309;stroke-width:0.5;"/><path d="M3476.5866,501 L3476.5866,507 A4,4 0 0 0 3480.5866,511 L3486.5866,511 L3476.5866,501" fill="#FFF7D6" style="stroke:#B45309;stroke-width:0.5;"/><text fill="#334155" font-family="Helvetica" font-size="14" lengthAdjust="spacing" textLength="136.9717" x="3195.36" y="516.7803">delete policy: required</text><text fill="#334155" font-family="Helvetica" font-size="14" lengthAdjust="spacing" textLength="95.7305" x="3195.36" y="530.7803">delete observe:</text><text fill="#334155" font-family="Helvetica" font-size="14" lengthAdjust="spacing" textLength="276.2266" x="3195.36" y="544.7803">GetGenericArtifactsContentArtifactByPath or</text><text fill="#334155" font-family="Helvetica" font-size="14" lengthAdjust="spacing" textLength="259.1094" x="3195.36" y="558.7803">ListGenericArtifactsContentArtifactByPath</text><text fill="#334155" font-family="Helvetica" font-size="14" lengthAdjust="spacing" textLength="157.1855" x="3195.36" y="572.7803">delete targets: DELETED</text></g><!--link *start* to observe--><g class="link" data-entity-1="ent0002" data-entity-2="ent0002" data-link-type="dependency" data-source-line="32" id="lnk3"><path d="M26.18,434 C67.79,434 236.01,434 360.67,434" fill="none" id="*start*-to-observe" style="stroke:#0F172A;stroke-width:1;"/><polygon fill="#0F172A" points="366.67,434,357.67,430,361.67,434,357.67,438,366.67,434" style="stroke:#0F172A;stroke-width:1;"/><text fill="#000000" font-family="Helvetica" font-size="14" lengthAdjust="spacing" textLength="279.3438" x="57" y="429.7803">CreateGenericArtifactsContentArtifactByPath</text></g><!--link observe to resolve_by_lookup--><g class="link" data-entity-1="ent0002" data-entity-2="ent0007" data-link-type="dependency" data-source-line="33" id="lnk4"><path d="M631.64,418.05 C722.55,407.01 833.3337,393.5731 903.1837,385.0931" fill="none" id="observe-to-resolve_by_lookup" style="stroke:#0F172A;stroke-width:1;"/><polygon fill="#0F172A" points="909.14,384.37,899.7235,381.4838,904.1764,384.9726,900.6877,389.4255,909.14,384.37" style="stroke:#0F172A;stroke-width:1;"/><text fill="#000000" font-family="Helvetica" font-size="14" lengthAdjust="spacing" textLength="145.5029" x="662.36" y="392.8403">tracked identity missing</text></g><!--link resolve_by_lookup to evaluate_ready--><g class="link" data-entity-1="ent0007" data-entity-2="ent0003" data-link-type="dependency" data-source-line="34" id="lnk5"><path d="M1032.57,365.58 C1146.1,344.19 1380.77,299.79 1398.36,295 C1408.07,292.36 1412.6038,291.0543 1422.3838,287.7043" fill="none" id="resolve_by_lookup-to-evaluate_ready" style="stroke:#0F172A;stroke-width:1;"/><polygon fill="#0F172A" points="1428.06,285.76,1418.2494,284.8923,1423.3298,287.3803,1420.8419,292.4606,1428.06,285.76" style="stroke:#0F172A;stroke-width:1;"/><text fill="#000000" font-family="Helvetica" font-size="14" lengthAdjust="spacing" textLength="154.0889" x="1188.86" y="276.7803">lookup or create reaches</text><text fill="#000000" font-family="Helvetica" font-size="14" lengthAdjust="spacing" textLength="50.5654" x="1240.6217" y="290.7803">ACTIVE</text></g><!--link resolve_by_lookup to retryable--><g class="link" data-entity-1="ent0007" data-entity-2="ent0005" data-link-type="dependency" data-source-line="35" id="lnk6"><path d="M1032.63,379.87 C1140.21,384.95 1354.8067,395.0973 1439.5967,399.0973" fill="none" id="resolve_by_lookup-to-retryable" style="stroke:#0F172A;stroke-width:1;"/><polygon fill="#0F172A" points="1445.59,399.38,1436.7885,394.9603,1440.5956,399.1444,1436.4115,402.9514,1445.59,399.38" style="stroke:#0F172A;stroke-width:1;"/><text fill="#000000" font-family="Helvetica" font-size="14" lengthAdjust="spacing" textLength="184.3789" x="1173.86" y="366.5403">OCI state in PROVISIONING,</text><text fill="#000000" font-family="Helvetica" font-size="14" lengthAdjust="spacing" textLength="150.1309" x="1190.984" y="380.5403">UPDATING, DELETING</text></g><!--link resolve_by_lookup to failed--><g class="link" data-entity-1="ent0007" data-entity-2="ent0006" data-link-type="dependency" data-source-line="36" id="lnk7"><path d="M1032.63,394.11 C1144.69,425.65 1373.5847,490.0834 1449.6747,511.5134" fill="none" id="resolve_by_lookup-to-failed" style="stroke:#0F172A;stroke-width:1;"/><polygon fill="#0F172A" points="1455.45,513.14,1447.8714,506.8499,1450.6372,511.7845,1445.7026,514.5504,1455.45,513.14" style="stroke:#0F172A;stroke-width:1;"/><text fill="#000000" font-family="Helvetica" font-size="14" lengthAdjust="spacing" textLength="263.7783" x="1134.36" y="419.0303">unresolved OCI error or non-success state</text></g><!--link observe to evaluate_ready--><g class="link" data-entity-1="ent0002" data-entity-2="ent0003" data-link-type="dependency" data-source-line="37" id="lnk8"><path d="M576.96,402.64 C603.45,392.43 633.47,381.55 661.36,373 C867.5,309.82 919.22,286.06 1133.36,261 C1237.33,248.83 1354.0497,255.0341 1421.9897,260.5541" fill="none" id="observe-to-evaluate_ready" style="stroke:#0F172A;stroke-width:1;"/><polygon fill="#0F172A" points="1427.97,261.04,1419.3235,256.3243,1422.9864,260.6351,1418.6756,264.298,1427.97,261.04" style="stroke:#0F172A;stroke-width:1;"/><text fill="#000000" font-family="Helvetica" font-size="14" lengthAdjust="spacing" textLength="128.3721" x="906.86" y="260.9503">OCI state in ACTIVE</text></g><!--link observe to retryable--><g class="link" data-entity-1="ent0002" data-entity-2="ent0005" data-link-type="dependency" data-source-line="38" id="lnk9"><path d="M631.47,438.33 C694.11,440.38 770.11,442.85 838.36,445 C1087.16,452.84 1159.72,524.79 1398.36,454 C1409.77,450.62 1428.445,438.3638 1447.305,424.9138" fill="none" id="observe-to-retryable" style="stroke:#0F172A;stroke-width:1;"/><polygon fill="#0F172A" points="1452.19,421.43,1442.54,423.3989,1448.1191,424.3331,1447.185,429.9123,1452.19,421.43" style="stroke:#0F172A;stroke-width:1;"/><text fill="#000000" font-family="Helvetica" font-size="14" lengthAdjust="spacing" textLength="184.3789" x="878.86" y="426.7803">OCI state in PROVISIONING,</text><text fill="#000000" font-family="Helvetica" font-size="14" lengthAdjust="spacing" textLength="150.1309" x="895.984" y="440.7803">UPDATING, DELETING</text></g><!--link observe to failed--><g class="link" data-entity-1="ent0002" data-entity-2="ent0006" data-link-type="dependency" data-source-line="39" id="lnk10"><path d="M631.52,464.76 C693.83,478.03 769.56,492.26 838.36,500 C1077.8,526.92 1364.4516,522.7695 1449.5616,520.7895" fill="none" id="observe-to-failed" style="stroke:#0F172A;stroke-width:1;"/><polygon fill="#0F172A" points="1455.56,520.65,1446.4694,516.8604,1450.5614,520.7663,1446.6555,524.8582,1455.56,520.65" style="stroke:#0F172A;stroke-width:1;"/><text fill="#000000" font-family="Helvetica" font-size="14" lengthAdjust="spacing" textLength="263.7783" x="839.36" y="495.7803">unresolved OCI error or non-success state</text></g><!--link evaluate_ready to reject_unsupported_drift--><g class="link" data-entity-1="ent0003" data-entity-2="ent0008" data-link-type="dependency" data-source-line="40" id="lnk11"><path d="M1505.06,286.48 C1520.49,298.89 1541.81,313.85 1563.32,322 C1627.53,346.35 1699.6042,353.9058 1756.3042,356.0258" fill="none" id="evaluate_ready-to-reject_unsupported_drift" style="stroke:#0F172A;stroke-width:1;"/><polygon fill="#0F172A" points="1762.3,356.25,1753.4557,351.9165,1757.3035,356.0632,1753.1568,359.9109,1762.3,356.25" style="stroke:#0F172A;stroke-width:1;"/><text fill="#000000" font-family="Helvetica" font-size="14" lengthAdjust="spacing" textLength="143.9512" x="1574.32" y="303.7803">force-new or conflicting</text><text fill="#000000" font-family="Helvetica" font-size="14" lengthAdjust="spacing" textLength="80.9375" x="1605.8268" y="317.7803">drift detected</text></g><!--link reject_unsupported_drift to ready--><g class="link" data-entity-1="ent0008" data-entity-2="ent0004" data-link-type="dependency" data-source-line="41" id="lnk12"><path d="M1918.32,355.06 C1984.2,351.77 2080.3,341 2157.32,308 C2169.36,302.84 2176.4802,298.2363 2185.9202,290.2463" fill="none" id="reject_unsupported_drift-to-ready" style="stroke:#0F172A;stroke-width:1;"/><polygon fill="#0F172A" points="2190.5,286.37,2181.0461,289.1313,2186.6835,289.6003,2186.2146,295.2376,2190.5,286.37" style="stroke:#0F172A;stroke-width:1;"/><text fill="#000000" font-family="Helvetica" font-size="14" lengthAdjust="spacing" textLength="203.8818" x="1953.32" y="303.7803">wait for spec or live state change</text></g><!--link evaluate_ready to apply_update--><g class="link" data-entity-1="ent0003" data-entity-2="ent0009" data-link-type="dependency" data-source-line="42" id="lnk13"><path d="M1533.72,248.96 C1543.49,246.07 1553.67,243.27 1563.32,241 C1644.17,221.95 1734.2022,208.6097 1789.0322,201.3297" fill="none" id="evaluate_ready-to-apply_update" style="stroke:#0F172A;stroke-width:1;"/><polygon fill="#0F172A" points="1794.98,200.54,1785.5318,197.7594,1790.0235,201.1981,1786.5848,205.6898,1794.98,200.54" style="stroke:#0F172A;stroke-width:1;"/><text fill="#000000" font-family="Helvetica" font-size="14" lengthAdjust="spacing" textLength="163.4199" x="1564.32" y="192.0903">supported mutable drift for</text><text fill="#000000" font-family="Helvetica" font-size="14" lengthAdjust="spacing" textLength="86.3857" x="1602.8371" y="206.0903">display_name</text></g><!--link apply_update to ready--><g class="link" data-entity-1="ent0009" data-entity-2="ent0004" data-link-type="dependency" data-source-line="43" id="lnk14"><path d="M1885.88,197.45 C1947.86,201.76 2063.1,213.07 2157.32,241 C2167.36,243.98 2172.5025,245.9001 2181.6125,250.2801" fill="none" id="apply_update-to-ready" style="stroke:#0F172A;stroke-width:1;"/><polygon fill="#0F172A" points="2187.02,252.88,2180.642,245.3752,2182.5138,250.7135,2177.1756,252.5852,2187.02,252.88" style="stroke:#0F172A;stroke-width:1;"/><text fill="#000000" font-family="Helvetica" font-size="14" lengthAdjust="spacing" textLength="141.6543" x="1984.32" y="199.4503">update path completes</text></g><!--link evaluate_ready to ready--><g class="link" data-entity-1="ent0003" data-entity-2="ent0004" data-link-type="dependency" data-source-line="44" id="lnk15"><path d="M1533.73,266 C1678.46,266 2076.77,266 2180.86,266" fill="none" id="evaluate_ready-to-ready" style="stroke:#0F172A;stroke-width:1;"/><polygon fill="#0F172A" points="2186.86,266,2177.86,262,2181.86,266,2177.86,270,2186.86,266" style="stroke:#0F172A;stroke-width:1;"/><text fill="#000000" font-family="Helvetica" font-size="14" lengthAdjust="spacing" textLength="162.6406" x="1759.32" y="261.7803">no supported drift remains</text></g><!--link ready to ready--><g class="link" data-entity-1="ent0004" data-entity-2="ent0004" data-link-type="dependency" data-source-line="45" id="lnk16"><path d="M2195.35,245.69 C2188,228.73 2193.74,211 2212.55,211 C2231.36,211 2239.4858,223.2247 2232.1358,240.1847" fill="none" id="ready-to-ready" style="stroke:#0F172A;stroke-width:1;"/><polygon fill="#0F172A" points="2229.75,245.69,2236.9989,239.0227,2231.7382,241.1023,2229.6586,235.8416,2229.75,245.69" style="stroke:#0F172A;stroke-width:1;"/><text fill="#000000" font-family="Helvetica" font-size="14" lengthAdjust="spacing" textLength="162.6406" x="2131.55" y="201.7803">no supported drift remains</text></g><!--link retryable to retryable--><g class="link" data-entity-1="ent0005" data-entity-2="ent0005" data-link-type="dependency" data-source-line="46" id="lnk17"><path d="M1454.63,380.69 C1443.42,363.73 1452.16,346 1480.84,346 C1509.52,346 1521.5564,358.7232 1510.3564,375.6832" fill="none" id="retryable-to-retryable" style="stroke:#0F172A;stroke-width:1;"/><polygon fill="#0F172A" points="1507.05,380.69,1515.3474,375.3841,1509.8053,376.5177,1508.6717,370.9756,1507.05,380.69" style="stroke:#0F172A;stroke-width:1;"/><text fill="#000000" font-family="Helvetica" font-size="14" lengthAdjust="spacing" textLength="136.9307" x="1412.84" y="336.7803">OCI remains retryable</text></g><!--link failed to failed--><g class="link" data-entity-1="ent0006" data-entity-2="ent0006" data-link-type="dependency" data-source-line="47" id="lnk18"><path d="M1455.41,500.83 C1443.04,483.53 1451.52,465 1480.84,465 C1510.16,465 1522.1298,478.6493 1509.7598,495.9493" fill="none" id="failed-to-failed" style="stroke:#0F172A;stroke-width:1;"/><polygon fill="#0F172A" points="1506.27,500.83,1514.7585,495.8355,1509.1782,496.7628,1508.251,491.1824,1506.27,500.83" style="stroke:#0F172A;stroke-width:1;"/><text fill="#000000" font-family="Helvetica" font-size="14" lengthAdjust="spacing" textLength="132.2549" x="1414.84" y="455.7803">OCI remains terminal</text></g><!--link ready to delete_pending--><g class="link" data-entity-1="ent0004" data-entity-2="ent0010" data-link-type="dependency" data-source-line="48" id="lnk19"><path d="M2238.1,281.72 C2272.51,304.84 2335.19,351.04 2373.78,404 C2393.96,431.68 2376.87,453.8 2403.78,475 C2453.39,514.08 2522.6048,519.0001 2572.0348,517.0201" fill="none" id="ready-to-delete_pending" style="stroke:#0F172A;stroke-width:1;"/><polygon fill="#0F172A" points="2578.03,516.78,2568.8771,513.1434,2573.034,516.9801,2569.1973,521.137,2578.03,516.78" style="stroke:#0F172A;stroke-width:1;"/><text fill="#000000" font-family="Helvetica" font-size="14" lengthAdjust="spacing" textLength="104.3027" x="2268.78" y="299.3403">delete requested</text></g><!--link retryable to delete_pending--><g class="link" data-entity-1="ent0005" data-entity-2="ent0010" data-link-type="dependency" data-source-line="49" id="lnk20"><path d="M1516.14,404.32 C1679.95,420.18 2376.6579,487.6516 2571.7079,506.5416" fill="none" id="retryable-to-delete_pending" style="stroke:#0F172A;stroke-width:1;"/><polygon fill="#0F172A" points="2577.68,507.12,2569.1075,502.2711,2572.7033,506.638,2568.3363,510.2338,2577.68,507.12" style="stroke:#0F172A;stroke-width:1;"/><text fill="#000000" font-family="Helvetica" font-size="14" lengthAdjust="spacing" textLength="104.3027" x="2002.82" y="443.3503">delete requested</text></g><!--link failed to delete_pending--><g class="link" data-entity-1="ent0006" data-entity-2="ent0010" data-link-type="dependency" data-source-line="50" id="lnk21"><path d="M1506.31,519.83 C1649.47,518.83 2373.0401,513.7819 2571.9301,512.3919" fill="none" id="failed-to-delete_pending" style="stroke:#0F172A;stroke-width:1;"/><polygon fill="#0F172A" points="2577.93,512.35,2568.9023,508.413,2572.9301,512.3849,2568.9582,516.4128,2577.93,512.35" style="stroke:#0F172A;stroke-width:1;"/><text fill="#000000" font-family="Helvetica" font-size="14" lengthAdjust="spacing" textLength="104.3027" x="2002.82" y="511.1403">delete requested</text></g><!--link delete_pending to delete_cleanup_blocked--><g class="link" data-entity-1="ent0010" data-entity-2="ent0012" data-link-type="dependency" data-source-line="51" id="lnk22"><path d="M2680.34,507.31 C2802.65,495.89 3110.336,467.1577 3255.366,453.6177" fill="none" id="delete_pending-to-delete_cleanup_blocked" style="stroke:#0F172A;stroke-width:1;"/><polygon fill="#0F172A" points="3261.34,453.06,3252.0071,449.9139,3256.3616,453.5248,3252.7508,457.8793,3261.34,453.06" style="stroke:#0F172A;stroke-width:1;"/><text fill="#000000" font-family="Helvetica" font-size="14" lengthAdjust="spacing" textLength="273.1436" x="2885.36" y="459.4803">cleanup or finalizer release remains blocked</text></g><!--link delete_cleanup_blocked to deleted--><g class="link" data-entity-1="ent0012" data-entity-2="ent0011" data-link-type="dependency" data-source-line="52" id="lnk23"><path d="M3414.63,446 C3518.5,446 3694.33,446 3764.23,446" fill="none" id="delete_cleanup_blocked-to-deleted" style="stroke:#0F172A;stroke-width:1;"/><polygon fill="#0F172A" points="3770.23,446,3761.23,442,3765.23,446,3761.23,450,3770.23,446" style="stroke:#0F172A;stroke-width:1;"/><text fill="#000000" font-family="Helvetica" font-size="14" lengthAdjust="spacing" textLength="222.5645" x="3517.59" y="441.7803">retry delete completion until allowed</text></g><!--link deleted to deleted--><g class="link" data-entity-1="ent0011" data-entity-2="ent0011" data-link-type="dependency" data-source-line="53" id="lnk24"><path d="M3772.52,425.69 C3760.91,408.73 3769.97,391 3799.72,391 C3829.46,391 3841.9212,403.7803 3830.3012,420.7403" fill="none" id="deleted-to-deleted" style="stroke:#0F172A;stroke-width:1;"/><polygon fill="#0F172A" points="3826.91,425.69,3835.2967,420.5263,3829.736,421.5653,3828.6971,416.0046,3826.91,425.69" style="stroke:#0F172A;stroke-width:1;"/><text fill="#000000" font-family="Helvetica" font-size="14" lengthAdjust="spacing" textLength="92.5859" x="3753.72" y="381.7803">terminal stutter</text></g><?plantuml-src dLTBRnit4BxpLn3fhR3ik7OUbO42jkoa1jpOYEDScaAWoA74cajkIQwTRT7_tk5ZLwkrXBY1BikPuJo_cQ7ylJ8rSwoYViM4VLHcIINJ7eZlEGl6xvVEDaRChBQE_Y0v_iH0Ge1aZGxlh0aVM0NqLz0F41HdssLkrTz03uy7JEQSVIpQNyh3DpyDRneRuEo93rA-4Q_7KjO9S4LYSVpgwENF8ubell2FZeuFNxqQy9DwRfq1HmzVaw221deRM03w6-ChPO1Ew1AGZP6ve2JZmNDK22OSlC_qquu-o_JkVDRUiB0Q6FD9xp-4RadlMyaaZvnXE2KjbCfr23qDjRcEU2YEGRn58lGQYzo_H8CCD5Zgr78Lg50EU53Ma9KIGA6gGujryjofEf6pao-k5nxS0xoWp5ERlplMnGFJ3Nvz12RQ9025CdUHrCcj-IDoS2rRQ2YiSkhOxvZI819FfazIpDDfqaDz3NoF1eSf195oslWz3443NbUf0djV33E2yiOvFD7hsINLIW9l-ThEH_0M4NlMNbbxtzJ5cKIRBzgvJjIry9-OjJlZcxgsBe0uTqg6SYUovisQDnUHsLqzhMlTtjK23qcUnVEyIOHEvZmvVuF5mrvCKZcSUPr9ct9Y824sMJCDp3JrcROnEKDDF7FcYymYl__u1vrCVg7hvCumkm6UX-dkLjJm96cegwiEGinWJxMqKjx7G9uAHnMR-C7xXOSuvichM7c-0l_5dCu-NNw-sA6d1nEgY4NFkL66tdoy_dnvUtdzuVB3UmJ7tStvwQVuISylhYxYrmw56O6ehJ55G2J5WBFBHVUCDHFVS0xUPsiRgNaIruPJ9PJDN7vt04Crt-7soDNip7Paervf7OU9WSTK8ckaLZXKpFABoH828SSZEdVgo0PoLXwP2b5bQkseKIiC9CVELymijxetR2HKqXkWLHDI2hCXr8jUALzhriuDRYgoSN7eHo7LY70CggfZu_ZjcSaNZ1sOpUOSL4mPJ_wdS5VsRI0eKeDHMUgxKUgXP01NASFqm8lDWOBoPM0w-Ai1dqirTEBRyWCdlYqyaXXS6Wqcl5me4GWoHe4l1uUgaEgX3x6ROpkqh0s8j3SmjCwfKbdSTTWUGMdAjBQFlQhntIwNYCScu8749qLPfbPsgst5NAogOajSzDDoFYXdVv3Fa_XmS5PhS9E4xacLtnZx_c59RkC-fzBPYeOLqA9oVONMgvY0og9l5DSRYTsYKdgegWgkQcSVSEYwt3tzNYIeUma1pt4lnier3fV_LnKyNO63VS8SpjVGre1lay1NKveM0OiwurnHF3fhs18Ji7R9quhLOvjn1zj126GSWgUF2ZiCljOuDMBdzqMEKINCDDY5DdB1xvDYVxhh7KQyRfOxkTrvqSQ-9lWO4oMuRswvFYT5USp6P9oD_00vw8EO9jIhMBk3s5E8rad2MQo-LAv27QKe9THfpg17H69lxEKnbBuAzkA1ZB8yxJRZS3ESb156klrmqe6-NnEZ4OIjEXoDULpJ1U3KX3H80modlLIWXIUnXJ2l5QPihWJHoeUoiX7wd4bfjPZlgCVyUNMIIeS8i4rJUsLRTIl7nx5gSEdYOA5BLdVds-84hR00c156hT7j2PO6O-MG04Y6tHXRIIfENInL1HsKSo9YxYiR9yO-mG6M_bICni3elLQodZ3ShX7HqSkkdfBt49u5HPo5v0gp_3pS5YkbvwUv-1VdlU__0G00?></g></svg>