<?plantuml 1.2026.1?><svg xmlns="http://www.w3.org/2000/svg" xmlns:xlink="http://www.w3.org/1999/xlink" contentStyleType="text/css" data-diagram-type="ACTIVITY" height="2225px" preserveAspectRatio="none" style="width:1243px;height:2225px;background:#FCFCFD;" version="1.1" viewBox="0 0 1243 2225" width="1243px" zoomAndPan="magnify"><title>Activity - datascience/DatasciencePipelineRun</title><defs/><g><rect fill="#FCFCFD" height="2225" style="stroke:none;stroke-width:1;" width="1243" x="0" y="0"/><g class="title" data-source-line="10"><text fill="#000000" font-family="Helvetica" font-size="14" font-weight="bold" lengthAdjust="spacing" textLength="309.6748" x="465.6021" y="30.7803">Activity - datascience/DatasciencePipelineRun</text></g><ellipse cx="662.3854" cy="55" fill="#1D4ED8" rx="10" ry="10" style="stroke:#222222;stroke-width:1;"/><rect fill="none" height="458" rx="8" ry="8" style="stroke:#000000;stroke-width:1.5;" width="618.5684" x="379.7682" y="75"/><path d="M501.8365,75 L501.8365,82 L491.8365,92 L379.7682,92" fill="none" style="stroke:#000000;stroke-width:1.5;"/><text fill="#000000" font-family="Helvetica" font-size="14" lengthAdjust="spacing" textLength="112.0684" x="382.7682" y="86.7803">Observe and Bind</text><rect fill="#F8FAFC" height="48" rx="8" ry="8" style="stroke:#0F172A;stroke-width:0.5;" width="304.7852" x="509.9928" y="109"/><text fill="#0F172A" font-family="Helvetica" font-size="14" lengthAdjust="spacing" textLength="136.9375" x="519.9928" y="129.7803">Start from shared flow</text><text fill="#0F172A" font-family="Helvetica" font-size="14" lengthAdjust="spacing" textLength="284.7852" x="519.9928" y="143.7803">shared/diagrams/shared-reconcile-activity.svg</text><rect fill="#F8FAFC" height="48" rx="8" ry="8" style="stroke:#0F172A;stroke-width:0.5;" width="297.0537" x="513.8585" y="177"/><text fill="#0F172A" font-family="Helvetica" font-size="14" lengthAdjust="spacing" textLength="277.0537" x="523.8585" y="197.7803">Read desired DatasciencePipelineRun spec,</text><text fill="#0F172A" font-family="Helvetica" font-size="14" lengthAdjust="spacing" textLength="198.4609" x="523.8585" y="211.7803">tracked status, and delete intent</text><polygon fill="#E2E8F0" points="532.9196,245,791.8512,245,803.8512,257,791.8512,269,532.9196,269,520.9196,257,532.9196,245" style="stroke:#1D4ED8;stroke-width:0.5;"/><text fill="#0F172A" font-family="Helvetica" font-size="14" lengthAdjust="spacing" textLength="258.9316" x="532.9196" y="260.7803">"Tracked or explicit OCI identity present?"</text><text fill="#000000" font-family="Helvetica" font-size="14" lengthAdjust="spacing" textLength="21.7861" x="499.1334" y="253.7803">yes</text><text fill="#000000" font-family="Helvetica" font-size="14" lengthAdjust="spacing" textLength="15.5723" x="803.8512" y="253.7803">no</text><rect fill="#F8FAFC" height="48" rx="8" ry="8" style="stroke:#0F172A;stroke-width:0.5;" width="222.3027" x="399.7682" y="279"/><text fill="#0F172A" font-family="Helvetica" font-size="14" lengthAdjust="spacing" textLength="202.3027" x="409.7682" y="299.7803">Get the current OCI resource via</text><text fill="#0F172A" font-family="Helvetica" font-size="14" lengthAdjust="spacing" textLength="175.1025" x="409.7682" y="313.7803">GetDatasciencePipelineRun</text><rect fill="#F8FAFC" height="62" rx="8" ry="8" style="stroke:#0F172A;stroke-width:0.5;" width="279.9092" x="673.8966" y="279"/><text fill="#0F172A" font-family="Helvetica" font-size="14" lengthAdjust="spacing" textLength="259.9092" x="683.8966" y="299.7803">Resolve an existing OCI resource through</text><text fill="#0F172A" font-family="Helvetica" font-size="14" lengthAdjust="spacing" textLength="249.0195" x="683.8966" y="313.7803">ListDatasciencePipelineRun using filters</text><text fill="#0F172A" font-family="Helvetica" font-size="14" lengthAdjust="spacing" textLength="138.5098" x="683.8966" y="327.7803">compartment_id, state</text><rect fill="#F8FAFC" height="62" rx="8" ry="8" style="stroke:#0F172A;stroke-width:0.5;" width="328.9707" x="649.3658" y="361"/><text fill="#0F172A" font-family="Helvetica" font-size="14" lengthAdjust="spacing" textLength="174.2959" x="659.3658" y="381.7803">Create the OCI resource via</text><text fill="#0F172A" font-family="Helvetica" font-size="14" lengthAdjust="spacing" textLength="308.9707" x="659.3658" y="395.7803">CreateDatasciencePipelineRun when no reusable</text><text fill="#0F172A" font-family="Helvetica" font-size="14" lengthAdjust="spacing" textLength="91.0479" x="659.3658" y="409.7803">match is found</text><rect fill="#F8FAFC" height="48" rx="8" ry="8" style="stroke:#0F172A;stroke-width:0.5;" width="286.8955" x="670.4034" y="443"/><text fill="#0F172A" font-family="Helvetica" font-size="14" lengthAdjust="spacing" textLength="266.8955" x="680.4034" y="463.7803">Persist the resolved or created OCI identity</text><text fill="#0F172A" font-family="Helvetica" font-size="14" lengthAdjust="spacing" textLength="63.8135" x="680.4034" y="477.7803">into status</text><polygon fill="#E2E8F0" points="662.3854,497,674.3854,509,662.3854,521,650.3854,509,662.3854,497" style="stroke:#1D4ED8;stroke-width:0.5;"/><polygon fill="#E2E8F0" points="600.2091,553,724.5616,553,736.5616,565,724.5616,577,600.2091,577,588.2091,565,600.2091,553" style="stroke:#1D4ED8;stroke-width:0.5;"/><text fill="#0F172A" font-family="Helvetica" font-size="14" lengthAdjust="spacing" textLength="124.3525" x="600.2091" y="568.7803">"Delete requested?"</text><text fill="#000000" font-family="Helvetica" font-size="14" lengthAdjust="spacing" textLength="21.7861" x="566.423" y="561.7803">yes</text><text fill="#000000" font-family="Helvetica" font-size="14" lengthAdjust="spacing" textLength="15.5723" x="736.5616" y="561.7803">no</text><rect fill="none" height="363" rx="8" ry="8" style="stroke:#000000;stroke-width:1.5;" width="644.4814" x="11" y="587"/><path d="M61.4688,587 L61.4688,594 L51.4688,604 L11,604" fill="none" style="stroke:#000000;stroke-width:1.5;"/><text fill="#000000" font-family="Helvetica" font-size="14" lengthAdjust="spacing" textLength="40.4688" x="14" y="598.7803">Delete</text><rect fill="#F8FAFC" height="76" rx="8" ry="8" style="stroke:#0F172A;stroke-width:0.5;" width="321.9639" x="178.7622" y="621"/><text fill="#0F172A" font-family="Helvetica" font-size="14" lengthAdjust="spacing" textLength="301.9639" x="188.7622" y="641.7803">Delete path uses DeleteDatasciencePipelineRun</text><text fill="#0F172A" font-family="Helvetica" font-size="14" lengthAdjust="spacing" textLength="297.2676" x="188.7622" y="655.7803">with required via GetDatasciencePipelineRun or</text><text fill="#0F172A" font-family="Helvetica" font-size="14" lengthAdjust="spacing" textLength="258.3506" x="188.7622" y="669.7803">ListDatasciencePipelineRun to DELETED</text><text fill="#0F172A" font-family="Helvetica" font-size="14" lengthAdjust="spacing" textLength="76.2549" x="188.7622" y="683.7803">confirmation</text><rect fill="#F8FAFC" height="62" rx="8" ry="8" style="stroke:#0F172A;stroke-width:0.5;" width="322.7158" x="178.3862" y="732"/><text fill="#0F172A" font-family="Helvetica" font-size="14" lengthAdjust="spacing" textLength="302.7158" x="188.3862" y="752.7803">Confirm deletion via GetDatasciencePipelineRun</text><text fill="#0F172A" font-family="Helvetica" font-size="14" lengthAdjust="spacing" textLength="249.0127" x="188.3862" y="766.7803">or ListDatasciencePipelineRun until OCI</text><text fill="#0F172A" font-family="Helvetica" font-size="14" lengthAdjust="spacing" textLength="118.2686" x="188.3862" y="780.7803">reaches DELETED</text><polygon fill="#E2E8F0" points="191.5718,826,487.9165,826,499.9165,838,487.9165,850,191.5718,850,179.5718,838,191.5718,826" style="stroke:#1D4ED8;stroke-width:0.5;"/><text fill="#0F172A" font-family="Helvetica" font-size="14" lengthAdjust="spacing" textLength="296.3447" x="191.5718" y="841.7803">"Delete cleanup and finalizer release succeed?"</text><text fill="#000000" font-family="Helvetica" font-size="14" lengthAdjust="spacing" textLength="21.7861" x="157.7856" y="834.7803">yes</text><text fill="#000000" font-family="Helvetica" font-size="14" lengthAdjust="spacing" textLength="15.5723" x="499.9165" y="834.7803">no</text><rect fill="#F8FAFC" height="34" rx="8" ry="8" style="stroke:#0F172A;stroke-width:0.5;" width="293.1436" x="23" y="860"/><text fill="#0F172A" font-family="Helvetica" font-size="14" lengthAdjust="spacing" textLength="273.1436" x="33" y="880.7803">Remove the finalizer after delete completion</text><rect fill="#F8FAFC" height="48" rx="8" ry="8" style="stroke:#0F172A;stroke-width:0.5;" width="251.1299" x="384.3516" y="860"/><text fill="#0F172A" font-family="Helvetica" font-size="14" lengthAdjust="spacing" textLength="231.1299" x="394.3516" y="880.7803">Stay blocked until cleanup or finalizer</text><text fill="#0F172A" font-family="Helvetica" font-size="14" lengthAdjust="spacing" textLength="108.9512" x="394.3516" y="894.7803">release succeeds</text><polygon fill="#E2E8F0" points="339.7441,914,351.7441,926,339.7441,938,327.7441,926,339.7441,914" style="stroke:#1D4ED8;stroke-width:0.5;"/><ellipse cx="339.7441" cy="996" fill="none" rx="11" ry="11" style="stroke:#222222;stroke-width:1;"/><ellipse cx="339.7441" cy="996" fill="#222222" rx="6" ry="6" style="stroke:#222222;stroke-width:1;"/><rect fill="none" height="440" rx="8" ry="8" style="stroke:#000000;stroke-width:1.5;" width="345.916" x="818.0686" y="587"/><path d="M968.9026,587 L968.9026,594 L958.9026,604 L818.0686,604" fill="none" style="stroke:#000000;stroke-width:1.5;"/><text fill="#000000" font-family="Helvetica" font-size="14" lengthAdjust="spacing" textLength="140.834" x="821.0686" y="598.7803">Lifecycle Classification</text><rect fill="#F8FAFC" height="48" rx="8" ry="8" style="stroke:#0F172A;stroke-width:0.5;" width="280.5928" x="844.7302" y="670"/><text fill="#0F172A" font-family="Helvetica" font-size="14" lengthAdjust="spacing" textLength="240.4541" x="854.7302" y="690.7803">Request requeue while OCI remains in</text><text fill="#0F172A" font-family="Helvetica" font-size="14" lengthAdjust="spacing" textLength="260.5928" x="854.7302" y="704.7803">PROVISIONING, UPDATING, DELETING</text><ellipse cx="985.0266" cy="764" fill="none" rx="11" ry="11" style="stroke:#222222;stroke-width:1;"/><ellipse cx="985.0266" cy="764" fill="#222222" rx="6" ry="6" style="stroke:#222222;stroke-width:1;"/><polygon fill="#E2E8F0" points="898.7434,621,1071.3098,621,1083.3098,633,1071.3098,645,898.7434,645,886.7434,633,898.7434,621" style="stroke:#1D4ED8;stroke-width:0.5;"/><text fill="#000000" font-family="Helvetica" font-size="14" lengthAdjust="spacing" textLength="21.7861" x="989.0266" y="655.7803">yes</text><text fill="#0F172A" font-family="Helvetica" font-size="14" lengthAdjust="spacing" textLength="172.5664" x="898.7434" y="636.7803">"OCI state in retryable set?"</text><rect fill="#F8FAFC" height="48" rx="8" ry="8" style="stroke:#0F172A;stroke-width:0.5;" width="293.916" x="838.0686" y="887"/><text fill="#0F172A" font-family="Helvetica" font-size="14" lengthAdjust="spacing" textLength="273.916" x="848.0686" y="907.7803">Return an unsuccessful reconcile result until</text><text fill="#0F172A" font-family="Helvetica" font-size="14" lengthAdjust="spacing" textLength="133.041" x="848.0686" y="921.7803">OCI reaches ACTIVE</text><ellipse cx="985.0266" cy="973" fill="none" rx="11" ry="11" style="stroke:#222222;stroke-width:1;"/><ellipse cx="985.0266" cy="973" fill="#222222" rx="6" ry="6" style="stroke:#222222;stroke-width:1;"/><polygon fill="#E2E8F0" points="864.5056,838,1105.5476,838,1117.5476,850,1105.5476,862,864.5056,862,852.5056,850,864.5056,838" style="stroke:#1D4ED8;stroke-width:0.5;"/><text fill="#000000" font-family="Helvetica" font-size="14" lengthAdjust="spacing" textLength="21.7861" x="989.0266" y="872.7803">yes</text><text fill="#0F172A" font-family="Helvetica" font-size="14" lengthAdjust="spacing" textLength="241.042" x="864.5056" y="853.7803">"OCI state is outside success targets?"</text><rect fill="none" height="722.5" rx="8" ry="8" style="stroke:#000000;stroke-width:1.5;" width="557.3975" x="675.4814" y="1037"/><path d="M841.9014,1037 L841.9014,1044 L831.9014,1054 L675.4814,1054" fill="none" style="stroke:#000000;stroke-width:1.5;"/><text fill="#000000" font-family="Helvetica" font-size="14" lengthAdjust="spacing" textLength="156.4199" x="678.4814" y="1048.7803">Ready and Drift Handling</text><rect fill="#F8FAFC" height="48" rx="8" ry="8" style="stroke:#0F172A;stroke-width:0.5;" width="296.2402" x="836.9065" y="1071"/><text fill="#0F172A" font-family="Helvetica" font-size="14" lengthAdjust="spacing" textLength="276.2402" x="846.9065" y="1091.7803">Compare live OCI state against the imported</text><text fill="#0F172A" font-family="Helvetica" font-size="14" lengthAdjust="spacing" textLength="75.4824" x="846.9065" y="1105.7803">field surface</text><rect fill="#F8FAFC" height="48" rx="8" ry="8" style="stroke:#0F172A;stroke-width:0.5;" width="302.4473" x="833.803" y="1188"/><text fill="#0F172A" font-family="Helvetica" font-size="14" lengthAdjust="spacing" textLength="282.4473" x="843.803" y="1208.7803">Reject drift before OCI mutation for force-new</text><text fill="#0F172A" font-family="Helvetica" font-size="14" lengthAdjust="spacing" textLength="136.9512" x="843.803" y="1222.7803">fields compartment_id</text><ellipse cx="985.0266" cy="1268.5" fill="none" rx="11" ry="11" style="stroke:#222222;stroke-width:1;"/><ellipse cx="985.0266" cy="1268.5" fill="#222222" rx="6" ry="6" style="stroke:#222222;stroke-width:1;"/><polygon fill="#E2E8F0" points="859.4436,1139,1110.6096,1139,1122.6096,1151,1110.6096,1163,859.4436,1163,847.4436,1151,859.4436,1139" style="stroke:#1D4ED8;stroke-width:0.5;"/><text fill="#000000" font-family="Helvetica" font-size="14" lengthAdjust="spacing" textLength="21.7861" x="989.0266" y="1173.7803">yes</text><text fill="#0F172A" font-family="Helvetica" font-size="14" lengthAdjust="spacing" textLength="251.166" x="859.4436" y="1154.7803">"Force-new or conflicting drift detected?"</text><polygon fill="#E2E8F0" points="874.5989,1321.5,1095.4543,1321.5,1107.4543,1333.5,1095.4543,1345.5,874.5989,1345.5,862.5989,1333.5,874.5989,1321.5" style="stroke:#1D4ED8;stroke-width:0.5;"/><text fill="#0F172A" font-family="Helvetica" font-size="14" lengthAdjust="spacing" textLength="220.8555" x="874.5989" y="1337.2803">"Supported mutable drift detected?"</text><text fill="#000000" font-family="Helvetica" font-size="14" lengthAdjust="spacing" textLength="21.7861" x="840.8127" y="1330.2803">yes</text><text fill="#000000" font-family="Helvetica" font-size="14" lengthAdjust="spacing" textLength="15.5723" x="1107.4543" y="1330.2803">no</text><rect fill="#F8FAFC" height="48" rx="8" ry="8" style="stroke:#0F172A;stroke-width:0.5;" width="306.3916" x="695.4814" y="1355.5"/><text fill="#0F172A" font-family="Helvetica" font-size="14" lengthAdjust="spacing" textLength="286.3916" x="705.4814" y="1376.2803">Apply UpdateDatasciencePipelineRun only for</text><text fill="#0F172A" font-family="Helvetica" font-size="14" lengthAdjust="spacing" textLength="176.6543" x="705.4814" y="1390.2803">mutable fields display_name</text><rect fill="#F8FAFC" height="34" rx="8" ry="8" style="stroke:#0F172A;stroke-width:0.5;" width="199.0059" x="1021.873" y="1355.5"/><text fill="#0F172A" font-family="Helvetica" font-size="14" lengthAdjust="spacing" textLength="179.0059" x="1031.873" y="1376.2803">Skip the no-op mutation path</text><polygon fill="#E2E8F0" points="985.0266,1409.5,997.0266,1421.5,985.0266,1433.5,973.0266,1421.5,985.0266,1409.5" style="stroke:#1D4ED8;stroke-width:0.5;"/><rect fill="#F8FAFC" height="118" rx="8" ry="8" style="stroke:#0F172A;stroke-width:0.5;" width="334.3164" x="817.8684" y="1453.5"/><text fill="#0F172A" font-family="Helvetica" font-size="14" lengthAdjust="spacing" textLength="164.2061" x="827.8684" y="1474.2803">Run provider helper hooks</text><text fill="#0F172A" font-family="Helvetica" font-size="14" lengthAdjust="spacing" textLength="219.0508" x="827.8684" y="1488.2803">create=tfresource.CreateResource,</text><text fill="#0F172A" font-family="Helvetica" font-size="14" lengthAdjust="spacing" textLength="314.3164" x="827.8684" y="1502.2803">tfresource.WaitForWorkRequestWithErrorHandling</text><text fill="#0F172A" font-family="Helvetica" font-size="14" lengthAdjust="spacing" textLength="215.5439" x="827.8684" y="1516.2803">entity=template action=CREATED;</text><text fill="#0F172A" font-family="Helvetica" font-size="14" lengthAdjust="spacing" textLength="226.085" x="827.8684" y="1530.2803">update=tfresource.UpdateResource;</text><text fill="#0F172A" font-family="Helvetica" font-size="14" lengthAdjust="spacing" textLength="273.5537" x="827.8684" y="1544.2803">delete=tfresource.DeleteResource when the</text><text fill="#0F172A" font-family="Helvetica" font-size="14" lengthAdjust="spacing" textLength="220.2334" x="827.8684" y="1558.2803">matching field-driven path executes</text><rect fill="#F8FAFC" height="34" rx="8" ry="8" style="stroke:#0F172A;stroke-width:0.5;" width="303.2197" x="833.4167" y="1591.5"/><text fill="#0F172A" font-family="Helvetica" font-size="14" lengthAdjust="spacing" textLength="283.2197" x="843.4167" y="1612.2803">Return success for the ACTIVE success state</text><rect fill="#F8FAFC" height="48" rx="8" ry="8" style="stroke:#0F172A;stroke-width:0.5;" width="279.1299" x="845.4617" y="1645.5"/><text fill="#0F172A" font-family="Helvetica" font-size="14" lengthAdjust="spacing" textLength="259.1299" x="855.4617" y="1666.2803">Project required status and finalizer policy</text><text fill="#0F172A" font-family="Helvetica" font-size="14" lengthAdjust="spacing" textLength="174.3027" x="855.4617" y="1680.2803">retain-until-confirmed-delete</text><rect fill="#F8FAFC" height="34" rx="8" ry="8" style="stroke:#0F172A;stroke-width:0.5;" width="313.4189" x="828.3171" y="1713.5"/><text fill="#0F172A" font-family="Helvetica" font-size="14" lengthAdjust="spacing" textLength="293.4189" x="838.3171" y="1734.2803">Requeue on provisioning, updating, terminating</text><path d="M693.3854,1769.5 L693.3854,1987.5 L673.3854,1991.5 L693.3854,1995.5 L693.3854,2213.5 A0,0 0 0 0 693.3854,2213.5 L1010.067,2213.5 A0,0 0 0 0 1010.067,2213.5 L1010.067,1779.5 L1000.067,1769.5 L693.3854,1769.5 A0,0 0 0 0 693.3854,1769.5" fill="#FFF7D6" style="stroke:#B45309;stroke-width:0.5;"/><path d="M1000.067,1769.5 L1000.067,1779.5 L1010.067,1779.5 L1000.067,1769.5" fill="#FFF7D6" style="stroke:#B45309;stroke-width:0.5;"/><text fill="#334155" font-family="Helvetica" font-size="14" lengthAdjust="spacing" textLength="101.165" x="699.3854" y="1785.2803">shared diagram:</text><text fill="#334155" font-family="Helvetica" font-size="14" lengthAdjust="spacing" textLength="284.7852" x="699.3854" y="1799.2803">shared/diagrams/shared-reconcile-activity.svg</text><text fill="#334155" font-family="Helvetica" font-size="14" lengthAdjust="spacing" textLength="265.3438" x="699.3854" y="1813.2803">Start from the shared reconcile activity and</text><text fill="#334155" font-family="Helvetica" font-size="14" lengthAdjust="spacing" textLength="273.8955" x="699.3854" y="1827.2803">specialize provider-backed CRUD, wait, and</text><text fill="#334155" font-family="Helvetica" font-size="14" lengthAdjust="spacing" textLength="182.875" x="699.3854" y="1841.2803">status-projection details here.</text><text fill="#334155" font-family="Helvetica" font-size="14" lengthAdjust="spacing" textLength="229.5371" x="699.3854" y="1855.2803">Controller-local activity diagrams add</text><text fill="#334155" font-family="Helvetica" font-size="14" lengthAdjust="spacing" textLength="238.8955" x="699.3854" y="1869.2803">list-lookup hints, secret policies, delete</text><text fill="#334155" font-family="Helvetica" font-size="14" lengthAdjust="spacing" textLength="200.0332" x="699.3854" y="1883.2803">handling, and open formal gaps.</text><text fill="#334155" font-family="Helvetica" font-size="14" lengthAdjust="spacing" textLength="281.709" x="699.3854" y="1897.2803">archetype batch: Generated service-manager</text><text fill="#334155" font-family="Helvetica" font-size="14" lengthAdjust="spacing" textLength="291.0469" x="699.3854" y="1911.2803">controllers specialize the shared reconcile path</text><text fill="#334155" font-family="Helvetica" font-size="14" lengthAdjust="spacing" textLength="189.8477" x="699.3854" y="1925.2803">with formal runtime ownership.</text><text fill="#334155" font-family="Helvetica" font-size="14" lengthAdjust="spacing" textLength="126.8408" x="699.3854" y="1939.2803">service: datascience</text><text fill="#334155" font-family="Helvetica" font-size="14" lengthAdjust="spacing" textLength="176.6748" x="699.3854" y="1953.2803">slug: datasciencepipelinerun</text><text fill="#334155" font-family="Helvetica" font-size="14" lengthAdjust="spacing" textLength="185.999" x="699.3854" y="1967.2803">kind: DatasciencePipelineRun</text><text fill="#334155" font-family="Helvetica" font-size="14" lengthAdjust="spacing" textLength="241.2402" x="699.3854" y="1981.2803">archetype: generated-service-manager</text><text fill="#334155" font-family="Helvetica" font-size="14" lengthAdjust="spacing" textLength="156.4063" x="699.3854" y="1995.2803">status/finalizer: required /</text><text fill="#334155" font-family="Helvetica" font-size="14" lengthAdjust="spacing" textLength="174.3027" x="699.3854" y="2009.2803">retain-until-confirmed-delete</text><text fill="#334155" font-family="Helvetica" font-size="14" lengthAdjust="spacing" textLength="272.3984" x="699.3854" y="2023.2803">requeue: provisioning, updating, terminating</text><text fill="#334155" font-family="Helvetica" font-size="14" lengthAdjust="spacing" textLength="295.6816" x="699.3854" y="2037.2803">provider states: create PROVISIONING; update</text><text fill="#334155" font-family="Helvetica" font-size="14" lengthAdjust="spacing" textLength="192.165" x="699.3854" y="2051.2803">UPDATING; delete DELETING</text><text fill="#334155" font-family="Helvetica" font-size="14" lengthAdjust="spacing" textLength="183.6611" x="699.3854" y="2065.2803">supported drift: display_name</text><text fill="#334155" font-family="Helvetica" font-size="14" lengthAdjust="spacing" textLength="230.3301" x="699.3854" y="2079.2803">reject before mutate: force-new fields</text><text fill="#334155" font-family="Helvetica" font-size="14" lengthAdjust="spacing" textLength="100.3789" x="699.3854" y="2093.2803">compartment_id</text><text fill="#334155" font-family="Helvetica" font-size="14" lengthAdjust="spacing" textLength="66.1445" x="699.3854" y="2107.2803">list lookup:</text><text fill="#334155" font-family="Helvetica" font-size="14" lengthAdjust="spacing" textLength="281.75" x="699.3854" y="2121.2803">scaffold_datascience_datasciencepipelinerun</text><text fill="#334155" font-family="Helvetica" font-size="14" lengthAdjust="spacing" textLength="175.8477" x="699.3854" y="2135.2803">filters compartment_id, state</text><text fill="#334155" font-family="Helvetica" font-size="14" lengthAdjust="spacing" textLength="89.4961" x="699.3854" y="2149.2803">conflicts: none</text><text fill="#334155" font-family="Helvetica" font-size="14" lengthAdjust="spacing" textLength="104.3164" x="699.3854" y="2163.2803">open gaps: none</text><text fill="#334155" font-family="Helvetica" font-size="14" lengthAdjust="spacing" textLength="224.9023" x="699.3854" y="2177.2803">Scaffold metadata only; replace with</text><text fill="#334155" font-family="Helvetica" font-size="14" lengthAdjust="spacing" textLength="244.3232" x="699.3854" y="2191.2803">controller-specific runtime states before</text><text fill="#334155" font-family="Helvetica" font-size="14" lengthAdjust="spacing" textLength="66.1445" x="699.3854" y="2205.2803">promotion.</text><ellipse cx="662.3854" cy="1991.5" fill="none" rx="11" ry="11" style="stroke:#222222;stroke-width:1;"/><ellipse cx="662.3854" cy="1991.5" fill="#222222" rx="6" ry="6" style="stroke:#222222;stroke-width:1;"/><line style="stroke:#0F172A;stroke-width:1;" x1="662.3854" x2="662.3854" y1="157" y2="177"/><polygon fill="#0F172A" points="658.3854,167,662.3854,177,666.3854,167,662.3854,171" style="stroke:#0F172A;stroke-width:1;"/><line style="stroke:#0F172A;stroke-width:1;" x1="813.8512" x2="813.8512" y1="341" y2="361"/><polygon fill="#0F172A" points="809.8512,351,813.8512,361,817.8512,351,813.8512,355" style="stroke:#0F172A;stroke-width:1;"/><line style="stroke:#0F172A;stroke-width:1;" x1="813.8512" x2="813.8512" y1="423" y2="443"/><polygon fill="#0F172A" points="809.8512,433,813.8512,443,817.8512,433,813.8512,437" style="stroke:#0F172A;stroke-width:1;"/><line style="stroke:#0F172A;stroke-width:1;" x1="520.9196" x2="510.9196" y1="257" y2="257"/><line style="stroke:#0F172A;stroke-width:1;" x1="510.9196" x2="510.9196" y1="257" y2="279"/><polygon fill="#0F172A" points="506.9196,269,510.9196,279,514.9196,269,510.9196,273" style="stroke:#0F172A;stroke-width:1;"/><line style="stroke:#0F172A;stroke-width:1;" x1="803.8512" x2="813.8512" y1="257" y2="257"/><line style="stroke:#0F172A;stroke-width:1;" x1="813.8512" x2="813.8512" y1="257" y2="279"/><polygon fill="#0F172A" points="809.8512,269,813.8512,279,817.8512,269,813.8512,273" style="stroke:#0F172A;stroke-width:1;"/><line style="stroke:#0F172A;stroke-width:1;" x1="510.9196" x2="510.9196" y1="327" y2="509"/><line style="stroke:#0F172A;stroke-width:1;" x1="510.9196" x2="650.3854" y1="509" y2="509"/><polygon fill="#0F172A" points="640.3854,505,650.3854,509,640.3854,513,644.3854,509" style="stroke:#0F172A;stroke-width:1;"/><line style="stroke:#0F172A;stroke-width:1;" x1="813.8512" x2="813.8512" y1="491" y2="509"/><line style="stroke:#0F172A;stroke-width:1;" x1="813.8512" x2="674.3854" y1="509" y2="509"/><polygon fill="#0F172A" points="684.3854,505,674.3854,509,684.3854,513,680.3854,509" style="stroke:#0F172A;stroke-width:1;"/><line style="stroke:#0F172A;stroke-width:1;" x1="662.3854" x2="662.3854" y1="225" y2="245"/><polygon fill="#0F172A" points="658.3854,235,662.3854,245,666.3854,235,662.3854,239" style="stroke:#0F172A;stroke-width:1;"/><line style="stroke:#0F172A;stroke-width:1;" x1="662.3854" x2="662.3854" y1="65" y2="109"/><polygon fill="#0F172A" points="658.3854,99,662.3854,109,666.3854,99,662.3854,103" style="stroke:#0F172A;stroke-width:1;"/><line style="stroke:#0F172A;stroke-width:1;" x1="339.7441" x2="339.7441" y1="697" y2="732"/><polygon fill="#0F172A" points="335.7441,722,339.7441,732,343.7441,722,339.7441,726" style="stroke:#0F172A;stroke-width:1;"/><line style="stroke:#0F172A;stroke-width:1;" x1="179.5718" x2="169.5718" y1="838" y2="838"/><line style="stroke:#0F172A;stroke-width:1;" x1="169.5718" x2="169.5718" y1="838" y2="860"/><polygon fill="#0F172A" points="165.5718,850,169.5718,860,173.5718,850,169.5718,854" style="stroke:#0F172A;stroke-width:1;"/><line style="stroke:#0F172A;stroke-width:1;" x1="499.9165" x2="509.9165" y1="838" y2="838"/><line style="stroke:#0F172A;stroke-width:1;" x1="509.9165" x2="509.9165" y1="838" y2="860"/><polygon fill="#0F172A" points="505.9165,850,509.9165,860,513.9165,850,509.9165,854" style="stroke:#0F172A;stroke-width:1;"/><line style="stroke:#0F172A;stroke-width:1;" x1="169.5718" x2="169.5718" y1="894" y2="926"/><line style="stroke:#0F172A;stroke-width:1;" x1="169.5718" x2="327.7441" y1="926" y2="926"/><polygon fill="#0F172A" points="317.7441,922,327.7441,926,317.7441,930,321.7441,926" style="stroke:#0F172A;stroke-width:1;"/><line style="stroke:#0F172A;stroke-width:1;" x1="509.9165" x2="509.9165" y1="908" y2="926"/><line style="stroke:#0F172A;stroke-width:1;" x1="509.9165" x2="351.7441" y1="926" y2="926"/><polygon fill="#0F172A" points="361.7441,922,351.7441,926,361.7441,930,357.7441,926" style="stroke:#0F172A;stroke-width:1;"/><line style="stroke:#0F172A;stroke-width:1;" x1="339.7441" x2="339.7441" y1="794" y2="826"/><polygon fill="#0F172A" points="335.7441,816,339.7441,826,343.7441,816,339.7441,820" style="stroke:#0F172A;stroke-width:1;"/><line style="stroke:#0F172A;stroke-width:1;" x1="339.7441" x2="339.7441" y1="938" y2="985"/><polygon fill="#0F172A" points="335.7441,975,339.7441,985,343.7441,975,339.7441,979" style="stroke:#0F172A;stroke-width:1;"/><line style="stroke:#0F172A;stroke-width:1;" x1="985.0266" x2="985.0266" y1="718" y2="753"/><polygon fill="#0F172A" points="981.0266,743,985.0266,753,989.0266,743,985.0266,747" style="stroke:#0F172A;stroke-width:1;"/><line style="stroke:#0F172A;stroke-width:1;" x1="985.0266" x2="985.0266" y1="645" y2="670"/><polygon fill="#0F172A" points="981.0266,660,985.0266,670,989.0266,660,985.0266,664" style="stroke:#0F172A;stroke-width:1;"/><line style="stroke:#0F172A;stroke-width:1;" x1="1083.3098" x2="1135.323" y1="633" y2="633"/><polygon fill="#0F172A" points="1131.323,709.5,1135.323,719.5,1139.323,709.5,1135.323,713.5" style="stroke:#0F172A;stroke-width:1;"/><line style="stroke:#0F172A;stroke-width:1;" x1="1135.323" x2="1135.323" y1="633" y2="806"/><line style="stroke:#0F172A;stroke-width:1;" x1="1135.323" x2="985.0266" y1="806" y2="806"/><line style="stroke:#0F172A;stroke-width:1;" x1="985.0266" x2="985.0266" y1="806" y2="838"/><polygon fill="#0F172A" points="981.0266,828,985.0266,838,989.0266,828,985.0266,832" style="stroke:#0F172A;stroke-width:1;"/><line style="stroke:#0F172A;stroke-width:1;" x1="985.0266" x2="985.0266" y1="935" y2="962"/><polygon fill="#0F172A" points="981.0266,952,985.0266,962,989.0266,952,985.0266,956" style="stroke:#0F172A;stroke-width:1;"/><line style="stroke:#0F172A;stroke-width:1;" x1="985.0266" x2="985.0266" y1="862" y2="887"/><polygon fill="#0F172A" points="981.0266,877,985.0266,887,989.0266,877,985.0266,881" style="stroke:#0F172A;stroke-width:1;"/><line style="stroke:#0F172A;stroke-width:1;" x1="1117.5476" x2="1141.9846" y1="850" y2="850"/><polygon fill="#0F172A" points="1137.9846,926.5,1141.9846,936.5,1145.9846,926.5,1141.9846,930.5" style="stroke:#0F172A;stroke-width:1;"/><line style="stroke:#0F172A;stroke-width:1;" x1="1141.9846" x2="1141.9846" y1="850" y2="1015"/><line style="stroke:#0F172A;stroke-width:1;" x1="1141.9846" x2="985.0266" y1="1015" y2="1015"/><line style="stroke:#0F172A;stroke-width:1;" x1="985.0266" x2="985.0266" y1="1015" y2="1071"/><polygon fill="#0F172A" points="981.0266,1061,985.0266,1071,989.0266,1061,985.0266,1065" style="stroke:#0F172A;stroke-width:1;"/><line style="stroke:#0F172A;stroke-width:1;" x1="985.0266" x2="985.0266" y1="1236" y2="1257.5"/><polygon fill="#0F172A" points="981.0266,1247.5,985.0266,1257.5,989.0266,1247.5,985.0266,1251.5" style="stroke:#0F172A;stroke-width:1;"/><line style="stroke:#0F172A;stroke-width:1;" x1="985.0266" x2="985.0266" y1="1163" y2="1188"/><polygon fill="#0F172A" points="981.0266,1178,985.0266,1188,989.0266,1178,985.0266,1182" style="stroke:#0F172A;stroke-width:1;"/><line style="stroke:#0F172A;stroke-width:1;" x1="1122.6096" x2="1146.2502" y1="1151" y2="1151"/><polygon fill="#0F172A" points="1142.2502,1227.5,1146.2502,1237.5,1150.2502,1227.5,1146.2502,1231.5" style="stroke:#0F172A;stroke-width:1;"/><line style="stroke:#0F172A;stroke-width:1;" x1="1146.2502" x2="1146.2502" y1="1151" y2="1301.5"/><line style="stroke:#0F172A;stroke-width:1;" x1="1146.2502" x2="985.0266" y1="1301.5" y2="1301.5"/><line style="stroke:#0F172A;stroke-width:1;" x1="985.0266" x2="985.0266" y1="1301.5" y2="1321.5"/><polygon fill="#0F172A" points="981.0266,1311.5,985.0266,1321.5,989.0266,1311.5,985.0266,1315.5" style="stroke:#0F172A;stroke-width:1;"/><line style="stroke:#0F172A;stroke-width:1;" x1="985.0266" x2="985.0266" y1="1119" y2="1139"/><polygon fill="#0F172A" points="981.0266,1129,985.0266,1139,989.0266,1129,985.0266,1133" style="stroke:#0F172A;stroke-width:1;"/><line style="stroke:#0F172A;stroke-width:1;" x1="862.5989" x2="848.6772" y1="1333.5" y2="1333.5"/><line style="stroke:#0F172A;stroke-width:1;" x1="848.6772" x2="848.6772" y1="1333.5" y2="1355.5"/><polygon fill="#0F172A" points="844.6772,1345.5,848.6772,1355.5,852.6772,1345.5,848.6772,1349.5" style="stroke:#0F172A;stroke-width:1;"/><line style="stroke:#0F172A;stroke-width:1;" x1="1107.4543" x2="1121.376" y1="1333.5" y2="1333.5"/><line style="stroke:#0F172A;stroke-width:1;" x1="1121.376" x2="1121.376" y1="1333.5" y2="1355.5"/><polygon fill="#0F172A" points="1117.376,1345.5,1121.376,1355.5,1125.376,1345.5,1121.376,1349.5" style="stroke:#0F172A;stroke-width:1;"/><line style="stroke:#0F172A;stroke-width:1;" x1="848.6772" x2="848.6772" y1="1403.5" y2="1421.5"/><line style="stroke:#0F172A;stroke-width:1;" x1="848.6772" x2="973.0266" y1="1421.5" y2="1421.5"/><polygon fill="#0F172A" points="963.0266,1417.5,973.0266,1421.5,963.0266,1425.5,967.0266,1421.5" style="stroke:#0F172A;stroke-width:1;"/><line style="stroke:#0F172A;stroke-width:1;" x1="1121.376" x2="1121.376" y1="1389.5" y2="1421.5"/><line style="stroke:#0F172A;stroke-width:1;" x1="1121.376" x2="997.0266" y1="1421.5" y2="1421.5"/><polygon fill="#0F172A" points="1007.0266,1417.5,997.0266,1421.5,1007.0266,1425.5,1003.0266,1421.5" style="stroke:#0F172A;stroke-width:1;"/><line style="stroke:#0F172A;stroke-width:1;" x1="985.0266" x2="985.0266" y1="1433.5" y2="1453.5"/><polygon fill="#0F172A" points="981.0266,1443.5,985.0266,1453.5,989.0266,1443.5,985.0266,1447.5" style="stroke:#0F172A;stroke-width:1;"/><line style="stroke:#0F172A;stroke-width:1;" x1="985.0266" x2="985.0266" y1="1571.5" y2="1591.5"/><polygon fill="#0F172A" points="981.0266,1581.5,985.0266,1591.5,989.0266,1581.5,985.0266,1585.5" style="stroke:#0F172A;stroke-width:1;"/><line style="stroke:#0F172A;stroke-width:1;" x1="985.0266" x2="985.0266" y1="1625.5" y2="1645.5"/><polygon fill="#0F172A" points="981.0266,1635.5,985.0266,1645.5,989.0266,1635.5,985.0266,1639.5" style="stroke:#0F172A;stroke-width:1;"/><line style="stroke:#0F172A;stroke-width:1;" x1="985.0266" x2="985.0266" y1="1693.5" y2="1713.5"/><polygon fill="#0F172A" points="981.0266,1703.5,985.0266,1713.5,989.0266,1703.5,985.0266,1707.5" style="stroke:#0F172A;stroke-width:1;"/><line style="stroke:#0F172A;stroke-width:1;" x1="588.2091" x2="339.7441" y1="565" y2="565"/><line style="stroke:#0F172A;stroke-width:1;" x1="339.7441" x2="339.7441" y1="565" y2="621"/><polygon fill="#0F172A" points="335.7441,611,339.7441,621,343.7441,611,339.7441,615" style="stroke:#0F172A;stroke-width:1;"/><line style="stroke:#0F172A;stroke-width:1;" x1="736.5616" x2="985.0266" y1="565" y2="565"/><line style="stroke:#0F172A;stroke-width:1;" x1="985.0266" x2="985.0266" y1="565" y2="621"/><polygon fill="#0F172A" points="981.0266,611,985.0266,621,989.0266,611,985.0266,615" style="stroke:#0F172A;stroke-width:1;"/><line style="stroke:#0F172A;stroke-width:1;" x1="985.0266" x2="985.0266" y1="1747.5" y2="1764.5"/><line style="stroke:#0F172A;stroke-width:1;" x1="985.0266" x2="662.3854" y1="1764.5" y2="1764.5"/><line style="stroke:#0F172A;stroke-width:1;" x1="662.3854" x2="662.3854" y1="1764.5" y2="1980.5"/><polygon fill="#0F172A" points="658.3854,1970.5,662.3854,1980.5,666.3854,1970.5,662.3854,1974.5" style="stroke:#0F172A;stroke-width:1;"/><line style="stroke:#0F172A;stroke-width:1;" x1="662.3854" x2="662.3854" y1="521" y2="553"/><polygon fill="#0F172A" points="658.3854,543,662.3854,553,666.3854,543,662.3854,547" style="stroke:#0F172A;stroke-width:1;"/><?plantuml-src bLTjRzis4FwkNq5aNreWJfg-pqOnf4ww1YYQ84dRBm82MZhPN2XI8obxtj3_leSlacN72JO4GIJnUBnxxhc75tilLCCDhvbTy5AlX9gpYajBcUrNPhoudnlTgdAgfJRibwh0JpcmAAdYhNIVj79VUKtiCyabEL7m_JOtuczY9wy7YzmOlKhUNrGdxruETohjwEE36AhgNVbsrqgRaaoocBr-y-h5hpiM_lYq_khLwvCtRmRhmNsXZIB3JjvcJZX9xBHmOYdScerOoHstXI1LqF7PvlbAD2I5ekjM3JFgzlsJiJq8lgzuLVYLOSGfSyQgJPJzjrBmMglo0H3qajvNBmO6GuydvMigtsyMF-rnR1qtRjUUUl-ztOplUFsPXQqP4WPMGYjsS3cpP9R4k2hPHw7A0wG_ll5Mh38waCnGoIgfLxcAByS8RGx4x75y7nagj2g4f567uP5TpYVP-9fu2HfPuLtiBm2p3HM7kN86CC4A0RhM7ePuIfBaY0dbIBb99YhsxE0ssI4h-gkHeX2ENKulc2XXuwlN6B9u_EtWENCBKkpPckppRFmxEV_EYjOOB8SziDIjAOWj1SyLBFQ7ECa8xSMUAVtSfsIr37ZXV66TRxyjNsw1MiyNkVg2rKToRcteMY4T6PkhGjU-8ZNYkXFbOS200D_K41v2s0_3ZOkF7B3ocIkDBQtbCqcvghah5anOC1LCXFCh78q8WtSJamge5i5lkGLghb03dMe3E5GfAf0f5EGi5idGdorPRDm1Va2rQ1a8bZOrt2q01baMF-pF9bSh0Jj_GY0IqcUF5WifF0azqZWx_t9-UtxcSLULC406uNcuuskadO_uoODo1R2UgZ6Ganx5N07HOk6JZ0TFje0h977LDe7mbL1SGceDaiLdaCwsHK4FG0KBQxsCpDZiuHNer3MDvrHCOuk-wEmrcqaTUYY6s0M0T7fVFkQj00PLjqut0vU30dyH5HLh-6DJoQqL5UuJl-9B7bBsd0haHayZHMVMdfpCadkOOA1Jf5LB83Ja9NL1pOMoy92hg-lBxnSt5vTVBxx-ViY-NPsTteQd03IU9YdO4Fbk19RfrbbGFEPeBOFgpSdPXx6urYZVyQrAfbKhMQzwldrmJqOuSnM3Z1K_dTvUV3_V2kFd434laEjG-ZCZAiS-un44ceSccGPP82R5CgOU0-TpdtziN54tsg3fSZ2N9DIpDHKlA37iauPQZ1IjGb-3tP3B85XbEAm4JmgtZrn_u7iocb6bJJo-Rbqe9oJ4-D_eEnrjsRQAFOJ-fcrYiC6Hh_lJOPmsZLopRqtvkCnf1OlATtpdCiLI2jj8lhvJc6ss-Nylce2SqYFTR5BoIjHHVEnTDqOlmGt35YGR_qVhUo_LGHq_kAeJuwEemzVfrTzacxKVN61yCZ-qkK-4_W4bEyVePBfAvofAx0T7QDXGty97z65wVNxgnI97RvOxPqPGkZDX4fj-Q1BLfJE95mBoJXT1l7u0rGWrM5BC7nSQ5QqZE-avttM6hxX7BVAv_znTL5T61yhq4XrlYXrDQpJuj_RIui3WKMYNKT9WJ14nXqdgVVIyJbMmW0C17x80H7Y2qDNmwrycwAXOjq0uFp8o8-OBbwNH9Kqhu-n_JI_PO0RocITdcwRlnqKacVaXHeGqU-ACPd5GcLv_EpjaAp3XC9e6Q4PDXCnph_HuI0kc6JhAS0ivewM41yWqbvk3ki0PByjCukQ1WRw7SgES3YEJ9R3JHPW5uKD4D5iagiMXIZSKEhY6wpblx5763RJAhHl2m0XkZ77dOQ0EGu2V3GNwlEQApybaHH-SPOESzmBaAPM5cpkTPdp5yR-6Ni6zNOZcA4l-nyD9FREodMzzQLBBmq66SRqSFp9BRZ8PitcNmsWtXrY0uvwNumrjZxCdkPcbssZyNtYPzGeIkiIEqsJ5XfVM9EwbhBkx9jtztLrXcUrbCyZbU4lR455elAJIGSuGNY_EIG-pRMqEv66HF6YBWbULbkNT0F6xHz1F8olREx5ctHM3N9LMb0MgUOwbzvjq4gk1iZyX2FW4-2CXBr8Wou1Yey0m314zSoAIALiFSArz1nrv0GZ_BFuB?></g></svg>