<?plantuml 1.2026.1?><svg xmlns="http://www.w3.org/2000/svg" xmlns:xlink="http://www.w3.org/1999/xlink" contentStyleType="text/css" data-diagram-type="ACTIVITY" height="1385px" preserveAspectRatio="none" style="width:700px;height:1385px;background:#FCFCFD;" version="1.1" viewBox="0 0 700 1385" width="700px" zoomAndPan="magnify"><title>Activity - database/DatabaseExternalContainerDatabase</title><defs/><g><rect fill="#FCFCFD" height="1385" style="stroke:none;stroke-width:1;" width="700" x="0" y="0"/><g class="title" data-source-line="10"><text fill="#000000" font-family="Helvetica" font-size="14" font-weight="bold" lengthAdjust="spacing" textLength="372.6953" x="162.3156" y="30.7803">Activity - database/DatabaseExternalContainerDatabase</text></g><ellipse cx="317.2864" cy="55" fill="#1D4ED8" rx="10" ry="10" style="stroke:#222222;stroke-width:1;"/><rect fill="#F8FAFC" height="48" rx="8" ry="8" style="stroke:#0F172A;stroke-width:0.5;" width="304.7852" x="164.8938" y="85"/><text fill="#0F172A" font-family="Helvetica" font-size="14" lengthAdjust="spacing" textLength="136.9375" x="174.8938" y="105.7803">Start from shared flow</text><text fill="#0F172A" font-family="Helvetica" font-size="14" lengthAdjust="spacing" textLength="284.7852" x="174.8938" y="119.7803">shared/diagrams/shared-reconcile-activity.svg</text><rect fill="#F8FAFC" height="48" rx="8" ry="8" style="stroke:#0F172A;stroke-width:0.5;" width="336.7637" x="148.9045" y="153"/><text fill="#0F172A" font-family="Helvetica" font-size="14" lengthAdjust="spacing" textLength="316.7637" x="158.9045" y="173.7803">Load desired DatabaseExternalContainerDatabase</text><text fill="#0F172A" font-family="Helvetica" font-size="14" lengthAdjust="spacing" textLength="205.4473" x="158.9045" y="187.7803">spec and status from Kubernetes</text><rect fill="#F8FAFC" height="62" rx="8" ry="8" style="stroke:#0F172A;stroke-width:0.5;" width="325.0674" x="154.7527" y="221"/><text fill="#0F172A" font-family="Helvetica" font-size="14" lengthAdjust="spacing" textLength="135.3857" x="164.7527" y="241.7803">Resolve OCI state via</text><text fill="#0F172A" font-family="Helvetica" font-size="14" lengthAdjust="spacing" textLength="283.2744" x="164.7527" y="255.7803">GetDatabaseExternalContainerDatabase with</text><text fill="#0F172A" font-family="Helvetica" font-size="14" lengthAdjust="spacing" textLength="305.0674" x="164.7527" y="269.7803">ListDatabaseExternalContainerDatabase fallback</text><rect fill="#F8FAFC" height="76" rx="8" ry="8" style="stroke:#0F172A;stroke-width:0.5;" width="364.0391" x="135.2668" y="303"/><text fill="#0F172A" font-family="Helvetica" font-size="14" lengthAdjust="spacing" textLength="24.8965" x="145.2668" y="323.7803">Use</text><text fill="#0F172A" font-family="Helvetica" font-size="14" lengthAdjust="spacing" textLength="344.0391" x="145.2668" y="337.7803">scaffold_database_databaseexternalcontainerdatabase</text><text fill="#0F172A" font-family="Helvetica" font-size="14" lengthAdjust="spacing" textLength="297.2402" x="145.2668" y="351.7803">filters compartment_id, state when OCID lookup</text><text fill="#0F172A" font-family="Helvetica" font-size="14" lengthAdjust="spacing" textLength="259.9023" x="145.2668" y="365.7803">or bind-versus-create needs list resolution</text><polygon fill="#E2E8F0" points="263.5969,399,370.9758,399,382.9758,411,370.9758,423,263.5969,423,251.5969,411,263.5969,399" style="stroke:#1D4ED8;stroke-width:0.5;"/><text fill="#0F172A" font-family="Helvetica" font-size="14" lengthAdjust="spacing" textLength="107.3789" x="263.5969" y="414.7803">Resource exists?</text><text fill="#000000" font-family="Helvetica" font-size="14" lengthAdjust="spacing" textLength="21.7861" x="229.8108" y="407.7803">yes</text><text fill="#000000" font-family="Helvetica" font-size="14" lengthAdjust="spacing" textLength="15.5723" x="382.9758" y="407.7803">no</text><rect fill="#F8FAFC" height="48" rx="8" ry="8" style="stroke:#0F172A;stroke-width:0.5;" width="297.0674" x="11" y="433"/><text fill="#0F172A" font-family="Helvetica" font-size="14" lengthAdjust="spacing" textLength="108.1787" x="21" y="453.7803">Update path calls</text><text fill="#0F172A" font-family="Helvetica" font-size="14" lengthAdjust="spacing" textLength="277.0674" x="21" y="467.7803">UpdateDatabaseExternalContainerDatabase</text><rect fill="#F8FAFC" height="48" rx="8" ry="8" style="stroke:#0F172A;stroke-width:0.5;" width="266.7021" x="26.1826" y="501"/><text fill="#0F172A" font-family="Helvetica" font-size="14" lengthAdjust="spacing" textLength="246.7021" x="36.1826" y="521.7803">Guard mutable fields display_name and</text><text fill="#0F172A" font-family="Helvetica" font-size="14" lengthAdjust="spacing" textLength="202.3096" x="36.1826" y="535.7803">force-new fields compartment_id</text><rect fill="#F8FAFC" height="48" rx="8" ry="8" style="stroke:#0F172A;stroke-width:0.5;" width="293.9434" x="328.0674" y="433"/><text fill="#0F172A" font-family="Helvetica" font-size="14" lengthAdjust="spacing" textLength="105.0547" x="338.0674" y="453.7803">Create path calls</text><text fill="#0F172A" font-family="Helvetica" font-size="14" lengthAdjust="spacing" textLength="273.9434" x="338.0674" y="467.7803">CreateDatabaseExternalContainerDatabase</text><polygon fill="#E2E8F0" points="317.2864,555,329.2864,567,317.2864,579,305.2864,567,317.2864,555" style="stroke:#1D4ED8;stroke-width:0.5;"/><rect fill="#F8FAFC" height="104" rx="8" ry="8" style="stroke:#0F172A;stroke-width:0.5;" width="334.3164" x="150.1282" y="599"/><text fill="#0F172A" font-family="Helvetica" font-size="14" lengthAdjust="spacing" textLength="164.2061" x="160.1282" y="619.7803">Run provider helper hooks</text><text fill="#0F172A" font-family="Helvetica" font-size="14" lengthAdjust="spacing" textLength="219.0508" x="160.1282" y="633.7803">create=tfresource.CreateResource,</text><text fill="#0F172A" font-family="Helvetica" font-size="14" lengthAdjust="spacing" textLength="314.3164" x="160.1282" y="647.7803">tfresource.WaitForWorkRequestWithErrorHandling</text><text fill="#0F172A" font-family="Helvetica" font-size="14" lengthAdjust="spacing" textLength="215.5439" x="160.1282" y="661.7803">entity=template action=CREATED;</text><text fill="#0F172A" font-family="Helvetica" font-size="14" lengthAdjust="spacing" textLength="226.085" x="160.1282" y="675.7803">update=tfresource.UpdateResource;</text><text fill="#0F172A" font-family="Helvetica" font-size="14" lengthAdjust="spacing" textLength="212.8438" x="160.1282" y="689.7803">delete=tfresource.DeleteResource</text><rect fill="#F8FAFC" height="34" rx="8" ry="8" style="stroke:#0F172A;stroke-width:0.5;" width="263.5918" x="185.4905" y="723"/><text fill="#0F172A" font-family="Helvetica" font-size="14" lengthAdjust="spacing" textLength="243.5918" x="195.4905" y="743.7803">Apply repo-authored secret policy none</text><rect fill="#F8FAFC" height="104" rx="8" ry="8" style="stroke:#0F172A;stroke-width:0.5;" width="321.1777" x="156.6975" y="777"/><text fill="#0F172A" font-family="Helvetica" font-size="14" lengthAdjust="spacing" textLength="105.0684" x="166.6975" y="797.7803">Delete path uses</text><text fill="#0F172A" font-family="Helvetica" font-size="14" lengthAdjust="spacing" textLength="301.1777" x="166.6975" y="811.7803">DeleteDatabaseExternalContainerDatabase with</text><text fill="#0F172A" font-family="Helvetica" font-size="14" lengthAdjust="spacing" textLength="73.1514" x="166.6975" y="825.7803">required via</text><text fill="#0F172A" font-family="Helvetica" font-size="14" lengthAdjust="spacing" textLength="270.8262" x="166.6975" y="839.7803">GetDatabaseExternalContainerDatabase or</text><text fill="#0F172A" font-family="Helvetica" font-size="14" lengthAdjust="spacing" textLength="269.2744" x="166.6975" y="853.7803">ListDatabaseExternalContainerDatabase to</text><text fill="#0F172A" font-family="Helvetica" font-size="14" lengthAdjust="spacing" textLength="144.7168" x="166.6975" y="867.7803">DELETED confirmation</text><rect fill="#F8FAFC" height="48" rx="8" ry="8" style="stroke:#0F172A;stroke-width:0.5;" width="279.1299" x="177.7214" y="901"/><text fill="#0F172A" font-family="Helvetica" font-size="14" lengthAdjust="spacing" textLength="259.1299" x="187.7214" y="921.7803">Project required status and finalizer policy</text><text fill="#0F172A" font-family="Helvetica" font-size="14" lengthAdjust="spacing" textLength="174.3027" x="187.7214" y="935.7803">retain-until-confirmed-delete</text><rect fill="#F8FAFC" height="34" rx="8" ry="8" style="stroke:#0F172A;stroke-width:0.5;" width="313.4189" x="160.5769" y="969"/><text fill="#0F172A" font-family="Helvetica" font-size="14" lengthAdjust="spacing" textLength="293.4189" x="170.5769" y="989.7803">Requeue on provisioning, updating, terminating</text><path d="M348.2864,1013 L348.2864,1189 L328.2864,1193 L348.2864,1197 L348.2864,1373 A0,0 0 0 0 348.2864,1373 L688.3264,1373 A0,0 0 0 0 688.3264,1373 L688.3264,1023 L678.3264,1013 L348.2864,1013 A0,0 0 0 0 348.2864,1013" fill="#FFF7D6" style="stroke:#B45309;stroke-width:0.5;"/><path d="M678.3264,1013 L678.3264,1023 L688.3264,1023 L678.3264,1013" fill="#FFF7D6" style="stroke:#B45309;stroke-width:0.5;"/><text fill="#334155" font-family="Helvetica" font-size="14" lengthAdjust="spacing" textLength="101.165" x="354.2864" y="1028.7803">shared diagram:</text><text fill="#334155" font-family="Helvetica" font-size="14" lengthAdjust="spacing" textLength="284.7852" x="354.2864" y="1042.7803">shared/diagrams/shared-reconcile-activity.svg</text><text fill="#334155" font-family="Helvetica" font-size="14" lengthAdjust="spacing" textLength="265.3438" x="354.2864" y="1056.7803">Start from the shared reconcile activity and</text><text fill="#334155" font-family="Helvetica" font-size="14" lengthAdjust="spacing" textLength="273.8955" x="354.2864" y="1070.7803">specialize provider-backed CRUD, wait, and</text><text fill="#334155" font-family="Helvetica" font-size="14" lengthAdjust="spacing" textLength="182.875" x="354.2864" y="1084.7803">status-projection details here.</text><text fill="#334155" font-family="Helvetica" font-size="14" lengthAdjust="spacing" textLength="229.5371" x="354.2864" y="1098.7803">Controller-local activity diagrams add</text><text fill="#334155" font-family="Helvetica" font-size="14" lengthAdjust="spacing" textLength="238.8955" x="354.2864" y="1112.7803">list-lookup hints, secret policies, delete</text><text fill="#334155" font-family="Helvetica" font-size="14" lengthAdjust="spacing" textLength="200.0332" x="354.2864" y="1126.7803">handling, and open formal gaps.</text><text fill="#334155" font-family="Helvetica" font-size="14" lengthAdjust="spacing" textLength="281.709" x="354.2864" y="1140.7803">archetype batch: Generated service-manager</text><text fill="#334155" font-family="Helvetica" font-size="14" lengthAdjust="spacing" textLength="291.0469" x="354.2864" y="1154.7803">controllers specialize the shared reconcile path</text><text fill="#334155" font-family="Helvetica" font-size="14" lengthAdjust="spacing" textLength="189.8477" x="354.2864" y="1168.7803">with formal runtime ownership.</text><text fill="#334155" font-family="Helvetica" font-size="14" lengthAdjust="spacing" textLength="109.7305" x="354.2864" y="1182.7803">service: database</text><text fill="#334155" font-family="Helvetica" font-size="14" lengthAdjust="spacing" textLength="256.0742" x="354.2864" y="1196.7803">slug: databaseexternalcontainerdatabase</text><text fill="#334155" font-family="Helvetica" font-size="14" lengthAdjust="spacing" textLength="265.3848" x="354.2864" y="1210.7803">kind: DatabaseExternalContainerDatabase</text><text fill="#334155" font-family="Helvetica" font-size="14" lengthAdjust="spacing" textLength="241.2402" x="354.2864" y="1224.7803">archetype: generated-service-manager</text><text fill="#334155" font-family="Helvetica" font-size="14" lengthAdjust="spacing" textLength="156.4063" x="354.2864" y="1238.7803">status/finalizer: required /</text><text fill="#334155" font-family="Helvetica" font-size="14" lengthAdjust="spacing" textLength="174.3027" x="354.2864" y="1252.7803">retain-until-confirmed-delete</text><text fill="#334155" font-family="Helvetica" font-size="14" lengthAdjust="spacing" textLength="272.3984" x="354.2864" y="1266.7803">requeue: provisioning, updating, terminating</text><text fill="#334155" font-family="Helvetica" font-size="14" lengthAdjust="spacing" textLength="295.6816" x="354.2864" y="1280.7803">provider states: create PROVISIONING; update</text><text fill="#334155" font-family="Helvetica" font-size="14" lengthAdjust="spacing" textLength="192.165" x="354.2864" y="1294.7803">UPDATING; delete DELETING</text><text fill="#334155" font-family="Helvetica" font-size="14" lengthAdjust="spacing" textLength="319.04" x="354.2864" y="1308.7803">mutable/forceNew: display_name / compartment_id</text><text fill="#334155" font-family="Helvetica" font-size="14" lengthAdjust="spacing" textLength="104.3164" x="354.2864" y="1322.7803">open gaps: none</text><text fill="#334155" font-family="Helvetica" font-size="14" lengthAdjust="spacing" textLength="224.9023" x="354.2864" y="1336.7803">Scaffold metadata only; replace with</text><text fill="#334155" font-family="Helvetica" font-size="14" lengthAdjust="spacing" textLength="244.3232" x="354.2864" y="1350.7803">controller-specific runtime states before</text><text fill="#334155" font-family="Helvetica" font-size="14" lengthAdjust="spacing" textLength="66.1445" x="354.2864" y="1364.7803">promotion.</text><ellipse cx="317.2864" cy="1193" fill="none" rx="11" ry="11" style="stroke:#222222;stroke-width:1;"/><ellipse cx="317.2864" cy="1193" fill="#222222" rx="6" ry="6" style="stroke:#222222;stroke-width:1;"/><line style="stroke:#0F172A;stroke-width:1;" x1="317.2864" x2="317.2864" y1="65" y2="85"/><polygon fill="#0F172A" points="313.2864,75,317.2864,85,321.2864,75,317.2864,79" style="stroke:#0F172A;stroke-width:1;"/><line style="stroke:#0F172A;stroke-width:1;" x1="317.2864" x2="317.2864" y1="133" y2="153"/><polygon fill="#0F172A" points="313.2864,143,317.2864,153,321.2864,143,317.2864,147" style="stroke:#0F172A;stroke-width:1;"/><line style="stroke:#0F172A;stroke-width:1;" x1="317.2864" x2="317.2864" y1="201" y2="221"/><polygon fill="#0F172A" points="313.2864,211,317.2864,221,321.2864,211,317.2864,215" style="stroke:#0F172A;stroke-width:1;"/><line style="stroke:#0F172A;stroke-width:1;" x1="317.2864" x2="317.2864" y1="283" y2="303"/><polygon fill="#0F172A" points="313.2864,293,317.2864,303,321.2864,293,317.2864,297" style="stroke:#0F172A;stroke-width:1;"/><line style="stroke:#0F172A;stroke-width:1;" x1="159.5337" x2="159.5337" y1="481" y2="501"/><polygon fill="#0F172A" points="155.5337,491,159.5337,501,163.5337,491,159.5337,495" style="stroke:#0F172A;stroke-width:1;"/><line style="stroke:#0F172A;stroke-width:1;" x1="251.5969" x2="159.5337" y1="411" y2="411"/><line style="stroke:#0F172A;stroke-width:1;" x1="159.5337" x2="159.5337" y1="411" y2="433"/><polygon fill="#0F172A" points="155.5337,423,159.5337,433,163.5337,423,159.5337,427" style="stroke:#0F172A;stroke-width:1;"/><line style="stroke:#0F172A;stroke-width:1;" x1="382.9758" x2="475.0391" y1="411" y2="411"/><line style="stroke:#0F172A;stroke-width:1;" x1="475.0391" x2="475.0391" y1="411" y2="433"/><polygon fill="#0F172A" points="471.0391,423,475.0391,433,479.0391,423,475.0391,427" style="stroke:#0F172A;stroke-width:1;"/><line style="stroke:#0F172A;stroke-width:1;" x1="159.5337" x2="159.5337" y1="549" y2="567"/><line style="stroke:#0F172A;stroke-width:1;" x1="159.5337" x2="305.2864" y1="567" y2="567"/><polygon fill="#0F172A" points="295.2864,563,305.2864,567,295.2864,571,299.2864,567" style="stroke:#0F172A;stroke-width:1;"/><line style="stroke:#0F172A;stroke-width:1;" x1="475.0391" x2="475.0391" y1="481" y2="567"/><line style="stroke:#0F172A;stroke-width:1;" x1="475.0391" x2="329.2864" y1="567" y2="567"/><polygon fill="#0F172A" points="339.2864,563,329.2864,567,339.2864,571,335.2864,567" style="stroke:#0F172A;stroke-width:1;"/><line style="stroke:#0F172A;stroke-width:1;" x1="317.2864" x2="317.2864" y1="379" y2="399"/><polygon fill="#0F172A" points="313.2864,389,317.2864,399,321.2864,389,317.2864,393" style="stroke:#0F172A;stroke-width:1;"/><line style="stroke:#0F172A;stroke-width:1;" x1="317.2864" x2="317.2864" y1="579" y2="599"/><polygon fill="#0F172A" points="313.2864,589,317.2864,599,321.2864,589,317.2864,593" style="stroke:#0F172A;stroke-width:1;"/><line style="stroke:#0F172A;stroke-width:1;" x1="317.2864" x2="317.2864" y1="703" y2="723"/><polygon fill="#0F172A" points="313.2864,713,317.2864,723,321.2864,713,317.2864,717" style="stroke:#0F172A;stroke-width:1;"/><line style="stroke:#0F172A;stroke-width:1;" x1="317.2864" x2="317.2864" y1="757" y2="777"/><polygon fill="#0F172A" points="313.2864,767,317.2864,777,321.2864,767,317.2864,771" style="stroke:#0F172A;stroke-width:1;"/><line style="stroke:#0F172A;stroke-width:1;" x1="317.2864" x2="317.2864" y1="881" y2="901"/><polygon fill="#0F172A" points="313.2864,891,317.2864,901,321.2864,891,317.2864,895" style="stroke:#0F172A;stroke-width:1;"/><line style="stroke:#0F172A;stroke-width:1;" x1="317.2864" x2="317.2864" y1="949" y2="969"/><polygon fill="#0F172A" points="313.2864,959,317.2864,969,321.2864,959,317.2864,963" style="stroke:#0F172A;stroke-width:1;"/><line style="stroke:#0F172A;stroke-width:1;" x1="317.2864" x2="317.2864" y1="1003" y2="1182"/><polygon fill="#0F172A" points="313.2864,1172,317.2864,1182,321.2864,1172,317.2864,1176" style="stroke:#0F172A;stroke-width:1;"/><?plantuml-src bLPHJoCt47xthx3K5qxA9d1mTtGZLD4anw53WE0eBv6GOyzcNRpsrlOcbrRzxnslTpTBZfPKF2Innv_dc_dcC-vPwf9PLb2NCs7MKYzfnfG3uhgT1UFFIsigBIP66Kj_oZZ-YLw4W8nLodyssb-p0kWNK2lmahFNO-xbdq2FJdgRp5gpRj0FiwDFx_idjV7mwmyvPDadyN4tobW1jebOd7muFlnv9o9St-mV7vySVVZGsw_XkR4QB3twIBpq2kWvzt8b_OOcL33F5ip1QDfycNttO3LJ4mHb4e-r6trcxVc_27sbagSPotZOwMVUL83IR9jjjoOaAumMFnG4tiDfTjWBw2CUYHCGfzlDpwy0Ey-itus73h-BMx0TrBz9VPIaz-63PjRKQh8WQARCUgxZZn7UlSIIk57ydLZWHdEf86cBD7IhvPYaLuO9r8kJ0UBDOYD-2PmoBG85NxcOmTTgWV7WmI7Y7JY3agGtayiw2EXAihc-0FycF5rBdy_rbNHxnEBegD1alFAXpeopB3DAFBNQwRv0Wy5R3D7HoQJ2FKUvAL13lW3jdwGOD8clSz21nvGgOvwhSgwn5GkfHRB2GvLBk8KGfm64emhJfZQmhxmqUanaHWz2DIhBWS9tt7Q_lAC-W1vimBt3n4iHpfVCvvGZ7pVNSUbD-iZwec9MqAB21HoUJ8B298HqfMAR9nsy0Vk450rUdsXOjo4lkOu9e0NH0sqmdqdaqyydBksH3yfNPjZ-IjFIcfN4YQ0vg39yOFKGAbRhp6UsASemWhSr6inrR--HINGm-sZiyntyKO7pZwYE6RgN_OB45DhdN2C7rFAPXm9PO-P1tKQVJUvcvzzcq_5SLtKv-tV60hTtOeW01Iz3flLA5qBIyx9K6-njQH9M-To4ON60V3mjZP9yWuQdGs0y6GjOEK3ISMLVwLjaMe_Y_ZDZxBuJumscCxkQOMLG1AXzMx2erFJMcj-11_aszpVZ7IOzauY6puXjk8Oi0t9IOV5LqY2XoSH2rXQ0_QemjKOA3Y_1TWretOtw6-PO86xuCKPFCoK9JmQrSfbxqZXQOs8f-L-cHdhMYBFMscCNl7qca1m9VYPhUfrga-0gU69ozp0Tq3NAS113wv8aPImLKaBVn3eeXpAtC2IXuDOeXGZAuFHiBseJfqm84cmYYNv2Swcz6xoGaWHSY9KaUQFp-dvgIZGEdEO2ePUiT4F2BC_1Rqh0XyBpFAKNWFr6TGTrsfN4kI-OPakmX7V9EThZ_6g1Wdf9q6DxcmsTHZynQuHtkIo7fC5FkvUQE5Kjjp__rNC9FjSYVVkfsP9BwRAbbUpIYZqPTH9DjmeUaV-KAR5HfEa-4YMTezKFWqjfu_otTpU_NTvVtbnVNb-CuraW3xVJys_rGhoAraE72wGnwr7joTUmJb_wzMZ7cqdTyj3hj3OOSj-ySRH0Qg6YE69gCmxEf1YF9j9hTL9tEfEyws1Cdou0Cu30gZ11oSFWtlK_RVy0?></g></svg>