<?plantuml 1.2026.1?><svg xmlns="http://www.w3.org/2000/svg" xmlns:xlink="http://www.w3.org/1999/xlink" contentStyleType="text/css" data-diagram-type="SEQUENCE" height="1301px" preserveAspectRatio="none" style="width:1127px;height:1301px;background:#FCFCFD;" version="1.1" viewBox="0 0 1127 1301" width="1127px" zoomAndPan="magnify"><title>Sequence - datascience/DatascienceModelGroup</title><defs/><g><rect fill="#FCFCFD" height="1301" style="stroke:none;stroke-width:1;" width="1127" x="0" y="0"/><text fill="#000000" font-family="Helvetica" font-size="14" font-weight="bold" lengthAdjust="spacing" textLength="326.7783" x="397.6309" y="25.7803">Sequence - datascience/DatascienceModelGroup</text><rect fill="none" height="86" rx="8" ry="8" style="stroke:#CBD5E1;stroke-width:1.5;" width="359.5093" x="685.6274" y="347"/><rect fill="none" height="204" rx="8" ry="8" style="stroke:#CBD5E1;stroke-width:1.5;" width="379.5093" x="675.6274" y="447"/><rect fill="none" height="44" rx="8" ry="8" style="stroke:#CBD5E1;stroke-width:1.5;" width="359.5093" x="685.6274" y="498"/><rect fill="none" height="44" rx="8" ry="8" style="stroke:#CBD5E1;stroke-width:1.5;" width="359.5093" x="685.6274" y="600"/><rect fill="none" height="116" rx="8" ry="8" style="stroke:#CBD5E1;stroke-width:1.5;" width="379.5093" x="675.6274" y="665"/><rect fill="none" height="58" rx="8" ry="8" style="stroke:#CBD5E1;stroke-width:1.5;" width="359.5093" x="685.6274" y="716"/><g class="participant-lifeline" data-entity-uid="part1" data-qualified-name="Kubernetes" id="part1-lifeline"><g><title>Kubernetes</title><rect fill="#000000" fill-opacity="0.00000" height="1180" width="8" x="39.8032" y="114"/><line style="stroke:#94A3B8;stroke-width:0.5;stroke-dasharray:5,5;" x1="43" x2="43" y1="114" y2="1294"/></g></g><g class="participant-lifeline" data-entity-uid="part2" data-qualified-name="Controller" id="part2-lifeline"><g><title>Controller</title><rect fill="#000000" fill-opacity="0.00000" height="1180" width="8" x="276.2778" y="114"/><line style="stroke:#94A3B8;stroke-width:0.5;stroke-dasharray:5,5;" x1="279.9331" x2="279.9331" y1="114" y2="1294"/></g></g><g class="participant-lifeline" data-entity-uid="part3" data-qualified-name="BaseReconciler" id="part3-lifeline"><g><title>BaseReconciler</title><rect fill="#000000" fill-opacity="0.00000" height="1180" width="8" x="515.104" y="114"/><line style="stroke:#94A3B8;stroke-width:0.5;stroke-dasharray:5,5;" x1="519.0801" x2="519.0801" y1="114" y2="1294"/></g></g><g class="participant-lifeline" data-entity-uid="part4" data-qualified-name="ServiceManager" id="part4-lifeline"><g><title>OSOKServiceManager</title><rect fill="#000000" fill-opacity="0.00000" height="1180" width="8" x="769.8237" y="114"/><line style="stroke:#94A3B8;stroke-width:0.5;stroke-dasharray:5,5;" x1="773.6274" x2="773.6274" y1="114" y2="1294"/></g></g><g class="participant-lifeline" data-entity-uid="part5" data-qualified-name="OCI" id="part5-lifeline"><g><title>OCI</title><rect fill="#000000" fill-opacity="0.00000" height="1180" width="8" x="1011.6919" y="114"/><line style="stroke:#94A3B8;stroke-width:0.5;stroke-dasharray:5,5;" x1="1015.2471" x2="1015.2471" y1="114" y2="1294"/></g></g><g class="participant participant-head" data-entity-uid="part1" data-qualified-name="Kubernetes" id="part1-head"><text fill="#000000" font-family="Helvetica" font-size="14" lengthAdjust="spacing" textLength="71.6064" x="5" y="110.7803">Kubernetes</text><ellipse cx="43.8032" cy="48.5" fill="#E2E8F0" rx="8" ry="8" style="stroke:#0F172A;stroke-width:0.5;"/><path d="M43.8032,56.5 L43.8032,83.5 M30.8032,64.5 L56.8032,64.5 M43.8032,83.5 L30.8032,98.5 M43.8032,83.5 L56.8032,98.5" fill="none" style="stroke:#0F172A;stroke-width:0.5;"/></g><g class="participant participant-head" data-entity-uid="part2" data-qualified-name="Controller" id="part2-head"><rect fill="#E2E8F0" height="28" rx="8" ry="8" style="stroke:#0F172A;stroke-width:0.5;" width="74.6895" x="242.9331" y="85"/><text fill="#0F172A" font-family="Helvetica" font-size="14" lengthAdjust="spacing" textLength="60.6895" x="249.9331" y="102.7803">Controller</text></g><g class="participant participant-head" data-entity-uid="part3" data-qualified-name="BaseReconciler" id="part3-head"><rect fill="#E2E8F0" height="28" rx="8" ry="8" style="stroke:#0F172A;stroke-width:0.5;" width="112.0479" x="463.0801" y="85"/><text fill="#0F172A" font-family="Helvetica" font-size="14" lengthAdjust="spacing" textLength="98.0479" x="470.0801" y="102.7803">BaseReconciler</text></g><g class="participant participant-head" data-entity-uid="part4" data-qualified-name="ServiceManager" id="part4-head"><rect fill="#E2E8F0" height="28" rx="8" ry="8" style="stroke:#0F172A;stroke-width:0.5;" width="156.3926" x="695.6274" y="85"/><text fill="#0F172A" font-family="Helvetica" font-size="14" lengthAdjust="spacing" textLength="142.3926" x="702.6274" y="102.7803">OSOKServiceManager</text></g><g class="participant participant-head" data-entity-uid="part5" data-qualified-name="OCI" id="part5-head"><rect fill="#E2E8F0" height="28" rx="8" ry="8" style="stroke:#0F172A;stroke-width:0.5;" width="38.8896" x="996.2471" y="85"/><text fill="#0F172A" font-family="Helvetica" font-size="14" lengthAdjust="spacing" textLength="24.8896" x="1003.2471" y="102.7803">OCI</text></g><path d="M454,137 L454,187 A8,8 0 0 0 462,195 L829,195 A8,8 0 0 0 837,187 L837,139 L827,129 L462,129 A8,8 0 0 0 454,137" fill="#FFF7D6" style="stroke:#B45309;stroke-width:0.5;"/><path d="M827,129 L827,135 A4,4 0 0 0 831,139 L837,139 L827,129" fill="#FFF7D6" style="stroke:#B45309;stroke-width:0.5;"/><text fill="#334155" font-family="Helvetica" font-size="14" lengthAdjust="spacing" textLength="111.2891" x="487.7742" y="144.7803">shared resolution:</text><text fill="#334155" font-family="Helvetica" font-size="14" lengthAdjust="spacing" textLength="307.3916" x="487.7742" y="158.7803">shared/diagrams/shared-resolution-sequence.svg</text><text fill="#334155" font-family="Helvetica" font-size="14" lengthAdjust="spacing" textLength="88.7305" x="487.7742" y="172.7803">shared delete:</text><text fill="#334155" font-family="Helvetica" font-size="14" lengthAdjust="spacing" textLength="284.833" x="487.7742" y="186.7803">shared/diagrams/shared-delete-sequence.svg</text><g class="message" data-entity-1="part1" data-entity-2="part2" id="msg1"><polygon fill="#0F172A" points="268.2778,230,278.2778,234,268.2778,238,272.2778,234" style="stroke:#0F172A;stroke-width:1;"/><line style="stroke:#0F172A;stroke-width:1;" x1="43.8032" x2="274.2778" y1="234" y2="234"/><text fill="#000000" font-family="Helvetica" font-size="14" lengthAdjust="spacing" textLength="212.4746" x="50.8032" y="214.7803">enqueue DatascienceModelGroup</text><text fill="#000000" font-family="Helvetica" font-size="14" lengthAdjust="spacing" textLength="56.0273" x="50.8032" y="228.7803">reconcile</text></g><g class="message" data-entity-1="part2" data-entity-2="part3" id="msg2"><polygon fill="#0F172A" points="507.104,258,517.104,262,507.104,266,511.104,262" style="stroke:#0F172A;stroke-width:1;"/><line style="stroke:#0F172A;stroke-width:1;" x1="280.2778" x2="513.104" y1="262" y2="262"/><text fill="#000000" font-family="Helvetica" font-size="14" lengthAdjust="spacing" textLength="117.4961" x="287.2778" y="256.7803">Reconcile(request)</text></g><g class="message" data-entity-1="part3" data-entity-2="part4" id="msg3"><polygon fill="#0F172A" points="761.8237,300,771.8237,304,761.8237,308,765.8237,304" style="stroke:#0F172A;stroke-width:1;"/><line style="stroke:#0F172A;stroke-width:1;" x1="519.104" x2="767.8237" y1="304" y2="304"/><text fill="#000000" font-family="Helvetica" font-size="14" lengthAdjust="spacing" textLength="105.834" x="526.104" y="284.7803">reconcile desired</text><text fill="#000000" font-family="Helvetica" font-size="14" lengthAdjust="spacing" textLength="154.082" x="526.104" y="298.7803">DatascienceModelGroup</text></g><g class="message" data-entity-1="part4" data-entity-2="part5" id="msg4"><polygon fill="#0F172A" points="1003.6919,328,1013.6919,332,1003.6919,336,1007.6919,332" style="stroke:#0F172A;stroke-width:1;"/><line style="stroke:#0F172A;stroke-width:1;" x1="773.8237" x2="1009.6919" y1="332" y2="332"/><text fill="#000000" font-family="Helvetica" font-size="14" lengthAdjust="spacing" textLength="176.6475" x="780.8237" y="326.7803">GetDatascienceModelGroup</text></g><path d="M693.6274,347 L752.3931,347 L752.3931,353 L742.3931,363 L685.6274,363 L685.6274,355 A8,8 0 0 1 693.6274,347" fill="#F8FAFC" style="stroke:#CBD5E1;stroke-width:1.5;"/><rect fill="none" height="86" rx="8" ry="8" style="stroke:#CBD5E1;stroke-width:1.5;" width="359.5093" x="685.6274" y="347"/><text fill="#000000" font-family="Helvetica" font-size="14" font-weight="bold" lengthAdjust="spacing" textLength="21.7656" x="700.6274" y="358.7803">opt</text><text fill="#000000" font-family="Helvetica" font-size="14" font-weight="bold" lengthAdjust="spacing" textLength="135.3516" x="767.3931" y="359.7803">[list lookup fallback]</text><g class="message" data-entity-1="part4" data-entity-2="part5" id="msg5"><polygon fill="#0F172A" points="1003.6919,393,1013.6919,397,1003.6919,401,1007.6919,397" style="stroke:#0F172A;stroke-width:1;"/><line style="stroke:#0F172A;stroke-width:1;" x1="773.8237" x2="1009.6919" y1="397" y2="397"/><text fill="#000000" font-family="Helvetica" font-size="14" lengthAdjust="spacing" textLength="217.8682" x="780.8237" y="377.7803">ListDatascienceModelGroup(filters:</text><text fill="#000000" font-family="Helvetica" font-size="14" lengthAdjust="spacing" textLength="143.1719" x="780.8237" y="391.7803">compartment_id, state)</text></g><g class="message" data-entity-1="part5" data-entity-2="part4" id="msg6"><polygon fill="#0F172A" points="784.8237,421,774.8237,425,784.8237,429,780.8237,425" style="stroke:#0F172A;stroke-width:1;"/><line style="stroke:#0F172A;stroke-width:1;stroke-dasharray:2,2;" x1="778.8237" x2="1014.6919" y1="425" y2="425"/><text fill="#000000" font-family="Helvetica" font-size="14" lengthAdjust="spacing" textLength="156.3994" x="790.8237" y="419.7803">matching collection items</text></g><path d="M683.6274,447 L736.9653,447 L736.9653,453 L726.9653,463 L675.6274,463 L675.6274,455 A8,8 0 0 1 683.6274,447" fill="#F8FAFC" style="stroke:#CBD5E1;stroke-width:1.5;"/><rect fill="none" height="204" rx="8" ry="8" style="stroke:#CBD5E1;stroke-width:1.5;" width="379.5093" x="675.6274" y="447"/><text fill="#000000" font-family="Helvetica" font-size="14" font-weight="bold" lengthAdjust="spacing" textLength="16.3379" x="690.6274" y="458.7803">alt</text><text fill="#000000" font-family="Helvetica" font-size="14" font-weight="bold" lengthAdjust="spacing" textLength="135.3447" x="751.9653" y="459.7803">[create or bind path]</text><g class="message" data-entity-1="part4" data-entity-2="part5" id="msg7"><polygon fill="#0F172A" points="1003.6919,479,1013.6919,483,1003.6919,487,1007.6919,483" style="stroke:#0F172A;stroke-width:1;"/><line style="stroke:#0F172A;stroke-width:1;" x1="773.8237" x2="1009.6919" y1="483" y2="483"/><text fill="#000000" font-family="Helvetica" font-size="14" lengthAdjust="spacing" textLength="196.1025" x="780.8237" y="477.7803">CreateDatascienceModelGroup</text></g><path d="M693.6274,498 L760.1724,498 L760.1724,504 L750.1724,514 L685.6274,514 L685.6274,506 A8,8 0 0 1 693.6274,498" fill="#F8FAFC" style="stroke:#CBD5E1;stroke-width:1.5;"/><rect fill="none" height="44" rx="8" ry="8" style="stroke:#CBD5E1;stroke-width:1.5;" width="359.5093" x="685.6274" y="498"/><text fill="#000000" font-family="Helvetica" font-size="14" font-weight="bold" lengthAdjust="spacing" textLength="29.5449" x="700.6274" y="509.7803">loop</text><text fill="#000000" font-family="Helvetica" font-size="14" font-weight="bold" lengthAdjust="spacing" textLength="215.4756" x="775.1724" y="510.7803">[create pending PROVISIONING]</text><g class="message" data-entity-1="part4" data-entity-2="part5" id="msg8"><polygon fill="#0F172A" points="1003.6919,530,1013.6919,534,1003.6919,538,1007.6919,534" style="stroke:#0F172A;stroke-width:1;"/><line style="stroke:#0F172A;stroke-width:1;" x1="773.8237" x2="1009.6919" y1="534" y2="534"/><text fill="#000000" font-family="Helvetica" font-size="14" lengthAdjust="spacing" textLength="176.6475" x="780.8237" y="528.7803">GetDatascienceModelGroup</text></g><line style="stroke:#CBD5E1;stroke-width:1;stroke-dasharray:2,2;" x1="675.6274" x2="1055.1367" y1="550" y2="550"/><text fill="#000000" font-family="Helvetica" font-size="14" font-weight="bold" lengthAdjust="spacing" textLength="137.6484" x="680.6274" y="560.7803">[update or drift path]</text><g class="message" data-entity-1="part4" data-entity-2="part5" id="msg9"><polygon fill="#0F172A" points="1003.6919,581,1013.6919,585,1003.6919,589,1007.6919,585" style="stroke:#0F172A;stroke-width:1;"/><line style="stroke:#0F172A;stroke-width:1;" x1="773.8237" x2="1009.6919" y1="585" y2="585"/><text fill="#000000" font-family="Helvetica" font-size="14" lengthAdjust="spacing" textLength="199.2266" x="780.8237" y="579.7803">UpdateDatascienceModelGroup</text></g><path d="M693.6274,600 L760.1724,600 L760.1724,606 L750.1724,616 L685.6274,616 L685.6274,608 A8,8 0 0 1 693.6274,600" fill="#F8FAFC" style="stroke:#CBD5E1;stroke-width:1.5;"/><rect fill="none" height="44" rx="8" ry="8" style="stroke:#CBD5E1;stroke-width:1.5;" width="359.5093" x="685.6274" y="600"/><text fill="#000000" font-family="Helvetica" font-size="14" font-weight="bold" lengthAdjust="spacing" textLength="29.5449" x="700.6274" y="611.7803">loop</text><text fill="#000000" font-family="Helvetica" font-size="14" font-weight="bold" lengthAdjust="spacing" textLength="190.5381" x="775.1724" y="612.7803">[update pending UPDATING]</text><g class="message" data-entity-1="part4" data-entity-2="part5" id="msg10"><polygon fill="#0F172A" points="1003.6919,632,1013.6919,636,1003.6919,640,1007.6919,636" style="stroke:#0F172A;stroke-width:1;"/><line style="stroke:#0F172A;stroke-width:1;" x1="773.8237" x2="1009.6919" y1="636" y2="636"/><text fill="#000000" font-family="Helvetica" font-size="14" lengthAdjust="spacing" textLength="176.6475" x="780.8237" y="630.7803">GetDatascienceModelGroup</text></g><path d="M683.6274,665 L742.3931,665 L742.3931,671 L732.3931,681 L675.6274,681 L675.6274,673 A8,8 0 0 1 683.6274,665" fill="#F8FAFC" style="stroke:#CBD5E1;stroke-width:1.5;"/><rect fill="none" height="116" rx="8" ry="8" style="stroke:#CBD5E1;stroke-width:1.5;" width="379.5093" x="675.6274" y="665"/><text fill="#000000" font-family="Helvetica" font-size="14" font-weight="bold" lengthAdjust="spacing" textLength="21.7656" x="690.6274" y="676.7803">opt</text><text fill="#000000" font-family="Helvetica" font-size="14" font-weight="bold" lengthAdjust="spacing" textLength="120.5859" x="757.3931" y="677.7803">[delete requested]</text><g class="message" data-entity-1="part4" data-entity-2="part5" id="msg11"><polygon fill="#0F172A" points="1003.6919,697,1013.6919,701,1003.6919,705,1007.6919,701" style="stroke:#0F172A;stroke-width:1;"/><line style="stroke:#0F172A;stroke-width:1;" x1="773.8237" x2="1009.6919" y1="701" y2="701"/><text fill="#000000" font-family="Helvetica" font-size="14" lengthAdjust="spacing" textLength="194.5508" x="780.8237" y="695.7803">DeleteDatascienceModelGroup</text></g><path d="M693.6274,716 L760.1724,716 L760.1724,722 L750.1724,732 L685.6274,732 L685.6274,724 A8,8 0 0 1 693.6274,716" fill="#F8FAFC" style="stroke:#CBD5E1;stroke-width:1.5;"/><rect fill="none" height="58" rx="8" ry="8" style="stroke:#CBD5E1;stroke-width:1.5;" width="359.5093" x="685.6274" y="716"/><text fill="#000000" font-family="Helvetica" font-size="14" font-weight="bold" lengthAdjust="spacing" textLength="29.5449" x="700.6274" y="727.7803">loop</text><text fill="#000000" font-family="Helvetica" font-size="14" font-weight="bold" lengthAdjust="spacing" textLength="213.124" x="775.1724" y="728.7803">[delete confirmation DELETING]</text><g class="message" data-entity-1="part4" data-entity-2="part5" id="msg12"><polygon fill="#0F172A" points="1003.6919,762,1013.6919,766,1003.6919,770,1007.6919,766" style="stroke:#0F172A;stroke-width:1;"/><line style="stroke:#0F172A;stroke-width:1;" x1="773.8237" x2="1009.6919" y1="766" y2="766"/><text fill="#000000" font-family="Helvetica" font-size="14" lengthAdjust="spacing" textLength="192.9854" x="780.8237" y="746.7803">GetDatascienceModelGroup or</text><text fill="#000000" font-family="Helvetica" font-size="14" lengthAdjust="spacing" textLength="175.8682" x="780.8237" y="760.7803">ListDatascienceModelGroup</text></g><g class="message" data-entity-1="part4" data-entity-2="part3" id="msg13"><polygon fill="#0F172A" points="530.104,818,520.104,822,530.104,826,526.104,822" style="stroke:#0F172A;stroke-width:1;"/><line style="stroke:#0F172A;stroke-width:1;stroke-dasharray:2,2;" x1="524.104" x2="772.8237" y1="822" y2="822"/><text fill="#000000" font-family="Helvetica" font-size="14" lengthAdjust="spacing" textLength="100.7822" x="536.104" y="802.7803">status=required,</text><text fill="#000000" font-family="Helvetica" font-size="14" lengthAdjust="spacing" textLength="230.7197" x="536.104" y="816.7803">finalizer=retain-until-confirmed-delete</text></g><g class="message" data-entity-1="part3" data-entity-2="part2" id="msg14"><polygon fill="#0F172A" points="291.2778,860,281.2778,864,291.2778,868,287.2778,864" style="stroke:#0F172A;stroke-width:1;"/><line style="stroke:#0F172A;stroke-width:1;stroke-dasharray:2,2;" x1="285.2778" x2="518.104" y1="864" y2="864"/><text fill="#000000" font-family="Helvetica" font-size="14" lengthAdjust="spacing" textLength="214.8262" x="297.2778" y="844.7803">requeue on provisioning, updating,</text><text fill="#000000" font-family="Helvetica" font-size="14" lengthAdjust="spacing" textLength="69.2549" x="297.2778" y="858.7803">terminating</text></g><path d="M778,885 L778,1271 A8,8 0 0 0 786,1279 L1110,1279 A8,8 0 0 0 1118,1271 L1118,887 L1108,877 L786,877 A8,8 0 0 0 778,885" fill="#FFF7D6" style="stroke:#B45309;stroke-width:0.5;"/><path d="M1108,877 L1108,883 A4,4 0 0 0 1112,887 L1118,887 L1108,877" fill="#FFF7D6" style="stroke:#B45309;stroke-width:0.5;"/><text fill="#334155" font-family="Helvetica" font-size="14" lengthAdjust="spacing" textLength="101.165" x="784" y="892.7803">shared diagram:</text><text fill="#334155" font-family="Helvetica" font-size="14" lengthAdjust="spacing" textLength="307.3916" x="784" y="906.7803">shared/diagrams/shared-resolution-sequence.svg</text><text fill="#334155" font-family="Helvetica" font-size="14" lengthAdjust="spacing" textLength="143.1992" x="784" y="920.7803">shared delete diagram:</text><text fill="#334155" font-family="Helvetica" font-size="14" lengthAdjust="spacing" textLength="284.833" x="784" y="934.7803">shared/diagrams/shared-delete-sequence.svg</text><text fill="#334155" font-family="Helvetica" font-size="14" lengthAdjust="spacing" textLength="280.9297" x="784" y="948.7803">Start from the shared resolution sequence for</text><text fill="#334155" font-family="Helvetica" font-size="14" lengthAdjust="spacing" textLength="260.7295" x="784" y="962.7803">OCID binding, datasource pagination, and</text><text fill="#334155" font-family="Helvetica" font-size="14" lengthAdjust="spacing" textLength="163.4268" x="784" y="976.7803">create-or-update dispatch.</text><text fill="#334155" font-family="Helvetica" font-size="14" lengthAdjust="spacing" textLength="301.1982" x="784" y="990.7803">Layer the shared delete sequence when finalizer</text><text fill="#334155" font-family="Helvetica" font-size="14" lengthAdjust="spacing" textLength="269.2471" x="784" y="1004.7803">retention, delete confirmation, work-request</text><text fill="#334155" font-family="Helvetica" font-size="14" lengthAdjust="spacing" textLength="199.2334" x="784" y="1018.7803">polling, or Secret cleanup apply.</text><text fill="#334155" font-family="Helvetica" font-size="14" lengthAdjust="spacing" textLength="281.709" x="784" y="1032.7803">archetype batch: Generated service-manager</text><text fill="#334155" font-family="Helvetica" font-size="14" lengthAdjust="spacing" textLength="266.1504" x="784" y="1046.7803">controllers follow the shared resolution and</text><text fill="#334155" font-family="Helvetica" font-size="14" lengthAdjust="spacing" textLength="259.9297" x="784" y="1060.7803">delete sequences with imported waits and</text><text fill="#334155" font-family="Helvetica" font-size="14" lengthAdjust="spacing" textLength="134.6064" x="784" y="1074.7803">controller-local policy.</text><text fill="#334155" font-family="Helvetica" font-size="14" lengthAdjust="spacing" textLength="126.8408" x="784" y="1088.7803">service: datascience</text><text fill="#334155" font-family="Helvetica" font-size="14" lengthAdjust="spacing" textLength="182.1162" x="784" y="1102.7803">slug: datasciencemodelgroup</text><text fill="#334155" font-family="Helvetica" font-size="14" lengthAdjust="spacing" textLength="187.5439" x="784" y="1116.7803">kind: DatascienceModelGroup</text><text fill="#334155" font-family="Helvetica" font-size="14" lengthAdjust="spacing" textLength="241.2402" x="784" y="1130.7803">archetype: generated-service-manager</text><text fill="#334155" font-family="Helvetica" font-size="14" lengthAdjust="spacing" textLength="156.4063" x="784" y="1144.7803">status/finalizer: required /</text><text fill="#334155" font-family="Helvetica" font-size="14" lengthAdjust="spacing" textLength="174.3027" x="784" y="1158.7803">retain-until-confirmed-delete</text><text fill="#334155" font-family="Helvetica" font-size="14" lengthAdjust="spacing" textLength="272.3984" x="784" y="1172.7803">requeue: provisioning, updating, terminating</text><text fill="#334155" font-family="Helvetica" font-size="14" lengthAdjust="spacing" textLength="295.6816" x="784" y="1186.7803">provider states: create PROVISIONING; update</text><text fill="#334155" font-family="Helvetica" font-size="14" lengthAdjust="spacing" textLength="192.165" x="784" y="1200.7803">UPDATING; delete DELETING</text><text fill="#334155" font-family="Helvetica" font-size="14" lengthAdjust="spacing" textLength="319.04" x="784" y="1214.7803">mutable/forceNew: display_name / compartment_id</text><text fill="#334155" font-family="Helvetica" font-size="14" lengthAdjust="spacing" textLength="104.3164" x="784" y="1228.7803">open gaps: none</text><text fill="#334155" font-family="Helvetica" font-size="14" lengthAdjust="spacing" textLength="224.9023" x="784" y="1242.7803">Scaffold metadata only; replace with</text><text fill="#334155" font-family="Helvetica" font-size="14" lengthAdjust="spacing" textLength="244.3232" x="784" y="1256.7803">controller-specific runtime states before</text><text fill="#334155" font-family="Helvetica" font-size="14" lengthAdjust="spacing" textLength="66.1445" x="784" y="1270.7803">promotion.</text><?plantuml-src fLRlRzis4FtEl-BGVMa1AqwQf4qLRC2QT6dGB2dgTPyC53HviebGf4PIzhAY__kE-cN9aREjG-305e-FxzsxEz7VArDmntFmAoxjHfabP5nxPBvRMN1nltIsDFB2QklWXqpGd-n5ICnugSClreHRdYEyHxt6e0GVZvcfln2EJdgBt3cxQT0FiwFNB_ixZGtuzX67B7ijN-r6MIVHDH6BazFZmpSx4V7uPltu-EJezBItNi4BwmmwE7h5WWeQOOP_b6W4GWAI1-w5Yh-cbzlllrg9-ees5sob949cRLZOFtl0liNuoW2u2DODY3Q2swLTfVWIpx93MYOmogagk0dZ-_i1_mQbbumEGwiCRvGPflBD2JzUdD5gX2m6Is8XJ_6eMtfaqrd6Cy6-iKeRV2WNIFaDw5cF1rmG4MUrHZTu_9Px_8J26g5sbvxTpUu-pD2j5Hd03L-YUmRSm_3HOClTnJMB9G1sJGOFiISx-wWP74fmwAqkWx8cRHvDfU9ByjHFwz_9DYHfRJxmwsMBGAL1QlVkhfU7Ez78gbJPDbcG_DJBKGfeABv46At2kN6jBhRT5266cbFelZztaO0FBzWm96uQPYQ53foqUKKYvcQy6OOR8nGvaC8LXl5uMmIgFa__hBqlYpY6T1mz-u1kA7OKwNccT43dqxaHDeybaAC9NvISW0yyu0j6-o4PqPRp85Pn18gOCn5T1HKmzz4KndK0uP374dAmKEHJmSDg7x-BAdHSAqaiMgo2iEEP7p_T_NuzkxwxlRwz-i_9Y_oGnZQKXMm8IgUoy2J3prNi4mmRi9RXvu-NF__stUpe4oskInwQYaEv3-ooYdk2N0D4rPWfHyv5ioxVtRpx7eQKhxdPMr0T_rtKaPwA5LRw7wEys1oJER4pNDCRpz73m9L9IXEKJXhUtH1ur7exFLybZ7gUL1REhfKdlMJAf3OfVfiRglgSJek_wb7dr78Lm6OmFj-QSVJ_Xji_eemDkLcWjeJCsHp22k7HlDs-CpFhOhzULWrN2QxUmxPqj5ZmPQNNcWbmCgXkgSIwf2bTgNmHc_g0tV07ochli8PzTz1cXGOwinYPHLEZGXwfj0bihBjFcYfc1PbKSQE-co6ne4cXaHkgB5uK-k60SITM61uAfEiKyOcbIFSCeYY9GULDaZVcYCvrJ-grjfizEOgATrHusAYm0fKNraNi3LV1rwdfK1Dj1TT0d9KWPitnQVz-mxmkbuCdUUo6wXtFw5uZq_5tprPc2ijMOB8hiEwHQPVhkhXZky2KFTqaJHUa-te0-YrGnT1LfHxxFcqdRd_IdZT3ZhN3xRorkvibUHduGkEKAb7WBMxIggeqV_XYucLt2iEt34qvAgGbB-X0OmsocU0P-IWX9sanfTJ3-k6SH1D8B3noh6-FBr2eJ0bmCGbqGaqV5aWCCAhARVJ_eBig_0q0?></g></svg>