<?plantuml 1.2026.1?><svg xmlns="http://www.w3.org/2000/svg" xmlns:xlink="http://www.w3.org/1999/xlink" contentStyleType="text/css" data-diagram-type="SEQUENCE" height="2118px" preserveAspectRatio="none" style="width:1525px;height:2118px;background:#FCFCFD;" version="1.1" viewBox="0 0 1525 2118" width="1525px" zoomAndPan="magnify"><title>Sequence - tenantmanagercontrolplane/TenantmanagercontrolplaneSubscriptionLineItems</title><defs/><g><rect fill="#FCFCFD" height="2118" style="stroke:none;stroke-width:1;" width="1525" x="0" y="0"/><text fill="#000000" font-family="Helvetica" font-size="14" font-weight="bold" lengthAdjust="spacing" textLength="605.999" x="464.8369" y="25.7803">Sequence - tenantmanagercontrolplane/TenantmanagercontrolplaneSubscriptionLineItems</text><rect fill="none" height="290" rx="8" ry="8" style="stroke:#CBD5E1;stroke-width:1.5;" width="852.9619" x="553.459" y="356"/><rect fill="none" height="146" rx="8" ry="8" style="stroke:#CBD5E1;stroke-width:1.5;" width="538.2808" x="858.1401" y="465"/><rect fill="none" height="44" rx="8" ry="8" style="stroke:#CBD5E1;stroke-width:1.5;" width="518.2808" x="868.1401" y="516"/><rect fill="none" height="868" rx="8" ry="8" style="stroke:#CBD5E1;stroke-width:1.5;" width="889.8218" x="533.459" y="660"/><rect fill="none" height="302" rx="8" ry="8" style="stroke:#CBD5E1;stroke-width:1.5;" width="852.9619" x="543.459" y="683"/><rect fill="none" height="72" rx="8" ry="8" style="stroke:#CBD5E1;stroke-width:1.5;" width="518.2808" x="868.1401" y="804"/><rect fill="none" height="88" rx="8" ry="8" style="stroke:#CBD5E1;stroke-width:1.5;" width="491.0737" x="553.459" y="890"/><rect fill="none" height="392" rx="8" ry="8" style="stroke:#CBD5E1;stroke-width:1.5;" width="869.8218" x="543.459" y="1087"/><rect fill="none" height="44" rx="8" ry="8" style="stroke:#CBD5E1;stroke-width:1.5;" width="491.0737" x="553.459" y="1186"/><rect fill="none" height="130" rx="8" ry="8" style="stroke:#CBD5E1;stroke-width:1.5;" width="538.2808" x="858.1401" y="1244"/><rect fill="none" height="44" rx="8" ry="8" style="stroke:#CBD5E1;stroke-width:1.5;" width="518.2808" x="868.1401" y="1323"/><g class="participant-lifeline" data-entity-uid="part1" data-qualified-name="Kubernetes" id="part1-lifeline"><g><title>Kubernetes</title><rect fill="#000000" fill-opacity="0.00000" height="1997" width="8" x="39.8032" y="114"/><line style="stroke:#94A3B8;stroke-width:0.5;stroke-dasharray:5,5;" x1="43" x2="43" y1="114" y2="2111"/></g></g><g class="participant-lifeline" data-entity-uid="part2" data-qualified-name="Controller" id="part2-lifeline"><g><title>Controller</title><rect fill="#000000" fill-opacity="0.00000" height="1997" width="8" x="376.6567" y="114"/><line style="stroke:#94A3B8;stroke-width:0.5;stroke-dasharray:5,5;" x1="380.312" x2="380.312" y1="114" y2="2111"/></g></g><g class="participant-lifeline" data-entity-uid="part3" data-qualified-name="BaseReconciler" id="part3-lifeline"><g><title>BaseReconciler</title><rect fill="#000000" fill-opacity="0.00000" height="1997" width="8" x="615.4829" y="114"/><line style="stroke:#94A3B8;stroke-width:0.5;stroke-dasharray:5,5;" x1="619.459" x2="619.459" y1="114" y2="2111"/></g></g><g class="participant-lifeline" data-entity-uid="part4" data-qualified-name="ServiceManager" id="part4-lifeline"><g><title>OSOKServiceManager</title><rect fill="#000000" fill-opacity="0.00000" height="1997" width="8" x="952.3364" y="114"/><line style="stroke:#94A3B8;stroke-width:0.5;stroke-dasharray:5,5;" x1="956.1401" x2="956.1401" y1="114" y2="2111"/></g></g><g class="participant-lifeline" data-entity-uid="part5" data-qualified-name="OCI" id="part5-lifeline"><g><title>OCI</title><rect fill="#000000" fill-opacity="0.00000" height="1997" width="8" x="1352.9761" y="114"/><line style="stroke:#94A3B8;stroke-width:0.5;stroke-dasharray:5,5;" x1="1356.5313" x2="1356.5313" y1="114" y2="2111"/></g></g><g class="participant participant-head" data-entity-uid="part1" data-qualified-name="Kubernetes" id="part1-head"><text fill="#000000" font-family="Helvetica" font-size="14" lengthAdjust="spacing" textLength="71.6064" x="5" y="110.7803">Kubernetes</text><ellipse cx="43.8032" cy="48.5" fill="#E2E8F0" rx="8" ry="8" style="stroke:#0F172A;stroke-width:0.5;"/><path d="M43.8032,56.5 L43.8032,83.5 M30.8032,64.5 L56.8032,64.5 M43.8032,83.5 L30.8032,98.5 M43.8032,83.5 L56.8032,98.5" fill="none" style="stroke:#0F172A;stroke-width:0.5;"/></g><g class="participant participant-head" data-entity-uid="part2" data-qualified-name="Controller" id="part2-head"><rect fill="#E2E8F0" height="28" rx="8" ry="8" style="stroke:#0F172A;stroke-width:0.5;" width="74.6895" x="343.312" y="85"/><text fill="#0F172A" font-family="Helvetica" font-size="14" lengthAdjust="spacing" textLength="60.6895" x="350.312" y="102.7803">Controller</text></g><g class="participant participant-head" data-entity-uid="part3" data-qualified-name="BaseReconciler" id="part3-head"><rect fill="#E2E8F0" height="28" rx="8" ry="8" style="stroke:#0F172A;stroke-width:0.5;" width="112.0479" x="563.459" y="85"/><text fill="#0F172A" font-family="Helvetica" font-size="14" lengthAdjust="spacing" textLength="98.0479" x="570.459" y="102.7803">BaseReconciler</text></g><g class="participant participant-head" data-entity-uid="part4" data-qualified-name="ServiceManager" id="part4-head"><rect fill="#E2E8F0" height="28" rx="8" ry="8" style="stroke:#0F172A;stroke-width:0.5;" width="156.3926" x="878.1401" y="85"/><text fill="#0F172A" font-family="Helvetica" font-size="14" lengthAdjust="spacing" textLength="142.3926" x="885.1401" y="102.7803">OSOKServiceManager</text></g><g class="participant participant-head" data-entity-uid="part5" data-qualified-name="OCI" id="part5-head"><rect fill="#E2E8F0" height="28" rx="8" ry="8" style="stroke:#0F172A;stroke-width:0.5;" width="38.8896" x="1337.5313" y="85"/><text fill="#0F172A" font-family="Helvetica" font-size="14" lengthAdjust="spacing" textLength="24.8896" x="1344.5313" y="102.7803">OCI</text></g><path d="M554,137 L554,187 A8,8 0 0 0 562,195 L1012,195 A8,8 0 0 0 1020,187 L1020,139 L1010,129 L562,129 A8,8 0 0 0 554,137" fill="#FFF7D6" style="stroke:#B45309;stroke-width:0.5;"/><path d="M1010,129 L1010,135 A4,4 0 0 0 1014,139 L1020,139 L1010,129" fill="#FFF7D6" style="stroke:#B45309;stroke-width:0.5;"/><text fill="#334155" font-family="Helvetica" font-size="14" lengthAdjust="spacing" textLength="111.2891" x="628.8411" y="144.7803">shared resolution:</text><text fill="#334155" font-family="Helvetica" font-size="14" lengthAdjust="spacing" textLength="307.3916" x="628.8411" y="158.7803">shared/diagrams/shared-resolution-sequence.svg</text><text fill="#334155" font-family="Helvetica" font-size="14" lengthAdjust="spacing" textLength="88.7305" x="628.8411" y="172.7803">shared delete:</text><text fill="#334155" font-family="Helvetica" font-size="14" lengthAdjust="spacing" textLength="284.833" x="628.8411" y="186.7803">shared/diagrams/shared-delete-sequence.svg</text><g class="message" data-entity-1="part1" data-entity-2="part2" id="msg1"><polygon fill="#0F172A" points="368.6567,244,378.6567,248,368.6567,252,372.6567,248" style="stroke:#0F172A;stroke-width:1;"/><line style="stroke:#0F172A;stroke-width:1;" x1="43.8032" x2="374.6567" y1="248" y2="248"/><text fill="#000000" font-family="Helvetica" font-size="14" lengthAdjust="spacing" textLength="54.5029" x="50.8032" y="214.7803">enqueue</text><text fill="#000000" font-family="Helvetica" font-size="14" lengthAdjust="spacing" textLength="312.8535" x="50.8032" y="228.7803">TenantmanagercontrolplaneSubscriptionLineItems</text><text fill="#000000" font-family="Helvetica" font-size="14" lengthAdjust="spacing" textLength="56.0273" x="50.8032" y="242.7803">reconcile</text></g><g class="message" data-entity-1="part2" data-entity-2="part3" id="msg2"><polygon fill="#0F172A" points="607.4829,272,617.4829,276,607.4829,280,611.4829,276" style="stroke:#0F172A;stroke-width:1;"/><line style="stroke:#0F172A;stroke-width:1;" x1="380.6567" x2="613.4829" y1="276" y2="276"/><text fill="#000000" font-family="Helvetica" font-size="14" lengthAdjust="spacing" textLength="117.4961" x="387.6567" y="270.7803">Reconcile(request)</text></g><g class="message" data-entity-1="part3" data-entity-2="part4" id="msg3"><polygon fill="#0F172A" points="944.3364,314,954.3364,318,944.3364,322,948.3364,318" style="stroke:#0F172A;stroke-width:1;"/><line style="stroke:#0F172A;stroke-width:1;" x1="619.4829" x2="950.3364" y1="318" y2="318"/><text fill="#000000" font-family="Helvetica" font-size="14" lengthAdjust="spacing" textLength="105.834" x="626.4829" y="298.7803">reconcile desired</text><text fill="#000000" font-family="Helvetica" font-size="14" lengthAdjust="spacing" textLength="312.8535" x="626.4829" y="312.7803">TenantmanagercontrolplaneSubscriptionLineItems</text></g><path d="M561.459,356 L614.7969,356 L614.7969,362 L604.7969,372 L553.459,372 L553.459,364 A8,8 0 0 1 561.459,356" fill="#F8FAFC" style="stroke:#CBD5E1;stroke-width:1.5;"/><rect fill="none" height="290" rx="8" ry="8" style="stroke:#CBD5E1;stroke-width:1.5;" width="852.9619" x="553.459" y="356"/><text fill="#000000" font-family="Helvetica" font-size="14" font-weight="bold" lengthAdjust="spacing" textLength="16.3379" x="568.459" y="367.7803">alt</text><text fill="#000000" font-family="Helvetica" font-size="14" font-weight="bold" lengthAdjust="spacing" textLength="308.1094" x="629.7969" y="368.7803">[tracked or explicit OCI identity already exists]</text><g class="message" data-entity-1="part4" data-entity-2="part5" id="msg4"><polygon fill="#0F172A" points="1344.9761,388,1354.9761,392,1344.9761,396,1348.9761,392" style="stroke:#0F172A;stroke-width:1;"/><line style="stroke:#0F172A;stroke-width:1;" x1="956.3364" x2="1350.9761" y1="392" y2="392"/><text fill="#000000" font-family="Helvetica" font-size="14" lengthAdjust="spacing" textLength="335.4189" x="963.3364" y="386.7803">GetTenantmanagercontrolplaneSubscriptionLineItems</text></g><line style="stroke:#CBD5E1;stroke-width:1;stroke-dasharray:2,2;" x1="553.459" x2="1406.4209" y1="401" y2="401"/><text fill="#000000" font-family="Helvetica" font-size="14" font-weight="bold" lengthAdjust="spacing" textLength="185.1582" x="558.459" y="411.7803">[tracked identity is missing]</text><g class="message" data-entity-1="part4" data-entity-2="part5" id="msg5"><polygon fill="#0F172A" points="1344.9761,446,1354.9761,450,1344.9761,454,1348.9761,450" style="stroke:#0F172A;stroke-width:1;"/><line style="stroke:#0F172A;stroke-width:1;" x1="956.3364" x2="1350.9761" y1="450" y2="450"/><text fill="#000000" font-family="Helvetica" font-size="14" lengthAdjust="spacing" textLength="376.6396" x="963.3364" y="430.7803">ListTenantmanagercontrolplaneSubscriptionLineItems(filters:</text><text fill="#000000" font-family="Helvetica" font-size="14" lengthAdjust="spacing" textLength="143.1719" x="963.3364" y="444.7803">compartment_id, state)</text></g><path d="M866.1401,465 L919.478,465 L919.478,471 L909.478,481 L858.1401,481 L858.1401,473 A8,8 0 0 1 866.1401,465" fill="#F8FAFC" style="stroke:#CBD5E1;stroke-width:1.5;"/><rect fill="none" height="146" rx="8" ry="8" style="stroke:#CBD5E1;stroke-width:1.5;" width="538.2808" x="858.1401" y="465"/><text fill="#000000" font-family="Helvetica" font-size="14" font-weight="bold" lengthAdjust="spacing" textLength="16.3379" x="873.1401" y="476.7803">alt</text><text fill="#000000" font-family="Helvetica" font-size="14" font-weight="bold" lengthAdjust="spacing" textLength="242.7031" x="934.478" y="477.7803">[reusable OCI resource is not found]</text><g class="message" data-entity-1="part4" data-entity-2="part5" id="msg6"><polygon fill="#0F172A" points="1344.9761,497,1354.9761,501,1344.9761,505,1348.9761,501" style="stroke:#0F172A;stroke-width:1;"/><line style="stroke:#0F172A;stroke-width:1;" x1="956.3364" x2="1350.9761" y1="501" y2="501"/><text fill="#000000" font-family="Helvetica" font-size="14" lengthAdjust="spacing" textLength="354.874" x="963.3364" y="495.7803">CreateTenantmanagercontrolplaneSubscriptionLineItems</text></g><path d="M876.1401,516 L942.6851,516 L942.6851,522 L932.6851,532 L868.1401,532 L868.1401,524 A8,8 0 0 1 876.1401,516" fill="#F8FAFC" style="stroke:#CBD5E1;stroke-width:1.5;"/><rect fill="none" height="44" rx="8" ry="8" style="stroke:#CBD5E1;stroke-width:1.5;" width="518.2808" x="868.1401" y="516"/><text fill="#000000" font-family="Helvetica" font-size="14" font-weight="bold" lengthAdjust="spacing" textLength="29.5449" x="883.1401" y="527.7803">loop</text><text fill="#000000" font-family="Helvetica" font-size="14" font-weight="bold" lengthAdjust="spacing" textLength="215.4756" x="957.6851" y="528.7803">[create pending PROVISIONING]</text><g class="message" data-entity-1="part4" data-entity-2="part5" id="msg7"><polygon fill="#0F172A" points="1344.9761,548,1354.9761,552,1344.9761,556,1348.9761,552" style="stroke:#0F172A;stroke-width:1;"/><line style="stroke:#0F172A;stroke-width:1;" x1="956.3364" x2="1350.9761" y1="552" y2="552"/><text fill="#000000" font-family="Helvetica" font-size="14" lengthAdjust="spacing" textLength="335.4189" x="963.3364" y="546.7803">GetTenantmanagercontrolplaneSubscriptionLineItems</text></g><line style="stroke:#CBD5E1;stroke-width:1;stroke-dasharray:2,2;" x1="858.1401" x2="1396.4209" y1="568" y2="568"/><text fill="#000000" font-family="Helvetica" font-size="14" font-weight="bold" lengthAdjust="spacing" textLength="255.2334" x="863.1401" y="578.7803">[reusable OCI resource already exists]</text><g class="message" data-entity-1="part4" data-entity-2="part5" id="msg8"><polygon fill="#0F172A" points="1344.9761,599,1354.9761,603,1344.9761,607,1348.9761,603" style="stroke:#0F172A;stroke-width:1;"/><line style="stroke:#0F172A;stroke-width:1;" x1="956.3364" x2="1350.9761" y1="603" y2="603"/><text fill="#000000" font-family="Helvetica" font-size="14" lengthAdjust="spacing" textLength="335.4189" x="963.3364" y="597.7803">GetTenantmanagercontrolplaneSubscriptionLineItems</text></g><g class="message" data-entity-1="part4" data-entity-2="part3" id="msg9"><polygon fill="#0F172A" points="630.4829,634,620.4829,638,630.4829,642,626.4829,638" style="stroke:#0F172A;stroke-width:1;"/><line style="stroke:#0F172A;stroke-width:1;stroke-dasharray:2,2;" x1="624.4829" x2="955.3364" y1="638" y2="638"/><text fill="#000000" font-family="Helvetica" font-size="14" lengthAdjust="spacing" textLength="231.0957" x="636.4829" y="632.7803">persist resolved OCI identity in status</text></g><path d="M541.459,660 L594.7969,660 L594.7969,666 L584.7969,676 L533.459,676 L533.459,668 A8,8 0 0 1 541.459,660" fill="#F8FAFC" style="stroke:#CBD5E1;stroke-width:1.5;"/><rect fill="none" height="868" rx="8" ry="8" style="stroke:#CBD5E1;stroke-width:1.5;" width="889.8218" x="533.459" y="660"/><text fill="#000000" font-family="Helvetica" font-size="14" font-weight="bold" lengthAdjust="spacing" textLength="16.3379" x="548.459" y="671.7803">alt</text><text fill="#000000" font-family="Helvetica" font-size="14" font-weight="bold" lengthAdjust="spacing" textLength="120.5859" x="609.7969" y="672.7803">[delete requested]</text><path d="M551.459,683 L630.4795,683 L630.4795,689 L620.4795,699 L543.459,699 L543.459,691 A8,8 0 0 1 551.459,683" fill="#F8FAFC" style="stroke:#CBD5E1;stroke-width:1.5;"/><rect fill="none" height="302" rx="8" ry="8" style="stroke:#CBD5E1;stroke-width:1.5;" width="852.9619" x="543.459" y="683"/><text fill="#000000" font-family="Helvetica" font-size="14" font-weight="bold" lengthAdjust="spacing" textLength="42.0205" x="558.459" y="694.7803">Delete</text><g class="message" data-entity-1="part4" data-entity-2="part5" id="msg10"><polygon fill="#0F172A" points="1344.9761,715,1354.9761,719,1344.9761,723,1348.9761,719" style="stroke:#0F172A;stroke-width:1;"/><line style="stroke:#0F172A;stroke-width:1;" x1="956.3364" x2="1350.9761" y1="719" y2="719"/><text fill="#000000" font-family="Helvetica" font-size="14" lengthAdjust="spacing" textLength="353.3223" x="963.3364" y="713.7803">DeleteTenantmanagercontrolplaneSubscriptionLineItems</text></g><g class="message" data-entity-1="part4" data-entity-2="part5" id="msg11"><polygon fill="#0F172A" points="1344.9761,785,1354.9761,789,1344.9761,793,1348.9761,789" style="stroke:#0F172A;stroke-width:1;"/><line style="stroke:#0F172A;stroke-width:1;" x1="956.3364" x2="1350.9761" y1="789" y2="789"/><text fill="#000000" font-family="Helvetica" font-size="14" lengthAdjust="spacing" textLength="109.7168" x="963.3364" y="741.7803">confirm delete via</text><text fill="#000000" font-family="Helvetica" font-size="14" lengthAdjust="spacing" textLength="335.4189" x="963.3364" y="755.7803">GetTenantmanagercontrolplaneSubscriptionLineItems</text><text fill="#000000" font-family="Helvetica" font-size="14" lengthAdjust="spacing" textLength="12.4482" x="963.3364" y="769.7803">or</text><text fill="#000000" font-family="Helvetica" font-size="14" lengthAdjust="spacing" textLength="334.6396" x="963.3364" y="783.7803">ListTenantmanagercontrolplaneSubscriptionLineItems</text></g><path d="M876.1401,804 L942.6851,804 L942.6851,810 L932.6851,820 L868.1401,820 L868.1401,812 A8,8 0 0 1 876.1401,804" fill="#F8FAFC" style="stroke:#CBD5E1;stroke-width:1.5;"/><rect fill="none" height="72" rx="8" ry="8" style="stroke:#CBD5E1;stroke-width:1.5;" width="518.2808" x="868.1401" y="804"/><text fill="#000000" font-family="Helvetica" font-size="14" font-weight="bold" lengthAdjust="spacing" textLength="29.5449" x="883.1401" y="815.7803">loop</text><text fill="#000000" font-family="Helvetica" font-size="14" font-weight="bold" lengthAdjust="spacing" textLength="182.7793" x="957.6851" y="816.7803">[delete pending DELETING]</text><g class="message" data-entity-1="part4" data-entity-2="part5" id="msg12"><polygon fill="#0F172A" points="1344.9761,864,1354.9761,868,1344.9761,872,1348.9761,868" style="stroke:#0F172A;stroke-width:1;"/><line style="stroke:#0F172A;stroke-width:1;" x1="956.3364" x2="1350.9761" y1="868" y2="868"/><text fill="#000000" font-family="Helvetica" font-size="14" lengthAdjust="spacing" textLength="335.4189" x="963.3364" y="834.7803">GetTenantmanagercontrolplaneSubscriptionLineItems</text><text fill="#000000" font-family="Helvetica" font-size="14" lengthAdjust="spacing" textLength="12.4482" x="963.3364" y="848.7803">or</text><text fill="#000000" font-family="Helvetica" font-size="14" lengthAdjust="spacing" textLength="334.6396" x="963.3364" y="862.7803">ListTenantmanagercontrolplaneSubscriptionLineItems</text></g><path d="M561.459,890 L614.7969,890 L614.7969,896 L604.7969,906 L553.459,906 L553.459,898 A8,8 0 0 1 561.459,890" fill="#F8FAFC" style="stroke:#CBD5E1;stroke-width:1.5;"/><rect fill="none" height="88" rx="8" ry="8" style="stroke:#CBD5E1;stroke-width:1.5;" width="491.0737" x="553.459" y="890"/><text fill="#000000" font-family="Helvetica" font-size="14" font-weight="bold" lengthAdjust="spacing" textLength="16.3379" x="568.459" y="901.7803">alt</text><text fill="#000000" font-family="Helvetica" font-size="14" font-weight="bold" lengthAdjust="spacing" textLength="261.4268" x="629.7969" y="902.7803">[cleanup or finalizer release is blocked]</text><g class="message" data-entity-1="part4" data-entity-2="part3" id="msg13"><polygon fill="#0F172A" points="630.4829,922,620.4829,926,630.4829,930,626.4829,926" style="stroke:#0F172A;stroke-width:1;"/><line style="stroke:#0F172A;stroke-width:1;stroke-dasharray:2,2;" x1="624.4829" x2="955.3364" y1="926" y2="926"/><text fill="#000000" font-family="Helvetica" font-size="14" lengthAdjust="spacing" textLength="170.4336" x="636.4829" y="920.7803">retain delete state and retry</text></g><line style="stroke:#CBD5E1;stroke-width:1;stroke-dasharray:2,2;" x1="553.459" x2="1044.5327" y1="935" y2="935"/><text fill="#000000" font-family="Helvetica" font-size="14" font-weight="bold" lengthAdjust="spacing" textLength="194.4824" x="558.459" y="945.7803">[delete completion observed]</text><g class="message" data-entity-1="part4" data-entity-2="part3" id="msg14"><polygon fill="#0F172A" points="630.4829,966,620.4829,970,630.4829,974,626.4829,970" style="stroke:#0F172A;stroke-width:1;"/><line style="stroke:#0F172A;stroke-width:1;stroke-dasharray:2,2;" x1="624.4829" x2="955.3364" y1="970" y2="970"/><text fill="#000000" font-family="Helvetica" font-size="14" lengthAdjust="spacing" textLength="243.5781" x="636.4829" y="964.7803">release finalizer after delete completion</text></g><line style="stroke:#CBD5E1;stroke-width:1;stroke-dasharray:2,2;" x1="533.459" x2="1423.2808" y1="993" y2="993"/><text fill="#000000" font-family="Helvetica" font-size="14" font-weight="bold" lengthAdjust="spacing" textLength="149.3857" x="538.459" y="1003.7803">[OCI state is retryable]</text><g class="message" data-entity-1="part4" data-entity-2="part3" id="msg15"><polygon fill="#0F172A" points="630.4829,1038,620.4829,1042,630.4829,1046,626.4829,1042" style="stroke:#0F172A;stroke-width:1;"/><line style="stroke:#0F172A;stroke-width:1;stroke-dasharray:2,2;" x1="624.4829" x2="955.3364" y1="1042" y2="1042"/><text fill="#000000" font-family="Helvetica" font-size="14" lengthAdjust="spacing" textLength="184.4199" x="636.4829" y="1022.7803">requeue while OCI remains in</text><text fill="#000000" font-family="Helvetica" font-size="14" lengthAdjust="spacing" textLength="260.5928" x="636.4829" y="1036.7803">PROVISIONING, UPDATING, DELETING</text></g><line style="stroke:#CBD5E1;stroke-width:1;stroke-dasharray:2,2;" x1="533.459" x2="1423.2808" y1="1051" y2="1051"/><text fill="#000000" font-family="Helvetica" font-size="14" font-weight="bold" lengthAdjust="spacing" textLength="200.751" x="538.459" y="1061.7803">[live state requires field-aware</text><text fill="#000000" font-family="Helvetica" font-size="14" font-weight="bold" lengthAdjust="spacing" textLength="105.0068" x="538.459" y="1075.7803">drift evaluation]</text><path d="M551.459,1087 L679.4453,1087 L679.4453,1093 L669.4453,1103 L543.459,1103 L543.459,1095 A8,8 0 0 1 551.459,1087" fill="#F8FAFC" style="stroke:#CBD5E1;stroke-width:1.5;"/><rect fill="none" height="392" rx="8" ry="8" style="stroke:#CBD5E1;stroke-width:1.5;" width="869.8218" x="543.459" y="1087"/><text fill="#000000" font-family="Helvetica" font-size="14" font-weight="bold" lengthAdjust="spacing" textLength="90.9863" x="558.459" y="1098.7803">Drift handling</text><path d="M910,1116 L910,1166 A8,8 0 0 0 918,1174 L1395,1174 A8,8 0 0 0 1403,1166 L1403,1118 L1393,1108 L918,1108 A8,8 0 0 0 910,1116" fill="#FFF7D6" style="stroke:#B45309;stroke-width:0.5;"/><path d="M1393,1108 L1393,1114 A4,4 0 0 0 1397,1118 L1403,1118 L1393,1108" fill="#FFF7D6" style="stroke:#B45309;stroke-width:0.5;"/><text fill="#334155" font-family="Helvetica" font-size="14" lengthAdjust="spacing" textLength="255.2813" x="1024.4998" y="1123.7803">Supported update surface: display_name</text><text fill="#334155" font-family="Helvetica" font-size="14" lengthAdjust="spacing" textLength="235.7783" x="1024.4998" y="1137.7803">Reject before mutate: force-new fields</text><text fill="#334155" font-family="Helvetica" font-size="14" lengthAdjust="spacing" textLength="100.3789" x="1024.4998" y="1151.7803">compartment_id</text><text fill="#334155" font-family="Helvetica" font-size="14" lengthAdjust="spacing" textLength="229.5576" x="1024.4998" y="1165.7803">Lookup filters: compartment_id, state</text><path d="M561.459,1186 L620.2246,1186 L620.2246,1192 L610.2246,1202 L553.459,1202 L553.459,1194 A8,8 0 0 1 561.459,1186" fill="#F8FAFC" style="stroke:#CBD5E1;stroke-width:1.5;"/><rect fill="none" height="44" rx="8" ry="8" style="stroke:#CBD5E1;stroke-width:1.5;" width="491.0737" x="553.459" y="1186"/><text fill="#000000" font-family="Helvetica" font-size="14" font-weight="bold" lengthAdjust="spacing" textLength="21.7656" x="568.459" y="1197.7803">opt</text><text fill="#000000" font-family="Helvetica" font-size="14" font-weight="bold" lengthAdjust="spacing" textLength="276.1309" x="635.2246" y="1198.7803">[force-new or conflicting drift is detected]</text><g class="message" data-entity-1="part4" data-entity-2="part3" id="msg16"><polygon fill="#0F172A" points="630.4829,1218,620.4829,1222,630.4829,1226,626.4829,1222" style="stroke:#0F172A;stroke-width:1;"/><line style="stroke:#0F172A;stroke-width:1;stroke-dasharray:2,2;" x1="624.4829" x2="955.3364" y1="1222" y2="1222"/><text fill="#000000" font-family="Helvetica" font-size="14" lengthAdjust="spacing" textLength="164.1855" x="636.4829" y="1216.7803">reject before OCI mutation</text></g><path d="M866.1401,1244 L924.9058,1244 L924.9058,1250 L914.9058,1260 L858.1401,1260 L858.1401,1252 A8,8 0 0 1 866.1401,1244" fill="#F8FAFC" style="stroke:#CBD5E1;stroke-width:1.5;"/><rect fill="none" height="130" rx="8" ry="8" style="stroke:#CBD5E1;stroke-width:1.5;" width="538.2808" x="858.1401" y="1244"/><text fill="#000000" font-family="Helvetica" font-size="14" font-weight="bold" lengthAdjust="spacing" textLength="21.7656" x="873.1401" y="1255.7803">opt</text><text fill="#000000" font-family="Helvetica" font-size="14" font-weight="bold" lengthAdjust="spacing" textLength="243.4619" x="939.9058" y="1256.7803">[supported mutable drift is detected]</text><g class="message" data-entity-1="part4" data-entity-2="part5" id="msg17"><polygon fill="#0F172A" points="1344.9761,1304,1354.9761,1308,1344.9761,1312,1348.9761,1308" style="stroke:#0F172A;stroke-width:1;"/><line style="stroke:#0F172A;stroke-width:1;" x1="956.3364" x2="1350.9761" y1="1308" y2="1308"/><text fill="#000000" font-family="Helvetica" font-size="14" lengthAdjust="spacing" textLength="35.0205" x="963.3364" y="1274.7803">Apply</text><text fill="#000000" font-family="Helvetica" font-size="14" lengthAdjust="spacing" textLength="357.998" x="963.3364" y="1288.7803">UpdateTenantmanagercontrolplaneSubscriptionLineItems</text><text fill="#000000" font-family="Helvetica" font-size="14" lengthAdjust="spacing" textLength="226.4541" x="963.3364" y="1302.7803">only for mutable fields display_name</text></g><path d="M876.1401,1323 L942.6851,1323 L942.6851,1329 L932.6851,1339 L868.1401,1339 L868.1401,1331 A8,8 0 0 1 876.1401,1323" fill="#F8FAFC" style="stroke:#CBD5E1;stroke-width:1.5;"/><rect fill="none" height="44" rx="8" ry="8" style="stroke:#CBD5E1;stroke-width:1.5;" width="518.2808" x="868.1401" y="1323"/><text fill="#000000" font-family="Helvetica" font-size="14" font-weight="bold" lengthAdjust="spacing" textLength="29.5449" x="883.1401" y="1334.7803">loop</text><text fill="#000000" font-family="Helvetica" font-size="14" font-weight="bold" lengthAdjust="spacing" textLength="190.5381" x="957.6851" y="1335.7803">[update pending UPDATING]</text><g class="message" data-entity-1="part4" data-entity-2="part5" id="msg18"><polygon fill="#0F172A" points="1344.9761,1355,1354.9761,1359,1344.9761,1363,1348.9761,1359" style="stroke:#0F172A;stroke-width:1;"/><line style="stroke:#0F172A;stroke-width:1;" x1="956.3364" x2="1350.9761" y1="1359" y2="1359"/><text fill="#000000" font-family="Helvetica" font-size="14" lengthAdjust="spacing" textLength="335.4189" x="963.3364" y="1353.7803">GetTenantmanagercontrolplaneSubscriptionLineItems</text></g><g class="message" data-entity-1="part4" data-entity-2="part5" id="msg19"><polygon fill="#0F172A" points="1344.9761,1467,1354.9761,1471,1344.9761,1475,1348.9761,1471" style="stroke:#0F172A;stroke-width:1;"/><line style="stroke:#0F172A;stroke-width:1;" x1="956.3364" x2="1350.9761" y1="1471" y2="1471"/><text fill="#000000" font-family="Helvetica" font-size="14" lengthAdjust="spacing" textLength="104.2891" x="963.3364" y="1395.7803">run helper hooks</text><text fill="#000000" font-family="Helvetica" font-size="14" lengthAdjust="spacing" textLength="219.0508" x="963.3364" y="1409.7803">create=tfresource.CreateResource,</text><text fill="#000000" font-family="Helvetica" font-size="14" lengthAdjust="spacing" textLength="314.3164" x="963.3364" y="1423.7803">tfresource.WaitForWorkRequestWithErrorHandling</text><text fill="#000000" font-family="Helvetica" font-size="14" lengthAdjust="spacing" textLength="215.5439" x="963.3364" y="1437.7803">entity=template action=CREATED;</text><text fill="#000000" font-family="Helvetica" font-size="14" lengthAdjust="spacing" textLength="226.085" x="963.3364" y="1451.7803">update=tfresource.UpdateResource;</text><text fill="#000000" font-family="Helvetica" font-size="14" lengthAdjust="spacing" textLength="212.8438" x="963.3364" y="1465.7803">delete=tfresource.DeleteResource</text></g><g class="message" data-entity-1="part4" data-entity-2="part3" id="msg20"><polygon fill="#0F172A" points="630.4829,1516,620.4829,1520,630.4829,1524,626.4829,1520" style="stroke:#0F172A;stroke-width:1;"/><line style="stroke:#0F172A;stroke-width:1;stroke-dasharray:2,2;" x1="624.4829" x2="955.3364" y1="1520" y2="1520"/><text fill="#000000" font-family="Helvetica" font-size="14" lengthAdjust="spacing" textLength="100.7822" x="636.4829" y="1500.7803">status=required,</text><text fill="#000000" font-family="Helvetica" font-size="14" lengthAdjust="spacing" textLength="230.7197" x="636.4829" y="1514.7803">finalizer=retain-until-confirmed-delete</text></g><g class="message" data-entity-1="part3" data-entity-2="part2" id="msg21"><polygon fill="#0F172A" points="391.6567,1565,381.6567,1569,391.6567,1573,387.6567,1569" style="stroke:#0F172A;stroke-width:1;"/><line style="stroke:#0F172A;stroke-width:1;stroke-dasharray:2,2;" x1="385.6567" x2="618.4829" y1="1569" y2="1569"/><text fill="#000000" font-family="Helvetica" font-size="14" lengthAdjust="spacing" textLength="214.8262" x="397.6567" y="1549.7803">requeue on provisioning, updating,</text><text fill="#000000" font-family="Helvetica" font-size="14" lengthAdjust="spacing" textLength="69.2549" x="397.6567" y="1563.7803">terminating</text></g><path d="M961,1590 L961,2088 A8,8 0 0 0 969,2096 L1508,2096 A8,8 0 0 0 1516,2088 L1516,1592 L1506,1582 L969,1582 A8,8 0 0 0 961,1590" fill="#FFF7D6" style="stroke:#B45309;stroke-width:0.5;"/><path d="M1506,1582 L1506,1588 A4,4 0 0 0 1510,1592 L1516,1592 L1506,1582" fill="#FFF7D6" style="stroke:#B45309;stroke-width:0.5;"/><text fill="#334155" font-family="Helvetica" font-size="14" lengthAdjust="spacing" textLength="101.165" x="967" y="1597.7803">shared diagram:</text><text fill="#334155" font-family="Helvetica" font-size="14" lengthAdjust="spacing" textLength="307.3916" x="967" y="1611.7803">shared/diagrams/shared-resolution-sequence.svg</text><text fill="#334155" font-family="Helvetica" font-size="14" lengthAdjust="spacing" textLength="143.1992" x="967" y="1625.7803">shared delete diagram:</text><text fill="#334155" font-family="Helvetica" font-size="14" lengthAdjust="spacing" textLength="284.833" x="967" y="1639.7803">shared/diagrams/shared-delete-sequence.svg</text><text fill="#334155" font-family="Helvetica" font-size="14" lengthAdjust="spacing" textLength="280.9297" x="967" y="1653.7803">Start from the shared resolution sequence for</text><text fill="#334155" font-family="Helvetica" font-size="14" lengthAdjust="spacing" textLength="260.7295" x="967" y="1667.7803">OCID binding, datasource pagination, and</text><text fill="#334155" font-family="Helvetica" font-size="14" lengthAdjust="spacing" textLength="163.4268" x="967" y="1681.7803">create-or-update dispatch.</text><text fill="#334155" font-family="Helvetica" font-size="14" lengthAdjust="spacing" textLength="301.1982" x="967" y="1695.7803">Layer the shared delete sequence when finalizer</text><text fill="#334155" font-family="Helvetica" font-size="14" lengthAdjust="spacing" textLength="269.2471" x="967" y="1709.7803">retention, delete confirmation, work-request</text><text fill="#334155" font-family="Helvetica" font-size="14" lengthAdjust="spacing" textLength="199.2334" x="967" y="1723.7803">polling, or Secret cleanup apply.</text><text fill="#334155" font-family="Helvetica" font-size="14" lengthAdjust="spacing" textLength="281.709" x="967" y="1737.7803">archetype batch: Generated service-manager</text><text fill="#334155" font-family="Helvetica" font-size="14" lengthAdjust="spacing" textLength="266.1504" x="967" y="1751.7803">controllers follow the shared resolution and</text><text fill="#334155" font-family="Helvetica" font-size="14" lengthAdjust="spacing" textLength="259.9297" x="967" y="1765.7803">delete sequences with imported waits and</text><text fill="#334155" font-family="Helvetica" font-size="14" lengthAdjust="spacing" textLength="134.6064" x="967" y="1779.7803">controller-local policy.</text><text fill="#334155" font-family="Helvetica" font-size="14" lengthAdjust="spacing" textLength="222.5781" x="967" y="1793.7803">service: tenantmanagercontrolplane</text><text fill="#334155" font-family="Helvetica" font-size="14" lengthAdjust="spacing" textLength="29.5723" x="967" y="1807.7803">slug:</text><text fill="#334155" font-family="Helvetica" font-size="14" lengthAdjust="spacing" textLength="300.3984" x="967" y="1821.7803">tenantmanagercontrolplanesubscriptionlineitems</text><text fill="#334155" font-family="Helvetica" font-size="14" lengthAdjust="spacing" textLength="29.5723" x="967" y="1835.7803">kind:</text><text fill="#334155" font-family="Helvetica" font-size="14" lengthAdjust="spacing" textLength="312.8535" x="967" y="1849.7803">TenantmanagercontrolplaneSubscriptionLineItems</text><text fill="#334155" font-family="Helvetica" font-size="14" lengthAdjust="spacing" textLength="241.2402" x="967" y="1863.7803">archetype: generated-service-manager</text><text fill="#334155" font-family="Helvetica" font-size="14" lengthAdjust="spacing" textLength="156.4063" x="967" y="1877.7803">status/finalizer: required /</text><text fill="#334155" font-family="Helvetica" font-size="14" lengthAdjust="spacing" textLength="174.3027" x="967" y="1891.7803">retain-until-confirmed-delete</text><text fill="#334155" font-family="Helvetica" font-size="14" lengthAdjust="spacing" textLength="272.3984" x="967" y="1905.7803">requeue: provisioning, updating, terminating</text><text fill="#334155" font-family="Helvetica" font-size="14" lengthAdjust="spacing" textLength="295.6816" x="967" y="1919.7803">provider states: create PROVISIONING; update</text><text fill="#334155" font-family="Helvetica" font-size="14" lengthAdjust="spacing" textLength="192.165" x="967" y="1933.7803">UPDATING; delete DELETING</text><text fill="#334155" font-family="Helvetica" font-size="14" lengthAdjust="spacing" textLength="183.6611" x="967" y="1947.7803">supported drift: display_name</text><text fill="#334155" font-family="Helvetica" font-size="14" lengthAdjust="spacing" textLength="230.3301" x="967" y="1961.7803">reject before mutate: force-new fields</text><text fill="#334155" font-family="Helvetica" font-size="14" lengthAdjust="spacing" textLength="100.3789" x="967" y="1975.7803">compartment_id</text><text fill="#334155" font-family="Helvetica" font-size="14" lengthAdjust="spacing" textLength="66.1445" x="967" y="1989.7803">list lookup:</text><text fill="#334155" font-family="Helvetica" font-size="14" lengthAdjust="spacing" textLength="534.6729" x="967" y="2003.7803">scaffold_tenantmanagercontrolplane_tenantmanagercontrolplanesubscriptionlineitems</text><text fill="#334155" font-family="Helvetica" font-size="14" lengthAdjust="spacing" textLength="175.8477" x="967" y="2017.7803">filters compartment_id, state</text><text fill="#334155" font-family="Helvetica" font-size="14" lengthAdjust="spacing" textLength="89.4961" x="967" y="2031.7803">conflicts: none</text><text fill="#334155" font-family="Helvetica" font-size="14" lengthAdjust="spacing" textLength="104.3164" x="967" y="2045.7803">open gaps: none</text><text fill="#334155" font-family="Helvetica" font-size="14" lengthAdjust="spacing" textLength="224.9023" x="967" y="2059.7803">Scaffold metadata only; replace with</text><text fill="#334155" font-family="Helvetica" font-size="14" lengthAdjust="spacing" textLength="244.3232" x="967" y="2073.7803">controller-specific runtime states before</text><text fill="#334155" font-family="Helvetica" font-size="14" lengthAdjust="spacing" textLength="66.1445" x="967" y="2087.7803">promotion.</text><?plantuml-src jLTRRzis57xdho2wbnQmagP9Ub6G0MsIjK6pf8ZJvSL0G4j7DXUAr4ZAhZVil-_m8bbox3NkCkGXiaYUw_UTZpBtN5PCivAQASlLdCi9BPWmG4oxCcRP_KIhMkOdIYXDVoeo_CixEt8eM2tiBqhQIrO2_GHY1fPdRFsU8VyJwDv1Pv5fhURH-ijYxyshxacfB7nu44DHlCbVh-vIEWSTTumF3lTVlblPuTp7zVtzWxt3mywwDvyfBK7JlTV4SYk03k6F6cG6DA4M99EsP99DG6TeI2jH2IPXzsRJoh0Ucqppod8bBxY4Smkb8LEU0osKicFrhUFVDAx-8fIop2hTooVMfLbQBGYyWhV5Irn6OrXwNc54wyztDpp6IgTchGt12t09zJoyEs3xuxUuwanMlQLid1_2Nhlqe9jl2rPav6_YSwEVwp5W6omOqec3deJA2j2zrn-OWMl0icTyTUdPrV3gyn3qZ6VmQsZFCyeCxR_g7RawEISEALJD40TzsuELSyWP3JdLO9IeNO_J-6etvso2FJMxuNUot98qRTuniqbZ8GU1sMuy7PRx9q7c7j5aMIoQ_DofKKf1uluQHd8xV8waRZ8cItFEUByQAMsVdsiNch4lI7-BEzIlMKfRuvYruPZUjl4HZo5weTGz_cDOXp6NEM72KgiHMLXFn11ygmJsr3UK8k4aydb1cT30yWMkScCDwSVceiNTAVq8TikG04TcwxtrnWqjkJ4uL3Tvki0mjdFrlE32WZRfI6QgTCWjqTiTpmVKM6RXXI-4XjgmCTROPU_0LsiSB1WFGWP73p9lKqGdM20BMwOlbAfeva_I2f7fPEJBzTLlvyFpgylpouzFM6YCt1TxVOR_Mt_N56mD8Ifi33eE4s66KEY1ZqlVeZgOSsqAnAQHFP17Q9_wrvkY3wjR9h315Xuik2wRG6QSZUJMrHb9fKToUoW7s4JN3MnEpoxERfuICZySNTEaJ02Js1KSAWMNJE3jHMFByAtnb1eBvMZ_67nei0nH45FsVFK33D_hHS1rN7FSnWSCYAgnGSkFTH32MWRA2fmM3wq68ZLaSZ0DqM0-FXX7hSSvz1f3vrFUSh7470sYVIIxCs10ltuvVN_ZdzecU--2pvfYE7Ee2GOJ094dR8xwDvAvveMbC6EYPZxuI1F_Uee556x4BbMx7_V0IVgmhYgbaMAqhdBdoTIwO1caDES6GR2uatXp9TVmEsIMZg5G6cXPkw1I79WuMn89yn2M8Vt9Iw8KDPEPhXtCIyLMbUsOH5Wv5g9OMOV_a2ks8SU6PVQnRU-6xRhWGs_wx1oQjW1koGtExtkAb7jVLM8nabzzuROcdnGBbsthDfImNtO_269Zca7GeEM9jMEpykbQqYa8dE5qYWt5s8EY7TkYqPUTe8xNyUTW93jhjupZNLdVAdr_7GRwBRVJC_oqqPyYHaSoIC4nneE1ElPdBiRZa-kpzpTdfqSZ6QhGzHdgtlZ4BO7CtIr14fejZrMh84R7aNCvPjEEZUCmgP8QmnL9L8ds9keThDxqLYwVpM300LPfDUC6qyGA34ARtHCM3tI97ctBNiqdKqjLGTTVjEEz-B_TihzhPTrjUsYHpxJGggHs2lJ1nN_vyOPG9mYdKtyfzGbZkYnUJoesyVagEN1pdmI09Ked4VoE5SncqnromHPOrOwpHZGQH_CfoEMS9zWmXordkHtslclHtHnXcSIB1gcmIJusvOObHh5KEUR8laEOpgPW5nNWvp_6u-Y6tyNCpGyJUfD4tf6ixJgERVolvXjgv39UoSBGENA4yZBEfZboo8JIj5OJr5ScACRCCumikaytVuyJ8-f9IZQkcyvqm380zzC1lyFpb6mvKjeofNJI52XPBL3WsMxRgxIHkPpkadydMcHHkeb3j4iXlmU_kOFUE1qAD_Ak2X_5CKkQyNhKmANLvALIU8LOKKZzGmeftArOU9b4tcMiGA3aTnixTBTbxwBoRX3UHbwn8YX7Jd-HEHDMDR-7CHvQOYySMwaJhIFi4hfqJ4E8Tl5eAiXumJEd69QNyUvYOarS6qhbujjf9VyV?></g></svg>