<?plantuml 1.2026.1?><svg xmlns="http://www.w3.org/2000/svg" xmlns:xlink="http://www.w3.org/1999/xlink" contentStyleType="text/css" data-diagram-type="ACTIVITY" height="2322px" preserveAspectRatio="none" style="width:1380px;height:2322px;background:#FCFCFD;" version="1.1" viewBox="0 0 1380 2322" width="1380px" zoomAndPan="magnify"><title>Activity - capacitymanagement/CapacityManagementOccAvailabilityCatalogOccAvailabilities</title><defs/><g><rect fill="#FCFCFD" height="2322" style="stroke:none;stroke-width:1;" width="1380" x="0" y="0"/><g class="title" data-source-line="10"><text fill="#000000" font-family="Helvetica" font-size="14" font-weight="bold" lengthAdjust="spacing" textLength="616.998" x="380.0127" y="30.7803">Activity - capacitymanagement/CapacityManagementOccAvailabilityCatalogOccAvailabilities</text></g><ellipse cx="713.4396" cy="55" fill="#1D4ED8" rx="10" ry="10" style="stroke:#222222;stroke-width:1;"/><rect fill="none" height="472" rx="8" ry="8" style="stroke:#000000;stroke-width:1.5;" width="919.3691" x="258.6188" y="75"/><path d="M380.6871,75 L380.6871,82 L370.6871,92 L258.6188,92" fill="none" style="stroke:#000000;stroke-width:1.5;"/><text fill="#000000" font-family="Helvetica" font-size="14" lengthAdjust="spacing" textLength="112.0684" x="261.6188" y="86.7803">Observe and Bind</text><rect fill="#F8FAFC" height="48" rx="8" ry="8" style="stroke:#0F172A;stroke-width:0.5;" width="304.7852" x="561.047" y="109"/><text fill="#0F172A" font-family="Helvetica" font-size="14" lengthAdjust="spacing" textLength="136.9375" x="571.047" y="129.7803">Start from shared flow</text><text fill="#0F172A" font-family="Helvetica" font-size="14" lengthAdjust="spacing" textLength="284.7852" x="571.047" y="143.7803">shared/diagrams/shared-reconcile-activity.svg</text><rect fill="#F8FAFC" height="62" rx="8" ry="8" style="stroke:#0F172A;stroke-width:0.5;" width="397.3916" x="514.7438" y="177"/><text fill="#0F172A" font-family="Helvetica" font-size="14" lengthAdjust="spacing" textLength="83.2754" x="524.7438" y="197.7803">Read desired</text><text fill="#0F172A" font-family="Helvetica" font-size="14" lengthAdjust="spacing" textLength="377.3916" x="524.7438" y="211.7803">CapacityManagementOccAvailabilityCatalogOccAvailabilities</text><text fill="#0F172A" font-family="Helvetica" font-size="14" lengthAdjust="spacing" textLength="235.8125" x="524.7438" y="225.7803">spec, tracked status, and delete intent</text><polygon fill="#E2E8F0" points="583.9738,259,842.9054,259,854.9054,271,842.9054,283,583.9738,283,571.9738,271,583.9738,259" style="stroke:#1D4ED8;stroke-width:0.5;"/><text fill="#0F172A" font-family="Helvetica" font-size="14" lengthAdjust="spacing" textLength="258.9316" x="583.9738" y="274.7803">"Tracked or explicit OCI identity present?"</text><text fill="#000000" font-family="Helvetica" font-size="14" lengthAdjust="spacing" textLength="21.7861" x="550.1876" y="267.7803">yes</text><text fill="#000000" font-family="Helvetica" font-size="14" lengthAdjust="spacing" textLength="15.5723" x="854.9054" y="267.7803">no</text><rect fill="#F8FAFC" height="48" rx="8" ry="8" style="stroke:#0F172A;stroke-width:0.5;" width="419.957" x="278.6188" y="293"/><text fill="#0F172A" font-family="Helvetica" font-size="14" lengthAdjust="spacing" textLength="202.3027" x="288.6188" y="313.7803">Get the current OCI resource via</text><text fill="#0F172A" font-family="Helvetica" font-size="14" lengthAdjust="spacing" textLength="399.957" x="288.6188" y="327.7803">GetCapacityManagementOccAvailabilityCatalogOccAvailabilities</text><rect fill="#F8FAFC" height="62" rx="8" ry="8" style="stroke:#0F172A;stroke-width:0.5;" width="419.1777" x="728.693" y="293"/><text fill="#0F172A" font-family="Helvetica" font-size="14" lengthAdjust="spacing" textLength="259.9092" x="738.693" y="313.7803">Resolve an existing OCI resource through</text><text fill="#0F172A" font-family="Helvetica" font-size="14" lengthAdjust="spacing" textLength="399.1777" x="738.693" y="327.7803">ListCapacityManagementOccAvailabilityCatalogOccAvailabilities</text><text fill="#0F172A" font-family="Helvetica" font-size="14" lengthAdjust="spacing" textLength="213.2061" x="738.693" y="341.7803">using filters compartment_id, state</text><rect fill="#F8FAFC" height="62" rx="8" ry="8" style="stroke:#0F172A;stroke-width:0.5;" width="439.4121" x="718.5758" y="375"/><text fill="#0F172A" font-family="Helvetica" font-size="14" lengthAdjust="spacing" textLength="174.2959" x="728.5758" y="395.7803">Create the OCI resource via</text><text fill="#0F172A" font-family="Helvetica" font-size="14" lengthAdjust="spacing" textLength="419.4121" x="728.5758" y="409.7803">CreateCapacityManagementOccAvailabilityCatalogOccAvailabilities</text><text fill="#0F172A" font-family="Helvetica" font-size="14" lengthAdjust="spacing" textLength="205.4609" x="728.5758" y="423.7803">when no reusable match is found</text><rect fill="#F8FAFC" height="48" rx="8" ry="8" style="stroke:#0F172A;stroke-width:0.5;" width="286.8955" x="794.8341" y="457"/><text fill="#0F172A" font-family="Helvetica" font-size="14" lengthAdjust="spacing" textLength="266.8955" x="804.8341" y="477.7803">Persist the resolved or created OCI identity</text><text fill="#0F172A" font-family="Helvetica" font-size="14" lengthAdjust="spacing" textLength="63.8135" x="804.8341" y="491.7803">into status</text><polygon fill="#E2E8F0" points="713.4396,511,725.4396,523,713.4396,535,701.4396,523,713.4396,511" style="stroke:#1D4ED8;stroke-width:0.5;"/><polygon fill="#E2E8F0" points="651.2633,567,775.6158,567,787.6158,579,775.6158,591,651.2633,591,639.2633,579,651.2633,567" style="stroke:#1D4ED8;stroke-width:0.5;"/><text fill="#0F172A" font-family="Helvetica" font-size="14" lengthAdjust="spacing" textLength="124.3525" x="651.2633" y="582.7803">"Delete requested?"</text><text fill="#000000" font-family="Helvetica" font-size="14" lengthAdjust="spacing" textLength="21.7861" x="617.4772" y="575.7803">yes</text><text fill="#000000" font-family="Helvetica" font-size="14" lengthAdjust="spacing" textLength="15.5723" x="787.6158" y="575.7803">no</text><rect fill="none" height="444" rx="8" ry="8" style="stroke:#000000;stroke-width:1.5;" width="644.4814" x="11" y="601"/><path d="M61.4688,601 L61.4688,608 L51.4688,618 L11,618" fill="none" style="stroke:#000000;stroke-width:1.5;"/><text fill="#000000" font-family="Helvetica" font-size="14" lengthAdjust="spacing" textLength="40.4688" x="14" y="612.7803">Delete</text><rect fill="#F8FAFC" height="118" rx="8" ry="8" style="stroke:#0F172A;stroke-width:0.5;" width="437.8604" x="120.814" y="635"/><text fill="#0F172A" font-family="Helvetica" font-size="14" lengthAdjust="spacing" textLength="105.0684" x="130.814" y="655.7803">Delete path uses</text><text fill="#0F172A" font-family="Helvetica" font-size="14" lengthAdjust="spacing" textLength="417.8604" x="130.814" y="669.7803">DeleteCapacityManagementOccAvailabilityCatalogOccAvailabilities</text><text fill="#0F172A" font-family="Helvetica" font-size="14" lengthAdjust="spacing" textLength="101.9375" x="130.814" y="683.7803">with required via</text><text fill="#0F172A" font-family="Helvetica" font-size="14" lengthAdjust="spacing" textLength="399.957" x="130.814" y="697.7803">GetCapacityManagementOccAvailabilityCatalogOccAvailabilities</text><text fill="#0F172A" font-family="Helvetica" font-size="14" lengthAdjust="spacing" textLength="12.4482" x="130.814" y="711.7803">or</text><text fill="#0F172A" font-family="Helvetica" font-size="14" lengthAdjust="spacing" textLength="399.1777" x="130.814" y="725.7803">ListCapacityManagementOccAvailabilityCatalogOccAvailabilities</text><text fill="#0F172A" font-family="Helvetica" font-size="14" lengthAdjust="spacing" textLength="160.2822" x="130.814" y="739.7803">to DELETED confirmation</text><rect fill="#F8FAFC" height="90" rx="8" ry="8" style="stroke:#0F172A;stroke-width:0.5;" width="419.957" x="129.7656" y="788"/><text fill="#0F172A" font-family="Helvetica" font-size="14" lengthAdjust="spacing" textLength="123.7236" x="139.7656" y="808.7803">Confirm deletion via</text><text fill="#0F172A" font-family="Helvetica" font-size="14" lengthAdjust="spacing" textLength="399.957" x="139.7656" y="822.7803">GetCapacityManagementOccAvailabilityCatalogOccAvailabilities</text><text fill="#0F172A" font-family="Helvetica" font-size="14" lengthAdjust="spacing" textLength="12.4482" x="139.7656" y="836.7803">or</text><text fill="#0F172A" font-family="Helvetica" font-size="14" lengthAdjust="spacing" textLength="399.1777" x="139.7656" y="850.7803">ListCapacityManagementOccAvailabilityCatalogOccAvailabilities</text><text fill="#0F172A" font-family="Helvetica" font-size="14" lengthAdjust="spacing" textLength="176.6201" x="139.7656" y="864.7803">until OCI reaches DELETED</text><polygon fill="#E2E8F0" points="191.5718,913,487.9165,913,499.9165,925,487.9165,937,191.5718,937,179.5718,925,191.5718,913" style="stroke:#1D4ED8;stroke-width:0.5;"/><text fill="#0F172A" font-family="Helvetica" font-size="14" lengthAdjust="spacing" textLength="296.3447" x="191.5718" y="928.7803">"Delete cleanup and finalizer release succeed?"</text><text fill="#000000" font-family="Helvetica" font-size="14" lengthAdjust="spacing" textLength="21.7861" x="157.7856" y="921.7803">yes</text><text fill="#000000" font-family="Helvetica" font-size="14" lengthAdjust="spacing" textLength="15.5723" x="499.9165" y="921.7803">no</text><rect fill="#F8FAFC" height="34" rx="8" ry="8" style="stroke:#0F172A;stroke-width:0.5;" width="293.1436" x="23" y="947"/><text fill="#0F172A" font-family="Helvetica" font-size="14" lengthAdjust="spacing" textLength="273.1436" x="33" y="967.7803">Remove the finalizer after delete completion</text><rect fill="#F8FAFC" height="48" rx="8" ry="8" style="stroke:#0F172A;stroke-width:0.5;" width="251.1299" x="384.3516" y="947"/><text fill="#0F172A" font-family="Helvetica" font-size="14" lengthAdjust="spacing" textLength="231.1299" x="394.3516" y="967.7803">Stay blocked until cleanup or finalizer</text><text fill="#0F172A" font-family="Helvetica" font-size="14" lengthAdjust="spacing" textLength="108.9512" x="394.3516" y="981.7803">release succeeds</text><polygon fill="#E2E8F0" points="339.7441,1001,351.7441,1013,339.7441,1025,327.7441,1013,339.7441,1001" style="stroke:#1D4ED8;stroke-width:0.5;"/><ellipse cx="339.7441" cy="1088" fill="none" rx="11" ry="11" style="stroke:#222222;stroke-width:1;"/><ellipse cx="339.7441" cy="1088" fill="#222222" rx="6" ry="6" style="stroke:#222222;stroke-width:1;"/><rect fill="none" height="456" rx="8" ry="8" style="stroke:#000000;stroke-width:1.5;" width="345.916" x="920.177" y="601"/><path d="M1071.011,601 L1071.011,608 L1061.011,618 L920.177,618" fill="none" style="stroke:#000000;stroke-width:1.5;"/><text fill="#000000" font-family="Helvetica" font-size="14" lengthAdjust="spacing" textLength="140.834" x="923.177" y="612.7803">Lifecycle Classification</text><rect fill="#F8FAFC" height="48" rx="8" ry="8" style="stroke:#0F172A;stroke-width:0.5;" width="280.5928" x="946.8386" y="684"/><text fill="#0F172A" font-family="Helvetica" font-size="14" lengthAdjust="spacing" textLength="240.4541" x="956.8386" y="704.7803">Request requeue while OCI remains in</text><text fill="#0F172A" font-family="Helvetica" font-size="14" lengthAdjust="spacing" textLength="260.5928" x="956.8386" y="718.7803">PROVISIONING, UPDATING, DELETING</text><ellipse cx="1087.135" cy="778" fill="none" rx="11" ry="11" style="stroke:#222222;stroke-width:1;"/><ellipse cx="1087.135" cy="778" fill="#222222" rx="6" ry="6" style="stroke:#222222;stroke-width:1;"/><polygon fill="#E2E8F0" points="1000.8518,635,1173.4182,635,1185.4182,647,1173.4182,659,1000.8518,659,988.8518,647,1000.8518,635" style="stroke:#1D4ED8;stroke-width:0.5;"/><text fill="#000000" font-family="Helvetica" font-size="14" lengthAdjust="spacing" textLength="21.7861" x="1091.135" y="669.7803">yes</text><text fill="#0F172A" font-family="Helvetica" font-size="14" lengthAdjust="spacing" textLength="172.5664" x="1000.8518" y="650.7803">"OCI state in retryable set?"</text><rect fill="#F8FAFC" height="48" rx="8" ry="8" style="stroke:#0F172A;stroke-width:0.5;" width="293.916" x="940.177" y="904"/><text fill="#0F172A" font-family="Helvetica" font-size="14" lengthAdjust="spacing" textLength="273.916" x="950.177" y="924.7803">Return an unsuccessful reconcile result until</text><text fill="#0F172A" font-family="Helvetica" font-size="14" lengthAdjust="spacing" textLength="133.041" x="950.177" y="938.7803">OCI reaches ACTIVE</text><ellipse cx="1087.135" cy="998" fill="none" rx="11" ry="11" style="stroke:#222222;stroke-width:1;"/><ellipse cx="1087.135" cy="998" fill="#222222" rx="6" ry="6" style="stroke:#222222;stroke-width:1;"/><polygon fill="#E2E8F0" points="966.614,855,1207.656,855,1219.656,867,1207.656,879,966.614,879,954.614,867,966.614,855" style="stroke:#1D4ED8;stroke-width:0.5;"/><text fill="#000000" font-family="Helvetica" font-size="14" lengthAdjust="spacing" textLength="21.7861" x="1091.135" y="889.7803">yes</text><text fill="#0F172A" font-family="Helvetica" font-size="14" lengthAdjust="spacing" textLength="241.042" x="966.614" y="870.7803">"OCI state is outside success targets?"</text><rect fill="none" height="736.5" rx="8" ry="8" style="stroke:#000000;stroke-width:1.5;" width="693.542" x="675.4814" y="1092"/><path d="M841.9014,1092 L841.9014,1099 L831.9014,1109 L675.4814,1109" fill="none" style="stroke:#000000;stroke-width:1.5;"/><text fill="#000000" font-family="Helvetica" font-size="14" lengthAdjust="spacing" textLength="156.4199" x="678.4814" y="1103.7803">Ready and Drift Handling</text><rect fill="#F8FAFC" height="48" rx="8" ry="8" style="stroke:#0F172A;stroke-width:0.5;" width="296.2402" x="939.0149" y="1126"/><text fill="#0F172A" font-family="Helvetica" font-size="14" lengthAdjust="spacing" textLength="276.2402" x="949.0149" y="1146.7803">Compare live OCI state against the imported</text><text fill="#0F172A" font-family="Helvetica" font-size="14" lengthAdjust="spacing" textLength="75.4824" x="949.0149" y="1160.7803">field surface</text><rect fill="#F8FAFC" height="48" rx="8" ry="8" style="stroke:#0F172A;stroke-width:0.5;" width="302.4473" x="935.9114" y="1243"/><text fill="#0F172A" font-family="Helvetica" font-size="14" lengthAdjust="spacing" textLength="282.4473" x="945.9114" y="1263.7803">Reject drift before OCI mutation for force-new</text><text fill="#0F172A" font-family="Helvetica" font-size="14" lengthAdjust="spacing" textLength="136.9512" x="945.9114" y="1277.7803">fields compartment_id</text><ellipse cx="1087.135" cy="1323.5" fill="none" rx="11" ry="11" style="stroke:#222222;stroke-width:1;"/><ellipse cx="1087.135" cy="1323.5" fill="#222222" rx="6" ry="6" style="stroke:#222222;stroke-width:1;"/><polygon fill="#E2E8F0" points="961.552,1194,1212.718,1194,1224.718,1206,1212.718,1218,961.552,1218,949.552,1206,961.552,1194" style="stroke:#1D4ED8;stroke-width:0.5;"/><text fill="#000000" font-family="Helvetica" font-size="14" lengthAdjust="spacing" textLength="21.7861" x="1091.135" y="1228.7803">yes</text><text fill="#0F172A" font-family="Helvetica" font-size="14" lengthAdjust="spacing" textLength="251.166" x="961.552" y="1209.7803">"Force-new or conflicting drift detected?"</text><polygon fill="#E2E8F0" points="976.7073,1376.5,1197.5627,1376.5,1209.5627,1388.5,1197.5627,1400.5,976.7073,1400.5,964.7073,1388.5,976.7073,1376.5" style="stroke:#1D4ED8;stroke-width:0.5;"/><text fill="#0F172A" font-family="Helvetica" font-size="14" lengthAdjust="spacing" textLength="220.8555" x="976.7073" y="1392.2803">"Supported mutable drift detected?"</text><text fill="#000000" font-family="Helvetica" font-size="14" lengthAdjust="spacing" textLength="21.7861" x="942.9211" y="1385.2803">yes</text><text fill="#000000" font-family="Helvetica" font-size="14" lengthAdjust="spacing" textLength="15.5723" x="1209.5627" y="1385.2803">no</text><rect fill="#F8FAFC" height="62" rx="8" ry="8" style="stroke:#0F172A;stroke-width:0.5;" width="442.5361" x="695.4814" y="1410.5"/><text fill="#0F172A" font-family="Helvetica" font-size="14" lengthAdjust="spacing" textLength="35.0205" x="705.4814" y="1431.2803">Apply</text><text fill="#0F172A" font-family="Helvetica" font-size="14" lengthAdjust="spacing" textLength="422.5361" x="705.4814" y="1445.2803">UpdateCapacityManagementOccAvailabilityCatalogOccAvailabilities</text><text fill="#0F172A" font-family="Helvetica" font-size="14" lengthAdjust="spacing" textLength="226.4541" x="705.4814" y="1459.2803">only for mutable fields display_name</text><rect fill="#F8FAFC" height="34" rx="8" ry="8" style="stroke:#0F172A;stroke-width:0.5;" width="199.0059" x="1158.0176" y="1410.5"/><text fill="#0F172A" font-family="Helvetica" font-size="14" lengthAdjust="spacing" textLength="179.0059" x="1168.0176" y="1431.2803">Skip the no-op mutation path</text><polygon fill="#E2E8F0" points="1087.135,1478.5,1099.135,1490.5,1087.135,1502.5,1075.135,1490.5,1087.135,1478.5" style="stroke:#1D4ED8;stroke-width:0.5;"/><rect fill="#F8FAFC" height="118" rx="8" ry="8" style="stroke:#0F172A;stroke-width:0.5;" width="334.3164" x="919.9768" y="1522.5"/><text fill="#0F172A" font-family="Helvetica" font-size="14" lengthAdjust="spacing" textLength="164.2061" x="929.9768" y="1543.2803">Run provider helper hooks</text><text fill="#0F172A" font-family="Helvetica" font-size="14" lengthAdjust="spacing" textLength="219.0508" x="929.9768" y="1557.2803">create=tfresource.CreateResource,</text><text fill="#0F172A" font-family="Helvetica" font-size="14" lengthAdjust="spacing" textLength="314.3164" x="929.9768" y="1571.2803">tfresource.WaitForWorkRequestWithErrorHandling</text><text fill="#0F172A" font-family="Helvetica" font-size="14" lengthAdjust="spacing" textLength="215.5439" x="929.9768" y="1585.2803">entity=template action=CREATED;</text><text fill="#0F172A" font-family="Helvetica" font-size="14" lengthAdjust="spacing" textLength="226.085" x="929.9768" y="1599.2803">update=tfresource.UpdateResource;</text><text fill="#0F172A" font-family="Helvetica" font-size="14" lengthAdjust="spacing" textLength="273.5537" x="929.9768" y="1613.2803">delete=tfresource.DeleteResource when the</text><text fill="#0F172A" font-family="Helvetica" font-size="14" lengthAdjust="spacing" textLength="220.2334" x="929.9768" y="1627.2803">matching field-driven path executes</text><rect fill="#F8FAFC" height="34" rx="8" ry="8" style="stroke:#0F172A;stroke-width:0.5;" width="303.2197" x="935.5251" y="1660.5"/><text fill="#0F172A" font-family="Helvetica" font-size="14" lengthAdjust="spacing" textLength="283.2197" x="945.5251" y="1681.2803">Return success for the ACTIVE success state</text><rect fill="#F8FAFC" height="48" rx="8" ry="8" style="stroke:#0F172A;stroke-width:0.5;" width="279.1299" x="947.5701" y="1714.5"/><text fill="#0F172A" font-family="Helvetica" font-size="14" lengthAdjust="spacing" textLength="259.1299" x="957.5701" y="1735.2803">Project required status and finalizer policy</text><text fill="#0F172A" font-family="Helvetica" font-size="14" lengthAdjust="spacing" textLength="174.3027" x="957.5701" y="1749.2803">retain-until-confirmed-delete</text><rect fill="#F8FAFC" height="34" rx="8" ry="8" style="stroke:#0F172A;stroke-width:0.5;" width="313.4189" x="930.4255" y="1782.5"/><text fill="#0F172A" font-family="Helvetica" font-size="14" lengthAdjust="spacing" textLength="293.4189" x="940.4255" y="1803.2803">Requeue on provisioning, updating, terminating</text><path d="M744.4396,1838.5 L744.4396,2070.5 L724.4396,2074.5 L744.4396,2078.5 L744.4396,2310.5 A0,0 0 0 0 744.4396,2310.5 L1324.1954,2310.5 A0,0 0 0 0 1324.1954,2310.5 L1324.1954,1848.5 L1314.1954,1838.5 L744.4396,1838.5 A0,0 0 0 0 744.4396,1838.5" fill="#FFF7D6" style="stroke:#B45309;stroke-width:0.5;"/><path d="M1314.1954,1838.5 L1314.1954,1848.5 L1324.1954,1848.5 L1314.1954,1838.5" fill="#FFF7D6" style="stroke:#B45309;stroke-width:0.5;"/><text fill="#334155" font-family="Helvetica" font-size="14" lengthAdjust="spacing" textLength="101.165" x="750.4396" y="1854.2803">shared diagram:</text><text fill="#334155" font-family="Helvetica" font-size="14" lengthAdjust="spacing" textLength="284.7852" x="750.4396" y="1868.2803">shared/diagrams/shared-reconcile-activity.svg</text><text fill="#334155" font-family="Helvetica" font-size="14" lengthAdjust="spacing" textLength="265.3438" x="750.4396" y="1882.2803">Start from the shared reconcile activity and</text><text fill="#334155" font-family="Helvetica" font-size="14" lengthAdjust="spacing" textLength="273.8955" x="750.4396" y="1896.2803">specialize provider-backed CRUD, wait, and</text><text fill="#334155" font-family="Helvetica" font-size="14" lengthAdjust="spacing" textLength="182.875" x="750.4396" y="1910.2803">status-projection details here.</text><text fill="#334155" font-family="Helvetica" font-size="14" lengthAdjust="spacing" textLength="229.5371" x="750.4396" y="1924.2803">Controller-local activity diagrams add</text><text fill="#334155" font-family="Helvetica" font-size="14" lengthAdjust="spacing" textLength="238.8955" x="750.4396" y="1938.2803">list-lookup hints, secret policies, delete</text><text fill="#334155" font-family="Helvetica" font-size="14" lengthAdjust="spacing" textLength="200.0332" x="750.4396" y="1952.2803">handling, and open formal gaps.</text><text fill="#334155" font-family="Helvetica" font-size="14" lengthAdjust="spacing" textLength="281.709" x="750.4396" y="1966.2803">archetype batch: Generated service-manager</text><text fill="#334155" font-family="Helvetica" font-size="14" lengthAdjust="spacing" textLength="291.0469" x="750.4396" y="1980.2803">controllers specialize the shared reconcile path</text><text fill="#334155" font-family="Helvetica" font-size="14" lengthAdjust="spacing" textLength="189.8477" x="750.4396" y="1994.2803">with formal runtime ownership.</text><text fill="#334155" font-family="Helvetica" font-size="14" lengthAdjust="spacing" textLength="185.1992" x="750.4396" y="2008.2803">service: capacitymanagement</text><text fill="#334155" font-family="Helvetica" font-size="14" lengthAdjust="spacing" textLength="29.5723" x="750.4396" y="2022.2803">slug:</text><text fill="#334155" font-family="Helvetica" font-size="14" lengthAdjust="spacing" textLength="361.8604" x="750.4396" y="2036.2803">capacitymanagementoccavailabilitycatalogoccavailabilities</text><text fill="#334155" font-family="Helvetica" font-size="14" lengthAdjust="spacing" textLength="29.5723" x="750.4396" y="2050.2803">kind:</text><text fill="#334155" font-family="Helvetica" font-size="14" lengthAdjust="spacing" textLength="377.3916" x="750.4396" y="2064.2803">CapacityManagementOccAvailabilityCatalogOccAvailabilities</text><text fill="#334155" font-family="Helvetica" font-size="14" lengthAdjust="spacing" textLength="241.2402" x="750.4396" y="2078.2803">archetype: generated-service-manager</text><text fill="#334155" font-family="Helvetica" font-size="14" lengthAdjust="spacing" textLength="156.4063" x="750.4396" y="2092.2803">status/finalizer: required /</text><text fill="#334155" font-family="Helvetica" font-size="14" lengthAdjust="spacing" textLength="174.3027" x="750.4396" y="2106.2803">retain-until-confirmed-delete</text><text fill="#334155" font-family="Helvetica" font-size="14" lengthAdjust="spacing" textLength="272.3984" x="750.4396" y="2120.2803">requeue: provisioning, updating, terminating</text><text fill="#334155" font-family="Helvetica" font-size="14" lengthAdjust="spacing" textLength="295.6816" x="750.4396" y="2134.2803">provider states: create PROVISIONING; update</text><text fill="#334155" font-family="Helvetica" font-size="14" lengthAdjust="spacing" textLength="192.165" x="750.4396" y="2148.2803">UPDATING; delete DELETING</text><text fill="#334155" font-family="Helvetica" font-size="14" lengthAdjust="spacing" textLength="183.6611" x="750.4396" y="2162.2803">supported drift: display_name</text><text fill="#334155" font-family="Helvetica" font-size="14" lengthAdjust="spacing" textLength="230.3301" x="750.4396" y="2176.2803">reject before mutate: force-new fields</text><text fill="#334155" font-family="Helvetica" font-size="14" lengthAdjust="spacing" textLength="100.3789" x="750.4396" y="2190.2803">compartment_id</text><text fill="#334155" font-family="Helvetica" font-size="14" lengthAdjust="spacing" textLength="66.1445" x="750.4396" y="2204.2803">list lookup:</text><text fill="#334155" font-family="Helvetica" font-size="14" lengthAdjust="spacing" textLength="558.7559" x="750.4396" y="2218.2803">scaffold_capacitymanagement_capacitymanagementoccavailabilitycatalogoccavailabilities</text><text fill="#334155" font-family="Helvetica" font-size="14" lengthAdjust="spacing" textLength="175.8477" x="750.4396" y="2232.2803">filters compartment_id, state</text><text fill="#334155" font-family="Helvetica" font-size="14" lengthAdjust="spacing" textLength="89.4961" x="750.4396" y="2246.2803">conflicts: none</text><text fill="#334155" font-family="Helvetica" font-size="14" lengthAdjust="spacing" textLength="104.3164" x="750.4396" y="2260.2803">open gaps: none</text><text fill="#334155" font-family="Helvetica" font-size="14" lengthAdjust="spacing" textLength="224.9023" x="750.4396" y="2274.2803">Scaffold metadata only; replace with</text><text fill="#334155" font-family="Helvetica" font-size="14" lengthAdjust="spacing" textLength="244.3232" x="750.4396" y="2288.2803">controller-specific runtime states before</text><text fill="#334155" font-family="Helvetica" font-size="14" lengthAdjust="spacing" textLength="66.1445" x="750.4396" y="2302.2803">promotion.</text><ellipse cx="713.4396" cy="2074.5" fill="none" rx="11" ry="11" style="stroke:#222222;stroke-width:1;"/><ellipse cx="713.4396" cy="2074.5" fill="#222222" rx="6" ry="6" style="stroke:#222222;stroke-width:1;"/><line style="stroke:#0F172A;stroke-width:1;" x1="713.4396" x2="713.4396" y1="157" y2="177"/><polygon fill="#0F172A" points="709.4396,167,713.4396,177,717.4396,167,713.4396,171" style="stroke:#0F172A;stroke-width:1;"/><line style="stroke:#0F172A;stroke-width:1;" x1="938.2819" x2="938.2819" y1="355" y2="375"/><polygon fill="#0F172A" points="934.2819,365,938.2819,375,942.2819,365,938.2819,369" style="stroke:#0F172A;stroke-width:1;"/><line style="stroke:#0F172A;stroke-width:1;" x1="938.2819" x2="938.2819" y1="437" y2="457"/><polygon fill="#0F172A" points="934.2819,447,938.2819,457,942.2819,447,938.2819,451" style="stroke:#0F172A;stroke-width:1;"/><line style="stroke:#0F172A;stroke-width:1;" x1="571.9738" x2="488.5973" y1="271" y2="271"/><line style="stroke:#0F172A;stroke-width:1;" x1="488.5973" x2="488.5973" y1="271" y2="293"/><polygon fill="#0F172A" points="484.5973,283,488.5973,293,492.5973,283,488.5973,287" style="stroke:#0F172A;stroke-width:1;"/><line style="stroke:#0F172A;stroke-width:1;" x1="854.9054" x2="938.2819" y1="271" y2="271"/><line style="stroke:#0F172A;stroke-width:1;" x1="938.2819" x2="938.2819" y1="271" y2="293"/><polygon fill="#0F172A" points="934.2819,283,938.2819,293,942.2819,283,938.2819,287" style="stroke:#0F172A;stroke-width:1;"/><line style="stroke:#0F172A;stroke-width:1;" x1="488.5973" x2="488.5973" y1="341" y2="523"/><line style="stroke:#0F172A;stroke-width:1;" x1="488.5973" x2="701.4396" y1="523" y2="523"/><polygon fill="#0F172A" points="691.4396,519,701.4396,523,691.4396,527,695.4396,523" style="stroke:#0F172A;stroke-width:1;"/><line style="stroke:#0F172A;stroke-width:1;" x1="938.2819" x2="938.2819" y1="505" y2="523"/><line style="stroke:#0F172A;stroke-width:1;" x1="938.2819" x2="725.4396" y1="523" y2="523"/><polygon fill="#0F172A" points="735.4396,519,725.4396,523,735.4396,527,731.4396,523" style="stroke:#0F172A;stroke-width:1;"/><line style="stroke:#0F172A;stroke-width:1;" x1="713.4396" x2="713.4396" y1="239" y2="259"/><polygon fill="#0F172A" points="709.4396,249,713.4396,259,717.4396,249,713.4396,253" style="stroke:#0F172A;stroke-width:1;"/><line style="stroke:#0F172A;stroke-width:1;" x1="713.4396" x2="713.4396" y1="65" y2="109"/><polygon fill="#0F172A" points="709.4396,99,713.4396,109,717.4396,99,713.4396,103" style="stroke:#0F172A;stroke-width:1;"/><line style="stroke:#0F172A;stroke-width:1;" x1="339.7441" x2="339.7441" y1="753" y2="788"/><polygon fill="#0F172A" points="335.7441,778,339.7441,788,343.7441,778,339.7441,782" style="stroke:#0F172A;stroke-width:1;"/><line style="stroke:#0F172A;stroke-width:1;" x1="179.5718" x2="169.5718" y1="925" y2="925"/><line style="stroke:#0F172A;stroke-width:1;" x1="169.5718" x2="169.5718" y1="925" y2="947"/><polygon fill="#0F172A" points="165.5718,937,169.5718,947,173.5718,937,169.5718,941" style="stroke:#0F172A;stroke-width:1;"/><line style="stroke:#0F172A;stroke-width:1;" x1="499.9165" x2="509.9165" y1="925" y2="925"/><line style="stroke:#0F172A;stroke-width:1;" x1="509.9165" x2="509.9165" y1="925" y2="947"/><polygon fill="#0F172A" points="505.9165,937,509.9165,947,513.9165,937,509.9165,941" style="stroke:#0F172A;stroke-width:1;"/><line style="stroke:#0F172A;stroke-width:1;" x1="169.5718" x2="169.5718" y1="981" y2="1013"/><line style="stroke:#0F172A;stroke-width:1;" x1="169.5718" x2="327.7441" y1="1013" y2="1013"/><polygon fill="#0F172A" points="317.7441,1009,327.7441,1013,317.7441,1017,321.7441,1013" style="stroke:#0F172A;stroke-width:1;"/><line style="stroke:#0F172A;stroke-width:1;" x1="509.9165" x2="509.9165" y1="995" y2="1013"/><line style="stroke:#0F172A;stroke-width:1;" x1="509.9165" x2="351.7441" y1="1013" y2="1013"/><polygon fill="#0F172A" points="361.7441,1009,351.7441,1013,361.7441,1017,357.7441,1013" style="stroke:#0F172A;stroke-width:1;"/><line style="stroke:#0F172A;stroke-width:1;" x1="339.7441" x2="339.7441" y1="878" y2="913"/><polygon fill="#0F172A" points="335.7441,903,339.7441,913,343.7441,903,339.7441,907" style="stroke:#0F172A;stroke-width:1;"/><line style="stroke:#0F172A;stroke-width:1;" x1="339.7441" x2="339.7441" y1="1025" y2="1077"/><polygon fill="#0F172A" points="335.7441,1067,339.7441,1077,343.7441,1067,339.7441,1071" style="stroke:#0F172A;stroke-width:1;"/><line style="stroke:#0F172A;stroke-width:1;" x1="1087.135" x2="1087.135" y1="732" y2="767"/><polygon fill="#0F172A" points="1083.135,757,1087.135,767,1091.135,757,1087.135,761" style="stroke:#0F172A;stroke-width:1;"/><line style="stroke:#0F172A;stroke-width:1;" x1="1087.135" x2="1087.135" y1="659" y2="684"/><polygon fill="#0F172A" points="1083.135,674,1087.135,684,1091.135,674,1087.135,678" style="stroke:#0F172A;stroke-width:1;"/><line style="stroke:#0F172A;stroke-width:1;" x1="1185.4182" x2="1237.4314" y1="647" y2="647"/><polygon fill="#0F172A" points="1233.4314,723.5,1237.4314,733.5,1241.4314,723.5,1237.4314,727.5" style="stroke:#0F172A;stroke-width:1;"/><line style="stroke:#0F172A;stroke-width:1;" x1="1237.4314" x2="1237.4314" y1="647" y2="820"/><line style="stroke:#0F172A;stroke-width:1;" x1="1237.4314" x2="1087.135" y1="820" y2="820"/><line style="stroke:#0F172A;stroke-width:1;" x1="1087.135" x2="1087.135" y1="820" y2="855"/><polygon fill="#0F172A" points="1083.135,845,1087.135,855,1091.135,845,1087.135,849" style="stroke:#0F172A;stroke-width:1;"/><line style="stroke:#0F172A;stroke-width:1;" x1="1087.135" x2="1087.135" y1="952" y2="987"/><polygon fill="#0F172A" points="1083.135,977,1087.135,987,1091.135,977,1087.135,981" style="stroke:#0F172A;stroke-width:1;"/><line style="stroke:#0F172A;stroke-width:1;" x1="1087.135" x2="1087.135" y1="879" y2="904"/><polygon fill="#0F172A" points="1083.135,894,1087.135,904,1091.135,894,1087.135,898" style="stroke:#0F172A;stroke-width:1;"/><line style="stroke:#0F172A;stroke-width:1;" x1="1219.656" x2="1244.093" y1="867" y2="867"/><polygon fill="#0F172A" points="1240.093,943.5,1244.093,953.5,1248.093,943.5,1244.093,947.5" style="stroke:#0F172A;stroke-width:1;"/><line style="stroke:#0F172A;stroke-width:1;" x1="1244.093" x2="1244.093" y1="867" y2="1040"/><line style="stroke:#0F172A;stroke-width:1;" x1="1244.093" x2="1087.135" y1="1040" y2="1040"/><line style="stroke:#0F172A;stroke-width:1;" x1="1087.135" x2="1087.135" y1="1040" y2="1126"/><polygon fill="#0F172A" points="1083.135,1116,1087.135,1126,1091.135,1116,1087.135,1120" style="stroke:#0F172A;stroke-width:1;"/><line style="stroke:#0F172A;stroke-width:1;" x1="1087.135" x2="1087.135" y1="1291" y2="1312.5"/><polygon fill="#0F172A" points="1083.135,1302.5,1087.135,1312.5,1091.135,1302.5,1087.135,1306.5" style="stroke:#0F172A;stroke-width:1;"/><line style="stroke:#0F172A;stroke-width:1;" x1="1087.135" x2="1087.135" y1="1218" y2="1243"/><polygon fill="#0F172A" points="1083.135,1233,1087.135,1243,1091.135,1233,1087.135,1237" style="stroke:#0F172A;stroke-width:1;"/><line style="stroke:#0F172A;stroke-width:1;" x1="1224.718" x2="1248.3586" y1="1206" y2="1206"/><polygon fill="#0F172A" points="1244.3586,1282.5,1248.3586,1292.5,1252.3586,1282.5,1248.3586,1286.5" style="stroke:#0F172A;stroke-width:1;"/><line style="stroke:#0F172A;stroke-width:1;" x1="1248.3586" x2="1248.3586" y1="1206" y2="1356.5"/><line style="stroke:#0F172A;stroke-width:1;" x1="1248.3586" x2="1087.135" y1="1356.5" y2="1356.5"/><line style="stroke:#0F172A;stroke-width:1;" x1="1087.135" x2="1087.135" y1="1356.5" y2="1376.5"/><polygon fill="#0F172A" points="1083.135,1366.5,1087.135,1376.5,1091.135,1366.5,1087.135,1370.5" style="stroke:#0F172A;stroke-width:1;"/><line style="stroke:#0F172A;stroke-width:1;" x1="1087.135" x2="1087.135" y1="1174" y2="1194"/><polygon fill="#0F172A" points="1083.135,1184,1087.135,1194,1091.135,1184,1087.135,1188" style="stroke:#0F172A;stroke-width:1;"/><line style="stroke:#0F172A;stroke-width:1;" x1="964.7073" x2="916.7495" y1="1388.5" y2="1388.5"/><line style="stroke:#0F172A;stroke-width:1;" x1="916.7495" x2="916.7495" y1="1388.5" y2="1410.5"/><polygon fill="#0F172A" points="912.7495,1400.5,916.7495,1410.5,920.7495,1400.5,916.7495,1404.5" style="stroke:#0F172A;stroke-width:1;"/><line style="stroke:#0F172A;stroke-width:1;" x1="1209.5627" x2="1257.5205" y1="1388.5" y2="1388.5"/><line style="stroke:#0F172A;stroke-width:1;" x1="1257.5205" x2="1257.5205" y1="1388.5" y2="1410.5"/><polygon fill="#0F172A" points="1253.5205,1400.5,1257.5205,1410.5,1261.5205,1400.5,1257.5205,1404.5" style="stroke:#0F172A;stroke-width:1;"/><line style="stroke:#0F172A;stroke-width:1;" x1="916.7495" x2="916.7495" y1="1472.5" y2="1490.5"/><line style="stroke:#0F172A;stroke-width:1;" x1="916.7495" x2="1075.135" y1="1490.5" y2="1490.5"/><polygon fill="#0F172A" points="1065.135,1486.5,1075.135,1490.5,1065.135,1494.5,1069.135,1490.5" style="stroke:#0F172A;stroke-width:1;"/><line style="stroke:#0F172A;stroke-width:1;" x1="1257.5205" x2="1257.5205" y1="1444.5" y2="1490.5"/><line style="stroke:#0F172A;stroke-width:1;" x1="1257.5205" x2="1099.135" y1="1490.5" y2="1490.5"/><polygon fill="#0F172A" points="1109.135,1486.5,1099.135,1490.5,1109.135,1494.5,1105.135,1490.5" style="stroke:#0F172A;stroke-width:1;"/><line style="stroke:#0F172A;stroke-width:1;" x1="1087.135" x2="1087.135" y1="1502.5" y2="1522.5"/><polygon fill="#0F172A" points="1083.135,1512.5,1087.135,1522.5,1091.135,1512.5,1087.135,1516.5" style="stroke:#0F172A;stroke-width:1;"/><line style="stroke:#0F172A;stroke-width:1;" x1="1087.135" x2="1087.135" y1="1640.5" y2="1660.5"/><polygon fill="#0F172A" points="1083.135,1650.5,1087.135,1660.5,1091.135,1650.5,1087.135,1654.5" style="stroke:#0F172A;stroke-width:1;"/><line style="stroke:#0F172A;stroke-width:1;" x1="1087.135" x2="1087.135" y1="1694.5" y2="1714.5"/><polygon fill="#0F172A" points="1083.135,1704.5,1087.135,1714.5,1091.135,1704.5,1087.135,1708.5" style="stroke:#0F172A;stroke-width:1;"/><line style="stroke:#0F172A;stroke-width:1;" x1="1087.135" x2="1087.135" y1="1762.5" y2="1782.5"/><polygon fill="#0F172A" points="1083.135,1772.5,1087.135,1782.5,1091.135,1772.5,1087.135,1776.5" style="stroke:#0F172A;stroke-width:1;"/><line style="stroke:#0F172A;stroke-width:1;" x1="639.2633" x2="339.7441" y1="579" y2="579"/><line style="stroke:#0F172A;stroke-width:1;" x1="339.7441" x2="339.7441" y1="579" y2="635"/><polygon fill="#0F172A" points="335.7441,625,339.7441,635,343.7441,625,339.7441,629" style="stroke:#0F172A;stroke-width:1;"/><line style="stroke:#0F172A;stroke-width:1;" x1="787.6158" x2="1087.135" y1="579" y2="579"/><line style="stroke:#0F172A;stroke-width:1;" x1="1087.135" x2="1087.135" y1="579" y2="635"/><polygon fill="#0F172A" points="1083.135,625,1087.135,635,1091.135,625,1087.135,629" style="stroke:#0F172A;stroke-width:1;"/><line style="stroke:#0F172A;stroke-width:1;" x1="1087.135" x2="1087.135" y1="1816.5" y2="1833.5"/><line style="stroke:#0F172A;stroke-width:1;" x1="1087.135" x2="713.4396" y1="1833.5" y2="1833.5"/><line style="stroke:#0F172A;stroke-width:1;" x1="713.4396" x2="713.4396" y1="1833.5" y2="2063.5"/><polygon fill="#0F172A" points="709.4396,2053.5,713.4396,2063.5,717.4396,2053.5,713.4396,2057.5" style="stroke:#0F172A;stroke-width:1;"/><line style="stroke:#0F172A;stroke-width:1;" x1="713.4396" x2="713.4396" y1="535" y2="567"/><polygon fill="#0F172A" points="709.4396,557,713.4396,567,717.4396,557,713.4396,561" style="stroke:#0F172A;stroke-width:1;"/><?plantuml-src pLXTRzis57tdho2obnQmasRzd8rYI9sq3T0rGPAsBmO2cg9iBXIfaPGzR-X_t-67PDaEYYrv6O8WadX5tdlkkUTUnTr9NJFBAkeMh30hgUUqPCe9uhgL6UDtSsiQNKoCCfR-L7By53sBGfIiKVwzqVupgmJzADHIUCdP_JRNyYz1Zr_q5fcrPfLtVrOUl_wv_wOsNhpRyw4iNnUlTgsCBOJD5hCNBvy_-sN78XoVrvy_Vt7yycLlFMxFZTN2qkDNn4kl13tXNYwbNzCXvQnc79SLqsmkAg7zqIG_-grxTC7voP99nMPIOM72F5DcllrK2jUFlJtXRqBlmVfDoKeULlgnPOmeBJVnTCyAoIgZYpt8nC_YJVciPz3VyRXu8OetcyNtzspiFBD-rrvq-tTsCxQpwtSINoK86AXAe-d1nSm9knIKwOA-axeuGFYZws15IsiY7QqeQAdCQghJpH5ScmCnTvJkXrPmexbKOjXYUEYMyp4PNGbMW71Emcgg7vma75mBFg3U0aeuWo1yumRHvq8euGMLscE_CP4bVN9ma-qGkVYpLXA7qel9EPK5R4A6QoiSBdyzU4hzGcZwP2tSKpBw87oufxon5iln7LYQnd91bv9DDImU7CMO2DGpVQBDqu2CCoh23XUbyw7Ujuxp2r1clfZgJrXz17ADYr8YbHVMKMwgaFkmmwqi1X59WKHDhC1537u_wBJu21zM0MDji6tZs0p5N37F5rGwb0tA0kTVmZd46Hsm2PgOFXwFBhQoDzL8jiaa0AYwa2MO7JD_cjXWnH-DS7Xn9yCztYVBoFRyKityWZOkE9oUF2PYYRs25u7vZwVEL1lxQ2O0izEpJsStPwUWWIwbHHO0HSX-kasr5D3vVpZS8Dqgyv7nXN2j_-EjP7Cbc6xgg0Qbr4oXgrcyWiSeDzTmBlQ8WFghp38HVlCEAr4ahQA4KabmR1Kkf75DPyf4WKaUjWw0hzrUKxtZG8-fpfkwjsMFb9zaAVWQ-z69Oix94gqxh0IQnf036B5c8NW8qTjrh2Sd_7w0iGHIAJI2hXRGvmncnQHss66gBwyklfvVdrzyFl_yOK2_N9wUtCIh23IknjdPwFck1uwQnZkKPOhHEOgsCHVUxVlY6wk3rZKwcvQDebtR22MFaIJ1ETNzZ9zCRiw_dcsvyRsFMEWmwvZwKojBJp_YKa7nOc5Feje9gkGoXPuSP_CGVn8RMTN6-j2TIYaKMajZIyP5PjXx0n4SQh6AMeGgGI-9Kbt4mmhmXFlxoFKxdcUZcIYDJSTNZO_fXEpPy9lspaVlYlC-zDTDdPoD6uMy_zYDaxfMKCilTV4u-JPQhQFBxR7PtqAwMh7rhSQekLqZTxAEw6epDFKcxA2mRHcChXeyi6O9_bYw4AeEVuovmu59zT_wikr3Xwa5NUNR0SHii_QDIKopzfknTvdqtw2-PvXaRSk6gKwjuwqNAEh80HuyUZkvEZi9WWAnYIZrpqoujMV290b3toGfK6j2Ovz3t5CT6rngl81gY3mjHOeVxLxmneTneAsBjde2n06rnFdkSTkZBws9jEhQIkg0ExfN6t1q7UJ7W-N3M5B3hFSOrL8CuwmFq0MJi-001nmUq0X4l88OLjWtt8nHTIblaPHXWgTMpXUUvFamZuGZyfz6HD8RD4FaUREDC7GpEO8aOGYKCSoEECDPclGcLrzE1tG59WoIQOHcM2V80lUAW8ToO9eLXmGTprkZ57Q0b3ErEQXrdBAY80eD30Rc3kgET7hCd4w0dJx1ZEeOv7P15fbgQIerjOXLNc7hEQlT8M4MUkRNjS1K3cwCw0U1xviut8G1N48BqlUC9Rnp3idVn7mlG85I94uR-JGRCevFFxF2zcuXwqEIzn_Ty-54d6hc8xA_O3XdFN7WIHosduRF9tmz5IFoyC-l3fOHdRU037S1ITaywaW-sjJ04VaXqKbkVwD_GtBIoL4iEJVAuoVjTybnUbUGjbcEsu6XxPd4TJeTzNcq9PJmA5PnRWjH6-5Urmsok9BjPX2PI1CJKMESbQLHnUr-tcuVdieVVYEGjli15JG4GIB30xNp_NNsYLR81m1YDBIDCJA5q8CsWgCzPWyZiJ7VT8HDc6TSGYeg4mhtCEXE_9V1Fm00?></g></svg>