<?plantuml 1.2026.1?><svg xmlns="http://www.w3.org/2000/svg" xmlns:xlink="http://www.w3.org/1999/xlink" contentStyleType="text/css" data-diagram-type="ACTIVITY" height="2229px" preserveAspectRatio="none" style="width:1275px;height:2229px;background:#FCFCFD;" version="1.1" viewBox="0 0 1275 2229" width="1275px" zoomAndPan="magnify"><title>Activity - licensemanager/LicenseManagerLicenseRecords</title><defs/><g><rect fill="#FCFCFD" height="2229" style="stroke:none;stroke-width:1;" width="1275" x="0" y="0"/><g class="title" data-source-line="10"><text fill="#000000" font-family="Helvetica" font-size="14" font-weight="bold" lengthAdjust="spacing" textLength="390.6055" x="440.7021" y="30.7803">Activity - licensemanager/LicenseManagerLicenseRecords</text></g><ellipse cx="674.0594" cy="55" fill="#1D4ED8" rx="10" ry="10" style="stroke:#222222;stroke-width:1;"/><rect fill="none" height="458" rx="8" ry="8" style="stroke:#000000;stroke-width:1.5;" width="629.1973" x="378.5297" y="75"/><path d="M500.598,75 L500.598,82 L490.598,92 L378.5297,92" fill="none" style="stroke:#000000;stroke-width:1.5;"/><text fill="#000000" font-family="Helvetica" font-size="14" lengthAdjust="spacing" textLength="112.0684" x="381.5297" y="86.7803">Observe and Bind</text><rect fill="#F8FAFC" height="48" rx="8" ry="8" style="stroke:#0F172A;stroke-width:0.5;" width="304.7852" x="521.6669" y="109"/><text fill="#0F172A" font-family="Helvetica" font-size="14" lengthAdjust="spacing" textLength="136.9375" x="531.6669" y="129.7803">Start from shared flow</text><text fill="#0F172A" font-family="Helvetica" font-size="14" lengthAdjust="spacing" textLength="284.7852" x="531.6669" y="143.7803">shared/diagrams/shared-reconcile-activity.svg</text><rect fill="#F8FAFC" height="48" rx="8" ry="8" style="stroke:#0F172A;stroke-width:0.5;" width="311.0605" x="518.5292" y="177"/><text fill="#0F172A" font-family="Helvetica" font-size="14" lengthAdjust="spacing" textLength="291.0605" x="528.5292" y="197.7803">Read desired LicenseManagerLicenseRecords</text><text fill="#0F172A" font-family="Helvetica" font-size="14" lengthAdjust="spacing" textLength="235.8125" x="528.5292" y="211.7803">spec, tracked status, and delete intent</text><polygon fill="#E2E8F0" points="544.5936,245,803.5253,245,815.5253,257,803.5253,269,544.5936,269,532.5936,257,544.5936,245" style="stroke:#1D4ED8;stroke-width:0.5;"/><text fill="#0F172A" font-family="Helvetica" font-size="14" lengthAdjust="spacing" textLength="258.9316" x="544.5936" y="260.7803">"Tracked or explicit OCI identity present?"</text><text fill="#000000" font-family="Helvetica" font-size="14" lengthAdjust="spacing" textLength="21.7861" x="510.8075" y="253.7803">yes</text><text fill="#000000" font-family="Helvetica" font-size="14" lengthAdjust="spacing" textLength="15.5723" x="815.5253" y="253.7803">no</text><rect fill="#F8FAFC" height="48" rx="8" ry="8" style="stroke:#0F172A;stroke-width:0.5;" width="246.4609" x="398.5297" y="279"/><text fill="#0F172A" font-family="Helvetica" font-size="14" lengthAdjust="spacing" textLength="202.3027" x="408.5297" y="299.7803">Get the current OCI resource via</text><text fill="#0F172A" font-family="Helvetica" font-size="14" lengthAdjust="spacing" textLength="226.4609" x="408.5297" y="313.7803">GetLicenseManagerLicenseRecords</text><rect fill="#F8FAFC" height="62" rx="8" ry="8" style="stroke:#0F172A;stroke-width:0.5;" width="320.3779" x="666.1698" y="279"/><text fill="#0F172A" font-family="Helvetica" font-size="14" lengthAdjust="spacing" textLength="259.9092" x="676.1698" y="299.7803">Resolve an existing OCI resource through</text><text fill="#0F172A" font-family="Helvetica" font-size="14" lengthAdjust="spacing" textLength="300.3779" x="676.1698" y="313.7803">ListLicenseManagerLicenseRecords using filters</text><text fill="#0F172A" font-family="Helvetica" font-size="14" lengthAdjust="spacing" textLength="138.5098" x="676.1698" y="327.7803">compartment_id, state</text><rect fill="#F8FAFC" height="62" rx="8" ry="8" style="stroke:#0F172A;stroke-width:0.5;" width="322.7363" x="664.9906" y="361"/><text fill="#0F172A" font-family="Helvetica" font-size="14" lengthAdjust="spacing" textLength="174.2959" x="674.9906" y="381.7803">Create the OCI resource via</text><text fill="#0F172A" font-family="Helvetica" font-size="14" lengthAdjust="spacing" textLength="302.7363" x="674.9906" y="395.7803">CreateLicenseManagerLicenseRecords when no</text><text fill="#0F172A" font-family="Helvetica" font-size="14" lengthAdjust="spacing" textLength="148.6406" x="674.9906" y="409.7803">reusable match is found</text><rect fill="#F8FAFC" height="48" rx="8" ry="8" style="stroke:#0F172A;stroke-width:0.5;" width="286.8955" x="682.911" y="443"/><text fill="#0F172A" font-family="Helvetica" font-size="14" lengthAdjust="spacing" textLength="266.8955" x="692.911" y="463.7803">Persist the resolved or created OCI identity</text><text fill="#0F172A" font-family="Helvetica" font-size="14" lengthAdjust="spacing" textLength="63.8135" x="692.911" y="477.7803">into status</text><polygon fill="#E2E8F0" points="674.0594,497,686.0594,509,674.0594,521,662.0594,509,674.0594,497" style="stroke:#1D4ED8;stroke-width:0.5;"/><polygon fill="#E2E8F0" points="611.8832,553,736.2357,553,748.2357,565,736.2357,577,611.8832,577,599.8832,565,611.8832,553" style="stroke:#1D4ED8;stroke-width:0.5;"/><text fill="#0F172A" font-family="Helvetica" font-size="14" lengthAdjust="spacing" textLength="124.3525" x="611.8832" y="568.7803">"Delete requested?"</text><text fill="#000000" font-family="Helvetica" font-size="14" lengthAdjust="spacing" textLength="21.7861" x="578.097" y="561.7803">yes</text><text fill="#000000" font-family="Helvetica" font-size="14" lengthAdjust="spacing" textLength="15.5723" x="748.2357" y="561.7803">no</text><rect fill="none" height="395.5" rx="8" ry="8" style="stroke:#000000;stroke-width:1.5;" width="644.4814" x="11" y="587"/><path d="M61.4688,587 L61.4688,594 L51.4688,604 L11,604" fill="none" style="stroke:#000000;stroke-width:1.5;"/><text fill="#000000" font-family="Helvetica" font-size="14" lengthAdjust="spacing" textLength="40.4688" x="14" y="598.7803">Delete</text><rect fill="#F8FAFC" height="90" rx="8" ry="8" style="stroke:#0F172A;stroke-width:0.5;" width="346.0469" x="166.7207" y="621"/><text fill="#0F172A" font-family="Helvetica" font-size="14" lengthAdjust="spacing" textLength="105.0684" x="176.7207" y="641.7803">Delete path uses</text><text fill="#0F172A" font-family="Helvetica" font-size="14" lengthAdjust="spacing" textLength="273.1504" x="176.7207" y="655.7803">DeleteLicenseManagerLicenseRecords with</text><text fill="#0F172A" font-family="Helvetica" font-size="14" lengthAdjust="spacing" textLength="303.502" x="176.7207" y="669.7803">required via GetLicenseManagerLicenseRecords</text><text fill="#0F172A" font-family="Helvetica" font-size="14" lengthAdjust="spacing" textLength="326.0469" x="176.7207" y="683.7803">or ListLicenseManagerLicenseRecords to DELETED</text><text fill="#0F172A" font-family="Helvetica" font-size="14" lengthAdjust="spacing" textLength="76.2549" x="176.7207" y="697.7803">confirmation</text><rect fill="#F8FAFC" height="76" rx="8" ry="8" style="stroke:#0F172A;stroke-width:0.5;" width="304.0332" x="187.7275" y="739.5"/><text fill="#0F172A" font-family="Helvetica" font-size="14" lengthAdjust="spacing" textLength="123.7236" x="197.7275" y="760.2803">Confirm deletion via</text><text fill="#0F172A" font-family="Helvetica" font-size="14" lengthAdjust="spacing" textLength="242.7988" x="197.7275" y="774.2803">GetLicenseManagerLicenseRecords or</text><text fill="#0F172A" font-family="Helvetica" font-size="14" lengthAdjust="spacing" textLength="284.0332" x="197.7275" y="788.2803">ListLicenseManagerLicenseRecords until OCI</text><text fill="#0F172A" font-family="Helvetica" font-size="14" lengthAdjust="spacing" textLength="118.2686" x="197.7275" y="802.2803">reaches DELETED</text><polygon fill="#E2E8F0" points="191.5718,850.5,487.9165,850.5,499.9165,862.5,487.9165,874.5,191.5718,874.5,179.5718,862.5,191.5718,850.5" style="stroke:#1D4ED8;stroke-width:0.5;"/><text fill="#0F172A" font-family="Helvetica" font-size="14" lengthAdjust="spacing" textLength="296.3447" x="191.5718" y="866.2803">"Delete cleanup and finalizer release succeed?"</text><text fill="#000000" font-family="Helvetica" font-size="14" lengthAdjust="spacing" textLength="21.7861" x="157.7856" y="859.2803">yes</text><text fill="#000000" font-family="Helvetica" font-size="14" lengthAdjust="spacing" textLength="15.5723" x="499.9165" y="859.2803">no</text><rect fill="#F8FAFC" height="34" rx="8" ry="8" style="stroke:#0F172A;stroke-width:0.5;" width="293.1436" x="23" y="884.5"/><text fill="#0F172A" font-family="Helvetica" font-size="14" lengthAdjust="spacing" textLength="273.1436" x="33" y="905.2803">Remove the finalizer after delete completion</text><rect fill="#F8FAFC" height="48" rx="8" ry="8" style="stroke:#0F172A;stroke-width:0.5;" width="251.1299" x="384.3516" y="884.5"/><text fill="#0F172A" font-family="Helvetica" font-size="14" lengthAdjust="spacing" textLength="231.1299" x="394.3516" y="905.2803">Stay blocked until cleanup or finalizer</text><text fill="#0F172A" font-family="Helvetica" font-size="14" lengthAdjust="spacing" textLength="108.9512" x="394.3516" y="919.2803">release succeeds</text><polygon fill="#E2E8F0" points="339.7441,938.5,351.7441,950.5,339.7441,962.5,327.7441,950.5,339.7441,938.5" style="stroke:#1D4ED8;stroke-width:0.5;"/><ellipse cx="339.7441" cy="1019.5" fill="none" rx="11" ry="11" style="stroke:#222222;stroke-width:1;"/><ellipse cx="339.7441" cy="1019.5" fill="#222222" rx="6" ry="6" style="stroke:#222222;stroke-width:1;"/><rect fill="none" height="443.5" rx="8" ry="8" style="stroke:#000000;stroke-width:1.5;" width="345.916" x="841.4167" y="587"/><path d="M992.2507,587 L992.2507,594 L982.2507,604 L841.4167,604" fill="none" style="stroke:#000000;stroke-width:1.5;"/><text fill="#000000" font-family="Helvetica" font-size="14" lengthAdjust="spacing" textLength="140.834" x="844.4167" y="598.7803">Lifecycle Classification</text><rect fill="#F8FAFC" height="48" rx="8" ry="8" style="stroke:#0F172A;stroke-width:0.5;" width="280.5928" x="868.0784" y="670"/><text fill="#0F172A" font-family="Helvetica" font-size="14" lengthAdjust="spacing" textLength="240.4541" x="878.0784" y="690.7803">Request requeue while OCI remains in</text><text fill="#0F172A" font-family="Helvetica" font-size="14" lengthAdjust="spacing" textLength="260.5928" x="878.0784" y="704.7803">PROVISIONING, UPDATING, DELETING</text><ellipse cx="1008.3748" cy="757.5" fill="none" rx="11" ry="11" style="stroke:#222222;stroke-width:1;"/><ellipse cx="1008.3748" cy="757.5" fill="#222222" rx="6" ry="6" style="stroke:#222222;stroke-width:1;"/><polygon fill="#E2E8F0" points="922.0916,621,1094.658,621,1106.658,633,1094.658,645,922.0916,645,910.0916,633,922.0916,621" style="stroke:#1D4ED8;stroke-width:0.5;"/><text fill="#000000" font-family="Helvetica" font-size="14" lengthAdjust="spacing" textLength="21.7861" x="1012.3748" y="655.7803">yes</text><text fill="#0F172A" font-family="Helvetica" font-size="14" lengthAdjust="spacing" textLength="172.5664" x="922.0916" y="636.7803">"OCI state in retryable set?"</text><rect fill="#F8FAFC" height="48" rx="8" ry="8" style="stroke:#0F172A;stroke-width:0.5;" width="293.916" x="861.4167" y="883.5"/><text fill="#0F172A" font-family="Helvetica" font-size="14" lengthAdjust="spacing" textLength="273.916" x="871.4167" y="904.2803">Return an unsuccessful reconcile result until</text><text fill="#0F172A" font-family="Helvetica" font-size="14" lengthAdjust="spacing" textLength="133.041" x="871.4167" y="918.2803">OCI reaches ACTIVE</text><ellipse cx="1008.3748" cy="977.5" fill="none" rx="11" ry="11" style="stroke:#222222;stroke-width:1;"/><ellipse cx="1008.3748" cy="977.5" fill="#222222" rx="6" ry="6" style="stroke:#222222;stroke-width:1;"/><polygon fill="#E2E8F0" points="887.8538,834.5,1128.8958,834.5,1140.8958,846.5,1128.8958,858.5,887.8538,858.5,875.8538,846.5,887.8538,834.5" style="stroke:#1D4ED8;stroke-width:0.5;"/><text fill="#000000" font-family="Helvetica" font-size="14" lengthAdjust="spacing" textLength="21.7861" x="1012.3748" y="869.2803">yes</text><text fill="#0F172A" font-family="Helvetica" font-size="14" lengthAdjust="spacing" textLength="241.042" x="887.8538" y="850.2803">"OCI state is outside success targets?"</text><rect fill="none" height="722.5" rx="8" ry="8" style="stroke:#000000;stroke-width:1.5;" width="588.5283" x="675.4814" y="1040.5"/><path d="M841.9014,1040.5 L841.9014,1047.5 L831.9014,1057.5 L675.4814,1057.5" fill="none" style="stroke:#000000;stroke-width:1.5;"/><text fill="#000000" font-family="Helvetica" font-size="14" lengthAdjust="spacing" textLength="156.4199" x="678.4814" y="1052.2803">Ready and Drift Handling</text><rect fill="#F8FAFC" height="48" rx="8" ry="8" style="stroke:#0F172A;stroke-width:0.5;" width="296.2402" x="860.2546" y="1074.5"/><text fill="#0F172A" font-family="Helvetica" font-size="14" lengthAdjust="spacing" textLength="276.2402" x="870.2546" y="1095.2803">Compare live OCI state against the imported</text><text fill="#0F172A" font-family="Helvetica" font-size="14" lengthAdjust="spacing" textLength="75.4824" x="870.2546" y="1109.2803">field surface</text><rect fill="#F8FAFC" height="48" rx="8" ry="8" style="stroke:#0F172A;stroke-width:0.5;" width="302.4473" x="857.1511" y="1191.5"/><text fill="#0F172A" font-family="Helvetica" font-size="14" lengthAdjust="spacing" textLength="282.4473" x="867.1511" y="1212.2803">Reject drift before OCI mutation for force-new</text><text fill="#0F172A" font-family="Helvetica" font-size="14" lengthAdjust="spacing" textLength="136.9512" x="867.1511" y="1226.2803">fields compartment_id</text><ellipse cx="1008.3748" cy="1272" fill="none" rx="11" ry="11" style="stroke:#222222;stroke-width:1;"/><ellipse cx="1008.3748" cy="1272" fill="#222222" rx="6" ry="6" style="stroke:#222222;stroke-width:1;"/><polygon fill="#E2E8F0" points="882.7917,1142.5,1133.9578,1142.5,1145.9578,1154.5,1133.9578,1166.5,882.7917,1166.5,870.7917,1154.5,882.7917,1142.5" style="stroke:#1D4ED8;stroke-width:0.5;"/><text fill="#000000" font-family="Helvetica" font-size="14" lengthAdjust="spacing" textLength="21.7861" x="1012.3748" y="1177.2803">yes</text><text fill="#0F172A" font-family="Helvetica" font-size="14" lengthAdjust="spacing" textLength="251.166" x="882.7917" y="1158.2803">"Force-new or conflicting drift detected?"</text><polygon fill="#E2E8F0" points="897.947,1325,1118.8025,1325,1130.8025,1337,1118.8025,1349,897.947,1349,885.947,1337,897.947,1325" style="stroke:#1D4ED8;stroke-width:0.5;"/><text fill="#0F172A" font-family="Helvetica" font-size="14" lengthAdjust="spacing" textLength="220.8555" x="897.947" y="1340.7803">"Supported mutable drift detected?"</text><text fill="#000000" font-family="Helvetica" font-size="14" lengthAdjust="spacing" textLength="21.7861" x="864.1609" y="1333.7803">yes</text><text fill="#000000" font-family="Helvetica" font-size="14" lengthAdjust="spacing" textLength="15.5723" x="1130.8025" y="1333.7803">no</text><rect fill="#F8FAFC" height="48" rx="8" ry="8" style="stroke:#0F172A;stroke-width:0.5;" width="337.5225" x="695.4814" y="1359"/><text fill="#0F172A" font-family="Helvetica" font-size="14" lengthAdjust="spacing" textLength="317.5225" x="705.4814" y="1379.7803">Apply UpdateLicenseManagerLicenseRecords only</text><text fill="#0F172A" font-family="Helvetica" font-size="14" lengthAdjust="spacing" textLength="196.8818" x="705.4814" y="1393.7803">for mutable fields display_name</text><rect fill="#F8FAFC" height="34" rx="8" ry="8" style="stroke:#0F172A;stroke-width:0.5;" width="199.0059" x="1053.0039" y="1359"/><text fill="#0F172A" font-family="Helvetica" font-size="14" lengthAdjust="spacing" textLength="179.0059" x="1063.0039" y="1379.7803">Skip the no-op mutation path</text><polygon fill="#E2E8F0" points="1008.3748,1413,1020.3748,1425,1008.3748,1437,996.3748,1425,1008.3748,1413" style="stroke:#1D4ED8;stroke-width:0.5;"/><rect fill="#F8FAFC" height="118" rx="8" ry="8" style="stroke:#0F172A;stroke-width:0.5;" width="334.3164" x="841.2166" y="1457"/><text fill="#0F172A" font-family="Helvetica" font-size="14" lengthAdjust="spacing" textLength="164.2061" x="851.2166" y="1477.7803">Run provider helper hooks</text><text fill="#0F172A" font-family="Helvetica" font-size="14" lengthAdjust="spacing" textLength="219.0508" x="851.2166" y="1491.7803">create=tfresource.CreateResource,</text><text fill="#0F172A" font-family="Helvetica" font-size="14" lengthAdjust="spacing" textLength="314.3164" x="851.2166" y="1505.7803">tfresource.WaitForWorkRequestWithErrorHandling</text><text fill="#0F172A" font-family="Helvetica" font-size="14" lengthAdjust="spacing" textLength="215.5439" x="851.2166" y="1519.7803">entity=template action=CREATED;</text><text fill="#0F172A" font-family="Helvetica" font-size="14" lengthAdjust="spacing" textLength="226.085" x="851.2166" y="1533.7803">update=tfresource.UpdateResource;</text><text fill="#0F172A" font-family="Helvetica" font-size="14" lengthAdjust="spacing" textLength="273.5537" x="851.2166" y="1547.7803">delete=tfresource.DeleteResource when the</text><text fill="#0F172A" font-family="Helvetica" font-size="14" lengthAdjust="spacing" textLength="220.2334" x="851.2166" y="1561.7803">matching field-driven path executes</text><rect fill="#F8FAFC" height="34" rx="8" ry="8" style="stroke:#0F172A;stroke-width:0.5;" width="303.2197" x="856.7649" y="1595"/><text fill="#0F172A" font-family="Helvetica" font-size="14" lengthAdjust="spacing" textLength="283.2197" x="866.7649" y="1615.7803">Return success for the ACTIVE success state</text><rect fill="#F8FAFC" height="48" rx="8" ry="8" style="stroke:#0F172A;stroke-width:0.5;" width="279.1299" x="868.8098" y="1649"/><text fill="#0F172A" font-family="Helvetica" font-size="14" lengthAdjust="spacing" textLength="259.1299" x="878.8098" y="1669.7803">Project required status and finalizer policy</text><text fill="#0F172A" font-family="Helvetica" font-size="14" lengthAdjust="spacing" textLength="174.3027" x="878.8098" y="1683.7803">retain-until-confirmed-delete</text><rect fill="#F8FAFC" height="34" rx="8" ry="8" style="stroke:#0F172A;stroke-width:0.5;" width="313.4189" x="851.6653" y="1717"/><text fill="#0F172A" font-family="Helvetica" font-size="14" lengthAdjust="spacing" textLength="293.4189" x="861.6653" y="1737.7803">Requeue on provisioning, updating, terminating</text><path d="M705.0594,1773 L705.0594,1991 L685.0594,1995 L705.0594,1999 L705.0594,2217 A0,0 0 0 0 705.0594,2217 L1077.8094,2217 A0,0 0 0 0 1077.8094,2217 L1077.8094,1783 L1067.8094,1773 L705.0594,1773 A0,0 0 0 0 705.0594,1773" fill="#FFF7D6" style="stroke:#B45309;stroke-width:0.5;"/><path d="M1067.8094,1773 L1067.8094,1783 L1077.8094,1783 L1067.8094,1773" fill="#FFF7D6" style="stroke:#B45309;stroke-width:0.5;"/><text fill="#334155" font-family="Helvetica" font-size="14" lengthAdjust="spacing" textLength="101.165" x="711.0594" y="1788.7803">shared diagram:</text><text fill="#334155" font-family="Helvetica" font-size="14" lengthAdjust="spacing" textLength="284.7852" x="711.0594" y="1802.7803">shared/diagrams/shared-reconcile-activity.svg</text><text fill="#334155" font-family="Helvetica" font-size="14" lengthAdjust="spacing" textLength="265.3438" x="711.0594" y="1816.7803">Start from the shared reconcile activity and</text><text fill="#334155" font-family="Helvetica" font-size="14" lengthAdjust="spacing" textLength="273.8955" x="711.0594" y="1830.7803">specialize provider-backed CRUD, wait, and</text><text fill="#334155" font-family="Helvetica" font-size="14" lengthAdjust="spacing" textLength="182.875" x="711.0594" y="1844.7803">status-projection details here.</text><text fill="#334155" font-family="Helvetica" font-size="14" lengthAdjust="spacing" textLength="229.5371" x="711.0594" y="1858.7803">Controller-local activity diagrams add</text><text fill="#334155" font-family="Helvetica" font-size="14" lengthAdjust="spacing" textLength="238.8955" x="711.0594" y="1872.7803">list-lookup hints, secret policies, delete</text><text fill="#334155" font-family="Helvetica" font-size="14" lengthAdjust="spacing" textLength="200.0332" x="711.0594" y="1886.7803">handling, and open formal gaps.</text><text fill="#334155" font-family="Helvetica" font-size="14" lengthAdjust="spacing" textLength="281.709" x="711.0594" y="1900.7803">archetype batch: Generated service-manager</text><text fill="#334155" font-family="Helvetica" font-size="14" lengthAdjust="spacing" textLength="291.0469" x="711.0594" y="1914.7803">controllers specialize the shared reconcile path</text><text fill="#334155" font-family="Helvetica" font-size="14" lengthAdjust="spacing" textLength="189.8477" x="711.0594" y="1928.7803">with formal runtime ownership.</text><text fill="#334155" font-family="Helvetica" font-size="14" lengthAdjust="spacing" textLength="150.958" x="711.0594" y="1942.7803">service: licensemanager</text><text fill="#334155" font-family="Helvetica" font-size="14" lengthAdjust="spacing" textLength="222.5576" x="711.0594" y="1956.7803">slug: licensemanagerlicenserecords</text><text fill="#334155" font-family="Helvetica" font-size="14" lengthAdjust="spacing" textLength="237.3574" x="711.0594" y="1970.7803">kind: LicenseManagerLicenseRecords</text><text fill="#334155" font-family="Helvetica" font-size="14" lengthAdjust="spacing" textLength="241.2402" x="711.0594" y="1984.7803">archetype: generated-service-manager</text><text fill="#334155" font-family="Helvetica" font-size="14" lengthAdjust="spacing" textLength="156.4063" x="711.0594" y="1998.7803">status/finalizer: required /</text><text fill="#334155" font-family="Helvetica" font-size="14" lengthAdjust="spacing" textLength="174.3027" x="711.0594" y="2012.7803">retain-until-confirmed-delete</text><text fill="#334155" font-family="Helvetica" font-size="14" lengthAdjust="spacing" textLength="272.3984" x="711.0594" y="2026.7803">requeue: provisioning, updating, terminating</text><text fill="#334155" font-family="Helvetica" font-size="14" lengthAdjust="spacing" textLength="295.6816" x="711.0594" y="2040.7803">provider states: create PROVISIONING; update</text><text fill="#334155" font-family="Helvetica" font-size="14" lengthAdjust="spacing" textLength="192.165" x="711.0594" y="2054.7803">UPDATING; delete DELETING</text><text fill="#334155" font-family="Helvetica" font-size="14" lengthAdjust="spacing" textLength="183.6611" x="711.0594" y="2068.7803">supported drift: display_name</text><text fill="#334155" font-family="Helvetica" font-size="14" lengthAdjust="spacing" textLength="230.3301" x="711.0594" y="2082.7803">reject before mutate: force-new fields</text><text fill="#334155" font-family="Helvetica" font-size="14" lengthAdjust="spacing" textLength="100.3789" x="711.0594" y="2096.7803">compartment_id</text><text fill="#334155" font-family="Helvetica" font-size="14" lengthAdjust="spacing" textLength="66.1445" x="711.0594" y="2110.7803">list lookup:</text><text fill="#334155" font-family="Helvetica" font-size="14" lengthAdjust="spacing" textLength="351.75" x="711.0594" y="2124.7803">scaffold_licensemanager_licensemanagerlicenserecords</text><text fill="#334155" font-family="Helvetica" font-size="14" lengthAdjust="spacing" textLength="175.8477" x="711.0594" y="2138.7803">filters compartment_id, state</text><text fill="#334155" font-family="Helvetica" font-size="14" lengthAdjust="spacing" textLength="89.4961" x="711.0594" y="2152.7803">conflicts: none</text><text fill="#334155" font-family="Helvetica" font-size="14" lengthAdjust="spacing" textLength="104.3164" x="711.0594" y="2166.7803">open gaps: none</text><text fill="#334155" font-family="Helvetica" font-size="14" lengthAdjust="spacing" textLength="224.9023" x="711.0594" y="2180.7803">Scaffold metadata only; replace with</text><text fill="#334155" font-family="Helvetica" font-size="14" lengthAdjust="spacing" textLength="244.3232" x="711.0594" y="2194.7803">controller-specific runtime states before</text><text fill="#334155" font-family="Helvetica" font-size="14" lengthAdjust="spacing" textLength="66.1445" x="711.0594" y="2208.7803">promotion.</text><ellipse cx="674.0594" cy="1995" fill="none" rx="11" ry="11" style="stroke:#222222;stroke-width:1;"/><ellipse cx="674.0594" cy="1995" fill="#222222" rx="6" ry="6" style="stroke:#222222;stroke-width:1;"/><line style="stroke:#0F172A;stroke-width:1;" x1="674.0594" x2="674.0594" y1="157" y2="177"/><polygon fill="#0F172A" points="670.0594,167,674.0594,177,678.0594,167,674.0594,171" style="stroke:#0F172A;stroke-width:1;"/><line style="stroke:#0F172A;stroke-width:1;" x1="826.3588" x2="826.3588" y1="341" y2="361"/><polygon fill="#0F172A" points="822.3588,351,826.3588,361,830.3588,351,826.3588,355" style="stroke:#0F172A;stroke-width:1;"/><line style="stroke:#0F172A;stroke-width:1;" x1="826.3588" x2="826.3588" y1="423" y2="443"/><polygon fill="#0F172A" points="822.3588,433,826.3588,443,830.3588,433,826.3588,437" style="stroke:#0F172A;stroke-width:1;"/><line style="stroke:#0F172A;stroke-width:1;" x1="532.5936" x2="521.7601" y1="257" y2="257"/><line style="stroke:#0F172A;stroke-width:1;" x1="521.7601" x2="521.7601" y1="257" y2="279"/><polygon fill="#0F172A" points="517.7601,269,521.7601,279,525.7601,269,521.7601,273" style="stroke:#0F172A;stroke-width:1;"/><line style="stroke:#0F172A;stroke-width:1;" x1="815.5253" x2="826.3588" y1="257" y2="257"/><line style="stroke:#0F172A;stroke-width:1;" x1="826.3588" x2="826.3588" y1="257" y2="279"/><polygon fill="#0F172A" points="822.3588,269,826.3588,279,830.3588,269,826.3588,273" style="stroke:#0F172A;stroke-width:1;"/><line style="stroke:#0F172A;stroke-width:1;" x1="521.7601" x2="521.7601" y1="327" y2="509"/><line style="stroke:#0F172A;stroke-width:1;" x1="521.7601" x2="662.0594" y1="509" y2="509"/><polygon fill="#0F172A" points="652.0594,505,662.0594,509,652.0594,513,656.0594,509" style="stroke:#0F172A;stroke-width:1;"/><line style="stroke:#0F172A;stroke-width:1;" x1="826.3588" x2="826.3588" y1="491" y2="509"/><line style="stroke:#0F172A;stroke-width:1;" x1="826.3588" x2="686.0594" y1="509" y2="509"/><polygon fill="#0F172A" points="696.0594,505,686.0594,509,696.0594,513,692.0594,509" style="stroke:#0F172A;stroke-width:1;"/><line style="stroke:#0F172A;stroke-width:1;" x1="674.0594" x2="674.0594" y1="225" y2="245"/><polygon fill="#0F172A" points="670.0594,235,674.0594,245,678.0594,235,674.0594,239" style="stroke:#0F172A;stroke-width:1;"/><line style="stroke:#0F172A;stroke-width:1;" x1="674.0594" x2="674.0594" y1="65" y2="109"/><polygon fill="#0F172A" points="670.0594,99,674.0594,109,678.0594,99,674.0594,103" style="stroke:#0F172A;stroke-width:1;"/><line style="stroke:#0F172A;stroke-width:1;" x1="339.7441" x2="339.7441" y1="711" y2="739.5"/><polygon fill="#0F172A" points="335.7441,729.5,339.7441,739.5,343.7441,729.5,339.7441,733.5" style="stroke:#0F172A;stroke-width:1;"/><line style="stroke:#0F172A;stroke-width:1;" x1="179.5718" x2="169.5718" y1="862.5" y2="862.5"/><line style="stroke:#0F172A;stroke-width:1;" x1="169.5718" x2="169.5718" y1="862.5" y2="884.5"/><polygon fill="#0F172A" points="165.5718,874.5,169.5718,884.5,173.5718,874.5,169.5718,878.5" style="stroke:#0F172A;stroke-width:1;"/><line style="stroke:#0F172A;stroke-width:1;" x1="499.9165" x2="509.9165" y1="862.5" y2="862.5"/><line style="stroke:#0F172A;stroke-width:1;" x1="509.9165" x2="509.9165" y1="862.5" y2="884.5"/><polygon fill="#0F172A" points="505.9165,874.5,509.9165,884.5,513.9165,874.5,509.9165,878.5" style="stroke:#0F172A;stroke-width:1;"/><line style="stroke:#0F172A;stroke-width:1;" x1="169.5718" x2="169.5718" y1="918.5" y2="950.5"/><line style="stroke:#0F172A;stroke-width:1;" x1="169.5718" x2="327.7441" y1="950.5" y2="950.5"/><polygon fill="#0F172A" points="317.7441,946.5,327.7441,950.5,317.7441,954.5,321.7441,950.5" style="stroke:#0F172A;stroke-width:1;"/><line style="stroke:#0F172A;stroke-width:1;" x1="509.9165" x2="509.9165" y1="932.5" y2="950.5"/><line style="stroke:#0F172A;stroke-width:1;" x1="509.9165" x2="351.7441" y1="950.5" y2="950.5"/><polygon fill="#0F172A" points="361.7441,946.5,351.7441,950.5,361.7441,954.5,357.7441,950.5" style="stroke:#0F172A;stroke-width:1;"/><line style="stroke:#0F172A;stroke-width:1;" x1="339.7441" x2="339.7441" y1="815.5" y2="850.5"/><polygon fill="#0F172A" points="335.7441,840.5,339.7441,850.5,343.7441,840.5,339.7441,844.5" style="stroke:#0F172A;stroke-width:1;"/><line style="stroke:#0F172A;stroke-width:1;" x1="339.7441" x2="339.7441" y1="962.5" y2="1008.5"/><polygon fill="#0F172A" points="335.7441,998.5,339.7441,1008.5,343.7441,998.5,339.7441,1002.5" style="stroke:#0F172A;stroke-width:1;"/><line style="stroke:#0F172A;stroke-width:1;" x1="1008.3748" x2="1008.3748" y1="718" y2="746.5"/><polygon fill="#0F172A" points="1004.3748,736.5,1008.3748,746.5,1012.3748,736.5,1008.3748,740.5" style="stroke:#0F172A;stroke-width:1;"/><line style="stroke:#0F172A;stroke-width:1;" x1="1008.3748" x2="1008.3748" y1="645" y2="670"/><polygon fill="#0F172A" points="1004.3748,660,1008.3748,670,1012.3748,660,1008.3748,664" style="stroke:#0F172A;stroke-width:1;"/><line style="stroke:#0F172A;stroke-width:1;" x1="1106.658" x2="1158.6711" y1="633" y2="633"/><polygon fill="#0F172A" points="1154.6711,709.5,1158.6711,719.5,1162.6711,709.5,1158.6711,713.5" style="stroke:#0F172A;stroke-width:1;"/><line style="stroke:#0F172A;stroke-width:1;" x1="1158.6711" x2="1158.6711" y1="633" y2="799.5"/><line style="stroke:#0F172A;stroke-width:1;" x1="1158.6711" x2="1008.3748" y1="799.5" y2="799.5"/><line style="stroke:#0F172A;stroke-width:1;" x1="1008.3748" x2="1008.3748" y1="799.5" y2="834.5"/><polygon fill="#0F172A" points="1004.3748,824.5,1008.3748,834.5,1012.3748,824.5,1008.3748,828.5" style="stroke:#0F172A;stroke-width:1;"/><line style="stroke:#0F172A;stroke-width:1;" x1="1008.3748" x2="1008.3748" y1="931.5" y2="966.5"/><polygon fill="#0F172A" points="1004.3748,956.5,1008.3748,966.5,1012.3748,956.5,1008.3748,960.5" style="stroke:#0F172A;stroke-width:1;"/><line style="stroke:#0F172A;stroke-width:1;" x1="1008.3748" x2="1008.3748" y1="858.5" y2="883.5"/><polygon fill="#0F172A" points="1004.3748,873.5,1008.3748,883.5,1012.3748,873.5,1008.3748,877.5" style="stroke:#0F172A;stroke-width:1;"/><line style="stroke:#0F172A;stroke-width:1;" x1="1140.8958" x2="1165.3328" y1="846.5" y2="846.5"/><polygon fill="#0F172A" points="1161.3328,923,1165.3328,933,1169.3328,923,1165.3328,927" style="stroke:#0F172A;stroke-width:1;"/><line style="stroke:#0F172A;stroke-width:1;" x1="1165.3328" x2="1165.3328" y1="846.5" y2="1010.5"/><line style="stroke:#0F172A;stroke-width:1;" x1="1165.3328" x2="1008.3748" y1="1010.5" y2="1010.5"/><line style="stroke:#0F172A;stroke-width:1;" x1="1008.3748" x2="1008.3748" y1="1010.5" y2="1074.5"/><polygon fill="#0F172A" points="1004.3748,1064.5,1008.3748,1074.5,1012.3748,1064.5,1008.3748,1068.5" style="stroke:#0F172A;stroke-width:1;"/><line style="stroke:#0F172A;stroke-width:1;" x1="1008.3748" x2="1008.3748" y1="1239.5" y2="1261"/><polygon fill="#0F172A" points="1004.3748,1251,1008.3748,1261,1012.3748,1251,1008.3748,1255" style="stroke:#0F172A;stroke-width:1;"/><line style="stroke:#0F172A;stroke-width:1;" x1="1008.3748" x2="1008.3748" y1="1166.5" y2="1191.5"/><polygon fill="#0F172A" points="1004.3748,1181.5,1008.3748,1191.5,1012.3748,1181.5,1008.3748,1185.5" style="stroke:#0F172A;stroke-width:1;"/><line style="stroke:#0F172A;stroke-width:1;" x1="1145.9578" x2="1169.5984" y1="1154.5" y2="1154.5"/><polygon fill="#0F172A" points="1165.5984,1231,1169.5984,1241,1173.5984,1231,1169.5984,1235" style="stroke:#0F172A;stroke-width:1;"/><line style="stroke:#0F172A;stroke-width:1;" x1="1169.5984" x2="1169.5984" y1="1154.5" y2="1305"/><line style="stroke:#0F172A;stroke-width:1;" x1="1169.5984" x2="1008.3748" y1="1305" y2="1305"/><line style="stroke:#0F172A;stroke-width:1;" x1="1008.3748" x2="1008.3748" y1="1305" y2="1325"/><polygon fill="#0F172A" points="1004.3748,1315,1008.3748,1325,1012.3748,1315,1008.3748,1319" style="stroke:#0F172A;stroke-width:1;"/><line style="stroke:#0F172A;stroke-width:1;" x1="1008.3748" x2="1008.3748" y1="1122.5" y2="1142.5"/><polygon fill="#0F172A" points="1004.3748,1132.5,1008.3748,1142.5,1012.3748,1132.5,1008.3748,1136.5" style="stroke:#0F172A;stroke-width:1;"/><line style="stroke:#0F172A;stroke-width:1;" x1="885.947" x2="864.2427" y1="1337" y2="1337"/><line style="stroke:#0F172A;stroke-width:1;" x1="864.2427" x2="864.2427" y1="1337" y2="1359"/><polygon fill="#0F172A" points="860.2427,1349,864.2427,1359,868.2427,1349,864.2427,1353" style="stroke:#0F172A;stroke-width:1;"/><line style="stroke:#0F172A;stroke-width:1;" x1="1130.8025" x2="1152.5068" y1="1337" y2="1337"/><line style="stroke:#0F172A;stroke-width:1;" x1="1152.5068" x2="1152.5068" y1="1337" y2="1359"/><polygon fill="#0F172A" points="1148.5068,1349,1152.5068,1359,1156.5068,1349,1152.5068,1353" style="stroke:#0F172A;stroke-width:1;"/><line style="stroke:#0F172A;stroke-width:1;" x1="864.2427" x2="864.2427" y1="1407" y2="1425"/><line style="stroke:#0F172A;stroke-width:1;" x1="864.2427" x2="996.3748" y1="1425" y2="1425"/><polygon fill="#0F172A" points="986.3748,1421,996.3748,1425,986.3748,1429,990.3748,1425" style="stroke:#0F172A;stroke-width:1;"/><line style="stroke:#0F172A;stroke-width:1;" x1="1152.5068" x2="1152.5068" y1="1393" y2="1425"/><line style="stroke:#0F172A;stroke-width:1;" x1="1152.5068" x2="1020.3748" y1="1425" y2="1425"/><polygon fill="#0F172A" points="1030.3748,1421,1020.3748,1425,1030.3748,1429,1026.3748,1425" style="stroke:#0F172A;stroke-width:1;"/><line style="stroke:#0F172A;stroke-width:1;" x1="1008.3748" x2="1008.3748" y1="1437" y2="1457"/><polygon fill="#0F172A" points="1004.3748,1447,1008.3748,1457,1012.3748,1447,1008.3748,1451" style="stroke:#0F172A;stroke-width:1;"/><line style="stroke:#0F172A;stroke-width:1;" x1="1008.3748" x2="1008.3748" y1="1575" y2="1595"/><polygon fill="#0F172A" points="1004.3748,1585,1008.3748,1595,1012.3748,1585,1008.3748,1589" style="stroke:#0F172A;stroke-width:1;"/><line style="stroke:#0F172A;stroke-width:1;" x1="1008.3748" x2="1008.3748" y1="1629" y2="1649"/><polygon fill="#0F172A" points="1004.3748,1639,1008.3748,1649,1012.3748,1639,1008.3748,1643" style="stroke:#0F172A;stroke-width:1;"/><line style="stroke:#0F172A;stroke-width:1;" x1="1008.3748" x2="1008.3748" y1="1697" y2="1717"/><polygon fill="#0F172A" points="1004.3748,1707,1008.3748,1717,1012.3748,1707,1008.3748,1711" style="stroke:#0F172A;stroke-width:1;"/><line style="stroke:#0F172A;stroke-width:1;" x1="599.8832" x2="339.7441" y1="565" y2="565"/><line style="stroke:#0F172A;stroke-width:1;" x1="339.7441" x2="339.7441" y1="565" y2="621"/><polygon fill="#0F172A" points="335.7441,611,339.7441,621,343.7441,611,339.7441,615" style="stroke:#0F172A;stroke-width:1;"/><line style="stroke:#0F172A;stroke-width:1;" x1="748.2357" x2="1008.3748" y1="565" y2="565"/><line style="stroke:#0F172A;stroke-width:1;" x1="1008.3748" x2="1008.3748" y1="565" y2="621"/><polygon fill="#0F172A" points="1004.3748,611,1008.3748,621,1012.3748,611,1008.3748,615" style="stroke:#0F172A;stroke-width:1;"/><line style="stroke:#0F172A;stroke-width:1;" x1="1008.3748" x2="1008.3748" y1="1751" y2="1768"/><line style="stroke:#0F172A;stroke-width:1;" x1="1008.3748" x2="674.0594" y1="1768" y2="1768"/><line style="stroke:#0F172A;stroke-width:1;" x1="674.0594" x2="674.0594" y1="1768" y2="1984"/><polygon fill="#0F172A" points="670.0594,1974,674.0594,1984,678.0594,1974,674.0594,1978" style="stroke:#0F172A;stroke-width:1;"/><line style="stroke:#0F172A;stroke-width:1;" x1="674.0594" x2="674.0594" y1="521" y2="553"/><polygon fill="#0F172A" points="670.0594,543,674.0594,553,678.0594,543,674.0594,547" style="stroke:#0F172A;stroke-width:1;"/><?plantuml-src bLVlJniv4Fs-VuN5VMcb14eBRIzHTQA1jaXSGK3RBv6GipkR-F3QMziRBdVg_txFFtQp2IZj2I7Mwzdnp9itpuEz5whcXbVCBdYX7uIQiv9BIvdjTcOylvyRtQXYegKsxBSonq_HioYev8rq7xHodtb5x1F99JcHywTjRiG_n0wFUflS6FsGlBye3z-yx7-fjAFtZs8eopV5wsqhRGeooM9sTFpgnUzR5lxujF_grT7XyN5lFxZFjL5asE7hp0adYPtaJYo5Mx4Xao8dPQdYYi_975p4vPzncLRN10U5xQVMElWtOqz0-RRaPUvt-g4d21Whr-5sxmh1AwsAHuZGItfRlkWPz3qU5aTKl5rlVdZ2iNNSk6rxwlntTZE-vVL75ZxDa3104rgnlSkP9RCanbN1tWjLx27zqOstOgNHWMs62bPA_J1LSN60qEP0p1x4zT00IvKBISCMmtsxd8-pqJNn0doomhlOLGQuhYaVC6S05cmHfcli84HLa2H7J2X7oeqpKR9dUxV93hdHtpNgBHoxd9mpKS36rx0sPF7unzvpvXQasBCLsUVPw2CvlsPvOmosmpUmr8t9YIq5dofOx0fqd15wZZrJ-hbFpsePi4CKmZhVaniUtG9rdo-cwWAxkzooneQ65jAH0HgvhdoDAiHu9uf1m8C0wCGG7a8AZqEFcpkFUV1OA3rLXXhBPsYRYhjymOG5Wy5G7765011jECF410FEUV1URC0yLQYAJjK2DAeG9KWMIdGQosReUqCM7swLeaV1Q1c8bpwgkLi04W8IyStkf8HR-8o-Du5dm8Bzf8fJXOH-MXDaTdfsSNPxTkeBeafX01OYzdM8oyXDdyIlS0Se_WeJWApqAFkKUBuWsqOntW0sbyHLKuSMAONY4bfj03TUWw2soNDw13eOM-bbvC_w6rw2T6sRUUR5d3Qe3aLOiPdKeUjYY6q0WBBpvMFU2A372kjqtNFP8y25A2bVmH-RI6wjA74X-HrFYP2ovrne0QW0KdHc5RXhoJrECD0jqguX41wob7gbua9PU9Ygg-lBh-StvvUVppz_7B0lLwSdj-4f08sdSGesHBuT0UhOE8iMY3bQ48MREJdxE1RN6ENLeL79j6mawzJIjnSksWZdLCKWOyLF9hVdNyysmlZHHymBwogK_jI8qh5FU9HGaD14ao0UX6jm6LEFWVEvppysjgXgRT2KKz2O9FIsCINFAJ7iWuQc31KzXBu7rI6mGToAS5W1dkJkANBzXVV9Q4QbDl7ugd6Xd90Out-ZxtIqPPjQznZwcwQEmGP7lkwxmpYfQxbYN-hYPsAebOI2-Q1QnocYGjXQyjMTmeYqsGNteWxuAJtKzJenhrSjqKVN3LuOlGH335kGhFqVhU-zh0SDVUVALhZtesPVf-LWgdfxtxZ056Q-QNEVQFqDIdU62SoqzPwgACJl7A5jGvLp7z6xoVNPYPUCAJgqs3epGjEU2PFO-dsJg36jIRmsaFTKXUiYNbM0QeXAB2dcZokGyiQH7NVCR_l3G-nHYwpkNhUNsfNHWJYTWiVxP4lPQWqMhhp0EF1u69fcc6GPCqZCOPmK09slKnKiu4300nQ024-Gkmf-_MAClefr2xJpaoSpOhvmMHfyqgmpolxNx9Fr9YYVUNAsRlrks4IIcPzzH4Yp8yvm5WUSoVMNqm5x01C6qJH0CwmZP9vxXST3MZ3Dq7w6YyaPBIKyGAovN1_K1ivuKMGIjn0Cz3tq6-Lq6BKiWPqkmYm8BoAYsI9HBGvZkgRGnnLSptbjzpDke5XkLHF6JN1ZXBiNStaO5VnaYPORfa4yoxlWKFnrpay2v2cL-PkzFStuYkDV5lq0ztOXwlqi-Hzj3VoPbSry-sLQcJJsO-elHZj7qdLY8pPlKnfkfnJhST3HTBHcyK6sawfPkg96lqBJh1EKq3HsbCOnrh_9nl5RojeBRTnUwkszbjbEIuE6ZZQa3X65FapI7TGDuNMAdUGnsnJim2KMkOGkoNbPQbdSRQ9_jxCOQUnbJqwzMNi18Mcb5MM1WfvxQNsJZcGLu4R-F0Zx68L0PbwyGA8UzOQ1UHWnEaP5I5FQ7kbA-yxQzy8G_XVz3m00?></g></svg>