<?plantuml 1.2026.1?><svg xmlns="http://www.w3.org/2000/svg" xmlns:xlink="http://www.w3.org/1999/xlink" contentStyleType="text/css" data-diagram-type="STATE" height="569px" preserveAspectRatio="none" style="width:3558px;height:569px;background:#FCFCFD;" version="1.1" viewBox="0 0 3558 569" width="3558px" zoomAndPan="magnify"><title>State Machine - iot/IotIotDomains</title><defs/><g><rect fill="#FCFCFD" height="569" style="stroke:none;stroke-width:1;" width="3558" x="0" y="0"/><g class="title" data-source-line="10"><text fill="#000000" font-family="Helvetica" font-size="14" font-weight="bold" lengthAdjust="spacing" textLength="220.9033" x="1661.9863" y="20.7803">State Machine - iot/IotIotDomains</text></g><g><rect fill="#F8FAFC" height="62" rx="8" ry="8" style="stroke:#0F172A;stroke-width:0.5;" width="264.3643" x="216" y="394"/><line style="stroke:#0F172A;stroke-width:0.5;" x1="216" x2="480.3643" y1="418" y2="418"/><text fill="#0F172A" font-family="Helvetica" font-size="14" lengthAdjust="spacing" textLength="52.9102" x="321.7271" y="409.7803">Observe</text><text fill="#0F172A" font-family="Helvetica" font-size="14" lengthAdjust="spacing" textLength="244.3643" x="221" y="433.7803">read spec, tracked status, delete intent,</text><text fill="#0F172A" font-family="Helvetica" font-size="14" lengthAdjust="spacing" textLength="153.2822" x="221" y="447.7803">and current OCI lifecycle</text></g><rect fill="#F8FAFC" height="40" rx="8" ry="8" style="stroke:#0F172A;stroke-width:0.5;" width="104.9512" x="1277.36" y="237"/><text fill="#0F172A" font-family="Helvetica" font-size="14" lengthAdjust="spacing" textLength="94.9512" x="1282.36" y="260.7803">EvaluateReady</text><rect fill="#F8FAFC" height="40" rx="8" ry="8" style="stroke:#0F172A;stroke-width:0.5;" width="50.4688" x="2036.32" y="237"/><text fill="#0F172A" font-family="Helvetica" font-size="14" lengthAdjust="spacing" textLength="40.4688" x="2041.32" y="260.7803">Ready</text><rect fill="#F8FAFC" height="40" rx="8" ry="8" style="stroke:#0F172A;stroke-width:0.5;" width="69.917" x="1294.88" y="370"/><text fill="#0F172A" font-family="Helvetica" font-size="14" lengthAdjust="spacing" textLength="59.917" x="1299.88" y="393.7803">Retryable</text><rect fill="#F8FAFC" height="40" rx="8" ry="8" style="stroke:#0F172A;stroke-width:0.5;" width="50" x="1304.84" y="489"/><text fill="#0F172A" font-family="Helvetica" font-size="14" lengthAdjust="spacing" textLength="38.1309" x="1310.7746" y="512.7803">Failed</text><rect fill="#F8FAFC" height="40" rx="8" ry="8" style="stroke:#0F172A;stroke-width:0.5;" width="122.8477" x="758.44" y="348"/><text fill="#0F172A" font-family="Helvetica" font-size="14" lengthAdjust="spacing" textLength="112.8477" x="763.44" y="371.7803">ResolveByLookup</text><rect fill="#F8FAFC" height="40" rx="8" ry="8" style="stroke:#0F172A;stroke-width:0.5;" width="155.5098" x="1611.56" y="327"/><text fill="#0F172A" font-family="Helvetica" font-size="14" lengthAdjust="spacing" textLength="145.5098" x="1616.56" y="350.7803">RejectUnsupportedDrift</text><rect fill="#F8FAFC" height="40" rx="8" ry="8" style="stroke:#0F172A;stroke-width:0.5;" width="90.165" x="1644.23" y="166"/><text fill="#0F172A" font-family="Helvetica" font-size="14" lengthAdjust="spacing" textLength="80.165" x="1649.23" y="189.7803">ApplyUpdate</text><rect fill="#F8FAFC" height="40" rx="8" ry="8" style="stroke:#0F172A;stroke-width:0.5;" width="101.8477" x="2378.1" y="478"/><text fill="#0F172A" font-family="Helvetica" font-size="14" lengthAdjust="spacing" textLength="91.8477" x="2383.1" y="501.7803">DeletePending</text><rect fill="#F8FAFC" height="40" rx="8" ry="8" style="stroke:#0F172A;stroke-width:0.5;" width="58.2549" x="3470.16" y="419"/><text fill="#0F172A" font-family="Helvetica" font-size="14" lengthAdjust="spacing" textLength="48.2549" x="3475.16" y="442.7803">Deleted</text><rect fill="#F8FAFC" height="40" rx="8" ry="8" style="stroke:#0F172A;stroke-width:0.5;" width="152.4268" x="2987" y="419"/><text fill="#0F172A" font-family="Helvetica" font-size="14" lengthAdjust="spacing" textLength="142.4268" x="2992" y="442.7803">DeleteCleanupBlocked</text><ellipse cx="16" cy="425" fill="#222222" rx="10" ry="10" style="stroke:#222222;stroke-width:1;"/><g class="entity" data-qualified-name="GMN2" data-source-line="55" id="ent0003"><path d="M2252.78,49 L2252.78,245.2 L2087.1,255.99 L2252.78,253.2 L2252.78,435 A8,8 0 0 0 2260.78,443 L2597.2614,443 A8,8 0 0 0 2605.2614,435 L2605.2614,51 L2595.2614,41 L2260.78,41 A8,8 0 0 0 2252.78,49" fill="#FFF7D6" style="stroke:#B45309;stroke-width:0.5;"/><path d="M2595.2614,41 L2595.2614,47 A4,4 0 0 0 2599.2614,51 L2605.2614,51 L2595.2614,41" fill="#FFF7D6" style="stroke:#B45309;stroke-width:0.5;"/><text fill="#334155" font-family="Helvetica" font-size="14" lengthAdjust="spacing" textLength="101.165" x="2258.78" y="56.7803">shared diagram:</text><text fill="#334155" font-family="Helvetica" font-size="14" lengthAdjust="spacing" textLength="331.4814" x="2258.78" y="70.7803">shared/diagrams/shared-controller-state-machine.svg</text><text fill="#334155" font-family="Helvetica" font-size="14" lengthAdjust="spacing" textLength="304.2744" x="2258.78" y="84.7803">Start from the shared controller phase model and</text><text fill="#334155" font-family="Helvetica" font-size="14" lengthAdjust="spacing" textLength="261.4678" x="2258.78" y="98.7803">specialize imported provider states, delete</text><text fill="#334155" font-family="Helvetica" font-size="14" lengthAdjust="spacing" textLength="184.4336" x="2258.78" y="112.7803">targets, and failure exits here.</text><text fill="#334155" font-family="Helvetica" font-size="14" lengthAdjust="spacing" textLength="281.709" x="2258.78" y="126.7803">archetype batch: Generated service-manager</text><text fill="#334155" font-family="Helvetica" font-size="14" lengthAdjust="spacing" textLength="287.9229" x="2258.78" y="140.7803">controllers map provider states into the shared</text><text fill="#334155" font-family="Helvetica" font-size="14" lengthAdjust="spacing" textLength="261.4609" x="2258.78" y="154.7803">controller phases with explicit finalizer and</text><text fill="#334155" font-family="Helvetica" font-size="14" lengthAdjust="spacing" textLength="105.8477" x="2258.78" y="168.7803">requeue policies.</text><text fill="#334155" font-family="Helvetica" font-size="14" lengthAdjust="spacing" textLength="66.9102" x="2258.78" y="182.7803">service: iot</text><text fill="#334155" font-family="Helvetica" font-size="14" lengthAdjust="spacing" textLength="115.9512" x="2258.78" y="196.7803">slug: iotiotdomains</text><text fill="#334155" font-family="Helvetica" font-size="14" lengthAdjust="spacing" textLength="119.834" x="2258.78" y="210.7803">kind: IotIotDomains</text><text fill="#334155" font-family="Helvetica" font-size="14" lengthAdjust="spacing" textLength="241.2402" x="2258.78" y="224.7803">archetype: generated-service-manager</text><text fill="#334155" font-family="Helvetica" font-size="14" lengthAdjust="spacing" textLength="156.4063" x="2258.78" y="238.7803">status/finalizer: required /</text><text fill="#334155" font-family="Helvetica" font-size="14" lengthAdjust="spacing" textLength="174.3027" x="2258.78" y="252.7803">retain-until-confirmed-delete</text><text fill="#334155" font-family="Helvetica" font-size="14" lengthAdjust="spacing" textLength="272.3984" x="2258.78" y="266.7803">requeue: provisioning, updating, terminating</text><text fill="#334155" font-family="Helvetica" font-size="14" lengthAdjust="spacing" textLength="295.6816" x="2258.78" y="280.7803">provider states: create PROVISIONING; update</text><text fill="#334155" font-family="Helvetica" font-size="14" lengthAdjust="spacing" textLength="192.165" x="2258.78" y="294.7803">UPDATING; delete DELETING</text><text fill="#334155" font-family="Helvetica" font-size="14" lengthAdjust="spacing" textLength="183.6611" x="2258.78" y="308.7803">supported drift: display_name</text><text fill="#334155" font-family="Helvetica" font-size="14" lengthAdjust="spacing" textLength="230.3301" x="2258.78" y="322.7803">reject before mutate: force-new fields</text><text fill="#334155" font-family="Helvetica" font-size="14" lengthAdjust="spacing" textLength="100.3789" x="2258.78" y="336.7803">compartment_id</text><text fill="#334155" font-family="Helvetica" font-size="14" lengthAdjust="spacing" textLength="268.4678" x="2258.78" y="350.7803">list lookup: scaffold_iot_iotiotdomains filters</text><text fill="#334155" font-family="Helvetica" font-size="14" lengthAdjust="spacing" textLength="138.5098" x="2258.78" y="364.7803">compartment_id, state</text><text fill="#334155" font-family="Helvetica" font-size="14" lengthAdjust="spacing" textLength="89.4961" x="2258.78" y="378.7803">conflicts: none</text><text fill="#334155" font-family="Helvetica" font-size="14" lengthAdjust="spacing" textLength="104.3164" x="2258.78" y="392.7803">open gaps: none</text><text fill="#334155" font-family="Helvetica" font-size="14" lengthAdjust="spacing" textLength="224.9023" x="2258.78" y="406.7803">Scaffold metadata only; replace with</text><text fill="#334155" font-family="Helvetica" font-size="14" lengthAdjust="spacing" textLength="244.3232" x="2258.78" y="420.7803">controller-specific runtime states before</text><text fill="#334155" font-family="Helvetica" font-size="14" lengthAdjust="spacing" textLength="66.1445" x="2258.78" y="434.7803">promotion.</text></g><g class="entity" data-qualified-name="GMN5" data-source-line="85" id="ent0006"><path d="M2940.27,502 L2940.27,517.39 L2480.43,500.31 L2940.27,525.39 L2940.27,552 A8,8 0 0 0 2948.27,560 L3178.1655,560 A8,8 0 0 0 3186.1655,552 L3186.1655,504 L3176.1655,494 L2948.27,494 A8,8 0 0 0 2940.27,502" fill="#FFF7D6" style="stroke:#B45309;stroke-width:0.5;"/><path d="M3176.1655,494 L3176.1655,500 A4,4 0 0 0 3180.1655,504 L3186.1655,504 L3176.1655,494" fill="#FFF7D6" style="stroke:#B45309;stroke-width:0.5;"/><text fill="#334155" font-family="Helvetica" font-size="14" lengthAdjust="spacing" textLength="136.9717" x="2946.27" y="509.7803">delete policy: required</text><text fill="#334155" font-family="Helvetica" font-size="14" lengthAdjust="spacing" textLength="224.8955" x="2946.27" y="523.7803">delete observe: GetIotIotDomains or</text><text fill="#334155" font-family="Helvetica" font-size="14" lengthAdjust="spacing" textLength="108.1582" x="2946.27" y="537.7803">ListIotIotDomains</text><text fill="#334155" font-family="Helvetica" font-size="14" lengthAdjust="spacing" textLength="157.1855" x="2946.27" y="551.7803">delete targets: DELETED</text></g><!--link *start* to observe--><g class="link" data-entity-1="ent0002" data-entity-2="ent0002" data-link-type="dependency" data-source-line="32" id="lnk3"><path d="M26.18,425 C53.93,425 133.76,425 209.69,425" fill="none" id="*start*-to-observe" style="stroke:#0F172A;stroke-width:1;"/><polygon fill="#0F172A" points="215.69,425,206.69,421,210.69,425,206.69,429,215.69,425" style="stroke:#0F172A;stroke-width:1;"/><text fill="#000000" font-family="Helvetica" font-size="14" lengthAdjust="spacing" textLength="128.3926" x="57" y="420.7803">CreateIotIotDomains</text></g><!--link observe to resolve_by_lookup--><g class="link" data-entity-1="ent0002" data-entity-2="ent0007" data-link-type="dependency" data-source-line="33" id="lnk4"><path d="M480.64,409.05 C571.55,398.01 682.3337,384.5731 752.1837,376.0931" fill="none" id="observe-to-resolve_by_lookup" style="stroke:#0F172A;stroke-width:1;"/><polygon fill="#0F172A" points="758.14,375.37,748.7235,372.4838,753.1764,375.9726,749.6877,380.4255,758.14,375.37" style="stroke:#0F172A;stroke-width:1;"/><text fill="#000000" font-family="Helvetica" font-size="14" lengthAdjust="spacing" textLength="145.5029" x="511.36" y="383.8403">tracked identity missing</text></g><!--link resolve_by_lookup to evaluate_ready--><g class="link" data-entity-1="ent0007" data-entity-2="ent0003" data-link-type="dependency" data-source-line="34" id="lnk5"><path d="M881.78,356.3 C999.37,333.72 1246.26,286.3 1247.36,286 C1257.07,283.36 1261.6038,282.0543 1271.3838,278.7043" fill="none" id="resolve_by_lookup-to-evaluate_ready" style="stroke:#0F172A;stroke-width:1;"/><polygon fill="#0F172A" points="1277.06,276.76,1267.2494,275.8923,1272.3298,278.3803,1269.8419,283.4606,1277.06,276.76" style="stroke:#0F172A;stroke-width:1;"/><text fill="#000000" font-family="Helvetica" font-size="14" lengthAdjust="spacing" textLength="154.0889" x="1037.86" y="267.7803">lookup or create reaches</text><text fill="#000000" font-family="Helvetica" font-size="14" lengthAdjust="spacing" textLength="50.5654" x="1089.6217" y="281.7803">ACTIVE</text></g><!--link resolve_by_lookup to retryable--><g class="link" data-entity-1="ent0007" data-entity-2="ent0005" data-link-type="dependency" data-source-line="35" id="lnk6"><path d="M881.63,370.63 C989.21,375.29 1203.8056,384.5798 1288.5956,388.2598" fill="none" id="resolve_by_lookup-to-retryable" style="stroke:#0F172A;stroke-width:1;"/><polygon fill="#0F172A" points="1294.59,388.52,1285.7719,384.1335,1289.5947,388.3032,1285.425,392.126,1294.59,388.52" style="stroke:#0F172A;stroke-width:1;"/><text fill="#000000" font-family="Helvetica" font-size="14" lengthAdjust="spacing" textLength="184.3789" x="1022.86" y="356.9003">OCI state in PROVISIONING,</text><text fill="#000000" font-family="Helvetica" font-size="14" lengthAdjust="spacing" textLength="150.1309" x="1039.984" y="370.9003">UPDATING, DELETING</text></g><!--link resolve_by_lookup to failed--><g class="link" data-entity-1="ent0007" data-entity-2="ent0006" data-link-type="dependency" data-source-line="36" id="lnk7"><path d="M881.63,384.87 C993.69,415.97 1222.5786,479.5053 1298.6686,500.6253" fill="none" id="resolve_by_lookup-to-failed" style="stroke:#0F172A;stroke-width:1;"/><polygon fill="#0F172A" points="1304.45,502.23,1296.8477,495.9686,1299.6321,500.8927,1294.708,503.6772,1304.45,502.23" style="stroke:#0F172A;stroke-width:1;"/><text fill="#000000" font-family="Helvetica" font-size="14" lengthAdjust="spacing" textLength="263.7783" x="983.36" y="409.3903">unresolved OCI error or non-success state</text></g><!--link observe to evaluate_ready--><g class="link" data-entity-1="ent0002" data-entity-2="ent0003" data-link-type="dependency" data-source-line="37" id="lnk8"><path d="M425.96,393.64 C452.45,383.43 482.47,372.55 510.36,364 C716.5,300.82 768.22,277.06 982.36,252 C1086.33,239.83 1203.0497,246.0341 1270.9897,251.5541" fill="none" id="observe-to-evaluate_ready" style="stroke:#0F172A;stroke-width:1;"/><polygon fill="#0F172A" points="1276.97,252.04,1268.3235,247.3243,1271.9864,251.6351,1267.6756,255.298,1276.97,252.04" style="stroke:#0F172A;stroke-width:1;"/><text fill="#000000" font-family="Helvetica" font-size="14" lengthAdjust="spacing" textLength="128.3721" x="755.86" y="251.9503">OCI state in ACTIVE</text></g><!--link observe to retryable--><g class="link" data-entity-1="ent0002" data-entity-2="ent0005" data-link-type="dependency" data-source-line="38" id="lnk9"><path d="M480.47,429.33 C543.11,431.38 619.11,433.85 687.36,436 C936.16,443.84 1009.33,517.82 1247.36,445 C1253.36,443.17 1274.4421,428.7656 1295.4721,413.8856" fill="none" id="observe-to-retryable" style="stroke:#0F172A;stroke-width:1;"/><polygon fill="#0F172A" points="1300.37,410.42,1290.7127,412.3531,1296.2884,413.308,1295.3335,418.8837,1300.37,410.42" style="stroke:#0F172A;stroke-width:1;"/><text fill="#000000" font-family="Helvetica" font-size="14" lengthAdjust="spacing" textLength="184.3789" x="727.86" y="417.7803">OCI state in PROVISIONING,</text><text fill="#000000" font-family="Helvetica" font-size="14" lengthAdjust="spacing" textLength="150.1309" x="744.984" y="431.7803">UPDATING, DELETING</text></g><!--link observe to failed--><g class="link" data-entity-1="ent0002" data-entity-2="ent0006" data-link-type="dependency" data-source-line="39" id="lnk10"><path d="M480.48,456.38 C542.78,469.89 618.51,484.32 687.36,492 C926.8,518.7 1213.4528,512.6025 1298.5628,510.0125" fill="none" id="observe-to-failed" style="stroke:#0F172A;stroke-width:1;"/><polygon fill="#0F172A" points="1304.56,509.83,1295.4425,506.1056,1299.5623,509.9821,1295.6858,514.1019,1304.56,509.83" style="stroke:#0F172A;stroke-width:1;"/><text fill="#000000" font-family="Helvetica" font-size="14" lengthAdjust="spacing" textLength="263.7783" x="688.36" y="487.7803">unresolved OCI error or non-success state</text></g><!--link evaluate_ready to reject_unsupported_drift--><g class="link" data-entity-1="ent0003" data-entity-2="ent0008" data-link-type="dependency" data-source-line="40" id="lnk11"><path d="M1354.06,277.48 C1369.49,289.89 1390.81,304.85 1412.32,313 C1476.53,337.35 1548.6042,344.9058 1605.3042,347.0258" fill="none" id="evaluate_ready-to-reject_unsupported_drift" style="stroke:#0F172A;stroke-width:1;"/><polygon fill="#0F172A" points="1611.3,347.25,1602.4557,342.9165,1606.3035,347.0632,1602.1568,350.9109,1611.3,347.25" style="stroke:#0F172A;stroke-width:1;"/><text fill="#000000" font-family="Helvetica" font-size="14" lengthAdjust="spacing" textLength="143.9512" x="1423.32" y="294.7803">force-new or conflicting</text><text fill="#000000" font-family="Helvetica" font-size="14" lengthAdjust="spacing" textLength="80.9375" x="1454.8268" y="308.7803">drift detected</text></g><!--link reject_unsupported_drift to ready--><g class="link" data-entity-1="ent0008" data-entity-2="ent0004" data-link-type="dependency" data-source-line="41" id="lnk12"><path d="M1767.32,346.06 C1833.2,342.77 1929.3,332 2006.32,299 C2018.36,293.84 2025.4802,289.2363 2034.9202,281.2463" fill="none" id="reject_unsupported_drift-to-ready" style="stroke:#0F172A;stroke-width:1;"/><polygon fill="#0F172A" points="2039.5,277.37,2030.0461,280.1313,2035.6835,280.6003,2035.2146,286.2376,2039.5,277.37" style="stroke:#0F172A;stroke-width:1;"/><text fill="#000000" font-family="Helvetica" font-size="14" lengthAdjust="spacing" textLength="203.8818" x="1802.32" y="294.7803">wait for spec or live state change</text></g><!--link evaluate_ready to apply_update--><g class="link" data-entity-1="ent0003" data-entity-2="ent0009" data-link-type="dependency" data-source-line="42" id="lnk13"><path d="M1382.72,239.96 C1392.49,237.07 1402.67,234.27 1412.32,232 C1493.17,212.95 1583.2022,199.6097 1638.0322,192.3297" fill="none" id="evaluate_ready-to-apply_update" style="stroke:#0F172A;stroke-width:1;"/><polygon fill="#0F172A" points="1643.98,191.54,1634.5318,188.7594,1639.0235,192.1981,1635.5848,196.6898,1643.98,191.54" style="stroke:#0F172A;stroke-width:1;"/><text fill="#000000" font-family="Helvetica" font-size="14" lengthAdjust="spacing" textLength="163.4199" x="1413.32" y="183.0903">supported mutable drift for</text><text fill="#000000" font-family="Helvetica" font-size="14" lengthAdjust="spacing" textLength="86.3857" x="1451.8371" y="197.0903">display_name</text></g><!--link apply_update to ready--><g class="link" data-entity-1="ent0009" data-entity-2="ent0004" data-link-type="dependency" data-source-line="43" id="lnk14"><path d="M1734.88,188.45 C1796.86,192.76 1912.1,204.07 2006.32,232 C2016.36,234.98 2021.5025,236.9001 2030.6125,241.2801" fill="none" id="apply_update-to-ready" style="stroke:#0F172A;stroke-width:1;"/><polygon fill="#0F172A" points="2036.02,243.88,2029.642,236.3752,2031.5138,241.7135,2026.1756,243.5852,2036.02,243.88" style="stroke:#0F172A;stroke-width:1;"/><text fill="#000000" font-family="Helvetica" font-size="14" lengthAdjust="spacing" textLength="141.6543" x="1833.32" y="190.4503">update path completes</text></g><!--link evaluate_ready to ready--><g class="link" data-entity-1="ent0003" data-entity-2="ent0004" data-link-type="dependency" data-source-line="44" id="lnk15"><path d="M1382.73,257 C1527.46,257 1925.77,257 2029.86,257" fill="none" id="evaluate_ready-to-ready" style="stroke:#0F172A;stroke-width:1;"/><polygon fill="#0F172A" points="2035.86,257,2026.86,253,2030.86,257,2026.86,261,2035.86,257" style="stroke:#0F172A;stroke-width:1;"/><text fill="#000000" font-family="Helvetica" font-size="14" lengthAdjust="spacing" textLength="162.6406" x="1608.32" y="252.7803">no supported drift remains</text></g><!--link ready to ready--><g class="link" data-entity-1="ent0004" data-entity-2="ent0004" data-link-type="dependency" data-source-line="45" id="lnk16"><path d="M2044.35,236.69 C2037,219.73 2042.74,202 2061.55,202 C2080.36,202 2088.4858,214.2247 2081.1358,231.1847" fill="none" id="ready-to-ready" style="stroke:#0F172A;stroke-width:1;"/><polygon fill="#0F172A" points="2078.75,236.69,2085.9989,230.0227,2080.7382,232.1023,2078.6586,226.8416,2078.75,236.69" style="stroke:#0F172A;stroke-width:1;"/><text fill="#000000" font-family="Helvetica" font-size="14" lengthAdjust="spacing" textLength="162.6406" x="1980.55" y="192.7803">no supported drift remains</text></g><!--link retryable to retryable--><g class="link" data-entity-1="ent0005" data-entity-2="ent0005" data-link-type="dependency" data-source-line="46" id="lnk17"><path d="M1303.63,369.69 C1292.42,352.73 1301.16,335 1329.84,335 C1358.52,335 1370.5564,347.7232 1359.3564,364.6832" fill="none" id="retryable-to-retryable" style="stroke:#0F172A;stroke-width:1;"/><polygon fill="#0F172A" points="1356.05,369.69,1364.3474,364.3841,1358.8053,365.5177,1357.6717,359.9756,1356.05,369.69" style="stroke:#0F172A;stroke-width:1;"/><text fill="#000000" font-family="Helvetica" font-size="14" lengthAdjust="spacing" textLength="136.9307" x="1261.84" y="325.7803">OCI remains retryable</text></g><!--link failed to failed--><g class="link" data-entity-1="ent0006" data-entity-2="ent0006" data-link-type="dependency" data-source-line="47" id="lnk18"><path d="M1304.41,489.83 C1292.04,472.53 1300.52,454 1329.84,454 C1359.16,454 1371.1298,467.6493 1358.7598,484.9493" fill="none" id="failed-to-failed" style="stroke:#0F172A;stroke-width:1;"/><polygon fill="#0F172A" points="1355.27,489.83,1363.7585,484.8355,1358.1782,485.7628,1357.251,480.1824,1355.27,489.83" style="stroke:#0F172A;stroke-width:1;"/><text fill="#000000" font-family="Helvetica" font-size="14" lengthAdjust="spacing" textLength="132.2549" x="1263.84" y="444.7803">OCI remains terminal</text></g><!--link ready to delete_pending--><g class="link" data-entity-1="ent0004" data-entity-2="ent0010" data-link-type="dependency" data-source-line="48" id="lnk19"><path d="M2087.15,273.1 C2121.34,296.49 2183.44,342.82 2222.78,395 C2241.94,420.4 2227.96,440.09 2252.78,460 C2288,488.24 2333.5483,496.3637 2371.6283,498.3737" fill="none" id="ready-to-delete_pending" style="stroke:#0F172A;stroke-width:1;"/><polygon fill="#0F172A" points="2377.62,498.69,2368.8434,494.2212,2372.627,498.4264,2368.4217,502.21,2377.62,498.69" style="stroke:#0F172A;stroke-width:1;"/><text fill="#000000" font-family="Helvetica" font-size="14" lengthAdjust="spacing" textLength="104.3027" x="2117.78" y="290.6703">delete requested</text></g><!--link retryable to delete_pending--><g class="link" data-entity-1="ent0005" data-entity-2="ent0010" data-link-type="dependency" data-source-line="49" id="lnk20"><path d="M1365.3,393.08 C1484.3,403.74 1888.97,440.39 2222.78,475 C2275.75,480.49 2330.3595,486.6627 2371.8995,491.4527" fill="none" id="retryable-to-delete_pending" style="stroke:#0F172A;stroke-width:1;"/><polygon fill="#0F172A" points="2377.86,492.14,2369.3775,487.1354,2372.8929,491.5672,2368.461,495.0827,2377.86,492.14" style="stroke:#0F172A;stroke-width:1;"/><text fill="#000000" font-family="Helvetica" font-size="14" lengthAdjust="spacing" textLength="104.3027" x="1851.82" y="429.9103">delete requested</text></g><!--link failed to delete_pending--><g class="link" data-entity-1="ent0006" data-entity-2="ent0010" data-link-type="dependency" data-source-line="50" id="lnk21"><path d="M1355.29,508.75 C1494.18,507.36 2178.3003,500.4999 2371.6203,498.5699" fill="none" id="failed-to-delete_pending" style="stroke:#0F172A;stroke-width:1;"/><polygon fill="#0F172A" points="2377.62,498.51,2368.5805,494.6,2372.6202,498.5599,2368.6604,502.5996,2377.62,498.51" style="stroke:#0F172A;stroke-width:1;"/><text fill="#000000" font-family="Helvetica" font-size="14" lengthAdjust="spacing" textLength="104.3027" x="1851.82" y="498.0203">delete requested</text></g><!--link delete_pending to delete_cleanup_blocked--><g class="link" data-entity-1="ent0010" data-entity-2="ent0012" data-link-type="dependency" data-source-line="51" id="lnk22"><path d="M2480.43,493.3 C2591.07,482.97 2849.786,458.8275 2980.526,446.6275" fill="none" id="delete_pending-to-delete_cleanup_blocked" style="stroke:#0F172A;stroke-width:1;"/><polygon fill="#0F172A" points="2986.5,446.07,2977.1673,442.9235,2981.5216,446.5346,2977.9106,450.8889,2986.5,446.07" style="stroke:#0F172A;stroke-width:1;"/><text fill="#000000" font-family="Helvetica" font-size="14" lengthAdjust="spacing" textLength="273.1436" x="2636.27" y="449.0403">cleanup or finalizer release remains blocked</text></g><!--link delete_cleanup_blocked to deleted--><g class="link" data-entity-1="ent0012" data-entity-2="ent0011" data-link-type="dependency" data-source-line="52" id="lnk23"><path d="M3139.82,439 C3237.71,439 3397.59,439 3463.78,439" fill="none" id="delete_cleanup_blocked-to-deleted" style="stroke:#0F172A;stroke-width:1;"/><polygon fill="#0F172A" points="3469.78,439,3460.78,435,3464.78,439,3460.78,443,3469.78,439" style="stroke:#0F172A;stroke-width:1;"/><text fill="#000000" font-family="Helvetica" font-size="14" lengthAdjust="spacing" textLength="222.5645" x="3217.16" y="434.7803">retry delete completion until allowed</text></g><!--link deleted to deleted--><g class="link" data-entity-1="ent0011" data-entity-2="ent0011" data-link-type="dependency" data-source-line="53" id="lnk24"><path d="M3472.1,418.69 C3460.48,401.73 3469.54,384 3499.29,384 C3529.04,384 3541.4912,396.7803 3529.8712,413.7403" fill="none" id="deleted-to-deleted" style="stroke:#0F172A;stroke-width:1;"/><polygon fill="#0F172A" points="3526.48,418.69,3534.8667,413.5263,3529.306,414.5653,3528.2671,409.0046,3526.48,418.69" style="stroke:#0F172A;stroke-width:1;"/><text fill="#000000" font-family="Helvetica" font-size="14" lengthAdjust="spacing" textLength="92.5859" x="3453.29" y="374.7803">terminal stutter</text></g><?plantuml-src dLRTJnmt47_VlsAKlbKSX099UaYLW2Cf4WK48I-bEldisJiNhxsrlLokLV_tZZzsRtS1HOtk7jRpvVdupOpTezGriwm2jsB2hALUGicKmy9rd0NZZqjh6YtEZ38MVYWv_KHFGc396kK_6kslM8NmAwedz9ApbsNkvDy8-uSz9hFMhBFrj-N--v_wcjfuF7tcGrc-5-_6KiOAj5bYSNXqyFRdaKIuFlCF3WxtZuvw_6YU6wlHmlwxmakl4EuyymY_CRwI6c42qlYz2-FfFpCLazhr3BWe-qy1BwJiGybA7ZXz5tEe0ENMhOv6rcnBt1U7A3uG4JkBMUxVGc7fmHkmShdo8AH5xgNHnKeA1Anglw7SEsvb7Sd9oJVN2uVs2Ty0Ss3ITyiwVsAgeQzRP68J1J1JvZQGMhajVqJsTiCM2ZChdrhsHoOLYiWhusUHhuTfj0EkHhu3tb8AKSISDcw7Gb18wb9xr7xdGJCjW3VMqWckpov0oHBvXc_lkKLd28MdcqjZ7fiwEnDfyyLchY9rA_mdPUrUkwQkZVKePbQMFki4rhpPykOYC5lLaxfMc_jQq27Ait2UDv7GoioYypTKFEglA9N2cTU9D9GJFGanP9qfPBgfJvK9oUbRueapNoHMyVkFVy1ayWjiatj6sVKun6xB3PBFaaCwRHK8IfhwOGELT2uu_5muc1ZYXFGpZ_3Au-sXmdo5xa6Vd7s--7B-YfqED6GY53VbG6gukRt-Sd5tSNrrSVM9G71_Cplv73vXTdvv7hvUCPYGHjOQdGL4D8mqTsnmJnizSGtdw5owRP2QPt4DdCgX37FvtG7qpNo7soDNapCl8vZibiPod6XSnn8PNIf9mqCl7tII40Gj7b3ugerqGShAcaaVJCOM3XQLf41Ix7p5zF95z_eDGqQw2w1gV4nXkeZiabVIrOfjvfgsJ35GxFkHIJNpAmgggaE3k9SpanIqwLsRhhEOEkH_2hTbVma4MQet4dDz1wNkItgqbTHCzRmO3WwIpuFHubyDkbIglXFVbkyvyMtXaKHFQJI0I3bJ0X3A40LjVKkcYEgm2x6TLwzOsLuWudwWq5gdScLffr5xUAc0AMNMdQcnRfjBmcFZwL24vq1UcgPiLzYAsL1LoPQqqAVvl9VFRY-T9zGftXgbq4uYkYTLUX_ikgTbSHVsDfJMLE1N2DdaLWNgLKX0PSWte3LMX6wHCJqWguohsfed6hesTK-t_mgolKHFvx3_GkKQIql-g_GELcXnjs2MvglVr4Xl4CzNK_Y4z9vXmMQOAv87PpLRKWAsBZceM3s-C-nQqmkX68VWO2sfm_1hJLCZT7vNv11Ln4n3NMW25zrkaU-VXZTKuLIpZ5_q5taRqKDAJ66ueRfufh1i8vcC8qcFXBtEWMb4h0nvtmlzG9Oc4IEXSgMq5Td82SrkJbFqZj14kDv98oH-PTo4Gp7AqBJTQlsfVfp7Jz7EzkCMiDs87uqFQhF-M4kZ5XP84m_Z4FJOdzIbH2LS4U1FGAjeCS-bA9HqFgzRcg6SbQLHOax9dGzoJDgA8Xghx-JjqQu05yQSfYL8ZGvBLhVdksmOAaegHSd0QBKvfdIJ_nmZ88f-TmHebvA33Ucli8LM2YxaimhUwTs21afye8_QSlHEofcCcDfigzpIy-uCeFS36D4CAYufGqDiPQtSKzDKeFDPvyj_?></g></svg>