<?plantuml 1.2026.1?><svg xmlns="http://www.w3.org/2000/svg" xmlns:xlink="http://www.w3.org/1999/xlink" contentStyleType="text/css" data-diagram-type="ACTIVITY" height="2212px" preserveAspectRatio="none" style="width:1255px;height:2212px;background:#FCFCFD;" version="1.1" viewBox="0 0 1255 2212" width="1255px" zoomAndPan="magnify"><title>Activity - psql/PsqlConfiguration</title><defs/><g><rect fill="#FCFCFD" height="2212" style="stroke:none;stroke-width:1;" width="1255" x="0" y="0"/><g class="title" data-source-line="10"><text fill="#000000" font-family="Helvetica" font-size="14" font-weight="bold" lengthAdjust="spacing" textLength="217.0068" x="517.7705" y="30.7803">Activity - psql/PsqlConfiguration</text></g><ellipse cx="666.7612" cy="55" fill="#1D4ED8" rx="10" ry="10" style="stroke:#222222;stroke-width:1;"/><rect fill="none" height="458" rx="8" ry="8" style="stroke:#000000;stroke-width:1.5;" width="618.5615" x="384.144" y="75"/><path d="M506.2124,75 L506.2124,82 L496.2124,92 L384.144,92" fill="none" style="stroke:#000000;stroke-width:1.5;"/><text fill="#000000" font-family="Helvetica" font-size="14" lengthAdjust="spacing" textLength="112.0684" x="387.144" y="86.7803">Observe and Bind</text><rect fill="#F8FAFC" height="48" rx="8" ry="8" style="stroke:#0F172A;stroke-width:0.5;" width="304.7852" x="514.3687" y="109"/><text fill="#0F172A" font-family="Helvetica" font-size="14" lengthAdjust="spacing" textLength="136.9375" x="524.3687" y="129.7803">Start from shared flow</text><text fill="#0F172A" font-family="Helvetica" font-size="14" lengthAdjust="spacing" textLength="284.7852" x="524.3687" y="143.7803">shared/diagrams/shared-reconcile-activity.svg</text><rect fill="#F8FAFC" height="48" rx="8" ry="8" style="stroke:#0F172A;stroke-width:0.5;" width="304.8262" x="514.3481" y="177"/><text fill="#0F172A" font-family="Helvetica" font-size="14" lengthAdjust="spacing" textLength="284.8262" x="524.3481" y="197.7803">Read desired PsqlConfiguration spec, tracked</text><text fill="#0F172A" font-family="Helvetica" font-size="14" lengthAdjust="spacing" textLength="148.6611" x="524.3481" y="211.7803">status, and delete intent</text><polygon fill="#E2E8F0" points="537.2954,245,796.2271,245,808.2271,257,796.2271,269,537.2954,269,525.2954,257,537.2954,245" style="stroke:#1D4ED8;stroke-width:0.5;"/><text fill="#0F172A" font-family="Helvetica" font-size="14" lengthAdjust="spacing" textLength="258.9316" x="537.2954" y="260.7803">"Tracked or explicit OCI identity present?"</text><text fill="#000000" font-family="Helvetica" font-size="14" lengthAdjust="spacing" textLength="21.7861" x="503.5093" y="253.7803">yes</text><text fill="#000000" font-family="Helvetica" font-size="14" lengthAdjust="spacing" textLength="15.5723" x="808.2271" y="253.7803">no</text><rect fill="#F8FAFC" height="48" rx="8" ry="8" style="stroke:#0F172A;stroke-width:0.5;" width="222.3027" x="404.144" y="279"/><text fill="#0F172A" font-family="Helvetica" font-size="14" lengthAdjust="spacing" textLength="202.3027" x="414.144" y="299.7803">Get the current OCI resource via</text><text fill="#0F172A" font-family="Helvetica" font-size="14" lengthAdjust="spacing" textLength="133.0752" x="414.144" y="313.7803">GetPsqlConfiguration</text><rect fill="#F8FAFC" height="62" rx="8" ry="8" style="stroke:#0F172A;stroke-width:0.5;" width="279.9092" x="678.2725" y="279"/><text fill="#0F172A" font-family="Helvetica" font-size="14" lengthAdjust="spacing" textLength="259.9092" x="688.2725" y="299.7803">Resolve an existing OCI resource through</text><text fill="#0F172A" font-family="Helvetica" font-size="14" lengthAdjust="spacing" textLength="206.9922" x="688.2725" y="313.7803">ListPsqlConfiguration using filters</text><text fill="#0F172A" font-family="Helvetica" font-size="14" lengthAdjust="spacing" textLength="138.5098" x="688.2725" y="327.7803">compartment_id, state</text><rect fill="#F8FAFC" height="62" rx="8" ry="8" style="stroke:#0F172A;stroke-width:0.5;" width="328.957" x="653.7485" y="361"/><text fill="#0F172A" font-family="Helvetica" font-size="14" lengthAdjust="spacing" textLength="174.2959" x="663.7485" y="381.7803">Create the OCI resource via</text><text fill="#0F172A" font-family="Helvetica" font-size="14" lengthAdjust="spacing" textLength="308.957" x="663.7485" y="395.7803">CreatePsqlConfiguration when no reusable match</text><text fill="#0F172A" font-family="Helvetica" font-size="14" lengthAdjust="spacing" textLength="49.0342" x="663.7485" y="409.7803">is found</text><rect fill="#F8FAFC" height="48" rx="8" ry="8" style="stroke:#0F172A;stroke-width:0.5;" width="286.8955" x="674.7793" y="443"/><text fill="#0F172A" font-family="Helvetica" font-size="14" lengthAdjust="spacing" textLength="266.8955" x="684.7793" y="463.7803">Persist the resolved or created OCI identity</text><text fill="#0F172A" font-family="Helvetica" font-size="14" lengthAdjust="spacing" textLength="63.8135" x="684.7793" y="477.7803">into status</text><polygon fill="#E2E8F0" points="666.7612,497,678.7612,509,666.7612,521,654.7612,509,666.7612,497" style="stroke:#1D4ED8;stroke-width:0.5;"/><polygon fill="#E2E8F0" points="604.585,553,728.9375,553,740.9375,565,728.9375,577,604.585,577,592.585,565,604.585,553" style="stroke:#1D4ED8;stroke-width:0.5;"/><text fill="#0F172A" font-family="Helvetica" font-size="14" lengthAdjust="spacing" textLength="124.3525" x="604.585" y="568.7803">"Delete requested?"</text><text fill="#000000" font-family="Helvetica" font-size="14" lengthAdjust="spacing" textLength="21.7861" x="570.7988" y="561.7803">yes</text><text fill="#000000" font-family="Helvetica" font-size="14" lengthAdjust="spacing" textLength="15.5723" x="740.9375" y="561.7803">no</text><rect fill="none" height="356" rx="8" ry="8" style="stroke:#000000;stroke-width:1.5;" width="644.4814" x="11" y="587"/><path d="M61.4688,587 L61.4688,594 L51.4688,604 L11,604" fill="none" style="stroke:#000000;stroke-width:1.5;"/><text fill="#000000" font-family="Helvetica" font-size="14" lengthAdjust="spacing" textLength="40.4688" x="14" y="598.7803">Delete</text><rect fill="#F8FAFC" height="62" rx="8" ry="8" style="stroke:#0F172A;stroke-width:0.5;" width="316.4678" x="181.5103" y="621"/><text fill="#0F172A" font-family="Helvetica" font-size="14" lengthAdjust="spacing" textLength="288.7227" x="191.5103" y="641.7803">Delete path uses DeletePsqlConfiguration with</text><text fill="#0F172A" font-family="Helvetica" font-size="14" lengthAdjust="spacing" textLength="226.4541" x="191.5103" y="655.7803">required via GetPsqlConfiguration or</text><text fill="#0F172A" font-family="Helvetica" font-size="14" lengthAdjust="spacing" textLength="296.4678" x="191.5103" y="669.7803">ListPsqlConfiguration to DELETED confirmation</text><rect fill="#F8FAFC" height="62" rx="8" ry="8" style="stroke:#0F172A;stroke-width:0.5;" width="297.0264" x="191.231" y="718"/><text fill="#0F172A" font-family="Helvetica" font-size="14" lengthAdjust="spacing" textLength="277.0264" x="201.231" y="738.7803">Confirm deletion via GetPsqlConfiguration or</text><text fill="#0F172A" font-family="Helvetica" font-size="14" lengthAdjust="spacing" textLength="244.3438" x="201.231" y="752.7803">ListPsqlConfiguration until OCI reaches</text><text fill="#0F172A" font-family="Helvetica" font-size="14" lengthAdjust="spacing" textLength="64.5723" x="201.231" y="766.7803">DELETED</text><polygon fill="#E2E8F0" points="191.5718,811,487.9165,811,499.9165,823,487.9165,835,191.5718,835,179.5718,823,191.5718,811" style="stroke:#1D4ED8;stroke-width:0.5;"/><text fill="#0F172A" font-family="Helvetica" font-size="14" lengthAdjust="spacing" textLength="296.3447" x="191.5718" y="826.7803">"Delete cleanup and finalizer release succeed?"</text><text fill="#000000" font-family="Helvetica" font-size="14" lengthAdjust="spacing" textLength="21.7861" x="157.7856" y="819.7803">yes</text><text fill="#000000" font-family="Helvetica" font-size="14" lengthAdjust="spacing" textLength="15.5723" x="499.9165" y="819.7803">no</text><rect fill="#F8FAFC" height="34" rx="8" ry="8" style="stroke:#0F172A;stroke-width:0.5;" width="293.1436" x="23" y="845"/><text fill="#0F172A" font-family="Helvetica" font-size="14" lengthAdjust="spacing" textLength="273.1436" x="33" y="865.7803">Remove the finalizer after delete completion</text><rect fill="#F8FAFC" height="48" rx="8" ry="8" style="stroke:#0F172A;stroke-width:0.5;" width="251.1299" x="384.3516" y="845"/><text fill="#0F172A" font-family="Helvetica" font-size="14" lengthAdjust="spacing" textLength="231.1299" x="394.3516" y="865.7803">Stay blocked until cleanup or finalizer</text><text fill="#0F172A" font-family="Helvetica" font-size="14" lengthAdjust="spacing" textLength="108.9512" x="394.3516" y="879.7803">release succeeds</text><polygon fill="#E2E8F0" points="339.7441,899,351.7441,911,339.7441,923,327.7441,911,339.7441,899" style="stroke:#1D4ED8;stroke-width:0.5;"/><ellipse cx="339.7441" cy="983" fill="none" rx="11" ry="11" style="stroke:#222222;stroke-width:1;"/><ellipse cx="339.7441" cy="983" fill="#222222" rx="6" ry="6" style="stroke:#222222;stroke-width:1;"/><rect fill="none" height="441" rx="8" ry="8" style="stroke:#000000;stroke-width:1.5;" width="345.916" x="826.8203" y="587"/><path d="M977.6543,587 L977.6543,594 L967.6543,604 L826.8203,604" fill="none" style="stroke:#000000;stroke-width:1.5;"/><text fill="#000000" font-family="Helvetica" font-size="14" lengthAdjust="spacing" textLength="140.834" x="829.8203" y="598.7803">Lifecycle Classification</text><rect fill="#F8FAFC" height="48" rx="8" ry="8" style="stroke:#0F172A;stroke-width:0.5;" width="280.5928" x="853.4819" y="670"/><text fill="#0F172A" font-family="Helvetica" font-size="14" lengthAdjust="spacing" textLength="240.4541" x="863.4819" y="690.7803">Request requeue while OCI remains in</text><text fill="#0F172A" font-family="Helvetica" font-size="14" lengthAdjust="spacing" textLength="260.5928" x="863.4819" y="704.7803">PROVISIONING, UPDATING, DELETING</text><ellipse cx="993.7783" cy="764" fill="none" rx="11" ry="11" style="stroke:#222222;stroke-width:1;"/><ellipse cx="993.7783" cy="764" fill="#222222" rx="6" ry="6" style="stroke:#222222;stroke-width:1;"/><polygon fill="#E2E8F0" points="907.4951,621,1080.0615,621,1092.0615,633,1080.0615,645,907.4951,645,895.4951,633,907.4951,621" style="stroke:#1D4ED8;stroke-width:0.5;"/><text fill="#000000" font-family="Helvetica" font-size="14" lengthAdjust="spacing" textLength="21.7861" x="997.7783" y="655.7803">yes</text><text fill="#0F172A" font-family="Helvetica" font-size="14" lengthAdjust="spacing" textLength="172.5664" x="907.4951" y="636.7803">"OCI state in retryable set?"</text><rect fill="#F8FAFC" height="48" rx="8" ry="8" style="stroke:#0F172A;stroke-width:0.5;" width="293.916" x="846.8203" y="886"/><text fill="#0F172A" font-family="Helvetica" font-size="14" lengthAdjust="spacing" textLength="273.916" x="856.8203" y="906.7803">Return an unsuccessful reconcile result until</text><text fill="#0F172A" font-family="Helvetica" font-size="14" lengthAdjust="spacing" textLength="133.041" x="856.8203" y="920.7803">OCI reaches ACTIVE</text><ellipse cx="993.7783" cy="974" fill="none" rx="11" ry="11" style="stroke:#222222;stroke-width:1;"/><ellipse cx="993.7783" cy="974" fill="#222222" rx="6" ry="6" style="stroke:#222222;stroke-width:1;"/><polygon fill="#E2E8F0" points="873.2573,837,1114.2993,837,1126.2993,849,1114.2993,861,873.2573,861,861.2573,849,873.2573,837" style="stroke:#1D4ED8;stroke-width:0.5;"/><text fill="#000000" font-family="Helvetica" font-size="14" lengthAdjust="spacing" textLength="21.7861" x="997.7783" y="871.7803">yes</text><text fill="#0F172A" font-family="Helvetica" font-size="14" lengthAdjust="spacing" textLength="241.042" x="873.2573" y="852.7803">"OCI state is outside success targets?"</text><rect fill="none" height="722.5" rx="8" ry="8" style="stroke:#000000;stroke-width:1.5;" width="569.0664" x="675.4814" y="1038"/><path d="M841.9014,1038 L841.9014,1045 L831.9014,1055 L675.4814,1055" fill="none" style="stroke:#000000;stroke-width:1.5;"/><text fill="#000000" font-family="Helvetica" font-size="14" lengthAdjust="spacing" textLength="156.4199" x="678.4814" y="1049.7803">Ready and Drift Handling</text><rect fill="#F8FAFC" height="48" rx="8" ry="8" style="stroke:#0F172A;stroke-width:0.5;" width="296.2402" x="845.6582" y="1072"/><text fill="#0F172A" font-family="Helvetica" font-size="14" lengthAdjust="spacing" textLength="276.2402" x="855.6582" y="1092.7803">Compare live OCI state against the imported</text><text fill="#0F172A" font-family="Helvetica" font-size="14" lengthAdjust="spacing" textLength="75.4824" x="855.6582" y="1106.7803">field surface</text><rect fill="#F8FAFC" height="48" rx="8" ry="8" style="stroke:#0F172A;stroke-width:0.5;" width="302.4473" x="842.5547" y="1189"/><text fill="#0F172A" font-family="Helvetica" font-size="14" lengthAdjust="spacing" textLength="282.4473" x="852.5547" y="1209.7803">Reject drift before OCI mutation for force-new</text><text fill="#0F172A" font-family="Helvetica" font-size="14" lengthAdjust="spacing" textLength="136.9512" x="852.5547" y="1223.7803">fields compartment_id</text><ellipse cx="993.7783" cy="1269.5" fill="none" rx="11" ry="11" style="stroke:#222222;stroke-width:1;"/><ellipse cx="993.7783" cy="1269.5" fill="#222222" rx="6" ry="6" style="stroke:#222222;stroke-width:1;"/><polygon fill="#E2E8F0" points="868.1953,1140,1119.3613,1140,1131.3613,1152,1119.3613,1164,868.1953,1164,856.1953,1152,868.1953,1140" style="stroke:#1D4ED8;stroke-width:0.5;"/><text fill="#000000" font-family="Helvetica" font-size="14" lengthAdjust="spacing" textLength="21.7861" x="997.7783" y="1174.7803">yes</text><text fill="#0F172A" font-family="Helvetica" font-size="14" lengthAdjust="spacing" textLength="251.166" x="868.1953" y="1155.7803">"Force-new or conflicting drift detected?"</text><polygon fill="#E2E8F0" points="883.3506,1322.5,1104.2061,1322.5,1116.2061,1334.5,1104.2061,1346.5,883.3506,1346.5,871.3506,1334.5,883.3506,1322.5" style="stroke:#1D4ED8;stroke-width:0.5;"/><text fill="#0F172A" font-family="Helvetica" font-size="14" lengthAdjust="spacing" textLength="220.8555" x="883.3506" y="1338.2803">"Supported mutable drift detected?"</text><text fill="#000000" font-family="Helvetica" font-size="14" lengthAdjust="spacing" textLength="21.7861" x="849.5645" y="1331.2803">yes</text><text fill="#000000" font-family="Helvetica" font-size="14" lengthAdjust="spacing" textLength="15.5723" x="1116.2061" y="1331.2803">no</text><rect fill="#F8FAFC" height="48" rx="8" ry="8" style="stroke:#0F172A;stroke-width:0.5;" width="318.0605" x="695.4814" y="1356.5"/><text fill="#0F172A" font-family="Helvetica" font-size="14" lengthAdjust="spacing" textLength="298.0605" x="705.4814" y="1377.2803">Apply UpdatePsqlConfiguration only for mutable</text><text fill="#0F172A" font-family="Helvetica" font-size="14" lengthAdjust="spacing" textLength="122.958" x="705.4814" y="1391.2803">fields display_name</text><rect fill="#F8FAFC" height="34" rx="8" ry="8" style="stroke:#0F172A;stroke-width:0.5;" width="199.0059" x="1033.542" y="1356.5"/><text fill="#0F172A" font-family="Helvetica" font-size="14" lengthAdjust="spacing" textLength="179.0059" x="1043.542" y="1377.2803">Skip the no-op mutation path</text><polygon fill="#E2E8F0" points="993.7783,1410.5,1005.7783,1422.5,993.7783,1434.5,981.7783,1422.5,993.7783,1410.5" style="stroke:#1D4ED8;stroke-width:0.5;"/><rect fill="#F8FAFC" height="118" rx="8" ry="8" style="stroke:#0F172A;stroke-width:0.5;" width="334.3164" x="826.6201" y="1454.5"/><text fill="#0F172A" font-family="Helvetica" font-size="14" lengthAdjust="spacing" textLength="164.2061" x="836.6201" y="1475.2803">Run provider helper hooks</text><text fill="#0F172A" font-family="Helvetica" font-size="14" lengthAdjust="spacing" textLength="219.0508" x="836.6201" y="1489.2803">create=tfresource.CreateResource,</text><text fill="#0F172A" font-family="Helvetica" font-size="14" lengthAdjust="spacing" textLength="314.3164" x="836.6201" y="1503.2803">tfresource.WaitForWorkRequestWithErrorHandling</text><text fill="#0F172A" font-family="Helvetica" font-size="14" lengthAdjust="spacing" textLength="215.5439" x="836.6201" y="1517.2803">entity=template action=CREATED;</text><text fill="#0F172A" font-family="Helvetica" font-size="14" lengthAdjust="spacing" textLength="226.085" x="836.6201" y="1531.2803">update=tfresource.UpdateResource;</text><text fill="#0F172A" font-family="Helvetica" font-size="14" lengthAdjust="spacing" textLength="273.5537" x="836.6201" y="1545.2803">delete=tfresource.DeleteResource when the</text><text fill="#0F172A" font-family="Helvetica" font-size="14" lengthAdjust="spacing" textLength="220.2334" x="836.6201" y="1559.2803">matching field-driven path executes</text><rect fill="#F8FAFC" height="34" rx="8" ry="8" style="stroke:#0F172A;stroke-width:0.5;" width="303.2197" x="842.1685" y="1592.5"/><text fill="#0F172A" font-family="Helvetica" font-size="14" lengthAdjust="spacing" textLength="283.2197" x="852.1685" y="1613.2803">Return success for the ACTIVE success state</text><rect fill="#F8FAFC" height="48" rx="8" ry="8" style="stroke:#0F172A;stroke-width:0.5;" width="279.1299" x="854.2134" y="1646.5"/><text fill="#0F172A" font-family="Helvetica" font-size="14" lengthAdjust="spacing" textLength="259.1299" x="864.2134" y="1667.2803">Project required status and finalizer policy</text><text fill="#0F172A" font-family="Helvetica" font-size="14" lengthAdjust="spacing" textLength="174.3027" x="864.2134" y="1681.2803">retain-until-confirmed-delete</text><rect fill="#F8FAFC" height="34" rx="8" ry="8" style="stroke:#0F172A;stroke-width:0.5;" width="313.4189" x="837.0688" y="1714.5"/><text fill="#0F172A" font-family="Helvetica" font-size="14" lengthAdjust="spacing" textLength="293.4189" x="847.0688" y="1735.2803">Requeue on provisioning, updating, terminating</text><path d="M697.7612,1770.5 L697.7612,1981.5 L677.7612,1985.5 L697.7612,1989.5 L697.7612,2200.5 A0,0 0 0 0 697.7612,2200.5 L1014.4429,2200.5 A0,0 0 0 0 1014.4429,2200.5 L1014.4429,1780.5 L1004.4429,1770.5 L697.7612,1770.5 A0,0 0 0 0 697.7612,1770.5" fill="#FFF7D6" style="stroke:#B45309;stroke-width:0.5;"/><path d="M1004.4429,1770.5 L1004.4429,1780.5 L1014.4429,1780.5 L1004.4429,1770.5" fill="#FFF7D6" style="stroke:#B45309;stroke-width:0.5;"/><text fill="#334155" font-family="Helvetica" font-size="14" lengthAdjust="spacing" textLength="101.165" x="703.7612" y="1786.2803">shared diagram:</text><text fill="#334155" font-family="Helvetica" font-size="14" lengthAdjust="spacing" textLength="284.7852" x="703.7612" y="1800.2803">shared/diagrams/shared-reconcile-activity.svg</text><text fill="#334155" font-family="Helvetica" font-size="14" lengthAdjust="spacing" textLength="265.3438" x="703.7612" y="1814.2803">Start from the shared reconcile activity and</text><text fill="#334155" font-family="Helvetica" font-size="14" lengthAdjust="spacing" textLength="273.8955" x="703.7612" y="1828.2803">specialize provider-backed CRUD, wait, and</text><text fill="#334155" font-family="Helvetica" font-size="14" lengthAdjust="spacing" textLength="182.875" x="703.7612" y="1842.2803">status-projection details here.</text><text fill="#334155" font-family="Helvetica" font-size="14" lengthAdjust="spacing" textLength="229.5371" x="703.7612" y="1856.2803">Controller-local activity diagrams add</text><text fill="#334155" font-family="Helvetica" font-size="14" lengthAdjust="spacing" textLength="238.8955" x="703.7612" y="1870.2803">list-lookup hints, secret policies, delete</text><text fill="#334155" font-family="Helvetica" font-size="14" lengthAdjust="spacing" textLength="200.0332" x="703.7612" y="1884.2803">handling, and open formal gaps.</text><text fill="#334155" font-family="Helvetica" font-size="14" lengthAdjust="spacing" textLength="281.709" x="703.7612" y="1898.2803">archetype batch: Generated service-manager</text><text fill="#334155" font-family="Helvetica" font-size="14" lengthAdjust="spacing" textLength="291.0469" x="703.7612" y="1912.2803">controllers specialize the shared reconcile path</text><text fill="#334155" font-family="Helvetica" font-size="14" lengthAdjust="spacing" textLength="189.8477" x="703.7612" y="1926.2803">with formal runtime ownership.</text><text fill="#334155" font-family="Helvetica" font-size="14" lengthAdjust="spacing" textLength="77.8066" x="703.7612" y="1940.2803">service: psql</text><text fill="#334155" font-family="Helvetica" font-size="14" lengthAdjust="spacing" textLength="139.3096" x="703.7612" y="1954.2803">slug: psqlconfiguration</text><text fill="#334155" font-family="Helvetica" font-size="14" lengthAdjust="spacing" textLength="143.9717" x="703.7612" y="1968.2803">kind: PsqlConfiguration</text><text fill="#334155" font-family="Helvetica" font-size="14" lengthAdjust="spacing" textLength="241.2402" x="703.7612" y="1982.2803">archetype: generated-service-manager</text><text fill="#334155" font-family="Helvetica" font-size="14" lengthAdjust="spacing" textLength="156.4063" x="703.7612" y="1996.2803">status/finalizer: required /</text><text fill="#334155" font-family="Helvetica" font-size="14" lengthAdjust="spacing" textLength="174.3027" x="703.7612" y="2010.2803">retain-until-confirmed-delete</text><text fill="#334155" font-family="Helvetica" font-size="14" lengthAdjust="spacing" textLength="272.3984" x="703.7612" y="2024.2803">requeue: provisioning, updating, terminating</text><text fill="#334155" font-family="Helvetica" font-size="14" lengthAdjust="spacing" textLength="295.6816" x="703.7612" y="2038.2803">provider states: create PROVISIONING; update</text><text fill="#334155" font-family="Helvetica" font-size="14" lengthAdjust="spacing" textLength="192.165" x="703.7612" y="2052.2803">UPDATING; delete DELETING</text><text fill="#334155" font-family="Helvetica" font-size="14" lengthAdjust="spacing" textLength="183.6611" x="703.7612" y="2066.2803">supported drift: display_name</text><text fill="#334155" font-family="Helvetica" font-size="14" lengthAdjust="spacing" textLength="230.3301" x="703.7612" y="2080.2803">reject before mutate: force-new fields</text><text fill="#334155" font-family="Helvetica" font-size="14" lengthAdjust="spacing" textLength="100.3789" x="703.7612" y="2094.2803">compartment_id</text><text fill="#334155" font-family="Helvetica" font-size="14" lengthAdjust="spacing" textLength="265.3848" x="703.7612" y="2108.2803">list lookup: scaffold_psql_psqlconfiguration</text><text fill="#334155" font-family="Helvetica" font-size="14" lengthAdjust="spacing" textLength="175.8477" x="703.7612" y="2122.2803">filters compartment_id, state</text><text fill="#334155" font-family="Helvetica" font-size="14" lengthAdjust="spacing" textLength="89.4961" x="703.7612" y="2136.2803">conflicts: none</text><text fill="#334155" font-family="Helvetica" font-size="14" lengthAdjust="spacing" textLength="104.3164" x="703.7612" y="2150.2803">open gaps: none</text><text fill="#334155" font-family="Helvetica" font-size="14" lengthAdjust="spacing" textLength="224.9023" x="703.7612" y="2164.2803">Scaffold metadata only; replace with</text><text fill="#334155" font-family="Helvetica" font-size="14" lengthAdjust="spacing" textLength="244.3232" x="703.7612" y="2178.2803">controller-specific runtime states before</text><text fill="#334155" font-family="Helvetica" font-size="14" lengthAdjust="spacing" textLength="66.1445" x="703.7612" y="2192.2803">promotion.</text><ellipse cx="666.7612" cy="1985.5" fill="none" rx="11" ry="11" style="stroke:#222222;stroke-width:1;"/><ellipse cx="666.7612" cy="1985.5" fill="#222222" rx="6" ry="6" style="stroke:#222222;stroke-width:1;"/><line style="stroke:#0F172A;stroke-width:1;" x1="666.7612" x2="666.7612" y1="157" y2="177"/><polygon fill="#0F172A" points="662.7612,167,666.7612,177,670.7612,167,666.7612,171" style="stroke:#0F172A;stroke-width:1;"/><line style="stroke:#0F172A;stroke-width:1;" x1="818.2271" x2="818.2271" y1="341" y2="361"/><polygon fill="#0F172A" points="814.2271,351,818.2271,361,822.2271,351,818.2271,355" style="stroke:#0F172A;stroke-width:1;"/><line style="stroke:#0F172A;stroke-width:1;" x1="818.2271" x2="818.2271" y1="423" y2="443"/><polygon fill="#0F172A" points="814.2271,433,818.2271,443,822.2271,433,818.2271,437" style="stroke:#0F172A;stroke-width:1;"/><line style="stroke:#0F172A;stroke-width:1;" x1="525.2954" x2="515.2954" y1="257" y2="257"/><line style="stroke:#0F172A;stroke-width:1;" x1="515.2954" x2="515.2954" y1="257" y2="279"/><polygon fill="#0F172A" points="511.2954,269,515.2954,279,519.2954,269,515.2954,273" style="stroke:#0F172A;stroke-width:1;"/><line style="stroke:#0F172A;stroke-width:1;" x1="808.2271" x2="818.2271" y1="257" y2="257"/><line style="stroke:#0F172A;stroke-width:1;" x1="818.2271" x2="818.2271" y1="257" y2="279"/><polygon fill="#0F172A" points="814.2271,269,818.2271,279,822.2271,269,818.2271,273" style="stroke:#0F172A;stroke-width:1;"/><line style="stroke:#0F172A;stroke-width:1;" x1="515.2954" x2="515.2954" y1="327" y2="509"/><line style="stroke:#0F172A;stroke-width:1;" x1="515.2954" x2="654.7612" y1="509" y2="509"/><polygon fill="#0F172A" points="644.7612,505,654.7612,509,644.7612,513,648.7612,509" style="stroke:#0F172A;stroke-width:1;"/><line style="stroke:#0F172A;stroke-width:1;" x1="818.2271" x2="818.2271" y1="491" y2="509"/><line style="stroke:#0F172A;stroke-width:1;" x1="818.2271" x2="678.7612" y1="509" y2="509"/><polygon fill="#0F172A" points="688.7612,505,678.7612,509,688.7612,513,684.7612,509" style="stroke:#0F172A;stroke-width:1;"/><line style="stroke:#0F172A;stroke-width:1;" x1="666.7612" x2="666.7612" y1="225" y2="245"/><polygon fill="#0F172A" points="662.7612,235,666.7612,245,670.7612,235,666.7612,239" style="stroke:#0F172A;stroke-width:1;"/><line style="stroke:#0F172A;stroke-width:1;" x1="666.7612" x2="666.7612" y1="65" y2="109"/><polygon fill="#0F172A" points="662.7612,99,666.7612,109,670.7612,99,666.7612,103" style="stroke:#0F172A;stroke-width:1;"/><line style="stroke:#0F172A;stroke-width:1;" x1="339.7441" x2="339.7441" y1="683" y2="718"/><polygon fill="#0F172A" points="335.7441,708,339.7441,718,343.7441,708,339.7441,712" style="stroke:#0F172A;stroke-width:1;"/><line style="stroke:#0F172A;stroke-width:1;" x1="179.5718" x2="169.5718" y1="823" y2="823"/><line style="stroke:#0F172A;stroke-width:1;" x1="169.5718" x2="169.5718" y1="823" y2="845"/><polygon fill="#0F172A" points="165.5718,835,169.5718,845,173.5718,835,169.5718,839" style="stroke:#0F172A;stroke-width:1;"/><line style="stroke:#0F172A;stroke-width:1;" x1="499.9165" x2="509.9165" y1="823" y2="823"/><line style="stroke:#0F172A;stroke-width:1;" x1="509.9165" x2="509.9165" y1="823" y2="845"/><polygon fill="#0F172A" points="505.9165,835,509.9165,845,513.9165,835,509.9165,839" style="stroke:#0F172A;stroke-width:1;"/><line style="stroke:#0F172A;stroke-width:1;" x1="169.5718" x2="169.5718" y1="879" y2="911"/><line style="stroke:#0F172A;stroke-width:1;" x1="169.5718" x2="327.7441" y1="911" y2="911"/><polygon fill="#0F172A" points="317.7441,907,327.7441,911,317.7441,915,321.7441,911" style="stroke:#0F172A;stroke-width:1;"/><line style="stroke:#0F172A;stroke-width:1;" x1="509.9165" x2="509.9165" y1="893" y2="911"/><line style="stroke:#0F172A;stroke-width:1;" x1="509.9165" x2="351.7441" y1="911" y2="911"/><polygon fill="#0F172A" points="361.7441,907,351.7441,911,361.7441,915,357.7441,911" style="stroke:#0F172A;stroke-width:1;"/><line style="stroke:#0F172A;stroke-width:1;" x1="339.7441" x2="339.7441" y1="780" y2="811"/><polygon fill="#0F172A" points="335.7441,801,339.7441,811,343.7441,801,339.7441,805" style="stroke:#0F172A;stroke-width:1;"/><line style="stroke:#0F172A;stroke-width:1;" x1="339.7441" x2="339.7441" y1="923" y2="972"/><polygon fill="#0F172A" points="335.7441,962,339.7441,972,343.7441,962,339.7441,966" style="stroke:#0F172A;stroke-width:1;"/><line style="stroke:#0F172A;stroke-width:1;" x1="993.7783" x2="993.7783" y1="718" y2="753"/><polygon fill="#0F172A" points="989.7783,743,993.7783,753,997.7783,743,993.7783,747" style="stroke:#0F172A;stroke-width:1;"/><line style="stroke:#0F172A;stroke-width:1;" x1="993.7783" x2="993.7783" y1="645" y2="670"/><polygon fill="#0F172A" points="989.7783,660,993.7783,670,997.7783,660,993.7783,664" style="stroke:#0F172A;stroke-width:1;"/><line style="stroke:#0F172A;stroke-width:1;" x1="1092.0615" x2="1144.0747" y1="633" y2="633"/><polygon fill="#0F172A" points="1140.0747,709.5,1144.0747,719.5,1148.0747,709.5,1144.0747,713.5" style="stroke:#0F172A;stroke-width:1;"/><line style="stroke:#0F172A;stroke-width:1;" x1="1144.0747" x2="1144.0747" y1="633" y2="802"/><line style="stroke:#0F172A;stroke-width:1;" x1="1144.0747" x2="993.7783" y1="802" y2="802"/><line style="stroke:#0F172A;stroke-width:1;" x1="993.7783" x2="993.7783" y1="802" y2="837"/><polygon fill="#0F172A" points="989.7783,827,993.7783,837,997.7783,827,993.7783,831" style="stroke:#0F172A;stroke-width:1;"/><line style="stroke:#0F172A;stroke-width:1;" x1="993.7783" x2="993.7783" y1="934" y2="963"/><polygon fill="#0F172A" points="989.7783,953,993.7783,963,997.7783,953,993.7783,957" style="stroke:#0F172A;stroke-width:1;"/><line style="stroke:#0F172A;stroke-width:1;" x1="993.7783" x2="993.7783" y1="861" y2="886"/><polygon fill="#0F172A" points="989.7783,876,993.7783,886,997.7783,876,993.7783,880" style="stroke:#0F172A;stroke-width:1;"/><line style="stroke:#0F172A;stroke-width:1;" x1="1126.2993" x2="1150.7363" y1="849" y2="849"/><polygon fill="#0F172A" points="1146.7363,925.5,1150.7363,935.5,1154.7363,925.5,1150.7363,929.5" style="stroke:#0F172A;stroke-width:1;"/><line style="stroke:#0F172A;stroke-width:1;" x1="1150.7363" x2="1150.7363" y1="849" y2="1016"/><line style="stroke:#0F172A;stroke-width:1;" x1="1150.7363" x2="993.7783" y1="1016" y2="1016"/><line style="stroke:#0F172A;stroke-width:1;" x1="993.7783" x2="993.7783" y1="1016" y2="1072"/><polygon fill="#0F172A" points="989.7783,1062,993.7783,1072,997.7783,1062,993.7783,1066" style="stroke:#0F172A;stroke-width:1;"/><line style="stroke:#0F172A;stroke-width:1;" x1="993.7783" x2="993.7783" y1="1237" y2="1258.5"/><polygon fill="#0F172A" points="989.7783,1248.5,993.7783,1258.5,997.7783,1248.5,993.7783,1252.5" style="stroke:#0F172A;stroke-width:1;"/><line style="stroke:#0F172A;stroke-width:1;" x1="993.7783" x2="993.7783" y1="1164" y2="1189"/><polygon fill="#0F172A" points="989.7783,1179,993.7783,1189,997.7783,1179,993.7783,1183" style="stroke:#0F172A;stroke-width:1;"/><line style="stroke:#0F172A;stroke-width:1;" x1="1131.3613" x2="1155.002" y1="1152" y2="1152"/><polygon fill="#0F172A" points="1151.002,1228.5,1155.002,1238.5,1159.002,1228.5,1155.002,1232.5" style="stroke:#0F172A;stroke-width:1;"/><line style="stroke:#0F172A;stroke-width:1;" x1="1155.002" x2="1155.002" y1="1152" y2="1302.5"/><line style="stroke:#0F172A;stroke-width:1;" x1="1155.002" x2="993.7783" y1="1302.5" y2="1302.5"/><line style="stroke:#0F172A;stroke-width:1;" x1="993.7783" x2="993.7783" y1="1302.5" y2="1322.5"/><polygon fill="#0F172A" points="989.7783,1312.5,993.7783,1322.5,997.7783,1312.5,993.7783,1316.5" style="stroke:#0F172A;stroke-width:1;"/><line style="stroke:#0F172A;stroke-width:1;" x1="993.7783" x2="993.7783" y1="1120" y2="1140"/><polygon fill="#0F172A" points="989.7783,1130,993.7783,1140,997.7783,1130,993.7783,1134" style="stroke:#0F172A;stroke-width:1;"/><line style="stroke:#0F172A;stroke-width:1;" x1="871.3506" x2="854.5117" y1="1334.5" y2="1334.5"/><line style="stroke:#0F172A;stroke-width:1;" x1="854.5117" x2="854.5117" y1="1334.5" y2="1356.5"/><polygon fill="#0F172A" points="850.5117,1346.5,854.5117,1356.5,858.5117,1346.5,854.5117,1350.5" style="stroke:#0F172A;stroke-width:1;"/><line style="stroke:#0F172A;stroke-width:1;" x1="1116.2061" x2="1133.0449" y1="1334.5" y2="1334.5"/><line style="stroke:#0F172A;stroke-width:1;" x1="1133.0449" x2="1133.0449" y1="1334.5" y2="1356.5"/><polygon fill="#0F172A" points="1129.0449,1346.5,1133.0449,1356.5,1137.0449,1346.5,1133.0449,1350.5" style="stroke:#0F172A;stroke-width:1;"/><line style="stroke:#0F172A;stroke-width:1;" x1="854.5117" x2="854.5117" y1="1404.5" y2="1422.5"/><line style="stroke:#0F172A;stroke-width:1;" x1="854.5117" x2="981.7783" y1="1422.5" y2="1422.5"/><polygon fill="#0F172A" points="971.7783,1418.5,981.7783,1422.5,971.7783,1426.5,975.7783,1422.5" style="stroke:#0F172A;stroke-width:1;"/><line style="stroke:#0F172A;stroke-width:1;" x1="1133.0449" x2="1133.0449" y1="1390.5" y2="1422.5"/><line style="stroke:#0F172A;stroke-width:1;" x1="1133.0449" x2="1005.7783" y1="1422.5" y2="1422.5"/><polygon fill="#0F172A" points="1015.7783,1418.5,1005.7783,1422.5,1015.7783,1426.5,1011.7783,1422.5" style="stroke:#0F172A;stroke-width:1;"/><line style="stroke:#0F172A;stroke-width:1;" x1="993.7783" x2="993.7783" y1="1434.5" y2="1454.5"/><polygon fill="#0F172A" points="989.7783,1444.5,993.7783,1454.5,997.7783,1444.5,993.7783,1448.5" style="stroke:#0F172A;stroke-width:1;"/><line style="stroke:#0F172A;stroke-width:1;" x1="993.7783" x2="993.7783" y1="1572.5" y2="1592.5"/><polygon fill="#0F172A" points="989.7783,1582.5,993.7783,1592.5,997.7783,1582.5,993.7783,1586.5" style="stroke:#0F172A;stroke-width:1;"/><line style="stroke:#0F172A;stroke-width:1;" x1="993.7783" x2="993.7783" y1="1626.5" y2="1646.5"/><polygon fill="#0F172A" points="989.7783,1636.5,993.7783,1646.5,997.7783,1636.5,993.7783,1640.5" style="stroke:#0F172A;stroke-width:1;"/><line style="stroke:#0F172A;stroke-width:1;" x1="993.7783" x2="993.7783" y1="1694.5" y2="1714.5"/><polygon fill="#0F172A" points="989.7783,1704.5,993.7783,1714.5,997.7783,1704.5,993.7783,1708.5" style="stroke:#0F172A;stroke-width:1;"/><line style="stroke:#0F172A;stroke-width:1;" x1="592.585" x2="339.7441" y1="565" y2="565"/><line style="stroke:#0F172A;stroke-width:1;" x1="339.7441" x2="339.7441" y1="565" y2="621"/><polygon fill="#0F172A" points="335.7441,611,339.7441,621,343.7441,611,339.7441,615" style="stroke:#0F172A;stroke-width:1;"/><line style="stroke:#0F172A;stroke-width:1;" x1="740.9375" x2="993.7783" y1="565" y2="565"/><line style="stroke:#0F172A;stroke-width:1;" x1="993.7783" x2="993.7783" y1="565" y2="621"/><polygon fill="#0F172A" points="989.7783,611,993.7783,621,997.7783,611,993.7783,615" style="stroke:#0F172A;stroke-width:1;"/><line style="stroke:#0F172A;stroke-width:1;" x1="993.7783" x2="993.7783" y1="1748.5" y2="1765.5"/><line style="stroke:#0F172A;stroke-width:1;" x1="993.7783" x2="666.7612" y1="1765.5" y2="1765.5"/><line style="stroke:#0F172A;stroke-width:1;" x1="666.7612" x2="666.7612" y1="1765.5" y2="1974.5"/><polygon fill="#0F172A" points="662.7612,1964.5,666.7612,1974.5,670.7612,1964.5,666.7612,1968.5" style="stroke:#0F172A;stroke-width:1;"/><line style="stroke:#0F172A;stroke-width:1;" x1="666.7612" x2="666.7612" y1="521" y2="553"/><polygon fill="#0F172A" points="662.7612,543,666.7612,553,670.7612,543,666.7612,547" style="stroke:#0F172A;stroke-width:1;"/><?plantuml-src dLVRRjiu47tNLn3PbnQmawPDBskZMAHEsWOecY19snS30IsER6uaKYKfUxsB_liUNYJBbors5m4IIHmEPywSEPpOHwbgRdZ5x88BlP9gpWfUMifijpBZ-UFSw4Q9YIwrORyKENv4pq9GmPlIlTVAVUOLiOzKBid9d1-skPD_4ZizworoO_GgUNzMdBv-tj-fjADtUp4KnMlnQjTA6q4cMSpENhvuzkkEXJy-hRzuSNRwycLlFRZFjL5asEchp4bN4ZlFdLnAjsP3LjllvSaDVasqAkIyCTn9hVfPjBP_PUm0QcyANkH-fHzbofQnOXDPzqr8NcabzfAdv_IcUDOpw7iy5MSatcmMtnzmR1qtRjUUEl-TtOplUFsHXQqP4WO-I9yTNSyicIKnhWHx9vKuGlgZEs_52gC3iGm9LfHwDLNnvGIXpO6OFOdlGqEvLhaiQTXYU6oNyt4skYKkG1qhlOizx9cjAHymPm0G2NXtt3Ls448HL98Z9fKZvSQPBDYJe_jeo90G_L6NCfUENK-kc1ImyOMh3Lay_dRqbBa5AVPaJVPfDlf0ph-pl346os4FB7LZSc9BoQSA5dlHZJD28x4dIZ_rYLXT1fHmjBJEDzgM6xT0XUUBgVg4rVrC6njQKvQEZ9sgN5U-11MYUP1Yu0lg27XD3E4X1BiVP5pSzxtogIeDwyRo6KXVSPSZ4cd1Ih0EVczmAk8AZarC9S2O1vTY2qLiL4wpM0o0e8GiG9nGWOjO5KFV6xBOk8DqZrRHCf0fRQgvMm07iYn-E928T0ZREmzyGTBiK64G-3_1ZBWlBZzTtbzUiDmlc2gLSZI9hv5NtlH_U6-0JvaAm_C5eP3fjF4MF7b9N3Lru74X5IyXc0Pxy1c4iasUqnvqO5Ybbx7qcpsy05_QNl2aYS5lKHEzkcQpKeVMY26s0Q32dIyFx5O0lTfQf-kUoruPFyc2yZNyiKd9hPK5RWM_uWiRKlPe1FQYLP6YC-j0GKjkFy50caYUXa1R24P2i-9IMNYOgflRwwzNTrVNdwy-VnYmBpSNv_VXAG2Dft4ADaI-6u5bkd4MH8uvMikWOtDoTZyMrnZbkxbHoRHeIjRfc6yIt7OHpgdgbPoTJ-wllbvkXV6ZZvYNl7Ke_OMHXMCVyLYY-KChJ4BV4olbCgOU0-TpdtziJrdLsZWlXuMaKY0JK_2S4iFUQyZ1KD4gT2_O2HKCOYJ2OG8yoTqXSlsExybeHeKsyVYgSP7QXQTAwpiTRTcsJEr3VzVKCTZWoDVzvs6SrtMvPbzgSL37jCAY3oGvwy8GqjObNpye32VRr7-KTG1DwQ6kDzbugMdPFRfjyC7e9MXXs8BAsl_H-j7BS92_jwveXVOuQknjUXrCLM_j6vUOVymtRHuJbxz1i2un-vYso5CLDVIj8_HgA6tk8texkRqyzpenHLkAdJCZ7ksPC8dztZU9mjAQHCL7tbCLf3vUBO1g2FYN5FF7FKLvuyYEExgtJU4nzgX5AdUVsqlenkZ0baw8urMm8sUr1lNMNbKSo3iCdJ9CeekH8EOmJcsFTjUf2XPm8E012q249sXS1R_-POncYdKBNFCp7pDold1PcaFIw37A_jCealK66fzvShRfzsxsGvAP7qjaIBCZpd0MHu_9xPUB0Lk12ODe6g0PrX4opptXyIWjc6ReE0F3dT5b2GzGQ5vk3ce3Pro8hCHz0mFz2D56EHs684jWfuimIyA7Y6YsI5IBOvAkAJHl1TTpNjlZZ1l8b5lNXEaFt1ZXaiD476vvF-X9j7Z55P-JoV8kECjwEHy4o5CgynTqUvhn5SS_2te5ztOXw-Ci-H-5KJkpPJEFZ_dMm8rvMupsXy5Du2CsRqCUxeOSyJxfQ3ZQiFGa-oaLitJlZFuD3RDEC49Js56Qb5Z_UXh7lPIrjzIulQdRoogpdK06OHnjIHaY2dsMz3Ye5yBhP3ZsjCssLJXmXKMkZ9ZDUL7eKZnud1_smKuJ9piuS6Rj1OByb5QK1JPv6gNtk-ITLK0MgVAWqMDWZYIy3e4FFHOD0uam8dJaYEYb33sebVPX7ViU3__G_Gq0?></g></svg>