<?plantuml 1.2026.1?><svg xmlns="http://www.w3.org/2000/svg" xmlns:xlink="http://www.w3.org/1999/xlink" contentStyleType="text/css" data-diagram-type="ACTIVITY" height="2277px" preserveAspectRatio="none" style="width:1278px;height:2277px;background:#FCFCFD;" version="1.1" viewBox="0 0 1278 2277" width="1278px" zoomAndPan="magnify"><title>Activity - database/AutonomousDatabaseDataguardAssociation</title><defs/><g><rect fill="#FCFCFD" height="2277" style="stroke:none;stroke-width:1;" width="1278" x="0" y="0"/><g class="title" data-source-line="10"><text fill="#000000" font-family="Helvetica" font-size="14" font-weight="bold" lengthAdjust="spacing" textLength="424.7578" x="425.1914" y="30.7803">Activity - database/AutonomousDatabaseDataguardAssociation</text></g><ellipse cx="675.2335" cy="55" fill="#1D4ED8" rx="10" ry="10" style="stroke:#222222;stroke-width:1;"/><rect fill="none" height="472" rx="8" ry="8" style="stroke:#000000;stroke-width:1.5;" width="715.6035" x="322.2955" y="75"/><path d="M444.3639,75 L444.3639,82 L434.3639,92 L322.2955,92" fill="none" style="stroke:#000000;stroke-width:1.5;"/><text fill="#000000" font-family="Helvetica" font-size="14" lengthAdjust="spacing" textLength="112.0684" x="325.2955" y="86.7803">Observe and Bind</text><rect fill="#F8FAFC" height="48" rx="8" ry="8" style="stroke:#0F172A;stroke-width:0.5;" width="304.7852" x="522.8409" y="109"/><text fill="#0F172A" font-family="Helvetica" font-size="14" lengthAdjust="spacing" textLength="136.9375" x="532.8409" y="129.7803">Start from shared flow</text><text fill="#0F172A" font-family="Helvetica" font-size="14" lengthAdjust="spacing" textLength="284.7852" x="532.8409" y="143.7803">shared/diagrams/shared-reconcile-activity.svg</text><rect fill="#F8FAFC" height="62" rx="8" ry="8" style="stroke:#0F172A;stroke-width:0.5;" width="332.8604" x="508.8033" y="177"/><text fill="#0F172A" font-family="Helvetica" font-size="14" lengthAdjust="spacing" textLength="83.2754" x="518.8033" y="197.7803">Read desired</text><text fill="#0F172A" font-family="Helvetica" font-size="14" lengthAdjust="spacing" textLength="312.8604" x="518.8033" y="211.7803">AutonomousDatabaseDataguardAssociation spec,</text><text fill="#0F172A" font-family="Helvetica" font-size="14" lengthAdjust="spacing" textLength="198.4609" x="518.8033" y="225.7803">tracked status, and delete intent</text><polygon fill="#E2E8F0" points="545.7677,259,804.6993,259,816.6993,271,804.6993,283,545.7677,283,533.7677,271,545.7677,259" style="stroke:#1D4ED8;stroke-width:0.5;"/><text fill="#0F172A" font-family="Helvetica" font-size="14" lengthAdjust="spacing" textLength="258.9316" x="545.7677" y="274.7803">"Tracked or explicit OCI identity present?"</text><text fill="#000000" font-family="Helvetica" font-size="14" lengthAdjust="spacing" textLength="21.7861" x="511.9816" y="267.7803">yes</text><text fill="#000000" font-family="Helvetica" font-size="14" lengthAdjust="spacing" textLength="15.5723" x="816.6993" y="267.7803">no</text><rect fill="#F8FAFC" height="48" rx="8" ry="8" style="stroke:#0F172A;stroke-width:0.5;" width="318.0742" x="342.2955" y="293"/><text fill="#0F172A" font-family="Helvetica" font-size="14" lengthAdjust="spacing" textLength="202.3027" x="352.2955" y="313.7803">Get the current OCI resource via</text><text fill="#0F172A" font-family="Helvetica" font-size="14" lengthAdjust="spacing" textLength="298.0742" x="352.2955" y="327.7803">GetAutonomousDatabaseDataguardAssociation</text><rect fill="#F8FAFC" height="62" rx="8" ry="8" style="stroke:#0F172A;stroke-width:0.5;" width="317.2949" x="690.4869" y="293"/><text fill="#0F172A" font-family="Helvetica" font-size="14" lengthAdjust="spacing" textLength="259.9092" x="700.4869" y="313.7803">Resolve an existing OCI resource through</text><text fill="#0F172A" font-family="Helvetica" font-size="14" lengthAdjust="spacing" textLength="297.2949" x="700.4869" y="327.7803">ListAutonomousDatabaseDataguardAssociation</text><text fill="#0F172A" font-family="Helvetica" font-size="14" lengthAdjust="spacing" textLength="213.2061" x="700.4869" y="341.7803">using filters compartment_id, state</text><rect fill="#F8FAFC" height="62" rx="8" ry="8" style="stroke:#0F172A;stroke-width:0.5;" width="337.5293" x="680.3698" y="375"/><text fill="#0F172A" font-family="Helvetica" font-size="14" lengthAdjust="spacing" textLength="174.2959" x="690.3698" y="395.7803">Create the OCI resource via</text><text fill="#0F172A" font-family="Helvetica" font-size="14" lengthAdjust="spacing" textLength="317.5293" x="690.3698" y="409.7803">CreateAutonomousDatabaseDataguardAssociation</text><text fill="#0F172A" font-family="Helvetica" font-size="14" lengthAdjust="spacing" textLength="205.4609" x="690.3698" y="423.7803">when no reusable match is found</text><rect fill="#F8FAFC" height="48" rx="8" ry="8" style="stroke:#0F172A;stroke-width:0.5;" width="286.8955" x="705.6866" y="457"/><text fill="#0F172A" font-family="Helvetica" font-size="14" lengthAdjust="spacing" textLength="266.8955" x="715.6866" y="477.7803">Persist the resolved or created OCI identity</text><text fill="#0F172A" font-family="Helvetica" font-size="14" lengthAdjust="spacing" textLength="63.8135" x="715.6866" y="491.7803">into status</text><polygon fill="#E2E8F0" points="675.2335,511,687.2335,523,675.2335,535,663.2335,523,675.2335,511" style="stroke:#1D4ED8;stroke-width:0.5;"/><polygon fill="#E2E8F0" points="613.0573,567,737.4098,567,749.4098,579,737.4098,591,613.0573,591,601.0573,579,613.0573,567" style="stroke:#1D4ED8;stroke-width:0.5;"/><text fill="#0F172A" font-family="Helvetica" font-size="14" lengthAdjust="spacing" textLength="124.3525" x="613.0573" y="582.7803">"Delete requested?"</text><text fill="#000000" font-family="Helvetica" font-size="14" lengthAdjust="spacing" textLength="21.7861" x="579.2711" y="575.7803">yes</text><text fill="#000000" font-family="Helvetica" font-size="14" lengthAdjust="spacing" textLength="15.5723" x="749.4098" y="575.7803">no</text><rect fill="none" height="408" rx="8" ry="8" style="stroke:#000000;stroke-width:1.5;" width="644.4814" x="11" y="601"/><path d="M61.4688,601 L61.4688,608 L51.4688,618 L11,618" fill="none" style="stroke:#000000;stroke-width:1.5;"/><text fill="#000000" font-family="Helvetica" font-size="14" lengthAdjust="spacing" textLength="40.4688" x="14" y="612.7803">Delete</text><rect fill="#F8FAFC" height="104" rx="8" ry="8" style="stroke:#0F172A;stroke-width:0.5;" width="335.9775" x="171.7554" y="635"/><text fill="#0F172A" font-family="Helvetica" font-size="14" lengthAdjust="spacing" textLength="105.0684" x="181.7554" y="655.7803">Delete path uses</text><text fill="#0F172A" font-family="Helvetica" font-size="14" lengthAdjust="spacing" textLength="315.9775" x="181.7554" y="669.7803">DeleteAutonomousDatabaseDataguardAssociation</text><text fill="#0F172A" font-family="Helvetica" font-size="14" lengthAdjust="spacing" textLength="101.9375" x="181.7554" y="683.7803">with required via</text><text fill="#0F172A" font-family="Helvetica" font-size="14" lengthAdjust="spacing" textLength="314.4121" x="181.7554" y="697.7803">GetAutonomousDatabaseDataguardAssociation or</text><text fill="#0F172A" font-family="Helvetica" font-size="14" lengthAdjust="spacing" textLength="312.8604" x="181.7554" y="711.7803">ListAutonomousDatabaseDataguardAssociation to</text><text fill="#0F172A" font-family="Helvetica" font-size="14" lengthAdjust="spacing" textLength="144.7168" x="181.7554" y="725.7803">DELETED confirmation</text><rect fill="#F8FAFC" height="76" rx="8" ry="8" style="stroke:#0F172A;stroke-width:0.5;" width="334.4121" x="172.5381" y="766"/><text fill="#0F172A" font-family="Helvetica" font-size="14" lengthAdjust="spacing" textLength="123.7236" x="182.5381" y="786.7803">Confirm deletion via</text><text fill="#0F172A" font-family="Helvetica" font-size="14" lengthAdjust="spacing" textLength="314.4121" x="182.5381" y="800.7803">GetAutonomousDatabaseDataguardAssociation or</text><text fill="#0F172A" font-family="Helvetica" font-size="14" lengthAdjust="spacing" textLength="297.2949" x="182.5381" y="814.7803">ListAutonomousDatabaseDataguardAssociation</text><text fill="#0F172A" font-family="Helvetica" font-size="14" lengthAdjust="spacing" textLength="176.6201" x="182.5381" y="828.7803">until OCI reaches DELETED</text><polygon fill="#E2E8F0" points="191.5718,877,487.9165,877,499.9165,889,487.9165,901,191.5718,901,179.5718,889,191.5718,877" style="stroke:#1D4ED8;stroke-width:0.5;"/><text fill="#0F172A" font-family="Helvetica" font-size="14" lengthAdjust="spacing" textLength="296.3447" x="191.5718" y="892.7803">"Delete cleanup and finalizer release succeed?"</text><text fill="#000000" font-family="Helvetica" font-size="14" lengthAdjust="spacing" textLength="21.7861" x="157.7856" y="885.7803">yes</text><text fill="#000000" font-family="Helvetica" font-size="14" lengthAdjust="spacing" textLength="15.5723" x="499.9165" y="885.7803">no</text><rect fill="#F8FAFC" height="34" rx="8" ry="8" style="stroke:#0F172A;stroke-width:0.5;" width="293.1436" x="23" y="911"/><text fill="#0F172A" font-family="Helvetica" font-size="14" lengthAdjust="spacing" textLength="273.1436" x="33" y="931.7803">Remove the finalizer after delete completion</text><rect fill="#F8FAFC" height="48" rx="8" ry="8" style="stroke:#0F172A;stroke-width:0.5;" width="251.1299" x="384.3516" y="911"/><text fill="#0F172A" font-family="Helvetica" font-size="14" lengthAdjust="spacing" textLength="231.1299" x="394.3516" y="931.7803">Stay blocked until cleanup or finalizer</text><text fill="#0F172A" font-family="Helvetica" font-size="14" lengthAdjust="spacing" textLength="108.9512" x="394.3516" y="945.7803">release succeeds</text><polygon fill="#E2E8F0" points="339.7441,965,351.7441,977,339.7441,989,327.7441,977,339.7441,965" style="stroke:#1D4ED8;stroke-width:0.5;"/><ellipse cx="339.7441" cy="1054" fill="none" rx="11" ry="11" style="stroke:#222222;stroke-width:1;"/><ellipse cx="339.7441" cy="1054" fill="#222222" rx="6" ry="6" style="stroke:#222222;stroke-width:1;"/><rect fill="none" height="450" rx="8" ry="8" style="stroke:#000000;stroke-width:1.5;" width="345.916" x="843.7649" y="601"/><path d="M994.5989,601 L994.5989,608 L984.5989,618 L843.7649,618" fill="none" style="stroke:#000000;stroke-width:1.5;"/><text fill="#000000" font-family="Helvetica" font-size="14" lengthAdjust="spacing" textLength="140.834" x="846.7649" y="612.7803">Lifecycle Classification</text><rect fill="#F8FAFC" height="48" rx="8" ry="8" style="stroke:#0F172A;stroke-width:0.5;" width="280.5928" x="870.4265" y="684"/><text fill="#0F172A" font-family="Helvetica" font-size="14" lengthAdjust="spacing" textLength="240.4541" x="880.4265" y="704.7803">Request requeue while OCI remains in</text><text fill="#0F172A" font-family="Helvetica" font-size="14" lengthAdjust="spacing" textLength="260.5928" x="880.4265" y="718.7803">PROVISIONING, UPDATING, DELETING</text><ellipse cx="1010.7229" cy="770" fill="none" rx="11" ry="11" style="stroke:#222222;stroke-width:1;"/><ellipse cx="1010.7229" cy="770" fill="#222222" rx="6" ry="6" style="stroke:#222222;stroke-width:1;"/><polygon fill="#E2E8F0" points="924.4397,635,1097.0061,635,1109.0061,647,1097.0061,659,924.4397,659,912.4397,647,924.4397,635" style="stroke:#1D4ED8;stroke-width:0.5;"/><text fill="#000000" font-family="Helvetica" font-size="14" lengthAdjust="spacing" textLength="21.7861" x="1014.7229" y="669.7803">yes</text><text fill="#0F172A" font-family="Helvetica" font-size="14" lengthAdjust="spacing" textLength="172.5664" x="924.4397" y="650.7803">"OCI state in retryable set?"</text><rect fill="#F8FAFC" height="48" rx="8" ry="8" style="stroke:#0F172A;stroke-width:0.5;" width="293.916" x="863.7649" y="896"/><text fill="#0F172A" font-family="Helvetica" font-size="14" lengthAdjust="spacing" textLength="273.916" x="873.7649" y="916.7803">Return an unsuccessful reconcile result until</text><text fill="#0F172A" font-family="Helvetica" font-size="14" lengthAdjust="spacing" textLength="133.041" x="873.7649" y="930.7803">OCI reaches ACTIVE</text><ellipse cx="1010.7229" cy="990" fill="none" rx="11" ry="11" style="stroke:#222222;stroke-width:1;"/><ellipse cx="1010.7229" cy="990" fill="#222222" rx="6" ry="6" style="stroke:#222222;stroke-width:1;"/><polygon fill="#E2E8F0" points="890.2019,847,1131.2439,847,1143.2439,859,1131.2439,871,890.2019,871,878.2019,859,890.2019,847" style="stroke:#1D4ED8;stroke-width:0.5;"/><text fill="#000000" font-family="Helvetica" font-size="14" lengthAdjust="spacing" textLength="21.7861" x="1014.7229" y="881.7803">yes</text><text fill="#0F172A" font-family="Helvetica" font-size="14" lengthAdjust="spacing" textLength="241.042" x="890.2019" y="862.7803">"OCI state is outside success targets?"</text><rect fill="none" height="736.5" rx="8" ry="8" style="stroke:#000000;stroke-width:1.5;" width="591.6592" x="675.4814" y="1075"/><path d="M841.9014,1075 L841.9014,1082 L831.9014,1092 L675.4814,1092" fill="none" style="stroke:#000000;stroke-width:1.5;"/><text fill="#000000" font-family="Helvetica" font-size="14" lengthAdjust="spacing" textLength="156.4199" x="678.4814" y="1086.7803">Ready and Drift Handling</text><rect fill="#F8FAFC" height="48" rx="8" ry="8" style="stroke:#0F172A;stroke-width:0.5;" width="296.2402" x="862.6028" y="1109"/><text fill="#0F172A" font-family="Helvetica" font-size="14" lengthAdjust="spacing" textLength="276.2402" x="872.6028" y="1129.7803">Compare live OCI state against the imported</text><text fill="#0F172A" font-family="Helvetica" font-size="14" lengthAdjust="spacing" textLength="75.4824" x="872.6028" y="1143.7803">field surface</text><rect fill="#F8FAFC" height="48" rx="8" ry="8" style="stroke:#0F172A;stroke-width:0.5;" width="302.4473" x="859.4993" y="1226"/><text fill="#0F172A" font-family="Helvetica" font-size="14" lengthAdjust="spacing" textLength="282.4473" x="869.4993" y="1246.7803">Reject drift before OCI mutation for force-new</text><text fill="#0F172A" font-family="Helvetica" font-size="14" lengthAdjust="spacing" textLength="136.9512" x="869.4993" y="1260.7803">fields compartment_id</text><ellipse cx="1010.7229" cy="1306.5" fill="none" rx="11" ry="11" style="stroke:#222222;stroke-width:1;"/><ellipse cx="1010.7229" cy="1306.5" fill="#222222" rx="6" ry="6" style="stroke:#222222;stroke-width:1;"/><polygon fill="#E2E8F0" points="885.1399,1177,1136.3059,1177,1148.3059,1189,1136.3059,1201,885.1399,1201,873.1399,1189,885.1399,1177" style="stroke:#1D4ED8;stroke-width:0.5;"/><text fill="#000000" font-family="Helvetica" font-size="14" lengthAdjust="spacing" textLength="21.7861" x="1014.7229" y="1211.7803">yes</text><text fill="#0F172A" font-family="Helvetica" font-size="14" lengthAdjust="spacing" textLength="251.166" x="885.1399" y="1192.7803">"Force-new or conflicting drift detected?"</text><polygon fill="#E2E8F0" points="900.2952,1359.5,1121.1506,1359.5,1133.1506,1371.5,1121.1506,1383.5,900.2952,1383.5,888.2952,1371.5,900.2952,1359.5" style="stroke:#1D4ED8;stroke-width:0.5;"/><text fill="#0F172A" font-family="Helvetica" font-size="14" lengthAdjust="spacing" textLength="220.8555" x="900.2952" y="1375.2803">"Supported mutable drift detected?"</text><text fill="#000000" font-family="Helvetica" font-size="14" lengthAdjust="spacing" textLength="21.7861" x="866.509" y="1368.2803">yes</text><text fill="#000000" font-family="Helvetica" font-size="14" lengthAdjust="spacing" textLength="15.5723" x="1133.1506" y="1368.2803">no</text><rect fill="#F8FAFC" height="62" rx="8" ry="8" style="stroke:#0F172A;stroke-width:0.5;" width="340.6533" x="695.4814" y="1393.5"/><text fill="#0F172A" font-family="Helvetica" font-size="14" lengthAdjust="spacing" textLength="35.0205" x="705.4814" y="1414.2803">Apply</text><text fill="#0F172A" font-family="Helvetica" font-size="14" lengthAdjust="spacing" textLength="320.6533" x="705.4814" y="1428.2803">UpdateAutonomousDatabaseDataguardAssociation</text><text fill="#0F172A" font-family="Helvetica" font-size="14" lengthAdjust="spacing" textLength="226.4541" x="705.4814" y="1442.2803">only for mutable fields display_name</text><rect fill="#F8FAFC" height="34" rx="8" ry="8" style="stroke:#0F172A;stroke-width:0.5;" width="199.0059" x="1056.1348" y="1393.5"/><text fill="#0F172A" font-family="Helvetica" font-size="14" lengthAdjust="spacing" textLength="179.0059" x="1066.1348" y="1414.2803">Skip the no-op mutation path</text><polygon fill="#E2E8F0" points="1010.7229,1461.5,1022.7229,1473.5,1010.7229,1485.5,998.7229,1473.5,1010.7229,1461.5" style="stroke:#1D4ED8;stroke-width:0.5;"/><rect fill="#F8FAFC" height="118" rx="8" ry="8" style="stroke:#0F172A;stroke-width:0.5;" width="334.3164" x="843.5647" y="1505.5"/><text fill="#0F172A" font-family="Helvetica" font-size="14" lengthAdjust="spacing" textLength="164.2061" x="853.5647" y="1526.2803">Run provider helper hooks</text><text fill="#0F172A" font-family="Helvetica" font-size="14" lengthAdjust="spacing" textLength="219.0508" x="853.5647" y="1540.2803">create=tfresource.CreateResource,</text><text fill="#0F172A" font-family="Helvetica" font-size="14" lengthAdjust="spacing" textLength="314.3164" x="853.5647" y="1554.2803">tfresource.WaitForWorkRequestWithErrorHandling</text><text fill="#0F172A" font-family="Helvetica" font-size="14" lengthAdjust="spacing" textLength="215.5439" x="853.5647" y="1568.2803">entity=template action=CREATED;</text><text fill="#0F172A" font-family="Helvetica" font-size="14" lengthAdjust="spacing" textLength="226.085" x="853.5647" y="1582.2803">update=tfresource.UpdateResource;</text><text fill="#0F172A" font-family="Helvetica" font-size="14" lengthAdjust="spacing" textLength="273.5537" x="853.5647" y="1596.2803">delete=tfresource.DeleteResource when the</text><text fill="#0F172A" font-family="Helvetica" font-size="14" lengthAdjust="spacing" textLength="220.2334" x="853.5647" y="1610.2803">matching field-driven path executes</text><rect fill="#F8FAFC" height="34" rx="8" ry="8" style="stroke:#0F172A;stroke-width:0.5;" width="303.2197" x="859.113" y="1643.5"/><text fill="#0F172A" font-family="Helvetica" font-size="14" lengthAdjust="spacing" textLength="283.2197" x="869.113" y="1664.2803">Return success for the ACTIVE success state</text><rect fill="#F8FAFC" height="48" rx="8" ry="8" style="stroke:#0F172A;stroke-width:0.5;" width="279.1299" x="871.158" y="1697.5"/><text fill="#0F172A" font-family="Helvetica" font-size="14" lengthAdjust="spacing" textLength="259.1299" x="881.158" y="1718.2803">Project required status and finalizer policy</text><text fill="#0F172A" font-family="Helvetica" font-size="14" lengthAdjust="spacing" textLength="174.3027" x="881.158" y="1732.2803">retain-until-confirmed-delete</text><rect fill="#F8FAFC" height="34" rx="8" ry="8" style="stroke:#0F172A;stroke-width:0.5;" width="313.4189" x="854.0134" y="1765.5"/><text fill="#0F172A" font-family="Helvetica" font-size="14" lengthAdjust="spacing" textLength="293.4189" x="864.0134" y="1786.2803">Requeue on provisioning, updating, terminating</text><path d="M706.2335,1821.5 L706.2335,2039.5 L686.2335,2043.5 L706.2335,2047.5 L706.2335,2265.5 A0,0 0 0 0 706.2335,2265.5 L1116.4171,2265.5 A0,0 0 0 0 1116.4171,2265.5 L1116.4171,1831.5 L1106.4171,1821.5 L706.2335,1821.5 A0,0 0 0 0 706.2335,1821.5" fill="#FFF7D6" style="stroke:#B45309;stroke-width:0.5;"/><path d="M1106.4171,1821.5 L1106.4171,1831.5 L1116.4171,1831.5 L1106.4171,1821.5" fill="#FFF7D6" style="stroke:#B45309;stroke-width:0.5;"/><text fill="#334155" font-family="Helvetica" font-size="14" lengthAdjust="spacing" textLength="101.165" x="712.2335" y="1837.2803">shared diagram:</text><text fill="#334155" font-family="Helvetica" font-size="14" lengthAdjust="spacing" textLength="284.7852" x="712.2335" y="1851.2803">shared/diagrams/shared-reconcile-activity.svg</text><text fill="#334155" font-family="Helvetica" font-size="14" lengthAdjust="spacing" textLength="265.3438" x="712.2335" y="1865.2803">Start from the shared reconcile activity and</text><text fill="#334155" font-family="Helvetica" font-size="14" lengthAdjust="spacing" textLength="273.8955" x="712.2335" y="1879.2803">specialize provider-backed CRUD, wait, and</text><text fill="#334155" font-family="Helvetica" font-size="14" lengthAdjust="spacing" textLength="182.875" x="712.2335" y="1893.2803">status-projection details here.</text><text fill="#334155" font-family="Helvetica" font-size="14" lengthAdjust="spacing" textLength="229.5371" x="712.2335" y="1907.2803">Controller-local activity diagrams add</text><text fill="#334155" font-family="Helvetica" font-size="14" lengthAdjust="spacing" textLength="238.8955" x="712.2335" y="1921.2803">list-lookup hints, secret policies, delete</text><text fill="#334155" font-family="Helvetica" font-size="14" lengthAdjust="spacing" textLength="200.0332" x="712.2335" y="1935.2803">handling, and open formal gaps.</text><text fill="#334155" font-family="Helvetica" font-size="14" lengthAdjust="spacing" textLength="281.709" x="712.2335" y="1949.2803">archetype batch: Generated service-manager</text><text fill="#334155" font-family="Helvetica" font-size="14" lengthAdjust="spacing" textLength="291.0469" x="712.2335" y="1963.2803">controllers specialize the shared reconcile path</text><text fill="#334155" font-family="Helvetica" font-size="14" lengthAdjust="spacing" textLength="189.8477" x="712.2335" y="1977.2803">with formal runtime ownership.</text><text fill="#334155" font-family="Helvetica" font-size="14" lengthAdjust="spacing" textLength="109.7305" x="712.2335" y="1991.2803">service: database</text><text fill="#334155" font-family="Helvetica" font-size="14" lengthAdjust="spacing" textLength="301.2188" x="712.2335" y="2005.2803">slug: autonomousdatabasedataguardassociation</text><text fill="#334155" font-family="Helvetica" font-size="14" lengthAdjust="spacing" textLength="308.9707" x="712.2335" y="2019.2803">kind: AutonomousDatabaseDataguardAssociation</text><text fill="#334155" font-family="Helvetica" font-size="14" lengthAdjust="spacing" textLength="241.2402" x="712.2335" y="2033.2803">archetype: generated-service-manager</text><text fill="#334155" font-family="Helvetica" font-size="14" lengthAdjust="spacing" textLength="156.4063" x="712.2335" y="2047.2803">status/finalizer: required /</text><text fill="#334155" font-family="Helvetica" font-size="14" lengthAdjust="spacing" textLength="174.3027" x="712.2335" y="2061.2803">retain-until-confirmed-delete</text><text fill="#334155" font-family="Helvetica" font-size="14" lengthAdjust="spacing" textLength="272.3984" x="712.2335" y="2075.2803">requeue: provisioning, updating, terminating</text><text fill="#334155" font-family="Helvetica" font-size="14" lengthAdjust="spacing" textLength="295.6816" x="712.2335" y="2089.2803">provider states: create PROVISIONING; update</text><text fill="#334155" font-family="Helvetica" font-size="14" lengthAdjust="spacing" textLength="192.165" x="712.2335" y="2103.2803">UPDATING; delete DELETING</text><text fill="#334155" font-family="Helvetica" font-size="14" lengthAdjust="spacing" textLength="183.6611" x="712.2335" y="2117.2803">supported drift: display_name</text><text fill="#334155" font-family="Helvetica" font-size="14" lengthAdjust="spacing" textLength="230.3301" x="712.2335" y="2131.2803">reject before mutate: force-new fields</text><text fill="#334155" font-family="Helvetica" font-size="14" lengthAdjust="spacing" textLength="100.3789" x="712.2335" y="2145.2803">compartment_id</text><text fill="#334155" font-family="Helvetica" font-size="14" lengthAdjust="spacing" textLength="66.1445" x="712.2335" y="2159.2803">list lookup:</text><text fill="#334155" font-family="Helvetica" font-size="14" lengthAdjust="spacing" textLength="389.1836" x="712.2335" y="2173.2803">scaffold_database_autonomousdatabasedataguardassociation</text><text fill="#334155" font-family="Helvetica" font-size="14" lengthAdjust="spacing" textLength="175.8477" x="712.2335" y="2187.2803">filters compartment_id, state</text><text fill="#334155" font-family="Helvetica" font-size="14" lengthAdjust="spacing" textLength="89.4961" x="712.2335" y="2201.2803">conflicts: none</text><text fill="#334155" font-family="Helvetica" font-size="14" lengthAdjust="spacing" textLength="104.3164" x="712.2335" y="2215.2803">open gaps: none</text><text fill="#334155" font-family="Helvetica" font-size="14" lengthAdjust="spacing" textLength="224.9023" x="712.2335" y="2229.2803">Scaffold metadata only; replace with</text><text fill="#334155" font-family="Helvetica" font-size="14" lengthAdjust="spacing" textLength="244.3232" x="712.2335" y="2243.2803">controller-specific runtime states before</text><text fill="#334155" font-family="Helvetica" font-size="14" lengthAdjust="spacing" textLength="66.1445" x="712.2335" y="2257.2803">promotion.</text><ellipse cx="675.2335" cy="2043.5" fill="none" rx="11" ry="11" style="stroke:#222222;stroke-width:1;"/><ellipse cx="675.2335" cy="2043.5" fill="#222222" rx="6" ry="6" style="stroke:#222222;stroke-width:1;"/><line style="stroke:#0F172A;stroke-width:1;" x1="675.2335" x2="675.2335" y1="157" y2="177"/><polygon fill="#0F172A" points="671.2335,167,675.2335,177,679.2335,167,675.2335,171" style="stroke:#0F172A;stroke-width:1;"/><line style="stroke:#0F172A;stroke-width:1;" x1="849.1344" x2="849.1344" y1="355" y2="375"/><polygon fill="#0F172A" points="845.1344,365,849.1344,375,853.1344,365,849.1344,369" style="stroke:#0F172A;stroke-width:1;"/><line style="stroke:#0F172A;stroke-width:1;" x1="849.1344" x2="849.1344" y1="437" y2="457"/><polygon fill="#0F172A" points="845.1344,447,849.1344,457,853.1344,447,849.1344,451" style="stroke:#0F172A;stroke-width:1;"/><line style="stroke:#0F172A;stroke-width:1;" x1="533.7677" x2="501.3326" y1="271" y2="271"/><line style="stroke:#0F172A;stroke-width:1;" x1="501.3326" x2="501.3326" y1="271" y2="293"/><polygon fill="#0F172A" points="497.3326,283,501.3326,293,505.3326,283,501.3326,287" style="stroke:#0F172A;stroke-width:1;"/><line style="stroke:#0F172A;stroke-width:1;" x1="816.6993" x2="849.1344" y1="271" y2="271"/><line style="stroke:#0F172A;stroke-width:1;" x1="849.1344" x2="849.1344" y1="271" y2="293"/><polygon fill="#0F172A" points="845.1344,283,849.1344,293,853.1344,283,849.1344,287" style="stroke:#0F172A;stroke-width:1;"/><line style="stroke:#0F172A;stroke-width:1;" x1="501.3326" x2="501.3326" y1="341" y2="523"/><line style="stroke:#0F172A;stroke-width:1;" x1="501.3326" x2="663.2335" y1="523" y2="523"/><polygon fill="#0F172A" points="653.2335,519,663.2335,523,653.2335,527,657.2335,523" style="stroke:#0F172A;stroke-width:1;"/><line style="stroke:#0F172A;stroke-width:1;" x1="849.1344" x2="849.1344" y1="505" y2="523"/><line style="stroke:#0F172A;stroke-width:1;" x1="849.1344" x2="687.2335" y1="523" y2="523"/><polygon fill="#0F172A" points="697.2335,519,687.2335,523,697.2335,527,693.2335,523" style="stroke:#0F172A;stroke-width:1;"/><line style="stroke:#0F172A;stroke-width:1;" x1="675.2335" x2="675.2335" y1="239" y2="259"/><polygon fill="#0F172A" points="671.2335,249,675.2335,259,679.2335,249,675.2335,253" style="stroke:#0F172A;stroke-width:1;"/><line style="stroke:#0F172A;stroke-width:1;" x1="675.2335" x2="675.2335" y1="65" y2="109"/><polygon fill="#0F172A" points="671.2335,99,675.2335,109,679.2335,99,675.2335,103" style="stroke:#0F172A;stroke-width:1;"/><line style="stroke:#0F172A;stroke-width:1;" x1="339.7441" x2="339.7441" y1="739" y2="766"/><polygon fill="#0F172A" points="335.7441,756,339.7441,766,343.7441,756,339.7441,760" style="stroke:#0F172A;stroke-width:1;"/><line style="stroke:#0F172A;stroke-width:1;" x1="179.5718" x2="169.5718" y1="889" y2="889"/><line style="stroke:#0F172A;stroke-width:1;" x1="169.5718" x2="169.5718" y1="889" y2="911"/><polygon fill="#0F172A" points="165.5718,901,169.5718,911,173.5718,901,169.5718,905" style="stroke:#0F172A;stroke-width:1;"/><line style="stroke:#0F172A;stroke-width:1;" x1="499.9165" x2="509.9165" y1="889" y2="889"/><line style="stroke:#0F172A;stroke-width:1;" x1="509.9165" x2="509.9165" y1="889" y2="911"/><polygon fill="#0F172A" points="505.9165,901,509.9165,911,513.9165,901,509.9165,905" style="stroke:#0F172A;stroke-width:1;"/><line style="stroke:#0F172A;stroke-width:1;" x1="169.5718" x2="169.5718" y1="945" y2="977"/><line style="stroke:#0F172A;stroke-width:1;" x1="169.5718" x2="327.7441" y1="977" y2="977"/><polygon fill="#0F172A" points="317.7441,973,327.7441,977,317.7441,981,321.7441,977" style="stroke:#0F172A;stroke-width:1;"/><line style="stroke:#0F172A;stroke-width:1;" x1="509.9165" x2="509.9165" y1="959" y2="977"/><line style="stroke:#0F172A;stroke-width:1;" x1="509.9165" x2="351.7441" y1="977" y2="977"/><polygon fill="#0F172A" points="361.7441,973,351.7441,977,361.7441,981,357.7441,977" style="stroke:#0F172A;stroke-width:1;"/><line style="stroke:#0F172A;stroke-width:1;" x1="339.7441" x2="339.7441" y1="842" y2="877"/><polygon fill="#0F172A" points="335.7441,867,339.7441,877,343.7441,867,339.7441,871" style="stroke:#0F172A;stroke-width:1;"/><line style="stroke:#0F172A;stroke-width:1;" x1="339.7441" x2="339.7441" y1="989" y2="1043"/><polygon fill="#0F172A" points="335.7441,1033,339.7441,1043,343.7441,1033,339.7441,1037" style="stroke:#0F172A;stroke-width:1;"/><line style="stroke:#0F172A;stroke-width:1;" x1="1010.7229" x2="1010.7229" y1="732" y2="759"/><polygon fill="#0F172A" points="1006.7229,749,1010.7229,759,1014.7229,749,1010.7229,753" style="stroke:#0F172A;stroke-width:1;"/><line style="stroke:#0F172A;stroke-width:1;" x1="1010.7229" x2="1010.7229" y1="659" y2="684"/><polygon fill="#0F172A" points="1006.7229,674,1010.7229,684,1014.7229,674,1010.7229,678" style="stroke:#0F172A;stroke-width:1;"/><line style="stroke:#0F172A;stroke-width:1;" x1="1109.0061" x2="1161.0193" y1="647" y2="647"/><polygon fill="#0F172A" points="1157.0193,723.5,1161.0193,733.5,1165.0193,723.5,1161.0193,727.5" style="stroke:#0F172A;stroke-width:1;"/><line style="stroke:#0F172A;stroke-width:1;" x1="1161.0193" x2="1161.0193" y1="647" y2="812"/><line style="stroke:#0F172A;stroke-width:1;" x1="1161.0193" x2="1010.7229" y1="812" y2="812"/><line style="stroke:#0F172A;stroke-width:1;" x1="1010.7229" x2="1010.7229" y1="812" y2="847"/><polygon fill="#0F172A" points="1006.7229,837,1010.7229,847,1014.7229,837,1010.7229,841" style="stroke:#0F172A;stroke-width:1;"/><line style="stroke:#0F172A;stroke-width:1;" x1="1010.7229" x2="1010.7229" y1="944" y2="979"/><polygon fill="#0F172A" points="1006.7229,969,1010.7229,979,1014.7229,969,1010.7229,973" style="stroke:#0F172A;stroke-width:1;"/><line style="stroke:#0F172A;stroke-width:1;" x1="1010.7229" x2="1010.7229" y1="871" y2="896"/><polygon fill="#0F172A" points="1006.7229,886,1010.7229,896,1014.7229,886,1010.7229,890" style="stroke:#0F172A;stroke-width:1;"/><line style="stroke:#0F172A;stroke-width:1;" x1="1143.2439" x2="1167.6809" y1="859" y2="859"/><polygon fill="#0F172A" points="1163.6809,935.5,1167.6809,945.5,1171.6809,935.5,1167.6809,939.5" style="stroke:#0F172A;stroke-width:1;"/><line style="stroke:#0F172A;stroke-width:1;" x1="1167.6809" x2="1167.6809" y1="859" y2="1031"/><line style="stroke:#0F172A;stroke-width:1;" x1="1167.6809" x2="1010.7229" y1="1031" y2="1031"/><line style="stroke:#0F172A;stroke-width:1;" x1="1010.7229" x2="1010.7229" y1="1031" y2="1109"/><polygon fill="#0F172A" points="1006.7229,1099,1010.7229,1109,1014.7229,1099,1010.7229,1103" style="stroke:#0F172A;stroke-width:1;"/><line style="stroke:#0F172A;stroke-width:1;" x1="1010.7229" x2="1010.7229" y1="1274" y2="1295.5"/><polygon fill="#0F172A" points="1006.7229,1285.5,1010.7229,1295.5,1014.7229,1285.5,1010.7229,1289.5" style="stroke:#0F172A;stroke-width:1;"/><line style="stroke:#0F172A;stroke-width:1;" x1="1010.7229" x2="1010.7229" y1="1201" y2="1226"/><polygon fill="#0F172A" points="1006.7229,1216,1010.7229,1226,1014.7229,1216,1010.7229,1220" style="stroke:#0F172A;stroke-width:1;"/><line style="stroke:#0F172A;stroke-width:1;" x1="1148.3059" x2="1171.9465" y1="1189" y2="1189"/><polygon fill="#0F172A" points="1167.9465,1265.5,1171.9465,1275.5,1175.9465,1265.5,1171.9465,1269.5" style="stroke:#0F172A;stroke-width:1;"/><line style="stroke:#0F172A;stroke-width:1;" x1="1171.9465" x2="1171.9465" y1="1189" y2="1339.5"/><line style="stroke:#0F172A;stroke-width:1;" x1="1171.9465" x2="1010.7229" y1="1339.5" y2="1339.5"/><line style="stroke:#0F172A;stroke-width:1;" x1="1010.7229" x2="1010.7229" y1="1339.5" y2="1359.5"/><polygon fill="#0F172A" points="1006.7229,1349.5,1010.7229,1359.5,1014.7229,1349.5,1010.7229,1353.5" style="stroke:#0F172A;stroke-width:1;"/><line style="stroke:#0F172A;stroke-width:1;" x1="1010.7229" x2="1010.7229" y1="1157" y2="1177"/><polygon fill="#0F172A" points="1006.7229,1167,1010.7229,1177,1014.7229,1167,1010.7229,1171" style="stroke:#0F172A;stroke-width:1;"/><line style="stroke:#0F172A;stroke-width:1;" x1="888.2952" x2="865.8081" y1="1371.5" y2="1371.5"/><line style="stroke:#0F172A;stroke-width:1;" x1="865.8081" x2="865.8081" y1="1371.5" y2="1393.5"/><polygon fill="#0F172A" points="861.8081,1383.5,865.8081,1393.5,869.8081,1383.5,865.8081,1387.5" style="stroke:#0F172A;stroke-width:1;"/><line style="stroke:#0F172A;stroke-width:1;" x1="1133.1506" x2="1155.6377" y1="1371.5" y2="1371.5"/><line style="stroke:#0F172A;stroke-width:1;" x1="1155.6377" x2="1155.6377" y1="1371.5" y2="1393.5"/><polygon fill="#0F172A" points="1151.6377,1383.5,1155.6377,1393.5,1159.6377,1383.5,1155.6377,1387.5" style="stroke:#0F172A;stroke-width:1;"/><line style="stroke:#0F172A;stroke-width:1;" x1="865.8081" x2="865.8081" y1="1455.5" y2="1473.5"/><line style="stroke:#0F172A;stroke-width:1;" x1="865.8081" x2="998.7229" y1="1473.5" y2="1473.5"/><polygon fill="#0F172A" points="988.7229,1469.5,998.7229,1473.5,988.7229,1477.5,992.7229,1473.5" style="stroke:#0F172A;stroke-width:1;"/><line style="stroke:#0F172A;stroke-width:1;" x1="1155.6377" x2="1155.6377" y1="1427.5" y2="1473.5"/><line style="stroke:#0F172A;stroke-width:1;" x1="1155.6377" x2="1022.7229" y1="1473.5" y2="1473.5"/><polygon fill="#0F172A" points="1032.7229,1469.5,1022.7229,1473.5,1032.7229,1477.5,1028.7229,1473.5" style="stroke:#0F172A;stroke-width:1;"/><line style="stroke:#0F172A;stroke-width:1;" x1="1010.7229" x2="1010.7229" y1="1485.5" y2="1505.5"/><polygon fill="#0F172A" points="1006.7229,1495.5,1010.7229,1505.5,1014.7229,1495.5,1010.7229,1499.5" style="stroke:#0F172A;stroke-width:1;"/><line style="stroke:#0F172A;stroke-width:1;" x1="1010.7229" x2="1010.7229" y1="1623.5" y2="1643.5"/><polygon fill="#0F172A" points="1006.7229,1633.5,1010.7229,1643.5,1014.7229,1633.5,1010.7229,1637.5" style="stroke:#0F172A;stroke-width:1;"/><line style="stroke:#0F172A;stroke-width:1;" x1="1010.7229" x2="1010.7229" y1="1677.5" y2="1697.5"/><polygon fill="#0F172A" points="1006.7229,1687.5,1010.7229,1697.5,1014.7229,1687.5,1010.7229,1691.5" style="stroke:#0F172A;stroke-width:1;"/><line style="stroke:#0F172A;stroke-width:1;" x1="1010.7229" x2="1010.7229" y1="1745.5" y2="1765.5"/><polygon fill="#0F172A" points="1006.7229,1755.5,1010.7229,1765.5,1014.7229,1755.5,1010.7229,1759.5" style="stroke:#0F172A;stroke-width:1;"/><line style="stroke:#0F172A;stroke-width:1;" x1="601.0573" x2="339.7441" y1="579" y2="579"/><line style="stroke:#0F172A;stroke-width:1;" x1="339.7441" x2="339.7441" y1="579" y2="635"/><polygon fill="#0F172A" points="335.7441,625,339.7441,635,343.7441,625,339.7441,629" style="stroke:#0F172A;stroke-width:1;"/><line style="stroke:#0F172A;stroke-width:1;" x1="749.4098" x2="1010.7229" y1="579" y2="579"/><line style="stroke:#0F172A;stroke-width:1;" x1="1010.7229" x2="1010.7229" y1="579" y2="635"/><polygon fill="#0F172A" points="1006.7229,625,1010.7229,635,1014.7229,625,1010.7229,629" style="stroke:#0F172A;stroke-width:1;"/><line style="stroke:#0F172A;stroke-width:1;" x1="1010.7229" x2="1010.7229" y1="1799.5" y2="1816.5"/><line style="stroke:#0F172A;stroke-width:1;" x1="1010.7229" x2="675.2335" y1="1816.5" y2="1816.5"/><line style="stroke:#0F172A;stroke-width:1;" x1="675.2335" x2="675.2335" y1="1816.5" y2="2032.5"/><polygon fill="#0F172A" points="671.2335,2022.5,675.2335,2032.5,679.2335,2022.5,675.2335,2026.5" style="stroke:#0F172A;stroke-width:1;"/><line style="stroke:#0F172A;stroke-width:1;" x1="675.2335" x2="675.2335" y1="535" y2="567"/><polygon fill="#0F172A" points="671.2335,557,675.2335,567,679.2335,557,675.2335,561" style="stroke:#0F172A;stroke-width:1;"/><?plantuml-src jLVRRjiu47tNLn3PbnQ8awPDBskZMBXEsWOecY19snS30IsDR6ueKajIzdeN_VSzl4YMdQ1m7XP-i4GEXtCvSsPaxuMgkU4LimjUw9LGSrPoQIcptSwCv_TpenjLJBJKXlrMvlWLFOc2Ijv8zr4hzvLNn3wJN98JENzSvaRyG-pajBV9ZT6hfFr5UVBsPV-aqeu-FB2XBDyMRtQbj2d898dPwUjNBtxVaV3Nf_rNhqvFNh_kxGVrkJQA33jvapdX9B5nxiHIk3KRi88xFkEMZiUDqqfNkh5dQSd_pnjkYh6rEXVS2QtwxhLA_itO8-5yL_8ozpjzyrCO62it9dThXU2LLiM3gD1BUbU-w0dqDPuKfrIyssn-V4InTTouNNdgz7ToCxwZzMSMZcPm6863--pWScR9B8bnLR0FGXK7S7zuuwLOQNH0dA62bLAlfYg-7CEqEI9cZ-Fxm52kLIua3TeO7jdbV9GDhuaNm9GLa9gg_JB2R4tvuLGvWxZXPbZi6diO32n8aYCcb2FbHfaesRE3soG7D-dlMefSE7OvkM2YW8nFPst8ul6FW-VCBKYnPskopxFX9tB-dUMDCTWEPo2f6vCJMme-LP3Op-HHHYX6zapfvzvdgsK8AEmHrlbYtTBj5W33V35LNx2xtmLJrTXGz48wCfRbkl8fh63tdIWEGum8yPuOmaDmww4xSNFV2rS-L4f3HsFv33LMSPSlcB20Eg2CowvW2Jm8jvdeTCX27kufjf8mLSYPJhb4k5GXIg0n9F0i9jNGNmrP7Dn9L0-hKJ8WD1sgkLkmnfATghYojti21_sL7ffFJ3USV4hocDEmxlpB-Utv6JAdIc6g19lX9Bv6O7lP_zKIm0ZPa0aRF5-GPScmqLOkSabSDNMekL8eBj4B38vW6JYtJPxJWpm1-9LUHl1jpl0IW6thriCs-hbLCM2RDPj97SeuMjWQ03XrkgPgnu0UaApJTKzb3pDVH4dv6lhOH79hHOc6vtSyYeBBFXYXVa0hSD6PTO2x9VVGmO3GYDI6s6e1oal1hBXG5Xgcwkhwyll5pSNbrukldmxPjwkpyMru2e76qoWP6opVjS0otJYBgea-Mil0n7Dozg4jhZ7AaqoZacZPIDOniQz8DF8OpgdgPtmykRtuVhvbniz-n3nfhqFgpume7VkCHmds2NKt2Sn3J8fbT3qQpkVU_yW5eggrSPxmIq4I1DwOakUK4FPHWv06YbQ1AW1_C7RWo29SLW0dkNiCN7zYFGdDgDGcNbyrBbP2wQ7IwavNxnBbmz3VD7KqDYZoUV-r6UEwbY2pRtNn12hLIgw3VUqToRX2s5hozPt2DBPT4FUY3g5KUg3hZO-UxLhC3wyRB1Yz15WCMv2i_P_Mzw32oC3lNTasWAF8_TVfrNVNpTuFBZ3mcH_Qt2U4_m0vdcFOCstgfohI-7j7gE2GyDnRz7voVJxsx05c2I7ftnc3rDu9aSW2VP58Dwq82pq7VazLQ3Qnuo5K0oHbIT5_D5NA6qTsr1L1Moe-n3vg4U3TSjiShumE6EfOFtQZ7PAhDG2vzbpZ0Eb1g9z1OcsCEj67KI83a81EMR081mm-P24GuGdCLq6lVncXn6BU0WBzaCkCc2zSbkQhD58DioUDM5blKFEU9sKR5kXcMZYP-S5A13Sxu0ncSNYQN7yxEsGh8E4mYeRG3EeOCe-zmiT3MY3Dq566lkMCbX8QmDjSRYvg3MUyA3A9rWG1VGygHpeTnZXBGAUBOHQ4XHZHR96W5WSzNLCewGggvxosHnat82-thWbJBR0nP9y8dm1XqF03h43XLrpnEPaixuophEVpem7oaCh2C91kCpxZ-3hIAwYt2r4VPKd_iFksoAnivaF6k_flDugs_ddl2mCV6CMGxVavqhavPFFMmS6kWp4xnnreXnjC7sU_16wMUjTm7z1c7Rs44hB3DDgnVeiRnREKjPrkr7Rxjk5bjYFPGAx3BUA3HQ4g4wS7heDv7PKdiioscJmWYqLaeMPoNfPQ5dTj7kxsJCqlv-cixKvm71nEMG2bHsDwlqdNiWeXz_gPP_eHaW7lF9q1LZqm3W8MCNzq68jXJQxxQ5VQctNagI9y2Fy7?></g></svg>