<?plantuml 1.2026.1?><svg xmlns="http://www.w3.org/2000/svg" xmlns:xlink="http://www.w3.org/1999/xlink" contentStyleType="text/css" data-diagram-type="ACTIVITY" height="2185px" preserveAspectRatio="none" style="width:1225px;height:2185px;background:#FCFCFD;" version="1.1" viewBox="0 0 1225 2185" width="1225px" zoomAndPan="magnify"><title>Activity - core/PublicIpPool</title><defs/><g><rect fill="#FCFCFD" height="2185" style="stroke:none;stroke-width:1;" width="1225" x="0" y="0"/><g class="title" data-source-line="10"><text fill="#000000" font-family="Helvetica" font-size="14" font-weight="bold" lengthAdjust="spacing" textLength="181.2549" x="520.637" y="30.7803">Activity - core/PublicIpPool</text></g><ellipse cx="655.1711" cy="55" fill="#1D4ED8" rx="10" ry="10" style="stroke:#222222;stroke-width:1;"/><rect fill="none" height="444" rx="8" ry="8" style="stroke:#000000;stroke-width:1.5;" width="613.0996" x="372.554" y="75"/><path d="M494.6223,75 L494.6223,82 L484.6223,92 L372.554,92" fill="none" style="stroke:#000000;stroke-width:1.5;"/><text fill="#000000" font-family="Helvetica" font-size="14" lengthAdjust="spacing" textLength="112.0684" x="375.554" y="86.7803">Observe and Bind</text><rect fill="#F8FAFC" height="48" rx="8" ry="8" style="stroke:#0F172A;stroke-width:0.5;" width="304.7852" x="502.7786" y="109"/><text fill="#0F172A" font-family="Helvetica" font-size="14" lengthAdjust="spacing" textLength="136.9375" x="512.7786" y="129.7803">Start from shared flow</text><text fill="#0F172A" font-family="Helvetica" font-size="14" lengthAdjust="spacing" textLength="284.7852" x="512.7786" y="143.7803">shared/diagrams/shared-reconcile-activity.svg</text><rect fill="#F8FAFC" height="48" rx="8" ry="8" style="stroke:#0F172A;stroke-width:0.5;" width="272.1436" x="519.0994" y="177"/><text fill="#0F172A" font-family="Helvetica" font-size="14" lengthAdjust="spacing" textLength="252.1436" x="529.0994" y="197.7803">Read desired PublicIpPool spec, tracked</text><text fill="#0F172A" font-family="Helvetica" font-size="14" lengthAdjust="spacing" textLength="148.6611" x="529.0994" y="211.7803">status, and delete intent</text><polygon fill="#E2E8F0" points="525.7053,245,784.637,245,796.637,257,784.637,269,525.7053,269,513.7053,257,525.7053,245" style="stroke:#1D4ED8;stroke-width:0.5;"/><text fill="#0F172A" font-family="Helvetica" font-size="14" lengthAdjust="spacing" textLength="258.9316" x="525.7053" y="260.7803">"Tracked or explicit OCI identity present?"</text><text fill="#000000" font-family="Helvetica" font-size="14" lengthAdjust="spacing" textLength="21.7861" x="491.9192" y="253.7803">yes</text><text fill="#000000" font-family="Helvetica" font-size="14" lengthAdjust="spacing" textLength="15.5723" x="796.637" y="253.7803">no</text><rect fill="#F8FAFC" height="48" rx="8" ry="8" style="stroke:#0F172A;stroke-width:0.5;" width="222.3027" x="392.554" y="279"/><text fill="#0F172A" font-family="Helvetica" font-size="14" lengthAdjust="spacing" textLength="202.3027" x="402.554" y="299.7803">Get the current OCI resource via</text><text fill="#0F172A" font-family="Helvetica" font-size="14" lengthAdjust="spacing" textLength="100.3926" x="402.554" y="313.7803">GetPublicIpPool</text><rect fill="#F8FAFC" height="62" rx="8" ry="8" style="stroke:#0F172A;stroke-width:0.5;" width="302.4678" x="655.4031" y="279"/><text fill="#0F172A" font-family="Helvetica" font-size="14" lengthAdjust="spacing" textLength="259.9092" x="665.4031" y="299.7803">Resolve an existing OCI resource through</text><text fill="#0F172A" font-family="Helvetica" font-size="14" lengthAdjust="spacing" textLength="282.4678" x="665.4031" y="313.7803">ListPublicIpPool using filters compartment_id,</text><text fill="#0F172A" font-family="Helvetica" font-size="14" lengthAdjust="spacing" textLength="30.3516" x="665.4031" y="327.7803">state</text><rect fill="#F8FAFC" height="48" rx="8" ry="8" style="stroke:#0F172A;stroke-width:0.5;" width="318.0332" x="647.6204" y="361"/><text fill="#0F172A" font-family="Helvetica" font-size="14" lengthAdjust="spacing" textLength="298.0332" x="657.6204" y="381.7803">Create the OCI resource via CreatePublicIpPool</text><text fill="#0F172A" font-family="Helvetica" font-size="14" lengthAdjust="spacing" textLength="205.4609" x="657.6204" y="395.7803">when no reusable match is found</text><rect fill="#F8FAFC" height="48" rx="8" ry="8" style="stroke:#0F172A;stroke-width:0.5;" width="286.8955" x="663.1892" y="429"/><text fill="#0F172A" font-family="Helvetica" font-size="14" lengthAdjust="spacing" textLength="266.8955" x="673.1892" y="449.7803">Persist the resolved or created OCI identity</text><text fill="#0F172A" font-family="Helvetica" font-size="14" lengthAdjust="spacing" textLength="63.8135" x="673.1892" y="463.7803">into status</text><polygon fill="#E2E8F0" points="655.1711,483,667.1711,495,655.1711,507,643.1711,495,655.1711,483" style="stroke:#1D4ED8;stroke-width:0.5;"/><polygon fill="#E2E8F0" points="592.9949,539,717.3474,539,729.3474,551,717.3474,563,592.9949,563,580.9949,551,592.9949,539" style="stroke:#1D4ED8;stroke-width:0.5;"/><text fill="#0F172A" font-family="Helvetica" font-size="14" lengthAdjust="spacing" textLength="124.3525" x="592.9949" y="554.7803">"Delete requested?"</text><text fill="#000000" font-family="Helvetica" font-size="14" lengthAdjust="spacing" textLength="21.7861" x="559.2087" y="547.7803">yes</text><text fill="#000000" font-family="Helvetica" font-size="14" lengthAdjust="spacing" textLength="15.5723" x="729.3474" y="547.7803">no</text><rect fill="none" height="340" rx="8" ry="8" style="stroke:#000000;stroke-width:1.5;" width="644.4814" x="11" y="573"/><path d="M61.4688,573 L61.4688,580 L51.4688,590 L11,590" fill="none" style="stroke:#000000;stroke-width:1.5;"/><text fill="#000000" font-family="Helvetica" font-size="14" lengthAdjust="spacing" textLength="40.4688" x="14" y="584.7803">Delete</text><rect fill="#F8FAFC" height="62" rx="8" ry="8" style="stroke:#0F172A;stroke-width:0.5;" width="283.7852" x="197.8516" y="607"/><text fill="#0F172A" font-family="Helvetica" font-size="14" lengthAdjust="spacing" textLength="256.04" x="207.8516" y="627.7803">Delete path uses DeletePublicIpPool with</text><text fill="#0F172A" font-family="Helvetica" font-size="14" lengthAdjust="spacing" textLength="193.7715" x="207.8516" y="641.7803">required via GetPublicIpPool or</text><text fill="#0F172A" font-family="Helvetica" font-size="14" lengthAdjust="spacing" textLength="263.7852" x="207.8516" y="655.7803">ListPublicIpPool to DELETED confirmation</text><rect fill="#F8FAFC" height="48" rx="8" ry="8" style="stroke:#0F172A;stroke-width:0.5;" width="300.123" x="189.6826" y="704"/><text fill="#0F172A" font-family="Helvetica" font-size="14" lengthAdjust="spacing" textLength="244.3438" x="199.6826" y="724.7803">Confirm deletion via GetPublicIpPool or</text><text fill="#0F172A" font-family="Helvetica" font-size="14" lengthAdjust="spacing" textLength="280.123" x="199.6826" y="738.7803">ListPublicIpPool until OCI reaches DELETED</text><polygon fill="#E2E8F0" points="191.5718,781,487.9165,781,499.9165,793,487.9165,805,191.5718,805,179.5718,793,191.5718,781" style="stroke:#1D4ED8;stroke-width:0.5;"/><text fill="#0F172A" font-family="Helvetica" font-size="14" lengthAdjust="spacing" textLength="296.3447" x="191.5718" y="796.7803">"Delete cleanup and finalizer release succeed?"</text><text fill="#000000" font-family="Helvetica" font-size="14" lengthAdjust="spacing" textLength="21.7861" x="157.7856" y="789.7803">yes</text><text fill="#000000" font-family="Helvetica" font-size="14" lengthAdjust="spacing" textLength="15.5723" x="499.9165" y="789.7803">no</text><rect fill="#F8FAFC" height="34" rx="8" ry="8" style="stroke:#0F172A;stroke-width:0.5;" width="293.1436" x="23" y="815"/><text fill="#0F172A" font-family="Helvetica" font-size="14" lengthAdjust="spacing" textLength="273.1436" x="33" y="835.7803">Remove the finalizer after delete completion</text><rect fill="#F8FAFC" height="48" rx="8" ry="8" style="stroke:#0F172A;stroke-width:0.5;" width="251.1299" x="384.3516" y="815"/><text fill="#0F172A" font-family="Helvetica" font-size="14" lengthAdjust="spacing" textLength="231.1299" x="394.3516" y="835.7803">Stay blocked until cleanup or finalizer</text><text fill="#0F172A" font-family="Helvetica" font-size="14" lengthAdjust="spacing" textLength="108.9512" x="394.3516" y="849.7803">release succeeds</text><polygon fill="#E2E8F0" points="339.7441,869,351.7441,881,339.7441,893,327.7441,881,339.7441,869" style="stroke:#1D4ED8;stroke-width:0.5;"/><ellipse cx="339.7441" cy="950.5" fill="none" rx="11" ry="11" style="stroke:#222222;stroke-width:1;"/><ellipse cx="339.7441" cy="950.5" fill="#222222" rx="6" ry="6" style="stroke:#222222;stroke-width:1;"/><rect fill="none" height="427.5" rx="8" ry="8" style="stroke:#000000;stroke-width:1.5;" width="345.916" x="803.6401" y="573"/><path d="M954.4741,573 L954.4741,580 L944.4741,590 L803.6401,590" fill="none" style="stroke:#000000;stroke-width:1.5;"/><text fill="#000000" font-family="Helvetica" font-size="14" lengthAdjust="spacing" textLength="140.834" x="806.6401" y="584.7803">Lifecycle Classification</text><rect fill="#F8FAFC" height="48" rx="8" ry="8" style="stroke:#0F172A;stroke-width:0.5;" width="280.5928" x="830.3018" y="656"/><text fill="#0F172A" font-family="Helvetica" font-size="14" lengthAdjust="spacing" textLength="240.4541" x="840.3018" y="676.7803">Request requeue while OCI remains in</text><text fill="#0F172A" font-family="Helvetica" font-size="14" lengthAdjust="spacing" textLength="260.5928" x="840.3018" y="690.7803">PROVISIONING, UPDATING, DELETING</text><ellipse cx="970.5981" cy="750" fill="none" rx="11" ry="11" style="stroke:#222222;stroke-width:1;"/><ellipse cx="970.5981" cy="750" fill="#222222" rx="6" ry="6" style="stroke:#222222;stroke-width:1;"/><polygon fill="#E2E8F0" points="884.3149,607,1056.8813,607,1068.8813,619,1056.8813,631,884.3149,631,872.3149,619,884.3149,607" style="stroke:#1D4ED8;stroke-width:0.5;"/><text fill="#000000" font-family="Helvetica" font-size="14" lengthAdjust="spacing" textLength="21.7861" x="974.5981" y="641.7803">yes</text><text fill="#0F172A" font-family="Helvetica" font-size="14" lengthAdjust="spacing" textLength="172.5664" x="884.3149" y="622.7803">"OCI state in retryable set?"</text><rect fill="#F8FAFC" height="48" rx="8" ry="8" style="stroke:#0F172A;stroke-width:0.5;" width="293.916" x="823.6401" y="870"/><text fill="#0F172A" font-family="Helvetica" font-size="14" lengthAdjust="spacing" textLength="273.916" x="833.6401" y="890.7803">Return an unsuccessful reconcile result until</text><text fill="#0F172A" font-family="Helvetica" font-size="14" lengthAdjust="spacing" textLength="133.041" x="833.6401" y="904.7803">OCI reaches ACTIVE</text><ellipse cx="970.5981" cy="955.5" fill="none" rx="11" ry="11" style="stroke:#222222;stroke-width:1;"/><ellipse cx="970.5981" cy="955.5" fill="#222222" rx="6" ry="6" style="stroke:#222222;stroke-width:1;"/><polygon fill="#E2E8F0" points="850.0771,821,1091.1191,821,1103.1191,833,1091.1191,845,850.0771,845,838.0771,833,850.0771,821" style="stroke:#1D4ED8;stroke-width:0.5;"/><text fill="#000000" font-family="Helvetica" font-size="14" lengthAdjust="spacing" textLength="21.7861" x="974.5981" y="855.7803">yes</text><text fill="#0F172A" font-family="Helvetica" font-size="14" lengthAdjust="spacing" textLength="241.042" x="850.0771" y="836.7803">"OCI state is outside success targets?"</text><rect fill="none" height="722.5" rx="8" ry="8" style="stroke:#000000;stroke-width:1.5;" width="539.0474" x="675.4814" y="1010.5"/><path d="M841.9014,1010.5 L841.9014,1017.5 L831.9014,1027.5 L675.4814,1027.5" fill="none" style="stroke:#000000;stroke-width:1.5;"/><text fill="#000000" font-family="Helvetica" font-size="14" lengthAdjust="spacing" textLength="156.4199" x="678.4814" y="1022.2803">Ready and Drift Handling</text><rect fill="#F8FAFC" height="48" rx="8" ry="8" style="stroke:#0F172A;stroke-width:0.5;" width="296.2402" x="822.478" y="1044.5"/><text fill="#0F172A" font-family="Helvetica" font-size="14" lengthAdjust="spacing" textLength="276.2402" x="832.478" y="1065.2803">Compare live OCI state against the imported</text><text fill="#0F172A" font-family="Helvetica" font-size="14" lengthAdjust="spacing" textLength="75.4824" x="832.478" y="1079.2803">field surface</text><rect fill="#F8FAFC" height="48" rx="8" ry="8" style="stroke:#0F172A;stroke-width:0.5;" width="302.4473" x="819.3745" y="1161.5"/><text fill="#0F172A" font-family="Helvetica" font-size="14" lengthAdjust="spacing" textLength="282.4473" x="829.3745" y="1182.2803">Reject drift before OCI mutation for force-new</text><text fill="#0F172A" font-family="Helvetica" font-size="14" lengthAdjust="spacing" textLength="136.9512" x="829.3745" y="1196.2803">fields compartment_id</text><ellipse cx="970.5981" cy="1242" fill="none" rx="11" ry="11" style="stroke:#222222;stroke-width:1;"/><ellipse cx="970.5981" cy="1242" fill="#222222" rx="6" ry="6" style="stroke:#222222;stroke-width:1;"/><polygon fill="#E2E8F0" points="845.0151,1112.5,1096.1812,1112.5,1108.1812,1124.5,1096.1812,1136.5,845.0151,1136.5,833.0151,1124.5,845.0151,1112.5" style="stroke:#1D4ED8;stroke-width:0.5;"/><text fill="#000000" font-family="Helvetica" font-size="14" lengthAdjust="spacing" textLength="21.7861" x="974.5981" y="1147.2803">yes</text><text fill="#0F172A" font-family="Helvetica" font-size="14" lengthAdjust="spacing" textLength="251.166" x="845.0151" y="1128.2803">"Force-new or conflicting drift detected?"</text><polygon fill="#E2E8F0" points="860.1704,1295,1081.0259,1295,1093.0259,1307,1081.0259,1319,860.1704,1319,848.1704,1307,860.1704,1295" style="stroke:#1D4ED8;stroke-width:0.5;"/><text fill="#0F172A" font-family="Helvetica" font-size="14" lengthAdjust="spacing" textLength="220.8555" x="860.1704" y="1310.7803">"Supported mutable drift detected?"</text><text fill="#000000" font-family="Helvetica" font-size="14" lengthAdjust="spacing" textLength="21.7861" x="826.3843" y="1303.7803">yes</text><text fill="#000000" font-family="Helvetica" font-size="14" lengthAdjust="spacing" textLength="15.5723" x="1093.0259" y="1303.7803">no</text><rect fill="#F8FAFC" height="48" rx="8" ry="8" style="stroke:#0F172A;stroke-width:0.5;" width="285.3779" x="695.4814" y="1329"/><text fill="#0F172A" font-family="Helvetica" font-size="14" lengthAdjust="spacing" textLength="265.3779" x="705.4814" y="1349.7803">Apply UpdatePublicIpPool only for mutable</text><text fill="#0F172A" font-family="Helvetica" font-size="14" lengthAdjust="spacing" textLength="122.958" x="705.4814" y="1363.7803">fields display_name</text><rect fill="#F8FAFC" height="34" rx="8" ry="8" style="stroke:#0F172A;stroke-width:0.5;" width="199.0059" x="1003.5229" y="1329"/><text fill="#0F172A" font-family="Helvetica" font-size="14" lengthAdjust="spacing" textLength="179.0059" x="1013.5229" y="1349.7803">Skip the no-op mutation path</text><polygon fill="#E2E8F0" points="970.5981,1383,982.5981,1395,970.5981,1407,958.5981,1395,970.5981,1383" style="stroke:#1D4ED8;stroke-width:0.5;"/><rect fill="#F8FAFC" height="118" rx="8" ry="8" style="stroke:#0F172A;stroke-width:0.5;" width="334.3164" x="803.4399" y="1427"/><text fill="#0F172A" font-family="Helvetica" font-size="14" lengthAdjust="spacing" textLength="164.2061" x="813.4399" y="1447.7803">Run provider helper hooks</text><text fill="#0F172A" font-family="Helvetica" font-size="14" lengthAdjust="spacing" textLength="219.0508" x="813.4399" y="1461.7803">create=tfresource.CreateResource,</text><text fill="#0F172A" font-family="Helvetica" font-size="14" lengthAdjust="spacing" textLength="314.3164" x="813.4399" y="1475.7803">tfresource.WaitForWorkRequestWithErrorHandling</text><text fill="#0F172A" font-family="Helvetica" font-size="14" lengthAdjust="spacing" textLength="215.5439" x="813.4399" y="1489.7803">entity=template action=CREATED;</text><text fill="#0F172A" font-family="Helvetica" font-size="14" lengthAdjust="spacing" textLength="226.085" x="813.4399" y="1503.7803">update=tfresource.UpdateResource;</text><text fill="#0F172A" font-family="Helvetica" font-size="14" lengthAdjust="spacing" textLength="273.5537" x="813.4399" y="1517.7803">delete=tfresource.DeleteResource when the</text><text fill="#0F172A" font-family="Helvetica" font-size="14" lengthAdjust="spacing" textLength="220.2334" x="813.4399" y="1531.7803">matching field-driven path executes</text><rect fill="#F8FAFC" height="34" rx="8" ry="8" style="stroke:#0F172A;stroke-width:0.5;" width="303.2197" x="818.9883" y="1565"/><text fill="#0F172A" font-family="Helvetica" font-size="14" lengthAdjust="spacing" textLength="283.2197" x="828.9883" y="1585.7803">Return success for the ACTIVE success state</text><rect fill="#F8FAFC" height="48" rx="8" ry="8" style="stroke:#0F172A;stroke-width:0.5;" width="279.1299" x="831.0332" y="1619"/><text fill="#0F172A" font-family="Helvetica" font-size="14" lengthAdjust="spacing" textLength="259.1299" x="841.0332" y="1639.7803">Project required status and finalizer policy</text><text fill="#0F172A" font-family="Helvetica" font-size="14" lengthAdjust="spacing" textLength="174.3027" x="841.0332" y="1653.7803">retain-until-confirmed-delete</text><rect fill="#F8FAFC" height="34" rx="8" ry="8" style="stroke:#0F172A;stroke-width:0.5;" width="313.4189" x="813.8887" y="1687"/><text fill="#0F172A" font-family="Helvetica" font-size="14" lengthAdjust="spacing" textLength="293.4189" x="823.8887" y="1707.7803">Requeue on provisioning, updating, terminating</text><path d="M686.1711,1743 L686.1711,1954 L666.1711,1958 L686.1711,1962 L686.1711,2173 A0,0 0 0 0 686.1711,2173 L1002.8528,2173 A0,0 0 0 0 1002.8528,2173 L1002.8528,1753 L992.8528,1743 L686.1711,1743 A0,0 0 0 0 686.1711,1743" fill="#FFF7D6" style="stroke:#B45309;stroke-width:0.5;"/><path d="M992.8528,1743 L992.8528,1753 L1002.8528,1753 L992.8528,1743" fill="#FFF7D6" style="stroke:#B45309;stroke-width:0.5;"/><text fill="#334155" font-family="Helvetica" font-size="14" lengthAdjust="spacing" textLength="101.165" x="692.1711" y="1758.7803">shared diagram:</text><text fill="#334155" font-family="Helvetica" font-size="14" lengthAdjust="spacing" textLength="284.7852" x="692.1711" y="1772.7803">shared/diagrams/shared-reconcile-activity.svg</text><text fill="#334155" font-family="Helvetica" font-size="14" lengthAdjust="spacing" textLength="265.3438" x="692.1711" y="1786.7803">Start from the shared reconcile activity and</text><text fill="#334155" font-family="Helvetica" font-size="14" lengthAdjust="spacing" textLength="273.8955" x="692.1711" y="1800.7803">specialize provider-backed CRUD, wait, and</text><text fill="#334155" font-family="Helvetica" font-size="14" lengthAdjust="spacing" textLength="182.875" x="692.1711" y="1814.7803">status-projection details here.</text><text fill="#334155" font-family="Helvetica" font-size="14" lengthAdjust="spacing" textLength="229.5371" x="692.1711" y="1828.7803">Controller-local activity diagrams add</text><text fill="#334155" font-family="Helvetica" font-size="14" lengthAdjust="spacing" textLength="238.8955" x="692.1711" y="1842.7803">list-lookup hints, secret policies, delete</text><text fill="#334155" font-family="Helvetica" font-size="14" lengthAdjust="spacing" textLength="200.0332" x="692.1711" y="1856.7803">handling, and open formal gaps.</text><text fill="#334155" font-family="Helvetica" font-size="14" lengthAdjust="spacing" textLength="281.709" x="692.1711" y="1870.7803">archetype batch: Generated service-manager</text><text fill="#334155" font-family="Helvetica" font-size="14" lengthAdjust="spacing" textLength="291.0469" x="692.1711" y="1884.7803">controllers specialize the shared reconcile path</text><text fill="#334155" font-family="Helvetica" font-size="14" lengthAdjust="spacing" textLength="189.8477" x="692.1711" y="1898.7803">with formal runtime ownership.</text><text fill="#334155" font-family="Helvetica" font-size="14" lengthAdjust="spacing" textLength="79.3584" x="692.1711" y="1912.7803">service: core</text><text fill="#334155" font-family="Helvetica" font-size="14" lengthAdjust="spacing" textLength="107.4063" x="692.1711" y="1926.7803">slug: publicippool</text><text fill="#334155" font-family="Helvetica" font-size="14" lengthAdjust="spacing" textLength="111.2891" x="692.1711" y="1940.7803">kind: PublicIpPool</text><text fill="#334155" font-family="Helvetica" font-size="14" lengthAdjust="spacing" textLength="241.2402" x="692.1711" y="1954.7803">archetype: generated-service-manager</text><text fill="#334155" font-family="Helvetica" font-size="14" lengthAdjust="spacing" textLength="156.4063" x="692.1711" y="1968.7803">status/finalizer: required /</text><text fill="#334155" font-family="Helvetica" font-size="14" lengthAdjust="spacing" textLength="174.3027" x="692.1711" y="1982.7803">retain-until-confirmed-delete</text><text fill="#334155" font-family="Helvetica" font-size="14" lengthAdjust="spacing" textLength="272.3984" x="692.1711" y="1996.7803">requeue: provisioning, updating, terminating</text><text fill="#334155" font-family="Helvetica" font-size="14" lengthAdjust="spacing" textLength="295.6816" x="692.1711" y="2010.7803">provider states: create PROVISIONING; update</text><text fill="#334155" font-family="Helvetica" font-size="14" lengthAdjust="spacing" textLength="192.165" x="692.1711" y="2024.7803">UPDATING; delete DELETING</text><text fill="#334155" font-family="Helvetica" font-size="14" lengthAdjust="spacing" textLength="183.6611" x="692.1711" y="2038.7803">supported drift: display_name</text><text fill="#334155" font-family="Helvetica" font-size="14" lengthAdjust="spacing" textLength="230.3301" x="692.1711" y="2052.7803">reject before mutate: force-new fields</text><text fill="#334155" font-family="Helvetica" font-size="14" lengthAdjust="spacing" textLength="100.3789" x="692.1711" y="2066.7803">compartment_id</text><text fill="#334155" font-family="Helvetica" font-size="14" lengthAdjust="spacing" textLength="272.3711" x="692.1711" y="2080.7803">list lookup: scaffold_core_publicippool filters</text><text fill="#334155" font-family="Helvetica" font-size="14" lengthAdjust="spacing" textLength="138.5098" x="692.1711" y="2094.7803">compartment_id, state</text><text fill="#334155" font-family="Helvetica" font-size="14" lengthAdjust="spacing" textLength="89.4961" x="692.1711" y="2108.7803">conflicts: none</text><text fill="#334155" font-family="Helvetica" font-size="14" lengthAdjust="spacing" textLength="104.3164" x="692.1711" y="2122.7803">open gaps: none</text><text fill="#334155" font-family="Helvetica" font-size="14" lengthAdjust="spacing" textLength="224.9023" x="692.1711" y="2136.7803">Scaffold metadata only; replace with</text><text fill="#334155" font-family="Helvetica" font-size="14" lengthAdjust="spacing" textLength="244.3232" x="692.1711" y="2150.7803">controller-specific runtime states before</text><text fill="#334155" font-family="Helvetica" font-size="14" lengthAdjust="spacing" textLength="66.1445" x="692.1711" y="2164.7803">promotion.</text><ellipse cx="655.1711" cy="1958" fill="none" rx="11" ry="11" style="stroke:#222222;stroke-width:1;"/><ellipse cx="655.1711" cy="1958" fill="#222222" rx="6" ry="6" style="stroke:#222222;stroke-width:1;"/><line style="stroke:#0F172A;stroke-width:1;" x1="655.1711" x2="655.1711" y1="157" y2="177"/><polygon fill="#0F172A" points="651.1711,167,655.1711,177,659.1711,167,655.1711,171" style="stroke:#0F172A;stroke-width:1;"/><line style="stroke:#0F172A;stroke-width:1;" x1="806.637" x2="806.637" y1="341" y2="361"/><polygon fill="#0F172A" points="802.637,351,806.637,361,810.637,351,806.637,355" style="stroke:#0F172A;stroke-width:1;"/><line style="stroke:#0F172A;stroke-width:1;" x1="806.637" x2="806.637" y1="409" y2="429"/><polygon fill="#0F172A" points="802.637,419,806.637,429,810.637,419,806.637,423" style="stroke:#0F172A;stroke-width:1;"/><line style="stroke:#0F172A;stroke-width:1;" x1="513.7053" x2="503.7053" y1="257" y2="257"/><line style="stroke:#0F172A;stroke-width:1;" x1="503.7053" x2="503.7053" y1="257" y2="279"/><polygon fill="#0F172A" points="499.7053,269,503.7053,279,507.7053,269,503.7053,273" style="stroke:#0F172A;stroke-width:1;"/><line style="stroke:#0F172A;stroke-width:1;" x1="796.637" x2="806.637" y1="257" y2="257"/><line style="stroke:#0F172A;stroke-width:1;" x1="806.637" x2="806.637" y1="257" y2="279"/><polygon fill="#0F172A" points="802.637,269,806.637,279,810.637,269,806.637,273" style="stroke:#0F172A;stroke-width:1;"/><line style="stroke:#0F172A;stroke-width:1;" x1="503.7053" x2="503.7053" y1="327" y2="495"/><line style="stroke:#0F172A;stroke-width:1;" x1="503.7053" x2="643.1711" y1="495" y2="495"/><polygon fill="#0F172A" points="633.1711,491,643.1711,495,633.1711,499,637.1711,495" style="stroke:#0F172A;stroke-width:1;"/><line style="stroke:#0F172A;stroke-width:1;" x1="806.637" x2="806.637" y1="477" y2="495"/><line style="stroke:#0F172A;stroke-width:1;" x1="806.637" x2="667.1711" y1="495" y2="495"/><polygon fill="#0F172A" points="677.1711,491,667.1711,495,677.1711,499,673.1711,495" style="stroke:#0F172A;stroke-width:1;"/><line style="stroke:#0F172A;stroke-width:1;" x1="655.1711" x2="655.1711" y1="225" y2="245"/><polygon fill="#0F172A" points="651.1711,235,655.1711,245,659.1711,235,655.1711,239" style="stroke:#0F172A;stroke-width:1;"/><line style="stroke:#0F172A;stroke-width:1;" x1="655.1711" x2="655.1711" y1="65" y2="109"/><polygon fill="#0F172A" points="651.1711,99,655.1711,109,659.1711,99,655.1711,103" style="stroke:#0F172A;stroke-width:1;"/><line style="stroke:#0F172A;stroke-width:1;" x1="339.7441" x2="339.7441" y1="669" y2="704"/><polygon fill="#0F172A" points="335.7441,694,339.7441,704,343.7441,694,339.7441,698" style="stroke:#0F172A;stroke-width:1;"/><line style="stroke:#0F172A;stroke-width:1;" x1="179.5718" x2="169.5718" y1="793" y2="793"/><line style="stroke:#0F172A;stroke-width:1;" x1="169.5718" x2="169.5718" y1="793" y2="815"/><polygon fill="#0F172A" points="165.5718,805,169.5718,815,173.5718,805,169.5718,809" style="stroke:#0F172A;stroke-width:1;"/><line style="stroke:#0F172A;stroke-width:1;" x1="499.9165" x2="509.9165" y1="793" y2="793"/><line style="stroke:#0F172A;stroke-width:1;" x1="509.9165" x2="509.9165" y1="793" y2="815"/><polygon fill="#0F172A" points="505.9165,805,509.9165,815,513.9165,805,509.9165,809" style="stroke:#0F172A;stroke-width:1;"/><line style="stroke:#0F172A;stroke-width:1;" x1="169.5718" x2="169.5718" y1="849" y2="881"/><line style="stroke:#0F172A;stroke-width:1;" x1="169.5718" x2="327.7441" y1="881" y2="881"/><polygon fill="#0F172A" points="317.7441,877,327.7441,881,317.7441,885,321.7441,881" style="stroke:#0F172A;stroke-width:1;"/><line style="stroke:#0F172A;stroke-width:1;" x1="509.9165" x2="509.9165" y1="863" y2="881"/><line style="stroke:#0F172A;stroke-width:1;" x1="509.9165" x2="351.7441" y1="881" y2="881"/><polygon fill="#0F172A" points="361.7441,877,351.7441,881,361.7441,885,357.7441,881" style="stroke:#0F172A;stroke-width:1;"/><line style="stroke:#0F172A;stroke-width:1;" x1="339.7441" x2="339.7441" y1="752" y2="781"/><polygon fill="#0F172A" points="335.7441,771,339.7441,781,343.7441,771,339.7441,775" style="stroke:#0F172A;stroke-width:1;"/><line style="stroke:#0F172A;stroke-width:1;" x1="339.7441" x2="339.7441" y1="893" y2="939.5"/><polygon fill="#0F172A" points="335.7441,929.5,339.7441,939.5,343.7441,929.5,339.7441,933.5" style="stroke:#0F172A;stroke-width:1;"/><line style="stroke:#0F172A;stroke-width:1;" x1="970.5981" x2="970.5981" y1="704" y2="739"/><polygon fill="#0F172A" points="966.5981,729,970.5981,739,974.5981,729,970.5981,733" style="stroke:#0F172A;stroke-width:1;"/><line style="stroke:#0F172A;stroke-width:1;" x1="970.5981" x2="970.5981" y1="631" y2="656"/><polygon fill="#0F172A" points="966.5981,646,970.5981,656,974.5981,646,970.5981,650" style="stroke:#0F172A;stroke-width:1;"/><line style="stroke:#0F172A;stroke-width:1;" x1="1068.8813" x2="1120.8945" y1="619" y2="619"/><polygon fill="#0F172A" points="1116.8945,695.5,1120.8945,705.5,1124.8945,695.5,1120.8945,699.5" style="stroke:#0F172A;stroke-width:1;"/><line style="stroke:#0F172A;stroke-width:1;" x1="1120.8945" x2="1120.8945" y1="619" y2="786"/><line style="stroke:#0F172A;stroke-width:1;" x1="1120.8945" x2="970.5981" y1="786" y2="786"/><line style="stroke:#0F172A;stroke-width:1;" x1="970.5981" x2="970.5981" y1="786" y2="821"/><polygon fill="#0F172A" points="966.5981,811,970.5981,821,974.5981,811,970.5981,815" style="stroke:#0F172A;stroke-width:1;"/><line style="stroke:#0F172A;stroke-width:1;" x1="970.5981" x2="970.5981" y1="918" y2="944.5"/><polygon fill="#0F172A" points="966.5981,934.5,970.5981,944.5,974.5981,934.5,970.5981,938.5" style="stroke:#0F172A;stroke-width:1;"/><line style="stroke:#0F172A;stroke-width:1;" x1="970.5981" x2="970.5981" y1="845" y2="870"/><polygon fill="#0F172A" points="966.5981,860,970.5981,870,974.5981,860,970.5981,864" style="stroke:#0F172A;stroke-width:1;"/><line style="stroke:#0F172A;stroke-width:1;" x1="1103.1191" x2="1127.5562" y1="833" y2="833"/><polygon fill="#0F172A" points="1123.5562,909.5,1127.5562,919.5,1131.5562,909.5,1127.5562,913.5" style="stroke:#0F172A;stroke-width:1;"/><line style="stroke:#0F172A;stroke-width:1;" x1="1127.5562" x2="1127.5562" y1="833" y2="988.5"/><line style="stroke:#0F172A;stroke-width:1;" x1="1127.5562" x2="970.5981" y1="988.5" y2="988.5"/><line style="stroke:#0F172A;stroke-width:1;" x1="970.5981" x2="970.5981" y1="988.5" y2="1044.5"/><polygon fill="#0F172A" points="966.5981,1034.5,970.5981,1044.5,974.5981,1034.5,970.5981,1038.5" style="stroke:#0F172A;stroke-width:1;"/><line style="stroke:#0F172A;stroke-width:1;" x1="970.5981" x2="970.5981" y1="1209.5" y2="1231"/><polygon fill="#0F172A" points="966.5981,1221,970.5981,1231,974.5981,1221,970.5981,1225" style="stroke:#0F172A;stroke-width:1;"/><line style="stroke:#0F172A;stroke-width:1;" x1="970.5981" x2="970.5981" y1="1136.5" y2="1161.5"/><polygon fill="#0F172A" points="966.5981,1151.5,970.5981,1161.5,974.5981,1151.5,970.5981,1155.5" style="stroke:#0F172A;stroke-width:1;"/><line style="stroke:#0F172A;stroke-width:1;" x1="1108.1812" x2="1131.8218" y1="1124.5" y2="1124.5"/><polygon fill="#0F172A" points="1127.8218,1201,1131.8218,1211,1135.8218,1201,1131.8218,1205" style="stroke:#0F172A;stroke-width:1;"/><line style="stroke:#0F172A;stroke-width:1;" x1="1131.8218" x2="1131.8218" y1="1124.5" y2="1275"/><line style="stroke:#0F172A;stroke-width:1;" x1="1131.8218" x2="970.5981" y1="1275" y2="1275"/><line style="stroke:#0F172A;stroke-width:1;" x1="970.5981" x2="970.5981" y1="1275" y2="1295"/><polygon fill="#0F172A" points="966.5981,1285,970.5981,1295,974.5981,1285,970.5981,1289" style="stroke:#0F172A;stroke-width:1;"/><line style="stroke:#0F172A;stroke-width:1;" x1="970.5981" x2="970.5981" y1="1092.5" y2="1112.5"/><polygon fill="#0F172A" points="966.5981,1102.5,970.5981,1112.5,974.5981,1102.5,970.5981,1106.5" style="stroke:#0F172A;stroke-width:1;"/><line style="stroke:#0F172A;stroke-width:1;" x1="848.1704" x2="838.1704" y1="1307" y2="1307"/><line style="stroke:#0F172A;stroke-width:1;" x1="838.1704" x2="838.1704" y1="1307" y2="1329"/><polygon fill="#0F172A" points="834.1704,1319,838.1704,1329,842.1704,1319,838.1704,1323" style="stroke:#0F172A;stroke-width:1;"/><line style="stroke:#0F172A;stroke-width:1;" x1="1093.0259" x2="1103.0259" y1="1307" y2="1307"/><line style="stroke:#0F172A;stroke-width:1;" x1="1103.0259" x2="1103.0259" y1="1307" y2="1329"/><polygon fill="#0F172A" points="1099.0259,1319,1103.0259,1329,1107.0259,1319,1103.0259,1323" style="stroke:#0F172A;stroke-width:1;"/><line style="stroke:#0F172A;stroke-width:1;" x1="838.1704" x2="838.1704" y1="1377" y2="1395"/><line style="stroke:#0F172A;stroke-width:1;" x1="838.1704" x2="958.5981" y1="1395" y2="1395"/><polygon fill="#0F172A" points="948.5981,1391,958.5981,1395,948.5981,1399,952.5981,1395" style="stroke:#0F172A;stroke-width:1;"/><line style="stroke:#0F172A;stroke-width:1;" x1="1103.0259" x2="1103.0259" y1="1363" y2="1395"/><line style="stroke:#0F172A;stroke-width:1;" x1="1103.0259" x2="982.5981" y1="1395" y2="1395"/><polygon fill="#0F172A" points="992.5981,1391,982.5981,1395,992.5981,1399,988.5981,1395" style="stroke:#0F172A;stroke-width:1;"/><line style="stroke:#0F172A;stroke-width:1;" x1="970.5981" x2="970.5981" y1="1407" y2="1427"/><polygon fill="#0F172A" points="966.5981,1417,970.5981,1427,974.5981,1417,970.5981,1421" style="stroke:#0F172A;stroke-width:1;"/><line style="stroke:#0F172A;stroke-width:1;" x1="970.5981" x2="970.5981" y1="1545" y2="1565"/><polygon fill="#0F172A" points="966.5981,1555,970.5981,1565,974.5981,1555,970.5981,1559" style="stroke:#0F172A;stroke-width:1;"/><line style="stroke:#0F172A;stroke-width:1;" x1="970.5981" x2="970.5981" y1="1599" y2="1619"/><polygon fill="#0F172A" points="966.5981,1609,970.5981,1619,974.5981,1609,970.5981,1613" style="stroke:#0F172A;stroke-width:1;"/><line style="stroke:#0F172A;stroke-width:1;" x1="970.5981" x2="970.5981" y1="1667" y2="1687"/><polygon fill="#0F172A" points="966.5981,1677,970.5981,1687,974.5981,1677,970.5981,1681" style="stroke:#0F172A;stroke-width:1;"/><line style="stroke:#0F172A;stroke-width:1;" x1="580.9949" x2="339.7441" y1="551" y2="551"/><line style="stroke:#0F172A;stroke-width:1;" x1="339.7441" x2="339.7441" y1="551" y2="607"/><polygon fill="#0F172A" points="335.7441,597,339.7441,607,343.7441,597,339.7441,601" style="stroke:#0F172A;stroke-width:1;"/><line style="stroke:#0F172A;stroke-width:1;" x1="729.3474" x2="970.5981" y1="551" y2="551"/><line style="stroke:#0F172A;stroke-width:1;" x1="970.5981" x2="970.5981" y1="551" y2="607"/><polygon fill="#0F172A" points="966.5981,597,970.5981,607,974.5981,597,970.5981,601" style="stroke:#0F172A;stroke-width:1;"/><line style="stroke:#0F172A;stroke-width:1;" x1="970.5981" x2="970.5981" y1="1721" y2="1738"/><line style="stroke:#0F172A;stroke-width:1;" x1="970.5981" x2="655.1711" y1="1738" y2="1738"/><line style="stroke:#0F172A;stroke-width:1;" x1="655.1711" x2="655.1711" y1="1738" y2="1947"/><polygon fill="#0F172A" points="651.1711,1937,655.1711,1947,659.1711,1937,655.1711,1941" style="stroke:#0F172A;stroke-width:1;"/><line style="stroke:#0F172A;stroke-width:1;" x1="655.1711" x2="655.1711" y1="507" y2="539"/><polygon fill="#0F172A" points="651.1711,529,655.1711,539,659.1711,529,655.1711,533" style="stroke:#0F172A;stroke-width:1;"/><?plantuml-src bLTXRnCv4Fs-lyBgVG4fQIcqm6s4JYKjK0dHgYtm9LBbh6SJNxtsdkrDBdVYlz-plRlPf1NYX13PzUpupVERvy4zI5rpoolcbboOjTGBLdBbA7FzofmN3mjh6YscHXdBVYiB_163244bRvJ_OBJ_mYjYdqYjoCk2FnrpA_yXTdmoMEJMcdMR_KLv_ERby4jjFBr_XA4ituZN-r762h9jnFpazDMBt_SYmlRj-gjN9yUdfuFrcBumLfDbnwypBxqYTbPukP9-myOCItHqtSoLB2xhQsFKi80kxD-CFK7OsvANHLWP0cmBPQpSWkhV2SaheyMZkkablIrV30A66O_52OctsyKFJoHsdbk_7qzz_ZvkplUo_iZYfnaA1ZNIQ7PmDNTaLyIu5kozrE80vUUt8OgLraHDMHAiL6Ozq-dX2D0MOCmTfUUnfSBeGYeQTnmUkjLYakKtn0LKusH8CQITkPgA4VCMt910OizzuqOHXI15dfZKdhIVPB9apmxkKY13BVHtZJJIiwlf9PC2CU7CQaiEF_yuUCxyaZHxjY7tFCi_aW_Fh6YinNBy1f6ciGMnbUGpZOWXi4b6w1psJ9ld0RupAdA3NQNpeRDsClWbpdMndEdFMDsfht6n3QNoP1raLmNAAq2ubsAKwYKGDBM47n7YFZIMrePPPteTQjC6WOtZSsYxuhvOCkaWG0WC6Q-n7y34b3RXZxGLCPlOOMscGR9XYNnKheKieP78-7aw1Kj_DUJmuHwp0mMboAYRzgEQ-oKO8CVIYnrcrjA3i90tgY9KkdS6WFi4em1wVl7vukxY77JgKbgKZlq3YUan2IT0-kMS3MXGBVEyM0R0QOl93Wc58gwREggpb9ehc9_59tWDhRYcAEWHGH1FPLRfQBVVy19ww1GUL94GxwWEpRTXSsMYu1F23W3EiSyLEDm1C3X1vqqzI3auhC-of6A3V6ogk7EoXCE7bN1yiUH0HbGd6X0bUhk9EdFa7nSOfP4aqX1RB-40BPaLbzeXmqnVtrnzkxozlFfo-UNZY7szFZ-xYxyYqVWrQS56vFi873EDTv1hgj4v1cDQa7UFiVZ6wj2eZMv3oqQntfX2A-3cIdJEzF34pwPtbzykTc3y638MF6mJZ_xSojApJ_YfqDnHyDFOsCIKNANI4t2-2FMd9fHLRQmF9bTAKWALs98Nr2hiWq6xZpMjOuz2o11dz1aHDnFGIU6V4jUVUDy6pQd4jHQthneVZnDsOCFVbBlTUj-77bD_szG9R4mKpltdCCxgMctOrrhi6HKp6ky3XZPFZq18Lok-kTUOCNPL_o3ho9SsOrDl2mbUqWaxlsdmmfeL567PabGT_Z7cmSrqyhTtlkmyz33vvqtx2DCTh7td4cEC_MxiGolZxx2b2ummjZlVcKuc-SuJsZIUQX4GlPlUN9m5YvYX8yNUdecARa-4f5OVXYHFwK9OT7JKFTFHojEj0Qh6O7v5gNxSFbGqdjoaLthN3u7Zm5fISV-wkr-khOb2wUqsUVsUazK69xS9XkAXst5iad5hihZUKmsJjkFHwQOz1GSw07Z48X7n5-ojGjxmC44VfNEBCWkZ6xDoiVHPErEqOqIU_Q-n8XiC9w7oDjcsrViv3aLcOSwGiSnUEEDvcYMcDr_FHsmD9OnIQAHcN2VAWlP4u4CvACtIOOPhnbkZ53B0dBdQRjG1Pro8JE6IGO1vW5_ZE3sc6aTGfqyqIyABn6YsRAMMvXvJK-pR2gaNl7Q76RTmAB-f2PCSj97ZKiDW6w_nCBH9T7V5DL-GpOeUd6E3cfyaA4Wg2zTmjviD9uwPtwoHtYrbVPYr-VCuCMTEDOkSrR739Im2SpF6Pf7lp7HRk3bRT437-q0JoqUz-FAjDe-odmemQo-Q_5V4b_Ks4Ll1vUq0n8RtqIHzIrbtBKswgxcxdJBNEs9qmdp7m80eTbThmD6p0A_ttTJ9BjkrtQWGbXIICrVmiZHAt0UYxuSKTzFZtkUZL57MNHOeJHjDMPHFq4txVDicPXL8HPKycl84T0D_C1u8O22RSLGDne5U3OcujhZ0PsL2Lno6fex_4ViF?></g></svg>