<?plantuml 1.2026.1?><svg xmlns="http://www.w3.org/2000/svg" xmlns:xlink="http://www.w3.org/1999/xlink" contentStyleType="text/css" data-diagram-type="ACTIVITY" height="2277px" preserveAspectRatio="none" style="width:1295px;height:2277px;background:#FCFCFD;" version="1.1" viewBox="0 0 1295 2277" width="1295px" zoomAndPan="magnify"><title>Activity - apmsynthetics/ApmSyntheticsOnPremiseVantagePointWorker</title><defs/><g><rect fill="#FCFCFD" height="2277" style="stroke:none;stroke-width:1;" width="1295" x="0" y="0"/><g class="title" data-source-line="10"><text fill="#000000" font-family="Helvetica" font-size="14" font-weight="bold" lengthAdjust="spacing" textLength="478.4609" x="406.8711" y="30.7803">Activity - apmsynthetics/ApmSyntheticsOnPremiseVantagePointWorker</text></g><ellipse cx="681.632" cy="55" fill="#1D4ED8" rx="10" ry="10" style="stroke:#222222;stroke-width:1;"/><rect fill="none" height="472" rx="8" ry="8" style="stroke:#000000;stroke-width:1.5;" width="749.7285" x="311.6315" y="75"/><path d="M433.6998,75 L433.6998,82 L423.6998,92 L311.6315,92" fill="none" style="stroke:#000000;stroke-width:1.5;"/><text fill="#000000" font-family="Helvetica" font-size="14" lengthAdjust="spacing" textLength="112.0684" x="314.6315" y="86.7803">Observe and Bind</text><rect fill="#F8FAFC" height="48" rx="8" ry="8" style="stroke:#0F172A;stroke-width:0.5;" width="304.7852" x="529.2394" y="109"/><text fill="#0F172A" font-family="Helvetica" font-size="14" lengthAdjust="spacing" textLength="136.9375" x="539.2394" y="129.7803">Start from shared flow</text><text fill="#0F172A" font-family="Helvetica" font-size="14" lengthAdjust="spacing" textLength="284.7852" x="539.2394" y="143.7803">shared/diagrams/shared-reconcile-activity.svg</text><rect fill="#F8FAFC" height="62" rx="8" ry="8" style="stroke:#0F172A;stroke-width:0.5;" width="349.9229" x="506.6705" y="177"/><text fill="#0F172A" font-family="Helvetica" font-size="14" lengthAdjust="spacing" textLength="83.2754" x="516.6705" y="197.7803">Read desired</text><text fill="#0F172A" font-family="Helvetica" font-size="14" lengthAdjust="spacing" textLength="329.9229" x="516.6705" y="211.7803">ApmSyntheticsOnPremiseVantagePointWorker spec,</text><text fill="#0F172A" font-family="Helvetica" font-size="14" lengthAdjust="spacing" textLength="198.4609" x="516.6705" y="225.7803">tracked status, and delete intent</text><polygon fill="#E2E8F0" points="552.1661,259,811.0978,259,823.0978,271,811.0978,283,552.1661,283,540.1661,271,552.1661,259" style="stroke:#1D4ED8;stroke-width:0.5;"/><text fill="#0F172A" font-family="Helvetica" font-size="14" lengthAdjust="spacing" textLength="258.9316" x="552.1661" y="274.7803">"Tracked or explicit OCI identity present?"</text><text fill="#000000" font-family="Helvetica" font-size="14" lengthAdjust="spacing" textLength="21.7861" x="518.38" y="267.7803">yes</text><text fill="#000000" font-family="Helvetica" font-size="14" lengthAdjust="spacing" textLength="15.5723" x="823.0978" y="267.7803">no</text><rect fill="#F8FAFC" height="48" rx="8" ry="8" style="stroke:#0F172A;stroke-width:0.5;" width="335.1367" x="331.6315" y="293"/><text fill="#0F172A" font-family="Helvetica" font-size="14" lengthAdjust="spacing" textLength="202.3027" x="341.6315" y="313.7803">Get the current OCI resource via</text><text fill="#0F172A" font-family="Helvetica" font-size="14" lengthAdjust="spacing" textLength="315.1367" x="341.6315" y="327.7803">GetApmSyntheticsOnPremiseVantagePointWorker</text><rect fill="#F8FAFC" height="62" rx="8" ry="8" style="stroke:#0F172A;stroke-width:0.5;" width="334.3574" x="696.8854" y="293"/><text fill="#0F172A" font-family="Helvetica" font-size="14" lengthAdjust="spacing" textLength="259.9092" x="706.8854" y="313.7803">Resolve an existing OCI resource through</text><text fill="#0F172A" font-family="Helvetica" font-size="14" lengthAdjust="spacing" textLength="314.3574" x="706.8854" y="327.7803">ListApmSyntheticsOnPremiseVantagePointWorker</text><text fill="#0F172A" font-family="Helvetica" font-size="14" lengthAdjust="spacing" textLength="213.2061" x="706.8854" y="341.7803">using filters compartment_id, state</text><rect fill="#F8FAFC" height="62" rx="8" ry="8" style="stroke:#0F172A;stroke-width:0.5;" width="354.5918" x="686.7682" y="375"/><text fill="#0F172A" font-family="Helvetica" font-size="14" lengthAdjust="spacing" textLength="174.2959" x="696.7682" y="395.7803">Create the OCI resource via</text><text fill="#0F172A" font-family="Helvetica" font-size="14" lengthAdjust="spacing" textLength="334.5918" x="696.7682" y="409.7803">CreateApmSyntheticsOnPremiseVantagePointWorker</text><text fill="#0F172A" font-family="Helvetica" font-size="14" lengthAdjust="spacing" textLength="205.4609" x="696.7682" y="423.7803">when no reusable match is found</text><rect fill="#F8FAFC" height="48" rx="8" ry="8" style="stroke:#0F172A;stroke-width:0.5;" width="286.8955" x="720.6163" y="457"/><text fill="#0F172A" font-family="Helvetica" font-size="14" lengthAdjust="spacing" textLength="266.8955" x="730.6163" y="477.7803">Persist the resolved or created OCI identity</text><text fill="#0F172A" font-family="Helvetica" font-size="14" lengthAdjust="spacing" textLength="63.8135" x="730.6163" y="491.7803">into status</text><polygon fill="#E2E8F0" points="681.632,511,693.632,523,681.632,535,669.632,523,681.632,511" style="stroke:#1D4ED8;stroke-width:0.5;"/><polygon fill="#E2E8F0" points="619.4557,567,743.8082,567,755.8082,579,743.8082,591,619.4557,591,607.4557,579,619.4557,567" style="stroke:#1D4ED8;stroke-width:0.5;"/><text fill="#0F172A" font-family="Helvetica" font-size="14" lengthAdjust="spacing" textLength="124.3525" x="619.4557" y="582.7803">"Delete requested?"</text><text fill="#000000" font-family="Helvetica" font-size="14" lengthAdjust="spacing" textLength="21.7861" x="585.6696" y="575.7803">yes</text><text fill="#000000" font-family="Helvetica" font-size="14" lengthAdjust="spacing" textLength="15.5723" x="755.8082" y="575.7803">no</text><rect fill="none" height="408" rx="8" ry="8" style="stroke:#000000;stroke-width:1.5;" width="644.4814" x="11" y="601"/><path d="M61.4688,601 L61.4688,608 L51.4688,618 L11,618" fill="none" style="stroke:#000000;stroke-width:1.5;"/><text fill="#000000" font-family="Helvetica" font-size="14" lengthAdjust="spacing" textLength="40.4688" x="14" y="612.7803">Delete</text><rect fill="#F8FAFC" height="104" rx="8" ry="8" style="stroke:#0F172A;stroke-width:0.5;" width="353.04" x="163.2241" y="635"/><text fill="#0F172A" font-family="Helvetica" font-size="14" lengthAdjust="spacing" textLength="105.0684" x="173.2241" y="655.7803">Delete path uses</text><text fill="#0F172A" font-family="Helvetica" font-size="14" lengthAdjust="spacing" textLength="333.04" x="173.2241" y="669.7803">DeleteApmSyntheticsOnPremiseVantagePointWorker</text><text fill="#0F172A" font-family="Helvetica" font-size="14" lengthAdjust="spacing" textLength="101.9375" x="173.2241" y="683.7803">with required via</text><text fill="#0F172A" font-family="Helvetica" font-size="14" lengthAdjust="spacing" textLength="331.4746" x="173.2241" y="697.7803">GetApmSyntheticsOnPremiseVantagePointWorker or</text><text fill="#0F172A" font-family="Helvetica" font-size="14" lengthAdjust="spacing" textLength="314.3574" x="173.2241" y="711.7803">ListApmSyntheticsOnPremiseVantagePointWorker</text><text fill="#0F172A" font-family="Helvetica" font-size="14" lengthAdjust="spacing" textLength="160.2822" x="173.2241" y="725.7803">to DELETED confirmation</text><rect fill="#F8FAFC" height="76" rx="8" ry="8" style="stroke:#0F172A;stroke-width:0.5;" width="351.4746" x="164.0068" y="766"/><text fill="#0F172A" font-family="Helvetica" font-size="14" lengthAdjust="spacing" textLength="123.7236" x="174.0068" y="786.7803">Confirm deletion via</text><text fill="#0F172A" font-family="Helvetica" font-size="14" lengthAdjust="spacing" textLength="331.4746" x="174.0068" y="800.7803">GetApmSyntheticsOnPremiseVantagePointWorker or</text><text fill="#0F172A" font-family="Helvetica" font-size="14" lengthAdjust="spacing" textLength="314.3574" x="174.0068" y="814.7803">ListApmSyntheticsOnPremiseVantagePointWorker</text><text fill="#0F172A" font-family="Helvetica" font-size="14" lengthAdjust="spacing" textLength="176.6201" x="174.0068" y="828.7803">until OCI reaches DELETED</text><polygon fill="#E2E8F0" points="191.5718,877,487.9165,877,499.9165,889,487.9165,901,191.5718,901,179.5718,889,191.5718,877" style="stroke:#1D4ED8;stroke-width:0.5;"/><text fill="#0F172A" font-family="Helvetica" font-size="14" lengthAdjust="spacing" textLength="296.3447" x="191.5718" y="892.7803">"Delete cleanup and finalizer release succeed?"</text><text fill="#000000" font-family="Helvetica" font-size="14" lengthAdjust="spacing" textLength="21.7861" x="157.7856" y="885.7803">yes</text><text fill="#000000" font-family="Helvetica" font-size="14" lengthAdjust="spacing" textLength="15.5723" x="499.9165" y="885.7803">no</text><rect fill="#F8FAFC" height="34" rx="8" ry="8" style="stroke:#0F172A;stroke-width:0.5;" width="293.1436" x="23" y="911"/><text fill="#0F172A" font-family="Helvetica" font-size="14" lengthAdjust="spacing" textLength="273.1436" x="33" y="931.7803">Remove the finalizer after delete completion</text><rect fill="#F8FAFC" height="48" rx="8" ry="8" style="stroke:#0F172A;stroke-width:0.5;" width="251.1299" x="384.3516" y="911"/><text fill="#0F172A" font-family="Helvetica" font-size="14" lengthAdjust="spacing" textLength="231.1299" x="394.3516" y="931.7803">Stay blocked until cleanup or finalizer</text><text fill="#0F172A" font-family="Helvetica" font-size="14" lengthAdjust="spacing" textLength="108.9512" x="394.3516" y="945.7803">release succeeds</text><polygon fill="#E2E8F0" points="339.7441,965,351.7441,977,339.7441,989,327.7441,977,339.7441,965" style="stroke:#1D4ED8;stroke-width:0.5;"/><ellipse cx="339.7441" cy="1054" fill="none" rx="11" ry="11" style="stroke:#222222;stroke-width:1;"/><ellipse cx="339.7441" cy="1054" fill="#222222" rx="6" ry="6" style="stroke:#222222;stroke-width:1;"/><rect fill="none" height="450" rx="8" ry="8" style="stroke:#000000;stroke-width:1.5;" width="345.916" x="856.5618" y="601"/><path d="M1007.3958,601 L1007.3958,608 L997.3958,618 L856.5618,618" fill="none" style="stroke:#000000;stroke-width:1.5;"/><text fill="#000000" font-family="Helvetica" font-size="14" lengthAdjust="spacing" textLength="140.834" x="859.5618" y="612.7803">Lifecycle Classification</text><rect fill="#F8FAFC" height="48" rx="8" ry="8" style="stroke:#0F172A;stroke-width:0.5;" width="280.5928" x="883.2234" y="684"/><text fill="#0F172A" font-family="Helvetica" font-size="14" lengthAdjust="spacing" textLength="240.4541" x="893.2234" y="704.7803">Request requeue while OCI remains in</text><text fill="#0F172A" font-family="Helvetica" font-size="14" lengthAdjust="spacing" textLength="260.5928" x="893.2234" y="718.7803">PROVISIONING, UPDATING, DELETING</text><ellipse cx="1023.5198" cy="770" fill="none" rx="11" ry="11" style="stroke:#222222;stroke-width:1;"/><ellipse cx="1023.5198" cy="770" fill="#222222" rx="6" ry="6" style="stroke:#222222;stroke-width:1;"/><polygon fill="#E2E8F0" points="937.2366,635,1109.803,635,1121.803,647,1109.803,659,937.2366,659,925.2366,647,937.2366,635" style="stroke:#1D4ED8;stroke-width:0.5;"/><text fill="#000000" font-family="Helvetica" font-size="14" lengthAdjust="spacing" textLength="21.7861" x="1027.5198" y="669.7803">yes</text><text fill="#0F172A" font-family="Helvetica" font-size="14" lengthAdjust="spacing" textLength="172.5664" x="937.2366" y="650.7803">"OCI state in retryable set?"</text><rect fill="#F8FAFC" height="48" rx="8" ry="8" style="stroke:#0F172A;stroke-width:0.5;" width="293.916" x="876.5618" y="896"/><text fill="#0F172A" font-family="Helvetica" font-size="14" lengthAdjust="spacing" textLength="273.916" x="886.5618" y="916.7803">Return an unsuccessful reconcile result until</text><text fill="#0F172A" font-family="Helvetica" font-size="14" lengthAdjust="spacing" textLength="133.041" x="886.5618" y="930.7803">OCI reaches ACTIVE</text><ellipse cx="1023.5198" cy="990" fill="none" rx="11" ry="11" style="stroke:#222222;stroke-width:1;"/><ellipse cx="1023.5198" cy="990" fill="#222222" rx="6" ry="6" style="stroke:#222222;stroke-width:1;"/><polygon fill="#E2E8F0" points="902.9988,847,1144.0408,847,1156.0408,859,1144.0408,871,902.9988,871,890.9988,859,902.9988,847" style="stroke:#1D4ED8;stroke-width:0.5;"/><text fill="#000000" font-family="Helvetica" font-size="14" lengthAdjust="spacing" textLength="21.7861" x="1027.5198" y="881.7803">yes</text><text fill="#0F172A" font-family="Helvetica" font-size="14" lengthAdjust="spacing" textLength="241.042" x="902.9988" y="862.7803">"OCI state is outside success targets?"</text><rect fill="none" height="736.5" rx="8" ry="8" style="stroke:#000000;stroke-width:1.5;" width="608.7217" x="675.4814" y="1075"/><path d="M841.9014,1075 L841.9014,1082 L831.9014,1092 L675.4814,1092" fill="none" style="stroke:#000000;stroke-width:1.5;"/><text fill="#000000" font-family="Helvetica" font-size="14" lengthAdjust="spacing" textLength="156.4199" x="678.4814" y="1086.7803">Ready and Drift Handling</text><rect fill="#F8FAFC" height="48" rx="8" ry="8" style="stroke:#0F172A;stroke-width:0.5;" width="296.2402" x="875.3997" y="1109"/><text fill="#0F172A" font-family="Helvetica" font-size="14" lengthAdjust="spacing" textLength="276.2402" x="885.3997" y="1129.7803">Compare live OCI state against the imported</text><text fill="#0F172A" font-family="Helvetica" font-size="14" lengthAdjust="spacing" textLength="75.4824" x="885.3997" y="1143.7803">field surface</text><rect fill="#F8FAFC" height="48" rx="8" ry="8" style="stroke:#0F172A;stroke-width:0.5;" width="302.4473" x="872.2961" y="1226"/><text fill="#0F172A" font-family="Helvetica" font-size="14" lengthAdjust="spacing" textLength="282.4473" x="882.2961" y="1246.7803">Reject drift before OCI mutation for force-new</text><text fill="#0F172A" font-family="Helvetica" font-size="14" lengthAdjust="spacing" textLength="136.9512" x="882.2961" y="1260.7803">fields compartment_id</text><ellipse cx="1023.5198" cy="1306.5" fill="none" rx="11" ry="11" style="stroke:#222222;stroke-width:1;"/><ellipse cx="1023.5198" cy="1306.5" fill="#222222" rx="6" ry="6" style="stroke:#222222;stroke-width:1;"/><polygon fill="#E2E8F0" points="897.9368,1177,1149.1028,1177,1161.1028,1189,1149.1028,1201,897.9368,1201,885.9368,1189,897.9368,1177" style="stroke:#1D4ED8;stroke-width:0.5;"/><text fill="#000000" font-family="Helvetica" font-size="14" lengthAdjust="spacing" textLength="21.7861" x="1027.5198" y="1211.7803">yes</text><text fill="#0F172A" font-family="Helvetica" font-size="14" lengthAdjust="spacing" textLength="251.166" x="897.9368" y="1192.7803">"Force-new or conflicting drift detected?"</text><polygon fill="#E2E8F0" points="913.092,1359.5,1133.9475,1359.5,1145.9475,1371.5,1133.9475,1383.5,913.092,1383.5,901.092,1371.5,913.092,1359.5" style="stroke:#1D4ED8;stroke-width:0.5;"/><text fill="#0F172A" font-family="Helvetica" font-size="14" lengthAdjust="spacing" textLength="220.8555" x="913.092" y="1375.2803">"Supported mutable drift detected?"</text><text fill="#000000" font-family="Helvetica" font-size="14" lengthAdjust="spacing" textLength="21.7861" x="879.3059" y="1368.2803">yes</text><text fill="#000000" font-family="Helvetica" font-size="14" lengthAdjust="spacing" textLength="15.5723" x="1145.9475" y="1368.2803">no</text><rect fill="#F8FAFC" height="62" rx="8" ry="8" style="stroke:#0F172A;stroke-width:0.5;" width="357.7158" x="695.4814" y="1393.5"/><text fill="#0F172A" font-family="Helvetica" font-size="14" lengthAdjust="spacing" textLength="35.0205" x="705.4814" y="1414.2803">Apply</text><text fill="#0F172A" font-family="Helvetica" font-size="14" lengthAdjust="spacing" textLength="337.7158" x="705.4814" y="1428.2803">UpdateApmSyntheticsOnPremiseVantagePointWorker</text><text fill="#0F172A" font-family="Helvetica" font-size="14" lengthAdjust="spacing" textLength="226.4541" x="705.4814" y="1442.2803">only for mutable fields display_name</text><rect fill="#F8FAFC" height="34" rx="8" ry="8" style="stroke:#0F172A;stroke-width:0.5;" width="199.0059" x="1073.1973" y="1393.5"/><text fill="#0F172A" font-family="Helvetica" font-size="14" lengthAdjust="spacing" textLength="179.0059" x="1083.1973" y="1414.2803">Skip the no-op mutation path</text><polygon fill="#E2E8F0" points="1023.5198,1461.5,1035.5198,1473.5,1023.5198,1485.5,1011.5198,1473.5,1023.5198,1461.5" style="stroke:#1D4ED8;stroke-width:0.5;"/><rect fill="#F8FAFC" height="118" rx="8" ry="8" style="stroke:#0F172A;stroke-width:0.5;" width="334.3164" x="856.3616" y="1505.5"/><text fill="#0F172A" font-family="Helvetica" font-size="14" lengthAdjust="spacing" textLength="164.2061" x="866.3616" y="1526.2803">Run provider helper hooks</text><text fill="#0F172A" font-family="Helvetica" font-size="14" lengthAdjust="spacing" textLength="219.0508" x="866.3616" y="1540.2803">create=tfresource.CreateResource,</text><text fill="#0F172A" font-family="Helvetica" font-size="14" lengthAdjust="spacing" textLength="314.3164" x="866.3616" y="1554.2803">tfresource.WaitForWorkRequestWithErrorHandling</text><text fill="#0F172A" font-family="Helvetica" font-size="14" lengthAdjust="spacing" textLength="215.5439" x="866.3616" y="1568.2803">entity=template action=CREATED;</text><text fill="#0F172A" font-family="Helvetica" font-size="14" lengthAdjust="spacing" textLength="226.085" x="866.3616" y="1582.2803">update=tfresource.UpdateResource;</text><text fill="#0F172A" font-family="Helvetica" font-size="14" lengthAdjust="spacing" textLength="273.5537" x="866.3616" y="1596.2803">delete=tfresource.DeleteResource when the</text><text fill="#0F172A" font-family="Helvetica" font-size="14" lengthAdjust="spacing" textLength="220.2334" x="866.3616" y="1610.2803">matching field-driven path executes</text><rect fill="#F8FAFC" height="34" rx="8" ry="8" style="stroke:#0F172A;stroke-width:0.5;" width="303.2197" x="871.9099" y="1643.5"/><text fill="#0F172A" font-family="Helvetica" font-size="14" lengthAdjust="spacing" textLength="283.2197" x="881.9099" y="1664.2803">Return success for the ACTIVE success state</text><rect fill="#F8FAFC" height="48" rx="8" ry="8" style="stroke:#0F172A;stroke-width:0.5;" width="279.1299" x="883.9548" y="1697.5"/><text fill="#0F172A" font-family="Helvetica" font-size="14" lengthAdjust="spacing" textLength="259.1299" x="893.9548" y="1718.2803">Project required status and finalizer policy</text><text fill="#0F172A" font-family="Helvetica" font-size="14" lengthAdjust="spacing" textLength="174.3027" x="893.9548" y="1732.2803">retain-until-confirmed-delete</text><rect fill="#F8FAFC" height="34" rx="8" ry="8" style="stroke:#0F172A;stroke-width:0.5;" width="313.4189" x="866.8103" y="1765.5"/><text fill="#0F172A" font-family="Helvetica" font-size="14" lengthAdjust="spacing" textLength="293.4189" x="876.8103" y="1786.2803">Requeue on provisioning, updating, terminating</text><path d="M712.632,1821.5 L712.632,2039.5 L692.632,2043.5 L712.632,2047.5 L712.632,2265.5 A0,0 0 0 0 712.632,2265.5 L1163.9679,2265.5 A0,0 0 0 0 1163.9679,2265.5 L1163.9679,1831.5 L1153.9679,1821.5 L712.632,1821.5 A0,0 0 0 0 712.632,1821.5" fill="#FFF7D6" style="stroke:#B45309;stroke-width:0.5;"/><path d="M1153.9679,1821.5 L1153.9679,1831.5 L1163.9679,1831.5 L1153.9679,1821.5" fill="#FFF7D6" style="stroke:#B45309;stroke-width:0.5;"/><text fill="#334155" font-family="Helvetica" font-size="14" lengthAdjust="spacing" textLength="101.165" x="718.632" y="1837.2803">shared diagram:</text><text fill="#334155" font-family="Helvetica" font-size="14" lengthAdjust="spacing" textLength="284.7852" x="718.632" y="1851.2803">shared/diagrams/shared-reconcile-activity.svg</text><text fill="#334155" font-family="Helvetica" font-size="14" lengthAdjust="spacing" textLength="265.3438" x="718.632" y="1865.2803">Start from the shared reconcile activity and</text><text fill="#334155" font-family="Helvetica" font-size="14" lengthAdjust="spacing" textLength="273.8955" x="718.632" y="1879.2803">specialize provider-backed CRUD, wait, and</text><text fill="#334155" font-family="Helvetica" font-size="14" lengthAdjust="spacing" textLength="182.875" x="718.632" y="1893.2803">status-projection details here.</text><text fill="#334155" font-family="Helvetica" font-size="14" lengthAdjust="spacing" textLength="229.5371" x="718.632" y="1907.2803">Controller-local activity diagrams add</text><text fill="#334155" font-family="Helvetica" font-size="14" lengthAdjust="spacing" textLength="238.8955" x="718.632" y="1921.2803">list-lookup hints, secret policies, delete</text><text fill="#334155" font-family="Helvetica" font-size="14" lengthAdjust="spacing" textLength="200.0332" x="718.632" y="1935.2803">handling, and open formal gaps.</text><text fill="#334155" font-family="Helvetica" font-size="14" lengthAdjust="spacing" textLength="281.709" x="718.632" y="1949.2803">archetype batch: Generated service-manager</text><text fill="#334155" font-family="Helvetica" font-size="14" lengthAdjust="spacing" textLength="291.0469" x="718.632" y="1963.2803">controllers specialize the shared reconcile path</text><text fill="#334155" font-family="Helvetica" font-size="14" lengthAdjust="spacing" textLength="189.8477" x="718.632" y="1977.2803">with formal runtime ownership.</text><text fill="#334155" font-family="Helvetica" font-size="14" lengthAdjust="spacing" textLength="141.6064" x="718.632" y="1991.2803">service: apmsynthetics</text><text fill="#334155" font-family="Helvetica" font-size="14" lengthAdjust="spacing" textLength="310.4951" x="718.632" y="2005.2803">slug: apmsyntheticsonpremisevantagepointworker</text><text fill="#334155" font-family="Helvetica" font-size="14" lengthAdjust="spacing" textLength="326.0332" x="718.632" y="2019.2803">kind: ApmSyntheticsOnPremiseVantagePointWorker</text><text fill="#334155" font-family="Helvetica" font-size="14" lengthAdjust="spacing" textLength="241.2402" x="718.632" y="2033.2803">archetype: generated-service-manager</text><text fill="#334155" font-family="Helvetica" font-size="14" lengthAdjust="spacing" textLength="156.4063" x="718.632" y="2047.2803">status/finalizer: required /</text><text fill="#334155" font-family="Helvetica" font-size="14" lengthAdjust="spacing" textLength="174.3027" x="718.632" y="2061.2803">retain-until-confirmed-delete</text><text fill="#334155" font-family="Helvetica" font-size="14" lengthAdjust="spacing" textLength="272.3984" x="718.632" y="2075.2803">requeue: provisioning, updating, terminating</text><text fill="#334155" font-family="Helvetica" font-size="14" lengthAdjust="spacing" textLength="295.6816" x="718.632" y="2089.2803">provider states: create PROVISIONING; update</text><text fill="#334155" font-family="Helvetica" font-size="14" lengthAdjust="spacing" textLength="192.165" x="718.632" y="2103.2803">UPDATING; delete DELETING</text><text fill="#334155" font-family="Helvetica" font-size="14" lengthAdjust="spacing" textLength="183.6611" x="718.632" y="2117.2803">supported drift: display_name</text><text fill="#334155" font-family="Helvetica" font-size="14" lengthAdjust="spacing" textLength="230.3301" x="718.632" y="2131.2803">reject before mutate: force-new fields</text><text fill="#334155" font-family="Helvetica" font-size="14" lengthAdjust="spacing" textLength="100.3789" x="718.632" y="2145.2803">compartment_id</text><text fill="#334155" font-family="Helvetica" font-size="14" lengthAdjust="spacing" textLength="66.1445" x="718.632" y="2159.2803">list lookup:</text><text fill="#334155" font-family="Helvetica" font-size="14" lengthAdjust="spacing" textLength="430.3359" x="718.632" y="2173.2803">scaffold_apmsynthetics_apmsyntheticsonpremisevantagepointworker</text><text fill="#334155" font-family="Helvetica" font-size="14" lengthAdjust="spacing" textLength="175.8477" x="718.632" y="2187.2803">filters compartment_id, state</text><text fill="#334155" font-family="Helvetica" font-size="14" lengthAdjust="spacing" textLength="89.4961" x="718.632" y="2201.2803">conflicts: none</text><text fill="#334155" font-family="Helvetica" font-size="14" lengthAdjust="spacing" textLength="104.3164" x="718.632" y="2215.2803">open gaps: none</text><text fill="#334155" font-family="Helvetica" font-size="14" lengthAdjust="spacing" textLength="224.9023" x="718.632" y="2229.2803">Scaffold metadata only; replace with</text><text fill="#334155" font-family="Helvetica" font-size="14" lengthAdjust="spacing" textLength="244.3232" x="718.632" y="2243.2803">controller-specific runtime states before</text><text fill="#334155" font-family="Helvetica" font-size="14" lengthAdjust="spacing" textLength="66.1445" x="718.632" y="2257.2803">promotion.</text><ellipse cx="681.632" cy="2043.5" fill="none" rx="11" ry="11" style="stroke:#222222;stroke-width:1;"/><ellipse cx="681.632" cy="2043.5" fill="#222222" rx="6" ry="6" style="stroke:#222222;stroke-width:1;"/><line style="stroke:#0F172A;stroke-width:1;" x1="681.632" x2="681.632" y1="157" y2="177"/><polygon fill="#0F172A" points="677.632,167,681.632,177,685.632,167,681.632,171" style="stroke:#0F172A;stroke-width:1;"/><line style="stroke:#0F172A;stroke-width:1;" x1="864.0641" x2="864.0641" y1="355" y2="375"/><polygon fill="#0F172A" points="860.0641,365,864.0641,375,868.0641,365,864.0641,369" style="stroke:#0F172A;stroke-width:1;"/><line style="stroke:#0F172A;stroke-width:1;" x1="864.0641" x2="864.0641" y1="437" y2="457"/><polygon fill="#0F172A" points="860.0641,447,864.0641,457,868.0641,447,864.0641,451" style="stroke:#0F172A;stroke-width:1;"/><line style="stroke:#0F172A;stroke-width:1;" x1="540.1661" x2="499.1998" y1="271" y2="271"/><line style="stroke:#0F172A;stroke-width:1;" x1="499.1998" x2="499.1998" y1="271" y2="293"/><polygon fill="#0F172A" points="495.1998,283,499.1998,293,503.1998,283,499.1998,287" style="stroke:#0F172A;stroke-width:1;"/><line style="stroke:#0F172A;stroke-width:1;" x1="823.0978" x2="864.0641" y1="271" y2="271"/><line style="stroke:#0F172A;stroke-width:1;" x1="864.0641" x2="864.0641" y1="271" y2="293"/><polygon fill="#0F172A" points="860.0641,283,864.0641,293,868.0641,283,864.0641,287" style="stroke:#0F172A;stroke-width:1;"/><line style="stroke:#0F172A;stroke-width:1;" x1="499.1998" x2="499.1998" y1="341" y2="523"/><line style="stroke:#0F172A;stroke-width:1;" x1="499.1998" x2="669.632" y1="523" y2="523"/><polygon fill="#0F172A" points="659.632,519,669.632,523,659.632,527,663.632,523" style="stroke:#0F172A;stroke-width:1;"/><line style="stroke:#0F172A;stroke-width:1;" x1="864.0641" x2="864.0641" y1="505" y2="523"/><line style="stroke:#0F172A;stroke-width:1;" x1="864.0641" x2="693.632" y1="523" y2="523"/><polygon fill="#0F172A" points="703.632,519,693.632,523,703.632,527,699.632,523" style="stroke:#0F172A;stroke-width:1;"/><line style="stroke:#0F172A;stroke-width:1;" x1="681.632" x2="681.632" y1="239" y2="259"/><polygon fill="#0F172A" points="677.632,249,681.632,259,685.632,249,681.632,253" style="stroke:#0F172A;stroke-width:1;"/><line style="stroke:#0F172A;stroke-width:1;" x1="681.632" x2="681.632" y1="65" y2="109"/><polygon fill="#0F172A" points="677.632,99,681.632,109,685.632,99,681.632,103" style="stroke:#0F172A;stroke-width:1;"/><line style="stroke:#0F172A;stroke-width:1;" x1="339.7441" x2="339.7441" y1="739" y2="766"/><polygon fill="#0F172A" points="335.7441,756,339.7441,766,343.7441,756,339.7441,760" style="stroke:#0F172A;stroke-width:1;"/><line style="stroke:#0F172A;stroke-width:1;" x1="179.5718" x2="169.5718" y1="889" y2="889"/><line style="stroke:#0F172A;stroke-width:1;" x1="169.5718" x2="169.5718" y1="889" y2="911"/><polygon fill="#0F172A" points="165.5718,901,169.5718,911,173.5718,901,169.5718,905" style="stroke:#0F172A;stroke-width:1;"/><line style="stroke:#0F172A;stroke-width:1;" x1="499.9165" x2="509.9165" y1="889" y2="889"/><line style="stroke:#0F172A;stroke-width:1;" x1="509.9165" x2="509.9165" y1="889" y2="911"/><polygon fill="#0F172A" points="505.9165,901,509.9165,911,513.9165,901,509.9165,905" style="stroke:#0F172A;stroke-width:1;"/><line style="stroke:#0F172A;stroke-width:1;" x1="169.5718" x2="169.5718" y1="945" y2="977"/><line style="stroke:#0F172A;stroke-width:1;" x1="169.5718" x2="327.7441" y1="977" y2="977"/><polygon fill="#0F172A" points="317.7441,973,327.7441,977,317.7441,981,321.7441,977" style="stroke:#0F172A;stroke-width:1;"/><line style="stroke:#0F172A;stroke-width:1;" x1="509.9165" x2="509.9165" y1="959" y2="977"/><line style="stroke:#0F172A;stroke-width:1;" x1="509.9165" x2="351.7441" y1="977" y2="977"/><polygon fill="#0F172A" points="361.7441,973,351.7441,977,361.7441,981,357.7441,977" style="stroke:#0F172A;stroke-width:1;"/><line style="stroke:#0F172A;stroke-width:1;" x1="339.7441" x2="339.7441" y1="842" y2="877"/><polygon fill="#0F172A" points="335.7441,867,339.7441,877,343.7441,867,339.7441,871" style="stroke:#0F172A;stroke-width:1;"/><line style="stroke:#0F172A;stroke-width:1;" x1="339.7441" x2="339.7441" y1="989" y2="1043"/><polygon fill="#0F172A" points="335.7441,1033,339.7441,1043,343.7441,1033,339.7441,1037" style="stroke:#0F172A;stroke-width:1;"/><line style="stroke:#0F172A;stroke-width:1;" x1="1023.5198" x2="1023.5198" y1="732" y2="759"/><polygon fill="#0F172A" points="1019.5198,749,1023.5198,759,1027.5198,749,1023.5198,753" style="stroke:#0F172A;stroke-width:1;"/><line style="stroke:#0F172A;stroke-width:1;" x1="1023.5198" x2="1023.5198" y1="659" y2="684"/><polygon fill="#0F172A" points="1019.5198,674,1023.5198,684,1027.5198,674,1023.5198,678" style="stroke:#0F172A;stroke-width:1;"/><line style="stroke:#0F172A;stroke-width:1;" x1="1121.803" x2="1173.8162" y1="647" y2="647"/><polygon fill="#0F172A" points="1169.8162,723.5,1173.8162,733.5,1177.8162,723.5,1173.8162,727.5" style="stroke:#0F172A;stroke-width:1;"/><line style="stroke:#0F172A;stroke-width:1;" x1="1173.8162" x2="1173.8162" y1="647" y2="812"/><line style="stroke:#0F172A;stroke-width:1;" x1="1173.8162" x2="1023.5198" y1="812" y2="812"/><line style="stroke:#0F172A;stroke-width:1;" x1="1023.5198" x2="1023.5198" y1="812" y2="847"/><polygon fill="#0F172A" points="1019.5198,837,1023.5198,847,1027.5198,837,1023.5198,841" style="stroke:#0F172A;stroke-width:1;"/><line style="stroke:#0F172A;stroke-width:1;" x1="1023.5198" x2="1023.5198" y1="944" y2="979"/><polygon fill="#0F172A" points="1019.5198,969,1023.5198,979,1027.5198,969,1023.5198,973" style="stroke:#0F172A;stroke-width:1;"/><line style="stroke:#0F172A;stroke-width:1;" x1="1023.5198" x2="1023.5198" y1="871" y2="896"/><polygon fill="#0F172A" points="1019.5198,886,1023.5198,896,1027.5198,886,1023.5198,890" style="stroke:#0F172A;stroke-width:1;"/><line style="stroke:#0F172A;stroke-width:1;" x1="1156.0408" x2="1180.4778" y1="859" y2="859"/><polygon fill="#0F172A" points="1176.4778,935.5,1180.4778,945.5,1184.4778,935.5,1180.4778,939.5" style="stroke:#0F172A;stroke-width:1;"/><line style="stroke:#0F172A;stroke-width:1;" x1="1180.4778" x2="1180.4778" y1="859" y2="1031"/><line style="stroke:#0F172A;stroke-width:1;" x1="1180.4778" x2="1023.5198" y1="1031" y2="1031"/><line style="stroke:#0F172A;stroke-width:1;" x1="1023.5198" x2="1023.5198" y1="1031" y2="1109"/><polygon fill="#0F172A" points="1019.5198,1099,1023.5198,1109,1027.5198,1099,1023.5198,1103" style="stroke:#0F172A;stroke-width:1;"/><line style="stroke:#0F172A;stroke-width:1;" x1="1023.5198" x2="1023.5198" y1="1274" y2="1295.5"/><polygon fill="#0F172A" points="1019.5198,1285.5,1023.5198,1295.5,1027.5198,1285.5,1023.5198,1289.5" style="stroke:#0F172A;stroke-width:1;"/><line style="stroke:#0F172A;stroke-width:1;" x1="1023.5198" x2="1023.5198" y1="1201" y2="1226"/><polygon fill="#0F172A" points="1019.5198,1216,1023.5198,1226,1027.5198,1216,1023.5198,1220" style="stroke:#0F172A;stroke-width:1;"/><line style="stroke:#0F172A;stroke-width:1;" x1="1161.1028" x2="1184.7434" y1="1189" y2="1189"/><polygon fill="#0F172A" points="1180.7434,1265.5,1184.7434,1275.5,1188.7434,1265.5,1184.7434,1269.5" style="stroke:#0F172A;stroke-width:1;"/><line style="stroke:#0F172A;stroke-width:1;" x1="1184.7434" x2="1184.7434" y1="1189" y2="1339.5"/><line style="stroke:#0F172A;stroke-width:1;" x1="1184.7434" x2="1023.5198" y1="1339.5" y2="1339.5"/><line style="stroke:#0F172A;stroke-width:1;" x1="1023.5198" x2="1023.5198" y1="1339.5" y2="1359.5"/><polygon fill="#0F172A" points="1019.5198,1349.5,1023.5198,1359.5,1027.5198,1349.5,1023.5198,1353.5" style="stroke:#0F172A;stroke-width:1;"/><line style="stroke:#0F172A;stroke-width:1;" x1="1023.5198" x2="1023.5198" y1="1157" y2="1177"/><polygon fill="#0F172A" points="1019.5198,1167,1023.5198,1177,1027.5198,1167,1023.5198,1171" style="stroke:#0F172A;stroke-width:1;"/><line style="stroke:#0F172A;stroke-width:1;" x1="901.092" x2="874.3394" y1="1371.5" y2="1371.5"/><line style="stroke:#0F172A;stroke-width:1;" x1="874.3394" x2="874.3394" y1="1371.5" y2="1393.5"/><polygon fill="#0F172A" points="870.3394,1383.5,874.3394,1393.5,878.3394,1383.5,874.3394,1387.5" style="stroke:#0F172A;stroke-width:1;"/><line style="stroke:#0F172A;stroke-width:1;" x1="1145.9475" x2="1172.7002" y1="1371.5" y2="1371.5"/><line style="stroke:#0F172A;stroke-width:1;" x1="1172.7002" x2="1172.7002" y1="1371.5" y2="1393.5"/><polygon fill="#0F172A" points="1168.7002,1383.5,1172.7002,1393.5,1176.7002,1383.5,1172.7002,1387.5" style="stroke:#0F172A;stroke-width:1;"/><line style="stroke:#0F172A;stroke-width:1;" x1="874.3394" x2="874.3394" y1="1455.5" y2="1473.5"/><line style="stroke:#0F172A;stroke-width:1;" x1="874.3394" x2="1011.5198" y1="1473.5" y2="1473.5"/><polygon fill="#0F172A" points="1001.5198,1469.5,1011.5198,1473.5,1001.5198,1477.5,1005.5198,1473.5" style="stroke:#0F172A;stroke-width:1;"/><line style="stroke:#0F172A;stroke-width:1;" x1="1172.7002" x2="1172.7002" y1="1427.5" y2="1473.5"/><line style="stroke:#0F172A;stroke-width:1;" x1="1172.7002" x2="1035.5198" y1="1473.5" y2="1473.5"/><polygon fill="#0F172A" points="1045.5198,1469.5,1035.5198,1473.5,1045.5198,1477.5,1041.5198,1473.5" style="stroke:#0F172A;stroke-width:1;"/><line style="stroke:#0F172A;stroke-width:1;" x1="1023.5198" x2="1023.5198" y1="1485.5" y2="1505.5"/><polygon fill="#0F172A" points="1019.5198,1495.5,1023.5198,1505.5,1027.5198,1495.5,1023.5198,1499.5" style="stroke:#0F172A;stroke-width:1;"/><line style="stroke:#0F172A;stroke-width:1;" x1="1023.5198" x2="1023.5198" y1="1623.5" y2="1643.5"/><polygon fill="#0F172A" points="1019.5198,1633.5,1023.5198,1643.5,1027.5198,1633.5,1023.5198,1637.5" style="stroke:#0F172A;stroke-width:1;"/><line style="stroke:#0F172A;stroke-width:1;" x1="1023.5198" x2="1023.5198" y1="1677.5" y2="1697.5"/><polygon fill="#0F172A" points="1019.5198,1687.5,1023.5198,1697.5,1027.5198,1687.5,1023.5198,1691.5" style="stroke:#0F172A;stroke-width:1;"/><line style="stroke:#0F172A;stroke-width:1;" x1="1023.5198" x2="1023.5198" y1="1745.5" y2="1765.5"/><polygon fill="#0F172A" points="1019.5198,1755.5,1023.5198,1765.5,1027.5198,1755.5,1023.5198,1759.5" style="stroke:#0F172A;stroke-width:1;"/><line style="stroke:#0F172A;stroke-width:1;" x1="607.4557" x2="339.7441" y1="579" y2="579"/><line style="stroke:#0F172A;stroke-width:1;" x1="339.7441" x2="339.7441" y1="579" y2="635"/><polygon fill="#0F172A" points="335.7441,625,339.7441,635,343.7441,625,339.7441,629" style="stroke:#0F172A;stroke-width:1;"/><line style="stroke:#0F172A;stroke-width:1;" x1="755.8082" x2="1023.5198" y1="579" y2="579"/><line style="stroke:#0F172A;stroke-width:1;" x1="1023.5198" x2="1023.5198" y1="579" y2="635"/><polygon fill="#0F172A" points="1019.5198,625,1023.5198,635,1027.5198,625,1023.5198,629" style="stroke:#0F172A;stroke-width:1;"/><line style="stroke:#0F172A;stroke-width:1;" x1="1023.5198" x2="1023.5198" y1="1799.5" y2="1816.5"/><line style="stroke:#0F172A;stroke-width:1;" x1="1023.5198" x2="681.632" y1="1816.5" y2="1816.5"/><line style="stroke:#0F172A;stroke-width:1;" x1="681.632" x2="681.632" y1="1816.5" y2="2032.5"/><polygon fill="#0F172A" points="677.632,2022.5,681.632,2032.5,685.632,2022.5,681.632,2026.5" style="stroke:#0F172A;stroke-width:1;"/><line style="stroke:#0F172A;stroke-width:1;" x1="681.632" x2="681.632" y1="535" y2="567"/><polygon fill="#0F172A" points="677.632,557,681.632,567,685.632,557,681.632,561" style="stroke:#0F172A;stroke-width:1;"/><?plantuml-src lLVRRjiu47tNLn3PbnQ8awPDBskZMAHEsWOecY19snS30IsDR6ueKajIzdeN_VSzl4YMxQ1mNXQ14KaSpVNCcP5z4AhcXbVCpdcXbqBDMCcbfSns9rEUFyoCRbGnrb8RzbkPuw_eIHHKyaQwZrgvhxmYzfdaWfp8-UCoj-8VOYUdlKDkZ5ucxI_AaxSl-sygxUZ3ZWzb-RPuiosbJK4cIKnFNxzwyVkMX3UVpb-zEZrv_Rft7jJdsYWoxEHDveIJnCvo9nR2hTY0yRgoA-NcFZ9xV5PNjztTbResL0bBtxboV4RNMYZtGvi7ClqeMrt_PkoHhBuhUPdxatuKAHkCbMlFksU5u9LMnKvow2MzAr_q1FeQJufJAjwj3py-ejWwRjosF7NwExaftzBwCmklPWWO-HDQiOEhgIMp8CPLmJu8LHmW_E6jbsAbqG5uXWfMIhsSg7Xp3DTco9WzZlS3GxbMkP0qQ7DuP1UpKJQy8Lu0MbP0QgBshGcpDUM74-KCCWVRyDarzZ2uM90aHmoofDme4oLxTd2Nv10e_LrBaGl7hiQNJ1IGyGMj3LbS_d7mdC6wOizMP9zdmq_a_3tB6sDm7Dw1f6vCJcmX-4H1Ob-dHncXBzapfP_xkAsM8QdmI5Zd-tP3kvi34BFvH7t1wRuc9ggnWG64T6GiotNb2rd1ztjH78Oy4R8-DeIB4DfkIF5mVvDBdp2beQMnV8gMgxZBvqnOG1wGXhbh-88eWZqJ0m-ro8EbOgCK4mNLEbKKALE5A87AKCRpM5f3VpLayU9MkNgOZP81gUcbchivQopPYOfFdX2WmAlUg0VfaykEG9zQHCH_Vl7bukxY71LKfJ38ACBoXOkt4UG-ql_1cmPraGadF9-JRPqRRLGbbyHLKuSUB8NY4aF2u1Ky1kfja-UqKp6qGQKN4OZhTtW9yBPzx24SOzte7_3FYasb3cqTFMmT0B0wNHErvK0FKjRfkgUoXvulegHy1NriBBcreiGaz2SUJo5adupGIw0PXEZCAW3VajiDC60rOhOXjfo315CoAowKXOQ9khwv-dvvUtdrzVBhfqFsxVhyx2vSXKJZQfIS3PvlUs2PRfn5_yGOhMNWvXavk-kBQupobDEe95esadNSx7iJ4pwcSwBw5JyRtrr-lzXmusS_Ovx6Lw7qvqQKZdt6fGGJXGuS1nOY9iKYXXuTvpCVVsG5KTNQE3y2Ia4IXDwOakUK4FPHWvm6YfQ1DD02OF30c4KmLW0dkNiCN7_YUHAQKgbDD5yrBfGJ_6JyB-fEfhT9SpVrjqqTdGsAVDr_xSPPNKlGshUwU1AjQYLNmSFMIdAl4BQMV7MliAXjjiI3g4CobHxeUXsbPxuMzSER1W-CNW0kXir9rlwVrW-WnSZ6xrtPZeEZE0bkqgsVj-kp7rnW5pJUsuJn7w392-o1fYt-H4LAV-y8FHnAddkFtezlBiuyVu1RGbBwDcEQMfiGYJpG5uc4qugmC7yGzqI5mHFd7r8rG5aM5EF7aAMySMH7NHkqpU9JxBCM8TuzRaVbjT41HHt_nycqHNEr1YHNdcqSG3q87JH8t8tr9yOmIdG06j2f2XRfWCE7B2GYN87xAkZrDoCqMQnRmA3VVvaHixdBqiwLrgnXzgIrA-ijRpxof6pD0zsUYo0plsg946O7dC4qhbFZcs_dXsm991n6qP2QGHrJvh5N-7n82wGPEiemlPpHKa83c9lBjQ7MSSQB8fCOJn3G3o1pbDDXiRC4TBgOPa5u43EQpHFKukgdQmfDNK7rZDVsAEC6zELMDM7J1JQ6x1FXwo0i7Nwf5MZzYYkqdidopZdBUZ4_cY0FgIoi1ScQyHN7XvDUGhsTY_eeI_g7cvyTcPNDREkPLdMaWKMaWThJm39-VE3RenYolRzLkdY7RDP6EjYED9Rfk4FlS0tku-oN2CxI61lkWzwiuvdGItQOzZtMdtQZ-2vbxT0RjOE_dNsPxVWsyEnmWm7XKMZFHE-1zE1Un-g9DRDDKWyGOn5YQ9wSbwMMnVr6LUxthj4lj-sidLU87vnEMG2fHsUwlqtMMONC8nMSUUOVeIO8qjCRODO3vo1W4nj9XxcOtPG1d_HA-zuxyjGHlfd_0m00?></g></svg>