<?plantuml 1.2026.1?><svg xmlns="http://www.w3.org/2000/svg" xmlns:xlink="http://www.w3.org/1999/xlink" contentStyleType="text/css" data-diagram-type="ACTIVITY" height="1469px" preserveAspectRatio="none" style="width:847px;height:1469px;background:#FCFCFD;" version="1.1" viewBox="0 0 847 1469" width="847px" zoomAndPan="magnify"><title>Activity - networkfirewall/NetworkFirewallNetworkFirewallPolicyDecryptionRules</title><defs/><g><rect fill="#FCFCFD" height="1469" style="stroke:none;stroke-width:1;" width="847" x="0" y="0"/><g class="title" data-source-line="10"><text fill="#000000" font-family="Helvetica" font-size="14" font-weight="bold" lengthAdjust="spacing" textLength="536.04" x="154.2617" y="30.7803">Activity - networkfirewall/NetworkFirewallNetworkFirewallPolicyDecryptionRules</text></g><ellipse cx="424.5627" cy="55" fill="#1D4ED8" rx="10" ry="10" style="stroke:#222222;stroke-width:1;"/><rect fill="#F8FAFC" height="48" rx="8" ry="8" style="stroke:#0F172A;stroke-width:0.5;" width="304.7852" x="272.1702" y="85"/><text fill="#0F172A" font-family="Helvetica" font-size="14" lengthAdjust="spacing" textLength="136.9375" x="282.1702" y="105.7803">Start from shared flow</text><text fill="#0F172A" font-family="Helvetica" font-size="14" lengthAdjust="spacing" textLength="284.7852" x="282.1702" y="119.7803">shared/diagrams/shared-reconcile-activity.svg</text><rect fill="#F8FAFC" height="62" rx="8" ry="8" style="stroke:#0F172A;stroke-width:0.5;" width="359.1992" x="244.9631" y="153"/><text fill="#0F172A" font-family="Helvetica" font-size="14" lengthAdjust="spacing" textLength="80.9512" x="254.9631" y="173.7803">Load desired</text><text fill="#0F172A" font-family="Helvetica" font-size="14" lengthAdjust="spacing" textLength="339.1992" x="254.9631" y="187.7803">NetworkFirewallNetworkFirewallPolicyDecryptionRules</text><text fill="#0F172A" font-family="Helvetica" font-size="14" lengthAdjust="spacing" textLength="205.4473" x="254.9631" y="201.7803">spec and status from Kubernetes</text><rect fill="#F8FAFC" height="90" rx="8" ry="8" style="stroke:#0F172A;stroke-width:0.5;" width="381.7646" x="233.6804" y="235"/><text fill="#0F172A" font-family="Helvetica" font-size="14" lengthAdjust="spacing" textLength="135.3857" x="243.6804" y="255.7803">Resolve OCI state via</text><text fill="#0F172A" font-family="Helvetica" font-size="14" lengthAdjust="spacing" textLength="361.7646" x="243.6804" y="269.7803">GetNetworkFirewallNetworkFirewallPolicyDecryptionRules</text><text fill="#0F172A" font-family="Helvetica" font-size="14" lengthAdjust="spacing" textLength="24.8965" x="243.6804" y="283.7803">with</text><text fill="#0F172A" font-family="Helvetica" font-size="14" lengthAdjust="spacing" textLength="360.9854" x="243.6804" y="297.7803">ListNetworkFirewallNetworkFirewallPolicyDecryptionRules</text><text fill="#0F172A" font-family="Helvetica" font-size="14" lengthAdjust="spacing" textLength="47.4688" x="243.6804" y="311.7803">fallback</text><rect fill="#F8FAFC" height="76" rx="8" ry="8" style="stroke:#0F172A;stroke-width:0.5;" width="492.3086" x="178.4084" y="345"/><text fill="#0F172A" font-family="Helvetica" font-size="14" lengthAdjust="spacing" textLength="24.8965" x="188.4084" y="365.7803">Use</text><text fill="#0F172A" font-family="Helvetica" font-size="14" lengthAdjust="spacing" textLength="472.3086" x="188.4084" y="379.7803">scaffold_networkfirewall_networkfirewallnetworkfirewallpolicydecryptionrules</text><text fill="#0F172A" font-family="Helvetica" font-size="14" lengthAdjust="spacing" textLength="297.2402" x="188.4084" y="393.7803">filters compartment_id, state when OCID lookup</text><text fill="#0F172A" font-family="Helvetica" font-size="14" lengthAdjust="spacing" textLength="259.9023" x="188.4084" y="407.7803">or bind-versus-create needs list resolution</text><polygon fill="#E2E8F0" points="370.8733,441,478.2522,441,490.2522,453,478.2522,465,370.8733,465,358.8733,453,370.8733,441" style="stroke:#1D4ED8;stroke-width:0.5;"/><text fill="#0F172A" font-family="Helvetica" font-size="14" lengthAdjust="spacing" textLength="107.3789" x="370.8733" y="456.7803">Resource exists?</text><text fill="#000000" font-family="Helvetica" font-size="14" lengthAdjust="spacing" textLength="21.7861" x="337.0872" y="449.7803">yes</text><text fill="#000000" font-family="Helvetica" font-size="14" lengthAdjust="spacing" textLength="15.5723" x="490.2522" y="449.7803">no</text><rect fill="#F8FAFC" height="48" rx="8" ry="8" style="stroke:#0F172A;stroke-width:0.5;" width="404.3438" x="11" y="475"/><text fill="#0F172A" font-family="Helvetica" font-size="14" lengthAdjust="spacing" textLength="108.1787" x="21" y="495.7803">Update path calls</text><text fill="#0F172A" font-family="Helvetica" font-size="14" lengthAdjust="spacing" textLength="384.3438" x="21" y="509.7803">UpdateNetworkFirewallNetworkFirewallPolicyDecryptionRules</text><rect fill="#F8FAFC" height="48" rx="8" ry="8" style="stroke:#0F172A;stroke-width:0.5;" width="266.7021" x="79.8208" y="543"/><text fill="#0F172A" font-family="Helvetica" font-size="14" lengthAdjust="spacing" textLength="246.7021" x="89.8208" y="563.7803">Guard mutable fields display_name and</text><text fill="#0F172A" font-family="Helvetica" font-size="14" lengthAdjust="spacing" textLength="202.3096" x="89.8208" y="577.7803">force-new fields compartment_id</text><rect fill="#F8FAFC" height="48" rx="8" ry="8" style="stroke:#0F172A;stroke-width:0.5;" width="401.2197" x="435.3438" y="475"/><text fill="#0F172A" font-family="Helvetica" font-size="14" lengthAdjust="spacing" textLength="105.0547" x="445.3438" y="495.7803">Create path calls</text><text fill="#0F172A" font-family="Helvetica" font-size="14" lengthAdjust="spacing" textLength="381.2197" x="445.3438" y="509.7803">CreateNetworkFirewallNetworkFirewallPolicyDecryptionRules</text><polygon fill="#E2E8F0" points="424.5627,597,436.5627,609,424.5627,621,412.5627,609,424.5627,597" style="stroke:#1D4ED8;stroke-width:0.5;"/><rect fill="#F8FAFC" height="104" rx="8" ry="8" style="stroke:#0F172A;stroke-width:0.5;" width="334.3164" x="257.4045" y="641"/><text fill="#0F172A" font-family="Helvetica" font-size="14" lengthAdjust="spacing" textLength="164.2061" x="267.4045" y="661.7803">Run provider helper hooks</text><text fill="#0F172A" font-family="Helvetica" font-size="14" lengthAdjust="spacing" textLength="219.0508" x="267.4045" y="675.7803">create=tfresource.CreateResource,</text><text fill="#0F172A" font-family="Helvetica" font-size="14" lengthAdjust="spacing" textLength="314.3164" x="267.4045" y="689.7803">tfresource.WaitForWorkRequestWithErrorHandling</text><text fill="#0F172A" font-family="Helvetica" font-size="14" lengthAdjust="spacing" textLength="215.5439" x="267.4045" y="703.7803">entity=template action=CREATED;</text><text fill="#0F172A" font-family="Helvetica" font-size="14" lengthAdjust="spacing" textLength="226.085" x="267.4045" y="717.7803">update=tfresource.UpdateResource;</text><text fill="#0F172A" font-family="Helvetica" font-size="14" lengthAdjust="spacing" textLength="212.8438" x="267.4045" y="731.7803">delete=tfresource.DeleteResource</text><rect fill="#F8FAFC" height="34" rx="8" ry="8" style="stroke:#0F172A;stroke-width:0.5;" width="263.5918" x="292.7668" y="765"/><text fill="#0F172A" font-family="Helvetica" font-size="14" lengthAdjust="spacing" textLength="243.5918" x="302.7668" y="785.7803">Apply repo-authored secret policy none</text><rect fill="#F8FAFC" height="118" rx="8" ry="8" style="stroke:#0F172A;stroke-width:0.5;" width="399.668" x="224.7288" y="819"/><text fill="#0F172A" font-family="Helvetica" font-size="14" lengthAdjust="spacing" textLength="105.0684" x="234.7288" y="839.7803">Delete path uses</text><text fill="#0F172A" font-family="Helvetica" font-size="14" lengthAdjust="spacing" textLength="379.668" x="234.7288" y="853.7803">DeleteNetworkFirewallNetworkFirewallPolicyDecryptionRules</text><text fill="#0F172A" font-family="Helvetica" font-size="14" lengthAdjust="spacing" textLength="101.9375" x="234.7288" y="867.7803">with required via</text><text fill="#0F172A" font-family="Helvetica" font-size="14" lengthAdjust="spacing" textLength="361.7646" x="234.7288" y="881.7803">GetNetworkFirewallNetworkFirewallPolicyDecryptionRules</text><text fill="#0F172A" font-family="Helvetica" font-size="14" lengthAdjust="spacing" textLength="12.4482" x="234.7288" y="895.7803">or</text><text fill="#0F172A" font-family="Helvetica" font-size="14" lengthAdjust="spacing" textLength="360.9854" x="234.7288" y="909.7803">ListNetworkFirewallNetworkFirewallPolicyDecryptionRules</text><text fill="#0F172A" font-family="Helvetica" font-size="14" lengthAdjust="spacing" textLength="160.2822" x="234.7288" y="923.7803">to DELETED confirmation</text><rect fill="#F8FAFC" height="48" rx="8" ry="8" style="stroke:#0F172A;stroke-width:0.5;" width="279.1299" x="284.9978" y="957"/><text fill="#0F172A" font-family="Helvetica" font-size="14" lengthAdjust="spacing" textLength="259.1299" x="294.9978" y="977.7803">Project required status and finalizer policy</text><text fill="#0F172A" font-family="Helvetica" font-size="14" lengthAdjust="spacing" textLength="174.3027" x="294.9978" y="991.7803">retain-until-confirmed-delete</text><rect fill="#F8FAFC" height="34" rx="8" ry="8" style="stroke:#0F172A;stroke-width:0.5;" width="313.4189" x="267.8533" y="1025"/><text fill="#0F172A" font-family="Helvetica" font-size="14" lengthAdjust="spacing" textLength="293.4189" x="277.8533" y="1045.7803">Requeue on provisioning, updating, terminating</text><path d="M455.5627,1069 L455.5627,1259 L435.5627,1263 L455.5627,1267 L455.5627,1457 A0,0 0 0 0 455.5627,1457 L815.762,1457 A0,0 0 0 0 815.762,1457 L815.762,1079 L805.762,1069 L455.5627,1069 A0,0 0 0 0 455.5627,1069" fill="#FFF7D6" style="stroke:#B45309;stroke-width:0.5;"/><path d="M805.762,1069 L805.762,1079 L815.762,1079 L805.762,1069" fill="#FFF7D6" style="stroke:#B45309;stroke-width:0.5;"/><text fill="#334155" font-family="Helvetica" font-size="14" lengthAdjust="spacing" textLength="101.165" x="461.5627" y="1084.7803">shared diagram:</text><text fill="#334155" font-family="Helvetica" font-size="14" lengthAdjust="spacing" textLength="284.7852" x="461.5627" y="1098.7803">shared/diagrams/shared-reconcile-activity.svg</text><text fill="#334155" font-family="Helvetica" font-size="14" lengthAdjust="spacing" textLength="265.3438" x="461.5627" y="1112.7803">Start from the shared reconcile activity and</text><text fill="#334155" font-family="Helvetica" font-size="14" lengthAdjust="spacing" textLength="273.8955" x="461.5627" y="1126.7803">specialize provider-backed CRUD, wait, and</text><text fill="#334155" font-family="Helvetica" font-size="14" lengthAdjust="spacing" textLength="182.875" x="461.5627" y="1140.7803">status-projection details here.</text><text fill="#334155" font-family="Helvetica" font-size="14" lengthAdjust="spacing" textLength="229.5371" x="461.5627" y="1154.7803">Controller-local activity diagrams add</text><text fill="#334155" font-family="Helvetica" font-size="14" lengthAdjust="spacing" textLength="238.8955" x="461.5627" y="1168.7803">list-lookup hints, secret policies, delete</text><text fill="#334155" font-family="Helvetica" font-size="14" lengthAdjust="spacing" textLength="200.0332" x="461.5627" y="1182.7803">handling, and open formal gaps.</text><text fill="#334155" font-family="Helvetica" font-size="14" lengthAdjust="spacing" textLength="281.709" x="461.5627" y="1196.7803">archetype batch: Generated service-manager</text><text fill="#334155" font-family="Helvetica" font-size="14" lengthAdjust="spacing" textLength="291.0469" x="461.5627" y="1210.7803">controllers specialize the shared reconcile path</text><text fill="#334155" font-family="Helvetica" font-size="14" lengthAdjust="spacing" textLength="189.8477" x="461.5627" y="1224.7803">with formal runtime ownership.</text><text fill="#334155" font-family="Helvetica" font-size="14" lengthAdjust="spacing" textLength="144.71" x="461.5627" y="1238.7803">service: networkfirewall</text><text fill="#334155" font-family="Helvetica" font-size="14" lengthAdjust="spacing" textLength="29.5723" x="461.5627" y="1252.7803">slug:</text><text fill="#334155" font-family="Helvetica" font-size="14" lengthAdjust="spacing" textLength="315.9023" x="461.5627" y="1266.7803">networkfirewallnetworkfirewallpolicydecryptionrules</text><text fill="#334155" font-family="Helvetica" font-size="14" lengthAdjust="spacing" textLength="29.5723" x="461.5627" y="1280.7803">kind:</text><text fill="#334155" font-family="Helvetica" font-size="14" lengthAdjust="spacing" textLength="339.1992" x="461.5627" y="1294.7803">NetworkFirewallNetworkFirewallPolicyDecryptionRules</text><text fill="#334155" font-family="Helvetica" font-size="14" lengthAdjust="spacing" textLength="241.2402" x="461.5627" y="1308.7803">archetype: generated-service-manager</text><text fill="#334155" font-family="Helvetica" font-size="14" lengthAdjust="spacing" textLength="156.4063" x="461.5627" y="1322.7803">status/finalizer: required /</text><text fill="#334155" font-family="Helvetica" font-size="14" lengthAdjust="spacing" textLength="174.3027" x="461.5627" y="1336.7803">retain-until-confirmed-delete</text><text fill="#334155" font-family="Helvetica" font-size="14" lengthAdjust="spacing" textLength="272.3984" x="461.5627" y="1350.7803">requeue: provisioning, updating, terminating</text><text fill="#334155" font-family="Helvetica" font-size="14" lengthAdjust="spacing" textLength="295.6816" x="461.5627" y="1364.7803">provider states: create PROVISIONING; update</text><text fill="#334155" font-family="Helvetica" font-size="14" lengthAdjust="spacing" textLength="192.165" x="461.5627" y="1378.7803">UPDATING; delete DELETING</text><text fill="#334155" font-family="Helvetica" font-size="14" lengthAdjust="spacing" textLength="319.04" x="461.5627" y="1392.7803">mutable/forceNew: display_name / compartment_id</text><text fill="#334155" font-family="Helvetica" font-size="14" lengthAdjust="spacing" textLength="104.3164" x="461.5627" y="1406.7803">open gaps: none</text><text fill="#334155" font-family="Helvetica" font-size="14" lengthAdjust="spacing" textLength="224.9023" x="461.5627" y="1420.7803">Scaffold metadata only; replace with</text><text fill="#334155" font-family="Helvetica" font-size="14" lengthAdjust="spacing" textLength="244.3232" x="461.5627" y="1434.7803">controller-specific runtime states before</text><text fill="#334155" font-family="Helvetica" font-size="14" lengthAdjust="spacing" textLength="66.1445" x="461.5627" y="1448.7803">promotion.</text><ellipse cx="424.5627" cy="1263" fill="none" rx="11" ry="11" style="stroke:#222222;stroke-width:1;"/><ellipse cx="424.5627" cy="1263" fill="#222222" rx="6" ry="6" style="stroke:#222222;stroke-width:1;"/><line style="stroke:#0F172A;stroke-width:1;" x1="424.5627" x2="424.5627" y1="65" y2="85"/><polygon fill="#0F172A" points="420.5627,75,424.5627,85,428.5627,75,424.5627,79" style="stroke:#0F172A;stroke-width:1;"/><line style="stroke:#0F172A;stroke-width:1;" x1="424.5627" x2="424.5627" y1="133" y2="153"/><polygon fill="#0F172A" points="420.5627,143,424.5627,153,428.5627,143,424.5627,147" style="stroke:#0F172A;stroke-width:1;"/><line style="stroke:#0F172A;stroke-width:1;" x1="424.5627" x2="424.5627" y1="215" y2="235"/><polygon fill="#0F172A" points="420.5627,225,424.5627,235,428.5627,225,424.5627,229" style="stroke:#0F172A;stroke-width:1;"/><line style="stroke:#0F172A;stroke-width:1;" x1="424.5627" x2="424.5627" y1="325" y2="345"/><polygon fill="#0F172A" points="420.5627,335,424.5627,345,428.5627,335,424.5627,339" style="stroke:#0F172A;stroke-width:1;"/><line style="stroke:#0F172A;stroke-width:1;" x1="213.1719" x2="213.1719" y1="523" y2="543"/><polygon fill="#0F172A" points="209.1719,533,213.1719,543,217.1719,533,213.1719,537" style="stroke:#0F172A;stroke-width:1;"/><line style="stroke:#0F172A;stroke-width:1;" x1="358.8733" x2="213.1719" y1="453" y2="453"/><line style="stroke:#0F172A;stroke-width:1;" x1="213.1719" x2="213.1719" y1="453" y2="475"/><polygon fill="#0F172A" points="209.1719,465,213.1719,475,217.1719,465,213.1719,469" style="stroke:#0F172A;stroke-width:1;"/><line style="stroke:#0F172A;stroke-width:1;" x1="490.2522" x2="635.9536" y1="453" y2="453"/><line style="stroke:#0F172A;stroke-width:1;" x1="635.9536" x2="635.9536" y1="453" y2="475"/><polygon fill="#0F172A" points="631.9536,465,635.9536,475,639.9536,465,635.9536,469" style="stroke:#0F172A;stroke-width:1;"/><line style="stroke:#0F172A;stroke-width:1;" x1="213.1719" x2="213.1719" y1="591" y2="609"/><line style="stroke:#0F172A;stroke-width:1;" x1="213.1719" x2="412.5627" y1="609" y2="609"/><polygon fill="#0F172A" points="402.5627,605,412.5627,609,402.5627,613,406.5627,609" style="stroke:#0F172A;stroke-width:1;"/><line style="stroke:#0F172A;stroke-width:1;" x1="635.9536" x2="635.9536" y1="523" y2="609"/><line style="stroke:#0F172A;stroke-width:1;" x1="635.9536" x2="436.5627" y1="609" y2="609"/><polygon fill="#0F172A" points="446.5627,605,436.5627,609,446.5627,613,442.5627,609" style="stroke:#0F172A;stroke-width:1;"/><line style="stroke:#0F172A;stroke-width:1;" x1="424.5627" x2="424.5627" y1="421" y2="441"/><polygon fill="#0F172A" points="420.5627,431,424.5627,441,428.5627,431,424.5627,435" style="stroke:#0F172A;stroke-width:1;"/><line style="stroke:#0F172A;stroke-width:1;" x1="424.5627" x2="424.5627" y1="621" y2="641"/><polygon fill="#0F172A" points="420.5627,631,424.5627,641,428.5627,631,424.5627,635" style="stroke:#0F172A;stroke-width:1;"/><line style="stroke:#0F172A;stroke-width:1;" x1="424.5627" x2="424.5627" y1="745" y2="765"/><polygon fill="#0F172A" points="420.5627,755,424.5627,765,428.5627,755,424.5627,759" style="stroke:#0F172A;stroke-width:1;"/><line style="stroke:#0F172A;stroke-width:1;" x1="424.5627" x2="424.5627" y1="799" y2="819"/><polygon fill="#0F172A" points="420.5627,809,424.5627,819,428.5627,809,424.5627,813" style="stroke:#0F172A;stroke-width:1;"/><line style="stroke:#0F172A;stroke-width:1;" x1="424.5627" x2="424.5627" y1="937" y2="957"/><polygon fill="#0F172A" points="420.5627,947,424.5627,957,428.5627,947,424.5627,951" style="stroke:#0F172A;stroke-width:1;"/><line style="stroke:#0F172A;stroke-width:1;" x1="424.5627" x2="424.5627" y1="1005" y2="1025"/><polygon fill="#0F172A" points="420.5627,1015,424.5627,1025,428.5627,1015,424.5627,1019" style="stroke:#0F172A;stroke-width:1;"/><line style="stroke:#0F172A;stroke-width:1;" x1="424.5627" x2="424.5627" y1="1059" y2="1252"/><polygon fill="#0F172A" points="420.5627,1242,424.5627,1252,428.5627,1242,424.5627,1246" style="stroke:#0F172A;stroke-width:1;"/><?plantuml-src fLPTJ-Cu57tthx2qBupKj33039CAhTWM63Iee38iBvMG6zyqNXmxOplDTbVxt-SwJjEGGQlTZdWejg_ln_6vvyQ-25Kmmt9gCyPr9TIAfanQ8BOzMRBaPMLqgVX4IsteBsc2VxnZmI5bfNHNMhaPou5-1ha69nBsjis3-0leqKdda1cZgyRxONhqyNttfj8EVliXXpJzo3_qhRJXO1gBvSdfyU6ddeKFtvmV7vySdPvspcltYJOA33twG9nm4kX5uiHQk0sDg09NQVEI2WCLat8q2-khPjrRtcifaiqK4hCfdD1gNagmtPAtZlycz0s8prAM9lwaMr833QNfhensZmkMQyL_G0hUmrbws37eUZpY9y3FTeTNRpYsZXdNjuVMVsktP3sl_v3wAeaV_0zDZQvfPe3JLEfgeS9YXB5N28aTXNLa8D4g4HAYBKX3krwDINoh6KSYMOIOBzGU-6F80XBA5FTLkTA6fBwKIy1dTs0no1oiHlhIkybDRGHqBTX2NOFRAs0bNBPGjyBkTnsRKNfsO6AF5Z3_XAMfblovnyR-khSiQk-yzMuQxq8wC9OcEaTMkXoKUnPyqDHTPQ0y35CgjNufYuN2nrqAnQCrNYfjb1ZmTWg0MognH6eyUAMFC2OYfGSUpD8aGE5FFBQ_lgFEEptOW7s75HNSto-OosY2MM96OMiFg12Wwv8PJlFIiILsRYf0ObfSs4AopRFomeGFZqLhJ2XIK6rDNbS_9e3wHm-KnWmdeS9kXc5hhmonQKIA32iLBOnU2-n3ce4i_0yYZCu3ekSkDGrmmn1kY-DWeJfdJqoWe9edZ3o7RoLOzuHikqGnDP-nL8bglb1O5NRGkOCSSS1QV4zfTJwPNrvylPoE5wgi8U_638-mZOac72IyDfdMEwq9YI-AGcxm_GiTiT9bsdUvHG30qK0-r5_b3SFD06bfFGl3pjxTXK6_bLuIVgvHjVc9DdMQJYzlBn5GP1EsbSbPQ8ButkW_876x91lXyHgK2iKa3aFJGBHG21SJAYhnpMJKU4953FZNueJFN0BL3OCi1i5N7j3w4Ul_iA5pzEiNOnHWNH0_-AWHgyoHHduRnOt9_r9Wqj5nREEjbhV6kvc6nH6ljA8khoLxv9KCRqpcZzC1hP2zWs1QGn8L0Iei2KKUSP0MkyF0a4nmAXaj9NgG6jjm5sYRE6MS4wz0KP0gcWdbxE0L0mNWHa2IP4rxrF6fBb2JK1PoTBrYXHqIPf8CtAO0d6ekoM9w3VXPW4tXIMtM0WKaPugjm92aJSxIJirl0kH9JshEDj6CVsaK9bsXUvk9OaWQ_t7_UuDOMQvYieVE4_peu37PvtkbnI6cgoq2KH-1y7oZbitnZkmZyg-C9YRmEVulR2QjPjRZoSQqcJ_tyxlVRnvkxcOti-jnk0layNvwyRNU2A52V-86QGR4g9u3CwZYrpDYr9i7f6Q7fqLSInXvQ4OmpR4qZCMm6-LcxBLFCXnr_dqxh8XgKgGYQHyxf4-NW1c0hohN7l6Xdm_rL-ft?></g></svg>