<?plantuml 1.2026.1?><svg xmlns="http://www.w3.org/2000/svg" xmlns:xlink="http://www.w3.org/1999/xlink" contentStyleType="text/css" data-diagram-type="STATE" height="625px" preserveAspectRatio="none" style="width:4089px;height:625px;background:#FCFCFD;" version="1.1" viewBox="0 0 4089 625" width="4089px" zoomAndPan="magnify"><title>State Machine - networkfirewall/NetworkFirewallNetworkFirewallPolicyDecryptionRules</title><defs/><g><rect fill="#FCFCFD" height="625" style="stroke:none;stroke-width:1;" width="4089" x="0" y="0"/><g class="title" data-source-line="10"><text fill="#000000" font-family="Helvetica" font-size="14" font-weight="bold" lengthAdjust="spacing" textLength="579.6055" x="1747.9802" y="20.7803">State Machine - networkfirewall/NetworkFirewallNetworkFirewallPolicyDecryptionRules</text></g><g><rect fill="#F8FAFC" height="62" rx="8" ry="8" style="stroke:#0F172A;stroke-width:0.5;" width="264.3643" x="469" y="423"/><line style="stroke:#0F172A;stroke-width:0.5;" x1="469" x2="733.3643" y1="447" y2="447"/><text fill="#0F172A" font-family="Helvetica" font-size="14" lengthAdjust="spacing" textLength="52.9102" x="574.7271" y="438.7803">Observe</text><text fill="#0F172A" font-family="Helvetica" font-size="14" lengthAdjust="spacing" textLength="244.3643" x="474" y="462.7803">read spec, tracked status, delete intent,</text><text fill="#0F172A" font-family="Helvetica" font-size="14" lengthAdjust="spacing" textLength="153.2822" x="474" y="476.7803">and current OCI lifecycle</text></g><rect fill="#F8FAFC" height="40" rx="8" ry="8" style="stroke:#0F172A;stroke-width:0.5;" width="104.9512" x="1530.36" y="266"/><text fill="#0F172A" font-family="Helvetica" font-size="14" lengthAdjust="spacing" textLength="94.9512" x="1535.36" y="289.7803">EvaluateReady</text><rect fill="#F8FAFC" height="40" rx="8" ry="8" style="stroke:#0F172A;stroke-width:0.5;" width="50.4688" x="2289.32" y="266"/><text fill="#0F172A" font-family="Helvetica" font-size="14" lengthAdjust="spacing" textLength="40.4688" x="2294.32" y="289.7803">Ready</text><rect fill="#F8FAFC" height="40" rx="8" ry="8" style="stroke:#0F172A;stroke-width:0.5;" width="69.917" x="1547.88" y="401"/><text fill="#0F172A" font-family="Helvetica" font-size="14" lengthAdjust="spacing" textLength="59.917" x="1552.88" y="424.7803">Retryable</text><rect fill="#F8FAFC" height="40" rx="8" ry="8" style="stroke:#0F172A;stroke-width:0.5;" width="50" x="1557.84" y="520"/><text fill="#0F172A" font-family="Helvetica" font-size="14" lengthAdjust="spacing" textLength="38.1309" x="1563.7746" y="543.7803">Failed</text><rect fill="#F8FAFC" height="40" rx="8" ry="8" style="stroke:#0F172A;stroke-width:0.5;" width="122.8477" x="1011.44" y="377"/><text fill="#0F172A" font-family="Helvetica" font-size="14" lengthAdjust="spacing" textLength="112.8477" x="1016.44" y="400.7803">ResolveByLookup</text><rect fill="#F8FAFC" height="40" rx="8" ry="8" style="stroke:#0F172A;stroke-width:0.5;" width="155.5098" x="1864.56" y="356"/><text fill="#0F172A" font-family="Helvetica" font-size="14" lengthAdjust="spacing" textLength="145.5098" x="1869.56" y="379.7803">RejectUnsupportedDrift</text><rect fill="#F8FAFC" height="40" rx="8" ry="8" style="stroke:#0F172A;stroke-width:0.5;" width="90.165" x="1897.23" y="195"/><text fill="#0F172A" font-family="Helvetica" font-size="14" lengthAdjust="spacing" textLength="80.165" x="1902.23" y="218.7803">ApplyUpdate</text><rect fill="#F8FAFC" height="40" rx="8" ry="8" style="stroke:#0F172A;stroke-width:0.5;" width="101.8477" x="2701.51" y="520"/><text fill="#0F172A" font-family="Helvetica" font-size="14" lengthAdjust="spacing" textLength="91.8477" x="2706.51" y="543.7803">DeletePending</text><rect fill="#F8FAFC" height="40" rx="8" ry="8" style="stroke:#0F172A;stroke-width:0.5;" width="58.2549" x="4000.86" y="447"/><text fill="#0F172A" font-family="Helvetica" font-size="14" lengthAdjust="spacing" textLength="48.2549" x="4005.86" y="470.7803">Deleted</text><rect fill="#F8FAFC" height="40" rx="8" ry="8" style="stroke:#0F172A;stroke-width:0.5;" width="152.4268" x="3449.26" y="447"/><text fill="#0F172A" font-family="Helvetica" font-size="14" lengthAdjust="spacing" textLength="142.4268" x="3454.26" y="470.7803">DeleteCleanupBlocked</text><ellipse cx="16" cy="454" fill="#222222" rx="10" ry="10" style="stroke:#222222;stroke-width:1;"/><g class="entity" data-qualified-name="GMN2" data-source-line="55" id="ent0003"><path d="M2505.78,49 L2505.78,271.98 L2340.23,284.7 L2505.78,279.98 L2505.78,477 A8,8 0 0 0 2513.78,485 L2991.0886,485 A8,8 0 0 0 2999.0886,477 L2999.0886,51 L2989.0886,41 L2513.78,41 A8,8 0 0 0 2505.78,49" fill="#FFF7D6" style="stroke:#B45309;stroke-width:0.5;"/><path d="M2989.0886,41 L2989.0886,47 A4,4 0 0 0 2993.0886,51 L2999.0886,51 L2989.0886,41" fill="#FFF7D6" style="stroke:#B45309;stroke-width:0.5;"/><text fill="#334155" font-family="Helvetica" font-size="14" lengthAdjust="spacing" textLength="101.165" x="2511.78" y="56.7803">shared diagram:</text><text fill="#334155" font-family="Helvetica" font-size="14" lengthAdjust="spacing" textLength="331.4814" x="2511.78" y="70.7803">shared/diagrams/shared-controller-state-machine.svg</text><text fill="#334155" font-family="Helvetica" font-size="14" lengthAdjust="spacing" textLength="304.2744" x="2511.78" y="84.7803">Start from the shared controller phase model and</text><text fill="#334155" font-family="Helvetica" font-size="14" lengthAdjust="spacing" textLength="261.4678" x="2511.78" y="98.7803">specialize imported provider states, delete</text><text fill="#334155" font-family="Helvetica" font-size="14" lengthAdjust="spacing" textLength="184.4336" x="2511.78" y="112.7803">targets, and failure exits here.</text><text fill="#334155" font-family="Helvetica" font-size="14" lengthAdjust="spacing" textLength="281.709" x="2511.78" y="126.7803">archetype batch: Generated service-manager</text><text fill="#334155" font-family="Helvetica" font-size="14" lengthAdjust="spacing" textLength="287.9229" x="2511.78" y="140.7803">controllers map provider states into the shared</text><text fill="#334155" font-family="Helvetica" font-size="14" lengthAdjust="spacing" textLength="261.4609" x="2511.78" y="154.7803">controller phases with explicit finalizer and</text><text fill="#334155" font-family="Helvetica" font-size="14" lengthAdjust="spacing" textLength="105.8477" x="2511.78" y="168.7803">requeue policies.</text><text fill="#334155" font-family="Helvetica" font-size="14" lengthAdjust="spacing" textLength="144.71" x="2511.78" y="182.7803">service: networkfirewall</text><text fill="#334155" font-family="Helvetica" font-size="14" lengthAdjust="spacing" textLength="29.5723" x="2511.78" y="196.7803">slug:</text><text fill="#334155" font-family="Helvetica" font-size="14" lengthAdjust="spacing" textLength="315.9023" x="2511.78" y="210.7803">networkfirewallnetworkfirewallpolicydecryptionrules</text><text fill="#334155" font-family="Helvetica" font-size="14" lengthAdjust="spacing" textLength="29.5723" x="2511.78" y="224.7803">kind:</text><text fill="#334155" font-family="Helvetica" font-size="14" lengthAdjust="spacing" textLength="339.1992" x="2511.78" y="238.7803">NetworkFirewallNetworkFirewallPolicyDecryptionRules</text><text fill="#334155" font-family="Helvetica" font-size="14" lengthAdjust="spacing" textLength="241.2402" x="2511.78" y="252.7803">archetype: generated-service-manager</text><text fill="#334155" font-family="Helvetica" font-size="14" lengthAdjust="spacing" textLength="156.4063" x="2511.78" y="266.7803">status/finalizer: required /</text><text fill="#334155" font-family="Helvetica" font-size="14" lengthAdjust="spacing" textLength="174.3027" x="2511.78" y="280.7803">retain-until-confirmed-delete</text><text fill="#334155" font-family="Helvetica" font-size="14" lengthAdjust="spacing" textLength="272.3984" x="2511.78" y="294.7803">requeue: provisioning, updating, terminating</text><text fill="#334155" font-family="Helvetica" font-size="14" lengthAdjust="spacing" textLength="295.6816" x="2511.78" y="308.7803">provider states: create PROVISIONING; update</text><text fill="#334155" font-family="Helvetica" font-size="14" lengthAdjust="spacing" textLength="192.165" x="2511.78" y="322.7803">UPDATING; delete DELETING</text><text fill="#334155" font-family="Helvetica" font-size="14" lengthAdjust="spacing" textLength="183.6611" x="2511.78" y="336.7803">supported drift: display_name</text><text fill="#334155" font-family="Helvetica" font-size="14" lengthAdjust="spacing" textLength="230.3301" x="2511.78" y="350.7803">reject before mutate: force-new fields</text><text fill="#334155" font-family="Helvetica" font-size="14" lengthAdjust="spacing" textLength="100.3789" x="2511.78" y="364.7803">compartment_id</text><text fill="#334155" font-family="Helvetica" font-size="14" lengthAdjust="spacing" textLength="66.1445" x="2511.78" y="378.7803">list lookup:</text><text fill="#334155" font-family="Helvetica" font-size="14" lengthAdjust="spacing" textLength="472.3086" x="2511.78" y="392.7803">scaffold_networkfirewall_networkfirewallnetworkfirewallpolicydecryptionrules</text><text fill="#334155" font-family="Helvetica" font-size="14" lengthAdjust="spacing" textLength="175.8477" x="2511.78" y="406.7803">filters compartment_id, state</text><text fill="#334155" font-family="Helvetica" font-size="14" lengthAdjust="spacing" textLength="89.4961" x="2511.78" y="420.7803">conflicts: none</text><text fill="#334155" font-family="Helvetica" font-size="14" lengthAdjust="spacing" textLength="104.3164" x="2511.78" y="434.7803">open gaps: none</text><text fill="#334155" font-family="Helvetica" font-size="14" lengthAdjust="spacing" textLength="224.9023" x="2511.78" y="448.7803">Scaffold metadata only; replace with</text><text fill="#334155" font-family="Helvetica" font-size="14" lengthAdjust="spacing" textLength="244.3232" x="2511.78" y="462.7803">controller-specific runtime states before</text><text fill="#334155" font-family="Helvetica" font-size="14" lengthAdjust="spacing" textLength="66.1445" x="2511.78" y="476.7803">promotion.</text></g><g class="entity" data-qualified-name="GMN5" data-source-line="88" id="ent0006"><path d="M3334.09,530 L3334.09,557.82 L2803.73,541.89 L3334.09,565.82 L3334.09,608 A8,8 0 0 0 3342.09,616 L3708.8546,616 A8,8 0 0 0 3716.8546,608 L3716.8546,532 L3706.8546,522 L3342.09,522 A8,8 0 0 0 3334.09,530" fill="#FFF7D6" style="stroke:#B45309;stroke-width:0.5;"/><path d="M3706.8546,522 L3706.8546,528 A4,4 0 0 0 3710.8546,532 L3716.8546,532 L3706.8546,522" fill="#FFF7D6" style="stroke:#B45309;stroke-width:0.5;"/><text fill="#334155" font-family="Helvetica" font-size="14" lengthAdjust="spacing" textLength="136.9717" x="3340.09" y="537.7803">delete policy: required</text><text fill="#334155" font-family="Helvetica" font-size="14" lengthAdjust="spacing" textLength="95.7305" x="3340.09" y="551.7803">delete observe:</text><text fill="#334155" font-family="Helvetica" font-size="14" lengthAdjust="spacing" textLength="361.7646" x="3340.09" y="565.7803">GetNetworkFirewallNetworkFirewallPolicyDecryptionRules</text><text fill="#334155" font-family="Helvetica" font-size="14" lengthAdjust="spacing" textLength="12.4482" x="3340.09" y="579.7803">or</text><text fill="#334155" font-family="Helvetica" font-size="14" lengthAdjust="spacing" textLength="360.9854" x="3340.09" y="593.7803">ListNetworkFirewallNetworkFirewallPolicyDecryptionRules</text><text fill="#334155" font-family="Helvetica" font-size="14" lengthAdjust="spacing" textLength="157.1855" x="3340.09" y="607.7803">delete targets: DELETED</text></g><!--link *start* to observe--><g class="link" data-entity-1="ent0002" data-entity-2="ent0002" data-link-type="dependency" data-source-line="32" id="lnk3"><path d="M26.16,454 C75.72,454 309.19,454 462.75,454" fill="none" id="*start*-to-observe" style="stroke:#0F172A;stroke-width:1;"/><polygon fill="#0F172A" points="468.75,454,459.75,450,463.75,454,459.75,458,468.75,454" style="stroke:#0F172A;stroke-width:1;"/><text fill="#000000" font-family="Helvetica" font-size="14" lengthAdjust="spacing" textLength="381.2197" x="57" y="449.7803">CreateNetworkFirewallNetworkFirewallPolicyDecryptionRules</text></g><!--link observe to resolve_by_lookup--><g class="link" data-entity-1="ent0002" data-entity-2="ent0007" data-link-type="dependency" data-source-line="33" id="lnk4"><path d="M733.64,438.05 C824.55,427.01 935.3337,413.5731 1005.1837,405.0931" fill="none" id="observe-to-resolve_by_lookup" style="stroke:#0F172A;stroke-width:1;"/><polygon fill="#0F172A" points="1011.14,404.37,1001.7235,401.4838,1006.1764,404.9726,1002.6877,409.4255,1011.14,404.37" style="stroke:#0F172A;stroke-width:1;"/><text fill="#000000" font-family="Helvetica" font-size="14" lengthAdjust="spacing" textLength="145.5029" x="764.36" y="412.8403">tracked identity missing</text></g><!--link resolve_by_lookup to evaluate_ready--><g class="link" data-entity-1="ent0007" data-entity-2="ent0003" data-link-type="dependency" data-source-line="34" id="lnk5"><path d="M1134.57,385.58 C1248.1,364.19 1482.77,319.79 1500.36,315 C1510.07,312.36 1514.6038,311.0543 1524.3838,307.7043" fill="none" id="resolve_by_lookup-to-evaluate_ready" style="stroke:#0F172A;stroke-width:1;"/><polygon fill="#0F172A" points="1530.06,305.76,1520.2494,304.8923,1525.3298,307.3803,1522.8419,312.4606,1530.06,305.76" style="stroke:#0F172A;stroke-width:1;"/><text fill="#000000" font-family="Helvetica" font-size="14" lengthAdjust="spacing" textLength="154.0889" x="1290.86" y="296.7803">lookup or create reaches</text><text fill="#000000" font-family="Helvetica" font-size="14" lengthAdjust="spacing" textLength="50.5654" x="1342.6217" y="310.7803">ACTIVE</text></g><!--link resolve_by_lookup to retryable--><g class="link" data-entity-1="ent0007" data-entity-2="ent0005" data-link-type="dependency" data-source-line="35" id="lnk6"><path d="M1134.63,399.87 C1242.21,404.95 1456.8067,415.0973 1541.5967,419.0973" fill="none" id="resolve_by_lookup-to-retryable" style="stroke:#0F172A;stroke-width:1;"/><polygon fill="#0F172A" points="1547.59,419.38,1538.7885,414.9603,1542.5956,419.1444,1538.4115,422.9514,1547.59,419.38" style="stroke:#0F172A;stroke-width:1;"/><text fill="#000000" font-family="Helvetica" font-size="14" lengthAdjust="spacing" textLength="184.3789" x="1275.86" y="386.5403">OCI state in PROVISIONING,</text><text fill="#000000" font-family="Helvetica" font-size="14" lengthAdjust="spacing" textLength="150.1309" x="1292.984" y="400.5403">UPDATING, DELETING</text></g><!--link resolve_by_lookup to failed--><g class="link" data-entity-1="ent0007" data-entity-2="ent0006" data-link-type="dependency" data-source-line="36" id="lnk7"><path d="M1134.63,414.11 C1246.69,445.65 1475.5847,510.0834 1551.6747,531.5134" fill="none" id="resolve_by_lookup-to-failed" style="stroke:#0F172A;stroke-width:1;"/><polygon fill="#0F172A" points="1557.45,533.14,1549.8714,526.8499,1552.6372,531.7845,1547.7026,534.5504,1557.45,533.14" style="stroke:#0F172A;stroke-width:1;"/><text fill="#000000" font-family="Helvetica" font-size="14" lengthAdjust="spacing" textLength="263.7783" x="1236.36" y="439.0303">unresolved OCI error or non-success state</text></g><!--link observe to evaluate_ready--><g class="link" data-entity-1="ent0002" data-entity-2="ent0003" data-link-type="dependency" data-source-line="37" id="lnk8"><path d="M678.96,422.64 C705.45,412.43 735.47,401.55 763.36,393 C969.5,329.82 1021.22,306.06 1235.36,281 C1339.33,268.83 1456.0497,275.0341 1523.9897,280.5541" fill="none" id="observe-to-evaluate_ready" style="stroke:#0F172A;stroke-width:1;"/><polygon fill="#0F172A" points="1529.97,281.04,1521.3235,276.3243,1524.9864,280.6351,1520.6756,284.298,1529.97,281.04" style="stroke:#0F172A;stroke-width:1;"/><text fill="#000000" font-family="Helvetica" font-size="14" lengthAdjust="spacing" textLength="128.3721" x="1008.86" y="280.9503">OCI state in ACTIVE</text></g><!--link observe to retryable--><g class="link" data-entity-1="ent0002" data-entity-2="ent0005" data-link-type="dependency" data-source-line="38" id="lnk9"><path d="M733.47,458.33 C796.11,460.38 872.11,462.85 940.36,465 C1189.16,472.84 1261.72,544.79 1500.36,474 C1511.77,470.62 1530.445,458.3638 1549.305,444.9138" fill="none" id="observe-to-retryable" style="stroke:#0F172A;stroke-width:1;"/><polygon fill="#0F172A" points="1554.19,441.43,1544.54,443.3989,1550.1191,444.3331,1549.185,449.9123,1554.19,441.43" style="stroke:#0F172A;stroke-width:1;"/><text fill="#000000" font-family="Helvetica" font-size="14" lengthAdjust="spacing" textLength="184.3789" x="980.86" y="446.7803">OCI state in PROVISIONING,</text><text fill="#000000" font-family="Helvetica" font-size="14" lengthAdjust="spacing" textLength="150.1309" x="997.984" y="460.7803">UPDATING, DELETING</text></g><!--link observe to failed--><g class="link" data-entity-1="ent0002" data-entity-2="ent0006" data-link-type="dependency" data-source-line="39" id="lnk10"><path d="M733.52,484.76 C795.83,498.03 871.56,512.26 940.36,520 C1179.8,546.92 1466.4516,542.7695 1551.5616,540.7895" fill="none" id="observe-to-failed" style="stroke:#0F172A;stroke-width:1;"/><polygon fill="#0F172A" points="1557.56,540.65,1548.4694,536.8604,1552.5614,540.7663,1548.6555,544.8582,1557.56,540.65" style="stroke:#0F172A;stroke-width:1;"/><text fill="#000000" font-family="Helvetica" font-size="14" lengthAdjust="spacing" textLength="263.7783" x="941.36" y="515.7803">unresolved OCI error or non-success state</text></g><!--link evaluate_ready to reject_unsupported_drift--><g class="link" data-entity-1="ent0003" data-entity-2="ent0008" data-link-type="dependency" data-source-line="40" id="lnk11"><path d="M1607.06,306.48 C1622.49,318.89 1643.81,333.85 1665.32,342 C1729.53,366.35 1801.6042,373.9058 1858.3042,376.0258" fill="none" id="evaluate_ready-to-reject_unsupported_drift" style="stroke:#0F172A;stroke-width:1;"/><polygon fill="#0F172A" points="1864.3,376.25,1855.4557,371.9165,1859.3035,376.0632,1855.1568,379.9109,1864.3,376.25" style="stroke:#0F172A;stroke-width:1;"/><text fill="#000000" font-family="Helvetica" font-size="14" lengthAdjust="spacing" textLength="143.9512" x="1676.32" y="323.7803">force-new or conflicting</text><text fill="#000000" font-family="Helvetica" font-size="14" lengthAdjust="spacing" textLength="80.9375" x="1707.8268" y="337.7803">drift detected</text></g><!--link reject_unsupported_drift to ready--><g class="link" data-entity-1="ent0008" data-entity-2="ent0004" data-link-type="dependency" data-source-line="41" id="lnk12"><path d="M2020.32,375.06 C2086.2,371.77 2182.3,361 2259.32,328 C2271.36,322.84 2278.4802,318.2363 2287.9202,310.2463" fill="none" id="reject_unsupported_drift-to-ready" style="stroke:#0F172A;stroke-width:1;"/><polygon fill="#0F172A" points="2292.5,306.37,2283.0461,309.1313,2288.6835,309.6003,2288.2146,315.2376,2292.5,306.37" style="stroke:#0F172A;stroke-width:1;"/><text fill="#000000" font-family="Helvetica" font-size="14" lengthAdjust="spacing" textLength="203.8818" x="2055.32" y="323.7803">wait for spec or live state change</text></g><!--link evaluate_ready to apply_update--><g class="link" data-entity-1="ent0003" data-entity-2="ent0009" data-link-type="dependency" data-source-line="42" id="lnk13"><path d="M1635.72,268.96 C1645.49,266.07 1655.67,263.27 1665.32,261 C1746.17,241.95 1836.2022,228.6097 1891.0322,221.3297" fill="none" id="evaluate_ready-to-apply_update" style="stroke:#0F172A;stroke-width:1;"/><polygon fill="#0F172A" points="1896.98,220.54,1887.5318,217.7594,1892.0235,221.1981,1888.5848,225.6898,1896.98,220.54" style="stroke:#0F172A;stroke-width:1;"/><text fill="#000000" font-family="Helvetica" font-size="14" lengthAdjust="spacing" textLength="163.4199" x="1666.32" y="212.0903">supported mutable drift for</text><text fill="#000000" font-family="Helvetica" font-size="14" lengthAdjust="spacing" textLength="86.3857" x="1704.8371" y="226.0903">display_name</text></g><!--link apply_update to ready--><g class="link" data-entity-1="ent0009" data-entity-2="ent0004" data-link-type="dependency" data-source-line="43" id="lnk14"><path d="M1987.88,217.45 C2049.86,221.76 2165.1,233.07 2259.32,261 C2269.36,263.98 2274.5025,265.9001 2283.6125,270.2801" fill="none" id="apply_update-to-ready" style="stroke:#0F172A;stroke-width:1;"/><polygon fill="#0F172A" points="2289.02,272.88,2282.642,265.3752,2284.5138,270.7135,2279.1756,272.5852,2289.02,272.88" style="stroke:#0F172A;stroke-width:1;"/><text fill="#000000" font-family="Helvetica" font-size="14" lengthAdjust="spacing" textLength="141.6543" x="2086.32" y="219.4503">update path completes</text></g><!--link evaluate_ready to ready--><g class="link" data-entity-1="ent0003" data-entity-2="ent0004" data-link-type="dependency" data-source-line="44" id="lnk15"><path d="M1635.73,286 C1780.46,286 2178.77,286 2282.86,286" fill="none" id="evaluate_ready-to-ready" style="stroke:#0F172A;stroke-width:1;"/><polygon fill="#0F172A" points="2288.86,286,2279.86,282,2283.86,286,2279.86,290,2288.86,286" style="stroke:#0F172A;stroke-width:1;"/><text fill="#000000" font-family="Helvetica" font-size="14" lengthAdjust="spacing" textLength="162.6406" x="1861.32" y="281.7803">no supported drift remains</text></g><!--link ready to ready--><g class="link" data-entity-1="ent0004" data-entity-2="ent0004" data-link-type="dependency" data-source-line="45" id="lnk16"><path d="M2297.35,265.69 C2290,248.73 2295.74,231 2314.55,231 C2333.36,231 2341.4858,243.2247 2334.1358,260.1847" fill="none" id="ready-to-ready" style="stroke:#0F172A;stroke-width:1;"/><polygon fill="#0F172A" points="2331.75,265.69,2338.9989,259.0227,2333.7382,261.1023,2331.6586,255.8416,2331.75,265.69" style="stroke:#0F172A;stroke-width:1;"/><text fill="#000000" font-family="Helvetica" font-size="14" lengthAdjust="spacing" textLength="162.6406" x="2233.55" y="221.7803">no supported drift remains</text></g><!--link retryable to retryable--><g class="link" data-entity-1="ent0005" data-entity-2="ent0005" data-link-type="dependency" data-source-line="46" id="lnk17"><path d="M1556.63,400.69 C1545.42,383.73 1554.16,366 1582.84,366 C1611.52,366 1623.5564,378.7232 1612.3564,395.6832" fill="none" id="retryable-to-retryable" style="stroke:#0F172A;stroke-width:1;"/><polygon fill="#0F172A" points="1609.05,400.69,1617.3474,395.3841,1611.8053,396.5177,1610.6717,390.9756,1609.05,400.69" style="stroke:#0F172A;stroke-width:1;"/><text fill="#000000" font-family="Helvetica" font-size="14" lengthAdjust="spacing" textLength="136.9307" x="1514.84" y="356.7803">OCI remains retryable</text></g><!--link failed to failed--><g class="link" data-entity-1="ent0006" data-entity-2="ent0006" data-link-type="dependency" data-source-line="47" id="lnk18"><path d="M1557.41,520.83 C1545.04,503.53 1553.52,485 1582.84,485 C1612.16,485 1624.1298,498.6493 1611.7598,515.9493" fill="none" id="failed-to-failed" style="stroke:#0F172A;stroke-width:1;"/><polygon fill="#0F172A" points="1608.27,520.83,1616.7585,515.8355,1611.1782,516.7628,1610.251,511.1824,1608.27,520.83" style="stroke:#0F172A;stroke-width:1;"/><text fill="#000000" font-family="Helvetica" font-size="14" lengthAdjust="spacing" textLength="132.2549" x="1516.84" y="475.7803">OCI remains terminal</text></g><!--link ready to delete_pending--><g class="link" data-entity-1="ent0004" data-entity-2="ent0010" data-link-type="dependency" data-source-line="48" id="lnk19"><path d="M2340.04,301.51 C2374.67,324.58 2437.93,371.03 2475.78,425 C2497.11,455.41 2476.82,479.74 2505.78,503 C2561.27,547.56 2641.2952,550.4767 2695.4352,546.6167" fill="none" id="ready-to-delete_pending" style="stroke:#0F172A;stroke-width:1;"/><polygon fill="#0F172A" points="2701.42,546.19,2692.1583,542.8402,2696.4327,546.5456,2692.7273,550.8199,2701.42,546.19" style="stroke:#0F172A;stroke-width:1;"/><text fill="#000000" font-family="Helvetica" font-size="14" lengthAdjust="spacing" textLength="104.3027" x="2370.78" y="319.3703">delete requested</text></g><!--link retryable to delete_pending--><g class="link" data-entity-1="ent0005" data-entity-2="ent0010" data-link-type="dependency" data-source-line="49" id="lnk20"><path d="M1618.15,424.5 C1784.08,441.41 2497.3909,514.1118 2695.0509,534.2518" fill="none" id="retryable-to-delete_pending" style="stroke:#0F172A;stroke-width:1;"/><polygon fill="#0F172A" points="2701.02,534.86,2692.4718,529.9683,2696.0458,534.3532,2691.6609,537.9271,2701.02,534.86" style="stroke:#0F172A;stroke-width:1;"/><text fill="#000000" font-family="Helvetica" font-size="14" lengthAdjust="spacing" textLength="104.3027" x="2104.82" y="465.3503">delete requested</text></g><!--link failed to delete_pending--><g class="link" data-entity-1="ent0006" data-entity-2="ent0010" data-link-type="dependency" data-source-line="50" id="lnk21"><path d="M1608.23,540 C1752.97,540 2493.79,540 2695.29,540" fill="none" id="failed-to-delete_pending" style="stroke:#0F172A;stroke-width:1;"/><polygon fill="#0F172A" points="2701.29,540,2692.29,536,2696.29,540,2692.29,544,2701.29,540" style="stroke:#0F172A;stroke-width:1;"/><text fill="#000000" font-family="Helvetica" font-size="14" lengthAdjust="spacing" textLength="104.3027" x="2104.82" y="535.7803">delete requested</text></g><!--link delete_pending to delete_cleanup_blocked--><g class="link" data-entity-1="ent0010" data-entity-2="ent0012" data-link-type="dependency" data-source-line="51" id="lnk22"><path d="M2803.73,535.24 C2935.64,522.75 3286.1967,489.5553 3442.8867,474.7253" fill="none" id="delete_pending-to-delete_cleanup_blocked" style="stroke:#0F172A;stroke-width:1;"/><polygon fill="#0F172A" points="3448.86,474.16,3439.5231,471.0258,3443.8822,474.6311,3440.2769,478.9902,3448.86,474.16" style="stroke:#0F172A;stroke-width:1;"/><text fill="#000000" font-family="Helvetica" font-size="14" lengthAdjust="spacing" textLength="273.1436" x="3030.09" y="484.3503">cleanup or finalizer release remains blocked</text></g><!--link delete_cleanup_blocked to deleted--><g class="link" data-entity-1="ent0012" data-entity-2="ent0011" data-link-type="dependency" data-source-line="52" id="lnk23"><path d="M3601.98,467 C3715.41,467 3918.59,467 3994.51,467" fill="none" id="delete_cleanup_blocked-to-deleted" style="stroke:#0F172A;stroke-width:1;"/><polygon fill="#0F172A" points="4000.51,467,3991.51,463,3995.51,467,3991.51,471,4000.51,467" style="stroke:#0F172A;stroke-width:1;"/><text fill="#000000" font-family="Helvetica" font-size="14" lengthAdjust="spacing" textLength="222.5645" x="3747.86" y="462.7803">retry delete completion until allowed</text></g><!--link deleted to deleted--><g class="link" data-entity-1="ent0011" data-entity-2="ent0011" data-link-type="dependency" data-source-line="53" id="lnk24"><path d="M4002.79,446.69 C3991.17,429.73 4000.24,412 4029.98,412 C4059.73,412 4072.1912,424.7803 4060.5712,441.7403" fill="none" id="deleted-to-deleted" style="stroke:#0F172A;stroke-width:1;"/><polygon fill="#0F172A" points="4057.18,446.69,4065.5667,441.5263,4060.006,442.5653,4058.9671,437.0046,4057.18,446.69" style="stroke:#0F172A;stroke-width:1;"/><text fill="#000000" font-family="Helvetica" font-size="14" lengthAdjust="spacing" textLength="92.5859" x="3983.98" y="402.7803">terminal stutter</text></g><?plantuml-src dLTPR-Cs47xdho2sRqMSR9hiKGKeaBi1qYH8DllI50PDZcms5AcILBngqV_UuI5PLXmiQlX5d1b-Sy_GxbdgcbbMKRTWmYobdjEIAGV4zPmPuyzpQnejJeqoblvGSlo9WOI0aZNANnZjRrW5z5TGB-0bPvjb7kJVGFSF1qnchLbczFVb_gUVXZUryN3ooeQo_2G-ZgMC5M2pnEpmmy7xdqSIGNtc7nmSxd_uCE17U6wi1altFn8llGBwu9a7-XlZ2wc1JgW6lpJskPGMbaoflPjqliZdqV7EACdRC-2shRqq-hvHu0OgNKJ_Xz0DGVvSif87pj2f71nAovKZFGtHR4VS5uSWFYCHUiGizozHK7hg3RLoll1KeAqy64SMKW25glOjPijnAwFD91dvxdRcmBx0EyeSDUcxOvs_CDNWrpqmqKO1o9If3QHERiKVaRrjsKn1PkLJnxvWKe68l39-agoU5X67kXhu3lKMGmWYnhHnE-Y20hmkjGVjTvuqquBonbeyqTlJAwfa2RpbApttu0pMxKbxRSnpKsTZ8cqwQwSgKbV2VsBK7hLhwjfO3-BCojBdEu4rRLQygGZCxkfnNQlsiHPuYF8idATD97GoPz7uEqmUTcIKIkvCwqHQbnC32R7EEbN0T5EVA1E2CqJYYJET9HRv_SS_w6Jo2rq5znIZws6R2kym0jwh429oboiiE8rzrj9AEXVSUYqS8DQh2Uzd7bOrZpQ6Ek0BS4_w-FJBrTVpDt3wqaA8K08fKbBJk_lRhrSFLxStLpUNM2gFTsV7Ny8dFJk_FWzVRm2cUaIqHcS14O41vvaDvccZ9wxX79nBsjP2yyglDQEoA-kntDg18SmMPezCJSPihdF4BOtbCD6mZ2aokiGYyPZV9vqa11OW3xNw9aPIaAAoPD87oDZe0L59T2JvpXTCppUQDsmh1EaLqAhnCOH94UAYLTBLYhLJZTkBh5qSsf59DVCBTAggGnkvpP595xGPg4tgB5HCQaV-ft2Nzar5aAK6WpFdTotLGqaFjfAQgO4Lw-C5vVFujF1N0owbQcZ4z-K7HdnVU2Gnk3GQKtWvKq8XbC4BV4rOX4AgWzx5RggzWR9I8E8MGTSwet9cSPPXUtYfA4uvi-oXndUxM68zDXuF93mpycerPRVe5io6h4esnxLVvFDUFhkzT9vWftXhb08xYTKzgTAxOzUzpCb3sEwqjAQYVW4qGwwkq7eH0b0Pj8tYiYEXMsGC3vLLhglQcXSSkZPrJxyb2MBFmUCvRCcGkSRYK-2Rz8ukmC8kOHRdgszhm9UAvuk2NWA-arZ037D5yc2iPdCCmCeaHojMZtM6ZMm6Bf2n2uuk9NOOVAjnQeJExvCSl8erqs0NXiKZmUsIhByOlys8Kysy82Fgw1XXMj7lBnlt5pxGH46ssNnzd0ewxo8q6KSeFL7sUiUAs0aov7Clz1bMy2JMNgW8jBH2Z9oex7wHekfGB_RBJXfDyIlNOpYGKUIBRbiEjyLH7ckasnb7NIFqgsCqbh1zX-CoZN0w0voa48UhX-46A2KeuKXeAopW2XV-L0gYfFDvZMCxS5QMHedfA3dJRN9NIkL3wQqhtCbxh5j6BWnSZUiOHmwTixexFsHJQ8LfmBWmQhHgZp11w367M9fasAUXoKh9gGq9gw0hyXIEa87A1Djs2Ows-1TaD216xxeS--JQgYuwUjxY1Ra4lzN3p99hZFmsLxC5UL8KgJpEptg__WC0?></g></svg>