<?plantuml 1.2026.1?><svg xmlns="http://www.w3.org/2000/svg" xmlns:xlink="http://www.w3.org/1999/xlink" contentStyleType="text/css" data-diagram-type="ACTIVITY" height="1371px" preserveAspectRatio="none" style="width:662px;height:1371px;background:#FCFCFD;" version="1.1" viewBox="0 0 662 1371" width="662px" zoomAndPan="magnify"><title>Activity - functions/FunctionsPbfListingTriggers</title><defs/><g><rect fill="#FCFCFD" height="1371" style="stroke:none;stroke-width:1;" width="662" x="0" y="0"/><g class="title" data-source-line="10"><text fill="#000000" font-family="Helvetica" font-size="14" font-weight="bold" lengthAdjust="spacing" textLength="321.2275" x="169.3625" y="30.7803">Activity - functions/FunctionsPbfListingTriggers</text></g><ellipse cx="279.9126" cy="55" fill="#1D4ED8" rx="10" ry="10" style="stroke:#222222;stroke-width:1;"/><rect fill="#F8FAFC" height="48" rx="8" ry="8" style="stroke:#0F172A;stroke-width:0.5;" width="304.7852" x="127.52" y="85"/><text fill="#0F172A" font-family="Helvetica" font-size="14" lengthAdjust="spacing" textLength="136.9375" x="137.52" y="105.7803">Start from shared flow</text><text fill="#0F172A" font-family="Helvetica" font-size="14" lengthAdjust="spacing" textLength="284.7852" x="137.52" y="119.7803">shared/diagrams/shared-reconcile-activity.svg</text><rect fill="#F8FAFC" height="48" rx="8" ry="8" style="stroke:#0F172A;stroke-width:0.5;" width="311.8262" x="123.9995" y="153"/><text fill="#0F172A" font-family="Helvetica" font-size="14" lengthAdjust="spacing" textLength="291.8262" x="133.9995" y="173.7803">Load desired FunctionsPbfListingTriggers spec</text><text fill="#0F172A" font-family="Helvetica" font-size="14" lengthAdjust="spacing" textLength="171.9854" x="133.9995" y="187.7803">and status from Kubernetes</text><rect fill="#F8FAFC" height="62" rx="8" ry="8" style="stroke:#0F172A;stroke-width:0.5;" width="266.668" x="146.5786" y="221"/><text fill="#0F172A" font-family="Helvetica" font-size="14" lengthAdjust="spacing" textLength="135.3857" x="156.5786" y="241.7803">Resolve OCI state via</text><text fill="#0F172A" font-family="Helvetica" font-size="14" lengthAdjust="spacing" textLength="224.875" x="156.5786" y="255.7803">GetFunctionsPbfListingTriggers with</text><text fill="#0F172A" font-family="Helvetica" font-size="14" lengthAdjust="spacing" textLength="246.668" x="156.5786" y="269.7803">ListFunctionsPbfListingTriggers fallback</text><rect fill="#F8FAFC" height="76" rx="8" ry="8" style="stroke:#0F172A;stroke-width:0.5;" width="317.2402" x="121.2925" y="303"/><text fill="#0F172A" font-family="Helvetica" font-size="14" lengthAdjust="spacing" textLength="24.8965" x="131.2925" y="323.7803">Use</text><text fill="#0F172A" font-family="Helvetica" font-size="14" lengthAdjust="spacing" textLength="277.8262" x="131.2925" y="337.7803">scaffold_functions_functionspbflistingtriggers</text><text fill="#0F172A" font-family="Helvetica" font-size="14" lengthAdjust="spacing" textLength="297.2402" x="131.2925" y="351.7803">filters compartment_id, state when OCID lookup</text><text fill="#0F172A" font-family="Helvetica" font-size="14" lengthAdjust="spacing" textLength="259.9023" x="131.2925" y="365.7803">or bind-versus-create needs list resolution</text><polygon fill="#E2E8F0" points="226.2231,399,333.6021,399,345.6021,411,333.6021,423,226.2231,423,214.2231,411,226.2231,399" style="stroke:#1D4ED8;stroke-width:0.5;"/><text fill="#0F172A" font-family="Helvetica" font-size="14" lengthAdjust="spacing" textLength="107.3789" x="226.2231" y="414.7803">Resource exists?</text><text fill="#000000" font-family="Helvetica" font-size="14" lengthAdjust="spacing" textLength="21.7861" x="192.437" y="407.7803">yes</text><text fill="#000000" font-family="Helvetica" font-size="14" lengthAdjust="spacing" textLength="15.5723" x="345.6021" y="407.7803">no</text><rect fill="#F8FAFC" height="48" rx="8" ry="8" style="stroke:#0F172A;stroke-width:0.5;" width="238.668" x="25.0171" y="433"/><text fill="#0F172A" font-family="Helvetica" font-size="14" lengthAdjust="spacing" textLength="108.1787" x="35.0171" y="453.7803">Update path calls</text><text fill="#0F172A" font-family="Helvetica" font-size="14" lengthAdjust="spacing" textLength="218.668" x="35.0171" y="467.7803">UpdateFunctionsPbfListingTriggers</text><rect fill="#F8FAFC" height="48" rx="8" ry="8" style="stroke:#0F172A;stroke-width:0.5;" width="266.7021" x="11" y="501"/><text fill="#0F172A" font-family="Helvetica" font-size="14" lengthAdjust="spacing" textLength="246.7021" x="21" y="521.7803">Guard mutable fields display_name and</text><text fill="#0F172A" font-family="Helvetica" font-size="14" lengthAdjust="spacing" textLength="202.3096" x="21" y="535.7803">force-new fields compartment_id</text><rect fill="#F8FAFC" height="48" rx="8" ry="8" style="stroke:#0F172A;stroke-width:0.5;" width="235.5439" x="297.7021" y="433"/><text fill="#0F172A" font-family="Helvetica" font-size="14" lengthAdjust="spacing" textLength="105.0547" x="307.7021" y="453.7803">Create path calls</text><text fill="#0F172A" font-family="Helvetica" font-size="14" lengthAdjust="spacing" textLength="215.5439" x="307.7021" y="467.7803">CreateFunctionsPbfListingTriggers</text><polygon fill="#E2E8F0" points="279.9126,555,291.9126,567,279.9126,579,267.9126,567,279.9126,555" style="stroke:#1D4ED8;stroke-width:0.5;"/><rect fill="#F8FAFC" height="104" rx="8" ry="8" style="stroke:#0F172A;stroke-width:0.5;" width="334.3164" x="112.7544" y="599"/><text fill="#0F172A" font-family="Helvetica" font-size="14" lengthAdjust="spacing" textLength="164.2061" x="122.7544" y="619.7803">Run provider helper hooks</text><text fill="#0F172A" font-family="Helvetica" font-size="14" lengthAdjust="spacing" textLength="219.0508" x="122.7544" y="633.7803">create=tfresource.CreateResource,</text><text fill="#0F172A" font-family="Helvetica" font-size="14" lengthAdjust="spacing" textLength="314.3164" x="122.7544" y="647.7803">tfresource.WaitForWorkRequestWithErrorHandling</text><text fill="#0F172A" font-family="Helvetica" font-size="14" lengthAdjust="spacing" textLength="215.5439" x="122.7544" y="661.7803">entity=template action=CREATED;</text><text fill="#0F172A" font-family="Helvetica" font-size="14" lengthAdjust="spacing" textLength="226.085" x="122.7544" y="675.7803">update=tfresource.UpdateResource;</text><text fill="#0F172A" font-family="Helvetica" font-size="14" lengthAdjust="spacing" textLength="212.8438" x="122.7544" y="689.7803">delete=tfresource.DeleteResource</text><rect fill="#F8FAFC" height="34" rx="8" ry="8" style="stroke:#0F172A;stroke-width:0.5;" width="263.5918" x="148.1167" y="723"/><text fill="#0F172A" font-family="Helvetica" font-size="14" lengthAdjust="spacing" textLength="243.5918" x="158.1167" y="743.7803">Apply repo-authored secret policy none</text><rect fill="#F8FAFC" height="90" rx="8" ry="8" style="stroke:#0F172A;stroke-width:0.5;" width="309.4678" x="125.1787" y="777"/><text fill="#0F172A" font-family="Helvetica" font-size="14" lengthAdjust="spacing" textLength="105.0684" x="135.1787" y="797.7803">Delete path uses</text><text fill="#0F172A" font-family="Helvetica" font-size="14" lengthAdjust="spacing" textLength="242.7783" x="135.1787" y="811.7803">DeleteFunctionsPbfListingTriggers with</text><text fill="#0F172A" font-family="Helvetica" font-size="14" lengthAdjust="spacing" textLength="289.4678" x="135.1787" y="825.7803">required via GetFunctionsPbfListingTriggers or</text><text fill="#0F172A" font-family="Helvetica" font-size="14" lengthAdjust="spacing" textLength="279.3369" x="135.1787" y="839.7803">ListFunctionsPbfListingTriggers to DELETED</text><text fill="#0F172A" font-family="Helvetica" font-size="14" lengthAdjust="spacing" textLength="76.2549" x="135.1787" y="853.7803">confirmation</text><rect fill="#F8FAFC" height="48" rx="8" ry="8" style="stroke:#0F172A;stroke-width:0.5;" width="279.1299" x="140.3477" y="887"/><text fill="#0F172A" font-family="Helvetica" font-size="14" lengthAdjust="spacing" textLength="259.1299" x="150.3477" y="907.7803">Project required status and finalizer policy</text><text fill="#0F172A" font-family="Helvetica" font-size="14" lengthAdjust="spacing" textLength="174.3027" x="150.3477" y="921.7803">retain-until-confirmed-delete</text><rect fill="#F8FAFC" height="34" rx="8" ry="8" style="stroke:#0F172A;stroke-width:0.5;" width="313.4189" x="123.2031" y="955"/><text fill="#0F172A" font-family="Helvetica" font-size="14" lengthAdjust="spacing" textLength="293.4189" x="133.2031" y="975.7803">Requeue on provisioning, updating, terminating</text><path d="M310.9126,999 L310.9126,1175 L290.9126,1179 L310.9126,1183 L310.9126,1359 A0,0 0 0 0 310.9126,1359 L650.9526,1359 A0,0 0 0 0 650.9526,1359 L650.9526,1009 L640.9526,999 L310.9126,999 A0,0 0 0 0 310.9126,999" fill="#FFF7D6" style="stroke:#B45309;stroke-width:0.5;"/><path d="M640.9526,999 L640.9526,1009 L650.9526,1009 L640.9526,999" fill="#FFF7D6" style="stroke:#B45309;stroke-width:0.5;"/><text fill="#334155" font-family="Helvetica" font-size="14" lengthAdjust="spacing" textLength="101.165" x="316.9126" y="1014.7803">shared diagram:</text><text fill="#334155" font-family="Helvetica" font-size="14" lengthAdjust="spacing" textLength="284.7852" x="316.9126" y="1028.7803">shared/diagrams/shared-reconcile-activity.svg</text><text fill="#334155" font-family="Helvetica" font-size="14" lengthAdjust="spacing" textLength="265.3438" x="316.9126" y="1042.7803">Start from the shared reconcile activity and</text><text fill="#334155" font-family="Helvetica" font-size="14" lengthAdjust="spacing" textLength="273.8955" x="316.9126" y="1056.7803">specialize provider-backed CRUD, wait, and</text><text fill="#334155" font-family="Helvetica" font-size="14" lengthAdjust="spacing" textLength="182.875" x="316.9126" y="1070.7803">status-projection details here.</text><text fill="#334155" font-family="Helvetica" font-size="14" lengthAdjust="spacing" textLength="229.5371" x="316.9126" y="1084.7803">Controller-local activity diagrams add</text><text fill="#334155" font-family="Helvetica" font-size="14" lengthAdjust="spacing" textLength="238.8955" x="316.9126" y="1098.7803">list-lookup hints, secret policies, delete</text><text fill="#334155" font-family="Helvetica" font-size="14" lengthAdjust="spacing" textLength="200.0332" x="316.9126" y="1112.7803">handling, and open formal gaps.</text><text fill="#334155" font-family="Helvetica" font-size="14" lengthAdjust="spacing" textLength="281.709" x="316.9126" y="1126.7803">archetype batch: Generated service-manager</text><text fill="#334155" font-family="Helvetica" font-size="14" lengthAdjust="spacing" textLength="291.0469" x="316.9126" y="1140.7803">controllers specialize the shared reconcile path</text><text fill="#334155" font-family="Helvetica" font-size="14" lengthAdjust="spacing" textLength="189.8477" x="316.9126" y="1154.7803">with formal runtime ownership.</text><text fill="#334155" font-family="Helvetica" font-size="14" lengthAdjust="spacing" textLength="108.1582" x="316.9126" y="1168.7803">service: functions</text><text fill="#334155" font-family="Helvetica" font-size="14" lengthAdjust="spacing" textLength="191.4336" x="316.9126" y="1182.7803">slug: functionspbflistingtriggers</text><text fill="#334155" font-family="Helvetica" font-size="14" lengthAdjust="spacing" textLength="206.9854" x="316.9126" y="1196.7803">kind: FunctionsPbfListingTriggers</text><text fill="#334155" font-family="Helvetica" font-size="14" lengthAdjust="spacing" textLength="241.2402" x="316.9126" y="1210.7803">archetype: generated-service-manager</text><text fill="#334155" font-family="Helvetica" font-size="14" lengthAdjust="spacing" textLength="156.4063" x="316.9126" y="1224.7803">status/finalizer: required /</text><text fill="#334155" font-family="Helvetica" font-size="14" lengthAdjust="spacing" textLength="174.3027" x="316.9126" y="1238.7803">retain-until-confirmed-delete</text><text fill="#334155" font-family="Helvetica" font-size="14" lengthAdjust="spacing" textLength="272.3984" x="316.9126" y="1252.7803">requeue: provisioning, updating, terminating</text><text fill="#334155" font-family="Helvetica" font-size="14" lengthAdjust="spacing" textLength="295.6816" x="316.9126" y="1266.7803">provider states: create PROVISIONING; update</text><text fill="#334155" font-family="Helvetica" font-size="14" lengthAdjust="spacing" textLength="192.165" x="316.9126" y="1280.7803">UPDATING; delete DELETING</text><text fill="#334155" font-family="Helvetica" font-size="14" lengthAdjust="spacing" textLength="319.04" x="316.9126" y="1294.7803">mutable/forceNew: display_name / compartment_id</text><text fill="#334155" font-family="Helvetica" font-size="14" lengthAdjust="spacing" textLength="104.3164" x="316.9126" y="1308.7803">open gaps: none</text><text fill="#334155" font-family="Helvetica" font-size="14" lengthAdjust="spacing" textLength="224.9023" x="316.9126" y="1322.7803">Scaffold metadata only; replace with</text><text fill="#334155" font-family="Helvetica" font-size="14" lengthAdjust="spacing" textLength="244.3232" x="316.9126" y="1336.7803">controller-specific runtime states before</text><text fill="#334155" font-family="Helvetica" font-size="14" lengthAdjust="spacing" textLength="66.1445" x="316.9126" y="1350.7803">promotion.</text><ellipse cx="279.9126" cy="1179" fill="none" rx="11" ry="11" style="stroke:#222222;stroke-width:1;"/><ellipse cx="279.9126" cy="1179" fill="#222222" rx="6" ry="6" style="stroke:#222222;stroke-width:1;"/><line style="stroke:#0F172A;stroke-width:1;" x1="279.9126" x2="279.9126" y1="65" y2="85"/><polygon fill="#0F172A" points="275.9126,75,279.9126,85,283.9126,75,279.9126,79" style="stroke:#0F172A;stroke-width:1;"/><line style="stroke:#0F172A;stroke-width:1;" x1="279.9126" x2="279.9126" y1="133" y2="153"/><polygon fill="#0F172A" points="275.9126,143,279.9126,153,283.9126,143,279.9126,147" style="stroke:#0F172A;stroke-width:1;"/><line style="stroke:#0F172A;stroke-width:1;" x1="279.9126" x2="279.9126" y1="201" y2="221"/><polygon fill="#0F172A" points="275.9126,211,279.9126,221,283.9126,211,279.9126,215" style="stroke:#0F172A;stroke-width:1;"/><line style="stroke:#0F172A;stroke-width:1;" x1="279.9126" x2="279.9126" y1="283" y2="303"/><polygon fill="#0F172A" points="275.9126,293,279.9126,303,283.9126,293,279.9126,297" style="stroke:#0F172A;stroke-width:1;"/><line style="stroke:#0F172A;stroke-width:1;" x1="144.3511" x2="144.3511" y1="481" y2="501"/><polygon fill="#0F172A" points="140.3511,491,144.3511,501,148.3511,491,144.3511,495" style="stroke:#0F172A;stroke-width:1;"/><line style="stroke:#0F172A;stroke-width:1;" x1="214.2231" x2="144.3511" y1="411" y2="411"/><line style="stroke:#0F172A;stroke-width:1;" x1="144.3511" x2="144.3511" y1="411" y2="433"/><polygon fill="#0F172A" points="140.3511,423,144.3511,433,148.3511,423,144.3511,427" style="stroke:#0F172A;stroke-width:1;"/><line style="stroke:#0F172A;stroke-width:1;" x1="345.6021" x2="415.4741" y1="411" y2="411"/><line style="stroke:#0F172A;stroke-width:1;" x1="415.4741" x2="415.4741" y1="411" y2="433"/><polygon fill="#0F172A" points="411.4741,423,415.4741,433,419.4741,423,415.4741,427" style="stroke:#0F172A;stroke-width:1;"/><line style="stroke:#0F172A;stroke-width:1;" x1="144.3511" x2="144.3511" y1="549" y2="567"/><line style="stroke:#0F172A;stroke-width:1;" x1="144.3511" x2="267.9126" y1="567" y2="567"/><polygon fill="#0F172A" points="257.9126,563,267.9126,567,257.9126,571,261.9126,567" style="stroke:#0F172A;stroke-width:1;"/><line style="stroke:#0F172A;stroke-width:1;" x1="415.4741" x2="415.4741" y1="481" y2="567"/><line style="stroke:#0F172A;stroke-width:1;" x1="415.4741" x2="291.9126" y1="567" y2="567"/><polygon fill="#0F172A" points="301.9126,563,291.9126,567,301.9126,571,297.9126,567" style="stroke:#0F172A;stroke-width:1;"/><line style="stroke:#0F172A;stroke-width:1;" x1="279.9126" x2="279.9126" y1="379" y2="399"/><polygon fill="#0F172A" points="275.9126,389,279.9126,399,283.9126,389,279.9126,393" style="stroke:#0F172A;stroke-width:1;"/><line style="stroke:#0F172A;stroke-width:1;" x1="279.9126" x2="279.9126" y1="579" y2="599"/><polygon fill="#0F172A" points="275.9126,589,279.9126,599,283.9126,589,279.9126,593" style="stroke:#0F172A;stroke-width:1;"/><line style="stroke:#0F172A;stroke-width:1;" x1="279.9126" x2="279.9126" y1="703" y2="723"/><polygon fill="#0F172A" points="275.9126,713,279.9126,723,283.9126,713,279.9126,717" style="stroke:#0F172A;stroke-width:1;"/><line style="stroke:#0F172A;stroke-width:1;" x1="279.9126" x2="279.9126" y1="757" y2="777"/><polygon fill="#0F172A" points="275.9126,767,279.9126,777,283.9126,767,279.9126,771" style="stroke:#0F172A;stroke-width:1;"/><line style="stroke:#0F172A;stroke-width:1;" x1="279.9126" x2="279.9126" y1="867" y2="887"/><polygon fill="#0F172A" points="275.9126,877,279.9126,887,283.9126,877,279.9126,881" style="stroke:#0F172A;stroke-width:1;"/><line style="stroke:#0F172A;stroke-width:1;" x1="279.9126" x2="279.9126" y1="935" y2="955"/><polygon fill="#0F172A" points="275.9126,945,279.9126,955,283.9126,945,279.9126,949" style="stroke:#0F172A;stroke-width:1;"/><line style="stroke:#0F172A;stroke-width:1;" x1="279.9126" x2="279.9126" y1="989" y2="1168"/><polygon fill="#0F172A" points="275.9126,1158,279.9126,1168,283.9126,1158,279.9126,1162" style="stroke:#0F172A;stroke-width:1;"/><?plantuml-src bLPHJoCt47xthx3K5qxA9d307RSHgcW273e4A41vYOISzJZhuhMtjZTfMlM_ttYzsIm1XLOyP6sFP-QR-UOpxaNgabbMK9SpRfPIpwbWoW5nxScCPIzpQohDHqOPItyH6VxnZWK7mIhbBupsDwm0-XtK0hpCsFisz_9le0T7dKDchLastlV5mTVFtPlQUFZjJGv2VELVjgsCvM0RYzdHyU7-josB4BuvFpmyEZW-xfpNxZDZDLXwy8LuwHNGiypBXVGhcb1HQLmOxGONww-xcRYMpcFL7goSpy6wBgZrrNy8VQU89uA9B9nqasx0KoesYRPxNBB2QFwc5l0PJiH-nw3hyO0V0J_P75wyuzXvPlssFRJ-MxiPs_BwBwclalG-_51XJKqa2vmAPPPJ7HS3Z3t7ahX1N2SMCgCpgI1P5wdl5lCXIQyDuqWL9uEB7MMcheHigfdc8NbVkHZxHpK3x9y7Xxucu0poaDwEhceZe0l9fleI_2x7I-dpgGwxkwnmHbHeAOPvT80uCoQ4KVov9Sdcgvm95Q_xvlfK2wbyy9EP0idY2z3-MV9Ua-So1ntI7bDbp4jLJZNMV2OrJnPugN99PY7OQG3kQ71ERG1RXNX38WNT2-0hcm65l_3O_Vg9-k1qRmNk4-PSyd2_P3wd6KB1ZEBM3im8zR9YbjEYyco6eo4aA0pFfIiLMpthCFdO40HdC72YORasUOroI005XkvfWvcC8f9k9d5hPoR8JIcmmvMcfJKBYNIdEQWo_635q4ciqAaNjYb4FxfTrwKtrPsp9oPHcUoJiIyJ-BC2vv-G1kUeIlOxGb8OVAenUoJggOS2yMBEhCxlT3GvFtiu7m-dkgfBs8qPYxgEYIOS5Bms6TSxhGb9pyfIhR2VfKbOvNCJ9i41ul6qD4fcAnGo7GpZpLYwoW62ZZiViziYndh2S23e1_DWxCVJu0qTdr-VOnMmy0R9RGiMgPZUMVC7P86VJSXcNCFa2gcPmhV0Di12Ofv9dLHOQPKqdb0kOjNgaSRcL41DqtU7GJ2H7grBNt_XM1NeDoo6g4wc947tAQQQUz9eKoD7AVbVyaGw8eV3j1QwrdWZ-0YE186IDRoMeabG3BmncZoEUtI9dEj5qxeaIHbBXP1G0R4EoY6dBVJ922NR6gNGWp8u99j0wyGfuvm47KYYOD1SQkzwhtWZ0JTY9KdUaBgEJqs9oe13Mw3hEIjTdp2RvU1N9Q3a-onFaIJuAYAL0nNjGk9u5qmpR3x9skIYA3UOtorGe2e955n7iw7JA1jcYUvTBii-QVodc-UME5NDE-ktUahmpUNfhlTYWoYbypMMP1jBRCIWvMMweUs0xEGciP6PwN_X9MargvPxbz96p-ycjxzVtL_TtbpTN0xZNI2FT-EpXteZXegZXXka4U91hRSti4nVQ_5WItT9tUVGuBIM47BVF5gqG6WOY-5SgTKmQ8zY-7I4JdNwczJj5J9hsnRJfpF0322WAaoeVp_eS_tlray0?></g></svg>