<?plantuml 1.2026.1?><svg xmlns="http://www.w3.org/2000/svg" xmlns:xlink="http://www.w3.org/1999/xlink" contentStyleType="text/css" data-diagram-type="STATE" height="590px" preserveAspectRatio="none" style="width:3916px;height:590px;background:#FCFCFD;" version="1.1" viewBox="0 0 3916 590" width="3916px" zoomAndPan="magnify"><title>State Machine - jmsjavadownloads/JmsJavaDownloadsJavaDownloadRecords</title><defs/><g><rect fill="#FCFCFD" height="590" style="stroke:none;stroke-width:1;" width="3916" x="0" y="0"/><g class="title" data-source-line="10"><text fill="#000000" font-family="Helvetica" font-size="14" font-weight="bold" lengthAdjust="spacing" textLength="522.833" x="1689.9665" y="20.7803">State Machine - jmsjavadownloads/JmsJavaDownloadsJavaDownloadRecords</text></g><g><rect fill="#F8FAFC" height="62" rx="8" ry="8" style="stroke:#0F172A;stroke-width:0.5;" width="264.3643" x="398" y="403"/><line style="stroke:#0F172A;stroke-width:0.5;" x1="398" x2="662.3643" y1="427" y2="427"/><text fill="#0F172A" font-family="Helvetica" font-size="14" lengthAdjust="spacing" textLength="52.9102" x="503.7271" y="418.7803">Observe</text><text fill="#0F172A" font-family="Helvetica" font-size="14" lengthAdjust="spacing" textLength="244.3643" x="403" y="442.7803">read spec, tracked status, delete intent,</text><text fill="#0F172A" font-family="Helvetica" font-size="14" lengthAdjust="spacing" textLength="153.2822" x="403" y="456.7803">and current OCI lifecycle</text></g><rect fill="#F8FAFC" height="40" rx="8" ry="8" style="stroke:#0F172A;stroke-width:0.5;" width="104.9512" x="1459.36" y="246"/><text fill="#0F172A" font-family="Helvetica" font-size="14" lengthAdjust="spacing" textLength="94.9512" x="1464.36" y="269.7803">EvaluateReady</text><rect fill="#F8FAFC" height="40" rx="8" ry="8" style="stroke:#0F172A;stroke-width:0.5;" width="50.4688" x="2218.32" y="246"/><text fill="#0F172A" font-family="Helvetica" font-size="14" lengthAdjust="spacing" textLength="40.4688" x="2223.32" y="269.7803">Ready</text><rect fill="#F8FAFC" height="40" rx="8" ry="8" style="stroke:#0F172A;stroke-width:0.5;" width="69.917" x="1476.88" y="381"/><text fill="#0F172A" font-family="Helvetica" font-size="14" lengthAdjust="spacing" textLength="59.917" x="1481.88" y="404.7803">Retryable</text><rect fill="#F8FAFC" height="40" rx="8" ry="8" style="stroke:#0F172A;stroke-width:0.5;" width="50" x="1486.84" y="500"/><text fill="#0F172A" font-family="Helvetica" font-size="14" lengthAdjust="spacing" textLength="38.1309" x="1492.7746" y="523.7803">Failed</text><rect fill="#F8FAFC" height="40" rx="8" ry="8" style="stroke:#0F172A;stroke-width:0.5;" width="122.8477" x="940.44" y="357"/><text fill="#0F172A" font-family="Helvetica" font-size="14" lengthAdjust="spacing" textLength="112.8477" x="945.44" y="380.7803">ResolveByLookup</text><rect fill="#F8FAFC" height="40" rx="8" ry="8" style="stroke:#0F172A;stroke-width:0.5;" width="155.5098" x="1793.56" y="336"/><text fill="#0F172A" font-family="Helvetica" font-size="14" lengthAdjust="spacing" textLength="145.5098" x="1798.56" y="359.7803">RejectUnsupportedDrift</text><rect fill="#F8FAFC" height="40" rx="8" ry="8" style="stroke:#0F172A;stroke-width:0.5;" width="90.165" x="1826.23" y="175"/><text fill="#0F172A" font-family="Helvetica" font-size="14" lengthAdjust="spacing" textLength="80.165" x="1831.23" y="198.7803">ApplyUpdate</text><rect fill="#F8FAFC" height="40" rx="8" ry="8" style="stroke:#0F172A;stroke-width:0.5;" width="101.8477" x="2606.81" y="492"/><text fill="#0F172A" font-family="Helvetica" font-size="14" lengthAdjust="spacing" textLength="91.8477" x="2611.81" y="515.7803">DeletePending</text><rect fill="#F8FAFC" height="40" rx="8" ry="8" style="stroke:#0F172A;stroke-width:0.5;" width="58.2549" x="3828.06" y="426"/><text fill="#0F172A" font-family="Helvetica" font-size="14" lengthAdjust="spacing" textLength="48.2549" x="3833.06" y="449.7803">Deleted</text><rect fill="#F8FAFC" height="40" rx="8" ry="8" style="stroke:#0F172A;stroke-width:0.5;" width="152.4268" x="3303.66" y="426"/><text fill="#0F172A" font-family="Helvetica" font-size="14" lengthAdjust="spacing" textLength="142.4268" x="3308.66" y="449.7803">DeleteCleanupBlocked</text><ellipse cx="16" cy="434" fill="#222222" rx="10" ry="10" style="stroke:#222222;stroke-width:1;"/><g class="entity" data-qualified-name="GMN2" data-source-line="55" id="ent0003"><path d="M2434.78,49 L2434.78,254.17 L2269.1,264.99 L2434.78,262.17 L2434.78,449 A8,8 0 0 0 2442.78,457 L2872.6882,457 A8,8 0 0 0 2880.6882,449 L2880.6882,51 L2870.6882,41 L2442.78,41 A8,8 0 0 0 2434.78,49" fill="#FFF7D6" style="stroke:#B45309;stroke-width:0.5;"/><path d="M2870.6882,41 L2870.6882,47 A4,4 0 0 0 2874.6882,51 L2880.6882,51 L2870.6882,41" fill="#FFF7D6" style="stroke:#B45309;stroke-width:0.5;"/><text fill="#334155" font-family="Helvetica" font-size="14" lengthAdjust="spacing" textLength="101.165" x="2440.78" y="56.7803">shared diagram:</text><text fill="#334155" font-family="Helvetica" font-size="14" lengthAdjust="spacing" textLength="331.4814" x="2440.78" y="70.7803">shared/diagrams/shared-controller-state-machine.svg</text><text fill="#334155" font-family="Helvetica" font-size="14" lengthAdjust="spacing" textLength="304.2744" x="2440.78" y="84.7803">Start from the shared controller phase model and</text><text fill="#334155" font-family="Helvetica" font-size="14" lengthAdjust="spacing" textLength="261.4678" x="2440.78" y="98.7803">specialize imported provider states, delete</text><text fill="#334155" font-family="Helvetica" font-size="14" lengthAdjust="spacing" textLength="184.4336" x="2440.78" y="112.7803">targets, and failure exits here.</text><text fill="#334155" font-family="Helvetica" font-size="14" lengthAdjust="spacing" textLength="281.709" x="2440.78" y="126.7803">archetype batch: Generated service-manager</text><text fill="#334155" font-family="Helvetica" font-size="14" lengthAdjust="spacing" textLength="287.9229" x="2440.78" y="140.7803">controllers map provider states into the shared</text><text fill="#334155" font-family="Helvetica" font-size="14" lengthAdjust="spacing" textLength="261.4609" x="2440.78" y="154.7803">controller phases with explicit finalizer and</text><text fill="#334155" font-family="Helvetica" font-size="14" lengthAdjust="spacing" textLength="105.8477" x="2440.78" y="168.7803">requeue policies.</text><text fill="#334155" font-family="Helvetica" font-size="14" lengthAdjust="spacing" textLength="166.5166" x="2440.78" y="182.7803">service: jmsjavadownloads</text><text fill="#334155" font-family="Helvetica" font-size="14" lengthAdjust="spacing" textLength="280.1572" x="2440.78" y="196.7803">slug: jmsjavadownloadsjavadownloadrecords</text><text fill="#334155" font-family="Helvetica" font-size="14" lengthAdjust="spacing" textLength="301.9229" x="2440.78" y="210.7803">kind: JmsJavaDownloadsJavaDownloadRecords</text><text fill="#334155" font-family="Helvetica" font-size="14" lengthAdjust="spacing" textLength="241.2402" x="2440.78" y="224.7803">archetype: generated-service-manager</text><text fill="#334155" font-family="Helvetica" font-size="14" lengthAdjust="spacing" textLength="156.4063" x="2440.78" y="238.7803">status/finalizer: required /</text><text fill="#334155" font-family="Helvetica" font-size="14" lengthAdjust="spacing" textLength="174.3027" x="2440.78" y="252.7803">retain-until-confirmed-delete</text><text fill="#334155" font-family="Helvetica" font-size="14" lengthAdjust="spacing" textLength="272.3984" x="2440.78" y="266.7803">requeue: provisioning, updating, terminating</text><text fill="#334155" font-family="Helvetica" font-size="14" lengthAdjust="spacing" textLength="295.6816" x="2440.78" y="280.7803">provider states: create PROVISIONING; update</text><text fill="#334155" font-family="Helvetica" font-size="14" lengthAdjust="spacing" textLength="192.165" x="2440.78" y="294.7803">UPDATING; delete DELETING</text><text fill="#334155" font-family="Helvetica" font-size="14" lengthAdjust="spacing" textLength="183.6611" x="2440.78" y="308.7803">supported drift: display_name</text><text fill="#334155" font-family="Helvetica" font-size="14" lengthAdjust="spacing" textLength="230.3301" x="2440.78" y="322.7803">reject before mutate: force-new fields</text><text fill="#334155" font-family="Helvetica" font-size="14" lengthAdjust="spacing" textLength="100.3789" x="2440.78" y="336.7803">compartment_id</text><text fill="#334155" font-family="Helvetica" font-size="14" lengthAdjust="spacing" textLength="66.1445" x="2440.78" y="350.7803">list lookup:</text><text fill="#334155" font-family="Helvetica" font-size="14" lengthAdjust="spacing" textLength="424.9082" x="2440.78" y="364.7803">scaffold_jmsjavadownloads_jmsjavadownloadsjavadownloadrecords</text><text fill="#334155" font-family="Helvetica" font-size="14" lengthAdjust="spacing" textLength="175.8477" x="2440.78" y="378.7803">filters compartment_id, state</text><text fill="#334155" font-family="Helvetica" font-size="14" lengthAdjust="spacing" textLength="89.4961" x="2440.78" y="392.7803">conflicts: none</text><text fill="#334155" font-family="Helvetica" font-size="14" lengthAdjust="spacing" textLength="104.3164" x="2440.78" y="406.7803">open gaps: none</text><text fill="#334155" font-family="Helvetica" font-size="14" lengthAdjust="spacing" textLength="224.9023" x="2440.78" y="420.7803">Scaffold metadata only; replace with</text><text fill="#334155" font-family="Helvetica" font-size="14" lengthAdjust="spacing" textLength="244.3232" x="2440.78" y="434.7803">controller-specific runtime states before</text><text fill="#334155" font-family="Helvetica" font-size="14" lengthAdjust="spacing" textLength="66.1445" x="2440.78" y="448.7803">promotion.</text></g><g class="entity" data-qualified-name="GMN5" data-source-line="86" id="ent0006"><path d="M3215.69,509 L3215.69,530.42 L2709.09,514.03 L3215.69,538.42 L3215.69,573 A8,8 0 0 0 3223.69,581 L3536.0543,581 A8,8 0 0 0 3544.0543,573 L3544.0543,511 L3534.0543,501 L3223.69,501 A8,8 0 0 0 3215.69,509" fill="#FFF7D6" style="stroke:#B45309;stroke-width:0.5;"/><path d="M3534.0543,501 L3534.0543,507 A4,4 0 0 0 3538.0543,511 L3544.0543,511 L3534.0543,501" fill="#FFF7D6" style="stroke:#B45309;stroke-width:0.5;"/><text fill="#334155" font-family="Helvetica" font-size="14" lengthAdjust="spacing" textLength="136.9717" x="3221.69" y="516.7803">delete policy: required</text><text fill="#334155" font-family="Helvetica" font-size="14" lengthAdjust="spacing" textLength="95.7305" x="3221.69" y="530.7803">delete observe:</text><text fill="#334155" font-family="Helvetica" font-size="14" lengthAdjust="spacing" textLength="307.3643" x="3221.69" y="544.7803">GetJmsJavaDownloadsJavaDownloadRecords or</text><text fill="#334155" font-family="Helvetica" font-size="14" lengthAdjust="spacing" textLength="290.2471" x="3221.69" y="558.7803">ListJmsJavaDownloadsJavaDownloadRecords</text><text fill="#334155" font-family="Helvetica" font-size="14" lengthAdjust="spacing" textLength="157.1855" x="3221.69" y="572.7803">delete targets: DELETED</text></g><!--link *start* to observe--><g class="link" data-entity-1="ent0002" data-entity-2="ent0002" data-link-type="dependency" data-source-line="32" id="lnk3"><path d="M26.33,434 C70.73,434 258.07,434 391.65,434" fill="none" id="*start*-to-observe" style="stroke:#0F172A;stroke-width:1;"/><polygon fill="#0F172A" points="397.65,434,388.65,430,392.65,434,388.65,438,397.65,434" style="stroke:#0F172A;stroke-width:1;"/><text fill="#000000" font-family="Helvetica" font-size="14" lengthAdjust="spacing" textLength="310.4814" x="57" y="429.7803">CreateJmsJavaDownloadsJavaDownloadRecords</text></g><!--link observe to resolve_by_lookup--><g class="link" data-entity-1="ent0002" data-entity-2="ent0007" data-link-type="dependency" data-source-line="33" id="lnk4"><path d="M662.64,418.05 C753.55,407.01 864.3337,393.5731 934.1837,385.0931" fill="none" id="observe-to-resolve_by_lookup" style="stroke:#0F172A;stroke-width:1;"/><polygon fill="#0F172A" points="940.14,384.37,930.7235,381.4838,935.1764,384.9726,931.6877,389.4255,940.14,384.37" style="stroke:#0F172A;stroke-width:1;"/><text fill="#000000" font-family="Helvetica" font-size="14" lengthAdjust="spacing" textLength="145.5029" x="693.36" y="392.8403">tracked identity missing</text></g><!--link resolve_by_lookup to evaluate_ready--><g class="link" data-entity-1="ent0007" data-entity-2="ent0003" data-link-type="dependency" data-source-line="34" id="lnk5"><path d="M1063.57,365.58 C1177.1,344.19 1411.77,299.79 1429.36,295 C1439.07,292.36 1443.6038,291.0543 1453.3838,287.7043" fill="none" id="resolve_by_lookup-to-evaluate_ready" style="stroke:#0F172A;stroke-width:1;"/><polygon fill="#0F172A" points="1459.06,285.76,1449.2494,284.8923,1454.3298,287.3803,1451.8419,292.4606,1459.06,285.76" style="stroke:#0F172A;stroke-width:1;"/><text fill="#000000" font-family="Helvetica" font-size="14" lengthAdjust="spacing" textLength="154.0889" x="1219.86" y="276.7803">lookup or create reaches</text><text fill="#000000" font-family="Helvetica" font-size="14" lengthAdjust="spacing" textLength="50.5654" x="1271.6217" y="290.7803">ACTIVE</text></g><!--link resolve_by_lookup to retryable--><g class="link" data-entity-1="ent0007" data-entity-2="ent0005" data-link-type="dependency" data-source-line="35" id="lnk6"><path d="M1063.63,379.87 C1171.21,384.95 1385.8067,395.0973 1470.5967,399.0973" fill="none" id="resolve_by_lookup-to-retryable" style="stroke:#0F172A;stroke-width:1;"/><polygon fill="#0F172A" points="1476.59,399.38,1467.7885,394.9603,1471.5956,399.1444,1467.4115,402.9514,1476.59,399.38" style="stroke:#0F172A;stroke-width:1;"/><text fill="#000000" font-family="Helvetica" font-size="14" lengthAdjust="spacing" textLength="184.3789" x="1204.86" y="366.5403">OCI state in PROVISIONING,</text><text fill="#000000" font-family="Helvetica" font-size="14" lengthAdjust="spacing" textLength="150.1309" x="1221.984" y="380.5403">UPDATING, DELETING</text></g><!--link resolve_by_lookup to failed--><g class="link" data-entity-1="ent0007" data-entity-2="ent0006" data-link-type="dependency" data-source-line="36" id="lnk7"><path d="M1063.63,394.11 C1175.69,425.65 1404.5847,490.0834 1480.6747,511.5134" fill="none" id="resolve_by_lookup-to-failed" style="stroke:#0F172A;stroke-width:1;"/><polygon fill="#0F172A" points="1486.45,513.14,1478.8714,506.8499,1481.6372,511.7845,1476.7026,514.5504,1486.45,513.14" style="stroke:#0F172A;stroke-width:1;"/><text fill="#000000" font-family="Helvetica" font-size="14" lengthAdjust="spacing" textLength="263.7783" x="1165.36" y="419.0303">unresolved OCI error or non-success state</text></g><!--link observe to evaluate_ready--><g class="link" data-entity-1="ent0002" data-entity-2="ent0003" data-link-type="dependency" data-source-line="37" id="lnk8"><path d="M607.96,402.64 C634.45,392.43 664.47,381.55 692.36,373 C898.5,309.82 950.22,286.06 1164.36,261 C1268.33,248.83 1385.0497,255.0341 1452.9897,260.5541" fill="none" id="observe-to-evaluate_ready" style="stroke:#0F172A;stroke-width:1;"/><polygon fill="#0F172A" points="1458.97,261.04,1450.3235,256.3243,1453.9864,260.6351,1449.6756,264.298,1458.97,261.04" style="stroke:#0F172A;stroke-width:1;"/><text fill="#000000" font-family="Helvetica" font-size="14" lengthAdjust="spacing" textLength="128.3721" x="937.86" y="260.9503">OCI state in ACTIVE</text></g><!--link observe to retryable--><g class="link" data-entity-1="ent0002" data-entity-2="ent0005" data-link-type="dependency" data-source-line="38" id="lnk9"><path d="M662.47,438.33 C725.11,440.38 801.11,442.85 869.36,445 C1118.16,452.84 1190.72,524.79 1429.36,454 C1440.77,450.62 1459.445,438.3638 1478.305,424.9138" fill="none" id="observe-to-retryable" style="stroke:#0F172A;stroke-width:1;"/><polygon fill="#0F172A" points="1483.19,421.43,1473.54,423.3989,1479.1191,424.3331,1478.185,429.9123,1483.19,421.43" style="stroke:#0F172A;stroke-width:1;"/><text fill="#000000" font-family="Helvetica" font-size="14" lengthAdjust="spacing" textLength="184.3789" x="909.86" y="426.7803">OCI state in PROVISIONING,</text><text fill="#000000" font-family="Helvetica" font-size="14" lengthAdjust="spacing" textLength="150.1309" x="926.984" y="440.7803">UPDATING, DELETING</text></g><!--link observe to failed--><g class="link" data-entity-1="ent0002" data-entity-2="ent0006" data-link-type="dependency" data-source-line="39" id="lnk10"><path d="M662.52,464.76 C724.83,478.03 800.56,492.26 869.36,500 C1108.8,526.92 1395.4516,522.7695 1480.5616,520.7895" fill="none" id="observe-to-failed" style="stroke:#0F172A;stroke-width:1;"/><polygon fill="#0F172A" points="1486.56,520.65,1477.4694,516.8604,1481.5614,520.7663,1477.6555,524.8582,1486.56,520.65" style="stroke:#0F172A;stroke-width:1;"/><text fill="#000000" font-family="Helvetica" font-size="14" lengthAdjust="spacing" textLength="263.7783" x="870.36" y="495.7803">unresolved OCI error or non-success state</text></g><!--link evaluate_ready to reject_unsupported_drift--><g class="link" data-entity-1="ent0003" data-entity-2="ent0008" data-link-type="dependency" data-source-line="40" id="lnk11"><path d="M1536.06,286.48 C1551.49,298.89 1572.81,313.85 1594.32,322 C1658.53,346.35 1730.6042,353.9058 1787.3042,356.0258" fill="none" id="evaluate_ready-to-reject_unsupported_drift" style="stroke:#0F172A;stroke-width:1;"/><polygon fill="#0F172A" points="1793.3,356.25,1784.4557,351.9165,1788.3035,356.0632,1784.1568,359.9109,1793.3,356.25" style="stroke:#0F172A;stroke-width:1;"/><text fill="#000000" font-family="Helvetica" font-size="14" lengthAdjust="spacing" textLength="143.9512" x="1605.32" y="303.7803">force-new or conflicting</text><text fill="#000000" font-family="Helvetica" font-size="14" lengthAdjust="spacing" textLength="80.9375" x="1636.8268" y="317.7803">drift detected</text></g><!--link reject_unsupported_drift to ready--><g class="link" data-entity-1="ent0008" data-entity-2="ent0004" data-link-type="dependency" data-source-line="41" id="lnk12"><path d="M1949.32,355.06 C2015.2,351.77 2111.3,341 2188.32,308 C2200.36,302.84 2207.4802,298.2363 2216.9202,290.2463" fill="none" id="reject_unsupported_drift-to-ready" style="stroke:#0F172A;stroke-width:1;"/><polygon fill="#0F172A" points="2221.5,286.37,2212.0461,289.1313,2217.6835,289.6003,2217.2146,295.2376,2221.5,286.37" style="stroke:#0F172A;stroke-width:1;"/><text fill="#000000" font-family="Helvetica" font-size="14" lengthAdjust="spacing" textLength="203.8818" x="1984.32" y="303.7803">wait for spec or live state change</text></g><!--link evaluate_ready to apply_update--><g class="link" data-entity-1="ent0003" data-entity-2="ent0009" data-link-type="dependency" data-source-line="42" id="lnk13"><path d="M1564.72,248.96 C1574.49,246.07 1584.67,243.27 1594.32,241 C1675.17,221.95 1765.2022,208.6097 1820.0322,201.3297" fill="none" id="evaluate_ready-to-apply_update" style="stroke:#0F172A;stroke-width:1;"/><polygon fill="#0F172A" points="1825.98,200.54,1816.5318,197.7594,1821.0235,201.1981,1817.5848,205.6898,1825.98,200.54" style="stroke:#0F172A;stroke-width:1;"/><text fill="#000000" font-family="Helvetica" font-size="14" lengthAdjust="spacing" textLength="163.4199" x="1595.32" y="192.0903">supported mutable drift for</text><text fill="#000000" font-family="Helvetica" font-size="14" lengthAdjust="spacing" textLength="86.3857" x="1633.8371" y="206.0903">display_name</text></g><!--link apply_update to ready--><g class="link" data-entity-1="ent0009" data-entity-2="ent0004" data-link-type="dependency" data-source-line="43" id="lnk14"><path d="M1916.88,197.45 C1978.86,201.76 2094.1,213.07 2188.32,241 C2198.36,243.98 2203.5025,245.9001 2212.6125,250.2801" fill="none" id="apply_update-to-ready" style="stroke:#0F172A;stroke-width:1;"/><polygon fill="#0F172A" points="2218.02,252.88,2211.642,245.3752,2213.5138,250.7135,2208.1756,252.5852,2218.02,252.88" style="stroke:#0F172A;stroke-width:1;"/><text fill="#000000" font-family="Helvetica" font-size="14" lengthAdjust="spacing" textLength="141.6543" x="2015.32" y="199.4503">update path completes</text></g><!--link evaluate_ready to ready--><g class="link" data-entity-1="ent0003" data-entity-2="ent0004" data-link-type="dependency" data-source-line="44" id="lnk15"><path d="M1564.73,266 C1709.46,266 2107.77,266 2211.86,266" fill="none" id="evaluate_ready-to-ready" style="stroke:#0F172A;stroke-width:1;"/><polygon fill="#0F172A" points="2217.86,266,2208.86,262,2212.86,266,2208.86,270,2217.86,266" style="stroke:#0F172A;stroke-width:1;"/><text fill="#000000" font-family="Helvetica" font-size="14" lengthAdjust="spacing" textLength="162.6406" x="1790.32" y="261.7803">no supported drift remains</text></g><!--link ready to ready--><g class="link" data-entity-1="ent0004" data-entity-2="ent0004" data-link-type="dependency" data-source-line="45" id="lnk16"><path d="M2226.35,245.69 C2219,228.73 2224.74,211 2243.55,211 C2262.36,211 2270.4858,223.2247 2263.1358,240.1847" fill="none" id="ready-to-ready" style="stroke:#0F172A;stroke-width:1;"/><polygon fill="#0F172A" points="2260.75,245.69,2267.9989,239.0227,2262.7382,241.1023,2260.6586,235.8416,2260.75,245.69" style="stroke:#0F172A;stroke-width:1;"/><text fill="#000000" font-family="Helvetica" font-size="14" lengthAdjust="spacing" textLength="162.6406" x="2162.55" y="201.7803">no supported drift remains</text></g><!--link retryable to retryable--><g class="link" data-entity-1="ent0005" data-entity-2="ent0005" data-link-type="dependency" data-source-line="46" id="lnk17"><path d="M1485.63,380.69 C1474.42,363.73 1483.16,346 1511.84,346 C1540.52,346 1552.5564,358.7232 1541.3564,375.6832" fill="none" id="retryable-to-retryable" style="stroke:#0F172A;stroke-width:1;"/><polygon fill="#0F172A" points="1538.05,380.69,1546.3474,375.3841,1540.8053,376.5177,1539.6717,370.9756,1538.05,380.69" style="stroke:#0F172A;stroke-width:1;"/><text fill="#000000" font-family="Helvetica" font-size="14" lengthAdjust="spacing" textLength="136.9307" x="1443.84" y="336.7803">OCI remains retryable</text></g><!--link failed to failed--><g class="link" data-entity-1="ent0006" data-entity-2="ent0006" data-link-type="dependency" data-source-line="47" id="lnk18"><path d="M1486.41,500.83 C1474.04,483.53 1482.52,465 1511.84,465 C1541.16,465 1553.1298,478.6493 1540.7598,495.9493" fill="none" id="failed-to-failed" style="stroke:#0F172A;stroke-width:1;"/><polygon fill="#0F172A" points="1537.27,500.83,1545.7585,495.8355,1540.1782,496.7628,1539.251,491.1824,1537.27,500.83" style="stroke:#0F172A;stroke-width:1;"/><text fill="#000000" font-family="Helvetica" font-size="14" lengthAdjust="spacing" textLength="132.2549" x="1445.84" y="455.7803">OCI remains terminal</text></g><!--link ready to delete_pending--><g class="link" data-entity-1="ent0004" data-entity-2="ent0010" data-link-type="dependency" data-source-line="48" id="lnk19"><path d="M2269.1,281.72 C2303.51,304.84 2366.19,351.04 2404.78,404 C2424.96,431.68 2407.89,453.78 2434.78,475 C2483.7,513.6 2551.8241,518.6818 2600.7541,516.8718" fill="none" id="ready-to-delete_pending" style="stroke:#0F172A;stroke-width:1;"/><polygon fill="#0F172A" points="2606.75,516.65,2597.6083,512.9854,2601.7534,516.8348,2597.904,520.98,2606.75,516.65" style="stroke:#0F172A;stroke-width:1;"/><text fill="#000000" font-family="Helvetica" font-size="14" lengthAdjust="spacing" textLength="104.3027" x="2299.78" y="299.3403">delete requested</text></g><!--link retryable to delete_pending--><g class="link" data-entity-1="ent0005" data-entity-2="ent0010" data-link-type="dependency" data-source-line="49" id="lnk20"><path d="M1547.07,404.32 C1710.55,420.18 2405.8181,487.6505 2600.4781,506.5405" fill="none" id="retryable-to-delete_pending" style="stroke:#0F172A;stroke-width:1;"/><polygon fill="#0F172A" points="2606.45,507.12,2597.8784,502.2694,2601.4734,506.6371,2597.1057,510.232,2606.45,507.12" style="stroke:#0F172A;stroke-width:1;"/><text fill="#000000" font-family="Helvetica" font-size="14" lengthAdjust="spacing" textLength="104.3027" x="2033.82" y="443.3503">delete requested</text></g><!--link failed to delete_pending--><g class="link" data-entity-1="ent0006" data-entity-2="ent0010" data-link-type="dependency" data-source-line="50" id="lnk21"><path d="M1537.26,519.83 C1680.05,518.83 2401.3901,513.7819 2600.3601,512.3919" fill="none" id="failed-to-delete_pending" style="stroke:#0F172A;stroke-width:1;"/><polygon fill="#0F172A" points="2606.36,512.35,2597.3323,508.413,2601.3601,512.3849,2597.3882,516.4128,2606.36,512.35" style="stroke:#0F172A;stroke-width:1;"/><text fill="#000000" font-family="Helvetica" font-size="14" lengthAdjust="spacing" textLength="104.3027" x="2033.82" y="511.1403">delete requested</text></g><!--link delete_pending to delete_cleanup_blocked--><g class="link" data-entity-1="ent0010" data-entity-2="ent0012" data-link-type="dependency" data-source-line="51" id="lnk22"><path d="M2709.09,507.39 C2833.48,495.99 3149.885,466.9875 3297.315,453.4775" fill="none" id="delete_pending-to-delete_cleanup_blocked" style="stroke:#0F172A;stroke-width:1;"/><polygon fill="#0F172A" points="3303.29,452.93,3293.9625,449.768,3298.3109,453.3863,3294.6926,457.7346,3303.29,452.93" style="stroke:#0F172A;stroke-width:1;"/><text fill="#000000" font-family="Helvetica" font-size="14" lengthAdjust="spacing" textLength="273.1436" x="2911.69" y="461.2803">cleanup or finalizer release remains blocked</text></g><!--link delete_cleanup_blocked to deleted--><g class="link" data-entity-1="ent0012" data-entity-2="ent0011" data-link-type="dependency" data-source-line="52" id="lnk23"><path d="M3456.45,446 C3563.84,446 3749.57,446 3821.7,446" fill="none" id="delete_cleanup_blocked-to-deleted" style="stroke:#0F172A;stroke-width:1;"/><polygon fill="#0F172A" points="3827.7,446,3818.7,442,3822.7,446,3818.7,450,3827.7,446" style="stroke:#0F172A;stroke-width:1;"/><text fill="#000000" font-family="Helvetica" font-size="14" lengthAdjust="spacing" textLength="222.5645" x="3575.06" y="441.7803">retry delete completion until allowed</text></g><!--link deleted to deleted--><g class="link" data-entity-1="ent0011" data-entity-2="ent0011" data-link-type="dependency" data-source-line="53" id="lnk24"><path d="M3829.99,425.69 C3818.37,408.73 3827.44,391 3857.18,391 C3886.93,391 3899.3812,403.7803 3887.7612,420.7403" fill="none" id="deleted-to-deleted" style="stroke:#0F172A;stroke-width:1;"/><polygon fill="#0F172A" points="3884.37,425.69,3892.7567,420.5263,3887.196,421.5653,3886.1571,416.0046,3884.37,425.69" style="stroke:#0F172A;stroke-width:1;"/><text fill="#000000" font-family="Helvetica" font-size="14" lengthAdjust="spacing" textLength="92.5859" x="3811.18" y="381.7803">terminal stutter</text></g><?plantuml-src dLVTJnmt47_VlsAKlbKSX8Pyz90g4I0f4GaHXBoKwkIpP-yCNdjhUo7Nglzxnn-xvrj0eT6zh6V6y_cR6P-xaRfbbZNWbaoOEwaNK3Fbi783PyxupSAQJej3euo5dsfEFr582AnPf_mxe_qdrY3yZkeMlUJiOPaB-JV2xbx1PDQQkwpzURtx-fVofZOUtzxpeQvVYrTZAMC5sYmnttlvulcl8ubWFlDVlDZRVVcou4Vrt5YD5dPVLLvwXN3XcKVuoFXIQeG9N3Vkcjs6L6bbc70x7nhtWGX7FQ4yd2Ef4wwmuQAwVofu8AjlQbRpm2cZoDa0gDUU3pJIPdlYhjX3yOQ8E6ZCSlzM2ciFte2LYwK78IroBuskbb8WODFw5PN7SIlRI4vEFZkRExIt-0oO0vE-UzRnBLCTVPqZ4wieW9aoiu7Kowtv8xAtApPNc5dvrBFVCQbGH5uTFwji7gPH3xWM-HPuIob44NFQkIqAGI5TbzgZzbjNcca1lBEMJd1sU09AriXNV6td79qXeBvTdHfpqxNPcKYRpLSp5QbhuMlAsgLsNTiQwr4SMLdxV2UmPjsQDnE1sLyzQ5krkcm57Q8y2-TP5mczp55q_ZCLZremIgLmPcqYRSg9Ga9iiWuLCjsrRvK9oIarySIPpHEh-kFdFs4o-GtMoJsax7fy2gBxE-7-lPIHfhus131DZRI2HZeNmhWl75HieeVkPnwXc4UVGjtv4jsLFZZySlBr-14z0vH8HIXvoepKyFdyxEl9nSdPfvDFxmaQbv-F3hw4JpWwFZqENuyeJFWZRPtE0Y8gHXfODhYdZPwuZdDqBbdRICszk3QSog5ivlA70oZL_83R8rUJCm_ZclJMndASQBoB9JAwLf96YbvSwIGX270yOFDH7Sb0oieTapweZ8qTD2f9WQJO-PBfnOFkbMr4IWO3q7G-fZ0P8htabNIjOgkPflLKRLmi_SYablab1TMqeMtSmvb95xGfp2Pp5XicjQl-ft1VzeT0aAMAGPdhkr7gKjAZRQHcgl1YSvoGV1wN5l_gqALIbKvyNxvmull28udYqcWiqULC2K2eGnJqNB2aYgWEXn3xAVQ8bhK14RS6XTOxbIjBcuxQmqi5J2bpDwWQt-rpINZiF1sgy8x8gzJK_M9RCXkgAjc2rlmqdtVosUsayuGwnLkZ5Df9HFUaIG-BRNUxg2x2DeVQcWRy4Y6hN5-1TXaIq1Zo3MYvLQ5RP4mFo2RZghNcbeQkJTqpRCMAT2_GqpbinL2vpjBg_oQzWoLQtAwOfVdgLotIoyJpvHJU8ps4MD0PvehamLdD5fI0jKiE6jQEROODR8eGgd483kuaTHX-QsbgXCuVYXoYYfZfg0jDuABRhhBzwRt7L-LKjxXFBWysBonwWOafF6Mr3OcOmg9FmMISWlJcs1aydqQeor2mdT181D5915SeUIrjGpfo9N9yqvGsHp2aXjXAioT-PS25GpLAxRHVX-KwsCzpg-gNmdwFz64tZEOEzMSv3zECXZdIgCGuFJsM8xwMg2WneMy8eGrjz9aKbPBEvprDUEUiheqIit4jPayfJYsL3s3QjB2LDrE_NbmOePeMB0qHMB2sFrzasz1GtYaH38nMgtsg28N8COAjAZilj4qjETXGeGPxsARuGyeR4wR3TaN3Alvh6BNyw6MMantnkbe3eQVdlJojtgD_0lvewbMdbDgdG3LRoBqzJVK-FXhy_Wy0?></g></svg>