<?plantuml 1.2026.1?><svg xmlns="http://www.w3.org/2000/svg" xmlns:xlink="http://www.w3.org/1999/xlink" contentStyleType="text/css" data-diagram-type="ACTIVITY" height="2229px" preserveAspectRatio="none" style="width:1263px;height:2229px;background:#FCFCFD;" version="1.1" viewBox="0 0 1263 2229" width="1263px" zoomAndPan="magnify"><title>Activity - devops/DevopsBuildPipelineStages</title><defs/><g><rect fill="#FCFCFD" height="2229" style="stroke:none;stroke-width:1;" width="1263" x="0" y="0"/><g class="title" data-source-line="10"><text fill="#000000" font-family="Helvetica" font-size="14" font-weight="bold" lengthAdjust="spacing" textLength="301.0752" x="479.6328" y="30.7803">Activity - devops/DevopsBuildPipelineStages</text></g><ellipse cx="669.6836" cy="55" fill="#1D4ED8" rx="10" ry="10" style="stroke:#222222;stroke-width:1;"/><rect fill="none" height="458" rx="8" ry="8" style="stroke:#000000;stroke-width:1.5;" width="599.5029" x="387.0664" y="75"/><path d="M509.1348,75 L509.1348,82 L499.1348,92 L387.0664,92" fill="none" style="stroke:#000000;stroke-width:1.5;"/><text fill="#000000" font-family="Helvetica" font-size="14" lengthAdjust="spacing" textLength="112.0684" x="390.0664" y="86.7803">Observe and Bind</text><rect fill="#F8FAFC" height="48" rx="8" ry="8" style="stroke:#0F172A;stroke-width:0.5;" width="304.7852" x="517.291" y="109"/><text fill="#0F172A" font-family="Helvetica" font-size="14" lengthAdjust="spacing" textLength="136.9375" x="527.291" y="129.7803">Start from shared flow</text><text fill="#0F172A" font-family="Helvetica" font-size="14" lengthAdjust="spacing" textLength="284.7852" x="527.291" y="143.7803">shared/diagrams/shared-reconcile-activity.svg</text><rect fill="#F8FAFC" height="48" rx="8" ry="8" style="stroke:#0F172A;stroke-width:0.5;" width="316.5156" x="511.4258" y="177"/><text fill="#0F172A" font-family="Helvetica" font-size="14" lengthAdjust="spacing" textLength="296.5156" x="521.4258" y="197.7803">Read desired DevopsBuildPipelineStages spec,</text><text fill="#0F172A" font-family="Helvetica" font-size="14" lengthAdjust="spacing" textLength="198.4609" x="521.4258" y="211.7803">tracked status, and delete intent</text><polygon fill="#E2E8F0" points="540.2178,245,799.1494,245,811.1494,257,799.1494,269,540.2178,269,528.2178,257,540.2178,245" style="stroke:#1D4ED8;stroke-width:0.5;"/><text fill="#0F172A" font-family="Helvetica" font-size="14" lengthAdjust="spacing" textLength="258.9316" x="540.2178" y="260.7803">"Tracked or explicit OCI identity present?"</text><text fill="#000000" font-family="Helvetica" font-size="14" lengthAdjust="spacing" textLength="21.7861" x="506.4316" y="253.7803">yes</text><text fill="#000000" font-family="Helvetica" font-size="14" lengthAdjust="spacing" textLength="15.5723" x="811.1494" y="253.7803">no</text><rect fill="#F8FAFC" height="48" rx="8" ry="8" style="stroke:#0F172A;stroke-width:0.5;" width="222.3027" x="407.0664" y="279"/><text fill="#0F172A" font-family="Helvetica" font-size="14" lengthAdjust="spacing" textLength="202.3027" x="417.0664" y="299.7803">Get the current OCI resource via</text><text fill="#0F172A" font-family="Helvetica" font-size="14" lengthAdjust="spacing" textLength="194.5645" x="417.0664" y="313.7803">GetDevopsBuildPipelineStages</text><rect fill="#F8FAFC" height="62" rx="8" ry="8" style="stroke:#0F172A;stroke-width:0.5;" width="288.4814" x="676.9087" y="279"/><text fill="#0F172A" font-family="Helvetica" font-size="14" lengthAdjust="spacing" textLength="259.9092" x="686.9087" y="299.7803">Resolve an existing OCI resource through</text><text fill="#0F172A" font-family="Helvetica" font-size="14" lengthAdjust="spacing" textLength="268.4814" x="686.9087" y="313.7803">ListDevopsBuildPipelineStages using filters</text><text fill="#0F172A" font-family="Helvetica" font-size="14" lengthAdjust="spacing" textLength="138.5098" x="686.9087" y="327.7803">compartment_id, state</text><rect fill="#F8FAFC" height="62" rx="8" ry="8" style="stroke:#0F172A;stroke-width:0.5;" width="290.8398" x="675.7295" y="361"/><text fill="#0F172A" font-family="Helvetica" font-size="14" lengthAdjust="spacing" textLength="174.2959" x="685.7295" y="381.7803">Create the OCI resource via</text><text fill="#0F172A" font-family="Helvetica" font-size="14" lengthAdjust="spacing" textLength="270.8398" x="685.7295" y="395.7803">CreateDevopsBuildPipelineStages when no</text><text fill="#0F172A" font-family="Helvetica" font-size="14" lengthAdjust="spacing" textLength="148.6406" x="685.7295" y="409.7803">reusable match is found</text><rect fill="#F8FAFC" height="48" rx="8" ry="8" style="stroke:#0F172A;stroke-width:0.5;" width="286.8955" x="677.7017" y="443"/><text fill="#0F172A" font-family="Helvetica" font-size="14" lengthAdjust="spacing" textLength="266.8955" x="687.7017" y="463.7803">Persist the resolved or created OCI identity</text><text fill="#0F172A" font-family="Helvetica" font-size="14" lengthAdjust="spacing" textLength="63.8135" x="687.7017" y="477.7803">into status</text><polygon fill="#E2E8F0" points="669.6836,497,681.6836,509,669.6836,521,657.6836,509,669.6836,497" style="stroke:#1D4ED8;stroke-width:0.5;"/><polygon fill="#E2E8F0" points="607.5073,553,731.8599,553,743.8599,565,731.8599,577,607.5073,577,595.5073,565,607.5073,553" style="stroke:#1D4ED8;stroke-width:0.5;"/><text fill="#0F172A" font-family="Helvetica" font-size="14" lengthAdjust="spacing" textLength="124.3525" x="607.5073" y="568.7803">"Delete requested?"</text><text fill="#000000" font-family="Helvetica" font-size="14" lengthAdjust="spacing" textLength="21.7861" x="573.7212" y="561.7803">yes</text><text fill="#000000" font-family="Helvetica" font-size="14" lengthAdjust="spacing" textLength="15.5723" x="743.8599" y="561.7803">no</text><rect fill="none" height="395.5" rx="8" ry="8" style="stroke:#000000;stroke-width:1.5;" width="644.4814" x="11" y="587"/><path d="M61.4688,587 L61.4688,594 L51.4688,604 L11,604" fill="none" style="stroke:#000000;stroke-width:1.5;"/><text fill="#000000" font-family="Helvetica" font-size="14" lengthAdjust="spacing" textLength="40.4688" x="14" y="598.7803">Delete</text><rect fill="#F8FAFC" height="90" rx="8" ry="8" style="stroke:#0F172A;stroke-width:0.5;" width="316.5088" x="181.4897" y="621"/><text fill="#0F172A" font-family="Helvetica" font-size="14" lengthAdjust="spacing" textLength="105.0684" x="191.4897" y="641.7803">Delete path uses</text><text fill="#0F172A" font-family="Helvetica" font-size="14" lengthAdjust="spacing" textLength="296.5088" x="191.4897" y="655.7803">DeleteDevopsBuildPipelineStages with required</text><text fill="#0F172A" font-family="Helvetica" font-size="14" lengthAdjust="spacing" textLength="232.6885" x="191.4897" y="669.7803">via GetDevopsBuildPipelineStages or</text><text fill="#0F172A" font-family="Helvetica" font-size="14" lengthAdjust="spacing" textLength="277.8125" x="191.4897" y="683.7803">ListDevopsBuildPipelineStages to DELETED</text><text fill="#0F172A" font-family="Helvetica" font-size="14" lengthAdjust="spacing" textLength="76.2549" x="191.4897" y="697.7803">confirmation</text><rect fill="#F8FAFC" height="76" rx="8" ry="8" style="stroke:#0F172A;stroke-width:0.5;" width="272.1367" x="203.6758" y="739.5"/><text fill="#0F172A" font-family="Helvetica" font-size="14" lengthAdjust="spacing" textLength="123.7236" x="213.6758" y="760.2803">Confirm deletion via</text><text fill="#0F172A" font-family="Helvetica" font-size="14" lengthAdjust="spacing" textLength="210.9023" x="213.6758" y="774.2803">GetDevopsBuildPipelineStages or</text><text fill="#0F172A" font-family="Helvetica" font-size="14" lengthAdjust="spacing" textLength="252.1367" x="213.6758" y="788.2803">ListDevopsBuildPipelineStages until OCI</text><text fill="#0F172A" font-family="Helvetica" font-size="14" lengthAdjust="spacing" textLength="118.2686" x="213.6758" y="802.2803">reaches DELETED</text><polygon fill="#E2E8F0" points="191.5718,850.5,487.9165,850.5,499.9165,862.5,487.9165,874.5,191.5718,874.5,179.5718,862.5,191.5718,850.5" style="stroke:#1D4ED8;stroke-width:0.5;"/><text fill="#0F172A" font-family="Helvetica" font-size="14" lengthAdjust="spacing" textLength="296.3447" x="191.5718" y="866.2803">"Delete cleanup and finalizer release succeed?"</text><text fill="#000000" font-family="Helvetica" font-size="14" lengthAdjust="spacing" textLength="21.7861" x="157.7856" y="859.2803">yes</text><text fill="#000000" font-family="Helvetica" font-size="14" lengthAdjust="spacing" textLength="15.5723" x="499.9165" y="859.2803">no</text><rect fill="#F8FAFC" height="34" rx="8" ry="8" style="stroke:#0F172A;stroke-width:0.5;" width="293.1436" x="23" y="884.5"/><text fill="#0F172A" font-family="Helvetica" font-size="14" lengthAdjust="spacing" textLength="273.1436" x="33" y="905.2803">Remove the finalizer after delete completion</text><rect fill="#F8FAFC" height="48" rx="8" ry="8" style="stroke:#0F172A;stroke-width:0.5;" width="251.1299" x="384.3516" y="884.5"/><text fill="#0F172A" font-family="Helvetica" font-size="14" lengthAdjust="spacing" textLength="231.1299" x="394.3516" y="905.2803">Stay blocked until cleanup or finalizer</text><text fill="#0F172A" font-family="Helvetica" font-size="14" lengthAdjust="spacing" textLength="108.9512" x="394.3516" y="919.2803">release succeeds</text><polygon fill="#E2E8F0" points="339.7441,938.5,351.7441,950.5,339.7441,962.5,327.7441,950.5,339.7441,938.5" style="stroke:#1D4ED8;stroke-width:0.5;"/><ellipse cx="339.7441" cy="1019.5" fill="none" rx="11" ry="11" style="stroke:#222222;stroke-width:1;"/><ellipse cx="339.7441" cy="1019.5" fill="#222222" rx="6" ry="6" style="stroke:#222222;stroke-width:1;"/><rect fill="none" height="443.5" rx="8" ry="8" style="stroke:#000000;stroke-width:1.5;" width="345.916" x="832.665" y="587"/><path d="M983.499,587 L983.499,594 L973.499,604 L832.665,604" fill="none" style="stroke:#000000;stroke-width:1.5;"/><text fill="#000000" font-family="Helvetica" font-size="14" lengthAdjust="spacing" textLength="140.834" x="835.665" y="598.7803">Lifecycle Classification</text><rect fill="#F8FAFC" height="48" rx="8" ry="8" style="stroke:#0F172A;stroke-width:0.5;" width="280.5928" x="859.3267" y="670"/><text fill="#0F172A" font-family="Helvetica" font-size="14" lengthAdjust="spacing" textLength="240.4541" x="869.3267" y="690.7803">Request requeue while OCI remains in</text><text fill="#0F172A" font-family="Helvetica" font-size="14" lengthAdjust="spacing" textLength="260.5928" x="869.3267" y="704.7803">PROVISIONING, UPDATING, DELETING</text><ellipse cx="999.623" cy="757.5" fill="none" rx="11" ry="11" style="stroke:#222222;stroke-width:1;"/><ellipse cx="999.623" cy="757.5" fill="#222222" rx="6" ry="6" style="stroke:#222222;stroke-width:1;"/><polygon fill="#E2E8F0" points="913.3398,621,1085.9063,621,1097.9063,633,1085.9063,645,913.3398,645,901.3398,633,913.3398,621" style="stroke:#1D4ED8;stroke-width:0.5;"/><text fill="#000000" font-family="Helvetica" font-size="14" lengthAdjust="spacing" textLength="21.7861" x="1003.623" y="655.7803">yes</text><text fill="#0F172A" font-family="Helvetica" font-size="14" lengthAdjust="spacing" textLength="172.5664" x="913.3398" y="636.7803">"OCI state in retryable set?"</text><rect fill="#F8FAFC" height="48" rx="8" ry="8" style="stroke:#0F172A;stroke-width:0.5;" width="293.916" x="852.665" y="883.5"/><text fill="#0F172A" font-family="Helvetica" font-size="14" lengthAdjust="spacing" textLength="273.916" x="862.665" y="904.2803">Return an unsuccessful reconcile result until</text><text fill="#0F172A" font-family="Helvetica" font-size="14" lengthAdjust="spacing" textLength="133.041" x="862.665" y="918.2803">OCI reaches ACTIVE</text><ellipse cx="999.623" cy="977.5" fill="none" rx="11" ry="11" style="stroke:#222222;stroke-width:1;"/><ellipse cx="999.623" cy="977.5" fill="#222222" rx="6" ry="6" style="stroke:#222222;stroke-width:1;"/><polygon fill="#E2E8F0" points="879.1021,834.5,1120.144,834.5,1132.144,846.5,1120.144,858.5,879.1021,858.5,867.1021,846.5,879.1021,834.5" style="stroke:#1D4ED8;stroke-width:0.5;"/><text fill="#000000" font-family="Helvetica" font-size="14" lengthAdjust="spacing" textLength="21.7861" x="1003.623" y="869.2803">yes</text><text fill="#0F172A" font-family="Helvetica" font-size="14" lengthAdjust="spacing" textLength="241.042" x="879.1021" y="850.2803">"OCI state is outside success targets?"</text><rect fill="none" height="722.5" rx="8" ry="8" style="stroke:#000000;stroke-width:1.5;" width="576.8594" x="675.4814" y="1040.5"/><path d="M841.9014,1040.5 L841.9014,1047.5 L831.9014,1057.5 L675.4814,1057.5" fill="none" style="stroke:#000000;stroke-width:1.5;"/><text fill="#000000" font-family="Helvetica" font-size="14" lengthAdjust="spacing" textLength="156.4199" x="678.4814" y="1052.2803">Ready and Drift Handling</text><rect fill="#F8FAFC" height="48" rx="8" ry="8" style="stroke:#0F172A;stroke-width:0.5;" width="296.2402" x="851.5029" y="1074.5"/><text fill="#0F172A" font-family="Helvetica" font-size="14" lengthAdjust="spacing" textLength="276.2402" x="861.5029" y="1095.2803">Compare live OCI state against the imported</text><text fill="#0F172A" font-family="Helvetica" font-size="14" lengthAdjust="spacing" textLength="75.4824" x="861.5029" y="1109.2803">field surface</text><rect fill="#F8FAFC" height="48" rx="8" ry="8" style="stroke:#0F172A;stroke-width:0.5;" width="302.4473" x="848.3994" y="1191.5"/><text fill="#0F172A" font-family="Helvetica" font-size="14" lengthAdjust="spacing" textLength="282.4473" x="858.3994" y="1212.2803">Reject drift before OCI mutation for force-new</text><text fill="#0F172A" font-family="Helvetica" font-size="14" lengthAdjust="spacing" textLength="136.9512" x="858.3994" y="1226.2803">fields compartment_id</text><ellipse cx="999.623" cy="1272" fill="none" rx="11" ry="11" style="stroke:#222222;stroke-width:1;"/><ellipse cx="999.623" cy="1272" fill="#222222" rx="6" ry="6" style="stroke:#222222;stroke-width:1;"/><polygon fill="#E2E8F0" points="874.04,1142.5,1125.2061,1142.5,1137.2061,1154.5,1125.2061,1166.5,874.04,1166.5,862.04,1154.5,874.04,1142.5" style="stroke:#1D4ED8;stroke-width:0.5;"/><text fill="#000000" font-family="Helvetica" font-size="14" lengthAdjust="spacing" textLength="21.7861" x="1003.623" y="1177.2803">yes</text><text fill="#0F172A" font-family="Helvetica" font-size="14" lengthAdjust="spacing" textLength="251.166" x="874.04" y="1158.2803">"Force-new or conflicting drift detected?"</text><polygon fill="#E2E8F0" points="889.1953,1325,1110.0508,1325,1122.0508,1337,1110.0508,1349,889.1953,1349,877.1953,1337,889.1953,1325" style="stroke:#1D4ED8;stroke-width:0.5;"/><text fill="#0F172A" font-family="Helvetica" font-size="14" lengthAdjust="spacing" textLength="220.8555" x="889.1953" y="1340.7803">"Supported mutable drift detected?"</text><text fill="#000000" font-family="Helvetica" font-size="14" lengthAdjust="spacing" textLength="21.7861" x="855.4092" y="1333.7803">yes</text><text fill="#000000" font-family="Helvetica" font-size="14" lengthAdjust="spacing" textLength="15.5723" x="1122.0508" y="1333.7803">no</text><rect fill="#F8FAFC" height="48" rx="8" ry="8" style="stroke:#0F172A;stroke-width:0.5;" width="325.8535" x="695.4814" y="1359"/><text fill="#0F172A" font-family="Helvetica" font-size="14" lengthAdjust="spacing" textLength="305.8535" x="705.4814" y="1379.7803">Apply UpdateDevopsBuildPipelineStages only for</text><text fill="#0F172A" font-family="Helvetica" font-size="14" lengthAdjust="spacing" textLength="176.6543" x="705.4814" y="1393.7803">mutable fields display_name</text><rect fill="#F8FAFC" height="34" rx="8" ry="8" style="stroke:#0F172A;stroke-width:0.5;" width="199.0059" x="1041.335" y="1359"/><text fill="#0F172A" font-family="Helvetica" font-size="14" lengthAdjust="spacing" textLength="179.0059" x="1051.335" y="1379.7803">Skip the no-op mutation path</text><polygon fill="#E2E8F0" points="999.623,1413,1011.623,1425,999.623,1437,987.623,1425,999.623,1413" style="stroke:#1D4ED8;stroke-width:0.5;"/><rect fill="#F8FAFC" height="118" rx="8" ry="8" style="stroke:#0F172A;stroke-width:0.5;" width="334.3164" x="832.4648" y="1457"/><text fill="#0F172A" font-family="Helvetica" font-size="14" lengthAdjust="spacing" textLength="164.2061" x="842.4648" y="1477.7803">Run provider helper hooks</text><text fill="#0F172A" font-family="Helvetica" font-size="14" lengthAdjust="spacing" textLength="219.0508" x="842.4648" y="1491.7803">create=tfresource.CreateResource,</text><text fill="#0F172A" font-family="Helvetica" font-size="14" lengthAdjust="spacing" textLength="314.3164" x="842.4648" y="1505.7803">tfresource.WaitForWorkRequestWithErrorHandling</text><text fill="#0F172A" font-family="Helvetica" font-size="14" lengthAdjust="spacing" textLength="215.5439" x="842.4648" y="1519.7803">entity=template action=CREATED;</text><text fill="#0F172A" font-family="Helvetica" font-size="14" lengthAdjust="spacing" textLength="226.085" x="842.4648" y="1533.7803">update=tfresource.UpdateResource;</text><text fill="#0F172A" font-family="Helvetica" font-size="14" lengthAdjust="spacing" textLength="273.5537" x="842.4648" y="1547.7803">delete=tfresource.DeleteResource when the</text><text fill="#0F172A" font-family="Helvetica" font-size="14" lengthAdjust="spacing" textLength="220.2334" x="842.4648" y="1561.7803">matching field-driven path executes</text><rect fill="#F8FAFC" height="34" rx="8" ry="8" style="stroke:#0F172A;stroke-width:0.5;" width="303.2197" x="848.0132" y="1595"/><text fill="#0F172A" font-family="Helvetica" font-size="14" lengthAdjust="spacing" textLength="283.2197" x="858.0132" y="1615.7803">Return success for the ACTIVE success state</text><rect fill="#F8FAFC" height="48" rx="8" ry="8" style="stroke:#0F172A;stroke-width:0.5;" width="279.1299" x="860.0581" y="1649"/><text fill="#0F172A" font-family="Helvetica" font-size="14" lengthAdjust="spacing" textLength="259.1299" x="870.0581" y="1669.7803">Project required status and finalizer policy</text><text fill="#0F172A" font-family="Helvetica" font-size="14" lengthAdjust="spacing" textLength="174.3027" x="870.0581" y="1683.7803">retain-until-confirmed-delete</text><rect fill="#F8FAFC" height="34" rx="8" ry="8" style="stroke:#0F172A;stroke-width:0.5;" width="313.4189" x="842.9136" y="1717"/><text fill="#0F172A" font-family="Helvetica" font-size="14" lengthAdjust="spacing" textLength="293.4189" x="852.9136" y="1737.7803">Requeue on provisioning, updating, terminating</text><path d="M700.6836,1773 L700.6836,1991 L680.6836,1995 L700.6836,1999 L700.6836,2217 A0,0 0 0 0 700.6836,2217 L1017.3652,2217 A0,0 0 0 0 1017.3652,2217 L1017.3652,1783 L1007.3652,1773 L700.6836,1773 A0,0 0 0 0 700.6836,1773" fill="#FFF7D6" style="stroke:#B45309;stroke-width:0.5;"/><path d="M1007.3652,1773 L1007.3652,1783 L1017.3652,1783 L1007.3652,1773" fill="#FFF7D6" style="stroke:#B45309;stroke-width:0.5;"/><text fill="#334155" font-family="Helvetica" font-size="14" lengthAdjust="spacing" textLength="101.165" x="706.6836" y="1788.7803">shared diagram:</text><text fill="#334155" font-family="Helvetica" font-size="14" lengthAdjust="spacing" textLength="284.7852" x="706.6836" y="1802.7803">shared/diagrams/shared-reconcile-activity.svg</text><text fill="#334155" font-family="Helvetica" font-size="14" lengthAdjust="spacing" textLength="265.3438" x="706.6836" y="1816.7803">Start from the shared reconcile activity and</text><text fill="#334155" font-family="Helvetica" font-size="14" lengthAdjust="spacing" textLength="273.8955" x="706.6836" y="1830.7803">specialize provider-backed CRUD, wait, and</text><text fill="#334155" font-family="Helvetica" font-size="14" lengthAdjust="spacing" textLength="182.875" x="706.6836" y="1844.7803">status-projection details here.</text><text fill="#334155" font-family="Helvetica" font-size="14" lengthAdjust="spacing" textLength="229.5371" x="706.6836" y="1858.7803">Controller-local activity diagrams add</text><text fill="#334155" font-family="Helvetica" font-size="14" lengthAdjust="spacing" textLength="238.8955" x="706.6836" y="1872.7803">list-lookup hints, secret policies, delete</text><text fill="#334155" font-family="Helvetica" font-size="14" lengthAdjust="spacing" textLength="200.0332" x="706.6836" y="1886.7803">handling, and open formal gaps.</text><text fill="#334155" font-family="Helvetica" font-size="14" lengthAdjust="spacing" textLength="281.709" x="706.6836" y="1900.7803">archetype batch: Generated service-manager</text><text fill="#334155" font-family="Helvetica" font-size="14" lengthAdjust="spacing" textLength="291.0469" x="706.6836" y="1914.7803">controllers specialize the shared reconcile path</text><text fill="#334155" font-family="Helvetica" font-size="14" lengthAdjust="spacing" textLength="189.8477" x="706.6836" y="1928.7803">with formal runtime ownership.</text><text fill="#334155" font-family="Helvetica" font-size="14" lengthAdjust="spacing" textLength="97.2686" x="706.6836" y="1942.7803">service: devops</text><text fill="#334155" font-family="Helvetica" font-size="14" lengthAdjust="spacing" textLength="197.6953" x="706.6836" y="1956.7803">slug: devopsbuildpipelinestages</text><text fill="#334155" font-family="Helvetica" font-size="14" lengthAdjust="spacing" textLength="205.4609" x="706.6836" y="1970.7803">kind: DevopsBuildPipelineStages</text><text fill="#334155" font-family="Helvetica" font-size="14" lengthAdjust="spacing" textLength="241.2402" x="706.6836" y="1984.7803">archetype: generated-service-manager</text><text fill="#334155" font-family="Helvetica" font-size="14" lengthAdjust="spacing" textLength="156.4063" x="706.6836" y="1998.7803">status/finalizer: required /</text><text fill="#334155" font-family="Helvetica" font-size="14" lengthAdjust="spacing" textLength="174.3027" x="706.6836" y="2012.7803">retain-until-confirmed-delete</text><text fill="#334155" font-family="Helvetica" font-size="14" lengthAdjust="spacing" textLength="272.3984" x="706.6836" y="2026.7803">requeue: provisioning, updating, terminating</text><text fill="#334155" font-family="Helvetica" font-size="14" lengthAdjust="spacing" textLength="295.6816" x="706.6836" y="2040.7803">provider states: create PROVISIONING; update</text><text fill="#334155" font-family="Helvetica" font-size="14" lengthAdjust="spacing" textLength="192.165" x="706.6836" y="2054.7803">UPDATING; delete DELETING</text><text fill="#334155" font-family="Helvetica" font-size="14" lengthAdjust="spacing" textLength="183.6611" x="706.6836" y="2068.7803">supported drift: display_name</text><text fill="#334155" font-family="Helvetica" font-size="14" lengthAdjust="spacing" textLength="230.3301" x="706.6836" y="2082.7803">reject before mutate: force-new fields</text><text fill="#334155" font-family="Helvetica" font-size="14" lengthAdjust="spacing" textLength="100.3789" x="706.6836" y="2096.7803">compartment_id</text><text fill="#334155" font-family="Helvetica" font-size="14" lengthAdjust="spacing" textLength="66.1445" x="706.6836" y="2110.7803">list lookup:</text><text fill="#334155" font-family="Helvetica" font-size="14" lengthAdjust="spacing" textLength="273.1982" x="706.6836" y="2124.7803">scaffold_devops_devopsbuildpipelinestages</text><text fill="#334155" font-family="Helvetica" font-size="14" lengthAdjust="spacing" textLength="175.8477" x="706.6836" y="2138.7803">filters compartment_id, state</text><text fill="#334155" font-family="Helvetica" font-size="14" lengthAdjust="spacing" textLength="89.4961" x="706.6836" y="2152.7803">conflicts: none</text><text fill="#334155" font-family="Helvetica" font-size="14" lengthAdjust="spacing" textLength="104.3164" x="706.6836" y="2166.7803">open gaps: none</text><text fill="#334155" font-family="Helvetica" font-size="14" lengthAdjust="spacing" textLength="224.9023" x="706.6836" y="2180.7803">Scaffold metadata only; replace with</text><text fill="#334155" font-family="Helvetica" font-size="14" lengthAdjust="spacing" textLength="244.3232" x="706.6836" y="2194.7803">controller-specific runtime states before</text><text fill="#334155" font-family="Helvetica" font-size="14" lengthAdjust="spacing" textLength="66.1445" x="706.6836" y="2208.7803">promotion.</text><ellipse cx="669.6836" cy="1995" fill="none" rx="11" ry="11" style="stroke:#222222;stroke-width:1;"/><ellipse cx="669.6836" cy="1995" fill="#222222" rx="6" ry="6" style="stroke:#222222;stroke-width:1;"/><line style="stroke:#0F172A;stroke-width:1;" x1="669.6836" x2="669.6836" y1="157" y2="177"/><polygon fill="#0F172A" points="665.6836,167,669.6836,177,673.6836,167,669.6836,171" style="stroke:#0F172A;stroke-width:1;"/><line style="stroke:#0F172A;stroke-width:1;" x1="821.1494" x2="821.1494" y1="341" y2="361"/><polygon fill="#0F172A" points="817.1494,351,821.1494,361,825.1494,351,821.1494,355" style="stroke:#0F172A;stroke-width:1;"/><line style="stroke:#0F172A;stroke-width:1;" x1="821.1494" x2="821.1494" y1="423" y2="443"/><polygon fill="#0F172A" points="817.1494,433,821.1494,443,825.1494,433,821.1494,437" style="stroke:#0F172A;stroke-width:1;"/><line style="stroke:#0F172A;stroke-width:1;" x1="528.2178" x2="518.2178" y1="257" y2="257"/><line style="stroke:#0F172A;stroke-width:1;" x1="518.2178" x2="518.2178" y1="257" y2="279"/><polygon fill="#0F172A" points="514.2178,269,518.2178,279,522.2178,269,518.2178,273" style="stroke:#0F172A;stroke-width:1;"/><line style="stroke:#0F172A;stroke-width:1;" x1="811.1494" x2="821.1494" y1="257" y2="257"/><line style="stroke:#0F172A;stroke-width:1;" x1="821.1494" x2="821.1494" y1="257" y2="279"/><polygon fill="#0F172A" points="817.1494,269,821.1494,279,825.1494,269,821.1494,273" style="stroke:#0F172A;stroke-width:1;"/><line style="stroke:#0F172A;stroke-width:1;" x1="518.2178" x2="518.2178" y1="327" y2="509"/><line style="stroke:#0F172A;stroke-width:1;" x1="518.2178" x2="657.6836" y1="509" y2="509"/><polygon fill="#0F172A" points="647.6836,505,657.6836,509,647.6836,513,651.6836,509" style="stroke:#0F172A;stroke-width:1;"/><line style="stroke:#0F172A;stroke-width:1;" x1="821.1494" x2="821.1494" y1="491" y2="509"/><line style="stroke:#0F172A;stroke-width:1;" x1="821.1494" x2="681.6836" y1="509" y2="509"/><polygon fill="#0F172A" points="691.6836,505,681.6836,509,691.6836,513,687.6836,509" style="stroke:#0F172A;stroke-width:1;"/><line style="stroke:#0F172A;stroke-width:1;" x1="669.6836" x2="669.6836" y1="225" y2="245"/><polygon fill="#0F172A" points="665.6836,235,669.6836,245,673.6836,235,669.6836,239" style="stroke:#0F172A;stroke-width:1;"/><line style="stroke:#0F172A;stroke-width:1;" x1="669.6836" x2="669.6836" y1="65" y2="109"/><polygon fill="#0F172A" points="665.6836,99,669.6836,109,673.6836,99,669.6836,103" style="stroke:#0F172A;stroke-width:1;"/><line style="stroke:#0F172A;stroke-width:1;" x1="339.7441" x2="339.7441" y1="711" y2="739.5"/><polygon fill="#0F172A" points="335.7441,729.5,339.7441,739.5,343.7441,729.5,339.7441,733.5" style="stroke:#0F172A;stroke-width:1;"/><line style="stroke:#0F172A;stroke-width:1;" x1="179.5718" x2="169.5718" y1="862.5" y2="862.5"/><line style="stroke:#0F172A;stroke-width:1;" x1="169.5718" x2="169.5718" y1="862.5" y2="884.5"/><polygon fill="#0F172A" points="165.5718,874.5,169.5718,884.5,173.5718,874.5,169.5718,878.5" style="stroke:#0F172A;stroke-width:1;"/><line style="stroke:#0F172A;stroke-width:1;" x1="499.9165" x2="509.9165" y1="862.5" y2="862.5"/><line style="stroke:#0F172A;stroke-width:1;" x1="509.9165" x2="509.9165" y1="862.5" y2="884.5"/><polygon fill="#0F172A" points="505.9165,874.5,509.9165,884.5,513.9165,874.5,509.9165,878.5" style="stroke:#0F172A;stroke-width:1;"/><line style="stroke:#0F172A;stroke-width:1;" x1="169.5718" x2="169.5718" y1="918.5" y2="950.5"/><line style="stroke:#0F172A;stroke-width:1;" x1="169.5718" x2="327.7441" y1="950.5" y2="950.5"/><polygon fill="#0F172A" points="317.7441,946.5,327.7441,950.5,317.7441,954.5,321.7441,950.5" style="stroke:#0F172A;stroke-width:1;"/><line style="stroke:#0F172A;stroke-width:1;" x1="509.9165" x2="509.9165" y1="932.5" y2="950.5"/><line style="stroke:#0F172A;stroke-width:1;" x1="509.9165" x2="351.7441" y1="950.5" y2="950.5"/><polygon fill="#0F172A" points="361.7441,946.5,351.7441,950.5,361.7441,954.5,357.7441,950.5" style="stroke:#0F172A;stroke-width:1;"/><line style="stroke:#0F172A;stroke-width:1;" x1="339.7441" x2="339.7441" y1="815.5" y2="850.5"/><polygon fill="#0F172A" points="335.7441,840.5,339.7441,850.5,343.7441,840.5,339.7441,844.5" style="stroke:#0F172A;stroke-width:1;"/><line style="stroke:#0F172A;stroke-width:1;" x1="339.7441" x2="339.7441" y1="962.5" y2="1008.5"/><polygon fill="#0F172A" points="335.7441,998.5,339.7441,1008.5,343.7441,998.5,339.7441,1002.5" style="stroke:#0F172A;stroke-width:1;"/><line style="stroke:#0F172A;stroke-width:1;" x1="999.623" x2="999.623" y1="718" y2="746.5"/><polygon fill="#0F172A" points="995.623,736.5,999.623,746.5,1003.623,736.5,999.623,740.5" style="stroke:#0F172A;stroke-width:1;"/><line style="stroke:#0F172A;stroke-width:1;" x1="999.623" x2="999.623" y1="645" y2="670"/><polygon fill="#0F172A" points="995.623,660,999.623,670,1003.623,660,999.623,664" style="stroke:#0F172A;stroke-width:1;"/><line style="stroke:#0F172A;stroke-width:1;" x1="1097.9063" x2="1149.9194" y1="633" y2="633"/><polygon fill="#0F172A" points="1145.9194,709.5,1149.9194,719.5,1153.9194,709.5,1149.9194,713.5" style="stroke:#0F172A;stroke-width:1;"/><line style="stroke:#0F172A;stroke-width:1;" x1="1149.9194" x2="1149.9194" y1="633" y2="799.5"/><line style="stroke:#0F172A;stroke-width:1;" x1="1149.9194" x2="999.623" y1="799.5" y2="799.5"/><line style="stroke:#0F172A;stroke-width:1;" x1="999.623" x2="999.623" y1="799.5" y2="834.5"/><polygon fill="#0F172A" points="995.623,824.5,999.623,834.5,1003.623,824.5,999.623,828.5" style="stroke:#0F172A;stroke-width:1;"/><line style="stroke:#0F172A;stroke-width:1;" x1="999.623" x2="999.623" y1="931.5" y2="966.5"/><polygon fill="#0F172A" points="995.623,956.5,999.623,966.5,1003.623,956.5,999.623,960.5" style="stroke:#0F172A;stroke-width:1;"/><line style="stroke:#0F172A;stroke-width:1;" x1="999.623" x2="999.623" y1="858.5" y2="883.5"/><polygon fill="#0F172A" points="995.623,873.5,999.623,883.5,1003.623,873.5,999.623,877.5" style="stroke:#0F172A;stroke-width:1;"/><line style="stroke:#0F172A;stroke-width:1;" x1="1132.144" x2="1156.5811" y1="846.5" y2="846.5"/><polygon fill="#0F172A" points="1152.5811,923,1156.5811,933,1160.5811,923,1156.5811,927" style="stroke:#0F172A;stroke-width:1;"/><line style="stroke:#0F172A;stroke-width:1;" x1="1156.5811" x2="1156.5811" y1="846.5" y2="1010.5"/><line style="stroke:#0F172A;stroke-width:1;" x1="1156.5811" x2="999.623" y1="1010.5" y2="1010.5"/><line style="stroke:#0F172A;stroke-width:1;" x1="999.623" x2="999.623" y1="1010.5" y2="1074.5"/><polygon fill="#0F172A" points="995.623,1064.5,999.623,1074.5,1003.623,1064.5,999.623,1068.5" style="stroke:#0F172A;stroke-width:1;"/><line style="stroke:#0F172A;stroke-width:1;" x1="999.623" x2="999.623" y1="1239.5" y2="1261"/><polygon fill="#0F172A" points="995.623,1251,999.623,1261,1003.623,1251,999.623,1255" style="stroke:#0F172A;stroke-width:1;"/><line style="stroke:#0F172A;stroke-width:1;" x1="999.623" x2="999.623" y1="1166.5" y2="1191.5"/><polygon fill="#0F172A" points="995.623,1181.5,999.623,1191.5,1003.623,1181.5,999.623,1185.5" style="stroke:#0F172A;stroke-width:1;"/><line style="stroke:#0F172A;stroke-width:1;" x1="1137.2061" x2="1160.8467" y1="1154.5" y2="1154.5"/><polygon fill="#0F172A" points="1156.8467,1231,1160.8467,1241,1164.8467,1231,1160.8467,1235" style="stroke:#0F172A;stroke-width:1;"/><line style="stroke:#0F172A;stroke-width:1;" x1="1160.8467" x2="1160.8467" y1="1154.5" y2="1305"/><line style="stroke:#0F172A;stroke-width:1;" x1="1160.8467" x2="999.623" y1="1305" y2="1305"/><line style="stroke:#0F172A;stroke-width:1;" x1="999.623" x2="999.623" y1="1305" y2="1325"/><polygon fill="#0F172A" points="995.623,1315,999.623,1325,1003.623,1315,999.623,1319" style="stroke:#0F172A;stroke-width:1;"/><line style="stroke:#0F172A;stroke-width:1;" x1="999.623" x2="999.623" y1="1122.5" y2="1142.5"/><polygon fill="#0F172A" points="995.623,1132.5,999.623,1142.5,1003.623,1132.5,999.623,1136.5" style="stroke:#0F172A;stroke-width:1;"/><line style="stroke:#0F172A;stroke-width:1;" x1="877.1953" x2="858.4082" y1="1337" y2="1337"/><line style="stroke:#0F172A;stroke-width:1;" x1="858.4082" x2="858.4082" y1="1337" y2="1359"/><polygon fill="#0F172A" points="854.4082,1349,858.4082,1359,862.4082,1349,858.4082,1353" style="stroke:#0F172A;stroke-width:1;"/><line style="stroke:#0F172A;stroke-width:1;" x1="1122.0508" x2="1140.8379" y1="1337" y2="1337"/><line style="stroke:#0F172A;stroke-width:1;" x1="1140.8379" x2="1140.8379" y1="1337" y2="1359"/><polygon fill="#0F172A" points="1136.8379,1349,1140.8379,1359,1144.8379,1349,1140.8379,1353" style="stroke:#0F172A;stroke-width:1;"/><line style="stroke:#0F172A;stroke-width:1;" x1="858.4082" x2="858.4082" y1="1407" y2="1425"/><line style="stroke:#0F172A;stroke-width:1;" x1="858.4082" x2="987.623" y1="1425" y2="1425"/><polygon fill="#0F172A" points="977.623,1421,987.623,1425,977.623,1429,981.623,1425" style="stroke:#0F172A;stroke-width:1;"/><line style="stroke:#0F172A;stroke-width:1;" x1="1140.8379" x2="1140.8379" y1="1393" y2="1425"/><line style="stroke:#0F172A;stroke-width:1;" x1="1140.8379" x2="1011.623" y1="1425" y2="1425"/><polygon fill="#0F172A" points="1021.623,1421,1011.623,1425,1021.623,1429,1017.623,1425" style="stroke:#0F172A;stroke-width:1;"/><line style="stroke:#0F172A;stroke-width:1;" x1="999.623" x2="999.623" y1="1437" y2="1457"/><polygon fill="#0F172A" points="995.623,1447,999.623,1457,1003.623,1447,999.623,1451" style="stroke:#0F172A;stroke-width:1;"/><line style="stroke:#0F172A;stroke-width:1;" x1="999.623" x2="999.623" y1="1575" y2="1595"/><polygon fill="#0F172A" points="995.623,1585,999.623,1595,1003.623,1585,999.623,1589" style="stroke:#0F172A;stroke-width:1;"/><line style="stroke:#0F172A;stroke-width:1;" x1="999.623" x2="999.623" y1="1629" y2="1649"/><polygon fill="#0F172A" points="995.623,1639,999.623,1649,1003.623,1639,999.623,1643" style="stroke:#0F172A;stroke-width:1;"/><line style="stroke:#0F172A;stroke-width:1;" x1="999.623" x2="999.623" y1="1697" y2="1717"/><polygon fill="#0F172A" points="995.623,1707,999.623,1717,1003.623,1707,999.623,1711" style="stroke:#0F172A;stroke-width:1;"/><line style="stroke:#0F172A;stroke-width:1;" x1="595.5073" x2="339.7441" y1="565" y2="565"/><line style="stroke:#0F172A;stroke-width:1;" x1="339.7441" x2="339.7441" y1="565" y2="621"/><polygon fill="#0F172A" points="335.7441,611,339.7441,621,343.7441,611,339.7441,615" style="stroke:#0F172A;stroke-width:1;"/><line style="stroke:#0F172A;stroke-width:1;" x1="743.8599" x2="999.623" y1="565" y2="565"/><line style="stroke:#0F172A;stroke-width:1;" x1="999.623" x2="999.623" y1="565" y2="621"/><polygon fill="#0F172A" points="995.623,611,999.623,621,1003.623,611,999.623,615" style="stroke:#0F172A;stroke-width:1;"/><line style="stroke:#0F172A;stroke-width:1;" x1="999.623" x2="999.623" y1="1751" y2="1768"/><line style="stroke:#0F172A;stroke-width:1;" x1="999.623" x2="669.6836" y1="1768" y2="1768"/><line style="stroke:#0F172A;stroke-width:1;" x1="669.6836" x2="669.6836" y1="1768" y2="1984"/><polygon fill="#0F172A" points="665.6836,1974,669.6836,1984,673.6836,1974,669.6836,1978" style="stroke:#0F172A;stroke-width:1;"/><line style="stroke:#0F172A;stroke-width:1;" x1="669.6836" x2="669.6836" y1="521" y2="553"/><polygon fill="#0F172A" points="665.6836,543,669.6836,553,673.6836,543,669.6836,547" style="stroke:#0F172A;stroke-width:1;"/><?plantuml-src bLVRJXj947sVhsYnBuc48IIGP6r5As98WXG512HviOJQqpLsB-tksUuUizvL_drFNsOyDfTaXH1pgQckEdNgLE5kfQwvvGlcvboOEwbdhEBAKU6wDrDUtiwiQRGO6sKi-wqgyIDw5e8gtYZ_mMZ_XI-8VIAr92zB_h3DbVo7sC5XxoMtrjnbxo-gWpSl-rzgu-dzlHYgwerulMrbh22RBQQ7HwzU_Bvb4OxFxr-zEZmuEkgzZ-vBOpLPTl2wyD8hOiUbbqlfLso039QcTlidyS_xHYfn8MjIKjELvpDo_NpQh_ujs0FulQruLOOt_NXptenLwnYxPqBoXT7Y7WpqajvMBte6VOy7uf34s_NB3myuTfvRlsrFdV_ERigtlFueugS54WPIqcYsSpvrP9V4k1RilTHY1-aFhu8Lgwo95BCaMANCtKIdcts4DWDYRZ_T3ooLHfTIqQ35SCyjPwDYU4bSe0HE1XUFre2vcihTYVOMIC4GCVh6xSQG12donAJsfFsea1LxjdETxP0O_LqhMKhFpiTdJ0hOX0BMbXmk_zXvploSD7ks8lUy67ua7-vPsLYBr_4RM9h6biIMaayqB1wDSbGGMemzq-PvICmP5L532DBvq88RxlmS5P_D9_eptZwUUUDYyqhboRg9BiqYb6Q1w6was8r8470SMy953Fv-qEdbusVS1GYqcMXBZUDJzCU2-tBEf0DhmKhuly3fY3CUO5Dg4TuokXORw4uqYc5oaG2A5h82iM9bJbArBFtLaCE7MnNeqIvPHhBbZshkvy2304DwyaH64gRXaC2hYGOAxAdA8PEVrG49dPn-Fhq-FGb5q9Mqm0Y11kpJRM9YYFsdJFc5ynf0gGAieIgydEDHFd-qWMIfYEkcZgrGISqLLDWYTJm65rrJbdGFPP1pOPQ9BUjlU0MAjUqKU9QosM0rWbkngJAnkrA8RG0WG-ShnBmHG8y6pfkwvx9NyS-oed85Vsoik7EomgW9Rm87Oig1P97mw7QawEqgajMHlvzWv5VYMKDWEBGdTyQ2I-tWOQ8lBi-_dLsTdNyv-_9nbtszE3c-ZbSHQ5oDSh0nykq8KCJ6Et0-vUX04MvdvDtzM7nZTH22HcVJgb6iayJGJnYX2Sw9Ja6cYX-Fhy--dMw4yQEFM53FLIpzYPMLPvzm2GxDOjUCerGGKtAPKa-1yrd8FtMoNDJ6-j0XbIG5NMrinKlA3FjWe203JNUnqK5o26dKCH4F4-19wHyYrvzudescL1cRZbyqFfOJccB3R_ATZtPiKzdkGt_Lr2dOw2ZK_UamZkjQhTZNMZmfVKR3g0hjs7hDuGZfQiLNDngRpsOBtCewWgVDmDJhh88wjImVNZPuOCqIzB1iJgeEVuov3GeU5VEThrgDtaloV9blmvXRl_lE9POh-ztOsypfxv2sKonMjYtsH2VPVUS9FHjBN8Q8teqlJu-3NapGdcBhp8HBUoPCKj_tJPB0j2PfI21l81M6GvfAW6g0CYmfvOzHHsNZmoXiQTysHoXwG2rHkdlSpgyBQo9hMitEqsDBrce32gw2kdYGU10xPf3L65j6oc6KsnzjRt8L7E10mBii0X6le7KB-0qt8pHLgblaN5WecPMpkI_oQfEtcM7nlxQRehSZXSopitNVT-iaaYp2XYDZcXrn1jEqnOmllvxiiZimOJUPHcW6TO8iS4y4F9G3qopj5PX7tXgbu05ApTNwe3PmneKe5EOF3Cmjn1lbzDYd786TFi4i2GyIeiKyKorjNAQcsCGBk9xnskqLt4Ak_AecB9JWnX335kjsN0p2xYZHwWkkqN2sABlWqbQNStuGe42f8exoV9eD5ST_8kOExjrSrdj5zZ_CUtpXL3DhRwQXuUlSy2vjyrZcnV3nJNETof3DsYG6sqca2kntn1okURjVF4dE8a-auQyGi-Wa9BQ96-PrY_K7roXzIqKxlqRj36_7ME4wwOoIETmGDqGKEoyhTTGpXDS9T1R4ObEV8tjOOW_wekHLPPIuIRZVF0v_NcJPWtjiqGuPPAgDfY8oBL0itr_bSzW262Df7lLx1FIHJj0eSAN7i44a6DQ8ZZW9nvnhW7TXGWFjXVwF_qd-1m00?></g></svg>