<?plantuml 1.2026.1?><svg xmlns="http://www.w3.org/2000/svg" xmlns:xlink="http://www.w3.org/1999/xlink" contentStyleType="text/css" data-diagram-type="SEQUENCE" height="1964px" preserveAspectRatio="none" style="width:1206px;height:1964px;background:#FCFCFD;" version="1.1" viewBox="0 0 1206 1964" width="1206px" zoomAndPan="magnify"><title>Sequence - loadbalancer/LoadBalancer</title><defs/><g><rect fill="#FCFCFD" height="1964" style="stroke:none;stroke-width:1;" width="1206" x="0" y="0"/><text fill="#000000" font-family="Helvetica" font-size="14" font-weight="bold" lengthAdjust="spacing" textLength="261.4199" x="478.7688" y="25.7803">Sequence - loadbalancer/LoadBalancer</text><rect fill="none" height="290" rx="8" ry="8" style="stroke:#CBD5E1;stroke-width:1.5;" width="738.3779" x="445.3145" y="314"/><rect fill="none" height="146" rx="8" ry="8" style="stroke:#CBD5E1;stroke-width:1.5;" width="475.9575" x="697.7349" y="423"/><rect fill="none" height="44" rx="8" ry="8" style="stroke:#CBD5E1;stroke-width:1.5;" width="455.9575" x="707.7349" y="474"/><rect fill="none" height="798" rx="8" ry="8" style="stroke:#CBD5E1;stroke-width:1.5;" width="774.6431" x="425.3145" y="618"/><rect fill="none" height="246" rx="8" ry="8" style="stroke:#CBD5E1;stroke-width:1.5;" width="738.3779" x="435.3145" y="641"/><rect fill="none" height="44" rx="8" ry="8" style="stroke:#CBD5E1;stroke-width:1.5;" width="455.9575" x="707.7349" y="734"/><rect fill="none" height="88" rx="8" ry="8" style="stroke:#CBD5E1;stroke-width:1.5;" width="438.813" x="445.3145" y="792"/><rect fill="none" height="378" rx="8" ry="8" style="stroke:#CBD5E1;stroke-width:1.5;" width="754.6431" x="435.3145" y="989"/><rect fill="none" height="44" rx="8" ry="8" style="stroke:#CBD5E1;stroke-width:1.5;" width="438.813" x="445.3145" y="1088"/><rect fill="none" height="116" rx="8" ry="8" style="stroke:#CBD5E1;stroke-width:1.5;" width="475.9575" x="697.7349" y="1146"/><rect fill="none" height="44" rx="8" ry="8" style="stroke:#CBD5E1;stroke-width:1.5;" width="455.9575" x="707.7349" y="1211"/><g class="participant-lifeline" data-entity-uid="part1" data-qualified-name="Kubernetes" id="part1-lifeline"><g><title>Kubernetes</title><rect fill="#000000" fill-opacity="0.00000" height="1843" width="8" x="39.8032" y="114"/><line style="stroke:#94A3B8;stroke-width:0.5;stroke-dasharray:5,5;" x1="43" x2="43" y1="114" y2="1957"/></g></g><g class="participant-lifeline" data-entity-uid="part2" data-qualified-name="Controller" id="part2-lifeline"><g><title>Controller</title><rect fill="#000000" fill-opacity="0.00000" height="1843" width="8" x="268.5122" y="114"/><line style="stroke:#94A3B8;stroke-width:0.5;stroke-dasharray:5,5;" x1="272.1675" x2="272.1675" y1="114" y2="1957"/></g></g><g class="participant-lifeline" data-entity-uid="part3" data-qualified-name="BaseReconciler" id="part3-lifeline"><g><title>BaseReconciler</title><rect fill="#000000" fill-opacity="0.00000" height="1843" width="8" x="507.3384" y="114"/><line style="stroke:#94A3B8;stroke-width:0.5;stroke-dasharray:5,5;" x1="511.3145" x2="511.3145" y1="114" y2="1957"/></g></g><g class="participant-lifeline" data-entity-uid="part4" data-qualified-name="ServiceManager" id="part4-lifeline"><g><title>OSOKServiceManager</title><rect fill="#000000" fill-opacity="0.00000" height="1843" width="8" x="791.9312" y="114"/><line style="stroke:#94A3B8;stroke-width:0.5;stroke-dasharray:5,5;" x1="795.7349" x2="795.7349" y1="114" y2="1957"/></g></g><g class="participant-lifeline" data-entity-uid="part5" data-qualified-name="OCI" id="part5-lifeline"><g><title>OCI</title><rect fill="#000000" fill-opacity="0.00000" height="1843" width="8" x="1130.2476" y="114"/><line style="stroke:#94A3B8;stroke-width:0.5;stroke-dasharray:5,5;" x1="1133.8027" x2="1133.8027" y1="114" y2="1957"/></g></g><g class="participant participant-head" data-entity-uid="part1" data-qualified-name="Kubernetes" id="part1-head"><text fill="#000000" font-family="Helvetica" font-size="14" lengthAdjust="spacing" textLength="71.6064" x="5" y="110.7803">Kubernetes</text><ellipse cx="43.8032" cy="48.5" fill="#E2E8F0" rx="8" ry="8" style="stroke:#0F172A;stroke-width:0.5;"/><path d="M43.8032,56.5 L43.8032,83.5 M30.8032,64.5 L56.8032,64.5 M43.8032,83.5 L30.8032,98.5 M43.8032,83.5 L56.8032,98.5" fill="none" style="stroke:#0F172A;stroke-width:0.5;"/></g><g class="participant participant-head" data-entity-uid="part2" data-qualified-name="Controller" id="part2-head"><rect fill="#E2E8F0" height="28" rx="8" ry="8" style="stroke:#0F172A;stroke-width:0.5;" width="74.6895" x="235.1675" y="85"/><text fill="#0F172A" font-family="Helvetica" font-size="14" lengthAdjust="spacing" textLength="60.6895" x="242.1675" y="102.7803">Controller</text></g><g class="participant participant-head" data-entity-uid="part3" data-qualified-name="BaseReconciler" id="part3-head"><rect fill="#E2E8F0" height="28" rx="8" ry="8" style="stroke:#0F172A;stroke-width:0.5;" width="112.0479" x="455.3145" y="85"/><text fill="#0F172A" font-family="Helvetica" font-size="14" lengthAdjust="spacing" textLength="98.0479" x="462.3145" y="102.7803">BaseReconciler</text></g><g class="participant participant-head" data-entity-uid="part4" data-qualified-name="ServiceManager" id="part4-head"><rect fill="#E2E8F0" height="28" rx="8" ry="8" style="stroke:#0F172A;stroke-width:0.5;" width="156.3926" x="717.7349" y="85"/><text fill="#0F172A" font-family="Helvetica" font-size="14" lengthAdjust="spacing" textLength="142.3926" x="724.7349" y="102.7803">OSOKServiceManager</text></g><g class="participant participant-head" data-entity-uid="part5" data-qualified-name="OCI" id="part5-head"><rect fill="#E2E8F0" height="28" rx="8" ry="8" style="stroke:#0F172A;stroke-width:0.5;" width="38.8896" x="1114.8027" y="85"/><text fill="#0F172A" font-family="Helvetica" font-size="14" lengthAdjust="spacing" textLength="24.8896" x="1121.8027" y="102.7803">OCI</text></g><path d="M446,137 L446,187 A8,8 0 0 0 454,195 L851,195 A8,8 0 0 0 859,187 L859,139 L849,129 L454,129 A8,8 0 0 0 446,137" fill="#FFF7D6" style="stroke:#B45309;stroke-width:0.5;"/><path d="M849,129 L849,135 A4,4 0 0 0 853,139 L859,139 L849,129" fill="#FFF7D6" style="stroke:#B45309;stroke-width:0.5;"/><text fill="#334155" font-family="Helvetica" font-size="14" lengthAdjust="spacing" textLength="111.2891" x="494.7107" y="144.7803">shared resolution:</text><text fill="#334155" font-family="Helvetica" font-size="14" lengthAdjust="spacing" textLength="307.3916" x="494.7107" y="158.7803">shared/diagrams/shared-resolution-sequence.svg</text><text fill="#334155" font-family="Helvetica" font-size="14" lengthAdjust="spacing" textLength="88.7305" x="494.7107" y="172.7803">shared delete:</text><text fill="#334155" font-family="Helvetica" font-size="14" lengthAdjust="spacing" textLength="284.833" x="494.7107" y="186.7803">shared/diagrams/shared-delete-sequence.svg</text><g class="message" data-entity-1="part1" data-entity-2="part2" id="msg1"><polygon fill="#0F172A" points="260.5122,216,270.5122,220,260.5122,224,264.5122,220" style="stroke:#0F172A;stroke-width:1;"/><line style="stroke:#0F172A;stroke-width:1;" x1="43.8032" x2="266.5122" y1="220" y2="220"/><text fill="#000000" font-family="Helvetica" font-size="14" lengthAdjust="spacing" textLength="204.709" x="50.8032" y="214.7803">enqueue LoadBalancer reconcile</text></g><g class="message" data-entity-1="part2" data-entity-2="part3" id="msg2"><polygon fill="#0F172A" points="499.3384,244,509.3384,248,499.3384,252,503.3384,248" style="stroke:#0F172A;stroke-width:1;"/><line style="stroke:#0F172A;stroke-width:1;" x1="272.5122" x2="505.3384" y1="248" y2="248"/><text fill="#000000" font-family="Helvetica" font-size="14" lengthAdjust="spacing" textLength="117.4961" x="279.5122" y="242.7803">Reconcile(request)</text></g><g class="message" data-entity-1="part3" data-entity-2="part4" id="msg3"><polygon fill="#0F172A" points="783.9312,272,793.9312,276,783.9312,280,787.9312,276" style="stroke:#0F172A;stroke-width:1;"/><line style="stroke:#0F172A;stroke-width:1;" x1="511.3384" x2="789.9312" y1="276" y2="276"/><text fill="#000000" font-family="Helvetica" font-size="14" lengthAdjust="spacing" textLength="196.123" x="518.3384" y="270.7803">reconcile desired LoadBalancer</text></g><path d="M453.3145,314 L506.6523,314 L506.6523,320 L496.6523,330 L445.3145,330 L445.3145,322 A8,8 0 0 1 453.3145,314" fill="#F8FAFC" style="stroke:#CBD5E1;stroke-width:1.5;"/><rect fill="none" height="290" rx="8" ry="8" style="stroke:#CBD5E1;stroke-width:1.5;" width="738.3779" x="445.3145" y="314"/><text fill="#000000" font-family="Helvetica" font-size="14" font-weight="bold" lengthAdjust="spacing" textLength="16.3379" x="460.3145" y="325.7803">alt</text><text fill="#000000" font-family="Helvetica" font-size="14" font-weight="bold" lengthAdjust="spacing" textLength="308.1094" x="521.6523" y="326.7803">[tracked or explicit OCI identity already exists]</text><g class="message" data-entity-1="part4" data-entity-2="part5" id="msg4"><polygon fill="#0F172A" points="1122.2476,346,1132.2476,350,1122.2476,354,1126.2476,350" style="stroke:#0F172A;stroke-width:1;"/><line style="stroke:#0F172A;stroke-width:1;" x1="795.9312" x2="1128.2476" y1="350" y2="350"/><text fill="#000000" font-family="Helvetica" font-size="14" lengthAdjust="spacing" textLength="108.9648" x="802.9312" y="344.7803">GetLoadBalancer</text></g><line style="stroke:#CBD5E1;stroke-width:1;stroke-dasharray:2,2;" x1="445.3145" x2="1183.6924" y1="359" y2="359"/><text fill="#000000" font-family="Helvetica" font-size="14" font-weight="bold" lengthAdjust="spacing" textLength="185.1582" x="450.3145" y="369.7803">[tracked identity is missing]</text><g class="message" data-entity-1="part4" data-entity-2="part5" id="msg5"><polygon fill="#0F172A" points="1122.2476,404,1132.2476,408,1122.2476,412,1126.2476,408" style="stroke:#0F172A;stroke-width:1;"/><line style="stroke:#0F172A;stroke-width:1;" x1="795.9312" x2="1128.2476" y1="408" y2="408"/><text fill="#000000" font-family="Helvetica" font-size="14" lengthAdjust="spacing" textLength="150.1855" x="802.9312" y="388.7803">ListLoadBalancer(filters:</text><text fill="#000000" font-family="Helvetica" font-size="14" lengthAdjust="spacing" textLength="143.1719" x="802.9312" y="402.7803">compartment_id, state)</text></g><path d="M705.7349,423 L759.0728,423 L759.0728,429 L749.0728,439 L697.7349,439 L697.7349,431 A8,8 0 0 1 705.7349,423" fill="#F8FAFC" style="stroke:#CBD5E1;stroke-width:1.5;"/><rect fill="none" height="146" rx="8" ry="8" style="stroke:#CBD5E1;stroke-width:1.5;" width="475.9575" x="697.7349" y="423"/><text fill="#000000" font-family="Helvetica" font-size="14" font-weight="bold" lengthAdjust="spacing" textLength="16.3379" x="712.7349" y="434.7803">alt</text><text fill="#000000" font-family="Helvetica" font-size="14" font-weight="bold" lengthAdjust="spacing" textLength="242.7031" x="774.0728" y="435.7803">[reusable OCI resource is not found]</text><g class="message" data-entity-1="part4" data-entity-2="part5" id="msg6"><polygon fill="#0F172A" points="1122.2476,455,1132.2476,459,1122.2476,463,1126.2476,459" style="stroke:#0F172A;stroke-width:1;"/><line style="stroke:#0F172A;stroke-width:1;" x1="795.9312" x2="1128.2476" y1="459" y2="459"/><text fill="#000000" font-family="Helvetica" font-size="14" lengthAdjust="spacing" textLength="128.4199" x="802.9312" y="453.7803">CreateLoadBalancer</text></g><path d="M715.7349,474 L782.2798,474 L782.2798,480 L772.2798,490 L707.7349,490 L707.7349,482 A8,8 0 0 1 715.7349,474" fill="#F8FAFC" style="stroke:#CBD5E1;stroke-width:1.5;"/><rect fill="none" height="44" rx="8" ry="8" style="stroke:#CBD5E1;stroke-width:1.5;" width="455.9575" x="707.7349" y="474"/><text fill="#000000" font-family="Helvetica" font-size="14" font-weight="bold" lengthAdjust="spacing" textLength="29.5449" x="722.7349" y="485.7803">loop</text><text fill="#000000" font-family="Helvetica" font-size="14" font-weight="bold" lengthAdjust="spacing" textLength="215.4756" x="797.2798" y="486.7803">[create pending PROVISIONING]</text><g class="message" data-entity-1="part4" data-entity-2="part5" id="msg7"><polygon fill="#0F172A" points="1122.2476,506,1132.2476,510,1122.2476,514,1126.2476,510" style="stroke:#0F172A;stroke-width:1;"/><line style="stroke:#0F172A;stroke-width:1;" x1="795.9312" x2="1128.2476" y1="510" y2="510"/><text fill="#000000" font-family="Helvetica" font-size="14" lengthAdjust="spacing" textLength="108.9648" x="802.9312" y="504.7803">GetLoadBalancer</text></g><line style="stroke:#CBD5E1;stroke-width:1;stroke-dasharray:2,2;" x1="697.7349" x2="1173.6924" y1="526" y2="526"/><text fill="#000000" font-family="Helvetica" font-size="14" font-weight="bold" lengthAdjust="spacing" textLength="255.2334" x="702.7349" y="536.7803">[reusable OCI resource already exists]</text><g class="message" data-entity-1="part4" data-entity-2="part5" id="msg8"><polygon fill="#0F172A" points="1122.2476,557,1132.2476,561,1122.2476,565,1126.2476,561" style="stroke:#0F172A;stroke-width:1;"/><line style="stroke:#0F172A;stroke-width:1;" x1="795.9312" x2="1128.2476" y1="561" y2="561"/><text fill="#000000" font-family="Helvetica" font-size="14" lengthAdjust="spacing" textLength="108.9648" x="802.9312" y="555.7803">GetLoadBalancer</text></g><g class="message" data-entity-1="part4" data-entity-2="part3" id="msg9"><polygon fill="#0F172A" points="522.3384,592,512.3384,596,522.3384,600,518.3384,596" style="stroke:#0F172A;stroke-width:1;"/><line style="stroke:#0F172A;stroke-width:1;stroke-dasharray:2,2;" x1="516.3384" x2="794.9312" y1="596" y2="596"/><text fill="#000000" font-family="Helvetica" font-size="14" lengthAdjust="spacing" textLength="231.0957" x="528.3384" y="590.7803">persist resolved OCI identity in status</text></g><path d="M433.3145,618 L486.6523,618 L486.6523,624 L476.6523,634 L425.3145,634 L425.3145,626 A8,8 0 0 1 433.3145,618" fill="#F8FAFC" style="stroke:#CBD5E1;stroke-width:1.5;"/><rect fill="none" height="798" rx="8" ry="8" style="stroke:#CBD5E1;stroke-width:1.5;" width="774.6431" x="425.3145" y="618"/><text fill="#000000" font-family="Helvetica" font-size="14" font-weight="bold" lengthAdjust="spacing" textLength="16.3379" x="440.3145" y="629.7803">alt</text><text fill="#000000" font-family="Helvetica" font-size="14" font-weight="bold" lengthAdjust="spacing" textLength="120.5859" x="501.6523" y="630.7803">[delete requested]</text><path d="M443.3145,641 L522.335,641 L522.335,647 L512.335,657 L435.3145,657 L435.3145,649 A8,8 0 0 1 443.3145,641" fill="#F8FAFC" style="stroke:#CBD5E1;stroke-width:1.5;"/><rect fill="none" height="246" rx="8" ry="8" style="stroke:#CBD5E1;stroke-width:1.5;" width="738.3779" x="435.3145" y="641"/><text fill="#000000" font-family="Helvetica" font-size="14" font-weight="bold" lengthAdjust="spacing" textLength="42.0205" x="450.3145" y="652.7803">Delete</text><g class="message" data-entity-1="part4" data-entity-2="part5" id="msg10"><polygon fill="#0F172A" points="1122.2476,673,1132.2476,677,1122.2476,681,1126.2476,677" style="stroke:#0F172A;stroke-width:1;"/><line style="stroke:#0F172A;stroke-width:1;" x1="795.9312" x2="1128.2476" y1="677" y2="677"/><text fill="#000000" font-family="Helvetica" font-size="14" lengthAdjust="spacing" textLength="126.8682" x="802.9312" y="671.7803">DeleteLoadBalancer</text></g><g class="message" data-entity-1="part4" data-entity-2="part5" id="msg11"><polygon fill="#0F172A" points="1122.2476,715,1132.2476,719,1122.2476,723,1126.2476,719" style="stroke:#0F172A;stroke-width:1;"/><line style="stroke:#0F172A;stroke-width:1;" x1="795.9312" x2="1128.2476" y1="719" y2="719"/><text fill="#000000" font-family="Helvetica" font-size="14" lengthAdjust="spacing" textLength="222.5713" x="802.9312" y="699.7803">confirm delete via GetLoadBalancer</text><text fill="#000000" font-family="Helvetica" font-size="14" lengthAdjust="spacing" textLength="124.5234" x="802.9312" y="713.7803">or ListLoadBalancer</text></g><path d="M715.7349,734 L782.2798,734 L782.2798,740 L772.2798,750 L707.7349,750 L707.7349,742 A8,8 0 0 1 715.7349,734" fill="#F8FAFC" style="stroke:#CBD5E1;stroke-width:1.5;"/><rect fill="none" height="44" rx="8" ry="8" style="stroke:#CBD5E1;stroke-width:1.5;" width="455.9575" x="707.7349" y="734"/><text fill="#000000" font-family="Helvetica" font-size="14" font-weight="bold" lengthAdjust="spacing" textLength="29.5449" x="722.7349" y="745.7803">loop</text><text fill="#000000" font-family="Helvetica" font-size="14" font-weight="bold" lengthAdjust="spacing" textLength="182.7793" x="797.2798" y="746.7803">[delete pending DELETING]</text><g class="message" data-entity-1="part4" data-entity-2="part5" id="msg12"><polygon fill="#0F172A" points="1122.2476,766,1132.2476,770,1122.2476,774,1126.2476,770" style="stroke:#0F172A;stroke-width:1;"/><line style="stroke:#0F172A;stroke-width:1;" x1="795.9312" x2="1128.2476" y1="770" y2="770"/><text fill="#000000" font-family="Helvetica" font-size="14" lengthAdjust="spacing" textLength="237.3779" x="802.9312" y="764.7803">GetLoadBalancer or ListLoadBalancer</text></g><path d="M453.3145,792 L506.6523,792 L506.6523,798 L496.6523,808 L445.3145,808 L445.3145,800 A8,8 0 0 1 453.3145,792" fill="#F8FAFC" style="stroke:#CBD5E1;stroke-width:1.5;"/><rect fill="none" height="88" rx="8" ry="8" style="stroke:#CBD5E1;stroke-width:1.5;" width="438.813" x="445.3145" y="792"/><text fill="#000000" font-family="Helvetica" font-size="14" font-weight="bold" lengthAdjust="spacing" textLength="16.3379" x="460.3145" y="803.7803">alt</text><text fill="#000000" font-family="Helvetica" font-size="14" font-weight="bold" lengthAdjust="spacing" textLength="261.4268" x="521.6523" y="804.7803">[cleanup or finalizer release is blocked]</text><g class="message" data-entity-1="part4" data-entity-2="part3" id="msg13"><polygon fill="#0F172A" points="522.3384,824,512.3384,828,522.3384,832,518.3384,828" style="stroke:#0F172A;stroke-width:1;"/><line style="stroke:#0F172A;stroke-width:1;stroke-dasharray:2,2;" x1="516.3384" x2="794.9312" y1="828" y2="828"/><text fill="#000000" font-family="Helvetica" font-size="14" lengthAdjust="spacing" textLength="170.4336" x="528.3384" y="822.7803">retain delete state and retry</text></g><line style="stroke:#CBD5E1;stroke-width:1;stroke-dasharray:2,2;" x1="445.3145" x2="884.1274" y1="837" y2="837"/><text fill="#000000" font-family="Helvetica" font-size="14" font-weight="bold" lengthAdjust="spacing" textLength="194.4824" x="450.3145" y="847.7803">[delete completion observed]</text><g class="message" data-entity-1="part4" data-entity-2="part3" id="msg14"><polygon fill="#0F172A" points="522.3384,868,512.3384,872,522.3384,876,518.3384,872" style="stroke:#0F172A;stroke-width:1;"/><line style="stroke:#0F172A;stroke-width:1;stroke-dasharray:2,2;" x1="516.3384" x2="794.9312" y1="872" y2="872"/><text fill="#000000" font-family="Helvetica" font-size="14" lengthAdjust="spacing" textLength="243.5781" x="528.3384" y="866.7803">release finalizer after delete completion</text></g><line style="stroke:#CBD5E1;stroke-width:1;stroke-dasharray:2,2;" x1="425.3145" x2="1199.9575" y1="895" y2="895"/><text fill="#000000" font-family="Helvetica" font-size="14" font-weight="bold" lengthAdjust="spacing" textLength="149.3857" x="430.3145" y="905.7803">[OCI state is retryable]</text><g class="message" data-entity-1="part4" data-entity-2="part3" id="msg15"><polygon fill="#0F172A" points="522.3384,940,512.3384,944,522.3384,948,518.3384,944" style="stroke:#0F172A;stroke-width:1;"/><line style="stroke:#0F172A;stroke-width:1;stroke-dasharray:2,2;" x1="516.3384" x2="794.9312" y1="944" y2="944"/><text fill="#000000" font-family="Helvetica" font-size="14" lengthAdjust="spacing" textLength="184.4199" x="528.3384" y="924.7803">requeue while OCI remains in</text><text fill="#000000" font-family="Helvetica" font-size="14" lengthAdjust="spacing" textLength="260.5928" x="528.3384" y="938.7803">PROVISIONING, UPDATING, DELETING</text></g><line style="stroke:#CBD5E1;stroke-width:1;stroke-dasharray:2,2;" x1="425.3145" x2="1199.9575" y1="953" y2="953"/><text fill="#000000" font-family="Helvetica" font-size="14" font-weight="bold" lengthAdjust="spacing" textLength="200.751" x="430.3145" y="963.7803">[live state requires field-aware</text><text fill="#000000" font-family="Helvetica" font-size="14" font-weight="bold" lengthAdjust="spacing" textLength="105.0068" x="430.3145" y="977.7803">drift evaluation]</text><path d="M443.3145,989 L571.3008,989 L571.3008,995 L561.3008,1005 L435.3145,1005 L435.3145,997 A8,8 0 0 1 443.3145,989" fill="#F8FAFC" style="stroke:#CBD5E1;stroke-width:1.5;"/><rect fill="none" height="378" rx="8" ry="8" style="stroke:#CBD5E1;stroke-width:1.5;" width="754.6431" x="435.3145" y="989"/><text fill="#000000" font-family="Helvetica" font-size="14" font-weight="bold" lengthAdjust="spacing" textLength="90.9863" x="450.3145" y="1000.7803">Drift handling</text><path d="M749,1018 L749,1068 A8,8 0 0 0 757,1076 L1171,1076 A8,8 0 0 0 1179,1068 L1179,1020 L1169,1010 L757,1010 A8,8 0 0 0 749,1018" fill="#FFF7D6" style="stroke:#B45309;stroke-width:0.5;"/><path d="M1169,1010 L1169,1016 A4,4 0 0 0 1173,1020 L1179,1020 L1169,1010" fill="#FFF7D6" style="stroke:#B45309;stroke-width:0.5;"/><text fill="#334155" font-family="Helvetica" font-size="14" lengthAdjust="spacing" textLength="255.2813" x="832.3381" y="1025.7803">Supported update surface: display_name</text><text fill="#334155" font-family="Helvetica" font-size="14" lengthAdjust="spacing" textLength="235.7783" x="832.3381" y="1039.7803">Reject before mutate: force-new fields</text><text fill="#334155" font-family="Helvetica" font-size="14" lengthAdjust="spacing" textLength="100.3789" x="832.3381" y="1053.7803">compartment_id</text><text fill="#334155" font-family="Helvetica" font-size="14" lengthAdjust="spacing" textLength="229.5576" x="832.3381" y="1067.7803">Lookup filters: compartment_id, state</text><path d="M453.3145,1088 L512.0801,1088 L512.0801,1094 L502.0801,1104 L445.3145,1104 L445.3145,1096 A8,8 0 0 1 453.3145,1088" fill="#F8FAFC" style="stroke:#CBD5E1;stroke-width:1.5;"/><rect fill="none" height="44" rx="8" ry="8" style="stroke:#CBD5E1;stroke-width:1.5;" width="438.813" x="445.3145" y="1088"/><text fill="#000000" font-family="Helvetica" font-size="14" font-weight="bold" lengthAdjust="spacing" textLength="21.7656" x="460.3145" y="1099.7803">opt</text><text fill="#000000" font-family="Helvetica" font-size="14" font-weight="bold" lengthAdjust="spacing" textLength="276.1309" x="527.0801" y="1100.7803">[force-new or conflicting drift is detected]</text><g class="message" data-entity-1="part4" data-entity-2="part3" id="msg16"><polygon fill="#0F172A" points="522.3384,1120,512.3384,1124,522.3384,1128,518.3384,1124" style="stroke:#0F172A;stroke-width:1;"/><line style="stroke:#0F172A;stroke-width:1;stroke-dasharray:2,2;" x1="516.3384" x2="794.9312" y1="1124" y2="1124"/><text fill="#000000" font-family="Helvetica" font-size="14" lengthAdjust="spacing" textLength="164.1855" x="528.3384" y="1118.7803">reject before OCI mutation</text></g><path d="M705.7349,1146 L764.5005,1146 L764.5005,1152 L754.5005,1162 L697.7349,1162 L697.7349,1154 A8,8 0 0 1 705.7349,1146" fill="#F8FAFC" style="stroke:#CBD5E1;stroke-width:1.5;"/><rect fill="none" height="116" rx="8" ry="8" style="stroke:#CBD5E1;stroke-width:1.5;" width="475.9575" x="697.7349" y="1146"/><text fill="#000000" font-family="Helvetica" font-size="14" font-weight="bold" lengthAdjust="spacing" textLength="21.7656" x="712.7349" y="1157.7803">opt</text><text fill="#000000" font-family="Helvetica" font-size="14" font-weight="bold" lengthAdjust="spacing" textLength="243.4619" x="779.5005" y="1158.7803">[supported mutable drift is detected]</text><g class="message" data-entity-1="part4" data-entity-2="part5" id="msg17"><polygon fill="#0F172A" points="1122.2476,1192,1132.2476,1196,1122.2476,1200,1126.2476,1196" style="stroke:#0F172A;stroke-width:1;"/><line style="stroke:#0F172A;stroke-width:1;" x1="795.9312" x2="1128.2476" y1="1196" y2="1196"/><text fill="#000000" font-family="Helvetica" font-size="14" lengthAdjust="spacing" textLength="220.2539" x="802.9312" y="1176.7803">Apply UpdateLoadBalancer only for</text><text fill="#000000" font-family="Helvetica" font-size="14" lengthAdjust="spacing" textLength="176.6543" x="802.9312" y="1190.7803">mutable fields display_name</text></g><path d="M715.7349,1211 L782.2798,1211 L782.2798,1217 L772.2798,1227 L707.7349,1227 L707.7349,1219 A8,8 0 0 1 715.7349,1211" fill="#F8FAFC" style="stroke:#CBD5E1;stroke-width:1.5;"/><rect fill="none" height="44" rx="8" ry="8" style="stroke:#CBD5E1;stroke-width:1.5;" width="455.9575" x="707.7349" y="1211"/><text fill="#000000" font-family="Helvetica" font-size="14" font-weight="bold" lengthAdjust="spacing" textLength="29.5449" x="722.7349" y="1222.7803">loop</text><text fill="#000000" font-family="Helvetica" font-size="14" font-weight="bold" lengthAdjust="spacing" textLength="190.5381" x="797.2798" y="1223.7803">[update pending UPDATING]</text><g class="message" data-entity-1="part4" data-entity-2="part5" id="msg18"><polygon fill="#0F172A" points="1122.2476,1243,1132.2476,1247,1122.2476,1251,1126.2476,1247" style="stroke:#0F172A;stroke-width:1;"/><line style="stroke:#0F172A;stroke-width:1;" x1="795.9312" x2="1128.2476" y1="1247" y2="1247"/><text fill="#000000" font-family="Helvetica" font-size="14" lengthAdjust="spacing" textLength="108.9648" x="802.9312" y="1241.7803">GetLoadBalancer</text></g><g class="message" data-entity-1="part4" data-entity-2="part5" id="msg19"><polygon fill="#0F172A" points="1122.2476,1355,1132.2476,1359,1122.2476,1363,1126.2476,1359" style="stroke:#0F172A;stroke-width:1;"/><line style="stroke:#0F172A;stroke-width:1;" x1="795.9312" x2="1128.2476" y1="1359" y2="1359"/><text fill="#000000" font-family="Helvetica" font-size="14" lengthAdjust="spacing" textLength="104.2891" x="802.9312" y="1283.7803">run helper hooks</text><text fill="#000000" font-family="Helvetica" font-size="14" lengthAdjust="spacing" textLength="219.0508" x="802.9312" y="1297.7803">create=tfresource.CreateResource,</text><text fill="#000000" font-family="Helvetica" font-size="14" lengthAdjust="spacing" textLength="314.3164" x="802.9312" y="1311.7803">tfresource.WaitForWorkRequestWithErrorHandling</text><text fill="#000000" font-family="Helvetica" font-size="14" lengthAdjust="spacing" textLength="215.5439" x="802.9312" y="1325.7803">entity=template action=CREATED;</text><text fill="#000000" font-family="Helvetica" font-size="14" lengthAdjust="spacing" textLength="226.085" x="802.9312" y="1339.7803">update=tfresource.UpdateResource;</text><text fill="#000000" font-family="Helvetica" font-size="14" lengthAdjust="spacing" textLength="212.8438" x="802.9312" y="1353.7803">delete=tfresource.DeleteResource</text></g><g class="message" data-entity-1="part4" data-entity-2="part3" id="msg20"><polygon fill="#0F172A" points="522.3384,1404,512.3384,1408,522.3384,1412,518.3384,1408" style="stroke:#0F172A;stroke-width:1;"/><line style="stroke:#0F172A;stroke-width:1;stroke-dasharray:2,2;" x1="516.3384" x2="794.9312" y1="1408" y2="1408"/><text fill="#000000" font-family="Helvetica" font-size="14" lengthAdjust="spacing" textLength="100.7822" x="528.3384" y="1388.7803">status=required,</text><text fill="#000000" font-family="Helvetica" font-size="14" lengthAdjust="spacing" textLength="230.7197" x="528.3384" y="1402.7803">finalizer=retain-until-confirmed-delete</text></g><g class="message" data-entity-1="part3" data-entity-2="part2" id="msg21"><polygon fill="#0F172A" points="283.5122,1453,273.5122,1457,283.5122,1461,279.5122,1457" style="stroke:#0F172A;stroke-width:1;"/><line style="stroke:#0F172A;stroke-width:1;stroke-dasharray:2,2;" x1="277.5122" x2="510.3384" y1="1457" y2="1457"/><text fill="#000000" font-family="Helvetica" font-size="14" lengthAdjust="spacing" textLength="214.8262" x="289.5122" y="1437.7803">requeue on provisioning, updating,</text><text fill="#000000" font-family="Helvetica" font-size="14" lengthAdjust="spacing" textLength="69.2549" x="289.5122" y="1451.7803">terminating</text></g><path d="M800,1478 L800,1934 A8,8 0 0 0 808,1942 L1120,1942 A8,8 0 0 0 1128,1934 L1128,1480 L1118,1470 L808,1470 A8,8 0 0 0 800,1478" fill="#FFF7D6" style="stroke:#B45309;stroke-width:0.5;"/><path d="M1118,1470 L1118,1476 A4,4 0 0 0 1122,1480 L1128,1480 L1118,1470" fill="#FFF7D6" style="stroke:#B45309;stroke-width:0.5;"/><text fill="#334155" font-family="Helvetica" font-size="14" lengthAdjust="spacing" textLength="101.165" x="806" y="1485.7803">shared diagram:</text><text fill="#334155" font-family="Helvetica" font-size="14" lengthAdjust="spacing" textLength="307.3916" x="806" y="1499.7803">shared/diagrams/shared-resolution-sequence.svg</text><text fill="#334155" font-family="Helvetica" font-size="14" lengthAdjust="spacing" textLength="143.1992" x="806" y="1513.7803">shared delete diagram:</text><text fill="#334155" font-family="Helvetica" font-size="14" lengthAdjust="spacing" textLength="284.833" x="806" y="1527.7803">shared/diagrams/shared-delete-sequence.svg</text><text fill="#334155" font-family="Helvetica" font-size="14" lengthAdjust="spacing" textLength="280.9297" x="806" y="1541.7803">Start from the shared resolution sequence for</text><text fill="#334155" font-family="Helvetica" font-size="14" lengthAdjust="spacing" textLength="260.7295" x="806" y="1555.7803">OCID binding, datasource pagination, and</text><text fill="#334155" font-family="Helvetica" font-size="14" lengthAdjust="spacing" textLength="163.4268" x="806" y="1569.7803">create-or-update dispatch.</text><text fill="#334155" font-family="Helvetica" font-size="14" lengthAdjust="spacing" textLength="301.1982" x="806" y="1583.7803">Layer the shared delete sequence when finalizer</text><text fill="#334155" font-family="Helvetica" font-size="14" lengthAdjust="spacing" textLength="269.2471" x="806" y="1597.7803">retention, delete confirmation, work-request</text><text fill="#334155" font-family="Helvetica" font-size="14" lengthAdjust="spacing" textLength="199.2334" x="806" y="1611.7803">polling, or Secret cleanup apply.</text><text fill="#334155" font-family="Helvetica" font-size="14" lengthAdjust="spacing" textLength="281.709" x="806" y="1625.7803">archetype batch: Generated service-manager</text><text fill="#334155" font-family="Helvetica" font-size="14" lengthAdjust="spacing" textLength="266.1504" x="806" y="1639.7803">controllers follow the shared resolution and</text><text fill="#334155" font-family="Helvetica" font-size="14" lengthAdjust="spacing" textLength="259.9297" x="806" y="1653.7803">delete sequences with imported waits and</text><text fill="#334155" font-family="Helvetica" font-size="14" lengthAdjust="spacing" textLength="134.6064" x="806" y="1667.7803">controller-local policy.</text><text fill="#334155" font-family="Helvetica" font-size="14" lengthAdjust="spacing" textLength="132.2959" x="806" y="1681.7803">service: loadbalancer</text><text fill="#334155" font-family="Helvetica" font-size="14" lengthAdjust="spacing" textLength="113.6338" x="806" y="1695.7803">slug: loadbalancer</text><text fill="#334155" font-family="Helvetica" font-size="14" lengthAdjust="spacing" textLength="119.8613" x="806" y="1709.7803">kind: LoadBalancer</text><text fill="#334155" font-family="Helvetica" font-size="14" lengthAdjust="spacing" textLength="241.2402" x="806" y="1723.7803">archetype: generated-service-manager</text><text fill="#334155" font-family="Helvetica" font-size="14" lengthAdjust="spacing" textLength="156.4063" x="806" y="1737.7803">status/finalizer: required /</text><text fill="#334155" font-family="Helvetica" font-size="14" lengthAdjust="spacing" textLength="174.3027" x="806" y="1751.7803">retain-until-confirmed-delete</text><text fill="#334155" font-family="Helvetica" font-size="14" lengthAdjust="spacing" textLength="272.3984" x="806" y="1765.7803">requeue: provisioning, updating, terminating</text><text fill="#334155" font-family="Helvetica" font-size="14" lengthAdjust="spacing" textLength="295.6816" x="806" y="1779.7803">provider states: create PROVISIONING; update</text><text fill="#334155" font-family="Helvetica" font-size="14" lengthAdjust="spacing" textLength="192.165" x="806" y="1793.7803">UPDATING; delete DELETING</text><text fill="#334155" font-family="Helvetica" font-size="14" lengthAdjust="spacing" textLength="183.6611" x="806" y="1807.7803">supported drift: display_name</text><text fill="#334155" font-family="Helvetica" font-size="14" lengthAdjust="spacing" textLength="230.3301" x="806" y="1821.7803">reject before mutate: force-new fields</text><text fill="#334155" font-family="Helvetica" font-size="14" lengthAdjust="spacing" textLength="100.3789" x="806" y="1835.7803">compartment_id</text><text fill="#334155" font-family="Helvetica" font-size="14" lengthAdjust="spacing" textLength="294.1982" x="806" y="1849.7803">list lookup: scaffold_loadbalancer_loadbalancer</text><text fill="#334155" font-family="Helvetica" font-size="14" lengthAdjust="spacing" textLength="175.8477" x="806" y="1863.7803">filters compartment_id, state</text><text fill="#334155" font-family="Helvetica" font-size="14" lengthAdjust="spacing" textLength="89.4961" x="806" y="1877.7803">conflicts: none</text><text fill="#334155" font-family="Helvetica" font-size="14" lengthAdjust="spacing" textLength="104.3164" x="806" y="1891.7803">open gaps: none</text><text fill="#334155" font-family="Helvetica" font-size="14" lengthAdjust="spacing" textLength="224.9023" x="806" y="1905.7803">Scaffold metadata only; replace with</text><text fill="#334155" font-family="Helvetica" font-size="14" lengthAdjust="spacing" textLength="244.3232" x="806" y="1919.7803">controller-specific runtime states before</text><text fill="#334155" font-family="Helvetica" font-size="14" lengthAdjust="spacing" textLength="66.1445" x="806" y="1933.7803">promotion.</text><?plantuml-src fLTRRzis57xNho2wbnQ8awP9Ud6G0MsIjK6pfeZRzSL0GKj7DXUQr4ZARZRil-_ZHRBasAlNmG-MoCDp_SvtA7idLCKDdpCxuuLU2ZLb9PUMCjlkJ7X-DpMwLiMvbjgmdyeSlw8ZKL39Q-b-qSfzu7DYxqWko8cSRvOPYJ-97HvtDhanUfcqFoqFNpphdbJQqPi7FfJbY-BvkfGs1PaaCJa-ENhwQat2cq_xHqV7XoSddVsWFjT6aM67ppCdd2GseZzgKZcn0PEQ5nCkETxCmJLUtgINR2OAOgNMRgA_THJQvknV6MCyTzhq74o1Dblh4T8pUba-nJQK8PUYuifjFjyLs4LB9mcj3YbAkXQgdy9Nn_neyXAxNcNLsyednGaTjbiFolEov6MU_Ps5sDZxUaB8goERTVnWvt34Q2cHmkxo6sxfbdAjSh6-zUXcTFD-H6OXSlgLApubyuXno_fBlICtvrUPBptJ2nIshtjlxHoQm53135ajQoUq6gQbWqBmAMfg3-BxO2KoQCgyRnVJHaD14j5kFHst-oT95G6YsIfPRF1p9qT3HWhoDR4k-E1iYYPRYVg3_KY7h7r-RBnPwvvaVH5_g9-FuKev8hB2HzO3VYW-blGT_ZW2c0XLP5mwvWmW0N4KdxvL4iK8bM3e58NEkcTS6kB5FNQ5TJRh6_QkG7h8tfBh6IHGKwkxrIKicmjhGLxRz5p3I5VHur98HyOEnohNSm-NENHz5SKUiuuxUXA2C5HRFa7mtdDVyTgWcs4DTKA_0-xRx9qZE4SzrwNM5Sl3EgjGR4-r7szlVhiQNTrykFhmTkSKm6f8msRlVZ2l6qBPWA4AAOFQs20BbA1NKg52yceRrFa4Hfop13Wg4c0kml8st-9kpxqjad2i56RUc5a8lXxOM060wyMFfKY7cb9SN5vVVjgz36oJtYRiN19NY1CofL1SOjxvFiMg3V2PIEq1l4l63JcEl2Pd0pP3es7Tt4SSf3sFOpo0aPYUM6ZUrK1qQ-KeBz4P3xL6u3NWyuMFtY2Uu8o7ucu68uajPwB5xXmnMk1dhBeTiSS-Vxnu_IayjUK9rgLODCdmwa1C5W6GB0Py2O8TgyA8qZ5QS5dpu7m2NbYU8O7IayLgBFJztlCpOrHNbJO0BQkhmbkojIbvJaDM25j9VlzLuQwJtTBlb3iseL8ROlFQEpK4EQ0N1ugMqIsRzLacIvJPi13RI4AhaQ0hrr49M7daWrITHswC5MKeKB3SxLhshjk-2i7rfixUe6qJuBSyqNpVKcgMrrKbxzddaBT-roYim-HODJfZVlev3VsPijxqPmE5_qIJsmdQr8hDI8BGs0ori9W3WPhFNDbGwNuayTlqkZTMdRqlNE0UPRveStSRsUsBSBDBt6FDkmIliOgyUEO8FHGQD_S9FZk_lNpzwVBYTAnYZ5sRCMUDJOZ4FkoAH7viH7QbxiZCPwbT2aJJTlnP99b13NVb895gUqi91jPl2ciNawQdmJsLqGjX4IOoi1UBw9-GF39pM7HjunandJccIxRv4fRkJF_l1lPTBPjkOYE7LcIbqNFcPiGUN0fN5tiWEGESBiAz9mICS7cQn1MVXdYrslEKdKM03RGP96Xxp7ENp_QpQtwFh7QCDNpV65hEIAqeEaF1FBQyvfQdGzMIkILWEKXJDwjGfE2RzZm7BrO3Yli-tS-uoMVaxYl2jnxyySs4Zo3kMz_6sWpcgJXvMtKmBlxrSakEVCHhKLYsH8ymCK-qiaGFsPYQLki0ev5B1fz53i-I-M7luokpifwkBU6ZgnZsBwTjL4CsRU8PhCSJs-AWJUsm6IW5EyZ-lIyIw8VR8C-wY0yo-7oApEuPFzu4k_FkD75Urd3TQLFTTlgjE3bmyTeiCZyqYwI_qSama40JEIzHr-9hDxkzbomDhIqpgvbC255fvKSNa3lbLVC-IWRO7CdrtH9cmYdIZZWyqW6HBXviHRaeHUuPsubv6lis1UdpEjSUSFljjFm7?></g></svg>