<?plantuml 1.2026.1?><svg xmlns="http://www.w3.org/2000/svg" xmlns:xlink="http://www.w3.org/1999/xlink" contentStyleType="text/css" data-diagram-type="ACTIVITY" height="1371px" preserveAspectRatio="none" style="width:666px;height:1371px;background:#FCFCFD;" version="1.1" viewBox="0 0 666 1371" width="666px" zoomAndPan="magnify"><title>Activity - blockchain/BlockchainBlockchainPlatform</title><defs/><g><rect fill="#FCFCFD" height="1371" style="stroke:none;stroke-width:1;" width="666" x="0" y="0"/><g class="title" data-source-line="10"><text fill="#000000" font-family="Helvetica" font-size="14" font-weight="bold" lengthAdjust="spacing" textLength="346.1992" x="158.6276" y="30.7803">Activity - blockchain/BlockchainBlockchainPlatform</text></g><ellipse cx="283.4143" cy="55" fill="#1D4ED8" rx="10" ry="10" style="stroke:#222222;stroke-width:1;"/><rect fill="#F8FAFC" height="48" rx="8" ry="8" style="stroke:#0F172A;stroke-width:0.5;" width="304.7852" x="131.0217" y="85"/><text fill="#0F172A" font-family="Helvetica" font-size="14" lengthAdjust="spacing" textLength="136.9375" x="141.0217" y="105.7803">Start from shared flow</text><text fill="#0F172A" font-family="Helvetica" font-size="14" lengthAdjust="spacing" textLength="284.7852" x="141.0217" y="119.7803">shared/diagrams/shared-reconcile-activity.svg</text><rect fill="#F8FAFC" height="48" rx="8" ry="8" style="stroke:#0F172A;stroke-width:0.5;" width="325.833" x="120.4978" y="153"/><text fill="#0F172A" font-family="Helvetica" font-size="14" lengthAdjust="spacing" textLength="305.833" x="130.4978" y="173.7803">Load desired BlockchainBlockchainPlatform spec</text><text fill="#0F172A" font-family="Helvetica" font-size="14" lengthAdjust="spacing" textLength="171.9854" x="130.4978" y="187.7803">and status from Kubernetes</text><rect fill="#F8FAFC" height="62" rx="8" ry="8" style="stroke:#0F172A;stroke-width:0.5;" width="280.6748" x="143.0769" y="221"/><text fill="#0F172A" font-family="Helvetica" font-size="14" lengthAdjust="spacing" textLength="135.3857" x="153.0769" y="241.7803">Resolve OCI state via</text><text fill="#0F172A" font-family="Helvetica" font-size="14" lengthAdjust="spacing" textLength="238.8818" x="153.0769" y="255.7803">GetBlockchainBlockchainPlatform with</text><text fill="#0F172A" font-family="Helvetica" font-size="14" lengthAdjust="spacing" textLength="260.6748" x="153.0769" y="269.7803">ListBlockchainBlockchainPlatform fallback</text><rect fill="#F8FAFC" height="76" rx="8" ry="8" style="stroke:#0F172A;stroke-width:0.5;" width="332.8467" x="116.991" y="303"/><text fill="#0F172A" font-family="Helvetica" font-size="14" lengthAdjust="spacing" textLength="24.8965" x="126.991" y="323.7803">Use</text><text fill="#0F172A" font-family="Helvetica" font-size="14" lengthAdjust="spacing" textLength="312.8467" x="126.991" y="337.7803">scaffold_blockchain_blockchainblockchainplatform</text><text fill="#0F172A" font-family="Helvetica" font-size="14" lengthAdjust="spacing" textLength="297.2402" x="126.991" y="351.7803">filters compartment_id, state when OCID lookup</text><text fill="#0F172A" font-family="Helvetica" font-size="14" lengthAdjust="spacing" textLength="259.9023" x="126.991" y="365.7803">or bind-versus-create needs list resolution</text><polygon fill="#E2E8F0" points="229.7249,399,337.1038,399,349.1038,411,337.1038,423,229.7249,423,217.7249,411,229.7249,399" style="stroke:#1D4ED8;stroke-width:0.5;"/><text fill="#0F172A" font-family="Helvetica" font-size="14" lengthAdjust="spacing" textLength="107.3789" x="229.7249" y="414.7803">Resource exists?</text><text fill="#000000" font-family="Helvetica" font-size="14" lengthAdjust="spacing" textLength="21.7861" x="195.9387" y="407.7803">yes</text><text fill="#000000" font-family="Helvetica" font-size="14" lengthAdjust="spacing" textLength="15.5723" x="349.1038" y="407.7803">no</text><rect fill="#F8FAFC" height="48" rx="8" ry="8" style="stroke:#0F172A;stroke-width:0.5;" width="252.6748" x="18.0137" y="433"/><text fill="#0F172A" font-family="Helvetica" font-size="14" lengthAdjust="spacing" textLength="108.1787" x="28.0137" y="453.7803">Update path calls</text><text fill="#0F172A" font-family="Helvetica" font-size="14" lengthAdjust="spacing" textLength="232.6748" x="28.0137" y="467.7803">UpdateBlockchainBlockchainPlatform</text><rect fill="#F8FAFC" height="48" rx="8" ry="8" style="stroke:#0F172A;stroke-width:0.5;" width="266.7021" x="11" y="501"/><text fill="#0F172A" font-family="Helvetica" font-size="14" lengthAdjust="spacing" textLength="246.7021" x="21" y="521.7803">Guard mutable fields display_name and</text><text fill="#0F172A" font-family="Helvetica" font-size="14" lengthAdjust="spacing" textLength="202.3096" x="21" y="535.7803">force-new fields compartment_id</text><rect fill="#F8FAFC" height="48" rx="8" ry="8" style="stroke:#0F172A;stroke-width:0.5;" width="249.5508" x="297.7021" y="433"/><text fill="#0F172A" font-family="Helvetica" font-size="14" lengthAdjust="spacing" textLength="105.0547" x="307.7021" y="453.7803">Create path calls</text><text fill="#0F172A" font-family="Helvetica" font-size="14" lengthAdjust="spacing" textLength="229.5508" x="307.7021" y="467.7803">CreateBlockchainBlockchainPlatform</text><polygon fill="#E2E8F0" points="283.4143,555,295.4143,567,283.4143,579,271.4143,567,283.4143,555" style="stroke:#1D4ED8;stroke-width:0.5;"/><rect fill="#F8FAFC" height="104" rx="8" ry="8" style="stroke:#0F172A;stroke-width:0.5;" width="334.3164" x="116.2561" y="599"/><text fill="#0F172A" font-family="Helvetica" font-size="14" lengthAdjust="spacing" textLength="164.2061" x="126.2561" y="619.7803">Run provider helper hooks</text><text fill="#0F172A" font-family="Helvetica" font-size="14" lengthAdjust="spacing" textLength="219.0508" x="126.2561" y="633.7803">create=tfresource.CreateResource,</text><text fill="#0F172A" font-family="Helvetica" font-size="14" lengthAdjust="spacing" textLength="314.3164" x="126.2561" y="647.7803">tfresource.WaitForWorkRequestWithErrorHandling</text><text fill="#0F172A" font-family="Helvetica" font-size="14" lengthAdjust="spacing" textLength="215.5439" x="126.2561" y="661.7803">entity=template action=CREATED;</text><text fill="#0F172A" font-family="Helvetica" font-size="14" lengthAdjust="spacing" textLength="226.085" x="126.2561" y="675.7803">update=tfresource.UpdateResource;</text><text fill="#0F172A" font-family="Helvetica" font-size="14" lengthAdjust="spacing" textLength="212.8438" x="126.2561" y="689.7803">delete=tfresource.DeleteResource</text><rect fill="#F8FAFC" height="34" rx="8" ry="8" style="stroke:#0F172A;stroke-width:0.5;" width="263.5918" x="151.6184" y="723"/><text fill="#0F172A" font-family="Helvetica" font-size="14" lengthAdjust="spacing" textLength="243.5918" x="161.6184" y="743.7803">Apply repo-authored secret policy none</text><rect fill="#F8FAFC" height="90" rx="8" ry="8" style="stroke:#0F172A;stroke-width:0.5;" width="329.6816" x="118.5735" y="777"/><text fill="#0F172A" font-family="Helvetica" font-size="14" lengthAdjust="spacing" textLength="105.0684" x="128.5735" y="797.7803">Delete path uses</text><text fill="#0F172A" font-family="Helvetica" font-size="14" lengthAdjust="spacing" textLength="256.7852" x="128.5735" y="811.7803">DeleteBlockchainBlockchainPlatform with</text><text fill="#0F172A" font-family="Helvetica" font-size="14" lengthAdjust="spacing" textLength="287.1367" x="128.5735" y="825.7803">required via GetBlockchainBlockchainPlatform</text><text fill="#0F172A" font-family="Helvetica" font-size="14" lengthAdjust="spacing" textLength="309.6816" x="128.5735" y="839.7803">or ListBlockchainBlockchainPlatform to DELETED</text><text fill="#0F172A" font-family="Helvetica" font-size="14" lengthAdjust="spacing" textLength="76.2549" x="128.5735" y="853.7803">confirmation</text><rect fill="#F8FAFC" height="48" rx="8" ry="8" style="stroke:#0F172A;stroke-width:0.5;" width="279.1299" x="143.8494" y="887"/><text fill="#0F172A" font-family="Helvetica" font-size="14" lengthAdjust="spacing" textLength="259.1299" x="153.8494" y="907.7803">Project required status and finalizer policy</text><text fill="#0F172A" font-family="Helvetica" font-size="14" lengthAdjust="spacing" textLength="174.3027" x="153.8494" y="921.7803">retain-until-confirmed-delete</text><rect fill="#F8FAFC" height="34" rx="8" ry="8" style="stroke:#0F172A;stroke-width:0.5;" width="313.4189" x="126.7048" y="955"/><text fill="#0F172A" font-family="Helvetica" font-size="14" lengthAdjust="spacing" textLength="293.4189" x="136.7048" y="975.7803">Requeue on provisioning, updating, terminating</text><path d="M314.4143,999 L314.4143,1175 L294.4143,1179 L314.4143,1183 L314.4143,1359 A0,0 0 0 0 314.4143,1359 L654.4543,1359 A0,0 0 0 0 654.4543,1359 L654.4543,1009 L644.4543,999 L314.4143,999 A0,0 0 0 0 314.4143,999" fill="#FFF7D6" style="stroke:#B45309;stroke-width:0.5;"/><path d="M644.4543,999 L644.4543,1009 L654.4543,1009 L644.4543,999" fill="#FFF7D6" style="stroke:#B45309;stroke-width:0.5;"/><text fill="#334155" font-family="Helvetica" font-size="14" lengthAdjust="spacing" textLength="101.165" x="320.4143" y="1014.7803">shared diagram:</text><text fill="#334155" font-family="Helvetica" font-size="14" lengthAdjust="spacing" textLength="284.7852" x="320.4143" y="1028.7803">shared/diagrams/shared-reconcile-activity.svg</text><text fill="#334155" font-family="Helvetica" font-size="14" lengthAdjust="spacing" textLength="265.3438" x="320.4143" y="1042.7803">Start from the shared reconcile activity and</text><text fill="#334155" font-family="Helvetica" font-size="14" lengthAdjust="spacing" textLength="273.8955" x="320.4143" y="1056.7803">specialize provider-backed CRUD, wait, and</text><text fill="#334155" font-family="Helvetica" font-size="14" lengthAdjust="spacing" textLength="182.875" x="320.4143" y="1070.7803">status-projection details here.</text><text fill="#334155" font-family="Helvetica" font-size="14" lengthAdjust="spacing" textLength="229.5371" x="320.4143" y="1084.7803">Controller-local activity diagrams add</text><text fill="#334155" font-family="Helvetica" font-size="14" lengthAdjust="spacing" textLength="238.8955" x="320.4143" y="1098.7803">list-lookup hints, secret policies, delete</text><text fill="#334155" font-family="Helvetica" font-size="14" lengthAdjust="spacing" textLength="200.0332" x="320.4143" y="1112.7803">handling, and open formal gaps.</text><text fill="#334155" font-family="Helvetica" font-size="14" lengthAdjust="spacing" textLength="281.709" x="320.4143" y="1126.7803">archetype batch: Generated service-manager</text><text fill="#334155" font-family="Helvetica" font-size="14" lengthAdjust="spacing" textLength="291.0469" x="320.4143" y="1140.7803">controllers specialize the shared reconcile path</text><text fill="#334155" font-family="Helvetica" font-size="14" lengthAdjust="spacing" textLength="189.8477" x="320.4143" y="1154.7803">with formal runtime ownership.</text><text fill="#334155" font-family="Helvetica" font-size="14" lengthAdjust="spacing" textLength="118.2754" x="320.4143" y="1168.7803">service: blockchain</text><text fill="#334155" font-family="Helvetica" font-size="14" lengthAdjust="spacing" textLength="216.3369" x="320.4143" y="1182.7803">slug: blockchainblockchainplatform</text><text fill="#334155" font-family="Helvetica" font-size="14" lengthAdjust="spacing" textLength="220.9922" x="320.4143" y="1196.7803">kind: BlockchainBlockchainPlatform</text><text fill="#334155" font-family="Helvetica" font-size="14" lengthAdjust="spacing" textLength="241.2402" x="320.4143" y="1210.7803">archetype: generated-service-manager</text><text fill="#334155" font-family="Helvetica" font-size="14" lengthAdjust="spacing" textLength="156.4063" x="320.4143" y="1224.7803">status/finalizer: required /</text><text fill="#334155" font-family="Helvetica" font-size="14" lengthAdjust="spacing" textLength="174.3027" x="320.4143" y="1238.7803">retain-until-confirmed-delete</text><text fill="#334155" font-family="Helvetica" font-size="14" lengthAdjust="spacing" textLength="272.3984" x="320.4143" y="1252.7803">requeue: provisioning, updating, terminating</text><text fill="#334155" font-family="Helvetica" font-size="14" lengthAdjust="spacing" textLength="295.6816" x="320.4143" y="1266.7803">provider states: create PROVISIONING; update</text><text fill="#334155" font-family="Helvetica" font-size="14" lengthAdjust="spacing" textLength="192.165" x="320.4143" y="1280.7803">UPDATING; delete DELETING</text><text fill="#334155" font-family="Helvetica" font-size="14" lengthAdjust="spacing" textLength="319.04" x="320.4143" y="1294.7803">mutable/forceNew: display_name / compartment_id</text><text fill="#334155" font-family="Helvetica" font-size="14" lengthAdjust="spacing" textLength="104.3164" x="320.4143" y="1308.7803">open gaps: none</text><text fill="#334155" font-family="Helvetica" font-size="14" lengthAdjust="spacing" textLength="224.9023" x="320.4143" y="1322.7803">Scaffold metadata only; replace with</text><text fill="#334155" font-family="Helvetica" font-size="14" lengthAdjust="spacing" textLength="244.3232" x="320.4143" y="1336.7803">controller-specific runtime states before</text><text fill="#334155" font-family="Helvetica" font-size="14" lengthAdjust="spacing" textLength="66.1445" x="320.4143" y="1350.7803">promotion.</text><ellipse cx="283.4143" cy="1179" fill="none" rx="11" ry="11" style="stroke:#222222;stroke-width:1;"/><ellipse cx="283.4143" cy="1179" fill="#222222" rx="6" ry="6" style="stroke:#222222;stroke-width:1;"/><line style="stroke:#0F172A;stroke-width:1;" x1="283.4143" x2="283.4143" y1="65" y2="85"/><polygon fill="#0F172A" points="279.4143,75,283.4143,85,287.4143,75,283.4143,79" style="stroke:#0F172A;stroke-width:1;"/><line style="stroke:#0F172A;stroke-width:1;" x1="283.4143" x2="283.4143" y1="133" y2="153"/><polygon fill="#0F172A" points="279.4143,143,283.4143,153,287.4143,143,283.4143,147" style="stroke:#0F172A;stroke-width:1;"/><line style="stroke:#0F172A;stroke-width:1;" x1="283.4143" x2="283.4143" y1="201" y2="221"/><polygon fill="#0F172A" points="279.4143,211,283.4143,221,287.4143,211,283.4143,215" style="stroke:#0F172A;stroke-width:1;"/><line style="stroke:#0F172A;stroke-width:1;" x1="283.4143" x2="283.4143" y1="283" y2="303"/><polygon fill="#0F172A" points="279.4143,293,283.4143,303,287.4143,293,283.4143,297" style="stroke:#0F172A;stroke-width:1;"/><line style="stroke:#0F172A;stroke-width:1;" x1="144.3511" x2="144.3511" y1="481" y2="501"/><polygon fill="#0F172A" points="140.3511,491,144.3511,501,148.3511,491,144.3511,495" style="stroke:#0F172A;stroke-width:1;"/><line style="stroke:#0F172A;stroke-width:1;" x1="217.7249" x2="144.3511" y1="411" y2="411"/><line style="stroke:#0F172A;stroke-width:1;" x1="144.3511" x2="144.3511" y1="411" y2="433"/><polygon fill="#0F172A" points="140.3511,423,144.3511,433,148.3511,423,144.3511,427" style="stroke:#0F172A;stroke-width:1;"/><line style="stroke:#0F172A;stroke-width:1;" x1="349.1038" x2="422.4775" y1="411" y2="411"/><line style="stroke:#0F172A;stroke-width:1;" x1="422.4775" x2="422.4775" y1="411" y2="433"/><polygon fill="#0F172A" points="418.4775,423,422.4775,433,426.4775,423,422.4775,427" style="stroke:#0F172A;stroke-width:1;"/><line style="stroke:#0F172A;stroke-width:1;" x1="144.3511" x2="144.3511" y1="549" y2="567"/><line style="stroke:#0F172A;stroke-width:1;" x1="144.3511" x2="271.4143" y1="567" y2="567"/><polygon fill="#0F172A" points="261.4143,563,271.4143,567,261.4143,571,265.4143,567" style="stroke:#0F172A;stroke-width:1;"/><line style="stroke:#0F172A;stroke-width:1;" x1="422.4775" x2="422.4775" y1="481" y2="567"/><line style="stroke:#0F172A;stroke-width:1;" x1="422.4775" x2="295.4143" y1="567" y2="567"/><polygon fill="#0F172A" points="305.4143,563,295.4143,567,305.4143,571,301.4143,567" style="stroke:#0F172A;stroke-width:1;"/><line style="stroke:#0F172A;stroke-width:1;" x1="283.4143" x2="283.4143" y1="379" y2="399"/><polygon fill="#0F172A" points="279.4143,389,283.4143,399,287.4143,389,283.4143,393" style="stroke:#0F172A;stroke-width:1;"/><line style="stroke:#0F172A;stroke-width:1;" x1="283.4143" x2="283.4143" y1="579" y2="599"/><polygon fill="#0F172A" points="279.4143,589,283.4143,599,287.4143,589,283.4143,593" style="stroke:#0F172A;stroke-width:1;"/><line style="stroke:#0F172A;stroke-width:1;" x1="283.4143" x2="283.4143" y1="703" y2="723"/><polygon fill="#0F172A" points="279.4143,713,283.4143,723,287.4143,713,283.4143,717" style="stroke:#0F172A;stroke-width:1;"/><line style="stroke:#0F172A;stroke-width:1;" x1="283.4143" x2="283.4143" y1="757" y2="777"/><polygon fill="#0F172A" points="279.4143,767,283.4143,777,287.4143,767,283.4143,771" style="stroke:#0F172A;stroke-width:1;"/><line style="stroke:#0F172A;stroke-width:1;" x1="283.4143" x2="283.4143" y1="867" y2="887"/><polygon fill="#0F172A" points="279.4143,877,283.4143,887,287.4143,877,283.4143,881" style="stroke:#0F172A;stroke-width:1;"/><line style="stroke:#0F172A;stroke-width:1;" x1="283.4143" x2="283.4143" y1="935" y2="955"/><polygon fill="#0F172A" points="279.4143,945,283.4143,955,287.4143,945,283.4143,949" style="stroke:#0F172A;stroke-width:1;"/><line style="stroke:#0F172A;stroke-width:1;" x1="283.4143" x2="283.4143" y1="989" y2="1168"/><polygon fill="#0F172A" points="279.4143,1158,283.4143,1168,287.4143,1158,283.4143,1162" style="stroke:#0F172A;stroke-width:1;"/><?plantuml-src bLRVJniv47xtNs7fNgYKJQ3Gbji8dMX2AIe21ELuYOGSUpRhmsllsTxaSgVxtsziRpRB3wKzyH2lFPwPR-QRpxWdgMjcMKLToOHPIRsW1LCEYEjEvem_BQnfj9WOPIpzfU3u9teM0WhMAF_5Q7_5Ag1VGIt1IyxUjhcJVmCzEEeTCclDglM-NnnyUj-_gOs7pwzoA8fFukDBAsC5sDPYVlJXSF_N5nOXV7j-U7XqyE53xpowvyPgiFJW8_7IAw2dtCkbz6kQqRao_8cNJEhHvswvNTqevWjZgpwipUL_27sZZCS5AtWuwQVTmgUqsARQxGd9AgF5gsh0UpWkzdi6VOy7uWZ4yVRmonkEdMVMlxI7pdzdDsSllFvBubMItuKVMbWJgMH1q4APrKodZn76Nc19t2XzPnQuqLmgo3P56hhbOapoIyC4aiN9u69NdQchWSyqqo9axnkNWdzhve0jzE3GsIquWrIarvEBQ0HqATbCduFVwNabVJdJbzBjDiD1KQ6h6EZU0KBbh2YC4ezRflIMsrNTEfZfGYeFrb5kAcIChq3xHoa6RQwh4dH8VKgLCKzDFTDO-BdK8blYfSPbt4Amqm32KONfKXi0DruQFIQoe7kX08tbGE4lF7Q_lQC-EDrRWtk7MTSYtA-PBob7C6wcqzOks8Zsl65MqAhnR8uZKaXG65z8Xy3MZpee07O5qHcCd6bORKoUmnmJGA6XUzfWAfC4fPzAsjgT2b9K5jZdHjFQcgL4rjCIL1r-i6Re9TNen1UsBSKm-TrKPZ3JlRC79b6Yx8EnJxVmPmFEFo0Npb2Ux5V4f50VPnhJHxwUUAX29o6EkT4dazkpq-zdq_5CDx68_PYfh9kOQ290mNEJQTpfJ4X-MjTgZHsjJSOQNvem40uGZwUrKPAlKT5qC4mtK-qQ1mWwxVm4nos2Z9E6Sq5_C1QHVZyS2c_ezEpo30k1jJV8S5knnCVynfe_W0UIja7RkGqZN4ZD5BuBjiKMKlFeDskms2fhFQ5mfCB5sSR-D41Dstg7GR0z0ngh7rSuMnNw3HzZr2bJa_06K2iNfIUjIhN2b9F_9LIa9tSuKHl9wuotqe_WI50g6U5rBCs2SE2DoUtzT41NIBj1CeqboUfKAeI4MeXrK0vfRM589YZUrYY57h3sJ6q3RHAdJ0WIn21Bga5BgRqRFAEE1Dn8bIHbo-iOdveQvI4q4bqlMEs6X5bUWb_NWEBlUPaZJV25H3O7Djgbn16lc6OBi8HtoJdQm_ncWG9RII3X9feDdKRfC2jqxqfP3qdhF-yzlSIfPj7VU2sh1DzVaUzyExQWShhOmCbUmacz67NKpBVC7P6Tz2GsaJF_6MgIJhcYxBkSjhf-Stlz-yNTnVNLnTNvEDq5SdypFVqUDrAeD6suGLez7aNPlO9L_boIHo_abyHMXnxdKKZ8NVjyqGgXOIo6ewNMuw10Yk4J4fhLQt4MErn8tdKkfK_dW1b0G5MPmE1XKEdutzT_?></g></svg>