<?plantuml 1.2026.2?><svg xmlns="http://www.w3.org/2000/svg" xmlns:xlink="http://www.w3.org/1999/xlink" contentStyleType="text/css" data-diagram-type="ACTIVITY" height="2742px" preserveAspectRatio="none" style="width:1220px;height:2742px;background:#FCFCFD;" version="1.1" viewBox="0 0 1220 2742" width="1220px" zoomAndPan="magnify"><title>Activity - mngdmac/MacOrder</title><defs/><g><rect fill="#FCFCFD" height="2742" style="stroke:none;stroke-width:1;" width="1220" x="0" y="0"/><g class="title" data-source-line="10"><text fill="#000000" font-family="Helvetica" font-size="14" font-weight="bold" lengthAdjust="spacing" textLength="198.3857" x="509.5354" y="30.7803">Activity - mngdmac/MacOrder</text></g><ellipse cx="652.635" cy="55" fill="#1D4ED8" rx="10" ry="10" style="stroke:#222222;stroke-width:1;"/><rect fill="none" height="444" rx="8" ry="8" style="stroke:#000000;stroke-width:1.5;" width="673.4326" x="313.7808" y="75"/><path d="M435.8491,75 L435.8491,82 L425.8491,92 L313.7808,92" fill="none" style="stroke:#000000;stroke-width:1.5;"/><text fill="#000000" font-family="Helvetica" font-size="14" lengthAdjust="spacing" textLength="112.0684" x="316.7808" y="86.7803">Observe and Bind</text><rect fill="#F8FAFC" height="48" rx="8" ry="8" style="stroke:#0F172A;stroke-width:0.5;" width="304.7852" x="500.2424" y="109"/><text fill="#0F172A" font-family="Helvetica" font-size="14" lengthAdjust="spacing" textLength="136.9375" x="510.2424" y="129.7803">Start from shared flow</text><text fill="#0F172A" font-family="Helvetica" font-size="14" lengthAdjust="spacing" textLength="284.7852" x="510.2424" y="143.7803">shared/diagrams/shared-reconcile-activity.svg</text><rect fill="#F8FAFC" height="48" rx="8" ry="8" style="stroke:#0F172A;stroke-width:0.5;" width="301.6816" x="501.7942" y="177"/><text fill="#0F172A" font-family="Helvetica" font-size="14" lengthAdjust="spacing" textLength="281.6816" x="511.7942" y="197.7803">Read desired MacOrder spec, tracked status,</text><text fill="#0F172A" font-family="Helvetica" font-size="14" lengthAdjust="spacing" textLength="103.5303" x="511.7942" y="211.7803">and delete intent</text><polygon fill="#E2E8F0" points="523.1692,245,782.1008,245,794.1008,257,782.1008,269,523.1692,269,511.1692,257,523.1692,245" style="stroke:#1D4ED8;stroke-width:0.5;"/><text fill="#0F172A" font-family="Helvetica" font-size="14" lengthAdjust="spacing" textLength="258.9316" x="523.1692" y="260.7803">"Tracked or explicit OCI identity present?"</text><text fill="#000000" font-family="Helvetica" font-size="14" lengthAdjust="spacing" textLength="21.7861" x="489.3831" y="253.7803">yes</text><text fill="#000000" font-family="Helvetica" font-size="14" lengthAdjust="spacing" textLength="15.5723" x="794.1008" y="253.7803">no</text><rect fill="#F8FAFC" height="34" rx="8" ry="8" style="stroke:#0F172A;stroke-width:0.5;" width="310.9922" x="333.7808" y="279"/><text fill="#0F172A" font-family="Helvetica" font-size="14" lengthAdjust="spacing" textLength="290.9922" x="343.7808" y="299.7803">Get the current OCI resource via GetMacOrder</text><rect fill="#F8FAFC" height="62" rx="8" ry="8" style="stroke:#0F172A;stroke-width:0.5;" width="286.8682" x="672.5591" y="279"/><text fill="#0F172A" font-family="Helvetica" font-size="14" lengthAdjust="spacing" textLength="259.9092" x="682.5591" y="299.7803">Resolve an existing OCI resource through</text><text fill="#0F172A" font-family="Helvetica" font-size="14" lengthAdjust="spacing" textLength="266.8682" x="682.5591" y="313.7803">ListMacOrders using filters compartmentId,</text><text fill="#0F172A" font-family="Helvetica" font-size="14" lengthAdjust="spacing" textLength="80.9238" x="682.5591" y="327.7803">displayName</text><rect fill="#F8FAFC" height="48" rx="8" ry="8" style="stroke:#0F172A;stroke-width:0.5;" width="302.4404" x="664.7729" y="361"/><text fill="#0F172A" font-family="Helvetica" font-size="14" lengthAdjust="spacing" textLength="282.4404" x="674.7729" y="381.7803">Create the OCI resource via CreateMacOrder</text><text fill="#0F172A" font-family="Helvetica" font-size="14" lengthAdjust="spacing" textLength="205.4609" x="674.7729" y="395.7803">when no reusable match is found</text><rect fill="#F8FAFC" height="48" rx="8" ry="8" style="stroke:#0F172A;stroke-width:0.5;" width="286.8955" x="672.5454" y="429"/><text fill="#0F172A" font-family="Helvetica" font-size="14" lengthAdjust="spacing" textLength="266.8955" x="682.5454" y="449.7803">Persist the resolved or created OCI identity</text><text fill="#0F172A" font-family="Helvetica" font-size="14" lengthAdjust="spacing" textLength="63.8135" x="682.5454" y="463.7803">into status</text><polygon fill="#E2E8F0" points="652.635,483,664.635,495,652.635,507,640.635,495,652.635,483" style="stroke:#1D4ED8;stroke-width:0.5;"/><polygon fill="#E2E8F0" points="590.4587,539,714.8113,539,726.8113,551,714.8113,563,590.4587,563,578.4587,551,590.4587,539" style="stroke:#1D4ED8;stroke-width:0.5;"/><text fill="#0F172A" font-family="Helvetica" font-size="14" lengthAdjust="spacing" textLength="124.3525" x="590.4587" y="554.7803">"Delete requested?"</text><text fill="#000000" font-family="Helvetica" font-size="14" lengthAdjust="spacing" textLength="21.7861" x="556.6726" y="547.7803">yes</text><text fill="#000000" font-family="Helvetica" font-size="14" lengthAdjust="spacing" textLength="15.5723" x="726.8113" y="547.7803">no</text><rect fill="none" height="356" rx="8" ry="8" style="stroke:#000000;stroke-width:1.5;" width="644.4814" x="11" y="573"/><path d="M61.4688,573 L61.4688,580 L51.4688,590 L11,590" fill="none" style="stroke:#000000;stroke-width:1.5;"/><text fill="#000000" font-family="Helvetica" font-size="14" lengthAdjust="spacing" textLength="40.4688" x="14" y="584.7803">Delete</text><rect fill="#F8FAFC" height="62" rx="8" ry="8" style="stroke:#0F172A;stroke-width:0.5;" width="325.751" x="176.8687" y="607"/><text fill="#0F172A" font-family="Helvetica" font-size="14" lengthAdjust="spacing" textLength="298.8125" x="186.8687" y="627.7803">Delete path uses CancelMacOrder with required</text><text fill="#0F172A" font-family="Helvetica" font-size="14" lengthAdjust="spacing" textLength="305.751" x="186.8687" y="641.7803">via GetMacOrder or ListMacOrders to DELETED,</text><text fill="#0F172A" font-family="Helvetica" font-size="14" lengthAdjust="spacing" textLength="167.2549" x="186.8687" y="655.7803">NOT_FOUND confirmation</text><rect fill="#F8FAFC" height="62" rx="8" ry="8" style="stroke:#0F172A;stroke-width:0.5;" width="295.4199" x="192.0342" y="704"/><text fill="#0F172A" font-family="Helvetica" font-size="14" lengthAdjust="spacing" textLength="228.751" x="202.0342" y="724.7803">Confirm deletion via GetMacOrder or</text><text fill="#0F172A" font-family="Helvetica" font-size="14" lengthAdjust="spacing" textLength="275.4199" x="202.0342" y="738.7803">ListMacOrders until OCI reaches DELETED,</text><text fill="#0F172A" font-family="Helvetica" font-size="14" lengthAdjust="spacing" textLength="87.1104" x="202.0342" y="752.7803">NOT_FOUND</text><polygon fill="#E2E8F0" points="191.5718,797,487.9165,797,499.9165,809,487.9165,821,191.5718,821,179.5718,809,191.5718,797" style="stroke:#1D4ED8;stroke-width:0.5;"/><text fill="#0F172A" font-family="Helvetica" font-size="14" lengthAdjust="spacing" textLength="296.3447" x="191.5718" y="812.7803">"Delete cleanup and finalizer release succeed?"</text><text fill="#000000" font-family="Helvetica" font-size="14" lengthAdjust="spacing" textLength="21.7861" x="157.7856" y="805.7803">yes</text><text fill="#000000" font-family="Helvetica" font-size="14" lengthAdjust="spacing" textLength="15.5723" x="499.9165" y="805.7803">no</text><rect fill="#F8FAFC" height="34" rx="8" ry="8" style="stroke:#0F172A;stroke-width:0.5;" width="293.1436" x="23" y="831"/><text fill="#0F172A" font-family="Helvetica" font-size="14" lengthAdjust="spacing" textLength="273.1436" x="33" y="851.7803">Remove the finalizer after delete completion</text><rect fill="#F8FAFC" height="48" rx="8" ry="8" style="stroke:#0F172A;stroke-width:0.5;" width="251.1299" x="384.3516" y="831"/><text fill="#0F172A" font-family="Helvetica" font-size="14" lengthAdjust="spacing" textLength="231.1299" x="394.3516" y="851.7803">Stay blocked until cleanup or finalizer</text><text fill="#0F172A" font-family="Helvetica" font-size="14" lengthAdjust="spacing" textLength="108.9512" x="394.3516" y="865.7803">release succeeds</text><polygon fill="#E2E8F0" points="339.7441,885,351.7441,897,339.7441,909,327.7441,897,339.7441,885" style="stroke:#1D4ED8;stroke-width:0.5;"/><ellipse cx="339.7441" cy="969" fill="none" rx="11" ry="11" style="stroke:#222222;stroke-width:1;"/><ellipse cx="339.7441" cy="969" fill="#222222" rx="6" ry="6" style="stroke:#222222;stroke-width:1;"/><rect fill="none" height="441" rx="8" ry="8" style="stroke:#000000;stroke-width:1.5;" width="392.5713" x="775.2402" y="573"/><path d="M926.0742,573 L926.0742,580 L916.0742,590 L775.2402,590" fill="none" style="stroke:#000000;stroke-width:1.5;"/><text fill="#000000" font-family="Helvetica" font-size="14" lengthAdjust="spacing" textLength="140.834" x="778.2402" y="584.7803">Lifecycle Classification</text><rect fill="#F8FAFC" height="48" rx="8" ry="8" style="stroke:#0F172A;stroke-width:0.5;" width="340.5713" x="795.2402" y="656"/><text fill="#0F172A" font-family="Helvetica" font-size="14" lengthAdjust="spacing" textLength="320.5713" x="805.2402" y="676.7803">Request requeue while OCI remains in CREATING,</text><text fill="#0F172A" font-family="Helvetica" font-size="14" lengthAdjust="spacing" textLength="150.1309" x="805.2402" y="690.7803">UPDATING, DELETING</text><ellipse cx="965.5259" cy="750" fill="none" rx="11" ry="11" style="stroke:#222222;stroke-width:1;"/><ellipse cx="965.5259" cy="750" fill="#222222" rx="6" ry="6" style="stroke:#222222;stroke-width:1;"/><polygon fill="#E2E8F0" points="879.2427,607,1051.8091,607,1063.8091,619,1051.8091,631,879.2427,631,867.2427,619,879.2427,607" style="stroke:#1D4ED8;stroke-width:0.5;"/><text fill="#000000" font-family="Helvetica" font-size="14" lengthAdjust="spacing" textLength="21.7861" x="969.5259" y="641.7803">yes</text><text fill="#0F172A" font-family="Helvetica" font-size="14" lengthAdjust="spacing" textLength="172.5664" x="879.2427" y="622.7803">"OCI state in retryable set?"</text><rect fill="#F8FAFC" height="48" rx="8" ry="8" style="stroke:#0F172A;stroke-width:0.5;" width="293.916" x="818.5679" y="872"/><text fill="#0F172A" font-family="Helvetica" font-size="14" lengthAdjust="spacing" textLength="273.916" x="828.5679" y="892.7803">Return an unsuccessful reconcile result until</text><text fill="#0F172A" font-family="Helvetica" font-size="14" lengthAdjust="spacing" textLength="133.041" x="828.5679" y="906.7803">OCI reaches ACTIVE</text><ellipse cx="965.5259" cy="960" fill="none" rx="11" ry="11" style="stroke:#222222;stroke-width:1;"/><ellipse cx="965.5259" cy="960" fill="#222222" rx="6" ry="6" style="stroke:#222222;stroke-width:1;"/><polygon fill="#E2E8F0" points="845.0049,823,1086.0469,823,1098.0469,835,1086.0469,847,845.0049,847,833.0049,835,845.0049,823" style="stroke:#1D4ED8;stroke-width:0.5;"/><text fill="#000000" font-family="Helvetica" font-size="14" lengthAdjust="spacing" textLength="21.7861" x="969.5259" y="857.7803">yes</text><text fill="#0F172A" font-family="Helvetica" font-size="14" lengthAdjust="spacing" textLength="241.042" x="845.0049" y="838.7803">"OCI state is outside success targets?"</text><rect fill="none" height="846.5" rx="8" ry="8" style="stroke:#000000;stroke-width:1.5;" width="533.9751" x="675.4814" y="1024"/><path d="M841.9014,1024 L841.9014,1031 L831.9014,1041 L675.4814,1041" fill="none" style="stroke:#000000;stroke-width:1.5;"/><text fill="#000000" font-family="Helvetica" font-size="14" lengthAdjust="spacing" textLength="156.4199" x="678.4814" y="1035.7803">Ready and Drift Handling</text><rect fill="#F8FAFC" height="48" rx="8" ry="8" style="stroke:#0F172A;stroke-width:0.5;" width="237.8818" x="846.585" y="1058"/><text fill="#0F172A" font-family="Helvetica" font-size="14" lengthAdjust="spacing" textLength="217.8818" x="856.585" y="1078.7803">Compare live OCI state against the</text><text fill="#0F172A" font-family="Helvetica" font-size="14" lengthAdjust="spacing" textLength="195.3369" x="856.585" y="1092.7803">repo-authored mutation surface</text><rect fill="#F8FAFC" height="48" rx="8" ry="8" style="stroke:#0F172A;stroke-width:0.5;" width="302.4473" x="814.3022" y="1175"/><text fill="#0F172A" font-family="Helvetica" font-size="14" lengthAdjust="spacing" textLength="282.4473" x="824.3022" y="1195.7803">Reject drift before OCI mutation for force-new</text><text fill="#0F172A" font-family="Helvetica" font-size="14" lengthAdjust="spacing" textLength="246.6201" x="824.3022" y="1209.7803">fields commitmentTerm, compartmentId</text><ellipse cx="965.5259" cy="1255.5" fill="none" rx="11" ry="11" style="stroke:#222222;stroke-width:1;"/><ellipse cx="965.5259" cy="1255.5" fill="#222222" rx="6" ry="6" style="stroke:#222222;stroke-width:1;"/><polygon fill="#E2E8F0" points="839.9429,1126,1091.1089,1126,1103.1089,1138,1091.1089,1150,839.9429,1150,827.9429,1138,839.9429,1126" style="stroke:#1D4ED8;stroke-width:0.5;"/><text fill="#000000" font-family="Helvetica" font-size="14" lengthAdjust="spacing" textLength="21.7861" x="969.5259" y="1160.7803">yes</text><text fill="#0F172A" font-family="Helvetica" font-size="14" lengthAdjust="spacing" textLength="251.166" x="839.9429" y="1141.7803">"Force-new or conflicting drift detected?"</text><polygon fill="#E2E8F0" points="855.0981,1308.5,1075.9536,1308.5,1087.9536,1320.5,1075.9536,1332.5,855.0981,1332.5,843.0981,1320.5,855.0981,1308.5" style="stroke:#1D4ED8;stroke-width:0.5;"/><text fill="#0F172A" font-family="Helvetica" font-size="14" lengthAdjust="spacing" textLength="220.8555" x="855.0981" y="1324.2803">"Supported mutable drift detected?"</text><text fill="#000000" font-family="Helvetica" font-size="14" lengthAdjust="spacing" textLength="21.7861" x="821.312" y="1317.2803">yes</text><text fill="#000000" font-family="Helvetica" font-size="14" lengthAdjust="spacing" textLength="15.5723" x="1087.9536" y="1317.2803">no</text><rect fill="#F8FAFC" height="76" rx="8" ry="8" style="stroke:#0F172A;stroke-width:0.5;" width="275.2334" x="695.4814" y="1342.5"/><text fill="#0F172A" font-family="Helvetica" font-size="14" lengthAdjust="spacing" textLength="238.8818" x="705.4814" y="1363.2803">Apply ChangeMacOrderCompartment,</text><text fill="#0F172A" font-family="Helvetica" font-size="14" lengthAdjust="spacing" textLength="247.4473" x="705.4814" y="1377.2803">UpdateMacOrder only for mutable fields</text><text fill="#0F172A" font-family="Helvetica" font-size="14" lengthAdjust="spacing" textLength="255.2334" x="705.4814" y="1391.2803">displayName, ipRange, orderDescription,</text><text fill="#0F172A" font-family="Helvetica" font-size="14" lengthAdjust="spacing" textLength="124.8789" x="705.4814" y="1405.2803">orderSize (+1 more)</text><rect fill="#F8FAFC" height="34" rx="8" ry="8" style="stroke:#0F172A;stroke-width:0.5;" width="199.0059" x="998.4507" y="1342.5"/><text fill="#0F172A" font-family="Helvetica" font-size="14" lengthAdjust="spacing" textLength="179.0059" x="1008.4507" y="1363.2803">Skip the no-op mutation path</text><polygon fill="#E2E8F0" points="965.5259,1424.5,977.5259,1436.5,965.5259,1448.5,953.5259,1436.5,965.5259,1424.5" style="stroke:#1D4ED8;stroke-width:0.5;"/><rect fill="#F8FAFC" height="90" rx="8" ry="8" style="stroke:#0F172A;stroke-width:0.5;" width="293.5537" x="818.749" y="1468.5"/><text fill="#0F172A" font-family="Helvetica" font-size="14" lengthAdjust="spacing" textLength="164.2061" x="828.749" y="1489.2803">Run provider helper hooks</text><text fill="#0F172A" font-family="Helvetica" font-size="14" lengthAdjust="spacing" textLength="219.0508" x="828.749" y="1503.2803">create=tfresource.CreateResource;</text><text fill="#0F172A" font-family="Helvetica" font-size="14" lengthAdjust="spacing" textLength="226.085" x="828.749" y="1517.2803">update=tfresource.UpdateResource;</text><text fill="#0F172A" font-family="Helvetica" font-size="14" lengthAdjust="spacing" textLength="273.5537" x="828.749" y="1531.2803">delete=tfresource.DeleteResource when the</text><text fill="#0F172A" font-family="Helvetica" font-size="14" lengthAdjust="spacing" textLength="220.2334" x="828.749" y="1545.2803">matching field-driven path executes</text><rect fill="#F8FAFC" height="104" rx="8" ry="8" style="stroke:#0F172A;stroke-width:0.5;" width="309.4131" x="810.8193" y="1578.5"/><text fill="#0F172A" font-family="Helvetica" font-size="14" lengthAdjust="spacing" textLength="208.5303" x="820.8193" y="1599.2803">Apply explicit follow-up semantics</text><text fill="#0F172A" font-family="Helvetica" font-size="14" lengthAdjust="spacing" textLength="263.7646" x="820.8193" y="1613.2803">create=GetWorkRequest -&gt; GetMacOrder;</text><text fill="#0F172A" font-family="Helvetica" font-size="14" lengthAdjust="spacing" textLength="267.6748" x="820.8193" y="1627.2803">update=GetWorkRequest -&gt; GetMacOrder;</text><text fill="#0F172A" font-family="Helvetica" font-size="14" lengthAdjust="spacing" textLength="170.4199" x="820.8193" y="1641.2803">delete=GetWorkRequest -&gt;</text><text fill="#0F172A" font-family="Helvetica" font-size="14" lengthAdjust="spacing" textLength="289.4131" x="820.8193" y="1655.2803">CancelMacOrder/GetMacOrder/ListMacOrders</text><text fill="#0F172A" font-family="Helvetica" font-size="14" lengthAdjust="spacing" textLength="88.7031" x="820.8193" y="1669.2803">confirm-delete</text><rect fill="#F8FAFC" height="34" rx="8" ry="8" style="stroke:#0F172A;stroke-width:0.5;" width="303.2197" x="813.916" y="1702.5"/><text fill="#0F172A" font-family="Helvetica" font-size="14" lengthAdjust="spacing" textLength="283.2197" x="823.916" y="1723.2803">Return success for the ACTIVE success state</text><rect fill="#F8FAFC" height="48" rx="8" ry="8" style="stroke:#0F172A;stroke-width:0.5;" width="279.1299" x="825.9609" y="1756.5"/><text fill="#0F172A" font-family="Helvetica" font-size="14" lengthAdjust="spacing" textLength="259.1299" x="835.9609" y="1777.2803">Project required status and finalizer policy</text><text fill="#0F172A" font-family="Helvetica" font-size="14" lengthAdjust="spacing" textLength="174.3027" x="835.9609" y="1791.2803">retain-until-confirmed-delete</text><rect fill="#F8FAFC" height="34" rx="8" ry="8" style="stroke:#0F172A;stroke-width:0.5;" width="313.4189" x="808.8164" y="1824.5"/><text fill="#0F172A" font-family="Helvetica" font-size="14" lengthAdjust="spacing" textLength="293.4189" x="818.8164" y="1845.2803">Requeue on provisioning, updating, terminating</text><path d="M683.635,1880.5 L683.635,2301.5 L663.635,2305.5 L683.635,2309.5 L683.635,2730.5 A0,0 0 0 0 683.635,2730.5 L1038.4543,2730.5 A0,0 0 0 0 1038.4543,2730.5 L1038.4543,1890.5 L1028.4543,1880.5 L683.635,1880.5 A0,0 0 0 0 683.635,1880.5" fill="#FFF7D6" style="stroke:#B45309;stroke-width:0.5;"/><path d="M1028.4543,1880.5 L1028.4543,1890.5 L1038.4543,1890.5 L1028.4543,1880.5" fill="#FFF7D6" style="stroke:#B45309;stroke-width:0.5;"/><text fill="#334155" font-family="Helvetica" font-size="14" lengthAdjust="spacing" textLength="101.165" x="689.635" y="1896.2803">shared diagram:</text><text fill="#334155" font-family="Helvetica" font-size="14" lengthAdjust="spacing" textLength="284.7852" x="689.635" y="1910.2803">shared/diagrams/shared-reconcile-activity.svg</text><text fill="#334155" font-family="Helvetica" font-size="14" lengthAdjust="spacing" textLength="265.3438" x="689.635" y="1924.2803">Start from the shared reconcile activity and</text><text fill="#334155" font-family="Helvetica" font-size="14" lengthAdjust="spacing" textLength="273.8955" x="689.635" y="1938.2803">specialize provider-backed CRUD, wait, and</text><text fill="#334155" font-family="Helvetica" font-size="14" lengthAdjust="spacing" textLength="182.875" x="689.635" y="1952.2803">status-projection details here.</text><text fill="#334155" font-family="Helvetica" font-size="14" lengthAdjust="spacing" textLength="229.5371" x="689.635" y="1966.2803">Controller-local activity diagrams add</text><text fill="#334155" font-family="Helvetica" font-size="14" lengthAdjust="spacing" textLength="238.8955" x="689.635" y="1980.2803">list-lookup hints, secret policies, delete</text><text fill="#334155" font-family="Helvetica" font-size="14" lengthAdjust="spacing" textLength="200.0332" x="689.635" y="1994.2803">handling, and open formal gaps.</text><text fill="#334155" font-family="Helvetica" font-size="14" lengthAdjust="spacing" textLength="281.709" x="689.635" y="2008.2803">archetype batch: Generated service-manager</text><text fill="#334155" font-family="Helvetica" font-size="14" lengthAdjust="spacing" textLength="291.0469" x="689.635" y="2022.2803">controllers specialize the shared reconcile path</text><text fill="#334155" font-family="Helvetica" font-size="14" lengthAdjust="spacing" textLength="189.8477" x="689.635" y="2036.2803">with formal runtime ownership.</text><text fill="#334155" font-family="Helvetica" font-size="14" lengthAdjust="spacing" textLength="113.5928" x="689.635" y="2050.2803">service: mngdmac</text><text fill="#334155" font-family="Helvetica" font-size="14" lengthAdjust="spacing" textLength="92.5928" x="689.635" y="2064.2803">slug: macorder</text><text fill="#334155" font-family="Helvetica" font-size="14" lengthAdjust="spacing" textLength="95.6963" x="689.635" y="2078.2803">kind: MacOrder</text><text fill="#334155" font-family="Helvetica" font-size="14" lengthAdjust="spacing" textLength="241.2402" x="689.635" y="2092.2803">archetype: generated-service-manager</text><text fill="#334155" font-family="Helvetica" font-size="14" lengthAdjust="spacing" textLength="156.4063" x="689.635" y="2106.2803">status/finalizer: required /</text><text fill="#334155" font-family="Helvetica" font-size="14" lengthAdjust="spacing" textLength="174.3027" x="689.635" y="2120.2803">retain-until-confirmed-delete</text><text fill="#334155" font-family="Helvetica" font-size="14" lengthAdjust="spacing" textLength="272.3984" x="689.635" y="2134.2803">requeue: provisioning, updating, terminating</text><text fill="#334155" font-family="Helvetica" font-size="14" lengthAdjust="spacing" textLength="265.3369" x="689.635" y="2148.2803">provider states: create CREATING; update</text><text fill="#334155" font-family="Helvetica" font-size="14" lengthAdjust="spacing" textLength="192.165" x="689.635" y="2162.2803">UPDATING; delete DELETING</text><text fill="#334155" font-family="Helvetica" font-size="14" lengthAdjust="spacing" textLength="327.5713" x="689.635" y="2176.2803">follow-up: create=GetWorkRequest -&gt; GetMacOrder;</text><text fill="#334155" font-family="Helvetica" font-size="14" lengthAdjust="spacing" textLength="267.6748" x="689.635" y="2190.2803">update=GetWorkRequest -&gt; GetMacOrder;</text><text fill="#334155" font-family="Helvetica" font-size="14" lengthAdjust="spacing" textLength="170.4199" x="689.635" y="2204.2803">delete=GetWorkRequest -&gt;</text><text fill="#334155" font-family="Helvetica" font-size="14" lengthAdjust="spacing" textLength="289.4131" x="689.635" y="2218.2803">CancelMacOrder/GetMacOrder/ListMacOrders</text><text fill="#334155" font-family="Helvetica" font-size="14" lengthAdjust="spacing" textLength="88.7031" x="689.635" y="2232.2803">confirm-delete</text><text fill="#334155" font-family="Helvetica" font-size="14" lengthAdjust="spacing" textLength="242.0195" x="689.635" y="2246.2803">supported drift: displayName, ipRange,</text><text fill="#334155" font-family="Helvetica" font-size="14" lengthAdjust="spacing" textLength="235.3682" x="689.635" y="2260.2803">orderDescription, orderSize (+1 more)</text><text fill="#334155" font-family="Helvetica" font-size="14" lengthAdjust="spacing" textLength="230.3301" x="689.635" y="2274.2803">reject before mutate: force-new fields</text><text fill="#334155" font-family="Helvetica" font-size="14" lengthAdjust="spacing" textLength="210.0479" x="689.635" y="2288.2803">commitmentTerm, compartmentId</text><text fill="#334155" font-family="Helvetica" font-size="14" lengthAdjust="spacing" textLength="144.751" x="689.635" y="2302.2803">create-only fields: none</text><text fill="#334155" font-family="Helvetica" font-size="14" lengthAdjust="spacing" textLength="276.2266" x="689.635" y="2316.2803">list lookup: oci_mngdmac_mac_orders filters</text><text fill="#334155" font-family="Helvetica" font-size="14" lengthAdjust="spacing" textLength="320.5781" x="689.635" y="2330.2803">compartmentId, displayName; exact compartmentId</text><text fill="#334155" font-family="Helvetica" font-size="14" lengthAdjust="spacing" textLength="271.5713" x="689.635" y="2344.2803">plus displayName unique match in ACTIVE,</text><text fill="#334155" font-family="Helvetica" font-size="14" lengthAdjust="spacing" textLength="311.1992" x="689.635" y="2358.2803">CREATING, or UPDATING; duplicate matches fail</text><text fill="#334155" font-family="Helvetica" font-size="14" lengthAdjust="spacing" textLength="89.4961" x="689.635" y="2372.2803">conflicts: none</text><text fill="#334155" font-family="Helvetica" font-size="14" lengthAdjust="spacing" textLength="104.3164" x="689.635" y="2386.2803">open gaps: none</text><text fill="#334155" font-family="Helvetica" font-size="14" lengthAdjust="spacing" textLength="306.5576" x="689.635" y="2400.2803">Reviewed lifecycle mapping treats CREATING as</text><text fill="#334155" font-family="Helvetica" font-size="14" lengthAdjust="spacing" textLength="308.1299" x="689.635" y="2414.2803">provisioning, UPDATING as updating, ACTIVE as</text><text fill="#334155" font-family="Helvetica" font-size="14" lengthAdjust="spacing" textLength="308.8682" x="689.635" y="2428.2803">success, and NEEDS_ATTENTION or FAILED as</text><text fill="#334155" font-family="Helvetica" font-size="14" lengthAdjust="spacing" textLength="306.5645" x="689.635" y="2442.2803">terminal failure; DELETING stays terminating and</text><text fill="#334155" font-family="Helvetica" font-size="14" lengthAdjust="spacing" textLength="175.8613" x="689.635" y="2456.2803">DELETED is a delete target.</text><text fill="#334155" font-family="Helvetica" font-size="14" lengthAdjust="spacing" textLength="293.3369" x="689.635" y="2470.2803">CreateMacOrder returns a MacOrder body plus</text><text fill="#334155" font-family="Helvetica" font-size="14" lengthAdjust="spacing" textLength="301.9092" x="689.635" y="2484.2803">opc-work-request-id, while UpdateMacOrder and</text><text fill="#334155" font-family="Helvetica" font-size="14" lengthAdjust="spacing" textLength="319.0264" x="689.635" y="2498.2803">CancelMacOrder return work-request headers only.</text><text fill="#334155" font-family="Helvetica" font-size="14" lengthAdjust="spacing" textLength="226.4199" x="689.635" y="2512.2803">The runtime follows the service-local</text><text fill="#334155" font-family="Helvetica" font-size="14" lengthAdjust="spacing" textLength="288.6953" x="689.635" y="2526.2803">GetWorkRequest helper, recovers the affected</text><text fill="#334155" font-family="Helvetica" font-size="14" lengthAdjust="spacing" textLength="314.3164" x="689.635" y="2540.2803">MacOrder OCID from work-request resources, and</text><text fill="#334155" font-family="Helvetica" font-size="14" lengthAdjust="spacing" textLength="258.3438" x="689.635" y="2554.2803">rereads GetMacOrder as the authoritative</text><text fill="#334155" font-family="Helvetica" font-size="14" lengthAdjust="spacing" textLength="142.4063" x="689.635" y="2568.2803">observed-state source.</text><text fill="#334155" font-family="Helvetica" font-size="14" lengthAdjust="spacing" textLength="311.2676" x="689.635" y="2582.2803">Delete maps to CancelMacOrder for the published</text><text fill="#334155" font-family="Helvetica" font-size="14" lengthAdjust="spacing" textLength="280.9229" x="689.635" y="2596.2803">Kubernetes contract. The finalizer is released</text><text fill="#334155" font-family="Helvetica" font-size="14" lengthAdjust="spacing" textLength="304.2402" x="689.635" y="2610.2803">when rereads confirm DELETED, NotFound, or a</text><text fill="#334155" font-family="Helvetica" font-size="14" lengthAdjust="spacing" textLength="167.3164" x="689.635" y="2624.2803">canceled order read-model</text><text fill="#334155" font-family="Helvetica" font-size="14" lengthAdjust="spacing" textLength="308.499" x="689.635" y="2638.2803">(`orderStatus=CANCELED`) after the cancel work</text><text fill="#334155" font-family="Helvetica" font-size="14" lengthAdjust="spacing" textLength="113.6201" x="689.635" y="2652.2803">request succeeds.</text><text fill="#334155" font-family="Helvetica" font-size="14" lengthAdjust="spacing" textLength="333.8193" x="689.635" y="2666.2803">ChangeMacOrderCompartment remains out of scope;</text><text fill="#334155" font-family="Helvetica" font-size="14" lengthAdjust="spacing" textLength="262.9717" x="689.635" y="2680.2803">compartmentId and commitmentTerm stay</text><text fill="#334155" font-family="Helvetica" font-size="14" lengthAdjust="spacing" textLength="295.7021" x="689.635" y="2694.2803">replacement-only, while displayName, ipRange,</text><text fill="#334155" font-family="Helvetica" font-size="14" lengthAdjust="spacing" textLength="303.4951" x="689.635" y="2708.2803">orderDescription, orderSize, and shape reconcile</text><text fill="#334155" font-family="Helvetica" font-size="14" lengthAdjust="spacing" textLength="52.1445" x="689.635" y="2722.2803">in place.</text><ellipse cx="652.635" cy="2305.5" fill="none" rx="11" ry="11" style="stroke:#222222;stroke-width:1;"/><ellipse cx="652.635" cy="2305.5" fill="#222222" rx="6" ry="6" style="stroke:#222222;stroke-width:1;"/><line style="stroke:#0F172A;stroke-width:1;" x1="652.635" x2="652.635" y1="157" y2="177"/><polygon fill="#0F172A" points="648.635,167,652.635,177,656.635,167,652.635,171" style="stroke:#0F172A;stroke-width:1;"/><line style="stroke:#0F172A;stroke-width:1;" x1="815.9932" x2="815.9932" y1="341" y2="361"/><polygon fill="#0F172A" points="811.9932,351,815.9932,361,819.9932,351,815.9932,355" style="stroke:#0F172A;stroke-width:1;"/><line style="stroke:#0F172A;stroke-width:1;" x1="815.9932" x2="815.9932" y1="409" y2="429"/><polygon fill="#0F172A" points="811.9932,419,815.9932,429,819.9932,419,815.9932,423" style="stroke:#0F172A;stroke-width:1;"/><line style="stroke:#0F172A;stroke-width:1;" x1="511.1692" x2="489.2769" y1="257" y2="257"/><line style="stroke:#0F172A;stroke-width:1;" x1="489.2769" x2="489.2769" y1="257" y2="279"/><polygon fill="#0F172A" points="485.2769,269,489.2769,279,493.2769,269,489.2769,273" style="stroke:#0F172A;stroke-width:1;"/><line style="stroke:#0F172A;stroke-width:1;" x1="794.1008" x2="815.9932" y1="257" y2="257"/><line style="stroke:#0F172A;stroke-width:1;" x1="815.9932" x2="815.9932" y1="257" y2="279"/><polygon fill="#0F172A" points="811.9932,269,815.9932,279,819.9932,269,815.9932,273" style="stroke:#0F172A;stroke-width:1;"/><line style="stroke:#0F172A;stroke-width:1;" x1="489.2769" x2="489.2769" y1="313" y2="495"/><line style="stroke:#0F172A;stroke-width:1;" x1="489.2769" x2="640.635" y1="495" y2="495"/><polygon fill="#0F172A" points="630.635,491,640.635,495,630.635,499,634.635,495" style="stroke:#0F172A;stroke-width:1;"/><line style="stroke:#0F172A;stroke-width:1;" x1="815.9932" x2="815.9932" y1="477" y2="495"/><line style="stroke:#0F172A;stroke-width:1;" x1="815.9932" x2="664.635" y1="495" y2="495"/><polygon fill="#0F172A" points="674.635,491,664.635,495,674.635,499,670.635,495" style="stroke:#0F172A;stroke-width:1;"/><line style="stroke:#0F172A;stroke-width:1;" x1="652.635" x2="652.635" y1="225" y2="245"/><polygon fill="#0F172A" points="648.635,235,652.635,245,656.635,235,652.635,239" style="stroke:#0F172A;stroke-width:1;"/><line style="stroke:#0F172A;stroke-width:1;" x1="652.635" x2="652.635" y1="65" y2="109"/><polygon fill="#0F172A" points="648.635,99,652.635,109,656.635,99,652.635,103" style="stroke:#0F172A;stroke-width:1;"/><line style="stroke:#0F172A;stroke-width:1;" x1="339.7441" x2="339.7441" y1="669" y2="704"/><polygon fill="#0F172A" points="335.7441,694,339.7441,704,343.7441,694,339.7441,698" style="stroke:#0F172A;stroke-width:1;"/><line style="stroke:#0F172A;stroke-width:1;" x1="179.5718" x2="169.5718" y1="809" y2="809"/><line style="stroke:#0F172A;stroke-width:1;" x1="169.5718" x2="169.5718" y1="809" y2="831"/><polygon fill="#0F172A" points="165.5718,821,169.5718,831,173.5718,821,169.5718,825" style="stroke:#0F172A;stroke-width:1;"/><line style="stroke:#0F172A;stroke-width:1;" x1="499.9165" x2="509.9165" y1="809" y2="809"/><line style="stroke:#0F172A;stroke-width:1;" x1="509.9165" x2="509.9165" y1="809" y2="831"/><polygon fill="#0F172A" points="505.9165,821,509.9165,831,513.9165,821,509.9165,825" style="stroke:#0F172A;stroke-width:1;"/><line style="stroke:#0F172A;stroke-width:1;" x1="169.5718" x2="169.5718" y1="865" y2="897"/><line style="stroke:#0F172A;stroke-width:1;" x1="169.5718" x2="327.7441" y1="897" y2="897"/><polygon fill="#0F172A" points="317.7441,893,327.7441,897,317.7441,901,321.7441,897" style="stroke:#0F172A;stroke-width:1;"/><line style="stroke:#0F172A;stroke-width:1;" x1="509.9165" x2="509.9165" y1="879" y2="897"/><line style="stroke:#0F172A;stroke-width:1;" x1="509.9165" x2="351.7441" y1="897" y2="897"/><polygon fill="#0F172A" points="361.7441,893,351.7441,897,361.7441,901,357.7441,897" style="stroke:#0F172A;stroke-width:1;"/><line style="stroke:#0F172A;stroke-width:1;" x1="339.7441" x2="339.7441" y1="766" y2="797"/><polygon fill="#0F172A" points="335.7441,787,339.7441,797,343.7441,787,339.7441,791" style="stroke:#0F172A;stroke-width:1;"/><line style="stroke:#0F172A;stroke-width:1;" x1="339.7441" x2="339.7441" y1="909" y2="958"/><polygon fill="#0F172A" points="335.7441,948,339.7441,958,343.7441,948,339.7441,952" style="stroke:#0F172A;stroke-width:1;"/><line style="stroke:#0F172A;stroke-width:1;" x1="965.5259" x2="965.5259" y1="704" y2="739"/><polygon fill="#0F172A" points="961.5259,729,965.5259,739,969.5259,729,965.5259,733" style="stroke:#0F172A;stroke-width:1;"/><line style="stroke:#0F172A;stroke-width:1;" x1="965.5259" x2="965.5259" y1="631" y2="656"/><polygon fill="#0F172A" points="961.5259,646,965.5259,656,969.5259,646,965.5259,650" style="stroke:#0F172A;stroke-width:1;"/><line style="stroke:#0F172A;stroke-width:1;" x1="1063.8091" x2="1145.8115" y1="619" y2="619"/><polygon fill="#0F172A" points="1141.8115,695.5,1145.8115,705.5,1149.8115,695.5,1145.8115,699.5" style="stroke:#0F172A;stroke-width:1;"/><line style="stroke:#0F172A;stroke-width:1;" x1="1145.8115" x2="1145.8115" y1="619" y2="788"/><line style="stroke:#0F172A;stroke-width:1;" x1="1145.8115" x2="965.5259" y1="788" y2="788"/><line style="stroke:#0F172A;stroke-width:1;" x1="965.5259" x2="965.5259" y1="788" y2="823"/><polygon fill="#0F172A" points="961.5259,813,965.5259,823,969.5259,813,965.5259,817" style="stroke:#0F172A;stroke-width:1;"/><line style="stroke:#0F172A;stroke-width:1;" x1="965.5259" x2="965.5259" y1="920" y2="949"/><polygon fill="#0F172A" points="961.5259,939,965.5259,949,969.5259,939,965.5259,943" style="stroke:#0F172A;stroke-width:1;"/><line style="stroke:#0F172A;stroke-width:1;" x1="965.5259" x2="965.5259" y1="847" y2="872"/><polygon fill="#0F172A" points="961.5259,862,965.5259,872,969.5259,862,965.5259,866" style="stroke:#0F172A;stroke-width:1;"/><line style="stroke:#0F172A;stroke-width:1;" x1="1098.0469" x2="1122.4839" y1="835" y2="835"/><polygon fill="#0F172A" points="1118.4839,911.5,1122.4839,921.5,1126.4839,911.5,1122.4839,915.5" style="stroke:#0F172A;stroke-width:1;"/><line style="stroke:#0F172A;stroke-width:1;" x1="1122.4839" x2="1122.4839" y1="835" y2="1002"/><line style="stroke:#0F172A;stroke-width:1;" x1="1122.4839" x2="965.5259" y1="1002" y2="1002"/><line style="stroke:#0F172A;stroke-width:1;" x1="965.5259" x2="965.5259" y1="1002" y2="1058"/><polygon fill="#0F172A" points="961.5259,1048,965.5259,1058,969.5259,1048,965.5259,1052" style="stroke:#0F172A;stroke-width:1;"/><line style="stroke:#0F172A;stroke-width:1;" x1="965.5259" x2="965.5259" y1="1223" y2="1244.5"/><polygon fill="#0F172A" points="961.5259,1234.5,965.5259,1244.5,969.5259,1234.5,965.5259,1238.5" style="stroke:#0F172A;stroke-width:1;"/><line style="stroke:#0F172A;stroke-width:1;" x1="965.5259" x2="965.5259" y1="1150" y2="1175"/><polygon fill="#0F172A" points="961.5259,1165,965.5259,1175,969.5259,1165,965.5259,1169" style="stroke:#0F172A;stroke-width:1;"/><line style="stroke:#0F172A;stroke-width:1;" x1="1103.1089" x2="1126.7495" y1="1138" y2="1138"/><polygon fill="#0F172A" points="1122.7495,1214.5,1126.7495,1224.5,1130.7495,1214.5,1126.7495,1218.5" style="stroke:#0F172A;stroke-width:1;"/><line style="stroke:#0F172A;stroke-width:1;" x1="1126.7495" x2="1126.7495" y1="1138" y2="1288.5"/><line style="stroke:#0F172A;stroke-width:1;" x1="1126.7495" x2="965.5259" y1="1288.5" y2="1288.5"/><line style="stroke:#0F172A;stroke-width:1;" x1="965.5259" x2="965.5259" y1="1288.5" y2="1308.5"/><polygon fill="#0F172A" points="961.5259,1298.5,965.5259,1308.5,969.5259,1298.5,965.5259,1302.5" style="stroke:#0F172A;stroke-width:1;"/><line style="stroke:#0F172A;stroke-width:1;" x1="965.5259" x2="965.5259" y1="1106" y2="1126"/><polygon fill="#0F172A" points="961.5259,1116,965.5259,1126,969.5259,1116,965.5259,1120" style="stroke:#0F172A;stroke-width:1;"/><line style="stroke:#0F172A;stroke-width:1;" x1="843.0981" x2="833.0981" y1="1320.5" y2="1320.5"/><line style="stroke:#0F172A;stroke-width:1;" x1="833.0981" x2="833.0981" y1="1320.5" y2="1342.5"/><polygon fill="#0F172A" points="829.0981,1332.5,833.0981,1342.5,837.0981,1332.5,833.0981,1336.5" style="stroke:#0F172A;stroke-width:1;"/><line style="stroke:#0F172A;stroke-width:1;" x1="1087.9536" x2="1097.9536" y1="1320.5" y2="1320.5"/><line style="stroke:#0F172A;stroke-width:1;" x1="1097.9536" x2="1097.9536" y1="1320.5" y2="1342.5"/><polygon fill="#0F172A" points="1093.9536,1332.5,1097.9536,1342.5,1101.9536,1332.5,1097.9536,1336.5" style="stroke:#0F172A;stroke-width:1;"/><line style="stroke:#0F172A;stroke-width:1;" x1="833.0981" x2="833.0981" y1="1418.5" y2="1436.5"/><line style="stroke:#0F172A;stroke-width:1;" x1="833.0981" x2="953.5259" y1="1436.5" y2="1436.5"/><polygon fill="#0F172A" points="943.5259,1432.5,953.5259,1436.5,943.5259,1440.5,947.5259,1436.5" style="stroke:#0F172A;stroke-width:1;"/><line style="stroke:#0F172A;stroke-width:1;" x1="1097.9536" x2="1097.9536" y1="1376.5" y2="1436.5"/><line style="stroke:#0F172A;stroke-width:1;" x1="1097.9536" x2="977.5259" y1="1436.5" y2="1436.5"/><polygon fill="#0F172A" points="987.5259,1432.5,977.5259,1436.5,987.5259,1440.5,983.5259,1436.5" style="stroke:#0F172A;stroke-width:1;"/><line style="stroke:#0F172A;stroke-width:1;" x1="965.5259" x2="965.5259" y1="1448.5" y2="1468.5"/><polygon fill="#0F172A" points="961.5259,1458.5,965.5259,1468.5,969.5259,1458.5,965.5259,1462.5" style="stroke:#0F172A;stroke-width:1;"/><line style="stroke:#0F172A;stroke-width:1;" x1="965.5259" x2="965.5259" y1="1558.5" y2="1578.5"/><polygon fill="#0F172A" points="961.5259,1568.5,965.5259,1578.5,969.5259,1568.5,965.5259,1572.5" style="stroke:#0F172A;stroke-width:1;"/><line style="stroke:#0F172A;stroke-width:1;" x1="965.5259" x2="965.5259" y1="1682.5" y2="1702.5"/><polygon fill="#0F172A" points="961.5259,1692.5,965.5259,1702.5,969.5259,1692.5,965.5259,1696.5" style="stroke:#0F172A;stroke-width:1;"/><line style="stroke:#0F172A;stroke-width:1;" x1="965.5259" x2="965.5259" y1="1736.5" y2="1756.5"/><polygon fill="#0F172A" points="961.5259,1746.5,965.5259,1756.5,969.5259,1746.5,965.5259,1750.5" style="stroke:#0F172A;stroke-width:1;"/><line style="stroke:#0F172A;stroke-width:1;" x1="965.5259" x2="965.5259" y1="1804.5" y2="1824.5"/><polygon fill="#0F172A" points="961.5259,1814.5,965.5259,1824.5,969.5259,1814.5,965.5259,1818.5" style="stroke:#0F172A;stroke-width:1;"/><line style="stroke:#0F172A;stroke-width:1;" x1="578.4587" x2="339.7441" y1="551" y2="551"/><line style="stroke:#0F172A;stroke-width:1;" x1="339.7441" x2="339.7441" y1="551" y2="607"/><polygon fill="#0F172A" points="335.7441,597,339.7441,607,343.7441,597,339.7441,601" style="stroke:#0F172A;stroke-width:1;"/><line style="stroke:#0F172A;stroke-width:1;" x1="726.8113" x2="965.5259" y1="551" y2="551"/><line style="stroke:#0F172A;stroke-width:1;" x1="965.5259" x2="965.5259" y1="551" y2="607"/><polygon fill="#0F172A" points="961.5259,597,965.5259,607,969.5259,597,965.5259,601" style="stroke:#0F172A;stroke-width:1;"/><line style="stroke:#0F172A;stroke-width:1;" x1="965.5259" x2="965.5259" y1="1858.5" y2="1875.5"/><line style="stroke:#0F172A;stroke-width:1;" x1="965.5259" x2="652.635" y1="1875.5" y2="1875.5"/><line style="stroke:#0F172A;stroke-width:1;" x1="652.635" x2="652.635" y1="1875.5" y2="2294.5"/><polygon fill="#0F172A" points="648.635,2284.5,652.635,2294.5,656.635,2284.5,652.635,2288.5" style="stroke:#0F172A;stroke-width:1;"/><line style="stroke:#0F172A;stroke-width:1;" x1="652.635" x2="652.635" y1="507" y2="539"/><polygon fill="#0F172A" points="648.635,529,652.635,539,656.635,529,652.635,533" style="stroke:#0F172A;stroke-width:1;"/><?plantuml-src bLXXSzis4lsENu59lzXpeXqtIPjAqtPSoMuzbxCxZdBtHJCfH88IpXJ00g1qQgV__HuM84LARffE9rEHN2ns7zw-NTWzALqBApRShKLXTaglU2ag9vdhlYn5_hIofj75r5J6yY_A7FyLFOj2bgAf_AtH_bvi9Fz9LblfLIwUjtclVfFywdNlex3Mx9Btb-NLrr_sLshZvGydCPJbryLNnrR65j8cY-NhDwzUVdDa4RPFtr-zUdtrvatlExdFZTNIygklc5U-almwzsgh_9vdVADNnKRab_yI-KFOfnz_Q_Kxuy_WzROKPHw-zEDBUN9U7cBgtXLAR8mkJjAMNygtvSkUGT_ZLV5Q5cyF7s-VSUoyiFxONdR-ExkbEFBw1wEb30a36MKqV_6mTD9k9HUwu3yeNRn0-kFtmOgNrX2bh2nuMPdTGiU7IuIs0cBkCZvdLkP6vwgIMOlXXTkk9cpyA4K1qZWLNBIGSrVBVCIz1IvuZOXyuqOB7I8eP2Mzv4fxgVs4gPAVlPWdG-GX_rTNAbUUFqplk2fW4ywhjjBXv_SlphbVIytFzjATi_6FqeTddZVMuZEjWQLfR2xvLWaEWpQc2PEe5twcpNc8sfcA8C66olbGJuF5VetZNAqN-Xs-jYuSRnnLdgfyUChD9i2ymTPt1T8hbAihiG-r1MIcLWelARwJkEAtrkz2xq9Isi2eSM89Fc-4pzTSER0Eh8Atdx4XGY5tDaPFUENagHZ0jT10roJOaJS2Aq4CWdeMuRVorqOwB3o2j4URQ4baIOjguTU0G3e-5JgNLNVSEuKFmMLWmK8V8H_27CA8u6OtxsxcDpEWTlym_tZxyE5-1ZnrgInIn_u1mFWO6HD2ElLxSZx8lqfmYtoDI9_PPp908g-aq4rDrL4gBIgediLol0PTN9FdyWGby6TZjl5i3sj42LQq_0xSY64FY8Uos_DbPOZkCTes0A3K-Lheem1wn-YygNikUoVsJfKotyCVdrR2ELL2siENS8QKSW0ci2AK7rBqTazaSzAV9aZyY3nf9D-jKVi9s8rGsWKFqyURw_dT_Oy0zyFFi_Wp0evVanGeHNsyk-EcyGvyZVavK4BObVJkD0xVM1tgjD79j6mgtibHg0MqgmZbGlTF_dewl_ltpI2CF_fe1UNQqx7Fh2ez_ma_AvGtCNvAfIrvfROnxHYuM8NSgGh34TKc4urVcw1zcyOJsCZ8bYANYMMt1ZMVQRcZOWMZeMuaDmLjMe0hkN-EOF_5-sIqb2Mse32wNSf0bzRt0eKYgu8KQQD8aERIRaP3XJezaVTDNHlhK_I12f-EwhgkgpsVheLUTU8rFMmHU50NFM7ZHiC-XDhwZt4Ef7B4LVqOF8uuTScPTBbLTSWI3kaLJI9d_xZY6-1mFYoe9rLJ7MgJcVg0Jz2gjcR6ZmrUMBDL8QQrhEhmFsEU44ZKpszzsUhpHTJcn_GuMQ0sYoEJc6NF91PztoIgIsl2IU29DQJiiOi0YWo0RsKC5wr8vesNgFM4TDSCIrEXEsTG2OVo0zVpG-XGnFyO-zHMRFRTeEjruV-LMKhXn6oXXs9_sLjsEL1VH1GLEuk-9btvjaKUc13EAfPczvfgA_GuQuZrRIT97Un8cci3JFQX_3oACQFApzBEc5HwUqVfCkdi7MW1t4US0A5VqEiD_8Q72SGXieMA90oXtAhLshCq7gM9QCp-reJ4UdDMo3mvE-XNDv8YIHR69aLfTdJDbd4qcZv-c8tuJYW_YgO4JLP7o0BZYu17vS1lAoyOcgUtO0qyeDk8wh1H6pWNHS4g720Cp1Ee1LPwDmB3G2mVOLOIBoAYR9tqaVRdffOaGXkuNedQNJ1X8Rj-NqiCfQ3u6Fp2Y4x3IPW_5QGAr1KhJEHv5vpZlPoV1IXK1gC18-rcmudZzc9sSE_MghvWoV-udVsPgveLdaHEyi5m0IZ6tNHwY7JCLssCsN6C4U3BZdVZ0oqlsIUvnrBJ77yExrYdIrG5RfmckgwvJk8woTeMEsb7ZBRJiauTsiL_KUpiioI1_PaYiCyL13RK0-QwTaDjPioVxGBif0lmPve0G2QjIBsHT1-8ToqnTHhsoOx88bnPR5EqO8n6eYNL1OzrCUOcLnyJipw6VoOEc-aQm8RNW7vI4oWuwkveqxg2flMiCBmeODlE_3h9uuXryrMO7Nh7tuIk43X2Ap3gb2XyrWuNRGfKeQ4qq_EZt2gv0_XLDoPkH5s7LkG33AwZ71UE3QdRReulFHed6OTrKl8e3VStDxFt7w_dyvlx-Tt3VGZ-zlhktSqiM2RgLnHpOm5HI-DG07lNhmqIkZJ0XvbHjCoFmo94Rd2D2XCjkasmwruj3MQy03ZWoBCTU9obgq-cS5Pnh3qQMiAkHnUSw9dtrqDd1T4WaEU2pSEzB2bJh4SNzIp92eamEwgbE8gCIEssT3722b6MD7onRdSCVhFOGWO1jBD6X1q50JGm0_PlI2Avf25LXT5e2sB4lmT0ycYcJGCBI_SXS88kQ4S8jAsxRfQeZJN2-sUpb5PZIHWxTRZh-mi-7zo8S6Rf7bCmce3Q69CmTBSpVc_yRRZf4jK5osbpkk56-4MHRGnEdvtz4iM0rFdRwVNz52vclvodsnVzDO0M4rQinQgzHe4pVpQzTZSRN4suARdBKK6JONKJluUIGhJ5FgZcN8QNf2OjjVwsmiKIGXUivQ49CeW2-Ry8CmhzXUp_?></g></svg>