<?plantuml 1.2026.1?><svg xmlns="http://www.w3.org/2000/svg" xmlns:xlink="http://www.w3.org/1999/xlink" contentStyleType="text/css" data-diagram-type="SEQUENCE" height="2187px" preserveAspectRatio="none" style="width:1194px;height:2187px;background:#FCFCFD;" version="1.1" viewBox="0 0 1194 2187" width="1194px" zoomAndPan="magnify"><title>Sequence - core/Subnet</title><defs/><g><rect fill="#FCFCFD" height="2187" style="stroke:none;stroke-width:1;" width="1194" x="0" y="0"/><text fill="#000000" font-family="Helvetica" font-size="14" font-weight="bold" lengthAdjust="spacing" textLength="159.4824" x="523.7375" y="25.7803">Sequence - core/Subnet</text><rect fill="none" height="290" rx="8" ry="8" style="stroke:#CBD5E1;stroke-width:1.5;" width="768.6953" x="403.2871" y="314"/><rect fill="none" height="146" rx="8" ry="8" style="stroke:#CBD5E1;stroke-width:1.5;" width="475.9575" x="686.0249" y="423"/><rect fill="none" height="44" rx="8" ry="8" style="stroke:#CBD5E1;stroke-width:1.5;" width="455.9575" x="696.0249" y="474"/><rect fill="none" height="923" rx="8" ry="8" style="stroke:#CBD5E1;stroke-width:1.5;" width="804.6704" x="383.2871" y="618"/><rect fill="none" height="259" rx="8" ry="8" style="stroke:#CBD5E1;stroke-width:1.5;" width="768.6953" x="393.2871" y="641"/><rect fill="none" height="57" rx="8" ry="8" style="stroke:#CBD5E1;stroke-width:1.5;" width="455.9575" x="696.0249" y="734"/><rect fill="none" height="88" rx="8" ry="8" style="stroke:#CBD5E1;stroke-width:1.5;" width="469.1304" x="403.2871" y="805"/><rect fill="none" height="476" rx="8" ry="8" style="stroke:#CBD5E1;stroke-width:1.5;" width="784.6704" x="393.2871" y="1016"/><rect fill="none" height="44" rx="8" ry="8" style="stroke:#CBD5E1;stroke-width:1.5;" width="469.1304" x="403.2871" y="1185"/><rect fill="none" height="144" rx="8" ry="8" style="stroke:#CBD5E1;stroke-width:1.5;" width="475.9575" x="686.0249" y="1243"/><rect fill="none" height="44" rx="8" ry="8" style="stroke:#CBD5E1;stroke-width:1.5;" width="455.9575" x="696.0249" y="1336"/><g class="participant-lifeline" data-entity-uid="part1" data-qualified-name="Kubernetes" id="part1-lifeline"><g><title>Kubernetes</title><rect fill="#000000" fill-opacity="0.00000" height="2066" width="8" x="39.8032" y="114"/><line style="stroke:#94A3B8;stroke-width:0.5;stroke-dasharray:5,5;" x1="43" x2="43" y1="114" y2="2180"/></g></g><g class="participant-lifeline" data-entity-uid="part2" data-qualified-name="Controller" id="part2-lifeline"><g><title>Controller</title><rect fill="#000000" fill-opacity="0.00000" height="2066" width="8" x="226.4849" y="114"/><line style="stroke:#94A3B8;stroke-width:0.5;stroke-dasharray:5,5;" x1="230.1401" x2="230.1401" y1="114" y2="2180"/></g></g><g class="participant-lifeline" data-entity-uid="part3" data-qualified-name="BaseReconciler" id="part3-lifeline"><g><title>BaseReconciler</title><rect fill="#000000" fill-opacity="0.00000" height="2066" width="8" x="465.311" y="114"/><line style="stroke:#94A3B8;stroke-width:0.5;stroke-dasharray:5,5;" x1="469.2871" x2="469.2871" y1="114" y2="2180"/></g></g><g class="participant-lifeline" data-entity-uid="part4" data-qualified-name="ServiceManager" id="part4-lifeline"><g><title>OSOKServiceManager</title><rect fill="#000000" fill-opacity="0.00000" height="2066" width="8" x="780.2212" y="114"/><line style="stroke:#94A3B8;stroke-width:0.5;stroke-dasharray:5,5;" x1="784.0249" x2="784.0249" y1="114" y2="2180"/></g></g><g class="participant-lifeline" data-entity-uid="part5" data-qualified-name="OCI" id="part5-lifeline"><g><title>OCI</title><rect fill="#000000" fill-opacity="0.00000" height="2066" width="8" x="1118.5376" y="114"/><line style="stroke:#94A3B8;stroke-width:0.5;stroke-dasharray:5,5;" x1="1122.0928" x2="1122.0928" y1="114" y2="2180"/></g></g><g class="participant participant-head" data-entity-uid="part1" data-qualified-name="Kubernetes" id="part1-head"><text fill="#000000" font-family="Helvetica" font-size="14" lengthAdjust="spacing" textLength="71.6064" x="5" y="110.7803">Kubernetes</text><ellipse cx="43.8032" cy="48.5" fill="#E2E8F0" rx="8" ry="8" style="stroke:#0F172A;stroke-width:0.5;"/><path d="M43.8032,56.5 L43.8032,83.5 M30.8032,64.5 L56.8032,64.5 M43.8032,83.5 L30.8032,98.5 M43.8032,83.5 L56.8032,98.5" fill="none" style="stroke:#0F172A;stroke-width:0.5;"/></g><g class="participant participant-head" data-entity-uid="part2" data-qualified-name="Controller" id="part2-head"><rect fill="#E2E8F0" height="28" rx="8" ry="8" style="stroke:#0F172A;stroke-width:0.5;" width="74.6895" x="193.1401" y="85"/><text fill="#0F172A" font-family="Helvetica" font-size="14" lengthAdjust="spacing" textLength="60.6895" x="200.1401" y="102.7803">Controller</text></g><g class="participant participant-head" data-entity-uid="part3" data-qualified-name="BaseReconciler" id="part3-head"><rect fill="#E2E8F0" height="28" rx="8" ry="8" style="stroke:#0F172A;stroke-width:0.5;" width="112.0479" x="413.2871" y="85"/><text fill="#0F172A" font-family="Helvetica" font-size="14" lengthAdjust="spacing" textLength="98.0479" x="420.2871" y="102.7803">BaseReconciler</text></g><g class="participant participant-head" data-entity-uid="part4" data-qualified-name="ServiceManager" id="part4-head"><rect fill="#E2E8F0" height="28" rx="8" ry="8" style="stroke:#0F172A;stroke-width:0.5;" width="156.3926" x="706.0249" y="85"/><text fill="#0F172A" font-family="Helvetica" font-size="14" lengthAdjust="spacing" textLength="142.3926" x="713.0249" y="102.7803">OSOKServiceManager</text></g><g class="participant participant-head" data-entity-uid="part5" data-qualified-name="OCI" id="part5-head"><rect fill="#E2E8F0" height="28" rx="8" ry="8" style="stroke:#0F172A;stroke-width:0.5;" width="38.8896" x="1103.0928" y="85"/><text fill="#0F172A" font-family="Helvetica" font-size="14" lengthAdjust="spacing" textLength="24.8896" x="1110.0928" y="102.7803">OCI</text></g><path d="M404,137 L404,187 A8,8 0 0 0 412,195 L840,195 A8,8 0 0 0 848,187 L848,139 L838,129 L412,129 A8,8 0 0 0 404,137" fill="#FFF7D6" style="stroke:#B45309;stroke-width:0.5;"/><path d="M838,129 L838,135 A4,4 0 0 0 842,139 L848,139 L838,129" fill="#FFF7D6" style="stroke:#B45309;stroke-width:0.5;"/><text fill="#334155" font-family="Helvetica" font-size="14" lengthAdjust="spacing" textLength="111.2891" x="467.8694" y="144.7803">shared resolution:</text><text fill="#334155" font-family="Helvetica" font-size="14" lengthAdjust="spacing" textLength="307.3916" x="467.8694" y="158.7803">shared/diagrams/shared-resolution-sequence.svg</text><text fill="#334155" font-family="Helvetica" font-size="14" lengthAdjust="spacing" textLength="88.7305" x="467.8694" y="172.7803">shared delete:</text><text fill="#334155" font-family="Helvetica" font-size="14" lengthAdjust="spacing" textLength="284.833" x="467.8694" y="186.7803">shared/diagrams/shared-delete-sequence.svg</text><g class="message" data-entity-1="part1" data-entity-2="part2" id="msg1"><polygon fill="#0F172A" points="218.4849,216,228.4849,220,218.4849,224,222.4849,220" style="stroke:#0F172A;stroke-width:1;"/><line style="stroke:#0F172A;stroke-width:1;" x1="43.8032" x2="224.4849" y1="220" y2="220"/><text fill="#000000" font-family="Helvetica" font-size="14" lengthAdjust="spacing" textLength="162.6816" x="50.8032" y="214.7803">enqueue Subnet reconcile</text></g><g class="message" data-entity-1="part2" data-entity-2="part3" id="msg2"><polygon fill="#0F172A" points="457.311,244,467.311,248,457.311,252,461.311,248" style="stroke:#0F172A;stroke-width:1;"/><line style="stroke:#0F172A;stroke-width:1;" x1="230.4849" x2="463.311" y1="248" y2="248"/><text fill="#000000" font-family="Helvetica" font-size="14" lengthAdjust="spacing" textLength="117.4961" x="237.4849" y="242.7803">Reconcile(request)</text></g><g class="message" data-entity-1="part3" data-entity-2="part4" id="msg3"><polygon fill="#0F172A" points="772.2212,272,782.2212,276,772.2212,280,776.2212,276" style="stroke:#0F172A;stroke-width:1;"/><line style="stroke:#0F172A;stroke-width:1;" x1="469.311" x2="778.2212" y1="276" y2="276"/><text fill="#000000" font-family="Helvetica" font-size="14" lengthAdjust="spacing" textLength="154.0957" x="476.311" y="270.7803">reconcile desired Subnet</text></g><path d="M411.2871,314 L464.625,314 L464.625,320 L454.625,330 L403.2871,330 L403.2871,322 A8,8 0 0 1 411.2871,314" fill="#F8FAFC" style="stroke:#CBD5E1;stroke-width:1.5;"/><rect fill="none" height="290" rx="8" ry="8" style="stroke:#CBD5E1;stroke-width:1.5;" width="768.6953" x="403.2871" y="314"/><text fill="#000000" font-family="Helvetica" font-size="14" font-weight="bold" lengthAdjust="spacing" textLength="16.3379" x="418.2871" y="325.7803">alt</text><text fill="#000000" font-family="Helvetica" font-size="14" font-weight="bold" lengthAdjust="spacing" textLength="308.1094" x="479.625" y="326.7803">[tracked or explicit OCI identity already exists]</text><g class="message" data-entity-1="part4" data-entity-2="part5" id="msg4"><polygon fill="#0F172A" points="1110.5376,346,1120.5376,350,1110.5376,354,1114.5376,350" style="stroke:#0F172A;stroke-width:1;"/><line style="stroke:#0F172A;stroke-width:1;" x1="784.2212" x2="1116.5376" y1="350" y2="350"/><text fill="#000000" font-family="Helvetica" font-size="14" lengthAdjust="spacing" textLength="66.9375" x="791.2212" y="344.7803">GetSubnet</text></g><line style="stroke:#CBD5E1;stroke-width:1;stroke-dasharray:2,2;" x1="403.2871" x2="1171.9824" y1="359" y2="359"/><text fill="#000000" font-family="Helvetica" font-size="14" font-weight="bold" lengthAdjust="spacing" textLength="185.1582" x="408.2871" y="369.7803">[tracked identity is missing]</text><g class="message" data-entity-1="part4" data-entity-2="part5" id="msg5"><polygon fill="#0F172A" points="1110.5376,404,1120.5376,408,1110.5376,412,1114.5376,408" style="stroke:#0F172A;stroke-width:1;"/><line style="stroke:#0F172A;stroke-width:1;" x1="784.2212" x2="1116.5376" y1="408" y2="408"/><text fill="#000000" font-family="Helvetica" font-size="14" lengthAdjust="spacing" textLength="223.3164" x="791.2212" y="388.7803">ListSubnets(filters: compartment_id,</text><text fill="#000000" font-family="Helvetica" font-size="14" lengthAdjust="spacing" textLength="222.9336" x="791.2212" y="402.7803">display_name, id, vcn_id (+1 more))</text></g><path d="M694.0249,423 L747.3628,423 L747.3628,429 L737.3628,439 L686.0249,439 L686.0249,431 A8,8 0 0 1 694.0249,423" fill="#F8FAFC" style="stroke:#CBD5E1;stroke-width:1.5;"/><rect fill="none" height="146" rx="8" ry="8" style="stroke:#CBD5E1;stroke-width:1.5;" width="475.9575" x="686.0249" y="423"/><text fill="#000000" font-family="Helvetica" font-size="14" font-weight="bold" lengthAdjust="spacing" textLength="16.3379" x="701.0249" y="434.7803">alt</text><text fill="#000000" font-family="Helvetica" font-size="14" font-weight="bold" lengthAdjust="spacing" textLength="242.7031" x="762.3628" y="435.7803">[reusable OCI resource is not found]</text><g class="message" data-entity-1="part4" data-entity-2="part5" id="msg6"><polygon fill="#0F172A" points="1110.5376,455,1120.5376,459,1110.5376,463,1114.5376,459" style="stroke:#0F172A;stroke-width:1;"/><line style="stroke:#0F172A;stroke-width:1;" x1="784.2212" x2="1116.5376" y1="459" y2="459"/><text fill="#000000" font-family="Helvetica" font-size="14" lengthAdjust="spacing" textLength="86.3926" x="791.2212" y="453.7803">CreateSubnet</text></g><path d="M704.0249,474 L770.5698,474 L770.5698,480 L760.5698,490 L696.0249,490 L696.0249,482 A8,8 0 0 1 704.0249,474" fill="#F8FAFC" style="stroke:#CBD5E1;stroke-width:1.5;"/><rect fill="none" height="44" rx="8" ry="8" style="stroke:#CBD5E1;stroke-width:1.5;" width="455.9575" x="696.0249" y="474"/><text fill="#000000" font-family="Helvetica" font-size="14" font-weight="bold" lengthAdjust="spacing" textLength="29.5449" x="711.0249" y="485.7803">loop</text><text fill="#000000" font-family="Helvetica" font-size="14" font-weight="bold" lengthAdjust="spacing" textLength="215.4756" x="785.5698" y="486.7803">[create pending PROVISIONING]</text><g class="message" data-entity-1="part4" data-entity-2="part5" id="msg7"><polygon fill="#0F172A" points="1110.5376,506,1120.5376,510,1110.5376,514,1114.5376,510" style="stroke:#0F172A;stroke-width:1;"/><line style="stroke:#0F172A;stroke-width:1;" x1="784.2212" x2="1116.5376" y1="510" y2="510"/><text fill="#000000" font-family="Helvetica" font-size="14" lengthAdjust="spacing" textLength="66.9375" x="791.2212" y="504.7803">GetSubnet</text></g><line style="stroke:#CBD5E1;stroke-width:1;stroke-dasharray:2,2;" x1="686.0249" x2="1161.9824" y1="526" y2="526"/><text fill="#000000" font-family="Helvetica" font-size="14" font-weight="bold" lengthAdjust="spacing" textLength="255.2334" x="691.0249" y="536.7803">[reusable OCI resource already exists]</text><g class="message" data-entity-1="part4" data-entity-2="part5" id="msg8"><polygon fill="#0F172A" points="1110.5376,557,1120.5376,561,1110.5376,565,1114.5376,561" style="stroke:#0F172A;stroke-width:1;"/><line style="stroke:#0F172A;stroke-width:1;" x1="784.2212" x2="1116.5376" y1="561" y2="561"/><text fill="#000000" font-family="Helvetica" font-size="14" lengthAdjust="spacing" textLength="66.9375" x="791.2212" y="555.7803">GetSubnet</text></g><g class="message" data-entity-1="part4" data-entity-2="part3" id="msg9"><polygon fill="#0F172A" points="480.311,592,470.311,596,480.311,600,476.311,596" style="stroke:#0F172A;stroke-width:1;"/><line style="stroke:#0F172A;stroke-width:1;stroke-dasharray:2,2;" x1="474.311" x2="783.2212" y1="596" y2="596"/><text fill="#000000" font-family="Helvetica" font-size="14" lengthAdjust="spacing" textLength="231.0957" x="486.311" y="590.7803">persist resolved OCI identity in status</text></g><path d="M391.2871,618 L444.625,618 L444.625,624 L434.625,634 L383.2871,634 L383.2871,626 A8,8 0 0 1 391.2871,618" fill="#F8FAFC" style="stroke:#CBD5E1;stroke-width:1.5;"/><rect fill="none" height="923" rx="8" ry="8" style="stroke:#CBD5E1;stroke-width:1.5;" width="804.6704" x="383.2871" y="618"/><text fill="#000000" font-family="Helvetica" font-size="14" font-weight="bold" lengthAdjust="spacing" textLength="16.3379" x="398.2871" y="629.7803">alt</text><text fill="#000000" font-family="Helvetica" font-size="14" font-weight="bold" lengthAdjust="spacing" textLength="120.5859" x="459.625" y="630.7803">[delete requested]</text><path d="M401.2871,641 L480.3076,641 L480.3076,647 L470.3076,657 L393.2871,657 L393.2871,649 A8,8 0 0 1 401.2871,641" fill="#F8FAFC" style="stroke:#CBD5E1;stroke-width:1.5;"/><rect fill="none" height="259" rx="8" ry="8" style="stroke:#CBD5E1;stroke-width:1.5;" width="768.6953" x="393.2871" y="641"/><text fill="#000000" font-family="Helvetica" font-size="14" font-weight="bold" lengthAdjust="spacing" textLength="42.0205" x="408.2871" y="652.7803">Delete</text><g class="message" data-entity-1="part4" data-entity-2="part5" id="msg10"><polygon fill="#0F172A" points="1110.5376,673,1120.5376,677,1110.5376,681,1114.5376,677" style="stroke:#0F172A;stroke-width:1;"/><line style="stroke:#0F172A;stroke-width:1;" x1="784.2212" x2="1116.5376" y1="677" y2="677"/><text fill="#000000" font-family="Helvetica" font-size="14" lengthAdjust="spacing" textLength="84.8408" x="791.2212" y="671.7803">DeleteSubnet</text></g><g class="message" data-entity-1="part4" data-entity-2="part5" id="msg11"><polygon fill="#0F172A" points="1110.5376,715,1120.5376,719,1110.5376,723,1114.5376,719" style="stroke:#0F172A;stroke-width:1;"/><line style="stroke:#0F172A;stroke-width:1;" x1="784.2212" x2="1116.5376" y1="719" y2="719"/><text fill="#000000" font-family="Helvetica" font-size="14" lengthAdjust="spacing" textLength="196.8818" x="791.2212" y="699.7803">confirm delete via GetSubnet or</text><text fill="#000000" font-family="Helvetica" font-size="14" lengthAdjust="spacing" textLength="73.1582" x="791.2212" y="713.7803">ListSubnets</text></g><path d="M704.0249,734 L770.5698,734 L770.5698,740 L760.5698,750 L696.0249,750 L696.0249,742 A8,8 0 0 1 704.0249,734" fill="#F8FAFC" style="stroke:#CBD5E1;stroke-width:1.5;"/><rect fill="none" height="57" rx="8" ry="8" style="stroke:#CBD5E1;stroke-width:1.5;" width="455.9575" x="696.0249" y="734"/><text fill="#000000" font-family="Helvetica" font-size="14" font-weight="bold" lengthAdjust="spacing" textLength="29.5449" x="711.0249" y="745.7803">loop</text><text fill="#000000" font-family="Helvetica" font-size="14" font-weight="bold" lengthAdjust="spacing" textLength="208.4414" x="785.5698" y="746.7803">[delete pending TERMINATING,</text><text fill="#000000" font-family="Helvetica" font-size="14" font-weight="bold" lengthAdjust="spacing" textLength="96.4346" x="785.5698" y="760.7803">TERMINATED]</text><g class="message" data-entity-1="part4" data-entity-2="part5" id="msg12"><polygon fill="#0F172A" points="1110.5376,779,1120.5376,783,1110.5376,787,1114.5376,783" style="stroke:#0F172A;stroke-width:1;"/><line style="stroke:#0F172A;stroke-width:1;" x1="784.2212" x2="1116.5376" y1="783" y2="783"/><text fill="#000000" font-family="Helvetica" font-size="14" lengthAdjust="spacing" textLength="160.3232" x="791.2212" y="777.7803">GetSubnet or ListSubnets</text></g><path d="M411.2871,805 L464.625,805 L464.625,811 L454.625,821 L403.2871,821 L403.2871,813 A8,8 0 0 1 411.2871,805" fill="#F8FAFC" style="stroke:#CBD5E1;stroke-width:1.5;"/><rect fill="none" height="88" rx="8" ry="8" style="stroke:#CBD5E1;stroke-width:1.5;" width="469.1304" x="403.2871" y="805"/><text fill="#000000" font-family="Helvetica" font-size="14" font-weight="bold" lengthAdjust="spacing" textLength="16.3379" x="418.2871" y="816.7803">alt</text><text fill="#000000" font-family="Helvetica" font-size="14" font-weight="bold" lengthAdjust="spacing" textLength="261.4268" x="479.625" y="817.7803">[cleanup or finalizer release is blocked]</text><g class="message" data-entity-1="part4" data-entity-2="part3" id="msg13"><polygon fill="#0F172A" points="480.311,837,470.311,841,480.311,845,476.311,841" style="stroke:#0F172A;stroke-width:1;"/><line style="stroke:#0F172A;stroke-width:1;stroke-dasharray:2,2;" x1="474.311" x2="783.2212" y1="841" y2="841"/><text fill="#000000" font-family="Helvetica" font-size="14" lengthAdjust="spacing" textLength="170.4336" x="486.311" y="835.7803">retain delete state and retry</text></g><line style="stroke:#CBD5E1;stroke-width:1;stroke-dasharray:2,2;" x1="403.2871" x2="872.4175" y1="850" y2="850"/><text fill="#000000" font-family="Helvetica" font-size="14" font-weight="bold" lengthAdjust="spacing" textLength="194.4824" x="408.2871" y="860.7803">[delete completion observed]</text><g class="message" data-entity-1="part4" data-entity-2="part3" id="msg14"><polygon fill="#0F172A" points="480.311,881,470.311,885,480.311,889,476.311,885" style="stroke:#0F172A;stroke-width:1;"/><line style="stroke:#0F172A;stroke-width:1;stroke-dasharray:2,2;" x1="474.311" x2="783.2212" y1="885" y2="885"/><text fill="#000000" font-family="Helvetica" font-size="14" lengthAdjust="spacing" textLength="243.5781" x="486.311" y="879.7803">release finalizer after delete completion</text></g><line style="stroke:#CBD5E1;stroke-width:1;stroke-dasharray:2,2;" x1="383.2871" x2="1187.9575" y1="908" y2="908"/><text fill="#000000" font-family="Helvetica" font-size="14" font-weight="bold" lengthAdjust="spacing" textLength="149.3857" x="388.2871" y="918.7803">[OCI state is retryable]</text><g class="message" data-entity-1="part4" data-entity-2="part3" id="msg15"><polygon fill="#0F172A" points="480.311,967,470.311,971,480.311,975,476.311,971" style="stroke:#0F172A;stroke-width:1;"/><line style="stroke:#0F172A;stroke-width:1;stroke-dasharray:2,2;" x1="474.311" x2="783.2212" y1="971" y2="971"/><text fill="#000000" font-family="Helvetica" font-size="14" lengthAdjust="spacing" textLength="184.4199" x="486.311" y="937.7803">requeue while OCI remains in</text><text fill="#000000" font-family="Helvetica" font-size="14" lengthAdjust="spacing" textLength="290.9102" x="486.311" y="951.7803">PROVISIONING, UPDATING, TERMINATING,</text><text fill="#000000" font-family="Helvetica" font-size="14" lengthAdjust="spacing" textLength="91" x="486.311" y="965.7803">TERMINATED</text></g><line style="stroke:#CBD5E1;stroke-width:1;stroke-dasharray:2,2;" x1="383.2871" x2="1187.9575" y1="980" y2="980"/><text fill="#000000" font-family="Helvetica" font-size="14" font-weight="bold" lengthAdjust="spacing" textLength="200.751" x="388.2871" y="990.7803">[live state requires field-aware</text><text fill="#000000" font-family="Helvetica" font-size="14" font-weight="bold" lengthAdjust="spacing" textLength="105.0068" x="388.2871" y="1004.7803">drift evaluation]</text><path d="M401.2871,1016 L529.2734,1016 L529.2734,1022 L519.2734,1032 L393.2871,1032 L393.2871,1024 A8,8 0 0 1 401.2871,1016" fill="#F8FAFC" style="stroke:#CBD5E1;stroke-width:1.5;"/><rect fill="none" height="476" rx="8" ry="8" style="stroke:#CBD5E1;stroke-width:1.5;" width="784.6704" x="393.2871" y="1016"/><text fill="#000000" font-family="Helvetica" font-size="14" font-weight="bold" lengthAdjust="spacing" textLength="90.9863" x="408.2871" y="1027.7803">Drift handling</text><path d="M737,1045 L737,1165 A8,8 0 0 0 745,1173 L1159,1173 A8,8 0 0 0 1167,1165 L1167,1047 L1157,1037 L745,1037 A8,8 0 0 0 737,1045" fill="#FFF7D6" style="stroke:#B45309;stroke-width:0.5;"/><path d="M1157,1037 L1157,1043 A4,4 0 0 0 1161,1047 L1167,1047 L1157,1037" fill="#FFF7D6" style="stroke:#B45309;stroke-width:0.5;"/><text fill="#334155" font-family="Helvetica" font-size="14" lengthAdjust="spacing" textLength="235.8125" x="825.2053" y="1052.7803">Supported update surface: cidr_block,</text><text fill="#334155" font-family="Helvetica" font-size="14" lengthAdjust="spacing" textLength="193.8193" x="825.2053" y="1066.7803">defined_tags, dhcp_options_id,</text><text fill="#334155" font-family="Helvetica" font-size="14" lengthAdjust="spacing" textLength="151.3477" x="825.2053" y="1080.7803">display_name (+5 more)</text><text fill="#334155" font-family="Helvetica" font-size="14" lengthAdjust="spacing" textLength="235.7783" x="825.2053" y="1094.7803">Reject before mutate: force-new fields</text><text fill="#334155" font-family="Helvetica" font-size="14" lengthAdjust="spacing" textLength="230.3369" x="825.2053" y="1108.7803">availability_domain, compartment_id,</text><text fill="#334155" font-family="Helvetica" font-size="14" lengthAdjust="spacing" textLength="245.5469" x="825.2053" y="1122.7803">dns_label, prohibit_internet_ingress (+2</text><text fill="#334155" font-family="Helvetica" font-size="14" lengthAdjust="spacing" textLength="36.5586" x="825.2053" y="1136.7803">more)</text><text fill="#334155" font-family="Helvetica" font-size="14" lengthAdjust="spacing" textLength="195.3164" x="825.2053" y="1150.7803">Lookup filters: compartment_id,</text><text fill="#334155" font-family="Helvetica" font-size="14" lengthAdjust="spacing" textLength="218.2715" x="825.2053" y="1164.7803">display_name, id, vcn_id (+1 more)</text><path d="M411.2871,1185 L470.0527,1185 L470.0527,1191 L460.0527,1201 L403.2871,1201 L403.2871,1193 A8,8 0 0 1 411.2871,1185" fill="#F8FAFC" style="stroke:#CBD5E1;stroke-width:1.5;"/><rect fill="none" height="44" rx="8" ry="8" style="stroke:#CBD5E1;stroke-width:1.5;" width="469.1304" x="403.2871" y="1185"/><text fill="#000000" font-family="Helvetica" font-size="14" font-weight="bold" lengthAdjust="spacing" textLength="21.7656" x="418.2871" y="1196.7803">opt</text><text fill="#000000" font-family="Helvetica" font-size="14" font-weight="bold" lengthAdjust="spacing" textLength="276.1309" x="485.0527" y="1197.7803">[force-new or conflicting drift is detected]</text><g class="message" data-entity-1="part4" data-entity-2="part3" id="msg16"><polygon fill="#0F172A" points="480.311,1217,470.311,1221,480.311,1225,476.311,1221" style="stroke:#0F172A;stroke-width:1;"/><line style="stroke:#0F172A;stroke-width:1;stroke-dasharray:2,2;" x1="474.311" x2="783.2212" y1="1221" y2="1221"/><text fill="#000000" font-family="Helvetica" font-size="14" lengthAdjust="spacing" textLength="164.1855" x="486.311" y="1215.7803">reject before OCI mutation</text></g><path d="M694.0249,1243 L752.7905,1243 L752.7905,1249 L742.7905,1259 L686.0249,1259 L686.0249,1251 A8,8 0 0 1 694.0249,1243" fill="#F8FAFC" style="stroke:#CBD5E1;stroke-width:1.5;"/><rect fill="none" height="144" rx="8" ry="8" style="stroke:#CBD5E1;stroke-width:1.5;" width="475.9575" x="686.0249" y="1243"/><text fill="#000000" font-family="Helvetica" font-size="14" font-weight="bold" lengthAdjust="spacing" textLength="21.7656" x="701.0249" y="1254.7803">opt</text><text fill="#000000" font-family="Helvetica" font-size="14" font-weight="bold" lengthAdjust="spacing" textLength="243.4619" x="767.7905" y="1255.7803">[supported mutable drift is detected]</text><g class="message" data-entity-1="part4" data-entity-2="part5" id="msg17"><polygon fill="#0F172A" points="1110.5376,1317,1120.5376,1321,1110.5376,1325,1114.5376,1321" style="stroke:#0F172A;stroke-width:1;"/><line style="stroke:#0F172A;stroke-width:1;" x1="784.2212" x2="1116.5376" y1="1321" y2="1321"/><text fill="#000000" font-family="Helvetica" font-size="14" lengthAdjust="spacing" textLength="231.9229" x="791.2212" y="1273.7803">Apply UpdateSubnet only for mutable</text><text fill="#000000" font-family="Helvetica" font-size="14" lengthAdjust="spacing" textLength="191.4473" x="791.2212" y="1287.7803">fields cidr_block, defined_tags,</text><text fill="#000000" font-family="Helvetica" font-size="14" lengthAdjust="spacing" textLength="220.6504" x="791.2212" y="1301.7803">dhcp_options_id, display_name (+5</text><text fill="#000000" font-family="Helvetica" font-size="14" lengthAdjust="spacing" textLength="36.5586" x="791.2212" y="1315.7803">more)</text></g><path d="M704.0249,1336 L770.5698,1336 L770.5698,1342 L760.5698,1352 L696.0249,1352 L696.0249,1344 A8,8 0 0 1 704.0249,1336" fill="#F8FAFC" style="stroke:#CBD5E1;stroke-width:1.5;"/><rect fill="none" height="44" rx="8" ry="8" style="stroke:#CBD5E1;stroke-width:1.5;" width="455.9575" x="696.0249" y="1336"/><text fill="#000000" font-family="Helvetica" font-size="14" font-weight="bold" lengthAdjust="spacing" textLength="29.5449" x="711.0249" y="1347.7803">loop</text><text fill="#000000" font-family="Helvetica" font-size="14" font-weight="bold" lengthAdjust="spacing" textLength="190.5381" x="785.5698" y="1348.7803">[update pending UPDATING]</text><g class="message" data-entity-1="part4" data-entity-2="part5" id="msg18"><polygon fill="#0F172A" points="1110.5376,1368,1120.5376,1372,1110.5376,1376,1114.5376,1372" style="stroke:#0F172A;stroke-width:1;"/><line style="stroke:#0F172A;stroke-width:1;" x1="784.2212" x2="1116.5376" y1="1372" y2="1372"/><text fill="#000000" font-family="Helvetica" font-size="14" lengthAdjust="spacing" textLength="66.9375" x="791.2212" y="1366.7803">GetSubnet</text></g><g class="message" data-entity-1="part4" data-entity-2="part5" id="msg19"><polygon fill="#0F172A" points="1110.5376,1480,1120.5376,1484,1110.5376,1488,1114.5376,1484" style="stroke:#0F172A;stroke-width:1;"/><line style="stroke:#0F172A;stroke-width:1;" x1="784.2212" x2="1116.5376" y1="1484" y2="1484"/><text fill="#000000" font-family="Helvetica" font-size="14" lengthAdjust="spacing" textLength="104.2891" x="791.2212" y="1408.7803">run helper hooks</text><text fill="#000000" font-family="Helvetica" font-size="14" lengthAdjust="spacing" textLength="219.0508" x="791.2212" y="1422.7803">create=tfresource.CreateResource,</text><text fill="#000000" font-family="Helvetica" font-size="14" lengthAdjust="spacing" textLength="314.3164" x="791.2212" y="1436.7803">tfresource.WaitForWorkRequestWithErrorHandling</text><text fill="#000000" font-family="Helvetica" font-size="14" lengthAdjust="spacing" textLength="215.5439" x="791.2212" y="1450.7803">entity=template action=CREATED;</text><text fill="#000000" font-family="Helvetica" font-size="14" lengthAdjust="spacing" textLength="226.085" x="791.2212" y="1464.7803">update=tfresource.UpdateResource;</text><text fill="#000000" font-family="Helvetica" font-size="14" lengthAdjust="spacing" textLength="212.8438" x="791.2212" y="1478.7803">delete=tfresource.DeleteResource</text></g><g class="message" data-entity-1="part4" data-entity-2="part3" id="msg20"><polygon fill="#0F172A" points="480.311,1529,470.311,1533,480.311,1537,476.311,1533" style="stroke:#0F172A;stroke-width:1;"/><line style="stroke:#0F172A;stroke-width:1;stroke-dasharray:2,2;" x1="474.311" x2="783.2212" y1="1533" y2="1533"/><text fill="#000000" font-family="Helvetica" font-size="14" lengthAdjust="spacing" textLength="100.7822" x="486.311" y="1513.7803">status=required,</text><text fill="#000000" font-family="Helvetica" font-size="14" lengthAdjust="spacing" textLength="230.7197" x="486.311" y="1527.7803">finalizer=retain-until-confirmed-delete</text></g><g class="message" data-entity-1="part3" data-entity-2="part2" id="msg21"><polygon fill="#0F172A" points="241.4849,1578,231.4849,1582,241.4849,1586,237.4849,1582" style="stroke:#0F172A;stroke-width:1;"/><line style="stroke:#0F172A;stroke-width:1;stroke-dasharray:2,2;" x1="235.4849" x2="468.311" y1="1582" y2="1582"/><text fill="#000000" font-family="Helvetica" font-size="14" lengthAdjust="spacing" textLength="214.8262" x="247.4849" y="1562.7803">requeue on provisioning, updating,</text><text fill="#000000" font-family="Helvetica" font-size="14" lengthAdjust="spacing" textLength="69.2549" x="247.4849" y="1576.7803">terminating</text></g><path d="M789,1603 L789,2157 A8,8 0 0 0 797,2165 L1119,2165 A8,8 0 0 0 1127,2157 L1127,1605 L1117,1595 L797,1595 A8,8 0 0 0 789,1603" fill="#FFF7D6" style="stroke:#B45309;stroke-width:0.5;"/><path d="M1117,1595 L1117,1601 A4,4 0 0 0 1121,1605 L1127,1605 L1117,1595" fill="#FFF7D6" style="stroke:#B45309;stroke-width:0.5;"/><text fill="#334155" font-family="Helvetica" font-size="14" lengthAdjust="spacing" textLength="101.165" x="795" y="1610.7803">shared diagram:</text><text fill="#334155" font-family="Helvetica" font-size="14" lengthAdjust="spacing" textLength="307.3916" x="795" y="1624.7803">shared/diagrams/shared-resolution-sequence.svg</text><text fill="#334155" font-family="Helvetica" font-size="14" lengthAdjust="spacing" textLength="143.1992" x="795" y="1638.7803">shared delete diagram:</text><text fill="#334155" font-family="Helvetica" font-size="14" lengthAdjust="spacing" textLength="284.833" x="795" y="1652.7803">shared/diagrams/shared-delete-sequence.svg</text><text fill="#334155" font-family="Helvetica" font-size="14" lengthAdjust="spacing" textLength="280.9297" x="795" y="1666.7803">Start from the shared resolution sequence for</text><text fill="#334155" font-family="Helvetica" font-size="14" lengthAdjust="spacing" textLength="260.7295" x="795" y="1680.7803">OCID binding, datasource pagination, and</text><text fill="#334155" font-family="Helvetica" font-size="14" lengthAdjust="spacing" textLength="163.4268" x="795" y="1694.7803">create-or-update dispatch.</text><text fill="#334155" font-family="Helvetica" font-size="14" lengthAdjust="spacing" textLength="301.1982" x="795" y="1708.7803">Layer the shared delete sequence when finalizer</text><text fill="#334155" font-family="Helvetica" font-size="14" lengthAdjust="spacing" textLength="269.2471" x="795" y="1722.7803">retention, delete confirmation, work-request</text><text fill="#334155" font-family="Helvetica" font-size="14" lengthAdjust="spacing" textLength="199.2334" x="795" y="1736.7803">polling, or Secret cleanup apply.</text><text fill="#334155" font-family="Helvetica" font-size="14" lengthAdjust="spacing" textLength="281.709" x="795" y="1750.7803">archetype batch: Generated service-manager</text><text fill="#334155" font-family="Helvetica" font-size="14" lengthAdjust="spacing" textLength="266.1504" x="795" y="1764.7803">controllers follow the shared resolution and</text><text fill="#334155" font-family="Helvetica" font-size="14" lengthAdjust="spacing" textLength="259.9297" x="795" y="1778.7803">delete sequences with imported waits and</text><text fill="#334155" font-family="Helvetica" font-size="14" lengthAdjust="spacing" textLength="134.6064" x="795" y="1792.7803">controller-local policy.</text><text fill="#334155" font-family="Helvetica" font-size="14" lengthAdjust="spacing" textLength="79.3584" x="795" y="1806.7803">service: core</text><text fill="#334155" font-family="Helvetica" font-size="14" lengthAdjust="spacing" textLength="75.4961" x="795" y="1820.7803">slug: subnet</text><text fill="#334155" font-family="Helvetica" font-size="14" lengthAdjust="spacing" textLength="77.834" x="795" y="1834.7803">kind: Subnet</text><text fill="#334155" font-family="Helvetica" font-size="14" lengthAdjust="spacing" textLength="241.2402" x="795" y="1848.7803">archetype: generated-service-manager</text><text fill="#334155" font-family="Helvetica" font-size="14" lengthAdjust="spacing" textLength="156.4063" x="795" y="1862.7803">status/finalizer: required /</text><text fill="#334155" font-family="Helvetica" font-size="14" lengthAdjust="spacing" textLength="174.3027" x="795" y="1876.7803">retain-until-confirmed-delete</text><text fill="#334155" font-family="Helvetica" font-size="14" lengthAdjust="spacing" textLength="272.3984" x="795" y="1890.7803">requeue: provisioning, updating, terminating</text><text fill="#334155" font-family="Helvetica" font-size="14" lengthAdjust="spacing" textLength="295.6816" x="795" y="1904.7803">provider states: create PROVISIONING; update</text><text fill="#334155" font-family="Helvetica" font-size="14" lengthAdjust="spacing" textLength="317.3721" x="795" y="1918.7803">UPDATING; delete TERMINATING, TERMINATED</text><text fill="#334155" font-family="Helvetica" font-size="14" lengthAdjust="spacing" textLength="252.1504" x="795" y="1932.7803">supported drift: cidr_block, defined_tags,</text><text fill="#334155" font-family="Helvetica" font-size="14" lengthAdjust="spacing" textLength="261.0986" x="795" y="1946.7803">dhcp_options_id, display_name (+5 more)</text><text fill="#334155" font-family="Helvetica" font-size="14" lengthAdjust="spacing" textLength="230.3301" x="795" y="1960.7803">reject before mutate: force-new fields</text><text fill="#334155" font-family="Helvetica" font-size="14" lengthAdjust="spacing" textLength="298.0537" x="795" y="1974.7803">availability_domain, compartment_id, dns_label,</text><text fill="#334155" font-family="Helvetica" font-size="14" lengthAdjust="spacing" textLength="218.2783" x="795" y="1988.7803">prohibit_internet_ingress (+2 more)</text><text fill="#334155" font-family="Helvetica" font-size="14" lengthAdjust="spacing" textLength="144.751" x="795" y="2002.7803">create-only fields: none</text><text fill="#334155" font-family="Helvetica" font-size="14" lengthAdjust="spacing" textLength="217.1094" x="795" y="2016.7803">list lookup: oci_core_subnets filters</text><text fill="#334155" font-family="Helvetica" font-size="14" lengthAdjust="spacing" textLength="285.9814" x="795" y="2030.7803">compartment_id, display_name, id, vcn_id (+1</text><text fill="#334155" font-family="Helvetica" font-size="14" lengthAdjust="spacing" textLength="36.5586" x="795" y="2044.7803">more)</text><text fill="#334155" font-family="Helvetica" font-size="14" lengthAdjust="spacing" textLength="89.4961" x="795" y="2058.7803">conflicts: none</text><text fill="#334155" font-family="Helvetica" font-size="14" lengthAdjust="spacing" textLength="104.3164" x="795" y="2072.7803">open gaps: none</text><text fill="#334155" font-family="Helvetica" font-size="14" lengthAdjust="spacing" textLength="240.4473" x="795" y="2086.7803">Ready state maps to OCI AVAILABLE.</text><text fill="#334155" font-family="Helvetica" font-size="14" lengthAdjust="spacing" textLength="232.6816" x="795" y="2100.7803">Requeue continues while OCI reports</text><text fill="#334155" font-family="Helvetica" font-size="14" lengthAdjust="spacing" textLength="307.248" x="795" y="2114.7803">PROVISIONING, UPDATING, or TERMINATING.</text><text fill="#334155" font-family="Helvetica" font-size="14" lengthAdjust="spacing" textLength="287.9297" x="795" y="2128.7803">Delete completes only after GetSubnet returns</text><text fill="#334155" font-family="Helvetica" font-size="14" lengthAdjust="spacing" textLength="312.8193" x="795" y="2142.7803">not found; TERMINATED is an accepted observed</text><text fill="#334155" font-family="Helvetica" font-size="14" lengthAdjust="spacing" textLength="101.1719" x="795" y="2156.7803">pre-delete state.</text><?plantuml-src hLTRRzis57xdho2sbnQpawPDUd6G0McIjK7JfB1xUJ5Wq19bSw59ZQJiPiF--pvU94jEt7ZOa8TOvD6vVkSxH_PMg98Pjg1spdAz4cf62oOj9xQvcRBiTcPqfV8pBRMXFnSP_lAMHCuBLadtcrRkcYquVS_baZkHiOTbHk9FJWyEMvVC6BrAsfyL1w-UjzzKsl6tztmeYbVvoqqfRN9kaiJqyEZ5ipSR4jvykd_nul3WwAXr7zHdsYXkwC5BueIJd8xu7nLN6QTzYYk-FwgcYZio5pcdXTPkgh-tLDXQ-Yz2ASkSDXsNKcZrrMPC_3b_NJp3DPGXUw9aoZtyVbjW5osji1iTKXJyIgXkqjuSiXVJrxZrAilELJRDZ_X1StMl8AyBLcJaRn9Yen-gAKSc7RUavGSzWoD6IybDv_Wjitp8CwqoiNdrqyteviE8cwN8-4Ucs8oRdoYpj7lKUUNcx9BuObEzH2cxkdiRxm7sXkVKSAjbvOHMWtIqdmisGqtjVdpkhqNwTPdtx79MQyYvHBHRtuxNtJUvoWCeoJfPjFzhAqS3oXNaAy0mm0vkfZZ8MiY_qernG9lVJumtQDrJqXNnBtKpCLWhHonM-9WIs4F1wPNMj_Z7uFHKg9mmwQWpW044KN3-lPGeGCW-HNSezCyTPT9mbj_XLbXdITUaTmBI0_gEksIAWteQhOqMOUb2M0josgRX2kgZ2lka4D9nOmTes8M7nG9Q9YBlZLKkR2dPtKI1f7fGtwFBJE6AFldbW2xGta-VXh0ChooR8X4-5b_tog2duGMgXQu7wBVvSOPm7K_1IArBceKJMgBOdbm_3M--NeukRwulhz_ja0vO2YbvsAD_dTq777y0FIMo1uMnAPOeHAUaGb7hcAjiKEVJ5R5D4zHudW1p7ewtUHLlasDRPE1I8SoYDh0KR1qCC3TMhRB7R2V9EjkVBuOVBwzFFoFPA7_zT77-QAeyejlAwr0poPb2RBWkX68IaymWS9pQ092fr1wwksJPSCUGo-InJoaFpOLpSnUhdkuyZl43p4Frr4BphWQYMsj7MO76kAyrmgo6cYzsz0Rn16Syy7Op6CbgDHSDKXU8qG8pOzL6Vez--NGUoxAzHi4RAPPrShnwq995G5pcVRO2iQAdZIWSvKicAnQ2IU0BntCaL7hQM8-3RXmzFoj6LLbg0-3Igioz9LkPWcKS01IvcOIQzWWM64pBVEBOpFPeFi_AYIwzHUl9XRIv1Nno5Fc43FdlF7DqoWiyqaNb8nc0Gz2-VSLNCHPBs989oQP2eiCckVPPwsto5ybX2a9SzcXfz5nC1SwL2wC3FsR8ZONfvoIQJeIzZGx9usoudb28jEKqqEzR4tplV9V54W0jEN2LkLtHsKwC1qj8JWr7Rz0sTV5NdlqUjvGQ-RGivHtz4ifPTxJ22OpLoiOgvhvTPDefCi2rKMMwMUMnYeaAv9FGKvDF3V4TQNxxK36LedCkGSjqZfhQiOf3vSGLzIZOYuDdc1xXUklk6nFO0CqtRMw7aQE_2JU_mCvjtgS66Ql8xYUEWnK25MK-wfEpuOLlnkEnYj6rRSRqrZOX4fcbBH9PlXRPTG35-NAI6jvFxeR3JY9jzYkuA_jfG3JxLJ2mkUbih5GrIu5DqKLBOH4cCj2BvVE_nhwd5h3e6kemOZO7X0hwyFgOjht_jZi-gkMX7NBaqDAqC7f1tPpJU-li-fC4q2U0qtdOtaB029UbJQ9ain2l1kq04YG2hAzDFu7Q0v-vRBv7hjWTijeoLa-msj1gpjLww10Kp6FBQsucJwXQChS2BFjfTo0bYXHyqvwfuSLwv3BVqdk4cMpEtLt9yLqAVtmRuOEDUPQmiJRzHIfErbGTCmF_zMfBZdp46r5OkaAFKB583BH23zcOcaPh7vp198NF8eDdoVmWV2WIAwiPa1mR71-8-Q1Ufvi81dHM-zxVz3ssm7wJna4z_dAwJtxS0mdWWstmfcrq1nbyvCKPwwT4t5VRq_euCHkf6UsuhcHxTjFMw5upTs3imNQE9OzIR1f5vlyRf7GzICaF1saoNJT36231p01JKN4Y_POimvWTK9s9YQ_y9DRSreENtBF-WxcRHdSzNMj36ZE5pbXPFm_3sX_NeWMEgTDXX9v-FRsyEdrxTR57XedcF5o5gZoWMskPhuubsrOoD5-hidlalBCnGbL8HTmcroipK5aPPKdpaNJSWeGVsWoTbcMyzBXe5jdIy7vx1zvhbev_0000?></g></svg>