<?plantuml 1.2026.1?><svg xmlns="http://www.w3.org/2000/svg" xmlns:xlink="http://www.w3.org/1999/xlink" contentStyleType="text/css" data-diagram-type="ACTIVITY" height="1413px" preserveAspectRatio="none" style="width:725px;height:1413px;background:#FCFCFD;" version="1.1" viewBox="0 0 725 1413" width="725px" zoomAndPan="magnify"><title>Activity - databasemanagement/DatabaseManagementExternalDbSystem</title><defs/><g><rect fill="#FCFCFD" height="1413" style="stroke:none;stroke-width:1;" width="725" x="0" y="0"/><g class="title" data-source-line="10"><text fill="#000000" font-family="Helvetica" font-size="14" font-weight="bold" lengthAdjust="spacing" textLength="485.502" x="118.7399" y="30.7803">Activity - databasemanagement/DatabaseManagementExternalDbSystem</text></g><ellipse cx="342.9417" cy="55" fill="#1D4ED8" rx="10" ry="10" style="stroke:#222222;stroke-width:1;"/><rect fill="#F8FAFC" height="48" rx="8" ry="8" style="stroke:#0F172A;stroke-width:0.5;" width="304.7852" x="190.5491" y="85"/><text fill="#0F172A" font-family="Helvetica" font-size="14" lengthAdjust="spacing" textLength="136.9375" x="200.5491" y="105.7803">Start from shared flow</text><text fill="#0F172A" font-family="Helvetica" font-size="14" lengthAdjust="spacing" textLength="284.7852" x="200.5491" y="119.7803">shared/diagrams/shared-reconcile-activity.svg</text><rect fill="#F8FAFC" height="62" rx="8" ry="8" style="stroke:#0F172A;stroke-width:0.5;" width="338.2881" x="173.7976" y="153"/><text fill="#0F172A" font-family="Helvetica" font-size="14" lengthAdjust="spacing" textLength="80.9512" x="183.7976" y="173.7803">Load desired</text><text fill="#0F172A" font-family="Helvetica" font-size="14" lengthAdjust="spacing" textLength="318.2881" x="183.7976" y="187.7803">DatabaseManagementExternalDbSystem spec and</text><text fill="#0F172A" font-family="Helvetica" font-size="14" lengthAdjust="spacing" textLength="144.7373" x="183.7976" y="201.7803">status from Kubernetes</text><rect fill="#F8FAFC" height="76" rx="8" ry="8" style="stroke:#0F172A;stroke-width:0.5;" width="328.9297" x="178.4768" y="235"/><text fill="#0F172A" font-family="Helvetica" font-size="14" lengthAdjust="spacing" textLength="135.3857" x="188.4768" y="255.7803">Resolve OCI state via</text><text fill="#0F172A" font-family="Helvetica" font-size="14" lengthAdjust="spacing" textLength="308.9297" x="188.4768" y="269.7803">GetDatabaseManagementExternalDbSystem with</text><text fill="#0F172A" font-family="Helvetica" font-size="14" lengthAdjust="spacing" textLength="279.3643" x="188.4768" y="283.7803">ListDatabaseManagementExternalDbSystem</text><text fill="#0F172A" font-family="Helvetica" font-size="14" lengthAdjust="spacing" textLength="47.4688" x="188.4768" y="297.7803">fallback</text><rect fill="#F8FAFC" height="76" rx="8" ry="8" style="stroke:#0F172A;stroke-width:0.5;" width="472.1836" x="106.8499" y="331"/><text fill="#0F172A" font-family="Helvetica" font-size="14" lengthAdjust="spacing" textLength="24.8965" x="116.8499" y="351.7803">Use</text><text fill="#0F172A" font-family="Helvetica" font-size="14" lengthAdjust="spacing" textLength="452.1836" x="116.8499" y="365.7803">scaffold_databasemanagement_databasemanagementexternaldbsystem</text><text fill="#0F172A" font-family="Helvetica" font-size="14" lengthAdjust="spacing" textLength="297.2402" x="116.8499" y="379.7803">filters compartment_id, state when OCID lookup</text><text fill="#0F172A" font-family="Helvetica" font-size="14" lengthAdjust="spacing" textLength="259.9023" x="116.8499" y="393.7803">or bind-versus-create needs list resolution</text><polygon fill="#E2E8F0" points="289.2522,427,396.6311,427,408.6311,439,396.6311,451,289.2522,451,277.2522,439,289.2522,427" style="stroke:#1D4ED8;stroke-width:0.5;"/><text fill="#0F172A" font-family="Helvetica" font-size="14" lengthAdjust="spacing" textLength="107.3789" x="289.2522" y="442.7803">Resource exists?</text><text fill="#000000" font-family="Helvetica" font-size="14" lengthAdjust="spacing" textLength="21.7861" x="255.4661" y="435.7803">yes</text><text fill="#000000" font-family="Helvetica" font-size="14" lengthAdjust="spacing" textLength="15.5723" x="408.6311" y="435.7803">no</text><rect fill="#F8FAFC" height="48" rx="8" ry="8" style="stroke:#0F172A;stroke-width:0.5;" width="322.7227" x="11" y="461"/><text fill="#0F172A" font-family="Helvetica" font-size="14" lengthAdjust="spacing" textLength="108.1787" x="21" y="481.7803">Update path calls</text><text fill="#0F172A" font-family="Helvetica" font-size="14" lengthAdjust="spacing" textLength="302.7227" x="21" y="495.7803">UpdateDatabaseManagementExternalDbSystem</text><rect fill="#F8FAFC" height="48" rx="8" ry="8" style="stroke:#0F172A;stroke-width:0.5;" width="266.7021" x="39.0103" y="529"/><text fill="#0F172A" font-family="Helvetica" font-size="14" lengthAdjust="spacing" textLength="246.7021" x="49.0103" y="549.7803">Guard mutable fields display_name and</text><text fill="#0F172A" font-family="Helvetica" font-size="14" lengthAdjust="spacing" textLength="202.3096" x="49.0103" y="563.7803">force-new fields compartment_id</text><rect fill="#F8FAFC" height="48" rx="8" ry="8" style="stroke:#0F172A;stroke-width:0.5;" width="319.5986" x="353.7227" y="461"/><text fill="#0F172A" font-family="Helvetica" font-size="14" lengthAdjust="spacing" textLength="105.0547" x="363.7227" y="481.7803">Create path calls</text><text fill="#0F172A" font-family="Helvetica" font-size="14" lengthAdjust="spacing" textLength="299.5986" x="363.7227" y="495.7803">CreateDatabaseManagementExternalDbSystem</text><polygon fill="#E2E8F0" points="342.9417,583,354.9417,595,342.9417,607,330.9417,595,342.9417,583" style="stroke:#1D4ED8;stroke-width:0.5;"/><rect fill="#F8FAFC" height="104" rx="8" ry="8" style="stroke:#0F172A;stroke-width:0.5;" width="334.3164" x="175.7834" y="627"/><text fill="#0F172A" font-family="Helvetica" font-size="14" lengthAdjust="spacing" textLength="164.2061" x="185.7834" y="647.7803">Run provider helper hooks</text><text fill="#0F172A" font-family="Helvetica" font-size="14" lengthAdjust="spacing" textLength="219.0508" x="185.7834" y="661.7803">create=tfresource.CreateResource,</text><text fill="#0F172A" font-family="Helvetica" font-size="14" lengthAdjust="spacing" textLength="314.3164" x="185.7834" y="675.7803">tfresource.WaitForWorkRequestWithErrorHandling</text><text fill="#0F172A" font-family="Helvetica" font-size="14" lengthAdjust="spacing" textLength="215.5439" x="185.7834" y="689.7803">entity=template action=CREATED;</text><text fill="#0F172A" font-family="Helvetica" font-size="14" lengthAdjust="spacing" textLength="226.085" x="185.7834" y="703.7803">update=tfresource.UpdateResource;</text><text fill="#0F172A" font-family="Helvetica" font-size="14" lengthAdjust="spacing" textLength="212.8438" x="185.7834" y="717.7803">delete=tfresource.DeleteResource</text><rect fill="#F8FAFC" height="34" rx="8" ry="8" style="stroke:#0F172A;stroke-width:0.5;" width="263.5918" x="211.1458" y="751"/><text fill="#0F172A" font-family="Helvetica" font-size="14" lengthAdjust="spacing" textLength="243.5918" x="221.1458" y="771.7803">Apply repo-authored secret policy none</text><rect fill="#F8FAFC" height="104" rx="8" ry="8" style="stroke:#0F172A;stroke-width:0.5;" width="346.833" x="169.5251" y="805"/><text fill="#0F172A" font-family="Helvetica" font-size="14" lengthAdjust="spacing" textLength="105.0684" x="179.5251" y="825.7803">Delete path uses</text><text fill="#0F172A" font-family="Helvetica" font-size="14" lengthAdjust="spacing" textLength="326.833" x="179.5251" y="839.7803">DeleteDatabaseManagementExternalDbSystem with</text><text fill="#0F172A" font-family="Helvetica" font-size="14" lengthAdjust="spacing" textLength="73.1514" x="179.5251" y="853.7803">required via</text><text fill="#0F172A" font-family="Helvetica" font-size="14" lengthAdjust="spacing" textLength="296.4814" x="179.5251" y="867.7803">GetDatabaseManagementExternalDbSystem or</text><text fill="#0F172A" font-family="Helvetica" font-size="14" lengthAdjust="spacing" textLength="294.9297" x="179.5251" y="881.7803">ListDatabaseManagementExternalDbSystem to</text><text fill="#0F172A" font-family="Helvetica" font-size="14" lengthAdjust="spacing" textLength="144.7168" x="179.5251" y="895.7803">DELETED confirmation</text><rect fill="#F8FAFC" height="48" rx="8" ry="8" style="stroke:#0F172A;stroke-width:0.5;" width="279.1299" x="203.3767" y="929"/><text fill="#0F172A" font-family="Helvetica" font-size="14" lengthAdjust="spacing" textLength="259.1299" x="213.3767" y="949.7803">Project required status and finalizer policy</text><text fill="#0F172A" font-family="Helvetica" font-size="14" lengthAdjust="spacing" textLength="174.3027" x="213.3767" y="963.7803">retain-until-confirmed-delete</text><rect fill="#F8FAFC" height="34" rx="8" ry="8" style="stroke:#0F172A;stroke-width:0.5;" width="313.4189" x="186.2322" y="997"/><text fill="#0F172A" font-family="Helvetica" font-size="14" lengthAdjust="spacing" textLength="293.4189" x="196.2322" y="1017.7803">Requeue on provisioning, updating, terminating</text><path d="M373.9417,1041 L373.9417,1217 L353.9417,1221 L373.9417,1225 L373.9417,1401 A0,0 0 0 0 373.9417,1401 L713.9817,1401 A0,0 0 0 0 713.9817,1401 L713.9817,1051 L703.9817,1041 L373.9417,1041 A0,0 0 0 0 373.9417,1041" fill="#FFF7D6" style="stroke:#B45309;stroke-width:0.5;"/><path d="M703.9817,1041 L703.9817,1051 L713.9817,1051 L703.9817,1041" fill="#FFF7D6" style="stroke:#B45309;stroke-width:0.5;"/><text fill="#334155" font-family="Helvetica" font-size="14" lengthAdjust="spacing" textLength="101.165" x="379.9417" y="1056.7803">shared diagram:</text><text fill="#334155" font-family="Helvetica" font-size="14" lengthAdjust="spacing" textLength="284.7852" x="379.9417" y="1070.7803">shared/diagrams/shared-reconcile-activity.svg</text><text fill="#334155" font-family="Helvetica" font-size="14" lengthAdjust="spacing" textLength="265.3438" x="379.9417" y="1084.7803">Start from the shared reconcile activity and</text><text fill="#334155" font-family="Helvetica" font-size="14" lengthAdjust="spacing" textLength="273.8955" x="379.9417" y="1098.7803">specialize provider-backed CRUD, wait, and</text><text fill="#334155" font-family="Helvetica" font-size="14" lengthAdjust="spacing" textLength="182.875" x="379.9417" y="1112.7803">status-projection details here.</text><text fill="#334155" font-family="Helvetica" font-size="14" lengthAdjust="spacing" textLength="229.5371" x="379.9417" y="1126.7803">Controller-local activity diagrams add</text><text fill="#334155" font-family="Helvetica" font-size="14" lengthAdjust="spacing" textLength="238.8955" x="379.9417" y="1140.7803">list-lookup hints, secret policies, delete</text><text fill="#334155" font-family="Helvetica" font-size="14" lengthAdjust="spacing" textLength="200.0332" x="379.9417" y="1154.7803">handling, and open formal gaps.</text><text fill="#334155" font-family="Helvetica" font-size="14" lengthAdjust="spacing" textLength="281.709" x="379.9417" y="1168.7803">archetype batch: Generated service-manager</text><text fill="#334155" font-family="Helvetica" font-size="14" lengthAdjust="spacing" textLength="291.0469" x="379.9417" y="1182.7803">controllers specialize the shared reconcile path</text><text fill="#334155" font-family="Helvetica" font-size="14" lengthAdjust="spacing" textLength="189.8477" x="379.9417" y="1196.7803">with formal runtime ownership.</text><text fill="#334155" font-family="Helvetica" font-size="14" lengthAdjust="spacing" textLength="191.4473" x="379.9417" y="1210.7803">service: databasemanagement</text><text fill="#334155" font-family="Helvetica" font-size="14" lengthAdjust="spacing" textLength="282.502" x="379.9417" y="1224.7803">slug: databasemanagementexternaldbsystem</text><text fill="#334155" font-family="Helvetica" font-size="14" lengthAdjust="spacing" textLength="291.04" x="379.9417" y="1238.7803">kind: DatabaseManagementExternalDbSystem</text><text fill="#334155" font-family="Helvetica" font-size="14" lengthAdjust="spacing" textLength="241.2402" x="379.9417" y="1252.7803">archetype: generated-service-manager</text><text fill="#334155" font-family="Helvetica" font-size="14" lengthAdjust="spacing" textLength="156.4063" x="379.9417" y="1266.7803">status/finalizer: required /</text><text fill="#334155" font-family="Helvetica" font-size="14" lengthAdjust="spacing" textLength="174.3027" x="379.9417" y="1280.7803">retain-until-confirmed-delete</text><text fill="#334155" font-family="Helvetica" font-size="14" lengthAdjust="spacing" textLength="272.3984" x="379.9417" y="1294.7803">requeue: provisioning, updating, terminating</text><text fill="#334155" font-family="Helvetica" font-size="14" lengthAdjust="spacing" textLength="295.6816" x="379.9417" y="1308.7803">provider states: create PROVISIONING; update</text><text fill="#334155" font-family="Helvetica" font-size="14" lengthAdjust="spacing" textLength="192.165" x="379.9417" y="1322.7803">UPDATING; delete DELETING</text><text fill="#334155" font-family="Helvetica" font-size="14" lengthAdjust="spacing" textLength="319.04" x="379.9417" y="1336.7803">mutable/forceNew: display_name / compartment_id</text><text fill="#334155" font-family="Helvetica" font-size="14" lengthAdjust="spacing" textLength="104.3164" x="379.9417" y="1350.7803">open gaps: none</text><text fill="#334155" font-family="Helvetica" font-size="14" lengthAdjust="spacing" textLength="224.9023" x="379.9417" y="1364.7803">Scaffold metadata only; replace with</text><text fill="#334155" font-family="Helvetica" font-size="14" lengthAdjust="spacing" textLength="244.3232" x="379.9417" y="1378.7803">controller-specific runtime states before</text><text fill="#334155" font-family="Helvetica" font-size="14" lengthAdjust="spacing" textLength="66.1445" x="379.9417" y="1392.7803">promotion.</text><ellipse cx="342.9417" cy="1221" fill="none" rx="11" ry="11" style="stroke:#222222;stroke-width:1;"/><ellipse cx="342.9417" cy="1221" fill="#222222" rx="6" ry="6" style="stroke:#222222;stroke-width:1;"/><line style="stroke:#0F172A;stroke-width:1;" x1="342.9417" x2="342.9417" y1="65" y2="85"/><polygon fill="#0F172A" points="338.9417,75,342.9417,85,346.9417,75,342.9417,79" style="stroke:#0F172A;stroke-width:1;"/><line style="stroke:#0F172A;stroke-width:1;" x1="342.9417" x2="342.9417" y1="133" y2="153"/><polygon fill="#0F172A" points="338.9417,143,342.9417,153,346.9417,143,342.9417,147" style="stroke:#0F172A;stroke-width:1;"/><line style="stroke:#0F172A;stroke-width:1;" x1="342.9417" x2="342.9417" y1="215" y2="235"/><polygon fill="#0F172A" points="338.9417,225,342.9417,235,346.9417,225,342.9417,229" style="stroke:#0F172A;stroke-width:1;"/><line style="stroke:#0F172A;stroke-width:1;" x1="342.9417" x2="342.9417" y1="311" y2="331"/><polygon fill="#0F172A" points="338.9417,321,342.9417,331,346.9417,321,342.9417,325" style="stroke:#0F172A;stroke-width:1;"/><line style="stroke:#0F172A;stroke-width:1;" x1="172.3613" x2="172.3613" y1="509" y2="529"/><polygon fill="#0F172A" points="168.3613,519,172.3613,529,176.3613,519,172.3613,523" style="stroke:#0F172A;stroke-width:1;"/><line style="stroke:#0F172A;stroke-width:1;" x1="277.2522" x2="172.3613" y1="439" y2="439"/><line style="stroke:#0F172A;stroke-width:1;" x1="172.3613" x2="172.3613" y1="439" y2="461"/><polygon fill="#0F172A" points="168.3613,451,172.3613,461,176.3613,451,172.3613,455" style="stroke:#0F172A;stroke-width:1;"/><line style="stroke:#0F172A;stroke-width:1;" x1="408.6311" x2="513.522" y1="439" y2="439"/><line style="stroke:#0F172A;stroke-width:1;" x1="513.522" x2="513.522" y1="439" y2="461"/><polygon fill="#0F172A" points="509.522,451,513.522,461,517.522,451,513.522,455" style="stroke:#0F172A;stroke-width:1;"/><line style="stroke:#0F172A;stroke-width:1;" x1="172.3613" x2="172.3613" y1="577" y2="595"/><line style="stroke:#0F172A;stroke-width:1;" x1="172.3613" x2="330.9417" y1="595" y2="595"/><polygon fill="#0F172A" points="320.9417,591,330.9417,595,320.9417,599,324.9417,595" style="stroke:#0F172A;stroke-width:1;"/><line style="stroke:#0F172A;stroke-width:1;" x1="513.522" x2="513.522" y1="509" y2="595"/><line style="stroke:#0F172A;stroke-width:1;" x1="513.522" x2="354.9417" y1="595" y2="595"/><polygon fill="#0F172A" points="364.9417,591,354.9417,595,364.9417,599,360.9417,595" style="stroke:#0F172A;stroke-width:1;"/><line style="stroke:#0F172A;stroke-width:1;" x1="342.9417" x2="342.9417" y1="407" y2="427"/><polygon fill="#0F172A" points="338.9417,417,342.9417,427,346.9417,417,342.9417,421" style="stroke:#0F172A;stroke-width:1;"/><line style="stroke:#0F172A;stroke-width:1;" x1="342.9417" x2="342.9417" y1="607" y2="627"/><polygon fill="#0F172A" points="338.9417,617,342.9417,627,346.9417,617,342.9417,621" style="stroke:#0F172A;stroke-width:1;"/><line style="stroke:#0F172A;stroke-width:1;" x1="342.9417" x2="342.9417" y1="731" y2="751"/><polygon fill="#0F172A" points="338.9417,741,342.9417,751,346.9417,741,342.9417,745" style="stroke:#0F172A;stroke-width:1;"/><line style="stroke:#0F172A;stroke-width:1;" x1="342.9417" x2="342.9417" y1="785" y2="805"/><polygon fill="#0F172A" points="338.9417,795,342.9417,805,346.9417,795,342.9417,799" style="stroke:#0F172A;stroke-width:1;"/><line style="stroke:#0F172A;stroke-width:1;" x1="342.9417" x2="342.9417" y1="909" y2="929"/><polygon fill="#0F172A" points="338.9417,919,342.9417,929,346.9417,919,342.9417,923" style="stroke:#0F172A;stroke-width:1;"/><line style="stroke:#0F172A;stroke-width:1;" x1="342.9417" x2="342.9417" y1="977" y2="997"/><polygon fill="#0F172A" points="338.9417,987,342.9417,997,346.9417,987,342.9417,991" style="stroke:#0F172A;stroke-width:1;"/><line style="stroke:#0F172A;stroke-width:1;" x1="342.9417" x2="342.9417" y1="1031" y2="1210"/><polygon fill="#0F172A" points="338.9417,1200,342.9417,1210,346.9417,1200,342.9417,1204" style="stroke:#0F172A;stroke-width:1;"/><?plantuml-src bLPHJoCt47xthnYfBvoKJU20ExeHgcYIur0f83ZAIwIJivvDNBpsrlOcbrRzxnslDyiIebvEF8JOu_5yttppEUvPwf9RNe1RS65MKiyXvyeXS-tEZ6VFSsigBKP66Gi_vHdzYKw4m9nNodyosj_m0k4pgYLwcV7TCG_oRuIZayucjzQicko7-T77zzsJsdZyzKqDUVvHVDYECbQWRI9c9wV7XpzlHOJhc_tZuvEZqzFEVfq-CrQZXQCFp4kl42uoBvVIho41mJsVSOS5rtoE1Me_63TBlxTBasyUhUPgF7jOEuz55-GcrJyCTf1wblCy2pjT40qP0FbBuUsQaBmmMhpX1j_ZMNxO2UXcF18dACvUDZ_jIEmyjtux7jlyRToCRsNzbzL7MVeGFY2tfXQMHG6vCgkfZby6TFUSA763-3snc1cTION9XgI-Myw7BBqsN91qdAIegVu-tU1Ap81h2gPAVELY3RzLCmf3ZuvotgCpf4-u7Lq5f1vXAVbKNwBV8_zA-iLKNqktH_1KqoYfq6cwzT4XrPJnF3TAV7shfHrBsEGJCxV99nKjESXCGPhozJafUWsCrG9rG3K6PSnpLKurjMOcjKYMTAXoIMOnn6b4uK0H1h21YyfBeuTCvd0GkAbiXe3VQDlzyWvyI7gmHlUEC9GYd2-vNq16qDnKnwNlSq4CN5RS2YWg2gN1oYKgga98Log-_gg3RzHzomtTdsXSRK9UWnqo97k20ssee544r2qeBkrJ40bQvYI7IaDfpLBIZC02LHa-Y3_A5VawzxbjQEd7x1kMUbFTsNlYakpDFXdxV8z_LUZy4ubbGjPcFnCoHTuwrLG9gVkS2Y3OL7hGkz7de_l9nPV9U3ZLLKrezyv8yUPE2X6ey7N8k5vfGrXwKPPgJTqjJS8hlp1X0XqI7W-bKJ9Ranlg41XFHWOhXmGwhkmz2fQWXkdyaI4oTjyH0c-eeidrXCWX8T00s897kQPtrlo9MT1mKq4pySGrIOUIq3DZ6xYXJi-bJYhYNoLD9dAUo6Nj2jIo2i4qQd1q2NMi1tL3wl-ej8BoXYz3CZfJil2aW9NpXMUDpJNEbh8VSZhMyKiQk8rdji4lRmU1Oy7ZP0sl5MuIN8PEZEuVnprOaH9xCRIc92aZLGI9p9HuK8wKRh7FHkJ-rYX56PIX2NgvQ5CuS25Oy8eacWeifFQkzqfD4caXCiaMZTJh-y6Kv1uqqGMbdlFIzHctsGBzkaHwFNosIE4IwS4bWGU1sgMasOyEQ5dM5kUWWtadGK70B2XoSviDdIPFCIjAxnQoxBCcVxhZ9MTELVDT6ziUpEWv5odiyV2tG5EORo0csn1ZVmQjNDCNDG_O_qgMsIZOT1-vijRWwfV2fT0y1NVtjtzSFLpTtbpTN0xZMMIFT-EBB_L2l0hg0QG5rfZteFRe6robh_rxiENLh6v_w7jQ-mrxQDu_A0XQ89l6JQs7mQWKfrSdDB3JzgJkUYwpjfknV9WXLO01LM62gll1pEiVUFy1?></g></svg>