<?plantuml 1.2026.1?><svg xmlns="http://www.w3.org/2000/svg" xmlns:xlink="http://www.w3.org/1999/xlink" contentStyleType="text/css" data-diagram-type="STATE" height="583px" preserveAspectRatio="none" style="width:3676px;height:583px;background:#FCFCFD;" version="1.1" viewBox="0 0 3676 583" width="3676px" zoomAndPan="magnify"><title>State Machine - identity/UserGroupMembership</title><defs/><g><rect fill="#FCFCFD" height="583" style="stroke:none;stroke-width:1;" width="3676" x="0" y="0"/><g class="title" data-source-line="10"><text fill="#000000" font-family="Helvetica" font-size="14" font-weight="bold" lengthAdjust="spacing" textLength="315.834" x="1673.581" y="20.7803">State Machine - identity/UserGroupMembership</text></g><g><rect fill="#F8FAFC" height="62" rx="8" ry="8" style="stroke:#0F172A;stroke-width:0.5;" width="264.3643" x="275" y="403"/><line style="stroke:#0F172A;stroke-width:0.5;" x1="275" x2="539.3643" y1="427" y2="427"/><text fill="#0F172A" font-family="Helvetica" font-size="14" lengthAdjust="spacing" textLength="52.9102" x="380.7271" y="418.7803">Observe</text><text fill="#0F172A" font-family="Helvetica" font-size="14" lengthAdjust="spacing" textLength="244.3643" x="280" y="442.7803">read spec, tracked status, delete intent,</text><text fill="#0F172A" font-family="Helvetica" font-size="14" lengthAdjust="spacing" textLength="153.2822" x="280" y="456.7803">and current OCI lifecycle</text></g><rect fill="#F8FAFC" height="40" rx="8" ry="8" style="stroke:#0F172A;stroke-width:0.5;" width="104.9512" x="1336.36" y="246"/><text fill="#0F172A" font-family="Helvetica" font-size="14" lengthAdjust="spacing" textLength="94.9512" x="1341.36" y="269.7803">EvaluateReady</text><rect fill="#F8FAFC" height="40" rx="8" ry="8" style="stroke:#0F172A;stroke-width:0.5;" width="50.4688" x="2095.32" y="246"/><text fill="#0F172A" font-family="Helvetica" font-size="14" lengthAdjust="spacing" textLength="40.4688" x="2100.32" y="269.7803">Ready</text><rect fill="#F8FAFC" height="40" rx="8" ry="8" style="stroke:#0F172A;stroke-width:0.5;" width="69.917" x="1353.88" y="381"/><text fill="#0F172A" font-family="Helvetica" font-size="14" lengthAdjust="spacing" textLength="59.917" x="1358.88" y="404.7803">Retryable</text><rect fill="#F8FAFC" height="40" rx="8" ry="8" style="stroke:#0F172A;stroke-width:0.5;" width="50" x="1363.84" y="500"/><text fill="#0F172A" font-family="Helvetica" font-size="14" lengthAdjust="spacing" textLength="38.1309" x="1369.7746" y="523.7803">Failed</text><rect fill="#F8FAFC" height="40" rx="8" ry="8" style="stroke:#0F172A;stroke-width:0.5;" width="122.8477" x="817.44" y="357"/><text fill="#0F172A" font-family="Helvetica" font-size="14" lengthAdjust="spacing" textLength="112.8477" x="822.44" y="380.7803">ResolveByLookup</text><rect fill="#F8FAFC" height="40" rx="8" ry="8" style="stroke:#0F172A;stroke-width:0.5;" width="155.5098" x="1670.56" y="336"/><text fill="#0F172A" font-family="Helvetica" font-size="14" lengthAdjust="spacing" textLength="145.5098" x="1675.56" y="359.7803">RejectUnsupportedDrift</text><rect fill="#F8FAFC" height="40" rx="8" ry="8" style="stroke:#0F172A;stroke-width:0.5;" width="90.165" x="1703.23" y="175"/><text fill="#0F172A" font-family="Helvetica" font-size="14" lengthAdjust="spacing" textLength="80.165" x="1708.23" y="198.7803">ApplyUpdate</text><rect fill="#F8FAFC" height="40" rx="8" ry="8" style="stroke:#0F172A;stroke-width:0.5;" width="101.8477" x="2437.1" y="492"/><text fill="#0F172A" font-family="Helvetica" font-size="14" lengthAdjust="spacing" textLength="91.8477" x="2442.1" y="515.7803">DeletePending</text><rect fill="#F8FAFC" height="40" rx="8" ry="8" style="stroke:#0F172A;stroke-width:0.5;" width="58.2549" x="3588.29" y="433"/><text fill="#0F172A" font-family="Helvetica" font-size="14" lengthAdjust="spacing" textLength="48.2549" x="3593.29" y="456.7803">Deleted</text><rect fill="#F8FAFC" height="40" rx="8" ry="8" style="stroke:#0F172A;stroke-width:0.5;" width="152.4268" x="3075.56" y="433"/><text fill="#0F172A" font-family="Helvetica" font-size="14" lengthAdjust="spacing" textLength="142.4268" x="3080.56" y="456.7803">DeleteCleanupBlocked</text><ellipse cx="16" cy="434" fill="#222222" rx="10" ry="10" style="stroke:#222222;stroke-width:1;"/><g class="entity" data-qualified-name="GMN2" data-source-line="55" id="ent0003"><path d="M2311.78,49 L2311.78,253.16 L2146.1,264.86 L2311.78,261.16 L2311.78,449 A8,8 0 0 0 2319.78,457 L2656.2614,457 A8,8 0 0 0 2664.2614,449 L2664.2614,51 L2654.2614,41 L2319.78,41 A8,8 0 0 0 2311.78,49" fill="#FFF7D6" style="stroke:#B45309;stroke-width:0.5;"/><path d="M2654.2614,41 L2654.2614,47 A4,4 0 0 0 2658.2614,51 L2664.2614,51 L2654.2614,41" fill="#FFF7D6" style="stroke:#B45309;stroke-width:0.5;"/><text fill="#334155" font-family="Helvetica" font-size="14" lengthAdjust="spacing" textLength="101.165" x="2317.78" y="56.7803">shared diagram:</text><text fill="#334155" font-family="Helvetica" font-size="14" lengthAdjust="spacing" textLength="331.4814" x="2317.78" y="70.7803">shared/diagrams/shared-controller-state-machine.svg</text><text fill="#334155" font-family="Helvetica" font-size="14" lengthAdjust="spacing" textLength="304.2744" x="2317.78" y="84.7803">Start from the shared controller phase model and</text><text fill="#334155" font-family="Helvetica" font-size="14" lengthAdjust="spacing" textLength="261.4678" x="2317.78" y="98.7803">specialize imported provider states, delete</text><text fill="#334155" font-family="Helvetica" font-size="14" lengthAdjust="spacing" textLength="184.4336" x="2317.78" y="112.7803">targets, and failure exits here.</text><text fill="#334155" font-family="Helvetica" font-size="14" lengthAdjust="spacing" textLength="281.709" x="2317.78" y="126.7803">archetype batch: Generated service-manager</text><text fill="#334155" font-family="Helvetica" font-size="14" lengthAdjust="spacing" textLength="287.9229" x="2317.78" y="140.7803">controllers map provider states into the shared</text><text fill="#334155" font-family="Helvetica" font-size="14" lengthAdjust="spacing" textLength="261.4609" x="2317.78" y="154.7803">controller phases with explicit finalizer and</text><text fill="#334155" font-family="Helvetica" font-size="14" lengthAdjust="spacing" textLength="105.8477" x="2317.78" y="168.7803">requeue policies.</text><text fill="#334155" font-family="Helvetica" font-size="14" lengthAdjust="spacing" textLength="96.4824" x="2317.78" y="182.7803">service: identity</text><text fill="#334155" font-family="Helvetica" font-size="14" lengthAdjust="spacing" textLength="173.5303" x="2317.78" y="196.7803">slug: usergroupmembership</text><text fill="#334155" font-family="Helvetica" font-size="14" lengthAdjust="spacing" textLength="178.958" x="2317.78" y="210.7803">kind: UserGroupMembership</text><text fill="#334155" font-family="Helvetica" font-size="14" lengthAdjust="spacing" textLength="241.2402" x="2317.78" y="224.7803">archetype: generated-service-manager</text><text fill="#334155" font-family="Helvetica" font-size="14" lengthAdjust="spacing" textLength="156.4063" x="2317.78" y="238.7803">status/finalizer: required /</text><text fill="#334155" font-family="Helvetica" font-size="14" lengthAdjust="spacing" textLength="174.3027" x="2317.78" y="252.7803">retain-until-confirmed-delete</text><text fill="#334155" font-family="Helvetica" font-size="14" lengthAdjust="spacing" textLength="272.3984" x="2317.78" y="266.7803">requeue: provisioning, updating, terminating</text><text fill="#334155" font-family="Helvetica" font-size="14" lengthAdjust="spacing" textLength="295.6816" x="2317.78" y="280.7803">provider states: create PROVISIONING; update</text><text fill="#334155" font-family="Helvetica" font-size="14" lengthAdjust="spacing" textLength="192.165" x="2317.78" y="294.7803">UPDATING; delete DELETING</text><text fill="#334155" font-family="Helvetica" font-size="14" lengthAdjust="spacing" textLength="183.6611" x="2317.78" y="308.7803">supported drift: display_name</text><text fill="#334155" font-family="Helvetica" font-size="14" lengthAdjust="spacing" textLength="230.3301" x="2317.78" y="322.7803">reject before mutate: force-new fields</text><text fill="#334155" font-family="Helvetica" font-size="14" lengthAdjust="spacing" textLength="100.3789" x="2317.78" y="336.7803">compartment_id</text><text fill="#334155" font-family="Helvetica" font-size="14" lengthAdjust="spacing" textLength="66.1445" x="2317.78" y="350.7803">list lookup:</text><text fill="#334155" font-family="Helvetica" font-size="14" lengthAdjust="spacing" textLength="285.585" x="2317.78" y="364.7803">scaffold_identity_usergroupmembership filters</text><text fill="#334155" font-family="Helvetica" font-size="14" lengthAdjust="spacing" textLength="138.5098" x="2317.78" y="378.7803">compartment_id, state</text><text fill="#334155" font-family="Helvetica" font-size="14" lengthAdjust="spacing" textLength="89.4961" x="2317.78" y="392.7803">conflicts: none</text><text fill="#334155" font-family="Helvetica" font-size="14" lengthAdjust="spacing" textLength="104.3164" x="2317.78" y="406.7803">open gaps: none</text><text fill="#334155" font-family="Helvetica" font-size="14" lengthAdjust="spacing" textLength="224.9023" x="2317.78" y="420.7803">Scaffold metadata only; replace with</text><text fill="#334155" font-family="Helvetica" font-size="14" lengthAdjust="spacing" textLength="244.3232" x="2317.78" y="434.7803">controller-specific runtime states before</text><text fill="#334155" font-family="Helvetica" font-size="14" lengthAdjust="spacing" textLength="66.1445" x="2317.78" y="448.7803">promotion.</text></g><g class="entity" data-qualified-name="GMN5" data-source-line="86" id="ent0006"><path d="M2999.27,516 L2999.27,530.35 L2539.31,514.2 L2999.27,538.35 L2999.27,566 A8,8 0 0 0 3007.27,574 L3296.2895,574 A8,8 0 0 0 3304.2895,566 L3304.2895,518 L3294.2895,508 L3007.27,508 A8,8 0 0 0 2999.27,516" fill="#FFF7D6" style="stroke:#B45309;stroke-width:0.5;"/><path d="M3294.2895,508 L3294.2895,514 A4,4 0 0 0 3298.2895,518 L3304.2895,518 L3294.2895,508" fill="#FFF7D6" style="stroke:#B45309;stroke-width:0.5;"/><text fill="#334155" font-family="Helvetica" font-size="14" lengthAdjust="spacing" textLength="136.9717" x="3005.27" y="523.7803">delete policy: required</text><text fill="#334155" font-family="Helvetica" font-size="14" lengthAdjust="spacing" textLength="284.0195" x="3005.27" y="537.7803">delete observe: GetUserGroupMembership or</text><text fill="#334155" font-family="Helvetica" font-size="14" lengthAdjust="spacing" textLength="167.2822" x="3005.27" y="551.7803">ListUserGroupMembership</text><text fill="#334155" font-family="Helvetica" font-size="14" lengthAdjust="spacing" textLength="157.1855" x="3005.27" y="565.7803">delete targets: DELETED</text></g><!--link *start* to observe--><g class="link" data-entity-1="ent0002" data-entity-2="ent0002" data-link-type="dependency" data-source-line="32" id="lnk3"><path d="M26.24,434 C59.85,434 172.7,434 268.63,434" fill="none" id="*start*-to-observe" style="stroke:#0F172A;stroke-width:1;"/><polygon fill="#0F172A" points="274.63,434,265.63,430,269.63,434,265.63,438,274.63,434" style="stroke:#0F172A;stroke-width:1;"/><text fill="#000000" font-family="Helvetica" font-size="14" lengthAdjust="spacing" textLength="187.5166" x="57" y="429.7803">CreateUserGroupMembership</text></g><!--link observe to resolve_by_lookup--><g class="link" data-entity-1="ent0002" data-entity-2="ent0007" data-link-type="dependency" data-source-line="33" id="lnk4"><path d="M539.64,418.05 C630.55,407.01 741.3337,393.5731 811.1837,385.0931" fill="none" id="observe-to-resolve_by_lookup" style="stroke:#0F172A;stroke-width:1;"/><polygon fill="#0F172A" points="817.14,384.37,807.7235,381.4838,812.1764,384.9726,808.6877,389.4255,817.14,384.37" style="stroke:#0F172A;stroke-width:1;"/><text fill="#000000" font-family="Helvetica" font-size="14" lengthAdjust="spacing" textLength="145.5029" x="570.36" y="392.8403">tracked identity missing</text></g><!--link resolve_by_lookup to evaluate_ready--><g class="link" data-entity-1="ent0007" data-entity-2="ent0003" data-link-type="dependency" data-source-line="34" id="lnk5"><path d="M940.57,365.58 C1054.1,344.19 1288.77,299.79 1306.36,295 C1316.07,292.36 1320.6038,291.0543 1330.3838,287.7043" fill="none" id="resolve_by_lookup-to-evaluate_ready" style="stroke:#0F172A;stroke-width:1;"/><polygon fill="#0F172A" points="1336.06,285.76,1326.2494,284.8923,1331.3298,287.3803,1328.8419,292.4606,1336.06,285.76" style="stroke:#0F172A;stroke-width:1;"/><text fill="#000000" font-family="Helvetica" font-size="14" lengthAdjust="spacing" textLength="154.0889" x="1096.86" y="276.7803">lookup or create reaches</text><text fill="#000000" font-family="Helvetica" font-size="14" lengthAdjust="spacing" textLength="50.5654" x="1148.6217" y="290.7803">ACTIVE</text></g><!--link resolve_by_lookup to retryable--><g class="link" data-entity-1="ent0007" data-entity-2="ent0005" data-link-type="dependency" data-source-line="35" id="lnk6"><path d="M940.63,379.87 C1048.21,384.95 1262.8067,395.0973 1347.5967,399.0973" fill="none" id="resolve_by_lookup-to-retryable" style="stroke:#0F172A;stroke-width:1;"/><polygon fill="#0F172A" points="1353.59,399.38,1344.7885,394.9603,1348.5956,399.1444,1344.4115,402.9514,1353.59,399.38" style="stroke:#0F172A;stroke-width:1;"/><text fill="#000000" font-family="Helvetica" font-size="14" lengthAdjust="spacing" textLength="184.3789" x="1081.86" y="366.5403">OCI state in PROVISIONING,</text><text fill="#000000" font-family="Helvetica" font-size="14" lengthAdjust="spacing" textLength="150.1309" x="1098.984" y="380.5403">UPDATING, DELETING</text></g><!--link resolve_by_lookup to failed--><g class="link" data-entity-1="ent0007" data-entity-2="ent0006" data-link-type="dependency" data-source-line="36" id="lnk7"><path d="M940.63,394.11 C1052.69,425.65 1281.5847,490.0834 1357.6747,511.5134" fill="none" id="resolve_by_lookup-to-failed" style="stroke:#0F172A;stroke-width:1;"/><polygon fill="#0F172A" points="1363.45,513.14,1355.8714,506.8499,1358.6372,511.7845,1353.7026,514.5504,1363.45,513.14" style="stroke:#0F172A;stroke-width:1;"/><text fill="#000000" font-family="Helvetica" font-size="14" lengthAdjust="spacing" textLength="263.7783" x="1042.36" y="419.0303">unresolved OCI error or non-success state</text></g><!--link observe to evaluate_ready--><g class="link" data-entity-1="ent0002" data-entity-2="ent0003" data-link-type="dependency" data-source-line="37" id="lnk8"><path d="M484.96,402.64 C511.45,392.43 541.47,381.55 569.36,373 C775.5,309.82 827.22,286.06 1041.36,261 C1145.33,248.83 1262.0497,255.0341 1329.9897,260.5541" fill="none" id="observe-to-evaluate_ready" style="stroke:#0F172A;stroke-width:1;"/><polygon fill="#0F172A" points="1335.97,261.04,1327.3235,256.3243,1330.9864,260.6351,1326.6756,264.298,1335.97,261.04" style="stroke:#0F172A;stroke-width:1;"/><text fill="#000000" font-family="Helvetica" font-size="14" lengthAdjust="spacing" textLength="128.3721" x="814.86" y="260.9503">OCI state in ACTIVE</text></g><!--link observe to retryable--><g class="link" data-entity-1="ent0002" data-entity-2="ent0005" data-link-type="dependency" data-source-line="38" id="lnk9"><path d="M539.47,438.33 C602.11,440.38 678.11,442.85 746.36,445 C995.16,452.84 1067.72,524.79 1306.36,454 C1317.77,450.62 1336.445,438.3638 1355.305,424.9138" fill="none" id="observe-to-retryable" style="stroke:#0F172A;stroke-width:1;"/><polygon fill="#0F172A" points="1360.19,421.43,1350.54,423.3989,1356.1191,424.3331,1355.185,429.9123,1360.19,421.43" style="stroke:#0F172A;stroke-width:1;"/><text fill="#000000" font-family="Helvetica" font-size="14" lengthAdjust="spacing" textLength="184.3789" x="786.86" y="426.7803">OCI state in PROVISIONING,</text><text fill="#000000" font-family="Helvetica" font-size="14" lengthAdjust="spacing" textLength="150.1309" x="803.984" y="440.7803">UPDATING, DELETING</text></g><!--link observe to failed--><g class="link" data-entity-1="ent0002" data-entity-2="ent0006" data-link-type="dependency" data-source-line="39" id="lnk10"><path d="M539.52,464.76 C601.83,478.03 677.56,492.26 746.36,500 C985.8,526.92 1272.4516,522.7695 1357.5616,520.7895" fill="none" id="observe-to-failed" style="stroke:#0F172A;stroke-width:1;"/><polygon fill="#0F172A" points="1363.56,520.65,1354.4694,516.8604,1358.5614,520.7663,1354.6555,524.8582,1363.56,520.65" style="stroke:#0F172A;stroke-width:1;"/><text fill="#000000" font-family="Helvetica" font-size="14" lengthAdjust="spacing" textLength="263.7783" x="747.36" y="495.7803">unresolved OCI error or non-success state</text></g><!--link evaluate_ready to reject_unsupported_drift--><g class="link" data-entity-1="ent0003" data-entity-2="ent0008" data-link-type="dependency" data-source-line="40" id="lnk11"><path d="M1413.06,286.48 C1428.49,298.89 1449.81,313.85 1471.32,322 C1535.53,346.35 1607.6042,353.9058 1664.3042,356.0258" fill="none" id="evaluate_ready-to-reject_unsupported_drift" style="stroke:#0F172A;stroke-width:1;"/><polygon fill="#0F172A" points="1670.3,356.25,1661.4557,351.9165,1665.3035,356.0632,1661.1568,359.9109,1670.3,356.25" style="stroke:#0F172A;stroke-width:1;"/><text fill="#000000" font-family="Helvetica" font-size="14" lengthAdjust="spacing" textLength="143.9512" x="1482.32" y="303.7803">force-new or conflicting</text><text fill="#000000" font-family="Helvetica" font-size="14" lengthAdjust="spacing" textLength="80.9375" x="1513.8268" y="317.7803">drift detected</text></g><!--link reject_unsupported_drift to ready--><g class="link" data-entity-1="ent0008" data-entity-2="ent0004" data-link-type="dependency" data-source-line="41" id="lnk12"><path d="M1826.32,355.06 C1892.2,351.77 1988.3,341 2065.32,308 C2077.36,302.84 2084.4802,298.2363 2093.9202,290.2463" fill="none" id="reject_unsupported_drift-to-ready" style="stroke:#0F172A;stroke-width:1;"/><polygon fill="#0F172A" points="2098.5,286.37,2089.0461,289.1313,2094.6835,289.6003,2094.2146,295.2376,2098.5,286.37" style="stroke:#0F172A;stroke-width:1;"/><text fill="#000000" font-family="Helvetica" font-size="14" lengthAdjust="spacing" textLength="203.8818" x="1861.32" y="303.7803">wait for spec or live state change</text></g><!--link evaluate_ready to apply_update--><g class="link" data-entity-1="ent0003" data-entity-2="ent0009" data-link-type="dependency" data-source-line="42" id="lnk13"><path d="M1441.72,248.96 C1451.49,246.07 1461.67,243.27 1471.32,241 C1552.17,221.95 1642.2022,208.6097 1697.0322,201.3297" fill="none" id="evaluate_ready-to-apply_update" style="stroke:#0F172A;stroke-width:1;"/><polygon fill="#0F172A" points="1702.98,200.54,1693.5318,197.7594,1698.0235,201.1981,1694.5848,205.6898,1702.98,200.54" style="stroke:#0F172A;stroke-width:1;"/><text fill="#000000" font-family="Helvetica" font-size="14" lengthAdjust="spacing" textLength="163.4199" x="1472.32" y="192.0903">supported mutable drift for</text><text fill="#000000" font-family="Helvetica" font-size="14" lengthAdjust="spacing" textLength="86.3857" x="1510.8371" y="206.0903">display_name</text></g><!--link apply_update to ready--><g class="link" data-entity-1="ent0009" data-entity-2="ent0004" data-link-type="dependency" data-source-line="43" id="lnk14"><path d="M1793.88,197.45 C1855.86,201.76 1971.1,213.07 2065.32,241 C2075.36,243.98 2080.5025,245.9001 2089.6125,250.2801" fill="none" id="apply_update-to-ready" style="stroke:#0F172A;stroke-width:1;"/><polygon fill="#0F172A" points="2095.02,252.88,2088.642,245.3752,2090.5138,250.7135,2085.1756,252.5852,2095.02,252.88" style="stroke:#0F172A;stroke-width:1;"/><text fill="#000000" font-family="Helvetica" font-size="14" lengthAdjust="spacing" textLength="141.6543" x="1892.32" y="199.4503">update path completes</text></g><!--link evaluate_ready to ready--><g class="link" data-entity-1="ent0003" data-entity-2="ent0004" data-link-type="dependency" data-source-line="44" id="lnk15"><path d="M1441.73,266 C1586.46,266 1984.77,266 2088.86,266" fill="none" id="evaluate_ready-to-ready" style="stroke:#0F172A;stroke-width:1;"/><polygon fill="#0F172A" points="2094.86,266,2085.86,262,2089.86,266,2085.86,270,2094.86,266" style="stroke:#0F172A;stroke-width:1;"/><text fill="#000000" font-family="Helvetica" font-size="14" lengthAdjust="spacing" textLength="162.6406" x="1667.32" y="261.7803">no supported drift remains</text></g><!--link ready to ready--><g class="link" data-entity-1="ent0004" data-entity-2="ent0004" data-link-type="dependency" data-source-line="45" id="lnk16"><path d="M2103.35,245.69 C2096,228.73 2101.74,211 2120.55,211 C2139.36,211 2147.4858,223.2247 2140.1358,240.1847" fill="none" id="ready-to-ready" style="stroke:#0F172A;stroke-width:1;"/><polygon fill="#0F172A" points="2137.75,245.69,2144.9989,239.0227,2139.7382,241.1023,2137.6586,235.8416,2137.75,245.69" style="stroke:#0F172A;stroke-width:1;"/><text fill="#000000" font-family="Helvetica" font-size="14" lengthAdjust="spacing" textLength="162.6406" x="2039.55" y="201.7803">no supported drift remains</text></g><!--link retryable to retryable--><g class="link" data-entity-1="ent0005" data-entity-2="ent0005" data-link-type="dependency" data-source-line="46" id="lnk17"><path d="M1362.63,380.69 C1351.42,363.73 1360.16,346 1388.84,346 C1417.52,346 1429.5564,358.7232 1418.3564,375.6832" fill="none" id="retryable-to-retryable" style="stroke:#0F172A;stroke-width:1;"/><polygon fill="#0F172A" points="1415.05,380.69,1423.3474,375.3841,1417.8053,376.5177,1416.6717,370.9756,1415.05,380.69" style="stroke:#0F172A;stroke-width:1;"/><text fill="#000000" font-family="Helvetica" font-size="14" lengthAdjust="spacing" textLength="136.9307" x="1320.84" y="336.7803">OCI remains retryable</text></g><!--link failed to failed--><g class="link" data-entity-1="ent0006" data-entity-2="ent0006" data-link-type="dependency" data-source-line="47" id="lnk18"><path d="M1363.41,500.83 C1351.04,483.53 1359.52,465 1388.84,465 C1418.16,465 1430.1298,478.6493 1417.7598,495.9493" fill="none" id="failed-to-failed" style="stroke:#0F172A;stroke-width:1;"/><polygon fill="#0F172A" points="1414.27,500.83,1422.7585,495.8355,1417.1782,496.7628,1416.251,491.1824,1414.27,500.83" style="stroke:#0F172A;stroke-width:1;"/><text fill="#000000" font-family="Helvetica" font-size="14" lengthAdjust="spacing" textLength="132.2549" x="1322.84" y="455.7803">OCI remains terminal</text></g><!--link ready to delete_pending--><g class="link" data-entity-1="ent0004" data-entity-2="ent0010" data-link-type="dependency" data-source-line="48" id="lnk19"><path d="M2146.1,281.72 C2180.51,304.84 2243.19,351.04 2281.78,404 C2301.96,431.68 2285.35,453.21 2311.78,475 C2346.69,503.78 2392.535,511.5554 2430.775,513.1154" fill="none" id="ready-to-delete_pending" style="stroke:#0F172A;stroke-width:1;"/><polygon fill="#0F172A" points="2436.77,513.36,2427.9405,508.9965,2431.7742,513.1562,2427.6144,516.9898,2436.77,513.36" style="stroke:#0F172A;stroke-width:1;"/><text fill="#000000" font-family="Helvetica" font-size="14" lengthAdjust="spacing" textLength="104.3027" x="2176.78" y="299.3403">delete requested</text></g><!--link retryable to delete_pending--><g class="link" data-entity-1="ent0005" data-entity-2="ent0010" data-link-type="dependency" data-source-line="49" id="lnk20"><path d="M1423.89,404.08 C1542.37,414.87 1947.63,452.17 2281.78,488 C2334.75,493.68 2389.3732,500.1316 2430.9132,505.1416" fill="none" id="retryable-to-delete_pending" style="stroke:#0F172A;stroke-width:1;"/><polygon fill="#0F172A" points="2436.87,505.86,2428.4137,500.8111,2431.906,505.2613,2427.4558,508.7536,2436.87,505.86" style="stroke:#0F172A;stroke-width:1;"/><text fill="#000000" font-family="Helvetica" font-size="14" lengthAdjust="spacing" textLength="104.3027" x="1910.82" y="441.7603">delete requested</text></g><!--link failed to delete_pending--><g class="link" data-entity-1="ent0006" data-entity-2="ent0010" data-link-type="dependency" data-source-line="50" id="lnk21"><path d="M1414.29,519.82 C1553.18,518.81 2237.3002,513.8238 2430.6202,512.4138" fill="none" id="failed-to-delete_pending" style="stroke:#0F172A;stroke-width:1;"/><polygon fill="#0F172A" points="2436.62,512.37,2427.5911,508.4357,2431.6201,512.4065,2427.6494,516.4355,2436.62,512.37" style="stroke:#0F172A;stroke-width:1;"/><text fill="#000000" font-family="Helvetica" font-size="14" lengthAdjust="spacing" textLength="104.3027" x="1910.82" y="510.8603">delete requested</text></g><!--link delete_pending to delete_cleanup_blocked--><g class="link" data-entity-1="ent0010" data-entity-2="ent0012" data-link-type="dependency" data-source-line="51" id="lnk22"><path d="M2539.31,507.52 C2654.6,497.24 2932.5937,472.4528 3069.1037,460.2828" fill="none" id="delete_pending-to-delete_cleanup_blocked" style="stroke:#0F172A;stroke-width:1;"/><polygon fill="#0F172A" points="3075.08,459.75,3065.7604,456.565,3070.0998,460.194,3066.4707,464.5334,3075.08,459.75" style="stroke:#0F172A;stroke-width:1;"/><text fill="#000000" font-family="Helvetica" font-size="14" lengthAdjust="spacing" textLength="273.1436" x="2695.27" y="466.2103">cleanup or finalizer release remains blocked</text></g><!--link delete_cleanup_blocked to deleted--><g class="link" data-entity-1="ent0012" data-entity-2="ent0011" data-link-type="dependency" data-source-line="52" id="lnk23"><path d="M3228.3,453 C3332.99,453 3511.29,453 3581.84,453" fill="none" id="delete_cleanup_blocked-to-deleted" style="stroke:#0F172A;stroke-width:1;"/><polygon fill="#0F172A" points="3587.84,453,3578.84,449,3582.84,453,3578.84,457,3587.84,453" style="stroke:#0F172A;stroke-width:1;"/><text fill="#000000" font-family="Helvetica" font-size="14" lengthAdjust="spacing" textLength="222.5645" x="3335.29" y="448.7803">retry delete completion until allowed</text></g><!--link deleted to deleted--><g class="link" data-entity-1="ent0011" data-entity-2="ent0011" data-link-type="dependency" data-source-line="53" id="lnk24"><path d="M3590.22,432.69 C3578.6,415.73 3587.67,398 3617.41,398 C3647.16,398 3659.6112,410.7803 3647.9912,427.7403" fill="none" id="deleted-to-deleted" style="stroke:#0F172A;stroke-width:1;"/><polygon fill="#0F172A" points="3644.6,432.69,3652.9867,427.5263,3647.426,428.5653,3646.3871,423.0046,3644.6,432.69" style="stroke:#0F172A;stroke-width:1;"/><text fill="#000000" font-family="Helvetica" font-size="14" lengthAdjust="spacing" textLength="92.5859" x="3571.41" y="388.7803">terminal stutter</text></g><?plantuml-src dLPjJnmt4Fw-lsAKVgiu20MIz90gyHQAH011o9TIdNpsxAsBrzxQNiYbwd_l-6NtzfP3KQFzilQC7y_BCpDsZr8tpB8QNCM4UPPw0ILJ3WlNI-QCFowiQRKuCSfO-Adaz8c1Xi2IjSf_DDfViHhXTrHFw2LdctNkv3U4tVs1a5bhdZFwstBt_I_3azfuF7vXGrc-5-_6MiOAj5bZld-mz_RNaKQuFiltzlPt3mu6yWZFZTLeOVTTuQLN27UUUOHFZ5TI8qn02jGaMUxSExJdTAJvXFKShQjaCy1oyTW_1Mo8teUIbJn8XjPchm7AbONz7g7PRdDNxAFuG9lO8sQzVmk5fGTlmCf5vK58YznBeukAh0Qi6x-aD3XkPHEtav5lhkVaoXE-0UR0fFzETFR4L4j_jyZ4CYfWtfdPiDNfhUIZRM-NRAumY_Ag4tzaKg68iZB-5lbwc4OSS0toBV2MGeWYnhHrM-I2GZekjQTKR3refWNmrbfQmVN91IXP8b_orJstw0mHydXvQSnZssHZujvilfofkBjI_ekYTgzTspJ6UXIdLfO-dmcYMRkIpKGGTaUFcaOjxnj1YwZFmdhMnerEvpGQVqF9erABMicTMPEsrlN4G4EiYquKCjqsnyg4u0oHU9BCvabK_F7pdp2P_0Qhu9vGT3rkOd2d4_HVX8XEThdeoW1gwLmm-wLoW5Xd2vtFCc8jZpQ4FFCAtOC-ElbyyUNi5PoUEWGHKfmY8JNSt5v_kRYxkBwwk3edAjpVd1vz3hzmUdPv5lvU0Kny8xHMPmKHWP4QaGtcQQCdhkKSdKkthONcXLzhHcLNrcFvmmuCONx0x96foPZDF2RSqbYE4utFCKL6bqfI2z6B1vqq116C1ow-Yf4kI55vPj87o5Z80L59SYJvpYkc5nlD6vODWVGNGDtw6C9q4U6ILT8rYYrdciPEiNPmQ4VUQfYloAcw2MNYDaSc7T1cS6swpcBDf7R5_rJkqhw915bhq1XpVjTIFTJqQ6kfcHfOiTu-I3-tHuj_j-XIgeP6V5z_OCJtbKSQWqEZDaI7yquWGXcye6U09IZQTTYxs7MjLr1M5uWu9SYrpgYSMPfiL1vUAc1AcUSUQdosYoNniVMqACBx88zEKtQ3h68sP5Mo1OtrQLxlvBNRIUi9LOgtHYcqayZkIPqU3DlkQL7SXUaDfJKr-0eXGwwEG5E50DI6R0CQPaMe5Xd30xBEl6giUQAcQrFrz5Em8Em5Ubg7AHWorreQzL-bTr2XnUs2MUglVjaWlKGyhwPmZlJ0OG4pz1N9Wx6QBIW0AvCSrAmPtnachXcuK8nTSF0igSBmQqDT8rH-d-JWLUHCIrLeWXJTTf7ld_RJf72gNL2vaY0ycPfwDPZePIMci6bazGvEOT6vDXcxbjuEExr5qqXX6HAn4mg4g3U9f0cfBAMj2ID7EDizJU5mH2yY-bRgAV4l4oaiYb78fjsO6xRvmzoFYgxP7tOCxdl-g9zGtGtxNEgzC4TgWHYxeiTXwoubAk6AK0_4l9fYEvEYKDBvF7-9nvoLfL5YreL-jY7e1AJ8kJ7ILfuitNXmeGLg6f3K1631ccvzb--0ck9B3ZCmMYqFAVBa2iT8bc9OEO7sfUHWGoPgx6YN_0oXhKsexks2carypOzATlIIoa6DV5kk4jxjvxaQ2i9lu1LrgUAIGhQ9SXaXrzuqvUtijBVhFm00?></g></svg>