<?plantuml 1.2026.1?><svg xmlns="http://www.w3.org/2000/svg" xmlns:xlink="http://www.w3.org/1999/xlink" contentStyleType="text/css" data-diagram-type="SEQUENCE" height="1315px" preserveAspectRatio="none" style="width:1128px;height:1315px;background:#FCFCFD;" version="1.1" viewBox="0 0 1128 1315" width="1128px" zoomAndPan="magnify"><title>Sequence - networkloadbalancer/NetworkLoadBalancerBackendSet</title><defs/><g><rect fill="#FCFCFD" height="1315" style="stroke:none;stroke-width:1;" width="1128" x="0" y="0"/><text fill="#000000" font-family="Helvetica" font-size="14" font-weight="bold" lengthAdjust="spacing" textLength="450.4746" x="336.793" y="25.7803">Sequence - networkloadbalancer/NetworkLoadBalancerBackendSet</text><rect fill="none" height="86" rx="8" ry="8" style="stroke:#CBD5E1;stroke-width:1.5;" width="418.6675" x="686.3931" y="361"/><rect fill="none" height="204" rx="8" ry="8" style="stroke:#CBD5E1;stroke-width:1.5;" width="438.6675" x="676.3931" y="461"/><rect fill="none" height="44" rx="8" ry="8" style="stroke:#CBD5E1;stroke-width:1.5;" width="418.6675" x="686.3931" y="512"/><rect fill="none" height="44" rx="8" ry="8" style="stroke:#CBD5E1;stroke-width:1.5;" width="418.6675" x="686.3931" y="614"/><rect fill="none" height="116" rx="8" ry="8" style="stroke:#CBD5E1;stroke-width:1.5;" width="438.6675" x="676.3931" y="679"/><rect fill="none" height="58" rx="8" ry="8" style="stroke:#CBD5E1;stroke-width:1.5;" width="418.6675" x="686.3931" y="730"/><g class="participant-lifeline" data-entity-uid="part1" data-qualified-name="Kubernetes" id="part1-lifeline"><g><title>Kubernetes</title><rect fill="#000000" fill-opacity="0.00000" height="1194" width="8" x="39.8032" y="114"/><line style="stroke:#94A3B8;stroke-width:0.5;stroke-dasharray:5,5;" x1="43" x2="43" y1="114" y2="1308"/></g></g><g class="participant-lifeline" data-entity-uid="part2" data-qualified-name="Controller" id="part2-lifeline"><g><title>Controller</title><rect fill="#000000" fill-opacity="0.00000" height="1194" width="8" x="277.0435" y="114"/><line style="stroke:#94A3B8;stroke-width:0.5;stroke-dasharray:5,5;" x1="280.6987" x2="280.6987" y1="114" y2="1308"/></g></g><g class="participant-lifeline" data-entity-uid="part3" data-qualified-name="BaseReconciler" id="part3-lifeline"><g><title>BaseReconciler</title><rect fill="#000000" fill-opacity="0.00000" height="1194" width="8" x="515.8696" y="114"/><line style="stroke:#94A3B8;stroke-width:0.5;stroke-dasharray:5,5;" x1="519.8457" x2="519.8457" y1="114" y2="1308"/></g></g><g class="participant-lifeline" data-entity-uid="part4" data-qualified-name="ServiceManager" id="part4-lifeline"><g><title>OSOKServiceManager</title><rect fill="#000000" fill-opacity="0.00000" height="1194" width="8" x="770.5894" y="114"/><line style="stroke:#94A3B8;stroke-width:0.5;stroke-dasharray:5,5;" x1="774.3931" x2="774.3931" y1="114" y2="1308"/></g></g><g class="participant-lifeline" data-entity-uid="part5" data-qualified-name="OCI" id="part5-lifeline"><g><title>OCI</title><rect fill="#000000" fill-opacity="0.00000" height="1194" width="8" x="1071.6157" y="114"/><line style="stroke:#94A3B8;stroke-width:0.5;stroke-dasharray:5,5;" x1="1075.1709" x2="1075.1709" y1="114" y2="1308"/></g></g><g class="participant participant-head" data-entity-uid="part1" data-qualified-name="Kubernetes" id="part1-head"><text fill="#000000" font-family="Helvetica" font-size="14" lengthAdjust="spacing" textLength="71.6064" x="5" y="110.7803">Kubernetes</text><ellipse cx="43.8032" cy="48.5" fill="#E2E8F0" rx="8" ry="8" style="stroke:#0F172A;stroke-width:0.5;"/><path d="M43.8032,56.5 L43.8032,83.5 M30.8032,64.5 L56.8032,64.5 M43.8032,83.5 L30.8032,98.5 M43.8032,83.5 L56.8032,98.5" fill="none" style="stroke:#0F172A;stroke-width:0.5;"/></g><g class="participant participant-head" data-entity-uid="part2" data-qualified-name="Controller" id="part2-head"><rect fill="#E2E8F0" height="28" rx="8" ry="8" style="stroke:#0F172A;stroke-width:0.5;" width="74.6895" x="243.6987" y="85"/><text fill="#0F172A" font-family="Helvetica" font-size="14" lengthAdjust="spacing" textLength="60.6895" x="250.6987" y="102.7803">Controller</text></g><g class="participant participant-head" data-entity-uid="part3" data-qualified-name="BaseReconciler" id="part3-head"><rect fill="#E2E8F0" height="28" rx="8" ry="8" style="stroke:#0F172A;stroke-width:0.5;" width="112.0479" x="463.8457" y="85"/><text fill="#0F172A" font-family="Helvetica" font-size="14" lengthAdjust="spacing" textLength="98.0479" x="470.8457" y="102.7803">BaseReconciler</text></g><g class="participant participant-head" data-entity-uid="part4" data-qualified-name="ServiceManager" id="part4-head"><rect fill="#E2E8F0" height="28" rx="8" ry="8" style="stroke:#0F172A;stroke-width:0.5;" width="156.3926" x="696.3931" y="85"/><text fill="#0F172A" font-family="Helvetica" font-size="14" lengthAdjust="spacing" textLength="142.3926" x="703.3931" y="102.7803">OSOKServiceManager</text></g><g class="participant participant-head" data-entity-uid="part5" data-qualified-name="OCI" id="part5-head"><rect fill="#E2E8F0" height="28" rx="8" ry="8" style="stroke:#0F172A;stroke-width:0.5;" width="38.8896" x="1056.1709" y="85"/><text fill="#0F172A" font-family="Helvetica" font-size="14" lengthAdjust="spacing" textLength="24.8896" x="1063.1709" y="102.7803">OCI</text></g><path d="M455,137 L455,187 A8,8 0 0 0 463,195 L830,195 A8,8 0 0 0 838,187 L838,139 L828,129 L463,129 A8,8 0 0 0 455,137" fill="#FFF7D6" style="stroke:#B45309;stroke-width:0.5;"/><path d="M828,129 L828,135 A4,4 0 0 0 832,139 L838,139 L828,129" fill="#FFF7D6" style="stroke:#B45309;stroke-width:0.5;"/><text fill="#334155" font-family="Helvetica" font-size="14" lengthAdjust="spacing" textLength="111.2891" x="488.7742" y="144.7803">shared resolution:</text><text fill="#334155" font-family="Helvetica" font-size="14" lengthAdjust="spacing" textLength="307.3916" x="488.7742" y="158.7803">shared/diagrams/shared-resolution-sequence.svg</text><text fill="#334155" font-family="Helvetica" font-size="14" lengthAdjust="spacing" textLength="88.7305" x="488.7742" y="172.7803">shared delete:</text><text fill="#334155" font-family="Helvetica" font-size="14" lengthAdjust="spacing" textLength="284.833" x="488.7742" y="186.7803">shared/diagrams/shared-delete-sequence.svg</text><g class="message" data-entity-1="part1" data-entity-2="part2" id="msg1"><polygon fill="#0F172A" points="269.0435,244,279.0435,248,269.0435,252,273.0435,248" style="stroke:#0F172A;stroke-width:1;"/><line style="stroke:#0F172A;stroke-width:1;" x1="43.8032" x2="275.0435" y1="248" y2="248"/><text fill="#000000" font-family="Helvetica" font-size="14" lengthAdjust="spacing" textLength="54.5029" x="50.8032" y="214.7803">enqueue</text><text fill="#000000" font-family="Helvetica" font-size="14" lengthAdjust="spacing" textLength="213.2402" x="50.8032" y="228.7803">NetworkLoadBalancerBackendSet</text><text fill="#000000" font-family="Helvetica" font-size="14" lengthAdjust="spacing" textLength="56.0273" x="50.8032" y="242.7803">reconcile</text></g><g class="message" data-entity-1="part2" data-entity-2="part3" id="msg2"><polygon fill="#0F172A" points="507.8696,272,517.8696,276,507.8696,280,511.8696,276" style="stroke:#0F172A;stroke-width:1;"/><line style="stroke:#0F172A;stroke-width:1;" x1="281.0435" x2="513.8696" y1="276" y2="276"/><text fill="#000000" font-family="Helvetica" font-size="14" lengthAdjust="spacing" textLength="117.4961" x="288.0435" y="270.7803">Reconcile(request)</text></g><g class="message" data-entity-1="part3" data-entity-2="part4" id="msg3"><polygon fill="#0F172A" points="762.5894,314,772.5894,318,762.5894,322,766.5894,318" style="stroke:#0F172A;stroke-width:1;"/><line style="stroke:#0F172A;stroke-width:1;" x1="519.8696" x2="768.5894" y1="318" y2="318"/><text fill="#000000" font-family="Helvetica" font-size="14" lengthAdjust="spacing" textLength="105.834" x="526.8696" y="298.7803">reconcile desired</text><text fill="#000000" font-family="Helvetica" font-size="14" lengthAdjust="spacing" textLength="213.2402" x="526.8696" y="312.7803">NetworkLoadBalancerBackendSet</text></g><g class="message" data-entity-1="part4" data-entity-2="part5" id="msg4"><polygon fill="#0F172A" points="1063.6157,342,1073.6157,346,1063.6157,350,1067.6157,346" style="stroke:#0F172A;stroke-width:1;"/><line style="stroke:#0F172A;stroke-width:1;" x1="774.5894" x2="1069.6157" y1="346" y2="346"/><text fill="#000000" font-family="Helvetica" font-size="14" lengthAdjust="spacing" textLength="235.8057" x="781.5894" y="340.7803">GetNetworkLoadBalancerBackendSet</text></g><path d="M694.3931,361 L753.1587,361 L753.1587,367 L743.1587,377 L686.3931,377 L686.3931,369 A8,8 0 0 1 694.3931,361" fill="#F8FAFC" style="stroke:#CBD5E1;stroke-width:1.5;"/><rect fill="none" height="86" rx="8" ry="8" style="stroke:#CBD5E1;stroke-width:1.5;" width="418.6675" x="686.3931" y="361"/><text fill="#000000" font-family="Helvetica" font-size="14" font-weight="bold" lengthAdjust="spacing" textLength="21.7656" x="701.3931" y="372.7803">opt</text><text fill="#000000" font-family="Helvetica" font-size="14" font-weight="bold" lengthAdjust="spacing" textLength="135.3516" x="768.1587" y="373.7803">[list lookup fallback]</text><g class="message" data-entity-1="part4" data-entity-2="part5" id="msg5"><polygon fill="#0F172A" points="1063.6157,407,1073.6157,411,1063.6157,415,1067.6157,411" style="stroke:#0F172A;stroke-width:1;"/><line style="stroke:#0F172A;stroke-width:1;" x1="774.5894" x2="1069.6157" y1="411" y2="411"/><text fill="#000000" font-family="Helvetica" font-size="14" lengthAdjust="spacing" textLength="277.0264" x="781.5894" y="391.7803">ListNetworkLoadBalancerBackendSet(filters:</text><text fill="#000000" font-family="Helvetica" font-size="14" lengthAdjust="spacing" textLength="143.1719" x="781.5894" y="405.7803">compartment_id, state)</text></g><g class="message" data-entity-1="part5" data-entity-2="part4" id="msg6"><polygon fill="#0F172A" points="785.5894,435,775.5894,439,785.5894,443,781.5894,439" style="stroke:#0F172A;stroke-width:1;"/><line style="stroke:#0F172A;stroke-width:1;stroke-dasharray:2,2;" x1="779.5894" x2="1074.6157" y1="439" y2="439"/><text fill="#000000" font-family="Helvetica" font-size="14" lengthAdjust="spacing" textLength="156.3994" x="791.5894" y="433.7803">matching collection items</text></g><path d="M684.3931,461 L737.731,461 L737.731,467 L727.731,477 L676.3931,477 L676.3931,469 A8,8 0 0 1 684.3931,461" fill="#F8FAFC" style="stroke:#CBD5E1;stroke-width:1.5;"/><rect fill="none" height="204" rx="8" ry="8" style="stroke:#CBD5E1;stroke-width:1.5;" width="438.6675" x="676.3931" y="461"/><text fill="#000000" font-family="Helvetica" font-size="14" font-weight="bold" lengthAdjust="spacing" textLength="16.3379" x="691.3931" y="472.7803">alt</text><text fill="#000000" font-family="Helvetica" font-size="14" font-weight="bold" lengthAdjust="spacing" textLength="135.3447" x="752.731" y="473.7803">[create or bind path]</text><g class="message" data-entity-1="part4" data-entity-2="part5" id="msg7"><polygon fill="#0F172A" points="1063.6157,493,1073.6157,497,1063.6157,501,1067.6157,497" style="stroke:#0F172A;stroke-width:1;"/><line style="stroke:#0F172A;stroke-width:1;" x1="774.5894" x2="1069.6157" y1="497" y2="497"/><text fill="#000000" font-family="Helvetica" font-size="14" lengthAdjust="spacing" textLength="255.2607" x="781.5894" y="491.7803">CreateNetworkLoadBalancerBackendSet</text></g><path d="M694.3931,512 L760.938,512 L760.938,518 L750.938,528 L686.3931,528 L686.3931,520 A8,8 0 0 1 694.3931,512" fill="#F8FAFC" style="stroke:#CBD5E1;stroke-width:1.5;"/><rect fill="none" height="44" rx="8" ry="8" style="stroke:#CBD5E1;stroke-width:1.5;" width="418.6675" x="686.3931" y="512"/><text fill="#000000" font-family="Helvetica" font-size="14" font-weight="bold" lengthAdjust="spacing" textLength="29.5449" x="701.3931" y="523.7803">loop</text><text fill="#000000" font-family="Helvetica" font-size="14" font-weight="bold" lengthAdjust="spacing" textLength="215.4756" x="775.938" y="524.7803">[create pending PROVISIONING]</text><g class="message" data-entity-1="part4" data-entity-2="part5" id="msg8"><polygon fill="#0F172A" points="1063.6157,544,1073.6157,548,1063.6157,552,1067.6157,548" style="stroke:#0F172A;stroke-width:1;"/><line style="stroke:#0F172A;stroke-width:1;" x1="774.5894" x2="1069.6157" y1="548" y2="548"/><text fill="#000000" font-family="Helvetica" font-size="14" lengthAdjust="spacing" textLength="235.8057" x="781.5894" y="542.7803">GetNetworkLoadBalancerBackendSet</text></g><line style="stroke:#CBD5E1;stroke-width:1;stroke-dasharray:2,2;" x1="676.3931" x2="1115.0605" y1="564" y2="564"/><text fill="#000000" font-family="Helvetica" font-size="14" font-weight="bold" lengthAdjust="spacing" textLength="137.6484" x="681.3931" y="574.7803">[update or drift path]</text><g class="message" data-entity-1="part4" data-entity-2="part5" id="msg9"><polygon fill="#0F172A" points="1063.6157,595,1073.6157,599,1063.6157,603,1067.6157,599" style="stroke:#0F172A;stroke-width:1;"/><line style="stroke:#0F172A;stroke-width:1;" x1="774.5894" x2="1069.6157" y1="599" y2="599"/><text fill="#000000" font-family="Helvetica" font-size="14" lengthAdjust="spacing" textLength="258.3848" x="781.5894" y="593.7803">UpdateNetworkLoadBalancerBackendSet</text></g><path d="M694.3931,614 L760.938,614 L760.938,620 L750.938,630 L686.3931,630 L686.3931,622 A8,8 0 0 1 694.3931,614" fill="#F8FAFC" style="stroke:#CBD5E1;stroke-width:1.5;"/><rect fill="none" height="44" rx="8" ry="8" style="stroke:#CBD5E1;stroke-width:1.5;" width="418.6675" x="686.3931" y="614"/><text fill="#000000" font-family="Helvetica" font-size="14" font-weight="bold" lengthAdjust="spacing" textLength="29.5449" x="701.3931" y="625.7803">loop</text><text fill="#000000" font-family="Helvetica" font-size="14" font-weight="bold" lengthAdjust="spacing" textLength="190.5381" x="775.938" y="626.7803">[update pending UPDATING]</text><g class="message" data-entity-1="part4" data-entity-2="part5" id="msg10"><polygon fill="#0F172A" points="1063.6157,646,1073.6157,650,1063.6157,654,1067.6157,650" style="stroke:#0F172A;stroke-width:1;"/><line style="stroke:#0F172A;stroke-width:1;" x1="774.5894" x2="1069.6157" y1="650" y2="650"/><text fill="#000000" font-family="Helvetica" font-size="14" lengthAdjust="spacing" textLength="235.8057" x="781.5894" y="644.7803">GetNetworkLoadBalancerBackendSet</text></g><path d="M684.3931,679 L743.1587,679 L743.1587,685 L733.1587,695 L676.3931,695 L676.3931,687 A8,8 0 0 1 684.3931,679" fill="#F8FAFC" style="stroke:#CBD5E1;stroke-width:1.5;"/><rect fill="none" height="116" rx="8" ry="8" style="stroke:#CBD5E1;stroke-width:1.5;" width="438.6675" x="676.3931" y="679"/><text fill="#000000" font-family="Helvetica" font-size="14" font-weight="bold" lengthAdjust="spacing" textLength="21.7656" x="691.3931" y="690.7803">opt</text><text fill="#000000" font-family="Helvetica" font-size="14" font-weight="bold" lengthAdjust="spacing" textLength="120.5859" x="758.1587" y="691.7803">[delete requested]</text><g class="message" data-entity-1="part4" data-entity-2="part5" id="msg11"><polygon fill="#0F172A" points="1063.6157,711,1073.6157,715,1063.6157,719,1067.6157,715" style="stroke:#0F172A;stroke-width:1;"/><line style="stroke:#0F172A;stroke-width:1;" x1="774.5894" x2="1069.6157" y1="715" y2="715"/><text fill="#000000" font-family="Helvetica" font-size="14" lengthAdjust="spacing" textLength="253.709" x="781.5894" y="709.7803">DeleteNetworkLoadBalancerBackendSet</text></g><path d="M694.3931,730 L760.938,730 L760.938,736 L750.938,746 L686.3931,746 L686.3931,738 A8,8 0 0 1 694.3931,730" fill="#F8FAFC" style="stroke:#CBD5E1;stroke-width:1.5;"/><rect fill="none" height="58" rx="8" ry="8" style="stroke:#CBD5E1;stroke-width:1.5;" width="418.6675" x="686.3931" y="730"/><text fill="#000000" font-family="Helvetica" font-size="14" font-weight="bold" lengthAdjust="spacing" textLength="29.5449" x="701.3931" y="741.7803">loop</text><text fill="#000000" font-family="Helvetica" font-size="14" font-weight="bold" lengthAdjust="spacing" textLength="213.124" x="775.938" y="742.7803">[delete confirmation DELETING]</text><g class="message" data-entity-1="part4" data-entity-2="part5" id="msg12"><polygon fill="#0F172A" points="1063.6157,776,1073.6157,780,1063.6157,784,1067.6157,780" style="stroke:#0F172A;stroke-width:1;"/><line style="stroke:#0F172A;stroke-width:1;" x1="774.5894" x2="1069.6157" y1="780" y2="780"/><text fill="#000000" font-family="Helvetica" font-size="14" lengthAdjust="spacing" textLength="252.1436" x="781.5894" y="760.7803">GetNetworkLoadBalancerBackendSet or</text><text fill="#000000" font-family="Helvetica" font-size="14" lengthAdjust="spacing" textLength="235.0264" x="781.5894" y="774.7803">ListNetworkLoadBalancerBackendSet</text></g><g class="message" data-entity-1="part4" data-entity-2="part3" id="msg13"><polygon fill="#0F172A" points="530.8696,832,520.8696,836,530.8696,840,526.8696,836" style="stroke:#0F172A;stroke-width:1;"/><line style="stroke:#0F172A;stroke-width:1;stroke-dasharray:2,2;" x1="524.8696" x2="773.5894" y1="836" y2="836"/><text fill="#000000" font-family="Helvetica" font-size="14" lengthAdjust="spacing" textLength="100.7822" x="536.8696" y="816.7803">status=required,</text><text fill="#000000" font-family="Helvetica" font-size="14" lengthAdjust="spacing" textLength="230.7197" x="536.8696" y="830.7803">finalizer=retain-until-confirmed-delete</text></g><g class="message" data-entity-1="part3" data-entity-2="part2" id="msg14"><polygon fill="#0F172A" points="292.0435,874,282.0435,878,292.0435,882,288.0435,878" style="stroke:#0F172A;stroke-width:1;"/><line style="stroke:#0F172A;stroke-width:1;stroke-dasharray:2,2;" x1="286.0435" x2="518.8696" y1="878" y2="878"/><text fill="#000000" font-family="Helvetica" font-size="14" lengthAdjust="spacing" textLength="214.8262" x="298.0435" y="858.7803">requeue on provisioning, updating,</text><text fill="#000000" font-family="Helvetica" font-size="14" lengthAdjust="spacing" textLength="69.2549" x="298.0435" y="872.7803">terminating</text></g><path d="M779,899 L779,1285 A8,8 0 0 0 787,1293 L1111,1293 A8,8 0 0 0 1119,1285 L1119,901 L1109,891 L787,891 A8,8 0 0 0 779,899" fill="#FFF7D6" style="stroke:#B45309;stroke-width:0.5;"/><path d="M1109,891 L1109,897 A4,4 0 0 0 1113,901 L1119,901 L1109,891" fill="#FFF7D6" style="stroke:#B45309;stroke-width:0.5;"/><text fill="#334155" font-family="Helvetica" font-size="14" lengthAdjust="spacing" textLength="101.165" x="785" y="906.7803">shared diagram:</text><text fill="#334155" font-family="Helvetica" font-size="14" lengthAdjust="spacing" textLength="307.3916" x="785" y="920.7803">shared/diagrams/shared-resolution-sequence.svg</text><text fill="#334155" font-family="Helvetica" font-size="14" lengthAdjust="spacing" textLength="143.1992" x="785" y="934.7803">shared delete diagram:</text><text fill="#334155" font-family="Helvetica" font-size="14" lengthAdjust="spacing" textLength="284.833" x="785" y="948.7803">shared/diagrams/shared-delete-sequence.svg</text><text fill="#334155" font-family="Helvetica" font-size="14" lengthAdjust="spacing" textLength="280.9297" x="785" y="962.7803">Start from the shared resolution sequence for</text><text fill="#334155" font-family="Helvetica" font-size="14" lengthAdjust="spacing" textLength="260.7295" x="785" y="976.7803">OCID binding, datasource pagination, and</text><text fill="#334155" font-family="Helvetica" font-size="14" lengthAdjust="spacing" textLength="163.4268" x="785" y="990.7803">create-or-update dispatch.</text><text fill="#334155" font-family="Helvetica" font-size="14" lengthAdjust="spacing" textLength="301.1982" x="785" y="1004.7803">Layer the shared delete sequence when finalizer</text><text fill="#334155" font-family="Helvetica" font-size="14" lengthAdjust="spacing" textLength="269.2471" x="785" y="1018.7803">retention, delete confirmation, work-request</text><text fill="#334155" font-family="Helvetica" font-size="14" lengthAdjust="spacing" textLength="199.2334" x="785" y="1032.7803">polling, or Secret cleanup apply.</text><text fill="#334155" font-family="Helvetica" font-size="14" lengthAdjust="spacing" textLength="281.709" x="785" y="1046.7803">archetype batch: Generated service-manager</text><text fill="#334155" font-family="Helvetica" font-size="14" lengthAdjust="spacing" textLength="266.1504" x="785" y="1060.7803">controllers follow the shared resolution and</text><text fill="#334155" font-family="Helvetica" font-size="14" lengthAdjust="spacing" textLength="259.9297" x="785" y="1074.7803">delete sequences with imported waits and</text><text fill="#334155" font-family="Helvetica" font-size="14" lengthAdjust="spacing" textLength="134.6064" x="785" y="1088.7803">controller-local policy.</text><text fill="#334155" font-family="Helvetica" font-size="14" lengthAdjust="spacing" textLength="181.3164" x="785" y="1102.7803">service: networkloadbalancer</text><text fill="#334155" font-family="Helvetica" font-size="14" lengthAdjust="spacing" textLength="234.2607" x="785" y="1116.7803">slug: networkloadbalancerbackendset</text><text fill="#334155" font-family="Helvetica" font-size="14" lengthAdjust="spacing" textLength="246.7021" x="785" y="1130.7803">kind: NetworkLoadBalancerBackendSet</text><text fill="#334155" font-family="Helvetica" font-size="14" lengthAdjust="spacing" textLength="241.2402" x="785" y="1144.7803">archetype: generated-service-manager</text><text fill="#334155" font-family="Helvetica" font-size="14" lengthAdjust="spacing" textLength="156.4063" x="785" y="1158.7803">status/finalizer: required /</text><text fill="#334155" font-family="Helvetica" font-size="14" lengthAdjust="spacing" textLength="174.3027" x="785" y="1172.7803">retain-until-confirmed-delete</text><text fill="#334155" font-family="Helvetica" font-size="14" lengthAdjust="spacing" textLength="272.3984" x="785" y="1186.7803">requeue: provisioning, updating, terminating</text><text fill="#334155" font-family="Helvetica" font-size="14" lengthAdjust="spacing" textLength="295.6816" x="785" y="1200.7803">provider states: create PROVISIONING; update</text><text fill="#334155" font-family="Helvetica" font-size="14" lengthAdjust="spacing" textLength="192.165" x="785" y="1214.7803">UPDATING; delete DELETING</text><text fill="#334155" font-family="Helvetica" font-size="14" lengthAdjust="spacing" textLength="319.04" x="785" y="1228.7803">mutable/forceNew: display_name / compartment_id</text><text fill="#334155" font-family="Helvetica" font-size="14" lengthAdjust="spacing" textLength="104.3164" x="785" y="1242.7803">open gaps: none</text><text fill="#334155" font-family="Helvetica" font-size="14" lengthAdjust="spacing" textLength="224.9023" x="785" y="1256.7803">Scaffold metadata only; replace with</text><text fill="#334155" font-family="Helvetica" font-size="14" lengthAdjust="spacing" textLength="244.3232" x="785" y="1270.7803">controller-specific runtime states before</text><text fill="#334155" font-family="Helvetica" font-size="14" lengthAdjust="spacing" textLength="66.1445" x="785" y="1284.7803">promotion.</text><?plantuml-src fLRlRzis4FtEl-BGVMa1AqwQf4qLRC2IT5tGB2dgTPyC51HviebGf4PIyR9X__kE-XN9iPrWGU309e-FxzszEydVAbDonmlmIoxjIfa5v5nxPBxVoRYuNJXR6NbkjNNmGoxeJmuY9EQyqk4NQy8rBn1-HNs7GGc-EMQc_aOuE1fiSkVigaNVpm_UlnsUD3RWsICEUVvUlbkFiawYQoEoe-F3_Gzh4V7wTl_myEZW-7YmNyCBwmmwE7Z7WWeQOOP_LcW4GW86mygwMssvpBZcjEYcrytQ5QsTjMkHAXevmy2MIYBareRC_ZMuo7UO_p00Be9r8-9j0hgjTUNu5a_oVTecCCgnAha9cyyF0vw3CaXEZw5LZbVAZ5FxuOWVPYUq6o7BqPR8v34Uz5kFodQIyromVrcj3JvN6LA-0tesu07dHCHPhT6Dbi-unwyeh15gVUlLpUpcympTdHBu6pTyWUuLS0_ZfT6Hc_DB5Yq1zeuAFiQUh9sZvd0emQ6tkWhAchHTcah55rHJFsr-9myXILVcFN-tw10aQbAxzNIpFJv9NggjonwI1SbFWnobW8RYAvoRdNQS6zS9P0-d8zPOV0hzzzSkCl7X3Hk7n4FZ5ANGWvD8hqZD4tJO6212KabI-8HXzpbR1hAbft_MtbPbd5SwpgXjW5SKknFnTQvqGEVJkH6sY1ufq8JlIax01nxm3ICSI3PeBdWGopWpHSobY6K75R3miMgCwm328OyUSv0fAcJ9mt8Rp_CwTBTsabnsc2MjnRk_VBtvut9sUNDzUVtfVoSryaMQ-r2LiYKidSh3JiRVwjXdC6v1EyRVlbpy_FkBsT8dMg7f6MYTYd8Rw4KTzmooBI2vELUEAXoBUl7nwkDB65C-v-P98_Qwrc_PqAFHcPN_CSgEpJQP4rl3DJrQ7Iq6hanIcQ1qqkhefykZLbuR9dKYAtA0WTBPE-L9FnLjqXGnVfiRwfQ2Rek_cXdgr6998dFOF3ZREVUogVaaogRfEGlKpf0xMq1O8ZmQv0yFuzowsESNTQFMWaakzxPoj5doHQtNcWbmAb3JWebrIMjjgNmPXy4Uk-BtbDN1PItx_gBL4WtqnM9KB9esDV86vqqWsYLftSrAAbBDZVfpXiI29en6RcWCyhBKztkCEx74S5yYlRSHdsXDUg4XYf8OrBL9YhOueg-w9_LQszMM74N5Qoeyh5HOWYfAwoBsYglWczJqg8csWciWpaeGi_RwTDEB5FEwMcpSoPhkyDGTz08bKzZTGRty51QTy6HTUDCxqxu6ZUbZ6y6KxMwUjZlIRRq1mzQeO-ZTg7cC-BIRtCE9VTeEHzODnTFE1ltCAQh0CurJSgYW0RPAQxTfVl_TnBVjAOoVMZGLoM0BNjA5nXfaCy5pgg-4WgH5KrDlw_jJ4aqWqP1KoM7PV8b2vKg0YqcW6nhwa24nmAYgiD4NU_sxoNy0?></g></svg>