<?plantuml 1.2026.1?><svg xmlns="http://www.w3.org/2000/svg" xmlns:xlink="http://www.w3.org/1999/xlink" contentStyleType="text/css" data-diagram-type="ACTIVITY" height="2185px" preserveAspectRatio="none" style="width:1254px;height:2185px;background:#FCFCFD;" version="1.1" viewBox="0 0 1254 2185" width="1254px" zoomAndPan="magnify"><title>Activity - keymanagement/HsmCluster</title><defs/><g><rect fill="#FCFCFD" height="2185" style="stroke:none;stroke-width:1;" width="1254" x="0" y="0"/><g class="title" data-source-line="10"><text fill="#000000" font-family="Helvetica" font-size="14" font-weight="bold" lengthAdjust="spacing" textLength="255.1992" x="498.2642" y="30.7803">Activity - keymanagement/HsmCluster</text></g><ellipse cx="666.4536" cy="55" fill="#1D4ED8" rx="10" ry="10" style="stroke:#222222;stroke-width:1;"/><rect fill="none" height="444" rx="8" ry="8" style="stroke:#000000;stroke-width:1.5;" width="695.1982" x="316.7166" y="75"/><path d="M438.7849,75 L438.7849,82 L428.7849,92 L316.7166,92" fill="none" style="stroke:#000000;stroke-width:1.5;"/><text fill="#000000" font-family="Helvetica" font-size="14" lengthAdjust="spacing" textLength="112.0684" x="319.7166" y="86.7803">Observe and Bind</text><rect fill="#F8FAFC" height="48" rx="8" ry="8" style="stroke:#0F172A;stroke-width:0.5;" width="304.7852" x="514.061" y="109"/><text fill="#0F172A" font-family="Helvetica" font-size="14" lengthAdjust="spacing" textLength="136.9375" x="524.061" y="129.7803">Start from shared flow</text><text fill="#0F172A" font-family="Helvetica" font-size="14" lengthAdjust="spacing" textLength="284.7852" x="524.061" y="143.7803">shared/diagrams/shared-reconcile-activity.svg</text><rect fill="#F8FAFC" height="48" rx="8" ry="8" style="stroke:#0F172A;stroke-width:0.5;" width="312.5645" x="510.1714" y="177"/><text fill="#0F172A" font-family="Helvetica" font-size="14" lengthAdjust="spacing" textLength="292.5645" x="520.1714" y="197.7803">Read desired HsmCluster spec, tracked status,</text><text fill="#0F172A" font-family="Helvetica" font-size="14" lengthAdjust="spacing" textLength="103.5303" x="520.1714" y="211.7803">and delete intent</text><polygon fill="#E2E8F0" points="536.9878,245,795.9194,245,807.9194,257,795.9194,269,536.9878,269,524.9878,257,536.9878,245" style="stroke:#1D4ED8;stroke-width:0.5;"/><text fill="#0F172A" font-family="Helvetica" font-size="14" lengthAdjust="spacing" textLength="258.9316" x="536.9878" y="260.7803">"Tracked or explicit OCI identity present?"</text><text fill="#000000" font-family="Helvetica" font-size="14" lengthAdjust="spacing" textLength="21.7861" x="503.2017" y="253.7803">yes</text><text fill="#000000" font-family="Helvetica" font-size="14" lengthAdjust="spacing" textLength="15.5723" x="807.9194" y="253.7803">no</text><rect fill="#F8FAFC" height="34" rx="8" ry="8" style="stroke:#0F172A;stroke-width:0.5;" width="321.875" x="336.7166" y="279"/><text fill="#0F172A" font-family="Helvetica" font-size="14" lengthAdjust="spacing" textLength="301.875" x="346.7166" y="299.7803">Get the current OCI resource via GetHsmCluster</text><rect fill="#F8FAFC" height="62" rx="8" ry="8" style="stroke:#0F172A;stroke-width:0.5;" width="297.7578" x="686.3743" y="279"/><text fill="#0F172A" font-family="Helvetica" font-size="14" lengthAdjust="spacing" textLength="259.9092" x="696.3743" y="299.7803">Resolve an existing OCI resource through</text><text fill="#0F172A" font-family="Helvetica" font-size="14" lengthAdjust="spacing" textLength="277.7578" x="696.3743" y="313.7803">ListHsmCluster using filters compartment_id,</text><text fill="#0F172A" font-family="Helvetica" font-size="14" lengthAdjust="spacing" textLength="30.3516" x="696.3743" y="327.7803">state</text><rect fill="#F8FAFC" height="48" rx="8" ry="8" style="stroke:#0F172A;stroke-width:0.5;" width="313.3232" x="678.5916" y="361"/><text fill="#0F172A" font-family="Helvetica" font-size="14" lengthAdjust="spacing" textLength="293.3232" x="688.5916" y="381.7803">Create the OCI resource via CreateHsmCluster</text><text fill="#0F172A" font-family="Helvetica" font-size="14" lengthAdjust="spacing" textLength="205.4609" x="688.5916" y="395.7803">when no reusable match is found</text><rect fill="#F8FAFC" height="48" rx="8" ry="8" style="stroke:#0F172A;stroke-width:0.5;" width="286.8955" x="691.8054" y="429"/><text fill="#0F172A" font-family="Helvetica" font-size="14" lengthAdjust="spacing" textLength="266.8955" x="701.8054" y="449.7803">Persist the resolved or created OCI identity</text><text fill="#0F172A" font-family="Helvetica" font-size="14" lengthAdjust="spacing" textLength="63.8135" x="701.8054" y="463.7803">into status</text><polygon fill="#E2E8F0" points="666.4536,483,678.4536,495,666.4536,507,654.4536,495,666.4536,483" style="stroke:#1D4ED8;stroke-width:0.5;"/><polygon fill="#E2E8F0" points="604.2773,539,728.6299,539,740.6299,551,728.6299,563,604.2773,563,592.2773,551,604.2773,539" style="stroke:#1D4ED8;stroke-width:0.5;"/><text fill="#0F172A" font-family="Helvetica" font-size="14" lengthAdjust="spacing" textLength="124.3525" x="604.2773" y="554.7803">"Delete requested?"</text><text fill="#000000" font-family="Helvetica" font-size="14" lengthAdjust="spacing" textLength="21.7861" x="570.4912" y="547.7803">yes</text><text fill="#000000" font-family="Helvetica" font-size="14" lengthAdjust="spacing" textLength="15.5723" x="740.6299" y="547.7803">no</text><rect fill="none" height="340" rx="8" ry="8" style="stroke:#000000;stroke-width:1.5;" width="644.4814" x="11" y="573"/><path d="M61.4688,573 L61.4688,580 L51.4688,590 L11,590" fill="none" style="stroke:#000000;stroke-width:1.5;"/><text fill="#000000" font-family="Helvetica" font-size="14" lengthAdjust="spacing" textLength="40.4688" x="14" y="584.7803">Delete</text><rect fill="#F8FAFC" height="62" rx="8" ry="8" style="stroke:#0F172A;stroke-width:0.5;" width="307.8545" x="185.8169" y="607"/><text fill="#0F172A" font-family="Helvetica" font-size="14" lengthAdjust="spacing" textLength="251.3301" x="195.8169" y="627.7803">Delete path uses DeleteHsmCluster with</text><text fill="#0F172A" font-family="Helvetica" font-size="14" lengthAdjust="spacing" textLength="287.8545" x="195.8169" y="641.7803">required via GetHsmCluster or ListHsmCluster</text><text fill="#0F172A" font-family="Helvetica" font-size="14" lengthAdjust="spacing" textLength="160.2822" x="195.8169" y="655.7803">to DELETED confirmation</text><rect fill="#F8FAFC" height="48" rx="8" ry="8" style="stroke:#0F172A;stroke-width:0.5;" width="295.4131" x="192.0376" y="704"/><text fill="#0F172A" font-family="Helvetica" font-size="14" lengthAdjust="spacing" textLength="239.6338" x="202.0376" y="724.7803">Confirm deletion via GetHsmCluster or</text><text fill="#0F172A" font-family="Helvetica" font-size="14" lengthAdjust="spacing" textLength="275.4131" x="202.0376" y="738.7803">ListHsmCluster until OCI reaches DELETED</text><polygon fill="#E2E8F0" points="191.5718,781,487.9165,781,499.9165,793,487.9165,805,191.5718,805,179.5718,793,191.5718,781" style="stroke:#1D4ED8;stroke-width:0.5;"/><text fill="#0F172A" font-family="Helvetica" font-size="14" lengthAdjust="spacing" textLength="296.3447" x="191.5718" y="796.7803">"Delete cleanup and finalizer release succeed?"</text><text fill="#000000" font-family="Helvetica" font-size="14" lengthAdjust="spacing" textLength="21.7861" x="157.7856" y="789.7803">yes</text><text fill="#000000" font-family="Helvetica" font-size="14" lengthAdjust="spacing" textLength="15.5723" x="499.9165" y="789.7803">no</text><rect fill="#F8FAFC" height="34" rx="8" ry="8" style="stroke:#0F172A;stroke-width:0.5;" width="293.1436" x="23" y="815"/><text fill="#0F172A" font-family="Helvetica" font-size="14" lengthAdjust="spacing" textLength="273.1436" x="33" y="835.7803">Remove the finalizer after delete completion</text><rect fill="#F8FAFC" height="48" rx="8" ry="8" style="stroke:#0F172A;stroke-width:0.5;" width="251.1299" x="384.3516" y="815"/><text fill="#0F172A" font-family="Helvetica" font-size="14" lengthAdjust="spacing" textLength="231.1299" x="394.3516" y="835.7803">Stay blocked until cleanup or finalizer</text><text fill="#0F172A" font-family="Helvetica" font-size="14" lengthAdjust="spacing" textLength="108.9512" x="394.3516" y="849.7803">release succeeds</text><polygon fill="#E2E8F0" points="339.7441,869,351.7441,881,339.7441,893,327.7441,881,339.7441,869" style="stroke:#1D4ED8;stroke-width:0.5;"/><ellipse cx="339.7441" cy="950.5" fill="none" rx="11" ry="11" style="stroke:#222222;stroke-width:1;"/><ellipse cx="339.7441" cy="950.5" fill="#222222" rx="6" ry="6" style="stroke:#222222;stroke-width:1;"/><rect fill="none" height="427.5" rx="8" ry="8" style="stroke:#000000;stroke-width:1.5;" width="345.916" x="826.2051" y="573"/><path d="M977.0391,573 L977.0391,580 L967.0391,590 L826.2051,590" fill="none" style="stroke:#000000;stroke-width:1.5;"/><text fill="#000000" font-family="Helvetica" font-size="14" lengthAdjust="spacing" textLength="140.834" x="829.2051" y="584.7803">Lifecycle Classification</text><rect fill="#F8FAFC" height="48" rx="8" ry="8" style="stroke:#0F172A;stroke-width:0.5;" width="280.5928" x="852.8667" y="656"/><text fill="#0F172A" font-family="Helvetica" font-size="14" lengthAdjust="spacing" textLength="240.4541" x="862.8667" y="676.7803">Request requeue while OCI remains in</text><text fill="#0F172A" font-family="Helvetica" font-size="14" lengthAdjust="spacing" textLength="260.5928" x="862.8667" y="690.7803">PROVISIONING, UPDATING, DELETING</text><ellipse cx="993.1631" cy="750" fill="none" rx="11" ry="11" style="stroke:#222222;stroke-width:1;"/><ellipse cx="993.1631" cy="750" fill="#222222" rx="6" ry="6" style="stroke:#222222;stroke-width:1;"/><polygon fill="#E2E8F0" points="906.8799,607,1079.4463,607,1091.4463,619,1079.4463,631,906.8799,631,894.8799,619,906.8799,607" style="stroke:#1D4ED8;stroke-width:0.5;"/><text fill="#000000" font-family="Helvetica" font-size="14" lengthAdjust="spacing" textLength="21.7861" x="997.1631" y="641.7803">yes</text><text fill="#0F172A" font-family="Helvetica" font-size="14" lengthAdjust="spacing" textLength="172.5664" x="906.8799" y="622.7803">"OCI state in retryable set?"</text><rect fill="#F8FAFC" height="48" rx="8" ry="8" style="stroke:#0F172A;stroke-width:0.5;" width="293.916" x="846.2051" y="870"/><text fill="#0F172A" font-family="Helvetica" font-size="14" lengthAdjust="spacing" textLength="273.916" x="856.2051" y="890.7803">Return an unsuccessful reconcile result until</text><text fill="#0F172A" font-family="Helvetica" font-size="14" lengthAdjust="spacing" textLength="133.041" x="856.2051" y="904.7803">OCI reaches ACTIVE</text><ellipse cx="993.1631" cy="955.5" fill="none" rx="11" ry="11" style="stroke:#222222;stroke-width:1;"/><ellipse cx="993.1631" cy="955.5" fill="#222222" rx="6" ry="6" style="stroke:#222222;stroke-width:1;"/><polygon fill="#E2E8F0" points="872.6421,821,1113.6841,821,1125.6841,833,1113.6841,845,872.6421,845,860.6421,833,872.6421,821" style="stroke:#1D4ED8;stroke-width:0.5;"/><text fill="#000000" font-family="Helvetica" font-size="14" lengthAdjust="spacing" textLength="21.7861" x="997.1631" y="855.7803">yes</text><text fill="#0F172A" font-family="Helvetica" font-size="14" lengthAdjust="spacing" textLength="241.042" x="872.6421" y="836.7803">"OCI state is outside success targets?"</text><rect fill="none" height="722.5" rx="8" ry="8" style="stroke:#000000;stroke-width:1.5;" width="568.2461" x="675.4814" y="1010.5"/><path d="M841.9014,1010.5 L841.9014,1017.5 L831.9014,1027.5 L675.4814,1027.5" fill="none" style="stroke:#000000;stroke-width:1.5;"/><text fill="#000000" font-family="Helvetica" font-size="14" lengthAdjust="spacing" textLength="156.4199" x="678.4814" y="1022.2803">Ready and Drift Handling</text><rect fill="#F8FAFC" height="48" rx="8" ry="8" style="stroke:#0F172A;stroke-width:0.5;" width="296.2402" x="845.043" y="1044.5"/><text fill="#0F172A" font-family="Helvetica" font-size="14" lengthAdjust="spacing" textLength="276.2402" x="855.043" y="1065.2803">Compare live OCI state against the imported</text><text fill="#0F172A" font-family="Helvetica" font-size="14" lengthAdjust="spacing" textLength="75.4824" x="855.043" y="1079.2803">field surface</text><rect fill="#F8FAFC" height="48" rx="8" ry="8" style="stroke:#0F172A;stroke-width:0.5;" width="302.4473" x="841.9395" y="1161.5"/><text fill="#0F172A" font-family="Helvetica" font-size="14" lengthAdjust="spacing" textLength="282.4473" x="851.9395" y="1182.2803">Reject drift before OCI mutation for force-new</text><text fill="#0F172A" font-family="Helvetica" font-size="14" lengthAdjust="spacing" textLength="136.9512" x="851.9395" y="1196.2803">fields compartment_id</text><ellipse cx="993.1631" cy="1242" fill="none" rx="11" ry="11" style="stroke:#222222;stroke-width:1;"/><ellipse cx="993.1631" cy="1242" fill="#222222" rx="6" ry="6" style="stroke:#222222;stroke-width:1;"/><polygon fill="#E2E8F0" points="867.5801,1112.5,1118.7461,1112.5,1130.7461,1124.5,1118.7461,1136.5,867.5801,1136.5,855.5801,1124.5,867.5801,1112.5" style="stroke:#1D4ED8;stroke-width:0.5;"/><text fill="#000000" font-family="Helvetica" font-size="14" lengthAdjust="spacing" textLength="21.7861" x="997.1631" y="1147.2803">yes</text><text fill="#0F172A" font-family="Helvetica" font-size="14" lengthAdjust="spacing" textLength="251.166" x="867.5801" y="1128.2803">"Force-new or conflicting drift detected?"</text><polygon fill="#E2E8F0" points="882.7354,1295,1103.5908,1295,1115.5908,1307,1103.5908,1319,882.7354,1319,870.7354,1307,882.7354,1295" style="stroke:#1D4ED8;stroke-width:0.5;"/><text fill="#0F172A" font-family="Helvetica" font-size="14" lengthAdjust="spacing" textLength="220.8555" x="882.7354" y="1310.7803">"Supported mutable drift detected?"</text><text fill="#000000" font-family="Helvetica" font-size="14" lengthAdjust="spacing" textLength="21.7861" x="848.9492" y="1303.7803">yes</text><text fill="#000000" font-family="Helvetica" font-size="14" lengthAdjust="spacing" textLength="15.5723" x="1115.5908" y="1303.7803">no</text><rect fill="#F8FAFC" height="48" rx="8" ry="8" style="stroke:#0F172A;stroke-width:0.5;" width="317.2402" x="695.4814" y="1329"/><text fill="#0F172A" font-family="Helvetica" font-size="14" lengthAdjust="spacing" textLength="297.2402" x="705.4814" y="1349.7803">Apply UpdateHsmCluster only for mutable fields</text><text fill="#0F172A" font-family="Helvetica" font-size="14" lengthAdjust="spacing" textLength="86.3857" x="705.4814" y="1363.7803">display_name</text><rect fill="#F8FAFC" height="34" rx="8" ry="8" style="stroke:#0F172A;stroke-width:0.5;" width="199.0059" x="1032.7217" y="1329"/><text fill="#0F172A" font-family="Helvetica" font-size="14" lengthAdjust="spacing" textLength="179.0059" x="1042.7217" y="1349.7803">Skip the no-op mutation path</text><polygon fill="#E2E8F0" points="993.1631,1383,1005.1631,1395,993.1631,1407,981.1631,1395,993.1631,1383" style="stroke:#1D4ED8;stroke-width:0.5;"/><rect fill="#F8FAFC" height="118" rx="8" ry="8" style="stroke:#0F172A;stroke-width:0.5;" width="334.3164" x="826.0049" y="1427"/><text fill="#0F172A" font-family="Helvetica" font-size="14" lengthAdjust="spacing" textLength="164.2061" x="836.0049" y="1447.7803">Run provider helper hooks</text><text fill="#0F172A" font-family="Helvetica" font-size="14" lengthAdjust="spacing" textLength="219.0508" x="836.0049" y="1461.7803">create=tfresource.CreateResource,</text><text fill="#0F172A" font-family="Helvetica" font-size="14" lengthAdjust="spacing" textLength="314.3164" x="836.0049" y="1475.7803">tfresource.WaitForWorkRequestWithErrorHandling</text><text fill="#0F172A" font-family="Helvetica" font-size="14" lengthAdjust="spacing" textLength="215.5439" x="836.0049" y="1489.7803">entity=template action=CREATED;</text><text fill="#0F172A" font-family="Helvetica" font-size="14" lengthAdjust="spacing" textLength="226.085" x="836.0049" y="1503.7803">update=tfresource.UpdateResource;</text><text fill="#0F172A" font-family="Helvetica" font-size="14" lengthAdjust="spacing" textLength="273.5537" x="836.0049" y="1517.7803">delete=tfresource.DeleteResource when the</text><text fill="#0F172A" font-family="Helvetica" font-size="14" lengthAdjust="spacing" textLength="220.2334" x="836.0049" y="1531.7803">matching field-driven path executes</text><rect fill="#F8FAFC" height="34" rx="8" ry="8" style="stroke:#0F172A;stroke-width:0.5;" width="303.2197" x="841.5532" y="1565"/><text fill="#0F172A" font-family="Helvetica" font-size="14" lengthAdjust="spacing" textLength="283.2197" x="851.5532" y="1585.7803">Return success for the ACTIVE success state</text><rect fill="#F8FAFC" height="48" rx="8" ry="8" style="stroke:#0F172A;stroke-width:0.5;" width="279.1299" x="853.5981" y="1619"/><text fill="#0F172A" font-family="Helvetica" font-size="14" lengthAdjust="spacing" textLength="259.1299" x="863.5981" y="1639.7803">Project required status and finalizer policy</text><text fill="#0F172A" font-family="Helvetica" font-size="14" lengthAdjust="spacing" textLength="174.3027" x="863.5981" y="1653.7803">retain-until-confirmed-delete</text><rect fill="#F8FAFC" height="34" rx="8" ry="8" style="stroke:#0F172A;stroke-width:0.5;" width="313.4189" x="836.4536" y="1687"/><text fill="#0F172A" font-family="Helvetica" font-size="14" lengthAdjust="spacing" textLength="293.4189" x="846.4536" y="1707.7803">Requeue on provisioning, updating, terminating</text><path d="M697.4536,1743 L697.4536,1954 L677.4536,1958 L697.4536,1962 L697.4536,2173 A0,0 0 0 0 697.4536,2173 L1023.4937,2173 A0,0 0 0 0 1023.4937,2173 L1023.4937,1753 L1013.4937,1743 L697.4536,1743 A0,0 0 0 0 697.4536,1743" fill="#FFF7D6" style="stroke:#B45309;stroke-width:0.5;"/><path d="M1013.4937,1743 L1013.4937,1753 L1023.4937,1753 L1013.4937,1743" fill="#FFF7D6" style="stroke:#B45309;stroke-width:0.5;"/><text fill="#334155" font-family="Helvetica" font-size="14" lengthAdjust="spacing" textLength="101.165" x="703.4536" y="1758.7803">shared diagram:</text><text fill="#334155" font-family="Helvetica" font-size="14" lengthAdjust="spacing" textLength="284.7852" x="703.4536" y="1772.7803">shared/diagrams/shared-reconcile-activity.svg</text><text fill="#334155" font-family="Helvetica" font-size="14" lengthAdjust="spacing" textLength="265.3438" x="703.4536" y="1786.7803">Start from the shared reconcile activity and</text><text fill="#334155" font-family="Helvetica" font-size="14" lengthAdjust="spacing" textLength="273.8955" x="703.4536" y="1800.7803">specialize provider-backed CRUD, wait, and</text><text fill="#334155" font-family="Helvetica" font-size="14" lengthAdjust="spacing" textLength="182.875" x="703.4536" y="1814.7803">status-projection details here.</text><text fill="#334155" font-family="Helvetica" font-size="14" lengthAdjust="spacing" textLength="229.5371" x="703.4536" y="1828.7803">Controller-local activity diagrams add</text><text fill="#334155" font-family="Helvetica" font-size="14" lengthAdjust="spacing" textLength="238.8955" x="703.4536" y="1842.7803">list-lookup hints, secret policies, delete</text><text fill="#334155" font-family="Helvetica" font-size="14" lengthAdjust="spacing" textLength="200.0332" x="703.4536" y="1856.7803">handling, and open formal gaps.</text><text fill="#334155" font-family="Helvetica" font-size="14" lengthAdjust="spacing" textLength="281.709" x="703.4536" y="1870.7803">archetype batch: Generated service-manager</text><text fill="#334155" font-family="Helvetica" font-size="14" lengthAdjust="spacing" textLength="291.0469" x="703.4536" y="1884.7803">controllers specialize the shared reconcile path</text><text fill="#334155" font-family="Helvetica" font-size="14" lengthAdjust="spacing" textLength="189.8477" x="703.4536" y="1898.7803">with formal runtime ownership.</text><text fill="#334155" font-family="Helvetica" font-size="14" lengthAdjust="spacing" textLength="155.627" x="703.4536" y="1912.7803">service: keymanagement</text><text fill="#334155" font-family="Helvetica" font-size="14" lengthAdjust="spacing" textLength="101.1445" x="703.4536" y="1926.7803">slug: hsmcluster</text><text fill="#334155" font-family="Helvetica" font-size="14" lengthAdjust="spacing" textLength="106.5791" x="703.4536" y="1940.7803">kind: HsmCluster</text><text fill="#334155" font-family="Helvetica" font-size="14" lengthAdjust="spacing" textLength="241.2402" x="703.4536" y="1954.7803">archetype: generated-service-manager</text><text fill="#334155" font-family="Helvetica" font-size="14" lengthAdjust="spacing" textLength="156.4063" x="703.4536" y="1968.7803">status/finalizer: required /</text><text fill="#334155" font-family="Helvetica" font-size="14" lengthAdjust="spacing" textLength="174.3027" x="703.4536" y="1982.7803">retain-until-confirmed-delete</text><text fill="#334155" font-family="Helvetica" font-size="14" lengthAdjust="spacing" textLength="272.3984" x="703.4536" y="1996.7803">requeue: provisioning, updating, terminating</text><text fill="#334155" font-family="Helvetica" font-size="14" lengthAdjust="spacing" textLength="295.6816" x="703.4536" y="2010.7803">provider states: create PROVISIONING; update</text><text fill="#334155" font-family="Helvetica" font-size="14" lengthAdjust="spacing" textLength="192.165" x="703.4536" y="2024.7803">UPDATING; delete DELETING</text><text fill="#334155" font-family="Helvetica" font-size="14" lengthAdjust="spacing" textLength="183.6611" x="703.4536" y="2038.7803">supported drift: display_name</text><text fill="#334155" font-family="Helvetica" font-size="14" lengthAdjust="spacing" textLength="230.3301" x="703.4536" y="2052.7803">reject before mutate: force-new fields</text><text fill="#334155" font-family="Helvetica" font-size="14" lengthAdjust="spacing" textLength="100.3789" x="703.4536" y="2066.7803">compartment_id</text><text fill="#334155" font-family="Helvetica" font-size="14" lengthAdjust="spacing" textLength="305.04" x="703.4536" y="2080.7803">list lookup: scaffold_keymanagement_hsmcluster</text><text fill="#334155" font-family="Helvetica" font-size="14" lengthAdjust="spacing" textLength="175.8477" x="703.4536" y="2094.7803">filters compartment_id, state</text><text fill="#334155" font-family="Helvetica" font-size="14" lengthAdjust="spacing" textLength="89.4961" x="703.4536" y="2108.7803">conflicts: none</text><text fill="#334155" font-family="Helvetica" font-size="14" lengthAdjust="spacing" textLength="104.3164" x="703.4536" y="2122.7803">open gaps: none</text><text fill="#334155" font-family="Helvetica" font-size="14" lengthAdjust="spacing" textLength="224.9023" x="703.4536" y="2136.7803">Scaffold metadata only; replace with</text><text fill="#334155" font-family="Helvetica" font-size="14" lengthAdjust="spacing" textLength="244.3232" x="703.4536" y="2150.7803">controller-specific runtime states before</text><text fill="#334155" font-family="Helvetica" font-size="14" lengthAdjust="spacing" textLength="66.1445" x="703.4536" y="2164.7803">promotion.</text><ellipse cx="666.4536" cy="1958" fill="none" rx="11" ry="11" style="stroke:#222222;stroke-width:1;"/><ellipse cx="666.4536" cy="1958" fill="#222222" rx="6" ry="6" style="stroke:#222222;stroke-width:1;"/><line style="stroke:#0F172A;stroke-width:1;" x1="666.4536" x2="666.4536" y1="157" y2="177"/><polygon fill="#0F172A" points="662.4536,167,666.4536,177,670.4536,167,666.4536,171" style="stroke:#0F172A;stroke-width:1;"/><line style="stroke:#0F172A;stroke-width:1;" x1="835.2532" x2="835.2532" y1="341" y2="361"/><polygon fill="#0F172A" points="831.2532,351,835.2532,361,839.2532,351,835.2532,355" style="stroke:#0F172A;stroke-width:1;"/><line style="stroke:#0F172A;stroke-width:1;" x1="835.2532" x2="835.2532" y1="409" y2="429"/><polygon fill="#0F172A" points="831.2532,419,835.2532,429,839.2532,419,835.2532,423" style="stroke:#0F172A;stroke-width:1;"/><line style="stroke:#0F172A;stroke-width:1;" x1="524.9878" x2="497.6541" y1="257" y2="257"/><line style="stroke:#0F172A;stroke-width:1;" x1="497.6541" x2="497.6541" y1="257" y2="279"/><polygon fill="#0F172A" points="493.6541,269,497.6541,279,501.6541,269,497.6541,273" style="stroke:#0F172A;stroke-width:1;"/><line style="stroke:#0F172A;stroke-width:1;" x1="807.9194" x2="835.2532" y1="257" y2="257"/><line style="stroke:#0F172A;stroke-width:1;" x1="835.2532" x2="835.2532" y1="257" y2="279"/><polygon fill="#0F172A" points="831.2532,269,835.2532,279,839.2532,269,835.2532,273" style="stroke:#0F172A;stroke-width:1;"/><line style="stroke:#0F172A;stroke-width:1;" x1="497.6541" x2="497.6541" y1="313" y2="495"/><line style="stroke:#0F172A;stroke-width:1;" x1="497.6541" x2="654.4536" y1="495" y2="495"/><polygon fill="#0F172A" points="644.4536,491,654.4536,495,644.4536,499,648.4536,495" style="stroke:#0F172A;stroke-width:1;"/><line style="stroke:#0F172A;stroke-width:1;" x1="835.2532" x2="835.2532" y1="477" y2="495"/><line style="stroke:#0F172A;stroke-width:1;" x1="835.2532" x2="678.4536" y1="495" y2="495"/><polygon fill="#0F172A" points="688.4536,491,678.4536,495,688.4536,499,684.4536,495" style="stroke:#0F172A;stroke-width:1;"/><line style="stroke:#0F172A;stroke-width:1;" x1="666.4536" x2="666.4536" y1="225" y2="245"/><polygon fill="#0F172A" points="662.4536,235,666.4536,245,670.4536,235,666.4536,239" style="stroke:#0F172A;stroke-width:1;"/><line style="stroke:#0F172A;stroke-width:1;" x1="666.4536" x2="666.4536" y1="65" y2="109"/><polygon fill="#0F172A" points="662.4536,99,666.4536,109,670.4536,99,666.4536,103" style="stroke:#0F172A;stroke-width:1;"/><line style="stroke:#0F172A;stroke-width:1;" x1="339.7441" x2="339.7441" y1="669" y2="704"/><polygon fill="#0F172A" points="335.7441,694,339.7441,704,343.7441,694,339.7441,698" style="stroke:#0F172A;stroke-width:1;"/><line style="stroke:#0F172A;stroke-width:1;" x1="179.5718" x2="169.5718" y1="793" y2="793"/><line style="stroke:#0F172A;stroke-width:1;" x1="169.5718" x2="169.5718" y1="793" y2="815"/><polygon fill="#0F172A" points="165.5718,805,169.5718,815,173.5718,805,169.5718,809" style="stroke:#0F172A;stroke-width:1;"/><line style="stroke:#0F172A;stroke-width:1;" x1="499.9165" x2="509.9165" y1="793" y2="793"/><line style="stroke:#0F172A;stroke-width:1;" x1="509.9165" x2="509.9165" y1="793" y2="815"/><polygon fill="#0F172A" points="505.9165,805,509.9165,815,513.9165,805,509.9165,809" style="stroke:#0F172A;stroke-width:1;"/><line style="stroke:#0F172A;stroke-width:1;" x1="169.5718" x2="169.5718" y1="849" y2="881"/><line style="stroke:#0F172A;stroke-width:1;" x1="169.5718" x2="327.7441" y1="881" y2="881"/><polygon fill="#0F172A" points="317.7441,877,327.7441,881,317.7441,885,321.7441,881" style="stroke:#0F172A;stroke-width:1;"/><line style="stroke:#0F172A;stroke-width:1;" x1="509.9165" x2="509.9165" y1="863" y2="881"/><line style="stroke:#0F172A;stroke-width:1;" x1="509.9165" x2="351.7441" y1="881" y2="881"/><polygon fill="#0F172A" points="361.7441,877,351.7441,881,361.7441,885,357.7441,881" style="stroke:#0F172A;stroke-width:1;"/><line style="stroke:#0F172A;stroke-width:1;" x1="339.7441" x2="339.7441" y1="752" y2="781"/><polygon fill="#0F172A" points="335.7441,771,339.7441,781,343.7441,771,339.7441,775" style="stroke:#0F172A;stroke-width:1;"/><line style="stroke:#0F172A;stroke-width:1;" x1="339.7441" x2="339.7441" y1="893" y2="939.5"/><polygon fill="#0F172A" points="335.7441,929.5,339.7441,939.5,343.7441,929.5,339.7441,933.5" style="stroke:#0F172A;stroke-width:1;"/><line style="stroke:#0F172A;stroke-width:1;" x1="993.1631" x2="993.1631" y1="704" y2="739"/><polygon fill="#0F172A" points="989.1631,729,993.1631,739,997.1631,729,993.1631,733" style="stroke:#0F172A;stroke-width:1;"/><line style="stroke:#0F172A;stroke-width:1;" x1="993.1631" x2="993.1631" y1="631" y2="656"/><polygon fill="#0F172A" points="989.1631,646,993.1631,656,997.1631,646,993.1631,650" style="stroke:#0F172A;stroke-width:1;"/><line style="stroke:#0F172A;stroke-width:1;" x1="1091.4463" x2="1143.4595" y1="619" y2="619"/><polygon fill="#0F172A" points="1139.4595,695.5,1143.4595,705.5,1147.4595,695.5,1143.4595,699.5" style="stroke:#0F172A;stroke-width:1;"/><line style="stroke:#0F172A;stroke-width:1;" x1="1143.4595" x2="1143.4595" y1="619" y2="786"/><line style="stroke:#0F172A;stroke-width:1;" x1="1143.4595" x2="993.1631" y1="786" y2="786"/><line style="stroke:#0F172A;stroke-width:1;" x1="993.1631" x2="993.1631" y1="786" y2="821"/><polygon fill="#0F172A" points="989.1631,811,993.1631,821,997.1631,811,993.1631,815" style="stroke:#0F172A;stroke-width:1;"/><line style="stroke:#0F172A;stroke-width:1;" x1="993.1631" x2="993.1631" y1="918" y2="944.5"/><polygon fill="#0F172A" points="989.1631,934.5,993.1631,944.5,997.1631,934.5,993.1631,938.5" style="stroke:#0F172A;stroke-width:1;"/><line style="stroke:#0F172A;stroke-width:1;" x1="993.1631" x2="993.1631" y1="845" y2="870"/><polygon fill="#0F172A" points="989.1631,860,993.1631,870,997.1631,860,993.1631,864" style="stroke:#0F172A;stroke-width:1;"/><line style="stroke:#0F172A;stroke-width:1;" x1="1125.6841" x2="1150.1211" y1="833" y2="833"/><polygon fill="#0F172A" points="1146.1211,909.5,1150.1211,919.5,1154.1211,909.5,1150.1211,913.5" style="stroke:#0F172A;stroke-width:1;"/><line style="stroke:#0F172A;stroke-width:1;" x1="1150.1211" x2="1150.1211" y1="833" y2="988.5"/><line style="stroke:#0F172A;stroke-width:1;" x1="1150.1211" x2="993.1631" y1="988.5" y2="988.5"/><line style="stroke:#0F172A;stroke-width:1;" x1="993.1631" x2="993.1631" y1="988.5" y2="1044.5"/><polygon fill="#0F172A" points="989.1631,1034.5,993.1631,1044.5,997.1631,1034.5,993.1631,1038.5" style="stroke:#0F172A;stroke-width:1;"/><line style="stroke:#0F172A;stroke-width:1;" x1="993.1631" x2="993.1631" y1="1209.5" y2="1231"/><polygon fill="#0F172A" points="989.1631,1221,993.1631,1231,997.1631,1221,993.1631,1225" style="stroke:#0F172A;stroke-width:1;"/><line style="stroke:#0F172A;stroke-width:1;" x1="993.1631" x2="993.1631" y1="1136.5" y2="1161.5"/><polygon fill="#0F172A" points="989.1631,1151.5,993.1631,1161.5,997.1631,1151.5,993.1631,1155.5" style="stroke:#0F172A;stroke-width:1;"/><line style="stroke:#0F172A;stroke-width:1;" x1="1130.7461" x2="1154.3867" y1="1124.5" y2="1124.5"/><polygon fill="#0F172A" points="1150.3867,1201,1154.3867,1211,1158.3867,1201,1154.3867,1205" style="stroke:#0F172A;stroke-width:1;"/><line style="stroke:#0F172A;stroke-width:1;" x1="1154.3867" x2="1154.3867" y1="1124.5" y2="1275"/><line style="stroke:#0F172A;stroke-width:1;" x1="1154.3867" x2="993.1631" y1="1275" y2="1275"/><line style="stroke:#0F172A;stroke-width:1;" x1="993.1631" x2="993.1631" y1="1275" y2="1295"/><polygon fill="#0F172A" points="989.1631,1285,993.1631,1295,997.1631,1285,993.1631,1289" style="stroke:#0F172A;stroke-width:1;"/><line style="stroke:#0F172A;stroke-width:1;" x1="993.1631" x2="993.1631" y1="1092.5" y2="1112.5"/><polygon fill="#0F172A" points="989.1631,1102.5,993.1631,1112.5,997.1631,1102.5,993.1631,1106.5" style="stroke:#0F172A;stroke-width:1;"/><line style="stroke:#0F172A;stroke-width:1;" x1="870.7354" x2="854.1016" y1="1307" y2="1307"/><line style="stroke:#0F172A;stroke-width:1;" x1="854.1016" x2="854.1016" y1="1307" y2="1329"/><polygon fill="#0F172A" points="850.1016,1319,854.1016,1329,858.1016,1319,854.1016,1323" style="stroke:#0F172A;stroke-width:1;"/><line style="stroke:#0F172A;stroke-width:1;" x1="1115.5908" x2="1132.2246" y1="1307" y2="1307"/><line style="stroke:#0F172A;stroke-width:1;" x1="1132.2246" x2="1132.2246" y1="1307" y2="1329"/><polygon fill="#0F172A" points="1128.2246,1319,1132.2246,1329,1136.2246,1319,1132.2246,1323" style="stroke:#0F172A;stroke-width:1;"/><line style="stroke:#0F172A;stroke-width:1;" x1="854.1016" x2="854.1016" y1="1377" y2="1395"/><line style="stroke:#0F172A;stroke-width:1;" x1="854.1016" x2="981.1631" y1="1395" y2="1395"/><polygon fill="#0F172A" points="971.1631,1391,981.1631,1395,971.1631,1399,975.1631,1395" style="stroke:#0F172A;stroke-width:1;"/><line style="stroke:#0F172A;stroke-width:1;" x1="1132.2246" x2="1132.2246" y1="1363" y2="1395"/><line style="stroke:#0F172A;stroke-width:1;" x1="1132.2246" x2="1005.1631" y1="1395" y2="1395"/><polygon fill="#0F172A" points="1015.1631,1391,1005.1631,1395,1015.1631,1399,1011.1631,1395" style="stroke:#0F172A;stroke-width:1;"/><line style="stroke:#0F172A;stroke-width:1;" x1="993.1631" x2="993.1631" y1="1407" y2="1427"/><polygon fill="#0F172A" points="989.1631,1417,993.1631,1427,997.1631,1417,993.1631,1421" style="stroke:#0F172A;stroke-width:1;"/><line style="stroke:#0F172A;stroke-width:1;" x1="993.1631" x2="993.1631" y1="1545" y2="1565"/><polygon fill="#0F172A" points="989.1631,1555,993.1631,1565,997.1631,1555,993.1631,1559" style="stroke:#0F172A;stroke-width:1;"/><line style="stroke:#0F172A;stroke-width:1;" x1="993.1631" x2="993.1631" y1="1599" y2="1619"/><polygon fill="#0F172A" points="989.1631,1609,993.1631,1619,997.1631,1609,993.1631,1613" style="stroke:#0F172A;stroke-width:1;"/><line style="stroke:#0F172A;stroke-width:1;" x1="993.1631" x2="993.1631" y1="1667" y2="1687"/><polygon fill="#0F172A" points="989.1631,1677,993.1631,1687,997.1631,1677,993.1631,1681" style="stroke:#0F172A;stroke-width:1;"/><line style="stroke:#0F172A;stroke-width:1;" x1="592.2773" x2="339.7441" y1="551" y2="551"/><line style="stroke:#0F172A;stroke-width:1;" x1="339.7441" x2="339.7441" y1="551" y2="607"/><polygon fill="#0F172A" points="335.7441,597,339.7441,607,343.7441,597,339.7441,601" style="stroke:#0F172A;stroke-width:1;"/><line style="stroke:#0F172A;stroke-width:1;" x1="740.6299" x2="993.1631" y1="551" y2="551"/><line style="stroke:#0F172A;stroke-width:1;" x1="993.1631" x2="993.1631" y1="551" y2="607"/><polygon fill="#0F172A" points="989.1631,597,993.1631,607,997.1631,597,993.1631,601" style="stroke:#0F172A;stroke-width:1;"/><line style="stroke:#0F172A;stroke-width:1;" x1="993.1631" x2="993.1631" y1="1721" y2="1738"/><line style="stroke:#0F172A;stroke-width:1;" x1="993.1631" x2="666.4536" y1="1738" y2="1738"/><line style="stroke:#0F172A;stroke-width:1;" x1="666.4536" x2="666.4536" y1="1738" y2="1947"/><polygon fill="#0F172A" points="662.4536,1937,666.4536,1947,670.4536,1937,666.4536,1941" style="stroke:#0F172A;stroke-width:1;"/><line style="stroke:#0F172A;stroke-width:1;" x1="666.4536" x2="666.4536" y1="507" y2="539"/><polygon fill="#0F172A" points="662.4536,529,666.4536,539,670.4536,529,666.4536,533" style="stroke:#0F172A;stroke-width:1;"/><?plantuml-src bLTTRzis57tNho2obnQ8awPDFoQZ658dRG8KJP2axOk1W9QkR2uKgP6KFM_eVz_XXsJPpeeDHL5BlBeyz_3SmrlxA5J33Q-PNV1IhuIQiufBIvdjLsQyU9mRtQfoegKsx9Ugm9zo455InLlfFchbll2Qs2N99JbHyATZxiHVn4vE1ulS6BrAsLzK9szV3hzKsj67FGnLzRPyinkbJKacHSnENxzwyUjEXDy-hRzwTNho-lLWFQGlj55asCcRp0adYPqLJYo5MxCHUwHrpHMVKqtA7L_QUY9RwyWCw-YY_yxO4xozgtXL-9KXpbGlOzK6M_-k5BpMgjmhdrxIk-h5862OyQGyfVBTPl7Z4ucjuyRjnbEVlu-RyPsiFxBmQOQ2mP3GYXrSpooP9J6kIlP1gF80vUTtFefLHWTf6IfP9VLggkB3CQ3DmPWzZiyZGuLMXP0qwZWyiilvECjlYPSGZnK-nOPqPXig3fapO0OBmEHQUpXL7aD9aXmneHmEQfo9YZqxk4-1g8J-RAGeX6FNaoicIiJu4siCMVpyxU0vSmjIxDcQxFCi_qJEFxEYDGRBuHj4wjOKn9Q2CmHiK8qpGk-mPqe_zyYjbe4MR2ciyxsrzRbRu4ZdYwdwZDL1QQqDRIWa7YmhTEsvzg9x42LAzBKIc9aOme-0RWzLNDladAgLBqffXBMMpw3ichjYmOI5xg0hvBl1RW0I4fg8FV1LX5pb5brJ1NPreXrLgr9Ka4QW-ZpIR-YFbh1tkKFfG3WnCiWbVTHmjq3zP5byCM1b9Hoeybc35FQuzr2tYPnwYESNdo_kByv1ewg4GT7OsPCN7wDMF9YdyksV38gNYMrUB3pCc7wyLNeXYQks2GrH2SKb3C_W4xo6EcnR5BH72-HIwsKypiqtlFBR9a5x9KIqMpf3fwtPJEgWxuYm0m1A-boUkoq0WtEpJZU3b8CZ-YmgAjR8noQIMoigkBfVyOSMIlPa14MYtr2YC-kWBajkly0WY2YCbjXgWNPFPDPSA8iCKtLpU_tjwkxg-ilLbq-7xElD-Tbz-1M8ngzn0XkGxoAmJBVEGgInHciPN6XEpkvZSQrHlZLRbKAhLhBUXNm3uBQAT4xLyCJF9lTNtowsOFmOCkODQnsE_jo8oh5B_9Hew23pIMXcOb8iO-aHE9_x-cFhYRhH1cqpXK19mjfQK_62ai8-QhJuID4gT2P432iBpbA6pKhef71FYUjtl4z1CwgqYTlNhGl72HCm_c_CdRRUzPvzwk_Q9e8DYVov_np6MTF8DVlQb5lcnBJ2Mu-WonAtds8ZsqY-Vb2OAhOr_oYQm9RI8zriol3-qSawlstnmkWbz63OWcJZ_z7w4OcZfxrtLUUQHz4nRzCZR7QmzfqB32xckpQFISJVOKON65fCTxfJ5OtnlICqQJZJmYDwFxczEFC6CKK_bZjxHYAwFH4I6tqO4Xsb2s71nL7tL0NxZlS4k1g1zoN5-d7RKD4wikDUvrqtU8uzQr73_UlkHhanEiYaDzdexpi-rcXeRktjn46rez0YesIlkCbZ3UFKx-XpdKx1WWu0FcI1YF0BXryZhtyOeulYkGMH-M6D6J5Vk2oD3sbYoBF_DK5aWpd4LvwIRHgz7zbGPEQ72X7Ax8KpciN1ONBxzVoGhQ24mnWQg1araJAllTBp8IsKPkWemmNZZ9OI6M3DN6uswe0pNfQPn0M30Fq8jyPnEdi8wuGwNQHP45v4HhD5abhOd-c6GjVMI3tdZJtAk84_kNL36DgWZHpN6KRPS7Nx-KoWj-FyQhAY1sVPeEOd2VAIolpbs-rc_8bZojShfBSBqHnbAN--FIDdLhRpd2riNQH96ODocG-ck0tcdCqxjADTj97gurw1-KQWnzbFLPYbkoR_BmhCUgy8_M3pDFcmuPKqZjzIrjrCu-vsxYwepFQc6CmmPqCN0wBGOic3Wt41Nc-zoVgoRUSDCc5H9Zcp1QygBSk7BROV1Zp_o-mO2ykwQmCLAgqe2rBo6ahFToa_gy4jYkN1eCTW7MLu4u8O1X8Q1GLXCEYL4VbBDNfQQ-qxvCWtUFXls3y0?></g></svg>