<?plantuml 1.2026.1?><svg xmlns="http://www.w3.org/2000/svg" xmlns:xlink="http://www.w3.org/1999/xlink" contentStyleType="text/css" data-diagram-type="SEQUENCE" height="2034px" preserveAspectRatio="none" style="width:1232px;height:2034px;background:#FCFCFD;" version="1.1" viewBox="0 0 1232 2034" width="1232px" zoomAndPan="magnify"><title>Sequence - database/DatabaseDbSystemShapes</title><defs/><g><rect fill="#FCFCFD" height="2034" style="stroke:none;stroke-width:1;" width="1232" x="0" y="0"/><text fill="#000000" font-family="Helvetica" font-size="14" font-weight="bold" lengthAdjust="spacing" textLength="323.6885" x="460.6345" y="25.7803">Sequence - database/DatabaseDbSystemShapes</text><rect fill="none" height="290" rx="8" ry="8" style="stroke:#CBD5E1;stroke-width:1.5;" width="738.3779" x="470.9834" y="342"/><rect fill="none" height="146" rx="8" ry="8" style="stroke:#CBD5E1;stroke-width:1.5;" width="475.9575" x="723.4038" y="451"/><rect fill="none" height="44" rx="8" ry="8" style="stroke:#CBD5E1;stroke-width:1.5;" width="455.9575" x="733.4038" y="502"/><rect fill="none" height="826" rx="8" ry="8" style="stroke:#CBD5E1;stroke-width:1.5;" width="774.9741" x="450.9834" y="646"/><rect fill="none" height="274" rx="8" ry="8" style="stroke:#CBD5E1;stroke-width:1.5;" width="738.3779" x="460.9834" y="669"/><rect fill="none" height="58" rx="8" ry="8" style="stroke:#CBD5E1;stroke-width:1.5;" width="455.9575" x="733.4038" y="776"/><rect fill="none" height="88" rx="8" ry="8" style="stroke:#CBD5E1;stroke-width:1.5;" width="438.813" x="470.9834" y="848"/><rect fill="none" height="378" rx="8" ry="8" style="stroke:#CBD5E1;stroke-width:1.5;" width="754.9741" x="460.9834" y="1045"/><rect fill="none" height="44" rx="8" ry="8" style="stroke:#CBD5E1;stroke-width:1.5;" width="438.813" x="470.9834" y="1144"/><rect fill="none" height="116" rx="8" ry="8" style="stroke:#CBD5E1;stroke-width:1.5;" width="475.9575" x="723.4038" y="1202"/><rect fill="none" height="44" rx="8" ry="8" style="stroke:#CBD5E1;stroke-width:1.5;" width="455.9575" x="733.4038" y="1267"/><g class="participant-lifeline" data-entity-uid="part1" data-qualified-name="Kubernetes" id="part1-lifeline"><g><title>Kubernetes</title><rect fill="#000000" fill-opacity="0.00000" height="1913" width="8" x="39.8032" y="114"/><line style="stroke:#94A3B8;stroke-width:0.5;stroke-dasharray:5,5;" x1="43" x2="43" y1="114" y2="2027"/></g></g><g class="participant-lifeline" data-entity-uid="part2" data-qualified-name="Controller" id="part2-lifeline"><g><title>Controller</title><rect fill="#000000" fill-opacity="0.00000" height="1913" width="8" x="294.1812" y="114"/><line style="stroke:#94A3B8;stroke-width:0.5;stroke-dasharray:5,5;" x1="297.8364" x2="297.8364" y1="114" y2="2027"/></g></g><g class="participant-lifeline" data-entity-uid="part3" data-qualified-name="BaseReconciler" id="part3-lifeline"><g><title>BaseReconciler</title><rect fill="#000000" fill-opacity="0.00000" height="1913" width="8" x="533.0073" y="114"/><line style="stroke:#94A3B8;stroke-width:0.5;stroke-dasharray:5,5;" x1="536.9834" x2="536.9834" y1="114" y2="2027"/></g></g><g class="participant-lifeline" data-entity-uid="part4" data-qualified-name="ServiceManager" id="part4-lifeline"><g><title>OSOKServiceManager</title><rect fill="#000000" fill-opacity="0.00000" height="1913" width="8" x="817.6001" y="114"/><line style="stroke:#94A3B8;stroke-width:0.5;stroke-dasharray:5,5;" x1="821.4038" x2="821.4038" y1="114" y2="2027"/></g></g><g class="participant-lifeline" data-entity-uid="part5" data-qualified-name="OCI" id="part5-lifeline"><g><title>OCI</title><rect fill="#000000" fill-opacity="0.00000" height="1913" width="8" x="1155.9165" y="114"/><line style="stroke:#94A3B8;stroke-width:0.5;stroke-dasharray:5,5;" x1="1159.4717" x2="1159.4717" y1="114" y2="2027"/></g></g><g class="participant participant-head" data-entity-uid="part1" data-qualified-name="Kubernetes" id="part1-head"><text fill="#000000" font-family="Helvetica" font-size="14" lengthAdjust="spacing" textLength="71.6064" x="5" y="110.7803">Kubernetes</text><ellipse cx="43.8032" cy="48.5" fill="#E2E8F0" rx="8" ry="8" style="stroke:#0F172A;stroke-width:0.5;"/><path d="M43.8032,56.5 L43.8032,83.5 M30.8032,64.5 L56.8032,64.5 M43.8032,83.5 L30.8032,98.5 M43.8032,83.5 L56.8032,98.5" fill="none" style="stroke:#0F172A;stroke-width:0.5;"/></g><g class="participant participant-head" data-entity-uid="part2" data-qualified-name="Controller" id="part2-head"><rect fill="#E2E8F0" height="28" rx="8" ry="8" style="stroke:#0F172A;stroke-width:0.5;" width="74.6895" x="260.8364" y="85"/><text fill="#0F172A" font-family="Helvetica" font-size="14" lengthAdjust="spacing" textLength="60.6895" x="267.8364" y="102.7803">Controller</text></g><g class="participant participant-head" data-entity-uid="part3" data-qualified-name="BaseReconciler" id="part3-head"><rect fill="#E2E8F0" height="28" rx="8" ry="8" style="stroke:#0F172A;stroke-width:0.5;" width="112.0479" x="480.9834" y="85"/><text fill="#0F172A" font-family="Helvetica" font-size="14" lengthAdjust="spacing" textLength="98.0479" x="487.9834" y="102.7803">BaseReconciler</text></g><g class="participant participant-head" data-entity-uid="part4" data-qualified-name="ServiceManager" id="part4-head"><rect fill="#E2E8F0" height="28" rx="8" ry="8" style="stroke:#0F172A;stroke-width:0.5;" width="156.3926" x="743.4038" y="85"/><text fill="#0F172A" font-family="Helvetica" font-size="14" lengthAdjust="spacing" textLength="142.3926" x="750.4038" y="102.7803">OSOKServiceManager</text></g><g class="participant participant-head" data-entity-uid="part5" data-qualified-name="OCI" id="part5-head"><rect fill="#E2E8F0" height="28" rx="8" ry="8" style="stroke:#0F172A;stroke-width:0.5;" width="38.8896" x="1140.4717" y="85"/><text fill="#0F172A" font-family="Helvetica" font-size="14" lengthAdjust="spacing" textLength="24.8896" x="1147.4717" y="102.7803">OCI</text></g><path d="M472,137 L472,187 A8,8 0 0 0 480,195 L877,195 A8,8 0 0 0 885,187 L885,139 L875,129 L480,129 A8,8 0 0 0 472,137" fill="#FFF7D6" style="stroke:#B45309;stroke-width:0.5;"/><path d="M875,129 L875,135 A4,4 0 0 0 879,139 L885,139 L875,129" fill="#FFF7D6" style="stroke:#B45309;stroke-width:0.5;"/><text fill="#334155" font-family="Helvetica" font-size="14" lengthAdjust="spacing" textLength="111.2891" x="520.7107" y="144.7803">shared resolution:</text><text fill="#334155" font-family="Helvetica" font-size="14" lengthAdjust="spacing" textLength="307.3916" x="520.7107" y="158.7803">shared/diagrams/shared-resolution-sequence.svg</text><text fill="#334155" font-family="Helvetica" font-size="14" lengthAdjust="spacing" textLength="88.7305" x="520.7107" y="172.7803">shared delete:</text><text fill="#334155" font-family="Helvetica" font-size="14" lengthAdjust="spacing" textLength="284.833" x="520.7107" y="186.7803">shared/diagrams/shared-delete-sequence.svg</text><g class="message" data-entity-1="part1" data-entity-2="part2" id="msg1"><polygon fill="#0F172A" points="286.1812,230,296.1812,234,286.1812,238,290.1812,234" style="stroke:#0F172A;stroke-width:1;"/><line style="stroke:#0F172A;stroke-width:1;" x1="43.8032" x2="292.1812" y1="234" y2="234"/><text fill="#000000" font-family="Helvetica" font-size="14" lengthAdjust="spacing" textLength="230.3779" x="50.8032" y="214.7803">enqueue DatabaseDbSystemShapes</text><text fill="#000000" font-family="Helvetica" font-size="14" lengthAdjust="spacing" textLength="56.0273" x="50.8032" y="228.7803">reconcile</text></g><g class="message" data-entity-1="part2" data-entity-2="part3" id="msg2"><polygon fill="#0F172A" points="525.0073,258,535.0073,262,525.0073,266,529.0073,262" style="stroke:#0F172A;stroke-width:1;"/><line style="stroke:#0F172A;stroke-width:1;" x1="298.1812" x2="531.0073" y1="262" y2="262"/><text fill="#000000" font-family="Helvetica" font-size="14" lengthAdjust="spacing" textLength="117.4961" x="305.1812" y="256.7803">Reconcile(request)</text></g><g class="message" data-entity-1="part3" data-entity-2="part4" id="msg3"><polygon fill="#0F172A" points="809.6001,300,819.6001,304,809.6001,308,813.6001,304" style="stroke:#0F172A;stroke-width:1;"/><line style="stroke:#0F172A;stroke-width:1;" x1="537.0073" x2="815.6001" y1="304" y2="304"/><text fill="#000000" font-family="Helvetica" font-size="14" lengthAdjust="spacing" textLength="105.834" x="544.0073" y="284.7803">reconcile desired</text><text fill="#000000" font-family="Helvetica" font-size="14" lengthAdjust="spacing" textLength="171.9854" x="544.0073" y="298.7803">DatabaseDbSystemShapes</text></g><path d="M478.9834,342 L532.3213,342 L532.3213,348 L522.3213,358 L470.9834,358 L470.9834,350 A8,8 0 0 1 478.9834,342" fill="#F8FAFC" style="stroke:#CBD5E1;stroke-width:1.5;"/><rect fill="none" height="290" rx="8" ry="8" style="stroke:#CBD5E1;stroke-width:1.5;" width="738.3779" x="470.9834" y="342"/><text fill="#000000" font-family="Helvetica" font-size="14" font-weight="bold" lengthAdjust="spacing" textLength="16.3379" x="485.9834" y="353.7803">alt</text><text fill="#000000" font-family="Helvetica" font-size="14" font-weight="bold" lengthAdjust="spacing" textLength="308.1094" x="547.3213" y="354.7803">[tracked or explicit OCI identity already exists]</text><g class="message" data-entity-1="part4" data-entity-2="part5" id="msg4"><polygon fill="#0F172A" points="1147.9165,374,1157.9165,378,1147.9165,382,1151.9165,378" style="stroke:#0F172A;stroke-width:1;"/><line style="stroke:#0F172A;stroke-width:1;" x1="821.6001" x2="1153.9165" y1="378" y2="378"/><text fill="#000000" font-family="Helvetica" font-size="14" lengthAdjust="spacing" textLength="194.5508" x="828.6001" y="372.7803">GetDatabaseDbSystemShapes</text></g><line style="stroke:#CBD5E1;stroke-width:1;stroke-dasharray:2,2;" x1="470.9834" x2="1209.3613" y1="387" y2="387"/><text fill="#000000" font-family="Helvetica" font-size="14" font-weight="bold" lengthAdjust="spacing" textLength="185.1582" x="475.9834" y="397.7803">[tracked identity is missing]</text><g class="message" data-entity-1="part4" data-entity-2="part5" id="msg5"><polygon fill="#0F172A" points="1147.9165,432,1157.9165,436,1147.9165,440,1151.9165,436" style="stroke:#0F172A;stroke-width:1;"/><line style="stroke:#0F172A;stroke-width:1;" x1="821.6001" x2="1153.9165" y1="436" y2="436"/><text fill="#000000" font-family="Helvetica" font-size="14" lengthAdjust="spacing" textLength="235.7715" x="828.6001" y="416.7803">ListDatabaseDbSystemShapes(filters:</text><text fill="#000000" font-family="Helvetica" font-size="14" lengthAdjust="spacing" textLength="143.1719" x="828.6001" y="430.7803">compartment_id, state)</text></g><path d="M731.4038,451 L784.7417,451 L784.7417,457 L774.7417,467 L723.4038,467 L723.4038,459 A8,8 0 0 1 731.4038,451" fill="#F8FAFC" style="stroke:#CBD5E1;stroke-width:1.5;"/><rect fill="none" height="146" rx="8" ry="8" style="stroke:#CBD5E1;stroke-width:1.5;" width="475.9575" x="723.4038" y="451"/><text fill="#000000" font-family="Helvetica" font-size="14" font-weight="bold" lengthAdjust="spacing" textLength="16.3379" x="738.4038" y="462.7803">alt</text><text fill="#000000" font-family="Helvetica" font-size="14" font-weight="bold" lengthAdjust="spacing" textLength="242.7031" x="799.7417" y="463.7803">[reusable OCI resource is not found]</text><g class="message" data-entity-1="part4" data-entity-2="part5" id="msg6"><polygon fill="#0F172A" points="1147.9165,483,1157.9165,487,1147.9165,491,1151.9165,487" style="stroke:#0F172A;stroke-width:1;"/><line style="stroke:#0F172A;stroke-width:1;" x1="821.6001" x2="1153.9165" y1="487" y2="487"/><text fill="#000000" font-family="Helvetica" font-size="14" lengthAdjust="spacing" textLength="214.0059" x="828.6001" y="481.7803">CreateDatabaseDbSystemShapes</text></g><path d="M741.4038,502 L807.9487,502 L807.9487,508 L797.9487,518 L733.4038,518 L733.4038,510 A8,8 0 0 1 741.4038,502" fill="#F8FAFC" style="stroke:#CBD5E1;stroke-width:1.5;"/><rect fill="none" height="44" rx="8" ry="8" style="stroke:#CBD5E1;stroke-width:1.5;" width="455.9575" x="733.4038" y="502"/><text fill="#000000" font-family="Helvetica" font-size="14" font-weight="bold" lengthAdjust="spacing" textLength="29.5449" x="748.4038" y="513.7803">loop</text><text fill="#000000" font-family="Helvetica" font-size="14" font-weight="bold" lengthAdjust="spacing" textLength="215.4756" x="822.9487" y="514.7803">[create pending PROVISIONING]</text><g class="message" data-entity-1="part4" data-entity-2="part5" id="msg7"><polygon fill="#0F172A" points="1147.9165,534,1157.9165,538,1147.9165,542,1151.9165,538" style="stroke:#0F172A;stroke-width:1;"/><line style="stroke:#0F172A;stroke-width:1;" x1="821.6001" x2="1153.9165" y1="538" y2="538"/><text fill="#000000" font-family="Helvetica" font-size="14" lengthAdjust="spacing" textLength="194.5508" x="828.6001" y="532.7803">GetDatabaseDbSystemShapes</text></g><line style="stroke:#CBD5E1;stroke-width:1;stroke-dasharray:2,2;" x1="723.4038" x2="1199.3613" y1="554" y2="554"/><text fill="#000000" font-family="Helvetica" font-size="14" font-weight="bold" lengthAdjust="spacing" textLength="255.2334" x="728.4038" y="564.7803">[reusable OCI resource already exists]</text><g class="message" data-entity-1="part4" data-entity-2="part5" id="msg8"><polygon fill="#0F172A" points="1147.9165,585,1157.9165,589,1147.9165,593,1151.9165,589" style="stroke:#0F172A;stroke-width:1;"/><line style="stroke:#0F172A;stroke-width:1;" x1="821.6001" x2="1153.9165" y1="589" y2="589"/><text fill="#000000" font-family="Helvetica" font-size="14" lengthAdjust="spacing" textLength="194.5508" x="828.6001" y="583.7803">GetDatabaseDbSystemShapes</text></g><g class="message" data-entity-1="part4" data-entity-2="part3" id="msg9"><polygon fill="#0F172A" points="548.0073,620,538.0073,624,548.0073,628,544.0073,624" style="stroke:#0F172A;stroke-width:1;"/><line style="stroke:#0F172A;stroke-width:1;stroke-dasharray:2,2;" x1="542.0073" x2="820.6001" y1="624" y2="624"/><text fill="#000000" font-family="Helvetica" font-size="14" lengthAdjust="spacing" textLength="231.0957" x="554.0073" y="618.7803">persist resolved OCI identity in status</text></g><path d="M458.9834,646 L512.3213,646 L512.3213,652 L502.3213,662 L450.9834,662 L450.9834,654 A8,8 0 0 1 458.9834,646" fill="#F8FAFC" style="stroke:#CBD5E1;stroke-width:1.5;"/><rect fill="none" height="826" rx="8" ry="8" style="stroke:#CBD5E1;stroke-width:1.5;" width="774.9741" x="450.9834" y="646"/><text fill="#000000" font-family="Helvetica" font-size="14" font-weight="bold" lengthAdjust="spacing" textLength="16.3379" x="465.9834" y="657.7803">alt</text><text fill="#000000" font-family="Helvetica" font-size="14" font-weight="bold" lengthAdjust="spacing" textLength="120.5859" x="527.3213" y="658.7803">[delete requested]</text><path d="M468.9834,669 L548.0039,669 L548.0039,675 L538.0039,685 L460.9834,685 L460.9834,677 A8,8 0 0 1 468.9834,669" fill="#F8FAFC" style="stroke:#CBD5E1;stroke-width:1.5;"/><rect fill="none" height="274" rx="8" ry="8" style="stroke:#CBD5E1;stroke-width:1.5;" width="738.3779" x="460.9834" y="669"/><text fill="#000000" font-family="Helvetica" font-size="14" font-weight="bold" lengthAdjust="spacing" textLength="42.0205" x="475.9834" y="680.7803">Delete</text><g class="message" data-entity-1="part4" data-entity-2="part5" id="msg10"><polygon fill="#0F172A" points="1147.9165,701,1157.9165,705,1147.9165,709,1151.9165,705" style="stroke:#0F172A;stroke-width:1;"/><line style="stroke:#0F172A;stroke-width:1;" x1="821.6001" x2="1153.9165" y1="705" y2="705"/><text fill="#000000" font-family="Helvetica" font-size="14" lengthAdjust="spacing" textLength="212.4541" x="828.6001" y="699.7803">DeleteDatabaseDbSystemShapes</text></g><g class="message" data-entity-1="part4" data-entity-2="part5" id="msg11"><polygon fill="#0F172A" points="1147.9165,757,1157.9165,761,1147.9165,765,1151.9165,761" style="stroke:#0F172A;stroke-width:1;"/><line style="stroke:#0F172A;stroke-width:1;" x1="821.6001" x2="1153.9165" y1="761" y2="761"/><text fill="#000000" font-family="Helvetica" font-size="14" lengthAdjust="spacing" textLength="109.7168" x="828.6001" y="727.7803">confirm delete via</text><text fill="#000000" font-family="Helvetica" font-size="14" lengthAdjust="spacing" textLength="210.8887" x="828.6001" y="741.7803">GetDatabaseDbSystemShapes or</text><text fill="#000000" font-family="Helvetica" font-size="14" lengthAdjust="spacing" textLength="193.7715" x="828.6001" y="755.7803">ListDatabaseDbSystemShapes</text></g><path d="M741.4038,776 L807.9487,776 L807.9487,782 L797.9487,792 L733.4038,792 L733.4038,784 A8,8 0 0 1 741.4038,776" fill="#F8FAFC" style="stroke:#CBD5E1;stroke-width:1.5;"/><rect fill="none" height="58" rx="8" ry="8" style="stroke:#CBD5E1;stroke-width:1.5;" width="455.9575" x="733.4038" y="776"/><text fill="#000000" font-family="Helvetica" font-size="14" font-weight="bold" lengthAdjust="spacing" textLength="29.5449" x="748.4038" y="787.7803">loop</text><text fill="#000000" font-family="Helvetica" font-size="14" font-weight="bold" lengthAdjust="spacing" textLength="182.7793" x="822.9487" y="788.7803">[delete pending DELETING]</text><g class="message" data-entity-1="part4" data-entity-2="part5" id="msg12"><polygon fill="#0F172A" points="1147.9165,822,1157.9165,826,1147.9165,830,1151.9165,826" style="stroke:#0F172A;stroke-width:1;"/><line style="stroke:#0F172A;stroke-width:1;" x1="821.6001" x2="1153.9165" y1="826" y2="826"/><text fill="#000000" font-family="Helvetica" font-size="14" lengthAdjust="spacing" textLength="210.8887" x="828.6001" y="806.7803">GetDatabaseDbSystemShapes or</text><text fill="#000000" font-family="Helvetica" font-size="14" lengthAdjust="spacing" textLength="193.7715" x="828.6001" y="820.7803">ListDatabaseDbSystemShapes</text></g><path d="M478.9834,848 L532.3213,848 L532.3213,854 L522.3213,864 L470.9834,864 L470.9834,856 A8,8 0 0 1 478.9834,848" fill="#F8FAFC" style="stroke:#CBD5E1;stroke-width:1.5;"/><rect fill="none" height="88" rx="8" ry="8" style="stroke:#CBD5E1;stroke-width:1.5;" width="438.813" x="470.9834" y="848"/><text fill="#000000" font-family="Helvetica" font-size="14" font-weight="bold" lengthAdjust="spacing" textLength="16.3379" x="485.9834" y="859.7803">alt</text><text fill="#000000" font-family="Helvetica" font-size="14" font-weight="bold" lengthAdjust="spacing" textLength="261.4268" x="547.3213" y="860.7803">[cleanup or finalizer release is blocked]</text><g class="message" data-entity-1="part4" data-entity-2="part3" id="msg13"><polygon fill="#0F172A" points="548.0073,880,538.0073,884,548.0073,888,544.0073,884" style="stroke:#0F172A;stroke-width:1;"/><line style="stroke:#0F172A;stroke-width:1;stroke-dasharray:2,2;" x1="542.0073" x2="820.6001" y1="884" y2="884"/><text fill="#000000" font-family="Helvetica" font-size="14" lengthAdjust="spacing" textLength="170.4336" x="554.0073" y="878.7803">retain delete state and retry</text></g><line style="stroke:#CBD5E1;stroke-width:1;stroke-dasharray:2,2;" x1="470.9834" x2="909.7964" y1="893" y2="893"/><text fill="#000000" font-family="Helvetica" font-size="14" font-weight="bold" lengthAdjust="spacing" textLength="194.4824" x="475.9834" y="903.7803">[delete completion observed]</text><g class="message" data-entity-1="part4" data-entity-2="part3" id="msg14"><polygon fill="#0F172A" points="548.0073,924,538.0073,928,548.0073,932,544.0073,928" style="stroke:#0F172A;stroke-width:1;"/><line style="stroke:#0F172A;stroke-width:1;stroke-dasharray:2,2;" x1="542.0073" x2="820.6001" y1="928" y2="928"/><text fill="#000000" font-family="Helvetica" font-size="14" lengthAdjust="spacing" textLength="243.5781" x="554.0073" y="922.7803">release finalizer after delete completion</text></g><line style="stroke:#CBD5E1;stroke-width:1;stroke-dasharray:2,2;" x1="450.9834" x2="1225.9575" y1="951" y2="951"/><text fill="#000000" font-family="Helvetica" font-size="14" font-weight="bold" lengthAdjust="spacing" textLength="149.3857" x="455.9834" y="961.7803">[OCI state is retryable]</text><g class="message" data-entity-1="part4" data-entity-2="part3" id="msg15"><polygon fill="#0F172A" points="548.0073,996,538.0073,1000,548.0073,1004,544.0073,1000" style="stroke:#0F172A;stroke-width:1;"/><line style="stroke:#0F172A;stroke-width:1;stroke-dasharray:2,2;" x1="542.0073" x2="820.6001" y1="1000" y2="1000"/><text fill="#000000" font-family="Helvetica" font-size="14" lengthAdjust="spacing" textLength="184.4199" x="554.0073" y="980.7803">requeue while OCI remains in</text><text fill="#000000" font-family="Helvetica" font-size="14" lengthAdjust="spacing" textLength="260.5928" x="554.0073" y="994.7803">PROVISIONING, UPDATING, DELETING</text></g><line style="stroke:#CBD5E1;stroke-width:1;stroke-dasharray:2,2;" x1="450.9834" x2="1225.9575" y1="1009" y2="1009"/><text fill="#000000" font-family="Helvetica" font-size="14" font-weight="bold" lengthAdjust="spacing" textLength="200.751" x="455.9834" y="1019.7803">[live state requires field-aware</text><text fill="#000000" font-family="Helvetica" font-size="14" font-weight="bold" lengthAdjust="spacing" textLength="105.0068" x="455.9834" y="1033.7803">drift evaluation]</text><path d="M468.9834,1045 L596.9697,1045 L596.9697,1051 L586.9697,1061 L460.9834,1061 L460.9834,1053 A8,8 0 0 1 468.9834,1045" fill="#F8FAFC" style="stroke:#CBD5E1;stroke-width:1.5;"/><rect fill="none" height="378" rx="8" ry="8" style="stroke:#CBD5E1;stroke-width:1.5;" width="754.9741" x="460.9834" y="1045"/><text fill="#000000" font-family="Helvetica" font-size="14" font-weight="bold" lengthAdjust="spacing" textLength="90.9863" x="475.9834" y="1056.7803">Drift handling</text><path d="M775,1074 L775,1124 A8,8 0 0 0 783,1132 L1197,1132 A8,8 0 0 0 1205,1124 L1205,1076 L1195,1066 L783,1066 A8,8 0 0 0 775,1074" fill="#FFF7D6" style="stroke:#B45309;stroke-width:0.5;"/><path d="M1195,1066 L1195,1072 A4,4 0 0 0 1199,1076 L1205,1076 L1195,1066" fill="#FFF7D6" style="stroke:#B45309;stroke-width:0.5;"/><text fill="#334155" font-family="Helvetica" font-size="14" lengthAdjust="spacing" textLength="255.2813" x="858.3381" y="1081.7803">Supported update surface: display_name</text><text fill="#334155" font-family="Helvetica" font-size="14" lengthAdjust="spacing" textLength="235.7783" x="858.3381" y="1095.7803">Reject before mutate: force-new fields</text><text fill="#334155" font-family="Helvetica" font-size="14" lengthAdjust="spacing" textLength="100.3789" x="858.3381" y="1109.7803">compartment_id</text><text fill="#334155" font-family="Helvetica" font-size="14" lengthAdjust="spacing" textLength="229.5576" x="858.3381" y="1123.7803">Lookup filters: compartment_id, state</text><path d="M478.9834,1144 L537.749,1144 L537.749,1150 L527.749,1160 L470.9834,1160 L470.9834,1152 A8,8 0 0 1 478.9834,1144" fill="#F8FAFC" style="stroke:#CBD5E1;stroke-width:1.5;"/><rect fill="none" height="44" rx="8" ry="8" style="stroke:#CBD5E1;stroke-width:1.5;" width="438.813" x="470.9834" y="1144"/><text fill="#000000" font-family="Helvetica" font-size="14" font-weight="bold" lengthAdjust="spacing" textLength="21.7656" x="485.9834" y="1155.7803">opt</text><text fill="#000000" font-family="Helvetica" font-size="14" font-weight="bold" lengthAdjust="spacing" textLength="276.1309" x="552.749" y="1156.7803">[force-new or conflicting drift is detected]</text><g class="message" data-entity-1="part4" data-entity-2="part3" id="msg16"><polygon fill="#0F172A" points="548.0073,1176,538.0073,1180,548.0073,1184,544.0073,1180" style="stroke:#0F172A;stroke-width:1;"/><line style="stroke:#0F172A;stroke-width:1;stroke-dasharray:2,2;" x1="542.0073" x2="820.6001" y1="1180" y2="1180"/><text fill="#000000" font-family="Helvetica" font-size="14" lengthAdjust="spacing" textLength="164.1855" x="554.0073" y="1174.7803">reject before OCI mutation</text></g><path d="M731.4038,1202 L790.1694,1202 L790.1694,1208 L780.1694,1218 L723.4038,1218 L723.4038,1210 A8,8 0 0 1 731.4038,1202" fill="#F8FAFC" style="stroke:#CBD5E1;stroke-width:1.5;"/><rect fill="none" height="116" rx="8" ry="8" style="stroke:#CBD5E1;stroke-width:1.5;" width="475.9575" x="723.4038" y="1202"/><text fill="#000000" font-family="Helvetica" font-size="14" font-weight="bold" lengthAdjust="spacing" textLength="21.7656" x="738.4038" y="1213.7803">opt</text><text fill="#000000" font-family="Helvetica" font-size="14" font-weight="bold" lengthAdjust="spacing" textLength="243.4619" x="805.1694" y="1214.7803">[supported mutable drift is detected]</text><g class="message" data-entity-1="part4" data-entity-2="part5" id="msg17"><polygon fill="#0F172A" points="1147.9165,1248,1157.9165,1252,1147.9165,1256,1151.9165,1252" style="stroke:#0F172A;stroke-width:1;"/><line style="stroke:#0F172A;stroke-width:1;" x1="821.6001" x2="1153.9165" y1="1252" y2="1252"/><text fill="#000000" font-family="Helvetica" font-size="14" lengthAdjust="spacing" textLength="256.04" x="828.6001" y="1232.7803">Apply UpdateDatabaseDbSystemShapes</text><text fill="#000000" font-family="Helvetica" font-size="14" lengthAdjust="spacing" textLength="226.4541" x="828.6001" y="1246.7803">only for mutable fields display_name</text></g><path d="M741.4038,1267 L807.9487,1267 L807.9487,1273 L797.9487,1283 L733.4038,1283 L733.4038,1275 A8,8 0 0 1 741.4038,1267" fill="#F8FAFC" style="stroke:#CBD5E1;stroke-width:1.5;"/><rect fill="none" height="44" rx="8" ry="8" style="stroke:#CBD5E1;stroke-width:1.5;" width="455.9575" x="733.4038" y="1267"/><text fill="#000000" font-family="Helvetica" font-size="14" font-weight="bold" lengthAdjust="spacing" textLength="29.5449" x="748.4038" y="1278.7803">loop</text><text fill="#000000" font-family="Helvetica" font-size="14" font-weight="bold" lengthAdjust="spacing" textLength="190.5381" x="822.9487" y="1279.7803">[update pending UPDATING]</text><g class="message" data-entity-1="part4" data-entity-2="part5" id="msg18"><polygon fill="#0F172A" points="1147.9165,1299,1157.9165,1303,1147.9165,1307,1151.9165,1303" style="stroke:#0F172A;stroke-width:1;"/><line style="stroke:#0F172A;stroke-width:1;" x1="821.6001" x2="1153.9165" y1="1303" y2="1303"/><text fill="#000000" font-family="Helvetica" font-size="14" lengthAdjust="spacing" textLength="194.5508" x="828.6001" y="1297.7803">GetDatabaseDbSystemShapes</text></g><g class="message" data-entity-1="part4" data-entity-2="part5" id="msg19"><polygon fill="#0F172A" points="1147.9165,1411,1157.9165,1415,1147.9165,1419,1151.9165,1415" style="stroke:#0F172A;stroke-width:1;"/><line style="stroke:#0F172A;stroke-width:1;" x1="821.6001" x2="1153.9165" y1="1415" y2="1415"/><text fill="#000000" font-family="Helvetica" font-size="14" lengthAdjust="spacing" textLength="104.2891" x="828.6001" y="1339.7803">run helper hooks</text><text fill="#000000" font-family="Helvetica" font-size="14" lengthAdjust="spacing" textLength="219.0508" x="828.6001" y="1353.7803">create=tfresource.CreateResource,</text><text fill="#000000" font-family="Helvetica" font-size="14" lengthAdjust="spacing" textLength="314.3164" x="828.6001" y="1367.7803">tfresource.WaitForWorkRequestWithErrorHandling</text><text fill="#000000" font-family="Helvetica" font-size="14" lengthAdjust="spacing" textLength="215.5439" x="828.6001" y="1381.7803">entity=template action=CREATED;</text><text fill="#000000" font-family="Helvetica" font-size="14" lengthAdjust="spacing" textLength="226.085" x="828.6001" y="1395.7803">update=tfresource.UpdateResource;</text><text fill="#000000" font-family="Helvetica" font-size="14" lengthAdjust="spacing" textLength="212.8438" x="828.6001" y="1409.7803">delete=tfresource.DeleteResource</text></g><g class="message" data-entity-1="part4" data-entity-2="part3" id="msg20"><polygon fill="#0F172A" points="548.0073,1460,538.0073,1464,548.0073,1468,544.0073,1464" style="stroke:#0F172A;stroke-width:1;"/><line style="stroke:#0F172A;stroke-width:1;stroke-dasharray:2,2;" x1="542.0073" x2="820.6001" y1="1464" y2="1464"/><text fill="#000000" font-family="Helvetica" font-size="14" lengthAdjust="spacing" textLength="100.7822" x="554.0073" y="1444.7803">status=required,</text><text fill="#000000" font-family="Helvetica" font-size="14" lengthAdjust="spacing" textLength="230.7197" x="554.0073" y="1458.7803">finalizer=retain-until-confirmed-delete</text></g><g class="message" data-entity-1="part3" data-entity-2="part2" id="msg21"><polygon fill="#0F172A" points="309.1812,1509,299.1812,1513,309.1812,1517,305.1812,1513" style="stroke:#0F172A;stroke-width:1;"/><line style="stroke:#0F172A;stroke-width:1;stroke-dasharray:2,2;" x1="303.1812" x2="536.0073" y1="1513" y2="1513"/><text fill="#000000" font-family="Helvetica" font-size="14" lengthAdjust="spacing" textLength="214.8262" x="315.1812" y="1493.7803">requeue on provisioning, updating,</text><text fill="#000000" font-family="Helvetica" font-size="14" lengthAdjust="spacing" textLength="69.2549" x="315.1812" y="1507.7803">terminating</text></g><path d="M826,1534 L826,2004 A8,8 0 0 0 834,2012 L1160,2012 A8,8 0 0 0 1168,2004 L1168,1536 L1158,1526 L834,1526 A8,8 0 0 0 826,1534" fill="#FFF7D6" style="stroke:#B45309;stroke-width:0.5;"/><path d="M1158,1526 L1158,1532 A4,4 0 0 0 1162,1536 L1168,1536 L1158,1526" fill="#FFF7D6" style="stroke:#B45309;stroke-width:0.5;"/><text fill="#334155" font-family="Helvetica" font-size="14" lengthAdjust="spacing" textLength="101.165" x="832" y="1541.7803">shared diagram:</text><text fill="#334155" font-family="Helvetica" font-size="14" lengthAdjust="spacing" textLength="307.3916" x="832" y="1555.7803">shared/diagrams/shared-resolution-sequence.svg</text><text fill="#334155" font-family="Helvetica" font-size="14" lengthAdjust="spacing" textLength="143.1992" x="832" y="1569.7803">shared delete diagram:</text><text fill="#334155" font-family="Helvetica" font-size="14" lengthAdjust="spacing" textLength="284.833" x="832" y="1583.7803">shared/diagrams/shared-delete-sequence.svg</text><text fill="#334155" font-family="Helvetica" font-size="14" lengthAdjust="spacing" textLength="280.9297" x="832" y="1597.7803">Start from the shared resolution sequence for</text><text fill="#334155" font-family="Helvetica" font-size="14" lengthAdjust="spacing" textLength="260.7295" x="832" y="1611.7803">OCID binding, datasource pagination, and</text><text fill="#334155" font-family="Helvetica" font-size="14" lengthAdjust="spacing" textLength="163.4268" x="832" y="1625.7803">create-or-update dispatch.</text><text fill="#334155" font-family="Helvetica" font-size="14" lengthAdjust="spacing" textLength="301.1982" x="832" y="1639.7803">Layer the shared delete sequence when finalizer</text><text fill="#334155" font-family="Helvetica" font-size="14" lengthAdjust="spacing" textLength="269.2471" x="832" y="1653.7803">retention, delete confirmation, work-request</text><text fill="#334155" font-family="Helvetica" font-size="14" lengthAdjust="spacing" textLength="199.2334" x="832" y="1667.7803">polling, or Secret cleanup apply.</text><text fill="#334155" font-family="Helvetica" font-size="14" lengthAdjust="spacing" textLength="281.709" x="832" y="1681.7803">archetype batch: Generated service-manager</text><text fill="#334155" font-family="Helvetica" font-size="14" lengthAdjust="spacing" textLength="266.1504" x="832" y="1695.7803">controllers follow the shared resolution and</text><text fill="#334155" font-family="Helvetica" font-size="14" lengthAdjust="spacing" textLength="259.9297" x="832" y="1709.7803">delete sequences with imported waits and</text><text fill="#334155" font-family="Helvetica" font-size="14" lengthAdjust="spacing" textLength="134.6064" x="832" y="1723.7803">controller-local policy.</text><text fill="#334155" font-family="Helvetica" font-size="14" lengthAdjust="spacing" textLength="109.7305" x="832" y="1737.7803">service: database</text><text fill="#334155" font-family="Helvetica" font-size="14" lengthAdjust="spacing" textLength="196.123" x="832" y="1751.7803">slug: databasedbsystemshapes</text><text fill="#334155" font-family="Helvetica" font-size="14" lengthAdjust="spacing" textLength="205.4473" x="832" y="1765.7803">kind: DatabaseDbSystemShapes</text><text fill="#334155" font-family="Helvetica" font-size="14" lengthAdjust="spacing" textLength="241.2402" x="832" y="1779.7803">archetype: generated-service-manager</text><text fill="#334155" font-family="Helvetica" font-size="14" lengthAdjust="spacing" textLength="156.4063" x="832" y="1793.7803">status/finalizer: required /</text><text fill="#334155" font-family="Helvetica" font-size="14" lengthAdjust="spacing" textLength="174.3027" x="832" y="1807.7803">retain-until-confirmed-delete</text><text fill="#334155" font-family="Helvetica" font-size="14" lengthAdjust="spacing" textLength="272.3984" x="832" y="1821.7803">requeue: provisioning, updating, terminating</text><text fill="#334155" font-family="Helvetica" font-size="14" lengthAdjust="spacing" textLength="295.6816" x="832" y="1835.7803">provider states: create PROVISIONING; update</text><text fill="#334155" font-family="Helvetica" font-size="14" lengthAdjust="spacing" textLength="192.165" x="832" y="1849.7803">UPDATING; delete DELETING</text><text fill="#334155" font-family="Helvetica" font-size="14" lengthAdjust="spacing" textLength="183.6611" x="832" y="1863.7803">supported drift: display_name</text><text fill="#334155" font-family="Helvetica" font-size="14" lengthAdjust="spacing" textLength="230.3301" x="832" y="1877.7803">reject before mutate: force-new fields</text><text fill="#334155" font-family="Helvetica" font-size="14" lengthAdjust="spacing" textLength="100.3789" x="832" y="1891.7803">compartment_id</text><text fill="#334155" font-family="Helvetica" font-size="14" lengthAdjust="spacing" textLength="66.1445" x="832" y="1905.7803">list lookup:</text><text fill="#334155" font-family="Helvetica" font-size="14" lengthAdjust="spacing" textLength="321.4258" x="832" y="1919.7803">scaffold_database_databasedbsystemshapes filters</text><text fill="#334155" font-family="Helvetica" font-size="14" lengthAdjust="spacing" textLength="138.5098" x="832" y="1933.7803">compartment_id, state</text><text fill="#334155" font-family="Helvetica" font-size="14" lengthAdjust="spacing" textLength="89.4961" x="832" y="1947.7803">conflicts: none</text><text fill="#334155" font-family="Helvetica" font-size="14" lengthAdjust="spacing" textLength="104.3164" x="832" y="1961.7803">open gaps: none</text><text fill="#334155" font-family="Helvetica" font-size="14" lengthAdjust="spacing" textLength="224.9023" x="832" y="1975.7803">Scaffold metadata only; replace with</text><text fill="#334155" font-family="Helvetica" font-size="14" lengthAdjust="spacing" textLength="244.3232" x="832" y="1989.7803">controller-specific runtime states before</text><text fill="#334155" font-family="Helvetica" font-size="14" lengthAdjust="spacing" textLength="66.1445" x="832" y="2003.7803">promotion.</text><?plantuml-src fLVRRjiu47tNLmowBoqG9KsJzE8W2xHnjWsQROgutRuO26XfP7D3aLgIikjTxB_ly29PSgnja28FaKLoBcVEdA7C7PSLqwm4is2vMd4vXu89WubfLsOikvjhLSlyN0cbuPSYex-yioF7WjN2_gQa_SHAX0yebcXvndRlcV2_4GwFEujCQxMArfyNXwzUT4zAPV7TlHYAubN-SdkNqZdgk6DsV7Bq_CtM3kS-hXyT7H-Ud7JMlVbCQOaQ3bycbbk1CC6_QfGPGWevisp631wCuyDuDbaRY-LamIeqoOBd28LITgQ-TyoQni8_2G3BhDAzC6EwpT9sdlW2NnVFQPcC4QAyOjBkFj_Ty10h7IXQ6u8NUCLb7yWtn-nezffMdScgjvJDyXCyR9Vk5UbrmOei-JVnkS77UeQ4hYMiEd70EGMYbH2eUw_V4S8tc2cPyUsb9zUJwuyJr4kUuUzCiZdg9y0Cz5_rZboVNoQE0A2MLDw-xRsjSzGA6dFGQ9IeBLTo55yTv9pDgQRc8FnEDrlIfipxPZblBEGeADl1qs6vVn9bxecQRC22zDSEHYD0IVjhXDqqd4hT99PiJZaR_QH7q3u_rIu2Ovyb_ItkK1-Q4RJ6AJd3AOkf76W7JmcuKkgE_Z5AQyPbdZ1XmMeY2i53bC3lbQ0I-Ve0zO-ahbi34nfPlgPLRgn9-Z6ug6Zt2DwZ7N2D962jbzOgDr1oOqZYXYnUaRlT9fyMN5ZKPZILcIeTiKgoUilpFJ2MMNpc4zDO6pOZR5msZXkrfhudlrHHKWPgZ27FvvImnO5qX58LP7u7L4GG9zAVRwx_k9nSNd-w_FJ-4G1H91watH7_DFux4jr1m8e09GUXqPPKgXu9kFJGri6SWpVq2qIsOXufDlQlXw8CgmE13foX40kkoyRXahEf7CoMQ3oLmym9rOkMckgDBwuklZocSZzora2L2MIIiA4MAxXaWYQk9k3ehV64d0dbckCXLT9e6TKYPk3PxjkPtkjrO55SSvr13wI6e6Q6B3_KGGXh4oWhgDVkMmsqRQZho1AYeNnyC8x83tCO17Iru2tpIyhH4EUcijjPU_3ry_Zj5__Krinx5tpPWE7CaH8QIW15dh8LYVjKvfeN5d39HCryy96i_lM201HEY3OZgH_tdfjNaxggb2QYGrtbpfEfTS4o747EJINO-bRIRIkvmJynip33Gcc4idP1ZKXkg9DJYQiGbadwkfL4OMvq3NRAscOSgSfsJ1AjN8-GT5j7vv0hbI6dWcNseMNlXksgu4DlwkmScXO0j-HawiUUOWUzhIgnXgyUjw51gIHj8U-jzO1K7rtVlX7_fdqRKZnIU8V7WAubB52GCCA2waCn1ja_iqKZpljXLDp4dtjJsLdxnZZTw_GtfUzkWaf-utPnGRTh_I5IRYg3lfvHK9IbQ-RCWNvsVdFnzil5-7GgGxPTdm77nYTj2RtPtH9qjjdoq14G5Fuijb1EsRGgS1Q49wqfN956IMvlJTx1zdLbwwBKz3dfKQNLaXjAan3O2-LqJmGUwf8yshOPDPylBAW2TbyAuntkvsw4FxIowsOuiTIUK6XLWbqWtBkaRZuqYD89qMdiRrm-OVVf4cTxnUO-NoNtd8mdWM2fqcaakMC_izbYFxbYQqAruwoP0OsZrGBbHhOJAfZZbhFSQhUlMdIt8bgcSNed5HN9nwQSzb4Kcw75NE_k9qnd2xJh2kaBbE9nRKMVPip9WGcrISjOdAojEgam_LUh0OnSnbjP65XHZm0lezIig8TCWAQrcjAuP08ePfvHPD7zgFqaJ8oevvkV-SpufZUXwUbJC1yDNDStMOvWtkINRkSNskIWXNhK39qS3fB_xvFO1AEX5e1k1_Wzz7aNrDzDXN3hxCx4qwY6IQE2fqsrsmcvqMslrrlpIZzgNWbtKnH-Q57RPAoWEkUt3UAtkw5lnbkoUxerCumIfM7WXXpnUSwgvlSake6I87OUm8sCKmAVid7y9-9qMM8gp7Z1CwVZbfVnWc1YgWxTKZaQxhTpzJy0?></g></svg>