<?plantuml 1.2026.1?><svg xmlns="http://www.w3.org/2000/svg" xmlns:xlink="http://www.w3.org/1999/xlink" contentStyleType="text/css" data-diagram-type="ACTIVITY" height="1413px" preserveAspectRatio="none" style="width:722px;height:1413px;background:#FCFCFD;" version="1.1" viewBox="0 0 722 1413" width="722px" zoomAndPan="magnify"><title>Activity - identity/IdentityImportStandardTagsManagement</title><defs/><g><rect fill="#FCFCFD" height="1413" style="stroke:none;stroke-width:1;" width="722" x="0" y="0"/><g class="title" data-source-line="10"><text fill="#000000" font-family="Helvetica" font-size="14" font-weight="bold" lengthAdjust="spacing" textLength="388.9375" x="165.4703" y="30.7803">Activity - identity/IdentityImportStandardTagsManagement</text></g><ellipse cx="339.8381" cy="55" fill="#1D4ED8" rx="10" ry="10" style="stroke:#222222;stroke-width:1;"/><rect fill="#F8FAFC" height="48" rx="8" ry="8" style="stroke:#0F172A;stroke-width:0.5;" width="304.7852" x="187.4456" y="85"/><text fill="#0F172A" font-family="Helvetica" font-size="14" lengthAdjust="spacing" textLength="136.9375" x="197.4456" y="105.7803">Start from shared flow</text><text fill="#0F172A" font-family="Helvetica" font-size="14" lengthAdjust="spacing" textLength="284.7852" x="197.4456" y="119.7803">shared/diagrams/shared-reconcile-activity.svg</text><rect fill="#F8FAFC" height="62" rx="8" ry="8" style="stroke:#0F172A;stroke-width:0.5;" width="335.1846" x="172.2458" y="153"/><text fill="#0F172A" font-family="Helvetica" font-size="14" lengthAdjust="spacing" textLength="80.9512" x="182.2458" y="173.7803">Load desired</text><text fill="#0F172A" font-family="Helvetica" font-size="14" lengthAdjust="spacing" textLength="315.1846" x="182.2458" y="187.7803">IdentityImportStandardTagsManagement spec and</text><text fill="#0F172A" font-family="Helvetica" font-size="14" lengthAdjust="spacing" textLength="144.7373" x="182.2458" y="201.7803">status from Kubernetes</text><rect fill="#F8FAFC" height="76" rx="8" ry="8" style="stroke:#0F172A;stroke-width:0.5;" width="325.8262" x="176.925" y="235"/><text fill="#0F172A" font-family="Helvetica" font-size="14" lengthAdjust="spacing" textLength="135.3857" x="186.925" y="255.7803">Resolve OCI state via</text><text fill="#0F172A" font-family="Helvetica" font-size="14" lengthAdjust="spacing" textLength="305.8262" x="186.925" y="269.7803">GetIdentityImportStandardTagsManagement with</text><text fill="#0F172A" font-family="Helvetica" font-size="14" lengthAdjust="spacing" textLength="276.2607" x="186.925" y="283.7803">ListIdentityImportStandardTagsManagement</text><text fill="#0F172A" font-family="Helvetica" font-size="14" lengthAdjust="spacing" textLength="47.4688" x="186.925" y="297.7803">fallback</text><rect fill="#F8FAFC" height="76" rx="8" ry="8" style="stroke:#0F172A;stroke-width:0.5;" width="374.0947" x="152.7908" y="331"/><text fill="#0F172A" font-family="Helvetica" font-size="14" lengthAdjust="spacing" textLength="24.8965" x="162.7908" y="351.7803">Use</text><text fill="#0F172A" font-family="Helvetica" font-size="14" lengthAdjust="spacing" textLength="354.0947" x="162.7908" y="365.7803">scaffold_identity_identityimportstandardtagsmanagement</text><text fill="#0F172A" font-family="Helvetica" font-size="14" lengthAdjust="spacing" textLength="297.2402" x="162.7908" y="379.7803">filters compartment_id, state when OCID lookup</text><text fill="#0F172A" font-family="Helvetica" font-size="14" lengthAdjust="spacing" textLength="259.9023" x="162.7908" y="393.7803">or bind-versus-create needs list resolution</text><polygon fill="#E2E8F0" points="286.1487,427,393.5276,427,405.5276,439,393.5276,451,286.1487,451,274.1487,439,286.1487,427" style="stroke:#1D4ED8;stroke-width:0.5;"/><text fill="#0F172A" font-family="Helvetica" font-size="14" lengthAdjust="spacing" textLength="107.3789" x="286.1487" y="442.7803">Resource exists?</text><text fill="#000000" font-family="Helvetica" font-size="14" lengthAdjust="spacing" textLength="21.7861" x="252.3625" y="435.7803">yes</text><text fill="#000000" font-family="Helvetica" font-size="14" lengthAdjust="spacing" textLength="15.5723" x="405.5276" y="435.7803">no</text><rect fill="#F8FAFC" height="48" rx="8" ry="8" style="stroke:#0F172A;stroke-width:0.5;" width="319.6191" x="11" y="461"/><text fill="#0F172A" font-family="Helvetica" font-size="14" lengthAdjust="spacing" textLength="108.1787" x="21" y="481.7803">Update path calls</text><text fill="#0F172A" font-family="Helvetica" font-size="14" lengthAdjust="spacing" textLength="299.6191" x="21" y="495.7803">UpdateIdentityImportStandardTagsManagement</text><rect fill="#F8FAFC" height="48" rx="8" ry="8" style="stroke:#0F172A;stroke-width:0.5;" width="266.7021" x="37.4585" y="529"/><text fill="#0F172A" font-family="Helvetica" font-size="14" lengthAdjust="spacing" textLength="246.7021" x="47.4585" y="549.7803">Guard mutable fields display_name and</text><text fill="#0F172A" font-family="Helvetica" font-size="14" lengthAdjust="spacing" textLength="202.3096" x="47.4585" y="563.7803">force-new fields compartment_id</text><rect fill="#F8FAFC" height="48" rx="8" ry="8" style="stroke:#0F172A;stroke-width:0.5;" width="316.4951" x="350.6191" y="461"/><text fill="#0F172A" font-family="Helvetica" font-size="14" lengthAdjust="spacing" textLength="105.0547" x="360.6191" y="481.7803">Create path calls</text><text fill="#0F172A" font-family="Helvetica" font-size="14" lengthAdjust="spacing" textLength="296.4951" x="360.6191" y="495.7803">CreateIdentityImportStandardTagsManagement</text><polygon fill="#E2E8F0" points="339.8381,583,351.8381,595,339.8381,607,327.8381,595,339.8381,583" style="stroke:#1D4ED8;stroke-width:0.5;"/><rect fill="#F8FAFC" height="104" rx="8" ry="8" style="stroke:#0F172A;stroke-width:0.5;" width="334.3164" x="172.6799" y="627"/><text fill="#0F172A" font-family="Helvetica" font-size="14" lengthAdjust="spacing" textLength="164.2061" x="182.6799" y="647.7803">Run provider helper hooks</text><text fill="#0F172A" font-family="Helvetica" font-size="14" lengthAdjust="spacing" textLength="219.0508" x="182.6799" y="661.7803">create=tfresource.CreateResource,</text><text fill="#0F172A" font-family="Helvetica" font-size="14" lengthAdjust="spacing" textLength="314.3164" x="182.6799" y="675.7803">tfresource.WaitForWorkRequestWithErrorHandling</text><text fill="#0F172A" font-family="Helvetica" font-size="14" lengthAdjust="spacing" textLength="215.5439" x="182.6799" y="689.7803">entity=template action=CREATED;</text><text fill="#0F172A" font-family="Helvetica" font-size="14" lengthAdjust="spacing" textLength="226.085" x="182.6799" y="703.7803">update=tfresource.UpdateResource;</text><text fill="#0F172A" font-family="Helvetica" font-size="14" lengthAdjust="spacing" textLength="212.8438" x="182.6799" y="717.7803">delete=tfresource.DeleteResource</text><rect fill="#F8FAFC" height="34" rx="8" ry="8" style="stroke:#0F172A;stroke-width:0.5;" width="263.5918" x="208.0422" y="751"/><text fill="#0F172A" font-family="Helvetica" font-size="14" lengthAdjust="spacing" textLength="243.5918" x="218.0422" y="771.7803">Apply repo-authored secret policy none</text><rect fill="#F8FAFC" height="104" rx="8" ry="8" style="stroke:#0F172A;stroke-width:0.5;" width="314.9434" x="182.3665" y="805"/><text fill="#0F172A" font-family="Helvetica" font-size="14" lengthAdjust="spacing" textLength="105.0684" x="192.3665" y="825.7803">Delete path uses</text><text fill="#0F172A" font-family="Helvetica" font-size="14" lengthAdjust="spacing" textLength="294.9434" x="192.3665" y="839.7803">DeleteIdentityImportStandardTagsManagement</text><text fill="#0F172A" font-family="Helvetica" font-size="14" lengthAdjust="spacing" textLength="101.9375" x="192.3665" y="853.7803">with required via</text><text fill="#0F172A" font-family="Helvetica" font-size="14" lengthAdjust="spacing" textLength="293.3779" x="192.3665" y="867.7803">GetIdentityImportStandardTagsManagement or</text><text fill="#0F172A" font-family="Helvetica" font-size="14" lengthAdjust="spacing" textLength="291.8262" x="192.3665" y="881.7803">ListIdentityImportStandardTagsManagement to</text><text fill="#0F172A" font-family="Helvetica" font-size="14" lengthAdjust="spacing" textLength="144.7168" x="192.3665" y="895.7803">DELETED confirmation</text><rect fill="#F8FAFC" height="48" rx="8" ry="8" style="stroke:#0F172A;stroke-width:0.5;" width="279.1299" x="200.2732" y="929"/><text fill="#0F172A" font-family="Helvetica" font-size="14" lengthAdjust="spacing" textLength="259.1299" x="210.2732" y="949.7803">Project required status and finalizer policy</text><text fill="#0F172A" font-family="Helvetica" font-size="14" lengthAdjust="spacing" textLength="174.3027" x="210.2732" y="963.7803">retain-until-confirmed-delete</text><rect fill="#F8FAFC" height="34" rx="8" ry="8" style="stroke:#0F172A;stroke-width:0.5;" width="313.4189" x="183.1287" y="997"/><text fill="#0F172A" font-family="Helvetica" font-size="14" lengthAdjust="spacing" textLength="293.4189" x="193.1287" y="1017.7803">Requeue on provisioning, updating, terminating</text><path d="M370.8381,1041 L370.8381,1217 L350.8381,1221 L370.8381,1225 L370.8381,1401 A0,0 0 0 0 370.8381,1401 L710.8782,1401 A0,0 0 0 0 710.8782,1401 L710.8782,1051 L700.8782,1041 L370.8381,1041 A0,0 0 0 0 370.8381,1041" fill="#FFF7D6" style="stroke:#B45309;stroke-width:0.5;"/><path d="M700.8782,1041 L700.8782,1051 L710.8782,1051 L700.8782,1041" fill="#FFF7D6" style="stroke:#B45309;stroke-width:0.5;"/><text fill="#334155" font-family="Helvetica" font-size="14" lengthAdjust="spacing" textLength="101.165" x="376.8381" y="1056.7803">shared diagram:</text><text fill="#334155" font-family="Helvetica" font-size="14" lengthAdjust="spacing" textLength="284.7852" x="376.8381" y="1070.7803">shared/diagrams/shared-reconcile-activity.svg</text><text fill="#334155" font-family="Helvetica" font-size="14" lengthAdjust="spacing" textLength="265.3438" x="376.8381" y="1084.7803">Start from the shared reconcile activity and</text><text fill="#334155" font-family="Helvetica" font-size="14" lengthAdjust="spacing" textLength="273.8955" x="376.8381" y="1098.7803">specialize provider-backed CRUD, wait, and</text><text fill="#334155" font-family="Helvetica" font-size="14" lengthAdjust="spacing" textLength="182.875" x="376.8381" y="1112.7803">status-projection details here.</text><text fill="#334155" font-family="Helvetica" font-size="14" lengthAdjust="spacing" textLength="229.5371" x="376.8381" y="1126.7803">Controller-local activity diagrams add</text><text fill="#334155" font-family="Helvetica" font-size="14" lengthAdjust="spacing" textLength="238.8955" x="376.8381" y="1140.7803">list-lookup hints, secret policies, delete</text><text fill="#334155" font-family="Helvetica" font-size="14" lengthAdjust="spacing" textLength="200.0332" x="376.8381" y="1154.7803">handling, and open formal gaps.</text><text fill="#334155" font-family="Helvetica" font-size="14" lengthAdjust="spacing" textLength="281.709" x="376.8381" y="1168.7803">archetype batch: Generated service-manager</text><text fill="#334155" font-family="Helvetica" font-size="14" lengthAdjust="spacing" textLength="291.0469" x="376.8381" y="1182.7803">controllers specialize the shared reconcile path</text><text fill="#334155" font-family="Helvetica" font-size="14" lengthAdjust="spacing" textLength="189.8477" x="376.8381" y="1196.7803">with formal runtime ownership.</text><text fill="#334155" font-family="Helvetica" font-size="14" lengthAdjust="spacing" textLength="96.4824" x="376.8381" y="1210.7803">service: identity</text><text fill="#334155" font-family="Helvetica" font-size="14" lengthAdjust="spacing" textLength="279.3779" x="376.8381" y="1224.7803">slug: identityimportstandardtagsmanagement</text><text fill="#334155" font-family="Helvetica" font-size="14" lengthAdjust="spacing" textLength="287.9365" x="376.8381" y="1238.7803">kind: IdentityImportStandardTagsManagement</text><text fill="#334155" font-family="Helvetica" font-size="14" lengthAdjust="spacing" textLength="241.2402" x="376.8381" y="1252.7803">archetype: generated-service-manager</text><text fill="#334155" font-family="Helvetica" font-size="14" lengthAdjust="spacing" textLength="156.4063" x="376.8381" y="1266.7803">status/finalizer: required /</text><text fill="#334155" font-family="Helvetica" font-size="14" lengthAdjust="spacing" textLength="174.3027" x="376.8381" y="1280.7803">retain-until-confirmed-delete</text><text fill="#334155" font-family="Helvetica" font-size="14" lengthAdjust="spacing" textLength="272.3984" x="376.8381" y="1294.7803">requeue: provisioning, updating, terminating</text><text fill="#334155" font-family="Helvetica" font-size="14" lengthAdjust="spacing" textLength="295.6816" x="376.8381" y="1308.7803">provider states: create PROVISIONING; update</text><text fill="#334155" font-family="Helvetica" font-size="14" lengthAdjust="spacing" textLength="192.165" x="376.8381" y="1322.7803">UPDATING; delete DELETING</text><text fill="#334155" font-family="Helvetica" font-size="14" lengthAdjust="spacing" textLength="319.04" x="376.8381" y="1336.7803">mutable/forceNew: display_name / compartment_id</text><text fill="#334155" font-family="Helvetica" font-size="14" lengthAdjust="spacing" textLength="104.3164" x="376.8381" y="1350.7803">open gaps: none</text><text fill="#334155" font-family="Helvetica" font-size="14" lengthAdjust="spacing" textLength="224.9023" x="376.8381" y="1364.7803">Scaffold metadata only; replace with</text><text fill="#334155" font-family="Helvetica" font-size="14" lengthAdjust="spacing" textLength="244.3232" x="376.8381" y="1378.7803">controller-specific runtime states before</text><text fill="#334155" font-family="Helvetica" font-size="14" lengthAdjust="spacing" textLength="66.1445" x="376.8381" y="1392.7803">promotion.</text><ellipse cx="339.8381" cy="1221" fill="none" rx="11" ry="11" style="stroke:#222222;stroke-width:1;"/><ellipse cx="339.8381" cy="1221" fill="#222222" rx="6" ry="6" style="stroke:#222222;stroke-width:1;"/><line style="stroke:#0F172A;stroke-width:1;" x1="339.8381" x2="339.8381" y1="65" y2="85"/><polygon fill="#0F172A" points="335.8381,75,339.8381,85,343.8381,75,339.8381,79" style="stroke:#0F172A;stroke-width:1;"/><line style="stroke:#0F172A;stroke-width:1;" x1="339.8381" x2="339.8381" y1="133" y2="153"/><polygon fill="#0F172A" points="335.8381,143,339.8381,153,343.8381,143,339.8381,147" style="stroke:#0F172A;stroke-width:1;"/><line style="stroke:#0F172A;stroke-width:1;" x1="339.8381" x2="339.8381" y1="215" y2="235"/><polygon fill="#0F172A" points="335.8381,225,339.8381,235,343.8381,225,339.8381,229" style="stroke:#0F172A;stroke-width:1;"/><line style="stroke:#0F172A;stroke-width:1;" x1="339.8381" x2="339.8381" y1="311" y2="331"/><polygon fill="#0F172A" points="335.8381,321,339.8381,331,343.8381,321,339.8381,325" style="stroke:#0F172A;stroke-width:1;"/><line style="stroke:#0F172A;stroke-width:1;" x1="170.8096" x2="170.8096" y1="509" y2="529"/><polygon fill="#0F172A" points="166.8096,519,170.8096,529,174.8096,519,170.8096,523" style="stroke:#0F172A;stroke-width:1;"/><line style="stroke:#0F172A;stroke-width:1;" x1="274.1487" x2="170.8096" y1="439" y2="439"/><line style="stroke:#0F172A;stroke-width:1;" x1="170.8096" x2="170.8096" y1="439" y2="461"/><polygon fill="#0F172A" points="166.8096,451,170.8096,461,174.8096,451,170.8096,455" style="stroke:#0F172A;stroke-width:1;"/><line style="stroke:#0F172A;stroke-width:1;" x1="405.5276" x2="508.8667" y1="439" y2="439"/><line style="stroke:#0F172A;stroke-width:1;" x1="508.8667" x2="508.8667" y1="439" y2="461"/><polygon fill="#0F172A" points="504.8667,451,508.8667,461,512.8667,451,508.8667,455" style="stroke:#0F172A;stroke-width:1;"/><line style="stroke:#0F172A;stroke-width:1;" x1="170.8096" x2="170.8096" y1="577" y2="595"/><line style="stroke:#0F172A;stroke-width:1;" x1="170.8096" x2="327.8381" y1="595" y2="595"/><polygon fill="#0F172A" points="317.8381,591,327.8381,595,317.8381,599,321.8381,595" style="stroke:#0F172A;stroke-width:1;"/><line style="stroke:#0F172A;stroke-width:1;" x1="508.8667" x2="508.8667" y1="509" y2="595"/><line style="stroke:#0F172A;stroke-width:1;" x1="508.8667" x2="351.8381" y1="595" y2="595"/><polygon fill="#0F172A" points="361.8381,591,351.8381,595,361.8381,599,357.8381,595" style="stroke:#0F172A;stroke-width:1;"/><line style="stroke:#0F172A;stroke-width:1;" x1="339.8381" x2="339.8381" y1="407" y2="427"/><polygon fill="#0F172A" points="335.8381,417,339.8381,427,343.8381,417,339.8381,421" style="stroke:#0F172A;stroke-width:1;"/><line style="stroke:#0F172A;stroke-width:1;" x1="339.8381" x2="339.8381" y1="607" y2="627"/><polygon fill="#0F172A" points="335.8381,617,339.8381,627,343.8381,617,339.8381,621" style="stroke:#0F172A;stroke-width:1;"/><line style="stroke:#0F172A;stroke-width:1;" x1="339.8381" x2="339.8381" y1="731" y2="751"/><polygon fill="#0F172A" points="335.8381,741,339.8381,751,343.8381,741,339.8381,745" style="stroke:#0F172A;stroke-width:1;"/><line style="stroke:#0F172A;stroke-width:1;" x1="339.8381" x2="339.8381" y1="785" y2="805"/><polygon fill="#0F172A" points="335.8381,795,339.8381,805,343.8381,795,339.8381,799" style="stroke:#0F172A;stroke-width:1;"/><line style="stroke:#0F172A;stroke-width:1;" x1="339.8381" x2="339.8381" y1="909" y2="929"/><polygon fill="#0F172A" points="335.8381,919,339.8381,929,343.8381,919,339.8381,923" style="stroke:#0F172A;stroke-width:1;"/><line style="stroke:#0F172A;stroke-width:1;" x1="339.8381" x2="339.8381" y1="977" y2="997"/><polygon fill="#0F172A" points="335.8381,987,339.8381,997,343.8381,987,339.8381,991" style="stroke:#0F172A;stroke-width:1;"/><line style="stroke:#0F172A;stroke-width:1;" x1="339.8381" x2="339.8381" y1="1031" y2="1210"/><polygon fill="#0F172A" points="335.8381,1200,339.8381,1210,343.8381,1200,339.8381,1204" style="stroke:#0F172A;stroke-width:1;"/><?plantuml-src bLPjRzis4FxENt70lgI0PITDqcOoWY5BqjHebWHvMRuOA6ZnP76XI9Max7d3_lkEeYmhRb2uo0VRvF5UddlkkRWNgIjkUGckuC8ifPv3pfL3vhgR6SzUvjRKMfmRPIpyacVq9teM0dDUA__9Q7_3IuJFg1RePSRVjdcG_o0S7FKkkRLcsNhVpmy-lk-_rCRZxz_baESVnOTjAsC5sjPYTdHykF_hbaK8tzuV7XuT71_txXltcR4QBHnyO5vwXN2MURcGVWK9I86Q3bUZIVjbKbR6-WVFjU1MFFAv-uDhFiUIhll5hLtyo-0DC4zodcVXffzy2m90lacuEnEIbqQBxp31ztYIx_SC-XuFn16AaytbfpSSEy-jtxR7pdzdD-DRNlzZpLEMFeGFoArf26LHGAxCSghZZn75dXCaRXH_9nOpepEfC5c3D7IB-PYbruOBeeoJP3NLkm0Ehi8Cw8Q2UUvh5xFuKi-GEkhHaTTxT8QO2RVdar2hHrX8FjLNw7UAi9I-cEfhwNOodseQ91NwJP6V759U6SzpeyJNDPEwBxBnure_dloKVJzIURGECbCIetmuf9U3jeHbWJfKT07Ac9Uwccfgp4ngaIpeKUsIp6AmquZ2WQBimGOSQY-D7ZEPmrx0fROP0lvDr-wtT-23qxqLkdUKUoN2-uhx0Z8goKrrFDe51QhzggPJA6lFPpHGkKH5UGZfAiLNNtNGYwPhkQ4C4etBjSdhSiSCIPPWJnjAwJoMr4yf7ksM4b5QvaI7MaDbpOAwOA50LOKFmf2yHSnEVMvRQ8RH_ngfmLJtxfwv966ppyQ-tEEt6fr_9gfSagZPpvI18bMTwfZOgSUI2gVa0-EDFZs_lpnxlBmOJtNTWDgF6M5UnoGJWGfVcrmq9vq9Iy-gIgsemvL9UEqB4sRG8TNZeJ9APYlIGHqCuyk8OUsGYeudkt4xp095-LQ72VsvCJ9szo42RoYlo-jBWeW8GQDWInw9czvPynTcVfD5E_VaXoYakQ8rOzkYfve0u58dDOLKIUk952WYscW3DQv6C2qd70MXlWsWQKlpZOQm9B_XnvW4prGih1ImSbwGtaUvQnKkPJ-bUAodcpHwQ-tiZ3SxX8fZGUbaKrv7toJe3Bqult-w6C2I-3Y8fWqaIHMXef98L0a7vOZl5eVidBQ0DKgH1sLeaZQ1rea35u85rKYYl40XjNU3LvoII0SHILQqX6_YWwb8HsYoIt8zvvKRCcwp0lsgGjeYFYjIk49Qk4JpG5ExaAG1KViioxha7FHgVXEWG6FMaBADPaEdILlCajoxGbP3rlfFkqtEdAhdcvy_Kc56wroaiDFgxqfCORukBjakBdPcr14rtV1un7v8LcOZLTDTYCewWMksXKkXNGTtzxT_JXucjpUJcwjnV8liwUxYxB4vYA6W6JqwOAryZngLli5b-bh1HrjgpPh6XuwdZTwmXtRtGKcbKInEWwPMuo1KYjFc2QthDJnf-ftBhEjZJ1zcI1bWgAeqWS_38ERDltR_0m00?></g></svg>