<?plantuml 1.2026.1?><svg xmlns="http://www.w3.org/2000/svg" xmlns:xlink="http://www.w3.org/1999/xlink" contentStyleType="text/css" data-diagram-type="SEQUENCE" height="1301px" preserveAspectRatio="none" style="width:1162px;height:1301px;background:#FCFCFD;" version="1.1" viewBox="0 0 1162 1301" width="1162px" zoomAndPan="magnify"><title>Sequence - redis/RedisOciCacheEngineOptions</title><defs/><g><rect fill="#FCFCFD" height="1301" style="stroke:none;stroke-width:1;" width="1162" x="0" y="0"/><text fill="#000000" font-family="Helvetica" font-size="14" font-weight="bold" lengthAdjust="spacing" textLength="318.1924" x="419.4238" y="25.7803">Sequence - redis/RedisOciCacheEngineOptions</text><rect fill="none" height="86" rx="8" ry="8" style="stroke:#CBD5E1;stroke-width:1.5;" width="394.5298" x="720.6479" y="347"/><rect fill="none" height="204" rx="8" ry="8" style="stroke:#CBD5E1;stroke-width:1.5;" width="414.5298" x="710.6479" y="447"/><rect fill="none" height="44" rx="8" ry="8" style="stroke:#CBD5E1;stroke-width:1.5;" width="394.5298" x="720.6479" y="498"/><rect fill="none" height="44" rx="8" ry="8" style="stroke:#CBD5E1;stroke-width:1.5;" width="394.5298" x="720.6479" y="600"/><rect fill="none" height="116" rx="8" ry="8" style="stroke:#CBD5E1;stroke-width:1.5;" width="414.5298" x="710.6479" y="665"/><rect fill="none" height="58" rx="8" ry="8" style="stroke:#CBD5E1;stroke-width:1.5;" width="394.5298" x="720.6479" y="716"/><g class="participant-lifeline" data-entity-uid="part1" data-qualified-name="Kubernetes" id="part1-lifeline"><g><title>Kubernetes</title><rect fill="#000000" fill-opacity="0.00000" height="1180" width="8" x="39.8032" y="114"/><line style="stroke:#94A3B8;stroke-width:0.5;stroke-dasharray:5,5;" x1="43" x2="43" y1="114" y2="1294"/></g></g><g class="participant-lifeline" data-entity-uid="part2" data-qualified-name="Controller" id="part2-lifeline"><g><title>Controller</title><rect fill="#000000" fill-opacity="0.00000" height="1180" width="8" x="311.2983" y="114"/><line style="stroke:#94A3B8;stroke-width:0.5;stroke-dasharray:5,5;" x1="314.9536" x2="314.9536" y1="114" y2="1294"/></g></g><g class="participant-lifeline" data-entity-uid="part3" data-qualified-name="BaseReconciler" id="part3-lifeline"><g><title>BaseReconciler</title><rect fill="#000000" fill-opacity="0.00000" height="1180" width="8" x="550.1245" y="114"/><line style="stroke:#94A3B8;stroke-width:0.5;stroke-dasharray:5,5;" x1="554.1006" x2="554.1006" y1="114" y2="1294"/></g></g><g class="participant-lifeline" data-entity-uid="part4" data-qualified-name="ServiceManager" id="part4-lifeline"><g><title>OSOKServiceManager</title><rect fill="#000000" fill-opacity="0.00000" height="1180" width="8" x="804.8442" y="114"/><line style="stroke:#94A3B8;stroke-width:0.5;stroke-dasharray:5,5;" x1="808.6479" x2="808.6479" y1="114" y2="1294"/></g></g><g class="participant-lifeline" data-entity-uid="part5" data-qualified-name="OCI" id="part5-lifeline"><g><title>OCI</title><rect fill="#000000" fill-opacity="0.00000" height="1180" width="8" x="1081.7329" y="114"/><line style="stroke:#94A3B8;stroke-width:0.5;stroke-dasharray:5,5;" x1="1085.2881" x2="1085.2881" y1="114" y2="1294"/></g></g><g class="participant participant-head" data-entity-uid="part1" data-qualified-name="Kubernetes" id="part1-head"><text fill="#000000" font-family="Helvetica" font-size="14" lengthAdjust="spacing" textLength="71.6064" x="5" y="110.7803">Kubernetes</text><ellipse cx="43.8032" cy="48.5" fill="#E2E8F0" rx="8" ry="8" style="stroke:#0F172A;stroke-width:0.5;"/><path d="M43.8032,56.5 L43.8032,83.5 M30.8032,64.5 L56.8032,64.5 M43.8032,83.5 L30.8032,98.5 M43.8032,83.5 L56.8032,98.5" fill="none" style="stroke:#0F172A;stroke-width:0.5;"/></g><g class="participant participant-head" data-entity-uid="part2" data-qualified-name="Controller" id="part2-head"><rect fill="#E2E8F0" height="28" rx="8" ry="8" style="stroke:#0F172A;stroke-width:0.5;" width="74.6895" x="277.9536" y="85"/><text fill="#0F172A" font-family="Helvetica" font-size="14" lengthAdjust="spacing" textLength="60.6895" x="284.9536" y="102.7803">Controller</text></g><g class="participant participant-head" data-entity-uid="part3" data-qualified-name="BaseReconciler" id="part3-head"><rect fill="#E2E8F0" height="28" rx="8" ry="8" style="stroke:#0F172A;stroke-width:0.5;" width="112.0479" x="498.1006" y="85"/><text fill="#0F172A" font-family="Helvetica" font-size="14" lengthAdjust="spacing" textLength="98.0479" x="505.1006" y="102.7803">BaseReconciler</text></g><g class="participant participant-head" data-entity-uid="part4" data-qualified-name="ServiceManager" id="part4-head"><rect fill="#E2E8F0" height="28" rx="8" ry="8" style="stroke:#0F172A;stroke-width:0.5;" width="156.3926" x="730.6479" y="85"/><text fill="#0F172A" font-family="Helvetica" font-size="14" lengthAdjust="spacing" textLength="142.3926" x="737.6479" y="102.7803">OSOKServiceManager</text></g><g class="participant participant-head" data-entity-uid="part5" data-qualified-name="OCI" id="part5-head"><rect fill="#E2E8F0" height="28" rx="8" ry="8" style="stroke:#0F172A;stroke-width:0.5;" width="38.8896" x="1066.2881" y="85"/><text fill="#0F172A" font-family="Helvetica" font-size="14" lengthAdjust="spacing" textLength="24.8896" x="1073.2881" y="102.7803">OCI</text></g><path d="M489,137 L489,187 A8,8 0 0 0 497,195 L864,195 A8,8 0 0 0 872,187 L872,139 L862,129 L497,129 A8,8 0 0 0 489,137" fill="#FFF7D6" style="stroke:#B45309;stroke-width:0.5;"/><path d="M862,129 L862,135 A4,4 0 0 0 866,139 L872,139 L862,129" fill="#FFF7D6" style="stroke:#B45309;stroke-width:0.5;"/><text fill="#334155" font-family="Helvetica" font-size="14" lengthAdjust="spacing" textLength="111.2891" x="522.7742" y="144.7803">shared resolution:</text><text fill="#334155" font-family="Helvetica" font-size="14" lengthAdjust="spacing" textLength="307.3916" x="522.7742" y="158.7803">shared/diagrams/shared-resolution-sequence.svg</text><text fill="#334155" font-family="Helvetica" font-size="14" lengthAdjust="spacing" textLength="88.7305" x="522.7742" y="172.7803">shared delete:</text><text fill="#334155" font-family="Helvetica" font-size="14" lengthAdjust="spacing" textLength="284.833" x="522.7742" y="186.7803">shared/diagrams/shared-delete-sequence.svg</text><g class="message" data-entity-1="part1" data-entity-2="part2" id="msg1"><polygon fill="#0F172A" points="303.2983,230,313.2983,234,303.2983,238,307.2983,234" style="stroke:#0F172A;stroke-width:1;"/><line style="stroke:#0F172A;stroke-width:1;" x1="43.8032" x2="309.2983" y1="234" y2="234"/><text fill="#000000" font-family="Helvetica" font-size="14" lengthAdjust="spacing" textLength="247.4951" x="50.8032" y="214.7803">enqueue RedisOciCacheEngineOptions</text><text fill="#000000" font-family="Helvetica" font-size="14" lengthAdjust="spacing" textLength="56.0273" x="50.8032" y="228.7803">reconcile</text></g><g class="message" data-entity-1="part2" data-entity-2="part3" id="msg2"><polygon fill="#0F172A" points="542.1245,258,552.1245,262,542.1245,266,546.1245,262" style="stroke:#0F172A;stroke-width:1;"/><line style="stroke:#0F172A;stroke-width:1;" x1="315.2983" x2="548.1245" y1="262" y2="262"/><text fill="#000000" font-family="Helvetica" font-size="14" lengthAdjust="spacing" textLength="117.4961" x="322.2983" y="256.7803">Reconcile(request)</text></g><g class="message" data-entity-1="part3" data-entity-2="part4" id="msg3"><polygon fill="#0F172A" points="796.8442,300,806.8442,304,796.8442,308,800.8442,304" style="stroke:#0F172A;stroke-width:1;"/><line style="stroke:#0F172A;stroke-width:1;" x1="554.1245" x2="802.8442" y1="304" y2="304"/><text fill="#000000" font-family="Helvetica" font-size="14" lengthAdjust="spacing" textLength="105.834" x="561.1245" y="284.7803">reconcile desired</text><text fill="#000000" font-family="Helvetica" font-size="14" lengthAdjust="spacing" textLength="189.1025" x="561.1245" y="298.7803">RedisOciCacheEngineOptions</text></g><g class="message" data-entity-1="part4" data-entity-2="part5" id="msg4"><polygon fill="#0F172A" points="1073.7329,328,1083.7329,332,1073.7329,336,1077.7329,332" style="stroke:#0F172A;stroke-width:1;"/><line style="stroke:#0F172A;stroke-width:1;" x1="808.8442" x2="1079.7329" y1="332" y2="332"/><text fill="#000000" font-family="Helvetica" font-size="14" lengthAdjust="spacing" textLength="211.668" x="815.8442" y="326.7803">GetRedisOciCacheEngineOptions</text></g><path d="M728.6479,347 L787.4136,347 L787.4136,353 L777.4136,363 L720.6479,363 L720.6479,355 A8,8 0 0 1 728.6479,347" fill="#F8FAFC" style="stroke:#CBD5E1;stroke-width:1.5;"/><rect fill="none" height="86" rx="8" ry="8" style="stroke:#CBD5E1;stroke-width:1.5;" width="394.5298" x="720.6479" y="347"/><text fill="#000000" font-family="Helvetica" font-size="14" font-weight="bold" lengthAdjust="spacing" textLength="21.7656" x="735.6479" y="358.7803">opt</text><text fill="#000000" font-family="Helvetica" font-size="14" font-weight="bold" lengthAdjust="spacing" textLength="135.3516" x="802.4136" y="359.7803">[list lookup fallback]</text><g class="message" data-entity-1="part4" data-entity-2="part5" id="msg5"><polygon fill="#0F172A" points="1073.7329,393,1083.7329,397,1073.7329,401,1077.7329,397" style="stroke:#0F172A;stroke-width:1;"/><line style="stroke:#0F172A;stroke-width:1;" x1="808.8442" x2="1079.7329" y1="397" y2="397"/><text fill="#000000" font-family="Helvetica" font-size="14" lengthAdjust="spacing" textLength="252.8887" x="815.8442" y="377.7803">ListRedisOciCacheEngineOptions(filters:</text><text fill="#000000" font-family="Helvetica" font-size="14" lengthAdjust="spacing" textLength="143.1719" x="815.8442" y="391.7803">compartment_id, state)</text></g><g class="message" data-entity-1="part5" data-entity-2="part4" id="msg6"><polygon fill="#0F172A" points="819.8442,421,809.8442,425,819.8442,429,815.8442,425" style="stroke:#0F172A;stroke-width:1;"/><line style="stroke:#0F172A;stroke-width:1;stroke-dasharray:2,2;" x1="813.8442" x2="1084.7329" y1="425" y2="425"/><text fill="#000000" font-family="Helvetica" font-size="14" lengthAdjust="spacing" textLength="156.3994" x="825.8442" y="419.7803">matching collection items</text></g><path d="M718.6479,447 L771.9858,447 L771.9858,453 L761.9858,463 L710.6479,463 L710.6479,455 A8,8 0 0 1 718.6479,447" fill="#F8FAFC" style="stroke:#CBD5E1;stroke-width:1.5;"/><rect fill="none" height="204" rx="8" ry="8" style="stroke:#CBD5E1;stroke-width:1.5;" width="414.5298" x="710.6479" y="447"/><text fill="#000000" font-family="Helvetica" font-size="14" font-weight="bold" lengthAdjust="spacing" textLength="16.3379" x="725.6479" y="458.7803">alt</text><text fill="#000000" font-family="Helvetica" font-size="14" font-weight="bold" lengthAdjust="spacing" textLength="135.3447" x="786.9858" y="459.7803">[create or bind path]</text><g class="message" data-entity-1="part4" data-entity-2="part5" id="msg7"><polygon fill="#0F172A" points="1073.7329,479,1083.7329,483,1073.7329,487,1077.7329,483" style="stroke:#0F172A;stroke-width:1;"/><line style="stroke:#0F172A;stroke-width:1;" x1="808.8442" x2="1079.7329" y1="483" y2="483"/><text fill="#000000" font-family="Helvetica" font-size="14" lengthAdjust="spacing" textLength="231.123" x="815.8442" y="477.7803">CreateRedisOciCacheEngineOptions</text></g><path d="M728.6479,498 L795.1929,498 L795.1929,504 L785.1929,514 L720.6479,514 L720.6479,506 A8,8 0 0 1 728.6479,498" fill="#F8FAFC" style="stroke:#CBD5E1;stroke-width:1.5;"/><rect fill="none" height="44" rx="8" ry="8" style="stroke:#CBD5E1;stroke-width:1.5;" width="394.5298" x="720.6479" y="498"/><text fill="#000000" font-family="Helvetica" font-size="14" font-weight="bold" lengthAdjust="spacing" textLength="29.5449" x="735.6479" y="509.7803">loop</text><text fill="#000000" font-family="Helvetica" font-size="14" font-weight="bold" lengthAdjust="spacing" textLength="215.4756" x="810.1929" y="510.7803">[create pending PROVISIONING]</text><g class="message" data-entity-1="part4" data-entity-2="part5" id="msg8"><polygon fill="#0F172A" points="1073.7329,530,1083.7329,534,1073.7329,538,1077.7329,534" style="stroke:#0F172A;stroke-width:1;"/><line style="stroke:#0F172A;stroke-width:1;" x1="808.8442" x2="1079.7329" y1="534" y2="534"/><text fill="#000000" font-family="Helvetica" font-size="14" lengthAdjust="spacing" textLength="211.668" x="815.8442" y="528.7803">GetRedisOciCacheEngineOptions</text></g><line style="stroke:#CBD5E1;stroke-width:1;stroke-dasharray:2,2;" x1="710.6479" x2="1125.1777" y1="550" y2="550"/><text fill="#000000" font-family="Helvetica" font-size="14" font-weight="bold" lengthAdjust="spacing" textLength="137.6484" x="715.6479" y="560.7803">[update or drift path]</text><g class="message" data-entity-1="part4" data-entity-2="part5" id="msg9"><polygon fill="#0F172A" points="1073.7329,581,1083.7329,585,1073.7329,589,1077.7329,585" style="stroke:#0F172A;stroke-width:1;"/><line style="stroke:#0F172A;stroke-width:1;" x1="808.8442" x2="1079.7329" y1="585" y2="585"/><text fill="#000000" font-family="Helvetica" font-size="14" lengthAdjust="spacing" textLength="234.2471" x="815.8442" y="579.7803">UpdateRedisOciCacheEngineOptions</text></g><path d="M728.6479,600 L795.1929,600 L795.1929,606 L785.1929,616 L720.6479,616 L720.6479,608 A8,8 0 0 1 728.6479,600" fill="#F8FAFC" style="stroke:#CBD5E1;stroke-width:1.5;"/><rect fill="none" height="44" rx="8" ry="8" style="stroke:#CBD5E1;stroke-width:1.5;" width="394.5298" x="720.6479" y="600"/><text fill="#000000" font-family="Helvetica" font-size="14" font-weight="bold" lengthAdjust="spacing" textLength="29.5449" x="735.6479" y="611.7803">loop</text><text fill="#000000" font-family="Helvetica" font-size="14" font-weight="bold" lengthAdjust="spacing" textLength="190.5381" x="810.1929" y="612.7803">[update pending UPDATING]</text><g class="message" data-entity-1="part4" data-entity-2="part5" id="msg10"><polygon fill="#0F172A" points="1073.7329,632,1083.7329,636,1073.7329,640,1077.7329,636" style="stroke:#0F172A;stroke-width:1;"/><line style="stroke:#0F172A;stroke-width:1;" x1="808.8442" x2="1079.7329" y1="636" y2="636"/><text fill="#000000" font-family="Helvetica" font-size="14" lengthAdjust="spacing" textLength="211.668" x="815.8442" y="630.7803">GetRedisOciCacheEngineOptions</text></g><path d="M718.6479,665 L777.4136,665 L777.4136,671 L767.4136,681 L710.6479,681 L710.6479,673 A8,8 0 0 1 718.6479,665" fill="#F8FAFC" style="stroke:#CBD5E1;stroke-width:1.5;"/><rect fill="none" height="116" rx="8" ry="8" style="stroke:#CBD5E1;stroke-width:1.5;" width="414.5298" x="710.6479" y="665"/><text fill="#000000" font-family="Helvetica" font-size="14" font-weight="bold" lengthAdjust="spacing" textLength="21.7656" x="725.6479" y="676.7803">opt</text><text fill="#000000" font-family="Helvetica" font-size="14" font-weight="bold" lengthAdjust="spacing" textLength="120.5859" x="792.4136" y="677.7803">[delete requested]</text><g class="message" data-entity-1="part4" data-entity-2="part5" id="msg11"><polygon fill="#0F172A" points="1073.7329,697,1083.7329,701,1073.7329,705,1077.7329,701" style="stroke:#0F172A;stroke-width:1;"/><line style="stroke:#0F172A;stroke-width:1;" x1="808.8442" x2="1079.7329" y1="701" y2="701"/><text fill="#000000" font-family="Helvetica" font-size="14" lengthAdjust="spacing" textLength="229.5713" x="815.8442" y="695.7803">DeleteRedisOciCacheEngineOptions</text></g><path d="M728.6479,716 L795.1929,716 L795.1929,722 L785.1929,732 L720.6479,732 L720.6479,724 A8,8 0 0 1 728.6479,716" fill="#F8FAFC" style="stroke:#CBD5E1;stroke-width:1.5;"/><rect fill="none" height="58" rx="8" ry="8" style="stroke:#CBD5E1;stroke-width:1.5;" width="394.5298" x="720.6479" y="716"/><text fill="#000000" font-family="Helvetica" font-size="14" font-weight="bold" lengthAdjust="spacing" textLength="29.5449" x="735.6479" y="727.7803">loop</text><text fill="#000000" font-family="Helvetica" font-size="14" font-weight="bold" lengthAdjust="spacing" textLength="213.124" x="810.1929" y="728.7803">[delete confirmation DELETING]</text><g class="message" data-entity-1="part4" data-entity-2="part5" id="msg12"><polygon fill="#0F172A" points="1073.7329,762,1083.7329,766,1073.7329,770,1077.7329,766" style="stroke:#0F172A;stroke-width:1;"/><line style="stroke:#0F172A;stroke-width:1;" x1="808.8442" x2="1079.7329" y1="766" y2="766"/><text fill="#000000" font-family="Helvetica" font-size="14" lengthAdjust="spacing" textLength="228.0059" x="815.8442" y="746.7803">GetRedisOciCacheEngineOptions or</text><text fill="#000000" font-family="Helvetica" font-size="14" lengthAdjust="spacing" textLength="210.8887" x="815.8442" y="760.7803">ListRedisOciCacheEngineOptions</text></g><g class="message" data-entity-1="part4" data-entity-2="part3" id="msg13"><polygon fill="#0F172A" points="565.1245,818,555.1245,822,565.1245,826,561.1245,822" style="stroke:#0F172A;stroke-width:1;"/><line style="stroke:#0F172A;stroke-width:1;stroke-dasharray:2,2;" x1="559.1245" x2="807.8442" y1="822" y2="822"/><text fill="#000000" font-family="Helvetica" font-size="14" lengthAdjust="spacing" textLength="100.7822" x="571.1245" y="802.7803">status=required,</text><text fill="#000000" font-family="Helvetica" font-size="14" lengthAdjust="spacing" textLength="230.7197" x="571.1245" y="816.7803">finalizer=retain-until-confirmed-delete</text></g><g class="message" data-entity-1="part3" data-entity-2="part2" id="msg14"><polygon fill="#0F172A" points="326.2983,860,316.2983,864,326.2983,868,322.2983,864" style="stroke:#0F172A;stroke-width:1;"/><line style="stroke:#0F172A;stroke-width:1;stroke-dasharray:2,2;" x1="320.2983" x2="553.1245" y1="864" y2="864"/><text fill="#000000" font-family="Helvetica" font-size="14" lengthAdjust="spacing" textLength="214.8262" x="332.2983" y="844.7803">requeue on provisioning, updating,</text><text fill="#000000" font-family="Helvetica" font-size="14" lengthAdjust="spacing" textLength="69.2549" x="332.2983" y="858.7803">terminating</text></g><path d="M813,885 L813,1271 A8,8 0 0 0 821,1279 L1145,1279 A8,8 0 0 0 1153,1271 L1153,887 L1143,877 L821,877 A8,8 0 0 0 813,885" fill="#FFF7D6" style="stroke:#B45309;stroke-width:0.5;"/><path d="M1143,877 L1143,883 A4,4 0 0 0 1147,887 L1153,887 L1143,877" fill="#FFF7D6" style="stroke:#B45309;stroke-width:0.5;"/><text fill="#334155" font-family="Helvetica" font-size="14" lengthAdjust="spacing" textLength="101.165" x="819" y="892.7803">shared diagram:</text><text fill="#334155" font-family="Helvetica" font-size="14" lengthAdjust="spacing" textLength="307.3916" x="819" y="906.7803">shared/diagrams/shared-resolution-sequence.svg</text><text fill="#334155" font-family="Helvetica" font-size="14" lengthAdjust="spacing" textLength="143.1992" x="819" y="920.7803">shared delete diagram:</text><text fill="#334155" font-family="Helvetica" font-size="14" lengthAdjust="spacing" textLength="284.833" x="819" y="934.7803">shared/diagrams/shared-delete-sequence.svg</text><text fill="#334155" font-family="Helvetica" font-size="14" lengthAdjust="spacing" textLength="280.9297" x="819" y="948.7803">Start from the shared resolution sequence for</text><text fill="#334155" font-family="Helvetica" font-size="14" lengthAdjust="spacing" textLength="260.7295" x="819" y="962.7803">OCID binding, datasource pagination, and</text><text fill="#334155" font-family="Helvetica" font-size="14" lengthAdjust="spacing" textLength="163.4268" x="819" y="976.7803">create-or-update dispatch.</text><text fill="#334155" font-family="Helvetica" font-size="14" lengthAdjust="spacing" textLength="301.1982" x="819" y="990.7803">Layer the shared delete sequence when finalizer</text><text fill="#334155" font-family="Helvetica" font-size="14" lengthAdjust="spacing" textLength="269.2471" x="819" y="1004.7803">retention, delete confirmation, work-request</text><text fill="#334155" font-family="Helvetica" font-size="14" lengthAdjust="spacing" textLength="199.2334" x="819" y="1018.7803">polling, or Secret cleanup apply.</text><text fill="#334155" font-family="Helvetica" font-size="14" lengthAdjust="spacing" textLength="281.709" x="819" y="1032.7803">archetype batch: Generated service-manager</text><text fill="#334155" font-family="Helvetica" font-size="14" lengthAdjust="spacing" textLength="266.1504" x="819" y="1046.7803">controllers follow the shared resolution and</text><text fill="#334155" font-family="Helvetica" font-size="14" lengthAdjust="spacing" textLength="259.9297" x="819" y="1060.7803">delete sequences with imported waits and</text><text fill="#334155" font-family="Helvetica" font-size="14" lengthAdjust="spacing" textLength="134.6064" x="819" y="1074.7803">controller-local policy.</text><text fill="#334155" font-family="Helvetica" font-size="14" lengthAdjust="spacing" textLength="82.4688" x="819" y="1088.7803">service: redis</text><text fill="#334155" font-family="Helvetica" font-size="14" lengthAdjust="spacing" textLength="206.2471" x="819" y="1102.7803">slug: redisocicacheengineoptions</text><text fill="#334155" font-family="Helvetica" font-size="14" lengthAdjust="spacing" textLength="222.5645" x="819" y="1116.7803">kind: RedisOciCacheEngineOptions</text><text fill="#334155" font-family="Helvetica" font-size="14" lengthAdjust="spacing" textLength="241.2402" x="819" y="1130.7803">archetype: generated-service-manager</text><text fill="#334155" font-family="Helvetica" font-size="14" lengthAdjust="spacing" textLength="156.4063" x="819" y="1144.7803">status/finalizer: required /</text><text fill="#334155" font-family="Helvetica" font-size="14" lengthAdjust="spacing" textLength="174.3027" x="819" y="1158.7803">retain-until-confirmed-delete</text><text fill="#334155" font-family="Helvetica" font-size="14" lengthAdjust="spacing" textLength="272.3984" x="819" y="1172.7803">requeue: provisioning, updating, terminating</text><text fill="#334155" font-family="Helvetica" font-size="14" lengthAdjust="spacing" textLength="295.6816" x="819" y="1186.7803">provider states: create PROVISIONING; update</text><text fill="#334155" font-family="Helvetica" font-size="14" lengthAdjust="spacing" textLength="192.165" x="819" y="1200.7803">UPDATING; delete DELETING</text><text fill="#334155" font-family="Helvetica" font-size="14" lengthAdjust="spacing" textLength="319.04" x="819" y="1214.7803">mutable/forceNew: display_name / compartment_id</text><text fill="#334155" font-family="Helvetica" font-size="14" lengthAdjust="spacing" textLength="104.3164" x="819" y="1228.7803">open gaps: none</text><text fill="#334155" font-family="Helvetica" font-size="14" lengthAdjust="spacing" textLength="224.9023" x="819" y="1242.7803">Scaffold metadata only; replace with</text><text fill="#334155" font-family="Helvetica" font-size="14" lengthAdjust="spacing" textLength="244.3232" x="819" y="1256.7803">controller-specific runtime states before</text><text fill="#334155" font-family="Helvetica" font-size="14" lengthAdjust="spacing" textLength="66.1445" x="819" y="1270.7803">promotion.</text><?plantuml-src fLRlRzis4FtEl-BGVMa1AuwRf4qLRC3gP5tGD2xYTPyC53HraebGf4PIzhAX__kE-XN9iPsXHH335e-FxzsxEz7TIrrmotDmAvwOZTGPf5mvPAvRMN9ndrbJwcHgbB7mKoheB-b599ZoKldVZFQtF4Vu7TKQlHHyTynS_eCmEUqjSclDfa4_JYTlN_TtQkFn_HCEQVesURCTPMo2jebOdfwT7B_RYWZ7D-id9wUJixFUUWKlZDLeOVA6UUaLmXp_Ab4BX0Wi9jADxyBdJCWf5okyqfdKE2kyDDgnbKmGKcFyqlpTmtKjnByCW0jlx81dexTTsXQAh_4yFQPb0gEKoe9hltj_F-3_eFHoqM4ecU8DIHgSyEwKdopFQJL05eCbiKpESD8jFN7fFEMfODzOfGq-bakaz7fqhCS3faJ46gNG3Xw_vmxlK1WjvFRIYzbyzd6ETYq5VkAQPsXV07SmV3JOCfjUir01ODRaxn1xjBMFUe7C9iETKMNmDcuUZHF9C_BKZUlVqMD8rDfyvDPPYv2W8hLxTzVBmvseawfIsMEo8FgbbwCOK5DyYR2_51VQjkBOuyw0CnGUG_VzfGqid7_5XY5Xqp0zCNJW9D19KhBG1zfYk3lWaHSnV41_O9CfF1MZemzZxiiY32KL1j4-j1kAtG_tCfNAetNnGWkJXxB8KVklCXc1yzpZAqOW4EsGcdClLc4gYf124T10UinTC8fnvK5OvA6iB2mbULTmlzf7Sbg57b1DOeiMiA03mi6VxsP_Ni-lPxVNjn--BvU1AT9CXx986gg9bQa_oFLB5ViSrmQnvVhby-MlV_mOJ_eFtjUj0KrHOh8FyRAAUuvcWqPLcqfBbWONBwzkhhwRA-LmeG_NN2Td6tz75uOYBDtFGMrefz62U6gkw3rfwQ7dKaUbzb95ZO9kTZnfrgrHKUMFHWNfBQnPIqVCoAXHRLpujj3K63cT5dxL4zBAREN1fB1xB3PJxCTcuhCeksRZt5FdGcfD3dw5y6HCFxvgKsD3IrzMFLa99hdScTBIOi6pIg_H8-1aKDrmaR5HKyvaQH7w_eZTy0VAQk-mXdrtq6Q56Zgp69b5WwL2tb5p8zWOUnyrHSqACgdYHWqvHs91mqGXrpJkU56eXoF6BLMLVoYGBc749nGbtKw8Oa8CAc-Yl357TAuxKg-KsUp9KL2yfSB1HleLoBmmDc1lkFIkJas76YaZk0BYB0KnQuwFwriHSwhCckz6qCMFQ6FL3APf1heD9V61DzQZr1YoLcIqBRBkat6Nxxh0Gyl0c1rkbAOJudrz0Fqsg6BebbE_7LpSpkJ-BBveXXzhXzv5QtatMVBIywN2CLMZm5lSn5LbAVxmLOThyXY6BoCQV5HC6I_eG6qqihdWANcPG4xIGW5J7wk72n9D8A7uoBM-HQv08LCfm8Oaq0arVLWYCS2WAZSXsqVTBUC_?></g></svg>