<?plantuml 1.2026.1?><svg xmlns="http://www.w3.org/2000/svg" xmlns:xlink="http://www.w3.org/1999/xlink" contentStyleType="text/css" data-diagram-type="ACTIVITY" height="1441px" preserveAspectRatio="none" style="width:813px;height:1441px;background:#FCFCFD;" version="1.1" viewBox="0 0 813 1441" width="813px" zoomAndPan="magnify"><title>Activity - databasemanagement/DatabaseManagementCloudDbSystemDiscoveries</title><defs/><g><rect fill="#FCFCFD" height="1441" style="stroke:none;stroke-width:1;" width="813" x="0" y="0"/><g class="title" data-source-line="10"><text fill="#000000" font-family="Helvetica" font-size="14" font-weight="bold" lengthAdjust="spacing" textLength="548.5156" x="130.8053" y="30.7803">Activity - databasemanagement/DatabaseManagementCloudDbSystemDiscoveries</text></g><ellipse cx="400.5139" cy="55" fill="#1D4ED8" rx="10" ry="10" style="stroke:#222222;stroke-width:1;"/><rect fill="#F8FAFC" height="48" rx="8" ry="8" style="stroke:#0F172A;stroke-width:0.5;" width="304.7852" x="248.1213" y="85"/><text fill="#0F172A" font-family="Helvetica" font-size="14" lengthAdjust="spacing" textLength="136.9375" x="258.1213" y="105.7803">Start from shared flow</text><text fill="#0F172A" font-family="Helvetica" font-size="14" lengthAdjust="spacing" textLength="284.7852" x="258.1213" y="119.7803">shared/diagrams/shared-reconcile-activity.svg</text><rect fill="#F8FAFC" height="62" rx="8" ry="8" style="stroke:#0F172A;stroke-width:0.5;" width="335.1504" x="232.9387" y="153"/><text fill="#0F172A" font-family="Helvetica" font-size="14" lengthAdjust="spacing" textLength="80.9512" x="242.9387" y="173.7803">Load desired</text><text fill="#0F172A" font-family="Helvetica" font-size="14" lengthAdjust="spacing" textLength="315.1504" x="242.9387" y="187.7803">DatabaseManagementCloudDbSystemDiscoveries</text><text fill="#0F172A" font-family="Helvetica" font-size="14" lengthAdjust="spacing" textLength="205.4473" x="242.9387" y="201.7803">spec and status from Kubernetes</text><rect fill="#F8FAFC" height="90" rx="8" ry="8" style="stroke:#0F172A;stroke-width:0.5;" width="357.7158" x="221.656" y="235"/><text fill="#0F172A" font-family="Helvetica" font-size="14" lengthAdjust="spacing" textLength="135.3857" x="231.656" y="255.7803">Resolve OCI state via</text><text fill="#0F172A" font-family="Helvetica" font-size="14" lengthAdjust="spacing" textLength="337.7158" x="231.656" y="269.7803">GetDatabaseManagementCloudDbSystemDiscoveries</text><text fill="#0F172A" font-family="Helvetica" font-size="14" lengthAdjust="spacing" textLength="24.8965" x="231.656" y="283.7803">with</text><text fill="#0F172A" font-family="Helvetica" font-size="14" lengthAdjust="spacing" textLength="336.9365" x="231.656" y="297.7803">ListDatabaseManagementCloudDbSystemDiscoveries</text><text fill="#0F172A" font-family="Helvetica" font-size="14" lengthAdjust="spacing" textLength="47.4688" x="231.656" y="311.7803">fallback</text><rect fill="#F8FAFC" height="76" rx="8" ry="8" style="stroke:#0F172A;stroke-width:0.5;" width="525.873" x="137.5774" y="345"/><text fill="#0F172A" font-family="Helvetica" font-size="14" lengthAdjust="spacing" textLength="24.8965" x="147.5774" y="365.7803">Use</text><text fill="#0F172A" font-family="Helvetica" font-size="14" lengthAdjust="spacing" textLength="505.873" x="147.5774" y="379.7803">scaffold_databasemanagement_databasemanagementclouddbsystemdiscoveries</text><text fill="#0F172A" font-family="Helvetica" font-size="14" lengthAdjust="spacing" textLength="297.2402" x="147.5774" y="393.7803">filters compartment_id, state when OCID lookup</text><text fill="#0F172A" font-family="Helvetica" font-size="14" lengthAdjust="spacing" textLength="259.9023" x="147.5774" y="407.7803">or bind-versus-create needs list resolution</text><polygon fill="#E2E8F0" points="346.8245,441,454.2034,441,466.2034,453,454.2034,465,346.8245,465,334.8245,453,346.8245,441" style="stroke:#1D4ED8;stroke-width:0.5;"/><text fill="#0F172A" font-family="Helvetica" font-size="14" lengthAdjust="spacing" textLength="107.3789" x="346.8245" y="456.7803">Resource exists?</text><text fill="#000000" font-family="Helvetica" font-size="14" lengthAdjust="spacing" textLength="21.7861" x="313.0383" y="449.7803">yes</text><text fill="#000000" font-family="Helvetica" font-size="14" lengthAdjust="spacing" textLength="15.5723" x="466.2034" y="449.7803">no</text><rect fill="#F8FAFC" height="48" rx="8" ry="8" style="stroke:#0F172A;stroke-width:0.5;" width="380.2949" x="11" y="475"/><text fill="#0F172A" font-family="Helvetica" font-size="14" lengthAdjust="spacing" textLength="108.1787" x="21" y="495.7803">Update path calls</text><text fill="#0F172A" font-family="Helvetica" font-size="14" lengthAdjust="spacing" textLength="360.2949" x="21" y="509.7803">UpdateDatabaseManagementCloudDbSystemDiscoveries</text><rect fill="#F8FAFC" height="48" rx="8" ry="8" style="stroke:#0F172A;stroke-width:0.5;" width="266.7021" x="67.7964" y="543"/><text fill="#0F172A" font-family="Helvetica" font-size="14" lengthAdjust="spacing" textLength="246.7021" x="77.7964" y="563.7803">Guard mutable fields display_name and</text><text fill="#0F172A" font-family="Helvetica" font-size="14" lengthAdjust="spacing" textLength="202.3096" x="77.7964" y="577.7803">force-new fields compartment_id</text><rect fill="#F8FAFC" height="48" rx="8" ry="8" style="stroke:#0F172A;stroke-width:0.5;" width="377.1709" x="411.2949" y="475"/><text fill="#0F172A" font-family="Helvetica" font-size="14" lengthAdjust="spacing" textLength="105.0547" x="421.2949" y="495.7803">Create path calls</text><text fill="#0F172A" font-family="Helvetica" font-size="14" lengthAdjust="spacing" textLength="357.1709" x="421.2949" y="509.7803">CreateDatabaseManagementCloudDbSystemDiscoveries</text><polygon fill="#E2E8F0" points="400.5139,597,412.5139,609,400.5139,621,388.5139,609,400.5139,597" style="stroke:#1D4ED8;stroke-width:0.5;"/><rect fill="#F8FAFC" height="104" rx="8" ry="8" style="stroke:#0F172A;stroke-width:0.5;" width="334.3164" x="233.3557" y="641"/><text fill="#0F172A" font-family="Helvetica" font-size="14" lengthAdjust="spacing" textLength="164.2061" x="243.3557" y="661.7803">Run provider helper hooks</text><text fill="#0F172A" font-family="Helvetica" font-size="14" lengthAdjust="spacing" textLength="219.0508" x="243.3557" y="675.7803">create=tfresource.CreateResource,</text><text fill="#0F172A" font-family="Helvetica" font-size="14" lengthAdjust="spacing" textLength="314.3164" x="243.3557" y="689.7803">tfresource.WaitForWorkRequestWithErrorHandling</text><text fill="#0F172A" font-family="Helvetica" font-size="14" lengthAdjust="spacing" textLength="215.5439" x="243.3557" y="703.7803">entity=template action=CREATED;</text><text fill="#0F172A" font-family="Helvetica" font-size="14" lengthAdjust="spacing" textLength="226.085" x="243.3557" y="717.7803">update=tfresource.UpdateResource;</text><text fill="#0F172A" font-family="Helvetica" font-size="14" lengthAdjust="spacing" textLength="212.8438" x="243.3557" y="731.7803">delete=tfresource.DeleteResource</text><rect fill="#F8FAFC" height="34" rx="8" ry="8" style="stroke:#0F172A;stroke-width:0.5;" width="263.5918" x="268.718" y="765"/><text fill="#0F172A" font-family="Helvetica" font-size="14" lengthAdjust="spacing" textLength="243.5918" x="278.718" y="785.7803">Apply repo-authored secret policy none</text><rect fill="#F8FAFC" height="118" rx="8" ry="8" style="stroke:#0F172A;stroke-width:0.5;" width="375.6191" x="212.7043" y="819"/><text fill="#0F172A" font-family="Helvetica" font-size="14" lengthAdjust="spacing" textLength="105.0684" x="222.7043" y="839.7803">Delete path uses</text><text fill="#0F172A" font-family="Helvetica" font-size="14" lengthAdjust="spacing" textLength="355.6191" x="222.7043" y="853.7803">DeleteDatabaseManagementCloudDbSystemDiscoveries</text><text fill="#0F172A" font-family="Helvetica" font-size="14" lengthAdjust="spacing" textLength="101.9375" x="222.7043" y="867.7803">with required via</text><text fill="#0F172A" font-family="Helvetica" font-size="14" lengthAdjust="spacing" textLength="337.7158" x="222.7043" y="881.7803">GetDatabaseManagementCloudDbSystemDiscoveries</text><text fill="#0F172A" font-family="Helvetica" font-size="14" lengthAdjust="spacing" textLength="12.4482" x="222.7043" y="895.7803">or</text><text fill="#0F172A" font-family="Helvetica" font-size="14" lengthAdjust="spacing" textLength="336.9365" x="222.7043" y="909.7803">ListDatabaseManagementCloudDbSystemDiscoveries</text><text fill="#0F172A" font-family="Helvetica" font-size="14" lengthAdjust="spacing" textLength="160.2822" x="222.7043" y="923.7803">to DELETED confirmation</text><rect fill="#F8FAFC" height="48" rx="8" ry="8" style="stroke:#0F172A;stroke-width:0.5;" width="279.1299" x="260.949" y="957"/><text fill="#0F172A" font-family="Helvetica" font-size="14" lengthAdjust="spacing" textLength="259.1299" x="270.949" y="977.7803">Project required status and finalizer policy</text><text fill="#0F172A" font-family="Helvetica" font-size="14" lengthAdjust="spacing" textLength="174.3027" x="270.949" y="991.7803">retain-until-confirmed-delete</text><rect fill="#F8FAFC" height="34" rx="8" ry="8" style="stroke:#0F172A;stroke-width:0.5;" width="313.4189" x="243.8044" y="1025"/><text fill="#0F172A" font-family="Helvetica" font-size="14" lengthAdjust="spacing" textLength="293.4189" x="253.8044" y="1045.7803">Requeue on provisioning, updating, terminating</text><path d="M431.5139,1069 L431.5139,1245 L411.5139,1249 L431.5139,1253 L431.5139,1429 A0,0 0 0 0 431.5139,1429 L801.1262,1429 A0,0 0 0 0 801.1262,1429 L801.1262,1079 L791.1262,1069 L431.5139,1069 A0,0 0 0 0 431.5139,1069" fill="#FFF7D6" style="stroke:#B45309;stroke-width:0.5;"/><path d="M791.1262,1069 L791.1262,1079 L801.1262,1079 L791.1262,1069" fill="#FFF7D6" style="stroke:#B45309;stroke-width:0.5;"/><text fill="#334155" font-family="Helvetica" font-size="14" lengthAdjust="spacing" textLength="101.165" x="437.5139" y="1084.7803">shared diagram:</text><text fill="#334155" font-family="Helvetica" font-size="14" lengthAdjust="spacing" textLength="284.7852" x="437.5139" y="1098.7803">shared/diagrams/shared-reconcile-activity.svg</text><text fill="#334155" font-family="Helvetica" font-size="14" lengthAdjust="spacing" textLength="265.3438" x="437.5139" y="1112.7803">Start from the shared reconcile activity and</text><text fill="#334155" font-family="Helvetica" font-size="14" lengthAdjust="spacing" textLength="273.8955" x="437.5139" y="1126.7803">specialize provider-backed CRUD, wait, and</text><text fill="#334155" font-family="Helvetica" font-size="14" lengthAdjust="spacing" textLength="182.875" x="437.5139" y="1140.7803">status-projection details here.</text><text fill="#334155" font-family="Helvetica" font-size="14" lengthAdjust="spacing" textLength="229.5371" x="437.5139" y="1154.7803">Controller-local activity diagrams add</text><text fill="#334155" font-family="Helvetica" font-size="14" lengthAdjust="spacing" textLength="238.8955" x="437.5139" y="1168.7803">list-lookup hints, secret policies, delete</text><text fill="#334155" font-family="Helvetica" font-size="14" lengthAdjust="spacing" textLength="200.0332" x="437.5139" y="1182.7803">handling, and open formal gaps.</text><text fill="#334155" font-family="Helvetica" font-size="14" lengthAdjust="spacing" textLength="281.709" x="437.5139" y="1196.7803">archetype batch: Generated service-manager</text><text fill="#334155" font-family="Helvetica" font-size="14" lengthAdjust="spacing" textLength="291.0469" x="437.5139" y="1210.7803">controllers specialize the shared reconcile path</text><text fill="#334155" font-family="Helvetica" font-size="14" lengthAdjust="spacing" textLength="189.8477" x="437.5139" y="1224.7803">with formal runtime ownership.</text><text fill="#334155" font-family="Helvetica" font-size="14" lengthAdjust="spacing" textLength="191.4473" x="437.5139" y="1238.7803">service: databasemanagement</text><text fill="#334155" font-family="Helvetica" font-size="14" lengthAdjust="spacing" textLength="336.1914" x="437.5139" y="1252.7803">slug: databasemanagementclouddbsystemdiscoveries</text><text fill="#334155" font-family="Helvetica" font-size="14" lengthAdjust="spacing" textLength="348.6123" x="437.5139" y="1266.7803">kind: DatabaseManagementCloudDbSystemDiscoveries</text><text fill="#334155" font-family="Helvetica" font-size="14" lengthAdjust="spacing" textLength="241.2402" x="437.5139" y="1280.7803">archetype: generated-service-manager</text><text fill="#334155" font-family="Helvetica" font-size="14" lengthAdjust="spacing" textLength="156.4063" x="437.5139" y="1294.7803">status/finalizer: required /</text><text fill="#334155" font-family="Helvetica" font-size="14" lengthAdjust="spacing" textLength="174.3027" x="437.5139" y="1308.7803">retain-until-confirmed-delete</text><text fill="#334155" font-family="Helvetica" font-size="14" lengthAdjust="spacing" textLength="272.3984" x="437.5139" y="1322.7803">requeue: provisioning, updating, terminating</text><text fill="#334155" font-family="Helvetica" font-size="14" lengthAdjust="spacing" textLength="295.6816" x="437.5139" y="1336.7803">provider states: create PROVISIONING; update</text><text fill="#334155" font-family="Helvetica" font-size="14" lengthAdjust="spacing" textLength="192.165" x="437.5139" y="1350.7803">UPDATING; delete DELETING</text><text fill="#334155" font-family="Helvetica" font-size="14" lengthAdjust="spacing" textLength="319.04" x="437.5139" y="1364.7803">mutable/forceNew: display_name / compartment_id</text><text fill="#334155" font-family="Helvetica" font-size="14" lengthAdjust="spacing" textLength="104.3164" x="437.5139" y="1378.7803">open gaps: none</text><text fill="#334155" font-family="Helvetica" font-size="14" lengthAdjust="spacing" textLength="224.9023" x="437.5139" y="1392.7803">Scaffold metadata only; replace with</text><text fill="#334155" font-family="Helvetica" font-size="14" lengthAdjust="spacing" textLength="244.3232" x="437.5139" y="1406.7803">controller-specific runtime states before</text><text fill="#334155" font-family="Helvetica" font-size="14" lengthAdjust="spacing" textLength="66.1445" x="437.5139" y="1420.7803">promotion.</text><ellipse cx="400.5139" cy="1249" fill="none" rx="11" ry="11" style="stroke:#222222;stroke-width:1;"/><ellipse cx="400.5139" cy="1249" fill="#222222" rx="6" ry="6" style="stroke:#222222;stroke-width:1;"/><line style="stroke:#0F172A;stroke-width:1;" x1="400.5139" x2="400.5139" y1="65" y2="85"/><polygon fill="#0F172A" points="396.5139,75,400.5139,85,404.5139,75,400.5139,79" style="stroke:#0F172A;stroke-width:1;"/><line style="stroke:#0F172A;stroke-width:1;" x1="400.5139" x2="400.5139" y1="133" y2="153"/><polygon fill="#0F172A" points="396.5139,143,400.5139,153,404.5139,143,400.5139,147" style="stroke:#0F172A;stroke-width:1;"/><line style="stroke:#0F172A;stroke-width:1;" x1="400.5139" x2="400.5139" y1="215" y2="235"/><polygon fill="#0F172A" points="396.5139,225,400.5139,235,404.5139,225,400.5139,229" style="stroke:#0F172A;stroke-width:1;"/><line style="stroke:#0F172A;stroke-width:1;" x1="400.5139" x2="400.5139" y1="325" y2="345"/><polygon fill="#0F172A" points="396.5139,335,400.5139,345,404.5139,335,400.5139,339" style="stroke:#0F172A;stroke-width:1;"/><line style="stroke:#0F172A;stroke-width:1;" x1="201.1475" x2="201.1475" y1="523" y2="543"/><polygon fill="#0F172A" points="197.1475,533,201.1475,543,205.1475,533,201.1475,537" style="stroke:#0F172A;stroke-width:1;"/><line style="stroke:#0F172A;stroke-width:1;" x1="334.8245" x2="201.1475" y1="453" y2="453"/><line style="stroke:#0F172A;stroke-width:1;" x1="201.1475" x2="201.1475" y1="453" y2="475"/><polygon fill="#0F172A" points="197.1475,465,201.1475,475,205.1475,465,201.1475,469" style="stroke:#0F172A;stroke-width:1;"/><line style="stroke:#0F172A;stroke-width:1;" x1="466.2034" x2="599.8804" y1="453" y2="453"/><line style="stroke:#0F172A;stroke-width:1;" x1="599.8804" x2="599.8804" y1="453" y2="475"/><polygon fill="#0F172A" points="595.8804,465,599.8804,475,603.8804,465,599.8804,469" style="stroke:#0F172A;stroke-width:1;"/><line style="stroke:#0F172A;stroke-width:1;" x1="201.1475" x2="201.1475" y1="591" y2="609"/><line style="stroke:#0F172A;stroke-width:1;" x1="201.1475" x2="388.5139" y1="609" y2="609"/><polygon fill="#0F172A" points="378.5139,605,388.5139,609,378.5139,613,382.5139,609" style="stroke:#0F172A;stroke-width:1;"/><line style="stroke:#0F172A;stroke-width:1;" x1="599.8804" x2="599.8804" y1="523" y2="609"/><line style="stroke:#0F172A;stroke-width:1;" x1="599.8804" x2="412.5139" y1="609" y2="609"/><polygon fill="#0F172A" points="422.5139,605,412.5139,609,422.5139,613,418.5139,609" style="stroke:#0F172A;stroke-width:1;"/><line style="stroke:#0F172A;stroke-width:1;" x1="400.5139" x2="400.5139" y1="421" y2="441"/><polygon fill="#0F172A" points="396.5139,431,400.5139,441,404.5139,431,400.5139,435" style="stroke:#0F172A;stroke-width:1;"/><line style="stroke:#0F172A;stroke-width:1;" x1="400.5139" x2="400.5139" y1="621" y2="641"/><polygon fill="#0F172A" points="396.5139,631,400.5139,641,404.5139,631,400.5139,635" style="stroke:#0F172A;stroke-width:1;"/><line style="stroke:#0F172A;stroke-width:1;" x1="400.5139" x2="400.5139" y1="745" y2="765"/><polygon fill="#0F172A" points="396.5139,755,400.5139,765,404.5139,755,400.5139,759" style="stroke:#0F172A;stroke-width:1;"/><line style="stroke:#0F172A;stroke-width:1;" x1="400.5139" x2="400.5139" y1="799" y2="819"/><polygon fill="#0F172A" points="396.5139,809,400.5139,819,404.5139,809,400.5139,813" style="stroke:#0F172A;stroke-width:1;"/><line style="stroke:#0F172A;stroke-width:1;" x1="400.5139" x2="400.5139" y1="937" y2="957"/><polygon fill="#0F172A" points="396.5139,947,400.5139,957,404.5139,947,400.5139,951" style="stroke:#0F172A;stroke-width:1;"/><line style="stroke:#0F172A;stroke-width:1;" x1="400.5139" x2="400.5139" y1="1005" y2="1025"/><polygon fill="#0F172A" points="396.5139,1015,400.5139,1025,404.5139,1015,400.5139,1019" style="stroke:#0F172A;stroke-width:1;"/><line style="stroke:#0F172A;stroke-width:1;" x1="400.5139" x2="400.5139" y1="1059" y2="1238"/><polygon fill="#0F172A" points="396.5139,1228,400.5139,1238,404.5139,1228,400.5139,1232" style="stroke:#0F172A;stroke-width:1;"/><?plantuml-src dLPHJoCt47xthnYfBvoKJU3WxkX6gA89nw5IG72KbqWdPpsRk7ZjFTkRDAtwtpjURpPBI2jIyH1YZsVc-_pDvxXdgKjkUG5kpeLPIZs3d2k7pBKxKvuzpwofj1WPPIpya6Vq9peH0dDUAV_PQ7_32uGlg1RePSPtnpp8Fn6EJZgRt5gpRB8VvaUVtdTFQkFnvrSzvFadyN4xobY1jecOddmuFlnnAoAKR_QFZq-EFdpexDVfCsCrMZZwoBpq2k4yyt8X_GeI4DppANTOSCrdMA3sWt6pz6kxD5Ac4kFfmyfvBCRIPMQ1LgBhWbsd_8l13d9FSvvdOQSBfY458Dy0QDU4v8NHuXL7-1vFyyDEG3VZaJX1SRhP_BmZiVFS-kruRFEtSLE-bVLlLXzbwKFuWDoQMc0M1UJAB2SwVXbGxHbHuWRnUs8nCpgJ2fCrINstc0rPUcsu80avIL4J_NRQgLA96N0j0XXVkTZBBzKKwPuzEifzZywGNk5sT5K78Imad-XBzFlKMKe_d-XhwVOwHREcWWIeZKU7r6t6yzmeyUsrs7OiPI6lcBewhtYHLogFra5c2XAThyzBqMlmBUUe0zmnA6EUgtAYwUwcKek4phlA9Pd54ASHXGD5cC06aYelZHuocSD18Aso6GB-GTlkftVWGzA35RftXAKKuNp9_HmoWaWTnQMtSqECN5RS2YWgEaAJc4jKr0t1B1LVVTF1QEXU2QkXFXADotN8Iz13XkHdSA0DDJQAmBgDnQLz6gC9a3dffj9GMhEGD5GmHrM63-AJSaR-pdnk6vhwiSgQjTv4T_QUk2HVj4_6Fj_ZzmgTVo8nNP0dsY-4K94fJpHrHEDmHhqGV88G1iJeiz7znVdNY_5megkQu6xDIFcw9eK8LFWoP5olj24iFIzBjQBRBat2ApytOMGT4XuFfL4oMv6DwX0OJqOcAnSq5rVsdHcgzRqAO_s_fixO_MVE6nXVN5yGQwGKcXHRyAZhzCwQtp7pcvOQpmZsaKlD5JrSjk5XeeaJBdLIqSMefCb47XP9hds5xh92C8rC71MXg-n1VLFrVpIZ1UKDNuPacQPauP42AsTppnh3R3moPNjv9kiuBqtcsdtRuCqhHE1OC4bPmsiLdGHReXEZ-yTn3vOaqLuChIb9oaWLGI9R9XwKen6ms6SZUaUiKOeoA4CZjYcqRXou42oOIXBT1-PIUzTx8JEwg1v49jcycO6wFfYIR8P6lg3KCrwwFkCscwDVbKZlaC_cALmYFU6a_A1Skv1a3j4oBSlQvXnqCEyaA2YRrGfjgjbmqsGwPadftLoMVTRaJtVyDc1ELRDT6_zcsen-88WKzlX9qG9FORQ6d6n3ZlSrQEMRRjGzOFyfOMQZWDEto9UrJbW_CIw5vWsvkx_zxUhXwlRcwkPo6CyYUxmRdt-j5sAfE92qm1gt7zIcVeFBzANX3xRCdTLo23f8QsDY3yq32WL12-JJ-AdLC3YQulHSXGljo22fLP3BhBtTs3vCaJh0WAemGUNzuFhrJyX_0000?></g></svg>