<?plantuml 1.2026.1?><svg xmlns="http://www.w3.org/2000/svg" xmlns:xlink="http://www.w3.org/1999/xlink" contentStyleType="text/css" data-diagram-type="SEQUENCE" height="2118px" preserveAspectRatio="none" style="width:1682px;height:2118px;background:#FCFCFD;" version="1.1" viewBox="0 0 1682 2118" width="1682px" zoomAndPan="magnify"><title>Sequence - adm/AdmRemediationRunApplicationDependencyRecommendations</title><defs/><g><rect fill="#FCFCFD" height="2118" style="stroke:none;stroke-width:1;" width="1682" x="0" y="0"/><text fill="#000000" font-family="Helvetica" font-size="14" font-weight="bold" lengthAdjust="spacing" textLength="538.3096" x="578.0061" y="25.7803">Sequence - adm/AdmRemediationRunApplicationDependencyRecommendations</text><rect fill="none" height="290" rx="8" ry="8" style="stroke:#CBD5E1;stroke-width:1.5;" width="1021.0439" x="637.5" y="356"/><rect fill="none" height="146" rx="8" ry="8" style="stroke:#CBD5E1;stroke-width:1.5;" width="622.3218" x="1026.2222" y="465"/><rect fill="none" height="44" rx="8" ry="8" style="stroke:#CBD5E1;stroke-width:1.5;" width="602.3218" x="1036.2222" y="516"/><rect fill="none" height="868" rx="8" ry="8" style="stroke:#CBD5E1;stroke-width:1.5;" width="1057.8218" x="617.5" y="660"/><rect fill="none" height="302" rx="8" ry="8" style="stroke:#CBD5E1;stroke-width:1.5;" width="1021.0439" x="627.5" y="683"/><rect fill="none" height="72" rx="8" ry="8" style="stroke:#CBD5E1;stroke-width:1.5;" width="602.3218" x="1036.2222" y="804"/><rect fill="none" height="88" rx="8" ry="8" style="stroke:#CBD5E1;stroke-width:1.5;" width="575.1147" x="637.5" y="890"/><rect fill="none" height="392" rx="8" ry="8" style="stroke:#CBD5E1;stroke-width:1.5;" width="1037.8218" x="627.5" y="1087"/><rect fill="none" height="44" rx="8" ry="8" style="stroke:#CBD5E1;stroke-width:1.5;" width="575.1147" x="637.5" y="1186"/><rect fill="none" height="130" rx="8" ry="8" style="stroke:#CBD5E1;stroke-width:1.5;" width="622.3218" x="1026.2222" y="1244"/><rect fill="none" height="44" rx="8" ry="8" style="stroke:#CBD5E1;stroke-width:1.5;" width="602.3218" x="1036.2222" y="1323"/><g class="participant-lifeline" data-entity-uid="part1" data-qualified-name="Kubernetes" id="part1-lifeline"><g><title>Kubernetes</title><rect fill="#000000" fill-opacity="0.00000" height="1997" width="8" x="39.8032" y="114"/><line style="stroke:#94A3B8;stroke-width:0.5;stroke-dasharray:5,5;" x1="43" x2="43" y1="114" y2="2111"/></g></g><g class="participant-lifeline" data-entity-uid="part2" data-qualified-name="Controller" id="part2-lifeline"><g><title>Controller</title><rect fill="#000000" fill-opacity="0.00000" height="1997" width="8" x="460.6978" y="114"/><line style="stroke:#94A3B8;stroke-width:0.5;stroke-dasharray:5,5;" x1="464.353" x2="464.353" y1="114" y2="2111"/></g></g><g class="participant-lifeline" data-entity-uid="part3" data-qualified-name="BaseReconciler" id="part3-lifeline"><g><title>BaseReconciler</title><rect fill="#000000" fill-opacity="0.00000" height="1997" width="8" x="699.5239" y="114"/><line style="stroke:#94A3B8;stroke-width:0.5;stroke-dasharray:5,5;" x1="703.5" x2="703.5" y1="114" y2="2111"/></g></g><g class="participant-lifeline" data-entity-uid="part4" data-qualified-name="ServiceManager" id="part4-lifeline"><g><title>OSOKServiceManager</title><rect fill="#000000" fill-opacity="0.00000" height="1997" width="8" x="1120.4185" y="114"/><line style="stroke:#94A3B8;stroke-width:0.5;stroke-dasharray:5,5;" x1="1124.2222" x2="1124.2222" y1="114" y2="2111"/></g></g><g class="participant-lifeline" data-entity-uid="part5" data-qualified-name="OCI" id="part5-lifeline"><g><title>OCI</title><rect fill="#000000" fill-opacity="0.00000" height="1997" width="8" x="1605.0991" y="114"/><line style="stroke:#94A3B8;stroke-width:0.5;stroke-dasharray:5,5;" x1="1608.6543" x2="1608.6543" y1="114" y2="2111"/></g></g><g class="participant participant-head" data-entity-uid="part1" data-qualified-name="Kubernetes" id="part1-head"><text fill="#000000" font-family="Helvetica" font-size="14" lengthAdjust="spacing" textLength="71.6064" x="5" y="110.7803">Kubernetes</text><ellipse cx="43.8032" cy="48.5" fill="#E2E8F0" rx="8" ry="8" style="stroke:#0F172A;stroke-width:0.5;"/><path d="M43.8032,56.5 L43.8032,83.5 M30.8032,64.5 L56.8032,64.5 M43.8032,83.5 L30.8032,98.5 M43.8032,83.5 L56.8032,98.5" fill="none" style="stroke:#0F172A;stroke-width:0.5;"/></g><g class="participant participant-head" data-entity-uid="part2" data-qualified-name="Controller" id="part2-head"><rect fill="#E2E8F0" height="28" rx="8" ry="8" style="stroke:#0F172A;stroke-width:0.5;" width="74.6895" x="427.353" y="85"/><text fill="#0F172A" font-family="Helvetica" font-size="14" lengthAdjust="spacing" textLength="60.6895" x="434.353" y="102.7803">Controller</text></g><g class="participant participant-head" data-entity-uid="part3" data-qualified-name="BaseReconciler" id="part3-head"><rect fill="#E2E8F0" height="28" rx="8" ry="8" style="stroke:#0F172A;stroke-width:0.5;" width="112.0479" x="647.5" y="85"/><text fill="#0F172A" font-family="Helvetica" font-size="14" lengthAdjust="spacing" textLength="98.0479" x="654.5" y="102.7803">BaseReconciler</text></g><g class="participant participant-head" data-entity-uid="part4" data-qualified-name="ServiceManager" id="part4-head"><rect fill="#E2E8F0" height="28" rx="8" ry="8" style="stroke:#0F172A;stroke-width:0.5;" width="156.3926" x="1046.2222" y="85"/><text fill="#0F172A" font-family="Helvetica" font-size="14" lengthAdjust="spacing" textLength="142.3926" x="1053.2222" y="102.7803">OSOKServiceManager</text></g><g class="participant participant-head" data-entity-uid="part5" data-qualified-name="OCI" id="part5-head"><rect fill="#E2E8F0" height="28" rx="8" ry="8" style="stroke:#0F172A;stroke-width:0.5;" width="38.8896" x="1589.6543" y="85"/><text fill="#0F172A" font-family="Helvetica" font-size="14" lengthAdjust="spacing" textLength="24.8896" x="1596.6543" y="102.7803">OCI</text></g><path d="M638,137 L638,187 A8,8 0 0 0 646,195 L1180,195 A8,8 0 0 0 1188,187 L1188,139 L1178,129 L646,129 A8,8 0 0 0 638,137" fill="#FFF7D6" style="stroke:#B45309;stroke-width:0.5;"/><path d="M1178,129 L1178,135 A4,4 0 0 0 1182,139 L1188,139 L1178,129" fill="#FFF7D6" style="stroke:#B45309;stroke-width:0.5;"/><text fill="#334155" font-family="Helvetica" font-size="14" lengthAdjust="spacing" textLength="111.2891" x="754.8616" y="144.7803">shared resolution:</text><text fill="#334155" font-family="Helvetica" font-size="14" lengthAdjust="spacing" textLength="307.3916" x="754.8616" y="158.7803">shared/diagrams/shared-resolution-sequence.svg</text><text fill="#334155" font-family="Helvetica" font-size="14" lengthAdjust="spacing" textLength="88.7305" x="754.8616" y="172.7803">shared delete:</text><text fill="#334155" font-family="Helvetica" font-size="14" lengthAdjust="spacing" textLength="284.833" x="754.8616" y="186.7803">shared/diagrams/shared-delete-sequence.svg</text><g class="message" data-entity-1="part1" data-entity-2="part2" id="msg1"><polygon fill="#0F172A" points="452.6978,244,462.6978,248,452.6978,252,456.6978,248" style="stroke:#0F172A;stroke-width:1;"/><line style="stroke:#0F172A;stroke-width:1;" x1="43.8032" x2="458.6978" y1="248" y2="248"/><text fill="#000000" font-family="Helvetica" font-size="14" lengthAdjust="spacing" textLength="54.5029" x="50.8032" y="214.7803">enqueue</text><text fill="#000000" font-family="Helvetica" font-size="14" lengthAdjust="spacing" textLength="396.8945" x="50.8032" y="228.7803">AdmRemediationRunApplicationDependencyRecommendations</text><text fill="#000000" font-family="Helvetica" font-size="14" lengthAdjust="spacing" textLength="56.0273" x="50.8032" y="242.7803">reconcile</text></g><g class="message" data-entity-1="part2" data-entity-2="part3" id="msg2"><polygon fill="#0F172A" points="691.5239,272,701.5239,276,691.5239,280,695.5239,276" style="stroke:#0F172A;stroke-width:1;"/><line style="stroke:#0F172A;stroke-width:1;" x1="464.6978" x2="697.5239" y1="276" y2="276"/><text fill="#000000" font-family="Helvetica" font-size="14" lengthAdjust="spacing" textLength="117.4961" x="471.6978" y="270.7803">Reconcile(request)</text></g><g class="message" data-entity-1="part3" data-entity-2="part4" id="msg3"><polygon fill="#0F172A" points="1112.4185,314,1122.4185,318,1112.4185,322,1116.4185,318" style="stroke:#0F172A;stroke-width:1;"/><line style="stroke:#0F172A;stroke-width:1;" x1="703.5239" x2="1118.4185" y1="318" y2="318"/><text fill="#000000" font-family="Helvetica" font-size="14" lengthAdjust="spacing" textLength="105.834" x="710.5239" y="298.7803">reconcile desired</text><text fill="#000000" font-family="Helvetica" font-size="14" lengthAdjust="spacing" textLength="396.8945" x="710.5239" y="312.7803">AdmRemediationRunApplicationDependencyRecommendations</text></g><path d="M645.5,356 L698.8379,356 L698.8379,362 L688.8379,372 L637.5,372 L637.5,364 A8,8 0 0 1 645.5,356" fill="#F8FAFC" style="stroke:#CBD5E1;stroke-width:1.5;"/><rect fill="none" height="290" rx="8" ry="8" style="stroke:#CBD5E1;stroke-width:1.5;" width="1021.0439" x="637.5" y="356"/><text fill="#000000" font-family="Helvetica" font-size="14" font-weight="bold" lengthAdjust="spacing" textLength="16.3379" x="652.5" y="367.7803">alt</text><text fill="#000000" font-family="Helvetica" font-size="14" font-weight="bold" lengthAdjust="spacing" textLength="308.1094" x="713.8379" y="368.7803">[tracked or explicit OCI identity already exists]</text><g class="message" data-entity-1="part4" data-entity-2="part5" id="msg4"><polygon fill="#0F172A" points="1597.0991,388,1607.0991,392,1597.0991,396,1601.0991,392" style="stroke:#0F172A;stroke-width:1;"/><line style="stroke:#0F172A;stroke-width:1;" x1="1124.4185" x2="1603.0991" y1="392" y2="392"/><text fill="#000000" font-family="Helvetica" font-size="14" lengthAdjust="spacing" textLength="419.46" x="1131.4185" y="386.7803">GetAdmRemediationRunApplicationDependencyRecommendations</text></g><line style="stroke:#CBD5E1;stroke-width:1;stroke-dasharray:2,2;" x1="637.5" x2="1658.5439" y1="401" y2="401"/><text fill="#000000" font-family="Helvetica" font-size="14" font-weight="bold" lengthAdjust="spacing" textLength="185.1582" x="642.5" y="411.7803">[tracked identity is missing]</text><g class="message" data-entity-1="part4" data-entity-2="part5" id="msg5"><polygon fill="#0F172A" points="1597.0991,446,1607.0991,450,1597.0991,454,1601.0991,450" style="stroke:#0F172A;stroke-width:1;"/><line style="stroke:#0F172A;stroke-width:1;" x1="1124.4185" x2="1603.0991" y1="450" y2="450"/><text fill="#000000" font-family="Helvetica" font-size="14" lengthAdjust="spacing" textLength="460.6807" x="1131.4185" y="430.7803">ListAdmRemediationRunApplicationDependencyRecommendations(filters:</text><text fill="#000000" font-family="Helvetica" font-size="14" lengthAdjust="spacing" textLength="143.1719" x="1131.4185" y="444.7803">compartment_id, state)</text></g><path d="M1034.2222,465 L1087.5601,465 L1087.5601,471 L1077.5601,481 L1026.2222,481 L1026.2222,473 A8,8 0 0 1 1034.2222,465" fill="#F8FAFC" style="stroke:#CBD5E1;stroke-width:1.5;"/><rect fill="none" height="146" rx="8" ry="8" style="stroke:#CBD5E1;stroke-width:1.5;" width="622.3218" x="1026.2222" y="465"/><text fill="#000000" font-family="Helvetica" font-size="14" font-weight="bold" lengthAdjust="spacing" textLength="16.3379" x="1041.2222" y="476.7803">alt</text><text fill="#000000" font-family="Helvetica" font-size="14" font-weight="bold" lengthAdjust="spacing" textLength="242.7031" x="1102.5601" y="477.7803">[reusable OCI resource is not found]</text><g class="message" data-entity-1="part4" data-entity-2="part5" id="msg6"><polygon fill="#0F172A" points="1597.0991,497,1607.0991,501,1597.0991,505,1601.0991,501" style="stroke:#0F172A;stroke-width:1;"/><line style="stroke:#0F172A;stroke-width:1;" x1="1124.4185" x2="1603.0991" y1="501" y2="501"/><text fill="#000000" font-family="Helvetica" font-size="14" lengthAdjust="spacing" textLength="438.915" x="1131.4185" y="495.7803">CreateAdmRemediationRunApplicationDependencyRecommendations</text></g><path d="M1044.2222,516 L1110.7671,516 L1110.7671,522 L1100.7671,532 L1036.2222,532 L1036.2222,524 A8,8 0 0 1 1044.2222,516" fill="#F8FAFC" style="stroke:#CBD5E1;stroke-width:1.5;"/><rect fill="none" height="44" rx="8" ry="8" style="stroke:#CBD5E1;stroke-width:1.5;" width="602.3218" x="1036.2222" y="516"/><text fill="#000000" font-family="Helvetica" font-size="14" font-weight="bold" lengthAdjust="spacing" textLength="29.5449" x="1051.2222" y="527.7803">loop</text><text fill="#000000" font-family="Helvetica" font-size="14" font-weight="bold" lengthAdjust="spacing" textLength="215.4756" x="1125.7671" y="528.7803">[create pending PROVISIONING]</text><g class="message" data-entity-1="part4" data-entity-2="part5" id="msg7"><polygon fill="#0F172A" points="1597.0991,548,1607.0991,552,1597.0991,556,1601.0991,552" style="stroke:#0F172A;stroke-width:1;"/><line style="stroke:#0F172A;stroke-width:1;" x1="1124.4185" x2="1603.0991" y1="552" y2="552"/><text fill="#000000" font-family="Helvetica" font-size="14" lengthAdjust="spacing" textLength="419.46" x="1131.4185" y="546.7803">GetAdmRemediationRunApplicationDependencyRecommendations</text></g><line style="stroke:#CBD5E1;stroke-width:1;stroke-dasharray:2,2;" x1="1026.2222" x2="1648.5439" y1="568" y2="568"/><text fill="#000000" font-family="Helvetica" font-size="14" font-weight="bold" lengthAdjust="spacing" textLength="255.2334" x="1031.2222" y="578.7803">[reusable OCI resource already exists]</text><g class="message" data-entity-1="part4" data-entity-2="part5" id="msg8"><polygon fill="#0F172A" points="1597.0991,599,1607.0991,603,1597.0991,607,1601.0991,603" style="stroke:#0F172A;stroke-width:1;"/><line style="stroke:#0F172A;stroke-width:1;" x1="1124.4185" x2="1603.0991" y1="603" y2="603"/><text fill="#000000" font-family="Helvetica" font-size="14" lengthAdjust="spacing" textLength="419.46" x="1131.4185" y="597.7803">GetAdmRemediationRunApplicationDependencyRecommendations</text></g><g class="message" data-entity-1="part4" data-entity-2="part3" id="msg9"><polygon fill="#0F172A" points="714.5239,634,704.5239,638,714.5239,642,710.5239,638" style="stroke:#0F172A;stroke-width:1;"/><line style="stroke:#0F172A;stroke-width:1;stroke-dasharray:2,2;" x1="708.5239" x2="1123.4185" y1="638" y2="638"/><text fill="#000000" font-family="Helvetica" font-size="14" lengthAdjust="spacing" textLength="231.0957" x="720.5239" y="632.7803">persist resolved OCI identity in status</text></g><path d="M625.5,660 L678.8379,660 L678.8379,666 L668.8379,676 L617.5,676 L617.5,668 A8,8 0 0 1 625.5,660" fill="#F8FAFC" style="stroke:#CBD5E1;stroke-width:1.5;"/><rect fill="none" height="868" rx="8" ry="8" style="stroke:#CBD5E1;stroke-width:1.5;" width="1057.8218" x="617.5" y="660"/><text fill="#000000" font-family="Helvetica" font-size="14" font-weight="bold" lengthAdjust="spacing" textLength="16.3379" x="632.5" y="671.7803">alt</text><text fill="#000000" font-family="Helvetica" font-size="14" font-weight="bold" lengthAdjust="spacing" textLength="120.5859" x="693.8379" y="672.7803">[delete requested]</text><path d="M635.5,683 L714.5205,683 L714.5205,689 L704.5205,699 L627.5,699 L627.5,691 A8,8 0 0 1 635.5,683" fill="#F8FAFC" style="stroke:#CBD5E1;stroke-width:1.5;"/><rect fill="none" height="302" rx="8" ry="8" style="stroke:#CBD5E1;stroke-width:1.5;" width="1021.0439" x="627.5" y="683"/><text fill="#000000" font-family="Helvetica" font-size="14" font-weight="bold" lengthAdjust="spacing" textLength="42.0205" x="642.5" y="694.7803">Delete</text><g class="message" data-entity-1="part4" data-entity-2="part5" id="msg10"><polygon fill="#0F172A" points="1597.0991,715,1607.0991,719,1597.0991,723,1601.0991,719" style="stroke:#0F172A;stroke-width:1;"/><line style="stroke:#0F172A;stroke-width:1;" x1="1124.4185" x2="1603.0991" y1="719" y2="719"/><text fill="#000000" font-family="Helvetica" font-size="14" lengthAdjust="spacing" textLength="437.3633" x="1131.4185" y="713.7803">DeleteAdmRemediationRunApplicationDependencyRecommendations</text></g><g class="message" data-entity-1="part4" data-entity-2="part5" id="msg11"><polygon fill="#0F172A" points="1597.0991,785,1607.0991,789,1597.0991,793,1601.0991,789" style="stroke:#0F172A;stroke-width:1;"/><line style="stroke:#0F172A;stroke-width:1;" x1="1124.4185" x2="1603.0991" y1="789" y2="789"/><text fill="#000000" font-family="Helvetica" font-size="14" lengthAdjust="spacing" textLength="109.7168" x="1131.4185" y="741.7803">confirm delete via</text><text fill="#000000" font-family="Helvetica" font-size="14" lengthAdjust="spacing" textLength="419.46" x="1131.4185" y="755.7803">GetAdmRemediationRunApplicationDependencyRecommendations</text><text fill="#000000" font-family="Helvetica" font-size="14" lengthAdjust="spacing" textLength="12.4482" x="1131.4185" y="769.7803">or</text><text fill="#000000" font-family="Helvetica" font-size="14" lengthAdjust="spacing" textLength="418.6807" x="1131.4185" y="783.7803">ListAdmRemediationRunApplicationDependencyRecommendations</text></g><path d="M1044.2222,804 L1110.7671,804 L1110.7671,810 L1100.7671,820 L1036.2222,820 L1036.2222,812 A8,8 0 0 1 1044.2222,804" fill="#F8FAFC" style="stroke:#CBD5E1;stroke-width:1.5;"/><rect fill="none" height="72" rx="8" ry="8" style="stroke:#CBD5E1;stroke-width:1.5;" width="602.3218" x="1036.2222" y="804"/><text fill="#000000" font-family="Helvetica" font-size="14" font-weight="bold" lengthAdjust="spacing" textLength="29.5449" x="1051.2222" y="815.7803">loop</text><text fill="#000000" font-family="Helvetica" font-size="14" font-weight="bold" lengthAdjust="spacing" textLength="182.7793" x="1125.7671" y="816.7803">[delete pending DELETING]</text><g class="message" data-entity-1="part4" data-entity-2="part5" id="msg12"><polygon fill="#0F172A" points="1597.0991,864,1607.0991,868,1597.0991,872,1601.0991,868" style="stroke:#0F172A;stroke-width:1;"/><line style="stroke:#0F172A;stroke-width:1;" x1="1124.4185" x2="1603.0991" y1="868" y2="868"/><text fill="#000000" font-family="Helvetica" font-size="14" lengthAdjust="spacing" textLength="419.46" x="1131.4185" y="834.7803">GetAdmRemediationRunApplicationDependencyRecommendations</text><text fill="#000000" font-family="Helvetica" font-size="14" lengthAdjust="spacing" textLength="12.4482" x="1131.4185" y="848.7803">or</text><text fill="#000000" font-family="Helvetica" font-size="14" lengthAdjust="spacing" textLength="418.6807" x="1131.4185" y="862.7803">ListAdmRemediationRunApplicationDependencyRecommendations</text></g><path d="M645.5,890 L698.8379,890 L698.8379,896 L688.8379,906 L637.5,906 L637.5,898 A8,8 0 0 1 645.5,890" fill="#F8FAFC" style="stroke:#CBD5E1;stroke-width:1.5;"/><rect fill="none" height="88" rx="8" ry="8" style="stroke:#CBD5E1;stroke-width:1.5;" width="575.1147" x="637.5" y="890"/><text fill="#000000" font-family="Helvetica" font-size="14" font-weight="bold" lengthAdjust="spacing" textLength="16.3379" x="652.5" y="901.7803">alt</text><text fill="#000000" font-family="Helvetica" font-size="14" font-weight="bold" lengthAdjust="spacing" textLength="261.4268" x="713.8379" y="902.7803">[cleanup or finalizer release is blocked]</text><g class="message" data-entity-1="part4" data-entity-2="part3" id="msg13"><polygon fill="#0F172A" points="714.5239,922,704.5239,926,714.5239,930,710.5239,926" style="stroke:#0F172A;stroke-width:1;"/><line style="stroke:#0F172A;stroke-width:1;stroke-dasharray:2,2;" x1="708.5239" x2="1123.4185" y1="926" y2="926"/><text fill="#000000" font-family="Helvetica" font-size="14" lengthAdjust="spacing" textLength="170.4336" x="720.5239" y="920.7803">retain delete state and retry</text></g><line style="stroke:#CBD5E1;stroke-width:1;stroke-dasharray:2,2;" x1="637.5" x2="1212.6147" y1="935" y2="935"/><text fill="#000000" font-family="Helvetica" font-size="14" font-weight="bold" lengthAdjust="spacing" textLength="194.4824" x="642.5" y="945.7803">[delete completion observed]</text><g class="message" data-entity-1="part4" data-entity-2="part3" id="msg14"><polygon fill="#0F172A" points="714.5239,966,704.5239,970,714.5239,974,710.5239,970" style="stroke:#0F172A;stroke-width:1;"/><line style="stroke:#0F172A;stroke-width:1;stroke-dasharray:2,2;" x1="708.5239" x2="1123.4185" y1="970" y2="970"/><text fill="#000000" font-family="Helvetica" font-size="14" lengthAdjust="spacing" textLength="243.5781" x="720.5239" y="964.7803">release finalizer after delete completion</text></g><line style="stroke:#CBD5E1;stroke-width:1;stroke-dasharray:2,2;" x1="617.5" x2="1675.3218" y1="993" y2="993"/><text fill="#000000" font-family="Helvetica" font-size="14" font-weight="bold" lengthAdjust="spacing" textLength="149.3857" x="622.5" y="1003.7803">[OCI state is retryable]</text><g class="message" data-entity-1="part4" data-entity-2="part3" id="msg15"><polygon fill="#0F172A" points="714.5239,1038,704.5239,1042,714.5239,1046,710.5239,1042" style="stroke:#0F172A;stroke-width:1;"/><line style="stroke:#0F172A;stroke-width:1;stroke-dasharray:2,2;" x1="708.5239" x2="1123.4185" y1="1042" y2="1042"/><text fill="#000000" font-family="Helvetica" font-size="14" lengthAdjust="spacing" textLength="184.4199" x="720.5239" y="1022.7803">requeue while OCI remains in</text><text fill="#000000" font-family="Helvetica" font-size="14" lengthAdjust="spacing" textLength="260.5928" x="720.5239" y="1036.7803">PROVISIONING, UPDATING, DELETING</text></g><line style="stroke:#CBD5E1;stroke-width:1;stroke-dasharray:2,2;" x1="617.5" x2="1675.3218" y1="1051" y2="1051"/><text fill="#000000" font-family="Helvetica" font-size="14" font-weight="bold" lengthAdjust="spacing" textLength="200.751" x="622.5" y="1061.7803">[live state requires field-aware</text><text fill="#000000" font-family="Helvetica" font-size="14" font-weight="bold" lengthAdjust="spacing" textLength="105.0068" x="622.5" y="1075.7803">drift evaluation]</text><path d="M635.5,1087 L763.4863,1087 L763.4863,1093 L753.4863,1103 L627.5,1103 L627.5,1095 A8,8 0 0 1 635.5,1087" fill="#F8FAFC" style="stroke:#CBD5E1;stroke-width:1.5;"/><rect fill="none" height="392" rx="8" ry="8" style="stroke:#CBD5E1;stroke-width:1.5;" width="1037.8218" x="627.5" y="1087"/><text fill="#000000" font-family="Helvetica" font-size="14" font-weight="bold" lengthAdjust="spacing" textLength="90.9863" x="642.5" y="1098.7803">Drift handling</text><path d="M1078,1116 L1078,1166 A8,8 0 0 0 1086,1174 L1647,1174 A8,8 0 0 0 1655,1166 L1655,1118 L1645,1108 L1086,1108 A8,8 0 0 0 1078,1116" fill="#FFF7D6" style="stroke:#B45309;stroke-width:0.5;"/><path d="M1645,1108 L1645,1114 A4,4 0 0 0 1649,1118 L1655,1118 L1645,1108" fill="#FFF7D6" style="stroke:#B45309;stroke-width:0.5;"/><text fill="#334155" font-family="Helvetica" font-size="14" lengthAdjust="spacing" textLength="255.2813" x="1234.5203" y="1123.7803">Supported update surface: display_name</text><text fill="#334155" font-family="Helvetica" font-size="14" lengthAdjust="spacing" textLength="235.7783" x="1234.5203" y="1137.7803">Reject before mutate: force-new fields</text><text fill="#334155" font-family="Helvetica" font-size="14" lengthAdjust="spacing" textLength="100.3789" x="1234.5203" y="1151.7803">compartment_id</text><text fill="#334155" font-family="Helvetica" font-size="14" lengthAdjust="spacing" textLength="229.5576" x="1234.5203" y="1165.7803">Lookup filters: compartment_id, state</text><path d="M645.5,1186 L704.2656,1186 L704.2656,1192 L694.2656,1202 L637.5,1202 L637.5,1194 A8,8 0 0 1 645.5,1186" fill="#F8FAFC" style="stroke:#CBD5E1;stroke-width:1.5;"/><rect fill="none" height="44" rx="8" ry="8" style="stroke:#CBD5E1;stroke-width:1.5;" width="575.1147" x="637.5" y="1186"/><text fill="#000000" font-family="Helvetica" font-size="14" font-weight="bold" lengthAdjust="spacing" textLength="21.7656" x="652.5" y="1197.7803">opt</text><text fill="#000000" font-family="Helvetica" font-size="14" font-weight="bold" lengthAdjust="spacing" textLength="276.1309" x="719.2656" y="1198.7803">[force-new or conflicting drift is detected]</text><g class="message" data-entity-1="part4" data-entity-2="part3" id="msg16"><polygon fill="#0F172A" points="714.5239,1218,704.5239,1222,714.5239,1226,710.5239,1222" style="stroke:#0F172A;stroke-width:1;"/><line style="stroke:#0F172A;stroke-width:1;stroke-dasharray:2,2;" x1="708.5239" x2="1123.4185" y1="1222" y2="1222"/><text fill="#000000" font-family="Helvetica" font-size="14" lengthAdjust="spacing" textLength="164.1855" x="720.5239" y="1216.7803">reject before OCI mutation</text></g><path d="M1034.2222,1244 L1092.9878,1244 L1092.9878,1250 L1082.9878,1260 L1026.2222,1260 L1026.2222,1252 A8,8 0 0 1 1034.2222,1244" fill="#F8FAFC" style="stroke:#CBD5E1;stroke-width:1.5;"/><rect fill="none" height="130" rx="8" ry="8" style="stroke:#CBD5E1;stroke-width:1.5;" width="622.3218" x="1026.2222" y="1244"/><text fill="#000000" font-family="Helvetica" font-size="14" font-weight="bold" lengthAdjust="spacing" textLength="21.7656" x="1041.2222" y="1255.7803">opt</text><text fill="#000000" font-family="Helvetica" font-size="14" font-weight="bold" lengthAdjust="spacing" textLength="243.4619" x="1107.9878" y="1256.7803">[supported mutable drift is detected]</text><g class="message" data-entity-1="part4" data-entity-2="part5" id="msg17"><polygon fill="#0F172A" points="1597.0991,1304,1607.0991,1308,1597.0991,1312,1601.0991,1308" style="stroke:#0F172A;stroke-width:1;"/><line style="stroke:#0F172A;stroke-width:1;" x1="1124.4185" x2="1603.0991" y1="1308" y2="1308"/><text fill="#000000" font-family="Helvetica" font-size="14" lengthAdjust="spacing" textLength="35.0205" x="1131.4185" y="1274.7803">Apply</text><text fill="#000000" font-family="Helvetica" font-size="14" lengthAdjust="spacing" textLength="442.0391" x="1131.4185" y="1288.7803">UpdateAdmRemediationRunApplicationDependencyRecommendations</text><text fill="#000000" font-family="Helvetica" font-size="14" lengthAdjust="spacing" textLength="226.4541" x="1131.4185" y="1302.7803">only for mutable fields display_name</text></g><path d="M1044.2222,1323 L1110.7671,1323 L1110.7671,1329 L1100.7671,1339 L1036.2222,1339 L1036.2222,1331 A8,8 0 0 1 1044.2222,1323" fill="#F8FAFC" style="stroke:#CBD5E1;stroke-width:1.5;"/><rect fill="none" height="44" rx="8" ry="8" style="stroke:#CBD5E1;stroke-width:1.5;" width="602.3218" x="1036.2222" y="1323"/><text fill="#000000" font-family="Helvetica" font-size="14" font-weight="bold" lengthAdjust="spacing" textLength="29.5449" x="1051.2222" y="1334.7803">loop</text><text fill="#000000" font-family="Helvetica" font-size="14" font-weight="bold" lengthAdjust="spacing" textLength="190.5381" x="1125.7671" y="1335.7803">[update pending UPDATING]</text><g class="message" data-entity-1="part4" data-entity-2="part5" id="msg18"><polygon fill="#0F172A" points="1597.0991,1355,1607.0991,1359,1597.0991,1363,1601.0991,1359" style="stroke:#0F172A;stroke-width:1;"/><line style="stroke:#0F172A;stroke-width:1;" x1="1124.4185" x2="1603.0991" y1="1359" y2="1359"/><text fill="#000000" font-family="Helvetica" font-size="14" lengthAdjust="spacing" textLength="419.46" x="1131.4185" y="1353.7803">GetAdmRemediationRunApplicationDependencyRecommendations</text></g><g class="message" data-entity-1="part4" data-entity-2="part5" id="msg19"><polygon fill="#0F172A" points="1597.0991,1467,1607.0991,1471,1597.0991,1475,1601.0991,1471" style="stroke:#0F172A;stroke-width:1;"/><line style="stroke:#0F172A;stroke-width:1;" x1="1124.4185" x2="1603.0991" y1="1471" y2="1471"/><text fill="#000000" font-family="Helvetica" font-size="14" lengthAdjust="spacing" textLength="104.2891" x="1131.4185" y="1395.7803">run helper hooks</text><text fill="#000000" font-family="Helvetica" font-size="14" lengthAdjust="spacing" textLength="219.0508" x="1131.4185" y="1409.7803">create=tfresource.CreateResource,</text><text fill="#000000" font-family="Helvetica" font-size="14" lengthAdjust="spacing" textLength="314.3164" x="1131.4185" y="1423.7803">tfresource.WaitForWorkRequestWithErrorHandling</text><text fill="#000000" font-family="Helvetica" font-size="14" lengthAdjust="spacing" textLength="215.5439" x="1131.4185" y="1437.7803">entity=template action=CREATED;</text><text fill="#000000" font-family="Helvetica" font-size="14" lengthAdjust="spacing" textLength="226.085" x="1131.4185" y="1451.7803">update=tfresource.UpdateResource;</text><text fill="#000000" font-family="Helvetica" font-size="14" lengthAdjust="spacing" textLength="212.8438" x="1131.4185" y="1465.7803">delete=tfresource.DeleteResource</text></g><g class="message" data-entity-1="part4" data-entity-2="part3" id="msg20"><polygon fill="#0F172A" points="714.5239,1516,704.5239,1520,714.5239,1524,710.5239,1520" style="stroke:#0F172A;stroke-width:1;"/><line style="stroke:#0F172A;stroke-width:1;stroke-dasharray:2,2;" x1="708.5239" x2="1123.4185" y1="1520" y2="1520"/><text fill="#000000" font-family="Helvetica" font-size="14" lengthAdjust="spacing" textLength="100.7822" x="720.5239" y="1500.7803">status=required,</text><text fill="#000000" font-family="Helvetica" font-size="14" lengthAdjust="spacing" textLength="230.7197" x="720.5239" y="1514.7803">finalizer=retain-until-confirmed-delete</text></g><g class="message" data-entity-1="part3" data-entity-2="part2" id="msg21"><polygon fill="#0F172A" points="475.6978,1565,465.6978,1569,475.6978,1573,471.6978,1569" style="stroke:#0F172A;stroke-width:1;"/><line style="stroke:#0F172A;stroke-width:1;stroke-dasharray:2,2;" x1="469.6978" x2="702.5239" y1="1569" y2="1569"/><text fill="#000000" font-family="Helvetica" font-size="14" lengthAdjust="spacing" textLength="214.8262" x="481.6978" y="1549.7803">requeue on provisioning, updating,</text><text fill="#000000" font-family="Helvetica" font-size="14" lengthAdjust="spacing" textLength="69.2549" x="481.6978" y="1563.7803">terminating</text></g><path d="M1129,1590 L1129,2088 A8,8 0 0 0 1137,2096 L1608,2096 A8,8 0 0 0 1616,2088 L1616,1592 L1606,1582 L1137,1582 A8,8 0 0 0 1129,1590" fill="#FFF7D6" style="stroke:#B45309;stroke-width:0.5;"/><path d="M1606,1582 L1606,1588 A4,4 0 0 0 1610,1592 L1616,1592 L1606,1582" fill="#FFF7D6" style="stroke:#B45309;stroke-width:0.5;"/><text fill="#334155" font-family="Helvetica" font-size="14" lengthAdjust="spacing" textLength="101.165" x="1135" y="1597.7803">shared diagram:</text><text fill="#334155" font-family="Helvetica" font-size="14" lengthAdjust="spacing" textLength="307.3916" x="1135" y="1611.7803">shared/diagrams/shared-resolution-sequence.svg</text><text fill="#334155" font-family="Helvetica" font-size="14" lengthAdjust="spacing" textLength="143.1992" x="1135" y="1625.7803">shared delete diagram:</text><text fill="#334155" font-family="Helvetica" font-size="14" lengthAdjust="spacing" textLength="284.833" x="1135" y="1639.7803">shared/diagrams/shared-delete-sequence.svg</text><text fill="#334155" font-family="Helvetica" font-size="14" lengthAdjust="spacing" textLength="280.9297" x="1135" y="1653.7803">Start from the shared resolution sequence for</text><text fill="#334155" font-family="Helvetica" font-size="14" lengthAdjust="spacing" textLength="260.7295" x="1135" y="1667.7803">OCID binding, datasource pagination, and</text><text fill="#334155" font-family="Helvetica" font-size="14" lengthAdjust="spacing" textLength="163.4268" x="1135" y="1681.7803">create-or-update dispatch.</text><text fill="#334155" font-family="Helvetica" font-size="14" lengthAdjust="spacing" textLength="301.1982" x="1135" y="1695.7803">Layer the shared delete sequence when finalizer</text><text fill="#334155" font-family="Helvetica" font-size="14" lengthAdjust="spacing" textLength="269.2471" x="1135" y="1709.7803">retention, delete confirmation, work-request</text><text fill="#334155" font-family="Helvetica" font-size="14" lengthAdjust="spacing" textLength="199.2334" x="1135" y="1723.7803">polling, or Secret cleanup apply.</text><text fill="#334155" font-family="Helvetica" font-size="14" lengthAdjust="spacing" textLength="281.709" x="1135" y="1737.7803">archetype batch: Generated service-manager</text><text fill="#334155" font-family="Helvetica" font-size="14" lengthAdjust="spacing" textLength="266.1504" x="1135" y="1751.7803">controllers follow the shared resolution and</text><text fill="#334155" font-family="Helvetica" font-size="14" lengthAdjust="spacing" textLength="259.9297" x="1135" y="1765.7803">delete sequences with imported waits and</text><text fill="#334155" font-family="Helvetica" font-size="14" lengthAdjust="spacing" textLength="134.6064" x="1135" y="1779.7803">controller-local policy.</text><text fill="#334155" font-family="Helvetica" font-size="14" lengthAdjust="spacing" textLength="79.3584" x="1135" y="1793.7803">service: adm</text><text fill="#334155" font-family="Helvetica" font-size="14" lengthAdjust="spacing" textLength="29.5723" x="1135" y="1807.7803">slug:</text><text fill="#334155" font-family="Helvetica" font-size="14" lengthAdjust="spacing" textLength="375.1221" x="1135" y="1821.7803">admremediationrunapplicationdependencyrecommendations</text><text fill="#334155" font-family="Helvetica" font-size="14" lengthAdjust="spacing" textLength="29.5723" x="1135" y="1835.7803">kind:</text><text fill="#334155" font-family="Helvetica" font-size="14" lengthAdjust="spacing" textLength="396.8945" x="1135" y="1849.7803">AdmRemediationRunApplicationDependencyRecommendations</text><text fill="#334155" font-family="Helvetica" font-size="14" lengthAdjust="spacing" textLength="241.2402" x="1135" y="1863.7803">archetype: generated-service-manager</text><text fill="#334155" font-family="Helvetica" font-size="14" lengthAdjust="spacing" textLength="156.4063" x="1135" y="1877.7803">status/finalizer: required /</text><text fill="#334155" font-family="Helvetica" font-size="14" lengthAdjust="spacing" textLength="174.3027" x="1135" y="1891.7803">retain-until-confirmed-delete</text><text fill="#334155" font-family="Helvetica" font-size="14" lengthAdjust="spacing" textLength="272.3984" x="1135" y="1905.7803">requeue: provisioning, updating, terminating</text><text fill="#334155" font-family="Helvetica" font-size="14" lengthAdjust="spacing" textLength="295.6816" x="1135" y="1919.7803">provider states: create PROVISIONING; update</text><text fill="#334155" font-family="Helvetica" font-size="14" lengthAdjust="spacing" textLength="192.165" x="1135" y="1933.7803">UPDATING; delete DELETING</text><text fill="#334155" font-family="Helvetica" font-size="14" lengthAdjust="spacing" textLength="183.6611" x="1135" y="1947.7803">supported drift: display_name</text><text fill="#334155" font-family="Helvetica" font-size="14" lengthAdjust="spacing" textLength="230.3301" x="1135" y="1961.7803">reject before mutate: force-new fields</text><text fill="#334155" font-family="Helvetica" font-size="14" lengthAdjust="spacing" textLength="100.3789" x="1135" y="1975.7803">compartment_id</text><text fill="#334155" font-family="Helvetica" font-size="14" lengthAdjust="spacing" textLength="66.1445" x="1135" y="1989.7803">list lookup:</text><text fill="#334155" font-family="Helvetica" font-size="14" lengthAdjust="spacing" textLength="466.1768" x="1135" y="2003.7803">scaffold_adm_admremediationrunapplicationdependencyrecommendations</text><text fill="#334155" font-family="Helvetica" font-size="14" lengthAdjust="spacing" textLength="175.8477" x="1135" y="2017.7803">filters compartment_id, state</text><text fill="#334155" font-family="Helvetica" font-size="14" lengthAdjust="spacing" textLength="89.4961" x="1135" y="2031.7803">conflicts: none</text><text fill="#334155" font-family="Helvetica" font-size="14" lengthAdjust="spacing" textLength="104.3164" x="1135" y="2045.7803">open gaps: none</text><text fill="#334155" font-family="Helvetica" font-size="14" lengthAdjust="spacing" textLength="224.9023" x="1135" y="2059.7803">Scaffold metadata only; replace with</text><text fill="#334155" font-family="Helvetica" font-size="14" lengthAdjust="spacing" textLength="244.3232" x="1135" y="2073.7803">controller-specific runtime states before</text><text fill="#334155" font-family="Helvetica" font-size="14" lengthAdjust="spacing" textLength="66.1445" x="1135" y="2087.7803">promotion.</text><?plantuml-src jLTRRzis57xNhpZeNbeWIfecwSL11gH9jWRDci9krnS30IqTsLmeKYCfkzwm_xx3YsJ9iTV0NP67M2HrBjyvttSeSyzbnJGhmSnOhXPSJg5Wmc1Ysfq9o-wdMjKolr12QVYfoEWlxvp8iM2riByeQJ-m4k4TYZbQdh7DPqRyBuJ3uyucqrejelNdnU6h5zqtfRBuza4CHV4gVxb-IkaSTJmnEJuvUlvcxOHp7_UFZeuFJquw-zvyfhH43OSl4ykjG1ZXdpNA3245bfS7vtavn19ppYnNSbZByweIbAXxkiGAPKw7bqFCL5dIWrytoOpd28LITgA-TXoQnlRV2G3BhDAz128GpTOw0lW2NnVFQPkC4TQyOj9kVhzxu35MEY2rDWGly8RBFiHlZjdHv3NjEfDLRokRv2Tus6uzAD_hWXLPya_YSuFtzGG9TuicwSG15nI8LaAWxYs_PGOTn3BZwrjFRaUtxqUevpp3tvXaKzHFW1deB_LUkRsuJbnhW9fJuVkszzRU8v9ep46ZKQ9sjHt4fGFgY2dLr1o4vtHr96tAl6_cqyP2ZeAotVfssEw_IUtaMpXPWGNfpnsC1e2IpjSubZkrwLZg9l5aPTNvw8CoWFRtK-qYDFPPqZ_YNkf3Du3ME2LlE6MvOvY9xoYuKUgU_Z52PS9bdZ1XmMhgCqANEWg_EalSbnU8VfBel0GcDB9yIRlSM9FqGtH1q-a1_8fsjyYGXBCDedNA3PJS69BMRGvlA9gTF3ujkB2epM0iQTrrDUtPEvxlWR7CuZCFYyRQi0a1xx1mZLbh4XqAYzg9P8bOkIsm2uBBucvW2AKgoBm1S6VSQFaulFtzUdHz--7wmw__F_gKXw_0vdn_TEqteBY1EXLLY_m72PbJc_JwaqjVjpgOSxKBIW2HPvZ7xh_qozkI2BkxvR7596LGS5qsySmv6yjTiHfBfSTovwOFdHK3QJhhykhcwjCFwAhlZRMfOoQGIIeSILF19HDq1T9KLLerdeeJePngFAQ5D5f6ZH81y3ptCaZhUXaO4FUS9j0F2WJKn93bnpe8OQq2PGMfp4EhWN8DxLmdXsWe7n-C8-7Z7Fgv1OiPRrbRKew6236MNT7OWyyVByy_-LzjoRrtmUSD6CuS3HX32Q38KxQWcJgMkUQ51PmpKVlQD4poopC2K3Y5Njq4-d7lkMl2gAugfOc5K5UvysHgNR0C1v1pKmcsl9Dq_Ks6-0Tc5YPOA8rGrYwe0GajgL0gSH72CabViPCuq1f5Xus2lhe5gCfsJ59REOPIFrh7Xf0hbI6dWcNsiMNlXksgu4DlwkmScXO0j-KazjkU8W4TMvPZ-Ta3joiLfLYwf5ll0Sa--buTOdqQTMYQviVCdEtpKzSIPYX8z656vQKKma0yiqKpb_R3Z1t6nxsnxEnzOPnku_gBqlV3C06-S3kxegyb_Ivsx5Y6sN5caMZfjI1piPrT3A_EFrrTdevb0AFhCrIXyKb70hMxHy8CQOuyTho5wNKM6PXJDgs8d0NTIciALwHndhHtNUzW_HAvThrjP8BahD9gpWsbIGZiXMgxNmGUwf8ysfRBcazd5bG1cw_oyURzVVVuRrhPT9yVMM8t55gLO6S83pujLf-7rF49jTEbl-ZwX2bT5gyr5PlwV9NSSrCW2GsMAfr63ZXoC9lDzfCRjYHKEywQ4T8uMinGhbG_eOAvtdAMM-dtLOlk5jIMQRoP91KLoSUcd7HI5AkPnnprznEcindQPOKmSV4urj6dDdDgOa9jqZ8M9skhJY9E_zLY2qOkuxKi32o88y3Bg5GBuf09qBHMKvgsJ035p3EABBeVk4_yn8XwEaZebrx90V6OhUGWR-L0hya1VThdWsGtAMdX6S2q0IPT1oRmww2jqQ0PTZaS9FzDiCYUmJRkG9Sw_WnzpOUfuwPHkCXtP_5fLDcaKTVJfatQoRoQ5tvEhCr9lTES5ExwBFom9BvbhA06oU-eNdUxrImEt2tpjfcg106D7pTsYI9JLZNFenW0b0I-eoMu8NLAPQ4y7QMe5xkDPohCUC4pDneiB-ELnKGG7EwbSd7jjvF-Nm00?></g></svg>