<?plantuml 1.2026.1?><svg xmlns="http://www.w3.org/2000/svg" xmlns:xlink="http://www.w3.org/1999/xlink" contentStyleType="text/css" data-diagram-type="SEQUENCE" height="1964px" preserveAspectRatio="none" style="width:1161px;height:1964px;background:#FCFCFD;" version="1.1" viewBox="0 0 1161 1964" width="1161px" zoomAndPan="magnify"><title>Sequence - dns/RRSet</title><defs/><g><rect fill="#FCFCFD" height="1964" style="stroke:none;stroke-width:1;" width="1161" x="0" y="0"/><text fill="#000000" font-family="Helvetica" font-size="14" font-weight="bold" lengthAdjust="spacing" textLength="149.3652" x="512.2961" y="25.7803">Sequence - dns/RRSet</text><rect fill="none" height="290" rx="8" ry="8" style="stroke:#CBD5E1;stroke-width:1.5;" width="738.3779" x="400.1494" y="314"/><rect fill="none" height="146" rx="8" ry="8" style="stroke:#CBD5E1;stroke-width:1.5;" width="475.9575" x="652.5698" y="423"/><rect fill="none" height="44" rx="8" ry="8" style="stroke:#CBD5E1;stroke-width:1.5;" width="455.9575" x="662.5698" y="474"/><rect fill="none" height="798" rx="8" ry="8" style="stroke:#CBD5E1;stroke-width:1.5;" width="774.8081" x="380.1494" y="618"/><rect fill="none" height="246" rx="8" ry="8" style="stroke:#CBD5E1;stroke-width:1.5;" width="738.3779" x="390.1494" y="641"/><rect fill="none" height="44" rx="8" ry="8" style="stroke:#CBD5E1;stroke-width:1.5;" width="455.9575" x="662.5698" y="734"/><rect fill="none" height="88" rx="8" ry="8" style="stroke:#CBD5E1;stroke-width:1.5;" width="438.813" x="400.1494" y="792"/><rect fill="none" height="378" rx="8" ry="8" style="stroke:#CBD5E1;stroke-width:1.5;" width="754.8081" x="390.1494" y="989"/><rect fill="none" height="44" rx="8" ry="8" style="stroke:#CBD5E1;stroke-width:1.5;" width="438.813" x="400.1494" y="1088"/><rect fill="none" height="116" rx="8" ry="8" style="stroke:#CBD5E1;stroke-width:1.5;" width="475.9575" x="652.5698" y="1146"/><rect fill="none" height="44" rx="8" ry="8" style="stroke:#CBD5E1;stroke-width:1.5;" width="455.9575" x="662.5698" y="1211"/><g class="participant-lifeline" data-entity-uid="part1" data-qualified-name="Kubernetes" id="part1-lifeline"><g><title>Kubernetes</title><rect fill="#000000" fill-opacity="0.00000" height="1843" width="8" x="39.8032" y="114"/><line style="stroke:#94A3B8;stroke-width:0.5;stroke-dasharray:5,5;" x1="43" x2="43" y1="114" y2="1957"/></g></g><g class="participant-lifeline" data-entity-uid="part2" data-qualified-name="Controller" id="part2-lifeline"><g><title>Controller</title><rect fill="#000000" fill-opacity="0.00000" height="1843" width="8" x="223.3472" y="114"/><line style="stroke:#94A3B8;stroke-width:0.5;stroke-dasharray:5,5;" x1="227.0024" x2="227.0024" y1="114" y2="1957"/></g></g><g class="participant-lifeline" data-entity-uid="part3" data-qualified-name="BaseReconciler" id="part3-lifeline"><g><title>BaseReconciler</title><rect fill="#000000" fill-opacity="0.00000" height="1843" width="8" x="462.1733" y="114"/><line style="stroke:#94A3B8;stroke-width:0.5;stroke-dasharray:5,5;" x1="466.1494" x2="466.1494" y1="114" y2="1957"/></g></g><g class="participant-lifeline" data-entity-uid="part4" data-qualified-name="ServiceManager" id="part4-lifeline"><g><title>OSOKServiceManager</title><rect fill="#000000" fill-opacity="0.00000" height="1843" width="8" x="746.7661" y="114"/><line style="stroke:#94A3B8;stroke-width:0.5;stroke-dasharray:5,5;" x1="750.5698" x2="750.5698" y1="114" y2="1957"/></g></g><g class="participant-lifeline" data-entity-uid="part5" data-qualified-name="OCI" id="part5-lifeline"><g><title>OCI</title><rect fill="#000000" fill-opacity="0.00000" height="1843" width="8" x="1085.0825" y="114"/><line style="stroke:#94A3B8;stroke-width:0.5;stroke-dasharray:5,5;" x1="1088.6377" x2="1088.6377" y1="114" y2="1957"/></g></g><g class="participant participant-head" data-entity-uid="part1" data-qualified-name="Kubernetes" id="part1-head"><text fill="#000000" font-family="Helvetica" font-size="14" lengthAdjust="spacing" textLength="71.6064" x="5" y="110.7803">Kubernetes</text><ellipse cx="43.8032" cy="48.5" fill="#E2E8F0" rx="8" ry="8" style="stroke:#0F172A;stroke-width:0.5;"/><path d="M43.8032,56.5 L43.8032,83.5 M30.8032,64.5 L56.8032,64.5 M43.8032,83.5 L30.8032,98.5 M43.8032,83.5 L56.8032,98.5" fill="none" style="stroke:#0F172A;stroke-width:0.5;"/></g><g class="participant participant-head" data-entity-uid="part2" data-qualified-name="Controller" id="part2-head"><rect fill="#E2E8F0" height="28" rx="8" ry="8" style="stroke:#0F172A;stroke-width:0.5;" width="74.6895" x="190.0024" y="85"/><text fill="#0F172A" font-family="Helvetica" font-size="14" lengthAdjust="spacing" textLength="60.6895" x="197.0024" y="102.7803">Controller</text></g><g class="participant participant-head" data-entity-uid="part3" data-qualified-name="BaseReconciler" id="part3-head"><rect fill="#E2E8F0" height="28" rx="8" ry="8" style="stroke:#0F172A;stroke-width:0.5;" width="112.0479" x="410.1494" y="85"/><text fill="#0F172A" font-family="Helvetica" font-size="14" lengthAdjust="spacing" textLength="98.0479" x="417.1494" y="102.7803">BaseReconciler</text></g><g class="participant participant-head" data-entity-uid="part4" data-qualified-name="ServiceManager" id="part4-head"><rect fill="#E2E8F0" height="28" rx="8" ry="8" style="stroke:#0F172A;stroke-width:0.5;" width="156.3926" x="672.5698" y="85"/><text fill="#0F172A" font-family="Helvetica" font-size="14" lengthAdjust="spacing" textLength="142.3926" x="679.5698" y="102.7803">OSOKServiceManager</text></g><g class="participant participant-head" data-entity-uid="part5" data-qualified-name="OCI" id="part5-head"><rect fill="#E2E8F0" height="28" rx="8" ry="8" style="stroke:#0F172A;stroke-width:0.5;" width="38.8896" x="1069.6377" y="85"/><text fill="#0F172A" font-family="Helvetica" font-size="14" lengthAdjust="spacing" textLength="24.8896" x="1076.6377" y="102.7803">OCI</text></g><path d="M401,137 L401,187 A8,8 0 0 0 409,195 L806,195 A8,8 0 0 0 814,187 L814,139 L804,129 L409,129 A8,8 0 0 0 401,137" fill="#FFF7D6" style="stroke:#B45309;stroke-width:0.5;"/><path d="M804,129 L804,135 A4,4 0 0 0 808,139 L814,139 L804,129" fill="#FFF7D6" style="stroke:#B45309;stroke-width:0.5;"/><text fill="#334155" font-family="Helvetica" font-size="14" lengthAdjust="spacing" textLength="111.2891" x="449.7107" y="144.7803">shared resolution:</text><text fill="#334155" font-family="Helvetica" font-size="14" lengthAdjust="spacing" textLength="307.3916" x="449.7107" y="158.7803">shared/diagrams/shared-resolution-sequence.svg</text><text fill="#334155" font-family="Helvetica" font-size="14" lengthAdjust="spacing" textLength="88.7305" x="449.7107" y="172.7803">shared delete:</text><text fill="#334155" font-family="Helvetica" font-size="14" lengthAdjust="spacing" textLength="284.833" x="449.7107" y="186.7803">shared/diagrams/shared-delete-sequence.svg</text><g class="message" data-entity-1="part1" data-entity-2="part2" id="msg1"><polygon fill="#0F172A" points="215.3472,216,225.3472,220,215.3472,224,219.3472,220" style="stroke:#0F172A;stroke-width:1;"/><line style="stroke:#0F172A;stroke-width:1;" x1="43.8032" x2="221.3472" y1="220" y2="220"/><text fill="#000000" font-family="Helvetica" font-size="14" lengthAdjust="spacing" textLength="159.5439" x="50.8032" y="214.7803">enqueue RRSet reconcile</text></g><g class="message" data-entity-1="part2" data-entity-2="part3" id="msg2"><polygon fill="#0F172A" points="454.1733,244,464.1733,248,454.1733,252,458.1733,248" style="stroke:#0F172A;stroke-width:1;"/><line style="stroke:#0F172A;stroke-width:1;" x1="227.3472" x2="460.1733" y1="248" y2="248"/><text fill="#000000" font-family="Helvetica" font-size="14" lengthAdjust="spacing" textLength="117.4961" x="234.3472" y="242.7803">Reconcile(request)</text></g><g class="message" data-entity-1="part3" data-entity-2="part4" id="msg3"><polygon fill="#0F172A" points="738.7661,272,748.7661,276,738.7661,280,742.7661,276" style="stroke:#0F172A;stroke-width:1;"/><line style="stroke:#0F172A;stroke-width:1;" x1="466.1733" x2="744.7661" y1="276" y2="276"/><text fill="#000000" font-family="Helvetica" font-size="14" lengthAdjust="spacing" textLength="150.958" x="473.1733" y="270.7803">reconcile desired RRSet</text></g><path d="M408.1494,314 L461.4873,314 L461.4873,320 L451.4873,330 L400.1494,330 L400.1494,322 A8,8 0 0 1 408.1494,314" fill="#F8FAFC" style="stroke:#CBD5E1;stroke-width:1.5;"/><rect fill="none" height="290" rx="8" ry="8" style="stroke:#CBD5E1;stroke-width:1.5;" width="738.3779" x="400.1494" y="314"/><text fill="#000000" font-family="Helvetica" font-size="14" font-weight="bold" lengthAdjust="spacing" textLength="16.3379" x="415.1494" y="325.7803">alt</text><text fill="#000000" font-family="Helvetica" font-size="14" font-weight="bold" lengthAdjust="spacing" textLength="308.1094" x="476.4873" y="326.7803">[tracked or explicit OCI identity already exists]</text><g class="message" data-entity-1="part4" data-entity-2="part5" id="msg4"><polygon fill="#0F172A" points="1077.0825,346,1087.0825,350,1077.0825,354,1081.0825,350" style="stroke:#0F172A;stroke-width:1;"/><line style="stroke:#0F172A;stroke-width:1;" x1="750.7661" x2="1083.0825" y1="350" y2="350"/><text fill="#000000" font-family="Helvetica" font-size="14" lengthAdjust="spacing" textLength="63.7998" x="757.7661" y="344.7803">GetRRSet</text></g><line style="stroke:#CBD5E1;stroke-width:1;stroke-dasharray:2,2;" x1="400.1494" x2="1138.5273" y1="359" y2="359"/><text fill="#000000" font-family="Helvetica" font-size="14" font-weight="bold" lengthAdjust="spacing" textLength="185.1582" x="405.1494" y="369.7803">[tracked identity is missing]</text><g class="message" data-entity-1="part4" data-entity-2="part5" id="msg5"><polygon fill="#0F172A" points="1077.0825,404,1087.0825,408,1077.0825,412,1081.0825,408" style="stroke:#0F172A;stroke-width:1;"/><line style="stroke:#0F172A;stroke-width:1;" x1="750.7661" x2="1083.0825" y1="408" y2="408"/><text fill="#000000" font-family="Helvetica" font-size="14" lengthAdjust="spacing" textLength="213.1787" x="757.7661" y="388.7803">ListRRSet(filters: compartment_id,</text><text fill="#000000" font-family="Helvetica" font-size="14" lengthAdjust="spacing" textLength="35.0137" x="757.7661" y="402.7803">state)</text></g><path d="M660.5698,423 L713.9077,423 L713.9077,429 L703.9077,439 L652.5698,439 L652.5698,431 A8,8 0 0 1 660.5698,423" fill="#F8FAFC" style="stroke:#CBD5E1;stroke-width:1.5;"/><rect fill="none" height="146" rx="8" ry="8" style="stroke:#CBD5E1;stroke-width:1.5;" width="475.9575" x="652.5698" y="423"/><text fill="#000000" font-family="Helvetica" font-size="14" font-weight="bold" lengthAdjust="spacing" textLength="16.3379" x="667.5698" y="434.7803">alt</text><text fill="#000000" font-family="Helvetica" font-size="14" font-weight="bold" lengthAdjust="spacing" textLength="242.7031" x="728.9077" y="435.7803">[reusable OCI resource is not found]</text><g class="message" data-entity-1="part4" data-entity-2="part5" id="msg6"><polygon fill="#0F172A" points="1077.0825,455,1087.0825,459,1077.0825,463,1081.0825,459" style="stroke:#0F172A;stroke-width:1;"/><line style="stroke:#0F172A;stroke-width:1;" x1="750.7661" x2="1083.0825" y1="459" y2="459"/><text fill="#000000" font-family="Helvetica" font-size="14" lengthAdjust="spacing" textLength="83.2549" x="757.7661" y="453.7803">CreateRRSet</text></g><path d="M670.5698,474 L737.1147,474 L737.1147,480 L727.1147,490 L662.5698,490 L662.5698,482 A8,8 0 0 1 670.5698,474" fill="#F8FAFC" style="stroke:#CBD5E1;stroke-width:1.5;"/><rect fill="none" height="44" rx="8" ry="8" style="stroke:#CBD5E1;stroke-width:1.5;" width="455.9575" x="662.5698" y="474"/><text fill="#000000" font-family="Helvetica" font-size="14" font-weight="bold" lengthAdjust="spacing" textLength="29.5449" x="677.5698" y="485.7803">loop</text><text fill="#000000" font-family="Helvetica" font-size="14" font-weight="bold" lengthAdjust="spacing" textLength="215.4756" x="752.1147" y="486.7803">[create pending PROVISIONING]</text><g class="message" data-entity-1="part4" data-entity-2="part5" id="msg7"><polygon fill="#0F172A" points="1077.0825,506,1087.0825,510,1077.0825,514,1081.0825,510" style="stroke:#0F172A;stroke-width:1;"/><line style="stroke:#0F172A;stroke-width:1;" x1="750.7661" x2="1083.0825" y1="510" y2="510"/><text fill="#000000" font-family="Helvetica" font-size="14" lengthAdjust="spacing" textLength="63.7998" x="757.7661" y="504.7803">GetRRSet</text></g><line style="stroke:#CBD5E1;stroke-width:1;stroke-dasharray:2,2;" x1="652.5698" x2="1128.5273" y1="526" y2="526"/><text fill="#000000" font-family="Helvetica" font-size="14" font-weight="bold" lengthAdjust="spacing" textLength="255.2334" x="657.5698" y="536.7803">[reusable OCI resource already exists]</text><g class="message" data-entity-1="part4" data-entity-2="part5" id="msg8"><polygon fill="#0F172A" points="1077.0825,557,1087.0825,561,1077.0825,565,1081.0825,561" style="stroke:#0F172A;stroke-width:1;"/><line style="stroke:#0F172A;stroke-width:1;" x1="750.7661" x2="1083.0825" y1="561" y2="561"/><text fill="#000000" font-family="Helvetica" font-size="14" lengthAdjust="spacing" textLength="63.7998" x="757.7661" y="555.7803">GetRRSet</text></g><g class="message" data-entity-1="part4" data-entity-2="part3" id="msg9"><polygon fill="#0F172A" points="477.1733,592,467.1733,596,477.1733,600,473.1733,596" style="stroke:#0F172A;stroke-width:1;"/><line style="stroke:#0F172A;stroke-width:1;stroke-dasharray:2,2;" x1="471.1733" x2="749.7661" y1="596" y2="596"/><text fill="#000000" font-family="Helvetica" font-size="14" lengthAdjust="spacing" textLength="231.0957" x="483.1733" y="590.7803">persist resolved OCI identity in status</text></g><path d="M388.1494,618 L441.4873,618 L441.4873,624 L431.4873,634 L380.1494,634 L380.1494,626 A8,8 0 0 1 388.1494,618" fill="#F8FAFC" style="stroke:#CBD5E1;stroke-width:1.5;"/><rect fill="none" height="798" rx="8" ry="8" style="stroke:#CBD5E1;stroke-width:1.5;" width="774.8081" x="380.1494" y="618"/><text fill="#000000" font-family="Helvetica" font-size="14" font-weight="bold" lengthAdjust="spacing" textLength="16.3379" x="395.1494" y="629.7803">alt</text><text fill="#000000" font-family="Helvetica" font-size="14" font-weight="bold" lengthAdjust="spacing" textLength="120.5859" x="456.4873" y="630.7803">[delete requested]</text><path d="M398.1494,641 L477.1699,641 L477.1699,647 L467.1699,657 L390.1494,657 L390.1494,649 A8,8 0 0 1 398.1494,641" fill="#F8FAFC" style="stroke:#CBD5E1;stroke-width:1.5;"/><rect fill="none" height="246" rx="8" ry="8" style="stroke:#CBD5E1;stroke-width:1.5;" width="738.3779" x="390.1494" y="641"/><text fill="#000000" font-family="Helvetica" font-size="14" font-weight="bold" lengthAdjust="spacing" textLength="42.0205" x="405.1494" y="652.7803">Delete</text><g class="message" data-entity-1="part4" data-entity-2="part5" id="msg10"><polygon fill="#0F172A" points="1077.0825,673,1087.0825,677,1077.0825,681,1081.0825,677" style="stroke:#0F172A;stroke-width:1;"/><line style="stroke:#0F172A;stroke-width:1;" x1="750.7661" x2="1083.0825" y1="677" y2="677"/><text fill="#000000" font-family="Helvetica" font-size="14" lengthAdjust="spacing" textLength="81.7031" x="757.7661" y="671.7803">DeleteRRSet</text></g><g class="message" data-entity-1="part4" data-entity-2="part5" id="msg11"><polygon fill="#0F172A" points="1077.0825,715,1087.0825,719,1077.0825,723,1081.0825,719" style="stroke:#0F172A;stroke-width:1;"/><line style="stroke:#0F172A;stroke-width:1;" x1="750.7661" x2="1083.0825" y1="719" y2="719"/><text fill="#000000" font-family="Helvetica" font-size="14" lengthAdjust="spacing" textLength="193.7441" x="757.7661" y="699.7803">confirm delete via GetRRSet or</text><text fill="#000000" font-family="Helvetica" font-size="14" lengthAdjust="spacing" textLength="63.0205" x="757.7661" y="713.7803">ListRRSet</text></g><path d="M670.5698,734 L737.1147,734 L737.1147,740 L727.1147,750 L662.5698,750 L662.5698,742 A8,8 0 0 1 670.5698,734" fill="#F8FAFC" style="stroke:#CBD5E1;stroke-width:1.5;"/><rect fill="none" height="44" rx="8" ry="8" style="stroke:#CBD5E1;stroke-width:1.5;" width="455.9575" x="662.5698" y="734"/><text fill="#000000" font-family="Helvetica" font-size="14" font-weight="bold" lengthAdjust="spacing" textLength="29.5449" x="677.5698" y="745.7803">loop</text><text fill="#000000" font-family="Helvetica" font-size="14" font-weight="bold" lengthAdjust="spacing" textLength="182.7793" x="752.1147" y="746.7803">[delete pending DELETING]</text><g class="message" data-entity-1="part4" data-entity-2="part5" id="msg12"><polygon fill="#0F172A" points="1077.0825,766,1087.0825,770,1077.0825,774,1081.0825,770" style="stroke:#0F172A;stroke-width:1;"/><line style="stroke:#0F172A;stroke-width:1;" x1="750.7661" x2="1083.0825" y1="770" y2="770"/><text fill="#000000" font-family="Helvetica" font-size="14" lengthAdjust="spacing" textLength="147.0479" x="757.7661" y="764.7803">GetRRSet or ListRRSet</text></g><path d="M408.1494,792 L461.4873,792 L461.4873,798 L451.4873,808 L400.1494,808 L400.1494,800 A8,8 0 0 1 408.1494,792" fill="#F8FAFC" style="stroke:#CBD5E1;stroke-width:1.5;"/><rect fill="none" height="88" rx="8" ry="8" style="stroke:#CBD5E1;stroke-width:1.5;" width="438.813" x="400.1494" y="792"/><text fill="#000000" font-family="Helvetica" font-size="14" font-weight="bold" lengthAdjust="spacing" textLength="16.3379" x="415.1494" y="803.7803">alt</text><text fill="#000000" font-family="Helvetica" font-size="14" font-weight="bold" lengthAdjust="spacing" textLength="261.4268" x="476.4873" y="804.7803">[cleanup or finalizer release is blocked]</text><g class="message" data-entity-1="part4" data-entity-2="part3" id="msg13"><polygon fill="#0F172A" points="477.1733,824,467.1733,828,477.1733,832,473.1733,828" style="stroke:#0F172A;stroke-width:1;"/><line style="stroke:#0F172A;stroke-width:1;stroke-dasharray:2,2;" x1="471.1733" x2="749.7661" y1="828" y2="828"/><text fill="#000000" font-family="Helvetica" font-size="14" lengthAdjust="spacing" textLength="170.4336" x="483.1733" y="822.7803">retain delete state and retry</text></g><line style="stroke:#CBD5E1;stroke-width:1;stroke-dasharray:2,2;" x1="400.1494" x2="838.9624" y1="837" y2="837"/><text fill="#000000" font-family="Helvetica" font-size="14" font-weight="bold" lengthAdjust="spacing" textLength="194.4824" x="405.1494" y="847.7803">[delete completion observed]</text><g class="message" data-entity-1="part4" data-entity-2="part3" id="msg14"><polygon fill="#0F172A" points="477.1733,868,467.1733,872,477.1733,876,473.1733,872" style="stroke:#0F172A;stroke-width:1;"/><line style="stroke:#0F172A;stroke-width:1;stroke-dasharray:2,2;" x1="471.1733" x2="749.7661" y1="872" y2="872"/><text fill="#000000" font-family="Helvetica" font-size="14" lengthAdjust="spacing" textLength="243.5781" x="483.1733" y="866.7803">release finalizer after delete completion</text></g><line style="stroke:#CBD5E1;stroke-width:1;stroke-dasharray:2,2;" x1="380.1494" x2="1154.9575" y1="895" y2="895"/><text fill="#000000" font-family="Helvetica" font-size="14" font-weight="bold" lengthAdjust="spacing" textLength="149.3857" x="385.1494" y="905.7803">[OCI state is retryable]</text><g class="message" data-entity-1="part4" data-entity-2="part3" id="msg15"><polygon fill="#0F172A" points="477.1733,940,467.1733,944,477.1733,948,473.1733,944" style="stroke:#0F172A;stroke-width:1;"/><line style="stroke:#0F172A;stroke-width:1;stroke-dasharray:2,2;" x1="471.1733" x2="749.7661" y1="944" y2="944"/><text fill="#000000" font-family="Helvetica" font-size="14" lengthAdjust="spacing" textLength="184.4199" x="483.1733" y="924.7803">requeue while OCI remains in</text><text fill="#000000" font-family="Helvetica" font-size="14" lengthAdjust="spacing" textLength="260.5928" x="483.1733" y="938.7803">PROVISIONING, UPDATING, DELETING</text></g><line style="stroke:#CBD5E1;stroke-width:1;stroke-dasharray:2,2;" x1="380.1494" x2="1154.9575" y1="953" y2="953"/><text fill="#000000" font-family="Helvetica" font-size="14" font-weight="bold" lengthAdjust="spacing" textLength="200.751" x="385.1494" y="963.7803">[live state requires field-aware</text><text fill="#000000" font-family="Helvetica" font-size="14" font-weight="bold" lengthAdjust="spacing" textLength="105.0068" x="385.1494" y="977.7803">drift evaluation]</text><path d="M398.1494,989 L526.1357,989 L526.1357,995 L516.1357,1005 L390.1494,1005 L390.1494,997 A8,8 0 0 1 398.1494,989" fill="#F8FAFC" style="stroke:#CBD5E1;stroke-width:1.5;"/><rect fill="none" height="378" rx="8" ry="8" style="stroke:#CBD5E1;stroke-width:1.5;" width="754.8081" x="390.1494" y="989"/><text fill="#000000" font-family="Helvetica" font-size="14" font-weight="bold" lengthAdjust="spacing" textLength="90.9863" x="405.1494" y="1000.7803">Drift handling</text><path d="M704,1018 L704,1068 A8,8 0 0 0 712,1076 L1126,1076 A8,8 0 0 0 1134,1068 L1134,1020 L1124,1010 L712,1010 A8,8 0 0 0 704,1018" fill="#FFF7D6" style="stroke:#B45309;stroke-width:0.5;"/><path d="M1124,1010 L1124,1016 A4,4 0 0 0 1128,1020 L1134,1020 L1124,1010" fill="#FFF7D6" style="stroke:#B45309;stroke-width:0.5;"/><text fill="#334155" font-family="Helvetica" font-size="14" lengthAdjust="spacing" textLength="255.2813" x="787.3381" y="1025.7803">Supported update surface: display_name</text><text fill="#334155" font-family="Helvetica" font-size="14" lengthAdjust="spacing" textLength="235.7783" x="787.3381" y="1039.7803">Reject before mutate: force-new fields</text><text fill="#334155" font-family="Helvetica" font-size="14" lengthAdjust="spacing" textLength="100.3789" x="787.3381" y="1053.7803">compartment_id</text><text fill="#334155" font-family="Helvetica" font-size="14" lengthAdjust="spacing" textLength="229.5576" x="787.3381" y="1067.7803">Lookup filters: compartment_id, state</text><path d="M408.1494,1088 L466.915,1088 L466.915,1094 L456.915,1104 L400.1494,1104 L400.1494,1096 A8,8 0 0 1 408.1494,1088" fill="#F8FAFC" style="stroke:#CBD5E1;stroke-width:1.5;"/><rect fill="none" height="44" rx="8" ry="8" style="stroke:#CBD5E1;stroke-width:1.5;" width="438.813" x="400.1494" y="1088"/><text fill="#000000" font-family="Helvetica" font-size="14" font-weight="bold" lengthAdjust="spacing" textLength="21.7656" x="415.1494" y="1099.7803">opt</text><text fill="#000000" font-family="Helvetica" font-size="14" font-weight="bold" lengthAdjust="spacing" textLength="276.1309" x="481.915" y="1100.7803">[force-new or conflicting drift is detected]</text><g class="message" data-entity-1="part4" data-entity-2="part3" id="msg16"><polygon fill="#0F172A" points="477.1733,1120,467.1733,1124,477.1733,1128,473.1733,1124" style="stroke:#0F172A;stroke-width:1;"/><line style="stroke:#0F172A;stroke-width:1;stroke-dasharray:2,2;" x1="471.1733" x2="749.7661" y1="1124" y2="1124"/><text fill="#000000" font-family="Helvetica" font-size="14" lengthAdjust="spacing" textLength="164.1855" x="483.1733" y="1118.7803">reject before OCI mutation</text></g><path d="M660.5698,1146 L719.3354,1146 L719.3354,1152 L709.3354,1162 L652.5698,1162 L652.5698,1154 A8,8 0 0 1 660.5698,1146" fill="#F8FAFC" style="stroke:#CBD5E1;stroke-width:1.5;"/><rect fill="none" height="116" rx="8" ry="8" style="stroke:#CBD5E1;stroke-width:1.5;" width="475.9575" x="652.5698" y="1146"/><text fill="#000000" font-family="Helvetica" font-size="14" font-weight="bold" lengthAdjust="spacing" textLength="21.7656" x="667.5698" y="1157.7803">opt</text><text fill="#000000" font-family="Helvetica" font-size="14" font-weight="bold" lengthAdjust="spacing" textLength="243.4619" x="734.3354" y="1158.7803">[supported mutable drift is detected]</text><g class="message" data-entity-1="part4" data-entity-2="part5" id="msg17"><polygon fill="#0F172A" points="1077.0825,1192,1087.0825,1196,1077.0825,1200,1081.0825,1196" style="stroke:#0F172A;stroke-width:1;"/><line style="stroke:#0F172A;stroke-width:1;" x1="750.7661" x2="1083.0825" y1="1196" y2="1196"/><text fill="#000000" font-family="Helvetica" font-size="14" lengthAdjust="spacing" textLength="228.7852" x="757.7661" y="1176.7803">Apply UpdateRRSet only for mutable</text><text fill="#000000" font-family="Helvetica" font-size="14" lengthAdjust="spacing" textLength="122.958" x="757.7661" y="1190.7803">fields display_name</text></g><path d="M670.5698,1211 L737.1147,1211 L737.1147,1217 L727.1147,1227 L662.5698,1227 L662.5698,1219 A8,8 0 0 1 670.5698,1211" fill="#F8FAFC" style="stroke:#CBD5E1;stroke-width:1.5;"/><rect fill="none" height="44" rx="8" ry="8" style="stroke:#CBD5E1;stroke-width:1.5;" width="455.9575" x="662.5698" y="1211"/><text fill="#000000" font-family="Helvetica" font-size="14" font-weight="bold" lengthAdjust="spacing" textLength="29.5449" x="677.5698" y="1222.7803">loop</text><text fill="#000000" font-family="Helvetica" font-size="14" font-weight="bold" lengthAdjust="spacing" textLength="190.5381" x="752.1147" y="1223.7803">[update pending UPDATING]</text><g class="message" data-entity-1="part4" data-entity-2="part5" id="msg18"><polygon fill="#0F172A" points="1077.0825,1243,1087.0825,1247,1077.0825,1251,1081.0825,1247" style="stroke:#0F172A;stroke-width:1;"/><line style="stroke:#0F172A;stroke-width:1;" x1="750.7661" x2="1083.0825" y1="1247" y2="1247"/><text fill="#000000" font-family="Helvetica" font-size="14" lengthAdjust="spacing" textLength="63.7998" x="757.7661" y="1241.7803">GetRRSet</text></g><g class="message" data-entity-1="part4" data-entity-2="part5" id="msg19"><polygon fill="#0F172A" points="1077.0825,1355,1087.0825,1359,1077.0825,1363,1081.0825,1359" style="stroke:#0F172A;stroke-width:1;"/><line style="stroke:#0F172A;stroke-width:1;" x1="750.7661" x2="1083.0825" y1="1359" y2="1359"/><text fill="#000000" font-family="Helvetica" font-size="14" lengthAdjust="spacing" textLength="104.2891" x="757.7661" y="1283.7803">run helper hooks</text><text fill="#000000" font-family="Helvetica" font-size="14" lengthAdjust="spacing" textLength="219.0508" x="757.7661" y="1297.7803">create=tfresource.CreateResource,</text><text fill="#000000" font-family="Helvetica" font-size="14" lengthAdjust="spacing" textLength="314.3164" x="757.7661" y="1311.7803">tfresource.WaitForWorkRequestWithErrorHandling</text><text fill="#000000" font-family="Helvetica" font-size="14" lengthAdjust="spacing" textLength="215.5439" x="757.7661" y="1325.7803">entity=template action=CREATED;</text><text fill="#000000" font-family="Helvetica" font-size="14" lengthAdjust="spacing" textLength="226.085" x="757.7661" y="1339.7803">update=tfresource.UpdateResource;</text><text fill="#000000" font-family="Helvetica" font-size="14" lengthAdjust="spacing" textLength="212.8438" x="757.7661" y="1353.7803">delete=tfresource.DeleteResource</text></g><g class="message" data-entity-1="part4" data-entity-2="part3" id="msg20"><polygon fill="#0F172A" points="477.1733,1404,467.1733,1408,477.1733,1412,473.1733,1408" style="stroke:#0F172A;stroke-width:1;"/><line style="stroke:#0F172A;stroke-width:1;stroke-dasharray:2,2;" x1="471.1733" x2="749.7661" y1="1408" y2="1408"/><text fill="#000000" font-family="Helvetica" font-size="14" lengthAdjust="spacing" textLength="100.7822" x="483.1733" y="1388.7803">status=required,</text><text fill="#000000" font-family="Helvetica" font-size="14" lengthAdjust="spacing" textLength="230.7197" x="483.1733" y="1402.7803">finalizer=retain-until-confirmed-delete</text></g><g class="message" data-entity-1="part3" data-entity-2="part2" id="msg21"><polygon fill="#0F172A" points="238.3472,1453,228.3472,1457,238.3472,1461,234.3472,1457" style="stroke:#0F172A;stroke-width:1;"/><line style="stroke:#0F172A;stroke-width:1;stroke-dasharray:2,2;" x1="232.3472" x2="465.1733" y1="1457" y2="1457"/><text fill="#000000" font-family="Helvetica" font-size="14" lengthAdjust="spacing" textLength="214.8262" x="244.3472" y="1437.7803">requeue on provisioning, updating,</text><text fill="#000000" font-family="Helvetica" font-size="14" lengthAdjust="spacing" textLength="69.2549" x="244.3472" y="1451.7803">terminating</text></g><path d="M755,1478 L755,1934 A8,8 0 0 0 763,1942 L1075,1942 A8,8 0 0 0 1083,1934 L1083,1480 L1073,1470 L763,1470 A8,8 0 0 0 755,1478" fill="#FFF7D6" style="stroke:#B45309;stroke-width:0.5;"/><path d="M1073,1470 L1073,1476 A4,4 0 0 0 1077,1480 L1083,1480 L1073,1470" fill="#FFF7D6" style="stroke:#B45309;stroke-width:0.5;"/><text fill="#334155" font-family="Helvetica" font-size="14" lengthAdjust="spacing" textLength="101.165" x="761" y="1485.7803">shared diagram:</text><text fill="#334155" font-family="Helvetica" font-size="14" lengthAdjust="spacing" textLength="307.3916" x="761" y="1499.7803">shared/diagrams/shared-resolution-sequence.svg</text><text fill="#334155" font-family="Helvetica" font-size="14" lengthAdjust="spacing" textLength="143.1992" x="761" y="1513.7803">shared delete diagram:</text><text fill="#334155" font-family="Helvetica" font-size="14" lengthAdjust="spacing" textLength="284.833" x="761" y="1527.7803">shared/diagrams/shared-delete-sequence.svg</text><text fill="#334155" font-family="Helvetica" font-size="14" lengthAdjust="spacing" textLength="280.9297" x="761" y="1541.7803">Start from the shared resolution sequence for</text><text fill="#334155" font-family="Helvetica" font-size="14" lengthAdjust="spacing" textLength="260.7295" x="761" y="1555.7803">OCID binding, datasource pagination, and</text><text fill="#334155" font-family="Helvetica" font-size="14" lengthAdjust="spacing" textLength="163.4268" x="761" y="1569.7803">create-or-update dispatch.</text><text fill="#334155" font-family="Helvetica" font-size="14" lengthAdjust="spacing" textLength="301.1982" x="761" y="1583.7803">Layer the shared delete sequence when finalizer</text><text fill="#334155" font-family="Helvetica" font-size="14" lengthAdjust="spacing" textLength="269.2471" x="761" y="1597.7803">retention, delete confirmation, work-request</text><text fill="#334155" font-family="Helvetica" font-size="14" lengthAdjust="spacing" textLength="199.2334" x="761" y="1611.7803">polling, or Secret cleanup apply.</text><text fill="#334155" font-family="Helvetica" font-size="14" lengthAdjust="spacing" textLength="281.709" x="761" y="1625.7803">archetype batch: Generated service-manager</text><text fill="#334155" font-family="Helvetica" font-size="14" lengthAdjust="spacing" textLength="266.1504" x="761" y="1639.7803">controllers follow the shared resolution and</text><text fill="#334155" font-family="Helvetica" font-size="14" lengthAdjust="spacing" textLength="259.9297" x="761" y="1653.7803">delete sequences with imported waits and</text><text fill="#334155" font-family="Helvetica" font-size="14" lengthAdjust="spacing" textLength="134.6064" x="761" y="1667.7803">controller-local policy.</text><text fill="#334155" font-family="Helvetica" font-size="14" lengthAdjust="spacing" textLength="74.6963" x="761" y="1681.7803">service: dns</text><text fill="#334155" font-family="Helvetica" font-size="14" lengthAdjust="spacing" textLength="61.4619" x="761" y="1695.7803">slug: rrset</text><text fill="#334155" font-family="Helvetica" font-size="14" lengthAdjust="spacing" textLength="74.6963" x="761" y="1709.7803">kind: RRSet</text><text fill="#334155" font-family="Helvetica" font-size="14" lengthAdjust="spacing" textLength="241.2402" x="761" y="1723.7803">archetype: generated-service-manager</text><text fill="#334155" font-family="Helvetica" font-size="14" lengthAdjust="spacing" textLength="156.4063" x="761" y="1737.7803">status/finalizer: required /</text><text fill="#334155" font-family="Helvetica" font-size="14" lengthAdjust="spacing" textLength="174.3027" x="761" y="1751.7803">retain-until-confirmed-delete</text><text fill="#334155" font-family="Helvetica" font-size="14" lengthAdjust="spacing" textLength="272.3984" x="761" y="1765.7803">requeue: provisioning, updating, terminating</text><text fill="#334155" font-family="Helvetica" font-size="14" lengthAdjust="spacing" textLength="295.6816" x="761" y="1779.7803">provider states: create PROVISIONING; update</text><text fill="#334155" font-family="Helvetica" font-size="14" lengthAdjust="spacing" textLength="192.165" x="761" y="1793.7803">UPDATING; delete DELETING</text><text fill="#334155" font-family="Helvetica" font-size="14" lengthAdjust="spacing" textLength="183.6611" x="761" y="1807.7803">supported drift: display_name</text><text fill="#334155" font-family="Helvetica" font-size="14" lengthAdjust="spacing" textLength="230.3301" x="761" y="1821.7803">reject before mutate: force-new fields</text><text fill="#334155" font-family="Helvetica" font-size="14" lengthAdjust="spacing" textLength="100.3789" x="761" y="1835.7803">compartment_id</text><text fill="#334155" font-family="Helvetica" font-size="14" lengthAdjust="spacing" textLength="221.7646" x="761" y="1849.7803">list lookup: scaffold_dns_rrset filters</text><text fill="#334155" font-family="Helvetica" font-size="14" lengthAdjust="spacing" textLength="138.5098" x="761" y="1863.7803">compartment_id, state</text><text fill="#334155" font-family="Helvetica" font-size="14" lengthAdjust="spacing" textLength="89.4961" x="761" y="1877.7803">conflicts: none</text><text fill="#334155" font-family="Helvetica" font-size="14" lengthAdjust="spacing" textLength="104.3164" x="761" y="1891.7803">open gaps: none</text><text fill="#334155" font-family="Helvetica" font-size="14" lengthAdjust="spacing" textLength="224.9023" x="761" y="1905.7803">Scaffold metadata only; replace with</text><text fill="#334155" font-family="Helvetica" font-size="14" lengthAdjust="spacing" textLength="244.3232" x="761" y="1919.7803">controller-specific runtime states before</text><text fill="#334155" font-family="Helvetica" font-size="14" lengthAdjust="spacing" textLength="66.1445" x="761" y="1933.7803">promotion.</text><?plantuml-src fLTTRzis57tNho2wbnQ8awP9-k4W0zeaMuDcJH6twuk1W9QkR2uqgP6KtMpOVz_XXsJ9iLTlGnvYaTJzEFVSSobxBrJ53PypE-E5NWerPIMNbZBRxanuVZyrkbR5kPRQi1_A77z5vqH19Q-b-qahzv7FYRqdkI0dShxvp4ZyGUpmkBF9ZT7BPFrvUVZgHVTDfHszUnH3MRugNgwVqgOWaqvCZa-EdhzPE-7Tf_sZe-F3avFEVZ2VQwF8iCENcHDE4XlHxpMfdDY05SeUtDwEo6KpKH0hjNOJ_QrZm3Pd_ymOuxdJfXTGIgpPMi-8Nj3hyZcsOGpOYOehj_dzxe5Th7IIRcr8KTArK7t8tXppeybhx7gJLMyhdnGdTDXkFIh7wvANUVPN5d9Z7-e90KT7Dkl4mSuHYD5Iakajl-EMRYdNAXVhMqzkHZSVHcGM8gTVkE9JCayOjwo_r7lbvlmgywLcUe52zctlhRq7qXigc26hPUs4LiEqT508FaLDxK5y7goE39eoxzl5jB5Ga4IsMz-Es_qtIHM1ajaAB3RuiOFHa972-PfOO1sYJ6bagpF-ZNwAGzR-VcgyF-kUPVqZ_gK-4CELSQHYXKyfKZsKcrrhVOz_725FX2eoBXrp1YJ0EPIRlbKIy0Vi6Nf3eNSU69U6UF60NM6TpVeUVGmuFMG_aukU2AhJ6csD2ClcmbheqZO3rx0UB3mjXNHax93bUkuPCOUDEr7iZPLrtD6p4BQXsl89ylIn-ghM1XqBDwW5UXgKtkRe7EauYi5AhIkMXmLMeP9UDp_TtlnwDRgw-NZryUVlPmi_8UFDyVnRx3P4lO4P5T21lSZt1M3krKievd6gRJ3diOgqPOb6L2GsN8JbRK75tHZNbYE8g1HctjXV2Dwc0ZgDLLlIY7Cwrk1ySNbz-Na7Z3qpLvQQd799N249R9P2SObPP90XLcsWmKHgpy1Tu3JaE41BuGMEXHR1kdc8rKrxdf3u0VLWUc9XULS7CQnLeBm4mnzRZNHgAEMh6gD1FY4OJx3T74R1MSv4oyWvShGWnrXr2Rx7ldowUFiv_6eB4hnBiMZ0yEQW9HO9a2m6V0an7Al2YD8nMd1Pyn1yObLOdW50wRjz9U7zkFUyle_ggj86Z6HrLNXFjZObpsd82c4hoH_k5EuXsItzHhbZ4ogr8JQlVL13D3awRA1e6SEoMLykiYHsszGavhQIRrsvZadGohCRSkWyLsEkA4E1WkLkrx9tm_PL2A4tTVOERGk0t_BoyNrFgJtULfLyO5y2RgbF51RWgx4rLX6OFfYX5HFSJIis7DXDxhPBgwaLcv64Fh4PqBTZ5RNrp9MD9Eud-KsF4FNEtbSkSCinNxMvlurYzLMusILkbUPz8jHOHPaxSuIk2QsQUqZFpcylttw-l3WTgvXSrsT2AJtYIEoyxf4aT-bnLoMEGdkM6iIFgBR7pwAi36g4AmT9AjixH72mFixNhWrD5qDjAgCNmY9D8B0Ng-T_0JmoStXqRQiPCPs12YNRV4LADvh_Tp_whfLDzwIHG_EnqkWvSpDYZwvigsitA9o1JXVXZX8IHheyJTIAJqE-MkrvaSuYmGRQ31AdFTcvosVxsJL_0AeTPut2DuwMCr8hKSvGCCyjRxbLvb2rv6u9MWxI4Cqg52d4fhso8OhLIEA-C_SpRl8PkOUAyEM5U7mNuPE4-sQtiJQ3UIfEtbOT6el_Uha58v_nMXQMBT4ZJCoJa2pHGpP2qreTO1XooH2po15PSZ_qdqAPbVKKN3CMxOrFe6AORenj-4CsRG8Vh0SU-N_GOZXiPaN13h9_Re34xk4sRhCkjSCPVCL4qVPY7kzitL5scbGjQzJij2bZEzXMSXjaTctCcFyqPgI_YSamQw07EIzHmE8EoDu5J9lvasqUFysGGKfAAp-5GCafhvhdKJB8vW3Jjq5G-LF0ZBWzXL7xRg5jHRaeHUwbs8bvck0s9ULnd6lFfFrsyFqD?></g></svg>