<?plantuml 1.2026.1?><svg xmlns="http://www.w3.org/2000/svg" xmlns:xlink="http://www.w3.org/1999/xlink" contentStyleType="text/css" data-diagram-type="ACTIVITY" height="1469px" preserveAspectRatio="none" style="width:758px;height:1469px;background:#FCFCFD;" version="1.1" viewBox="0 0 758 1469" width="758px" zoomAndPan="magnify"><title>Activity - delegateaccesscontrol/DelegateAccessControlDelegationSubscription</title><defs/><g><rect fill="#FCFCFD" height="1469" style="stroke:none;stroke-width:1;" width="758" x="0" y="0"/><g class="title" data-source-line="10"><text fill="#000000" font-family="Helvetica" font-size="14" font-weight="bold" lengthAdjust="spacing" textLength="532.1504" x="111.7638" y="30.7803">Activity - delegateaccesscontrol/DelegateAccessControlDelegationSubscription</text></g><ellipse cx="375.6379" cy="55" fill="#1D4ED8" rx="10" ry="10" style="stroke:#222222;stroke-width:1;"/><rect fill="#F8FAFC" height="48" rx="8" ry="8" style="stroke:#0F172A;stroke-width:0.5;" width="304.7852" x="223.2454" y="85"/><text fill="#0F172A" font-family="Helvetica" font-size="14" lengthAdjust="spacing" textLength="136.9375" x="233.2454" y="105.7803">Start from shared flow</text><text fill="#0F172A" font-family="Helvetica" font-size="14" lengthAdjust="spacing" textLength="284.7852" x="233.2454" y="119.7803">shared/diagrams/shared-reconcile-activity.svg</text><rect fill="#F8FAFC" height="62" rx="8" ry="8" style="stroke:#0F172A;stroke-width:0.5;" width="310.2744" x="220.5007" y="153"/><text fill="#0F172A" font-family="Helvetica" font-size="14" lengthAdjust="spacing" textLength="80.9512" x="230.5007" y="173.7803">Load desired</text><text fill="#0F172A" font-family="Helvetica" font-size="14" lengthAdjust="spacing" textLength="290.2744" x="230.5007" y="187.7803">DelegateAccessControlDelegationSubscription</text><text fill="#0F172A" font-family="Helvetica" font-size="14" lengthAdjust="spacing" textLength="205.4473" x="230.5007" y="201.7803">spec and status from Kubernetes</text><rect fill="#F8FAFC" height="90" rx="8" ry="8" style="stroke:#0F172A;stroke-width:0.5;" width="332.8398" x="209.218" y="235"/><text fill="#0F172A" font-family="Helvetica" font-size="14" lengthAdjust="spacing" textLength="135.3857" x="219.218" y="255.7803">Resolve OCI state via</text><text fill="#0F172A" font-family="Helvetica" font-size="14" lengthAdjust="spacing" textLength="312.8398" x="219.218" y="269.7803">GetDelegateAccessControlDelegationSubscription</text><text fill="#0F172A" font-family="Helvetica" font-size="14" lengthAdjust="spacing" textLength="24.8965" x="219.218" y="283.7803">with</text><text fill="#0F172A" font-family="Helvetica" font-size="14" lengthAdjust="spacing" textLength="312.0605" x="219.218" y="297.7803">ListDelegateAccessControlDelegationSubscription</text><text fill="#0F172A" font-family="Helvetica" font-size="14" lengthAdjust="spacing" textLength="47.4688" x="219.218" y="311.7803">fallback</text><rect fill="#F8FAFC" height="76" rx="8" ry="8" style="stroke:#0F172A;stroke-width:0.5;" width="501.7559" x="124.76" y="345"/><text fill="#0F172A" font-family="Helvetica" font-size="14" lengthAdjust="spacing" textLength="24.8965" x="134.76" y="365.7803">Use</text><text fill="#0F172A" font-family="Helvetica" font-size="14" lengthAdjust="spacing" textLength="481.7559" x="134.76" y="379.7803">scaffold_delegateaccesscontrol_delegateaccesscontroldelegationsubscription</text><text fill="#0F172A" font-family="Helvetica" font-size="14" lengthAdjust="spacing" textLength="297.2402" x="134.76" y="393.7803">filters compartment_id, state when OCID lookup</text><text fill="#0F172A" font-family="Helvetica" font-size="14" lengthAdjust="spacing" textLength="259.9023" x="134.76" y="407.7803">or bind-versus-create needs list resolution</text><polygon fill="#E2E8F0" points="321.9485,441,429.3274,441,441.3274,453,429.3274,465,321.9485,465,309.9485,453,321.9485,441" style="stroke:#1D4ED8;stroke-width:0.5;"/><text fill="#0F172A" font-family="Helvetica" font-size="14" lengthAdjust="spacing" textLength="107.3789" x="321.9485" y="456.7803">Resource exists?</text><text fill="#000000" font-family="Helvetica" font-size="14" lengthAdjust="spacing" textLength="21.7861" x="288.1624" y="449.7803">yes</text><text fill="#000000" font-family="Helvetica" font-size="14" lengthAdjust="spacing" textLength="15.5723" x="441.3274" y="449.7803">no</text><rect fill="#F8FAFC" height="48" rx="8" ry="8" style="stroke:#0F172A;stroke-width:0.5;" width="355.4189" x="11" y="475"/><text fill="#0F172A" font-family="Helvetica" font-size="14" lengthAdjust="spacing" textLength="108.1787" x="21" y="495.7803">Update path calls</text><text fill="#0F172A" font-family="Helvetica" font-size="14" lengthAdjust="spacing" textLength="335.4189" x="21" y="509.7803">UpdateDelegateAccessControlDelegationSubscription</text><rect fill="#F8FAFC" height="48" rx="8" ry="8" style="stroke:#0F172A;stroke-width:0.5;" width="266.7021" x="55.3584" y="543"/><text fill="#0F172A" font-family="Helvetica" font-size="14" lengthAdjust="spacing" textLength="246.7021" x="65.3584" y="563.7803">Guard mutable fields display_name and</text><text fill="#0F172A" font-family="Helvetica" font-size="14" lengthAdjust="spacing" textLength="202.3096" x="65.3584" y="577.7803">force-new fields compartment_id</text><rect fill="#F8FAFC" height="48" rx="8" ry="8" style="stroke:#0F172A;stroke-width:0.5;" width="352.2949" x="386.4189" y="475"/><text fill="#0F172A" font-family="Helvetica" font-size="14" lengthAdjust="spacing" textLength="105.0547" x="396.4189" y="495.7803">Create path calls</text><text fill="#0F172A" font-family="Helvetica" font-size="14" lengthAdjust="spacing" textLength="332.2949" x="396.4189" y="509.7803">CreateDelegateAccessControlDelegationSubscription</text><polygon fill="#E2E8F0" points="375.6379,597,387.6379,609,375.6379,621,363.6379,609,375.6379,597" style="stroke:#1D4ED8;stroke-width:0.5;"/><rect fill="#F8FAFC" height="104" rx="8" ry="8" style="stroke:#0F172A;stroke-width:0.5;" width="334.3164" x="208.4797" y="641"/><text fill="#0F172A" font-family="Helvetica" font-size="14" lengthAdjust="spacing" textLength="164.2061" x="218.4797" y="661.7803">Run provider helper hooks</text><text fill="#0F172A" font-family="Helvetica" font-size="14" lengthAdjust="spacing" textLength="219.0508" x="218.4797" y="675.7803">create=tfresource.CreateResource,</text><text fill="#0F172A" font-family="Helvetica" font-size="14" lengthAdjust="spacing" textLength="314.3164" x="218.4797" y="689.7803">tfresource.WaitForWorkRequestWithErrorHandling</text><text fill="#0F172A" font-family="Helvetica" font-size="14" lengthAdjust="spacing" textLength="215.5439" x="218.4797" y="703.7803">entity=template action=CREATED;</text><text fill="#0F172A" font-family="Helvetica" font-size="14" lengthAdjust="spacing" textLength="226.085" x="218.4797" y="717.7803">update=tfresource.UpdateResource;</text><text fill="#0F172A" font-family="Helvetica" font-size="14" lengthAdjust="spacing" textLength="212.8438" x="218.4797" y="731.7803">delete=tfresource.DeleteResource</text><rect fill="#F8FAFC" height="34" rx="8" ry="8" style="stroke:#0F172A;stroke-width:0.5;" width="263.5918" x="243.842" y="765"/><text fill="#0F172A" font-family="Helvetica" font-size="14" lengthAdjust="spacing" textLength="243.5918" x="253.842" y="785.7803">Apply repo-authored secret policy none</text><rect fill="#F8FAFC" height="118" rx="8" ry="8" style="stroke:#0F172A;stroke-width:0.5;" width="350.7432" x="200.2664" y="819"/><text fill="#0F172A" font-family="Helvetica" font-size="14" lengthAdjust="spacing" textLength="105.0684" x="210.2664" y="839.7803">Delete path uses</text><text fill="#0F172A" font-family="Helvetica" font-size="14" lengthAdjust="spacing" textLength="330.7432" x="210.2664" y="853.7803">DeleteDelegateAccessControlDelegationSubscription</text><text fill="#0F172A" font-family="Helvetica" font-size="14" lengthAdjust="spacing" textLength="101.9375" x="210.2664" y="867.7803">with required via</text><text fill="#0F172A" font-family="Helvetica" font-size="14" lengthAdjust="spacing" textLength="312.8398" x="210.2664" y="881.7803">GetDelegateAccessControlDelegationSubscription</text><text fill="#0F172A" font-family="Helvetica" font-size="14" lengthAdjust="spacing" textLength="12.4482" x="210.2664" y="895.7803">or</text><text fill="#0F172A" font-family="Helvetica" font-size="14" lengthAdjust="spacing" textLength="312.0605" x="210.2664" y="909.7803">ListDelegateAccessControlDelegationSubscription</text><text fill="#0F172A" font-family="Helvetica" font-size="14" lengthAdjust="spacing" textLength="160.2822" x="210.2664" y="923.7803">to DELETED confirmation</text><rect fill="#F8FAFC" height="48" rx="8" ry="8" style="stroke:#0F172A;stroke-width:0.5;" width="279.1299" x="236.073" y="957"/><text fill="#0F172A" font-family="Helvetica" font-size="14" lengthAdjust="spacing" textLength="259.1299" x="246.073" y="977.7803">Project required status and finalizer policy</text><text fill="#0F172A" font-family="Helvetica" font-size="14" lengthAdjust="spacing" textLength="174.3027" x="246.073" y="991.7803">retain-until-confirmed-delete</text><rect fill="#F8FAFC" height="34" rx="8" ry="8" style="stroke:#0F172A;stroke-width:0.5;" width="313.4189" x="218.9285" y="1025"/><text fill="#0F172A" font-family="Helvetica" font-size="14" lengthAdjust="spacing" textLength="293.4189" x="228.9285" y="1045.7803">Requeue on provisioning, updating, terminating</text><path d="M406.6379,1069 L406.6379,1259 L386.6379,1263 L406.6379,1267 L406.6379,1457 A0,0 0 0 0 406.6379,1457 L746.678,1457 A0,0 0 0 0 746.678,1457 L746.678,1079 L736.678,1069 L406.6379,1069 A0,0 0 0 0 406.6379,1069" fill="#FFF7D6" style="stroke:#B45309;stroke-width:0.5;"/><path d="M736.678,1069 L736.678,1079 L746.678,1079 L736.678,1069" fill="#FFF7D6" style="stroke:#B45309;stroke-width:0.5;"/><text fill="#334155" font-family="Helvetica" font-size="14" lengthAdjust="spacing" textLength="101.165" x="412.6379" y="1084.7803">shared diagram:</text><text fill="#334155" font-family="Helvetica" font-size="14" lengthAdjust="spacing" textLength="284.7852" x="412.6379" y="1098.7803">shared/diagrams/shared-reconcile-activity.svg</text><text fill="#334155" font-family="Helvetica" font-size="14" lengthAdjust="spacing" textLength="265.3438" x="412.6379" y="1112.7803">Start from the shared reconcile activity and</text><text fill="#334155" font-family="Helvetica" font-size="14" lengthAdjust="spacing" textLength="273.8955" x="412.6379" y="1126.7803">specialize provider-backed CRUD, wait, and</text><text fill="#334155" font-family="Helvetica" font-size="14" lengthAdjust="spacing" textLength="182.875" x="412.6379" y="1140.7803">status-projection details here.</text><text fill="#334155" font-family="Helvetica" font-size="14" lengthAdjust="spacing" textLength="229.5371" x="412.6379" y="1154.7803">Controller-local activity diagrams add</text><text fill="#334155" font-family="Helvetica" font-size="14" lengthAdjust="spacing" textLength="238.8955" x="412.6379" y="1168.7803">list-lookup hints, secret policies, delete</text><text fill="#334155" font-family="Helvetica" font-size="14" lengthAdjust="spacing" textLength="200.0332" x="412.6379" y="1182.7803">handling, and open formal gaps.</text><text fill="#334155" font-family="Helvetica" font-size="14" lengthAdjust="spacing" textLength="281.709" x="412.6379" y="1196.7803">archetype batch: Generated service-manager</text><text fill="#334155" font-family="Helvetica" font-size="14" lengthAdjust="spacing" textLength="291.0469" x="412.6379" y="1210.7803">controllers specialize the shared reconcile path</text><text fill="#334155" font-family="Helvetica" font-size="14" lengthAdjust="spacing" textLength="189.8477" x="412.6379" y="1224.7803">with formal runtime ownership.</text><text fill="#334155" font-family="Helvetica" font-size="14" lengthAdjust="spacing" textLength="191.4336" x="412.6379" y="1238.7803">service: delegateaccesscontrol</text><text fill="#334155" font-family="Helvetica" font-size="14" lengthAdjust="spacing" textLength="29.5723" x="412.6379" y="1252.7803">slug:</text><text fill="#334155" font-family="Helvetica" font-size="14" lengthAdjust="spacing" textLength="278.626" x="412.6379" y="1266.7803">delegateaccesscontroldelegationsubscription</text><text fill="#334155" font-family="Helvetica" font-size="14" lengthAdjust="spacing" textLength="29.5723" x="412.6379" y="1280.7803">kind:</text><text fill="#334155" font-family="Helvetica" font-size="14" lengthAdjust="spacing" textLength="290.2744" x="412.6379" y="1294.7803">DelegateAccessControlDelegationSubscription</text><text fill="#334155" font-family="Helvetica" font-size="14" lengthAdjust="spacing" textLength="241.2402" x="412.6379" y="1308.7803">archetype: generated-service-manager</text><text fill="#334155" font-family="Helvetica" font-size="14" lengthAdjust="spacing" textLength="156.4063" x="412.6379" y="1322.7803">status/finalizer: required /</text><text fill="#334155" font-family="Helvetica" font-size="14" lengthAdjust="spacing" textLength="174.3027" x="412.6379" y="1336.7803">retain-until-confirmed-delete</text><text fill="#334155" font-family="Helvetica" font-size="14" lengthAdjust="spacing" textLength="272.3984" x="412.6379" y="1350.7803">requeue: provisioning, updating, terminating</text><text fill="#334155" font-family="Helvetica" font-size="14" lengthAdjust="spacing" textLength="295.6816" x="412.6379" y="1364.7803">provider states: create PROVISIONING; update</text><text fill="#334155" font-family="Helvetica" font-size="14" lengthAdjust="spacing" textLength="192.165" x="412.6379" y="1378.7803">UPDATING; delete DELETING</text><text fill="#334155" font-family="Helvetica" font-size="14" lengthAdjust="spacing" textLength="319.04" x="412.6379" y="1392.7803">mutable/forceNew: display_name / compartment_id</text><text fill="#334155" font-family="Helvetica" font-size="14" lengthAdjust="spacing" textLength="104.3164" x="412.6379" y="1406.7803">open gaps: none</text><text fill="#334155" font-family="Helvetica" font-size="14" lengthAdjust="spacing" textLength="224.9023" x="412.6379" y="1420.7803">Scaffold metadata only; replace with</text><text fill="#334155" font-family="Helvetica" font-size="14" lengthAdjust="spacing" textLength="244.3232" x="412.6379" y="1434.7803">controller-specific runtime states before</text><text fill="#334155" font-family="Helvetica" font-size="14" lengthAdjust="spacing" textLength="66.1445" x="412.6379" y="1448.7803">promotion.</text><ellipse cx="375.6379" cy="1263" fill="none" rx="11" ry="11" style="stroke:#222222;stroke-width:1;"/><ellipse cx="375.6379" cy="1263" fill="#222222" rx="6" ry="6" style="stroke:#222222;stroke-width:1;"/><line style="stroke:#0F172A;stroke-width:1;" x1="375.6379" x2="375.6379" y1="65" y2="85"/><polygon fill="#0F172A" points="371.6379,75,375.6379,85,379.6379,75,375.6379,79" style="stroke:#0F172A;stroke-width:1;"/><line style="stroke:#0F172A;stroke-width:1;" x1="375.6379" x2="375.6379" y1="133" y2="153"/><polygon fill="#0F172A" points="371.6379,143,375.6379,153,379.6379,143,375.6379,147" style="stroke:#0F172A;stroke-width:1;"/><line style="stroke:#0F172A;stroke-width:1;" x1="375.6379" x2="375.6379" y1="215" y2="235"/><polygon fill="#0F172A" points="371.6379,225,375.6379,235,379.6379,225,375.6379,229" style="stroke:#0F172A;stroke-width:1;"/><line style="stroke:#0F172A;stroke-width:1;" x1="375.6379" x2="375.6379" y1="325" y2="345"/><polygon fill="#0F172A" points="371.6379,335,375.6379,345,379.6379,335,375.6379,339" style="stroke:#0F172A;stroke-width:1;"/><line style="stroke:#0F172A;stroke-width:1;" x1="188.7095" x2="188.7095" y1="523" y2="543"/><polygon fill="#0F172A" points="184.7095,533,188.7095,543,192.7095,533,188.7095,537" style="stroke:#0F172A;stroke-width:1;"/><line style="stroke:#0F172A;stroke-width:1;" x1="309.9485" x2="188.7095" y1="453" y2="453"/><line style="stroke:#0F172A;stroke-width:1;" x1="188.7095" x2="188.7095" y1="453" y2="475"/><polygon fill="#0F172A" points="184.7095,465,188.7095,475,192.7095,465,188.7095,469" style="stroke:#0F172A;stroke-width:1;"/><line style="stroke:#0F172A;stroke-width:1;" x1="441.3274" x2="562.5664" y1="453" y2="453"/><line style="stroke:#0F172A;stroke-width:1;" x1="562.5664" x2="562.5664" y1="453" y2="475"/><polygon fill="#0F172A" points="558.5664,465,562.5664,475,566.5664,465,562.5664,469" style="stroke:#0F172A;stroke-width:1;"/><line style="stroke:#0F172A;stroke-width:1;" x1="188.7095" x2="188.7095" y1="591" y2="609"/><line style="stroke:#0F172A;stroke-width:1;" x1="188.7095" x2="363.6379" y1="609" y2="609"/><polygon fill="#0F172A" points="353.6379,605,363.6379,609,353.6379,613,357.6379,609" style="stroke:#0F172A;stroke-width:1;"/><line style="stroke:#0F172A;stroke-width:1;" x1="562.5664" x2="562.5664" y1="523" y2="609"/><line style="stroke:#0F172A;stroke-width:1;" x1="562.5664" x2="387.6379" y1="609" y2="609"/><polygon fill="#0F172A" points="397.6379,605,387.6379,609,397.6379,613,393.6379,609" style="stroke:#0F172A;stroke-width:1;"/><line style="stroke:#0F172A;stroke-width:1;" x1="375.6379" x2="375.6379" y1="421" y2="441"/><polygon fill="#0F172A" points="371.6379,431,375.6379,441,379.6379,431,375.6379,435" style="stroke:#0F172A;stroke-width:1;"/><line style="stroke:#0F172A;stroke-width:1;" x1="375.6379" x2="375.6379" y1="621" y2="641"/><polygon fill="#0F172A" points="371.6379,631,375.6379,641,379.6379,631,375.6379,635" style="stroke:#0F172A;stroke-width:1;"/><line style="stroke:#0F172A;stroke-width:1;" x1="375.6379" x2="375.6379" y1="745" y2="765"/><polygon fill="#0F172A" points="371.6379,755,375.6379,765,379.6379,755,375.6379,759" style="stroke:#0F172A;stroke-width:1;"/><line style="stroke:#0F172A;stroke-width:1;" x1="375.6379" x2="375.6379" y1="799" y2="819"/><polygon fill="#0F172A" points="371.6379,809,375.6379,819,379.6379,809,375.6379,813" style="stroke:#0F172A;stroke-width:1;"/><line style="stroke:#0F172A;stroke-width:1;" x1="375.6379" x2="375.6379" y1="937" y2="957"/><polygon fill="#0F172A" points="371.6379,947,375.6379,957,379.6379,947,375.6379,951" style="stroke:#0F172A;stroke-width:1;"/><line style="stroke:#0F172A;stroke-width:1;" x1="375.6379" x2="375.6379" y1="1005" y2="1025"/><polygon fill="#0F172A" points="371.6379,1015,375.6379,1025,379.6379,1015,375.6379,1019" style="stroke:#0F172A;stroke-width:1;"/><line style="stroke:#0F172A;stroke-width:1;" x1="375.6379" x2="375.6379" y1="1059" y2="1252"/><polygon fill="#0F172A" points="371.6379,1242,375.6379,1252,379.6379,1242,375.6379,1246" style="stroke:#0F172A;stroke-width:1;"/><?plantuml-src dLPHJoCt47xthx3K5qvY4pYuExeHgcZ2SQW841pb9H9oxDciYzVUixr9qwh_lUErirboKTMSU0YnnpFpVVxcSzohr3MphAAkPC8ifPxJWYa7n7KxCyPVvzOqMeoDCfR-L73y4xq80GLhbFzijBzb5T0le1RW9MUxOnxbNq2FJtkRp5gpJDcFYkDFx_idjV7mwtSz5CKdyN4xobW1DaNCJZ-S7Fsy5H7Af_sJazFZ3nzw-srwRgm6Iuy_4Y-z0dh1lLn8lw8P8b0mPnuOv-0SnqpMgE4ahLwqg-EucXQbqO_Dp74hw_1_7_0wxT-4xY3uh6053pjzG8aOIeiDY6vDI5OPBRxZ2Tx3MN7K2-XdF1Qd8Cuscvzt97QUMRyT3rt-Bcx6jhB-GzgZ97yC7xImfXMP1K4BPPPJ7RyCiVOSAN73-3spWDHogI1RapHmY_c8v3U62Rm49p5gglVW7KlLm2dJ8g3nZOlD_DRC02_RWyFa3-0CYfRUZQ_R8A0BoQRw2lnUXPRIbrDz8zr-nt3aL501DlBa0Flbh2YC4YyxDRTxLNIvtTlSKdcmZd9JeVPy1Tg_I76OK2vBq07qX2fZNfjwgl4APrABR8676fTn2o5E0mX75GAZDb3LXEGZ8Wjw4AXhB0SAV-As--KTzI7fmGhSEyHJYt2-Phwa766wgOvBUn24j5mrp0fQDPxDS2eB2GhR4TBLYgrUT30Tl5u4Qx2HJCDo7V8MzOW0UXizq0Ox6qTa_SxYqbwTuIZ80lNJQ5fRiv0uNRG4LOSFP1IJHWRFVM4JKODOPitRuLJtzfwPH9EqpyQ-Fi2t1fn_HarTea7QBmXHeKDFDQB1kJZtK25-n10cnUZpySFbnTVBoMYgcvRYVir8-hecXWIzl0sPj2jT2CalwbgjyBvhax76boRChWF4usbjbEGhz5GT0kF9I6NZmCNnt8l9E3jOx5iJ1lp7ni_O7nW-R-ZaykOIYKEruBZOYYNHtLlp1t2_QIhPHt2IGcgcy26pYOgfHbgOr5c3TwEob0dzBFBSMWnUPmFK9AKuB8AtUKZRosh_mq6jC6_uCaBxD3K9ZnQrSbvwaimp-MLEzl9FqdDX7C-r4tV1cnS9mP7WbxA5ruaw2_w49yOFJvD3kaIL7iRGbfAiZbGX9BHev44vd08B0vB8LvX16HopJQ5ruvG9GOApPD62Q2crTuTlb2O15oAJf4nZqDQdfaQlmR6lCFMSrMv0cEKb-5KD-2PvNkRq2l19HpK4yTg5H8Eec6Ppi8HtpJdQmxoJe21kqceqLRFXfj5up1BJkrBM0vBovxj_An2dcdbEzd1lWZyOH4xs-OtHeS_fV8qxsyOTBstOQJZVI7n8_bF7n4OLv_z7mwHpnFQnSJbDhydzmztlru_NTxVNjrUZU1R8q_tauckx44l5gSG5acn_sBhxBIppjyu_t79vqceYY25l3OeyfkUKLWWDQp6SGRKQ1MTJ31-kSAizBMIj50h9kokExTCPO0SGK5Kca3q8xj_-hlmN?></g></svg>