<?plantuml 1.2026.1?><svg xmlns="http://www.w3.org/2000/svg" xmlns:xlink="http://www.w3.org/1999/xlink" contentStyleType="text/css" data-diagram-type="ACTIVITY" height="1469px" preserveAspectRatio="none" style="width:843px;height:1469px;background:#FCFCFD;" version="1.1" viewBox="0 0 843 1469" width="843px" zoomAndPan="magnify"><title>Activity - database/DatabaseExternalpluggabledatabasesStackMonitoring</title><defs/><g><rect fill="#FCFCFD" height="1469" style="stroke:none;stroke-width:1;" width="843" x="0" y="0"/><g class="title" data-source-line="10"><text fill="#000000" font-family="Helvetica" font-size="14" font-weight="bold" lengthAdjust="spacing" textLength="489.3643" x="175.3984" y="30.7803">Activity - database/DatabaseExternalpluggabledatabasesStackMonitoring</text></g><ellipse cx="422.3616" cy="55" fill="#1D4ED8" rx="10" ry="10" style="stroke:#222222;stroke-width:1;"/><rect fill="#F8FAFC" height="48" rx="8" ry="8" style="stroke:#0F172A;stroke-width:0.5;" width="304.7852" x="269.969" y="85"/><text fill="#0F172A" font-family="Helvetica" font-size="14" lengthAdjust="spacing" textLength="136.9375" x="279.969" y="105.7803">Start from shared flow</text><text fill="#0F172A" font-family="Helvetica" font-size="14" lengthAdjust="spacing" textLength="284.7852" x="279.969" y="119.7803">shared/diagrams/shared-reconcile-activity.svg</text><rect fill="#F8FAFC" height="62" rx="8" ry="8" style="stroke:#0F172A;stroke-width:0.5;" width="356.998" x="243.8625" y="153"/><text fill="#0F172A" font-family="Helvetica" font-size="14" lengthAdjust="spacing" textLength="80.9512" x="253.8625" y="173.7803">Load desired</text><text fill="#0F172A" font-family="Helvetica" font-size="14" lengthAdjust="spacing" textLength="336.998" x="253.8625" y="187.7803">DatabaseExternalpluggabledatabasesStackMonitoring</text><text fill="#0F172A" font-family="Helvetica" font-size="14" lengthAdjust="spacing" textLength="205.4473" x="253.8625" y="201.7803">spec and status from Kubernetes</text><rect fill="#F8FAFC" height="90" rx="8" ry="8" style="stroke:#0F172A;stroke-width:0.5;" width="379.5635" x="232.5798" y="235"/><text fill="#0F172A" font-family="Helvetica" font-size="14" lengthAdjust="spacing" textLength="135.3857" x="242.5798" y="255.7803">Resolve OCI state via</text><text fill="#0F172A" font-family="Helvetica" font-size="14" lengthAdjust="spacing" textLength="359.5635" x="242.5798" y="269.7803">GetDatabaseExternalpluggabledatabasesStackMonitoring</text><text fill="#0F172A" font-family="Helvetica" font-size="14" lengthAdjust="spacing" textLength="24.8965" x="242.5798" y="283.7803">with</text><text fill="#0F172A" font-family="Helvetica" font-size="14" lengthAdjust="spacing" textLength="358.7842" x="242.5798" y="297.7803">ListDatabaseExternalpluggabledatabasesStackMonitoring</text><text fill="#0F172A" font-family="Helvetica" font-size="14" lengthAdjust="spacing" textLength="47.4688" x="242.5798" y="311.7803">fallback</text><rect fill="#F8FAFC" height="76" rx="8" ry="8" style="stroke:#0F172A;stroke-width:0.5;" width="472.2109" x="186.2561" y="345"/><text fill="#0F172A" font-family="Helvetica" font-size="14" lengthAdjust="spacing" textLength="24.8965" x="196.2561" y="365.7803">Use</text><text fill="#0F172A" font-family="Helvetica" font-size="14" lengthAdjust="spacing" textLength="452.2109" x="196.2561" y="379.7803">scaffold_database_databaseexternalpluggabledatabasesstackmonitoring</text><text fill="#0F172A" font-family="Helvetica" font-size="14" lengthAdjust="spacing" textLength="297.2402" x="196.2561" y="393.7803">filters compartment_id, state when OCID lookup</text><text fill="#0F172A" font-family="Helvetica" font-size="14" lengthAdjust="spacing" textLength="259.9023" x="196.2561" y="407.7803">or bind-versus-create needs list resolution</text><polygon fill="#E2E8F0" points="368.6721,441,476.051,441,488.051,453,476.051,465,368.6721,465,356.6721,453,368.6721,441" style="stroke:#1D4ED8;stroke-width:0.5;"/><text fill="#0F172A" font-family="Helvetica" font-size="14" lengthAdjust="spacing" textLength="107.3789" x="368.6721" y="456.7803">Resource exists?</text><text fill="#000000" font-family="Helvetica" font-size="14" lengthAdjust="spacing" textLength="21.7861" x="334.886" y="449.7803">yes</text><text fill="#000000" font-family="Helvetica" font-size="14" lengthAdjust="spacing" textLength="15.5723" x="488.051" y="449.7803">no</text><rect fill="#F8FAFC" height="48" rx="8" ry="8" style="stroke:#0F172A;stroke-width:0.5;" width="402.1426" x="11" y="475"/><text fill="#0F172A" font-family="Helvetica" font-size="14" lengthAdjust="spacing" textLength="108.1787" x="21" y="495.7803">Update path calls</text><text fill="#0F172A" font-family="Helvetica" font-size="14" lengthAdjust="spacing" textLength="382.1426" x="21" y="509.7803">UpdateDatabaseExternalpluggabledatabasesStackMonitoring</text><rect fill="#F8FAFC" height="48" rx="8" ry="8" style="stroke:#0F172A;stroke-width:0.5;" width="266.7021" x="78.7202" y="543"/><text fill="#0F172A" font-family="Helvetica" font-size="14" lengthAdjust="spacing" textLength="246.7021" x="88.7202" y="563.7803">Guard mutable fields display_name and</text><text fill="#0F172A" font-family="Helvetica" font-size="14" lengthAdjust="spacing" textLength="202.3096" x="88.7202" y="577.7803">force-new fields compartment_id</text><rect fill="#F8FAFC" height="48" rx="8" ry="8" style="stroke:#0F172A;stroke-width:0.5;" width="399.0186" x="433.1426" y="475"/><text fill="#0F172A" font-family="Helvetica" font-size="14" lengthAdjust="spacing" textLength="105.0547" x="443.1426" y="495.7803">Create path calls</text><text fill="#0F172A" font-family="Helvetica" font-size="14" lengthAdjust="spacing" textLength="379.0186" x="443.1426" y="509.7803">CreateDatabaseExternalpluggabledatabasesStackMonitoring</text><polygon fill="#E2E8F0" points="422.3616,597,434.3616,609,422.3616,621,410.3616,609,422.3616,597" style="stroke:#1D4ED8;stroke-width:0.5;"/><rect fill="#F8FAFC" height="104" rx="8" ry="8" style="stroke:#0F172A;stroke-width:0.5;" width="334.3164" x="255.2034" y="641"/><text fill="#0F172A" font-family="Helvetica" font-size="14" lengthAdjust="spacing" textLength="164.2061" x="265.2034" y="661.7803">Run provider helper hooks</text><text fill="#0F172A" font-family="Helvetica" font-size="14" lengthAdjust="spacing" textLength="219.0508" x="265.2034" y="675.7803">create=tfresource.CreateResource,</text><text fill="#0F172A" font-family="Helvetica" font-size="14" lengthAdjust="spacing" textLength="314.3164" x="265.2034" y="689.7803">tfresource.WaitForWorkRequestWithErrorHandling</text><text fill="#0F172A" font-family="Helvetica" font-size="14" lengthAdjust="spacing" textLength="215.5439" x="265.2034" y="703.7803">entity=template action=CREATED;</text><text fill="#0F172A" font-family="Helvetica" font-size="14" lengthAdjust="spacing" textLength="226.085" x="265.2034" y="717.7803">update=tfresource.UpdateResource;</text><text fill="#0F172A" font-family="Helvetica" font-size="14" lengthAdjust="spacing" textLength="212.8438" x="265.2034" y="731.7803">delete=tfresource.DeleteResource</text><rect fill="#F8FAFC" height="34" rx="8" ry="8" style="stroke:#0F172A;stroke-width:0.5;" width="263.5918" x="290.5657" y="765"/><text fill="#0F172A" font-family="Helvetica" font-size="14" lengthAdjust="spacing" textLength="243.5918" x="300.5657" y="785.7803">Apply repo-authored secret policy none</text><rect fill="#F8FAFC" height="118" rx="8" ry="8" style="stroke:#0F172A;stroke-width:0.5;" width="397.4668" x="223.6282" y="819"/><text fill="#0F172A" font-family="Helvetica" font-size="14" lengthAdjust="spacing" textLength="105.0684" x="233.6282" y="839.7803">Delete path uses</text><text fill="#0F172A" font-family="Helvetica" font-size="14" lengthAdjust="spacing" textLength="377.4668" x="233.6282" y="853.7803">DeleteDatabaseExternalpluggabledatabasesStackMonitoring</text><text fill="#0F172A" font-family="Helvetica" font-size="14" lengthAdjust="spacing" textLength="101.9375" x="233.6282" y="867.7803">with required via</text><text fill="#0F172A" font-family="Helvetica" font-size="14" lengthAdjust="spacing" textLength="359.5635" x="233.6282" y="881.7803">GetDatabaseExternalpluggabledatabasesStackMonitoring</text><text fill="#0F172A" font-family="Helvetica" font-size="14" lengthAdjust="spacing" textLength="12.4482" x="233.6282" y="895.7803">or</text><text fill="#0F172A" font-family="Helvetica" font-size="14" lengthAdjust="spacing" textLength="358.7842" x="233.6282" y="909.7803">ListDatabaseExternalpluggabledatabasesStackMonitoring</text><text fill="#0F172A" font-family="Helvetica" font-size="14" lengthAdjust="spacing" textLength="160.2822" x="233.6282" y="923.7803">to DELETED confirmation</text><rect fill="#F8FAFC" height="48" rx="8" ry="8" style="stroke:#0F172A;stroke-width:0.5;" width="279.1299" x="282.7966" y="957"/><text fill="#0F172A" font-family="Helvetica" font-size="14" lengthAdjust="spacing" textLength="259.1299" x="292.7966" y="977.7803">Project required status and finalizer policy</text><text fill="#0F172A" font-family="Helvetica" font-size="14" lengthAdjust="spacing" textLength="174.3027" x="292.7966" y="991.7803">retain-until-confirmed-delete</text><rect fill="#F8FAFC" height="34" rx="8" ry="8" style="stroke:#0F172A;stroke-width:0.5;" width="313.4189" x="265.6521" y="1025"/><text fill="#0F172A" font-family="Helvetica" font-size="14" lengthAdjust="spacing" textLength="293.4189" x="275.6521" y="1045.7803">Requeue on provisioning, updating, terminating</text><path d="M453.3616,1069 L453.3616,1259 L433.3616,1263 L453.3616,1267 L453.3616,1457 A0,0 0 0 0 453.3616,1457 L811.3596,1457 A0,0 0 0 0 811.3596,1457 L811.3596,1079 L801.3596,1069 L453.3616,1069 A0,0 0 0 0 453.3616,1069" fill="#FFF7D6" style="stroke:#B45309;stroke-width:0.5;"/><path d="M801.3596,1069 L801.3596,1079 L811.3596,1079 L801.3596,1069" fill="#FFF7D6" style="stroke:#B45309;stroke-width:0.5;"/><text fill="#334155" font-family="Helvetica" font-size="14" lengthAdjust="spacing" textLength="101.165" x="459.3616" y="1084.7803">shared diagram:</text><text fill="#334155" font-family="Helvetica" font-size="14" lengthAdjust="spacing" textLength="284.7852" x="459.3616" y="1098.7803">shared/diagrams/shared-reconcile-activity.svg</text><text fill="#334155" font-family="Helvetica" font-size="14" lengthAdjust="spacing" textLength="265.3438" x="459.3616" y="1112.7803">Start from the shared reconcile activity and</text><text fill="#334155" font-family="Helvetica" font-size="14" lengthAdjust="spacing" textLength="273.8955" x="459.3616" y="1126.7803">specialize provider-backed CRUD, wait, and</text><text fill="#334155" font-family="Helvetica" font-size="14" lengthAdjust="spacing" textLength="182.875" x="459.3616" y="1140.7803">status-projection details here.</text><text fill="#334155" font-family="Helvetica" font-size="14" lengthAdjust="spacing" textLength="229.5371" x="459.3616" y="1154.7803">Controller-local activity diagrams add</text><text fill="#334155" font-family="Helvetica" font-size="14" lengthAdjust="spacing" textLength="238.8955" x="459.3616" y="1168.7803">list-lookup hints, secret policies, delete</text><text fill="#334155" font-family="Helvetica" font-size="14" lengthAdjust="spacing" textLength="200.0332" x="459.3616" y="1182.7803">handling, and open formal gaps.</text><text fill="#334155" font-family="Helvetica" font-size="14" lengthAdjust="spacing" textLength="281.709" x="459.3616" y="1196.7803">archetype batch: Generated service-manager</text><text fill="#334155" font-family="Helvetica" font-size="14" lengthAdjust="spacing" textLength="291.0469" x="459.3616" y="1210.7803">controllers specialize the shared reconcile path</text><text fill="#334155" font-family="Helvetica" font-size="14" lengthAdjust="spacing" textLength="189.8477" x="459.3616" y="1224.7803">with formal runtime ownership.</text><text fill="#334155" font-family="Helvetica" font-size="14" lengthAdjust="spacing" textLength="109.7305" x="459.3616" y="1238.7803">service: database</text><text fill="#334155" font-family="Helvetica" font-size="14" lengthAdjust="spacing" textLength="29.5723" x="459.3616" y="1252.7803">slug:</text><text fill="#334155" font-family="Helvetica" font-size="14" lengthAdjust="spacing" textLength="330.7842" x="459.3616" y="1266.7803">databaseexternalpluggabledatabasesstackmonitoring</text><text fill="#334155" font-family="Helvetica" font-size="14" lengthAdjust="spacing" textLength="29.5723" x="459.3616" y="1280.7803">kind:</text><text fill="#334155" font-family="Helvetica" font-size="14" lengthAdjust="spacing" textLength="336.998" x="459.3616" y="1294.7803">DatabaseExternalpluggabledatabasesStackMonitoring</text><text fill="#334155" font-family="Helvetica" font-size="14" lengthAdjust="spacing" textLength="241.2402" x="459.3616" y="1308.7803">archetype: generated-service-manager</text><text fill="#334155" font-family="Helvetica" font-size="14" lengthAdjust="spacing" textLength="156.4063" x="459.3616" y="1322.7803">status/finalizer: required /</text><text fill="#334155" font-family="Helvetica" font-size="14" lengthAdjust="spacing" textLength="174.3027" x="459.3616" y="1336.7803">retain-until-confirmed-delete</text><text fill="#334155" font-family="Helvetica" font-size="14" lengthAdjust="spacing" textLength="272.3984" x="459.3616" y="1350.7803">requeue: provisioning, updating, terminating</text><text fill="#334155" font-family="Helvetica" font-size="14" lengthAdjust="spacing" textLength="295.6816" x="459.3616" y="1364.7803">provider states: create PROVISIONING; update</text><text fill="#334155" font-family="Helvetica" font-size="14" lengthAdjust="spacing" textLength="192.165" x="459.3616" y="1378.7803">UPDATING; delete DELETING</text><text fill="#334155" font-family="Helvetica" font-size="14" lengthAdjust="spacing" textLength="319.04" x="459.3616" y="1392.7803">mutable/forceNew: display_name / compartment_id</text><text fill="#334155" font-family="Helvetica" font-size="14" lengthAdjust="spacing" textLength="104.3164" x="459.3616" y="1406.7803">open gaps: none</text><text fill="#334155" font-family="Helvetica" font-size="14" lengthAdjust="spacing" textLength="224.9023" x="459.3616" y="1420.7803">Scaffold metadata only; replace with</text><text fill="#334155" font-family="Helvetica" font-size="14" lengthAdjust="spacing" textLength="244.3232" x="459.3616" y="1434.7803">controller-specific runtime states before</text><text fill="#334155" font-family="Helvetica" font-size="14" lengthAdjust="spacing" textLength="66.1445" x="459.3616" y="1448.7803">promotion.</text><ellipse cx="422.3616" cy="1263" fill="none" rx="11" ry="11" style="stroke:#222222;stroke-width:1;"/><ellipse cx="422.3616" cy="1263" fill="#222222" rx="6" ry="6" style="stroke:#222222;stroke-width:1;"/><line style="stroke:#0F172A;stroke-width:1;" x1="422.3616" x2="422.3616" y1="65" y2="85"/><polygon fill="#0F172A" points="418.3616,75,422.3616,85,426.3616,75,422.3616,79" style="stroke:#0F172A;stroke-width:1;"/><line style="stroke:#0F172A;stroke-width:1;" x1="422.3616" x2="422.3616" y1="133" y2="153"/><polygon fill="#0F172A" points="418.3616,143,422.3616,153,426.3616,143,422.3616,147" style="stroke:#0F172A;stroke-width:1;"/><line style="stroke:#0F172A;stroke-width:1;" x1="422.3616" x2="422.3616" y1="215" y2="235"/><polygon fill="#0F172A" points="418.3616,225,422.3616,235,426.3616,225,422.3616,229" style="stroke:#0F172A;stroke-width:1;"/><line style="stroke:#0F172A;stroke-width:1;" x1="422.3616" x2="422.3616" y1="325" y2="345"/><polygon fill="#0F172A" points="418.3616,335,422.3616,345,426.3616,335,422.3616,339" style="stroke:#0F172A;stroke-width:1;"/><line style="stroke:#0F172A;stroke-width:1;" x1="212.0713" x2="212.0713" y1="523" y2="543"/><polygon fill="#0F172A" points="208.0713,533,212.0713,543,216.0713,533,212.0713,537" style="stroke:#0F172A;stroke-width:1;"/><line style="stroke:#0F172A;stroke-width:1;" x1="356.6721" x2="212.0713" y1="453" y2="453"/><line style="stroke:#0F172A;stroke-width:1;" x1="212.0713" x2="212.0713" y1="453" y2="475"/><polygon fill="#0F172A" points="208.0713,465,212.0713,475,216.0713,465,212.0713,469" style="stroke:#0F172A;stroke-width:1;"/><line style="stroke:#0F172A;stroke-width:1;" x1="488.051" x2="632.6519" y1="453" y2="453"/><line style="stroke:#0F172A;stroke-width:1;" x1="632.6519" x2="632.6519" y1="453" y2="475"/><polygon fill="#0F172A" points="628.6519,465,632.6519,475,636.6519,465,632.6519,469" style="stroke:#0F172A;stroke-width:1;"/><line style="stroke:#0F172A;stroke-width:1;" x1="212.0713" x2="212.0713" y1="591" y2="609"/><line style="stroke:#0F172A;stroke-width:1;" x1="212.0713" x2="410.3616" y1="609" y2="609"/><polygon fill="#0F172A" points="400.3616,605,410.3616,609,400.3616,613,404.3616,609" style="stroke:#0F172A;stroke-width:1;"/><line style="stroke:#0F172A;stroke-width:1;" x1="632.6519" x2="632.6519" y1="523" y2="609"/><line style="stroke:#0F172A;stroke-width:1;" x1="632.6519" x2="434.3616" y1="609" y2="609"/><polygon fill="#0F172A" points="444.3616,605,434.3616,609,444.3616,613,440.3616,609" style="stroke:#0F172A;stroke-width:1;"/><line style="stroke:#0F172A;stroke-width:1;" x1="422.3616" x2="422.3616" y1="421" y2="441"/><polygon fill="#0F172A" points="418.3616,431,422.3616,441,426.3616,431,422.3616,435" style="stroke:#0F172A;stroke-width:1;"/><line style="stroke:#0F172A;stroke-width:1;" x1="422.3616" x2="422.3616" y1="621" y2="641"/><polygon fill="#0F172A" points="418.3616,631,422.3616,641,426.3616,631,422.3616,635" style="stroke:#0F172A;stroke-width:1;"/><line style="stroke:#0F172A;stroke-width:1;" x1="422.3616" x2="422.3616" y1="745" y2="765"/><polygon fill="#0F172A" points="418.3616,755,422.3616,765,426.3616,755,422.3616,759" style="stroke:#0F172A;stroke-width:1;"/><line style="stroke:#0F172A;stroke-width:1;" x1="422.3616" x2="422.3616" y1="799" y2="819"/><polygon fill="#0F172A" points="418.3616,809,422.3616,819,426.3616,809,422.3616,813" style="stroke:#0F172A;stroke-width:1;"/><line style="stroke:#0F172A;stroke-width:1;" x1="422.3616" x2="422.3616" y1="937" y2="957"/><polygon fill="#0F172A" points="418.3616,947,422.3616,957,426.3616,947,422.3616,951" style="stroke:#0F172A;stroke-width:1;"/><line style="stroke:#0F172A;stroke-width:1;" x1="422.3616" x2="422.3616" y1="1005" y2="1025"/><polygon fill="#0F172A" points="418.3616,1015,422.3616,1025,426.3616,1015,422.3616,1019" style="stroke:#0F172A;stroke-width:1;"/><line style="stroke:#0F172A;stroke-width:1;" x1="422.3616" x2="422.3616" y1="1059" y2="1252"/><polygon fill="#0F172A" points="418.3616,1242,422.3616,1252,426.3616,1242,422.3616,1246" style="stroke:#0F172A;stroke-width:1;"/><?plantuml-src fLPDR-Cs4BtpLn3e9GjOTh99TbCPGP7QtcpGD0dYJNCn4D3Yo693aLgIijSj-jyx96LPyQP5dS87I-HmFXxVl95z5gfYXfNK5ephbL0BcZDfWTXsPywovuNHjU8ZBRMXF-GP_dZ7WaFEQka-QULkM0dqCyWbE96nrsscuW-WHoUTJMQCNZNU3_EZZ--x9vLsyFDtEUJvH_vXrqeR3gQnc9-S7X_-k6FXmpVxnySdHwUddVtWFjD6WQ577uWJJWAzo9nO2hUc2UNCiJcpC1Wt3vDl3enYifBrOi7c4ZOMTkemtr-r4auRXBHRwSRVduI-WknPplBCxtGhQH2XDDzctwvnmKgj-7S0mNiuomyx1bsFH_m4-DbsyzChZgrZnktQG-k_jPkp7Qz_aN2Kf5F_HtEZ0xiCS9fBlPgf-3B0s0k4n0xYUs8WqoeJ4f8DI7sxN0n9UgqPH_vOWLOpjJVw6B22Z3B5VKskjZ6bN-evdWS75aFSWzN8MNexkWf6G9U2pTGbk3U4MmbNpDIri6yvZDqdFIymgGSBc7l6ybnB_hGvqZx0FpgrtcdPTIeasbgQwH9fw4fGxadmNbFggW3bAnzJgVLpNSqKtkPSA9uiyL1jayo0jrC0t5A9TL7ZyQgTq6f8H4uFF7wroO32DzosFxsZpZizM8DzXuLKt9-lc2jeXlNPcOfBU-E3g5pMp71QrixRqLo0nAIui9LawoVbvGTl6alMc4wYOBKnULdxa02g73rG6lCRnVgw-SMbD-I77I9o95IjQ6NqKc3JqG9avVyGNNGTqJntkMb0wyTW6mnxCzNPUsG2HTCyQlDy3rzhiEuHwJL1mJIViL0PxXThmdOvTr0Y2bY9Ro2jpaVtauila_5mfke0TpTcl81DJ3JX8E6boJYij2OalQWgkSQxhtJ2QbTetz8Mi1v7Aor5jaQDLTumdeo0reWITcrOUMCpOSYljU_-_zELshov9vscuydr1A545c4pcP95wgTtHlyEcTics2YC5vjSe7SSTQO1PwOGA2PKKkDjoQJnXC8NaGygX1TS0zKDTom6mGHwD5nVUCASI_Jh0jUiqnNnOuqQiIWSQLIs4TQKx2Mqf2FNsBmRoMwDjwCBYoDUKaKehwLvucKBJupk7yOzkaBUzg9fW2If8bHO4cevuY0jzeM1FXdXy35QIlGWDRRVDj0cSSeu9rvtaYXGj13AsTuBxWd0XOWaAPh62F6fhb29K0vATBrWbUqJPh82tBe275ukAr9w2JZqiHqydSrIe72KJB4569AroLdQgVbLW3pTIU1h4ytucqP1qYjqRmjHzKdZFss_9eX5_gLaRr4d-4d1KxB_jqXRV4eNcxAJtRBZdGrQ2gTRXW_8lzAOc4ZYzBzGcBGI6IQHJMapQkxkRt-xcbxTtbpTN0xZMI0FT-EBBs4XXefDYGkacGQ38Feti4fV3eJ1ZlYJG0dFXJGe5fasGvQMM9f73bjGheTUwYJ3gUOljKE5930X5rbxmp5zEWVC07nLfVPCx_jn43uy_mO0?></g></svg>