<?plantuml 1.2026.1?><svg xmlns="http://www.w3.org/2000/svg" xmlns:xlink="http://www.w3.org/1999/xlink" contentStyleType="text/css" data-diagram-type="SEQUENCE" height="1329px" preserveAspectRatio="none" style="width:1382px;height:1329px;background:#FCFCFD;" version="1.1" viewBox="0 0 1382 1329" width="1382px" zoomAndPan="magnify"><title>Sequence - databasemanagement/DatabaseManagementManagedDatabaseGroups</title><defs/><g><rect fill="#FCFCFD" height="1329" style="stroke:none;stroke-width:1;" width="1382" x="0" y="0"/><text fill="#000000" font-family="Helvetica" font-size="14" font-weight="bold" lengthAdjust="spacing" textLength="550.0605" x="417.2007" y="25.7803">Sequence - databasemanagement/DatabaseManagementManagedDatabaseGroups</text><rect fill="none" height="86" rx="8" ry="8" style="stroke:#CBD5E1;stroke-width:1.5;" width="511.2944" x="854.1675" y="361"/><rect fill="none" height="204" rx="8" ry="8" style="stroke:#CBD5E1;stroke-width:1.5;" width="531.2944" x="844.1675" y="461"/><rect fill="none" height="44" rx="8" ry="8" style="stroke:#CBD5E1;stroke-width:1.5;" width="511.2944" x="854.1675" y="512"/><rect fill="none" height="44" rx="8" ry="8" style="stroke:#CBD5E1;stroke-width:1.5;" width="511.2944" x="854.1675" y="614"/><rect fill="none" height="130" rx="8" ry="8" style="stroke:#CBD5E1;stroke-width:1.5;" width="531.2944" x="844.1675" y="679"/><rect fill="none" height="72" rx="8" ry="8" style="stroke:#CBD5E1;stroke-width:1.5;" width="511.2944" x="854.1675" y="730"/><g class="participant-lifeline" data-entity-uid="part1" data-qualified-name="Kubernetes" id="part1-lifeline"><g><title>Kubernetes</title><rect fill="#000000" fill-opacity="0.00000" height="1208" width="8" x="39.8032" y="114"/><line style="stroke:#94A3B8;stroke-width:0.5;stroke-dasharray:5,5;" x1="43" x2="43" y1="114" y2="1322"/></g></g><g class="participant-lifeline" data-entity-uid="part2" data-qualified-name="Controller" id="part2-lifeline"><g><title>Controller</title><rect fill="#000000" fill-opacity="0.00000" height="1208" width="8" x="369.6704" y="114"/><line style="stroke:#94A3B8;stroke-width:0.5;stroke-dasharray:5,5;" x1="373.3257" x2="373.3257" y1="114" y2="1322"/></g></g><g class="participant-lifeline" data-entity-uid="part3" data-qualified-name="BaseReconciler" id="part3-lifeline"><g><title>BaseReconciler</title><rect fill="#000000" fill-opacity="0.00000" height="1208" width="8" x="608.4966" y="114"/><line style="stroke:#94A3B8;stroke-width:0.5;stroke-dasharray:5,5;" x1="612.4727" x2="612.4727" y1="114" y2="1322"/></g></g><g class="participant-lifeline" data-entity-uid="part4" data-qualified-name="ServiceManager" id="part4-lifeline"><g><title>OSOKServiceManager</title><rect fill="#000000" fill-opacity="0.00000" height="1208" width="8" x="938.3638" y="114"/><line style="stroke:#94A3B8;stroke-width:0.5;stroke-dasharray:5,5;" x1="942.1675" x2="942.1675" y1="114" y2="1322"/></g></g><g class="participant-lifeline" data-entity-uid="part5" data-qualified-name="OCI" id="part5-lifeline"><g><title>OCI</title><rect fill="#000000" fill-opacity="0.00000" height="1208" width="8" x="1332.0171" y="114"/><line style="stroke:#94A3B8;stroke-width:0.5;stroke-dasharray:5,5;" x1="1335.5723" x2="1335.5723" y1="114" y2="1322"/></g></g><g class="participant participant-head" data-entity-uid="part1" data-qualified-name="Kubernetes" id="part1-head"><text fill="#000000" font-family="Helvetica" font-size="14" lengthAdjust="spacing" textLength="71.6064" x="5" y="110.7803">Kubernetes</text><ellipse cx="43.8032" cy="48.5" fill="#E2E8F0" rx="8" ry="8" style="stroke:#0F172A;stroke-width:0.5;"/><path d="M43.8032,56.5 L43.8032,83.5 M30.8032,64.5 L56.8032,64.5 M43.8032,83.5 L30.8032,98.5 M43.8032,83.5 L56.8032,98.5" fill="none" style="stroke:#0F172A;stroke-width:0.5;"/></g><g class="participant participant-head" data-entity-uid="part2" data-qualified-name="Controller" id="part2-head"><rect fill="#E2E8F0" height="28" rx="8" ry="8" style="stroke:#0F172A;stroke-width:0.5;" width="74.6895" x="336.3257" y="85"/><text fill="#0F172A" font-family="Helvetica" font-size="14" lengthAdjust="spacing" textLength="60.6895" x="343.3257" y="102.7803">Controller</text></g><g class="participant participant-head" data-entity-uid="part3" data-qualified-name="BaseReconciler" id="part3-head"><rect fill="#E2E8F0" height="28" rx="8" ry="8" style="stroke:#0F172A;stroke-width:0.5;" width="112.0479" x="556.4727" y="85"/><text fill="#0F172A" font-family="Helvetica" font-size="14" lengthAdjust="spacing" textLength="98.0479" x="563.4727" y="102.7803">BaseReconciler</text></g><g class="participant participant-head" data-entity-uid="part4" data-qualified-name="ServiceManager" id="part4-head"><rect fill="#E2E8F0" height="28" rx="8" ry="8" style="stroke:#0F172A;stroke-width:0.5;" width="156.3926" x="864.1675" y="85"/><text fill="#0F172A" font-family="Helvetica" font-size="14" lengthAdjust="spacing" textLength="142.3926" x="871.1675" y="102.7803">OSOKServiceManager</text></g><g class="participant participant-head" data-entity-uid="part5" data-qualified-name="OCI" id="part5-head"><rect fill="#E2E8F0" height="28" rx="8" ry="8" style="stroke:#0F172A;stroke-width:0.5;" width="38.8896" x="1316.5723" y="85"/><text fill="#0F172A" font-family="Helvetica" font-size="14" lengthAdjust="spacing" textLength="24.8896" x="1323.5723" y="102.7803">OCI</text></g><path d="M547,137 L547,187 A8,8 0 0 0 555,195 L998,195 A8,8 0 0 0 1006,187 L1006,139 L996,129 L555,129 A8,8 0 0 0 547,137" fill="#FFF7D6" style="stroke:#B45309;stroke-width:0.5;"/><path d="M996,129 L996,135 A4,4 0 0 0 1000,139 L1006,139 L996,129" fill="#FFF7D6" style="stroke:#B45309;stroke-width:0.5;"/><text fill="#334155" font-family="Helvetica" font-size="14" lengthAdjust="spacing" textLength="111.2891" x="618.3479" y="144.7803">shared resolution:</text><text fill="#334155" font-family="Helvetica" font-size="14" lengthAdjust="spacing" textLength="307.3916" x="618.3479" y="158.7803">shared/diagrams/shared-resolution-sequence.svg</text><text fill="#334155" font-family="Helvetica" font-size="14" lengthAdjust="spacing" textLength="88.7305" x="618.3479" y="172.7803">shared delete:</text><text fill="#334155" font-family="Helvetica" font-size="14" lengthAdjust="spacing" textLength="284.833" x="618.3479" y="186.7803">shared/diagrams/shared-delete-sequence.svg</text><g class="message" data-entity-1="part1" data-entity-2="part2" id="msg1"><polygon fill="#0F172A" points="361.6704,244,371.6704,248,361.6704,252,365.6704,248" style="stroke:#0F172A;stroke-width:1;"/><line style="stroke:#0F172A;stroke-width:1;" x1="43.8032" x2="367.6704" y1="248" y2="248"/><text fill="#000000" font-family="Helvetica" font-size="14" lengthAdjust="spacing" textLength="54.5029" x="50.8032" y="214.7803">enqueue</text><text fill="#000000" font-family="Helvetica" font-size="14" lengthAdjust="spacing" textLength="305.8672" x="50.8032" y="228.7803">DatabaseManagementManagedDatabaseGroups</text><text fill="#000000" font-family="Helvetica" font-size="14" lengthAdjust="spacing" textLength="56.0273" x="50.8032" y="242.7803">reconcile</text></g><g class="message" data-entity-1="part2" data-entity-2="part3" id="msg2"><polygon fill="#0F172A" points="600.4966,272,610.4966,276,600.4966,280,604.4966,276" style="stroke:#0F172A;stroke-width:1;"/><line style="stroke:#0F172A;stroke-width:1;" x1="373.6704" x2="606.4966" y1="276" y2="276"/><text fill="#000000" font-family="Helvetica" font-size="14" lengthAdjust="spacing" textLength="117.4961" x="380.6704" y="270.7803">Reconcile(request)</text></g><g class="message" data-entity-1="part3" data-entity-2="part4" id="msg3"><polygon fill="#0F172A" points="930.3638,314,940.3638,318,930.3638,322,934.3638,318" style="stroke:#0F172A;stroke-width:1;"/><line style="stroke:#0F172A;stroke-width:1;" x1="612.4966" x2="936.3638" y1="318" y2="318"/><text fill="#000000" font-family="Helvetica" font-size="14" lengthAdjust="spacing" textLength="105.834" x="619.4966" y="298.7803">reconcile desired</text><text fill="#000000" font-family="Helvetica" font-size="14" lengthAdjust="spacing" textLength="305.8672" x="619.4966" y="312.7803">DatabaseManagementManagedDatabaseGroups</text></g><g class="message" data-entity-1="part4" data-entity-2="part5" id="msg4"><polygon fill="#0F172A" points="1324.0171,342,1334.0171,346,1324.0171,350,1328.0171,346" style="stroke:#0F172A;stroke-width:1;"/><line style="stroke:#0F172A;stroke-width:1;" x1="942.3638" x2="1330.0171" y1="346" y2="346"/><text fill="#000000" font-family="Helvetica" font-size="14" lengthAdjust="spacing" textLength="328.4326" x="949.3638" y="340.7803">GetDatabaseManagementManagedDatabaseGroups</text></g><path d="M862.1675,361 L920.9331,361 L920.9331,367 L910.9331,377 L854.1675,377 L854.1675,369 A8,8 0 0 1 862.1675,361" fill="#F8FAFC" style="stroke:#CBD5E1;stroke-width:1.5;"/><rect fill="none" height="86" rx="8" ry="8" style="stroke:#CBD5E1;stroke-width:1.5;" width="511.2944" x="854.1675" y="361"/><text fill="#000000" font-family="Helvetica" font-size="14" font-weight="bold" lengthAdjust="spacing" textLength="21.7656" x="869.1675" y="372.7803">opt</text><text fill="#000000" font-family="Helvetica" font-size="14" font-weight="bold" lengthAdjust="spacing" textLength="135.3516" x="935.9331" y="373.7803">[list lookup fallback]</text><g class="message" data-entity-1="part4" data-entity-2="part5" id="msg5"><polygon fill="#0F172A" points="1324.0171,407,1334.0171,411,1324.0171,415,1328.0171,411" style="stroke:#0F172A;stroke-width:1;"/><line style="stroke:#0F172A;stroke-width:1;" x1="942.3638" x2="1330.0171" y1="411" y2="411"/><text fill="#000000" font-family="Helvetica" font-size="14" lengthAdjust="spacing" textLength="369.6533" x="949.3638" y="391.7803">ListDatabaseManagementManagedDatabaseGroups(filters:</text><text fill="#000000" font-family="Helvetica" font-size="14" lengthAdjust="spacing" textLength="143.1719" x="949.3638" y="405.7803">compartment_id, state)</text></g><g class="message" data-entity-1="part5" data-entity-2="part4" id="msg6"><polygon fill="#0F172A" points="953.3638,435,943.3638,439,953.3638,443,949.3638,439" style="stroke:#0F172A;stroke-width:1;"/><line style="stroke:#0F172A;stroke-width:1;stroke-dasharray:2,2;" x1="947.3638" x2="1335.0171" y1="439" y2="439"/><text fill="#000000" font-family="Helvetica" font-size="14" lengthAdjust="spacing" textLength="156.3994" x="959.3638" y="433.7803">matching collection items</text></g><path d="M852.1675,461 L905.5054,461 L905.5054,467 L895.5054,477 L844.1675,477 L844.1675,469 A8,8 0 0 1 852.1675,461" fill="#F8FAFC" style="stroke:#CBD5E1;stroke-width:1.5;"/><rect fill="none" height="204" rx="8" ry="8" style="stroke:#CBD5E1;stroke-width:1.5;" width="531.2944" x="844.1675" y="461"/><text fill="#000000" font-family="Helvetica" font-size="14" font-weight="bold" lengthAdjust="spacing" textLength="16.3379" x="859.1675" y="472.7803">alt</text><text fill="#000000" font-family="Helvetica" font-size="14" font-weight="bold" lengthAdjust="spacing" textLength="135.3447" x="920.5054" y="473.7803">[create or bind path]</text><g class="message" data-entity-1="part4" data-entity-2="part5" id="msg7"><polygon fill="#0F172A" points="1324.0171,493,1334.0171,497,1324.0171,501,1328.0171,497" style="stroke:#0F172A;stroke-width:1;"/><line style="stroke:#0F172A;stroke-width:1;" x1="942.3638" x2="1330.0171" y1="497" y2="497"/><text fill="#000000" font-family="Helvetica" font-size="14" lengthAdjust="spacing" textLength="347.8877" x="949.3638" y="491.7803">CreateDatabaseManagementManagedDatabaseGroups</text></g><path d="M862.1675,512 L928.7124,512 L928.7124,518 L918.7124,528 L854.1675,528 L854.1675,520 A8,8 0 0 1 862.1675,512" fill="#F8FAFC" style="stroke:#CBD5E1;stroke-width:1.5;"/><rect fill="none" height="44" rx="8" ry="8" style="stroke:#CBD5E1;stroke-width:1.5;" width="511.2944" x="854.1675" y="512"/><text fill="#000000" font-family="Helvetica" font-size="14" font-weight="bold" lengthAdjust="spacing" textLength="29.5449" x="869.1675" y="523.7803">loop</text><text fill="#000000" font-family="Helvetica" font-size="14" font-weight="bold" lengthAdjust="spacing" textLength="215.4756" x="943.7124" y="524.7803">[create pending PROVISIONING]</text><g class="message" data-entity-1="part4" data-entity-2="part5" id="msg8"><polygon fill="#0F172A" points="1324.0171,544,1334.0171,548,1324.0171,552,1328.0171,548" style="stroke:#0F172A;stroke-width:1;"/><line style="stroke:#0F172A;stroke-width:1;" x1="942.3638" x2="1330.0171" y1="548" y2="548"/><text fill="#000000" font-family="Helvetica" font-size="14" lengthAdjust="spacing" textLength="328.4326" x="949.3638" y="542.7803">GetDatabaseManagementManagedDatabaseGroups</text></g><line style="stroke:#CBD5E1;stroke-width:1;stroke-dasharray:2,2;" x1="844.1675" x2="1375.4619" y1="564" y2="564"/><text fill="#000000" font-family="Helvetica" font-size="14" font-weight="bold" lengthAdjust="spacing" textLength="137.6484" x="849.1675" y="574.7803">[update or drift path]</text><g class="message" data-entity-1="part4" data-entity-2="part5" id="msg9"><polygon fill="#0F172A" points="1324.0171,595,1334.0171,599,1324.0171,603,1328.0171,599" style="stroke:#0F172A;stroke-width:1;"/><line style="stroke:#0F172A;stroke-width:1;" x1="942.3638" x2="1330.0171" y1="599" y2="599"/><text fill="#000000" font-family="Helvetica" font-size="14" lengthAdjust="spacing" textLength="351.0117" x="949.3638" y="593.7803">UpdateDatabaseManagementManagedDatabaseGroups</text></g><path d="M862.1675,614 L928.7124,614 L928.7124,620 L918.7124,630 L854.1675,630 L854.1675,622 A8,8 0 0 1 862.1675,614" fill="#F8FAFC" style="stroke:#CBD5E1;stroke-width:1.5;"/><rect fill="none" height="44" rx="8" ry="8" style="stroke:#CBD5E1;stroke-width:1.5;" width="511.2944" x="854.1675" y="614"/><text fill="#000000" font-family="Helvetica" font-size="14" font-weight="bold" lengthAdjust="spacing" textLength="29.5449" x="869.1675" y="625.7803">loop</text><text fill="#000000" font-family="Helvetica" font-size="14" font-weight="bold" lengthAdjust="spacing" textLength="190.5381" x="943.7124" y="626.7803">[update pending UPDATING]</text><g class="message" data-entity-1="part4" data-entity-2="part5" id="msg10"><polygon fill="#0F172A" points="1324.0171,646,1334.0171,650,1324.0171,654,1328.0171,650" style="stroke:#0F172A;stroke-width:1;"/><line style="stroke:#0F172A;stroke-width:1;" x1="942.3638" x2="1330.0171" y1="650" y2="650"/><text fill="#000000" font-family="Helvetica" font-size="14" lengthAdjust="spacing" textLength="328.4326" x="949.3638" y="644.7803">GetDatabaseManagementManagedDatabaseGroups</text></g><path d="M852.1675,679 L910.9331,679 L910.9331,685 L900.9331,695 L844.1675,695 L844.1675,687 A8,8 0 0 1 852.1675,679" fill="#F8FAFC" style="stroke:#CBD5E1;stroke-width:1.5;"/><rect fill="none" height="130" rx="8" ry="8" style="stroke:#CBD5E1;stroke-width:1.5;" width="531.2944" x="844.1675" y="679"/><text fill="#000000" font-family="Helvetica" font-size="14" font-weight="bold" lengthAdjust="spacing" textLength="21.7656" x="859.1675" y="690.7803">opt</text><text fill="#000000" font-family="Helvetica" font-size="14" font-weight="bold" lengthAdjust="spacing" textLength="120.5859" x="925.9331" y="691.7803">[delete requested]</text><g class="message" data-entity-1="part4" data-entity-2="part5" id="msg11"><polygon fill="#0F172A" points="1324.0171,711,1334.0171,715,1324.0171,719,1328.0171,715" style="stroke:#0F172A;stroke-width:1;"/><line style="stroke:#0F172A;stroke-width:1;" x1="942.3638" x2="1330.0171" y1="715" y2="715"/><text fill="#000000" font-family="Helvetica" font-size="14" lengthAdjust="spacing" textLength="346.3359" x="949.3638" y="709.7803">DeleteDatabaseManagementManagedDatabaseGroups</text></g><path d="M862.1675,730 L928.7124,730 L928.7124,736 L918.7124,746 L854.1675,746 L854.1675,738 A8,8 0 0 1 862.1675,730" fill="#F8FAFC" style="stroke:#CBD5E1;stroke-width:1.5;"/><rect fill="none" height="72" rx="8" ry="8" style="stroke:#CBD5E1;stroke-width:1.5;" width="511.2944" x="854.1675" y="730"/><text fill="#000000" font-family="Helvetica" font-size="14" font-weight="bold" lengthAdjust="spacing" textLength="29.5449" x="869.1675" y="741.7803">loop</text><text fill="#000000" font-family="Helvetica" font-size="14" font-weight="bold" lengthAdjust="spacing" textLength="213.124" x="943.7124" y="742.7803">[delete confirmation DELETING]</text><g class="message" data-entity-1="part4" data-entity-2="part5" id="msg12"><polygon fill="#0F172A" points="1324.0171,790,1334.0171,794,1324.0171,798,1328.0171,794" style="stroke:#0F172A;stroke-width:1;"/><line style="stroke:#0F172A;stroke-width:1;" x1="942.3638" x2="1330.0171" y1="794" y2="794"/><text fill="#000000" font-family="Helvetica" font-size="14" lengthAdjust="spacing" textLength="328.4326" x="949.3638" y="760.7803">GetDatabaseManagementManagedDatabaseGroups</text><text fill="#000000" font-family="Helvetica" font-size="14" lengthAdjust="spacing" textLength="12.4482" x="949.3638" y="774.7803">or</text><text fill="#000000" font-family="Helvetica" font-size="14" lengthAdjust="spacing" textLength="327.6533" x="949.3638" y="788.7803">ListDatabaseManagementManagedDatabaseGroups</text></g><g class="message" data-entity-1="part4" data-entity-2="part3" id="msg13"><polygon fill="#0F172A" points="623.4966,846,613.4966,850,623.4966,854,619.4966,850" style="stroke:#0F172A;stroke-width:1;"/><line style="stroke:#0F172A;stroke-width:1;stroke-dasharray:2,2;" x1="617.4966" x2="941.3638" y1="850" y2="850"/><text fill="#000000" font-family="Helvetica" font-size="14" lengthAdjust="spacing" textLength="100.7822" x="629.4966" y="830.7803">status=required,</text><text fill="#000000" font-family="Helvetica" font-size="14" lengthAdjust="spacing" textLength="230.7197" x="629.4966" y="844.7803">finalizer=retain-until-confirmed-delete</text></g><g class="message" data-entity-1="part3" data-entity-2="part2" id="msg14"><polygon fill="#0F172A" points="384.6704,888,374.6704,892,384.6704,896,380.6704,892" style="stroke:#0F172A;stroke-width:1;"/><line style="stroke:#0F172A;stroke-width:1;stroke-dasharray:2,2;" x1="378.6704" x2="611.4966" y1="892" y2="892"/><text fill="#000000" font-family="Helvetica" font-size="14" lengthAdjust="spacing" textLength="214.8262" x="390.6704" y="872.7803">requeue on provisioning, updating,</text><text fill="#000000" font-family="Helvetica" font-size="14" lengthAdjust="spacing" textLength="69.2549" x="390.6704" y="886.7803">terminating</text></g><path d="M947,913 L947,1299 A8,8 0 0 0 955,1307 L1299,1307 A8,8 0 0 0 1307,1299 L1307,915 L1297,905 L955,905 A8,8 0 0 0 947,913" fill="#FFF7D6" style="stroke:#B45309;stroke-width:0.5;"/><path d="M1297,905 L1297,911 A4,4 0 0 0 1301,915 L1307,915 L1297,905" fill="#FFF7D6" style="stroke:#B45309;stroke-width:0.5;"/><text fill="#334155" font-family="Helvetica" font-size="14" lengthAdjust="spacing" textLength="101.165" x="953" y="920.7803">shared diagram:</text><text fill="#334155" font-family="Helvetica" font-size="14" lengthAdjust="spacing" textLength="307.3916" x="953" y="934.7803">shared/diagrams/shared-resolution-sequence.svg</text><text fill="#334155" font-family="Helvetica" font-size="14" lengthAdjust="spacing" textLength="143.1992" x="953" y="948.7803">shared delete diagram:</text><text fill="#334155" font-family="Helvetica" font-size="14" lengthAdjust="spacing" textLength="284.833" x="953" y="962.7803">shared/diagrams/shared-delete-sequence.svg</text><text fill="#334155" font-family="Helvetica" font-size="14" lengthAdjust="spacing" textLength="280.9297" x="953" y="976.7803">Start from the shared resolution sequence for</text><text fill="#334155" font-family="Helvetica" font-size="14" lengthAdjust="spacing" textLength="260.7295" x="953" y="990.7803">OCID binding, datasource pagination, and</text><text fill="#334155" font-family="Helvetica" font-size="14" lengthAdjust="spacing" textLength="163.4268" x="953" y="1004.7803">create-or-update dispatch.</text><text fill="#334155" font-family="Helvetica" font-size="14" lengthAdjust="spacing" textLength="301.1982" x="953" y="1018.7803">Layer the shared delete sequence when finalizer</text><text fill="#334155" font-family="Helvetica" font-size="14" lengthAdjust="spacing" textLength="269.2471" x="953" y="1032.7803">retention, delete confirmation, work-request</text><text fill="#334155" font-family="Helvetica" font-size="14" lengthAdjust="spacing" textLength="199.2334" x="953" y="1046.7803">polling, or Secret cleanup apply.</text><text fill="#334155" font-family="Helvetica" font-size="14" lengthAdjust="spacing" textLength="281.709" x="953" y="1060.7803">archetype batch: Generated service-manager</text><text fill="#334155" font-family="Helvetica" font-size="14" lengthAdjust="spacing" textLength="266.1504" x="953" y="1074.7803">controllers follow the shared resolution and</text><text fill="#334155" font-family="Helvetica" font-size="14" lengthAdjust="spacing" textLength="259.9297" x="953" y="1088.7803">delete sequences with imported waits and</text><text fill="#334155" font-family="Helvetica" font-size="14" lengthAdjust="spacing" textLength="134.6064" x="953" y="1102.7803">controller-local policy.</text><text fill="#334155" font-family="Helvetica" font-size="14" lengthAdjust="spacing" textLength="191.4473" x="953" y="1116.7803">service: databasemanagement</text><text fill="#334155" font-family="Helvetica" font-size="14" lengthAdjust="spacing" textLength="331.5771" x="953" y="1130.7803">slug: databasemanagementmanageddatabasegroups</text><text fill="#334155" font-family="Helvetica" font-size="14" lengthAdjust="spacing" textLength="339.3291" x="953" y="1144.7803">kind: DatabaseManagementManagedDatabaseGroups</text><text fill="#334155" font-family="Helvetica" font-size="14" lengthAdjust="spacing" textLength="241.2402" x="953" y="1158.7803">archetype: generated-service-manager</text><text fill="#334155" font-family="Helvetica" font-size="14" lengthAdjust="spacing" textLength="156.4063" x="953" y="1172.7803">status/finalizer: required /</text><text fill="#334155" font-family="Helvetica" font-size="14" lengthAdjust="spacing" textLength="174.3027" x="953" y="1186.7803">retain-until-confirmed-delete</text><text fill="#334155" font-family="Helvetica" font-size="14" lengthAdjust="spacing" textLength="272.3984" x="953" y="1200.7803">requeue: provisioning, updating, terminating</text><text fill="#334155" font-family="Helvetica" font-size="14" lengthAdjust="spacing" textLength="295.6816" x="953" y="1214.7803">provider states: create PROVISIONING; update</text><text fill="#334155" font-family="Helvetica" font-size="14" lengthAdjust="spacing" textLength="192.165" x="953" y="1228.7803">UPDATING; delete DELETING</text><text fill="#334155" font-family="Helvetica" font-size="14" lengthAdjust="spacing" textLength="319.04" x="953" y="1242.7803">mutable/forceNew: display_name / compartment_id</text><text fill="#334155" font-family="Helvetica" font-size="14" lengthAdjust="spacing" textLength="104.3164" x="953" y="1256.7803">open gaps: none</text><text fill="#334155" font-family="Helvetica" font-size="14" lengthAdjust="spacing" textLength="224.9023" x="953" y="1270.7803">Scaffold metadata only; replace with</text><text fill="#334155" font-family="Helvetica" font-size="14" lengthAdjust="spacing" textLength="244.3232" x="953" y="1284.7803">controller-specific runtime states before</text><text fill="#334155" font-family="Helvetica" font-size="14" lengthAdjust="spacing" textLength="66.1445" x="953" y="1298.7803">promotion.</text><?plantuml-src hLPjJnmt4FxkNp5AloJIBGS14hAebHf82Gg5ADVqqqcHpvxTi_3QMzlBbLRzxntl6xl7NNge284Mp_ZnFC-ysFvMcP8xNe1VScbNokIGSUsH-TwouE8sTxOoyingw-27JD2F77X8p7Ybmo_MX6jU87n4VOT12RxPPwR-GZWu6XYvStRLekzd1szV3tSQ6_3zenYoxAryi-vbdKJNUYoEZW_ttwrvnEDR--7XqS7nyS1Ummlh33euUCE22XfXXdzKQ0H20f87lk0U2svuZWMQC3rlbtxjbvelsHak2BJqRAaaGcPjMDW_1oVw3lnl1i15i6x4e5MYCwrBWA_n9DidCu6HsAha9cpUFtJO1MMWKe-XLOPNoemrVdV43nSdP8sGvSWa5l8O3thJe_oTP3mJx1zMSuDFrG99-82U3UA0Cmh4MQtHZPRVax9VK5WZrBhfnStivjCCtPqIRLRS2-0UnakZBJTdbopM1jWxolmOUxAsZxh4eGI7tkegA6lITcag5SyfftxQ_9yyk2HTclVyNTuXIDJ4TklknZpUYKRMDSmUn8Bafu56AQ0X_mhdPiV2d1lNKMKFE15rB4CA_VTB5sFouHKRkyHDOx5IwC69hbV4Q-V0s1WgWbEQKhZ0i2k2BGCLhQS_rjvMPHnhEewoRT1NvBiZzijCwO3EftCZR15hARf-Kt82Fl20hnWXGh91aO87iOn3LaIbHImFK04B7xFBk0uW7F9OYmuMYX9Uyh3S5l5PxRgh7YH3sQ6NT5gCulENczylPvStrvVN5yyWUUI0T7b0LSgMX7Gg2zzbyRNsVHAB5hvZyVNp-S-_FIC3-et5q_GWjFMESXlyUUtt908jD7L7fXpLH2o3ymzN7vw7nTnODpTFgEUUzlhH6mP1BF3A_nXLYHqzcHC5mpLTwOuM0rScgKnGEcd9zSFiqRnOcrsrpXKLZO7IsJlbIHJAxgJ9TloQ6sgwWawB_pKZswby6S1ci7bEjsFr_mtf_qJPDAndWQO2PCuM49O8Z-wDXxi_iowEY_Ewtsl2yQ7XRUN8MFAyvclD13WbgEdVnBgaxG6fV1bdoXwxulUawk2mDlh-eDKI3VJ9OfGigeSQUKCvJc1btMtI5ZyhAKbrRDJICwGeQ51fv8RcAYzBVR_7k1DB3FSbqdkHuedrIWyf2b5I17Lkag9DZkYpxeczrdQrHQF8U8s5XvKAIr15QLt4Nd4LV2DDZvfeAxW6Yba9YgmzFjtmW6DUL_acG_CbEqFUj0azt2Jr-uvDrIkIGjvfaQnhqRJJj4zBqmUnis3AljzFRSEasze5XjrI-z3hhBcWVDhT1CCRuBGThAmRgATTPVIpgQY8eiOf5Qt0QrobTG5gVl_Dn8V_5CRt8SrHghcSbtIWiGRPJF2CKYwX86fHNMftVNzAf0aarYWbTvX9Nw9GcHBWeWXqGXC-B90YmCYgiB5KzlhNqRy0?></g></svg>