<?plantuml 1.2026.1?><svg xmlns="http://www.w3.org/2000/svg" xmlns:xlink="http://www.w3.org/1999/xlink" contentStyleType="text/css" data-diagram-type="ACTIVITY" height="1371px" preserveAspectRatio="none" style="width:683px;height:1371px;background:#FCFCFD;" version="1.1" viewBox="0 0 683 1371" width="683px" zoomAndPan="magnify"><title>Activity - database/DatabaseExascaleDbStorageVault</title><defs/><g><rect fill="#FCFCFD" height="1371" style="stroke:none;stroke-width:1;" width="683" x="0" y="0"/><g class="title" data-source-line="10"><text fill="#000000" font-family="Helvetica" font-size="14" font-weight="bold" lengthAdjust="spacing" textLength="354.8125" x="163.0846" y="30.7803">Activity - database/DatabaseExascaleDbStorageVault</text></g><ellipse cx="300.9417" cy="55" fill="#1D4ED8" rx="10" ry="10" style="stroke:#222222;stroke-width:1;"/><rect fill="#F8FAFC" height="48" rx="8" ry="8" style="stroke:#0F172A;stroke-width:0.5;" width="304.7852" x="148.5491" y="85"/><text fill="#0F172A" font-family="Helvetica" font-size="14" lengthAdjust="spacing" textLength="136.9375" x="158.5491" y="105.7803">Start from shared flow</text><text fill="#0F172A" font-family="Helvetica" font-size="14" lengthAdjust="spacing" textLength="284.7852" x="158.5491" y="119.7803">shared/diagrams/shared-reconcile-activity.svg</text><rect fill="#F8FAFC" height="48" rx="8" ry="8" style="stroke:#0F172A;stroke-width:0.5;" width="320.4189" x="140.7322" y="153"/><text fill="#0F172A" font-family="Helvetica" font-size="14" lengthAdjust="spacing" textLength="300.4189" x="150.7322" y="173.7803">Load desired DatabaseExascaleDbStorageVault</text><text fill="#0F172A" font-family="Helvetica" font-size="14" lengthAdjust="spacing" textLength="205.4473" x="150.7322" y="187.7803">spec and status from Kubernetes</text><rect fill="#F8FAFC" height="62" rx="8" ry="8" style="stroke:#0F172A;stroke-width:0.5;" width="308.7227" x="146.5803" y="221"/><text fill="#0F172A" font-family="Helvetica" font-size="14" lengthAdjust="spacing" textLength="135.3857" x="156.5803" y="241.7803">Resolve OCI state via</text><text fill="#0F172A" font-family="Helvetica" font-size="14" lengthAdjust="spacing" textLength="266.9297" x="156.5803" y="255.7803">GetDatabaseExascaleDbStorageVault with</text><text fill="#0F172A" font-family="Helvetica" font-size="14" lengthAdjust="spacing" textLength="288.7227" x="156.5803" y="269.7803">ListDatabaseExascaleDbStorageVault fallback</text><rect fill="#F8FAFC" height="76" rx="8" ry="8" style="stroke:#0F172A;stroke-width:0.5;" width="346.1289" x="127.8772" y="303"/><text fill="#0F172A" font-family="Helvetica" font-size="14" lengthAdjust="spacing" textLength="24.8965" x="137.8772" y="323.7803">Use</text><text fill="#0F172A" font-family="Helvetica" font-size="14" lengthAdjust="spacing" textLength="326.1289" x="137.8772" y="337.7803">scaffold_database_databaseexascaledbstoragevault</text><text fill="#0F172A" font-family="Helvetica" font-size="14" lengthAdjust="spacing" textLength="297.2402" x="137.8772" y="351.7803">filters compartment_id, state when OCID lookup</text><text fill="#0F172A" font-family="Helvetica" font-size="14" lengthAdjust="spacing" textLength="259.9023" x="137.8772" y="365.7803">or bind-versus-create needs list resolution</text><polygon fill="#E2E8F0" points="247.2522,399,354.6311,399,366.6311,411,354.6311,423,247.2522,423,235.2522,411,247.2522,399" style="stroke:#1D4ED8;stroke-width:0.5;"/><text fill="#0F172A" font-family="Helvetica" font-size="14" lengthAdjust="spacing" textLength="107.3789" x="247.2522" y="414.7803">Resource exists?</text><text fill="#000000" font-family="Helvetica" font-size="14" lengthAdjust="spacing" textLength="21.7861" x="213.4661" y="407.7803">yes</text><text fill="#000000" font-family="Helvetica" font-size="14" lengthAdjust="spacing" textLength="15.5723" x="366.6311" y="407.7803">no</text><rect fill="#F8FAFC" height="48" rx="8" ry="8" style="stroke:#0F172A;stroke-width:0.5;" width="280.7227" x="11" y="433"/><text fill="#0F172A" font-family="Helvetica" font-size="14" lengthAdjust="spacing" textLength="108.1787" x="21" y="453.7803">Update path calls</text><text fill="#0F172A" font-family="Helvetica" font-size="14" lengthAdjust="spacing" textLength="260.7227" x="21" y="467.7803">UpdateDatabaseExascaleDbStorageVault</text><rect fill="#F8FAFC" height="48" rx="8" ry="8" style="stroke:#0F172A;stroke-width:0.5;" width="266.7021" x="18.0103" y="501"/><text fill="#0F172A" font-family="Helvetica" font-size="14" lengthAdjust="spacing" textLength="246.7021" x="28.0103" y="521.7803">Guard mutable fields display_name and</text><text fill="#0F172A" font-family="Helvetica" font-size="14" lengthAdjust="spacing" textLength="202.3096" x="28.0103" y="535.7803">force-new fields compartment_id</text><rect fill="#F8FAFC" height="48" rx="8" ry="8" style="stroke:#0F172A;stroke-width:0.5;" width="277.5986" x="311.7227" y="433"/><text fill="#0F172A" font-family="Helvetica" font-size="14" lengthAdjust="spacing" textLength="105.0547" x="321.7227" y="453.7803">Create path calls</text><text fill="#0F172A" font-family="Helvetica" font-size="14" lengthAdjust="spacing" textLength="257.5986" x="321.7227" y="467.7803">CreateDatabaseExascaleDbStorageVault</text><polygon fill="#E2E8F0" points="300.9417,555,312.9417,567,300.9417,579,288.9417,567,300.9417,555" style="stroke:#1D4ED8;stroke-width:0.5;"/><rect fill="#F8FAFC" height="104" rx="8" ry="8" style="stroke:#0F172A;stroke-width:0.5;" width="334.3164" x="133.7834" y="599"/><text fill="#0F172A" font-family="Helvetica" font-size="14" lengthAdjust="spacing" textLength="164.2061" x="143.7834" y="619.7803">Run provider helper hooks</text><text fill="#0F172A" font-family="Helvetica" font-size="14" lengthAdjust="spacing" textLength="219.0508" x="143.7834" y="633.7803">create=tfresource.CreateResource,</text><text fill="#0F172A" font-family="Helvetica" font-size="14" lengthAdjust="spacing" textLength="314.3164" x="143.7834" y="647.7803">tfresource.WaitForWorkRequestWithErrorHandling</text><text fill="#0F172A" font-family="Helvetica" font-size="14" lengthAdjust="spacing" textLength="215.5439" x="143.7834" y="661.7803">entity=template action=CREATED;</text><text fill="#0F172A" font-family="Helvetica" font-size="14" lengthAdjust="spacing" textLength="226.085" x="143.7834" y="675.7803">update=tfresource.UpdateResource;</text><text fill="#0F172A" font-family="Helvetica" font-size="14" lengthAdjust="spacing" textLength="212.8438" x="143.7834" y="689.7803">delete=tfresource.DeleteResource</text><rect fill="#F8FAFC" height="34" rx="8" ry="8" style="stroke:#0F172A;stroke-width:0.5;" width="263.5918" x="169.1458" y="723"/><text fill="#0F172A" font-family="Helvetica" font-size="14" lengthAdjust="spacing" textLength="243.5918" x="179.1458" y="743.7803">Apply repo-authored secret policy none</text><rect fill="#F8FAFC" height="90" rx="8" ry="8" style="stroke:#0F172A;stroke-width:0.5;" width="335.1846" x="133.3494" y="777"/><text fill="#0F172A" font-family="Helvetica" font-size="14" lengthAdjust="spacing" textLength="105.0684" x="143.3494" y="797.7803">Delete path uses</text><text fill="#0F172A" font-family="Helvetica" font-size="14" lengthAdjust="spacing" textLength="284.833" x="143.3494" y="811.7803">DeleteDatabaseExascaleDbStorageVault with</text><text fill="#0F172A" font-family="Helvetica" font-size="14" lengthAdjust="spacing" textLength="315.1846" x="143.3494" y="825.7803">required via GetDatabaseExascaleDbStorageVault</text><text fill="#0F172A" font-family="Helvetica" font-size="14" lengthAdjust="spacing" textLength="269.2676" x="143.3494" y="839.7803">or ListDatabaseExascaleDbStorageVault to</text><text fill="#0F172A" font-family="Helvetica" font-size="14" lengthAdjust="spacing" textLength="144.7168" x="143.3494" y="853.7803">DELETED confirmation</text><rect fill="#F8FAFC" height="48" rx="8" ry="8" style="stroke:#0F172A;stroke-width:0.5;" width="279.1299" x="161.3767" y="887"/><text fill="#0F172A" font-family="Helvetica" font-size="14" lengthAdjust="spacing" textLength="259.1299" x="171.3767" y="907.7803">Project required status and finalizer policy</text><text fill="#0F172A" font-family="Helvetica" font-size="14" lengthAdjust="spacing" textLength="174.3027" x="171.3767" y="921.7803">retain-until-confirmed-delete</text><rect fill="#F8FAFC" height="34" rx="8" ry="8" style="stroke:#0F172A;stroke-width:0.5;" width="313.4189" x="144.2322" y="955"/><text fill="#0F172A" font-family="Helvetica" font-size="14" lengthAdjust="spacing" textLength="293.4189" x="154.2322" y="975.7803">Requeue on provisioning, updating, terminating</text><path d="M331.9417,999 L331.9417,1175 L311.9417,1179 L331.9417,1183 L331.9417,1359 A0,0 0 0 0 331.9417,1359 L671.9817,1359 A0,0 0 0 0 671.9817,1359 L671.9817,1009 L661.9817,999 L331.9417,999 A0,0 0 0 0 331.9417,999" fill="#FFF7D6" style="stroke:#B45309;stroke-width:0.5;"/><path d="M661.9817,999 L661.9817,1009 L671.9817,1009 L661.9817,999" fill="#FFF7D6" style="stroke:#B45309;stroke-width:0.5;"/><text fill="#334155" font-family="Helvetica" font-size="14" lengthAdjust="spacing" textLength="101.165" x="337.9417" y="1014.7803">shared diagram:</text><text fill="#334155" font-family="Helvetica" font-size="14" lengthAdjust="spacing" textLength="284.7852" x="337.9417" y="1028.7803">shared/diagrams/shared-reconcile-activity.svg</text><text fill="#334155" font-family="Helvetica" font-size="14" lengthAdjust="spacing" textLength="265.3438" x="337.9417" y="1042.7803">Start from the shared reconcile activity and</text><text fill="#334155" font-family="Helvetica" font-size="14" lengthAdjust="spacing" textLength="273.8955" x="337.9417" y="1056.7803">specialize provider-backed CRUD, wait, and</text><text fill="#334155" font-family="Helvetica" font-size="14" lengthAdjust="spacing" textLength="182.875" x="337.9417" y="1070.7803">status-projection details here.</text><text fill="#334155" font-family="Helvetica" font-size="14" lengthAdjust="spacing" textLength="229.5371" x="337.9417" y="1084.7803">Controller-local activity diagrams add</text><text fill="#334155" font-family="Helvetica" font-size="14" lengthAdjust="spacing" textLength="238.8955" x="337.9417" y="1098.7803">list-lookup hints, secret policies, delete</text><text fill="#334155" font-family="Helvetica" font-size="14" lengthAdjust="spacing" textLength="200.0332" x="337.9417" y="1112.7803">handling, and open formal gaps.</text><text fill="#334155" font-family="Helvetica" font-size="14" lengthAdjust="spacing" textLength="281.709" x="337.9417" y="1126.7803">archetype batch: Generated service-manager</text><text fill="#334155" font-family="Helvetica" font-size="14" lengthAdjust="spacing" textLength="291.0469" x="337.9417" y="1140.7803">controllers specialize the shared reconcile path</text><text fill="#334155" font-family="Helvetica" font-size="14" lengthAdjust="spacing" textLength="189.8477" x="337.9417" y="1154.7803">with formal runtime ownership.</text><text fill="#334155" font-family="Helvetica" font-size="14" lengthAdjust="spacing" textLength="109.7305" x="337.9417" y="1168.7803">service: database</text><text fill="#334155" font-family="Helvetica" font-size="14" lengthAdjust="spacing" textLength="238.1641" x="337.9417" y="1182.7803">slug: databaseexascaledbstoragevault</text><text fill="#334155" font-family="Helvetica" font-size="14" lengthAdjust="spacing" textLength="249.04" x="337.9417" y="1196.7803">kind: DatabaseExascaleDbStorageVault</text><text fill="#334155" font-family="Helvetica" font-size="14" lengthAdjust="spacing" textLength="241.2402" x="337.9417" y="1210.7803">archetype: generated-service-manager</text><text fill="#334155" font-family="Helvetica" font-size="14" lengthAdjust="spacing" textLength="156.4063" x="337.9417" y="1224.7803">status/finalizer: required /</text><text fill="#334155" font-family="Helvetica" font-size="14" lengthAdjust="spacing" textLength="174.3027" x="337.9417" y="1238.7803">retain-until-confirmed-delete</text><text fill="#334155" font-family="Helvetica" font-size="14" lengthAdjust="spacing" textLength="272.3984" x="337.9417" y="1252.7803">requeue: provisioning, updating, terminating</text><text fill="#334155" font-family="Helvetica" font-size="14" lengthAdjust="spacing" textLength="295.6816" x="337.9417" y="1266.7803">provider states: create PROVISIONING; update</text><text fill="#334155" font-family="Helvetica" font-size="14" lengthAdjust="spacing" textLength="192.165" x="337.9417" y="1280.7803">UPDATING; delete DELETING</text><text fill="#334155" font-family="Helvetica" font-size="14" lengthAdjust="spacing" textLength="319.04" x="337.9417" y="1294.7803">mutable/forceNew: display_name / compartment_id</text><text fill="#334155" font-family="Helvetica" font-size="14" lengthAdjust="spacing" textLength="104.3164" x="337.9417" y="1308.7803">open gaps: none</text><text fill="#334155" font-family="Helvetica" font-size="14" lengthAdjust="spacing" textLength="224.9023" x="337.9417" y="1322.7803">Scaffold metadata only; replace with</text><text fill="#334155" font-family="Helvetica" font-size="14" lengthAdjust="spacing" textLength="244.3232" x="337.9417" y="1336.7803">controller-specific runtime states before</text><text fill="#334155" font-family="Helvetica" font-size="14" lengthAdjust="spacing" textLength="66.1445" x="337.9417" y="1350.7803">promotion.</text><ellipse cx="300.9417" cy="1179" fill="none" rx="11" ry="11" style="stroke:#222222;stroke-width:1;"/><ellipse cx="300.9417" cy="1179" fill="#222222" rx="6" ry="6" style="stroke:#222222;stroke-width:1;"/><line style="stroke:#0F172A;stroke-width:1;" x1="300.9417" x2="300.9417" y1="65" y2="85"/><polygon fill="#0F172A" points="296.9417,75,300.9417,85,304.9417,75,300.9417,79" style="stroke:#0F172A;stroke-width:1;"/><line style="stroke:#0F172A;stroke-width:1;" x1="300.9417" x2="300.9417" y1="133" y2="153"/><polygon fill="#0F172A" points="296.9417,143,300.9417,153,304.9417,143,300.9417,147" style="stroke:#0F172A;stroke-width:1;"/><line style="stroke:#0F172A;stroke-width:1;" x1="300.9417" x2="300.9417" y1="201" y2="221"/><polygon fill="#0F172A" points="296.9417,211,300.9417,221,304.9417,211,300.9417,215" style="stroke:#0F172A;stroke-width:1;"/><line style="stroke:#0F172A;stroke-width:1;" x1="300.9417" x2="300.9417" y1="283" y2="303"/><polygon fill="#0F172A" points="296.9417,293,300.9417,303,304.9417,293,300.9417,297" style="stroke:#0F172A;stroke-width:1;"/><line style="stroke:#0F172A;stroke-width:1;" x1="151.3613" x2="151.3613" y1="481" y2="501"/><polygon fill="#0F172A" points="147.3613,491,151.3613,501,155.3613,491,151.3613,495" style="stroke:#0F172A;stroke-width:1;"/><line style="stroke:#0F172A;stroke-width:1;" x1="235.2522" x2="151.3613" y1="411" y2="411"/><line style="stroke:#0F172A;stroke-width:1;" x1="151.3613" x2="151.3613" y1="411" y2="433"/><polygon fill="#0F172A" points="147.3613,423,151.3613,433,155.3613,423,151.3613,427" style="stroke:#0F172A;stroke-width:1;"/><line style="stroke:#0F172A;stroke-width:1;" x1="366.6311" x2="450.522" y1="411" y2="411"/><line style="stroke:#0F172A;stroke-width:1;" x1="450.522" x2="450.522" y1="411" y2="433"/><polygon fill="#0F172A" points="446.522,423,450.522,433,454.522,423,450.522,427" style="stroke:#0F172A;stroke-width:1;"/><line style="stroke:#0F172A;stroke-width:1;" x1="151.3613" x2="151.3613" y1="549" y2="567"/><line style="stroke:#0F172A;stroke-width:1;" x1="151.3613" x2="288.9417" y1="567" y2="567"/><polygon fill="#0F172A" points="278.9417,563,288.9417,567,278.9417,571,282.9417,567" style="stroke:#0F172A;stroke-width:1;"/><line style="stroke:#0F172A;stroke-width:1;" x1="450.522" x2="450.522" y1="481" y2="567"/><line style="stroke:#0F172A;stroke-width:1;" x1="450.522" x2="312.9417" y1="567" y2="567"/><polygon fill="#0F172A" points="322.9417,563,312.9417,567,322.9417,571,318.9417,567" style="stroke:#0F172A;stroke-width:1;"/><line style="stroke:#0F172A;stroke-width:1;" x1="300.9417" x2="300.9417" y1="379" y2="399"/><polygon fill="#0F172A" points="296.9417,389,300.9417,399,304.9417,389,300.9417,393" style="stroke:#0F172A;stroke-width:1;"/><line style="stroke:#0F172A;stroke-width:1;" x1="300.9417" x2="300.9417" y1="579" y2="599"/><polygon fill="#0F172A" points="296.9417,589,300.9417,599,304.9417,589,300.9417,593" style="stroke:#0F172A;stroke-width:1;"/><line style="stroke:#0F172A;stroke-width:1;" x1="300.9417" x2="300.9417" y1="703" y2="723"/><polygon fill="#0F172A" points="296.9417,713,300.9417,723,304.9417,713,300.9417,717" style="stroke:#0F172A;stroke-width:1;"/><line style="stroke:#0F172A;stroke-width:1;" x1="300.9417" x2="300.9417" y1="757" y2="777"/><polygon fill="#0F172A" points="296.9417,767,300.9417,777,304.9417,767,300.9417,771" style="stroke:#0F172A;stroke-width:1;"/><line style="stroke:#0F172A;stroke-width:1;" x1="300.9417" x2="300.9417" y1="867" y2="887"/><polygon fill="#0F172A" points="296.9417,877,300.9417,887,304.9417,877,300.9417,881" style="stroke:#0F172A;stroke-width:1;"/><line style="stroke:#0F172A;stroke-width:1;" x1="300.9417" x2="300.9417" y1="935" y2="955"/><polygon fill="#0F172A" points="296.9417,945,300.9417,955,304.9417,945,300.9417,949" style="stroke:#0F172A;stroke-width:1;"/><line style="stroke:#0F172A;stroke-width:1;" x1="300.9417" x2="300.9417" y1="989" y2="1168"/><polygon fill="#0F172A" points="296.9417,1158,300.9417,1168,304.9417,1158,300.9417,1162" style="stroke:#0F172A;stroke-width:1;"/><?plantuml-src bLPHJ-Cu47xthnZfNbYfQM61NIuLEd5jbqM70C6ol5H2RZnfVJXspdRQxPtklzyuJjFGHS2f3qdiySnyCzzyhdkIkkIM5-0MN9YLr7F8kNB8NBipuzdJt9fAYv5Hni8lUKO_qR4GcFDA-Iz6-ojU87n5jKGlC_wopPty6-7WgBF9hJMhnlj-Vl3vO_UaDXv__oc7FFyiFkrQ6IlGDXQpe-F3_LztB4BuPl_myEZW-BYpNxlFZDLeuU0Jyz8hXBFCowNqQqX0SCzdtE5WtBnCVd2NSONZsPqtbi_nUq3OXRKv_0-35yfualCy2plTj1lu0FasrNPDI5uOBNwg1dx4ato_Oz3rU22EK9niDx-yuDXvRlskFRR-MxiPt_7wBwkFilGkF22tfgQIHG6vCgkfZXy3YZsdahX1_4uiPaPdKc6oALBVBUT3bbuQBeWiJWONhrUQd9UO0TSYvEyh5yF_KSsGckZHaRjRT8R82DUZYze8OIdvL9-ZVzqthAHVJFMbT6yPqhYeq5iATk-GSifudXib7ZTyQL-mSI1cBZfOHXIvL1wjWymKn1jVeFQFKlIQV5SBr27zCIXZdgfoggdyCwb5igH3bKioYy5E8me7YX866q1NNXezP3A7lL24ocO8-8EstMyVm0UdUsjq7oZhKeJp9VSBeFIKc-guz3fmmdjUSIkWgCYCHYMNg2W38Lsf-FfH1oMWtX0-Gx4JZQkDoNEWGuOaEB2d3IKpYc2woSIbjv8XiigS-brfAArPIk8_B52LuK5r8p-nJgS-jqqv-j7pfZgzgUxiFN19OcKVZ7swnRygTFw1634XeR9V2PKYfPng0a3CFVLO46HAEt3PwDFHxUJissGydEggBcGtPYpj9YQP25Jut6HShxGcB3qhIxMchfOcuPLVc30Q3WcFXz8ecQr9stGmZ2TZzIg713gkl8lhbc3MKqSJ0cyEI4t3Tuo7DvJ4v792zQ2-4zTjmICpqnjh_iGiqBK9t4nn6EXSQgxedh0Dmf2Uvr8d5PLS9Oqd4f9OldhIgKiLWca8u2W8DQa7TG_gDvgoWlo6Zo7fbYbPk1F0olc2P3kgLYDKAVjVmiKwyaUpjP70rdXx5H0u5cHBrl1QhYP1GkZ4wFP-t8CLaQyNJUkI96Ki5K4YRQGwA4VajjXd8n9pQvGY3yfG-RU1Dea35u85MKYYVi12QkzwpmWaaHPY9TcYONST7qn9Ga43N93hEIzTdt6RBT2lIwJBm6UBbAX2DoPnEd3IBYMDUi4rzT-oh4tEGGVpYmKAd6M1Y9jeDdIQ9CIioBrRoBBF6lzfUnKpfwhvzlDbWMLq7ulqZRja2ok5-GPGiWieTcFGaZFTSdV0NYKeiv6UwNl8oLe5gwy0bqAZyJUtrzylxYwkhowkpeVnBBBxc_7PjteXXe9wt6Y1DSeyg0Nu2bVfSt4Ux0WngviTkfpMWiBkcgiC2e8MYap3fTR3e4IAqtKIsjLfSbBtE9TPsxkOFioGCi20gZ21m_sWrlN_iVy0?></g></svg>