<?plantuml 1.2026.1?><svg xmlns="http://www.w3.org/2000/svg" xmlns:xlink="http://www.w3.org/1999/xlink" contentStyleType="text/css" data-diagram-type="SEQUENCE" height="1315px" preserveAspectRatio="none" style="width:1100px;height:1315px;background:#FCFCFD;" version="1.1" viewBox="0 0 1100 1315" width="1100px" zoomAndPan="magnify"><title>Sequence - integration/IntegrationIntegrationInstance</title><defs/><g><rect fill="#FCFCFD" height="1315" style="stroke:none;stroke-width:1;" width="1100" x="0" y="0"/><text fill="#000000" font-family="Helvetica" font-size="14" font-weight="bold" lengthAdjust="spacing" textLength="356.2617" x="369.3892" y="25.7803">Sequence - integration/IntegrationIntegrationInstance</text><rect fill="none" height="86" rx="8" ry="8" style="stroke:#CBD5E1;stroke-width:1.5;" width="390.6675" x="658.3931" y="361"/><rect fill="none" height="204" rx="8" ry="8" style="stroke:#CBD5E1;stroke-width:1.5;" width="410.6675" x="648.3931" y="461"/><rect fill="none" height="44" rx="8" ry="8" style="stroke:#CBD5E1;stroke-width:1.5;" width="390.6675" x="658.3931" y="512"/><rect fill="none" height="44" rx="8" ry="8" style="stroke:#CBD5E1;stroke-width:1.5;" width="390.6675" x="658.3931" y="614"/><rect fill="none" height="116" rx="8" ry="8" style="stroke:#CBD5E1;stroke-width:1.5;" width="410.6675" x="648.3931" y="679"/><rect fill="none" height="58" rx="8" ry="8" style="stroke:#CBD5E1;stroke-width:1.5;" width="390.6675" x="658.3931" y="730"/><g class="participant-lifeline" data-entity-uid="part1" data-qualified-name="Kubernetes" id="part1-lifeline"><g><title>Kubernetes</title><rect fill="#000000" fill-opacity="0.00000" height="1194" width="8" x="39.8032" y="114"/><line style="stroke:#94A3B8;stroke-width:0.5;stroke-dasharray:5,5;" x1="43" x2="43" y1="114" y2="1308"/></g></g><g class="participant-lifeline" data-entity-uid="part2" data-qualified-name="Controller" id="part2-lifeline"><g><title>Controller</title><rect fill="#000000" fill-opacity="0.00000" height="1194" width="8" x="249.0435" y="114"/><line style="stroke:#94A3B8;stroke-width:0.5;stroke-dasharray:5,5;" x1="252.6987" x2="252.6987" y1="114" y2="1308"/></g></g><g class="participant-lifeline" data-entity-uid="part3" data-qualified-name="BaseReconciler" id="part3-lifeline"><g><title>BaseReconciler</title><rect fill="#000000" fill-opacity="0.00000" height="1194" width="8" x="487.8696" y="114"/><line style="stroke:#94A3B8;stroke-width:0.5;stroke-dasharray:5,5;" x1="491.8457" x2="491.8457" y1="114" y2="1308"/></g></g><g class="participant-lifeline" data-entity-uid="part4" data-qualified-name="ServiceManager" id="part4-lifeline"><g><title>OSOKServiceManager</title><rect fill="#000000" fill-opacity="0.00000" height="1194" width="8" x="742.5894" y="114"/><line style="stroke:#94A3B8;stroke-width:0.5;stroke-dasharray:5,5;" x1="746.3931" x2="746.3931" y1="114" y2="1308"/></g></g><g class="participant-lifeline" data-entity-uid="part5" data-qualified-name="OCI" id="part5-lifeline"><g><title>OCI</title><rect fill="#000000" fill-opacity="0.00000" height="1194" width="8" x="1015.6157" y="114"/><line style="stroke:#94A3B8;stroke-width:0.5;stroke-dasharray:5,5;" x1="1019.1709" x2="1019.1709" y1="114" y2="1308"/></g></g><g class="participant participant-head" data-entity-uid="part1" data-qualified-name="Kubernetes" id="part1-head"><text fill="#000000" font-family="Helvetica" font-size="14" lengthAdjust="spacing" textLength="71.6064" x="5" y="110.7803">Kubernetes</text><ellipse cx="43.8032" cy="48.5" fill="#E2E8F0" rx="8" ry="8" style="stroke:#0F172A;stroke-width:0.5;"/><path d="M43.8032,56.5 L43.8032,83.5 M30.8032,64.5 L56.8032,64.5 M43.8032,83.5 L30.8032,98.5 M43.8032,83.5 L56.8032,98.5" fill="none" style="stroke:#0F172A;stroke-width:0.5;"/></g><g class="participant participant-head" data-entity-uid="part2" data-qualified-name="Controller" id="part2-head"><rect fill="#E2E8F0" height="28" rx="8" ry="8" style="stroke:#0F172A;stroke-width:0.5;" width="74.6895" x="215.6987" y="85"/><text fill="#0F172A" font-family="Helvetica" font-size="14" lengthAdjust="spacing" textLength="60.6895" x="222.6987" y="102.7803">Controller</text></g><g class="participant participant-head" data-entity-uid="part3" data-qualified-name="BaseReconciler" id="part3-head"><rect fill="#E2E8F0" height="28" rx="8" ry="8" style="stroke:#0F172A;stroke-width:0.5;" width="112.0479" x="435.8457" y="85"/><text fill="#0F172A" font-family="Helvetica" font-size="14" lengthAdjust="spacing" textLength="98.0479" x="442.8457" y="102.7803">BaseReconciler</text></g><g class="participant participant-head" data-entity-uid="part4" data-qualified-name="ServiceManager" id="part4-head"><rect fill="#E2E8F0" height="28" rx="8" ry="8" style="stroke:#0F172A;stroke-width:0.5;" width="156.3926" x="668.3931" y="85"/><text fill="#0F172A" font-family="Helvetica" font-size="14" lengthAdjust="spacing" textLength="142.3926" x="675.3931" y="102.7803">OSOKServiceManager</text></g><g class="participant participant-head" data-entity-uid="part5" data-qualified-name="OCI" id="part5-head"><rect fill="#E2E8F0" height="28" rx="8" ry="8" style="stroke:#0F172A;stroke-width:0.5;" width="38.8896" x="1000.1709" y="85"/><text fill="#0F172A" font-family="Helvetica" font-size="14" lengthAdjust="spacing" textLength="24.8896" x="1007.1709" y="102.7803">OCI</text></g><path d="M427,137 L427,187 A8,8 0 0 0 435,195 L802,195 A8,8 0 0 0 810,187 L810,139 L800,129 L435,129 A8,8 0 0 0 427,137" fill="#FFF7D6" style="stroke:#B45309;stroke-width:0.5;"/><path d="M800,129 L800,135 A4,4 0 0 0 804,139 L810,139 L800,129" fill="#FFF7D6" style="stroke:#B45309;stroke-width:0.5;"/><text fill="#334155" font-family="Helvetica" font-size="14" lengthAdjust="spacing" textLength="111.2891" x="460.7742" y="144.7803">shared resolution:</text><text fill="#334155" font-family="Helvetica" font-size="14" lengthAdjust="spacing" textLength="307.3916" x="460.7742" y="158.7803">shared/diagrams/shared-resolution-sequence.svg</text><text fill="#334155" font-family="Helvetica" font-size="14" lengthAdjust="spacing" textLength="88.7305" x="460.7742" y="172.7803">shared delete:</text><text fill="#334155" font-family="Helvetica" font-size="14" lengthAdjust="spacing" textLength="284.833" x="460.7742" y="186.7803">shared/diagrams/shared-delete-sequence.svg</text><g class="message" data-entity-1="part1" data-entity-2="part2" id="msg1"><polygon fill="#0F172A" points="241.0435,244,251.0435,248,241.0435,252,245.0435,248" style="stroke:#0F172A;stroke-width:1;"/><line style="stroke:#0F172A;stroke-width:1;" x1="43.8032" x2="247.0435" y1="248" y2="248"/><text fill="#000000" font-family="Helvetica" font-size="14" lengthAdjust="spacing" textLength="54.5029" x="50.8032" y="214.7803">enqueue</text><text fill="#000000" font-family="Helvetica" font-size="14" lengthAdjust="spacing" textLength="185.2402" x="50.8032" y="228.7803">IntegrationIntegrationInstance</text><text fill="#000000" font-family="Helvetica" font-size="14" lengthAdjust="spacing" textLength="56.0273" x="50.8032" y="242.7803">reconcile</text></g><g class="message" data-entity-1="part2" data-entity-2="part3" id="msg2"><polygon fill="#0F172A" points="479.8696,272,489.8696,276,479.8696,280,483.8696,276" style="stroke:#0F172A;stroke-width:1;"/><line style="stroke:#0F172A;stroke-width:1;" x1="253.0435" x2="485.8696" y1="276" y2="276"/><text fill="#000000" font-family="Helvetica" font-size="14" lengthAdjust="spacing" textLength="117.4961" x="260.0435" y="270.7803">Reconcile(request)</text></g><g class="message" data-entity-1="part3" data-entity-2="part4" id="msg3"><polygon fill="#0F172A" points="734.5894,314,744.5894,318,734.5894,322,738.5894,318" style="stroke:#0F172A;stroke-width:1;"/><line style="stroke:#0F172A;stroke-width:1;" x1="491.8696" x2="740.5894" y1="318" y2="318"/><text fill="#000000" font-family="Helvetica" font-size="14" lengthAdjust="spacing" textLength="105.834" x="498.8696" y="298.7803">reconcile desired</text><text fill="#000000" font-family="Helvetica" font-size="14" lengthAdjust="spacing" textLength="185.2402" x="498.8696" y="312.7803">IntegrationIntegrationInstance</text></g><g class="message" data-entity-1="part4" data-entity-2="part5" id="msg4"><polygon fill="#0F172A" points="1007.6157,342,1017.6157,346,1007.6157,350,1011.6157,346" style="stroke:#0F172A;stroke-width:1;"/><line style="stroke:#0F172A;stroke-width:1;" x1="746.5894" x2="1013.6157" y1="346" y2="346"/><text fill="#000000" font-family="Helvetica" font-size="14" lengthAdjust="spacing" textLength="207.8057" x="753.5894" y="340.7803">GetIntegrationIntegrationInstance</text></g><path d="M666.3931,361 L725.1587,361 L725.1587,367 L715.1587,377 L658.3931,377 L658.3931,369 A8,8 0 0 1 666.3931,361" fill="#F8FAFC" style="stroke:#CBD5E1;stroke-width:1.5;"/><rect fill="none" height="86" rx="8" ry="8" style="stroke:#CBD5E1;stroke-width:1.5;" width="390.6675" x="658.3931" y="361"/><text fill="#000000" font-family="Helvetica" font-size="14" font-weight="bold" lengthAdjust="spacing" textLength="21.7656" x="673.3931" y="372.7803">opt</text><text fill="#000000" font-family="Helvetica" font-size="14" font-weight="bold" lengthAdjust="spacing" textLength="135.3516" x="740.1587" y="373.7803">[list lookup fallback]</text><g class="message" data-entity-1="part4" data-entity-2="part5" id="msg5"><polygon fill="#0F172A" points="1007.6157,407,1017.6157,411,1007.6157,415,1011.6157,411" style="stroke:#0F172A;stroke-width:1;"/><line style="stroke:#0F172A;stroke-width:1;" x1="746.5894" x2="1013.6157" y1="411" y2="411"/><text fill="#000000" font-family="Helvetica" font-size="14" lengthAdjust="spacing" textLength="249.0264" x="753.5894" y="391.7803">ListIntegrationIntegrationInstance(filters:</text><text fill="#000000" font-family="Helvetica" font-size="14" lengthAdjust="spacing" textLength="143.1719" x="753.5894" y="405.7803">compartment_id, state)</text></g><g class="message" data-entity-1="part5" data-entity-2="part4" id="msg6"><polygon fill="#0F172A" points="757.5894,435,747.5894,439,757.5894,443,753.5894,439" style="stroke:#0F172A;stroke-width:1;"/><line style="stroke:#0F172A;stroke-width:1;stroke-dasharray:2,2;" x1="751.5894" x2="1018.6157" y1="439" y2="439"/><text fill="#000000" font-family="Helvetica" font-size="14" lengthAdjust="spacing" textLength="156.3994" x="763.5894" y="433.7803">matching collection items</text></g><path d="M656.3931,461 L709.731,461 L709.731,467 L699.731,477 L648.3931,477 L648.3931,469 A8,8 0 0 1 656.3931,461" fill="#F8FAFC" style="stroke:#CBD5E1;stroke-width:1.5;"/><rect fill="none" height="204" rx="8" ry="8" style="stroke:#CBD5E1;stroke-width:1.5;" width="410.6675" x="648.3931" y="461"/><text fill="#000000" font-family="Helvetica" font-size="14" font-weight="bold" lengthAdjust="spacing" textLength="16.3379" x="663.3931" y="472.7803">alt</text><text fill="#000000" font-family="Helvetica" font-size="14" font-weight="bold" lengthAdjust="spacing" textLength="135.3447" x="724.731" y="473.7803">[create or bind path]</text><g class="message" data-entity-1="part4" data-entity-2="part5" id="msg7"><polygon fill="#0F172A" points="1007.6157,493,1017.6157,497,1007.6157,501,1011.6157,497" style="stroke:#0F172A;stroke-width:1;"/><line style="stroke:#0F172A;stroke-width:1;" x1="746.5894" x2="1013.6157" y1="497" y2="497"/><text fill="#000000" font-family="Helvetica" font-size="14" lengthAdjust="spacing" textLength="227.2607" x="753.5894" y="491.7803">CreateIntegrationIntegrationInstance</text></g><path d="M666.3931,512 L732.938,512 L732.938,518 L722.938,528 L658.3931,528 L658.3931,520 A8,8 0 0 1 666.3931,512" fill="#F8FAFC" style="stroke:#CBD5E1;stroke-width:1.5;"/><rect fill="none" height="44" rx="8" ry="8" style="stroke:#CBD5E1;stroke-width:1.5;" width="390.6675" x="658.3931" y="512"/><text fill="#000000" font-family="Helvetica" font-size="14" font-weight="bold" lengthAdjust="spacing" textLength="29.5449" x="673.3931" y="523.7803">loop</text><text fill="#000000" font-family="Helvetica" font-size="14" font-weight="bold" lengthAdjust="spacing" textLength="215.4756" x="747.938" y="524.7803">[create pending PROVISIONING]</text><g class="message" data-entity-1="part4" data-entity-2="part5" id="msg8"><polygon fill="#0F172A" points="1007.6157,544,1017.6157,548,1007.6157,552,1011.6157,548" style="stroke:#0F172A;stroke-width:1;"/><line style="stroke:#0F172A;stroke-width:1;" x1="746.5894" x2="1013.6157" y1="548" y2="548"/><text fill="#000000" font-family="Helvetica" font-size="14" lengthAdjust="spacing" textLength="207.8057" x="753.5894" y="542.7803">GetIntegrationIntegrationInstance</text></g><line style="stroke:#CBD5E1;stroke-width:1;stroke-dasharray:2,2;" x1="648.3931" x2="1059.0605" y1="564" y2="564"/><text fill="#000000" font-family="Helvetica" font-size="14" font-weight="bold" lengthAdjust="spacing" textLength="137.6484" x="653.3931" y="574.7803">[update or drift path]</text><g class="message" data-entity-1="part4" data-entity-2="part5" id="msg9"><polygon fill="#0F172A" points="1007.6157,595,1017.6157,599,1007.6157,603,1011.6157,599" style="stroke:#0F172A;stroke-width:1;"/><line style="stroke:#0F172A;stroke-width:1;" x1="746.5894" x2="1013.6157" y1="599" y2="599"/><text fill="#000000" font-family="Helvetica" font-size="14" lengthAdjust="spacing" textLength="230.3848" x="753.5894" y="593.7803">UpdateIntegrationIntegrationInstance</text></g><path d="M666.3931,614 L732.938,614 L732.938,620 L722.938,630 L658.3931,630 L658.3931,622 A8,8 0 0 1 666.3931,614" fill="#F8FAFC" style="stroke:#CBD5E1;stroke-width:1.5;"/><rect fill="none" height="44" rx="8" ry="8" style="stroke:#CBD5E1;stroke-width:1.5;" width="390.6675" x="658.3931" y="614"/><text fill="#000000" font-family="Helvetica" font-size="14" font-weight="bold" lengthAdjust="spacing" textLength="29.5449" x="673.3931" y="625.7803">loop</text><text fill="#000000" font-family="Helvetica" font-size="14" font-weight="bold" lengthAdjust="spacing" textLength="190.5381" x="747.938" y="626.7803">[update pending UPDATING]</text><g class="message" data-entity-1="part4" data-entity-2="part5" id="msg10"><polygon fill="#0F172A" points="1007.6157,646,1017.6157,650,1007.6157,654,1011.6157,650" style="stroke:#0F172A;stroke-width:1;"/><line style="stroke:#0F172A;stroke-width:1;" x1="746.5894" x2="1013.6157" y1="650" y2="650"/><text fill="#000000" font-family="Helvetica" font-size="14" lengthAdjust="spacing" textLength="207.8057" x="753.5894" y="644.7803">GetIntegrationIntegrationInstance</text></g><path d="M656.3931,679 L715.1587,679 L715.1587,685 L705.1587,695 L648.3931,695 L648.3931,687 A8,8 0 0 1 656.3931,679" fill="#F8FAFC" style="stroke:#CBD5E1;stroke-width:1.5;"/><rect fill="none" height="116" rx="8" ry="8" style="stroke:#CBD5E1;stroke-width:1.5;" width="410.6675" x="648.3931" y="679"/><text fill="#000000" font-family="Helvetica" font-size="14" font-weight="bold" lengthAdjust="spacing" textLength="21.7656" x="663.3931" y="690.7803">opt</text><text fill="#000000" font-family="Helvetica" font-size="14" font-weight="bold" lengthAdjust="spacing" textLength="120.5859" x="730.1587" y="691.7803">[delete requested]</text><g class="message" data-entity-1="part4" data-entity-2="part5" id="msg11"><polygon fill="#0F172A" points="1007.6157,711,1017.6157,715,1007.6157,719,1011.6157,715" style="stroke:#0F172A;stroke-width:1;"/><line style="stroke:#0F172A;stroke-width:1;" x1="746.5894" x2="1013.6157" y1="715" y2="715"/><text fill="#000000" font-family="Helvetica" font-size="14" lengthAdjust="spacing" textLength="225.709" x="753.5894" y="709.7803">DeleteIntegrationIntegrationInstance</text></g><path d="M666.3931,730 L732.938,730 L732.938,736 L722.938,746 L658.3931,746 L658.3931,738 A8,8 0 0 1 666.3931,730" fill="#F8FAFC" style="stroke:#CBD5E1;stroke-width:1.5;"/><rect fill="none" height="58" rx="8" ry="8" style="stroke:#CBD5E1;stroke-width:1.5;" width="390.6675" x="658.3931" y="730"/><text fill="#000000" font-family="Helvetica" font-size="14" font-weight="bold" lengthAdjust="spacing" textLength="29.5449" x="673.3931" y="741.7803">loop</text><text fill="#000000" font-family="Helvetica" font-size="14" font-weight="bold" lengthAdjust="spacing" textLength="213.124" x="747.938" y="742.7803">[delete confirmation DELETING]</text><g class="message" data-entity-1="part4" data-entity-2="part5" id="msg12"><polygon fill="#0F172A" points="1007.6157,776,1017.6157,780,1007.6157,784,1011.6157,780" style="stroke:#0F172A;stroke-width:1;"/><line style="stroke:#0F172A;stroke-width:1;" x1="746.5894" x2="1013.6157" y1="780" y2="780"/><text fill="#000000" font-family="Helvetica" font-size="14" lengthAdjust="spacing" textLength="224.1436" x="753.5894" y="760.7803">GetIntegrationIntegrationInstance or</text><text fill="#000000" font-family="Helvetica" font-size="14" lengthAdjust="spacing" textLength="207.0264" x="753.5894" y="774.7803">ListIntegrationIntegrationInstance</text></g><g class="message" data-entity-1="part4" data-entity-2="part3" id="msg13"><polygon fill="#0F172A" points="502.8696,832,492.8696,836,502.8696,840,498.8696,836" style="stroke:#0F172A;stroke-width:1;"/><line style="stroke:#0F172A;stroke-width:1;stroke-dasharray:2,2;" x1="496.8696" x2="745.5894" y1="836" y2="836"/><text fill="#000000" font-family="Helvetica" font-size="14" lengthAdjust="spacing" textLength="100.7822" x="508.8696" y="816.7803">status=required,</text><text fill="#000000" font-family="Helvetica" font-size="14" lengthAdjust="spacing" textLength="230.7197" x="508.8696" y="830.7803">finalizer=retain-until-confirmed-delete</text></g><g class="message" data-entity-1="part3" data-entity-2="part2" id="msg14"><polygon fill="#0F172A" points="264.0435,874,254.0435,878,264.0435,882,260.0435,878" style="stroke:#0F172A;stroke-width:1;"/><line style="stroke:#0F172A;stroke-width:1;stroke-dasharray:2,2;" x1="258.0435" x2="490.8696" y1="878" y2="878"/><text fill="#000000" font-family="Helvetica" font-size="14" lengthAdjust="spacing" textLength="214.8262" x="270.0435" y="858.7803">requeue on provisioning, updating,</text><text fill="#000000" font-family="Helvetica" font-size="14" lengthAdjust="spacing" textLength="69.2549" x="270.0435" y="872.7803">terminating</text></g><path d="M751,899 L751,1285 A8,8 0 0 0 759,1293 L1083,1293 A8,8 0 0 0 1091,1285 L1091,901 L1081,891 L759,891 A8,8 0 0 0 751,899" fill="#FFF7D6" style="stroke:#B45309;stroke-width:0.5;"/><path d="M1081,891 L1081,897 A4,4 0 0 0 1085,901 L1091,901 L1081,891" fill="#FFF7D6" style="stroke:#B45309;stroke-width:0.5;"/><text fill="#334155" font-family="Helvetica" font-size="14" lengthAdjust="spacing" textLength="101.165" x="757" y="906.7803">shared diagram:</text><text fill="#334155" font-family="Helvetica" font-size="14" lengthAdjust="spacing" textLength="307.3916" x="757" y="920.7803">shared/diagrams/shared-resolution-sequence.svg</text><text fill="#334155" font-family="Helvetica" font-size="14" lengthAdjust="spacing" textLength="143.1992" x="757" y="934.7803">shared delete diagram:</text><text fill="#334155" font-family="Helvetica" font-size="14" lengthAdjust="spacing" textLength="284.833" x="757" y="948.7803">shared/diagrams/shared-delete-sequence.svg</text><text fill="#334155" font-family="Helvetica" font-size="14" lengthAdjust="spacing" textLength="280.9297" x="757" y="962.7803">Start from the shared resolution sequence for</text><text fill="#334155" font-family="Helvetica" font-size="14" lengthAdjust="spacing" textLength="260.7295" x="757" y="976.7803">OCID binding, datasource pagination, and</text><text fill="#334155" font-family="Helvetica" font-size="14" lengthAdjust="spacing" textLength="163.4268" x="757" y="990.7803">create-or-update dispatch.</text><text fill="#334155" font-family="Helvetica" font-size="14" lengthAdjust="spacing" textLength="301.1982" x="757" y="1004.7803">Layer the shared delete sequence when finalizer</text><text fill="#334155" font-family="Helvetica" font-size="14" lengthAdjust="spacing" textLength="269.2471" x="757" y="1018.7803">retention, delete confirmation, work-request</text><text fill="#334155" font-family="Helvetica" font-size="14" lengthAdjust="spacing" textLength="199.2334" x="757" y="1032.7803">polling, or Secret cleanup apply.</text><text fill="#334155" font-family="Helvetica" font-size="14" lengthAdjust="spacing" textLength="281.709" x="757" y="1046.7803">archetype batch: Generated service-manager</text><text fill="#334155" font-family="Helvetica" font-size="14" lengthAdjust="spacing" textLength="266.1504" x="757" y="1060.7803">controllers follow the shared resolution and</text><text fill="#334155" font-family="Helvetica" font-size="14" lengthAdjust="spacing" textLength="259.9297" x="757" y="1074.7803">delete sequences with imported waits and</text><text fill="#334155" font-family="Helvetica" font-size="14" lengthAdjust="spacing" textLength="134.6064" x="757" y="1088.7803">controller-local policy.</text><text fill="#334155" font-family="Helvetica" font-size="14" lengthAdjust="spacing" textLength="117.5029" x="757" y="1102.7803">service: integration</text><text fill="#334155" font-family="Helvetica" font-size="14" lengthAdjust="spacing" textLength="216.3643" x="757" y="1116.7803">slug: integrationintegrationinstance</text><text fill="#334155" font-family="Helvetica" font-size="14" lengthAdjust="spacing" textLength="218.7021" x="757" y="1130.7803">kind: IntegrationIntegrationInstance</text><text fill="#334155" font-family="Helvetica" font-size="14" lengthAdjust="spacing" textLength="241.2402" x="757" y="1144.7803">archetype: generated-service-manager</text><text fill="#334155" font-family="Helvetica" font-size="14" lengthAdjust="spacing" textLength="156.4063" x="757" y="1158.7803">status/finalizer: required /</text><text fill="#334155" font-family="Helvetica" font-size="14" lengthAdjust="spacing" textLength="174.3027" x="757" y="1172.7803">retain-until-confirmed-delete</text><text fill="#334155" font-family="Helvetica" font-size="14" lengthAdjust="spacing" textLength="272.3984" x="757" y="1186.7803">requeue: provisioning, updating, terminating</text><text fill="#334155" font-family="Helvetica" font-size="14" lengthAdjust="spacing" textLength="295.6816" x="757" y="1200.7803">provider states: create PROVISIONING; update</text><text fill="#334155" font-family="Helvetica" font-size="14" lengthAdjust="spacing" textLength="192.165" x="757" y="1214.7803">UPDATING; delete DELETING</text><text fill="#334155" font-family="Helvetica" font-size="14" lengthAdjust="spacing" textLength="319.04" x="757" y="1228.7803">mutable/forceNew: display_name / compartment_id</text><text fill="#334155" font-family="Helvetica" font-size="14" lengthAdjust="spacing" textLength="104.3164" x="757" y="1242.7803">open gaps: none</text><text fill="#334155" font-family="Helvetica" font-size="14" lengthAdjust="spacing" textLength="224.9023" x="757" y="1256.7803">Scaffold metadata only; replace with</text><text fill="#334155" font-family="Helvetica" font-size="14" lengthAdjust="spacing" textLength="244.3232" x="757" y="1270.7803">controller-specific runtime states before</text><text fill="#334155" font-family="Helvetica" font-size="14" lengthAdjust="spacing" textLength="66.1445" x="757" y="1284.7803">promotion.</text><?plantuml-src fLPjRzis4FxENt7elhI05STDqgOADc1Dkive6XVrkay62fewsKGeKYCfUzxG_xwZtYmvTXmi218ekkDpptDlehkNEkUMP-2MF35hgHUGSkMGkTOov-9-OKsXaskZZ8MVKa4_ISSZmPGNolzcjB_Z6SBlg5RefU3xVQRo7uJHUSV8hJNh6lqq7RrztJsfZSVt3pYawTlapQwNiGdQscD-Vd5s-cx78uIlxMTdvwEBYuwzX1V6QhGmUiEyz0fXYdyLg0L2159xN5ZkfT73yVQvz-Wy9sUsb0b2QeoVcxyx4Lm3zYy3uC8RssDSAszCkvBnDLwcfsGcC4gkpBds-yzt7Pw2qibAYw5aYhTIztFwxfoVpI_96Y3pdadCamiSjQO7zRfCUIhO3rPgWq_572dH7Xthy81h8cADKcXxhzzpXrzH62tahkd5P3hvD4MxaW8_SyqNQ5y0Tz1_rJiokHwpq0jWLbJfFlPWvnnDXSK4B3gZYb3Yk7urJ2IdgcTkMFqVRLsYfimdRhLe419KfFRWwShSFuawANkMRPC5qI-T7CM0clmBdEd7-t6cRQEGROy7iBxw6DhdbpPGSVuLwxk4G_qSnT22aqedISunFgoF432fA35yH7_aeCazTQQZFyRS5tdOLIhifqE8j-JxEEJBL2gFriKpBKmM-YH3xR_BP03auF4L8o28ziZEk1VBi315IAS8e20zPYvKZd7bGLZaeSyip2KLC-T-UOZeTUbwH3s9pXlGd8A4u5--JluSJyUJk_7Tn_-Vry0OQUr3aISrvSJAr3_A-Llf-nJEDMh3-TkNcr__U3vV-WtzKCqEr0sBoI7KczBlANHhHEhgLDgiT82R3xSVdiMPSZhJn_knbRORPy-qXWOjtCz1UHYxmOpuQgxeyshffUTIHuNsKaMradRHF1ZgdRrIvh8WoXfoQrRI4K4gtA0gP7YQ4NERKRJmNxLEhLmiFPWKzk_GUkKzRu4UHTctIAUUfXfIQpBmIuG7EttxNKwD3UD-KyvhAPZaScSAIyQSBqgzHW-0Ku6gGOoCZUhsJgJBmquuORTyGrdj1AlPju7MIzJG5ejHiMZfbCXxUcy0QsFlexh1MKv5AhdHa4wHMD2YKSWrhKEUvsfpmhWLI_IR7EdkHdn2SzAbXYWcnA2iJPJLnH5jrHsfLygi3-GeADvHuM0j_H9abXiRiDTSUbUbfaMDb15S0N6MWfZLuUFkPOevLInwRtgFzLZG9Ig9uSZijC9ZM3IIert9rTGCs-nNxHu628RiyR6fvo8-D1NG7OhIXov8rNV4nStcxcxigtericObNZKDqEwRhF1yhd18lIdm3jTnsMUARxxhSDSUGl-pHIkHMcl1SmgeZQPlhU0fLJQ1ZAI5TgQfLfih4aqWeHMfXjs2kHo5JAK06v904IhwC4TYW45LPaBIJzeBody0?></g></svg>