<?plantuml 1.2026.2?><svg xmlns="http://www.w3.org/2000/svg" xmlns:xlink="http://www.w3.org/1999/xlink" contentStyleType="text/css" data-diagram-type="ACTIVITY" height="2365px" preserveAspectRatio="none" style="width:1262px;height:2365px;background:#FCFCFD;" version="1.1" viewBox="0 0 1262 2365" width="1262px" zoomAndPan="magnify"><title>Activity - oce/OceInstance</title><defs/><g><rect fill="#FCFCFD" height="2365" style="stroke:none;stroke-width:1;" width="1262" x="0" y="0"/><g class="title" data-source-line="10"><text fill="#000000" font-family="Helvetica" font-size="14" font-weight="bold" lengthAdjust="spacing" textLength="174.2891" x="542.6465" y="30.7803">Activity - oce/OceInstance</text></g><ellipse cx="669.399" cy="55" fill="#1D4ED8" rx="10" ry="10" style="stroke:#222222;stroke-width:1;"/><rect fill="none" height="444" rx="8" ry="8" style="stroke:#000000;stroke-width:1.5;" width="613.4858" x="386.7819" y="75"/><path d="M508.8502,75 L508.8502,82 L498.8502,92 L386.7819,92" fill="none" style="stroke:#000000;stroke-width:1.5;"/><text fill="#000000" font-family="Helvetica" font-size="14" lengthAdjust="spacing" textLength="112.0684" x="389.7819" y="86.7803">Observe and Bind</text><rect fill="#F8FAFC" height="48" rx="8" ry="8" style="stroke:#0F172A;stroke-width:0.5;" width="304.7852" x="517.0065" y="109"/><text fill="#0F172A" font-family="Helvetica" font-size="14" lengthAdjust="spacing" textLength="136.9375" x="527.0065" y="129.7803">Start from shared flow</text><text fill="#0F172A" font-family="Helvetica" font-size="14" lengthAdjust="spacing" textLength="284.7852" x="527.0065" y="143.7803">shared/diagrams/shared-reconcile-activity.svg</text><rect fill="#F8FAFC" height="48" rx="8" ry="8" style="stroke:#0F172A;stroke-width:0.5;" width="318.0469" x="510.3756" y="177"/><text fill="#0F172A" font-family="Helvetica" font-size="14" lengthAdjust="spacing" textLength="298.0469" x="520.3756" y="197.7803">Read desired OceInstance spec, tracked status,</text><text fill="#0F172A" font-family="Helvetica" font-size="14" lengthAdjust="spacing" textLength="103.5303" x="520.3756" y="211.7803">and delete intent</text><polygon fill="#E2E8F0" points="539.9332,245,798.8649,245,810.8649,257,798.8649,269,539.9332,269,527.9332,257,539.9332,245" style="stroke:#1D4ED8;stroke-width:0.5;"/><text fill="#0F172A" font-family="Helvetica" font-size="14" lengthAdjust="spacing" textLength="258.9316" x="539.9332" y="260.7803">"Tracked or explicit OCI identity present?"</text><text fill="#000000" font-family="Helvetica" font-size="14" lengthAdjust="spacing" textLength="21.7861" x="506.1471" y="253.7803">yes</text><text fill="#000000" font-family="Helvetica" font-size="14" lengthAdjust="spacing" textLength="15.5723" x="810.8649" y="253.7803">no</text><rect fill="#F8FAFC" height="48" rx="8" ry="8" style="stroke:#0F172A;stroke-width:0.5;" width="222.3027" x="406.7819" y="279"/><text fill="#0F172A" font-family="Helvetica" font-size="14" lengthAdjust="spacing" textLength="202.3027" x="416.7819" y="299.7803">Get the current OCI resource via</text><text fill="#0F172A" font-family="Helvetica" font-size="14" lengthAdjust="spacing" textLength="101.165" x="416.7819" y="313.7803">GetOceInstance</text><rect fill="#F8FAFC" height="62" rx="8" ry="8" style="stroke:#0F172A;stroke-width:0.5;" width="310.2402" x="665.7448" y="279"/><text fill="#0F172A" font-family="Helvetica" font-size="14" lengthAdjust="spacing" textLength="259.9092" x="675.7448" y="299.7803">Resolve an existing OCI resource through</text><text fill="#0F172A" font-family="Helvetica" font-size="14" lengthAdjust="spacing" textLength="290.2402" x="675.7448" y="313.7803">ListOceInstances using filters compartment_id,</text><text fill="#0F172A" font-family="Helvetica" font-size="14" lengthAdjust="spacing" textLength="200.0127" x="675.7448" y="327.7803">display_name, state, tenancy_id</text><rect fill="#F8FAFC" height="48" rx="8" ry="8" style="stroke:#0F172A;stroke-width:0.5;" width="318.8057" x="661.462" y="361"/><text fill="#0F172A" font-family="Helvetica" font-size="14" lengthAdjust="spacing" textLength="298.8057" x="671.462" y="381.7803">Create the OCI resource via CreateOceInstance</text><text fill="#0F172A" font-family="Helvetica" font-size="14" lengthAdjust="spacing" textLength="205.4609" x="671.462" y="395.7803">when no reusable match is found</text><rect fill="#F8FAFC" height="48" rx="8" ry="8" style="stroke:#0F172A;stroke-width:0.5;" width="286.8955" x="677.4171" y="429"/><text fill="#0F172A" font-family="Helvetica" font-size="14" lengthAdjust="spacing" textLength="266.8955" x="687.4171" y="449.7803">Persist the resolved or created OCI identity</text><text fill="#0F172A" font-family="Helvetica" font-size="14" lengthAdjust="spacing" textLength="63.8135" x="687.4171" y="463.7803">into status</text><polygon fill="#E2E8F0" points="669.399,483,681.399,495,669.399,507,657.399,495,669.399,483" style="stroke:#1D4ED8;stroke-width:0.5;"/><polygon fill="#E2E8F0" points="607.2228,539,731.5753,539,743.5753,551,731.5753,563,607.2228,563,595.2228,551,607.2228,539" style="stroke:#1D4ED8;stroke-width:0.5;"/><text fill="#0F172A" font-family="Helvetica" font-size="14" lengthAdjust="spacing" textLength="124.3525" x="607.2228" y="554.7803">"Delete requested?"</text><text fill="#000000" font-family="Helvetica" font-size="14" lengthAdjust="spacing" textLength="21.7861" x="573.4366" y="547.7803">yes</text><text fill="#000000" font-family="Helvetica" font-size="14" lengthAdjust="spacing" textLength="15.5723" x="743.5753" y="547.7803">no</text><rect fill="none" height="340" rx="8" ry="8" style="stroke:#000000;stroke-width:1.5;" width="644.4814" x="11" y="573"/><path d="M61.4688,573 L61.4688,580 L51.4688,590 L11,590" fill="none" style="stroke:#000000;stroke-width:1.5;"/><text fill="#000000" font-family="Helvetica" font-size="14" lengthAdjust="spacing" textLength="40.4688" x="14" y="584.7803">Delete</text><rect fill="#F8FAFC" height="62" rx="8" ry="8" style="stroke:#0F172A;stroke-width:0.5;" width="291.5576" x="193.9653" y="607"/><text fill="#0F172A" font-family="Helvetica" font-size="14" lengthAdjust="spacing" textLength="256.8125" x="203.9653" y="627.7803">Delete path uses DeleteOceInstance with</text><text fill="#0F172A" font-family="Helvetica" font-size="14" lengthAdjust="spacing" textLength="194.5439" x="203.9653" y="641.7803">required via GetOceInstance or</text><text fill="#0F172A" font-family="Helvetica" font-size="14" lengthAdjust="spacing" textLength="271.5576" x="203.9653" y="655.7803">ListOceInstances to DELETED confirmation</text><rect fill="#F8FAFC" height="48" rx="8" ry="8" style="stroke:#0F172A;stroke-width:0.5;" width="307.8955" x="185.7964" y="704"/><text fill="#0F172A" font-family="Helvetica" font-size="14" lengthAdjust="spacing" textLength="245.1162" x="195.7964" y="724.7803">Confirm deletion via GetOceInstance or</text><text fill="#0F172A" font-family="Helvetica" font-size="14" lengthAdjust="spacing" textLength="287.8955" x="195.7964" y="738.7803">ListOceInstances until OCI reaches DELETED</text><polygon fill="#E2E8F0" points="191.5718,781,487.9165,781,499.9165,793,487.9165,805,191.5718,805,179.5718,793,191.5718,781" style="stroke:#1D4ED8;stroke-width:0.5;"/><text fill="#0F172A" font-family="Helvetica" font-size="14" lengthAdjust="spacing" textLength="296.3447" x="191.5718" y="796.7803">"Delete cleanup and finalizer release succeed?"</text><text fill="#000000" font-family="Helvetica" font-size="14" lengthAdjust="spacing" textLength="21.7861" x="157.7856" y="789.7803">yes</text><text fill="#000000" font-family="Helvetica" font-size="14" lengthAdjust="spacing" textLength="15.5723" x="499.9165" y="789.7803">no</text><rect fill="#F8FAFC" height="34" rx="8" ry="8" style="stroke:#0F172A;stroke-width:0.5;" width="293.1436" x="23" y="815"/><text fill="#0F172A" font-family="Helvetica" font-size="14" lengthAdjust="spacing" textLength="273.1436" x="33" y="835.7803">Remove the finalizer after delete completion</text><rect fill="#F8FAFC" height="48" rx="8" ry="8" style="stroke:#0F172A;stroke-width:0.5;" width="251.1299" x="384.3516" y="815"/><text fill="#0F172A" font-family="Helvetica" font-size="14" lengthAdjust="spacing" textLength="231.1299" x="394.3516" y="835.7803">Stay blocked until cleanup or finalizer</text><text fill="#0F172A" font-family="Helvetica" font-size="14" lengthAdjust="spacing" textLength="108.9512" x="394.3516" y="849.7803">release succeeds</text><polygon fill="#E2E8F0" points="339.7441,869,351.7441,881,339.7441,893,327.7441,881,339.7441,869" style="stroke:#1D4ED8;stroke-width:0.5;"/><ellipse cx="339.7441" cy="950.5" fill="none" rx="11" ry="11" style="stroke:#222222;stroke-width:1;"/><ellipse cx="339.7441" cy="950.5" fill="#222222" rx="6" ry="6" style="stroke:#222222;stroke-width:1;"/><rect fill="none" height="427.5" rx="8" ry="8" style="stroke:#000000;stroke-width:1.5;" width="392.5713" x="808.7683" y="573"/><path d="M959.6023,573 L959.6023,580 L949.6023,590 L808.7683,590" fill="none" style="stroke:#000000;stroke-width:1.5;"/><text fill="#000000" font-family="Helvetica" font-size="14" lengthAdjust="spacing" textLength="140.834" x="811.7683" y="584.7803">Lifecycle Classification</text><rect fill="#F8FAFC" height="48" rx="8" ry="8" style="stroke:#0F172A;stroke-width:0.5;" width="340.5713" x="828.7683" y="656"/><text fill="#0F172A" font-family="Helvetica" font-size="14" lengthAdjust="spacing" textLength="320.5713" x="838.7683" y="676.7803">Request requeue while OCI remains in CREATING,</text><text fill="#0F172A" font-family="Helvetica" font-size="14" lengthAdjust="spacing" textLength="150.1309" x="838.7683" y="690.7803">UPDATING, DELETING</text><ellipse cx="999.054" cy="750" fill="none" rx="11" ry="11" style="stroke:#222222;stroke-width:1;"/><ellipse cx="999.054" cy="750" fill="#222222" rx="6" ry="6" style="stroke:#222222;stroke-width:1;"/><polygon fill="#E2E8F0" points="912.7708,607,1085.3372,607,1097.3372,619,1085.3372,631,912.7708,631,900.7708,619,912.7708,607" style="stroke:#1D4ED8;stroke-width:0.5;"/><text fill="#000000" font-family="Helvetica" font-size="14" lengthAdjust="spacing" textLength="21.7861" x="1003.054" y="641.7803">yes</text><text fill="#0F172A" font-family="Helvetica" font-size="14" lengthAdjust="spacing" textLength="172.5664" x="912.7708" y="622.7803">"OCI state in retryable set?"</text><rect fill="#F8FAFC" height="48" rx="8" ry="8" style="stroke:#0F172A;stroke-width:0.5;" width="293.916" x="852.0959" y="870"/><text fill="#0F172A" font-family="Helvetica" font-size="14" lengthAdjust="spacing" textLength="273.916" x="862.0959" y="890.7803">Return an unsuccessful reconcile result until</text><text fill="#0F172A" font-family="Helvetica" font-size="14" lengthAdjust="spacing" textLength="133.041" x="862.0959" y="904.7803">OCI reaches ACTIVE</text><ellipse cx="999.054" cy="955.5" fill="none" rx="11" ry="11" style="stroke:#222222;stroke-width:1;"/><ellipse cx="999.054" cy="955.5" fill="#222222" rx="6" ry="6" style="stroke:#222222;stroke-width:1;"/><polygon fill="#E2E8F0" points="878.533,821,1119.575,821,1131.575,833,1119.575,845,878.533,845,866.533,833,878.533,821" style="stroke:#1D4ED8;stroke-width:0.5;"/><text fill="#000000" font-family="Helvetica" font-size="14" lengthAdjust="spacing" textLength="21.7861" x="1003.054" y="855.7803">yes</text><text fill="#0F172A" font-family="Helvetica" font-size="14" lengthAdjust="spacing" textLength="241.042" x="878.533" y="836.7803">"OCI state is outside success targets?"</text><rect fill="none" height="833" rx="8" ry="8" style="stroke:#000000;stroke-width:1.5;" width="576.1006" x="675.4814" y="1010.5"/><path d="M841.9014,1010.5 L841.9014,1017.5 L831.9014,1027.5 L675.4814,1027.5" fill="none" style="stroke:#000000;stroke-width:1.5;"/><text fill="#000000" font-family="Helvetica" font-size="14" lengthAdjust="spacing" textLength="156.4199" x="678.4814" y="1022.2803">Ready and Drift Handling</text><rect fill="#F8FAFC" height="48" rx="8" ry="8" style="stroke:#0F172A;stroke-width:0.5;" width="296.2402" x="850.9338" y="1044.5"/><text fill="#0F172A" font-family="Helvetica" font-size="14" lengthAdjust="spacing" textLength="276.2402" x="860.9338" y="1065.2803">Compare live OCI state against the imported</text><text fill="#0F172A" font-family="Helvetica" font-size="14" lengthAdjust="spacing" textLength="75.4824" x="860.9338" y="1079.2803">field surface</text><rect fill="#F8FAFC" height="76" rx="8" ry="8" style="stroke:#0F172A;stroke-width:0.5;" width="302.4473" x="847.8303" y="1161.5"/><text fill="#0F172A" font-family="Helvetica" font-size="14" lengthAdjust="spacing" textLength="282.4473" x="857.8303" y="1182.2803">Reject drift before OCI mutation for force-new</text><text fill="#0F172A" font-family="Helvetica" font-size="14" lengthAdjust="spacing" textLength="245.9023" x="857.8303" y="1196.2803">fields admin_email, idcs_access_token,</text><text fill="#0F172A" font-family="Helvetica" font-size="14" lengthAdjust="spacing" textLength="181.3096" x="857.8303" y="1210.2803">identity_stripe.service_name,</text><text fill="#0F172A" font-family="Helvetica" font-size="14" lengthAdjust="spacing" textLength="204.2646" x="857.8303" y="1224.2803">identity_stripe.tenancy (+6 more)</text><ellipse cx="999.054" cy="1268.5" fill="none" rx="11" ry="11" style="stroke:#222222;stroke-width:1;"/><ellipse cx="999.054" cy="1268.5" fill="#222222" rx="6" ry="6" style="stroke:#222222;stroke-width:1;"/><polygon fill="#E2E8F0" points="873.4709,1112.5,1124.637,1112.5,1136.637,1124.5,1124.637,1136.5,873.4709,1136.5,861.4709,1124.5,873.4709,1112.5" style="stroke:#1D4ED8;stroke-width:0.5;"/><text fill="#000000" font-family="Helvetica" font-size="14" lengthAdjust="spacing" textLength="21.7861" x="1003.054" y="1147.2803">yes</text><text fill="#0F172A" font-family="Helvetica" font-size="14" lengthAdjust="spacing" textLength="251.166" x="873.4709" y="1128.2803">"Force-new or conflicting drift detected?"</text><polygon fill="#E2E8F0" points="888.6262,1321.5,1109.4817,1321.5,1121.4817,1333.5,1109.4817,1345.5,888.6262,1345.5,876.6262,1333.5,888.6262,1321.5" style="stroke:#1D4ED8;stroke-width:0.5;"/><text fill="#0F172A" font-family="Helvetica" font-size="14" lengthAdjust="spacing" textLength="220.8555" x="888.6262" y="1337.2803">"Supported mutable drift detected?"</text><text fill="#000000" font-family="Helvetica" font-size="14" lengthAdjust="spacing" textLength="21.7861" x="854.8401" y="1330.2803">yes</text><text fill="#000000" font-family="Helvetica" font-size="14" lengthAdjust="spacing" textLength="15.5723" x="1121.4817" y="1330.2803">no</text><rect fill="#F8FAFC" height="76" rx="8" ry="8" style="stroke:#0F172A;stroke-width:0.5;" width="325.0947" x="695.4814" y="1355.5"/><text fill="#0F172A" font-family="Helvetica" font-size="14" lengthAdjust="spacing" textLength="255.2471" x="705.4814" y="1376.2803">Apply ChangeOceInstanceCompartment,</text><text fill="#0F172A" font-family="Helvetica" font-size="14" lengthAdjust="spacing" textLength="263.8125" x="705.4814" y="1390.2803">UpdateOceInstance only for mutable fields</text><text fill="#0F172A" font-family="Helvetica" font-size="14" lengthAdjust="spacing" textLength="305.0947" x="705.4814" y="1404.2803">add_on_features, compartment_id, defined_tags,</text><text fill="#0F172A" font-family="Helvetica" font-size="14" lengthAdjust="spacing" textLength="132.665" x="705.4814" y="1418.2803">description (+6 more)</text><rect fill="#F8FAFC" height="34" rx="8" ry="8" style="stroke:#0F172A;stroke-width:0.5;" width="199.0059" x="1040.5762" y="1355.5"/><text fill="#0F172A" font-family="Helvetica" font-size="14" lengthAdjust="spacing" textLength="179.0059" x="1050.5762" y="1376.2803">Skip the no-op mutation path</text><polygon fill="#E2E8F0" points="999.054,1437.5,1011.054,1449.5,999.054,1461.5,987.054,1449.5,999.054,1437.5" style="stroke:#1D4ED8;stroke-width:0.5;"/><rect fill="#F8FAFC" height="174" rx="8" ry="8" style="stroke:#0F172A;stroke-width:0.5;" width="334.3164" x="831.8958" y="1481.5"/><text fill="#0F172A" font-family="Helvetica" font-size="14" lengthAdjust="spacing" textLength="164.2061" x="841.8958" y="1502.2803">Run provider helper hooks</text><text fill="#0F172A" font-family="Helvetica" font-size="14" lengthAdjust="spacing" textLength="219.0508" x="841.8958" y="1516.2803">create=tfresource.CreateResource,</text><text fill="#0F172A" font-family="Helvetica" font-size="14" lengthAdjust="spacing" textLength="314.3164" x="841.8958" y="1530.2803">tfresource.WaitForWorkRequestWithErrorHandling</text><text fill="#0F172A" font-family="Helvetica" font-size="14" lengthAdjust="spacing" textLength="236.5645" x="841.8958" y="1544.2803">entity=oceinstance action=CREATED;</text><text fill="#0F172A" font-family="Helvetica" font-size="14" lengthAdjust="spacing" textLength="226.085" x="841.8958" y="1558.2803">update=tfresource.UpdateResource,</text><text fill="#0F172A" font-family="Helvetica" font-size="14" lengthAdjust="spacing" textLength="314.3164" x="841.8958" y="1572.2803">tfresource.WaitForWorkRequestWithErrorHandling</text><text fill="#0F172A" font-family="Helvetica" font-size="14" lengthAdjust="spacing" textLength="236.5645" x="841.8958" y="1586.2803">entity=oceinstance action=UPDATED;</text><text fill="#0F172A" font-family="Helvetica" font-size="14" lengthAdjust="spacing" textLength="216.7334" x="841.8958" y="1600.2803">delete=tfresource.DeleteResource,</text><text fill="#0F172A" font-family="Helvetica" font-size="14" lengthAdjust="spacing" textLength="314.3164" x="841.8958" y="1614.2803">tfresource.WaitForWorkRequestWithErrorHandling</text><text fill="#0F172A" font-family="Helvetica" font-size="14" lengthAdjust="spacing" textLength="291.0605" x="841.8958" y="1628.2803">entity=oceinstance action=DELETED when the</text><text fill="#0F172A" font-family="Helvetica" font-size="14" lengthAdjust="spacing" textLength="220.2334" x="841.8958" y="1642.2803">matching field-driven path executes</text><rect fill="#F8FAFC" height="34" rx="8" ry="8" style="stroke:#0F172A;stroke-width:0.5;" width="303.2197" x="847.4441" y="1675.5"/><text fill="#0F172A" font-family="Helvetica" font-size="14" lengthAdjust="spacing" textLength="283.2197" x="857.4441" y="1696.2803">Return success for the ACTIVE success state</text><rect fill="#F8FAFC" height="48" rx="8" ry="8" style="stroke:#0F172A;stroke-width:0.5;" width="279.1299" x="859.489" y="1729.5"/><text fill="#0F172A" font-family="Helvetica" font-size="14" lengthAdjust="spacing" textLength="259.1299" x="869.489" y="1750.2803">Project required status and finalizer policy</text><text fill="#0F172A" font-family="Helvetica" font-size="14" lengthAdjust="spacing" textLength="174.3027" x="869.489" y="1764.2803">retain-until-confirmed-delete</text><rect fill="#F8FAFC" height="34" rx="8" ry="8" style="stroke:#0F172A;stroke-width:0.5;" width="313.4189" x="842.3445" y="1797.5"/><text fill="#0F172A" font-family="Helvetica" font-size="14" lengthAdjust="spacing" textLength="293.4189" x="852.3445" y="1818.2803">Requeue on provisioning, updating, terminating</text><path d="M700.399,1853.5 L700.399,2099.5 L680.399,2103.5 L700.399,2107.5 L700.399,2353.5 A0,0 0 0 0 700.399,2353.5 L1029.5699,2353.5 A0,0 0 0 0 1029.5699,2353.5 L1029.5699,1863.5 L1019.5699,1853.5 L700.399,1853.5 A0,0 0 0 0 700.399,1853.5" fill="#FFF7D6" style="stroke:#B45309;stroke-width:0.5;"/><path d="M1019.5699,1853.5 L1019.5699,1863.5 L1029.5699,1863.5 L1019.5699,1853.5" fill="#FFF7D6" style="stroke:#B45309;stroke-width:0.5;"/><text fill="#334155" font-family="Helvetica" font-size="14" lengthAdjust="spacing" textLength="101.165" x="706.399" y="1869.2803">shared diagram:</text><text fill="#334155" font-family="Helvetica" font-size="14" lengthAdjust="spacing" textLength="284.7852" x="706.399" y="1883.2803">shared/diagrams/shared-reconcile-activity.svg</text><text fill="#334155" font-family="Helvetica" font-size="14" lengthAdjust="spacing" textLength="265.3438" x="706.399" y="1897.2803">Start from the shared reconcile activity and</text><text fill="#334155" font-family="Helvetica" font-size="14" lengthAdjust="spacing" textLength="273.8955" x="706.399" y="1911.2803">specialize provider-backed CRUD, wait, and</text><text fill="#334155" font-family="Helvetica" font-size="14" lengthAdjust="spacing" textLength="182.875" x="706.399" y="1925.2803">status-projection details here.</text><text fill="#334155" font-family="Helvetica" font-size="14" lengthAdjust="spacing" textLength="229.5371" x="706.399" y="1939.2803">Controller-local activity diagrams add</text><text fill="#334155" font-family="Helvetica" font-size="14" lengthAdjust="spacing" textLength="238.8955" x="706.399" y="1953.2803">list-lookup hints, secret policies, delete</text><text fill="#334155" font-family="Helvetica" font-size="14" lengthAdjust="spacing" textLength="200.0332" x="706.399" y="1967.2803">handling, and open formal gaps.</text><text fill="#334155" font-family="Helvetica" font-size="14" lengthAdjust="spacing" textLength="281.709" x="706.399" y="1981.2803">archetype batch: Generated service-manager</text><text fill="#334155" font-family="Helvetica" font-size="14" lengthAdjust="spacing" textLength="291.0469" x="706.399" y="1995.2803">controllers specialize the shared reconcile path</text><text fill="#334155" font-family="Helvetica" font-size="14" lengthAdjust="spacing" textLength="189.8477" x="706.399" y="2009.2803">with formal runtime ownership.</text><text fill="#334155" font-family="Helvetica" font-size="14" lengthAdjust="spacing" textLength="74.6963" x="706.399" y="2023.2803">service: oce</text><text fill="#334155" font-family="Helvetica" font-size="14" lengthAdjust="spacing" textLength="108.1787" x="706.399" y="2037.2803">slug: oceinstance</text><text fill="#334155" font-family="Helvetica" font-size="14" lengthAdjust="spacing" textLength="112.0615" x="706.399" y="2051.2803">kind: OceInstance</text><text fill="#334155" font-family="Helvetica" font-size="14" lengthAdjust="spacing" textLength="241.2402" x="706.399" y="2065.2803">archetype: generated-service-manager</text><text fill="#334155" font-family="Helvetica" font-size="14" lengthAdjust="spacing" textLength="156.4063" x="706.399" y="2079.2803">status/finalizer: required /</text><text fill="#334155" font-family="Helvetica" font-size="14" lengthAdjust="spacing" textLength="174.3027" x="706.399" y="2093.2803">retain-until-confirmed-delete</text><text fill="#334155" font-family="Helvetica" font-size="14" lengthAdjust="spacing" textLength="272.3984" x="706.399" y="2107.2803">requeue: provisioning, updating, terminating</text><text fill="#334155" font-family="Helvetica" font-size="14" lengthAdjust="spacing" textLength="265.3369" x="706.399" y="2121.2803">provider states: create CREATING; update</text><text fill="#334155" font-family="Helvetica" font-size="14" lengthAdjust="spacing" textLength="192.165" x="706.399" y="2135.2803">UPDATING; delete DELETING</text><text fill="#334155" font-family="Helvetica" font-size="14" lengthAdjust="spacing" textLength="206.2539" x="706.399" y="2149.2803">supported drift: add_on_features,</text><text fill="#334155" font-family="Helvetica" font-size="14" lengthAdjust="spacing" textLength="288.333" x="706.399" y="2163.2803">compartment_id, defined_tags, description (+6</text><text fill="#334155" font-family="Helvetica" font-size="14" lengthAdjust="spacing" textLength="36.5586" x="706.399" y="2177.2803">more)</text><text fill="#334155" font-family="Helvetica" font-size="14" lengthAdjust="spacing" textLength="230.3301" x="706.399" y="2191.2803">reject before mutate: force-new fields</text><text fill="#334155" font-family="Helvetica" font-size="14" lengthAdjust="spacing" textLength="209.3301" x="706.399" y="2205.2803">admin_email, idcs_access_token,</text><text fill="#334155" font-family="Helvetica" font-size="14" lengthAdjust="spacing" textLength="181.3096" x="706.399" y="2219.2803">identity_stripe.service_name,</text><text fill="#334155" font-family="Helvetica" font-size="14" lengthAdjust="spacing" textLength="204.2646" x="706.399" y="2233.2803">identity_stripe.tenancy (+6 more)</text><text fill="#334155" font-family="Helvetica" font-size="14" lengthAdjust="spacing" textLength="144.751" x="706.399" y="2247.2803">create-only fields: none</text><text fill="#334155" font-family="Helvetica" font-size="14" lengthAdjust="spacing" textLength="252.916" x="706.399" y="2261.2803">list lookup: oci_oce_oce_instances filters</text><text fill="#334155" font-family="Helvetica" font-size="14" lengthAdjust="spacing" textLength="308.1709" x="706.399" y="2275.2803">compartment_id, display_name, state, tenancy_id</text><text fill="#334155" font-family="Helvetica" font-size="14" lengthAdjust="spacing" textLength="89.4961" x="706.399" y="2289.2803">conflicts: none</text><text fill="#334155" font-family="Helvetica" font-size="14" lengthAdjust="spacing" textLength="104.3164" x="706.399" y="2303.2803">open gaps: none</text><text fill="#334155" font-family="Helvetica" font-size="14" lengthAdjust="spacing" textLength="224.9023" x="706.399" y="2317.2803">Scaffold metadata only; replace with</text><text fill="#334155" font-family="Helvetica" font-size="14" lengthAdjust="spacing" textLength="244.3232" x="706.399" y="2331.2803">controller-specific runtime states before</text><text fill="#334155" font-family="Helvetica" font-size="14" lengthAdjust="spacing" textLength="66.1445" x="706.399" y="2345.2803">promotion.</text><ellipse cx="669.399" cy="2103.5" fill="none" rx="11" ry="11" style="stroke:#222222;stroke-width:1;"/><ellipse cx="669.399" cy="2103.5" fill="#222222" rx="6" ry="6" style="stroke:#222222;stroke-width:1;"/><line style="stroke:#0F172A;stroke-width:1;" x1="669.399" x2="669.399" y1="157" y2="177"/><polygon fill="#0F172A" points="665.399,167,669.399,177,673.399,167,669.399,171" style="stroke:#0F172A;stroke-width:1;"/><line style="stroke:#0F172A;stroke-width:1;" x1="820.8649" x2="820.8649" y1="341" y2="361"/><polygon fill="#0F172A" points="816.8649,351,820.8649,361,824.8649,351,820.8649,355" style="stroke:#0F172A;stroke-width:1;"/><line style="stroke:#0F172A;stroke-width:1;" x1="820.8649" x2="820.8649" y1="409" y2="429"/><polygon fill="#0F172A" points="816.8649,419,820.8649,429,824.8649,419,820.8649,423" style="stroke:#0F172A;stroke-width:1;"/><line style="stroke:#0F172A;stroke-width:1;" x1="527.9332" x2="517.9332" y1="257" y2="257"/><line style="stroke:#0F172A;stroke-width:1;" x1="517.9332" x2="517.9332" y1="257" y2="279"/><polygon fill="#0F172A" points="513.9332,269,517.9332,279,521.9332,269,517.9332,273" style="stroke:#0F172A;stroke-width:1;"/><line style="stroke:#0F172A;stroke-width:1;" x1="810.8649" x2="820.8649" y1="257" y2="257"/><line style="stroke:#0F172A;stroke-width:1;" x1="820.8649" x2="820.8649" y1="257" y2="279"/><polygon fill="#0F172A" points="816.8649,269,820.8649,279,824.8649,269,820.8649,273" style="stroke:#0F172A;stroke-width:1;"/><line style="stroke:#0F172A;stroke-width:1;" x1="517.9332" x2="517.9332" y1="327" y2="495"/><line style="stroke:#0F172A;stroke-width:1;" x1="517.9332" x2="657.399" y1="495" y2="495"/><polygon fill="#0F172A" points="647.399,491,657.399,495,647.399,499,651.399,495" style="stroke:#0F172A;stroke-width:1;"/><line style="stroke:#0F172A;stroke-width:1;" x1="820.8649" x2="820.8649" y1="477" y2="495"/><line style="stroke:#0F172A;stroke-width:1;" x1="820.8649" x2="681.399" y1="495" y2="495"/><polygon fill="#0F172A" points="691.399,491,681.399,495,691.399,499,687.399,495" style="stroke:#0F172A;stroke-width:1;"/><line style="stroke:#0F172A;stroke-width:1;" x1="669.399" x2="669.399" y1="225" y2="245"/><polygon fill="#0F172A" points="665.399,235,669.399,245,673.399,235,669.399,239" style="stroke:#0F172A;stroke-width:1;"/><line style="stroke:#0F172A;stroke-width:1;" x1="669.399" x2="669.399" y1="65" y2="109"/><polygon fill="#0F172A" points="665.399,99,669.399,109,673.399,99,669.399,103" style="stroke:#0F172A;stroke-width:1;"/><line style="stroke:#0F172A;stroke-width:1;" x1="339.7441" x2="339.7441" y1="669" y2="704"/><polygon fill="#0F172A" points="335.7441,694,339.7441,704,343.7441,694,339.7441,698" style="stroke:#0F172A;stroke-width:1;"/><line style="stroke:#0F172A;stroke-width:1;" x1="179.5718" x2="169.5718" y1="793" y2="793"/><line style="stroke:#0F172A;stroke-width:1;" x1="169.5718" x2="169.5718" y1="793" y2="815"/><polygon fill="#0F172A" points="165.5718,805,169.5718,815,173.5718,805,169.5718,809" style="stroke:#0F172A;stroke-width:1;"/><line style="stroke:#0F172A;stroke-width:1;" x1="499.9165" x2="509.9165" y1="793" y2="793"/><line style="stroke:#0F172A;stroke-width:1;" x1="509.9165" x2="509.9165" y1="793" y2="815"/><polygon fill="#0F172A" points="505.9165,805,509.9165,815,513.9165,805,509.9165,809" style="stroke:#0F172A;stroke-width:1;"/><line style="stroke:#0F172A;stroke-width:1;" x1="169.5718" x2="169.5718" y1="849" y2="881"/><line style="stroke:#0F172A;stroke-width:1;" x1="169.5718" x2="327.7441" y1="881" y2="881"/><polygon fill="#0F172A" points="317.7441,877,327.7441,881,317.7441,885,321.7441,881" style="stroke:#0F172A;stroke-width:1;"/><line style="stroke:#0F172A;stroke-width:1;" x1="509.9165" x2="509.9165" y1="863" y2="881"/><line style="stroke:#0F172A;stroke-width:1;" x1="509.9165" x2="351.7441" y1="881" y2="881"/><polygon fill="#0F172A" points="361.7441,877,351.7441,881,361.7441,885,357.7441,881" style="stroke:#0F172A;stroke-width:1;"/><line style="stroke:#0F172A;stroke-width:1;" x1="339.7441" x2="339.7441" y1="752" y2="781"/><polygon fill="#0F172A" points="335.7441,771,339.7441,781,343.7441,771,339.7441,775" style="stroke:#0F172A;stroke-width:1;"/><line style="stroke:#0F172A;stroke-width:1;" x1="339.7441" x2="339.7441" y1="893" y2="939.5"/><polygon fill="#0F172A" points="335.7441,929.5,339.7441,939.5,343.7441,929.5,339.7441,933.5" style="stroke:#0F172A;stroke-width:1;"/><line style="stroke:#0F172A;stroke-width:1;" x1="999.054" x2="999.054" y1="704" y2="739"/><polygon fill="#0F172A" points="995.054,729,999.054,739,1003.054,729,999.054,733" style="stroke:#0F172A;stroke-width:1;"/><line style="stroke:#0F172A;stroke-width:1;" x1="999.054" x2="999.054" y1="631" y2="656"/><polygon fill="#0F172A" points="995.054,646,999.054,656,1003.054,646,999.054,650" style="stroke:#0F172A;stroke-width:1;"/><line style="stroke:#0F172A;stroke-width:1;" x1="1097.3372" x2="1179.3396" y1="619" y2="619"/><polygon fill="#0F172A" points="1175.3396,695.5,1179.3396,705.5,1183.3396,695.5,1179.3396,699.5" style="stroke:#0F172A;stroke-width:1;"/><line style="stroke:#0F172A;stroke-width:1;" x1="1179.3396" x2="1179.3396" y1="619" y2="786"/><line style="stroke:#0F172A;stroke-width:1;" x1="1179.3396" x2="999.054" y1="786" y2="786"/><line style="stroke:#0F172A;stroke-width:1;" x1="999.054" x2="999.054" y1="786" y2="821"/><polygon fill="#0F172A" points="995.054,811,999.054,821,1003.054,811,999.054,815" style="stroke:#0F172A;stroke-width:1;"/><line style="stroke:#0F172A;stroke-width:1;" x1="999.054" x2="999.054" y1="918" y2="944.5"/><polygon fill="#0F172A" points="995.054,934.5,999.054,944.5,1003.054,934.5,999.054,938.5" style="stroke:#0F172A;stroke-width:1;"/><line style="stroke:#0F172A;stroke-width:1;" x1="999.054" x2="999.054" y1="845" y2="870"/><polygon fill="#0F172A" points="995.054,860,999.054,870,1003.054,860,999.054,864" style="stroke:#0F172A;stroke-width:1;"/><line style="stroke:#0F172A;stroke-width:1;" x1="1131.575" x2="1156.012" y1="833" y2="833"/><polygon fill="#0F172A" points="1152.012,909.5,1156.012,919.5,1160.012,909.5,1156.012,913.5" style="stroke:#0F172A;stroke-width:1;"/><line style="stroke:#0F172A;stroke-width:1;" x1="1156.012" x2="1156.012" y1="833" y2="988.5"/><line style="stroke:#0F172A;stroke-width:1;" x1="1156.012" x2="999.054" y1="988.5" y2="988.5"/><line style="stroke:#0F172A;stroke-width:1;" x1="999.054" x2="999.054" y1="988.5" y2="1044.5"/><polygon fill="#0F172A" points="995.054,1034.5,999.054,1044.5,1003.054,1034.5,999.054,1038.5" style="stroke:#0F172A;stroke-width:1;"/><line style="stroke:#0F172A;stroke-width:1;" x1="999.054" x2="999.054" y1="1237.5" y2="1257.5"/><polygon fill="#0F172A" points="995.054,1247.5,999.054,1257.5,1003.054,1247.5,999.054,1251.5" style="stroke:#0F172A;stroke-width:1;"/><line style="stroke:#0F172A;stroke-width:1;" x1="999.054" x2="999.054" y1="1136.5" y2="1161.5"/><polygon fill="#0F172A" points="995.054,1151.5,999.054,1161.5,1003.054,1151.5,999.054,1155.5" style="stroke:#0F172A;stroke-width:1;"/><line style="stroke:#0F172A;stroke-width:1;" x1="1136.637" x2="1160.2776" y1="1124.5" y2="1124.5"/><polygon fill="#0F172A" points="1156.2776,1215,1160.2776,1225,1164.2776,1215,1160.2776,1219" style="stroke:#0F172A;stroke-width:1;"/><line style="stroke:#0F172A;stroke-width:1;" x1="1160.2776" x2="1160.2776" y1="1124.5" y2="1301.5"/><line style="stroke:#0F172A;stroke-width:1;" x1="1160.2776" x2="999.054" y1="1301.5" y2="1301.5"/><line style="stroke:#0F172A;stroke-width:1;" x1="999.054" x2="999.054" y1="1301.5" y2="1321.5"/><polygon fill="#0F172A" points="995.054,1311.5,999.054,1321.5,1003.054,1311.5,999.054,1315.5" style="stroke:#0F172A;stroke-width:1;"/><line style="stroke:#0F172A;stroke-width:1;" x1="999.054" x2="999.054" y1="1092.5" y2="1112.5"/><polygon fill="#0F172A" points="995.054,1102.5,999.054,1112.5,1003.054,1102.5,999.054,1106.5" style="stroke:#0F172A;stroke-width:1;"/><line style="stroke:#0F172A;stroke-width:1;" x1="876.6262" x2="858.0288" y1="1333.5" y2="1333.5"/><line style="stroke:#0F172A;stroke-width:1;" x1="858.0288" x2="858.0288" y1="1333.5" y2="1355.5"/><polygon fill="#0F172A" points="854.0288,1345.5,858.0288,1355.5,862.0288,1345.5,858.0288,1349.5" style="stroke:#0F172A;stroke-width:1;"/><line style="stroke:#0F172A;stroke-width:1;" x1="1121.4817" x2="1140.0791" y1="1333.5" y2="1333.5"/><line style="stroke:#0F172A;stroke-width:1;" x1="1140.0791" x2="1140.0791" y1="1333.5" y2="1355.5"/><polygon fill="#0F172A" points="1136.0791,1345.5,1140.0791,1355.5,1144.0791,1345.5,1140.0791,1349.5" style="stroke:#0F172A;stroke-width:1;"/><line style="stroke:#0F172A;stroke-width:1;" x1="858.0288" x2="858.0288" y1="1431.5" y2="1449.5"/><line style="stroke:#0F172A;stroke-width:1;" x1="858.0288" x2="987.054" y1="1449.5" y2="1449.5"/><polygon fill="#0F172A" points="977.054,1445.5,987.054,1449.5,977.054,1453.5,981.054,1449.5" style="stroke:#0F172A;stroke-width:1;"/><line style="stroke:#0F172A;stroke-width:1;" x1="1140.0791" x2="1140.0791" y1="1389.5" y2="1449.5"/><line style="stroke:#0F172A;stroke-width:1;" x1="1140.0791" x2="1011.054" y1="1449.5" y2="1449.5"/><polygon fill="#0F172A" points="1021.054,1445.5,1011.054,1449.5,1021.054,1453.5,1017.054,1449.5" style="stroke:#0F172A;stroke-width:1;"/><line style="stroke:#0F172A;stroke-width:1;" x1="999.054" x2="999.054" y1="1461.5" y2="1481.5"/><polygon fill="#0F172A" points="995.054,1471.5,999.054,1481.5,1003.054,1471.5,999.054,1475.5" style="stroke:#0F172A;stroke-width:1;"/><line style="stroke:#0F172A;stroke-width:1;" x1="999.054" x2="999.054" y1="1655.5" y2="1675.5"/><polygon fill="#0F172A" points="995.054,1665.5,999.054,1675.5,1003.054,1665.5,999.054,1669.5" style="stroke:#0F172A;stroke-width:1;"/><line style="stroke:#0F172A;stroke-width:1;" x1="999.054" x2="999.054" y1="1709.5" y2="1729.5"/><polygon fill="#0F172A" points="995.054,1719.5,999.054,1729.5,1003.054,1719.5,999.054,1723.5" style="stroke:#0F172A;stroke-width:1;"/><line style="stroke:#0F172A;stroke-width:1;" x1="999.054" x2="999.054" y1="1777.5" y2="1797.5"/><polygon fill="#0F172A" points="995.054,1787.5,999.054,1797.5,1003.054,1787.5,999.054,1791.5" style="stroke:#0F172A;stroke-width:1;"/><line style="stroke:#0F172A;stroke-width:1;" x1="595.2228" x2="339.7441" y1="551" y2="551"/><line style="stroke:#0F172A;stroke-width:1;" x1="339.7441" x2="339.7441" y1="551" y2="607"/><polygon fill="#0F172A" points="335.7441,597,339.7441,607,343.7441,597,339.7441,601" style="stroke:#0F172A;stroke-width:1;"/><line style="stroke:#0F172A;stroke-width:1;" x1="743.5753" x2="999.054" y1="551" y2="551"/><line style="stroke:#0F172A;stroke-width:1;" x1="999.054" x2="999.054" y1="551" y2="607"/><polygon fill="#0F172A" points="995.054,597,999.054,607,1003.054,597,999.054,601" style="stroke:#0F172A;stroke-width:1;"/><line style="stroke:#0F172A;stroke-width:1;" x1="999.054" x2="999.054" y1="1831.5" y2="1848.5"/><line style="stroke:#0F172A;stroke-width:1;" x1="999.054" x2="669.399" y1="1848.5" y2="1848.5"/><line style="stroke:#0F172A;stroke-width:1;" x1="669.399" x2="669.399" y1="1848.5" y2="2092.5"/><polygon fill="#0F172A" points="665.399,2082.5,669.399,2092.5,673.399,2082.5,669.399,2086.5" style="stroke:#0F172A;stroke-width:1;"/><line style="stroke:#0F172A;stroke-width:1;" x1="669.399" x2="669.399" y1="507" y2="539"/><polygon fill="#0F172A" points="665.399,529,669.399,539,673.399,529,669.399,533" style="stroke:#0F172A;stroke-width:1;"/><?plantuml-src jLVVRzis47xdNq5aBmbc9qsR_fYDOaYTj0rGj4MIhYy635gYR2uIgP6KFM_e_xwFHqgMdI3j7eh0Y2HInxlllllkvEwKheKL5NTBaPkrqWjUYD99vhgLkSZk5jOqEf-OqbZ-Iv7XB-_jo6KXcjA_DTf_59NaxsMvabvbuk4zD-eVoK_FUel2MhDErfyKfo-Vzj_KniitztmeYfVvY_rTnkRIfXtpi-VFdlosjoCSdzQVFJixVVwyjqxcCsErjFpq1VFAbvAVPrwjbD_m8JUPFFcKoIljlD1P7o7HRlgNyGVWUbM88WihVVTIc9mNMvUwPxaIbT7vlQZbK_cgUDBRqBTucf_9_DLsyUq3Xk6wzVlxPMU_spSNUrQ_CNgL8M00eupc1v_cJjgLv4Bd_8tI-G727zs4NRomXXXbPSwBqgodEjwSmBK547CdyNvePMPqfaevR34yTgl5c8skfSZ16QU2YHxgtDKo6t1l0GrMyD0tRZ3LmObSbj9BhhINse-PAlZXmMtQY53attMfCkNvfyaLLpdsX9JLLZfS_dvmnFrIQdwuaUw8ZTv97-vvrbYBPNe7EqrZuSDAYQd6ZfvVOoPHDVnGcwFWl3Cb8OD3bVEXgdOC-2MokbXEzGUizgmutZWgGLLwQHtFJ1K0h-31JEK8CrUkBiLcfb5c0ueU_n0kNjvW1u2RM8c7vFk-ppokzSwRwdM8MHliQvoOW_2LyDcIAmTUWdSm-1cEm4koQ6DW16T6nl8TDASQu9kK5K02VmjGXp9n4RDZvL-DT7Xn3_4UiU9EebDwgHP-2MY0JtpG9yHQUG0Pp19NGfoxgO6p3m0DDoykFrpUNbu0PLqeYy1nUa0mtaOw1OT-r6G33Cg4kiYMmTjumdW7WQoKGZSrrKsXj2WXXnQlu34Ov9eia_VG0QKgiufftRuZ2h2afNtWIdHuXuieo0sVbuQg87hOEe0aThO2WZiEzDBdlAbx9dkP-g0AcMrWZqzAuPmgeFbX9UIEGWvW44jHbGZHsmsHp4b_Fq3YHUH7WxGkeGe9p4eexOA5oVNb-UtLntUeX2-VB-9b11bNu-GeURr_kkEcyGuyZV4v443OXVJklX--iJgKRgFJrg8fUITKeGRGnoAKKztFzldazkgFonqtllNH2fgseRHVM5Lu_XwN9SgTc3wXKfUyLAiOTdHSB4BiiVfKLHkBofc2dxA4-3Ms445wADYt1cK-r79DnGaEG-n8UN8wB0T7ClyGiVx4yxHfBWjZu_5LuocLq04RVj5sEjfnaLTApq9coW7AFtCpGLZDlBcJ6lbf9M7cl5MrF0wzGcKoAjVzvQHX_F3N5xo23qVtitdJr35-yYtGwF78pkkwtF39KkX5Np0cMqqDDAhpNKdaHkEj47HxIemOBIRFPqRF2iXU0n8CzjKvZ3XAotpcnIAq97Il3B4HYBsm-hLvfshAh3P3KsyX3tBNbj_eki43QrP0pFAbBElmpvWxU1Gb-BKlMfK_ZWf_dMxXH6_jgr0Ol-nNO-zIiNs5T5vYzB8j4wSwPkKrPXtL0X8wiz6lgVQWPLD8HxvtR4JnfnnBTKx7Hfth7ni5zQSSs_O6wez8qLHJOupD6NmOWdih6LE59Y-pnaitxkIZ5Pd0ev3WA0tTOwhjq5kjeUhhkbVid7kjeJOevKrGQ0yn69Bo35FJmWmLSHad2Mq2WoDX70A1mmDE2QChz0lKBTsC8KwHObHeOJhcLYsMdgN1BSrg8_Q_PZVMcm13vCdOLZ-xOHb1iZ3DAGgpu_Xm7YUsoVMNYm5V8us3k9MW6TOHib0cUS2ZT2WAAuyPshQtfYnX0TrEbDk3MiSXMZahqRMnmToX0IAT7dNi90h9HvXLAEo8A5icdj3vtDIInB22wOMetJ4J5hBlDxN4k0nkZ30auDk1XgAaTiDAQB6GbcMTSuxtOduGe40f5gQQzZGRCexFAhE6URTKzJ5BzaVXeuIvibdGLKjYXY-JVDGVcxU-ZlYYzNAuxsM4-AHZtcXBp1FsAFjOQjkZ7s4Uw-ICwi2DqYpPjVTnV4-ojicFso6dxVNCTSs0ci28xwipUrIT-PuuCn9dH47bcDeWwJ52whfVQWNiEysFFThxs7TR7ujm36CdeYD7Q15Q4dbv96z8k9eXwVHJtH2QFXtkX__ubmDh9uRsAA9xu7cwlyb4KHXC7HLuWEG8QfHZC0HcqnZUe_cGM8vvi6Dlp7N2Db2WCW7zuo12z6t-7m00?></g></svg>