<?plantuml 1.2026.1?><svg xmlns="http://www.w3.org/2000/svg" xmlns:xlink="http://www.w3.org/1999/xlink" contentStyleType="text/css" data-diagram-type="SEQUENCE" height="2090px" preserveAspectRatio="none" style="width:1268px;height:2090px;background:#FCFCFD;" version="1.1" viewBox="0 0 1268 2090" width="1268px" zoomAndPan="magnify"><title>Sequence - datasafe/DataSafeMaskingPolicyMaskingSchemas</title><defs/><g><rect fill="#FCFCFD" height="2090" style="stroke:none;stroke-width:1;" width="1268" x="0" y="0"/><text fill="#000000" font-family="Helvetica" font-size="14" font-weight="bold" lengthAdjust="spacing" textLength="413.9434" x="433.4104" y="25.7803">Sequence - datasafe/DataSafeMaskingPolicyMaskingSchemas</text><rect fill="none" height="290" rx="8" ry="8" style="stroke:#CBD5E1;stroke-width:1.5;" width="746.1846" x="498.9424" y="356"/><rect fill="none" height="146" rx="8" ry="8" style="stroke:#CBD5E1;stroke-width:1.5;" width="483.7642" x="751.3628" y="465"/><rect fill="none" height="44" rx="8" ry="8" style="stroke:#CBD5E1;stroke-width:1.5;" width="463.7642" x="761.3628" y="516"/><rect fill="none" height="868" rx="8" ry="8" style="stroke:#CBD5E1;stroke-width:1.5;" width="782.8218" x="478.9424" y="660"/><rect fill="none" height="302" rx="8" ry="8" style="stroke:#CBD5E1;stroke-width:1.5;" width="746.1846" x="488.9424" y="683"/><rect fill="none" height="72" rx="8" ry="8" style="stroke:#CBD5E1;stroke-width:1.5;" width="463.7642" x="761.3628" y="804"/><rect fill="none" height="88" rx="8" ry="8" style="stroke:#CBD5E1;stroke-width:1.5;" width="438.813" x="498.9424" y="890"/><rect fill="none" height="392" rx="8" ry="8" style="stroke:#CBD5E1;stroke-width:1.5;" width="762.8218" x="488.9424" y="1087"/><rect fill="none" height="44" rx="8" ry="8" style="stroke:#CBD5E1;stroke-width:1.5;" width="438.813" x="498.9424" y="1186"/><rect fill="none" height="130" rx="8" ry="8" style="stroke:#CBD5E1;stroke-width:1.5;" width="483.7642" x="751.3628" y="1244"/><rect fill="none" height="44" rx="8" ry="8" style="stroke:#CBD5E1;stroke-width:1.5;" width="463.7642" x="761.3628" y="1323"/><g class="participant-lifeline" data-entity-uid="part1" data-qualified-name="Kubernetes" id="part1-lifeline"><g><title>Kubernetes</title><rect fill="#000000" fill-opacity="0.00000" height="1969" width="8" x="39.8032" y="114"/><line style="stroke:#94A3B8;stroke-width:0.5;stroke-dasharray:5,5;" x1="43" x2="43" y1="114" y2="2083"/></g></g><g class="participant-lifeline" data-entity-uid="part2" data-qualified-name="Controller" id="part2-lifeline"><g><title>Controller</title><rect fill="#000000" fill-opacity="0.00000" height="1969" width="8" x="322.1401" y="114"/><line style="stroke:#94A3B8;stroke-width:0.5;stroke-dasharray:5,5;" x1="325.7954" x2="325.7954" y1="114" y2="2083"/></g></g><g class="participant-lifeline" data-entity-uid="part3" data-qualified-name="BaseReconciler" id="part3-lifeline"><g><title>BaseReconciler</title><rect fill="#000000" fill-opacity="0.00000" height="1969" width="8" x="560.9663" y="114"/><line style="stroke:#94A3B8;stroke-width:0.5;stroke-dasharray:5,5;" x1="564.9424" x2="564.9424" y1="114" y2="2083"/></g></g><g class="participant-lifeline" data-entity-uid="part4" data-qualified-name="ServiceManager" id="part4-lifeline"><g><title>OSOKServiceManager</title><rect fill="#000000" fill-opacity="0.00000" height="1969" width="8" x="845.5591" y="114"/><line style="stroke:#94A3B8;stroke-width:0.5;stroke-dasharray:5,5;" x1="849.3628" x2="849.3628" y1="114" y2="2083"/></g></g><g class="participant-lifeline" data-entity-uid="part5" data-qualified-name="OCI" id="part5-lifeline"><g><title>OCI</title><rect fill="#000000" fill-opacity="0.00000" height="1969" width="8" x="1191.6821" y="114"/><line style="stroke:#94A3B8;stroke-width:0.5;stroke-dasharray:5,5;" x1="1195.2373" x2="1195.2373" y1="114" y2="2083"/></g></g><g class="participant participant-head" data-entity-uid="part1" data-qualified-name="Kubernetes" id="part1-head"><text fill="#000000" font-family="Helvetica" font-size="14" lengthAdjust="spacing" textLength="71.6064" x="5" y="110.7803">Kubernetes</text><ellipse cx="43.8032" cy="48.5" fill="#E2E8F0" rx="8" ry="8" style="stroke:#0F172A;stroke-width:0.5;"/><path d="M43.8032,56.5 L43.8032,83.5 M30.8032,64.5 L56.8032,64.5 M43.8032,83.5 L30.8032,98.5 M43.8032,83.5 L56.8032,98.5" fill="none" style="stroke:#0F172A;stroke-width:0.5;"/></g><g class="participant participant-head" data-entity-uid="part2" data-qualified-name="Controller" id="part2-head"><rect fill="#E2E8F0" height="28" rx="8" ry="8" style="stroke:#0F172A;stroke-width:0.5;" width="74.6895" x="288.7954" y="85"/><text fill="#0F172A" font-family="Helvetica" font-size="14" lengthAdjust="spacing" textLength="60.6895" x="295.7954" y="102.7803">Controller</text></g><g class="participant participant-head" data-entity-uid="part3" data-qualified-name="BaseReconciler" id="part3-head"><rect fill="#E2E8F0" height="28" rx="8" ry="8" style="stroke:#0F172A;stroke-width:0.5;" width="112.0479" x="508.9424" y="85"/><text fill="#0F172A" font-family="Helvetica" font-size="14" lengthAdjust="spacing" textLength="98.0479" x="515.9424" y="102.7803">BaseReconciler</text></g><g class="participant participant-head" data-entity-uid="part4" data-qualified-name="ServiceManager" id="part4-head"><rect fill="#E2E8F0" height="28" rx="8" ry="8" style="stroke:#0F172A;stroke-width:0.5;" width="156.3926" x="771.3628" y="85"/><text fill="#0F172A" font-family="Helvetica" font-size="14" lengthAdjust="spacing" textLength="142.3926" x="778.3628" y="102.7803">OSOKServiceManager</text></g><g class="participant participant-head" data-entity-uid="part5" data-qualified-name="OCI" id="part5-head"><rect fill="#E2E8F0" height="28" rx="8" ry="8" style="stroke:#0F172A;stroke-width:0.5;" width="38.8896" x="1176.2373" y="85"/><text fill="#0F172A" font-family="Helvetica" font-size="14" lengthAdjust="spacing" textLength="24.8896" x="1183.2373" y="102.7803">OCI</text></g><path d="M500,137 L500,187 A8,8 0 0 0 508,195 L905,195 A8,8 0 0 0 913,187 L913,139 L903,129 L508,129 A8,8 0 0 0 500,137" fill="#FFF7D6" style="stroke:#B45309;stroke-width:0.5;"/><path d="M903,129 L903,135 A4,4 0 0 0 907,139 L913,139 L903,129" fill="#FFF7D6" style="stroke:#B45309;stroke-width:0.5;"/><text fill="#334155" font-family="Helvetica" font-size="14" lengthAdjust="spacing" textLength="111.2891" x="548.7107" y="144.7803">shared resolution:</text><text fill="#334155" font-family="Helvetica" font-size="14" lengthAdjust="spacing" textLength="307.3916" x="548.7107" y="158.7803">shared/diagrams/shared-resolution-sequence.svg</text><text fill="#334155" font-family="Helvetica" font-size="14" lengthAdjust="spacing" textLength="88.7305" x="548.7107" y="172.7803">shared delete:</text><text fill="#334155" font-family="Helvetica" font-size="14" lengthAdjust="spacing" textLength="284.833" x="548.7107" y="186.7803">shared/diagrams/shared-delete-sequence.svg</text><g class="message" data-entity-1="part1" data-entity-2="part2" id="msg1"><polygon fill="#0F172A" points="314.1401,244,324.1401,248,314.1401,252,318.1401,248" style="stroke:#0F172A;stroke-width:1;"/><line style="stroke:#0F172A;stroke-width:1;" x1="43.8032" x2="320.1401" y1="248" y2="248"/><text fill="#000000" font-family="Helvetica" font-size="14" lengthAdjust="spacing" textLength="54.5029" x="50.8032" y="214.7803">enqueue</text><text fill="#000000" font-family="Helvetica" font-size="14" lengthAdjust="spacing" textLength="258.3369" x="50.8032" y="228.7803">DataSafeMaskingPolicyMaskingSchemas</text><text fill="#000000" font-family="Helvetica" font-size="14" lengthAdjust="spacing" textLength="56.0273" x="50.8032" y="242.7803">reconcile</text></g><g class="message" data-entity-1="part2" data-entity-2="part3" id="msg2"><polygon fill="#0F172A" points="552.9663,272,562.9663,276,552.9663,280,556.9663,276" style="stroke:#0F172A;stroke-width:1;"/><line style="stroke:#0F172A;stroke-width:1;" x1="326.1401" x2="558.9663" y1="276" y2="276"/><text fill="#000000" font-family="Helvetica" font-size="14" lengthAdjust="spacing" textLength="117.4961" x="333.1401" y="270.7803">Reconcile(request)</text></g><g class="message" data-entity-1="part3" data-entity-2="part4" id="msg3"><polygon fill="#0F172A" points="837.5591,314,847.5591,318,837.5591,322,841.5591,318" style="stroke:#0F172A;stroke-width:1;"/><line style="stroke:#0F172A;stroke-width:1;" x1="564.9663" x2="843.5591" y1="318" y2="318"/><text fill="#000000" font-family="Helvetica" font-size="14" lengthAdjust="spacing" textLength="105.834" x="571.9663" y="298.7803">reconcile desired</text><text fill="#000000" font-family="Helvetica" font-size="14" lengthAdjust="spacing" textLength="258.3369" x="571.9663" y="312.7803">DataSafeMaskingPolicyMaskingSchemas</text></g><path d="M506.9424,356 L560.2803,356 L560.2803,362 L550.2803,372 L498.9424,372 L498.9424,364 A8,8 0 0 1 506.9424,356" fill="#F8FAFC" style="stroke:#CBD5E1;stroke-width:1.5;"/><rect fill="none" height="290" rx="8" ry="8" style="stroke:#CBD5E1;stroke-width:1.5;" width="746.1846" x="498.9424" y="356"/><text fill="#000000" font-family="Helvetica" font-size="14" font-weight="bold" lengthAdjust="spacing" textLength="16.3379" x="513.9424" y="367.7803">alt</text><text fill="#000000" font-family="Helvetica" font-size="14" font-weight="bold" lengthAdjust="spacing" textLength="308.1094" x="575.2803" y="368.7803">[tracked or explicit OCI identity already exists]</text><g class="message" data-entity-1="part4" data-entity-2="part5" id="msg4"><polygon fill="#0F172A" points="1183.6821,388,1193.6821,392,1183.6821,396,1187.6821,392" style="stroke:#0F172A;stroke-width:1;"/><line style="stroke:#0F172A;stroke-width:1;" x1="849.5591" x2="1189.6821" y1="392" y2="392"/><text fill="#000000" font-family="Helvetica" font-size="14" lengthAdjust="spacing" textLength="280.9023" x="856.5591" y="386.7803">GetDataSafeMaskingPolicyMaskingSchemas</text></g><line style="stroke:#CBD5E1;stroke-width:1;stroke-dasharray:2,2;" x1="498.9424" x2="1245.127" y1="401" y2="401"/><text fill="#000000" font-family="Helvetica" font-size="14" font-weight="bold" lengthAdjust="spacing" textLength="185.1582" x="503.9424" y="411.7803">[tracked identity is missing]</text><g class="message" data-entity-1="part4" data-entity-2="part5" id="msg5"><polygon fill="#0F172A" points="1183.6821,446,1193.6821,450,1183.6821,454,1187.6821,450" style="stroke:#0F172A;stroke-width:1;"/><line style="stroke:#0F172A;stroke-width:1;" x1="849.5591" x2="1189.6821" y1="450" y2="450"/><text fill="#000000" font-family="Helvetica" font-size="14" lengthAdjust="spacing" textLength="322.123" x="856.5591" y="430.7803">ListDataSafeMaskingPolicyMaskingSchemas(filters:</text><text fill="#000000" font-family="Helvetica" font-size="14" lengthAdjust="spacing" textLength="143.1719" x="856.5591" y="444.7803">compartment_id, state)</text></g><path d="M759.3628,465 L812.7007,465 L812.7007,471 L802.7007,481 L751.3628,481 L751.3628,473 A8,8 0 0 1 759.3628,465" fill="#F8FAFC" style="stroke:#CBD5E1;stroke-width:1.5;"/><rect fill="none" height="146" rx="8" ry="8" style="stroke:#CBD5E1;stroke-width:1.5;" width="483.7642" x="751.3628" y="465"/><text fill="#000000" font-family="Helvetica" font-size="14" font-weight="bold" lengthAdjust="spacing" textLength="16.3379" x="766.3628" y="476.7803">alt</text><text fill="#000000" font-family="Helvetica" font-size="14" font-weight="bold" lengthAdjust="spacing" textLength="242.7031" x="827.7007" y="477.7803">[reusable OCI resource is not found]</text><g class="message" data-entity-1="part4" data-entity-2="part5" id="msg6"><polygon fill="#0F172A" points="1183.6821,497,1193.6821,501,1183.6821,505,1187.6821,501" style="stroke:#0F172A;stroke-width:1;"/><line style="stroke:#0F172A;stroke-width:1;" x1="849.5591" x2="1189.6821" y1="501" y2="501"/><text fill="#000000" font-family="Helvetica" font-size="14" lengthAdjust="spacing" textLength="300.3574" x="856.5591" y="495.7803">CreateDataSafeMaskingPolicyMaskingSchemas</text></g><path d="M769.3628,516 L835.9077,516 L835.9077,522 L825.9077,532 L761.3628,532 L761.3628,524 A8,8 0 0 1 769.3628,516" fill="#F8FAFC" style="stroke:#CBD5E1;stroke-width:1.5;"/><rect fill="none" height="44" rx="8" ry="8" style="stroke:#CBD5E1;stroke-width:1.5;" width="463.7642" x="761.3628" y="516"/><text fill="#000000" font-family="Helvetica" font-size="14" font-weight="bold" lengthAdjust="spacing" textLength="29.5449" x="776.3628" y="527.7803">loop</text><text fill="#000000" font-family="Helvetica" font-size="14" font-weight="bold" lengthAdjust="spacing" textLength="215.4756" x="850.9077" y="528.7803">[create pending PROVISIONING]</text><g class="message" data-entity-1="part4" data-entity-2="part5" id="msg7"><polygon fill="#0F172A" points="1183.6821,548,1193.6821,552,1183.6821,556,1187.6821,552" style="stroke:#0F172A;stroke-width:1;"/><line style="stroke:#0F172A;stroke-width:1;" x1="849.5591" x2="1189.6821" y1="552" y2="552"/><text fill="#000000" font-family="Helvetica" font-size="14" lengthAdjust="spacing" textLength="280.9023" x="856.5591" y="546.7803">GetDataSafeMaskingPolicyMaskingSchemas</text></g><line style="stroke:#CBD5E1;stroke-width:1;stroke-dasharray:2,2;" x1="751.3628" x2="1235.127" y1="568" y2="568"/><text fill="#000000" font-family="Helvetica" font-size="14" font-weight="bold" lengthAdjust="spacing" textLength="255.2334" x="756.3628" y="578.7803">[reusable OCI resource already exists]</text><g class="message" data-entity-1="part4" data-entity-2="part5" id="msg8"><polygon fill="#0F172A" points="1183.6821,599,1193.6821,603,1183.6821,607,1187.6821,603" style="stroke:#0F172A;stroke-width:1;"/><line style="stroke:#0F172A;stroke-width:1;" x1="849.5591" x2="1189.6821" y1="603" y2="603"/><text fill="#000000" font-family="Helvetica" font-size="14" lengthAdjust="spacing" textLength="280.9023" x="856.5591" y="597.7803">GetDataSafeMaskingPolicyMaskingSchemas</text></g><g class="message" data-entity-1="part4" data-entity-2="part3" id="msg9"><polygon fill="#0F172A" points="575.9663,634,565.9663,638,575.9663,642,571.9663,638" style="stroke:#0F172A;stroke-width:1;"/><line style="stroke:#0F172A;stroke-width:1;stroke-dasharray:2,2;" x1="569.9663" x2="848.5591" y1="638" y2="638"/><text fill="#000000" font-family="Helvetica" font-size="14" lengthAdjust="spacing" textLength="231.0957" x="581.9663" y="632.7803">persist resolved OCI identity in status</text></g><path d="M486.9424,660 L540.2803,660 L540.2803,666 L530.2803,676 L478.9424,676 L478.9424,668 A8,8 0 0 1 486.9424,660" fill="#F8FAFC" style="stroke:#CBD5E1;stroke-width:1.5;"/><rect fill="none" height="868" rx="8" ry="8" style="stroke:#CBD5E1;stroke-width:1.5;" width="782.8218" x="478.9424" y="660"/><text fill="#000000" font-family="Helvetica" font-size="14" font-weight="bold" lengthAdjust="spacing" textLength="16.3379" x="493.9424" y="671.7803">alt</text><text fill="#000000" font-family="Helvetica" font-size="14" font-weight="bold" lengthAdjust="spacing" textLength="120.5859" x="555.2803" y="672.7803">[delete requested]</text><path d="M496.9424,683 L575.9629,683 L575.9629,689 L565.9629,699 L488.9424,699 L488.9424,691 A8,8 0 0 1 496.9424,683" fill="#F8FAFC" style="stroke:#CBD5E1;stroke-width:1.5;"/><rect fill="none" height="302" rx="8" ry="8" style="stroke:#CBD5E1;stroke-width:1.5;" width="746.1846" x="488.9424" y="683"/><text fill="#000000" font-family="Helvetica" font-size="14" font-weight="bold" lengthAdjust="spacing" textLength="42.0205" x="503.9424" y="694.7803">Delete</text><g class="message" data-entity-1="part4" data-entity-2="part5" id="msg10"><polygon fill="#0F172A" points="1183.6821,715,1193.6821,719,1183.6821,723,1187.6821,719" style="stroke:#0F172A;stroke-width:1;"/><line style="stroke:#0F172A;stroke-width:1;" x1="849.5591" x2="1189.6821" y1="719" y2="719"/><text fill="#000000" font-family="Helvetica" font-size="14" lengthAdjust="spacing" textLength="298.8057" x="856.5591" y="713.7803">DeleteDataSafeMaskingPolicyMaskingSchemas</text></g><g class="message" data-entity-1="part4" data-entity-2="part5" id="msg11"><polygon fill="#0F172A" points="1183.6821,785,1193.6821,789,1183.6821,793,1187.6821,789" style="stroke:#0F172A;stroke-width:1;"/><line style="stroke:#0F172A;stroke-width:1;" x1="849.5591" x2="1189.6821" y1="789" y2="789"/><text fill="#000000" font-family="Helvetica" font-size="14" lengthAdjust="spacing" textLength="109.7168" x="856.5591" y="741.7803">confirm delete via</text><text fill="#000000" font-family="Helvetica" font-size="14" lengthAdjust="spacing" textLength="280.9023" x="856.5591" y="755.7803">GetDataSafeMaskingPolicyMaskingSchemas</text><text fill="#000000" font-family="Helvetica" font-size="14" lengthAdjust="spacing" textLength="12.4482" x="856.5591" y="769.7803">or</text><text fill="#000000" font-family="Helvetica" font-size="14" lengthAdjust="spacing" textLength="280.123" x="856.5591" y="783.7803">ListDataSafeMaskingPolicyMaskingSchemas</text></g><path d="M769.3628,804 L835.9077,804 L835.9077,810 L825.9077,820 L761.3628,820 L761.3628,812 A8,8 0 0 1 769.3628,804" fill="#F8FAFC" style="stroke:#CBD5E1;stroke-width:1.5;"/><rect fill="none" height="72" rx="8" ry="8" style="stroke:#CBD5E1;stroke-width:1.5;" width="463.7642" x="761.3628" y="804"/><text fill="#000000" font-family="Helvetica" font-size="14" font-weight="bold" lengthAdjust="spacing" textLength="29.5449" x="776.3628" y="815.7803">loop</text><text fill="#000000" font-family="Helvetica" font-size="14" font-weight="bold" lengthAdjust="spacing" textLength="182.7793" x="850.9077" y="816.7803">[delete pending DELETING]</text><g class="message" data-entity-1="part4" data-entity-2="part5" id="msg12"><polygon fill="#0F172A" points="1183.6821,864,1193.6821,868,1183.6821,872,1187.6821,868" style="stroke:#0F172A;stroke-width:1;"/><line style="stroke:#0F172A;stroke-width:1;" x1="849.5591" x2="1189.6821" y1="868" y2="868"/><text fill="#000000" font-family="Helvetica" font-size="14" lengthAdjust="spacing" textLength="280.9023" x="856.5591" y="834.7803">GetDataSafeMaskingPolicyMaskingSchemas</text><text fill="#000000" font-family="Helvetica" font-size="14" lengthAdjust="spacing" textLength="12.4482" x="856.5591" y="848.7803">or</text><text fill="#000000" font-family="Helvetica" font-size="14" lengthAdjust="spacing" textLength="280.123" x="856.5591" y="862.7803">ListDataSafeMaskingPolicyMaskingSchemas</text></g><path d="M506.9424,890 L560.2803,890 L560.2803,896 L550.2803,906 L498.9424,906 L498.9424,898 A8,8 0 0 1 506.9424,890" fill="#F8FAFC" style="stroke:#CBD5E1;stroke-width:1.5;"/><rect fill="none" height="88" rx="8" ry="8" style="stroke:#CBD5E1;stroke-width:1.5;" width="438.813" x="498.9424" y="890"/><text fill="#000000" font-family="Helvetica" font-size="14" font-weight="bold" lengthAdjust="spacing" textLength="16.3379" x="513.9424" y="901.7803">alt</text><text fill="#000000" font-family="Helvetica" font-size="14" font-weight="bold" lengthAdjust="spacing" textLength="261.4268" x="575.2803" y="902.7803">[cleanup or finalizer release is blocked]</text><g class="message" data-entity-1="part4" data-entity-2="part3" id="msg13"><polygon fill="#0F172A" points="575.9663,922,565.9663,926,575.9663,930,571.9663,926" style="stroke:#0F172A;stroke-width:1;"/><line style="stroke:#0F172A;stroke-width:1;stroke-dasharray:2,2;" x1="569.9663" x2="848.5591" y1="926" y2="926"/><text fill="#000000" font-family="Helvetica" font-size="14" lengthAdjust="spacing" textLength="170.4336" x="581.9663" y="920.7803">retain delete state and retry</text></g><line style="stroke:#CBD5E1;stroke-width:1;stroke-dasharray:2,2;" x1="498.9424" x2="937.7554" y1="935" y2="935"/><text fill="#000000" font-family="Helvetica" font-size="14" font-weight="bold" lengthAdjust="spacing" textLength="194.4824" x="503.9424" y="945.7803">[delete completion observed]</text><g class="message" data-entity-1="part4" data-entity-2="part3" id="msg14"><polygon fill="#0F172A" points="575.9663,966,565.9663,970,575.9663,974,571.9663,970" style="stroke:#0F172A;stroke-width:1;"/><line style="stroke:#0F172A;stroke-width:1;stroke-dasharray:2,2;" x1="569.9663" x2="848.5591" y1="970" y2="970"/><text fill="#000000" font-family="Helvetica" font-size="14" lengthAdjust="spacing" textLength="243.5781" x="581.9663" y="964.7803">release finalizer after delete completion</text></g><line style="stroke:#CBD5E1;stroke-width:1;stroke-dasharray:2,2;" x1="478.9424" x2="1261.7642" y1="993" y2="993"/><text fill="#000000" font-family="Helvetica" font-size="14" font-weight="bold" lengthAdjust="spacing" textLength="149.3857" x="483.9424" y="1003.7803">[OCI state is retryable]</text><g class="message" data-entity-1="part4" data-entity-2="part3" id="msg15"><polygon fill="#0F172A" points="575.9663,1038,565.9663,1042,575.9663,1046,571.9663,1042" style="stroke:#0F172A;stroke-width:1;"/><line style="stroke:#0F172A;stroke-width:1;stroke-dasharray:2,2;" x1="569.9663" x2="848.5591" y1="1042" y2="1042"/><text fill="#000000" font-family="Helvetica" font-size="14" lengthAdjust="spacing" textLength="184.4199" x="581.9663" y="1022.7803">requeue while OCI remains in</text><text fill="#000000" font-family="Helvetica" font-size="14" lengthAdjust="spacing" textLength="260.5928" x="581.9663" y="1036.7803">PROVISIONING, UPDATING, DELETING</text></g><line style="stroke:#CBD5E1;stroke-width:1;stroke-dasharray:2,2;" x1="478.9424" x2="1261.7642" y1="1051" y2="1051"/><text fill="#000000" font-family="Helvetica" font-size="14" font-weight="bold" lengthAdjust="spacing" textLength="200.751" x="483.9424" y="1061.7803">[live state requires field-aware</text><text fill="#000000" font-family="Helvetica" font-size="14" font-weight="bold" lengthAdjust="spacing" textLength="105.0068" x="483.9424" y="1075.7803">drift evaluation]</text><path d="M496.9424,1087 L624.9287,1087 L624.9287,1093 L614.9287,1103 L488.9424,1103 L488.9424,1095 A8,8 0 0 1 496.9424,1087" fill="#F8FAFC" style="stroke:#CBD5E1;stroke-width:1.5;"/><rect fill="none" height="392" rx="8" ry="8" style="stroke:#CBD5E1;stroke-width:1.5;" width="762.8218" x="488.9424" y="1087"/><text fill="#000000" font-family="Helvetica" font-size="14" font-weight="bold" lengthAdjust="spacing" textLength="90.9863" x="503.9424" y="1098.7803">Drift handling</text><path d="M803,1116 L803,1166 A8,8 0 0 0 811,1174 L1233,1174 A8,8 0 0 0 1241,1166 L1241,1118 L1231,1108 L811,1108 A8,8 0 0 0 803,1116" fill="#FFF7D6" style="stroke:#B45309;stroke-width:0.5;"/><path d="M1231,1108 L1231,1114 A4,4 0 0 0 1235,1118 L1241,1118 L1231,1108" fill="#FFF7D6" style="stroke:#B45309;stroke-width:0.5;"/><text fill="#334155" font-family="Helvetica" font-size="14" lengthAdjust="spacing" textLength="255.2813" x="890.2415" y="1123.7803">Supported update surface: display_name</text><text fill="#334155" font-family="Helvetica" font-size="14" lengthAdjust="spacing" textLength="235.7783" x="890.2415" y="1137.7803">Reject before mutate: force-new fields</text><text fill="#334155" font-family="Helvetica" font-size="14" lengthAdjust="spacing" textLength="100.3789" x="890.2415" y="1151.7803">compartment_id</text><text fill="#334155" font-family="Helvetica" font-size="14" lengthAdjust="spacing" textLength="229.5576" x="890.2415" y="1165.7803">Lookup filters: compartment_id, state</text><path d="M506.9424,1186 L565.708,1186 L565.708,1192 L555.708,1202 L498.9424,1202 L498.9424,1194 A8,8 0 0 1 506.9424,1186" fill="#F8FAFC" style="stroke:#CBD5E1;stroke-width:1.5;"/><rect fill="none" height="44" rx="8" ry="8" style="stroke:#CBD5E1;stroke-width:1.5;" width="438.813" x="498.9424" y="1186"/><text fill="#000000" font-family="Helvetica" font-size="14" font-weight="bold" lengthAdjust="spacing" textLength="21.7656" x="513.9424" y="1197.7803">opt</text><text fill="#000000" font-family="Helvetica" font-size="14" font-weight="bold" lengthAdjust="spacing" textLength="276.1309" x="580.708" y="1198.7803">[force-new or conflicting drift is detected]</text><g class="message" data-entity-1="part4" data-entity-2="part3" id="msg16"><polygon fill="#0F172A" points="575.9663,1218,565.9663,1222,575.9663,1226,571.9663,1222" style="stroke:#0F172A;stroke-width:1;"/><line style="stroke:#0F172A;stroke-width:1;stroke-dasharray:2,2;" x1="569.9663" x2="848.5591" y1="1222" y2="1222"/><text fill="#000000" font-family="Helvetica" font-size="14" lengthAdjust="spacing" textLength="164.1855" x="581.9663" y="1216.7803">reject before OCI mutation</text></g><path d="M759.3628,1244 L818.1284,1244 L818.1284,1250 L808.1284,1260 L751.3628,1260 L751.3628,1252 A8,8 0 0 1 759.3628,1244" fill="#F8FAFC" style="stroke:#CBD5E1;stroke-width:1.5;"/><rect fill="none" height="130" rx="8" ry="8" style="stroke:#CBD5E1;stroke-width:1.5;" width="483.7642" x="751.3628" y="1244"/><text fill="#000000" font-family="Helvetica" font-size="14" font-weight="bold" lengthAdjust="spacing" textLength="21.7656" x="766.3628" y="1255.7803">opt</text><text fill="#000000" font-family="Helvetica" font-size="14" font-weight="bold" lengthAdjust="spacing" textLength="243.4619" x="833.1284" y="1256.7803">[supported mutable drift is detected]</text><g class="message" data-entity-1="part4" data-entity-2="part5" id="msg17"><polygon fill="#0F172A" points="1183.6821,1304,1193.6821,1308,1183.6821,1312,1187.6821,1308" style="stroke:#0F172A;stroke-width:1;"/><line style="stroke:#0F172A;stroke-width:1;" x1="849.5591" x2="1189.6821" y1="1308" y2="1308"/><text fill="#000000" font-family="Helvetica" font-size="14" lengthAdjust="spacing" textLength="35.0205" x="856.5591" y="1274.7803">Apply</text><text fill="#000000" font-family="Helvetica" font-size="14" lengthAdjust="spacing" textLength="303.4814" x="856.5591" y="1288.7803">UpdateDataSafeMaskingPolicyMaskingSchemas</text><text fill="#000000" font-family="Helvetica" font-size="14" lengthAdjust="spacing" textLength="226.4541" x="856.5591" y="1302.7803">only for mutable fields display_name</text></g><path d="M769.3628,1323 L835.9077,1323 L835.9077,1329 L825.9077,1339 L761.3628,1339 L761.3628,1331 A8,8 0 0 1 769.3628,1323" fill="#F8FAFC" style="stroke:#CBD5E1;stroke-width:1.5;"/><rect fill="none" height="44" rx="8" ry="8" style="stroke:#CBD5E1;stroke-width:1.5;" width="463.7642" x="761.3628" y="1323"/><text fill="#000000" font-family="Helvetica" font-size="14" font-weight="bold" lengthAdjust="spacing" textLength="29.5449" x="776.3628" y="1334.7803">loop</text><text fill="#000000" font-family="Helvetica" font-size="14" font-weight="bold" lengthAdjust="spacing" textLength="190.5381" x="850.9077" y="1335.7803">[update pending UPDATING]</text><g class="message" data-entity-1="part4" data-entity-2="part5" id="msg18"><polygon fill="#0F172A" points="1183.6821,1355,1193.6821,1359,1183.6821,1363,1187.6821,1359" style="stroke:#0F172A;stroke-width:1;"/><line style="stroke:#0F172A;stroke-width:1;" x1="849.5591" x2="1189.6821" y1="1359" y2="1359"/><text fill="#000000" font-family="Helvetica" font-size="14" lengthAdjust="spacing" textLength="280.9023" x="856.5591" y="1353.7803">GetDataSafeMaskingPolicyMaskingSchemas</text></g><g class="message" data-entity-1="part4" data-entity-2="part5" id="msg19"><polygon fill="#0F172A" points="1183.6821,1467,1193.6821,1471,1183.6821,1475,1187.6821,1471" style="stroke:#0F172A;stroke-width:1;"/><line style="stroke:#0F172A;stroke-width:1;" x1="849.5591" x2="1189.6821" y1="1471" y2="1471"/><text fill="#000000" font-family="Helvetica" font-size="14" lengthAdjust="spacing" textLength="104.2891" x="856.5591" y="1395.7803">run helper hooks</text><text fill="#000000" font-family="Helvetica" font-size="14" lengthAdjust="spacing" textLength="219.0508" x="856.5591" y="1409.7803">create=tfresource.CreateResource,</text><text fill="#000000" font-family="Helvetica" font-size="14" lengthAdjust="spacing" textLength="314.3164" x="856.5591" y="1423.7803">tfresource.WaitForWorkRequestWithErrorHandling</text><text fill="#000000" font-family="Helvetica" font-size="14" lengthAdjust="spacing" textLength="215.5439" x="856.5591" y="1437.7803">entity=template action=CREATED;</text><text fill="#000000" font-family="Helvetica" font-size="14" lengthAdjust="spacing" textLength="226.085" x="856.5591" y="1451.7803">update=tfresource.UpdateResource;</text><text fill="#000000" font-family="Helvetica" font-size="14" lengthAdjust="spacing" textLength="212.8438" x="856.5591" y="1465.7803">delete=tfresource.DeleteResource</text></g><g class="message" data-entity-1="part4" data-entity-2="part3" id="msg20"><polygon fill="#0F172A" points="575.9663,1516,565.9663,1520,575.9663,1524,571.9663,1520" style="stroke:#0F172A;stroke-width:1;"/><line style="stroke:#0F172A;stroke-width:1;stroke-dasharray:2,2;" x1="569.9663" x2="848.5591" y1="1520" y2="1520"/><text fill="#000000" font-family="Helvetica" font-size="14" lengthAdjust="spacing" textLength="100.7822" x="581.9663" y="1500.7803">status=required,</text><text fill="#000000" font-family="Helvetica" font-size="14" lengthAdjust="spacing" textLength="230.7197" x="581.9663" y="1514.7803">finalizer=retain-until-confirmed-delete</text></g><g class="message" data-entity-1="part3" data-entity-2="part2" id="msg21"><polygon fill="#0F172A" points="337.1401,1565,327.1401,1569,337.1401,1573,333.1401,1569" style="stroke:#0F172A;stroke-width:1;"/><line style="stroke:#0F172A;stroke-width:1;stroke-dasharray:2,2;" x1="331.1401" x2="563.9663" y1="1569" y2="1569"/><text fill="#000000" font-family="Helvetica" font-size="14" lengthAdjust="spacing" textLength="214.8262" x="343.1401" y="1549.7803">requeue on provisioning, updating,</text><text fill="#000000" font-family="Helvetica" font-size="14" lengthAdjust="spacing" textLength="69.2549" x="343.1401" y="1563.7803">terminating</text></g><path d="M854,1590 L854,2060 A8,8 0 0 0 862,2068 L1234,2068 A8,8 0 0 0 1242,2060 L1242,1592 L1232,1582 L862,1582 A8,8 0 0 0 854,1590" fill="#FFF7D6" style="stroke:#B45309;stroke-width:0.5;"/><path d="M1232,1582 L1232,1588 A4,4 0 0 0 1236,1592 L1242,1592 L1232,1582" fill="#FFF7D6" style="stroke:#B45309;stroke-width:0.5;"/><text fill="#334155" font-family="Helvetica" font-size="14" lengthAdjust="spacing" textLength="101.165" x="860" y="1597.7803">shared diagram:</text><text fill="#334155" font-family="Helvetica" font-size="14" lengthAdjust="spacing" textLength="307.3916" x="860" y="1611.7803">shared/diagrams/shared-resolution-sequence.svg</text><text fill="#334155" font-family="Helvetica" font-size="14" lengthAdjust="spacing" textLength="143.1992" x="860" y="1625.7803">shared delete diagram:</text><text fill="#334155" font-family="Helvetica" font-size="14" lengthAdjust="spacing" textLength="284.833" x="860" y="1639.7803">shared/diagrams/shared-delete-sequence.svg</text><text fill="#334155" font-family="Helvetica" font-size="14" lengthAdjust="spacing" textLength="280.9297" x="860" y="1653.7803">Start from the shared resolution sequence for</text><text fill="#334155" font-family="Helvetica" font-size="14" lengthAdjust="spacing" textLength="260.7295" x="860" y="1667.7803">OCID binding, datasource pagination, and</text><text fill="#334155" font-family="Helvetica" font-size="14" lengthAdjust="spacing" textLength="163.4268" x="860" y="1681.7803">create-or-update dispatch.</text><text fill="#334155" font-family="Helvetica" font-size="14" lengthAdjust="spacing" textLength="301.1982" x="860" y="1695.7803">Layer the shared delete sequence when finalizer</text><text fill="#334155" font-family="Helvetica" font-size="14" lengthAdjust="spacing" textLength="269.2471" x="860" y="1709.7803">retention, delete confirmation, work-request</text><text fill="#334155" font-family="Helvetica" font-size="14" lengthAdjust="spacing" textLength="199.2334" x="860" y="1723.7803">polling, or Secret cleanup apply.</text><text fill="#334155" font-family="Helvetica" font-size="14" lengthAdjust="spacing" textLength="281.709" x="860" y="1737.7803">archetype batch: Generated service-manager</text><text fill="#334155" font-family="Helvetica" font-size="14" lengthAdjust="spacing" textLength="266.1504" x="860" y="1751.7803">controllers follow the shared resolution and</text><text fill="#334155" font-family="Helvetica" font-size="14" lengthAdjust="spacing" textLength="259.9297" x="860" y="1765.7803">delete sequences with imported waits and</text><text fill="#334155" font-family="Helvetica" font-size="14" lengthAdjust="spacing" textLength="134.6064" x="860" y="1779.7803">controller-local policy.</text><text fill="#334155" font-family="Helvetica" font-size="14" lengthAdjust="spacing" textLength="105.834" x="860" y="1793.7803">service: datasafe</text><text fill="#334155" font-family="Helvetica" font-size="14" lengthAdjust="spacing" textLength="283.2471" x="860" y="1807.7803">slug: datasafemaskingpolicymaskingschemas</text><text fill="#334155" font-family="Helvetica" font-size="14" lengthAdjust="spacing" textLength="291.7988" x="860" y="1821.7803">kind: DataSafeMaskingPolicyMaskingSchemas</text><text fill="#334155" font-family="Helvetica" font-size="14" lengthAdjust="spacing" textLength="241.2402" x="860" y="1835.7803">archetype: generated-service-manager</text><text fill="#334155" font-family="Helvetica" font-size="14" lengthAdjust="spacing" textLength="156.4063" x="860" y="1849.7803">status/finalizer: required /</text><text fill="#334155" font-family="Helvetica" font-size="14" lengthAdjust="spacing" textLength="174.3027" x="860" y="1863.7803">retain-until-confirmed-delete</text><text fill="#334155" font-family="Helvetica" font-size="14" lengthAdjust="spacing" textLength="272.3984" x="860" y="1877.7803">requeue: provisioning, updating, terminating</text><text fill="#334155" font-family="Helvetica" font-size="14" lengthAdjust="spacing" textLength="295.6816" x="860" y="1891.7803">provider states: create PROVISIONING; update</text><text fill="#334155" font-family="Helvetica" font-size="14" lengthAdjust="spacing" textLength="192.165" x="860" y="1905.7803">UPDATING; delete DELETING</text><text fill="#334155" font-family="Helvetica" font-size="14" lengthAdjust="spacing" textLength="183.6611" x="860" y="1919.7803">supported drift: display_name</text><text fill="#334155" font-family="Helvetica" font-size="14" lengthAdjust="spacing" textLength="230.3301" x="860" y="1933.7803">reject before mutate: force-new fields</text><text fill="#334155" font-family="Helvetica" font-size="14" lengthAdjust="spacing" textLength="100.3789" x="860" y="1947.7803">compartment_id</text><text fill="#334155" font-family="Helvetica" font-size="14" lengthAdjust="spacing" textLength="66.1445" x="860" y="1961.7803">list lookup:</text><text fill="#334155" font-family="Helvetica" font-size="14" lengthAdjust="spacing" textLength="367.3154" x="860" y="1975.7803">scaffold_datasafe_datasafemaskingpolicymaskingschemas</text><text fill="#334155" font-family="Helvetica" font-size="14" lengthAdjust="spacing" textLength="175.8477" x="860" y="1989.7803">filters compartment_id, state</text><text fill="#334155" font-family="Helvetica" font-size="14" lengthAdjust="spacing" textLength="89.4961" x="860" y="2003.7803">conflicts: none</text><text fill="#334155" font-family="Helvetica" font-size="14" lengthAdjust="spacing" textLength="104.3164" x="860" y="2017.7803">open gaps: none</text><text fill="#334155" font-family="Helvetica" font-size="14" lengthAdjust="spacing" textLength="224.9023" x="860" y="2031.7803">Scaffold metadata only; replace with</text><text fill="#334155" font-family="Helvetica" font-size="14" lengthAdjust="spacing" textLength="244.3232" x="860" y="2045.7803">controller-specific runtime states before</text><text fill="#334155" font-family="Helvetica" font-size="14" lengthAdjust="spacing" textLength="66.1445" x="860" y="2059.7803">promotion.</text><?plantuml-src hLTRRzis57xNhpZeNbeWIfecwSL11hH9rWRDcY9krnS30IqTsLmeKYCfkzwm_xx3YsJ9iLTjBVnWIQJEzVk-GvbxBYkcMGbcpdArv7861HC64zEkJ5bsFzEgblcv4ah3JqL6lxop8yU2rSB-egJzm4g4ToWMQ7d6jkyPypyH3eyxYqnhjOpMdnQ7BvvrtvJAufi7CHJ5Y_pvvYwbSzHnn_JuvEZfguqTpdrSFpewFZmvwQnxyvdI4ZKSFayijm9XZ7_KA3E4579ccM457bpGnPWkVcNkvTb79NYsYZVZR8ubCycSvmY5KdQgldPycCRSNma0owpIlPXZxitIPjBu35yMJscPZ55vUSMatVv-TyCGAvswj3O4B_2QotvLNnspe-bBMdKcgzvIDirFyB1TUj2nbmKhikJlnES6x-ifKgajcgGJ1vnJ85e9WRht-0qpU8kPaXdVN7fqCxvvFqQzu1brHB8PwaV03FGVzLwvERzA71f0BQZNVTjx6-yHBpJceD4eKLkkv2W-EiWvcr5FpK6uJzTRqgRD-sOnQopaA2ZRdM-7vVwRA7EFscHTB4X_xjHe12XfVuqJEG2K4wcRD9Er3MUnNu8HjDUFjOl7s2T9VujxgL-e4RJ6ALN3AQT1GIKUBN2jr3tzCSfuocMUC671Qi8GLOxGWbyhUfNxrW5HIn8xLy24HfQlQ9KRQv9-G2v4sZs2jsY7n86aUgtBrWKtK79ZQDykyzVaUu3znmKN5hKPJMIcIeV6abpSyNmFZ6KMd_YKDTQ6JQc4Bay7g5gJM50G10EI4sBJhZ3EgHGMXoGgbAeWyzkX8eWvpVzuU_FRrVZgviFLXxVVMqUAqTToUou_jcTRwh45pXNLdRm54Y-elJqKSUaxK0TphWk1Yn2nZtd4w8L_l2lai3eawXq6ADw2wxBnlk1i8eVLOIALdiY1G0pzZqwQ_bzSNbz--kxU_xSuccfd0fcayXBD2owPeDE1fjhJK-EXFnNASN98epLQHksCoNbUUKcXvteLK1dN70VfWiGQrDIGvQ4EGbZhG5b1h7veDT2WeOB3MuY6yl71E68CS-Zr7PPptZAff1mDmNOYkxJTWyyVBrv_ybTjExrtmHTDCPmvacP32Q38KxQasJEHkUQ51LmmKJCVVCIxVpod0WgdV-k9sOzxputJSLrLIXDNeAvovydKkc0PZY3dfX9iTIVfP9ZSuk-OMPXYeJH2MRkWHYHif0ofn6K8ooHzXKpYS6WK5BOAw7fQgifsJ1Ai7BC8WDOXFUHARSYfOPaTslPksAuBFlIcpywXQGlWbfpiVTjJ9DVhgXAhYVpi2pUCPbAiN8gjhr2tVgqzpsCt6fut4FaH6hzx5kbQmXm5oIxCgNKKS1WtPxPevi1-c5UtyNPl8ZjhNnYd4wd-elJzRT3WBzpEB-aZGR-BQ9p8eDvd5ebodkUPwyVP-Utbwq-N5wSJ6LBl-WmLRdpIba3RxfQWuisMeGCcp8-poAwSica5uYneKbfJk2AD6j-Uzxo3pQFLnX6laG2Igagh1JUK9bLWB_JMNL7nK9VaqROyrNmsjw0As7wSZQVFxplBVjFAjZFjs19peT2g13j7U72yNdyY4RuJWjE5Fn3wXFqNM3X6L6pcyrLopoby4W2MAfr6n3igC9lDzvDhjgAgTfmruw5nj9oZN2jwGWrps7AMMrdtNOlkbWJBD9uDaegQv6DJJXOfYlKyOuxM-mdJH1gxgf0-f2aUnp7wmcHEAKpeJLh6vcHjrqcWwLyjTzJ8PRoHXO4bSGHu6LLeIHmoeJIjrPGcAHDGUKhl9z7zgFsoJOoeP-lRCf0-R8yt9Ye0NUTqvXcW5Mt-8vWrcQURcGS27RHD63MJAeU3vDyP5EansaKEw7B3xw5FrZ0ot2W9v-3k83sDefaqOddQuA0TgsknzoA_CUJq_nfomfrGXPzqHAYC5OI0_AxfnTsGfiG1kMC-DbEGigO1uiOamNx6gkP-77r2IVLsxi2DcLFg1ANcQ4BuweB9L9ZnWcTExYqlun73nBnTgKlbqBhVJkP_0000?></g></svg>