<?plantuml 1.2026.1?><svg xmlns="http://www.w3.org/2000/svg" xmlns:xlink="http://www.w3.org/1999/xlink" contentStyleType="text/css" data-diagram-type="ACTIVITY" height="1413px" preserveAspectRatio="none" style="width:729px;height:1413px;background:#FCFCFD;" version="1.1" viewBox="0 0 729 1413" width="729px" zoomAndPan="magnify"><title>Activity - stackmonitoring/StackMonitoringMonitoredResourceTypes</title><defs/><g><rect fill="#FCFCFD" height="1413" style="stroke:none;stroke-width:1;" width="729" x="0" y="0"/><g class="title" data-source-line="10"><text fill="#000000" font-family="Helvetica" font-size="14" font-weight="bold" lengthAdjust="spacing" textLength="457.3994" x="134.3395" y="30.7803">Activity - stackmonitoring/StackMonitoringMonitoredResourceTypes</text></g><ellipse cx="346.0383" cy="55" fill="#1D4ED8" rx="10" ry="10" style="stroke:#222222;stroke-width:1;"/><rect fill="#F8FAFC" height="48" rx="8" ry="8" style="stroke:#0F172A;stroke-width:0.5;" width="304.7852" x="193.6458" y="85"/><text fill="#0F172A" font-family="Helvetica" font-size="14" lengthAdjust="spacing" textLength="136.9375" x="203.6458" y="105.7803">Start from shared flow</text><text fill="#0F172A" font-family="Helvetica" font-size="14" lengthAdjust="spacing" textLength="284.7852" x="203.6458" y="119.7803">shared/diagrams/shared-reconcile-activity.svg</text><rect fill="#F8FAFC" height="62" rx="8" ry="8" style="stroke:#0F172A;stroke-width:0.5;" width="341.3848" x="175.3459" y="153"/><text fill="#0F172A" font-family="Helvetica" font-size="14" lengthAdjust="spacing" textLength="80.9512" x="185.3459" y="173.7803">Load desired</text><text fill="#0F172A" font-family="Helvetica" font-size="14" lengthAdjust="spacing" textLength="321.3848" x="185.3459" y="187.7803">StackMonitoringMonitoredResourceTypes spec and</text><text fill="#0F172A" font-family="Helvetica" font-size="14" lengthAdjust="spacing" textLength="144.7373" x="185.3459" y="201.7803">status from Kubernetes</text><rect fill="#F8FAFC" height="76" rx="8" ry="8" style="stroke:#0F172A;stroke-width:0.5;" width="332.0264" x="180.0251" y="235"/><text fill="#0F172A" font-family="Helvetica" font-size="14" lengthAdjust="spacing" textLength="135.3857" x="190.0251" y="255.7803">Resolve OCI state via</text><text fill="#0F172A" font-family="Helvetica" font-size="14" lengthAdjust="spacing" textLength="312.0264" x="190.0251" y="269.7803">GetStackMonitoringMonitoredResourceTypes with</text><text fill="#0F172A" font-family="Helvetica" font-size="14" lengthAdjust="spacing" textLength="282.4609" x="190.0251" y="283.7803">ListStackMonitoringMonitoredResourceTypes</text><text fill="#0F172A" font-family="Helvetica" font-size="14" lengthAdjust="spacing" textLength="47.4688" x="190.0251" y="297.7803">fallback</text><rect fill="#F8FAFC" height="76" rx="8" ry="8" style="stroke:#0F172A;stroke-width:0.5;" width="430.0879" x="130.9944" y="331"/><text fill="#0F172A" font-family="Helvetica" font-size="14" lengthAdjust="spacing" textLength="24.8965" x="140.9944" y="351.7803">Use</text><text fill="#0F172A" font-family="Helvetica" font-size="14" lengthAdjust="spacing" textLength="410.0879" x="140.9944" y="365.7803">scaffold_stackmonitoring_stackmonitoringmonitoredresourcetypes</text><text fill="#0F172A" font-family="Helvetica" font-size="14" lengthAdjust="spacing" textLength="297.2402" x="140.9944" y="379.7803">filters compartment_id, state when OCID lookup</text><text fill="#0F172A" font-family="Helvetica" font-size="14" lengthAdjust="spacing" textLength="259.9023" x="140.9944" y="393.7803">or bind-versus-create needs list resolution</text><polygon fill="#E2E8F0" points="292.3489,427,399.7278,427,411.7278,439,399.7278,451,292.3489,451,280.3489,439,292.3489,427" style="stroke:#1D4ED8;stroke-width:0.5;"/><text fill="#0F172A" font-family="Helvetica" font-size="14" lengthAdjust="spacing" textLength="107.3789" x="292.3489" y="442.7803">Resource exists?</text><text fill="#000000" font-family="Helvetica" font-size="14" lengthAdjust="spacing" textLength="21.7861" x="258.5627" y="435.7803">yes</text><text fill="#000000" font-family="Helvetica" font-size="14" lengthAdjust="spacing" textLength="15.5723" x="411.7278" y="435.7803">no</text><rect fill="#F8FAFC" height="48" rx="8" ry="8" style="stroke:#0F172A;stroke-width:0.5;" width="325.8193" x="11" y="461"/><text fill="#0F172A" font-family="Helvetica" font-size="14" lengthAdjust="spacing" textLength="108.1787" x="21" y="481.7803">Update path calls</text><text fill="#0F172A" font-family="Helvetica" font-size="14" lengthAdjust="spacing" textLength="305.8193" x="21" y="495.7803">UpdateStackMonitoringMonitoredResourceTypes</text><rect fill="#F8FAFC" height="48" rx="8" ry="8" style="stroke:#0F172A;stroke-width:0.5;" width="266.7021" x="40.5586" y="529"/><text fill="#0F172A" font-family="Helvetica" font-size="14" lengthAdjust="spacing" textLength="246.7021" x="50.5586" y="549.7803">Guard mutable fields display_name and</text><text fill="#0F172A" font-family="Helvetica" font-size="14" lengthAdjust="spacing" textLength="202.3096" x="50.5586" y="563.7803">force-new fields compartment_id</text><rect fill="#F8FAFC" height="48" rx="8" ry="8" style="stroke:#0F172A;stroke-width:0.5;" width="322.6953" x="356.8193" y="461"/><text fill="#0F172A" font-family="Helvetica" font-size="14" lengthAdjust="spacing" textLength="105.0547" x="366.8193" y="481.7803">Create path calls</text><text fill="#0F172A" font-family="Helvetica" font-size="14" lengthAdjust="spacing" textLength="302.6953" x="366.8193" y="495.7803">CreateStackMonitoringMonitoredResourceTypes</text><polygon fill="#E2E8F0" points="346.0383,583,358.0383,595,346.0383,607,334.0383,595,346.0383,583" style="stroke:#1D4ED8;stroke-width:0.5;"/><rect fill="#F8FAFC" height="104" rx="8" ry="8" style="stroke:#0F172A;stroke-width:0.5;" width="334.3164" x="178.8801" y="627"/><text fill="#0F172A" font-family="Helvetica" font-size="14" lengthAdjust="spacing" textLength="164.2061" x="188.8801" y="647.7803">Run provider helper hooks</text><text fill="#0F172A" font-family="Helvetica" font-size="14" lengthAdjust="spacing" textLength="219.0508" x="188.8801" y="661.7803">create=tfresource.CreateResource,</text><text fill="#0F172A" font-family="Helvetica" font-size="14" lengthAdjust="spacing" textLength="314.3164" x="188.8801" y="675.7803">tfresource.WaitForWorkRequestWithErrorHandling</text><text fill="#0F172A" font-family="Helvetica" font-size="14" lengthAdjust="spacing" textLength="215.5439" x="188.8801" y="689.7803">entity=template action=CREATED;</text><text fill="#0F172A" font-family="Helvetica" font-size="14" lengthAdjust="spacing" textLength="226.085" x="188.8801" y="703.7803">update=tfresource.UpdateResource;</text><text fill="#0F172A" font-family="Helvetica" font-size="14" lengthAdjust="spacing" textLength="212.8438" x="188.8801" y="717.7803">delete=tfresource.DeleteResource</text><rect fill="#F8FAFC" height="34" rx="8" ry="8" style="stroke:#0F172A;stroke-width:0.5;" width="263.5918" x="214.2424" y="751"/><text fill="#0F172A" font-family="Helvetica" font-size="14" lengthAdjust="spacing" textLength="243.5918" x="224.2424" y="771.7803">Apply repo-authored secret policy none</text><rect fill="#F8FAFC" height="104" rx="8" ry="8" style="stroke:#0F172A;stroke-width:0.5;" width="321.1436" x="185.4666" y="805"/><text fill="#0F172A" font-family="Helvetica" font-size="14" lengthAdjust="spacing" textLength="105.0684" x="195.4666" y="825.7803">Delete path uses</text><text fill="#0F172A" font-family="Helvetica" font-size="14" lengthAdjust="spacing" textLength="301.1436" x="195.4666" y="839.7803">DeleteStackMonitoringMonitoredResourceTypes</text><text fill="#0F172A" font-family="Helvetica" font-size="14" lengthAdjust="spacing" textLength="101.9375" x="195.4666" y="853.7803">with required via</text><text fill="#0F172A" font-family="Helvetica" font-size="14" lengthAdjust="spacing" textLength="299.5781" x="195.4666" y="867.7803">GetStackMonitoringMonitoredResourceTypes or</text><text fill="#0F172A" font-family="Helvetica" font-size="14" lengthAdjust="spacing" textLength="298.0264" x="195.4666" y="881.7803">ListStackMonitoringMonitoredResourceTypes to</text><text fill="#0F172A" font-family="Helvetica" font-size="14" lengthAdjust="spacing" textLength="144.7168" x="195.4666" y="895.7803">DELETED confirmation</text><rect fill="#F8FAFC" height="48" rx="8" ry="8" style="stroke:#0F172A;stroke-width:0.5;" width="279.1299" x="206.4734" y="929"/><text fill="#0F172A" font-family="Helvetica" font-size="14" lengthAdjust="spacing" textLength="259.1299" x="216.4734" y="949.7803">Project required status and finalizer policy</text><text fill="#0F172A" font-family="Helvetica" font-size="14" lengthAdjust="spacing" textLength="174.3027" x="216.4734" y="963.7803">retain-until-confirmed-delete</text><rect fill="#F8FAFC" height="34" rx="8" ry="8" style="stroke:#0F172A;stroke-width:0.5;" width="313.4189" x="189.3289" y="997"/><text fill="#0F172A" font-family="Helvetica" font-size="14" lengthAdjust="spacing" textLength="293.4189" x="199.3289" y="1017.7803">Requeue on provisioning, updating, terminating</text><path d="M377.0383,1041 L377.0383,1217 L357.0383,1221 L377.0383,1225 L377.0383,1401 A0,0 0 0 0 377.0383,1401 L717.0784,1401 A0,0 0 0 0 717.0784,1401 L717.0784,1051 L707.0784,1041 L377.0383,1041 A0,0 0 0 0 377.0383,1041" fill="#FFF7D6" style="stroke:#B45309;stroke-width:0.5;"/><path d="M707.0784,1041 L707.0784,1051 L717.0784,1051 L707.0784,1041" fill="#FFF7D6" style="stroke:#B45309;stroke-width:0.5;"/><text fill="#334155" font-family="Helvetica" font-size="14" lengthAdjust="spacing" textLength="101.165" x="383.0383" y="1056.7803">shared diagram:</text><text fill="#334155" font-family="Helvetica" font-size="14" lengthAdjust="spacing" textLength="284.7852" x="383.0383" y="1070.7803">shared/diagrams/shared-reconcile-activity.svg</text><text fill="#334155" font-family="Helvetica" font-size="14" lengthAdjust="spacing" textLength="265.3438" x="383.0383" y="1084.7803">Start from the shared reconcile activity and</text><text fill="#334155" font-family="Helvetica" font-size="14" lengthAdjust="spacing" textLength="273.8955" x="383.0383" y="1098.7803">specialize provider-backed CRUD, wait, and</text><text fill="#334155" font-family="Helvetica" font-size="14" lengthAdjust="spacing" textLength="182.875" x="383.0383" y="1112.7803">status-projection details here.</text><text fill="#334155" font-family="Helvetica" font-size="14" lengthAdjust="spacing" textLength="229.5371" x="383.0383" y="1126.7803">Controller-local activity diagrams add</text><text fill="#334155" font-family="Helvetica" font-size="14" lengthAdjust="spacing" textLength="238.8955" x="383.0383" y="1140.7803">list-lookup hints, secret policies, delete</text><text fill="#334155" font-family="Helvetica" font-size="14" lengthAdjust="spacing" textLength="200.0332" x="383.0383" y="1154.7803">handling, and open formal gaps.</text><text fill="#334155" font-family="Helvetica" font-size="14" lengthAdjust="spacing" textLength="281.709" x="383.0383" y="1168.7803">archetype batch: Generated service-manager</text><text fill="#334155" font-family="Helvetica" font-size="14" lengthAdjust="spacing" textLength="291.0469" x="383.0383" y="1182.7803">controllers specialize the shared reconcile path</text><text fill="#334155" font-family="Helvetica" font-size="14" lengthAdjust="spacing" textLength="189.8477" x="383.0383" y="1196.7803">with formal runtime ownership.</text><text fill="#334155" font-family="Helvetica" font-size="14" lengthAdjust="spacing" textLength="150.165" x="383.0383" y="1210.7803">service: stackmonitoring</text><text fill="#334155" font-family="Helvetica" font-size="14" lengthAdjust="spacing" textLength="281.6885" x="383.0383" y="1224.7803">slug: stackmonitoringmonitoredresourcetypes</text><text fill="#334155" font-family="Helvetica" font-size="14" lengthAdjust="spacing" textLength="294.1367" x="383.0383" y="1238.7803">kind: StackMonitoringMonitoredResourceTypes</text><text fill="#334155" font-family="Helvetica" font-size="14" lengthAdjust="spacing" textLength="241.2402" x="383.0383" y="1252.7803">archetype: generated-service-manager</text><text fill="#334155" font-family="Helvetica" font-size="14" lengthAdjust="spacing" textLength="156.4063" x="383.0383" y="1266.7803">status/finalizer: required /</text><text fill="#334155" font-family="Helvetica" font-size="14" lengthAdjust="spacing" textLength="174.3027" x="383.0383" y="1280.7803">retain-until-confirmed-delete</text><text fill="#334155" font-family="Helvetica" font-size="14" lengthAdjust="spacing" textLength="272.3984" x="383.0383" y="1294.7803">requeue: provisioning, updating, terminating</text><text fill="#334155" font-family="Helvetica" font-size="14" lengthAdjust="spacing" textLength="295.6816" x="383.0383" y="1308.7803">provider states: create PROVISIONING; update</text><text fill="#334155" font-family="Helvetica" font-size="14" lengthAdjust="spacing" textLength="192.165" x="383.0383" y="1322.7803">UPDATING; delete DELETING</text><text fill="#334155" font-family="Helvetica" font-size="14" lengthAdjust="spacing" textLength="319.04" x="383.0383" y="1336.7803">mutable/forceNew: display_name / compartment_id</text><text fill="#334155" font-family="Helvetica" font-size="14" lengthAdjust="spacing" textLength="104.3164" x="383.0383" y="1350.7803">open gaps: none</text><text fill="#334155" font-family="Helvetica" font-size="14" lengthAdjust="spacing" textLength="224.9023" x="383.0383" y="1364.7803">Scaffold metadata only; replace with</text><text fill="#334155" font-family="Helvetica" font-size="14" lengthAdjust="spacing" textLength="244.3232" x="383.0383" y="1378.7803">controller-specific runtime states before</text><text fill="#334155" font-family="Helvetica" font-size="14" lengthAdjust="spacing" textLength="66.1445" x="383.0383" y="1392.7803">promotion.</text><ellipse cx="346.0383" cy="1221" fill="none" rx="11" ry="11" style="stroke:#222222;stroke-width:1;"/><ellipse cx="346.0383" cy="1221" fill="#222222" rx="6" ry="6" style="stroke:#222222;stroke-width:1;"/><line style="stroke:#0F172A;stroke-width:1;" x1="346.0383" x2="346.0383" y1="65" y2="85"/><polygon fill="#0F172A" points="342.0383,75,346.0383,85,350.0383,75,346.0383,79" style="stroke:#0F172A;stroke-width:1;"/><line style="stroke:#0F172A;stroke-width:1;" x1="346.0383" x2="346.0383" y1="133" y2="153"/><polygon fill="#0F172A" points="342.0383,143,346.0383,153,350.0383,143,346.0383,147" style="stroke:#0F172A;stroke-width:1;"/><line style="stroke:#0F172A;stroke-width:1;" x1="346.0383" x2="346.0383" y1="215" y2="235"/><polygon fill="#0F172A" points="342.0383,225,346.0383,235,350.0383,225,346.0383,229" style="stroke:#0F172A;stroke-width:1;"/><line style="stroke:#0F172A;stroke-width:1;" x1="346.0383" x2="346.0383" y1="311" y2="331"/><polygon fill="#0F172A" points="342.0383,321,346.0383,331,350.0383,321,346.0383,325" style="stroke:#0F172A;stroke-width:1;"/><line style="stroke:#0F172A;stroke-width:1;" x1="173.9097" x2="173.9097" y1="509" y2="529"/><polygon fill="#0F172A" points="169.9097,519,173.9097,529,177.9097,519,173.9097,523" style="stroke:#0F172A;stroke-width:1;"/><line style="stroke:#0F172A;stroke-width:1;" x1="280.3489" x2="173.9097" y1="439" y2="439"/><line style="stroke:#0F172A;stroke-width:1;" x1="173.9097" x2="173.9097" y1="439" y2="461"/><polygon fill="#0F172A" points="169.9097,451,173.9097,461,177.9097,451,173.9097,455" style="stroke:#0F172A;stroke-width:1;"/><line style="stroke:#0F172A;stroke-width:1;" x1="411.7278" x2="518.167" y1="439" y2="439"/><line style="stroke:#0F172A;stroke-width:1;" x1="518.167" x2="518.167" y1="439" y2="461"/><polygon fill="#0F172A" points="514.167,451,518.167,461,522.167,451,518.167,455" style="stroke:#0F172A;stroke-width:1;"/><line style="stroke:#0F172A;stroke-width:1;" x1="173.9097" x2="173.9097" y1="577" y2="595"/><line style="stroke:#0F172A;stroke-width:1;" x1="173.9097" x2="334.0383" y1="595" y2="595"/><polygon fill="#0F172A" points="324.0383,591,334.0383,595,324.0383,599,328.0383,595" style="stroke:#0F172A;stroke-width:1;"/><line style="stroke:#0F172A;stroke-width:1;" x1="518.167" x2="518.167" y1="509" y2="595"/><line style="stroke:#0F172A;stroke-width:1;" x1="518.167" x2="358.0383" y1="595" y2="595"/><polygon fill="#0F172A" points="368.0383,591,358.0383,595,368.0383,599,364.0383,595" style="stroke:#0F172A;stroke-width:1;"/><line style="stroke:#0F172A;stroke-width:1;" x1="346.0383" x2="346.0383" y1="407" y2="427"/><polygon fill="#0F172A" points="342.0383,417,346.0383,427,350.0383,417,346.0383,421" style="stroke:#0F172A;stroke-width:1;"/><line style="stroke:#0F172A;stroke-width:1;" x1="346.0383" x2="346.0383" y1="607" y2="627"/><polygon fill="#0F172A" points="342.0383,617,346.0383,627,350.0383,617,346.0383,621" style="stroke:#0F172A;stroke-width:1;"/><line style="stroke:#0F172A;stroke-width:1;" x1="346.0383" x2="346.0383" y1="731" y2="751"/><polygon fill="#0F172A" points="342.0383,741,346.0383,751,350.0383,741,346.0383,745" style="stroke:#0F172A;stroke-width:1;"/><line style="stroke:#0F172A;stroke-width:1;" x1="346.0383" x2="346.0383" y1="785" y2="805"/><polygon fill="#0F172A" points="342.0383,795,346.0383,805,350.0383,795,346.0383,799" style="stroke:#0F172A;stroke-width:1;"/><line style="stroke:#0F172A;stroke-width:1;" x1="346.0383" x2="346.0383" y1="909" y2="929"/><polygon fill="#0F172A" points="342.0383,919,346.0383,929,350.0383,919,346.0383,923" style="stroke:#0F172A;stroke-width:1;"/><line style="stroke:#0F172A;stroke-width:1;" x1="346.0383" x2="346.0383" y1="977" y2="997"/><polygon fill="#0F172A" points="342.0383,987,346.0383,997,350.0383,987,346.0383,991" style="stroke:#0F172A;stroke-width:1;"/><line style="stroke:#0F172A;stroke-width:1;" x1="346.0383" x2="346.0383" y1="1031" y2="1210"/><polygon fill="#0F172A" points="342.0383,1200,346.0383,1210,350.0383,1200,346.0383,1204" style="stroke:#0F172A;stroke-width:1;"/><?plantuml-src bLPTJoit47tthx3K5wwKJU02zzADK4M1oqMbWFWeBv6GipkRTV7QUsrlqhJgV-_nxcQp15G5vI6nFPwPCtFcEEv5wb9OKN2NYzGif9xnJ2X7p7KdKv6ypAofT7fgbB7yfop19-rPf9I9IlblHljhKH3_JcfENYRYVPjx-JVnlOFUeR3MB5hlkzdUry_zczfu-lLD3bdsDVsoQMLiIhQrc1uSxk_-l64HmhVd-_i7UuU7lVFQVMAi9iltlZ0llI9-adWvbtx98-uyaYYCbjvOr6bq7zQ_T-ls5wLtv4nb4tfObkJw85Uk_c7ydQ8UPI9BmaaVH5iCphDrujrUAWNIIT_KXZxJKRRRC-Xxt4iFA3rQ7tvxnp6GMhzfJvt_pcugDhp-o-ghBBuFNpopfYOMYi8pPHOJtIn6Y3r3IToeMKUM4gCJgIXQ5MdevhCnYw-CI44T9s4rqLjLdBkI4Yuqx96ChroJnc_LbD1QJmvkmmLGbD-SNWQmdlXSYec-8BzTY8Nq-KHVIRUT_KHZfbHeEM8_Ea9cYSWoezBd3L9jhekLFzlwywq_gJnPnnDJW5o-8EsVPJfemInoqW7R6LV6l5JbHAD7KwdJQ8vBbOiIIy5E4wMEAy3WmR-gl3Hwp6J6TrRvS_eBn-wNJzm7fpjBSf-0eKp3_LBud2U0XeoQhQtAWI9SLCAclAYyc6B8CaaAYQJIbKeidtNGaBg1cS6TIDDYPV8QxvWHf8hlQ8ESJXjC_PoQhIrp0hzb1cfKcfVMp2L6XkUaol25Ai9TKxLZdwsQCMm2h1mD9hftzYGarCu-6VjoHpygSlu9h3c7qjdl0AUGoaG31yX-xAa0ScGVw6_qyUdT-Sd3-TbuegkwhFsOJQ5NCM6IagBN9cVrJcV2ufEoL4lqk3IHg7mUq7D7mEDvQPHCbX177GoRcqqHAnUOrkniIVCm5mZpemhp-i6PClO34yMzGMhdL-Ue4aY1UR25QDWRtrhp9oL-dKSh0oWwQAI5mlDZMzmJZHe8gQCAZL1HwmcAr1IrbWhqhY9kMbeu145Q0rvtflw5IIpWDop6441Jil3KS2jdkMUj_BMA5xCFAI3hwIZcRwMbdV7wJG4u5eHFrl0w1aT1T73ZzExnRC0NeEIWCQrB4fLDgG098eiwA0VAMngoKxmArYW53yfWcjQ1LebpaQOiI4VKQ0pFfVPky8fMah3HL9BbBUVh-DoK41DCTm7NCr6w8HCsoMjrmwlYappc5uI764mFJBLp2HqeX1OpiYpfacl4liNyRe42arbDopQQ3Ps6lfW5tBjSbaFM-eytNtZcL3Lxi_k-93CyysdCj_jFq66D-Mo5Cjf4sRHer34sNXDwnFwNjSmsd8stOIphnAv-ErpCsyVXzkxcZylxovlho-kBSNENsEFjsSb3lT64ulKCOeErMZwg9VkQ5l5hEHzjI3Uh6H1Q7zVQm-xR5v4NW8PO0XEdbkCWMahW7Gezx7K-gXkVoQHhQ9C-dn8oe82gC87Omo3izN-__m00?></g></svg>