<?plantuml 1.2026.1?><svg xmlns="http://www.w3.org/2000/svg" xmlns:xlink="http://www.w3.org/1999/xlink" contentStyleType="text/css" data-diagram-type="SEQUENCE" height="2090px" preserveAspectRatio="none" style="width:1340px;height:2090px;background:#FCFCFD;" version="1.1" viewBox="0 0 1340 2090" width="1340px" zoomAndPan="magnify"><title>Sequence - licensemanager/LicenseManagerTopUtilizedProductLicenses</title><defs/><g><rect fill="#FCFCFD" height="2090" style="stroke:none;stroke-width:1;" width="1340" x="0" y="0"/><text fill="#000000" font-family="Helvetica" font-size="14" font-weight="bold" lengthAdjust="spacing" textLength="486.2607" x="432.272" y="25.7803">Sequence - licensemanager/LicenseManagerTopUtilizedProductLicenses</text><rect fill="none" height="290" rx="8" ry="8" style="stroke:#CBD5E1;stroke-width:1.5;" width="781.335" x="517.6455" y="356"/><rect fill="none" height="146" rx="8" ry="8" style="stroke:#CBD5E1;stroke-width:1.5;" width="502.4673" x="786.5132" y="465"/><rect fill="none" height="44" rx="8" ry="8" style="stroke:#CBD5E1;stroke-width:1.5;" width="482.4673" x="796.5132" y="516"/><rect fill="none" height="868" rx="8" ry="8" style="stroke:#CBD5E1;stroke-width:1.5;" width="817.8218" x="497.6455" y="660"/><rect fill="none" height="302" rx="8" ry="8" style="stroke:#CBD5E1;stroke-width:1.5;" width="781.335" x="507.6455" y="683"/><rect fill="none" height="72" rx="8" ry="8" style="stroke:#CBD5E1;stroke-width:1.5;" width="482.4673" x="796.5132" y="804"/><rect fill="none" height="88" rx="8" ry="8" style="stroke:#CBD5E1;stroke-width:1.5;" width="455.2603" x="517.6455" y="890"/><rect fill="none" height="392" rx="8" ry="8" style="stroke:#CBD5E1;stroke-width:1.5;" width="797.8218" x="507.6455" y="1087"/><rect fill="none" height="44" rx="8" ry="8" style="stroke:#CBD5E1;stroke-width:1.5;" width="455.2603" x="517.6455" y="1186"/><rect fill="none" height="130" rx="8" ry="8" style="stroke:#CBD5E1;stroke-width:1.5;" width="502.4673" x="786.5132" y="1244"/><rect fill="none" height="44" rx="8" ry="8" style="stroke:#CBD5E1;stroke-width:1.5;" width="482.4673" x="796.5132" y="1323"/><g class="participant-lifeline" data-entity-uid="part1" data-qualified-name="Kubernetes" id="part1-lifeline"><g><title>Kubernetes</title><rect fill="#000000" fill-opacity="0.00000" height="1969" width="8" x="39.8032" y="114"/><line style="stroke:#94A3B8;stroke-width:0.5;stroke-dasharray:5,5;" x1="43" x2="43" y1="114" y2="2083"/></g></g><g class="participant-lifeline" data-entity-uid="part2" data-qualified-name="Controller" id="part2-lifeline"><g><title>Controller</title><rect fill="#000000" fill-opacity="0.00000" height="1969" width="8" x="340.8433" y="114"/><line style="stroke:#94A3B8;stroke-width:0.5;stroke-dasharray:5,5;" x1="344.4985" x2="344.4985" y1="114" y2="2083"/></g></g><g class="participant-lifeline" data-entity-uid="part3" data-qualified-name="BaseReconciler" id="part3-lifeline"><g><title>BaseReconciler</title><rect fill="#000000" fill-opacity="0.00000" height="1969" width="8" x="579.6694" y="114"/><line style="stroke:#94A3B8;stroke-width:0.5;stroke-dasharray:5,5;" x1="583.6455" x2="583.6455" y1="114" y2="2083"/></g></g><g class="participant-lifeline" data-entity-uid="part4" data-qualified-name="ServiceManager" id="part4-lifeline"><g><title>OSOKServiceManager</title><rect fill="#000000" fill-opacity="0.00000" height="1969" width="8" x="880.7095" y="114"/><line style="stroke:#94A3B8;stroke-width:0.5;stroke-dasharray:5,5;" x1="884.5132" x2="884.5132" y1="114" y2="2083"/></g></g><g class="participant-lifeline" data-entity-uid="part5" data-qualified-name="OCI" id="part5-lifeline"><g><title>OCI</title><rect fill="#000000" fill-opacity="0.00000" height="1969" width="8" x="1245.5356" y="114"/><line style="stroke:#94A3B8;stroke-width:0.5;stroke-dasharray:5,5;" x1="1249.0908" x2="1249.0908" y1="114" y2="2083"/></g></g><g class="participant participant-head" data-entity-uid="part1" data-qualified-name="Kubernetes" id="part1-head"><text fill="#000000" font-family="Helvetica" font-size="14" lengthAdjust="spacing" textLength="71.6064" x="5" y="110.7803">Kubernetes</text><ellipse cx="43.8032" cy="48.5" fill="#E2E8F0" rx="8" ry="8" style="stroke:#0F172A;stroke-width:0.5;"/><path d="M43.8032,56.5 L43.8032,83.5 M30.8032,64.5 L56.8032,64.5 M43.8032,83.5 L30.8032,98.5 M43.8032,83.5 L56.8032,98.5" fill="none" style="stroke:#0F172A;stroke-width:0.5;"/></g><g class="participant participant-head" data-entity-uid="part2" data-qualified-name="Controller" id="part2-head"><rect fill="#E2E8F0" height="28" rx="8" ry="8" style="stroke:#0F172A;stroke-width:0.5;" width="74.6895" x="307.4985" y="85"/><text fill="#0F172A" font-family="Helvetica" font-size="14" lengthAdjust="spacing" textLength="60.6895" x="314.4985" y="102.7803">Controller</text></g><g class="participant participant-head" data-entity-uid="part3" data-qualified-name="BaseReconciler" id="part3-head"><rect fill="#E2E8F0" height="28" rx="8" ry="8" style="stroke:#0F172A;stroke-width:0.5;" width="112.0479" x="527.6455" y="85"/><text fill="#0F172A" font-family="Helvetica" font-size="14" lengthAdjust="spacing" textLength="98.0479" x="534.6455" y="102.7803">BaseReconciler</text></g><g class="participant participant-head" data-entity-uid="part4" data-qualified-name="ServiceManager" id="part4-head"><rect fill="#E2E8F0" height="28" rx="8" ry="8" style="stroke:#0F172A;stroke-width:0.5;" width="156.3926" x="806.5132" y="85"/><text fill="#0F172A" font-family="Helvetica" font-size="14" lengthAdjust="spacing" textLength="142.3926" x="813.5132" y="102.7803">OSOKServiceManager</text></g><g class="participant participant-head" data-entity-uid="part5" data-qualified-name="OCI" id="part5-head"><rect fill="#E2E8F0" height="28" rx="8" ry="8" style="stroke:#0F172A;stroke-width:0.5;" width="38.8896" x="1230.0908" y="85"/><text fill="#0F172A" font-family="Helvetica" font-size="14" lengthAdjust="spacing" textLength="24.8896" x="1237.0908" y="102.7803">OCI</text></g><path d="M519,137 L519,187 A8,8 0 0 0 527,195 L941,195 A8,8 0 0 0 949,187 L949,139 L939,129 L527,129 A8,8 0 0 0 519,137" fill="#FFF7D6" style="stroke:#B45309;stroke-width:0.5;"/><path d="M939,129 L939,135 A4,4 0 0 0 943,139 L949,139 L939,129" fill="#FFF7D6" style="stroke:#B45309;stroke-width:0.5;"/><text fill="#334155" font-family="Helvetica" font-size="14" lengthAdjust="spacing" textLength="111.2891" x="575.9343" y="144.7803">shared resolution:</text><text fill="#334155" font-family="Helvetica" font-size="14" lengthAdjust="spacing" textLength="307.3916" x="575.9343" y="158.7803">shared/diagrams/shared-resolution-sequence.svg</text><text fill="#334155" font-family="Helvetica" font-size="14" lengthAdjust="spacing" textLength="88.7305" x="575.9343" y="172.7803">shared delete:</text><text fill="#334155" font-family="Helvetica" font-size="14" lengthAdjust="spacing" textLength="284.833" x="575.9343" y="186.7803">shared/diagrams/shared-delete-sequence.svg</text><g class="message" data-entity-1="part1" data-entity-2="part2" id="msg1"><polygon fill="#0F172A" points="332.8433,244,342.8433,248,332.8433,252,336.8433,248" style="stroke:#0F172A;stroke-width:1;"/><line style="stroke:#0F172A;stroke-width:1;" x1="43.8032" x2="338.8433" y1="248" y2="248"/><text fill="#000000" font-family="Helvetica" font-size="14" lengthAdjust="spacing" textLength="54.5029" x="50.8032" y="214.7803">enqueue</text><text fill="#000000" font-family="Helvetica" font-size="14" lengthAdjust="spacing" textLength="277.04" x="50.8032" y="228.7803">LicenseManagerTopUtilizedProductLicenses</text><text fill="#000000" font-family="Helvetica" font-size="14" lengthAdjust="spacing" textLength="56.0273" x="50.8032" y="242.7803">reconcile</text></g><g class="message" data-entity-1="part2" data-entity-2="part3" id="msg2"><polygon fill="#0F172A" points="571.6694,272,581.6694,276,571.6694,280,575.6694,276" style="stroke:#0F172A;stroke-width:1;"/><line style="stroke:#0F172A;stroke-width:1;" x1="344.8433" x2="577.6694" y1="276" y2="276"/><text fill="#000000" font-family="Helvetica" font-size="14" lengthAdjust="spacing" textLength="117.4961" x="351.8433" y="270.7803">Reconcile(request)</text></g><g class="message" data-entity-1="part3" data-entity-2="part4" id="msg3"><polygon fill="#0F172A" points="872.7095,314,882.7095,318,872.7095,322,876.7095,318" style="stroke:#0F172A;stroke-width:1;"/><line style="stroke:#0F172A;stroke-width:1;" x1="583.6694" x2="878.7095" y1="318" y2="318"/><text fill="#000000" font-family="Helvetica" font-size="14" lengthAdjust="spacing" textLength="105.834" x="590.6694" y="298.7803">reconcile desired</text><text fill="#000000" font-family="Helvetica" font-size="14" lengthAdjust="spacing" textLength="277.04" x="590.6694" y="312.7803">LicenseManagerTopUtilizedProductLicenses</text></g><path d="M525.6455,356 L578.9834,356 L578.9834,362 L568.9834,372 L517.6455,372 L517.6455,364 A8,8 0 0 1 525.6455,356" fill="#F8FAFC" style="stroke:#CBD5E1;stroke-width:1.5;"/><rect fill="none" height="290" rx="8" ry="8" style="stroke:#CBD5E1;stroke-width:1.5;" width="781.335" x="517.6455" y="356"/><text fill="#000000" font-family="Helvetica" font-size="14" font-weight="bold" lengthAdjust="spacing" textLength="16.3379" x="532.6455" y="367.7803">alt</text><text fill="#000000" font-family="Helvetica" font-size="14" font-weight="bold" lengthAdjust="spacing" textLength="308.1094" x="593.9834" y="368.7803">[tracked or explicit OCI identity already exists]</text><g class="message" data-entity-1="part4" data-entity-2="part5" id="msg4"><polygon fill="#0F172A" points="1237.5356,388,1247.5356,392,1237.5356,396,1241.5356,392" style="stroke:#0F172A;stroke-width:1;"/><line style="stroke:#0F172A;stroke-width:1;" x1="884.7095" x2="1243.5356" y1="392" y2="392"/><text fill="#000000" font-family="Helvetica" font-size="14" lengthAdjust="spacing" textLength="299.6055" x="891.7095" y="386.7803">GetLicenseManagerTopUtilizedProductLicenses</text></g><line style="stroke:#CBD5E1;stroke-width:1;stroke-dasharray:2,2;" x1="517.6455" x2="1298.9805" y1="401" y2="401"/><text fill="#000000" font-family="Helvetica" font-size="14" font-weight="bold" lengthAdjust="spacing" textLength="185.1582" x="522.6455" y="411.7803">[tracked identity is missing]</text><g class="message" data-entity-1="part4" data-entity-2="part5" id="msg5"><polygon fill="#0F172A" points="1237.5356,446,1247.5356,450,1237.5356,454,1241.5356,450" style="stroke:#0F172A;stroke-width:1;"/><line style="stroke:#0F172A;stroke-width:1;" x1="884.7095" x2="1243.5356" y1="450" y2="450"/><text fill="#000000" font-family="Helvetica" font-size="14" lengthAdjust="spacing" textLength="340.8262" x="891.7095" y="430.7803">ListLicenseManagerTopUtilizedProductLicenses(filters:</text><text fill="#000000" font-family="Helvetica" font-size="14" lengthAdjust="spacing" textLength="143.1719" x="891.7095" y="444.7803">compartment_id, state)</text></g><path d="M794.5132,465 L847.8511,465 L847.8511,471 L837.8511,481 L786.5132,481 L786.5132,473 A8,8 0 0 1 794.5132,465" fill="#F8FAFC" style="stroke:#CBD5E1;stroke-width:1.5;"/><rect fill="none" height="146" rx="8" ry="8" style="stroke:#CBD5E1;stroke-width:1.5;" width="502.4673" x="786.5132" y="465"/><text fill="#000000" font-family="Helvetica" font-size="14" font-weight="bold" lengthAdjust="spacing" textLength="16.3379" x="801.5132" y="476.7803">alt</text><text fill="#000000" font-family="Helvetica" font-size="14" font-weight="bold" lengthAdjust="spacing" textLength="242.7031" x="862.8511" y="477.7803">[reusable OCI resource is not found]</text><g class="message" data-entity-1="part4" data-entity-2="part5" id="msg6"><polygon fill="#0F172A" points="1237.5356,497,1247.5356,501,1237.5356,505,1241.5356,501" style="stroke:#0F172A;stroke-width:1;"/><line style="stroke:#0F172A;stroke-width:1;" x1="884.7095" x2="1243.5356" y1="501" y2="501"/><text fill="#000000" font-family="Helvetica" font-size="14" lengthAdjust="spacing" textLength="319.0605" x="891.7095" y="495.7803">CreateLicenseManagerTopUtilizedProductLicenses</text></g><path d="M804.5132,516 L871.0581,516 L871.0581,522 L861.0581,532 L796.5132,532 L796.5132,524 A8,8 0 0 1 804.5132,516" fill="#F8FAFC" style="stroke:#CBD5E1;stroke-width:1.5;"/><rect fill="none" height="44" rx="8" ry="8" style="stroke:#CBD5E1;stroke-width:1.5;" width="482.4673" x="796.5132" y="516"/><text fill="#000000" font-family="Helvetica" font-size="14" font-weight="bold" lengthAdjust="spacing" textLength="29.5449" x="811.5132" y="527.7803">loop</text><text fill="#000000" font-family="Helvetica" font-size="14" font-weight="bold" lengthAdjust="spacing" textLength="215.4756" x="886.0581" y="528.7803">[create pending PROVISIONING]</text><g class="message" data-entity-1="part4" data-entity-2="part5" id="msg7"><polygon fill="#0F172A" points="1237.5356,548,1247.5356,552,1237.5356,556,1241.5356,552" style="stroke:#0F172A;stroke-width:1;"/><line style="stroke:#0F172A;stroke-width:1;" x1="884.7095" x2="1243.5356" y1="552" y2="552"/><text fill="#000000" font-family="Helvetica" font-size="14" lengthAdjust="spacing" textLength="299.6055" x="891.7095" y="546.7803">GetLicenseManagerTopUtilizedProductLicenses</text></g><line style="stroke:#CBD5E1;stroke-width:1;stroke-dasharray:2,2;" x1="786.5132" x2="1288.9805" y1="568" y2="568"/><text fill="#000000" font-family="Helvetica" font-size="14" font-weight="bold" lengthAdjust="spacing" textLength="255.2334" x="791.5132" y="578.7803">[reusable OCI resource already exists]</text><g class="message" data-entity-1="part4" data-entity-2="part5" id="msg8"><polygon fill="#0F172A" points="1237.5356,599,1247.5356,603,1237.5356,607,1241.5356,603" style="stroke:#0F172A;stroke-width:1;"/><line style="stroke:#0F172A;stroke-width:1;" x1="884.7095" x2="1243.5356" y1="603" y2="603"/><text fill="#000000" font-family="Helvetica" font-size="14" lengthAdjust="spacing" textLength="299.6055" x="891.7095" y="597.7803">GetLicenseManagerTopUtilizedProductLicenses</text></g><g class="message" data-entity-1="part4" data-entity-2="part3" id="msg9"><polygon fill="#0F172A" points="594.6694,634,584.6694,638,594.6694,642,590.6694,638" style="stroke:#0F172A;stroke-width:1;"/><line style="stroke:#0F172A;stroke-width:1;stroke-dasharray:2,2;" x1="588.6694" x2="883.7095" y1="638" y2="638"/><text fill="#000000" font-family="Helvetica" font-size="14" lengthAdjust="spacing" textLength="231.0957" x="600.6694" y="632.7803">persist resolved OCI identity in status</text></g><path d="M505.6455,660 L558.9834,660 L558.9834,666 L548.9834,676 L497.6455,676 L497.6455,668 A8,8 0 0 1 505.6455,660" fill="#F8FAFC" style="stroke:#CBD5E1;stroke-width:1.5;"/><rect fill="none" height="868" rx="8" ry="8" style="stroke:#CBD5E1;stroke-width:1.5;" width="817.8218" x="497.6455" y="660"/><text fill="#000000" font-family="Helvetica" font-size="14" font-weight="bold" lengthAdjust="spacing" textLength="16.3379" x="512.6455" y="671.7803">alt</text><text fill="#000000" font-family="Helvetica" font-size="14" font-weight="bold" lengthAdjust="spacing" textLength="120.5859" x="573.9834" y="672.7803">[delete requested]</text><path d="M515.6455,683 L594.666,683 L594.666,689 L584.666,699 L507.6455,699 L507.6455,691 A8,8 0 0 1 515.6455,683" fill="#F8FAFC" style="stroke:#CBD5E1;stroke-width:1.5;"/><rect fill="none" height="302" rx="8" ry="8" style="stroke:#CBD5E1;stroke-width:1.5;" width="781.335" x="507.6455" y="683"/><text fill="#000000" font-family="Helvetica" font-size="14" font-weight="bold" lengthAdjust="spacing" textLength="42.0205" x="522.6455" y="694.7803">Delete</text><g class="message" data-entity-1="part4" data-entity-2="part5" id="msg10"><polygon fill="#0F172A" points="1237.5356,715,1247.5356,719,1237.5356,723,1241.5356,719" style="stroke:#0F172A;stroke-width:1;"/><line style="stroke:#0F172A;stroke-width:1;" x1="884.7095" x2="1243.5356" y1="719" y2="719"/><text fill="#000000" font-family="Helvetica" font-size="14" lengthAdjust="spacing" textLength="317.5088" x="891.7095" y="713.7803">DeleteLicenseManagerTopUtilizedProductLicenses</text></g><g class="message" data-entity-1="part4" data-entity-2="part5" id="msg11"><polygon fill="#0F172A" points="1237.5356,785,1247.5356,789,1237.5356,793,1241.5356,789" style="stroke:#0F172A;stroke-width:1;"/><line style="stroke:#0F172A;stroke-width:1;" x1="884.7095" x2="1243.5356" y1="789" y2="789"/><text fill="#000000" font-family="Helvetica" font-size="14" lengthAdjust="spacing" textLength="109.7168" x="891.7095" y="741.7803">confirm delete via</text><text fill="#000000" font-family="Helvetica" font-size="14" lengthAdjust="spacing" textLength="299.6055" x="891.7095" y="755.7803">GetLicenseManagerTopUtilizedProductLicenses</text><text fill="#000000" font-family="Helvetica" font-size="14" lengthAdjust="spacing" textLength="12.4482" x="891.7095" y="769.7803">or</text><text fill="#000000" font-family="Helvetica" font-size="14" lengthAdjust="spacing" textLength="298.8262" x="891.7095" y="783.7803">ListLicenseManagerTopUtilizedProductLicenses</text></g><path d="M804.5132,804 L871.0581,804 L871.0581,810 L861.0581,820 L796.5132,820 L796.5132,812 A8,8 0 0 1 804.5132,804" fill="#F8FAFC" style="stroke:#CBD5E1;stroke-width:1.5;"/><rect fill="none" height="72" rx="8" ry="8" style="stroke:#CBD5E1;stroke-width:1.5;" width="482.4673" x="796.5132" y="804"/><text fill="#000000" font-family="Helvetica" font-size="14" font-weight="bold" lengthAdjust="spacing" textLength="29.5449" x="811.5132" y="815.7803">loop</text><text fill="#000000" font-family="Helvetica" font-size="14" font-weight="bold" lengthAdjust="spacing" textLength="182.7793" x="886.0581" y="816.7803">[delete pending DELETING]</text><g class="message" data-entity-1="part4" data-entity-2="part5" id="msg12"><polygon fill="#0F172A" points="1237.5356,864,1247.5356,868,1237.5356,872,1241.5356,868" style="stroke:#0F172A;stroke-width:1;"/><line style="stroke:#0F172A;stroke-width:1;" x1="884.7095" x2="1243.5356" y1="868" y2="868"/><text fill="#000000" font-family="Helvetica" font-size="14" lengthAdjust="spacing" textLength="299.6055" x="891.7095" y="834.7803">GetLicenseManagerTopUtilizedProductLicenses</text><text fill="#000000" font-family="Helvetica" font-size="14" lengthAdjust="spacing" textLength="12.4482" x="891.7095" y="848.7803">or</text><text fill="#000000" font-family="Helvetica" font-size="14" lengthAdjust="spacing" textLength="298.8262" x="891.7095" y="862.7803">ListLicenseManagerTopUtilizedProductLicenses</text></g><path d="M525.6455,890 L578.9834,890 L578.9834,896 L568.9834,906 L517.6455,906 L517.6455,898 A8,8 0 0 1 525.6455,890" fill="#F8FAFC" style="stroke:#CBD5E1;stroke-width:1.5;"/><rect fill="none" height="88" rx="8" ry="8" style="stroke:#CBD5E1;stroke-width:1.5;" width="455.2603" x="517.6455" y="890"/><text fill="#000000" font-family="Helvetica" font-size="14" font-weight="bold" lengthAdjust="spacing" textLength="16.3379" x="532.6455" y="901.7803">alt</text><text fill="#000000" font-family="Helvetica" font-size="14" font-weight="bold" lengthAdjust="spacing" textLength="261.4268" x="593.9834" y="902.7803">[cleanup or finalizer release is blocked]</text><g class="message" data-entity-1="part4" data-entity-2="part3" id="msg13"><polygon fill="#0F172A" points="594.6694,922,584.6694,926,594.6694,930,590.6694,926" style="stroke:#0F172A;stroke-width:1;"/><line style="stroke:#0F172A;stroke-width:1;stroke-dasharray:2,2;" x1="588.6694" x2="883.7095" y1="926" y2="926"/><text fill="#000000" font-family="Helvetica" font-size="14" lengthAdjust="spacing" textLength="170.4336" x="600.6694" y="920.7803">retain delete state and retry</text></g><line style="stroke:#CBD5E1;stroke-width:1;stroke-dasharray:2,2;" x1="517.6455" x2="972.9058" y1="935" y2="935"/><text fill="#000000" font-family="Helvetica" font-size="14" font-weight="bold" lengthAdjust="spacing" textLength="194.4824" x="522.6455" y="945.7803">[delete completion observed]</text><g class="message" data-entity-1="part4" data-entity-2="part3" id="msg14"><polygon fill="#0F172A" points="594.6694,966,584.6694,970,594.6694,974,590.6694,970" style="stroke:#0F172A;stroke-width:1;"/><line style="stroke:#0F172A;stroke-width:1;stroke-dasharray:2,2;" x1="588.6694" x2="883.7095" y1="970" y2="970"/><text fill="#000000" font-family="Helvetica" font-size="14" lengthAdjust="spacing" textLength="243.5781" x="600.6694" y="964.7803">release finalizer after delete completion</text></g><line style="stroke:#CBD5E1;stroke-width:1;stroke-dasharray:2,2;" x1="497.6455" x2="1315.4673" y1="993" y2="993"/><text fill="#000000" font-family="Helvetica" font-size="14" font-weight="bold" lengthAdjust="spacing" textLength="149.3857" x="502.6455" y="1003.7803">[OCI state is retryable]</text><g class="message" data-entity-1="part4" data-entity-2="part3" id="msg15"><polygon fill="#0F172A" points="594.6694,1038,584.6694,1042,594.6694,1046,590.6694,1042" style="stroke:#0F172A;stroke-width:1;"/><line style="stroke:#0F172A;stroke-width:1;stroke-dasharray:2,2;" x1="588.6694" x2="883.7095" y1="1042" y2="1042"/><text fill="#000000" font-family="Helvetica" font-size="14" lengthAdjust="spacing" textLength="184.4199" x="600.6694" y="1022.7803">requeue while OCI remains in</text><text fill="#000000" font-family="Helvetica" font-size="14" lengthAdjust="spacing" textLength="260.5928" x="600.6694" y="1036.7803">PROVISIONING, UPDATING, DELETING</text></g><line style="stroke:#CBD5E1;stroke-width:1;stroke-dasharray:2,2;" x1="497.6455" x2="1315.4673" y1="1051" y2="1051"/><text fill="#000000" font-family="Helvetica" font-size="14" font-weight="bold" lengthAdjust="spacing" textLength="200.751" x="502.6455" y="1061.7803">[live state requires field-aware</text><text fill="#000000" font-family="Helvetica" font-size="14" font-weight="bold" lengthAdjust="spacing" textLength="105.0068" x="502.6455" y="1075.7803">drift evaluation]</text><path d="M515.6455,1087 L643.6318,1087 L643.6318,1093 L633.6318,1103 L507.6455,1103 L507.6455,1095 A8,8 0 0 1 515.6455,1087" fill="#F8FAFC" style="stroke:#CBD5E1;stroke-width:1.5;"/><rect fill="none" height="392" rx="8" ry="8" style="stroke:#CBD5E1;stroke-width:1.5;" width="797.8218" x="507.6455" y="1087"/><text fill="#000000" font-family="Helvetica" font-size="14" font-weight="bold" lengthAdjust="spacing" textLength="90.9863" x="522.6455" y="1098.7803">Drift handling</text><path d="M838,1116 L838,1166 A8,8 0 0 0 846,1174 L1287,1174 A8,8 0 0 0 1295,1166 L1295,1118 L1285,1108 L846,1108 A8,8 0 0 0 838,1116" fill="#FFF7D6" style="stroke:#B45309;stroke-width:0.5;"/><path d="M1285,1108 L1285,1114 A4,4 0 0 0 1289,1118 L1295,1118 L1285,1108" fill="#FFF7D6" style="stroke:#B45309;stroke-width:0.5;"/><text fill="#334155" font-family="Helvetica" font-size="14" lengthAdjust="spacing" textLength="255.2813" x="934.593" y="1123.7803">Supported update surface: display_name</text><text fill="#334155" font-family="Helvetica" font-size="14" lengthAdjust="spacing" textLength="235.7783" x="934.593" y="1137.7803">Reject before mutate: force-new fields</text><text fill="#334155" font-family="Helvetica" font-size="14" lengthAdjust="spacing" textLength="100.3789" x="934.593" y="1151.7803">compartment_id</text><text fill="#334155" font-family="Helvetica" font-size="14" lengthAdjust="spacing" textLength="229.5576" x="934.593" y="1165.7803">Lookup filters: compartment_id, state</text><path d="M525.6455,1186 L584.4111,1186 L584.4111,1192 L574.4111,1202 L517.6455,1202 L517.6455,1194 A8,8 0 0 1 525.6455,1186" fill="#F8FAFC" style="stroke:#CBD5E1;stroke-width:1.5;"/><rect fill="none" height="44" rx="8" ry="8" style="stroke:#CBD5E1;stroke-width:1.5;" width="455.2603" x="517.6455" y="1186"/><text fill="#000000" font-family="Helvetica" font-size="14" font-weight="bold" lengthAdjust="spacing" textLength="21.7656" x="532.6455" y="1197.7803">opt</text><text fill="#000000" font-family="Helvetica" font-size="14" font-weight="bold" lengthAdjust="spacing" textLength="276.1309" x="599.4111" y="1198.7803">[force-new or conflicting drift is detected]</text><g class="message" data-entity-1="part4" data-entity-2="part3" id="msg16"><polygon fill="#0F172A" points="594.6694,1218,584.6694,1222,594.6694,1226,590.6694,1222" style="stroke:#0F172A;stroke-width:1;"/><line style="stroke:#0F172A;stroke-width:1;stroke-dasharray:2,2;" x1="588.6694" x2="883.7095" y1="1222" y2="1222"/><text fill="#000000" font-family="Helvetica" font-size="14" lengthAdjust="spacing" textLength="164.1855" x="600.6694" y="1216.7803">reject before OCI mutation</text></g><path d="M794.5132,1244 L853.2788,1244 L853.2788,1250 L843.2788,1260 L786.5132,1260 L786.5132,1252 A8,8 0 0 1 794.5132,1244" fill="#F8FAFC" style="stroke:#CBD5E1;stroke-width:1.5;"/><rect fill="none" height="130" rx="8" ry="8" style="stroke:#CBD5E1;stroke-width:1.5;" width="502.4673" x="786.5132" y="1244"/><text fill="#000000" font-family="Helvetica" font-size="14" font-weight="bold" lengthAdjust="spacing" textLength="21.7656" x="801.5132" y="1255.7803">opt</text><text fill="#000000" font-family="Helvetica" font-size="14" font-weight="bold" lengthAdjust="spacing" textLength="243.4619" x="868.2788" y="1256.7803">[supported mutable drift is detected]</text><g class="message" data-entity-1="part4" data-entity-2="part5" id="msg17"><polygon fill="#0F172A" points="1237.5356,1304,1247.5356,1308,1237.5356,1312,1241.5356,1308" style="stroke:#0F172A;stroke-width:1;"/><line style="stroke:#0F172A;stroke-width:1;" x1="884.7095" x2="1243.5356" y1="1308" y2="1308"/><text fill="#000000" font-family="Helvetica" font-size="14" lengthAdjust="spacing" textLength="35.0205" x="891.7095" y="1274.7803">Apply</text><text fill="#000000" font-family="Helvetica" font-size="14" lengthAdjust="spacing" textLength="322.1846" x="891.7095" y="1288.7803">UpdateLicenseManagerTopUtilizedProductLicenses</text><text fill="#000000" font-family="Helvetica" font-size="14" lengthAdjust="spacing" textLength="226.4541" x="891.7095" y="1302.7803">only for mutable fields display_name</text></g><path d="M804.5132,1323 L871.0581,1323 L871.0581,1329 L861.0581,1339 L796.5132,1339 L796.5132,1331 A8,8 0 0 1 804.5132,1323" fill="#F8FAFC" style="stroke:#CBD5E1;stroke-width:1.5;"/><rect fill="none" height="44" rx="8" ry="8" style="stroke:#CBD5E1;stroke-width:1.5;" width="482.4673" x="796.5132" y="1323"/><text fill="#000000" font-family="Helvetica" font-size="14" font-weight="bold" lengthAdjust="spacing" textLength="29.5449" x="811.5132" y="1334.7803">loop</text><text fill="#000000" font-family="Helvetica" font-size="14" font-weight="bold" lengthAdjust="spacing" textLength="190.5381" x="886.0581" y="1335.7803">[update pending UPDATING]</text><g class="message" data-entity-1="part4" data-entity-2="part5" id="msg18"><polygon fill="#0F172A" points="1237.5356,1355,1247.5356,1359,1237.5356,1363,1241.5356,1359" style="stroke:#0F172A;stroke-width:1;"/><line style="stroke:#0F172A;stroke-width:1;" x1="884.7095" x2="1243.5356" y1="1359" y2="1359"/><text fill="#000000" font-family="Helvetica" font-size="14" lengthAdjust="spacing" textLength="299.6055" x="891.7095" y="1353.7803">GetLicenseManagerTopUtilizedProductLicenses</text></g><g class="message" data-entity-1="part4" data-entity-2="part5" id="msg19"><polygon fill="#0F172A" points="1237.5356,1467,1247.5356,1471,1237.5356,1475,1241.5356,1471" style="stroke:#0F172A;stroke-width:1;"/><line style="stroke:#0F172A;stroke-width:1;" x1="884.7095" x2="1243.5356" y1="1471" y2="1471"/><text fill="#000000" font-family="Helvetica" font-size="14" lengthAdjust="spacing" textLength="104.2891" x="891.7095" y="1395.7803">run helper hooks</text><text fill="#000000" font-family="Helvetica" font-size="14" lengthAdjust="spacing" textLength="219.0508" x="891.7095" y="1409.7803">create=tfresource.CreateResource,</text><text fill="#000000" font-family="Helvetica" font-size="14" lengthAdjust="spacing" textLength="314.3164" x="891.7095" y="1423.7803">tfresource.WaitForWorkRequestWithErrorHandling</text><text fill="#000000" font-family="Helvetica" font-size="14" lengthAdjust="spacing" textLength="215.5439" x="891.7095" y="1437.7803">entity=template action=CREATED;</text><text fill="#000000" font-family="Helvetica" font-size="14" lengthAdjust="spacing" textLength="226.085" x="891.7095" y="1451.7803">update=tfresource.UpdateResource;</text><text fill="#000000" font-family="Helvetica" font-size="14" lengthAdjust="spacing" textLength="212.8438" x="891.7095" y="1465.7803">delete=tfresource.DeleteResource</text></g><g class="message" data-entity-1="part4" data-entity-2="part3" id="msg20"><polygon fill="#0F172A" points="594.6694,1516,584.6694,1520,594.6694,1524,590.6694,1520" style="stroke:#0F172A;stroke-width:1;"/><line style="stroke:#0F172A;stroke-width:1;stroke-dasharray:2,2;" x1="588.6694" x2="883.7095" y1="1520" y2="1520"/><text fill="#000000" font-family="Helvetica" font-size="14" lengthAdjust="spacing" textLength="100.7822" x="600.6694" y="1500.7803">status=required,</text><text fill="#000000" font-family="Helvetica" font-size="14" lengthAdjust="spacing" textLength="230.7197" x="600.6694" y="1514.7803">finalizer=retain-until-confirmed-delete</text></g><g class="message" data-entity-1="part3" data-entity-2="part2" id="msg21"><polygon fill="#0F172A" points="355.8433,1565,345.8433,1569,355.8433,1573,351.8433,1569" style="stroke:#0F172A;stroke-width:1;"/><line style="stroke:#0F172A;stroke-width:1;stroke-dasharray:2,2;" x1="349.8433" x2="582.6694" y1="1569" y2="1569"/><text fill="#000000" font-family="Helvetica" font-size="14" lengthAdjust="spacing" textLength="214.8262" x="361.8433" y="1549.7803">requeue on provisioning, updating,</text><text fill="#000000" font-family="Helvetica" font-size="14" lengthAdjust="spacing" textLength="69.2549" x="361.8433" y="1563.7803">terminating</text></g><path d="M889,1590 L889,2060 A8,8 0 0 0 897,2068 L1323,2068 A8,8 0 0 0 1331,2060 L1331,1592 L1321,1582 L897,1582 A8,8 0 0 0 889,1590" fill="#FFF7D6" style="stroke:#B45309;stroke-width:0.5;"/><path d="M1321,1582 L1321,1588 A4,4 0 0 0 1325,1592 L1331,1592 L1321,1582" fill="#FFF7D6" style="stroke:#B45309;stroke-width:0.5;"/><text fill="#334155" font-family="Helvetica" font-size="14" lengthAdjust="spacing" textLength="101.165" x="895" y="1597.7803">shared diagram:</text><text fill="#334155" font-family="Helvetica" font-size="14" lengthAdjust="spacing" textLength="307.3916" x="895" y="1611.7803">shared/diagrams/shared-resolution-sequence.svg</text><text fill="#334155" font-family="Helvetica" font-size="14" lengthAdjust="spacing" textLength="143.1992" x="895" y="1625.7803">shared delete diagram:</text><text fill="#334155" font-family="Helvetica" font-size="14" lengthAdjust="spacing" textLength="284.833" x="895" y="1639.7803">shared/diagrams/shared-delete-sequence.svg</text><text fill="#334155" font-family="Helvetica" font-size="14" lengthAdjust="spacing" textLength="280.9297" x="895" y="1653.7803">Start from the shared resolution sequence for</text><text fill="#334155" font-family="Helvetica" font-size="14" lengthAdjust="spacing" textLength="260.7295" x="895" y="1667.7803">OCID binding, datasource pagination, and</text><text fill="#334155" font-family="Helvetica" font-size="14" lengthAdjust="spacing" textLength="163.4268" x="895" y="1681.7803">create-or-update dispatch.</text><text fill="#334155" font-family="Helvetica" font-size="14" lengthAdjust="spacing" textLength="301.1982" x="895" y="1695.7803">Layer the shared delete sequence when finalizer</text><text fill="#334155" font-family="Helvetica" font-size="14" lengthAdjust="spacing" textLength="269.2471" x="895" y="1709.7803">retention, delete confirmation, work-request</text><text fill="#334155" font-family="Helvetica" font-size="14" lengthAdjust="spacing" textLength="199.2334" x="895" y="1723.7803">polling, or Secret cleanup apply.</text><text fill="#334155" font-family="Helvetica" font-size="14" lengthAdjust="spacing" textLength="281.709" x="895" y="1737.7803">archetype batch: Generated service-manager</text><text fill="#334155" font-family="Helvetica" font-size="14" lengthAdjust="spacing" textLength="266.1504" x="895" y="1751.7803">controllers follow the shared resolution and</text><text fill="#334155" font-family="Helvetica" font-size="14" lengthAdjust="spacing" textLength="259.9297" x="895" y="1765.7803">delete sequences with imported waits and</text><text fill="#334155" font-family="Helvetica" font-size="14" lengthAdjust="spacing" textLength="134.6064" x="895" y="1779.7803">controller-local policy.</text><text fill="#334155" font-family="Helvetica" font-size="14" lengthAdjust="spacing" textLength="150.958" x="895" y="1793.7803">service: licensemanager</text><text fill="#334155" font-family="Helvetica" font-size="14" lengthAdjust="spacing" textLength="292.6123" x="895" y="1807.7803">slug: licensemanagertoputilizedproductlicenses</text><text fill="#334155" font-family="Helvetica" font-size="14" lengthAdjust="spacing" textLength="310.502" x="895" y="1821.7803">kind: LicenseManagerTopUtilizedProductLicenses</text><text fill="#334155" font-family="Helvetica" font-size="14" lengthAdjust="spacing" textLength="241.2402" x="895" y="1835.7803">archetype: generated-service-manager</text><text fill="#334155" font-family="Helvetica" font-size="14" lengthAdjust="spacing" textLength="156.4063" x="895" y="1849.7803">status/finalizer: required /</text><text fill="#334155" font-family="Helvetica" font-size="14" lengthAdjust="spacing" textLength="174.3027" x="895" y="1863.7803">retain-until-confirmed-delete</text><text fill="#334155" font-family="Helvetica" font-size="14" lengthAdjust="spacing" textLength="272.3984" x="895" y="1877.7803">requeue: provisioning, updating, terminating</text><text fill="#334155" font-family="Helvetica" font-size="14" lengthAdjust="spacing" textLength="295.6816" x="895" y="1891.7803">provider states: create PROVISIONING; update</text><text fill="#334155" font-family="Helvetica" font-size="14" lengthAdjust="spacing" textLength="192.165" x="895" y="1905.7803">UPDATING; delete DELETING</text><text fill="#334155" font-family="Helvetica" font-size="14" lengthAdjust="spacing" textLength="183.6611" x="895" y="1919.7803">supported drift: display_name</text><text fill="#334155" font-family="Helvetica" font-size="14" lengthAdjust="spacing" textLength="230.3301" x="895" y="1933.7803">reject before mutate: force-new fields</text><text fill="#334155" font-family="Helvetica" font-size="14" lengthAdjust="spacing" textLength="100.3789" x="895" y="1947.7803">compartment_id</text><text fill="#334155" font-family="Helvetica" font-size="14" lengthAdjust="spacing" textLength="66.1445" x="895" y="1961.7803">list lookup:</text><text fill="#334155" font-family="Helvetica" font-size="14" lengthAdjust="spacing" textLength="421.8047" x="895" y="1975.7803">scaffold_licensemanager_licensemanagertoputilizedproductlicenses</text><text fill="#334155" font-family="Helvetica" font-size="14" lengthAdjust="spacing" textLength="175.8477" x="895" y="1989.7803">filters compartment_id, state</text><text fill="#334155" font-family="Helvetica" font-size="14" lengthAdjust="spacing" textLength="89.4961" x="895" y="2003.7803">conflicts: none</text><text fill="#334155" font-family="Helvetica" font-size="14" lengthAdjust="spacing" textLength="104.3164" x="895" y="2017.7803">open gaps: none</text><text fill="#334155" font-family="Helvetica" font-size="14" lengthAdjust="spacing" textLength="224.9023" x="895" y="2031.7803">Scaffold metadata only; replace with</text><text fill="#334155" font-family="Helvetica" font-size="14" lengthAdjust="spacing" textLength="244.3232" x="895" y="2045.7803">controller-specific runtime states before</text><text fill="#334155" font-family="Helvetica" font-size="14" lengthAdjust="spacing" textLength="66.1445" x="895" y="2059.7803">promotion.</text><?plantuml-src jLTRRzis57xNhpZeNbh0JfecwSL11hH9rWRDcY9ErnS30IqTsLmeKYCfkzwm_xx3YsJ9iLUrwv27M29vBjyvttSeSyzboJGhmCnPffPSpY1dmc1YcfKfI-zdMbKoErD2QVWfJ-alQ-t8C6ULiByeQJ-m0k4TYWLQdhBjUyRyJuI3ezOYqreje_Md-S6BP-sJKbbyyo26F7-HFT_SfNI6EkwO7XqVFdsriSEvZ-k7XqS7nyUjTMy-LLgYXeFdYULM88pnZmfbYZ04mLEK1WicsGpr_bLu_3Kytghoa-M2Cii-QfLLgOth9fdp325NoaxLbvOxKrl-Am5WgLMw4tw4eLxQp1-VuSlyAIsJCKAQbqpQxUVR6_fOQK7Ks10ynoikkm2_EcA7qvUqwaoMdQLqcXtZGRFqe7WlSvQdoT-9pmtULrCar2rXrOe3pYWGhOH0tNdzXXcymLJ9b6ykFReUNxyVeruGzB4kZu0PwBxg7Ba-kqnSOu1QKDcxjWSRvuWY6ZFGQ9IeB5To55_jPvpDgAPcFpmFrrk6TPdtp69MMyXGKBOxJuVbxacKcM_WP0qM37zkOJG2bBI_medisvaJgUjSaxKXPxQBmmYQtu-r2yhO9qbtYplKHMi4ZN7Art1Ah7zaYUyRk5BgdlunodtAPPOmOS5gwYR2aFe6lvJ4IUwB24GoIPHT0HCQMRQYLMwiIRfHkJXfzmZUekqT398UDduRFzn0mOqXnTpbuue2wElaSSw5HMr64vcgmdLeGNxkU3O0Ovd59pvvZPLXKqBKPUoQhD8a81G9jGP9335iLond18h5tYaBfKf8_HaegVVSNFXuS_tRvVZo-iFbXxS_15QAraExFQl_eOvRuDdIx2MLWLm6dY-ev9tsuj8Nf0hcN542NI4o0xFOlEV-zQwumshlq7TOeQ1pheiwX0Ld4_aDY4oaqewK_TiqD4PqLpV6-SNLnUsFQOhlYAWkGogGISATX27dahczcef2Rusdo5GeH-0-7Q3HCgfpJDFppuiGlTUhqBDnpN6LVf3GWveQijpNGGXh7IZBYVqFhGQIr4HnZHYYeNnyC8us_HpwsG3BEMzuLb2EXlfv8jlC7i2dZ-UlR_slfh3Uk-2B6WndZXJTK08eiY5RqjoQo4ppt08kcAYO3puImR-U4u32YULwsdRZ7hXHFAxAKcaY4LHbvZoPIkSinH5at9I2hUuaNJ2J6_mTKmjJp9L6A2eNr8W4a7HZA74PmZ99LqcJE4vgfOMjGhkUjAgqBPFKLevjD72iw_cGAvKXeuAbjc_Pss6xAlZGwpexXwO1m2qvKVowfqYprsKfLXFvoGFt3OIJOkNoR1m6yBg0Uzh7ajIqh_laXys2tTDBLnBcA4YPOKv5fAZ3R3grUJqlziA4kucFWubihNrcdEwr-hFIzpT1fZzpEx-WhmxzBlRbH0Q1FxL8vFECJrrbJizkBbxVNfoVJ6J8l-qpO5txf2s1mEqjGUZhBNrdK1Wnfv5d6MNJICLfKATXHU6AOPm0pQtHEzYycsrS56in8D4gjLfmGsaI0eDGOFUBm4DTa4VRC5RpsTo2oc7xfJZUOV_RZVYhLhRTZCUME0ovLWNOESA3I_hwGukQFA5sElUNIPymfSlYTQDaCv-laWEdzKbeiA7ImzZsZW_CflEzv8gj2DMMitfGr8wMSvHhRK-eOAwtdEL6u7tLehibjUKmNX-IaehaOrDE82cAzMHZZk1x2TFf7EsgHFeoftWSqUYJbJdDCA4sm_YDIW9OLvsaclwhvGwCNCORMHXO4aU05r6FbiGX4w1fh0vffZ8153DFARBeVhJngPmOKSqsNrfLLb4CoY06eXO3-aJEtEsvftOqU8nWLYCnt4GY46g_ASgedc4Px2V_pgX8bz4kia2RAtuFVGY7OUA6JBX4jqViILJIf5RGaxelce6x7WDU_ZV6d_wkyIVSfLRu6KW4IrbE7P7TTQjorxj8SOhk6ABrg2G0QC2uMKgCcB6oVXv7zr0Gz8w5uCRG2HM5idGCejPhzvafCUKvJzqaiBo8zn0J8N2e5yerybuplly1?></g></svg>