<?plantuml 1.2026.1?><svg xmlns="http://www.w3.org/2000/svg" xmlns:xlink="http://www.w3.org/1999/xlink" contentStyleType="text/css" data-diagram-type="SEQUENCE" height="1273px" preserveAspectRatio="none" style="width:1123px;height:1273px;background:#FCFCFD;" version="1.1" viewBox="0 0 1123 1273" width="1123px" zoomAndPan="magnify"><title>Sequence - identity/IdentityApiKey</title><defs/><g><rect fill="#FCFCFD" height="1273" style="stroke:none;stroke-width:1;" width="1123" x="0" y="0"/><text fill="#000000" font-family="Helvetica" font-size="14" font-weight="bold" lengthAdjust="spacing" textLength="230.2617" x="443.8892" y="25.7803">Sequence - identity/IdentityApiKey</text><rect fill="none" height="86" rx="8" ry="8" style="stroke:#CBD5E1;stroke-width:1.5;" width="298.0405" x="680.9585" y="319"/><rect fill="none" height="204" rx="8" ry="8" style="stroke:#CBD5E1;stroke-width:1.5;" width="330.0205" x="670.9585" y="419"/><rect fill="none" height="44" rx="8" ry="8" style="stroke:#CBD5E1;stroke-width:1.5;" width="310.0205" x="680.9585" y="470"/><rect fill="none" height="44" rx="8" ry="8" style="stroke:#CBD5E1;stroke-width:1.5;" width="298.0405" x="680.9585" y="572"/><rect fill="none" height="116" rx="8" ry="8" style="stroke:#CBD5E1;stroke-width:1.5;" width="327.6689" x="670.9585" y="637"/><rect fill="none" height="58" rx="8" ry="8" style="stroke:#CBD5E1;stroke-width:1.5;" width="307.6689" x="680.9585" y="688"/><g class="participant-lifeline" data-entity-uid="part1" data-qualified-name="Kubernetes" id="part1-lifeline"><g><title>Kubernetes</title><rect fill="#000000" fill-opacity="0.00000" height="1152" width="8" x="39.8032" y="114"/><line style="stroke:#94A3B8;stroke-width:0.5;stroke-dasharray:5,5;" x1="43" x2="43" y1="114" y2="1266"/></g></g><g class="participant-lifeline" data-entity-uid="part2" data-qualified-name="Controller" id="part2-lifeline"><g><title>Controller</title><rect fill="#000000" fill-opacity="0.00000" height="1152" width="8" x="271.6089" y="114"/><line style="stroke:#94A3B8;stroke-width:0.5;stroke-dasharray:5,5;" x1="275.2642" x2="275.2642" y1="114" y2="1266"/></g></g><g class="participant-lifeline" data-entity-uid="part3" data-qualified-name="BaseReconciler" id="part3-lifeline"><g><title>BaseReconciler</title><rect fill="#000000" fill-opacity="0.00000" height="1152" width="8" x="510.4351" y="114"/><line style="stroke:#94A3B8;stroke-width:0.5;stroke-dasharray:5,5;" x1="514.4111" x2="514.4111" y1="114" y2="1266"/></g></g><g class="participant-lifeline" data-entity-uid="part4" data-qualified-name="ServiceManager" id="part4-lifeline"><g><title>OSOKServiceManager</title><rect fill="#000000" fill-opacity="0.00000" height="1152" width="8" x="765.1548" y="114"/><line style="stroke:#94A3B8;stroke-width:0.5;stroke-dasharray:5,5;" x1="768.9585" x2="768.9585" y1="114" y2="1266"/></g></g><g class="participant-lifeline" data-entity-uid="part5" data-qualified-name="OCI" id="part5-lifeline"><g><title>OCI</title><rect fill="#000000" fill-opacity="0.00000" height="1152" width="8" x="945.5542" y="114"/><line style="stroke:#94A3B8;stroke-width:0.5;stroke-dasharray:5,5;" x1="949.1094" x2="949.1094" y1="114" y2="1266"/></g></g><g class="participant participant-head" data-entity-uid="part1" data-qualified-name="Kubernetes" id="part1-head"><text fill="#000000" font-family="Helvetica" font-size="14" lengthAdjust="spacing" textLength="71.6064" x="5" y="110.7803">Kubernetes</text><ellipse cx="43.8032" cy="48.5" fill="#E2E8F0" rx="8" ry="8" style="stroke:#0F172A;stroke-width:0.5;"/><path d="M43.8032,56.5 L43.8032,83.5 M30.8032,64.5 L56.8032,64.5 M43.8032,83.5 L30.8032,98.5 M43.8032,83.5 L56.8032,98.5" fill="none" style="stroke:#0F172A;stroke-width:0.5;"/></g><g class="participant participant-head" data-entity-uid="part2" data-qualified-name="Controller" id="part2-head"><rect fill="#E2E8F0" height="28" rx="8" ry="8" style="stroke:#0F172A;stroke-width:0.5;" width="74.6895" x="238.2642" y="85"/><text fill="#0F172A" font-family="Helvetica" font-size="14" lengthAdjust="spacing" textLength="60.6895" x="245.2642" y="102.7803">Controller</text></g><g class="participant participant-head" data-entity-uid="part3" data-qualified-name="BaseReconciler" id="part3-head"><rect fill="#E2E8F0" height="28" rx="8" ry="8" style="stroke:#0F172A;stroke-width:0.5;" width="112.0479" x="458.4111" y="85"/><text fill="#0F172A" font-family="Helvetica" font-size="14" lengthAdjust="spacing" textLength="98.0479" x="465.4111" y="102.7803">BaseReconciler</text></g><g class="participant participant-head" data-entity-uid="part4" data-qualified-name="ServiceManager" id="part4-head"><rect fill="#E2E8F0" height="28" rx="8" ry="8" style="stroke:#0F172A;stroke-width:0.5;" width="156.3926" x="690.9585" y="85"/><text fill="#0F172A" font-family="Helvetica" font-size="14" lengthAdjust="spacing" textLength="142.3926" x="697.9585" y="102.7803">OSOKServiceManager</text></g><g class="participant participant-head" data-entity-uid="part5" data-qualified-name="OCI" id="part5-head"><rect fill="#E2E8F0" height="28" rx="8" ry="8" style="stroke:#0F172A;stroke-width:0.5;" width="38.8896" x="930.1094" y="85"/><text fill="#0F172A" font-family="Helvetica" font-size="14" lengthAdjust="spacing" textLength="24.8896" x="937.1094" y="102.7803">OCI</text></g><path d="M449,137 L449,187 A8,8 0 0 0 457,195 L824,195 A8,8 0 0 0 832,187 L832,139 L822,129 L457,129 A8,8 0 0 0 449,137" fill="#FFF7D6" style="stroke:#B45309;stroke-width:0.5;"/><path d="M822,129 L822,135 A4,4 0 0 0 826,139 L832,139 L822,129" fill="#FFF7D6" style="stroke:#B45309;stroke-width:0.5;"/><text fill="#334155" font-family="Helvetica" font-size="14" lengthAdjust="spacing" textLength="111.2891" x="482.7742" y="144.7803">shared resolution:</text><text fill="#334155" font-family="Helvetica" font-size="14" lengthAdjust="spacing" textLength="307.3916" x="482.7742" y="158.7803">shared/diagrams/shared-resolution-sequence.svg</text><text fill="#334155" font-family="Helvetica" font-size="14" lengthAdjust="spacing" textLength="88.7305" x="482.7742" y="172.7803">shared delete:</text><text fill="#334155" font-family="Helvetica" font-size="14" lengthAdjust="spacing" textLength="284.833" x="482.7742" y="186.7803">shared/diagrams/shared-delete-sequence.svg</text><g class="message" data-entity-1="part1" data-entity-2="part2" id="msg1"><polygon fill="#0F172A" points="263.6089,216,273.6089,220,263.6089,224,267.6089,220" style="stroke:#0F172A;stroke-width:1;"/><line style="stroke:#0F172A;stroke-width:1;" x1="43.8032" x2="269.6089" y1="220" y2="220"/><text fill="#000000" font-family="Helvetica" font-size="14" lengthAdjust="spacing" textLength="207.8057" x="50.8032" y="214.7803">enqueue IdentityApiKey reconcile</text></g><g class="message" data-entity-1="part2" data-entity-2="part3" id="msg2"><polygon fill="#0F172A" points="502.4351,244,512.4351,248,502.4351,252,506.4351,248" style="stroke:#0F172A;stroke-width:1;"/><line style="stroke:#0F172A;stroke-width:1;" x1="275.6089" x2="508.4351" y1="248" y2="248"/><text fill="#000000" font-family="Helvetica" font-size="14" lengthAdjust="spacing" textLength="117.4961" x="282.6089" y="242.7803">Reconcile(request)</text></g><g class="message" data-entity-1="part3" data-entity-2="part4" id="msg3"><polygon fill="#0F172A" points="757.1548,272,767.1548,276,757.1548,280,761.1548,276" style="stroke:#0F172A;stroke-width:1;"/><line style="stroke:#0F172A;stroke-width:1;" x1="514.4351" x2="763.1548" y1="276" y2="276"/><text fill="#000000" font-family="Helvetica" font-size="14" lengthAdjust="spacing" textLength="199.2197" x="521.4351" y="270.7803">reconcile desired IdentityApiKey</text></g><g class="message" data-entity-1="part4" data-entity-2="part5" id="msg4"><polygon fill="#0F172A" points="937.5542,300,947.5542,304,937.5542,308,941.5542,304" style="stroke:#0F172A;stroke-width:1;"/><line style="stroke:#0F172A;stroke-width:1;" x1="769.1548" x2="943.5542" y1="304" y2="304"/><text fill="#000000" font-family="Helvetica" font-size="14" lengthAdjust="spacing" textLength="112.0615" x="776.1548" y="298.7803">GetIdentityApiKey</text></g><path d="M688.9585,319 L747.7241,319 L747.7241,325 L737.7241,335 L680.9585,335 L680.9585,327 A8,8 0 0 1 688.9585,319" fill="#F8FAFC" style="stroke:#CBD5E1;stroke-width:1.5;"/><rect fill="none" height="86" rx="8" ry="8" style="stroke:#CBD5E1;stroke-width:1.5;" width="298.0405" x="680.9585" y="319"/><text fill="#000000" font-family="Helvetica" font-size="14" font-weight="bold" lengthAdjust="spacing" textLength="21.7656" x="695.9585" y="330.7803">opt</text><text fill="#000000" font-family="Helvetica" font-size="14" font-weight="bold" lengthAdjust="spacing" textLength="135.3516" x="762.7241" y="331.7803">[list lookup fallback]</text><g class="message" data-entity-1="part4" data-entity-2="part5" id="msg5"><polygon fill="#0F172A" points="937.5542,365,947.5542,369,937.5542,373,941.5542,369" style="stroke:#0F172A;stroke-width:1;"/><line style="stroke:#0F172A;stroke-width:1;" x1="769.1548" x2="943.5542" y1="369" y2="369"/><text fill="#000000" font-family="Helvetica" font-size="14" lengthAdjust="spacing" textLength="153.2822" x="776.1548" y="349.7803">ListIdentityApiKey(filters:</text><text fill="#000000" font-family="Helvetica" font-size="14" lengthAdjust="spacing" textLength="143.1719" x="776.1548" y="363.7803">compartment_id, state)</text></g><g class="message" data-entity-1="part5" data-entity-2="part4" id="msg6"><polygon fill="#0F172A" points="780.1548,393,770.1548,397,780.1548,401,776.1548,397" style="stroke:#0F172A;stroke-width:1;"/><line style="stroke:#0F172A;stroke-width:1;stroke-dasharray:2,2;" x1="774.1548" x2="948.5542" y1="397" y2="397"/><text fill="#000000" font-family="Helvetica" font-size="14" lengthAdjust="spacing" textLength="156.3994" x="786.1548" y="391.7803">matching collection items</text></g><path d="M678.9585,419 L732.2964,419 L732.2964,425 L722.2964,435 L670.9585,435 L670.9585,427 A8,8 0 0 1 678.9585,419" fill="#F8FAFC" style="stroke:#CBD5E1;stroke-width:1.5;"/><rect fill="none" height="204" rx="8" ry="8" style="stroke:#CBD5E1;stroke-width:1.5;" width="330.0205" x="670.9585" y="419"/><text fill="#000000" font-family="Helvetica" font-size="14" font-weight="bold" lengthAdjust="spacing" textLength="16.3379" x="685.9585" y="430.7803">alt</text><text fill="#000000" font-family="Helvetica" font-size="14" font-weight="bold" lengthAdjust="spacing" textLength="135.3447" x="747.2964" y="431.7803">[create or bind path]</text><g class="message" data-entity-1="part4" data-entity-2="part5" id="msg7"><polygon fill="#0F172A" points="937.5542,451,947.5542,455,937.5542,459,941.5542,455" style="stroke:#0F172A;stroke-width:1;"/><line style="stroke:#0F172A;stroke-width:1;" x1="769.1548" x2="943.5542" y1="455" y2="455"/><text fill="#000000" font-family="Helvetica" font-size="14" lengthAdjust="spacing" textLength="131.5166" x="776.1548" y="449.7803">CreateIdentityApiKey</text></g><path d="M688.9585,470 L755.5034,470 L755.5034,476 L745.5034,486 L680.9585,486 L680.9585,478 A8,8 0 0 1 688.9585,470" fill="#F8FAFC" style="stroke:#CBD5E1;stroke-width:1.5;"/><rect fill="none" height="44" rx="8" ry="8" style="stroke:#CBD5E1;stroke-width:1.5;" width="310.0205" x="680.9585" y="470"/><text fill="#000000" font-family="Helvetica" font-size="14" font-weight="bold" lengthAdjust="spacing" textLength="29.5449" x="695.9585" y="481.7803">loop</text><text fill="#000000" font-family="Helvetica" font-size="14" font-weight="bold" lengthAdjust="spacing" textLength="215.4756" x="770.5034" y="482.7803">[create pending PROVISIONING]</text><g class="message" data-entity-1="part4" data-entity-2="part5" id="msg8"><polygon fill="#0F172A" points="937.5542,502,947.5542,506,937.5542,510,941.5542,506" style="stroke:#0F172A;stroke-width:1;"/><line style="stroke:#0F172A;stroke-width:1;" x1="769.1548" x2="943.5542" y1="506" y2="506"/><text fill="#000000" font-family="Helvetica" font-size="14" lengthAdjust="spacing" textLength="112.0615" x="776.1548" y="500.7803">GetIdentityApiKey</text></g><line style="stroke:#CBD5E1;stroke-width:1;stroke-dasharray:2,2;" x1="670.9585" x2="1000.979" y1="522" y2="522"/><text fill="#000000" font-family="Helvetica" font-size="14" font-weight="bold" lengthAdjust="spacing" textLength="137.6484" x="675.9585" y="532.7803">[update or drift path]</text><g class="message" data-entity-1="part4" data-entity-2="part5" id="msg9"><polygon fill="#0F172A" points="937.5542,553,947.5542,557,937.5542,561,941.5542,557" style="stroke:#0F172A;stroke-width:1;"/><line style="stroke:#0F172A;stroke-width:1;" x1="769.1548" x2="943.5542" y1="557" y2="557"/><text fill="#000000" font-family="Helvetica" font-size="14" lengthAdjust="spacing" textLength="134.6406" x="776.1548" y="551.7803">UpdateIdentityApiKey</text></g><path d="M688.9585,572 L755.5034,572 L755.5034,578 L745.5034,588 L680.9585,588 L680.9585,580 A8,8 0 0 1 688.9585,572" fill="#F8FAFC" style="stroke:#CBD5E1;stroke-width:1.5;"/><rect fill="none" height="44" rx="8" ry="8" style="stroke:#CBD5E1;stroke-width:1.5;" width="298.0405" x="680.9585" y="572"/><text fill="#000000" font-family="Helvetica" font-size="14" font-weight="bold" lengthAdjust="spacing" textLength="29.5449" x="695.9585" y="583.7803">loop</text><text fill="#000000" font-family="Helvetica" font-size="14" font-weight="bold" lengthAdjust="spacing" textLength="190.5381" x="770.5034" y="584.7803">[update pending UPDATING]</text><g class="message" data-entity-1="part4" data-entity-2="part5" id="msg10"><polygon fill="#0F172A" points="937.5542,604,947.5542,608,937.5542,612,941.5542,608" style="stroke:#0F172A;stroke-width:1;"/><line style="stroke:#0F172A;stroke-width:1;" x1="769.1548" x2="943.5542" y1="608" y2="608"/><text fill="#000000" font-family="Helvetica" font-size="14" lengthAdjust="spacing" textLength="112.0615" x="776.1548" y="602.7803">GetIdentityApiKey</text></g><path d="M678.9585,637 L737.7241,637 L737.7241,643 L727.7241,653 L670.9585,653 L670.9585,645 A8,8 0 0 1 678.9585,637" fill="#F8FAFC" style="stroke:#CBD5E1;stroke-width:1.5;"/><rect fill="none" height="116" rx="8" ry="8" style="stroke:#CBD5E1;stroke-width:1.5;" width="327.6689" x="670.9585" y="637"/><text fill="#000000" font-family="Helvetica" font-size="14" font-weight="bold" lengthAdjust="spacing" textLength="21.7656" x="685.9585" y="648.7803">opt</text><text fill="#000000" font-family="Helvetica" font-size="14" font-weight="bold" lengthAdjust="spacing" textLength="120.5859" x="752.7241" y="649.7803">[delete requested]</text><g class="message" data-entity-1="part4" data-entity-2="part5" id="msg11"><polygon fill="#0F172A" points="937.5542,669,947.5542,673,937.5542,677,941.5542,673" style="stroke:#0F172A;stroke-width:1;"/><line style="stroke:#0F172A;stroke-width:1;" x1="769.1548" x2="943.5542" y1="673" y2="673"/><text fill="#000000" font-family="Helvetica" font-size="14" lengthAdjust="spacing" textLength="129.9648" x="776.1548" y="667.7803">DeleteIdentityApiKey</text></g><path d="M688.9585,688 L755.5034,688 L755.5034,694 L745.5034,704 L680.9585,704 L680.9585,696 A8,8 0 0 1 688.9585,688" fill="#F8FAFC" style="stroke:#CBD5E1;stroke-width:1.5;"/><rect fill="none" height="58" rx="8" ry="8" style="stroke:#CBD5E1;stroke-width:1.5;" width="307.6689" x="680.9585" y="688"/><text fill="#000000" font-family="Helvetica" font-size="14" font-weight="bold" lengthAdjust="spacing" textLength="29.5449" x="695.9585" y="699.7803">loop</text><text fill="#000000" font-family="Helvetica" font-size="14" font-weight="bold" lengthAdjust="spacing" textLength="213.124" x="770.5034" y="700.7803">[delete confirmation DELETING]</text><g class="message" data-entity-1="part4" data-entity-2="part5" id="msg12"><polygon fill="#0F172A" points="937.5542,734,947.5542,738,937.5542,742,941.5542,738" style="stroke:#0F172A;stroke-width:1;"/><line style="stroke:#0F172A;stroke-width:1;" x1="769.1548" x2="943.5542" y1="738" y2="738"/><text fill="#000000" font-family="Helvetica" font-size="14" lengthAdjust="spacing" textLength="128.3994" x="776.1548" y="718.7803">GetIdentityApiKey or</text><text fill="#000000" font-family="Helvetica" font-size="14" lengthAdjust="spacing" textLength="111.2822" x="776.1548" y="732.7803">ListIdentityApiKey</text></g><g class="message" data-entity-1="part4" data-entity-2="part3" id="msg13"><polygon fill="#0F172A" points="525.4351,790,515.4351,794,525.4351,798,521.4351,794" style="stroke:#0F172A;stroke-width:1;"/><line style="stroke:#0F172A;stroke-width:1;stroke-dasharray:2,2;" x1="519.4351" x2="768.1548" y1="794" y2="794"/><text fill="#000000" font-family="Helvetica" font-size="14" lengthAdjust="spacing" textLength="100.7822" x="531.4351" y="774.7803">status=required,</text><text fill="#000000" font-family="Helvetica" font-size="14" lengthAdjust="spacing" textLength="230.7197" x="531.4351" y="788.7803">finalizer=retain-until-confirmed-delete</text></g><g class="message" data-entity-1="part3" data-entity-2="part2" id="msg14"><polygon fill="#0F172A" points="286.6089,832,276.6089,836,286.6089,840,282.6089,836" style="stroke:#0F172A;stroke-width:1;"/><line style="stroke:#0F172A;stroke-width:1;stroke-dasharray:2,2;" x1="280.6089" x2="513.4351" y1="836" y2="836"/><text fill="#000000" font-family="Helvetica" font-size="14" lengthAdjust="spacing" textLength="214.8262" x="292.6089" y="816.7803">requeue on provisioning, updating,</text><text fill="#000000" font-family="Helvetica" font-size="14" lengthAdjust="spacing" textLength="69.2549" x="292.6089" y="830.7803">terminating</text></g><path d="M774,857 L774,1243 A8,8 0 0 0 782,1251 L1106,1251 A8,8 0 0 0 1114,1243 L1114,859 L1104,849 L782,849 A8,8 0 0 0 774,857" fill="#FFF7D6" style="stroke:#B45309;stroke-width:0.5;"/><path d="M1104,849 L1104,855 A4,4 0 0 0 1108,859 L1114,859 L1104,849" fill="#FFF7D6" style="stroke:#B45309;stroke-width:0.5;"/><text fill="#334155" font-family="Helvetica" font-size="14" lengthAdjust="spacing" textLength="101.165" x="780" y="864.7803">shared diagram:</text><text fill="#334155" font-family="Helvetica" font-size="14" lengthAdjust="spacing" textLength="307.3916" x="780" y="878.7803">shared/diagrams/shared-resolution-sequence.svg</text><text fill="#334155" font-family="Helvetica" font-size="14" lengthAdjust="spacing" textLength="143.1992" x="780" y="892.7803">shared delete diagram:</text><text fill="#334155" font-family="Helvetica" font-size="14" lengthAdjust="spacing" textLength="284.833" x="780" y="906.7803">shared/diagrams/shared-delete-sequence.svg</text><text fill="#334155" font-family="Helvetica" font-size="14" lengthAdjust="spacing" textLength="280.9297" x="780" y="920.7803">Start from the shared resolution sequence for</text><text fill="#334155" font-family="Helvetica" font-size="14" lengthAdjust="spacing" textLength="260.7295" x="780" y="934.7803">OCID binding, datasource pagination, and</text><text fill="#334155" font-family="Helvetica" font-size="14" lengthAdjust="spacing" textLength="163.4268" x="780" y="948.7803">create-or-update dispatch.</text><text fill="#334155" font-family="Helvetica" font-size="14" lengthAdjust="spacing" textLength="301.1982" x="780" y="962.7803">Layer the shared delete sequence when finalizer</text><text fill="#334155" font-family="Helvetica" font-size="14" lengthAdjust="spacing" textLength="269.2471" x="780" y="976.7803">retention, delete confirmation, work-request</text><text fill="#334155" font-family="Helvetica" font-size="14" lengthAdjust="spacing" textLength="199.2334" x="780" y="990.7803">polling, or Secret cleanup apply.</text><text fill="#334155" font-family="Helvetica" font-size="14" lengthAdjust="spacing" textLength="281.709" x="780" y="1004.7803">archetype batch: Generated service-manager</text><text fill="#334155" font-family="Helvetica" font-size="14" lengthAdjust="spacing" textLength="266.1504" x="780" y="1018.7803">controllers follow the shared resolution and</text><text fill="#334155" font-family="Helvetica" font-size="14" lengthAdjust="spacing" textLength="259.9297" x="780" y="1032.7803">delete sequences with imported waits and</text><text fill="#334155" font-family="Helvetica" font-size="14" lengthAdjust="spacing" textLength="134.6064" x="780" y="1046.7803">controller-local policy.</text><text fill="#334155" font-family="Helvetica" font-size="14" lengthAdjust="spacing" textLength="96.4824" x="780" y="1060.7803">service: identity</text><text fill="#334155" font-family="Helvetica" font-size="14" lengthAdjust="spacing" textLength="118.2891" x="780" y="1074.7803">slug: identityapikey</text><text fill="#334155" font-family="Helvetica" font-size="14" lengthAdjust="spacing" textLength="122.958" x="780" y="1088.7803">kind: IdentityApiKey</text><text fill="#334155" font-family="Helvetica" font-size="14" lengthAdjust="spacing" textLength="241.2402" x="780" y="1102.7803">archetype: generated-service-manager</text><text fill="#334155" font-family="Helvetica" font-size="14" lengthAdjust="spacing" textLength="156.4063" x="780" y="1116.7803">status/finalizer: required /</text><text fill="#334155" font-family="Helvetica" font-size="14" lengthAdjust="spacing" textLength="174.3027" x="780" y="1130.7803">retain-until-confirmed-delete</text><text fill="#334155" font-family="Helvetica" font-size="14" lengthAdjust="spacing" textLength="272.3984" x="780" y="1144.7803">requeue: provisioning, updating, terminating</text><text fill="#334155" font-family="Helvetica" font-size="14" lengthAdjust="spacing" textLength="295.6816" x="780" y="1158.7803">provider states: create PROVISIONING; update</text><text fill="#334155" font-family="Helvetica" font-size="14" lengthAdjust="spacing" textLength="192.165" x="780" y="1172.7803">UPDATING; delete DELETING</text><text fill="#334155" font-family="Helvetica" font-size="14" lengthAdjust="spacing" textLength="319.04" x="780" y="1186.7803">mutable/forceNew: display_name / compartment_id</text><text fill="#334155" font-family="Helvetica" font-size="14" lengthAdjust="spacing" textLength="104.3164" x="780" y="1200.7803">open gaps: none</text><text fill="#334155" font-family="Helvetica" font-size="14" lengthAdjust="spacing" textLength="224.9023" x="780" y="1214.7803">Scaffold metadata only; replace with</text><text fill="#334155" font-family="Helvetica" font-size="14" lengthAdjust="spacing" textLength="244.3232" x="780" y="1228.7803">controller-specific runtime states before</text><text fill="#334155" font-family="Helvetica" font-size="14" lengthAdjust="spacing" textLength="66.1445" x="780" y="1242.7803">promotion.</text><?plantuml-src fLRlRzis4FtEl-BGVMa1AqwQf4qLR42RT9sHB2dgTPy253HriebG94TIzhnX__kE-cL9iRiMGv72rXqVtxjxTvP_bDfonmlmAvwPZTHBoBdoo7mNMN3nk7IcrDcLKSR13xcWVral8yESbohyR7IuumN2BwZM6AJW-tFcyY-4axDUa3jdDWtwSNxo-cN_f3O1tptXaEUlirVZBECoT4t6ukpyzFZDA2DUtyHFJyzEpizxyGfU6AVHmSah5cHG27FyeqGj41AG6Mfwk9tEcWzlhRp1BLjH079ZmiBysOFpxSc_6G0NmRW1lKPc6nhhmvTuaHzJcC2eaj9o7VQVxoTy2qgl11s6aZdUIZqiu9ipVhgue6Y4j8EGM6JdUDA5dZJd8kUvOF-mIXlSb0kagWRqhCS3heY8CqgX6pn-npr-Gc6qaEFGi_lv_SqStLeA_9LhlaJt3BY7uQF1aVkh6OkD1xEcjWwn9wDpD08ECt3eZIg3D3fj7aqpoPVKKp-jloUxbAHjyv5VBrk431MfFNYw3WzFeiugWx9TiI3vgLUZ551JVeamj1_HRVImNN8yEjIQGlVvkOiN-_223LFYeM55qXquQV8oQXkPVtWWGb35K_Y0OPHeR22RUVhFcCVInYsZucOvX71BkKE8vxbK0PrF7xGmHMnoGU4lCfk03ppW2qO78TcZek11hE9g4x4w8lODPC32nx8phW88XpoQnC52KYSi3wj3nAwgr94w4cLR44kWyRAFd-v_dyrdztUpkm_VNgV826a1GscpXbBcP1w-okbpbRkFKuFISlhyyVhjRz_FX_vY_shZGkCVp0wXN5Tv--Wq26IgN3fgI-p4zVlRzz_5YMhoe9_wewCwnjap3D4mfVynAeckdZmG7yqL_J0vUXYur4b9q2ffc7PJ-sHcHaDQrOQ6b7HPPzRIaq8g_AHkHFpqeCd41TqMlzMxoSdbAe39OVz2QlR7_zj6_ucoRolD0qqPvCuK45O8JnRaxaSkDowEttKrFvLWaikzAHq5BLzMUesU0AS6rOEI69Sqzioajt56ZzWjtr9LUvSrxBkBDYlKq3MBKREY1oBo7czDO6FSOz8ObbbgKiMDXcgEn886No7Nj8wujMfxnBWJAmnRY_JMGtoY-UXrW2XcnA3gJL8qpH5TrpsfLyfi3jGeAXwfyB2HOGMoiCP5x0sNmTUbwL0JPGHNG9ob86RDzMdt6iAyAfUxhzpAHve1Ult8ql6IxbIbi6pr96CzzKXCkzBMNgvs_fHzVIOQqwU7B0zznrSvz2fHBssVjckploulcxt5sdrrsNQtMnP56VX2uPIC9_0EDsbb8iMtNtHy1Pt2y3U2zXVvPiajNQYDHZONFAUsPL2GjEXL6bcrlIJH119zHWtgTyDR53AN0bmi0jrGquS54WECgWeJsttK_PJ_2m00?></g></svg>