<?plantuml 1.2026.1?><svg xmlns="http://www.w3.org/2000/svg" xmlns:xlink="http://www.w3.org/1999/xlink" contentStyleType="text/css" data-diagram-type="SEQUENCE" height="2062px" preserveAspectRatio="none" style="width:1215px;height:2062px;background:#FCFCFD;" version="1.1" viewBox="0 0 1215 2062" width="1215px" zoomAndPan="magnify"><title>Sequence - database/DatabaseScheduledActionParams</title><defs/><g><rect fill="#FCFCFD" height="2062" style="stroke:none;stroke-width:1;" width="1215" x="0" y="0"/><text fill="#000000" font-family="Helvetica" font-size="14" font-weight="bold" lengthAdjust="spacing" textLength="370.3574" x="428.8" y="25.7803">Sequence - database/DatabaseScheduledActionParams</text><rect fill="none" height="290" rx="8" ry="8" style="stroke:#CBD5E1;stroke-width:1.5;" width="738.3779" x="453.8457" y="356"/><rect fill="none" height="146" rx="8" ry="8" style="stroke:#CBD5E1;stroke-width:1.5;" width="475.9575" x="706.2661" y="465"/><rect fill="none" height="44" rx="8" ry="8" style="stroke:#CBD5E1;stroke-width:1.5;" width="455.9575" x="716.2661" y="516"/><rect fill="none" height="840" rx="8" ry="8" style="stroke:#CBD5E1;stroke-width:1.5;" width="775.1118" x="433.8457" y="660"/><rect fill="none" height="274" rx="8" ry="8" style="stroke:#CBD5E1;stroke-width:1.5;" width="738.3779" x="443.8457" y="683"/><rect fill="none" height="58" rx="8" ry="8" style="stroke:#CBD5E1;stroke-width:1.5;" width="455.9575" x="716.2661" y="790"/><rect fill="none" height="88" rx="8" ry="8" style="stroke:#CBD5E1;stroke-width:1.5;" width="438.813" x="453.8457" y="862"/><rect fill="none" height="392" rx="8" ry="8" style="stroke:#CBD5E1;stroke-width:1.5;" width="755.1118" x="443.8457" y="1059"/><rect fill="none" height="44" rx="8" ry="8" style="stroke:#CBD5E1;stroke-width:1.5;" width="438.813" x="453.8457" y="1158"/><rect fill="none" height="130" rx="8" ry="8" style="stroke:#CBD5E1;stroke-width:1.5;" width="475.9575" x="706.2661" y="1216"/><rect fill="none" height="44" rx="8" ry="8" style="stroke:#CBD5E1;stroke-width:1.5;" width="455.9575" x="716.2661" y="1295"/><g class="participant-lifeline" data-entity-uid="part1" data-qualified-name="Kubernetes" id="part1-lifeline"><g><title>Kubernetes</title><rect fill="#000000" fill-opacity="0.00000" height="1941" width="8" x="39.8032" y="114"/><line style="stroke:#94A3B8;stroke-width:0.5;stroke-dasharray:5,5;" x1="43" x2="43" y1="114" y2="2055"/></g></g><g class="participant-lifeline" data-entity-uid="part2" data-qualified-name="Controller" id="part2-lifeline"><g><title>Controller</title><rect fill="#000000" fill-opacity="0.00000" height="1941" width="8" x="277.0435" y="114"/><line style="stroke:#94A3B8;stroke-width:0.5;stroke-dasharray:5,5;" x1="280.6987" x2="280.6987" y1="114" y2="2055"/></g></g><g class="participant-lifeline" data-entity-uid="part3" data-qualified-name="BaseReconciler" id="part3-lifeline"><g><title>BaseReconciler</title><rect fill="#000000" fill-opacity="0.00000" height="1941" width="8" x="515.8696" y="114"/><line style="stroke:#94A3B8;stroke-width:0.5;stroke-dasharray:5,5;" x1="519.8457" x2="519.8457" y1="114" y2="2055"/></g></g><g class="participant-lifeline" data-entity-uid="part4" data-qualified-name="ServiceManager" id="part4-lifeline"><g><title>OSOKServiceManager</title><rect fill="#000000" fill-opacity="0.00000" height="1941" width="8" x="800.4624" y="114"/><line style="stroke:#94A3B8;stroke-width:0.5;stroke-dasharray:5,5;" x1="804.2661" x2="804.2661" y1="114" y2="2055"/></g></g><g class="participant-lifeline" data-entity-uid="part5" data-qualified-name="OCI" id="part5-lifeline"><g><title>OCI</title><rect fill="#000000" fill-opacity="0.00000" height="1941" width="8" x="1138.7788" y="114"/><line style="stroke:#94A3B8;stroke-width:0.5;stroke-dasharray:5,5;" x1="1142.334" x2="1142.334" y1="114" y2="2055"/></g></g><g class="participant participant-head" data-entity-uid="part1" data-qualified-name="Kubernetes" id="part1-head"><text fill="#000000" font-family="Helvetica" font-size="14" lengthAdjust="spacing" textLength="71.6064" x="5" y="110.7803">Kubernetes</text><ellipse cx="43.8032" cy="48.5" fill="#E2E8F0" rx="8" ry="8" style="stroke:#0F172A;stroke-width:0.5;"/><path d="M43.8032,56.5 L43.8032,83.5 M30.8032,64.5 L56.8032,64.5 M43.8032,83.5 L30.8032,98.5 M43.8032,83.5 L56.8032,98.5" fill="none" style="stroke:#0F172A;stroke-width:0.5;"/></g><g class="participant participant-head" data-entity-uid="part2" data-qualified-name="Controller" id="part2-head"><rect fill="#E2E8F0" height="28" rx="8" ry="8" style="stroke:#0F172A;stroke-width:0.5;" width="74.6895" x="243.6987" y="85"/><text fill="#0F172A" font-family="Helvetica" font-size="14" lengthAdjust="spacing" textLength="60.6895" x="250.6987" y="102.7803">Controller</text></g><g class="participant participant-head" data-entity-uid="part3" data-qualified-name="BaseReconciler" id="part3-head"><rect fill="#E2E8F0" height="28" rx="8" ry="8" style="stroke:#0F172A;stroke-width:0.5;" width="112.0479" x="463.8457" y="85"/><text fill="#0F172A" font-family="Helvetica" font-size="14" lengthAdjust="spacing" textLength="98.0479" x="470.8457" y="102.7803">BaseReconciler</text></g><g class="participant participant-head" data-entity-uid="part4" data-qualified-name="ServiceManager" id="part4-head"><rect fill="#E2E8F0" height="28" rx="8" ry="8" style="stroke:#0F172A;stroke-width:0.5;" width="156.3926" x="726.2661" y="85"/><text fill="#0F172A" font-family="Helvetica" font-size="14" lengthAdjust="spacing" textLength="142.3926" x="733.2661" y="102.7803">OSOKServiceManager</text></g><g class="participant participant-head" data-entity-uid="part5" data-qualified-name="OCI" id="part5-head"><rect fill="#E2E8F0" height="28" rx="8" ry="8" style="stroke:#0F172A;stroke-width:0.5;" width="38.8896" x="1123.334" y="85"/><text fill="#0F172A" font-family="Helvetica" font-size="14" lengthAdjust="spacing" textLength="24.8896" x="1130.334" y="102.7803">OCI</text></g><path d="M455,137 L455,187 A8,8 0 0 0 463,195 L860,195 A8,8 0 0 0 868,187 L868,139 L858,129 L463,129 A8,8 0 0 0 455,137" fill="#FFF7D6" style="stroke:#B45309;stroke-width:0.5;"/><path d="M858,129 L858,135 A4,4 0 0 0 862,139 L868,139 L858,129" fill="#FFF7D6" style="stroke:#B45309;stroke-width:0.5;"/><text fill="#334155" font-family="Helvetica" font-size="14" lengthAdjust="spacing" textLength="111.2891" x="503.7107" y="144.7803">shared resolution:</text><text fill="#334155" font-family="Helvetica" font-size="14" lengthAdjust="spacing" textLength="307.3916" x="503.7107" y="158.7803">shared/diagrams/shared-resolution-sequence.svg</text><text fill="#334155" font-family="Helvetica" font-size="14" lengthAdjust="spacing" textLength="88.7305" x="503.7107" y="172.7803">shared delete:</text><text fill="#334155" font-family="Helvetica" font-size="14" lengthAdjust="spacing" textLength="284.833" x="503.7107" y="186.7803">shared/diagrams/shared-delete-sequence.svg</text><g class="message" data-entity-1="part1" data-entity-2="part2" id="msg1"><polygon fill="#0F172A" points="269.0435,244,279.0435,248,269.0435,252,273.0435,248" style="stroke:#0F172A;stroke-width:1;"/><line style="stroke:#0F172A;stroke-width:1;" x1="43.8032" x2="275.0435" y1="248" y2="248"/><text fill="#000000" font-family="Helvetica" font-size="14" lengthAdjust="spacing" textLength="54.5029" x="50.8032" y="214.7803">enqueue</text><text fill="#000000" font-family="Helvetica" font-size="14" lengthAdjust="spacing" textLength="213.2402" x="50.8032" y="228.7803">DatabaseScheduledActionParams</text><text fill="#000000" font-family="Helvetica" font-size="14" lengthAdjust="spacing" textLength="56.0273" x="50.8032" y="242.7803">reconcile</text></g><g class="message" data-entity-1="part2" data-entity-2="part3" id="msg2"><polygon fill="#0F172A" points="507.8696,272,517.8696,276,507.8696,280,511.8696,276" style="stroke:#0F172A;stroke-width:1;"/><line style="stroke:#0F172A;stroke-width:1;" x1="281.0435" x2="513.8696" y1="276" y2="276"/><text fill="#000000" font-family="Helvetica" font-size="14" lengthAdjust="spacing" textLength="117.4961" x="288.0435" y="270.7803">Reconcile(request)</text></g><g class="message" data-entity-1="part3" data-entity-2="part4" id="msg3"><polygon fill="#0F172A" points="792.4624,314,802.4624,318,792.4624,322,796.4624,318" style="stroke:#0F172A;stroke-width:1;"/><line style="stroke:#0F172A;stroke-width:1;" x1="519.8696" x2="798.4624" y1="318" y2="318"/><text fill="#000000" font-family="Helvetica" font-size="14" lengthAdjust="spacing" textLength="105.834" x="526.8696" y="298.7803">reconcile desired</text><text fill="#000000" font-family="Helvetica" font-size="14" lengthAdjust="spacing" textLength="213.2402" x="526.8696" y="312.7803">DatabaseScheduledActionParams</text></g><path d="M461.8457,356 L515.1836,356 L515.1836,362 L505.1836,372 L453.8457,372 L453.8457,364 A8,8 0 0 1 461.8457,356" fill="#F8FAFC" style="stroke:#CBD5E1;stroke-width:1.5;"/><rect fill="none" height="290" rx="8" ry="8" style="stroke:#CBD5E1;stroke-width:1.5;" width="738.3779" x="453.8457" y="356"/><text fill="#000000" font-family="Helvetica" font-size="14" font-weight="bold" lengthAdjust="spacing" textLength="16.3379" x="468.8457" y="367.7803">alt</text><text fill="#000000" font-family="Helvetica" font-size="14" font-weight="bold" lengthAdjust="spacing" textLength="308.1094" x="530.1836" y="368.7803">[tracked or explicit OCI identity already exists]</text><g class="message" data-entity-1="part4" data-entity-2="part5" id="msg4"><polygon fill="#0F172A" points="1130.7788,388,1140.7788,392,1130.7788,396,1134.7788,392" style="stroke:#0F172A;stroke-width:1;"/><line style="stroke:#0F172A;stroke-width:1;" x1="804.4624" x2="1136.7788" y1="392" y2="392"/><text fill="#000000" font-family="Helvetica" font-size="14" lengthAdjust="spacing" textLength="235.8057" x="811.4624" y="386.7803">GetDatabaseScheduledActionParams</text></g><line style="stroke:#CBD5E1;stroke-width:1;stroke-dasharray:2,2;" x1="453.8457" x2="1192.2236" y1="401" y2="401"/><text fill="#000000" font-family="Helvetica" font-size="14" font-weight="bold" lengthAdjust="spacing" textLength="185.1582" x="458.8457" y="411.7803">[tracked identity is missing]</text><g class="message" data-entity-1="part4" data-entity-2="part5" id="msg5"><polygon fill="#0F172A" points="1130.7788,446,1140.7788,450,1130.7788,454,1134.7788,450" style="stroke:#0F172A;stroke-width:1;"/><line style="stroke:#0F172A;stroke-width:1;" x1="804.4624" x2="1136.7788" y1="450" y2="450"/><text fill="#000000" font-family="Helvetica" font-size="14" lengthAdjust="spacing" textLength="277.0264" x="811.4624" y="430.7803">ListDatabaseScheduledActionParams(filters:</text><text fill="#000000" font-family="Helvetica" font-size="14" lengthAdjust="spacing" textLength="143.1719" x="811.4624" y="444.7803">compartment_id, state)</text></g><path d="M714.2661,465 L767.604,465 L767.604,471 L757.604,481 L706.2661,481 L706.2661,473 A8,8 0 0 1 714.2661,465" fill="#F8FAFC" style="stroke:#CBD5E1;stroke-width:1.5;"/><rect fill="none" height="146" rx="8" ry="8" style="stroke:#CBD5E1;stroke-width:1.5;" width="475.9575" x="706.2661" y="465"/><text fill="#000000" font-family="Helvetica" font-size="14" font-weight="bold" lengthAdjust="spacing" textLength="16.3379" x="721.2661" y="476.7803">alt</text><text fill="#000000" font-family="Helvetica" font-size="14" font-weight="bold" lengthAdjust="spacing" textLength="242.7031" x="782.604" y="477.7803">[reusable OCI resource is not found]</text><g class="message" data-entity-1="part4" data-entity-2="part5" id="msg6"><polygon fill="#0F172A" points="1130.7788,497,1140.7788,501,1130.7788,505,1134.7788,501" style="stroke:#0F172A;stroke-width:1;"/><line style="stroke:#0F172A;stroke-width:1;" x1="804.4624" x2="1136.7788" y1="501" y2="501"/><text fill="#000000" font-family="Helvetica" font-size="14" lengthAdjust="spacing" textLength="255.2607" x="811.4624" y="495.7803">CreateDatabaseScheduledActionParams</text></g><path d="M724.2661,516 L790.811,516 L790.811,522 L780.811,532 L716.2661,532 L716.2661,524 A8,8 0 0 1 724.2661,516" fill="#F8FAFC" style="stroke:#CBD5E1;stroke-width:1.5;"/><rect fill="none" height="44" rx="8" ry="8" style="stroke:#CBD5E1;stroke-width:1.5;" width="455.9575" x="716.2661" y="516"/><text fill="#000000" font-family="Helvetica" font-size="14" font-weight="bold" lengthAdjust="spacing" textLength="29.5449" x="731.2661" y="527.7803">loop</text><text fill="#000000" font-family="Helvetica" font-size="14" font-weight="bold" lengthAdjust="spacing" textLength="215.4756" x="805.811" y="528.7803">[create pending PROVISIONING]</text><g class="message" data-entity-1="part4" data-entity-2="part5" id="msg7"><polygon fill="#0F172A" points="1130.7788,548,1140.7788,552,1130.7788,556,1134.7788,552" style="stroke:#0F172A;stroke-width:1;"/><line style="stroke:#0F172A;stroke-width:1;" x1="804.4624" x2="1136.7788" y1="552" y2="552"/><text fill="#000000" font-family="Helvetica" font-size="14" lengthAdjust="spacing" textLength="235.8057" x="811.4624" y="546.7803">GetDatabaseScheduledActionParams</text></g><line style="stroke:#CBD5E1;stroke-width:1;stroke-dasharray:2,2;" x1="706.2661" x2="1182.2236" y1="568" y2="568"/><text fill="#000000" font-family="Helvetica" font-size="14" font-weight="bold" lengthAdjust="spacing" textLength="255.2334" x="711.2661" y="578.7803">[reusable OCI resource already exists]</text><g class="message" data-entity-1="part4" data-entity-2="part5" id="msg8"><polygon fill="#0F172A" points="1130.7788,599,1140.7788,603,1130.7788,607,1134.7788,603" style="stroke:#0F172A;stroke-width:1;"/><line style="stroke:#0F172A;stroke-width:1;" x1="804.4624" x2="1136.7788" y1="603" y2="603"/><text fill="#000000" font-family="Helvetica" font-size="14" lengthAdjust="spacing" textLength="235.8057" x="811.4624" y="597.7803">GetDatabaseScheduledActionParams</text></g><g class="message" data-entity-1="part4" data-entity-2="part3" id="msg9"><polygon fill="#0F172A" points="530.8696,634,520.8696,638,530.8696,642,526.8696,638" style="stroke:#0F172A;stroke-width:1;"/><line style="stroke:#0F172A;stroke-width:1;stroke-dasharray:2,2;" x1="524.8696" x2="803.4624" y1="638" y2="638"/><text fill="#000000" font-family="Helvetica" font-size="14" lengthAdjust="spacing" textLength="231.0957" x="536.8696" y="632.7803">persist resolved OCI identity in status</text></g><path d="M441.8457,660 L495.1836,660 L495.1836,666 L485.1836,676 L433.8457,676 L433.8457,668 A8,8 0 0 1 441.8457,660" fill="#F8FAFC" style="stroke:#CBD5E1;stroke-width:1.5;"/><rect fill="none" height="840" rx="8" ry="8" style="stroke:#CBD5E1;stroke-width:1.5;" width="775.1118" x="433.8457" y="660"/><text fill="#000000" font-family="Helvetica" font-size="14" font-weight="bold" lengthAdjust="spacing" textLength="16.3379" x="448.8457" y="671.7803">alt</text><text fill="#000000" font-family="Helvetica" font-size="14" font-weight="bold" lengthAdjust="spacing" textLength="120.5859" x="510.1836" y="672.7803">[delete requested]</text><path d="M451.8457,683 L530.8662,683 L530.8662,689 L520.8662,699 L443.8457,699 L443.8457,691 A8,8 0 0 1 451.8457,683" fill="#F8FAFC" style="stroke:#CBD5E1;stroke-width:1.5;"/><rect fill="none" height="274" rx="8" ry="8" style="stroke:#CBD5E1;stroke-width:1.5;" width="738.3779" x="443.8457" y="683"/><text fill="#000000" font-family="Helvetica" font-size="14" font-weight="bold" lengthAdjust="spacing" textLength="42.0205" x="458.8457" y="694.7803">Delete</text><g class="message" data-entity-1="part4" data-entity-2="part5" id="msg10"><polygon fill="#0F172A" points="1130.7788,715,1140.7788,719,1130.7788,723,1134.7788,719" style="stroke:#0F172A;stroke-width:1;"/><line style="stroke:#0F172A;stroke-width:1;" x1="804.4624" x2="1136.7788" y1="719" y2="719"/><text fill="#000000" font-family="Helvetica" font-size="14" lengthAdjust="spacing" textLength="253.709" x="811.4624" y="713.7803">DeleteDatabaseScheduledActionParams</text></g><g class="message" data-entity-1="part4" data-entity-2="part5" id="msg11"><polygon fill="#0F172A" points="1130.7788,771,1140.7788,775,1130.7788,779,1134.7788,775" style="stroke:#0F172A;stroke-width:1;"/><line style="stroke:#0F172A;stroke-width:1;" x1="804.4624" x2="1136.7788" y1="775" y2="775"/><text fill="#000000" font-family="Helvetica" font-size="14" lengthAdjust="spacing" textLength="109.7168" x="811.4624" y="741.7803">confirm delete via</text><text fill="#000000" font-family="Helvetica" font-size="14" lengthAdjust="spacing" textLength="252.1436" x="811.4624" y="755.7803">GetDatabaseScheduledActionParams or</text><text fill="#000000" font-family="Helvetica" font-size="14" lengthAdjust="spacing" textLength="235.0264" x="811.4624" y="769.7803">ListDatabaseScheduledActionParams</text></g><path d="M724.2661,790 L790.811,790 L790.811,796 L780.811,806 L716.2661,806 L716.2661,798 A8,8 0 0 1 724.2661,790" fill="#F8FAFC" style="stroke:#CBD5E1;stroke-width:1.5;"/><rect fill="none" height="58" rx="8" ry="8" style="stroke:#CBD5E1;stroke-width:1.5;" width="455.9575" x="716.2661" y="790"/><text fill="#000000" font-family="Helvetica" font-size="14" font-weight="bold" lengthAdjust="spacing" textLength="29.5449" x="731.2661" y="801.7803">loop</text><text fill="#000000" font-family="Helvetica" font-size="14" font-weight="bold" lengthAdjust="spacing" textLength="182.7793" x="805.811" y="802.7803">[delete pending DELETING]</text><g class="message" data-entity-1="part4" data-entity-2="part5" id="msg12"><polygon fill="#0F172A" points="1130.7788,836,1140.7788,840,1130.7788,844,1134.7788,840" style="stroke:#0F172A;stroke-width:1;"/><line style="stroke:#0F172A;stroke-width:1;" x1="804.4624" x2="1136.7788" y1="840" y2="840"/><text fill="#000000" font-family="Helvetica" font-size="14" lengthAdjust="spacing" textLength="252.1436" x="811.4624" y="820.7803">GetDatabaseScheduledActionParams or</text><text fill="#000000" font-family="Helvetica" font-size="14" lengthAdjust="spacing" textLength="235.0264" x="811.4624" y="834.7803">ListDatabaseScheduledActionParams</text></g><path d="M461.8457,862 L515.1836,862 L515.1836,868 L505.1836,878 L453.8457,878 L453.8457,870 A8,8 0 0 1 461.8457,862" fill="#F8FAFC" style="stroke:#CBD5E1;stroke-width:1.5;"/><rect fill="none" height="88" rx="8" ry="8" style="stroke:#CBD5E1;stroke-width:1.5;" width="438.813" x="453.8457" y="862"/><text fill="#000000" font-family="Helvetica" font-size="14" font-weight="bold" lengthAdjust="spacing" textLength="16.3379" x="468.8457" y="873.7803">alt</text><text fill="#000000" font-family="Helvetica" font-size="14" font-weight="bold" lengthAdjust="spacing" textLength="261.4268" x="530.1836" y="874.7803">[cleanup or finalizer release is blocked]</text><g class="message" data-entity-1="part4" data-entity-2="part3" id="msg13"><polygon fill="#0F172A" points="530.8696,894,520.8696,898,530.8696,902,526.8696,898" style="stroke:#0F172A;stroke-width:1;"/><line style="stroke:#0F172A;stroke-width:1;stroke-dasharray:2,2;" x1="524.8696" x2="803.4624" y1="898" y2="898"/><text fill="#000000" font-family="Helvetica" font-size="14" lengthAdjust="spacing" textLength="170.4336" x="536.8696" y="892.7803">retain delete state and retry</text></g><line style="stroke:#CBD5E1;stroke-width:1;stroke-dasharray:2,2;" x1="453.8457" x2="892.6587" y1="907" y2="907"/><text fill="#000000" font-family="Helvetica" font-size="14" font-weight="bold" lengthAdjust="spacing" textLength="194.4824" x="458.8457" y="917.7803">[delete completion observed]</text><g class="message" data-entity-1="part4" data-entity-2="part3" id="msg14"><polygon fill="#0F172A" points="530.8696,938,520.8696,942,530.8696,946,526.8696,942" style="stroke:#0F172A;stroke-width:1;"/><line style="stroke:#0F172A;stroke-width:1;stroke-dasharray:2,2;" x1="524.8696" x2="803.4624" y1="942" y2="942"/><text fill="#000000" font-family="Helvetica" font-size="14" lengthAdjust="spacing" textLength="243.5781" x="536.8696" y="936.7803">release finalizer after delete completion</text></g><line style="stroke:#CBD5E1;stroke-width:1;stroke-dasharray:2,2;" x1="433.8457" x2="1208.9575" y1="965" y2="965"/><text fill="#000000" font-family="Helvetica" font-size="14" font-weight="bold" lengthAdjust="spacing" textLength="149.3857" x="438.8457" y="975.7803">[OCI state is retryable]</text><g class="message" data-entity-1="part4" data-entity-2="part3" id="msg15"><polygon fill="#0F172A" points="530.8696,1010,520.8696,1014,530.8696,1018,526.8696,1014" style="stroke:#0F172A;stroke-width:1;"/><line style="stroke:#0F172A;stroke-width:1;stroke-dasharray:2,2;" x1="524.8696" x2="803.4624" y1="1014" y2="1014"/><text fill="#000000" font-family="Helvetica" font-size="14" lengthAdjust="spacing" textLength="184.4199" x="536.8696" y="994.7803">requeue while OCI remains in</text><text fill="#000000" font-family="Helvetica" font-size="14" lengthAdjust="spacing" textLength="260.5928" x="536.8696" y="1008.7803">PROVISIONING, UPDATING, DELETING</text></g><line style="stroke:#CBD5E1;stroke-width:1;stroke-dasharray:2,2;" x1="433.8457" x2="1208.9575" y1="1023" y2="1023"/><text fill="#000000" font-family="Helvetica" font-size="14" font-weight="bold" lengthAdjust="spacing" textLength="200.751" x="438.8457" y="1033.7803">[live state requires field-aware</text><text fill="#000000" font-family="Helvetica" font-size="14" font-weight="bold" lengthAdjust="spacing" textLength="105.0068" x="438.8457" y="1047.7803">drift evaluation]</text><path d="M451.8457,1059 L579.832,1059 L579.832,1065 L569.832,1075 L443.8457,1075 L443.8457,1067 A8,8 0 0 1 451.8457,1059" fill="#F8FAFC" style="stroke:#CBD5E1;stroke-width:1.5;"/><rect fill="none" height="392" rx="8" ry="8" style="stroke:#CBD5E1;stroke-width:1.5;" width="755.1118" x="443.8457" y="1059"/><text fill="#000000" font-family="Helvetica" font-size="14" font-weight="bold" lengthAdjust="spacing" textLength="90.9863" x="458.8457" y="1070.7803">Drift handling</text><path d="M758,1088 L758,1138 A8,8 0 0 0 766,1146 L1180,1146 A8,8 0 0 0 1188,1138 L1188,1090 L1178,1080 L766,1080 A8,8 0 0 0 758,1088" fill="#FFF7D6" style="stroke:#B45309;stroke-width:0.5;"/><path d="M1178,1080 L1178,1086 A4,4 0 0 0 1182,1090 L1188,1090 L1178,1080" fill="#FFF7D6" style="stroke:#B45309;stroke-width:0.5;"/><text fill="#334155" font-family="Helvetica" font-size="14" lengthAdjust="spacing" textLength="255.2813" x="841.3381" y="1095.7803">Supported update surface: display_name</text><text fill="#334155" font-family="Helvetica" font-size="14" lengthAdjust="spacing" textLength="235.7783" x="841.3381" y="1109.7803">Reject before mutate: force-new fields</text><text fill="#334155" font-family="Helvetica" font-size="14" lengthAdjust="spacing" textLength="100.3789" x="841.3381" y="1123.7803">compartment_id</text><text fill="#334155" font-family="Helvetica" font-size="14" lengthAdjust="spacing" textLength="229.5576" x="841.3381" y="1137.7803">Lookup filters: compartment_id, state</text><path d="M461.8457,1158 L520.6113,1158 L520.6113,1164 L510.6113,1174 L453.8457,1174 L453.8457,1166 A8,8 0 0 1 461.8457,1158" fill="#F8FAFC" style="stroke:#CBD5E1;stroke-width:1.5;"/><rect fill="none" height="44" rx="8" ry="8" style="stroke:#CBD5E1;stroke-width:1.5;" width="438.813" x="453.8457" y="1158"/><text fill="#000000" font-family="Helvetica" font-size="14" font-weight="bold" lengthAdjust="spacing" textLength="21.7656" x="468.8457" y="1169.7803">opt</text><text fill="#000000" font-family="Helvetica" font-size="14" font-weight="bold" lengthAdjust="spacing" textLength="276.1309" x="535.6113" y="1170.7803">[force-new or conflicting drift is detected]</text><g class="message" data-entity-1="part4" data-entity-2="part3" id="msg16"><polygon fill="#0F172A" points="530.8696,1190,520.8696,1194,530.8696,1198,526.8696,1194" style="stroke:#0F172A;stroke-width:1;"/><line style="stroke:#0F172A;stroke-width:1;stroke-dasharray:2,2;" x1="524.8696" x2="803.4624" y1="1194" y2="1194"/><text fill="#000000" font-family="Helvetica" font-size="14" lengthAdjust="spacing" textLength="164.1855" x="536.8696" y="1188.7803">reject before OCI mutation</text></g><path d="M714.2661,1216 L773.0317,1216 L773.0317,1222 L763.0317,1232 L706.2661,1232 L706.2661,1224 A8,8 0 0 1 714.2661,1216" fill="#F8FAFC" style="stroke:#CBD5E1;stroke-width:1.5;"/><rect fill="none" height="130" rx="8" ry="8" style="stroke:#CBD5E1;stroke-width:1.5;" width="475.9575" x="706.2661" y="1216"/><text fill="#000000" font-family="Helvetica" font-size="14" font-weight="bold" lengthAdjust="spacing" textLength="21.7656" x="721.2661" y="1227.7803">opt</text><text fill="#000000" font-family="Helvetica" font-size="14" font-weight="bold" lengthAdjust="spacing" textLength="243.4619" x="788.0317" y="1228.7803">[supported mutable drift is detected]</text><g class="message" data-entity-1="part4" data-entity-2="part5" id="msg17"><polygon fill="#0F172A" points="1130.7788,1276,1140.7788,1280,1130.7788,1284,1134.7788,1280" style="stroke:#0F172A;stroke-width:1;"/><line style="stroke:#0F172A;stroke-width:1;" x1="804.4624" x2="1136.7788" y1="1280" y2="1280"/><text fill="#000000" font-family="Helvetica" font-size="14" lengthAdjust="spacing" textLength="35.0205" x="811.4624" y="1246.7803">Apply</text><text fill="#000000" font-family="Helvetica" font-size="14" lengthAdjust="spacing" textLength="258.3848" x="811.4624" y="1260.7803">UpdateDatabaseScheduledActionParams</text><text fill="#000000" font-family="Helvetica" font-size="14" lengthAdjust="spacing" textLength="226.4541" x="811.4624" y="1274.7803">only for mutable fields display_name</text></g><path d="M724.2661,1295 L790.811,1295 L790.811,1301 L780.811,1311 L716.2661,1311 L716.2661,1303 A8,8 0 0 1 724.2661,1295" fill="#F8FAFC" style="stroke:#CBD5E1;stroke-width:1.5;"/><rect fill="none" height="44" rx="8" ry="8" style="stroke:#CBD5E1;stroke-width:1.5;" width="455.9575" x="716.2661" y="1295"/><text fill="#000000" font-family="Helvetica" font-size="14" font-weight="bold" lengthAdjust="spacing" textLength="29.5449" x="731.2661" y="1306.7803">loop</text><text fill="#000000" font-family="Helvetica" font-size="14" font-weight="bold" lengthAdjust="spacing" textLength="190.5381" x="805.811" y="1307.7803">[update pending UPDATING]</text><g class="message" data-entity-1="part4" data-entity-2="part5" id="msg18"><polygon fill="#0F172A" points="1130.7788,1327,1140.7788,1331,1130.7788,1335,1134.7788,1331" style="stroke:#0F172A;stroke-width:1;"/><line style="stroke:#0F172A;stroke-width:1;" x1="804.4624" x2="1136.7788" y1="1331" y2="1331"/><text fill="#000000" font-family="Helvetica" font-size="14" lengthAdjust="spacing" textLength="235.8057" x="811.4624" y="1325.7803">GetDatabaseScheduledActionParams</text></g><g class="message" data-entity-1="part4" data-entity-2="part5" id="msg19"><polygon fill="#0F172A" points="1130.7788,1439,1140.7788,1443,1130.7788,1447,1134.7788,1443" style="stroke:#0F172A;stroke-width:1;"/><line style="stroke:#0F172A;stroke-width:1;" x1="804.4624" x2="1136.7788" y1="1443" y2="1443"/><text fill="#000000" font-family="Helvetica" font-size="14" lengthAdjust="spacing" textLength="104.2891" x="811.4624" y="1367.7803">run helper hooks</text><text fill="#000000" font-family="Helvetica" font-size="14" lengthAdjust="spacing" textLength="219.0508" x="811.4624" y="1381.7803">create=tfresource.CreateResource,</text><text fill="#000000" font-family="Helvetica" font-size="14" lengthAdjust="spacing" textLength="314.3164" x="811.4624" y="1395.7803">tfresource.WaitForWorkRequestWithErrorHandling</text><text fill="#000000" font-family="Helvetica" font-size="14" lengthAdjust="spacing" textLength="215.5439" x="811.4624" y="1409.7803">entity=template action=CREATED;</text><text fill="#000000" font-family="Helvetica" font-size="14" lengthAdjust="spacing" textLength="226.085" x="811.4624" y="1423.7803">update=tfresource.UpdateResource;</text><text fill="#000000" font-family="Helvetica" font-size="14" lengthAdjust="spacing" textLength="212.8438" x="811.4624" y="1437.7803">delete=tfresource.DeleteResource</text></g><g class="message" data-entity-1="part4" data-entity-2="part3" id="msg20"><polygon fill="#0F172A" points="530.8696,1488,520.8696,1492,530.8696,1496,526.8696,1492" style="stroke:#0F172A;stroke-width:1;"/><line style="stroke:#0F172A;stroke-width:1;stroke-dasharray:2,2;" x1="524.8696" x2="803.4624" y1="1492" y2="1492"/><text fill="#000000" font-family="Helvetica" font-size="14" lengthAdjust="spacing" textLength="100.7822" x="536.8696" y="1472.7803">status=required,</text><text fill="#000000" font-family="Helvetica" font-size="14" lengthAdjust="spacing" textLength="230.7197" x="536.8696" y="1486.7803">finalizer=retain-until-confirmed-delete</text></g><g class="message" data-entity-1="part3" data-entity-2="part2" id="msg21"><polygon fill="#0F172A" points="292.0435,1537,282.0435,1541,292.0435,1545,288.0435,1541" style="stroke:#0F172A;stroke-width:1;"/><line style="stroke:#0F172A;stroke-width:1;stroke-dasharray:2,2;" x1="286.0435" x2="518.8696" y1="1541" y2="1541"/><text fill="#000000" font-family="Helvetica" font-size="14" lengthAdjust="spacing" textLength="214.8262" x="298.0435" y="1521.7803">requeue on provisioning, updating,</text><text fill="#000000" font-family="Helvetica" font-size="14" lengthAdjust="spacing" textLength="69.2549" x="298.0435" y="1535.7803">terminating</text></g><path d="M809,1562 L809,2032 A8,8 0 0 0 817,2040 L1148,2040 A8,8 0 0 0 1156,2032 L1156,1564 L1146,1554 L817,1554 A8,8 0 0 0 809,1562" fill="#FFF7D6" style="stroke:#B45309;stroke-width:0.5;"/><path d="M1146,1554 L1146,1560 A4,4 0 0 0 1150,1564 L1156,1564 L1146,1554" fill="#FFF7D6" style="stroke:#B45309;stroke-width:0.5;"/><text fill="#334155" font-family="Helvetica" font-size="14" lengthAdjust="spacing" textLength="101.165" x="815" y="1569.7803">shared diagram:</text><text fill="#334155" font-family="Helvetica" font-size="14" lengthAdjust="spacing" textLength="307.3916" x="815" y="1583.7803">shared/diagrams/shared-resolution-sequence.svg</text><text fill="#334155" font-family="Helvetica" font-size="14" lengthAdjust="spacing" textLength="143.1992" x="815" y="1597.7803">shared delete diagram:</text><text fill="#334155" font-family="Helvetica" font-size="14" lengthAdjust="spacing" textLength="284.833" x="815" y="1611.7803">shared/diagrams/shared-delete-sequence.svg</text><text fill="#334155" font-family="Helvetica" font-size="14" lengthAdjust="spacing" textLength="280.9297" x="815" y="1625.7803">Start from the shared resolution sequence for</text><text fill="#334155" font-family="Helvetica" font-size="14" lengthAdjust="spacing" textLength="260.7295" x="815" y="1639.7803">OCID binding, datasource pagination, and</text><text fill="#334155" font-family="Helvetica" font-size="14" lengthAdjust="spacing" textLength="163.4268" x="815" y="1653.7803">create-or-update dispatch.</text><text fill="#334155" font-family="Helvetica" font-size="14" lengthAdjust="spacing" textLength="301.1982" x="815" y="1667.7803">Layer the shared delete sequence when finalizer</text><text fill="#334155" font-family="Helvetica" font-size="14" lengthAdjust="spacing" textLength="269.2471" x="815" y="1681.7803">retention, delete confirmation, work-request</text><text fill="#334155" font-family="Helvetica" font-size="14" lengthAdjust="spacing" textLength="199.2334" x="815" y="1695.7803">polling, or Secret cleanup apply.</text><text fill="#334155" font-family="Helvetica" font-size="14" lengthAdjust="spacing" textLength="281.709" x="815" y="1709.7803">archetype batch: Generated service-manager</text><text fill="#334155" font-family="Helvetica" font-size="14" lengthAdjust="spacing" textLength="266.1504" x="815" y="1723.7803">controllers follow the shared resolution and</text><text fill="#334155" font-family="Helvetica" font-size="14" lengthAdjust="spacing" textLength="259.9297" x="815" y="1737.7803">delete sequences with imported waits and</text><text fill="#334155" font-family="Helvetica" font-size="14" lengthAdjust="spacing" textLength="134.6064" x="815" y="1751.7803">controller-local policy.</text><text fill="#334155" font-family="Helvetica" font-size="14" lengthAdjust="spacing" textLength="109.7305" x="815" y="1765.7803">service: database</text><text fill="#334155" font-family="Helvetica" font-size="14" lengthAdjust="spacing" textLength="238.9365" x="815" y="1779.7803">slug: databasescheduledactionparams</text><text fill="#334155" font-family="Helvetica" font-size="14" lengthAdjust="spacing" textLength="246.7021" x="815" y="1793.7803">kind: DatabaseScheduledActionParams</text><text fill="#334155" font-family="Helvetica" font-size="14" lengthAdjust="spacing" textLength="241.2402" x="815" y="1807.7803">archetype: generated-service-manager</text><text fill="#334155" font-family="Helvetica" font-size="14" lengthAdjust="spacing" textLength="156.4063" x="815" y="1821.7803">status/finalizer: required /</text><text fill="#334155" font-family="Helvetica" font-size="14" lengthAdjust="spacing" textLength="174.3027" x="815" y="1835.7803">retain-until-confirmed-delete</text><text fill="#334155" font-family="Helvetica" font-size="14" lengthAdjust="spacing" textLength="272.3984" x="815" y="1849.7803">requeue: provisioning, updating, terminating</text><text fill="#334155" font-family="Helvetica" font-size="14" lengthAdjust="spacing" textLength="295.6816" x="815" y="1863.7803">provider states: create PROVISIONING; update</text><text fill="#334155" font-family="Helvetica" font-size="14" lengthAdjust="spacing" textLength="192.165" x="815" y="1877.7803">UPDATING; delete DELETING</text><text fill="#334155" font-family="Helvetica" font-size="14" lengthAdjust="spacing" textLength="183.6611" x="815" y="1891.7803">supported drift: display_name</text><text fill="#334155" font-family="Helvetica" font-size="14" lengthAdjust="spacing" textLength="230.3301" x="815" y="1905.7803">reject before mutate: force-new fields</text><text fill="#334155" font-family="Helvetica" font-size="14" lengthAdjust="spacing" textLength="100.3789" x="815" y="1919.7803">compartment_id</text><text fill="#334155" font-family="Helvetica" font-size="14" lengthAdjust="spacing" textLength="66.1445" x="815" y="1933.7803">list lookup:</text><text fill="#334155" font-family="Helvetica" font-size="14" lengthAdjust="spacing" textLength="326.9014" x="815" y="1947.7803">scaffold_database_databasescheduledactionparams</text><text fill="#334155" font-family="Helvetica" font-size="14" lengthAdjust="spacing" textLength="175.8477" x="815" y="1961.7803">filters compartment_id, state</text><text fill="#334155" font-family="Helvetica" font-size="14" lengthAdjust="spacing" textLength="89.4961" x="815" y="1975.7803">conflicts: none</text><text fill="#334155" font-family="Helvetica" font-size="14" lengthAdjust="spacing" textLength="104.3164" x="815" y="1989.7803">open gaps: none</text><text fill="#334155" font-family="Helvetica" font-size="14" lengthAdjust="spacing" textLength="224.9023" x="815" y="2003.7803">Scaffold metadata only; replace with</text><text fill="#334155" font-family="Helvetica" font-size="14" lengthAdjust="spacing" textLength="244.3232" x="815" y="2017.7803">controller-specific runtime states before</text><text fill="#334155" font-family="Helvetica" font-size="14" lengthAdjust="spacing" textLength="66.1445" x="815" y="2031.7803">promotion.</text><?plantuml-src hLTRRzis57xNho2wbnQmawP9Ud6G0McIjK6pf8ZRzSL0G8j7DXUAr4ZAhZVil-_m9akExHZja8V88dckt_SToZnmML5DIsAcbAavbnDIK64WCytAcEOF4wrgoSwLK9hyKkJunrex61Iq5lOt9UqDBO5y1343otEwVi-G_mtauAYrIBLMysZzPN7mvbNxf5GMtZ-AeIZUiDUhkvHceEEEyT7nuSjtApkS-xX-U7XqS7pSMlVcSwKbQ7BmEhFS2Y13-Ai6cGFf4qOj7LC3-nVnOPXFWTK2s5bkkPAVdHMJJJa3KYXbn-fxoxf9Xlx92A6vLReJRSmwBQsc2w_WRV4Ibz4O5fPNLDhrvziRTh7IgaXZG_02hhdirlFT4JqSlyLLPxBgBELZTWm7pTAZNhqjQ95d_sO-D_Af7WCMsOB9Md6GSmn4Ao50Trw_nqBVGQvapbUNdjqERpyDGSzu3hzJIIUWdn5gIFTLvyZj-LNcS43K3BlSjTrREOUCqC281gD4xHeyYA_s6QSJr-lzyBk_tD9FRTupiqcom41WjXjFX-NkIP3CupLR5elqVstLQ410uluQHd8h74TIfmIpvMbdgvlyW3JFpxMBnDWNMNUBEzGjqO0qnZ59mp6R9yB9F4B8jL8F-8zYbcCkMKQ59LOZRh1QY13uNWdic6yNGJf9vEA2KA61iWMkScDDrWt51OUx1-G3sEqH0AfRuwmnpWqfkJ6eVviCNwFNhPQV5rnOq6Omahag7UfAD7xFMOyOIosyy6bgg0qTOy5SRWuujKPHGFVORfGDPCsc0CunVGlRanDALIJt6qc5879w_ldkze-huTNjpTNDXn-l6iRbAxS-_l-hDskoNmFL2gkCVW8rPzZ63awuzFMkWpbNyy0m4d4DBABmmh_U56nOtHxlXgCOQS5rcVpEE1t9ft97t8_aanWB3OvsKuClBgyll_n4StTqdQgP2w0IouT4BRYa0gUvnjhYM-E1F1RASMkNHcgm5DiLy_4iyQA0x_KYu2skEKRX0qP3rDYWvLqTXB2MWT82EVhOQW1u0hd3KuW6y_71ECZlvj2hCfbFUSEH4dCq2CkHR5EnHxv-lZZxuf-Q3dhlWizICPmvb5M32O1WVJh7YJ6IJFF24fXHKLCVVCIpVpt50WgdOyivrusxvuRWiAugfP4BfAwOysHgNT0S1eHnKmcwk9Tuaylku4_8BHb3eJIGidP13L2caFDz2VCGbicwUfT5UKzwIDRAuNB6gSgsJ2Ai77zm05W7xf0hje5XmtAxQzlRORik-D1Jdvr3qnJ0BJb1UzfJvDDPLOd5I7xrXNjY-Yef5YwvnakeMBVAdjIn3udK2Hm_fzYRfuck9Pc2G2abKsmNXXh6ngajaghlXObp5t_sHhArzerol3lgRqe_t0LT_SRjz18lylfZHE181aK-jO0qyzps0PwUtrsUVRcyE1d9a7JRPwXgyebR0bNRMu8ofosx3eqm4quZenXcquZ2QT2XVetXYdvKx-PcvXsiNeLMBcE9zYXFbLOpRZ1Dh40lTDKzOV50b-ZHDjpKV3ArH1La_SKptXD_xjRvf9Lrjy-XHRQIGgkIs2cGHnVXvSSC8Zj3E5tuQvnFs7qbnKj1HIS-NoLxJjMp0B2-qls8TKS2QlFfNdPD5rZLbhCq4fAZ-HJaKiKpR9Z3bhFSIBdlMdGtHrZsuxpFAcoIZqqvASGebZECEYhlPLGZXUoY0lpOnNWSk_0ha3frCA4t_J8s9s-wZgAC_zLyGurSnYjP6397ZX1UHkMP8uTCA4rZjO_Jamg2CVCS8ulk1ytNPsP4FLd-D8dxWLfLu3v-TJAymMpLXoRd0PcaRFkhsGRIx3U57wI9nCX-jfqraHA3JOGWRJxuFVX16KQ36ndX3jiUc2TH8hCaZIUfzytuN8gw5_ELOQP_Q9W9TzCKVg8XYN9QODVPVQh__VP6n16uOGAcEOVvug1mWn11Fg5L-ZsCtaY9bNQEY1id9zW3JCgH0j7KXewf8ES5pvsuMrx6IuI96RiYbye5jzVCtly0?></g></svg>