<?plantuml 1.2026.1?><svg xmlns="http://www.w3.org/2000/svg" xmlns:xlink="http://www.w3.org/1999/xlink" contentStyleType="text/css" data-diagram-type="ACTIVITY" height="2277px" preserveAspectRatio="none" style="width:1292px;height:2277px;background:#FCFCFD;" version="1.1" viewBox="0 0 1292 2277" width="1292px" zoomAndPan="magnify"><title>Activity - osmanagementhub/OsManagementHubManagedInstanceModules</title><defs/><g><rect fill="#FCFCFD" height="2277" style="stroke:none;stroke-width:1;" width="1292" x="0" y="0"/><g class="title" data-source-line="10"><text fill="#000000" font-family="Helvetica" font-size="14" font-weight="bold" lengthAdjust="spacing" textLength="500.9717" x="394.0845" y="30.7803">Activity - osmanagementhub/OsManagementHubManagedInstanceModules</text></g><ellipse cx="680.4835" cy="55" fill="#1D4ED8" rx="10" ry="10" style="stroke:#222222;stroke-width:1;"/><rect fill="none" height="472" rx="8" ry="8" style="stroke:#000000;stroke-width:1.5;" width="743.6035" x="313.5455" y="75"/><path d="M435.6139,75 L435.6139,82 L425.6139,92 L313.5455,92" fill="none" style="stroke:#000000;stroke-width:1.5;"/><text fill="#000000" font-family="Helvetica" font-size="14" lengthAdjust="spacing" textLength="112.0684" x="316.5455" y="86.7803">Observe and Bind</text><rect fill="#F8FAFC" height="48" rx="8" ry="8" style="stroke:#0F172A;stroke-width:0.5;" width="304.7852" x="528.0909" y="109"/><text fill="#0F172A" font-family="Helvetica" font-size="14" lengthAdjust="spacing" textLength="136.9375" x="538.0909" y="129.7803">Start from shared flow</text><text fill="#0F172A" font-family="Helvetica" font-size="14" lengthAdjust="spacing" textLength="284.7852" x="538.0909" y="143.7803">shared/diagrams/shared-reconcile-activity.svg</text><rect fill="#F8FAFC" height="62" rx="8" ry="8" style="stroke:#0F172A;stroke-width:0.5;" width="346.8604" x="507.0533" y="177"/><text fill="#0F172A" font-family="Helvetica" font-size="14" lengthAdjust="spacing" textLength="83.2754" x="517.0533" y="197.7803">Read desired</text><text fill="#0F172A" font-family="Helvetica" font-size="14" lengthAdjust="spacing" textLength="326.8604" x="517.0533" y="211.7803">OsManagementHubManagedInstanceModules spec,</text><text fill="#0F172A" font-family="Helvetica" font-size="14" lengthAdjust="spacing" textLength="198.4609" x="517.0533" y="225.7803">tracked status, and delete intent</text><polygon fill="#E2E8F0" points="551.0177,259,809.9493,259,821.9493,271,809.9493,283,551.0177,283,539.0177,271,551.0177,259" style="stroke:#1D4ED8;stroke-width:0.5;"/><text fill="#0F172A" font-family="Helvetica" font-size="14" lengthAdjust="spacing" textLength="258.9316" x="551.0177" y="274.7803">"Tracked or explicit OCI identity present?"</text><text fill="#000000" font-family="Helvetica" font-size="14" lengthAdjust="spacing" textLength="21.7861" x="517.2316" y="267.7803">yes</text><text fill="#000000" font-family="Helvetica" font-size="14" lengthAdjust="spacing" textLength="15.5723" x="821.9493" y="267.7803">no</text><rect fill="#F8FAFC" height="48" rx="8" ry="8" style="stroke:#0F172A;stroke-width:0.5;" width="332.0742" x="333.5455" y="293"/><text fill="#0F172A" font-family="Helvetica" font-size="14" lengthAdjust="spacing" textLength="202.3027" x="343.5455" y="313.7803">Get the current OCI resource via</text><text fill="#0F172A" font-family="Helvetica" font-size="14" lengthAdjust="spacing" textLength="312.0742" x="343.5455" y="327.7803">GetOsManagementHubManagedInstanceModules</text><rect fill="#F8FAFC" height="62" rx="8" ry="8" style="stroke:#0F172A;stroke-width:0.5;" width="331.2949" x="695.7369" y="293"/><text fill="#0F172A" font-family="Helvetica" font-size="14" lengthAdjust="spacing" textLength="259.9092" x="705.7369" y="313.7803">Resolve an existing OCI resource through</text><text fill="#0F172A" font-family="Helvetica" font-size="14" lengthAdjust="spacing" textLength="311.2949" x="705.7369" y="327.7803">ListOsManagementHubManagedInstanceModules</text><text fill="#0F172A" font-family="Helvetica" font-size="14" lengthAdjust="spacing" textLength="213.2061" x="705.7369" y="341.7803">using filters compartment_id, state</text><rect fill="#F8FAFC" height="62" rx="8" ry="8" style="stroke:#0F172A;stroke-width:0.5;" width="351.5293" x="685.6198" y="375"/><text fill="#0F172A" font-family="Helvetica" font-size="14" lengthAdjust="spacing" textLength="174.2959" x="695.6198" y="395.7803">Create the OCI resource via</text><text fill="#0F172A" font-family="Helvetica" font-size="14" lengthAdjust="spacing" textLength="331.5293" x="695.6198" y="409.7803">CreateOsManagementHubManagedInstanceModules</text><text fill="#0F172A" font-family="Helvetica" font-size="14" lengthAdjust="spacing" textLength="205.4609" x="695.6198" y="423.7803">when no reusable match is found</text><rect fill="#F8FAFC" height="48" rx="8" ry="8" style="stroke:#0F172A;stroke-width:0.5;" width="286.8955" x="717.9366" y="457"/><text fill="#0F172A" font-family="Helvetica" font-size="14" lengthAdjust="spacing" textLength="266.8955" x="727.9366" y="477.7803">Persist the resolved or created OCI identity</text><text fill="#0F172A" font-family="Helvetica" font-size="14" lengthAdjust="spacing" textLength="63.8135" x="727.9366" y="491.7803">into status</text><polygon fill="#E2E8F0" points="680.4835,511,692.4835,523,680.4835,535,668.4835,523,680.4835,511" style="stroke:#1D4ED8;stroke-width:0.5;"/><polygon fill="#E2E8F0" points="618.3073,567,742.6598,567,754.6598,579,742.6598,591,618.3073,591,606.3073,579,618.3073,567" style="stroke:#1D4ED8;stroke-width:0.5;"/><text fill="#0F172A" font-family="Helvetica" font-size="14" lengthAdjust="spacing" textLength="124.3525" x="618.3073" y="582.7803">"Delete requested?"</text><text fill="#000000" font-family="Helvetica" font-size="14" lengthAdjust="spacing" textLength="21.7861" x="584.5211" y="575.7803">yes</text><text fill="#000000" font-family="Helvetica" font-size="14" lengthAdjust="spacing" textLength="15.5723" x="754.6598" y="575.7803">no</text><rect fill="none" height="408" rx="8" ry="8" style="stroke:#000000;stroke-width:1.5;" width="644.4814" x="11" y="601"/><path d="M61.4688,601 L61.4688,608 L51.4688,618 L11,618" fill="none" style="stroke:#000000;stroke-width:1.5;"/><text fill="#000000" font-family="Helvetica" font-size="14" lengthAdjust="spacing" textLength="40.4688" x="14" y="612.7803">Delete</text><rect fill="#F8FAFC" height="104" rx="8" ry="8" style="stroke:#0F172A;stroke-width:0.5;" width="349.9775" x="164.7554" y="635"/><text fill="#0F172A" font-family="Helvetica" font-size="14" lengthAdjust="spacing" textLength="105.0684" x="174.7554" y="655.7803">Delete path uses</text><text fill="#0F172A" font-family="Helvetica" font-size="14" lengthAdjust="spacing" textLength="329.9775" x="174.7554" y="669.7803">DeleteOsManagementHubManagedInstanceModules</text><text fill="#0F172A" font-family="Helvetica" font-size="14" lengthAdjust="spacing" textLength="101.9375" x="174.7554" y="683.7803">with required via</text><text fill="#0F172A" font-family="Helvetica" font-size="14" lengthAdjust="spacing" textLength="328.4121" x="174.7554" y="697.7803">GetOsManagementHubManagedInstanceModules or</text><text fill="#0F172A" font-family="Helvetica" font-size="14" lengthAdjust="spacing" textLength="326.8604" x="174.7554" y="711.7803">ListOsManagementHubManagedInstanceModules to</text><text fill="#0F172A" font-family="Helvetica" font-size="14" lengthAdjust="spacing" textLength="144.7168" x="174.7554" y="725.7803">DELETED confirmation</text><rect fill="#F8FAFC" height="76" rx="8" ry="8" style="stroke:#0F172A;stroke-width:0.5;" width="348.4121" x="165.5381" y="766"/><text fill="#0F172A" font-family="Helvetica" font-size="14" lengthAdjust="spacing" textLength="123.7236" x="175.5381" y="786.7803">Confirm deletion via</text><text fill="#0F172A" font-family="Helvetica" font-size="14" lengthAdjust="spacing" textLength="328.4121" x="175.5381" y="800.7803">GetOsManagementHubManagedInstanceModules or</text><text fill="#0F172A" font-family="Helvetica" font-size="14" lengthAdjust="spacing" textLength="311.2949" x="175.5381" y="814.7803">ListOsManagementHubManagedInstanceModules</text><text fill="#0F172A" font-family="Helvetica" font-size="14" lengthAdjust="spacing" textLength="176.6201" x="175.5381" y="828.7803">until OCI reaches DELETED</text><polygon fill="#E2E8F0" points="191.5718,877,487.9165,877,499.9165,889,487.9165,901,191.5718,901,179.5718,889,191.5718,877" style="stroke:#1D4ED8;stroke-width:0.5;"/><text fill="#0F172A" font-family="Helvetica" font-size="14" lengthAdjust="spacing" textLength="296.3447" x="191.5718" y="892.7803">"Delete cleanup and finalizer release succeed?"</text><text fill="#000000" font-family="Helvetica" font-size="14" lengthAdjust="spacing" textLength="21.7861" x="157.7856" y="885.7803">yes</text><text fill="#000000" font-family="Helvetica" font-size="14" lengthAdjust="spacing" textLength="15.5723" x="499.9165" y="885.7803">no</text><rect fill="#F8FAFC" height="34" rx="8" ry="8" style="stroke:#0F172A;stroke-width:0.5;" width="293.1436" x="23" y="911"/><text fill="#0F172A" font-family="Helvetica" font-size="14" lengthAdjust="spacing" textLength="273.1436" x="33" y="931.7803">Remove the finalizer after delete completion</text><rect fill="#F8FAFC" height="48" rx="8" ry="8" style="stroke:#0F172A;stroke-width:0.5;" width="251.1299" x="384.3516" y="911"/><text fill="#0F172A" font-family="Helvetica" font-size="14" lengthAdjust="spacing" textLength="231.1299" x="394.3516" y="931.7803">Stay blocked until cleanup or finalizer</text><text fill="#0F172A" font-family="Helvetica" font-size="14" lengthAdjust="spacing" textLength="108.9512" x="394.3516" y="945.7803">release succeeds</text><polygon fill="#E2E8F0" points="339.7441,965,351.7441,977,339.7441,989,327.7441,977,339.7441,965" style="stroke:#1D4ED8;stroke-width:0.5;"/><ellipse cx="339.7441" cy="1054" fill="none" rx="11" ry="11" style="stroke:#222222;stroke-width:1;"/><ellipse cx="339.7441" cy="1054" fill="#222222" rx="6" ry="6" style="stroke:#222222;stroke-width:1;"/><rect fill="none" height="450" rx="8" ry="8" style="stroke:#000000;stroke-width:1.5;" width="345.916" x="854.2649" y="601"/><path d="M1005.0989,601 L1005.0989,608 L995.0989,618 L854.2649,618" fill="none" style="stroke:#000000;stroke-width:1.5;"/><text fill="#000000" font-family="Helvetica" font-size="14" lengthAdjust="spacing" textLength="140.834" x="857.2649" y="612.7803">Lifecycle Classification</text><rect fill="#F8FAFC" height="48" rx="8" ry="8" style="stroke:#0F172A;stroke-width:0.5;" width="280.5928" x="880.9265" y="684"/><text fill="#0F172A" font-family="Helvetica" font-size="14" lengthAdjust="spacing" textLength="240.4541" x="890.9265" y="704.7803">Request requeue while OCI remains in</text><text fill="#0F172A" font-family="Helvetica" font-size="14" lengthAdjust="spacing" textLength="260.5928" x="890.9265" y="718.7803">PROVISIONING, UPDATING, DELETING</text><ellipse cx="1021.2229" cy="770" fill="none" rx="11" ry="11" style="stroke:#222222;stroke-width:1;"/><ellipse cx="1021.2229" cy="770" fill="#222222" rx="6" ry="6" style="stroke:#222222;stroke-width:1;"/><polygon fill="#E2E8F0" points="934.9397,635,1107.5061,635,1119.5061,647,1107.5061,659,934.9397,659,922.9397,647,934.9397,635" style="stroke:#1D4ED8;stroke-width:0.5;"/><text fill="#000000" font-family="Helvetica" font-size="14" lengthAdjust="spacing" textLength="21.7861" x="1025.2229" y="669.7803">yes</text><text fill="#0F172A" font-family="Helvetica" font-size="14" lengthAdjust="spacing" textLength="172.5664" x="934.9397" y="650.7803">"OCI state in retryable set?"</text><rect fill="#F8FAFC" height="48" rx="8" ry="8" style="stroke:#0F172A;stroke-width:0.5;" width="293.916" x="874.2649" y="896"/><text fill="#0F172A" font-family="Helvetica" font-size="14" lengthAdjust="spacing" textLength="273.916" x="884.2649" y="916.7803">Return an unsuccessful reconcile result until</text><text fill="#0F172A" font-family="Helvetica" font-size="14" lengthAdjust="spacing" textLength="133.041" x="884.2649" y="930.7803">OCI reaches ACTIVE</text><ellipse cx="1021.2229" cy="990" fill="none" rx="11" ry="11" style="stroke:#222222;stroke-width:1;"/><ellipse cx="1021.2229" cy="990" fill="#222222" rx="6" ry="6" style="stroke:#222222;stroke-width:1;"/><polygon fill="#E2E8F0" points="900.7019,847,1141.7439,847,1153.7439,859,1141.7439,871,900.7019,871,888.7019,859,900.7019,847" style="stroke:#1D4ED8;stroke-width:0.5;"/><text fill="#000000" font-family="Helvetica" font-size="14" lengthAdjust="spacing" textLength="21.7861" x="1025.2229" y="881.7803">yes</text><text fill="#0F172A" font-family="Helvetica" font-size="14" lengthAdjust="spacing" textLength="241.042" x="900.7019" y="862.7803">"OCI state is outside success targets?"</text><rect fill="none" height="736.5" rx="8" ry="8" style="stroke:#000000;stroke-width:1.5;" width="605.6592" x="675.4814" y="1075"/><path d="M841.9014,1075 L841.9014,1082 L831.9014,1092 L675.4814,1092" fill="none" style="stroke:#000000;stroke-width:1.5;"/><text fill="#000000" font-family="Helvetica" font-size="14" lengthAdjust="spacing" textLength="156.4199" x="678.4814" y="1086.7803">Ready and Drift Handling</text><rect fill="#F8FAFC" height="48" rx="8" ry="8" style="stroke:#0F172A;stroke-width:0.5;" width="296.2402" x="873.1028" y="1109"/><text fill="#0F172A" font-family="Helvetica" font-size="14" lengthAdjust="spacing" textLength="276.2402" x="883.1028" y="1129.7803">Compare live OCI state against the imported</text><text fill="#0F172A" font-family="Helvetica" font-size="14" lengthAdjust="spacing" textLength="75.4824" x="883.1028" y="1143.7803">field surface</text><rect fill="#F8FAFC" height="48" rx="8" ry="8" style="stroke:#0F172A;stroke-width:0.5;" width="302.4473" x="869.9993" y="1226"/><text fill="#0F172A" font-family="Helvetica" font-size="14" lengthAdjust="spacing" textLength="282.4473" x="879.9993" y="1246.7803">Reject drift before OCI mutation for force-new</text><text fill="#0F172A" font-family="Helvetica" font-size="14" lengthAdjust="spacing" textLength="136.9512" x="879.9993" y="1260.7803">fields compartment_id</text><ellipse cx="1021.2229" cy="1306.5" fill="none" rx="11" ry="11" style="stroke:#222222;stroke-width:1;"/><ellipse cx="1021.2229" cy="1306.5" fill="#222222" rx="6" ry="6" style="stroke:#222222;stroke-width:1;"/><polygon fill="#E2E8F0" points="895.6399,1177,1146.8059,1177,1158.8059,1189,1146.8059,1201,895.6399,1201,883.6399,1189,895.6399,1177" style="stroke:#1D4ED8;stroke-width:0.5;"/><text fill="#000000" font-family="Helvetica" font-size="14" lengthAdjust="spacing" textLength="21.7861" x="1025.2229" y="1211.7803">yes</text><text fill="#0F172A" font-family="Helvetica" font-size="14" lengthAdjust="spacing" textLength="251.166" x="895.6399" y="1192.7803">"Force-new or conflicting drift detected?"</text><polygon fill="#E2E8F0" points="910.7952,1359.5,1131.6506,1359.5,1143.6506,1371.5,1131.6506,1383.5,910.7952,1383.5,898.7952,1371.5,910.7952,1359.5" style="stroke:#1D4ED8;stroke-width:0.5;"/><text fill="#0F172A" font-family="Helvetica" font-size="14" lengthAdjust="spacing" textLength="220.8555" x="910.7952" y="1375.2803">"Supported mutable drift detected?"</text><text fill="#000000" font-family="Helvetica" font-size="14" lengthAdjust="spacing" textLength="21.7861" x="877.009" y="1368.2803">yes</text><text fill="#000000" font-family="Helvetica" font-size="14" lengthAdjust="spacing" textLength="15.5723" x="1143.6506" y="1368.2803">no</text><rect fill="#F8FAFC" height="62" rx="8" ry="8" style="stroke:#0F172A;stroke-width:0.5;" width="354.6533" x="695.4814" y="1393.5"/><text fill="#0F172A" font-family="Helvetica" font-size="14" lengthAdjust="spacing" textLength="35.0205" x="705.4814" y="1414.2803">Apply</text><text fill="#0F172A" font-family="Helvetica" font-size="14" lengthAdjust="spacing" textLength="334.6533" x="705.4814" y="1428.2803">UpdateOsManagementHubManagedInstanceModules</text><text fill="#0F172A" font-family="Helvetica" font-size="14" lengthAdjust="spacing" textLength="226.4541" x="705.4814" y="1442.2803">only for mutable fields display_name</text><rect fill="#F8FAFC" height="34" rx="8" ry="8" style="stroke:#0F172A;stroke-width:0.5;" width="199.0059" x="1070.1348" y="1393.5"/><text fill="#0F172A" font-family="Helvetica" font-size="14" lengthAdjust="spacing" textLength="179.0059" x="1080.1348" y="1414.2803">Skip the no-op mutation path</text><polygon fill="#E2E8F0" points="1021.2229,1461.5,1033.2229,1473.5,1021.2229,1485.5,1009.2229,1473.5,1021.2229,1461.5" style="stroke:#1D4ED8;stroke-width:0.5;"/><rect fill="#F8FAFC" height="118" rx="8" ry="8" style="stroke:#0F172A;stroke-width:0.5;" width="334.3164" x="854.0647" y="1505.5"/><text fill="#0F172A" font-family="Helvetica" font-size="14" lengthAdjust="spacing" textLength="164.2061" x="864.0647" y="1526.2803">Run provider helper hooks</text><text fill="#0F172A" font-family="Helvetica" font-size="14" lengthAdjust="spacing" textLength="219.0508" x="864.0647" y="1540.2803">create=tfresource.CreateResource,</text><text fill="#0F172A" font-family="Helvetica" font-size="14" lengthAdjust="spacing" textLength="314.3164" x="864.0647" y="1554.2803">tfresource.WaitForWorkRequestWithErrorHandling</text><text fill="#0F172A" font-family="Helvetica" font-size="14" lengthAdjust="spacing" textLength="215.5439" x="864.0647" y="1568.2803">entity=template action=CREATED;</text><text fill="#0F172A" font-family="Helvetica" font-size="14" lengthAdjust="spacing" textLength="226.085" x="864.0647" y="1582.2803">update=tfresource.UpdateResource;</text><text fill="#0F172A" font-family="Helvetica" font-size="14" lengthAdjust="spacing" textLength="273.5537" x="864.0647" y="1596.2803">delete=tfresource.DeleteResource when the</text><text fill="#0F172A" font-family="Helvetica" font-size="14" lengthAdjust="spacing" textLength="220.2334" x="864.0647" y="1610.2803">matching field-driven path executes</text><rect fill="#F8FAFC" height="34" rx="8" ry="8" style="stroke:#0F172A;stroke-width:0.5;" width="303.2197" x="869.613" y="1643.5"/><text fill="#0F172A" font-family="Helvetica" font-size="14" lengthAdjust="spacing" textLength="283.2197" x="879.613" y="1664.2803">Return success for the ACTIVE success state</text><rect fill="#F8FAFC" height="48" rx="8" ry="8" style="stroke:#0F172A;stroke-width:0.5;" width="279.1299" x="881.658" y="1697.5"/><text fill="#0F172A" font-family="Helvetica" font-size="14" lengthAdjust="spacing" textLength="259.1299" x="891.658" y="1718.2803">Project required status and finalizer policy</text><text fill="#0F172A" font-family="Helvetica" font-size="14" lengthAdjust="spacing" textLength="174.3027" x="891.658" y="1732.2803">retain-until-confirmed-delete</text><rect fill="#F8FAFC" height="34" rx="8" ry="8" style="stroke:#0F172A;stroke-width:0.5;" width="313.4189" x="864.5134" y="1765.5"/><text fill="#0F172A" font-family="Helvetica" font-size="14" lengthAdjust="spacing" textLength="293.4189" x="874.5134" y="1786.2803">Requeue on provisioning, updating, terminating</text><path d="M711.4835,1821.5 L711.4835,2039.5 L691.4835,2043.5 L711.4835,2047.5 L711.4835,2265.5 A0,0 0 0 0 711.4835,2265.5 L1199.4669,2265.5 A0,0 0 0 0 1199.4669,2265.5 L1199.4669,1831.5 L1189.4669,1821.5 L711.4835,1821.5 A0,0 0 0 0 711.4835,1821.5" fill="#FFF7D6" style="stroke:#B45309;stroke-width:0.5;"/><path d="M1189.4669,1821.5 L1189.4669,1831.5 L1199.4669,1831.5 L1189.4669,1821.5" fill="#FFF7D6" style="stroke:#B45309;stroke-width:0.5;"/><text fill="#334155" font-family="Helvetica" font-size="14" lengthAdjust="spacing" textLength="101.165" x="717.4835" y="1837.2803">shared diagram:</text><text fill="#334155" font-family="Helvetica" font-size="14" lengthAdjust="spacing" textLength="284.7852" x="717.4835" y="1851.2803">shared/diagrams/shared-reconcile-activity.svg</text><text fill="#334155" font-family="Helvetica" font-size="14" lengthAdjust="spacing" textLength="265.3438" x="717.4835" y="1865.2803">Start from the shared reconcile activity and</text><text fill="#334155" font-family="Helvetica" font-size="14" lengthAdjust="spacing" textLength="273.8955" x="717.4835" y="1879.2803">specialize provider-backed CRUD, wait, and</text><text fill="#334155" font-family="Helvetica" font-size="14" lengthAdjust="spacing" textLength="182.875" x="717.4835" y="1893.2803">status-projection details here.</text><text fill="#334155" font-family="Helvetica" font-size="14" lengthAdjust="spacing" textLength="229.5371" x="717.4835" y="1907.2803">Controller-local activity diagrams add</text><text fill="#334155" font-family="Helvetica" font-size="14" lengthAdjust="spacing" textLength="238.8955" x="717.4835" y="1921.2803">list-lookup hints, secret policies, delete</text><text fill="#334155" font-family="Helvetica" font-size="14" lengthAdjust="spacing" textLength="200.0332" x="717.4835" y="1935.2803">handling, and open formal gaps.</text><text fill="#334155" font-family="Helvetica" font-size="14" lengthAdjust="spacing" textLength="281.709" x="717.4835" y="1949.2803">archetype batch: Generated service-manager</text><text fill="#334155" font-family="Helvetica" font-size="14" lengthAdjust="spacing" textLength="291.0469" x="717.4835" y="1963.2803">controllers specialize the shared reconcile path</text><text fill="#334155" font-family="Helvetica" font-size="14" lengthAdjust="spacing" textLength="189.8477" x="717.4835" y="1977.2803">with formal runtime ownership.</text><text fill="#334155" font-family="Helvetica" font-size="14" lengthAdjust="spacing" textLength="171.9854" x="717.4835" y="1991.2803">service: osmanagementhub</text><text fill="#334155" font-family="Helvetica" font-size="14" lengthAdjust="spacing" textLength="316.7637" x="717.4835" y="2005.2803">slug: osmanagementhubmanagedinstancemodules</text><text fill="#334155" font-family="Helvetica" font-size="14" lengthAdjust="spacing" textLength="322.9707" x="717.4835" y="2019.2803">kind: OsManagementHubManagedInstanceModules</text><text fill="#334155" font-family="Helvetica" font-size="14" lengthAdjust="spacing" textLength="241.2402" x="717.4835" y="2033.2803">archetype: generated-service-manager</text><text fill="#334155" font-family="Helvetica" font-size="14" lengthAdjust="spacing" textLength="156.4063" x="717.4835" y="2047.2803">status/finalizer: required /</text><text fill="#334155" font-family="Helvetica" font-size="14" lengthAdjust="spacing" textLength="174.3027" x="717.4835" y="2061.2803">retain-until-confirmed-delete</text><text fill="#334155" font-family="Helvetica" font-size="14" lengthAdjust="spacing" textLength="272.3984" x="717.4835" y="2075.2803">requeue: provisioning, updating, terminating</text><text fill="#334155" font-family="Helvetica" font-size="14" lengthAdjust="spacing" textLength="295.6816" x="717.4835" y="2089.2803">provider states: create PROVISIONING; update</text><text fill="#334155" font-family="Helvetica" font-size="14" lengthAdjust="spacing" textLength="192.165" x="717.4835" y="2103.2803">UPDATING; delete DELETING</text><text fill="#334155" font-family="Helvetica" font-size="14" lengthAdjust="spacing" textLength="183.6611" x="717.4835" y="2117.2803">supported drift: display_name</text><text fill="#334155" font-family="Helvetica" font-size="14" lengthAdjust="spacing" textLength="230.3301" x="717.4835" y="2131.2803">reject before mutate: force-new fields</text><text fill="#334155" font-family="Helvetica" font-size="14" lengthAdjust="spacing" textLength="100.3789" x="717.4835" y="2145.2803">compartment_id</text><text fill="#334155" font-family="Helvetica" font-size="14" lengthAdjust="spacing" textLength="66.1445" x="717.4835" y="2159.2803">list lookup:</text><text fill="#334155" font-family="Helvetica" font-size="14" lengthAdjust="spacing" textLength="466.9834" x="717.4835" y="2173.2803">scaffold_osmanagementhub_osmanagementhubmanagedinstancemodules</text><text fill="#334155" font-family="Helvetica" font-size="14" lengthAdjust="spacing" textLength="175.8477" x="717.4835" y="2187.2803">filters compartment_id, state</text><text fill="#334155" font-family="Helvetica" font-size="14" lengthAdjust="spacing" textLength="89.4961" x="717.4835" y="2201.2803">conflicts: none</text><text fill="#334155" font-family="Helvetica" font-size="14" lengthAdjust="spacing" textLength="104.3164" x="717.4835" y="2215.2803">open gaps: none</text><text fill="#334155" font-family="Helvetica" font-size="14" lengthAdjust="spacing" textLength="224.9023" x="717.4835" y="2229.2803">Scaffold metadata only; replace with</text><text fill="#334155" font-family="Helvetica" font-size="14" lengthAdjust="spacing" textLength="244.3232" x="717.4835" y="2243.2803">controller-specific runtime states before</text><text fill="#334155" font-family="Helvetica" font-size="14" lengthAdjust="spacing" textLength="66.1445" x="717.4835" y="2257.2803">promotion.</text><ellipse cx="680.4835" cy="2043.5" fill="none" rx="11" ry="11" style="stroke:#222222;stroke-width:1;"/><ellipse cx="680.4835" cy="2043.5" fill="#222222" rx="6" ry="6" style="stroke:#222222;stroke-width:1;"/><line style="stroke:#0F172A;stroke-width:1;" x1="680.4835" x2="680.4835" y1="157" y2="177"/><polygon fill="#0F172A" points="676.4835,167,680.4835,177,684.4835,167,680.4835,171" style="stroke:#0F172A;stroke-width:1;"/><line style="stroke:#0F172A;stroke-width:1;" x1="861.3844" x2="861.3844" y1="355" y2="375"/><polygon fill="#0F172A" points="857.3844,365,861.3844,375,865.3844,365,861.3844,369" style="stroke:#0F172A;stroke-width:1;"/><line style="stroke:#0F172A;stroke-width:1;" x1="861.3844" x2="861.3844" y1="437" y2="457"/><polygon fill="#0F172A" points="857.3844,447,861.3844,457,865.3844,447,861.3844,451" style="stroke:#0F172A;stroke-width:1;"/><line style="stroke:#0F172A;stroke-width:1;" x1="539.0177" x2="499.5826" y1="271" y2="271"/><line style="stroke:#0F172A;stroke-width:1;" x1="499.5826" x2="499.5826" y1="271" y2="293"/><polygon fill="#0F172A" points="495.5826,283,499.5826,293,503.5826,283,499.5826,287" style="stroke:#0F172A;stroke-width:1;"/><line style="stroke:#0F172A;stroke-width:1;" x1="821.9493" x2="861.3844" y1="271" y2="271"/><line style="stroke:#0F172A;stroke-width:1;" x1="861.3844" x2="861.3844" y1="271" y2="293"/><polygon fill="#0F172A" points="857.3844,283,861.3844,293,865.3844,283,861.3844,287" style="stroke:#0F172A;stroke-width:1;"/><line style="stroke:#0F172A;stroke-width:1;" x1="499.5826" x2="499.5826" y1="341" y2="523"/><line style="stroke:#0F172A;stroke-width:1;" x1="499.5826" x2="668.4835" y1="523" y2="523"/><polygon fill="#0F172A" points="658.4835,519,668.4835,523,658.4835,527,662.4835,523" style="stroke:#0F172A;stroke-width:1;"/><line style="stroke:#0F172A;stroke-width:1;" x1="861.3844" x2="861.3844" y1="505" y2="523"/><line style="stroke:#0F172A;stroke-width:1;" x1="861.3844" x2="692.4835" y1="523" y2="523"/><polygon fill="#0F172A" points="702.4835,519,692.4835,523,702.4835,527,698.4835,523" style="stroke:#0F172A;stroke-width:1;"/><line style="stroke:#0F172A;stroke-width:1;" x1="680.4835" x2="680.4835" y1="239" y2="259"/><polygon fill="#0F172A" points="676.4835,249,680.4835,259,684.4835,249,680.4835,253" style="stroke:#0F172A;stroke-width:1;"/><line style="stroke:#0F172A;stroke-width:1;" x1="680.4835" x2="680.4835" y1="65" y2="109"/><polygon fill="#0F172A" points="676.4835,99,680.4835,109,684.4835,99,680.4835,103" style="stroke:#0F172A;stroke-width:1;"/><line style="stroke:#0F172A;stroke-width:1;" x1="339.7441" x2="339.7441" y1="739" y2="766"/><polygon fill="#0F172A" points="335.7441,756,339.7441,766,343.7441,756,339.7441,760" style="stroke:#0F172A;stroke-width:1;"/><line style="stroke:#0F172A;stroke-width:1;" x1="179.5718" x2="169.5718" y1="889" y2="889"/><line style="stroke:#0F172A;stroke-width:1;" x1="169.5718" x2="169.5718" y1="889" y2="911"/><polygon fill="#0F172A" points="165.5718,901,169.5718,911,173.5718,901,169.5718,905" style="stroke:#0F172A;stroke-width:1;"/><line style="stroke:#0F172A;stroke-width:1;" x1="499.9165" x2="509.9165" y1="889" y2="889"/><line style="stroke:#0F172A;stroke-width:1;" x1="509.9165" x2="509.9165" y1="889" y2="911"/><polygon fill="#0F172A" points="505.9165,901,509.9165,911,513.9165,901,509.9165,905" style="stroke:#0F172A;stroke-width:1;"/><line style="stroke:#0F172A;stroke-width:1;" x1="169.5718" x2="169.5718" y1="945" y2="977"/><line style="stroke:#0F172A;stroke-width:1;" x1="169.5718" x2="327.7441" y1="977" y2="977"/><polygon fill="#0F172A" points="317.7441,973,327.7441,977,317.7441,981,321.7441,977" style="stroke:#0F172A;stroke-width:1;"/><line style="stroke:#0F172A;stroke-width:1;" x1="509.9165" x2="509.9165" y1="959" y2="977"/><line style="stroke:#0F172A;stroke-width:1;" x1="509.9165" x2="351.7441" y1="977" y2="977"/><polygon fill="#0F172A" points="361.7441,973,351.7441,977,361.7441,981,357.7441,977" style="stroke:#0F172A;stroke-width:1;"/><line style="stroke:#0F172A;stroke-width:1;" x1="339.7441" x2="339.7441" y1="842" y2="877"/><polygon fill="#0F172A" points="335.7441,867,339.7441,877,343.7441,867,339.7441,871" style="stroke:#0F172A;stroke-width:1;"/><line style="stroke:#0F172A;stroke-width:1;" x1="339.7441" x2="339.7441" y1="989" y2="1043"/><polygon fill="#0F172A" points="335.7441,1033,339.7441,1043,343.7441,1033,339.7441,1037" style="stroke:#0F172A;stroke-width:1;"/><line style="stroke:#0F172A;stroke-width:1;" x1="1021.2229" x2="1021.2229" y1="732" y2="759"/><polygon fill="#0F172A" points="1017.2229,749,1021.2229,759,1025.2229,749,1021.2229,753" style="stroke:#0F172A;stroke-width:1;"/><line style="stroke:#0F172A;stroke-width:1;" x1="1021.2229" x2="1021.2229" y1="659" y2="684"/><polygon fill="#0F172A" points="1017.2229,674,1021.2229,684,1025.2229,674,1021.2229,678" style="stroke:#0F172A;stroke-width:1;"/><line style="stroke:#0F172A;stroke-width:1;" x1="1119.5061" x2="1171.5193" y1="647" y2="647"/><polygon fill="#0F172A" points="1167.5193,723.5,1171.5193,733.5,1175.5193,723.5,1171.5193,727.5" style="stroke:#0F172A;stroke-width:1;"/><line style="stroke:#0F172A;stroke-width:1;" x1="1171.5193" x2="1171.5193" y1="647" y2="812"/><line style="stroke:#0F172A;stroke-width:1;" x1="1171.5193" x2="1021.2229" y1="812" y2="812"/><line style="stroke:#0F172A;stroke-width:1;" x1="1021.2229" x2="1021.2229" y1="812" y2="847"/><polygon fill="#0F172A" points="1017.2229,837,1021.2229,847,1025.2229,837,1021.2229,841" style="stroke:#0F172A;stroke-width:1;"/><line style="stroke:#0F172A;stroke-width:1;" x1="1021.2229" x2="1021.2229" y1="944" y2="979"/><polygon fill="#0F172A" points="1017.2229,969,1021.2229,979,1025.2229,969,1021.2229,973" style="stroke:#0F172A;stroke-width:1;"/><line style="stroke:#0F172A;stroke-width:1;" x1="1021.2229" x2="1021.2229" y1="871" y2="896"/><polygon fill="#0F172A" points="1017.2229,886,1021.2229,896,1025.2229,886,1021.2229,890" style="stroke:#0F172A;stroke-width:1;"/><line style="stroke:#0F172A;stroke-width:1;" x1="1153.7439" x2="1178.1809" y1="859" y2="859"/><polygon fill="#0F172A" points="1174.1809,935.5,1178.1809,945.5,1182.1809,935.5,1178.1809,939.5" style="stroke:#0F172A;stroke-width:1;"/><line style="stroke:#0F172A;stroke-width:1;" x1="1178.1809" x2="1178.1809" y1="859" y2="1031"/><line style="stroke:#0F172A;stroke-width:1;" x1="1178.1809" x2="1021.2229" y1="1031" y2="1031"/><line style="stroke:#0F172A;stroke-width:1;" x1="1021.2229" x2="1021.2229" y1="1031" y2="1109"/><polygon fill="#0F172A" points="1017.2229,1099,1021.2229,1109,1025.2229,1099,1021.2229,1103" style="stroke:#0F172A;stroke-width:1;"/><line style="stroke:#0F172A;stroke-width:1;" x1="1021.2229" x2="1021.2229" y1="1274" y2="1295.5"/><polygon fill="#0F172A" points="1017.2229,1285.5,1021.2229,1295.5,1025.2229,1285.5,1021.2229,1289.5" style="stroke:#0F172A;stroke-width:1;"/><line style="stroke:#0F172A;stroke-width:1;" x1="1021.2229" x2="1021.2229" y1="1201" y2="1226"/><polygon fill="#0F172A" points="1017.2229,1216,1021.2229,1226,1025.2229,1216,1021.2229,1220" style="stroke:#0F172A;stroke-width:1;"/><line style="stroke:#0F172A;stroke-width:1;" x1="1158.8059" x2="1182.4465" y1="1189" y2="1189"/><polygon fill="#0F172A" points="1178.4465,1265.5,1182.4465,1275.5,1186.4465,1265.5,1182.4465,1269.5" style="stroke:#0F172A;stroke-width:1;"/><line style="stroke:#0F172A;stroke-width:1;" x1="1182.4465" x2="1182.4465" y1="1189" y2="1339.5"/><line style="stroke:#0F172A;stroke-width:1;" x1="1182.4465" x2="1021.2229" y1="1339.5" y2="1339.5"/><line style="stroke:#0F172A;stroke-width:1;" x1="1021.2229" x2="1021.2229" y1="1339.5" y2="1359.5"/><polygon fill="#0F172A" points="1017.2229,1349.5,1021.2229,1359.5,1025.2229,1349.5,1021.2229,1353.5" style="stroke:#0F172A;stroke-width:1;"/><line style="stroke:#0F172A;stroke-width:1;" x1="1021.2229" x2="1021.2229" y1="1157" y2="1177"/><polygon fill="#0F172A" points="1017.2229,1167,1021.2229,1177,1025.2229,1167,1021.2229,1171" style="stroke:#0F172A;stroke-width:1;"/><line style="stroke:#0F172A;stroke-width:1;" x1="898.7952" x2="872.8081" y1="1371.5" y2="1371.5"/><line style="stroke:#0F172A;stroke-width:1;" x1="872.8081" x2="872.8081" y1="1371.5" y2="1393.5"/><polygon fill="#0F172A" points="868.8081,1383.5,872.8081,1393.5,876.8081,1383.5,872.8081,1387.5" style="stroke:#0F172A;stroke-width:1;"/><line style="stroke:#0F172A;stroke-width:1;" x1="1143.6506" x2="1169.6377" y1="1371.5" y2="1371.5"/><line style="stroke:#0F172A;stroke-width:1;" x1="1169.6377" x2="1169.6377" y1="1371.5" y2="1393.5"/><polygon fill="#0F172A" points="1165.6377,1383.5,1169.6377,1393.5,1173.6377,1383.5,1169.6377,1387.5" style="stroke:#0F172A;stroke-width:1;"/><line style="stroke:#0F172A;stroke-width:1;" x1="872.8081" x2="872.8081" y1="1455.5" y2="1473.5"/><line style="stroke:#0F172A;stroke-width:1;" x1="872.8081" x2="1009.2229" y1="1473.5" y2="1473.5"/><polygon fill="#0F172A" points="999.2229,1469.5,1009.2229,1473.5,999.2229,1477.5,1003.2229,1473.5" style="stroke:#0F172A;stroke-width:1;"/><line style="stroke:#0F172A;stroke-width:1;" x1="1169.6377" x2="1169.6377" y1="1427.5" y2="1473.5"/><line style="stroke:#0F172A;stroke-width:1;" x1="1169.6377" x2="1033.2229" y1="1473.5" y2="1473.5"/><polygon fill="#0F172A" points="1043.2229,1469.5,1033.2229,1473.5,1043.2229,1477.5,1039.2229,1473.5" style="stroke:#0F172A;stroke-width:1;"/><line style="stroke:#0F172A;stroke-width:1;" x1="1021.2229" x2="1021.2229" y1="1485.5" y2="1505.5"/><polygon fill="#0F172A" points="1017.2229,1495.5,1021.2229,1505.5,1025.2229,1495.5,1021.2229,1499.5" style="stroke:#0F172A;stroke-width:1;"/><line style="stroke:#0F172A;stroke-width:1;" x1="1021.2229" x2="1021.2229" y1="1623.5" y2="1643.5"/><polygon fill="#0F172A" points="1017.2229,1633.5,1021.2229,1643.5,1025.2229,1633.5,1021.2229,1637.5" style="stroke:#0F172A;stroke-width:1;"/><line style="stroke:#0F172A;stroke-width:1;" x1="1021.2229" x2="1021.2229" y1="1677.5" y2="1697.5"/><polygon fill="#0F172A" points="1017.2229,1687.5,1021.2229,1697.5,1025.2229,1687.5,1021.2229,1691.5" style="stroke:#0F172A;stroke-width:1;"/><line style="stroke:#0F172A;stroke-width:1;" x1="1021.2229" x2="1021.2229" y1="1745.5" y2="1765.5"/><polygon fill="#0F172A" points="1017.2229,1755.5,1021.2229,1765.5,1025.2229,1755.5,1021.2229,1759.5" style="stroke:#0F172A;stroke-width:1;"/><line style="stroke:#0F172A;stroke-width:1;" x1="606.3073" x2="339.7441" y1="579" y2="579"/><line style="stroke:#0F172A;stroke-width:1;" x1="339.7441" x2="339.7441" y1="579" y2="635"/><polygon fill="#0F172A" points="335.7441,625,339.7441,635,343.7441,625,339.7441,629" style="stroke:#0F172A;stroke-width:1;"/><line style="stroke:#0F172A;stroke-width:1;" x1="754.6598" x2="1021.2229" y1="579" y2="579"/><line style="stroke:#0F172A;stroke-width:1;" x1="1021.2229" x2="1021.2229" y1="579" y2="635"/><polygon fill="#0F172A" points="1017.2229,625,1021.2229,635,1025.2229,625,1021.2229,629" style="stroke:#0F172A;stroke-width:1;"/><line style="stroke:#0F172A;stroke-width:1;" x1="1021.2229" x2="1021.2229" y1="1799.5" y2="1816.5"/><line style="stroke:#0F172A;stroke-width:1;" x1="1021.2229" x2="680.4835" y1="1816.5" y2="1816.5"/><line style="stroke:#0F172A;stroke-width:1;" x1="680.4835" x2="680.4835" y1="1816.5" y2="2032.5"/><polygon fill="#0F172A" points="676.4835,2022.5,680.4835,2032.5,684.4835,2022.5,680.4835,2026.5" style="stroke:#0F172A;stroke-width:1;"/><line style="stroke:#0F172A;stroke-width:1;" x1="680.4835" x2="680.4835" y1="535" y2="567"/><polygon fill="#0F172A" points="676.4835,557,680.4835,567,684.4835,557,680.4835,561" style="stroke:#0F172A;stroke-width:1;"/><?plantuml-src jLVRRjiu47tNLn3PbnQ8awPDBskZMAHEsWPeco19snS30IsDR6ueKajIzdeN_VSzl4YMxQ1m7nQ14L4S3kTovip8FWXLSyChPkUyq4kXPgpaqb9ckvqfpnzcHZUg66kf3VkjpF5Nz2GAAdaZtNkjt1TU4Vj8Sa5EvFnncLln3x6JqzucDqOla_PdvSdhv_sJIZjwjsD3MRukNcrBQLEGIHBJqvSldls-9U6lJ_ilNfoUl7pPsm_gSsqK6NRoAdF2IM9dkHCBuLPimBIjkE8pgaYvUJCzlhAVk_N7PXeNnQMoZgkSFkkYaMJxJhQg_itO8q5zK_8ozpjz9r8m62lNXdVl2i4hhOgTsD1pUbC-wmdqDPuKfrIyMM--VqGnF31kMvuw_PtSb6zf_P65enaSHlY4LkpWQch9B8XnLR1tGXK7S7zuwwLOQNJ0dQ62bL8l9oekZc7Q316pnt4zC9HhbGj9WpQ6HtOn6sN36-85a6K5f2PghuGmMrD-E57E86ou69kkiOV1le8aEM92EMWOPQ9aJmxkaXoyfBzhANBXsDNuaea2CZwRjI6BnpyEdZ8t9yMUhCW-pOOVoFaronjZi1tEG58t9YUs47oY8B6NnQECK93iYT9FlSTMon1Ec2EiymMxeThD0ONPVA8-ONSl_HFLs53tGZeobkMwyldpP-v5SHWYH0Zss10UWbExpiJDFUzR-ZWf3HMDvLDKMSLTFcV20kQ0CUwwXY6mFrnceiiX1NcufjZ8m4GXOJeb4i5IXIY1n92zyvXHGtyrP75mAqizd4R9WCvqgEPkpXhh3OvlzlLEu9o_qQForr8D5tyXSSnfc7RnwUBkuXnPKwKm22IyyScAomXfx-3_Q0S0X4J8X0gUpw4WcJNQI4CkYQkc3hLM2iKb6e714Rm6m6sJvxIJ8Y2-qei8k_KPNWAgRRrwm4OlDqe59BDYKwb3-KOBMmE0f4xNH6qPqCEGTRhkgUp1vPCeALz17njBRgqeqUtyZWTGSDa78rGEw0GkEhCAIBVaTXqCu8mWROWjvs2w5CoA2sMXOQAkRww-NTvUNdsv_FBXa7szFZ-x2qyXq7WQ9ME3vTiM8A6DioYOwAC5TBYPaRExjhZ6ACykZKgYPIDPHy2-6D75OpZ1kBsCdutlBhzTR9ZnenynpzMhaFfp8qh7Fk9HWdT2oOq3vn2JOX5TZuRpcVS_qe2eQcsSv_bIa0HnDwRaEIM4lTUWee6YPM09W1zC7SYn29SLm4dk7WFNdtYVXAPKQXElhneNqWb2CluNTQUhjoboD_ItJHsD3OfytdzknbbTI_3OrxhOdqIragjWNdj5igqGjfPyTQymYMtMmuEeGoIL7kXwxQBdkHRomvi6BunU02k6pKdM_f_M3xWmSkzRLxRCVnH9_oOjVLDTxttd0iEU-QxDGmBuT_3Y1GOzqsP-eYA1ltM40Wxvphr5RySt5sUUF40i8IBzEsECsZiX4acWBnBPfXLXeTl0xuaARIQsEeHgW9miAFgFPafvutopRMkWhHGVOX-rYE_kTTiLhuqE4Ee8F_QXBOwhDV2uybJZWEX1A9z1ecmCED67KU82S81EMR081mm-P24GuGd4Lq6lNunGOJ5l0O1-m6L6pEOkIrDL6gI6sIyDLbblFFEU9sLh4kWcMJYP-NbA13Sxu0ocSMOQttmzFsHB8E4mYeRG3EeOCe-zmiT3MY3Dq566fkMCbX8QGDjShYzg3MUyA3A9nWG1_G0cHpeTfZTBGAUBOHQ45p6YsJn1BSvtkgPGqHLKptXjZp9km5rkLHDcMM1Zo3uGnlymOlYnLQ3kuz1lihmpBiwGoUT70-GXbOKv8DrcVCRnPQINK6_deZxAalxXzdT5PcKpstaR5uL8B52bhmjyN1H3jj-NIEVhaCrQBmVRNiOK7NV87Qw1VPpz5BrPwb_3VP2RTHmJwiWEqsJ7-crk5CzIrdQxKTlnswQNsOve0y4EDzWF5eNIJBmU20_cTNIU63FRPFC0BnRXXSB9ULbgMTnlvUD-l_pyTAREsZu5zq7db0LyUc2czMswd5K8F2B1cIVz4L827psp0M4zN0u2B369T72BmKq1y36lj2-x8yyQuNluFm00?></g></svg>