<?plantuml 1.2026.1?><svg xmlns="http://www.w3.org/2000/svg" xmlns:xlink="http://www.w3.org/1999/xlink" contentStyleType="text/css" data-diagram-type="ACTIVITY" height="1469px" preserveAspectRatio="none" style="width:896px;height:1469px;background:#FCFCFD;" version="1.1" viewBox="0 0 896 1469" width="896px" zoomAndPan="magnify"><title>Activity - loganalytics/LogAnalyticsNamespaceLookupsUpdateDataManagement</title><defs/><g><rect fill="#FCFCFD" height="1469" style="stroke:none;stroke-width:1;" width="896" x="0" y="0"/><g class="title" data-source-line="10"><text fill="#000000" font-family="Helvetica" font-size="14" font-weight="bold" lengthAdjust="spacing" textLength="535.2471" x="178.9053" y="30.7803">Activity - loganalytics/LogAnalyticsNamespaceLookupsUpdateDataManagement</text></g><ellipse cx="448.8098" cy="55" fill="#1D4ED8" rx="10" ry="10" style="stroke:#222222;stroke-width:1;"/><rect fill="#F8FAFC" height="48" rx="8" ry="8" style="stroke:#0F172A;stroke-width:0.5;" width="304.7852" x="296.4172" y="85"/><text fill="#0F172A" font-family="Helvetica" font-size="14" lengthAdjust="spacing" textLength="136.9375" x="306.4172" y="105.7803">Start from shared flow</text><text fill="#0F172A" font-family="Helvetica" font-size="14" lengthAdjust="spacing" textLength="284.7852" x="306.4172" y="119.7803">shared/diagrams/shared-reconcile-activity.svg</text><rect fill="#F8FAFC" height="62" rx="8" ry="8" style="stroke:#0F172A;stroke-width:0.5;" width="383.4463" x="257.0867" y="153"/><text fill="#0F172A" font-family="Helvetica" font-size="14" lengthAdjust="spacing" textLength="80.9512" x="267.0867" y="173.7803">Load desired</text><text fill="#0F172A" font-family="Helvetica" font-size="14" lengthAdjust="spacing" textLength="363.4463" x="267.0867" y="187.7803">LogAnalyticsNamespaceLookupsUpdateDataManagement</text><text fill="#0F172A" font-family="Helvetica" font-size="14" lengthAdjust="spacing" textLength="205.4473" x="267.0867" y="201.7803">spec and status from Kubernetes</text><rect fill="#F8FAFC" height="90" rx="8" ry="8" style="stroke:#0F172A;stroke-width:0.5;" width="406.0117" x="245.804" y="235"/><text fill="#0F172A" font-family="Helvetica" font-size="14" lengthAdjust="spacing" textLength="135.3857" x="255.804" y="255.7803">Resolve OCI state via</text><text fill="#0F172A" font-family="Helvetica" font-size="14" lengthAdjust="spacing" textLength="386.0117" x="255.804" y="269.7803">GetLogAnalyticsNamespaceLookupsUpdateDataManagement</text><text fill="#0F172A" font-family="Helvetica" font-size="14" lengthAdjust="spacing" textLength="24.8965" x="255.804" y="283.7803">with</text><text fill="#0F172A" font-family="Helvetica" font-size="14" lengthAdjust="spacing" textLength="385.2324" x="255.804" y="297.7803">ListLogAnalyticsNamespaceLookupsUpdateDataManagement</text><text fill="#0F172A" font-family="Helvetica" font-size="14" lengthAdjust="spacing" textLength="47.4688" x="255.804" y="311.7803">fallback</text><rect fill="#F8FAFC" height="76" rx="8" ry="8" style="stroke:#0F172A;stroke-width:0.5;" width="502.542" x="197.5388" y="345"/><text fill="#0F172A" font-family="Helvetica" font-size="14" lengthAdjust="spacing" textLength="24.8965" x="207.5388" y="365.7803">Use</text><text fill="#0F172A" font-family="Helvetica" font-size="14" lengthAdjust="spacing" textLength="482.542" x="207.5388" y="379.7803">scaffold_loganalytics_loganalyticsnamespacelookupsupdatedatamanagement</text><text fill="#0F172A" font-family="Helvetica" font-size="14" lengthAdjust="spacing" textLength="297.2402" x="207.5388" y="393.7803">filters compartment_id, state when OCID lookup</text><text fill="#0F172A" font-family="Helvetica" font-size="14" lengthAdjust="spacing" textLength="259.9023" x="207.5388" y="407.7803">or bind-versus-create needs list resolution</text><polygon fill="#E2E8F0" points="395.1204,441,502.4993,441,514.4993,453,502.4993,465,395.1204,465,383.1204,453,395.1204,441" style="stroke:#1D4ED8;stroke-width:0.5;"/><text fill="#0F172A" font-family="Helvetica" font-size="14" lengthAdjust="spacing" textLength="107.3789" x="395.1204" y="456.7803">Resource exists?</text><text fill="#000000" font-family="Helvetica" font-size="14" lengthAdjust="spacing" textLength="21.7861" x="361.3342" y="449.7803">yes</text><text fill="#000000" font-family="Helvetica" font-size="14" lengthAdjust="spacing" textLength="15.5723" x="514.4993" y="449.7803">no</text><rect fill="#F8FAFC" height="48" rx="8" ry="8" style="stroke:#0F172A;stroke-width:0.5;" width="428.5908" x="11" y="475"/><text fill="#0F172A" font-family="Helvetica" font-size="14" lengthAdjust="spacing" textLength="108.1787" x="21" y="495.7803">Update path calls</text><text fill="#0F172A" font-family="Helvetica" font-size="14" lengthAdjust="spacing" textLength="408.5908" x="21" y="509.7803">UpdateLogAnalyticsNamespaceLookupsUpdateDataManagement</text><rect fill="#F8FAFC" height="48" rx="8" ry="8" style="stroke:#0F172A;stroke-width:0.5;" width="266.7021" x="91.9443" y="543"/><text fill="#0F172A" font-family="Helvetica" font-size="14" lengthAdjust="spacing" textLength="246.7021" x="101.9443" y="563.7803">Guard mutable fields display_name and</text><text fill="#0F172A" font-family="Helvetica" font-size="14" lengthAdjust="spacing" textLength="202.3096" x="101.9443" y="577.7803">force-new fields compartment_id</text><rect fill="#F8FAFC" height="48" rx="8" ry="8" style="stroke:#0F172A;stroke-width:0.5;" width="425.4668" x="459.5908" y="475"/><text fill="#0F172A" font-family="Helvetica" font-size="14" lengthAdjust="spacing" textLength="105.0547" x="469.5908" y="495.7803">Create path calls</text><text fill="#0F172A" font-family="Helvetica" font-size="14" lengthAdjust="spacing" textLength="405.4668" x="469.5908" y="509.7803">CreateLogAnalyticsNamespaceLookupsUpdateDataManagement</text><polygon fill="#E2E8F0" points="448.8098,597,460.8098,609,448.8098,621,436.8098,609,448.8098,597" style="stroke:#1D4ED8;stroke-width:0.5;"/><rect fill="#F8FAFC" height="104" rx="8" ry="8" style="stroke:#0F172A;stroke-width:0.5;" width="334.3164" x="281.6516" y="641"/><text fill="#0F172A" font-family="Helvetica" font-size="14" lengthAdjust="spacing" textLength="164.2061" x="291.6516" y="661.7803">Run provider helper hooks</text><text fill="#0F172A" font-family="Helvetica" font-size="14" lengthAdjust="spacing" textLength="219.0508" x="291.6516" y="675.7803">create=tfresource.CreateResource,</text><text fill="#0F172A" font-family="Helvetica" font-size="14" lengthAdjust="spacing" textLength="314.3164" x="291.6516" y="689.7803">tfresource.WaitForWorkRequestWithErrorHandling</text><text fill="#0F172A" font-family="Helvetica" font-size="14" lengthAdjust="spacing" textLength="215.5439" x="291.6516" y="703.7803">entity=template action=CREATED;</text><text fill="#0F172A" font-family="Helvetica" font-size="14" lengthAdjust="spacing" textLength="226.085" x="291.6516" y="717.7803">update=tfresource.UpdateResource;</text><text fill="#0F172A" font-family="Helvetica" font-size="14" lengthAdjust="spacing" textLength="212.8438" x="291.6516" y="731.7803">delete=tfresource.DeleteResource</text><rect fill="#F8FAFC" height="34" rx="8" ry="8" style="stroke:#0F172A;stroke-width:0.5;" width="263.5918" x="317.0139" y="765"/><text fill="#0F172A" font-family="Helvetica" font-size="14" lengthAdjust="spacing" textLength="243.5918" x="327.0139" y="785.7803">Apply repo-authored secret policy none</text><rect fill="#F8FAFC" height="118" rx="8" ry="8" style="stroke:#0F172A;stroke-width:0.5;" width="423.915" x="236.8523" y="819"/><text fill="#0F172A" font-family="Helvetica" font-size="14" lengthAdjust="spacing" textLength="105.0684" x="246.8523" y="839.7803">Delete path uses</text><text fill="#0F172A" font-family="Helvetica" font-size="14" lengthAdjust="spacing" textLength="403.915" x="246.8523" y="853.7803">DeleteLogAnalyticsNamespaceLookupsUpdateDataManagement</text><text fill="#0F172A" font-family="Helvetica" font-size="14" lengthAdjust="spacing" textLength="101.9375" x="246.8523" y="867.7803">with required via</text><text fill="#0F172A" font-family="Helvetica" font-size="14" lengthAdjust="spacing" textLength="386.0117" x="246.8523" y="881.7803">GetLogAnalyticsNamespaceLookupsUpdateDataManagement</text><text fill="#0F172A" font-family="Helvetica" font-size="14" lengthAdjust="spacing" textLength="12.4482" x="246.8523" y="895.7803">or</text><text fill="#0F172A" font-family="Helvetica" font-size="14" lengthAdjust="spacing" textLength="385.2324" x="246.8523" y="909.7803">ListLogAnalyticsNamespaceLookupsUpdateDataManagement</text><text fill="#0F172A" font-family="Helvetica" font-size="14" lengthAdjust="spacing" textLength="160.2822" x="246.8523" y="923.7803">to DELETED confirmation</text><rect fill="#F8FAFC" height="48" rx="8" ry="8" style="stroke:#0F172A;stroke-width:0.5;" width="279.1299" x="309.2449" y="957"/><text fill="#0F172A" font-family="Helvetica" font-size="14" lengthAdjust="spacing" textLength="259.1299" x="319.2449" y="977.7803">Project required status and finalizer policy</text><text fill="#0F172A" font-family="Helvetica" font-size="14" lengthAdjust="spacing" textLength="174.3027" x="319.2449" y="991.7803">retain-until-confirmed-delete</text><rect fill="#F8FAFC" height="34" rx="8" ry="8" style="stroke:#0F172A;stroke-width:0.5;" width="313.4189" x="292.1003" y="1025"/><text fill="#0F172A" font-family="Helvetica" font-size="14" lengthAdjust="spacing" textLength="293.4189" x="302.1003" y="1045.7803">Requeue on provisioning, updating, terminating</text><path d="M479.8098,1069 L479.8098,1259 L459.8098,1263 L479.8098,1267 L479.8098,1457 A0,0 0 0 0 479.8098,1457 L864.2561,1457 A0,0 0 0 0 864.2561,1457 L864.2561,1079 L854.2561,1069 L479.8098,1069 A0,0 0 0 0 479.8098,1069" fill="#FFF7D6" style="stroke:#B45309;stroke-width:0.5;"/><path d="M854.2561,1069 L854.2561,1079 L864.2561,1079 L854.2561,1069" fill="#FFF7D6" style="stroke:#B45309;stroke-width:0.5;"/><text fill="#334155" font-family="Helvetica" font-size="14" lengthAdjust="spacing" textLength="101.165" x="485.8098" y="1084.7803">shared diagram:</text><text fill="#334155" font-family="Helvetica" font-size="14" lengthAdjust="spacing" textLength="284.7852" x="485.8098" y="1098.7803">shared/diagrams/shared-reconcile-activity.svg</text><text fill="#334155" font-family="Helvetica" font-size="14" lengthAdjust="spacing" textLength="265.3438" x="485.8098" y="1112.7803">Start from the shared reconcile activity and</text><text fill="#334155" font-family="Helvetica" font-size="14" lengthAdjust="spacing" textLength="273.8955" x="485.8098" y="1126.7803">specialize provider-backed CRUD, wait, and</text><text fill="#334155" font-family="Helvetica" font-size="14" lengthAdjust="spacing" textLength="182.875" x="485.8098" y="1140.7803">status-projection details here.</text><text fill="#334155" font-family="Helvetica" font-size="14" lengthAdjust="spacing" textLength="229.5371" x="485.8098" y="1154.7803">Controller-local activity diagrams add</text><text fill="#334155" font-family="Helvetica" font-size="14" lengthAdjust="spacing" textLength="238.8955" x="485.8098" y="1168.7803">list-lookup hints, secret policies, delete</text><text fill="#334155" font-family="Helvetica" font-size="14" lengthAdjust="spacing" textLength="200.0332" x="485.8098" y="1182.7803">handling, and open formal gaps.</text><text fill="#334155" font-family="Helvetica" font-size="14" lengthAdjust="spacing" textLength="281.709" x="485.8098" y="1196.7803">archetype batch: Generated service-manager</text><text fill="#334155" font-family="Helvetica" font-size="14" lengthAdjust="spacing" textLength="291.0469" x="485.8098" y="1210.7803">controllers specialize the shared reconcile path</text><text fill="#334155" font-family="Helvetica" font-size="14" lengthAdjust="spacing" textLength="189.8477" x="485.8098" y="1224.7803">with formal runtime ownership.</text><text fill="#334155" font-family="Helvetica" font-size="14" lengthAdjust="spacing" textLength="125.2754" x="485.8098" y="1238.7803">service: loganalytics</text><text fill="#334155" font-family="Helvetica" font-size="14" lengthAdjust="spacing" textLength="29.5723" x="485.8098" y="1252.7803">slug:</text><text fill="#334155" font-family="Helvetica" font-size="14" lengthAdjust="spacing" textLength="345.5703" x="485.8098" y="1266.7803">loganalyticsnamespacelookupsupdatedatamanagement</text><text fill="#334155" font-family="Helvetica" font-size="14" lengthAdjust="spacing" textLength="29.5723" x="485.8098" y="1280.7803">kind:</text><text fill="#334155" font-family="Helvetica" font-size="14" lengthAdjust="spacing" textLength="363.4463" x="485.8098" y="1294.7803">LogAnalyticsNamespaceLookupsUpdateDataManagement</text><text fill="#334155" font-family="Helvetica" font-size="14" lengthAdjust="spacing" textLength="241.2402" x="485.8098" y="1308.7803">archetype: generated-service-manager</text><text fill="#334155" font-family="Helvetica" font-size="14" lengthAdjust="spacing" textLength="156.4063" x="485.8098" y="1322.7803">status/finalizer: required /</text><text fill="#334155" font-family="Helvetica" font-size="14" lengthAdjust="spacing" textLength="174.3027" x="485.8098" y="1336.7803">retain-until-confirmed-delete</text><text fill="#334155" font-family="Helvetica" font-size="14" lengthAdjust="spacing" textLength="272.3984" x="485.8098" y="1350.7803">requeue: provisioning, updating, terminating</text><text fill="#334155" font-family="Helvetica" font-size="14" lengthAdjust="spacing" textLength="295.6816" x="485.8098" y="1364.7803">provider states: create PROVISIONING; update</text><text fill="#334155" font-family="Helvetica" font-size="14" lengthAdjust="spacing" textLength="192.165" x="485.8098" y="1378.7803">UPDATING; delete DELETING</text><text fill="#334155" font-family="Helvetica" font-size="14" lengthAdjust="spacing" textLength="319.04" x="485.8098" y="1392.7803">mutable/forceNew: display_name / compartment_id</text><text fill="#334155" font-family="Helvetica" font-size="14" lengthAdjust="spacing" textLength="104.3164" x="485.8098" y="1406.7803">open gaps: none</text><text fill="#334155" font-family="Helvetica" font-size="14" lengthAdjust="spacing" textLength="224.9023" x="485.8098" y="1420.7803">Scaffold metadata only; replace with</text><text fill="#334155" font-family="Helvetica" font-size="14" lengthAdjust="spacing" textLength="244.3232" x="485.8098" y="1434.7803">controller-specific runtime states before</text><text fill="#334155" font-family="Helvetica" font-size="14" lengthAdjust="spacing" textLength="66.1445" x="485.8098" y="1448.7803">promotion.</text><ellipse cx="448.8098" cy="1263" fill="none" rx="11" ry="11" style="stroke:#222222;stroke-width:1;"/><ellipse cx="448.8098" cy="1263" fill="#222222" rx="6" ry="6" style="stroke:#222222;stroke-width:1;"/><line style="stroke:#0F172A;stroke-width:1;" x1="448.8098" x2="448.8098" y1="65" y2="85"/><polygon fill="#0F172A" points="444.8098,75,448.8098,85,452.8098,75,448.8098,79" style="stroke:#0F172A;stroke-width:1;"/><line style="stroke:#0F172A;stroke-width:1;" x1="448.8098" x2="448.8098" y1="133" y2="153"/><polygon fill="#0F172A" points="444.8098,143,448.8098,153,452.8098,143,448.8098,147" style="stroke:#0F172A;stroke-width:1;"/><line style="stroke:#0F172A;stroke-width:1;" x1="448.8098" x2="448.8098" y1="215" y2="235"/><polygon fill="#0F172A" points="444.8098,225,448.8098,235,452.8098,225,448.8098,229" style="stroke:#0F172A;stroke-width:1;"/><line style="stroke:#0F172A;stroke-width:1;" x1="448.8098" x2="448.8098" y1="325" y2="345"/><polygon fill="#0F172A" points="444.8098,335,448.8098,345,452.8098,335,448.8098,339" style="stroke:#0F172A;stroke-width:1;"/><line style="stroke:#0F172A;stroke-width:1;" x1="225.2954" x2="225.2954" y1="523" y2="543"/><polygon fill="#0F172A" points="221.2954,533,225.2954,543,229.2954,533,225.2954,537" style="stroke:#0F172A;stroke-width:1;"/><line style="stroke:#0F172A;stroke-width:1;" x1="383.1204" x2="225.2954" y1="453" y2="453"/><line style="stroke:#0F172A;stroke-width:1;" x1="225.2954" x2="225.2954" y1="453" y2="475"/><polygon fill="#0F172A" points="221.2954,465,225.2954,475,229.2954,465,225.2954,469" style="stroke:#0F172A;stroke-width:1;"/><line style="stroke:#0F172A;stroke-width:1;" x1="514.4993" x2="672.3242" y1="453" y2="453"/><line style="stroke:#0F172A;stroke-width:1;" x1="672.3242" x2="672.3242" y1="453" y2="475"/><polygon fill="#0F172A" points="668.3242,465,672.3242,475,676.3242,465,672.3242,469" style="stroke:#0F172A;stroke-width:1;"/><line style="stroke:#0F172A;stroke-width:1;" x1="225.2954" x2="225.2954" y1="591" y2="609"/><line style="stroke:#0F172A;stroke-width:1;" x1="225.2954" x2="436.8098" y1="609" y2="609"/><polygon fill="#0F172A" points="426.8098,605,436.8098,609,426.8098,613,430.8098,609" style="stroke:#0F172A;stroke-width:1;"/><line style="stroke:#0F172A;stroke-width:1;" x1="672.3242" x2="672.3242" y1="523" y2="609"/><line style="stroke:#0F172A;stroke-width:1;" x1="672.3242" x2="460.8098" y1="609" y2="609"/><polygon fill="#0F172A" points="470.8098,605,460.8098,609,470.8098,613,466.8098,609" style="stroke:#0F172A;stroke-width:1;"/><line style="stroke:#0F172A;stroke-width:1;" x1="448.8098" x2="448.8098" y1="421" y2="441"/><polygon fill="#0F172A" points="444.8098,431,448.8098,441,452.8098,431,448.8098,435" style="stroke:#0F172A;stroke-width:1;"/><line style="stroke:#0F172A;stroke-width:1;" x1="448.8098" x2="448.8098" y1="621" y2="641"/><polygon fill="#0F172A" points="444.8098,631,448.8098,641,452.8098,631,448.8098,635" style="stroke:#0F172A;stroke-width:1;"/><line style="stroke:#0F172A;stroke-width:1;" x1="448.8098" x2="448.8098" y1="745" y2="765"/><polygon fill="#0F172A" points="444.8098,755,448.8098,765,452.8098,755,448.8098,759" style="stroke:#0F172A;stroke-width:1;"/><line style="stroke:#0F172A;stroke-width:1;" x1="448.8098" x2="448.8098" y1="799" y2="819"/><polygon fill="#0F172A" points="444.8098,809,448.8098,819,452.8098,809,448.8098,813" style="stroke:#0F172A;stroke-width:1;"/><line style="stroke:#0F172A;stroke-width:1;" x1="448.8098" x2="448.8098" y1="937" y2="957"/><polygon fill="#0F172A" points="444.8098,947,448.8098,957,452.8098,947,448.8098,951" style="stroke:#0F172A;stroke-width:1;"/><line style="stroke:#0F172A;stroke-width:1;" x1="448.8098" x2="448.8098" y1="1005" y2="1025"/><polygon fill="#0F172A" points="444.8098,1015,448.8098,1025,452.8098,1015,448.8098,1019" style="stroke:#0F172A;stroke-width:1;"/><line style="stroke:#0F172A;stroke-width:1;" x1="448.8098" x2="448.8098" y1="1059" y2="1252"/><polygon fill="#0F172A" points="444.8098,1242,448.8098,1252,452.8098,1242,448.8098,1246" style="stroke:#0F172A;stroke-width:1;"/><?plantuml-src fLPXJoCt4FtkNp5Ilt1IDe63kwCReOec78TA0S5HlaH2pdesSV7QUxOtQLhrltUytcmsELGrL0Z1UiSpyvxVFAzxaRhabXVWvboOfTGpoBboo5pxPigpbvarbHOZeuo57_ACVaGdGc3EA-K_6-rlU87m1TK2lSpuwp4Fya-4evFEIswjMJRP3_EZJ--xExNn-FDtFUJv9_5nDyfOWRQ9c9vyE3xySISYb6_U7n-V77tuq7bVfy-CrMZXw2FpqYk4yypBXVGhI42P6TTShGYO6roRsVdw8M1s9S_msfYNgdIFfU0UnzppNsd330lKlWjsdV8l1g-GUvhpF0jlkc0QKW3o3O1sJKXU62s-umZVusb-s0dePZmI9oXEDoy_lvBOUMxzRZos-TkuAT_9-ZUhjxBq8Vo1t9fQO1O5vCei9pe-3AZsZ2XnW_YSMCoCpgJ2P4rItorcGvPU6ov8GavIr4JlIpxLAp43haM0v2iNE_gbcYATjaT75UxH6L8jt8wkwY24XUGJVOb-_sfBwUVKfNHls4lJfu8egAL7XzHvnlFSAF7SbT_MWrxdLJ5lLUUbNrvqyqhbqJh8J44oz67nMOfUWtKvHnsWZo4ccMWwpQdK8bdGfiebcSKGfn650qN8m0R2AY-D7ZAPmq4WiB8P0lv1hzrFxy27f0ShTEy8IzqKbDpF8IE8RgBZqhuC4I-N5RS2YihpAKreBb5HJqAwKl7LSs0Zd3GXDjHDed6v3jc6FcH8FWS7sb1xemYlsrvSshyzcW-Pavug3QKr2qaZ1tDKPVX3-oXpvFBCvxQXh1zhhHdiJNJdtHENv9hsoTYNU_nMeVDF9AyBSapxXN0giko9fieqB6SU2oA1W8JnCVfiT7zn_lLYF9peA8fkpTZzkYQ525Iu7JAkLzeGbfwNfLhHoPScuPMVcp3G3WcFXz8ecQt8P7K8Z3iZdvL30XrNtZPBLF5R5KR_VyoaiM-TI6zWV75zGJoIWcYERC6ZwjCxQtx7p6_QQzmb64qkgGfTTBPXPgA99IvrKj5HgQJ9H9uNQQyTY4wtGZ2DS1mLeSFjGNrszNyqmGNb3Gz3ibXJid2fWPMpETqmqM0RJqtPNXxBEavDSxjswpPuSsiHE1RiLDRmMeqdmRHen-Z-STo39Ocs5qDhIf8oKaMGoCQ91-LeA2pssOZk7MkKeWpAqEXj2gqR1ou42vQJH6-2kTJUzRQ49v4M8fDitan5NHzCIIP4Lb1GwXalNPzncytHhqgaUyjdynGkaQxyO9cKqYuacKOqJikojZa77Sol4XIqpcgrDjLiE6ao8xEaz6ukopvhygTRtnBCgMgMidqjdT47XKZPtXyYBVmKPclWoIxmU6g3LiJfHkC3zgz2PZRAEFql8cQjGzRNa4kXkMVkxcz_ktgukhsvkhaSnht87k_6vr_hXLWgZYKjiEOk6DIMVuFBTFiw6EnOFwj54TIGreR57ffB5Wg25cYc8LIhON0wHNH2EDQE699Q2xdCsZEExSCKgGCCg0eJjDuFjq7zuVaF?></g></svg>