<?plantuml 1.2026.1?><svg xmlns="http://www.w3.org/2000/svg" xmlns:xlink="http://www.w3.org/1999/xlink" contentStyleType="text/css" data-diagram-type="ACTIVITY" height="1385px" preserveAspectRatio="none" style="width:693px;height:1385px;background:#FCFCFD;" version="1.1" viewBox="0 0 693 1385" width="693px" zoomAndPan="magnify"><title>Activity - bds/BdsBdsInstanceReplaceNodeAction</title><defs/><g><rect fill="#FCFCFD" height="1385" style="stroke:none;stroke-width:1;" width="693" x="0" y="0"/><g class="title" data-source-line="10"><text fill="#000000" font-family="Helvetica" font-size="14" font-weight="bold" lengthAdjust="spacing" textLength="333.7373" x="178.2911" y="30.7803">Activity - bds/BdsBdsInstanceReplaceNodeAction</text></g><ellipse cx="310.2795" cy="55" fill="#1D4ED8" rx="10" ry="10" style="stroke:#222222;stroke-width:1;"/><rect fill="#F8FAFC" height="48" rx="8" ry="8" style="stroke:#0F172A;stroke-width:0.5;" width="304.7852" x="157.887" y="85"/><text fill="#0F172A" font-family="Helvetica" font-size="14" lengthAdjust="spacing" textLength="136.9375" x="167.887" y="105.7803">Start from shared flow</text><text fill="#0F172A" font-family="Helvetica" font-size="14" lengthAdjust="spacing" textLength="284.7852" x="167.887" y="119.7803">shared/diagrams/shared-reconcile-activity.svg</text><rect fill="#F8FAFC" height="48" rx="8" ry="8" style="stroke:#0F172A;stroke-width:0.5;" width="329.7568" x="145.4011" y="153"/><text fill="#0F172A" font-family="Helvetica" font-size="14" lengthAdjust="spacing" textLength="309.7568" x="155.4011" y="173.7803">Load desired BdsBdsInstanceReplaceNodeAction</text><text fill="#0F172A" font-family="Helvetica" font-size="14" lengthAdjust="spacing" textLength="205.4473" x="155.4011" y="187.7803">spec and status from Kubernetes</text><rect fill="#F8FAFC" height="62" rx="8" ry="8" style="stroke:#0F172A;stroke-width:0.5;" width="318.0605" x="151.2493" y="221"/><text fill="#0F172A" font-family="Helvetica" font-size="14" lengthAdjust="spacing" textLength="135.3857" x="161.2493" y="241.7803">Resolve OCI state via</text><text fill="#0F172A" font-family="Helvetica" font-size="14" lengthAdjust="spacing" textLength="276.2676" x="161.2493" y="255.7803">GetBdsBdsInstanceReplaceNodeAction with</text><text fill="#0F172A" font-family="Helvetica" font-size="14" lengthAdjust="spacing" textLength="298.0605" x="161.2493" y="269.7803">ListBdsBdsInstanceReplaceNodeAction fallback</text><rect fill="#F8FAFC" height="76" rx="8" ry="8" style="stroke:#0F172A;stroke-width:0.5;" width="318.1016" x="151.2288" y="303"/><text fill="#0F172A" font-family="Helvetica" font-size="14" lengthAdjust="spacing" textLength="24.8965" x="161.2288" y="323.7803">Use</text><text fill="#0F172A" font-family="Helvetica" font-size="14" lengthAdjust="spacing" textLength="298.1016" x="161.2288" y="337.7803">scaffold_bds_bdsbdsinstancereplacenodeaction</text><text fill="#0F172A" font-family="Helvetica" font-size="14" lengthAdjust="spacing" textLength="297.2402" x="161.2288" y="351.7803">filters compartment_id, state when OCID lookup</text><text fill="#0F172A" font-family="Helvetica" font-size="14" lengthAdjust="spacing" textLength="259.9023" x="161.2288" y="365.7803">or bind-versus-create needs list resolution</text><polygon fill="#E2E8F0" points="256.5901,399,363.969,399,375.969,411,363.969,423,256.5901,423,244.5901,411,256.5901,399" style="stroke:#1D4ED8;stroke-width:0.5;"/><text fill="#0F172A" font-family="Helvetica" font-size="14" lengthAdjust="spacing" textLength="107.3789" x="256.5901" y="414.7803">Resource exists?</text><text fill="#000000" font-family="Helvetica" font-size="14" lengthAdjust="spacing" textLength="21.7861" x="222.804" y="407.7803">yes</text><text fill="#000000" font-family="Helvetica" font-size="14" lengthAdjust="spacing" textLength="15.5723" x="375.969" y="407.7803">no</text><rect fill="#F8FAFC" height="48" rx="8" ry="8" style="stroke:#0F172A;stroke-width:0.5;" width="290.0605" x="11" y="433"/><text fill="#0F172A" font-family="Helvetica" font-size="14" lengthAdjust="spacing" textLength="108.1787" x="21" y="453.7803">Update path calls</text><text fill="#0F172A" font-family="Helvetica" font-size="14" lengthAdjust="spacing" textLength="270.0605" x="21" y="467.7803">UpdateBdsBdsInstanceReplaceNodeAction</text><rect fill="#F8FAFC" height="48" rx="8" ry="8" style="stroke:#0F172A;stroke-width:0.5;" width="266.7021" x="22.6792" y="501"/><text fill="#0F172A" font-family="Helvetica" font-size="14" lengthAdjust="spacing" textLength="246.7021" x="32.6792" y="521.7803">Guard mutable fields display_name and</text><text fill="#0F172A" font-family="Helvetica" font-size="14" lengthAdjust="spacing" textLength="202.3096" x="32.6792" y="535.7803">force-new fields compartment_id</text><rect fill="#F8FAFC" height="48" rx="8" ry="8" style="stroke:#0F172A;stroke-width:0.5;" width="286.9365" x="321.0605" y="433"/><text fill="#0F172A" font-family="Helvetica" font-size="14" lengthAdjust="spacing" textLength="105.0547" x="331.0605" y="453.7803">Create path calls</text><text fill="#0F172A" font-family="Helvetica" font-size="14" lengthAdjust="spacing" textLength="266.9365" x="331.0605" y="467.7803">CreateBdsBdsInstanceReplaceNodeAction</text><polygon fill="#E2E8F0" points="310.2795,555,322.2795,567,310.2795,579,298.2795,567,310.2795,555" style="stroke:#1D4ED8;stroke-width:0.5;"/><rect fill="#F8FAFC" height="104" rx="8" ry="8" style="stroke:#0F172A;stroke-width:0.5;" width="334.3164" x="143.1213" y="599"/><text fill="#0F172A" font-family="Helvetica" font-size="14" lengthAdjust="spacing" textLength="164.2061" x="153.1213" y="619.7803">Run provider helper hooks</text><text fill="#0F172A" font-family="Helvetica" font-size="14" lengthAdjust="spacing" textLength="219.0508" x="153.1213" y="633.7803">create=tfresource.CreateResource,</text><text fill="#0F172A" font-family="Helvetica" font-size="14" lengthAdjust="spacing" textLength="314.3164" x="153.1213" y="647.7803">tfresource.WaitForWorkRequestWithErrorHandling</text><text fill="#0F172A" font-family="Helvetica" font-size="14" lengthAdjust="spacing" textLength="215.5439" x="153.1213" y="661.7803">entity=template action=CREATED;</text><text fill="#0F172A" font-family="Helvetica" font-size="14" lengthAdjust="spacing" textLength="226.085" x="153.1213" y="675.7803">update=tfresource.UpdateResource;</text><text fill="#0F172A" font-family="Helvetica" font-size="14" lengthAdjust="spacing" textLength="212.8438" x="153.1213" y="689.7803">delete=tfresource.DeleteResource</text><rect fill="#F8FAFC" height="34" rx="8" ry="8" style="stroke:#0F172A;stroke-width:0.5;" width="263.5918" x="178.4836" y="723"/><text fill="#0F172A" font-family="Helvetica" font-size="14" lengthAdjust="spacing" textLength="243.5918" x="188.4836" y="743.7803">Apply repo-authored secret policy none</text><rect fill="#F8FAFC" height="104" rx="8" ry="8" style="stroke:#0F172A;stroke-width:0.5;" width="350.7295" x="134.9148" y="777"/><text fill="#0F172A" font-family="Helvetica" font-size="14" lengthAdjust="spacing" textLength="105.0684" x="144.9148" y="797.7803">Delete path uses</text><text fill="#0F172A" font-family="Helvetica" font-size="14" lengthAdjust="spacing" textLength="294.1709" x="144.9148" y="811.7803">DeleteBdsBdsInstanceReplaceNodeAction with</text><text fill="#0F172A" font-family="Helvetica" font-size="14" lengthAdjust="spacing" textLength="73.1514" x="144.9148" y="825.7803">required via</text><text fill="#0F172A" font-family="Helvetica" font-size="14" lengthAdjust="spacing" textLength="263.8193" x="144.9148" y="839.7803">GetBdsBdsInstanceReplaceNodeAction or</text><text fill="#0F172A" font-family="Helvetica" font-size="14" lengthAdjust="spacing" textLength="330.7295" x="144.9148" y="853.7803">ListBdsBdsInstanceReplaceNodeAction to DELETED</text><text fill="#0F172A" font-family="Helvetica" font-size="14" lengthAdjust="spacing" textLength="76.2549" x="144.9148" y="867.7803">confirmation</text><rect fill="#F8FAFC" height="48" rx="8" ry="8" style="stroke:#0F172A;stroke-width:0.5;" width="279.1299" x="170.7146" y="901"/><text fill="#0F172A" font-family="Helvetica" font-size="14" lengthAdjust="spacing" textLength="259.1299" x="180.7146" y="921.7803">Project required status and finalizer policy</text><text fill="#0F172A" font-family="Helvetica" font-size="14" lengthAdjust="spacing" textLength="174.3027" x="180.7146" y="935.7803">retain-until-confirmed-delete</text><rect fill="#F8FAFC" height="34" rx="8" ry="8" style="stroke:#0F172A;stroke-width:0.5;" width="313.4189" x="153.5701" y="969"/><text fill="#0F172A" font-family="Helvetica" font-size="14" lengthAdjust="spacing" textLength="293.4189" x="163.5701" y="989.7803">Requeue on provisioning, updating, terminating</text><path d="M341.2795,1013 L341.2795,1189 L321.2795,1193 L341.2795,1197 L341.2795,1373 A0,0 0 0 0 341.2795,1373 L681.3196,1373 A0,0 0 0 0 681.3196,1373 L681.3196,1023 L671.3196,1013 L341.2795,1013 A0,0 0 0 0 341.2795,1013" fill="#FFF7D6" style="stroke:#B45309;stroke-width:0.5;"/><path d="M671.3196,1013 L671.3196,1023 L681.3196,1023 L671.3196,1013" fill="#FFF7D6" style="stroke:#B45309;stroke-width:0.5;"/><text fill="#334155" font-family="Helvetica" font-size="14" lengthAdjust="spacing" textLength="101.165" x="347.2795" y="1028.7803">shared diagram:</text><text fill="#334155" font-family="Helvetica" font-size="14" lengthAdjust="spacing" textLength="284.7852" x="347.2795" y="1042.7803">shared/diagrams/shared-reconcile-activity.svg</text><text fill="#334155" font-family="Helvetica" font-size="14" lengthAdjust="spacing" textLength="265.3438" x="347.2795" y="1056.7803">Start from the shared reconcile activity and</text><text fill="#334155" font-family="Helvetica" font-size="14" lengthAdjust="spacing" textLength="273.8955" x="347.2795" y="1070.7803">specialize provider-backed CRUD, wait, and</text><text fill="#334155" font-family="Helvetica" font-size="14" lengthAdjust="spacing" textLength="182.875" x="347.2795" y="1084.7803">status-projection details here.</text><text fill="#334155" font-family="Helvetica" font-size="14" lengthAdjust="spacing" textLength="229.5371" x="347.2795" y="1098.7803">Controller-local activity diagrams add</text><text fill="#334155" font-family="Helvetica" font-size="14" lengthAdjust="spacing" textLength="238.8955" x="347.2795" y="1112.7803">list-lookup hints, secret policies, delete</text><text fill="#334155" font-family="Helvetica" font-size="14" lengthAdjust="spacing" textLength="200.0332" x="347.2795" y="1126.7803">handling, and open formal gaps.</text><text fill="#334155" font-family="Helvetica" font-size="14" lengthAdjust="spacing" textLength="281.709" x="347.2795" y="1140.7803">archetype batch: Generated service-manager</text><text fill="#334155" font-family="Helvetica" font-size="14" lengthAdjust="spacing" textLength="291.0469" x="347.2795" y="1154.7803">controllers specialize the shared reconcile path</text><text fill="#334155" font-family="Helvetica" font-size="14" lengthAdjust="spacing" textLength="189.8477" x="347.2795" y="1168.7803">with formal runtime ownership.</text><text fill="#334155" font-family="Helvetica" font-size="14" lengthAdjust="spacing" textLength="74.6963" x="347.2795" y="1182.7803">service: bds</text><text fill="#334155" font-family="Helvetica" font-size="14" lengthAdjust="spacing" textLength="245.1709" x="347.2795" y="1196.7803">slug: bdsbdsinstancereplacenodeaction</text><text fill="#334155" font-family="Helvetica" font-size="14" lengthAdjust="spacing" textLength="258.3779" x="347.2795" y="1210.7803">kind: BdsBdsInstanceReplaceNodeAction</text><text fill="#334155" font-family="Helvetica" font-size="14" lengthAdjust="spacing" textLength="241.2402" x="347.2795" y="1224.7803">archetype: generated-service-manager</text><text fill="#334155" font-family="Helvetica" font-size="14" lengthAdjust="spacing" textLength="156.4063" x="347.2795" y="1238.7803">status/finalizer: required /</text><text fill="#334155" font-family="Helvetica" font-size="14" lengthAdjust="spacing" textLength="174.3027" x="347.2795" y="1252.7803">retain-until-confirmed-delete</text><text fill="#334155" font-family="Helvetica" font-size="14" lengthAdjust="spacing" textLength="272.3984" x="347.2795" y="1266.7803">requeue: provisioning, updating, terminating</text><text fill="#334155" font-family="Helvetica" font-size="14" lengthAdjust="spacing" textLength="295.6816" x="347.2795" y="1280.7803">provider states: create PROVISIONING; update</text><text fill="#334155" font-family="Helvetica" font-size="14" lengthAdjust="spacing" textLength="192.165" x="347.2795" y="1294.7803">UPDATING; delete DELETING</text><text fill="#334155" font-family="Helvetica" font-size="14" lengthAdjust="spacing" textLength="319.04" x="347.2795" y="1308.7803">mutable/forceNew: display_name / compartment_id</text><text fill="#334155" font-family="Helvetica" font-size="14" lengthAdjust="spacing" textLength="104.3164" x="347.2795" y="1322.7803">open gaps: none</text><text fill="#334155" font-family="Helvetica" font-size="14" lengthAdjust="spacing" textLength="224.9023" x="347.2795" y="1336.7803">Scaffold metadata only; replace with</text><text fill="#334155" font-family="Helvetica" font-size="14" lengthAdjust="spacing" textLength="244.3232" x="347.2795" y="1350.7803">controller-specific runtime states before</text><text fill="#334155" font-family="Helvetica" font-size="14" lengthAdjust="spacing" textLength="66.1445" x="347.2795" y="1364.7803">promotion.</text><ellipse cx="310.2795" cy="1193" fill="none" rx="11" ry="11" style="stroke:#222222;stroke-width:1;"/><ellipse cx="310.2795" cy="1193" fill="#222222" rx="6" ry="6" style="stroke:#222222;stroke-width:1;"/><line style="stroke:#0F172A;stroke-width:1;" x1="310.2795" x2="310.2795" y1="65" y2="85"/><polygon fill="#0F172A" points="306.2795,75,310.2795,85,314.2795,75,310.2795,79" style="stroke:#0F172A;stroke-width:1;"/><line style="stroke:#0F172A;stroke-width:1;" x1="310.2795" x2="310.2795" y1="133" y2="153"/><polygon fill="#0F172A" points="306.2795,143,310.2795,153,314.2795,143,310.2795,147" style="stroke:#0F172A;stroke-width:1;"/><line style="stroke:#0F172A;stroke-width:1;" x1="310.2795" x2="310.2795" y1="201" y2="221"/><polygon fill="#0F172A" points="306.2795,211,310.2795,221,314.2795,211,310.2795,215" style="stroke:#0F172A;stroke-width:1;"/><line style="stroke:#0F172A;stroke-width:1;" x1="310.2795" x2="310.2795" y1="283" y2="303"/><polygon fill="#0F172A" points="306.2795,293,310.2795,303,314.2795,293,310.2795,297" style="stroke:#0F172A;stroke-width:1;"/><line style="stroke:#0F172A;stroke-width:1;" x1="156.0303" x2="156.0303" y1="481" y2="501"/><polygon fill="#0F172A" points="152.0303,491,156.0303,501,160.0303,491,156.0303,495" style="stroke:#0F172A;stroke-width:1;"/><line style="stroke:#0F172A;stroke-width:1;" x1="244.5901" x2="156.0303" y1="411" y2="411"/><line style="stroke:#0F172A;stroke-width:1;" x1="156.0303" x2="156.0303" y1="411" y2="433"/><polygon fill="#0F172A" points="152.0303,423,156.0303,433,160.0303,423,156.0303,427" style="stroke:#0F172A;stroke-width:1;"/><line style="stroke:#0F172A;stroke-width:1;" x1="375.969" x2="464.5288" y1="411" y2="411"/><line style="stroke:#0F172A;stroke-width:1;" x1="464.5288" x2="464.5288" y1="411" y2="433"/><polygon fill="#0F172A" points="460.5288,423,464.5288,433,468.5288,423,464.5288,427" style="stroke:#0F172A;stroke-width:1;"/><line style="stroke:#0F172A;stroke-width:1;" x1="156.0303" x2="156.0303" y1="549" y2="567"/><line style="stroke:#0F172A;stroke-width:1;" x1="156.0303" x2="298.2795" y1="567" y2="567"/><polygon fill="#0F172A" points="288.2795,563,298.2795,567,288.2795,571,292.2795,567" style="stroke:#0F172A;stroke-width:1;"/><line style="stroke:#0F172A;stroke-width:1;" x1="464.5288" x2="464.5288" y1="481" y2="567"/><line style="stroke:#0F172A;stroke-width:1;" x1="464.5288" x2="322.2795" y1="567" y2="567"/><polygon fill="#0F172A" points="332.2795,563,322.2795,567,332.2795,571,328.2795,567" style="stroke:#0F172A;stroke-width:1;"/><line style="stroke:#0F172A;stroke-width:1;" x1="310.2795" x2="310.2795" y1="379" y2="399"/><polygon fill="#0F172A" points="306.2795,389,310.2795,399,314.2795,389,310.2795,393" style="stroke:#0F172A;stroke-width:1;"/><line style="stroke:#0F172A;stroke-width:1;" x1="310.2795" x2="310.2795" y1="579" y2="599"/><polygon fill="#0F172A" points="306.2795,589,310.2795,599,314.2795,589,310.2795,593" style="stroke:#0F172A;stroke-width:1;"/><line style="stroke:#0F172A;stroke-width:1;" x1="310.2795" x2="310.2795" y1="703" y2="723"/><polygon fill="#0F172A" points="306.2795,713,310.2795,723,314.2795,713,310.2795,717" style="stroke:#0F172A;stroke-width:1;"/><line style="stroke:#0F172A;stroke-width:1;" x1="310.2795" x2="310.2795" y1="757" y2="777"/><polygon fill="#0F172A" points="306.2795,767,310.2795,777,314.2795,767,310.2795,771" style="stroke:#0F172A;stroke-width:1;"/><line style="stroke:#0F172A;stroke-width:1;" x1="310.2795" x2="310.2795" y1="881" y2="901"/><polygon fill="#0F172A" points="306.2795,891,310.2795,901,314.2795,891,310.2795,895" style="stroke:#0F172A;stroke-width:1;"/><line style="stroke:#0F172A;stroke-width:1;" x1="310.2795" x2="310.2795" y1="949" y2="969"/><polygon fill="#0F172A" points="306.2795,959,310.2795,969,314.2795,959,310.2795,963" style="stroke:#0F172A;stroke-width:1;"/><line style="stroke:#0F172A;stroke-width:1;" x1="310.2795" x2="310.2795" y1="1003" y2="1182"/><polygon fill="#0F172A" points="306.2795,1172,310.2795,1182,314.2795,1172,310.2795,1176" style="stroke:#0F172A;stroke-width:1;"/><?plantuml-src bLPHRzis47xdhpXWBobWsKcJjfcCO4ZjD0qQ987JB2y60beyMLmeKYCfUzwm_xwZADkA6zGPRCCMURoxx-wxZtRFKbVSyX9SmOLPIZs7d2k7p6rsPZnxdbjJQp4oobZu9S_e9JeM0dDUA__5Q7_3IuIlg1RePSPVjxcNVoCSdNGskRLcsNe_p8y-lU-UrCRZvnzooFDFukEkbR42RMinE_bmVFZhZaK8t-uV7vySVVZGsM_SPyPgj73qaNdf5S9vvkL2-XKaC1Dky5auUbzfvxdES8ALuXdU6871pkWkfFN1VnYyKiBJdETPsEcct487oBTfRjQ4vANHueTAu7iypGyx1bsFH-84nUbsyyihZWcBzRlskF6_iPln7Q__ikOeI-_35-JMD3IoA21NPZdLyM50iUTK4ZU8pud5pEXCAapMHUgxnNp8qcl31H75oU1YJwd9UuKPS2q205-x6FzRFKFge4T7_YRe334HRaTNZH72GlAflaI_npaifI-c-bgwlPOqBIgqby8zEAIiCfxdHeadealuq5ksXsqyhEamRp7aKdcq3Z9J4cryYTe_IT5hirqMg4FoOr36FDVLL5FrPrABP467QfTa5eETHXGE56KBDa2kW_CXapaSX1BKDaF0lsZR_VOEV71wi4BtZZAkH3XVSLz0Ha3SLCUbFQW9x6NDhO2ozdn6Ov9BL9I2a8uiLqywg02rXW0Q2fveNAvDNY8TCYInWGDjA9jHHDFD9YxjpOROAdFgTwsXicOXQG2WG5M5BweSEOgLElEvRGlIZwxNzUbDTMVlaKjIAljexFC4_wpH-KSYn0MfbFrAi1J9v5GJ0gBkcSUIyg6yOq_FHfEBy-yNu-5Krqqfkp5ZSTSnoKIWmfScusPbOyBIywfIA-fhPH9U-yA4sN18U3nKHibiHSAcWs4y6SjNEoJGSULjNBU4ivcxjuw8iMyR46zWV75zGIMXBXXYl2rvow4xQ_x0B92sZTrESXZgN6gkwAAmBSgGeUTI9pMLNIMj9rAJMC9csgbJDO9fIU0e23Mg1qqVcbyqQoNv3Gz34YzJiN0fW9NpmhDMkbgrIjd_KY_MqK2QiBKEReotzm61Oq6wP0DlmzSaY0YT64qUnZrO4W5xqRGfILB5KeM2Yb07vOZW5ljiH8fkZLBaGHcQccsWTUB0XM1179Ae8b18xLtl1OaaqaAi92jQXZVnmLGa5pJ59RcUyyhr6RTPWNvL8Tq8FYjIk4IwCedNWPTs8MdUIwxv72tBDiavw61-jK21jonmSHtDXawJZfWbkNU5hFgizP-6kvWvLS-RNp-JM4ONiaZtNIPRJ2dCrsYINJIn5OCDCzCjSGVif-naDd8pVGipsKR2cbl0fT3A_DtazlUh-wlRcwkRos4yY-pXRdp-lLc8eUAmqG9hjNdGIF0DBjENyZpOaMBMT3gqE6qKXTstDncK18rYSPeijHf2M-D6DpeTJfe6vpBRD2wc3pEa332WAaqeTZ_8TVDlx3y0?></g></svg>