<?plantuml 1.2026.1?><svg xmlns="http://www.w3.org/2000/svg" xmlns:xlink="http://www.w3.org/1999/xlink" contentStyleType="text/css" data-diagram-type="ACTIVITY" height="2277px" preserveAspectRatio="none" style="width:1268px;height:2277px;background:#FCFCFD;" version="1.1" viewBox="0 0 1268 2277" width="1268px" zoomAndPan="magnify"><title>Activity - fleetappsmanagement/FleetAppsManagementOnboardingPolicies</title><defs/><g><rect fill="#FCFCFD" height="2277" style="stroke:none;stroke-width:1;" width="1268" x="0" y="0"/><g class="title" data-source-line="10"><text fill="#000000" font-family="Helvetica" font-size="14" font-weight="bold" lengthAdjust="spacing" textLength="500.2129" x="382.7881" y="30.7803">Activity - fleetappsmanagement/FleetAppsManagementOnboardingPolicies</text></g><ellipse cx="671.7267" cy="55" fill="#1D4ED8" rx="10" ry="10" style="stroke:#222222;stroke-width:1;"/><rect fill="none" height="472" rx="8" ry="8" style="stroke:#000000;stroke-width:1.5;" width="696.9004" x="328.1403" y="75"/><path d="M450.2086,75 L450.2086,82 L440.2086,92 L328.1403,92" fill="none" style="stroke:#000000;stroke-width:1.5;"/><text fill="#000000" font-family="Helvetica" font-size="14" lengthAdjust="spacing" textLength="112.0684" x="331.1403" y="86.7803">Observe and Bind</text><rect fill="#F8FAFC" height="48" rx="8" ry="8" style="stroke:#0F172A;stroke-width:0.5;" width="304.7852" x="519.3341" y="109"/><text fill="#0F172A" font-family="Helvetica" font-size="14" lengthAdjust="spacing" textLength="136.9375" x="529.3341" y="129.7803">Start from shared flow</text><text fill="#0F172A" font-family="Helvetica" font-size="14" lengthAdjust="spacing" textLength="284.7852" x="529.3341" y="143.7803">shared/diagrams/shared-reconcile-activity.svg</text><rect fill="#F8FAFC" height="62" rx="8" ry="8" style="stroke:#0F172A;stroke-width:0.5;" width="323.5088" x="509.9723" y="177"/><text fill="#0F172A" font-family="Helvetica" font-size="14" lengthAdjust="spacing" textLength="83.2754" x="519.9723" y="197.7803">Read desired</text><text fill="#0F172A" font-family="Helvetica" font-size="14" lengthAdjust="spacing" textLength="303.5088" x="519.9723" y="211.7803">FleetAppsManagementOnboardingPolicies spec,</text><text fill="#0F172A" font-family="Helvetica" font-size="14" lengthAdjust="spacing" textLength="198.4609" x="519.9723" y="225.7803">tracked status, and delete intent</text><polygon fill="#E2E8F0" points="542.2609,259,801.1925,259,813.1925,271,801.1925,283,542.2609,283,530.2609,271,542.2609,259" style="stroke:#1D4ED8;stroke-width:0.5;"/><text fill="#0F172A" font-family="Helvetica" font-size="14" lengthAdjust="spacing" textLength="258.9316" x="542.2609" y="274.7803">"Tracked or explicit OCI identity present?"</text><text fill="#000000" font-family="Helvetica" font-size="14" lengthAdjust="spacing" textLength="21.7861" x="508.4747" y="267.7803">yes</text><text fill="#000000" font-family="Helvetica" font-size="14" lengthAdjust="spacing" textLength="15.5723" x="813.1925" y="267.7803">no</text><rect fill="#F8FAFC" height="48" rx="8" ry="8" style="stroke:#0F172A;stroke-width:0.5;" width="308.7227" x="348.1403" y="293"/><text fill="#0F172A" font-family="Helvetica" font-size="14" lengthAdjust="spacing" textLength="202.3027" x="358.1403" y="313.7803">Get the current OCI resource via</text><text fill="#0F172A" font-family="Helvetica" font-size="14" lengthAdjust="spacing" textLength="288.7227" x="358.1403" y="327.7803">GetFleetAppsManagementOnboardingPolicies</text><rect fill="#F8FAFC" height="62" rx="8" ry="8" style="stroke:#0F172A;stroke-width:0.5;" width="307.9434" x="686.9801" y="293"/><text fill="#0F172A" font-family="Helvetica" font-size="14" lengthAdjust="spacing" textLength="259.9092" x="696.9801" y="313.7803">Resolve an existing OCI resource through</text><text fill="#0F172A" font-family="Helvetica" font-size="14" lengthAdjust="spacing" textLength="287.9434" x="696.9801" y="327.7803">ListFleetAppsManagementOnboardingPolicies</text><text fill="#0F172A" font-family="Helvetica" font-size="14" lengthAdjust="spacing" textLength="213.2061" x="696.9801" y="341.7803">using filters compartment_id, state</text><rect fill="#F8FAFC" height="62" rx="8" ry="8" style="stroke:#0F172A;stroke-width:0.5;" width="328.1777" x="676.8629" y="375"/><text fill="#0F172A" font-family="Helvetica" font-size="14" lengthAdjust="spacing" textLength="174.2959" x="686.8629" y="395.7803">Create the OCI resource via</text><text fill="#0F172A" font-family="Helvetica" font-size="14" lengthAdjust="spacing" textLength="308.1777" x="686.8629" y="409.7803">CreateFleetAppsManagementOnboardingPolicies</text><text fill="#0F172A" font-family="Helvetica" font-size="14" lengthAdjust="spacing" textLength="205.4609" x="686.8629" y="423.7803">when no reusable match is found</text><rect fill="#F8FAFC" height="48" rx="8" ry="8" style="stroke:#0F172A;stroke-width:0.5;" width="286.8955" x="697.504" y="457"/><text fill="#0F172A" font-family="Helvetica" font-size="14" lengthAdjust="spacing" textLength="266.8955" x="707.504" y="477.7803">Persist the resolved or created OCI identity</text><text fill="#0F172A" font-family="Helvetica" font-size="14" lengthAdjust="spacing" textLength="63.8135" x="707.504" y="491.7803">into status</text><polygon fill="#E2E8F0" points="671.7267,511,683.7267,523,671.7267,535,659.7267,523,671.7267,511" style="stroke:#1D4ED8;stroke-width:0.5;"/><polygon fill="#E2E8F0" points="609.5504,567,733.903,567,745.903,579,733.903,591,609.5504,591,597.5504,579,609.5504,567" style="stroke:#1D4ED8;stroke-width:0.5;"/><text fill="#0F172A" font-family="Helvetica" font-size="14" lengthAdjust="spacing" textLength="124.3525" x="609.5504" y="582.7803">"Delete requested?"</text><text fill="#000000" font-family="Helvetica" font-size="14" lengthAdjust="spacing" textLength="21.7861" x="575.7643" y="575.7803">yes</text><text fill="#000000" font-family="Helvetica" font-size="14" lengthAdjust="spacing" textLength="15.5723" x="745.903" y="575.7803">no</text><rect fill="none" height="408" rx="8" ry="8" style="stroke:#000000;stroke-width:1.5;" width="644.4814" x="11" y="601"/><path d="M61.4688,601 L61.4688,608 L51.4688,618 L11,618" fill="none" style="stroke:#000000;stroke-width:1.5;"/><text fill="#000000" font-family="Helvetica" font-size="14" lengthAdjust="spacing" textLength="40.4688" x="14" y="612.7803">Delete</text><rect fill="#F8FAFC" height="104" rx="8" ry="8" style="stroke:#0F172A;stroke-width:0.5;" width="326.626" x="176.4312" y="635"/><text fill="#0F172A" font-family="Helvetica" font-size="14" lengthAdjust="spacing" textLength="105.0684" x="186.4312" y="655.7803">Delete path uses</text><text fill="#0F172A" font-family="Helvetica" font-size="14" lengthAdjust="spacing" textLength="306.626" x="186.4312" y="669.7803">DeleteFleetAppsManagementOnboardingPolicies</text><text fill="#0F172A" font-family="Helvetica" font-size="14" lengthAdjust="spacing" textLength="101.9375" x="186.4312" y="683.7803">with required via</text><text fill="#0F172A" font-family="Helvetica" font-size="14" lengthAdjust="spacing" textLength="305.0605" x="186.4312" y="697.7803">GetFleetAppsManagementOnboardingPolicies or</text><text fill="#0F172A" font-family="Helvetica" font-size="14" lengthAdjust="spacing" textLength="303.5088" x="186.4312" y="711.7803">ListFleetAppsManagementOnboardingPolicies to</text><text fill="#0F172A" font-family="Helvetica" font-size="14" lengthAdjust="spacing" textLength="144.7168" x="186.4312" y="725.7803">DELETED confirmation</text><rect fill="#F8FAFC" height="76" rx="8" ry="8" style="stroke:#0F172A;stroke-width:0.5;" width="325.0605" x="177.2139" y="766"/><text fill="#0F172A" font-family="Helvetica" font-size="14" lengthAdjust="spacing" textLength="123.7236" x="187.2139" y="786.7803">Confirm deletion via</text><text fill="#0F172A" font-family="Helvetica" font-size="14" lengthAdjust="spacing" textLength="305.0605" x="187.2139" y="800.7803">GetFleetAppsManagementOnboardingPolicies or</text><text fill="#0F172A" font-family="Helvetica" font-size="14" lengthAdjust="spacing" textLength="287.9434" x="187.2139" y="814.7803">ListFleetAppsManagementOnboardingPolicies</text><text fill="#0F172A" font-family="Helvetica" font-size="14" lengthAdjust="spacing" textLength="176.6201" x="187.2139" y="828.7803">until OCI reaches DELETED</text><polygon fill="#E2E8F0" points="191.5718,877,487.9165,877,499.9165,889,487.9165,901,191.5718,901,179.5718,889,191.5718,877" style="stroke:#1D4ED8;stroke-width:0.5;"/><text fill="#0F172A" font-family="Helvetica" font-size="14" lengthAdjust="spacing" textLength="296.3447" x="191.5718" y="892.7803">"Delete cleanup and finalizer release succeed?"</text><text fill="#000000" font-family="Helvetica" font-size="14" lengthAdjust="spacing" textLength="21.7861" x="157.7856" y="885.7803">yes</text><text fill="#000000" font-family="Helvetica" font-size="14" lengthAdjust="spacing" textLength="15.5723" x="499.9165" y="885.7803">no</text><rect fill="#F8FAFC" height="34" rx="8" ry="8" style="stroke:#0F172A;stroke-width:0.5;" width="293.1436" x="23" y="911"/><text fill="#0F172A" font-family="Helvetica" font-size="14" lengthAdjust="spacing" textLength="273.1436" x="33" y="931.7803">Remove the finalizer after delete completion</text><rect fill="#F8FAFC" height="48" rx="8" ry="8" style="stroke:#0F172A;stroke-width:0.5;" width="251.1299" x="384.3516" y="911"/><text fill="#0F172A" font-family="Helvetica" font-size="14" lengthAdjust="spacing" textLength="231.1299" x="394.3516" y="931.7803">Stay blocked until cleanup or finalizer</text><text fill="#0F172A" font-family="Helvetica" font-size="14" lengthAdjust="spacing" textLength="108.9512" x="394.3516" y="945.7803">release succeeds</text><polygon fill="#E2E8F0" points="339.7441,965,351.7441,977,339.7441,989,327.7441,977,339.7441,965" style="stroke:#1D4ED8;stroke-width:0.5;"/><ellipse cx="339.7441" cy="1054" fill="none" rx="11" ry="11" style="stroke:#222222;stroke-width:1;"/><ellipse cx="339.7441" cy="1054" fill="#222222" rx="6" ry="6" style="stroke:#222222;stroke-width:1;"/><rect fill="none" height="450" rx="8" ry="8" style="stroke:#000000;stroke-width:1.5;" width="345.916" x="836.7512" y="601"/><path d="M987.5852,601 L987.5852,608 L977.5852,618 L836.7512,618" fill="none" style="stroke:#000000;stroke-width:1.5;"/><text fill="#000000" font-family="Helvetica" font-size="14" lengthAdjust="spacing" textLength="140.834" x="839.7512" y="612.7803">Lifecycle Classification</text><rect fill="#F8FAFC" height="48" rx="8" ry="8" style="stroke:#0F172A;stroke-width:0.5;" width="280.5928" x="863.4128" y="684"/><text fill="#0F172A" font-family="Helvetica" font-size="14" lengthAdjust="spacing" textLength="240.4541" x="873.4128" y="704.7803">Request requeue while OCI remains in</text><text fill="#0F172A" font-family="Helvetica" font-size="14" lengthAdjust="spacing" textLength="260.5928" x="873.4128" y="718.7803">PROVISIONING, UPDATING, DELETING</text><ellipse cx="1003.7092" cy="770" fill="none" rx="11" ry="11" style="stroke:#222222;stroke-width:1;"/><ellipse cx="1003.7092" cy="770" fill="#222222" rx="6" ry="6" style="stroke:#222222;stroke-width:1;"/><polygon fill="#E2E8F0" points="917.426,635,1089.9924,635,1101.9924,647,1089.9924,659,917.426,659,905.426,647,917.426,635" style="stroke:#1D4ED8;stroke-width:0.5;"/><text fill="#000000" font-family="Helvetica" font-size="14" lengthAdjust="spacing" textLength="21.7861" x="1007.7092" y="669.7803">yes</text><text fill="#0F172A" font-family="Helvetica" font-size="14" lengthAdjust="spacing" textLength="172.5664" x="917.426" y="650.7803">"OCI state in retryable set?"</text><rect fill="#F8FAFC" height="48" rx="8" ry="8" style="stroke:#0F172A;stroke-width:0.5;" width="293.916" x="856.7512" y="896"/><text fill="#0F172A" font-family="Helvetica" font-size="14" lengthAdjust="spacing" textLength="273.916" x="866.7512" y="916.7803">Return an unsuccessful reconcile result until</text><text fill="#0F172A" font-family="Helvetica" font-size="14" lengthAdjust="spacing" textLength="133.041" x="866.7512" y="930.7803">OCI reaches ACTIVE</text><ellipse cx="1003.7092" cy="990" fill="none" rx="11" ry="11" style="stroke:#222222;stroke-width:1;"/><ellipse cx="1003.7092" cy="990" fill="#222222" rx="6" ry="6" style="stroke:#222222;stroke-width:1;"/><polygon fill="#E2E8F0" points="883.1882,847,1124.2302,847,1136.2302,859,1124.2302,871,883.1882,871,871.1882,859,883.1882,847" style="stroke:#1D4ED8;stroke-width:0.5;"/><text fill="#000000" font-family="Helvetica" font-size="14" lengthAdjust="spacing" textLength="21.7861" x="1007.7092" y="881.7803">yes</text><text fill="#0F172A" font-family="Helvetica" font-size="14" lengthAdjust="spacing" textLength="241.042" x="883.1882" y="862.7803">"OCI state is outside success targets?"</text><rect fill="none" height="736.5" rx="8" ry="8" style="stroke:#000000;stroke-width:1.5;" width="582.3076" x="675.4814" y="1075"/><path d="M841.9014,1075 L841.9014,1082 L831.9014,1092 L675.4814,1092" fill="none" style="stroke:#000000;stroke-width:1.5;"/><text fill="#000000" font-family="Helvetica" font-size="14" lengthAdjust="spacing" textLength="156.4199" x="678.4814" y="1086.7803">Ready and Drift Handling</text><rect fill="#F8FAFC" height="48" rx="8" ry="8" style="stroke:#0F172A;stroke-width:0.5;" width="296.2402" x="855.5891" y="1109"/><text fill="#0F172A" font-family="Helvetica" font-size="14" lengthAdjust="spacing" textLength="276.2402" x="865.5891" y="1129.7803">Compare live OCI state against the imported</text><text fill="#0F172A" font-family="Helvetica" font-size="14" lengthAdjust="spacing" textLength="75.4824" x="865.5891" y="1143.7803">field surface</text><rect fill="#F8FAFC" height="48" rx="8" ry="8" style="stroke:#0F172A;stroke-width:0.5;" width="302.4473" x="852.4856" y="1226"/><text fill="#0F172A" font-family="Helvetica" font-size="14" lengthAdjust="spacing" textLength="282.4473" x="862.4856" y="1246.7803">Reject drift before OCI mutation for force-new</text><text fill="#0F172A" font-family="Helvetica" font-size="14" lengthAdjust="spacing" textLength="136.9512" x="862.4856" y="1260.7803">fields compartment_id</text><ellipse cx="1003.7092" cy="1306.5" fill="none" rx="11" ry="11" style="stroke:#222222;stroke-width:1;"/><ellipse cx="1003.7092" cy="1306.5" fill="#222222" rx="6" ry="6" style="stroke:#222222;stroke-width:1;"/><polygon fill="#E2E8F0" points="878.1262,1177,1129.2922,1177,1141.2922,1189,1129.2922,1201,878.1262,1201,866.1262,1189,878.1262,1177" style="stroke:#1D4ED8;stroke-width:0.5;"/><text fill="#000000" font-family="Helvetica" font-size="14" lengthAdjust="spacing" textLength="21.7861" x="1007.7092" y="1211.7803">yes</text><text fill="#0F172A" font-family="Helvetica" font-size="14" lengthAdjust="spacing" textLength="251.166" x="878.1262" y="1192.7803">"Force-new or conflicting drift detected?"</text><polygon fill="#E2E8F0" points="893.2815,1359.5,1114.137,1359.5,1126.137,1371.5,1114.137,1383.5,893.2815,1383.5,881.2815,1371.5,893.2815,1359.5" style="stroke:#1D4ED8;stroke-width:0.5;"/><text fill="#0F172A" font-family="Helvetica" font-size="14" lengthAdjust="spacing" textLength="220.8555" x="893.2815" y="1375.2803">"Supported mutable drift detected?"</text><text fill="#000000" font-family="Helvetica" font-size="14" lengthAdjust="spacing" textLength="21.7861" x="859.4954" y="1368.2803">yes</text><text fill="#000000" font-family="Helvetica" font-size="14" lengthAdjust="spacing" textLength="15.5723" x="1126.137" y="1368.2803">no</text><rect fill="#F8FAFC" height="62" rx="8" ry="8" style="stroke:#0F172A;stroke-width:0.5;" width="331.3018" x="695.4814" y="1393.5"/><text fill="#0F172A" font-family="Helvetica" font-size="14" lengthAdjust="spacing" textLength="35.0205" x="705.4814" y="1414.2803">Apply</text><text fill="#0F172A" font-family="Helvetica" font-size="14" lengthAdjust="spacing" textLength="311.3018" x="705.4814" y="1428.2803">UpdateFleetAppsManagementOnboardingPolicies</text><text fill="#0F172A" font-family="Helvetica" font-size="14" lengthAdjust="spacing" textLength="226.4541" x="705.4814" y="1442.2803">only for mutable fields display_name</text><rect fill="#F8FAFC" height="34" rx="8" ry="8" style="stroke:#0F172A;stroke-width:0.5;" width="199.0059" x="1046.7832" y="1393.5"/><text fill="#0F172A" font-family="Helvetica" font-size="14" lengthAdjust="spacing" textLength="179.0059" x="1056.7832" y="1414.2803">Skip the no-op mutation path</text><polygon fill="#E2E8F0" points="1003.7092,1461.5,1015.7092,1473.5,1003.7092,1485.5,991.7092,1473.5,1003.7092,1461.5" style="stroke:#1D4ED8;stroke-width:0.5;"/><rect fill="#F8FAFC" height="118" rx="8" ry="8" style="stroke:#0F172A;stroke-width:0.5;" width="334.3164" x="836.551" y="1505.5"/><text fill="#0F172A" font-family="Helvetica" font-size="14" lengthAdjust="spacing" textLength="164.2061" x="846.551" y="1526.2803">Run provider helper hooks</text><text fill="#0F172A" font-family="Helvetica" font-size="14" lengthAdjust="spacing" textLength="219.0508" x="846.551" y="1540.2803">create=tfresource.CreateResource,</text><text fill="#0F172A" font-family="Helvetica" font-size="14" lengthAdjust="spacing" textLength="314.3164" x="846.551" y="1554.2803">tfresource.WaitForWorkRequestWithErrorHandling</text><text fill="#0F172A" font-family="Helvetica" font-size="14" lengthAdjust="spacing" textLength="215.5439" x="846.551" y="1568.2803">entity=template action=CREATED;</text><text fill="#0F172A" font-family="Helvetica" font-size="14" lengthAdjust="spacing" textLength="226.085" x="846.551" y="1582.2803">update=tfresource.UpdateResource;</text><text fill="#0F172A" font-family="Helvetica" font-size="14" lengthAdjust="spacing" textLength="273.5537" x="846.551" y="1596.2803">delete=tfresource.DeleteResource when the</text><text fill="#0F172A" font-family="Helvetica" font-size="14" lengthAdjust="spacing" textLength="220.2334" x="846.551" y="1610.2803">matching field-driven path executes</text><rect fill="#F8FAFC" height="34" rx="8" ry="8" style="stroke:#0F172A;stroke-width:0.5;" width="303.2197" x="852.0994" y="1643.5"/><text fill="#0F172A" font-family="Helvetica" font-size="14" lengthAdjust="spacing" textLength="283.2197" x="862.0994" y="1664.2803">Return success for the ACTIVE success state</text><rect fill="#F8FAFC" height="48" rx="8" ry="8" style="stroke:#0F172A;stroke-width:0.5;" width="279.1299" x="864.1443" y="1697.5"/><text fill="#0F172A" font-family="Helvetica" font-size="14" lengthAdjust="spacing" textLength="259.1299" x="874.1443" y="1718.2803">Project required status and finalizer policy</text><text fill="#0F172A" font-family="Helvetica" font-size="14" lengthAdjust="spacing" textLength="174.3027" x="874.1443" y="1732.2803">retain-until-confirmed-delete</text><rect fill="#F8FAFC" height="34" rx="8" ry="8" style="stroke:#0F172A;stroke-width:0.5;" width="313.4189" x="846.9998" y="1765.5"/><text fill="#0F172A" font-family="Helvetica" font-size="14" lengthAdjust="spacing" textLength="293.4189" x="856.9998" y="1786.2803">Requeue on provisioning, updating, terminating</text><path d="M702.7267,1821.5 L702.7267,2039.5 L682.7267,2043.5 L702.7267,2047.5 L702.7267,2265.5 A0,0 0 0 0 702.7267,2265.5 L1181.3722,2265.5 A0,0 0 0 0 1181.3722,2265.5 L1181.3722,1831.5 L1171.3722,1821.5 L702.7267,1821.5 A0,0 0 0 0 702.7267,1821.5" fill="#FFF7D6" style="stroke:#B45309;stroke-width:0.5;"/><path d="M1171.3722,1821.5 L1171.3722,1831.5 L1181.3722,1831.5 L1171.3722,1821.5" fill="#FFF7D6" style="stroke:#B45309;stroke-width:0.5;"/><text fill="#334155" font-family="Helvetica" font-size="14" lengthAdjust="spacing" textLength="101.165" x="708.7267" y="1837.2803">shared diagram:</text><text fill="#334155" font-family="Helvetica" font-size="14" lengthAdjust="spacing" textLength="284.7852" x="708.7267" y="1851.2803">shared/diagrams/shared-reconcile-activity.svg</text><text fill="#334155" font-family="Helvetica" font-size="14" lengthAdjust="spacing" textLength="265.3438" x="708.7267" y="1865.2803">Start from the shared reconcile activity and</text><text fill="#334155" font-family="Helvetica" font-size="14" lengthAdjust="spacing" textLength="273.8955" x="708.7267" y="1879.2803">specialize provider-backed CRUD, wait, and</text><text fill="#334155" font-family="Helvetica" font-size="14" lengthAdjust="spacing" textLength="182.875" x="708.7267" y="1893.2803">status-projection details here.</text><text fill="#334155" font-family="Helvetica" font-size="14" lengthAdjust="spacing" textLength="229.5371" x="708.7267" y="1907.2803">Controller-local activity diagrams add</text><text fill="#334155" font-family="Helvetica" font-size="14" lengthAdjust="spacing" textLength="238.8955" x="708.7267" y="1921.2803">list-lookup hints, secret policies, delete</text><text fill="#334155" font-family="Helvetica" font-size="14" lengthAdjust="spacing" textLength="200.0332" x="708.7267" y="1935.2803">handling, and open formal gaps.</text><text fill="#334155" font-family="Helvetica" font-size="14" lengthAdjust="spacing" textLength="281.709" x="708.7267" y="1949.2803">archetype batch: Generated service-manager</text><text fill="#334155" font-family="Helvetica" font-size="14" lengthAdjust="spacing" textLength="291.0469" x="708.7267" y="1963.2803">controllers specialize the shared reconcile path</text><text fill="#334155" font-family="Helvetica" font-size="14" lengthAdjust="spacing" textLength="189.8477" x="708.7267" y="1977.2803">with formal runtime ownership.</text><text fill="#334155" font-family="Helvetica" font-size="14" lengthAdjust="spacing" textLength="190.6611" x="708.7267" y="1991.2803">service: fleetappsmanagement</text><text fill="#334155" font-family="Helvetica" font-size="14" lengthAdjust="spacing" textLength="288.75" x="708.7267" y="2005.2803">slug: fleetappsmanagementonboardingpolicies</text><text fill="#334155" font-family="Helvetica" font-size="14" lengthAdjust="spacing" textLength="299.6191" x="708.7267" y="2019.2803">kind: FleetAppsManagementOnboardingPolicies</text><text fill="#334155" font-family="Helvetica" font-size="14" lengthAdjust="spacing" textLength="241.2402" x="708.7267" y="2033.2803">archetype: generated-service-manager</text><text fill="#334155" font-family="Helvetica" font-size="14" lengthAdjust="spacing" textLength="156.4063" x="708.7267" y="2047.2803">status/finalizer: required /</text><text fill="#334155" font-family="Helvetica" font-size="14" lengthAdjust="spacing" textLength="174.3027" x="708.7267" y="2061.2803">retain-until-confirmed-delete</text><text fill="#334155" font-family="Helvetica" font-size="14" lengthAdjust="spacing" textLength="272.3984" x="708.7267" y="2075.2803">requeue: provisioning, updating, terminating</text><text fill="#334155" font-family="Helvetica" font-size="14" lengthAdjust="spacing" textLength="295.6816" x="708.7267" y="2089.2803">provider states: create PROVISIONING; update</text><text fill="#334155" font-family="Helvetica" font-size="14" lengthAdjust="spacing" textLength="192.165" x="708.7267" y="2103.2803">UPDATING; delete DELETING</text><text fill="#334155" font-family="Helvetica" font-size="14" lengthAdjust="spacing" textLength="183.6611" x="708.7267" y="2117.2803">supported drift: display_name</text><text fill="#334155" font-family="Helvetica" font-size="14" lengthAdjust="spacing" textLength="230.3301" x="708.7267" y="2131.2803">reject before mutate: force-new fields</text><text fill="#334155" font-family="Helvetica" font-size="14" lengthAdjust="spacing" textLength="100.3789" x="708.7267" y="2145.2803">compartment_id</text><text fill="#334155" font-family="Helvetica" font-size="14" lengthAdjust="spacing" textLength="66.1445" x="708.7267" y="2159.2803">list lookup:</text><text fill="#334155" font-family="Helvetica" font-size="14" lengthAdjust="spacing" textLength="457.6455" x="708.7267" y="2173.2803">scaffold_fleetappsmanagement_fleetappsmanagementonboardingpolicies</text><text fill="#334155" font-family="Helvetica" font-size="14" lengthAdjust="spacing" textLength="175.8477" x="708.7267" y="2187.2803">filters compartment_id, state</text><text fill="#334155" font-family="Helvetica" font-size="14" lengthAdjust="spacing" textLength="89.4961" x="708.7267" y="2201.2803">conflicts: none</text><text fill="#334155" font-family="Helvetica" font-size="14" lengthAdjust="spacing" textLength="104.3164" x="708.7267" y="2215.2803">open gaps: none</text><text fill="#334155" font-family="Helvetica" font-size="14" lengthAdjust="spacing" textLength="224.9023" x="708.7267" y="2229.2803">Scaffold metadata only; replace with</text><text fill="#334155" font-family="Helvetica" font-size="14" lengthAdjust="spacing" textLength="244.3232" x="708.7267" y="2243.2803">controller-specific runtime states before</text><text fill="#334155" font-family="Helvetica" font-size="14" lengthAdjust="spacing" textLength="66.1445" x="708.7267" y="2257.2803">promotion.</text><ellipse cx="671.7267" cy="2043.5" fill="none" rx="11" ry="11" style="stroke:#222222;stroke-width:1;"/><ellipse cx="671.7267" cy="2043.5" fill="#222222" rx="6" ry="6" style="stroke:#222222;stroke-width:1;"/><line style="stroke:#0F172A;stroke-width:1;" x1="671.7267" x2="671.7267" y1="157" y2="177"/><polygon fill="#0F172A" points="667.7267,167,671.7267,177,675.7267,167,671.7267,171" style="stroke:#0F172A;stroke-width:1;"/><line style="stroke:#0F172A;stroke-width:1;" x1="840.9518" x2="840.9518" y1="355" y2="375"/><polygon fill="#0F172A" points="836.9518,365,840.9518,375,844.9518,365,840.9518,369" style="stroke:#0F172A;stroke-width:1;"/><line style="stroke:#0F172A;stroke-width:1;" x1="840.9518" x2="840.9518" y1="437" y2="457"/><polygon fill="#0F172A" points="836.9518,447,840.9518,457,844.9518,447,840.9518,451" style="stroke:#0F172A;stroke-width:1;"/><line style="stroke:#0F172A;stroke-width:1;" x1="530.2609" x2="502.5016" y1="271" y2="271"/><line style="stroke:#0F172A;stroke-width:1;" x1="502.5016" x2="502.5016" y1="271" y2="293"/><polygon fill="#0F172A" points="498.5016,283,502.5016,293,506.5016,283,502.5016,287" style="stroke:#0F172A;stroke-width:1;"/><line style="stroke:#0F172A;stroke-width:1;" x1="813.1925" x2="840.9518" y1="271" y2="271"/><line style="stroke:#0F172A;stroke-width:1;" x1="840.9518" x2="840.9518" y1="271" y2="293"/><polygon fill="#0F172A" points="836.9518,283,840.9518,293,844.9518,283,840.9518,287" style="stroke:#0F172A;stroke-width:1;"/><line style="stroke:#0F172A;stroke-width:1;" x1="502.5016" x2="502.5016" y1="341" y2="523"/><line style="stroke:#0F172A;stroke-width:1;" x1="502.5016" x2="659.7267" y1="523" y2="523"/><polygon fill="#0F172A" points="649.7267,519,659.7267,523,649.7267,527,653.7267,523" style="stroke:#0F172A;stroke-width:1;"/><line style="stroke:#0F172A;stroke-width:1;" x1="840.9518" x2="840.9518" y1="505" y2="523"/><line style="stroke:#0F172A;stroke-width:1;" x1="840.9518" x2="683.7267" y1="523" y2="523"/><polygon fill="#0F172A" points="693.7267,519,683.7267,523,693.7267,527,689.7267,523" style="stroke:#0F172A;stroke-width:1;"/><line style="stroke:#0F172A;stroke-width:1;" x1="671.7267" x2="671.7267" y1="239" y2="259"/><polygon fill="#0F172A" points="667.7267,249,671.7267,259,675.7267,249,671.7267,253" style="stroke:#0F172A;stroke-width:1;"/><line style="stroke:#0F172A;stroke-width:1;" x1="671.7267" x2="671.7267" y1="65" y2="109"/><polygon fill="#0F172A" points="667.7267,99,671.7267,109,675.7267,99,671.7267,103" style="stroke:#0F172A;stroke-width:1;"/><line style="stroke:#0F172A;stroke-width:1;" x1="339.7441" x2="339.7441" y1="739" y2="766"/><polygon fill="#0F172A" points="335.7441,756,339.7441,766,343.7441,756,339.7441,760" style="stroke:#0F172A;stroke-width:1;"/><line style="stroke:#0F172A;stroke-width:1;" x1="179.5718" x2="169.5718" y1="889" y2="889"/><line style="stroke:#0F172A;stroke-width:1;" x1="169.5718" x2="169.5718" y1="889" y2="911"/><polygon fill="#0F172A" points="165.5718,901,169.5718,911,173.5718,901,169.5718,905" style="stroke:#0F172A;stroke-width:1;"/><line style="stroke:#0F172A;stroke-width:1;" x1="499.9165" x2="509.9165" y1="889" y2="889"/><line style="stroke:#0F172A;stroke-width:1;" x1="509.9165" x2="509.9165" y1="889" y2="911"/><polygon fill="#0F172A" points="505.9165,901,509.9165,911,513.9165,901,509.9165,905" style="stroke:#0F172A;stroke-width:1;"/><line style="stroke:#0F172A;stroke-width:1;" x1="169.5718" x2="169.5718" y1="945" y2="977"/><line style="stroke:#0F172A;stroke-width:1;" x1="169.5718" x2="327.7441" y1="977" y2="977"/><polygon fill="#0F172A" points="317.7441,973,327.7441,977,317.7441,981,321.7441,977" style="stroke:#0F172A;stroke-width:1;"/><line style="stroke:#0F172A;stroke-width:1;" x1="509.9165" x2="509.9165" y1="959" y2="977"/><line style="stroke:#0F172A;stroke-width:1;" x1="509.9165" x2="351.7441" y1="977" y2="977"/><polygon fill="#0F172A" points="361.7441,973,351.7441,977,361.7441,981,357.7441,977" style="stroke:#0F172A;stroke-width:1;"/><line style="stroke:#0F172A;stroke-width:1;" x1="339.7441" x2="339.7441" y1="842" y2="877"/><polygon fill="#0F172A" points="335.7441,867,339.7441,877,343.7441,867,339.7441,871" style="stroke:#0F172A;stroke-width:1;"/><line style="stroke:#0F172A;stroke-width:1;" x1="339.7441" x2="339.7441" y1="989" y2="1043"/><polygon fill="#0F172A" points="335.7441,1033,339.7441,1043,343.7441,1033,339.7441,1037" style="stroke:#0F172A;stroke-width:1;"/><line style="stroke:#0F172A;stroke-width:1;" x1="1003.7092" x2="1003.7092" y1="732" y2="759"/><polygon fill="#0F172A" points="999.7092,749,1003.7092,759,1007.7092,749,1003.7092,753" style="stroke:#0F172A;stroke-width:1;"/><line style="stroke:#0F172A;stroke-width:1;" x1="1003.7092" x2="1003.7092" y1="659" y2="684"/><polygon fill="#0F172A" points="999.7092,674,1003.7092,684,1007.7092,674,1003.7092,678" style="stroke:#0F172A;stroke-width:1;"/><line style="stroke:#0F172A;stroke-width:1;" x1="1101.9924" x2="1154.0056" y1="647" y2="647"/><polygon fill="#0F172A" points="1150.0056,723.5,1154.0056,733.5,1158.0056,723.5,1154.0056,727.5" style="stroke:#0F172A;stroke-width:1;"/><line style="stroke:#0F172A;stroke-width:1;" x1="1154.0056" x2="1154.0056" y1="647" y2="812"/><line style="stroke:#0F172A;stroke-width:1;" x1="1154.0056" x2="1003.7092" y1="812" y2="812"/><line style="stroke:#0F172A;stroke-width:1;" x1="1003.7092" x2="1003.7092" y1="812" y2="847"/><polygon fill="#0F172A" points="999.7092,837,1003.7092,847,1007.7092,837,1003.7092,841" style="stroke:#0F172A;stroke-width:1;"/><line style="stroke:#0F172A;stroke-width:1;" x1="1003.7092" x2="1003.7092" y1="944" y2="979"/><polygon fill="#0F172A" points="999.7092,969,1003.7092,979,1007.7092,969,1003.7092,973" style="stroke:#0F172A;stroke-width:1;"/><line style="stroke:#0F172A;stroke-width:1;" x1="1003.7092" x2="1003.7092" y1="871" y2="896"/><polygon fill="#0F172A" points="999.7092,886,1003.7092,896,1007.7092,886,1003.7092,890" style="stroke:#0F172A;stroke-width:1;"/><line style="stroke:#0F172A;stroke-width:1;" x1="1136.2302" x2="1160.6672" y1="859" y2="859"/><polygon fill="#0F172A" points="1156.6672,935.5,1160.6672,945.5,1164.6672,935.5,1160.6672,939.5" style="stroke:#0F172A;stroke-width:1;"/><line style="stroke:#0F172A;stroke-width:1;" x1="1160.6672" x2="1160.6672" y1="859" y2="1031"/><line style="stroke:#0F172A;stroke-width:1;" x1="1160.6672" x2="1003.7092" y1="1031" y2="1031"/><line style="stroke:#0F172A;stroke-width:1;" x1="1003.7092" x2="1003.7092" y1="1031" y2="1109"/><polygon fill="#0F172A" points="999.7092,1099,1003.7092,1109,1007.7092,1099,1003.7092,1103" style="stroke:#0F172A;stroke-width:1;"/><line style="stroke:#0F172A;stroke-width:1;" x1="1003.7092" x2="1003.7092" y1="1274" y2="1295.5"/><polygon fill="#0F172A" points="999.7092,1285.5,1003.7092,1295.5,1007.7092,1285.5,1003.7092,1289.5" style="stroke:#0F172A;stroke-width:1;"/><line style="stroke:#0F172A;stroke-width:1;" x1="1003.7092" x2="1003.7092" y1="1201" y2="1226"/><polygon fill="#0F172A" points="999.7092,1216,1003.7092,1226,1007.7092,1216,1003.7092,1220" style="stroke:#0F172A;stroke-width:1;"/><line style="stroke:#0F172A;stroke-width:1;" x1="1141.2922" x2="1164.9329" y1="1189" y2="1189"/><polygon fill="#0F172A" points="1160.9329,1265.5,1164.9329,1275.5,1168.9329,1265.5,1164.9329,1269.5" style="stroke:#0F172A;stroke-width:1;"/><line style="stroke:#0F172A;stroke-width:1;" x1="1164.9329" x2="1164.9329" y1="1189" y2="1339.5"/><line style="stroke:#0F172A;stroke-width:1;" x1="1164.9329" x2="1003.7092" y1="1339.5" y2="1339.5"/><line style="stroke:#0F172A;stroke-width:1;" x1="1003.7092" x2="1003.7092" y1="1339.5" y2="1359.5"/><polygon fill="#0F172A" points="999.7092,1349.5,1003.7092,1359.5,1007.7092,1349.5,1003.7092,1353.5" style="stroke:#0F172A;stroke-width:1;"/><line style="stroke:#0F172A;stroke-width:1;" x1="1003.7092" x2="1003.7092" y1="1157" y2="1177"/><polygon fill="#0F172A" points="999.7092,1167,1003.7092,1177,1007.7092,1167,1003.7092,1171" style="stroke:#0F172A;stroke-width:1;"/><line style="stroke:#0F172A;stroke-width:1;" x1="881.2815" x2="861.1323" y1="1371.5" y2="1371.5"/><line style="stroke:#0F172A;stroke-width:1;" x1="861.1323" x2="861.1323" y1="1371.5" y2="1393.5"/><polygon fill="#0F172A" points="857.1323,1383.5,861.1323,1393.5,865.1323,1383.5,861.1323,1387.5" style="stroke:#0F172A;stroke-width:1;"/><line style="stroke:#0F172A;stroke-width:1;" x1="1126.137" x2="1146.2861" y1="1371.5" y2="1371.5"/><line style="stroke:#0F172A;stroke-width:1;" x1="1146.2861" x2="1146.2861" y1="1371.5" y2="1393.5"/><polygon fill="#0F172A" points="1142.2861,1383.5,1146.2861,1393.5,1150.2861,1383.5,1146.2861,1387.5" style="stroke:#0F172A;stroke-width:1;"/><line style="stroke:#0F172A;stroke-width:1;" x1="861.1323" x2="861.1323" y1="1455.5" y2="1473.5"/><line style="stroke:#0F172A;stroke-width:1;" x1="861.1323" x2="991.7092" y1="1473.5" y2="1473.5"/><polygon fill="#0F172A" points="981.7092,1469.5,991.7092,1473.5,981.7092,1477.5,985.7092,1473.5" style="stroke:#0F172A;stroke-width:1;"/><line style="stroke:#0F172A;stroke-width:1;" x1="1146.2861" x2="1146.2861" y1="1427.5" y2="1473.5"/><line style="stroke:#0F172A;stroke-width:1;" x1="1146.2861" x2="1015.7092" y1="1473.5" y2="1473.5"/><polygon fill="#0F172A" points="1025.7092,1469.5,1015.7092,1473.5,1025.7092,1477.5,1021.7092,1473.5" style="stroke:#0F172A;stroke-width:1;"/><line style="stroke:#0F172A;stroke-width:1;" x1="1003.7092" x2="1003.7092" y1="1485.5" y2="1505.5"/><polygon fill="#0F172A" points="999.7092,1495.5,1003.7092,1505.5,1007.7092,1495.5,1003.7092,1499.5" style="stroke:#0F172A;stroke-width:1;"/><line style="stroke:#0F172A;stroke-width:1;" x1="1003.7092" x2="1003.7092" y1="1623.5" y2="1643.5"/><polygon fill="#0F172A" points="999.7092,1633.5,1003.7092,1643.5,1007.7092,1633.5,1003.7092,1637.5" style="stroke:#0F172A;stroke-width:1;"/><line style="stroke:#0F172A;stroke-width:1;" x1="1003.7092" x2="1003.7092" y1="1677.5" y2="1697.5"/><polygon fill="#0F172A" points="999.7092,1687.5,1003.7092,1697.5,1007.7092,1687.5,1003.7092,1691.5" style="stroke:#0F172A;stroke-width:1;"/><line style="stroke:#0F172A;stroke-width:1;" x1="1003.7092" x2="1003.7092" y1="1745.5" y2="1765.5"/><polygon fill="#0F172A" points="999.7092,1755.5,1003.7092,1765.5,1007.7092,1755.5,1003.7092,1759.5" style="stroke:#0F172A;stroke-width:1;"/><line style="stroke:#0F172A;stroke-width:1;" x1="597.5504" x2="339.7441" y1="579" y2="579"/><line style="stroke:#0F172A;stroke-width:1;" x1="339.7441" x2="339.7441" y1="579" y2="635"/><polygon fill="#0F172A" points="335.7441,625,339.7441,635,343.7441,625,339.7441,629" style="stroke:#0F172A;stroke-width:1;"/><line style="stroke:#0F172A;stroke-width:1;" x1="745.903" x2="1003.7092" y1="579" y2="579"/><line style="stroke:#0F172A;stroke-width:1;" x1="1003.7092" x2="1003.7092" y1="579" y2="635"/><polygon fill="#0F172A" points="999.7092,625,1003.7092,635,1007.7092,625,1003.7092,629" style="stroke:#0F172A;stroke-width:1;"/><line style="stroke:#0F172A;stroke-width:1;" x1="1003.7092" x2="1003.7092" y1="1799.5" y2="1816.5"/><line style="stroke:#0F172A;stroke-width:1;" x1="1003.7092" x2="671.7267" y1="1816.5" y2="1816.5"/><line style="stroke:#0F172A;stroke-width:1;" x1="671.7267" x2="671.7267" y1="1816.5" y2="2032.5"/><polygon fill="#0F172A" points="667.7267,2022.5,671.7267,2032.5,675.7267,2022.5,671.7267,2026.5" style="stroke:#0F172A;stroke-width:1;"/><line style="stroke:#0F172A;stroke-width:1;" x1="671.7267" x2="671.7267" y1="535" y2="567"/><polygon fill="#0F172A" points="667.7267,557,671.7267,567,675.7267,557,671.7267,561" style="stroke:#0F172A;stroke-width:1;"/><?plantuml-src jLVRRXit47tVho3SbmIGxBXnBfKG58vi9mRIsB2Tv4M0GUtEIgmfSajofQf5_hs7brsjBWYKXo8mihiS3cVEd3aSsIUXAcxudDaPB_HIg2ahkRIKsNPbmlEdgT6rAaPQQiD-ANFyApeM1PMybkvAA_UPpubz9BaW9tA-t-PU_4FizAopo8tHo-JzHNdwvjVkJgKTlT-9eIpV5A-thRGfo2IBoTchboz-sxBmnwVrbo_FJb-zwgm7zxasYWmxVPqvuIInyzo9XN0hrcUb97AygkoSApwbEIbtSkM_dUFR7-st6pNHt1H0ybPBaGkotKGRT_zcR0-mRqjUvdwbcqW2XB5o7NpxhH1yhbMnWm_zIc_B5ns3hiVJueoAj-l5gpsEhUF6RTjJwx-rc_0jhz-pi3L3me1GQCMERYQMp88OLmLxBrHnXFG7zzwAbKO7xXag0B1UZbLyEK5eKo1cJ-9xtr2kLIuazHiCZ-rYEim6TyGBiCiAM8tLGGLXjgAyDrRE03OSZ81TRNiXle8aEM92EMmTPg9apuuUaXsofByhxyEncz4r4mLiV3KhGnQFlnyzPsv6YZrRaNsU3JwGy-yihut1SjW3IrsRdDX2yB62nK4H3pD2Kx9dIZ_t6Lij0vm8HrZdctR3jPk12jFPM7t2wa7-nwgseVU5T6Gio_NSryyRFugY5n0YW3qoX8UGr6uoSV70yvOU9wNXehPyWawRSvVFcB2WEMYCisuH2E8FXvcOSYX17eufDYemLYYOJeK4MAeG9PWOgdSHAshehveiDcvLgSFJQ1dOcJPLtCrORNt0ySkXsGdiyoTwLlvSgP7YJnIEEOtGBZzTFbnUe6gg50P08XjVhFWQAUqJ_1_Z085G29bOmVCP7AImXXjbo2LnLLUXrqgXkCHbOB05dq5mM-SvxPG8Z9_hHQJTUWylGTMcNprXOvORhGAHMR69rA5zOuHD061IwskijWBeSCWwNNLSTkZoIPIKh-2FZIItLfIuyVoA9r18sOCHEWToWXITMGMcMtAx2GPoHfBMn9OpA5q2Syw5il0mLhTtDr-lxwzlFbz__j1ZNsulpX_2Km0QJyCKR8XyEm8Kj7OM3HDpjA0EDrDoTZSMLnlbrQLMoRIi9Mi5s3SZRl88vrXrAtu-UhZ-UhaHnlSkObwhLw7q5qQKZdt4emIBGikDWkOGas8HKu-1ywdFFyg0c5VQEA_pfI09uQvDoNDA3BlIaAA-ecLG2P0Vr0pYM8J32l0aT_l8zIU-9wC9bTh4u-Ur2-M481d_5tsdexSbSXVw-xgAmGP7lku_3WCT9g5ZNwhYS17LIgv2UCqHARP2s4horQF2DBRP3q-Y2aWgtTVLEaMlSmtb1tSrFXYz05SCcv6i_7zQF-70gBtlNDae_t4K_RlqwY_LzTetBZ3mcM_QF2M2VuCkNcBOCqtbnoeA-3j7QE1Gxzn7z6vqTtdknGF24X3fdXanQiw4IHI1habKcyQ4XTi6UOzLk6RYLGUe-gZ9WcB-k4mfhvs_R9iUQ3h5G-nHY_nkFpUtugtHWKAjuCTxQ4lZAb-sbPSQ1qRtG_lqasHZm8av39CMG0Dqge8570Yunm8GuGd2DuTV_p94XyMw1GBw8PSPCPsvB4rLQP0QP3yrM6MTySnddfojHQ2TP95avkSf4T9iYTEVn9bfTFVbeiUMO48lcWPe-bM4p7Ely7X82wOPEivmQJcZfOG7o3QNwuEQm1alYapYOeA1VeAIevmEqvibiDD5cD4TlNGrPBD4jJZVwOf2Hy_XUiehUvnn0-roguemou8R0_Q1y1CWZ1X-R1Ne-pZnconlWuipPCfvBq2UKbcO0z9fnbSSluxq4kxjJ5J7MV8_sFVR8hEodkvTqQqIDBbc-85H3DXXlqRQV0TiscJQtyuqbkcaPUzWJUwJx8SCpj8TDZY4lLchCw6Nx21DTwnxrGtZNigQ6s_OtFhDnPVPLco3o0us510HXVPCsXv4psFUNXTHDRDDHGyKOv5YQ9wSbwMMnUEUUZmULgCVpjPPSry10iWwPO6ddg3f_Ju5mEOu2cXmviL_YB8WJwzmO5g7d_r0JqmaBUqYm0a4Z_jS-_OxzkeHVXl_1m00?></g></svg>