<?plantuml 1.2026.1?><svg xmlns="http://www.w3.org/2000/svg" xmlns:xlink="http://www.w3.org/1999/xlink" contentStyleType="text/css" data-diagram-type="SEQUENCE" height="2048px" preserveAspectRatio="none" style="width:1274px;height:2048px;background:#FCFCFD;" version="1.1" viewBox="0 0 1274 2048" width="1274px" zoomAndPan="magnify"><title>Sequence - opsi/OpsiAwrHubAwrSourcesSummary</title><defs/><g><rect fill="#FCFCFD" height="2048" style="stroke:none;stroke-width:1;" width="1274" x="0" y="0"/><text fill="#000000" font-family="Helvetica" font-size="14" font-weight="bold" lengthAdjust="spacing" textLength="341.5303" x="472.7136" y="25.7803">Sequence - opsi/OpsiAwrHubAwrSourcesSummary</text><rect fill="none" height="290" rx="8" ry="8" style="stroke:#CBD5E1;stroke-width:1.5;" width="738.3779" x="512.9424" y="342"/><rect fill="none" height="146" rx="8" ry="8" style="stroke:#CBD5E1;stroke-width:1.5;" width="475.9575" x="765.3628" y="451"/><rect fill="none" height="44" rx="8" ry="8" style="stroke:#CBD5E1;stroke-width:1.5;" width="455.9575" x="775.3628" y="502"/><rect fill="none" height="840" rx="8" ry="8" style="stroke:#CBD5E1;stroke-width:1.5;" width="775.0151" x="492.9424" y="646"/><rect fill="none" height="274" rx="8" ry="8" style="stroke:#CBD5E1;stroke-width:1.5;" width="738.3779" x="502.9424" y="669"/><rect fill="none" height="58" rx="8" ry="8" style="stroke:#CBD5E1;stroke-width:1.5;" width="455.9575" x="775.3628" y="776"/><rect fill="none" height="88" rx="8" ry="8" style="stroke:#CBD5E1;stroke-width:1.5;" width="438.813" x="512.9424" y="848"/><rect fill="none" height="392" rx="8" ry="8" style="stroke:#CBD5E1;stroke-width:1.5;" width="755.0151" x="502.9424" y="1045"/><rect fill="none" height="44" rx="8" ry="8" style="stroke:#CBD5E1;stroke-width:1.5;" width="438.813" x="512.9424" y="1144"/><rect fill="none" height="130" rx="8" ry="8" style="stroke:#CBD5E1;stroke-width:1.5;" width="475.9575" x="765.3628" y="1202"/><rect fill="none" height="44" rx="8" ry="8" style="stroke:#CBD5E1;stroke-width:1.5;" width="455.9575" x="775.3628" y="1281"/><g class="participant-lifeline" data-entity-uid="part1" data-qualified-name="Kubernetes" id="part1-lifeline"><g><title>Kubernetes</title><rect fill="#000000" fill-opacity="0.00000" height="1927" width="8" x="39.8032" y="114"/><line style="stroke:#94A3B8;stroke-width:0.5;stroke-dasharray:5,5;" x1="43" x2="43" y1="114" y2="2041"/></g></g><g class="participant-lifeline" data-entity-uid="part2" data-qualified-name="Controller" id="part2-lifeline"><g><title>Controller</title><rect fill="#000000" fill-opacity="0.00000" height="1927" width="8" x="336.1401" y="114"/><line style="stroke:#94A3B8;stroke-width:0.5;stroke-dasharray:5,5;" x1="339.7954" x2="339.7954" y1="114" y2="2041"/></g></g><g class="participant-lifeline" data-entity-uid="part3" data-qualified-name="BaseReconciler" id="part3-lifeline"><g><title>BaseReconciler</title><rect fill="#000000" fill-opacity="0.00000" height="1927" width="8" x="574.9663" y="114"/><line style="stroke:#94A3B8;stroke-width:0.5;stroke-dasharray:5,5;" x1="578.9424" x2="578.9424" y1="114" y2="2041"/></g></g><g class="participant-lifeline" data-entity-uid="part4" data-qualified-name="ServiceManager" id="part4-lifeline"><g><title>OSOKServiceManager</title><rect fill="#000000" fill-opacity="0.00000" height="1927" width="8" x="859.5591" y="114"/><line style="stroke:#94A3B8;stroke-width:0.5;stroke-dasharray:5,5;" x1="863.3628" x2="863.3628" y1="114" y2="2041"/></g></g><g class="participant-lifeline" data-entity-uid="part5" data-qualified-name="OCI" id="part5-lifeline"><g><title>OCI</title><rect fill="#000000" fill-opacity="0.00000" height="1927" width="8" x="1197.8755" y="114"/><line style="stroke:#94A3B8;stroke-width:0.5;stroke-dasharray:5,5;" x1="1201.4307" x2="1201.4307" y1="114" y2="2041"/></g></g><g class="participant participant-head" data-entity-uid="part1" data-qualified-name="Kubernetes" id="part1-head"><text fill="#000000" font-family="Helvetica" font-size="14" lengthAdjust="spacing" textLength="71.6064" x="5" y="110.7803">Kubernetes</text><ellipse cx="43.8032" cy="48.5" fill="#E2E8F0" rx="8" ry="8" style="stroke:#0F172A;stroke-width:0.5;"/><path d="M43.8032,56.5 L43.8032,83.5 M30.8032,64.5 L56.8032,64.5 M43.8032,83.5 L30.8032,98.5 M43.8032,83.5 L56.8032,98.5" fill="none" style="stroke:#0F172A;stroke-width:0.5;"/></g><g class="participant participant-head" data-entity-uid="part2" data-qualified-name="Controller" id="part2-head"><rect fill="#E2E8F0" height="28" rx="8" ry="8" style="stroke:#0F172A;stroke-width:0.5;" width="74.6895" x="302.7954" y="85"/><text fill="#0F172A" font-family="Helvetica" font-size="14" lengthAdjust="spacing" textLength="60.6895" x="309.7954" y="102.7803">Controller</text></g><g class="participant participant-head" data-entity-uid="part3" data-qualified-name="BaseReconciler" id="part3-head"><rect fill="#E2E8F0" height="28" rx="8" ry="8" style="stroke:#0F172A;stroke-width:0.5;" width="112.0479" x="522.9424" y="85"/><text fill="#0F172A" font-family="Helvetica" font-size="14" lengthAdjust="spacing" textLength="98.0479" x="529.9424" y="102.7803">BaseReconciler</text></g><g class="participant participant-head" data-entity-uid="part4" data-qualified-name="ServiceManager" id="part4-head"><rect fill="#E2E8F0" height="28" rx="8" ry="8" style="stroke:#0F172A;stroke-width:0.5;" width="156.3926" x="785.3628" y="85"/><text fill="#0F172A" font-family="Helvetica" font-size="14" lengthAdjust="spacing" textLength="142.3926" x="792.3628" y="102.7803">OSOKServiceManager</text></g><g class="participant participant-head" data-entity-uid="part5" data-qualified-name="OCI" id="part5-head"><rect fill="#E2E8F0" height="28" rx="8" ry="8" style="stroke:#0F172A;stroke-width:0.5;" width="38.8896" x="1182.4307" y="85"/><text fill="#0F172A" font-family="Helvetica" font-size="14" lengthAdjust="spacing" textLength="24.8896" x="1189.4307" y="102.7803">OCI</text></g><path d="M514,137 L514,187 A8,8 0 0 0 522,195 L919,195 A8,8 0 0 0 927,187 L927,139 L917,129 L522,129 A8,8 0 0 0 514,137" fill="#FFF7D6" style="stroke:#B45309;stroke-width:0.5;"/><path d="M917,129 L917,135 A4,4 0 0 0 921,139 L927,139 L917,129" fill="#FFF7D6" style="stroke:#B45309;stroke-width:0.5;"/><text fill="#334155" font-family="Helvetica" font-size="14" lengthAdjust="spacing" textLength="111.2891" x="562.7107" y="144.7803">shared resolution:</text><text fill="#334155" font-family="Helvetica" font-size="14" lengthAdjust="spacing" textLength="307.3916" x="562.7107" y="158.7803">shared/diagrams/shared-resolution-sequence.svg</text><text fill="#334155" font-family="Helvetica" font-size="14" lengthAdjust="spacing" textLength="88.7305" x="562.7107" y="172.7803">shared delete:</text><text fill="#334155" font-family="Helvetica" font-size="14" lengthAdjust="spacing" textLength="284.833" x="562.7107" y="186.7803">shared/diagrams/shared-delete-sequence.svg</text><g class="message" data-entity-1="part1" data-entity-2="part2" id="msg1"><polygon fill="#0F172A" points="328.1401,230,338.1401,234,328.1401,238,332.1401,234" style="stroke:#0F172A;stroke-width:1;"/><line style="stroke:#0F172A;stroke-width:1;" x1="43.8032" x2="334.1401" y1="234" y2="234"/><text fill="#000000" font-family="Helvetica" font-size="14" lengthAdjust="spacing" textLength="272.3369" x="50.8032" y="214.7803">enqueue OpsiAwrHubAwrSourcesSummary</text><text fill="#000000" font-family="Helvetica" font-size="14" lengthAdjust="spacing" textLength="56.0273" x="50.8032" y="228.7803">reconcile</text></g><g class="message" data-entity-1="part2" data-entity-2="part3" id="msg2"><polygon fill="#0F172A" points="566.9663,258,576.9663,262,566.9663,266,570.9663,262" style="stroke:#0F172A;stroke-width:1;"/><line style="stroke:#0F172A;stroke-width:1;" x1="340.1401" x2="572.9663" y1="262" y2="262"/><text fill="#000000" font-family="Helvetica" font-size="14" lengthAdjust="spacing" textLength="117.4961" x="347.1401" y="256.7803">Reconcile(request)</text></g><g class="message" data-entity-1="part3" data-entity-2="part4" id="msg3"><polygon fill="#0F172A" points="851.5591,300,861.5591,304,851.5591,308,855.5591,304" style="stroke:#0F172A;stroke-width:1;"/><line style="stroke:#0F172A;stroke-width:1;" x1="578.9663" x2="857.5591" y1="304" y2="304"/><text fill="#000000" font-family="Helvetica" font-size="14" lengthAdjust="spacing" textLength="105.834" x="585.9663" y="284.7803">reconcile desired</text><text fill="#000000" font-family="Helvetica" font-size="14" lengthAdjust="spacing" textLength="213.9443" x="585.9663" y="298.7803">OpsiAwrHubAwrSourcesSummary</text></g><path d="M520.9424,342 L574.2803,342 L574.2803,348 L564.2803,358 L512.9424,358 L512.9424,350 A8,8 0 0 1 520.9424,342" fill="#F8FAFC" style="stroke:#CBD5E1;stroke-width:1.5;"/><rect fill="none" height="290" rx="8" ry="8" style="stroke:#CBD5E1;stroke-width:1.5;" width="738.3779" x="512.9424" y="342"/><text fill="#000000" font-family="Helvetica" font-size="14" font-weight="bold" lengthAdjust="spacing" textLength="16.3379" x="527.9424" y="353.7803">alt</text><text fill="#000000" font-family="Helvetica" font-size="14" font-weight="bold" lengthAdjust="spacing" textLength="308.1094" x="589.2803" y="354.7803">[tracked or explicit OCI identity already exists]</text><g class="message" data-entity-1="part4" data-entity-2="part5" id="msg4"><polygon fill="#0F172A" points="1189.8755,374,1199.8755,378,1189.8755,382,1193.8755,378" style="stroke:#0F172A;stroke-width:1;"/><line style="stroke:#0F172A;stroke-width:1;" x1="863.5591" x2="1195.8755" y1="378" y2="378"/><text fill="#000000" font-family="Helvetica" font-size="14" lengthAdjust="spacing" textLength="236.5098" x="870.5591" y="372.7803">GetOpsiAwrHubAwrSourcesSummary</text></g><line style="stroke:#CBD5E1;stroke-width:1;stroke-dasharray:2,2;" x1="512.9424" x2="1251.3203" y1="387" y2="387"/><text fill="#000000" font-family="Helvetica" font-size="14" font-weight="bold" lengthAdjust="spacing" textLength="185.1582" x="517.9424" y="397.7803">[tracked identity is missing]</text><g class="message" data-entity-1="part4" data-entity-2="part5" id="msg5"><polygon fill="#0F172A" points="1189.8755,432,1199.8755,436,1189.8755,440,1193.8755,436" style="stroke:#0F172A;stroke-width:1;"/><line style="stroke:#0F172A;stroke-width:1;" x1="863.5591" x2="1195.8755" y1="436" y2="436"/><text fill="#000000" font-family="Helvetica" font-size="14" lengthAdjust="spacing" textLength="277.7305" x="870.5591" y="416.7803">ListOpsiAwrHubAwrSourcesSummary(filters:</text><text fill="#000000" font-family="Helvetica" font-size="14" lengthAdjust="spacing" textLength="143.1719" x="870.5591" y="430.7803">compartment_id, state)</text></g><path d="M773.3628,451 L826.7007,451 L826.7007,457 L816.7007,467 L765.3628,467 L765.3628,459 A8,8 0 0 1 773.3628,451" fill="#F8FAFC" style="stroke:#CBD5E1;stroke-width:1.5;"/><rect fill="none" height="146" rx="8" ry="8" style="stroke:#CBD5E1;stroke-width:1.5;" width="475.9575" x="765.3628" y="451"/><text fill="#000000" font-family="Helvetica" font-size="14" font-weight="bold" lengthAdjust="spacing" textLength="16.3379" x="780.3628" y="462.7803">alt</text><text fill="#000000" font-family="Helvetica" font-size="14" font-weight="bold" lengthAdjust="spacing" textLength="242.7031" x="841.7007" y="463.7803">[reusable OCI resource is not found]</text><g class="message" data-entity-1="part4" data-entity-2="part5" id="msg6"><polygon fill="#0F172A" points="1189.8755,483,1199.8755,487,1189.8755,491,1193.8755,487" style="stroke:#0F172A;stroke-width:1;"/><line style="stroke:#0F172A;stroke-width:1;" x1="863.5591" x2="1195.8755" y1="487" y2="487"/><text fill="#000000" font-family="Helvetica" font-size="14" lengthAdjust="spacing" textLength="255.9648" x="870.5591" y="481.7803">CreateOpsiAwrHubAwrSourcesSummary</text></g><path d="M783.3628,502 L849.9077,502 L849.9077,508 L839.9077,518 L775.3628,518 L775.3628,510 A8,8 0 0 1 783.3628,502" fill="#F8FAFC" style="stroke:#CBD5E1;stroke-width:1.5;"/><rect fill="none" height="44" rx="8" ry="8" style="stroke:#CBD5E1;stroke-width:1.5;" width="455.9575" x="775.3628" y="502"/><text fill="#000000" font-family="Helvetica" font-size="14" font-weight="bold" lengthAdjust="spacing" textLength="29.5449" x="790.3628" y="513.7803">loop</text><text fill="#000000" font-family="Helvetica" font-size="14" font-weight="bold" lengthAdjust="spacing" textLength="215.4756" x="864.9077" y="514.7803">[create pending PROVISIONING]</text><g class="message" data-entity-1="part4" data-entity-2="part5" id="msg7"><polygon fill="#0F172A" points="1189.8755,534,1199.8755,538,1189.8755,542,1193.8755,538" style="stroke:#0F172A;stroke-width:1;"/><line style="stroke:#0F172A;stroke-width:1;" x1="863.5591" x2="1195.8755" y1="538" y2="538"/><text fill="#000000" font-family="Helvetica" font-size="14" lengthAdjust="spacing" textLength="236.5098" x="870.5591" y="532.7803">GetOpsiAwrHubAwrSourcesSummary</text></g><line style="stroke:#CBD5E1;stroke-width:1;stroke-dasharray:2,2;" x1="765.3628" x2="1241.3203" y1="554" y2="554"/><text fill="#000000" font-family="Helvetica" font-size="14" font-weight="bold" lengthAdjust="spacing" textLength="255.2334" x="770.3628" y="564.7803">[reusable OCI resource already exists]</text><g class="message" data-entity-1="part4" data-entity-2="part5" id="msg8"><polygon fill="#0F172A" points="1189.8755,585,1199.8755,589,1189.8755,593,1193.8755,589" style="stroke:#0F172A;stroke-width:1;"/><line style="stroke:#0F172A;stroke-width:1;" x1="863.5591" x2="1195.8755" y1="589" y2="589"/><text fill="#000000" font-family="Helvetica" font-size="14" lengthAdjust="spacing" textLength="236.5098" x="870.5591" y="583.7803">GetOpsiAwrHubAwrSourcesSummary</text></g><g class="message" data-entity-1="part4" data-entity-2="part3" id="msg9"><polygon fill="#0F172A" points="589.9663,620,579.9663,624,589.9663,628,585.9663,624" style="stroke:#0F172A;stroke-width:1;"/><line style="stroke:#0F172A;stroke-width:1;stroke-dasharray:2,2;" x1="583.9663" x2="862.5591" y1="624" y2="624"/><text fill="#000000" font-family="Helvetica" font-size="14" lengthAdjust="spacing" textLength="231.0957" x="595.9663" y="618.7803">persist resolved OCI identity in status</text></g><path d="M500.9424,646 L554.2803,646 L554.2803,652 L544.2803,662 L492.9424,662 L492.9424,654 A8,8 0 0 1 500.9424,646" fill="#F8FAFC" style="stroke:#CBD5E1;stroke-width:1.5;"/><rect fill="none" height="840" rx="8" ry="8" style="stroke:#CBD5E1;stroke-width:1.5;" width="775.0151" x="492.9424" y="646"/><text fill="#000000" font-family="Helvetica" font-size="14" font-weight="bold" lengthAdjust="spacing" textLength="16.3379" x="507.9424" y="657.7803">alt</text><text fill="#000000" font-family="Helvetica" font-size="14" font-weight="bold" lengthAdjust="spacing" textLength="120.5859" x="569.2803" y="658.7803">[delete requested]</text><path d="M510.9424,669 L589.9629,669 L589.9629,675 L579.9629,685 L502.9424,685 L502.9424,677 A8,8 0 0 1 510.9424,669" fill="#F8FAFC" style="stroke:#CBD5E1;stroke-width:1.5;"/><rect fill="none" height="274" rx="8" ry="8" style="stroke:#CBD5E1;stroke-width:1.5;" width="738.3779" x="502.9424" y="669"/><text fill="#000000" font-family="Helvetica" font-size="14" font-weight="bold" lengthAdjust="spacing" textLength="42.0205" x="517.9424" y="680.7803">Delete</text><g class="message" data-entity-1="part4" data-entity-2="part5" id="msg10"><polygon fill="#0F172A" points="1189.8755,701,1199.8755,705,1189.8755,709,1193.8755,705" style="stroke:#0F172A;stroke-width:1;"/><line style="stroke:#0F172A;stroke-width:1;" x1="863.5591" x2="1195.8755" y1="705" y2="705"/><text fill="#000000" font-family="Helvetica" font-size="14" lengthAdjust="spacing" textLength="254.4131" x="870.5591" y="699.7803">DeleteOpsiAwrHubAwrSourcesSummary</text></g><g class="message" data-entity-1="part4" data-entity-2="part5" id="msg11"><polygon fill="#0F172A" points="1189.8755,757,1199.8755,761,1189.8755,765,1193.8755,761" style="stroke:#0F172A;stroke-width:1;"/><line style="stroke:#0F172A;stroke-width:1;" x1="863.5591" x2="1195.8755" y1="761" y2="761"/><text fill="#000000" font-family="Helvetica" font-size="14" lengthAdjust="spacing" textLength="109.7168" x="870.5591" y="727.7803">confirm delete via</text><text fill="#000000" font-family="Helvetica" font-size="14" lengthAdjust="spacing" textLength="252.8477" x="870.5591" y="741.7803">GetOpsiAwrHubAwrSourcesSummary or</text><text fill="#000000" font-family="Helvetica" font-size="14" lengthAdjust="spacing" textLength="235.7305" x="870.5591" y="755.7803">ListOpsiAwrHubAwrSourcesSummary</text></g><path d="M783.3628,776 L849.9077,776 L849.9077,782 L839.9077,792 L775.3628,792 L775.3628,784 A8,8 0 0 1 783.3628,776" fill="#F8FAFC" style="stroke:#CBD5E1;stroke-width:1.5;"/><rect fill="none" height="58" rx="8" ry="8" style="stroke:#CBD5E1;stroke-width:1.5;" width="455.9575" x="775.3628" y="776"/><text fill="#000000" font-family="Helvetica" font-size="14" font-weight="bold" lengthAdjust="spacing" textLength="29.5449" x="790.3628" y="787.7803">loop</text><text fill="#000000" font-family="Helvetica" font-size="14" font-weight="bold" lengthAdjust="spacing" textLength="182.7793" x="864.9077" y="788.7803">[delete pending DELETING]</text><g class="message" data-entity-1="part4" data-entity-2="part5" id="msg12"><polygon fill="#0F172A" points="1189.8755,822,1199.8755,826,1189.8755,830,1193.8755,826" style="stroke:#0F172A;stroke-width:1;"/><line style="stroke:#0F172A;stroke-width:1;" x1="863.5591" x2="1195.8755" y1="826" y2="826"/><text fill="#000000" font-family="Helvetica" font-size="14" lengthAdjust="spacing" textLength="252.8477" x="870.5591" y="806.7803">GetOpsiAwrHubAwrSourcesSummary or</text><text fill="#000000" font-family="Helvetica" font-size="14" lengthAdjust="spacing" textLength="235.7305" x="870.5591" y="820.7803">ListOpsiAwrHubAwrSourcesSummary</text></g><path d="M520.9424,848 L574.2803,848 L574.2803,854 L564.2803,864 L512.9424,864 L512.9424,856 A8,8 0 0 1 520.9424,848" fill="#F8FAFC" style="stroke:#CBD5E1;stroke-width:1.5;"/><rect fill="none" height="88" rx="8" ry="8" style="stroke:#CBD5E1;stroke-width:1.5;" width="438.813" x="512.9424" y="848"/><text fill="#000000" font-family="Helvetica" font-size="14" font-weight="bold" lengthAdjust="spacing" textLength="16.3379" x="527.9424" y="859.7803">alt</text><text fill="#000000" font-family="Helvetica" font-size="14" font-weight="bold" lengthAdjust="spacing" textLength="261.4268" x="589.2803" y="860.7803">[cleanup or finalizer release is blocked]</text><g class="message" data-entity-1="part4" data-entity-2="part3" id="msg13"><polygon fill="#0F172A" points="589.9663,880,579.9663,884,589.9663,888,585.9663,884" style="stroke:#0F172A;stroke-width:1;"/><line style="stroke:#0F172A;stroke-width:1;stroke-dasharray:2,2;" x1="583.9663" x2="862.5591" y1="884" y2="884"/><text fill="#000000" font-family="Helvetica" font-size="14" lengthAdjust="spacing" textLength="170.4336" x="595.9663" y="878.7803">retain delete state and retry</text></g><line style="stroke:#CBD5E1;stroke-width:1;stroke-dasharray:2,2;" x1="512.9424" x2="951.7554" y1="893" y2="893"/><text fill="#000000" font-family="Helvetica" font-size="14" font-weight="bold" lengthAdjust="spacing" textLength="194.4824" x="517.9424" y="903.7803">[delete completion observed]</text><g class="message" data-entity-1="part4" data-entity-2="part3" id="msg14"><polygon fill="#0F172A" points="589.9663,924,579.9663,928,589.9663,932,585.9663,928" style="stroke:#0F172A;stroke-width:1;"/><line style="stroke:#0F172A;stroke-width:1;stroke-dasharray:2,2;" x1="583.9663" x2="862.5591" y1="928" y2="928"/><text fill="#000000" font-family="Helvetica" font-size="14" lengthAdjust="spacing" textLength="243.5781" x="595.9663" y="922.7803">release finalizer after delete completion</text></g><line style="stroke:#CBD5E1;stroke-width:1;stroke-dasharray:2,2;" x1="492.9424" x2="1267.9575" y1="951" y2="951"/><text fill="#000000" font-family="Helvetica" font-size="14" font-weight="bold" lengthAdjust="spacing" textLength="149.3857" x="497.9424" y="961.7803">[OCI state is retryable]</text><g class="message" data-entity-1="part4" data-entity-2="part3" id="msg15"><polygon fill="#0F172A" points="589.9663,996,579.9663,1000,589.9663,1004,585.9663,1000" style="stroke:#0F172A;stroke-width:1;"/><line style="stroke:#0F172A;stroke-width:1;stroke-dasharray:2,2;" x1="583.9663" x2="862.5591" y1="1000" y2="1000"/><text fill="#000000" font-family="Helvetica" font-size="14" lengthAdjust="spacing" textLength="184.4199" x="595.9663" y="980.7803">requeue while OCI remains in</text><text fill="#000000" font-family="Helvetica" font-size="14" lengthAdjust="spacing" textLength="260.5928" x="595.9663" y="994.7803">PROVISIONING, UPDATING, DELETING</text></g><line style="stroke:#CBD5E1;stroke-width:1;stroke-dasharray:2,2;" x1="492.9424" x2="1267.9575" y1="1009" y2="1009"/><text fill="#000000" font-family="Helvetica" font-size="14" font-weight="bold" lengthAdjust="spacing" textLength="200.751" x="497.9424" y="1019.7803">[live state requires field-aware</text><text fill="#000000" font-family="Helvetica" font-size="14" font-weight="bold" lengthAdjust="spacing" textLength="105.0068" x="497.9424" y="1033.7803">drift evaluation]</text><path d="M510.9424,1045 L638.9287,1045 L638.9287,1051 L628.9287,1061 L502.9424,1061 L502.9424,1053 A8,8 0 0 1 510.9424,1045" fill="#F8FAFC" style="stroke:#CBD5E1;stroke-width:1.5;"/><rect fill="none" height="392" rx="8" ry="8" style="stroke:#CBD5E1;stroke-width:1.5;" width="755.0151" x="502.9424" y="1045"/><text fill="#000000" font-family="Helvetica" font-size="14" font-weight="bold" lengthAdjust="spacing" textLength="90.9863" x="517.9424" y="1056.7803">Drift handling</text><path d="M817,1074 L817,1124 A8,8 0 0 0 825,1132 L1239,1132 A8,8 0 0 0 1247,1124 L1247,1076 L1237,1066 L825,1066 A8,8 0 0 0 817,1074" fill="#FFF7D6" style="stroke:#B45309;stroke-width:0.5;"/><path d="M1237,1066 L1237,1072 A4,4 0 0 0 1241,1076 L1247,1076 L1237,1066" fill="#FFF7D6" style="stroke:#B45309;stroke-width:0.5;"/><text fill="#334155" font-family="Helvetica" font-size="14" lengthAdjust="spacing" textLength="255.2813" x="900.3381" y="1081.7803">Supported update surface: display_name</text><text fill="#334155" font-family="Helvetica" font-size="14" lengthAdjust="spacing" textLength="235.7783" x="900.3381" y="1095.7803">Reject before mutate: force-new fields</text><text fill="#334155" font-family="Helvetica" font-size="14" lengthAdjust="spacing" textLength="100.3789" x="900.3381" y="1109.7803">compartment_id</text><text fill="#334155" font-family="Helvetica" font-size="14" lengthAdjust="spacing" textLength="229.5576" x="900.3381" y="1123.7803">Lookup filters: compartment_id, state</text><path d="M520.9424,1144 L579.708,1144 L579.708,1150 L569.708,1160 L512.9424,1160 L512.9424,1152 A8,8 0 0 1 520.9424,1144" fill="#F8FAFC" style="stroke:#CBD5E1;stroke-width:1.5;"/><rect fill="none" height="44" rx="8" ry="8" style="stroke:#CBD5E1;stroke-width:1.5;" width="438.813" x="512.9424" y="1144"/><text fill="#000000" font-family="Helvetica" font-size="14" font-weight="bold" lengthAdjust="spacing" textLength="21.7656" x="527.9424" y="1155.7803">opt</text><text fill="#000000" font-family="Helvetica" font-size="14" font-weight="bold" lengthAdjust="spacing" textLength="276.1309" x="594.708" y="1156.7803">[force-new or conflicting drift is detected]</text><g class="message" data-entity-1="part4" data-entity-2="part3" id="msg16"><polygon fill="#0F172A" points="589.9663,1176,579.9663,1180,589.9663,1184,585.9663,1180" style="stroke:#0F172A;stroke-width:1;"/><line style="stroke:#0F172A;stroke-width:1;stroke-dasharray:2,2;" x1="583.9663" x2="862.5591" y1="1180" y2="1180"/><text fill="#000000" font-family="Helvetica" font-size="14" lengthAdjust="spacing" textLength="164.1855" x="595.9663" y="1174.7803">reject before OCI mutation</text></g><path d="M773.3628,1202 L832.1284,1202 L832.1284,1208 L822.1284,1218 L765.3628,1218 L765.3628,1210 A8,8 0 0 1 773.3628,1202" fill="#F8FAFC" style="stroke:#CBD5E1;stroke-width:1.5;"/><rect fill="none" height="130" rx="8" ry="8" style="stroke:#CBD5E1;stroke-width:1.5;" width="475.9575" x="765.3628" y="1202"/><text fill="#000000" font-family="Helvetica" font-size="14" font-weight="bold" lengthAdjust="spacing" textLength="21.7656" x="780.3628" y="1213.7803">opt</text><text fill="#000000" font-family="Helvetica" font-size="14" font-weight="bold" lengthAdjust="spacing" textLength="243.4619" x="847.1284" y="1214.7803">[supported mutable drift is detected]</text><g class="message" data-entity-1="part4" data-entity-2="part5" id="msg17"><polygon fill="#0F172A" points="1189.8755,1262,1199.8755,1266,1189.8755,1270,1193.8755,1266" style="stroke:#0F172A;stroke-width:1;"/><line style="stroke:#0F172A;stroke-width:1;" x1="863.5591" x2="1195.8755" y1="1266" y2="1266"/><text fill="#000000" font-family="Helvetica" font-size="14" lengthAdjust="spacing" textLength="35.0205" x="870.5591" y="1232.7803">Apply</text><text fill="#000000" font-family="Helvetica" font-size="14" lengthAdjust="spacing" textLength="259.0889" x="870.5591" y="1246.7803">UpdateOpsiAwrHubAwrSourcesSummary</text><text fill="#000000" font-family="Helvetica" font-size="14" lengthAdjust="spacing" textLength="226.4541" x="870.5591" y="1260.7803">only for mutable fields display_name</text></g><path d="M783.3628,1281 L849.9077,1281 L849.9077,1287 L839.9077,1297 L775.3628,1297 L775.3628,1289 A8,8 0 0 1 783.3628,1281" fill="#F8FAFC" style="stroke:#CBD5E1;stroke-width:1.5;"/><rect fill="none" height="44" rx="8" ry="8" style="stroke:#CBD5E1;stroke-width:1.5;" width="455.9575" x="775.3628" y="1281"/><text fill="#000000" font-family="Helvetica" font-size="14" font-weight="bold" lengthAdjust="spacing" textLength="29.5449" x="790.3628" y="1292.7803">loop</text><text fill="#000000" font-family="Helvetica" font-size="14" font-weight="bold" lengthAdjust="spacing" textLength="190.5381" x="864.9077" y="1293.7803">[update pending UPDATING]</text><g class="message" data-entity-1="part4" data-entity-2="part5" id="msg18"><polygon fill="#0F172A" points="1189.8755,1313,1199.8755,1317,1189.8755,1321,1193.8755,1317" style="stroke:#0F172A;stroke-width:1;"/><line style="stroke:#0F172A;stroke-width:1;" x1="863.5591" x2="1195.8755" y1="1317" y2="1317"/><text fill="#000000" font-family="Helvetica" font-size="14" lengthAdjust="spacing" textLength="236.5098" x="870.5591" y="1311.7803">GetOpsiAwrHubAwrSourcesSummary</text></g><g class="message" data-entity-1="part4" data-entity-2="part5" id="msg19"><polygon fill="#0F172A" points="1189.8755,1425,1199.8755,1429,1189.8755,1433,1193.8755,1429" style="stroke:#0F172A;stroke-width:1;"/><line style="stroke:#0F172A;stroke-width:1;" x1="863.5591" x2="1195.8755" y1="1429" y2="1429"/><text fill="#000000" font-family="Helvetica" font-size="14" lengthAdjust="spacing" textLength="104.2891" x="870.5591" y="1353.7803">run helper hooks</text><text fill="#000000" font-family="Helvetica" font-size="14" lengthAdjust="spacing" textLength="219.0508" x="870.5591" y="1367.7803">create=tfresource.CreateResource,</text><text fill="#000000" font-family="Helvetica" font-size="14" lengthAdjust="spacing" textLength="314.3164" x="870.5591" y="1381.7803">tfresource.WaitForWorkRequestWithErrorHandling</text><text fill="#000000" font-family="Helvetica" font-size="14" lengthAdjust="spacing" textLength="215.5439" x="870.5591" y="1395.7803">entity=template action=CREATED;</text><text fill="#000000" font-family="Helvetica" font-size="14" lengthAdjust="spacing" textLength="226.085" x="870.5591" y="1409.7803">update=tfresource.UpdateResource;</text><text fill="#000000" font-family="Helvetica" font-size="14" lengthAdjust="spacing" textLength="212.8438" x="870.5591" y="1423.7803">delete=tfresource.DeleteResource</text></g><g class="message" data-entity-1="part4" data-entity-2="part3" id="msg20"><polygon fill="#0F172A" points="589.9663,1474,579.9663,1478,589.9663,1482,585.9663,1478" style="stroke:#0F172A;stroke-width:1;"/><line style="stroke:#0F172A;stroke-width:1;stroke-dasharray:2,2;" x1="583.9663" x2="862.5591" y1="1478" y2="1478"/><text fill="#000000" font-family="Helvetica" font-size="14" lengthAdjust="spacing" textLength="100.7822" x="595.9663" y="1458.7803">status=required,</text><text fill="#000000" font-family="Helvetica" font-size="14" lengthAdjust="spacing" textLength="230.7197" x="595.9663" y="1472.7803">finalizer=retain-until-confirmed-delete</text></g><g class="message" data-entity-1="part3" data-entity-2="part2" id="msg21"><polygon fill="#0F172A" points="351.1401,1523,341.1401,1527,351.1401,1531,347.1401,1527" style="stroke:#0F172A;stroke-width:1;"/><line style="stroke:#0F172A;stroke-width:1;stroke-dasharray:2,2;" x1="345.1401" x2="577.9663" y1="1527" y2="1527"/><text fill="#000000" font-family="Helvetica" font-size="14" lengthAdjust="spacing" textLength="214.8262" x="357.1401" y="1507.7803">requeue on provisioning, updating,</text><text fill="#000000" font-family="Helvetica" font-size="14" lengthAdjust="spacing" textLength="69.2549" x="357.1401" y="1521.7803">terminating</text></g><path d="M868,1548 L868,2018 A8,8 0 0 0 876,2026 L1188,2026 A8,8 0 0 0 1196,2018 L1196,1550 L1186,1540 L876,1540 A8,8 0 0 0 868,1548" fill="#FFF7D6" style="stroke:#B45309;stroke-width:0.5;"/><path d="M1186,1540 L1186,1546 A4,4 0 0 0 1190,1550 L1196,1550 L1186,1540" fill="#FFF7D6" style="stroke:#B45309;stroke-width:0.5;"/><text fill="#334155" font-family="Helvetica" font-size="14" lengthAdjust="spacing" textLength="101.165" x="874" y="1555.7803">shared diagram:</text><text fill="#334155" font-family="Helvetica" font-size="14" lengthAdjust="spacing" textLength="307.3916" x="874" y="1569.7803">shared/diagrams/shared-resolution-sequence.svg</text><text fill="#334155" font-family="Helvetica" font-size="14" lengthAdjust="spacing" textLength="143.1992" x="874" y="1583.7803">shared delete diagram:</text><text fill="#334155" font-family="Helvetica" font-size="14" lengthAdjust="spacing" textLength="284.833" x="874" y="1597.7803">shared/diagrams/shared-delete-sequence.svg</text><text fill="#334155" font-family="Helvetica" font-size="14" lengthAdjust="spacing" textLength="280.9297" x="874" y="1611.7803">Start from the shared resolution sequence for</text><text fill="#334155" font-family="Helvetica" font-size="14" lengthAdjust="spacing" textLength="260.7295" x="874" y="1625.7803">OCID binding, datasource pagination, and</text><text fill="#334155" font-family="Helvetica" font-size="14" lengthAdjust="spacing" textLength="163.4268" x="874" y="1639.7803">create-or-update dispatch.</text><text fill="#334155" font-family="Helvetica" font-size="14" lengthAdjust="spacing" textLength="301.1982" x="874" y="1653.7803">Layer the shared delete sequence when finalizer</text><text fill="#334155" font-family="Helvetica" font-size="14" lengthAdjust="spacing" textLength="269.2471" x="874" y="1667.7803">retention, delete confirmation, work-request</text><text fill="#334155" font-family="Helvetica" font-size="14" lengthAdjust="spacing" textLength="199.2334" x="874" y="1681.7803">polling, or Secret cleanup apply.</text><text fill="#334155" font-family="Helvetica" font-size="14" lengthAdjust="spacing" textLength="281.709" x="874" y="1695.7803">archetype batch: Generated service-manager</text><text fill="#334155" font-family="Helvetica" font-size="14" lengthAdjust="spacing" textLength="266.1504" x="874" y="1709.7803">controllers follow the shared resolution and</text><text fill="#334155" font-family="Helvetica" font-size="14" lengthAdjust="spacing" textLength="259.9297" x="874" y="1723.7803">delete sequences with imported waits and</text><text fill="#334155" font-family="Helvetica" font-size="14" lengthAdjust="spacing" textLength="134.6064" x="874" y="1737.7803">controller-local policy.</text><text fill="#334155" font-family="Helvetica" font-size="14" lengthAdjust="spacing" textLength="77.8066" x="874" y="1751.7803">service: opsi</text><text fill="#334155" font-family="Helvetica" font-size="14" lengthAdjust="spacing" textLength="234.1992" x="874" y="1765.7803">slug: opsiawrhubawrsourcessummary</text><text fill="#334155" font-family="Helvetica" font-size="14" lengthAdjust="spacing" textLength="247.4063" x="874" y="1779.7803">kind: OpsiAwrHubAwrSourcesSummary</text><text fill="#334155" font-family="Helvetica" font-size="14" lengthAdjust="spacing" textLength="241.2402" x="874" y="1793.7803">archetype: generated-service-manager</text><text fill="#334155" font-family="Helvetica" font-size="14" lengthAdjust="spacing" textLength="156.4063" x="874" y="1807.7803">status/finalizer: required /</text><text fill="#334155" font-family="Helvetica" font-size="14" lengthAdjust="spacing" textLength="174.3027" x="874" y="1821.7803">retain-until-confirmed-delete</text><text fill="#334155" font-family="Helvetica" font-size="14" lengthAdjust="spacing" textLength="272.3984" x="874" y="1835.7803">requeue: provisioning, updating, terminating</text><text fill="#334155" font-family="Helvetica" font-size="14" lengthAdjust="spacing" textLength="295.6816" x="874" y="1849.7803">provider states: create PROVISIONING; update</text><text fill="#334155" font-family="Helvetica" font-size="14" lengthAdjust="spacing" textLength="192.165" x="874" y="1863.7803">UPDATING; delete DELETING</text><text fill="#334155" font-family="Helvetica" font-size="14" lengthAdjust="spacing" textLength="183.6611" x="874" y="1877.7803">supported drift: display_name</text><text fill="#334155" font-family="Helvetica" font-size="14" lengthAdjust="spacing" textLength="230.3301" x="874" y="1891.7803">reject before mutate: force-new fields</text><text fill="#334155" font-family="Helvetica" font-size="14" lengthAdjust="spacing" textLength="100.3789" x="874" y="1905.7803">compartment_id</text><text fill="#334155" font-family="Helvetica" font-size="14" lengthAdjust="spacing" textLength="66.1445" x="874" y="1919.7803">list lookup:</text><text fill="#334155" font-family="Helvetica" font-size="14" lengthAdjust="spacing" textLength="290.2402" x="874" y="1933.7803">scaffold_opsi_opsiawrhubawrsourcessummary</text><text fill="#334155" font-family="Helvetica" font-size="14" lengthAdjust="spacing" textLength="175.8477" x="874" y="1947.7803">filters compartment_id, state</text><text fill="#334155" font-family="Helvetica" font-size="14" lengthAdjust="spacing" textLength="89.4961" x="874" y="1961.7803">conflicts: none</text><text fill="#334155" font-family="Helvetica" font-size="14" lengthAdjust="spacing" textLength="104.3164" x="874" y="1975.7803">open gaps: none</text><text fill="#334155" font-family="Helvetica" font-size="14" lengthAdjust="spacing" textLength="224.9023" x="874" y="1989.7803">Scaffold metadata only; replace with</text><text fill="#334155" font-family="Helvetica" font-size="14" lengthAdjust="spacing" textLength="244.3232" x="874" y="2003.7803">controller-specific runtime states before</text><text fill="#334155" font-family="Helvetica" font-size="14" lengthAdjust="spacing" textLength="66.1445" x="874" y="2017.7803">promotion.</text><?plantuml-src hLTRRzis57xNhpZeNbeWIfecwSL11gH9rWRDcY9krnS30IqTsLmeKYCfkzwm_xx3YsJ9iLsZ7G8ujaYUw_TzXp8FN5PCinBCbELgpkK42YOC9gPT6RFiOQ9LBVCB9PI6NugC_lBEZXmBLWlxcvBs8oiHtgEOeUKPMxzdoFz6E3pkB3AjrJnQVruSldhHFIcLnRUFOYYAL_dBrLrAvwZZZl7noT7pDoixdFkuVdHqV7XoqbdtvZEb9MeuV9bORWN24F-gKMO8AQZAy8DR-ZYVw_Vrc3w7gjOPcc5TbamlaYdF4Ggbx5XzwzWrZOb_4W2MMQLxSSPycwNLHF45lYwUqp8PevBoYacx_dntmovMEhLeRGXUu0sN_Kg-EMP7uzUqwanMlQLid9_WORlqg4kl2rPaoR-9pmq-r6EaybeqIISEkA10j182TU_nMsRm3ZCbCxwwzEHsUFjXY7h6C_oTIJP1_GIOWVwZtf7RY-l48G3KZFhRjxstSewue347ZKQ9sd8b1_7HGSxPX7fg3iBlTBabRTgyRsQJnaAEWhBTU3eizq-Yp3rIasMn8FsrKwC1eAJzDS8MB8waRh9BbaUTeNxc0sY_FzKk36EV9Vqjxb2_FWDeZLE6XbCg8xcD61uSSAFK0_rZbE2OopnXmeBL11ag5843lrM2ckKx1SGaIGHS01CQMRwWLMwiIVg1kD1ezm3UeTtc7qdGMbUjQMwWvCQGv6qoUqC-jzXzMd1XKPl1I6QgT60hoVGzp_V0M6RncKzHOstOc4hbyd9uSIQSS-eogGMHPPFx2qhTuhR4X58LP7uRL8GS9z-Vxcx_k1vUttwy_lZkH-j5CVcQhO_z_-d9chpNmBEY-fANmCKPjQ-73YvzfMlZpRbg1qf1n3Bc4NkN_l6cKCFgjcWt7AGu2wxBnkkCiv7SdZSXVII_WwlGrcYpQUlbrStLvnzkwKvkcnfc0fcaeX4f2owPe76jgQBqr7ZWZeLoJDgbVHejeoR5N3mhl03GyuQNSSqnYBwGae8Q6xAyguCGrZ9GLX0d7riDe6w0xL0Keg5yV30Evhiv3E8xd_AM5oNbQ0YC8zabtnvy-NHv_jb_QxldlGi-QuhXp9606ae0HPwoEGs6aSmrBopWZ8cQ-U0ZYltZAHLGEDLQZhD-t7jkrWthgbAQ601rbJjFfjO5ot00EJULO8jxILUrv0x_nCp260kb4ShQ1JKWMI9Sf1Bd8IoJzFKjYLBUw1-ibR_bA5ELxPWaM3dUaDXR1-oGAxKXfuPbTjUsTyDsNV2XDtrs3arR0BVaHEpxdYANpgjAq0ZzuWktTSegAHOkjTP7g5U_nfxEiGiDdHje_8n2RvuSkfOmHK7Y2LDgbQ41vOV4cIqQ5TyFq-Kk_jmRoSxQLyRfUgY_Alrm5vJqAxVJAxgbw_SHVICPDFZC8b7CypfpzJ-xkBiw_tnrUJgI8UMkpr3HnYTj2JJjRWbQt6pPTKo4AN0MsPHJDgqWd0KDIciALwHHiTlBbtUmUk5PkMyrb2TfghIQSKDfKWNsGa_TDoeUwf8ysfQNca-c5bG1w--MyIhuSnVBxrfPTy4SMc8g55gLOAS8Z-wwo_SLmdL2SBhqrpMVCANBuYMWOXEVhv9xJj6J0B1KwJGYtL60sMowdzom1LMruwmP1usZ-HJbKi4JQfZ3bhFSohZlMdGt9rYcSS8d5JN9nwQS358Ko_d578tt4wQpATf5XVGcI_4uRj4h7dFAO49lqZ8s9skxJe9C_zLyGurSnYjP69WJHu2NKNNcn24JIjDQJMboCW4KCyyeikX-u5yj4oFgIVZAvdfQZ-aprDgOo7fwfSm7swxzorm7C6coJ5Up36GvQ0i-QAPG3WV9ThP4AWms4G6wFF1xw5qnZ0Ct9i9DjJiaJwCm9eqWdZOzRqVcKiYzWAyCCFr30qouEwNmKup8ax62kftVkzhVRsj077WRvbqprIXJ6Wnkx16i9wngVW-Z7oYfnevAuCR7ALMVqd4q8FnqmM8gp7Z1CoVdbfVnoc1YhgwyfN9et6ydxNy0?></g></svg>