<?plantuml 1.2026.1?><svg xmlns="http://www.w3.org/2000/svg" xmlns:xlink="http://www.w3.org/1999/xlink" contentStyleType="text/css" data-diagram-type="ACTIVITY" height="1301px" preserveAspectRatio="none" style="width:694px;height:1301px;background:#FCFCFD;" version="1.1" viewBox="0 0 694 1301" width="694px" zoomAndPan="magnify"><title>Activity - devops/DevopsRepository</title><defs/><g><rect fill="#FCFCFD" height="1301" style="stroke:none;stroke-width:1;" width="694" x="0" y="0"/><g class="title" data-source-line="10"><text fill="#000000" font-family="Helvetica" font-size="14" font-weight="bold" lengthAdjust="spacing" textLength="239.6133" x="225.7317" y="30.7803">Activity - devops/DevopsRepository</text></g><ellipse cx="311.0366" cy="55" fill="#1D4ED8" rx="10" ry="10" style="stroke:#222222;stroke-width:1;"/><rect fill="#F8FAFC" height="48" rx="8" ry="8" style="stroke:#0F172A;stroke-width:0.5;" width="304.7852" x="158.644" y="85"/><text fill="#0F172A" font-family="Helvetica" font-size="14" lengthAdjust="spacing" textLength="136.9375" x="168.644" y="105.7803">Start from shared flow</text><text fill="#0F172A" font-family="Helvetica" font-size="14" lengthAdjust="spacing" textLength="284.7852" x="168.644" y="119.7803">shared/diagrams/shared-reconcile-activity.svg</text><rect fill="#F8FAFC" height="48" rx="8" ry="8" style="stroke:#0F172A;stroke-width:0.5;" width="321.1777" x="150.4478" y="153"/><text fill="#0F172A" font-family="Helvetica" font-size="14" lengthAdjust="spacing" textLength="301.1777" x="160.4478" y="173.7803">Load desired DevopsRepository spec and status</text><text fill="#0F172A" font-family="Helvetica" font-size="14" lengthAdjust="spacing" textLength="103.4961" x="160.4478" y="187.7803">from Kubernetes</text><rect fill="#F8FAFC" height="48" rx="8" ry="8" style="stroke:#0F172A;stroke-width:0.5;" width="325.0127" x="148.5303" y="221"/><text fill="#0F172A" font-family="Helvetica" font-size="14" lengthAdjust="spacing" textLength="305.0127" x="158.5303" y="241.7803">Resolve OCI state via GetDevopsRepository with</text><text fill="#0F172A" font-family="Helvetica" font-size="14" lengthAdjust="spacing" textLength="187.5303" x="158.5303" y="255.7803">ListDevopsRepository fallback</text><rect fill="#F8FAFC" height="62" rx="8" ry="8" style="stroke:#0F172A;stroke-width:0.5;" width="301.7021" x="160.1855" y="289"/><text fill="#0F172A" font-family="Helvetica" font-size="14" lengthAdjust="spacing" textLength="281.7021" x="170.1855" y="309.7803">Use scaffold_devops_devopsrepository filters</text><text fill="#0F172A" font-family="Helvetica" font-size="14" lengthAdjust="spacing" textLength="276.2402" x="170.1855" y="323.7803">compartment_id, state when OCID lookup or</text><text fill="#0F172A" font-family="Helvetica" font-size="14" lengthAdjust="spacing" textLength="243.5645" x="170.1855" y="337.7803">bind-versus-create needs list resolution</text><polygon fill="#E2E8F0" points="257.3472,371,364.7261,371,376.7261,383,364.7261,395,257.3472,395,245.3472,383,257.3472,371" style="stroke:#1D4ED8;stroke-width:0.5;"/><text fill="#0F172A" font-family="Helvetica" font-size="14" lengthAdjust="spacing" textLength="107.3789" x="257.3472" y="386.7803">Resource exists?</text><text fill="#000000" font-family="Helvetica" font-size="14" lengthAdjust="spacing" textLength="21.7861" x="223.561" y="379.7803">yes</text><text fill="#000000" font-family="Helvetica" font-size="14" lengthAdjust="spacing" textLength="15.5723" x="376.7261" y="379.7803">no</text><rect fill="#F8FAFC" height="34" rx="8" ry="8" style="stroke:#0F172A;stroke-width:0.5;" width="291.5986" x="11" y="405"/><text fill="#0F172A" font-family="Helvetica" font-size="14" lengthAdjust="spacing" textLength="271.5986" x="21" y="425.7803">Update path calls UpdateDevopsRepository</text><rect fill="#F8FAFC" height="48" rx="8" ry="8" style="stroke:#0F172A;stroke-width:0.5;" width="266.7021" x="23.4482" y="459"/><text fill="#0F172A" font-family="Helvetica" font-size="14" lengthAdjust="spacing" textLength="246.7021" x="33.4482" y="479.7803">Guard mutable fields display_name and</text><text fill="#0F172A" font-family="Helvetica" font-size="14" lengthAdjust="spacing" textLength="202.3096" x="33.4482" y="493.7803">force-new fields compartment_id</text><rect fill="#F8FAFC" height="34" rx="8" ry="8" style="stroke:#0F172A;stroke-width:0.5;" width="285.3506" x="322.5986" y="405"/><text fill="#0F172A" font-family="Helvetica" font-size="14" lengthAdjust="spacing" textLength="265.3506" x="332.5986" y="425.7803">Create path calls CreateDevopsRepository</text><polygon fill="#E2E8F0" points="311.0366,513,323.0366,525,311.0366,537,299.0366,525,311.0366,513" style="stroke:#1D4ED8;stroke-width:0.5;"/><rect fill="#F8FAFC" height="104" rx="8" ry="8" style="stroke:#0F172A;stroke-width:0.5;" width="334.3164" x="143.8784" y="557"/><text fill="#0F172A" font-family="Helvetica" font-size="14" lengthAdjust="spacing" textLength="164.2061" x="153.8784" y="577.7803">Run provider helper hooks</text><text fill="#0F172A" font-family="Helvetica" font-size="14" lengthAdjust="spacing" textLength="219.0508" x="153.8784" y="591.7803">create=tfresource.CreateResource,</text><text fill="#0F172A" font-family="Helvetica" font-size="14" lengthAdjust="spacing" textLength="314.3164" x="153.8784" y="605.7803">tfresource.WaitForWorkRequestWithErrorHandling</text><text fill="#0F172A" font-family="Helvetica" font-size="14" lengthAdjust="spacing" textLength="215.5439" x="153.8784" y="619.7803">entity=template action=CREATED;</text><text fill="#0F172A" font-family="Helvetica" font-size="14" lengthAdjust="spacing" textLength="226.085" x="153.8784" y="633.7803">update=tfresource.UpdateResource;</text><text fill="#0F172A" font-family="Helvetica" font-size="14" lengthAdjust="spacing" textLength="212.8438" x="153.8784" y="647.7803">delete=tfresource.DeleteResource</text><rect fill="#F8FAFC" height="34" rx="8" ry="8" style="stroke:#0F172A;stroke-width:0.5;" width="263.5918" x="179.2407" y="681"/><text fill="#0F172A" font-family="Helvetica" font-size="14" lengthAdjust="spacing" textLength="243.5918" x="189.2407" y="701.7803">Apply repo-authored secret policy none</text><rect fill="#F8FAFC" height="62" rx="8" ry="8" style="stroke:#0F172A;stroke-width:0.5;" width="320.3438" x="150.8647" y="735"/><text fill="#0F172A" font-family="Helvetica" font-size="14" lengthAdjust="spacing" textLength="292.5986" x="160.8647" y="755.7803">Delete path uses DeleteDevopsRepository with</text><text fill="#0F172A" font-family="Helvetica" font-size="14" lengthAdjust="spacing" textLength="230.3301" x="160.8647" y="769.7803">required via GetDevopsRepository or</text><text fill="#0F172A" font-family="Helvetica" font-size="14" lengthAdjust="spacing" textLength="300.3438" x="160.8647" y="783.7803">ListDevopsRepository to DELETED confirmation</text><rect fill="#F8FAFC" height="48" rx="8" ry="8" style="stroke:#0F172A;stroke-width:0.5;" width="279.1299" x="171.4717" y="817"/><text fill="#0F172A" font-family="Helvetica" font-size="14" lengthAdjust="spacing" textLength="259.1299" x="181.4717" y="837.7803">Project required status and finalizer policy</text><text fill="#0F172A" font-family="Helvetica" font-size="14" lengthAdjust="spacing" textLength="174.3027" x="181.4717" y="851.7803">retain-until-confirmed-delete</text><rect fill="#F8FAFC" height="34" rx="8" ry="8" style="stroke:#0F172A;stroke-width:0.5;" width="313.4189" x="154.3271" y="885"/><text fill="#0F172A" font-family="Helvetica" font-size="14" lengthAdjust="spacing" textLength="293.4189" x="164.3271" y="905.7803">Requeue on provisioning, updating, terminating</text><path d="M342.0366,929 L342.0366,1105 L322.0366,1109 L342.0366,1113 L342.0366,1289 A0,0 0 0 0 342.0366,1289 L682.0767,1289 A0,0 0 0 0 682.0767,1289 L682.0767,939 L672.0767,929 L342.0366,929 A0,0 0 0 0 342.0366,929" fill="#FFF7D6" style="stroke:#B45309;stroke-width:0.5;"/><path d="M672.0767,929 L672.0767,939 L682.0767,939 L672.0767,929" fill="#FFF7D6" style="stroke:#B45309;stroke-width:0.5;"/><text fill="#334155" font-family="Helvetica" font-size="14" lengthAdjust="spacing" textLength="101.165" x="348.0366" y="944.7803">shared diagram:</text><text fill="#334155" font-family="Helvetica" font-size="14" lengthAdjust="spacing" textLength="284.7852" x="348.0366" y="958.7803">shared/diagrams/shared-reconcile-activity.svg</text><text fill="#334155" font-family="Helvetica" font-size="14" lengthAdjust="spacing" textLength="265.3438" x="348.0366" y="972.7803">Start from the shared reconcile activity and</text><text fill="#334155" font-family="Helvetica" font-size="14" lengthAdjust="spacing" textLength="273.8955" x="348.0366" y="986.7803">specialize provider-backed CRUD, wait, and</text><text fill="#334155" font-family="Helvetica" font-size="14" lengthAdjust="spacing" textLength="182.875" x="348.0366" y="1000.7803">status-projection details here.</text><text fill="#334155" font-family="Helvetica" font-size="14" lengthAdjust="spacing" textLength="229.5371" x="348.0366" y="1014.7803">Controller-local activity diagrams add</text><text fill="#334155" font-family="Helvetica" font-size="14" lengthAdjust="spacing" textLength="238.8955" x="348.0366" y="1028.7803">list-lookup hints, secret policies, delete</text><text fill="#334155" font-family="Helvetica" font-size="14" lengthAdjust="spacing" textLength="200.0332" x="348.0366" y="1042.7803">handling, and open formal gaps.</text><text fill="#334155" font-family="Helvetica" font-size="14" lengthAdjust="spacing" textLength="281.709" x="348.0366" y="1056.7803">archetype batch: Generated service-manager</text><text fill="#334155" font-family="Helvetica" font-size="14" lengthAdjust="spacing" textLength="291.0469" x="348.0366" y="1070.7803">controllers specialize the shared reconcile path</text><text fill="#334155" font-family="Helvetica" font-size="14" lengthAdjust="spacing" textLength="189.8477" x="348.0366" y="1084.7803">with formal runtime ownership.</text><text fill="#334155" font-family="Helvetica" font-size="14" lengthAdjust="spacing" textLength="97.2686" x="348.0366" y="1098.7803">service: devops</text><text fill="#334155" font-family="Helvetica" font-size="14" lengthAdjust="spacing" textLength="140.0752" x="348.0366" y="1112.7803">slug: devopsrepository</text><text fill="#334155" font-family="Helvetica" font-size="14" lengthAdjust="spacing" textLength="147.8477" x="348.0366" y="1126.7803">kind: DevopsRepository</text><text fill="#334155" font-family="Helvetica" font-size="14" lengthAdjust="spacing" textLength="241.2402" x="348.0366" y="1140.7803">archetype: generated-service-manager</text><text fill="#334155" font-family="Helvetica" font-size="14" lengthAdjust="spacing" textLength="156.4063" x="348.0366" y="1154.7803">status/finalizer: required /</text><text fill="#334155" font-family="Helvetica" font-size="14" lengthAdjust="spacing" textLength="174.3027" x="348.0366" y="1168.7803">retain-until-confirmed-delete</text><text fill="#334155" font-family="Helvetica" font-size="14" lengthAdjust="spacing" textLength="272.3984" x="348.0366" y="1182.7803">requeue: provisioning, updating, terminating</text><text fill="#334155" font-family="Helvetica" font-size="14" lengthAdjust="spacing" textLength="295.6816" x="348.0366" y="1196.7803">provider states: create PROVISIONING; update</text><text fill="#334155" font-family="Helvetica" font-size="14" lengthAdjust="spacing" textLength="192.165" x="348.0366" y="1210.7803">UPDATING; delete DELETING</text><text fill="#334155" font-family="Helvetica" font-size="14" lengthAdjust="spacing" textLength="319.04" x="348.0366" y="1224.7803">mutable/forceNew: display_name / compartment_id</text><text fill="#334155" font-family="Helvetica" font-size="14" lengthAdjust="spacing" textLength="104.3164" x="348.0366" y="1238.7803">open gaps: none</text><text fill="#334155" font-family="Helvetica" font-size="14" lengthAdjust="spacing" textLength="224.9023" x="348.0366" y="1252.7803">Scaffold metadata only; replace with</text><text fill="#334155" font-family="Helvetica" font-size="14" lengthAdjust="spacing" textLength="244.3232" x="348.0366" y="1266.7803">controller-specific runtime states before</text><text fill="#334155" font-family="Helvetica" font-size="14" lengthAdjust="spacing" textLength="66.1445" x="348.0366" y="1280.7803">promotion.</text><ellipse cx="311.0366" cy="1109" fill="none" rx="11" ry="11" style="stroke:#222222;stroke-width:1;"/><ellipse cx="311.0366" cy="1109" fill="#222222" rx="6" ry="6" style="stroke:#222222;stroke-width:1;"/><line style="stroke:#0F172A;stroke-width:1;" x1="311.0366" x2="311.0366" y1="65" y2="85"/><polygon fill="#0F172A" points="307.0366,75,311.0366,85,315.0366,75,311.0366,79" style="stroke:#0F172A;stroke-width:1;"/><line style="stroke:#0F172A;stroke-width:1;" x1="311.0366" x2="311.0366" y1="133" y2="153"/><polygon fill="#0F172A" points="307.0366,143,311.0366,153,315.0366,143,311.0366,147" style="stroke:#0F172A;stroke-width:1;"/><line style="stroke:#0F172A;stroke-width:1;" x1="311.0366" x2="311.0366" y1="201" y2="221"/><polygon fill="#0F172A" points="307.0366,211,311.0366,221,315.0366,211,311.0366,215" style="stroke:#0F172A;stroke-width:1;"/><line style="stroke:#0F172A;stroke-width:1;" x1="311.0366" x2="311.0366" y1="269" y2="289"/><polygon fill="#0F172A" points="307.0366,279,311.0366,289,315.0366,279,311.0366,283" style="stroke:#0F172A;stroke-width:1;"/><line style="stroke:#0F172A;stroke-width:1;" x1="156.7993" x2="156.7993" y1="439" y2="459"/><polygon fill="#0F172A" points="152.7993,449,156.7993,459,160.7993,449,156.7993,453" style="stroke:#0F172A;stroke-width:1;"/><line style="stroke:#0F172A;stroke-width:1;" x1="245.3472" x2="156.7993" y1="383" y2="383"/><line style="stroke:#0F172A;stroke-width:1;" x1="156.7993" x2="156.7993" y1="383" y2="405"/><polygon fill="#0F172A" points="152.7993,395,156.7993,405,160.7993,395,156.7993,399" style="stroke:#0F172A;stroke-width:1;"/><line style="stroke:#0F172A;stroke-width:1;" x1="376.7261" x2="465.2739" y1="383" y2="383"/><line style="stroke:#0F172A;stroke-width:1;" x1="465.2739" x2="465.2739" y1="383" y2="405"/><polygon fill="#0F172A" points="461.2739,395,465.2739,405,469.2739,395,465.2739,399" style="stroke:#0F172A;stroke-width:1;"/><line style="stroke:#0F172A;stroke-width:1;" x1="156.7993" x2="156.7993" y1="507" y2="525"/><line style="stroke:#0F172A;stroke-width:1;" x1="156.7993" x2="299.0366" y1="525" y2="525"/><polygon fill="#0F172A" points="289.0366,521,299.0366,525,289.0366,529,293.0366,525" style="stroke:#0F172A;stroke-width:1;"/><line style="stroke:#0F172A;stroke-width:1;" x1="465.2739" x2="465.2739" y1="439" y2="525"/><line style="stroke:#0F172A;stroke-width:1;" x1="465.2739" x2="323.0366" y1="525" y2="525"/><polygon fill="#0F172A" points="333.0366,521,323.0366,525,333.0366,529,329.0366,525" style="stroke:#0F172A;stroke-width:1;"/><line style="stroke:#0F172A;stroke-width:1;" x1="311.0366" x2="311.0366" y1="351" y2="371"/><polygon fill="#0F172A" points="307.0366,361,311.0366,371,315.0366,361,311.0366,365" style="stroke:#0F172A;stroke-width:1;"/><line style="stroke:#0F172A;stroke-width:1;" x1="311.0366" x2="311.0366" y1="537" y2="557"/><polygon fill="#0F172A" points="307.0366,547,311.0366,557,315.0366,547,311.0366,551" style="stroke:#0F172A;stroke-width:1;"/><line style="stroke:#0F172A;stroke-width:1;" x1="311.0366" x2="311.0366" y1="661" y2="681"/><polygon fill="#0F172A" points="307.0366,671,311.0366,681,315.0366,671,311.0366,675" style="stroke:#0F172A;stroke-width:1;"/><line style="stroke:#0F172A;stroke-width:1;" x1="311.0366" x2="311.0366" y1="715" y2="735"/><polygon fill="#0F172A" points="307.0366,725,311.0366,735,315.0366,725,311.0366,729" style="stroke:#0F172A;stroke-width:1;"/><line style="stroke:#0F172A;stroke-width:1;" x1="311.0366" x2="311.0366" y1="797" y2="817"/><polygon fill="#0F172A" points="307.0366,807,311.0366,817,315.0366,807,311.0366,811" style="stroke:#0F172A;stroke-width:1;"/><line style="stroke:#0F172A;stroke-width:1;" x1="311.0366" x2="311.0366" y1="865" y2="885"/><polygon fill="#0F172A" points="307.0366,875,311.0366,885,315.0366,875,311.0366,879" style="stroke:#0F172A;stroke-width:1;"/><line style="stroke:#0F172A;stroke-width:1;" x1="311.0366" x2="311.0366" y1="919" y2="1098"/><polygon fill="#0F172A" points="307.0366,1088,311.0366,1098,315.0366,1088,311.0366,1092" style="stroke:#0F172A;stroke-width:1;"/><?plantuml-src bLPDR-Cs4BtpLmpGInQmx6IJxAOoWYArizcWGH8uc-PY8A35aSM68bMIikiM_UyTKhAjsDwYHGwAECFvUFFcoUvDwefRNe8hk31BgUUGS-MGkOrbnhEtkJMr5YEZZ8KVyep-HCT3OCvhvRyOxUzvYV0LrGAzpFXXdoVv9yB9MSV8hJNBDlfnVlBvO_UcDXv_tgiXpp-BJxjUnWgqhSVixFpq-CSTZv2-jP-UdfsSdtViCNnch4OB9v-ObruXN6LUBgHVGK8TB4pb1kFuc61bdFJ6hhfjh9t_Od00jekSvrcmTCjismN8jwLjpeJafT5YhtlyY1VvSSUX6_54dA6us1g_70ZiFBT-rnytyJT-CxuJzMyMhxBqAJmWjoPInwA0N9dbL3Sl0yez9qZSe7bFB6P6Pr9XiWQfxnRp8Kll31S4hPCXn2wsu2hCW6iH2lQrc-gOy9TwXZGcZuu2JD0PeXiyZ6wZ5y92ShX1lnTiANqnrNVIxPk8yoeCZE8zEmINyJmtIhmsCsyVjkClbKTBzMIcfDdx4hL_bQBNLh0iK8U2ng2CUQihC7QgPrABP46tQfTa5eEVHXGE55K4DhHHUsdqaCaSZa9RjSqGy0yokvy-W0z1ZrReFb2HbGZtA-uBoAXs1yt9RcFKpqtDhO2ozdn6VCubAaeffAiKNxtgiAw4Bm5hA5cYSRbsUT_Pa26f0XnfGzb7JVMTxCt9VdQYbCnfHhM6ofg599P2WQeA3q8c01XlNlhSjWttcrZh_djJtR6zS4aIOb-CVPlWxpKw_q93lIRvi5-f3KNwDTLKCV7hqcD9FLATWN56NuucrrVVhiV3gQuZLjsS3NhhdEGYKE5xbt4ysRYmzAggr0e2AH9U-y840ZkaVZnKHibiHOgZWsDpiu6hTkYWEVWEFotr5PVXUpGEN3f8OczWV7rtJJtIy7GkRSaRFgMFrlo6MI1P6xjPfxXPkTHSaIBRjkfGWUTI9pN1g98s4grm0qdSE4A-HZ3jK1qb8U1x476D_z5ob1Gtl0n9CKp5Wlg2bVF2irOlMeb8sV-I3DOH7jg8jVXidBSYJCsne1yojhVXNnBsd6wC9i_Z7Yo9KBt6DKAIL0rKr1Af4k50v2xGOf-DI4QjKOeYA4EitoPQ5mvS21QMEMctlf3QkzuxKaYaWmP9LhICZVd1LBJUj8KbXPxpolKPjrc1VbKXoR3FYfJOGDycucdWcLr8sjUIQpv7ox9DSGuwFHy4AF2G1QwjizamQT81iwJmhf1LdxNnq_QZnvogv-kNhGmo-lA9T4-rjuMdC5-NdEoMtE0zsD0ltR9pmFwLWims14p_2_tOHdUYDBiKMkrzd3pyUljq-t1_UtypREuYUtuSNtsB1qsgPg7eWBK2EeWwUO_BzBs63dRqaiLnXZccKGROK_j9WP9QeroSraUjXa4_52UP3mFfZ369KynbjfbEKpxCa2h0q5Lf0alxGMFZRvj_0000?></g></svg>