<?plantuml 1.2026.1?><svg xmlns="http://www.w3.org/2000/svg" xmlns:xlink="http://www.w3.org/1999/xlink" contentStyleType="text/css" data-diagram-type="ACTIVITY" height="2185px" preserveAspectRatio="none" style="width:1218px;height:2185px;background:#FCFCFD;" version="1.1" viewBox="0 0 1218 2185" width="1218px" zoomAndPan="magnify"><title>Activity - core/Ipv6</title><defs/><g><rect fill="#FCFCFD" height="2185" style="stroke:none;stroke-width:1;" width="1218" x="0" y="0"/><g class="title" data-source-line="10"><text fill="#000000" font-family="Helvetica" font-size="14" font-weight="bold" lengthAdjust="spacing" textLength="124.4893" x="545.3215" y="30.7803">Activity - core/Ipv6</text></g><ellipse cx="651.4729" cy="55" fill="#1D4ED8" rx="10" ry="10" style="stroke:#222222;stroke-width:1;"/><rect fill="none" height="430" rx="8" ry="8" style="stroke:#000000;stroke-width:1.5;" width="658.708" x="334.186" y="75"/><path d="M456.2544,75 L456.2544,82 L446.2544,92 L334.186,92" fill="none" style="stroke:#000000;stroke-width:1.5;"/><text fill="#000000" font-family="Helvetica" font-size="14" lengthAdjust="spacing" textLength="112.0684" x="337.186" y="86.7803">Observe and Bind</text><rect fill="#F8FAFC" height="48" rx="8" ry="8" style="stroke:#0F172A;stroke-width:0.5;" width="304.7852" x="499.0803" y="109"/><text fill="#0F172A" font-family="Helvetica" font-size="14" lengthAdjust="spacing" textLength="136.9375" x="509.0803" y="129.7803">Start from shared flow</text><text fill="#0F172A" font-family="Helvetica" font-size="14" lengthAdjust="spacing" textLength="284.7852" x="509.0803" y="143.7803">shared/diagrams/shared-reconcile-activity.svg</text><rect fill="#F8FAFC" height="48" rx="8" ry="8" style="stroke:#0F172A;stroke-width:0.5;" width="293.1572" x="504.8943" y="177"/><text fill="#0F172A" font-family="Helvetica" font-size="14" lengthAdjust="spacing" textLength="273.1572" x="514.8943" y="197.7803">Read desired Ipv6 spec, tracked status, and</text><text fill="#0F172A" font-family="Helvetica" font-size="14" lengthAdjust="spacing" textLength="76.2822" x="514.8943" y="211.7803">delete intent</text><polygon fill="#E2E8F0" points="522.0071,245,780.9387,245,792.9387,257,780.9387,269,522.0071,269,510.0071,257,522.0071,245" style="stroke:#1D4ED8;stroke-width:0.5;"/><text fill="#0F172A" font-family="Helvetica" font-size="14" lengthAdjust="spacing" textLength="258.9316" x="522.0071" y="260.7803">"Tracked or explicit OCI identity present?"</text><text fill="#000000" font-family="Helvetica" font-size="14" lengthAdjust="spacing" textLength="21.7861" x="488.2209" y="253.7803">yes</text><text fill="#000000" font-family="Helvetica" font-size="14" lengthAdjust="spacing" textLength="15.5723" x="792.9387" y="253.7803">no</text><rect fill="#F8FAFC" height="34" rx="8" ry="8" style="stroke:#0F172A;stroke-width:0.5;" width="275.2197" x="354.186" y="279"/><text fill="#0F172A" font-family="Helvetica" font-size="14" lengthAdjust="spacing" textLength="255.2197" x="364.186" y="299.7803">Get the current OCI resource via GetIpv6</text><rect fill="#F8FAFC" height="48" rx="8" ry="8" style="stroke:#0F172A;stroke-width:0.5;" width="285.3438" x="668.478" y="279"/><text fill="#0F172A" font-family="Helvetica" font-size="14" lengthAdjust="spacing" textLength="259.9092" x="678.478" y="299.7803">Resolve an existing OCI resource through</text><text fill="#0F172A" font-family="Helvetica" font-size="14" lengthAdjust="spacing" textLength="265.3438" x="678.478" y="313.7803">ListIpv6 using filters compartment_id, state</text><rect fill="#F8FAFC" height="48" rx="8" ry="8" style="stroke:#0F172A;stroke-width:0.5;" width="323.4883" x="649.4058" y="347"/><text fill="#0F172A" font-family="Helvetica" font-size="14" lengthAdjust="spacing" textLength="303.4883" x="659.4058" y="367.7803">Create the OCI resource via CreateIpv6 when no</text><text fill="#0F172A" font-family="Helvetica" font-size="14" lengthAdjust="spacing" textLength="148.6406" x="659.4058" y="381.7803">reusable match is found</text><rect fill="#F8FAFC" height="48" rx="8" ry="8" style="stroke:#0F172A;stroke-width:0.5;" width="286.8955" x="667.7021" y="415"/><text fill="#0F172A" font-family="Helvetica" font-size="14" lengthAdjust="spacing" textLength="266.8955" x="677.7021" y="435.7803">Persist the resolved or created OCI identity</text><text fill="#0F172A" font-family="Helvetica" font-size="14" lengthAdjust="spacing" textLength="63.8135" x="677.7021" y="449.7803">into status</text><polygon fill="#E2E8F0" points="651.4729,469,663.4729,481,651.4729,493,639.4729,481,651.4729,469" style="stroke:#1D4ED8;stroke-width:0.5;"/><polygon fill="#E2E8F0" points="589.2966,525,713.6492,525,725.6492,537,713.6492,549,589.2966,549,577.2966,537,589.2966,525" style="stroke:#1D4ED8;stroke-width:0.5;"/><text fill="#0F172A" font-family="Helvetica" font-size="14" lengthAdjust="spacing" textLength="124.3525" x="589.2966" y="540.7803">"Delete requested?"</text><text fill="#000000" font-family="Helvetica" font-size="14" lengthAdjust="spacing" textLength="21.7861" x="555.5105" y="533.7803">yes</text><text fill="#000000" font-family="Helvetica" font-size="14" lengthAdjust="spacing" textLength="15.5723" x="725.6492" y="533.7803">no</text><rect fill="none" height="332" rx="8" ry="8" style="stroke:#000000;stroke-width:1.5;" width="644.4814" x="11" y="559"/><path d="M61.4688,559 L61.4688,566 L51.4688,576 L11,576" fill="none" style="stroke:#000000;stroke-width:1.5;"/><text fill="#000000" font-family="Helvetica" font-size="14" lengthAdjust="spacing" textLength="40.4688" x="14" y="570.7803">Delete</text><rect fill="#F8FAFC" height="48" rx="8" ry="8" style="stroke:#0F172A;stroke-width:0.5;" width="301.7158" x="188.8862" y="593"/><text fill="#0F172A" font-family="Helvetica" font-size="14" lengthAdjust="spacing" textLength="281.7158" x="198.8862" y="613.7803">Delete path uses DeleteIpv6 with required via</text><text fill="#0F172A" font-family="Helvetica" font-size="14" lengthAdjust="spacing" textLength="281.6748" x="198.8862" y="627.7803">GetIpv6 or ListIpv6 to DELETED confirmation</text><rect fill="#F8FAFC" height="48" rx="8" ry="8" style="stroke:#0F172A;stroke-width:0.5;" width="294.6885" x="192.3999" y="676"/><text fill="#0F172A" font-family="Helvetica" font-size="14" lengthAdjust="spacing" textLength="274.6885" x="202.3999" y="696.7803">Confirm deletion via GetIpv6 or ListIpv6 until</text><text fill="#0F172A" font-family="Helvetica" font-size="14" lengthAdjust="spacing" textLength="147.0479" x="202.3999" y="710.7803">OCI reaches DELETED</text><polygon fill="#E2E8F0" points="191.5718,759,487.9165,759,499.9165,771,487.9165,783,191.5718,783,179.5718,771,191.5718,759" style="stroke:#1D4ED8;stroke-width:0.5;"/><text fill="#0F172A" font-family="Helvetica" font-size="14" lengthAdjust="spacing" textLength="296.3447" x="191.5718" y="774.7803">"Delete cleanup and finalizer release succeed?"</text><text fill="#000000" font-family="Helvetica" font-size="14" lengthAdjust="spacing" textLength="21.7861" x="157.7856" y="767.7803">yes</text><text fill="#000000" font-family="Helvetica" font-size="14" lengthAdjust="spacing" textLength="15.5723" x="499.9165" y="767.7803">no</text><rect fill="#F8FAFC" height="34" rx="8" ry="8" style="stroke:#0F172A;stroke-width:0.5;" width="293.1436" x="23" y="793"/><text fill="#0F172A" font-family="Helvetica" font-size="14" lengthAdjust="spacing" textLength="273.1436" x="33" y="813.7803">Remove the finalizer after delete completion</text><rect fill="#F8FAFC" height="48" rx="8" ry="8" style="stroke:#0F172A;stroke-width:0.5;" width="251.1299" x="384.3516" y="793"/><text fill="#0F172A" font-family="Helvetica" font-size="14" lengthAdjust="spacing" textLength="231.1299" x="394.3516" y="813.7803">Stay blocked until cleanup or finalizer</text><text fill="#0F172A" font-family="Helvetica" font-size="14" lengthAdjust="spacing" textLength="108.9512" x="394.3516" y="827.7803">release succeeds</text><polygon fill="#E2E8F0" points="339.7441,847,351.7441,859,339.7441,871,327.7441,859,339.7441,847" style="stroke:#1D4ED8;stroke-width:0.5;"/><ellipse cx="339.7441" cy="937" fill="none" rx="11" ry="11" style="stroke:#222222;stroke-width:1;"/><ellipse cx="339.7441" cy="937" fill="#222222" rx="6" ry="6" style="stroke:#222222;stroke-width:1;"/><rect fill="none" height="442" rx="8" ry="8" style="stroke:#000000;stroke-width:1.5;" width="345.916" x="796.2437" y="559"/><path d="M947.0776,559 L947.0776,566 L937.0776,576 L796.2437,576" fill="none" style="stroke:#000000;stroke-width:1.5;"/><text fill="#000000" font-family="Helvetica" font-size="14" lengthAdjust="spacing" textLength="140.834" x="799.2437" y="570.7803">Lifecycle Classification</text><rect fill="#F8FAFC" height="48" rx="8" ry="8" style="stroke:#0F172A;stroke-width:0.5;" width="280.5928" x="822.9053" y="642"/><text fill="#0F172A" font-family="Helvetica" font-size="14" lengthAdjust="spacing" textLength="240.4541" x="832.9053" y="662.7803">Request requeue while OCI remains in</text><text fill="#0F172A" font-family="Helvetica" font-size="14" lengthAdjust="spacing" textLength="260.5928" x="832.9053" y="676.7803">PROVISIONING, UPDATING, DELETING</text><ellipse cx="963.2017" cy="736" fill="none" rx="11" ry="11" style="stroke:#222222;stroke-width:1;"/><ellipse cx="963.2017" cy="736" fill="#222222" rx="6" ry="6" style="stroke:#222222;stroke-width:1;"/><polygon fill="#E2E8F0" points="876.9185,593,1049.4849,593,1061.4849,605,1049.4849,617,876.9185,617,864.9185,605,876.9185,593" style="stroke:#1D4ED8;stroke-width:0.5;"/><text fill="#000000" font-family="Helvetica" font-size="14" lengthAdjust="spacing" textLength="21.7861" x="967.2017" y="627.7803">yes</text><text fill="#0F172A" font-family="Helvetica" font-size="14" lengthAdjust="spacing" textLength="172.5664" x="876.9185" y="608.7803">"OCI state in retryable set?"</text><rect fill="#F8FAFC" height="48" rx="8" ry="8" style="stroke:#0F172A;stroke-width:0.5;" width="293.916" x="816.2437" y="862"/><text fill="#0F172A" font-family="Helvetica" font-size="14" lengthAdjust="spacing" textLength="273.916" x="826.2437" y="882.7803">Return an unsuccessful reconcile result until</text><text fill="#0F172A" font-family="Helvetica" font-size="14" lengthAdjust="spacing" textLength="133.041" x="826.2437" y="896.7803">OCI reaches ACTIVE</text><ellipse cx="963.2017" cy="956" fill="none" rx="11" ry="11" style="stroke:#222222;stroke-width:1;"/><ellipse cx="963.2017" cy="956" fill="#222222" rx="6" ry="6" style="stroke:#222222;stroke-width:1;"/><polygon fill="#E2E8F0" points="842.6807,813,1083.7227,813,1095.7227,825,1083.7227,837,842.6807,837,830.6807,825,842.6807,813" style="stroke:#1D4ED8;stroke-width:0.5;"/><text fill="#000000" font-family="Helvetica" font-size="14" lengthAdjust="spacing" textLength="21.7861" x="967.2017" y="847.7803">yes</text><text fill="#0F172A" font-family="Helvetica" font-size="14" lengthAdjust="spacing" textLength="241.042" x="842.6807" y="828.7803">"OCI state is outside success targets?"</text><rect fill="none" height="722.5" rx="8" ry="8" style="stroke:#000000;stroke-width:1.5;" width="531.6509" x="675.4814" y="1011"/><path d="M841.9014,1011 L841.9014,1018 L831.9014,1028 L675.4814,1028" fill="none" style="stroke:#000000;stroke-width:1.5;"/><text fill="#000000" font-family="Helvetica" font-size="14" lengthAdjust="spacing" textLength="156.4199" x="678.4814" y="1022.7803">Ready and Drift Handling</text><rect fill="#F8FAFC" height="48" rx="8" ry="8" style="stroke:#0F172A;stroke-width:0.5;" width="296.2402" x="815.0815" y="1045"/><text fill="#0F172A" font-family="Helvetica" font-size="14" lengthAdjust="spacing" textLength="276.2402" x="825.0815" y="1065.7803">Compare live OCI state against the imported</text><text fill="#0F172A" font-family="Helvetica" font-size="14" lengthAdjust="spacing" textLength="75.4824" x="825.0815" y="1079.7803">field surface</text><rect fill="#F8FAFC" height="48" rx="8" ry="8" style="stroke:#0F172A;stroke-width:0.5;" width="302.4473" x="811.978" y="1162"/><text fill="#0F172A" font-family="Helvetica" font-size="14" lengthAdjust="spacing" textLength="282.4473" x="821.978" y="1182.7803">Reject drift before OCI mutation for force-new</text><text fill="#0F172A" font-family="Helvetica" font-size="14" lengthAdjust="spacing" textLength="136.9512" x="821.978" y="1196.7803">fields compartment_id</text><ellipse cx="963.2017" cy="1242.5" fill="none" rx="11" ry="11" style="stroke:#222222;stroke-width:1;"/><ellipse cx="963.2017" cy="1242.5" fill="#222222" rx="6" ry="6" style="stroke:#222222;stroke-width:1;"/><polygon fill="#E2E8F0" points="837.6187,1113,1088.7847,1113,1100.7847,1125,1088.7847,1137,837.6187,1137,825.6187,1125,837.6187,1113" style="stroke:#1D4ED8;stroke-width:0.5;"/><text fill="#000000" font-family="Helvetica" font-size="14" lengthAdjust="spacing" textLength="21.7861" x="967.2017" y="1147.7803">yes</text><text fill="#0F172A" font-family="Helvetica" font-size="14" lengthAdjust="spacing" textLength="251.166" x="837.6187" y="1128.7803">"Force-new or conflicting drift detected?"</text><polygon fill="#E2E8F0" points="852.7739,1295.5,1073.6294,1295.5,1085.6294,1307.5,1073.6294,1319.5,852.7739,1319.5,840.7739,1307.5,852.7739,1295.5" style="stroke:#1D4ED8;stroke-width:0.5;"/><text fill="#0F172A" font-family="Helvetica" font-size="14" lengthAdjust="spacing" textLength="220.8555" x="852.7739" y="1311.2803">"Supported mutable drift detected?"</text><text fill="#000000" font-family="Helvetica" font-size="14" lengthAdjust="spacing" textLength="21.7861" x="818.9878" y="1304.2803">yes</text><text fill="#000000" font-family="Helvetica" font-size="14" lengthAdjust="spacing" textLength="15.5723" x="1085.6294" y="1304.2803">no</text><rect fill="#F8FAFC" height="48" rx="8" ry="8" style="stroke:#0F172A;stroke-width:0.5;" width="270.585" x="695.4814" y="1329.5"/><text fill="#0F172A" font-family="Helvetica" font-size="14" lengthAdjust="spacing" textLength="250.585" x="705.4814" y="1350.2803">Apply UpdateIpv6 only for mutable fields</text><text fill="#0F172A" font-family="Helvetica" font-size="14" lengthAdjust="spacing" textLength="86.3857" x="705.4814" y="1364.2803">display_name</text><rect fill="#F8FAFC" height="34" rx="8" ry="8" style="stroke:#0F172A;stroke-width:0.5;" width="199.0059" x="996.1265" y="1329.5"/><text fill="#0F172A" font-family="Helvetica" font-size="14" lengthAdjust="spacing" textLength="179.0059" x="1006.1265" y="1350.2803">Skip the no-op mutation path</text><polygon fill="#E2E8F0" points="963.2017,1383.5,975.2017,1395.5,963.2017,1407.5,951.2017,1395.5,963.2017,1383.5" style="stroke:#1D4ED8;stroke-width:0.5;"/><rect fill="#F8FAFC" height="118" rx="8" ry="8" style="stroke:#0F172A;stroke-width:0.5;" width="334.3164" x="796.0435" y="1427.5"/><text fill="#0F172A" font-family="Helvetica" font-size="14" lengthAdjust="spacing" textLength="164.2061" x="806.0435" y="1448.2803">Run provider helper hooks</text><text fill="#0F172A" font-family="Helvetica" font-size="14" lengthAdjust="spacing" textLength="219.0508" x="806.0435" y="1462.2803">create=tfresource.CreateResource,</text><text fill="#0F172A" font-family="Helvetica" font-size="14" lengthAdjust="spacing" textLength="314.3164" x="806.0435" y="1476.2803">tfresource.WaitForWorkRequestWithErrorHandling</text><text fill="#0F172A" font-family="Helvetica" font-size="14" lengthAdjust="spacing" textLength="215.5439" x="806.0435" y="1490.2803">entity=template action=CREATED;</text><text fill="#0F172A" font-family="Helvetica" font-size="14" lengthAdjust="spacing" textLength="226.085" x="806.0435" y="1504.2803">update=tfresource.UpdateResource;</text><text fill="#0F172A" font-family="Helvetica" font-size="14" lengthAdjust="spacing" textLength="273.5537" x="806.0435" y="1518.2803">delete=tfresource.DeleteResource when the</text><text fill="#0F172A" font-family="Helvetica" font-size="14" lengthAdjust="spacing" textLength="220.2334" x="806.0435" y="1532.2803">matching field-driven path executes</text><rect fill="#F8FAFC" height="34" rx="8" ry="8" style="stroke:#0F172A;stroke-width:0.5;" width="303.2197" x="811.5918" y="1565.5"/><text fill="#0F172A" font-family="Helvetica" font-size="14" lengthAdjust="spacing" textLength="283.2197" x="821.5918" y="1586.2803">Return success for the ACTIVE success state</text><rect fill="#F8FAFC" height="48" rx="8" ry="8" style="stroke:#0F172A;stroke-width:0.5;" width="279.1299" x="823.6367" y="1619.5"/><text fill="#0F172A" font-family="Helvetica" font-size="14" lengthAdjust="spacing" textLength="259.1299" x="833.6367" y="1640.2803">Project required status and finalizer policy</text><text fill="#0F172A" font-family="Helvetica" font-size="14" lengthAdjust="spacing" textLength="174.3027" x="833.6367" y="1654.2803">retain-until-confirmed-delete</text><rect fill="#F8FAFC" height="34" rx="8" ry="8" style="stroke:#0F172A;stroke-width:0.5;" width="313.4189" x="806.4922" y="1687.5"/><text fill="#0F172A" font-family="Helvetica" font-size="14" lengthAdjust="spacing" textLength="293.4189" x="816.4922" y="1708.2803">Requeue on provisioning, updating, terminating</text><path d="M682.4729,1743.5 L682.4729,1954.5 L662.4729,1958.5 L682.4729,1962.5 L682.4729,2173.5 A0,0 0 0 0 682.4729,2173.5 L999.1545,2173.5 A0,0 0 0 0 999.1545,2173.5 L999.1545,1753.5 L989.1545,1743.5 L682.4729,1743.5 A0,0 0 0 0 682.4729,1743.5" fill="#FFF7D6" style="stroke:#B45309;stroke-width:0.5;"/><path d="M989.1545,1743.5 L989.1545,1753.5 L999.1545,1753.5 L989.1545,1743.5" fill="#FFF7D6" style="stroke:#B45309;stroke-width:0.5;"/><text fill="#334155" font-family="Helvetica" font-size="14" lengthAdjust="spacing" textLength="101.165" x="688.4729" y="1759.2803">shared diagram:</text><text fill="#334155" font-family="Helvetica" font-size="14" lengthAdjust="spacing" textLength="284.7852" x="688.4729" y="1773.2803">shared/diagrams/shared-reconcile-activity.svg</text><text fill="#334155" font-family="Helvetica" font-size="14" lengthAdjust="spacing" textLength="265.3438" x="688.4729" y="1787.2803">Start from the shared reconcile activity and</text><text fill="#334155" font-family="Helvetica" font-size="14" lengthAdjust="spacing" textLength="273.8955" x="688.4729" y="1801.2803">specialize provider-backed CRUD, wait, and</text><text fill="#334155" font-family="Helvetica" font-size="14" lengthAdjust="spacing" textLength="182.875" x="688.4729" y="1815.2803">status-projection details here.</text><text fill="#334155" font-family="Helvetica" font-size="14" lengthAdjust="spacing" textLength="229.5371" x="688.4729" y="1829.2803">Controller-local activity diagrams add</text><text fill="#334155" font-family="Helvetica" font-size="14" lengthAdjust="spacing" textLength="238.8955" x="688.4729" y="1843.2803">list-lookup hints, secret policies, delete</text><text fill="#334155" font-family="Helvetica" font-size="14" lengthAdjust="spacing" textLength="200.0332" x="688.4729" y="1857.2803">handling, and open formal gaps.</text><text fill="#334155" font-family="Helvetica" font-size="14" lengthAdjust="spacing" textLength="281.709" x="688.4729" y="1871.2803">archetype batch: Generated service-manager</text><text fill="#334155" font-family="Helvetica" font-size="14" lengthAdjust="spacing" textLength="291.0469" x="688.4729" y="1885.2803">controllers specialize the shared reconcile path</text><text fill="#334155" font-family="Helvetica" font-size="14" lengthAdjust="spacing" textLength="189.8477" x="688.4729" y="1899.2803">with formal runtime ownership.</text><text fill="#334155" font-family="Helvetica" font-size="14" lengthAdjust="spacing" textLength="79.3584" x="688.4729" y="1913.2803">service: core</text><text fill="#334155" font-family="Helvetica" font-size="14" lengthAdjust="spacing" textLength="59.1445" x="688.4729" y="1927.2803">slug: ipv6</text><text fill="#334155" font-family="Helvetica" font-size="14" lengthAdjust="spacing" textLength="59.9238" x="688.4729" y="1941.2803">kind: Ipv6</text><text fill="#334155" font-family="Helvetica" font-size="14" lengthAdjust="spacing" textLength="241.2402" x="688.4729" y="1955.2803">archetype: generated-service-manager</text><text fill="#334155" font-family="Helvetica" font-size="14" lengthAdjust="spacing" textLength="156.4063" x="688.4729" y="1969.2803">status/finalizer: required /</text><text fill="#334155" font-family="Helvetica" font-size="14" lengthAdjust="spacing" textLength="174.3027" x="688.4729" y="1983.2803">retain-until-confirmed-delete</text><text fill="#334155" font-family="Helvetica" font-size="14" lengthAdjust="spacing" textLength="272.3984" x="688.4729" y="1997.2803">requeue: provisioning, updating, terminating</text><text fill="#334155" font-family="Helvetica" font-size="14" lengthAdjust="spacing" textLength="295.6816" x="688.4729" y="2011.2803">provider states: create PROVISIONING; update</text><text fill="#334155" font-family="Helvetica" font-size="14" lengthAdjust="spacing" textLength="192.165" x="688.4729" y="2025.2803">UPDATING; delete DELETING</text><text fill="#334155" font-family="Helvetica" font-size="14" lengthAdjust="spacing" textLength="183.6611" x="688.4729" y="2039.2803">supported drift: display_name</text><text fill="#334155" font-family="Helvetica" font-size="14" lengthAdjust="spacing" textLength="230.3301" x="688.4729" y="2053.2803">reject before mutate: force-new fields</text><text fill="#334155" font-family="Helvetica" font-size="14" lengthAdjust="spacing" textLength="100.3789" x="688.4729" y="2067.2803">compartment_id</text><text fill="#334155" font-family="Helvetica" font-size="14" lengthAdjust="spacing" textLength="224.1094" x="688.4729" y="2081.2803">list lookup: scaffold_core_ipv6 filters</text><text fill="#334155" font-family="Helvetica" font-size="14" lengthAdjust="spacing" textLength="138.5098" x="688.4729" y="2095.2803">compartment_id, state</text><text fill="#334155" font-family="Helvetica" font-size="14" lengthAdjust="spacing" textLength="89.4961" x="688.4729" y="2109.2803">conflicts: none</text><text fill="#334155" font-family="Helvetica" font-size="14" lengthAdjust="spacing" textLength="104.3164" x="688.4729" y="2123.2803">open gaps: none</text><text fill="#334155" font-family="Helvetica" font-size="14" lengthAdjust="spacing" textLength="224.9023" x="688.4729" y="2137.2803">Scaffold metadata only; replace with</text><text fill="#334155" font-family="Helvetica" font-size="14" lengthAdjust="spacing" textLength="244.3232" x="688.4729" y="2151.2803">controller-specific runtime states before</text><text fill="#334155" font-family="Helvetica" font-size="14" lengthAdjust="spacing" textLength="66.1445" x="688.4729" y="2165.2803">promotion.</text><ellipse cx="651.4729" cy="1958.5" fill="none" rx="11" ry="11" style="stroke:#222222;stroke-width:1;"/><ellipse cx="651.4729" cy="1958.5" fill="#222222" rx="6" ry="6" style="stroke:#222222;stroke-width:1;"/><line style="stroke:#0F172A;stroke-width:1;" x1="651.4729" x2="651.4729" y1="157" y2="177"/><polygon fill="#0F172A" points="647.4729,167,651.4729,177,655.4729,167,651.4729,171" style="stroke:#0F172A;stroke-width:1;"/><line style="stroke:#0F172A;stroke-width:1;" x1="811.1499" x2="811.1499" y1="327" y2="347"/><polygon fill="#0F172A" points="807.1499,337,811.1499,347,815.1499,337,811.1499,341" style="stroke:#0F172A;stroke-width:1;"/><line style="stroke:#0F172A;stroke-width:1;" x1="811.1499" x2="811.1499" y1="395" y2="415"/><polygon fill="#0F172A" points="807.1499,405,811.1499,415,815.1499,405,811.1499,409" style="stroke:#0F172A;stroke-width:1;"/><line style="stroke:#0F172A;stroke-width:1;" x1="510.0071" x2="491.7959" y1="257" y2="257"/><line style="stroke:#0F172A;stroke-width:1;" x1="491.7959" x2="491.7959" y1="257" y2="279"/><polygon fill="#0F172A" points="487.7959,269,491.7959,279,495.7959,269,491.7959,273" style="stroke:#0F172A;stroke-width:1;"/><line style="stroke:#0F172A;stroke-width:1;" x1="792.9387" x2="811.1499" y1="257" y2="257"/><line style="stroke:#0F172A;stroke-width:1;" x1="811.1499" x2="811.1499" y1="257" y2="279"/><polygon fill="#0F172A" points="807.1499,269,811.1499,279,815.1499,269,811.1499,273" style="stroke:#0F172A;stroke-width:1;"/><line style="stroke:#0F172A;stroke-width:1;" x1="491.7959" x2="491.7959" y1="313" y2="481"/><line style="stroke:#0F172A;stroke-width:1;" x1="491.7959" x2="639.4729" y1="481" y2="481"/><polygon fill="#0F172A" points="629.4729,477,639.4729,481,629.4729,485,633.4729,481" style="stroke:#0F172A;stroke-width:1;"/><line style="stroke:#0F172A;stroke-width:1;" x1="811.1499" x2="811.1499" y1="463" y2="481"/><line style="stroke:#0F172A;stroke-width:1;" x1="811.1499" x2="663.4729" y1="481" y2="481"/><polygon fill="#0F172A" points="673.4729,477,663.4729,481,673.4729,485,669.4729,481" style="stroke:#0F172A;stroke-width:1;"/><line style="stroke:#0F172A;stroke-width:1;" x1="651.4729" x2="651.4729" y1="225" y2="245"/><polygon fill="#0F172A" points="647.4729,235,651.4729,245,655.4729,235,651.4729,239" style="stroke:#0F172A;stroke-width:1;"/><line style="stroke:#0F172A;stroke-width:1;" x1="651.4729" x2="651.4729" y1="65" y2="109"/><polygon fill="#0F172A" points="647.4729,99,651.4729,109,655.4729,99,651.4729,103" style="stroke:#0F172A;stroke-width:1;"/><line style="stroke:#0F172A;stroke-width:1;" x1="339.7441" x2="339.7441" y1="641" y2="676"/><polygon fill="#0F172A" points="335.7441,666,339.7441,676,343.7441,666,339.7441,670" style="stroke:#0F172A;stroke-width:1;"/><line style="stroke:#0F172A;stroke-width:1;" x1="179.5718" x2="169.5718" y1="771" y2="771"/><line style="stroke:#0F172A;stroke-width:1;" x1="169.5718" x2="169.5718" y1="771" y2="793"/><polygon fill="#0F172A" points="165.5718,783,169.5718,793,173.5718,783,169.5718,787" style="stroke:#0F172A;stroke-width:1;"/><line style="stroke:#0F172A;stroke-width:1;" x1="499.9165" x2="509.9165" y1="771" y2="771"/><line style="stroke:#0F172A;stroke-width:1;" x1="509.9165" x2="509.9165" y1="771" y2="793"/><polygon fill="#0F172A" points="505.9165,783,509.9165,793,513.9165,783,509.9165,787" style="stroke:#0F172A;stroke-width:1;"/><line style="stroke:#0F172A;stroke-width:1;" x1="169.5718" x2="169.5718" y1="827" y2="859"/><line style="stroke:#0F172A;stroke-width:1;" x1="169.5718" x2="327.7441" y1="859" y2="859"/><polygon fill="#0F172A" points="317.7441,855,327.7441,859,317.7441,863,321.7441,859" style="stroke:#0F172A;stroke-width:1;"/><line style="stroke:#0F172A;stroke-width:1;" x1="509.9165" x2="509.9165" y1="841" y2="859"/><line style="stroke:#0F172A;stroke-width:1;" x1="509.9165" x2="351.7441" y1="859" y2="859"/><polygon fill="#0F172A" points="361.7441,855,351.7441,859,361.7441,863,357.7441,859" style="stroke:#0F172A;stroke-width:1;"/><line style="stroke:#0F172A;stroke-width:1;" x1="339.7441" x2="339.7441" y1="724" y2="759"/><polygon fill="#0F172A" points="335.7441,749,339.7441,759,343.7441,749,339.7441,753" style="stroke:#0F172A;stroke-width:1;"/><line style="stroke:#0F172A;stroke-width:1;" x1="339.7441" x2="339.7441" y1="871" y2="926"/><polygon fill="#0F172A" points="335.7441,916,339.7441,926,343.7441,916,339.7441,920" style="stroke:#0F172A;stroke-width:1;"/><line style="stroke:#0F172A;stroke-width:1;" x1="963.2017" x2="963.2017" y1="690" y2="725"/><polygon fill="#0F172A" points="959.2017,715,963.2017,725,967.2017,715,963.2017,719" style="stroke:#0F172A;stroke-width:1;"/><line style="stroke:#0F172A;stroke-width:1;" x1="963.2017" x2="963.2017" y1="617" y2="642"/><polygon fill="#0F172A" points="959.2017,632,963.2017,642,967.2017,632,963.2017,636" style="stroke:#0F172A;stroke-width:1;"/><line style="stroke:#0F172A;stroke-width:1;" x1="1061.4849" x2="1113.498" y1="605" y2="605"/><polygon fill="#0F172A" points="1109.498,681.5,1113.498,691.5,1117.498,681.5,1113.498,685.5" style="stroke:#0F172A;stroke-width:1;"/><line style="stroke:#0F172A;stroke-width:1;" x1="1113.498" x2="1113.498" y1="605" y2="778"/><line style="stroke:#0F172A;stroke-width:1;" x1="1113.498" x2="963.2017" y1="778" y2="778"/><line style="stroke:#0F172A;stroke-width:1;" x1="963.2017" x2="963.2017" y1="778" y2="813"/><polygon fill="#0F172A" points="959.2017,803,963.2017,813,967.2017,803,963.2017,807" style="stroke:#0F172A;stroke-width:1;"/><line style="stroke:#0F172A;stroke-width:1;" x1="963.2017" x2="963.2017" y1="910" y2="945"/><polygon fill="#0F172A" points="959.2017,935,963.2017,945,967.2017,935,963.2017,939" style="stroke:#0F172A;stroke-width:1;"/><line style="stroke:#0F172A;stroke-width:1;" x1="963.2017" x2="963.2017" y1="837" y2="862"/><polygon fill="#0F172A" points="959.2017,852,963.2017,862,967.2017,852,963.2017,856" style="stroke:#0F172A;stroke-width:1;"/><line style="stroke:#0F172A;stroke-width:1;" x1="1095.7227" x2="1120.1597" y1="825" y2="825"/><polygon fill="#0F172A" points="1116.1597,901.5,1120.1597,911.5,1124.1597,901.5,1120.1597,905.5" style="stroke:#0F172A;stroke-width:1;"/><line style="stroke:#0F172A;stroke-width:1;" x1="1120.1597" x2="1120.1597" y1="825" y2="989"/><line style="stroke:#0F172A;stroke-width:1;" x1="1120.1597" x2="963.2017" y1="989" y2="989"/><line style="stroke:#0F172A;stroke-width:1;" x1="963.2017" x2="963.2017" y1="989" y2="1045"/><polygon fill="#0F172A" points="959.2017,1035,963.2017,1045,967.2017,1035,963.2017,1039" style="stroke:#0F172A;stroke-width:1;"/><line style="stroke:#0F172A;stroke-width:1;" x1="963.2017" x2="963.2017" y1="1210" y2="1231.5"/><polygon fill="#0F172A" points="959.2017,1221.5,963.2017,1231.5,967.2017,1221.5,963.2017,1225.5" style="stroke:#0F172A;stroke-width:1;"/><line style="stroke:#0F172A;stroke-width:1;" x1="963.2017" x2="963.2017" y1="1137" y2="1162"/><polygon fill="#0F172A" points="959.2017,1152,963.2017,1162,967.2017,1152,963.2017,1156" style="stroke:#0F172A;stroke-width:1;"/><line style="stroke:#0F172A;stroke-width:1;" x1="1100.7847" x2="1124.4253" y1="1125" y2="1125"/><polygon fill="#0F172A" points="1120.4253,1201.5,1124.4253,1211.5,1128.4253,1201.5,1124.4253,1205.5" style="stroke:#0F172A;stroke-width:1;"/><line style="stroke:#0F172A;stroke-width:1;" x1="1124.4253" x2="1124.4253" y1="1125" y2="1275.5"/><line style="stroke:#0F172A;stroke-width:1;" x1="1124.4253" x2="963.2017" y1="1275.5" y2="1275.5"/><line style="stroke:#0F172A;stroke-width:1;" x1="963.2017" x2="963.2017" y1="1275.5" y2="1295.5"/><polygon fill="#0F172A" points="959.2017,1285.5,963.2017,1295.5,967.2017,1285.5,963.2017,1289.5" style="stroke:#0F172A;stroke-width:1;"/><line style="stroke:#0F172A;stroke-width:1;" x1="963.2017" x2="963.2017" y1="1093" y2="1113"/><polygon fill="#0F172A" points="959.2017,1103,963.2017,1113,967.2017,1103,963.2017,1107" style="stroke:#0F172A;stroke-width:1;"/><line style="stroke:#0F172A;stroke-width:1;" x1="840.7739" x2="830.7739" y1="1307.5" y2="1307.5"/><line style="stroke:#0F172A;stroke-width:1;" x1="830.7739" x2="830.7739" y1="1307.5" y2="1329.5"/><polygon fill="#0F172A" points="826.7739,1319.5,830.7739,1329.5,834.7739,1319.5,830.7739,1323.5" style="stroke:#0F172A;stroke-width:1;"/><line style="stroke:#0F172A;stroke-width:1;" x1="1085.6294" x2="1095.6294" y1="1307.5" y2="1307.5"/><line style="stroke:#0F172A;stroke-width:1;" x1="1095.6294" x2="1095.6294" y1="1307.5" y2="1329.5"/><polygon fill="#0F172A" points="1091.6294,1319.5,1095.6294,1329.5,1099.6294,1319.5,1095.6294,1323.5" style="stroke:#0F172A;stroke-width:1;"/><line style="stroke:#0F172A;stroke-width:1;" x1="830.7739" x2="830.7739" y1="1377.5" y2="1395.5"/><line style="stroke:#0F172A;stroke-width:1;" x1="830.7739" x2="951.2017" y1="1395.5" y2="1395.5"/><polygon fill="#0F172A" points="941.2017,1391.5,951.2017,1395.5,941.2017,1399.5,945.2017,1395.5" style="stroke:#0F172A;stroke-width:1;"/><line style="stroke:#0F172A;stroke-width:1;" x1="1095.6294" x2="1095.6294" y1="1363.5" y2="1395.5"/><line style="stroke:#0F172A;stroke-width:1;" x1="1095.6294" x2="975.2017" y1="1395.5" y2="1395.5"/><polygon fill="#0F172A" points="985.2017,1391.5,975.2017,1395.5,985.2017,1399.5,981.2017,1395.5" style="stroke:#0F172A;stroke-width:1;"/><line style="stroke:#0F172A;stroke-width:1;" x1="963.2017" x2="963.2017" y1="1407.5" y2="1427.5"/><polygon fill="#0F172A" points="959.2017,1417.5,963.2017,1427.5,967.2017,1417.5,963.2017,1421.5" style="stroke:#0F172A;stroke-width:1;"/><line style="stroke:#0F172A;stroke-width:1;" x1="963.2017" x2="963.2017" y1="1545.5" y2="1565.5"/><polygon fill="#0F172A" points="959.2017,1555.5,963.2017,1565.5,967.2017,1555.5,963.2017,1559.5" style="stroke:#0F172A;stroke-width:1;"/><line style="stroke:#0F172A;stroke-width:1;" x1="963.2017" x2="963.2017" y1="1599.5" y2="1619.5"/><polygon fill="#0F172A" points="959.2017,1609.5,963.2017,1619.5,967.2017,1609.5,963.2017,1613.5" style="stroke:#0F172A;stroke-width:1;"/><line style="stroke:#0F172A;stroke-width:1;" x1="963.2017" x2="963.2017" y1="1667.5" y2="1687.5"/><polygon fill="#0F172A" points="959.2017,1677.5,963.2017,1687.5,967.2017,1677.5,963.2017,1681.5" style="stroke:#0F172A;stroke-width:1;"/><line style="stroke:#0F172A;stroke-width:1;" x1="577.2966" x2="339.7441" y1="537" y2="537"/><line style="stroke:#0F172A;stroke-width:1;" x1="339.7441" x2="339.7441" y1="537" y2="593"/><polygon fill="#0F172A" points="335.7441,583,339.7441,593,343.7441,583,339.7441,587" style="stroke:#0F172A;stroke-width:1;"/><line style="stroke:#0F172A;stroke-width:1;" x1="725.6492" x2="963.2017" y1="537" y2="537"/><line style="stroke:#0F172A;stroke-width:1;" x1="963.2017" x2="963.2017" y1="537" y2="593"/><polygon fill="#0F172A" points="959.2017,583,963.2017,593,967.2017,583,963.2017,587" style="stroke:#0F172A;stroke-width:1;"/><line style="stroke:#0F172A;stroke-width:1;" x1="963.2017" x2="963.2017" y1="1721.5" y2="1738.5"/><line style="stroke:#0F172A;stroke-width:1;" x1="963.2017" x2="651.4729" y1="1738.5" y2="1738.5"/><line style="stroke:#0F172A;stroke-width:1;" x1="651.4729" x2="651.4729" y1="1738.5" y2="1947.5"/><polygon fill="#0F172A" points="647.4729,1937.5,651.4729,1947.5,655.4729,1937.5,651.4729,1941.5" style="stroke:#0F172A;stroke-width:1;"/><line style="stroke:#0F172A;stroke-width:1;" x1="651.4729" x2="651.4729" y1="493" y2="525"/><polygon fill="#0F172A" points="647.4729,515,651.4729,525,655.4729,515,651.4729,519" style="stroke:#0F172A;stroke-width:1;"/><?plantuml-src bLVlRzis4FskluB8lhI0dJHj-cCsYY5rqZL0qGH9sdun4D3IoUOYaHf9EVE6_kzxF5Aox0J5XY2891wFT-_UFLxSlTADjB8MRYKByw3qKfIoSfIvVcKXy_kbDQqkPgOoLlnIvlWf1XO5bRAj_4UZ_HTPa_X4rPgyokNJDZVgRnB79uD5QQrvIDvVbCTlNmvtQkFfmwCOol9jyMRVojY2RB9OdBn-zUBNFOjmV5f_zUha-FNhmJgxputLPCNncymhNv4upRrQAxyHOu4bEhferiDJPRVyJoQU0EfTASiyh0m3ImaAKMw3wRyLIjP65u_ofPVqhdmnC1XwF2vEg7YtNVpuX6FdfVNxzjJxx-qMSi_hZuotPaWOa2YZnS7bmf5Tav2w41-KBWwG_kGcM8dI6kQIfKAKbNcOw_XoXD2MGCmTnVUnfTpeN5KqxZ0yTElbD9jSaop05gU2Ym2tS0tb8-4jCC4dHEDRDmg7ptL15NaIIdlIVfgfKZmxk4s6o87-QYgLAoykPnT25R09jMeiEJp-Tl1S-1LfyMn3xdas-PryU1TvQosMUGyiJMjp4cib1Gn2FDECq23YcJRFGxJEL0m53bFEXmRQsUXNAEDoDTUViShfj8wxJ5MUh0Ehwe1iZHFlL37Yz0Wmp2pXWGDw54XSOsSF8G5jvjfIw-G2ZAsbprT2ET0Bz86dAno3izcLZU4oE3bxANQmcMj0QHB6I5GNgWG36DUpYBMbFrjosBY7tu0VqP9PaJOrqg-GE3aHFyJO5Ju6Trng93RN2U8GNeyNuZax_tn-Utu6i7IfB3B4CG6Z-2gO1U7aGPLsNBH8hfhh2AJCLo6Ew7AwarjUaTHjmyGkbPOLbCfY2pwZugxDStgKDoXGctMir7QFB55TaUWPQXmZtE4EEcOZ5fLXjdA8VG08llSLQhiJmA0mpfjcu79GWy-gf7m3Vs9MIUTK2JaEAw4gd780Wyc6xa6AtcwOFexyumIvuh7oBO5pQDl4obegxU1Xhg-kBxzTt5nSVhduylj8VBqwExtb9mOQJzCKB4U-7u4JflKEB8mvEYUW9aloxd4ilhKwj5khasdPLg9Nay1mN3DFLVnqTdlnxNmdZ1z3n8BmRBZqPrQLNdp2OuLMPHxFk4r9L6eTKu-1osN8F_QMgXjZqHTpa98g25LhIvbJOjX7W-uTQthWrWDn8Koi5WKVLe0dkN-AN7_WUp9QK8axY8-lMy_bH9VRy1jzfwFtLUKnz3Tj4uDbHw7kFm_Zj6cgZVZQ59tk68ttS7QtFnuCHLQkgUJcJcCGs6NxlMeO9st6fjac4AIX8_JakiK7QzPWWXKhgfhmnvXxE8vozTwNdHGUHXcyJg-ZkHwiVPSAiuRzRknzekztgCqvvWpRrNMke-QzzuJsv6hc8QBti-lpqo0DStHYiNTcXA0xSzhTG4EJg2MTILHev3tNhCnH-u7L68YlAUQFkuForfERzWpl-Y1W752BxEq_TzV4bJLCa5v6etJlALXZmBPD418FlewvESP9J74NnnocgTFHuIPLmG4E13mI30G_GTPg-0qlK_HFh1lJAynNmghbocTf04Xt_YJxNpD0DfWaGkR9sRR5-w4BIMPXE52SPa-SyI8E0BFhhsSZyG0cZA8fGpDk8cI1UqN0et9WcgN33DU9jwQgu06YBAljGLtWGXP5Lk5MWO6vXqwZd1wpY2EmqqUO5U53H3HR9Qhn-S8qnFrQm_LIDkumanRAv3SDOUm2DoQul31zygqS9Yo5hgwbbakoMTu7vyGWvoS12fJA-7PDfzbGSGpcvW7ktKerXrdoF-6nDdDLkvm85OPRpBR5X0UlRNWJiUm26-y75b4zwiassNBnAFifuR9qeKp-2zcoNXQO-cwIvXSnl7UcSIzbtVKpxQxWxXRANAzyh7WJCHGiHCJTb8IMDGhXzVgQL2xRbLTcX8YCc0YNox8qLN4NWBqBa7QpNlRah9Trbm5IqaPJnZG9_4ZlDycXg04cifCilbF0ZBY3mA3G0tgCcHsuxlkgHy1IKW77sWJs7uRcvV-A_WK0?></g></svg>