<?plantuml 1.2026.1?><svg xmlns="http://www.w3.org/2000/svg" xmlns:xlink="http://www.w3.org/1999/xlink" contentStyleType="text/css" data-diagram-type="ACTIVITY" height="2229px" preserveAspectRatio="none" style="width:1248px;height:2229px;background:#FCFCFD;" version="1.1" viewBox="0 0 1248 2229" width="1248px" zoomAndPan="magnify"><title>Activity - datalabelingservice/DataLabelingServiceDataset</title><defs/><g><rect fill="#FCFCFD" height="2229" style="stroke:none;stroke-width:1;" width="1248" x="0" y="0"/><g class="title" data-source-line="10"><text fill="#000000" font-family="Helvetica" font-size="14" font-weight="bold" lengthAdjust="spacing" textLength="385.1572" x="430.1987" y="30.7803">Activity - datalabelingservice/DataLabelingServiceDataset</text></g><ellipse cx="664.1388" cy="55" fill="#1D4ED8" rx="10" ry="10" style="stroke:#222222;stroke-width:1;"/><rect fill="none" height="458" rx="8" ry="8" style="stroke:#000000;stroke-width:1.5;" width="602.2236" x="381.5216" y="75"/><path d="M503.59,75 L503.59,82 L493.59,92 L381.5216,92" fill="none" style="stroke:#000000;stroke-width:1.5;"/><text fill="#000000" font-family="Helvetica" font-size="14" lengthAdjust="spacing" textLength="112.0684" x="384.5216" y="86.7803">Observe and Bind</text><rect fill="#F8FAFC" height="48" rx="8" ry="8" style="stroke:#0F172A;stroke-width:0.5;" width="304.7852" x="511.7462" y="109"/><text fill="#0F172A" font-family="Helvetica" font-size="14" lengthAdjust="spacing" textLength="136.9375" x="521.7462" y="129.7803">Start from shared flow</text><text fill="#0F172A" font-family="Helvetica" font-size="14" lengthAdjust="spacing" textLength="284.7852" x="521.7462" y="143.7803">shared/diagrams/shared-reconcile-activity.svg</text><rect fill="#F8FAFC" height="48" rx="8" ry="8" style="stroke:#0F172A;stroke-width:0.5;" width="321.957" x="503.1603" y="177"/><text fill="#0F172A" font-family="Helvetica" font-size="14" lengthAdjust="spacing" textLength="301.957" x="513.1603" y="197.7803">Read desired DataLabelingServiceDataset spec,</text><text fill="#0F172A" font-family="Helvetica" font-size="14" lengthAdjust="spacing" textLength="198.4609" x="513.1603" y="211.7803">tracked status, and delete intent</text><polygon fill="#E2E8F0" points="534.673,245,793.6046,245,805.6046,257,793.6046,269,534.673,269,522.673,257,534.673,245" style="stroke:#1D4ED8;stroke-width:0.5;"/><text fill="#0F172A" font-family="Helvetica" font-size="14" lengthAdjust="spacing" textLength="258.9316" x="534.673" y="260.7803">"Tracked or explicit OCI identity present?"</text><text fill="#000000" font-family="Helvetica" font-size="14" lengthAdjust="spacing" textLength="21.7861" x="500.8868" y="253.7803">yes</text><text fill="#000000" font-family="Helvetica" font-size="14" lengthAdjust="spacing" textLength="15.5723" x="805.6046" y="253.7803">no</text><rect fill="#F8FAFC" height="48" rx="8" ry="8" style="stroke:#0F172A;stroke-width:0.5;" width="222.3027" x="401.5216" y="279"/><text fill="#0F172A" font-family="Helvetica" font-size="14" lengthAdjust="spacing" textLength="202.3027" x="411.5216" y="299.7803">Get the current OCI resource via</text><text fill="#0F172A" font-family="Helvetica" font-size="14" lengthAdjust="spacing" textLength="200.0059" x="411.5216" y="313.7803">GetDataLabelingServiceDataset</text><rect fill="#F8FAFC" height="62" rx="8" ry="8" style="stroke:#0F172A;stroke-width:0.5;" width="293.9229" x="668.6432" y="279"/><text fill="#0F172A" font-family="Helvetica" font-size="14" lengthAdjust="spacing" textLength="259.9092" x="678.6432" y="299.7803">Resolve an existing OCI resource through</text><text fill="#0F172A" font-family="Helvetica" font-size="14" lengthAdjust="spacing" textLength="273.9229" x="678.6432" y="313.7803">ListDataLabelingServiceDataset using filters</text><text fill="#0F172A" font-family="Helvetica" font-size="14" lengthAdjust="spacing" textLength="138.5098" x="678.6432" y="327.7803">compartment_id, state</text><rect fill="#F8FAFC" height="62" rx="8" ry="8" style="stroke:#0F172A;stroke-width:0.5;" width="296.2813" x="667.464" y="361"/><text fill="#0F172A" font-family="Helvetica" font-size="14" lengthAdjust="spacing" textLength="174.2959" x="677.464" y="381.7803">Create the OCI resource via</text><text fill="#0F172A" font-family="Helvetica" font-size="14" lengthAdjust="spacing" textLength="276.2813" x="677.464" y="395.7803">CreateDataLabelingServiceDataset when no</text><text fill="#0F172A" font-family="Helvetica" font-size="14" lengthAdjust="spacing" textLength="148.6406" x="677.464" y="409.7803">reusable match is found</text><rect fill="#F8FAFC" height="48" rx="8" ry="8" style="stroke:#0F172A;stroke-width:0.5;" width="286.8955" x="672.1569" y="443"/><text fill="#0F172A" font-family="Helvetica" font-size="14" lengthAdjust="spacing" textLength="266.8955" x="682.1569" y="463.7803">Persist the resolved or created OCI identity</text><text fill="#0F172A" font-family="Helvetica" font-size="14" lengthAdjust="spacing" textLength="63.8135" x="682.1569" y="477.7803">into status</text><polygon fill="#E2E8F0" points="664.1388,497,676.1388,509,664.1388,521,652.1388,509,664.1388,497" style="stroke:#1D4ED8;stroke-width:0.5;"/><polygon fill="#E2E8F0" points="601.9625,553,726.3151,553,738.3151,565,726.3151,577,601.9625,577,589.9625,565,601.9625,553" style="stroke:#1D4ED8;stroke-width:0.5;"/><text fill="#0F172A" font-family="Helvetica" font-size="14" lengthAdjust="spacing" textLength="124.3525" x="601.9625" y="568.7803">"Delete requested?"</text><text fill="#000000" font-family="Helvetica" font-size="14" lengthAdjust="spacing" textLength="21.7861" x="568.1764" y="561.7803">yes</text><text fill="#000000" font-family="Helvetica" font-size="14" lengthAdjust="spacing" textLength="15.5723" x="738.3151" y="561.7803">no</text><rect fill="none" height="395.5" rx="8" ry="8" style="stroke:#000000;stroke-width:1.5;" width="644.4814" x="11" y="587"/><path d="M61.4688,587 L61.4688,594 L51.4688,604 L11,604" fill="none" style="stroke:#000000;stroke-width:1.5;"/><text fill="#000000" font-family="Helvetica" font-size="14" lengthAdjust="spacing" textLength="40.4688" x="14" y="598.7803">Delete</text><rect fill="#F8FAFC" height="90" rx="8" ry="8" style="stroke:#0F172A;stroke-width:0.5;" width="321.9502" x="178.769" y="621"/><text fill="#0F172A" font-family="Helvetica" font-size="14" lengthAdjust="spacing" textLength="105.0684" x="188.769" y="641.7803">Delete path uses</text><text fill="#0F172A" font-family="Helvetica" font-size="14" lengthAdjust="spacing" textLength="301.9502" x="188.769" y="655.7803">DeleteDataLabelingServiceDataset with required</text><text fill="#0F172A" font-family="Helvetica" font-size="14" lengthAdjust="spacing" textLength="238.1299" x="188.769" y="669.7803">via GetDataLabelingServiceDataset or</text><text fill="#0F172A" font-family="Helvetica" font-size="14" lengthAdjust="spacing" textLength="283.2539" x="188.769" y="683.7803">ListDataLabelingServiceDataset to DELETED</text><text fill="#0F172A" font-family="Helvetica" font-size="14" lengthAdjust="spacing" textLength="76.2549" x="188.769" y="697.7803">confirmation</text><rect fill="#F8FAFC" height="76" rx="8" ry="8" style="stroke:#0F172A;stroke-width:0.5;" width="277.5781" x="200.9551" y="739.5"/><text fill="#0F172A" font-family="Helvetica" font-size="14" lengthAdjust="spacing" textLength="123.7236" x="210.9551" y="760.2803">Confirm deletion via</text><text fill="#0F172A" font-family="Helvetica" font-size="14" lengthAdjust="spacing" textLength="216.3438" x="210.9551" y="774.2803">GetDataLabelingServiceDataset or</text><text fill="#0F172A" font-family="Helvetica" font-size="14" lengthAdjust="spacing" textLength="257.5781" x="210.9551" y="788.2803">ListDataLabelingServiceDataset until OCI</text><text fill="#0F172A" font-family="Helvetica" font-size="14" lengthAdjust="spacing" textLength="118.2686" x="210.9551" y="802.2803">reaches DELETED</text><polygon fill="#E2E8F0" points="191.5718,850.5,487.9165,850.5,499.9165,862.5,487.9165,874.5,191.5718,874.5,179.5718,862.5,191.5718,850.5" style="stroke:#1D4ED8;stroke-width:0.5;"/><text fill="#0F172A" font-family="Helvetica" font-size="14" lengthAdjust="spacing" textLength="296.3447" x="191.5718" y="866.2803">"Delete cleanup and finalizer release succeed?"</text><text fill="#000000" font-family="Helvetica" font-size="14" lengthAdjust="spacing" textLength="21.7861" x="157.7856" y="859.2803">yes</text><text fill="#000000" font-family="Helvetica" font-size="14" lengthAdjust="spacing" textLength="15.5723" x="499.9165" y="859.2803">no</text><rect fill="#F8FAFC" height="34" rx="8" ry="8" style="stroke:#0F172A;stroke-width:0.5;" width="293.1436" x="23" y="884.5"/><text fill="#0F172A" font-family="Helvetica" font-size="14" lengthAdjust="spacing" textLength="273.1436" x="33" y="905.2803">Remove the finalizer after delete completion</text><rect fill="#F8FAFC" height="48" rx="8" ry="8" style="stroke:#0F172A;stroke-width:0.5;" width="251.1299" x="384.3516" y="884.5"/><text fill="#0F172A" font-family="Helvetica" font-size="14" lengthAdjust="spacing" textLength="231.1299" x="394.3516" y="905.2803">Stay blocked until cleanup or finalizer</text><text fill="#0F172A" font-family="Helvetica" font-size="14" lengthAdjust="spacing" textLength="108.9512" x="394.3516" y="919.2803">release succeeds</text><polygon fill="#E2E8F0" points="339.7441,938.5,351.7441,950.5,339.7441,962.5,327.7441,950.5,339.7441,938.5" style="stroke:#1D4ED8;stroke-width:0.5;"/><ellipse cx="339.7441" cy="1019.5" fill="none" rx="11" ry="11" style="stroke:#222222;stroke-width:1;"/><ellipse cx="339.7441" cy="1019.5" fill="#222222" rx="6" ry="6" style="stroke:#222222;stroke-width:1;"/><rect fill="none" height="443.5" rx="8" ry="8" style="stroke:#000000;stroke-width:1.5;" width="345.916" x="821.5754" y="587"/><path d="M972.4094,587 L972.4094,594 L962.4094,604 L821.5754,604" fill="none" style="stroke:#000000;stroke-width:1.5;"/><text fill="#000000" font-family="Helvetica" font-size="14" lengthAdjust="spacing" textLength="140.834" x="824.5754" y="598.7803">Lifecycle Classification</text><rect fill="#F8FAFC" height="48" rx="8" ry="8" style="stroke:#0F172A;stroke-width:0.5;" width="280.5928" x="848.2371" y="670"/><text fill="#0F172A" font-family="Helvetica" font-size="14" lengthAdjust="spacing" textLength="240.4541" x="858.2371" y="690.7803">Request requeue while OCI remains in</text><text fill="#0F172A" font-family="Helvetica" font-size="14" lengthAdjust="spacing" textLength="260.5928" x="858.2371" y="704.7803">PROVISIONING, UPDATING, DELETING</text><ellipse cx="988.5334" cy="757.5" fill="none" rx="11" ry="11" style="stroke:#222222;stroke-width:1;"/><ellipse cx="988.5334" cy="757.5" fill="#222222" rx="6" ry="6" style="stroke:#222222;stroke-width:1;"/><polygon fill="#E2E8F0" points="902.2502,621,1074.8167,621,1086.8167,633,1074.8167,645,902.2502,645,890.2502,633,902.2502,621" style="stroke:#1D4ED8;stroke-width:0.5;"/><text fill="#000000" font-family="Helvetica" font-size="14" lengthAdjust="spacing" textLength="21.7861" x="992.5334" y="655.7803">yes</text><text fill="#0F172A" font-family="Helvetica" font-size="14" lengthAdjust="spacing" textLength="172.5664" x="902.2502" y="636.7803">"OCI state in retryable set?"</text><rect fill="#F8FAFC" height="48" rx="8" ry="8" style="stroke:#0F172A;stroke-width:0.5;" width="293.916" x="841.5754" y="883.5"/><text fill="#0F172A" font-family="Helvetica" font-size="14" lengthAdjust="spacing" textLength="273.916" x="851.5754" y="904.2803">Return an unsuccessful reconcile result until</text><text fill="#0F172A" font-family="Helvetica" font-size="14" lengthAdjust="spacing" textLength="133.041" x="851.5754" y="918.2803">OCI reaches ACTIVE</text><ellipse cx="988.5334" cy="977.5" fill="none" rx="11" ry="11" style="stroke:#222222;stroke-width:1;"/><ellipse cx="988.5334" cy="977.5" fill="#222222" rx="6" ry="6" style="stroke:#222222;stroke-width:1;"/><polygon fill="#E2E8F0" points="868.0125,834.5,1109.0544,834.5,1121.0544,846.5,1109.0544,858.5,868.0125,858.5,856.0125,846.5,868.0125,834.5" style="stroke:#1D4ED8;stroke-width:0.5;"/><text fill="#000000" font-family="Helvetica" font-size="14" lengthAdjust="spacing" textLength="21.7861" x="992.5334" y="869.2803">yes</text><text fill="#0F172A" font-family="Helvetica" font-size="14" lengthAdjust="spacing" textLength="241.042" x="868.0125" y="850.2803">"OCI state is outside success targets?"</text><rect fill="none" height="722.5" rx="8" ry="8" style="stroke:#000000;stroke-width:1.5;" width="562.0732" x="675.4814" y="1040.5"/><path d="M841.9014,1040.5 L841.9014,1047.5 L831.9014,1057.5 L675.4814,1057.5" fill="none" style="stroke:#000000;stroke-width:1.5;"/><text fill="#000000" font-family="Helvetica" font-size="14" lengthAdjust="spacing" textLength="156.4199" x="678.4814" y="1052.2803">Ready and Drift Handling</text><rect fill="#F8FAFC" height="48" rx="8" ry="8" style="stroke:#0F172A;stroke-width:0.5;" width="296.2402" x="840.4133" y="1074.5"/><text fill="#0F172A" font-family="Helvetica" font-size="14" lengthAdjust="spacing" textLength="276.2402" x="850.4133" y="1095.2803">Compare live OCI state against the imported</text><text fill="#0F172A" font-family="Helvetica" font-size="14" lengthAdjust="spacing" textLength="75.4824" x="850.4133" y="1109.2803">field surface</text><rect fill="#F8FAFC" height="48" rx="8" ry="8" style="stroke:#0F172A;stroke-width:0.5;" width="302.4473" x="837.3098" y="1191.5"/><text fill="#0F172A" font-family="Helvetica" font-size="14" lengthAdjust="spacing" textLength="282.4473" x="847.3098" y="1212.2803">Reject drift before OCI mutation for force-new</text><text fill="#0F172A" font-family="Helvetica" font-size="14" lengthAdjust="spacing" textLength="136.9512" x="847.3098" y="1226.2803">fields compartment_id</text><ellipse cx="988.5334" cy="1272" fill="none" rx="11" ry="11" style="stroke:#222222;stroke-width:1;"/><ellipse cx="988.5334" cy="1272" fill="#222222" rx="6" ry="6" style="stroke:#222222;stroke-width:1;"/><polygon fill="#E2E8F0" points="862.9504,1142.5,1114.1165,1142.5,1126.1165,1154.5,1114.1165,1166.5,862.9504,1166.5,850.9504,1154.5,862.9504,1142.5" style="stroke:#1D4ED8;stroke-width:0.5;"/><text fill="#000000" font-family="Helvetica" font-size="14" lengthAdjust="spacing" textLength="21.7861" x="992.5334" y="1177.2803">yes</text><text fill="#0F172A" font-family="Helvetica" font-size="14" lengthAdjust="spacing" textLength="251.166" x="862.9504" y="1158.2803">"Force-new or conflicting drift detected?"</text><polygon fill="#E2E8F0" points="878.1057,1325,1098.9612,1325,1110.9612,1337,1098.9612,1349,878.1057,1349,866.1057,1337,878.1057,1325" style="stroke:#1D4ED8;stroke-width:0.5;"/><text fill="#0F172A" font-family="Helvetica" font-size="14" lengthAdjust="spacing" textLength="220.8555" x="878.1057" y="1340.7803">"Supported mutable drift detected?"</text><text fill="#000000" font-family="Helvetica" font-size="14" lengthAdjust="spacing" textLength="21.7861" x="844.3196" y="1333.7803">yes</text><text fill="#000000" font-family="Helvetica" font-size="14" lengthAdjust="spacing" textLength="15.5723" x="1110.9612" y="1333.7803">no</text><rect fill="#F8FAFC" height="48" rx="8" ry="8" style="stroke:#0F172A;stroke-width:0.5;" width="311.0674" x="695.4814" y="1359"/><text fill="#0F172A" font-family="Helvetica" font-size="14" lengthAdjust="spacing" textLength="291.0674" x="705.4814" y="1379.7803">Apply UpdateDataLabelingServiceDataset only</text><text fill="#0F172A" font-family="Helvetica" font-size="14" lengthAdjust="spacing" textLength="196.8818" x="705.4814" y="1393.7803">for mutable fields display_name</text><rect fill="#F8FAFC" height="34" rx="8" ry="8" style="stroke:#0F172A;stroke-width:0.5;" width="199.0059" x="1026.5488" y="1359"/><text fill="#0F172A" font-family="Helvetica" font-size="14" lengthAdjust="spacing" textLength="179.0059" x="1036.5488" y="1379.7803">Skip the no-op mutation path</text><polygon fill="#E2E8F0" points="988.5334,1413,1000.5334,1425,988.5334,1437,976.5334,1425,988.5334,1413" style="stroke:#1D4ED8;stroke-width:0.5;"/><rect fill="#F8FAFC" height="118" rx="8" ry="8" style="stroke:#0F172A;stroke-width:0.5;" width="334.3164" x="821.3752" y="1457"/><text fill="#0F172A" font-family="Helvetica" font-size="14" lengthAdjust="spacing" textLength="164.2061" x="831.3752" y="1477.7803">Run provider helper hooks</text><text fill="#0F172A" font-family="Helvetica" font-size="14" lengthAdjust="spacing" textLength="219.0508" x="831.3752" y="1491.7803">create=tfresource.CreateResource,</text><text fill="#0F172A" font-family="Helvetica" font-size="14" lengthAdjust="spacing" textLength="314.3164" x="831.3752" y="1505.7803">tfresource.WaitForWorkRequestWithErrorHandling</text><text fill="#0F172A" font-family="Helvetica" font-size="14" lengthAdjust="spacing" textLength="215.5439" x="831.3752" y="1519.7803">entity=template action=CREATED;</text><text fill="#0F172A" font-family="Helvetica" font-size="14" lengthAdjust="spacing" textLength="226.085" x="831.3752" y="1533.7803">update=tfresource.UpdateResource;</text><text fill="#0F172A" font-family="Helvetica" font-size="14" lengthAdjust="spacing" textLength="273.5537" x="831.3752" y="1547.7803">delete=tfresource.DeleteResource when the</text><text fill="#0F172A" font-family="Helvetica" font-size="14" lengthAdjust="spacing" textLength="220.2334" x="831.3752" y="1561.7803">matching field-driven path executes</text><rect fill="#F8FAFC" height="34" rx="8" ry="8" style="stroke:#0F172A;stroke-width:0.5;" width="303.2197" x="836.9236" y="1595"/><text fill="#0F172A" font-family="Helvetica" font-size="14" lengthAdjust="spacing" textLength="283.2197" x="846.9236" y="1615.7803">Return success for the ACTIVE success state</text><rect fill="#F8FAFC" height="48" rx="8" ry="8" style="stroke:#0F172A;stroke-width:0.5;" width="279.1299" x="848.9685" y="1649"/><text fill="#0F172A" font-family="Helvetica" font-size="14" lengthAdjust="spacing" textLength="259.1299" x="858.9685" y="1669.7803">Project required status and finalizer policy</text><text fill="#0F172A" font-family="Helvetica" font-size="14" lengthAdjust="spacing" textLength="174.3027" x="858.9685" y="1683.7803">retain-until-confirmed-delete</text><rect fill="#F8FAFC" height="34" rx="8" ry="8" style="stroke:#0F172A;stroke-width:0.5;" width="313.4189" x="831.824" y="1717"/><text fill="#0F172A" font-family="Helvetica" font-size="14" lengthAdjust="spacing" textLength="293.4189" x="841.824" y="1737.7803">Requeue on provisioning, updating, terminating</text><path d="M695.1388,1773 L695.1388,1991 L675.1388,1995 L695.1388,1999 L695.1388,2217 A0,0 0 0 0 695.1388,2217 L1065.5919,2217 A0,0 0 0 0 1065.5919,2217 L1065.5919,1783 L1055.5919,1773 L695.1388,1773 A0,0 0 0 0 695.1388,1773" fill="#FFF7D6" style="stroke:#B45309;stroke-width:0.5;"/><path d="M1055.5919,1773 L1055.5919,1783 L1065.5919,1783 L1055.5919,1773" fill="#FFF7D6" style="stroke:#B45309;stroke-width:0.5;"/><text fill="#334155" font-family="Helvetica" font-size="14" lengthAdjust="spacing" textLength="101.165" x="701.1388" y="1788.7803">shared diagram:</text><text fill="#334155" font-family="Helvetica" font-size="14" lengthAdjust="spacing" textLength="284.7852" x="701.1388" y="1802.7803">shared/diagrams/shared-reconcile-activity.svg</text><text fill="#334155" font-family="Helvetica" font-size="14" lengthAdjust="spacing" textLength="265.3438" x="701.1388" y="1816.7803">Start from the shared reconcile activity and</text><text fill="#334155" font-family="Helvetica" font-size="14" lengthAdjust="spacing" textLength="273.8955" x="701.1388" y="1830.7803">specialize provider-backed CRUD, wait, and</text><text fill="#334155" font-family="Helvetica" font-size="14" lengthAdjust="spacing" textLength="182.875" x="701.1388" y="1844.7803">status-projection details here.</text><text fill="#334155" font-family="Helvetica" font-size="14" lengthAdjust="spacing" textLength="229.5371" x="701.1388" y="1858.7803">Controller-local activity diagrams add</text><text fill="#334155" font-family="Helvetica" font-size="14" lengthAdjust="spacing" textLength="238.8955" x="701.1388" y="1872.7803">list-lookup hints, secret policies, delete</text><text fill="#334155" font-family="Helvetica" font-size="14" lengthAdjust="spacing" textLength="200.0332" x="701.1388" y="1886.7803">handling, and open formal gaps.</text><text fill="#334155" font-family="Helvetica" font-size="14" lengthAdjust="spacing" textLength="281.709" x="701.1388" y="1900.7803">archetype batch: Generated service-manager</text><text fill="#334155" font-family="Helvetica" font-size="14" lengthAdjust="spacing" textLength="291.0469" x="701.1388" y="1914.7803">controllers specialize the shared reconcile path</text><text fill="#334155" font-family="Helvetica" font-size="14" lengthAdjust="spacing" textLength="189.8477" x="701.1388" y="1928.7803">with formal runtime ownership.</text><text fill="#334155" font-family="Helvetica" font-size="14" lengthAdjust="spacing" textLength="171.9785" x="701.1388" y="1942.7803">service: datalabelingservice</text><text fill="#334155" font-family="Helvetica" font-size="14" lengthAdjust="spacing" textLength="199.2402" x="701.1388" y="1956.7803">slug: datalabelingservicedataset</text><text fill="#334155" font-family="Helvetica" font-size="14" lengthAdjust="spacing" textLength="210.9023" x="701.1388" y="1970.7803">kind: DataLabelingServiceDataset</text><text fill="#334155" font-family="Helvetica" font-size="14" lengthAdjust="spacing" textLength="241.2402" x="701.1388" y="1984.7803">archetype: generated-service-manager</text><text fill="#334155" font-family="Helvetica" font-size="14" lengthAdjust="spacing" textLength="156.4063" x="701.1388" y="1998.7803">status/finalizer: required /</text><text fill="#334155" font-family="Helvetica" font-size="14" lengthAdjust="spacing" textLength="174.3027" x="701.1388" y="2012.7803">retain-until-confirmed-delete</text><text fill="#334155" font-family="Helvetica" font-size="14" lengthAdjust="spacing" textLength="272.3984" x="701.1388" y="2026.7803">requeue: provisioning, updating, terminating</text><text fill="#334155" font-family="Helvetica" font-size="14" lengthAdjust="spacing" textLength="295.6816" x="701.1388" y="2040.7803">provider states: create PROVISIONING; update</text><text fill="#334155" font-family="Helvetica" font-size="14" lengthAdjust="spacing" textLength="192.165" x="701.1388" y="2054.7803">UPDATING; delete DELETING</text><text fill="#334155" font-family="Helvetica" font-size="14" lengthAdjust="spacing" textLength="183.6611" x="701.1388" y="2068.7803">supported drift: display_name</text><text fill="#334155" font-family="Helvetica" font-size="14" lengthAdjust="spacing" textLength="230.3301" x="701.1388" y="2082.7803">reject before mutate: force-new fields</text><text fill="#334155" font-family="Helvetica" font-size="14" lengthAdjust="spacing" textLength="100.3789" x="701.1388" y="2096.7803">compartment_id</text><text fill="#334155" font-family="Helvetica" font-size="14" lengthAdjust="spacing" textLength="66.1445" x="701.1388" y="2110.7803">list lookup:</text><text fill="#334155" font-family="Helvetica" font-size="14" lengthAdjust="spacing" textLength="349.4531" x="701.1388" y="2124.7803">scaffold_datalabelingservice_datalabelingservicedataset</text><text fill="#334155" font-family="Helvetica" font-size="14" lengthAdjust="spacing" textLength="175.8477" x="701.1388" y="2138.7803">filters compartment_id, state</text><text fill="#334155" font-family="Helvetica" font-size="14" lengthAdjust="spacing" textLength="89.4961" x="701.1388" y="2152.7803">conflicts: none</text><text fill="#334155" font-family="Helvetica" font-size="14" lengthAdjust="spacing" textLength="104.3164" x="701.1388" y="2166.7803">open gaps: none</text><text fill="#334155" font-family="Helvetica" font-size="14" lengthAdjust="spacing" textLength="224.9023" x="701.1388" y="2180.7803">Scaffold metadata only; replace with</text><text fill="#334155" font-family="Helvetica" font-size="14" lengthAdjust="spacing" textLength="244.3232" x="701.1388" y="2194.7803">controller-specific runtime states before</text><text fill="#334155" font-family="Helvetica" font-size="14" lengthAdjust="spacing" textLength="66.1445" x="701.1388" y="2208.7803">promotion.</text><ellipse cx="664.1388" cy="1995" fill="none" rx="11" ry="11" style="stroke:#222222;stroke-width:1;"/><ellipse cx="664.1388" cy="1995" fill="#222222" rx="6" ry="6" style="stroke:#222222;stroke-width:1;"/><line style="stroke:#0F172A;stroke-width:1;" x1="664.1388" x2="664.1388" y1="157" y2="177"/><polygon fill="#0F172A" points="660.1388,167,664.1388,177,668.1388,167,664.1388,171" style="stroke:#0F172A;stroke-width:1;"/><line style="stroke:#0F172A;stroke-width:1;" x1="815.6046" x2="815.6046" y1="341" y2="361"/><polygon fill="#0F172A" points="811.6046,351,815.6046,361,819.6046,351,815.6046,355" style="stroke:#0F172A;stroke-width:1;"/><line style="stroke:#0F172A;stroke-width:1;" x1="815.6046" x2="815.6046" y1="423" y2="443"/><polygon fill="#0F172A" points="811.6046,433,815.6046,443,819.6046,433,815.6046,437" style="stroke:#0F172A;stroke-width:1;"/><line style="stroke:#0F172A;stroke-width:1;" x1="522.673" x2="512.673" y1="257" y2="257"/><line style="stroke:#0F172A;stroke-width:1;" x1="512.673" x2="512.673" y1="257" y2="279"/><polygon fill="#0F172A" points="508.673,269,512.673,279,516.673,269,512.673,273" style="stroke:#0F172A;stroke-width:1;"/><line style="stroke:#0F172A;stroke-width:1;" x1="805.6046" x2="815.6046" y1="257" y2="257"/><line style="stroke:#0F172A;stroke-width:1;" x1="815.6046" x2="815.6046" y1="257" y2="279"/><polygon fill="#0F172A" points="811.6046,269,815.6046,279,819.6046,269,815.6046,273" style="stroke:#0F172A;stroke-width:1;"/><line style="stroke:#0F172A;stroke-width:1;" x1="512.673" x2="512.673" y1="327" y2="509"/><line style="stroke:#0F172A;stroke-width:1;" x1="512.673" x2="652.1388" y1="509" y2="509"/><polygon fill="#0F172A" points="642.1388,505,652.1388,509,642.1388,513,646.1388,509" style="stroke:#0F172A;stroke-width:1;"/><line style="stroke:#0F172A;stroke-width:1;" x1="815.6046" x2="815.6046" y1="491" y2="509"/><line style="stroke:#0F172A;stroke-width:1;" x1="815.6046" x2="676.1388" y1="509" y2="509"/><polygon fill="#0F172A" points="686.1388,505,676.1388,509,686.1388,513,682.1388,509" style="stroke:#0F172A;stroke-width:1;"/><line style="stroke:#0F172A;stroke-width:1;" x1="664.1388" x2="664.1388" y1="225" y2="245"/><polygon fill="#0F172A" points="660.1388,235,664.1388,245,668.1388,235,664.1388,239" style="stroke:#0F172A;stroke-width:1;"/><line style="stroke:#0F172A;stroke-width:1;" x1="664.1388" x2="664.1388" y1="65" y2="109"/><polygon fill="#0F172A" points="660.1388,99,664.1388,109,668.1388,99,664.1388,103" style="stroke:#0F172A;stroke-width:1;"/><line style="stroke:#0F172A;stroke-width:1;" x1="339.7441" x2="339.7441" y1="711" y2="739.5"/><polygon fill="#0F172A" points="335.7441,729.5,339.7441,739.5,343.7441,729.5,339.7441,733.5" style="stroke:#0F172A;stroke-width:1;"/><line style="stroke:#0F172A;stroke-width:1;" x1="179.5718" x2="169.5718" y1="862.5" y2="862.5"/><line style="stroke:#0F172A;stroke-width:1;" x1="169.5718" x2="169.5718" y1="862.5" y2="884.5"/><polygon fill="#0F172A" points="165.5718,874.5,169.5718,884.5,173.5718,874.5,169.5718,878.5" style="stroke:#0F172A;stroke-width:1;"/><line style="stroke:#0F172A;stroke-width:1;" x1="499.9165" x2="509.9165" y1="862.5" y2="862.5"/><line style="stroke:#0F172A;stroke-width:1;" x1="509.9165" x2="509.9165" y1="862.5" y2="884.5"/><polygon fill="#0F172A" points="505.9165,874.5,509.9165,884.5,513.9165,874.5,509.9165,878.5" style="stroke:#0F172A;stroke-width:1;"/><line style="stroke:#0F172A;stroke-width:1;" x1="169.5718" x2="169.5718" y1="918.5" y2="950.5"/><line style="stroke:#0F172A;stroke-width:1;" x1="169.5718" x2="327.7441" y1="950.5" y2="950.5"/><polygon fill="#0F172A" points="317.7441,946.5,327.7441,950.5,317.7441,954.5,321.7441,950.5" style="stroke:#0F172A;stroke-width:1;"/><line style="stroke:#0F172A;stroke-width:1;" x1="509.9165" x2="509.9165" y1="932.5" y2="950.5"/><line style="stroke:#0F172A;stroke-width:1;" x1="509.9165" x2="351.7441" y1="950.5" y2="950.5"/><polygon fill="#0F172A" points="361.7441,946.5,351.7441,950.5,361.7441,954.5,357.7441,950.5" style="stroke:#0F172A;stroke-width:1;"/><line style="stroke:#0F172A;stroke-width:1;" x1="339.7441" x2="339.7441" y1="815.5" y2="850.5"/><polygon fill="#0F172A" points="335.7441,840.5,339.7441,850.5,343.7441,840.5,339.7441,844.5" style="stroke:#0F172A;stroke-width:1;"/><line style="stroke:#0F172A;stroke-width:1;" x1="339.7441" x2="339.7441" y1="962.5" y2="1008.5"/><polygon fill="#0F172A" points="335.7441,998.5,339.7441,1008.5,343.7441,998.5,339.7441,1002.5" style="stroke:#0F172A;stroke-width:1;"/><line style="stroke:#0F172A;stroke-width:1;" x1="988.5334" x2="988.5334" y1="718" y2="746.5"/><polygon fill="#0F172A" points="984.5334,736.5,988.5334,746.5,992.5334,736.5,988.5334,740.5" style="stroke:#0F172A;stroke-width:1;"/><line style="stroke:#0F172A;stroke-width:1;" x1="988.5334" x2="988.5334" y1="645" y2="670"/><polygon fill="#0F172A" points="984.5334,660,988.5334,670,992.5334,660,988.5334,664" style="stroke:#0F172A;stroke-width:1;"/><line style="stroke:#0F172A;stroke-width:1;" x1="1086.8167" x2="1138.8298" y1="633" y2="633"/><polygon fill="#0F172A" points="1134.8298,709.5,1138.8298,719.5,1142.8298,709.5,1138.8298,713.5" style="stroke:#0F172A;stroke-width:1;"/><line style="stroke:#0F172A;stroke-width:1;" x1="1138.8298" x2="1138.8298" y1="633" y2="799.5"/><line style="stroke:#0F172A;stroke-width:1;" x1="1138.8298" x2="988.5334" y1="799.5" y2="799.5"/><line style="stroke:#0F172A;stroke-width:1;" x1="988.5334" x2="988.5334" y1="799.5" y2="834.5"/><polygon fill="#0F172A" points="984.5334,824.5,988.5334,834.5,992.5334,824.5,988.5334,828.5" style="stroke:#0F172A;stroke-width:1;"/><line style="stroke:#0F172A;stroke-width:1;" x1="988.5334" x2="988.5334" y1="931.5" y2="966.5"/><polygon fill="#0F172A" points="984.5334,956.5,988.5334,966.5,992.5334,956.5,988.5334,960.5" style="stroke:#0F172A;stroke-width:1;"/><line style="stroke:#0F172A;stroke-width:1;" x1="988.5334" x2="988.5334" y1="858.5" y2="883.5"/><polygon fill="#0F172A" points="984.5334,873.5,988.5334,883.5,992.5334,873.5,988.5334,877.5" style="stroke:#0F172A;stroke-width:1;"/><line style="stroke:#0F172A;stroke-width:1;" x1="1121.0544" x2="1145.4915" y1="846.5" y2="846.5"/><polygon fill="#0F172A" points="1141.4915,923,1145.4915,933,1149.4915,923,1145.4915,927" style="stroke:#0F172A;stroke-width:1;"/><line style="stroke:#0F172A;stroke-width:1;" x1="1145.4915" x2="1145.4915" y1="846.5" y2="1010.5"/><line style="stroke:#0F172A;stroke-width:1;" x1="1145.4915" x2="988.5334" y1="1010.5" y2="1010.5"/><line style="stroke:#0F172A;stroke-width:1;" x1="988.5334" x2="988.5334" y1="1010.5" y2="1074.5"/><polygon fill="#0F172A" points="984.5334,1064.5,988.5334,1074.5,992.5334,1064.5,988.5334,1068.5" style="stroke:#0F172A;stroke-width:1;"/><line style="stroke:#0F172A;stroke-width:1;" x1="988.5334" x2="988.5334" y1="1239.5" y2="1261"/><polygon fill="#0F172A" points="984.5334,1251,988.5334,1261,992.5334,1251,988.5334,1255" style="stroke:#0F172A;stroke-width:1;"/><line style="stroke:#0F172A;stroke-width:1;" x1="988.5334" x2="988.5334" y1="1166.5" y2="1191.5"/><polygon fill="#0F172A" points="984.5334,1181.5,988.5334,1191.5,992.5334,1181.5,988.5334,1185.5" style="stroke:#0F172A;stroke-width:1;"/><line style="stroke:#0F172A;stroke-width:1;" x1="1126.1165" x2="1149.7571" y1="1154.5" y2="1154.5"/><polygon fill="#0F172A" points="1145.7571,1231,1149.7571,1241,1153.7571,1231,1149.7571,1235" style="stroke:#0F172A;stroke-width:1;"/><line style="stroke:#0F172A;stroke-width:1;" x1="1149.7571" x2="1149.7571" y1="1154.5" y2="1305"/><line style="stroke:#0F172A;stroke-width:1;" x1="1149.7571" x2="988.5334" y1="1305" y2="1305"/><line style="stroke:#0F172A;stroke-width:1;" x1="988.5334" x2="988.5334" y1="1305" y2="1325"/><polygon fill="#0F172A" points="984.5334,1315,988.5334,1325,992.5334,1315,988.5334,1319" style="stroke:#0F172A;stroke-width:1;"/><line style="stroke:#0F172A;stroke-width:1;" x1="988.5334" x2="988.5334" y1="1122.5" y2="1142.5"/><polygon fill="#0F172A" points="984.5334,1132.5,988.5334,1142.5,992.5334,1132.5,988.5334,1136.5" style="stroke:#0F172A;stroke-width:1;"/><line style="stroke:#0F172A;stroke-width:1;" x1="866.1057" x2="851.0151" y1="1337" y2="1337"/><line style="stroke:#0F172A;stroke-width:1;" x1="851.0151" x2="851.0151" y1="1337" y2="1359"/><polygon fill="#0F172A" points="847.0151,1349,851.0151,1359,855.0151,1349,851.0151,1353" style="stroke:#0F172A;stroke-width:1;"/><line style="stroke:#0F172A;stroke-width:1;" x1="1110.9612" x2="1126.0518" y1="1337" y2="1337"/><line style="stroke:#0F172A;stroke-width:1;" x1="1126.0518" x2="1126.0518" y1="1337" y2="1359"/><polygon fill="#0F172A" points="1122.0518,1349,1126.0518,1359,1130.0518,1349,1126.0518,1353" style="stroke:#0F172A;stroke-width:1;"/><line style="stroke:#0F172A;stroke-width:1;" x1="851.0151" x2="851.0151" y1="1407" y2="1425"/><line style="stroke:#0F172A;stroke-width:1;" x1="851.0151" x2="976.5334" y1="1425" y2="1425"/><polygon fill="#0F172A" points="966.5334,1421,976.5334,1425,966.5334,1429,970.5334,1425" style="stroke:#0F172A;stroke-width:1;"/><line style="stroke:#0F172A;stroke-width:1;" x1="1126.0518" x2="1126.0518" y1="1393" y2="1425"/><line style="stroke:#0F172A;stroke-width:1;" x1="1126.0518" x2="1000.5334" y1="1425" y2="1425"/><polygon fill="#0F172A" points="1010.5334,1421,1000.5334,1425,1010.5334,1429,1006.5334,1425" style="stroke:#0F172A;stroke-width:1;"/><line style="stroke:#0F172A;stroke-width:1;" x1="988.5334" x2="988.5334" y1="1437" y2="1457"/><polygon fill="#0F172A" points="984.5334,1447,988.5334,1457,992.5334,1447,988.5334,1451" style="stroke:#0F172A;stroke-width:1;"/><line style="stroke:#0F172A;stroke-width:1;" x1="988.5334" x2="988.5334" y1="1575" y2="1595"/><polygon fill="#0F172A" points="984.5334,1585,988.5334,1595,992.5334,1585,988.5334,1589" style="stroke:#0F172A;stroke-width:1;"/><line style="stroke:#0F172A;stroke-width:1;" x1="988.5334" x2="988.5334" y1="1629" y2="1649"/><polygon fill="#0F172A" points="984.5334,1639,988.5334,1649,992.5334,1639,988.5334,1643" style="stroke:#0F172A;stroke-width:1;"/><line style="stroke:#0F172A;stroke-width:1;" x1="988.5334" x2="988.5334" y1="1697" y2="1717"/><polygon fill="#0F172A" points="984.5334,1707,988.5334,1717,992.5334,1707,988.5334,1711" style="stroke:#0F172A;stroke-width:1;"/><line style="stroke:#0F172A;stroke-width:1;" x1="589.9625" x2="339.7441" y1="565" y2="565"/><line style="stroke:#0F172A;stroke-width:1;" x1="339.7441" x2="339.7441" y1="565" y2="621"/><polygon fill="#0F172A" points="335.7441,611,339.7441,621,343.7441,611,339.7441,615" style="stroke:#0F172A;stroke-width:1;"/><line style="stroke:#0F172A;stroke-width:1;" x1="738.3151" x2="988.5334" y1="565" y2="565"/><line style="stroke:#0F172A;stroke-width:1;" x1="988.5334" x2="988.5334" y1="565" y2="621"/><polygon fill="#0F172A" points="984.5334,611,988.5334,621,992.5334,611,988.5334,615" style="stroke:#0F172A;stroke-width:1;"/><line style="stroke:#0F172A;stroke-width:1;" x1="988.5334" x2="988.5334" y1="1751" y2="1768"/><line style="stroke:#0F172A;stroke-width:1;" x1="988.5334" x2="664.1388" y1="1768" y2="1768"/><line style="stroke:#0F172A;stroke-width:1;" x1="664.1388" x2="664.1388" y1="1768" y2="1984"/><polygon fill="#0F172A" points="660.1388,1974,664.1388,1984,668.1388,1974,664.1388,1978" style="stroke:#0F172A;stroke-width:1;"/><line style="stroke:#0F172A;stroke-width:1;" x1="664.1388" x2="664.1388" y1="521" y2="553"/><polygon fill="#0F172A" points="660.1388,543,664.1388,553,668.1388,543,664.1388,547" style="stroke:#0F172A;stroke-width:1;"/><?plantuml-src bLTjJniv4Fw-lyBYlhGIWTBtIrITAD0M2HK4jFqI2JdhsSI7O-_Ptd2vK__xFNxPpIQaQKy8iMlFZcUUUURnuEwbhhdbS-PcN9W7gQUiuifHuRgT2I_lfzOqMfmOPIpxhIhn8teMWYhUAF_1QF-Ppubz8hKWBqk-tUP6_aFiw6Llarjh7hBtPzNHc-VzBxNnzFvH35NrHhpUj39MaCqMavUlNZpxVSCY79_tNxnuUVJgLMy_kY-DrMJPqUl2Iw-87PTUBgHViW4Jt7F59wG0aYExa2KTdcBj8g_TfBMmvCZtisjz_5kmBMY-hNXLXfr-z1a5ngfLnDsQa7nkj7W42ZsdjzMpda7Vuv5uIUBjQlF35iVES-itxQdptzbD-8RNxqNyj432m4qQpVOk9m4aObmBzbvgiOVqXpV1YbNMHC9P4gnIvc6iqyiXGfi2CNUOtWUMIgDBgMZGOdZW5jDHCRmcBa0f9uEB7nU1kPhA_R7s5b314a7wnkt7c0GfyiIazgJzg90LUx9tc-sG6VrTArbApovFpfaKi0aLh2qvFFwnzvJv6MdsP4dkQJ7yYAFmpih6Mcp7Rs1f6biIMqW-rh3uSPYZWj1ox8asJqDgpgY86sAGpeUMNFFdPwZvT3RM5zZTaNlZOZTBvScwiIxDF5HdZlZkfDYFM12WFB64XnZ-ux3Jvev37W8AseorfSRn2JfcpdqvOzA1kM0c3hZ2yOWqdc1JSX7XCleMQm2FDUfXSfq0YnQo0hbYSKvJmIpzrP33Xnj5w54lMKR2vOzgxcS0X813MjcLaeHjE2MGQwo10zjPFUJoqreWfzEpYxFRizDG25r92vWGQy0_lIO-Xl1_pfTVER41dYfW6qh3oncvDeBH6fob8gwREhP49JLN46UBzB4CIhgcBEaHrE3et2mIPrRVy0f4Qzigi2tbiqPkzF-IJPI9NPP2R0C08pfV8UQr07fSSDxKFPUzib_8Yieb_B4JnPsJ5MwWi1E845CEJ8kqHzSZHM-NaR60wt62aMI9R0s1vX2Xt1zpBhM3Xx6-khxyUdvpVldv_FF7VVRbwlJuDZv5eF4qoi76o3SZSCmqte7uAKVd6BHnIjuzZiKtLWSzQ7GshHh5EcqCJOMRDS4vrYd8LF7ZazlphsThONpl8nPaT1bBVsfbvTadF0OknTOvYO91JCb5IZq5pgSX_zJESbuRwqENL98KzBMn5IyfC-o3WOuCD3t4RWVD8QXHpaGyJ80dfTz6hZ-ndeqcL1cRZfytFfOJmcB3R_ATZtPiNTyUGt_Jr2dOw2ZKVNSOntMjbknBBNOBeD4AgXL2QjtcU8HqjUBBEus9QBq7xcKTqTDcOEfLMa6ZMfeFhniiMBC0FooRaQh37sFkWv17tNpdgrQg3v9AN-VNSD-jzhvnYQ7BVZFsFfFw6_Jj30ENRQizrabyttb2qyOQbo6YToVNPyT1CCReJx5nPWAcFHCcgV7x9abXMfDqLI3liOvNHBgS0DK0TLXGoXzN7fMD9pVgUDzsHu0ue9OutIstrzYLDP4shN3dEsH3rse33Yw3l7YmU11RPf056VD6oc6K-nzzRt8L7E10mFii0X6V87Pp-0ql8tHLgbiaNHWqcPNJ6OR0DEJakMPO_Ayvf-XDIo7px6pL-DrWYIIBCEh8c6P7dC4aZJCdrrzEzza3cB2VJ2CqWpf15hWd0XxAWMcM3WfSITuQfU01KitLwg0sSCQ5A1Hk81YOUwWtokanM3a2Ets2MH8M4gB5B5CjZLwcfjZ5SxYUyjeT5Dn2h_oo9eoMuCOGDox6y3WUv55xCEUQJyaMPHUSOxsSjm8KA5N4-poVPaF5yH-AUO1xDvFrGP7z3xVDzuLJpNJhZiXJFePyCTmnWQuo6x9fczDWCwTKaCEEfyCLZG-BdLmjyWqr_1MU5fsYnAvnmpo3iVv5DahVKj7UPwFsJc-ljS9rKXebTBYcTOWeDc9MxYXl2AyJxAoFnRfUHpAnH2QqISchoYXnjmNvkntLoCCksphh5kqLXBorqLH46WR-vVURV2gR0_7WCehx2BL0Sa70GAGU_GQHVHWoEbObL7Fc0Uov2Trr4CGX_llv7m00?></g></svg>