<?plantuml 1.2026.1?><svg xmlns="http://www.w3.org/2000/svg" xmlns:xlink="http://www.w3.org/1999/xlink" contentStyleType="text/css" data-diagram-type="SEQUENCE" height="1315px" preserveAspectRatio="none" style="width:1123px;height:1315px;background:#FCFCFD;" version="1.1" viewBox="0 0 1123 1315" width="1123px" zoomAndPan="magnify"><title>Sequence - usageproxy/UsageProxySubscriptionProducts</title><defs/><g><rect fill="#FCFCFD" height="1315" style="stroke:none;stroke-width:1;" width="1123" x="0" y="0"/><text fill="#000000" font-family="Helvetica" font-size="14" font-weight="bold" lengthAdjust="spacing" textLength="388.2197" x="364.9102" y="25.7803">Sequence - usageproxy/UsageProxySubscriptionProducts</text><rect fill="none" height="86" rx="8" ry="8" style="stroke:#CBD5E1;stroke-width:1.5;" width="413.9712" x="681.6968" y="361"/><rect fill="none" height="204" rx="8" ry="8" style="stroke:#CBD5E1;stroke-width:1.5;" width="433.9712" x="671.6968" y="461"/><rect fill="none" height="44" rx="8" ry="8" style="stroke:#CBD5E1;stroke-width:1.5;" width="413.9712" x="681.6968" y="512"/><rect fill="none" height="44" rx="8" ry="8" style="stroke:#CBD5E1;stroke-width:1.5;" width="413.9712" x="681.6968" y="614"/><rect fill="none" height="116" rx="8" ry="8" style="stroke:#CBD5E1;stroke-width:1.5;" width="433.9712" x="671.6968" y="679"/><rect fill="none" height="58" rx="8" ry="8" style="stroke:#CBD5E1;stroke-width:1.5;" width="413.9712" x="681.6968" y="730"/><g class="participant-lifeline" data-entity-uid="part1" data-qualified-name="Kubernetes" id="part1-lifeline"><g><title>Kubernetes</title><rect fill="#000000" fill-opacity="0.00000" height="1194" width="8" x="39.8032" y="114"/><line style="stroke:#94A3B8;stroke-width:0.5;stroke-dasharray:5,5;" x1="43" x2="43" y1="114" y2="1308"/></g></g><g class="participant-lifeline" data-entity-uid="part2" data-qualified-name="Controller" id="part2-lifeline"><g><title>Controller</title><rect fill="#000000" fill-opacity="0.00000" height="1194" width="8" x="272.3472" y="114"/><line style="stroke:#94A3B8;stroke-width:0.5;stroke-dasharray:5,5;" x1="276.0024" x2="276.0024" y1="114" y2="1308"/></g></g><g class="participant-lifeline" data-entity-uid="part3" data-qualified-name="BaseReconciler" id="part3-lifeline"><g><title>BaseReconciler</title><rect fill="#000000" fill-opacity="0.00000" height="1194" width="8" x="511.1733" y="114"/><line style="stroke:#94A3B8;stroke-width:0.5;stroke-dasharray:5,5;" x1="515.1494" x2="515.1494" y1="114" y2="1308"/></g></g><g class="participant-lifeline" data-entity-uid="part4" data-qualified-name="ServiceManager" id="part4-lifeline"><g><title>OSOKServiceManager</title><rect fill="#000000" fill-opacity="0.00000" height="1194" width="8" x="765.8931" y="114"/><line style="stroke:#94A3B8;stroke-width:0.5;stroke-dasharray:5,5;" x1="769.6968" x2="769.6968" y1="114" y2="1308"/></g></g><g class="participant-lifeline" data-entity-uid="part5" data-qualified-name="OCI" id="part5-lifeline"><g><title>OCI</title><rect fill="#000000" fill-opacity="0.00000" height="1194" width="8" x="1062.2231" y="114"/><line style="stroke:#94A3B8;stroke-width:0.5;stroke-dasharray:5,5;" x1="1065.7783" x2="1065.7783" y1="114" y2="1308"/></g></g><g class="participant participant-head" data-entity-uid="part1" data-qualified-name="Kubernetes" id="part1-head"><text fill="#000000" font-family="Helvetica" font-size="14" lengthAdjust="spacing" textLength="71.6064" x="5" y="110.7803">Kubernetes</text><ellipse cx="43.8032" cy="48.5" fill="#E2E8F0" rx="8" ry="8" style="stroke:#0F172A;stroke-width:0.5;"/><path d="M43.8032,56.5 L43.8032,83.5 M30.8032,64.5 L56.8032,64.5 M43.8032,83.5 L30.8032,98.5 M43.8032,83.5 L56.8032,98.5" fill="none" style="stroke:#0F172A;stroke-width:0.5;"/></g><g class="participant participant-head" data-entity-uid="part2" data-qualified-name="Controller" id="part2-head"><rect fill="#E2E8F0" height="28" rx="8" ry="8" style="stroke:#0F172A;stroke-width:0.5;" width="74.6895" x="239.0024" y="85"/><text fill="#0F172A" font-family="Helvetica" font-size="14" lengthAdjust="spacing" textLength="60.6895" x="246.0024" y="102.7803">Controller</text></g><g class="participant participant-head" data-entity-uid="part3" data-qualified-name="BaseReconciler" id="part3-head"><rect fill="#E2E8F0" height="28" rx="8" ry="8" style="stroke:#0F172A;stroke-width:0.5;" width="112.0479" x="459.1494" y="85"/><text fill="#0F172A" font-family="Helvetica" font-size="14" lengthAdjust="spacing" textLength="98.0479" x="466.1494" y="102.7803">BaseReconciler</text></g><g class="participant participant-head" data-entity-uid="part4" data-qualified-name="ServiceManager" id="part4-head"><rect fill="#E2E8F0" height="28" rx="8" ry="8" style="stroke:#0F172A;stroke-width:0.5;" width="156.3926" x="691.6968" y="85"/><text fill="#0F172A" font-family="Helvetica" font-size="14" lengthAdjust="spacing" textLength="142.3926" x="698.6968" y="102.7803">OSOKServiceManager</text></g><g class="participant participant-head" data-entity-uid="part5" data-qualified-name="OCI" id="part5-head"><rect fill="#E2E8F0" height="28" rx="8" ry="8" style="stroke:#0F172A;stroke-width:0.5;" width="38.8896" x="1046.7783" y="85"/><text fill="#0F172A" font-family="Helvetica" font-size="14" lengthAdjust="spacing" textLength="24.8896" x="1053.7783" y="102.7803">OCI</text></g><path d="M450,137 L450,187 A8,8 0 0 0 458,195 L825,195 A8,8 0 0 0 833,187 L833,139 L823,129 L458,129 A8,8 0 0 0 450,137" fill="#FFF7D6" style="stroke:#B45309;stroke-width:0.5;"/><path d="M823,129 L823,135 A4,4 0 0 0 827,139 L833,139 L823,129" fill="#FFF7D6" style="stroke:#B45309;stroke-width:0.5;"/><text fill="#334155" font-family="Helvetica" font-size="14" lengthAdjust="spacing" textLength="111.2891" x="483.7742" y="144.7803">shared resolution:</text><text fill="#334155" font-family="Helvetica" font-size="14" lengthAdjust="spacing" textLength="307.3916" x="483.7742" y="158.7803">shared/diagrams/shared-resolution-sequence.svg</text><text fill="#334155" font-family="Helvetica" font-size="14" lengthAdjust="spacing" textLength="88.7305" x="483.7742" y="172.7803">shared delete:</text><text fill="#334155" font-family="Helvetica" font-size="14" lengthAdjust="spacing" textLength="284.833" x="483.7742" y="186.7803">shared/diagrams/shared-delete-sequence.svg</text><g class="message" data-entity-1="part1" data-entity-2="part2" id="msg1"><polygon fill="#0F172A" points="264.3472,244,274.3472,248,264.3472,252,268.3472,248" style="stroke:#0F172A;stroke-width:1;"/><line style="stroke:#0F172A;stroke-width:1;" x1="43.8032" x2="270.3472" y1="248" y2="248"/><text fill="#000000" font-family="Helvetica" font-size="14" lengthAdjust="spacing" textLength="54.5029" x="50.8032" y="214.7803">enqueue</text><text fill="#000000" font-family="Helvetica" font-size="14" lengthAdjust="spacing" textLength="208.5439" x="50.8032" y="228.7803">UsageProxySubscriptionProducts</text><text fill="#000000" font-family="Helvetica" font-size="14" lengthAdjust="spacing" textLength="56.0273" x="50.8032" y="242.7803">reconcile</text></g><g class="message" data-entity-1="part2" data-entity-2="part3" id="msg2"><polygon fill="#0F172A" points="503.1733,272,513.1733,276,503.1733,280,507.1733,276" style="stroke:#0F172A;stroke-width:1;"/><line style="stroke:#0F172A;stroke-width:1;" x1="276.3472" x2="509.1733" y1="276" y2="276"/><text fill="#000000" font-family="Helvetica" font-size="14" lengthAdjust="spacing" textLength="117.4961" x="283.3472" y="270.7803">Reconcile(request)</text></g><g class="message" data-entity-1="part3" data-entity-2="part4" id="msg3"><polygon fill="#0F172A" points="757.8931,314,767.8931,318,757.8931,322,761.8931,318" style="stroke:#0F172A;stroke-width:1;"/><line style="stroke:#0F172A;stroke-width:1;" x1="515.1733" x2="763.8931" y1="318" y2="318"/><text fill="#000000" font-family="Helvetica" font-size="14" lengthAdjust="spacing" textLength="105.834" x="522.1733" y="298.7803">reconcile desired</text><text fill="#000000" font-family="Helvetica" font-size="14" lengthAdjust="spacing" textLength="208.5439" x="522.1733" y="312.7803">UsageProxySubscriptionProducts</text></g><g class="message" data-entity-1="part4" data-entity-2="part5" id="msg4"><polygon fill="#0F172A" points="1054.2231,342,1064.2231,346,1054.2231,350,1058.2231,346" style="stroke:#0F172A;stroke-width:1;"/><line style="stroke:#0F172A;stroke-width:1;" x1="769.8931" x2="1060.2231" y1="346" y2="346"/><text fill="#000000" font-family="Helvetica" font-size="14" lengthAdjust="spacing" textLength="231.1094" x="776.8931" y="340.7803">GetUsageProxySubscriptionProducts</text></g><path d="M689.6968,361 L748.4624,361 L748.4624,367 L738.4624,377 L681.6968,377 L681.6968,369 A8,8 0 0 1 689.6968,361" fill="#F8FAFC" style="stroke:#CBD5E1;stroke-width:1.5;"/><rect fill="none" height="86" rx="8" ry="8" style="stroke:#CBD5E1;stroke-width:1.5;" width="413.9712" x="681.6968" y="361"/><text fill="#000000" font-family="Helvetica" font-size="14" font-weight="bold" lengthAdjust="spacing" textLength="21.7656" x="696.6968" y="372.7803">opt</text><text fill="#000000" font-family="Helvetica" font-size="14" font-weight="bold" lengthAdjust="spacing" textLength="135.3516" x="763.4624" y="373.7803">[list lookup fallback]</text><g class="message" data-entity-1="part4" data-entity-2="part5" id="msg5"><polygon fill="#0F172A" points="1054.2231,407,1064.2231,411,1054.2231,415,1058.2231,411" style="stroke:#0F172A;stroke-width:1;"/><line style="stroke:#0F172A;stroke-width:1;" x1="769.8931" x2="1060.2231" y1="411" y2="411"/><text fill="#000000" font-family="Helvetica" font-size="14" lengthAdjust="spacing" textLength="272.3301" x="776.8931" y="391.7803">ListUsageProxySubscriptionProducts(filters:</text><text fill="#000000" font-family="Helvetica" font-size="14" lengthAdjust="spacing" textLength="143.1719" x="776.8931" y="405.7803">compartment_id, state)</text></g><g class="message" data-entity-1="part5" data-entity-2="part4" id="msg6"><polygon fill="#0F172A" points="780.8931,435,770.8931,439,780.8931,443,776.8931,439" style="stroke:#0F172A;stroke-width:1;"/><line style="stroke:#0F172A;stroke-width:1;stroke-dasharray:2,2;" x1="774.8931" x2="1065.2231" y1="439" y2="439"/><text fill="#000000" font-family="Helvetica" font-size="14" lengthAdjust="spacing" textLength="156.3994" x="786.8931" y="433.7803">matching collection items</text></g><path d="M679.6968,461 L733.0347,461 L733.0347,467 L723.0347,477 L671.6968,477 L671.6968,469 A8,8 0 0 1 679.6968,461" fill="#F8FAFC" style="stroke:#CBD5E1;stroke-width:1.5;"/><rect fill="none" height="204" rx="8" ry="8" style="stroke:#CBD5E1;stroke-width:1.5;" width="433.9712" x="671.6968" y="461"/><text fill="#000000" font-family="Helvetica" font-size="14" font-weight="bold" lengthAdjust="spacing" textLength="16.3379" x="686.6968" y="472.7803">alt</text><text fill="#000000" font-family="Helvetica" font-size="14" font-weight="bold" lengthAdjust="spacing" textLength="135.3447" x="748.0347" y="473.7803">[create or bind path]</text><g class="message" data-entity-1="part4" data-entity-2="part5" id="msg7"><polygon fill="#0F172A" points="1054.2231,493,1064.2231,497,1054.2231,501,1058.2231,497" style="stroke:#0F172A;stroke-width:1;"/><line style="stroke:#0F172A;stroke-width:1;" x1="769.8931" x2="1060.2231" y1="497" y2="497"/><text fill="#000000" font-family="Helvetica" font-size="14" lengthAdjust="spacing" textLength="250.5645" x="776.8931" y="491.7803">CreateUsageProxySubscriptionProducts</text></g><path d="M689.6968,512 L756.2417,512 L756.2417,518 L746.2417,528 L681.6968,528 L681.6968,520 A8,8 0 0 1 689.6968,512" fill="#F8FAFC" style="stroke:#CBD5E1;stroke-width:1.5;"/><rect fill="none" height="44" rx="8" ry="8" style="stroke:#CBD5E1;stroke-width:1.5;" width="413.9712" x="681.6968" y="512"/><text fill="#000000" font-family="Helvetica" font-size="14" font-weight="bold" lengthAdjust="spacing" textLength="29.5449" x="696.6968" y="523.7803">loop</text><text fill="#000000" font-family="Helvetica" font-size="14" font-weight="bold" lengthAdjust="spacing" textLength="215.4756" x="771.2417" y="524.7803">[create pending PROVISIONING]</text><g class="message" data-entity-1="part4" data-entity-2="part5" id="msg8"><polygon fill="#0F172A" points="1054.2231,544,1064.2231,548,1054.2231,552,1058.2231,548" style="stroke:#0F172A;stroke-width:1;"/><line style="stroke:#0F172A;stroke-width:1;" x1="769.8931" x2="1060.2231" y1="548" y2="548"/><text fill="#000000" font-family="Helvetica" font-size="14" lengthAdjust="spacing" textLength="231.1094" x="776.8931" y="542.7803">GetUsageProxySubscriptionProducts</text></g><line style="stroke:#CBD5E1;stroke-width:1;stroke-dasharray:2,2;" x1="671.6968" x2="1105.668" y1="564" y2="564"/><text fill="#000000" font-family="Helvetica" font-size="14" font-weight="bold" lengthAdjust="spacing" textLength="137.6484" x="676.6968" y="574.7803">[update or drift path]</text><g class="message" data-entity-1="part4" data-entity-2="part5" id="msg9"><polygon fill="#0F172A" points="1054.2231,595,1064.2231,599,1054.2231,603,1058.2231,599" style="stroke:#0F172A;stroke-width:1;"/><line style="stroke:#0F172A;stroke-width:1;" x1="769.8931" x2="1060.2231" y1="599" y2="599"/><text fill="#000000" font-family="Helvetica" font-size="14" lengthAdjust="spacing" textLength="253.6885" x="776.8931" y="593.7803">UpdateUsageProxySubscriptionProducts</text></g><path d="M689.6968,614 L756.2417,614 L756.2417,620 L746.2417,630 L681.6968,630 L681.6968,622 A8,8 0 0 1 689.6968,614" fill="#F8FAFC" style="stroke:#CBD5E1;stroke-width:1.5;"/><rect fill="none" height="44" rx="8" ry="8" style="stroke:#CBD5E1;stroke-width:1.5;" width="413.9712" x="681.6968" y="614"/><text fill="#000000" font-family="Helvetica" font-size="14" font-weight="bold" lengthAdjust="spacing" textLength="29.5449" x="696.6968" y="625.7803">loop</text><text fill="#000000" font-family="Helvetica" font-size="14" font-weight="bold" lengthAdjust="spacing" textLength="190.5381" x="771.2417" y="626.7803">[update pending UPDATING]</text><g class="message" data-entity-1="part4" data-entity-2="part5" id="msg10"><polygon fill="#0F172A" points="1054.2231,646,1064.2231,650,1054.2231,654,1058.2231,650" style="stroke:#0F172A;stroke-width:1;"/><line style="stroke:#0F172A;stroke-width:1;" x1="769.8931" x2="1060.2231" y1="650" y2="650"/><text fill="#000000" font-family="Helvetica" font-size="14" lengthAdjust="spacing" textLength="231.1094" x="776.8931" y="644.7803">GetUsageProxySubscriptionProducts</text></g><path d="M679.6968,679 L738.4624,679 L738.4624,685 L728.4624,695 L671.6968,695 L671.6968,687 A8,8 0 0 1 679.6968,679" fill="#F8FAFC" style="stroke:#CBD5E1;stroke-width:1.5;"/><rect fill="none" height="116" rx="8" ry="8" style="stroke:#CBD5E1;stroke-width:1.5;" width="433.9712" x="671.6968" y="679"/><text fill="#000000" font-family="Helvetica" font-size="14" font-weight="bold" lengthAdjust="spacing" textLength="21.7656" x="686.6968" y="690.7803">opt</text><text fill="#000000" font-family="Helvetica" font-size="14" font-weight="bold" lengthAdjust="spacing" textLength="120.5859" x="753.4624" y="691.7803">[delete requested]</text><g class="message" data-entity-1="part4" data-entity-2="part5" id="msg11"><polygon fill="#0F172A" points="1054.2231,711,1064.2231,715,1054.2231,719,1058.2231,715" style="stroke:#0F172A;stroke-width:1;"/><line style="stroke:#0F172A;stroke-width:1;" x1="769.8931" x2="1060.2231" y1="715" y2="715"/><text fill="#000000" font-family="Helvetica" font-size="14" lengthAdjust="spacing" textLength="249.0127" x="776.8931" y="709.7803">DeleteUsageProxySubscriptionProducts</text></g><path d="M689.6968,730 L756.2417,730 L756.2417,736 L746.2417,746 L681.6968,746 L681.6968,738 A8,8 0 0 1 689.6968,730" fill="#F8FAFC" style="stroke:#CBD5E1;stroke-width:1.5;"/><rect fill="none" height="58" rx="8" ry="8" style="stroke:#CBD5E1;stroke-width:1.5;" width="413.9712" x="681.6968" y="730"/><text fill="#000000" font-family="Helvetica" font-size="14" font-weight="bold" lengthAdjust="spacing" textLength="29.5449" x="696.6968" y="741.7803">loop</text><text fill="#000000" font-family="Helvetica" font-size="14" font-weight="bold" lengthAdjust="spacing" textLength="213.124" x="771.2417" y="742.7803">[delete confirmation DELETING]</text><g class="message" data-entity-1="part4" data-entity-2="part5" id="msg12"><polygon fill="#0F172A" points="1054.2231,776,1064.2231,780,1054.2231,784,1058.2231,780" style="stroke:#0F172A;stroke-width:1;"/><line style="stroke:#0F172A;stroke-width:1;" x1="769.8931" x2="1060.2231" y1="780" y2="780"/><text fill="#000000" font-family="Helvetica" font-size="14" lengthAdjust="spacing" textLength="247.4473" x="776.8931" y="760.7803">GetUsageProxySubscriptionProducts or</text><text fill="#000000" font-family="Helvetica" font-size="14" lengthAdjust="spacing" textLength="230.3301" x="776.8931" y="774.7803">ListUsageProxySubscriptionProducts</text></g><g class="message" data-entity-1="part4" data-entity-2="part3" id="msg13"><polygon fill="#0F172A" points="526.1733,832,516.1733,836,526.1733,840,522.1733,836" style="stroke:#0F172A;stroke-width:1;"/><line style="stroke:#0F172A;stroke-width:1;stroke-dasharray:2,2;" x1="520.1733" x2="768.8931" y1="836" y2="836"/><text fill="#000000" font-family="Helvetica" font-size="14" lengthAdjust="spacing" textLength="100.7822" x="532.1733" y="816.7803">status=required,</text><text fill="#000000" font-family="Helvetica" font-size="14" lengthAdjust="spacing" textLength="230.7197" x="532.1733" y="830.7803">finalizer=retain-until-confirmed-delete</text></g><g class="message" data-entity-1="part3" data-entity-2="part2" id="msg14"><polygon fill="#0F172A" points="287.3472,874,277.3472,878,287.3472,882,283.3472,878" style="stroke:#0F172A;stroke-width:1;"/><line style="stroke:#0F172A;stroke-width:1;stroke-dasharray:2,2;" x1="281.3472" x2="514.1733" y1="878" y2="878"/><text fill="#000000" font-family="Helvetica" font-size="14" lengthAdjust="spacing" textLength="214.8262" x="293.3472" y="858.7803">requeue on provisioning, updating,</text><text fill="#000000" font-family="Helvetica" font-size="14" lengthAdjust="spacing" textLength="69.2549" x="293.3472" y="872.7803">terminating</text></g><path d="M774,899 L774,1285 A8,8 0 0 0 782,1293 L1106,1293 A8,8 0 0 0 1114,1285 L1114,901 L1104,891 L782,891 A8,8 0 0 0 774,899" fill="#FFF7D6" style="stroke:#B45309;stroke-width:0.5;"/><path d="M1104,891 L1104,897 A4,4 0 0 0 1108,901 L1114,901 L1104,891" fill="#FFF7D6" style="stroke:#B45309;stroke-width:0.5;"/><text fill="#334155" font-family="Helvetica" font-size="14" lengthAdjust="spacing" textLength="101.165" x="780" y="906.7803">shared diagram:</text><text fill="#334155" font-family="Helvetica" font-size="14" lengthAdjust="spacing" textLength="307.3916" x="780" y="920.7803">shared/diagrams/shared-resolution-sequence.svg</text><text fill="#334155" font-family="Helvetica" font-size="14" lengthAdjust="spacing" textLength="143.1992" x="780" y="934.7803">shared delete diagram:</text><text fill="#334155" font-family="Helvetica" font-size="14" lengthAdjust="spacing" textLength="284.833" x="780" y="948.7803">shared/diagrams/shared-delete-sequence.svg</text><text fill="#334155" font-family="Helvetica" font-size="14" lengthAdjust="spacing" textLength="280.9297" x="780" y="962.7803">Start from the shared resolution sequence for</text><text fill="#334155" font-family="Helvetica" font-size="14" lengthAdjust="spacing" textLength="260.7295" x="780" y="976.7803">OCID binding, datasource pagination, and</text><text fill="#334155" font-family="Helvetica" font-size="14" lengthAdjust="spacing" textLength="163.4268" x="780" y="990.7803">create-or-update dispatch.</text><text fill="#334155" font-family="Helvetica" font-size="14" lengthAdjust="spacing" textLength="301.1982" x="780" y="1004.7803">Layer the shared delete sequence when finalizer</text><text fill="#334155" font-family="Helvetica" font-size="14" lengthAdjust="spacing" textLength="269.2471" x="780" y="1018.7803">retention, delete confirmation, work-request</text><text fill="#334155" font-family="Helvetica" font-size="14" lengthAdjust="spacing" textLength="199.2334" x="780" y="1032.7803">polling, or Secret cleanup apply.</text><text fill="#334155" font-family="Helvetica" font-size="14" lengthAdjust="spacing" textLength="281.709" x="780" y="1046.7803">archetype batch: Generated service-manager</text><text fill="#334155" font-family="Helvetica" font-size="14" lengthAdjust="spacing" textLength="266.1504" x="780" y="1060.7803">controllers follow the shared resolution and</text><text fill="#334155" font-family="Helvetica" font-size="14" lengthAdjust="spacing" textLength="259.9297" x="780" y="1074.7803">delete sequences with imported waits and</text><text fill="#334155" font-family="Helvetica" font-size="14" lengthAdjust="spacing" textLength="134.6064" x="780" y="1088.7803">controller-local policy.</text><text fill="#334155" font-family="Helvetica" font-size="14" lengthAdjust="spacing" textLength="124.5029" x="780" y="1102.7803">service: usageproxy</text><text fill="#334155" font-family="Helvetica" font-size="14" lengthAdjust="spacing" textLength="234.2402" x="780" y="1116.7803">slug: usageproxysubscriptionproducts</text><text fill="#334155" font-family="Helvetica" font-size="14" lengthAdjust="spacing" textLength="242.0059" x="780" y="1130.7803">kind: UsageProxySubscriptionProducts</text><text fill="#334155" font-family="Helvetica" font-size="14" lengthAdjust="spacing" textLength="241.2402" x="780" y="1144.7803">archetype: generated-service-manager</text><text fill="#334155" font-family="Helvetica" font-size="14" lengthAdjust="spacing" textLength="156.4063" x="780" y="1158.7803">status/finalizer: required /</text><text fill="#334155" font-family="Helvetica" font-size="14" lengthAdjust="spacing" textLength="174.3027" x="780" y="1172.7803">retain-until-confirmed-delete</text><text fill="#334155" font-family="Helvetica" font-size="14" lengthAdjust="spacing" textLength="272.3984" x="780" y="1186.7803">requeue: provisioning, updating, terminating</text><text fill="#334155" font-family="Helvetica" font-size="14" lengthAdjust="spacing" textLength="295.6816" x="780" y="1200.7803">provider states: create PROVISIONING; update</text><text fill="#334155" font-family="Helvetica" font-size="14" lengthAdjust="spacing" textLength="192.165" x="780" y="1214.7803">UPDATING; delete DELETING</text><text fill="#334155" font-family="Helvetica" font-size="14" lengthAdjust="spacing" textLength="319.04" x="780" y="1228.7803">mutable/forceNew: display_name / compartment_id</text><text fill="#334155" font-family="Helvetica" font-size="14" lengthAdjust="spacing" textLength="104.3164" x="780" y="1242.7803">open gaps: none</text><text fill="#334155" font-family="Helvetica" font-size="14" lengthAdjust="spacing" textLength="224.9023" x="780" y="1256.7803">Scaffold metadata only; replace with</text><text fill="#334155" font-family="Helvetica" font-size="14" lengthAdjust="spacing" textLength="244.3232" x="780" y="1270.7803">controller-specific runtime states before</text><text fill="#334155" font-family="Helvetica" font-size="14" lengthAdjust="spacing" textLength="66.1445" x="780" y="1284.7803">promotion.</text><?plantuml-src fLPXRzis4FtENt7elhI05STDqgOADc1DkZPebWJriay62feysKGeKYCfkzwm_xwZB2cIOyV1WY218XuVtxjtTwA_LwRWZkVWvrpQfJ8poBZso7oxCkNYVkPiQUIvrTR1JvcW7zc9a9ZnKeVVh0dNF4VuWdg1GGc-FMQi_aOO7NSMkNDsMQCVPgFtRxixZGtuyH67B7iltsr6MIVHrH7JuvEZmmyR4V7uUltew7XqSj9Ph-25TGOTZDwne8966EDV9Hg1a43f-GmBPt-iXdVnyJO-Zikf5quLGLb3BsGfWcTp9H4oQyFK_kWSu1kiVnW05y6w7k5QUBEqgHZVucbsICi4HhbL1JTX-_vkm7DGEabfCRJAy4gPVae_7FEZwIcjHiYYjoIcyWH7xT8ZkqupdWdsBwkqmTToYfJdW9vrUC0v4N5MQtIzrn-vnsyeh15gS-dLpVZcwnZTGWdydHjonRq2xg7_ghVbvloInL80ko2Z-zY3ZNtK50ubEFHMbz7Yj7urb8hFo5C_NF-VF8GaZSq7VZ5h42HgKhjpztgvlnEDh4gMFIGBabywEKe13SMNE35Fr-F4k4OXUzWUmVhgKsYVNxj8nOSth1yID_Lpb48BJYgz8Zdx-B0-GiGaKrBuZ67FHbi4ganFVwozBuiugdGSJxiGhoZsQSZNcT81dKydHjWyracE9dnNSW0-y81l6051iaLspeEOntafOZf510KLCFVHESPr0E6GnpfpC5LaPi73V1VHyofqZteINJIW1HqI3x_zTlFdvVZovlho-lF_psjaZ3JreInaJLawbOKdETzLiS_XNACsdEzkBtxzu-LywJVMmxfte2vObBjGBwguvz2j4QcgC-N8vkZinQUhJo_YJ3cTcFtrs4hRF6TBjyO2BVtFKNbiky64-1gkwUlgw6NWoYIb2KedjP9sq3ngwesvKkMof38mGD-xXV94a8mRh8sCJnD3JPFJQV6_zJXrQZOFO3FOFaFhaVUo0ReNPTiW7GVgQiYSpI7C4HxDz8VlScPTRFUBgbyhmIINUriwMYpuhD9hpG0u6RHknCIwf2vlgNmHPy81k-8hochdi9fzUz1oZWPQinYPHKEdGjvIUmDOMdUVr0NE2ZAfuaPDEaPYGOD68pSq3dbHwDK1uqxCCQmAfAiRyOd5INSQeYY9GULDajVcYDPrJ-grjiiTEOgADrHuMAem1vKNraNi9LTKvbLgMjH4My4r46SbY5bzVDgvIp6lordtXUzqHT5q1TsX94sSfrkdrPt2h56SR2fUDysmJVwwscF_m90ztJLrMwIxcWAwFL75qFre_HdnQJEukmFxh9wCh9c8Put_xRZ9oy2d6eTKcWAlSPbMPQRvwhk9D-qXzBzQD16ficQye0EDDSZ6WcTah8ISfCLgfgRMgpCIJI2n4id2hb--GA4o9S359D09Q_emHMA0KLLkOz8Fsll9Vm00?></g></svg>