<?plantuml 1.2026.1?><svg xmlns="http://www.w3.org/2000/svg" xmlns:xlink="http://www.w3.org/1999/xlink" contentStyleType="text/css" data-diagram-type="ACTIVITY" height="2229px" preserveAspectRatio="none" style="width:1269px;height:2229px;background:#FCFCFD;" version="1.1" viewBox="0 0 1269 2229" width="1269px" zoomAndPan="magnify"><title>Activity - dns/DnsZonePromoteDnssecKeyVersion</title><defs/><g><rect fill="#FCFCFD" height="2229" style="stroke:none;stroke-width:1;" width="1269" x="0" y="0"/><g class="title" data-source-line="10"><text fill="#000000" font-family="Helvetica" font-size="14" font-weight="bold" lengthAdjust="spacing" textLength="335.3096" x="465.6123" y="30.7803">Activity - dns/DnsZonePromoteDnssecKeyVersion</text></g><ellipse cx="672.0061" cy="55" fill="#1D4ED8" rx="10" ry="10" style="stroke:#222222;stroke-width:1;"/><rect fill="none" height="458" rx="8" ry="8" style="stroke:#000000;stroke-width:1.5;" width="677.3906" x="352.3796" y="75"/><path d="M474.448,75 L474.448,82 L464.448,92 L352.3796,92" fill="none" style="stroke:#000000;stroke-width:1.5;"/><text fill="#000000" font-family="Helvetica" font-size="14" lengthAdjust="spacing" textLength="112.0684" x="355.3796" y="86.7803">Observe and Bind</text><rect fill="#F8FAFC" height="48" rx="8" ry="8" style="stroke:#0F172A;stroke-width:0.5;" width="304.7852" x="519.6135" y="109"/><text fill="#0F172A" font-family="Helvetica" font-size="14" lengthAdjust="spacing" textLength="136.9375" x="529.6135" y="129.7803">Start from shared flow</text><text fill="#0F172A" font-family="Helvetica" font-size="14" lengthAdjust="spacing" textLength="284.7852" x="529.6135" y="143.7803">shared/diagrams/shared-reconcile-activity.svg</text><rect fill="#F8FAFC" height="48" rx="8" ry="8" style="stroke:#0F172A;stroke-width:0.5;" width="335.1572" x="504.4275" y="177"/><text fill="#0F172A" font-family="Helvetica" font-size="14" lengthAdjust="spacing" textLength="315.1572" x="514.4275" y="197.7803">Read desired DnsZonePromoteDnssecKeyVersion</text><text fill="#0F172A" font-family="Helvetica" font-size="14" lengthAdjust="spacing" textLength="235.8125" x="514.4275" y="211.7803">spec, tracked status, and delete intent</text><polygon fill="#E2E8F0" points="542.5403,245,801.4719,245,813.4719,257,801.4719,269,542.5403,269,530.5403,257,542.5403,245" style="stroke:#1D4ED8;stroke-width:0.5;"/><text fill="#0F172A" font-family="Helvetica" font-size="14" lengthAdjust="spacing" textLength="258.9316" x="542.5403" y="260.7803">"Tracked or explicit OCI identity present?"</text><text fill="#000000" font-family="Helvetica" font-size="14" lengthAdjust="spacing" textLength="21.7861" x="508.7542" y="253.7803">yes</text><text fill="#000000" font-family="Helvetica" font-size="14" lengthAdjust="spacing" textLength="15.5723" x="813.4719" y="253.7803">no</text><rect fill="#F8FAFC" height="48" rx="8" ry="8" style="stroke:#0F172A;stroke-width:0.5;" width="270.5576" x="372.3796" y="279"/><text fill="#0F172A" font-family="Helvetica" font-size="14" lengthAdjust="spacing" textLength="202.3027" x="382.3796" y="299.7803">Get the current OCI resource via</text><text fill="#0F172A" font-family="Helvetica" font-size="14" lengthAdjust="spacing" textLength="250.5576" x="382.3796" y="313.7803">GetDnsZonePromoteDnssecKeyVersion</text><rect fill="#F8FAFC" height="62" rx="8" ry="8" style="stroke:#0F172A;stroke-width:0.5;" width="307.1367" x="682.7854" y="279"/><text fill="#0F172A" font-family="Helvetica" font-size="14" lengthAdjust="spacing" textLength="259.9092" x="692.7854" y="299.7803">Resolve an existing OCI resource through</text><text fill="#0F172A" font-family="Helvetica" font-size="14" lengthAdjust="spacing" textLength="287.1367" x="692.7854" y="313.7803">ListDnsZonePromoteDnssecKeyVersion using</text><text fill="#0F172A" font-family="Helvetica" font-size="14" lengthAdjust="spacing" textLength="175.8477" x="692.7854" y="327.7803">filters compartment_id, state</text><rect fill="#F8FAFC" height="62" rx="8" ry="8" style="stroke:#0F172A;stroke-width:0.5;" width="346.833" x="662.9373" y="361"/><text fill="#0F172A" font-family="Helvetica" font-size="14" lengthAdjust="spacing" textLength="174.2959" x="672.9373" y="381.7803">Create the OCI resource via</text><text fill="#0F172A" font-family="Helvetica" font-size="14" lengthAdjust="spacing" textLength="326.833" x="672.9373" y="395.7803">CreateDnsZonePromoteDnssecKeyVersion when no</text><text fill="#0F172A" font-family="Helvetica" font-size="14" lengthAdjust="spacing" textLength="148.6406" x="672.9373" y="409.7803">reusable match is found</text><rect fill="#F8FAFC" height="48" rx="8" ry="8" style="stroke:#0F172A;stroke-width:0.5;" width="286.8955" x="692.906" y="443"/><text fill="#0F172A" font-family="Helvetica" font-size="14" lengthAdjust="spacing" textLength="266.8955" x="702.906" y="463.7803">Persist the resolved or created OCI identity</text><text fill="#0F172A" font-family="Helvetica" font-size="14" lengthAdjust="spacing" textLength="63.8135" x="702.906" y="477.7803">into status</text><polygon fill="#E2E8F0" points="672.0061,497,684.0061,509,672.0061,521,660.0061,509,672.0061,497" style="stroke:#1D4ED8;stroke-width:0.5;"/><polygon fill="#E2E8F0" points="609.8298,553,734.1824,553,746.1824,565,734.1824,577,609.8298,577,597.8298,565,609.8298,553" style="stroke:#1D4ED8;stroke-width:0.5;"/><text fill="#0F172A" font-family="Helvetica" font-size="14" lengthAdjust="spacing" textLength="124.3525" x="609.8298" y="568.7803">"Delete requested?"</text><text fill="#000000" font-family="Helvetica" font-size="14" lengthAdjust="spacing" textLength="21.7861" x="576.0437" y="561.7803">yes</text><text fill="#000000" font-family="Helvetica" font-size="14" lengthAdjust="spacing" textLength="15.5723" x="746.1824" y="561.7803">no</text><rect fill="none" height="395.5" rx="8" ry="8" style="stroke:#000000;stroke-width:1.5;" width="644.4814" x="11" y="587"/><path d="M61.4688,587 L61.4688,594 L51.4688,604 L11,604" fill="none" style="stroke:#000000;stroke-width:1.5;"/><text fill="#000000" font-family="Helvetica" font-size="14" lengthAdjust="spacing" textLength="40.4688" x="14" y="598.7803">Delete</text><rect fill="#F8FAFC" height="90" rx="8" ry="8" style="stroke:#0F172A;stroke-width:0.5;" width="347.5986" x="165.9448" y="621"/><text fill="#0F172A" font-family="Helvetica" font-size="14" lengthAdjust="spacing" textLength="105.0684" x="175.9448" y="641.7803">Delete path uses</text><text fill="#0F172A" font-family="Helvetica" font-size="14" lengthAdjust="spacing" textLength="297.2471" x="175.9448" y="655.7803">DeleteDnsZonePromoteDnssecKeyVersion with</text><text fill="#0F172A" font-family="Helvetica" font-size="14" lengthAdjust="spacing" textLength="327.5986" x="175.9448" y="669.7803">required via GetDnsZonePromoteDnssecKeyVersion</text><text fill="#0F172A" font-family="Helvetica" font-size="14" lengthAdjust="spacing" textLength="281.6816" x="175.9448" y="683.7803">or ListDnsZonePromoteDnssecKeyVersion to</text><text fill="#0F172A" font-family="Helvetica" font-size="14" lengthAdjust="spacing" textLength="144.7168" x="175.9448" y="697.7803">DELETED confirmation</text><rect fill="#F8FAFC" height="76" rx="8" ry="8" style="stroke:#0F172A;stroke-width:0.5;" width="328.1299" x="175.6792" y="739.5"/><text fill="#0F172A" font-family="Helvetica" font-size="14" lengthAdjust="spacing" textLength="123.7236" x="185.6792" y="760.2803">Confirm deletion via</text><text fill="#0F172A" font-family="Helvetica" font-size="14" lengthAdjust="spacing" textLength="266.8955" x="185.6792" y="774.2803">GetDnsZonePromoteDnssecKeyVersion or</text><text fill="#0F172A" font-family="Helvetica" font-size="14" lengthAdjust="spacing" textLength="308.1299" x="185.6792" y="788.2803">ListDnsZonePromoteDnssecKeyVersion until OCI</text><text fill="#0F172A" font-family="Helvetica" font-size="14" lengthAdjust="spacing" textLength="118.2686" x="185.6792" y="802.2803">reaches DELETED</text><polygon fill="#E2E8F0" points="191.5718,850.5,487.9165,850.5,499.9165,862.5,487.9165,874.5,191.5718,874.5,179.5718,862.5,191.5718,850.5" style="stroke:#1D4ED8;stroke-width:0.5;"/><text fill="#0F172A" font-family="Helvetica" font-size="14" lengthAdjust="spacing" textLength="296.3447" x="191.5718" y="866.2803">"Delete cleanup and finalizer release succeed?"</text><text fill="#000000" font-family="Helvetica" font-size="14" lengthAdjust="spacing" textLength="21.7861" x="157.7856" y="859.2803">yes</text><text fill="#000000" font-family="Helvetica" font-size="14" lengthAdjust="spacing" textLength="15.5723" x="499.9165" y="859.2803">no</text><rect fill="#F8FAFC" height="34" rx="8" ry="8" style="stroke:#0F172A;stroke-width:0.5;" width="293.1436" x="23" y="884.5"/><text fill="#0F172A" font-family="Helvetica" font-size="14" lengthAdjust="spacing" textLength="273.1436" x="33" y="905.2803">Remove the finalizer after delete completion</text><rect fill="#F8FAFC" height="48" rx="8" ry="8" style="stroke:#0F172A;stroke-width:0.5;" width="251.1299" x="384.3516" y="884.5"/><text fill="#0F172A" font-family="Helvetica" font-size="14" lengthAdjust="spacing" textLength="231.1299" x="394.3516" y="905.2803">Stay blocked until cleanup or finalizer</text><text fill="#0F172A" font-family="Helvetica" font-size="14" lengthAdjust="spacing" textLength="108.9512" x="394.3516" y="919.2803">release succeeds</text><polygon fill="#E2E8F0" points="339.7441,938.5,351.7441,950.5,339.7441,962.5,327.7441,950.5,339.7441,938.5" style="stroke:#1D4ED8;stroke-width:0.5;"/><ellipse cx="339.7441" cy="1019.5" fill="none" rx="11" ry="11" style="stroke:#222222;stroke-width:1;"/><ellipse cx="339.7441" cy="1019.5" fill="#222222" rx="6" ry="6" style="stroke:#222222;stroke-width:1;"/><rect fill="none" height="443.5" rx="8" ry="8" style="stroke:#000000;stroke-width:1.5;" width="345.916" x="837.3101" y="587"/><path d="M988.144,587 L988.144,594 L978.144,604 L837.3101,604" fill="none" style="stroke:#000000;stroke-width:1.5;"/><text fill="#000000" font-family="Helvetica" font-size="14" lengthAdjust="spacing" textLength="140.834" x="840.3101" y="598.7803">Lifecycle Classification</text><rect fill="#F8FAFC" height="48" rx="8" ry="8" style="stroke:#0F172A;stroke-width:0.5;" width="280.5928" x="863.9717" y="670"/><text fill="#0F172A" font-family="Helvetica" font-size="14" lengthAdjust="spacing" textLength="240.4541" x="873.9717" y="690.7803">Request requeue while OCI remains in</text><text fill="#0F172A" font-family="Helvetica" font-size="14" lengthAdjust="spacing" textLength="260.5928" x="873.9717" y="704.7803">PROVISIONING, UPDATING, DELETING</text><ellipse cx="1004.2681" cy="757.5" fill="none" rx="11" ry="11" style="stroke:#222222;stroke-width:1;"/><ellipse cx="1004.2681" cy="757.5" fill="#222222" rx="6" ry="6" style="stroke:#222222;stroke-width:1;"/><polygon fill="#E2E8F0" points="917.9849,621,1090.5513,621,1102.5513,633,1090.5513,645,917.9849,645,905.9849,633,917.9849,621" style="stroke:#1D4ED8;stroke-width:0.5;"/><text fill="#000000" font-family="Helvetica" font-size="14" lengthAdjust="spacing" textLength="21.7861" x="1008.2681" y="655.7803">yes</text><text fill="#0F172A" font-family="Helvetica" font-size="14" lengthAdjust="spacing" textLength="172.5664" x="917.9849" y="636.7803">"OCI state in retryable set?"</text><rect fill="#F8FAFC" height="48" rx="8" ry="8" style="stroke:#0F172A;stroke-width:0.5;" width="293.916" x="857.3101" y="883.5"/><text fill="#0F172A" font-family="Helvetica" font-size="14" lengthAdjust="spacing" textLength="273.916" x="867.3101" y="904.2803">Return an unsuccessful reconcile result until</text><text fill="#0F172A" font-family="Helvetica" font-size="14" lengthAdjust="spacing" textLength="133.041" x="867.3101" y="918.2803">OCI reaches ACTIVE</text><ellipse cx="1004.2681" cy="977.5" fill="none" rx="11" ry="11" style="stroke:#222222;stroke-width:1;"/><ellipse cx="1004.2681" cy="977.5" fill="#222222" rx="6" ry="6" style="stroke:#222222;stroke-width:1;"/><polygon fill="#E2E8F0" points="883.7471,834.5,1124.7891,834.5,1136.7891,846.5,1124.7891,858.5,883.7471,858.5,871.7471,846.5,883.7471,834.5" style="stroke:#1D4ED8;stroke-width:0.5;"/><text fill="#000000" font-family="Helvetica" font-size="14" lengthAdjust="spacing" textLength="21.7861" x="1008.2681" y="869.2803">yes</text><text fill="#0F172A" font-family="Helvetica" font-size="14" lengthAdjust="spacing" textLength="241.042" x="883.7471" y="850.2803">"OCI state is outside success targets?"</text><rect fill="none" height="722.5" rx="8" ry="8" style="stroke:#000000;stroke-width:1.5;" width="583.0527" x="675.4814" y="1040.5"/><path d="M841.9014,1040.5 L841.9014,1047.5 L831.9014,1057.5 L675.4814,1057.5" fill="none" style="stroke:#000000;stroke-width:1.5;"/><text fill="#000000" font-family="Helvetica" font-size="14" lengthAdjust="spacing" textLength="156.4199" x="678.4814" y="1052.2803">Ready and Drift Handling</text><rect fill="#F8FAFC" height="48" rx="8" ry="8" style="stroke:#0F172A;stroke-width:0.5;" width="296.2402" x="856.1479" y="1074.5"/><text fill="#0F172A" font-family="Helvetica" font-size="14" lengthAdjust="spacing" textLength="276.2402" x="866.1479" y="1095.2803">Compare live OCI state against the imported</text><text fill="#0F172A" font-family="Helvetica" font-size="14" lengthAdjust="spacing" textLength="75.4824" x="866.1479" y="1109.2803">field surface</text><rect fill="#F8FAFC" height="48" rx="8" ry="8" style="stroke:#0F172A;stroke-width:0.5;" width="302.4473" x="853.0444" y="1191.5"/><text fill="#0F172A" font-family="Helvetica" font-size="14" lengthAdjust="spacing" textLength="282.4473" x="863.0444" y="1212.2803">Reject drift before OCI mutation for force-new</text><text fill="#0F172A" font-family="Helvetica" font-size="14" lengthAdjust="spacing" textLength="136.9512" x="863.0444" y="1226.2803">fields compartment_id</text><ellipse cx="1004.2681" cy="1272" fill="none" rx="11" ry="11" style="stroke:#222222;stroke-width:1;"/><ellipse cx="1004.2681" cy="1272" fill="#222222" rx="6" ry="6" style="stroke:#222222;stroke-width:1;"/><polygon fill="#E2E8F0" points="878.6851,1142.5,1129.8511,1142.5,1141.8511,1154.5,1129.8511,1166.5,878.6851,1166.5,866.6851,1154.5,878.6851,1142.5" style="stroke:#1D4ED8;stroke-width:0.5;"/><text fill="#000000" font-family="Helvetica" font-size="14" lengthAdjust="spacing" textLength="21.7861" x="1008.2681" y="1177.2803">yes</text><text fill="#0F172A" font-family="Helvetica" font-size="14" lengthAdjust="spacing" textLength="251.166" x="878.6851" y="1158.2803">"Force-new or conflicting drift detected?"</text><polygon fill="#E2E8F0" points="893.8403,1325,1114.6958,1325,1126.6958,1337,1114.6958,1349,893.8403,1349,881.8403,1337,893.8403,1325" style="stroke:#1D4ED8;stroke-width:0.5;"/><text fill="#0F172A" font-family="Helvetica" font-size="14" lengthAdjust="spacing" textLength="220.8555" x="893.8403" y="1340.7803">"Supported mutable drift detected?"</text><text fill="#000000" font-family="Helvetica" font-size="14" lengthAdjust="spacing" textLength="21.7861" x="860.0542" y="1333.7803">yes</text><text fill="#000000" font-family="Helvetica" font-size="14" lengthAdjust="spacing" textLength="15.5723" x="1126.6958" y="1333.7803">no</text><rect fill="#F8FAFC" height="48" rx="8" ry="8" style="stroke:#0F172A;stroke-width:0.5;" width="332.0469" x="695.4814" y="1359"/><text fill="#0F172A" font-family="Helvetica" font-size="14" lengthAdjust="spacing" textLength="312.0469" x="705.4814" y="1379.7803">Apply UpdateDnsZonePromoteDnssecKeyVersion</text><text fill="#0F172A" font-family="Helvetica" font-size="14" lengthAdjust="spacing" textLength="226.4541" x="705.4814" y="1393.7803">only for mutable fields display_name</text><rect fill="#F8FAFC" height="34" rx="8" ry="8" style="stroke:#0F172A;stroke-width:0.5;" width="199.0059" x="1047.5283" y="1359"/><text fill="#0F172A" font-family="Helvetica" font-size="14" lengthAdjust="spacing" textLength="179.0059" x="1057.5283" y="1379.7803">Skip the no-op mutation path</text><polygon fill="#E2E8F0" points="1004.2681,1413,1016.2681,1425,1004.2681,1437,992.2681,1425,1004.2681,1413" style="stroke:#1D4ED8;stroke-width:0.5;"/><rect fill="#F8FAFC" height="118" rx="8" ry="8" style="stroke:#0F172A;stroke-width:0.5;" width="334.3164" x="837.1099" y="1457"/><text fill="#0F172A" font-family="Helvetica" font-size="14" lengthAdjust="spacing" textLength="164.2061" x="847.1099" y="1477.7803">Run provider helper hooks</text><text fill="#0F172A" font-family="Helvetica" font-size="14" lengthAdjust="spacing" textLength="219.0508" x="847.1099" y="1491.7803">create=tfresource.CreateResource,</text><text fill="#0F172A" font-family="Helvetica" font-size="14" lengthAdjust="spacing" textLength="314.3164" x="847.1099" y="1505.7803">tfresource.WaitForWorkRequestWithErrorHandling</text><text fill="#0F172A" font-family="Helvetica" font-size="14" lengthAdjust="spacing" textLength="215.5439" x="847.1099" y="1519.7803">entity=template action=CREATED;</text><text fill="#0F172A" font-family="Helvetica" font-size="14" lengthAdjust="spacing" textLength="226.085" x="847.1099" y="1533.7803">update=tfresource.UpdateResource;</text><text fill="#0F172A" font-family="Helvetica" font-size="14" lengthAdjust="spacing" textLength="273.5537" x="847.1099" y="1547.7803">delete=tfresource.DeleteResource when the</text><text fill="#0F172A" font-family="Helvetica" font-size="14" lengthAdjust="spacing" textLength="220.2334" x="847.1099" y="1561.7803">matching field-driven path executes</text><rect fill="#F8FAFC" height="34" rx="8" ry="8" style="stroke:#0F172A;stroke-width:0.5;" width="303.2197" x="852.6582" y="1595"/><text fill="#0F172A" font-family="Helvetica" font-size="14" lengthAdjust="spacing" textLength="283.2197" x="862.6582" y="1615.7803">Return success for the ACTIVE success state</text><rect fill="#F8FAFC" height="48" rx="8" ry="8" style="stroke:#0F172A;stroke-width:0.5;" width="279.1299" x="864.7031" y="1649"/><text fill="#0F172A" font-family="Helvetica" font-size="14" lengthAdjust="spacing" textLength="259.1299" x="874.7031" y="1669.7803">Project required status and finalizer policy</text><text fill="#0F172A" font-family="Helvetica" font-size="14" lengthAdjust="spacing" textLength="174.3027" x="874.7031" y="1683.7803">retain-until-confirmed-delete</text><rect fill="#F8FAFC" height="34" rx="8" ry="8" style="stroke:#0F172A;stroke-width:0.5;" width="313.4189" x="847.5586" y="1717"/><text fill="#0F172A" font-family="Helvetica" font-size="14" lengthAdjust="spacing" textLength="293.4189" x="857.5586" y="1737.7803">Requeue on provisioning, updating, terminating</text><path d="M703.0061,1773 L703.0061,1991 L683.0061,1995 L703.0061,1999 L703.0061,2217 A0,0 0 0 0 703.0061,2217 L1025.9631,2217 A0,0 0 0 0 1025.9631,2217 L1025.9631,1783 L1015.9631,1773 L703.0061,1773 A0,0 0 0 0 703.0061,1773" fill="#FFF7D6" style="stroke:#B45309;stroke-width:0.5;"/><path d="M1015.9631,1773 L1015.9631,1783 L1025.9631,1783 L1015.9631,1773" fill="#FFF7D6" style="stroke:#B45309;stroke-width:0.5;"/><text fill="#334155" font-family="Helvetica" font-size="14" lengthAdjust="spacing" textLength="101.165" x="709.0061" y="1788.7803">shared diagram:</text><text fill="#334155" font-family="Helvetica" font-size="14" lengthAdjust="spacing" textLength="284.7852" x="709.0061" y="1802.7803">shared/diagrams/shared-reconcile-activity.svg</text><text fill="#334155" font-family="Helvetica" font-size="14" lengthAdjust="spacing" textLength="265.3438" x="709.0061" y="1816.7803">Start from the shared reconcile activity and</text><text fill="#334155" font-family="Helvetica" font-size="14" lengthAdjust="spacing" textLength="273.8955" x="709.0061" y="1830.7803">specialize provider-backed CRUD, wait, and</text><text fill="#334155" font-family="Helvetica" font-size="14" lengthAdjust="spacing" textLength="182.875" x="709.0061" y="1844.7803">status-projection details here.</text><text fill="#334155" font-family="Helvetica" font-size="14" lengthAdjust="spacing" textLength="229.5371" x="709.0061" y="1858.7803">Controller-local activity diagrams add</text><text fill="#334155" font-family="Helvetica" font-size="14" lengthAdjust="spacing" textLength="238.8955" x="709.0061" y="1872.7803">list-lookup hints, secret policies, delete</text><text fill="#334155" font-family="Helvetica" font-size="14" lengthAdjust="spacing" textLength="200.0332" x="709.0061" y="1886.7803">handling, and open formal gaps.</text><text fill="#334155" font-family="Helvetica" font-size="14" lengthAdjust="spacing" textLength="281.709" x="709.0061" y="1900.7803">archetype batch: Generated service-manager</text><text fill="#334155" font-family="Helvetica" font-size="14" lengthAdjust="spacing" textLength="291.0469" x="709.0061" y="1914.7803">controllers specialize the shared reconcile path</text><text fill="#334155" font-family="Helvetica" font-size="14" lengthAdjust="spacing" textLength="189.8477" x="709.0061" y="1928.7803">with formal runtime ownership.</text><text fill="#334155" font-family="Helvetica" font-size="14" lengthAdjust="spacing" textLength="74.6963" x="709.0061" y="1942.7803">service: dns</text><text fill="#334155" font-family="Helvetica" font-size="14" lengthAdjust="spacing" textLength="249.0264" x="709.0061" y="1956.7803">slug: dnszonepromotednsseckeyversion</text><text fill="#334155" font-family="Helvetica" font-size="14" lengthAdjust="spacing" textLength="261.4541" x="709.0061" y="1970.7803">kind: DnsZonePromoteDnssecKeyVersion</text><text fill="#334155" font-family="Helvetica" font-size="14" lengthAdjust="spacing" textLength="241.2402" x="709.0061" y="1984.7803">archetype: generated-service-manager</text><text fill="#334155" font-family="Helvetica" font-size="14" lengthAdjust="spacing" textLength="156.4063" x="709.0061" y="1998.7803">status/finalizer: required /</text><text fill="#334155" font-family="Helvetica" font-size="14" lengthAdjust="spacing" textLength="174.3027" x="709.0061" y="2012.7803">retain-until-confirmed-delete</text><text fill="#334155" font-family="Helvetica" font-size="14" lengthAdjust="spacing" textLength="272.3984" x="709.0061" y="2026.7803">requeue: provisioning, updating, terminating</text><text fill="#334155" font-family="Helvetica" font-size="14" lengthAdjust="spacing" textLength="295.6816" x="709.0061" y="2040.7803">provider states: create PROVISIONING; update</text><text fill="#334155" font-family="Helvetica" font-size="14" lengthAdjust="spacing" textLength="192.165" x="709.0061" y="2054.7803">UPDATING; delete DELETING</text><text fill="#334155" font-family="Helvetica" font-size="14" lengthAdjust="spacing" textLength="183.6611" x="709.0061" y="2068.7803">supported drift: display_name</text><text fill="#334155" font-family="Helvetica" font-size="14" lengthAdjust="spacing" textLength="230.3301" x="709.0061" y="2082.7803">reject before mutate: force-new fields</text><text fill="#334155" font-family="Helvetica" font-size="14" lengthAdjust="spacing" textLength="100.3789" x="709.0061" y="2096.7803">compartment_id</text><text fill="#334155" font-family="Helvetica" font-size="14" lengthAdjust="spacing" textLength="66.1445" x="709.0061" y="2110.7803">list lookup:</text><text fill="#334155" font-family="Helvetica" font-size="14" lengthAdjust="spacing" textLength="301.957" x="709.0061" y="2124.7803">scaffold_dns_dnszonepromotednsseckeyversion</text><text fill="#334155" font-family="Helvetica" font-size="14" lengthAdjust="spacing" textLength="175.8477" x="709.0061" y="2138.7803">filters compartment_id, state</text><text fill="#334155" font-family="Helvetica" font-size="14" lengthAdjust="spacing" textLength="89.4961" x="709.0061" y="2152.7803">conflicts: none</text><text fill="#334155" font-family="Helvetica" font-size="14" lengthAdjust="spacing" textLength="104.3164" x="709.0061" y="2166.7803">open gaps: none</text><text fill="#334155" font-family="Helvetica" font-size="14" lengthAdjust="spacing" textLength="224.9023" x="709.0061" y="2180.7803">Scaffold metadata only; replace with</text><text fill="#334155" font-family="Helvetica" font-size="14" lengthAdjust="spacing" textLength="244.3232" x="709.0061" y="2194.7803">controller-specific runtime states before</text><text fill="#334155" font-family="Helvetica" font-size="14" lengthAdjust="spacing" textLength="66.1445" x="709.0061" y="2208.7803">promotion.</text><ellipse cx="672.0061" cy="1995" fill="none" rx="11" ry="11" style="stroke:#222222;stroke-width:1;"/><ellipse cx="672.0061" cy="1995" fill="#222222" rx="6" ry="6" style="stroke:#222222;stroke-width:1;"/><line style="stroke:#0F172A;stroke-width:1;" x1="672.0061" x2="672.0061" y1="157" y2="177"/><polygon fill="#0F172A" points="668.0061,167,672.0061,177,676.0061,167,672.0061,171" style="stroke:#0F172A;stroke-width:1;"/><line style="stroke:#0F172A;stroke-width:1;" x1="836.3538" x2="836.3538" y1="341" y2="361"/><polygon fill="#0F172A" points="832.3538,351,836.3538,361,840.3538,351,836.3538,355" style="stroke:#0F172A;stroke-width:1;"/><line style="stroke:#0F172A;stroke-width:1;" x1="836.3538" x2="836.3538" y1="423" y2="443"/><polygon fill="#0F172A" points="832.3538,433,836.3538,443,840.3538,433,836.3538,437" style="stroke:#0F172A;stroke-width:1;"/><line style="stroke:#0F172A;stroke-width:1;" x1="530.5403" x2="507.6584" y1="257" y2="257"/><line style="stroke:#0F172A;stroke-width:1;" x1="507.6584" x2="507.6584" y1="257" y2="279"/><polygon fill="#0F172A" points="503.6584,269,507.6584,279,511.6584,269,507.6584,273" style="stroke:#0F172A;stroke-width:1;"/><line style="stroke:#0F172A;stroke-width:1;" x1="813.4719" x2="836.3538" y1="257" y2="257"/><line style="stroke:#0F172A;stroke-width:1;" x1="836.3538" x2="836.3538" y1="257" y2="279"/><polygon fill="#0F172A" points="832.3538,269,836.3538,279,840.3538,269,836.3538,273" style="stroke:#0F172A;stroke-width:1;"/><line style="stroke:#0F172A;stroke-width:1;" x1="507.6584" x2="507.6584" y1="327" y2="509"/><line style="stroke:#0F172A;stroke-width:1;" x1="507.6584" x2="660.0061" y1="509" y2="509"/><polygon fill="#0F172A" points="650.0061,505,660.0061,509,650.0061,513,654.0061,509" style="stroke:#0F172A;stroke-width:1;"/><line style="stroke:#0F172A;stroke-width:1;" x1="836.3538" x2="836.3538" y1="491" y2="509"/><line style="stroke:#0F172A;stroke-width:1;" x1="836.3538" x2="684.0061" y1="509" y2="509"/><polygon fill="#0F172A" points="694.0061,505,684.0061,509,694.0061,513,690.0061,509" style="stroke:#0F172A;stroke-width:1;"/><line style="stroke:#0F172A;stroke-width:1;" x1="672.0061" x2="672.0061" y1="225" y2="245"/><polygon fill="#0F172A" points="668.0061,235,672.0061,245,676.0061,235,672.0061,239" style="stroke:#0F172A;stroke-width:1;"/><line style="stroke:#0F172A;stroke-width:1;" x1="672.0061" x2="672.0061" y1="65" y2="109"/><polygon fill="#0F172A" points="668.0061,99,672.0061,109,676.0061,99,672.0061,103" style="stroke:#0F172A;stroke-width:1;"/><line style="stroke:#0F172A;stroke-width:1;" x1="339.7441" x2="339.7441" y1="711" y2="739.5"/><polygon fill="#0F172A" points="335.7441,729.5,339.7441,739.5,343.7441,729.5,339.7441,733.5" style="stroke:#0F172A;stroke-width:1;"/><line style="stroke:#0F172A;stroke-width:1;" x1="179.5718" x2="169.5718" y1="862.5" y2="862.5"/><line style="stroke:#0F172A;stroke-width:1;" x1="169.5718" x2="169.5718" y1="862.5" y2="884.5"/><polygon fill="#0F172A" points="165.5718,874.5,169.5718,884.5,173.5718,874.5,169.5718,878.5" style="stroke:#0F172A;stroke-width:1;"/><line style="stroke:#0F172A;stroke-width:1;" x1="499.9165" x2="509.9165" y1="862.5" y2="862.5"/><line style="stroke:#0F172A;stroke-width:1;" x1="509.9165" x2="509.9165" y1="862.5" y2="884.5"/><polygon fill="#0F172A" points="505.9165,874.5,509.9165,884.5,513.9165,874.5,509.9165,878.5" style="stroke:#0F172A;stroke-width:1;"/><line style="stroke:#0F172A;stroke-width:1;" x1="169.5718" x2="169.5718" y1="918.5" y2="950.5"/><line style="stroke:#0F172A;stroke-width:1;" x1="169.5718" x2="327.7441" y1="950.5" y2="950.5"/><polygon fill="#0F172A" points="317.7441,946.5,327.7441,950.5,317.7441,954.5,321.7441,950.5" style="stroke:#0F172A;stroke-width:1;"/><line style="stroke:#0F172A;stroke-width:1;" x1="509.9165" x2="509.9165" y1="932.5" y2="950.5"/><line style="stroke:#0F172A;stroke-width:1;" x1="509.9165" x2="351.7441" y1="950.5" y2="950.5"/><polygon fill="#0F172A" points="361.7441,946.5,351.7441,950.5,361.7441,954.5,357.7441,950.5" style="stroke:#0F172A;stroke-width:1;"/><line style="stroke:#0F172A;stroke-width:1;" x1="339.7441" x2="339.7441" y1="815.5" y2="850.5"/><polygon fill="#0F172A" points="335.7441,840.5,339.7441,850.5,343.7441,840.5,339.7441,844.5" style="stroke:#0F172A;stroke-width:1;"/><line style="stroke:#0F172A;stroke-width:1;" x1="339.7441" x2="339.7441" y1="962.5" y2="1008.5"/><polygon fill="#0F172A" points="335.7441,998.5,339.7441,1008.5,343.7441,998.5,339.7441,1002.5" style="stroke:#0F172A;stroke-width:1;"/><line style="stroke:#0F172A;stroke-width:1;" x1="1004.2681" x2="1004.2681" y1="718" y2="746.5"/><polygon fill="#0F172A" points="1000.2681,736.5,1004.2681,746.5,1008.2681,736.5,1004.2681,740.5" style="stroke:#0F172A;stroke-width:1;"/><line style="stroke:#0F172A;stroke-width:1;" x1="1004.2681" x2="1004.2681" y1="645" y2="670"/><polygon fill="#0F172A" points="1000.2681,660,1004.2681,670,1008.2681,660,1004.2681,664" style="stroke:#0F172A;stroke-width:1;"/><line style="stroke:#0F172A;stroke-width:1;" x1="1102.5513" x2="1154.5645" y1="633" y2="633"/><polygon fill="#0F172A" points="1150.5645,709.5,1154.5645,719.5,1158.5645,709.5,1154.5645,713.5" style="stroke:#0F172A;stroke-width:1;"/><line style="stroke:#0F172A;stroke-width:1;" x1="1154.5645" x2="1154.5645" y1="633" y2="799.5"/><line style="stroke:#0F172A;stroke-width:1;" x1="1154.5645" x2="1004.2681" y1="799.5" y2="799.5"/><line style="stroke:#0F172A;stroke-width:1;" x1="1004.2681" x2="1004.2681" y1="799.5" y2="834.5"/><polygon fill="#0F172A" points="1000.2681,824.5,1004.2681,834.5,1008.2681,824.5,1004.2681,828.5" style="stroke:#0F172A;stroke-width:1;"/><line style="stroke:#0F172A;stroke-width:1;" x1="1004.2681" x2="1004.2681" y1="931.5" y2="966.5"/><polygon fill="#0F172A" points="1000.2681,956.5,1004.2681,966.5,1008.2681,956.5,1004.2681,960.5" style="stroke:#0F172A;stroke-width:1;"/><line style="stroke:#0F172A;stroke-width:1;" x1="1004.2681" x2="1004.2681" y1="858.5" y2="883.5"/><polygon fill="#0F172A" points="1000.2681,873.5,1004.2681,883.5,1008.2681,873.5,1004.2681,877.5" style="stroke:#0F172A;stroke-width:1;"/><line style="stroke:#0F172A;stroke-width:1;" x1="1136.7891" x2="1161.2261" y1="846.5" y2="846.5"/><polygon fill="#0F172A" points="1157.2261,923,1161.2261,933,1165.2261,923,1161.2261,927" style="stroke:#0F172A;stroke-width:1;"/><line style="stroke:#0F172A;stroke-width:1;" x1="1161.2261" x2="1161.2261" y1="846.5" y2="1010.5"/><line style="stroke:#0F172A;stroke-width:1;" x1="1161.2261" x2="1004.2681" y1="1010.5" y2="1010.5"/><line style="stroke:#0F172A;stroke-width:1;" x1="1004.2681" x2="1004.2681" y1="1010.5" y2="1074.5"/><polygon fill="#0F172A" points="1000.2681,1064.5,1004.2681,1074.5,1008.2681,1064.5,1004.2681,1068.5" style="stroke:#0F172A;stroke-width:1;"/><line style="stroke:#0F172A;stroke-width:1;" x1="1004.2681" x2="1004.2681" y1="1239.5" y2="1261"/><polygon fill="#0F172A" points="1000.2681,1251,1004.2681,1261,1008.2681,1251,1004.2681,1255" style="stroke:#0F172A;stroke-width:1;"/><line style="stroke:#0F172A;stroke-width:1;" x1="1004.2681" x2="1004.2681" y1="1166.5" y2="1191.5"/><polygon fill="#0F172A" points="1000.2681,1181.5,1004.2681,1191.5,1008.2681,1181.5,1004.2681,1185.5" style="stroke:#0F172A;stroke-width:1;"/><line style="stroke:#0F172A;stroke-width:1;" x1="1141.8511" x2="1165.4917" y1="1154.5" y2="1154.5"/><polygon fill="#0F172A" points="1161.4917,1231,1165.4917,1241,1169.4917,1231,1165.4917,1235" style="stroke:#0F172A;stroke-width:1;"/><line style="stroke:#0F172A;stroke-width:1;" x1="1165.4917" x2="1165.4917" y1="1154.5" y2="1305"/><line style="stroke:#0F172A;stroke-width:1;" x1="1165.4917" x2="1004.2681" y1="1305" y2="1305"/><line style="stroke:#0F172A;stroke-width:1;" x1="1004.2681" x2="1004.2681" y1="1305" y2="1325"/><polygon fill="#0F172A" points="1000.2681,1315,1004.2681,1325,1008.2681,1315,1004.2681,1319" style="stroke:#0F172A;stroke-width:1;"/><line style="stroke:#0F172A;stroke-width:1;" x1="1004.2681" x2="1004.2681" y1="1122.5" y2="1142.5"/><polygon fill="#0F172A" points="1000.2681,1132.5,1004.2681,1142.5,1008.2681,1132.5,1004.2681,1136.5" style="stroke:#0F172A;stroke-width:1;"/><line style="stroke:#0F172A;stroke-width:1;" x1="881.8403" x2="861.5049" y1="1337" y2="1337"/><line style="stroke:#0F172A;stroke-width:1;" x1="861.5049" x2="861.5049" y1="1337" y2="1359"/><polygon fill="#0F172A" points="857.5049,1349,861.5049,1359,865.5049,1349,861.5049,1353" style="stroke:#0F172A;stroke-width:1;"/><line style="stroke:#0F172A;stroke-width:1;" x1="1126.6958" x2="1147.0313" y1="1337" y2="1337"/><line style="stroke:#0F172A;stroke-width:1;" x1="1147.0313" x2="1147.0313" y1="1337" y2="1359"/><polygon fill="#0F172A" points="1143.0313,1349,1147.0313,1359,1151.0313,1349,1147.0313,1353" style="stroke:#0F172A;stroke-width:1;"/><line style="stroke:#0F172A;stroke-width:1;" x1="861.5049" x2="861.5049" y1="1407" y2="1425"/><line style="stroke:#0F172A;stroke-width:1;" x1="861.5049" x2="992.2681" y1="1425" y2="1425"/><polygon fill="#0F172A" points="982.2681,1421,992.2681,1425,982.2681,1429,986.2681,1425" style="stroke:#0F172A;stroke-width:1;"/><line style="stroke:#0F172A;stroke-width:1;" x1="1147.0313" x2="1147.0313" y1="1393" y2="1425"/><line style="stroke:#0F172A;stroke-width:1;" x1="1147.0313" x2="1016.2681" y1="1425" y2="1425"/><polygon fill="#0F172A" points="1026.2681,1421,1016.2681,1425,1026.2681,1429,1022.2681,1425" style="stroke:#0F172A;stroke-width:1;"/><line style="stroke:#0F172A;stroke-width:1;" x1="1004.2681" x2="1004.2681" y1="1437" y2="1457"/><polygon fill="#0F172A" points="1000.2681,1447,1004.2681,1457,1008.2681,1447,1004.2681,1451" style="stroke:#0F172A;stroke-width:1;"/><line style="stroke:#0F172A;stroke-width:1;" x1="1004.2681" x2="1004.2681" y1="1575" y2="1595"/><polygon fill="#0F172A" points="1000.2681,1585,1004.2681,1595,1008.2681,1585,1004.2681,1589" style="stroke:#0F172A;stroke-width:1;"/><line style="stroke:#0F172A;stroke-width:1;" x1="1004.2681" x2="1004.2681" y1="1629" y2="1649"/><polygon fill="#0F172A" points="1000.2681,1639,1004.2681,1649,1008.2681,1639,1004.2681,1643" style="stroke:#0F172A;stroke-width:1;"/><line style="stroke:#0F172A;stroke-width:1;" x1="1004.2681" x2="1004.2681" y1="1697" y2="1717"/><polygon fill="#0F172A" points="1000.2681,1707,1004.2681,1717,1008.2681,1707,1004.2681,1711" style="stroke:#0F172A;stroke-width:1;"/><line style="stroke:#0F172A;stroke-width:1;" x1="597.8298" x2="339.7441" y1="565" y2="565"/><line style="stroke:#0F172A;stroke-width:1;" x1="339.7441" x2="339.7441" y1="565" y2="621"/><polygon fill="#0F172A" points="335.7441,611,339.7441,621,343.7441,611,339.7441,615" style="stroke:#0F172A;stroke-width:1;"/><line style="stroke:#0F172A;stroke-width:1;" x1="746.1824" x2="1004.2681" y1="565" y2="565"/><line style="stroke:#0F172A;stroke-width:1;" x1="1004.2681" x2="1004.2681" y1="565" y2="621"/><polygon fill="#0F172A" points="1000.2681,611,1004.2681,621,1008.2681,611,1004.2681,615" style="stroke:#0F172A;stroke-width:1;"/><line style="stroke:#0F172A;stroke-width:1;" x1="1004.2681" x2="1004.2681" y1="1751" y2="1768"/><line style="stroke:#0F172A;stroke-width:1;" x1="1004.2681" x2="672.0061" y1="1768" y2="1768"/><line style="stroke:#0F172A;stroke-width:1;" x1="672.0061" x2="672.0061" y1="1768" y2="1984"/><polygon fill="#0F172A" points="668.0061,1974,672.0061,1984,676.0061,1974,672.0061,1978" style="stroke:#0F172A;stroke-width:1;"/><line style="stroke:#0F172A;stroke-width:1;" x1="672.0061" x2="672.0061" y1="521" y2="553"/><polygon fill="#0F172A" points="668.0061,543,672.0061,553,676.0061,543,672.0061,547" style="stroke:#0F172A;stroke-width:1;"/><?plantuml-src bLVlJniv4Fs-VuN5VMcb14eBRIzHTQA1jkYgWe2sqYaISjQpYOzTUsjxmwMd_k_t_6Ctcu20KuMwknwFPzwyUPxO6wbgRdZ5x88BVIlLd1Myj9JPRcN6yvkvqOqI4rrgmtuhSlmJFGj11MzAzq4hzuLNn3vHkIGdStw_pQNyIMp_eBV8ZT6toVkBOl_Do_vEfHszlnD3KRmHhxUjj15aaiNiuF3LYz-tBFpnQVtLguFzmyFUUd2VQwF8iFtNcPEk97QKExcKRiM6J2YxTwpiNrhHkT4LlE7DKludhRwHiLAhVaRjldypTW-2RmjUv7wb7t7AdB5Y7MNtJKXUQINk044lwMtnecVGzxWl3aYyNIz-kCUnTTouRNlg_7TsCxxbzLSMjcP865WXVRPpDhDabiIu4kozL687wOyklHKh09adcI71YbBVJbLysKDeSo1cz-Bxq52kLIvB6hOOxjhbV9oDBeWBqCXAx-BXGi1vJVc0EGEuO8r0NMC78Iv19JbYKZbIRfp9WZtRkKfso8x-gKkPIyVE9gTC2jZuAjQ6B1x_s7dEt88KUxOY-pmRVIJdtrdU68Fbi0UMkZ4viQNaKmMBXqCTPuHsOy-KVkvJjBeC-24EQPrlnmsVRe7QpnTJzHch3pjcZSNsgIfawV25vRhobQeGvxKKWu090TQ98Jo4DEw67nSVEUZM8wBqL1bgB9-XQohkyWMJ5am6Kt78kJUr4ImJamnevy6_s01xgb0RdMe6U9IG1SWM2dKSYsVeHqCM6xSAqgDYj0m4J9jgxXO0XUnKnI-FfINTmkVqemcC0nxiqMfE5P9wGcqSq3e--NnoTNACmg161f05DemcyJNorDi-ZKT0ysci0CQbnzkdnlC5MPO26Mz0d9V4LLE7bYcauYL4sm1uV0PTRPFdT0T-yBVIoyYbzHvUW7zjstaMnhmsY0-DMB5PgKCNnX3R001evyl7l150Zn_MwRhdiaU5pxAWV0L_R59oQsM1cyclU7A4b3txGZj05P2YCwl0OalkReA1U9603O7w4AhKDnMNoiB3L9rVd7qxlJmz-tBwvUE0VJq_FheAJm5eF8rJi27oxGWiquspQ8QOexKC-ZadP-_6uXgZl5OqAfaMJSaw_VIDXXitmZbLCSXOyQF9rUctauqmVlKHyrAx2gK_Dh9mx1CUIwX9QAT9419YfLp6r6FWVExpZoqkgreRjATN7ogXluqfU4w9OHyqz6Mew3Oe0EWEmGrI9y9X0Zp9tNta-XlVaz6C2ctYyLNZGZaXDiR_HT_fw6tTkmlzPLF7O8CZN_U7mpYgwtB5ljRYKM6462YO-h1Qroac8MrTyjMrmhIqsGStiWu8AZtKzJerhrqjrKSN3JuOlGH735jGMVl_jBw1i4KzVUUALiPteu9VfDV1LFNMldE9WSnyr-Oc4VixDEy4mvXfApvLKPJVEKBZXZhdFg9taukJ8oyQK_Ies3epWjEU2PFO_7sJg3AjIRn2aFTKXQiZZA4UgY5giQIOFwv4oXj7Tjnnl-qG3x57BVAw-znUSQXFe4wdvV5ksTAsMeE7Aoyn3amUXhOP9d76N19p62SDGE_hL0LVQWGyO068y0J1g-3NlupHMR5kWNX-26L6pXSkIyDGcdz6sV-QXxBULEKpJyxMpTyDe4WoyzEG36bsn1dEuiWpkVXwF62tOC8WcWPeXdM4p7DFU3nA2wOPsirmFJcZon8U8DUyN1_K1iwu45c9cmW6-WOAZd8w35_e3K0ROPQ43n7HR96e5iSpNLFev0gkvxosknatq2otgWaZABWnmYsC4JsC3NxQbEZtYYi-9vFbNN0e_ZhdUm7obChy7T-UPdp5yUj5tyAzNSXwDql-HtxspspPpCFJJxHy7LjUX9Q_eTKo_GB03m0nUcGwNMSqOlCsb-5sBh4GUnq_HslwxcKFSZHBjzFeAVpCEYK9tM97QIPZ_Kji7FTIrjvbu_O-Rw-qp7Oo6kHpjA5nY2WqO5Bj86i8hnFhf8lPfbO74h588hH7pej2b-8Qc5y_KeK7PzwilNAGAnIQia0vpxNqVfbEOXLGHjgSUHqV0tyavCKAfEbHRHYOXg6YOr14CcMRnI0HrguNWl0pz3y0?></g></svg>