<?plantuml 1.2026.1?><svg xmlns="http://www.w3.org/2000/svg" xmlns:xlink="http://www.w3.org/1999/xlink" contentStyleType="text/css" data-diagram-type="ACTIVITY" height="1315px" preserveAspectRatio="none" style="width:716px;height:1315px;background:#FCFCFD;" version="1.1" viewBox="0 0 716 1315" width="716px" zoomAndPan="magnify"><title>Activity - datacatalog/DatacatalogMetastore</title><defs/><g><rect fill="#FCFCFD" height="1315" style="stroke:none;stroke-width:1;" width="716" x="0" y="0"/><g class="title" data-source-line="10"><text fill="#000000" font-family="Helvetica" font-size="14" font-weight="bold" lengthAdjust="spacing" textLength="290.1924" x="211.7317" y="30.7803">Activity - datacatalog/DatacatalogMetastore</text></g><ellipse cx="333.6157" cy="55" fill="#1D4ED8" rx="10" ry="10" style="stroke:#222222;stroke-width:1;"/><rect fill="#F8FAFC" height="48" rx="8" ry="8" style="stroke:#0F172A;stroke-width:0.5;" width="304.7852" x="181.2231" y="85"/><text fill="#0F172A" font-family="Helvetica" font-size="14" lengthAdjust="spacing" textLength="136.9375" x="191.2231" y="105.7803">Start from shared flow</text><text fill="#0F172A" font-family="Helvetica" font-size="14" lengthAdjust="spacing" textLength="284.7852" x="191.2231" y="119.7803">shared/diagrams/shared-reconcile-activity.svg</text><rect fill="#F8FAFC" height="48" rx="8" ry="8" style="stroke:#0F172A;stroke-width:0.5;" width="302.5156" x="182.3579" y="153"/><text fill="#0F172A" font-family="Helvetica" font-size="14" lengthAdjust="spacing" textLength="282.5156" x="192.3579" y="173.7803">Load desired DatacatalogMetastore spec and</text><text fill="#0F172A" font-family="Helvetica" font-size="14" lengthAdjust="spacing" textLength="144.7373" x="192.3579" y="187.7803">status from Kubernetes</text><rect fill="#F8FAFC" height="48" rx="8" ry="8" style="stroke:#0F172A;stroke-width:0.5;" width="318.8057" x="174.2129" y="221"/><text fill="#0F172A" font-family="Helvetica" font-size="14" lengthAdjust="spacing" textLength="298.8057" x="184.2129" y="241.7803">Resolve OCI state via GetDatacatalogMetastore</text><text fill="#0F172A" font-family="Helvetica" font-size="14" lengthAdjust="spacing" textLength="238.8955" x="184.2129" y="255.7803">with ListDatacatalogMetastore fallback</text><rect fill="#F8FAFC" height="62" rx="8" ry="8" style="stroke:#0F172A;stroke-width:0.5;" width="319.6396" x="173.7959" y="289"/><text fill="#0F172A" font-family="Helvetica" font-size="14" lengthAdjust="spacing" textLength="299.6396" x="183.7959" y="309.7803">Use scaffold_datacatalog_datacatalogmetastore</text><text fill="#0F172A" font-family="Helvetica" font-size="14" lengthAdjust="spacing" textLength="297.2402" x="183.7959" y="323.7803">filters compartment_id, state when OCID lookup</text><text fill="#0F172A" font-family="Helvetica" font-size="14" lengthAdjust="spacing" textLength="259.9023" x="183.7959" y="337.7803">or bind-versus-create needs list resolution</text><polygon fill="#E2E8F0" points="279.9263,371,387.3052,371,399.3052,383,387.3052,395,279.9263,395,267.9263,383,279.9263,371" style="stroke:#1D4ED8;stroke-width:0.5;"/><text fill="#0F172A" font-family="Helvetica" font-size="14" lengthAdjust="spacing" textLength="107.3789" x="279.9263" y="386.7803">Resource exists?</text><text fill="#000000" font-family="Helvetica" font-size="14" lengthAdjust="spacing" textLength="21.7861" x="246.1401" y="379.7803">yes</text><text fill="#000000" font-family="Helvetica" font-size="14" lengthAdjust="spacing" textLength="15.5723" x="399.3052" y="379.7803">no</text><rect fill="#F8FAFC" height="34" rx="8" ry="8" style="stroke:#0F172A;stroke-width:0.5;" width="314.1777" x="11" y="405"/><text fill="#0F172A" font-family="Helvetica" font-size="14" lengthAdjust="spacing" textLength="294.1777" x="21" y="425.7803">Update path calls UpdateDatacatalogMetastore</text><rect fill="#F8FAFC" height="48" rx="8" ry="8" style="stroke:#0F172A;stroke-width:0.5;" width="266.7021" x="34.7378" y="459"/><text fill="#0F172A" font-family="Helvetica" font-size="14" lengthAdjust="spacing" textLength="246.7021" x="44.7378" y="479.7803">Guard mutable fields display_name and</text><text fill="#0F172A" font-family="Helvetica" font-size="14" lengthAdjust="spacing" textLength="202.3096" x="44.7378" y="493.7803">force-new fields compartment_id</text><rect fill="#F8FAFC" height="34" rx="8" ry="8" style="stroke:#0F172A;stroke-width:0.5;" width="307.9297" x="345.1777" y="405"/><text fill="#0F172A" font-family="Helvetica" font-size="14" lengthAdjust="spacing" textLength="287.9297" x="355.1777" y="425.7803">Create path calls CreateDatacatalogMetastore</text><polygon fill="#E2E8F0" points="333.6157,513,345.6157,525,333.6157,537,321.6157,525,333.6157,513" style="stroke:#1D4ED8;stroke-width:0.5;"/><rect fill="#F8FAFC" height="104" rx="8" ry="8" style="stroke:#0F172A;stroke-width:0.5;" width="334.3164" x="166.4575" y="557"/><text fill="#0F172A" font-family="Helvetica" font-size="14" lengthAdjust="spacing" textLength="164.2061" x="176.4575" y="577.7803">Run provider helper hooks</text><text fill="#0F172A" font-family="Helvetica" font-size="14" lengthAdjust="spacing" textLength="219.0508" x="176.4575" y="591.7803">create=tfresource.CreateResource,</text><text fill="#0F172A" font-family="Helvetica" font-size="14" lengthAdjust="spacing" textLength="314.3164" x="176.4575" y="605.7803">tfresource.WaitForWorkRequestWithErrorHandling</text><text fill="#0F172A" font-family="Helvetica" font-size="14" lengthAdjust="spacing" textLength="215.5439" x="176.4575" y="619.7803">entity=template action=CREATED;</text><text fill="#0F172A" font-family="Helvetica" font-size="14" lengthAdjust="spacing" textLength="226.085" x="176.4575" y="633.7803">update=tfresource.UpdateResource;</text><text fill="#0F172A" font-family="Helvetica" font-size="14" lengthAdjust="spacing" textLength="212.8438" x="176.4575" y="647.7803">delete=tfresource.DeleteResource</text><rect fill="#F8FAFC" height="34" rx="8" ry="8" style="stroke:#0F172A;stroke-width:0.5;" width="263.5918" x="201.8198" y="681"/><text fill="#0F172A" font-family="Helvetica" font-size="14" lengthAdjust="spacing" textLength="243.5918" x="211.8198" y="701.7803">Apply repo-authored secret policy none</text><rect fill="#F8FAFC" height="76" rx="8" ry="8" style="stroke:#0F172A;stroke-width:0.5;" width="306.3916" x="180.4199" y="735"/><text fill="#0F172A" font-family="Helvetica" font-size="14" lengthAdjust="spacing" textLength="286.3916" x="190.4199" y="755.7803">Delete path uses DeleteDatacatalogMetastore</text><text fill="#0F172A" font-family="Helvetica" font-size="14" lengthAdjust="spacing" textLength="281.6953" x="190.4199" y="769.7803">with required via GetDatacatalogMetastore or</text><text fill="#0F172A" font-family="Helvetica" font-size="14" lengthAdjust="spacing" textLength="242.7783" x="190.4199" y="783.7803">ListDatacatalogMetastore to DELETED</text><text fill="#0F172A" font-family="Helvetica" font-size="14" lengthAdjust="spacing" textLength="76.2549" x="190.4199" y="797.7803">confirmation</text><rect fill="#F8FAFC" height="48" rx="8" ry="8" style="stroke:#0F172A;stroke-width:0.5;" width="279.1299" x="194.0508" y="831"/><text fill="#0F172A" font-family="Helvetica" font-size="14" lengthAdjust="spacing" textLength="259.1299" x="204.0508" y="851.7803">Project required status and finalizer policy</text><text fill="#0F172A" font-family="Helvetica" font-size="14" lengthAdjust="spacing" textLength="174.3027" x="204.0508" y="865.7803">retain-until-confirmed-delete</text><rect fill="#F8FAFC" height="34" rx="8" ry="8" style="stroke:#0F172A;stroke-width:0.5;" width="313.4189" x="176.9063" y="899"/><text fill="#0F172A" font-family="Helvetica" font-size="14" lengthAdjust="spacing" textLength="293.4189" x="186.9063" y="919.7803">Requeue on provisioning, updating, terminating</text><path d="M364.6157,943 L364.6157,1119 L344.6157,1123 L364.6157,1127 L364.6157,1303 A0,0 0 0 0 364.6157,1303 L704.6558,1303 A0,0 0 0 0 704.6558,1303 L704.6558,953 L694.6558,943 L364.6157,943 A0,0 0 0 0 364.6157,943" fill="#FFF7D6" style="stroke:#B45309;stroke-width:0.5;"/><path d="M694.6558,943 L694.6558,953 L704.6558,953 L694.6558,943" fill="#FFF7D6" style="stroke:#B45309;stroke-width:0.5;"/><text fill="#334155" font-family="Helvetica" font-size="14" lengthAdjust="spacing" textLength="101.165" x="370.6157" y="958.7803">shared diagram:</text><text fill="#334155" font-family="Helvetica" font-size="14" lengthAdjust="spacing" textLength="284.7852" x="370.6157" y="972.7803">shared/diagrams/shared-reconcile-activity.svg</text><text fill="#334155" font-family="Helvetica" font-size="14" lengthAdjust="spacing" textLength="265.3438" x="370.6157" y="986.7803">Start from the shared reconcile activity and</text><text fill="#334155" font-family="Helvetica" font-size="14" lengthAdjust="spacing" textLength="273.8955" x="370.6157" y="1000.7803">specialize provider-backed CRUD, wait, and</text><text fill="#334155" font-family="Helvetica" font-size="14" lengthAdjust="spacing" textLength="182.875" x="370.6157" y="1014.7803">status-projection details here.</text><text fill="#334155" font-family="Helvetica" font-size="14" lengthAdjust="spacing" textLength="229.5371" x="370.6157" y="1028.7803">Controller-local activity diagrams add</text><text fill="#334155" font-family="Helvetica" font-size="14" lengthAdjust="spacing" textLength="238.8955" x="370.6157" y="1042.7803">list-lookup hints, secret policies, delete</text><text fill="#334155" font-family="Helvetica" font-size="14" lengthAdjust="spacing" textLength="200.0332" x="370.6157" y="1056.7803">handling, and open formal gaps.</text><text fill="#334155" font-family="Helvetica" font-size="14" lengthAdjust="spacing" textLength="281.709" x="370.6157" y="1070.7803">archetype batch: Generated service-manager</text><text fill="#334155" font-family="Helvetica" font-size="14" lengthAdjust="spacing" textLength="291.0469" x="370.6157" y="1084.7803">controllers specialize the shared reconcile path</text><text fill="#334155" font-family="Helvetica" font-size="14" lengthAdjust="spacing" textLength="189.8477" x="370.6157" y="1098.7803">with formal runtime ownership.</text><text fill="#334155" font-family="Helvetica" font-size="14" lengthAdjust="spacing" textLength="124.5166" x="370.6157" y="1112.7803">service: datacatalog</text><text fill="#334155" font-family="Helvetica" font-size="14" lengthAdjust="spacing" textLength="168.1025" x="370.6157" y="1126.7803">slug: datacatalogmetastore</text><text fill="#334155" font-family="Helvetica" font-size="14" lengthAdjust="spacing" textLength="170.4268" x="370.6157" y="1140.7803">kind: DatacatalogMetastore</text><text fill="#334155" font-family="Helvetica" font-size="14" lengthAdjust="spacing" textLength="241.2402" x="370.6157" y="1154.7803">archetype: generated-service-manager</text><text fill="#334155" font-family="Helvetica" font-size="14" lengthAdjust="spacing" textLength="156.4063" x="370.6157" y="1168.7803">status/finalizer: required /</text><text fill="#334155" font-family="Helvetica" font-size="14" lengthAdjust="spacing" textLength="174.3027" x="370.6157" y="1182.7803">retain-until-confirmed-delete</text><text fill="#334155" font-family="Helvetica" font-size="14" lengthAdjust="spacing" textLength="272.3984" x="370.6157" y="1196.7803">requeue: provisioning, updating, terminating</text><text fill="#334155" font-family="Helvetica" font-size="14" lengthAdjust="spacing" textLength="295.6816" x="370.6157" y="1210.7803">provider states: create PROVISIONING; update</text><text fill="#334155" font-family="Helvetica" font-size="14" lengthAdjust="spacing" textLength="192.165" x="370.6157" y="1224.7803">UPDATING; delete DELETING</text><text fill="#334155" font-family="Helvetica" font-size="14" lengthAdjust="spacing" textLength="319.04" x="370.6157" y="1238.7803">mutable/forceNew: display_name / compartment_id</text><text fill="#334155" font-family="Helvetica" font-size="14" lengthAdjust="spacing" textLength="104.3164" x="370.6157" y="1252.7803">open gaps: none</text><text fill="#334155" font-family="Helvetica" font-size="14" lengthAdjust="spacing" textLength="224.9023" x="370.6157" y="1266.7803">Scaffold metadata only; replace with</text><text fill="#334155" font-family="Helvetica" font-size="14" lengthAdjust="spacing" textLength="244.3232" x="370.6157" y="1280.7803">controller-specific runtime states before</text><text fill="#334155" font-family="Helvetica" font-size="14" lengthAdjust="spacing" textLength="66.1445" x="370.6157" y="1294.7803">promotion.</text><ellipse cx="333.6157" cy="1123" fill="none" rx="11" ry="11" style="stroke:#222222;stroke-width:1;"/><ellipse cx="333.6157" cy="1123" fill="#222222" rx="6" ry="6" style="stroke:#222222;stroke-width:1;"/><line style="stroke:#0F172A;stroke-width:1;" x1="333.6157" x2="333.6157" y1="65" y2="85"/><polygon fill="#0F172A" points="329.6157,75,333.6157,85,337.6157,75,333.6157,79" style="stroke:#0F172A;stroke-width:1;"/><line style="stroke:#0F172A;stroke-width:1;" x1="333.6157" x2="333.6157" y1="133" y2="153"/><polygon fill="#0F172A" points="329.6157,143,333.6157,153,337.6157,143,333.6157,147" style="stroke:#0F172A;stroke-width:1;"/><line style="stroke:#0F172A;stroke-width:1;" x1="333.6157" x2="333.6157" y1="201" y2="221"/><polygon fill="#0F172A" points="329.6157,211,333.6157,221,337.6157,211,333.6157,215" style="stroke:#0F172A;stroke-width:1;"/><line style="stroke:#0F172A;stroke-width:1;" x1="333.6157" x2="333.6157" y1="269" y2="289"/><polygon fill="#0F172A" points="329.6157,279,333.6157,289,337.6157,279,333.6157,283" style="stroke:#0F172A;stroke-width:1;"/><line style="stroke:#0F172A;stroke-width:1;" x1="168.0889" x2="168.0889" y1="439" y2="459"/><polygon fill="#0F172A" points="164.0889,449,168.0889,459,172.0889,449,168.0889,453" style="stroke:#0F172A;stroke-width:1;"/><line style="stroke:#0F172A;stroke-width:1;" x1="267.9263" x2="168.0889" y1="383" y2="383"/><line style="stroke:#0F172A;stroke-width:1;" x1="168.0889" x2="168.0889" y1="383" y2="405"/><polygon fill="#0F172A" points="164.0889,395,168.0889,405,172.0889,395,168.0889,399" style="stroke:#0F172A;stroke-width:1;"/><line style="stroke:#0F172A;stroke-width:1;" x1="399.3052" x2="499.1426" y1="383" y2="383"/><line style="stroke:#0F172A;stroke-width:1;" x1="499.1426" x2="499.1426" y1="383" y2="405"/><polygon fill="#0F172A" points="495.1426,395,499.1426,405,503.1426,395,499.1426,399" style="stroke:#0F172A;stroke-width:1;"/><line style="stroke:#0F172A;stroke-width:1;" x1="168.0889" x2="168.0889" y1="507" y2="525"/><line style="stroke:#0F172A;stroke-width:1;" x1="168.0889" x2="321.6157" y1="525" y2="525"/><polygon fill="#0F172A" points="311.6157,521,321.6157,525,311.6157,529,315.6157,525" style="stroke:#0F172A;stroke-width:1;"/><line style="stroke:#0F172A;stroke-width:1;" x1="499.1426" x2="499.1426" y1="439" y2="525"/><line style="stroke:#0F172A;stroke-width:1;" x1="499.1426" x2="345.6157" y1="525" y2="525"/><polygon fill="#0F172A" points="355.6157,521,345.6157,525,355.6157,529,351.6157,525" style="stroke:#0F172A;stroke-width:1;"/><line style="stroke:#0F172A;stroke-width:1;" x1="333.6157" x2="333.6157" y1="351" y2="371"/><polygon fill="#0F172A" points="329.6157,361,333.6157,371,337.6157,361,333.6157,365" style="stroke:#0F172A;stroke-width:1;"/><line style="stroke:#0F172A;stroke-width:1;" x1="333.6157" x2="333.6157" y1="537" y2="557"/><polygon fill="#0F172A" points="329.6157,547,333.6157,557,337.6157,547,333.6157,551" style="stroke:#0F172A;stroke-width:1;"/><line style="stroke:#0F172A;stroke-width:1;" x1="333.6157" x2="333.6157" y1="661" y2="681"/><polygon fill="#0F172A" points="329.6157,671,333.6157,681,337.6157,671,333.6157,675" style="stroke:#0F172A;stroke-width:1;"/><line style="stroke:#0F172A;stroke-width:1;" x1="333.6157" x2="333.6157" y1="715" y2="735"/><polygon fill="#0F172A" points="329.6157,725,333.6157,735,337.6157,725,333.6157,729" style="stroke:#0F172A;stroke-width:1;"/><line style="stroke:#0F172A;stroke-width:1;" x1="333.6157" x2="333.6157" y1="811" y2="831"/><polygon fill="#0F172A" points="329.6157,821,333.6157,831,337.6157,821,333.6157,825" style="stroke:#0F172A;stroke-width:1;"/><line style="stroke:#0F172A;stroke-width:1;" x1="333.6157" x2="333.6157" y1="879" y2="899"/><polygon fill="#0F172A" points="329.6157,889,333.6157,899,337.6157,889,333.6157,893" style="stroke:#0F172A;stroke-width:1;"/><line style="stroke:#0F172A;stroke-width:1;" x1="333.6157" x2="333.6157" y1="933" y2="1112"/><polygon fill="#0F172A" points="329.6157,1102,333.6157,1112,337.6157,1102,333.6157,1106" style="stroke:#0F172A;stroke-width:1;"/><?plantuml-src bLPjRzis4FxENt70lgI0PITDscOoWY6pqpHebWH9itmn4D3YoU92aHf9sVE6_VSTHLbMN2_OO1YMoEEzFFVSGxiNgIjkUGckuCAif5v0pfL3vhgTESzU5jRKMaoCCXP-o3FwY9w5m9pNodyssj_m4k4BgYLwcV7zDW_oJuIZazucjzQiMk-7-T6dz_sJsdZy-RiSyloJ-BXhPQn0srhCJpuS7_wuOn72j_l7noT77pxqzXltcR4QBHnzP5vwXN2UURcKVWq92EvvHbzb5gFfzlaNzDnvO_kGySsflnZimUyqvtaMTlhvjdK3vDiSkpKXUMcq-0u6V8-d-M7FeE_nI9oWEDrkVjxZs7bk_QuzTluxkpdVyVetQuwoz27yG6vDmo6B0d9bLZCTNqOKUq6Gk55yJoncHcTIOR81QUYMYp5BhmqNn18dWujz-8AhC0Ek1VdstDSk1lrQpv5wvj6HatjqXhW7jvEhK9f7M4eEb-ZtEPpfbVG5N4ktTpiCWWhD8x-FZi9dFC-D4iyz8lIVowtVN2gFra5cIYA4Br7xPoa6RKgh0dN8S0hAc9Uwccd2TIwrI9Pqg7P9PZ7OQKJXG55wO4DTjPT6ZvdCuI3KMTiC0V-WRVVJE_31wS4QtJlAjXBXVCMfkeoAS11NzbL9nLtMt0eeQy_dnFXSegAmGhfAyVMp3WFTW9uR2fXeN6rCNbStPaYw0GVQK0QJM44lWxYoFmFYcyofURM6ofgb90f3WQeAFuIGc-c8o9dFRLluCFhRu32OwTxU4vSaDFR9s9Tx_Br6vv-eqHSaClOBbQ98vMQQiYRodNaigKxADT3HwBF9_SNvjulfUARh1hD-p8ZY9YQP25JuscJQh7GcB3slAhMc_bKcuRKlJ62tGwh7GsMKpDQaIpeOnfCHijgXWxZm1d4jrTPConiS1sDd-byPxWrCBwulg5w2s11jRSaZoT8xQtx3p6-3j3D7-57_DLSauhOjOQQf72vrKXEcAcazqR17V9gvf3RKb4tROKT1g0i3Q41kdcXWIl8RNiQaBQPYGR31oaNXMQiihPYax7-92-j958t9HgOwuwrSKt4ig8niokl8c0GLe1EJ-yVf05R4ha4qRI19gWWLbKJwHJWGsmkqE6GJ4bnhb28Foj0OR0Dj4WSk10iJdaGfW49gxmQl62AH5YAIh6ZfsyG7Kz7CqrYMv7h1ApTat6O5-dM59DW-ArAY1LrdHDf0EhkKDC0brto1bcLTSWvwDUy5A92IDPnhezdGQH86ioBthf3LaBN-q_uzoPog5wzMEf5aT5cATA_GRwj8OR79FzdDFu8_whYORgawOc_oaTd8nlI_S95rYjI8jqkXLUUx-zjVhnwkRc-kRYx7yIoonxlf-RTc8OQAuqKBh9NNKQEYDxXANoliQ4TDMTFRqDIq4GZsqDu-410CWD8igVKuA8lYT164xlHwcZGjpMNMjIgc3tFC0yHKLMa2POT1VPl_Hly0?></g></svg>