<?plantuml 1.2026.1?><svg xmlns="http://www.w3.org/2000/svg" xmlns:xlink="http://www.w3.org/1999/xlink" contentStyleType="text/css" data-diagram-type="ACTIVITY" height="1301px" preserveAspectRatio="none" style="width:664px;height:1301px;background:#FCFCFD;" version="1.1" viewBox="0 0 664 1301" width="664px" zoomAndPan="magnify"><title>Activity - containerengine/Kubeconfig</title><defs/><g><rect fill="#FCFCFD" height="1301" style="stroke:none;stroke-width:1;" width="664" x="0" y="0"/><g class="title" data-source-line="10"><text fill="#000000" font-family="Helvetica" font-size="14" font-weight="bold" lengthAdjust="spacing" textLength="252.0273" x="204.6471" y="30.7803">Activity - containerengine/Kubeconfig</text></g><ellipse cx="281.2815" cy="55" fill="#1D4ED8" rx="10" ry="10" style="stroke:#222222;stroke-width:1;"/><rect fill="#F8FAFC" height="48" rx="8" ry="8" style="stroke:#0F172A;stroke-width:0.5;" width="304.7852" x="128.8889" y="85"/><text fill="#0F172A" font-family="Helvetica" font-size="14" lengthAdjust="spacing" textLength="136.9375" x="138.8889" y="105.7803">Start from shared flow</text><text fill="#0F172A" font-family="Helvetica" font-size="14" lengthAdjust="spacing" textLength="284.7852" x="138.8889" y="119.7803">shared/diagrams/shared-reconcile-activity.svg</text><rect fill="#F8FAFC" height="48" rx="8" ry="8" style="stroke:#0F172A;stroke-width:0.5;" width="308.7363" x="126.9133" y="153"/><text fill="#0F172A" font-family="Helvetica" font-size="14" lengthAdjust="spacing" textLength="288.7363" x="136.9133" y="173.7803">Load desired Kubeconfig spec and status from</text><text fill="#0F172A" font-family="Helvetica" font-size="14" lengthAdjust="spacing" textLength="71.6064" x="136.9133" y="187.7803">Kubernetes</text><rect fill="#F8FAFC" height="48" rx="8" ry="8" style="stroke:#0F172A;stroke-width:0.5;" width="280.6816" x="140.9407" y="221"/><text fill="#0F172A" font-family="Helvetica" font-size="14" lengthAdjust="spacing" textLength="260.6816" x="150.9407" y="241.7803">Resolve OCI state via GetKubeconfig with</text><text fill="#0F172A" font-family="Helvetica" font-size="14" lengthAdjust="spacing" textLength="143.1992" x="150.9407" y="255.7803">ListKubeconfig fallback</text><rect fill="#F8FAFC" height="62" rx="8" ry="8" style="stroke:#0F172A;stroke-width:0.5;" width="317.2402" x="122.6614" y="289"/><text fill="#0F172A" font-family="Helvetica" font-size="14" lengthAdjust="spacing" textLength="259.957" x="132.6614" y="309.7803">Use scaffold_containerengine_kubeconfig</text><text fill="#0F172A" font-family="Helvetica" font-size="14" lengthAdjust="spacing" textLength="297.2402" x="132.6614" y="323.7803">filters compartment_id, state when OCID lookup</text><text fill="#0F172A" font-family="Helvetica" font-size="14" lengthAdjust="spacing" textLength="259.9023" x="132.6614" y="337.7803">or bind-versus-create needs list resolution</text><polygon fill="#E2E8F0" points="227.592,371,334.9709,371,346.9709,383,334.9709,395,227.592,395,215.592,383,227.592,371" style="stroke:#1D4ED8;stroke-width:0.5;"/><text fill="#0F172A" font-family="Helvetica" font-size="14" lengthAdjust="spacing" textLength="107.3789" x="227.592" y="386.7803">Resource exists?</text><text fill="#000000" font-family="Helvetica" font-size="14" lengthAdjust="spacing" textLength="21.7861" x="193.8059" y="379.7803">yes</text><text fill="#000000" font-family="Helvetica" font-size="14" lengthAdjust="spacing" textLength="15.5723" x="346.9709" y="379.7803">no</text><rect fill="#F8FAFC" height="34" rx="8" ry="8" style="stroke:#0F172A;stroke-width:0.5;" width="247.2676" x="20.7173" y="405"/><text fill="#0F172A" font-family="Helvetica" font-size="14" lengthAdjust="spacing" textLength="227.2676" x="30.7173" y="425.7803">Update path calls UpdateKubeconfig</text><rect fill="#F8FAFC" height="48" rx="8" ry="8" style="stroke:#0F172A;stroke-width:0.5;" width="266.7021" x="11" y="459"/><text fill="#0F172A" font-family="Helvetica" font-size="14" lengthAdjust="spacing" textLength="246.7021" x="21" y="479.7803">Guard mutable fields display_name and</text><text fill="#0F172A" font-family="Helvetica" font-size="14" lengthAdjust="spacing" textLength="202.3096" x="21" y="493.7803">force-new fields compartment_id</text><rect fill="#F8FAFC" height="34" rx="8" ry="8" style="stroke:#0F172A;stroke-width:0.5;" width="241.0195" x="297.7021" y="405"/><text fill="#0F172A" font-family="Helvetica" font-size="14" lengthAdjust="spacing" textLength="221.0195" x="307.7021" y="425.7803">Create path calls CreateKubeconfig</text><polygon fill="#E2E8F0" points="281.2815,513,293.2815,525,281.2815,537,269.2815,525,281.2815,513" style="stroke:#1D4ED8;stroke-width:0.5;"/><rect fill="#F8FAFC" height="104" rx="8" ry="8" style="stroke:#0F172A;stroke-width:0.5;" width="334.3164" x="114.1233" y="557"/><text fill="#0F172A" font-family="Helvetica" font-size="14" lengthAdjust="spacing" textLength="164.2061" x="124.1233" y="577.7803">Run provider helper hooks</text><text fill="#0F172A" font-family="Helvetica" font-size="14" lengthAdjust="spacing" textLength="219.0508" x="124.1233" y="591.7803">create=tfresource.CreateResource,</text><text fill="#0F172A" font-family="Helvetica" font-size="14" lengthAdjust="spacing" textLength="314.3164" x="124.1233" y="605.7803">tfresource.WaitForWorkRequestWithErrorHandling</text><text fill="#0F172A" font-family="Helvetica" font-size="14" lengthAdjust="spacing" textLength="215.5439" x="124.1233" y="619.7803">entity=template action=CREATED;</text><text fill="#0F172A" font-family="Helvetica" font-size="14" lengthAdjust="spacing" textLength="226.085" x="124.1233" y="633.7803">update=tfresource.UpdateResource;</text><text fill="#0F172A" font-family="Helvetica" font-size="14" lengthAdjust="spacing" textLength="212.8438" x="124.1233" y="647.7803">delete=tfresource.DeleteResource</text><rect fill="#F8FAFC" height="34" rx="8" ry="8" style="stroke:#0F172A;stroke-width:0.5;" width="263.5918" x="149.4856" y="681"/><text fill="#0F172A" font-family="Helvetica" font-size="14" lengthAdjust="spacing" textLength="243.5918" x="159.4856" y="701.7803">Apply repo-authored secret policy none</text><rect fill="#F8FAFC" height="62" rx="8" ry="8" style="stroke:#0F172A;stroke-width:0.5;" width="301.7295" x="130.4167" y="735"/><text fill="#0F172A" font-family="Helvetica" font-size="14" lengthAdjust="spacing" textLength="248.2676" x="140.4167" y="755.7803">Delete path uses DeleteKubeconfig with</text><text fill="#0F172A" font-family="Helvetica" font-size="14" lengthAdjust="spacing" textLength="281.7295" x="140.4167" y="769.7803">required via GetKubeconfig or ListKubeconfig</text><text fill="#0F172A" font-family="Helvetica" font-size="14" lengthAdjust="spacing" textLength="160.2822" x="140.4167" y="783.7803">to DELETED confirmation</text><rect fill="#F8FAFC" height="48" rx="8" ry="8" style="stroke:#0F172A;stroke-width:0.5;" width="279.1299" x="141.7166" y="817"/><text fill="#0F172A" font-family="Helvetica" font-size="14" lengthAdjust="spacing" textLength="259.1299" x="151.7166" y="837.7803">Project required status and finalizer policy</text><text fill="#0F172A" font-family="Helvetica" font-size="14" lengthAdjust="spacing" textLength="174.3027" x="151.7166" y="851.7803">retain-until-confirmed-delete</text><rect fill="#F8FAFC" height="34" rx="8" ry="8" style="stroke:#0F172A;stroke-width:0.5;" width="313.4189" x="124.572" y="885"/><text fill="#0F172A" font-family="Helvetica" font-size="14" lengthAdjust="spacing" textLength="293.4189" x="134.572" y="905.7803">Requeue on provisioning, updating, terminating</text><path d="M312.2815,929 L312.2815,1105 L292.2815,1109 L312.2815,1113 L312.2815,1289 A0,0 0 0 0 312.2815,1289 L652.3215,1289 A0,0 0 0 0 652.3215,1289 L652.3215,939 L642.3215,929 L312.2815,929 A0,0 0 0 0 312.2815,929" fill="#FFF7D6" style="stroke:#B45309;stroke-width:0.5;"/><path d="M642.3215,929 L642.3215,939 L652.3215,939 L642.3215,929" fill="#FFF7D6" style="stroke:#B45309;stroke-width:0.5;"/><text fill="#334155" font-family="Helvetica" font-size="14" lengthAdjust="spacing" textLength="101.165" x="318.2815" y="944.7803">shared diagram:</text><text fill="#334155" font-family="Helvetica" font-size="14" lengthAdjust="spacing" textLength="284.7852" x="318.2815" y="958.7803">shared/diagrams/shared-reconcile-activity.svg</text><text fill="#334155" font-family="Helvetica" font-size="14" lengthAdjust="spacing" textLength="265.3438" x="318.2815" y="972.7803">Start from the shared reconcile activity and</text><text fill="#334155" font-family="Helvetica" font-size="14" lengthAdjust="spacing" textLength="273.8955" x="318.2815" y="986.7803">specialize provider-backed CRUD, wait, and</text><text fill="#334155" font-family="Helvetica" font-size="14" lengthAdjust="spacing" textLength="182.875" x="318.2815" y="1000.7803">status-projection details here.</text><text fill="#334155" font-family="Helvetica" font-size="14" lengthAdjust="spacing" textLength="229.5371" x="318.2815" y="1014.7803">Controller-local activity diagrams add</text><text fill="#334155" font-family="Helvetica" font-size="14" lengthAdjust="spacing" textLength="238.8955" x="318.2815" y="1028.7803">list-lookup hints, secret policies, delete</text><text fill="#334155" font-family="Helvetica" font-size="14" lengthAdjust="spacing" textLength="200.0332" x="318.2815" y="1042.7803">handling, and open formal gaps.</text><text fill="#334155" font-family="Helvetica" font-size="14" lengthAdjust="spacing" textLength="281.709" x="318.2815" y="1056.7803">archetype batch: Generated service-manager</text><text fill="#334155" font-family="Helvetica" font-size="14" lengthAdjust="spacing" textLength="291.0469" x="318.2815" y="1070.7803">controllers specialize the shared reconcile path</text><text fill="#334155" font-family="Helvetica" font-size="14" lengthAdjust="spacing" textLength="189.8477" x="318.2815" y="1084.7803">with formal runtime ownership.</text><text fill="#334155" font-family="Helvetica" font-size="14" lengthAdjust="spacing" textLength="151.7578" x="318.2815" y="1098.7803">service: containerengine</text><text fill="#334155" font-family="Helvetica" font-size="14" lengthAdjust="spacing" textLength="101.1787" x="318.2815" y="1112.7803">slug: kubeconfig</text><text fill="#334155" font-family="Helvetica" font-size="14" lengthAdjust="spacing" textLength="103.5166" x="318.2815" y="1126.7803">kind: Kubeconfig</text><text fill="#334155" font-family="Helvetica" font-size="14" lengthAdjust="spacing" textLength="241.2402" x="318.2815" y="1140.7803">archetype: generated-service-manager</text><text fill="#334155" font-family="Helvetica" font-size="14" lengthAdjust="spacing" textLength="156.4063" x="318.2815" y="1154.7803">status/finalizer: required /</text><text fill="#334155" font-family="Helvetica" font-size="14" lengthAdjust="spacing" textLength="174.3027" x="318.2815" y="1168.7803">retain-until-confirmed-delete</text><text fill="#334155" font-family="Helvetica" font-size="14" lengthAdjust="spacing" textLength="272.3984" x="318.2815" y="1182.7803">requeue: provisioning, updating, terminating</text><text fill="#334155" font-family="Helvetica" font-size="14" lengthAdjust="spacing" textLength="295.6816" x="318.2815" y="1196.7803">provider states: create PROVISIONING; update</text><text fill="#334155" font-family="Helvetica" font-size="14" lengthAdjust="spacing" textLength="192.165" x="318.2815" y="1210.7803">UPDATING; delete DELETING</text><text fill="#334155" font-family="Helvetica" font-size="14" lengthAdjust="spacing" textLength="319.04" x="318.2815" y="1224.7803">mutable/forceNew: display_name / compartment_id</text><text fill="#334155" font-family="Helvetica" font-size="14" lengthAdjust="spacing" textLength="104.3164" x="318.2815" y="1238.7803">open gaps: none</text><text fill="#334155" font-family="Helvetica" font-size="14" lengthAdjust="spacing" textLength="224.9023" x="318.2815" y="1252.7803">Scaffold metadata only; replace with</text><text fill="#334155" font-family="Helvetica" font-size="14" lengthAdjust="spacing" textLength="244.3232" x="318.2815" y="1266.7803">controller-specific runtime states before</text><text fill="#334155" font-family="Helvetica" font-size="14" lengthAdjust="spacing" textLength="66.1445" x="318.2815" y="1280.7803">promotion.</text><ellipse cx="281.2815" cy="1109" fill="none" rx="11" ry="11" style="stroke:#222222;stroke-width:1;"/><ellipse cx="281.2815" cy="1109" fill="#222222" rx="6" ry="6" style="stroke:#222222;stroke-width:1;"/><line style="stroke:#0F172A;stroke-width:1;" x1="281.2815" x2="281.2815" y1="65" y2="85"/><polygon fill="#0F172A" points="277.2815,75,281.2815,85,285.2815,75,281.2815,79" style="stroke:#0F172A;stroke-width:1;"/><line style="stroke:#0F172A;stroke-width:1;" x1="281.2815" x2="281.2815" y1="133" y2="153"/><polygon fill="#0F172A" points="277.2815,143,281.2815,153,285.2815,143,281.2815,147" style="stroke:#0F172A;stroke-width:1;"/><line style="stroke:#0F172A;stroke-width:1;" x1="281.2815" x2="281.2815" y1="201" y2="221"/><polygon fill="#0F172A" points="277.2815,211,281.2815,221,285.2815,211,281.2815,215" style="stroke:#0F172A;stroke-width:1;"/><line style="stroke:#0F172A;stroke-width:1;" x1="281.2815" x2="281.2815" y1="269" y2="289"/><polygon fill="#0F172A" points="277.2815,279,281.2815,289,285.2815,279,281.2815,283" style="stroke:#0F172A;stroke-width:1;"/><line style="stroke:#0F172A;stroke-width:1;" x1="144.3511" x2="144.3511" y1="439" y2="459"/><polygon fill="#0F172A" points="140.3511,449,144.3511,459,148.3511,449,144.3511,453" style="stroke:#0F172A;stroke-width:1;"/><line style="stroke:#0F172A;stroke-width:1;" x1="215.592" x2="144.3511" y1="383" y2="383"/><line style="stroke:#0F172A;stroke-width:1;" x1="144.3511" x2="144.3511" y1="383" y2="405"/><polygon fill="#0F172A" points="140.3511,395,144.3511,405,148.3511,395,144.3511,399" style="stroke:#0F172A;stroke-width:1;"/><line style="stroke:#0F172A;stroke-width:1;" x1="346.9709" x2="418.2119" y1="383" y2="383"/><line style="stroke:#0F172A;stroke-width:1;" x1="418.2119" x2="418.2119" y1="383" y2="405"/><polygon fill="#0F172A" points="414.2119,395,418.2119,405,422.2119,395,418.2119,399" style="stroke:#0F172A;stroke-width:1;"/><line style="stroke:#0F172A;stroke-width:1;" x1="144.3511" x2="144.3511" y1="507" y2="525"/><line style="stroke:#0F172A;stroke-width:1;" x1="144.3511" x2="269.2815" y1="525" y2="525"/><polygon fill="#0F172A" points="259.2815,521,269.2815,525,259.2815,529,263.2815,525" style="stroke:#0F172A;stroke-width:1;"/><line style="stroke:#0F172A;stroke-width:1;" x1="418.2119" x2="418.2119" y1="439" y2="525"/><line style="stroke:#0F172A;stroke-width:1;" x1="418.2119" x2="293.2815" y1="525" y2="525"/><polygon fill="#0F172A" points="303.2815,521,293.2815,525,303.2815,529,299.2815,525" style="stroke:#0F172A;stroke-width:1;"/><line style="stroke:#0F172A;stroke-width:1;" x1="281.2815" x2="281.2815" y1="351" y2="371"/><polygon fill="#0F172A" points="277.2815,361,281.2815,371,285.2815,361,281.2815,365" style="stroke:#0F172A;stroke-width:1;"/><line style="stroke:#0F172A;stroke-width:1;" x1="281.2815" x2="281.2815" y1="537" y2="557"/><polygon fill="#0F172A" points="277.2815,547,281.2815,557,285.2815,547,281.2815,551" style="stroke:#0F172A;stroke-width:1;"/><line style="stroke:#0F172A;stroke-width:1;" x1="281.2815" x2="281.2815" y1="661" y2="681"/><polygon fill="#0F172A" points="277.2815,671,281.2815,681,285.2815,671,281.2815,675" style="stroke:#0F172A;stroke-width:1;"/><line style="stroke:#0F172A;stroke-width:1;" x1="281.2815" x2="281.2815" y1="715" y2="735"/><polygon fill="#0F172A" points="277.2815,725,281.2815,735,285.2815,725,281.2815,729" style="stroke:#0F172A;stroke-width:1;"/><line style="stroke:#0F172A;stroke-width:1;" x1="281.2815" x2="281.2815" y1="797" y2="817"/><polygon fill="#0F172A" points="277.2815,807,281.2815,817,285.2815,807,281.2815,811" style="stroke:#0F172A;stroke-width:1;"/><line style="stroke:#0F172A;stroke-width:1;" x1="281.2815" x2="281.2815" y1="865" y2="885"/><polygon fill="#0F172A" points="277.2815,875,281.2815,885,285.2815,875,281.2815,879" style="stroke:#0F172A;stroke-width:1;"/><line style="stroke:#0F172A;stroke-width:1;" x1="281.2815" x2="281.2815" y1="919" y2="1098"/><polygon fill="#0F172A" points="277.2815,1088,281.2815,1098,285.2815,1088,281.2815,1092" style="stroke:#0F172A;stroke-width:1;"/><?plantuml-src bLPjJ-Gs4FxkNp5Ilt3IPXSExevcXIgwot6e210SvSjAo1jF4XV7Jcrdjzkg_xtZE9iD2wfQ8H4o7i_BCyyymRr8NNFBAt0b5sOjTG4vLmwPwq-MF7ifh6cqc1bbBFoGP_GZ1Xu2Szue_zLeVyChX6-eLkXbnj_tUP1_8XoT30wvjMRTHJ_CZxvy7DxKnkFFRsh8yo_YyxwNiG9jvx4y-NHy-EEUHqZVdHyVdnnz-ZGuRyDdncgqSFIPUUaLmddcvKhw3IIGqLqkwHHrGO_9ByqIoPRBOjZ9rlyl1kyWTvhpF0idmqgxZW7oNNMzJKXU6ItU080VyJG_73WC8nw94nIdkyElxmHsdbk_xuzz_DvloVUY_itQgonz20_8hMdPOr50hinweUFBX78N18cRnFV41hGogJ3PWZHsgsBAqcl31V73oH1YXogu6ZFWMeHIVUFQJ0iT76X67XrTlKTdY6jmExjglH1MaiCb-a6OjVJbGbzBDpGIoLKO3yLuT0Wkutbkb7ZU6_BpItzbGR-KH-k821KDsrUe_RCKeoxnkaGTwfY3CkQbgHUQC5jABP8LNMfSabaCVXfHE51K3jXGVUEbqLCcSpW8tJGsGy0_wDZzz05y27gmGVU1wgn5k5zpNq96vJk8bbrNrCnbmws0gl5yIUpD9IfA9gIh5Tyywx2S12YrOYXDed6zTNdTqvGXQG0SQ4DvPx7kGTve6UObtiYSnj5egArPIQ8YbAZgy20qt4B7xizyRhicnp7AjkVHGW_EdhWagR1FnhxSu-yDElz4KxmWcR3Vg055EhNGL2kHwCnZHTrHXO5MHf_DxY_Elr_CfmlTjFWCSqR4jZd9HQ32roxprjAxiFIyhjM6PbMRX3U-D86b3gaV3xLHCjkGikZW66z6e1g73gBX3HKjTTHo_IrNYJAlYKge69XVN5zGHz2QRCKZOz8xQtx3BD2eYzVjILYPN6gkI6TjLsF86eYTD0IQIhf8j9KHW7QL2ES6mNGZT9I4O1v1YsBx5x6_ehZXPKeYO6eMD1MiB4hFEWdejZvb_qi5s41BYFDRFUcTTxfApR4W3B9jhsTR4fQPRipk7-SZM1DzHj6rXIIf8rJK4WaDuK0aBcd7nsn6-swDKXH16MBtBj6sSE12iB2kITnhAANsRlIA0XB9495aPSVFDZ-OcXQOjgsYq0MltPXncvNeDpMIilgiJ8a193V4oi0gkvAqbnNNl43Bihuu1uEUtmKei8u5VcspsJ1fsdUpfl2kbFMOTV7J_KyPSwefKjXf7QFlcKW7MhohEeLYMs-oNsy4Uz9pBzrHSyB-bN_CHlQb_uLxh9UOLdaTzHCbwkx-zjUhXwlRcwkRoscyY-pnRdx-lJN4L76RoC0wbPoqOdY3w_IrK4xsH96rimn3JDkDPm_THmCgQeroSTeTjPa6gL2SL3nCOp33f1rXBhD-DB5yM29LWA6hoWIAZeESjl-k_0C0?></g></svg>