<?plantuml 1.2026.1?><svg xmlns="http://www.w3.org/2000/svg" xmlns:xlink="http://www.w3.org/1999/xlink" contentStyleType="text/css" data-diagram-type="SEQUENCE" height="2118px" preserveAspectRatio="none" style="width:1518px;height:2118px;background:#FCFCFD;" version="1.1" viewBox="0 0 1518 2118" width="1518px" zoomAndPan="magnify"><title>Sequence - database/DatabaseAutonomousDatabaseDataguardAssociations</title><defs/><g><rect fill="#FCFCFD" height="2118" style="stroke:none;stroke-width:1;" width="1518" x="0" y="0"/><text fill="#000000" font-family="Helvetica" font-size="14" font-weight="bold" lengthAdjust="spacing" textLength="510.3643" x="510.2512" y="25.7803">Sequence - database/DatabaseAutonomousDatabaseDataguardAssociations</text><rect fill="none" height="290" rx="8" ry="8" style="stroke:#CBD5E1;stroke-width:1.5;" width="912.1338" x="583.0449" y="356"/><rect fill="none" height="146" rx="8" ry="8" style="stroke:#CBD5E1;stroke-width:1.5;" width="567.8667" x="917.312" y="465"/><rect fill="none" height="44" rx="8" ry="8" style="stroke:#CBD5E1;stroke-width:1.5;" width="547.8667" x="927.312" y="516"/><rect fill="none" height="868" rx="8" ry="8" style="stroke:#CBD5E1;stroke-width:1.5;" width="948.8218" x="563.0449" y="660"/><rect fill="none" height="302" rx="8" ry="8" style="stroke:#CBD5E1;stroke-width:1.5;" width="912.1338" x="573.0449" y="683"/><rect fill="none" height="72" rx="8" ry="8" style="stroke:#CBD5E1;stroke-width:1.5;" width="547.8667" x="927.312" y="804"/><rect fill="none" height="88" rx="8" ry="8" style="stroke:#CBD5E1;stroke-width:1.5;" width="520.6597" x="583.0449" y="890"/><rect fill="none" height="392" rx="8" ry="8" style="stroke:#CBD5E1;stroke-width:1.5;" width="928.8218" x="573.0449" y="1087"/><rect fill="none" height="44" rx="8" ry="8" style="stroke:#CBD5E1;stroke-width:1.5;" width="520.6597" x="583.0449" y="1186"/><rect fill="none" height="130" rx="8" ry="8" style="stroke:#CBD5E1;stroke-width:1.5;" width="567.8667" x="917.312" y="1244"/><rect fill="none" height="44" rx="8" ry="8" style="stroke:#CBD5E1;stroke-width:1.5;" width="547.8667" x="927.312" y="1323"/><g class="participant-lifeline" data-entity-uid="part1" data-qualified-name="Kubernetes" id="part1-lifeline"><g><title>Kubernetes</title><rect fill="#000000" fill-opacity="0.00000" height="1997" width="8" x="39.8032" y="114"/><line style="stroke:#94A3B8;stroke-width:0.5;stroke-dasharray:5,5;" x1="43" x2="43" y1="114" y2="2111"/></g></g><g class="participant-lifeline" data-entity-uid="part2" data-qualified-name="Controller" id="part2-lifeline"><g><title>Controller</title><rect fill="#000000" fill-opacity="0.00000" height="1997" width="8" x="406.2427" y="114"/><line style="stroke:#94A3B8;stroke-width:0.5;stroke-dasharray:5,5;" x1="409.8979" x2="409.8979" y1="114" y2="2111"/></g></g><g class="participant-lifeline" data-entity-uid="part3" data-qualified-name="BaseReconciler" id="part3-lifeline"><g><title>BaseReconciler</title><rect fill="#000000" fill-opacity="0.00000" height="1997" width="8" x="645.0688" y="114"/><line style="stroke:#94A3B8;stroke-width:0.5;stroke-dasharray:5,5;" x1="649.0449" x2="649.0449" y1="114" y2="2111"/></g></g><g class="participant-lifeline" data-entity-uid="part4" data-qualified-name="ServiceManager" id="part4-lifeline"><g><title>OSOKServiceManager</title><rect fill="#000000" fill-opacity="0.00000" height="1997" width="8" x="1011.5083" y="114"/><line style="stroke:#94A3B8;stroke-width:0.5;stroke-dasharray:5,5;" x1="1015.312" x2="1015.312" y1="114" y2="2111"/></g></g><g class="participant-lifeline" data-entity-uid="part5" data-qualified-name="OCI" id="part5-lifeline"><g><title>OCI</title><rect fill="#000000" fill-opacity="0.00000" height="1997" width="8" x="1441.7339" y="114"/><line style="stroke:#94A3B8;stroke-width:0.5;stroke-dasharray:5,5;" x1="1445.2891" x2="1445.2891" y1="114" y2="2111"/></g></g><g class="participant participant-head" data-entity-uid="part1" data-qualified-name="Kubernetes" id="part1-head"><text fill="#000000" font-family="Helvetica" font-size="14" lengthAdjust="spacing" textLength="71.6064" x="5" y="110.7803">Kubernetes</text><ellipse cx="43.8032" cy="48.5" fill="#E2E8F0" rx="8" ry="8" style="stroke:#0F172A;stroke-width:0.5;"/><path d="M43.8032,56.5 L43.8032,83.5 M30.8032,64.5 L56.8032,64.5 M43.8032,83.5 L30.8032,98.5 M43.8032,83.5 L56.8032,98.5" fill="none" style="stroke:#0F172A;stroke-width:0.5;"/></g><g class="participant participant-head" data-entity-uid="part2" data-qualified-name="Controller" id="part2-head"><rect fill="#E2E8F0" height="28" rx="8" ry="8" style="stroke:#0F172A;stroke-width:0.5;" width="74.6895" x="372.8979" y="85"/><text fill="#0F172A" font-family="Helvetica" font-size="14" lengthAdjust="spacing" textLength="60.6895" x="379.8979" y="102.7803">Controller</text></g><g class="participant participant-head" data-entity-uid="part3" data-qualified-name="BaseReconciler" id="part3-head"><rect fill="#E2E8F0" height="28" rx="8" ry="8" style="stroke:#0F172A;stroke-width:0.5;" width="112.0479" x="593.0449" y="85"/><text fill="#0F172A" font-family="Helvetica" font-size="14" lengthAdjust="spacing" textLength="98.0479" x="600.0449" y="102.7803">BaseReconciler</text></g><g class="participant participant-head" data-entity-uid="part4" data-qualified-name="ServiceManager" id="part4-head"><rect fill="#E2E8F0" height="28" rx="8" ry="8" style="stroke:#0F172A;stroke-width:0.5;" width="156.3926" x="937.312" y="85"/><text fill="#0F172A" font-family="Helvetica" font-size="14" lengthAdjust="spacing" textLength="142.3926" x="944.312" y="102.7803">OSOKServiceManager</text></g><g class="participant participant-head" data-entity-uid="part5" data-qualified-name="OCI" id="part5-head"><rect fill="#E2E8F0" height="28" rx="8" ry="8" style="stroke:#0F172A;stroke-width:0.5;" width="38.8896" x="1426.2891" y="85"/><text fill="#0F172A" font-family="Helvetica" font-size="14" lengthAdjust="spacing" textLength="24.8896" x="1433.2891" y="102.7803">OCI</text></g><path d="M584,137 L584,187 A8,8 0 0 0 592,195 L1071,195 A8,8 0 0 0 1079,187 L1079,139 L1069,129 L592,129 A8,8 0 0 0 584,137" fill="#FFF7D6" style="stroke:#B45309;stroke-width:0.5;"/><path d="M1069,129 L1069,135 A4,4 0 0 0 1073,139 L1079,139 L1069,129" fill="#FFF7D6" style="stroke:#B45309;stroke-width:0.5;"/><text fill="#334155" font-family="Helvetica" font-size="14" lengthAdjust="spacing" textLength="111.2891" x="673.634" y="144.7803">shared resolution:</text><text fill="#334155" font-family="Helvetica" font-size="14" lengthAdjust="spacing" textLength="307.3916" x="673.634" y="158.7803">shared/diagrams/shared-resolution-sequence.svg</text><text fill="#334155" font-family="Helvetica" font-size="14" lengthAdjust="spacing" textLength="88.7305" x="673.634" y="172.7803">shared delete:</text><text fill="#334155" font-family="Helvetica" font-size="14" lengthAdjust="spacing" textLength="284.833" x="673.634" y="186.7803">shared/diagrams/shared-delete-sequence.svg</text><g class="message" data-entity-1="part1" data-entity-2="part2" id="msg1"><polygon fill="#0F172A" points="398.2427,244,408.2427,248,398.2427,252,402.2427,248" style="stroke:#0F172A;stroke-width:1;"/><line style="stroke:#0F172A;stroke-width:1;" x1="43.8032" x2="404.2427" y1="248" y2="248"/><text fill="#000000" font-family="Helvetica" font-size="14" lengthAdjust="spacing" textLength="54.5029" x="50.8032" y="214.7803">enqueue</text><text fill="#000000" font-family="Helvetica" font-size="14" lengthAdjust="spacing" textLength="342.4395" x="50.8032" y="228.7803">DatabaseAutonomousDatabaseDataguardAssociations</text><text fill="#000000" font-family="Helvetica" font-size="14" lengthAdjust="spacing" textLength="56.0273" x="50.8032" y="242.7803">reconcile</text></g><g class="message" data-entity-1="part2" data-entity-2="part3" id="msg2"><polygon fill="#0F172A" points="637.0688,272,647.0688,276,637.0688,280,641.0688,276" style="stroke:#0F172A;stroke-width:1;"/><line style="stroke:#0F172A;stroke-width:1;" x1="410.2427" x2="643.0688" y1="276" y2="276"/><text fill="#000000" font-family="Helvetica" font-size="14" lengthAdjust="spacing" textLength="117.4961" x="417.2427" y="270.7803">Reconcile(request)</text></g><g class="message" data-entity-1="part3" data-entity-2="part4" id="msg3"><polygon fill="#0F172A" points="1003.5083,314,1013.5083,318,1003.5083,322,1007.5083,318" style="stroke:#0F172A;stroke-width:1;"/><line style="stroke:#0F172A;stroke-width:1;" x1="649.0688" x2="1009.5083" y1="318" y2="318"/><text fill="#000000" font-family="Helvetica" font-size="14" lengthAdjust="spacing" textLength="105.834" x="656.0688" y="298.7803">reconcile desired</text><text fill="#000000" font-family="Helvetica" font-size="14" lengthAdjust="spacing" textLength="342.4395" x="656.0688" y="312.7803">DatabaseAutonomousDatabaseDataguardAssociations</text></g><path d="M591.0449,356 L644.3828,356 L644.3828,362 L634.3828,372 L583.0449,372 L583.0449,364 A8,8 0 0 1 591.0449,356" fill="#F8FAFC" style="stroke:#CBD5E1;stroke-width:1.5;"/><rect fill="none" height="290" rx="8" ry="8" style="stroke:#CBD5E1;stroke-width:1.5;" width="912.1338" x="583.0449" y="356"/><text fill="#000000" font-family="Helvetica" font-size="14" font-weight="bold" lengthAdjust="spacing" textLength="16.3379" x="598.0449" y="367.7803">alt</text><text fill="#000000" font-family="Helvetica" font-size="14" font-weight="bold" lengthAdjust="spacing" textLength="308.1094" x="659.3828" y="368.7803">[tracked or explicit OCI identity already exists]</text><g class="message" data-entity-1="part4" data-entity-2="part5" id="msg4"><polygon fill="#0F172A" points="1433.7339,388,1443.7339,392,1433.7339,396,1437.7339,392" style="stroke:#0F172A;stroke-width:1;"/><line style="stroke:#0F172A;stroke-width:1;" x1="1015.5083" x2="1439.7339" y1="392" y2="392"/><text fill="#000000" font-family="Helvetica" font-size="14" lengthAdjust="spacing" textLength="365.0049" x="1022.5083" y="386.7803">GetDatabaseAutonomousDatabaseDataguardAssociations</text></g><line style="stroke:#CBD5E1;stroke-width:1;stroke-dasharray:2,2;" x1="583.0449" x2="1495.1787" y1="401" y2="401"/><text fill="#000000" font-family="Helvetica" font-size="14" font-weight="bold" lengthAdjust="spacing" textLength="185.1582" x="588.0449" y="411.7803">[tracked identity is missing]</text><g class="message" data-entity-1="part4" data-entity-2="part5" id="msg5"><polygon fill="#0F172A" points="1433.7339,446,1443.7339,450,1433.7339,454,1437.7339,450" style="stroke:#0F172A;stroke-width:1;"/><line style="stroke:#0F172A;stroke-width:1;" x1="1015.5083" x2="1439.7339" y1="450" y2="450"/><text fill="#000000" font-family="Helvetica" font-size="14" lengthAdjust="spacing" textLength="406.2256" x="1022.5083" y="430.7803">ListDatabaseAutonomousDatabaseDataguardAssociations(filters:</text><text fill="#000000" font-family="Helvetica" font-size="14" lengthAdjust="spacing" textLength="143.1719" x="1022.5083" y="444.7803">compartment_id, state)</text></g><path d="M925.312,465 L978.6499,465 L978.6499,471 L968.6499,481 L917.312,481 L917.312,473 A8,8 0 0 1 925.312,465" fill="#F8FAFC" style="stroke:#CBD5E1;stroke-width:1.5;"/><rect fill="none" height="146" rx="8" ry="8" style="stroke:#CBD5E1;stroke-width:1.5;" width="567.8667" x="917.312" y="465"/><text fill="#000000" font-family="Helvetica" font-size="14" font-weight="bold" lengthAdjust="spacing" textLength="16.3379" x="932.312" y="476.7803">alt</text><text fill="#000000" font-family="Helvetica" font-size="14" font-weight="bold" lengthAdjust="spacing" textLength="242.7031" x="993.6499" y="477.7803">[reusable OCI resource is not found]</text><g class="message" data-entity-1="part4" data-entity-2="part5" id="msg6"><polygon fill="#0F172A" points="1433.7339,497,1443.7339,501,1433.7339,505,1437.7339,501" style="stroke:#0F172A;stroke-width:1;"/><line style="stroke:#0F172A;stroke-width:1;" x1="1015.5083" x2="1439.7339" y1="501" y2="501"/><text fill="#000000" font-family="Helvetica" font-size="14" lengthAdjust="spacing" textLength="384.46" x="1022.5083" y="495.7803">CreateDatabaseAutonomousDatabaseDataguardAssociations</text></g><path d="M935.312,516 L1001.8569,516 L1001.8569,522 L991.8569,532 L927.312,532 L927.312,524 A8,8 0 0 1 935.312,516" fill="#F8FAFC" style="stroke:#CBD5E1;stroke-width:1.5;"/><rect fill="none" height="44" rx="8" ry="8" style="stroke:#CBD5E1;stroke-width:1.5;" width="547.8667" x="927.312" y="516"/><text fill="#000000" font-family="Helvetica" font-size="14" font-weight="bold" lengthAdjust="spacing" textLength="29.5449" x="942.312" y="527.7803">loop</text><text fill="#000000" font-family="Helvetica" font-size="14" font-weight="bold" lengthAdjust="spacing" textLength="215.4756" x="1016.8569" y="528.7803">[create pending PROVISIONING]</text><g class="message" data-entity-1="part4" data-entity-2="part5" id="msg7"><polygon fill="#0F172A" points="1433.7339,548,1443.7339,552,1433.7339,556,1437.7339,552" style="stroke:#0F172A;stroke-width:1;"/><line style="stroke:#0F172A;stroke-width:1;" x1="1015.5083" x2="1439.7339" y1="552" y2="552"/><text fill="#000000" font-family="Helvetica" font-size="14" lengthAdjust="spacing" textLength="365.0049" x="1022.5083" y="546.7803">GetDatabaseAutonomousDatabaseDataguardAssociations</text></g><line style="stroke:#CBD5E1;stroke-width:1;stroke-dasharray:2,2;" x1="917.312" x2="1485.1787" y1="568" y2="568"/><text fill="#000000" font-family="Helvetica" font-size="14" font-weight="bold" lengthAdjust="spacing" textLength="255.2334" x="922.312" y="578.7803">[reusable OCI resource already exists]</text><g class="message" data-entity-1="part4" data-entity-2="part5" id="msg8"><polygon fill="#0F172A" points="1433.7339,599,1443.7339,603,1433.7339,607,1437.7339,603" style="stroke:#0F172A;stroke-width:1;"/><line style="stroke:#0F172A;stroke-width:1;" x1="1015.5083" x2="1439.7339" y1="603" y2="603"/><text fill="#000000" font-family="Helvetica" font-size="14" lengthAdjust="spacing" textLength="365.0049" x="1022.5083" y="597.7803">GetDatabaseAutonomousDatabaseDataguardAssociations</text></g><g class="message" data-entity-1="part4" data-entity-2="part3" id="msg9"><polygon fill="#0F172A" points="660.0688,634,650.0688,638,660.0688,642,656.0688,638" style="stroke:#0F172A;stroke-width:1;"/><line style="stroke:#0F172A;stroke-width:1;stroke-dasharray:2,2;" x1="654.0688" x2="1014.5083" y1="638" y2="638"/><text fill="#000000" font-family="Helvetica" font-size="14" lengthAdjust="spacing" textLength="231.0957" x="666.0688" y="632.7803">persist resolved OCI identity in status</text></g><path d="M571.0449,660 L624.3828,660 L624.3828,666 L614.3828,676 L563.0449,676 L563.0449,668 A8,8 0 0 1 571.0449,660" fill="#F8FAFC" style="stroke:#CBD5E1;stroke-width:1.5;"/><rect fill="none" height="868" rx="8" ry="8" style="stroke:#CBD5E1;stroke-width:1.5;" width="948.8218" x="563.0449" y="660"/><text fill="#000000" font-family="Helvetica" font-size="14" font-weight="bold" lengthAdjust="spacing" textLength="16.3379" x="578.0449" y="671.7803">alt</text><text fill="#000000" font-family="Helvetica" font-size="14" font-weight="bold" lengthAdjust="spacing" textLength="120.5859" x="639.3828" y="672.7803">[delete requested]</text><path d="M581.0449,683 L660.0654,683 L660.0654,689 L650.0654,699 L573.0449,699 L573.0449,691 A8,8 0 0 1 581.0449,683" fill="#F8FAFC" style="stroke:#CBD5E1;stroke-width:1.5;"/><rect fill="none" height="302" rx="8" ry="8" style="stroke:#CBD5E1;stroke-width:1.5;" width="912.1338" x="573.0449" y="683"/><text fill="#000000" font-family="Helvetica" font-size="14" font-weight="bold" lengthAdjust="spacing" textLength="42.0205" x="588.0449" y="694.7803">Delete</text><g class="message" data-entity-1="part4" data-entity-2="part5" id="msg10"><polygon fill="#0F172A" points="1433.7339,715,1443.7339,719,1433.7339,723,1437.7339,719" style="stroke:#0F172A;stroke-width:1;"/><line style="stroke:#0F172A;stroke-width:1;" x1="1015.5083" x2="1439.7339" y1="719" y2="719"/><text fill="#000000" font-family="Helvetica" font-size="14" lengthAdjust="spacing" textLength="382.9082" x="1022.5083" y="713.7803">DeleteDatabaseAutonomousDatabaseDataguardAssociations</text></g><g class="message" data-entity-1="part4" data-entity-2="part5" id="msg11"><polygon fill="#0F172A" points="1433.7339,785,1443.7339,789,1433.7339,793,1437.7339,789" style="stroke:#0F172A;stroke-width:1;"/><line style="stroke:#0F172A;stroke-width:1;" x1="1015.5083" x2="1439.7339" y1="789" y2="789"/><text fill="#000000" font-family="Helvetica" font-size="14" lengthAdjust="spacing" textLength="109.7168" x="1022.5083" y="741.7803">confirm delete via</text><text fill="#000000" font-family="Helvetica" font-size="14" lengthAdjust="spacing" textLength="365.0049" x="1022.5083" y="755.7803">GetDatabaseAutonomousDatabaseDataguardAssociations</text><text fill="#000000" font-family="Helvetica" font-size="14" lengthAdjust="spacing" textLength="12.4482" x="1022.5083" y="769.7803">or</text><text fill="#000000" font-family="Helvetica" font-size="14" lengthAdjust="spacing" textLength="364.2256" x="1022.5083" y="783.7803">ListDatabaseAutonomousDatabaseDataguardAssociations</text></g><path d="M935.312,804 L1001.8569,804 L1001.8569,810 L991.8569,820 L927.312,820 L927.312,812 A8,8 0 0 1 935.312,804" fill="#F8FAFC" style="stroke:#CBD5E1;stroke-width:1.5;"/><rect fill="none" height="72" rx="8" ry="8" style="stroke:#CBD5E1;stroke-width:1.5;" width="547.8667" x="927.312" y="804"/><text fill="#000000" font-family="Helvetica" font-size="14" font-weight="bold" lengthAdjust="spacing" textLength="29.5449" x="942.312" y="815.7803">loop</text><text fill="#000000" font-family="Helvetica" font-size="14" font-weight="bold" lengthAdjust="spacing" textLength="182.7793" x="1016.8569" y="816.7803">[delete pending DELETING]</text><g class="message" data-entity-1="part4" data-entity-2="part5" id="msg12"><polygon fill="#0F172A" points="1433.7339,864,1443.7339,868,1433.7339,872,1437.7339,868" style="stroke:#0F172A;stroke-width:1;"/><line style="stroke:#0F172A;stroke-width:1;" x1="1015.5083" x2="1439.7339" y1="868" y2="868"/><text fill="#000000" font-family="Helvetica" font-size="14" lengthAdjust="spacing" textLength="365.0049" x="1022.5083" y="834.7803">GetDatabaseAutonomousDatabaseDataguardAssociations</text><text fill="#000000" font-family="Helvetica" font-size="14" lengthAdjust="spacing" textLength="12.4482" x="1022.5083" y="848.7803">or</text><text fill="#000000" font-family="Helvetica" font-size="14" lengthAdjust="spacing" textLength="364.2256" x="1022.5083" y="862.7803">ListDatabaseAutonomousDatabaseDataguardAssociations</text></g><path d="M591.0449,890 L644.3828,890 L644.3828,896 L634.3828,906 L583.0449,906 L583.0449,898 A8,8 0 0 1 591.0449,890" fill="#F8FAFC" style="stroke:#CBD5E1;stroke-width:1.5;"/><rect fill="none" height="88" rx="8" ry="8" style="stroke:#CBD5E1;stroke-width:1.5;" width="520.6597" x="583.0449" y="890"/><text fill="#000000" font-family="Helvetica" font-size="14" font-weight="bold" lengthAdjust="spacing" textLength="16.3379" x="598.0449" y="901.7803">alt</text><text fill="#000000" font-family="Helvetica" font-size="14" font-weight="bold" lengthAdjust="spacing" textLength="261.4268" x="659.3828" y="902.7803">[cleanup or finalizer release is blocked]</text><g class="message" data-entity-1="part4" data-entity-2="part3" id="msg13"><polygon fill="#0F172A" points="660.0688,922,650.0688,926,660.0688,930,656.0688,926" style="stroke:#0F172A;stroke-width:1;"/><line style="stroke:#0F172A;stroke-width:1;stroke-dasharray:2,2;" x1="654.0688" x2="1014.5083" y1="926" y2="926"/><text fill="#000000" font-family="Helvetica" font-size="14" lengthAdjust="spacing" textLength="170.4336" x="666.0688" y="920.7803">retain delete state and retry</text></g><line style="stroke:#CBD5E1;stroke-width:1;stroke-dasharray:2,2;" x1="583.0449" x2="1103.7046" y1="935" y2="935"/><text fill="#000000" font-family="Helvetica" font-size="14" font-weight="bold" lengthAdjust="spacing" textLength="194.4824" x="588.0449" y="945.7803">[delete completion observed]</text><g class="message" data-entity-1="part4" data-entity-2="part3" id="msg14"><polygon fill="#0F172A" points="660.0688,966,650.0688,970,660.0688,974,656.0688,970" style="stroke:#0F172A;stroke-width:1;"/><line style="stroke:#0F172A;stroke-width:1;stroke-dasharray:2,2;" x1="654.0688" x2="1014.5083" y1="970" y2="970"/><text fill="#000000" font-family="Helvetica" font-size="14" lengthAdjust="spacing" textLength="243.5781" x="666.0688" y="964.7803">release finalizer after delete completion</text></g><line style="stroke:#CBD5E1;stroke-width:1;stroke-dasharray:2,2;" x1="563.0449" x2="1511.8667" y1="993" y2="993"/><text fill="#000000" font-family="Helvetica" font-size="14" font-weight="bold" lengthAdjust="spacing" textLength="149.3857" x="568.0449" y="1003.7803">[OCI state is retryable]</text><g class="message" data-entity-1="part4" data-entity-2="part3" id="msg15"><polygon fill="#0F172A" points="660.0688,1038,650.0688,1042,660.0688,1046,656.0688,1042" style="stroke:#0F172A;stroke-width:1;"/><line style="stroke:#0F172A;stroke-width:1;stroke-dasharray:2,2;" x1="654.0688" x2="1014.5083" y1="1042" y2="1042"/><text fill="#000000" font-family="Helvetica" font-size="14" lengthAdjust="spacing" textLength="184.4199" x="666.0688" y="1022.7803">requeue while OCI remains in</text><text fill="#000000" font-family="Helvetica" font-size="14" lengthAdjust="spacing" textLength="260.5928" x="666.0688" y="1036.7803">PROVISIONING, UPDATING, DELETING</text></g><line style="stroke:#CBD5E1;stroke-width:1;stroke-dasharray:2,2;" x1="563.0449" x2="1511.8667" y1="1051" y2="1051"/><text fill="#000000" font-family="Helvetica" font-size="14" font-weight="bold" lengthAdjust="spacing" textLength="200.751" x="568.0449" y="1061.7803">[live state requires field-aware</text><text fill="#000000" font-family="Helvetica" font-size="14" font-weight="bold" lengthAdjust="spacing" textLength="105.0068" x="568.0449" y="1075.7803">drift evaluation]</text><path d="M581.0449,1087 L709.0313,1087 L709.0313,1093 L699.0313,1103 L573.0449,1103 L573.0449,1095 A8,8 0 0 1 581.0449,1087" fill="#F8FAFC" style="stroke:#CBD5E1;stroke-width:1.5;"/><rect fill="none" height="392" rx="8" ry="8" style="stroke:#CBD5E1;stroke-width:1.5;" width="928.8218" x="573.0449" y="1087"/><text fill="#000000" font-family="Helvetica" font-size="14" font-weight="bold" lengthAdjust="spacing" textLength="90.9863" x="588.0449" y="1098.7803">Drift handling</text><path d="M969,1116 L969,1166 A8,8 0 0 0 977,1174 L1483,1174 A8,8 0 0 0 1491,1166 L1491,1118 L1481,1108 L977,1108 A8,8 0 0 0 969,1116" fill="#FFF7D6" style="stroke:#B45309;stroke-width:0.5;"/><path d="M1481,1108 L1481,1114 A4,4 0 0 0 1485,1118 L1491,1118 L1481,1108" fill="#FFF7D6" style="stroke:#B45309;stroke-width:0.5;"/><text fill="#334155" font-family="Helvetica" font-size="14" lengthAdjust="spacing" textLength="255.2813" x="1098.2927" y="1123.7803">Supported update surface: display_name</text><text fill="#334155" font-family="Helvetica" font-size="14" lengthAdjust="spacing" textLength="235.7783" x="1098.2927" y="1137.7803">Reject before mutate: force-new fields</text><text fill="#334155" font-family="Helvetica" font-size="14" lengthAdjust="spacing" textLength="100.3789" x="1098.2927" y="1151.7803">compartment_id</text><text fill="#334155" font-family="Helvetica" font-size="14" lengthAdjust="spacing" textLength="229.5576" x="1098.2927" y="1165.7803">Lookup filters: compartment_id, state</text><path d="M591.0449,1186 L649.8105,1186 L649.8105,1192 L639.8105,1202 L583.0449,1202 L583.0449,1194 A8,8 0 0 1 591.0449,1186" fill="#F8FAFC" style="stroke:#CBD5E1;stroke-width:1.5;"/><rect fill="none" height="44" rx="8" ry="8" style="stroke:#CBD5E1;stroke-width:1.5;" width="520.6597" x="583.0449" y="1186"/><text fill="#000000" font-family="Helvetica" font-size="14" font-weight="bold" lengthAdjust="spacing" textLength="21.7656" x="598.0449" y="1197.7803">opt</text><text fill="#000000" font-family="Helvetica" font-size="14" font-weight="bold" lengthAdjust="spacing" textLength="276.1309" x="664.8105" y="1198.7803">[force-new or conflicting drift is detected]</text><g class="message" data-entity-1="part4" data-entity-2="part3" id="msg16"><polygon fill="#0F172A" points="660.0688,1218,650.0688,1222,660.0688,1226,656.0688,1222" style="stroke:#0F172A;stroke-width:1;"/><line style="stroke:#0F172A;stroke-width:1;stroke-dasharray:2,2;" x1="654.0688" x2="1014.5083" y1="1222" y2="1222"/><text fill="#000000" font-family="Helvetica" font-size="14" lengthAdjust="spacing" textLength="164.1855" x="666.0688" y="1216.7803">reject before OCI mutation</text></g><path d="M925.312,1244 L984.0776,1244 L984.0776,1250 L974.0776,1260 L917.312,1260 L917.312,1252 A8,8 0 0 1 925.312,1244" fill="#F8FAFC" style="stroke:#CBD5E1;stroke-width:1.5;"/><rect fill="none" height="130" rx="8" ry="8" style="stroke:#CBD5E1;stroke-width:1.5;" width="567.8667" x="917.312" y="1244"/><text fill="#000000" font-family="Helvetica" font-size="14" font-weight="bold" lengthAdjust="spacing" textLength="21.7656" x="932.312" y="1255.7803">opt</text><text fill="#000000" font-family="Helvetica" font-size="14" font-weight="bold" lengthAdjust="spacing" textLength="243.4619" x="999.0776" y="1256.7803">[supported mutable drift is detected]</text><g class="message" data-entity-1="part4" data-entity-2="part5" id="msg17"><polygon fill="#0F172A" points="1433.7339,1304,1443.7339,1308,1433.7339,1312,1437.7339,1308" style="stroke:#0F172A;stroke-width:1;"/><line style="stroke:#0F172A;stroke-width:1;" x1="1015.5083" x2="1439.7339" y1="1308" y2="1308"/><text fill="#000000" font-family="Helvetica" font-size="14" lengthAdjust="spacing" textLength="35.0205" x="1022.5083" y="1274.7803">Apply</text><text fill="#000000" font-family="Helvetica" font-size="14" lengthAdjust="spacing" textLength="387.584" x="1022.5083" y="1288.7803">UpdateDatabaseAutonomousDatabaseDataguardAssociations</text><text fill="#000000" font-family="Helvetica" font-size="14" lengthAdjust="spacing" textLength="226.4541" x="1022.5083" y="1302.7803">only for mutable fields display_name</text></g><path d="M935.312,1323 L1001.8569,1323 L1001.8569,1329 L991.8569,1339 L927.312,1339 L927.312,1331 A8,8 0 0 1 935.312,1323" fill="#F8FAFC" style="stroke:#CBD5E1;stroke-width:1.5;"/><rect fill="none" height="44" rx="8" ry="8" style="stroke:#CBD5E1;stroke-width:1.5;" width="547.8667" x="927.312" y="1323"/><text fill="#000000" font-family="Helvetica" font-size="14" font-weight="bold" lengthAdjust="spacing" textLength="29.5449" x="942.312" y="1334.7803">loop</text><text fill="#000000" font-family="Helvetica" font-size="14" font-weight="bold" lengthAdjust="spacing" textLength="190.5381" x="1016.8569" y="1335.7803">[update pending UPDATING]</text><g class="message" data-entity-1="part4" data-entity-2="part5" id="msg18"><polygon fill="#0F172A" points="1433.7339,1355,1443.7339,1359,1433.7339,1363,1437.7339,1359" style="stroke:#0F172A;stroke-width:1;"/><line style="stroke:#0F172A;stroke-width:1;" x1="1015.5083" x2="1439.7339" y1="1359" y2="1359"/><text fill="#000000" font-family="Helvetica" font-size="14" lengthAdjust="spacing" textLength="365.0049" x="1022.5083" y="1353.7803">GetDatabaseAutonomousDatabaseDataguardAssociations</text></g><g class="message" data-entity-1="part4" data-entity-2="part5" id="msg19"><polygon fill="#0F172A" points="1433.7339,1467,1443.7339,1471,1433.7339,1475,1437.7339,1471" style="stroke:#0F172A;stroke-width:1;"/><line style="stroke:#0F172A;stroke-width:1;" x1="1015.5083" x2="1439.7339" y1="1471" y2="1471"/><text fill="#000000" font-family="Helvetica" font-size="14" lengthAdjust="spacing" textLength="104.2891" x="1022.5083" y="1395.7803">run helper hooks</text><text fill="#000000" font-family="Helvetica" font-size="14" lengthAdjust="spacing" textLength="219.0508" x="1022.5083" y="1409.7803">create=tfresource.CreateResource,</text><text fill="#000000" font-family="Helvetica" font-size="14" lengthAdjust="spacing" textLength="314.3164" x="1022.5083" y="1423.7803">tfresource.WaitForWorkRequestWithErrorHandling</text><text fill="#000000" font-family="Helvetica" font-size="14" lengthAdjust="spacing" textLength="215.5439" x="1022.5083" y="1437.7803">entity=template action=CREATED;</text><text fill="#000000" font-family="Helvetica" font-size="14" lengthAdjust="spacing" textLength="226.085" x="1022.5083" y="1451.7803">update=tfresource.UpdateResource;</text><text fill="#000000" font-family="Helvetica" font-size="14" lengthAdjust="spacing" textLength="212.8438" x="1022.5083" y="1465.7803">delete=tfresource.DeleteResource</text></g><g class="message" data-entity-1="part4" data-entity-2="part3" id="msg20"><polygon fill="#0F172A" points="660.0688,1516,650.0688,1520,660.0688,1524,656.0688,1520" style="stroke:#0F172A;stroke-width:1;"/><line style="stroke:#0F172A;stroke-width:1;stroke-dasharray:2,2;" x1="654.0688" x2="1014.5083" y1="1520" y2="1520"/><text fill="#000000" font-family="Helvetica" font-size="14" lengthAdjust="spacing" textLength="100.7822" x="666.0688" y="1500.7803">status=required,</text><text fill="#000000" font-family="Helvetica" font-size="14" lengthAdjust="spacing" textLength="230.7197" x="666.0688" y="1514.7803">finalizer=retain-until-confirmed-delete</text></g><g class="message" data-entity-1="part3" data-entity-2="part2" id="msg21"><polygon fill="#0F172A" points="421.2427,1565,411.2427,1569,421.2427,1573,417.2427,1569" style="stroke:#0F172A;stroke-width:1;"/><line style="stroke:#0F172A;stroke-width:1;stroke-dasharray:2,2;" x1="415.2427" x2="648.0688" y1="1569" y2="1569"/><text fill="#000000" font-family="Helvetica" font-size="14" lengthAdjust="spacing" textLength="214.8262" x="427.2427" y="1549.7803">requeue on provisioning, updating,</text><text fill="#000000" font-family="Helvetica" font-size="14" lengthAdjust="spacing" textLength="69.2549" x="427.2427" y="1563.7803">terminating</text></g><path d="M1020,1590 L1020,2088 A8,8 0 0 0 1028,2096 L1486,2096 A8,8 0 0 0 1494,2088 L1494,1592 L1484,1582 L1028,1582 A8,8 0 0 0 1020,1590" fill="#FFF7D6" style="stroke:#B45309;stroke-width:0.5;"/><path d="M1484,1582 L1484,1588 A4,4 0 0 0 1488,1592 L1494,1592 L1484,1582" fill="#FFF7D6" style="stroke:#B45309;stroke-width:0.5;"/><text fill="#334155" font-family="Helvetica" font-size="14" lengthAdjust="spacing" textLength="101.165" x="1026" y="1597.7803">shared diagram:</text><text fill="#334155" font-family="Helvetica" font-size="14" lengthAdjust="spacing" textLength="307.3916" x="1026" y="1611.7803">shared/diagrams/shared-resolution-sequence.svg</text><text fill="#334155" font-family="Helvetica" font-size="14" lengthAdjust="spacing" textLength="143.1992" x="1026" y="1625.7803">shared delete diagram:</text><text fill="#334155" font-family="Helvetica" font-size="14" lengthAdjust="spacing" textLength="284.833" x="1026" y="1639.7803">shared/diagrams/shared-delete-sequence.svg</text><text fill="#334155" font-family="Helvetica" font-size="14" lengthAdjust="spacing" textLength="280.9297" x="1026" y="1653.7803">Start from the shared resolution sequence for</text><text fill="#334155" font-family="Helvetica" font-size="14" lengthAdjust="spacing" textLength="260.7295" x="1026" y="1667.7803">OCID binding, datasource pagination, and</text><text fill="#334155" font-family="Helvetica" font-size="14" lengthAdjust="spacing" textLength="163.4268" x="1026" y="1681.7803">create-or-update dispatch.</text><text fill="#334155" font-family="Helvetica" font-size="14" lengthAdjust="spacing" textLength="301.1982" x="1026" y="1695.7803">Layer the shared delete sequence when finalizer</text><text fill="#334155" font-family="Helvetica" font-size="14" lengthAdjust="spacing" textLength="269.2471" x="1026" y="1709.7803">retention, delete confirmation, work-request</text><text fill="#334155" font-family="Helvetica" font-size="14" lengthAdjust="spacing" textLength="199.2334" x="1026" y="1723.7803">polling, or Secret cleanup apply.</text><text fill="#334155" font-family="Helvetica" font-size="14" lengthAdjust="spacing" textLength="281.709" x="1026" y="1737.7803">archetype batch: Generated service-manager</text><text fill="#334155" font-family="Helvetica" font-size="14" lengthAdjust="spacing" textLength="266.1504" x="1026" y="1751.7803">controllers follow the shared resolution and</text><text fill="#334155" font-family="Helvetica" font-size="14" lengthAdjust="spacing" textLength="259.9297" x="1026" y="1765.7803">delete sequences with imported waits and</text><text fill="#334155" font-family="Helvetica" font-size="14" lengthAdjust="spacing" textLength="134.6064" x="1026" y="1779.7803">controller-local policy.</text><text fill="#334155" font-family="Helvetica" font-size="14" lengthAdjust="spacing" textLength="109.7305" x="1026" y="1793.7803">service: database</text><text fill="#334155" font-family="Helvetica" font-size="14" lengthAdjust="spacing" textLength="29.5723" x="1026" y="1807.7803">slug:</text><text fill="#334155" font-family="Helvetica" font-size="14" lengthAdjust="spacing" textLength="332.3633" x="1026" y="1821.7803">databaseautonomousdatabasedataguardassociations</text><text fill="#334155" font-family="Helvetica" font-size="14" lengthAdjust="spacing" textLength="29.5723" x="1026" y="1835.7803">kind:</text><text fill="#334155" font-family="Helvetica" font-size="14" lengthAdjust="spacing" textLength="342.4395" x="1026" y="1849.7803">DatabaseAutonomousDatabaseDataguardAssociations</text><text fill="#334155" font-family="Helvetica" font-size="14" lengthAdjust="spacing" textLength="241.2402" x="1026" y="1863.7803">archetype: generated-service-manager</text><text fill="#334155" font-family="Helvetica" font-size="14" lengthAdjust="spacing" textLength="156.4063" x="1026" y="1877.7803">status/finalizer: required /</text><text fill="#334155" font-family="Helvetica" font-size="14" lengthAdjust="spacing" textLength="174.3027" x="1026" y="1891.7803">retain-until-confirmed-delete</text><text fill="#334155" font-family="Helvetica" font-size="14" lengthAdjust="spacing" textLength="272.3984" x="1026" y="1905.7803">requeue: provisioning, updating, terminating</text><text fill="#334155" font-family="Helvetica" font-size="14" lengthAdjust="spacing" textLength="295.6816" x="1026" y="1919.7803">provider states: create PROVISIONING; update</text><text fill="#334155" font-family="Helvetica" font-size="14" lengthAdjust="spacing" textLength="192.165" x="1026" y="1933.7803">UPDATING; delete DELETING</text><text fill="#334155" font-family="Helvetica" font-size="14" lengthAdjust="spacing" textLength="183.6611" x="1026" y="1947.7803">supported drift: display_name</text><text fill="#334155" font-family="Helvetica" font-size="14" lengthAdjust="spacing" textLength="230.3301" x="1026" y="1961.7803">reject before mutate: force-new fields</text><text fill="#334155" font-family="Helvetica" font-size="14" lengthAdjust="spacing" textLength="100.3789" x="1026" y="1975.7803">compartment_id</text><text fill="#334155" font-family="Helvetica" font-size="14" lengthAdjust="spacing" textLength="66.1445" x="1026" y="1989.7803">list lookup:</text><text fill="#334155" font-family="Helvetica" font-size="14" lengthAdjust="spacing" textLength="453.79" x="1026" y="2003.7803">scaffold_database_databaseautonomousdatabasedataguardassociations</text><text fill="#334155" font-family="Helvetica" font-size="14" lengthAdjust="spacing" textLength="175.8477" x="1026" y="2017.7803">filters compartment_id, state</text><text fill="#334155" font-family="Helvetica" font-size="14" lengthAdjust="spacing" textLength="89.4961" x="1026" y="2031.7803">conflicts: none</text><text fill="#334155" font-family="Helvetica" font-size="14" lengthAdjust="spacing" textLength="104.3164" x="1026" y="2045.7803">open gaps: none</text><text fill="#334155" font-family="Helvetica" font-size="14" lengthAdjust="spacing" textLength="224.9023" x="1026" y="2059.7803">Scaffold metadata only; replace with</text><text fill="#334155" font-family="Helvetica" font-size="14" lengthAdjust="spacing" textLength="244.3232" x="1026" y="2073.7803">controller-specific runtime states before</text><text fill="#334155" font-family="Helvetica" font-size="14" lengthAdjust="spacing" textLength="66.1445" x="1026" y="2087.7803">promotion.</text><?plantuml-src jLTRRzis57xNho2wbnQ8agP9Ud6G0McIjK6pf8ZRzSL0G8j7DXUAr4ZAhZVil-_m9akElSPTXpn45gbp-SxvpaUQUovhgcb5p9GoDUToGaeg36IcNHdJudwYLIFPcH9Aav_A0lzOPmU3aZR2_gAalQOLaFSWPc1vGTVl6V8_WUmVTXQfrceUhJylzr-zw7ufbOMt3s8eorVivUekfHdek6DyU7Jm_CtA3kS-hXyS7EuV7NNMlVb2QGcQxB_CBBS2o13-Q40MG7B2gALZQc3lF3wSDbP9LQd6f3Vk_wIXcfqQemfEBLVIP5FEW9HAsR7wsl5dakc_Ca9eOPNknHznI4kh0C0BU5q-nsKqXb3pcagx_llkXiTOwM3KsX2yX2ik-mY_EQG7uzUuwapMlQLYp8vWlrrwKBtN9IsBxE_CvqO-D6D0s2sOh1C7ESD0j182TE_rMmJw5Web2xwwzEHcUFDX27h62_YLIZe1_OHGG_glUf_Sd5rchZE8cc7T-xPtLhv3ZcXWH8DHed6r7SHNUupJ2TRKx8NV-N9BdigyQsQJP861m6mtVXsM-r-2PBw3ioLO9F-vWz60WCJz3OpabWqwaZgbd2tjEUjzE0QaVNwgNMp6FilwMzn7VT06f3MEQHkE-MqTOEQxY5mfTO__A28nvf9bL5XYDVOM8efT15zhWLNr9IL8EOaCNX0gD52sm5LkhCdwmRbmSVU0l0ExRKo0Kx9rtxhZXbJS69oZcrnTOHnR-dfQSc51cy585gfotLkXkplETeYnrC8p3uM6nj0nmkpoTmtOQ1mk612s3OuVPD-caCuG8WlR0Y2KgadXFoKrjgVJZe-tDxzT3YzlhY-lt_r8h35sZ_Vw7F-_6g_1R0qjQgmDUWw3OORjqEj0BdsLcc3ELIhmcqGE0OlzVUvVRme_h6wRmGPZ67l9TPKYcN4wajlZCv9AZ-HtD7JedUWyzSxvnTN5fn_QDzyVNwfK8O1AB0sEbv9BAl3aeh5k-DPuQes5Sln_J9Dei1HR8IRjUUj76RxNYz3TSSrn71ym4AB61Yq_ra48QnaeBN5gFBGQw9GevNerH8Fv-60SmHxdqEiDcKzvoyWASpJOyYFP7GKxvFF7yzDF_gaji_Sk-2o1uSoXF1XC00JBwHorS2IPvgKbCAEYyRL9NF6lfmYWSBDsgU3zk7USl0-RkbOQUKQQcZbFfj4bBM1063Ure8ixYQVMx1P-XyAICPHA0waQ5zG01oTEc5p2F8Hbilu4pg8efGbDrWxefNghsdPCObiv9g9iMSU0a2kMWM712llOidV3TbNmeQSwEuUc1S0jkV7vRK-HTATrBHOZ-Ta3jptzf5YuT5k_0SC-xduMnCgaMP3QvKTho6ODr8qaKn0uoiaKIuh11saxiMNIcTsWaxVnvyv8TjQ-K8udP_r5wVlRCDU_S3kzm8kDVX-xT2I38fnOG2fw_XSkjfEpsulJJnVdnoCPOEZw3CWddxWbqBcx9IX3sl9OqGgQT19Pnp2RTd2SX5cLDnYkoADMjETIxs3rsBTo54sZ0KTOhTMC6qmJ4TW9TNPF21xe2ZtQbh-QJwQMg9AiFtR7K_9_EtD_qygwi_VG8gD9gLL5x1J8Wsl0yYg7lPvXEvtx0wfFsDqQup6bfXEVhv8xRl9deS5ofVFO_OuMr1RJtUoABX3LZhCa6ydHV0foEUapB9ZhBMUv7VU-Qj7T7DioZ-UDhCOY-TYK6vSOnLBdgAFxRaPrCGMxg04l_nYFunlUYgcR82RK9gzYSOgswZYuyR-QRy38PRoIXI5pv0ZXLPnES-IG2T2qLdDKM2e8nimBZ2ow7xItySo8PZB8qa_QJeFqXgLfGBlJ06_XR91jEqDQN0PaaX39Ln49nDfhYpD8oiR8NlRlp8gq6MmY3Ubonk_1AtUG62SzuIpU5TxZE5YpD52FKt-qChmK1oyAAwAelqiKXJiD2w-CIBI2bjWPx2vLv6xROaLntQ2jIK4H0HGS9x58ZGcjq-zXz4ygnDuv84wMZh4gcAQZ4lPWj-5C3GKlUU4amV8g7azCnC31NYaNrswhwly0?></g></svg>