<?plantuml 1.2026.1?><svg xmlns="http://www.w3.org/2000/svg" xmlns:xlink="http://www.w3.org/1999/xlink" contentStyleType="text/css" data-diagram-type="ACTIVITY" height="1371px" preserveAspectRatio="none" style="width:672px;height:1371px;background:#FCFCFD;" version="1.1" viewBox="0 0 672 1371" width="672px" zoomAndPan="magnify"><title>Activity - cloudbridge/CloudBridgeDiscoverySchedules</title><defs/><g><rect fill="#FCFCFD" height="1371" style="stroke:none;stroke-width:1;" width="672" x="0" y="0"/><g class="title" data-source-line="10"><text fill="#000000" font-family="Helvetica" font-size="14" font-weight="bold" lengthAdjust="spacing" textLength="367.9648" x="150.6603" y="30.7803">Activity - cloudbridge/CloudBridgeDiscoverySchedules</text></g><ellipse cx="289.2454" cy="55" fill="#1D4ED8" rx="10" ry="10" style="stroke:#222222;stroke-width:1;"/><rect fill="#F8FAFC" height="48" rx="8" ry="8" style="stroke:#0F172A;stroke-width:0.5;" width="304.7852" x="136.8528" y="85"/><text fill="#0F172A" font-family="Helvetica" font-size="14" lengthAdjust="spacing" textLength="136.9375" x="146.8528" y="105.7803">Start from shared flow</text><text fill="#0F172A" font-family="Helvetica" font-size="14" lengthAdjust="spacing" textLength="284.7852" x="146.8528" y="119.7803">shared/diagrams/shared-reconcile-activity.svg</text><rect fill="#F8FAFC" height="48" rx="8" ry="8" style="stroke:#0F172A;stroke-width:0.5;" width="308.7227" x="134.884" y="153"/><text fill="#0F172A" font-family="Helvetica" font-size="14" lengthAdjust="spacing" textLength="288.7227" x="144.884" y="173.7803">Load desired CloudBridgeDiscoverySchedules</text><text fill="#0F172A" font-family="Helvetica" font-size="14" lengthAdjust="spacing" textLength="205.4473" x="144.884" y="187.7803">spec and status from Kubernetes</text><rect fill="#F8FAFC" height="62" rx="8" ry="8" style="stroke:#0F172A;stroke-width:0.5;" width="297.0264" x="140.7322" y="221"/><text fill="#0F172A" font-family="Helvetica" font-size="14" lengthAdjust="spacing" textLength="135.3857" x="150.7322" y="241.7803">Resolve OCI state via</text><text fill="#0F172A" font-family="Helvetica" font-size="14" lengthAdjust="spacing" textLength="255.2334" x="150.7322" y="255.7803">GetCloudBridgeDiscoverySchedules with</text><text fill="#0F172A" font-family="Helvetica" font-size="14" lengthAdjust="spacing" textLength="277.0264" x="150.7322" y="269.7803">ListCloudBridgeDiscoverySchedules fallback</text><rect fill="#F8FAFC" height="76" rx="8" ry="8" style="stroke:#0F172A;stroke-width:0.5;" width="350.7637" x="113.8635" y="303"/><text fill="#0F172A" font-family="Helvetica" font-size="14" lengthAdjust="spacing" textLength="24.8965" x="123.8635" y="323.7803">Use</text><text fill="#0F172A" font-family="Helvetica" font-size="14" lengthAdjust="spacing" textLength="330.7637" x="123.8635" y="337.7803">scaffold_cloudbridge_cloudbridgediscoveryschedules</text><text fill="#0F172A" font-family="Helvetica" font-size="14" lengthAdjust="spacing" textLength="297.2402" x="123.8635" y="351.7803">filters compartment_id, state when OCID lookup</text><text fill="#0F172A" font-family="Helvetica" font-size="14" lengthAdjust="spacing" textLength="259.9023" x="123.8635" y="365.7803">or bind-versus-create needs list resolution</text><polygon fill="#E2E8F0" points="235.5559,399,342.9348,399,354.9348,411,342.9348,423,235.5559,423,223.5559,411,235.5559,399" style="stroke:#1D4ED8;stroke-width:0.5;"/><text fill="#0F172A" font-family="Helvetica" font-size="14" lengthAdjust="spacing" textLength="107.3789" x="235.5559" y="414.7803">Resource exists?</text><text fill="#000000" font-family="Helvetica" font-size="14" lengthAdjust="spacing" textLength="21.7861" x="201.7698" y="407.7803">yes</text><text fill="#000000" font-family="Helvetica" font-size="14" lengthAdjust="spacing" textLength="15.5723" x="354.9348" y="407.7803">no</text><rect fill="#F8FAFC" height="48" rx="8" ry="8" style="stroke:#0F172A;stroke-width:0.5;" width="269.0264" x="11" y="433"/><text fill="#0F172A" font-family="Helvetica" font-size="14" lengthAdjust="spacing" textLength="108.1787" x="21" y="453.7803">Update path calls</text><text fill="#0F172A" font-family="Helvetica" font-size="14" lengthAdjust="spacing" textLength="249.0264" x="21" y="467.7803">UpdateCloudBridgeDiscoverySchedules</text><rect fill="#F8FAFC" height="48" rx="8" ry="8" style="stroke:#0F172A;stroke-width:0.5;" width="266.7021" x="12.1621" y="501"/><text fill="#0F172A" font-family="Helvetica" font-size="14" lengthAdjust="spacing" textLength="246.7021" x="22.1621" y="521.7803">Guard mutable fields display_name and</text><text fill="#0F172A" font-family="Helvetica" font-size="14" lengthAdjust="spacing" textLength="202.3096" x="22.1621" y="535.7803">force-new fields compartment_id</text><rect fill="#F8FAFC" height="48" rx="8" ry="8" style="stroke:#0F172A;stroke-width:0.5;" width="265.9023" x="300.0264" y="433"/><text fill="#0F172A" font-family="Helvetica" font-size="14" lengthAdjust="spacing" textLength="105.0547" x="310.0264" y="453.7803">Create path calls</text><text fill="#0F172A" font-family="Helvetica" font-size="14" lengthAdjust="spacing" textLength="245.9023" x="310.0264" y="467.7803">CreateCloudBridgeDiscoverySchedules</text><polygon fill="#E2E8F0" points="289.2454,555,301.2454,567,289.2454,579,277.2454,567,289.2454,555" style="stroke:#1D4ED8;stroke-width:0.5;"/><rect fill="#F8FAFC" height="104" rx="8" ry="8" style="stroke:#0F172A;stroke-width:0.5;" width="334.3164" x="122.0872" y="599"/><text fill="#0F172A" font-family="Helvetica" font-size="14" lengthAdjust="spacing" textLength="164.2061" x="132.0872" y="619.7803">Run provider helper hooks</text><text fill="#0F172A" font-family="Helvetica" font-size="14" lengthAdjust="spacing" textLength="219.0508" x="132.0872" y="633.7803">create=tfresource.CreateResource,</text><text fill="#0F172A" font-family="Helvetica" font-size="14" lengthAdjust="spacing" textLength="314.3164" x="132.0872" y="647.7803">tfresource.WaitForWorkRequestWithErrorHandling</text><text fill="#0F172A" font-family="Helvetica" font-size="14" lengthAdjust="spacing" textLength="215.5439" x="132.0872" y="661.7803">entity=template action=CREATED;</text><text fill="#0F172A" font-family="Helvetica" font-size="14" lengthAdjust="spacing" textLength="226.085" x="132.0872" y="675.7803">update=tfresource.UpdateResource;</text><text fill="#0F172A" font-family="Helvetica" font-size="14" lengthAdjust="spacing" textLength="212.8438" x="132.0872" y="689.7803">delete=tfresource.DeleteResource</text><rect fill="#F8FAFC" height="34" rx="8" ry="8" style="stroke:#0F172A;stroke-width:0.5;" width="263.5918" x="157.4495" y="723"/><text fill="#0F172A" font-family="Helvetica" font-size="14" lengthAdjust="spacing" textLength="243.5918" x="167.4495" y="743.7803">Apply repo-authored secret policy none</text><rect fill="#F8FAFC" height="90" rx="8" ry="8" style="stroke:#0F172A;stroke-width:0.5;" width="323.4883" x="127.5012" y="777"/><text fill="#0F172A" font-family="Helvetica" font-size="14" lengthAdjust="spacing" textLength="105.0684" x="137.5012" y="797.7803">Delete path uses</text><text fill="#0F172A" font-family="Helvetica" font-size="14" lengthAdjust="spacing" textLength="273.1367" x="137.5012" y="811.7803">DeleteCloudBridgeDiscoverySchedules with</text><text fill="#0F172A" font-family="Helvetica" font-size="14" lengthAdjust="spacing" textLength="303.4883" x="137.5012" y="825.7803">required via GetCloudBridgeDiscoverySchedules</text><text fill="#0F172A" font-family="Helvetica" font-size="14" lengthAdjust="spacing" textLength="257.5713" x="137.5012" y="839.7803">or ListCloudBridgeDiscoverySchedules to</text><text fill="#0F172A" font-family="Helvetica" font-size="14" lengthAdjust="spacing" textLength="144.7168" x="137.5012" y="853.7803">DELETED confirmation</text><rect fill="#F8FAFC" height="48" rx="8" ry="8" style="stroke:#0F172A;stroke-width:0.5;" width="279.1299" x="149.6804" y="887"/><text fill="#0F172A" font-family="Helvetica" font-size="14" lengthAdjust="spacing" textLength="259.1299" x="159.6804" y="907.7803">Project required status and finalizer policy</text><text fill="#0F172A" font-family="Helvetica" font-size="14" lengthAdjust="spacing" textLength="174.3027" x="159.6804" y="921.7803">retain-until-confirmed-delete</text><rect fill="#F8FAFC" height="34" rx="8" ry="8" style="stroke:#0F172A;stroke-width:0.5;" width="313.4189" x="132.5359" y="955"/><text fill="#0F172A" font-family="Helvetica" font-size="14" lengthAdjust="spacing" textLength="293.4189" x="142.5359" y="975.7803">Requeue on provisioning, updating, terminating</text><path d="M320.2454,999 L320.2454,1175 L300.2454,1179 L320.2454,1183 L320.2454,1359 A0,0 0 0 0 320.2454,1359 L660.2854,1359 A0,0 0 0 0 660.2854,1359 L660.2854,1009 L650.2854,999 L320.2454,999 A0,0 0 0 0 320.2454,999" fill="#FFF7D6" style="stroke:#B45309;stroke-width:0.5;"/><path d="M650.2854,999 L650.2854,1009 L660.2854,1009 L650.2854,999" fill="#FFF7D6" style="stroke:#B45309;stroke-width:0.5;"/><text fill="#334155" font-family="Helvetica" font-size="14" lengthAdjust="spacing" textLength="101.165" x="326.2454" y="1014.7803">shared diagram:</text><text fill="#334155" font-family="Helvetica" font-size="14" lengthAdjust="spacing" textLength="284.7852" x="326.2454" y="1028.7803">shared/diagrams/shared-reconcile-activity.svg</text><text fill="#334155" font-family="Helvetica" font-size="14" lengthAdjust="spacing" textLength="265.3438" x="326.2454" y="1042.7803">Start from the shared reconcile activity and</text><text fill="#334155" font-family="Helvetica" font-size="14" lengthAdjust="spacing" textLength="273.8955" x="326.2454" y="1056.7803">specialize provider-backed CRUD, wait, and</text><text fill="#334155" font-family="Helvetica" font-size="14" lengthAdjust="spacing" textLength="182.875" x="326.2454" y="1070.7803">status-projection details here.</text><text fill="#334155" font-family="Helvetica" font-size="14" lengthAdjust="spacing" textLength="229.5371" x="326.2454" y="1084.7803">Controller-local activity diagrams add</text><text fill="#334155" font-family="Helvetica" font-size="14" lengthAdjust="spacing" textLength="238.8955" x="326.2454" y="1098.7803">list-lookup hints, secret policies, delete</text><text fill="#334155" font-family="Helvetica" font-size="14" lengthAdjust="spacing" textLength="200.0332" x="326.2454" y="1112.7803">handling, and open formal gaps.</text><text fill="#334155" font-family="Helvetica" font-size="14" lengthAdjust="spacing" textLength="281.709" x="326.2454" y="1126.7803">archetype batch: Generated service-manager</text><text fill="#334155" font-family="Helvetica" font-size="14" lengthAdjust="spacing" textLength="291.0469" x="326.2454" y="1140.7803">controllers specialize the shared reconcile path</text><text fill="#334155" font-family="Helvetica" font-size="14" lengthAdjust="spacing" textLength="189.8477" x="326.2454" y="1154.7803">with formal runtime ownership.</text><text fill="#334155" font-family="Helvetica" font-size="14" lengthAdjust="spacing" textLength="124.5098" x="326.2454" y="1168.7803">service: cloudbridge</text><text fill="#334155" font-family="Helvetica" font-size="14" lengthAdjust="spacing" textLength="228.0195" x="326.2454" y="1182.7803">slug: cloudbridgediscoveryschedules</text><text fill="#334155" font-family="Helvetica" font-size="14" lengthAdjust="spacing" textLength="237.3438" x="326.2454" y="1196.7803">kind: CloudBridgeDiscoverySchedules</text><text fill="#334155" font-family="Helvetica" font-size="14" lengthAdjust="spacing" textLength="241.2402" x="326.2454" y="1210.7803">archetype: generated-service-manager</text><text fill="#334155" font-family="Helvetica" font-size="14" lengthAdjust="spacing" textLength="156.4063" x="326.2454" y="1224.7803">status/finalizer: required /</text><text fill="#334155" font-family="Helvetica" font-size="14" lengthAdjust="spacing" textLength="174.3027" x="326.2454" y="1238.7803">retain-until-confirmed-delete</text><text fill="#334155" font-family="Helvetica" font-size="14" lengthAdjust="spacing" textLength="272.3984" x="326.2454" y="1252.7803">requeue: provisioning, updating, terminating</text><text fill="#334155" font-family="Helvetica" font-size="14" lengthAdjust="spacing" textLength="295.6816" x="326.2454" y="1266.7803">provider states: create PROVISIONING; update</text><text fill="#334155" font-family="Helvetica" font-size="14" lengthAdjust="spacing" textLength="192.165" x="326.2454" y="1280.7803">UPDATING; delete DELETING</text><text fill="#334155" font-family="Helvetica" font-size="14" lengthAdjust="spacing" textLength="319.04" x="326.2454" y="1294.7803">mutable/forceNew: display_name / compartment_id</text><text fill="#334155" font-family="Helvetica" font-size="14" lengthAdjust="spacing" textLength="104.3164" x="326.2454" y="1308.7803">open gaps: none</text><text fill="#334155" font-family="Helvetica" font-size="14" lengthAdjust="spacing" textLength="224.9023" x="326.2454" y="1322.7803">Scaffold metadata only; replace with</text><text fill="#334155" font-family="Helvetica" font-size="14" lengthAdjust="spacing" textLength="244.3232" x="326.2454" y="1336.7803">controller-specific runtime states before</text><text fill="#334155" font-family="Helvetica" font-size="14" lengthAdjust="spacing" textLength="66.1445" x="326.2454" y="1350.7803">promotion.</text><ellipse cx="289.2454" cy="1179" fill="none" rx="11" ry="11" style="stroke:#222222;stroke-width:1;"/><ellipse cx="289.2454" cy="1179" fill="#222222" rx="6" ry="6" style="stroke:#222222;stroke-width:1;"/><line style="stroke:#0F172A;stroke-width:1;" x1="289.2454" x2="289.2454" y1="65" y2="85"/><polygon fill="#0F172A" points="285.2454,75,289.2454,85,293.2454,75,289.2454,79" style="stroke:#0F172A;stroke-width:1;"/><line style="stroke:#0F172A;stroke-width:1;" x1="289.2454" x2="289.2454" y1="133" y2="153"/><polygon fill="#0F172A" points="285.2454,143,289.2454,153,293.2454,143,289.2454,147" style="stroke:#0F172A;stroke-width:1;"/><line style="stroke:#0F172A;stroke-width:1;" x1="289.2454" x2="289.2454" y1="201" y2="221"/><polygon fill="#0F172A" points="285.2454,211,289.2454,221,293.2454,211,289.2454,215" style="stroke:#0F172A;stroke-width:1;"/><line style="stroke:#0F172A;stroke-width:1;" x1="289.2454" x2="289.2454" y1="283" y2="303"/><polygon fill="#0F172A" points="285.2454,293,289.2454,303,293.2454,293,289.2454,297" style="stroke:#0F172A;stroke-width:1;"/><line style="stroke:#0F172A;stroke-width:1;" x1="145.5132" x2="145.5132" y1="481" y2="501"/><polygon fill="#0F172A" points="141.5132,491,145.5132,501,149.5132,491,145.5132,495" style="stroke:#0F172A;stroke-width:1;"/><line style="stroke:#0F172A;stroke-width:1;" x1="223.5559" x2="145.5132" y1="411" y2="411"/><line style="stroke:#0F172A;stroke-width:1;" x1="145.5132" x2="145.5132" y1="411" y2="433"/><polygon fill="#0F172A" points="141.5132,423,145.5132,433,149.5132,423,145.5132,427" style="stroke:#0F172A;stroke-width:1;"/><line style="stroke:#0F172A;stroke-width:1;" x1="354.9348" x2="432.9775" y1="411" y2="411"/><line style="stroke:#0F172A;stroke-width:1;" x1="432.9775" x2="432.9775" y1="411" y2="433"/><polygon fill="#0F172A" points="428.9775,423,432.9775,433,436.9775,423,432.9775,427" style="stroke:#0F172A;stroke-width:1;"/><line style="stroke:#0F172A;stroke-width:1;" x1="145.5132" x2="145.5132" y1="549" y2="567"/><line style="stroke:#0F172A;stroke-width:1;" x1="145.5132" x2="277.2454" y1="567" y2="567"/><polygon fill="#0F172A" points="267.2454,563,277.2454,567,267.2454,571,271.2454,567" style="stroke:#0F172A;stroke-width:1;"/><line style="stroke:#0F172A;stroke-width:1;" x1="432.9775" x2="432.9775" y1="481" y2="567"/><line style="stroke:#0F172A;stroke-width:1;" x1="432.9775" x2="301.2454" y1="567" y2="567"/><polygon fill="#0F172A" points="311.2454,563,301.2454,567,311.2454,571,307.2454,567" style="stroke:#0F172A;stroke-width:1;"/><line style="stroke:#0F172A;stroke-width:1;" x1="289.2454" x2="289.2454" y1="379" y2="399"/><polygon fill="#0F172A" points="285.2454,389,289.2454,399,293.2454,389,289.2454,393" style="stroke:#0F172A;stroke-width:1;"/><line style="stroke:#0F172A;stroke-width:1;" x1="289.2454" x2="289.2454" y1="579" y2="599"/><polygon fill="#0F172A" points="285.2454,589,289.2454,599,293.2454,589,289.2454,593" style="stroke:#0F172A;stroke-width:1;"/><line style="stroke:#0F172A;stroke-width:1;" x1="289.2454" x2="289.2454" y1="703" y2="723"/><polygon fill="#0F172A" points="285.2454,713,289.2454,723,293.2454,713,289.2454,717" style="stroke:#0F172A;stroke-width:1;"/><line style="stroke:#0F172A;stroke-width:1;" x1="289.2454" x2="289.2454" y1="757" y2="777"/><polygon fill="#0F172A" points="285.2454,767,289.2454,777,293.2454,767,289.2454,771" style="stroke:#0F172A;stroke-width:1;"/><line style="stroke:#0F172A;stroke-width:1;" x1="289.2454" x2="289.2454" y1="867" y2="887"/><polygon fill="#0F172A" points="285.2454,877,289.2454,887,293.2454,877,289.2454,881" style="stroke:#0F172A;stroke-width:1;"/><line style="stroke:#0F172A;stroke-width:1;" x1="289.2454" x2="289.2454" y1="935" y2="955"/><polygon fill="#0F172A" points="285.2454,945,289.2454,955,293.2454,945,289.2454,949" style="stroke:#0F172A;stroke-width:1;"/><line style="stroke:#0F172A;stroke-width:1;" x1="289.2454" x2="289.2454" y1="989" y2="1168"/><polygon fill="#0F172A" points="285.2454,1158,289.2454,1168,293.2454,1158,289.2454,1162" style="stroke:#0F172A;stroke-width:1;"/><?plantuml-src bLPHJoCt47xthx3K5qxA9d307Tq8LLp2SUWG83ZAIoJasBDP5w-zjRr9qwh_lMDxaom1XQloiBlsU6Q-cMy-nprBNJFBAkfA9in2wXajc790t7fdolZpp9f6Yv5Hnj9V2eu_qR4GKB16-Qz6-sjM0Vq6QWvUSlQspRty6-Z1KMUJMMiMhVVzuk3pn-v9RJnyUPL3KNmMdxQjZ1LWMulfqV7X_gzR5Y5yktzuU7HmVDpPZ-wviHeiFVX4lFGAw1dtSYxzacQKAzE8gPLY1eDHUFyItyVISJC7kxpd9OX6WUi2Mnt_Xz0t2dbIi8A7dMxYRG4eBJR9hjU4P9NHubKzu2ES5FiTWwx70t44ucIp-VKDnyupwxVjOUr_RJTbMrx_9V4eoU_3WnRMH39P4BHGPZ7HwME0iMTO4ZT8tva5RZIN2h9LaVfkFXkI_CemWNHnChZOMMZqNGEdJ8kGlczSYlwzcG9sqOD3RtVW3BAHtemken7GkMGJVG5-fskwaBwSw2lfth73QL6XiHZgmG5cn5bH62MUEdJflekL2xT1KKZbmJhAJOMqyHLe_oH5hyrtKO8EwO-fCkQvgISQgp-LMcJenZKkunQ2dGOGZYhCcDe0kl7Iw26H1TqBHMWi1mf_uRRxxGFrmUdU4jm7pBiMuNpDV4avmi6Cqj9Ev0Zuec5MqAhnR8gZKaXGc002h1LRFkcW1DWQX6SmTAPXiJ9vYND800M7xcc3kOmIbcukQUcTN92fii1kDvhMrimbaf-MeEhmmAgXcrIbKr_OjXZzv7XLczv4T_OUcKIjie_6Fj_1dmqu_uY4E4UTijyGb4AXd6ZC7sbxwg52n9Xr8BBHfwExyxCVv-FXH3UnZDsOgR2hc6WYGC5Bat5SMPkG_AokrH9xMfkCDRuqOIuS81vFQwCaNwAqwM2OJgRYDIumAwty3DCjeemJX-D1tvkEIC7tPyCRpE3ywXoBWJr7cjkA9LBcjzRy0JmmjGtR3d2OvK9gfl2Ei2sya9ndKcSDrbjbhIUKa5IxEEJOeWQeQRllC0Xsg4TZ0-8R3bY5ViF741NBr2JS1zJAMUb9grUjHENaVqaMwGWVZjLA_DR6cqi0mP6WM3B2MnCr2_eHjExkOToZ2sHUBvd6acHrAXL2GbN4EYY7pBRG9oEKSMkKGW_AuB1i0gqIfqm84XGXIz91IwczwxrWZmHSI9KaPKlj69-Q6ZK2XxT2rpDMkpvX5dlhbpNWDU1vcIDHyBP4GWT2shd4CQ-OPZEmXA-JSxI3-Sq21SAIGCDLD1iwZV9X5kZUbRBkazP_ths6YLFDxCNAQtKbU1UBVFSzii6LqzaAKRQDABLZi6PdlY7lWEnaAB69d_dFi9EizIlAlqDyIHDlxsv-lxo_lBc-lBuOfhD07cx7Pp_YGWf5uxpX0cbbUH3LzneM-Kjb7cofC8dT3ctEevoG-_OYenL2mrWCfqijXq675CEh9FIhq-KiDhcGVDsyb3wT0cO00LLb0edxGQlZdx7_0000?></g></svg>