<?plantuml 1.2026.1?><svg xmlns="http://www.w3.org/2000/svg" xmlns:xlink="http://www.w3.org/1999/xlink" contentStyleType="text/css" data-diagram-type="STATE" height="625px" preserveAspectRatio="none" style="width:4048px;height:625px;background:#FCFCFD;" version="1.1" viewBox="0 0 4048 625" width="4048px" zoomAndPan="magnify"><title>State Machine - fusionapps/FusionAppsFusionEnvironmentDataMaskingActivities</title><defs/><g><rect fill="#FCFCFD" height="625" style="stroke:none;stroke-width:1;" width="4048" x="0" y="0"/><g class="title" data-source-line="10"><text fill="#000000" font-family="Helvetica" font-size="14" font-weight="bold" lengthAdjust="spacing" textLength="546.0752" x="1744.0904" y="20.7803">State Machine - fusionapps/FusionAppsFusionEnvironmentDataMaskingActivities</text></g><g><rect fill="#F8FAFC" height="62" rx="8" ry="8" style="stroke:#0F172A;stroke-width:0.5;" width="264.3643" x="461" y="423"/><line style="stroke:#0F172A;stroke-width:0.5;" x1="461" x2="725.3643" y1="447" y2="447"/><text fill="#0F172A" font-family="Helvetica" font-size="14" lengthAdjust="spacing" textLength="52.9102" x="566.7271" y="438.7803">Observe</text><text fill="#0F172A" font-family="Helvetica" font-size="14" lengthAdjust="spacing" textLength="244.3643" x="466" y="462.7803">read spec, tracked status, delete intent,</text><text fill="#0F172A" font-family="Helvetica" font-size="14" lengthAdjust="spacing" textLength="153.2822" x="466" y="476.7803">and current OCI lifecycle</text></g><rect fill="#F8FAFC" height="40" rx="8" ry="8" style="stroke:#0F172A;stroke-width:0.5;" width="104.9512" x="1522.36" y="266"/><text fill="#0F172A" font-family="Helvetica" font-size="14" lengthAdjust="spacing" textLength="94.9512" x="1527.36" y="289.7803">EvaluateReady</text><rect fill="#F8FAFC" height="40" rx="8" ry="8" style="stroke:#0F172A;stroke-width:0.5;" width="50.4688" x="2281.32" y="266"/><text fill="#0F172A" font-family="Helvetica" font-size="14" lengthAdjust="spacing" textLength="40.4688" x="2286.32" y="289.7803">Ready</text><rect fill="#F8FAFC" height="40" rx="8" ry="8" style="stroke:#0F172A;stroke-width:0.5;" width="69.917" x="1539.88" y="401"/><text fill="#0F172A" font-family="Helvetica" font-size="14" lengthAdjust="spacing" textLength="59.917" x="1544.88" y="424.7803">Retryable</text><rect fill="#F8FAFC" height="40" rx="8" ry="8" style="stroke:#0F172A;stroke-width:0.5;" width="50" x="1549.84" y="520"/><text fill="#0F172A" font-family="Helvetica" font-size="14" lengthAdjust="spacing" textLength="38.1309" x="1555.7746" y="543.7803">Failed</text><rect fill="#F8FAFC" height="40" rx="8" ry="8" style="stroke:#0F172A;stroke-width:0.5;" width="122.8477" x="1003.44" y="377"/><text fill="#0F172A" font-family="Helvetica" font-size="14" lengthAdjust="spacing" textLength="112.8477" x="1008.44" y="400.7803">ResolveByLookup</text><rect fill="#F8FAFC" height="40" rx="8" ry="8" style="stroke:#0F172A;stroke-width:0.5;" width="155.5098" x="1856.56" y="356"/><text fill="#0F172A" font-family="Helvetica" font-size="14" lengthAdjust="spacing" textLength="145.5098" x="1861.56" y="379.7803">RejectUnsupportedDrift</text><rect fill="#F8FAFC" height="40" rx="8" ry="8" style="stroke:#0F172A;stroke-width:0.5;" width="90.165" x="1889.23" y="195"/><text fill="#0F172A" font-family="Helvetica" font-size="14" lengthAdjust="spacing" textLength="80.165" x="1894.23" y="218.7803">ApplyUpdate</text><rect fill="#F8FAFC" height="40" rx="8" ry="8" style="stroke:#0F172A;stroke-width:0.5;" width="101.8477" x="2680.72" y="520"/><text fill="#0F172A" font-family="Helvetica" font-size="14" lengthAdjust="spacing" textLength="91.8477" x="2685.72" y="543.7803">DeletePending</text><rect fill="#F8FAFC" height="40" rx="8" ry="8" style="stroke:#0F172A;stroke-width:0.5;" width="58.2549" x="3959.55" y="447"/><text fill="#0F172A" font-family="Helvetica" font-size="14" lengthAdjust="spacing" textLength="48.2549" x="3964.55" y="470.7803">Deleted</text><rect fill="#F8FAFC" height="40" rx="8" ry="8" style="stroke:#0F172A;stroke-width:0.5;" width="152.4268" x="3411.81" y="447"/><text fill="#0F172A" font-family="Helvetica" font-size="14" lengthAdjust="spacing" textLength="142.4268" x="3416.81" y="470.7803">DeleteCleanupBlocked</text><ellipse cx="16" cy="454" fill="#222222" rx="10" ry="10" style="stroke:#222222;stroke-width:1;"/><g class="entity" data-qualified-name="GMN2" data-source-line="55" id="ent0003"><path d="M2497.78,49 L2497.78,271.68 L2332.13,284.66 L2497.78,279.68 L2497.78,477 A8,8 0 0 0 2505.78,485 L2957.4948,485 A8,8 0 0 0 2965.4948,477 L2965.4948,51 L2955.4948,41 L2505.78,41 A8,8 0 0 0 2497.78,49" fill="#FFF7D6" style="stroke:#B45309;stroke-width:0.5;"/><path d="M2955.4948,41 L2955.4948,47 A4,4 0 0 0 2959.4948,51 L2965.4948,51 L2955.4948,41" fill="#FFF7D6" style="stroke:#B45309;stroke-width:0.5;"/><text fill="#334155" font-family="Helvetica" font-size="14" lengthAdjust="spacing" textLength="101.165" x="2503.78" y="56.7803">shared diagram:</text><text fill="#334155" font-family="Helvetica" font-size="14" lengthAdjust="spacing" textLength="331.4814" x="2503.78" y="70.7803">shared/diagrams/shared-controller-state-machine.svg</text><text fill="#334155" font-family="Helvetica" font-size="14" lengthAdjust="spacing" textLength="304.2744" x="2503.78" y="84.7803">Start from the shared controller phase model and</text><text fill="#334155" font-family="Helvetica" font-size="14" lengthAdjust="spacing" textLength="261.4678" x="2503.78" y="98.7803">specialize imported provider states, delete</text><text fill="#334155" font-family="Helvetica" font-size="14" lengthAdjust="spacing" textLength="184.4336" x="2503.78" y="112.7803">targets, and failure exits here.</text><text fill="#334155" font-family="Helvetica" font-size="14" lengthAdjust="spacing" textLength="281.709" x="2503.78" y="126.7803">archetype batch: Generated service-manager</text><text fill="#334155" font-family="Helvetica" font-size="14" lengthAdjust="spacing" textLength="287.9229" x="2503.78" y="140.7803">controllers map provider states into the shared</text><text fill="#334155" font-family="Helvetica" font-size="14" lengthAdjust="spacing" textLength="261.4609" x="2503.78" y="154.7803">controller phases with explicit finalizer and</text><text fill="#334155" font-family="Helvetica" font-size="14" lengthAdjust="spacing" textLength="105.8477" x="2503.78" y="168.7803">requeue policies.</text><text fill="#334155" font-family="Helvetica" font-size="14" lengthAdjust="spacing" textLength="119.8408" x="2503.78" y="182.7803">service: fusionapps</text><text fill="#334155" font-family="Helvetica" font-size="14" lengthAdjust="spacing" textLength="29.5723" x="2503.78" y="196.7803">slug:</text><text fill="#334155" font-family="Helvetica" font-size="14" lengthAdjust="spacing" textLength="315.1777" x="2503.78" y="210.7803">fusionappsfusionenvironmentdatamaskingactivities</text><text fill="#334155" font-family="Helvetica" font-size="14" lengthAdjust="spacing" textLength="29.5723" x="2503.78" y="224.7803">kind:</text><text fill="#334155" font-family="Helvetica" font-size="14" lengthAdjust="spacing" textLength="331.4814" x="2503.78" y="238.7803">FusionAppsFusionEnvironmentDataMaskingActivities</text><text fill="#334155" font-family="Helvetica" font-size="14" lengthAdjust="spacing" textLength="241.2402" x="2503.78" y="252.7803">archetype: generated-service-manager</text><text fill="#334155" font-family="Helvetica" font-size="14" lengthAdjust="spacing" textLength="156.4063" x="2503.78" y="266.7803">status/finalizer: required /</text><text fill="#334155" font-family="Helvetica" font-size="14" lengthAdjust="spacing" textLength="174.3027" x="2503.78" y="280.7803">retain-until-confirmed-delete</text><text fill="#334155" font-family="Helvetica" font-size="14" lengthAdjust="spacing" textLength="272.3984" x="2503.78" y="294.7803">requeue: provisioning, updating, terminating</text><text fill="#334155" font-family="Helvetica" font-size="14" lengthAdjust="spacing" textLength="295.6816" x="2503.78" y="308.7803">provider states: create PROVISIONING; update</text><text fill="#334155" font-family="Helvetica" font-size="14" lengthAdjust="spacing" textLength="192.165" x="2503.78" y="322.7803">UPDATING; delete DELETING</text><text fill="#334155" font-family="Helvetica" font-size="14" lengthAdjust="spacing" textLength="183.6611" x="2503.78" y="336.7803">supported drift: display_name</text><text fill="#334155" font-family="Helvetica" font-size="14" lengthAdjust="spacing" textLength="230.3301" x="2503.78" y="350.7803">reject before mutate: force-new fields</text><text fill="#334155" font-family="Helvetica" font-size="14" lengthAdjust="spacing" textLength="100.3789" x="2503.78" y="364.7803">compartment_id</text><text fill="#334155" font-family="Helvetica" font-size="14" lengthAdjust="spacing" textLength="66.1445" x="2503.78" y="378.7803">list lookup:</text><text fill="#334155" font-family="Helvetica" font-size="14" lengthAdjust="spacing" textLength="446.7148" x="2503.78" y="392.7803">scaffold_fusionapps_fusionappsfusionenvironmentdatamaskingactivities</text><text fill="#334155" font-family="Helvetica" font-size="14" lengthAdjust="spacing" textLength="175.8477" x="2503.78" y="406.7803">filters compartment_id, state</text><text fill="#334155" font-family="Helvetica" font-size="14" lengthAdjust="spacing" textLength="89.4961" x="2503.78" y="420.7803">conflicts: none</text><text fill="#334155" font-family="Helvetica" font-size="14" lengthAdjust="spacing" textLength="104.3164" x="2503.78" y="434.7803">open gaps: none</text><text fill="#334155" font-family="Helvetica" font-size="14" lengthAdjust="spacing" textLength="224.9023" x="2503.78" y="448.7803">Scaffold metadata only; replace with</text><text fill="#334155" font-family="Helvetica" font-size="14" lengthAdjust="spacing" textLength="244.3232" x="2503.78" y="462.7803">controller-specific runtime states before</text><text fill="#334155" font-family="Helvetica" font-size="14" lengthAdjust="spacing" textLength="66.1445" x="2503.78" y="476.7803">promotion.</text></g><g class="entity" data-qualified-name="GMN5" data-source-line="88" id="ent0006"><path d="M3300.5,530 L3300.5,557.82 L2783.02,541.94 L3300.5,565.82 L3300.5,608 A8,8 0 0 0 3308.5,616 L3667.5469,616 A8,8 0 0 0 3675.5469,608 L3675.5469,532 L3665.5469,522 L3308.5,522 A8,8 0 0 0 3300.5,530" fill="#FFF7D6" style="stroke:#B45309;stroke-width:0.5;"/><path d="M3665.5469,522 L3665.5469,528 A4,4 0 0 0 3669.5469,532 L3675.5469,532 L3665.5469,522" fill="#FFF7D6" style="stroke:#B45309;stroke-width:0.5;"/><text fill="#334155" font-family="Helvetica" font-size="14" lengthAdjust="spacing" textLength="136.9717" x="3306.5" y="537.7803">delete policy: required</text><text fill="#334155" font-family="Helvetica" font-size="14" lengthAdjust="spacing" textLength="95.7305" x="3306.5" y="551.7803">delete observe:</text><text fill="#334155" font-family="Helvetica" font-size="14" lengthAdjust="spacing" textLength="354.0469" x="3306.5" y="565.7803">GetFusionAppsFusionEnvironmentDataMaskingActivities</text><text fill="#334155" font-family="Helvetica" font-size="14" lengthAdjust="spacing" textLength="12.4482" x="3306.5" y="579.7803">or</text><text fill="#334155" font-family="Helvetica" font-size="14" lengthAdjust="spacing" textLength="353.2676" x="3306.5" y="593.7803">ListFusionAppsFusionEnvironmentDataMaskingActivities</text><text fill="#334155" font-family="Helvetica" font-size="14" lengthAdjust="spacing" textLength="157.1855" x="3306.5" y="607.7803">delete targets: DELETED</text></g><!--link *start* to observe--><g class="link" data-entity-1="ent0002" data-entity-2="ent0002" data-link-type="dependency" data-source-line="32" id="lnk3"><path d="M26.03,454 C74.7,454 303.03,454 454.55,454" fill="none" id="*start*-to-observe" style="stroke:#0F172A;stroke-width:1;"/><polygon fill="#0F172A" points="460.55,454,451.55,450,455.55,454,451.55,458,460.55,454" style="stroke:#0F172A;stroke-width:1;"/><text fill="#000000" font-family="Helvetica" font-size="14" lengthAdjust="spacing" textLength="373.502" x="57" y="449.7803">CreateFusionAppsFusionEnvironmentDataMaskingActivities</text></g><!--link observe to resolve_by_lookup--><g class="link" data-entity-1="ent0002" data-entity-2="ent0007" data-link-type="dependency" data-source-line="33" id="lnk4"><path d="M725.64,438.05 C816.55,427.01 927.3337,413.5731 997.1837,405.0931" fill="none" id="observe-to-resolve_by_lookup" style="stroke:#0F172A;stroke-width:1;"/><polygon fill="#0F172A" points="1003.14,404.37,993.7235,401.4838,998.1764,404.9726,994.6877,409.4255,1003.14,404.37" style="stroke:#0F172A;stroke-width:1;"/><text fill="#000000" font-family="Helvetica" font-size="14" lengthAdjust="spacing" textLength="145.5029" x="756.36" y="412.8403">tracked identity missing</text></g><!--link resolve_by_lookup to evaluate_ready--><g class="link" data-entity-1="ent0007" data-entity-2="ent0003" data-link-type="dependency" data-source-line="34" id="lnk5"><path d="M1126.57,385.58 C1240.1,364.19 1474.77,319.79 1492.36,315 C1502.07,312.36 1506.6038,311.0543 1516.3838,307.7043" fill="none" id="resolve_by_lookup-to-evaluate_ready" style="stroke:#0F172A;stroke-width:1;"/><polygon fill="#0F172A" points="1522.06,305.76,1512.2494,304.8923,1517.3298,307.3803,1514.8419,312.4606,1522.06,305.76" style="stroke:#0F172A;stroke-width:1;"/><text fill="#000000" font-family="Helvetica" font-size="14" lengthAdjust="spacing" textLength="154.0889" x="1282.86" y="296.7803">lookup or create reaches</text><text fill="#000000" font-family="Helvetica" font-size="14" lengthAdjust="spacing" textLength="50.5654" x="1334.6217" y="310.7803">ACTIVE</text></g><!--link resolve_by_lookup to retryable--><g class="link" data-entity-1="ent0007" data-entity-2="ent0005" data-link-type="dependency" data-source-line="35" id="lnk6"><path d="M1126.63,399.87 C1234.21,404.95 1448.8067,415.0973 1533.5967,419.0973" fill="none" id="resolve_by_lookup-to-retryable" style="stroke:#0F172A;stroke-width:1;"/><polygon fill="#0F172A" points="1539.59,419.38,1530.7885,414.9603,1534.5956,419.1444,1530.4115,422.9514,1539.59,419.38" style="stroke:#0F172A;stroke-width:1;"/><text fill="#000000" font-family="Helvetica" font-size="14" lengthAdjust="spacing" textLength="184.3789" x="1267.86" y="386.5403">OCI state in PROVISIONING,</text><text fill="#000000" font-family="Helvetica" font-size="14" lengthAdjust="spacing" textLength="150.1309" x="1284.984" y="400.5403">UPDATING, DELETING</text></g><!--link resolve_by_lookup to failed--><g class="link" data-entity-1="ent0007" data-entity-2="ent0006" data-link-type="dependency" data-source-line="36" id="lnk7"><path d="M1126.63,414.11 C1238.69,445.65 1467.5847,510.0834 1543.6747,531.5134" fill="none" id="resolve_by_lookup-to-failed" style="stroke:#0F172A;stroke-width:1;"/><polygon fill="#0F172A" points="1549.45,533.14,1541.8714,526.8499,1544.6372,531.7845,1539.7026,534.5504,1549.45,533.14" style="stroke:#0F172A;stroke-width:1;"/><text fill="#000000" font-family="Helvetica" font-size="14" lengthAdjust="spacing" textLength="263.7783" x="1228.36" y="439.0303">unresolved OCI error or non-success state</text></g><!--link observe to evaluate_ready--><g class="link" data-entity-1="ent0002" data-entity-2="ent0003" data-link-type="dependency" data-source-line="37" id="lnk8"><path d="M670.96,422.64 C697.45,412.43 727.47,401.55 755.36,393 C961.5,329.82 1013.22,306.06 1227.36,281 C1331.33,268.83 1448.0497,275.0341 1515.9897,280.5541" fill="none" id="observe-to-evaluate_ready" style="stroke:#0F172A;stroke-width:1;"/><polygon fill="#0F172A" points="1521.97,281.04,1513.3235,276.3243,1516.9864,280.6351,1512.6756,284.298,1521.97,281.04" style="stroke:#0F172A;stroke-width:1;"/><text fill="#000000" font-family="Helvetica" font-size="14" lengthAdjust="spacing" textLength="128.3721" x="1000.86" y="280.9503">OCI state in ACTIVE</text></g><!--link observe to retryable--><g class="link" data-entity-1="ent0002" data-entity-2="ent0005" data-link-type="dependency" data-source-line="38" id="lnk9"><path d="M725.47,458.33 C788.11,460.38 864.11,462.85 932.36,465 C1181.16,472.84 1253.72,544.79 1492.36,474 C1503.77,470.62 1522.445,458.3638 1541.305,444.9138" fill="none" id="observe-to-retryable" style="stroke:#0F172A;stroke-width:1;"/><polygon fill="#0F172A" points="1546.19,441.43,1536.54,443.3989,1542.1191,444.3331,1541.185,449.9123,1546.19,441.43" style="stroke:#0F172A;stroke-width:1;"/><text fill="#000000" font-family="Helvetica" font-size="14" lengthAdjust="spacing" textLength="184.3789" x="972.86" y="446.7803">OCI state in PROVISIONING,</text><text fill="#000000" font-family="Helvetica" font-size="14" lengthAdjust="spacing" textLength="150.1309" x="989.984" y="460.7803">UPDATING, DELETING</text></g><!--link observe to failed--><g class="link" data-entity-1="ent0002" data-entity-2="ent0006" data-link-type="dependency" data-source-line="39" id="lnk10"><path d="M725.52,484.76 C787.83,498.03 863.56,512.26 932.36,520 C1171.8,546.92 1458.4516,542.7695 1543.5616,540.7895" fill="none" id="observe-to-failed" style="stroke:#0F172A;stroke-width:1;"/><polygon fill="#0F172A" points="1549.56,540.65,1540.4694,536.8604,1544.5614,540.7663,1540.6555,544.8582,1549.56,540.65" style="stroke:#0F172A;stroke-width:1;"/><text fill="#000000" font-family="Helvetica" font-size="14" lengthAdjust="spacing" textLength="263.7783" x="933.36" y="515.7803">unresolved OCI error or non-success state</text></g><!--link evaluate_ready to reject_unsupported_drift--><g class="link" data-entity-1="ent0003" data-entity-2="ent0008" data-link-type="dependency" data-source-line="40" id="lnk11"><path d="M1599.06,306.48 C1614.49,318.89 1635.81,333.85 1657.32,342 C1721.53,366.35 1793.6042,373.9058 1850.3042,376.0258" fill="none" id="evaluate_ready-to-reject_unsupported_drift" style="stroke:#0F172A;stroke-width:1;"/><polygon fill="#0F172A" points="1856.3,376.25,1847.4557,371.9165,1851.3035,376.0632,1847.1568,379.9109,1856.3,376.25" style="stroke:#0F172A;stroke-width:1;"/><text fill="#000000" font-family="Helvetica" font-size="14" lengthAdjust="spacing" textLength="143.9512" x="1668.32" y="323.7803">force-new or conflicting</text><text fill="#000000" font-family="Helvetica" font-size="14" lengthAdjust="spacing" textLength="80.9375" x="1699.8268" y="337.7803">drift detected</text></g><!--link reject_unsupported_drift to ready--><g class="link" data-entity-1="ent0008" data-entity-2="ent0004" data-link-type="dependency" data-source-line="41" id="lnk12"><path d="M2012.32,375.06 C2078.2,371.77 2174.3,361 2251.32,328 C2263.36,322.84 2270.4802,318.2363 2279.9202,310.2463" fill="none" id="reject_unsupported_drift-to-ready" style="stroke:#0F172A;stroke-width:1;"/><polygon fill="#0F172A" points="2284.5,306.37,2275.0461,309.1313,2280.6835,309.6003,2280.2146,315.2376,2284.5,306.37" style="stroke:#0F172A;stroke-width:1;"/><text fill="#000000" font-family="Helvetica" font-size="14" lengthAdjust="spacing" textLength="203.8818" x="2047.32" y="323.7803">wait for spec or live state change</text></g><!--link evaluate_ready to apply_update--><g class="link" data-entity-1="ent0003" data-entity-2="ent0009" data-link-type="dependency" data-source-line="42" id="lnk13"><path d="M1627.72,268.96 C1637.49,266.07 1647.67,263.27 1657.32,261 C1738.17,241.95 1828.2022,228.6097 1883.0322,221.3297" fill="none" id="evaluate_ready-to-apply_update" style="stroke:#0F172A;stroke-width:1;"/><polygon fill="#0F172A" points="1888.98,220.54,1879.5318,217.7594,1884.0235,221.1981,1880.5848,225.6898,1888.98,220.54" style="stroke:#0F172A;stroke-width:1;"/><text fill="#000000" font-family="Helvetica" font-size="14" lengthAdjust="spacing" textLength="163.4199" x="1658.32" y="212.0903">supported mutable drift for</text><text fill="#000000" font-family="Helvetica" font-size="14" lengthAdjust="spacing" textLength="86.3857" x="1696.8371" y="226.0903">display_name</text></g><!--link apply_update to ready--><g class="link" data-entity-1="ent0009" data-entity-2="ent0004" data-link-type="dependency" data-source-line="43" id="lnk14"><path d="M1979.88,217.45 C2041.86,221.76 2157.1,233.07 2251.32,261 C2261.36,263.98 2266.5025,265.9001 2275.6125,270.2801" fill="none" id="apply_update-to-ready" style="stroke:#0F172A;stroke-width:1;"/><polygon fill="#0F172A" points="2281.02,272.88,2274.642,265.3752,2276.5138,270.7135,2271.1756,272.5852,2281.02,272.88" style="stroke:#0F172A;stroke-width:1;"/><text fill="#000000" font-family="Helvetica" font-size="14" lengthAdjust="spacing" textLength="141.6543" x="2078.32" y="219.4503">update path completes</text></g><!--link evaluate_ready to ready--><g class="link" data-entity-1="ent0003" data-entity-2="ent0004" data-link-type="dependency" data-source-line="44" id="lnk15"><path d="M1627.73,286 C1772.46,286 2170.77,286 2274.86,286" fill="none" id="evaluate_ready-to-ready" style="stroke:#0F172A;stroke-width:1;"/><polygon fill="#0F172A" points="2280.86,286,2271.86,282,2275.86,286,2271.86,290,2280.86,286" style="stroke:#0F172A;stroke-width:1;"/><text fill="#000000" font-family="Helvetica" font-size="14" lengthAdjust="spacing" textLength="162.6406" x="1853.32" y="281.7803">no supported drift remains</text></g><!--link ready to ready--><g class="link" data-entity-1="ent0004" data-entity-2="ent0004" data-link-type="dependency" data-source-line="45" id="lnk16"><path d="M2289.35,265.69 C2282,248.73 2287.74,231 2306.55,231 C2325.36,231 2333.4858,243.2247 2326.1358,260.1847" fill="none" id="ready-to-ready" style="stroke:#0F172A;stroke-width:1;"/><polygon fill="#0F172A" points="2323.75,265.69,2330.9989,259.0227,2325.7382,261.1023,2323.6586,255.8416,2323.75,265.69" style="stroke:#0F172A;stroke-width:1;"/><text fill="#000000" font-family="Helvetica" font-size="14" lengthAdjust="spacing" textLength="162.6406" x="2225.55" y="221.7803">no supported drift remains</text></g><!--link retryable to retryable--><g class="link" data-entity-1="ent0005" data-entity-2="ent0005" data-link-type="dependency" data-source-line="46" id="lnk17"><path d="M1548.63,400.69 C1537.42,383.73 1546.16,366 1574.84,366 C1603.52,366 1615.5564,378.7232 1604.3564,395.6832" fill="none" id="retryable-to-retryable" style="stroke:#0F172A;stroke-width:1;"/><polygon fill="#0F172A" points="1601.05,400.69,1609.3474,395.3841,1603.8053,396.5177,1602.6717,390.9756,1601.05,400.69" style="stroke:#0F172A;stroke-width:1;"/><text fill="#000000" font-family="Helvetica" font-size="14" lengthAdjust="spacing" textLength="136.9307" x="1506.84" y="356.7803">OCI remains retryable</text></g><!--link failed to failed--><g class="link" data-entity-1="ent0006" data-entity-2="ent0006" data-link-type="dependency" data-source-line="47" id="lnk18"><path d="M1549.41,520.83 C1537.04,503.53 1545.52,485 1574.84,485 C1604.16,485 1616.1298,498.6493 1603.7598,515.9493" fill="none" id="failed-to-failed" style="stroke:#0F172A;stroke-width:1;"/><polygon fill="#0F172A" points="1600.27,520.83,1608.7585,515.8355,1603.1782,516.7628,1602.251,511.1824,1600.27,520.83" style="stroke:#0F172A;stroke-width:1;"/><text fill="#000000" font-family="Helvetica" font-size="14" lengthAdjust="spacing" textLength="132.2549" x="1508.84" y="475.7803">OCI remains terminal</text></g><!--link ready to delete_pending--><g class="link" data-entity-1="ent0004" data-entity-2="ent0010" data-link-type="dependency" data-source-line="48" id="lnk19"><path d="M2332.04,301.51 C2366.67,324.58 2429.93,371.03 2467.78,425 C2489.11,455.41 2468.92,479.63 2497.78,503 C2549.32,544.73 2622.8894,548.7951 2674.3694,545.9151" fill="none" id="ready-to-delete_pending" style="stroke:#0F172A;stroke-width:1;"/><polygon fill="#0F172A" points="2680.36,545.58,2671.1506,542.089,2675.3678,545.8593,2671.5975,550.0765,2680.36,545.58" style="stroke:#0F172A;stroke-width:1;"/><text fill="#000000" font-family="Helvetica" font-size="14" lengthAdjust="spacing" textLength="104.3027" x="2362.78" y="319.3703">delete requested</text></g><!--link retryable to delete_pending--><g class="link" data-entity-1="ent0005" data-entity-2="ent0010" data-link-type="dependency" data-source-line="49" id="lnk20"><path d="M1610.09,424.53 C1774.71,441.49 2478.7516,514.0451 2674.5216,534.2151" fill="none" id="retryable-to-delete_pending" style="stroke:#0F172A;stroke-width:1;"/><polygon fill="#0F172A" points="2680.49,534.83,2671.9473,529.9287,2675.5163,534.3176,2671.1274,537.8866,2680.49,534.83" style="stroke:#0F172A;stroke-width:1;"/><text fill="#000000" font-family="Helvetica" font-size="14" lengthAdjust="spacing" textLength="104.3027" x="2096.82" y="465.3503">delete requested</text></g><!--link failed to delete_pending--><g class="link" data-entity-1="ent0006" data-entity-2="ent0010" data-link-type="dependency" data-source-line="50" id="lnk21"><path d="M1600.23,540 C1743.88,540 2474.33,540 2674.42,540" fill="none" id="failed-to-delete_pending" style="stroke:#0F172A;stroke-width:1;"/><polygon fill="#0F172A" points="2680.42,540,2671.42,536,2675.42,540,2671.42,544,2680.42,540" style="stroke:#0F172A;stroke-width:1;"/><text fill="#000000" font-family="Helvetica" font-size="14" lengthAdjust="spacing" textLength="104.3027" x="2096.82" y="535.7803">delete requested</text></g><!--link delete_pending to delete_cleanup_blocked--><g class="link" data-entity-1="ent0010" data-entity-2="ent0012" data-link-type="dependency" data-source-line="51" id="lnk22"><path d="M2783.02,535.13 C2912.51,522.59 3251.6179,489.7777 3405.3479,474.9077" fill="none" id="delete_pending-to-delete_cleanup_blocked" style="stroke:#0F172A;stroke-width:1;"/><polygon fill="#0F172A" points="3411.32,474.33,3401.9767,471.2151,3406.3432,474.8114,3402.7469,479.1779,3411.32,474.33" style="stroke:#0F172A;stroke-width:1;"/><text fill="#000000" font-family="Helvetica" font-size="14" lengthAdjust="spacing" textLength="273.1436" x="2996.5" y="484.3503">cleanup or finalizer release remains blocked</text></g><!--link delete_cleanup_blocked to deleted--><g class="link" data-entity-1="ent0012" data-entity-2="ent0011" data-link-type="dependency" data-source-line="52" id="lnk23"><path d="M3564.49,467 C3677.07,467 3877.83,467 3953.21,467" fill="none" id="delete_cleanup_blocked-to-deleted" style="stroke:#0F172A;stroke-width:1;"/><polygon fill="#0F172A" points="3959.21,467,3950.21,463,3954.21,467,3950.21,471,3959.21,467" style="stroke:#0F172A;stroke-width:1;"/><text fill="#000000" font-family="Helvetica" font-size="14" lengthAdjust="spacing" textLength="222.5645" x="3706.55" y="462.7803">retry delete completion until allowed</text></g><!--link deleted to deleted--><g class="link" data-entity-1="ent0011" data-entity-2="ent0011" data-link-type="dependency" data-source-line="53" id="lnk24"><path d="M3961.48,446.69 C3949.86,429.73 3958.93,412 3988.67,412 C4018.42,412 4030.8712,424.7803 4019.2512,441.7403" fill="none" id="deleted-to-deleted" style="stroke:#0F172A;stroke-width:1;"/><polygon fill="#0F172A" points="4015.86,446.69,4024.2467,441.5263,4018.686,442.5653,4017.6471,437.0046,4015.86,446.69" style="stroke:#0F172A;stroke-width:1;"/><text fill="#000000" font-family="Helvetica" font-size="14" lengthAdjust="spacing" textLength="92.5859" x="3942.67" y="402.7803">terminal stutter</text></g><?plantuml-src dLTPRnit47xdho3IjyAouyOvgW0571-f0SSsx3WlJI5Gv735cajkIQuSjUX_x_3OGsiRWGEzB6U6StupG_axPHhcM4tzYWbxhqn59TCUYEyvIyRlAcTR8uwijex-93d-n4X2W6Ij3gVMX0jM0_qTz1g2uknncHlr3z3zWn6JEMVlY_QNSl_jB-ERnWRuyC07AT-ADrCfwmIu8h4yUFtgvQyJYMY-y5-zEjX__Nh4J-gvTGOStNz3WWeQw4rW0UWdnbVA09rHsNfb3MiQltUQFW_nCt-TcBLorjHWmZ4Bx1EBggj37jHQ1GL-PCedhVyI-aXotqacUUICWob9eLGE0VGqrEOwuhuu0F4EYT1hB7B_4Gqoq62fKzKgKA4Se6_Ma9KIGA5kmWQhvBbJJI9d9rzSBZsuDRoWp5ERlplMoPhf5h-kWObD4e12MRX8wkG6_eGSt8OjDHHMENNiKwOqYCIJwPCKytIUz53V0D-XmM4AGQISjdu7Gz20rvK9M8YThuOPGNdh79xevT4PrKe2t_31pZLuYtZzi3ctzgvjYZE9jbXk5ZfH1-6_C6ktnhTDOrq0SUoK3ELEP2tQWRSGaTbTHQJepMqZy93aMJmlsaJeP8wJyrTOF8HEaihXB9fCsfOJ8mcnpJhIm4pRVD0s9cUiYMVEOfbPv8-V_wIpsMzqIEuHPXTRvRdmxXH4PG_oXsgxGY7Q33RNXjRA-nZJG-6eOXjAUB_m4D8yEHX1m5VWlvh3eyzdNqwUqDFZ2bN4-kSqAKElhY-_dDsSNLwSNNn4dDnU7Hz-Zf_q-EJy97uzeJ234RMrfWY8f1XmYBdedh5cvblEmVjiRIir3-BQSgg4iftB7mvWhEO7t9wucfrv7EIeLrh7OMRWFfN86gaLWiDKNqsM48W-7e7wf8vi86VbdgaGLQOkZngrma1ox7p5JFMeU-EUGYMz0Lgt8QKm6qAzw9NoZMQRXS6LHROkZlqef8Q55GPLDx67_EEPoHUC7PdDvXpKJ1bFdYdSbVqn41IfqTGizTqgzLWoWAkLONhanVPiGVaoEntytOBFfHexyNtvaHFV5vv8Z2vDPXHUBfG811cZm2U4GrL8zT27s8sq9xGC1aHQ8HXQvrIfB8uvR8-WD6LQs_jUrVHkbql4OnlmGEBReknLAxijjs8kLbMn2dV-l9ptojdlvVCCEoKugpMuMKBthCwFZLs_hiXDNErKEblJi09QL0vNQBEA2QWj-aPnqv7OBIgbXwgwuAfnTer3r-NkwLSaGTqL13p75Hahrpfy1tnJmTCLEDWbpE5y3Pi6y9aI-6fEFm8-ZbZK6UUAuj5PmofCmE2IfpLhfZRZEhQZ4CWq14_l5NOOV6jmQiJExuiSeqgOQR4BRUI2toN5_dpq82DUjzMS38Jy1SFUmavcTTvRRDXRU1HpyknrroTdJgikBRDfMlAZPA-FPfxWhs8Hzs9p8Mnd2N0H1bAv6dMKwfIOvpcLqIMqlvFdKVeg88m7Cadtl5kHunNnlimoqYsAzntw-tqncKNOi-CPcUSsNGAEJqWJDS1ux4i5MdWIUmbH6pEtK89evKFPtTW3d4bfjLWCLLeyks1IwH1njcrefoojRlFuE5qDxbwSBxHYJNU-AIxG6jCV3L1hzEOz5WOZvP1mICPD6JjAAavTB5GD7Q9p6cBcQni7nox1EPR-P4ocmUG5LtAUeBmPyD3HoygUauyGdly4S-GSq_tiUyLs6GZp38YJupwY_m40?></g></svg>