<?plantuml 1.2026.1?><svg xmlns="http://www.w3.org/2000/svg" xmlns:xlink="http://www.w3.org/1999/xlink" contentStyleType="text/css" data-diagram-type="SEQUENCE" height="2090px" preserveAspectRatio="none" style="width:1208px;height:2090px;background:#FCFCFD;" version="1.1" viewBox="0 0 1208 2090" width="1208px" zoomAndPan="magnify"><title>Sequence - servicecatalog/ServiceCatalogPrivateApplication</title><defs/><g><rect fill="#FCFCFD" height="2090" style="stroke:none;stroke-width:1;" width="1208" x="0" y="0"/><text fill="#000000" font-family="Helvetica" font-size="14" font-weight="bold" lengthAdjust="spacing" textLength="403.8262" x="408.5657" y="25.7803">Sequence - servicecatalog/ServiceCatalogPrivateApplication</text><rect fill="none" height="290" rx="8" ry="8" style="stroke:#CBD5E1;stroke-width:1.5;" width="738.3779" x="447.6045" y="356"/><rect fill="none" height="146" rx="8" ry="8" style="stroke:#CBD5E1;stroke-width:1.5;" width="475.9575" x="700.0249" y="465"/><rect fill="none" height="44" rx="8" ry="8" style="stroke:#CBD5E1;stroke-width:1.5;" width="455.9575" x="710.0249" y="516"/><rect fill="none" height="868" rx="8" ry="8" style="stroke:#CBD5E1;stroke-width:1.5;" width="774.353" x="427.6045" y="660"/><rect fill="none" height="302" rx="8" ry="8" style="stroke:#CBD5E1;stroke-width:1.5;" width="738.3779" x="437.6045" y="683"/><rect fill="none" height="72" rx="8" ry="8" style="stroke:#CBD5E1;stroke-width:1.5;" width="455.9575" x="710.0249" y="804"/><rect fill="none" height="88" rx="8" ry="8" style="stroke:#CBD5E1;stroke-width:1.5;" width="438.813" x="447.6045" y="890"/><rect fill="none" height="392" rx="8" ry="8" style="stroke:#CBD5E1;stroke-width:1.5;" width="754.353" x="437.6045" y="1087"/><rect fill="none" height="44" rx="8" ry="8" style="stroke:#CBD5E1;stroke-width:1.5;" width="438.813" x="447.6045" y="1186"/><rect fill="none" height="130" rx="8" ry="8" style="stroke:#CBD5E1;stroke-width:1.5;" width="475.9575" x="700.0249" y="1244"/><rect fill="none" height="44" rx="8" ry="8" style="stroke:#CBD5E1;stroke-width:1.5;" width="455.9575" x="710.0249" y="1323"/><g class="participant-lifeline" data-entity-uid="part1" data-qualified-name="Kubernetes" id="part1-lifeline"><g><title>Kubernetes</title><rect fill="#000000" fill-opacity="0.00000" height="1969" width="8" x="39.8032" y="114"/><line style="stroke:#94A3B8;stroke-width:0.5;stroke-dasharray:5,5;" x1="43" x2="43" y1="114" y2="2083"/></g></g><g class="participant-lifeline" data-entity-uid="part2" data-qualified-name="Controller" id="part2-lifeline"><g><title>Controller</title><rect fill="#000000" fill-opacity="0.00000" height="1969" width="8" x="270.8022" y="114"/><line style="stroke:#94A3B8;stroke-width:0.5;stroke-dasharray:5,5;" x1="274.4575" x2="274.4575" y1="114" y2="2083"/></g></g><g class="participant-lifeline" data-entity-uid="part3" data-qualified-name="BaseReconciler" id="part3-lifeline"><g><title>BaseReconciler</title><rect fill="#000000" fill-opacity="0.00000" height="1969" width="8" x="509.6284" y="114"/><line style="stroke:#94A3B8;stroke-width:0.5;stroke-dasharray:5,5;" x1="513.6045" x2="513.6045" y1="114" y2="2083"/></g></g><g class="participant-lifeline" data-entity-uid="part4" data-qualified-name="ServiceManager" id="part4-lifeline"><g><title>OSOKServiceManager</title><rect fill="#000000" fill-opacity="0.00000" height="1969" width="8" x="794.2212" y="114"/><line style="stroke:#94A3B8;stroke-width:0.5;stroke-dasharray:5,5;" x1="798.0249" x2="798.0249" y1="114" y2="2083"/></g></g><g class="participant-lifeline" data-entity-uid="part5" data-qualified-name="OCI" id="part5-lifeline"><g><title>OCI</title><rect fill="#000000" fill-opacity="0.00000" height="1969" width="8" x="1132.5376" y="114"/><line style="stroke:#94A3B8;stroke-width:0.5;stroke-dasharray:5,5;" x1="1136.0928" x2="1136.0928" y1="114" y2="2083"/></g></g><g class="participant participant-head" data-entity-uid="part1" data-qualified-name="Kubernetes" id="part1-head"><text fill="#000000" font-family="Helvetica" font-size="14" lengthAdjust="spacing" textLength="71.6064" x="5" y="110.7803">Kubernetes</text><ellipse cx="43.8032" cy="48.5" fill="#E2E8F0" rx="8" ry="8" style="stroke:#0F172A;stroke-width:0.5;"/><path d="M43.8032,56.5 L43.8032,83.5 M30.8032,64.5 L56.8032,64.5 M43.8032,83.5 L30.8032,98.5 M43.8032,83.5 L56.8032,98.5" fill="none" style="stroke:#0F172A;stroke-width:0.5;"/></g><g class="participant participant-head" data-entity-uid="part2" data-qualified-name="Controller" id="part2-head"><rect fill="#E2E8F0" height="28" rx="8" ry="8" style="stroke:#0F172A;stroke-width:0.5;" width="74.6895" x="237.4575" y="85"/><text fill="#0F172A" font-family="Helvetica" font-size="14" lengthAdjust="spacing" textLength="60.6895" x="244.4575" y="102.7803">Controller</text></g><g class="participant participant-head" data-entity-uid="part3" data-qualified-name="BaseReconciler" id="part3-head"><rect fill="#E2E8F0" height="28" rx="8" ry="8" style="stroke:#0F172A;stroke-width:0.5;" width="112.0479" x="457.6045" y="85"/><text fill="#0F172A" font-family="Helvetica" font-size="14" lengthAdjust="spacing" textLength="98.0479" x="464.6045" y="102.7803">BaseReconciler</text></g><g class="participant participant-head" data-entity-uid="part4" data-qualified-name="ServiceManager" id="part4-head"><rect fill="#E2E8F0" height="28" rx="8" ry="8" style="stroke:#0F172A;stroke-width:0.5;" width="156.3926" x="720.0249" y="85"/><text fill="#0F172A" font-family="Helvetica" font-size="14" lengthAdjust="spacing" textLength="142.3926" x="727.0249" y="102.7803">OSOKServiceManager</text></g><g class="participant participant-head" data-entity-uid="part5" data-qualified-name="OCI" id="part5-head"><rect fill="#E2E8F0" height="28" rx="8" ry="8" style="stroke:#0F172A;stroke-width:0.5;" width="38.8896" x="1117.0928" y="85"/><text fill="#0F172A" font-family="Helvetica" font-size="14" lengthAdjust="spacing" textLength="24.8896" x="1124.0928" y="102.7803">OCI</text></g><path d="M449,137 L449,187 A8,8 0 0 0 457,195 L854,195 A8,8 0 0 0 862,187 L862,139 L852,129 L457,129 A8,8 0 0 0 449,137" fill="#FFF7D6" style="stroke:#B45309;stroke-width:0.5;"/><path d="M852,129 L852,135 A4,4 0 0 0 856,139 L862,139 L852,129" fill="#FFF7D6" style="stroke:#B45309;stroke-width:0.5;"/><text fill="#334155" font-family="Helvetica" font-size="14" lengthAdjust="spacing" textLength="111.2891" x="497.7107" y="144.7803">shared resolution:</text><text fill="#334155" font-family="Helvetica" font-size="14" lengthAdjust="spacing" textLength="307.3916" x="497.7107" y="158.7803">shared/diagrams/shared-resolution-sequence.svg</text><text fill="#334155" font-family="Helvetica" font-size="14" lengthAdjust="spacing" textLength="88.7305" x="497.7107" y="172.7803">shared delete:</text><text fill="#334155" font-family="Helvetica" font-size="14" lengthAdjust="spacing" textLength="284.833" x="497.7107" y="186.7803">shared/diagrams/shared-delete-sequence.svg</text><g class="message" data-entity-1="part1" data-entity-2="part2" id="msg1"><polygon fill="#0F172A" points="262.8022,244,272.8022,248,262.8022,252,266.8022,248" style="stroke:#0F172A;stroke-width:1;"/><line style="stroke:#0F172A;stroke-width:1;" x1="43.8032" x2="268.8022" y1="248" y2="248"/><text fill="#000000" font-family="Helvetica" font-size="14" lengthAdjust="spacing" textLength="54.5029" x="50.8032" y="214.7803">enqueue</text><text fill="#000000" font-family="Helvetica" font-size="14" lengthAdjust="spacing" textLength="206.999" x="50.8032" y="228.7803">ServiceCatalogPrivateApplication</text><text fill="#000000" font-family="Helvetica" font-size="14" lengthAdjust="spacing" textLength="56.0273" x="50.8032" y="242.7803">reconcile</text></g><g class="message" data-entity-1="part2" data-entity-2="part3" id="msg2"><polygon fill="#0F172A" points="501.6284,272,511.6284,276,501.6284,280,505.6284,276" style="stroke:#0F172A;stroke-width:1;"/><line style="stroke:#0F172A;stroke-width:1;" x1="274.8022" x2="507.6284" y1="276" y2="276"/><text fill="#000000" font-family="Helvetica" font-size="14" lengthAdjust="spacing" textLength="117.4961" x="281.8022" y="270.7803">Reconcile(request)</text></g><g class="message" data-entity-1="part3" data-entity-2="part4" id="msg3"><polygon fill="#0F172A" points="786.2212,314,796.2212,318,786.2212,322,790.2212,318" style="stroke:#0F172A;stroke-width:1;"/><line style="stroke:#0F172A;stroke-width:1;" x1="513.6284" x2="792.2212" y1="318" y2="318"/><text fill="#000000" font-family="Helvetica" font-size="14" lengthAdjust="spacing" textLength="105.834" x="520.6284" y="298.7803">reconcile desired</text><text fill="#000000" font-family="Helvetica" font-size="14" lengthAdjust="spacing" textLength="206.999" x="520.6284" y="312.7803">ServiceCatalogPrivateApplication</text></g><path d="M455.6045,356 L508.9424,356 L508.9424,362 L498.9424,372 L447.6045,372 L447.6045,364 A8,8 0 0 1 455.6045,356" fill="#F8FAFC" style="stroke:#CBD5E1;stroke-width:1.5;"/><rect fill="none" height="290" rx="8" ry="8" style="stroke:#CBD5E1;stroke-width:1.5;" width="738.3779" x="447.6045" y="356"/><text fill="#000000" font-family="Helvetica" font-size="14" font-weight="bold" lengthAdjust="spacing" textLength="16.3379" x="462.6045" y="367.7803">alt</text><text fill="#000000" font-family="Helvetica" font-size="14" font-weight="bold" lengthAdjust="spacing" textLength="308.1094" x="523.9424" y="368.7803">[tracked or explicit OCI identity already exists]</text><g class="message" data-entity-1="part4" data-entity-2="part5" id="msg4"><polygon fill="#0F172A" points="1124.5376,388,1134.5376,392,1124.5376,396,1128.5376,392" style="stroke:#0F172A;stroke-width:1;"/><line style="stroke:#0F172A;stroke-width:1;" x1="798.2212" x2="1130.5376" y1="392" y2="392"/><text fill="#000000" font-family="Helvetica" font-size="14" lengthAdjust="spacing" textLength="229.5645" x="805.2212" y="386.7803">GetServiceCatalogPrivateApplication</text></g><line style="stroke:#CBD5E1;stroke-width:1;stroke-dasharray:2,2;" x1="447.6045" x2="1185.9824" y1="401" y2="401"/><text fill="#000000" font-family="Helvetica" font-size="14" font-weight="bold" lengthAdjust="spacing" textLength="185.1582" x="452.6045" y="411.7803">[tracked identity is missing]</text><g class="message" data-entity-1="part4" data-entity-2="part5" id="msg5"><polygon fill="#0F172A" points="1124.5376,446,1134.5376,450,1124.5376,454,1128.5376,450" style="stroke:#0F172A;stroke-width:1;"/><line style="stroke:#0F172A;stroke-width:1;" x1="798.2212" x2="1130.5376" y1="450" y2="450"/><text fill="#000000" font-family="Helvetica" font-size="14" lengthAdjust="spacing" textLength="270.7852" x="805.2212" y="430.7803">ListServiceCatalogPrivateApplication(filters:</text><text fill="#000000" font-family="Helvetica" font-size="14" lengthAdjust="spacing" textLength="143.1719" x="805.2212" y="444.7803">compartment_id, state)</text></g><path d="M708.0249,465 L761.3628,465 L761.3628,471 L751.3628,481 L700.0249,481 L700.0249,473 A8,8 0 0 1 708.0249,465" fill="#F8FAFC" style="stroke:#CBD5E1;stroke-width:1.5;"/><rect fill="none" height="146" rx="8" ry="8" style="stroke:#CBD5E1;stroke-width:1.5;" width="475.9575" x="700.0249" y="465"/><text fill="#000000" font-family="Helvetica" font-size="14" font-weight="bold" lengthAdjust="spacing" textLength="16.3379" x="715.0249" y="476.7803">alt</text><text fill="#000000" font-family="Helvetica" font-size="14" font-weight="bold" lengthAdjust="spacing" textLength="242.7031" x="776.3628" y="477.7803">[reusable OCI resource is not found]</text><g class="message" data-entity-1="part4" data-entity-2="part5" id="msg6"><polygon fill="#0F172A" points="1124.5376,497,1134.5376,501,1124.5376,505,1128.5376,501" style="stroke:#0F172A;stroke-width:1;"/><line style="stroke:#0F172A;stroke-width:1;" x1="798.2212" x2="1130.5376" y1="501" y2="501"/><text fill="#000000" font-family="Helvetica" font-size="14" lengthAdjust="spacing" textLength="249.0195" x="805.2212" y="495.7803">CreateServiceCatalogPrivateApplication</text></g><path d="M718.0249,516 L784.5698,516 L784.5698,522 L774.5698,532 L710.0249,532 L710.0249,524 A8,8 0 0 1 718.0249,516" fill="#F8FAFC" style="stroke:#CBD5E1;stroke-width:1.5;"/><rect fill="none" height="44" rx="8" ry="8" style="stroke:#CBD5E1;stroke-width:1.5;" width="455.9575" x="710.0249" y="516"/><text fill="#000000" font-family="Helvetica" font-size="14" font-weight="bold" lengthAdjust="spacing" textLength="29.5449" x="725.0249" y="527.7803">loop</text><text fill="#000000" font-family="Helvetica" font-size="14" font-weight="bold" lengthAdjust="spacing" textLength="215.4756" x="799.5698" y="528.7803">[create pending PROVISIONING]</text><g class="message" data-entity-1="part4" data-entity-2="part5" id="msg7"><polygon fill="#0F172A" points="1124.5376,548,1134.5376,552,1124.5376,556,1128.5376,552" style="stroke:#0F172A;stroke-width:1;"/><line style="stroke:#0F172A;stroke-width:1;" x1="798.2212" x2="1130.5376" y1="552" y2="552"/><text fill="#000000" font-family="Helvetica" font-size="14" lengthAdjust="spacing" textLength="229.5645" x="805.2212" y="546.7803">GetServiceCatalogPrivateApplication</text></g><line style="stroke:#CBD5E1;stroke-width:1;stroke-dasharray:2,2;" x1="700.0249" x2="1175.9824" y1="568" y2="568"/><text fill="#000000" font-family="Helvetica" font-size="14" font-weight="bold" lengthAdjust="spacing" textLength="255.2334" x="705.0249" y="578.7803">[reusable OCI resource already exists]</text><g class="message" data-entity-1="part4" data-entity-2="part5" id="msg8"><polygon fill="#0F172A" points="1124.5376,599,1134.5376,603,1124.5376,607,1128.5376,603" style="stroke:#0F172A;stroke-width:1;"/><line style="stroke:#0F172A;stroke-width:1;" x1="798.2212" x2="1130.5376" y1="603" y2="603"/><text fill="#000000" font-family="Helvetica" font-size="14" lengthAdjust="spacing" textLength="229.5645" x="805.2212" y="597.7803">GetServiceCatalogPrivateApplication</text></g><g class="message" data-entity-1="part4" data-entity-2="part3" id="msg9"><polygon fill="#0F172A" points="524.6284,634,514.6284,638,524.6284,642,520.6284,638" style="stroke:#0F172A;stroke-width:1;"/><line style="stroke:#0F172A;stroke-width:1;stroke-dasharray:2,2;" x1="518.6284" x2="797.2212" y1="638" y2="638"/><text fill="#000000" font-family="Helvetica" font-size="14" lengthAdjust="spacing" textLength="231.0957" x="530.6284" y="632.7803">persist resolved OCI identity in status</text></g><path d="M435.6045,660 L488.9424,660 L488.9424,666 L478.9424,676 L427.6045,676 L427.6045,668 A8,8 0 0 1 435.6045,660" fill="#F8FAFC" style="stroke:#CBD5E1;stroke-width:1.5;"/><rect fill="none" height="868" rx="8" ry="8" style="stroke:#CBD5E1;stroke-width:1.5;" width="774.353" x="427.6045" y="660"/><text fill="#000000" font-family="Helvetica" font-size="14" font-weight="bold" lengthAdjust="spacing" textLength="16.3379" x="442.6045" y="671.7803">alt</text><text fill="#000000" font-family="Helvetica" font-size="14" font-weight="bold" lengthAdjust="spacing" textLength="120.5859" x="503.9424" y="672.7803">[delete requested]</text><path d="M445.6045,683 L524.625,683 L524.625,689 L514.625,699 L437.6045,699 L437.6045,691 A8,8 0 0 1 445.6045,683" fill="#F8FAFC" style="stroke:#CBD5E1;stroke-width:1.5;"/><rect fill="none" height="302" rx="8" ry="8" style="stroke:#CBD5E1;stroke-width:1.5;" width="738.3779" x="437.6045" y="683"/><text fill="#000000" font-family="Helvetica" font-size="14" font-weight="bold" lengthAdjust="spacing" textLength="42.0205" x="452.6045" y="694.7803">Delete</text><g class="message" data-entity-1="part4" data-entity-2="part5" id="msg10"><polygon fill="#0F172A" points="1124.5376,715,1134.5376,719,1124.5376,723,1128.5376,719" style="stroke:#0F172A;stroke-width:1;"/><line style="stroke:#0F172A;stroke-width:1;" x1="798.2212" x2="1130.5376" y1="719" y2="719"/><text fill="#000000" font-family="Helvetica" font-size="14" lengthAdjust="spacing" textLength="247.4678" x="805.2212" y="713.7803">DeleteServiceCatalogPrivateApplication</text></g><g class="message" data-entity-1="part4" data-entity-2="part5" id="msg11"><polygon fill="#0F172A" points="1124.5376,785,1134.5376,789,1124.5376,793,1128.5376,789" style="stroke:#0F172A;stroke-width:1;"/><line style="stroke:#0F172A;stroke-width:1;" x1="798.2212" x2="1130.5376" y1="789" y2="789"/><text fill="#000000" font-family="Helvetica" font-size="14" lengthAdjust="spacing" textLength="109.7168" x="805.2212" y="741.7803">confirm delete via</text><text fill="#000000" font-family="Helvetica" font-size="14" lengthAdjust="spacing" textLength="229.5645" x="805.2212" y="755.7803">GetServiceCatalogPrivateApplication</text><text fill="#000000" font-family="Helvetica" font-size="14" lengthAdjust="spacing" textLength="12.4482" x="805.2212" y="769.7803">or</text><text fill="#000000" font-family="Helvetica" font-size="14" lengthAdjust="spacing" textLength="228.7852" x="805.2212" y="783.7803">ListServiceCatalogPrivateApplication</text></g><path d="M718.0249,804 L784.5698,804 L784.5698,810 L774.5698,820 L710.0249,820 L710.0249,812 A8,8 0 0 1 718.0249,804" fill="#F8FAFC" style="stroke:#CBD5E1;stroke-width:1.5;"/><rect fill="none" height="72" rx="8" ry="8" style="stroke:#CBD5E1;stroke-width:1.5;" width="455.9575" x="710.0249" y="804"/><text fill="#000000" font-family="Helvetica" font-size="14" font-weight="bold" lengthAdjust="spacing" textLength="29.5449" x="725.0249" y="815.7803">loop</text><text fill="#000000" font-family="Helvetica" font-size="14" font-weight="bold" lengthAdjust="spacing" textLength="182.7793" x="799.5698" y="816.7803">[delete pending DELETING]</text><g class="message" data-entity-1="part4" data-entity-2="part5" id="msg12"><polygon fill="#0F172A" points="1124.5376,864,1134.5376,868,1124.5376,872,1128.5376,868" style="stroke:#0F172A;stroke-width:1;"/><line style="stroke:#0F172A;stroke-width:1;" x1="798.2212" x2="1130.5376" y1="868" y2="868"/><text fill="#000000" font-family="Helvetica" font-size="14" lengthAdjust="spacing" textLength="229.5645" x="805.2212" y="834.7803">GetServiceCatalogPrivateApplication</text><text fill="#000000" font-family="Helvetica" font-size="14" lengthAdjust="spacing" textLength="12.4482" x="805.2212" y="848.7803">or</text><text fill="#000000" font-family="Helvetica" font-size="14" lengthAdjust="spacing" textLength="228.7852" x="805.2212" y="862.7803">ListServiceCatalogPrivateApplication</text></g><path d="M455.6045,890 L508.9424,890 L508.9424,896 L498.9424,906 L447.6045,906 L447.6045,898 A8,8 0 0 1 455.6045,890" fill="#F8FAFC" style="stroke:#CBD5E1;stroke-width:1.5;"/><rect fill="none" height="88" rx="8" ry="8" style="stroke:#CBD5E1;stroke-width:1.5;" width="438.813" x="447.6045" y="890"/><text fill="#000000" font-family="Helvetica" font-size="14" font-weight="bold" lengthAdjust="spacing" textLength="16.3379" x="462.6045" y="901.7803">alt</text><text fill="#000000" font-family="Helvetica" font-size="14" font-weight="bold" lengthAdjust="spacing" textLength="261.4268" x="523.9424" y="902.7803">[cleanup or finalizer release is blocked]</text><g class="message" data-entity-1="part4" data-entity-2="part3" id="msg13"><polygon fill="#0F172A" points="524.6284,922,514.6284,926,524.6284,930,520.6284,926" style="stroke:#0F172A;stroke-width:1;"/><line style="stroke:#0F172A;stroke-width:1;stroke-dasharray:2,2;" x1="518.6284" x2="797.2212" y1="926" y2="926"/><text fill="#000000" font-family="Helvetica" font-size="14" lengthAdjust="spacing" textLength="170.4336" x="530.6284" y="920.7803">retain delete state and retry</text></g><line style="stroke:#CBD5E1;stroke-width:1;stroke-dasharray:2,2;" x1="447.6045" x2="886.4175" y1="935" y2="935"/><text fill="#000000" font-family="Helvetica" font-size="14" font-weight="bold" lengthAdjust="spacing" textLength="194.4824" x="452.6045" y="945.7803">[delete completion observed]</text><g class="message" data-entity-1="part4" data-entity-2="part3" id="msg14"><polygon fill="#0F172A" points="524.6284,966,514.6284,970,524.6284,974,520.6284,970" style="stroke:#0F172A;stroke-width:1;"/><line style="stroke:#0F172A;stroke-width:1;stroke-dasharray:2,2;" x1="518.6284" x2="797.2212" y1="970" y2="970"/><text fill="#000000" font-family="Helvetica" font-size="14" lengthAdjust="spacing" textLength="243.5781" x="530.6284" y="964.7803">release finalizer after delete completion</text></g><line style="stroke:#CBD5E1;stroke-width:1;stroke-dasharray:2,2;" x1="427.6045" x2="1201.9575" y1="993" y2="993"/><text fill="#000000" font-family="Helvetica" font-size="14" font-weight="bold" lengthAdjust="spacing" textLength="149.3857" x="432.6045" y="1003.7803">[OCI state is retryable]</text><g class="message" data-entity-1="part4" data-entity-2="part3" id="msg15"><polygon fill="#0F172A" points="524.6284,1038,514.6284,1042,524.6284,1046,520.6284,1042" style="stroke:#0F172A;stroke-width:1;"/><line style="stroke:#0F172A;stroke-width:1;stroke-dasharray:2,2;" x1="518.6284" x2="797.2212" y1="1042" y2="1042"/><text fill="#000000" font-family="Helvetica" font-size="14" lengthAdjust="spacing" textLength="184.4199" x="530.6284" y="1022.7803">requeue while OCI remains in</text><text fill="#000000" font-family="Helvetica" font-size="14" lengthAdjust="spacing" textLength="260.5928" x="530.6284" y="1036.7803">PROVISIONING, UPDATING, DELETING</text></g><line style="stroke:#CBD5E1;stroke-width:1;stroke-dasharray:2,2;" x1="427.6045" x2="1201.9575" y1="1051" y2="1051"/><text fill="#000000" font-family="Helvetica" font-size="14" font-weight="bold" lengthAdjust="spacing" textLength="200.751" x="432.6045" y="1061.7803">[live state requires field-aware</text><text fill="#000000" font-family="Helvetica" font-size="14" font-weight="bold" lengthAdjust="spacing" textLength="105.0068" x="432.6045" y="1075.7803">drift evaluation]</text><path d="M445.6045,1087 L573.5908,1087 L573.5908,1093 L563.5908,1103 L437.6045,1103 L437.6045,1095 A8,8 0 0 1 445.6045,1087" fill="#F8FAFC" style="stroke:#CBD5E1;stroke-width:1.5;"/><rect fill="none" height="392" rx="8" ry="8" style="stroke:#CBD5E1;stroke-width:1.5;" width="754.353" x="437.6045" y="1087"/><text fill="#000000" font-family="Helvetica" font-size="14" font-weight="bold" lengthAdjust="spacing" textLength="90.9863" x="452.6045" y="1098.7803">Drift handling</text><path d="M751,1116 L751,1166 A8,8 0 0 0 759,1174 L1173,1174 A8,8 0 0 0 1181,1166 L1181,1118 L1171,1108 L759,1108 A8,8 0 0 0 751,1116" fill="#FFF7D6" style="stroke:#B45309;stroke-width:0.5;"/><path d="M1171,1108 L1171,1114 A4,4 0 0 0 1175,1118 L1181,1118 L1171,1108" fill="#FFF7D6" style="stroke:#B45309;stroke-width:0.5;"/><text fill="#334155" font-family="Helvetica" font-size="14" lengthAdjust="spacing" textLength="255.2813" x="834.3381" y="1123.7803">Supported update surface: display_name</text><text fill="#334155" font-family="Helvetica" font-size="14" lengthAdjust="spacing" textLength="235.7783" x="834.3381" y="1137.7803">Reject before mutate: force-new fields</text><text fill="#334155" font-family="Helvetica" font-size="14" lengthAdjust="spacing" textLength="100.3789" x="834.3381" y="1151.7803">compartment_id</text><text fill="#334155" font-family="Helvetica" font-size="14" lengthAdjust="spacing" textLength="229.5576" x="834.3381" y="1165.7803">Lookup filters: compartment_id, state</text><path d="M455.6045,1186 L514.3701,1186 L514.3701,1192 L504.3701,1202 L447.6045,1202 L447.6045,1194 A8,8 0 0 1 455.6045,1186" fill="#F8FAFC" style="stroke:#CBD5E1;stroke-width:1.5;"/><rect fill="none" height="44" rx="8" ry="8" style="stroke:#CBD5E1;stroke-width:1.5;" width="438.813" x="447.6045" y="1186"/><text fill="#000000" font-family="Helvetica" font-size="14" font-weight="bold" lengthAdjust="spacing" textLength="21.7656" x="462.6045" y="1197.7803">opt</text><text fill="#000000" font-family="Helvetica" font-size="14" font-weight="bold" lengthAdjust="spacing" textLength="276.1309" x="529.3701" y="1198.7803">[force-new or conflicting drift is detected]</text><g class="message" data-entity-1="part4" data-entity-2="part3" id="msg16"><polygon fill="#0F172A" points="524.6284,1218,514.6284,1222,524.6284,1226,520.6284,1222" style="stroke:#0F172A;stroke-width:1;"/><line style="stroke:#0F172A;stroke-width:1;stroke-dasharray:2,2;" x1="518.6284" x2="797.2212" y1="1222" y2="1222"/><text fill="#000000" font-family="Helvetica" font-size="14" lengthAdjust="spacing" textLength="164.1855" x="530.6284" y="1216.7803">reject before OCI mutation</text></g><path d="M708.0249,1244 L766.7905,1244 L766.7905,1250 L756.7905,1260 L700.0249,1260 L700.0249,1252 A8,8 0 0 1 708.0249,1244" fill="#F8FAFC" style="stroke:#CBD5E1;stroke-width:1.5;"/><rect fill="none" height="130" rx="8" ry="8" style="stroke:#CBD5E1;stroke-width:1.5;" width="475.9575" x="700.0249" y="1244"/><text fill="#000000" font-family="Helvetica" font-size="14" font-weight="bold" lengthAdjust="spacing" textLength="21.7656" x="715.0249" y="1255.7803">opt</text><text fill="#000000" font-family="Helvetica" font-size="14" font-weight="bold" lengthAdjust="spacing" textLength="243.4619" x="781.7905" y="1256.7803">[supported mutable drift is detected]</text><g class="message" data-entity-1="part4" data-entity-2="part5" id="msg17"><polygon fill="#0F172A" points="1124.5376,1304,1134.5376,1308,1124.5376,1312,1128.5376,1308" style="stroke:#0F172A;stroke-width:1;"/><line style="stroke:#0F172A;stroke-width:1;" x1="798.2212" x2="1130.5376" y1="1308" y2="1308"/><text fill="#000000" font-family="Helvetica" font-size="14" lengthAdjust="spacing" textLength="35.0205" x="805.2212" y="1274.7803">Apply</text><text fill="#000000" font-family="Helvetica" font-size="14" lengthAdjust="spacing" textLength="252.1436" x="805.2212" y="1288.7803">UpdateServiceCatalogPrivateApplication</text><text fill="#000000" font-family="Helvetica" font-size="14" lengthAdjust="spacing" textLength="226.4541" x="805.2212" y="1302.7803">only for mutable fields display_name</text></g><path d="M718.0249,1323 L784.5698,1323 L784.5698,1329 L774.5698,1339 L710.0249,1339 L710.0249,1331 A8,8 0 0 1 718.0249,1323" fill="#F8FAFC" style="stroke:#CBD5E1;stroke-width:1.5;"/><rect fill="none" height="44" rx="8" ry="8" style="stroke:#CBD5E1;stroke-width:1.5;" width="455.9575" x="710.0249" y="1323"/><text fill="#000000" font-family="Helvetica" font-size="14" font-weight="bold" lengthAdjust="spacing" textLength="29.5449" x="725.0249" y="1334.7803">loop</text><text fill="#000000" font-family="Helvetica" font-size="14" font-weight="bold" lengthAdjust="spacing" textLength="190.5381" x="799.5698" y="1335.7803">[update pending UPDATING]</text><g class="message" data-entity-1="part4" data-entity-2="part5" id="msg18"><polygon fill="#0F172A" points="1124.5376,1355,1134.5376,1359,1124.5376,1363,1128.5376,1359" style="stroke:#0F172A;stroke-width:1;"/><line style="stroke:#0F172A;stroke-width:1;" x1="798.2212" x2="1130.5376" y1="1359" y2="1359"/><text fill="#000000" font-family="Helvetica" font-size="14" lengthAdjust="spacing" textLength="229.5645" x="805.2212" y="1353.7803">GetServiceCatalogPrivateApplication</text></g><g class="message" data-entity-1="part4" data-entity-2="part5" id="msg19"><polygon fill="#0F172A" points="1124.5376,1467,1134.5376,1471,1124.5376,1475,1128.5376,1471" style="stroke:#0F172A;stroke-width:1;"/><line style="stroke:#0F172A;stroke-width:1;" x1="798.2212" x2="1130.5376" y1="1471" y2="1471"/><text fill="#000000" font-family="Helvetica" font-size="14" lengthAdjust="spacing" textLength="104.2891" x="805.2212" y="1395.7803">run helper hooks</text><text fill="#000000" font-family="Helvetica" font-size="14" lengthAdjust="spacing" textLength="219.0508" x="805.2212" y="1409.7803">create=tfresource.CreateResource,</text><text fill="#000000" font-family="Helvetica" font-size="14" lengthAdjust="spacing" textLength="314.3164" x="805.2212" y="1423.7803">tfresource.WaitForWorkRequestWithErrorHandling</text><text fill="#000000" font-family="Helvetica" font-size="14" lengthAdjust="spacing" textLength="215.5439" x="805.2212" y="1437.7803">entity=template action=CREATED;</text><text fill="#000000" font-family="Helvetica" font-size="14" lengthAdjust="spacing" textLength="226.085" x="805.2212" y="1451.7803">update=tfresource.UpdateResource;</text><text fill="#000000" font-family="Helvetica" font-size="14" lengthAdjust="spacing" textLength="212.8438" x="805.2212" y="1465.7803">delete=tfresource.DeleteResource</text></g><g class="message" data-entity-1="part4" data-entity-2="part3" id="msg20"><polygon fill="#0F172A" points="524.6284,1516,514.6284,1520,524.6284,1524,520.6284,1520" style="stroke:#0F172A;stroke-width:1;"/><line style="stroke:#0F172A;stroke-width:1;stroke-dasharray:2,2;" x1="518.6284" x2="797.2212" y1="1520" y2="1520"/><text fill="#000000" font-family="Helvetica" font-size="14" lengthAdjust="spacing" textLength="100.7822" x="530.6284" y="1500.7803">status=required,</text><text fill="#000000" font-family="Helvetica" font-size="14" lengthAdjust="spacing" textLength="230.7197" x="530.6284" y="1514.7803">finalizer=retain-until-confirmed-delete</text></g><g class="message" data-entity-1="part3" data-entity-2="part2" id="msg21"><polygon fill="#0F172A" points="285.8022,1565,275.8022,1569,285.8022,1573,281.8022,1569" style="stroke:#0F172A;stroke-width:1;"/><line style="stroke:#0F172A;stroke-width:1;stroke-dasharray:2,2;" x1="279.8022" x2="512.6284" y1="1569" y2="1569"/><text fill="#000000" font-family="Helvetica" font-size="14" lengthAdjust="spacing" textLength="214.8262" x="291.8022" y="1549.7803">requeue on provisioning, updating,</text><text fill="#000000" font-family="Helvetica" font-size="14" lengthAdjust="spacing" textLength="69.2549" x="291.8022" y="1563.7803">terminating</text></g><path d="M803,1590 L803,2060 A8,8 0 0 0 811,2068 L1167,2068 A8,8 0 0 0 1175,2060 L1175,1592 L1165,1582 L811,1582 A8,8 0 0 0 803,1590" fill="#FFF7D6" style="stroke:#B45309;stroke-width:0.5;"/><path d="M1165,1582 L1165,1588 A4,4 0 0 0 1169,1592 L1175,1592 L1165,1582" fill="#FFF7D6" style="stroke:#B45309;stroke-width:0.5;"/><text fill="#334155" font-family="Helvetica" font-size="14" lengthAdjust="spacing" textLength="101.165" x="809" y="1597.7803">shared diagram:</text><text fill="#334155" font-family="Helvetica" font-size="14" lengthAdjust="spacing" textLength="307.3916" x="809" y="1611.7803">shared/diagrams/shared-resolution-sequence.svg</text><text fill="#334155" font-family="Helvetica" font-size="14" lengthAdjust="spacing" textLength="143.1992" x="809" y="1625.7803">shared delete diagram:</text><text fill="#334155" font-family="Helvetica" font-size="14" lengthAdjust="spacing" textLength="284.833" x="809" y="1639.7803">shared/diagrams/shared-delete-sequence.svg</text><text fill="#334155" font-family="Helvetica" font-size="14" lengthAdjust="spacing" textLength="280.9297" x="809" y="1653.7803">Start from the shared resolution sequence for</text><text fill="#334155" font-family="Helvetica" font-size="14" lengthAdjust="spacing" textLength="260.7295" x="809" y="1667.7803">OCID binding, datasource pagination, and</text><text fill="#334155" font-family="Helvetica" font-size="14" lengthAdjust="spacing" textLength="163.4268" x="809" y="1681.7803">create-or-update dispatch.</text><text fill="#334155" font-family="Helvetica" font-size="14" lengthAdjust="spacing" textLength="301.1982" x="809" y="1695.7803">Layer the shared delete sequence when finalizer</text><text fill="#334155" font-family="Helvetica" font-size="14" lengthAdjust="spacing" textLength="269.2471" x="809" y="1709.7803">retention, delete confirmation, work-request</text><text fill="#334155" font-family="Helvetica" font-size="14" lengthAdjust="spacing" textLength="199.2334" x="809" y="1723.7803">polling, or Secret cleanup apply.</text><text fill="#334155" font-family="Helvetica" font-size="14" lengthAdjust="spacing" textLength="281.709" x="809" y="1737.7803">archetype batch: Generated service-manager</text><text fill="#334155" font-family="Helvetica" font-size="14" lengthAdjust="spacing" textLength="266.1504" x="809" y="1751.7803">controllers follow the shared resolution and</text><text fill="#334155" font-family="Helvetica" font-size="14" lengthAdjust="spacing" textLength="259.9297" x="809" y="1765.7803">delete sequences with imported waits and</text><text fill="#334155" font-family="Helvetica" font-size="14" lengthAdjust="spacing" textLength="134.6064" x="809" y="1779.7803">controller-local policy.</text><text fill="#334155" font-family="Helvetica" font-size="14" lengthAdjust="spacing" textLength="141.6133" x="809" y="1793.7803">service: servicecatalog</text><text fill="#334155" font-family="Helvetica" font-size="14" lengthAdjust="spacing" textLength="231.9092" x="809" y="1807.7803">slug: servicecatalogprivateapplication</text><text fill="#334155" font-family="Helvetica" font-size="14" lengthAdjust="spacing" textLength="240.4609" x="809" y="1821.7803">kind: ServiceCatalogPrivateApplication</text><text fill="#334155" font-family="Helvetica" font-size="14" lengthAdjust="spacing" textLength="241.2402" x="809" y="1835.7803">archetype: generated-service-manager</text><text fill="#334155" font-family="Helvetica" font-size="14" lengthAdjust="spacing" textLength="156.4063" x="809" y="1849.7803">status/finalizer: required /</text><text fill="#334155" font-family="Helvetica" font-size="14" lengthAdjust="spacing" textLength="174.3027" x="809" y="1863.7803">retain-until-confirmed-delete</text><text fill="#334155" font-family="Helvetica" font-size="14" lengthAdjust="spacing" textLength="272.3984" x="809" y="1877.7803">requeue: provisioning, updating, terminating</text><text fill="#334155" font-family="Helvetica" font-size="14" lengthAdjust="spacing" textLength="295.6816" x="809" y="1891.7803">provider states: create PROVISIONING; update</text><text fill="#334155" font-family="Helvetica" font-size="14" lengthAdjust="spacing" textLength="192.165" x="809" y="1905.7803">UPDATING; delete DELETING</text><text fill="#334155" font-family="Helvetica" font-size="14" lengthAdjust="spacing" textLength="183.6611" x="809" y="1919.7803">supported drift: display_name</text><text fill="#334155" font-family="Helvetica" font-size="14" lengthAdjust="spacing" textLength="230.3301" x="809" y="1933.7803">reject before mutate: force-new fields</text><text fill="#334155" font-family="Helvetica" font-size="14" lengthAdjust="spacing" textLength="100.3789" x="809" y="1947.7803">compartment_id</text><text fill="#334155" font-family="Helvetica" font-size="14" lengthAdjust="spacing" textLength="66.1445" x="809" y="1961.7803">list lookup:</text><text fill="#334155" font-family="Helvetica" font-size="14" lengthAdjust="spacing" textLength="351.7568" x="809" y="1975.7803">scaffold_servicecatalog_servicecatalogprivateapplication</text><text fill="#334155" font-family="Helvetica" font-size="14" lengthAdjust="spacing" textLength="175.8477" x="809" y="1989.7803">filters compartment_id, state</text><text fill="#334155" font-family="Helvetica" font-size="14" lengthAdjust="spacing" textLength="89.4961" x="809" y="2003.7803">conflicts: none</text><text fill="#334155" font-family="Helvetica" font-size="14" lengthAdjust="spacing" textLength="104.3164" x="809" y="2017.7803">open gaps: none</text><text fill="#334155" font-family="Helvetica" font-size="14" lengthAdjust="spacing" textLength="224.9023" x="809" y="2031.7803">Scaffold metadata only; replace with</text><text fill="#334155" font-family="Helvetica" font-size="14" lengthAdjust="spacing" textLength="244.3232" x="809" y="2045.7803">controller-specific runtime states before</text><text fill="#334155" font-family="Helvetica" font-size="14" lengthAdjust="spacing" textLength="66.1445" x="809" y="2059.7803">promotion.</text><?plantuml-src hLTRRzis57xNhpZeNbeWIfecwSL11hH9rWRDcY9krnS30IqTsLmeKYKfkzwm_xx3YsJ9iMTl6V8GIoJFzVk-GvbxBYkcMGbcod8rvt821HC64zEkZ5bsFz6gblcv4ah3JqL6VtbdHuu5guNzHKdxYPK87r3CqFAChTypv7yW71vt5fdMQXwjFoyENxtedfJAuhi7CHJ5g_pbwYwbSzHnn_ZuvEZvcvKTpdrSFpewFZmvwQnxyvdI4ZKSlamijm9XYDzhb1b22WRrZ6UOCSk4cXmCm-DvUFoi-OnPV5jLWlAsNCbaodE4GYaxLZywRanZySy4W6LMwLxOCVrcQJLlV86lY-UqJCQemhnYqgu_tzsmYvLEQLeRWXTupMM_i6-EsT7uDQqwarLlAHld9tZOBZreskk25LdoL-9pWu_r6AdQ5atIYGFEAH2jX43TU_sE6Rp5JCcChouzkHdUV8pz-9L9Da7z19Y1_glUaPlpgyG10jICsjstlRToZgYXCGUDHedQjNOGNntad4sef-OWFAVBBMdJvdqpcpGMSXIKxSRJORb_4cNkWPiiYmNfpvqQ3G0bxQzn9BSXSYHrasEoDE3CzVCVGFlxgNR16FiiwMznX_fL6a1hdF8qd1BQ7b7YSGBNIjtJFqQvZhdC4oOiM4teePeHJl27Ey1zqu189OcQ2s128yiNjCgDDKa_6XSVxHx0UxHRWq3IkzPVQvyRABanf8YRR5-Just6dnPSMDHcC9APAXq2Ix9_n_CzC9QsFlF9QgmD6rFbN8OEHBKcWQ08gFKa8SIWJJ6SKn4iRarHA5L1vlT2HPXoEl_vzkQtg-7LpQUhJ-yVLJwApfTmVHR_Ov_Mb64DU2igDxaAV9rHItkmuT8NlZRUd2j-e1r4f6CUGNdXNs-ADwnk3Nd3QGgsuBfiNCyu6yaTAZ2IIe_aBh0B3O_ccuPVN5vVVdbSi_z514rvCu5CKZs9o0MNJD3mrrHiUciynCT2EUBjqbcDbb7_ObgUFruqwBrU10p6DSSr-a5nW1gxmRshWn3MCb1M47iVMWsWRu3l01QYeNnyC8u6kpdqsWtpAMzvKrAEXd0wabs6xi7NpnTll_XVRIEzTy5dJJ6SEL9UGmcWo5CsfxaoahdcXGMSCL5tLVV2lvvI0OKJkUKqxCUzvqRbiAugfOaSK5UvysHgNR0C1v1pKmcsk9DqyKjkyNVCB8onK1gXh5rG0n8mqe5KuZo4PPA-4YPH_XkbXBL2kPo4gh8TamGhnoQ2dNKO3xbI6t9gM6PtRNitRDS57thJP-VGj0LmIqxajdkAj7AaM8paLr-u7GWcnSBbrpeAHUiNsjCxjgAXTuEFHslvvccZQmbJ5AImCAMc6HfgVgQSsQBH-_qmaMxZuzv8TjQ-CKxtJFrDwVlR8BVVk9rUqkrVVuWu7CaWr6SMYMoUuPaBxUpyzlBjbykBqv4CUNTzXjesFcbB86ntIn3iPikkioICYhF8gvooQQNXBAXHMbEu8esAtjxYl8FLEzFAnQqXFubKfTMC6qgJAh0N6kj-KV5Gb-JHjWpLV3Are0fOVqcDTyh7tL2tMbbtKnrQuYmKMfLWfmWFBitB3ny2Tq9mkl2NFPymfSlYTQ5Y4v-ladjEsvC0i5JfDCBTyO3PRBgVNBC5LRNZh1aCZQFv5ELIonDgcCEMizmAkkzQT3SdMARn6f1Kr2GVctA2I54i9nbpXDvFcCwcQ1SLqXSonUC8Hf-Ep6b4_5HCozYShEqwIJFzL_CDDN8PhsHXO4uS0Lv6_PaJXqmeJMirfHdA153CFAF8ell1oYThOaGzMNrP1H5W7H6WJzLy05kreir_09CcytGryq2WWxO9WsP6vN2G_3E38Zq6cyW1NMxuFVGX6eQ56oBXijiTeQTHCPD6AKyR7BG3TIdpNjvNnfl-J-DDkCkey3EE29MnWX2Gt_MxSBUrAN4wRXYEpGYan6c0k1b9o9-mgdaUHhTGKiaTsy2DcLDg1cNdc48Gw-B9L9ZnWcTEyIqlu_t2nDHTjKlbmjfln_BV?></g></svg>