<?plantuml 1.2026.2?><svg xmlns="http://www.w3.org/2000/svg" xmlns:xlink="http://www.w3.org/1999/xlink" contentStyleType="text/css" data-diagram-type="ACTIVITY" height="2239px" preserveAspectRatio="none" style="width:1239px;height:2239px;background:#FCFCFD;" version="1.1" viewBox="0 0 1239 2239" width="1239px" zoomAndPan="magnify"><title>Activity - marketplacepublisher/ListingRevisionPackage</title><defs/><g><rect fill="#FCFCFD" height="2239" style="stroke:none;stroke-width:1;" width="1239" x="0" y="0"/><g class="title" data-source-line="10"><text fill="#000000" font-family="Helvetica" font-size="14" font-weight="bold" lengthAdjust="spacing" textLength="372.6816" x="432.1504" y="30.7803">Activity - marketplacepublisher/ListingRevisionPackage</text></g><ellipse cx="660.9242" cy="55" fill="#1D4ED8" rx="10" ry="10" style="stroke:#222222;stroke-width:1;"/><rect fill="none" height="458" rx="8" ry="8" style="stroke:#000000;stroke-width:1.5;" width="616.6201" x="378.307" y="75"/><path d="M500.3754,75 L500.3754,82 L490.3754,92 L378.307,92" fill="none" style="stroke:#000000;stroke-width:1.5;"/><text fill="#000000" font-family="Helvetica" font-size="14" lengthAdjust="spacing" textLength="112.0684" x="381.307" y="86.7803">Observe and Bind</text><rect fill="#F8FAFC" height="48" rx="8" ry="8" style="stroke:#0F172A;stroke-width:0.5;" width="304.7852" x="508.5316" y="109"/><text fill="#0F172A" font-family="Helvetica" font-size="14" lengthAdjust="spacing" textLength="136.9375" x="518.5316" y="129.7803">Start from shared flow</text><text fill="#0F172A" font-family="Helvetica" font-size="14" lengthAdjust="spacing" textLength="284.7852" x="518.5316" y="143.7803">shared/diagrams/shared-reconcile-activity.svg</text><rect fill="#F8FAFC" height="48" rx="8" ry="8" style="stroke:#0F172A;stroke-width:0.5;" width="293.1572" x="514.3456" y="177"/><text fill="#0F172A" font-family="Helvetica" font-size="14" lengthAdjust="spacing" textLength="273.1572" x="524.3456" y="197.7803">Read desired ListingRevisionPackage spec,</text><text fill="#0F172A" font-family="Helvetica" font-size="14" lengthAdjust="spacing" textLength="198.4609" x="524.3456" y="211.7803">tracked status, and delete intent</text><polygon fill="#E2E8F0" points="531.4584,245,790.39,245,802.39,257,790.39,269,531.4584,269,519.4584,257,531.4584,245" style="stroke:#1D4ED8;stroke-width:0.5;"/><text fill="#0F172A" font-family="Helvetica" font-size="14" lengthAdjust="spacing" textLength="258.9316" x="531.4584" y="260.7803">"Tracked or explicit OCI identity present?"</text><text fill="#000000" font-family="Helvetica" font-size="14" lengthAdjust="spacing" textLength="21.7861" x="497.6722" y="253.7803">yes</text><text fill="#000000" font-family="Helvetica" font-size="14" lengthAdjust="spacing" textLength="15.5723" x="802.39" y="253.7803">no</text><rect fill="#F8FAFC" height="48" rx="8" ry="8" style="stroke:#0F172A;stroke-width:0.5;" width="222.3027" x="398.307" y="279"/><text fill="#0F172A" font-family="Helvetica" font-size="14" lengthAdjust="spacing" textLength="202.3027" x="408.307" y="299.7803">Get the current OCI resource via</text><text fill="#0F172A" font-family="Helvetica" font-size="14" lengthAdjust="spacing" textLength="171.2061" x="408.307" y="313.7803">GetListingRevisionPackage</text><rect fill="#F8FAFC" height="62" rx="8" ry="8" style="stroke:#0F172A;stroke-width:0.5;" width="279.9092" x="672.4354" y="279"/><text fill="#0F172A" font-family="Helvetica" font-size="14" lengthAdjust="spacing" textLength="259.9092" x="682.4354" y="299.7803">Resolve an existing OCI resource through</text><text fill="#0F172A" font-family="Helvetica" font-size="14" lengthAdjust="spacing" textLength="245.123" x="682.4354" y="313.7803">ListListingRevisionPackage using filters</text><text fill="#0F172A" font-family="Helvetica" font-size="14" lengthAdjust="spacing" textLength="138.5098" x="682.4354" y="327.7803">compartment_id, state</text><rect fill="#F8FAFC" height="62" rx="8" ry="8" style="stroke:#0F172A;stroke-width:0.5;" width="325.0742" x="649.8529" y="361"/><text fill="#0F172A" font-family="Helvetica" font-size="14" lengthAdjust="spacing" textLength="174.2959" x="659.8529" y="381.7803">Create the OCI resource via</text><text fill="#0F172A" font-family="Helvetica" font-size="14" lengthAdjust="spacing" textLength="305.0742" x="659.8529" y="395.7803">CreateListingRevisionPackage when no reusable</text><text fill="#0F172A" font-family="Helvetica" font-size="14" lengthAdjust="spacing" textLength="91.0479" x="659.8529" y="409.7803">match is found</text><rect fill="#F8FAFC" height="48" rx="8" ry="8" style="stroke:#0F172A;stroke-width:0.5;" width="286.8955" x="668.9423" y="443"/><text fill="#0F172A" font-family="Helvetica" font-size="14" lengthAdjust="spacing" textLength="266.8955" x="678.9423" y="463.7803">Persist the resolved or created OCI identity</text><text fill="#0F172A" font-family="Helvetica" font-size="14" lengthAdjust="spacing" textLength="63.8135" x="678.9423" y="477.7803">into status</text><polygon fill="#E2E8F0" points="660.9242,497,672.9242,509,660.9242,521,648.9242,509,660.9242,497" style="stroke:#1D4ED8;stroke-width:0.5;"/><polygon fill="#E2E8F0" points="598.7479,553,723.1005,553,735.1005,565,723.1005,577,598.7479,577,586.7479,565,598.7479,553" style="stroke:#1D4ED8;stroke-width:0.5;"/><text fill="#0F172A" font-family="Helvetica" font-size="14" lengthAdjust="spacing" textLength="124.3525" x="598.7479" y="568.7803">"Delete requested?"</text><text fill="#000000" font-family="Helvetica" font-size="14" lengthAdjust="spacing" textLength="21.7861" x="564.9618" y="561.7803">yes</text><text fill="#000000" font-family="Helvetica" font-size="14" lengthAdjust="spacing" textLength="15.5723" x="735.1005" y="561.7803">no</text><rect fill="none" height="363" rx="8" ry="8" style="stroke:#000000;stroke-width:1.5;" width="644.4814" x="11" y="587"/><path d="M61.4688,587 L61.4688,594 L51.4688,604 L11,604" fill="none" style="stroke:#000000;stroke-width:1.5;"/><text fill="#000000" font-family="Helvetica" font-size="14" lengthAdjust="spacing" textLength="40.4688" x="14" y="598.7803">Delete</text><rect fill="#F8FAFC" height="76" rx="8" ry="8" style="stroke:#0F172A;stroke-width:0.5;" width="318.0674" x="180.7104" y="621"/><text fill="#0F172A" font-family="Helvetica" font-size="14" lengthAdjust="spacing" textLength="298.0674" x="190.7104" y="641.7803">Delete path uses DeleteListingRevisionPackage</text><text fill="#0F172A" font-family="Helvetica" font-size="14" lengthAdjust="spacing" textLength="293.3711" x="190.7104" y="655.7803">with required via GetListingRevisionPackage or</text><text fill="#0F172A" font-family="Helvetica" font-size="14" lengthAdjust="spacing" textLength="254.4541" x="190.7104" y="669.7803">ListListingRevisionPackage to DELETED</text><text fill="#0F172A" font-family="Helvetica" font-size="14" lengthAdjust="spacing" textLength="76.2549" x="190.7104" y="683.7803">confirmation</text><rect fill="#F8FAFC" height="62" rx="8" ry="8" style="stroke:#0F172A;stroke-width:0.5;" width="318.8193" x="180.3345" y="732"/><text fill="#0F172A" font-family="Helvetica" font-size="14" lengthAdjust="spacing" textLength="298.8193" x="190.3345" y="752.7803">Confirm deletion via GetListingRevisionPackage</text><text fill="#0F172A" font-family="Helvetica" font-size="14" lengthAdjust="spacing" textLength="245.1162" x="190.3345" y="766.7803">or ListListingRevisionPackage until OCI</text><text fill="#0F172A" font-family="Helvetica" font-size="14" lengthAdjust="spacing" textLength="118.2686" x="190.3345" y="780.7803">reaches DELETED</text><polygon fill="#E2E8F0" points="191.5718,826,487.9165,826,499.9165,838,487.9165,850,191.5718,850,179.5718,838,191.5718,826" style="stroke:#1D4ED8;stroke-width:0.5;"/><text fill="#0F172A" font-family="Helvetica" font-size="14" lengthAdjust="spacing" textLength="296.3447" x="191.5718" y="841.7803">"Delete cleanup and finalizer release succeed?"</text><text fill="#000000" font-family="Helvetica" font-size="14" lengthAdjust="spacing" textLength="21.7861" x="157.7856" y="834.7803">yes</text><text fill="#000000" font-family="Helvetica" font-size="14" lengthAdjust="spacing" textLength="15.5723" x="499.9165" y="834.7803">no</text><rect fill="#F8FAFC" height="34" rx="8" ry="8" style="stroke:#0F172A;stroke-width:0.5;" width="293.1436" x="23" y="860"/><text fill="#0F172A" font-family="Helvetica" font-size="14" lengthAdjust="spacing" textLength="273.1436" x="33" y="880.7803">Remove the finalizer after delete completion</text><rect fill="#F8FAFC" height="48" rx="8" ry="8" style="stroke:#0F172A;stroke-width:0.5;" width="251.1299" x="384.3516" y="860"/><text fill="#0F172A" font-family="Helvetica" font-size="14" lengthAdjust="spacing" textLength="231.1299" x="394.3516" y="880.7803">Stay blocked until cleanup or finalizer</text><text fill="#0F172A" font-family="Helvetica" font-size="14" lengthAdjust="spacing" textLength="108.9512" x="394.3516" y="894.7803">release succeeds</text><polygon fill="#E2E8F0" points="339.7441,914,351.7441,926,339.7441,938,327.7441,926,339.7441,914" style="stroke:#1D4ED8;stroke-width:0.5;"/><ellipse cx="339.7441" cy="996" fill="none" rx="11" ry="11" style="stroke:#222222;stroke-width:1;"/><ellipse cx="339.7441" cy="996" fill="#222222" rx="6" ry="6" style="stroke:#222222;stroke-width:1;"/><rect fill="none" height="440" rx="8" ry="8" style="stroke:#000000;stroke-width:1.5;" width="345.916" x="815.1462" y="587"/><path d="M965.9802,587 L965.9802,594 L955.9802,604 L815.1462,604" fill="none" style="stroke:#000000;stroke-width:1.5;"/><text fill="#000000" font-family="Helvetica" font-size="14" lengthAdjust="spacing" textLength="140.834" x="818.1462" y="598.7803">Lifecycle Classification</text><rect fill="#F8FAFC" height="48" rx="8" ry="8" style="stroke:#0F172A;stroke-width:0.5;" width="280.5928" x="841.8079" y="670"/><text fill="#0F172A" font-family="Helvetica" font-size="14" lengthAdjust="spacing" textLength="240.4541" x="851.8079" y="690.7803">Request requeue while OCI remains in</text><text fill="#0F172A" font-family="Helvetica" font-size="14" lengthAdjust="spacing" textLength="260.5928" x="851.8079" y="704.7803">PROVISIONING, UPDATING, DELETING</text><ellipse cx="982.1042" cy="764" fill="none" rx="11" ry="11" style="stroke:#222222;stroke-width:1;"/><ellipse cx="982.1042" cy="764" fill="#222222" rx="6" ry="6" style="stroke:#222222;stroke-width:1;"/><polygon fill="#E2E8F0" points="895.821,621,1068.3875,621,1080.3875,633,1068.3875,645,895.821,645,883.821,633,895.821,621" style="stroke:#1D4ED8;stroke-width:0.5;"/><text fill="#000000" font-family="Helvetica" font-size="14" lengthAdjust="spacing" textLength="21.7861" x="986.1042" y="655.7803">yes</text><text fill="#0F172A" font-family="Helvetica" font-size="14" lengthAdjust="spacing" textLength="172.5664" x="895.821" y="636.7803">"OCI state in retryable set?"</text><rect fill="#F8FAFC" height="48" rx="8" ry="8" style="stroke:#0F172A;stroke-width:0.5;" width="293.916" x="835.1462" y="887"/><text fill="#0F172A" font-family="Helvetica" font-size="14" lengthAdjust="spacing" textLength="273.916" x="845.1462" y="907.7803">Return an unsuccessful reconcile result until</text><text fill="#0F172A" font-family="Helvetica" font-size="14" lengthAdjust="spacing" textLength="133.041" x="845.1462" y="921.7803">OCI reaches ACTIVE</text><ellipse cx="982.1042" cy="973" fill="none" rx="11" ry="11" style="stroke:#222222;stroke-width:1;"/><ellipse cx="982.1042" cy="973" fill="#222222" rx="6" ry="6" style="stroke:#222222;stroke-width:1;"/><polygon fill="#E2E8F0" points="861.5833,838,1102.6252,838,1114.6252,850,1102.6252,862,861.5833,862,849.5833,850,861.5833,838" style="stroke:#1D4ED8;stroke-width:0.5;"/><text fill="#000000" font-family="Helvetica" font-size="14" lengthAdjust="spacing" textLength="21.7861" x="986.1042" y="872.7803">yes</text><text fill="#0F172A" font-family="Helvetica" font-size="14" lengthAdjust="spacing" textLength="241.042" x="861.5833" y="853.7803">"OCI state is outside success targets?"</text><rect fill="none" height="722.5" rx="8" ry="8" style="stroke:#000000;stroke-width:1.5;" width="553.501" x="675.4814" y="1037"/><path d="M841.9014,1037 L841.9014,1044 L831.9014,1054 L675.4814,1054" fill="none" style="stroke:#000000;stroke-width:1.5;"/><text fill="#000000" font-family="Helvetica" font-size="14" lengthAdjust="spacing" textLength="156.4199" x="678.4814" y="1048.7803">Ready and Drift Handling</text><rect fill="#F8FAFC" height="48" rx="8" ry="8" style="stroke:#0F172A;stroke-width:0.5;" width="296.2402" x="833.9841" y="1071"/><text fill="#0F172A" font-family="Helvetica" font-size="14" lengthAdjust="spacing" textLength="276.2402" x="843.9841" y="1091.7803">Compare live OCI state against the imported</text><text fill="#0F172A" font-family="Helvetica" font-size="14" lengthAdjust="spacing" textLength="75.4824" x="843.9841" y="1105.7803">field surface</text><rect fill="#F8FAFC" height="48" rx="8" ry="8" style="stroke:#0F172A;stroke-width:0.5;" width="302.4473" x="830.8806" y="1188"/><text fill="#0F172A" font-family="Helvetica" font-size="14" lengthAdjust="spacing" textLength="282.4473" x="840.8806" y="1208.7803">Reject drift before OCI mutation for force-new</text><text fill="#0F172A" font-family="Helvetica" font-size="14" lengthAdjust="spacing" textLength="136.9512" x="840.8806" y="1222.7803">fields compartment_id</text><ellipse cx="982.1042" cy="1268.5" fill="none" rx="11" ry="11" style="stroke:#222222;stroke-width:1;"/><ellipse cx="982.1042" cy="1268.5" fill="#222222" rx="6" ry="6" style="stroke:#222222;stroke-width:1;"/><polygon fill="#E2E8F0" points="856.5212,1139,1107.6873,1139,1119.6873,1151,1107.6873,1163,856.5212,1163,844.5212,1151,856.5212,1139" style="stroke:#1D4ED8;stroke-width:0.5;"/><text fill="#000000" font-family="Helvetica" font-size="14" lengthAdjust="spacing" textLength="21.7861" x="986.1042" y="1173.7803">yes</text><text fill="#0F172A" font-family="Helvetica" font-size="14" lengthAdjust="spacing" textLength="251.166" x="856.5212" y="1154.7803">"Force-new or conflicting drift detected?"</text><polygon fill="#E2E8F0" points="871.6765,1321.5,1092.532,1321.5,1104.532,1333.5,1092.532,1345.5,871.6765,1345.5,859.6765,1333.5,871.6765,1321.5" style="stroke:#1D4ED8;stroke-width:0.5;"/><text fill="#0F172A" font-family="Helvetica" font-size="14" lengthAdjust="spacing" textLength="220.8555" x="871.6765" y="1337.2803">"Supported mutable drift detected?"</text><text fill="#000000" font-family="Helvetica" font-size="14" lengthAdjust="spacing" textLength="21.7861" x="837.8904" y="1330.2803">yes</text><text fill="#000000" font-family="Helvetica" font-size="14" lengthAdjust="spacing" textLength="15.5723" x="1104.532" y="1330.2803">no</text><rect fill="#F8FAFC" height="48" rx="8" ry="8" style="stroke:#0F172A;stroke-width:0.5;" width="302.4951" x="695.4814" y="1355.5"/><text fill="#0F172A" font-family="Helvetica" font-size="14" lengthAdjust="spacing" textLength="282.4951" x="705.4814" y="1376.2803">Apply UpdateListingRevisionPackage only for</text><text fill="#0F172A" font-family="Helvetica" font-size="14" lengthAdjust="spacing" textLength="176.6543" x="705.4814" y="1390.2803">mutable fields display_name</text><rect fill="#F8FAFC" height="34" rx="8" ry="8" style="stroke:#0F172A;stroke-width:0.5;" width="199.0059" x="1017.9766" y="1355.5"/><text fill="#0F172A" font-family="Helvetica" font-size="14" lengthAdjust="spacing" textLength="179.0059" x="1027.9766" y="1376.2803">Skip the no-op mutation path</text><polygon fill="#E2E8F0" points="982.1042,1409.5,994.1042,1421.5,982.1042,1433.5,970.1042,1421.5,982.1042,1409.5" style="stroke:#1D4ED8;stroke-width:0.5;"/><rect fill="#F8FAFC" height="118" rx="8" ry="8" style="stroke:#0F172A;stroke-width:0.5;" width="334.3164" x="814.946" y="1453.5"/><text fill="#0F172A" font-family="Helvetica" font-size="14" lengthAdjust="spacing" textLength="164.2061" x="824.946" y="1474.2803">Run provider helper hooks</text><text fill="#0F172A" font-family="Helvetica" font-size="14" lengthAdjust="spacing" textLength="219.0508" x="824.946" y="1488.2803">create=tfresource.CreateResource,</text><text fill="#0F172A" font-family="Helvetica" font-size="14" lengthAdjust="spacing" textLength="314.3164" x="824.946" y="1502.2803">tfresource.WaitForWorkRequestWithErrorHandling</text><text fill="#0F172A" font-family="Helvetica" font-size="14" lengthAdjust="spacing" textLength="215.5439" x="824.946" y="1516.2803">entity=template action=CREATED;</text><text fill="#0F172A" font-family="Helvetica" font-size="14" lengthAdjust="spacing" textLength="226.085" x="824.946" y="1530.2803">update=tfresource.UpdateResource;</text><text fill="#0F172A" font-family="Helvetica" font-size="14" lengthAdjust="spacing" textLength="273.5537" x="824.946" y="1544.2803">delete=tfresource.DeleteResource when the</text><text fill="#0F172A" font-family="Helvetica" font-size="14" lengthAdjust="spacing" textLength="220.2334" x="824.946" y="1558.2803">matching field-driven path executes</text><rect fill="#F8FAFC" height="34" rx="8" ry="8" style="stroke:#0F172A;stroke-width:0.5;" width="303.2197" x="830.4944" y="1591.5"/><text fill="#0F172A" font-family="Helvetica" font-size="14" lengthAdjust="spacing" textLength="283.2197" x="840.4944" y="1612.2803">Return success for the ACTIVE success state</text><rect fill="#F8FAFC" height="48" rx="8" ry="8" style="stroke:#0F172A;stroke-width:0.5;" width="279.1299" x="842.5393" y="1645.5"/><text fill="#0F172A" font-family="Helvetica" font-size="14" lengthAdjust="spacing" textLength="259.1299" x="852.5393" y="1666.2803">Project required status and finalizer policy</text><text fill="#0F172A" font-family="Helvetica" font-size="14" lengthAdjust="spacing" textLength="174.3027" x="852.5393" y="1680.2803">retain-until-confirmed-delete</text><rect fill="#F8FAFC" height="34" rx="8" ry="8" style="stroke:#0F172A;stroke-width:0.5;" width="313.4189" x="825.3948" y="1713.5"/><text fill="#0F172A" font-family="Helvetica" font-size="14" lengthAdjust="spacing" textLength="293.4189" x="835.3948" y="1734.2803">Requeue on provisioning, updating, terminating</text><path d="M691.9242,1769.5 L691.9242,1994.5 L671.9242,1998.5 L691.9242,2002.5 L691.9242,2227.5 A0,0 0 0 0 691.9242,2227.5 L1046.7777,2227.5 A0,0 0 0 0 1046.7777,2227.5 L1046.7777,1779.5 L1036.7777,1769.5 L691.9242,1769.5 A0,0 0 0 0 691.9242,1769.5" fill="#FFF7D6" style="stroke:#B45309;stroke-width:0.5;"/><path d="M1036.7777,1769.5 L1036.7777,1779.5 L1046.7777,1779.5 L1036.7777,1769.5" fill="#FFF7D6" style="stroke:#B45309;stroke-width:0.5;"/><text fill="#334155" font-family="Helvetica" font-size="14" lengthAdjust="spacing" textLength="101.165" x="697.9242" y="1785.2803">shared diagram:</text><text fill="#334155" font-family="Helvetica" font-size="14" lengthAdjust="spacing" textLength="284.7852" x="697.9242" y="1799.2803">shared/diagrams/shared-reconcile-activity.svg</text><text fill="#334155" font-family="Helvetica" font-size="14" lengthAdjust="spacing" textLength="265.3438" x="697.9242" y="1813.2803">Start from the shared reconcile activity and</text><text fill="#334155" font-family="Helvetica" font-size="14" lengthAdjust="spacing" textLength="273.8955" x="697.9242" y="1827.2803">specialize provider-backed CRUD, wait, and</text><text fill="#334155" font-family="Helvetica" font-size="14" lengthAdjust="spacing" textLength="182.875" x="697.9242" y="1841.2803">status-projection details here.</text><text fill="#334155" font-family="Helvetica" font-size="14" lengthAdjust="spacing" textLength="229.5371" x="697.9242" y="1855.2803">Controller-local activity diagrams add</text><text fill="#334155" font-family="Helvetica" font-size="14" lengthAdjust="spacing" textLength="238.8955" x="697.9242" y="1869.2803">list-lookup hints, secret policies, delete</text><text fill="#334155" font-family="Helvetica" font-size="14" lengthAdjust="spacing" textLength="200.0332" x="697.9242" y="1883.2803">handling, and open formal gaps.</text><text fill="#334155" font-family="Helvetica" font-size="14" lengthAdjust="spacing" textLength="281.709" x="697.9242" y="1897.2803">archetype batch: Generated service-manager</text><text fill="#334155" font-family="Helvetica" font-size="14" lengthAdjust="spacing" textLength="291.0469" x="697.9242" y="1911.2803">controllers specialize the shared reconcile path</text><text fill="#334155" font-family="Helvetica" font-size="14" lengthAdjust="spacing" textLength="189.8477" x="697.9242" y="1925.2803">with formal runtime ownership.</text><text fill="#334155" font-family="Helvetica" font-size="14" lengthAdjust="spacing" textLength="185.1924" x="697.9242" y="1939.2803">service: marketplacepublisher</text><text fill="#334155" font-family="Helvetica" font-size="14" lengthAdjust="spacing" textLength="170.4268" x="697.9242" y="1953.2803">slug: listingrevisionpackage</text><text fill="#334155" font-family="Helvetica" font-size="14" lengthAdjust="spacing" textLength="182.1025" x="697.9242" y="1967.2803">kind: ListingRevisionPackage</text><text fill="#334155" font-family="Helvetica" font-size="14" lengthAdjust="spacing" textLength="241.2402" x="697.9242" y="1981.2803">archetype: generated-service-manager</text><text fill="#334155" font-family="Helvetica" font-size="14" lengthAdjust="spacing" textLength="156.4063" x="697.9242" y="1995.2803">status/finalizer: required /</text><text fill="#334155" font-family="Helvetica" font-size="14" lengthAdjust="spacing" textLength="174.3027" x="697.9242" y="2009.2803">retain-until-confirmed-delete</text><text fill="#334155" font-family="Helvetica" font-size="14" lengthAdjust="spacing" textLength="272.3984" x="697.9242" y="2023.2803">requeue: provisioning, updating, terminating</text><text fill="#334155" font-family="Helvetica" font-size="14" lengthAdjust="spacing" textLength="295.6816" x="697.9242" y="2037.2803">provider states: create PROVISIONING; update</text><text fill="#334155" font-family="Helvetica" font-size="14" lengthAdjust="spacing" textLength="192.165" x="697.9242" y="2051.2803">UPDATING; delete DELETING</text><text fill="#334155" font-family="Helvetica" font-size="14" lengthAdjust="spacing" textLength="183.6611" x="697.9242" y="2065.2803">supported drift: display_name</text><text fill="#334155" font-family="Helvetica" font-size="14" lengthAdjust="spacing" textLength="230.3301" x="697.9242" y="2079.2803">reject before mutate: force-new fields</text><text fill="#334155" font-family="Helvetica" font-size="14" lengthAdjust="spacing" textLength="100.3789" x="697.9242" y="2093.2803">compartment_id</text><text fill="#334155" font-family="Helvetica" font-size="14" lengthAdjust="spacing" textLength="144.751" x="697.9242" y="2107.2803">create-only fields: none</text><text fill="#334155" font-family="Helvetica" font-size="14" lengthAdjust="spacing" textLength="66.1445" x="697.9242" y="2121.2803">list lookup:</text><text fill="#334155" font-family="Helvetica" font-size="14" lengthAdjust="spacing" textLength="333.8535" x="697.9242" y="2135.2803">scaffold_marketplacepublisher_listingrevisionpackage</text><text fill="#334155" font-family="Helvetica" font-size="14" lengthAdjust="spacing" textLength="175.8477" x="697.9242" y="2149.2803">filters compartment_id, state</text><text fill="#334155" font-family="Helvetica" font-size="14" lengthAdjust="spacing" textLength="89.4961" x="697.9242" y="2163.2803">conflicts: none</text><text fill="#334155" font-family="Helvetica" font-size="14" lengthAdjust="spacing" textLength="104.3164" x="697.9242" y="2177.2803">open gaps: none</text><text fill="#334155" font-family="Helvetica" font-size="14" lengthAdjust="spacing" textLength="224.9023" x="697.9242" y="2191.2803">Scaffold metadata only; replace with</text><text fill="#334155" font-family="Helvetica" font-size="14" lengthAdjust="spacing" textLength="244.3232" x="697.9242" y="2205.2803">controller-specific runtime states before</text><text fill="#334155" font-family="Helvetica" font-size="14" lengthAdjust="spacing" textLength="66.1445" x="697.9242" y="2219.2803">promotion.</text><ellipse cx="660.9242" cy="1998.5" fill="none" rx="11" ry="11" style="stroke:#222222;stroke-width:1;"/><ellipse cx="660.9242" cy="1998.5" fill="#222222" rx="6" ry="6" style="stroke:#222222;stroke-width:1;"/><line style="stroke:#0F172A;stroke-width:1;" x1="660.9242" x2="660.9242" y1="157" y2="177"/><polygon fill="#0F172A" points="656.9242,167,660.9242,177,664.9242,167,660.9242,171" style="stroke:#0F172A;stroke-width:1;"/><line style="stroke:#0F172A;stroke-width:1;" x1="812.39" x2="812.39" y1="341" y2="361"/><polygon fill="#0F172A" points="808.39,351,812.39,361,816.39,351,812.39,355" style="stroke:#0F172A;stroke-width:1;"/><line style="stroke:#0F172A;stroke-width:1;" x1="812.39" x2="812.39" y1="423" y2="443"/><polygon fill="#0F172A" points="808.39,433,812.39,443,816.39,433,812.39,437" style="stroke:#0F172A;stroke-width:1;"/><line style="stroke:#0F172A;stroke-width:1;" x1="519.4584" x2="509.4584" y1="257" y2="257"/><line style="stroke:#0F172A;stroke-width:1;" x1="509.4584" x2="509.4584" y1="257" y2="279"/><polygon fill="#0F172A" points="505.4584,269,509.4584,279,513.4584,269,509.4584,273" style="stroke:#0F172A;stroke-width:1;"/><line style="stroke:#0F172A;stroke-width:1;" x1="802.39" x2="812.39" y1="257" y2="257"/><line style="stroke:#0F172A;stroke-width:1;" x1="812.39" x2="812.39" y1="257" y2="279"/><polygon fill="#0F172A" points="808.39,269,812.39,279,816.39,269,812.39,273" style="stroke:#0F172A;stroke-width:1;"/><line style="stroke:#0F172A;stroke-width:1;" x1="509.4584" x2="509.4584" y1="327" y2="509"/><line style="stroke:#0F172A;stroke-width:1;" x1="509.4584" x2="648.9242" y1="509" y2="509"/><polygon fill="#0F172A" points="638.9242,505,648.9242,509,638.9242,513,642.9242,509" style="stroke:#0F172A;stroke-width:1;"/><line style="stroke:#0F172A;stroke-width:1;" x1="812.39" x2="812.39" y1="491" y2="509"/><line style="stroke:#0F172A;stroke-width:1;" x1="812.39" x2="672.9242" y1="509" y2="509"/><polygon fill="#0F172A" points="682.9242,505,672.9242,509,682.9242,513,678.9242,509" style="stroke:#0F172A;stroke-width:1;"/><line style="stroke:#0F172A;stroke-width:1;" x1="660.9242" x2="660.9242" y1="225" y2="245"/><polygon fill="#0F172A" points="656.9242,235,660.9242,245,664.9242,235,660.9242,239" style="stroke:#0F172A;stroke-width:1;"/><line style="stroke:#0F172A;stroke-width:1;" x1="660.9242" x2="660.9242" y1="65" y2="109"/><polygon fill="#0F172A" points="656.9242,99,660.9242,109,664.9242,99,660.9242,103" style="stroke:#0F172A;stroke-width:1;"/><line style="stroke:#0F172A;stroke-width:1;" x1="339.7441" x2="339.7441" y1="697" y2="732"/><polygon fill="#0F172A" points="335.7441,722,339.7441,732,343.7441,722,339.7441,726" style="stroke:#0F172A;stroke-width:1;"/><line style="stroke:#0F172A;stroke-width:1;" x1="179.5718" x2="169.5718" y1="838" y2="838"/><line style="stroke:#0F172A;stroke-width:1;" x1="169.5718" x2="169.5718" y1="838" y2="860"/><polygon fill="#0F172A" points="165.5718,850,169.5718,860,173.5718,850,169.5718,854" style="stroke:#0F172A;stroke-width:1;"/><line style="stroke:#0F172A;stroke-width:1;" x1="499.9165" x2="509.9165" y1="838" y2="838"/><line style="stroke:#0F172A;stroke-width:1;" x1="509.9165" x2="509.9165" y1="838" y2="860"/><polygon fill="#0F172A" points="505.9165,850,509.9165,860,513.9165,850,509.9165,854" style="stroke:#0F172A;stroke-width:1;"/><line style="stroke:#0F172A;stroke-width:1;" x1="169.5718" x2="169.5718" y1="894" y2="926"/><line style="stroke:#0F172A;stroke-width:1;" x1="169.5718" x2="327.7441" y1="926" y2="926"/><polygon fill="#0F172A" points="317.7441,922,327.7441,926,317.7441,930,321.7441,926" style="stroke:#0F172A;stroke-width:1;"/><line style="stroke:#0F172A;stroke-width:1;" x1="509.9165" x2="509.9165" y1="908" y2="926"/><line style="stroke:#0F172A;stroke-width:1;" x1="509.9165" x2="351.7441" y1="926" y2="926"/><polygon fill="#0F172A" points="361.7441,922,351.7441,926,361.7441,930,357.7441,926" style="stroke:#0F172A;stroke-width:1;"/><line style="stroke:#0F172A;stroke-width:1;" x1="339.7441" x2="339.7441" y1="794" y2="826"/><polygon fill="#0F172A" points="335.7441,816,339.7441,826,343.7441,816,339.7441,820" style="stroke:#0F172A;stroke-width:1;"/><line style="stroke:#0F172A;stroke-width:1;" x1="339.7441" x2="339.7441" y1="938" y2="985"/><polygon fill="#0F172A" points="335.7441,975,339.7441,985,343.7441,975,339.7441,979" style="stroke:#0F172A;stroke-width:1;"/><line style="stroke:#0F172A;stroke-width:1;" x1="982.1042" x2="982.1042" y1="718" y2="753"/><polygon fill="#0F172A" points="978.1042,743,982.1042,753,986.1042,743,982.1042,747" style="stroke:#0F172A;stroke-width:1;"/><line style="stroke:#0F172A;stroke-width:1;" x1="982.1042" x2="982.1042" y1="645" y2="670"/><polygon fill="#0F172A" points="978.1042,660,982.1042,670,986.1042,660,982.1042,664" style="stroke:#0F172A;stroke-width:1;"/><line style="stroke:#0F172A;stroke-width:1;" x1="1080.3875" x2="1132.4006" y1="633" y2="633"/><polygon fill="#0F172A" points="1128.4006,709.5,1132.4006,719.5,1136.4006,709.5,1132.4006,713.5" style="stroke:#0F172A;stroke-width:1;"/><line style="stroke:#0F172A;stroke-width:1;" x1="1132.4006" x2="1132.4006" y1="633" y2="806"/><line style="stroke:#0F172A;stroke-width:1;" x1="1132.4006" x2="982.1042" y1="806" y2="806"/><line style="stroke:#0F172A;stroke-width:1;" x1="982.1042" x2="982.1042" y1="806" y2="838"/><polygon fill="#0F172A" points="978.1042,828,982.1042,838,986.1042,828,982.1042,832" style="stroke:#0F172A;stroke-width:1;"/><line style="stroke:#0F172A;stroke-width:1;" x1="982.1042" x2="982.1042" y1="935" y2="962"/><polygon fill="#0F172A" points="978.1042,952,982.1042,962,986.1042,952,982.1042,956" style="stroke:#0F172A;stroke-width:1;"/><line style="stroke:#0F172A;stroke-width:1;" x1="982.1042" x2="982.1042" y1="862" y2="887"/><polygon fill="#0F172A" points="978.1042,877,982.1042,887,986.1042,877,982.1042,881" style="stroke:#0F172A;stroke-width:1;"/><line style="stroke:#0F172A;stroke-width:1;" x1="1114.6252" x2="1139.0623" y1="850" y2="850"/><polygon fill="#0F172A" points="1135.0623,926.5,1139.0623,936.5,1143.0623,926.5,1139.0623,930.5" style="stroke:#0F172A;stroke-width:1;"/><line style="stroke:#0F172A;stroke-width:1;" x1="1139.0623" x2="1139.0623" y1="850" y2="1015"/><line style="stroke:#0F172A;stroke-width:1;" x1="1139.0623" x2="982.1042" y1="1015" y2="1015"/><line style="stroke:#0F172A;stroke-width:1;" x1="982.1042" x2="982.1042" y1="1015" y2="1071"/><polygon fill="#0F172A" points="978.1042,1061,982.1042,1071,986.1042,1061,982.1042,1065" style="stroke:#0F172A;stroke-width:1;"/><line style="stroke:#0F172A;stroke-width:1;" x1="982.1042" x2="982.1042" y1="1236" y2="1257.5"/><polygon fill="#0F172A" points="978.1042,1247.5,982.1042,1257.5,986.1042,1247.5,982.1042,1251.5" style="stroke:#0F172A;stroke-width:1;"/><line style="stroke:#0F172A;stroke-width:1;" x1="982.1042" x2="982.1042" y1="1163" y2="1188"/><polygon fill="#0F172A" points="978.1042,1178,982.1042,1188,986.1042,1178,982.1042,1182" style="stroke:#0F172A;stroke-width:1;"/><line style="stroke:#0F172A;stroke-width:1;" x1="1119.6873" x2="1143.3279" y1="1151" y2="1151"/><polygon fill="#0F172A" points="1139.3279,1227.5,1143.3279,1237.5,1147.3279,1227.5,1143.3279,1231.5" style="stroke:#0F172A;stroke-width:1;"/><line style="stroke:#0F172A;stroke-width:1;" x1="1143.3279" x2="1143.3279" y1="1151" y2="1301.5"/><line style="stroke:#0F172A;stroke-width:1;" x1="1143.3279" x2="982.1042" y1="1301.5" y2="1301.5"/><line style="stroke:#0F172A;stroke-width:1;" x1="982.1042" x2="982.1042" y1="1301.5" y2="1321.5"/><polygon fill="#0F172A" points="978.1042,1311.5,982.1042,1321.5,986.1042,1311.5,982.1042,1315.5" style="stroke:#0F172A;stroke-width:1;"/><line style="stroke:#0F172A;stroke-width:1;" x1="982.1042" x2="982.1042" y1="1119" y2="1139"/><polygon fill="#0F172A" points="978.1042,1129,982.1042,1139,986.1042,1129,982.1042,1133" style="stroke:#0F172A;stroke-width:1;"/><line style="stroke:#0F172A;stroke-width:1;" x1="859.6765" x2="846.729" y1="1333.5" y2="1333.5"/><line style="stroke:#0F172A;stroke-width:1;" x1="846.729" x2="846.729" y1="1333.5" y2="1355.5"/><polygon fill="#0F172A" points="842.729,1345.5,846.729,1355.5,850.729,1345.5,846.729,1349.5" style="stroke:#0F172A;stroke-width:1;"/><line style="stroke:#0F172A;stroke-width:1;" x1="1104.532" x2="1117.4795" y1="1333.5" y2="1333.5"/><line style="stroke:#0F172A;stroke-width:1;" x1="1117.4795" x2="1117.4795" y1="1333.5" y2="1355.5"/><polygon fill="#0F172A" points="1113.4795,1345.5,1117.4795,1355.5,1121.4795,1345.5,1117.4795,1349.5" style="stroke:#0F172A;stroke-width:1;"/><line style="stroke:#0F172A;stroke-width:1;" x1="846.729" x2="846.729" y1="1403.5" y2="1421.5"/><line style="stroke:#0F172A;stroke-width:1;" x1="846.729" x2="970.1042" y1="1421.5" y2="1421.5"/><polygon fill="#0F172A" points="960.1042,1417.5,970.1042,1421.5,960.1042,1425.5,964.1042,1421.5" style="stroke:#0F172A;stroke-width:1;"/><line style="stroke:#0F172A;stroke-width:1;" x1="1117.4795" x2="1117.4795" y1="1389.5" y2="1421.5"/><line style="stroke:#0F172A;stroke-width:1;" x1="1117.4795" x2="994.1042" y1="1421.5" y2="1421.5"/><polygon fill="#0F172A" points="1004.1042,1417.5,994.1042,1421.5,1004.1042,1425.5,1000.1042,1421.5" style="stroke:#0F172A;stroke-width:1;"/><line style="stroke:#0F172A;stroke-width:1;" x1="982.1042" x2="982.1042" y1="1433.5" y2="1453.5"/><polygon fill="#0F172A" points="978.1042,1443.5,982.1042,1453.5,986.1042,1443.5,982.1042,1447.5" style="stroke:#0F172A;stroke-width:1;"/><line style="stroke:#0F172A;stroke-width:1;" x1="982.1042" x2="982.1042" y1="1571.5" y2="1591.5"/><polygon fill="#0F172A" points="978.1042,1581.5,982.1042,1591.5,986.1042,1581.5,982.1042,1585.5" style="stroke:#0F172A;stroke-width:1;"/><line style="stroke:#0F172A;stroke-width:1;" x1="982.1042" x2="982.1042" y1="1625.5" y2="1645.5"/><polygon fill="#0F172A" points="978.1042,1635.5,982.1042,1645.5,986.1042,1635.5,982.1042,1639.5" style="stroke:#0F172A;stroke-width:1;"/><line style="stroke:#0F172A;stroke-width:1;" x1="982.1042" x2="982.1042" y1="1693.5" y2="1713.5"/><polygon fill="#0F172A" points="978.1042,1703.5,982.1042,1713.5,986.1042,1703.5,982.1042,1707.5" style="stroke:#0F172A;stroke-width:1;"/><line style="stroke:#0F172A;stroke-width:1;" x1="586.7479" x2="339.7441" y1="565" y2="565"/><line style="stroke:#0F172A;stroke-width:1;" x1="339.7441" x2="339.7441" y1="565" y2="621"/><polygon fill="#0F172A" points="335.7441,611,339.7441,621,343.7441,611,339.7441,615" style="stroke:#0F172A;stroke-width:1;"/><line style="stroke:#0F172A;stroke-width:1;" x1="735.1005" x2="982.1042" y1="565" y2="565"/><line style="stroke:#0F172A;stroke-width:1;" x1="982.1042" x2="982.1042" y1="565" y2="621"/><polygon fill="#0F172A" points="978.1042,611,982.1042,621,986.1042,611,982.1042,615" style="stroke:#0F172A;stroke-width:1;"/><line style="stroke:#0F172A;stroke-width:1;" x1="982.1042" x2="982.1042" y1="1747.5" y2="1764.5"/><line style="stroke:#0F172A;stroke-width:1;" x1="982.1042" x2="660.9242" y1="1764.5" y2="1764.5"/><line style="stroke:#0F172A;stroke-width:1;" x1="660.9242" x2="660.9242" y1="1764.5" y2="1987.5"/><polygon fill="#0F172A" points="656.9242,1977.5,660.9242,1987.5,664.9242,1977.5,660.9242,1981.5" style="stroke:#0F172A;stroke-width:1;"/><line style="stroke:#0F172A;stroke-width:1;" x1="660.9242" x2="660.9242" y1="521" y2="553"/><polygon fill="#0F172A" points="656.9242,543,660.9242,553,664.9242,543,660.9242,547" style="stroke:#0F172A;stroke-width:1;"/><?plantuml-src bLTjRzis4FwkNq5aNreWJfg-JqOnf4ww1YYQ84dRBmO2MZhPN2XI8obxtj3_leSlacN72JO4GIJnUBnxxhc75tilLCCDhvbTy5AlX9gpYajBcUrNPhoudnlTgdAYfJRibwh0JpcmAAdYhNIVj79VUKtiCyabEL7m_JOtuczY9wy7YzmOlKhUNrGdxruETohjwEE36AhgNVbsrqgRaaoocBr-y-h5hpiM_lYq_khLwvCtRmRhmNsXZIB3JjvcJZX9xBHmOYdScerOpSqzkKRoWffs9eLTa3d-8gm3QDUq55PeTOKu-No87kyS_9EnFL2-htXL-9LXw0a2ngfDkFstKl1Qg_818lIItbSl1WP3ZoVbQohVRnO_xN5i7JTkrvvw_xtTZEzu_Pc5hHaI1cX0WHrSpYoP9J6kIlPHgF80wUSttefLHWUs6IfP9VLggkBBCKAR0p5x7Dz7XWgj2Y5fr65uP9VpSPPV4o_19okyY_q5OBQXud2gdC4xh12WQ-rXYASaIOwOK8wK6sUYOiyERfCTigA_6YaAuTZbv8A94ZQ-UeqXYyVV3fupjo35dgt9Fi_otydvTrQqnc0vx86bRar1R2duLC5YVuZZZD1dx9dIptrALik05ywFvjk-t0ArdY-coZjx9EVMXlOLqf6nKrNesbUaHbnteZmC6E3KV6883o7iX-76nKSEMFdCbSQMrlAPfAcgkIiMJ5Wm5Ko4yoiSZSt1kub91LIBuBVS0dMgK0ETQWCuL2aga2aKv2mMoT2VBLbit05-GBLe6GYMDZNSBG06MHO_xCzcgbO2Tlw4G2Iapnuj5b9u4dgaSNR-vVps_CpZhYfXW0pMFTpnDTBEH_paGLC5i9wgCP2J7iMf0gB5mYSP3nvl0LT8ugfj0k4heRY4vXeaYyyWdMsBWXw02XRMUXcPiTd3Az2fQnhFgPZ65dtHsMisaphqK0on2m3fzBvyp5i13AfkdMu6BWS5_Y8gAjRmnoQIMoigN2n-nPSyfEmv5SYDdaQApgmzEPabzp31GAT8gzOJ6lAIkg3cGbbucAghwyll5pSNbrylllv-oBvTdPtUXgS0D9x6ATWG-Mu4bkdMML0yvcWjW-hDoTc7iRZMAD_nhKgcLIjPhtg-VN1XHZYdAWOPAtuwkRtuVhuLniyXObuWrw7qPqPKZdt6emIPGfDCWYmGas8PKu-1yxdFFpQkg1jjq7HJC9SarBCr5MwznB1F6cenKhGAVGrsGow3O9NXi18yATm-Sls1xybeHfKsyVYwTQ6Sa13ZVwFlTBHbsohs4FgRjed11aU-xa-7STeqSis-DUNZCgSLB2hVyPtB54ifBAx_zPt2aBFD_tlH1EIK7kbcav9NeexY-NMB3qOlmGt35YGR_qVhUo_LGHq_kAeJuwEemzVfrTzacxKVN62ECZ-qkK-4_W4bEySCPRfAJrMKs0-EqB2XleMFwCFa-lpKYyKKlLdkd1b1wSw4IMpweKbKbyuaNWZ8Erq4yVe1L2FKO4anVrneLBIExBZdVDSPlk8UjSZd_dDtKLqP7IZJItIyANOqhT7WtzfBYmE3Hw5THac3CKN47CQfzrjVtLW5Nt44VCW24E49GbV3htyPewDYtGBX_Ep8Z9WlN9P6bpIjvDd_cbwomGpaCq_EDatVZuj8ClD3Z0XfziGPpUAWChd-TdR8Lc32OJGDq8oQ29ddNkdna1PCCtIKuHPoHai93v1fBZS7TO4pNfOPfbe70tqFvKOv7KOcIs2dYp0BmeU8QBP8L8j3bMueT70DrtFUsAEC6sYLMpU4WH7So77dOR8EGu2V3GNwlEOA_MQoeW_Eia7EUm7obCh2pPrECxxY-AT3h-3UBaHpb2N_-TwHFREodUTCnjutgVURDBXZRY_pHuRAJKevctV9Z7QJYPKuxWcQR_Xxd3r9qYnTI_b_8MZMIqbe5vkd4OiDRwznt4jPTucDkukykyios-jdqCryI-GGKUZ09DT1rn1Uhz996BDjaSvY9AEeey4YXp8g2lHYaLved89NbPRbtRugtJrIdpJTiht3RTRTHjrvWPMUZkdz9Xt9QjG1mF2WzMDKA9pEFAy6R1m5CcBUw4aMiKvu-1BKsZVRaTUAy0_clm00?></g></svg>