<?plantuml 1.2026.1?><svg xmlns="http://www.w3.org/2000/svg" xmlns:xlink="http://www.w3.org/1999/xlink" contentStyleType="text/css" data-diagram-type="STATE" height="825px" preserveAspectRatio="none" style="width:700px;height:825px;background:#FCFCFD;" version="1.1" viewBox="0 0 700 825" width="700px" zoomAndPan="magnify"><title>State Machine - sch/SchServiceConnector</title><defs/><g><rect fill="#FCFCFD" height="825" style="stroke:none;stroke-width:1;" width="700" x="0" y="0"/><g class="title" data-source-line="10"><text fill="#000000" font-family="Helvetica" font-size="14" font-weight="bold" lengthAdjust="spacing" textLength="280.0889" x="202.2513" y="20.7803">State Machine - sch/SchServiceConnector</text></g><g><rect fill="#F8FAFC" height="50" rx="8" ry="8" style="stroke:#0F172A;stroke-width:0.5;" width="181.041" x="148.83" y="137"/><line style="stroke:#0F172A;stroke-width:0.5;" x1="148.83" x2="329.871" y1="175" y2="175"/><text fill="#0F172A" font-family="Helvetica" font-size="14" lengthAdjust="spacing" textLength="74.71" x="158.83" y="152.7803">provisioning</text><text fill="#0F172A" font-family="Helvetica" font-size="14" lengthAdjust="spacing" textLength="161.041" x="158.83" y="166.7803">provider: PROVISIONING</text></g><g><rect fill="#F8FAFC" height="50" rx="8" ry="8" style="stroke:#0F172A;stroke-width:0.5;" width="128.9238" x="174.89" y="404"/><line style="stroke:#0F172A;stroke-width:0.5;" x1="174.89" x2="303.8138" y1="442" y2="442"/><text fill="#0F172A" font-family="Helvetica" font-size="14" lengthAdjust="spacing" textLength="36.5723" x="184.89" y="419.7803">active</text><text fill="#0F172A" font-family="Helvetica" font-size="14" lengthAdjust="spacing" textLength="108.9238" x="184.89" y="433.7803">provider: ACTIVE</text></g><g><rect fill="#F8FAFC" height="50" rx="8" ry="8" style="stroke:#0F172A;stroke-width:0.5;" width="150.6963" x="7" y="671"/><line style="stroke:#0F172A;stroke-width:0.5;" x1="7" x2="157.6963" y1="709" y2="709"/><text fill="#0F172A" font-family="Helvetica" font-size="14" lengthAdjust="spacing" textLength="53.7168" x="17" y="686.7803">updating</text><text fill="#0F172A" font-family="Helvetica" font-size="14" lengthAdjust="spacing" textLength="130.6963" x="17" y="700.7803">provider: UPDATING</text></g><g><rect fill="#F8FAFC" height="50" rx="8" ry="8" style="stroke:#0F172A;stroke-width:0.5;" width="148.3721" x="257.16" y="671"/><line style="stroke:#0F172A;stroke-width:0.5;" x1="257.16" x2="405.5321" y1="709" y2="709"/><text fill="#0F172A" font-family="Helvetica" font-size="14" lengthAdjust="spacing" textLength="69.2549" x="267.16" y="686.7803">terminating</text><text fill="#0F172A" font-family="Helvetica" font-size="14" lengthAdjust="spacing" textLength="128.3721" x="267.16" y="700.7803">provider: DELETING</text></g><ellipse cx="239.35" cy="51" fill="#222222" rx="10" ry="10" style="stroke:#222222;stroke-width:1;"/><ellipse cx="331.35" cy="808" fill="none" rx="11" ry="11" style="stroke:#222222;stroke-width:1;"/><ellipse cx="331.35" cy="808" fill="#222222" rx="6" ry="6" style="stroke:#222222;stroke-width:1;"/><g class="entity" data-qualified-name="GMN2" data-source-line="29" id="ent0003"><path d="M339.11,271 L339.11,425 L304.31,429 L339.11,433 L339.11,587 A8,8 0 0 0 347.11,595 L683.5914,595 A8,8 0 0 0 691.5914,587 L691.5914,273 L681.5914,263 L347.11,263 A8,8 0 0 0 339.11,271" fill="#FFF7D6" style="stroke:#B45309;stroke-width:0.5;"/><path d="M681.5914,263 L681.5914,269 A4,4 0 0 0 685.5914,273 L691.5914,273 L681.5914,263" fill="#FFF7D6" style="stroke:#B45309;stroke-width:0.5;"/><text fill="#334155" font-family="Helvetica" font-size="14" lengthAdjust="spacing" textLength="101.165" x="345.11" y="278.7803">shared diagram:</text><text fill="#334155" font-family="Helvetica" font-size="14" lengthAdjust="spacing" textLength="331.4814" x="345.11" y="292.7803">shared/diagrams/shared-controller-state-machine.svg</text><text fill="#334155" font-family="Helvetica" font-size="14" lengthAdjust="spacing" textLength="304.2744" x="345.11" y="306.7803">Start from the shared controller phase model and</text><text fill="#334155" font-family="Helvetica" font-size="14" lengthAdjust="spacing" textLength="261.4678" x="345.11" y="320.7803">specialize imported provider states, delete</text><text fill="#334155" font-family="Helvetica" font-size="14" lengthAdjust="spacing" textLength="184.4336" x="345.11" y="334.7803">targets, and failure exits here.</text><text fill="#334155" font-family="Helvetica" font-size="14" lengthAdjust="spacing" textLength="281.709" x="345.11" y="348.7803">archetype batch: Generated service-manager</text><text fill="#334155" font-family="Helvetica" font-size="14" lengthAdjust="spacing" textLength="287.9229" x="345.11" y="362.7803">controllers map provider states into the shared</text><text fill="#334155" font-family="Helvetica" font-size="14" lengthAdjust="spacing" textLength="261.4609" x="345.11" y="376.7803">controller phases with explicit finalizer and</text><text fill="#334155" font-family="Helvetica" font-size="14" lengthAdjust="spacing" textLength="105.8477" x="345.11" y="390.7803">requeue policies.</text><text fill="#334155" font-family="Helvetica" font-size="14" lengthAdjust="spacing" textLength="73.9102" x="345.11" y="404.7803">service: sch</text><text fill="#334155" font-family="Helvetica" font-size="14" lengthAdjust="spacing" textLength="161.0752" x="345.11" y="418.7803">slug: schserviceconnector</text><text fill="#334155" font-family="Helvetica" font-size="14" lengthAdjust="spacing" textLength="168.8613" x="345.11" y="432.7803">kind: SchServiceConnector</text><text fill="#334155" font-family="Helvetica" font-size="14" lengthAdjust="spacing" textLength="241.2402" x="345.11" y="446.7803">archetype: generated-service-manager</text><text fill="#334155" font-family="Helvetica" font-size="14" lengthAdjust="spacing" textLength="156.4063" x="345.11" y="460.7803">status/finalizer: required /</text><text fill="#334155" font-family="Helvetica" font-size="14" lengthAdjust="spacing" textLength="174.3027" x="345.11" y="474.7803">retain-until-confirmed-delete</text><text fill="#334155" font-family="Helvetica" font-size="14" lengthAdjust="spacing" textLength="272.3984" x="345.11" y="488.7803">requeue: provisioning, updating, terminating</text><text fill="#334155" font-family="Helvetica" font-size="14" lengthAdjust="spacing" textLength="295.6816" x="345.11" y="502.7803">provider states: create PROVISIONING; update</text><text fill="#334155" font-family="Helvetica" font-size="14" lengthAdjust="spacing" textLength="192.165" x="345.11" y="516.7803">UPDATING; delete DELETING</text><text fill="#334155" font-family="Helvetica" font-size="14" lengthAdjust="spacing" textLength="319.04" x="345.11" y="530.7803">mutable/forceNew: display_name / compartment_id</text><text fill="#334155" font-family="Helvetica" font-size="14" lengthAdjust="spacing" textLength="104.3164" x="345.11" y="544.7803">open gaps: none</text><text fill="#334155" font-family="Helvetica" font-size="14" lengthAdjust="spacing" textLength="224.9023" x="345.11" y="558.7803">Scaffold metadata only; replace with</text><text fill="#334155" font-family="Helvetica" font-size="14" lengthAdjust="spacing" textLength="244.3232" x="345.11" y="572.7803">controller-specific runtime states before</text><text fill="#334155" font-family="Helvetica" font-size="14" lengthAdjust="spacing" textLength="66.1445" x="345.11" y="586.7803">promotion.</text></g><!--link *start* to provisioning--><g class="link" data-entity-1="ent0002" data-entity-2="ent0002" data-link-type="dependency" data-source-line="22" id="lnk3"><path d="M239.35,61.29 C239.35,77.87 239.35,107.03 239.35,130.85" fill="none" id="*start*-to-provisioning" style="stroke:#0F172A;stroke-width:1;"/><polygon fill="#0F172A" points="239.35,136.85,243.35,127.85,239.35,131.85,235.35,127.85,239.35,136.85" style="stroke:#0F172A;stroke-width:1;"/><text fill="#000000" font-family="Helvetica" font-size="14" lengthAdjust="spacing" textLength="177.4199" x="240.35" y="102.7803">CreateSchServiceConnector</text></g><!--link provisioning to active--><g class="link" data-entity-1="ent0002" data-entity-2="ent0003" data-link-type="dependency" data-source-line="23" id="lnk4"><path d="M239.35,187.46 C239.35,237.94 239.35,347.17 239.35,397.6" fill="none" id="provisioning-to-active" style="stroke:#0F172A;stroke-width:1;"/><polygon fill="#0F172A" points="239.35,403.6,243.35,394.6,239.35,398.6,235.35,394.6,239.35,403.6" style="stroke:#0F172A;stroke-width:1;"/><text fill="#000000" font-family="Helvetica" font-size="14" lengthAdjust="spacing" textLength="50.5654" x="240.35" y="228.7803">ACTIVE</text></g><!--link active to updating--><g class="link" data-entity-1="ent0003" data-entity-2="ent0004" data-link-type="dependency" data-source-line="24" id="lnk5"><path d="M192.11,454.45 C137.58,485.65 50.74,545.3 14.35,625 C6.25,642.72 14.315,655.1108 30.975,667.2808" fill="none" id="active-to-updating" style="stroke:#0F172A;stroke-width:1;"/><polygon fill="#0F172A" points="35.82,670.82,30.912,662.2812,31.7825,667.8706,26.193,668.7412,35.82,670.82" style="stroke:#0F172A;stroke-width:1;"/><text fill="#000000" font-family="Helvetica" font-size="14" lengthAdjust="spacing" textLength="180.5439" x="15.35" y="636.7803">UpdateSchServiceConnector</text></g><!--link updating to active--><g class="link" data-entity-1="ent0004" data-entity-2="ent0003" data-link-type="dependency" data-source-line="25" id="lnk6"><path d="M158.18,673.23 C174.17,665.42 189.47,654.95 200.35,641 C243.64,585.47 244.6302,502.9186 242.0002,460.3686" fill="none" id="updating-to-active" style="stroke:#0F172A;stroke-width:1;"/><polygon fill="#0F172A" points="241.63,454.38,238.1928,463.6096,241.9385,459.3705,246.1776,463.1161,241.63,454.38" style="stroke:#0F172A;stroke-width:1;"/><text fill="#000000" font-family="Helvetica" font-size="14" lengthAdjust="spacing" textLength="50.5654" x="211.08" y="636.7803">ACTIVE</text></g><!--link active to terminating--><g class="link" data-entity-1="ent0003" data-entity-2="ent0005" data-link-type="dependency" data-source-line="26" id="lnk7"><path d="M247.84,454.46 C265.36,504.94 303.402,614.5019 320.912,664.9319" fill="none" id="active-to-terminating" style="stroke:#0F172A;stroke-width:1;"/><polygon fill="#0F172A" points="322.88,670.6,323.7067,660.7859,321.24,665.8766,316.1493,663.4099,322.88,670.6" style="stroke:#0F172A;stroke-width:1;"/><text fill="#000000" font-family="Helvetica" font-size="14" lengthAdjust="spacing" textLength="175.8682" x="312.48" y="636.7803">DeleteSchServiceConnector</text></g><!--link terminating to *end*--><g class="link" data-entity-1="ent0005" data-entity-2="ent0008" data-link-type="dependency" data-source-line="27" id="lnk9"><path d="M331.35,721.41 C331.35,744.96 331.35,773.47 331.35,790.58" fill="none" id="terminating-to-*end*" style="stroke:#0F172A;stroke-width:1;"/><polygon fill="#0F172A" points="331.35,796.58,335.35,787.58,331.35,791.58,327.35,787.58,331.35,796.58" style="stroke:#0F172A;stroke-width:1;"/><text fill="#000000" font-family="Helvetica" font-size="14" lengthAdjust="spacing" textLength="64.5723" x="332.35" y="762.7803">DELETED</text></g><?plantuml-src XLJRRXCn47ttLupW3JL9GzCBMmcf9A5KWhGYRLy0LOvtTjUgrrviRq91_3lZlNMJHaBxilRCd3bdBdQFKXVSyXnSncEpaJg5X2k7p7MM5HUFgJMbZgT66Gkl4q5VtFE8CU6byX-DzWkU8tn2jKOl1T_livI_4SQJdf5RQpOD-c4oFdtRZzJ6uuSN79BaD3xPzJ8sHjjuh2R7HuVlTZn2-iP-T3GP7n_tx1MyC5QZXV49yz8hXANd7k4B5vdK20Dm8XijHRP4kvO2fqPh5DxO7eoh8lums5EuiuGd8bZwH1l10CapkUwEq6nxEOud69_H9NQ8ZTzVLcTzLLYpbauQJOtyhgiJ9OhWvklr_TNowdfnjRXy1Tn1tx4DviBBDVR3BgQtL_VpAg0sjgvb4NE_a-FkPdPns-At3cs0HvjB_I9cDlyyxs9wFkpRcnym6BpVuWaHJ2qItBu6R3c6o9emj29OSmwcbXmPxyBlNi3EwJzWFTPadw72_NXzln0N53O5cCzO64wmCiqycAGhTiOjnX1Bdj9aHSrvr9pTg3uF1CsDDKgX7LJL7kJrk0xTEcNBC42GM9E3pn0QoESGA3Bk478JemAkQQqB59AhiACoBuprvDush1vkTq3R76GomaxHqva2wTsGghG8-4jw1nbQ739kHOR-gK1Q1Y-o22wHrei7J5SNYCXgdg9bpvGSvBpOpGbIUzEJm7ObEDX8dr7sGaaXIJ8LEwYmbIgBFqii4GeJhEY6hCaVXPLcJfLfzTVSYgvjjDTn1FiQsccB86rL3NPL1VAb6tLa8WXCPEZ1Y4XvBlMWr5wgqCL4sfmmck8sbAEj7JZeXlTWQrzsgXM1g3PbQ_7FwrXaxQQUDttirf3bfUShXQF4M84Bt4GqVAvG_Eb1XuTzH8EJqpFdSzJ-GSRC5AWXvGKbr4OZMmgU94R5a9CqoiN1QFLqJg89H63L8jQVrp1iYHHWGn4eGzFi5H833AfouqdvaD6RLxtW_m00?></g></svg>