<?plantuml 1.2026.1?><svg xmlns="http://www.w3.org/2000/svg" xmlns:xlink="http://www.w3.org/1999/xlink" contentStyleType="text/css" data-diagram-type="SEQUENCE" height="2048px" preserveAspectRatio="none" style="width:1238px;height:2048px;background:#FCFCFD;" version="1.1" viewBox="0 0 1238 2048" width="1238px" zoomAndPan="magnify"><title>Sequence - networkloadbalancer/NetworkLoadBalancerHealth</title><defs/><g><rect fill="#FCFCFD" height="2048" style="stroke:none;stroke-width:1;" width="1238" x="0" y="0"/><text fill="#000000" font-family="Helvetica" font-size="14" font-weight="bold" lengthAdjust="spacing" textLength="413.1162" x="418.9207" y="25.7803">Sequence - networkloadbalancer/NetworkLoadBalancerHealth</text><rect fill="none" height="290" rx="8" ry="8" style="stroke:#CBD5E1;stroke-width:1.5;" width="738.3779" x="477.2109" y="342"/><rect fill="none" height="146" rx="8" ry="8" style="stroke:#CBD5E1;stroke-width:1.5;" width="475.9575" x="729.6313" y="451"/><rect fill="none" height="44" rx="8" ry="8" style="stroke:#CBD5E1;stroke-width:1.5;" width="455.9575" x="739.6313" y="502"/><rect fill="none" height="840" rx="8" ry="8" style="stroke:#CBD5E1;stroke-width:1.5;" width="774.7466" x="457.2109" y="646"/><rect fill="none" height="274" rx="8" ry="8" style="stroke:#CBD5E1;stroke-width:1.5;" width="738.3779" x="467.2109" y="669"/><rect fill="none" height="58" rx="8" ry="8" style="stroke:#CBD5E1;stroke-width:1.5;" width="455.9575" x="739.6313" y="776"/><rect fill="none" height="88" rx="8" ry="8" style="stroke:#CBD5E1;stroke-width:1.5;" width="438.813" x="477.2109" y="848"/><rect fill="none" height="392" rx="8" ry="8" style="stroke:#CBD5E1;stroke-width:1.5;" width="754.7466" x="467.2109" y="1045"/><rect fill="none" height="44" rx="8" ry="8" style="stroke:#CBD5E1;stroke-width:1.5;" width="438.813" x="477.2109" y="1144"/><rect fill="none" height="130" rx="8" ry="8" style="stroke:#CBD5E1;stroke-width:1.5;" width="475.9575" x="729.6313" y="1202"/><rect fill="none" height="44" rx="8" ry="8" style="stroke:#CBD5E1;stroke-width:1.5;" width="455.9575" x="739.6313" y="1281"/><g class="participant-lifeline" data-entity-uid="part1" data-qualified-name="Kubernetes" id="part1-lifeline"><g><title>Kubernetes</title><rect fill="#000000" fill-opacity="0.00000" height="1927" width="8" x="39.8032" y="114"/><line style="stroke:#94A3B8;stroke-width:0.5;stroke-dasharray:5,5;" x1="43" x2="43" y1="114" y2="2041"/></g></g><g class="participant-lifeline" data-entity-uid="part2" data-qualified-name="Controller" id="part2-lifeline"><g><title>Controller</title><rect fill="#000000" fill-opacity="0.00000" height="1927" width="8" x="300.4087" y="114"/><line style="stroke:#94A3B8;stroke-width:0.5;stroke-dasharray:5,5;" x1="304.064" x2="304.064" y1="114" y2="2041"/></g></g><g class="participant-lifeline" data-entity-uid="part3" data-qualified-name="BaseReconciler" id="part3-lifeline"><g><title>BaseReconciler</title><rect fill="#000000" fill-opacity="0.00000" height="1927" width="8" x="539.2349" y="114"/><line style="stroke:#94A3B8;stroke-width:0.5;stroke-dasharray:5,5;" x1="543.2109" x2="543.2109" y1="114" y2="2041"/></g></g><g class="participant-lifeline" data-entity-uid="part4" data-qualified-name="ServiceManager" id="part4-lifeline"><g><title>OSOKServiceManager</title><rect fill="#000000" fill-opacity="0.00000" height="1927" width="8" x="823.8276" y="114"/><line style="stroke:#94A3B8;stroke-width:0.5;stroke-dasharray:5,5;" x1="827.6313" x2="827.6313" y1="114" y2="2041"/></g></g><g class="participant-lifeline" data-entity-uid="part5" data-qualified-name="OCI" id="part5-lifeline"><g><title>OCI</title><rect fill="#000000" fill-opacity="0.00000" height="1927" width="8" x="1162.144" y="114"/><line style="stroke:#94A3B8;stroke-width:0.5;stroke-dasharray:5,5;" x1="1165.6992" x2="1165.6992" y1="114" y2="2041"/></g></g><g class="participant participant-head" data-entity-uid="part1" data-qualified-name="Kubernetes" id="part1-head"><text fill="#000000" font-family="Helvetica" font-size="14" lengthAdjust="spacing" textLength="71.6064" x="5" y="110.7803">Kubernetes</text><ellipse cx="43.8032" cy="48.5" fill="#E2E8F0" rx="8" ry="8" style="stroke:#0F172A;stroke-width:0.5;"/><path d="M43.8032,56.5 L43.8032,83.5 M30.8032,64.5 L56.8032,64.5 M43.8032,83.5 L30.8032,98.5 M43.8032,83.5 L56.8032,98.5" fill="none" style="stroke:#0F172A;stroke-width:0.5;"/></g><g class="participant participant-head" data-entity-uid="part2" data-qualified-name="Controller" id="part2-head"><rect fill="#E2E8F0" height="28" rx="8" ry="8" style="stroke:#0F172A;stroke-width:0.5;" width="74.6895" x="267.064" y="85"/><text fill="#0F172A" font-family="Helvetica" font-size="14" lengthAdjust="spacing" textLength="60.6895" x="274.064" y="102.7803">Controller</text></g><g class="participant participant-head" data-entity-uid="part3" data-qualified-name="BaseReconciler" id="part3-head"><rect fill="#E2E8F0" height="28" rx="8" ry="8" style="stroke:#0F172A;stroke-width:0.5;" width="112.0479" x="487.2109" y="85"/><text fill="#0F172A" font-family="Helvetica" font-size="14" lengthAdjust="spacing" textLength="98.0479" x="494.2109" y="102.7803">BaseReconciler</text></g><g class="participant participant-head" data-entity-uid="part4" data-qualified-name="ServiceManager" id="part4-head"><rect fill="#E2E8F0" height="28" rx="8" ry="8" style="stroke:#0F172A;stroke-width:0.5;" width="156.3926" x="749.6313" y="85"/><text fill="#0F172A" font-family="Helvetica" font-size="14" lengthAdjust="spacing" textLength="142.3926" x="756.6313" y="102.7803">OSOKServiceManager</text></g><g class="participant participant-head" data-entity-uid="part5" data-qualified-name="OCI" id="part5-head"><rect fill="#E2E8F0" height="28" rx="8" ry="8" style="stroke:#0F172A;stroke-width:0.5;" width="38.8896" x="1146.6992" y="85"/><text fill="#0F172A" font-family="Helvetica" font-size="14" lengthAdjust="spacing" textLength="24.8896" x="1153.6992" y="102.7803">OCI</text></g><path d="M478,137 L478,187 A8,8 0 0 0 486,195 L883,195 A8,8 0 0 0 891,187 L891,139 L881,129 L486,129 A8,8 0 0 0 478,137" fill="#FFF7D6" style="stroke:#B45309;stroke-width:0.5;"/><path d="M881,129 L881,135 A4,4 0 0 0 885,139 L891,139 L881,129" fill="#FFF7D6" style="stroke:#B45309;stroke-width:0.5;"/><text fill="#334155" font-family="Helvetica" font-size="14" lengthAdjust="spacing" textLength="111.2891" x="526.7107" y="144.7803">shared resolution:</text><text fill="#334155" font-family="Helvetica" font-size="14" lengthAdjust="spacing" textLength="307.3916" x="526.7107" y="158.7803">shared/diagrams/shared-resolution-sequence.svg</text><text fill="#334155" font-family="Helvetica" font-size="14" lengthAdjust="spacing" textLength="88.7305" x="526.7107" y="172.7803">shared delete:</text><text fill="#334155" font-family="Helvetica" font-size="14" lengthAdjust="spacing" textLength="284.833" x="526.7107" y="186.7803">shared/diagrams/shared-delete-sequence.svg</text><g class="message" data-entity-1="part1" data-entity-2="part2" id="msg1"><polygon fill="#0F172A" points="292.4087,230,302.4087,234,292.4087,238,296.4087,234" style="stroke:#0F172A;stroke-width:1;"/><line style="stroke:#0F172A;stroke-width:1;" x1="43.8032" x2="298.4087" y1="234" y2="234"/><text fill="#000000" font-family="Helvetica" font-size="14" lengthAdjust="spacing" textLength="236.6055" x="50.8032" y="214.7803">enqueue NetworkLoadBalancerHealth</text><text fill="#000000" font-family="Helvetica" font-size="14" lengthAdjust="spacing" textLength="56.0273" x="50.8032" y="228.7803">reconcile</text></g><g class="message" data-entity-1="part2" data-entity-2="part3" id="msg2"><polygon fill="#0F172A" points="531.2349,258,541.2349,262,531.2349,266,535.2349,262" style="stroke:#0F172A;stroke-width:1;"/><line style="stroke:#0F172A;stroke-width:1;" x1="304.4087" x2="537.2349" y1="262" y2="262"/><text fill="#000000" font-family="Helvetica" font-size="14" lengthAdjust="spacing" textLength="117.4961" x="311.4087" y="256.7803">Reconcile(request)</text></g><g class="message" data-entity-1="part3" data-entity-2="part4" id="msg3"><polygon fill="#0F172A" points="815.8276,300,825.8276,304,815.8276,308,819.8276,304" style="stroke:#0F172A;stroke-width:1;"/><line style="stroke:#0F172A;stroke-width:1;" x1="543.2349" x2="821.8276" y1="304" y2="304"/><text fill="#000000" font-family="Helvetica" font-size="14" lengthAdjust="spacing" textLength="105.834" x="550.2349" y="284.7803">reconcile desired</text><text fill="#000000" font-family="Helvetica" font-size="14" lengthAdjust="spacing" textLength="178.2129" x="550.2349" y="298.7803">NetworkLoadBalancerHealth</text></g><path d="M485.2109,342 L538.5488,342 L538.5488,348 L528.5488,358 L477.2109,358 L477.2109,350 A8,8 0 0 1 485.2109,342" fill="#F8FAFC" style="stroke:#CBD5E1;stroke-width:1.5;"/><rect fill="none" height="290" rx="8" ry="8" style="stroke:#CBD5E1;stroke-width:1.5;" width="738.3779" x="477.2109" y="342"/><text fill="#000000" font-family="Helvetica" font-size="14" font-weight="bold" lengthAdjust="spacing" textLength="16.3379" x="492.2109" y="353.7803">alt</text><text fill="#000000" font-family="Helvetica" font-size="14" font-weight="bold" lengthAdjust="spacing" textLength="308.1094" x="553.5488" y="354.7803">[tracked or explicit OCI identity already exists]</text><g class="message" data-entity-1="part4" data-entity-2="part5" id="msg4"><polygon fill="#0F172A" points="1154.144,374,1164.144,378,1154.144,382,1158.144,378" style="stroke:#0F172A;stroke-width:1;"/><line style="stroke:#0F172A;stroke-width:1;" x1="827.8276" x2="1160.144" y1="378" y2="378"/><text fill="#000000" font-family="Helvetica" font-size="14" lengthAdjust="spacing" textLength="200.7783" x="834.8276" y="372.7803">GetNetworkLoadBalancerHealth</text></g><line style="stroke:#CBD5E1;stroke-width:1;stroke-dasharray:2,2;" x1="477.2109" x2="1215.5889" y1="387" y2="387"/><text fill="#000000" font-family="Helvetica" font-size="14" font-weight="bold" lengthAdjust="spacing" textLength="185.1582" x="482.2109" y="397.7803">[tracked identity is missing]</text><g class="message" data-entity-1="part4" data-entity-2="part5" id="msg5"><polygon fill="#0F172A" points="1154.144,432,1164.144,436,1154.144,440,1158.144,436" style="stroke:#0F172A;stroke-width:1;"/><line style="stroke:#0F172A;stroke-width:1;" x1="827.8276" x2="1160.144" y1="436" y2="436"/><text fill="#000000" font-family="Helvetica" font-size="14" lengthAdjust="spacing" textLength="241.999" x="834.8276" y="416.7803">ListNetworkLoadBalancerHealth(filters:</text><text fill="#000000" font-family="Helvetica" font-size="14" lengthAdjust="spacing" textLength="143.1719" x="834.8276" y="430.7803">compartment_id, state)</text></g><path d="M737.6313,451 L790.9692,451 L790.9692,457 L780.9692,467 L729.6313,467 L729.6313,459 A8,8 0 0 1 737.6313,451" fill="#F8FAFC" style="stroke:#CBD5E1;stroke-width:1.5;"/><rect fill="none" height="146" rx="8" ry="8" style="stroke:#CBD5E1;stroke-width:1.5;" width="475.9575" x="729.6313" y="451"/><text fill="#000000" font-family="Helvetica" font-size="14" font-weight="bold" lengthAdjust="spacing" textLength="16.3379" x="744.6313" y="462.7803">alt</text><text fill="#000000" font-family="Helvetica" font-size="14" font-weight="bold" lengthAdjust="spacing" textLength="242.7031" x="805.9692" y="463.7803">[reusable OCI resource is not found]</text><g class="message" data-entity-1="part4" data-entity-2="part5" id="msg6"><polygon fill="#0F172A" points="1154.144,483,1164.144,487,1154.144,491,1158.144,487" style="stroke:#0F172A;stroke-width:1;"/><line style="stroke:#0F172A;stroke-width:1;" x1="827.8276" x2="1160.144" y1="487" y2="487"/><text fill="#000000" font-family="Helvetica" font-size="14" lengthAdjust="spacing" textLength="220.2334" x="834.8276" y="481.7803">CreateNetworkLoadBalancerHealth</text></g><path d="M747.6313,502 L814.1763,502 L814.1763,508 L804.1763,518 L739.6313,518 L739.6313,510 A8,8 0 0 1 747.6313,502" fill="#F8FAFC" style="stroke:#CBD5E1;stroke-width:1.5;"/><rect fill="none" height="44" rx="8" ry="8" style="stroke:#CBD5E1;stroke-width:1.5;" width="455.9575" x="739.6313" y="502"/><text fill="#000000" font-family="Helvetica" font-size="14" font-weight="bold" lengthAdjust="spacing" textLength="29.5449" x="754.6313" y="513.7803">loop</text><text fill="#000000" font-family="Helvetica" font-size="14" font-weight="bold" lengthAdjust="spacing" textLength="215.4756" x="829.1763" y="514.7803">[create pending PROVISIONING]</text><g class="message" data-entity-1="part4" data-entity-2="part5" id="msg7"><polygon fill="#0F172A" points="1154.144,534,1164.144,538,1154.144,542,1158.144,538" style="stroke:#0F172A;stroke-width:1;"/><line style="stroke:#0F172A;stroke-width:1;" x1="827.8276" x2="1160.144" y1="538" y2="538"/><text fill="#000000" font-family="Helvetica" font-size="14" lengthAdjust="spacing" textLength="200.7783" x="834.8276" y="532.7803">GetNetworkLoadBalancerHealth</text></g><line style="stroke:#CBD5E1;stroke-width:1;stroke-dasharray:2,2;" x1="729.6313" x2="1205.5889" y1="554" y2="554"/><text fill="#000000" font-family="Helvetica" font-size="14" font-weight="bold" lengthAdjust="spacing" textLength="255.2334" x="734.6313" y="564.7803">[reusable OCI resource already exists]</text><g class="message" data-entity-1="part4" data-entity-2="part5" id="msg8"><polygon fill="#0F172A" points="1154.144,585,1164.144,589,1154.144,593,1158.144,589" style="stroke:#0F172A;stroke-width:1;"/><line style="stroke:#0F172A;stroke-width:1;" x1="827.8276" x2="1160.144" y1="589" y2="589"/><text fill="#000000" font-family="Helvetica" font-size="14" lengthAdjust="spacing" textLength="200.7783" x="834.8276" y="583.7803">GetNetworkLoadBalancerHealth</text></g><g class="message" data-entity-1="part4" data-entity-2="part3" id="msg9"><polygon fill="#0F172A" points="554.2349,620,544.2349,624,554.2349,628,550.2349,624" style="stroke:#0F172A;stroke-width:1;"/><line style="stroke:#0F172A;stroke-width:1;stroke-dasharray:2,2;" x1="548.2349" x2="826.8276" y1="624" y2="624"/><text fill="#000000" font-family="Helvetica" font-size="14" lengthAdjust="spacing" textLength="231.0957" x="560.2349" y="618.7803">persist resolved OCI identity in status</text></g><path d="M465.2109,646 L518.5488,646 L518.5488,652 L508.5488,662 L457.2109,662 L457.2109,654 A8,8 0 0 1 465.2109,646" fill="#F8FAFC" style="stroke:#CBD5E1;stroke-width:1.5;"/><rect fill="none" height="840" rx="8" ry="8" style="stroke:#CBD5E1;stroke-width:1.5;" width="774.7466" x="457.2109" y="646"/><text fill="#000000" font-family="Helvetica" font-size="14" font-weight="bold" lengthAdjust="spacing" textLength="16.3379" x="472.2109" y="657.7803">alt</text><text fill="#000000" font-family="Helvetica" font-size="14" font-weight="bold" lengthAdjust="spacing" textLength="120.5859" x="533.5488" y="658.7803">[delete requested]</text><path d="M475.2109,669 L554.2314,669 L554.2314,675 L544.2314,685 L467.2109,685 L467.2109,677 A8,8 0 0 1 475.2109,669" fill="#F8FAFC" style="stroke:#CBD5E1;stroke-width:1.5;"/><rect fill="none" height="274" rx="8" ry="8" style="stroke:#CBD5E1;stroke-width:1.5;" width="738.3779" x="467.2109" y="669"/><text fill="#000000" font-family="Helvetica" font-size="14" font-weight="bold" lengthAdjust="spacing" textLength="42.0205" x="482.2109" y="680.7803">Delete</text><g class="message" data-entity-1="part4" data-entity-2="part5" id="msg10"><polygon fill="#0F172A" points="1154.144,701,1164.144,705,1154.144,709,1158.144,705" style="stroke:#0F172A;stroke-width:1;"/><line style="stroke:#0F172A;stroke-width:1;" x1="827.8276" x2="1160.144" y1="705" y2="705"/><text fill="#000000" font-family="Helvetica" font-size="14" lengthAdjust="spacing" textLength="218.6816" x="834.8276" y="699.7803">DeleteNetworkLoadBalancerHealth</text></g><g class="message" data-entity-1="part4" data-entity-2="part5" id="msg11"><polygon fill="#0F172A" points="1154.144,757,1164.144,761,1154.144,765,1158.144,761" style="stroke:#0F172A;stroke-width:1;"/><line style="stroke:#0F172A;stroke-width:1;" x1="827.8276" x2="1160.144" y1="761" y2="761"/><text fill="#000000" font-family="Helvetica" font-size="14" lengthAdjust="spacing" textLength="109.7168" x="834.8276" y="727.7803">confirm delete via</text><text fill="#000000" font-family="Helvetica" font-size="14" lengthAdjust="spacing" textLength="217.1162" x="834.8276" y="741.7803">GetNetworkLoadBalancerHealth or</text><text fill="#000000" font-family="Helvetica" font-size="14" lengthAdjust="spacing" textLength="199.999" x="834.8276" y="755.7803">ListNetworkLoadBalancerHealth</text></g><path d="M747.6313,776 L814.1763,776 L814.1763,782 L804.1763,792 L739.6313,792 L739.6313,784 A8,8 0 0 1 747.6313,776" fill="#F8FAFC" style="stroke:#CBD5E1;stroke-width:1.5;"/><rect fill="none" height="58" rx="8" ry="8" style="stroke:#CBD5E1;stroke-width:1.5;" width="455.9575" x="739.6313" y="776"/><text fill="#000000" font-family="Helvetica" font-size="14" font-weight="bold" lengthAdjust="spacing" textLength="29.5449" x="754.6313" y="787.7803">loop</text><text fill="#000000" font-family="Helvetica" font-size="14" font-weight="bold" lengthAdjust="spacing" textLength="182.7793" x="829.1763" y="788.7803">[delete pending DELETING]</text><g class="message" data-entity-1="part4" data-entity-2="part5" id="msg12"><polygon fill="#0F172A" points="1154.144,822,1164.144,826,1154.144,830,1158.144,826" style="stroke:#0F172A;stroke-width:1;"/><line style="stroke:#0F172A;stroke-width:1;" x1="827.8276" x2="1160.144" y1="826" y2="826"/><text fill="#000000" font-family="Helvetica" font-size="14" lengthAdjust="spacing" textLength="217.1162" x="834.8276" y="806.7803">GetNetworkLoadBalancerHealth or</text><text fill="#000000" font-family="Helvetica" font-size="14" lengthAdjust="spacing" textLength="199.999" x="834.8276" y="820.7803">ListNetworkLoadBalancerHealth</text></g><path d="M485.2109,848 L538.5488,848 L538.5488,854 L528.5488,864 L477.2109,864 L477.2109,856 A8,8 0 0 1 485.2109,848" fill="#F8FAFC" style="stroke:#CBD5E1;stroke-width:1.5;"/><rect fill="none" height="88" rx="8" ry="8" style="stroke:#CBD5E1;stroke-width:1.5;" width="438.813" x="477.2109" y="848"/><text fill="#000000" font-family="Helvetica" font-size="14" font-weight="bold" lengthAdjust="spacing" textLength="16.3379" x="492.2109" y="859.7803">alt</text><text fill="#000000" font-family="Helvetica" font-size="14" font-weight="bold" lengthAdjust="spacing" textLength="261.4268" x="553.5488" y="860.7803">[cleanup or finalizer release is blocked]</text><g class="message" data-entity-1="part4" data-entity-2="part3" id="msg13"><polygon fill="#0F172A" points="554.2349,880,544.2349,884,554.2349,888,550.2349,884" style="stroke:#0F172A;stroke-width:1;"/><line style="stroke:#0F172A;stroke-width:1;stroke-dasharray:2,2;" x1="548.2349" x2="826.8276" y1="884" y2="884"/><text fill="#000000" font-family="Helvetica" font-size="14" lengthAdjust="spacing" textLength="170.4336" x="560.2349" y="878.7803">retain delete state and retry</text></g><line style="stroke:#CBD5E1;stroke-width:1;stroke-dasharray:2,2;" x1="477.2109" x2="916.0239" y1="893" y2="893"/><text fill="#000000" font-family="Helvetica" font-size="14" font-weight="bold" lengthAdjust="spacing" textLength="194.4824" x="482.2109" y="903.7803">[delete completion observed]</text><g class="message" data-entity-1="part4" data-entity-2="part3" id="msg14"><polygon fill="#0F172A" points="554.2349,924,544.2349,928,554.2349,932,550.2349,928" style="stroke:#0F172A;stroke-width:1;"/><line style="stroke:#0F172A;stroke-width:1;stroke-dasharray:2,2;" x1="548.2349" x2="826.8276" y1="928" y2="928"/><text fill="#000000" font-family="Helvetica" font-size="14" lengthAdjust="spacing" textLength="243.5781" x="560.2349" y="922.7803">release finalizer after delete completion</text></g><line style="stroke:#CBD5E1;stroke-width:1;stroke-dasharray:2,2;" x1="457.2109" x2="1231.9575" y1="951" y2="951"/><text fill="#000000" font-family="Helvetica" font-size="14" font-weight="bold" lengthAdjust="spacing" textLength="149.3857" x="462.2109" y="961.7803">[OCI state is retryable]</text><g class="message" data-entity-1="part4" data-entity-2="part3" id="msg15"><polygon fill="#0F172A" points="554.2349,996,544.2349,1000,554.2349,1004,550.2349,1000" style="stroke:#0F172A;stroke-width:1;"/><line style="stroke:#0F172A;stroke-width:1;stroke-dasharray:2,2;" x1="548.2349" x2="826.8276" y1="1000" y2="1000"/><text fill="#000000" font-family="Helvetica" font-size="14" lengthAdjust="spacing" textLength="184.4199" x="560.2349" y="980.7803">requeue while OCI remains in</text><text fill="#000000" font-family="Helvetica" font-size="14" lengthAdjust="spacing" textLength="260.5928" x="560.2349" y="994.7803">PROVISIONING, UPDATING, DELETING</text></g><line style="stroke:#CBD5E1;stroke-width:1;stroke-dasharray:2,2;" x1="457.2109" x2="1231.9575" y1="1009" y2="1009"/><text fill="#000000" font-family="Helvetica" font-size="14" font-weight="bold" lengthAdjust="spacing" textLength="200.751" x="462.2109" y="1019.7803">[live state requires field-aware</text><text fill="#000000" font-family="Helvetica" font-size="14" font-weight="bold" lengthAdjust="spacing" textLength="105.0068" x="462.2109" y="1033.7803">drift evaluation]</text><path d="M475.2109,1045 L603.1973,1045 L603.1973,1051 L593.1973,1061 L467.2109,1061 L467.2109,1053 A8,8 0 0 1 475.2109,1045" fill="#F8FAFC" style="stroke:#CBD5E1;stroke-width:1.5;"/><rect fill="none" height="392" rx="8" ry="8" style="stroke:#CBD5E1;stroke-width:1.5;" width="754.7466" x="467.2109" y="1045"/><text fill="#000000" font-family="Helvetica" font-size="14" font-weight="bold" lengthAdjust="spacing" textLength="90.9863" x="482.2109" y="1056.7803">Drift handling</text><path d="M781,1074 L781,1124 A8,8 0 0 0 789,1132 L1203,1132 A8,8 0 0 0 1211,1124 L1211,1076 L1201,1066 L789,1066 A8,8 0 0 0 781,1074" fill="#FFF7D6" style="stroke:#B45309;stroke-width:0.5;"/><path d="M1201,1066 L1201,1072 A4,4 0 0 0 1205,1076 L1211,1076 L1201,1066" fill="#FFF7D6" style="stroke:#B45309;stroke-width:0.5;"/><text fill="#334155" font-family="Helvetica" font-size="14" lengthAdjust="spacing" textLength="255.2813" x="864.3381" y="1081.7803">Supported update surface: display_name</text><text fill="#334155" font-family="Helvetica" font-size="14" lengthAdjust="spacing" textLength="235.7783" x="864.3381" y="1095.7803">Reject before mutate: force-new fields</text><text fill="#334155" font-family="Helvetica" font-size="14" lengthAdjust="spacing" textLength="100.3789" x="864.3381" y="1109.7803">compartment_id</text><text fill="#334155" font-family="Helvetica" font-size="14" lengthAdjust="spacing" textLength="229.5576" x="864.3381" y="1123.7803">Lookup filters: compartment_id, state</text><path d="M485.2109,1144 L543.9766,1144 L543.9766,1150 L533.9766,1160 L477.2109,1160 L477.2109,1152 A8,8 0 0 1 485.2109,1144" fill="#F8FAFC" style="stroke:#CBD5E1;stroke-width:1.5;"/><rect fill="none" height="44" rx="8" ry="8" style="stroke:#CBD5E1;stroke-width:1.5;" width="438.813" x="477.2109" y="1144"/><text fill="#000000" font-family="Helvetica" font-size="14" font-weight="bold" lengthAdjust="spacing" textLength="21.7656" x="492.2109" y="1155.7803">opt</text><text fill="#000000" font-family="Helvetica" font-size="14" font-weight="bold" lengthAdjust="spacing" textLength="276.1309" x="558.9766" y="1156.7803">[force-new or conflicting drift is detected]</text><g class="message" data-entity-1="part4" data-entity-2="part3" id="msg16"><polygon fill="#0F172A" points="554.2349,1176,544.2349,1180,554.2349,1184,550.2349,1180" style="stroke:#0F172A;stroke-width:1;"/><line style="stroke:#0F172A;stroke-width:1;stroke-dasharray:2,2;" x1="548.2349" x2="826.8276" y1="1180" y2="1180"/><text fill="#000000" font-family="Helvetica" font-size="14" lengthAdjust="spacing" textLength="164.1855" x="560.2349" y="1174.7803">reject before OCI mutation</text></g><path d="M737.6313,1202 L796.397,1202 L796.397,1208 L786.397,1218 L729.6313,1218 L729.6313,1210 A8,8 0 0 1 737.6313,1202" fill="#F8FAFC" style="stroke:#CBD5E1;stroke-width:1.5;"/><rect fill="none" height="130" rx="8" ry="8" style="stroke:#CBD5E1;stroke-width:1.5;" width="475.9575" x="729.6313" y="1202"/><text fill="#000000" font-family="Helvetica" font-size="14" font-weight="bold" lengthAdjust="spacing" textLength="21.7656" x="744.6313" y="1213.7803">opt</text><text fill="#000000" font-family="Helvetica" font-size="14" font-weight="bold" lengthAdjust="spacing" textLength="243.4619" x="811.397" y="1214.7803">[supported mutable drift is detected]</text><g class="message" data-entity-1="part4" data-entity-2="part5" id="msg17"><polygon fill="#0F172A" points="1154.144,1262,1164.144,1266,1154.144,1270,1158.144,1266" style="stroke:#0F172A;stroke-width:1;"/><line style="stroke:#0F172A;stroke-width:1;" x1="827.8276" x2="1160.144" y1="1266" y2="1266"/><text fill="#000000" font-family="Helvetica" font-size="14" lengthAdjust="spacing" textLength="35.0205" x="834.8276" y="1232.7803">Apply</text><text fill="#000000" font-family="Helvetica" font-size="14" lengthAdjust="spacing" textLength="252.9297" x="834.8276" y="1246.7803">UpdateNetworkLoadBalancerHealth only</text><text fill="#000000" font-family="Helvetica" font-size="14" lengthAdjust="spacing" textLength="196.8818" x="834.8276" y="1260.7803">for mutable fields display_name</text></g><path d="M747.6313,1281 L814.1763,1281 L814.1763,1287 L804.1763,1297 L739.6313,1297 L739.6313,1289 A8,8 0 0 1 747.6313,1281" fill="#F8FAFC" style="stroke:#CBD5E1;stroke-width:1.5;"/><rect fill="none" height="44" rx="8" ry="8" style="stroke:#CBD5E1;stroke-width:1.5;" width="455.9575" x="739.6313" y="1281"/><text fill="#000000" font-family="Helvetica" font-size="14" font-weight="bold" lengthAdjust="spacing" textLength="29.5449" x="754.6313" y="1292.7803">loop</text><text fill="#000000" font-family="Helvetica" font-size="14" font-weight="bold" lengthAdjust="spacing" textLength="190.5381" x="829.1763" y="1293.7803">[update pending UPDATING]</text><g class="message" data-entity-1="part4" data-entity-2="part5" id="msg18"><polygon fill="#0F172A" points="1154.144,1313,1164.144,1317,1154.144,1321,1158.144,1317" style="stroke:#0F172A;stroke-width:1;"/><line style="stroke:#0F172A;stroke-width:1;" x1="827.8276" x2="1160.144" y1="1317" y2="1317"/><text fill="#000000" font-family="Helvetica" font-size="14" lengthAdjust="spacing" textLength="200.7783" x="834.8276" y="1311.7803">GetNetworkLoadBalancerHealth</text></g><g class="message" data-entity-1="part4" data-entity-2="part5" id="msg19"><polygon fill="#0F172A" points="1154.144,1425,1164.144,1429,1154.144,1433,1158.144,1429" style="stroke:#0F172A;stroke-width:1;"/><line style="stroke:#0F172A;stroke-width:1;" x1="827.8276" x2="1160.144" y1="1429" y2="1429"/><text fill="#000000" font-family="Helvetica" font-size="14" lengthAdjust="spacing" textLength="104.2891" x="834.8276" y="1353.7803">run helper hooks</text><text fill="#000000" font-family="Helvetica" font-size="14" lengthAdjust="spacing" textLength="219.0508" x="834.8276" y="1367.7803">create=tfresource.CreateResource,</text><text fill="#000000" font-family="Helvetica" font-size="14" lengthAdjust="spacing" textLength="314.3164" x="834.8276" y="1381.7803">tfresource.WaitForWorkRequestWithErrorHandling</text><text fill="#000000" font-family="Helvetica" font-size="14" lengthAdjust="spacing" textLength="215.5439" x="834.8276" y="1395.7803">entity=template action=CREATED;</text><text fill="#000000" font-family="Helvetica" font-size="14" lengthAdjust="spacing" textLength="226.085" x="834.8276" y="1409.7803">update=tfresource.UpdateResource;</text><text fill="#000000" font-family="Helvetica" font-size="14" lengthAdjust="spacing" textLength="212.8438" x="834.8276" y="1423.7803">delete=tfresource.DeleteResource</text></g><g class="message" data-entity-1="part4" data-entity-2="part3" id="msg20"><polygon fill="#0F172A" points="554.2349,1474,544.2349,1478,554.2349,1482,550.2349,1478" style="stroke:#0F172A;stroke-width:1;"/><line style="stroke:#0F172A;stroke-width:1;stroke-dasharray:2,2;" x1="548.2349" x2="826.8276" y1="1478" y2="1478"/><text fill="#000000" font-family="Helvetica" font-size="14" lengthAdjust="spacing" textLength="100.7822" x="560.2349" y="1458.7803">status=required,</text><text fill="#000000" font-family="Helvetica" font-size="14" lengthAdjust="spacing" textLength="230.7197" x="560.2349" y="1472.7803">finalizer=retain-until-confirmed-delete</text></g><g class="message" data-entity-1="part3" data-entity-2="part2" id="msg21"><polygon fill="#0F172A" points="315.4087,1523,305.4087,1527,315.4087,1531,311.4087,1527" style="stroke:#0F172A;stroke-width:1;"/><line style="stroke:#0F172A;stroke-width:1;stroke-dasharray:2,2;" x1="309.4087" x2="542.2349" y1="1527" y2="1527"/><text fill="#000000" font-family="Helvetica" font-size="14" lengthAdjust="spacing" textLength="214.8262" x="321.4087" y="1507.7803">requeue on provisioning, updating,</text><text fill="#000000" font-family="Helvetica" font-size="14" lengthAdjust="spacing" textLength="69.2549" x="321.4087" y="1521.7803">terminating</text></g><path d="M832,1548 L832,2018 A8,8 0 0 0 840,2026 L1205,2026 A8,8 0 0 0 1213,2018 L1213,1550 L1203,1540 L840,1540 A8,8 0 0 0 832,1548" fill="#FFF7D6" style="stroke:#B45309;stroke-width:0.5;"/><path d="M1203,1540 L1203,1546 A4,4 0 0 0 1207,1550 L1213,1550 L1203,1540" fill="#FFF7D6" style="stroke:#B45309;stroke-width:0.5;"/><text fill="#334155" font-family="Helvetica" font-size="14" lengthAdjust="spacing" textLength="101.165" x="838" y="1555.7803">shared diagram:</text><text fill="#334155" font-family="Helvetica" font-size="14" lengthAdjust="spacing" textLength="307.3916" x="838" y="1569.7803">shared/diagrams/shared-resolution-sequence.svg</text><text fill="#334155" font-family="Helvetica" font-size="14" lengthAdjust="spacing" textLength="143.1992" x="838" y="1583.7803">shared delete diagram:</text><text fill="#334155" font-family="Helvetica" font-size="14" lengthAdjust="spacing" textLength="284.833" x="838" y="1597.7803">shared/diagrams/shared-delete-sequence.svg</text><text fill="#334155" font-family="Helvetica" font-size="14" lengthAdjust="spacing" textLength="280.9297" x="838" y="1611.7803">Start from the shared resolution sequence for</text><text fill="#334155" font-family="Helvetica" font-size="14" lengthAdjust="spacing" textLength="260.7295" x="838" y="1625.7803">OCID binding, datasource pagination, and</text><text fill="#334155" font-family="Helvetica" font-size="14" lengthAdjust="spacing" textLength="163.4268" x="838" y="1639.7803">create-or-update dispatch.</text><text fill="#334155" font-family="Helvetica" font-size="14" lengthAdjust="spacing" textLength="301.1982" x="838" y="1653.7803">Layer the shared delete sequence when finalizer</text><text fill="#334155" font-family="Helvetica" font-size="14" lengthAdjust="spacing" textLength="269.2471" x="838" y="1667.7803">retention, delete confirmation, work-request</text><text fill="#334155" font-family="Helvetica" font-size="14" lengthAdjust="spacing" textLength="199.2334" x="838" y="1681.7803">polling, or Secret cleanup apply.</text><text fill="#334155" font-family="Helvetica" font-size="14" lengthAdjust="spacing" textLength="281.709" x="838" y="1695.7803">archetype batch: Generated service-manager</text><text fill="#334155" font-family="Helvetica" font-size="14" lengthAdjust="spacing" textLength="266.1504" x="838" y="1709.7803">controllers follow the shared resolution and</text><text fill="#334155" font-family="Helvetica" font-size="14" lengthAdjust="spacing" textLength="259.9297" x="838" y="1723.7803">delete sequences with imported waits and</text><text fill="#334155" font-family="Helvetica" font-size="14" lengthAdjust="spacing" textLength="134.6064" x="838" y="1737.7803">controller-local policy.</text><text fill="#334155" font-family="Helvetica" font-size="14" lengthAdjust="spacing" textLength="181.3164" x="838" y="1751.7803">service: networkloadbalancer</text><text fill="#334155" font-family="Helvetica" font-size="14" lengthAdjust="spacing" textLength="200.7988" x="838" y="1765.7803">slug: networkloadbalancerhealth</text><text fill="#334155" font-family="Helvetica" font-size="14" lengthAdjust="spacing" textLength="211.6748" x="838" y="1779.7803">kind: NetworkLoadBalancerHealth</text><text fill="#334155" font-family="Helvetica" font-size="14" lengthAdjust="spacing" textLength="241.2402" x="838" y="1793.7803">archetype: generated-service-manager</text><text fill="#334155" font-family="Helvetica" font-size="14" lengthAdjust="spacing" textLength="156.4063" x="838" y="1807.7803">status/finalizer: required /</text><text fill="#334155" font-family="Helvetica" font-size="14" lengthAdjust="spacing" textLength="174.3027" x="838" y="1821.7803">retain-until-confirmed-delete</text><text fill="#334155" font-family="Helvetica" font-size="14" lengthAdjust="spacing" textLength="272.3984" x="838" y="1835.7803">requeue: provisioning, updating, terminating</text><text fill="#334155" font-family="Helvetica" font-size="14" lengthAdjust="spacing" textLength="295.6816" x="838" y="1849.7803">provider states: create PROVISIONING; update</text><text fill="#334155" font-family="Helvetica" font-size="14" lengthAdjust="spacing" textLength="192.165" x="838" y="1863.7803">UPDATING; delete DELETING</text><text fill="#334155" font-family="Helvetica" font-size="14" lengthAdjust="spacing" textLength="183.6611" x="838" y="1877.7803">supported drift: display_name</text><text fill="#334155" font-family="Helvetica" font-size="14" lengthAdjust="spacing" textLength="230.3301" x="838" y="1891.7803">reject before mutate: force-new fields</text><text fill="#334155" font-family="Helvetica" font-size="14" lengthAdjust="spacing" textLength="100.3789" x="838" y="1905.7803">compartment_id</text><text fill="#334155" font-family="Helvetica" font-size="14" lengthAdjust="spacing" textLength="66.1445" x="838" y="1919.7803">list lookup:</text><text fill="#334155" font-family="Helvetica" font-size="14" lengthAdjust="spacing" textLength="360.3496" x="838" y="1933.7803">scaffold_networkloadbalancer_networkloadbalancerhealth</text><text fill="#334155" font-family="Helvetica" font-size="14" lengthAdjust="spacing" textLength="175.8477" x="838" y="1947.7803">filters compartment_id, state</text><text fill="#334155" font-family="Helvetica" font-size="14" lengthAdjust="spacing" textLength="89.4961" x="838" y="1961.7803">conflicts: none</text><text fill="#334155" font-family="Helvetica" font-size="14" lengthAdjust="spacing" textLength="104.3164" x="838" y="1975.7803">open gaps: none</text><text fill="#334155" font-family="Helvetica" font-size="14" lengthAdjust="spacing" textLength="224.9023" x="838" y="1989.7803">Scaffold metadata only; replace with</text><text fill="#334155" font-family="Helvetica" font-size="14" lengthAdjust="spacing" textLength="244.3232" x="838" y="2003.7803">controller-specific runtime states before</text><text fill="#334155" font-family="Helvetica" font-size="14" lengthAdjust="spacing" textLength="66.1445" x="838" y="2017.7803">promotion.</text><?plantuml-src hLTRRzis57xNhpZeNbh0JfecwSL11hH9jWRDaY9krnS30IqTsLmeKYCfkzwm_xx3YsJ9iL8Z6_8GcQJEzVk-GvbxBakcMG5cpZArv786EHC64zFiJ5bwFzEgajcP4ah3JtbAVrdhH8OvguJzHKbxpGg4ZoWMQ7dAjfyPyxyG3evQcqnhjOpMN-O7RrwrtvJAueS7CUJvc-prvYcbCzJnnFJe-F3bkuqJpdtSFpmyEZW-RkrxywdI4ZKSl4uijm9XZ7zMA5E48KYqIwNlXMBPb0b6Yth_EgnTqTg7kFOHcR3pPCupX5mfErNVMqvCRU_l182bLkbEq37vUcipQto5R_ENj4t6gBwyPD9kVxzzO1ShhS8qDWJFyOhBRbdV7R73wLlQTIRBpbOwpOxneDbwqBAtESlJv9_4vmQVgYbIhIsQf1K7d54WMWc1khFyWHcynLJ9b6zkFRiPttmQerxm57zZairGFmDceBlKUUNcx39nS02re6PtRGystYDYQCn0er6Yibp9KLpQppYRKK_DVlWzN1yPrctUCujPRI53GTdslXssks-Yp3niatMnOFXpgqOZG4ddAuHU94wahdDBrYywCzsyHz0yFzSk26DV9DqZxgLkTKRG6AVy3AT49hAV51uOSANKFVrZbDoKoooXBR2Qu4958c3Wzr9GetoNW5WaYOahO48ZorQqouqrIJSC5nYT7i6lQFkz8-bQuwWnp0qKt1XIlZwZL-Inr-hpd0kBsemcCbM50rb1XkzuDW1ZcSKNFZsDbM5JAfBBoU6aqgG1v9gwIof19EbpVaPfM-nFIYXLGkeFGKbuSGh--VRczylnvStrvVMlJwiKnUEhjJtk_wCNMpBU0icIAai-0liMrBOE9hZqDQwCD-Vg74W44R-OHSIT--M-GCDkVwmzhr6KETT5xNF1sKG-bZDXUo8VnL9ePhHND_FyukhYonCRkOFBkdAfG2QfL4J0d4icQ4PhgYEj6W_KgL2EDxiqJQDbr9gOXsU19pkjwrN0LTnpZA47KanGKqEMTtKGmbe7odBYu4Eh0SWrc1rsGZIKZm_6GNitXq5abtFUSA6W70r1S2BRT1l0ry_dxx_ufwPpthlWYxeOpXn9fQ44K6H3jgG1C96Pvha5N31HCHzynAvVdbC1XTEezTZgnZrmCsrSbQNIX7keoinvCfNEMOeZoBWf1LlTIRgV9RVu1wOMffWhZL1KBgWHoH1nUoXn6S8oILVFaYZRjTx1LhbRZonLsfP9WfNZ2mcxTQ0EkL8RCcfOQdTjUpjirmKVUjrdvz0q1N1RJhX-x2dow7rPYjL4VlM5UuHHqfsY21eFeLhT2diYnnxKHAw1yNH5xfyIkf8mHq5o2NDgaw5Xv4V2gSrhrTuBa-Gs_XnCP6ll6-Dq1TJVoFbjqCvltCulw5gkFqRaJMHGtLEBH2_FwTJL_lJizkBzbulpauaC2RTzXchMFkb8e6ZxI53V-iYkWo7e_cbaKaRPD69m6lHdM56uOXXLkhbWUGURrvgDErLDTvAbKgi5DvGcLM0GEkgUg7Ye2_9e6qvgFfjRK3bilp_6wzv_kpp-qCgsI-JO4aiXrwe0EqTuS9zTVvCGgXE2qxc_blc4ALqMXtx9PZvV9GTEpPC0iA7ImuXpHm1cq_bUSiLMLDMMiteKr8wMSvHhzKweOGvRpd8ZuRvhqPtZn33EzAIa9ldOb9D0Yc8zkvYZy5x2T3f7kogHFbqf7iSi-gPZJXLCwCsmYCr9cwwJ6DD_jUofaSju8mi3I-88y28gpf8uP49f6gj3cffC0CNCKueikXzj-vPCZAXcMtVcGGBe6p8RzT_prscFO5OdFDnCEF1clwdzg1v66UmdZnCdicBKnmbeKyAVeK_3C1NSj0XNrFQiF8aAcTJAU5AtlvcSQpttEhunn_IJvfXm5qhXXndnA6KvDJwxsrBtk_vUn27OCmFhIKTfIoNTA2IuprXP_nv7fr1GmHt5_5GveLPGReuUXAisY4o9ASzvwcJUyY9U8qnCtDMwK0wbUytq_HS0?></g></svg>