<?plantuml 1.2026.1?><svg xmlns="http://www.w3.org/2000/svg" xmlns:xlink="http://www.w3.org/1999/xlink" contentStyleType="text/css" data-diagram-type="ACTIVITY" height="2322px" preserveAspectRatio="none" style="width:1374px;height:2322px;background:#FCFCFD;" version="1.1" viewBox="0 0 1374 2322" width="1374px" zoomAndPan="magnify"><title>Activity - database/DatabaseAutonomousDatabaseInstanceWalletManagement</title><defs/><g><rect fill="#FCFCFD" height="2322" style="stroke:none;stroke-width:1;" width="1374" x="0" y="0"/><g class="title" data-source-line="10"><text fill="#000000" font-family="Helvetica" font-size="14" font-weight="bold" lengthAdjust="spacing" textLength="522.0264" x="424.8052" y="30.7803">Activity - database/DatabaseAutonomousDatabaseInstanceWalletManagement</text></g><ellipse cx="711.4196" cy="55" fill="#1D4ED8" rx="10" ry="10" style="stroke:#222222;stroke-width:1;"/><rect fill="none" height="472" rx="8" ry="8" style="stroke:#000000;stroke-width:1.5;" width="908.5957" x="261.9855" y="75"/><path d="M384.0538,75 L384.0538,82 L374.0538,92 L261.9855,92" fill="none" style="stroke:#000000;stroke-width:1.5;"/><text fill="#000000" font-family="Helvetica" font-size="14" lengthAdjust="spacing" textLength="112.0684" x="264.9855" y="86.7803">Observe and Bind</text><rect fill="#F8FAFC" height="48" rx="8" ry="8" style="stroke:#0F172A;stroke-width:0.5;" width="304.7852" x="559.027" y="109"/><text fill="#0F172A" font-family="Helvetica" font-size="14" lengthAdjust="spacing" textLength="136.9375" x="569.027" y="129.7803">Start from shared flow</text><text fill="#0F172A" font-family="Helvetica" font-size="14" lengthAdjust="spacing" textLength="284.7852" x="569.027" y="143.7803">shared/diagrams/shared-reconcile-activity.svg</text><rect fill="#F8FAFC" height="62" rx="8" ry="8" style="stroke:#0F172A;stroke-width:0.5;" width="392.0049" x="515.4171" y="177"/><text fill="#0F172A" font-family="Helvetica" font-size="14" lengthAdjust="spacing" textLength="83.2754" x="525.4171" y="197.7803">Read desired</text><text fill="#0F172A" font-family="Helvetica" font-size="14" lengthAdjust="spacing" textLength="372.0049" x="525.4171" y="211.7803">DatabaseAutonomousDatabaseInstanceWalletManagement</text><text fill="#0F172A" font-family="Helvetica" font-size="14" lengthAdjust="spacing" textLength="235.8125" x="525.4171" y="225.7803">spec, tracked status, and delete intent</text><polygon fill="#E2E8F0" points="581.9537,259,840.8854,259,852.8854,271,840.8854,283,581.9537,283,569.9537,271,581.9537,259" style="stroke:#1D4ED8;stroke-width:0.5;"/><text fill="#0F172A" font-family="Helvetica" font-size="14" lengthAdjust="spacing" textLength="258.9316" x="581.9537" y="274.7803">"Tracked or explicit OCI identity present?"</text><text fill="#000000" font-family="Helvetica" font-size="14" lengthAdjust="spacing" textLength="21.7861" x="548.1676" y="267.7803">yes</text><text fill="#000000" font-family="Helvetica" font-size="14" lengthAdjust="spacing" textLength="15.5723" x="852.8854" y="267.7803">no</text><rect fill="#F8FAFC" height="48" rx="8" ry="8" style="stroke:#0F172A;stroke-width:0.5;" width="414.5703" x="281.9855" y="293"/><text fill="#0F172A" font-family="Helvetica" font-size="14" lengthAdjust="spacing" textLength="202.3027" x="291.9855" y="313.7803">Get the current OCI resource via</text><text fill="#0F172A" font-family="Helvetica" font-size="14" lengthAdjust="spacing" textLength="394.5703" x="291.9855" y="327.7803">GetDatabaseAutonomousDatabaseInstanceWalletManagement</text><rect fill="#F8FAFC" height="62" rx="8" ry="8" style="stroke:#0F172A;stroke-width:0.5;" width="413.791" x="726.673" y="293"/><text fill="#0F172A" font-family="Helvetica" font-size="14" lengthAdjust="spacing" textLength="259.9092" x="736.673" y="313.7803">Resolve an existing OCI resource through</text><text fill="#0F172A" font-family="Helvetica" font-size="14" lengthAdjust="spacing" textLength="393.791" x="736.673" y="327.7803">ListDatabaseAutonomousDatabaseInstanceWalletManagement</text><text fill="#0F172A" font-family="Helvetica" font-size="14" lengthAdjust="spacing" textLength="213.2061" x="736.673" y="341.7803">using filters compartment_id, state</text><rect fill="#F8FAFC" height="62" rx="8" ry="8" style="stroke:#0F172A;stroke-width:0.5;" width="434.0254" x="716.5558" y="375"/><text fill="#0F172A" font-family="Helvetica" font-size="14" lengthAdjust="spacing" textLength="174.2959" x="726.5558" y="395.7803">Create the OCI resource via</text><text fill="#0F172A" font-family="Helvetica" font-size="14" lengthAdjust="spacing" textLength="414.0254" x="726.5558" y="409.7803">CreateDatabaseAutonomousDatabaseInstanceWalletManagement</text><text fill="#0F172A" font-family="Helvetica" font-size="14" lengthAdjust="spacing" textLength="205.4609" x="726.5558" y="423.7803">when no reusable match is found</text><rect fill="#F8FAFC" height="48" rx="8" ry="8" style="stroke:#0F172A;stroke-width:0.5;" width="286.8955" x="790.1207" y="457"/><text fill="#0F172A" font-family="Helvetica" font-size="14" lengthAdjust="spacing" textLength="266.8955" x="800.1207" y="477.7803">Persist the resolved or created OCI identity</text><text fill="#0F172A" font-family="Helvetica" font-size="14" lengthAdjust="spacing" textLength="63.8135" x="800.1207" y="491.7803">into status</text><polygon fill="#E2E8F0" points="711.4196,511,723.4196,523,711.4196,535,699.4196,523,711.4196,511" style="stroke:#1D4ED8;stroke-width:0.5;"/><polygon fill="#E2E8F0" points="649.2433,567,773.5958,567,785.5958,579,773.5958,591,649.2433,591,637.2433,579,649.2433,567" style="stroke:#1D4ED8;stroke-width:0.5;"/><text fill="#0F172A" font-family="Helvetica" font-size="14" lengthAdjust="spacing" textLength="124.3525" x="649.2433" y="582.7803">"Delete requested?"</text><text fill="#000000" font-family="Helvetica" font-size="14" lengthAdjust="spacing" textLength="21.7861" x="615.4572" y="575.7803">yes</text><text fill="#000000" font-family="Helvetica" font-size="14" lengthAdjust="spacing" textLength="15.5723" x="785.5958" y="575.7803">no</text><rect fill="none" height="444" rx="8" ry="8" style="stroke:#000000;stroke-width:1.5;" width="644.4814" x="11" y="601"/><path d="M61.4688,601 L61.4688,608 L51.4688,618 L11,618" fill="none" style="stroke:#000000;stroke-width:1.5;"/><text fill="#000000" font-family="Helvetica" font-size="14" lengthAdjust="spacing" textLength="40.4688" x="14" y="612.7803">Delete</text><rect fill="#F8FAFC" height="118" rx="8" ry="8" style="stroke:#0F172A;stroke-width:0.5;" width="432.4736" x="123.5073" y="635"/><text fill="#0F172A" font-family="Helvetica" font-size="14" lengthAdjust="spacing" textLength="105.0684" x="133.5073" y="655.7803">Delete path uses</text><text fill="#0F172A" font-family="Helvetica" font-size="14" lengthAdjust="spacing" textLength="412.4736" x="133.5073" y="669.7803">DeleteDatabaseAutonomousDatabaseInstanceWalletManagement</text><text fill="#0F172A" font-family="Helvetica" font-size="14" lengthAdjust="spacing" textLength="101.9375" x="133.5073" y="683.7803">with required via</text><text fill="#0F172A" font-family="Helvetica" font-size="14" lengthAdjust="spacing" textLength="394.5703" x="133.5073" y="697.7803">GetDatabaseAutonomousDatabaseInstanceWalletManagement</text><text fill="#0F172A" font-family="Helvetica" font-size="14" lengthAdjust="spacing" textLength="12.4482" x="133.5073" y="711.7803">or</text><text fill="#0F172A" font-family="Helvetica" font-size="14" lengthAdjust="spacing" textLength="393.791" x="133.5073" y="725.7803">ListDatabaseAutonomousDatabaseInstanceWalletManagement</text><text fill="#0F172A" font-family="Helvetica" font-size="14" lengthAdjust="spacing" textLength="160.2822" x="133.5073" y="739.7803">to DELETED confirmation</text><rect fill="#F8FAFC" height="90" rx="8" ry="8" style="stroke:#0F172A;stroke-width:0.5;" width="414.5703" x="132.459" y="788"/><text fill="#0F172A" font-family="Helvetica" font-size="14" lengthAdjust="spacing" textLength="123.7236" x="142.459" y="808.7803">Confirm deletion via</text><text fill="#0F172A" font-family="Helvetica" font-size="14" lengthAdjust="spacing" textLength="394.5703" x="142.459" y="822.7803">GetDatabaseAutonomousDatabaseInstanceWalletManagement</text><text fill="#0F172A" font-family="Helvetica" font-size="14" lengthAdjust="spacing" textLength="12.4482" x="142.459" y="836.7803">or</text><text fill="#0F172A" font-family="Helvetica" font-size="14" lengthAdjust="spacing" textLength="393.791" x="142.459" y="850.7803">ListDatabaseAutonomousDatabaseInstanceWalletManagement</text><text fill="#0F172A" font-family="Helvetica" font-size="14" lengthAdjust="spacing" textLength="176.6201" x="142.459" y="864.7803">until OCI reaches DELETED</text><polygon fill="#E2E8F0" points="191.5718,913,487.9165,913,499.9165,925,487.9165,937,191.5718,937,179.5718,925,191.5718,913" style="stroke:#1D4ED8;stroke-width:0.5;"/><text fill="#0F172A" font-family="Helvetica" font-size="14" lengthAdjust="spacing" textLength="296.3447" x="191.5718" y="928.7803">"Delete cleanup and finalizer release succeed?"</text><text fill="#000000" font-family="Helvetica" font-size="14" lengthAdjust="spacing" textLength="21.7861" x="157.7856" y="921.7803">yes</text><text fill="#000000" font-family="Helvetica" font-size="14" lengthAdjust="spacing" textLength="15.5723" x="499.9165" y="921.7803">no</text><rect fill="#F8FAFC" height="34" rx="8" ry="8" style="stroke:#0F172A;stroke-width:0.5;" width="293.1436" x="23" y="947"/><text fill="#0F172A" font-family="Helvetica" font-size="14" lengthAdjust="spacing" textLength="273.1436" x="33" y="967.7803">Remove the finalizer after delete completion</text><rect fill="#F8FAFC" height="48" rx="8" ry="8" style="stroke:#0F172A;stroke-width:0.5;" width="251.1299" x="384.3516" y="947"/><text fill="#0F172A" font-family="Helvetica" font-size="14" lengthAdjust="spacing" textLength="231.1299" x="394.3516" y="967.7803">Stay blocked until cleanup or finalizer</text><text fill="#0F172A" font-family="Helvetica" font-size="14" lengthAdjust="spacing" textLength="108.9512" x="394.3516" y="981.7803">release succeeds</text><polygon fill="#E2E8F0" points="339.7441,1001,351.7441,1013,339.7441,1025,327.7441,1013,339.7441,1001" style="stroke:#1D4ED8;stroke-width:0.5;"/><ellipse cx="339.7441" cy="1088" fill="none" rx="11" ry="11" style="stroke:#222222;stroke-width:1;"/><ellipse cx="339.7441" cy="1088" fill="#222222" rx="6" ry="6" style="stroke:#222222;stroke-width:1;"/><rect fill="none" height="456" rx="8" ry="8" style="stroke:#000000;stroke-width:1.5;" width="345.916" x="916.137" y="601"/><path d="M1066.9709,601 L1066.9709,608 L1056.9709,618 L916.137,618" fill="none" style="stroke:#000000;stroke-width:1.5;"/><text fill="#000000" font-family="Helvetica" font-size="14" lengthAdjust="spacing" textLength="140.834" x="919.137" y="612.7803">Lifecycle Classification</text><rect fill="#F8FAFC" height="48" rx="8" ry="8" style="stroke:#0F172A;stroke-width:0.5;" width="280.5928" x="942.7986" y="684"/><text fill="#0F172A" font-family="Helvetica" font-size="14" lengthAdjust="spacing" textLength="240.4541" x="952.7986" y="704.7803">Request requeue while OCI remains in</text><text fill="#0F172A" font-family="Helvetica" font-size="14" lengthAdjust="spacing" textLength="260.5928" x="952.7986" y="718.7803">PROVISIONING, UPDATING, DELETING</text><ellipse cx="1083.095" cy="778" fill="none" rx="11" ry="11" style="stroke:#222222;stroke-width:1;"/><ellipse cx="1083.095" cy="778" fill="#222222" rx="6" ry="6" style="stroke:#222222;stroke-width:1;"/><polygon fill="#E2E8F0" points="996.8118,635,1169.3782,635,1181.3782,647,1169.3782,659,996.8118,659,984.8118,647,996.8118,635" style="stroke:#1D4ED8;stroke-width:0.5;"/><text fill="#000000" font-family="Helvetica" font-size="14" lengthAdjust="spacing" textLength="21.7861" x="1087.095" y="669.7803">yes</text><text fill="#0F172A" font-family="Helvetica" font-size="14" lengthAdjust="spacing" textLength="172.5664" x="996.8118" y="650.7803">"OCI state in retryable set?"</text><rect fill="#F8FAFC" height="48" rx="8" ry="8" style="stroke:#0F172A;stroke-width:0.5;" width="293.916" x="936.137" y="904"/><text fill="#0F172A" font-family="Helvetica" font-size="14" lengthAdjust="spacing" textLength="273.916" x="946.137" y="924.7803">Return an unsuccessful reconcile result until</text><text fill="#0F172A" font-family="Helvetica" font-size="14" lengthAdjust="spacing" textLength="133.041" x="946.137" y="938.7803">OCI reaches ACTIVE</text><ellipse cx="1083.095" cy="998" fill="none" rx="11" ry="11" style="stroke:#222222;stroke-width:1;"/><ellipse cx="1083.095" cy="998" fill="#222222" rx="6" ry="6" style="stroke:#222222;stroke-width:1;"/><polygon fill="#E2E8F0" points="962.574,855,1203.616,855,1215.616,867,1203.616,879,962.574,879,950.574,867,962.574,855" style="stroke:#1D4ED8;stroke-width:0.5;"/><text fill="#000000" font-family="Helvetica" font-size="14" lengthAdjust="spacing" textLength="21.7861" x="1087.095" y="889.7803">yes</text><text fill="#0F172A" font-family="Helvetica" font-size="14" lengthAdjust="spacing" textLength="241.042" x="962.574" y="870.7803">"OCI state is outside success targets?"</text><rect fill="none" height="736.5" rx="8" ry="8" style="stroke:#000000;stroke-width:1.5;" width="688.1553" x="675.4814" y="1092"/><path d="M841.9014,1092 L841.9014,1099 L831.9014,1109 L675.4814,1109" fill="none" style="stroke:#000000;stroke-width:1.5;"/><text fill="#000000" font-family="Helvetica" font-size="14" lengthAdjust="spacing" textLength="156.4199" x="678.4814" y="1103.7803">Ready and Drift Handling</text><rect fill="#F8FAFC" height="48" rx="8" ry="8" style="stroke:#0F172A;stroke-width:0.5;" width="296.2402" x="934.9749" y="1126"/><text fill="#0F172A" font-family="Helvetica" font-size="14" lengthAdjust="spacing" textLength="276.2402" x="944.9749" y="1146.7803">Compare live OCI state against the imported</text><text fill="#0F172A" font-family="Helvetica" font-size="14" lengthAdjust="spacing" textLength="75.4824" x="944.9749" y="1160.7803">field surface</text><rect fill="#F8FAFC" height="48" rx="8" ry="8" style="stroke:#0F172A;stroke-width:0.5;" width="302.4473" x="931.8713" y="1243"/><text fill="#0F172A" font-family="Helvetica" font-size="14" lengthAdjust="spacing" textLength="282.4473" x="941.8713" y="1263.7803">Reject drift before OCI mutation for force-new</text><text fill="#0F172A" font-family="Helvetica" font-size="14" lengthAdjust="spacing" textLength="136.9512" x="941.8713" y="1277.7803">fields compartment_id</text><ellipse cx="1083.095" cy="1323.5" fill="none" rx="11" ry="11" style="stroke:#222222;stroke-width:1;"/><ellipse cx="1083.095" cy="1323.5" fill="#222222" rx="6" ry="6" style="stroke:#222222;stroke-width:1;"/><polygon fill="#E2E8F0" points="957.512,1194,1208.678,1194,1220.678,1206,1208.678,1218,957.512,1218,945.512,1206,957.512,1194" style="stroke:#1D4ED8;stroke-width:0.5;"/><text fill="#000000" font-family="Helvetica" font-size="14" lengthAdjust="spacing" textLength="21.7861" x="1087.095" y="1228.7803">yes</text><text fill="#0F172A" font-family="Helvetica" font-size="14" lengthAdjust="spacing" textLength="251.166" x="957.512" y="1209.7803">"Force-new or conflicting drift detected?"</text><polygon fill="#E2E8F0" points="972.6672,1376.5,1193.5227,1376.5,1205.5227,1388.5,1193.5227,1400.5,972.6672,1400.5,960.6672,1388.5,972.6672,1376.5" style="stroke:#1D4ED8;stroke-width:0.5;"/><text fill="#0F172A" font-family="Helvetica" font-size="14" lengthAdjust="spacing" textLength="220.8555" x="972.6672" y="1392.2803">"Supported mutable drift detected?"</text><text fill="#000000" font-family="Helvetica" font-size="14" lengthAdjust="spacing" textLength="21.7861" x="938.8811" y="1385.2803">yes</text><text fill="#000000" font-family="Helvetica" font-size="14" lengthAdjust="spacing" textLength="15.5723" x="1205.5227" y="1385.2803">no</text><rect fill="#F8FAFC" height="62" rx="8" ry="8" style="stroke:#0F172A;stroke-width:0.5;" width="437.1494" x="695.4814" y="1410.5"/><text fill="#0F172A" font-family="Helvetica" font-size="14" lengthAdjust="spacing" textLength="35.0205" x="705.4814" y="1431.2803">Apply</text><text fill="#0F172A" font-family="Helvetica" font-size="14" lengthAdjust="spacing" textLength="417.1494" x="705.4814" y="1445.2803">UpdateDatabaseAutonomousDatabaseInstanceWalletManagement</text><text fill="#0F172A" font-family="Helvetica" font-size="14" lengthAdjust="spacing" textLength="226.4541" x="705.4814" y="1459.2803">only for mutable fields display_name</text><rect fill="#F8FAFC" height="34" rx="8" ry="8" style="stroke:#0F172A;stroke-width:0.5;" width="199.0059" x="1152.6309" y="1410.5"/><text fill="#0F172A" font-family="Helvetica" font-size="14" lengthAdjust="spacing" textLength="179.0059" x="1162.6309" y="1431.2803">Skip the no-op mutation path</text><polygon fill="#E2E8F0" points="1083.095,1478.5,1095.095,1490.5,1083.095,1502.5,1071.095,1490.5,1083.095,1478.5" style="stroke:#1D4ED8;stroke-width:0.5;"/><rect fill="#F8FAFC" height="118" rx="8" ry="8" style="stroke:#0F172A;stroke-width:0.5;" width="334.3164" x="915.9368" y="1522.5"/><text fill="#0F172A" font-family="Helvetica" font-size="14" lengthAdjust="spacing" textLength="164.2061" x="925.9368" y="1543.2803">Run provider helper hooks</text><text fill="#0F172A" font-family="Helvetica" font-size="14" lengthAdjust="spacing" textLength="219.0508" x="925.9368" y="1557.2803">create=tfresource.CreateResource,</text><text fill="#0F172A" font-family="Helvetica" font-size="14" lengthAdjust="spacing" textLength="314.3164" x="925.9368" y="1571.2803">tfresource.WaitForWorkRequestWithErrorHandling</text><text fill="#0F172A" font-family="Helvetica" font-size="14" lengthAdjust="spacing" textLength="215.5439" x="925.9368" y="1585.2803">entity=template action=CREATED;</text><text fill="#0F172A" font-family="Helvetica" font-size="14" lengthAdjust="spacing" textLength="226.085" x="925.9368" y="1599.2803">update=tfresource.UpdateResource;</text><text fill="#0F172A" font-family="Helvetica" font-size="14" lengthAdjust="spacing" textLength="273.5537" x="925.9368" y="1613.2803">delete=tfresource.DeleteResource when the</text><text fill="#0F172A" font-family="Helvetica" font-size="14" lengthAdjust="spacing" textLength="220.2334" x="925.9368" y="1627.2803">matching field-driven path executes</text><rect fill="#F8FAFC" height="34" rx="8" ry="8" style="stroke:#0F172A;stroke-width:0.5;" width="303.2197" x="931.4851" y="1660.5"/><text fill="#0F172A" font-family="Helvetica" font-size="14" lengthAdjust="spacing" textLength="283.2197" x="941.4851" y="1681.2803">Return success for the ACTIVE success state</text><rect fill="#F8FAFC" height="48" rx="8" ry="8" style="stroke:#0F172A;stroke-width:0.5;" width="279.1299" x="943.53" y="1714.5"/><text fill="#0F172A" font-family="Helvetica" font-size="14" lengthAdjust="spacing" textLength="259.1299" x="953.53" y="1735.2803">Project required status and finalizer policy</text><text fill="#0F172A" font-family="Helvetica" font-size="14" lengthAdjust="spacing" textLength="174.3027" x="953.53" y="1749.2803">retain-until-confirmed-delete</text><rect fill="#F8FAFC" height="34" rx="8" ry="8" style="stroke:#0F172A;stroke-width:0.5;" width="313.4189" x="926.3855" y="1782.5"/><text fill="#0F172A" font-family="Helvetica" font-size="14" lengthAdjust="spacing" textLength="293.4189" x="936.3855" y="1803.2803">Requeue on provisioning, updating, terminating</text><path d="M742.4196,1838.5 L742.4196,2070.5 L722.4196,2074.5 L742.4196,2078.5 L742.4196,2310.5 A0,0 0 0 0 742.4196,2310.5 L1246.7682,2310.5 A0,0 0 0 0 1246.7682,2310.5 L1246.7682,1848.5 L1236.7682,1838.5 L742.4196,1838.5 A0,0 0 0 0 742.4196,1838.5" fill="#FFF7D6" style="stroke:#B45309;stroke-width:0.5;"/><path d="M1236.7682,1838.5 L1236.7682,1848.5 L1246.7682,1848.5 L1236.7682,1838.5" fill="#FFF7D6" style="stroke:#B45309;stroke-width:0.5;"/><text fill="#334155" font-family="Helvetica" font-size="14" lengthAdjust="spacing" textLength="101.165" x="748.4196" y="1854.2803">shared diagram:</text><text fill="#334155" font-family="Helvetica" font-size="14" lengthAdjust="spacing" textLength="284.7852" x="748.4196" y="1868.2803">shared/diagrams/shared-reconcile-activity.svg</text><text fill="#334155" font-family="Helvetica" font-size="14" lengthAdjust="spacing" textLength="265.3438" x="748.4196" y="1882.2803">Start from the shared reconcile activity and</text><text fill="#334155" font-family="Helvetica" font-size="14" lengthAdjust="spacing" textLength="273.8955" x="748.4196" y="1896.2803">specialize provider-backed CRUD, wait, and</text><text fill="#334155" font-family="Helvetica" font-size="14" lengthAdjust="spacing" textLength="182.875" x="748.4196" y="1910.2803">status-projection details here.</text><text fill="#334155" font-family="Helvetica" font-size="14" lengthAdjust="spacing" textLength="229.5371" x="748.4196" y="1924.2803">Controller-local activity diagrams add</text><text fill="#334155" font-family="Helvetica" font-size="14" lengthAdjust="spacing" textLength="238.8955" x="748.4196" y="1938.2803">list-lookup hints, secret policies, delete</text><text fill="#334155" font-family="Helvetica" font-size="14" lengthAdjust="spacing" textLength="200.0332" x="748.4196" y="1952.2803">handling, and open formal gaps.</text><text fill="#334155" font-family="Helvetica" font-size="14" lengthAdjust="spacing" textLength="281.709" x="748.4196" y="1966.2803">archetype batch: Generated service-manager</text><text fill="#334155" font-family="Helvetica" font-size="14" lengthAdjust="spacing" textLength="291.0469" x="748.4196" y="1980.2803">controllers specialize the shared reconcile path</text><text fill="#334155" font-family="Helvetica" font-size="14" lengthAdjust="spacing" textLength="189.8477" x="748.4196" y="1994.2803">with formal runtime ownership.</text><text fill="#334155" font-family="Helvetica" font-size="14" lengthAdjust="spacing" textLength="109.7305" x="748.4196" y="2008.2803">service: database</text><text fill="#334155" font-family="Helvetica" font-size="14" lengthAdjust="spacing" textLength="29.5723" x="748.4196" y="2022.2803">slug:</text><text fill="#334155" font-family="Helvetica" font-size="14" lengthAdjust="spacing" textLength="361.9219" x="748.4196" y="2036.2803">databaseautonomousdatabaseinstancewalletmanagement</text><text fill="#334155" font-family="Helvetica" font-size="14" lengthAdjust="spacing" textLength="29.5723" x="748.4196" y="2050.2803">kind:</text><text fill="#334155" font-family="Helvetica" font-size="14" lengthAdjust="spacing" textLength="372.0049" x="748.4196" y="2064.2803">DatabaseAutonomousDatabaseInstanceWalletManagement</text><text fill="#334155" font-family="Helvetica" font-size="14" lengthAdjust="spacing" textLength="241.2402" x="748.4196" y="2078.2803">archetype: generated-service-manager</text><text fill="#334155" font-family="Helvetica" font-size="14" lengthAdjust="spacing" textLength="156.4063" x="748.4196" y="2092.2803">status/finalizer: required /</text><text fill="#334155" font-family="Helvetica" font-size="14" lengthAdjust="spacing" textLength="174.3027" x="748.4196" y="2106.2803">retain-until-confirmed-delete</text><text fill="#334155" font-family="Helvetica" font-size="14" lengthAdjust="spacing" textLength="272.3984" x="748.4196" y="2120.2803">requeue: provisioning, updating, terminating</text><text fill="#334155" font-family="Helvetica" font-size="14" lengthAdjust="spacing" textLength="295.6816" x="748.4196" y="2134.2803">provider states: create PROVISIONING; update</text><text fill="#334155" font-family="Helvetica" font-size="14" lengthAdjust="spacing" textLength="192.165" x="748.4196" y="2148.2803">UPDATING; delete DELETING</text><text fill="#334155" font-family="Helvetica" font-size="14" lengthAdjust="spacing" textLength="183.6611" x="748.4196" y="2162.2803">supported drift: display_name</text><text fill="#334155" font-family="Helvetica" font-size="14" lengthAdjust="spacing" textLength="230.3301" x="748.4196" y="2176.2803">reject before mutate: force-new fields</text><text fill="#334155" font-family="Helvetica" font-size="14" lengthAdjust="spacing" textLength="100.3789" x="748.4196" y="2190.2803">compartment_id</text><text fill="#334155" font-family="Helvetica" font-size="14" lengthAdjust="spacing" textLength="66.1445" x="748.4196" y="2204.2803">list lookup:</text><text fill="#334155" font-family="Helvetica" font-size="14" lengthAdjust="spacing" textLength="483.3486" x="748.4196" y="2218.2803">scaffold_database_databaseautonomousdatabaseinstancewalletmanagement</text><text fill="#334155" font-family="Helvetica" font-size="14" lengthAdjust="spacing" textLength="175.8477" x="748.4196" y="2232.2803">filters compartment_id, state</text><text fill="#334155" font-family="Helvetica" font-size="14" lengthAdjust="spacing" textLength="89.4961" x="748.4196" y="2246.2803">conflicts: none</text><text fill="#334155" font-family="Helvetica" font-size="14" lengthAdjust="spacing" textLength="104.3164" x="748.4196" y="2260.2803">open gaps: none</text><text fill="#334155" font-family="Helvetica" font-size="14" lengthAdjust="spacing" textLength="224.9023" x="748.4196" y="2274.2803">Scaffold metadata only; replace with</text><text fill="#334155" font-family="Helvetica" font-size="14" lengthAdjust="spacing" textLength="244.3232" x="748.4196" y="2288.2803">controller-specific runtime states before</text><text fill="#334155" font-family="Helvetica" font-size="14" lengthAdjust="spacing" textLength="66.1445" x="748.4196" y="2302.2803">promotion.</text><ellipse cx="711.4196" cy="2074.5" fill="none" rx="11" ry="11" style="stroke:#222222;stroke-width:1;"/><ellipse cx="711.4196" cy="2074.5" fill="#222222" rx="6" ry="6" style="stroke:#222222;stroke-width:1;"/><line style="stroke:#0F172A;stroke-width:1;" x1="711.4196" x2="711.4196" y1="157" y2="177"/><polygon fill="#0F172A" points="707.4196,167,711.4196,177,715.4196,167,711.4196,171" style="stroke:#0F172A;stroke-width:1;"/><line style="stroke:#0F172A;stroke-width:1;" x1="933.5685" x2="933.5685" y1="355" y2="375"/><polygon fill="#0F172A" points="929.5685,365,933.5685,375,937.5685,365,933.5685,369" style="stroke:#0F172A;stroke-width:1;"/><line style="stroke:#0F172A;stroke-width:1;" x1="933.5685" x2="933.5685" y1="437" y2="457"/><polygon fill="#0F172A" points="929.5685,447,933.5685,457,937.5685,447,933.5685,451" style="stroke:#0F172A;stroke-width:1;"/><line style="stroke:#0F172A;stroke-width:1;" x1="569.9537" x2="489.2706" y1="271" y2="271"/><line style="stroke:#0F172A;stroke-width:1;" x1="489.2706" x2="489.2706" y1="271" y2="293"/><polygon fill="#0F172A" points="485.2706,283,489.2706,293,493.2706,283,489.2706,287" style="stroke:#0F172A;stroke-width:1;"/><line style="stroke:#0F172A;stroke-width:1;" x1="852.8854" x2="933.5685" y1="271" y2="271"/><line style="stroke:#0F172A;stroke-width:1;" x1="933.5685" x2="933.5685" y1="271" y2="293"/><polygon fill="#0F172A" points="929.5685,283,933.5685,293,937.5685,283,933.5685,287" style="stroke:#0F172A;stroke-width:1;"/><line style="stroke:#0F172A;stroke-width:1;" x1="489.2706" x2="489.2706" y1="341" y2="523"/><line style="stroke:#0F172A;stroke-width:1;" x1="489.2706" x2="699.4196" y1="523" y2="523"/><polygon fill="#0F172A" points="689.4196,519,699.4196,523,689.4196,527,693.4196,523" style="stroke:#0F172A;stroke-width:1;"/><line style="stroke:#0F172A;stroke-width:1;" x1="933.5685" x2="933.5685" y1="505" y2="523"/><line style="stroke:#0F172A;stroke-width:1;" x1="933.5685" x2="723.4196" y1="523" y2="523"/><polygon fill="#0F172A" points="733.4196,519,723.4196,523,733.4196,527,729.4196,523" style="stroke:#0F172A;stroke-width:1;"/><line style="stroke:#0F172A;stroke-width:1;" x1="711.4196" x2="711.4196" y1="239" y2="259"/><polygon fill="#0F172A" points="707.4196,249,711.4196,259,715.4196,249,711.4196,253" style="stroke:#0F172A;stroke-width:1;"/><line style="stroke:#0F172A;stroke-width:1;" x1="711.4196" x2="711.4196" y1="65" y2="109"/><polygon fill="#0F172A" points="707.4196,99,711.4196,109,715.4196,99,711.4196,103" style="stroke:#0F172A;stroke-width:1;"/><line style="stroke:#0F172A;stroke-width:1;" x1="339.7441" x2="339.7441" y1="753" y2="788"/><polygon fill="#0F172A" points="335.7441,778,339.7441,788,343.7441,778,339.7441,782" style="stroke:#0F172A;stroke-width:1;"/><line style="stroke:#0F172A;stroke-width:1;" x1="179.5718" x2="169.5718" y1="925" y2="925"/><line style="stroke:#0F172A;stroke-width:1;" x1="169.5718" x2="169.5718" y1="925" y2="947"/><polygon fill="#0F172A" points="165.5718,937,169.5718,947,173.5718,937,169.5718,941" style="stroke:#0F172A;stroke-width:1;"/><line style="stroke:#0F172A;stroke-width:1;" x1="499.9165" x2="509.9165" y1="925" y2="925"/><line style="stroke:#0F172A;stroke-width:1;" x1="509.9165" x2="509.9165" y1="925" y2="947"/><polygon fill="#0F172A" points="505.9165,937,509.9165,947,513.9165,937,509.9165,941" style="stroke:#0F172A;stroke-width:1;"/><line style="stroke:#0F172A;stroke-width:1;" x1="169.5718" x2="169.5718" y1="981" y2="1013"/><line style="stroke:#0F172A;stroke-width:1;" x1="169.5718" x2="327.7441" y1="1013" y2="1013"/><polygon fill="#0F172A" points="317.7441,1009,327.7441,1013,317.7441,1017,321.7441,1013" style="stroke:#0F172A;stroke-width:1;"/><line style="stroke:#0F172A;stroke-width:1;" x1="509.9165" x2="509.9165" y1="995" y2="1013"/><line style="stroke:#0F172A;stroke-width:1;" x1="509.9165" x2="351.7441" y1="1013" y2="1013"/><polygon fill="#0F172A" points="361.7441,1009,351.7441,1013,361.7441,1017,357.7441,1013" style="stroke:#0F172A;stroke-width:1;"/><line style="stroke:#0F172A;stroke-width:1;" x1="339.7441" x2="339.7441" y1="878" y2="913"/><polygon fill="#0F172A" points="335.7441,903,339.7441,913,343.7441,903,339.7441,907" style="stroke:#0F172A;stroke-width:1;"/><line style="stroke:#0F172A;stroke-width:1;" x1="339.7441" x2="339.7441" y1="1025" y2="1077"/><polygon fill="#0F172A" points="335.7441,1067,339.7441,1077,343.7441,1067,339.7441,1071" style="stroke:#0F172A;stroke-width:1;"/><line style="stroke:#0F172A;stroke-width:1;" x1="1083.095" x2="1083.095" y1="732" y2="767"/><polygon fill="#0F172A" points="1079.095,757,1083.095,767,1087.095,757,1083.095,761" style="stroke:#0F172A;stroke-width:1;"/><line style="stroke:#0F172A;stroke-width:1;" x1="1083.095" x2="1083.095" y1="659" y2="684"/><polygon fill="#0F172A" points="1079.095,674,1083.095,684,1087.095,674,1083.095,678" style="stroke:#0F172A;stroke-width:1;"/><line style="stroke:#0F172A;stroke-width:1;" x1="1181.3782" x2="1233.3914" y1="647" y2="647"/><polygon fill="#0F172A" points="1229.3914,723.5,1233.3914,733.5,1237.3914,723.5,1233.3914,727.5" style="stroke:#0F172A;stroke-width:1;"/><line style="stroke:#0F172A;stroke-width:1;" x1="1233.3914" x2="1233.3914" y1="647" y2="820"/><line style="stroke:#0F172A;stroke-width:1;" x1="1233.3914" x2="1083.095" y1="820" y2="820"/><line style="stroke:#0F172A;stroke-width:1;" x1="1083.095" x2="1083.095" y1="820" y2="855"/><polygon fill="#0F172A" points="1079.095,845,1083.095,855,1087.095,845,1083.095,849" style="stroke:#0F172A;stroke-width:1;"/><line style="stroke:#0F172A;stroke-width:1;" x1="1083.095" x2="1083.095" y1="952" y2="987"/><polygon fill="#0F172A" points="1079.095,977,1083.095,987,1087.095,977,1083.095,981" style="stroke:#0F172A;stroke-width:1;"/><line style="stroke:#0F172A;stroke-width:1;" x1="1083.095" x2="1083.095" y1="879" y2="904"/><polygon fill="#0F172A" points="1079.095,894,1083.095,904,1087.095,894,1083.095,898" style="stroke:#0F172A;stroke-width:1;"/><line style="stroke:#0F172A;stroke-width:1;" x1="1215.616" x2="1240.053" y1="867" y2="867"/><polygon fill="#0F172A" points="1236.053,943.5,1240.053,953.5,1244.053,943.5,1240.053,947.5" style="stroke:#0F172A;stroke-width:1;"/><line style="stroke:#0F172A;stroke-width:1;" x1="1240.053" x2="1240.053" y1="867" y2="1040"/><line style="stroke:#0F172A;stroke-width:1;" x1="1240.053" x2="1083.095" y1="1040" y2="1040"/><line style="stroke:#0F172A;stroke-width:1;" x1="1083.095" x2="1083.095" y1="1040" y2="1126"/><polygon fill="#0F172A" points="1079.095,1116,1083.095,1126,1087.095,1116,1083.095,1120" style="stroke:#0F172A;stroke-width:1;"/><line style="stroke:#0F172A;stroke-width:1;" x1="1083.095" x2="1083.095" y1="1291" y2="1312.5"/><polygon fill="#0F172A" points="1079.095,1302.5,1083.095,1312.5,1087.095,1302.5,1083.095,1306.5" style="stroke:#0F172A;stroke-width:1;"/><line style="stroke:#0F172A;stroke-width:1;" x1="1083.095" x2="1083.095" y1="1218" y2="1243"/><polygon fill="#0F172A" points="1079.095,1233,1083.095,1243,1087.095,1233,1083.095,1237" style="stroke:#0F172A;stroke-width:1;"/><line style="stroke:#0F172A;stroke-width:1;" x1="1220.678" x2="1244.3186" y1="1206" y2="1206"/><polygon fill="#0F172A" points="1240.3186,1282.5,1244.3186,1292.5,1248.3186,1282.5,1244.3186,1286.5" style="stroke:#0F172A;stroke-width:1;"/><line style="stroke:#0F172A;stroke-width:1;" x1="1244.3186" x2="1244.3186" y1="1206" y2="1356.5"/><line style="stroke:#0F172A;stroke-width:1;" x1="1244.3186" x2="1083.095" y1="1356.5" y2="1356.5"/><line style="stroke:#0F172A;stroke-width:1;" x1="1083.095" x2="1083.095" y1="1356.5" y2="1376.5"/><polygon fill="#0F172A" points="1079.095,1366.5,1083.095,1376.5,1087.095,1366.5,1083.095,1370.5" style="stroke:#0F172A;stroke-width:1;"/><line style="stroke:#0F172A;stroke-width:1;" x1="1083.095" x2="1083.095" y1="1174" y2="1194"/><polygon fill="#0F172A" points="1079.095,1184,1083.095,1194,1087.095,1184,1083.095,1188" style="stroke:#0F172A;stroke-width:1;"/><line style="stroke:#0F172A;stroke-width:1;" x1="960.6672" x2="914.0562" y1="1388.5" y2="1388.5"/><line style="stroke:#0F172A;stroke-width:1;" x1="914.0562" x2="914.0562" y1="1388.5" y2="1410.5"/><polygon fill="#0F172A" points="910.0562,1400.5,914.0562,1410.5,918.0562,1400.5,914.0562,1404.5" style="stroke:#0F172A;stroke-width:1;"/><line style="stroke:#0F172A;stroke-width:1;" x1="1205.5227" x2="1252.1338" y1="1388.5" y2="1388.5"/><line style="stroke:#0F172A;stroke-width:1;" x1="1252.1338" x2="1252.1338" y1="1388.5" y2="1410.5"/><polygon fill="#0F172A" points="1248.1338,1400.5,1252.1338,1410.5,1256.1338,1400.5,1252.1338,1404.5" style="stroke:#0F172A;stroke-width:1;"/><line style="stroke:#0F172A;stroke-width:1;" x1="914.0562" x2="914.0562" y1="1472.5" y2="1490.5"/><line style="stroke:#0F172A;stroke-width:1;" x1="914.0562" x2="1071.095" y1="1490.5" y2="1490.5"/><polygon fill="#0F172A" points="1061.095,1486.5,1071.095,1490.5,1061.095,1494.5,1065.095,1490.5" style="stroke:#0F172A;stroke-width:1;"/><line style="stroke:#0F172A;stroke-width:1;" x1="1252.1338" x2="1252.1338" y1="1444.5" y2="1490.5"/><line style="stroke:#0F172A;stroke-width:1;" x1="1252.1338" x2="1095.095" y1="1490.5" y2="1490.5"/><polygon fill="#0F172A" points="1105.095,1486.5,1095.095,1490.5,1105.095,1494.5,1101.095,1490.5" style="stroke:#0F172A;stroke-width:1;"/><line style="stroke:#0F172A;stroke-width:1;" x1="1083.095" x2="1083.095" y1="1502.5" y2="1522.5"/><polygon fill="#0F172A" points="1079.095,1512.5,1083.095,1522.5,1087.095,1512.5,1083.095,1516.5" style="stroke:#0F172A;stroke-width:1;"/><line style="stroke:#0F172A;stroke-width:1;" x1="1083.095" x2="1083.095" y1="1640.5" y2="1660.5"/><polygon fill="#0F172A" points="1079.095,1650.5,1083.095,1660.5,1087.095,1650.5,1083.095,1654.5" style="stroke:#0F172A;stroke-width:1;"/><line style="stroke:#0F172A;stroke-width:1;" x1="1083.095" x2="1083.095" y1="1694.5" y2="1714.5"/><polygon fill="#0F172A" points="1079.095,1704.5,1083.095,1714.5,1087.095,1704.5,1083.095,1708.5" style="stroke:#0F172A;stroke-width:1;"/><line style="stroke:#0F172A;stroke-width:1;" x1="1083.095" x2="1083.095" y1="1762.5" y2="1782.5"/><polygon fill="#0F172A" points="1079.095,1772.5,1083.095,1782.5,1087.095,1772.5,1083.095,1776.5" style="stroke:#0F172A;stroke-width:1;"/><line style="stroke:#0F172A;stroke-width:1;" x1="637.2433" x2="339.7441" y1="579" y2="579"/><line style="stroke:#0F172A;stroke-width:1;" x1="339.7441" x2="339.7441" y1="579" y2="635"/><polygon fill="#0F172A" points="335.7441,625,339.7441,635,343.7441,625,339.7441,629" style="stroke:#0F172A;stroke-width:1;"/><line style="stroke:#0F172A;stroke-width:1;" x1="785.5958" x2="1083.095" y1="579" y2="579"/><line style="stroke:#0F172A;stroke-width:1;" x1="1083.095" x2="1083.095" y1="579" y2="635"/><polygon fill="#0F172A" points="1079.095,625,1083.095,635,1087.095,625,1083.095,629" style="stroke:#0F172A;stroke-width:1;"/><line style="stroke:#0F172A;stroke-width:1;" x1="1083.095" x2="1083.095" y1="1816.5" y2="1833.5"/><line style="stroke:#0F172A;stroke-width:1;" x1="1083.095" x2="711.4196" y1="1833.5" y2="1833.5"/><line style="stroke:#0F172A;stroke-width:1;" x1="711.4196" x2="711.4196" y1="1833.5" y2="2063.5"/><polygon fill="#0F172A" points="707.4196,2053.5,711.4196,2063.5,715.4196,2053.5,711.4196,2057.5" style="stroke:#0F172A;stroke-width:1;"/><line style="stroke:#0F172A;stroke-width:1;" x1="711.4196" x2="711.4196" y1="535" y2="567"/><polygon fill="#0F172A" points="707.4196,557,711.4196,567,715.4196,557,711.4196,561" style="stroke:#0F172A;stroke-width:1;"/><?plantuml-src nLVRRjiu47tNLn3PbnQmawPDBskZMAHEsWReDa6IDYy60beQsTnGf9Qax7eN_VSzl4YMdQ3OPXyMWH59794pPywS6TaxeMfkUCNiWXTw9TISbLnQocotCkFvtTpeHXKJBRLXlvGv_egUHK4bRwHxhvNxp2jY7qakoOcSFsnp9VuYTdZKM-J6w5NQ_Lbv-Ffv_qsb7RsxvqDPlYvUxLffKv195hEZbo-U_RfZuOzFwozU71s-VDbR3zldsYWoxF1LveIJn8vp9vR2hTcG5Tpn6RTqS98kZXkdbQvqOzidPyewhdAwuLAI-vqhFgUAbEk7scxuTyOUWFPDoSlSh_H3IP0mLcxSxvuLWbTQ5VSGekVqfdpMC-ZlU5WSKV5ci_Z-WOqHYd6xzjJjtzdD-CwktxFmQeQ00QBGYksTpooP9J6k2lPEg68FuO-kl1KhZGxiCrImKkhLLCMR0xWs1sBs8DuF3ULQvKBIiCLmtoxdusnqIRm0lwo0rLJzV7PmOatvW3a33E45h5nZ1y7PWc1AJ2W7mt4cIlPaxphP8MJwLakH2yVE9sTC5B3ngQqDMLp-jlUKkGKfzcHDzcas-a3EtxEyCGRBuHrOwiRan9Q2JnKiVjxzSKOeMFP4wQSU2wjb01g-2UjyGM-TunOWoNmnLP-m-XYi6Xj4GaX7nh9SLpxDVkbM58E07I4d4qEu2E7U3pCkFkRmbOTJQUpNM3v3VLRSvGicB4e3rCV15_0AaOMJJGGZP2eFPnPRYPegv5MdV0D6LOWIx0r9Fec9D_HdGnOlxYIpn-re6HYTNggvMx36aWKRmvD7XIgmYJ_Uq_e_q6Egj7byjW7FoUcdq-lJ4wHQbS80S4JjCnnlOuLu8Ful5nlaKYQMyNn1jlLul9N9N19NJHsgkXIAItGXWrVm6DLZcpodUrb6ELLw6McyUOUNe7wh3Bu08W1RTGXjMxEPr44eeeUj0o1ZjzTKxJZGew5rkkvjsMFS9r5IliP-R2AvjQ94g_KhdeCXP0z6g4G85q9qPXsAnPAx7s3WT-HvGsorWC0cC2ikbCKEKtLnUVxrxEhi_FFPvmy3zkNYvFWwN0MWSJLEpWRFTpsmJ3VEekPYZDOowFwSdBtlYskCyjBLg6HQDf9rkk_h6ID4X7Eg-Xa_dboVVJtTSkDx7p7V8jOXzIT6b8vznAM4ZeMgdGGD8oR5CeOU7UTp7tzK4b7LsZZVNaf14YsYCINFAJ7ilOQq3HMjWj2WBj0JWl8MuR02FCdTG-Jw0y-JqOnARUBnLUD2Eg5fnl_YtkdeNScz3_rLKqTdmqO-xpzsuxYk9QJmIrqyKfIraklWQtjUShGGjfPyVQim4suNnvse0wnA3tMzYTVhPil_qMM31qOlGHp35YHh_q_hEuXgrFAthcpRodxiA9VfTW3TsgpTS86nqzneSvVOVWDfFSN8QLeQJ5Li26yTePf3ydFlqTl9vUcnLnAeJ82dVsO4h3qJ9b4H-YPHUbeJ5heNufwgqBPY7mLKGoHeIJ5-j6tA6qTst1L4MpOUOezQ97ltk6sv5qO7FdKz8_Qr7S6hDSYvzhhZGEzXgALXadOCMJ66SH86289EMR200muFM00YN445A-phRyOejvYtm4O_QZCZvWjCld6oIyFSAFkfuIxhZOW-yhJPHX6wQHf1PdwA4o7CZZZ3MHpL9fTVJWPi1IOCecc0PbX7o3pt2e-7j62QeVqCpSqP3QAR8JISoyr1hUEC5qKcqR9WeEyWwqYdmz1e2Unq4MP1U10HpHQ9Qd6ir3M5ygwmzPpNTZ_Z1aBcrZLXdWOtHkm3uKCaZ2n-T1OGWIhKdCdopZaaVnFpWm1vIcLXb4Yd6PznVAFf5RQt2r7lPsd_KVU5ardPp4TPUyixBMYVYAG5gw05rUOx1vyvnIXxn0TI5_w8pTl0Xxk1nwmTT6GURRX-aFsGq5dgRwD_G-QiavrGMdQKXaVMRuFZ-2vbRJSSjnD1snGpsmbn4E3HbY32er2jIVU31iAzJkwJY6RRQXyOnoBZK4ivBqijYzisBxUFIDaF9_cixMO00JfFMI2kPsowlqeki0hm-xEOxmPZ90QHUia3zNg47GQ-ObxfU1WXJZ1uv2ljwt7VoqduPFy7?></g></svg>