<?plantuml 1.2026.1?><svg xmlns="http://www.w3.org/2000/svg" xmlns:xlink="http://www.w3.org/1999/xlink" contentStyleType="text/css" data-diagram-type="SEQUENCE" height="1357px" preserveAspectRatio="none" style="width:1580px;height:1357px;background:#FCFCFD;" version="1.1" viewBox="0 0 1580 1357" width="1580px" zoomAndPan="magnify"><title>Sequence - database/DatabaseAutonomousDatabaseInstanceWalletManagement</title><defs/><g><rect fill="#FCFCFD" height="1357" style="stroke:none;stroke-width:1;" width="1580" x="0" y="0"/><text fill="#000000" font-family="Helvetica" font-size="14" font-weight="bold" lengthAdjust="spacing" textLength="537.5918" x="522.6416" y="25.7803">Sequence - database/DatabaseAutonomousDatabaseInstanceWalletManagement</text><rect fill="none" height="86" rx="8" ry="8" style="stroke:#CBD5E1;stroke-width:1.5;" width="577.4321" x="986.4429" y="361"/><rect fill="none" height="204" rx="8" ry="8" style="stroke:#CBD5E1;stroke-width:1.5;" width="597.4321" x="976.4429" y="461"/><rect fill="none" height="44" rx="8" ry="8" style="stroke:#CBD5E1;stroke-width:1.5;" width="577.4321" x="986.4429" y="512"/><rect fill="none" height="44" rx="8" ry="8" style="stroke:#CBD5E1;stroke-width:1.5;" width="577.4321" x="986.4429" y="614"/><rect fill="none" height="130" rx="8" ry="8" style="stroke:#CBD5E1;stroke-width:1.5;" width="597.4321" x="976.4429" y="679"/><rect fill="none" height="72" rx="8" ry="8" style="stroke:#CBD5E1;stroke-width:1.5;" width="577.4321" x="986.4429" y="730"/><g class="participant-lifeline" data-entity-uid="part1" data-qualified-name="Kubernetes" id="part1-lifeline"><g><title>Kubernetes</title><rect fill="#000000" fill-opacity="0.00000" height="1236" width="8" x="39.8032" y="114"/><line style="stroke:#94A3B8;stroke-width:0.5;stroke-dasharray:5,5;" x1="43" x2="43" y1="114" y2="1350"/></g></g><g class="participant-lifeline" data-entity-uid="part2" data-qualified-name="Controller" id="part2-lifeline"><g><title>Controller</title><rect fill="#000000" fill-opacity="0.00000" height="1236" width="8" x="435.8081" y="114"/><line style="stroke:#94A3B8;stroke-width:0.5;stroke-dasharray:5,5;" x1="439.4634" x2="439.4634" y1="114" y2="1350"/></g></g><g class="participant-lifeline" data-entity-uid="part3" data-qualified-name="BaseReconciler" id="part3-lifeline"><g><title>BaseReconciler</title><rect fill="#000000" fill-opacity="0.00000" height="1236" width="8" x="674.6343" y="114"/><line style="stroke:#94A3B8;stroke-width:0.5;stroke-dasharray:5,5;" x1="678.6104" x2="678.6104" y1="114" y2="1350"/></g></g><g class="participant-lifeline" data-entity-uid="part4" data-qualified-name="ServiceManager" id="part4-lifeline"><g><title>OSOKServiceManager</title><rect fill="#000000" fill-opacity="0.00000" height="1236" width="8" x="1070.6392" y="114"/><line style="stroke:#94A3B8;stroke-width:0.5;stroke-dasharray:5,5;" x1="1074.4429" x2="1074.4429" y1="114" y2="1350"/></g></g><g class="participant-lifeline" data-entity-uid="part5" data-qualified-name="OCI" id="part5-lifeline"><g><title>OCI</title><rect fill="#000000" fill-opacity="0.00000" height="1236" width="8" x="1530.4302" y="114"/><line style="stroke:#94A3B8;stroke-width:0.5;stroke-dasharray:5,5;" x1="1533.9854" x2="1533.9854" y1="114" y2="1350"/></g></g><g class="participant participant-head" data-entity-uid="part1" data-qualified-name="Kubernetes" id="part1-head"><text fill="#000000" font-family="Helvetica" font-size="14" lengthAdjust="spacing" textLength="71.6064" x="5" y="110.7803">Kubernetes</text><ellipse cx="43.8032" cy="48.5" fill="#E2E8F0" rx="8" ry="8" style="stroke:#0F172A;stroke-width:0.5;"/><path d="M43.8032,56.5 L43.8032,83.5 M30.8032,64.5 L56.8032,64.5 M43.8032,83.5 L30.8032,98.5 M43.8032,83.5 L56.8032,98.5" fill="none" style="stroke:#0F172A;stroke-width:0.5;"/></g><g class="participant participant-head" data-entity-uid="part2" data-qualified-name="Controller" id="part2-head"><rect fill="#E2E8F0" height="28" rx="8" ry="8" style="stroke:#0F172A;stroke-width:0.5;" width="74.6895" x="402.4634" y="85"/><text fill="#0F172A" font-family="Helvetica" font-size="14" lengthAdjust="spacing" textLength="60.6895" x="409.4634" y="102.7803">Controller</text></g><g class="participant participant-head" data-entity-uid="part3" data-qualified-name="BaseReconciler" id="part3-head"><rect fill="#E2E8F0" height="28" rx="8" ry="8" style="stroke:#0F172A;stroke-width:0.5;" width="112.0479" x="622.6104" y="85"/><text fill="#0F172A" font-family="Helvetica" font-size="14" lengthAdjust="spacing" textLength="98.0479" x="629.6104" y="102.7803">BaseReconciler</text></g><g class="participant participant-head" data-entity-uid="part4" data-qualified-name="ServiceManager" id="part4-head"><rect fill="#E2E8F0" height="28" rx="8" ry="8" style="stroke:#0F172A;stroke-width:0.5;" width="156.3926" x="996.4429" y="85"/><text fill="#0F172A" font-family="Helvetica" font-size="14" lengthAdjust="spacing" textLength="142.3926" x="1003.4429" y="102.7803">OSOKServiceManager</text></g><g class="participant participant-head" data-entity-uid="part5" data-qualified-name="OCI" id="part5-head"><rect fill="#E2E8F0" height="28" rx="8" ry="8" style="stroke:#0F172A;stroke-width:0.5;" width="38.8896" x="1514.9854" y="85"/><text fill="#0F172A" font-family="Helvetica" font-size="14" lengthAdjust="spacing" textLength="24.8896" x="1521.9854" y="102.7803">OCI</text></g><path d="M614,137 L614,187 A8,8 0 0 0 622,195 L1131,195 A8,8 0 0 0 1139,187 L1139,139 L1129,129 L622,129 A8,8 0 0 0 614,137" fill="#FFF7D6" style="stroke:#B45309;stroke-width:0.5;"/><path d="M1129,129 L1129,135 A4,4 0 0 0 1133,139 L1139,139 L1129,129" fill="#FFF7D6" style="stroke:#B45309;stroke-width:0.5;"/><text fill="#334155" font-family="Helvetica" font-size="14" lengthAdjust="spacing" textLength="111.2891" x="718.4167" y="144.7803">shared resolution:</text><text fill="#334155" font-family="Helvetica" font-size="14" lengthAdjust="spacing" textLength="307.3916" x="718.4167" y="158.7803">shared/diagrams/shared-resolution-sequence.svg</text><text fill="#334155" font-family="Helvetica" font-size="14" lengthAdjust="spacing" textLength="88.7305" x="718.4167" y="172.7803">shared delete:</text><text fill="#334155" font-family="Helvetica" font-size="14" lengthAdjust="spacing" textLength="284.833" x="718.4167" y="186.7803">shared/diagrams/shared-delete-sequence.svg</text><g class="message" data-entity-1="part1" data-entity-2="part2" id="msg1"><polygon fill="#0F172A" points="427.8081,244,437.8081,248,427.8081,252,431.8081,248" style="stroke:#0F172A;stroke-width:1;"/><line style="stroke:#0F172A;stroke-width:1;" x1="43.8032" x2="433.8081" y1="248" y2="248"/><text fill="#000000" font-family="Helvetica" font-size="14" lengthAdjust="spacing" textLength="54.5029" x="50.8032" y="214.7803">enqueue</text><text fill="#000000" font-family="Helvetica" font-size="14" lengthAdjust="spacing" textLength="372.0049" x="50.8032" y="228.7803">DatabaseAutonomousDatabaseInstanceWalletManagement</text><text fill="#000000" font-family="Helvetica" font-size="14" lengthAdjust="spacing" textLength="56.0273" x="50.8032" y="242.7803">reconcile</text></g><g class="message" data-entity-1="part2" data-entity-2="part3" id="msg2"><polygon fill="#0F172A" points="666.6343,272,676.6343,276,666.6343,280,670.6343,276" style="stroke:#0F172A;stroke-width:1;"/><line style="stroke:#0F172A;stroke-width:1;" x1="439.8081" x2="672.6343" y1="276" y2="276"/><text fill="#000000" font-family="Helvetica" font-size="14" lengthAdjust="spacing" textLength="117.4961" x="446.8081" y="270.7803">Reconcile(request)</text></g><g class="message" data-entity-1="part3" data-entity-2="part4" id="msg3"><polygon fill="#0F172A" points="1062.6392,314,1072.6392,318,1062.6392,322,1066.6392,318" style="stroke:#0F172A;stroke-width:1;"/><line style="stroke:#0F172A;stroke-width:1;" x1="678.6343" x2="1068.6392" y1="318" y2="318"/><text fill="#000000" font-family="Helvetica" font-size="14" lengthAdjust="spacing" textLength="105.834" x="685.6343" y="298.7803">reconcile desired</text><text fill="#000000" font-family="Helvetica" font-size="14" lengthAdjust="spacing" textLength="372.0049" x="685.6343" y="312.7803">DatabaseAutonomousDatabaseInstanceWalletManagement</text></g><g class="message" data-entity-1="part4" data-entity-2="part5" id="msg4"><polygon fill="#0F172A" points="1522.4302,342,1532.4302,346,1522.4302,350,1526.4302,346" style="stroke:#0F172A;stroke-width:1;"/><line style="stroke:#0F172A;stroke-width:1;" x1="1074.6392" x2="1528.4302" y1="346" y2="346"/><text fill="#000000" font-family="Helvetica" font-size="14" lengthAdjust="spacing" textLength="394.5703" x="1081.6392" y="340.7803">GetDatabaseAutonomousDatabaseInstanceWalletManagement</text></g><path d="M994.4429,361 L1053.2085,361 L1053.2085,367 L1043.2085,377 L986.4429,377 L986.4429,369 A8,8 0 0 1 994.4429,361" fill="#F8FAFC" style="stroke:#CBD5E1;stroke-width:1.5;"/><rect fill="none" height="86" rx="8" ry="8" style="stroke:#CBD5E1;stroke-width:1.5;" width="577.4321" x="986.4429" y="361"/><text fill="#000000" font-family="Helvetica" font-size="14" font-weight="bold" lengthAdjust="spacing" textLength="21.7656" x="1001.4429" y="372.7803">opt</text><text fill="#000000" font-family="Helvetica" font-size="14" font-weight="bold" lengthAdjust="spacing" textLength="135.3516" x="1068.2085" y="373.7803">[list lookup fallback]</text><g class="message" data-entity-1="part4" data-entity-2="part5" id="msg5"><polygon fill="#0F172A" points="1522.4302,407,1532.4302,411,1522.4302,415,1526.4302,411" style="stroke:#0F172A;stroke-width:1;"/><line style="stroke:#0F172A;stroke-width:1;" x1="1074.6392" x2="1528.4302" y1="411" y2="411"/><text fill="#000000" font-family="Helvetica" font-size="14" lengthAdjust="spacing" textLength="435.791" x="1081.6392" y="391.7803">ListDatabaseAutonomousDatabaseInstanceWalletManagement(filters:</text><text fill="#000000" font-family="Helvetica" font-size="14" lengthAdjust="spacing" textLength="143.1719" x="1081.6392" y="405.7803">compartment_id, state)</text></g><g class="message" data-entity-1="part5" data-entity-2="part4" id="msg6"><polygon fill="#0F172A" points="1085.6392,435,1075.6392,439,1085.6392,443,1081.6392,439" style="stroke:#0F172A;stroke-width:1;"/><line style="stroke:#0F172A;stroke-width:1;stroke-dasharray:2,2;" x1="1079.6392" x2="1533.4302" y1="439" y2="439"/><text fill="#000000" font-family="Helvetica" font-size="14" lengthAdjust="spacing" textLength="156.3994" x="1091.6392" y="433.7803">matching collection items</text></g><path d="M984.4429,461 L1037.7808,461 L1037.7808,467 L1027.7808,477 L976.4429,477 L976.4429,469 A8,8 0 0 1 984.4429,461" fill="#F8FAFC" style="stroke:#CBD5E1;stroke-width:1.5;"/><rect fill="none" height="204" rx="8" ry="8" style="stroke:#CBD5E1;stroke-width:1.5;" width="597.4321" x="976.4429" y="461"/><text fill="#000000" font-family="Helvetica" font-size="14" font-weight="bold" lengthAdjust="spacing" textLength="16.3379" x="991.4429" y="472.7803">alt</text><text fill="#000000" font-family="Helvetica" font-size="14" font-weight="bold" lengthAdjust="spacing" textLength="135.3447" x="1052.7808" y="473.7803">[create or bind path]</text><g class="message" data-entity-1="part4" data-entity-2="part5" id="msg7"><polygon fill="#0F172A" points="1522.4302,493,1532.4302,497,1522.4302,501,1526.4302,497" style="stroke:#0F172A;stroke-width:1;"/><line style="stroke:#0F172A;stroke-width:1;" x1="1074.6392" x2="1528.4302" y1="497" y2="497"/><text fill="#000000" font-family="Helvetica" font-size="14" lengthAdjust="spacing" textLength="414.0254" x="1081.6392" y="491.7803">CreateDatabaseAutonomousDatabaseInstanceWalletManagement</text></g><path d="M994.4429,512 L1060.9878,512 L1060.9878,518 L1050.9878,528 L986.4429,528 L986.4429,520 A8,8 0 0 1 994.4429,512" fill="#F8FAFC" style="stroke:#CBD5E1;stroke-width:1.5;"/><rect fill="none" height="44" rx="8" ry="8" style="stroke:#CBD5E1;stroke-width:1.5;" width="577.4321" x="986.4429" y="512"/><text fill="#000000" font-family="Helvetica" font-size="14" font-weight="bold" lengthAdjust="spacing" textLength="29.5449" x="1001.4429" y="523.7803">loop</text><text fill="#000000" font-family="Helvetica" font-size="14" font-weight="bold" lengthAdjust="spacing" textLength="215.4756" x="1075.9878" y="524.7803">[create pending PROVISIONING]</text><g class="message" data-entity-1="part4" data-entity-2="part5" id="msg8"><polygon fill="#0F172A" points="1522.4302,544,1532.4302,548,1522.4302,552,1526.4302,548" style="stroke:#0F172A;stroke-width:1;"/><line style="stroke:#0F172A;stroke-width:1;" x1="1074.6392" x2="1528.4302" y1="548" y2="548"/><text fill="#000000" font-family="Helvetica" font-size="14" lengthAdjust="spacing" textLength="394.5703" x="1081.6392" y="542.7803">GetDatabaseAutonomousDatabaseInstanceWalletManagement</text></g><line style="stroke:#CBD5E1;stroke-width:1;stroke-dasharray:2,2;" x1="976.4429" x2="1573.875" y1="564" y2="564"/><text fill="#000000" font-family="Helvetica" font-size="14" font-weight="bold" lengthAdjust="spacing" textLength="137.6484" x="981.4429" y="574.7803">[update or drift path]</text><g class="message" data-entity-1="part4" data-entity-2="part5" id="msg9"><polygon fill="#0F172A" points="1522.4302,595,1532.4302,599,1522.4302,603,1526.4302,599" style="stroke:#0F172A;stroke-width:1;"/><line style="stroke:#0F172A;stroke-width:1;" x1="1074.6392" x2="1528.4302" y1="599" y2="599"/><text fill="#000000" font-family="Helvetica" font-size="14" lengthAdjust="spacing" textLength="417.1494" x="1081.6392" y="593.7803">UpdateDatabaseAutonomousDatabaseInstanceWalletManagement</text></g><path d="M994.4429,614 L1060.9878,614 L1060.9878,620 L1050.9878,630 L986.4429,630 L986.4429,622 A8,8 0 0 1 994.4429,614" fill="#F8FAFC" style="stroke:#CBD5E1;stroke-width:1.5;"/><rect fill="none" height="44" rx="8" ry="8" style="stroke:#CBD5E1;stroke-width:1.5;" width="577.4321" x="986.4429" y="614"/><text fill="#000000" font-family="Helvetica" font-size="14" font-weight="bold" lengthAdjust="spacing" textLength="29.5449" x="1001.4429" y="625.7803">loop</text><text fill="#000000" font-family="Helvetica" font-size="14" font-weight="bold" lengthAdjust="spacing" textLength="190.5381" x="1075.9878" y="626.7803">[update pending UPDATING]</text><g class="message" data-entity-1="part4" data-entity-2="part5" id="msg10"><polygon fill="#0F172A" points="1522.4302,646,1532.4302,650,1522.4302,654,1526.4302,650" style="stroke:#0F172A;stroke-width:1;"/><line style="stroke:#0F172A;stroke-width:1;" x1="1074.6392" x2="1528.4302" y1="650" y2="650"/><text fill="#000000" font-family="Helvetica" font-size="14" lengthAdjust="spacing" textLength="394.5703" x="1081.6392" y="644.7803">GetDatabaseAutonomousDatabaseInstanceWalletManagement</text></g><path d="M984.4429,679 L1043.2085,679 L1043.2085,685 L1033.2085,695 L976.4429,695 L976.4429,687 A8,8 0 0 1 984.4429,679" fill="#F8FAFC" style="stroke:#CBD5E1;stroke-width:1.5;"/><rect fill="none" height="130" rx="8" ry="8" style="stroke:#CBD5E1;stroke-width:1.5;" width="597.4321" x="976.4429" y="679"/><text fill="#000000" font-family="Helvetica" font-size="14" font-weight="bold" lengthAdjust="spacing" textLength="21.7656" x="991.4429" y="690.7803">opt</text><text fill="#000000" font-family="Helvetica" font-size="14" font-weight="bold" lengthAdjust="spacing" textLength="120.5859" x="1058.2085" y="691.7803">[delete requested]</text><g class="message" data-entity-1="part4" data-entity-2="part5" id="msg11"><polygon fill="#0F172A" points="1522.4302,711,1532.4302,715,1522.4302,719,1526.4302,715" style="stroke:#0F172A;stroke-width:1;"/><line style="stroke:#0F172A;stroke-width:1;" x1="1074.6392" x2="1528.4302" y1="715" y2="715"/><text fill="#000000" font-family="Helvetica" font-size="14" lengthAdjust="spacing" textLength="412.4736" x="1081.6392" y="709.7803">DeleteDatabaseAutonomousDatabaseInstanceWalletManagement</text></g><path d="M994.4429,730 L1060.9878,730 L1060.9878,736 L1050.9878,746 L986.4429,746 L986.4429,738 A8,8 0 0 1 994.4429,730" fill="#F8FAFC" style="stroke:#CBD5E1;stroke-width:1.5;"/><rect fill="none" height="72" rx="8" ry="8" style="stroke:#CBD5E1;stroke-width:1.5;" width="577.4321" x="986.4429" y="730"/><text fill="#000000" font-family="Helvetica" font-size="14" font-weight="bold" lengthAdjust="spacing" textLength="29.5449" x="1001.4429" y="741.7803">loop</text><text fill="#000000" font-family="Helvetica" font-size="14" font-weight="bold" lengthAdjust="spacing" textLength="213.124" x="1075.9878" y="742.7803">[delete confirmation DELETING]</text><g class="message" data-entity-1="part4" data-entity-2="part5" id="msg12"><polygon fill="#0F172A" points="1522.4302,790,1532.4302,794,1522.4302,798,1526.4302,794" style="stroke:#0F172A;stroke-width:1;"/><line style="stroke:#0F172A;stroke-width:1;" x1="1074.6392" x2="1528.4302" y1="794" y2="794"/><text fill="#000000" font-family="Helvetica" font-size="14" lengthAdjust="spacing" textLength="394.5703" x="1081.6392" y="760.7803">GetDatabaseAutonomousDatabaseInstanceWalletManagement</text><text fill="#000000" font-family="Helvetica" font-size="14" lengthAdjust="spacing" textLength="12.4482" x="1081.6392" y="774.7803">or</text><text fill="#000000" font-family="Helvetica" font-size="14" lengthAdjust="spacing" textLength="393.791" x="1081.6392" y="788.7803">ListDatabaseAutonomousDatabaseInstanceWalletManagement</text></g><g class="message" data-entity-1="part4" data-entity-2="part3" id="msg13"><polygon fill="#0F172A" points="689.6343,846,679.6343,850,689.6343,854,685.6343,850" style="stroke:#0F172A;stroke-width:1;"/><line style="stroke:#0F172A;stroke-width:1;stroke-dasharray:2,2;" x1="683.6343" x2="1073.6392" y1="850" y2="850"/><text fill="#000000" font-family="Helvetica" font-size="14" lengthAdjust="spacing" textLength="100.7822" x="695.6343" y="830.7803">status=required,</text><text fill="#000000" font-family="Helvetica" font-size="14" lengthAdjust="spacing" textLength="230.7197" x="695.6343" y="844.7803">finalizer=retain-until-confirmed-delete</text></g><g class="message" data-entity-1="part3" data-entity-2="part2" id="msg14"><polygon fill="#0F172A" points="450.8081,888,440.8081,892,450.8081,896,446.8081,892" style="stroke:#0F172A;stroke-width:1;"/><line style="stroke:#0F172A;stroke-width:1;stroke-dasharray:2,2;" x1="444.8081" x2="677.6343" y1="892" y2="892"/><text fill="#000000" font-family="Helvetica" font-size="14" lengthAdjust="spacing" textLength="214.8262" x="456.8081" y="872.7803">requeue on provisioning, updating,</text><text fill="#000000" font-family="Helvetica" font-size="14" lengthAdjust="spacing" textLength="69.2549" x="456.8081" y="886.7803">terminating</text></g><path d="M1079,913 L1079,1327 A8,8 0 0 0 1087,1335 L1464,1335 A8,8 0 0 0 1472,1327 L1472,915 L1462,905 L1087,905 A8,8 0 0 0 1079,913" fill="#FFF7D6" style="stroke:#B45309;stroke-width:0.5;"/><path d="M1462,905 L1462,911 A4,4 0 0 0 1466,915 L1472,915 L1462,905" fill="#FFF7D6" style="stroke:#B45309;stroke-width:0.5;"/><text fill="#334155" font-family="Helvetica" font-size="14" lengthAdjust="spacing" textLength="101.165" x="1085" y="920.7803">shared diagram:</text><text fill="#334155" font-family="Helvetica" font-size="14" lengthAdjust="spacing" textLength="307.3916" x="1085" y="934.7803">shared/diagrams/shared-resolution-sequence.svg</text><text fill="#334155" font-family="Helvetica" font-size="14" lengthAdjust="spacing" textLength="143.1992" x="1085" y="948.7803">shared delete diagram:</text><text fill="#334155" font-family="Helvetica" font-size="14" lengthAdjust="spacing" textLength="284.833" x="1085" y="962.7803">shared/diagrams/shared-delete-sequence.svg</text><text fill="#334155" font-family="Helvetica" font-size="14" lengthAdjust="spacing" textLength="280.9297" x="1085" y="976.7803">Start from the shared resolution sequence for</text><text fill="#334155" font-family="Helvetica" font-size="14" lengthAdjust="spacing" textLength="260.7295" x="1085" y="990.7803">OCID binding, datasource pagination, and</text><text fill="#334155" font-family="Helvetica" font-size="14" lengthAdjust="spacing" textLength="163.4268" x="1085" y="1004.7803">create-or-update dispatch.</text><text fill="#334155" font-family="Helvetica" font-size="14" lengthAdjust="spacing" textLength="301.1982" x="1085" y="1018.7803">Layer the shared delete sequence when finalizer</text><text fill="#334155" font-family="Helvetica" font-size="14" lengthAdjust="spacing" textLength="269.2471" x="1085" y="1032.7803">retention, delete confirmation, work-request</text><text fill="#334155" font-family="Helvetica" font-size="14" lengthAdjust="spacing" textLength="199.2334" x="1085" y="1046.7803">polling, or Secret cleanup apply.</text><text fill="#334155" font-family="Helvetica" font-size="14" lengthAdjust="spacing" textLength="281.709" x="1085" y="1060.7803">archetype batch: Generated service-manager</text><text fill="#334155" font-family="Helvetica" font-size="14" lengthAdjust="spacing" textLength="266.1504" x="1085" y="1074.7803">controllers follow the shared resolution and</text><text fill="#334155" font-family="Helvetica" font-size="14" lengthAdjust="spacing" textLength="259.9297" x="1085" y="1088.7803">delete sequences with imported waits and</text><text fill="#334155" font-family="Helvetica" font-size="14" lengthAdjust="spacing" textLength="134.6064" x="1085" y="1102.7803">controller-local policy.</text><text fill="#334155" font-family="Helvetica" font-size="14" lengthAdjust="spacing" textLength="109.7305" x="1085" y="1116.7803">service: database</text><text fill="#334155" font-family="Helvetica" font-size="14" lengthAdjust="spacing" textLength="29.5723" x="1085" y="1130.7803">slug:</text><text fill="#334155" font-family="Helvetica" font-size="14" lengthAdjust="spacing" textLength="361.9219" x="1085" y="1144.7803">databaseautonomousdatabaseinstancewalletmanagement</text><text fill="#334155" font-family="Helvetica" font-size="14" lengthAdjust="spacing" textLength="29.5723" x="1085" y="1158.7803">kind:</text><text fill="#334155" font-family="Helvetica" font-size="14" lengthAdjust="spacing" textLength="372.0049" x="1085" y="1172.7803">DatabaseAutonomousDatabaseInstanceWalletManagement</text><text fill="#334155" font-family="Helvetica" font-size="14" lengthAdjust="spacing" textLength="241.2402" x="1085" y="1186.7803">archetype: generated-service-manager</text><text fill="#334155" font-family="Helvetica" font-size="14" lengthAdjust="spacing" textLength="156.4063" x="1085" y="1200.7803">status/finalizer: required /</text><text fill="#334155" font-family="Helvetica" font-size="14" lengthAdjust="spacing" textLength="174.3027" x="1085" y="1214.7803">retain-until-confirmed-delete</text><text fill="#334155" font-family="Helvetica" font-size="14" lengthAdjust="spacing" textLength="272.3984" x="1085" y="1228.7803">requeue: provisioning, updating, terminating</text><text fill="#334155" font-family="Helvetica" font-size="14" lengthAdjust="spacing" textLength="295.6816" x="1085" y="1242.7803">provider states: create PROVISIONING; update</text><text fill="#334155" font-family="Helvetica" font-size="14" lengthAdjust="spacing" textLength="192.165" x="1085" y="1256.7803">UPDATING; delete DELETING</text><text fill="#334155" font-family="Helvetica" font-size="14" lengthAdjust="spacing" textLength="319.04" x="1085" y="1270.7803">mutable/forceNew: display_name / compartment_id</text><text fill="#334155" font-family="Helvetica" font-size="14" lengthAdjust="spacing" textLength="104.3164" x="1085" y="1284.7803">open gaps: none</text><text fill="#334155" font-family="Helvetica" font-size="14" lengthAdjust="spacing" textLength="224.9023" x="1085" y="1298.7803">Scaffold metadata only; replace with</text><text fill="#334155" font-family="Helvetica" font-size="14" lengthAdjust="spacing" textLength="244.3232" x="1085" y="1312.7803">controller-specific runtime states before</text><text fill="#334155" font-family="Helvetica" font-size="14" lengthAdjust="spacing" textLength="66.1445" x="1085" y="1326.7803">promotion.</text><?plantuml-src jLTjRnit3FwkNq5qNrh05oTDqgONh40RTstGB2dgTVjYe90bdYr49zqaNRnis7yVTM--S-nkzLe42Mo98layV4Wf_bQPWZkUWrzoQLVAB23ZsYFptSwSYzk5iwMH5rPR1pzaWdvapq9YnaiTVh8cNFCSuHtgEmnAyEqsK_Kdmj59RvCxPrUDzyFiwFdJ_abZ0xv-a4EMFPVFDgsia-WQY_d9wV7XYmsB6BxPFpu-EJezxUrNxeLr1XqSFMD11OqmnTzBD08X0Sa3dtEFuqdpuLKPhB6vBNsxScbyu6Jz6zSQmy_Sy0NcQ09RAecGMHlczezUIDzw_ui1S16i6q1eg6YtDZd0ftYM7T8sEIEsLS5Ds7w-R_1VlFHewdnebU6LCaEINvpmu_aPxKQNnM1BpEKf7dLR3mfubl5CiBzPXGtUbtCavWDwrii3BYWHPubCDrX-JLn_H66DK9jRZswcD--dwEwKmBe0xX5m3yEbmP6RYqiMnG7sZae_z3tQE4Tjub22Gszr6PGrQRCqbeelgAP-N7zFrYP9M-O3VxTeFKWaXU3Eq_Nsy2GQMOcOhSc2v6MFenJGa7s9C_Fr6fqPrw9cQvSnm92H5BhFZrrCpuSdR6WI3mrvIw5pJiYz8eZxvCY6NcCSAbuARp7iuSmMWLJjwO-rjsKH1v-EmsvNb2ko_VemZpEb0pgVpeomUTHTNFsiv0ZeGC0dZ9n3ieMod0UnZ1DPn5A8A2LG0NCVbS2u3Y0SygXR1tD5uYXuMEvA_g8otOCb8gTe0nKKE2RquUFDhvVJovlho-kttxOc4HdI_GDb8HjeqgaiV17RfyfsNsnDf1RRfm-JLxzy7rpq6pLNzpOqpODoLwH9PRSlh2OATLsc74afgcVovkhDDySsCzRDp7xDqV6ocT2MiHExfVG_HjhY_1ZD29ZXcXuJZXO3LoOfJL0wQI1tK_J1TDeOcbKXIjAQWSBPE-M9AbB2g5P6_3GprC4vHOlVwhl2gSKoWCrW-mNHpFF_TplygvTjjyGqq8Y1pDaSmXBXmOMrVdHariNPCwc6HmKuFd6yBHrj5dnHuRLc19mAL4-0nBgawHUfV147r06xulV4QYzOatqNQBL40rsn61MBIbzvtYBI4QoikqsQxc055QdAZIR152aBcdeQkQ5vpOj2tnymxiGImts1z5AbVAAAwGb7AKhAeAfDaZV54LtLFQ7NsgvsS1GHRw3mi59X2Ielh8k-Lrm5NrFJUKsq5Lm3vQm4PTQ4Jxkd8_EwNAIi_SgxFcbNLDCdgwfFydMVq9DHfcoF1klOIM7Hyf9iybAtrhWhKTqJiSjWpBxSMqtpfBjQ1_gTKzdG4x6--NpQtYlz--Iy6SYi7SJdhKgwwPMN15hZc0Giy1fNQIL6pUy_c_ZlnnY65oqDNTBVWXSKq5Y3R2fuHkMNa1EqI3srlhu_9z3a9EgL2jslgYzGg4m9S944Yb2d3tEa332YocsKpK7tHFi7?></g></svg>