<?plantuml 1.2026.1?><svg xmlns="http://www.w3.org/2000/svg" xmlns:xlink="http://www.w3.org/1999/xlink" contentStyleType="text/css" data-diagram-type="ACTIVITY" height="1441px" preserveAspectRatio="none" style="width:783px;height:1441px;background:#FCFCFD;" version="1.1" viewBox="0 0 783 1441" width="783px" zoomAndPan="magnify"><title>Activity - devops/DevopsRepositoryProtectedBranchManagement</title><defs/><g><rect fill="#FCFCFD" height="1441" style="stroke:none;stroke-width:1;" width="783" x="0" y="0"/><g class="title" data-source-line="10"><text fill="#000000" font-family="Helvetica" font-size="14" font-weight="bold" lengthAdjust="spacing" textLength="437.9922" x="171.3014" y="30.7803">Activity - devops/DevopsRepositoryProtectedBranchManagement</text></g><ellipse cx="385.7483" cy="55" fill="#1D4ED8" rx="10" ry="10" style="stroke:#222222;stroke-width:1;"/><rect fill="#F8FAFC" height="48" rx="8" ry="8" style="stroke:#0F172A;stroke-width:0.5;" width="304.7852" x="233.3557" y="85"/><text fill="#0F172A" font-family="Helvetica" font-size="14" lengthAdjust="spacing" textLength="136.9375" x="243.3557" y="105.7803">Start from shared flow</text><text fill="#0F172A" font-family="Helvetica" font-size="14" lengthAdjust="spacing" textLength="284.7852" x="243.3557" y="119.7803">shared/diagrams/shared-reconcile-activity.svg</text><rect fill="#F8FAFC" height="62" rx="8" ry="8" style="stroke:#0F172A;stroke-width:0.5;" width="353.8467" x="208.825" y="153"/><text fill="#0F172A" font-family="Helvetica" font-size="14" lengthAdjust="spacing" textLength="80.9512" x="218.825" y="173.7803">Load desired</text><text fill="#0F172A" font-family="Helvetica" font-size="14" lengthAdjust="spacing" textLength="333.8467" x="218.825" y="187.7803">DevopsRepositoryProtectedBranchManagement spec</text><text fill="#0F172A" font-family="Helvetica" font-size="14" lengthAdjust="spacing" textLength="171.9854" x="218.825" y="201.7803">and status from Kubernetes</text><rect fill="#F8FAFC" height="90" rx="8" ry="8" style="stroke:#0F172A;stroke-width:0.5;" width="342.9502" x="214.2732" y="235"/><text fill="#0F172A" font-family="Helvetica" font-size="14" lengthAdjust="spacing" textLength="135.3857" x="224.2732" y="255.7803">Resolve OCI state via</text><text fill="#0F172A" font-family="Helvetica" font-size="14" lengthAdjust="spacing" textLength="322.9502" x="224.2732" y="269.7803">GetDevopsRepositoryProtectedBranchManagement</text><text fill="#0F172A" font-family="Helvetica" font-size="14" lengthAdjust="spacing" textLength="24.8965" x="224.2732" y="283.7803">with</text><text fill="#0F172A" font-family="Helvetica" font-size="14" lengthAdjust="spacing" textLength="322.1709" x="224.2732" y="297.7803">ListDevopsRepositoryProtectedBranchManagement</text><text fill="#0F172A" font-family="Helvetica" font-size="14" lengthAdjust="spacing" textLength="47.4688" x="224.2732" y="311.7803">fallback</text><rect fill="#F8FAFC" height="76" rx="8" ry="8" style="stroke:#0F172A;stroke-width:0.5;" width="418.4736" x="176.5115" y="345"/><text fill="#0F172A" font-family="Helvetica" font-size="14" lengthAdjust="spacing" textLength="24.8965" x="186.5115" y="365.7803">Use</text><text fill="#0F172A" font-family="Helvetica" font-size="14" lengthAdjust="spacing" textLength="398.4736" x="186.5115" y="379.7803">scaffold_devops_devopsrepositoryprotectedbranchmanagement</text><text fill="#0F172A" font-family="Helvetica" font-size="14" lengthAdjust="spacing" textLength="297.2402" x="186.5115" y="393.7803">filters compartment_id, state when OCID lookup</text><text fill="#0F172A" font-family="Helvetica" font-size="14" lengthAdjust="spacing" textLength="259.9023" x="186.5115" y="407.7803">or bind-versus-create needs list resolution</text><polygon fill="#E2E8F0" points="332.0588,441,439.4377,441,451.4377,453,439.4377,465,332.0588,465,320.0588,453,332.0588,441" style="stroke:#1D4ED8;stroke-width:0.5;"/><text fill="#0F172A" font-family="Helvetica" font-size="14" lengthAdjust="spacing" textLength="107.3789" x="332.0588" y="456.7803">Resource exists?</text><text fill="#000000" font-family="Helvetica" font-size="14" lengthAdjust="spacing" textLength="21.7861" x="298.2727" y="449.7803">yes</text><text fill="#000000" font-family="Helvetica" font-size="14" lengthAdjust="spacing" textLength="15.5723" x="451.4377" y="449.7803">no</text><rect fill="#F8FAFC" height="48" rx="8" ry="8" style="stroke:#0F172A;stroke-width:0.5;" width="365.5293" x="11" y="475"/><text fill="#0F172A" font-family="Helvetica" font-size="14" lengthAdjust="spacing" textLength="108.1787" x="21" y="495.7803">Update path calls</text><text fill="#0F172A" font-family="Helvetica" font-size="14" lengthAdjust="spacing" textLength="345.5293" x="21" y="509.7803">UpdateDevopsRepositoryProtectedBranchManagement</text><rect fill="#F8FAFC" height="48" rx="8" ry="8" style="stroke:#0F172A;stroke-width:0.5;" width="266.7021" x="60.4136" y="543"/><text fill="#0F172A" font-family="Helvetica" font-size="14" lengthAdjust="spacing" textLength="246.7021" x="70.4136" y="563.7803">Guard mutable fields display_name and</text><text fill="#0F172A" font-family="Helvetica" font-size="14" lengthAdjust="spacing" textLength="202.3096" x="70.4136" y="577.7803">force-new fields compartment_id</text><rect fill="#F8FAFC" height="48" rx="8" ry="8" style="stroke:#0F172A;stroke-width:0.5;" width="362.4053" x="396.5293" y="475"/><text fill="#0F172A" font-family="Helvetica" font-size="14" lengthAdjust="spacing" textLength="105.0547" x="406.5293" y="495.7803">Create path calls</text><text fill="#0F172A" font-family="Helvetica" font-size="14" lengthAdjust="spacing" textLength="342.4053" x="406.5293" y="509.7803">CreateDevopsRepositoryProtectedBranchManagement</text><polygon fill="#E2E8F0" points="385.7483,597,397.7483,609,385.7483,621,373.7483,609,385.7483,597" style="stroke:#1D4ED8;stroke-width:0.5;"/><rect fill="#F8FAFC" height="104" rx="8" ry="8" style="stroke:#0F172A;stroke-width:0.5;" width="334.3164" x="218.5901" y="641"/><text fill="#0F172A" font-family="Helvetica" font-size="14" lengthAdjust="spacing" textLength="164.2061" x="228.5901" y="661.7803">Run provider helper hooks</text><text fill="#0F172A" font-family="Helvetica" font-size="14" lengthAdjust="spacing" textLength="219.0508" x="228.5901" y="675.7803">create=tfresource.CreateResource,</text><text fill="#0F172A" font-family="Helvetica" font-size="14" lengthAdjust="spacing" textLength="314.3164" x="228.5901" y="689.7803">tfresource.WaitForWorkRequestWithErrorHandling</text><text fill="#0F172A" font-family="Helvetica" font-size="14" lengthAdjust="spacing" textLength="215.5439" x="228.5901" y="703.7803">entity=template action=CREATED;</text><text fill="#0F172A" font-family="Helvetica" font-size="14" lengthAdjust="spacing" textLength="226.085" x="228.5901" y="717.7803">update=tfresource.UpdateResource;</text><text fill="#0F172A" font-family="Helvetica" font-size="14" lengthAdjust="spacing" textLength="212.8438" x="228.5901" y="731.7803">delete=tfresource.DeleteResource</text><rect fill="#F8FAFC" height="34" rx="8" ry="8" style="stroke:#0F172A;stroke-width:0.5;" width="263.5918" x="253.9524" y="765"/><text fill="#0F172A" font-family="Helvetica" font-size="14" lengthAdjust="spacing" textLength="243.5918" x="263.9524" y="785.7803">Apply repo-authored secret policy none</text><rect fill="#F8FAFC" height="118" rx="8" ry="8" style="stroke:#0F172A;stroke-width:0.5;" width="360.8535" x="205.3215" y="819"/><text fill="#0F172A" font-family="Helvetica" font-size="14" lengthAdjust="spacing" textLength="105.0684" x="215.3215" y="839.7803">Delete path uses</text><text fill="#0F172A" font-family="Helvetica" font-size="14" lengthAdjust="spacing" textLength="340.8535" x="215.3215" y="853.7803">DeleteDevopsRepositoryProtectedBranchManagement</text><text fill="#0F172A" font-family="Helvetica" font-size="14" lengthAdjust="spacing" textLength="101.9375" x="215.3215" y="867.7803">with required via</text><text fill="#0F172A" font-family="Helvetica" font-size="14" lengthAdjust="spacing" textLength="322.9502" x="215.3215" y="881.7803">GetDevopsRepositoryProtectedBranchManagement</text><text fill="#0F172A" font-family="Helvetica" font-size="14" lengthAdjust="spacing" textLength="12.4482" x="215.3215" y="895.7803">or</text><text fill="#0F172A" font-family="Helvetica" font-size="14" lengthAdjust="spacing" textLength="322.1709" x="215.3215" y="909.7803">ListDevopsRepositoryProtectedBranchManagement</text><text fill="#0F172A" font-family="Helvetica" font-size="14" lengthAdjust="spacing" textLength="160.2822" x="215.3215" y="923.7803">to DELETED confirmation</text><rect fill="#F8FAFC" height="48" rx="8" ry="8" style="stroke:#0F172A;stroke-width:0.5;" width="279.1299" x="246.1833" y="957"/><text fill="#0F172A" font-family="Helvetica" font-size="14" lengthAdjust="spacing" textLength="259.1299" x="256.1833" y="977.7803">Project required status and finalizer policy</text><text fill="#0F172A" font-family="Helvetica" font-size="14" lengthAdjust="spacing" textLength="174.3027" x="256.1833" y="991.7803">retain-until-confirmed-delete</text><rect fill="#F8FAFC" height="34" rx="8" ry="8" style="stroke:#0F172A;stroke-width:0.5;" width="313.4189" x="229.0388" y="1025"/><text fill="#0F172A" font-family="Helvetica" font-size="14" lengthAdjust="spacing" textLength="293.4189" x="239.0388" y="1045.7803">Requeue on provisioning, updating, terminating</text><path d="M416.7483,1069 L416.7483,1245 L396.7483,1249 L416.7483,1253 L416.7483,1429 A0,0 0 0 0 416.7483,1429 L771.595,1429 A0,0 0 0 0 771.595,1429 L771.595,1079 L761.595,1069 L416.7483,1069 A0,0 0 0 0 416.7483,1069" fill="#FFF7D6" style="stroke:#B45309;stroke-width:0.5;"/><path d="M761.595,1069 L761.595,1079 L771.595,1079 L761.595,1069" fill="#FFF7D6" style="stroke:#B45309;stroke-width:0.5;"/><text fill="#334155" font-family="Helvetica" font-size="14" lengthAdjust="spacing" textLength="101.165" x="422.7483" y="1084.7803">shared diagram:</text><text fill="#334155" font-family="Helvetica" font-size="14" lengthAdjust="spacing" textLength="284.7852" x="422.7483" y="1098.7803">shared/diagrams/shared-reconcile-activity.svg</text><text fill="#334155" font-family="Helvetica" font-size="14" lengthAdjust="spacing" textLength="265.3438" x="422.7483" y="1112.7803">Start from the shared reconcile activity and</text><text fill="#334155" font-family="Helvetica" font-size="14" lengthAdjust="spacing" textLength="273.8955" x="422.7483" y="1126.7803">specialize provider-backed CRUD, wait, and</text><text fill="#334155" font-family="Helvetica" font-size="14" lengthAdjust="spacing" textLength="182.875" x="422.7483" y="1140.7803">status-projection details here.</text><text fill="#334155" font-family="Helvetica" font-size="14" lengthAdjust="spacing" textLength="229.5371" x="422.7483" y="1154.7803">Controller-local activity diagrams add</text><text fill="#334155" font-family="Helvetica" font-size="14" lengthAdjust="spacing" textLength="238.8955" x="422.7483" y="1168.7803">list-lookup hints, secret policies, delete</text><text fill="#334155" font-family="Helvetica" font-size="14" lengthAdjust="spacing" textLength="200.0332" x="422.7483" y="1182.7803">handling, and open formal gaps.</text><text fill="#334155" font-family="Helvetica" font-size="14" lengthAdjust="spacing" textLength="281.709" x="422.7483" y="1196.7803">archetype batch: Generated service-manager</text><text fill="#334155" font-family="Helvetica" font-size="14" lengthAdjust="spacing" textLength="291.0469" x="422.7483" y="1210.7803">controllers specialize the shared reconcile path</text><text fill="#334155" font-family="Helvetica" font-size="14" lengthAdjust="spacing" textLength="189.8477" x="422.7483" y="1224.7803">with formal runtime ownership.</text><text fill="#334155" font-family="Helvetica" font-size="14" lengthAdjust="spacing" textLength="97.2686" x="422.7483" y="1238.7803">service: devops</text><text fill="#334155" font-family="Helvetica" font-size="14" lengthAdjust="spacing" textLength="322.9707" x="422.7483" y="1252.7803">slug: devopsrepositoryprotectedbranchmanagement</text><text fill="#334155" font-family="Helvetica" font-size="14" lengthAdjust="spacing" textLength="333.8467" x="422.7483" y="1266.7803">kind: DevopsRepositoryProtectedBranchManagement</text><text fill="#334155" font-family="Helvetica" font-size="14" lengthAdjust="spacing" textLength="241.2402" x="422.7483" y="1280.7803">archetype: generated-service-manager</text><text fill="#334155" font-family="Helvetica" font-size="14" lengthAdjust="spacing" textLength="156.4063" x="422.7483" y="1294.7803">status/finalizer: required /</text><text fill="#334155" font-family="Helvetica" font-size="14" lengthAdjust="spacing" textLength="174.3027" x="422.7483" y="1308.7803">retain-until-confirmed-delete</text><text fill="#334155" font-family="Helvetica" font-size="14" lengthAdjust="spacing" textLength="272.3984" x="422.7483" y="1322.7803">requeue: provisioning, updating, terminating</text><text fill="#334155" font-family="Helvetica" font-size="14" lengthAdjust="spacing" textLength="295.6816" x="422.7483" y="1336.7803">provider states: create PROVISIONING; update</text><text fill="#334155" font-family="Helvetica" font-size="14" lengthAdjust="spacing" textLength="192.165" x="422.7483" y="1350.7803">UPDATING; delete DELETING</text><text fill="#334155" font-family="Helvetica" font-size="14" lengthAdjust="spacing" textLength="319.04" x="422.7483" y="1364.7803">mutable/forceNew: display_name / compartment_id</text><text fill="#334155" font-family="Helvetica" font-size="14" lengthAdjust="spacing" textLength="104.3164" x="422.7483" y="1378.7803">open gaps: none</text><text fill="#334155" font-family="Helvetica" font-size="14" lengthAdjust="spacing" textLength="224.9023" x="422.7483" y="1392.7803">Scaffold metadata only; replace with</text><text fill="#334155" font-family="Helvetica" font-size="14" lengthAdjust="spacing" textLength="244.3232" x="422.7483" y="1406.7803">controller-specific runtime states before</text><text fill="#334155" font-family="Helvetica" font-size="14" lengthAdjust="spacing" textLength="66.1445" x="422.7483" y="1420.7803">promotion.</text><ellipse cx="385.7483" cy="1249" fill="none" rx="11" ry="11" style="stroke:#222222;stroke-width:1;"/><ellipse cx="385.7483" cy="1249" fill="#222222" rx="6" ry="6" style="stroke:#222222;stroke-width:1;"/><line style="stroke:#0F172A;stroke-width:1;" x1="385.7483" x2="385.7483" y1="65" y2="85"/><polygon fill="#0F172A" points="381.7483,75,385.7483,85,389.7483,75,385.7483,79" style="stroke:#0F172A;stroke-width:1;"/><line style="stroke:#0F172A;stroke-width:1;" x1="385.7483" x2="385.7483" y1="133" y2="153"/><polygon fill="#0F172A" points="381.7483,143,385.7483,153,389.7483,143,385.7483,147" style="stroke:#0F172A;stroke-width:1;"/><line style="stroke:#0F172A;stroke-width:1;" x1="385.7483" x2="385.7483" y1="215" y2="235"/><polygon fill="#0F172A" points="381.7483,225,385.7483,235,389.7483,225,385.7483,229" style="stroke:#0F172A;stroke-width:1;"/><line style="stroke:#0F172A;stroke-width:1;" x1="385.7483" x2="385.7483" y1="325" y2="345"/><polygon fill="#0F172A" points="381.7483,335,385.7483,345,389.7483,335,385.7483,339" style="stroke:#0F172A;stroke-width:1;"/><line style="stroke:#0F172A;stroke-width:1;" x1="193.7646" x2="193.7646" y1="523" y2="543"/><polygon fill="#0F172A" points="189.7646,533,193.7646,543,197.7646,533,193.7646,537" style="stroke:#0F172A;stroke-width:1;"/><line style="stroke:#0F172A;stroke-width:1;" x1="320.0588" x2="193.7646" y1="453" y2="453"/><line style="stroke:#0F172A;stroke-width:1;" x1="193.7646" x2="193.7646" y1="453" y2="475"/><polygon fill="#0F172A" points="189.7646,465,193.7646,475,197.7646,465,193.7646,469" style="stroke:#0F172A;stroke-width:1;"/><line style="stroke:#0F172A;stroke-width:1;" x1="451.4377" x2="577.7319" y1="453" y2="453"/><line style="stroke:#0F172A;stroke-width:1;" x1="577.7319" x2="577.7319" y1="453" y2="475"/><polygon fill="#0F172A" points="573.7319,465,577.7319,475,581.7319,465,577.7319,469" style="stroke:#0F172A;stroke-width:1;"/><line style="stroke:#0F172A;stroke-width:1;" x1="193.7646" x2="193.7646" y1="591" y2="609"/><line style="stroke:#0F172A;stroke-width:1;" x1="193.7646" x2="373.7483" y1="609" y2="609"/><polygon fill="#0F172A" points="363.7483,605,373.7483,609,363.7483,613,367.7483,609" style="stroke:#0F172A;stroke-width:1;"/><line style="stroke:#0F172A;stroke-width:1;" x1="577.7319" x2="577.7319" y1="523" y2="609"/><line style="stroke:#0F172A;stroke-width:1;" x1="577.7319" x2="397.7483" y1="609" y2="609"/><polygon fill="#0F172A" points="407.7483,605,397.7483,609,407.7483,613,403.7483,609" style="stroke:#0F172A;stroke-width:1;"/><line style="stroke:#0F172A;stroke-width:1;" x1="385.7483" x2="385.7483" y1="421" y2="441"/><polygon fill="#0F172A" points="381.7483,431,385.7483,441,389.7483,431,385.7483,435" style="stroke:#0F172A;stroke-width:1;"/><line style="stroke:#0F172A;stroke-width:1;" x1="385.7483" x2="385.7483" y1="621" y2="641"/><polygon fill="#0F172A" points="381.7483,631,385.7483,641,389.7483,631,385.7483,635" style="stroke:#0F172A;stroke-width:1;"/><line style="stroke:#0F172A;stroke-width:1;" x1="385.7483" x2="385.7483" y1="745" y2="765"/><polygon fill="#0F172A" points="381.7483,755,385.7483,765,389.7483,755,385.7483,759" style="stroke:#0F172A;stroke-width:1;"/><line style="stroke:#0F172A;stroke-width:1;" x1="385.7483" x2="385.7483" y1="799" y2="819"/><polygon fill="#0F172A" points="381.7483,809,385.7483,819,389.7483,809,385.7483,813" style="stroke:#0F172A;stroke-width:1;"/><line style="stroke:#0F172A;stroke-width:1;" x1="385.7483" x2="385.7483" y1="937" y2="957"/><polygon fill="#0F172A" points="381.7483,947,385.7483,957,389.7483,947,385.7483,951" style="stroke:#0F172A;stroke-width:1;"/><line style="stroke:#0F172A;stroke-width:1;" x1="385.7483" x2="385.7483" y1="1005" y2="1025"/><polygon fill="#0F172A" points="381.7483,1015,385.7483,1025,389.7483,1015,385.7483,1019" style="stroke:#0F172A;stroke-width:1;"/><line style="stroke:#0F172A;stroke-width:1;" x1="385.7483" x2="385.7483" y1="1059" y2="1238"/><polygon fill="#0F172A" points="381.7483,1228,385.7483,1238,389.7483,1228,385.7483,1232" style="stroke:#0F172A;stroke-width:1;"/><?plantuml-src dLRVRzis47xdNq5WBobWsKcJjfcCO4ZjD0sM9O7JB2y20beyMLmeKYKfUzwm_tr7KfOLDnYS8G-AgEFz-EwxxsoVXQgPOHMr9UDw9TI25anQ8BRxCcVvyyBeHl69bjhGdueS_tZFWaF16kc-QELkM0NqAyWbE96prstknLz0Zqvw7vanUjLwFooEFhtltrJQmUSVSYYAJ_pZhfKs74nhCJ_vS7puyuw53zz-Fpu-EVhmeVSzkC-rKM3eqKVYX9D0ptCdbiAjQO8LB7LjHzFmc46jhN3QhEyC-iqTyC-6gRpyZIcsW0gKwzUtyV8teQ_WULgm8lTV-lctE51QR7FkphXWbLRy1rZWFPmMXps3liSZVWByTFlnookEhMF6xTf3vx-pcxCTh_-GS9Maz_v12wC3fmnmMaYzobHy6M7i1K9YH_4zCP1hbGi9oGQaeLqknYIzremZvbQWLQRsHftQ6l9CCSLzBQwnCPLVcpbWPnrOT3q3gv6Xz7Po5Oo0BWNBr2MulSDaQYLScQbhOTzo2MTB-lvZ4WyM49IS5OMM_2cIgtsOpbMzSJKFhgg-Ao4T64jpNI79d3zy4dpG5hGgGVdwfbHg_TpKcS9UpONYoH8lDJR93NWx1S0jbLW5DHwLnWcjnaGKzC2Zr9WSAFo9d-qlxwZpJW_MODzX-ZNtzslcIffZLJPJyMXlD123ouOPJgl6iJdEMY50OZ9Ss5gozPFoKe9zn58rff4eM6rCNjOy9e2AHG-KnhmciQv-Nl7e3NaXtqM1D6aKnGOi1OuGBK7M_e5eeik8tfahJ0lIC0RPO3R8LE_R8nCeVEPHc-SPV6_0kaSapmMAdlcA1KfKtKnXP2J_cOCAgySA_3XeTJQPNPn_kvYECzK4UFin8-2Rc6Z2GS9BasauwKn8UbxNSaqzmnBMk5Bx0RM0zJXQQodoDUgayeRnPWIoiM3z3FgJDuu8XlhU-1d-FpEcpPidp6awlRY-GCYG9JWafcAHqYbU-WClRHDgzS5BHI4KaxYMJ0j2fX0G9bJIO5Taqdf2kOe81mt1HZP0TSiHYq6mZmCQsXJ-m_6iqAz_6QCwwfhu5KIDM9Iu7A8sjdAOaZV98-c9B0xbHcWxu-t2mUA8LqGHokled7WHmXkJsSDqG5V8pq4q3P0aTOGAIq85HXoaHVuR6989hWoZfKGFKkDuRGDj4gUCS-Br98d2GqkXd1syu9W0F8X8ah8TW12VwXeL1iUzGjSBLjiXOIOlmQrhm9NZyZAbbu0B6cdlQMkM0eKXgg8XUPUSfRsQNmN8qve4VhRHZEyq2evUeNjRYdf8Mlzfk_c9bSrYyxA7H1DS_pob-_zUw4fDwM9JPB9RPEpGg2DikkNpYFmdQOc9b4tt8IpfX2_i4vlITc7SpMv_lxg_khsvkhaSnxj07kwcvz_2GGmLHn0FIAljeo3XDx1ANyhxQ4VAII20xtmQT8ZSjmkILbWQnc8uS78zzW8c6Uucty9UuvFGzqBaNJzZ-dGEc07ugYhjUJtq8Xz-4luB?></g></svg>