<?plantuml 1.2026.1?><svg xmlns="http://www.w3.org/2000/svg" xmlns:xlink="http://www.w3.org/1999/xlink" contentStyleType="text/css" data-diagram-type="STATE" height="583px" preserveAspectRatio="none" style="width:3532px;height:583px;background:#FCFCFD;" version="1.1" viewBox="0 0 3532 583" width="3532px" zoomAndPan="magnify"><title>State Machine - containerengine/VirtualNode</title><defs/><g><rect fill="#FCFCFD" height="583" style="stroke:none;stroke-width:1;" width="3532" x="0" y="0"/><g class="title" data-source-line="10"><text fill="#000000" font-family="Helvetica" font-size="14" font-weight="bold" lengthAdjust="spacing" textLength="297.165" x="1610.7454" y="20.7803">State Machine - containerengine/VirtualNode</text></g><g><rect fill="#F8FAFC" height="62" rx="8" ry="8" style="stroke:#0F172A;stroke-width:0.5;" width="264.3643" x="203" y="403"/><line style="stroke:#0F172A;stroke-width:0.5;" x1="203" x2="467.3643" y1="427" y2="427"/><text fill="#0F172A" font-family="Helvetica" font-size="14" lengthAdjust="spacing" textLength="52.9102" x="308.7271" y="418.7803">Observe</text><text fill="#0F172A" font-family="Helvetica" font-size="14" lengthAdjust="spacing" textLength="244.3643" x="208" y="442.7803">read spec, tracked status, delete intent,</text><text fill="#0F172A" font-family="Helvetica" font-size="14" lengthAdjust="spacing" textLength="153.2822" x="208" y="456.7803">and current OCI lifecycle</text></g><rect fill="#F8FAFC" height="40" rx="8" ry="8" style="stroke:#0F172A;stroke-width:0.5;" width="104.9512" x="1264.36" y="246"/><text fill="#0F172A" font-family="Helvetica" font-size="14" lengthAdjust="spacing" textLength="94.9512" x="1269.36" y="269.7803">EvaluateReady</text><rect fill="#F8FAFC" height="40" rx="8" ry="8" style="stroke:#0F172A;stroke-width:0.5;" width="50.4688" x="2023.32" y="246"/><text fill="#0F172A" font-family="Helvetica" font-size="14" lengthAdjust="spacing" textLength="40.4688" x="2028.32" y="269.7803">Ready</text><rect fill="#F8FAFC" height="40" rx="8" ry="8" style="stroke:#0F172A;stroke-width:0.5;" width="69.917" x="1281.88" y="381"/><text fill="#0F172A" font-family="Helvetica" font-size="14" lengthAdjust="spacing" textLength="59.917" x="1286.88" y="404.7803">Retryable</text><rect fill="#F8FAFC" height="40" rx="8" ry="8" style="stroke:#0F172A;stroke-width:0.5;" width="50" x="1291.84" y="500"/><text fill="#0F172A" font-family="Helvetica" font-size="14" lengthAdjust="spacing" textLength="38.1309" x="1297.7746" y="523.7803">Failed</text><rect fill="#F8FAFC" height="40" rx="8" ry="8" style="stroke:#0F172A;stroke-width:0.5;" width="122.8477" x="745.44" y="357"/><text fill="#0F172A" font-family="Helvetica" font-size="14" lengthAdjust="spacing" textLength="112.8477" x="750.44" y="380.7803">ResolveByLookup</text><rect fill="#F8FAFC" height="40" rx="8" ry="8" style="stroke:#0F172A;stroke-width:0.5;" width="155.5098" x="1598.56" y="336"/><text fill="#0F172A" font-family="Helvetica" font-size="14" lengthAdjust="spacing" textLength="145.5098" x="1603.56" y="359.7803">RejectUnsupportedDrift</text><rect fill="#F8FAFC" height="40" rx="8" ry="8" style="stroke:#0F172A;stroke-width:0.5;" width="90.165" x="1631.23" y="175"/><text fill="#0F172A" font-family="Helvetica" font-size="14" lengthAdjust="spacing" textLength="80.165" x="1636.23" y="198.7803">ApplyUpdate</text><rect fill="#F8FAFC" height="40" rx="8" ry="8" style="stroke:#0F172A;stroke-width:0.5;" width="101.8477" x="2365.1" y="492"/><text fill="#0F172A" font-family="Helvetica" font-size="14" lengthAdjust="spacing" textLength="91.8477" x="2370.1" y="515.7803">DeletePending</text><rect fill="#F8FAFC" height="40" rx="8" ry="8" style="stroke:#0F172A;stroke-width:0.5;" width="58.2549" x="3443.94" y="433"/><text fill="#0F172A" font-family="Helvetica" font-size="14" lengthAdjust="spacing" textLength="48.2549" x="3448.94" y="456.7803">Deleted</text><rect fill="#F8FAFC" height="40" rx="8" ry="8" style="stroke:#0F172A;stroke-width:0.5;" width="152.4268" x="2967.39" y="433"/><text fill="#0F172A" font-family="Helvetica" font-size="14" lengthAdjust="spacing" textLength="142.4268" x="2972.39" y="456.7803">DeleteCleanupBlocked</text><ellipse cx="16" cy="434" fill="#222222" rx="10" ry="10" style="stroke:#222222;stroke-width:1;"/><g class="entity" data-qualified-name="GMN2" data-source-line="55" id="ent0003"><path d="M2239.78,49 L2239.78,253.16 L2074.1,264.86 L2239.78,261.16 L2239.78,449 A8,8 0 0 0 2247.78,457 L2584.2614,457 A8,8 0 0 0 2592.2614,449 L2592.2614,51 L2582.2614,41 L2247.78,41 A8,8 0 0 0 2239.78,49" fill="#FFF7D6" style="stroke:#B45309;stroke-width:0.5;"/><path d="M2582.2614,41 L2582.2614,47 A4,4 0 0 0 2586.2614,51 L2592.2614,51 L2582.2614,41" fill="#FFF7D6" style="stroke:#B45309;stroke-width:0.5;"/><text fill="#334155" font-family="Helvetica" font-size="14" lengthAdjust="spacing" textLength="101.165" x="2245.78" y="56.7803">shared diagram:</text><text fill="#334155" font-family="Helvetica" font-size="14" lengthAdjust="spacing" textLength="331.4814" x="2245.78" y="70.7803">shared/diagrams/shared-controller-state-machine.svg</text><text fill="#334155" font-family="Helvetica" font-size="14" lengthAdjust="spacing" textLength="304.2744" x="2245.78" y="84.7803">Start from the shared controller phase model and</text><text fill="#334155" font-family="Helvetica" font-size="14" lengthAdjust="spacing" textLength="261.4678" x="2245.78" y="98.7803">specialize imported provider states, delete</text><text fill="#334155" font-family="Helvetica" font-size="14" lengthAdjust="spacing" textLength="184.4336" x="2245.78" y="112.7803">targets, and failure exits here.</text><text fill="#334155" font-family="Helvetica" font-size="14" lengthAdjust="spacing" textLength="281.709" x="2245.78" y="126.7803">archetype batch: Generated service-manager</text><text fill="#334155" font-family="Helvetica" font-size="14" lengthAdjust="spacing" textLength="287.9229" x="2245.78" y="140.7803">controllers map provider states into the shared</text><text fill="#334155" font-family="Helvetica" font-size="14" lengthAdjust="spacing" textLength="261.4609" x="2245.78" y="154.7803">controller phases with explicit finalizer and</text><text fill="#334155" font-family="Helvetica" font-size="14" lengthAdjust="spacing" textLength="105.8477" x="2245.78" y="168.7803">requeue policies.</text><text fill="#334155" font-family="Helvetica" font-size="14" lengthAdjust="spacing" textLength="151.7578" x="2245.78" y="182.7803">service: containerengine</text><text fill="#334155" font-family="Helvetica" font-size="14" lengthAdjust="spacing" textLength="101.9512" x="2245.78" y="196.7803">slug: virtualnode</text><text fill="#334155" font-family="Helvetica" font-size="14" lengthAdjust="spacing" textLength="106.6133" x="2245.78" y="210.7803">kind: VirtualNode</text><text fill="#334155" font-family="Helvetica" font-size="14" lengthAdjust="spacing" textLength="241.2402" x="2245.78" y="224.7803">archetype: generated-service-manager</text><text fill="#334155" font-family="Helvetica" font-size="14" lengthAdjust="spacing" textLength="156.4063" x="2245.78" y="238.7803">status/finalizer: required /</text><text fill="#334155" font-family="Helvetica" font-size="14" lengthAdjust="spacing" textLength="174.3027" x="2245.78" y="252.7803">retain-until-confirmed-delete</text><text fill="#334155" font-family="Helvetica" font-size="14" lengthAdjust="spacing" textLength="272.3984" x="2245.78" y="266.7803">requeue: provisioning, updating, terminating</text><text fill="#334155" font-family="Helvetica" font-size="14" lengthAdjust="spacing" textLength="295.6816" x="2245.78" y="280.7803">provider states: create PROVISIONING; update</text><text fill="#334155" font-family="Helvetica" font-size="14" lengthAdjust="spacing" textLength="192.165" x="2245.78" y="294.7803">UPDATING; delete DELETING</text><text fill="#334155" font-family="Helvetica" font-size="14" lengthAdjust="spacing" textLength="183.6611" x="2245.78" y="308.7803">supported drift: display_name</text><text fill="#334155" font-family="Helvetica" font-size="14" lengthAdjust="spacing" textLength="230.3301" x="2245.78" y="322.7803">reject before mutate: force-new fields</text><text fill="#334155" font-family="Helvetica" font-size="14" lengthAdjust="spacing" textLength="100.3789" x="2245.78" y="336.7803">compartment_id</text><text fill="#334155" font-family="Helvetica" font-size="14" lengthAdjust="spacing" textLength="66.1445" x="2245.78" y="350.7803">list lookup:</text><text fill="#334155" font-family="Helvetica" font-size="14" lengthAdjust="spacing" textLength="269.2813" x="2245.78" y="364.7803">scaffold_containerengine_virtualnode filters</text><text fill="#334155" font-family="Helvetica" font-size="14" lengthAdjust="spacing" textLength="138.5098" x="2245.78" y="378.7803">compartment_id, state</text><text fill="#334155" font-family="Helvetica" font-size="14" lengthAdjust="spacing" textLength="89.4961" x="2245.78" y="392.7803">conflicts: none</text><text fill="#334155" font-family="Helvetica" font-size="14" lengthAdjust="spacing" textLength="104.3164" x="2245.78" y="406.7803">open gaps: none</text><text fill="#334155" font-family="Helvetica" font-size="14" lengthAdjust="spacing" textLength="224.9023" x="2245.78" y="420.7803">Scaffold metadata only; replace with</text><text fill="#334155" font-family="Helvetica" font-size="14" lengthAdjust="spacing" textLength="244.3232" x="2245.78" y="434.7803">controller-specific runtime states before</text><text fill="#334155" font-family="Helvetica" font-size="14" lengthAdjust="spacing" textLength="66.1445" x="2245.78" y="448.7803">promotion.</text></g><g class="entity" data-qualified-name="GMN5" data-source-line="86" id="ent0006"><path d="M2927.27,516 L2927.27,531.64 L2467.42,514.34 L2927.27,539.64 L2927.27,566 A8,8 0 0 0 2935.27,574 L3151.9448,574 A8,8 0 0 0 3159.9448,566 L3159.9448,518 L3149.9448,508 L2935.27,508 A8,8 0 0 0 2927.27,516" fill="#FFF7D6" style="stroke:#B45309;stroke-width:0.5;"/><path d="M3149.9448,508 L3149.9448,514 A4,4 0 0 0 3153.9448,518 L3159.9448,518 L3149.9448,508" fill="#FFF7D6" style="stroke:#B45309;stroke-width:0.5;"/><text fill="#334155" font-family="Helvetica" font-size="14" lengthAdjust="spacing" textLength="136.9717" x="2933.27" y="523.7803">delete policy: required</text><text fill="#334155" font-family="Helvetica" font-size="14" lengthAdjust="spacing" textLength="211.6748" x="2933.27" y="537.7803">delete observe: GetVirtualNode or</text><text fill="#334155" font-family="Helvetica" font-size="14" lengthAdjust="spacing" textLength="94.9375" x="2933.27" y="551.7803">ListVirtualNode</text><text fill="#334155" font-family="Helvetica" font-size="14" lengthAdjust="spacing" textLength="157.1855" x="2933.27" y="565.7803">delete targets: DELETED</text></g><!--link *start* to observe--><g class="link" data-entity-1="ent0002" data-entity-2="ent0002" data-link-type="dependency" data-source-line="32" id="lnk3"><path d="M26.49,434 C53.19,434 125.61,434 196.6,434" fill="none" id="*start*-to-observe" style="stroke:#0F172A;stroke-width:1;"/><polygon fill="#0F172A" points="202.6,434,193.6,430,197.6,434,193.6,438,202.6,434" style="stroke:#0F172A;stroke-width:1;"/><text fill="#000000" font-family="Helvetica" font-size="14" lengthAdjust="spacing" textLength="115.1719" x="57" y="429.7803">CreateVirtualNode</text></g><!--link observe to resolve_by_lookup--><g class="link" data-entity-1="ent0002" data-entity-2="ent0007" data-link-type="dependency" data-source-line="33" id="lnk4"><path d="M467.64,418.05 C558.55,407.01 669.3337,393.5731 739.1837,385.0931" fill="none" id="observe-to-resolve_by_lookup" style="stroke:#0F172A;stroke-width:1;"/><polygon fill="#0F172A" points="745.14,384.37,735.7235,381.4838,740.1764,384.9726,736.6877,389.4255,745.14,384.37" style="stroke:#0F172A;stroke-width:1;"/><text fill="#000000" font-family="Helvetica" font-size="14" lengthAdjust="spacing" textLength="145.5029" x="498.36" y="392.8403">tracked identity missing</text></g><!--link resolve_by_lookup to evaluate_ready--><g class="link" data-entity-1="ent0007" data-entity-2="ent0003" data-link-type="dependency" data-source-line="34" id="lnk5"><path d="M868.57,365.58 C982.1,344.19 1216.77,299.79 1234.36,295 C1244.07,292.36 1248.6038,291.0543 1258.3838,287.7043" fill="none" id="resolve_by_lookup-to-evaluate_ready" style="stroke:#0F172A;stroke-width:1;"/><polygon fill="#0F172A" points="1264.06,285.76,1254.2494,284.8923,1259.3298,287.3803,1256.8419,292.4606,1264.06,285.76" style="stroke:#0F172A;stroke-width:1;"/><text fill="#000000" font-family="Helvetica" font-size="14" lengthAdjust="spacing" textLength="154.0889" x="1024.86" y="276.7803">lookup or create reaches</text><text fill="#000000" font-family="Helvetica" font-size="14" lengthAdjust="spacing" textLength="50.5654" x="1076.6217" y="290.7803">ACTIVE</text></g><!--link resolve_by_lookup to retryable--><g class="link" data-entity-1="ent0007" data-entity-2="ent0005" data-link-type="dependency" data-source-line="35" id="lnk6"><path d="M868.63,379.87 C976.21,384.95 1190.8067,395.0973 1275.5967,399.0973" fill="none" id="resolve_by_lookup-to-retryable" style="stroke:#0F172A;stroke-width:1;"/><polygon fill="#0F172A" points="1281.59,399.38,1272.7885,394.9603,1276.5956,399.1444,1272.4115,402.9514,1281.59,399.38" style="stroke:#0F172A;stroke-width:1;"/><text fill="#000000" font-family="Helvetica" font-size="14" lengthAdjust="spacing" textLength="184.3789" x="1009.86" y="366.5403">OCI state in PROVISIONING,</text><text fill="#000000" font-family="Helvetica" font-size="14" lengthAdjust="spacing" textLength="150.1309" x="1026.984" y="380.5403">UPDATING, DELETING</text></g><!--link resolve_by_lookup to failed--><g class="link" data-entity-1="ent0007" data-entity-2="ent0006" data-link-type="dependency" data-source-line="36" id="lnk7"><path d="M868.63,394.11 C980.69,425.65 1209.5847,490.0834 1285.6747,511.5134" fill="none" id="resolve_by_lookup-to-failed" style="stroke:#0F172A;stroke-width:1;"/><polygon fill="#0F172A" points="1291.45,513.14,1283.8714,506.8499,1286.6372,511.7845,1281.7026,514.5504,1291.45,513.14" style="stroke:#0F172A;stroke-width:1;"/><text fill="#000000" font-family="Helvetica" font-size="14" lengthAdjust="spacing" textLength="263.7783" x="970.36" y="419.0303">unresolved OCI error or non-success state</text></g><!--link observe to evaluate_ready--><g class="link" data-entity-1="ent0002" data-entity-2="ent0003" data-link-type="dependency" data-source-line="37" id="lnk8"><path d="M412.96,402.64 C439.45,392.43 469.47,381.55 497.36,373 C703.5,309.82 755.22,286.06 969.36,261 C1073.33,248.83 1190.0497,255.0341 1257.9897,260.5541" fill="none" id="observe-to-evaluate_ready" style="stroke:#0F172A;stroke-width:1;"/><polygon fill="#0F172A" points="1263.97,261.04,1255.3235,256.3243,1258.9864,260.6351,1254.6756,264.298,1263.97,261.04" style="stroke:#0F172A;stroke-width:1;"/><text fill="#000000" font-family="Helvetica" font-size="14" lengthAdjust="spacing" textLength="128.3721" x="742.86" y="260.9503">OCI state in ACTIVE</text></g><!--link observe to retryable--><g class="link" data-entity-1="ent0002" data-entity-2="ent0005" data-link-type="dependency" data-source-line="38" id="lnk9"><path d="M467.47,438.33 C530.11,440.38 606.11,442.85 674.36,445 C923.16,452.84 995.72,524.79 1234.36,454 C1245.77,450.62 1264.445,438.3638 1283.305,424.9138" fill="none" id="observe-to-retryable" style="stroke:#0F172A;stroke-width:1;"/><polygon fill="#0F172A" points="1288.19,421.43,1278.54,423.3989,1284.1191,424.3331,1283.185,429.9123,1288.19,421.43" style="stroke:#0F172A;stroke-width:1;"/><text fill="#000000" font-family="Helvetica" font-size="14" lengthAdjust="spacing" textLength="184.3789" x="714.86" y="426.7803">OCI state in PROVISIONING,</text><text fill="#000000" font-family="Helvetica" font-size="14" lengthAdjust="spacing" textLength="150.1309" x="731.984" y="440.7803">UPDATING, DELETING</text></g><!--link observe to failed--><g class="link" data-entity-1="ent0002" data-entity-2="ent0006" data-link-type="dependency" data-source-line="39" id="lnk10"><path d="M467.52,464.76 C529.83,478.03 605.56,492.26 674.36,500 C913.8,526.92 1200.4516,522.7695 1285.5616,520.7895" fill="none" id="observe-to-failed" style="stroke:#0F172A;stroke-width:1;"/><polygon fill="#0F172A" points="1291.56,520.65,1282.4694,516.8604,1286.5614,520.7663,1282.6555,524.8582,1291.56,520.65" style="stroke:#0F172A;stroke-width:1;"/><text fill="#000000" font-family="Helvetica" font-size="14" lengthAdjust="spacing" textLength="263.7783" x="675.36" y="495.7803">unresolved OCI error or non-success state</text></g><!--link evaluate_ready to reject_unsupported_drift--><g class="link" data-entity-1="ent0003" data-entity-2="ent0008" data-link-type="dependency" data-source-line="40" id="lnk11"><path d="M1341.06,286.48 C1356.49,298.89 1377.81,313.85 1399.32,322 C1463.53,346.35 1535.6042,353.9058 1592.3042,356.0258" fill="none" id="evaluate_ready-to-reject_unsupported_drift" style="stroke:#0F172A;stroke-width:1;"/><polygon fill="#0F172A" points="1598.3,356.25,1589.4557,351.9165,1593.3035,356.0632,1589.1568,359.9109,1598.3,356.25" style="stroke:#0F172A;stroke-width:1;"/><text fill="#000000" font-family="Helvetica" font-size="14" lengthAdjust="spacing" textLength="143.9512" x="1410.32" y="303.7803">force-new or conflicting</text><text fill="#000000" font-family="Helvetica" font-size="14" lengthAdjust="spacing" textLength="80.9375" x="1441.8268" y="317.7803">drift detected</text></g><!--link reject_unsupported_drift to ready--><g class="link" data-entity-1="ent0008" data-entity-2="ent0004" data-link-type="dependency" data-source-line="41" id="lnk12"><path d="M1754.32,355.06 C1820.2,351.77 1916.3,341 1993.32,308 C2005.36,302.84 2012.4802,298.2363 2021.9202,290.2463" fill="none" id="reject_unsupported_drift-to-ready" style="stroke:#0F172A;stroke-width:1;"/><polygon fill="#0F172A" points="2026.5,286.37,2017.0461,289.1313,2022.6835,289.6003,2022.2146,295.2376,2026.5,286.37" style="stroke:#0F172A;stroke-width:1;"/><text fill="#000000" font-family="Helvetica" font-size="14" lengthAdjust="spacing" textLength="203.8818" x="1789.32" y="303.7803">wait for spec or live state change</text></g><!--link evaluate_ready to apply_update--><g class="link" data-entity-1="ent0003" data-entity-2="ent0009" data-link-type="dependency" data-source-line="42" id="lnk13"><path d="M1369.72,248.96 C1379.49,246.07 1389.67,243.27 1399.32,241 C1480.17,221.95 1570.2022,208.6097 1625.0322,201.3297" fill="none" id="evaluate_ready-to-apply_update" style="stroke:#0F172A;stroke-width:1;"/><polygon fill="#0F172A" points="1630.98,200.54,1621.5318,197.7594,1626.0235,201.1981,1622.5848,205.6898,1630.98,200.54" style="stroke:#0F172A;stroke-width:1;"/><text fill="#000000" font-family="Helvetica" font-size="14" lengthAdjust="spacing" textLength="163.4199" x="1400.32" y="192.0903">supported mutable drift for</text><text fill="#000000" font-family="Helvetica" font-size="14" lengthAdjust="spacing" textLength="86.3857" x="1438.8371" y="206.0903">display_name</text></g><!--link apply_update to ready--><g class="link" data-entity-1="ent0009" data-entity-2="ent0004" data-link-type="dependency" data-source-line="43" id="lnk14"><path d="M1721.88,197.45 C1783.86,201.76 1899.1,213.07 1993.32,241 C2003.36,243.98 2008.5025,245.9001 2017.6125,250.2801" fill="none" id="apply_update-to-ready" style="stroke:#0F172A;stroke-width:1;"/><polygon fill="#0F172A" points="2023.02,252.88,2016.642,245.3752,2018.5138,250.7135,2013.1756,252.5852,2023.02,252.88" style="stroke:#0F172A;stroke-width:1;"/><text fill="#000000" font-family="Helvetica" font-size="14" lengthAdjust="spacing" textLength="141.6543" x="1820.32" y="199.4503">update path completes</text></g><!--link evaluate_ready to ready--><g class="link" data-entity-1="ent0003" data-entity-2="ent0004" data-link-type="dependency" data-source-line="44" id="lnk15"><path d="M1369.73,266 C1514.46,266 1912.77,266 2016.86,266" fill="none" id="evaluate_ready-to-ready" style="stroke:#0F172A;stroke-width:1;"/><polygon fill="#0F172A" points="2022.86,266,2013.86,262,2017.86,266,2013.86,270,2022.86,266" style="stroke:#0F172A;stroke-width:1;"/><text fill="#000000" font-family="Helvetica" font-size="14" lengthAdjust="spacing" textLength="162.6406" x="1595.32" y="261.7803">no supported drift remains</text></g><!--link ready to ready--><g class="link" data-entity-1="ent0004" data-entity-2="ent0004" data-link-type="dependency" data-source-line="45" id="lnk16"><path d="M2031.35,245.69 C2024,228.73 2029.74,211 2048.55,211 C2067.36,211 2075.4858,223.2247 2068.1358,240.1847" fill="none" id="ready-to-ready" style="stroke:#0F172A;stroke-width:1;"/><polygon fill="#0F172A" points="2065.75,245.69,2072.9989,239.0227,2067.7382,241.1023,2065.6586,235.8416,2065.75,245.69" style="stroke:#0F172A;stroke-width:1;"/><text fill="#000000" font-family="Helvetica" font-size="14" lengthAdjust="spacing" textLength="162.6406" x="1967.55" y="201.7803">no supported drift remains</text></g><!--link retryable to retryable--><g class="link" data-entity-1="ent0005" data-entity-2="ent0005" data-link-type="dependency" data-source-line="46" id="lnk17"><path d="M1290.63,380.69 C1279.42,363.73 1288.16,346 1316.84,346 C1345.52,346 1357.5564,358.7232 1346.3564,375.6832" fill="none" id="retryable-to-retryable" style="stroke:#0F172A;stroke-width:1;"/><polygon fill="#0F172A" points="1343.05,380.69,1351.3474,375.3841,1345.8053,376.5177,1344.6717,370.9756,1343.05,380.69" style="stroke:#0F172A;stroke-width:1;"/><text fill="#000000" font-family="Helvetica" font-size="14" lengthAdjust="spacing" textLength="136.9307" x="1248.84" y="336.7803">OCI remains retryable</text></g><!--link failed to failed--><g class="link" data-entity-1="ent0006" data-entity-2="ent0006" data-link-type="dependency" data-source-line="47" id="lnk18"><path d="M1291.41,500.83 C1279.04,483.53 1287.52,465 1316.84,465 C1346.16,465 1358.1298,478.6493 1345.7598,495.9493" fill="none" id="failed-to-failed" style="stroke:#0F172A;stroke-width:1;"/><polygon fill="#0F172A" points="1342.27,500.83,1350.7585,495.8355,1345.1782,496.7628,1344.251,491.1824,1342.27,500.83" style="stroke:#0F172A;stroke-width:1;"/><text fill="#000000" font-family="Helvetica" font-size="14" lengthAdjust="spacing" textLength="132.2549" x="1250.84" y="455.7803">OCI remains terminal</text></g><!--link ready to delete_pending--><g class="link" data-entity-1="ent0004" data-entity-2="ent0010" data-link-type="dependency" data-source-line="48" id="lnk19"><path d="M2074.1,281.72 C2108.51,304.84 2171.19,351.04 2209.78,404 C2229.96,431.68 2213.35,453.21 2239.78,475 C2274.69,503.78 2320.535,511.5554 2358.775,513.1154" fill="none" id="ready-to-delete_pending" style="stroke:#0F172A;stroke-width:1;"/><polygon fill="#0F172A" points="2364.77,513.36,2355.9405,508.9965,2359.7742,513.1562,2355.6144,516.9898,2364.77,513.36" style="stroke:#0F172A;stroke-width:1;"/><text fill="#000000" font-family="Helvetica" font-size="14" lengthAdjust="spacing" textLength="104.3027" x="2104.78" y="299.3403">delete requested</text></g><!--link retryable to delete_pending--><g class="link" data-entity-1="ent0005" data-entity-2="ent0010" data-link-type="dependency" data-source-line="49" id="lnk20"><path d="M1351.89,404.08 C1470.37,414.87 1875.63,452.17 2209.78,488 C2262.75,493.68 2317.3732,500.1316 2358.9132,505.1416" fill="none" id="retryable-to-delete_pending" style="stroke:#0F172A;stroke-width:1;"/><polygon fill="#0F172A" points="2364.87,505.86,2356.4137,500.8111,2359.906,505.2613,2355.4558,508.7536,2364.87,505.86" style="stroke:#0F172A;stroke-width:1;"/><text fill="#000000" font-family="Helvetica" font-size="14" lengthAdjust="spacing" textLength="104.3027" x="1838.82" y="441.7603">delete requested</text></g><!--link failed to delete_pending--><g class="link" data-entity-1="ent0006" data-entity-2="ent0010" data-link-type="dependency" data-source-line="50" id="lnk21"><path d="M1342.29,519.82 C1481.18,518.81 2165.3002,513.8238 2358.6202,512.4138" fill="none" id="failed-to-delete_pending" style="stroke:#0F172A;stroke-width:1;"/><polygon fill="#0F172A" points="2364.62,512.37,2355.5911,508.4357,2359.6201,512.4065,2355.6494,516.4355,2364.62,512.37" style="stroke:#0F172A;stroke-width:1;"/><text fill="#000000" font-family="Helvetica" font-size="14" lengthAdjust="spacing" textLength="104.3027" x="1838.82" y="510.8603">delete requested</text></g><!--link delete_pending to delete_cleanup_blocked--><g class="link" data-entity-1="ent0010" data-entity-2="ent0012" data-link-type="dependency" data-source-line="51" id="lnk22"><path d="M2467.42,507.25 C2577.05,496.91 2831.7265,472.8833 2961.1065,460.6833" fill="none" id="delete_pending-to-delete_cleanup_blocked" style="stroke:#0F172A;stroke-width:1;"/><polygon fill="#0F172A" points="2967.08,460.12,2957.7442,456.9826,2962.1021,460.5894,2958.4953,464.9472,2967.08,460.12" style="stroke:#0F172A;stroke-width:1;"/><text fill="#000000" font-family="Helvetica" font-size="14" lengthAdjust="spacing" textLength="273.1436" x="2623.27" y="463.0403">cleanup or finalizer release remains blocked</text></g><!--link delete_cleanup_blocked to deleted--><g class="link" data-entity-1="ent0012" data-entity-2="ent0011" data-link-type="dependency" data-source-line="52" id="lnk23"><path d="M3120.04,453 C3216.39,453 3372.46,453 3437.65,453" fill="none" id="delete_cleanup_blocked-to-deleted" style="stroke:#0F172A;stroke-width:1;"/><polygon fill="#0F172A" points="3443.65,453,3434.65,449,3438.65,453,3434.65,457,3443.65,453" style="stroke:#0F172A;stroke-width:1;"/><text fill="#000000" font-family="Helvetica" font-size="14" lengthAdjust="spacing" textLength="222.5645" x="3190.94" y="448.7803">retry delete completion until allowed</text></g><!--link deleted to deleted--><g class="link" data-entity-1="ent0011" data-entity-2="ent0011" data-link-type="dependency" data-source-line="53" id="lnk24"><path d="M3445.88,432.69 C3434.26,415.73 3443.32,398 3473.07,398 C3502.81,398 3515.2712,410.7803 3503.6512,427.7403" fill="none" id="deleted-to-deleted" style="stroke:#0F172A;stroke-width:1;"/><polygon fill="#0F172A" points="3500.26,432.69,3508.6467,427.5263,3503.086,428.5653,3502.0471,423.0046,3500.26,432.69" style="stroke:#0F172A;stroke-width:1;"/><text fill="#000000" font-family="Helvetica" font-size="14" lengthAdjust="spacing" textLength="92.5859" x="3427.07" y="388.7803">terminal stutter</text></g><?plantuml-src dLPPRzms47xNhnYaRuNNZXldw1eeu2kf0TSEujWlTR7WaYCj6ufKIShEjkX_x_2GbYlR21himuepmpc_cQ7x8dN7B6l1hPWm3r8tK3Fbi78ZPydubyQQNeiJeuo57sfEFr582AnPh_nxe_qbQn5-HNMFNdBsjCor_1jX_w1WCclDGzR-ijv_-rDvKnkFnuzygEktuirKobY1Daii3rw_UldpH2AOp_nNhmxsNxyk-54zDrQZXVqtbPTU8LnxvX5-OtmbDS8CE2bWz6bHD_ItTokjxvcwDA9CcOkt_gdWYUIzgrdD0wTqDWSDK6yS76capGx4VN60uXqHSTIOvVwj5DOUl04hcvK78IroBuskLb8WODlvDLN1SIkxI4vElhXQEhJt-0AO0vE-1zRPFLCzVNr29jPH03DbOGDfaDlm9sHlrsofCBFoQM2_PrAXYBmwVbRPFCoZ7d0TyXtmbbA88kQqTpiKWaAwBhL7xNVkDDC2U6-f81wkJiv1oHhvcc_iV49d28_7wmjZllHTTYRI5ilrGaNgHlXFojgDTdtN6UjHd5fP-tmdi1RzXhSGWJbSFUewjRxf11sYF0ldHHy9WynfTFuZ5OywBKgbS1PT8ctBYK92RBDE53BTTyVAXEIKcdZYB9Q9LVt-unymc_q2c-IUK7OzbiWTU47kKMhenb030fAclbX3AvqBxZuM3YgsKKBtCu_GogFjK5--GdUdZqu-dz-UFQDdX0of2ALD6P0QFdwwkZs_Fh-wFB_yG12u-NXwz3bymkdPnLduUaPXmXbfwtKM454nqlonmJrjzCprdADpoTfMQXx5jULK3cKxbzyTGAdcEzoUk9gSUHg_fBSsbkDCuqCiaT6raZGwT7EdauGWOF60mMTr90CfAmzC-g0oDd3Gg2G5acBdAwQR9zqhsuMKZ0QWxNrCOJ94UiahwJh5rWjDswRQkbZwaKaTyoiAgkr2UxYdCvCkQ5EOJUOijZJkNVK_XOUoFmM2B5KCn5pVhLANaXvjApLJXHVROuFayrYq-5UFBfMgTEBRyeKJtnQUI1IN9kE7BcTA048Teg3jRqaLKHsE8GxJwXaj6mCYRWSARN0gLvOs6hM7bmgOKkPXL3MzE-IIyDXxEbJXMP1Nfgc71RPYDbHLieRM-JoVz_BPxQNpB3m6h54AxIoYUzQcTyAkks-gwx2reRQc1Rz2o2etLw1RXGIqD7_9PqtpdRf5nlI0R3EkEclkQUZQr3tZzgj8TuEUpc7xXShrbbRyL-aThEXjibinI_FLhpka5uZdgpbyG7gqiA0pp1N9WxEQDPI0ZKiEMjPDROPDQueGgca83XuaTHX-xMXgXCuVYnoYYfZfgGjDuABRhRBz-VGjLJdLDtEuJtj9Xxr43oenXt9JZN7DeHaYcaqZIa-5lT6HUKIk3FdV2tr1HcSHAw62jRGjwSY9pUxEKnOSeOhmlPD6IVpA-0c7QfAf-R3Tokb-cCTGDSpumm6uuwYVZ15gjtAyfP4BIwJ9Xt4OUYmdTYrH2LU5DY30jRIW5r9KIZgVrox1bxEwDaei9XbV5BacFOfYcohQoVjaM0ek33wgbQ7MXuPrm_awcu2MqalnCZ1QhGyfyHG9nmYHgkoN0FPQSh2X42qEO4jXXios9lJqRaKZ9ZxT9uqwUJVbd4QKhJVr7kXvcuOsy0MSQ2PL5vIf4c7vHkwmUIhJsUdenty0?></g></svg>