<?plantuml 1.2026.1?><svg xmlns="http://www.w3.org/2000/svg" xmlns:xlink="http://www.w3.org/1999/xlink" contentStyleType="text/css" data-diagram-type="SEQUENCE" height="1315px" preserveAspectRatio="none" style="width:1120px;height:1315px;background:#FCFCFD;" version="1.1" viewBox="0 0 1120 1315" width="1120px" zoomAndPan="magnify"><title>Sequence - core/CoreNetworkSecurityGroupVnics</title><defs/><g><rect fill="#FCFCFD" height="1315" style="stroke:none;stroke-width:1;" width="1120" x="0" y="0"/><text fill="#000000" font-family="Helvetica" font-size="14" font-weight="bold" lengthAdjust="spacing" textLength="333.7646" x="390.6377" y="25.7803">Sequence - core/CoreNetworkSecurityGroupVnics</text><rect fill="none" height="86" rx="8" ry="8" style="stroke:#CBD5E1;stroke-width:1.5;" width="410.8335" x="678.5591" y="361"/><rect fill="none" height="204" rx="8" ry="8" style="stroke:#CBD5E1;stroke-width:1.5;" width="430.8335" x="668.5591" y="461"/><rect fill="none" height="44" rx="8" ry="8" style="stroke:#CBD5E1;stroke-width:1.5;" width="410.8335" x="678.5591" y="512"/><rect fill="none" height="44" rx="8" ry="8" style="stroke:#CBD5E1;stroke-width:1.5;" width="410.8335" x="678.5591" y="614"/><rect fill="none" height="116" rx="8" ry="8" style="stroke:#CBD5E1;stroke-width:1.5;" width="430.8335" x="668.5591" y="679"/><rect fill="none" height="58" rx="8" ry="8" style="stroke:#CBD5E1;stroke-width:1.5;" width="410.8335" x="678.5591" y="730"/><g class="participant-lifeline" data-entity-uid="part1" data-qualified-name="Kubernetes" id="part1-lifeline"><g><title>Kubernetes</title><rect fill="#000000" fill-opacity="0.00000" height="1194" width="8" x="39.8032" y="114"/><line style="stroke:#94A3B8;stroke-width:0.5;stroke-dasharray:5,5;" x1="43" x2="43" y1="114" y2="1308"/></g></g><g class="participant-lifeline" data-entity-uid="part2" data-qualified-name="Controller" id="part2-lifeline"><g><title>Controller</title><rect fill="#000000" fill-opacity="0.00000" height="1194" width="8" x="269.2095" y="114"/><line style="stroke:#94A3B8;stroke-width:0.5;stroke-dasharray:5,5;" x1="272.8647" x2="272.8647" y1="114" y2="1308"/></g></g><g class="participant-lifeline" data-entity-uid="part3" data-qualified-name="BaseReconciler" id="part3-lifeline"><g><title>BaseReconciler</title><rect fill="#000000" fill-opacity="0.00000" height="1194" width="8" x="508.0356" y="114"/><line style="stroke:#94A3B8;stroke-width:0.5;stroke-dasharray:5,5;" x1="512.0117" x2="512.0117" y1="114" y2="1308"/></g></g><g class="participant-lifeline" data-entity-uid="part4" data-qualified-name="ServiceManager" id="part4-lifeline"><g><title>OSOKServiceManager</title><rect fill="#000000" fill-opacity="0.00000" height="1194" width="8" x="762.7554" y="114"/><line style="stroke:#94A3B8;stroke-width:0.5;stroke-dasharray:5,5;" x1="766.5591" x2="766.5591" y1="114" y2="1308"/></g></g><g class="participant-lifeline" data-entity-uid="part5" data-qualified-name="OCI" id="part5-lifeline"><g><title>OCI</title><rect fill="#000000" fill-opacity="0.00000" height="1194" width="8" x="1055.9478" y="114"/><line style="stroke:#94A3B8;stroke-width:0.5;stroke-dasharray:5,5;" x1="1059.5029" x2="1059.5029" y1="114" y2="1308"/></g></g><g class="participant participant-head" data-entity-uid="part1" data-qualified-name="Kubernetes" id="part1-head"><text fill="#000000" font-family="Helvetica" font-size="14" lengthAdjust="spacing" textLength="71.6064" x="5" y="110.7803">Kubernetes</text><ellipse cx="43.8032" cy="48.5" fill="#E2E8F0" rx="8" ry="8" style="stroke:#0F172A;stroke-width:0.5;"/><path d="M43.8032,56.5 L43.8032,83.5 M30.8032,64.5 L56.8032,64.5 M43.8032,83.5 L30.8032,98.5 M43.8032,83.5 L56.8032,98.5" fill="none" style="stroke:#0F172A;stroke-width:0.5;"/></g><g class="participant participant-head" data-entity-uid="part2" data-qualified-name="Controller" id="part2-head"><rect fill="#E2E8F0" height="28" rx="8" ry="8" style="stroke:#0F172A;stroke-width:0.5;" width="74.6895" x="235.8647" y="85"/><text fill="#0F172A" font-family="Helvetica" font-size="14" lengthAdjust="spacing" textLength="60.6895" x="242.8647" y="102.7803">Controller</text></g><g class="participant participant-head" data-entity-uid="part3" data-qualified-name="BaseReconciler" id="part3-head"><rect fill="#E2E8F0" height="28" rx="8" ry="8" style="stroke:#0F172A;stroke-width:0.5;" width="112.0479" x="456.0117" y="85"/><text fill="#0F172A" font-family="Helvetica" font-size="14" lengthAdjust="spacing" textLength="98.0479" x="463.0117" y="102.7803">BaseReconciler</text></g><g class="participant participant-head" data-entity-uid="part4" data-qualified-name="ServiceManager" id="part4-head"><rect fill="#E2E8F0" height="28" rx="8" ry="8" style="stroke:#0F172A;stroke-width:0.5;" width="156.3926" x="688.5591" y="85"/><text fill="#0F172A" font-family="Helvetica" font-size="14" lengthAdjust="spacing" textLength="142.3926" x="695.5591" y="102.7803">OSOKServiceManager</text></g><g class="participant participant-head" data-entity-uid="part5" data-qualified-name="OCI" id="part5-head"><rect fill="#E2E8F0" height="28" rx="8" ry="8" style="stroke:#0F172A;stroke-width:0.5;" width="38.8896" x="1040.5029" y="85"/><text fill="#0F172A" font-family="Helvetica" font-size="14" lengthAdjust="spacing" textLength="24.8896" x="1047.5029" y="102.7803">OCI</text></g><path d="M447,137 L447,187 A8,8 0 0 0 455,195 L822,195 A8,8 0 0 0 830,187 L830,139 L820,129 L455,129 A8,8 0 0 0 447,137" fill="#FFF7D6" style="stroke:#B45309;stroke-width:0.5;"/><path d="M820,129 L820,135 A4,4 0 0 0 824,139 L830,139 L820,129" fill="#FFF7D6" style="stroke:#B45309;stroke-width:0.5;"/><text fill="#334155" font-family="Helvetica" font-size="14" lengthAdjust="spacing" textLength="111.2891" x="480.7742" y="144.7803">shared resolution:</text><text fill="#334155" font-family="Helvetica" font-size="14" lengthAdjust="spacing" textLength="307.3916" x="480.7742" y="158.7803">shared/diagrams/shared-resolution-sequence.svg</text><text fill="#334155" font-family="Helvetica" font-size="14" lengthAdjust="spacing" textLength="88.7305" x="480.7742" y="172.7803">shared delete:</text><text fill="#334155" font-family="Helvetica" font-size="14" lengthAdjust="spacing" textLength="284.833" x="480.7742" y="186.7803">shared/diagrams/shared-delete-sequence.svg</text><g class="message" data-entity-1="part1" data-entity-2="part2" id="msg1"><polygon fill="#0F172A" points="261.2095,244,271.2095,248,261.2095,252,265.2095,248" style="stroke:#0F172A;stroke-width:1;"/><line style="stroke:#0F172A;stroke-width:1;" x1="43.8032" x2="267.2095" y1="248" y2="248"/><text fill="#000000" font-family="Helvetica" font-size="14" lengthAdjust="spacing" textLength="54.5029" x="50.8032" y="214.7803">enqueue</text><text fill="#000000" font-family="Helvetica" font-size="14" lengthAdjust="spacing" textLength="205.4063" x="50.8032" y="228.7803">CoreNetworkSecurityGroupVnics</text><text fill="#000000" font-family="Helvetica" font-size="14" lengthAdjust="spacing" textLength="56.0273" x="50.8032" y="242.7803">reconcile</text></g><g class="message" data-entity-1="part2" data-entity-2="part3" id="msg2"><polygon fill="#0F172A" points="500.0356,272,510.0356,276,500.0356,280,504.0356,276" style="stroke:#0F172A;stroke-width:1;"/><line style="stroke:#0F172A;stroke-width:1;" x1="273.2095" x2="506.0356" y1="276" y2="276"/><text fill="#000000" font-family="Helvetica" font-size="14" lengthAdjust="spacing" textLength="117.4961" x="280.2095" y="270.7803">Reconcile(request)</text></g><g class="message" data-entity-1="part3" data-entity-2="part4" id="msg3"><polygon fill="#0F172A" points="754.7554,314,764.7554,318,754.7554,322,758.7554,318" style="stroke:#0F172A;stroke-width:1;"/><line style="stroke:#0F172A;stroke-width:1;" x1="512.0356" x2="760.7554" y1="318" y2="318"/><text fill="#000000" font-family="Helvetica" font-size="14" lengthAdjust="spacing" textLength="105.834" x="519.0356" y="298.7803">reconcile desired</text><text fill="#000000" font-family="Helvetica" font-size="14" lengthAdjust="spacing" textLength="205.4063" x="519.0356" y="312.7803">CoreNetworkSecurityGroupVnics</text></g><g class="message" data-entity-1="part4" data-entity-2="part5" id="msg4"><polygon fill="#0F172A" points="1047.9478,342,1057.9478,346,1047.9478,350,1051.9478,346" style="stroke:#0F172A;stroke-width:1;"/><line style="stroke:#0F172A;stroke-width:1;" x1="766.7554" x2="1053.9478" y1="346" y2="346"/><text fill="#000000" font-family="Helvetica" font-size="14" lengthAdjust="spacing" textLength="227.9717" x="773.7554" y="340.7803">GetCoreNetworkSecurityGroupVnics</text></g><path d="M686.5591,361 L745.3247,361 L745.3247,367 L735.3247,377 L678.5591,377 L678.5591,369 A8,8 0 0 1 686.5591,361" fill="#F8FAFC" style="stroke:#CBD5E1;stroke-width:1.5;"/><rect fill="none" height="86" rx="8" ry="8" style="stroke:#CBD5E1;stroke-width:1.5;" width="410.8335" x="678.5591" y="361"/><text fill="#000000" font-family="Helvetica" font-size="14" font-weight="bold" lengthAdjust="spacing" textLength="21.7656" x="693.5591" y="372.7803">opt</text><text fill="#000000" font-family="Helvetica" font-size="14" font-weight="bold" lengthAdjust="spacing" textLength="135.3516" x="760.3247" y="373.7803">[list lookup fallback]</text><g class="message" data-entity-1="part4" data-entity-2="part5" id="msg5"><polygon fill="#0F172A" points="1047.9478,407,1057.9478,411,1047.9478,415,1051.9478,411" style="stroke:#0F172A;stroke-width:1;"/><line style="stroke:#0F172A;stroke-width:1;" x1="766.7554" x2="1053.9478" y1="411" y2="411"/><text fill="#000000" font-family="Helvetica" font-size="14" lengthAdjust="spacing" textLength="269.1924" x="773.7554" y="391.7803">ListCoreNetworkSecurityGroupVnics(filters:</text><text fill="#000000" font-family="Helvetica" font-size="14" lengthAdjust="spacing" textLength="143.1719" x="773.7554" y="405.7803">compartment_id, state)</text></g><g class="message" data-entity-1="part5" data-entity-2="part4" id="msg6"><polygon fill="#0F172A" points="777.7554,435,767.7554,439,777.7554,443,773.7554,439" style="stroke:#0F172A;stroke-width:1;"/><line style="stroke:#0F172A;stroke-width:1;stroke-dasharray:2,2;" x1="771.7554" x2="1058.9478" y1="439" y2="439"/><text fill="#000000" font-family="Helvetica" font-size="14" lengthAdjust="spacing" textLength="156.3994" x="783.7554" y="433.7803">matching collection items</text></g><path d="M676.5591,461 L729.897,461 L729.897,467 L719.897,477 L668.5591,477 L668.5591,469 A8,8 0 0 1 676.5591,461" fill="#F8FAFC" style="stroke:#CBD5E1;stroke-width:1.5;"/><rect fill="none" height="204" rx="8" ry="8" style="stroke:#CBD5E1;stroke-width:1.5;" width="430.8335" x="668.5591" y="461"/><text fill="#000000" font-family="Helvetica" font-size="14" font-weight="bold" lengthAdjust="spacing" textLength="16.3379" x="683.5591" y="472.7803">alt</text><text fill="#000000" font-family="Helvetica" font-size="14" font-weight="bold" lengthAdjust="spacing" textLength="135.3447" x="744.897" y="473.7803">[create or bind path]</text><g class="message" data-entity-1="part4" data-entity-2="part5" id="msg7"><polygon fill="#0F172A" points="1047.9478,493,1057.9478,497,1047.9478,501,1051.9478,497" style="stroke:#0F172A;stroke-width:1;"/><line style="stroke:#0F172A;stroke-width:1;" x1="766.7554" x2="1053.9478" y1="497" y2="497"/><text fill="#000000" font-family="Helvetica" font-size="14" lengthAdjust="spacing" textLength="247.4268" x="773.7554" y="491.7803">CreateCoreNetworkSecurityGroupVnics</text></g><path d="M686.5591,512 L753.104,512 L753.104,518 L743.104,528 L678.5591,528 L678.5591,520 A8,8 0 0 1 686.5591,512" fill="#F8FAFC" style="stroke:#CBD5E1;stroke-width:1.5;"/><rect fill="none" height="44" rx="8" ry="8" style="stroke:#CBD5E1;stroke-width:1.5;" width="410.8335" x="678.5591" y="512"/><text fill="#000000" font-family="Helvetica" font-size="14" font-weight="bold" lengthAdjust="spacing" textLength="29.5449" x="693.5591" y="523.7803">loop</text><text fill="#000000" font-family="Helvetica" font-size="14" font-weight="bold" lengthAdjust="spacing" textLength="215.4756" x="768.104" y="524.7803">[create pending PROVISIONING]</text><g class="message" data-entity-1="part4" data-entity-2="part5" id="msg8"><polygon fill="#0F172A" points="1047.9478,544,1057.9478,548,1047.9478,552,1051.9478,548" style="stroke:#0F172A;stroke-width:1;"/><line style="stroke:#0F172A;stroke-width:1;" x1="766.7554" x2="1053.9478" y1="548" y2="548"/><text fill="#000000" font-family="Helvetica" font-size="14" lengthAdjust="spacing" textLength="227.9717" x="773.7554" y="542.7803">GetCoreNetworkSecurityGroupVnics</text></g><line style="stroke:#CBD5E1;stroke-width:1;stroke-dasharray:2,2;" x1="668.5591" x2="1099.3926" y1="564" y2="564"/><text fill="#000000" font-family="Helvetica" font-size="14" font-weight="bold" lengthAdjust="spacing" textLength="137.6484" x="673.5591" y="574.7803">[update or drift path]</text><g class="message" data-entity-1="part4" data-entity-2="part5" id="msg9"><polygon fill="#0F172A" points="1047.9478,595,1057.9478,599,1047.9478,603,1051.9478,599" style="stroke:#0F172A;stroke-width:1;"/><line style="stroke:#0F172A;stroke-width:1;" x1="766.7554" x2="1053.9478" y1="599" y2="599"/><text fill="#000000" font-family="Helvetica" font-size="14" lengthAdjust="spacing" textLength="250.5508" x="773.7554" y="593.7803">UpdateCoreNetworkSecurityGroupVnics</text></g><path d="M686.5591,614 L753.104,614 L753.104,620 L743.104,630 L678.5591,630 L678.5591,622 A8,8 0 0 1 686.5591,614" fill="#F8FAFC" style="stroke:#CBD5E1;stroke-width:1.5;"/><rect fill="none" height="44" rx="8" ry="8" style="stroke:#CBD5E1;stroke-width:1.5;" width="410.8335" x="678.5591" y="614"/><text fill="#000000" font-family="Helvetica" font-size="14" font-weight="bold" lengthAdjust="spacing" textLength="29.5449" x="693.5591" y="625.7803">loop</text><text fill="#000000" font-family="Helvetica" font-size="14" font-weight="bold" lengthAdjust="spacing" textLength="190.5381" x="768.104" y="626.7803">[update pending UPDATING]</text><g class="message" data-entity-1="part4" data-entity-2="part5" id="msg10"><polygon fill="#0F172A" points="1047.9478,646,1057.9478,650,1047.9478,654,1051.9478,650" style="stroke:#0F172A;stroke-width:1;"/><line style="stroke:#0F172A;stroke-width:1;" x1="766.7554" x2="1053.9478" y1="650" y2="650"/><text fill="#000000" font-family="Helvetica" font-size="14" lengthAdjust="spacing" textLength="227.9717" x="773.7554" y="644.7803">GetCoreNetworkSecurityGroupVnics</text></g><path d="M676.5591,679 L735.3247,679 L735.3247,685 L725.3247,695 L668.5591,695 L668.5591,687 A8,8 0 0 1 676.5591,679" fill="#F8FAFC" style="stroke:#CBD5E1;stroke-width:1.5;"/><rect fill="none" height="116" rx="8" ry="8" style="stroke:#CBD5E1;stroke-width:1.5;" width="430.8335" x="668.5591" y="679"/><text fill="#000000" font-family="Helvetica" font-size="14" font-weight="bold" lengthAdjust="spacing" textLength="21.7656" x="683.5591" y="690.7803">opt</text><text fill="#000000" font-family="Helvetica" font-size="14" font-weight="bold" lengthAdjust="spacing" textLength="120.5859" x="750.3247" y="691.7803">[delete requested]</text><g class="message" data-entity-1="part4" data-entity-2="part5" id="msg11"><polygon fill="#0F172A" points="1047.9478,711,1057.9478,715,1047.9478,719,1051.9478,715" style="stroke:#0F172A;stroke-width:1;"/><line style="stroke:#0F172A;stroke-width:1;" x1="766.7554" x2="1053.9478" y1="715" y2="715"/><text fill="#000000" font-family="Helvetica" font-size="14" lengthAdjust="spacing" textLength="245.875" x="773.7554" y="709.7803">DeleteCoreNetworkSecurityGroupVnics</text></g><path d="M686.5591,730 L753.104,730 L753.104,736 L743.104,746 L678.5591,746 L678.5591,738 A8,8 0 0 1 686.5591,730" fill="#F8FAFC" style="stroke:#CBD5E1;stroke-width:1.5;"/><rect fill="none" height="58" rx="8" ry="8" style="stroke:#CBD5E1;stroke-width:1.5;" width="410.8335" x="678.5591" y="730"/><text fill="#000000" font-family="Helvetica" font-size="14" font-weight="bold" lengthAdjust="spacing" textLength="29.5449" x="693.5591" y="741.7803">loop</text><text fill="#000000" font-family="Helvetica" font-size="14" font-weight="bold" lengthAdjust="spacing" textLength="213.124" x="768.104" y="742.7803">[delete confirmation DELETING]</text><g class="message" data-entity-1="part4" data-entity-2="part5" id="msg12"><polygon fill="#0F172A" points="1047.9478,776,1057.9478,780,1047.9478,784,1051.9478,780" style="stroke:#0F172A;stroke-width:1;"/><line style="stroke:#0F172A;stroke-width:1;" x1="766.7554" x2="1053.9478" y1="780" y2="780"/><text fill="#000000" font-family="Helvetica" font-size="14" lengthAdjust="spacing" textLength="244.3096" x="773.7554" y="760.7803">GetCoreNetworkSecurityGroupVnics or</text><text fill="#000000" font-family="Helvetica" font-size="14" lengthAdjust="spacing" textLength="227.1924" x="773.7554" y="774.7803">ListCoreNetworkSecurityGroupVnics</text></g><g class="message" data-entity-1="part4" data-entity-2="part3" id="msg13"><polygon fill="#0F172A" points="523.0356,832,513.0356,836,523.0356,840,519.0356,836" style="stroke:#0F172A;stroke-width:1;"/><line style="stroke:#0F172A;stroke-width:1;stroke-dasharray:2,2;" x1="517.0356" x2="765.7554" y1="836" y2="836"/><text fill="#000000" font-family="Helvetica" font-size="14" lengthAdjust="spacing" textLength="100.7822" x="529.0356" y="816.7803">status=required,</text><text fill="#000000" font-family="Helvetica" font-size="14" lengthAdjust="spacing" textLength="230.7197" x="529.0356" y="830.7803">finalizer=retain-until-confirmed-delete</text></g><g class="message" data-entity-1="part3" data-entity-2="part2" id="msg14"><polygon fill="#0F172A" points="284.2095,874,274.2095,878,284.2095,882,280.2095,878" style="stroke:#0F172A;stroke-width:1;"/><line style="stroke:#0F172A;stroke-width:1;stroke-dasharray:2,2;" x1="278.2095" x2="511.0356" y1="878" y2="878"/><text fill="#000000" font-family="Helvetica" font-size="14" lengthAdjust="spacing" textLength="214.8262" x="290.2095" y="858.7803">requeue on provisioning, updating,</text><text fill="#000000" font-family="Helvetica" font-size="14" lengthAdjust="spacing" textLength="69.2549" x="290.2095" y="872.7803">terminating</text></g><path d="M771,899 L771,1285 A8,8 0 0 0 779,1293 L1103,1293 A8,8 0 0 0 1111,1285 L1111,901 L1101,891 L779,891 A8,8 0 0 0 771,899" fill="#FFF7D6" style="stroke:#B45309;stroke-width:0.5;"/><path d="M1101,891 L1101,897 A4,4 0 0 0 1105,901 L1111,901 L1101,891" fill="#FFF7D6" style="stroke:#B45309;stroke-width:0.5;"/><text fill="#334155" font-family="Helvetica" font-size="14" lengthAdjust="spacing" textLength="101.165" x="777" y="906.7803">shared diagram:</text><text fill="#334155" font-family="Helvetica" font-size="14" lengthAdjust="spacing" textLength="307.3916" x="777" y="920.7803">shared/diagrams/shared-resolution-sequence.svg</text><text fill="#334155" font-family="Helvetica" font-size="14" lengthAdjust="spacing" textLength="143.1992" x="777" y="934.7803">shared delete diagram:</text><text fill="#334155" font-family="Helvetica" font-size="14" lengthAdjust="spacing" textLength="284.833" x="777" y="948.7803">shared/diagrams/shared-delete-sequence.svg</text><text fill="#334155" font-family="Helvetica" font-size="14" lengthAdjust="spacing" textLength="280.9297" x="777" y="962.7803">Start from the shared resolution sequence for</text><text fill="#334155" font-family="Helvetica" font-size="14" lengthAdjust="spacing" textLength="260.7295" x="777" y="976.7803">OCID binding, datasource pagination, and</text><text fill="#334155" font-family="Helvetica" font-size="14" lengthAdjust="spacing" textLength="163.4268" x="777" y="990.7803">create-or-update dispatch.</text><text fill="#334155" font-family="Helvetica" font-size="14" lengthAdjust="spacing" textLength="301.1982" x="777" y="1004.7803">Layer the shared delete sequence when finalizer</text><text fill="#334155" font-family="Helvetica" font-size="14" lengthAdjust="spacing" textLength="269.2471" x="777" y="1018.7803">retention, delete confirmation, work-request</text><text fill="#334155" font-family="Helvetica" font-size="14" lengthAdjust="spacing" textLength="199.2334" x="777" y="1032.7803">polling, or Secret cleanup apply.</text><text fill="#334155" font-family="Helvetica" font-size="14" lengthAdjust="spacing" textLength="281.709" x="777" y="1046.7803">archetype batch: Generated service-manager</text><text fill="#334155" font-family="Helvetica" font-size="14" lengthAdjust="spacing" textLength="266.1504" x="777" y="1060.7803">controllers follow the shared resolution and</text><text fill="#334155" font-family="Helvetica" font-size="14" lengthAdjust="spacing" textLength="259.9297" x="777" y="1074.7803">delete sequences with imported waits and</text><text fill="#334155" font-family="Helvetica" font-size="14" lengthAdjust="spacing" textLength="134.6064" x="777" y="1088.7803">controller-local policy.</text><text fill="#334155" font-family="Helvetica" font-size="14" lengthAdjust="spacing" textLength="79.3584" x="777" y="1102.7803">service: core</text><text fill="#334155" font-family="Helvetica" font-size="14" lengthAdjust="spacing" textLength="225.6543" x="777" y="1116.7803">slug: corenetworksecuritygroupvnics</text><text fill="#334155" font-family="Helvetica" font-size="14" lengthAdjust="spacing" textLength="238.8682" x="777" y="1130.7803">kind: CoreNetworkSecurityGroupVnics</text><text fill="#334155" font-family="Helvetica" font-size="14" lengthAdjust="spacing" textLength="241.2402" x="777" y="1144.7803">archetype: generated-service-manager</text><text fill="#334155" font-family="Helvetica" font-size="14" lengthAdjust="spacing" textLength="156.4063" x="777" y="1158.7803">status/finalizer: required /</text><text fill="#334155" font-family="Helvetica" font-size="14" lengthAdjust="spacing" textLength="174.3027" x="777" y="1172.7803">retain-until-confirmed-delete</text><text fill="#334155" font-family="Helvetica" font-size="14" lengthAdjust="spacing" textLength="272.3984" x="777" y="1186.7803">requeue: provisioning, updating, terminating</text><text fill="#334155" font-family="Helvetica" font-size="14" lengthAdjust="spacing" textLength="295.6816" x="777" y="1200.7803">provider states: create PROVISIONING; update</text><text fill="#334155" font-family="Helvetica" font-size="14" lengthAdjust="spacing" textLength="192.165" x="777" y="1214.7803">UPDATING; delete DELETING</text><text fill="#334155" font-family="Helvetica" font-size="14" lengthAdjust="spacing" textLength="319.04" x="777" y="1228.7803">mutable/forceNew: display_name / compartment_id</text><text fill="#334155" font-family="Helvetica" font-size="14" lengthAdjust="spacing" textLength="104.3164" x="777" y="1242.7803">open gaps: none</text><text fill="#334155" font-family="Helvetica" font-size="14" lengthAdjust="spacing" textLength="224.9023" x="777" y="1256.7803">Scaffold metadata only; replace with</text><text fill="#334155" font-family="Helvetica" font-size="14" lengthAdjust="spacing" textLength="244.3232" x="777" y="1270.7803">controller-specific runtime states before</text><text fill="#334155" font-family="Helvetica" font-size="14" lengthAdjust="spacing" textLength="66.1445" x="777" y="1284.7803">promotion.</text><?plantuml-src fLPjRzis4FxENt7elhI05STDqgOADc1rkZHe5XVrsay62fewsKGeKYCfUrxH_xwZtY8vjXCi26BOkhk7zzmzTwAxaphdbcVWbZmnQwaNa7BbaBdMCkVYRc5DePEnKSR2BwcWlwJZaM3A2-N_CDhVyWpX8weLUYduRf-f_1TXTDenSclDkaO_JaTlNtSZjV7u_a4EQVesURFjPMo2jlQOdvwT7B_RyWZ7r_QJazFHsLd7Ni8BOpLQ6BrXNdg5CCM_2zG28G8ouN1C7xVeryRUJL4KLlhD5GNctxGKZYrbWf0Qu-VcdmwoQq1-C00klB6zJ6l6ZMcRAhx6y_IOp0H6HPKvrtvtVDVXAIYTQhGOIgPu8tM_bkzE-SdydAm1Ck-Pn3mvmr5hUj2dyvIdWlra9JVuLCoH2kpHiKuUCAP4h54ARU_nU-xm2mgZXTmslPXC9v-cQ5TIu9zSymNQ5y0Tz1_rGYRZQnOq06P57UvZ3xRYQ1ei9c3H6LLuQNHSFnecaY-efsvO_OxkNQAcpKTkjMWG4bJ4TczqPUv7eavAhRBxOa7qMwT6CQ0c_m9d-g0SPzes1DbzTC3gau-X_VxIXaoSVyNwBY6eNw8OMd0YwIInUIGTrWS8aDII6AxG7uupkITPElemvgx8mu9IOIdj0xmXtuE8BrEfF5eNpxGmMT18Xjf_bya0dESUNp72WMW7vunxiGnBKeHQYj1sa1up5xh6kF8WBFAWCGjpIOtCkL_kotDSkXxcJfJp1ZEdCyBPdxzClbrFhoUtrxTN_xke8L-aHGz5djG99rQc_c36NqlV9sHSWpOPV_ry-VjVpywM_eCKgfc1MgcOx0EzBFsUa6mDI6fEfQKEXwPUVhZvy9oCgPup_QWGMrxRf-oOqQ3CmlqQQ8TX6ymeMyqLlKijFVHSwgZGNggevj5kbmUZlBLCoa8Mf00DkJKhwOW_DMrGDJ5ycscQbenE2x-g7MhbOkd1fB1xSTPxxdbRyr6KNTjpwccS8RKc0xz4UB38xr_6gR5XpY_BGIq94rtkJ679cFD5oTVe0N1gK3M2aR5HBUr4kZmiWoDsmpTKrSvXTVRjGUibQcYRnQXPj6rAv1tA6q2GIbIhc-NKf38tca_I3yM2KCWrhK6UvsfpnBWLI_IR7EcYHla4QT8DXb9CA8EoDr5MDqUqNNV4NYcptbEZm7YBXOErz4kGMMvim5vpwLrLcXOrKaPm1PIp59HPVNnStfoOKyMY-gghSN3rE9GNXrKv3dHZIcWl7XoPbcyCYuPfjCsq6fPXM_HAvM5kOCWEJqiz3l6-OO3kB9G-T1cgtXikRbPrTqLVrDkGDLlmekbxksIomlEvmY59KX3rTLpAI_7DTntkqqFelwPe3PAY5Zod0xNHoAQ2fzJG13AY5bHCmwms5qIQG882gNNTFhaSXKob01kAG2TKwSCSqz0gOfMP88IZzZBo7m00?></g></svg>