<?plantuml 1.2026.1?><svg xmlns="http://www.w3.org/2000/svg" xmlns:xlink="http://www.w3.org/1999/xlink" contentStyleType="text/css" data-diagram-type="ACTIVITY" height="2212px" preserveAspectRatio="none" style="width:1259px;height:2212px;background:#FCFCFD;" version="1.1" viewBox="0 0 1259 2212" width="1259px" zoomAndPan="magnify"><title>Activity - dns/DnsSteeringPolicy</title><defs/><g><rect fill="#FCFCFD" height="2212" style="stroke:none;stroke-width:1;" width="1259" x="0" y="0"/><g class="title" data-source-line="10"><text fill="#000000" font-family="Helvetica" font-size="14" font-weight="bold" lengthAdjust="spacing" textLength="215.4961" x="520.4639" y="30.7803">Activity - dns/DnsSteeringPolicy</text></g><ellipse cx="668.2147" cy="55" fill="#1D4ED8" rx="10" ry="10" style="stroke:#222222;stroke-width:1;"/><rect fill="none" height="458" rx="8" ry="8" style="stroke:#000000;stroke-width:1.5;" width="620.4995" x="385.5975" y="75"/><path d="M507.6659,75 L507.6659,82 L497.6659,92 L385.5975,92" fill="none" style="stroke:#000000;stroke-width:1.5;"/><text fill="#000000" font-family="Helvetica" font-size="14" lengthAdjust="spacing" textLength="112.0684" x="388.5975" y="86.7803">Observe and Bind</text><rect fill="#F8FAFC" height="48" rx="8" ry="8" style="stroke:#0F172A;stroke-width:0.5;" width="304.7852" x="515.8221" y="109"/><text fill="#0F172A" font-family="Helvetica" font-size="14" lengthAdjust="spacing" textLength="136.9375" x="525.8221" y="129.7803">Start from shared flow</text><text fill="#0F172A" font-family="Helvetica" font-size="14" lengthAdjust="spacing" textLength="284.7852" x="525.8221" y="143.7803">shared/diagrams/shared-reconcile-activity.svg</text><rect fill="#F8FAFC" height="48" rx="8" ry="8" style="stroke:#0F172A;stroke-width:0.5;" width="308.7021" x="513.8636" y="177"/><text fill="#0F172A" font-family="Helvetica" font-size="14" lengthAdjust="spacing" textLength="288.7021" x="523.8636" y="197.7803">Read desired DnsSteeringPolicy spec, tracked</text><text fill="#0F172A" font-family="Helvetica" font-size="14" lengthAdjust="spacing" textLength="148.6611" x="523.8636" y="211.7803">status, and delete intent</text><polygon fill="#E2E8F0" points="538.7489,245,797.6805,245,809.6805,257,797.6805,269,538.7489,269,526.7489,257,538.7489,245" style="stroke:#1D4ED8;stroke-width:0.5;"/><text fill="#0F172A" font-family="Helvetica" font-size="14" lengthAdjust="spacing" textLength="258.9316" x="538.7489" y="260.7803">"Tracked or explicit OCI identity present?"</text><text fill="#000000" font-family="Helvetica" font-size="14" lengthAdjust="spacing" textLength="21.7861" x="504.9628" y="253.7803">yes</text><text fill="#000000" font-family="Helvetica" font-size="14" lengthAdjust="spacing" textLength="15.5723" x="809.6805" y="253.7803">no</text><rect fill="#F8FAFC" height="48" rx="8" ry="8" style="stroke:#0F172A;stroke-width:0.5;" width="222.3027" x="405.5975" y="279"/><text fill="#0F172A" font-family="Helvetica" font-size="14" lengthAdjust="spacing" textLength="202.3027" x="415.5975" y="299.7803">Get the current OCI resource via</text><text fill="#0F172A" font-family="Helvetica" font-size="14" lengthAdjust="spacing" textLength="136.9512" x="415.5975" y="313.7803">GetDnsSteeringPolicy</text><rect fill="#F8FAFC" height="62" rx="8" ry="8" style="stroke:#0F172A;stroke-width:0.5;" width="279.9092" x="679.726" y="279"/><text fill="#0F172A" font-family="Helvetica" font-size="14" lengthAdjust="spacing" textLength="259.9092" x="689.726" y="299.7803">Resolve an existing OCI resource through</text><text fill="#0F172A" font-family="Helvetica" font-size="14" lengthAdjust="spacing" textLength="210.8682" x="689.726" y="313.7803">ListDnsSteeringPolicy using filters</text><text fill="#0F172A" font-family="Helvetica" font-size="14" lengthAdjust="spacing" textLength="138.5098" x="689.726" y="327.7803">compartment_id, state</text><rect fill="#F8FAFC" height="62" rx="8" ry="8" style="stroke:#0F172A;stroke-width:0.5;" width="332.833" x="653.264" y="361"/><text fill="#0F172A" font-family="Helvetica" font-size="14" lengthAdjust="spacing" textLength="174.2959" x="663.264" y="381.7803">Create the OCI resource via</text><text fill="#0F172A" font-family="Helvetica" font-size="14" lengthAdjust="spacing" textLength="312.833" x="663.264" y="395.7803">CreateDnsSteeringPolicy when no reusable match</text><text fill="#0F172A" font-family="Helvetica" font-size="14" lengthAdjust="spacing" textLength="49.0342" x="663.264" y="409.7803">is found</text><rect fill="#F8FAFC" height="48" rx="8" ry="8" style="stroke:#0F172A;stroke-width:0.5;" width="286.8955" x="676.2328" y="443"/><text fill="#0F172A" font-family="Helvetica" font-size="14" lengthAdjust="spacing" textLength="266.8955" x="686.2328" y="463.7803">Persist the resolved or created OCI identity</text><text fill="#0F172A" font-family="Helvetica" font-size="14" lengthAdjust="spacing" textLength="63.8135" x="686.2328" y="477.7803">into status</text><polygon fill="#E2E8F0" points="668.2147,497,680.2147,509,668.2147,521,656.2147,509,668.2147,497" style="stroke:#1D4ED8;stroke-width:0.5;"/><polygon fill="#E2E8F0" points="606.0385,553,730.391,553,742.391,565,730.391,577,606.0385,577,594.0385,565,606.0385,553" style="stroke:#1D4ED8;stroke-width:0.5;"/><text fill="#0F172A" font-family="Helvetica" font-size="14" lengthAdjust="spacing" textLength="124.3525" x="606.0385" y="568.7803">"Delete requested?"</text><text fill="#000000" font-family="Helvetica" font-size="14" lengthAdjust="spacing" textLength="21.7861" x="572.2523" y="561.7803">yes</text><text fill="#000000" font-family="Helvetica" font-size="14" lengthAdjust="spacing" textLength="15.5723" x="742.391" y="561.7803">no</text><rect fill="none" height="356" rx="8" ry="8" style="stroke:#000000;stroke-width:1.5;" width="644.4814" x="11" y="587"/><path d="M61.4688,587 L61.4688,594 L51.4688,604 L11,604" fill="none" style="stroke:#000000;stroke-width:1.5;"/><text fill="#000000" font-family="Helvetica" font-size="14" lengthAdjust="spacing" textLength="40.4688" x="14" y="598.7803">Delete</text><rect fill="#F8FAFC" height="62" rx="8" ry="8" style="stroke:#0F172A;stroke-width:0.5;" width="320.3438" x="179.5723" y="621"/><text fill="#0F172A" font-family="Helvetica" font-size="14" lengthAdjust="spacing" textLength="292.5986" x="189.5723" y="641.7803">Delete path uses DeleteDnsSteeringPolicy with</text><text fill="#0F172A" font-family="Helvetica" font-size="14" lengthAdjust="spacing" textLength="230.3301" x="189.5723" y="655.7803">required via GetDnsSteeringPolicy or</text><text fill="#0F172A" font-family="Helvetica" font-size="14" lengthAdjust="spacing" textLength="300.3438" x="189.5723" y="669.7803">ListDnsSteeringPolicy to DELETED confirmation</text><rect fill="#F8FAFC" height="62" rx="8" ry="8" style="stroke:#0F172A;stroke-width:0.5;" width="300.9023" x="189.293" y="718"/><text fill="#0F172A" font-family="Helvetica" font-size="14" lengthAdjust="spacing" textLength="280.9023" x="199.293" y="738.7803">Confirm deletion via GetDnsSteeringPolicy or</text><text fill="#0F172A" font-family="Helvetica" font-size="14" lengthAdjust="spacing" textLength="248.2197" x="199.293" y="752.7803">ListDnsSteeringPolicy until OCI reaches</text><text fill="#0F172A" font-family="Helvetica" font-size="14" lengthAdjust="spacing" textLength="64.5723" x="199.293" y="766.7803">DELETED</text><polygon fill="#E2E8F0" points="191.5718,811,487.9165,811,499.9165,823,487.9165,835,191.5718,835,179.5718,823,191.5718,811" style="stroke:#1D4ED8;stroke-width:0.5;"/><text fill="#0F172A" font-family="Helvetica" font-size="14" lengthAdjust="spacing" textLength="296.3447" x="191.5718" y="826.7803">"Delete cleanup and finalizer release succeed?"</text><text fill="#000000" font-family="Helvetica" font-size="14" lengthAdjust="spacing" textLength="21.7861" x="157.7856" y="819.7803">yes</text><text fill="#000000" font-family="Helvetica" font-size="14" lengthAdjust="spacing" textLength="15.5723" x="499.9165" y="819.7803">no</text><rect fill="#F8FAFC" height="34" rx="8" ry="8" style="stroke:#0F172A;stroke-width:0.5;" width="293.1436" x="23" y="845"/><text fill="#0F172A" font-family="Helvetica" font-size="14" lengthAdjust="spacing" textLength="273.1436" x="33" y="865.7803">Remove the finalizer after delete completion</text><rect fill="#F8FAFC" height="48" rx="8" ry="8" style="stroke:#0F172A;stroke-width:0.5;" width="251.1299" x="384.3516" y="845"/><text fill="#0F172A" font-family="Helvetica" font-size="14" lengthAdjust="spacing" textLength="231.1299" x="394.3516" y="865.7803">Stay blocked until cleanup or finalizer</text><text fill="#0F172A" font-family="Helvetica" font-size="14" lengthAdjust="spacing" textLength="108.9512" x="394.3516" y="879.7803">release succeeds</text><polygon fill="#E2E8F0" points="339.7441,899,351.7441,911,339.7441,923,327.7441,911,339.7441,899" style="stroke:#1D4ED8;stroke-width:0.5;"/><ellipse cx="339.7441" cy="983" fill="none" rx="11" ry="11" style="stroke:#222222;stroke-width:1;"/><ellipse cx="339.7441" cy="983" fill="#222222" rx="6" ry="6" style="stroke:#222222;stroke-width:1;"/><rect fill="none" height="441" rx="8" ry="8" style="stroke:#000000;stroke-width:1.5;" width="345.916" x="829.7273" y="587"/><path d="M980.5613,587 L980.5613,594 L970.5613,604 L829.7273,604" fill="none" style="stroke:#000000;stroke-width:1.5;"/><text fill="#000000" font-family="Helvetica" font-size="14" lengthAdjust="spacing" textLength="140.834" x="832.7273" y="598.7803">Lifecycle Classification</text><rect fill="#F8FAFC" height="48" rx="8" ry="8" style="stroke:#0F172A;stroke-width:0.5;" width="280.5928" x="856.3889" y="670"/><text fill="#0F172A" font-family="Helvetica" font-size="14" lengthAdjust="spacing" textLength="240.4541" x="866.3889" y="690.7803">Request requeue while OCI remains in</text><text fill="#0F172A" font-family="Helvetica" font-size="14" lengthAdjust="spacing" textLength="260.5928" x="866.3889" y="704.7803">PROVISIONING, UPDATING, DELETING</text><ellipse cx="996.6853" cy="764" fill="none" rx="11" ry="11" style="stroke:#222222;stroke-width:1;"/><ellipse cx="996.6853" cy="764" fill="#222222" rx="6" ry="6" style="stroke:#222222;stroke-width:1;"/><polygon fill="#E2E8F0" points="910.4021,621,1082.9685,621,1094.9685,633,1082.9685,645,910.4021,645,898.4021,633,910.4021,621" style="stroke:#1D4ED8;stroke-width:0.5;"/><text fill="#000000" font-family="Helvetica" font-size="14" lengthAdjust="spacing" textLength="21.7861" x="1000.6853" y="655.7803">yes</text><text fill="#0F172A" font-family="Helvetica" font-size="14" lengthAdjust="spacing" textLength="172.5664" x="910.4021" y="636.7803">"OCI state in retryable set?"</text><rect fill="#F8FAFC" height="48" rx="8" ry="8" style="stroke:#0F172A;stroke-width:0.5;" width="293.916" x="849.7273" y="886"/><text fill="#0F172A" font-family="Helvetica" font-size="14" lengthAdjust="spacing" textLength="273.916" x="859.7273" y="906.7803">Return an unsuccessful reconcile result until</text><text fill="#0F172A" font-family="Helvetica" font-size="14" lengthAdjust="spacing" textLength="133.041" x="859.7273" y="920.7803">OCI reaches ACTIVE</text><ellipse cx="996.6853" cy="974" fill="none" rx="11" ry="11" style="stroke:#222222;stroke-width:1;"/><ellipse cx="996.6853" cy="974" fill="#222222" rx="6" ry="6" style="stroke:#222222;stroke-width:1;"/><polygon fill="#E2E8F0" points="876.1643,837,1117.2063,837,1129.2063,849,1117.2063,861,876.1643,861,864.1643,849,876.1643,837" style="stroke:#1D4ED8;stroke-width:0.5;"/><text fill="#000000" font-family="Helvetica" font-size="14" lengthAdjust="spacing" textLength="21.7861" x="1000.6853" y="871.7803">yes</text><text fill="#0F172A" font-family="Helvetica" font-size="14" lengthAdjust="spacing" textLength="241.042" x="876.1643" y="852.7803">"OCI state is outside success targets?"</text><rect fill="none" height="722.5" rx="8" ry="8" style="stroke:#000000;stroke-width:1.5;" width="572.9424" x="675.4814" y="1038"/><path d="M841.9014,1038 L841.9014,1045 L831.9014,1055 L675.4814,1055" fill="none" style="stroke:#000000;stroke-width:1.5;"/><text fill="#000000" font-family="Helvetica" font-size="14" lengthAdjust="spacing" textLength="156.4199" x="678.4814" y="1049.7803">Ready and Drift Handling</text><rect fill="#F8FAFC" height="48" rx="8" ry="8" style="stroke:#0F172A;stroke-width:0.5;" width="296.2402" x="848.5652" y="1072"/><text fill="#0F172A" font-family="Helvetica" font-size="14" lengthAdjust="spacing" textLength="276.2402" x="858.5652" y="1092.7803">Compare live OCI state against the imported</text><text fill="#0F172A" font-family="Helvetica" font-size="14" lengthAdjust="spacing" textLength="75.4824" x="858.5652" y="1106.7803">field surface</text><rect fill="#F8FAFC" height="48" rx="8" ry="8" style="stroke:#0F172A;stroke-width:0.5;" width="302.4473" x="845.4617" y="1189"/><text fill="#0F172A" font-family="Helvetica" font-size="14" lengthAdjust="spacing" textLength="282.4473" x="855.4617" y="1209.7803">Reject drift before OCI mutation for force-new</text><text fill="#0F172A" font-family="Helvetica" font-size="14" lengthAdjust="spacing" textLength="136.9512" x="855.4617" y="1223.7803">fields compartment_id</text><ellipse cx="996.6853" cy="1269.5" fill="none" rx="11" ry="11" style="stroke:#222222;stroke-width:1;"/><ellipse cx="996.6853" cy="1269.5" fill="#222222" rx="6" ry="6" style="stroke:#222222;stroke-width:1;"/><polygon fill="#E2E8F0" points="871.1023,1140,1122.2683,1140,1134.2683,1152,1122.2683,1164,871.1023,1164,859.1023,1152,871.1023,1140" style="stroke:#1D4ED8;stroke-width:0.5;"/><text fill="#000000" font-family="Helvetica" font-size="14" lengthAdjust="spacing" textLength="21.7861" x="1000.6853" y="1174.7803">yes</text><text fill="#0F172A" font-family="Helvetica" font-size="14" lengthAdjust="spacing" textLength="251.166" x="871.1023" y="1155.7803">"Force-new or conflicting drift detected?"</text><polygon fill="#E2E8F0" points="886.2576,1322.5,1107.113,1322.5,1119.113,1334.5,1107.113,1346.5,886.2576,1346.5,874.2576,1334.5,886.2576,1322.5" style="stroke:#1D4ED8;stroke-width:0.5;"/><text fill="#0F172A" font-family="Helvetica" font-size="14" lengthAdjust="spacing" textLength="220.8555" x="886.2576" y="1338.2803">"Supported mutable drift detected?"</text><text fill="#000000" font-family="Helvetica" font-size="14" lengthAdjust="spacing" textLength="21.7861" x="852.4714" y="1331.2803">yes</text><text fill="#000000" font-family="Helvetica" font-size="14" lengthAdjust="spacing" textLength="15.5723" x="1119.113" y="1331.2803">no</text><rect fill="#F8FAFC" height="48" rx="8" ry="8" style="stroke:#0F172A;stroke-width:0.5;" width="321.9365" x="695.4814" y="1356.5"/><text fill="#0F172A" font-family="Helvetica" font-size="14" lengthAdjust="spacing" textLength="301.9365" x="705.4814" y="1377.2803">Apply UpdateDnsSteeringPolicy only for mutable</text><text fill="#0F172A" font-family="Helvetica" font-size="14" lengthAdjust="spacing" textLength="122.958" x="705.4814" y="1391.2803">fields display_name</text><rect fill="#F8FAFC" height="34" rx="8" ry="8" style="stroke:#0F172A;stroke-width:0.5;" width="199.0059" x="1037.418" y="1356.5"/><text fill="#0F172A" font-family="Helvetica" font-size="14" lengthAdjust="spacing" textLength="179.0059" x="1047.418" y="1377.2803">Skip the no-op mutation path</text><polygon fill="#E2E8F0" points="996.6853,1410.5,1008.6853,1422.5,996.6853,1434.5,984.6853,1422.5,996.6853,1410.5" style="stroke:#1D4ED8;stroke-width:0.5;"/><rect fill="#F8FAFC" height="118" rx="8" ry="8" style="stroke:#0F172A;stroke-width:0.5;" width="334.3164" x="829.5271" y="1454.5"/><text fill="#0F172A" font-family="Helvetica" font-size="14" lengthAdjust="spacing" textLength="164.2061" x="839.5271" y="1475.2803">Run provider helper hooks</text><text fill="#0F172A" font-family="Helvetica" font-size="14" lengthAdjust="spacing" textLength="219.0508" x="839.5271" y="1489.2803">create=tfresource.CreateResource,</text><text fill="#0F172A" font-family="Helvetica" font-size="14" lengthAdjust="spacing" textLength="314.3164" x="839.5271" y="1503.2803">tfresource.WaitForWorkRequestWithErrorHandling</text><text fill="#0F172A" font-family="Helvetica" font-size="14" lengthAdjust="spacing" textLength="215.5439" x="839.5271" y="1517.2803">entity=template action=CREATED;</text><text fill="#0F172A" font-family="Helvetica" font-size="14" lengthAdjust="spacing" textLength="226.085" x="839.5271" y="1531.2803">update=tfresource.UpdateResource;</text><text fill="#0F172A" font-family="Helvetica" font-size="14" lengthAdjust="spacing" textLength="273.5537" x="839.5271" y="1545.2803">delete=tfresource.DeleteResource when the</text><text fill="#0F172A" font-family="Helvetica" font-size="14" lengthAdjust="spacing" textLength="220.2334" x="839.5271" y="1559.2803">matching field-driven path executes</text><rect fill="#F8FAFC" height="34" rx="8" ry="8" style="stroke:#0F172A;stroke-width:0.5;" width="303.2197" x="845.0754" y="1592.5"/><text fill="#0F172A" font-family="Helvetica" font-size="14" lengthAdjust="spacing" textLength="283.2197" x="855.0754" y="1613.2803">Return success for the ACTIVE success state</text><rect fill="#F8FAFC" height="48" rx="8" ry="8" style="stroke:#0F172A;stroke-width:0.5;" width="279.1299" x="857.1204" y="1646.5"/><text fill="#0F172A" font-family="Helvetica" font-size="14" lengthAdjust="spacing" textLength="259.1299" x="867.1204" y="1667.2803">Project required status and finalizer policy</text><text fill="#0F172A" font-family="Helvetica" font-size="14" lengthAdjust="spacing" textLength="174.3027" x="867.1204" y="1681.2803">retain-until-confirmed-delete</text><rect fill="#F8FAFC" height="34" rx="8" ry="8" style="stroke:#0F172A;stroke-width:0.5;" width="313.4189" x="839.9758" y="1714.5"/><text fill="#0F172A" font-family="Helvetica" font-size="14" lengthAdjust="spacing" textLength="293.4189" x="849.9758" y="1735.2803">Requeue on provisioning, updating, terminating</text><path d="M699.2147,1770.5 L699.2147,1981.5 L679.2147,1985.5 L699.2147,1989.5 L699.2147,2200.5 A0,0 0 0 0 699.2147,2200.5 L1015.8964,2200.5 A0,0 0 0 0 1015.8964,2200.5 L1015.8964,1780.5 L1005.8964,1770.5 L699.2147,1770.5 A0,0 0 0 0 699.2147,1770.5" fill="#FFF7D6" style="stroke:#B45309;stroke-width:0.5;"/><path d="M1005.8964,1770.5 L1005.8964,1780.5 L1015.8964,1780.5 L1005.8964,1770.5" fill="#FFF7D6" style="stroke:#B45309;stroke-width:0.5;"/><text fill="#334155" font-family="Helvetica" font-size="14" lengthAdjust="spacing" textLength="101.165" x="705.2147" y="1786.2803">shared diagram:</text><text fill="#334155" font-family="Helvetica" font-size="14" lengthAdjust="spacing" textLength="284.7852" x="705.2147" y="1800.2803">shared/diagrams/shared-reconcile-activity.svg</text><text fill="#334155" font-family="Helvetica" font-size="14" lengthAdjust="spacing" textLength="265.3438" x="705.2147" y="1814.2803">Start from the shared reconcile activity and</text><text fill="#334155" font-family="Helvetica" font-size="14" lengthAdjust="spacing" textLength="273.8955" x="705.2147" y="1828.2803">specialize provider-backed CRUD, wait, and</text><text fill="#334155" font-family="Helvetica" font-size="14" lengthAdjust="spacing" textLength="182.875" x="705.2147" y="1842.2803">status-projection details here.</text><text fill="#334155" font-family="Helvetica" font-size="14" lengthAdjust="spacing" textLength="229.5371" x="705.2147" y="1856.2803">Controller-local activity diagrams add</text><text fill="#334155" font-family="Helvetica" font-size="14" lengthAdjust="spacing" textLength="238.8955" x="705.2147" y="1870.2803">list-lookup hints, secret policies, delete</text><text fill="#334155" font-family="Helvetica" font-size="14" lengthAdjust="spacing" textLength="200.0332" x="705.2147" y="1884.2803">handling, and open formal gaps.</text><text fill="#334155" font-family="Helvetica" font-size="14" lengthAdjust="spacing" textLength="281.709" x="705.2147" y="1898.2803">archetype batch: Generated service-manager</text><text fill="#334155" font-family="Helvetica" font-size="14" lengthAdjust="spacing" textLength="291.0469" x="705.2147" y="1912.2803">controllers specialize the shared reconcile path</text><text fill="#334155" font-family="Helvetica" font-size="14" lengthAdjust="spacing" textLength="189.8477" x="705.2147" y="1926.2803">with formal runtime ownership.</text><text fill="#334155" font-family="Helvetica" font-size="14" lengthAdjust="spacing" textLength="74.6963" x="705.2147" y="1940.2803">service: dns</text><text fill="#334155" font-family="Helvetica" font-size="14" lengthAdjust="spacing" textLength="141.6338" x="705.2147" y="1954.2803">slug: dnssteeringpolicy</text><text fill="#334155" font-family="Helvetica" font-size="14" lengthAdjust="spacing" textLength="147.8477" x="705.2147" y="1968.2803">kind: DnsSteeringPolicy</text><text fill="#334155" font-family="Helvetica" font-size="14" lengthAdjust="spacing" textLength="241.2402" x="705.2147" y="1982.2803">archetype: generated-service-manager</text><text fill="#334155" font-family="Helvetica" font-size="14" lengthAdjust="spacing" textLength="156.4063" x="705.2147" y="1996.2803">status/finalizer: required /</text><text fill="#334155" font-family="Helvetica" font-size="14" lengthAdjust="spacing" textLength="174.3027" x="705.2147" y="2010.2803">retain-until-confirmed-delete</text><text fill="#334155" font-family="Helvetica" font-size="14" lengthAdjust="spacing" textLength="272.3984" x="705.2147" y="2024.2803">requeue: provisioning, updating, terminating</text><text fill="#334155" font-family="Helvetica" font-size="14" lengthAdjust="spacing" textLength="295.6816" x="705.2147" y="2038.2803">provider states: create PROVISIONING; update</text><text fill="#334155" font-family="Helvetica" font-size="14" lengthAdjust="spacing" textLength="192.165" x="705.2147" y="2052.2803">UPDATING; delete DELETING</text><text fill="#334155" font-family="Helvetica" font-size="14" lengthAdjust="spacing" textLength="183.6611" x="705.2147" y="2066.2803">supported drift: display_name</text><text fill="#334155" font-family="Helvetica" font-size="14" lengthAdjust="spacing" textLength="230.3301" x="705.2147" y="2080.2803">reject before mutate: force-new fields</text><text fill="#334155" font-family="Helvetica" font-size="14" lengthAdjust="spacing" textLength="100.3789" x="705.2147" y="2094.2803">compartment_id</text><text fill="#334155" font-family="Helvetica" font-size="14" lengthAdjust="spacing" textLength="264.5986" x="705.2147" y="2108.2803">list lookup: scaffold_dns_dnssteeringpolicy</text><text fill="#334155" font-family="Helvetica" font-size="14" lengthAdjust="spacing" textLength="175.8477" x="705.2147" y="2122.2803">filters compartment_id, state</text><text fill="#334155" font-family="Helvetica" font-size="14" lengthAdjust="spacing" textLength="89.4961" x="705.2147" y="2136.2803">conflicts: none</text><text fill="#334155" font-family="Helvetica" font-size="14" lengthAdjust="spacing" textLength="104.3164" x="705.2147" y="2150.2803">open gaps: none</text><text fill="#334155" font-family="Helvetica" font-size="14" lengthAdjust="spacing" textLength="224.9023" x="705.2147" y="2164.2803">Scaffold metadata only; replace with</text><text fill="#334155" font-family="Helvetica" font-size="14" lengthAdjust="spacing" textLength="244.3232" x="705.2147" y="2178.2803">controller-specific runtime states before</text><text fill="#334155" font-family="Helvetica" font-size="14" lengthAdjust="spacing" textLength="66.1445" x="705.2147" y="2192.2803">promotion.</text><ellipse cx="668.2147" cy="1985.5" fill="none" rx="11" ry="11" style="stroke:#222222;stroke-width:1;"/><ellipse cx="668.2147" cy="1985.5" fill="#222222" rx="6" ry="6" style="stroke:#222222;stroke-width:1;"/><line style="stroke:#0F172A;stroke-width:1;" x1="668.2147" x2="668.2147" y1="157" y2="177"/><polygon fill="#0F172A" points="664.2147,167,668.2147,177,672.2147,167,668.2147,171" style="stroke:#0F172A;stroke-width:1;"/><line style="stroke:#0F172A;stroke-width:1;" x1="819.6805" x2="819.6805" y1="341" y2="361"/><polygon fill="#0F172A" points="815.6805,351,819.6805,361,823.6805,351,819.6805,355" style="stroke:#0F172A;stroke-width:1;"/><line style="stroke:#0F172A;stroke-width:1;" x1="819.6805" x2="819.6805" y1="423" y2="443"/><polygon fill="#0F172A" points="815.6805,433,819.6805,443,823.6805,433,819.6805,437" style="stroke:#0F172A;stroke-width:1;"/><line style="stroke:#0F172A;stroke-width:1;" x1="526.7489" x2="516.7489" y1="257" y2="257"/><line style="stroke:#0F172A;stroke-width:1;" x1="516.7489" x2="516.7489" y1="257" y2="279"/><polygon fill="#0F172A" points="512.7489,269,516.7489,279,520.7489,269,516.7489,273" style="stroke:#0F172A;stroke-width:1;"/><line style="stroke:#0F172A;stroke-width:1;" x1="809.6805" x2="819.6805" y1="257" y2="257"/><line style="stroke:#0F172A;stroke-width:1;" x1="819.6805" x2="819.6805" y1="257" y2="279"/><polygon fill="#0F172A" points="815.6805,269,819.6805,279,823.6805,269,819.6805,273" style="stroke:#0F172A;stroke-width:1;"/><line style="stroke:#0F172A;stroke-width:1;" x1="516.7489" x2="516.7489" y1="327" y2="509"/><line style="stroke:#0F172A;stroke-width:1;" x1="516.7489" x2="656.2147" y1="509" y2="509"/><polygon fill="#0F172A" points="646.2147,505,656.2147,509,646.2147,513,650.2147,509" style="stroke:#0F172A;stroke-width:1;"/><line style="stroke:#0F172A;stroke-width:1;" x1="819.6805" x2="819.6805" y1="491" y2="509"/><line style="stroke:#0F172A;stroke-width:1;" x1="819.6805" x2="680.2147" y1="509" y2="509"/><polygon fill="#0F172A" points="690.2147,505,680.2147,509,690.2147,513,686.2147,509" style="stroke:#0F172A;stroke-width:1;"/><line style="stroke:#0F172A;stroke-width:1;" x1="668.2147" x2="668.2147" y1="225" y2="245"/><polygon fill="#0F172A" points="664.2147,235,668.2147,245,672.2147,235,668.2147,239" style="stroke:#0F172A;stroke-width:1;"/><line style="stroke:#0F172A;stroke-width:1;" x1="668.2147" x2="668.2147" y1="65" y2="109"/><polygon fill="#0F172A" points="664.2147,99,668.2147,109,672.2147,99,668.2147,103" style="stroke:#0F172A;stroke-width:1;"/><line style="stroke:#0F172A;stroke-width:1;" x1="339.7441" x2="339.7441" y1="683" y2="718"/><polygon fill="#0F172A" points="335.7441,708,339.7441,718,343.7441,708,339.7441,712" style="stroke:#0F172A;stroke-width:1;"/><line style="stroke:#0F172A;stroke-width:1;" x1="179.5718" x2="169.5718" y1="823" y2="823"/><line style="stroke:#0F172A;stroke-width:1;" x1="169.5718" x2="169.5718" y1="823" y2="845"/><polygon fill="#0F172A" points="165.5718,835,169.5718,845,173.5718,835,169.5718,839" style="stroke:#0F172A;stroke-width:1;"/><line style="stroke:#0F172A;stroke-width:1;" x1="499.9165" x2="509.9165" y1="823" y2="823"/><line style="stroke:#0F172A;stroke-width:1;" x1="509.9165" x2="509.9165" y1="823" y2="845"/><polygon fill="#0F172A" points="505.9165,835,509.9165,845,513.9165,835,509.9165,839" style="stroke:#0F172A;stroke-width:1;"/><line style="stroke:#0F172A;stroke-width:1;" x1="169.5718" x2="169.5718" y1="879" y2="911"/><line style="stroke:#0F172A;stroke-width:1;" x1="169.5718" x2="327.7441" y1="911" y2="911"/><polygon fill="#0F172A" points="317.7441,907,327.7441,911,317.7441,915,321.7441,911" style="stroke:#0F172A;stroke-width:1;"/><line style="stroke:#0F172A;stroke-width:1;" x1="509.9165" x2="509.9165" y1="893" y2="911"/><line style="stroke:#0F172A;stroke-width:1;" x1="509.9165" x2="351.7441" y1="911" y2="911"/><polygon fill="#0F172A" points="361.7441,907,351.7441,911,361.7441,915,357.7441,911" style="stroke:#0F172A;stroke-width:1;"/><line style="stroke:#0F172A;stroke-width:1;" x1="339.7441" x2="339.7441" y1="780" y2="811"/><polygon fill="#0F172A" points="335.7441,801,339.7441,811,343.7441,801,339.7441,805" style="stroke:#0F172A;stroke-width:1;"/><line style="stroke:#0F172A;stroke-width:1;" x1="339.7441" x2="339.7441" y1="923" y2="972"/><polygon fill="#0F172A" points="335.7441,962,339.7441,972,343.7441,962,339.7441,966" style="stroke:#0F172A;stroke-width:1;"/><line style="stroke:#0F172A;stroke-width:1;" x1="996.6853" x2="996.6853" y1="718" y2="753"/><polygon fill="#0F172A" points="992.6853,743,996.6853,753,1000.6853,743,996.6853,747" style="stroke:#0F172A;stroke-width:1;"/><line style="stroke:#0F172A;stroke-width:1;" x1="996.6853" x2="996.6853" y1="645" y2="670"/><polygon fill="#0F172A" points="992.6853,660,996.6853,670,1000.6853,660,996.6853,664" style="stroke:#0F172A;stroke-width:1;"/><line style="stroke:#0F172A;stroke-width:1;" x1="1094.9685" x2="1146.9817" y1="633" y2="633"/><polygon fill="#0F172A" points="1142.9817,709.5,1146.9817,719.5,1150.9817,709.5,1146.9817,713.5" style="stroke:#0F172A;stroke-width:1;"/><line style="stroke:#0F172A;stroke-width:1;" x1="1146.9817" x2="1146.9817" y1="633" y2="802"/><line style="stroke:#0F172A;stroke-width:1;" x1="1146.9817" x2="996.6853" y1="802" y2="802"/><line style="stroke:#0F172A;stroke-width:1;" x1="996.6853" x2="996.6853" y1="802" y2="837"/><polygon fill="#0F172A" points="992.6853,827,996.6853,837,1000.6853,827,996.6853,831" style="stroke:#0F172A;stroke-width:1;"/><line style="stroke:#0F172A;stroke-width:1;" x1="996.6853" x2="996.6853" y1="934" y2="963"/><polygon fill="#0F172A" points="992.6853,953,996.6853,963,1000.6853,953,996.6853,957" style="stroke:#0F172A;stroke-width:1;"/><line style="stroke:#0F172A;stroke-width:1;" x1="996.6853" x2="996.6853" y1="861" y2="886"/><polygon fill="#0F172A" points="992.6853,876,996.6853,886,1000.6853,876,996.6853,880" style="stroke:#0F172A;stroke-width:1;"/><line style="stroke:#0F172A;stroke-width:1;" x1="1129.2063" x2="1153.6433" y1="849" y2="849"/><polygon fill="#0F172A" points="1149.6433,925.5,1153.6433,935.5,1157.6433,925.5,1153.6433,929.5" style="stroke:#0F172A;stroke-width:1;"/><line style="stroke:#0F172A;stroke-width:1;" x1="1153.6433" x2="1153.6433" y1="849" y2="1016"/><line style="stroke:#0F172A;stroke-width:1;" x1="1153.6433" x2="996.6853" y1="1016" y2="1016"/><line style="stroke:#0F172A;stroke-width:1;" x1="996.6853" x2="996.6853" y1="1016" y2="1072"/><polygon fill="#0F172A" points="992.6853,1062,996.6853,1072,1000.6853,1062,996.6853,1066" style="stroke:#0F172A;stroke-width:1;"/><line style="stroke:#0F172A;stroke-width:1;" x1="996.6853" x2="996.6853" y1="1237" y2="1258.5"/><polygon fill="#0F172A" points="992.6853,1248.5,996.6853,1258.5,1000.6853,1248.5,996.6853,1252.5" style="stroke:#0F172A;stroke-width:1;"/><line style="stroke:#0F172A;stroke-width:1;" x1="996.6853" x2="996.6853" y1="1164" y2="1189"/><polygon fill="#0F172A" points="992.6853,1179,996.6853,1189,1000.6853,1179,996.6853,1183" style="stroke:#0F172A;stroke-width:1;"/><line style="stroke:#0F172A;stroke-width:1;" x1="1134.2683" x2="1157.9089" y1="1152" y2="1152"/><polygon fill="#0F172A" points="1153.9089,1228.5,1157.9089,1238.5,1161.9089,1228.5,1157.9089,1232.5" style="stroke:#0F172A;stroke-width:1;"/><line style="stroke:#0F172A;stroke-width:1;" x1="1157.9089" x2="1157.9089" y1="1152" y2="1302.5"/><line style="stroke:#0F172A;stroke-width:1;" x1="1157.9089" x2="996.6853" y1="1302.5" y2="1302.5"/><line style="stroke:#0F172A;stroke-width:1;" x1="996.6853" x2="996.6853" y1="1302.5" y2="1322.5"/><polygon fill="#0F172A" points="992.6853,1312.5,996.6853,1322.5,1000.6853,1312.5,996.6853,1316.5" style="stroke:#0F172A;stroke-width:1;"/><line style="stroke:#0F172A;stroke-width:1;" x1="996.6853" x2="996.6853" y1="1120" y2="1140"/><polygon fill="#0F172A" points="992.6853,1130,996.6853,1140,1000.6853,1130,996.6853,1134" style="stroke:#0F172A;stroke-width:1;"/><line style="stroke:#0F172A;stroke-width:1;" x1="874.2576" x2="856.4497" y1="1334.5" y2="1334.5"/><line style="stroke:#0F172A;stroke-width:1;" x1="856.4497" x2="856.4497" y1="1334.5" y2="1356.5"/><polygon fill="#0F172A" points="852.4497,1346.5,856.4497,1356.5,860.4497,1346.5,856.4497,1350.5" style="stroke:#0F172A;stroke-width:1;"/><line style="stroke:#0F172A;stroke-width:1;" x1="1119.113" x2="1136.9209" y1="1334.5" y2="1334.5"/><line style="stroke:#0F172A;stroke-width:1;" x1="1136.9209" x2="1136.9209" y1="1334.5" y2="1356.5"/><polygon fill="#0F172A" points="1132.9209,1346.5,1136.9209,1356.5,1140.9209,1346.5,1136.9209,1350.5" style="stroke:#0F172A;stroke-width:1;"/><line style="stroke:#0F172A;stroke-width:1;" x1="856.4497" x2="856.4497" y1="1404.5" y2="1422.5"/><line style="stroke:#0F172A;stroke-width:1;" x1="856.4497" x2="984.6853" y1="1422.5" y2="1422.5"/><polygon fill="#0F172A" points="974.6853,1418.5,984.6853,1422.5,974.6853,1426.5,978.6853,1422.5" style="stroke:#0F172A;stroke-width:1;"/><line style="stroke:#0F172A;stroke-width:1;" x1="1136.9209" x2="1136.9209" y1="1390.5" y2="1422.5"/><line style="stroke:#0F172A;stroke-width:1;" x1="1136.9209" x2="1008.6853" y1="1422.5" y2="1422.5"/><polygon fill="#0F172A" points="1018.6853,1418.5,1008.6853,1422.5,1018.6853,1426.5,1014.6853,1422.5" style="stroke:#0F172A;stroke-width:1;"/><line style="stroke:#0F172A;stroke-width:1;" x1="996.6853" x2="996.6853" y1="1434.5" y2="1454.5"/><polygon fill="#0F172A" points="992.6853,1444.5,996.6853,1454.5,1000.6853,1444.5,996.6853,1448.5" style="stroke:#0F172A;stroke-width:1;"/><line style="stroke:#0F172A;stroke-width:1;" x1="996.6853" x2="996.6853" y1="1572.5" y2="1592.5"/><polygon fill="#0F172A" points="992.6853,1582.5,996.6853,1592.5,1000.6853,1582.5,996.6853,1586.5" style="stroke:#0F172A;stroke-width:1;"/><line style="stroke:#0F172A;stroke-width:1;" x1="996.6853" x2="996.6853" y1="1626.5" y2="1646.5"/><polygon fill="#0F172A" points="992.6853,1636.5,996.6853,1646.5,1000.6853,1636.5,996.6853,1640.5" style="stroke:#0F172A;stroke-width:1;"/><line style="stroke:#0F172A;stroke-width:1;" x1="996.6853" x2="996.6853" y1="1694.5" y2="1714.5"/><polygon fill="#0F172A" points="992.6853,1704.5,996.6853,1714.5,1000.6853,1704.5,996.6853,1708.5" style="stroke:#0F172A;stroke-width:1;"/><line style="stroke:#0F172A;stroke-width:1;" x1="594.0385" x2="339.7441" y1="565" y2="565"/><line style="stroke:#0F172A;stroke-width:1;" x1="339.7441" x2="339.7441" y1="565" y2="621"/><polygon fill="#0F172A" points="335.7441,611,339.7441,621,343.7441,611,339.7441,615" style="stroke:#0F172A;stroke-width:1;"/><line style="stroke:#0F172A;stroke-width:1;" x1="742.391" x2="996.6853" y1="565" y2="565"/><line style="stroke:#0F172A;stroke-width:1;" x1="996.6853" x2="996.6853" y1="565" y2="621"/><polygon fill="#0F172A" points="992.6853,611,996.6853,621,1000.6853,611,996.6853,615" style="stroke:#0F172A;stroke-width:1;"/><line style="stroke:#0F172A;stroke-width:1;" x1="996.6853" x2="996.6853" y1="1748.5" y2="1765.5"/><line style="stroke:#0F172A;stroke-width:1;" x1="996.6853" x2="668.2147" y1="1765.5" y2="1765.5"/><line style="stroke:#0F172A;stroke-width:1;" x1="668.2147" x2="668.2147" y1="1765.5" y2="1974.5"/><polygon fill="#0F172A" points="664.2147,1964.5,668.2147,1974.5,672.2147,1964.5,668.2147,1968.5" style="stroke:#0F172A;stroke-width:1;"/><line style="stroke:#0F172A;stroke-width:1;" x1="668.2147" x2="668.2147" y1="521" y2="553"/><polygon fill="#0F172A" points="664.2147,543,668.2147,553,672.2147,543,668.2147,547" style="stroke:#0F172A;stroke-width:1;"/><?plantuml-src dLVRRXit47tdLn3kIm98Tfnx9GI58pkDWI0sR2Tv4M1Gorc9zOhSabovQf5_x-5bLwjBWxOm3EykXyEPCsSEn-v1wLfOiUHk8QHvL7hEIr4vOgvRcOdYOMvDe-N4LCRodye2Fx9d8QaKJUK_6Eq_YoNnZrIjoAj27BQvLNyIFttPMnJMciVi_Lbv-kPvVwSsdjxlnL2MR-JhNIjZ9TbiCNlvwiMpdtSiml5v_SMBbwUlNlNMe_l2M4sMdxvcNlcA-5dXrKhvDHzogTt9kNQtdiW2fsjJgMBTJw8r_Oln0w2zBKLPX9L-a3bPpijDODqtgSJIQBcNEpsdj-Mpda7VuwbyIVBjPl730SVE2-jtxQdptzdDn8xNxonkPKWOy2YZ-T7Lp95T4HTQylTAooEaFxeDLhoq9lBAakHbPHwdEhsS8BGv47CdwNregJ2wK1KDMmoFtMe-PgCR4XBCSIgusCEUkvgA0VSM0964TozyumOn54aLUU9AUz9-p5J9dnpT9KEEXEYF6XwKvrUJIwuaR4BXQaiEZxySFUL-GPe_MPDxoaQ_aW_ll6YinNBS0qlJs8BuIecfXiLUT6D6w2F-H9kd8H5dgeWIZbREXpxRSkCNgF1yCTMViBgVQUDYPwhAatLJNPXbAC4IqTmhEGW5zGIy9fRm48FT3p8jxlj-3Abg0-l6YHaulnI-G2JAWPLW7VnUurJ45HtRb4g4iOWkvHQAsAYzuQaO045BLO8uiGBdgIgMVc_8OUCEqZrQ9Sj8fhof5du17CZnzE508ieZxE0yyWL9yqE5GU3_13FYFh_uT75tSSx1o59PG85m0hBfDV4gHFW_l3V0fyg54SM2KCXysdWBdg8YePiwyhXKMbJGIuiz-0n2kQOeQ0ywC6nfLgdqcpsY15_QNWYaIS5lKHEzkkQpoiJMI26s0Q32dQy0x5O0lTewR-gUoruPFwcIYZNyyKabd5CbBeMm4WeRKmveHFQYLP6Yj-j8GKT-Fy58caIUXa1R24P6SocKTl0mrTStLrylRo-lFbz-_dN0lroVdzt5fmWqdiOvs1ZvRWIEcyOx43dbw1o7Zit9k_rOV6DrwEP6PzEogNYdOw59SDabEAUwLt9-Dhcx_7gn5SRtFc91yjQnzETMbPv_n6C53iLMcCI-9rwfLKez1Ixc8V_KdcfP6-k379QAAebCR2aAoWpxO207GqsFiNl1QH0pYf6CXqdmfF27oFKRlcUZ6PN6fkENZO_bX53Oy9jyvwCTtvQfVUXlcpe56ns5klyuZBEwhjRyIoqFwfZHM0o1P6TT65AvkXBhUutPP9lw3wgEe6apDFKcco0rBRj7Dmq-MBC2BInVK5M7FyOy11cEylVEbwtG7YUDlSclWwdkhNqJ2kEF_MRiG-RoDmZM1KOVsnPvgfE6llE4NesbBK94xoOt5sT19wPeIxbpPiAZFHCcgT_x9abOMfEa-CXxggFKfwi5K0q1_ufI_hYdg6WykN57zxOf0iO1jKJbxdDx2LrR4zdI2N6w2dRah8v52whYGTvXx9HX5bsC12c7SMvxjBl9LN200m4FU0GYFa7Zbl0RNiPefbItoBKmyd6hvWlFyXoIHuyH-q-Z2EiDD27px6pJxztiXoHP64jKJBCZpd2MHe_9pPVp0Ny44mR9D48ph1DaWNiou54vCCtICSEruwsfAdY0GejgSr0RE1TIiWht3GpC0qGRvVGOWXo1dJx1h0WV4g9iaQcMnYHJKspU9LpFHUsEcR2GAR-k2TCVk3729OU1EDxoOT1JQF6bq69EbXLTS8xtSZu8KA0K2nTqUveD5SV_2kOHxjr2rSSi-n-5IPkvgfd79vUxF166OToMe_rPS1FtYC_RY8Ux4IUuJpeMZZOaFM4_P2BBryxetx2GTNeHUyADyg34-xVJEEqbrbvIu_QYRkygvZfzZBeusb8oH1JRBCjn52-4rwbmQcd7jaKuKeKdgeouAqHPcahU0-VxVQpplCaFZfkilJwGdZQQMEHI855-lytE-HB08bCH5NeCo953K26meSUXOQGG1eIE6Wcyd630T6b2Yno73e__pVqD?></g></svg>