<?plantuml 1.2026.1?><svg xmlns="http://www.w3.org/2000/svg" xmlns:xlink="http://www.w3.org/1999/xlink" contentStyleType="text/css" data-diagram-type="SEQUENCE" height="1992px" preserveAspectRatio="none" style="width:1240px;height:1992px;background:#FCFCFD;" version="1.1" viewBox="0 0 1240 1992" width="1240px" zoomAndPan="magnify"><title>Sequence - waas/WaasEdgeSubnets</title><defs/><g><rect fill="#FCFCFD" height="1992" style="stroke:none;stroke-width:1;" width="1240" x="0" y="0"/><text fill="#000000" font-family="Helvetica" font-size="14" font-weight="bold" lengthAdjust="spacing" textLength="242.7441" x="505.1067" y="25.7803">Sequence - waas/WaasEdgeSubnets</text><rect fill="none" height="290" rx="8" ry="8" style="stroke:#CBD5E1;stroke-width:1.5;" width="738.3779" x="478.7695" y="314"/><rect fill="none" height="146" rx="8" ry="8" style="stroke:#CBD5E1;stroke-width:1.5;" width="475.9575" x="731.1899" y="423"/><rect fill="none" height="44" rx="8" ry="8" style="stroke:#CBD5E1;stroke-width:1.5;" width="455.9575" x="741.1899" y="474"/><rect fill="none" height="826" rx="8" ry="8" style="stroke:#CBD5E1;stroke-width:1.5;" width="775.188" x="458.7695" y="618"/><rect fill="none" height="274" rx="8" ry="8" style="stroke:#CBD5E1;stroke-width:1.5;" width="738.3779" x="468.7695" y="641"/><rect fill="none" height="58" rx="8" ry="8" style="stroke:#CBD5E1;stroke-width:1.5;" width="455.9575" x="741.1899" y="748"/><rect fill="none" height="88" rx="8" ry="8" style="stroke:#CBD5E1;stroke-width:1.5;" width="438.813" x="478.7695" y="820"/><rect fill="none" height="378" rx="8" ry="8" style="stroke:#CBD5E1;stroke-width:1.5;" width="755.188" x="468.7695" y="1017"/><rect fill="none" height="44" rx="8" ry="8" style="stroke:#CBD5E1;stroke-width:1.5;" width="438.813" x="478.7695" y="1116"/><rect fill="none" height="116" rx="8" ry="8" style="stroke:#CBD5E1;stroke-width:1.5;" width="475.9575" x="731.1899" y="1174"/><rect fill="none" height="44" rx="8" ry="8" style="stroke:#CBD5E1;stroke-width:1.5;" width="455.9575" x="741.1899" y="1239"/><g class="participant-lifeline" data-entity-uid="part1" data-qualified-name="Kubernetes" id="part1-lifeline"><g><title>Kubernetes</title><rect fill="#000000" fill-opacity="0.00000" height="1871" width="8" x="39.8032" y="114"/><line style="stroke:#94A3B8;stroke-width:0.5;stroke-dasharray:5,5;" x1="43" x2="43" y1="114" y2="1985"/></g></g><g class="participant-lifeline" data-entity-uid="part2" data-qualified-name="Controller" id="part2-lifeline"><g><title>Controller</title><rect fill="#000000" fill-opacity="0.00000" height="1871" width="8" x="301.9673" y="114"/><line style="stroke:#94A3B8;stroke-width:0.5;stroke-dasharray:5,5;" x1="305.6226" x2="305.6226" y1="114" y2="1985"/></g></g><g class="participant-lifeline" data-entity-uid="part3" data-qualified-name="BaseReconciler" id="part3-lifeline"><g><title>BaseReconciler</title><rect fill="#000000" fill-opacity="0.00000" height="1871" width="8" x="540.7935" y="114"/><line style="stroke:#94A3B8;stroke-width:0.5;stroke-dasharray:5,5;" x1="544.7695" x2="544.7695" y1="114" y2="1985"/></g></g><g class="participant-lifeline" data-entity-uid="part4" data-qualified-name="ServiceManager" id="part4-lifeline"><g><title>OSOKServiceManager</title><rect fill="#000000" fill-opacity="0.00000" height="1871" width="8" x="825.3862" y="114"/><line style="stroke:#94A3B8;stroke-width:0.5;stroke-dasharray:5,5;" x1="829.1899" x2="829.1899" y1="114" y2="1985"/></g></g><g class="participant-lifeline" data-entity-uid="part5" data-qualified-name="OCI" id="part5-lifeline"><g><title>OCI</title><rect fill="#000000" fill-opacity="0.00000" height="1871" width="8" x="1163.7026" y="114"/><line style="stroke:#94A3B8;stroke-width:0.5;stroke-dasharray:5,5;" x1="1167.2578" x2="1167.2578" y1="114" y2="1985"/></g></g><g class="participant participant-head" data-entity-uid="part1" data-qualified-name="Kubernetes" id="part1-head"><text fill="#000000" font-family="Helvetica" font-size="14" lengthAdjust="spacing" textLength="71.6064" x="5" y="110.7803">Kubernetes</text><ellipse cx="43.8032" cy="48.5" fill="#E2E8F0" rx="8" ry="8" style="stroke:#0F172A;stroke-width:0.5;"/><path d="M43.8032,56.5 L43.8032,83.5 M30.8032,64.5 L56.8032,64.5 M43.8032,83.5 L30.8032,98.5 M43.8032,83.5 L56.8032,98.5" fill="none" style="stroke:#0F172A;stroke-width:0.5;"/></g><g class="participant participant-head" data-entity-uid="part2" data-qualified-name="Controller" id="part2-head"><rect fill="#E2E8F0" height="28" rx="8" ry="8" style="stroke:#0F172A;stroke-width:0.5;" width="74.6895" x="268.6226" y="85"/><text fill="#0F172A" font-family="Helvetica" font-size="14" lengthAdjust="spacing" textLength="60.6895" x="275.6226" y="102.7803">Controller</text></g><g class="participant participant-head" data-entity-uid="part3" data-qualified-name="BaseReconciler" id="part3-head"><rect fill="#E2E8F0" height="28" rx="8" ry="8" style="stroke:#0F172A;stroke-width:0.5;" width="112.0479" x="488.7695" y="85"/><text fill="#0F172A" font-family="Helvetica" font-size="14" lengthAdjust="spacing" textLength="98.0479" x="495.7695" y="102.7803">BaseReconciler</text></g><g class="participant participant-head" data-entity-uid="part4" data-qualified-name="ServiceManager" id="part4-head"><rect fill="#E2E8F0" height="28" rx="8" ry="8" style="stroke:#0F172A;stroke-width:0.5;" width="156.3926" x="751.1899" y="85"/><text fill="#0F172A" font-family="Helvetica" font-size="14" lengthAdjust="spacing" textLength="142.3926" x="758.1899" y="102.7803">OSOKServiceManager</text></g><g class="participant participant-head" data-entity-uid="part5" data-qualified-name="OCI" id="part5-head"><rect fill="#E2E8F0" height="28" rx="8" ry="8" style="stroke:#0F172A;stroke-width:0.5;" width="38.8896" x="1148.2578" y="85"/><text fill="#0F172A" font-family="Helvetica" font-size="14" lengthAdjust="spacing" textLength="24.8896" x="1155.2578" y="102.7803">OCI</text></g><path d="M480,137 L480,187 A8,8 0 0 0 488,195 L885,195 A8,8 0 0 0 893,187 L893,139 L883,129 L488,129 A8,8 0 0 0 480,137" fill="#FFF7D6" style="stroke:#B45309;stroke-width:0.5;"/><path d="M883,129 L883,135 A4,4 0 0 0 887,139 L893,139 L883,129" fill="#FFF7D6" style="stroke:#B45309;stroke-width:0.5;"/><text fill="#334155" font-family="Helvetica" font-size="14" lengthAdjust="spacing" textLength="111.2891" x="528.7107" y="144.7803">shared resolution:</text><text fill="#334155" font-family="Helvetica" font-size="14" lengthAdjust="spacing" textLength="307.3916" x="528.7107" y="158.7803">shared/diagrams/shared-resolution-sequence.svg</text><text fill="#334155" font-family="Helvetica" font-size="14" lengthAdjust="spacing" textLength="88.7305" x="528.7107" y="172.7803">shared delete:</text><text fill="#334155" font-family="Helvetica" font-size="14" lengthAdjust="spacing" textLength="284.833" x="528.7107" y="186.7803">shared/diagrams/shared-delete-sequence.svg</text><g class="message" data-entity-1="part1" data-entity-2="part2" id="msg1"><polygon fill="#0F172A" points="293.9673,216,303.9673,220,293.9673,224,297.9673,220" style="stroke:#0F172A;stroke-width:1;"/><line style="stroke:#0F172A;stroke-width:1;" x1="43.8032" x2="299.9673" y1="220" y2="220"/><text fill="#000000" font-family="Helvetica" font-size="14" lengthAdjust="spacing" textLength="238.1641" x="50.8032" y="214.7803">enqueue WaasEdgeSubnets reconcile</text></g><g class="message" data-entity-1="part2" data-entity-2="part3" id="msg2"><polygon fill="#0F172A" points="532.7935,244,542.7935,248,532.7935,252,536.7935,248" style="stroke:#0F172A;stroke-width:1;"/><line style="stroke:#0F172A;stroke-width:1;" x1="305.9673" x2="538.7935" y1="248" y2="248"/><text fill="#000000" font-family="Helvetica" font-size="14" lengthAdjust="spacing" textLength="117.4961" x="312.9673" y="242.7803">Reconcile(request)</text></g><g class="message" data-entity-1="part3" data-entity-2="part4" id="msg3"><polygon fill="#0F172A" points="817.3862,272,827.3862,276,817.3862,280,821.3862,276" style="stroke:#0F172A;stroke-width:1;"/><line style="stroke:#0F172A;stroke-width:1;" x1="544.7935" x2="823.3862" y1="276" y2="276"/><text fill="#000000" font-family="Helvetica" font-size="14" lengthAdjust="spacing" textLength="229.5781" x="551.7935" y="270.7803">reconcile desired WaasEdgeSubnets</text></g><path d="M486.7695,314 L540.1074,314 L540.1074,320 L530.1074,330 L478.7695,330 L478.7695,322 A8,8 0 0 1 486.7695,314" fill="#F8FAFC" style="stroke:#CBD5E1;stroke-width:1.5;"/><rect fill="none" height="290" rx="8" ry="8" style="stroke:#CBD5E1;stroke-width:1.5;" width="738.3779" x="478.7695" y="314"/><text fill="#000000" font-family="Helvetica" font-size="14" font-weight="bold" lengthAdjust="spacing" textLength="16.3379" x="493.7695" y="325.7803">alt</text><text fill="#000000" font-family="Helvetica" font-size="14" font-weight="bold" lengthAdjust="spacing" textLength="308.1094" x="555.1074" y="326.7803">[tracked or explicit OCI identity already exists]</text><g class="message" data-entity-1="part4" data-entity-2="part5" id="msg4"><polygon fill="#0F172A" points="1155.7026,346,1165.7026,350,1155.7026,354,1159.7026,350" style="stroke:#0F172A;stroke-width:1;"/><line style="stroke:#0F172A;stroke-width:1;" x1="829.3862" x2="1161.7026" y1="350" y2="350"/><text fill="#000000" font-family="Helvetica" font-size="14" lengthAdjust="spacing" textLength="142.4199" x="836.3862" y="344.7803">GetWaasEdgeSubnets</text></g><line style="stroke:#CBD5E1;stroke-width:1;stroke-dasharray:2,2;" x1="478.7695" x2="1217.1475" y1="359" y2="359"/><text fill="#000000" font-family="Helvetica" font-size="14" font-weight="bold" lengthAdjust="spacing" textLength="185.1582" x="483.7695" y="369.7803">[tracked identity is missing]</text><g class="message" data-entity-1="part4" data-entity-2="part5" id="msg5"><polygon fill="#0F172A" points="1155.7026,404,1165.7026,408,1155.7026,412,1159.7026,408" style="stroke:#0F172A;stroke-width:1;"/><line style="stroke:#0F172A;stroke-width:1;" x1="829.3862" x2="1161.7026" y1="408" y2="408"/><text fill="#000000" font-family="Helvetica" font-size="14" lengthAdjust="spacing" textLength="183.6406" x="836.3862" y="388.7803">ListWaasEdgeSubnets(filters:</text><text fill="#000000" font-family="Helvetica" font-size="14" lengthAdjust="spacing" textLength="143.1719" x="836.3862" y="402.7803">compartment_id, state)</text></g><path d="M739.1899,423 L792.5278,423 L792.5278,429 L782.5278,439 L731.1899,439 L731.1899,431 A8,8 0 0 1 739.1899,423" fill="#F8FAFC" style="stroke:#CBD5E1;stroke-width:1.5;"/><rect fill="none" height="146" rx="8" ry="8" style="stroke:#CBD5E1;stroke-width:1.5;" width="475.9575" x="731.1899" y="423"/><text fill="#000000" font-family="Helvetica" font-size="14" font-weight="bold" lengthAdjust="spacing" textLength="16.3379" x="746.1899" y="434.7803">alt</text><text fill="#000000" font-family="Helvetica" font-size="14" font-weight="bold" lengthAdjust="spacing" textLength="242.7031" x="807.5278" y="435.7803">[reusable OCI resource is not found]</text><g class="message" data-entity-1="part4" data-entity-2="part5" id="msg6"><polygon fill="#0F172A" points="1155.7026,455,1165.7026,459,1155.7026,463,1159.7026,459" style="stroke:#0F172A;stroke-width:1;"/><line style="stroke:#0F172A;stroke-width:1;" x1="829.3862" x2="1161.7026" y1="459" y2="459"/><text fill="#000000" font-family="Helvetica" font-size="14" lengthAdjust="spacing" textLength="161.875" x="836.3862" y="453.7803">CreateWaasEdgeSubnets</text></g><path d="M749.1899,474 L815.7349,474 L815.7349,480 L805.7349,490 L741.1899,490 L741.1899,482 A8,8 0 0 1 749.1899,474" fill="#F8FAFC" style="stroke:#CBD5E1;stroke-width:1.5;"/><rect fill="none" height="44" rx="8" ry="8" style="stroke:#CBD5E1;stroke-width:1.5;" width="455.9575" x="741.1899" y="474"/><text fill="#000000" font-family="Helvetica" font-size="14" font-weight="bold" lengthAdjust="spacing" textLength="29.5449" x="756.1899" y="485.7803">loop</text><text fill="#000000" font-family="Helvetica" font-size="14" font-weight="bold" lengthAdjust="spacing" textLength="215.4756" x="830.7349" y="486.7803">[create pending PROVISIONING]</text><g class="message" data-entity-1="part4" data-entity-2="part5" id="msg7"><polygon fill="#0F172A" points="1155.7026,506,1165.7026,510,1155.7026,514,1159.7026,510" style="stroke:#0F172A;stroke-width:1;"/><line style="stroke:#0F172A;stroke-width:1;" x1="829.3862" x2="1161.7026" y1="510" y2="510"/><text fill="#000000" font-family="Helvetica" font-size="14" lengthAdjust="spacing" textLength="142.4199" x="836.3862" y="504.7803">GetWaasEdgeSubnets</text></g><line style="stroke:#CBD5E1;stroke-width:1;stroke-dasharray:2,2;" x1="731.1899" x2="1207.1475" y1="526" y2="526"/><text fill="#000000" font-family="Helvetica" font-size="14" font-weight="bold" lengthAdjust="spacing" textLength="255.2334" x="736.1899" y="536.7803">[reusable OCI resource already exists]</text><g class="message" data-entity-1="part4" data-entity-2="part5" id="msg8"><polygon fill="#0F172A" points="1155.7026,557,1165.7026,561,1155.7026,565,1159.7026,561" style="stroke:#0F172A;stroke-width:1;"/><line style="stroke:#0F172A;stroke-width:1;" x1="829.3862" x2="1161.7026" y1="561" y2="561"/><text fill="#000000" font-family="Helvetica" font-size="14" lengthAdjust="spacing" textLength="142.4199" x="836.3862" y="555.7803">GetWaasEdgeSubnets</text></g><g class="message" data-entity-1="part4" data-entity-2="part3" id="msg9"><polygon fill="#0F172A" points="555.7935,592,545.7935,596,555.7935,600,551.7935,596" style="stroke:#0F172A;stroke-width:1;"/><line style="stroke:#0F172A;stroke-width:1;stroke-dasharray:2,2;" x1="549.7935" x2="828.3862" y1="596" y2="596"/><text fill="#000000" font-family="Helvetica" font-size="14" lengthAdjust="spacing" textLength="231.0957" x="561.7935" y="590.7803">persist resolved OCI identity in status</text></g><path d="M466.7695,618 L520.1074,618 L520.1074,624 L510.1074,634 L458.7695,634 L458.7695,626 A8,8 0 0 1 466.7695,618" fill="#F8FAFC" style="stroke:#CBD5E1;stroke-width:1.5;"/><rect fill="none" height="826" rx="8" ry="8" style="stroke:#CBD5E1;stroke-width:1.5;" width="775.188" x="458.7695" y="618"/><text fill="#000000" font-family="Helvetica" font-size="14" font-weight="bold" lengthAdjust="spacing" textLength="16.3379" x="473.7695" y="629.7803">alt</text><text fill="#000000" font-family="Helvetica" font-size="14" font-weight="bold" lengthAdjust="spacing" textLength="120.5859" x="535.1074" y="630.7803">[delete requested]</text><path d="M476.7695,641 L555.79,641 L555.79,647 L545.79,657 L468.7695,657 L468.7695,649 A8,8 0 0 1 476.7695,641" fill="#F8FAFC" style="stroke:#CBD5E1;stroke-width:1.5;"/><rect fill="none" height="274" rx="8" ry="8" style="stroke:#CBD5E1;stroke-width:1.5;" width="738.3779" x="468.7695" y="641"/><text fill="#000000" font-family="Helvetica" font-size="14" font-weight="bold" lengthAdjust="spacing" textLength="42.0205" x="483.7695" y="652.7803">Delete</text><g class="message" data-entity-1="part4" data-entity-2="part5" id="msg10"><polygon fill="#0F172A" points="1155.7026,673,1165.7026,677,1155.7026,681,1159.7026,677" style="stroke:#0F172A;stroke-width:1;"/><line style="stroke:#0F172A;stroke-width:1;" x1="829.3862" x2="1161.7026" y1="677" y2="677"/><text fill="#000000" font-family="Helvetica" font-size="14" lengthAdjust="spacing" textLength="160.3232" x="836.3862" y="671.7803">DeleteWaasEdgeSubnets</text></g><g class="message" data-entity-1="part4" data-entity-2="part5" id="msg11"><polygon fill="#0F172A" points="1155.7026,729,1165.7026,733,1155.7026,737,1159.7026,733" style="stroke:#0F172A;stroke-width:1;"/><line style="stroke:#0F172A;stroke-width:1;" x1="829.3862" x2="1161.7026" y1="733" y2="733"/><text fill="#000000" font-family="Helvetica" font-size="14" lengthAdjust="spacing" textLength="109.7168" x="836.3862" y="699.7803">confirm delete via</text><text fill="#000000" font-family="Helvetica" font-size="14" lengthAdjust="spacing" textLength="158.7578" x="836.3862" y="713.7803">GetWaasEdgeSubnets or</text><text fill="#000000" font-family="Helvetica" font-size="14" lengthAdjust="spacing" textLength="141.6406" x="836.3862" y="727.7803">ListWaasEdgeSubnets</text></g><path d="M749.1899,748 L815.7349,748 L815.7349,754 L805.7349,764 L741.1899,764 L741.1899,756 A8,8 0 0 1 749.1899,748" fill="#F8FAFC" style="stroke:#CBD5E1;stroke-width:1.5;"/><rect fill="none" height="58" rx="8" ry="8" style="stroke:#CBD5E1;stroke-width:1.5;" width="455.9575" x="741.1899" y="748"/><text fill="#000000" font-family="Helvetica" font-size="14" font-weight="bold" lengthAdjust="spacing" textLength="29.5449" x="756.1899" y="759.7803">loop</text><text fill="#000000" font-family="Helvetica" font-size="14" font-weight="bold" lengthAdjust="spacing" textLength="182.7793" x="830.7349" y="760.7803">[delete pending DELETING]</text><g class="message" data-entity-1="part4" data-entity-2="part5" id="msg12"><polygon fill="#0F172A" points="1155.7026,794,1165.7026,798,1155.7026,802,1159.7026,798" style="stroke:#0F172A;stroke-width:1;"/><line style="stroke:#0F172A;stroke-width:1;" x1="829.3862" x2="1161.7026" y1="798" y2="798"/><text fill="#000000" font-family="Helvetica" font-size="14" lengthAdjust="spacing" textLength="158.7578" x="836.3862" y="778.7803">GetWaasEdgeSubnets or</text><text fill="#000000" font-family="Helvetica" font-size="14" lengthAdjust="spacing" textLength="141.6406" x="836.3862" y="792.7803">ListWaasEdgeSubnets</text></g><path d="M486.7695,820 L540.1074,820 L540.1074,826 L530.1074,836 L478.7695,836 L478.7695,828 A8,8 0 0 1 486.7695,820" fill="#F8FAFC" style="stroke:#CBD5E1;stroke-width:1.5;"/><rect fill="none" height="88" rx="8" ry="8" style="stroke:#CBD5E1;stroke-width:1.5;" width="438.813" x="478.7695" y="820"/><text fill="#000000" font-family="Helvetica" font-size="14" font-weight="bold" lengthAdjust="spacing" textLength="16.3379" x="493.7695" y="831.7803">alt</text><text fill="#000000" font-family="Helvetica" font-size="14" font-weight="bold" lengthAdjust="spacing" textLength="261.4268" x="555.1074" y="832.7803">[cleanup or finalizer release is blocked]</text><g class="message" data-entity-1="part4" data-entity-2="part3" id="msg13"><polygon fill="#0F172A" points="555.7935,852,545.7935,856,555.7935,860,551.7935,856" style="stroke:#0F172A;stroke-width:1;"/><line style="stroke:#0F172A;stroke-width:1;stroke-dasharray:2,2;" x1="549.7935" x2="828.3862" y1="856" y2="856"/><text fill="#000000" font-family="Helvetica" font-size="14" lengthAdjust="spacing" textLength="170.4336" x="561.7935" y="850.7803">retain delete state and retry</text></g><line style="stroke:#CBD5E1;stroke-width:1;stroke-dasharray:2,2;" x1="478.7695" x2="917.5825" y1="865" y2="865"/><text fill="#000000" font-family="Helvetica" font-size="14" font-weight="bold" lengthAdjust="spacing" textLength="194.4824" x="483.7695" y="875.7803">[delete completion observed]</text><g class="message" data-entity-1="part4" data-entity-2="part3" id="msg14"><polygon fill="#0F172A" points="555.7935,896,545.7935,900,555.7935,904,551.7935,900" style="stroke:#0F172A;stroke-width:1;"/><line style="stroke:#0F172A;stroke-width:1;stroke-dasharray:2,2;" x1="549.7935" x2="828.3862" y1="900" y2="900"/><text fill="#000000" font-family="Helvetica" font-size="14" lengthAdjust="spacing" textLength="243.5781" x="561.7935" y="894.7803">release finalizer after delete completion</text></g><line style="stroke:#CBD5E1;stroke-width:1;stroke-dasharray:2,2;" x1="458.7695" x2="1233.9575" y1="923" y2="923"/><text fill="#000000" font-family="Helvetica" font-size="14" font-weight="bold" lengthAdjust="spacing" textLength="149.3857" x="463.7695" y="933.7803">[OCI state is retryable]</text><g class="message" data-entity-1="part4" data-entity-2="part3" id="msg15"><polygon fill="#0F172A" points="555.7935,968,545.7935,972,555.7935,976,551.7935,972" style="stroke:#0F172A;stroke-width:1;"/><line style="stroke:#0F172A;stroke-width:1;stroke-dasharray:2,2;" x1="549.7935" x2="828.3862" y1="972" y2="972"/><text fill="#000000" font-family="Helvetica" font-size="14" lengthAdjust="spacing" textLength="184.4199" x="561.7935" y="952.7803">requeue while OCI remains in</text><text fill="#000000" font-family="Helvetica" font-size="14" lengthAdjust="spacing" textLength="260.5928" x="561.7935" y="966.7803">PROVISIONING, UPDATING, DELETING</text></g><line style="stroke:#CBD5E1;stroke-width:1;stroke-dasharray:2,2;" x1="458.7695" x2="1233.9575" y1="981" y2="981"/><text fill="#000000" font-family="Helvetica" font-size="14" font-weight="bold" lengthAdjust="spacing" textLength="200.751" x="463.7695" y="991.7803">[live state requires field-aware</text><text fill="#000000" font-family="Helvetica" font-size="14" font-weight="bold" lengthAdjust="spacing" textLength="105.0068" x="463.7695" y="1005.7803">drift evaluation]</text><path d="M476.7695,1017 L604.7559,1017 L604.7559,1023 L594.7559,1033 L468.7695,1033 L468.7695,1025 A8,8 0 0 1 476.7695,1017" fill="#F8FAFC" style="stroke:#CBD5E1;stroke-width:1.5;"/><rect fill="none" height="378" rx="8" ry="8" style="stroke:#CBD5E1;stroke-width:1.5;" width="755.188" x="468.7695" y="1017"/><text fill="#000000" font-family="Helvetica" font-size="14" font-weight="bold" lengthAdjust="spacing" textLength="90.9863" x="483.7695" y="1028.7803">Drift handling</text><path d="M783,1046 L783,1096 A8,8 0 0 0 791,1104 L1205,1104 A8,8 0 0 0 1213,1096 L1213,1048 L1203,1038 L791,1038 A8,8 0 0 0 783,1046" fill="#FFF7D6" style="stroke:#B45309;stroke-width:0.5;"/><path d="M1203,1038 L1203,1044 A4,4 0 0 0 1207,1048 L1213,1048 L1203,1038" fill="#FFF7D6" style="stroke:#B45309;stroke-width:0.5;"/><text fill="#334155" font-family="Helvetica" font-size="14" lengthAdjust="spacing" textLength="255.2813" x="866.3381" y="1053.7803">Supported update surface: display_name</text><text fill="#334155" font-family="Helvetica" font-size="14" lengthAdjust="spacing" textLength="235.7783" x="866.3381" y="1067.7803">Reject before mutate: force-new fields</text><text fill="#334155" font-family="Helvetica" font-size="14" lengthAdjust="spacing" textLength="100.3789" x="866.3381" y="1081.7803">compartment_id</text><text fill="#334155" font-family="Helvetica" font-size="14" lengthAdjust="spacing" textLength="229.5576" x="866.3381" y="1095.7803">Lookup filters: compartment_id, state</text><path d="M486.7695,1116 L545.5352,1116 L545.5352,1122 L535.5352,1132 L478.7695,1132 L478.7695,1124 A8,8 0 0 1 486.7695,1116" fill="#F8FAFC" style="stroke:#CBD5E1;stroke-width:1.5;"/><rect fill="none" height="44" rx="8" ry="8" style="stroke:#CBD5E1;stroke-width:1.5;" width="438.813" x="478.7695" y="1116"/><text fill="#000000" font-family="Helvetica" font-size="14" font-weight="bold" lengthAdjust="spacing" textLength="21.7656" x="493.7695" y="1127.7803">opt</text><text fill="#000000" font-family="Helvetica" font-size="14" font-weight="bold" lengthAdjust="spacing" textLength="276.1309" x="560.5352" y="1128.7803">[force-new or conflicting drift is detected]</text><g class="message" data-entity-1="part4" data-entity-2="part3" id="msg16"><polygon fill="#0F172A" points="555.7935,1148,545.7935,1152,555.7935,1156,551.7935,1152" style="stroke:#0F172A;stroke-width:1;"/><line style="stroke:#0F172A;stroke-width:1;stroke-dasharray:2,2;" x1="549.7935" x2="828.3862" y1="1152" y2="1152"/><text fill="#000000" font-family="Helvetica" font-size="14" lengthAdjust="spacing" textLength="164.1855" x="561.7935" y="1146.7803">reject before OCI mutation</text></g><path d="M739.1899,1174 L797.9556,1174 L797.9556,1180 L787.9556,1190 L731.1899,1190 L731.1899,1182 A8,8 0 0 1 739.1899,1174" fill="#F8FAFC" style="stroke:#CBD5E1;stroke-width:1.5;"/><rect fill="none" height="116" rx="8" ry="8" style="stroke:#CBD5E1;stroke-width:1.5;" width="475.9575" x="731.1899" y="1174"/><text fill="#000000" font-family="Helvetica" font-size="14" font-weight="bold" lengthAdjust="spacing" textLength="21.7656" x="746.1899" y="1185.7803">opt</text><text fill="#000000" font-family="Helvetica" font-size="14" font-weight="bold" lengthAdjust="spacing" textLength="243.4619" x="812.9556" y="1186.7803">[supported mutable drift is detected]</text><g class="message" data-entity-1="part4" data-entity-2="part5" id="msg17"><polygon fill="#0F172A" points="1155.7026,1220,1165.7026,1224,1155.7026,1228,1159.7026,1224" style="stroke:#0F172A;stroke-width:1;"/><line style="stroke:#0F172A;stroke-width:1;" x1="829.3862" x2="1161.7026" y1="1224" y2="1224"/><text fill="#000000" font-family="Helvetica" font-size="14" lengthAdjust="spacing" textLength="253.709" x="836.3862" y="1204.7803">Apply UpdateWaasEdgeSubnets only for</text><text fill="#000000" font-family="Helvetica" font-size="14" lengthAdjust="spacing" textLength="176.6543" x="836.3862" y="1218.7803">mutable fields display_name</text></g><path d="M749.1899,1239 L815.7349,1239 L815.7349,1245 L805.7349,1255 L741.1899,1255 L741.1899,1247 A8,8 0 0 1 749.1899,1239" fill="#F8FAFC" style="stroke:#CBD5E1;stroke-width:1.5;"/><rect fill="none" height="44" rx="8" ry="8" style="stroke:#CBD5E1;stroke-width:1.5;" width="455.9575" x="741.1899" y="1239"/><text fill="#000000" font-family="Helvetica" font-size="14" font-weight="bold" lengthAdjust="spacing" textLength="29.5449" x="756.1899" y="1250.7803">loop</text><text fill="#000000" font-family="Helvetica" font-size="14" font-weight="bold" lengthAdjust="spacing" textLength="190.5381" x="830.7349" y="1251.7803">[update pending UPDATING]</text><g class="message" data-entity-1="part4" data-entity-2="part5" id="msg18"><polygon fill="#0F172A" points="1155.7026,1271,1165.7026,1275,1155.7026,1279,1159.7026,1275" style="stroke:#0F172A;stroke-width:1;"/><line style="stroke:#0F172A;stroke-width:1;" x1="829.3862" x2="1161.7026" y1="1275" y2="1275"/><text fill="#000000" font-family="Helvetica" font-size="14" lengthAdjust="spacing" textLength="142.4199" x="836.3862" y="1269.7803">GetWaasEdgeSubnets</text></g><g class="message" data-entity-1="part4" data-entity-2="part5" id="msg19"><polygon fill="#0F172A" points="1155.7026,1383,1165.7026,1387,1155.7026,1391,1159.7026,1387" style="stroke:#0F172A;stroke-width:1;"/><line style="stroke:#0F172A;stroke-width:1;" x1="829.3862" x2="1161.7026" y1="1387" y2="1387"/><text fill="#000000" font-family="Helvetica" font-size="14" lengthAdjust="spacing" textLength="104.2891" x="836.3862" y="1311.7803">run helper hooks</text><text fill="#000000" font-family="Helvetica" font-size="14" lengthAdjust="spacing" textLength="219.0508" x="836.3862" y="1325.7803">create=tfresource.CreateResource,</text><text fill="#000000" font-family="Helvetica" font-size="14" lengthAdjust="spacing" textLength="314.3164" x="836.3862" y="1339.7803">tfresource.WaitForWorkRequestWithErrorHandling</text><text fill="#000000" font-family="Helvetica" font-size="14" lengthAdjust="spacing" textLength="215.5439" x="836.3862" y="1353.7803">entity=template action=CREATED;</text><text fill="#000000" font-family="Helvetica" font-size="14" lengthAdjust="spacing" textLength="226.085" x="836.3862" y="1367.7803">update=tfresource.UpdateResource;</text><text fill="#000000" font-family="Helvetica" font-size="14" lengthAdjust="spacing" textLength="212.8438" x="836.3862" y="1381.7803">delete=tfresource.DeleteResource</text></g><g class="message" data-entity-1="part4" data-entity-2="part3" id="msg20"><polygon fill="#0F172A" points="555.7935,1432,545.7935,1436,555.7935,1440,551.7935,1436" style="stroke:#0F172A;stroke-width:1;"/><line style="stroke:#0F172A;stroke-width:1;stroke-dasharray:2,2;" x1="549.7935" x2="828.3862" y1="1436" y2="1436"/><text fill="#000000" font-family="Helvetica" font-size="14" lengthAdjust="spacing" textLength="100.7822" x="561.7935" y="1416.7803">status=required,</text><text fill="#000000" font-family="Helvetica" font-size="14" lengthAdjust="spacing" textLength="230.7197" x="561.7935" y="1430.7803">finalizer=retain-until-confirmed-delete</text></g><g class="message" data-entity-1="part3" data-entity-2="part2" id="msg21"><polygon fill="#0F172A" points="316.9673,1481,306.9673,1485,316.9673,1489,312.9673,1485" style="stroke:#0F172A;stroke-width:1;"/><line style="stroke:#0F172A;stroke-width:1;stroke-dasharray:2,2;" x1="310.9673" x2="543.7935" y1="1485" y2="1485"/><text fill="#000000" font-family="Helvetica" font-size="14" lengthAdjust="spacing" textLength="214.8262" x="322.9673" y="1465.7803">requeue on provisioning, updating,</text><text fill="#000000" font-family="Helvetica" font-size="14" lengthAdjust="spacing" textLength="69.2549" x="322.9673" y="1479.7803">terminating</text></g><path d="M834,1506 L834,1962 A8,8 0 0 0 842,1970 L1154,1970 A8,8 0 0 0 1162,1962 L1162,1508 L1152,1498 L842,1498 A8,8 0 0 0 834,1506" fill="#FFF7D6" style="stroke:#B45309;stroke-width:0.5;"/><path d="M1152,1498 L1152,1504 A4,4 0 0 0 1156,1508 L1162,1508 L1152,1498" fill="#FFF7D6" style="stroke:#B45309;stroke-width:0.5;"/><text fill="#334155" font-family="Helvetica" font-size="14" lengthAdjust="spacing" textLength="101.165" x="840" y="1513.7803">shared diagram:</text><text fill="#334155" font-family="Helvetica" font-size="14" lengthAdjust="spacing" textLength="307.3916" x="840" y="1527.7803">shared/diagrams/shared-resolution-sequence.svg</text><text fill="#334155" font-family="Helvetica" font-size="14" lengthAdjust="spacing" textLength="143.1992" x="840" y="1541.7803">shared delete diagram:</text><text fill="#334155" font-family="Helvetica" font-size="14" lengthAdjust="spacing" textLength="284.833" x="840" y="1555.7803">shared/diagrams/shared-delete-sequence.svg</text><text fill="#334155" font-family="Helvetica" font-size="14" lengthAdjust="spacing" textLength="280.9297" x="840" y="1569.7803">Start from the shared resolution sequence for</text><text fill="#334155" font-family="Helvetica" font-size="14" lengthAdjust="spacing" textLength="260.7295" x="840" y="1583.7803">OCID binding, datasource pagination, and</text><text fill="#334155" font-family="Helvetica" font-size="14" lengthAdjust="spacing" textLength="163.4268" x="840" y="1597.7803">create-or-update dispatch.</text><text fill="#334155" font-family="Helvetica" font-size="14" lengthAdjust="spacing" textLength="301.1982" x="840" y="1611.7803">Layer the shared delete sequence when finalizer</text><text fill="#334155" font-family="Helvetica" font-size="14" lengthAdjust="spacing" textLength="269.2471" x="840" y="1625.7803">retention, delete confirmation, work-request</text><text fill="#334155" font-family="Helvetica" font-size="14" lengthAdjust="spacing" textLength="199.2334" x="840" y="1639.7803">polling, or Secret cleanup apply.</text><text fill="#334155" font-family="Helvetica" font-size="14" lengthAdjust="spacing" textLength="281.709" x="840" y="1653.7803">archetype batch: Generated service-manager</text><text fill="#334155" font-family="Helvetica" font-size="14" lengthAdjust="spacing" textLength="266.1504" x="840" y="1667.7803">controllers follow the shared resolution and</text><text fill="#334155" font-family="Helvetica" font-size="14" lengthAdjust="spacing" textLength="259.9297" x="840" y="1681.7803">delete sequences with imported waits and</text><text fill="#334155" font-family="Helvetica" font-size="14" lengthAdjust="spacing" textLength="134.6064" x="840" y="1695.7803">controller-local policy.</text><text fill="#334155" font-family="Helvetica" font-size="14" lengthAdjust="spacing" textLength="84.8066" x="840" y="1709.7803">service: waas</text><text fill="#334155" font-family="Helvetica" font-size="14" lengthAdjust="spacing" textLength="146.3232" x="840" y="1723.7803">slug: waasedgesubnets</text><text fill="#334155" font-family="Helvetica" font-size="14" lengthAdjust="spacing" textLength="153.3164" x="840" y="1737.7803">kind: WaasEdgeSubnets</text><text fill="#334155" font-family="Helvetica" font-size="14" lengthAdjust="spacing" textLength="241.2402" x="840" y="1751.7803">archetype: generated-service-manager</text><text fill="#334155" font-family="Helvetica" font-size="14" lengthAdjust="spacing" textLength="156.4063" x="840" y="1765.7803">status/finalizer: required /</text><text fill="#334155" font-family="Helvetica" font-size="14" lengthAdjust="spacing" textLength="174.3027" x="840" y="1779.7803">retain-until-confirmed-delete</text><text fill="#334155" font-family="Helvetica" font-size="14" lengthAdjust="spacing" textLength="272.3984" x="840" y="1793.7803">requeue: provisioning, updating, terminating</text><text fill="#334155" font-family="Helvetica" font-size="14" lengthAdjust="spacing" textLength="295.6816" x="840" y="1807.7803">provider states: create PROVISIONING; update</text><text fill="#334155" font-family="Helvetica" font-size="14" lengthAdjust="spacing" textLength="192.165" x="840" y="1821.7803">UPDATING; delete DELETING</text><text fill="#334155" font-family="Helvetica" font-size="14" lengthAdjust="spacing" textLength="183.6611" x="840" y="1835.7803">supported drift: display_name</text><text fill="#334155" font-family="Helvetica" font-size="14" lengthAdjust="spacing" textLength="230.3301" x="840" y="1849.7803">reject before mutate: force-new fields</text><text fill="#334155" font-family="Helvetica" font-size="14" lengthAdjust="spacing" textLength="100.3789" x="840" y="1863.7803">compartment_id</text><text fill="#334155" font-family="Helvetica" font-size="14" lengthAdjust="spacing" textLength="279.3984" x="840" y="1877.7803">list lookup: scaffold_waas_waasedgesubnets</text><text fill="#334155" font-family="Helvetica" font-size="14" lengthAdjust="spacing" textLength="175.8477" x="840" y="1891.7803">filters compartment_id, state</text><text fill="#334155" font-family="Helvetica" font-size="14" lengthAdjust="spacing" textLength="89.4961" x="840" y="1905.7803">conflicts: none</text><text fill="#334155" font-family="Helvetica" font-size="14" lengthAdjust="spacing" textLength="104.3164" x="840" y="1919.7803">open gaps: none</text><text fill="#334155" font-family="Helvetica" font-size="14" lengthAdjust="spacing" textLength="224.9023" x="840" y="1933.7803">Scaffold metadata only; replace with</text><text fill="#334155" font-family="Helvetica" font-size="14" lengthAdjust="spacing" textLength="244.3232" x="840" y="1947.7803">controller-specific runtime states before</text><text fill="#334155" font-family="Helvetica" font-size="14" lengthAdjust="spacing" textLength="66.1445" x="840" y="1961.7803">promotion.</text><?plantuml-src fLThRzis5FskNq5qNreWJfecwSD11hH9jWRDcY9kboy60bgwihb8f4PIThDX_ts73ycIOgzfXmADB9BtSUwvvrBcJiYAQruoi-2PMWavPpal32McNPdnz6wkLIspKrKepNxAK_pBEZioodbTs5-Kj1zvIUmz5Kko8kMRzqp4NyJs3pkBN6krYjQVv_klNdHFIcNftOCOylnLzdAuI-cCTDmnEpmwUFvciCEvZ-i71uVxHqUTTMy-LLgIPlil4ojiGMn2VzOaKs8ZjkBSxDtWl_DiJfDw9icQP24oOhbITgQ-TcoPvjZV2MCyjKhtOeivDal3vEW5lSwVOnd60AEekBIRptStFCPA9__MHY5okXIoZzwRGtumUurLPxBgBQMpx8ZsswK7bNcTypnD_abyRkn3FID0QiaadJZOAGBHgYX8zrw_uuQkALKo5SEb9rUJgmyJqakHqczSyZdf9umRrd_LEt9rUf6ugZErH4txjdS6vy1_JHdJP5HHMw7aEBxQomIVewPcB_mUhRUCcZBlckMyiP1HWMotdWxB_PCaCy_EP0qM6_tSmMZCI69_JMp0FyGR4qhMkztPVh9ZrZu_rSwpiS-I_XPtg0_9U6qSIHdXaXlItrE0NIfrXpySQSo4p19UM6OrY84Je01zhGgKnDU3eLyaMkkUyK8Jp-wnAWmizNsxQB1xp7ubE_H9aAVMV6jE65OAOo1WsqnTmi_0rjDS59Qq6Kzbgaf7dHBcRaMsmupbbfxvL3JLXi-0WelVLR_Mw6muHCtG-w3-DfUdID7IC852gOgbVebLgBqJtK_NLxzVJ2wkFbvy_FLxi81lZyVc67ySumqvRM1L1UnWENJD4kNeLLX8Zs8Tp3aa0_bPf21baJzd_lMsyCBgCC8jcn5RBdJPU5eAFfKFymChft837q9fujccD6Vdb-UVlwiiMyqtEAG5SOd4qHovaBp0GDH01M-D9zQiK8xTZoc19ii1T8pPizOt8jxh-y2DkEOOZWVe5bCp0ykFTH32MWVAS_JCGwk1Z0qX7HD2DCA4O1mz7-SmIDrg8Le-byZHW51JsMsK7VRbqzdRp_wfhPBtNeXb0uOp1-qoI82ARCHNaE6fpBJ8BQCbBshkWuzCzAyN0B1mIh8U7lsuTznacTHLfJHOpEegSvvChNEUqfXbmbG5lx-Lk0mbr_G7fPRDA5UQM5cxeCQG3VJdID8gX6MIlluaKL8RVM8RvMazE5HbEoP1AzS745th21noHHao52orZorxDsnN1HzwKsVdqBG0k2KdFj_s57lcRLKLz-oBn-r1yqWivQw56hC1eZwilbCZy4sdDcpuNW7TBk2wbcn11NIEBL0HWpdXTVl4vet8xWQHluu_TwQoitR31UvS-aRfk-iWUZV2BivntTNl8yccCiZbYILqac_VrC5ySdfz_lRp-TdnL8Oqkpu3SerFR0dTsDqIPBFPybX53u9z4ficGpPjtvy4gHdL2BSOHQ5jRpJUmV1ACRZ4D9qD1QgqMWg3D870JgYZUm9uf4juj6txQJ5VMAPojld25kzN_--szaqhcsvj4uk6PBbM9RCBOWykaEkF090v0PtE_Et89unqUPpH5P_xV9NSSSAT18ADb1v5TZlQSvikTfDBVWzKEyuQrMyShHOarqATe62EMyvogzQ-Qj7T2hGSnM6SL2YIZqqvjKCKwp75NRVk9bod2xBt5U6J4F6uViAt4dS2O49jHcKiJjfM7RgBlsgr1IENyI0BmrRe4IRAA2uhz909qBHMHnYGl628MQI8BBeV-s-qn1JrF3mIEjt4JiUtMJP-S85jSngpUPFDQ9XDQ8gz5jXnCrGojfVyTrT4oe-t4Pvr-Uxtu4ChgBjJ_N19xCwyuoXwIIDsnqrjsmcurcMlnuDvf7ze7XNkcbVueGIHI7cEgcQt3kFR8T1nPcqPMSrWGdPIIJUvGDavhvhVasYRbS3LjOcV1yT072auYeCRNIAOYbAHYzH9jHLbdFecvkSWBPLZscuxBFy5?></g></svg>