<?plantuml 1.2026.1?><svg xmlns="http://www.w3.org/2000/svg" xmlns:xlink="http://www.w3.org/1999/xlink" contentStyleType="text/css" data-diagram-type="ACTIVITY" height="1371px" preserveAspectRatio="none" style="width:663px;height:1371px;background:#FCFCFD;" version="1.1" viewBox="0 0 663 1371" width="663px" zoomAndPan="magnify"><title>Activity - datasafe/DataSafeSqlFirewallPolicies</title><defs/><g><rect fill="#FCFCFD" height="1371" style="stroke:none;stroke-width:1;" width="663" x="0" y="0"/><g class="title" data-source-line="10"><text fill="#000000" font-family="Helvetica" font-size="14" font-weight="bold" lengthAdjust="spacing" textLength="310.4541" x="174.9432" y="30.7803">Activity - datasafe/DataSafeSqlFirewallPolicies</text></g><ellipse cx="280.3005" cy="55" fill="#1D4ED8" rx="10" ry="10" style="stroke:#222222;stroke-width:1;"/><rect fill="#F8FAFC" height="48" rx="8" ry="8" style="stroke:#0F172A;stroke-width:0.5;" width="304.7852" x="127.908" y="85"/><text fill="#0F172A" font-family="Helvetica" font-size="14" lengthAdjust="spacing" textLength="136.9375" x="137.908" y="105.7803">Start from shared flow</text><text fill="#0F172A" font-family="Helvetica" font-size="14" lengthAdjust="spacing" textLength="284.7852" x="137.908" y="119.7803">shared/diagrams/shared-reconcile-activity.svg</text><rect fill="#F8FAFC" height="48" rx="8" ry="8" style="stroke:#0F172A;stroke-width:0.5;" width="313.3779" x="123.6116" y="153"/><text fill="#0F172A" font-family="Helvetica" font-size="14" lengthAdjust="spacing" textLength="293.3779" x="133.6116" y="173.7803">Load desired DataSafeSqlFirewallPolicies spec</text><text fill="#0F172A" font-family="Helvetica" font-size="14" lengthAdjust="spacing" textLength="171.9854" x="133.6116" y="187.7803">and status from Kubernetes</text><rect fill="#F8FAFC" height="62" rx="8" ry="8" style="stroke:#0F172A;stroke-width:0.5;" width="268.2197" x="146.1907" y="221"/><text fill="#0F172A" font-family="Helvetica" font-size="14" lengthAdjust="spacing" textLength="135.3857" x="156.1907" y="241.7803">Resolve OCI state via</text><text fill="#0F172A" font-family="Helvetica" font-size="14" lengthAdjust="spacing" textLength="226.4268" x="156.1907" y="255.7803">GetDataSafeSqlFirewallPolicies with</text><text fill="#0F172A" font-family="Helvetica" font-size="14" lengthAdjust="spacing" textLength="248.2197" x="156.1907" y="269.7803">ListDataSafeSqlFirewallPolicies fallback</text><rect fill="#F8FAFC" height="76" rx="8" ry="8" style="stroke:#0F172A;stroke-width:0.5;" width="317.2402" x="121.6804" y="303"/><text fill="#0F172A" font-family="Helvetica" font-size="14" lengthAdjust="spacing" textLength="24.8965" x="131.6804" y="323.7803">Use</text><text fill="#0F172A" font-family="Helvetica" font-size="14" lengthAdjust="spacing" textLength="279.3916" x="131.6804" y="337.7803">scaffold_datasafe_datasafesqlfirewallpolicies</text><text fill="#0F172A" font-family="Helvetica" font-size="14" lengthAdjust="spacing" textLength="297.2402" x="131.6804" y="351.7803">filters compartment_id, state when OCID lookup</text><text fill="#0F172A" font-family="Helvetica" font-size="14" lengthAdjust="spacing" textLength="259.9023" x="131.6804" y="365.7803">or bind-versus-create needs list resolution</text><polygon fill="#E2E8F0" points="226.6111,399,333.99,399,345.99,411,333.99,423,226.6111,423,214.6111,411,226.6111,399" style="stroke:#1D4ED8;stroke-width:0.5;"/><text fill="#0F172A" font-family="Helvetica" font-size="14" lengthAdjust="spacing" textLength="107.3789" x="226.6111" y="414.7803">Resource exists?</text><text fill="#000000" font-family="Helvetica" font-size="14" lengthAdjust="spacing" textLength="21.7861" x="192.825" y="407.7803">yes</text><text fill="#000000" font-family="Helvetica" font-size="14" lengthAdjust="spacing" textLength="15.5723" x="345.99" y="407.7803">no</text><rect fill="#F8FAFC" height="48" rx="8" ry="8" style="stroke:#0F172A;stroke-width:0.5;" width="240.2197" x="24.2412" y="433"/><text fill="#0F172A" font-family="Helvetica" font-size="14" lengthAdjust="spacing" textLength="108.1787" x="34.2412" y="453.7803">Update path calls</text><text fill="#0F172A" font-family="Helvetica" font-size="14" lengthAdjust="spacing" textLength="220.2197" x="34.2412" y="467.7803">UpdateDataSafeSqlFirewallPolicies</text><rect fill="#F8FAFC" height="48" rx="8" ry="8" style="stroke:#0F172A;stroke-width:0.5;" width="266.7021" x="11" y="501"/><text fill="#0F172A" font-family="Helvetica" font-size="14" lengthAdjust="spacing" textLength="246.7021" x="21" y="521.7803">Guard mutable fields display_name and</text><text fill="#0F172A" font-family="Helvetica" font-size="14" lengthAdjust="spacing" textLength="202.3096" x="21" y="535.7803">force-new fields compartment_id</text><rect fill="#F8FAFC" height="48" rx="8" ry="8" style="stroke:#0F172A;stroke-width:0.5;" width="237.0957" x="297.7021" y="433"/><text fill="#0F172A" font-family="Helvetica" font-size="14" lengthAdjust="spacing" textLength="105.0547" x="307.7021" y="453.7803">Create path calls</text><text fill="#0F172A" font-family="Helvetica" font-size="14" lengthAdjust="spacing" textLength="217.0957" x="307.7021" y="467.7803">CreateDataSafeSqlFirewallPolicies</text><polygon fill="#E2E8F0" points="280.3005,555,292.3005,567,280.3005,579,268.3005,567,280.3005,555" style="stroke:#1D4ED8;stroke-width:0.5;"/><rect fill="#F8FAFC" height="104" rx="8" ry="8" style="stroke:#0F172A;stroke-width:0.5;" width="334.3164" x="113.1423" y="599"/><text fill="#0F172A" font-family="Helvetica" font-size="14" lengthAdjust="spacing" textLength="164.2061" x="123.1423" y="619.7803">Run provider helper hooks</text><text fill="#0F172A" font-family="Helvetica" font-size="14" lengthAdjust="spacing" textLength="219.0508" x="123.1423" y="633.7803">create=tfresource.CreateResource,</text><text fill="#0F172A" font-family="Helvetica" font-size="14" lengthAdjust="spacing" textLength="314.3164" x="123.1423" y="647.7803">tfresource.WaitForWorkRequestWithErrorHandling</text><text fill="#0F172A" font-family="Helvetica" font-size="14" lengthAdjust="spacing" textLength="215.5439" x="123.1423" y="661.7803">entity=template action=CREATED;</text><text fill="#0F172A" font-family="Helvetica" font-size="14" lengthAdjust="spacing" textLength="226.085" x="123.1423" y="675.7803">update=tfresource.UpdateResource;</text><text fill="#0F172A" font-family="Helvetica" font-size="14" lengthAdjust="spacing" textLength="212.8438" x="123.1423" y="689.7803">delete=tfresource.DeleteResource</text><rect fill="#F8FAFC" height="34" rx="8" ry="8" style="stroke:#0F172A;stroke-width:0.5;" width="263.5918" x="148.5046" y="723"/><text fill="#0F172A" font-family="Helvetica" font-size="14" lengthAdjust="spacing" textLength="243.5918" x="158.5046" y="743.7803">Apply repo-authored secret policy none</text><rect fill="#F8FAFC" height="90" rx="8" ry="8" style="stroke:#0F172A;stroke-width:0.5;" width="311.0195" x="124.7908" y="777"/><text fill="#0F172A" font-family="Helvetica" font-size="14" lengthAdjust="spacing" textLength="105.0684" x="134.7908" y="797.7803">Delete path uses</text><text fill="#0F172A" font-family="Helvetica" font-size="14" lengthAdjust="spacing" textLength="244.3301" x="134.7908" y="811.7803">DeleteDataSafeSqlFirewallPolicies with</text><text fill="#0F172A" font-family="Helvetica" font-size="14" lengthAdjust="spacing" textLength="291.0195" x="134.7908" y="825.7803">required via GetDataSafeSqlFirewallPolicies or</text><text fill="#0F172A" font-family="Helvetica" font-size="14" lengthAdjust="spacing" textLength="280.8887" x="134.7908" y="839.7803">ListDataSafeSqlFirewallPolicies to DELETED</text><text fill="#0F172A" font-family="Helvetica" font-size="14" lengthAdjust="spacing" textLength="76.2549" x="134.7908" y="853.7803">confirmation</text><rect fill="#F8FAFC" height="48" rx="8" ry="8" style="stroke:#0F172A;stroke-width:0.5;" width="279.1299" x="140.7356" y="887"/><text fill="#0F172A" font-family="Helvetica" font-size="14" lengthAdjust="spacing" textLength="259.1299" x="150.7356" y="907.7803">Project required status and finalizer policy</text><text fill="#0F172A" font-family="Helvetica" font-size="14" lengthAdjust="spacing" textLength="174.3027" x="150.7356" y="921.7803">retain-until-confirmed-delete</text><rect fill="#F8FAFC" height="34" rx="8" ry="8" style="stroke:#0F172A;stroke-width:0.5;" width="313.4189" x="123.5911" y="955"/><text fill="#0F172A" font-family="Helvetica" font-size="14" lengthAdjust="spacing" textLength="293.4189" x="133.5911" y="975.7803">Requeue on provisioning, updating, terminating</text><path d="M311.3005,999 L311.3005,1175 L291.3005,1179 L311.3005,1183 L311.3005,1359 A0,0 0 0 0 311.3005,1359 L651.3406,1359 A0,0 0 0 0 651.3406,1359 L651.3406,1009 L641.3406,999 L311.3005,999 A0,0 0 0 0 311.3005,999" fill="#FFF7D6" style="stroke:#B45309;stroke-width:0.5;"/><path d="M641.3406,999 L641.3406,1009 L651.3406,1009 L641.3406,999" fill="#FFF7D6" style="stroke:#B45309;stroke-width:0.5;"/><text fill="#334155" font-family="Helvetica" font-size="14" lengthAdjust="spacing" textLength="101.165" x="317.3005" y="1014.7803">shared diagram:</text><text fill="#334155" font-family="Helvetica" font-size="14" lengthAdjust="spacing" textLength="284.7852" x="317.3005" y="1028.7803">shared/diagrams/shared-reconcile-activity.svg</text><text fill="#334155" font-family="Helvetica" font-size="14" lengthAdjust="spacing" textLength="265.3438" x="317.3005" y="1042.7803">Start from the shared reconcile activity and</text><text fill="#334155" font-family="Helvetica" font-size="14" lengthAdjust="spacing" textLength="273.8955" x="317.3005" y="1056.7803">specialize provider-backed CRUD, wait, and</text><text fill="#334155" font-family="Helvetica" font-size="14" lengthAdjust="spacing" textLength="182.875" x="317.3005" y="1070.7803">status-projection details here.</text><text fill="#334155" font-family="Helvetica" font-size="14" lengthAdjust="spacing" textLength="229.5371" x="317.3005" y="1084.7803">Controller-local activity diagrams add</text><text fill="#334155" font-family="Helvetica" font-size="14" lengthAdjust="spacing" textLength="238.8955" x="317.3005" y="1098.7803">list-lookup hints, secret policies, delete</text><text fill="#334155" font-family="Helvetica" font-size="14" lengthAdjust="spacing" textLength="200.0332" x="317.3005" y="1112.7803">handling, and open formal gaps.</text><text fill="#334155" font-family="Helvetica" font-size="14" lengthAdjust="spacing" textLength="281.709" x="317.3005" y="1126.7803">archetype batch: Generated service-manager</text><text fill="#334155" font-family="Helvetica" font-size="14" lengthAdjust="spacing" textLength="291.0469" x="317.3005" y="1140.7803">controllers specialize the shared reconcile path</text><text fill="#334155" font-family="Helvetica" font-size="14" lengthAdjust="spacing" textLength="189.8477" x="317.3005" y="1154.7803">with formal runtime ownership.</text><text fill="#334155" font-family="Helvetica" font-size="14" lengthAdjust="spacing" textLength="105.834" x="317.3005" y="1168.7803">service: datasafe</text><text fill="#334155" font-family="Helvetica" font-size="14" lengthAdjust="spacing" textLength="195.3232" x="317.3005" y="1182.7803">slug: datasafesqlfirewallpolicies</text><text fill="#334155" font-family="Helvetica" font-size="14" lengthAdjust="spacing" textLength="208.5371" x="317.3005" y="1196.7803">kind: DataSafeSqlFirewallPolicies</text><text fill="#334155" font-family="Helvetica" font-size="14" lengthAdjust="spacing" textLength="241.2402" x="317.3005" y="1210.7803">archetype: generated-service-manager</text><text fill="#334155" font-family="Helvetica" font-size="14" lengthAdjust="spacing" textLength="156.4063" x="317.3005" y="1224.7803">status/finalizer: required /</text><text fill="#334155" font-family="Helvetica" font-size="14" lengthAdjust="spacing" textLength="174.3027" x="317.3005" y="1238.7803">retain-until-confirmed-delete</text><text fill="#334155" font-family="Helvetica" font-size="14" lengthAdjust="spacing" textLength="272.3984" x="317.3005" y="1252.7803">requeue: provisioning, updating, terminating</text><text fill="#334155" font-family="Helvetica" font-size="14" lengthAdjust="spacing" textLength="295.6816" x="317.3005" y="1266.7803">provider states: create PROVISIONING; update</text><text fill="#334155" font-family="Helvetica" font-size="14" lengthAdjust="spacing" textLength="192.165" x="317.3005" y="1280.7803">UPDATING; delete DELETING</text><text fill="#334155" font-family="Helvetica" font-size="14" lengthAdjust="spacing" textLength="319.04" x="317.3005" y="1294.7803">mutable/forceNew: display_name / compartment_id</text><text fill="#334155" font-family="Helvetica" font-size="14" lengthAdjust="spacing" textLength="104.3164" x="317.3005" y="1308.7803">open gaps: none</text><text fill="#334155" font-family="Helvetica" font-size="14" lengthAdjust="spacing" textLength="224.9023" x="317.3005" y="1322.7803">Scaffold metadata only; replace with</text><text fill="#334155" font-family="Helvetica" font-size="14" lengthAdjust="spacing" textLength="244.3232" x="317.3005" y="1336.7803">controller-specific runtime states before</text><text fill="#334155" font-family="Helvetica" font-size="14" lengthAdjust="spacing" textLength="66.1445" x="317.3005" y="1350.7803">promotion.</text><ellipse cx="280.3005" cy="1179" fill="none" rx="11" ry="11" style="stroke:#222222;stroke-width:1;"/><ellipse cx="280.3005" cy="1179" fill="#222222" rx="6" ry="6" style="stroke:#222222;stroke-width:1;"/><line style="stroke:#0F172A;stroke-width:1;" x1="280.3005" x2="280.3005" y1="65" y2="85"/><polygon fill="#0F172A" points="276.3005,75,280.3005,85,284.3005,75,280.3005,79" style="stroke:#0F172A;stroke-width:1;"/><line style="stroke:#0F172A;stroke-width:1;" x1="280.3005" x2="280.3005" y1="133" y2="153"/><polygon fill="#0F172A" points="276.3005,143,280.3005,153,284.3005,143,280.3005,147" style="stroke:#0F172A;stroke-width:1;"/><line style="stroke:#0F172A;stroke-width:1;" x1="280.3005" x2="280.3005" y1="201" y2="221"/><polygon fill="#0F172A" points="276.3005,211,280.3005,221,284.3005,211,280.3005,215" style="stroke:#0F172A;stroke-width:1;"/><line style="stroke:#0F172A;stroke-width:1;" x1="280.3005" x2="280.3005" y1="283" y2="303"/><polygon fill="#0F172A" points="276.3005,293,280.3005,303,284.3005,293,280.3005,297" style="stroke:#0F172A;stroke-width:1;"/><line style="stroke:#0F172A;stroke-width:1;" x1="144.3511" x2="144.3511" y1="481" y2="501"/><polygon fill="#0F172A" points="140.3511,491,144.3511,501,148.3511,491,144.3511,495" style="stroke:#0F172A;stroke-width:1;"/><line style="stroke:#0F172A;stroke-width:1;" x1="214.6111" x2="144.3511" y1="411" y2="411"/><line style="stroke:#0F172A;stroke-width:1;" x1="144.3511" x2="144.3511" y1="411" y2="433"/><polygon fill="#0F172A" points="140.3511,423,144.3511,433,148.3511,423,144.3511,427" style="stroke:#0F172A;stroke-width:1;"/><line style="stroke:#0F172A;stroke-width:1;" x1="345.99" x2="416.25" y1="411" y2="411"/><line style="stroke:#0F172A;stroke-width:1;" x1="416.25" x2="416.25" y1="411" y2="433"/><polygon fill="#0F172A" points="412.25,423,416.25,433,420.25,423,416.25,427" style="stroke:#0F172A;stroke-width:1;"/><line style="stroke:#0F172A;stroke-width:1;" x1="144.3511" x2="144.3511" y1="549" y2="567"/><line style="stroke:#0F172A;stroke-width:1;" x1="144.3511" x2="268.3005" y1="567" y2="567"/><polygon fill="#0F172A" points="258.3005,563,268.3005,567,258.3005,571,262.3005,567" style="stroke:#0F172A;stroke-width:1;"/><line style="stroke:#0F172A;stroke-width:1;" x1="416.25" x2="416.25" y1="481" y2="567"/><line style="stroke:#0F172A;stroke-width:1;" x1="416.25" x2="292.3005" y1="567" y2="567"/><polygon fill="#0F172A" points="302.3005,563,292.3005,567,302.3005,571,298.3005,567" style="stroke:#0F172A;stroke-width:1;"/><line style="stroke:#0F172A;stroke-width:1;" x1="280.3005" x2="280.3005" y1="379" y2="399"/><polygon fill="#0F172A" points="276.3005,389,280.3005,399,284.3005,389,280.3005,393" style="stroke:#0F172A;stroke-width:1;"/><line style="stroke:#0F172A;stroke-width:1;" x1="280.3005" x2="280.3005" y1="579" y2="599"/><polygon fill="#0F172A" points="276.3005,589,280.3005,599,284.3005,589,280.3005,593" style="stroke:#0F172A;stroke-width:1;"/><line style="stroke:#0F172A;stroke-width:1;" x1="280.3005" x2="280.3005" y1="703" y2="723"/><polygon fill="#0F172A" points="276.3005,713,280.3005,723,284.3005,713,280.3005,717" style="stroke:#0F172A;stroke-width:1;"/><line style="stroke:#0F172A;stroke-width:1;" x1="280.3005" x2="280.3005" y1="757" y2="777"/><polygon fill="#0F172A" points="276.3005,767,280.3005,777,284.3005,767,280.3005,771" style="stroke:#0F172A;stroke-width:1;"/><line style="stroke:#0F172A;stroke-width:1;" x1="280.3005" x2="280.3005" y1="867" y2="887"/><polygon fill="#0F172A" points="276.3005,877,280.3005,887,284.3005,877,280.3005,881" style="stroke:#0F172A;stroke-width:1;"/><line style="stroke:#0F172A;stroke-width:1;" x1="280.3005" x2="280.3005" y1="935" y2="955"/><polygon fill="#0F172A" points="276.3005,945,280.3005,955,284.3005,945,280.3005,949" style="stroke:#0F172A;stroke-width:1;"/><line style="stroke:#0F172A;stroke-width:1;" x1="280.3005" x2="280.3005" y1="989" y2="1168"/><polygon fill="#0F172A" points="276.3005,1158,280.3005,1168,284.3005,1158,280.3005,1162" style="stroke:#0F172A;stroke-width:1;"/><?plantuml-src bLRVJ-is57xtNs5fBrofQU42zx9KQ68jSD4G87ePBvMG6nyt7euTRATTD-r_tt6Sfg6tAflwaCG-FZ--yvtFTQzIbyooWhgSSREKUau5Kmw8QtTcB7kTMrDfFZBAMFgJoF37EnOS1AkKlpBQtx42w3TG2_0oOxjj9l8le4SddKrchLastW_5qTVFtPFQUFZrXno4-Cg_R5iPoy4s5hEJq-F3dxSiGlXc__ZuvEZqjBDVky-CrM3fqHVYfLT0Bp8l5zAlQ48vyymn0OCnlapmPVAchgI59LFgmIYPIN3TcjOd_oPq1uPdWeaix7HpRcgdL6poRDUuP8NH_0Seu3ESYSEEGTVZ4Jy1VhRPlDhXs7bc_ROzjFvRkndRyleFgO-IT18UL5XJyyW2fqAPvLJ7Zm76dYCaRX2_4mkPqPbKaAn1whl5V4ZIMyCuCiN9u68FpDILa4qrqpmaxoiNO_zMpG3Rvy6XhqTm1cb8xqStjH7GXMHJVGr-d-EbzFbKtqgtrmf7H8MMOfWd1rXdneGmYh-iETA-k3SbcjDbStggXLGUhAEPAP0hlW3jNoJlDMakSz0Xwp5LnhnMvLGZv3EfURB0GvLBCWl1JWDmHnMcIcsejVBIw26HWXw4sYkR0OK_STlzyedwuFHW1UuJfbpoSBvaFgSP9eOPnQKz9MEbrnMpd1QLPpCS3251ONWkNQdOwaM7kST-O7460oSQbckJzrKE2Q2yq0DjC9DHhAIRILpQcmbIKmfiSALfQSr28jjf3geC3qGCdKI4phsm3H3zw7QDIs-gEtlFJA8ksMTZNn_XhGBddv45bwX9zXkMf50KfngpHvwUUoYmNimvCDVeyz7ZvSNto_5mggiQmcxC2Eew9ffmKF3UP5olj2OalIXBjS9-bYPXbSzD60G7M8-dDNzMA6Cw6CQJ4RhA1LR5bO_9RR76Ui1m7kW7us3inyFW3HrVtbuY2WYyGNBRWaKgfW_M_05Pu6SJifdMCBX2QgRm9h1DOI4npwHEAaHQ9OqdL8k8MZtHs9mAg6dwxZ08zgP7Q-ZhDnoh0ls6Zo6Aaob9K7rgvJptf96cHerIyh_KYNGq3eTfhNEjyKRliJWIz4dMvRKKJO9Wu8dHuzEuHvV8kLuqhI59oWWLbeG2Y3WeXvosq2SZL6nhb48Fok2GR0Aj4wUCSn9q88c2GNEflUkzumqsgaSZaYHlI5t7fwP4PS2XBT3rd9MkJvZDSl2h4b3nVPQdI1Ay4v7AWOfs8N6y2wRP72p9skIY9ZSrxmGeK9K42gwZsT1fb0spHFSkbsMVDFxJzh8bJbNppUSEEILuu_9qtssnAIYbytKfoNOfiG-3bfRfXhK3ifUQn4PYfl-5bgILh5hjNKeRENzulF_zPd9pVtTpTpsCPu4yFOmlljSBCLISD5mWZGuFQhczWsNwNee7Mx9BwZQ7_gQrWf19SsNH0aiByE9OgTKmI8zYU7E4HdNQczJT5J9hknRJfpF0321KLPZ0tdwGv_g_rhy0?></g></svg>