<?plantuml 1.2026.1?><svg xmlns="http://www.w3.org/2000/svg" xmlns:xlink="http://www.w3.org/1999/xlink" contentStyleType="text/css" data-diagram-type="ACTIVITY" height="2322px" preserveAspectRatio="none" style="width:1340px;height:2322px;background:#FCFCFD;" version="1.1" viewBox="0 0 1340 2322" width="1340px" zoomAndPan="magnify"><title>Activity - fusionapps/FusionAppsFusionEnvironmentFamilyLimitsAndUsage</title><defs/><g><rect fill="#FCFCFD" height="2322" style="stroke:none;stroke-width:1;" width="1340" x="0" y="0"/><g class="title" data-source-line="10"><text fill="#000000" font-family="Helvetica" font-size="14" font-weight="bold" lengthAdjust="spacing" textLength="508.7168" x="414.3086" y="30.7803">Activity - fusionapps/FusionAppsFusionEnvironmentFamilyLimitsAndUsage</text></g><ellipse cx="698.556" cy="55" fill="#1D4ED8" rx="10" ry="10" style="stroke:#222222;stroke-width:1;"/><rect fill="none" height="472" rx="8" ry="8" style="stroke:#000000;stroke-width:1.5;" width="839.9902" x="283.4247" y="75"/><path d="M405.493,75 L405.493,82 L395.493,92 L283.4247,92" fill="none" style="stroke:#000000;stroke-width:1.5;"/><text fill="#000000" font-family="Helvetica" font-size="14" lengthAdjust="spacing" textLength="112.0684" x="286.4247" y="86.7803">Observe and Bind</text><rect fill="#F8FAFC" height="48" rx="8" ry="8" style="stroke:#0F172A;stroke-width:0.5;" width="304.7852" x="546.1635" y="109"/><text fill="#0F172A" font-family="Helvetica" font-size="14" lengthAdjust="spacing" textLength="136.9375" x="556.1635" y="129.7803">Start from shared flow</text><text fill="#0F172A" font-family="Helvetica" font-size="14" lengthAdjust="spacing" textLength="284.7852" x="556.1635" y="143.7803">shared/diagrams/shared-reconcile-activity.svg</text><rect fill="#F8FAFC" height="62" rx="8" ry="8" style="stroke:#0F172A;stroke-width:0.5;" width="357.7021" x="519.705" y="177"/><text fill="#0F172A" font-family="Helvetica" font-size="14" lengthAdjust="spacing" textLength="83.2754" x="529.705" y="197.7803">Read desired</text><text fill="#0F172A" font-family="Helvetica" font-size="14" lengthAdjust="spacing" textLength="337.7021" x="529.705" y="211.7803">FusionAppsFusionEnvironmentFamilyLimitsAndUsage</text><text fill="#0F172A" font-family="Helvetica" font-size="14" lengthAdjust="spacing" textLength="235.8125" x="529.705" y="225.7803">spec, tracked status, and delete intent</text><polygon fill="#E2E8F0" points="569.0902,259,828.0219,259,840.0219,271,828.0219,283,569.0902,283,557.0902,271,569.0902,259" style="stroke:#1D4ED8;stroke-width:0.5;"/><text fill="#0F172A" font-family="Helvetica" font-size="14" lengthAdjust="spacing" textLength="258.9316" x="569.0902" y="274.7803">"Tracked or explicit OCI identity present?"</text><text fill="#000000" font-family="Helvetica" font-size="14" lengthAdjust="spacing" textLength="21.7861" x="535.3041" y="267.7803">yes</text><text fill="#000000" font-family="Helvetica" font-size="14" lengthAdjust="spacing" textLength="15.5723" x="840.0219" y="267.7803">no</text><rect fill="#F8FAFC" height="48" rx="8" ry="8" style="stroke:#0F172A;stroke-width:0.5;" width="380.2676" x="303.4247" y="293"/><text fill="#0F172A" font-family="Helvetica" font-size="14" lengthAdjust="spacing" textLength="202.3027" x="313.4247" y="313.7803">Get the current OCI resource via</text><text fill="#0F172A" font-family="Helvetica" font-size="14" lengthAdjust="spacing" textLength="360.2676" x="313.4247" y="327.7803">GetFusionAppsFusionEnvironmentFamilyLimitsAndUsage</text><rect fill="#F8FAFC" height="62" rx="8" ry="8" style="stroke:#0F172A;stroke-width:0.5;" width="379.4883" x="713.8094" y="293"/><text fill="#0F172A" font-family="Helvetica" font-size="14" lengthAdjust="spacing" textLength="259.9092" x="723.8094" y="313.7803">Resolve an existing OCI resource through</text><text fill="#0F172A" font-family="Helvetica" font-size="14" lengthAdjust="spacing" textLength="359.4883" x="723.8094" y="327.7803">ListFusionAppsFusionEnvironmentFamilyLimitsAndUsage</text><text fill="#0F172A" font-family="Helvetica" font-size="14" lengthAdjust="spacing" textLength="213.2061" x="723.8094" y="341.7803">using filters compartment_id, state</text><rect fill="#F8FAFC" height="62" rx="8" ry="8" style="stroke:#0F172A;stroke-width:0.5;" width="399.7227" x="703.6923" y="375"/><text fill="#0F172A" font-family="Helvetica" font-size="14" lengthAdjust="spacing" textLength="174.2959" x="713.6923" y="395.7803">Create the OCI resource via</text><text fill="#0F172A" font-family="Helvetica" font-size="14" lengthAdjust="spacing" textLength="379.7227" x="713.6923" y="409.7803">CreateFusionAppsFusionEnvironmentFamilyLimitsAndUsage</text><text fill="#0F172A" font-family="Helvetica" font-size="14" lengthAdjust="spacing" textLength="205.4609" x="713.6923" y="423.7803">when no reusable match is found</text><rect fill="#F8FAFC" height="48" rx="8" ry="8" style="stroke:#0F172A;stroke-width:0.5;" width="286.8955" x="760.1058" y="457"/><text fill="#0F172A" font-family="Helvetica" font-size="14" lengthAdjust="spacing" textLength="266.8955" x="770.1058" y="477.7803">Persist the resolved or created OCI identity</text><text fill="#0F172A" font-family="Helvetica" font-size="14" lengthAdjust="spacing" textLength="63.8135" x="770.1058" y="491.7803">into status</text><polygon fill="#E2E8F0" points="698.556,511,710.556,523,698.556,535,686.556,523,698.556,511" style="stroke:#1D4ED8;stroke-width:0.5;"/><polygon fill="#E2E8F0" points="636.3798,567,760.7323,567,772.7323,579,760.7323,591,636.3798,591,624.3798,579,636.3798,567" style="stroke:#1D4ED8;stroke-width:0.5;"/><text fill="#0F172A" font-family="Helvetica" font-size="14" lengthAdjust="spacing" textLength="124.3525" x="636.3798" y="582.7803">"Delete requested?"</text><text fill="#000000" font-family="Helvetica" font-size="14" lengthAdjust="spacing" textLength="21.7861" x="602.5936" y="575.7803">yes</text><text fill="#000000" font-family="Helvetica" font-size="14" lengthAdjust="spacing" textLength="15.5723" x="772.7323" y="575.7803">no</text><rect fill="none" height="444" rx="8" ry="8" style="stroke:#000000;stroke-width:1.5;" width="644.4814" x="11" y="601"/><path d="M61.4688,601 L61.4688,608 L51.4688,618 L11,618" fill="none" style="stroke:#000000;stroke-width:1.5;"/><text fill="#000000" font-family="Helvetica" font-size="14" lengthAdjust="spacing" textLength="40.4688" x="14" y="612.7803">Delete</text><rect fill="#F8FAFC" height="118" rx="8" ry="8" style="stroke:#0F172A;stroke-width:0.5;" width="398.1709" x="140.6587" y="635"/><text fill="#0F172A" font-family="Helvetica" font-size="14" lengthAdjust="spacing" textLength="105.0684" x="150.6587" y="655.7803">Delete path uses</text><text fill="#0F172A" font-family="Helvetica" font-size="14" lengthAdjust="spacing" textLength="378.1709" x="150.6587" y="669.7803">DeleteFusionAppsFusionEnvironmentFamilyLimitsAndUsage</text><text fill="#0F172A" font-family="Helvetica" font-size="14" lengthAdjust="spacing" textLength="101.9375" x="150.6587" y="683.7803">with required via</text><text fill="#0F172A" font-family="Helvetica" font-size="14" lengthAdjust="spacing" textLength="360.2676" x="150.6587" y="697.7803">GetFusionAppsFusionEnvironmentFamilyLimitsAndUsage</text><text fill="#0F172A" font-family="Helvetica" font-size="14" lengthAdjust="spacing" textLength="12.4482" x="150.6587" y="711.7803">or</text><text fill="#0F172A" font-family="Helvetica" font-size="14" lengthAdjust="spacing" textLength="359.4883" x="150.6587" y="725.7803">ListFusionAppsFusionEnvironmentFamilyLimitsAndUsage</text><text fill="#0F172A" font-family="Helvetica" font-size="14" lengthAdjust="spacing" textLength="160.2822" x="150.6587" y="739.7803">to DELETED confirmation</text><rect fill="#F8FAFC" height="90" rx="8" ry="8" style="stroke:#0F172A;stroke-width:0.5;" width="380.2676" x="149.6104" y="788"/><text fill="#0F172A" font-family="Helvetica" font-size="14" lengthAdjust="spacing" textLength="123.7236" x="159.6104" y="808.7803">Confirm deletion via</text><text fill="#0F172A" font-family="Helvetica" font-size="14" lengthAdjust="spacing" textLength="360.2676" x="159.6104" y="822.7803">GetFusionAppsFusionEnvironmentFamilyLimitsAndUsage</text><text fill="#0F172A" font-family="Helvetica" font-size="14" lengthAdjust="spacing" textLength="12.4482" x="159.6104" y="836.7803">or</text><text fill="#0F172A" font-family="Helvetica" font-size="14" lengthAdjust="spacing" textLength="359.4883" x="159.6104" y="850.7803">ListFusionAppsFusionEnvironmentFamilyLimitsAndUsage</text><text fill="#0F172A" font-family="Helvetica" font-size="14" lengthAdjust="spacing" textLength="176.6201" x="159.6104" y="864.7803">until OCI reaches DELETED</text><polygon fill="#E2E8F0" points="191.5718,913,487.9165,913,499.9165,925,487.9165,937,191.5718,937,179.5718,925,191.5718,913" style="stroke:#1D4ED8;stroke-width:0.5;"/><text fill="#0F172A" font-family="Helvetica" font-size="14" lengthAdjust="spacing" textLength="296.3447" x="191.5718" y="928.7803">"Delete cleanup and finalizer release succeed?"</text><text fill="#000000" font-family="Helvetica" font-size="14" lengthAdjust="spacing" textLength="21.7861" x="157.7856" y="921.7803">yes</text><text fill="#000000" font-family="Helvetica" font-size="14" lengthAdjust="spacing" textLength="15.5723" x="499.9165" y="921.7803">no</text><rect fill="#F8FAFC" height="34" rx="8" ry="8" style="stroke:#0F172A;stroke-width:0.5;" width="293.1436" x="23" y="947"/><text fill="#0F172A" font-family="Helvetica" font-size="14" lengthAdjust="spacing" textLength="273.1436" x="33" y="967.7803">Remove the finalizer after delete completion</text><rect fill="#F8FAFC" height="48" rx="8" ry="8" style="stroke:#0F172A;stroke-width:0.5;" width="251.1299" x="384.3516" y="947"/><text fill="#0F172A" font-family="Helvetica" font-size="14" lengthAdjust="spacing" textLength="231.1299" x="394.3516" y="967.7803">Stay blocked until cleanup or finalizer</text><text fill="#0F172A" font-family="Helvetica" font-size="14" lengthAdjust="spacing" textLength="108.9512" x="394.3516" y="981.7803">release succeeds</text><polygon fill="#E2E8F0" points="339.7441,1001,351.7441,1013,339.7441,1025,327.7441,1013,339.7441,1001" style="stroke:#1D4ED8;stroke-width:0.5;"/><ellipse cx="339.7441" cy="1088" fill="none" rx="11" ry="11" style="stroke:#222222;stroke-width:1;"/><ellipse cx="339.7441" cy="1088" fill="#222222" rx="6" ry="6" style="stroke:#222222;stroke-width:1;"/><rect fill="none" height="456" rx="8" ry="8" style="stroke:#000000;stroke-width:1.5;" width="345.916" x="890.4099" y="601"/><path d="M1041.2439,601 L1041.2439,608 L1031.2439,618 L890.4099,618" fill="none" style="stroke:#000000;stroke-width:1.5;"/><text fill="#000000" font-family="Helvetica" font-size="14" lengthAdjust="spacing" textLength="140.834" x="893.4099" y="612.7803">Lifecycle Classification</text><rect fill="#F8FAFC" height="48" rx="8" ry="8" style="stroke:#0F172A;stroke-width:0.5;" width="280.5928" x="917.0715" y="684"/><text fill="#0F172A" font-family="Helvetica" font-size="14" lengthAdjust="spacing" textLength="240.4541" x="927.0715" y="704.7803">Request requeue while OCI remains in</text><text fill="#0F172A" font-family="Helvetica" font-size="14" lengthAdjust="spacing" textLength="260.5928" x="927.0715" y="718.7803">PROVISIONING, UPDATING, DELETING</text><ellipse cx="1057.3679" cy="778" fill="none" rx="11" ry="11" style="stroke:#222222;stroke-width:1;"/><ellipse cx="1057.3679" cy="778" fill="#222222" rx="6" ry="6" style="stroke:#222222;stroke-width:1;"/><polygon fill="#E2E8F0" points="971.0847,635,1143.6511,635,1155.6511,647,1143.6511,659,971.0847,659,959.0847,647,971.0847,635" style="stroke:#1D4ED8;stroke-width:0.5;"/><text fill="#000000" font-family="Helvetica" font-size="14" lengthAdjust="spacing" textLength="21.7861" x="1061.3679" y="669.7803">yes</text><text fill="#0F172A" font-family="Helvetica" font-size="14" lengthAdjust="spacing" textLength="172.5664" x="971.0847" y="650.7803">"OCI state in retryable set?"</text><rect fill="#F8FAFC" height="48" rx="8" ry="8" style="stroke:#0F172A;stroke-width:0.5;" width="293.916" x="910.4099" y="904"/><text fill="#0F172A" font-family="Helvetica" font-size="14" lengthAdjust="spacing" textLength="273.916" x="920.4099" y="924.7803">Return an unsuccessful reconcile result until</text><text fill="#0F172A" font-family="Helvetica" font-size="14" lengthAdjust="spacing" textLength="133.041" x="920.4099" y="938.7803">OCI reaches ACTIVE</text><ellipse cx="1057.3679" cy="998" fill="none" rx="11" ry="11" style="stroke:#222222;stroke-width:1;"/><ellipse cx="1057.3679" cy="998" fill="#222222" rx="6" ry="6" style="stroke:#222222;stroke-width:1;"/><polygon fill="#E2E8F0" points="936.8469,855,1177.8889,855,1189.8889,867,1177.8889,879,936.8469,879,924.8469,867,936.8469,855" style="stroke:#1D4ED8;stroke-width:0.5;"/><text fill="#000000" font-family="Helvetica" font-size="14" lengthAdjust="spacing" textLength="21.7861" x="1061.3679" y="889.7803">yes</text><text fill="#0F172A" font-family="Helvetica" font-size="14" lengthAdjust="spacing" textLength="241.042" x="936.8469" y="870.7803">"OCI state is outside success targets?"</text><rect fill="none" height="736.5" rx="8" ry="8" style="stroke:#000000;stroke-width:1.5;" width="653.8525" x="675.4814" y="1092"/><path d="M841.9014,1092 L841.9014,1099 L831.9014,1109 L675.4814,1109" fill="none" style="stroke:#000000;stroke-width:1.5;"/><text fill="#000000" font-family="Helvetica" font-size="14" lengthAdjust="spacing" textLength="156.4199" x="678.4814" y="1103.7803">Ready and Drift Handling</text><rect fill="#F8FAFC" height="48" rx="8" ry="8" style="stroke:#0F172A;stroke-width:0.5;" width="296.2402" x="909.2478" y="1126"/><text fill="#0F172A" font-family="Helvetica" font-size="14" lengthAdjust="spacing" textLength="276.2402" x="919.2478" y="1146.7803">Compare live OCI state against the imported</text><text fill="#0F172A" font-family="Helvetica" font-size="14" lengthAdjust="spacing" textLength="75.4824" x="919.2478" y="1160.7803">field surface</text><rect fill="#F8FAFC" height="48" rx="8" ry="8" style="stroke:#0F172A;stroke-width:0.5;" width="302.4473" x="906.1443" y="1243"/><text fill="#0F172A" font-family="Helvetica" font-size="14" lengthAdjust="spacing" textLength="282.4473" x="916.1443" y="1263.7803">Reject drift before OCI mutation for force-new</text><text fill="#0F172A" font-family="Helvetica" font-size="14" lengthAdjust="spacing" textLength="136.9512" x="916.1443" y="1277.7803">fields compartment_id</text><ellipse cx="1057.3679" cy="1323.5" fill="none" rx="11" ry="11" style="stroke:#222222;stroke-width:1;"/><ellipse cx="1057.3679" cy="1323.5" fill="#222222" rx="6" ry="6" style="stroke:#222222;stroke-width:1;"/><polygon fill="#E2E8F0" points="931.7849,1194,1182.9509,1194,1194.9509,1206,1182.9509,1218,931.7849,1218,919.7849,1206,931.7849,1194" style="stroke:#1D4ED8;stroke-width:0.5;"/><text fill="#000000" font-family="Helvetica" font-size="14" lengthAdjust="spacing" textLength="21.7861" x="1061.3679" y="1228.7803">yes</text><text fill="#0F172A" font-family="Helvetica" font-size="14" lengthAdjust="spacing" textLength="251.166" x="931.7849" y="1209.7803">"Force-new or conflicting drift detected?"</text><polygon fill="#E2E8F0" points="946.9402,1376.5,1167.7957,1376.5,1179.7957,1388.5,1167.7957,1400.5,946.9402,1400.5,934.9402,1388.5,946.9402,1376.5" style="stroke:#1D4ED8;stroke-width:0.5;"/><text fill="#0F172A" font-family="Helvetica" font-size="14" lengthAdjust="spacing" textLength="220.8555" x="946.9402" y="1392.2803">"Supported mutable drift detected?"</text><text fill="#000000" font-family="Helvetica" font-size="14" lengthAdjust="spacing" textLength="21.7861" x="913.1541" y="1385.2803">yes</text><text fill="#000000" font-family="Helvetica" font-size="14" lengthAdjust="spacing" textLength="15.5723" x="1179.7957" y="1385.2803">no</text><rect fill="#F8FAFC" height="62" rx="8" ry="8" style="stroke:#0F172A;stroke-width:0.5;" width="402.8467" x="695.4814" y="1410.5"/><text fill="#0F172A" font-family="Helvetica" font-size="14" lengthAdjust="spacing" textLength="35.0205" x="705.4814" y="1431.2803">Apply</text><text fill="#0F172A" font-family="Helvetica" font-size="14" lengthAdjust="spacing" textLength="382.8467" x="705.4814" y="1445.2803">UpdateFusionAppsFusionEnvironmentFamilyLimitsAndUsage</text><text fill="#0F172A" font-family="Helvetica" font-size="14" lengthAdjust="spacing" textLength="226.4541" x="705.4814" y="1459.2803">only for mutable fields display_name</text><rect fill="#F8FAFC" height="34" rx="8" ry="8" style="stroke:#0F172A;stroke-width:0.5;" width="199.0059" x="1118.3281" y="1410.5"/><text fill="#0F172A" font-family="Helvetica" font-size="14" lengthAdjust="spacing" textLength="179.0059" x="1128.3281" y="1431.2803">Skip the no-op mutation path</text><polygon fill="#E2E8F0" points="1057.3679,1478.5,1069.3679,1490.5,1057.3679,1502.5,1045.3679,1490.5,1057.3679,1478.5" style="stroke:#1D4ED8;stroke-width:0.5;"/><rect fill="#F8FAFC" height="118" rx="8" ry="8" style="stroke:#0F172A;stroke-width:0.5;" width="334.3164" x="890.2097" y="1522.5"/><text fill="#0F172A" font-family="Helvetica" font-size="14" lengthAdjust="spacing" textLength="164.2061" x="900.2097" y="1543.2803">Run provider helper hooks</text><text fill="#0F172A" font-family="Helvetica" font-size="14" lengthAdjust="spacing" textLength="219.0508" x="900.2097" y="1557.2803">create=tfresource.CreateResource,</text><text fill="#0F172A" font-family="Helvetica" font-size="14" lengthAdjust="spacing" textLength="314.3164" x="900.2097" y="1571.2803">tfresource.WaitForWorkRequestWithErrorHandling</text><text fill="#0F172A" font-family="Helvetica" font-size="14" lengthAdjust="spacing" textLength="215.5439" x="900.2097" y="1585.2803">entity=template action=CREATED;</text><text fill="#0F172A" font-family="Helvetica" font-size="14" lengthAdjust="spacing" textLength="226.085" x="900.2097" y="1599.2803">update=tfresource.UpdateResource;</text><text fill="#0F172A" font-family="Helvetica" font-size="14" lengthAdjust="spacing" textLength="273.5537" x="900.2097" y="1613.2803">delete=tfresource.DeleteResource when the</text><text fill="#0F172A" font-family="Helvetica" font-size="14" lengthAdjust="spacing" textLength="220.2334" x="900.2097" y="1627.2803">matching field-driven path executes</text><rect fill="#F8FAFC" height="34" rx="8" ry="8" style="stroke:#0F172A;stroke-width:0.5;" width="303.2197" x="905.7581" y="1660.5"/><text fill="#0F172A" font-family="Helvetica" font-size="14" lengthAdjust="spacing" textLength="283.2197" x="915.7581" y="1681.2803">Return success for the ACTIVE success state</text><rect fill="#F8FAFC" height="48" rx="8" ry="8" style="stroke:#0F172A;stroke-width:0.5;" width="279.1299" x="917.803" y="1714.5"/><text fill="#0F172A" font-family="Helvetica" font-size="14" lengthAdjust="spacing" textLength="259.1299" x="927.803" y="1735.2803">Project required status and finalizer policy</text><text fill="#0F172A" font-family="Helvetica" font-size="14" lengthAdjust="spacing" textLength="174.3027" x="927.803" y="1749.2803">retain-until-confirmed-delete</text><rect fill="#F8FAFC" height="34" rx="8" ry="8" style="stroke:#0F172A;stroke-width:0.5;" width="313.4189" x="900.6584" y="1782.5"/><text fill="#0F172A" font-family="Helvetica" font-size="14" lengthAdjust="spacing" textLength="293.4189" x="910.6584" y="1803.2803">Requeue on provisioning, updating, terminating</text><path d="M729.556,1838.5 L729.556,2070.5 L709.556,2074.5 L729.556,2078.5 L729.556,2310.5 A0,0 0 0 0 729.556,2310.5 L1194.1537,2310.5 A0,0 0 0 0 1194.1537,2310.5 L1194.1537,1848.5 L1184.1537,1838.5 L729.556,1838.5 A0,0 0 0 0 729.556,1838.5" fill="#FFF7D6" style="stroke:#B45309;stroke-width:0.5;"/><path d="M1184.1537,1838.5 L1184.1537,1848.5 L1194.1537,1848.5 L1184.1537,1838.5" fill="#FFF7D6" style="stroke:#B45309;stroke-width:0.5;"/><text fill="#334155" font-family="Helvetica" font-size="14" lengthAdjust="spacing" textLength="101.165" x="735.556" y="1854.2803">shared diagram:</text><text fill="#334155" font-family="Helvetica" font-size="14" lengthAdjust="spacing" textLength="284.7852" x="735.556" y="1868.2803">shared/diagrams/shared-reconcile-activity.svg</text><text fill="#334155" font-family="Helvetica" font-size="14" lengthAdjust="spacing" textLength="265.3438" x="735.556" y="1882.2803">Start from the shared reconcile activity and</text><text fill="#334155" font-family="Helvetica" font-size="14" lengthAdjust="spacing" textLength="273.8955" x="735.556" y="1896.2803">specialize provider-backed CRUD, wait, and</text><text fill="#334155" font-family="Helvetica" font-size="14" lengthAdjust="spacing" textLength="182.875" x="735.556" y="1910.2803">status-projection details here.</text><text fill="#334155" font-family="Helvetica" font-size="14" lengthAdjust="spacing" textLength="229.5371" x="735.556" y="1924.2803">Controller-local activity diagrams add</text><text fill="#334155" font-family="Helvetica" font-size="14" lengthAdjust="spacing" textLength="238.8955" x="735.556" y="1938.2803">list-lookup hints, secret policies, delete</text><text fill="#334155" font-family="Helvetica" font-size="14" lengthAdjust="spacing" textLength="200.0332" x="735.556" y="1952.2803">handling, and open formal gaps.</text><text fill="#334155" font-family="Helvetica" font-size="14" lengthAdjust="spacing" textLength="281.709" x="735.556" y="1966.2803">archetype batch: Generated service-manager</text><text fill="#334155" font-family="Helvetica" font-size="14" lengthAdjust="spacing" textLength="291.0469" x="735.556" y="1980.2803">controllers specialize the shared reconcile path</text><text fill="#334155" font-family="Helvetica" font-size="14" lengthAdjust="spacing" textLength="189.8477" x="735.556" y="1994.2803">with formal runtime ownership.</text><text fill="#334155" font-family="Helvetica" font-size="14" lengthAdjust="spacing" textLength="119.8408" x="735.556" y="2008.2803">service: fusionapps</text><text fill="#334155" font-family="Helvetica" font-size="14" lengthAdjust="spacing" textLength="29.5723" x="735.556" y="2022.2803">slug:</text><text fill="#334155" font-family="Helvetica" font-size="14" lengthAdjust="spacing" textLength="312.0605" x="735.556" y="2036.2803">fusionappsfusionenvironmentfamilylimitsandusage</text><text fill="#334155" font-family="Helvetica" font-size="14" lengthAdjust="spacing" textLength="29.5723" x="735.556" y="2050.2803">kind:</text><text fill="#334155" font-family="Helvetica" font-size="14" lengthAdjust="spacing" textLength="337.7021" x="735.556" y="2064.2803">FusionAppsFusionEnvironmentFamilyLimitsAndUsage</text><text fill="#334155" font-family="Helvetica" font-size="14" lengthAdjust="spacing" textLength="241.2402" x="735.556" y="2078.2803">archetype: generated-service-manager</text><text fill="#334155" font-family="Helvetica" font-size="14" lengthAdjust="spacing" textLength="156.4063" x="735.556" y="2092.2803">status/finalizer: required /</text><text fill="#334155" font-family="Helvetica" font-size="14" lengthAdjust="spacing" textLength="174.3027" x="735.556" y="2106.2803">retain-until-confirmed-delete</text><text fill="#334155" font-family="Helvetica" font-size="14" lengthAdjust="spacing" textLength="272.3984" x="735.556" y="2120.2803">requeue: provisioning, updating, terminating</text><text fill="#334155" font-family="Helvetica" font-size="14" lengthAdjust="spacing" textLength="295.6816" x="735.556" y="2134.2803">provider states: create PROVISIONING; update</text><text fill="#334155" font-family="Helvetica" font-size="14" lengthAdjust="spacing" textLength="192.165" x="735.556" y="2148.2803">UPDATING; delete DELETING</text><text fill="#334155" font-family="Helvetica" font-size="14" lengthAdjust="spacing" textLength="183.6611" x="735.556" y="2162.2803">supported drift: display_name</text><text fill="#334155" font-family="Helvetica" font-size="14" lengthAdjust="spacing" textLength="230.3301" x="735.556" y="2176.2803">reject before mutate: force-new fields</text><text fill="#334155" font-family="Helvetica" font-size="14" lengthAdjust="spacing" textLength="100.3789" x="735.556" y="2190.2803">compartment_id</text><text fill="#334155" font-family="Helvetica" font-size="14" lengthAdjust="spacing" textLength="66.1445" x="735.556" y="2204.2803">list lookup:</text><text fill="#334155" font-family="Helvetica" font-size="14" lengthAdjust="spacing" textLength="443.5977" x="735.556" y="2218.2803">scaffold_fusionapps_fusionappsfusionenvironmentfamilylimitsandusage</text><text fill="#334155" font-family="Helvetica" font-size="14" lengthAdjust="spacing" textLength="175.8477" x="735.556" y="2232.2803">filters compartment_id, state</text><text fill="#334155" font-family="Helvetica" font-size="14" lengthAdjust="spacing" textLength="89.4961" x="735.556" y="2246.2803">conflicts: none</text><text fill="#334155" font-family="Helvetica" font-size="14" lengthAdjust="spacing" textLength="104.3164" x="735.556" y="2260.2803">open gaps: none</text><text fill="#334155" font-family="Helvetica" font-size="14" lengthAdjust="spacing" textLength="224.9023" x="735.556" y="2274.2803">Scaffold metadata only; replace with</text><text fill="#334155" font-family="Helvetica" font-size="14" lengthAdjust="spacing" textLength="244.3232" x="735.556" y="2288.2803">controller-specific runtime states before</text><text fill="#334155" font-family="Helvetica" font-size="14" lengthAdjust="spacing" textLength="66.1445" x="735.556" y="2302.2803">promotion.</text><ellipse cx="698.556" cy="2074.5" fill="none" rx="11" ry="11" style="stroke:#222222;stroke-width:1;"/><ellipse cx="698.556" cy="2074.5" fill="#222222" rx="6" ry="6" style="stroke:#222222;stroke-width:1;"/><line style="stroke:#0F172A;stroke-width:1;" x1="698.556" x2="698.556" y1="157" y2="177"/><polygon fill="#0F172A" points="694.556,167,698.556,177,702.556,167,698.556,171" style="stroke:#0F172A;stroke-width:1;"/><line style="stroke:#0F172A;stroke-width:1;" x1="903.5536" x2="903.5536" y1="355" y2="375"/><polygon fill="#0F172A" points="899.5536,365,903.5536,375,907.5536,365,903.5536,369" style="stroke:#0F172A;stroke-width:1;"/><line style="stroke:#0F172A;stroke-width:1;" x1="903.5536" x2="903.5536" y1="437" y2="457"/><polygon fill="#0F172A" points="899.5536,447,903.5536,457,907.5536,447,903.5536,451" style="stroke:#0F172A;stroke-width:1;"/><line style="stroke:#0F172A;stroke-width:1;" x1="557.0902" x2="493.5585" y1="271" y2="271"/><line style="stroke:#0F172A;stroke-width:1;" x1="493.5585" x2="493.5585" y1="271" y2="293"/><polygon fill="#0F172A" points="489.5585,283,493.5585,293,497.5585,283,493.5585,287" style="stroke:#0F172A;stroke-width:1;"/><line style="stroke:#0F172A;stroke-width:1;" x1="840.0219" x2="903.5536" y1="271" y2="271"/><line style="stroke:#0F172A;stroke-width:1;" x1="903.5536" x2="903.5536" y1="271" y2="293"/><polygon fill="#0F172A" points="899.5536,283,903.5536,293,907.5536,283,903.5536,287" style="stroke:#0F172A;stroke-width:1;"/><line style="stroke:#0F172A;stroke-width:1;" x1="493.5585" x2="493.5585" y1="341" y2="523"/><line style="stroke:#0F172A;stroke-width:1;" x1="493.5585" x2="686.556" y1="523" y2="523"/><polygon fill="#0F172A" points="676.556,519,686.556,523,676.556,527,680.556,523" style="stroke:#0F172A;stroke-width:1;"/><line style="stroke:#0F172A;stroke-width:1;" x1="903.5536" x2="903.5536" y1="505" y2="523"/><line style="stroke:#0F172A;stroke-width:1;" x1="903.5536" x2="710.556" y1="523" y2="523"/><polygon fill="#0F172A" points="720.556,519,710.556,523,720.556,527,716.556,523" style="stroke:#0F172A;stroke-width:1;"/><line style="stroke:#0F172A;stroke-width:1;" x1="698.556" x2="698.556" y1="239" y2="259"/><polygon fill="#0F172A" points="694.556,249,698.556,259,702.556,249,698.556,253" style="stroke:#0F172A;stroke-width:1;"/><line style="stroke:#0F172A;stroke-width:1;" x1="698.556" x2="698.556" y1="65" y2="109"/><polygon fill="#0F172A" points="694.556,99,698.556,109,702.556,99,698.556,103" style="stroke:#0F172A;stroke-width:1;"/><line style="stroke:#0F172A;stroke-width:1;" x1="339.7441" x2="339.7441" y1="753" y2="788"/><polygon fill="#0F172A" points="335.7441,778,339.7441,788,343.7441,778,339.7441,782" style="stroke:#0F172A;stroke-width:1;"/><line style="stroke:#0F172A;stroke-width:1;" x1="179.5718" x2="169.5718" y1="925" y2="925"/><line style="stroke:#0F172A;stroke-width:1;" x1="169.5718" x2="169.5718" y1="925" y2="947"/><polygon fill="#0F172A" points="165.5718,937,169.5718,947,173.5718,937,169.5718,941" style="stroke:#0F172A;stroke-width:1;"/><line style="stroke:#0F172A;stroke-width:1;" x1="499.9165" x2="509.9165" y1="925" y2="925"/><line style="stroke:#0F172A;stroke-width:1;" x1="509.9165" x2="509.9165" y1="925" y2="947"/><polygon fill="#0F172A" points="505.9165,937,509.9165,947,513.9165,937,509.9165,941" style="stroke:#0F172A;stroke-width:1;"/><line style="stroke:#0F172A;stroke-width:1;" x1="169.5718" x2="169.5718" y1="981" y2="1013"/><line style="stroke:#0F172A;stroke-width:1;" x1="169.5718" x2="327.7441" y1="1013" y2="1013"/><polygon fill="#0F172A" points="317.7441,1009,327.7441,1013,317.7441,1017,321.7441,1013" style="stroke:#0F172A;stroke-width:1;"/><line style="stroke:#0F172A;stroke-width:1;" x1="509.9165" x2="509.9165" y1="995" y2="1013"/><line style="stroke:#0F172A;stroke-width:1;" x1="509.9165" x2="351.7441" y1="1013" y2="1013"/><polygon fill="#0F172A" points="361.7441,1009,351.7441,1013,361.7441,1017,357.7441,1013" style="stroke:#0F172A;stroke-width:1;"/><line style="stroke:#0F172A;stroke-width:1;" x1="339.7441" x2="339.7441" y1="878" y2="913"/><polygon fill="#0F172A" points="335.7441,903,339.7441,913,343.7441,903,339.7441,907" style="stroke:#0F172A;stroke-width:1;"/><line style="stroke:#0F172A;stroke-width:1;" x1="339.7441" x2="339.7441" y1="1025" y2="1077"/><polygon fill="#0F172A" points="335.7441,1067,339.7441,1077,343.7441,1067,339.7441,1071" style="stroke:#0F172A;stroke-width:1;"/><line style="stroke:#0F172A;stroke-width:1;" x1="1057.3679" x2="1057.3679" y1="732" y2="767"/><polygon fill="#0F172A" points="1053.3679,757,1057.3679,767,1061.3679,757,1057.3679,761" style="stroke:#0F172A;stroke-width:1;"/><line style="stroke:#0F172A;stroke-width:1;" x1="1057.3679" x2="1057.3679" y1="659" y2="684"/><polygon fill="#0F172A" points="1053.3679,674,1057.3679,684,1061.3679,674,1057.3679,678" style="stroke:#0F172A;stroke-width:1;"/><line style="stroke:#0F172A;stroke-width:1;" x1="1155.6511" x2="1207.6643" y1="647" y2="647"/><polygon fill="#0F172A" points="1203.6643,723.5,1207.6643,733.5,1211.6643,723.5,1207.6643,727.5" style="stroke:#0F172A;stroke-width:1;"/><line style="stroke:#0F172A;stroke-width:1;" x1="1207.6643" x2="1207.6643" y1="647" y2="820"/><line style="stroke:#0F172A;stroke-width:1;" x1="1207.6643" x2="1057.3679" y1="820" y2="820"/><line style="stroke:#0F172A;stroke-width:1;" x1="1057.3679" x2="1057.3679" y1="820" y2="855"/><polygon fill="#0F172A" points="1053.3679,845,1057.3679,855,1061.3679,845,1057.3679,849" style="stroke:#0F172A;stroke-width:1;"/><line style="stroke:#0F172A;stroke-width:1;" x1="1057.3679" x2="1057.3679" y1="952" y2="987"/><polygon fill="#0F172A" points="1053.3679,977,1057.3679,987,1061.3679,977,1057.3679,981" style="stroke:#0F172A;stroke-width:1;"/><line style="stroke:#0F172A;stroke-width:1;" x1="1057.3679" x2="1057.3679" y1="879" y2="904"/><polygon fill="#0F172A" points="1053.3679,894,1057.3679,904,1061.3679,894,1057.3679,898" style="stroke:#0F172A;stroke-width:1;"/><line style="stroke:#0F172A;stroke-width:1;" x1="1189.8889" x2="1214.3259" y1="867" y2="867"/><polygon fill="#0F172A" points="1210.3259,943.5,1214.3259,953.5,1218.3259,943.5,1214.3259,947.5" style="stroke:#0F172A;stroke-width:1;"/><line style="stroke:#0F172A;stroke-width:1;" x1="1214.3259" x2="1214.3259" y1="867" y2="1040"/><line style="stroke:#0F172A;stroke-width:1;" x1="1214.3259" x2="1057.3679" y1="1040" y2="1040"/><line style="stroke:#0F172A;stroke-width:1;" x1="1057.3679" x2="1057.3679" y1="1040" y2="1126"/><polygon fill="#0F172A" points="1053.3679,1116,1057.3679,1126,1061.3679,1116,1057.3679,1120" style="stroke:#0F172A;stroke-width:1;"/><line style="stroke:#0F172A;stroke-width:1;" x1="1057.3679" x2="1057.3679" y1="1291" y2="1312.5"/><polygon fill="#0F172A" points="1053.3679,1302.5,1057.3679,1312.5,1061.3679,1302.5,1057.3679,1306.5" style="stroke:#0F172A;stroke-width:1;"/><line style="stroke:#0F172A;stroke-width:1;" x1="1057.3679" x2="1057.3679" y1="1218" y2="1243"/><polygon fill="#0F172A" points="1053.3679,1233,1057.3679,1243,1061.3679,1233,1057.3679,1237" style="stroke:#0F172A;stroke-width:1;"/><line style="stroke:#0F172A;stroke-width:1;" x1="1194.9509" x2="1218.5916" y1="1206" y2="1206"/><polygon fill="#0F172A" points="1214.5916,1282.5,1218.5916,1292.5,1222.5916,1282.5,1218.5916,1286.5" style="stroke:#0F172A;stroke-width:1;"/><line style="stroke:#0F172A;stroke-width:1;" x1="1218.5916" x2="1218.5916" y1="1206" y2="1356.5"/><line style="stroke:#0F172A;stroke-width:1;" x1="1218.5916" x2="1057.3679" y1="1356.5" y2="1356.5"/><line style="stroke:#0F172A;stroke-width:1;" x1="1057.3679" x2="1057.3679" y1="1356.5" y2="1376.5"/><polygon fill="#0F172A" points="1053.3679,1366.5,1057.3679,1376.5,1061.3679,1366.5,1057.3679,1370.5" style="stroke:#0F172A;stroke-width:1;"/><line style="stroke:#0F172A;stroke-width:1;" x1="1057.3679" x2="1057.3679" y1="1174" y2="1194"/><polygon fill="#0F172A" points="1053.3679,1184,1057.3679,1194,1061.3679,1184,1057.3679,1188" style="stroke:#0F172A;stroke-width:1;"/><line style="stroke:#0F172A;stroke-width:1;" x1="934.9402" x2="896.9048" y1="1388.5" y2="1388.5"/><line style="stroke:#0F172A;stroke-width:1;" x1="896.9048" x2="896.9048" y1="1388.5" y2="1410.5"/><polygon fill="#0F172A" points="892.9048,1400.5,896.9048,1410.5,900.9048,1400.5,896.9048,1404.5" style="stroke:#0F172A;stroke-width:1;"/><line style="stroke:#0F172A;stroke-width:1;" x1="1179.7957" x2="1217.8311" y1="1388.5" y2="1388.5"/><line style="stroke:#0F172A;stroke-width:1;" x1="1217.8311" x2="1217.8311" y1="1388.5" y2="1410.5"/><polygon fill="#0F172A" points="1213.8311,1400.5,1217.8311,1410.5,1221.8311,1400.5,1217.8311,1404.5" style="stroke:#0F172A;stroke-width:1;"/><line style="stroke:#0F172A;stroke-width:1;" x1="896.9048" x2="896.9048" y1="1472.5" y2="1490.5"/><line style="stroke:#0F172A;stroke-width:1;" x1="896.9048" x2="1045.3679" y1="1490.5" y2="1490.5"/><polygon fill="#0F172A" points="1035.3679,1486.5,1045.3679,1490.5,1035.3679,1494.5,1039.3679,1490.5" style="stroke:#0F172A;stroke-width:1;"/><line style="stroke:#0F172A;stroke-width:1;" x1="1217.8311" x2="1217.8311" y1="1444.5" y2="1490.5"/><line style="stroke:#0F172A;stroke-width:1;" x1="1217.8311" x2="1069.3679" y1="1490.5" y2="1490.5"/><polygon fill="#0F172A" points="1079.3679,1486.5,1069.3679,1490.5,1079.3679,1494.5,1075.3679,1490.5" style="stroke:#0F172A;stroke-width:1;"/><line style="stroke:#0F172A;stroke-width:1;" x1="1057.3679" x2="1057.3679" y1="1502.5" y2="1522.5"/><polygon fill="#0F172A" points="1053.3679,1512.5,1057.3679,1522.5,1061.3679,1512.5,1057.3679,1516.5" style="stroke:#0F172A;stroke-width:1;"/><line style="stroke:#0F172A;stroke-width:1;" x1="1057.3679" x2="1057.3679" y1="1640.5" y2="1660.5"/><polygon fill="#0F172A" points="1053.3679,1650.5,1057.3679,1660.5,1061.3679,1650.5,1057.3679,1654.5" style="stroke:#0F172A;stroke-width:1;"/><line style="stroke:#0F172A;stroke-width:1;" x1="1057.3679" x2="1057.3679" y1="1694.5" y2="1714.5"/><polygon fill="#0F172A" points="1053.3679,1704.5,1057.3679,1714.5,1061.3679,1704.5,1057.3679,1708.5" style="stroke:#0F172A;stroke-width:1;"/><line style="stroke:#0F172A;stroke-width:1;" x1="1057.3679" x2="1057.3679" y1="1762.5" y2="1782.5"/><polygon fill="#0F172A" points="1053.3679,1772.5,1057.3679,1782.5,1061.3679,1772.5,1057.3679,1776.5" style="stroke:#0F172A;stroke-width:1;"/><line style="stroke:#0F172A;stroke-width:1;" x1="624.3798" x2="339.7441" y1="579" y2="579"/><line style="stroke:#0F172A;stroke-width:1;" x1="339.7441" x2="339.7441" y1="579" y2="635"/><polygon fill="#0F172A" points="335.7441,625,339.7441,635,343.7441,625,339.7441,629" style="stroke:#0F172A;stroke-width:1;"/><line style="stroke:#0F172A;stroke-width:1;" x1="772.7323" x2="1057.3679" y1="579" y2="579"/><line style="stroke:#0F172A;stroke-width:1;" x1="1057.3679" x2="1057.3679" y1="579" y2="635"/><polygon fill="#0F172A" points="1053.3679,625,1057.3679,635,1061.3679,625,1057.3679,629" style="stroke:#0F172A;stroke-width:1;"/><line style="stroke:#0F172A;stroke-width:1;" x1="1057.3679" x2="1057.3679" y1="1816.5" y2="1833.5"/><line style="stroke:#0F172A;stroke-width:1;" x1="1057.3679" x2="698.556" y1="1833.5" y2="1833.5"/><line style="stroke:#0F172A;stroke-width:1;" x1="698.556" x2="698.556" y1="1833.5" y2="2063.5"/><polygon fill="#0F172A" points="694.556,2053.5,698.556,2063.5,702.556,2053.5,698.556,2057.5" style="stroke:#0F172A;stroke-width:1;"/><line style="stroke:#0F172A;stroke-width:1;" x1="698.556" x2="698.556" y1="535" y2="567"/><polygon fill="#0F172A" points="694.556,557,698.556,567,702.556,557,698.556,561" style="stroke:#0F172A;stroke-width:1;"/><?plantuml-src lLVRRjiu47tNLn3PbnQmasQRNjP6iKYTf0qGD44kxOk1W9P6DZSKgIKfUxsB_liUNYJBJb1i-h08Z4ZYY9mvS-RCo3u8LNF3AsONlD0heUQivD9IPhkL6SyVvaOtgfXegGtxfSpnL_Gi2Yfv8zsPLkuBhuXz9haa9tB-jCsD-9lOuL5laHkZLsdtL-NXkr_xRohjwECZ7yhoNV5srqgRWaooc1szUVtgjnqBVtnQV_twwF3Dczvws3xNHf5XXsyp9vmaTfmxiHHkpOQiRApGYjUrFJWBbyUuZ5UdQYcCLXKfTyOh8TSNeXBE7glYpl9v7qpUxlTFnfv0zdt9ozolz2D9Y31MRhpldXM2LreLZm2YN-bz-QfdqD_ni3YYulrcyUo9ZQtZnktQKxT_PpVZExj-pyAh6G86Xa27xLtEB9abCQuAzb6eOW_XZswy5IkD3kGpLB1IwjLKnPi3k3O7OlOWtWyDvLhbGjAmnN3VBkVZR7HDl02zh83LL3qpDJYkfdp0d060S06kkyOEWgS5INB4X79uUPo9ahtOkqrsY9V-ggN8XMENatCc2jZulDQ6B2v_ttl9t88KUx4c-p8RVIBdxrdU68Fby0uiTMDoOal1fmeMp_Hzd14gbRrG-gL7mMeP88PZmZfVoLk7k0NeCLzCrGLMduqIhBmq2Ed8M9RhocVNcz-BOX1GWpkZYI5SX40V1nWNdttoogEeD3PhB9-X92lkyWKJ5kK0kkFKAxY4cCAn9i8G4fI70ukj_4mLqgbJcW6WAaG9neRSdiHy6_gp8OiNTtBOutEq32nEBzNSBLXZoKvLVFByE0Lsy6Tx7lyi9QPAcv_CC50vERqulJqzGNfLAGnmndi-g_4sreEF__ztha7oPE8KpnTaMr_7MwdB9N7LrA5wIw6uHASnU0MFKIYsoNDwb5PKJgMNaRIRTtW9ehSAuEaUGzygEGZOcisa3e8GFMmT0FkwlQPgnu4UxwpJTM_B7iKkH4dv6lknYUJMYXBjrAzuqeMGFHYXxY1G2D6PTQWEI-vnW87GaTWDiTK2Afh0hBXG5ZjCrTNrvTVpc_FBB-TVFWtOtTN9yMsu2a3ZQfoS3PxlUc2PRfn5aSKOhMKGzpav-zWNrnZbLQfHoRHi9El4tHSmneG8vrJrCtuykJt_UhhbnlS-OhuFh4FgJume7VkCImdL2cKw2Of5J8fb33qwpkS-_YWTeggrSRw7b88aMa5ZIfvJOjYPXf0D5Qs2ig0YeFr1P8jmM06UvEufSls1vybeHgKsyVYgSI6T437ZVt7lTFIkm3w6_gQfexDX8v_t7xk1KfFGlhkw-1a9ragkWwFjOSdBGjXQylMzmj2tNHaFeWwOAZtKzIPOhv8j-KVN3HuOlGHh35kGhFq_hHyWeL6vFxYoxI3xiNbSfzi1v6gpzeqBp9NccpOFYUhVeAMdc2bDou6fYlB_mH5AEMG-znvzc5oV7diPWSG4RFfdHhJQCs4IvQ1l4dMdDM6XLo7kgGfDAhPCG3L4TfOKuqTxfhnnPCTTDRGruo7sg4McTu_RxdfbT21JroHY5zjHkrg3cMilEWxS7eP26YP5nnWLOnWdLO0Qw9G5pmGuF601Y7052QomhxyPezPYtW8L_IpDZ9WlN9PcjpIkZR9dZMzPRmZqaQVDDdBGpSi8ClEZcWXXTiGPpk8yDhc-Encm5PWmYAO1cc4T8VFSApmUqe9fXlOpz3Hdj9JO0GBEvUQWrd76YoAJQ5Omq0_GTAJJOJAq17Qw2BCWF8Y8Pej4jJWxwff2RLVOUivhkvzn0nLpwvemCOCR8_Q9yAKH1XG_70ieGCKLwiraUUSSah-9-Kc0FAMoC3kaqupFE3x2z0hRsuMezxEq_wZt2PDPsSn7sUP1lAAD59H12cIG0aJKX0yPVCSKe-ovdpzTw2CsRuCUxWOTCtRG4NcquVb1zaCoPwcnZVuBaRDESa9PsL4Q4rc__utZkvIrRN3SZW9jDynify11UKTROWYFGgKcmG_wv-7lUaWKq6nRvWFRM6GRwYZdPQbbSR_9qVrpq_N3UJrhknWmWCHJ5ZZhoPhkRv87h0BwW8CptmZ6o0i2zMe7rlMuEWnKnPpIKJ0Yd53mm5VQb-A-LvBmEVul?></g></svg>