<?plantuml 1.2026.1?><svg xmlns="http://www.w3.org/2000/svg" xmlns:xlink="http://www.w3.org/1999/xlink" contentStyleType="text/css" data-diagram-type="SEQUENCE" height="1329px" preserveAspectRatio="none" style="width:1314px;height:1329px;background:#FCFCFD;" version="1.1" viewBox="0 0 1314 1329" width="1314px" zoomAndPan="magnify"><title>Sequence - identity/IdentityTagStandardTagNamespaceTemplate</title><defs/><g><rect fill="#FCFCFD" height="1329" style="stroke:none;stroke-width:1;" width="1314" x="0" y="0"/><text fill="#000000" font-family="Helvetica" font-size="14" font-weight="bold" lengthAdjust="spacing" textLength="431.7715" x="442.4458" y="25.7803">Sequence - identity/IdentityTagStandardTagNamespaceTemplate</text><rect fill="none" height="86" rx="8" ry="8" style="stroke:#CBD5E1;stroke-width:1.5;" width="488.6948" x="808.9683" y="361"/><rect fill="none" height="204" rx="8" ry="8" style="stroke:#CBD5E1;stroke-width:1.5;" width="508.6948" x="798.9683" y="461"/><rect fill="none" height="44" rx="8" ry="8" style="stroke:#CBD5E1;stroke-width:1.5;" width="488.6948" x="808.9683" y="512"/><rect fill="none" height="44" rx="8" ry="8" style="stroke:#CBD5E1;stroke-width:1.5;" width="488.6948" x="808.9683" y="614"/><rect fill="none" height="130" rx="8" ry="8" style="stroke:#CBD5E1;stroke-width:1.5;" width="508.6948" x="798.9683" y="679"/><rect fill="none" height="72" rx="8" ry="8" style="stroke:#CBD5E1;stroke-width:1.5;" width="488.6948" x="808.9683" y="730"/><g class="participant-lifeline" data-entity-uid="part1" data-qualified-name="Kubernetes" id="part1-lifeline"><g><title>Kubernetes</title><rect fill="#000000" fill-opacity="0.00000" height="1208" width="8" x="39.8032" y="114"/><line style="stroke:#94A3B8;stroke-width:0.5;stroke-dasharray:5,5;" x1="43" x2="43" y1="114" y2="1322"/></g></g><g class="participant-lifeline" data-entity-uid="part2" data-qualified-name="Controller" id="part2-lifeline"><g><title>Controller</title><rect fill="#000000" fill-opacity="0.00000" height="1208" width="8" x="347.0708" y="114"/><line style="stroke:#94A3B8;stroke-width:0.5;stroke-dasharray:5,5;" x1="350.7261" x2="350.7261" y1="114" y2="1322"/></g></g><g class="participant-lifeline" data-entity-uid="part3" data-qualified-name="BaseReconciler" id="part3-lifeline"><g><title>BaseReconciler</title><rect fill="#000000" fill-opacity="0.00000" height="1208" width="8" x="585.897" y="114"/><line style="stroke:#94A3B8;stroke-width:0.5;stroke-dasharray:5,5;" x1="589.873" x2="589.873" y1="114" y2="1322"/></g></g><g class="participant-lifeline" data-entity-uid="part4" data-qualified-name="ServiceManager" id="part4-lifeline"><g><title>OSOKServiceManager</title><rect fill="#000000" fill-opacity="0.00000" height="1208" width="8" x="893.1646" y="114"/><line style="stroke:#94A3B8;stroke-width:0.5;stroke-dasharray:5,5;" x1="896.9683" x2="896.9683" y1="114" y2="1322"/></g></g><g class="participant-lifeline" data-entity-uid="part5" data-qualified-name="OCI" id="part5-lifeline"><g><title>OCI</title><rect fill="#000000" fill-opacity="0.00000" height="1208" width="8" x="1264.2183" y="114"/><line style="stroke:#94A3B8;stroke-width:0.5;stroke-dasharray:5,5;" x1="1267.7734" x2="1267.7734" y1="114" y2="1322"/></g></g><g class="participant participant-head" data-entity-uid="part1" data-qualified-name="Kubernetes" id="part1-head"><text fill="#000000" font-family="Helvetica" font-size="14" lengthAdjust="spacing" textLength="71.6064" x="5" y="110.7803">Kubernetes</text><ellipse cx="43.8032" cy="48.5" fill="#E2E8F0" rx="8" ry="8" style="stroke:#0F172A;stroke-width:0.5;"/><path d="M43.8032,56.5 L43.8032,83.5 M30.8032,64.5 L56.8032,64.5 M43.8032,83.5 L30.8032,98.5 M43.8032,83.5 L56.8032,98.5" fill="none" style="stroke:#0F172A;stroke-width:0.5;"/></g><g class="participant participant-head" data-entity-uid="part2" data-qualified-name="Controller" id="part2-head"><rect fill="#E2E8F0" height="28" rx="8" ry="8" style="stroke:#0F172A;stroke-width:0.5;" width="74.6895" x="313.7261" y="85"/><text fill="#0F172A" font-family="Helvetica" font-size="14" lengthAdjust="spacing" textLength="60.6895" x="320.7261" y="102.7803">Controller</text></g><g class="participant participant-head" data-entity-uid="part3" data-qualified-name="BaseReconciler" id="part3-head"><rect fill="#E2E8F0" height="28" rx="8" ry="8" style="stroke:#0F172A;stroke-width:0.5;" width="112.0479" x="533.873" y="85"/><text fill="#0F172A" font-family="Helvetica" font-size="14" lengthAdjust="spacing" textLength="98.0479" x="540.873" y="102.7803">BaseReconciler</text></g><g class="participant participant-head" data-entity-uid="part4" data-qualified-name="ServiceManager" id="part4-head"><rect fill="#E2E8F0" height="28" rx="8" ry="8" style="stroke:#0F172A;stroke-width:0.5;" width="156.3926" x="818.9683" y="85"/><text fill="#0F172A" font-family="Helvetica" font-size="14" lengthAdjust="spacing" textLength="142.3926" x="825.9683" y="102.7803">OSOKServiceManager</text></g><g class="participant participant-head" data-entity-uid="part5" data-qualified-name="OCI" id="part5-head"><rect fill="#E2E8F0" height="28" rx="8" ry="8" style="stroke:#0F172A;stroke-width:0.5;" width="38.8896" x="1248.7734" y="85"/><text fill="#0F172A" font-family="Helvetica" font-size="14" lengthAdjust="spacing" textLength="24.8896" x="1255.7734" y="102.7803">OCI</text></g><path d="M525,137 L525,187 A8,8 0 0 0 533,195 L953,195 A8,8 0 0 0 961,187 L961,139 L951,129 L533,129 A8,8 0 0 0 525,137" fill="#FFF7D6" style="stroke:#B45309;stroke-width:0.5;"/><path d="M951,129 L951,135 A4,4 0 0 0 955,139 L961,139 L951,129" fill="#FFF7D6" style="stroke:#B45309;stroke-width:0.5;"/><text fill="#334155" font-family="Helvetica" font-size="14" lengthAdjust="spacing" textLength="111.2891" x="585.0481" y="144.7803">shared resolution:</text><text fill="#334155" font-family="Helvetica" font-size="14" lengthAdjust="spacing" textLength="307.3916" x="585.0481" y="158.7803">shared/diagrams/shared-resolution-sequence.svg</text><text fill="#334155" font-family="Helvetica" font-size="14" lengthAdjust="spacing" textLength="88.7305" x="585.0481" y="172.7803">shared delete:</text><text fill="#334155" font-family="Helvetica" font-size="14" lengthAdjust="spacing" textLength="284.833" x="585.0481" y="186.7803">shared/diagrams/shared-delete-sequence.svg</text><g class="message" data-entity-1="part1" data-entity-2="part2" id="msg1"><polygon fill="#0F172A" points="339.0708,244,349.0708,248,339.0708,252,343.0708,248" style="stroke:#0F172A;stroke-width:1;"/><line style="stroke:#0F172A;stroke-width:1;" x1="43.8032" x2="345.0708" y1="248" y2="248"/><text fill="#000000" font-family="Helvetica" font-size="14" lengthAdjust="spacing" textLength="54.5029" x="50.8032" y="214.7803">enqueue</text><text fill="#000000" font-family="Helvetica" font-size="14" lengthAdjust="spacing" textLength="283.2676" x="50.8032" y="228.7803">IdentityTagStandardTagNamespaceTemplate</text><text fill="#000000" font-family="Helvetica" font-size="14" lengthAdjust="spacing" textLength="56.0273" x="50.8032" y="242.7803">reconcile</text></g><g class="message" data-entity-1="part2" data-entity-2="part3" id="msg2"><polygon fill="#0F172A" points="577.897,272,587.897,276,577.897,280,581.897,276" style="stroke:#0F172A;stroke-width:1;"/><line style="stroke:#0F172A;stroke-width:1;" x1="351.0708" x2="583.897" y1="276" y2="276"/><text fill="#000000" font-family="Helvetica" font-size="14" lengthAdjust="spacing" textLength="117.4961" x="358.0708" y="270.7803">Reconcile(request)</text></g><g class="message" data-entity-1="part3" data-entity-2="part4" id="msg3"><polygon fill="#0F172A" points="885.1646,314,895.1646,318,885.1646,322,889.1646,318" style="stroke:#0F172A;stroke-width:1;"/><line style="stroke:#0F172A;stroke-width:1;" x1="589.897" x2="891.1646" y1="318" y2="318"/><text fill="#000000" font-family="Helvetica" font-size="14" lengthAdjust="spacing" textLength="105.834" x="596.897" y="298.7803">reconcile desired</text><text fill="#000000" font-family="Helvetica" font-size="14" lengthAdjust="spacing" textLength="283.2676" x="596.897" y="312.7803">IdentityTagStandardTagNamespaceTemplate</text></g><g class="message" data-entity-1="part4" data-entity-2="part5" id="msg4"><polygon fill="#0F172A" points="1256.2183,342,1266.2183,346,1256.2183,350,1260.2183,346" style="stroke:#0F172A;stroke-width:1;"/><line style="stroke:#0F172A;stroke-width:1;" x1="897.1646" x2="1262.2183" y1="346" y2="346"/><text fill="#000000" font-family="Helvetica" font-size="14" lengthAdjust="spacing" textLength="305.833" x="904.1646" y="340.7803">GetIdentityTagStandardTagNamespaceTemplate</text></g><path d="M816.9683,361 L875.7339,361 L875.7339,367 L865.7339,377 L808.9683,377 L808.9683,369 A8,8 0 0 1 816.9683,361" fill="#F8FAFC" style="stroke:#CBD5E1;stroke-width:1.5;"/><rect fill="none" height="86" rx="8" ry="8" style="stroke:#CBD5E1;stroke-width:1.5;" width="488.6948" x="808.9683" y="361"/><text fill="#000000" font-family="Helvetica" font-size="14" font-weight="bold" lengthAdjust="spacing" textLength="21.7656" x="823.9683" y="372.7803">opt</text><text fill="#000000" font-family="Helvetica" font-size="14" font-weight="bold" lengthAdjust="spacing" textLength="135.3516" x="890.7339" y="373.7803">[list lookup fallback]</text><g class="message" data-entity-1="part4" data-entity-2="part5" id="msg5"><polygon fill="#0F172A" points="1256.2183,407,1266.2183,411,1256.2183,415,1260.2183,411" style="stroke:#0F172A;stroke-width:1;"/><line style="stroke:#0F172A;stroke-width:1;" x1="897.1646" x2="1262.2183" y1="411" y2="411"/><text fill="#000000" font-family="Helvetica" font-size="14" lengthAdjust="spacing" textLength="347.0537" x="904.1646" y="391.7803">ListIdentityTagStandardTagNamespaceTemplate(filters:</text><text fill="#000000" font-family="Helvetica" font-size="14" lengthAdjust="spacing" textLength="143.1719" x="904.1646" y="405.7803">compartment_id, state)</text></g><g class="message" data-entity-1="part5" data-entity-2="part4" id="msg6"><polygon fill="#0F172A" points="908.1646,435,898.1646,439,908.1646,443,904.1646,439" style="stroke:#0F172A;stroke-width:1;"/><line style="stroke:#0F172A;stroke-width:1;stroke-dasharray:2,2;" x1="902.1646" x2="1267.2183" y1="439" y2="439"/><text fill="#000000" font-family="Helvetica" font-size="14" lengthAdjust="spacing" textLength="156.3994" x="914.1646" y="433.7803">matching collection items</text></g><path d="M806.9683,461 L860.3062,461 L860.3062,467 L850.3062,477 L798.9683,477 L798.9683,469 A8,8 0 0 1 806.9683,461" fill="#F8FAFC" style="stroke:#CBD5E1;stroke-width:1.5;"/><rect fill="none" height="204" rx="8" ry="8" style="stroke:#CBD5E1;stroke-width:1.5;" width="508.6948" x="798.9683" y="461"/><text fill="#000000" font-family="Helvetica" font-size="14" font-weight="bold" lengthAdjust="spacing" textLength="16.3379" x="813.9683" y="472.7803">alt</text><text fill="#000000" font-family="Helvetica" font-size="14" font-weight="bold" lengthAdjust="spacing" textLength="135.3447" x="875.3062" y="473.7803">[create or bind path]</text><g class="message" data-entity-1="part4" data-entity-2="part5" id="msg7"><polygon fill="#0F172A" points="1256.2183,493,1266.2183,497,1256.2183,501,1260.2183,497" style="stroke:#0F172A;stroke-width:1;"/><line style="stroke:#0F172A;stroke-width:1;" x1="897.1646" x2="1262.2183" y1="497" y2="497"/><text fill="#000000" font-family="Helvetica" font-size="14" lengthAdjust="spacing" textLength="325.2881" x="904.1646" y="491.7803">CreateIdentityTagStandardTagNamespaceTemplate</text></g><path d="M816.9683,512 L883.5132,512 L883.5132,518 L873.5132,528 L808.9683,528 L808.9683,520 A8,8 0 0 1 816.9683,512" fill="#F8FAFC" style="stroke:#CBD5E1;stroke-width:1.5;"/><rect fill="none" height="44" rx="8" ry="8" style="stroke:#CBD5E1;stroke-width:1.5;" width="488.6948" x="808.9683" y="512"/><text fill="#000000" font-family="Helvetica" font-size="14" font-weight="bold" lengthAdjust="spacing" textLength="29.5449" x="823.9683" y="523.7803">loop</text><text fill="#000000" font-family="Helvetica" font-size="14" font-weight="bold" lengthAdjust="spacing" textLength="215.4756" x="898.5132" y="524.7803">[create pending PROVISIONING]</text><g class="message" data-entity-1="part4" data-entity-2="part5" id="msg8"><polygon fill="#0F172A" points="1256.2183,544,1266.2183,548,1256.2183,552,1260.2183,548" style="stroke:#0F172A;stroke-width:1;"/><line style="stroke:#0F172A;stroke-width:1;" x1="897.1646" x2="1262.2183" y1="548" y2="548"/><text fill="#000000" font-family="Helvetica" font-size="14" lengthAdjust="spacing" textLength="305.833" x="904.1646" y="542.7803">GetIdentityTagStandardTagNamespaceTemplate</text></g><line style="stroke:#CBD5E1;stroke-width:1;stroke-dasharray:2,2;" x1="798.9683" x2="1307.6631" y1="564" y2="564"/><text fill="#000000" font-family="Helvetica" font-size="14" font-weight="bold" lengthAdjust="spacing" textLength="137.6484" x="803.9683" y="574.7803">[update or drift path]</text><g class="message" data-entity-1="part4" data-entity-2="part5" id="msg9"><polygon fill="#0F172A" points="1256.2183,595,1266.2183,599,1256.2183,603,1260.2183,599" style="stroke:#0F172A;stroke-width:1;"/><line style="stroke:#0F172A;stroke-width:1;" x1="897.1646" x2="1262.2183" y1="599" y2="599"/><text fill="#000000" font-family="Helvetica" font-size="14" lengthAdjust="spacing" textLength="328.4121" x="904.1646" y="593.7803">UpdateIdentityTagStandardTagNamespaceTemplate</text></g><path d="M816.9683,614 L883.5132,614 L883.5132,620 L873.5132,630 L808.9683,630 L808.9683,622 A8,8 0 0 1 816.9683,614" fill="#F8FAFC" style="stroke:#CBD5E1;stroke-width:1.5;"/><rect fill="none" height="44" rx="8" ry="8" style="stroke:#CBD5E1;stroke-width:1.5;" width="488.6948" x="808.9683" y="614"/><text fill="#000000" font-family="Helvetica" font-size="14" font-weight="bold" lengthAdjust="spacing" textLength="29.5449" x="823.9683" y="625.7803">loop</text><text fill="#000000" font-family="Helvetica" font-size="14" font-weight="bold" lengthAdjust="spacing" textLength="190.5381" x="898.5132" y="626.7803">[update pending UPDATING]</text><g class="message" data-entity-1="part4" data-entity-2="part5" id="msg10"><polygon fill="#0F172A" points="1256.2183,646,1266.2183,650,1256.2183,654,1260.2183,650" style="stroke:#0F172A;stroke-width:1;"/><line style="stroke:#0F172A;stroke-width:1;" x1="897.1646" x2="1262.2183" y1="650" y2="650"/><text fill="#000000" font-family="Helvetica" font-size="14" lengthAdjust="spacing" textLength="305.833" x="904.1646" y="644.7803">GetIdentityTagStandardTagNamespaceTemplate</text></g><path d="M806.9683,679 L865.7339,679 L865.7339,685 L855.7339,695 L798.9683,695 L798.9683,687 A8,8 0 0 1 806.9683,679" fill="#F8FAFC" style="stroke:#CBD5E1;stroke-width:1.5;"/><rect fill="none" height="130" rx="8" ry="8" style="stroke:#CBD5E1;stroke-width:1.5;" width="508.6948" x="798.9683" y="679"/><text fill="#000000" font-family="Helvetica" font-size="14" font-weight="bold" lengthAdjust="spacing" textLength="21.7656" x="813.9683" y="690.7803">opt</text><text fill="#000000" font-family="Helvetica" font-size="14" font-weight="bold" lengthAdjust="spacing" textLength="120.5859" x="880.7339" y="691.7803">[delete requested]</text><g class="message" data-entity-1="part4" data-entity-2="part5" id="msg11"><polygon fill="#0F172A" points="1256.2183,711,1266.2183,715,1256.2183,719,1260.2183,715" style="stroke:#0F172A;stroke-width:1;"/><line style="stroke:#0F172A;stroke-width:1;" x1="897.1646" x2="1262.2183" y1="715" y2="715"/><text fill="#000000" font-family="Helvetica" font-size="14" lengthAdjust="spacing" textLength="323.7363" x="904.1646" y="709.7803">DeleteIdentityTagStandardTagNamespaceTemplate</text></g><path d="M816.9683,730 L883.5132,730 L883.5132,736 L873.5132,746 L808.9683,746 L808.9683,738 A8,8 0 0 1 816.9683,730" fill="#F8FAFC" style="stroke:#CBD5E1;stroke-width:1.5;"/><rect fill="none" height="72" rx="8" ry="8" style="stroke:#CBD5E1;stroke-width:1.5;" width="488.6948" x="808.9683" y="730"/><text fill="#000000" font-family="Helvetica" font-size="14" font-weight="bold" lengthAdjust="spacing" textLength="29.5449" x="823.9683" y="741.7803">loop</text><text fill="#000000" font-family="Helvetica" font-size="14" font-weight="bold" lengthAdjust="spacing" textLength="213.124" x="898.5132" y="742.7803">[delete confirmation DELETING]</text><g class="message" data-entity-1="part4" data-entity-2="part5" id="msg12"><polygon fill="#0F172A" points="1256.2183,790,1266.2183,794,1256.2183,798,1260.2183,794" style="stroke:#0F172A;stroke-width:1;"/><line style="stroke:#0F172A;stroke-width:1;" x1="897.1646" x2="1262.2183" y1="794" y2="794"/><text fill="#000000" font-family="Helvetica" font-size="14" lengthAdjust="spacing" textLength="305.833" x="904.1646" y="760.7803">GetIdentityTagStandardTagNamespaceTemplate</text><text fill="#000000" font-family="Helvetica" font-size="14" lengthAdjust="spacing" textLength="12.4482" x="904.1646" y="774.7803">or</text><text fill="#000000" font-family="Helvetica" font-size="14" lengthAdjust="spacing" textLength="305.0537" x="904.1646" y="788.7803">ListIdentityTagStandardTagNamespaceTemplate</text></g><g class="message" data-entity-1="part4" data-entity-2="part3" id="msg13"><polygon fill="#0F172A" points="600.897,846,590.897,850,600.897,854,596.897,850" style="stroke:#0F172A;stroke-width:1;"/><line style="stroke:#0F172A;stroke-width:1;stroke-dasharray:2,2;" x1="594.897" x2="896.1646" y1="850" y2="850"/><text fill="#000000" font-family="Helvetica" font-size="14" lengthAdjust="spacing" textLength="100.7822" x="606.897" y="830.7803">status=required,</text><text fill="#000000" font-family="Helvetica" font-size="14" lengthAdjust="spacing" textLength="230.7197" x="606.897" y="844.7803">finalizer=retain-until-confirmed-delete</text></g><g class="message" data-entity-1="part3" data-entity-2="part2" id="msg14"><polygon fill="#0F172A" points="362.0708,888,352.0708,892,362.0708,896,358.0708,892" style="stroke:#0F172A;stroke-width:1;"/><line style="stroke:#0F172A;stroke-width:1;stroke-dasharray:2,2;" x1="356.0708" x2="588.897" y1="892" y2="892"/><text fill="#000000" font-family="Helvetica" font-size="14" lengthAdjust="spacing" textLength="214.8262" x="368.0708" y="872.7803">requeue on provisioning, updating,</text><text fill="#000000" font-family="Helvetica" font-size="14" lengthAdjust="spacing" textLength="69.2549" x="368.0708" y="886.7803">terminating</text></g><path d="M902,913 L902,1299 A8,8 0 0 0 910,1307 L1234,1307 A8,8 0 0 0 1242,1299 L1242,915 L1232,905 L910,905 A8,8 0 0 0 902,913" fill="#FFF7D6" style="stroke:#B45309;stroke-width:0.5;"/><path d="M1232,905 L1232,911 A4,4 0 0 0 1236,915 L1242,915 L1232,905" fill="#FFF7D6" style="stroke:#B45309;stroke-width:0.5;"/><text fill="#334155" font-family="Helvetica" font-size="14" lengthAdjust="spacing" textLength="101.165" x="908" y="920.7803">shared diagram:</text><text fill="#334155" font-family="Helvetica" font-size="14" lengthAdjust="spacing" textLength="307.3916" x="908" y="934.7803">shared/diagrams/shared-resolution-sequence.svg</text><text fill="#334155" font-family="Helvetica" font-size="14" lengthAdjust="spacing" textLength="143.1992" x="908" y="948.7803">shared delete diagram:</text><text fill="#334155" font-family="Helvetica" font-size="14" lengthAdjust="spacing" textLength="284.833" x="908" y="962.7803">shared/diagrams/shared-delete-sequence.svg</text><text fill="#334155" font-family="Helvetica" font-size="14" lengthAdjust="spacing" textLength="280.9297" x="908" y="976.7803">Start from the shared resolution sequence for</text><text fill="#334155" font-family="Helvetica" font-size="14" lengthAdjust="spacing" textLength="260.7295" x="908" y="990.7803">OCID binding, datasource pagination, and</text><text fill="#334155" font-family="Helvetica" font-size="14" lengthAdjust="spacing" textLength="163.4268" x="908" y="1004.7803">create-or-update dispatch.</text><text fill="#334155" font-family="Helvetica" font-size="14" lengthAdjust="spacing" textLength="301.1982" x="908" y="1018.7803">Layer the shared delete sequence when finalizer</text><text fill="#334155" font-family="Helvetica" font-size="14" lengthAdjust="spacing" textLength="269.2471" x="908" y="1032.7803">retention, delete confirmation, work-request</text><text fill="#334155" font-family="Helvetica" font-size="14" lengthAdjust="spacing" textLength="199.2334" x="908" y="1046.7803">polling, or Secret cleanup apply.</text><text fill="#334155" font-family="Helvetica" font-size="14" lengthAdjust="spacing" textLength="281.709" x="908" y="1060.7803">archetype batch: Generated service-manager</text><text fill="#334155" font-family="Helvetica" font-size="14" lengthAdjust="spacing" textLength="266.1504" x="908" y="1074.7803">controllers follow the shared resolution and</text><text fill="#334155" font-family="Helvetica" font-size="14" lengthAdjust="spacing" textLength="259.9297" x="908" y="1088.7803">delete sequences with imported waits and</text><text fill="#334155" font-family="Helvetica" font-size="14" lengthAdjust="spacing" textLength="134.6064" x="908" y="1102.7803">controller-local policy.</text><text fill="#334155" font-family="Helvetica" font-size="14" lengthAdjust="spacing" textLength="96.4824" x="908" y="1116.7803">service: identity</text><text fill="#334155" font-family="Helvetica" font-size="14" lengthAdjust="spacing" textLength="297.3018" x="908" y="1130.7803">slug: identitytagstandardtagnamespacetemplate</text><text fill="#334155" font-family="Helvetica" font-size="14" lengthAdjust="spacing" textLength="316.7295" x="908" y="1144.7803">kind: IdentityTagStandardTagNamespaceTemplate</text><text fill="#334155" font-family="Helvetica" font-size="14" lengthAdjust="spacing" textLength="241.2402" x="908" y="1158.7803">archetype: generated-service-manager</text><text fill="#334155" font-family="Helvetica" font-size="14" lengthAdjust="spacing" textLength="156.4063" x="908" y="1172.7803">status/finalizer: required /</text><text fill="#334155" font-family="Helvetica" font-size="14" lengthAdjust="spacing" textLength="174.3027" x="908" y="1186.7803">retain-until-confirmed-delete</text><text fill="#334155" font-family="Helvetica" font-size="14" lengthAdjust="spacing" textLength="272.3984" x="908" y="1200.7803">requeue: provisioning, updating, terminating</text><text fill="#334155" font-family="Helvetica" font-size="14" lengthAdjust="spacing" textLength="295.6816" x="908" y="1214.7803">provider states: create PROVISIONING; update</text><text fill="#334155" font-family="Helvetica" font-size="14" lengthAdjust="spacing" textLength="192.165" x="908" y="1228.7803">UPDATING; delete DELETING</text><text fill="#334155" font-family="Helvetica" font-size="14" lengthAdjust="spacing" textLength="319.04" x="908" y="1242.7803">mutable/forceNew: display_name / compartment_id</text><text fill="#334155" font-family="Helvetica" font-size="14" lengthAdjust="spacing" textLength="104.3164" x="908" y="1256.7803">open gaps: none</text><text fill="#334155" font-family="Helvetica" font-size="14" lengthAdjust="spacing" textLength="224.9023" x="908" y="1270.7803">Scaffold metadata only; replace with</text><text fill="#334155" font-family="Helvetica" font-size="14" lengthAdjust="spacing" textLength="244.3232" x="908" y="1284.7803">controller-specific runtime states before</text><text fill="#334155" font-family="Helvetica" font-size="14" lengthAdjust="spacing" textLength="66.1445" x="908" y="1298.7803">promotion.</text><?plantuml-src hLPHRzis47xdhpXqBorWnKcJjAc23LYJhWkQ9KMTxib0GPCdcGX5QYHbpnlsttUK9KLoxCx1Wi21f3j-lE_kkoFzlJ8bTxm0F-VIBfN98UFQ8_ETPSR5VUviPUI5rTR13vcWFzdpa9ZnIeTVh0atl43u5VK2Wn9ykyz4_OLmTD8pSkViia4_p8xUlkwlD3RW-qSnPDbR-MRJopg9hl6OdPmU7xxRy8ZRD_RZuvEZqzEUlOONrXbqSFI61HKqmWJ_gD08X0IKH4CVL-Ehvk6EvvF0ZUHEqcDaxaiky0wBKlE0R4uh8BCspEoVlNry2_at0-0YM3U8k-7VcZQ9usiyomx9J62KObLo4xQlxpliWzBBJOUXLORNoWmp--w47y_Eo1eXou59pEGf7dMcHrKxotWcs3-ivWQVgXbIkWDwrei3BYWGPxL6D_ZyddlyWi8QeJPDBsudjvycw1PAu6_Sy1pT2-0UXfy6IsulhbXK1DW5rNk8FTfOHxtXK893RtKLb3Lfysai5S-ffdwyVayUN9Asp0T-aRS84ZMntRbwRHwkH2DhvRA7P47oKoz7AQ0X_mgdPazXJerhgR87d8WwJ4CAtVDB5sFouHKRkiH5msIbq84JNQ-8rzw1iI5K1ASofV0Hmxu8jWmaMa__hBsloZZCT1nWkw2loNTFx9UPqW6TJwT6s29ggQ1rtvGSWGzaVyK84P8j6Ibu4FCuMaNCj8Zo01MmyB6wZEi0mY6FMdGmKrJmaeVvheWlQjTzyq5fA5lqadQBKNp-SllxrUJgzkRgvkCpf3noG3eoe2fbGq8wbONlilXQ-pw9HGFVilZw-VBdksTaGByeddKFGgDtbBlWBsk_9n5eeAaxCkL84r46bn-kFpmFYwcnRcgUeEUEzkRMMmP157ZbVunPYHqzcX85mpKTv8u-1gvCKj6UEcd8TSFiqRpOc5rrdYiIZO7IsONob1IgxcXTxVWqDTHq1UqMtzOZswby7i1ci7rEDsFr_mtf_qJPDgmftIv0vcm1OOxmwDnuEFipw-AukApxlIPCTBctbIDZoVEQhpKZeFgnTVycrYLD3qX5bQIPSi2k-OgosjkiYRxRQ3b70rsn61KhYYCYRv7Z29RMtIUD-5b9HQfZevQU84L1WqeZDpHNULdgrG7ZJimnh4gaMoB54_LAroSAKL84TMsIeYcEwAhkYRtMThaZHv7n1WiFInNce8hIkeYzv2huTMewr4HRmJLGp4fGPCtsQNTjOrvN-SDhuBblceCUJTiSeMqEkgx95FPjfIuFAUHj1fBD3AoRQDmLOwt-s4ymPj_legPDqbrD0lqUgNteJhO-bdpQpl_-t3zlnYbhn-XvguTk8XLLu3EDOvAgm1jSfhNiD5zzYzc2CGnFGPgUfBISbxIXiOOESy4pAhI4WgX5TLEJwzKvaIQGg4mgQRz-laIXCYN0nIJG3klmOOOK0KPMXOq2EUZkHFy2?></g></svg>