<?plantuml 1.2026.1?><svg xmlns="http://www.w3.org/2000/svg" xmlns:xlink="http://www.w3.org/1999/xlink" contentStyleType="text/css" data-diagram-type="ACTIVITY" height="2229px" preserveAspectRatio="none" style="width:1262px;height:2229px;background:#FCFCFD;" version="1.1" viewBox="0 0 1262 2229" width="1262px" zoomAndPan="magnify"><title>Activity - apiaccesscontrol/ApiaccesscontrolApiMetadatas</title><defs/><g><rect fill="#FCFCFD" height="2229" style="stroke:none;stroke-width:1;" width="1262" x="0" y="0"/><g class="title" data-source-line="10"><text fill="#000000" font-family="Helvetica" font-size="14" font-weight="bold" lengthAdjust="spacing" textLength="389.0195" x="435.2642" y="30.7803">Activity - apiaccesscontrol/ApiaccesscontrolApiMetadatas</text></g><ellipse cx="669.3862" cy="55" fill="#1D4ED8" rx="10" ry="10" style="stroke:#222222;stroke-width:1;"/><rect fill="none" height="458" rx="8" ry="8" style="stroke:#000000;stroke-width:1.5;" width="615.0684" x="380.9209" y="75"/><path d="M502.9893,75 L502.9893,82 L492.9893,92 L380.9209,92" fill="none" style="stroke:#000000;stroke-width:1.5;"/><text fill="#000000" font-family="Helvetica" font-size="14" lengthAdjust="spacing" textLength="112.0684" x="383.9209" y="86.7803">Observe and Bind</text><rect fill="#F8FAFC" height="48" rx="8" ry="8" style="stroke:#0F172A;stroke-width:0.5;" width="304.7852" x="516.9937" y="109"/><text fill="#0F172A" font-family="Helvetica" font-size="14" lengthAdjust="spacing" textLength="136.9375" x="526.9937" y="129.7803">Start from shared flow</text><text fill="#0F172A" font-family="Helvetica" font-size="14" lengthAdjust="spacing" textLength="284.7852" x="526.9937" y="143.7803">shared/diagrams/shared-reconcile-activity.svg</text><rect fill="#F8FAFC" height="48" rx="8" ry="8" style="stroke:#0F172A;stroke-width:0.5;" width="298.5986" x="520.0869" y="177"/><text fill="#0F172A" font-family="Helvetica" font-size="14" lengthAdjust="spacing" textLength="278.5986" x="530.0869" y="197.7803">Read desired ApiaccesscontrolApiMetadatas</text><text fill="#0F172A" font-family="Helvetica" font-size="14" lengthAdjust="spacing" textLength="235.8125" x="530.0869" y="211.7803">spec, tracked status, and delete intent</text><polygon fill="#E2E8F0" points="539.9204,245,798.8521,245,810.8521,257,798.8521,269,539.9204,269,527.9204,257,539.9204,245" style="stroke:#1D4ED8;stroke-width:0.5;"/><text fill="#0F172A" font-family="Helvetica" font-size="14" lengthAdjust="spacing" textLength="258.9316" x="539.9204" y="260.7803">"Tracked or explicit OCI identity present?"</text><text fill="#000000" font-family="Helvetica" font-size="14" lengthAdjust="spacing" textLength="21.7861" x="506.1343" y="253.7803">yes</text><text fill="#000000" font-family="Helvetica" font-size="14" lengthAdjust="spacing" textLength="15.5723" x="810.8521" y="253.7803">no</text><rect fill="#F8FAFC" height="48" rx="8" ry="8" style="stroke:#0F172A;stroke-width:0.5;" width="233.999" x="400.9209" y="279"/><text fill="#0F172A" font-family="Helvetica" font-size="14" lengthAdjust="spacing" textLength="202.3027" x="410.9209" y="299.7803">Get the current OCI resource via</text><text fill="#0F172A" font-family="Helvetica" font-size="14" lengthAdjust="spacing" textLength="213.999" x="410.9209" y="313.7803">GetApiaccesscontrolApiMetadatas</text><rect fill="#F8FAFC" height="62" rx="8" ry="8" style="stroke:#0F172A;stroke-width:0.5;" width="307.916" x="666.894" y="279"/><text fill="#0F172A" font-family="Helvetica" font-size="14" lengthAdjust="spacing" textLength="259.9092" x="676.894" y="299.7803">Resolve an existing OCI resource through</text><text fill="#0F172A" font-family="Helvetica" font-size="14" lengthAdjust="spacing" textLength="287.916" x="676.894" y="313.7803">ListApiaccesscontrolApiMetadatas using filters</text><text fill="#0F172A" font-family="Helvetica" font-size="14" lengthAdjust="spacing" textLength="138.5098" x="676.894" y="327.7803">compartment_id, state</text><rect fill="#F8FAFC" height="62" rx="8" ry="8" style="stroke:#0F172A;stroke-width:0.5;" width="310.2744" x="665.7148" y="361"/><text fill="#0F172A" font-family="Helvetica" font-size="14" lengthAdjust="spacing" textLength="174.2959" x="675.7148" y="381.7803">Create the OCI resource via</text><text fill="#0F172A" font-family="Helvetica" font-size="14" lengthAdjust="spacing" textLength="290.2744" x="675.7148" y="395.7803">CreateApiaccesscontrolApiMetadatas when no</text><text fill="#0F172A" font-family="Helvetica" font-size="14" lengthAdjust="spacing" textLength="148.6406" x="675.7148" y="409.7803">reusable match is found</text><rect fill="#F8FAFC" height="48" rx="8" ry="8" style="stroke:#0F172A;stroke-width:0.5;" width="286.8955" x="677.4043" y="443"/><text fill="#0F172A" font-family="Helvetica" font-size="14" lengthAdjust="spacing" textLength="266.8955" x="687.4043" y="463.7803">Persist the resolved or created OCI identity</text><text fill="#0F172A" font-family="Helvetica" font-size="14" lengthAdjust="spacing" textLength="63.8135" x="687.4043" y="477.7803">into status</text><polygon fill="#E2E8F0" points="669.3862,497,681.3862,509,669.3862,521,657.3862,509,669.3862,497" style="stroke:#1D4ED8;stroke-width:0.5;"/><polygon fill="#E2E8F0" points="607.21,553,731.5625,553,743.5625,565,731.5625,577,607.21,577,595.21,565,607.21,553" style="stroke:#1D4ED8;stroke-width:0.5;"/><text fill="#0F172A" font-family="Helvetica" font-size="14" lengthAdjust="spacing" textLength="124.3525" x="607.21" y="568.7803">"Delete requested?"</text><text fill="#000000" font-family="Helvetica" font-size="14" lengthAdjust="spacing" textLength="21.7861" x="573.4238" y="561.7803">yes</text><text fill="#000000" font-family="Helvetica" font-size="14" lengthAdjust="spacing" textLength="15.5723" x="743.5625" y="561.7803">no</text><rect fill="none" height="395.5" rx="8" ry="8" style="stroke:#000000;stroke-width:1.5;" width="644.4814" x="11" y="587"/><path d="M61.4688,587 L61.4688,594 L51.4688,604 L11,604" fill="none" style="stroke:#000000;stroke-width:1.5;"/><text fill="#000000" font-family="Helvetica" font-size="14" lengthAdjust="spacing" textLength="40.4688" x="14" y="598.7803">Delete</text><rect fill="#F8FAFC" height="90" rx="8" ry="8" style="stroke:#0F172A;stroke-width:0.5;" width="333.585" x="172.9517" y="621"/><text fill="#0F172A" font-family="Helvetica" font-size="14" lengthAdjust="spacing" textLength="105.0684" x="182.9517" y="641.7803">Delete path uses</text><text fill="#0F172A" font-family="Helvetica" font-size="14" lengthAdjust="spacing" textLength="260.6885" x="182.9517" y="655.7803">DeleteApiaccesscontrolApiMetadatas with</text><text fill="#0F172A" font-family="Helvetica" font-size="14" lengthAdjust="spacing" textLength="291.04" x="182.9517" y="669.7803">required via GetApiaccesscontrolApiMetadatas</text><text fill="#0F172A" font-family="Helvetica" font-size="14" lengthAdjust="spacing" textLength="313.585" x="182.9517" y="683.7803">or ListApiaccesscontrolApiMetadatas to DELETED</text><text fill="#0F172A" font-family="Helvetica" font-size="14" lengthAdjust="spacing" textLength="76.2549" x="182.9517" y="697.7803">confirmation</text><rect fill="#F8FAFC" height="76" rx="8" ry="8" style="stroke:#0F172A;stroke-width:0.5;" width="291.5713" x="193.9585" y="739.5"/><text fill="#0F172A" font-family="Helvetica" font-size="14" lengthAdjust="spacing" textLength="123.7236" x="203.9585" y="760.2803">Confirm deletion via</text><text fill="#0F172A" font-family="Helvetica" font-size="14" lengthAdjust="spacing" textLength="230.3369" x="203.9585" y="774.2803">GetApiaccesscontrolApiMetadatas or</text><text fill="#0F172A" font-family="Helvetica" font-size="14" lengthAdjust="spacing" textLength="271.5713" x="203.9585" y="788.2803">ListApiaccesscontrolApiMetadatas until OCI</text><text fill="#0F172A" font-family="Helvetica" font-size="14" lengthAdjust="spacing" textLength="118.2686" x="203.9585" y="802.2803">reaches DELETED</text><polygon fill="#E2E8F0" points="191.5718,850.5,487.9165,850.5,499.9165,862.5,487.9165,874.5,191.5718,874.5,179.5718,862.5,191.5718,850.5" style="stroke:#1D4ED8;stroke-width:0.5;"/><text fill="#0F172A" font-family="Helvetica" font-size="14" lengthAdjust="spacing" textLength="296.3447" x="191.5718" y="866.2803">"Delete cleanup and finalizer release succeed?"</text><text fill="#000000" font-family="Helvetica" font-size="14" lengthAdjust="spacing" textLength="21.7861" x="157.7856" y="859.2803">yes</text><text fill="#000000" font-family="Helvetica" font-size="14" lengthAdjust="spacing" textLength="15.5723" x="499.9165" y="859.2803">no</text><rect fill="#F8FAFC" height="34" rx="8" ry="8" style="stroke:#0F172A;stroke-width:0.5;" width="293.1436" x="23" y="884.5"/><text fill="#0F172A" font-family="Helvetica" font-size="14" lengthAdjust="spacing" textLength="273.1436" x="33" y="905.2803">Remove the finalizer after delete completion</text><rect fill="#F8FAFC" height="48" rx="8" ry="8" style="stroke:#0F172A;stroke-width:0.5;" width="251.1299" x="384.3516" y="884.5"/><text fill="#0F172A" font-family="Helvetica" font-size="14" lengthAdjust="spacing" textLength="231.1299" x="394.3516" y="905.2803">Stay blocked until cleanup or finalizer</text><text fill="#0F172A" font-family="Helvetica" font-size="14" lengthAdjust="spacing" textLength="108.9512" x="394.3516" y="919.2803">release succeeds</text><polygon fill="#E2E8F0" points="339.7441,938.5,351.7441,950.5,339.7441,962.5,327.7441,950.5,339.7441,938.5" style="stroke:#1D4ED8;stroke-width:0.5;"/><ellipse cx="339.7441" cy="1019.5" fill="none" rx="11" ry="11" style="stroke:#222222;stroke-width:1;"/><ellipse cx="339.7441" cy="1019.5" fill="#222222" rx="6" ry="6" style="stroke:#222222;stroke-width:1;"/><rect fill="none" height="443.5" rx="8" ry="8" style="stroke:#000000;stroke-width:1.5;" width="345.916" x="832.0703" y="587"/><path d="M982.9043,587 L982.9043,594 L972.9043,604 L832.0703,604" fill="none" style="stroke:#000000;stroke-width:1.5;"/><text fill="#000000" font-family="Helvetica" font-size="14" lengthAdjust="spacing" textLength="140.834" x="835.0703" y="598.7803">Lifecycle Classification</text><rect fill="#F8FAFC" height="48" rx="8" ry="8" style="stroke:#0F172A;stroke-width:0.5;" width="280.5928" x="858.7319" y="670"/><text fill="#0F172A" font-family="Helvetica" font-size="14" lengthAdjust="spacing" textLength="240.4541" x="868.7319" y="690.7803">Request requeue while OCI remains in</text><text fill="#0F172A" font-family="Helvetica" font-size="14" lengthAdjust="spacing" textLength="260.5928" x="868.7319" y="704.7803">PROVISIONING, UPDATING, DELETING</text><ellipse cx="999.0283" cy="757.5" fill="none" rx="11" ry="11" style="stroke:#222222;stroke-width:1;"/><ellipse cx="999.0283" cy="757.5" fill="#222222" rx="6" ry="6" style="stroke:#222222;stroke-width:1;"/><polygon fill="#E2E8F0" points="912.7451,621,1085.3115,621,1097.3115,633,1085.3115,645,912.7451,645,900.7451,633,912.7451,621" style="stroke:#1D4ED8;stroke-width:0.5;"/><text fill="#000000" font-family="Helvetica" font-size="14" lengthAdjust="spacing" textLength="21.7861" x="1003.0283" y="655.7803">yes</text><text fill="#0F172A" font-family="Helvetica" font-size="14" lengthAdjust="spacing" textLength="172.5664" x="912.7451" y="636.7803">"OCI state in retryable set?"</text><rect fill="#F8FAFC" height="48" rx="8" ry="8" style="stroke:#0F172A;stroke-width:0.5;" width="293.916" x="852.0703" y="883.5"/><text fill="#0F172A" font-family="Helvetica" font-size="14" lengthAdjust="spacing" textLength="273.916" x="862.0703" y="904.2803">Return an unsuccessful reconcile result until</text><text fill="#0F172A" font-family="Helvetica" font-size="14" lengthAdjust="spacing" textLength="133.041" x="862.0703" y="918.2803">OCI reaches ACTIVE</text><ellipse cx="999.0283" cy="977.5" fill="none" rx="11" ry="11" style="stroke:#222222;stroke-width:1;"/><ellipse cx="999.0283" cy="977.5" fill="#222222" rx="6" ry="6" style="stroke:#222222;stroke-width:1;"/><polygon fill="#E2E8F0" points="878.5073,834.5,1119.5493,834.5,1131.5493,846.5,1119.5493,858.5,878.5073,858.5,866.5073,846.5,878.5073,834.5" style="stroke:#1D4ED8;stroke-width:0.5;"/><text fill="#000000" font-family="Helvetica" font-size="14" lengthAdjust="spacing" textLength="21.7861" x="1003.0283" y="869.2803">yes</text><text fill="#0F172A" font-family="Helvetica" font-size="14" lengthAdjust="spacing" textLength="241.042" x="878.5073" y="850.2803">"OCI state is outside success targets?"</text><rect fill="none" height="722.5" rx="8" ry="8" style="stroke:#000000;stroke-width:1.5;" width="576.0664" x="675.4814" y="1040.5"/><path d="M841.9014,1040.5 L841.9014,1047.5 L831.9014,1057.5 L675.4814,1057.5" fill="none" style="stroke:#000000;stroke-width:1.5;"/><text fill="#000000" font-family="Helvetica" font-size="14" lengthAdjust="spacing" textLength="156.4199" x="678.4814" y="1052.2803">Ready and Drift Handling</text><rect fill="#F8FAFC" height="48" rx="8" ry="8" style="stroke:#0F172A;stroke-width:0.5;" width="296.2402" x="850.9082" y="1074.5"/><text fill="#0F172A" font-family="Helvetica" font-size="14" lengthAdjust="spacing" textLength="276.2402" x="860.9082" y="1095.2803">Compare live OCI state against the imported</text><text fill="#0F172A" font-family="Helvetica" font-size="14" lengthAdjust="spacing" textLength="75.4824" x="860.9082" y="1109.2803">field surface</text><rect fill="#F8FAFC" height="48" rx="8" ry="8" style="stroke:#0F172A;stroke-width:0.5;" width="302.4473" x="847.8047" y="1191.5"/><text fill="#0F172A" font-family="Helvetica" font-size="14" lengthAdjust="spacing" textLength="282.4473" x="857.8047" y="1212.2803">Reject drift before OCI mutation for force-new</text><text fill="#0F172A" font-family="Helvetica" font-size="14" lengthAdjust="spacing" textLength="136.9512" x="857.8047" y="1226.2803">fields compartment_id</text><ellipse cx="999.0283" cy="1272" fill="none" rx="11" ry="11" style="stroke:#222222;stroke-width:1;"/><ellipse cx="999.0283" cy="1272" fill="#222222" rx="6" ry="6" style="stroke:#222222;stroke-width:1;"/><polygon fill="#E2E8F0" points="873.4453,1142.5,1124.6113,1142.5,1136.6113,1154.5,1124.6113,1166.5,873.4453,1166.5,861.4453,1154.5,873.4453,1142.5" style="stroke:#1D4ED8;stroke-width:0.5;"/><text fill="#000000" font-family="Helvetica" font-size="14" lengthAdjust="spacing" textLength="21.7861" x="1003.0283" y="1177.2803">yes</text><text fill="#0F172A" font-family="Helvetica" font-size="14" lengthAdjust="spacing" textLength="251.166" x="873.4453" y="1158.2803">"Force-new or conflicting drift detected?"</text><polygon fill="#E2E8F0" points="888.6006,1325,1109.4561,1325,1121.4561,1337,1109.4561,1349,888.6006,1349,876.6006,1337,888.6006,1325" style="stroke:#1D4ED8;stroke-width:0.5;"/><text fill="#0F172A" font-family="Helvetica" font-size="14" lengthAdjust="spacing" textLength="220.8555" x="888.6006" y="1340.7803">"Supported mutable drift detected?"</text><text fill="#000000" font-family="Helvetica" font-size="14" lengthAdjust="spacing" textLength="21.7861" x="854.8145" y="1333.7803">yes</text><text fill="#000000" font-family="Helvetica" font-size="14" lengthAdjust="spacing" textLength="15.5723" x="1121.4561" y="1333.7803">no</text><rect fill="#F8FAFC" height="48" rx="8" ry="8" style="stroke:#0F172A;stroke-width:0.5;" width="325.0605" x="695.4814" y="1359"/><text fill="#0F172A" font-family="Helvetica" font-size="14" lengthAdjust="spacing" textLength="305.0605" x="705.4814" y="1379.7803">Apply UpdateApiaccesscontrolApiMetadatas only</text><text fill="#0F172A" font-family="Helvetica" font-size="14" lengthAdjust="spacing" textLength="196.8818" x="705.4814" y="1393.7803">for mutable fields display_name</text><rect fill="#F8FAFC" height="34" rx="8" ry="8" style="stroke:#0F172A;stroke-width:0.5;" width="199.0059" x="1040.542" y="1359"/><text fill="#0F172A" font-family="Helvetica" font-size="14" lengthAdjust="spacing" textLength="179.0059" x="1050.542" y="1379.7803">Skip the no-op mutation path</text><polygon fill="#E2E8F0" points="999.0283,1413,1011.0283,1425,999.0283,1437,987.0283,1425,999.0283,1413" style="stroke:#1D4ED8;stroke-width:0.5;"/><rect fill="#F8FAFC" height="118" rx="8" ry="8" style="stroke:#0F172A;stroke-width:0.5;" width="334.3164" x="831.8701" y="1457"/><text fill="#0F172A" font-family="Helvetica" font-size="14" lengthAdjust="spacing" textLength="164.2061" x="841.8701" y="1477.7803">Run provider helper hooks</text><text fill="#0F172A" font-family="Helvetica" font-size="14" lengthAdjust="spacing" textLength="219.0508" x="841.8701" y="1491.7803">create=tfresource.CreateResource,</text><text fill="#0F172A" font-family="Helvetica" font-size="14" lengthAdjust="spacing" textLength="314.3164" x="841.8701" y="1505.7803">tfresource.WaitForWorkRequestWithErrorHandling</text><text fill="#0F172A" font-family="Helvetica" font-size="14" lengthAdjust="spacing" textLength="215.5439" x="841.8701" y="1519.7803">entity=template action=CREATED;</text><text fill="#0F172A" font-family="Helvetica" font-size="14" lengthAdjust="spacing" textLength="226.085" x="841.8701" y="1533.7803">update=tfresource.UpdateResource;</text><text fill="#0F172A" font-family="Helvetica" font-size="14" lengthAdjust="spacing" textLength="273.5537" x="841.8701" y="1547.7803">delete=tfresource.DeleteResource when the</text><text fill="#0F172A" font-family="Helvetica" font-size="14" lengthAdjust="spacing" textLength="220.2334" x="841.8701" y="1561.7803">matching field-driven path executes</text><rect fill="#F8FAFC" height="34" rx="8" ry="8" style="stroke:#0F172A;stroke-width:0.5;" width="303.2197" x="847.4185" y="1595"/><text fill="#0F172A" font-family="Helvetica" font-size="14" lengthAdjust="spacing" textLength="283.2197" x="857.4185" y="1615.7803">Return success for the ACTIVE success state</text><rect fill="#F8FAFC" height="48" rx="8" ry="8" style="stroke:#0F172A;stroke-width:0.5;" width="279.1299" x="859.4634" y="1649"/><text fill="#0F172A" font-family="Helvetica" font-size="14" lengthAdjust="spacing" textLength="259.1299" x="869.4634" y="1669.7803">Project required status and finalizer policy</text><text fill="#0F172A" font-family="Helvetica" font-size="14" lengthAdjust="spacing" textLength="174.3027" x="869.4634" y="1683.7803">retain-until-confirmed-delete</text><rect fill="#F8FAFC" height="34" rx="8" ry="8" style="stroke:#0F172A;stroke-width:0.5;" width="313.4189" x="842.3188" y="1717"/><text fill="#0F172A" font-family="Helvetica" font-size="14" lengthAdjust="spacing" textLength="293.4189" x="852.3188" y="1737.7803">Requeue on provisioning, updating, terminating</text><path d="M700.3862,1773 L700.3862,1991 L680.3862,1995 L700.3862,1999 L700.3862,2217 A0,0 0 0 0 700.3862,2217 L1077.812,2217 A0,0 0 0 0 1077.812,2217 L1077.812,1783 L1067.812,1773 L700.3862,1773 A0,0 0 0 0 700.3862,1773" fill="#FFF7D6" style="stroke:#B45309;stroke-width:0.5;"/><path d="M1067.812,1773 L1067.812,1783 L1077.812,1783 L1067.812,1773" fill="#FFF7D6" style="stroke:#B45309;stroke-width:0.5;"/><text fill="#334155" font-family="Helvetica" font-size="14" lengthAdjust="spacing" textLength="101.165" x="706.3862" y="1788.7803">shared diagram:</text><text fill="#334155" font-family="Helvetica" font-size="14" lengthAdjust="spacing" textLength="284.7852" x="706.3862" y="1802.7803">shared/diagrams/shared-reconcile-activity.svg</text><text fill="#334155" font-family="Helvetica" font-size="14" lengthAdjust="spacing" textLength="265.3438" x="706.3862" y="1816.7803">Start from the shared reconcile activity and</text><text fill="#334155" font-family="Helvetica" font-size="14" lengthAdjust="spacing" textLength="273.8955" x="706.3862" y="1830.7803">specialize provider-backed CRUD, wait, and</text><text fill="#334155" font-family="Helvetica" font-size="14" lengthAdjust="spacing" textLength="182.875" x="706.3862" y="1844.7803">status-projection details here.</text><text fill="#334155" font-family="Helvetica" font-size="14" lengthAdjust="spacing" textLength="229.5371" x="706.3862" y="1858.7803">Controller-local activity diagrams add</text><text fill="#334155" font-family="Helvetica" font-size="14" lengthAdjust="spacing" textLength="238.8955" x="706.3862" y="1872.7803">list-lookup hints, secret policies, delete</text><text fill="#334155" font-family="Helvetica" font-size="14" lengthAdjust="spacing" textLength="200.0332" x="706.3862" y="1886.7803">handling, and open formal gaps.</text><text fill="#334155" font-family="Helvetica" font-size="14" lengthAdjust="spacing" textLength="281.709" x="706.3862" y="1900.7803">archetype batch: Generated service-manager</text><text fill="#334155" font-family="Helvetica" font-size="14" lengthAdjust="spacing" textLength="291.0469" x="706.3862" y="1914.7803">controllers specialize the shared reconcile path</text><text fill="#334155" font-family="Helvetica" font-size="14" lengthAdjust="spacing" textLength="189.8477" x="706.3862" y="1928.7803">with formal runtime ownership.</text><text fill="#334155" font-family="Helvetica" font-size="14" lengthAdjust="spacing" textLength="156.3994" x="706.3862" y="1942.7803">service: apiaccesscontrol</text><text fill="#334155" font-family="Helvetica" font-size="14" lengthAdjust="spacing" textLength="221.792" x="706.3862" y="1956.7803">slug: apiaccesscontrolapimetadatas</text><text fill="#334155" font-family="Helvetica" font-size="14" lengthAdjust="spacing" textLength="224.8955" x="706.3862" y="1970.7803">kind: ApiaccesscontrolApiMetadatas</text><text fill="#334155" font-family="Helvetica" font-size="14" lengthAdjust="spacing" textLength="241.2402" x="706.3862" y="1984.7803">archetype: generated-service-manager</text><text fill="#334155" font-family="Helvetica" font-size="14" lengthAdjust="spacing" textLength="156.4063" x="706.3862" y="1998.7803">status/finalizer: required /</text><text fill="#334155" font-family="Helvetica" font-size="14" lengthAdjust="spacing" textLength="174.3027" x="706.3862" y="2012.7803">retain-until-confirmed-delete</text><text fill="#334155" font-family="Helvetica" font-size="14" lengthAdjust="spacing" textLength="272.3984" x="706.3862" y="2026.7803">requeue: provisioning, updating, terminating</text><text fill="#334155" font-family="Helvetica" font-size="14" lengthAdjust="spacing" textLength="295.6816" x="706.3862" y="2040.7803">provider states: create PROVISIONING; update</text><text fill="#334155" font-family="Helvetica" font-size="14" lengthAdjust="spacing" textLength="192.165" x="706.3862" y="2054.7803">UPDATING; delete DELETING</text><text fill="#334155" font-family="Helvetica" font-size="14" lengthAdjust="spacing" textLength="183.6611" x="706.3862" y="2068.7803">supported drift: display_name</text><text fill="#334155" font-family="Helvetica" font-size="14" lengthAdjust="spacing" textLength="230.3301" x="706.3862" y="2082.7803">reject before mutate: force-new fields</text><text fill="#334155" font-family="Helvetica" font-size="14" lengthAdjust="spacing" textLength="100.3789" x="706.3862" y="2096.7803">compartment_id</text><text fill="#334155" font-family="Helvetica" font-size="14" lengthAdjust="spacing" textLength="66.1445" x="706.3862" y="2110.7803">list lookup:</text><text fill="#334155" font-family="Helvetica" font-size="14" lengthAdjust="spacing" textLength="356.4258" x="706.3862" y="2124.7803">scaffold_apiaccesscontrol_apiaccesscontrolapimetadatas</text><text fill="#334155" font-family="Helvetica" font-size="14" lengthAdjust="spacing" textLength="175.8477" x="706.3862" y="2138.7803">filters compartment_id, state</text><text fill="#334155" font-family="Helvetica" font-size="14" lengthAdjust="spacing" textLength="89.4961" x="706.3862" y="2152.7803">conflicts: none</text><text fill="#334155" font-family="Helvetica" font-size="14" lengthAdjust="spacing" textLength="104.3164" x="706.3862" y="2166.7803">open gaps: none</text><text fill="#334155" font-family="Helvetica" font-size="14" lengthAdjust="spacing" textLength="224.9023" x="706.3862" y="2180.7803">Scaffold metadata only; replace with</text><text fill="#334155" font-family="Helvetica" font-size="14" lengthAdjust="spacing" textLength="244.3232" x="706.3862" y="2194.7803">controller-specific runtime states before</text><text fill="#334155" font-family="Helvetica" font-size="14" lengthAdjust="spacing" textLength="66.1445" x="706.3862" y="2208.7803">promotion.</text><ellipse cx="669.3862" cy="1995" fill="none" rx="11" ry="11" style="stroke:#222222;stroke-width:1;"/><ellipse cx="669.3862" cy="1995" fill="#222222" rx="6" ry="6" style="stroke:#222222;stroke-width:1;"/><line style="stroke:#0F172A;stroke-width:1;" x1="669.3862" x2="669.3862" y1="157" y2="177"/><polygon fill="#0F172A" points="665.3862,167,669.3862,177,673.3862,167,669.3862,171" style="stroke:#0F172A;stroke-width:1;"/><line style="stroke:#0F172A;stroke-width:1;" x1="820.8521" x2="820.8521" y1="341" y2="361"/><polygon fill="#0F172A" points="816.8521,351,820.8521,361,824.8521,351,820.8521,355" style="stroke:#0F172A;stroke-width:1;"/><line style="stroke:#0F172A;stroke-width:1;" x1="820.8521" x2="820.8521" y1="423" y2="443"/><polygon fill="#0F172A" points="816.8521,433,820.8521,443,824.8521,433,820.8521,437" style="stroke:#0F172A;stroke-width:1;"/><line style="stroke:#0F172A;stroke-width:1;" x1="527.9204" x2="517.9204" y1="257" y2="257"/><line style="stroke:#0F172A;stroke-width:1;" x1="517.9204" x2="517.9204" y1="257" y2="279"/><polygon fill="#0F172A" points="513.9204,269,517.9204,279,521.9204,269,517.9204,273" style="stroke:#0F172A;stroke-width:1;"/><line style="stroke:#0F172A;stroke-width:1;" x1="810.8521" x2="820.8521" y1="257" y2="257"/><line style="stroke:#0F172A;stroke-width:1;" x1="820.8521" x2="820.8521" y1="257" y2="279"/><polygon fill="#0F172A" points="816.8521,269,820.8521,279,824.8521,269,820.8521,273" style="stroke:#0F172A;stroke-width:1;"/><line style="stroke:#0F172A;stroke-width:1;" x1="517.9204" x2="517.9204" y1="327" y2="509"/><line style="stroke:#0F172A;stroke-width:1;" x1="517.9204" x2="657.3862" y1="509" y2="509"/><polygon fill="#0F172A" points="647.3862,505,657.3862,509,647.3862,513,651.3862,509" style="stroke:#0F172A;stroke-width:1;"/><line style="stroke:#0F172A;stroke-width:1;" x1="820.8521" x2="820.8521" y1="491" y2="509"/><line style="stroke:#0F172A;stroke-width:1;" x1="820.8521" x2="681.3862" y1="509" y2="509"/><polygon fill="#0F172A" points="691.3862,505,681.3862,509,691.3862,513,687.3862,509" style="stroke:#0F172A;stroke-width:1;"/><line style="stroke:#0F172A;stroke-width:1;" x1="669.3862" x2="669.3862" y1="225" y2="245"/><polygon fill="#0F172A" points="665.3862,235,669.3862,245,673.3862,235,669.3862,239" style="stroke:#0F172A;stroke-width:1;"/><line style="stroke:#0F172A;stroke-width:1;" x1="669.3862" x2="669.3862" y1="65" y2="109"/><polygon fill="#0F172A" points="665.3862,99,669.3862,109,673.3862,99,669.3862,103" style="stroke:#0F172A;stroke-width:1;"/><line style="stroke:#0F172A;stroke-width:1;" x1="339.7441" x2="339.7441" y1="711" y2="739.5"/><polygon fill="#0F172A" points="335.7441,729.5,339.7441,739.5,343.7441,729.5,339.7441,733.5" style="stroke:#0F172A;stroke-width:1;"/><line style="stroke:#0F172A;stroke-width:1;" x1="179.5718" x2="169.5718" y1="862.5" y2="862.5"/><line style="stroke:#0F172A;stroke-width:1;" x1="169.5718" x2="169.5718" y1="862.5" y2="884.5"/><polygon fill="#0F172A" points="165.5718,874.5,169.5718,884.5,173.5718,874.5,169.5718,878.5" style="stroke:#0F172A;stroke-width:1;"/><line style="stroke:#0F172A;stroke-width:1;" x1="499.9165" x2="509.9165" y1="862.5" y2="862.5"/><line style="stroke:#0F172A;stroke-width:1;" x1="509.9165" x2="509.9165" y1="862.5" y2="884.5"/><polygon fill="#0F172A" points="505.9165,874.5,509.9165,884.5,513.9165,874.5,509.9165,878.5" style="stroke:#0F172A;stroke-width:1;"/><line style="stroke:#0F172A;stroke-width:1;" x1="169.5718" x2="169.5718" y1="918.5" y2="950.5"/><line style="stroke:#0F172A;stroke-width:1;" x1="169.5718" x2="327.7441" y1="950.5" y2="950.5"/><polygon fill="#0F172A" points="317.7441,946.5,327.7441,950.5,317.7441,954.5,321.7441,950.5" style="stroke:#0F172A;stroke-width:1;"/><line style="stroke:#0F172A;stroke-width:1;" x1="509.9165" x2="509.9165" y1="932.5" y2="950.5"/><line style="stroke:#0F172A;stroke-width:1;" x1="509.9165" x2="351.7441" y1="950.5" y2="950.5"/><polygon fill="#0F172A" points="361.7441,946.5,351.7441,950.5,361.7441,954.5,357.7441,950.5" style="stroke:#0F172A;stroke-width:1;"/><line style="stroke:#0F172A;stroke-width:1;" x1="339.7441" x2="339.7441" y1="815.5" y2="850.5"/><polygon fill="#0F172A" points="335.7441,840.5,339.7441,850.5,343.7441,840.5,339.7441,844.5" style="stroke:#0F172A;stroke-width:1;"/><line style="stroke:#0F172A;stroke-width:1;" x1="339.7441" x2="339.7441" y1="962.5" y2="1008.5"/><polygon fill="#0F172A" points="335.7441,998.5,339.7441,1008.5,343.7441,998.5,339.7441,1002.5" style="stroke:#0F172A;stroke-width:1;"/><line style="stroke:#0F172A;stroke-width:1;" x1="999.0283" x2="999.0283" y1="718" y2="746.5"/><polygon fill="#0F172A" points="995.0283,736.5,999.0283,746.5,1003.0283,736.5,999.0283,740.5" style="stroke:#0F172A;stroke-width:1;"/><line style="stroke:#0F172A;stroke-width:1;" x1="999.0283" x2="999.0283" y1="645" y2="670"/><polygon fill="#0F172A" points="995.0283,660,999.0283,670,1003.0283,660,999.0283,664" style="stroke:#0F172A;stroke-width:1;"/><line style="stroke:#0F172A;stroke-width:1;" x1="1097.3115" x2="1149.3247" y1="633" y2="633"/><polygon fill="#0F172A" points="1145.3247,709.5,1149.3247,719.5,1153.3247,709.5,1149.3247,713.5" style="stroke:#0F172A;stroke-width:1;"/><line style="stroke:#0F172A;stroke-width:1;" x1="1149.3247" x2="1149.3247" y1="633" y2="799.5"/><line style="stroke:#0F172A;stroke-width:1;" x1="1149.3247" x2="999.0283" y1="799.5" y2="799.5"/><line style="stroke:#0F172A;stroke-width:1;" x1="999.0283" x2="999.0283" y1="799.5" y2="834.5"/><polygon fill="#0F172A" points="995.0283,824.5,999.0283,834.5,1003.0283,824.5,999.0283,828.5" style="stroke:#0F172A;stroke-width:1;"/><line style="stroke:#0F172A;stroke-width:1;" x1="999.0283" x2="999.0283" y1="931.5" y2="966.5"/><polygon fill="#0F172A" points="995.0283,956.5,999.0283,966.5,1003.0283,956.5,999.0283,960.5" style="stroke:#0F172A;stroke-width:1;"/><line style="stroke:#0F172A;stroke-width:1;" x1="999.0283" x2="999.0283" y1="858.5" y2="883.5"/><polygon fill="#0F172A" points="995.0283,873.5,999.0283,883.5,1003.0283,873.5,999.0283,877.5" style="stroke:#0F172A;stroke-width:1;"/><line style="stroke:#0F172A;stroke-width:1;" x1="1131.5493" x2="1155.9863" y1="846.5" y2="846.5"/><polygon fill="#0F172A" points="1151.9863,923,1155.9863,933,1159.9863,923,1155.9863,927" style="stroke:#0F172A;stroke-width:1;"/><line style="stroke:#0F172A;stroke-width:1;" x1="1155.9863" x2="1155.9863" y1="846.5" y2="1010.5"/><line style="stroke:#0F172A;stroke-width:1;" x1="1155.9863" x2="999.0283" y1="1010.5" y2="1010.5"/><line style="stroke:#0F172A;stroke-width:1;" x1="999.0283" x2="999.0283" y1="1010.5" y2="1074.5"/><polygon fill="#0F172A" points="995.0283,1064.5,999.0283,1074.5,1003.0283,1064.5,999.0283,1068.5" style="stroke:#0F172A;stroke-width:1;"/><line style="stroke:#0F172A;stroke-width:1;" x1="999.0283" x2="999.0283" y1="1239.5" y2="1261"/><polygon fill="#0F172A" points="995.0283,1251,999.0283,1261,1003.0283,1251,999.0283,1255" style="stroke:#0F172A;stroke-width:1;"/><line style="stroke:#0F172A;stroke-width:1;" x1="999.0283" x2="999.0283" y1="1166.5" y2="1191.5"/><polygon fill="#0F172A" points="995.0283,1181.5,999.0283,1191.5,1003.0283,1181.5,999.0283,1185.5" style="stroke:#0F172A;stroke-width:1;"/><line style="stroke:#0F172A;stroke-width:1;" x1="1136.6113" x2="1160.252" y1="1154.5" y2="1154.5"/><polygon fill="#0F172A" points="1156.252,1231,1160.252,1241,1164.252,1231,1160.252,1235" style="stroke:#0F172A;stroke-width:1;"/><line style="stroke:#0F172A;stroke-width:1;" x1="1160.252" x2="1160.252" y1="1154.5" y2="1305"/><line style="stroke:#0F172A;stroke-width:1;" x1="1160.252" x2="999.0283" y1="1305" y2="1305"/><line style="stroke:#0F172A;stroke-width:1;" x1="999.0283" x2="999.0283" y1="1305" y2="1325"/><polygon fill="#0F172A" points="995.0283,1315,999.0283,1325,1003.0283,1315,999.0283,1319" style="stroke:#0F172A;stroke-width:1;"/><line style="stroke:#0F172A;stroke-width:1;" x1="999.0283" x2="999.0283" y1="1122.5" y2="1142.5"/><polygon fill="#0F172A" points="995.0283,1132.5,999.0283,1142.5,1003.0283,1132.5,999.0283,1136.5" style="stroke:#0F172A;stroke-width:1;"/><line style="stroke:#0F172A;stroke-width:1;" x1="876.6006" x2="858.0117" y1="1337" y2="1337"/><line style="stroke:#0F172A;stroke-width:1;" x1="858.0117" x2="858.0117" y1="1337" y2="1359"/><polygon fill="#0F172A" points="854.0117,1349,858.0117,1359,862.0117,1349,858.0117,1353" style="stroke:#0F172A;stroke-width:1;"/><line style="stroke:#0F172A;stroke-width:1;" x1="1121.4561" x2="1140.0449" y1="1337" y2="1337"/><line style="stroke:#0F172A;stroke-width:1;" x1="1140.0449" x2="1140.0449" y1="1337" y2="1359"/><polygon fill="#0F172A" points="1136.0449,1349,1140.0449,1359,1144.0449,1349,1140.0449,1353" style="stroke:#0F172A;stroke-width:1;"/><line style="stroke:#0F172A;stroke-width:1;" x1="858.0117" x2="858.0117" y1="1407" y2="1425"/><line style="stroke:#0F172A;stroke-width:1;" x1="858.0117" x2="987.0283" y1="1425" y2="1425"/><polygon fill="#0F172A" points="977.0283,1421,987.0283,1425,977.0283,1429,981.0283,1425" style="stroke:#0F172A;stroke-width:1;"/><line style="stroke:#0F172A;stroke-width:1;" x1="1140.0449" x2="1140.0449" y1="1393" y2="1425"/><line style="stroke:#0F172A;stroke-width:1;" x1="1140.0449" x2="1011.0283" y1="1425" y2="1425"/><polygon fill="#0F172A" points="1021.0283,1421,1011.0283,1425,1021.0283,1429,1017.0283,1425" style="stroke:#0F172A;stroke-width:1;"/><line style="stroke:#0F172A;stroke-width:1;" x1="999.0283" x2="999.0283" y1="1437" y2="1457"/><polygon fill="#0F172A" points="995.0283,1447,999.0283,1457,1003.0283,1447,999.0283,1451" style="stroke:#0F172A;stroke-width:1;"/><line style="stroke:#0F172A;stroke-width:1;" x1="999.0283" x2="999.0283" y1="1575" y2="1595"/><polygon fill="#0F172A" points="995.0283,1585,999.0283,1595,1003.0283,1585,999.0283,1589" style="stroke:#0F172A;stroke-width:1;"/><line style="stroke:#0F172A;stroke-width:1;" x1="999.0283" x2="999.0283" y1="1629" y2="1649"/><polygon fill="#0F172A" points="995.0283,1639,999.0283,1649,1003.0283,1639,999.0283,1643" style="stroke:#0F172A;stroke-width:1;"/><line style="stroke:#0F172A;stroke-width:1;" x1="999.0283" x2="999.0283" y1="1697" y2="1717"/><polygon fill="#0F172A" points="995.0283,1707,999.0283,1717,1003.0283,1707,999.0283,1711" style="stroke:#0F172A;stroke-width:1;"/><line style="stroke:#0F172A;stroke-width:1;" x1="595.21" x2="339.7441" y1="565" y2="565"/><line style="stroke:#0F172A;stroke-width:1;" x1="339.7441" x2="339.7441" y1="565" y2="621"/><polygon fill="#0F172A" points="335.7441,611,339.7441,621,343.7441,611,339.7441,615" style="stroke:#0F172A;stroke-width:1;"/><line style="stroke:#0F172A;stroke-width:1;" x1="743.5625" x2="999.0283" y1="565" y2="565"/><line style="stroke:#0F172A;stroke-width:1;" x1="999.0283" x2="999.0283" y1="565" y2="621"/><polygon fill="#0F172A" points="995.0283,611,999.0283,621,1003.0283,611,999.0283,615" style="stroke:#0F172A;stroke-width:1;"/><line style="stroke:#0F172A;stroke-width:1;" x1="999.0283" x2="999.0283" y1="1751" y2="1768"/><line style="stroke:#0F172A;stroke-width:1;" x1="999.0283" x2="669.3862" y1="1768" y2="1768"/><line style="stroke:#0F172A;stroke-width:1;" x1="669.3862" x2="669.3862" y1="1768" y2="1984"/><polygon fill="#0F172A" points="665.3862,1974,669.3862,1984,673.3862,1974,669.3862,1978" style="stroke:#0F172A;stroke-width:1;"/><line style="stroke:#0F172A;stroke-width:1;" x1="669.3862" x2="669.3862" y1="521" y2="553"/><polygon fill="#0F172A" points="665.3862,543,669.3862,553,673.3862,543,669.3862,547" style="stroke:#0F172A;stroke-width:1;"/><?plantuml-src bLVRRjiu47tNLn3PbnQmawPDBskZMAHEsWReDa6IjYy60beQsTnGf4fIpdeN_VSzl4YMxS3j8WWYYgFXp9apXnDxBrJD3Q-ONV12FmWrPoMNbZBRxSnuVZytkb75H4jjs6zbZf-YPr5GoHlftclbFlEAs4UIIt8Yvu_Rt8X_Y1sVz3QvCVeXUNzM7hz-tlzIQKVlTc8eozV5gsqhRGeooM9sylB5iz-tBFpnQV_5YvFZbozx-y5zheqYmuvVPKuuIUmqTs8ft8eD6Qy5ptEoDeSJe-NHwTOBhFyanmlkkEqdrxhuDsEFWFccv6NkT_h19n0OAzS1T-yAmIkjYXrCw3czAP_r3FeUZuiJAjwiDzy_ujWwRjosFNN-ExiPt_Bw8mkVPaWOi0cjsC7bp99P4kEgOE-4AWwG_kZ6Mx7IwC0tGmKhfNwOghWuGcXp86QFudfe2CZcGjAmnV3GBkVZR7HDl02ZhF0kzfK1hclA1ymPW0LRXEaQEmXH5IJ94HFAaNBZJ9JioS5jiaDkz7SjHIuSkvnSC570njUmDcJn-CV1K-OMfDYJ5TcdsUW3ERzcUMCCjiCtiDIDoOaj1PygMEmBT9mHkeuzKVgfJyzg6R135C8wtvKR7jq2TPylfkeJTlUvPOqDBIsa8mCqSbtv6bM8yKuKWu070T298Jo457P3ZvjxZtdmM2WzLOOQosTed8gxVC641OF1K1nnXG0GRJZ3n0G3pddmNcp0F5MeYaxL0ZIg42L85afq5ijcw7j35XzkbQ97mMWPY9S-ghbR01824l7D_gI4M_YClZU1Py22_QIAKuM4VbeJP7Ps_kdyzlpC5qILmW0iHEph49UHcpw9N-4EKFmL9W1PwL7sAV5yGRQDOhm1R2w9gwOEBL8AnINKsW1kl0P1ROC3Ta07OokzZFnPVyDBaAvjCy-ycDC6rQ48ApQJEdHT3B4D051sldpC6m7qM66ThdikUmJu94hAL_379f9RAqfSINx7KoAax3aNMW0gW1ITMGNkMdAx2GQwHTer1C93bbAlL5me2mzJTNLz-VNYvkBoyyNd3mFsvUhiz3Oy1Q3nD4x1XiYt8q0T6sVH0Z572w9mCoTdTsDnZL5U7HgLJCj6iaujVNlXgermJbKCCbRyT79xyVLy8umVVSIyiAv2wS-CA1txY4S91GbDD0dYGKoAPKmz1ixdFl_OsAAgjK5JJa5Zaj3RnfGyfyImzngQCbJq4FeUL8V01d4hmc45U9AxnyZr5zudencLsiJZgyQ5Sa9YZF-DljFHbcrgtIxqDqqTWmsEVDttXt5QrtB5ljJ5pyHGAma5yq6rZbD4XR2rvAixXI5fimlkHHtmKtgewtLYNgzQee-k6xmmUWc66BOWMVi_MjzxMGyQ-jQLhN0VHis-Jil1LFNsld61ESnyq-O-qVeRbEuSCvXfwprLKOZVEaBRXYhdFgAta-lpKoyPKtHeiNLcXAOz4oQnzVicKMDQatXj8E-f2jT5lAe0rH2LM5BC7rSWvOqZE-wOt_Q7XzYZ5bdTlMuljIkZ0t4w1O_toPQorHeiN7c1SU3nC3JDCCaoPf2OmpWf03fVfofOm8601om04PuWTnNy-iKOVHNh5cZdPqzcn7pXiZJuf5bdbFslsIVhJL0-y-HitVhTi8aaCp_xY91cHvpXB0uua-ilPmFs02OCecc0PbX7o3pt2e-7j62QeSDi4dakuG5YpUNwe3PmneiYaxY5OA3leTyefyEePGdiT15cGNWH4SqMYMfn6DCrXJwku7hEQtkOSGF5SgkQC6w26oFSlPZCmwZW9qk1Rg-uudCoMTu5X-AlStuK84-fpD_ixMd6Lnp_jEW7kBSBKHzcoVzeP-JFh6pckw-nhhh17tD_CTexbAvJ6x5vczHmEwbOaQEEgACrZu-olMJDqYKr-XMYPfsaXBQnepIGiVvTDexVKjPUQUFsMczljinsQXfKTBGXTeWeT68Ixw1l2A_Jx2IGsQPa1pQno2RqISxBKilYRXlzkxtbIAClUtJopTfB26ahhIWBDFJyI-kRT2Xh7GPn7wCKoCqB68ZKezymi0zZHiUg26fAt6DTQTzTXruSmd-a_m40?></g></svg>