<?plantuml 1.2026.1?><svg xmlns="http://www.w3.org/2000/svg" xmlns:xlink="http://www.w3.org/1999/xlink" contentStyleType="text/css" data-diagram-type="ACTIVITY" height="2277px" preserveAspectRatio="none" style="width:1270px;height:2277px;background:#FCFCFD;" version="1.1" viewBox="0 0 1270 2277" width="1270px" zoomAndPan="magnify"><title>Activity - fleetsoftwareupdate/FleetSoftwareUpdateFsuReadinessChecks</title><defs/><g><rect fill="#FCFCFD" height="2277" style="stroke:none;stroke-width:1;" width="1270" x="0" y="0"/><g class="title" data-source-line="10"><text fill="#000000" font-family="Helvetica" font-size="14" font-weight="bold" lengthAdjust="spacing" textLength="483.1299" x="392.0952" y="30.7803">Activity - fleetsoftwareupdate/FleetSoftwareUpdateFsuReadinessChecks</text></g><ellipse cx="672.3009" cy="55" fill="#1D4ED8" rx="10" ry="10" style="stroke:#222222;stroke-width:1;"/><rect fill="none" height="472" rx="8" ry="8" style="stroke:#000000;stroke-width:1.5;" width="699.9629" x="327.1832" y="75"/><path d="M449.2516,75 L449.2516,82 L439.2516,92 L327.1832,92" fill="none" style="stroke:#000000;stroke-width:1.5;"/><text fill="#000000" font-family="Helvetica" font-size="14" lengthAdjust="spacing" textLength="112.0684" x="330.1832" y="86.7803">Observe and Bind</text><rect fill="#F8FAFC" height="48" rx="8" ry="8" style="stroke:#0F172A;stroke-width:0.5;" width="304.7852" x="519.9083" y="109"/><text fill="#0F172A" font-family="Helvetica" font-size="14" lengthAdjust="spacing" textLength="136.9375" x="529.9083" y="129.7803">Start from shared flow</text><text fill="#0F172A" font-family="Helvetica" font-size="14" lengthAdjust="spacing" textLength="284.7852" x="529.9083" y="143.7803">shared/diagrams/shared-reconcile-activity.svg</text><rect fill="#F8FAFC" height="62" rx="8" ry="8" style="stroke:#0F172A;stroke-width:0.5;" width="325.04" x="509.7809" y="177"/><text fill="#0F172A" font-family="Helvetica" font-size="14" lengthAdjust="spacing" textLength="83.2754" x="519.7809" y="197.7803">Read desired</text><text fill="#0F172A" font-family="Helvetica" font-size="14" lengthAdjust="spacing" textLength="305.04" x="519.7809" y="211.7803">FleetSoftwareUpdateFsuReadinessChecks spec,</text><text fill="#0F172A" font-family="Helvetica" font-size="14" lengthAdjust="spacing" textLength="198.4609" x="519.7809" y="225.7803">tracked status, and delete intent</text><polygon fill="#E2E8F0" points="542.8351,259,801.7667,259,813.7667,271,801.7667,283,542.8351,283,530.8351,271,542.8351,259" style="stroke:#1D4ED8;stroke-width:0.5;"/><text fill="#0F172A" font-family="Helvetica" font-size="14" lengthAdjust="spacing" textLength="258.9316" x="542.8351" y="274.7803">"Tracked or explicit OCI identity present?"</text><text fill="#000000" font-family="Helvetica" font-size="14" lengthAdjust="spacing" textLength="21.7861" x="509.049" y="267.7803">yes</text><text fill="#000000" font-family="Helvetica" font-size="14" lengthAdjust="spacing" textLength="15.5723" x="813.7667" y="267.7803">no</text><rect fill="#F8FAFC" height="48" rx="8" ry="8" style="stroke:#0F172A;stroke-width:0.5;" width="310.2539" x="347.1832" y="293"/><text fill="#0F172A" font-family="Helvetica" font-size="14" lengthAdjust="spacing" textLength="202.3027" x="357.1832" y="313.7803">Get the current OCI resource via</text><text fill="#0F172A" font-family="Helvetica" font-size="14" lengthAdjust="spacing" textLength="290.2539" x="357.1832" y="327.7803">GetFleetSoftwareUpdateFsuReadinessChecks</text><rect fill="#F8FAFC" height="62" rx="8" ry="8" style="stroke:#0F172A;stroke-width:0.5;" width="309.4746" x="687.5543" y="293"/><text fill="#0F172A" font-family="Helvetica" font-size="14" lengthAdjust="spacing" textLength="259.9092" x="697.5543" y="313.7803">Resolve an existing OCI resource through</text><text fill="#0F172A" font-family="Helvetica" font-size="14" lengthAdjust="spacing" textLength="289.4746" x="697.5543" y="327.7803">ListFleetSoftwareUpdateFsuReadinessChecks</text><text fill="#0F172A" font-family="Helvetica" font-size="14" lengthAdjust="spacing" textLength="213.2061" x="697.5543" y="341.7803">using filters compartment_id, state</text><rect fill="#F8FAFC" height="62" rx="8" ry="8" style="stroke:#0F172A;stroke-width:0.5;" width="329.709" x="677.4371" y="375"/><text fill="#0F172A" font-family="Helvetica" font-size="14" lengthAdjust="spacing" textLength="174.2959" x="687.4371" y="395.7803">Create the OCI resource via</text><text fill="#0F172A" font-family="Helvetica" font-size="14" lengthAdjust="spacing" textLength="309.709" x="687.4371" y="409.7803">CreateFleetSoftwareUpdateFsuReadinessChecks</text><text fill="#0F172A" font-family="Helvetica" font-size="14" lengthAdjust="spacing" textLength="205.4609" x="687.4371" y="423.7803">when no reusable match is found</text><rect fill="#F8FAFC" height="48" rx="8" ry="8" style="stroke:#0F172A;stroke-width:0.5;" width="286.8955" x="698.8439" y="457"/><text fill="#0F172A" font-family="Helvetica" font-size="14" lengthAdjust="spacing" textLength="266.8955" x="708.8439" y="477.7803">Persist the resolved or created OCI identity</text><text fill="#0F172A" font-family="Helvetica" font-size="14" lengthAdjust="spacing" textLength="63.8135" x="708.8439" y="491.7803">into status</text><polygon fill="#E2E8F0" points="672.3009,511,684.3009,523,672.3009,535,660.3009,523,672.3009,511" style="stroke:#1D4ED8;stroke-width:0.5;"/><polygon fill="#E2E8F0" points="610.1246,567,734.4772,567,746.4772,579,734.4772,591,610.1246,591,598.1246,579,610.1246,567" style="stroke:#1D4ED8;stroke-width:0.5;"/><text fill="#0F172A" font-family="Helvetica" font-size="14" lengthAdjust="spacing" textLength="124.3525" x="610.1246" y="582.7803">"Delete requested?"</text><text fill="#000000" font-family="Helvetica" font-size="14" lengthAdjust="spacing" textLength="21.7861" x="576.3385" y="575.7803">yes</text><text fill="#000000" font-family="Helvetica" font-size="14" lengthAdjust="spacing" textLength="15.5723" x="746.4772" y="575.7803">no</text><rect fill="none" height="408" rx="8" ry="8" style="stroke:#000000;stroke-width:1.5;" width="644.4814" x="11" y="601"/><path d="M61.4688,601 L61.4688,608 L51.4688,618 L11,618" fill="none" style="stroke:#000000;stroke-width:1.5;"/><text fill="#000000" font-family="Helvetica" font-size="14" lengthAdjust="spacing" textLength="40.4688" x="14" y="612.7803">Delete</text><rect fill="#F8FAFC" height="104" rx="8" ry="8" style="stroke:#0F172A;stroke-width:0.5;" width="328.1572" x="175.6655" y="635"/><text fill="#0F172A" font-family="Helvetica" font-size="14" lengthAdjust="spacing" textLength="105.0684" x="185.6655" y="655.7803">Delete path uses</text><text fill="#0F172A" font-family="Helvetica" font-size="14" lengthAdjust="spacing" textLength="308.1572" x="185.6655" y="669.7803">DeleteFleetSoftwareUpdateFsuReadinessChecks</text><text fill="#0F172A" font-family="Helvetica" font-size="14" lengthAdjust="spacing" textLength="101.9375" x="185.6655" y="683.7803">with required via</text><text fill="#0F172A" font-family="Helvetica" font-size="14" lengthAdjust="spacing" textLength="306.5918" x="185.6655" y="697.7803">GetFleetSoftwareUpdateFsuReadinessChecks or</text><text fill="#0F172A" font-family="Helvetica" font-size="14" lengthAdjust="spacing" textLength="305.04" x="185.6655" y="711.7803">ListFleetSoftwareUpdateFsuReadinessChecks to</text><text fill="#0F172A" font-family="Helvetica" font-size="14" lengthAdjust="spacing" textLength="144.7168" x="185.6655" y="725.7803">DELETED confirmation</text><rect fill="#F8FAFC" height="76" rx="8" ry="8" style="stroke:#0F172A;stroke-width:0.5;" width="326.5918" x="176.4482" y="766"/><text fill="#0F172A" font-family="Helvetica" font-size="14" lengthAdjust="spacing" textLength="123.7236" x="186.4482" y="786.7803">Confirm deletion via</text><text fill="#0F172A" font-family="Helvetica" font-size="14" lengthAdjust="spacing" textLength="306.5918" x="186.4482" y="800.7803">GetFleetSoftwareUpdateFsuReadinessChecks or</text><text fill="#0F172A" font-family="Helvetica" font-size="14" lengthAdjust="spacing" textLength="289.4746" x="186.4482" y="814.7803">ListFleetSoftwareUpdateFsuReadinessChecks</text><text fill="#0F172A" font-family="Helvetica" font-size="14" lengthAdjust="spacing" textLength="176.6201" x="186.4482" y="828.7803">until OCI reaches DELETED</text><polygon fill="#E2E8F0" points="191.5718,877,487.9165,877,499.9165,889,487.9165,901,191.5718,901,179.5718,889,191.5718,877" style="stroke:#1D4ED8;stroke-width:0.5;"/><text fill="#0F172A" font-family="Helvetica" font-size="14" lengthAdjust="spacing" textLength="296.3447" x="191.5718" y="892.7803">"Delete cleanup and finalizer release succeed?"</text><text fill="#000000" font-family="Helvetica" font-size="14" lengthAdjust="spacing" textLength="21.7861" x="157.7856" y="885.7803">yes</text><text fill="#000000" font-family="Helvetica" font-size="14" lengthAdjust="spacing" textLength="15.5723" x="499.9165" y="885.7803">no</text><rect fill="#F8FAFC" height="34" rx="8" ry="8" style="stroke:#0F172A;stroke-width:0.5;" width="293.1436" x="23" y="911"/><text fill="#0F172A" font-family="Helvetica" font-size="14" lengthAdjust="spacing" textLength="273.1436" x="33" y="931.7803">Remove the finalizer after delete completion</text><rect fill="#F8FAFC" height="48" rx="8" ry="8" style="stroke:#0F172A;stroke-width:0.5;" width="251.1299" x="384.3516" y="911"/><text fill="#0F172A" font-family="Helvetica" font-size="14" lengthAdjust="spacing" textLength="231.1299" x="394.3516" y="931.7803">Stay blocked until cleanup or finalizer</text><text fill="#0F172A" font-family="Helvetica" font-size="14" lengthAdjust="spacing" textLength="108.9512" x="394.3516" y="945.7803">release succeeds</text><polygon fill="#E2E8F0" points="339.7441,965,351.7441,977,339.7441,989,327.7441,977,339.7441,965" style="stroke:#1D4ED8;stroke-width:0.5;"/><ellipse cx="339.7441" cy="1054" fill="none" rx="11" ry="11" style="stroke:#222222;stroke-width:1;"/><ellipse cx="339.7441" cy="1054" fill="#222222" rx="6" ry="6" style="stroke:#222222;stroke-width:1;"/><rect fill="none" height="450" rx="8" ry="8" style="stroke:#000000;stroke-width:1.5;" width="345.916" x="837.8997" y="601"/><path d="M988.7336,601 L988.7336,608 L978.7336,618 L837.8997,618" fill="none" style="stroke:#000000;stroke-width:1.5;"/><text fill="#000000" font-family="Helvetica" font-size="14" lengthAdjust="spacing" textLength="140.834" x="840.8997" y="612.7803">Lifecycle Classification</text><rect fill="#F8FAFC" height="48" rx="8" ry="8" style="stroke:#0F172A;stroke-width:0.5;" width="280.5928" x="864.5613" y="684"/><text fill="#0F172A" font-family="Helvetica" font-size="14" lengthAdjust="spacing" textLength="240.4541" x="874.5613" y="704.7803">Request requeue while OCI remains in</text><text fill="#0F172A" font-family="Helvetica" font-size="14" lengthAdjust="spacing" textLength="260.5928" x="874.5613" y="718.7803">PROVISIONING, UPDATING, DELETING</text><ellipse cx="1004.8577" cy="770" fill="none" rx="11" ry="11" style="stroke:#222222;stroke-width:1;"/><ellipse cx="1004.8577" cy="770" fill="#222222" rx="6" ry="6" style="stroke:#222222;stroke-width:1;"/><polygon fill="#E2E8F0" points="918.5745,635,1091.1409,635,1103.1409,647,1091.1409,659,918.5745,659,906.5745,647,918.5745,635" style="stroke:#1D4ED8;stroke-width:0.5;"/><text fill="#000000" font-family="Helvetica" font-size="14" lengthAdjust="spacing" textLength="21.7861" x="1008.8577" y="669.7803">yes</text><text fill="#0F172A" font-family="Helvetica" font-size="14" lengthAdjust="spacing" textLength="172.5664" x="918.5745" y="650.7803">"OCI state in retryable set?"</text><rect fill="#F8FAFC" height="48" rx="8" ry="8" style="stroke:#0F172A;stroke-width:0.5;" width="293.916" x="857.8997" y="896"/><text fill="#0F172A" font-family="Helvetica" font-size="14" lengthAdjust="spacing" textLength="273.916" x="867.8997" y="916.7803">Return an unsuccessful reconcile result until</text><text fill="#0F172A" font-family="Helvetica" font-size="14" lengthAdjust="spacing" textLength="133.041" x="867.8997" y="930.7803">OCI reaches ACTIVE</text><ellipse cx="1004.8577" cy="990" fill="none" rx="11" ry="11" style="stroke:#222222;stroke-width:1;"/><ellipse cx="1004.8577" cy="990" fill="#222222" rx="6" ry="6" style="stroke:#222222;stroke-width:1;"/><polygon fill="#E2E8F0" points="884.3367,847,1125.3787,847,1137.3787,859,1125.3787,871,884.3367,871,872.3367,859,884.3367,847" style="stroke:#1D4ED8;stroke-width:0.5;"/><text fill="#000000" font-family="Helvetica" font-size="14" lengthAdjust="spacing" textLength="21.7861" x="1008.8577" y="881.7803">yes</text><text fill="#0F172A" font-family="Helvetica" font-size="14" lengthAdjust="spacing" textLength="241.042" x="884.3367" y="862.7803">"OCI state is outside success targets?"</text><rect fill="none" height="736.5" rx="8" ry="8" style="stroke:#000000;stroke-width:1.5;" width="583.8389" x="675.4814" y="1075"/><path d="M841.9014,1075 L841.9014,1082 L831.9014,1092 L675.4814,1092" fill="none" style="stroke:#000000;stroke-width:1.5;"/><text fill="#000000" font-family="Helvetica" font-size="14" lengthAdjust="spacing" textLength="156.4199" x="678.4814" y="1086.7803">Ready and Drift Handling</text><rect fill="#F8FAFC" height="48" rx="8" ry="8" style="stroke:#0F172A;stroke-width:0.5;" width="296.2402" x="856.7375" y="1109"/><text fill="#0F172A" font-family="Helvetica" font-size="14" lengthAdjust="spacing" textLength="276.2402" x="866.7375" y="1129.7803">Compare live OCI state against the imported</text><text fill="#0F172A" font-family="Helvetica" font-size="14" lengthAdjust="spacing" textLength="75.4824" x="866.7375" y="1143.7803">field surface</text><rect fill="#F8FAFC" height="48" rx="8" ry="8" style="stroke:#0F172A;stroke-width:0.5;" width="302.4473" x="853.634" y="1226"/><text fill="#0F172A" font-family="Helvetica" font-size="14" lengthAdjust="spacing" textLength="282.4473" x="863.634" y="1246.7803">Reject drift before OCI mutation for force-new</text><text fill="#0F172A" font-family="Helvetica" font-size="14" lengthAdjust="spacing" textLength="136.9512" x="863.634" y="1260.7803">fields compartment_id</text><ellipse cx="1004.8577" cy="1306.5" fill="none" rx="11" ry="11" style="stroke:#222222;stroke-width:1;"/><ellipse cx="1004.8577" cy="1306.5" fill="#222222" rx="6" ry="6" style="stroke:#222222;stroke-width:1;"/><polygon fill="#E2E8F0" points="879.2747,1177,1130.4407,1177,1142.4407,1189,1130.4407,1201,879.2747,1201,867.2747,1189,879.2747,1177" style="stroke:#1D4ED8;stroke-width:0.5;"/><text fill="#000000" font-family="Helvetica" font-size="14" lengthAdjust="spacing" textLength="21.7861" x="1008.8577" y="1211.7803">yes</text><text fill="#0F172A" font-family="Helvetica" font-size="14" lengthAdjust="spacing" textLength="251.166" x="879.2747" y="1192.7803">"Force-new or conflicting drift detected?"</text><polygon fill="#E2E8F0" points="894.4299,1359.5,1115.2854,1359.5,1127.2854,1371.5,1115.2854,1383.5,894.4299,1383.5,882.4299,1371.5,894.4299,1359.5" style="stroke:#1D4ED8;stroke-width:0.5;"/><text fill="#0F172A" font-family="Helvetica" font-size="14" lengthAdjust="spacing" textLength="220.8555" x="894.4299" y="1375.2803">"Supported mutable drift detected?"</text><text fill="#000000" font-family="Helvetica" font-size="14" lengthAdjust="spacing" textLength="21.7861" x="860.6438" y="1368.2803">yes</text><text fill="#000000" font-family="Helvetica" font-size="14" lengthAdjust="spacing" textLength="15.5723" x="1127.2854" y="1368.2803">no</text><rect fill="#F8FAFC" height="62" rx="8" ry="8" style="stroke:#0F172A;stroke-width:0.5;" width="332.833" x="695.4814" y="1393.5"/><text fill="#0F172A" font-family="Helvetica" font-size="14" lengthAdjust="spacing" textLength="35.0205" x="705.4814" y="1414.2803">Apply</text><text fill="#0F172A" font-family="Helvetica" font-size="14" lengthAdjust="spacing" textLength="312.833" x="705.4814" y="1428.2803">UpdateFleetSoftwareUpdateFsuReadinessChecks</text><text fill="#0F172A" font-family="Helvetica" font-size="14" lengthAdjust="spacing" textLength="226.4541" x="705.4814" y="1442.2803">only for mutable fields display_name</text><rect fill="#F8FAFC" height="34" rx="8" ry="8" style="stroke:#0F172A;stroke-width:0.5;" width="199.0059" x="1048.3145" y="1393.5"/><text fill="#0F172A" font-family="Helvetica" font-size="14" lengthAdjust="spacing" textLength="179.0059" x="1058.3145" y="1414.2803">Skip the no-op mutation path</text><polygon fill="#E2E8F0" points="1004.8577,1461.5,1016.8577,1473.5,1004.8577,1485.5,992.8577,1473.5,1004.8577,1461.5" style="stroke:#1D4ED8;stroke-width:0.5;"/><rect fill="#F8FAFC" height="118" rx="8" ry="8" style="stroke:#0F172A;stroke-width:0.5;" width="334.3164" x="837.6995" y="1505.5"/><text fill="#0F172A" font-family="Helvetica" font-size="14" lengthAdjust="spacing" textLength="164.2061" x="847.6995" y="1526.2803">Run provider helper hooks</text><text fill="#0F172A" font-family="Helvetica" font-size="14" lengthAdjust="spacing" textLength="219.0508" x="847.6995" y="1540.2803">create=tfresource.CreateResource,</text><text fill="#0F172A" font-family="Helvetica" font-size="14" lengthAdjust="spacing" textLength="314.3164" x="847.6995" y="1554.2803">tfresource.WaitForWorkRequestWithErrorHandling</text><text fill="#0F172A" font-family="Helvetica" font-size="14" lengthAdjust="spacing" textLength="215.5439" x="847.6995" y="1568.2803">entity=template action=CREATED;</text><text fill="#0F172A" font-family="Helvetica" font-size="14" lengthAdjust="spacing" textLength="226.085" x="847.6995" y="1582.2803">update=tfresource.UpdateResource;</text><text fill="#0F172A" font-family="Helvetica" font-size="14" lengthAdjust="spacing" textLength="273.5537" x="847.6995" y="1596.2803">delete=tfresource.DeleteResource when the</text><text fill="#0F172A" font-family="Helvetica" font-size="14" lengthAdjust="spacing" textLength="220.2334" x="847.6995" y="1610.2803">matching field-driven path executes</text><rect fill="#F8FAFC" height="34" rx="8" ry="8" style="stroke:#0F172A;stroke-width:0.5;" width="303.2197" x="853.2478" y="1643.5"/><text fill="#0F172A" font-family="Helvetica" font-size="14" lengthAdjust="spacing" textLength="283.2197" x="863.2478" y="1664.2803">Return success for the ACTIVE success state</text><rect fill="#F8FAFC" height="48" rx="8" ry="8" style="stroke:#0F172A;stroke-width:0.5;" width="279.1299" x="865.2927" y="1697.5"/><text fill="#0F172A" font-family="Helvetica" font-size="14" lengthAdjust="spacing" textLength="259.1299" x="875.2927" y="1718.2803">Project required status and finalizer policy</text><text fill="#0F172A" font-family="Helvetica" font-size="14" lengthAdjust="spacing" textLength="174.3027" x="875.2927" y="1732.2803">retain-until-confirmed-delete</text><rect fill="#F8FAFC" height="34" rx="8" ry="8" style="stroke:#0F172A;stroke-width:0.5;" width="313.4189" x="848.1482" y="1765.5"/><text fill="#0F172A" font-family="Helvetica" font-size="14" lengthAdjust="spacing" textLength="293.4189" x="858.1482" y="1786.2803">Requeue on provisioning, updating, terminating</text><path d="M703.3009,1821.5 L703.3009,2039.5 L683.3009,2043.5 L703.3009,2047.5 L703.3009,2265.5 A0,0 0 0 0 703.3009,2265.5 L1155.4572,2265.5 A0,0 0 0 0 1155.4572,2265.5 L1155.4572,1831.5 L1145.4572,1821.5 L703.3009,1821.5 A0,0 0 0 0 703.3009,1821.5" fill="#FFF7D6" style="stroke:#B45309;stroke-width:0.5;"/><path d="M1145.4572,1821.5 L1145.4572,1831.5 L1155.4572,1831.5 L1145.4572,1821.5" fill="#FFF7D6" style="stroke:#B45309;stroke-width:0.5;"/><text fill="#334155" font-family="Helvetica" font-size="14" lengthAdjust="spacing" textLength="101.165" x="709.3009" y="1837.2803">shared diagram:</text><text fill="#334155" font-family="Helvetica" font-size="14" lengthAdjust="spacing" textLength="284.7852" x="709.3009" y="1851.2803">shared/diagrams/shared-reconcile-activity.svg</text><text fill="#334155" font-family="Helvetica" font-size="14" lengthAdjust="spacing" textLength="265.3438" x="709.3009" y="1865.2803">Start from the shared reconcile activity and</text><text fill="#334155" font-family="Helvetica" font-size="14" lengthAdjust="spacing" textLength="273.8955" x="709.3009" y="1879.2803">specialize provider-backed CRUD, wait, and</text><text fill="#334155" font-family="Helvetica" font-size="14" lengthAdjust="spacing" textLength="182.875" x="709.3009" y="1893.2803">status-projection details here.</text><text fill="#334155" font-family="Helvetica" font-size="14" lengthAdjust="spacing" textLength="229.5371" x="709.3009" y="1907.2803">Controller-local activity diagrams add</text><text fill="#334155" font-family="Helvetica" font-size="14" lengthAdjust="spacing" textLength="238.8955" x="709.3009" y="1921.2803">list-lookup hints, secret policies, delete</text><text fill="#334155" font-family="Helvetica" font-size="14" lengthAdjust="spacing" textLength="200.0332" x="709.3009" y="1935.2803">handling, and open formal gaps.</text><text fill="#334155" font-family="Helvetica" font-size="14" lengthAdjust="spacing" textLength="281.709" x="709.3009" y="1949.2803">archetype batch: Generated service-manager</text><text fill="#334155" font-family="Helvetica" font-size="14" lengthAdjust="spacing" textLength="291.0469" x="709.3009" y="1963.2803">controllers specialize the shared reconcile path</text><text fill="#334155" font-family="Helvetica" font-size="14" lengthAdjust="spacing" textLength="189.8477" x="709.3009" y="1977.2803">with formal runtime ownership.</text><text fill="#334155" font-family="Helvetica" font-size="14" lengthAdjust="spacing" textLength="174.3164" x="709.3009" y="1991.2803">service: fleetsoftwareupdate</text><text fill="#334155" font-family="Helvetica" font-size="14" lengthAdjust="spacing" textLength="278.6055" x="709.3009" y="2005.2803">slug: fleetsoftwareupdatefsureadinesschecks</text><text fill="#334155" font-family="Helvetica" font-size="14" lengthAdjust="spacing" textLength="301.1504" x="709.3009" y="2019.2803">kind: FleetSoftwareUpdateFsuReadinessChecks</text><text fill="#334155" font-family="Helvetica" font-size="14" lengthAdjust="spacing" textLength="241.2402" x="709.3009" y="2033.2803">archetype: generated-service-manager</text><text fill="#334155" font-family="Helvetica" font-size="14" lengthAdjust="spacing" textLength="156.4063" x="709.3009" y="2047.2803">status/finalizer: required /</text><text fill="#334155" font-family="Helvetica" font-size="14" lengthAdjust="spacing" textLength="174.3027" x="709.3009" y="2061.2803">retain-until-confirmed-delete</text><text fill="#334155" font-family="Helvetica" font-size="14" lengthAdjust="spacing" textLength="272.3984" x="709.3009" y="2075.2803">requeue: provisioning, updating, terminating</text><text fill="#334155" font-family="Helvetica" font-size="14" lengthAdjust="spacing" textLength="295.6816" x="709.3009" y="2089.2803">provider states: create PROVISIONING; update</text><text fill="#334155" font-family="Helvetica" font-size="14" lengthAdjust="spacing" textLength="192.165" x="709.3009" y="2103.2803">UPDATING; delete DELETING</text><text fill="#334155" font-family="Helvetica" font-size="14" lengthAdjust="spacing" textLength="183.6611" x="709.3009" y="2117.2803">supported drift: display_name</text><text fill="#334155" font-family="Helvetica" font-size="14" lengthAdjust="spacing" textLength="230.3301" x="709.3009" y="2131.2803">reject before mutate: force-new fields</text><text fill="#334155" font-family="Helvetica" font-size="14" lengthAdjust="spacing" textLength="100.3789" x="709.3009" y="2145.2803">compartment_id</text><text fill="#334155" font-family="Helvetica" font-size="14" lengthAdjust="spacing" textLength="66.1445" x="709.3009" y="2159.2803">list lookup:</text><text fill="#334155" font-family="Helvetica" font-size="14" lengthAdjust="spacing" textLength="431.1563" x="709.3009" y="2173.2803">scaffold_fleetsoftwareupdate_fleetsoftwareupdatefsureadinesschecks</text><text fill="#334155" font-family="Helvetica" font-size="14" lengthAdjust="spacing" textLength="175.8477" x="709.3009" y="2187.2803">filters compartment_id, state</text><text fill="#334155" font-family="Helvetica" font-size="14" lengthAdjust="spacing" textLength="89.4961" x="709.3009" y="2201.2803">conflicts: none</text><text fill="#334155" font-family="Helvetica" font-size="14" lengthAdjust="spacing" textLength="104.3164" x="709.3009" y="2215.2803">open gaps: none</text><text fill="#334155" font-family="Helvetica" font-size="14" lengthAdjust="spacing" textLength="224.9023" x="709.3009" y="2229.2803">Scaffold metadata only; replace with</text><text fill="#334155" font-family="Helvetica" font-size="14" lengthAdjust="spacing" textLength="244.3232" x="709.3009" y="2243.2803">controller-specific runtime states before</text><text fill="#334155" font-family="Helvetica" font-size="14" lengthAdjust="spacing" textLength="66.1445" x="709.3009" y="2257.2803">promotion.</text><ellipse cx="672.3009" cy="2043.5" fill="none" rx="11" ry="11" style="stroke:#222222;stroke-width:1;"/><ellipse cx="672.3009" cy="2043.5" fill="#222222" rx="6" ry="6" style="stroke:#222222;stroke-width:1;"/><line style="stroke:#0F172A;stroke-width:1;" x1="672.3009" x2="672.3009" y1="157" y2="177"/><polygon fill="#0F172A" points="668.3009,167,672.3009,177,676.3009,167,672.3009,171" style="stroke:#0F172A;stroke-width:1;"/><line style="stroke:#0F172A;stroke-width:1;" x1="842.2916" x2="842.2916" y1="355" y2="375"/><polygon fill="#0F172A" points="838.2916,365,842.2916,375,846.2916,365,842.2916,369" style="stroke:#0F172A;stroke-width:1;"/><line style="stroke:#0F172A;stroke-width:1;" x1="842.2916" x2="842.2916" y1="437" y2="457"/><polygon fill="#0F172A" points="838.2916,447,842.2916,457,846.2916,447,842.2916,451" style="stroke:#0F172A;stroke-width:1;"/><line style="stroke:#0F172A;stroke-width:1;" x1="530.8351" x2="502.3102" y1="271" y2="271"/><line style="stroke:#0F172A;stroke-width:1;" x1="502.3102" x2="502.3102" y1="271" y2="293"/><polygon fill="#0F172A" points="498.3102,283,502.3102,293,506.3102,283,502.3102,287" style="stroke:#0F172A;stroke-width:1;"/><line style="stroke:#0F172A;stroke-width:1;" x1="813.7667" x2="842.2916" y1="271" y2="271"/><line style="stroke:#0F172A;stroke-width:1;" x1="842.2916" x2="842.2916" y1="271" y2="293"/><polygon fill="#0F172A" points="838.2916,283,842.2916,293,846.2916,283,842.2916,287" style="stroke:#0F172A;stroke-width:1;"/><line style="stroke:#0F172A;stroke-width:1;" x1="502.3102" x2="502.3102" y1="341" y2="523"/><line style="stroke:#0F172A;stroke-width:1;" x1="502.3102" x2="660.3009" y1="523" y2="523"/><polygon fill="#0F172A" points="650.3009,519,660.3009,523,650.3009,527,654.3009,523" style="stroke:#0F172A;stroke-width:1;"/><line style="stroke:#0F172A;stroke-width:1;" x1="842.2916" x2="842.2916" y1="505" y2="523"/><line style="stroke:#0F172A;stroke-width:1;" x1="842.2916" x2="684.3009" y1="523" y2="523"/><polygon fill="#0F172A" points="694.3009,519,684.3009,523,694.3009,527,690.3009,523" style="stroke:#0F172A;stroke-width:1;"/><line style="stroke:#0F172A;stroke-width:1;" x1="672.3009" x2="672.3009" y1="239" y2="259"/><polygon fill="#0F172A" points="668.3009,249,672.3009,259,676.3009,249,672.3009,253" style="stroke:#0F172A;stroke-width:1;"/><line style="stroke:#0F172A;stroke-width:1;" x1="672.3009" x2="672.3009" y1="65" y2="109"/><polygon fill="#0F172A" points="668.3009,99,672.3009,109,676.3009,99,672.3009,103" style="stroke:#0F172A;stroke-width:1;"/><line style="stroke:#0F172A;stroke-width:1;" x1="339.7441" x2="339.7441" y1="739" y2="766"/><polygon fill="#0F172A" points="335.7441,756,339.7441,766,343.7441,756,339.7441,760" style="stroke:#0F172A;stroke-width:1;"/><line style="stroke:#0F172A;stroke-width:1;" x1="179.5718" x2="169.5718" y1="889" y2="889"/><line style="stroke:#0F172A;stroke-width:1;" x1="169.5718" x2="169.5718" y1="889" y2="911"/><polygon fill="#0F172A" points="165.5718,901,169.5718,911,173.5718,901,169.5718,905" style="stroke:#0F172A;stroke-width:1;"/><line style="stroke:#0F172A;stroke-width:1;" x1="499.9165" x2="509.9165" y1="889" y2="889"/><line style="stroke:#0F172A;stroke-width:1;" x1="509.9165" x2="509.9165" y1="889" y2="911"/><polygon fill="#0F172A" points="505.9165,901,509.9165,911,513.9165,901,509.9165,905" style="stroke:#0F172A;stroke-width:1;"/><line style="stroke:#0F172A;stroke-width:1;" x1="169.5718" x2="169.5718" y1="945" y2="977"/><line style="stroke:#0F172A;stroke-width:1;" x1="169.5718" x2="327.7441" y1="977" y2="977"/><polygon fill="#0F172A" points="317.7441,973,327.7441,977,317.7441,981,321.7441,977" style="stroke:#0F172A;stroke-width:1;"/><line style="stroke:#0F172A;stroke-width:1;" x1="509.9165" x2="509.9165" y1="959" y2="977"/><line style="stroke:#0F172A;stroke-width:1;" x1="509.9165" x2="351.7441" y1="977" y2="977"/><polygon fill="#0F172A" points="361.7441,973,351.7441,977,361.7441,981,357.7441,977" style="stroke:#0F172A;stroke-width:1;"/><line style="stroke:#0F172A;stroke-width:1;" x1="339.7441" x2="339.7441" y1="842" y2="877"/><polygon fill="#0F172A" points="335.7441,867,339.7441,877,343.7441,867,339.7441,871" style="stroke:#0F172A;stroke-width:1;"/><line style="stroke:#0F172A;stroke-width:1;" x1="339.7441" x2="339.7441" y1="989" y2="1043"/><polygon fill="#0F172A" points="335.7441,1033,339.7441,1043,343.7441,1033,339.7441,1037" style="stroke:#0F172A;stroke-width:1;"/><line style="stroke:#0F172A;stroke-width:1;" x1="1004.8577" x2="1004.8577" y1="732" y2="759"/><polygon fill="#0F172A" points="1000.8577,749,1004.8577,759,1008.8577,749,1004.8577,753" style="stroke:#0F172A;stroke-width:1;"/><line style="stroke:#0F172A;stroke-width:1;" x1="1004.8577" x2="1004.8577" y1="659" y2="684"/><polygon fill="#0F172A" points="1000.8577,674,1004.8577,684,1008.8577,674,1004.8577,678" style="stroke:#0F172A;stroke-width:1;"/><line style="stroke:#0F172A;stroke-width:1;" x1="1103.1409" x2="1155.1541" y1="647" y2="647"/><polygon fill="#0F172A" points="1151.1541,723.5,1155.1541,733.5,1159.1541,723.5,1155.1541,727.5" style="stroke:#0F172A;stroke-width:1;"/><line style="stroke:#0F172A;stroke-width:1;" x1="1155.1541" x2="1155.1541" y1="647" y2="812"/><line style="stroke:#0F172A;stroke-width:1;" x1="1155.1541" x2="1004.8577" y1="812" y2="812"/><line style="stroke:#0F172A;stroke-width:1;" x1="1004.8577" x2="1004.8577" y1="812" y2="847"/><polygon fill="#0F172A" points="1000.8577,837,1004.8577,847,1008.8577,837,1004.8577,841" style="stroke:#0F172A;stroke-width:1;"/><line style="stroke:#0F172A;stroke-width:1;" x1="1004.8577" x2="1004.8577" y1="944" y2="979"/><polygon fill="#0F172A" points="1000.8577,969,1004.8577,979,1008.8577,969,1004.8577,973" style="stroke:#0F172A;stroke-width:1;"/><line style="stroke:#0F172A;stroke-width:1;" x1="1004.8577" x2="1004.8577" y1="871" y2="896"/><polygon fill="#0F172A" points="1000.8577,886,1004.8577,896,1008.8577,886,1004.8577,890" style="stroke:#0F172A;stroke-width:1;"/><line style="stroke:#0F172A;stroke-width:1;" x1="1137.3787" x2="1161.8157" y1="859" y2="859"/><polygon fill="#0F172A" points="1157.8157,935.5,1161.8157,945.5,1165.8157,935.5,1161.8157,939.5" style="stroke:#0F172A;stroke-width:1;"/><line style="stroke:#0F172A;stroke-width:1;" x1="1161.8157" x2="1161.8157" y1="859" y2="1031"/><line style="stroke:#0F172A;stroke-width:1;" x1="1161.8157" x2="1004.8577" y1="1031" y2="1031"/><line style="stroke:#0F172A;stroke-width:1;" x1="1004.8577" x2="1004.8577" y1="1031" y2="1109"/><polygon fill="#0F172A" points="1000.8577,1099,1004.8577,1109,1008.8577,1099,1004.8577,1103" style="stroke:#0F172A;stroke-width:1;"/><line style="stroke:#0F172A;stroke-width:1;" x1="1004.8577" x2="1004.8577" y1="1274" y2="1295.5"/><polygon fill="#0F172A" points="1000.8577,1285.5,1004.8577,1295.5,1008.8577,1285.5,1004.8577,1289.5" style="stroke:#0F172A;stroke-width:1;"/><line style="stroke:#0F172A;stroke-width:1;" x1="1004.8577" x2="1004.8577" y1="1201" y2="1226"/><polygon fill="#0F172A" points="1000.8577,1216,1004.8577,1226,1008.8577,1216,1004.8577,1220" style="stroke:#0F172A;stroke-width:1;"/><line style="stroke:#0F172A;stroke-width:1;" x1="1142.4407" x2="1166.0813" y1="1189" y2="1189"/><polygon fill="#0F172A" points="1162.0813,1265.5,1166.0813,1275.5,1170.0813,1265.5,1166.0813,1269.5" style="stroke:#0F172A;stroke-width:1;"/><line style="stroke:#0F172A;stroke-width:1;" x1="1166.0813" x2="1166.0813" y1="1189" y2="1339.5"/><line style="stroke:#0F172A;stroke-width:1;" x1="1166.0813" x2="1004.8577" y1="1339.5" y2="1339.5"/><line style="stroke:#0F172A;stroke-width:1;" x1="1004.8577" x2="1004.8577" y1="1339.5" y2="1359.5"/><polygon fill="#0F172A" points="1000.8577,1349.5,1004.8577,1359.5,1008.8577,1349.5,1004.8577,1353.5" style="stroke:#0F172A;stroke-width:1;"/><line style="stroke:#0F172A;stroke-width:1;" x1="1004.8577" x2="1004.8577" y1="1157" y2="1177"/><polygon fill="#0F172A" points="1000.8577,1167,1004.8577,1177,1008.8577,1167,1004.8577,1171" style="stroke:#0F172A;stroke-width:1;"/><line style="stroke:#0F172A;stroke-width:1;" x1="882.4299" x2="861.8979" y1="1371.5" y2="1371.5"/><line style="stroke:#0F172A;stroke-width:1;" x1="861.8979" x2="861.8979" y1="1371.5" y2="1393.5"/><polygon fill="#0F172A" points="857.8979,1383.5,861.8979,1393.5,865.8979,1383.5,861.8979,1387.5" style="stroke:#0F172A;stroke-width:1;"/><line style="stroke:#0F172A;stroke-width:1;" x1="1127.2854" x2="1147.8174" y1="1371.5" y2="1371.5"/><line style="stroke:#0F172A;stroke-width:1;" x1="1147.8174" x2="1147.8174" y1="1371.5" y2="1393.5"/><polygon fill="#0F172A" points="1143.8174,1383.5,1147.8174,1393.5,1151.8174,1383.5,1147.8174,1387.5" style="stroke:#0F172A;stroke-width:1;"/><line style="stroke:#0F172A;stroke-width:1;" x1="861.8979" x2="861.8979" y1="1455.5" y2="1473.5"/><line style="stroke:#0F172A;stroke-width:1;" x1="861.8979" x2="992.8577" y1="1473.5" y2="1473.5"/><polygon fill="#0F172A" points="982.8577,1469.5,992.8577,1473.5,982.8577,1477.5,986.8577,1473.5" style="stroke:#0F172A;stroke-width:1;"/><line style="stroke:#0F172A;stroke-width:1;" x1="1147.8174" x2="1147.8174" y1="1427.5" y2="1473.5"/><line style="stroke:#0F172A;stroke-width:1;" x1="1147.8174" x2="1016.8577" y1="1473.5" y2="1473.5"/><polygon fill="#0F172A" points="1026.8577,1469.5,1016.8577,1473.5,1026.8577,1477.5,1022.8577,1473.5" style="stroke:#0F172A;stroke-width:1;"/><line style="stroke:#0F172A;stroke-width:1;" x1="1004.8577" x2="1004.8577" y1="1485.5" y2="1505.5"/><polygon fill="#0F172A" points="1000.8577,1495.5,1004.8577,1505.5,1008.8577,1495.5,1004.8577,1499.5" style="stroke:#0F172A;stroke-width:1;"/><line style="stroke:#0F172A;stroke-width:1;" x1="1004.8577" x2="1004.8577" y1="1623.5" y2="1643.5"/><polygon fill="#0F172A" points="1000.8577,1633.5,1004.8577,1643.5,1008.8577,1633.5,1004.8577,1637.5" style="stroke:#0F172A;stroke-width:1;"/><line style="stroke:#0F172A;stroke-width:1;" x1="1004.8577" x2="1004.8577" y1="1677.5" y2="1697.5"/><polygon fill="#0F172A" points="1000.8577,1687.5,1004.8577,1697.5,1008.8577,1687.5,1004.8577,1691.5" style="stroke:#0F172A;stroke-width:1;"/><line style="stroke:#0F172A;stroke-width:1;" x1="1004.8577" x2="1004.8577" y1="1745.5" y2="1765.5"/><polygon fill="#0F172A" points="1000.8577,1755.5,1004.8577,1765.5,1008.8577,1755.5,1004.8577,1759.5" style="stroke:#0F172A;stroke-width:1;"/><line style="stroke:#0F172A;stroke-width:1;" x1="598.1246" x2="339.7441" y1="579" y2="579"/><line style="stroke:#0F172A;stroke-width:1;" x1="339.7441" x2="339.7441" y1="579" y2="635"/><polygon fill="#0F172A" points="335.7441,625,339.7441,635,343.7441,625,339.7441,629" style="stroke:#0F172A;stroke-width:1;"/><line style="stroke:#0F172A;stroke-width:1;" x1="746.4772" x2="1004.8577" y1="579" y2="579"/><line style="stroke:#0F172A;stroke-width:1;" x1="1004.8577" x2="1004.8577" y1="579" y2="635"/><polygon fill="#0F172A" points="1000.8577,625,1004.8577,635,1008.8577,625,1004.8577,629" style="stroke:#0F172A;stroke-width:1;"/><line style="stroke:#0F172A;stroke-width:1;" x1="1004.8577" x2="1004.8577" y1="1799.5" y2="1816.5"/><line style="stroke:#0F172A;stroke-width:1;" x1="1004.8577" x2="672.3009" y1="1816.5" y2="1816.5"/><line style="stroke:#0F172A;stroke-width:1;" x1="672.3009" x2="672.3009" y1="1816.5" y2="2032.5"/><polygon fill="#0F172A" points="668.3009,2022.5,672.3009,2032.5,676.3009,2022.5,672.3009,2026.5" style="stroke:#0F172A;stroke-width:1;"/><line style="stroke:#0F172A;stroke-width:1;" x1="672.3009" x2="672.3009" y1="535" y2="567"/><polygon fill="#0F172A" points="668.3009,557,672.3009,567,676.3009,557,672.3009,561" style="stroke:#0F172A;stroke-width:1;"/><?plantuml-src jLVRRjiu47tNLn3PbnQ8awPDBskZMAHEqWOecY19snS30IsDR6ueKajIzdeN_VSzl4YM7QDm7nP5K8iS3MVEd3aSsKUXQcvunUoS5tefr8oLN5hARBSpvVdZpEX65MCjjM6_bJd-5JsBWahUI7UfbVl2AsAVI2x8YPpljhaJ_n0xEUrjScFqCdb_KPwyVTb_Ksb77vx4K9PlYpVRLjeKP9B5zFJrgnU_RrduuzF-grUd9wzVz_Q3-rmRHOQTlCcSS9BOMUx4GhWL6x1I4ZchIxVaXfgwu8wEB_tQNLhx6jOkRNDBl12Ah1tFAN-q_KHRT_zcR0UmxqfUvdwddqW2XB5o7NotLWXUQLKymOTUqhloHS-Wx_6aEANYtNhpSeTZwxXns_RK-U_ifdpBwuyil9eXOK0ej687rrDBPa6Cgu9z4AeuGFh3Es_5IgC3zmmL05Wl9oe-72Eq6H2pn_5vO2ZNAXUI1Ys6HtOn6sL33pROPGMi9cglWZ1RKtuuKSu0DXoCW5rZ3qDy1Kbon8HofDme4oLxTd2Vx90b_LrBaGl7hiTNJ1ImyTMi3Ldy_EFWENDpKkpPYkppRFYHd7zcUMCCjiCxiDIDoOaj19yeMEmLyIWZD2LxflHpdx7LCi29S8HrlcatNBivg32RJzHdxExbVw8Q6tfVI4V6ibnNlduLeduGnM50Y03ss11-XAIU9XCtzpnlwN5I6YuQowVej8gxVCw41Sr1OvnrWq0GVpZCn9H32V9mJB5HWOb2mNGg9C1IXIZ1n52zyrXHGtyrPF7YLfLwF8sMWPtffPgxEMii8U2uiczs0k_v4pqhVwtKIF4N2iUSHcWNdo_kByvHDLKA0o2HZIzMV8oKzWd-Zt60G2Y4JApW-PmiIs6DDigGI-AggKElbK9nYSl0u1KiW-2soNDwKY8mljABIBlrExm4LTj-zOIDMMwq2aHcnQPIX_QD4RO1W4cThudQ2g378UjqtNFPeyjdKLA-WZysbjnQKUB6ypkUG25b3qRe7CW9KdHc5PXkoJrDC90pahGXjfn3wHAO5HVAmiD4tTnUVxkwkxh-SlNbuo7xUdD-TXz-1Q3nQvI23P5lHu22DiwYOMAE5jJXPeORxMaihZ7AgqkZacdPIDO9i6z6tEGHpedgL_niV7_rxM8ZZ1zzn3nfLg7qvqQKZdt2JmdT2Iqt3ff3J8f5J3q6pcS-_oW3eggrSLxdIq4ImjsOakUK67Qf8KK3HSkW4Y0_b3g8On4EAy2JtEqYrvzOJqPJAhM9nrUD2-M481d_5tsdexSbyYdqTqqTWmsEVDr_7iPPNKleM6gm_NfEAxaAuRL7fDWAOMl9LmyAqzXcFpoAEY2fz43NwnIzphMK7zusM31w0QuODYTP-_-qzWT6xNtlobRvZwBetwP7VwckzxvpWO7FVDVcCH7yEtJn0iEUQIi_KL70tpj20uTwvpwYz-FRYpCl7X2Ma7x_p0X8UoPCeWZqJQBQj2Oit3R8UwB2DHElEa0rG4qM5FF7PKfvuyYEkXveEyL3x56B_EwMsrlnnkX0eKxmupsqfN6r1XzNNceS63q8xJD8aeq19-OmIbe03T2f2XPm8E135e08lo1y5VpwXn4wBDOj4D0FkSo8sTnbQQfAWzGm-wN1AkkDPpxpv6mj0jqaYoGpFq-9a6P7dC4qpapZsw_dXsm99Xn6qm3De8wGUUuL7WzfmJH3HnakBMUqbF00sUPoVL0REED5aKbSJ33GZr1obDDXUhC4The8io0iH4IpUQ9QdEzqJQ6ZAxYUyTeUPTn0kzog9ioouCQGVIHy0eGHmu-j0drVSSLdPBAy2oxEa2dddG1vIcLX3aYd6LznV1tf9TpRkQYFikH_kElR8hEocUtSAI5xhHBayGi37nZ5aEttDTBbEsIpDjF1TgQnJCSTUuThSXzdFsLmbkwmuJxipJgT2RraXscwO_shRiGI8ksDDsfl_VRYosmdja5aXniAY8X2UoPj3wBdCU-kYwYQsQQY1ugnI34qJyxBKilYOKSz7lQhqKzdwwozhm01P9som5DFqFHybm9W5S372PnvyH-XBCZJAnoOrkFd8D0J4qb7kmXm0i7ZNcdVVaTUFSAtyNy0?></g></svg>