<?plantuml 1.2026.1?><svg xmlns="http://www.w3.org/2000/svg" xmlns:xlink="http://www.w3.org/1999/xlink" contentStyleType="text/css" data-diagram-type="ACTIVITY" height="2229px" preserveAspectRatio="none" style="width:1263px;height:2229px;background:#FCFCFD;" version="1.1" viewBox="0 0 1263 2229" width="1263px" zoomAndPan="magnify"><title>Activity - database/ExternalContainerDatabase</title><defs/><g><rect fill="#FCFCFD" height="2229" style="stroke:none;stroke-width:1;" width="1263" x="0" y="0"/><g class="title" data-source-line="10"><text fill="#000000" font-family="Helvetica" font-size="14" font-weight="bold" lengthAdjust="spacing" textLength="310.4404" x="474.9468" y="30.7803">Activity - database/ExternalContainerDatabase</text></g><ellipse cx="669.681" cy="55" fill="#1D4ED8" rx="10" ry="10" style="stroke:#222222;stroke-width:1;"/><rect fill="none" height="458" rx="8" ry="8" style="stroke:#000000;stroke-width:1.5;" width="599.4995" x="387.0638" y="75"/><path d="M509.1322,75 L509.1322,82 L499.1322,92 L387.0638,92" fill="none" style="stroke:#000000;stroke-width:1.5;"/><text fill="#000000" font-family="Helvetica" font-size="14" lengthAdjust="spacing" textLength="112.0684" x="390.0638" y="86.7803">Observe and Bind</text><rect fill="#F8FAFC" height="48" rx="8" ry="8" style="stroke:#0F172A;stroke-width:0.5;" width="304.7852" x="517.2885" y="109"/><text fill="#0F172A" font-family="Helvetica" font-size="14" lengthAdjust="spacing" textLength="136.9375" x="527.2885" y="129.7803">Start from shared flow</text><text fill="#0F172A" font-family="Helvetica" font-size="14" lengthAdjust="spacing" textLength="284.7852" x="527.2885" y="143.7803">shared/diagrams/shared-reconcile-activity.svg</text><rect fill="#F8FAFC" height="48" rx="8" ry="8" style="stroke:#0F172A;stroke-width:0.5;" width="316.5088" x="511.4266" y="177"/><text fill="#0F172A" font-family="Helvetica" font-size="14" lengthAdjust="spacing" textLength="296.5088" x="521.4266" y="197.7803">Read desired ExternalContainerDatabase spec,</text><text fill="#0F172A" font-family="Helvetica" font-size="14" lengthAdjust="spacing" textLength="198.4609" x="521.4266" y="211.7803">tracked status, and delete intent</text><polygon fill="#E2E8F0" points="540.2152,245,799.1469,245,811.1469,257,799.1469,269,540.2152,269,528.2152,257,540.2152,245" style="stroke:#1D4ED8;stroke-width:0.5;"/><text fill="#0F172A" font-family="Helvetica" font-size="14" lengthAdjust="spacing" textLength="258.9316" x="540.2152" y="260.7803">"Tracked or explicit OCI identity present?"</text><text fill="#000000" font-family="Helvetica" font-size="14" lengthAdjust="spacing" textLength="21.7861" x="506.4291" y="253.7803">yes</text><text fill="#000000" font-family="Helvetica" font-size="14" lengthAdjust="spacing" textLength="15.5723" x="811.1469" y="253.7803">no</text><rect fill="#F8FAFC" height="48" rx="8" ry="8" style="stroke:#0F172A;stroke-width:0.5;" width="222.3027" x="407.0638" y="279"/><text fill="#0F172A" font-family="Helvetica" font-size="14" lengthAdjust="spacing" textLength="202.3027" x="417.0638" y="299.7803">Get the current OCI resource via</text><text fill="#0F172A" font-family="Helvetica" font-size="14" lengthAdjust="spacing" textLength="194.5576" x="417.0638" y="313.7803">GetExternalContainerDatabase</text><rect fill="#F8FAFC" height="62" rx="8" ry="8" style="stroke:#0F172A;stroke-width:0.5;" width="288.4746" x="676.9095" y="279"/><text fill="#0F172A" font-family="Helvetica" font-size="14" lengthAdjust="spacing" textLength="259.9092" x="686.9095" y="299.7803">Resolve an existing OCI resource through</text><text fill="#0F172A" font-family="Helvetica" font-size="14" lengthAdjust="spacing" textLength="268.4746" x="686.9095" y="313.7803">ListExternalContainerDatabase using filters</text><text fill="#0F172A" font-family="Helvetica" font-size="14" lengthAdjust="spacing" textLength="138.5098" x="686.9095" y="327.7803">compartment_id, state</text><rect fill="#F8FAFC" height="62" rx="8" ry="8" style="stroke:#0F172A;stroke-width:0.5;" width="290.833" x="675.7303" y="361"/><text fill="#0F172A" font-family="Helvetica" font-size="14" lengthAdjust="spacing" textLength="174.2959" x="685.7303" y="381.7803">Create the OCI resource via</text><text fill="#0F172A" font-family="Helvetica" font-size="14" lengthAdjust="spacing" textLength="270.833" x="685.7303" y="395.7803">CreateExternalContainerDatabase when no</text><text fill="#0F172A" font-family="Helvetica" font-size="14" lengthAdjust="spacing" textLength="148.6406" x="685.7303" y="409.7803">reusable match is found</text><rect fill="#F8FAFC" height="48" rx="8" ry="8" style="stroke:#0F172A;stroke-width:0.5;" width="286.8955" x="677.6991" y="443"/><text fill="#0F172A" font-family="Helvetica" font-size="14" lengthAdjust="spacing" textLength="266.8955" x="687.6991" y="463.7803">Persist the resolved or created OCI identity</text><text fill="#0F172A" font-family="Helvetica" font-size="14" lengthAdjust="spacing" textLength="63.8135" x="687.6991" y="477.7803">into status</text><polygon fill="#E2E8F0" points="669.681,497,681.681,509,669.681,521,657.681,509,669.681,497" style="stroke:#1D4ED8;stroke-width:0.5;"/><polygon fill="#E2E8F0" points="607.5048,553,731.8573,553,743.8573,565,731.8573,577,607.5048,577,595.5048,565,607.5048,553" style="stroke:#1D4ED8;stroke-width:0.5;"/><text fill="#0F172A" font-family="Helvetica" font-size="14" lengthAdjust="spacing" textLength="124.3525" x="607.5048" y="568.7803">"Delete requested?"</text><text fill="#000000" font-family="Helvetica" font-size="14" lengthAdjust="spacing" textLength="21.7861" x="573.7186" y="561.7803">yes</text><text fill="#000000" font-family="Helvetica" font-size="14" lengthAdjust="spacing" textLength="15.5723" x="743.8573" y="561.7803">no</text><rect fill="none" height="395.5" rx="8" ry="8" style="stroke:#000000;stroke-width:1.5;" width="644.4814" x="11" y="587"/><path d="M61.4688,587 L61.4688,594 L51.4688,604 L11,604" fill="none" style="stroke:#000000;stroke-width:1.5;"/><text fill="#000000" font-family="Helvetica" font-size="14" lengthAdjust="spacing" textLength="40.4688" x="14" y="598.7803">Delete</text><rect fill="#F8FAFC" height="90" rx="8" ry="8" style="stroke:#0F172A;stroke-width:0.5;" width="316.502" x="181.4932" y="621"/><text fill="#0F172A" font-family="Helvetica" font-size="14" lengthAdjust="spacing" textLength="105.0684" x="191.4932" y="641.7803">Delete path uses</text><text fill="#0F172A" font-family="Helvetica" font-size="14" lengthAdjust="spacing" textLength="296.502" x="191.4932" y="655.7803">DeleteExternalContainerDatabase with required</text><text fill="#0F172A" font-family="Helvetica" font-size="14" lengthAdjust="spacing" textLength="232.6816" x="191.4932" y="669.7803">via GetExternalContainerDatabase or</text><text fill="#0F172A" font-family="Helvetica" font-size="14" lengthAdjust="spacing" textLength="277.8057" x="191.4932" y="683.7803">ListExternalContainerDatabase to DELETED</text><text fill="#0F172A" font-family="Helvetica" font-size="14" lengthAdjust="spacing" textLength="76.2549" x="191.4932" y="697.7803">confirmation</text><rect fill="#F8FAFC" height="76" rx="8" ry="8" style="stroke:#0F172A;stroke-width:0.5;" width="272.1299" x="203.6792" y="739.5"/><text fill="#0F172A" font-family="Helvetica" font-size="14" lengthAdjust="spacing" textLength="123.7236" x="213.6792" y="760.2803">Confirm deletion via</text><text fill="#0F172A" font-family="Helvetica" font-size="14" lengthAdjust="spacing" textLength="210.8955" x="213.6792" y="774.2803">GetExternalContainerDatabase or</text><text fill="#0F172A" font-family="Helvetica" font-size="14" lengthAdjust="spacing" textLength="252.1299" x="213.6792" y="788.2803">ListExternalContainerDatabase until OCI</text><text fill="#0F172A" font-family="Helvetica" font-size="14" lengthAdjust="spacing" textLength="118.2686" x="213.6792" y="802.2803">reaches DELETED</text><polygon fill="#E2E8F0" points="191.5718,850.5,487.9165,850.5,499.9165,862.5,487.9165,874.5,191.5718,874.5,179.5718,862.5,191.5718,850.5" style="stroke:#1D4ED8;stroke-width:0.5;"/><text fill="#0F172A" font-family="Helvetica" font-size="14" lengthAdjust="spacing" textLength="296.3447" x="191.5718" y="866.2803">"Delete cleanup and finalizer release succeed?"</text><text fill="#000000" font-family="Helvetica" font-size="14" lengthAdjust="spacing" textLength="21.7861" x="157.7856" y="859.2803">yes</text><text fill="#000000" font-family="Helvetica" font-size="14" lengthAdjust="spacing" textLength="15.5723" x="499.9165" y="859.2803">no</text><rect fill="#F8FAFC" height="34" rx="8" ry="8" style="stroke:#0F172A;stroke-width:0.5;" width="293.1436" x="23" y="884.5"/><text fill="#0F172A" font-family="Helvetica" font-size="14" lengthAdjust="spacing" textLength="273.1436" x="33" y="905.2803">Remove the finalizer after delete completion</text><rect fill="#F8FAFC" height="48" rx="8" ry="8" style="stroke:#0F172A;stroke-width:0.5;" width="251.1299" x="384.3516" y="884.5"/><text fill="#0F172A" font-family="Helvetica" font-size="14" lengthAdjust="spacing" textLength="231.1299" x="394.3516" y="905.2803">Stay blocked until cleanup or finalizer</text><text fill="#0F172A" font-family="Helvetica" font-size="14" lengthAdjust="spacing" textLength="108.9512" x="394.3516" y="919.2803">release succeeds</text><polygon fill="#E2E8F0" points="339.7441,938.5,351.7441,950.5,339.7441,962.5,327.7441,950.5,339.7441,938.5" style="stroke:#1D4ED8;stroke-width:0.5;"/><ellipse cx="339.7441" cy="1019.5" fill="none" rx="11" ry="11" style="stroke:#222222;stroke-width:1;"/><ellipse cx="339.7441" cy="1019.5" fill="#222222" rx="6" ry="6" style="stroke:#222222;stroke-width:1;"/><rect fill="none" height="443.5" rx="8" ry="8" style="stroke:#000000;stroke-width:1.5;" width="345.916" x="832.6599" y="587"/><path d="M983.4939,587 L983.4939,594 L973.4939,604 L832.6599,604" fill="none" style="stroke:#000000;stroke-width:1.5;"/><text fill="#000000" font-family="Helvetica" font-size="14" lengthAdjust="spacing" textLength="140.834" x="835.6599" y="598.7803">Lifecycle Classification</text><rect fill="#F8FAFC" height="48" rx="8" ry="8" style="stroke:#0F172A;stroke-width:0.5;" width="280.5928" x="859.3215" y="670"/><text fill="#0F172A" font-family="Helvetica" font-size="14" lengthAdjust="spacing" textLength="240.4541" x="869.3215" y="690.7803">Request requeue while OCI remains in</text><text fill="#0F172A" font-family="Helvetica" font-size="14" lengthAdjust="spacing" textLength="260.5928" x="869.3215" y="704.7803">PROVISIONING, UPDATING, DELETING</text><ellipse cx="999.6179" cy="757.5" fill="none" rx="11" ry="11" style="stroke:#222222;stroke-width:1;"/><ellipse cx="999.6179" cy="757.5" fill="#222222" rx="6" ry="6" style="stroke:#222222;stroke-width:1;"/><polygon fill="#E2E8F0" points="913.3347,621,1085.9011,621,1097.9011,633,1085.9011,645,913.3347,645,901.3347,633,913.3347,621" style="stroke:#1D4ED8;stroke-width:0.5;"/><text fill="#000000" font-family="Helvetica" font-size="14" lengthAdjust="spacing" textLength="21.7861" x="1003.6179" y="655.7803">yes</text><text fill="#0F172A" font-family="Helvetica" font-size="14" lengthAdjust="spacing" textLength="172.5664" x="913.3347" y="636.7803">"OCI state in retryable set?"</text><rect fill="#F8FAFC" height="48" rx="8" ry="8" style="stroke:#0F172A;stroke-width:0.5;" width="293.916" x="852.6599" y="883.5"/><text fill="#0F172A" font-family="Helvetica" font-size="14" lengthAdjust="spacing" textLength="273.916" x="862.6599" y="904.2803">Return an unsuccessful reconcile result until</text><text fill="#0F172A" font-family="Helvetica" font-size="14" lengthAdjust="spacing" textLength="133.041" x="862.6599" y="918.2803">OCI reaches ACTIVE</text><ellipse cx="999.6179" cy="977.5" fill="none" rx="11" ry="11" style="stroke:#222222;stroke-width:1;"/><ellipse cx="999.6179" cy="977.5" fill="#222222" rx="6" ry="6" style="stroke:#222222;stroke-width:1;"/><polygon fill="#E2E8F0" points="879.0969,834.5,1120.1389,834.5,1132.1389,846.5,1120.1389,858.5,879.0969,858.5,867.0969,846.5,879.0969,834.5" style="stroke:#1D4ED8;stroke-width:0.5;"/><text fill="#000000" font-family="Helvetica" font-size="14" lengthAdjust="spacing" textLength="21.7861" x="1003.6179" y="869.2803">yes</text><text fill="#0F172A" font-family="Helvetica" font-size="14" lengthAdjust="spacing" textLength="241.042" x="879.0969" y="850.2803">"OCI state is outside success targets?"</text><rect fill="none" height="722.5" rx="8" ry="8" style="stroke:#000000;stroke-width:1.5;" width="576.8525" x="675.4814" y="1040.5"/><path d="M841.9014,1040.5 L841.9014,1047.5 L831.9014,1057.5 L675.4814,1057.5" fill="none" style="stroke:#000000;stroke-width:1.5;"/><text fill="#000000" font-family="Helvetica" font-size="14" lengthAdjust="spacing" textLength="156.4199" x="678.4814" y="1052.2803">Ready and Drift Handling</text><rect fill="#F8FAFC" height="48" rx="8" ry="8" style="stroke:#0F172A;stroke-width:0.5;" width="296.2402" x="851.4978" y="1074.5"/><text fill="#0F172A" font-family="Helvetica" font-size="14" lengthAdjust="spacing" textLength="276.2402" x="861.4978" y="1095.2803">Compare live OCI state against the imported</text><text fill="#0F172A" font-family="Helvetica" font-size="14" lengthAdjust="spacing" textLength="75.4824" x="861.4978" y="1109.2803">field surface</text><rect fill="#F8FAFC" height="48" rx="8" ry="8" style="stroke:#0F172A;stroke-width:0.5;" width="302.4473" x="848.3943" y="1191.5"/><text fill="#0F172A" font-family="Helvetica" font-size="14" lengthAdjust="spacing" textLength="282.4473" x="858.3943" y="1212.2803">Reject drift before OCI mutation for force-new</text><text fill="#0F172A" font-family="Helvetica" font-size="14" lengthAdjust="spacing" textLength="136.9512" x="858.3943" y="1226.2803">fields compartment_id</text><ellipse cx="999.6179" cy="1272" fill="none" rx="11" ry="11" style="stroke:#222222;stroke-width:1;"/><ellipse cx="999.6179" cy="1272" fill="#222222" rx="6" ry="6" style="stroke:#222222;stroke-width:1;"/><polygon fill="#E2E8F0" points="874.0349,1142.5,1125.2009,1142.5,1137.2009,1154.5,1125.2009,1166.5,874.0349,1166.5,862.0349,1154.5,874.0349,1142.5" style="stroke:#1D4ED8;stroke-width:0.5;"/><text fill="#000000" font-family="Helvetica" font-size="14" lengthAdjust="spacing" textLength="21.7861" x="1003.6179" y="1177.2803">yes</text><text fill="#0F172A" font-family="Helvetica" font-size="14" lengthAdjust="spacing" textLength="251.166" x="874.0349" y="1158.2803">"Force-new or conflicting drift detected?"</text><polygon fill="#E2E8F0" points="889.1902,1325,1110.0457,1325,1122.0457,1337,1110.0457,1349,889.1902,1349,877.1902,1337,889.1902,1325" style="stroke:#1D4ED8;stroke-width:0.5;"/><text fill="#0F172A" font-family="Helvetica" font-size="14" lengthAdjust="spacing" textLength="220.8555" x="889.1902" y="1340.7803">"Supported mutable drift detected?"</text><text fill="#000000" font-family="Helvetica" font-size="14" lengthAdjust="spacing" textLength="21.7861" x="855.4041" y="1333.7803">yes</text><text fill="#000000" font-family="Helvetica" font-size="14" lengthAdjust="spacing" textLength="15.5723" x="1122.0457" y="1333.7803">no</text><rect fill="#F8FAFC" height="48" rx="8" ry="8" style="stroke:#0F172A;stroke-width:0.5;" width="325.8467" x="695.4814" y="1359"/><text fill="#0F172A" font-family="Helvetica" font-size="14" lengthAdjust="spacing" textLength="305.8467" x="705.4814" y="1379.7803">Apply UpdateExternalContainerDatabase only for</text><text fill="#0F172A" font-family="Helvetica" font-size="14" lengthAdjust="spacing" textLength="176.6543" x="705.4814" y="1393.7803">mutable fields display_name</text><rect fill="#F8FAFC" height="34" rx="8" ry="8" style="stroke:#0F172A;stroke-width:0.5;" width="199.0059" x="1041.3281" y="1359"/><text fill="#0F172A" font-family="Helvetica" font-size="14" lengthAdjust="spacing" textLength="179.0059" x="1051.3281" y="1379.7803">Skip the no-op mutation path</text><polygon fill="#E2E8F0" points="999.6179,1413,1011.6179,1425,999.6179,1437,987.6179,1425,999.6179,1413" style="stroke:#1D4ED8;stroke-width:0.5;"/><rect fill="#F8FAFC" height="118" rx="8" ry="8" style="stroke:#0F172A;stroke-width:0.5;" width="334.3164" x="832.4597" y="1457"/><text fill="#0F172A" font-family="Helvetica" font-size="14" lengthAdjust="spacing" textLength="164.2061" x="842.4597" y="1477.7803">Run provider helper hooks</text><text fill="#0F172A" font-family="Helvetica" font-size="14" lengthAdjust="spacing" textLength="219.0508" x="842.4597" y="1491.7803">create=tfresource.CreateResource,</text><text fill="#0F172A" font-family="Helvetica" font-size="14" lengthAdjust="spacing" textLength="314.3164" x="842.4597" y="1505.7803">tfresource.WaitForWorkRequestWithErrorHandling</text><text fill="#0F172A" font-family="Helvetica" font-size="14" lengthAdjust="spacing" textLength="215.5439" x="842.4597" y="1519.7803">entity=template action=CREATED;</text><text fill="#0F172A" font-family="Helvetica" font-size="14" lengthAdjust="spacing" textLength="226.085" x="842.4597" y="1533.7803">update=tfresource.UpdateResource;</text><text fill="#0F172A" font-family="Helvetica" font-size="14" lengthAdjust="spacing" textLength="273.5537" x="842.4597" y="1547.7803">delete=tfresource.DeleteResource when the</text><text fill="#0F172A" font-family="Helvetica" font-size="14" lengthAdjust="spacing" textLength="220.2334" x="842.4597" y="1561.7803">matching field-driven path executes</text><rect fill="#F8FAFC" height="34" rx="8" ry="8" style="stroke:#0F172A;stroke-width:0.5;" width="303.2197" x="848.0081" y="1595"/><text fill="#0F172A" font-family="Helvetica" font-size="14" lengthAdjust="spacing" textLength="283.2197" x="858.0081" y="1615.7803">Return success for the ACTIVE success state</text><rect fill="#F8FAFC" height="48" rx="8" ry="8" style="stroke:#0F172A;stroke-width:0.5;" width="279.1299" x="860.053" y="1649"/><text fill="#0F172A" font-family="Helvetica" font-size="14" lengthAdjust="spacing" textLength="259.1299" x="870.053" y="1669.7803">Project required status and finalizer policy</text><text fill="#0F172A" font-family="Helvetica" font-size="14" lengthAdjust="spacing" textLength="174.3027" x="870.053" y="1683.7803">retain-until-confirmed-delete</text><rect fill="#F8FAFC" height="34" rx="8" ry="8" style="stroke:#0F172A;stroke-width:0.5;" width="313.4189" x="842.9084" y="1717"/><text fill="#0F172A" font-family="Helvetica" font-size="14" lengthAdjust="spacing" textLength="293.4189" x="852.9084" y="1737.7803">Requeue on provisioning, updating, terminating</text><path d="M700.681,1773 L700.681,1991 L680.681,1995 L700.681,1999 L700.681,2217 A0,0 0 0 0 700.681,2217 L1017.3627,2217 A0,0 0 0 0 1017.3627,2217 L1017.3627,1783 L1007.3627,1773 L700.681,1773 A0,0 0 0 0 700.681,1773" fill="#FFF7D6" style="stroke:#B45309;stroke-width:0.5;"/><path d="M1007.3627,1773 L1007.3627,1783 L1017.3627,1783 L1007.3627,1773" fill="#FFF7D6" style="stroke:#B45309;stroke-width:0.5;"/><text fill="#334155" font-family="Helvetica" font-size="14" lengthAdjust="spacing" textLength="101.165" x="706.681" y="1788.7803">shared diagram:</text><text fill="#334155" font-family="Helvetica" font-size="14" lengthAdjust="spacing" textLength="284.7852" x="706.681" y="1802.7803">shared/diagrams/shared-reconcile-activity.svg</text><text fill="#334155" font-family="Helvetica" font-size="14" lengthAdjust="spacing" textLength="265.3438" x="706.681" y="1816.7803">Start from the shared reconcile activity and</text><text fill="#334155" font-family="Helvetica" font-size="14" lengthAdjust="spacing" textLength="273.8955" x="706.681" y="1830.7803">specialize provider-backed CRUD, wait, and</text><text fill="#334155" font-family="Helvetica" font-size="14" lengthAdjust="spacing" textLength="182.875" x="706.681" y="1844.7803">status-projection details here.</text><text fill="#334155" font-family="Helvetica" font-size="14" lengthAdjust="spacing" textLength="229.5371" x="706.681" y="1858.7803">Controller-local activity diagrams add</text><text fill="#334155" font-family="Helvetica" font-size="14" lengthAdjust="spacing" textLength="238.8955" x="706.681" y="1872.7803">list-lookup hints, secret policies, delete</text><text fill="#334155" font-family="Helvetica" font-size="14" lengthAdjust="spacing" textLength="200.0332" x="706.681" y="1886.7803">handling, and open formal gaps.</text><text fill="#334155" font-family="Helvetica" font-size="14" lengthAdjust="spacing" textLength="281.709" x="706.681" y="1900.7803">archetype batch: Generated service-manager</text><text fill="#334155" font-family="Helvetica" font-size="14" lengthAdjust="spacing" textLength="291.0469" x="706.681" y="1914.7803">controllers specialize the shared reconcile path</text><text fill="#334155" font-family="Helvetica" font-size="14" lengthAdjust="spacing" textLength="189.8477" x="706.681" y="1928.7803">with formal runtime ownership.</text><text fill="#334155" font-family="Helvetica" font-size="14" lengthAdjust="spacing" textLength="109.7305" x="706.681" y="1942.7803">service: database</text><text fill="#334155" font-family="Helvetica" font-size="14" lengthAdjust="spacing" textLength="198.4678" x="706.681" y="1956.7803">slug: externalcontainerdatabase</text><text fill="#334155" font-family="Helvetica" font-size="14" lengthAdjust="spacing" textLength="205.4541" x="706.681" y="1970.7803">kind: ExternalContainerDatabase</text><text fill="#334155" font-family="Helvetica" font-size="14" lengthAdjust="spacing" textLength="241.2402" x="706.681" y="1984.7803">archetype: generated-service-manager</text><text fill="#334155" font-family="Helvetica" font-size="14" lengthAdjust="spacing" textLength="156.4063" x="706.681" y="1998.7803">status/finalizer: required /</text><text fill="#334155" font-family="Helvetica" font-size="14" lengthAdjust="spacing" textLength="174.3027" x="706.681" y="2012.7803">retain-until-confirmed-delete</text><text fill="#334155" font-family="Helvetica" font-size="14" lengthAdjust="spacing" textLength="272.3984" x="706.681" y="2026.7803">requeue: provisioning, updating, terminating</text><text fill="#334155" font-family="Helvetica" font-size="14" lengthAdjust="spacing" textLength="295.6816" x="706.681" y="2040.7803">provider states: create PROVISIONING; update</text><text fill="#334155" font-family="Helvetica" font-size="14" lengthAdjust="spacing" textLength="192.165" x="706.681" y="2054.7803">UPDATING; delete DELETING</text><text fill="#334155" font-family="Helvetica" font-size="14" lengthAdjust="spacing" textLength="183.6611" x="706.681" y="2068.7803">supported drift: display_name</text><text fill="#334155" font-family="Helvetica" font-size="14" lengthAdjust="spacing" textLength="230.3301" x="706.681" y="2082.7803">reject before mutate: force-new fields</text><text fill="#334155" font-family="Helvetica" font-size="14" lengthAdjust="spacing" textLength="100.3789" x="706.681" y="2096.7803">compartment_id</text><text fill="#334155" font-family="Helvetica" font-size="14" lengthAdjust="spacing" textLength="66.1445" x="706.681" y="2110.7803">list lookup:</text><text fill="#334155" font-family="Helvetica" font-size="14" lengthAdjust="spacing" textLength="286.4326" x="706.681" y="2124.7803">scaffold_database_externalcontainerdatabase</text><text fill="#334155" font-family="Helvetica" font-size="14" lengthAdjust="spacing" textLength="175.8477" x="706.681" y="2138.7803">filters compartment_id, state</text><text fill="#334155" font-family="Helvetica" font-size="14" lengthAdjust="spacing" textLength="89.4961" x="706.681" y="2152.7803">conflicts: none</text><text fill="#334155" font-family="Helvetica" font-size="14" lengthAdjust="spacing" textLength="104.3164" x="706.681" y="2166.7803">open gaps: none</text><text fill="#334155" font-family="Helvetica" font-size="14" lengthAdjust="spacing" textLength="224.9023" x="706.681" y="2180.7803">Scaffold metadata only; replace with</text><text fill="#334155" font-family="Helvetica" font-size="14" lengthAdjust="spacing" textLength="244.3232" x="706.681" y="2194.7803">controller-specific runtime states before</text><text fill="#334155" font-family="Helvetica" font-size="14" lengthAdjust="spacing" textLength="66.1445" x="706.681" y="2208.7803">promotion.</text><ellipse cx="669.681" cy="1995" fill="none" rx="11" ry="11" style="stroke:#222222;stroke-width:1;"/><ellipse cx="669.681" cy="1995" fill="#222222" rx="6" ry="6" style="stroke:#222222;stroke-width:1;"/><line style="stroke:#0F172A;stroke-width:1;" x1="669.681" x2="669.681" y1="157" y2="177"/><polygon fill="#0F172A" points="665.681,167,669.681,177,673.681,167,669.681,171" style="stroke:#0F172A;stroke-width:1;"/><line style="stroke:#0F172A;stroke-width:1;" x1="821.1469" x2="821.1469" y1="341" y2="361"/><polygon fill="#0F172A" points="817.1469,351,821.1469,361,825.1469,351,821.1469,355" style="stroke:#0F172A;stroke-width:1;"/><line style="stroke:#0F172A;stroke-width:1;" x1="821.1469" x2="821.1469" y1="423" y2="443"/><polygon fill="#0F172A" points="817.1469,433,821.1469,443,825.1469,433,821.1469,437" style="stroke:#0F172A;stroke-width:1;"/><line style="stroke:#0F172A;stroke-width:1;" x1="528.2152" x2="518.2152" y1="257" y2="257"/><line style="stroke:#0F172A;stroke-width:1;" x1="518.2152" x2="518.2152" y1="257" y2="279"/><polygon fill="#0F172A" points="514.2152,269,518.2152,279,522.2152,269,518.2152,273" style="stroke:#0F172A;stroke-width:1;"/><line style="stroke:#0F172A;stroke-width:1;" x1="811.1469" x2="821.1469" y1="257" y2="257"/><line style="stroke:#0F172A;stroke-width:1;" x1="821.1469" x2="821.1469" y1="257" y2="279"/><polygon fill="#0F172A" points="817.1469,269,821.1469,279,825.1469,269,821.1469,273" style="stroke:#0F172A;stroke-width:1;"/><line style="stroke:#0F172A;stroke-width:1;" x1="518.2152" x2="518.2152" y1="327" y2="509"/><line style="stroke:#0F172A;stroke-width:1;" x1="518.2152" x2="657.681" y1="509" y2="509"/><polygon fill="#0F172A" points="647.681,505,657.681,509,647.681,513,651.681,509" style="stroke:#0F172A;stroke-width:1;"/><line style="stroke:#0F172A;stroke-width:1;" x1="821.1469" x2="821.1469" y1="491" y2="509"/><line style="stroke:#0F172A;stroke-width:1;" x1="821.1469" x2="681.681" y1="509" y2="509"/><polygon fill="#0F172A" points="691.681,505,681.681,509,691.681,513,687.681,509" style="stroke:#0F172A;stroke-width:1;"/><line style="stroke:#0F172A;stroke-width:1;" x1="669.681" x2="669.681" y1="225" y2="245"/><polygon fill="#0F172A" points="665.681,235,669.681,245,673.681,235,669.681,239" style="stroke:#0F172A;stroke-width:1;"/><line style="stroke:#0F172A;stroke-width:1;" x1="669.681" x2="669.681" y1="65" y2="109"/><polygon fill="#0F172A" points="665.681,99,669.681,109,673.681,99,669.681,103" style="stroke:#0F172A;stroke-width:1;"/><line style="stroke:#0F172A;stroke-width:1;" x1="339.7441" x2="339.7441" y1="711" y2="739.5"/><polygon fill="#0F172A" points="335.7441,729.5,339.7441,739.5,343.7441,729.5,339.7441,733.5" style="stroke:#0F172A;stroke-width:1;"/><line style="stroke:#0F172A;stroke-width:1;" x1="179.5718" x2="169.5718" y1="862.5" y2="862.5"/><line style="stroke:#0F172A;stroke-width:1;" x1="169.5718" x2="169.5718" y1="862.5" y2="884.5"/><polygon fill="#0F172A" points="165.5718,874.5,169.5718,884.5,173.5718,874.5,169.5718,878.5" style="stroke:#0F172A;stroke-width:1;"/><line style="stroke:#0F172A;stroke-width:1;" x1="499.9165" x2="509.9165" y1="862.5" y2="862.5"/><line style="stroke:#0F172A;stroke-width:1;" x1="509.9165" x2="509.9165" y1="862.5" y2="884.5"/><polygon fill="#0F172A" points="505.9165,874.5,509.9165,884.5,513.9165,874.5,509.9165,878.5" style="stroke:#0F172A;stroke-width:1;"/><line style="stroke:#0F172A;stroke-width:1;" x1="169.5718" x2="169.5718" y1="918.5" y2="950.5"/><line style="stroke:#0F172A;stroke-width:1;" x1="169.5718" x2="327.7441" y1="950.5" y2="950.5"/><polygon fill="#0F172A" points="317.7441,946.5,327.7441,950.5,317.7441,954.5,321.7441,950.5" style="stroke:#0F172A;stroke-width:1;"/><line style="stroke:#0F172A;stroke-width:1;" x1="509.9165" x2="509.9165" y1="932.5" y2="950.5"/><line style="stroke:#0F172A;stroke-width:1;" x1="509.9165" x2="351.7441" y1="950.5" y2="950.5"/><polygon fill="#0F172A" points="361.7441,946.5,351.7441,950.5,361.7441,954.5,357.7441,950.5" style="stroke:#0F172A;stroke-width:1;"/><line style="stroke:#0F172A;stroke-width:1;" x1="339.7441" x2="339.7441" y1="815.5" y2="850.5"/><polygon fill="#0F172A" points="335.7441,840.5,339.7441,850.5,343.7441,840.5,339.7441,844.5" style="stroke:#0F172A;stroke-width:1;"/><line style="stroke:#0F172A;stroke-width:1;" x1="339.7441" x2="339.7441" y1="962.5" y2="1008.5"/><polygon fill="#0F172A" points="335.7441,998.5,339.7441,1008.5,343.7441,998.5,339.7441,1002.5" style="stroke:#0F172A;stroke-width:1;"/><line style="stroke:#0F172A;stroke-width:1;" x1="999.6179" x2="999.6179" y1="718" y2="746.5"/><polygon fill="#0F172A" points="995.6179,736.5,999.6179,746.5,1003.6179,736.5,999.6179,740.5" style="stroke:#0F172A;stroke-width:1;"/><line style="stroke:#0F172A;stroke-width:1;" x1="999.6179" x2="999.6179" y1="645" y2="670"/><polygon fill="#0F172A" points="995.6179,660,999.6179,670,1003.6179,660,999.6179,664" style="stroke:#0F172A;stroke-width:1;"/><line style="stroke:#0F172A;stroke-width:1;" x1="1097.9011" x2="1149.9143" y1="633" y2="633"/><polygon fill="#0F172A" points="1145.9143,709.5,1149.9143,719.5,1153.9143,709.5,1149.9143,713.5" style="stroke:#0F172A;stroke-width:1;"/><line style="stroke:#0F172A;stroke-width:1;" x1="1149.9143" x2="1149.9143" y1="633" y2="799.5"/><line style="stroke:#0F172A;stroke-width:1;" x1="1149.9143" x2="999.6179" y1="799.5" y2="799.5"/><line style="stroke:#0F172A;stroke-width:1;" x1="999.6179" x2="999.6179" y1="799.5" y2="834.5"/><polygon fill="#0F172A" points="995.6179,824.5,999.6179,834.5,1003.6179,824.5,999.6179,828.5" style="stroke:#0F172A;stroke-width:1;"/><line style="stroke:#0F172A;stroke-width:1;" x1="999.6179" x2="999.6179" y1="931.5" y2="966.5"/><polygon fill="#0F172A" points="995.6179,956.5,999.6179,966.5,1003.6179,956.5,999.6179,960.5" style="stroke:#0F172A;stroke-width:1;"/><line style="stroke:#0F172A;stroke-width:1;" x1="999.6179" x2="999.6179" y1="858.5" y2="883.5"/><polygon fill="#0F172A" points="995.6179,873.5,999.6179,883.5,1003.6179,873.5,999.6179,877.5" style="stroke:#0F172A;stroke-width:1;"/><line style="stroke:#0F172A;stroke-width:1;" x1="1132.1389" x2="1156.5759" y1="846.5" y2="846.5"/><polygon fill="#0F172A" points="1152.5759,923,1156.5759,933,1160.5759,923,1156.5759,927" style="stroke:#0F172A;stroke-width:1;"/><line style="stroke:#0F172A;stroke-width:1;" x1="1156.5759" x2="1156.5759" y1="846.5" y2="1010.5"/><line style="stroke:#0F172A;stroke-width:1;" x1="1156.5759" x2="999.6179" y1="1010.5" y2="1010.5"/><line style="stroke:#0F172A;stroke-width:1;" x1="999.6179" x2="999.6179" y1="1010.5" y2="1074.5"/><polygon fill="#0F172A" points="995.6179,1064.5,999.6179,1074.5,1003.6179,1064.5,999.6179,1068.5" style="stroke:#0F172A;stroke-width:1;"/><line style="stroke:#0F172A;stroke-width:1;" x1="999.6179" x2="999.6179" y1="1239.5" y2="1261"/><polygon fill="#0F172A" points="995.6179,1251,999.6179,1261,1003.6179,1251,999.6179,1255" style="stroke:#0F172A;stroke-width:1;"/><line style="stroke:#0F172A;stroke-width:1;" x1="999.6179" x2="999.6179" y1="1166.5" y2="1191.5"/><polygon fill="#0F172A" points="995.6179,1181.5,999.6179,1191.5,1003.6179,1181.5,999.6179,1185.5" style="stroke:#0F172A;stroke-width:1;"/><line style="stroke:#0F172A;stroke-width:1;" x1="1137.2009" x2="1160.8416" y1="1154.5" y2="1154.5"/><polygon fill="#0F172A" points="1156.8416,1231,1160.8416,1241,1164.8416,1231,1160.8416,1235" style="stroke:#0F172A;stroke-width:1;"/><line style="stroke:#0F172A;stroke-width:1;" x1="1160.8416" x2="1160.8416" y1="1154.5" y2="1305"/><line style="stroke:#0F172A;stroke-width:1;" x1="1160.8416" x2="999.6179" y1="1305" y2="1305"/><line style="stroke:#0F172A;stroke-width:1;" x1="999.6179" x2="999.6179" y1="1305" y2="1325"/><polygon fill="#0F172A" points="995.6179,1315,999.6179,1325,1003.6179,1315,999.6179,1319" style="stroke:#0F172A;stroke-width:1;"/><line style="stroke:#0F172A;stroke-width:1;" x1="999.6179" x2="999.6179" y1="1122.5" y2="1142.5"/><polygon fill="#0F172A" points="995.6179,1132.5,999.6179,1142.5,1003.6179,1132.5,999.6179,1136.5" style="stroke:#0F172A;stroke-width:1;"/><line style="stroke:#0F172A;stroke-width:1;" x1="877.1902" x2="858.4048" y1="1337" y2="1337"/><line style="stroke:#0F172A;stroke-width:1;" x1="858.4048" x2="858.4048" y1="1337" y2="1359"/><polygon fill="#0F172A" points="854.4048,1349,858.4048,1359,862.4048,1349,858.4048,1353" style="stroke:#0F172A;stroke-width:1;"/><line style="stroke:#0F172A;stroke-width:1;" x1="1122.0457" x2="1140.8311" y1="1337" y2="1337"/><line style="stroke:#0F172A;stroke-width:1;" x1="1140.8311" x2="1140.8311" y1="1337" y2="1359"/><polygon fill="#0F172A" points="1136.8311,1349,1140.8311,1359,1144.8311,1349,1140.8311,1353" style="stroke:#0F172A;stroke-width:1;"/><line style="stroke:#0F172A;stroke-width:1;" x1="858.4048" x2="858.4048" y1="1407" y2="1425"/><line style="stroke:#0F172A;stroke-width:1;" x1="858.4048" x2="987.6179" y1="1425" y2="1425"/><polygon fill="#0F172A" points="977.6179,1421,987.6179,1425,977.6179,1429,981.6179,1425" style="stroke:#0F172A;stroke-width:1;"/><line style="stroke:#0F172A;stroke-width:1;" x1="1140.8311" x2="1140.8311" y1="1393" y2="1425"/><line style="stroke:#0F172A;stroke-width:1;" x1="1140.8311" x2="1011.6179" y1="1425" y2="1425"/><polygon fill="#0F172A" points="1021.6179,1421,1011.6179,1425,1021.6179,1429,1017.6179,1425" style="stroke:#0F172A;stroke-width:1;"/><line style="stroke:#0F172A;stroke-width:1;" x1="999.6179" x2="999.6179" y1="1437" y2="1457"/><polygon fill="#0F172A" points="995.6179,1447,999.6179,1457,1003.6179,1447,999.6179,1451" style="stroke:#0F172A;stroke-width:1;"/><line style="stroke:#0F172A;stroke-width:1;" x1="999.6179" x2="999.6179" y1="1575" y2="1595"/><polygon fill="#0F172A" points="995.6179,1585,999.6179,1595,1003.6179,1585,999.6179,1589" style="stroke:#0F172A;stroke-width:1;"/><line style="stroke:#0F172A;stroke-width:1;" x1="999.6179" x2="999.6179" y1="1629" y2="1649"/><polygon fill="#0F172A" points="995.6179,1639,999.6179,1649,1003.6179,1639,999.6179,1643" style="stroke:#0F172A;stroke-width:1;"/><line style="stroke:#0F172A;stroke-width:1;" x1="999.6179" x2="999.6179" y1="1697" y2="1717"/><polygon fill="#0F172A" points="995.6179,1707,999.6179,1717,1003.6179,1707,999.6179,1711" style="stroke:#0F172A;stroke-width:1;"/><line style="stroke:#0F172A;stroke-width:1;" x1="595.5048" x2="339.7441" y1="565" y2="565"/><line style="stroke:#0F172A;stroke-width:1;" x1="339.7441" x2="339.7441" y1="565" y2="621"/><polygon fill="#0F172A" points="335.7441,611,339.7441,621,343.7441,611,339.7441,615" style="stroke:#0F172A;stroke-width:1;"/><line style="stroke:#0F172A;stroke-width:1;" x1="743.8573" x2="999.6179" y1="565" y2="565"/><line style="stroke:#0F172A;stroke-width:1;" x1="999.6179" x2="999.6179" y1="565" y2="621"/><polygon fill="#0F172A" points="995.6179,611,999.6179,621,1003.6179,611,999.6179,615" style="stroke:#0F172A;stroke-width:1;"/><line style="stroke:#0F172A;stroke-width:1;" x1="999.6179" x2="999.6179" y1="1751" y2="1768"/><line style="stroke:#0F172A;stroke-width:1;" x1="999.6179" x2="669.681" y1="1768" y2="1768"/><line style="stroke:#0F172A;stroke-width:1;" x1="669.681" x2="669.681" y1="1768" y2="1984"/><polygon fill="#0F172A" points="665.681,1974,669.681,1984,673.681,1974,669.681,1978" style="stroke:#0F172A;stroke-width:1;"/><line style="stroke:#0F172A;stroke-width:1;" x1="669.681" x2="669.681" y1="521" y2="553"/><polygon fill="#0F172A" points="665.681,543,669.681,553,673.681,543,669.681,547" style="stroke:#0F172A;stroke-width:1;"/><?plantuml-src bLVRRjiu47tNLn3PbnQ8awPDBokZMAHEsWOecY19snS30IsER6uaKajIJjr5_tqFBv9bvz8kWY2IE1pEd3bpEB4tKZNSy9hP1HVwLgevAtbbARFzoemNDtEZMoKckjA6_L4M-1432q4bRoltNYltcTV4FbAr92SBVh_DfVn1xE1miCYDqRV9-xFouFNpuKwb7Rsx4qDPlXQljgsq4MIInUpmvOjdVsvP-EFJ-eiNXmSlNmxMW_j26qM67RpAd7GLiQF2oQLqApPYWZi-uvRsJxuxCefN4pZZ4kR7QMMOKRVltupTW-2RafU5Nnb6d39dh5n7sNyJajTQYJj0q7DwKpuR60mz7eX34c_MY-_lSMmTDsxRddh_lTsCRtdzcOMj6H86Lb8hjdCsisIMnBWIx9rKOWVfvvVUYfL61v8P4goizErKnPTzX3O7OdO_leyC5LeLig9HX-6UNSx7MNv1N816LdeN3zQ0sOQAtQbo1aZ1436wrkw6a0HLv8X9vKYvSIPBzcJdAjaXCVhULBAGZfrDJfaKiF45R0nPFFwryvIv1IdsP4NsQPP_8EVVMT4QW-Mm1vQwDGMnfUHJ1Oi7enndX2PZJvH-wXEpkWge8GHfdM_23NTkWOhF5rFr2QiFPzxQqBwoWe6TgaBNlZGrehkMOZSWWOFpYI4yXE3l1XqN7pxZraEWz5GPQYsVeKDgxee5anQi1IlX_nod8yvmW8cf1NYBu5fie3jLA8PEHG8eIiWIn0gLEOxLClHFInORjoeme5sq36HBcnhk5i2304FyyaX64gR-4C-hgG8AxB7A8PDVrG497PzyEhawEVP5KAKqm0Y1UkpZQsIYZ_sNJFcDyrf0MNbOVLLuiI3RdJ_UGBAeYAks2QrGIhY23XkaZi--RzgYe3ieWvorNaQshFVm4h5qxUHv5hFPO3NQViLcbGxT5KFi0W0PUby-veq01ZImJZS3buEAVv8b5IluOvEAMojBN3P-nNCWfEn95WYFRaUApgm2MIsvkma6VaMUjPxXq9xK6JM0jl0mLUSNPrzFBq_FFfz-_h3BlfmV7rs5fm0qdiOfs13vTWIMwTPPS3xcQ2s39Cx9sRknkDOeBmIjIgPbMx5U4dq_uHADS4vL339M_6XoTVhrP2ECdqF4l7gkGkcFZImT-uZ72deHkcOIf89O9PSnzHWud_lyOoVBkj76-Guf9LNGrTQKlA34iFSQ2Z9IT1iQ7II7a0OT4-4m0PuKxZvo_OtloMX6fJRn-BfrePpG5ED_e-zqj6MRodON-iksYS46HxxkZuTnr3JLYdrfnAFIfnMCIj-EdTSKZf2sgVZgMc7ssMo16za4y9GUwMQTbLUdZkNvHOiFHYz13yCML3N-ZzOtNi63OhvrPQVHUr6UBzAhl-RMQz-un7XblcbpapZz3T9sWj7ATCMUgYYxRnsXPqE92n_Hsyd5oP7NYodQKsoT6N7fpeH9xFkXIHIOpYHU4iWRIFdB8TvAW6g4CYmfve-hZehMaHttjE-QmnVTenOftN_kxgzpemDhEirEjyUMh3KQ55nvTV5b78ME6IKrnfGHSnYdzczzTMCLBE10mBii016UG8WQVltB64qLwnOuvqTAPkHyuR8qsgHf9i_-rtIJ3MOadtbojkxxVfn4afcVS6H8ioVEQ1QdcCd5b-DTTWicx4RJ0CseYP1vxWcFHsN1D4DxcMUvqLK53r1gNgqFwW9dN8Yimlq30tq3yKOv7UOfIs2dYp1BmeU8QBP8L8iJbsueD74DrtFUsBsC6yYLMpM4WHBSo77Peid2OE1dHubMhxdYSp9PqGTdsI3dUm7obCh2LPvECxxY-5z4tyAzNSXcBql-ytwIpspLpdCmCRPyqRLyluvnNkGFpvhhP78sxz8ORQSHQx3VKpDVCtS_UvIUMRgJyj-XPjQBI6WKcwU1Ymslhd7SIrbtWusxMxoxo3BRYsSGpNn3tX1HwBsarK7H45ulqKaIiqs53lnXaJ_eZ8ANfQx4TGVpzSC5ICCiktUMpRgB1haghIWBRFCqI--NwIHM0sNlCsZu6FWZeIAEVWEMZGB9C4hqv8b8fcmzmBNsJRJdDI3yF_aV?></g></svg>