<?plantuml 1.2026.1?><svg xmlns="http://www.w3.org/2000/svg" xmlns:xlink="http://www.w3.org/1999/xlink" contentStyleType="text/css" data-diagram-type="ACTIVITY" height="1301px" preserveAspectRatio="none" style="width:678px;height:1301px;background:#FCFCFD;" version="1.1" viewBox="0 0 678 1301" width="678px" zoomAndPan="magnify"><title>Activity - identity/IdentityTenancy</title><defs/><g><rect fill="#FCFCFD" height="1301" style="stroke:none;stroke-width:1;" width="678" x="0" y="0"/><g class="title" data-source-line="10"><text fill="#000000" font-family="Helvetica" font-size="14" font-weight="bold" lengthAdjust="spacing" textLength="223.2617" x="226.1316" y="30.7803">Activity - identity/IdentityTenancy</text></g><ellipse cx="295.4849" cy="55" fill="#1D4ED8" rx="10" ry="10" style="stroke:#222222;stroke-width:1;"/><rect fill="#F8FAFC" height="48" rx="8" ry="8" style="stroke:#0F172A;stroke-width:0.5;" width="304.7852" x="143.0923" y="85"/><text fill="#0F172A" font-family="Helvetica" font-size="14" lengthAdjust="spacing" textLength="136.9375" x="153.0923" y="105.7803">Start from shared flow</text><text fill="#0F172A" font-family="Helvetica" font-size="14" lengthAdjust="spacing" textLength="284.7852" x="153.0923" y="119.7803">shared/diagrams/shared-reconcile-activity.svg</text><rect fill="#F8FAFC" height="48" rx="8" ry="8" style="stroke:#0F172A;stroke-width:0.5;" width="305.626" x="142.6719" y="153"/><text fill="#0F172A" font-family="Helvetica" font-size="14" lengthAdjust="spacing" textLength="285.626" x="152.6719" y="173.7803">Load desired IdentityTenancy spec and status</text><text fill="#0F172A" font-family="Helvetica" font-size="14" lengthAdjust="spacing" textLength="103.4961" x="152.6719" y="187.7803">from Kubernetes</text><rect fill="#F8FAFC" height="48" rx="8" ry="8" style="stroke:#0F172A;stroke-width:0.5;" width="309.4609" x="140.7544" y="221"/><text fill="#0F172A" font-family="Helvetica" font-size="14" lengthAdjust="spacing" textLength="289.4609" x="150.7544" y="241.7803">Resolve OCI state via GetIdentityTenancy with</text><text fill="#0F172A" font-family="Helvetica" font-size="14" lengthAdjust="spacing" textLength="171.9785" x="150.7544" y="255.7803">ListIdentityTenancy fallback</text><rect fill="#F8FAFC" height="62" rx="8" ry="8" style="stroke:#0F172A;stroke-width:0.5;" width="296.2402" x="147.3647" y="289"/><text fill="#0F172A" font-family="Helvetica" font-size="14" lengthAdjust="spacing" textLength="267.6953" x="157.3647" y="309.7803">Use scaffold_identity_identitytenancy filters</text><text fill="#0F172A" font-family="Helvetica" font-size="14" lengthAdjust="spacing" textLength="276.2402" x="157.3647" y="323.7803">compartment_id, state when OCID lookup or</text><text fill="#0F172A" font-family="Helvetica" font-size="14" lengthAdjust="spacing" textLength="243.5645" x="157.3647" y="337.7803">bind-versus-create needs list resolution</text><polygon fill="#E2E8F0" points="241.7954,371,349.1743,371,361.1743,383,349.1743,395,241.7954,395,229.7954,383,241.7954,371" style="stroke:#1D4ED8;stroke-width:0.5;"/><text fill="#0F172A" font-family="Helvetica" font-size="14" lengthAdjust="spacing" textLength="107.3789" x="241.7954" y="386.7803">Resource exists?</text><text fill="#000000" font-family="Helvetica" font-size="14" lengthAdjust="spacing" textLength="21.7861" x="208.0093" y="379.7803">yes</text><text fill="#000000" font-family="Helvetica" font-size="14" lengthAdjust="spacing" textLength="15.5723" x="361.1743" y="379.7803">no</text><rect fill="#F8FAFC" height="34" rx="8" ry="8" style="stroke:#0F172A;stroke-width:0.5;" width="276.0469" x="11" y="405"/><text fill="#0F172A" font-family="Helvetica" font-size="14" lengthAdjust="spacing" textLength="256.0469" x="21" y="425.7803">Update path calls UpdateIdentityTenancy</text><rect fill="#F8FAFC" height="48" rx="8" ry="8" style="stroke:#0F172A;stroke-width:0.5;" width="266.7021" x="15.6724" y="459"/><text fill="#0F172A" font-family="Helvetica" font-size="14" lengthAdjust="spacing" textLength="246.7021" x="25.6724" y="479.7803">Guard mutable fields display_name and</text><text fill="#0F172A" font-family="Helvetica" font-size="14" lengthAdjust="spacing" textLength="202.3096" x="25.6724" y="493.7803">force-new fields compartment_id</text><rect fill="#F8FAFC" height="34" rx="8" ry="8" style="stroke:#0F172A;stroke-width:0.5;" width="269.7988" x="307.0469" y="405"/><text fill="#0F172A" font-family="Helvetica" font-size="14" lengthAdjust="spacing" textLength="249.7988" x="317.0469" y="425.7803">Create path calls CreateIdentityTenancy</text><polygon fill="#E2E8F0" points="295.4849,513,307.4849,525,295.4849,537,283.4849,525,295.4849,513" style="stroke:#1D4ED8;stroke-width:0.5;"/><rect fill="#F8FAFC" height="104" rx="8" ry="8" style="stroke:#0F172A;stroke-width:0.5;" width="334.3164" x="128.3267" y="557"/><text fill="#0F172A" font-family="Helvetica" font-size="14" lengthAdjust="spacing" textLength="164.2061" x="138.3267" y="577.7803">Run provider helper hooks</text><text fill="#0F172A" font-family="Helvetica" font-size="14" lengthAdjust="spacing" textLength="219.0508" x="138.3267" y="591.7803">create=tfresource.CreateResource,</text><text fill="#0F172A" font-family="Helvetica" font-size="14" lengthAdjust="spacing" textLength="314.3164" x="138.3267" y="605.7803">tfresource.WaitForWorkRequestWithErrorHandling</text><text fill="#0F172A" font-family="Helvetica" font-size="14" lengthAdjust="spacing" textLength="215.5439" x="138.3267" y="619.7803">entity=template action=CREATED;</text><text fill="#0F172A" font-family="Helvetica" font-size="14" lengthAdjust="spacing" textLength="226.085" x="138.3267" y="633.7803">update=tfresource.UpdateResource;</text><text fill="#0F172A" font-family="Helvetica" font-size="14" lengthAdjust="spacing" textLength="212.8438" x="138.3267" y="647.7803">delete=tfresource.DeleteResource</text><rect fill="#F8FAFC" height="34" rx="8" ry="8" style="stroke:#0F172A;stroke-width:0.5;" width="263.5918" x="163.689" y="681"/><text fill="#0F172A" font-family="Helvetica" font-size="14" lengthAdjust="spacing" textLength="243.5918" x="173.689" y="701.7803">Apply repo-authored secret policy none</text><rect fill="#F8FAFC" height="62" rx="8" ry="8" style="stroke:#0F172A;stroke-width:0.5;" width="304.792" x="143.0889" y="735"/><text fill="#0F172A" font-family="Helvetica" font-size="14" lengthAdjust="spacing" textLength="277.0469" x="153.0889" y="755.7803">Delete path uses DeleteIdentityTenancy with</text><text fill="#0F172A" font-family="Helvetica" font-size="14" lengthAdjust="spacing" textLength="214.7783" x="153.0889" y="769.7803">required via GetIdentityTenancy or</text><text fill="#0F172A" font-family="Helvetica" font-size="14" lengthAdjust="spacing" textLength="284.792" x="153.0889" y="783.7803">ListIdentityTenancy to DELETED confirmation</text><rect fill="#F8FAFC" height="48" rx="8" ry="8" style="stroke:#0F172A;stroke-width:0.5;" width="279.1299" x="155.9199" y="817"/><text fill="#0F172A" font-family="Helvetica" font-size="14" lengthAdjust="spacing" textLength="259.1299" x="165.9199" y="837.7803">Project required status and finalizer policy</text><text fill="#0F172A" font-family="Helvetica" font-size="14" lengthAdjust="spacing" textLength="174.3027" x="165.9199" y="851.7803">retain-until-confirmed-delete</text><rect fill="#F8FAFC" height="34" rx="8" ry="8" style="stroke:#0F172A;stroke-width:0.5;" width="313.4189" x="138.7754" y="885"/><text fill="#0F172A" font-family="Helvetica" font-size="14" lengthAdjust="spacing" textLength="293.4189" x="148.7754" y="905.7803">Requeue on provisioning, updating, terminating</text><path d="M326.4849,929 L326.4849,1105 L306.4849,1109 L326.4849,1113 L326.4849,1289 A0,0 0 0 0 326.4849,1289 L666.5249,1289 A0,0 0 0 0 666.5249,1289 L666.5249,939 L656.5249,929 L326.4849,929 A0,0 0 0 0 326.4849,929" fill="#FFF7D6" style="stroke:#B45309;stroke-width:0.5;"/><path d="M656.5249,929 L656.5249,939 L666.5249,939 L656.5249,929" fill="#FFF7D6" style="stroke:#B45309;stroke-width:0.5;"/><text fill="#334155" font-family="Helvetica" font-size="14" lengthAdjust="spacing" textLength="101.165" x="332.4849" y="944.7803">shared diagram:</text><text fill="#334155" font-family="Helvetica" font-size="14" lengthAdjust="spacing" textLength="284.7852" x="332.4849" y="958.7803">shared/diagrams/shared-reconcile-activity.svg</text><text fill="#334155" font-family="Helvetica" font-size="14" lengthAdjust="spacing" textLength="265.3438" x="332.4849" y="972.7803">Start from the shared reconcile activity and</text><text fill="#334155" font-family="Helvetica" font-size="14" lengthAdjust="spacing" textLength="273.8955" x="332.4849" y="986.7803">specialize provider-backed CRUD, wait, and</text><text fill="#334155" font-family="Helvetica" font-size="14" lengthAdjust="spacing" textLength="182.875" x="332.4849" y="1000.7803">status-projection details here.</text><text fill="#334155" font-family="Helvetica" font-size="14" lengthAdjust="spacing" textLength="229.5371" x="332.4849" y="1014.7803">Controller-local activity diagrams add</text><text fill="#334155" font-family="Helvetica" font-size="14" lengthAdjust="spacing" textLength="238.8955" x="332.4849" y="1028.7803">list-lookup hints, secret policies, delete</text><text fill="#334155" font-family="Helvetica" font-size="14" lengthAdjust="spacing" textLength="200.0332" x="332.4849" y="1042.7803">handling, and open formal gaps.</text><text fill="#334155" font-family="Helvetica" font-size="14" lengthAdjust="spacing" textLength="281.709" x="332.4849" y="1056.7803">archetype batch: Generated service-manager</text><text fill="#334155" font-family="Helvetica" font-size="14" lengthAdjust="spacing" textLength="291.0469" x="332.4849" y="1070.7803">controllers specialize the shared reconcile path</text><text fill="#334155" font-family="Helvetica" font-size="14" lengthAdjust="spacing" textLength="189.8477" x="332.4849" y="1084.7803">with formal runtime ownership.</text><text fill="#334155" font-family="Helvetica" font-size="14" lengthAdjust="spacing" textLength="96.4824" x="332.4849" y="1098.7803">service: identity</text><text fill="#334155" font-family="Helvetica" font-size="14" lengthAdjust="spacing" textLength="126.8545" x="332.4849" y="1112.7803">slug: identitytenancy</text><text fill="#334155" font-family="Helvetica" font-size="14" lengthAdjust="spacing" textLength="132.2959" x="332.4849" y="1126.7803">kind: IdentityTenancy</text><text fill="#334155" font-family="Helvetica" font-size="14" lengthAdjust="spacing" textLength="241.2402" x="332.4849" y="1140.7803">archetype: generated-service-manager</text><text fill="#334155" font-family="Helvetica" font-size="14" lengthAdjust="spacing" textLength="156.4063" x="332.4849" y="1154.7803">status/finalizer: required /</text><text fill="#334155" font-family="Helvetica" font-size="14" lengthAdjust="spacing" textLength="174.3027" x="332.4849" y="1168.7803">retain-until-confirmed-delete</text><text fill="#334155" font-family="Helvetica" font-size="14" lengthAdjust="spacing" textLength="272.3984" x="332.4849" y="1182.7803">requeue: provisioning, updating, terminating</text><text fill="#334155" font-family="Helvetica" font-size="14" lengthAdjust="spacing" textLength="295.6816" x="332.4849" y="1196.7803">provider states: create PROVISIONING; update</text><text fill="#334155" font-family="Helvetica" font-size="14" lengthAdjust="spacing" textLength="192.165" x="332.4849" y="1210.7803">UPDATING; delete DELETING</text><text fill="#334155" font-family="Helvetica" font-size="14" lengthAdjust="spacing" textLength="319.04" x="332.4849" y="1224.7803">mutable/forceNew: display_name / compartment_id</text><text fill="#334155" font-family="Helvetica" font-size="14" lengthAdjust="spacing" textLength="104.3164" x="332.4849" y="1238.7803">open gaps: none</text><text fill="#334155" font-family="Helvetica" font-size="14" lengthAdjust="spacing" textLength="224.9023" x="332.4849" y="1252.7803">Scaffold metadata only; replace with</text><text fill="#334155" font-family="Helvetica" font-size="14" lengthAdjust="spacing" textLength="244.3232" x="332.4849" y="1266.7803">controller-specific runtime states before</text><text fill="#334155" font-family="Helvetica" font-size="14" lengthAdjust="spacing" textLength="66.1445" x="332.4849" y="1280.7803">promotion.</text><ellipse cx="295.4849" cy="1109" fill="none" rx="11" ry="11" style="stroke:#222222;stroke-width:1;"/><ellipse cx="295.4849" cy="1109" fill="#222222" rx="6" ry="6" style="stroke:#222222;stroke-width:1;"/><line style="stroke:#0F172A;stroke-width:1;" x1="295.4849" x2="295.4849" y1="65" y2="85"/><polygon fill="#0F172A" points="291.4849,75,295.4849,85,299.4849,75,295.4849,79" style="stroke:#0F172A;stroke-width:1;"/><line style="stroke:#0F172A;stroke-width:1;" x1="295.4849" x2="295.4849" y1="133" y2="153"/><polygon fill="#0F172A" points="291.4849,143,295.4849,153,299.4849,143,295.4849,147" style="stroke:#0F172A;stroke-width:1;"/><line style="stroke:#0F172A;stroke-width:1;" x1="295.4849" x2="295.4849" y1="201" y2="221"/><polygon fill="#0F172A" points="291.4849,211,295.4849,221,299.4849,211,295.4849,215" style="stroke:#0F172A;stroke-width:1;"/><line style="stroke:#0F172A;stroke-width:1;" x1="295.4849" x2="295.4849" y1="269" y2="289"/><polygon fill="#0F172A" points="291.4849,279,295.4849,289,299.4849,279,295.4849,283" style="stroke:#0F172A;stroke-width:1;"/><line style="stroke:#0F172A;stroke-width:1;" x1="149.0234" x2="149.0234" y1="439" y2="459"/><polygon fill="#0F172A" points="145.0234,449,149.0234,459,153.0234,449,149.0234,453" style="stroke:#0F172A;stroke-width:1;"/><line style="stroke:#0F172A;stroke-width:1;" x1="229.7954" x2="149.0234" y1="383" y2="383"/><line style="stroke:#0F172A;stroke-width:1;" x1="149.0234" x2="149.0234" y1="383" y2="405"/><polygon fill="#0F172A" points="145.0234,395,149.0234,405,153.0234,395,149.0234,399" style="stroke:#0F172A;stroke-width:1;"/><line style="stroke:#0F172A;stroke-width:1;" x1="361.1743" x2="441.9463" y1="383" y2="383"/><line style="stroke:#0F172A;stroke-width:1;" x1="441.9463" x2="441.9463" y1="383" y2="405"/><polygon fill="#0F172A" points="437.9463,395,441.9463,405,445.9463,395,441.9463,399" style="stroke:#0F172A;stroke-width:1;"/><line style="stroke:#0F172A;stroke-width:1;" x1="149.0234" x2="149.0234" y1="507" y2="525"/><line style="stroke:#0F172A;stroke-width:1;" x1="149.0234" x2="283.4849" y1="525" y2="525"/><polygon fill="#0F172A" points="273.4849,521,283.4849,525,273.4849,529,277.4849,525" style="stroke:#0F172A;stroke-width:1;"/><line style="stroke:#0F172A;stroke-width:1;" x1="441.9463" x2="441.9463" y1="439" y2="525"/><line style="stroke:#0F172A;stroke-width:1;" x1="441.9463" x2="307.4849" y1="525" y2="525"/><polygon fill="#0F172A" points="317.4849,521,307.4849,525,317.4849,529,313.4849,525" style="stroke:#0F172A;stroke-width:1;"/><line style="stroke:#0F172A;stroke-width:1;" x1="295.4849" x2="295.4849" y1="351" y2="371"/><polygon fill="#0F172A" points="291.4849,361,295.4849,371,299.4849,361,295.4849,365" style="stroke:#0F172A;stroke-width:1;"/><line style="stroke:#0F172A;stroke-width:1;" x1="295.4849" x2="295.4849" y1="537" y2="557"/><polygon fill="#0F172A" points="291.4849,547,295.4849,557,299.4849,547,295.4849,551" style="stroke:#0F172A;stroke-width:1;"/><line style="stroke:#0F172A;stroke-width:1;" x1="295.4849" x2="295.4849" y1="661" y2="681"/><polygon fill="#0F172A" points="291.4849,671,295.4849,681,299.4849,671,295.4849,675" style="stroke:#0F172A;stroke-width:1;"/><line style="stroke:#0F172A;stroke-width:1;" x1="295.4849" x2="295.4849" y1="715" y2="735"/><polygon fill="#0F172A" points="291.4849,725,295.4849,735,299.4849,725,295.4849,729" style="stroke:#0F172A;stroke-width:1;"/><line style="stroke:#0F172A;stroke-width:1;" x1="295.4849" x2="295.4849" y1="797" y2="817"/><polygon fill="#0F172A" points="291.4849,807,295.4849,817,299.4849,807,295.4849,811" style="stroke:#0F172A;stroke-width:1;"/><line style="stroke:#0F172A;stroke-width:1;" x1="295.4849" x2="295.4849" y1="865" y2="885"/><polygon fill="#0F172A" points="291.4849,875,295.4849,885,299.4849,875,295.4849,879" style="stroke:#0F172A;stroke-width:1;"/><line style="stroke:#0F172A;stroke-width:1;" x1="295.4849" x2="295.4849" y1="919" y2="1098"/><polygon fill="#0F172A" points="291.4849,1088,295.4849,1098,299.4849,1088,295.4849,1092" style="stroke:#0F172A;stroke-width:1;"/><?plantuml-src bLRRRkCs47tdLmpGbonWsSacsKrb14LgPxF11acGI_DYO46B8uiDHQeaPTSj-kyTKhAiE6xH8W-MoBcUENCKzofrnIqlmHLSc9NK2yYvSiXSTpFdsUl2cbgBYL76mWzvHd-YPo4mvxNoNupsjxn4-8fgYLvcVB_De_m3uUYaTycjDQis-c5-zFbZtrCRZp-_go7FFujFkrR62hIjnVpazFZmnnsBaBwzFpu-EJezxTt7y9cn6YqSVM9UUeLmaNcvb7uD2KY1cWxNe-lsuGarrzcwtyV6-ay6Ut0xotcUXPj-dMs_0FcsjkvCI5uQBTwrZn_nB3_i6VGZ7eaJ56VRoozx0ZlFhT-rnov-PpVdEr7_Oj6LfO_X1t9h8dSi2iYLMSrqypAYt0k2n8sQzyHYPdGc5IORa8PkkHYpzCPmGUnmCeJOWHPSXHbmBKAzldOp7VDzg-T8O_BeoFy1dI6wmTtaEbeXB2M7A_IxiLRI5pDz8zsx6sAy2jEYQCyEmMKypuqItpSJxnxyna4gZvRAoKn9a_SbNPFHe2rWLQ0EzKn16VDQLs3iJC-b5icIl6gNP1Q3dKOK3XHL13PqKNjfz9Z970v2LxND4F1tkdO_VG0VWXwiqNsWAYiH_2lk2yYeU0VDoKvZrCzLpQs0ilPyJcpE9IhAAAIh55z_rs5P2Ls2rL2kHEDgO_AsiJ53qWGuq8QIJvhYUycRatV9YKuofm7L6YfhbWIYXG9L5Nu8bm1VT3ptkMtR7JQXDjqFPhftzy8bwOTzCVRr0N-hqVaN6kabQOVzIbqe4g-PRceuzrXIYrHcO9lHvvE7oukdo-bufkk8L3zdWzqc9va8LFZMP1fFEXEMNbILMjFKAfFmsXScaDSXzUEXCaeIHxJHmR3nRD2g7Jfe3lQJqr9RSG_-WSA1H_i8x0rCBsykgK4QdCwbBNb3fVJUcbyn2_ng8pUB57SgbvehqcBRbXpoUovrKbDmbRIHQ7SRFEAk4UmrWcadwYW9eJw026fyehqeAMvu6PDKc8e5tGKh5uLdhL2qsf2o_wKLhASuj0mRrUcCj-fBpR6W73Asrv4l2JjE7fE7v-a0LiIcGMCQ8Kcg1YfgYUI8S21Y5sXno2QadzOeHH6K8SPl4sqA1ou42tkSj0jVIEtTu0qZ9D91WoGhMhh6_60gscpQm992BtZbXepRh42_hf3qrsT5IboWhnAHD93CBYNjQiarNw1bMLUSWrxFUm4A96I1QPjiDaoQDC2iABmhP3LaRVoq-zmnf-h5zhMLG4RVF97kwlMsy1GMcvAJtP8Rl4ST_T8jEqViNod8R4F0zB_GZtMY4rNPfT3Axlt3tI_NZzTtjzUtL-F65zdp_VJYAHuqgPg5eWFMYkSeQkGjhjAt-ZdQqKeMnndcc4ODO8_jvmHAQeroSLeVjHu7yL2S53uCf3V694unbratdQPyc2DLWA6hqWIM3eF0nlzg_WO0?></g></svg>