<?plantuml 1.2026.1?><svg xmlns="http://www.w3.org/2000/svg" xmlns:xlink="http://www.w3.org/1999/xlink" contentStyleType="text/css" data-diagram-type="SEQUENCE" height="1329px" preserveAspectRatio="none" style="width:1142px;height:1329px;background:#FCFCFD;" version="1.1" viewBox="0 0 1142 1329" width="1142px" zoomAndPan="magnify"><title>Sequence - database/CloudVmClusterUpdateHistoryEntry</title><defs/><g><rect fill="#FCFCFD" height="1329" style="stroke:none;stroke-width:1;" width="1142" x="0" y="0"/><text fill="#000000" font-family="Helvetica" font-size="14" font-weight="bold" lengthAdjust="spacing" textLength="384.3096" x="379.938" y="25.7803">Sequence - database/CloudVmClusterUpdateHistoryEntry</text><rect fill="none" height="86" rx="8" ry="8" style="stroke:#CBD5E1;stroke-width:1.5;" width="428.73" x="696.4556" y="361"/><rect fill="none" height="204" rx="8" ry="8" style="stroke:#CBD5E1;stroke-width:1.5;" width="448.73" x="686.4556" y="461"/><rect fill="none" height="44" rx="8" ry="8" style="stroke:#CBD5E1;stroke-width:1.5;" width="428.73" x="696.4556" y="512"/><rect fill="none" height="44" rx="8" ry="8" style="stroke:#CBD5E1;stroke-width:1.5;" width="428.73" x="696.4556" y="614"/><rect fill="none" height="130" rx="8" ry="8" style="stroke:#CBD5E1;stroke-width:1.5;" width="448.73" x="686.4556" y="679"/><rect fill="none" height="72" rx="8" ry="8" style="stroke:#CBD5E1;stroke-width:1.5;" width="428.73" x="696.4556" y="730"/><g class="participant-lifeline" data-entity-uid="part1" data-qualified-name="Kubernetes" id="part1-lifeline"><g><title>Kubernetes</title><rect fill="#000000" fill-opacity="0.00000" height="1208" width="8" x="39.8032" y="114"/><line style="stroke:#94A3B8;stroke-width:0.5;stroke-dasharray:5,5;" x1="43" x2="43" y1="114" y2="1322"/></g></g><g class="participant-lifeline" data-entity-uid="part2" data-qualified-name="Controller" id="part2-lifeline"><g><title>Controller</title><rect fill="#000000" fill-opacity="0.00000" height="1208" width="8" x="287.106" y="114"/><line style="stroke:#94A3B8;stroke-width:0.5;stroke-dasharray:5,5;" x1="290.7612" x2="290.7612" y1="114" y2="1322"/></g></g><g class="participant-lifeline" data-entity-uid="part3" data-qualified-name="BaseReconciler" id="part3-lifeline"><g><title>BaseReconciler</title><rect fill="#000000" fill-opacity="0.00000" height="1208" width="8" x="525.9321" y="114"/><line style="stroke:#94A3B8;stroke-width:0.5;stroke-dasharray:5,5;" x1="529.9082" x2="529.9082" y1="114" y2="1322"/></g></g><g class="participant-lifeline" data-entity-uid="part4" data-qualified-name="ServiceManager" id="part4-lifeline"><g><title>OSOKServiceManager</title><rect fill="#000000" fill-opacity="0.00000" height="1208" width="8" x="780.6519" y="114"/><line style="stroke:#94A3B8;stroke-width:0.5;stroke-dasharray:5,5;" x1="784.4556" x2="784.4556" y1="114" y2="1322"/></g></g><g class="participant-lifeline" data-entity-uid="part5" data-qualified-name="OCI" id="part5-lifeline"><g><title>OCI</title><rect fill="#000000" fill-opacity="0.00000" height="1208" width="8" x="1091.7407" y="114"/><line style="stroke:#94A3B8;stroke-width:0.5;stroke-dasharray:5,5;" x1="1095.2959" x2="1095.2959" y1="114" y2="1322"/></g></g><g class="participant participant-head" data-entity-uid="part1" data-qualified-name="Kubernetes" id="part1-head"><text fill="#000000" font-family="Helvetica" font-size="14" lengthAdjust="spacing" textLength="71.6064" x="5" y="110.7803">Kubernetes</text><ellipse cx="43.8032" cy="48.5" fill="#E2E8F0" rx="8" ry="8" style="stroke:#0F172A;stroke-width:0.5;"/><path d="M43.8032,56.5 L43.8032,83.5 M30.8032,64.5 L56.8032,64.5 M43.8032,83.5 L30.8032,98.5 M43.8032,83.5 L56.8032,98.5" fill="none" style="stroke:#0F172A;stroke-width:0.5;"/></g><g class="participant participant-head" data-entity-uid="part2" data-qualified-name="Controller" id="part2-head"><rect fill="#E2E8F0" height="28" rx="8" ry="8" style="stroke:#0F172A;stroke-width:0.5;" width="74.6895" x="253.7612" y="85"/><text fill="#0F172A" font-family="Helvetica" font-size="14" lengthAdjust="spacing" textLength="60.6895" x="260.7612" y="102.7803">Controller</text></g><g class="participant participant-head" data-entity-uid="part3" data-qualified-name="BaseReconciler" id="part3-head"><rect fill="#E2E8F0" height="28" rx="8" ry="8" style="stroke:#0F172A;stroke-width:0.5;" width="112.0479" x="473.9082" y="85"/><text fill="#0F172A" font-family="Helvetica" font-size="14" lengthAdjust="spacing" textLength="98.0479" x="480.9082" y="102.7803">BaseReconciler</text></g><g class="participant participant-head" data-entity-uid="part4" data-qualified-name="ServiceManager" id="part4-head"><rect fill="#E2E8F0" height="28" rx="8" ry="8" style="stroke:#0F172A;stroke-width:0.5;" width="156.3926" x="706.4556" y="85"/><text fill="#0F172A" font-family="Helvetica" font-size="14" lengthAdjust="spacing" textLength="142.3926" x="713.4556" y="102.7803">OSOKServiceManager</text></g><g class="participant participant-head" data-entity-uid="part5" data-qualified-name="OCI" id="part5-head"><rect fill="#E2E8F0" height="28" rx="8" ry="8" style="stroke:#0F172A;stroke-width:0.5;" width="38.8896" x="1076.2959" y="85"/><text fill="#0F172A" font-family="Helvetica" font-size="14" lengthAdjust="spacing" textLength="24.8896" x="1083.2959" y="102.7803">OCI</text></g><path d="M465,137 L465,187 A8,8 0 0 0 473,195 L840,195 A8,8 0 0 0 848,187 L848,139 L838,129 L473,129 A8,8 0 0 0 465,137" fill="#FFF7D6" style="stroke:#B45309;stroke-width:0.5;"/><path d="M838,129 L838,135 A4,4 0 0 0 842,139 L848,139 L838,129" fill="#FFF7D6" style="stroke:#B45309;stroke-width:0.5;"/><text fill="#334155" font-family="Helvetica" font-size="14" lengthAdjust="spacing" textLength="111.2891" x="498.7742" y="144.7803">shared resolution:</text><text fill="#334155" font-family="Helvetica" font-size="14" lengthAdjust="spacing" textLength="307.3916" x="498.7742" y="158.7803">shared/diagrams/shared-resolution-sequence.svg</text><text fill="#334155" font-family="Helvetica" font-size="14" lengthAdjust="spacing" textLength="88.7305" x="498.7742" y="172.7803">shared delete:</text><text fill="#334155" font-family="Helvetica" font-size="14" lengthAdjust="spacing" textLength="284.833" x="498.7742" y="186.7803">shared/diagrams/shared-delete-sequence.svg</text><g class="message" data-entity-1="part1" data-entity-2="part2" id="msg1"><polygon fill="#0F172A" points="279.106,244,289.106,248,279.106,252,283.106,248" style="stroke:#0F172A;stroke-width:1;"/><line style="stroke:#0F172A;stroke-width:1;" x1="43.8032" x2="285.106" y1="248" y2="248"/><text fill="#000000" font-family="Helvetica" font-size="14" lengthAdjust="spacing" textLength="54.5029" x="50.8032" y="214.7803">enqueue</text><text fill="#000000" font-family="Helvetica" font-size="14" lengthAdjust="spacing" textLength="223.3027" x="50.8032" y="228.7803">CloudVmClusterUpdateHistoryEntry</text><text fill="#000000" font-family="Helvetica" font-size="14" lengthAdjust="spacing" textLength="56.0273" x="50.8032" y="242.7803">reconcile</text></g><g class="message" data-entity-1="part2" data-entity-2="part3" id="msg2"><polygon fill="#0F172A" points="517.9321,272,527.9321,276,517.9321,280,521.9321,276" style="stroke:#0F172A;stroke-width:1;"/><line style="stroke:#0F172A;stroke-width:1;" x1="291.106" x2="523.9321" y1="276" y2="276"/><text fill="#000000" font-family="Helvetica" font-size="14" lengthAdjust="spacing" textLength="117.4961" x="298.106" y="270.7803">Reconcile(request)</text></g><g class="message" data-entity-1="part3" data-entity-2="part4" id="msg3"><polygon fill="#0F172A" points="772.6519,314,782.6519,318,772.6519,322,776.6519,318" style="stroke:#0F172A;stroke-width:1;"/><line style="stroke:#0F172A;stroke-width:1;" x1="529.9321" x2="778.6519" y1="318" y2="318"/><text fill="#000000" font-family="Helvetica" font-size="14" lengthAdjust="spacing" textLength="105.834" x="536.9321" y="298.7803">reconcile desired</text><text fill="#000000" font-family="Helvetica" font-size="14" lengthAdjust="spacing" textLength="223.3027" x="536.9321" y="312.7803">CloudVmClusterUpdateHistoryEntry</text></g><g class="message" data-entity-1="part4" data-entity-2="part5" id="msg4"><polygon fill="#0F172A" points="1083.7407,342,1093.7407,346,1083.7407,350,1087.7407,346" style="stroke:#0F172A;stroke-width:1;"/><line style="stroke:#0F172A;stroke-width:1;" x1="784.6519" x2="1089.7407" y1="346" y2="346"/><text fill="#000000" font-family="Helvetica" font-size="14" lengthAdjust="spacing" textLength="245.8682" x="791.6519" y="340.7803">GetCloudVmClusterUpdateHistoryEntry</text></g><path d="M704.4556,361 L763.2212,361 L763.2212,367 L753.2212,377 L696.4556,377 L696.4556,369 A8,8 0 0 1 704.4556,361" fill="#F8FAFC" style="stroke:#CBD5E1;stroke-width:1.5;"/><rect fill="none" height="86" rx="8" ry="8" style="stroke:#CBD5E1;stroke-width:1.5;" width="428.73" x="696.4556" y="361"/><text fill="#000000" font-family="Helvetica" font-size="14" font-weight="bold" lengthAdjust="spacing" textLength="21.7656" x="711.4556" y="372.7803">opt</text><text fill="#000000" font-family="Helvetica" font-size="14" font-weight="bold" lengthAdjust="spacing" textLength="135.3516" x="778.2212" y="373.7803">[list lookup fallback]</text><g class="message" data-entity-1="part4" data-entity-2="part5" id="msg5"><polygon fill="#0F172A" points="1083.7407,407,1093.7407,411,1083.7407,415,1087.7407,411" style="stroke:#0F172A;stroke-width:1;"/><line style="stroke:#0F172A;stroke-width:1;" x1="784.6519" x2="1089.7407" y1="411" y2="411"/><text fill="#000000" font-family="Helvetica" font-size="14" lengthAdjust="spacing" textLength="287.0889" x="791.6519" y="391.7803">ListCloudVmClusterUpdateHistoryEntry(filters:</text><text fill="#000000" font-family="Helvetica" font-size="14" lengthAdjust="spacing" textLength="143.1719" x="791.6519" y="405.7803">compartment_id, state)</text></g><g class="message" data-entity-1="part5" data-entity-2="part4" id="msg6"><polygon fill="#0F172A" points="795.6519,435,785.6519,439,795.6519,443,791.6519,439" style="stroke:#0F172A;stroke-width:1;"/><line style="stroke:#0F172A;stroke-width:1;stroke-dasharray:2,2;" x1="789.6519" x2="1094.7407" y1="439" y2="439"/><text fill="#000000" font-family="Helvetica" font-size="14" lengthAdjust="spacing" textLength="156.3994" x="801.6519" y="433.7803">matching collection items</text></g><path d="M694.4556,461 L747.7935,461 L747.7935,467 L737.7935,477 L686.4556,477 L686.4556,469 A8,8 0 0 1 694.4556,461" fill="#F8FAFC" style="stroke:#CBD5E1;stroke-width:1.5;"/><rect fill="none" height="204" rx="8" ry="8" style="stroke:#CBD5E1;stroke-width:1.5;" width="448.73" x="686.4556" y="461"/><text fill="#000000" font-family="Helvetica" font-size="14" font-weight="bold" lengthAdjust="spacing" textLength="16.3379" x="701.4556" y="472.7803">alt</text><text fill="#000000" font-family="Helvetica" font-size="14" font-weight="bold" lengthAdjust="spacing" textLength="135.3447" x="762.7935" y="473.7803">[create or bind path]</text><g class="message" data-entity-1="part4" data-entity-2="part5" id="msg7"><polygon fill="#0F172A" points="1083.7407,493,1093.7407,497,1083.7407,501,1087.7407,497" style="stroke:#0F172A;stroke-width:1;"/><line style="stroke:#0F172A;stroke-width:1;" x1="784.6519" x2="1089.7407" y1="497" y2="497"/><text fill="#000000" font-family="Helvetica" font-size="14" lengthAdjust="spacing" textLength="265.3232" x="791.6519" y="491.7803">CreateCloudVmClusterUpdateHistoryEntry</text></g><path d="M704.4556,512 L771.0005,512 L771.0005,518 L761.0005,528 L696.4556,528 L696.4556,520 A8,8 0 0 1 704.4556,512" fill="#F8FAFC" style="stroke:#CBD5E1;stroke-width:1.5;"/><rect fill="none" height="44" rx="8" ry="8" style="stroke:#CBD5E1;stroke-width:1.5;" width="428.73" x="696.4556" y="512"/><text fill="#000000" font-family="Helvetica" font-size="14" font-weight="bold" lengthAdjust="spacing" textLength="29.5449" x="711.4556" y="523.7803">loop</text><text fill="#000000" font-family="Helvetica" font-size="14" font-weight="bold" lengthAdjust="spacing" textLength="215.4756" x="786.0005" y="524.7803">[create pending PROVISIONING]</text><g class="message" data-entity-1="part4" data-entity-2="part5" id="msg8"><polygon fill="#0F172A" points="1083.7407,544,1093.7407,548,1083.7407,552,1087.7407,548" style="stroke:#0F172A;stroke-width:1;"/><line style="stroke:#0F172A;stroke-width:1;" x1="784.6519" x2="1089.7407" y1="548" y2="548"/><text fill="#000000" font-family="Helvetica" font-size="14" lengthAdjust="spacing" textLength="245.8682" x="791.6519" y="542.7803">GetCloudVmClusterUpdateHistoryEntry</text></g><line style="stroke:#CBD5E1;stroke-width:1;stroke-dasharray:2,2;" x1="686.4556" x2="1135.1855" y1="564" y2="564"/><text fill="#000000" font-family="Helvetica" font-size="14" font-weight="bold" lengthAdjust="spacing" textLength="137.6484" x="691.4556" y="574.7803">[update or drift path]</text><g class="message" data-entity-1="part4" data-entity-2="part5" id="msg9"><polygon fill="#0F172A" points="1083.7407,595,1093.7407,599,1083.7407,603,1087.7407,599" style="stroke:#0F172A;stroke-width:1;"/><line style="stroke:#0F172A;stroke-width:1;" x1="784.6519" x2="1089.7407" y1="599" y2="599"/><text fill="#000000" font-family="Helvetica" font-size="14" lengthAdjust="spacing" textLength="268.4473" x="791.6519" y="593.7803">UpdateCloudVmClusterUpdateHistoryEntry</text></g><path d="M704.4556,614 L771.0005,614 L771.0005,620 L761.0005,630 L696.4556,630 L696.4556,622 A8,8 0 0 1 704.4556,614" fill="#F8FAFC" style="stroke:#CBD5E1;stroke-width:1.5;"/><rect fill="none" height="44" rx="8" ry="8" style="stroke:#CBD5E1;stroke-width:1.5;" width="428.73" x="696.4556" y="614"/><text fill="#000000" font-family="Helvetica" font-size="14" font-weight="bold" lengthAdjust="spacing" textLength="29.5449" x="711.4556" y="625.7803">loop</text><text fill="#000000" font-family="Helvetica" font-size="14" font-weight="bold" lengthAdjust="spacing" textLength="190.5381" x="786.0005" y="626.7803">[update pending UPDATING]</text><g class="message" data-entity-1="part4" data-entity-2="part5" id="msg10"><polygon fill="#0F172A" points="1083.7407,646,1093.7407,650,1083.7407,654,1087.7407,650" style="stroke:#0F172A;stroke-width:1;"/><line style="stroke:#0F172A;stroke-width:1;" x1="784.6519" x2="1089.7407" y1="650" y2="650"/><text fill="#000000" font-family="Helvetica" font-size="14" lengthAdjust="spacing" textLength="245.8682" x="791.6519" y="644.7803">GetCloudVmClusterUpdateHistoryEntry</text></g><path d="M694.4556,679 L753.2212,679 L753.2212,685 L743.2212,695 L686.4556,695 L686.4556,687 A8,8 0 0 1 694.4556,679" fill="#F8FAFC" style="stroke:#CBD5E1;stroke-width:1.5;"/><rect fill="none" height="130" rx="8" ry="8" style="stroke:#CBD5E1;stroke-width:1.5;" width="448.73" x="686.4556" y="679"/><text fill="#000000" font-family="Helvetica" font-size="14" font-weight="bold" lengthAdjust="spacing" textLength="21.7656" x="701.4556" y="690.7803">opt</text><text fill="#000000" font-family="Helvetica" font-size="14" font-weight="bold" lengthAdjust="spacing" textLength="120.5859" x="768.2212" y="691.7803">[delete requested]</text><g class="message" data-entity-1="part4" data-entity-2="part5" id="msg11"><polygon fill="#0F172A" points="1083.7407,711,1093.7407,715,1083.7407,719,1087.7407,715" style="stroke:#0F172A;stroke-width:1;"/><line style="stroke:#0F172A;stroke-width:1;" x1="784.6519" x2="1089.7407" y1="715" y2="715"/><text fill="#000000" font-family="Helvetica" font-size="14" lengthAdjust="spacing" textLength="263.7715" x="791.6519" y="709.7803">DeleteCloudVmClusterUpdateHistoryEntry</text></g><path d="M704.4556,730 L771.0005,730 L771.0005,736 L761.0005,746 L696.4556,746 L696.4556,738 A8,8 0 0 1 704.4556,730" fill="#F8FAFC" style="stroke:#CBD5E1;stroke-width:1.5;"/><rect fill="none" height="72" rx="8" ry="8" style="stroke:#CBD5E1;stroke-width:1.5;" width="428.73" x="696.4556" y="730"/><text fill="#000000" font-family="Helvetica" font-size="14" font-weight="bold" lengthAdjust="spacing" textLength="29.5449" x="711.4556" y="741.7803">loop</text><text fill="#000000" font-family="Helvetica" font-size="14" font-weight="bold" lengthAdjust="spacing" textLength="213.124" x="786.0005" y="742.7803">[delete confirmation DELETING]</text><g class="message" data-entity-1="part4" data-entity-2="part5" id="msg12"><polygon fill="#0F172A" points="1083.7407,790,1093.7407,794,1083.7407,798,1087.7407,794" style="stroke:#0F172A;stroke-width:1;"/><line style="stroke:#0F172A;stroke-width:1;" x1="784.6519" x2="1089.7407" y1="794" y2="794"/><text fill="#000000" font-family="Helvetica" font-size="14" lengthAdjust="spacing" textLength="245.8682" x="791.6519" y="760.7803">GetCloudVmClusterUpdateHistoryEntry</text><text fill="#000000" font-family="Helvetica" font-size="14" lengthAdjust="spacing" textLength="12.4482" x="791.6519" y="774.7803">or</text><text fill="#000000" font-family="Helvetica" font-size="14" lengthAdjust="spacing" textLength="245.0889" x="791.6519" y="788.7803">ListCloudVmClusterUpdateHistoryEntry</text></g><g class="message" data-entity-1="part4" data-entity-2="part3" id="msg13"><polygon fill="#0F172A" points="540.9321,846,530.9321,850,540.9321,854,536.9321,850" style="stroke:#0F172A;stroke-width:1;"/><line style="stroke:#0F172A;stroke-width:1;stroke-dasharray:2,2;" x1="534.9321" x2="783.6519" y1="850" y2="850"/><text fill="#000000" font-family="Helvetica" font-size="14" lengthAdjust="spacing" textLength="100.7822" x="546.9321" y="830.7803">status=required,</text><text fill="#000000" font-family="Helvetica" font-size="14" lengthAdjust="spacing" textLength="230.7197" x="546.9321" y="844.7803">finalizer=retain-until-confirmed-delete</text></g><g class="message" data-entity-1="part3" data-entity-2="part2" id="msg14"><polygon fill="#0F172A" points="302.106,888,292.106,892,302.106,896,298.106,892" style="stroke:#0F172A;stroke-width:1;"/><line style="stroke:#0F172A;stroke-width:1;stroke-dasharray:2,2;" x1="296.106" x2="528.9321" y1="892" y2="892"/><text fill="#000000" font-family="Helvetica" font-size="14" lengthAdjust="spacing" textLength="214.8262" x="308.106" y="872.7803">requeue on provisioning, updating,</text><text fill="#000000" font-family="Helvetica" font-size="14" lengthAdjust="spacing" textLength="69.2549" x="308.106" y="886.7803">terminating</text></g><path d="M789,913 L789,1299 A8,8 0 0 0 797,1307 L1121,1307 A8,8 0 0 0 1129,1299 L1129,915 L1119,905 L797,905 A8,8 0 0 0 789,913" fill="#FFF7D6" style="stroke:#B45309;stroke-width:0.5;"/><path d="M1119,905 L1119,911 A4,4 0 0 0 1123,915 L1129,915 L1119,905" fill="#FFF7D6" style="stroke:#B45309;stroke-width:0.5;"/><text fill="#334155" font-family="Helvetica" font-size="14" lengthAdjust="spacing" textLength="101.165" x="795" y="920.7803">shared diagram:</text><text fill="#334155" font-family="Helvetica" font-size="14" lengthAdjust="spacing" textLength="307.3916" x="795" y="934.7803">shared/diagrams/shared-resolution-sequence.svg</text><text fill="#334155" font-family="Helvetica" font-size="14" lengthAdjust="spacing" textLength="143.1992" x="795" y="948.7803">shared delete diagram:</text><text fill="#334155" font-family="Helvetica" font-size="14" lengthAdjust="spacing" textLength="284.833" x="795" y="962.7803">shared/diagrams/shared-delete-sequence.svg</text><text fill="#334155" font-family="Helvetica" font-size="14" lengthAdjust="spacing" textLength="280.9297" x="795" y="976.7803">Start from the shared resolution sequence for</text><text fill="#334155" font-family="Helvetica" font-size="14" lengthAdjust="spacing" textLength="260.7295" x="795" y="990.7803">OCID binding, datasource pagination, and</text><text fill="#334155" font-family="Helvetica" font-size="14" lengthAdjust="spacing" textLength="163.4268" x="795" y="1004.7803">create-or-update dispatch.</text><text fill="#334155" font-family="Helvetica" font-size="14" lengthAdjust="spacing" textLength="301.1982" x="795" y="1018.7803">Layer the shared delete sequence when finalizer</text><text fill="#334155" font-family="Helvetica" font-size="14" lengthAdjust="spacing" textLength="269.2471" x="795" y="1032.7803">retention, delete confirmation, work-request</text><text fill="#334155" font-family="Helvetica" font-size="14" lengthAdjust="spacing" textLength="199.2334" x="795" y="1046.7803">polling, or Secret cleanup apply.</text><text fill="#334155" font-family="Helvetica" font-size="14" lengthAdjust="spacing" textLength="281.709" x="795" y="1060.7803">archetype batch: Generated service-manager</text><text fill="#334155" font-family="Helvetica" font-size="14" lengthAdjust="spacing" textLength="266.1504" x="795" y="1074.7803">controllers follow the shared resolution and</text><text fill="#334155" font-family="Helvetica" font-size="14" lengthAdjust="spacing" textLength="259.9297" x="795" y="1088.7803">delete sequences with imported waits and</text><text fill="#334155" font-family="Helvetica" font-size="14" lengthAdjust="spacing" textLength="134.6064" x="795" y="1102.7803">controller-local policy.</text><text fill="#334155" font-family="Helvetica" font-size="14" lengthAdjust="spacing" textLength="109.7305" x="795" y="1116.7803">service: database</text><text fill="#334155" font-family="Helvetica" font-size="14" lengthAdjust="spacing" textLength="242.0059" x="795" y="1130.7803">slug: cloudvmclusterupdatehistoryentry</text><text fill="#334155" font-family="Helvetica" font-size="14" lengthAdjust="spacing" textLength="256.7646" x="795" y="1144.7803">kind: CloudVmClusterUpdateHistoryEntry</text><text fill="#334155" font-family="Helvetica" font-size="14" lengthAdjust="spacing" textLength="241.2402" x="795" y="1158.7803">archetype: generated-service-manager</text><text fill="#334155" font-family="Helvetica" font-size="14" lengthAdjust="spacing" textLength="156.4063" x="795" y="1172.7803">status/finalizer: required /</text><text fill="#334155" font-family="Helvetica" font-size="14" lengthAdjust="spacing" textLength="174.3027" x="795" y="1186.7803">retain-until-confirmed-delete</text><text fill="#334155" font-family="Helvetica" font-size="14" lengthAdjust="spacing" textLength="272.3984" x="795" y="1200.7803">requeue: provisioning, updating, terminating</text><text fill="#334155" font-family="Helvetica" font-size="14" lengthAdjust="spacing" textLength="295.6816" x="795" y="1214.7803">provider states: create PROVISIONING; update</text><text fill="#334155" font-family="Helvetica" font-size="14" lengthAdjust="spacing" textLength="192.165" x="795" y="1228.7803">UPDATING; delete DELETING</text><text fill="#334155" font-family="Helvetica" font-size="14" lengthAdjust="spacing" textLength="319.04" x="795" y="1242.7803">mutable/forceNew: display_name / compartment_id</text><text fill="#334155" font-family="Helvetica" font-size="14" lengthAdjust="spacing" textLength="104.3164" x="795" y="1256.7803">open gaps: none</text><text fill="#334155" font-family="Helvetica" font-size="14" lengthAdjust="spacing" textLength="224.9023" x="795" y="1270.7803">Scaffold metadata only; replace with</text><text fill="#334155" font-family="Helvetica" font-size="14" lengthAdjust="spacing" textLength="244.3232" x="795" y="1284.7803">controller-specific runtime states before</text><text fill="#334155" font-family="Helvetica" font-size="14" lengthAdjust="spacing" textLength="66.1445" x="795" y="1298.7803">promotion.</text><?plantuml-src hLPjRzis4FxENt7elhI05ITDqgOADc1riZPe5XVrsay62fewoKGeKYCfUzwm_xwZtY8vTXqWG-30rXsVU-xkkHFTlTG5jpm7j-I9MKkTGSgLG-OwouAB-yoQKYSJeuo5dr91VqdF8y6Kbyh_PhI_upd2HrGhz5BmtJup-JV2oLdFoAqrwmRzE3rv-xf_KXkFxnznIDEtoPjjBsCJj8t7ukpyzFZTbaS8tzXFJyzEpizxzWfU6AlHmiaRvgLN23FyiqGj4298kESBxd0yKQPClkKJLJgFzcj11lmedJTsSwsztR2bJ11IO_p2_DKBu5giVnW05-G_8DmatfgsCyRNU94Uavd0gBQouDhlFjztU0fAhoWTXf8ftaezBEcxCtwwk21hW2m69h58pl6aCprgrqNAKy7-PLLkyAbS8DNPesCz7Z0X8jOeXNRm-3qL_GiAeuNSDhsOpgQVPcXNKk3lNFCCxGlW3eQF1aUcaniMf01cHOqUOe-spj5GM4p0eZEgzDBek7aqJYJFgATkNF-E7boYjir7RfMr20agodRlwTeyF8awgIJB7ee5qI-z6iM0clnBdEj3Yfnhs-R87W02t33_6BhlBsqWu_mhDdG9XuPLYg43fpoTf8GECs93Z81AZOdX0_g3HqtXIP-E_XbpNnPXOQcmfFPXtfBl8T2NgLHaSF5S2vC7lUIe_NUPZC1vydt520gY7Sddt8jbs9iY55K42O3qcBlGGSQL1s6H1xrPM4XgQi7zSX_LIULwi0AKUD725XGcXF_yPVhjPdOplRkv-_2SwWRMI6y0A2jRe9rOcVeVygvndiQxmMrvV_ryzUiV_mTd-WHbrBC4ZNmnsOTxLVazZNA3IIfFfQM6XnvVNTzUFvFtN1ixrq-HPvVXTh0T8npqMhgVGm72B8xcH5fpHIzTImyzbpegjPSgQjBfzi-ZITzQDrL9IrA4XiAQbNHK1khWgEve-3RNn3wdQE5NlMMjp9OUJ0gxLskp2P-tLm-YxDglCqz33garEVWbmgDL__2wJeqDqtzLZM-LSBWAE5DQCXOyg_8rUWIS6bHFPMHirEWyaQu8A-A8tV8DLRKNh67V1LelKKFNB4RDeXrK8UyGu0ZMnjv7ZSvPGKsgkD6ypf1OqDvHo3NjHruKQdF4k1LBz9i2wKP7V892wQf351DYKFKcoflcYAxhZh9Nogptr2Xal9M5WxNqIv1vOMp0NdFfNLsQ3ZLIHd05n5aAOjQ4Zxih5dEgp69AWAPYbOjwAkfwBkkfm6egw6gLqD8yD3nTvZ5aRSxHTixrs8oxyjTw3nC4O_RZkMa68zut5j2VYig7BaxrUyN5xHxlx-_BPacoTZbUjWhejavUKgaKZacS0kzm7LT2KtppNOSh-1Y6hp5QZQIjZ1SKK1kDR2PuIgrD8AVKGjrfhDNcaf8caA15QcA_Owv08LCfm8OYK8IQFYoG6638AZT14aVTnUK_?></g></svg>