<?plantuml 1.2026.1?><svg xmlns="http://www.w3.org/2000/svg" xmlns:xlink="http://www.w3.org/1999/xlink" contentStyleType="text/css" data-diagram-type="ACTIVITY" height="2225px" preserveAspectRatio="none" style="width:1251px;height:2225px;background:#FCFCFD;" version="1.1" viewBox="0 0 1251 2225" width="1251px" zoomAndPan="magnify"><title>Activity - core/CoreBootVolumeReplicas</title><defs/><g><rect fill="#FCFCFD" height="2225" style="stroke:none;stroke-width:1;" width="1251" x="0" y="0"/><g class="title" data-source-line="10"><text fill="#000000" font-family="Helvetica" font-size="14" font-weight="bold" lengthAdjust="spacing" textLength="268.3994" x="490.1226" y="30.7803">Activity - core/CoreBootVolumeReplicas</text></g><ellipse cx="665.2975" cy="55" fill="#1D4ED8" rx="10" ry="10" style="stroke:#222222;stroke-width:1;"/><rect fill="none" height="458" rx="8" ry="8" style="stroke:#000000;stroke-width:1.5;" width="622.4512" x="382.6803" y="75"/><path d="M504.7487,75 L504.7487,82 L494.7487,92 L382.6803,92" fill="none" style="stroke:#000000;stroke-width:1.5;"/><text fill="#000000" font-family="Helvetica" font-size="14" lengthAdjust="spacing" textLength="112.0684" x="385.6803" y="86.7803">Observe and Bind</text><rect fill="#F8FAFC" height="48" rx="8" ry="8" style="stroke:#0F172A;stroke-width:0.5;" width="304.7852" x="512.9049" y="109"/><text fill="#0F172A" font-family="Helvetica" font-size="14" lengthAdjust="spacing" textLength="136.9375" x="522.9049" y="129.7803">Start from shared flow</text><text fill="#0F172A" font-family="Helvetica" font-size="14" lengthAdjust="spacing" textLength="284.7852" x="522.9049" y="143.7803">shared/diagrams/shared-reconcile-activity.svg</text><rect fill="#F8FAFC" height="48" rx="8" ry="8" style="stroke:#0F172A;stroke-width:0.5;" width="304.8193" x="512.8878" y="177"/><text fill="#0F172A" font-family="Helvetica" font-size="14" lengthAdjust="spacing" textLength="284.8193" x="522.8878" y="197.7803">Read desired CoreBootVolumeReplicas spec,</text><text fill="#0F172A" font-family="Helvetica" font-size="14" lengthAdjust="spacing" textLength="198.4609" x="522.8878" y="211.7803">tracked status, and delete intent</text><polygon fill="#E2E8F0" points="535.8317,245,794.7633,245,806.7633,257,794.7633,269,535.8317,269,523.8317,257,535.8317,245" style="stroke:#1D4ED8;stroke-width:0.5;"/><text fill="#0F172A" font-family="Helvetica" font-size="14" lengthAdjust="spacing" textLength="258.9316" x="535.8317" y="260.7803">"Tracked or explicit OCI identity present?"</text><text fill="#000000" font-family="Helvetica" font-size="14" lengthAdjust="spacing" textLength="21.7861" x="502.0455" y="253.7803">yes</text><text fill="#000000" font-family="Helvetica" font-size="14" lengthAdjust="spacing" textLength="15.5723" x="806.7633" y="253.7803">no</text><rect fill="#F8FAFC" height="48" rx="8" ry="8" style="stroke:#0F172A;stroke-width:0.5;" width="222.3027" x="402.6803" y="279"/><text fill="#0F172A" font-family="Helvetica" font-size="14" lengthAdjust="spacing" textLength="202.3027" x="412.6803" y="299.7803">Get the current OCI resource via</text><text fill="#0F172A" font-family="Helvetica" font-size="14" lengthAdjust="spacing" textLength="182.8682" x="412.6803" y="313.7803">GetCoreBootVolumeReplicas</text><rect fill="#F8FAFC" height="62" rx="8" ry="8" style="stroke:#0F172A;stroke-width:0.5;" width="279.9092" x="676.8087" y="279"/><text fill="#0F172A" font-family="Helvetica" font-size="14" lengthAdjust="spacing" textLength="259.9092" x="686.8087" y="299.7803">Resolve an existing OCI resource through</text><text fill="#0F172A" font-family="Helvetica" font-size="14" lengthAdjust="spacing" textLength="256.7852" x="686.8087" y="313.7803">ListCoreBootVolumeReplicas using filters</text><text fill="#0F172A" font-family="Helvetica" font-size="14" lengthAdjust="spacing" textLength="138.5098" x="686.8087" y="327.7803">compartment_id, state</text><rect fill="#F8FAFC" height="62" rx="8" ry="8" style="stroke:#0F172A;stroke-width:0.5;" width="336.7363" x="648.3951" y="361"/><text fill="#0F172A" font-family="Helvetica" font-size="14" lengthAdjust="spacing" textLength="174.2959" x="658.3951" y="381.7803">Create the OCI resource via</text><text fill="#0F172A" font-family="Helvetica" font-size="14" lengthAdjust="spacing" textLength="316.7363" x="658.3951" y="395.7803">CreateCoreBootVolumeReplicas when no reusable</text><text fill="#0F172A" font-family="Helvetica" font-size="14" lengthAdjust="spacing" textLength="91.0479" x="658.3951" y="409.7803">match is found</text><rect fill="#F8FAFC" height="48" rx="8" ry="8" style="stroke:#0F172A;stroke-width:0.5;" width="286.8955" x="673.3156" y="443"/><text fill="#0F172A" font-family="Helvetica" font-size="14" lengthAdjust="spacing" textLength="266.8955" x="683.3156" y="463.7803">Persist the resolved or created OCI identity</text><text fill="#0F172A" font-family="Helvetica" font-size="14" lengthAdjust="spacing" textLength="63.8135" x="683.3156" y="477.7803">into status</text><polygon fill="#E2E8F0" points="665.2975,497,677.2975,509,665.2975,521,653.2975,509,665.2975,497" style="stroke:#1D4ED8;stroke-width:0.5;"/><polygon fill="#E2E8F0" points="603.1212,553,727.4738,553,739.4738,565,727.4738,577,603.1212,577,591.1212,565,603.1212,553" style="stroke:#1D4ED8;stroke-width:0.5;"/><text fill="#0F172A" font-family="Helvetica" font-size="14" lengthAdjust="spacing" textLength="124.3525" x="603.1212" y="568.7803">"Delete requested?"</text><text fill="#000000" font-family="Helvetica" font-size="14" lengthAdjust="spacing" textLength="21.7861" x="569.3351" y="561.7803">yes</text><text fill="#000000" font-family="Helvetica" font-size="14" lengthAdjust="spacing" textLength="15.5723" x="739.4738" y="561.7803">no</text><rect fill="none" height="363" rx="8" ry="8" style="stroke:#000000;stroke-width:1.5;" width="644.4814" x="11" y="587"/><path d="M61.4688,587 L61.4688,594 L51.4688,604 L11,604" fill="none" style="stroke:#000000;stroke-width:1.5;"/><text fill="#000000" font-family="Helvetica" font-size="14" lengthAdjust="spacing" textLength="40.4688" x="14" y="598.7803">Delete</text><rect fill="#F8FAFC" height="76" rx="8" ry="8" style="stroke:#0F172A;stroke-width:0.5;" width="329.7295" x="174.8794" y="621"/><text fill="#0F172A" font-family="Helvetica" font-size="14" lengthAdjust="spacing" textLength="309.7295" x="184.8794" y="641.7803">Delete path uses DeleteCoreBootVolumeReplicas</text><text fill="#0F172A" font-family="Helvetica" font-size="14" lengthAdjust="spacing" textLength="305.0332" x="184.8794" y="655.7803">with required via GetCoreBootVolumeReplicas or</text><text fill="#0F172A" font-family="Helvetica" font-size="14" lengthAdjust="spacing" textLength="266.1162" x="184.8794" y="669.7803">ListCoreBootVolumeReplicas to DELETED</text><text fill="#0F172A" font-family="Helvetica" font-size="14" lengthAdjust="spacing" textLength="76.2549" x="184.8794" y="683.7803">confirmation</text><rect fill="#F8FAFC" height="62" rx="8" ry="8" style="stroke:#0F172A;stroke-width:0.5;" width="330.4814" x="174.5034" y="732"/><text fill="#0F172A" font-family="Helvetica" font-size="14" lengthAdjust="spacing" textLength="310.4814" x="184.5034" y="752.7803">Confirm deletion via GetCoreBootVolumeReplicas</text><text fill="#0F172A" font-family="Helvetica" font-size="14" lengthAdjust="spacing" textLength="256.7783" x="184.5034" y="766.7803">or ListCoreBootVolumeReplicas until OCI</text><text fill="#0F172A" font-family="Helvetica" font-size="14" lengthAdjust="spacing" textLength="118.2686" x="184.5034" y="780.7803">reaches DELETED</text><polygon fill="#E2E8F0" points="191.5718,826,487.9165,826,499.9165,838,487.9165,850,191.5718,850,179.5718,838,191.5718,826" style="stroke:#1D4ED8;stroke-width:0.5;"/><text fill="#0F172A" font-family="Helvetica" font-size="14" lengthAdjust="spacing" textLength="296.3447" x="191.5718" y="841.7803">"Delete cleanup and finalizer release succeed?"</text><text fill="#000000" font-family="Helvetica" font-size="14" lengthAdjust="spacing" textLength="21.7861" x="157.7856" y="834.7803">yes</text><text fill="#000000" font-family="Helvetica" font-size="14" lengthAdjust="spacing" textLength="15.5723" x="499.9165" y="834.7803">no</text><rect fill="#F8FAFC" height="34" rx="8" ry="8" style="stroke:#0F172A;stroke-width:0.5;" width="293.1436" x="23" y="860"/><text fill="#0F172A" font-family="Helvetica" font-size="14" lengthAdjust="spacing" textLength="273.1436" x="33" y="880.7803">Remove the finalizer after delete completion</text><rect fill="#F8FAFC" height="48" rx="8" ry="8" style="stroke:#0F172A;stroke-width:0.5;" width="251.1299" x="384.3516" y="860"/><text fill="#0F172A" font-family="Helvetica" font-size="14" lengthAdjust="spacing" textLength="231.1299" x="394.3516" y="880.7803">Stay blocked until cleanup or finalizer</text><text fill="#0F172A" font-family="Helvetica" font-size="14" lengthAdjust="spacing" textLength="108.9512" x="394.3516" y="894.7803">release succeeds</text><polygon fill="#E2E8F0" points="339.7441,914,351.7441,926,339.7441,938,327.7441,926,339.7441,914" style="stroke:#1D4ED8;stroke-width:0.5;"/><ellipse cx="339.7441" cy="996" fill="none" rx="11" ry="11" style="stroke:#222222;stroke-width:1;"/><ellipse cx="339.7441" cy="996" fill="#222222" rx="6" ry="6" style="stroke:#222222;stroke-width:1;"/><rect fill="none" height="440" rx="8" ry="8" style="stroke:#000000;stroke-width:1.5;" width="345.916" x="823.8928" y="587"/><path d="M974.7268,587 L974.7268,594 L964.7268,604 L823.8928,604" fill="none" style="stroke:#000000;stroke-width:1.5;"/><text fill="#000000" font-family="Helvetica" font-size="14" lengthAdjust="spacing" textLength="140.834" x="826.8928" y="598.7803">Lifecycle Classification</text><rect fill="#F8FAFC" height="48" rx="8" ry="8" style="stroke:#0F172A;stroke-width:0.5;" width="280.5928" x="850.5544" y="670"/><text fill="#0F172A" font-family="Helvetica" font-size="14" lengthAdjust="spacing" textLength="240.4541" x="860.5544" y="690.7803">Request requeue while OCI remains in</text><text fill="#0F172A" font-family="Helvetica" font-size="14" lengthAdjust="spacing" textLength="260.5928" x="860.5544" y="704.7803">PROVISIONING, UPDATING, DELETING</text><ellipse cx="990.8508" cy="764" fill="none" rx="11" ry="11" style="stroke:#222222;stroke-width:1;"/><ellipse cx="990.8508" cy="764" fill="#222222" rx="6" ry="6" style="stroke:#222222;stroke-width:1;"/><polygon fill="#E2E8F0" points="904.5676,621,1077.134,621,1089.134,633,1077.134,645,904.5676,645,892.5676,633,904.5676,621" style="stroke:#1D4ED8;stroke-width:0.5;"/><text fill="#000000" font-family="Helvetica" font-size="14" lengthAdjust="spacing" textLength="21.7861" x="994.8508" y="655.7803">yes</text><text fill="#0F172A" font-family="Helvetica" font-size="14" lengthAdjust="spacing" textLength="172.5664" x="904.5676" y="636.7803">"OCI state in retryable set?"</text><rect fill="#F8FAFC" height="48" rx="8" ry="8" style="stroke:#0F172A;stroke-width:0.5;" width="293.916" x="843.8928" y="887"/><text fill="#0F172A" font-family="Helvetica" font-size="14" lengthAdjust="spacing" textLength="273.916" x="853.8928" y="907.7803">Return an unsuccessful reconcile result until</text><text fill="#0F172A" font-family="Helvetica" font-size="14" lengthAdjust="spacing" textLength="133.041" x="853.8928" y="921.7803">OCI reaches ACTIVE</text><ellipse cx="990.8508" cy="973" fill="none" rx="11" ry="11" style="stroke:#222222;stroke-width:1;"/><ellipse cx="990.8508" cy="973" fill="#222222" rx="6" ry="6" style="stroke:#222222;stroke-width:1;"/><polygon fill="#E2E8F0" points="870.3298,838,1111.3718,838,1123.3718,850,1111.3718,862,870.3298,862,858.3298,850,870.3298,838" style="stroke:#1D4ED8;stroke-width:0.5;"/><text fill="#000000" font-family="Helvetica" font-size="14" lengthAdjust="spacing" textLength="21.7861" x="994.8508" y="872.7803">yes</text><text fill="#0F172A" font-family="Helvetica" font-size="14" lengthAdjust="spacing" textLength="241.042" x="870.3298" y="853.7803">"OCI state is outside success targets?"</text><rect fill="none" height="722.5" rx="8" ry="8" style="stroke:#000000;stroke-width:1.5;" width="565.1631" x="675.4814" y="1037"/><path d="M841.9014,1037 L841.9014,1044 L831.9014,1054 L675.4814,1054" fill="none" style="stroke:#000000;stroke-width:1.5;"/><text fill="#000000" font-family="Helvetica" font-size="14" lengthAdjust="spacing" textLength="156.4199" x="678.4814" y="1048.7803">Ready and Drift Handling</text><rect fill="#F8FAFC" height="48" rx="8" ry="8" style="stroke:#0F172A;stroke-width:0.5;" width="296.2402" x="842.7307" y="1071"/><text fill="#0F172A" font-family="Helvetica" font-size="14" lengthAdjust="spacing" textLength="276.2402" x="852.7307" y="1091.7803">Compare live OCI state against the imported</text><text fill="#0F172A" font-family="Helvetica" font-size="14" lengthAdjust="spacing" textLength="75.4824" x="852.7307" y="1105.7803">field surface</text><rect fill="#F8FAFC" height="48" rx="8" ry="8" style="stroke:#0F172A;stroke-width:0.5;" width="302.4473" x="839.6272" y="1188"/><text fill="#0F172A" font-family="Helvetica" font-size="14" lengthAdjust="spacing" textLength="282.4473" x="849.6272" y="1208.7803">Reject drift before OCI mutation for force-new</text><text fill="#0F172A" font-family="Helvetica" font-size="14" lengthAdjust="spacing" textLength="136.9512" x="849.6272" y="1222.7803">fields compartment_id</text><ellipse cx="990.8508" cy="1268.5" fill="none" rx="11" ry="11" style="stroke:#222222;stroke-width:1;"/><ellipse cx="990.8508" cy="1268.5" fill="#222222" rx="6" ry="6" style="stroke:#222222;stroke-width:1;"/><polygon fill="#E2E8F0" points="865.2678,1139,1116.4338,1139,1128.4338,1151,1116.4338,1163,865.2678,1163,853.2678,1151,865.2678,1139" style="stroke:#1D4ED8;stroke-width:0.5;"/><text fill="#000000" font-family="Helvetica" font-size="14" lengthAdjust="spacing" textLength="21.7861" x="994.8508" y="1173.7803">yes</text><text fill="#0F172A" font-family="Helvetica" font-size="14" lengthAdjust="spacing" textLength="251.166" x="865.2678" y="1154.7803">"Force-new or conflicting drift detected?"</text><polygon fill="#E2E8F0" points="880.4231,1321.5,1101.2786,1321.5,1113.2786,1333.5,1101.2786,1345.5,880.4231,1345.5,868.4231,1333.5,880.4231,1321.5" style="stroke:#1D4ED8;stroke-width:0.5;"/><text fill="#0F172A" font-family="Helvetica" font-size="14" lengthAdjust="spacing" textLength="220.8555" x="880.4231" y="1337.2803">"Supported mutable drift detected?"</text><text fill="#000000" font-family="Helvetica" font-size="14" lengthAdjust="spacing" textLength="21.7861" x="846.637" y="1330.2803">yes</text><text fill="#000000" font-family="Helvetica" font-size="14" lengthAdjust="spacing" textLength="15.5723" x="1113.2786" y="1330.2803">no</text><rect fill="#F8FAFC" height="48" rx="8" ry="8" style="stroke:#0F172A;stroke-width:0.5;" width="314.1572" x="695.4814" y="1355.5"/><text fill="#0F172A" font-family="Helvetica" font-size="14" lengthAdjust="spacing" textLength="294.1572" x="705.4814" y="1376.2803">Apply UpdateCoreBootVolumeReplicas only for</text><text fill="#0F172A" font-family="Helvetica" font-size="14" lengthAdjust="spacing" textLength="176.6543" x="705.4814" y="1390.2803">mutable fields display_name</text><rect fill="#F8FAFC" height="34" rx="8" ry="8" style="stroke:#0F172A;stroke-width:0.5;" width="199.0059" x="1029.6387" y="1355.5"/><text fill="#0F172A" font-family="Helvetica" font-size="14" lengthAdjust="spacing" textLength="179.0059" x="1039.6387" y="1376.2803">Skip the no-op mutation path</text><polygon fill="#E2E8F0" points="990.8508,1409.5,1002.8508,1421.5,990.8508,1433.5,978.8508,1421.5,990.8508,1409.5" style="stroke:#1D4ED8;stroke-width:0.5;"/><rect fill="#F8FAFC" height="118" rx="8" ry="8" style="stroke:#0F172A;stroke-width:0.5;" width="334.3164" x="823.6926" y="1453.5"/><text fill="#0F172A" font-family="Helvetica" font-size="14" lengthAdjust="spacing" textLength="164.2061" x="833.6926" y="1474.2803">Run provider helper hooks</text><text fill="#0F172A" font-family="Helvetica" font-size="14" lengthAdjust="spacing" textLength="219.0508" x="833.6926" y="1488.2803">create=tfresource.CreateResource,</text><text fill="#0F172A" font-family="Helvetica" font-size="14" lengthAdjust="spacing" textLength="314.3164" x="833.6926" y="1502.2803">tfresource.WaitForWorkRequestWithErrorHandling</text><text fill="#0F172A" font-family="Helvetica" font-size="14" lengthAdjust="spacing" textLength="215.5439" x="833.6926" y="1516.2803">entity=template action=CREATED;</text><text fill="#0F172A" font-family="Helvetica" font-size="14" lengthAdjust="spacing" textLength="226.085" x="833.6926" y="1530.2803">update=tfresource.UpdateResource;</text><text fill="#0F172A" font-family="Helvetica" font-size="14" lengthAdjust="spacing" textLength="273.5537" x="833.6926" y="1544.2803">delete=tfresource.DeleteResource when the</text><text fill="#0F172A" font-family="Helvetica" font-size="14" lengthAdjust="spacing" textLength="220.2334" x="833.6926" y="1558.2803">matching field-driven path executes</text><rect fill="#F8FAFC" height="34" rx="8" ry="8" style="stroke:#0F172A;stroke-width:0.5;" width="303.2197" x="839.241" y="1591.5"/><text fill="#0F172A" font-family="Helvetica" font-size="14" lengthAdjust="spacing" textLength="283.2197" x="849.241" y="1612.2803">Return success for the ACTIVE success state</text><rect fill="#F8FAFC" height="48" rx="8" ry="8" style="stroke:#0F172A;stroke-width:0.5;" width="279.1299" x="851.2859" y="1645.5"/><text fill="#0F172A" font-family="Helvetica" font-size="14" lengthAdjust="spacing" textLength="259.1299" x="861.2859" y="1666.2803">Project required status and finalizer policy</text><text fill="#0F172A" font-family="Helvetica" font-size="14" lengthAdjust="spacing" textLength="174.3027" x="861.2859" y="1680.2803">retain-until-confirmed-delete</text><rect fill="#F8FAFC" height="34" rx="8" ry="8" style="stroke:#0F172A;stroke-width:0.5;" width="313.4189" x="834.1414" y="1713.5"/><text fill="#0F172A" font-family="Helvetica" font-size="14" lengthAdjust="spacing" textLength="293.4189" x="844.1414" y="1734.2803">Requeue on provisioning, updating, terminating</text><path d="M696.2975,1769.5 L696.2975,1987.5 L676.2975,1991.5 L696.2975,1995.5 L696.2975,2213.5 A0,0 0 0 0 696.2975,2213.5 L1012.9791,2213.5 A0,0 0 0 0 1012.9791,2213.5 L1012.9791,1779.5 L1002.9791,1769.5 L696.2975,1769.5 A0,0 0 0 0 696.2975,1769.5" fill="#FFF7D6" style="stroke:#B45309;stroke-width:0.5;"/><path d="M1002.9791,1769.5 L1002.9791,1779.5 L1012.9791,1779.5 L1002.9791,1769.5" fill="#FFF7D6" style="stroke:#B45309;stroke-width:0.5;"/><text fill="#334155" font-family="Helvetica" font-size="14" lengthAdjust="spacing" textLength="101.165" x="702.2975" y="1785.2803">shared diagram:</text><text fill="#334155" font-family="Helvetica" font-size="14" lengthAdjust="spacing" textLength="284.7852" x="702.2975" y="1799.2803">shared/diagrams/shared-reconcile-activity.svg</text><text fill="#334155" font-family="Helvetica" font-size="14" lengthAdjust="spacing" textLength="265.3438" x="702.2975" y="1813.2803">Start from the shared reconcile activity and</text><text fill="#334155" font-family="Helvetica" font-size="14" lengthAdjust="spacing" textLength="273.8955" x="702.2975" y="1827.2803">specialize provider-backed CRUD, wait, and</text><text fill="#334155" font-family="Helvetica" font-size="14" lengthAdjust="spacing" textLength="182.875" x="702.2975" y="1841.2803">status-projection details here.</text><text fill="#334155" font-family="Helvetica" font-size="14" lengthAdjust="spacing" textLength="229.5371" x="702.2975" y="1855.2803">Controller-local activity diagrams add</text><text fill="#334155" font-family="Helvetica" font-size="14" lengthAdjust="spacing" textLength="238.8955" x="702.2975" y="1869.2803">list-lookup hints, secret policies, delete</text><text fill="#334155" font-family="Helvetica" font-size="14" lengthAdjust="spacing" textLength="200.0332" x="702.2975" y="1883.2803">handling, and open formal gaps.</text><text fill="#334155" font-family="Helvetica" font-size="14" lengthAdjust="spacing" textLength="281.709" x="702.2975" y="1897.2803">archetype batch: Generated service-manager</text><text fill="#334155" font-family="Helvetica" font-size="14" lengthAdjust="spacing" textLength="291.0469" x="702.2975" y="1911.2803">controllers specialize the shared reconcile path</text><text fill="#334155" font-family="Helvetica" font-size="14" lengthAdjust="spacing" textLength="189.8477" x="702.2975" y="1925.2803">with formal runtime ownership.</text><text fill="#334155" font-family="Helvetica" font-size="14" lengthAdjust="spacing" textLength="79.3584" x="702.2975" y="1939.2803">service: core</text><text fill="#334155" font-family="Helvetica" font-size="14" lengthAdjust="spacing" textLength="181.3164" x="702.2975" y="1953.2803">slug: corebootvolumereplicas</text><text fill="#334155" font-family="Helvetica" font-size="14" lengthAdjust="spacing" textLength="193.7646" x="702.2975" y="1967.2803">kind: CoreBootVolumeReplicas</text><text fill="#334155" font-family="Helvetica" font-size="14" lengthAdjust="spacing" textLength="241.2402" x="702.2975" y="1981.2803">archetype: generated-service-manager</text><text fill="#334155" font-family="Helvetica" font-size="14" lengthAdjust="spacing" textLength="156.4063" x="702.2975" y="1995.2803">status/finalizer: required /</text><text fill="#334155" font-family="Helvetica" font-size="14" lengthAdjust="spacing" textLength="174.3027" x="702.2975" y="2009.2803">retain-until-confirmed-delete</text><text fill="#334155" font-family="Helvetica" font-size="14" lengthAdjust="spacing" textLength="272.3984" x="702.2975" y="2023.2803">requeue: provisioning, updating, terminating</text><text fill="#334155" font-family="Helvetica" font-size="14" lengthAdjust="spacing" textLength="295.6816" x="702.2975" y="2037.2803">provider states: create PROVISIONING; update</text><text fill="#334155" font-family="Helvetica" font-size="14" lengthAdjust="spacing" textLength="192.165" x="702.2975" y="2051.2803">UPDATING; delete DELETING</text><text fill="#334155" font-family="Helvetica" font-size="14" lengthAdjust="spacing" textLength="183.6611" x="702.2975" y="2065.2803">supported drift: display_name</text><text fill="#334155" font-family="Helvetica" font-size="14" lengthAdjust="spacing" textLength="230.3301" x="702.2975" y="2079.2803">reject before mutate: force-new fields</text><text fill="#334155" font-family="Helvetica" font-size="14" lengthAdjust="spacing" textLength="100.3789" x="702.2975" y="2093.2803">compartment_id</text><text fill="#334155" font-family="Helvetica" font-size="14" lengthAdjust="spacing" textLength="66.1445" x="702.2975" y="2107.2803">list lookup:</text><text fill="#334155" font-family="Helvetica" font-size="14" lengthAdjust="spacing" textLength="276.2471" x="702.2975" y="2121.2803">scaffold_core_corebootvolumereplicas filters</text><text fill="#334155" font-family="Helvetica" font-size="14" lengthAdjust="spacing" textLength="138.5098" x="702.2975" y="2135.2803">compartment_id, state</text><text fill="#334155" font-family="Helvetica" font-size="14" lengthAdjust="spacing" textLength="89.4961" x="702.2975" y="2149.2803">conflicts: none</text><text fill="#334155" font-family="Helvetica" font-size="14" lengthAdjust="spacing" textLength="104.3164" x="702.2975" y="2163.2803">open gaps: none</text><text fill="#334155" font-family="Helvetica" font-size="14" lengthAdjust="spacing" textLength="224.9023" x="702.2975" y="2177.2803">Scaffold metadata only; replace with</text><text fill="#334155" font-family="Helvetica" font-size="14" lengthAdjust="spacing" textLength="244.3232" x="702.2975" y="2191.2803">controller-specific runtime states before</text><text fill="#334155" font-family="Helvetica" font-size="14" lengthAdjust="spacing" textLength="66.1445" x="702.2975" y="2205.2803">promotion.</text><ellipse cx="665.2975" cy="1991.5" fill="none" rx="11" ry="11" style="stroke:#222222;stroke-width:1;"/><ellipse cx="665.2975" cy="1991.5" fill="#222222" rx="6" ry="6" style="stroke:#222222;stroke-width:1;"/><line style="stroke:#0F172A;stroke-width:1;" x1="665.2975" x2="665.2975" y1="157" y2="177"/><polygon fill="#0F172A" points="661.2975,167,665.2975,177,669.2975,167,665.2975,171" style="stroke:#0F172A;stroke-width:1;"/><line style="stroke:#0F172A;stroke-width:1;" x1="816.7633" x2="816.7633" y1="341" y2="361"/><polygon fill="#0F172A" points="812.7633,351,816.7633,361,820.7633,351,816.7633,355" style="stroke:#0F172A;stroke-width:1;"/><line style="stroke:#0F172A;stroke-width:1;" x1="816.7633" x2="816.7633" y1="423" y2="443"/><polygon fill="#0F172A" points="812.7633,433,816.7633,443,820.7633,433,816.7633,437" style="stroke:#0F172A;stroke-width:1;"/><line style="stroke:#0F172A;stroke-width:1;" x1="523.8317" x2="513.8317" y1="257" y2="257"/><line style="stroke:#0F172A;stroke-width:1;" x1="513.8317" x2="513.8317" y1="257" y2="279"/><polygon fill="#0F172A" points="509.8317,269,513.8317,279,517.8317,269,513.8317,273" style="stroke:#0F172A;stroke-width:1;"/><line style="stroke:#0F172A;stroke-width:1;" x1="806.7633" x2="816.7633" y1="257" y2="257"/><line style="stroke:#0F172A;stroke-width:1;" x1="816.7633" x2="816.7633" y1="257" y2="279"/><polygon fill="#0F172A" points="812.7633,269,816.7633,279,820.7633,269,816.7633,273" style="stroke:#0F172A;stroke-width:1;"/><line style="stroke:#0F172A;stroke-width:1;" x1="513.8317" x2="513.8317" y1="327" y2="509"/><line style="stroke:#0F172A;stroke-width:1;" x1="513.8317" x2="653.2975" y1="509" y2="509"/><polygon fill="#0F172A" points="643.2975,505,653.2975,509,643.2975,513,647.2975,509" style="stroke:#0F172A;stroke-width:1;"/><line style="stroke:#0F172A;stroke-width:1;" x1="816.7633" x2="816.7633" y1="491" y2="509"/><line style="stroke:#0F172A;stroke-width:1;" x1="816.7633" x2="677.2975" y1="509" y2="509"/><polygon fill="#0F172A" points="687.2975,505,677.2975,509,687.2975,513,683.2975,509" style="stroke:#0F172A;stroke-width:1;"/><line style="stroke:#0F172A;stroke-width:1;" x1="665.2975" x2="665.2975" y1="225" y2="245"/><polygon fill="#0F172A" points="661.2975,235,665.2975,245,669.2975,235,665.2975,239" style="stroke:#0F172A;stroke-width:1;"/><line style="stroke:#0F172A;stroke-width:1;" x1="665.2975" x2="665.2975" y1="65" y2="109"/><polygon fill="#0F172A" points="661.2975,99,665.2975,109,669.2975,99,665.2975,103" style="stroke:#0F172A;stroke-width:1;"/><line style="stroke:#0F172A;stroke-width:1;" x1="339.7441" x2="339.7441" y1="697" y2="732"/><polygon fill="#0F172A" points="335.7441,722,339.7441,732,343.7441,722,339.7441,726" style="stroke:#0F172A;stroke-width:1;"/><line style="stroke:#0F172A;stroke-width:1;" x1="179.5718" x2="169.5718" y1="838" y2="838"/><line style="stroke:#0F172A;stroke-width:1;" x1="169.5718" x2="169.5718" y1="838" y2="860"/><polygon fill="#0F172A" points="165.5718,850,169.5718,860,173.5718,850,169.5718,854" style="stroke:#0F172A;stroke-width:1;"/><line style="stroke:#0F172A;stroke-width:1;" x1="499.9165" x2="509.9165" y1="838" y2="838"/><line style="stroke:#0F172A;stroke-width:1;" x1="509.9165" x2="509.9165" y1="838" y2="860"/><polygon fill="#0F172A" points="505.9165,850,509.9165,860,513.9165,850,509.9165,854" style="stroke:#0F172A;stroke-width:1;"/><line style="stroke:#0F172A;stroke-width:1;" x1="169.5718" x2="169.5718" y1="894" y2="926"/><line style="stroke:#0F172A;stroke-width:1;" x1="169.5718" x2="327.7441" y1="926" y2="926"/><polygon fill="#0F172A" points="317.7441,922,327.7441,926,317.7441,930,321.7441,926" style="stroke:#0F172A;stroke-width:1;"/><line style="stroke:#0F172A;stroke-width:1;" x1="509.9165" x2="509.9165" y1="908" y2="926"/><line style="stroke:#0F172A;stroke-width:1;" x1="509.9165" x2="351.7441" y1="926" y2="926"/><polygon fill="#0F172A" points="361.7441,922,351.7441,926,361.7441,930,357.7441,926" style="stroke:#0F172A;stroke-width:1;"/><line style="stroke:#0F172A;stroke-width:1;" x1="339.7441" x2="339.7441" y1="794" y2="826"/><polygon fill="#0F172A" points="335.7441,816,339.7441,826,343.7441,816,339.7441,820" style="stroke:#0F172A;stroke-width:1;"/><line style="stroke:#0F172A;stroke-width:1;" x1="339.7441" x2="339.7441" y1="938" y2="985"/><polygon fill="#0F172A" points="335.7441,975,339.7441,985,343.7441,975,339.7441,979" style="stroke:#0F172A;stroke-width:1;"/><line style="stroke:#0F172A;stroke-width:1;" x1="990.8508" x2="990.8508" y1="718" y2="753"/><polygon fill="#0F172A" points="986.8508,743,990.8508,753,994.8508,743,990.8508,747" style="stroke:#0F172A;stroke-width:1;"/><line style="stroke:#0F172A;stroke-width:1;" x1="990.8508" x2="990.8508" y1="645" y2="670"/><polygon fill="#0F172A" points="986.8508,660,990.8508,670,994.8508,660,990.8508,664" style="stroke:#0F172A;stroke-width:1;"/><line style="stroke:#0F172A;stroke-width:1;" x1="1089.134" x2="1141.1472" y1="633" y2="633"/><polygon fill="#0F172A" points="1137.1472,709.5,1141.1472,719.5,1145.1472,709.5,1141.1472,713.5" style="stroke:#0F172A;stroke-width:1;"/><line style="stroke:#0F172A;stroke-width:1;" x1="1141.1472" x2="1141.1472" y1="633" y2="806"/><line style="stroke:#0F172A;stroke-width:1;" x1="1141.1472" x2="990.8508" y1="806" y2="806"/><line style="stroke:#0F172A;stroke-width:1;" x1="990.8508" x2="990.8508" y1="806" y2="838"/><polygon fill="#0F172A" points="986.8508,828,990.8508,838,994.8508,828,990.8508,832" style="stroke:#0F172A;stroke-width:1;"/><line style="stroke:#0F172A;stroke-width:1;" x1="990.8508" x2="990.8508" y1="935" y2="962"/><polygon fill="#0F172A" points="986.8508,952,990.8508,962,994.8508,952,990.8508,956" style="stroke:#0F172A;stroke-width:1;"/><line style="stroke:#0F172A;stroke-width:1;" x1="990.8508" x2="990.8508" y1="862" y2="887"/><polygon fill="#0F172A" points="986.8508,877,990.8508,887,994.8508,877,990.8508,881" style="stroke:#0F172A;stroke-width:1;"/><line style="stroke:#0F172A;stroke-width:1;" x1="1123.3718" x2="1147.8088" y1="850" y2="850"/><polygon fill="#0F172A" points="1143.8088,926.5,1147.8088,936.5,1151.8088,926.5,1147.8088,930.5" style="stroke:#0F172A;stroke-width:1;"/><line style="stroke:#0F172A;stroke-width:1;" x1="1147.8088" x2="1147.8088" y1="850" y2="1015"/><line style="stroke:#0F172A;stroke-width:1;" x1="1147.8088" x2="990.8508" y1="1015" y2="1015"/><line style="stroke:#0F172A;stroke-width:1;" x1="990.8508" x2="990.8508" y1="1015" y2="1071"/><polygon fill="#0F172A" points="986.8508,1061,990.8508,1071,994.8508,1061,990.8508,1065" style="stroke:#0F172A;stroke-width:1;"/><line style="stroke:#0F172A;stroke-width:1;" x1="990.8508" x2="990.8508" y1="1236" y2="1257.5"/><polygon fill="#0F172A" points="986.8508,1247.5,990.8508,1257.5,994.8508,1247.5,990.8508,1251.5" style="stroke:#0F172A;stroke-width:1;"/><line style="stroke:#0F172A;stroke-width:1;" x1="990.8508" x2="990.8508" y1="1163" y2="1188"/><polygon fill="#0F172A" points="986.8508,1178,990.8508,1188,994.8508,1178,990.8508,1182" style="stroke:#0F172A;stroke-width:1;"/><line style="stroke:#0F172A;stroke-width:1;" x1="1128.4338" x2="1152.0745" y1="1151" y2="1151"/><polygon fill="#0F172A" points="1148.0745,1227.5,1152.0745,1237.5,1156.0745,1227.5,1152.0745,1231.5" style="stroke:#0F172A;stroke-width:1;"/><line style="stroke:#0F172A;stroke-width:1;" x1="1152.0745" x2="1152.0745" y1="1151" y2="1301.5"/><line style="stroke:#0F172A;stroke-width:1;" x1="1152.0745" x2="990.8508" y1="1301.5" y2="1301.5"/><line style="stroke:#0F172A;stroke-width:1;" x1="990.8508" x2="990.8508" y1="1301.5" y2="1321.5"/><polygon fill="#0F172A" points="986.8508,1311.5,990.8508,1321.5,994.8508,1311.5,990.8508,1315.5" style="stroke:#0F172A;stroke-width:1;"/><line style="stroke:#0F172A;stroke-width:1;" x1="990.8508" x2="990.8508" y1="1119" y2="1139"/><polygon fill="#0F172A" points="986.8508,1129,990.8508,1139,994.8508,1129,990.8508,1133" style="stroke:#0F172A;stroke-width:1;"/><line style="stroke:#0F172A;stroke-width:1;" x1="868.4231" x2="852.5601" y1="1333.5" y2="1333.5"/><line style="stroke:#0F172A;stroke-width:1;" x1="852.5601" x2="852.5601" y1="1333.5" y2="1355.5"/><polygon fill="#0F172A" points="848.5601,1345.5,852.5601,1355.5,856.5601,1345.5,852.5601,1349.5" style="stroke:#0F172A;stroke-width:1;"/><line style="stroke:#0F172A;stroke-width:1;" x1="1113.2786" x2="1129.1416" y1="1333.5" y2="1333.5"/><line style="stroke:#0F172A;stroke-width:1;" x1="1129.1416" x2="1129.1416" y1="1333.5" y2="1355.5"/><polygon fill="#0F172A" points="1125.1416,1345.5,1129.1416,1355.5,1133.1416,1345.5,1129.1416,1349.5" style="stroke:#0F172A;stroke-width:1;"/><line style="stroke:#0F172A;stroke-width:1;" x1="852.5601" x2="852.5601" y1="1403.5" y2="1421.5"/><line style="stroke:#0F172A;stroke-width:1;" x1="852.5601" x2="978.8508" y1="1421.5" y2="1421.5"/><polygon fill="#0F172A" points="968.8508,1417.5,978.8508,1421.5,968.8508,1425.5,972.8508,1421.5" style="stroke:#0F172A;stroke-width:1;"/><line style="stroke:#0F172A;stroke-width:1;" x1="1129.1416" x2="1129.1416" y1="1389.5" y2="1421.5"/><line style="stroke:#0F172A;stroke-width:1;" x1="1129.1416" x2="1002.8508" y1="1421.5" y2="1421.5"/><polygon fill="#0F172A" points="1012.8508,1417.5,1002.8508,1421.5,1012.8508,1425.5,1008.8508,1421.5" style="stroke:#0F172A;stroke-width:1;"/><line style="stroke:#0F172A;stroke-width:1;" x1="990.8508" x2="990.8508" y1="1433.5" y2="1453.5"/><polygon fill="#0F172A" points="986.8508,1443.5,990.8508,1453.5,994.8508,1443.5,990.8508,1447.5" style="stroke:#0F172A;stroke-width:1;"/><line style="stroke:#0F172A;stroke-width:1;" x1="990.8508" x2="990.8508" y1="1571.5" y2="1591.5"/><polygon fill="#0F172A" points="986.8508,1581.5,990.8508,1591.5,994.8508,1581.5,990.8508,1585.5" style="stroke:#0F172A;stroke-width:1;"/><line style="stroke:#0F172A;stroke-width:1;" x1="990.8508" x2="990.8508" y1="1625.5" y2="1645.5"/><polygon fill="#0F172A" points="986.8508,1635.5,990.8508,1645.5,994.8508,1635.5,990.8508,1639.5" style="stroke:#0F172A;stroke-width:1;"/><line style="stroke:#0F172A;stroke-width:1;" x1="990.8508" x2="990.8508" y1="1693.5" y2="1713.5"/><polygon fill="#0F172A" points="986.8508,1703.5,990.8508,1713.5,994.8508,1703.5,990.8508,1707.5" style="stroke:#0F172A;stroke-width:1;"/><line style="stroke:#0F172A;stroke-width:1;" x1="591.1212" x2="339.7441" y1="565" y2="565"/><line style="stroke:#0F172A;stroke-width:1;" x1="339.7441" x2="339.7441" y1="565" y2="621"/><polygon fill="#0F172A" points="335.7441,611,339.7441,621,343.7441,611,339.7441,615" style="stroke:#0F172A;stroke-width:1;"/><line style="stroke:#0F172A;stroke-width:1;" x1="739.4738" x2="990.8508" y1="565" y2="565"/><line style="stroke:#0F172A;stroke-width:1;" x1="990.8508" x2="990.8508" y1="565" y2="621"/><polygon fill="#0F172A" points="986.8508,611,990.8508,621,994.8508,611,990.8508,615" style="stroke:#0F172A;stroke-width:1;"/><line style="stroke:#0F172A;stroke-width:1;" x1="990.8508" x2="990.8508" y1="1747.5" y2="1764.5"/><line style="stroke:#0F172A;stroke-width:1;" x1="990.8508" x2="665.2975" y1="1764.5" y2="1764.5"/><line style="stroke:#0F172A;stroke-width:1;" x1="665.2975" x2="665.2975" y1="1764.5" y2="1980.5"/><polygon fill="#0F172A" points="661.2975,1970.5,665.2975,1980.5,669.2975,1970.5,665.2975,1974.5" style="stroke:#0F172A;stroke-width:1;"/><line style="stroke:#0F172A;stroke-width:1;" x1="665.2975" x2="665.2975" y1="521" y2="553"/><polygon fill="#0F172A" points="661.2975,543,665.2975,553,669.2975,543,665.2975,547" style="stroke:#0F172A;stroke-width:1;"/><?plantuml-src bLTjRzis4FwkNq5aNreWJfg-pqOnf4ww1YYQ84dRBm82MZhPN2XI8obxtj3_leSlacN72JO4JINnUBnxxhc75tilLCCDhvbTy5AlX9gpYajBcUrNPhoudnlTgdAgfJRibwh0JpcmAAdYhNIVj79VUKtiCyabEL7m_JOtuczY9wy7YzmOlKhUNrGdxruETohjwEE36AhgNVbsrqgRaaoocBr-y-h5hpiM_lYq_khLwvCtRmRhmNsXZIB3JjvcJZX9xBHmOYdSceqObkXuYbyVjNRVjMnhkgP68aqxJANRy4_6za3tlk9LuLU6eQQK6QisuVNVIi5hhSe72D1BUb-z61WCFPwKhwbylrdyjCUnTTouNNlg_VTsCxxZzMSMjcP86209hTZ1vSoIMHBZgcGVXIeFaFxunbknokZ0BaCbgwHUvIg-72EqEH2pn_5zPAZGgX2IHXs6HtOvdsJZQ-8b-6E5Tx6_0CmsL1pcoXd012i4w5fx6E8fIP8Z9fGZvIQPgDYpWzjaXwpeB-z2E7OvlM2YX8slNcF8ul6tW-VCBKYnPskopxFnx-JyEojQOx0Szi1IjwOWjXGyLx3O7-8a8_GLUwRqSv-IrJBWXVE5TRxljdov1MezN-Jg2rOVoRcreLs5T6HihWfT-uhKYEjEb8S10m9yKqDu264_33SkFdB0ocUkDBQqbiyavQhchbWmOS5KC17Eht0q8WpUJKmge5e4l-KMgBb23NIg3U1GfQX0fb2GirWaGt-sPB5n1_W1rQ9b85ZQr72t01XaMVomFvjShGJi_0c1I4YVFLeifF0az4ZZxFpB-UtvcSTTLS806OJduOwlaNO-uYSFoXN0Ugh6G4vw57C5H8k5Jp8UFDa2hf34LTi4mbT2SGcDDKWMdq4wsnO5FG0LBAprCZ9ZiuTNe5FND9vJCOqj-gAprsmcTUYX668N0DBfVVcOjm8OLDqwtGnS3WhyHLHKhE6FJIMtLbG0mg_uaeUKFQS2kT7JID6PjISdi-GU9XZe56dL4WWDUKbTK7EXB3pawkhwyll5pSNbruklln-oRrTdfxVXAG2DfqaADaI-6m6eqZeBYiSSBRZ1pPoSVHYBQuto7T-gP5gralMgvzi75sI4CrSno5Znq-djnVVphJ1-3X7p0haEfJypedBiCnubj24qoJJ80Z4fbZ7r63YV-_nZuugwqGPDbuEv9A6UhQbuGObXdpJKOgHe5VeQx0OpWs2LuR0IF2dSFdBzWU_9Q4OL-1sEhriNoWa9CVvVz9sEjcnRnHv2VzCsCTZWoDVzwJ1EcqQksRUcV5pcj895vJk-SvbYAOLj95_VAGmrs_o_5qr0JkcHRZOfUINgA3w-Rl71w2MuOTY2PEF_q_hUItLGnm-kwiJuAEhmTNhrDzbcxGSNc9lC3stk4w5_GCdECJEPhjAvYXBxmH4QDjIty15zc5wVdtgnoD6RvSwP4PJkJ9Z4fX-QH7NfJEA5WBpJHH2l7q0rGWsM5FF7XKP5wyXEUivtdU4hxb6BVEu_TnVLbT61Chr4nvjYHzCQZQgjlRGuC7WKscMKD1XJHCnXadeVFQzJ5IpWGC27B00HdY1qDVpwbmawAjOj4CxFYio8-S9bQNH9qyeu-r_JIpQOWNpcoTccwVjn4KbcVeWH8SsUEADP75Icrz_E3jaAJ3YCfW6QKHCXyzmhFHxIWcc6ZZBSGiveAU41Citbvg0kSCRBCfEuUM2Wxw7SAAV3o6G9x7GHPa7u417D5ebgSQZI3OKEhk5wpXjxb743hNBhXZ0mWXjZt7cOfCCGu6T3WJwlkU9pCbdH1nS7jvJpNe0yfR9mSwVJZAyu_iZGAxYt2z4SPSd_E8pecPNjF3xEqElBqEkc6zGnfvVZHuR8JGfZDk-27-q67v4_xWavtl3rE7kIb5cwXiR_XP1PBnsXFUmuZLHiU5jDubxAkajhqbtStTsLsLulWqwEjqGD4OMEI_8ST0pXzQgSX33R5kN06XPPWtueU5LfMTvvnE_smzuDgTdU6JNhBXKagRIYB93BiogztwGZM0ruaIyFaZrXtZttiWHw34Wr2fp2sD1p9KAOqlJ8rjhtp95l-V1tuRy0?></g></svg>