<?plantuml 1.2026.2?><svg xmlns="http://www.w3.org/2000/svg" xmlns:xlink="http://www.w3.org/1999/xlink" contentStyleType="text/css" data-diagram-type="SEQUENCE" height="2104px" preserveAspectRatio="none" style="width:1219px;height:2104px;background:#FCFCFD;" version="1.1" viewBox="0 0 1219 2104" width="1219px" zoomAndPan="magnify"><title>Sequence - opsi/OperationsInsightsWarehouseUser</title><defs/><g><rect fill="#FCFCFD" height="2104" style="stroke:none;stroke-width:1;" width="1219" x="0" y="0"/><text fill="#000000" font-family="Helvetica" font-size="14" font-weight="bold" lengthAdjust="spacing" textLength="345.4131" x="443.2722" y="25.7803">Sequence - opsi/OperationsInsightsWarehouseUser</text><rect fill="none" height="290" rx="8" ry="8" style="stroke:#CBD5E1;stroke-width:1.5;" width="738.3779" x="458.4873" y="356"/><rect fill="none" height="146" rx="8" ry="8" style="stroke:#CBD5E1;stroke-width:1.5;" width="475.9575" x="710.9077" y="465"/><rect fill="none" height="44" rx="8" ry="8" style="stroke:#CBD5E1;stroke-width:1.5;" width="455.9575" x="720.9077" y="516"/><rect fill="none" height="868" rx="8" ry="8" style="stroke:#CBD5E1;stroke-width:1.5;" width="774.4702" x="438.4873" y="660"/><rect fill="none" height="302" rx="8" ry="8" style="stroke:#CBD5E1;stroke-width:1.5;" width="738.3779" x="448.4873" y="683"/><rect fill="none" height="72" rx="8" ry="8" style="stroke:#CBD5E1;stroke-width:1.5;" width="455.9575" x="720.9077" y="804"/><rect fill="none" height="88" rx="8" ry="8" style="stroke:#CBD5E1;stroke-width:1.5;" width="438.813" x="458.4873" y="890"/><rect fill="none" height="392" rx="8" ry="8" style="stroke:#CBD5E1;stroke-width:1.5;" width="754.4702" x="448.4873" y="1087"/><rect fill="none" height="44" rx="8" ry="8" style="stroke:#CBD5E1;stroke-width:1.5;" width="438.813" x="458.4873" y="1186"/><rect fill="none" height="130" rx="8" ry="8" style="stroke:#CBD5E1;stroke-width:1.5;" width="475.9575" x="710.9077" y="1244"/><rect fill="none" height="44" rx="8" ry="8" style="stroke:#CBD5E1;stroke-width:1.5;" width="455.9575" x="720.9077" y="1323"/><g class="participant-lifeline" data-entity-uid="part1" data-qualified-name="Kubernetes" id="part1-lifeline"><g><title>Kubernetes</title><rect fill="#000000" fill-opacity="0.00000" height="1983" width="8" x="39.8032" y="114"/><line style="stroke:#94A3B8;stroke-width:0.5;stroke-dasharray:5,5;" x1="43" x2="43" y1="114" y2="2097"/></g></g><g class="participant-lifeline" data-entity-uid="part2" data-qualified-name="Controller" id="part2-lifeline"><g><title>Controller</title><rect fill="#000000" fill-opacity="0.00000" height="1983" width="8" x="281.6851" y="114"/><line style="stroke:#94A3B8;stroke-width:0.5;stroke-dasharray:5,5;" x1="285.3403" x2="285.3403" y1="114" y2="2097"/></g></g><g class="participant-lifeline" data-entity-uid="part3" data-qualified-name="BaseReconciler" id="part3-lifeline"><g><title>BaseReconciler</title><rect fill="#000000" fill-opacity="0.00000" height="1983" width="8" x="520.5112" y="114"/><line style="stroke:#94A3B8;stroke-width:0.5;stroke-dasharray:5,5;" x1="524.4873" x2="524.4873" y1="114" y2="2097"/></g></g><g class="participant-lifeline" data-entity-uid="part4" data-qualified-name="ServiceManager" id="part4-lifeline"><g><title>OSOKServiceManager</title><rect fill="#000000" fill-opacity="0.00000" height="1983" width="8" x="805.104" y="114"/><line style="stroke:#94A3B8;stroke-width:0.5;stroke-dasharray:5,5;" x1="808.9077" x2="808.9077" y1="114" y2="2097"/></g></g><g class="participant-lifeline" data-entity-uid="part5" data-qualified-name="OCI" id="part5-lifeline"><g><title>OCI</title><rect fill="#000000" fill-opacity="0.00000" height="1983" width="8" x="1143.4204" y="114"/><line style="stroke:#94A3B8;stroke-width:0.5;stroke-dasharray:5,5;" x1="1146.9756" x2="1146.9756" y1="114" y2="2097"/></g></g><g class="participant participant-head" data-entity-uid="part1" data-qualified-name="Kubernetes" id="part1-head"><text fill="#000000" font-family="Helvetica" font-size="14" lengthAdjust="spacing" textLength="71.6064" x="5" y="110.7803">Kubernetes</text><ellipse cx="43.8032" cy="48.5" fill="#E2E8F0" rx="8" ry="8" style="stroke:#0F172A;stroke-width:0.5;"/><path d="M43.8032,56.5 L43.8032,83.5 M30.8032,64.5 L56.8032,64.5 M43.8032,83.5 L30.8032,98.5 M43.8032,83.5 L56.8032,98.5" fill="none" style="stroke:#0F172A;stroke-width:0.5;"/></g><g class="participant participant-head" data-entity-uid="part2" data-qualified-name="Controller" id="part2-head"><rect fill="#E2E8F0" height="28" rx="8" ry="8" style="stroke:#0F172A;stroke-width:0.5;" width="74.6895" x="248.3403" y="85"/><text fill="#0F172A" font-family="Helvetica" font-size="14" lengthAdjust="spacing" textLength="60.6895" x="255.3403" y="102.7803">Controller</text></g><g class="participant participant-head" data-entity-uid="part3" data-qualified-name="BaseReconciler" id="part3-head"><rect fill="#E2E8F0" height="28" rx="8" ry="8" style="stroke:#0F172A;stroke-width:0.5;" width="112.0479" x="468.4873" y="85"/><text fill="#0F172A" font-family="Helvetica" font-size="14" lengthAdjust="spacing" textLength="98.0479" x="475.4873" y="102.7803">BaseReconciler</text></g><g class="participant participant-head" data-entity-uid="part4" data-qualified-name="ServiceManager" id="part4-head"><rect fill="#E2E8F0" height="28" rx="8" ry="8" style="stroke:#0F172A;stroke-width:0.5;" width="156.3926" x="730.9077" y="85"/><text fill="#0F172A" font-family="Helvetica" font-size="14" lengthAdjust="spacing" textLength="142.3926" x="737.9077" y="102.7803">OSOKServiceManager</text></g><g class="participant participant-head" data-entity-uid="part5" data-qualified-name="OCI" id="part5-head"><rect fill="#E2E8F0" height="28" rx="8" ry="8" style="stroke:#0F172A;stroke-width:0.5;" width="38.8896" x="1127.9756" y="85"/><text fill="#0F172A" font-family="Helvetica" font-size="14" lengthAdjust="spacing" textLength="24.8896" x="1134.9756" y="102.7803">OCI</text></g><path d="M459,137 L459,187 A8,8 0 0 0 467,195 L864,195 A8,8 0 0 0 872,187 L872,139 L862,129 L467,129 A8,8 0 0 0 459,137" fill="#FFF7D6" style="stroke:#B45309;stroke-width:0.5;"/><path d="M862,129 L862,135 A4,4 0 0 0 866,139 L872,139 L862,129" fill="#FFF7D6" style="stroke:#B45309;stroke-width:0.5;"/><text fill="#334155" font-family="Helvetica" font-size="14" lengthAdjust="spacing" textLength="111.2891" x="507.7107" y="144.7803">shared resolution:</text><text fill="#334155" font-family="Helvetica" font-size="14" lengthAdjust="spacing" textLength="307.3916" x="507.7107" y="158.7803">shared/diagrams/shared-resolution-sequence.svg</text><text fill="#334155" font-family="Helvetica" font-size="14" lengthAdjust="spacing" textLength="88.7305" x="507.7107" y="172.7803">shared delete:</text><text fill="#334155" font-family="Helvetica" font-size="14" lengthAdjust="spacing" textLength="284.833" x="507.7107" y="186.7803">shared/diagrams/shared-delete-sequence.svg</text><g class="message" data-entity-1="part1" data-entity-2="part2" id="msg1"><polygon fill="#0F172A" points="273.6851,244,283.6851,248,273.6851,252,277.6851,248" style="stroke:#0F172A;stroke-width:1;"/><line style="stroke:#0F172A;stroke-width:1;" x1="43.8032" x2="279.6851" y1="248" y2="248"/><text fill="#000000" font-family="Helvetica" font-size="14" lengthAdjust="spacing" textLength="54.5029" x="50.8032" y="214.7803">enqueue</text><text fill="#000000" font-family="Helvetica" font-size="14" lengthAdjust="spacing" textLength="217.8818" x="50.8032" y="228.7803">OperationsInsightsWarehouseUser</text><text fill="#000000" font-family="Helvetica" font-size="14" lengthAdjust="spacing" textLength="56.0273" x="50.8032" y="242.7803">reconcile</text></g><g class="message" data-entity-1="part2" data-entity-2="part3" id="msg2"><polygon fill="#0F172A" points="512.5112,272,522.5112,276,512.5112,280,516.5112,276" style="stroke:#0F172A;stroke-width:1;"/><line style="stroke:#0F172A;stroke-width:1;" x1="285.6851" x2="518.5112" y1="276" y2="276"/><text fill="#000000" font-family="Helvetica" font-size="14" lengthAdjust="spacing" textLength="117.4961" x="292.6851" y="270.7803">Reconcile(request)</text></g><g class="message" data-entity-1="part3" data-entity-2="part4" id="msg3"><polygon fill="#0F172A" points="797.104,314,807.104,318,797.104,322,801.104,318" style="stroke:#0F172A;stroke-width:1;"/><line style="stroke:#0F172A;stroke-width:1;" x1="524.5112" x2="803.104" y1="318" y2="318"/><text fill="#000000" font-family="Helvetica" font-size="14" lengthAdjust="spacing" textLength="105.834" x="531.5112" y="298.7803">reconcile desired</text><text fill="#000000" font-family="Helvetica" font-size="14" lengthAdjust="spacing" textLength="217.8818" x="531.5112" y="312.7803">OperationsInsightsWarehouseUser</text></g><path d="M466.4873,356 L519.8252,356 L519.8252,362 L509.8252,372 L458.4873,372 L458.4873,364 A8,8 0 0 1 466.4873,356" fill="#F8FAFC" style="stroke:#CBD5E1;stroke-width:1.5;"/><rect fill="none" height="290" rx="8" ry="8" style="stroke:#CBD5E1;stroke-width:1.5;" width="738.3779" x="458.4873" y="356"/><text fill="#000000" font-family="Helvetica" font-size="14" font-weight="bold" lengthAdjust="spacing" textLength="16.3379" x="473.4873" y="367.7803">alt</text><text fill="#000000" font-family="Helvetica" font-size="14" font-weight="bold" lengthAdjust="spacing" textLength="308.1094" x="534.8252" y="368.7803">[tracked or explicit OCI identity already exists]</text><g class="message" data-entity-1="part4" data-entity-2="part5" id="msg4"><polygon fill="#0F172A" points="1135.4204,388,1145.4204,392,1135.4204,396,1139.4204,392" style="stroke:#0F172A;stroke-width:1;"/><line style="stroke:#0F172A;stroke-width:1;" x1="809.104" x2="1141.4204" y1="392" y2="392"/><text fill="#000000" font-family="Helvetica" font-size="14" lengthAdjust="spacing" textLength="240.4473" x="816.104" y="386.7803">GetOperationsInsightsWarehouseUser</text></g><line style="stroke:#CBD5E1;stroke-width:1;stroke-dasharray:2,2;" x1="458.4873" x2="1196.8652" y1="401" y2="401"/><text fill="#000000" font-family="Helvetica" font-size="14" font-weight="bold" lengthAdjust="spacing" textLength="185.1582" x="463.4873" y="411.7803">[tracked identity is missing]</text><g class="message" data-entity-1="part4" data-entity-2="part5" id="msg5"><polygon fill="#0F172A" points="1135.4204,446,1145.4204,450,1135.4204,454,1139.4204,450" style="stroke:#0F172A;stroke-width:1;"/><line style="stroke:#0F172A;stroke-width:1;" x1="809.104" x2="1141.4204" y1="450" y2="450"/><text fill="#000000" font-family="Helvetica" font-size="14" lengthAdjust="spacing" textLength="281.668" x="816.104" y="430.7803">ListOperationsInsightsWarehouseUser(filters:</text><text fill="#000000" font-family="Helvetica" font-size="14" lengthAdjust="spacing" textLength="143.1719" x="816.104" y="444.7803">compartment_id, state)</text></g><path d="M718.9077,465 L772.2456,465 L772.2456,471 L762.2456,481 L710.9077,481 L710.9077,473 A8,8 0 0 1 718.9077,465" fill="#F8FAFC" style="stroke:#CBD5E1;stroke-width:1.5;"/><rect fill="none" height="146" rx="8" ry="8" style="stroke:#CBD5E1;stroke-width:1.5;" width="475.9575" x="710.9077" y="465"/><text fill="#000000" font-family="Helvetica" font-size="14" font-weight="bold" lengthAdjust="spacing" textLength="16.3379" x="725.9077" y="476.7803">alt</text><text fill="#000000" font-family="Helvetica" font-size="14" font-weight="bold" lengthAdjust="spacing" textLength="242.7031" x="787.2456" y="477.7803">[reusable OCI resource is not found]</text><g class="message" data-entity-1="part4" data-entity-2="part5" id="msg6"><polygon fill="#0F172A" points="1135.4204,497,1145.4204,501,1135.4204,505,1139.4204,501" style="stroke:#0F172A;stroke-width:1;"/><line style="stroke:#0F172A;stroke-width:1;" x1="809.104" x2="1141.4204" y1="501" y2="501"/><text fill="#000000" font-family="Helvetica" font-size="14" lengthAdjust="spacing" textLength="259.9023" x="816.104" y="495.7803">CreateOperationsInsightsWarehouseUser</text></g><path d="M728.9077,516 L795.4526,516 L795.4526,522 L785.4526,532 L720.9077,532 L720.9077,524 A8,8 0 0 1 728.9077,516" fill="#F8FAFC" style="stroke:#CBD5E1;stroke-width:1.5;"/><rect fill="none" height="44" rx="8" ry="8" style="stroke:#CBD5E1;stroke-width:1.5;" width="455.9575" x="720.9077" y="516"/><text fill="#000000" font-family="Helvetica" font-size="14" font-weight="bold" lengthAdjust="spacing" textLength="29.5449" x="735.9077" y="527.7803">loop</text><text fill="#000000" font-family="Helvetica" font-size="14" font-weight="bold" lengthAdjust="spacing" textLength="215.4756" x="810.4526" y="528.7803">[create pending PROVISIONING]</text><g class="message" data-entity-1="part4" data-entity-2="part5" id="msg7"><polygon fill="#0F172A" points="1135.4204,548,1145.4204,552,1135.4204,556,1139.4204,552" style="stroke:#0F172A;stroke-width:1;"/><line style="stroke:#0F172A;stroke-width:1;" x1="809.104" x2="1141.4204" y1="552" y2="552"/><text fill="#000000" font-family="Helvetica" font-size="14" lengthAdjust="spacing" textLength="240.4473" x="816.104" y="546.7803">GetOperationsInsightsWarehouseUser</text></g><line style="stroke:#CBD5E1;stroke-width:1;stroke-dasharray:2,2;" x1="710.9077" x2="1186.8652" y1="568" y2="568"/><text fill="#000000" font-family="Helvetica" font-size="14" font-weight="bold" lengthAdjust="spacing" textLength="255.2334" x="715.9077" y="578.7803">[reusable OCI resource already exists]</text><g class="message" data-entity-1="part4" data-entity-2="part5" id="msg8"><polygon fill="#0F172A" points="1135.4204,599,1145.4204,603,1135.4204,607,1139.4204,603" style="stroke:#0F172A;stroke-width:1;"/><line style="stroke:#0F172A;stroke-width:1;" x1="809.104" x2="1141.4204" y1="603" y2="603"/><text fill="#000000" font-family="Helvetica" font-size="14" lengthAdjust="spacing" textLength="240.4473" x="816.104" y="597.7803">GetOperationsInsightsWarehouseUser</text></g><g class="message" data-entity-1="part4" data-entity-2="part3" id="msg9"><polygon fill="#0F172A" points="535.5112,634,525.5112,638,535.5112,642,531.5112,638" style="stroke:#0F172A;stroke-width:1;"/><line style="stroke:#0F172A;stroke-width:1;stroke-dasharray:2,2;" x1="529.5112" x2="808.104" y1="638" y2="638"/><text fill="#000000" font-family="Helvetica" font-size="14" lengthAdjust="spacing" textLength="231.0957" x="541.5112" y="632.7803">persist resolved OCI identity in status</text></g><path d="M446.4873,660 L499.8252,660 L499.8252,666 L489.8252,676 L438.4873,676 L438.4873,668 A8,8 0 0 1 446.4873,660" fill="#F8FAFC" style="stroke:#CBD5E1;stroke-width:1.5;"/><rect fill="none" height="868" rx="8" ry="8" style="stroke:#CBD5E1;stroke-width:1.5;" width="774.4702" x="438.4873" y="660"/><text fill="#000000" font-family="Helvetica" font-size="14" font-weight="bold" lengthAdjust="spacing" textLength="16.3379" x="453.4873" y="671.7803">alt</text><text fill="#000000" font-family="Helvetica" font-size="14" font-weight="bold" lengthAdjust="spacing" textLength="120.5859" x="514.8252" y="672.7803">[delete requested]</text><path d="M456.4873,683 L535.5078,683 L535.5078,689 L525.5078,699 L448.4873,699 L448.4873,691 A8,8 0 0 1 456.4873,683" fill="#F8FAFC" style="stroke:#CBD5E1;stroke-width:1.5;"/><rect fill="none" height="302" rx="8" ry="8" style="stroke:#CBD5E1;stroke-width:1.5;" width="738.3779" x="448.4873" y="683"/><text fill="#000000" font-family="Helvetica" font-size="14" font-weight="bold" lengthAdjust="spacing" textLength="42.0205" x="463.4873" y="694.7803">Delete</text><g class="message" data-entity-1="part4" data-entity-2="part5" id="msg10"><polygon fill="#0F172A" points="1135.4204,715,1145.4204,719,1135.4204,723,1139.4204,719" style="stroke:#0F172A;stroke-width:1;"/><line style="stroke:#0F172A;stroke-width:1;" x1="809.104" x2="1141.4204" y1="719" y2="719"/><text fill="#000000" font-family="Helvetica" font-size="14" lengthAdjust="spacing" textLength="258.3506" x="816.104" y="713.7803">DeleteOperationsInsightsWarehouseUser</text></g><g class="message" data-entity-1="part4" data-entity-2="part5" id="msg11"><polygon fill="#0F172A" points="1135.4204,785,1145.4204,789,1135.4204,793,1139.4204,789" style="stroke:#0F172A;stroke-width:1;"/><line style="stroke:#0F172A;stroke-width:1;" x1="809.104" x2="1141.4204" y1="789" y2="789"/><text fill="#000000" font-family="Helvetica" font-size="14" lengthAdjust="spacing" textLength="109.7168" x="816.104" y="741.7803">confirm delete via</text><text fill="#000000" font-family="Helvetica" font-size="14" lengthAdjust="spacing" textLength="240.4473" x="816.104" y="755.7803">GetOperationsInsightsWarehouseUser</text><text fill="#000000" font-family="Helvetica" font-size="14" lengthAdjust="spacing" textLength="12.4482" x="816.104" y="769.7803">or</text><text fill="#000000" font-family="Helvetica" font-size="14" lengthAdjust="spacing" textLength="239.668" x="816.104" y="783.7803">ListOperationsInsightsWarehouseUser</text></g><path d="M728.9077,804 L795.4526,804 L795.4526,810 L785.4526,820 L720.9077,820 L720.9077,812 A8,8 0 0 1 728.9077,804" fill="#F8FAFC" style="stroke:#CBD5E1;stroke-width:1.5;"/><rect fill="none" height="72" rx="8" ry="8" style="stroke:#CBD5E1;stroke-width:1.5;" width="455.9575" x="720.9077" y="804"/><text fill="#000000" font-family="Helvetica" font-size="14" font-weight="bold" lengthAdjust="spacing" textLength="29.5449" x="735.9077" y="815.7803">loop</text><text fill="#000000" font-family="Helvetica" font-size="14" font-weight="bold" lengthAdjust="spacing" textLength="182.7793" x="810.4526" y="816.7803">[delete pending DELETING]</text><g class="message" data-entity-1="part4" data-entity-2="part5" id="msg12"><polygon fill="#0F172A" points="1135.4204,864,1145.4204,868,1135.4204,872,1139.4204,868" style="stroke:#0F172A;stroke-width:1;"/><line style="stroke:#0F172A;stroke-width:1;" x1="809.104" x2="1141.4204" y1="868" y2="868"/><text fill="#000000" font-family="Helvetica" font-size="14" lengthAdjust="spacing" textLength="240.4473" x="816.104" y="834.7803">GetOperationsInsightsWarehouseUser</text><text fill="#000000" font-family="Helvetica" font-size="14" lengthAdjust="spacing" textLength="12.4482" x="816.104" y="848.7803">or</text><text fill="#000000" font-family="Helvetica" font-size="14" lengthAdjust="spacing" textLength="239.668" x="816.104" y="862.7803">ListOperationsInsightsWarehouseUser</text></g><path d="M466.4873,890 L519.8252,890 L519.8252,896 L509.8252,906 L458.4873,906 L458.4873,898 A8,8 0 0 1 466.4873,890" fill="#F8FAFC" style="stroke:#CBD5E1;stroke-width:1.5;"/><rect fill="none" height="88" rx="8" ry="8" style="stroke:#CBD5E1;stroke-width:1.5;" width="438.813" x="458.4873" y="890"/><text fill="#000000" font-family="Helvetica" font-size="14" font-weight="bold" lengthAdjust="spacing" textLength="16.3379" x="473.4873" y="901.7803">alt</text><text fill="#000000" font-family="Helvetica" font-size="14" font-weight="bold" lengthAdjust="spacing" textLength="261.4268" x="534.8252" y="902.7803">[cleanup or finalizer release is blocked]</text><g class="message" data-entity-1="part4" data-entity-2="part3" id="msg13"><polygon fill="#0F172A" points="535.5112,922,525.5112,926,535.5112,930,531.5112,926" style="stroke:#0F172A;stroke-width:1;"/><line style="stroke:#0F172A;stroke-width:1;stroke-dasharray:2,2;" x1="529.5112" x2="808.104" y1="926" y2="926"/><text fill="#000000" font-family="Helvetica" font-size="14" lengthAdjust="spacing" textLength="170.4336" x="541.5112" y="920.7803">retain delete state and retry</text></g><line style="stroke:#CBD5E1;stroke-width:1;stroke-dasharray:2,2;" x1="458.4873" x2="897.3003" y1="935" y2="935"/><text fill="#000000" font-family="Helvetica" font-size="14" font-weight="bold" lengthAdjust="spacing" textLength="194.4824" x="463.4873" y="945.7803">[delete completion observed]</text><g class="message" data-entity-1="part4" data-entity-2="part3" id="msg14"><polygon fill="#0F172A" points="535.5112,966,525.5112,970,535.5112,974,531.5112,970" style="stroke:#0F172A;stroke-width:1;"/><line style="stroke:#0F172A;stroke-width:1;stroke-dasharray:2,2;" x1="529.5112" x2="808.104" y1="970" y2="970"/><text fill="#000000" font-family="Helvetica" font-size="14" lengthAdjust="spacing" textLength="243.5781" x="541.5112" y="964.7803">release finalizer after delete completion</text></g><line style="stroke:#CBD5E1;stroke-width:1;stroke-dasharray:2,2;" x1="438.4873" x2="1212.9575" y1="993" y2="993"/><text fill="#000000" font-family="Helvetica" font-size="14" font-weight="bold" lengthAdjust="spacing" textLength="149.3857" x="443.4873" y="1003.7803">[OCI state is retryable]</text><g class="message" data-entity-1="part4" data-entity-2="part3" id="msg15"><polygon fill="#0F172A" points="535.5112,1038,525.5112,1042,535.5112,1046,531.5112,1042" style="stroke:#0F172A;stroke-width:1;"/><line style="stroke:#0F172A;stroke-width:1;stroke-dasharray:2,2;" x1="529.5112" x2="808.104" y1="1042" y2="1042"/><text fill="#000000" font-family="Helvetica" font-size="14" lengthAdjust="spacing" textLength="184.4199" x="541.5112" y="1022.7803">requeue while OCI remains in</text><text fill="#000000" font-family="Helvetica" font-size="14" lengthAdjust="spacing" textLength="260.5928" x="541.5112" y="1036.7803">PROVISIONING, UPDATING, DELETING</text></g><line style="stroke:#CBD5E1;stroke-width:1;stroke-dasharray:2,2;" x1="438.4873" x2="1212.9575" y1="1051" y2="1051"/><text fill="#000000" font-family="Helvetica" font-size="14" font-weight="bold" lengthAdjust="spacing" textLength="200.751" x="443.4873" y="1061.7803">[live state requires field-aware</text><text fill="#000000" font-family="Helvetica" font-size="14" font-weight="bold" lengthAdjust="spacing" textLength="105.0068" x="443.4873" y="1075.7803">drift evaluation]</text><path d="M456.4873,1087 L584.4736,1087 L584.4736,1093 L574.4736,1103 L448.4873,1103 L448.4873,1095 A8,8 0 0 1 456.4873,1087" fill="#F8FAFC" style="stroke:#CBD5E1;stroke-width:1.5;"/><rect fill="none" height="392" rx="8" ry="8" style="stroke:#CBD5E1;stroke-width:1.5;" width="754.4702" x="448.4873" y="1087"/><text fill="#000000" font-family="Helvetica" font-size="14" font-weight="bold" lengthAdjust="spacing" textLength="90.9863" x="463.4873" y="1098.7803">Drift handling</text><path d="M762,1116 L762,1166 A8,8 0 0 0 770,1174 L1184,1174 A8,8 0 0 0 1192,1166 L1192,1118 L1182,1108 L770,1108 A8,8 0 0 0 762,1116" fill="#FFF7D6" style="stroke:#B45309;stroke-width:0.5;"/><path d="M1182,1108 L1182,1114 A4,4 0 0 0 1186,1118 L1192,1118 L1182,1108" fill="#FFF7D6" style="stroke:#B45309;stroke-width:0.5;"/><text fill="#334155" font-family="Helvetica" font-size="14" lengthAdjust="spacing" textLength="255.2813" x="845.3381" y="1123.7803">Supported update surface: display_name</text><text fill="#334155" font-family="Helvetica" font-size="14" lengthAdjust="spacing" textLength="235.7783" x="845.3381" y="1137.7803">Reject before mutate: force-new fields</text><text fill="#334155" font-family="Helvetica" font-size="14" lengthAdjust="spacing" textLength="100.3789" x="845.3381" y="1151.7803">compartment_id</text><text fill="#334155" font-family="Helvetica" font-size="14" lengthAdjust="spacing" textLength="229.5576" x="845.3381" y="1165.7803">Lookup filters: compartment_id, state</text><path d="M466.4873,1186 L525.2529,1186 L525.2529,1192 L515.2529,1202 L458.4873,1202 L458.4873,1194 A8,8 0 0 1 466.4873,1186" fill="#F8FAFC" style="stroke:#CBD5E1;stroke-width:1.5;"/><rect fill="none" height="44" rx="8" ry="8" style="stroke:#CBD5E1;stroke-width:1.5;" width="438.813" x="458.4873" y="1186"/><text fill="#000000" font-family="Helvetica" font-size="14" font-weight="bold" lengthAdjust="spacing" textLength="21.7656" x="473.4873" y="1197.7803">opt</text><text fill="#000000" font-family="Helvetica" font-size="14" font-weight="bold" lengthAdjust="spacing" textLength="276.1309" x="540.2529" y="1198.7803">[force-new or conflicting drift is detected]</text><g class="message" data-entity-1="part4" data-entity-2="part3" id="msg16"><polygon fill="#0F172A" points="535.5112,1218,525.5112,1222,535.5112,1226,531.5112,1222" style="stroke:#0F172A;stroke-width:1;"/><line style="stroke:#0F172A;stroke-width:1;stroke-dasharray:2,2;" x1="529.5112" x2="808.104" y1="1222" y2="1222"/><text fill="#000000" font-family="Helvetica" font-size="14" lengthAdjust="spacing" textLength="164.1855" x="541.5112" y="1216.7803">reject before OCI mutation</text></g><path d="M718.9077,1244 L777.6733,1244 L777.6733,1250 L767.6733,1260 L710.9077,1260 L710.9077,1252 A8,8 0 0 1 718.9077,1244" fill="#F8FAFC" style="stroke:#CBD5E1;stroke-width:1.5;"/><rect fill="none" height="130" rx="8" ry="8" style="stroke:#CBD5E1;stroke-width:1.5;" width="475.9575" x="710.9077" y="1244"/><text fill="#000000" font-family="Helvetica" font-size="14" font-weight="bold" lengthAdjust="spacing" textLength="21.7656" x="725.9077" y="1255.7803">opt</text><text fill="#000000" font-family="Helvetica" font-size="14" font-weight="bold" lengthAdjust="spacing" textLength="243.4619" x="792.6733" y="1256.7803">[supported mutable drift is detected]</text><g class="message" data-entity-1="part4" data-entity-2="part5" id="msg17"><polygon fill="#0F172A" points="1135.4204,1304,1145.4204,1308,1135.4204,1312,1139.4204,1308" style="stroke:#0F172A;stroke-width:1;"/><line style="stroke:#0F172A;stroke-width:1;" x1="809.104" x2="1141.4204" y1="1308" y2="1308"/><text fill="#000000" font-family="Helvetica" font-size="14" lengthAdjust="spacing" textLength="35.0205" x="816.104" y="1274.7803">Apply</text><text fill="#000000" font-family="Helvetica" font-size="14" lengthAdjust="spacing" textLength="263.0264" x="816.104" y="1288.7803">UpdateOperationsInsightsWarehouseUser</text><text fill="#000000" font-family="Helvetica" font-size="14" lengthAdjust="spacing" textLength="226.4541" x="816.104" y="1302.7803">only for mutable fields display_name</text></g><path d="M728.9077,1323 L795.4526,1323 L795.4526,1329 L785.4526,1339 L720.9077,1339 L720.9077,1331 A8,8 0 0 1 728.9077,1323" fill="#F8FAFC" style="stroke:#CBD5E1;stroke-width:1.5;"/><rect fill="none" height="44" rx="8" ry="8" style="stroke:#CBD5E1;stroke-width:1.5;" width="455.9575" x="720.9077" y="1323"/><text fill="#000000" font-family="Helvetica" font-size="14" font-weight="bold" lengthAdjust="spacing" textLength="29.5449" x="735.9077" y="1334.7803">loop</text><text fill="#000000" font-family="Helvetica" font-size="14" font-weight="bold" lengthAdjust="spacing" textLength="190.5381" x="810.4526" y="1335.7803">[update pending UPDATING]</text><g class="message" data-entity-1="part4" data-entity-2="part5" id="msg18"><polygon fill="#0F172A" points="1135.4204,1355,1145.4204,1359,1135.4204,1363,1139.4204,1359" style="stroke:#0F172A;stroke-width:1;"/><line style="stroke:#0F172A;stroke-width:1;" x1="809.104" x2="1141.4204" y1="1359" y2="1359"/><text fill="#000000" font-family="Helvetica" font-size="14" lengthAdjust="spacing" textLength="240.4473" x="816.104" y="1353.7803">GetOperationsInsightsWarehouseUser</text></g><g class="message" data-entity-1="part4" data-entity-2="part5" id="msg19"><polygon fill="#0F172A" points="1135.4204,1467,1145.4204,1471,1135.4204,1475,1139.4204,1471" style="stroke:#0F172A;stroke-width:1;"/><line style="stroke:#0F172A;stroke-width:1;" x1="809.104" x2="1141.4204" y1="1471" y2="1471"/><text fill="#000000" font-family="Helvetica" font-size="14" lengthAdjust="spacing" textLength="104.2891" x="816.104" y="1395.7803">run helper hooks</text><text fill="#000000" font-family="Helvetica" font-size="14" lengthAdjust="spacing" textLength="219.0508" x="816.104" y="1409.7803">create=tfresource.CreateResource,</text><text fill="#000000" font-family="Helvetica" font-size="14" lengthAdjust="spacing" textLength="314.3164" x="816.104" y="1423.7803">tfresource.WaitForWorkRequestWithErrorHandling</text><text fill="#000000" font-family="Helvetica" font-size="14" lengthAdjust="spacing" textLength="215.5439" x="816.104" y="1437.7803">entity=template action=CREATED;</text><text fill="#000000" font-family="Helvetica" font-size="14" lengthAdjust="spacing" textLength="226.085" x="816.104" y="1451.7803">update=tfresource.UpdateResource;</text><text fill="#000000" font-family="Helvetica" font-size="14" lengthAdjust="spacing" textLength="212.8438" x="816.104" y="1465.7803">delete=tfresource.DeleteResource</text></g><g class="message" data-entity-1="part4" data-entity-2="part3" id="msg20"><polygon fill="#0F172A" points="535.5112,1516,525.5112,1520,535.5112,1524,531.5112,1520" style="stroke:#0F172A;stroke-width:1;"/><line style="stroke:#0F172A;stroke-width:1;stroke-dasharray:2,2;" x1="529.5112" x2="808.104" y1="1520" y2="1520"/><text fill="#000000" font-family="Helvetica" font-size="14" lengthAdjust="spacing" textLength="100.7822" x="541.5112" y="1500.7803">status=required,</text><text fill="#000000" font-family="Helvetica" font-size="14" lengthAdjust="spacing" textLength="230.7197" x="541.5112" y="1514.7803">finalizer=retain-until-confirmed-delete</text></g><g class="message" data-entity-1="part3" data-entity-2="part2" id="msg21"><polygon fill="#0F172A" points="296.6851,1565,286.6851,1569,296.6851,1573,292.6851,1569" style="stroke:#0F172A;stroke-width:1;"/><line style="stroke:#0F172A;stroke-width:1;stroke-dasharray:2,2;" x1="290.6851" x2="523.5112" y1="1569" y2="1569"/><text fill="#000000" font-family="Helvetica" font-size="14" lengthAdjust="spacing" textLength="214.8262" x="302.6851" y="1549.7803">requeue on provisioning, updating,</text><text fill="#000000" font-family="Helvetica" font-size="14" lengthAdjust="spacing" textLength="69.2549" x="302.6851" y="1563.7803">terminating</text></g><path d="M814,1590 L814,2074 A8,8 0 0 0 822,2082 L1134,2082 A8,8 0 0 0 1142,2074 L1142,1592 L1132,1582 L822,1582 A8,8 0 0 0 814,1590" fill="#FFF7D6" style="stroke:#B45309;stroke-width:0.5;"/><path d="M1132,1582 L1132,1588 A4,4 0 0 0 1136,1592 L1142,1592 L1132,1582" fill="#FFF7D6" style="stroke:#B45309;stroke-width:0.5;"/><text fill="#334155" font-family="Helvetica" font-size="14" lengthAdjust="spacing" textLength="101.165" x="820" y="1597.7803">shared diagram:</text><text fill="#334155" font-family="Helvetica" font-size="14" lengthAdjust="spacing" textLength="307.3916" x="820" y="1611.7803">shared/diagrams/shared-resolution-sequence.svg</text><text fill="#334155" font-family="Helvetica" font-size="14" lengthAdjust="spacing" textLength="143.1992" x="820" y="1625.7803">shared delete diagram:</text><text fill="#334155" font-family="Helvetica" font-size="14" lengthAdjust="spacing" textLength="284.833" x="820" y="1639.7803">shared/diagrams/shared-delete-sequence.svg</text><text fill="#334155" font-family="Helvetica" font-size="14" lengthAdjust="spacing" textLength="280.9297" x="820" y="1653.7803">Start from the shared resolution sequence for</text><text fill="#334155" font-family="Helvetica" font-size="14" lengthAdjust="spacing" textLength="260.7295" x="820" y="1667.7803">OCID binding, datasource pagination, and</text><text fill="#334155" font-family="Helvetica" font-size="14" lengthAdjust="spacing" textLength="163.4268" x="820" y="1681.7803">create-or-update dispatch.</text><text fill="#334155" font-family="Helvetica" font-size="14" lengthAdjust="spacing" textLength="301.1982" x="820" y="1695.7803">Layer the shared delete sequence when finalizer</text><text fill="#334155" font-family="Helvetica" font-size="14" lengthAdjust="spacing" textLength="269.2471" x="820" y="1709.7803">retention, delete confirmation, work-request</text><text fill="#334155" font-family="Helvetica" font-size="14" lengthAdjust="spacing" textLength="199.2334" x="820" y="1723.7803">polling, or Secret cleanup apply.</text><text fill="#334155" font-family="Helvetica" font-size="14" lengthAdjust="spacing" textLength="281.709" x="820" y="1737.7803">archetype batch: Generated service-manager</text><text fill="#334155" font-family="Helvetica" font-size="14" lengthAdjust="spacing" textLength="266.1504" x="820" y="1751.7803">controllers follow the shared resolution and</text><text fill="#334155" font-family="Helvetica" font-size="14" lengthAdjust="spacing" textLength="259.9297" x="820" y="1765.7803">delete sequences with imported waits and</text><text fill="#334155" font-family="Helvetica" font-size="14" lengthAdjust="spacing" textLength="134.6064" x="820" y="1779.7803">controller-local policy.</text><text fill="#334155" font-family="Helvetica" font-size="14" lengthAdjust="spacing" textLength="77.8066" x="820" y="1793.7803">service: opsi</text><text fill="#334155" font-family="Helvetica" font-size="14" lengthAdjust="spacing" textLength="242.0332" x="820" y="1807.7803">slug: operationsinsightswarehouseuser</text><text fill="#334155" font-family="Helvetica" font-size="14" lengthAdjust="spacing" textLength="251.3438" x="820" y="1821.7803">kind: OperationsInsightsWarehouseUser</text><text fill="#334155" font-family="Helvetica" font-size="14" lengthAdjust="spacing" textLength="241.2402" x="820" y="1835.7803">archetype: generated-service-manager</text><text fill="#334155" font-family="Helvetica" font-size="14" lengthAdjust="spacing" textLength="156.4063" x="820" y="1849.7803">status/finalizer: required /</text><text fill="#334155" font-family="Helvetica" font-size="14" lengthAdjust="spacing" textLength="174.3027" x="820" y="1863.7803">retain-until-confirmed-delete</text><text fill="#334155" font-family="Helvetica" font-size="14" lengthAdjust="spacing" textLength="272.3984" x="820" y="1877.7803">requeue: provisioning, updating, terminating</text><text fill="#334155" font-family="Helvetica" font-size="14" lengthAdjust="spacing" textLength="295.6816" x="820" y="1891.7803">provider states: create PROVISIONING; update</text><text fill="#334155" font-family="Helvetica" font-size="14" lengthAdjust="spacing" textLength="192.165" x="820" y="1905.7803">UPDATING; delete DELETING</text><text fill="#334155" font-family="Helvetica" font-size="14" lengthAdjust="spacing" textLength="183.6611" x="820" y="1919.7803">supported drift: display_name</text><text fill="#334155" font-family="Helvetica" font-size="14" lengthAdjust="spacing" textLength="230.3301" x="820" y="1933.7803">reject before mutate: force-new fields</text><text fill="#334155" font-family="Helvetica" font-size="14" lengthAdjust="spacing" textLength="100.3789" x="820" y="1947.7803">compartment_id</text><text fill="#334155" font-family="Helvetica" font-size="14" lengthAdjust="spacing" textLength="144.751" x="820" y="1961.7803">create-only fields: none</text><text fill="#334155" font-family="Helvetica" font-size="14" lengthAdjust="spacing" textLength="66.1445" x="820" y="1975.7803">list lookup:</text><text fill="#334155" font-family="Helvetica" font-size="14" lengthAdjust="spacing" textLength="298.0742" x="820" y="1989.7803">scaffold_opsi_operationsinsightswarehouseuser</text><text fill="#334155" font-family="Helvetica" font-size="14" lengthAdjust="spacing" textLength="175.8477" x="820" y="2003.7803">filters compartment_id, state</text><text fill="#334155" font-family="Helvetica" font-size="14" lengthAdjust="spacing" textLength="89.4961" x="820" y="2017.7803">conflicts: none</text><text fill="#334155" font-family="Helvetica" font-size="14" lengthAdjust="spacing" textLength="104.3164" x="820" y="2031.7803">open gaps: none</text><text fill="#334155" font-family="Helvetica" font-size="14" lengthAdjust="spacing" textLength="224.9023" x="820" y="2045.7803">Scaffold metadata only; replace with</text><text fill="#334155" font-family="Helvetica" font-size="14" lengthAdjust="spacing" textLength="244.3232" x="820" y="2059.7803">controller-specific runtime states before</text><text fill="#334155" font-family="Helvetica" font-size="14" lengthAdjust="spacing" textLength="66.1445" x="820" y="2073.7803">promotion.</text><?plantuml-src hLTTRzis57tNhxZeNbeWIfecwOU336YJh0sQDKNSBYy60bgwihbGf4PIThrX_tsN52bBZZqRor0KaKNoVfrxpgNC0vSLqwm4CsMvcdCvWO89WubfLyOiUvXeLSlyN0cbuQSYetzvPqUE1Qk5_KL9-uML29zGpD3oZAtVC-H_8XmUTnQPrceUhByi3j-ywfwKokA7Hp4KnPlyzUekfNFKOSVu-EJevRkL7SvzM3ywEZuyEUciU_EPqX8r7BvEBBS2OOX_r2WpX1HKPVZ1JOMQMQwakPA6JwRMt36DKrKR_6vG9rEU8nHAsR7wqR5jefc_4W2MMQLxiOQSuz9gilWAtnOlQPcCKLbvnQHTVxwxOHShdNgqDWGly9hBVZNV7REZyLjQTIQhtb8spa_mi5rwXDJRWXLPydVYSuFFzHYfn1PDqea3pYaGhOIW4dPVVs06Rp5JCkEhIyzkXZUVXwXdFCDVcMGJrC-06UY_wXsvERzAN1U0cX76VTjxA-U83nfpq6YKg1tWW_3g8ETiGfYQW-PtkjoIHfZtpMmIBUGeADkDfvlb_acKkU_MP5aiI7_kr6W0A6b_ZIEvfI57KiSKa-LvPwsV_W3Qv-VQnMBiYwI_nHtg5sa0hN5Aqt3APsj0YUyIk5RgWVumodJCPPumOS5gwXsg67K9_gW4eUOX0wAK93OkW0cDB5_GAZVM9FrWN7YqUm0VqMwB0KdXMdUjUMwWvCQG1cuoVKr-jzX-Nd1XKPl1I6QgTDrNalbxdk-1iSpY2v-gnjgmCPNDvUSQgDOa3XG0mKxoGUpP5C8vbS3YjWI5KXLaVYjKr4vErx_UtlnsDRow-NBrvUDJQaUn-Vgjp-7_msXD3TQqBLanvAaXwepWx7KCbxxgjV7cNEKRla7eSSn3Frxurvl2RLQtHRpXCCLQS5r6ppFEHd9x_YEfwFyE3TTW7On7h2ykho-_FGddtVt7ocO2cQHI4dqBBfcWAQ-fplJM-DOU2-NujWke6YqZw49IdZTUAkYzNZJT5zOSn-Y1eWCrfcXckpfembe6oWfYxMEhJRl7bdUzrKH3-VXW705sS-Zr6kPJtZAcf1mDjUX8Tgcv1z-_Nhp_vfzQ6BrtmMUn6CuSoQsX153aAPiJ8YEPQrvOm1aJjGSizhP_FQK22gTjomdOZtlFZSTXNLLA4o-WhdBdoTIwO1aE8EUc4cnnB-c6bzpYxvXP66EXD49Pkw0695oa0Ad4UHEMIVeAc0JHZme9QmLoEVrKPJicgQqSasWiMDVXJQu4Gqw0PNPNsBjXEnHyw15dvz2q1N1BJjwsUmgaUbzLOZ6ItttXjjDBYeLBh_NJrAnVPy_jW4JaTcoFfshuvXcZQmbJ56G4fWIPeL7cHycPBQBExpTpw3Ryt1l9pjeTutIpr7TAFzmsEdl7xVIIBldwK-Z2aMmK-imYKStpEtC1dvtVNhx_TdbnEf9DsbsVJMMZJzhIqBMxfL7gk6NN8TBCYBF0gfooQONXhD6YjAPmHHgqlBstUGUhrwILgrgaFabKfTMC6qgJAh3NuEgUg7YeI_9eMtvgXnge0jPVIyCjycbtqgrMrjrDXvOO2uLM9TWfmgDhyl9JXtexeNQwy1Sydp2boy8reM8Jdw-IUqxPawR1KgNJqEsE1incq_tacYsegXrdSIn4H_CfogMI9mIOwordkPLpZrfmDwUsJCFyJoe2oSUcd1nI5CivnXoTznEciodQHONq8KpnE7v9nouAn3JOf6K09sjH9s6clsg-eKOkuvKi3Co98y3Be3vpuf1fIjDQJMc2CW4KCyyeik1-uBzC4oFgYNkCpEU1-VF8_Dendxv8ym5iquSsvm5COhRfQhODQGxQmW_YLChX8FbtrWHA33OH0hfyy7leSxCP3sviDFVQxj0y3IAPH74yZTYt8tGfx5xGLmQQ_ay3BNQjbtA_Oq2ZIv9kkokfyEEEs9MnWjeXltSutMz3A4p73SCnZi3eYAn9cB0g_Xu6Nr0I08vlu88x9MWeLySLQh9kHvaACrxmp6c-vMMuNvXG25VxKhbWzzkn_0y0?></g></svg>