<?plantuml 1.2026.1?><svg xmlns="http://www.w3.org/2000/svg" xmlns:xlink="http://www.w3.org/1999/xlink" contentStyleType="text/css" data-diagram-type="STATE" height="625px" preserveAspectRatio="none" style="width:4002px;height:625px;background:#FCFCFD;" version="1.1" viewBox="0 0 4002 625" width="4002px" zoomAndPan="magnify"><title>State Machine - database/DatabaseExadataInfrastructureDownloadConfigFile</title><defs/><g><rect fill="#FCFCFD" height="625" style="stroke:none;stroke-width:1;" width="4002" x="0" y="0"/><g class="title" data-source-line="10"><text fill="#000000" font-family="Helvetica" font-size="14" font-weight="bold" lengthAdjust="spacing" textLength="513.4541" x="1737.7109" y="20.7803">State Machine - database/DatabaseExadataInfrastructureDownloadConfigFile</text></g><g><rect fill="#F8FAFC" height="62" rx="8" ry="8" style="stroke:#0F172A;stroke-width:0.5;" width="264.3643" x="449" y="423"/><line style="stroke:#0F172A;stroke-width:0.5;" x1="449" x2="713.3643" y1="447" y2="447"/><text fill="#0F172A" font-family="Helvetica" font-size="14" lengthAdjust="spacing" textLength="52.9102" x="554.7271" y="438.7803">Observe</text><text fill="#0F172A" font-family="Helvetica" font-size="14" lengthAdjust="spacing" textLength="244.3643" x="454" y="462.7803">read spec, tracked status, delete intent,</text><text fill="#0F172A" font-family="Helvetica" font-size="14" lengthAdjust="spacing" textLength="153.2822" x="454" y="476.7803">and current OCI lifecycle</text></g><rect fill="#F8FAFC" height="40" rx="8" ry="8" style="stroke:#0F172A;stroke-width:0.5;" width="104.9512" x="1510.36" y="266"/><text fill="#0F172A" font-family="Helvetica" font-size="14" lengthAdjust="spacing" textLength="94.9512" x="1515.36" y="289.7803">EvaluateReady</text><rect fill="#F8FAFC" height="40" rx="8" ry="8" style="stroke:#0F172A;stroke-width:0.5;" width="50.4688" x="2269.32" y="266"/><text fill="#0F172A" font-family="Helvetica" font-size="14" lengthAdjust="spacing" textLength="40.4688" x="2274.32" y="289.7803">Ready</text><rect fill="#F8FAFC" height="40" rx="8" ry="8" style="stroke:#0F172A;stroke-width:0.5;" width="69.917" x="1527.88" y="401"/><text fill="#0F172A" font-family="Helvetica" font-size="14" lengthAdjust="spacing" textLength="59.917" x="1532.88" y="424.7803">Retryable</text><rect fill="#F8FAFC" height="40" rx="8" ry="8" style="stroke:#0F172A;stroke-width:0.5;" width="50" x="1537.84" y="520"/><text fill="#0F172A" font-family="Helvetica" font-size="14" lengthAdjust="spacing" textLength="38.1309" x="1543.7746" y="543.7803">Failed</text><rect fill="#F8FAFC" height="40" rx="8" ry="8" style="stroke:#0F172A;stroke-width:0.5;" width="122.8477" x="991.44" y="377"/><text fill="#0F172A" font-family="Helvetica" font-size="14" lengthAdjust="spacing" textLength="112.8477" x="996.44" y="400.7803">ResolveByLookup</text><rect fill="#F8FAFC" height="40" rx="8" ry="8" style="stroke:#0F172A;stroke-width:0.5;" width="155.5098" x="1844.56" y="356"/><text fill="#0F172A" font-family="Helvetica" font-size="14" lengthAdjust="spacing" textLength="145.5098" x="1849.56" y="379.7803">RejectUnsupportedDrift</text><rect fill="#F8FAFC" height="40" rx="8" ry="8" style="stroke:#0F172A;stroke-width:0.5;" width="90.165" x="1877.23" y="195"/><text fill="#0F172A" font-family="Helvetica" font-size="14" lengthAdjust="spacing" textLength="80.165" x="1882.23" y="218.7803">ApplyUpdate</text><rect fill="#F8FAFC" height="40" rx="8" ry="8" style="stroke:#0F172A;stroke-width:0.5;" width="101.8477" x="2658.23" y="520"/><text fill="#0F172A" font-family="Helvetica" font-size="14" lengthAdjust="spacing" textLength="91.8477" x="2663.23" y="543.7803">DeletePending</text><rect fill="#F8FAFC" height="40" rx="8" ry="8" style="stroke:#0F172A;stroke-width:0.5;" width="58.2549" x="3914.16" y="447"/><text fill="#0F172A" font-family="Helvetica" font-size="14" lengthAdjust="spacing" textLength="48.2549" x="3919.16" y="470.7803">Deleted</text><rect fill="#F8FAFC" height="40" rx="8" ry="8" style="stroke:#0F172A;stroke-width:0.5;" width="152.4268" x="3372.63" y="447"/><text fill="#0F172A" font-family="Helvetica" font-size="14" lengthAdjust="spacing" textLength="142.4268" x="3377.63" y="470.7803">DeleteCleanupBlocked</text><ellipse cx="16" cy="454" fill="#222222" rx="10" ry="10" style="stroke:#222222;stroke-width:1;"/><g class="entity" data-qualified-name="GMN2" data-source-line="55" id="ent0003"><path d="M2485.78,49 L2485.78,271.41 L2320.12,284.63 L2485.78,279.41 L2485.78,477 A8,8 0 0 0 2493.78,485 L2924.5222,485 A8,8 0 0 0 2932.5222,477 L2932.5222,51 L2922.5222,41 L2493.78,41 A8,8 0 0 0 2485.78,49" fill="#FFF7D6" style="stroke:#B45309;stroke-width:0.5;"/><path d="M2922.5222,41 L2922.5222,47 A4,4 0 0 0 2926.5222,51 L2932.5222,51 L2922.5222,41" fill="#FFF7D6" style="stroke:#B45309;stroke-width:0.5;"/><text fill="#334155" font-family="Helvetica" font-size="14" lengthAdjust="spacing" textLength="101.165" x="2491.78" y="56.7803">shared diagram:</text><text fill="#334155" font-family="Helvetica" font-size="14" lengthAdjust="spacing" textLength="331.4814" x="2491.78" y="70.7803">shared/diagrams/shared-controller-state-machine.svg</text><text fill="#334155" font-family="Helvetica" font-size="14" lengthAdjust="spacing" textLength="304.2744" x="2491.78" y="84.7803">Start from the shared controller phase model and</text><text fill="#334155" font-family="Helvetica" font-size="14" lengthAdjust="spacing" textLength="261.4678" x="2491.78" y="98.7803">specialize imported provider states, delete</text><text fill="#334155" font-family="Helvetica" font-size="14" lengthAdjust="spacing" textLength="184.4336" x="2491.78" y="112.7803">targets, and failure exits here.</text><text fill="#334155" font-family="Helvetica" font-size="14" lengthAdjust="spacing" textLength="281.709" x="2491.78" y="126.7803">archetype batch: Generated service-manager</text><text fill="#334155" font-family="Helvetica" font-size="14" lengthAdjust="spacing" textLength="287.9229" x="2491.78" y="140.7803">controllers map provider states into the shared</text><text fill="#334155" font-family="Helvetica" font-size="14" lengthAdjust="spacing" textLength="261.4609" x="2491.78" y="154.7803">controller phases with explicit finalizer and</text><text fill="#334155" font-family="Helvetica" font-size="14" lengthAdjust="spacing" textLength="105.8477" x="2491.78" y="168.7803">requeue policies.</text><text fill="#334155" font-family="Helvetica" font-size="14" lengthAdjust="spacing" textLength="109.7305" x="2491.78" y="182.7803">service: database</text><text fill="#334155" font-family="Helvetica" font-size="14" lengthAdjust="spacing" textLength="29.5723" x="2491.78" y="196.7803">slug:</text><text fill="#334155" font-family="Helvetica" font-size="14" lengthAdjust="spacing" textLength="304.3154" x="2491.78" y="210.7803">databaseexadatainfrastructuredownloadconfigfile</text><text fill="#334155" font-family="Helvetica" font-size="14" lengthAdjust="spacing" textLength="29.5723" x="2491.78" y="224.7803">kind:</text><text fill="#334155" font-family="Helvetica" font-size="14" lengthAdjust="spacing" textLength="319.0674" x="2491.78" y="238.7803">DatabaseExadataInfrastructureDownloadConfigFile</text><text fill="#334155" font-family="Helvetica" font-size="14" lengthAdjust="spacing" textLength="241.2402" x="2491.78" y="252.7803">archetype: generated-service-manager</text><text fill="#334155" font-family="Helvetica" font-size="14" lengthAdjust="spacing" textLength="156.4063" x="2491.78" y="266.7803">status/finalizer: required /</text><text fill="#334155" font-family="Helvetica" font-size="14" lengthAdjust="spacing" textLength="174.3027" x="2491.78" y="280.7803">retain-until-confirmed-delete</text><text fill="#334155" font-family="Helvetica" font-size="14" lengthAdjust="spacing" textLength="272.3984" x="2491.78" y="294.7803">requeue: provisioning, updating, terminating</text><text fill="#334155" font-family="Helvetica" font-size="14" lengthAdjust="spacing" textLength="295.6816" x="2491.78" y="308.7803">provider states: create PROVISIONING; update</text><text fill="#334155" font-family="Helvetica" font-size="14" lengthAdjust="spacing" textLength="192.165" x="2491.78" y="322.7803">UPDATING; delete DELETING</text><text fill="#334155" font-family="Helvetica" font-size="14" lengthAdjust="spacing" textLength="183.6611" x="2491.78" y="336.7803">supported drift: display_name</text><text fill="#334155" font-family="Helvetica" font-size="14" lengthAdjust="spacing" textLength="230.3301" x="2491.78" y="350.7803">reject before mutate: force-new fields</text><text fill="#334155" font-family="Helvetica" font-size="14" lengthAdjust="spacing" textLength="100.3789" x="2491.78" y="364.7803">compartment_id</text><text fill="#334155" font-family="Helvetica" font-size="14" lengthAdjust="spacing" textLength="66.1445" x="2491.78" y="378.7803">list lookup:</text><text fill="#334155" font-family="Helvetica" font-size="14" lengthAdjust="spacing" textLength="425.7422" x="2491.78" y="392.7803">scaffold_database_databaseexadatainfrastructuredownloadconfigfile</text><text fill="#334155" font-family="Helvetica" font-size="14" lengthAdjust="spacing" textLength="175.8477" x="2491.78" y="406.7803">filters compartment_id, state</text><text fill="#334155" font-family="Helvetica" font-size="14" lengthAdjust="spacing" textLength="89.4961" x="2491.78" y="420.7803">conflicts: none</text><text fill="#334155" font-family="Helvetica" font-size="14" lengthAdjust="spacing" textLength="104.3164" x="2491.78" y="434.7803">open gaps: none</text><text fill="#334155" font-family="Helvetica" font-size="14" lengthAdjust="spacing" textLength="224.9023" x="2491.78" y="448.7803">Scaffold metadata only; replace with</text><text fill="#334155" font-family="Helvetica" font-size="14" lengthAdjust="spacing" textLength="244.3232" x="2491.78" y="462.7803">controller-specific runtime states before</text><text fill="#334155" font-family="Helvetica" font-size="14" lengthAdjust="spacing" textLength="66.1445" x="2491.78" y="476.7803">promotion.</text></g><g class="entity" data-qualified-name="GMN5" data-source-line="88" id="ent0006"><path d="M3267.53,530 L3267.53,557.9 L2760.57,541.98 L3267.53,565.9 L3267.53,608 A8,8 0 0 0 3275.53,616 L3622.1628,616 A8,8 0 0 0 3630.1628,608 L3630.1628,532 L3620.1628,522 L3275.53,522 A8,8 0 0 0 3267.53,530" fill="#FFF7D6" style="stroke:#B45309;stroke-width:0.5;"/><path d="M3620.1628,522 L3620.1628,528 A4,4 0 0 0 3624.1628,532 L3630.1628,532 L3620.1628,522" fill="#FFF7D6" style="stroke:#B45309;stroke-width:0.5;"/><text fill="#334155" font-family="Helvetica" font-size="14" lengthAdjust="spacing" textLength="136.9717" x="3273.53" y="537.7803">delete policy: required</text><text fill="#334155" font-family="Helvetica" font-size="14" lengthAdjust="spacing" textLength="95.7305" x="3273.53" y="551.7803">delete observe:</text><text fill="#334155" font-family="Helvetica" font-size="14" lengthAdjust="spacing" textLength="341.6328" x="3273.53" y="565.7803">GetDatabaseExadataInfrastructureDownloadConfigFile</text><text fill="#334155" font-family="Helvetica" font-size="14" lengthAdjust="spacing" textLength="12.4482" x="3273.53" y="579.7803">or</text><text fill="#334155" font-family="Helvetica" font-size="14" lengthAdjust="spacing" textLength="340.8535" x="3273.53" y="593.7803">ListDatabaseExadataInfrastructureDownloadConfigFile</text><text fill="#334155" font-family="Helvetica" font-size="14" lengthAdjust="spacing" textLength="157.1855" x="3273.53" y="607.7803">delete targets: DELETED</text></g><!--link *start* to observe--><g class="link" data-entity-1="ent0002" data-entity-2="ent0002" data-link-type="dependency" data-source-line="32" id="lnk3"><path d="M26.31,454 C74.64,454 294.54,454 442.5,454" fill="none" id="*start*-to-observe" style="stroke:#0F172A;stroke-width:1;"/><polygon fill="#0F172A" points="448.5,454,439.5,450,443.5,454,439.5,458,448.5,454" style="stroke:#0F172A;stroke-width:1;"/><text fill="#000000" font-family="Helvetica" font-size="14" lengthAdjust="spacing" textLength="361.0879" x="57" y="449.7803">CreateDatabaseExadataInfrastructureDownloadConfigFile</text></g><!--link observe to resolve_by_lookup--><g class="link" data-entity-1="ent0002" data-entity-2="ent0007" data-link-type="dependency" data-source-line="33" id="lnk4"><path d="M713.64,438.05 C804.55,427.01 915.3337,413.5731 985.1837,405.0931" fill="none" id="observe-to-resolve_by_lookup" style="stroke:#0F172A;stroke-width:1;"/><polygon fill="#0F172A" points="991.14,404.37,981.7235,401.4838,986.1764,404.9726,982.6877,409.4255,991.14,404.37" style="stroke:#0F172A;stroke-width:1;"/><text fill="#000000" font-family="Helvetica" font-size="14" lengthAdjust="spacing" textLength="145.5029" x="744.36" y="412.8403">tracked identity missing</text></g><!--link resolve_by_lookup to evaluate_ready--><g class="link" data-entity-1="ent0007" data-entity-2="ent0003" data-link-type="dependency" data-source-line="34" id="lnk5"><path d="M1114.57,385.58 C1228.1,364.19 1462.77,319.79 1480.36,315 C1490.07,312.36 1494.6038,311.0543 1504.3838,307.7043" fill="none" id="resolve_by_lookup-to-evaluate_ready" style="stroke:#0F172A;stroke-width:1;"/><polygon fill="#0F172A" points="1510.06,305.76,1500.2494,304.8923,1505.3298,307.3803,1502.8419,312.4606,1510.06,305.76" style="stroke:#0F172A;stroke-width:1;"/><text fill="#000000" font-family="Helvetica" font-size="14" lengthAdjust="spacing" textLength="154.0889" x="1270.86" y="296.7803">lookup or create reaches</text><text fill="#000000" font-family="Helvetica" font-size="14" lengthAdjust="spacing" textLength="50.5654" x="1322.6217" y="310.7803">ACTIVE</text></g><!--link resolve_by_lookup to retryable--><g class="link" data-entity-1="ent0007" data-entity-2="ent0005" data-link-type="dependency" data-source-line="35" id="lnk6"><path d="M1114.63,399.87 C1222.21,404.95 1436.8067,415.0973 1521.5967,419.0973" fill="none" id="resolve_by_lookup-to-retryable" style="stroke:#0F172A;stroke-width:1;"/><polygon fill="#0F172A" points="1527.59,419.38,1518.7885,414.9603,1522.5956,419.1444,1518.4115,422.9514,1527.59,419.38" style="stroke:#0F172A;stroke-width:1;"/><text fill="#000000" font-family="Helvetica" font-size="14" lengthAdjust="spacing" textLength="184.3789" x="1255.86" y="386.5403">OCI state in PROVISIONING,</text><text fill="#000000" font-family="Helvetica" font-size="14" lengthAdjust="spacing" textLength="150.1309" x="1272.984" y="400.5403">UPDATING, DELETING</text></g><!--link resolve_by_lookup to failed--><g class="link" data-entity-1="ent0007" data-entity-2="ent0006" data-link-type="dependency" data-source-line="36" id="lnk7"><path d="M1114.63,414.11 C1226.69,445.65 1455.5847,510.0834 1531.6747,531.5134" fill="none" id="resolve_by_lookup-to-failed" style="stroke:#0F172A;stroke-width:1;"/><polygon fill="#0F172A" points="1537.45,533.14,1529.8714,526.8499,1532.6372,531.7845,1527.7026,534.5504,1537.45,533.14" style="stroke:#0F172A;stroke-width:1;"/><text fill="#000000" font-family="Helvetica" font-size="14" lengthAdjust="spacing" textLength="263.7783" x="1216.36" y="439.0303">unresolved OCI error or non-success state</text></g><!--link observe to evaluate_ready--><g class="link" data-entity-1="ent0002" data-entity-2="ent0003" data-link-type="dependency" data-source-line="37" id="lnk8"><path d="M658.96,422.64 C685.45,412.43 715.47,401.55 743.36,393 C949.5,329.82 1001.22,306.06 1215.36,281 C1319.33,268.83 1436.0497,275.0341 1503.9897,280.5541" fill="none" id="observe-to-evaluate_ready" style="stroke:#0F172A;stroke-width:1;"/><polygon fill="#0F172A" points="1509.97,281.04,1501.3235,276.3243,1504.9864,280.6351,1500.6756,284.298,1509.97,281.04" style="stroke:#0F172A;stroke-width:1;"/><text fill="#000000" font-family="Helvetica" font-size="14" lengthAdjust="spacing" textLength="128.3721" x="988.86" y="280.9503">OCI state in ACTIVE</text></g><!--link observe to retryable--><g class="link" data-entity-1="ent0002" data-entity-2="ent0005" data-link-type="dependency" data-source-line="38" id="lnk9"><path d="M713.47,458.33 C776.11,460.38 852.11,462.85 920.36,465 C1169.16,472.84 1241.72,544.79 1480.36,474 C1491.77,470.62 1510.445,458.3638 1529.305,444.9138" fill="none" id="observe-to-retryable" style="stroke:#0F172A;stroke-width:1;"/><polygon fill="#0F172A" points="1534.19,441.43,1524.54,443.3989,1530.1191,444.3331,1529.185,449.9123,1534.19,441.43" style="stroke:#0F172A;stroke-width:1;"/><text fill="#000000" font-family="Helvetica" font-size="14" lengthAdjust="spacing" textLength="184.3789" x="960.86" y="446.7803">OCI state in PROVISIONING,</text><text fill="#000000" font-family="Helvetica" font-size="14" lengthAdjust="spacing" textLength="150.1309" x="977.984" y="460.7803">UPDATING, DELETING</text></g><!--link observe to failed--><g class="link" data-entity-1="ent0002" data-entity-2="ent0006" data-link-type="dependency" data-source-line="39" id="lnk10"><path d="M713.52,484.76 C775.83,498.03 851.56,512.26 920.36,520 C1159.8,546.92 1446.4516,542.7695 1531.5616,540.7895" fill="none" id="observe-to-failed" style="stroke:#0F172A;stroke-width:1;"/><polygon fill="#0F172A" points="1537.56,540.65,1528.4694,536.8604,1532.5614,540.7663,1528.6555,544.8582,1537.56,540.65" style="stroke:#0F172A;stroke-width:1;"/><text fill="#000000" font-family="Helvetica" font-size="14" lengthAdjust="spacing" textLength="263.7783" x="921.36" y="515.7803">unresolved OCI error or non-success state</text></g><!--link evaluate_ready to reject_unsupported_drift--><g class="link" data-entity-1="ent0003" data-entity-2="ent0008" data-link-type="dependency" data-source-line="40" id="lnk11"><path d="M1587.06,306.48 C1602.49,318.89 1623.81,333.85 1645.32,342 C1709.53,366.35 1781.6042,373.9058 1838.3042,376.0258" fill="none" id="evaluate_ready-to-reject_unsupported_drift" style="stroke:#0F172A;stroke-width:1;"/><polygon fill="#0F172A" points="1844.3,376.25,1835.4557,371.9165,1839.3035,376.0632,1835.1568,379.9109,1844.3,376.25" style="stroke:#0F172A;stroke-width:1;"/><text fill="#000000" font-family="Helvetica" font-size="14" lengthAdjust="spacing" textLength="143.9512" x="1656.32" y="323.7803">force-new or conflicting</text><text fill="#000000" font-family="Helvetica" font-size="14" lengthAdjust="spacing" textLength="80.9375" x="1687.8268" y="337.7803">drift detected</text></g><!--link reject_unsupported_drift to ready--><g class="link" data-entity-1="ent0008" data-entity-2="ent0004" data-link-type="dependency" data-source-line="41" id="lnk12"><path d="M2000.32,375.06 C2066.2,371.77 2162.3,361 2239.32,328 C2251.36,322.84 2258.4802,318.2363 2267.9202,310.2463" fill="none" id="reject_unsupported_drift-to-ready" style="stroke:#0F172A;stroke-width:1;"/><polygon fill="#0F172A" points="2272.5,306.37,2263.0461,309.1313,2268.6835,309.6003,2268.2146,315.2376,2272.5,306.37" style="stroke:#0F172A;stroke-width:1;"/><text fill="#000000" font-family="Helvetica" font-size="14" lengthAdjust="spacing" textLength="203.8818" x="2035.32" y="323.7803">wait for spec or live state change</text></g><!--link evaluate_ready to apply_update--><g class="link" data-entity-1="ent0003" data-entity-2="ent0009" data-link-type="dependency" data-source-line="42" id="lnk13"><path d="M1615.72,268.96 C1625.49,266.07 1635.67,263.27 1645.32,261 C1726.17,241.95 1816.2022,228.6097 1871.0322,221.3297" fill="none" id="evaluate_ready-to-apply_update" style="stroke:#0F172A;stroke-width:1;"/><polygon fill="#0F172A" points="1876.98,220.54,1867.5318,217.7594,1872.0235,221.1981,1868.5848,225.6898,1876.98,220.54" style="stroke:#0F172A;stroke-width:1;"/><text fill="#000000" font-family="Helvetica" font-size="14" lengthAdjust="spacing" textLength="163.4199" x="1646.32" y="212.0903">supported mutable drift for</text><text fill="#000000" font-family="Helvetica" font-size="14" lengthAdjust="spacing" textLength="86.3857" x="1684.8371" y="226.0903">display_name</text></g><!--link apply_update to ready--><g class="link" data-entity-1="ent0009" data-entity-2="ent0004" data-link-type="dependency" data-source-line="43" id="lnk14"><path d="M1967.88,217.45 C2029.86,221.76 2145.1,233.07 2239.32,261 C2249.36,263.98 2254.5025,265.9001 2263.6125,270.2801" fill="none" id="apply_update-to-ready" style="stroke:#0F172A;stroke-width:1;"/><polygon fill="#0F172A" points="2269.02,272.88,2262.642,265.3752,2264.5138,270.7135,2259.1756,272.5852,2269.02,272.88" style="stroke:#0F172A;stroke-width:1;"/><text fill="#000000" font-family="Helvetica" font-size="14" lengthAdjust="spacing" textLength="141.6543" x="2066.32" y="219.4503">update path completes</text></g><!--link evaluate_ready to ready--><g class="link" data-entity-1="ent0003" data-entity-2="ent0004" data-link-type="dependency" data-source-line="44" id="lnk15"><path d="M1615.73,286 C1760.46,286 2158.77,286 2262.86,286" fill="none" id="evaluate_ready-to-ready" style="stroke:#0F172A;stroke-width:1;"/><polygon fill="#0F172A" points="2268.86,286,2259.86,282,2263.86,286,2259.86,290,2268.86,286" style="stroke:#0F172A;stroke-width:1;"/><text fill="#000000" font-family="Helvetica" font-size="14" lengthAdjust="spacing" textLength="162.6406" x="1841.32" y="281.7803">no supported drift remains</text></g><!--link ready to ready--><g class="link" data-entity-1="ent0004" data-entity-2="ent0004" data-link-type="dependency" data-source-line="45" id="lnk16"><path d="M2277.35,265.69 C2270,248.73 2275.74,231 2294.55,231 C2313.36,231 2321.4858,243.2247 2314.1358,260.1847" fill="none" id="ready-to-ready" style="stroke:#0F172A;stroke-width:1;"/><polygon fill="#0F172A" points="2311.75,265.69,2318.9989,259.0227,2313.7382,261.1023,2311.6586,255.8416,2311.75,265.69" style="stroke:#0F172A;stroke-width:1;"/><text fill="#000000" font-family="Helvetica" font-size="14" lengthAdjust="spacing" textLength="162.6406" x="2213.55" y="221.7803">no supported drift remains</text></g><!--link retryable to retryable--><g class="link" data-entity-1="ent0005" data-entity-2="ent0005" data-link-type="dependency" data-source-line="46" id="lnk17"><path d="M1536.63,400.69 C1525.42,383.73 1534.16,366 1562.84,366 C1591.52,366 1603.5564,378.7232 1592.3564,395.6832" fill="none" id="retryable-to-retryable" style="stroke:#0F172A;stroke-width:1;"/><polygon fill="#0F172A" points="1589.05,400.69,1597.3474,395.3841,1591.8053,396.5177,1590.6717,390.9756,1589.05,400.69" style="stroke:#0F172A;stroke-width:1;"/><text fill="#000000" font-family="Helvetica" font-size="14" lengthAdjust="spacing" textLength="136.9307" x="1494.84" y="356.7803">OCI remains retryable</text></g><!--link failed to failed--><g class="link" data-entity-1="ent0006" data-entity-2="ent0006" data-link-type="dependency" data-source-line="47" id="lnk18"><path d="M1537.41,520.83 C1525.04,503.53 1533.52,485 1562.84,485 C1592.16,485 1604.1298,498.6493 1591.7598,515.9493" fill="none" id="failed-to-failed" style="stroke:#0F172A;stroke-width:1;"/><polygon fill="#0F172A" points="1588.27,520.83,1596.7585,515.8355,1591.1782,516.7628,1590.251,511.1824,1588.27,520.83" style="stroke:#0F172A;stroke-width:1;"/><text fill="#000000" font-family="Helvetica" font-size="14" lengthAdjust="spacing" textLength="132.2549" x="1496.84" y="475.7803">OCI remains terminal</text></g><!--link ready to delete_pending--><g class="link" data-entity-1="ent0004" data-entity-2="ent0010" data-link-type="dependency" data-source-line="48" id="lnk19"><path d="M2320.04,301.51 C2354.67,324.58 2417.93,371.03 2455.78,425 C2477.11,455.41 2457,479.52 2485.78,503 C2534.16,542.46 2602.5755,547.3657 2651.8055,545.2657" fill="none" id="ready-to-delete_pending" style="stroke:#0F172A;stroke-width:1;"/><polygon fill="#0F172A" points="2657.8,545.01,2648.6377,541.3972,2652.8045,545.2231,2648.9786,549.3899,2657.8,545.01" style="stroke:#0F172A;stroke-width:1;"/><text fill="#000000" font-family="Helvetica" font-size="14" lengthAdjust="spacing" textLength="104.3027" x="2350.78" y="319.3703">delete requested</text></g><!--link retryable to delete_pending--><g class="link" data-entity-1="ent0005" data-entity-2="ent0010" data-link-type="dependency" data-source-line="49" id="lnk20"><path d="M1598.09,424.56 C1761.62,441.57 2457.1522,513.8994 2651.8822,534.1494" fill="none" id="retryable-to-delete_pending" style="stroke:#0F172A;stroke-width:1;"/><polygon fill="#0F172A" points="2657.85,534.77,2649.312,529.8606,2652.8768,534.2528,2648.4845,537.8177,2657.85,534.77" style="stroke:#0F172A;stroke-width:1;"/><text fill="#000000" font-family="Helvetica" font-size="14" lengthAdjust="spacing" textLength="104.3027" x="2084.82" y="466.7103">delete requested</text></g><!--link failed to delete_pending--><g class="link" data-entity-1="ent0006" data-entity-2="ent0010" data-link-type="dependency" data-source-line="50" id="lnk21"><path d="M1588.27,540 C1731.11,540 2452.71,540 2651.76,540" fill="none" id="failed-to-delete_pending" style="stroke:#0F172A;stroke-width:1;"/><polygon fill="#0F172A" points="2657.76,540,2648.76,536,2652.76,540,2648.76,544,2657.76,540" style="stroke:#0F172A;stroke-width:1;"/><text fill="#000000" font-family="Helvetica" font-size="14" lengthAdjust="spacing" textLength="104.3027" x="2084.82" y="535.7803">delete requested</text></g><!--link delete_pending to delete_cleanup_blocked--><g class="link" data-entity-1="ent0010" data-entity-2="ent0012" data-link-type="dependency" data-source-line="51" id="lnk22"><path d="M2760.57,535.01 C2887.69,522.43 3215.8891,489.9505 3366.4391,475.0605" fill="none" id="delete_pending-to-delete_cleanup_blocked" style="stroke:#0F172A;stroke-width:1;"/><polygon fill="#0F172A" points="3372.41,474.47,3363.06,471.3752,3367.4343,474.9621,3363.8474,479.3364,3372.41,474.47" style="stroke:#0F172A;stroke-width:1;"/><text fill="#000000" font-family="Helvetica" font-size="14" lengthAdjust="spacing" textLength="273.1436" x="2963.53" y="484.3503">cleanup or finalizer release remains blocked</text></g><!--link delete_cleanup_blocked to deleted--><g class="link" data-entity-1="ent0012" data-entity-2="ent0011" data-link-type="dependency" data-source-line="52" id="lnk23"><path d="M3525.44,467 C3636.65,467 3833.24,467 3907.78,467" fill="none" id="delete_cleanup_blocked-to-deleted" style="stroke:#0F172A;stroke-width:1;"/><polygon fill="#0F172A" points="3913.78,467,3904.78,463,3908.78,467,3904.78,471,3913.78,467" style="stroke:#0F172A;stroke-width:1;"/><text fill="#000000" font-family="Helvetica" font-size="14" lengthAdjust="spacing" textLength="222.5645" x="3661.16" y="462.7803">retry delete completion until allowed</text></g><!--link deleted to deleted--><g class="link" data-entity-1="ent0011" data-entity-2="ent0011" data-link-type="dependency" data-source-line="53" id="lnk24"><path d="M3916.1,446.69 C3904.48,429.73 3913.54,412 3943.29,412 C3973.03,412 3985.4912,424.7803 3973.8712,441.7403" fill="none" id="deleted-to-deleted" style="stroke:#0F172A;stroke-width:1;"/><polygon fill="#0F172A" points="3970.48,446.69,3978.8667,441.5263,3973.306,442.5653,3972.2671,437.0046,3970.48,446.69" style="stroke:#0F172A;stroke-width:1;"/><text fill="#000000" font-family="Helvetica" font-size="14" lengthAdjust="spacing" textLength="92.5859" x="3897.29" y="402.7803">terminal stutter</text></g><?plantuml-src dLTjRnit3FwkNq5qtuOuQTRqPIume8tJBa3R54dJB-jWo1Blh5KdtIHTN6_OVn_rSkVp9K6H8a1m4YcAVFYGbFrNPLhkU0D-pQNTA5D3nRL7vWV9YekljRETaQTMMmS_LOB-v4X3OiKx7TvO4pxm1k5tr3SObE1twrofVn2EJqP2xfpT5EkFg-FdlunF6XlmzIqVgkgvV3RLiawYAnghawTF7lywqOZN5_cJ9oV7Jv-EvCcyiCwWW-DdBAYW4Qu23mZlkLWhWp03oGDVSOz7Y_9nzet7lNDJEUw3wqJe72xincZBoLbJgVgDqcCyVJBvBuCxa7rHyKf4oJYIWWX0jVD-s2DhhjyybYSeNz0c3XQBtdzCOnKWM72gNWUGog48oXgsLX81cpPiAKLUEDMcxUpaeukLHtU3Zu1xiFcx5vtTSDtHroLokKqAM7QMBcxrUZlvP3kuBLzfBAAowiLlE84cawnAdwnS3_Da1toBuW228mXH9amxVq0XQAJZoWGquU2BuKQ2w9oZ5LoSdeDM5OgjsDrpYTuIMLzltrdxjMkBCsblkTekTThTAVz5g5qRtxMjTG7bmgagb3DHjEnsigMCmlxegxRLs-kMg983vd6zxD96hxD8pd-av54P9gqSphBDM_jwSgGXzqMd6hdfsjVQHd36baIMB5TPnFxu-K-OpNw37RYdX6x0XxAxFnzjtOAFhFPv8h8PAgmjDChx6D9jvMXYdqbqliY8qIBv5paWrkY_c5Uddyu_dzrZPw0LcOZfpoWf0nylBpwVNvrVV3Z_y9PeSlrnyUfJ_8J5sRkp-7MFmSn5ijQPeY2JOQG6vg9xnfgPxuH0x_DjUz3SYclFgHBAFfO_7C3Op0-uFN4rEtCtnybkPPt0cS5DIX7nGYjgBwR-OhA69FA9oDDxRUGBCYeRha8qcOeyMjIA0icnYpKtzPtkZKkAZ0mNGDE5166-YEoILygtcc-NXiOLspiuzgDijJoiAQYcZINaxqOc7p1sT6s-pc73bV7iWSfzskyYGT4QDSsItxrKZpK3kaOPhaTUxBSMqY-jq-7V7VgSgh4JtzSVEV5zvOd6wD2aHT7XiXE9KCKewFdWo1JjUXn2x3lQFLPs5yWqGIYqtgcIMPfwL1v1QU1QsyrWQdgsnvBus0LQiFYkA6FLLlsGMtCNiwfuJID_NjP7PUsFydf6bHASrHhTBB5xrkI7ng6_gTbLdEnGETj0M2CKaxiZqAuZ08qbtu067OlLeX8ye9h2gzRP6sgwBbVFC24PsQunq3fEo9Wvwkk0trJmi4Q7XumxwgzXsoAzKe9Op-4jqiE8HvknhoWHdJMy9W1sBdbeU3kzCqvZEmg1JKFmi55KOVYjfQuHAtz8SemgSQQZAhHHYlwGbVldmsECUTtLSzOlCGyjjJUqP1bQ8WsjAWujUf79ENleg1k0cKFTGpARGfBV8qT39FD4VHKJU1GBYvoR9RBDaZ-k8HibCoNUUORH4osfG0voBqfVXO1nmIPGp_lnE1uFBqiVO_sGUDapVvWLapv4o8xxO-xPi49gdPYwQS1nowyKQkbPh2DYR4CJVgaaqyg7ChU9_u9NbTNKx0lQouScY_w5IB3zMmxAjEf7ZezjrT3GfSO2DM_xzLMv7nh2Fju7rkZjIyeAXIam4P2Dgp6MKgK4k9Yb1digPmmYx8sD7UEGKGDBlomcRM3oSYk09mvlTsJezykidhEt61xyz7Bi7K7zq6Fbvj87vfaBPuiXdly1?></g></svg>