<?plantuml 1.2026.1?><svg xmlns="http://www.w3.org/2000/svg" xmlns:xlink="http://www.w3.org/1999/xlink" contentStyleType="text/css" data-diagram-type="ACTIVITY" height="2322px" preserveAspectRatio="none" style="width:1349px;height:2322px;background:#FCFCFD;" version="1.1" viewBox="0 0 1349 2322" width="1349px" zoomAndPan="magnify"><title>Activity - databasemanagement/DatabaseManagementDbManagementPrivateEndpoints</title><defs/><g><rect fill="#FCFCFD" height="2322" style="stroke:none;stroke-width:1;" width="1349" x="0" y="0"/><g class="title" data-source-line="10"><text fill="#000000" font-family="Helvetica" font-size="14" font-weight="bold" lengthAdjust="spacing" textLength="581.1504" x="382.7915" y="30.7803">Activity - databasemanagement/DatabaseManagementDbManagementPrivateEndpoints</text></g><ellipse cx="702.0808" cy="55" fill="#1D4ED8" rx="10" ry="10" style="stroke:#222222;stroke-width:1;"/><rect fill="none" height="472" rx="8" ry="8" style="stroke:#000000;stroke-width:1.5;" width="858.7891" x="277.55" y="75"/><path d="M399.6184,75 L399.6184,82 L389.6184,92 L277.55,92" fill="none" style="stroke:#000000;stroke-width:1.5;"/><text fill="#000000" font-family="Helvetica" font-size="14" lengthAdjust="spacing" textLength="112.0684" x="280.55" y="86.7803">Observe and Bind</text><rect fill="#F8FAFC" height="48" rx="8" ry="8" style="stroke:#0F172A;stroke-width:0.5;" width="304.7852" x="549.6882" y="109"/><text fill="#0F172A" font-family="Helvetica" font-size="14" lengthAdjust="spacing" textLength="136.9375" x="559.6882" y="129.7803">Start from shared flow</text><text fill="#0F172A" font-family="Helvetica" font-size="14" lengthAdjust="spacing" textLength="284.7852" x="559.6882" y="143.7803">shared/diagrams/shared-reconcile-activity.svg</text><rect fill="#F8FAFC" height="62" rx="8" ry="8" style="stroke:#0F172A;stroke-width:0.5;" width="367.1016" x="518.53" y="177"/><text fill="#0F172A" font-family="Helvetica" font-size="14" lengthAdjust="spacing" textLength="83.2754" x="528.53" y="197.7803">Read desired</text><text fill="#0F172A" font-family="Helvetica" font-size="14" lengthAdjust="spacing" textLength="347.1016" x="528.53" y="211.7803">DatabaseManagementDbManagementPrivateEndpoints</text><text fill="#0F172A" font-family="Helvetica" font-size="14" lengthAdjust="spacing" textLength="235.8125" x="528.53" y="225.7803">spec, tracked status, and delete intent</text><polygon fill="#E2E8F0" points="572.615,259,831.5466,259,843.5466,271,831.5466,283,572.615,283,560.615,271,572.615,259" style="stroke:#1D4ED8;stroke-width:0.5;"/><text fill="#0F172A" font-family="Helvetica" font-size="14" lengthAdjust="spacing" textLength="258.9316" x="572.615" y="274.7803">"Tracked or explicit OCI identity present?"</text><text fill="#000000" font-family="Helvetica" font-size="14" lengthAdjust="spacing" textLength="21.7861" x="538.8289" y="267.7803">yes</text><text fill="#000000" font-family="Helvetica" font-size="14" lengthAdjust="spacing" textLength="15.5723" x="843.5466" y="267.7803">no</text><rect fill="#F8FAFC" height="48" rx="8" ry="8" style="stroke:#0F172A;stroke-width:0.5;" width="389.667" x="297.55" y="293"/><text fill="#0F172A" font-family="Helvetica" font-size="14" lengthAdjust="spacing" textLength="202.3027" x="307.55" y="313.7803">Get the current OCI resource via</text><text fill="#0F172A" font-family="Helvetica" font-size="14" lengthAdjust="spacing" textLength="369.667" x="307.55" y="327.7803">GetDatabaseManagementDbManagementPrivateEndpoints</text><rect fill="#F8FAFC" height="62" rx="8" ry="8" style="stroke:#0F172A;stroke-width:0.5;" width="388.8877" x="717.3342" y="293"/><text fill="#0F172A" font-family="Helvetica" font-size="14" lengthAdjust="spacing" textLength="259.9092" x="727.3342" y="313.7803">Resolve an existing OCI resource through</text><text fill="#0F172A" font-family="Helvetica" font-size="14" lengthAdjust="spacing" textLength="368.8877" x="727.3342" y="327.7803">ListDatabaseManagementDbManagementPrivateEndpoints</text><text fill="#0F172A" font-family="Helvetica" font-size="14" lengthAdjust="spacing" textLength="213.2061" x="727.3342" y="341.7803">using filters compartment_id, state</text><rect fill="#F8FAFC" height="62" rx="8" ry="8" style="stroke:#0F172A;stroke-width:0.5;" width="409.1221" x="707.217" y="375"/><text fill="#0F172A" font-family="Helvetica" font-size="14" lengthAdjust="spacing" textLength="174.2959" x="717.217" y="395.7803">Create the OCI resource via</text><text fill="#0F172A" font-family="Helvetica" font-size="14" lengthAdjust="spacing" textLength="389.1221" x="717.217" y="409.7803">CreateDatabaseManagementDbManagementPrivateEndpoints</text><text fill="#0F172A" font-family="Helvetica" font-size="14" lengthAdjust="spacing" textLength="205.4609" x="717.217" y="423.7803">when no reusable match is found</text><rect fill="#F8FAFC" height="48" rx="8" ry="8" style="stroke:#0F172A;stroke-width:0.5;" width="286.8955" x="768.3303" y="457"/><text fill="#0F172A" font-family="Helvetica" font-size="14" lengthAdjust="spacing" textLength="266.8955" x="778.3303" y="477.7803">Persist the resolved or created OCI identity</text><text fill="#0F172A" font-family="Helvetica" font-size="14" lengthAdjust="spacing" textLength="63.8135" x="778.3303" y="491.7803">into status</text><polygon fill="#E2E8F0" points="702.0808,511,714.0808,523,702.0808,535,690.0808,523,702.0808,511" style="stroke:#1D4ED8;stroke-width:0.5;"/><polygon fill="#E2E8F0" points="639.9045,567,764.2571,567,776.2571,579,764.2571,591,639.9045,591,627.9045,579,639.9045,567" style="stroke:#1D4ED8;stroke-width:0.5;"/><text fill="#0F172A" font-family="Helvetica" font-size="14" lengthAdjust="spacing" textLength="124.3525" x="639.9045" y="582.7803">"Delete requested?"</text><text fill="#000000" font-family="Helvetica" font-size="14" lengthAdjust="spacing" textLength="21.7861" x="606.1184" y="575.7803">yes</text><text fill="#000000" font-family="Helvetica" font-size="14" lengthAdjust="spacing" textLength="15.5723" x="776.2571" y="575.7803">no</text><rect fill="none" height="444" rx="8" ry="8" style="stroke:#000000;stroke-width:1.5;" width="644.4814" x="11" y="601"/><path d="M61.4688,601 L61.4688,608 L51.4688,618 L11,618" fill="none" style="stroke:#000000;stroke-width:1.5;"/><text fill="#000000" font-family="Helvetica" font-size="14" lengthAdjust="spacing" textLength="40.4688" x="14" y="612.7803">Delete</text><rect fill="#F8FAFC" height="118" rx="8" ry="8" style="stroke:#0F172A;stroke-width:0.5;" width="407.5703" x="135.959" y="635"/><text fill="#0F172A" font-family="Helvetica" font-size="14" lengthAdjust="spacing" textLength="105.0684" x="145.959" y="655.7803">Delete path uses</text><text fill="#0F172A" font-family="Helvetica" font-size="14" lengthAdjust="spacing" textLength="387.5703" x="145.959" y="669.7803">DeleteDatabaseManagementDbManagementPrivateEndpoints</text><text fill="#0F172A" font-family="Helvetica" font-size="14" lengthAdjust="spacing" textLength="101.9375" x="145.959" y="683.7803">with required via</text><text fill="#0F172A" font-family="Helvetica" font-size="14" lengthAdjust="spacing" textLength="369.667" x="145.959" y="697.7803">GetDatabaseManagementDbManagementPrivateEndpoints</text><text fill="#0F172A" font-family="Helvetica" font-size="14" lengthAdjust="spacing" textLength="12.4482" x="145.959" y="711.7803">or</text><text fill="#0F172A" font-family="Helvetica" font-size="14" lengthAdjust="spacing" textLength="368.8877" x="145.959" y="725.7803">ListDatabaseManagementDbManagementPrivateEndpoints</text><text fill="#0F172A" font-family="Helvetica" font-size="14" lengthAdjust="spacing" textLength="160.2822" x="145.959" y="739.7803">to DELETED confirmation</text><rect fill="#F8FAFC" height="90" rx="8" ry="8" style="stroke:#0F172A;stroke-width:0.5;" width="389.667" x="144.9106" y="788"/><text fill="#0F172A" font-family="Helvetica" font-size="14" lengthAdjust="spacing" textLength="123.7236" x="154.9106" y="808.7803">Confirm deletion via</text><text fill="#0F172A" font-family="Helvetica" font-size="14" lengthAdjust="spacing" textLength="369.667" x="154.9106" y="822.7803">GetDatabaseManagementDbManagementPrivateEndpoints</text><text fill="#0F172A" font-family="Helvetica" font-size="14" lengthAdjust="spacing" textLength="12.4482" x="154.9106" y="836.7803">or</text><text fill="#0F172A" font-family="Helvetica" font-size="14" lengthAdjust="spacing" textLength="368.8877" x="154.9106" y="850.7803">ListDatabaseManagementDbManagementPrivateEndpoints</text><text fill="#0F172A" font-family="Helvetica" font-size="14" lengthAdjust="spacing" textLength="176.6201" x="154.9106" y="864.7803">until OCI reaches DELETED</text><polygon fill="#E2E8F0" points="191.5718,913,487.9165,913,499.9165,925,487.9165,937,191.5718,937,179.5718,925,191.5718,913" style="stroke:#1D4ED8;stroke-width:0.5;"/><text fill="#0F172A" font-family="Helvetica" font-size="14" lengthAdjust="spacing" textLength="296.3447" x="191.5718" y="928.7803">"Delete cleanup and finalizer release succeed?"</text><text fill="#000000" font-family="Helvetica" font-size="14" lengthAdjust="spacing" textLength="21.7861" x="157.7856" y="921.7803">yes</text><text fill="#000000" font-family="Helvetica" font-size="14" lengthAdjust="spacing" textLength="15.5723" x="499.9165" y="921.7803">no</text><rect fill="#F8FAFC" height="34" rx="8" ry="8" style="stroke:#0F172A;stroke-width:0.5;" width="293.1436" x="23" y="947"/><text fill="#0F172A" font-family="Helvetica" font-size="14" lengthAdjust="spacing" textLength="273.1436" x="33" y="967.7803">Remove the finalizer after delete completion</text><rect fill="#F8FAFC" height="48" rx="8" ry="8" style="stroke:#0F172A;stroke-width:0.5;" width="251.1299" x="384.3516" y="947"/><text fill="#0F172A" font-family="Helvetica" font-size="14" lengthAdjust="spacing" textLength="231.1299" x="394.3516" y="967.7803">Stay blocked until cleanup or finalizer</text><text fill="#0F172A" font-family="Helvetica" font-size="14" lengthAdjust="spacing" textLength="108.9512" x="394.3516" y="981.7803">release succeeds</text><polygon fill="#E2E8F0" points="339.7441,1001,351.7441,1013,339.7441,1025,327.7441,1013,339.7441,1001" style="stroke:#1D4ED8;stroke-width:0.5;"/><ellipse cx="339.7441" cy="1088" fill="none" rx="11" ry="11" style="stroke:#222222;stroke-width:1;"/><ellipse cx="339.7441" cy="1088" fill="#222222" rx="6" ry="6" style="stroke:#222222;stroke-width:1;"/><rect fill="none" height="456" rx="8" ry="8" style="stroke:#000000;stroke-width:1.5;" width="345.916" x="897.4595" y="601"/><path d="M1048.2935,601 L1048.2935,608 L1038.2935,618 L897.4595,618" fill="none" style="stroke:#000000;stroke-width:1.5;"/><text fill="#000000" font-family="Helvetica" font-size="14" lengthAdjust="spacing" textLength="140.834" x="900.4595" y="612.7803">Lifecycle Classification</text><rect fill="#F8FAFC" height="48" rx="8" ry="8" style="stroke:#0F172A;stroke-width:0.5;" width="280.5928" x="924.1211" y="684"/><text fill="#0F172A" font-family="Helvetica" font-size="14" lengthAdjust="spacing" textLength="240.4541" x="934.1211" y="704.7803">Request requeue while OCI remains in</text><text fill="#0F172A" font-family="Helvetica" font-size="14" lengthAdjust="spacing" textLength="260.5928" x="934.1211" y="718.7803">PROVISIONING, UPDATING, DELETING</text><ellipse cx="1064.4175" cy="778" fill="none" rx="11" ry="11" style="stroke:#222222;stroke-width:1;"/><ellipse cx="1064.4175" cy="778" fill="#222222" rx="6" ry="6" style="stroke:#222222;stroke-width:1;"/><polygon fill="#E2E8F0" points="978.1343,635,1150.7007,635,1162.7007,647,1150.7007,659,978.1343,659,966.1343,647,978.1343,635" style="stroke:#1D4ED8;stroke-width:0.5;"/><text fill="#000000" font-family="Helvetica" font-size="14" lengthAdjust="spacing" textLength="21.7861" x="1068.4175" y="669.7803">yes</text><text fill="#0F172A" font-family="Helvetica" font-size="14" lengthAdjust="spacing" textLength="172.5664" x="978.1343" y="650.7803">"OCI state in retryable set?"</text><rect fill="#F8FAFC" height="48" rx="8" ry="8" style="stroke:#0F172A;stroke-width:0.5;" width="293.916" x="917.4595" y="904"/><text fill="#0F172A" font-family="Helvetica" font-size="14" lengthAdjust="spacing" textLength="273.916" x="927.4595" y="924.7803">Return an unsuccessful reconcile result until</text><text fill="#0F172A" font-family="Helvetica" font-size="14" lengthAdjust="spacing" textLength="133.041" x="927.4595" y="938.7803">OCI reaches ACTIVE</text><ellipse cx="1064.4175" cy="998" fill="none" rx="11" ry="11" style="stroke:#222222;stroke-width:1;"/><ellipse cx="1064.4175" cy="998" fill="#222222" rx="6" ry="6" style="stroke:#222222;stroke-width:1;"/><polygon fill="#E2E8F0" points="943.8965,855,1184.9385,855,1196.9385,867,1184.9385,879,943.8965,879,931.8965,867,943.8965,855" style="stroke:#1D4ED8;stroke-width:0.5;"/><text fill="#000000" font-family="Helvetica" font-size="14" lengthAdjust="spacing" textLength="21.7861" x="1068.4175" y="889.7803">yes</text><text fill="#0F172A" font-family="Helvetica" font-size="14" lengthAdjust="spacing" textLength="241.042" x="943.8965" y="870.7803">"OCI state is outside success targets?"</text><rect fill="none" height="736.5" rx="8" ry="8" style="stroke:#000000;stroke-width:1.5;" width="663.252" x="675.4814" y="1092"/><path d="M841.9014,1092 L841.9014,1099 L831.9014,1109 L675.4814,1109" fill="none" style="stroke:#000000;stroke-width:1.5;"/><text fill="#000000" font-family="Helvetica" font-size="14" lengthAdjust="spacing" textLength="156.4199" x="678.4814" y="1103.7803">Ready and Drift Handling</text><rect fill="#F8FAFC" height="48" rx="8" ry="8" style="stroke:#0F172A;stroke-width:0.5;" width="296.2402" x="916.2974" y="1126"/><text fill="#0F172A" font-family="Helvetica" font-size="14" lengthAdjust="spacing" textLength="276.2402" x="926.2974" y="1146.7803">Compare live OCI state against the imported</text><text fill="#0F172A" font-family="Helvetica" font-size="14" lengthAdjust="spacing" textLength="75.4824" x="926.2974" y="1160.7803">field surface</text><rect fill="#F8FAFC" height="48" rx="8" ry="8" style="stroke:#0F172A;stroke-width:0.5;" width="302.4473" x="913.1938" y="1243"/><text fill="#0F172A" font-family="Helvetica" font-size="14" lengthAdjust="spacing" textLength="282.4473" x="923.1938" y="1263.7803">Reject drift before OCI mutation for force-new</text><text fill="#0F172A" font-family="Helvetica" font-size="14" lengthAdjust="spacing" textLength="136.9512" x="923.1938" y="1277.7803">fields compartment_id</text><ellipse cx="1064.4175" cy="1323.5" fill="none" rx="11" ry="11" style="stroke:#222222;stroke-width:1;"/><ellipse cx="1064.4175" cy="1323.5" fill="#222222" rx="6" ry="6" style="stroke:#222222;stroke-width:1;"/><polygon fill="#E2E8F0" points="938.8345,1194,1190.0005,1194,1202.0005,1206,1190.0005,1218,938.8345,1218,926.8345,1206,938.8345,1194" style="stroke:#1D4ED8;stroke-width:0.5;"/><text fill="#000000" font-family="Helvetica" font-size="14" lengthAdjust="spacing" textLength="21.7861" x="1068.4175" y="1228.7803">yes</text><text fill="#0F172A" font-family="Helvetica" font-size="14" lengthAdjust="spacing" textLength="251.166" x="938.8345" y="1209.7803">"Force-new or conflicting drift detected?"</text><polygon fill="#E2E8F0" points="953.9897,1376.5,1174.8452,1376.5,1186.8452,1388.5,1174.8452,1400.5,953.9897,1400.5,941.9897,1388.5,953.9897,1376.5" style="stroke:#1D4ED8;stroke-width:0.5;"/><text fill="#0F172A" font-family="Helvetica" font-size="14" lengthAdjust="spacing" textLength="220.8555" x="953.9897" y="1392.2803">"Supported mutable drift detected?"</text><text fill="#000000" font-family="Helvetica" font-size="14" lengthAdjust="spacing" textLength="21.7861" x="920.2036" y="1385.2803">yes</text><text fill="#000000" font-family="Helvetica" font-size="14" lengthAdjust="spacing" textLength="15.5723" x="1186.8452" y="1385.2803">no</text><rect fill="#F8FAFC" height="62" rx="8" ry="8" style="stroke:#0F172A;stroke-width:0.5;" width="412.2461" x="695.4814" y="1410.5"/><text fill="#0F172A" font-family="Helvetica" font-size="14" lengthAdjust="spacing" textLength="35.0205" x="705.4814" y="1431.2803">Apply</text><text fill="#0F172A" font-family="Helvetica" font-size="14" lengthAdjust="spacing" textLength="392.2461" x="705.4814" y="1445.2803">UpdateDatabaseManagementDbManagementPrivateEndpoints</text><text fill="#0F172A" font-family="Helvetica" font-size="14" lengthAdjust="spacing" textLength="226.4541" x="705.4814" y="1459.2803">only for mutable fields display_name</text><rect fill="#F8FAFC" height="34" rx="8" ry="8" style="stroke:#0F172A;stroke-width:0.5;" width="199.0059" x="1127.7275" y="1410.5"/><text fill="#0F172A" font-family="Helvetica" font-size="14" lengthAdjust="spacing" textLength="179.0059" x="1137.7275" y="1431.2803">Skip the no-op mutation path</text><polygon fill="#E2E8F0" points="1064.4175,1478.5,1076.4175,1490.5,1064.4175,1502.5,1052.4175,1490.5,1064.4175,1478.5" style="stroke:#1D4ED8;stroke-width:0.5;"/><rect fill="#F8FAFC" height="118" rx="8" ry="8" style="stroke:#0F172A;stroke-width:0.5;" width="334.3164" x="897.2593" y="1522.5"/><text fill="#0F172A" font-family="Helvetica" font-size="14" lengthAdjust="spacing" textLength="164.2061" x="907.2593" y="1543.2803">Run provider helper hooks</text><text fill="#0F172A" font-family="Helvetica" font-size="14" lengthAdjust="spacing" textLength="219.0508" x="907.2593" y="1557.2803">create=tfresource.CreateResource,</text><text fill="#0F172A" font-family="Helvetica" font-size="14" lengthAdjust="spacing" textLength="314.3164" x="907.2593" y="1571.2803">tfresource.WaitForWorkRequestWithErrorHandling</text><text fill="#0F172A" font-family="Helvetica" font-size="14" lengthAdjust="spacing" textLength="215.5439" x="907.2593" y="1585.2803">entity=template action=CREATED;</text><text fill="#0F172A" font-family="Helvetica" font-size="14" lengthAdjust="spacing" textLength="226.085" x="907.2593" y="1599.2803">update=tfresource.UpdateResource;</text><text fill="#0F172A" font-family="Helvetica" font-size="14" lengthAdjust="spacing" textLength="273.5537" x="907.2593" y="1613.2803">delete=tfresource.DeleteResource when the</text><text fill="#0F172A" font-family="Helvetica" font-size="14" lengthAdjust="spacing" textLength="220.2334" x="907.2593" y="1627.2803">matching field-driven path executes</text><rect fill="#F8FAFC" height="34" rx="8" ry="8" style="stroke:#0F172A;stroke-width:0.5;" width="303.2197" x="912.8076" y="1660.5"/><text fill="#0F172A" font-family="Helvetica" font-size="14" lengthAdjust="spacing" textLength="283.2197" x="922.8076" y="1681.2803">Return success for the ACTIVE success state</text><rect fill="#F8FAFC" height="48" rx="8" ry="8" style="stroke:#0F172A;stroke-width:0.5;" width="279.1299" x="924.8525" y="1714.5"/><text fill="#0F172A" font-family="Helvetica" font-size="14" lengthAdjust="spacing" textLength="259.1299" x="934.8525" y="1735.2803">Project required status and finalizer policy</text><text fill="#0F172A" font-family="Helvetica" font-size="14" lengthAdjust="spacing" textLength="174.3027" x="934.8525" y="1749.2803">retain-until-confirmed-delete</text><rect fill="#F8FAFC" height="34" rx="8" ry="8" style="stroke:#0F172A;stroke-width:0.5;" width="313.4189" x="907.708" y="1782.5"/><text fill="#0F172A" font-family="Helvetica" font-size="14" lengthAdjust="spacing" textLength="293.4189" x="917.708" y="1803.2803">Requeue on provisioning, updating, terminating</text><path d="M733.0808,1838.5 L733.0808,2070.5 L713.0808,2074.5 L733.0808,2078.5 L733.0808,2310.5 A0,0 0 0 0 733.0808,2310.5 L1296.574,2310.5 A0,0 0 0 0 1296.574,2310.5 L1296.574,1848.5 L1286.574,1838.5 L733.0808,1838.5 A0,0 0 0 0 733.0808,1838.5" fill="#FFF7D6" style="stroke:#B45309;stroke-width:0.5;"/><path d="M1286.574,1838.5 L1286.574,1848.5 L1296.574,1848.5 L1286.574,1838.5" fill="#FFF7D6" style="stroke:#B45309;stroke-width:0.5;"/><text fill="#334155" font-family="Helvetica" font-size="14" lengthAdjust="spacing" textLength="101.165" x="739.0808" y="1854.2803">shared diagram:</text><text fill="#334155" font-family="Helvetica" font-size="14" lengthAdjust="spacing" textLength="284.7852" x="739.0808" y="1868.2803">shared/diagrams/shared-reconcile-activity.svg</text><text fill="#334155" font-family="Helvetica" font-size="14" lengthAdjust="spacing" textLength="265.3438" x="739.0808" y="1882.2803">Start from the shared reconcile activity and</text><text fill="#334155" font-family="Helvetica" font-size="14" lengthAdjust="spacing" textLength="273.8955" x="739.0808" y="1896.2803">specialize provider-backed CRUD, wait, and</text><text fill="#334155" font-family="Helvetica" font-size="14" lengthAdjust="spacing" textLength="182.875" x="739.0808" y="1910.2803">status-projection details here.</text><text fill="#334155" font-family="Helvetica" font-size="14" lengthAdjust="spacing" textLength="229.5371" x="739.0808" y="1924.2803">Controller-local activity diagrams add</text><text fill="#334155" font-family="Helvetica" font-size="14" lengthAdjust="spacing" textLength="238.8955" x="739.0808" y="1938.2803">list-lookup hints, secret policies, delete</text><text fill="#334155" font-family="Helvetica" font-size="14" lengthAdjust="spacing" textLength="200.0332" x="739.0808" y="1952.2803">handling, and open formal gaps.</text><text fill="#334155" font-family="Helvetica" font-size="14" lengthAdjust="spacing" textLength="281.709" x="739.0808" y="1966.2803">archetype batch: Generated service-manager</text><text fill="#334155" font-family="Helvetica" font-size="14" lengthAdjust="spacing" textLength="291.0469" x="739.0808" y="1980.2803">controllers specialize the shared reconcile path</text><text fill="#334155" font-family="Helvetica" font-size="14" lengthAdjust="spacing" textLength="189.8477" x="739.0808" y="1994.2803">with formal runtime ownership.</text><text fill="#334155" font-family="Helvetica" font-size="14" lengthAdjust="spacing" textLength="191.4473" x="739.0808" y="2008.2803">service: databasemanagement</text><text fill="#334155" font-family="Helvetica" font-size="14" lengthAdjust="spacing" textLength="29.5723" x="739.0808" y="2022.2803">slug:</text><text fill="#334155" font-family="Helvetica" font-size="14" lengthAdjust="spacing" textLength="339.3496" x="739.0808" y="2036.2803">databasemanagementdbmanagementprivateendpoints</text><text fill="#334155" font-family="Helvetica" font-size="14" lengthAdjust="spacing" textLength="29.5723" x="739.0808" y="2050.2803">kind:</text><text fill="#334155" font-family="Helvetica" font-size="14" lengthAdjust="spacing" textLength="347.1016" x="739.0808" y="2064.2803">DatabaseManagementDbManagementPrivateEndpoints</text><text fill="#334155" font-family="Helvetica" font-size="14" lengthAdjust="spacing" textLength="241.2402" x="739.0808" y="2078.2803">archetype: generated-service-manager</text><text fill="#334155" font-family="Helvetica" font-size="14" lengthAdjust="spacing" textLength="156.4063" x="739.0808" y="2092.2803">status/finalizer: required /</text><text fill="#334155" font-family="Helvetica" font-size="14" lengthAdjust="spacing" textLength="174.3027" x="739.0808" y="2106.2803">retain-until-confirmed-delete</text><text fill="#334155" font-family="Helvetica" font-size="14" lengthAdjust="spacing" textLength="272.3984" x="739.0808" y="2120.2803">requeue: provisioning, updating, terminating</text><text fill="#334155" font-family="Helvetica" font-size="14" lengthAdjust="spacing" textLength="295.6816" x="739.0808" y="2134.2803">provider states: create PROVISIONING; update</text><text fill="#334155" font-family="Helvetica" font-size="14" lengthAdjust="spacing" textLength="192.165" x="739.0808" y="2148.2803">UPDATING; delete DELETING</text><text fill="#334155" font-family="Helvetica" font-size="14" lengthAdjust="spacing" textLength="183.6611" x="739.0808" y="2162.2803">supported drift: display_name</text><text fill="#334155" font-family="Helvetica" font-size="14" lengthAdjust="spacing" textLength="230.3301" x="739.0808" y="2176.2803">reject before mutate: force-new fields</text><text fill="#334155" font-family="Helvetica" font-size="14" lengthAdjust="spacing" textLength="100.3789" x="739.0808" y="2190.2803">compartment_id</text><text fill="#334155" font-family="Helvetica" font-size="14" lengthAdjust="spacing" textLength="66.1445" x="739.0808" y="2204.2803">list lookup:</text><text fill="#334155" font-family="Helvetica" font-size="14" lengthAdjust="spacing" textLength="542.4932" x="739.0808" y="2218.2803">scaffold_databasemanagement_databasemanagementdbmanagementprivateendpoints</text><text fill="#334155" font-family="Helvetica" font-size="14" lengthAdjust="spacing" textLength="175.8477" x="739.0808" y="2232.2803">filters compartment_id, state</text><text fill="#334155" font-family="Helvetica" font-size="14" lengthAdjust="spacing" textLength="89.4961" x="739.0808" y="2246.2803">conflicts: none</text><text fill="#334155" font-family="Helvetica" font-size="14" lengthAdjust="spacing" textLength="104.3164" x="739.0808" y="2260.2803">open gaps: none</text><text fill="#334155" font-family="Helvetica" font-size="14" lengthAdjust="spacing" textLength="224.9023" x="739.0808" y="2274.2803">Scaffold metadata only; replace with</text><text fill="#334155" font-family="Helvetica" font-size="14" lengthAdjust="spacing" textLength="244.3232" x="739.0808" y="2288.2803">controller-specific runtime states before</text><text fill="#334155" font-family="Helvetica" font-size="14" lengthAdjust="spacing" textLength="66.1445" x="739.0808" y="2302.2803">promotion.</text><ellipse cx="702.0808" cy="2074.5" fill="none" rx="11" ry="11" style="stroke:#222222;stroke-width:1;"/><ellipse cx="702.0808" cy="2074.5" fill="#222222" rx="6" ry="6" style="stroke:#222222;stroke-width:1;"/><line style="stroke:#0F172A;stroke-width:1;" x1="702.0808" x2="702.0808" y1="157" y2="177"/><polygon fill="#0F172A" points="698.0808,167,702.0808,177,706.0808,167,702.0808,171" style="stroke:#0F172A;stroke-width:1;"/><line style="stroke:#0F172A;stroke-width:1;" x1="911.7781" x2="911.7781" y1="355" y2="375"/><polygon fill="#0F172A" points="907.7781,365,911.7781,375,915.7781,365,911.7781,369" style="stroke:#0F172A;stroke-width:1;"/><line style="stroke:#0F172A;stroke-width:1;" x1="911.7781" x2="911.7781" y1="437" y2="457"/><polygon fill="#0F172A" points="907.7781,447,911.7781,457,915.7781,447,911.7781,451" style="stroke:#0F172A;stroke-width:1;"/><line style="stroke:#0F172A;stroke-width:1;" x1="560.615" x2="492.3835" y1="271" y2="271"/><line style="stroke:#0F172A;stroke-width:1;" x1="492.3835" x2="492.3835" y1="271" y2="293"/><polygon fill="#0F172A" points="488.3835,283,492.3835,293,496.3835,283,492.3835,287" style="stroke:#0F172A;stroke-width:1;"/><line style="stroke:#0F172A;stroke-width:1;" x1="843.5466" x2="911.7781" y1="271" y2="271"/><line style="stroke:#0F172A;stroke-width:1;" x1="911.7781" x2="911.7781" y1="271" y2="293"/><polygon fill="#0F172A" points="907.7781,283,911.7781,293,915.7781,283,911.7781,287" style="stroke:#0F172A;stroke-width:1;"/><line style="stroke:#0F172A;stroke-width:1;" x1="492.3835" x2="492.3835" y1="341" y2="523"/><line style="stroke:#0F172A;stroke-width:1;" x1="492.3835" x2="690.0808" y1="523" y2="523"/><polygon fill="#0F172A" points="680.0808,519,690.0808,523,680.0808,527,684.0808,523" style="stroke:#0F172A;stroke-width:1;"/><line style="stroke:#0F172A;stroke-width:1;" x1="911.7781" x2="911.7781" y1="505" y2="523"/><line style="stroke:#0F172A;stroke-width:1;" x1="911.7781" x2="714.0808" y1="523" y2="523"/><polygon fill="#0F172A" points="724.0808,519,714.0808,523,724.0808,527,720.0808,523" style="stroke:#0F172A;stroke-width:1;"/><line style="stroke:#0F172A;stroke-width:1;" x1="702.0808" x2="702.0808" y1="239" y2="259"/><polygon fill="#0F172A" points="698.0808,249,702.0808,259,706.0808,249,702.0808,253" style="stroke:#0F172A;stroke-width:1;"/><line style="stroke:#0F172A;stroke-width:1;" x1="702.0808" x2="702.0808" y1="65" y2="109"/><polygon fill="#0F172A" points="698.0808,99,702.0808,109,706.0808,99,702.0808,103" style="stroke:#0F172A;stroke-width:1;"/><line style="stroke:#0F172A;stroke-width:1;" x1="339.7441" x2="339.7441" y1="753" y2="788"/><polygon fill="#0F172A" points="335.7441,778,339.7441,788,343.7441,778,339.7441,782" style="stroke:#0F172A;stroke-width:1;"/><line style="stroke:#0F172A;stroke-width:1;" x1="179.5718" x2="169.5718" y1="925" y2="925"/><line style="stroke:#0F172A;stroke-width:1;" x1="169.5718" x2="169.5718" y1="925" y2="947"/><polygon fill="#0F172A" points="165.5718,937,169.5718,947,173.5718,937,169.5718,941" style="stroke:#0F172A;stroke-width:1;"/><line style="stroke:#0F172A;stroke-width:1;" x1="499.9165" x2="509.9165" y1="925" y2="925"/><line style="stroke:#0F172A;stroke-width:1;" x1="509.9165" x2="509.9165" y1="925" y2="947"/><polygon fill="#0F172A" points="505.9165,937,509.9165,947,513.9165,937,509.9165,941" style="stroke:#0F172A;stroke-width:1;"/><line style="stroke:#0F172A;stroke-width:1;" x1="169.5718" x2="169.5718" y1="981" y2="1013"/><line style="stroke:#0F172A;stroke-width:1;" x1="169.5718" x2="327.7441" y1="1013" y2="1013"/><polygon fill="#0F172A" points="317.7441,1009,327.7441,1013,317.7441,1017,321.7441,1013" style="stroke:#0F172A;stroke-width:1;"/><line style="stroke:#0F172A;stroke-width:1;" x1="509.9165" x2="509.9165" y1="995" y2="1013"/><line style="stroke:#0F172A;stroke-width:1;" x1="509.9165" x2="351.7441" y1="1013" y2="1013"/><polygon fill="#0F172A" points="361.7441,1009,351.7441,1013,361.7441,1017,357.7441,1013" style="stroke:#0F172A;stroke-width:1;"/><line style="stroke:#0F172A;stroke-width:1;" x1="339.7441" x2="339.7441" y1="878" y2="913"/><polygon fill="#0F172A" points="335.7441,903,339.7441,913,343.7441,903,339.7441,907" style="stroke:#0F172A;stroke-width:1;"/><line style="stroke:#0F172A;stroke-width:1;" x1="339.7441" x2="339.7441" y1="1025" y2="1077"/><polygon fill="#0F172A" points="335.7441,1067,339.7441,1077,343.7441,1067,339.7441,1071" style="stroke:#0F172A;stroke-width:1;"/><line style="stroke:#0F172A;stroke-width:1;" x1="1064.4175" x2="1064.4175" y1="732" y2="767"/><polygon fill="#0F172A" points="1060.4175,757,1064.4175,767,1068.4175,757,1064.4175,761" style="stroke:#0F172A;stroke-width:1;"/><line style="stroke:#0F172A;stroke-width:1;" x1="1064.4175" x2="1064.4175" y1="659" y2="684"/><polygon fill="#0F172A" points="1060.4175,674,1064.4175,684,1068.4175,674,1064.4175,678" style="stroke:#0F172A;stroke-width:1;"/><line style="stroke:#0F172A;stroke-width:1;" x1="1162.7007" x2="1214.7139" y1="647" y2="647"/><polygon fill="#0F172A" points="1210.7139,723.5,1214.7139,733.5,1218.7139,723.5,1214.7139,727.5" style="stroke:#0F172A;stroke-width:1;"/><line style="stroke:#0F172A;stroke-width:1;" x1="1214.7139" x2="1214.7139" y1="647" y2="820"/><line style="stroke:#0F172A;stroke-width:1;" x1="1214.7139" x2="1064.4175" y1="820" y2="820"/><line style="stroke:#0F172A;stroke-width:1;" x1="1064.4175" x2="1064.4175" y1="820" y2="855"/><polygon fill="#0F172A" points="1060.4175,845,1064.4175,855,1068.4175,845,1064.4175,849" style="stroke:#0F172A;stroke-width:1;"/><line style="stroke:#0F172A;stroke-width:1;" x1="1064.4175" x2="1064.4175" y1="952" y2="987"/><polygon fill="#0F172A" points="1060.4175,977,1064.4175,987,1068.4175,977,1064.4175,981" style="stroke:#0F172A;stroke-width:1;"/><line style="stroke:#0F172A;stroke-width:1;" x1="1064.4175" x2="1064.4175" y1="879" y2="904"/><polygon fill="#0F172A" points="1060.4175,894,1064.4175,904,1068.4175,894,1064.4175,898" style="stroke:#0F172A;stroke-width:1;"/><line style="stroke:#0F172A;stroke-width:1;" x1="1196.9385" x2="1221.3755" y1="867" y2="867"/><polygon fill="#0F172A" points="1217.3755,943.5,1221.3755,953.5,1225.3755,943.5,1221.3755,947.5" style="stroke:#0F172A;stroke-width:1;"/><line style="stroke:#0F172A;stroke-width:1;" x1="1221.3755" x2="1221.3755" y1="867" y2="1040"/><line style="stroke:#0F172A;stroke-width:1;" x1="1221.3755" x2="1064.4175" y1="1040" y2="1040"/><line style="stroke:#0F172A;stroke-width:1;" x1="1064.4175" x2="1064.4175" y1="1040" y2="1126"/><polygon fill="#0F172A" points="1060.4175,1116,1064.4175,1126,1068.4175,1116,1064.4175,1120" style="stroke:#0F172A;stroke-width:1;"/><line style="stroke:#0F172A;stroke-width:1;" x1="1064.4175" x2="1064.4175" y1="1291" y2="1312.5"/><polygon fill="#0F172A" points="1060.4175,1302.5,1064.4175,1312.5,1068.4175,1302.5,1064.4175,1306.5" style="stroke:#0F172A;stroke-width:1;"/><line style="stroke:#0F172A;stroke-width:1;" x1="1064.4175" x2="1064.4175" y1="1218" y2="1243"/><polygon fill="#0F172A" points="1060.4175,1233,1064.4175,1243,1068.4175,1233,1064.4175,1237" style="stroke:#0F172A;stroke-width:1;"/><line style="stroke:#0F172A;stroke-width:1;" x1="1202.0005" x2="1225.6411" y1="1206" y2="1206"/><polygon fill="#0F172A" points="1221.6411,1282.5,1225.6411,1292.5,1229.6411,1282.5,1225.6411,1286.5" style="stroke:#0F172A;stroke-width:1;"/><line style="stroke:#0F172A;stroke-width:1;" x1="1225.6411" x2="1225.6411" y1="1206" y2="1356.5"/><line style="stroke:#0F172A;stroke-width:1;" x1="1225.6411" x2="1064.4175" y1="1356.5" y2="1356.5"/><line style="stroke:#0F172A;stroke-width:1;" x1="1064.4175" x2="1064.4175" y1="1356.5" y2="1376.5"/><polygon fill="#0F172A" points="1060.4175,1366.5,1064.4175,1376.5,1068.4175,1366.5,1064.4175,1370.5" style="stroke:#0F172A;stroke-width:1;"/><line style="stroke:#0F172A;stroke-width:1;" x1="1064.4175" x2="1064.4175" y1="1174" y2="1194"/><polygon fill="#0F172A" points="1060.4175,1184,1064.4175,1194,1068.4175,1184,1064.4175,1188" style="stroke:#0F172A;stroke-width:1;"/><line style="stroke:#0F172A;stroke-width:1;" x1="941.9897" x2="901.6045" y1="1388.5" y2="1388.5"/><line style="stroke:#0F172A;stroke-width:1;" x1="901.6045" x2="901.6045" y1="1388.5" y2="1410.5"/><polygon fill="#0F172A" points="897.6045,1400.5,901.6045,1410.5,905.6045,1400.5,901.6045,1404.5" style="stroke:#0F172A;stroke-width:1;"/><line style="stroke:#0F172A;stroke-width:1;" x1="1186.8452" x2="1227.2305" y1="1388.5" y2="1388.5"/><line style="stroke:#0F172A;stroke-width:1;" x1="1227.2305" x2="1227.2305" y1="1388.5" y2="1410.5"/><polygon fill="#0F172A" points="1223.2305,1400.5,1227.2305,1410.5,1231.2305,1400.5,1227.2305,1404.5" style="stroke:#0F172A;stroke-width:1;"/><line style="stroke:#0F172A;stroke-width:1;" x1="901.6045" x2="901.6045" y1="1472.5" y2="1490.5"/><line style="stroke:#0F172A;stroke-width:1;" x1="901.6045" x2="1052.4175" y1="1490.5" y2="1490.5"/><polygon fill="#0F172A" points="1042.4175,1486.5,1052.4175,1490.5,1042.4175,1494.5,1046.4175,1490.5" style="stroke:#0F172A;stroke-width:1;"/><line style="stroke:#0F172A;stroke-width:1;" x1="1227.2305" x2="1227.2305" y1="1444.5" y2="1490.5"/><line style="stroke:#0F172A;stroke-width:1;" x1="1227.2305" x2="1076.4175" y1="1490.5" y2="1490.5"/><polygon fill="#0F172A" points="1086.4175,1486.5,1076.4175,1490.5,1086.4175,1494.5,1082.4175,1490.5" style="stroke:#0F172A;stroke-width:1;"/><line style="stroke:#0F172A;stroke-width:1;" x1="1064.4175" x2="1064.4175" y1="1502.5" y2="1522.5"/><polygon fill="#0F172A" points="1060.4175,1512.5,1064.4175,1522.5,1068.4175,1512.5,1064.4175,1516.5" style="stroke:#0F172A;stroke-width:1;"/><line style="stroke:#0F172A;stroke-width:1;" x1="1064.4175" x2="1064.4175" y1="1640.5" y2="1660.5"/><polygon fill="#0F172A" points="1060.4175,1650.5,1064.4175,1660.5,1068.4175,1650.5,1064.4175,1654.5" style="stroke:#0F172A;stroke-width:1;"/><line style="stroke:#0F172A;stroke-width:1;" x1="1064.4175" x2="1064.4175" y1="1694.5" y2="1714.5"/><polygon fill="#0F172A" points="1060.4175,1704.5,1064.4175,1714.5,1068.4175,1704.5,1064.4175,1708.5" style="stroke:#0F172A;stroke-width:1;"/><line style="stroke:#0F172A;stroke-width:1;" x1="1064.4175" x2="1064.4175" y1="1762.5" y2="1782.5"/><polygon fill="#0F172A" points="1060.4175,1772.5,1064.4175,1782.5,1068.4175,1772.5,1064.4175,1776.5" style="stroke:#0F172A;stroke-width:1;"/><line style="stroke:#0F172A;stroke-width:1;" x1="627.9045" x2="339.7441" y1="579" y2="579"/><line style="stroke:#0F172A;stroke-width:1;" x1="339.7441" x2="339.7441" y1="579" y2="635"/><polygon fill="#0F172A" points="335.7441,625,339.7441,635,343.7441,625,339.7441,629" style="stroke:#0F172A;stroke-width:1;"/><line style="stroke:#0F172A;stroke-width:1;" x1="776.2571" x2="1064.4175" y1="579" y2="579"/><line style="stroke:#0F172A;stroke-width:1;" x1="1064.4175" x2="1064.4175" y1="579" y2="635"/><polygon fill="#0F172A" points="1060.4175,625,1064.4175,635,1068.4175,625,1064.4175,629" style="stroke:#0F172A;stroke-width:1;"/><line style="stroke:#0F172A;stroke-width:1;" x1="1064.4175" x2="1064.4175" y1="1816.5" y2="1833.5"/><line style="stroke:#0F172A;stroke-width:1;" x1="1064.4175" x2="702.0808" y1="1833.5" y2="1833.5"/><line style="stroke:#0F172A;stroke-width:1;" x1="702.0808" x2="702.0808" y1="1833.5" y2="2063.5"/><polygon fill="#0F172A" points="698.0808,2053.5,702.0808,2063.5,706.0808,2053.5,702.0808,2057.5" style="stroke:#0F172A;stroke-width:1;"/><line style="stroke:#0F172A;stroke-width:1;" x1="702.0808" x2="702.0808" y1="535" y2="567"/><polygon fill="#0F172A" points="698.0808,557,702.0808,567,706.0808,557,702.0808,561" style="stroke:#0F172A;stroke-width:1;"/><?plantuml-src lLVRRjiu47tNLn3PbnQmawPDBskZMAHssWReDa6IjYy60beQsTpGf9QaxFKk-kzxU94isq6nxiCYC2A9e-7CcJE78_iWLCKDNp0xvuLU2JLZ9PUMCjkkJ7d-C3EwLiL8IstOBsMElw9ZKL39Q-dUQ-K-ymMnZoINv4JE7xUv5NyJEpthB79Zz2fvVrQUldxUVLDfH-_sOYZBryMhNIjj2ZB9OdhsyiMpNtSi_FPf_SMBizENBplhmNskZIB3JbzbJZX9x3ntOYdSclLPmHsVSaiBhlYC5gJSoJWz-hrzD9vkhg-DM7975wgej53ETXDktFwJiKS0VbFoClShtOGIC8oLcoJQPuNW2wsAFPpeERqfdtKCkXvFYpCgtcmMtp_Ys3fktAuzjVvRkodVyVez2wzcI1XG2gtOqTNKabaIuwfWxuGgZf3-uDPRiTBem4531IkbNarKl3b1Q3CWPa_YVTzGhbKk9FKR38_jSZRC1ZV42x3C2bXDr66LmMuLvJtc3F1318ZSrRON0Yr8aYC6Cxmup4J9dXpT9JkaItzLKkJ2iQlH9HC5R7nPAqCMbxyTFMLkJeezMPDzcWq-aFFtBA-DmN9u1vQwDZcnfU0J1Ol3GXzcX7PbJvH-wZ6mMWQ04PUmphVprXvk3dBCvXFr2Qk7ObJR80z2EZAMvNhXI-jDxqNH2vWHwZ0oX8kGvdvwSV7GZLSUGgNXgxPyYgvSS9VFcR1e1L0TcruZ8cGKTZKHX52TFEnNR1Ldek1Lfne3FbM84cmDXHt7OXlwioQB5tSAsE5oj0mCJYzLtCrPRGa1noS7fodWm6_jAVoJT9WeRNwkke1aVF7fukvYZDAgKXY0Z4nzHUDjx0IV_FyTMeswoSGcdi_9Df4EjwgMI-AghaBNba9nYNF6u1KyHeVOEizfhw9ecOLUHhfktk4bADvqlYTwJ7ohrw1RQpQLEWX1ZB090CHhVKtKJW0TobcdguxB3hi-YPBoDVonaUJMYXA7gL_nV0ifUp12nq6OaA8pwz0Objn-We7BaTCriTKSufd0N72XB3nCrFNDrTVBsykhpvUVF_JOb-ln-Lsu2a3ZQfY23P7lHc2Phfr5VyKShMNGz1avkn-BgutoybIhP5hMahMQxdiNGqA4SwAw5JyVtLr-lTWAutiNCI__wr3wiH6bOnznAQ5NeKD7GQk8IR6CgSV0-Spd7rL3B2fjd3ywIa4IHq1jIfvJOjXx3GdhAre5KK4_GFE3kXPXim8yoTrZvFe3pvFHb4fjulQBseLoGh-C_qNVQUjTQTs7_hQkOh31aQ_xZyCuhoe9sVjI5JyXlbh9TOYpsIi5MGXRIRw-LvZujXlZGLG1KgNxkjhawlMnuVxWfiO3evSWZM5pafN_f_K3DeoQ_TQLpT5n74-DctJRWrPjrhvnWQ7IVDFc8J7z6sJq0WEbQIWmKL7utpf29uV2vpwYjwERYtEl8b2O04rtpmXMioTCeXfqJQBiD2Oid5B8UwB2yHJFIa3LHt6M5FF7iKnvxSWEssPeMiP3x56BH6yVDyVgjT61I-tv4C-l7R6hD8YvzfhZGEr-wAD-adCCJp67OH85Y85ELR200m7tM00YN4415_3hRuPejLYtm4G_I3CZPdENfOaj3Mc3xA2XBUkCVZxpv6oZ1ksKZ2GpFw69a6PBdFuqZc6Zco_Z7bk12Rre6g3fLn4opxt2uo4jc6ReECE1veoM4XwWtrnkDce2PxmeCecZ2WRw0P8-zys08OV0JXTX5eG74T5idgWMHqPTKMZj1LpFU6MFCsuWOcvT4UPaS6F0FX0-Cy9euaTY0G68dnKcozlWKFnDpey2v2cLXR4XxMPynV45fbTmR-UYEiwI_y4Zto-PbVLiaEql5DFDTHKLWTgl67p458Fim4-V5e01cpMfztTJZtKxQUaysB3z9FiXfRDqkWt-2vspLdX2Szb16XDPzn0SndSfQyx2OJCFD4TYPbiP3l8xs994H1JwDQb-K464rufzaj5iM-i3vrZa7BefvsMfPN6_Nw7x0ulsmwazQquqG06zfomGs3CttT-cGDW2HV0xCtyg354UvEkb3nJi4BSVU8kPfULZ13g1uV5VQD-NnrvMmeVvlm00?></g></svg>