<?plantuml 1.2026.2?><svg xmlns="http://www.w3.org/2000/svg" xmlns:xlink="http://www.w3.org/1999/xlink" contentStyleType="text/css" data-diagram-type="SEQUENCE" height="1992px" preserveAspectRatio="none" style="width:1160px;height:1992px;background:#FCFCFD;" version="1.1" viewBox="0 0 1160 1992" width="1160px" zoomAndPan="magnify"><title>Sequence - marketplacepublisher/Listing</title><defs/><g><rect fill="#FCFCFD" height="1992" style="stroke:none;stroke-width:1;" width="1160" x="0" y="0"/><text fill="#000000" font-family="Helvetica" font-size="14" font-weight="bold" lengthAdjust="spacing" textLength="273.0752" x="449.9412" y="25.7803">Sequence - marketplacepublisher/Listing</text><rect fill="none" height="290" rx="8" ry="8" style="stroke:#CBD5E1;stroke-width:1.5;" width="738.3779" x="399.3838" y="314"/><rect fill="none" height="146" rx="8" ry="8" style="stroke:#CBD5E1;stroke-width:1.5;" width="475.9575" x="651.8042" y="423"/><rect fill="none" height="44" rx="8" ry="8" style="stroke:#CBD5E1;stroke-width:1.5;" width="455.9575" x="661.8042" y="474"/><rect fill="none" height="798" rx="8" ry="8" style="stroke:#CBD5E1;stroke-width:1.5;" width="774.5737" x="379.3838" y="618"/><rect fill="none" height="246" rx="8" ry="8" style="stroke:#CBD5E1;stroke-width:1.5;" width="738.3779" x="389.3838" y="641"/><rect fill="none" height="44" rx="8" ry="8" style="stroke:#CBD5E1;stroke-width:1.5;" width="455.9575" x="661.8042" y="734"/><rect fill="none" height="88" rx="8" ry="8" style="stroke:#CBD5E1;stroke-width:1.5;" width="438.813" x="399.3838" y="792"/><rect fill="none" height="378" rx="8" ry="8" style="stroke:#CBD5E1;stroke-width:1.5;" width="754.5737" x="389.3838" y="989"/><rect fill="none" height="44" rx="8" ry="8" style="stroke:#CBD5E1;stroke-width:1.5;" width="438.813" x="399.3838" y="1088"/><rect fill="none" height="116" rx="8" ry="8" style="stroke:#CBD5E1;stroke-width:1.5;" width="475.9575" x="651.8042" y="1146"/><rect fill="none" height="44" rx="8" ry="8" style="stroke:#CBD5E1;stroke-width:1.5;" width="455.9575" x="661.8042" y="1211"/><g class="participant-lifeline" data-entity-uid="part1" data-qualified-name="Kubernetes" id="part1-lifeline"><g><title>Kubernetes</title><rect fill="#000000" fill-opacity="0.00000" height="1871" width="8" x="39.8032" y="114"/><line style="stroke:#94A3B8;stroke-width:0.5;stroke-dasharray:5,5;" x1="43" x2="43" y1="114" y2="1985"/></g></g><g class="participant-lifeline" data-entity-uid="part2" data-qualified-name="Controller" id="part2-lifeline"><g><title>Controller</title><rect fill="#000000" fill-opacity="0.00000" height="1871" width="8" x="222.5815" y="114"/><line style="stroke:#94A3B8;stroke-width:0.5;stroke-dasharray:5,5;" x1="226.2368" x2="226.2368" y1="114" y2="1985"/></g></g><g class="participant-lifeline" data-entity-uid="part3" data-qualified-name="BaseReconciler" id="part3-lifeline"><g><title>BaseReconciler</title><rect fill="#000000" fill-opacity="0.00000" height="1871" width="8" x="461.4077" y="114"/><line style="stroke:#94A3B8;stroke-width:0.5;stroke-dasharray:5,5;" x1="465.3838" x2="465.3838" y1="114" y2="1985"/></g></g><g class="participant-lifeline" data-entity-uid="part4" data-qualified-name="ServiceManager" id="part4-lifeline"><g><title>OSOKServiceManager</title><rect fill="#000000" fill-opacity="0.00000" height="1871" width="8" x="746.0005" y="114"/><line style="stroke:#94A3B8;stroke-width:0.5;stroke-dasharray:5,5;" x1="749.8042" x2="749.8042" y1="114" y2="1985"/></g></g><g class="participant-lifeline" data-entity-uid="part5" data-qualified-name="OCI" id="part5-lifeline"><g><title>OCI</title><rect fill="#000000" fill-opacity="0.00000" height="1871" width="8" x="1084.3169" y="114"/><line style="stroke:#94A3B8;stroke-width:0.5;stroke-dasharray:5,5;" x1="1087.8721" x2="1087.8721" y1="114" y2="1985"/></g></g><g class="participant participant-head" data-entity-uid="part1" data-qualified-name="Kubernetes" id="part1-head"><text fill="#000000" font-family="Helvetica" font-size="14" lengthAdjust="spacing" textLength="71.6064" x="5" y="110.7803">Kubernetes</text><ellipse cx="43.8032" cy="48.5" fill="#E2E8F0" rx="8" ry="8" style="stroke:#0F172A;stroke-width:0.5;"/><path d="M43.8032,56.5 L43.8032,83.5 M30.8032,64.5 L56.8032,64.5 M43.8032,83.5 L30.8032,98.5 M43.8032,83.5 L56.8032,98.5" fill="none" style="stroke:#0F172A;stroke-width:0.5;"/></g><g class="participant participant-head" data-entity-uid="part2" data-qualified-name="Controller" id="part2-head"><rect fill="#E2E8F0" height="28" rx="8" ry="8" style="stroke:#0F172A;stroke-width:0.5;" width="74.6895" x="189.2368" y="85"/><text fill="#0F172A" font-family="Helvetica" font-size="14" lengthAdjust="spacing" textLength="60.6895" x="196.2368" y="102.7803">Controller</text></g><g class="participant participant-head" data-entity-uid="part3" data-qualified-name="BaseReconciler" id="part3-head"><rect fill="#E2E8F0" height="28" rx="8" ry="8" style="stroke:#0F172A;stroke-width:0.5;" width="112.0479" x="409.3838" y="85"/><text fill="#0F172A" font-family="Helvetica" font-size="14" lengthAdjust="spacing" textLength="98.0479" x="416.3838" y="102.7803">BaseReconciler</text></g><g class="participant participant-head" data-entity-uid="part4" data-qualified-name="ServiceManager" id="part4-head"><rect fill="#E2E8F0" height="28" rx="8" ry="8" style="stroke:#0F172A;stroke-width:0.5;" width="156.3926" x="671.8042" y="85"/><text fill="#0F172A" font-family="Helvetica" font-size="14" lengthAdjust="spacing" textLength="142.3926" x="678.8042" y="102.7803">OSOKServiceManager</text></g><g class="participant participant-head" data-entity-uid="part5" data-qualified-name="OCI" id="part5-head"><rect fill="#E2E8F0" height="28" rx="8" ry="8" style="stroke:#0F172A;stroke-width:0.5;" width="38.8896" x="1068.8721" y="85"/><text fill="#0F172A" font-family="Helvetica" font-size="14" lengthAdjust="spacing" textLength="24.8896" x="1075.8721" y="102.7803">OCI</text></g><path d="M400,137 L400,187 A8,8 0 0 0 408,195 L805,195 A8,8 0 0 0 813,187 L813,139 L803,129 L408,129 A8,8 0 0 0 400,137" fill="#FFF7D6" style="stroke:#B45309;stroke-width:0.5;"/><path d="M803,129 L803,135 A4,4 0 0 0 807,139 L813,139 L803,129" fill="#FFF7D6" style="stroke:#B45309;stroke-width:0.5;"/><text fill="#334155" font-family="Helvetica" font-size="14" lengthAdjust="spacing" textLength="111.2891" x="448.7107" y="144.7803">shared resolution:</text><text fill="#334155" font-family="Helvetica" font-size="14" lengthAdjust="spacing" textLength="307.3916" x="448.7107" y="158.7803">shared/diagrams/shared-resolution-sequence.svg</text><text fill="#334155" font-family="Helvetica" font-size="14" lengthAdjust="spacing" textLength="88.7305" x="448.7107" y="172.7803">shared delete:</text><text fill="#334155" font-family="Helvetica" font-size="14" lengthAdjust="spacing" textLength="284.833" x="448.7107" y="186.7803">shared/diagrams/shared-delete-sequence.svg</text><g class="message" data-entity-1="part1" data-entity-2="part2" id="msg1"><polygon fill="#0F172A" points="214.5815,216,224.5815,220,214.5815,224,218.5815,220" style="stroke:#0F172A;stroke-width:1;"/><line style="stroke:#0F172A;stroke-width:1;" x1="43.8032" x2="220.5815" y1="220" y2="220"/><text fill="#000000" font-family="Helvetica" font-size="14" lengthAdjust="spacing" textLength="158.7783" x="50.8032" y="214.7803">enqueue Listing reconcile</text></g><g class="message" data-entity-1="part2" data-entity-2="part3" id="msg2"><polygon fill="#0F172A" points="453.4077,244,463.4077,248,453.4077,252,457.4077,248" style="stroke:#0F172A;stroke-width:1;"/><line style="stroke:#0F172A;stroke-width:1;" x1="226.5815" x2="459.4077" y1="248" y2="248"/><text fill="#000000" font-family="Helvetica" font-size="14" lengthAdjust="spacing" textLength="117.4961" x="233.5815" y="242.7803">Reconcile(request)</text></g><g class="message" data-entity-1="part3" data-entity-2="part4" id="msg3"><polygon fill="#0F172A" points="738.0005,272,748.0005,276,738.0005,280,742.0005,276" style="stroke:#0F172A;stroke-width:1;"/><line style="stroke:#0F172A;stroke-width:1;" x1="465.4077" x2="744.0005" y1="276" y2="276"/><text fill="#000000" font-family="Helvetica" font-size="14" lengthAdjust="spacing" textLength="150.1924" x="472.4077" y="270.7803">reconcile desired Listing</text></g><path d="M407.3838,314 L460.7217,314 L460.7217,320 L450.7217,330 L399.3838,330 L399.3838,322 A8,8 0 0 1 407.3838,314" fill="#F8FAFC" style="stroke:#CBD5E1;stroke-width:1.5;"/><rect fill="none" height="290" rx="8" ry="8" style="stroke:#CBD5E1;stroke-width:1.5;" width="738.3779" x="399.3838" y="314"/><text fill="#000000" font-family="Helvetica" font-size="14" font-weight="bold" lengthAdjust="spacing" textLength="16.3379" x="414.3838" y="325.7803">alt</text><text fill="#000000" font-family="Helvetica" font-size="14" font-weight="bold" lengthAdjust="spacing" textLength="308.1094" x="475.7217" y="326.7803">[tracked or explicit OCI identity already exists]</text><g class="message" data-entity-1="part4" data-entity-2="part5" id="msg4"><polygon fill="#0F172A" points="1076.3169,346,1086.3169,350,1076.3169,354,1080.3169,350" style="stroke:#0F172A;stroke-width:1;"/><line style="stroke:#0F172A;stroke-width:1;" x1="750.0005" x2="1082.3169" y1="350" y2="350"/><text fill="#000000" font-family="Helvetica" font-size="14" lengthAdjust="spacing" textLength="63.0342" x="757.0005" y="344.7803">GetListing</text></g><line style="stroke:#CBD5E1;stroke-width:1;stroke-dasharray:2,2;" x1="399.3838" x2="1137.7617" y1="359" y2="359"/><text fill="#000000" font-family="Helvetica" font-size="14" font-weight="bold" lengthAdjust="spacing" textLength="185.1582" x="404.3838" y="369.7803">[tracked identity is missing]</text><g class="message" data-entity-1="part4" data-entity-2="part5" id="msg5"><polygon fill="#0F172A" points="1076.3169,404,1086.3169,408,1076.3169,412,1080.3169,408" style="stroke:#0F172A;stroke-width:1;"/><line style="stroke:#0F172A;stroke-width:1;" x1="750.0005" x2="1082.3169" y1="408" y2="408"/><text fill="#000000" font-family="Helvetica" font-size="14" lengthAdjust="spacing" textLength="212.4131" x="757.0005" y="388.7803">ListListing(filters: compartment_id,</text><text fill="#000000" font-family="Helvetica" font-size="14" lengthAdjust="spacing" textLength="35.0137" x="757.0005" y="402.7803">state)</text></g><path d="M659.8042,423 L713.1421,423 L713.1421,429 L703.1421,439 L651.8042,439 L651.8042,431 A8,8 0 0 1 659.8042,423" fill="#F8FAFC" style="stroke:#CBD5E1;stroke-width:1.5;"/><rect fill="none" height="146" rx="8" ry="8" style="stroke:#CBD5E1;stroke-width:1.5;" width="475.9575" x="651.8042" y="423"/><text fill="#000000" font-family="Helvetica" font-size="14" font-weight="bold" lengthAdjust="spacing" textLength="16.3379" x="666.8042" y="434.7803">alt</text><text fill="#000000" font-family="Helvetica" font-size="14" font-weight="bold" lengthAdjust="spacing" textLength="242.7031" x="728.1421" y="435.7803">[reusable OCI resource is not found]</text><g class="message" data-entity-1="part4" data-entity-2="part5" id="msg6"><polygon fill="#0F172A" points="1076.3169,455,1086.3169,459,1076.3169,463,1080.3169,459" style="stroke:#0F172A;stroke-width:1;"/><line style="stroke:#0F172A;stroke-width:1;" x1="750.0005" x2="1082.3169" y1="459" y2="459"/><text fill="#000000" font-family="Helvetica" font-size="14" lengthAdjust="spacing" textLength="82.4893" x="757.0005" y="453.7803">CreateListing</text></g><path d="M669.8042,474 L736.3491,474 L736.3491,480 L726.3491,490 L661.8042,490 L661.8042,482 A8,8 0 0 1 669.8042,474" fill="#F8FAFC" style="stroke:#CBD5E1;stroke-width:1.5;"/><rect fill="none" height="44" rx="8" ry="8" style="stroke:#CBD5E1;stroke-width:1.5;" width="455.9575" x="661.8042" y="474"/><text fill="#000000" font-family="Helvetica" font-size="14" font-weight="bold" lengthAdjust="spacing" textLength="29.5449" x="676.8042" y="485.7803">loop</text><text fill="#000000" font-family="Helvetica" font-size="14" font-weight="bold" lengthAdjust="spacing" textLength="215.4756" x="751.3491" y="486.7803">[create pending PROVISIONING]</text><g class="message" data-entity-1="part4" data-entity-2="part5" id="msg7"><polygon fill="#0F172A" points="1076.3169,506,1086.3169,510,1076.3169,514,1080.3169,510" style="stroke:#0F172A;stroke-width:1;"/><line style="stroke:#0F172A;stroke-width:1;" x1="750.0005" x2="1082.3169" y1="510" y2="510"/><text fill="#000000" font-family="Helvetica" font-size="14" lengthAdjust="spacing" textLength="63.0342" x="757.0005" y="504.7803">GetListing</text></g><line style="stroke:#CBD5E1;stroke-width:1;stroke-dasharray:2,2;" x1="651.8042" x2="1127.7617" y1="526" y2="526"/><text fill="#000000" font-family="Helvetica" font-size="14" font-weight="bold" lengthAdjust="spacing" textLength="255.2334" x="656.8042" y="536.7803">[reusable OCI resource already exists]</text><g class="message" data-entity-1="part4" data-entity-2="part5" id="msg8"><polygon fill="#0F172A" points="1076.3169,557,1086.3169,561,1076.3169,565,1080.3169,561" style="stroke:#0F172A;stroke-width:1;"/><line style="stroke:#0F172A;stroke-width:1;" x1="750.0005" x2="1082.3169" y1="561" y2="561"/><text fill="#000000" font-family="Helvetica" font-size="14" lengthAdjust="spacing" textLength="63.0342" x="757.0005" y="555.7803">GetListing</text></g><g class="message" data-entity-1="part4" data-entity-2="part3" id="msg9"><polygon fill="#0F172A" points="476.4077,592,466.4077,596,476.4077,600,472.4077,596" style="stroke:#0F172A;stroke-width:1;"/><line style="stroke:#0F172A;stroke-width:1;stroke-dasharray:2,2;" x1="470.4077" x2="749.0005" y1="596" y2="596"/><text fill="#000000" font-family="Helvetica" font-size="14" lengthAdjust="spacing" textLength="231.0957" x="482.4077" y="590.7803">persist resolved OCI identity in status</text></g><path d="M387.3838,618 L440.7217,618 L440.7217,624 L430.7217,634 L379.3838,634 L379.3838,626 A8,8 0 0 1 387.3838,618" fill="#F8FAFC" style="stroke:#CBD5E1;stroke-width:1.5;"/><rect fill="none" height="798" rx="8" ry="8" style="stroke:#CBD5E1;stroke-width:1.5;" width="774.5737" x="379.3838" y="618"/><text fill="#000000" font-family="Helvetica" font-size="14" font-weight="bold" lengthAdjust="spacing" textLength="16.3379" x="394.3838" y="629.7803">alt</text><text fill="#000000" font-family="Helvetica" font-size="14" font-weight="bold" lengthAdjust="spacing" textLength="120.5859" x="455.7217" y="630.7803">[delete requested]</text><path d="M397.3838,641 L476.4043,641 L476.4043,647 L466.4043,657 L389.3838,657 L389.3838,649 A8,8 0 0 1 397.3838,641" fill="#F8FAFC" style="stroke:#CBD5E1;stroke-width:1.5;"/><rect fill="none" height="246" rx="8" ry="8" style="stroke:#CBD5E1;stroke-width:1.5;" width="738.3779" x="389.3838" y="641"/><text fill="#000000" font-family="Helvetica" font-size="14" font-weight="bold" lengthAdjust="spacing" textLength="42.0205" x="404.3838" y="652.7803">Delete</text><g class="message" data-entity-1="part4" data-entity-2="part5" id="msg10"><polygon fill="#0F172A" points="1076.3169,673,1086.3169,677,1076.3169,681,1080.3169,677" style="stroke:#0F172A;stroke-width:1;"/><line style="stroke:#0F172A;stroke-width:1;" x1="750.0005" x2="1082.3169" y1="677" y2="677"/><text fill="#000000" font-family="Helvetica" font-size="14" lengthAdjust="spacing" textLength="80.9375" x="757.0005" y="671.7803">DeleteListing</text></g><g class="message" data-entity-1="part4" data-entity-2="part5" id="msg11"><polygon fill="#0F172A" points="1076.3169,715,1086.3169,719,1076.3169,723,1080.3169,719" style="stroke:#0F172A;stroke-width:1;"/><line style="stroke:#0F172A;stroke-width:1;" x1="750.0005" x2="1082.3169" y1="719" y2="719"/><text fill="#000000" font-family="Helvetica" font-size="14" lengthAdjust="spacing" textLength="192.9785" x="757.0005" y="699.7803">confirm delete via GetListing or</text><text fill="#000000" font-family="Helvetica" font-size="14" lengthAdjust="spacing" textLength="62.2549" x="757.0005" y="713.7803">ListListing</text></g><path d="M669.8042,734 L736.3491,734 L736.3491,740 L726.3491,750 L661.8042,750 L661.8042,742 A8,8 0 0 1 669.8042,734" fill="#F8FAFC" style="stroke:#CBD5E1;stroke-width:1.5;"/><rect fill="none" height="44" rx="8" ry="8" style="stroke:#CBD5E1;stroke-width:1.5;" width="455.9575" x="661.8042" y="734"/><text fill="#000000" font-family="Helvetica" font-size="14" font-weight="bold" lengthAdjust="spacing" textLength="29.5449" x="676.8042" y="745.7803">loop</text><text fill="#000000" font-family="Helvetica" font-size="14" font-weight="bold" lengthAdjust="spacing" textLength="182.7793" x="751.3491" y="746.7803">[delete pending DELETING]</text><g class="message" data-entity-1="part4" data-entity-2="part5" id="msg12"><polygon fill="#0F172A" points="1076.3169,766,1086.3169,770,1076.3169,774,1080.3169,770" style="stroke:#0F172A;stroke-width:1;"/><line style="stroke:#0F172A;stroke-width:1;" x1="750.0005" x2="1082.3169" y1="770" y2="770"/><text fill="#000000" font-family="Helvetica" font-size="14" lengthAdjust="spacing" textLength="145.5166" x="757.0005" y="764.7803">GetListing or ListListing</text></g><path d="M407.3838,792 L460.7217,792 L460.7217,798 L450.7217,808 L399.3838,808 L399.3838,800 A8,8 0 0 1 407.3838,792" fill="#F8FAFC" style="stroke:#CBD5E1;stroke-width:1.5;"/><rect fill="none" height="88" rx="8" ry="8" style="stroke:#CBD5E1;stroke-width:1.5;" width="438.813" x="399.3838" y="792"/><text fill="#000000" font-family="Helvetica" font-size="14" font-weight="bold" lengthAdjust="spacing" textLength="16.3379" x="414.3838" y="803.7803">alt</text><text fill="#000000" font-family="Helvetica" font-size="14" font-weight="bold" lengthAdjust="spacing" textLength="261.4268" x="475.7217" y="804.7803">[cleanup or finalizer release is blocked]</text><g class="message" data-entity-1="part4" data-entity-2="part3" id="msg13"><polygon fill="#0F172A" points="476.4077,824,466.4077,828,476.4077,832,472.4077,828" style="stroke:#0F172A;stroke-width:1;"/><line style="stroke:#0F172A;stroke-width:1;stroke-dasharray:2,2;" x1="470.4077" x2="749.0005" y1="828" y2="828"/><text fill="#000000" font-family="Helvetica" font-size="14" lengthAdjust="spacing" textLength="170.4336" x="482.4077" y="822.7803">retain delete state and retry</text></g><line style="stroke:#CBD5E1;stroke-width:1;stroke-dasharray:2,2;" x1="399.3838" x2="838.1968" y1="837" y2="837"/><text fill="#000000" font-family="Helvetica" font-size="14" font-weight="bold" lengthAdjust="spacing" textLength="194.4824" x="404.3838" y="847.7803">[delete completion observed]</text><g class="message" data-entity-1="part4" data-entity-2="part3" id="msg14"><polygon fill="#0F172A" points="476.4077,868,466.4077,872,476.4077,876,472.4077,872" style="stroke:#0F172A;stroke-width:1;"/><line style="stroke:#0F172A;stroke-width:1;stroke-dasharray:2,2;" x1="470.4077" x2="749.0005" y1="872" y2="872"/><text fill="#000000" font-family="Helvetica" font-size="14" lengthAdjust="spacing" textLength="243.5781" x="482.4077" y="866.7803">release finalizer after delete completion</text></g><line style="stroke:#CBD5E1;stroke-width:1;stroke-dasharray:2,2;" x1="379.3838" x2="1153.9575" y1="895" y2="895"/><text fill="#000000" font-family="Helvetica" font-size="14" font-weight="bold" lengthAdjust="spacing" textLength="149.3857" x="384.3838" y="905.7803">[OCI state is retryable]</text><g class="message" data-entity-1="part4" data-entity-2="part3" id="msg15"><polygon fill="#0F172A" points="476.4077,940,466.4077,944,476.4077,948,472.4077,944" style="stroke:#0F172A;stroke-width:1;"/><line style="stroke:#0F172A;stroke-width:1;stroke-dasharray:2,2;" x1="470.4077" x2="749.0005" y1="944" y2="944"/><text fill="#000000" font-family="Helvetica" font-size="14" lengthAdjust="spacing" textLength="184.4199" x="482.4077" y="924.7803">requeue while OCI remains in</text><text fill="#000000" font-family="Helvetica" font-size="14" lengthAdjust="spacing" textLength="260.5928" x="482.4077" y="938.7803">PROVISIONING, UPDATING, DELETING</text></g><line style="stroke:#CBD5E1;stroke-width:1;stroke-dasharray:2,2;" x1="379.3838" x2="1153.9575" y1="953" y2="953"/><text fill="#000000" font-family="Helvetica" font-size="14" font-weight="bold" lengthAdjust="spacing" textLength="200.751" x="384.3838" y="963.7803">[live state requires field-aware</text><text fill="#000000" font-family="Helvetica" font-size="14" font-weight="bold" lengthAdjust="spacing" textLength="105.0068" x="384.3838" y="977.7803">drift evaluation]</text><path d="M397.3838,989 L525.3701,989 L525.3701,995 L515.3701,1005 L389.3838,1005 L389.3838,997 A8,8 0 0 1 397.3838,989" fill="#F8FAFC" style="stroke:#CBD5E1;stroke-width:1.5;"/><rect fill="none" height="378" rx="8" ry="8" style="stroke:#CBD5E1;stroke-width:1.5;" width="754.5737" x="389.3838" y="989"/><text fill="#000000" font-family="Helvetica" font-size="14" font-weight="bold" lengthAdjust="spacing" textLength="90.9863" x="404.3838" y="1000.7803">Drift handling</text><path d="M703,1018 L703,1068 A8,8 0 0 0 711,1076 L1125,1076 A8,8 0 0 0 1133,1068 L1133,1020 L1123,1010 L711,1010 A8,8 0 0 0 703,1018" fill="#FFF7D6" style="stroke:#B45309;stroke-width:0.5;"/><path d="M1123,1010 L1123,1016 A4,4 0 0 0 1127,1020 L1133,1020 L1123,1010" fill="#FFF7D6" style="stroke:#B45309;stroke-width:0.5;"/><text fill="#334155" font-family="Helvetica" font-size="14" lengthAdjust="spacing" textLength="255.2813" x="786.3381" y="1025.7803">Supported update surface: display_name</text><text fill="#334155" font-family="Helvetica" font-size="14" lengthAdjust="spacing" textLength="235.7783" x="786.3381" y="1039.7803">Reject before mutate: force-new fields</text><text fill="#334155" font-family="Helvetica" font-size="14" lengthAdjust="spacing" textLength="100.3789" x="786.3381" y="1053.7803">compartment_id</text><text fill="#334155" font-family="Helvetica" font-size="14" lengthAdjust="spacing" textLength="229.5576" x="786.3381" y="1067.7803">Lookup filters: compartment_id, state</text><path d="M407.3838,1088 L466.1494,1088 L466.1494,1094 L456.1494,1104 L399.3838,1104 L399.3838,1096 A8,8 0 0 1 407.3838,1088" fill="#F8FAFC" style="stroke:#CBD5E1;stroke-width:1.5;"/><rect fill="none" height="44" rx="8" ry="8" style="stroke:#CBD5E1;stroke-width:1.5;" width="438.813" x="399.3838" y="1088"/><text fill="#000000" font-family="Helvetica" font-size="14" font-weight="bold" lengthAdjust="spacing" textLength="21.7656" x="414.3838" y="1099.7803">opt</text><text fill="#000000" font-family="Helvetica" font-size="14" font-weight="bold" lengthAdjust="spacing" textLength="276.1309" x="481.1494" y="1100.7803">[force-new or conflicting drift is detected]</text><g class="message" data-entity-1="part4" data-entity-2="part3" id="msg16"><polygon fill="#0F172A" points="476.4077,1120,466.4077,1124,476.4077,1128,472.4077,1124" style="stroke:#0F172A;stroke-width:1;"/><line style="stroke:#0F172A;stroke-width:1;stroke-dasharray:2,2;" x1="470.4077" x2="749.0005" y1="1124" y2="1124"/><text fill="#000000" font-family="Helvetica" font-size="14" lengthAdjust="spacing" textLength="164.1855" x="482.4077" y="1118.7803">reject before OCI mutation</text></g><path d="M659.8042,1146 L718.5698,1146 L718.5698,1152 L708.5698,1162 L651.8042,1162 L651.8042,1154 A8,8 0 0 1 659.8042,1146" fill="#F8FAFC" style="stroke:#CBD5E1;stroke-width:1.5;"/><rect fill="none" height="116" rx="8" ry="8" style="stroke:#CBD5E1;stroke-width:1.5;" width="475.9575" x="651.8042" y="1146"/><text fill="#000000" font-family="Helvetica" font-size="14" font-weight="bold" lengthAdjust="spacing" textLength="21.7656" x="666.8042" y="1157.7803">opt</text><text fill="#000000" font-family="Helvetica" font-size="14" font-weight="bold" lengthAdjust="spacing" textLength="243.4619" x="733.5698" y="1158.7803">[supported mutable drift is detected]</text><g class="message" data-entity-1="part4" data-entity-2="part5" id="msg17"><polygon fill="#0F172A" points="1076.3169,1192,1086.3169,1196,1076.3169,1200,1080.3169,1196" style="stroke:#0F172A;stroke-width:1;"/><line style="stroke:#0F172A;stroke-width:1;" x1="750.0005" x2="1082.3169" y1="1196" y2="1196"/><text fill="#000000" font-family="Helvetica" font-size="14" lengthAdjust="spacing" textLength="228.0195" x="757.0005" y="1176.7803">Apply UpdateListing only for mutable</text><text fill="#000000" font-family="Helvetica" font-size="14" lengthAdjust="spacing" textLength="122.958" x="757.0005" y="1190.7803">fields display_name</text></g><path d="M669.8042,1211 L736.3491,1211 L736.3491,1217 L726.3491,1227 L661.8042,1227 L661.8042,1219 A8,8 0 0 1 669.8042,1211" fill="#F8FAFC" style="stroke:#CBD5E1;stroke-width:1.5;"/><rect fill="none" height="44" rx="8" ry="8" style="stroke:#CBD5E1;stroke-width:1.5;" width="455.9575" x="661.8042" y="1211"/><text fill="#000000" font-family="Helvetica" font-size="14" font-weight="bold" lengthAdjust="spacing" textLength="29.5449" x="676.8042" y="1222.7803">loop</text><text fill="#000000" font-family="Helvetica" font-size="14" font-weight="bold" lengthAdjust="spacing" textLength="190.5381" x="751.3491" y="1223.7803">[update pending UPDATING]</text><g class="message" data-entity-1="part4" data-entity-2="part5" id="msg18"><polygon fill="#0F172A" points="1076.3169,1243,1086.3169,1247,1076.3169,1251,1080.3169,1247" style="stroke:#0F172A;stroke-width:1;"/><line style="stroke:#0F172A;stroke-width:1;" x1="750.0005" x2="1082.3169" y1="1247" y2="1247"/><text fill="#000000" font-family="Helvetica" font-size="14" lengthAdjust="spacing" textLength="63.0342" x="757.0005" y="1241.7803">GetListing</text></g><g class="message" data-entity-1="part4" data-entity-2="part5" id="msg19"><polygon fill="#0F172A" points="1076.3169,1355,1086.3169,1359,1076.3169,1363,1080.3169,1359" style="stroke:#0F172A;stroke-width:1;"/><line style="stroke:#0F172A;stroke-width:1;" x1="750.0005" x2="1082.3169" y1="1359" y2="1359"/><text fill="#000000" font-family="Helvetica" font-size="14" lengthAdjust="spacing" textLength="104.2891" x="757.0005" y="1283.7803">run helper hooks</text><text fill="#000000" font-family="Helvetica" font-size="14" lengthAdjust="spacing" textLength="219.0508" x="757.0005" y="1297.7803">create=tfresource.CreateResource,</text><text fill="#000000" font-family="Helvetica" font-size="14" lengthAdjust="spacing" textLength="314.3164" x="757.0005" y="1311.7803">tfresource.WaitForWorkRequestWithErrorHandling</text><text fill="#000000" font-family="Helvetica" font-size="14" lengthAdjust="spacing" textLength="215.5439" x="757.0005" y="1325.7803">entity=template action=CREATED;</text><text fill="#000000" font-family="Helvetica" font-size="14" lengthAdjust="spacing" textLength="226.085" x="757.0005" y="1339.7803">update=tfresource.UpdateResource;</text><text fill="#000000" font-family="Helvetica" font-size="14" lengthAdjust="spacing" textLength="212.8438" x="757.0005" y="1353.7803">delete=tfresource.DeleteResource</text></g><g class="message" data-entity-1="part4" data-entity-2="part3" id="msg20"><polygon fill="#0F172A" points="476.4077,1404,466.4077,1408,476.4077,1412,472.4077,1408" style="stroke:#0F172A;stroke-width:1;"/><line style="stroke:#0F172A;stroke-width:1;stroke-dasharray:2,2;" x1="470.4077" x2="749.0005" y1="1408" y2="1408"/><text fill="#000000" font-family="Helvetica" font-size="14" lengthAdjust="spacing" textLength="100.7822" x="482.4077" y="1388.7803">status=required,</text><text fill="#000000" font-family="Helvetica" font-size="14" lengthAdjust="spacing" textLength="230.7197" x="482.4077" y="1402.7803">finalizer=retain-until-confirmed-delete</text></g><g class="message" data-entity-1="part3" data-entity-2="part2" id="msg21"><polygon fill="#0F172A" points="237.5815,1453,227.5815,1457,237.5815,1461,233.5815,1457" style="stroke:#0F172A;stroke-width:1;"/><line style="stroke:#0F172A;stroke-width:1;stroke-dasharray:2,2;" x1="231.5815" x2="464.4077" y1="1457" y2="1457"/><text fill="#000000" font-family="Helvetica" font-size="14" lengthAdjust="spacing" textLength="214.8262" x="243.5815" y="1437.7803">requeue on provisioning, updating,</text><text fill="#000000" font-family="Helvetica" font-size="14" lengthAdjust="spacing" textLength="69.2549" x="243.5815" y="1451.7803">terminating</text></g><path d="M755,1478 L755,1962 A8,8 0 0 0 763,1970 L1075,1970 A8,8 0 0 0 1083,1962 L1083,1480 L1073,1470 L763,1470 A8,8 0 0 0 755,1478" fill="#FFF7D6" style="stroke:#B45309;stroke-width:0.5;"/><path d="M1073,1470 L1073,1476 A4,4 0 0 0 1077,1480 L1083,1480 L1073,1470" fill="#FFF7D6" style="stroke:#B45309;stroke-width:0.5;"/><text fill="#334155" font-family="Helvetica" font-size="14" lengthAdjust="spacing" textLength="101.165" x="761" y="1485.7803">shared diagram:</text><text fill="#334155" font-family="Helvetica" font-size="14" lengthAdjust="spacing" textLength="307.3916" x="761" y="1499.7803">shared/diagrams/shared-resolution-sequence.svg</text><text fill="#334155" font-family="Helvetica" font-size="14" lengthAdjust="spacing" textLength="143.1992" x="761" y="1513.7803">shared delete diagram:</text><text fill="#334155" font-family="Helvetica" font-size="14" lengthAdjust="spacing" textLength="284.833" x="761" y="1527.7803">shared/diagrams/shared-delete-sequence.svg</text><text fill="#334155" font-family="Helvetica" font-size="14" lengthAdjust="spacing" textLength="280.9297" x="761" y="1541.7803">Start from the shared resolution sequence for</text><text fill="#334155" font-family="Helvetica" font-size="14" lengthAdjust="spacing" textLength="260.7295" x="761" y="1555.7803">OCID binding, datasource pagination, and</text><text fill="#334155" font-family="Helvetica" font-size="14" lengthAdjust="spacing" textLength="163.4268" x="761" y="1569.7803">create-or-update dispatch.</text><text fill="#334155" font-family="Helvetica" font-size="14" lengthAdjust="spacing" textLength="301.1982" x="761" y="1583.7803">Layer the shared delete sequence when finalizer</text><text fill="#334155" font-family="Helvetica" font-size="14" lengthAdjust="spacing" textLength="269.2471" x="761" y="1597.7803">retention, delete confirmation, work-request</text><text fill="#334155" font-family="Helvetica" font-size="14" lengthAdjust="spacing" textLength="199.2334" x="761" y="1611.7803">polling, or Secret cleanup apply.</text><text fill="#334155" font-family="Helvetica" font-size="14" lengthAdjust="spacing" textLength="281.709" x="761" y="1625.7803">archetype batch: Generated service-manager</text><text fill="#334155" font-family="Helvetica" font-size="14" lengthAdjust="spacing" textLength="266.1504" x="761" y="1639.7803">controllers follow the shared resolution and</text><text fill="#334155" font-family="Helvetica" font-size="14" lengthAdjust="spacing" textLength="259.9297" x="761" y="1653.7803">delete sequences with imported waits and</text><text fill="#334155" font-family="Helvetica" font-size="14" lengthAdjust="spacing" textLength="134.6064" x="761" y="1667.7803">controller-local policy.</text><text fill="#334155" font-family="Helvetica" font-size="14" lengthAdjust="spacing" textLength="185.1924" x="761" y="1681.7803">service: marketplacepublisher</text><text fill="#334155" font-family="Helvetica" font-size="14" lengthAdjust="spacing" textLength="69.2549" x="761" y="1695.7803">slug: listing</text><text fill="#334155" font-family="Helvetica" font-size="14" lengthAdjust="spacing" textLength="73.9307" x="761" y="1709.7803">kind: Listing</text><text fill="#334155" font-family="Helvetica" font-size="14" lengthAdjust="spacing" textLength="241.2402" x="761" y="1723.7803">archetype: generated-service-manager</text><text fill="#334155" font-family="Helvetica" font-size="14" lengthAdjust="spacing" textLength="156.4063" x="761" y="1737.7803">status/finalizer: required /</text><text fill="#334155" font-family="Helvetica" font-size="14" lengthAdjust="spacing" textLength="174.3027" x="761" y="1751.7803">retain-until-confirmed-delete</text><text fill="#334155" font-family="Helvetica" font-size="14" lengthAdjust="spacing" textLength="272.3984" x="761" y="1765.7803">requeue: provisioning, updating, terminating</text><text fill="#334155" font-family="Helvetica" font-size="14" lengthAdjust="spacing" textLength="295.6816" x="761" y="1779.7803">provider states: create PROVISIONING; update</text><text fill="#334155" font-family="Helvetica" font-size="14" lengthAdjust="spacing" textLength="192.165" x="761" y="1793.7803">UPDATING; delete DELETING</text><text fill="#334155" font-family="Helvetica" font-size="14" lengthAdjust="spacing" textLength="183.6611" x="761" y="1807.7803">supported drift: display_name</text><text fill="#334155" font-family="Helvetica" font-size="14" lengthAdjust="spacing" textLength="230.3301" x="761" y="1821.7803">reject before mutate: force-new fields</text><text fill="#334155" font-family="Helvetica" font-size="14" lengthAdjust="spacing" textLength="100.3789" x="761" y="1835.7803">compartment_id</text><text fill="#334155" font-family="Helvetica" font-size="14" lengthAdjust="spacing" textLength="144.751" x="761" y="1849.7803">create-only fields: none</text><text fill="#334155" font-family="Helvetica" font-size="14" lengthAdjust="spacing" textLength="66.1445" x="761" y="1863.7803">list lookup:</text><text fill="#334155" font-family="Helvetica" font-size="14" lengthAdjust="spacing" textLength="270.0195" x="761" y="1877.7803">scaffold_marketplacepublisher_listing filters</text><text fill="#334155" font-family="Helvetica" font-size="14" lengthAdjust="spacing" textLength="138.5098" x="761" y="1891.7803">compartment_id, state</text><text fill="#334155" font-family="Helvetica" font-size="14" lengthAdjust="spacing" textLength="89.4961" x="761" y="1905.7803">conflicts: none</text><text fill="#334155" font-family="Helvetica" font-size="14" lengthAdjust="spacing" textLength="104.3164" x="761" y="1919.7803">open gaps: none</text><text fill="#334155" font-family="Helvetica" font-size="14" lengthAdjust="spacing" textLength="224.9023" x="761" y="1933.7803">Scaffold metadata only; replace with</text><text fill="#334155" font-family="Helvetica" font-size="14" lengthAdjust="spacing" textLength="244.3232" x="761" y="1947.7803">controller-specific runtime states before</text><text fill="#334155" font-family="Helvetica" font-size="14" lengthAdjust="spacing" textLength="66.1445" x="761" y="1961.7803">promotion.</text><?plantuml-src fLVRRjj647tdLmpIbmImx3YsSw7X0edjDaRSEB2IvaM0iIA7qjRBNNPtASKj-k-TlL6aB3Lg2p-OuipEzSoPfRddic6QrM3ch5HBBcTGCM4mCvraoehxcLQjBC-LK1f-g0hwAtiQ9LQi5VOd9Ur7LYEyHx50omksMMVC_q0uFEu9cTPg6Qq_hmvVlUYVbChYkqSnLDMhykMwbj8bwgWnFJuvUlvcJSEvZ_AZe-F3avEUt9ilb9QeuV1bPhaL26FylKLP88oWPleURIDOWKqx5TpCKHzSSsEfQDcSbmYLKdQgllLicdJypmo05LRfGOmnroHQJn9VuElgEOd969MJDqpQpUVx2hjOwTMXio5uXTTS3gluvfWTJL-Jr9bi1g9YMfxWOITwrA7N5QkAxA_CvmOVsYbIQIsQh1S7d5CWMWc1Ul3w7JDuYuMI1LyNFRaPttmOerxm0dzXairGFm5cOFXgSEJc_2fptGUreDuERU-jdQCvq5Y2HgD4QxcIUNnrK78sevwQW_1xj58PfJRlcyKiMIXHKBPRJmVny2JAqgCqMnKBHZ_sQfG3Ij9l4IBkACwOIBRIScU6IURGFJ_LpgEnpxAXYZiqB4M-Cax96EwIId3tBOThfUxf7wEmfroM6HCMh2OWa2Qr7ByrWbhWwmyq7v96wW6OqCZA1vAIBPCDVReeI3k7dz4cNqXqr9djp703DJV6AMmnuSv76qyhBYngaqEXQeUCcgpSyN9l8erb5f_vq3MsXaqfMnUlwswhQNB94VM4PfkWlStLEQLaCGKib6gWyA-WePwwFdswlVdrQdnry_7guy-xv4o-VDwRO_htDTmG-mQKD5GZEX7Glw1o3ph79RXgjSQRSnKB88O8AImZBYxywsrX1McAR8iInLHnNISF2yvwwH2u9hBNtb3ng9egVd5vVVbvfsexhFQjfUmAWKnIEYIkk6I2rfQcNEcjyR2O2kKmkKjXDLf6vOiXUipviQ7t-Y5qEieSGEc1M0NKr93bNHs4i5Q1ieeG_zXgW5Q2b-jlY8RoyS4uiEtcC13HSiuxTDQKeo6OJ6GVxdlmvTF5sy_-gMkAzoxu8XN3cIE6CPG0YdB4baII4rbgNbd01HCjyy57VFdNSogWSFrQKVimxZt7--EsQPGcR4BRbCwJQNL5Apo7aXjQvWztaguisIt-XeM5ALPA8zIj2ogdeQTf6qbSXh1CDgIFB1BWDdO9kQreNJMsPv9WvL1E5Eb167AbDfJKiCBkslP-sAuBFlJKP-VGT0Lm8aSbt_SKH-HjquW7-EBhrisAf5VaBLcRo52QOJdzGCQ2fu5CADYL_hRJhMubp54GMy6SEc0cCh3jcQqIHUu7IhwDFudeUxAlZDCDI7zL-lusKDTNRkUNT0dLxoEe9ZAGtfb5cXm_heKhwzdvxUNRpvSNfnCPqklx39LAFaabJ5zV9P1VKjcLbmFjdiKXSMkhc_EpG2sZbi8LeqYRtVt2ErXVz6jNYZJ9n3YDLWjkA4sgm5xedtkYug6koQFjnatpsTo2gc3pzIdUTlxVtUcxLZRTeSQM1X0ghMgmSuH7rxdLbPn0d16SBlpTnITCwRAuOHisy_agkUU8EWi06oazYgXsS6UscEzdr-o1gjfpbbW-ELhEKQw8EQE6EMmvonqx-wv5Tqk2vIYkrAoX9ldOb6CtYcArbfYRplsCwMAEzg51-b2ZUDmSqHSCSmDlGcz6TMnEqNMTU9R-g-MM6hcCrx8miAGP0Lv7CbdI39bGcixgY1OY4q0nyu8YY-xpZLzEcH7jBASL42QUlfZAlBjUTZdbC4lPZDQp2KDnq1KsJqkaX8FidwSYGZxV1dZeuzthq6TFO7F7yk5grzznfv7iiaHofwcttSPRyR3dtxNze__J_acez9piDNBQD9BurztYXDzED3q5gwZTvTscFjp53gGbbctUOMbJ9GUAM1rch4c_nz47r5HuDqT-KPnIIxmx3vu-Kao31QzuuRZSyZfU0qmiWAjvhHmKzxlj-JS0?></g></svg>