<?plantuml 1.2026.1?><svg xmlns="http://www.w3.org/2000/svg" xmlns:xlink="http://www.w3.org/1999/xlink" contentStyleType="text/css" data-diagram-type="STATE" height="583px" preserveAspectRatio="none" style="width:3678px;height:583px;background:#FCFCFD;" version="1.1" viewBox="0 0 3678 583" width="3678px" zoomAndPan="magnify"><title>State Machine - apigateway/ApigatewaySubscribers</title><defs/><g><rect fill="#FCFCFD" height="583" style="stroke:none;stroke-width:1;" width="3678" x="0" y="0"/><g class="title" data-source-line="10"><text fill="#000000" font-family="Helvetica" font-size="14" font-weight="bold" lengthAdjust="spacing" textLength="344.668" x="1660.064" y="20.7803">State Machine - apigateway/ApigatewaySubscribers</text></g><g><rect fill="#F8FAFC" height="62" rx="8" ry="8" style="stroke:#0F172A;stroke-width:0.5;" width="264.3643" x="276" y="403"/><line style="stroke:#0F172A;stroke-width:0.5;" x1="276" x2="540.3643" y1="427" y2="427"/><text fill="#0F172A" font-family="Helvetica" font-size="14" lengthAdjust="spacing" textLength="52.9102" x="381.7271" y="418.7803">Observe</text><text fill="#0F172A" font-family="Helvetica" font-size="14" lengthAdjust="spacing" textLength="244.3643" x="281" y="442.7803">read spec, tracked status, delete intent,</text><text fill="#0F172A" font-family="Helvetica" font-size="14" lengthAdjust="spacing" textLength="153.2822" x="281" y="456.7803">and current OCI lifecycle</text></g><rect fill="#F8FAFC" height="40" rx="8" ry="8" style="stroke:#0F172A;stroke-width:0.5;" width="104.9512" x="1337.36" y="246"/><text fill="#0F172A" font-family="Helvetica" font-size="14" lengthAdjust="spacing" textLength="94.9512" x="1342.36" y="269.7803">EvaluateReady</text><rect fill="#F8FAFC" height="40" rx="8" ry="8" style="stroke:#0F172A;stroke-width:0.5;" width="50.4688" x="2096.32" y="246"/><text fill="#0F172A" font-family="Helvetica" font-size="14" lengthAdjust="spacing" textLength="40.4688" x="2101.32" y="269.7803">Ready</text><rect fill="#F8FAFC" height="40" rx="8" ry="8" style="stroke:#0F172A;stroke-width:0.5;" width="69.917" x="1354.88" y="381"/><text fill="#0F172A" font-family="Helvetica" font-size="14" lengthAdjust="spacing" textLength="59.917" x="1359.88" y="404.7803">Retryable</text><rect fill="#F8FAFC" height="40" rx="8" ry="8" style="stroke:#0F172A;stroke-width:0.5;" width="50" x="1364.84" y="500"/><text fill="#0F172A" font-family="Helvetica" font-size="14" lengthAdjust="spacing" textLength="38.1309" x="1370.7746" y="523.7803">Failed</text><rect fill="#F8FAFC" height="40" rx="8" ry="8" style="stroke:#0F172A;stroke-width:0.5;" width="122.8477" x="818.44" y="357"/><text fill="#0F172A" font-family="Helvetica" font-size="14" lengthAdjust="spacing" textLength="112.8477" x="823.44" y="380.7803">ResolveByLookup</text><rect fill="#F8FAFC" height="40" rx="8" ry="8" style="stroke:#0F172A;stroke-width:0.5;" width="155.5098" x="1671.56" y="336"/><text fill="#0F172A" font-family="Helvetica" font-size="14" lengthAdjust="spacing" textLength="145.5098" x="1676.56" y="359.7803">RejectUnsupportedDrift</text><rect fill="#F8FAFC" height="40" rx="8" ry="8" style="stroke:#0F172A;stroke-width:0.5;" width="90.165" x="1704.23" y="175"/><text fill="#0F172A" font-family="Helvetica" font-size="14" lengthAdjust="spacing" textLength="80.165" x="1709.23" y="198.7803">ApplyUpdate</text><rect fill="#F8FAFC" height="40" rx="8" ry="8" style="stroke:#0F172A;stroke-width:0.5;" width="101.8477" x="2438.1" y="492"/><text fill="#0F172A" font-family="Helvetica" font-size="14" lengthAdjust="spacing" textLength="91.8477" x="2443.1" y="515.7803">DeletePending</text><rect fill="#F8FAFC" height="40" rx="8" ry="8" style="stroke:#0F172A;stroke-width:0.5;" width="58.2549" x="3590.09" y="433"/><text fill="#0F172A" font-family="Helvetica" font-size="14" lengthAdjust="spacing" textLength="48.2549" x="3595.09" y="456.7803">Deleted</text><rect fill="#F8FAFC" height="40" rx="8" ry="8" style="stroke:#0F172A;stroke-width:0.5;" width="152.4268" x="3076.96" y="433"/><text fill="#0F172A" font-family="Helvetica" font-size="14" lengthAdjust="spacing" textLength="142.4268" x="3081.96" y="456.7803">DeleteCleanupBlocked</text><ellipse cx="16" cy="434" fill="#222222" rx="10" ry="10" style="stroke:#222222;stroke-width:1;"/><g class="entity" data-qualified-name="GMN2" data-source-line="55" id="ent0003"><path d="M2312.78,49 L2312.78,253.16 L2147.1,264.86 L2312.78,261.16 L2312.78,449 A8,8 0 0 0 2320.78,457 L2657.2614,457 A8,8 0 0 0 2665.2614,449 L2665.2614,51 L2655.2614,41 L2320.78,41 A8,8 0 0 0 2312.78,49" fill="#FFF7D6" style="stroke:#B45309;stroke-width:0.5;"/><path d="M2655.2614,41 L2655.2614,47 A4,4 0 0 0 2659.2614,51 L2665.2614,51 L2655.2614,41" fill="#FFF7D6" style="stroke:#B45309;stroke-width:0.5;"/><text fill="#334155" font-family="Helvetica" font-size="14" lengthAdjust="spacing" textLength="101.165" x="2318.78" y="56.7803">shared diagram:</text><text fill="#334155" font-family="Helvetica" font-size="14" lengthAdjust="spacing" textLength="331.4814" x="2318.78" y="70.7803">shared/diagrams/shared-controller-state-machine.svg</text><text fill="#334155" font-family="Helvetica" font-size="14" lengthAdjust="spacing" textLength="304.2744" x="2318.78" y="84.7803">Start from the shared controller phase model and</text><text fill="#334155" font-family="Helvetica" font-size="14" lengthAdjust="spacing" textLength="261.4678" x="2318.78" y="98.7803">specialize imported provider states, delete</text><text fill="#334155" font-family="Helvetica" font-size="14" lengthAdjust="spacing" textLength="184.4336" x="2318.78" y="112.7803">targets, and failure exits here.</text><text fill="#334155" font-family="Helvetica" font-size="14" lengthAdjust="spacing" textLength="281.709" x="2318.78" y="126.7803">archetype batch: Generated service-manager</text><text fill="#334155" font-family="Helvetica" font-size="14" lengthAdjust="spacing" textLength="287.9229" x="2318.78" y="140.7803">controllers map provider states into the shared</text><text fill="#334155" font-family="Helvetica" font-size="14" lengthAdjust="spacing" textLength="261.4609" x="2318.78" y="154.7803">controller phases with explicit finalizer and</text><text fill="#334155" font-family="Helvetica" font-size="14" lengthAdjust="spacing" textLength="105.8477" x="2318.78" y="168.7803">requeue policies.</text><text fill="#334155" font-family="Helvetica" font-size="14" lengthAdjust="spacing" textLength="122.9512" x="2318.78" y="182.7803">service: apigateway</text><text fill="#334155" font-family="Helvetica" font-size="14" lengthAdjust="spacing" textLength="175.8682" x="2318.78" y="196.7803">slug: apigatewaysubscribers</text><text fill="#334155" font-family="Helvetica" font-size="14" lengthAdjust="spacing" textLength="179.7578" x="2318.78" y="210.7803">kind: ApigatewaySubscribers</text><text fill="#334155" font-family="Helvetica" font-size="14" lengthAdjust="spacing" textLength="241.2402" x="2318.78" y="224.7803">archetype: generated-service-manager</text><text fill="#334155" font-family="Helvetica" font-size="14" lengthAdjust="spacing" textLength="156.4063" x="2318.78" y="238.7803">status/finalizer: required /</text><text fill="#334155" font-family="Helvetica" font-size="14" lengthAdjust="spacing" textLength="174.3027" x="2318.78" y="252.7803">retain-until-confirmed-delete</text><text fill="#334155" font-family="Helvetica" font-size="14" lengthAdjust="spacing" textLength="272.3984" x="2318.78" y="266.7803">requeue: provisioning, updating, terminating</text><text fill="#334155" font-family="Helvetica" font-size="14" lengthAdjust="spacing" textLength="295.6816" x="2318.78" y="280.7803">provider states: create PROVISIONING; update</text><text fill="#334155" font-family="Helvetica" font-size="14" lengthAdjust="spacing" textLength="192.165" x="2318.78" y="294.7803">UPDATING; delete DELETING</text><text fill="#334155" font-family="Helvetica" font-size="14" lengthAdjust="spacing" textLength="183.6611" x="2318.78" y="308.7803">supported drift: display_name</text><text fill="#334155" font-family="Helvetica" font-size="14" lengthAdjust="spacing" textLength="230.3301" x="2318.78" y="322.7803">reject before mutate: force-new fields</text><text fill="#334155" font-family="Helvetica" font-size="14" lengthAdjust="spacing" textLength="100.3789" x="2318.78" y="336.7803">compartment_id</text><text fill="#334155" font-family="Helvetica" font-size="14" lengthAdjust="spacing" textLength="66.1445" x="2318.78" y="350.7803">list lookup:</text><text fill="#334155" font-family="Helvetica" font-size="14" lengthAdjust="spacing" textLength="277.0537" x="2318.78" y="364.7803">scaffold_apigateway_apigatewaysubscribers</text><text fill="#334155" font-family="Helvetica" font-size="14" lengthAdjust="spacing" textLength="175.8477" x="2318.78" y="378.7803">filters compartment_id, state</text><text fill="#334155" font-family="Helvetica" font-size="14" lengthAdjust="spacing" textLength="89.4961" x="2318.78" y="392.7803">conflicts: none</text><text fill="#334155" font-family="Helvetica" font-size="14" lengthAdjust="spacing" textLength="104.3164" x="2318.78" y="406.7803">open gaps: none</text><text fill="#334155" font-family="Helvetica" font-size="14" lengthAdjust="spacing" textLength="224.9023" x="2318.78" y="420.7803">Scaffold metadata only; replace with</text><text fill="#334155" font-family="Helvetica" font-size="14" lengthAdjust="spacing" textLength="244.3232" x="2318.78" y="434.7803">controller-specific runtime states before</text><text fill="#334155" font-family="Helvetica" font-size="14" lengthAdjust="spacing" textLength="66.1445" x="2318.78" y="448.7803">promotion.</text></g><g class="entity" data-qualified-name="GMN5" data-source-line="86" id="ent0006"><path d="M3000.27,516 L3000.27,530.34 L2540.34,514.2 L3000.27,538.34 L3000.27,566 A8,8 0 0 0 3008.27,574 L3298.0893,574 A8,8 0 0 0 3306.0893,566 L3306.0893,518 L3296.0893,508 L3008.27,508 A8,8 0 0 0 3000.27,516" fill="#FFF7D6" style="stroke:#B45309;stroke-width:0.5;"/><path d="M3296.0893,508 L3296.0893,514 A4,4 0 0 0 3300.0893,518 L3306.0893,518 L3296.0893,508" fill="#FFF7D6" style="stroke:#B45309;stroke-width:0.5;"/><text fill="#334155" font-family="Helvetica" font-size="14" lengthAdjust="spacing" textLength="136.9717" x="3006.27" y="523.7803">delete policy: required</text><text fill="#334155" font-family="Helvetica" font-size="14" lengthAdjust="spacing" textLength="284.8193" x="3006.27" y="537.7803">delete observe: GetApigatewaySubscribers or</text><text fill="#334155" font-family="Helvetica" font-size="14" lengthAdjust="spacing" textLength="168.082" x="3006.27" y="551.7803">ListApigatewaySubscribers</text><text fill="#334155" font-family="Helvetica" font-size="14" lengthAdjust="spacing" textLength="157.1855" x="3006.27" y="565.7803">delete targets: DELETED</text></g><!--link *start* to observe--><g class="link" data-entity-1="ent0002" data-entity-2="ent0002" data-link-type="dependency" data-source-line="32" id="lnk3"><path d="M26.26,434 C60.02,434 173.53,434 269.79,434" fill="none" id="*start*-to-observe" style="stroke:#0F172A;stroke-width:1;"/><polygon fill="#0F172A" points="275.79,434,266.79,430,270.79,434,266.79,438,275.79,434" style="stroke:#0F172A;stroke-width:1;"/><text fill="#000000" font-family="Helvetica" font-size="14" lengthAdjust="spacing" textLength="188.3164" x="57" y="429.7803">CreateApigatewaySubscribers</text></g><!--link observe to resolve_by_lookup--><g class="link" data-entity-1="ent0002" data-entity-2="ent0007" data-link-type="dependency" data-source-line="33" id="lnk4"><path d="M540.64,418.05 C631.55,407.01 742.3337,393.5731 812.1837,385.0931" fill="none" id="observe-to-resolve_by_lookup" style="stroke:#0F172A;stroke-width:1;"/><polygon fill="#0F172A" points="818.14,384.37,808.7235,381.4838,813.1764,384.9726,809.6877,389.4255,818.14,384.37" style="stroke:#0F172A;stroke-width:1;"/><text fill="#000000" font-family="Helvetica" font-size="14" lengthAdjust="spacing" textLength="145.5029" x="571.36" y="392.8403">tracked identity missing</text></g><!--link resolve_by_lookup to evaluate_ready--><g class="link" data-entity-1="ent0007" data-entity-2="ent0003" data-link-type="dependency" data-source-line="34" id="lnk5"><path d="M941.57,365.58 C1055.1,344.19 1289.77,299.79 1307.36,295 C1317.07,292.36 1321.6038,291.0543 1331.3838,287.7043" fill="none" id="resolve_by_lookup-to-evaluate_ready" style="stroke:#0F172A;stroke-width:1;"/><polygon fill="#0F172A" points="1337.06,285.76,1327.2494,284.8923,1332.3298,287.3803,1329.8419,292.4606,1337.06,285.76" style="stroke:#0F172A;stroke-width:1;"/><text fill="#000000" font-family="Helvetica" font-size="14" lengthAdjust="spacing" textLength="154.0889" x="1097.86" y="276.7803">lookup or create reaches</text><text fill="#000000" font-family="Helvetica" font-size="14" lengthAdjust="spacing" textLength="50.5654" x="1149.6217" y="290.7803">ACTIVE</text></g><!--link resolve_by_lookup to retryable--><g class="link" data-entity-1="ent0007" data-entity-2="ent0005" data-link-type="dependency" data-source-line="35" id="lnk6"><path d="M941.63,379.87 C1049.21,384.95 1263.8067,395.0973 1348.5967,399.0973" fill="none" id="resolve_by_lookup-to-retryable" style="stroke:#0F172A;stroke-width:1;"/><polygon fill="#0F172A" points="1354.59,399.38,1345.7885,394.9603,1349.5956,399.1444,1345.4115,402.9514,1354.59,399.38" style="stroke:#0F172A;stroke-width:1;"/><text fill="#000000" font-family="Helvetica" font-size="14" lengthAdjust="spacing" textLength="184.3789" x="1082.86" y="366.5403">OCI state in PROVISIONING,</text><text fill="#000000" font-family="Helvetica" font-size="14" lengthAdjust="spacing" textLength="150.1309" x="1099.984" y="380.5403">UPDATING, DELETING</text></g><!--link resolve_by_lookup to failed--><g class="link" data-entity-1="ent0007" data-entity-2="ent0006" data-link-type="dependency" data-source-line="36" id="lnk7"><path d="M941.63,394.11 C1053.69,425.65 1282.5847,490.0834 1358.6747,511.5134" fill="none" id="resolve_by_lookup-to-failed" style="stroke:#0F172A;stroke-width:1;"/><polygon fill="#0F172A" points="1364.45,513.14,1356.8714,506.8499,1359.6372,511.7845,1354.7026,514.5504,1364.45,513.14" style="stroke:#0F172A;stroke-width:1;"/><text fill="#000000" font-family="Helvetica" font-size="14" lengthAdjust="spacing" textLength="263.7783" x="1043.36" y="419.0303">unresolved OCI error or non-success state</text></g><!--link observe to evaluate_ready--><g class="link" data-entity-1="ent0002" data-entity-2="ent0003" data-link-type="dependency" data-source-line="37" id="lnk8"><path d="M485.96,402.64 C512.45,392.43 542.47,381.55 570.36,373 C776.5,309.82 828.22,286.06 1042.36,261 C1146.33,248.83 1263.0497,255.0341 1330.9897,260.5541" fill="none" id="observe-to-evaluate_ready" style="stroke:#0F172A;stroke-width:1;"/><polygon fill="#0F172A" points="1336.97,261.04,1328.3235,256.3243,1331.9864,260.6351,1327.6756,264.298,1336.97,261.04" style="stroke:#0F172A;stroke-width:1;"/><text fill="#000000" font-family="Helvetica" font-size="14" lengthAdjust="spacing" textLength="128.3721" x="815.86" y="260.9503">OCI state in ACTIVE</text></g><!--link observe to retryable--><g class="link" data-entity-1="ent0002" data-entity-2="ent0005" data-link-type="dependency" data-source-line="38" id="lnk9"><path d="M540.47,438.33 C603.11,440.38 679.11,442.85 747.36,445 C996.16,452.84 1068.72,524.79 1307.36,454 C1318.77,450.62 1337.445,438.3638 1356.305,424.9138" fill="none" id="observe-to-retryable" style="stroke:#0F172A;stroke-width:1;"/><polygon fill="#0F172A" points="1361.19,421.43,1351.54,423.3989,1357.1191,424.3331,1356.185,429.9123,1361.19,421.43" style="stroke:#0F172A;stroke-width:1;"/><text fill="#000000" font-family="Helvetica" font-size="14" lengthAdjust="spacing" textLength="184.3789" x="787.86" y="426.7803">OCI state in PROVISIONING,</text><text fill="#000000" font-family="Helvetica" font-size="14" lengthAdjust="spacing" textLength="150.1309" x="804.984" y="440.7803">UPDATING, DELETING</text></g><!--link observe to failed--><g class="link" data-entity-1="ent0002" data-entity-2="ent0006" data-link-type="dependency" data-source-line="39" id="lnk10"><path d="M540.52,464.76 C602.83,478.03 678.56,492.26 747.36,500 C986.8,526.92 1273.4516,522.7695 1358.5616,520.7895" fill="none" id="observe-to-failed" style="stroke:#0F172A;stroke-width:1;"/><polygon fill="#0F172A" points="1364.56,520.65,1355.4694,516.8604,1359.5614,520.7663,1355.6555,524.8582,1364.56,520.65" style="stroke:#0F172A;stroke-width:1;"/><text fill="#000000" font-family="Helvetica" font-size="14" lengthAdjust="spacing" textLength="263.7783" x="748.36" y="495.7803">unresolved OCI error or non-success state</text></g><!--link evaluate_ready to reject_unsupported_drift--><g class="link" data-entity-1="ent0003" data-entity-2="ent0008" data-link-type="dependency" data-source-line="40" id="lnk11"><path d="M1414.06,286.48 C1429.49,298.89 1450.81,313.85 1472.32,322 C1536.53,346.35 1608.6042,353.9058 1665.3042,356.0258" fill="none" id="evaluate_ready-to-reject_unsupported_drift" style="stroke:#0F172A;stroke-width:1;"/><polygon fill="#0F172A" points="1671.3,356.25,1662.4557,351.9165,1666.3035,356.0632,1662.1568,359.9109,1671.3,356.25" style="stroke:#0F172A;stroke-width:1;"/><text fill="#000000" font-family="Helvetica" font-size="14" lengthAdjust="spacing" textLength="143.9512" x="1483.32" y="303.7803">force-new or conflicting</text><text fill="#000000" font-family="Helvetica" font-size="14" lengthAdjust="spacing" textLength="80.9375" x="1514.8268" y="317.7803">drift detected</text></g><!--link reject_unsupported_drift to ready--><g class="link" data-entity-1="ent0008" data-entity-2="ent0004" data-link-type="dependency" data-source-line="41" id="lnk12"><path d="M1827.32,355.06 C1893.2,351.77 1989.3,341 2066.32,308 C2078.36,302.84 2085.4802,298.2363 2094.9202,290.2463" fill="none" id="reject_unsupported_drift-to-ready" style="stroke:#0F172A;stroke-width:1;"/><polygon fill="#0F172A" points="2099.5,286.37,2090.0461,289.1313,2095.6835,289.6003,2095.2146,295.2376,2099.5,286.37" style="stroke:#0F172A;stroke-width:1;"/><text fill="#000000" font-family="Helvetica" font-size="14" lengthAdjust="spacing" textLength="203.8818" x="1862.32" y="303.7803">wait for spec or live state change</text></g><!--link evaluate_ready to apply_update--><g class="link" data-entity-1="ent0003" data-entity-2="ent0009" data-link-type="dependency" data-source-line="42" id="lnk13"><path d="M1442.72,248.96 C1452.49,246.07 1462.67,243.27 1472.32,241 C1553.17,221.95 1643.2022,208.6097 1698.0322,201.3297" fill="none" id="evaluate_ready-to-apply_update" style="stroke:#0F172A;stroke-width:1;"/><polygon fill="#0F172A" points="1703.98,200.54,1694.5318,197.7594,1699.0235,201.1981,1695.5848,205.6898,1703.98,200.54" style="stroke:#0F172A;stroke-width:1;"/><text fill="#000000" font-family="Helvetica" font-size="14" lengthAdjust="spacing" textLength="163.4199" x="1473.32" y="192.0903">supported mutable drift for</text><text fill="#000000" font-family="Helvetica" font-size="14" lengthAdjust="spacing" textLength="86.3857" x="1511.8371" y="206.0903">display_name</text></g><!--link apply_update to ready--><g class="link" data-entity-1="ent0009" data-entity-2="ent0004" data-link-type="dependency" data-source-line="43" id="lnk14"><path d="M1794.88,197.45 C1856.86,201.76 1972.1,213.07 2066.32,241 C2076.36,243.98 2081.5025,245.9001 2090.6125,250.2801" fill="none" id="apply_update-to-ready" style="stroke:#0F172A;stroke-width:1;"/><polygon fill="#0F172A" points="2096.02,252.88,2089.642,245.3752,2091.5138,250.7135,2086.1756,252.5852,2096.02,252.88" style="stroke:#0F172A;stroke-width:1;"/><text fill="#000000" font-family="Helvetica" font-size="14" lengthAdjust="spacing" textLength="141.6543" x="1893.32" y="199.4503">update path completes</text></g><!--link evaluate_ready to ready--><g class="link" data-entity-1="ent0003" data-entity-2="ent0004" data-link-type="dependency" data-source-line="44" id="lnk15"><path d="M1442.73,266 C1587.46,266 1985.77,266 2089.86,266" fill="none" id="evaluate_ready-to-ready" style="stroke:#0F172A;stroke-width:1;"/><polygon fill="#0F172A" points="2095.86,266,2086.86,262,2090.86,266,2086.86,270,2095.86,266" style="stroke:#0F172A;stroke-width:1;"/><text fill="#000000" font-family="Helvetica" font-size="14" lengthAdjust="spacing" textLength="162.6406" x="1668.32" y="261.7803">no supported drift remains</text></g><!--link ready to ready--><g class="link" data-entity-1="ent0004" data-entity-2="ent0004" data-link-type="dependency" data-source-line="45" id="lnk16"><path d="M2104.35,245.69 C2097,228.73 2102.74,211 2121.55,211 C2140.36,211 2148.4858,223.2247 2141.1358,240.1847" fill="none" id="ready-to-ready" style="stroke:#0F172A;stroke-width:1;"/><polygon fill="#0F172A" points="2138.75,245.69,2145.9989,239.0227,2140.7382,241.1023,2138.6586,235.8416,2138.75,245.69" style="stroke:#0F172A;stroke-width:1;"/><text fill="#000000" font-family="Helvetica" font-size="14" lengthAdjust="spacing" textLength="162.6406" x="2040.55" y="201.7803">no supported drift remains</text></g><!--link retryable to retryable--><g class="link" data-entity-1="ent0005" data-entity-2="ent0005" data-link-type="dependency" data-source-line="46" id="lnk17"><path d="M1363.63,380.69 C1352.42,363.73 1361.16,346 1389.84,346 C1418.52,346 1430.5564,358.7232 1419.3564,375.6832" fill="none" id="retryable-to-retryable" style="stroke:#0F172A;stroke-width:1;"/><polygon fill="#0F172A" points="1416.05,380.69,1424.3474,375.3841,1418.8053,376.5177,1417.6717,370.9756,1416.05,380.69" style="stroke:#0F172A;stroke-width:1;"/><text fill="#000000" font-family="Helvetica" font-size="14" lengthAdjust="spacing" textLength="136.9307" x="1321.84" y="336.7803">OCI remains retryable</text></g><!--link failed to failed--><g class="link" data-entity-1="ent0006" data-entity-2="ent0006" data-link-type="dependency" data-source-line="47" id="lnk18"><path d="M1364.41,500.83 C1352.04,483.53 1360.52,465 1389.84,465 C1419.16,465 1431.1298,478.6493 1418.7598,495.9493" fill="none" id="failed-to-failed" style="stroke:#0F172A;stroke-width:1;"/><polygon fill="#0F172A" points="1415.27,500.83,1423.7585,495.8355,1418.1782,496.7628,1417.251,491.1824,1415.27,500.83" style="stroke:#0F172A;stroke-width:1;"/><text fill="#000000" font-family="Helvetica" font-size="14" lengthAdjust="spacing" textLength="132.2549" x="1323.84" y="455.7803">OCI remains terminal</text></g><!--link ready to delete_pending--><g class="link" data-entity-1="ent0004" data-entity-2="ent0010" data-link-type="dependency" data-source-line="48" id="lnk19"><path d="M2147.1,281.72 C2181.51,304.84 2244.19,351.04 2282.78,404 C2302.96,431.68 2286.35,453.21 2312.78,475 C2347.69,503.78 2393.535,511.5554 2431.775,513.1154" fill="none" id="ready-to-delete_pending" style="stroke:#0F172A;stroke-width:1;"/><polygon fill="#0F172A" points="2437.77,513.36,2428.9405,508.9965,2432.7742,513.1562,2428.6144,516.9898,2437.77,513.36" style="stroke:#0F172A;stroke-width:1;"/><text fill="#000000" font-family="Helvetica" font-size="14" lengthAdjust="spacing" textLength="104.3027" x="2177.78" y="299.3403">delete requested</text></g><!--link retryable to delete_pending--><g class="link" data-entity-1="ent0005" data-entity-2="ent0010" data-link-type="dependency" data-source-line="49" id="lnk20"><path d="M1424.89,404.08 C1543.37,414.87 1948.63,452.17 2282.78,488 C2335.75,493.68 2390.3732,500.1316 2431.9132,505.1416" fill="none" id="retryable-to-delete_pending" style="stroke:#0F172A;stroke-width:1;"/><polygon fill="#0F172A" points="2437.87,505.86,2429.4137,500.8111,2432.906,505.2613,2428.4558,508.7536,2437.87,505.86" style="stroke:#0F172A;stroke-width:1;"/><text fill="#000000" font-family="Helvetica" font-size="14" lengthAdjust="spacing" textLength="104.3027" x="1911.82" y="441.7603">delete requested</text></g><!--link failed to delete_pending--><g class="link" data-entity-1="ent0006" data-entity-2="ent0010" data-link-type="dependency" data-source-line="50" id="lnk21"><path d="M1415.29,519.82 C1554.18,518.81 2238.3002,513.8238 2431.6202,512.4138" fill="none" id="failed-to-delete_pending" style="stroke:#0F172A;stroke-width:1;"/><polygon fill="#0F172A" points="2437.62,512.37,2428.5911,508.4357,2432.6201,512.4065,2428.6494,516.4355,2437.62,512.37" style="stroke:#0F172A;stroke-width:1;"/><text fill="#000000" font-family="Helvetica" font-size="14" lengthAdjust="spacing" textLength="104.3027" x="1911.82" y="510.8603">delete requested</text></g><!--link delete_pending to delete_cleanup_blocked--><g class="link" data-entity-1="ent0010" data-entity-2="ent0012" data-link-type="dependency" data-source-line="51" id="lnk22"><path d="M2540.34,507.52 C2655.78,497.23 2934.2337,472.4228 3070.7337,460.2528" fill="none" id="delete_pending-to-delete_cleanup_blocked" style="stroke:#0F172A;stroke-width:1;"/><polygon fill="#0F172A" points="3076.71,459.72,3067.3903,456.5351,3071.7298,460.164,3068.1008,464.5034,3076.71,459.72" style="stroke:#0F172A;stroke-width:1;"/><text fill="#000000" font-family="Helvetica" font-size="14" lengthAdjust="spacing" textLength="273.1436" x="2696.27" y="466.2103">cleanup or finalizer release remains blocked</text></g><!--link delete_cleanup_blocked to deleted--><g class="link" data-entity-1="ent0012" data-entity-2="ent0011" data-link-type="dependency" data-source-line="52" id="lnk23"><path d="M3229.76,453 C3334.55,453 3513,453 3583.61,453" fill="none" id="delete_cleanup_blocked-to-deleted" style="stroke:#0F172A;stroke-width:1;"/><polygon fill="#0F172A" points="3589.61,453,3580.61,449,3584.61,453,3580.61,457,3589.61,453" style="stroke:#0F172A;stroke-width:1;"/><text fill="#000000" font-family="Helvetica" font-size="14" lengthAdjust="spacing" textLength="222.5645" x="3337.09" y="448.7803">retry delete completion until allowed</text></g><!--link deleted to deleted--><g class="link" data-entity-1="ent0011" data-entity-2="ent0011" data-link-type="dependency" data-source-line="53" id="lnk24"><path d="M3592.02,432.69 C3580.4,415.73 3589.47,398 3619.21,398 C3648.96,398 3661.4112,410.7803 3649.7912,427.7403" fill="none" id="deleted-to-deleted" style="stroke:#0F172A;stroke-width:1;"/><polygon fill="#0F172A" points="3646.4,432.69,3654.7867,427.5263,3649.226,428.5653,3648.1871,423.0046,3646.4,432.69" style="stroke:#0F172A;stroke-width:1;"/><text fill="#000000" font-family="Helvetica" font-size="14" lengthAdjust="spacing" textLength="92.5859" x="3573.21" y="388.7803">terminal stutter</text></g><?plantuml-src dLPPRzms47xNho3Ijy9hnxMTf6kWWA-a1bpRiEEyrCM2IuuarXIfafGtQj7_tk4XBLTU8sYW5t4kpl7D3EsJK2qrj26sfbolXAf8IQM5mewS9MLFbT6TucTQQaD-A1b-F9FWKD9EkezQkMlQ0FaLv3CumUXscNlnDv3zmun9ZT6hPFrjkV_-frnJQGUdBtmeo_VytLHA6mucIImFZmxU_ZoHyDSd_i71uVxHKSOFvfas2WpPVrSuuIIGUqSTaDyeguK2CYEq5HLILhJVEnb_xxkbPKOimTZCdWsg_nHaImO_bBHadfDxd28df5nxETBGcXc8-_mG-0SamcWnoVrRI2WTSPeOKTMES660EQ5LKGiE19hMzLWAxsqRoD79DpTB2-OPtX1gYOx_0-lYcSeE_-w0yZu8GA8iZ2SDScl-XEnCJvSI4YkT1lP7AYJmm2l3Rv6k9_DWXzWMs0vn1bC8FEIqipiOWWHK5yg1SZkFYYfEM6SCdiZDsIMHeWJMi_KzTs0rWlAqlzBwgMkJCu6sMFOB6QXhuJynQm_ATcshZGD-RaJfaevdBRerRy4zSr0zQLlPFxGS3q6U-lEY2uH1vZmuVul5mtOBKZ6SHHj9ct8ya-2Rh3C9L7NjgTG-ERab5ZcBPMGLl__u1vdDVY7hv9vXTXrin_0WvJLU90brXseWf1IsIKyQOQrt_AMmDx695zHFFCGj2rxuIhCQxACwEVjy-UNY5JiZUD24BtBCXL3azkxco-NzvStrvVKd1CF3xVd9P_zBpY-kBlpVAmOZuj1Qfv803uO1nv7nxYcjPhPZ3AoDjssavaLS6qwbK3Pp-Tq1v6Q-m-s9gz6PxKX6kwKs36OALg54MfLIu11HrQEA4XmXnZmQNxKHBuXPML7XlCdGojwY51X8Z9tLL5LRtSiR1usC5v2cSo65yIAqYru9sqhQBnGkds93CVSZaLhgQWogQNsZsEsPYGfAPzV6wmmqL2XR_4_XeUpRG92aij6OwhjHwbpIWMc4eZBpOdE0e7mQa0R-wi36KkLEV5i-S-BRmXE9J6aoY50vKJmGIXy5FWOCcaAgXJ74OMwzOcLz0Gzx0aCRd4gLnTs6xU6495HAlHfDJNM7N28UEuU7mhyIqlBKvR3AQcfyLGMjSB7FqtaldUrUFC-mKvpHKeAP1NJFclXisBNFLN7lzpSfZMw8gu4aasiLqjO-0Or6tmYkiy9tYmZf8Q99k6gDViQXQsBtZ7kmGDiLE3pxFUWhrnbSzb-5iwG60xi5DJXVNTy2laKSg-Va4-0pXtgRVgu8vfrLjC84h5sofA7jz4w_StKMGZ4DmPALm0w3horE3T_vOv5zL04p7NQXzbomkqMwVvuzhGehkoeds6mvuVkApydsnJM6EIVL4E1i6c1yG-oDViq3a8Klnvvl4mJWB4375xGKfa4RAS_9-tbCYaMG8TntucG9VmbE_b1C4ZSVbbq-x8_JL2g6aNyyu7YS_9EfWjsNJxiuWSaIS112c8qEyW5U2f3S5huh47yDxkk5u8KKrgKjZ6Xcj2orv8jrlXVRKryAwJmiDgtjf1qpB0hhXw72LOdZW5Iq7SxtwHxIO8unQ4gqalqnPX_3OH1WK-Gzv1kW58mONuq61W36M7rw6-txVBV0iHDUzvFcdRogKc83ylfrqGTwsh2-DTnMTE74AgumSTkXbwoaJfp7-bsSZxxz1m00?></g></svg>