<?plantuml 1.2026.1?><svg xmlns="http://www.w3.org/2000/svg" xmlns:xlink="http://www.w3.org/1999/xlink" contentStyleType="text/css" data-diagram-type="ACTIVITY" height="1301px" preserveAspectRatio="none" style="width:694px;height:1301px;background:#FCFCFD;" version="1.1" viewBox="0 0 694 1301" width="694px" zoomAndPan="magnify"><title>Activity - database/AutonomousPatch</title><defs/><g><rect fill="#FCFCFD" height="1301" style="stroke:none;stroke-width:1;" width="694" x="0" y="0"/><g class="title" data-source-line="10"><text fill="#000000" font-family="Helvetica" font-size="14" font-weight="bold" lengthAdjust="spacing" textLength="252.041" x="219.5281" y="30.7803">Activity - database/AutonomousPatch</text></g><ellipse cx="311.0571" cy="55" fill="#1D4ED8" rx="10" ry="10" style="stroke:#222222;stroke-width:1;"/><rect fill="#F8FAFC" height="48" rx="8" ry="8" style="stroke:#0F172A;stroke-width:0.5;" width="304.7852" x="158.6646" y="85"/><text fill="#0F172A" font-family="Helvetica" font-size="14" lengthAdjust="spacing" textLength="136.9375" x="168.6646" y="105.7803">Start from shared flow</text><text fill="#0F172A" font-family="Helvetica" font-size="14" lengthAdjust="spacing" textLength="284.7852" x="168.6646" y="119.7803">shared/diagrams/shared-reconcile-activity.svg</text><rect fill="#F8FAFC" height="48" rx="8" ry="8" style="stroke:#0F172A;stroke-width:0.5;" width="321.1982" x="150.458" y="153"/><text fill="#0F172A" font-family="Helvetica" font-size="14" lengthAdjust="spacing" textLength="301.1982" x="160.458" y="173.7803">Load desired AutonomousPatch spec and status</text><text fill="#0F172A" font-family="Helvetica" font-size="14" lengthAdjust="spacing" textLength="103.4961" x="160.458" y="187.7803">from Kubernetes</text><rect fill="#F8FAFC" height="48" rx="8" ry="8" style="stroke:#0F172A;stroke-width:0.5;" width="325.0332" x="148.5405" y="221"/><text fill="#0F172A" font-family="Helvetica" font-size="14" lengthAdjust="spacing" textLength="305.0332" x="158.5405" y="241.7803">Resolve OCI state via GetAutonomousPatch with</text><text fill="#0F172A" font-family="Helvetica" font-size="14" lengthAdjust="spacing" textLength="187.5508" x="158.5405" y="255.7803">ListAutonomousPatch fallback</text><rect fill="#F8FAFC" height="62" rx="8" ry="8" style="stroke:#0F172A;stroke-width:0.5;" width="318.8535" x="151.6304" y="289"/><text fill="#0F172A" font-family="Helvetica" font-size="14" lengthAdjust="spacing" textLength="298.8535" x="161.6304" y="309.7803">Use scaffold_database_autonomouspatch filters</text><text fill="#0F172A" font-family="Helvetica" font-size="14" lengthAdjust="spacing" textLength="276.2402" x="161.6304" y="323.7803">compartment_id, state when OCID lookup or</text><text fill="#0F172A" font-family="Helvetica" font-size="14" lengthAdjust="spacing" textLength="243.5645" x="161.6304" y="337.7803">bind-versus-create needs list resolution</text><polygon fill="#E2E8F0" points="257.3677,371,364.7466,371,376.7466,383,364.7466,395,257.3677,395,245.3677,383,257.3677,371" style="stroke:#1D4ED8;stroke-width:0.5;"/><text fill="#0F172A" font-family="Helvetica" font-size="14" lengthAdjust="spacing" textLength="107.3789" x="257.3677" y="386.7803">Resource exists?</text><text fill="#000000" font-family="Helvetica" font-size="14" lengthAdjust="spacing" textLength="21.7861" x="223.5815" y="379.7803">yes</text><text fill="#000000" font-family="Helvetica" font-size="14" lengthAdjust="spacing" textLength="15.5723" x="376.7466" y="379.7803">no</text><rect fill="#F8FAFC" height="34" rx="8" ry="8" style="stroke:#0F172A;stroke-width:0.5;" width="291.6191" x="11" y="405"/><text fill="#0F172A" font-family="Helvetica" font-size="14" lengthAdjust="spacing" textLength="271.6191" x="21" y="425.7803">Update path calls UpdateAutonomousPatch</text><rect fill="#F8FAFC" height="48" rx="8" ry="8" style="stroke:#0F172A;stroke-width:0.5;" width="266.7021" x="23.4585" y="459"/><text fill="#0F172A" font-family="Helvetica" font-size="14" lengthAdjust="spacing" textLength="246.7021" x="33.4585" y="479.7803">Guard mutable fields display_name and</text><text fill="#0F172A" font-family="Helvetica" font-size="14" lengthAdjust="spacing" textLength="202.3096" x="33.4585" y="493.7803">force-new fields compartment_id</text><rect fill="#F8FAFC" height="34" rx="8" ry="8" style="stroke:#0F172A;stroke-width:0.5;" width="285.3711" x="322.6191" y="405"/><text fill="#0F172A" font-family="Helvetica" font-size="14" lengthAdjust="spacing" textLength="265.3711" x="332.6191" y="425.7803">Create path calls CreateAutonomousPatch</text><polygon fill="#E2E8F0" points="311.0571,513,323.0571,525,311.0571,537,299.0571,525,311.0571,513" style="stroke:#1D4ED8;stroke-width:0.5;"/><rect fill="#F8FAFC" height="104" rx="8" ry="8" style="stroke:#0F172A;stroke-width:0.5;" width="334.3164" x="143.8989" y="557"/><text fill="#0F172A" font-family="Helvetica" font-size="14" lengthAdjust="spacing" textLength="164.2061" x="153.8989" y="577.7803">Run provider helper hooks</text><text fill="#0F172A" font-family="Helvetica" font-size="14" lengthAdjust="spacing" textLength="219.0508" x="153.8989" y="591.7803">create=tfresource.CreateResource,</text><text fill="#0F172A" font-family="Helvetica" font-size="14" lengthAdjust="spacing" textLength="314.3164" x="153.8989" y="605.7803">tfresource.WaitForWorkRequestWithErrorHandling</text><text fill="#0F172A" font-family="Helvetica" font-size="14" lengthAdjust="spacing" textLength="215.5439" x="153.8989" y="619.7803">entity=template action=CREATED;</text><text fill="#0F172A" font-family="Helvetica" font-size="14" lengthAdjust="spacing" textLength="226.085" x="153.8989" y="633.7803">update=tfresource.UpdateResource;</text><text fill="#0F172A" font-family="Helvetica" font-size="14" lengthAdjust="spacing" textLength="212.8438" x="153.8989" y="647.7803">delete=tfresource.DeleteResource</text><rect fill="#F8FAFC" height="34" rx="8" ry="8" style="stroke:#0F172A;stroke-width:0.5;" width="263.5918" x="179.2612" y="681"/><text fill="#0F172A" font-family="Helvetica" font-size="14" lengthAdjust="spacing" textLength="243.5918" x="189.2612" y="701.7803">Apply repo-authored secret policy none</text><rect fill="#F8FAFC" height="62" rx="8" ry="8" style="stroke:#0F172A;stroke-width:0.5;" width="320.3643" x="150.875" y="735"/><text fill="#0F172A" font-family="Helvetica" font-size="14" lengthAdjust="spacing" textLength="292.6191" x="160.875" y="755.7803">Delete path uses DeleteAutonomousPatch with</text><text fill="#0F172A" font-family="Helvetica" font-size="14" lengthAdjust="spacing" textLength="230.3506" x="160.875" y="769.7803">required via GetAutonomousPatch or</text><text fill="#0F172A" font-family="Helvetica" font-size="14" lengthAdjust="spacing" textLength="300.3643" x="160.875" y="783.7803">ListAutonomousPatch to DELETED confirmation</text><rect fill="#F8FAFC" height="48" rx="8" ry="8" style="stroke:#0F172A;stroke-width:0.5;" width="279.1299" x="171.4922" y="817"/><text fill="#0F172A" font-family="Helvetica" font-size="14" lengthAdjust="spacing" textLength="259.1299" x="181.4922" y="837.7803">Project required status and finalizer policy</text><text fill="#0F172A" font-family="Helvetica" font-size="14" lengthAdjust="spacing" textLength="174.3027" x="181.4922" y="851.7803">retain-until-confirmed-delete</text><rect fill="#F8FAFC" height="34" rx="8" ry="8" style="stroke:#0F172A;stroke-width:0.5;" width="313.4189" x="154.3477" y="885"/><text fill="#0F172A" font-family="Helvetica" font-size="14" lengthAdjust="spacing" textLength="293.4189" x="164.3477" y="905.7803">Requeue on provisioning, updating, terminating</text><path d="M342.0571,929 L342.0571,1105 L322.0571,1109 L342.0571,1113 L342.0571,1289 A0,0 0 0 0 342.0571,1289 L682.0972,1289 A0,0 0 0 0 682.0972,1289 L682.0972,939 L672.0972,929 L342.0571,929 A0,0 0 0 0 342.0571,929" fill="#FFF7D6" style="stroke:#B45309;stroke-width:0.5;"/><path d="M672.0972,929 L672.0972,939 L682.0972,939 L672.0972,929" fill="#FFF7D6" style="stroke:#B45309;stroke-width:0.5;"/><text fill="#334155" font-family="Helvetica" font-size="14" lengthAdjust="spacing" textLength="101.165" x="348.0571" y="944.7803">shared diagram:</text><text fill="#334155" font-family="Helvetica" font-size="14" lengthAdjust="spacing" textLength="284.7852" x="348.0571" y="958.7803">shared/diagrams/shared-reconcile-activity.svg</text><text fill="#334155" font-family="Helvetica" font-size="14" lengthAdjust="spacing" textLength="265.3438" x="348.0571" y="972.7803">Start from the shared reconcile activity and</text><text fill="#334155" font-family="Helvetica" font-size="14" lengthAdjust="spacing" textLength="273.8955" x="348.0571" y="986.7803">specialize provider-backed CRUD, wait, and</text><text fill="#334155" font-family="Helvetica" font-size="14" lengthAdjust="spacing" textLength="182.875" x="348.0571" y="1000.7803">status-projection details here.</text><text fill="#334155" font-family="Helvetica" font-size="14" lengthAdjust="spacing" textLength="229.5371" x="348.0571" y="1014.7803">Controller-local activity diagrams add</text><text fill="#334155" font-family="Helvetica" font-size="14" lengthAdjust="spacing" textLength="238.8955" x="348.0571" y="1028.7803">list-lookup hints, secret policies, delete</text><text fill="#334155" font-family="Helvetica" font-size="14" lengthAdjust="spacing" textLength="200.0332" x="348.0571" y="1042.7803">handling, and open formal gaps.</text><text fill="#334155" font-family="Helvetica" font-size="14" lengthAdjust="spacing" textLength="281.709" x="348.0571" y="1056.7803">archetype batch: Generated service-manager</text><text fill="#334155" font-family="Helvetica" font-size="14" lengthAdjust="spacing" textLength="291.0469" x="348.0571" y="1070.7803">controllers specialize the shared reconcile path</text><text fill="#334155" font-family="Helvetica" font-size="14" lengthAdjust="spacing" textLength="189.8477" x="348.0571" y="1084.7803">with formal runtime ownership.</text><text fill="#334155" font-family="Helvetica" font-size="14" lengthAdjust="spacing" textLength="109.7305" x="348.0571" y="1098.7803">service: database</text><text fill="#334155" font-family="Helvetica" font-size="14" lengthAdjust="spacing" textLength="144.7646" x="348.0571" y="1112.7803">slug: autonomouspatch</text><text fill="#334155" font-family="Helvetica" font-size="14" lengthAdjust="spacing" textLength="147.8682" x="348.0571" y="1126.7803">kind: AutonomousPatch</text><text fill="#334155" font-family="Helvetica" font-size="14" lengthAdjust="spacing" textLength="241.2402" x="348.0571" y="1140.7803">archetype: generated-service-manager</text><text fill="#334155" font-family="Helvetica" font-size="14" lengthAdjust="spacing" textLength="156.4063" x="348.0571" y="1154.7803">status/finalizer: required /</text><text fill="#334155" font-family="Helvetica" font-size="14" lengthAdjust="spacing" textLength="174.3027" x="348.0571" y="1168.7803">retain-until-confirmed-delete</text><text fill="#334155" font-family="Helvetica" font-size="14" lengthAdjust="spacing" textLength="272.3984" x="348.0571" y="1182.7803">requeue: provisioning, updating, terminating</text><text fill="#334155" font-family="Helvetica" font-size="14" lengthAdjust="spacing" textLength="295.6816" x="348.0571" y="1196.7803">provider states: create PROVISIONING; update</text><text fill="#334155" font-family="Helvetica" font-size="14" lengthAdjust="spacing" textLength="192.165" x="348.0571" y="1210.7803">UPDATING; delete DELETING</text><text fill="#334155" font-family="Helvetica" font-size="14" lengthAdjust="spacing" textLength="319.04" x="348.0571" y="1224.7803">mutable/forceNew: display_name / compartment_id</text><text fill="#334155" font-family="Helvetica" font-size="14" lengthAdjust="spacing" textLength="104.3164" x="348.0571" y="1238.7803">open gaps: none</text><text fill="#334155" font-family="Helvetica" font-size="14" lengthAdjust="spacing" textLength="224.9023" x="348.0571" y="1252.7803">Scaffold metadata only; replace with</text><text fill="#334155" font-family="Helvetica" font-size="14" lengthAdjust="spacing" textLength="244.3232" x="348.0571" y="1266.7803">controller-specific runtime states before</text><text fill="#334155" font-family="Helvetica" font-size="14" lengthAdjust="spacing" textLength="66.1445" x="348.0571" y="1280.7803">promotion.</text><ellipse cx="311.0571" cy="1109" fill="none" rx="11" ry="11" style="stroke:#222222;stroke-width:1;"/><ellipse cx="311.0571" cy="1109" fill="#222222" rx="6" ry="6" style="stroke:#222222;stroke-width:1;"/><line style="stroke:#0F172A;stroke-width:1;" x1="311.0571" x2="311.0571" y1="65" y2="85"/><polygon fill="#0F172A" points="307.0571,75,311.0571,85,315.0571,75,311.0571,79" style="stroke:#0F172A;stroke-width:1;"/><line style="stroke:#0F172A;stroke-width:1;" x1="311.0571" x2="311.0571" y1="133" y2="153"/><polygon fill="#0F172A" points="307.0571,143,311.0571,153,315.0571,143,311.0571,147" style="stroke:#0F172A;stroke-width:1;"/><line style="stroke:#0F172A;stroke-width:1;" x1="311.0571" x2="311.0571" y1="201" y2="221"/><polygon fill="#0F172A" points="307.0571,211,311.0571,221,315.0571,211,311.0571,215" style="stroke:#0F172A;stroke-width:1;"/><line style="stroke:#0F172A;stroke-width:1;" x1="311.0571" x2="311.0571" y1="269" y2="289"/><polygon fill="#0F172A" points="307.0571,279,311.0571,289,315.0571,279,311.0571,283" style="stroke:#0F172A;stroke-width:1;"/><line style="stroke:#0F172A;stroke-width:1;" x1="156.8096" x2="156.8096" y1="439" y2="459"/><polygon fill="#0F172A" points="152.8096,449,156.8096,459,160.8096,449,156.8096,453" style="stroke:#0F172A;stroke-width:1;"/><line style="stroke:#0F172A;stroke-width:1;" x1="245.3677" x2="156.8096" y1="383" y2="383"/><line style="stroke:#0F172A;stroke-width:1;" x1="156.8096" x2="156.8096" y1="383" y2="405"/><polygon fill="#0F172A" points="152.8096,395,156.8096,405,160.8096,395,156.8096,399" style="stroke:#0F172A;stroke-width:1;"/><line style="stroke:#0F172A;stroke-width:1;" x1="376.7466" x2="465.3047" y1="383" y2="383"/><line style="stroke:#0F172A;stroke-width:1;" x1="465.3047" x2="465.3047" y1="383" y2="405"/><polygon fill="#0F172A" points="461.3047,395,465.3047,405,469.3047,395,465.3047,399" style="stroke:#0F172A;stroke-width:1;"/><line style="stroke:#0F172A;stroke-width:1;" x1="156.8096" x2="156.8096" y1="507" y2="525"/><line style="stroke:#0F172A;stroke-width:1;" x1="156.8096" x2="299.0571" y1="525" y2="525"/><polygon fill="#0F172A" points="289.0571,521,299.0571,525,289.0571,529,293.0571,525" style="stroke:#0F172A;stroke-width:1;"/><line style="stroke:#0F172A;stroke-width:1;" x1="465.3047" x2="465.3047" y1="439" y2="525"/><line style="stroke:#0F172A;stroke-width:1;" x1="465.3047" x2="323.0571" y1="525" y2="525"/><polygon fill="#0F172A" points="333.0571,521,323.0571,525,333.0571,529,329.0571,525" style="stroke:#0F172A;stroke-width:1;"/><line style="stroke:#0F172A;stroke-width:1;" x1="311.0571" x2="311.0571" y1="351" y2="371"/><polygon fill="#0F172A" points="307.0571,361,311.0571,371,315.0571,361,311.0571,365" style="stroke:#0F172A;stroke-width:1;"/><line style="stroke:#0F172A;stroke-width:1;" x1="311.0571" x2="311.0571" y1="537" y2="557"/><polygon fill="#0F172A" points="307.0571,547,311.0571,557,315.0571,547,311.0571,551" style="stroke:#0F172A;stroke-width:1;"/><line style="stroke:#0F172A;stroke-width:1;" x1="311.0571" x2="311.0571" y1="661" y2="681"/><polygon fill="#0F172A" points="307.0571,671,311.0571,681,315.0571,671,311.0571,675" style="stroke:#0F172A;stroke-width:1;"/><line style="stroke:#0F172A;stroke-width:1;" x1="311.0571" x2="311.0571" y1="715" y2="735"/><polygon fill="#0F172A" points="307.0571,725,311.0571,735,315.0571,725,311.0571,729" style="stroke:#0F172A;stroke-width:1;"/><line style="stroke:#0F172A;stroke-width:1;" x1="311.0571" x2="311.0571" y1="797" y2="817"/><polygon fill="#0F172A" points="307.0571,807,311.0571,817,315.0571,807,311.0571,811" style="stroke:#0F172A;stroke-width:1;"/><line style="stroke:#0F172A;stroke-width:1;" x1="311.0571" x2="311.0571" y1="865" y2="885"/><polygon fill="#0F172A" points="307.0571,875,311.0571,885,315.0571,875,311.0571,879" style="stroke:#0F172A;stroke-width:1;"/><line style="stroke:#0F172A;stroke-width:1;" x1="311.0571" x2="311.0571" y1="919" y2="1098"/><polygon fill="#0F172A" points="307.0571,1088,311.0571,1098,315.0571,1088,311.0571,1092" style="stroke:#0F172A;stroke-width:1;"/><?plantuml-src bLPDR-Cs4BtpLmpGInQmx6IJxAOoWYArizbWWoH8Dit5G42B8uiDHQeaPTSj-jyx56LPSToYXG-soFbyy-R9xbNgYbjUWYkuC2kf5v1pvP2vxcREizU5DRKM4wECXH_oZ3wYPo4mvxNoNupsjxn4-8fgYLvcVB_De_m3uUYaTycjDQis-c5-zFbZtrCRZp-_go7FFujFkrR62hIjnVpazFZmnnsBaBwzFpu-EJezxTqtuJDZDLeu-iIyz0hX8lDoAVqQ4X3SypbtEBgelT6cDBMxvpuh-drihFzai0UtivpdMRZfrzds2v1lQ-lEXEIbqU9T-_WHp_B3da4_uf4uGN6slVoo9x3ptFfTU-pYTtPplXFrBzQuilGnV45kJSCTYm9oPLOp7Hz6b7j1aBXHV4uiPaPdKc6o0MdebeinIsyC5yGE9qE87MZ1LPW1roBKwsitqqs-R_KSQKmU7Va_e3D4DxYRN3TM24l9uGhzRgoLzCLCtqZtxeOOhyAqADgJGt0PptEZnCjcuY-ySwYYWrGUBPMJcP8cxqlK_aMAGLl0ga0Twfc2CkQrhi3OcPvBBP8bUTKkoIm6Euqe72Yg26peelRIw36JEHo4hcgR8U3lTEr--W0-13rOe_j0LLOY-5Cn1MHKl8DuijCOzNDLSokWhAaHOdCkKL568Lsb-Ff5XsKbT0bMGxaIZQkDoTl6nWn94-106qe-YSNtaiUJTyc9JZAd0TKQAckMaXWA1QegV14k0Rx6yTpdjcrt64DjkX_CTE_kcKlI3_jixEi3_bQZyyyqqalI3lkLkb0aNZDD1HEtpZsMr2AL6TXczFdauVBY--LqFDDrWrG_PyHkavDC12fyQp9jJZeJbbvKbLhJr2gJ43aA4yZhaFhnK1abipN9ZGw6qJEYLJjq40_sazDIMyqU_0E50u_s4TWRc5xUN5A3D3YTIrloIANqtffVCGlyQYF7HMfsAfUQAz9YsvOSydikTL8JXYff8z7kHZoQNIFOQmJJJjHH4a9z00sepI_QYvBYXeSnIOMfMD1Ti79HUDOAHQiDAVjVMi5wYaFBi56TpdYhljGS2yeXc_OwyYLXnybZyl0q7S2As3I8fWqaIHMXefP8ZWW78dQ15eTiGlffZL8KGHbY_3RHfd3WGh2mnqcxy8NKtWtUC48Y7KGaMT7IjSaFfgBDfWqiAVI2Lsx8kCqAzEiAINzflYbnWTvAHD90ChkKjAibrto1bcLTSGvwFUy5A92G1QPjijamQT80iwBmhf3LaBNnq-vrnvog5odiI22ZTvv8T_LwMtWAYqt9oMx94UzHHxzqoyuH-rSACXi9cFuN-h5ET1fLTYcqidl_SFVBzUFrtUtrxTKu-Y9xkfzUV6yEOgguK7J0Ml4SDHfvYwlqhNwEThIIDUCCSqmR3M2FxUi4Iceje4hhezRZ81wAayA7WVJ6c3HJp6NMJIUM3tEa2Z1qLPh0qc4GsEPVpTy0?></g></svg>