<?plantuml 1.2026.1?><svg xmlns="http://www.w3.org/2000/svg" xmlns:xlink="http://www.w3.org/1999/xlink" contentStyleType="text/css" data-diagram-type="SEQUENCE" height="1978px" preserveAspectRatio="none" style="width:1226px;height:1978px;background:#FCFCFD;" version="1.1" viewBox="0 0 1226 1978" width="1226px" zoomAndPan="magnify"><title>Sequence - database/DatabaseBackup</title><defs/><g><rect fill="#FCFCFD" height="1978" style="stroke:none;stroke-width:1;" width="1226" x="0" y="0"/><text fill="#000000" font-family="Helvetica" font-size="14" font-weight="bold" lengthAdjust="spacing" textLength="255.9922" x="491.4827" y="25.7803">Sequence - database/DatabaseBackup</text><rect fill="none" height="290" rx="8" ry="8" style="stroke:#CBD5E1;stroke-width:1.5;" width="738.3779" x="465.542" y="314"/><rect fill="none" height="146" rx="8" ry="8" style="stroke:#CBD5E1;stroke-width:1.5;" width="475.9575" x="717.9624" y="423"/><rect fill="none" height="44" rx="8" ry="8" style="stroke:#CBD5E1;stroke-width:1.5;" width="455.9575" x="727.9624" y="474"/><rect fill="none" height="812" rx="8" ry="8" style="stroke:#CBD5E1;stroke-width:1.5;" width="774.4155" x="445.542" y="618"/><rect fill="none" height="260" rx="8" ry="8" style="stroke:#CBD5E1;stroke-width:1.5;" width="738.3779" x="455.542" y="641"/><rect fill="none" height="58" rx="8" ry="8" style="stroke:#CBD5E1;stroke-width:1.5;" width="455.9575" x="727.9624" y="734"/><rect fill="none" height="88" rx="8" ry="8" style="stroke:#CBD5E1;stroke-width:1.5;" width="438.813" x="465.542" y="806"/><rect fill="none" height="378" rx="8" ry="8" style="stroke:#CBD5E1;stroke-width:1.5;" width="754.4155" x="455.542" y="1003"/><rect fill="none" height="44" rx="8" ry="8" style="stroke:#CBD5E1;stroke-width:1.5;" width="438.813" x="465.542" y="1102"/><rect fill="none" height="116" rx="8" ry="8" style="stroke:#CBD5E1;stroke-width:1.5;" width="475.9575" x="717.9624" y="1160"/><rect fill="none" height="44" rx="8" ry="8" style="stroke:#CBD5E1;stroke-width:1.5;" width="455.9575" x="727.9624" y="1225"/><g class="participant-lifeline" data-entity-uid="part1" data-qualified-name="Kubernetes" id="part1-lifeline"><g><title>Kubernetes</title><rect fill="#000000" fill-opacity="0.00000" height="1857" width="8" x="39.8032" y="114"/><line style="stroke:#94A3B8;stroke-width:0.5;stroke-dasharray:5,5;" x1="43" x2="43" y1="114" y2="1971"/></g></g><g class="participant-lifeline" data-entity-uid="part2" data-qualified-name="Controller" id="part2-lifeline"><g><title>Controller</title><rect fill="#000000" fill-opacity="0.00000" height="1857" width="8" x="288.7397" y="114"/><line style="stroke:#94A3B8;stroke-width:0.5;stroke-dasharray:5,5;" x1="292.395" x2="292.395" y1="114" y2="1971"/></g></g><g class="participant-lifeline" data-entity-uid="part3" data-qualified-name="BaseReconciler" id="part3-lifeline"><g><title>BaseReconciler</title><rect fill="#000000" fill-opacity="0.00000" height="1857" width="8" x="527.5659" y="114"/><line style="stroke:#94A3B8;stroke-width:0.5;stroke-dasharray:5,5;" x1="531.542" x2="531.542" y1="114" y2="1971"/></g></g><g class="participant-lifeline" data-entity-uid="part4" data-qualified-name="ServiceManager" id="part4-lifeline"><g><title>OSOKServiceManager</title><rect fill="#000000" fill-opacity="0.00000" height="1857" width="8" x="812.1587" y="114"/><line style="stroke:#94A3B8;stroke-width:0.5;stroke-dasharray:5,5;" x1="815.9624" x2="815.9624" y1="114" y2="1971"/></g></g><g class="participant-lifeline" data-entity-uid="part5" data-qualified-name="OCI" id="part5-lifeline"><g><title>OCI</title><rect fill="#000000" fill-opacity="0.00000" height="1857" width="8" x="1150.4751" y="114"/><line style="stroke:#94A3B8;stroke-width:0.5;stroke-dasharray:5,5;" x1="1154.0303" x2="1154.0303" y1="114" y2="1971"/></g></g><g class="participant participant-head" data-entity-uid="part1" data-qualified-name="Kubernetes" id="part1-head"><text fill="#000000" font-family="Helvetica" font-size="14" lengthAdjust="spacing" textLength="71.6064" x="5" y="110.7803">Kubernetes</text><ellipse cx="43.8032" cy="48.5" fill="#E2E8F0" rx="8" ry="8" style="stroke:#0F172A;stroke-width:0.5;"/><path d="M43.8032,56.5 L43.8032,83.5 M30.8032,64.5 L56.8032,64.5 M43.8032,83.5 L30.8032,98.5 M43.8032,83.5 L56.8032,98.5" fill="none" style="stroke:#0F172A;stroke-width:0.5;"/></g><g class="participant participant-head" data-entity-uid="part2" data-qualified-name="Controller" id="part2-head"><rect fill="#E2E8F0" height="28" rx="8" ry="8" style="stroke:#0F172A;stroke-width:0.5;" width="74.6895" x="255.395" y="85"/><text fill="#0F172A" font-family="Helvetica" font-size="14" lengthAdjust="spacing" textLength="60.6895" x="262.395" y="102.7803">Controller</text></g><g class="participant participant-head" data-entity-uid="part3" data-qualified-name="BaseReconciler" id="part3-head"><rect fill="#E2E8F0" height="28" rx="8" ry="8" style="stroke:#0F172A;stroke-width:0.5;" width="112.0479" x="475.542" y="85"/><text fill="#0F172A" font-family="Helvetica" font-size="14" lengthAdjust="spacing" textLength="98.0479" x="482.542" y="102.7803">BaseReconciler</text></g><g class="participant participant-head" data-entity-uid="part4" data-qualified-name="ServiceManager" id="part4-head"><rect fill="#E2E8F0" height="28" rx="8" ry="8" style="stroke:#0F172A;stroke-width:0.5;" width="156.3926" x="737.9624" y="85"/><text fill="#0F172A" font-family="Helvetica" font-size="14" lengthAdjust="spacing" textLength="142.3926" x="744.9624" y="102.7803">OSOKServiceManager</text></g><g class="participant participant-head" data-entity-uid="part5" data-qualified-name="OCI" id="part5-head"><rect fill="#E2E8F0" height="28" rx="8" ry="8" style="stroke:#0F172A;stroke-width:0.5;" width="38.8896" x="1135.0303" y="85"/><text fill="#0F172A" font-family="Helvetica" font-size="14" lengthAdjust="spacing" textLength="24.8896" x="1142.0303" y="102.7803">OCI</text></g><path d="M466,137 L466,187 A8,8 0 0 0 474,195 L871,195 A8,8 0 0 0 879,187 L879,139 L869,129 L474,129 A8,8 0 0 0 466,137" fill="#FFF7D6" style="stroke:#B45309;stroke-width:0.5;"/><path d="M869,129 L869,135 A4,4 0 0 0 873,139 L879,139 L869,129" fill="#FFF7D6" style="stroke:#B45309;stroke-width:0.5;"/><text fill="#334155" font-family="Helvetica" font-size="14" lengthAdjust="spacing" textLength="111.2891" x="514.7107" y="144.7803">shared resolution:</text><text fill="#334155" font-family="Helvetica" font-size="14" lengthAdjust="spacing" textLength="307.3916" x="514.7107" y="158.7803">shared/diagrams/shared-resolution-sequence.svg</text><text fill="#334155" font-family="Helvetica" font-size="14" lengthAdjust="spacing" textLength="88.7305" x="514.7107" y="172.7803">shared delete:</text><text fill="#334155" font-family="Helvetica" font-size="14" lengthAdjust="spacing" textLength="284.833" x="514.7107" y="186.7803">shared/diagrams/shared-delete-sequence.svg</text><g class="message" data-entity-1="part1" data-entity-2="part2" id="msg1"><polygon fill="#0F172A" points="280.7397,216,290.7397,220,280.7397,224,284.7397,220" style="stroke:#0F172A;stroke-width:1;"/><line style="stroke:#0F172A;stroke-width:1;" x1="43.8032" x2="286.7397" y1="220" y2="220"/><text fill="#000000" font-family="Helvetica" font-size="14" lengthAdjust="spacing" textLength="224.9365" x="50.8032" y="214.7803">enqueue DatabaseBackup reconcile</text></g><g class="message" data-entity-1="part2" data-entity-2="part3" id="msg2"><polygon fill="#0F172A" points="519.5659,244,529.5659,248,519.5659,252,523.5659,248" style="stroke:#0F172A;stroke-width:1;"/><line style="stroke:#0F172A;stroke-width:1;" x1="292.7397" x2="525.5659" y1="248" y2="248"/><text fill="#000000" font-family="Helvetica" font-size="14" lengthAdjust="spacing" textLength="117.4961" x="299.7397" y="242.7803">Reconcile(request)</text></g><g class="message" data-entity-1="part3" data-entity-2="part4" id="msg3"><polygon fill="#0F172A" points="804.1587,272,814.1587,276,804.1587,280,808.1587,276" style="stroke:#0F172A;stroke-width:1;"/><line style="stroke:#0F172A;stroke-width:1;" x1="531.5659" x2="810.1587" y1="276" y2="276"/><text fill="#000000" font-family="Helvetica" font-size="14" lengthAdjust="spacing" textLength="216.3506" x="538.5659" y="270.7803">reconcile desired DatabaseBackup</text></g><path d="M473.542,314 L526.8799,314 L526.8799,320 L516.8799,330 L465.542,330 L465.542,322 A8,8 0 0 1 473.542,314" fill="#F8FAFC" style="stroke:#CBD5E1;stroke-width:1.5;"/><rect fill="none" height="290" rx="8" ry="8" style="stroke:#CBD5E1;stroke-width:1.5;" width="738.3779" x="465.542" y="314"/><text fill="#000000" font-family="Helvetica" font-size="14" font-weight="bold" lengthAdjust="spacing" textLength="16.3379" x="480.542" y="325.7803">alt</text><text fill="#000000" font-family="Helvetica" font-size="14" font-weight="bold" lengthAdjust="spacing" textLength="308.1094" x="541.8799" y="326.7803">[tracked or explicit OCI identity already exists]</text><g class="message" data-entity-1="part4" data-entity-2="part5" id="msg4"><polygon fill="#0F172A" points="1142.4751,346,1152.4751,350,1142.4751,354,1146.4751,350" style="stroke:#0F172A;stroke-width:1;"/><line style="stroke:#0F172A;stroke-width:1;" x1="816.1587" x2="1148.4751" y1="350" y2="350"/><text fill="#000000" font-family="Helvetica" font-size="14" lengthAdjust="spacing" textLength="129.1924" x="823.1587" y="344.7803">GetDatabaseBackup</text></g><line style="stroke:#CBD5E1;stroke-width:1;stroke-dasharray:2,2;" x1="465.542" x2="1203.9199" y1="359" y2="359"/><text fill="#000000" font-family="Helvetica" font-size="14" font-weight="bold" lengthAdjust="spacing" textLength="185.1582" x="470.542" y="369.7803">[tracked identity is missing]</text><g class="message" data-entity-1="part4" data-entity-2="part5" id="msg5"><polygon fill="#0F172A" points="1142.4751,404,1152.4751,408,1142.4751,412,1146.4751,408" style="stroke:#0F172A;stroke-width:1;"/><line style="stroke:#0F172A;stroke-width:1;" x1="816.1587" x2="1148.4751" y1="408" y2="408"/><text fill="#000000" font-family="Helvetica" font-size="14" lengthAdjust="spacing" textLength="170.4131" x="823.1587" y="388.7803">ListDatabaseBackup(filters:</text><text fill="#000000" font-family="Helvetica" font-size="14" lengthAdjust="spacing" textLength="143.1719" x="823.1587" y="402.7803">compartment_id, state)</text></g><path d="M725.9624,423 L779.3003,423 L779.3003,429 L769.3003,439 L717.9624,439 L717.9624,431 A8,8 0 0 1 725.9624,423" fill="#F8FAFC" style="stroke:#CBD5E1;stroke-width:1.5;"/><rect fill="none" height="146" rx="8" ry="8" style="stroke:#CBD5E1;stroke-width:1.5;" width="475.9575" x="717.9624" y="423"/><text fill="#000000" font-family="Helvetica" font-size="14" font-weight="bold" lengthAdjust="spacing" textLength="16.3379" x="732.9624" y="434.7803">alt</text><text fill="#000000" font-family="Helvetica" font-size="14" font-weight="bold" lengthAdjust="spacing" textLength="242.7031" x="794.3003" y="435.7803">[reusable OCI resource is not found]</text><g class="message" data-entity-1="part4" data-entity-2="part5" id="msg6"><polygon fill="#0F172A" points="1142.4751,455,1152.4751,459,1142.4751,463,1146.4751,459" style="stroke:#0F172A;stroke-width:1;"/><line style="stroke:#0F172A;stroke-width:1;" x1="816.1587" x2="1148.4751" y1="459" y2="459"/><text fill="#000000" font-family="Helvetica" font-size="14" lengthAdjust="spacing" textLength="148.6475" x="823.1587" y="453.7803">CreateDatabaseBackup</text></g><path d="M735.9624,474 L802.5073,474 L802.5073,480 L792.5073,490 L727.9624,490 L727.9624,482 A8,8 0 0 1 735.9624,474" fill="#F8FAFC" style="stroke:#CBD5E1;stroke-width:1.5;"/><rect fill="none" height="44" rx="8" ry="8" style="stroke:#CBD5E1;stroke-width:1.5;" width="455.9575" x="727.9624" y="474"/><text fill="#000000" font-family="Helvetica" font-size="14" font-weight="bold" lengthAdjust="spacing" textLength="29.5449" x="742.9624" y="485.7803">loop</text><text fill="#000000" font-family="Helvetica" font-size="14" font-weight="bold" lengthAdjust="spacing" textLength="215.4756" x="817.5073" y="486.7803">[create pending PROVISIONING]</text><g class="message" data-entity-1="part4" data-entity-2="part5" id="msg7"><polygon fill="#0F172A" points="1142.4751,506,1152.4751,510,1142.4751,514,1146.4751,510" style="stroke:#0F172A;stroke-width:1;"/><line style="stroke:#0F172A;stroke-width:1;" x1="816.1587" x2="1148.4751" y1="510" y2="510"/><text fill="#000000" font-family="Helvetica" font-size="14" lengthAdjust="spacing" textLength="129.1924" x="823.1587" y="504.7803">GetDatabaseBackup</text></g><line style="stroke:#CBD5E1;stroke-width:1;stroke-dasharray:2,2;" x1="717.9624" x2="1193.9199" y1="526" y2="526"/><text fill="#000000" font-family="Helvetica" font-size="14" font-weight="bold" lengthAdjust="spacing" textLength="255.2334" x="722.9624" y="536.7803">[reusable OCI resource already exists]</text><g class="message" data-entity-1="part4" data-entity-2="part5" id="msg8"><polygon fill="#0F172A" points="1142.4751,557,1152.4751,561,1142.4751,565,1146.4751,561" style="stroke:#0F172A;stroke-width:1;"/><line style="stroke:#0F172A;stroke-width:1;" x1="816.1587" x2="1148.4751" y1="561" y2="561"/><text fill="#000000" font-family="Helvetica" font-size="14" lengthAdjust="spacing" textLength="129.1924" x="823.1587" y="555.7803">GetDatabaseBackup</text></g><g class="message" data-entity-1="part4" data-entity-2="part3" id="msg9"><polygon fill="#0F172A" points="542.5659,592,532.5659,596,542.5659,600,538.5659,596" style="stroke:#0F172A;stroke-width:1;"/><line style="stroke:#0F172A;stroke-width:1;stroke-dasharray:2,2;" x1="536.5659" x2="815.1587" y1="596" y2="596"/><text fill="#000000" font-family="Helvetica" font-size="14" lengthAdjust="spacing" textLength="231.0957" x="548.5659" y="590.7803">persist resolved OCI identity in status</text></g><path d="M453.542,618 L506.8799,618 L506.8799,624 L496.8799,634 L445.542,634 L445.542,626 A8,8 0 0 1 453.542,618" fill="#F8FAFC" style="stroke:#CBD5E1;stroke-width:1.5;"/><rect fill="none" height="812" rx="8" ry="8" style="stroke:#CBD5E1;stroke-width:1.5;" width="774.4155" x="445.542" y="618"/><text fill="#000000" font-family="Helvetica" font-size="14" font-weight="bold" lengthAdjust="spacing" textLength="16.3379" x="460.542" y="629.7803">alt</text><text fill="#000000" font-family="Helvetica" font-size="14" font-weight="bold" lengthAdjust="spacing" textLength="120.5859" x="521.8799" y="630.7803">[delete requested]</text><path d="M463.542,641 L542.5625,641 L542.5625,647 L532.5625,657 L455.542,657 L455.542,649 A8,8 0 0 1 463.542,641" fill="#F8FAFC" style="stroke:#CBD5E1;stroke-width:1.5;"/><rect fill="none" height="260" rx="8" ry="8" style="stroke:#CBD5E1;stroke-width:1.5;" width="738.3779" x="455.542" y="641"/><text fill="#000000" font-family="Helvetica" font-size="14" font-weight="bold" lengthAdjust="spacing" textLength="42.0205" x="470.542" y="652.7803">Delete</text><g class="message" data-entity-1="part4" data-entity-2="part5" id="msg10"><polygon fill="#0F172A" points="1142.4751,673,1152.4751,677,1142.4751,681,1146.4751,677" style="stroke:#0F172A;stroke-width:1;"/><line style="stroke:#0F172A;stroke-width:1;" x1="816.1587" x2="1148.4751" y1="677" y2="677"/><text fill="#000000" font-family="Helvetica" font-size="14" lengthAdjust="spacing" textLength="147.0957" x="823.1587" y="671.7803">DeleteDatabaseBackup</text></g><g class="message" data-entity-1="part4" data-entity-2="part5" id="msg11"><polygon fill="#0F172A" points="1142.4751,715,1152.4751,719,1142.4751,723,1146.4751,719" style="stroke:#0F172A;stroke-width:1;"/><line style="stroke:#0F172A;stroke-width:1;" x1="816.1587" x2="1148.4751" y1="719" y2="719"/><text fill="#000000" font-family="Helvetica" font-size="14" lengthAdjust="spacing" textLength="242.7988" x="823.1587" y="699.7803">confirm delete via GetDatabaseBackup</text><text fill="#000000" font-family="Helvetica" font-size="14" lengthAdjust="spacing" textLength="144.751" x="823.1587" y="713.7803">or ListDatabaseBackup</text></g><path d="M735.9624,734 L802.5073,734 L802.5073,740 L792.5073,750 L727.9624,750 L727.9624,742 A8,8 0 0 1 735.9624,734" fill="#F8FAFC" style="stroke:#CBD5E1;stroke-width:1.5;"/><rect fill="none" height="58" rx="8" ry="8" style="stroke:#CBD5E1;stroke-width:1.5;" width="455.9575" x="727.9624" y="734"/><text fill="#000000" font-family="Helvetica" font-size="14" font-weight="bold" lengthAdjust="spacing" textLength="29.5449" x="742.9624" y="745.7803">loop</text><text fill="#000000" font-family="Helvetica" font-size="14" font-weight="bold" lengthAdjust="spacing" textLength="182.7793" x="817.5073" y="746.7803">[delete pending DELETING]</text><g class="message" data-entity-1="part4" data-entity-2="part5" id="msg12"><polygon fill="#0F172A" points="1142.4751,780,1152.4751,784,1142.4751,788,1146.4751,784" style="stroke:#0F172A;stroke-width:1;"/><line style="stroke:#0F172A;stroke-width:1;" x1="816.1587" x2="1148.4751" y1="784" y2="784"/><text fill="#000000" font-family="Helvetica" font-size="14" lengthAdjust="spacing" textLength="145.5303" x="823.1587" y="764.7803">GetDatabaseBackup or</text><text fill="#000000" font-family="Helvetica" font-size="14" lengthAdjust="spacing" textLength="128.4131" x="823.1587" y="778.7803">ListDatabaseBackup</text></g><path d="M473.542,806 L526.8799,806 L526.8799,812 L516.8799,822 L465.542,822 L465.542,814 A8,8 0 0 1 473.542,806" fill="#F8FAFC" style="stroke:#CBD5E1;stroke-width:1.5;"/><rect fill="none" height="88" rx="8" ry="8" style="stroke:#CBD5E1;stroke-width:1.5;" width="438.813" x="465.542" y="806"/><text fill="#000000" font-family="Helvetica" font-size="14" font-weight="bold" lengthAdjust="spacing" textLength="16.3379" x="480.542" y="817.7803">alt</text><text fill="#000000" font-family="Helvetica" font-size="14" font-weight="bold" lengthAdjust="spacing" textLength="261.4268" x="541.8799" y="818.7803">[cleanup or finalizer release is blocked]</text><g class="message" data-entity-1="part4" data-entity-2="part3" id="msg13"><polygon fill="#0F172A" points="542.5659,838,532.5659,842,542.5659,846,538.5659,842" style="stroke:#0F172A;stroke-width:1;"/><line style="stroke:#0F172A;stroke-width:1;stroke-dasharray:2,2;" x1="536.5659" x2="815.1587" y1="842" y2="842"/><text fill="#000000" font-family="Helvetica" font-size="14" lengthAdjust="spacing" textLength="170.4336" x="548.5659" y="836.7803">retain delete state and retry</text></g><line style="stroke:#CBD5E1;stroke-width:1;stroke-dasharray:2,2;" x1="465.542" x2="904.355" y1="851" y2="851"/><text fill="#000000" font-family="Helvetica" font-size="14" font-weight="bold" lengthAdjust="spacing" textLength="194.4824" x="470.542" y="861.7803">[delete completion observed]</text><g class="message" data-entity-1="part4" data-entity-2="part3" id="msg14"><polygon fill="#0F172A" points="542.5659,882,532.5659,886,542.5659,890,538.5659,886" style="stroke:#0F172A;stroke-width:1;"/><line style="stroke:#0F172A;stroke-width:1;stroke-dasharray:2,2;" x1="536.5659" x2="815.1587" y1="886" y2="886"/><text fill="#000000" font-family="Helvetica" font-size="14" lengthAdjust="spacing" textLength="243.5781" x="548.5659" y="880.7803">release finalizer after delete completion</text></g><line style="stroke:#CBD5E1;stroke-width:1;stroke-dasharray:2,2;" x1="445.542" x2="1219.9575" y1="909" y2="909"/><text fill="#000000" font-family="Helvetica" font-size="14" font-weight="bold" lengthAdjust="spacing" textLength="149.3857" x="450.542" y="919.7803">[OCI state is retryable]</text><g class="message" data-entity-1="part4" data-entity-2="part3" id="msg15"><polygon fill="#0F172A" points="542.5659,954,532.5659,958,542.5659,962,538.5659,958" style="stroke:#0F172A;stroke-width:1;"/><line style="stroke:#0F172A;stroke-width:1;stroke-dasharray:2,2;" x1="536.5659" x2="815.1587" y1="958" y2="958"/><text fill="#000000" font-family="Helvetica" font-size="14" lengthAdjust="spacing" textLength="184.4199" x="548.5659" y="938.7803">requeue while OCI remains in</text><text fill="#000000" font-family="Helvetica" font-size="14" lengthAdjust="spacing" textLength="260.5928" x="548.5659" y="952.7803">PROVISIONING, UPDATING, DELETING</text></g><line style="stroke:#CBD5E1;stroke-width:1;stroke-dasharray:2,2;" x1="445.542" x2="1219.9575" y1="967" y2="967"/><text fill="#000000" font-family="Helvetica" font-size="14" font-weight="bold" lengthAdjust="spacing" textLength="200.751" x="450.542" y="977.7803">[live state requires field-aware</text><text fill="#000000" font-family="Helvetica" font-size="14" font-weight="bold" lengthAdjust="spacing" textLength="105.0068" x="450.542" y="991.7803">drift evaluation]</text><path d="M463.542,1003 L591.5283,1003 L591.5283,1009 L581.5283,1019 L455.542,1019 L455.542,1011 A8,8 0 0 1 463.542,1003" fill="#F8FAFC" style="stroke:#CBD5E1;stroke-width:1.5;"/><rect fill="none" height="378" rx="8" ry="8" style="stroke:#CBD5E1;stroke-width:1.5;" width="754.4155" x="455.542" y="1003"/><text fill="#000000" font-family="Helvetica" font-size="14" font-weight="bold" lengthAdjust="spacing" textLength="90.9863" x="470.542" y="1014.7803">Drift handling</text><path d="M769,1032 L769,1082 A8,8 0 0 0 777,1090 L1191,1090 A8,8 0 0 0 1199,1082 L1199,1034 L1189,1024 L777,1024 A8,8 0 0 0 769,1032" fill="#FFF7D6" style="stroke:#B45309;stroke-width:0.5;"/><path d="M1189,1024 L1189,1030 A4,4 0 0 0 1193,1034 L1199,1034 L1189,1024" fill="#FFF7D6" style="stroke:#B45309;stroke-width:0.5;"/><text fill="#334155" font-family="Helvetica" font-size="14" lengthAdjust="spacing" textLength="255.2813" x="852.3381" y="1039.7803">Supported update surface: display_name</text><text fill="#334155" font-family="Helvetica" font-size="14" lengthAdjust="spacing" textLength="235.7783" x="852.3381" y="1053.7803">Reject before mutate: force-new fields</text><text fill="#334155" font-family="Helvetica" font-size="14" lengthAdjust="spacing" textLength="100.3789" x="852.3381" y="1067.7803">compartment_id</text><text fill="#334155" font-family="Helvetica" font-size="14" lengthAdjust="spacing" textLength="229.5576" x="852.3381" y="1081.7803">Lookup filters: compartment_id, state</text><path d="M473.542,1102 L532.3076,1102 L532.3076,1108 L522.3076,1118 L465.542,1118 L465.542,1110 A8,8 0 0 1 473.542,1102" fill="#F8FAFC" style="stroke:#CBD5E1;stroke-width:1.5;"/><rect fill="none" height="44" rx="8" ry="8" style="stroke:#CBD5E1;stroke-width:1.5;" width="438.813" x="465.542" y="1102"/><text fill="#000000" font-family="Helvetica" font-size="14" font-weight="bold" lengthAdjust="spacing" textLength="21.7656" x="480.542" y="1113.7803">opt</text><text fill="#000000" font-family="Helvetica" font-size="14" font-weight="bold" lengthAdjust="spacing" textLength="276.1309" x="547.3076" y="1114.7803">[force-new or conflicting drift is detected]</text><g class="message" data-entity-1="part4" data-entity-2="part3" id="msg16"><polygon fill="#0F172A" points="542.5659,1134,532.5659,1138,542.5659,1142,538.5659,1138" style="stroke:#0F172A;stroke-width:1;"/><line style="stroke:#0F172A;stroke-width:1;stroke-dasharray:2,2;" x1="536.5659" x2="815.1587" y1="1138" y2="1138"/><text fill="#000000" font-family="Helvetica" font-size="14" lengthAdjust="spacing" textLength="164.1855" x="548.5659" y="1132.7803">reject before OCI mutation</text></g><path d="M725.9624,1160 L784.728,1160 L784.728,1166 L774.728,1176 L717.9624,1176 L717.9624,1168 A8,8 0 0 1 725.9624,1160" fill="#F8FAFC" style="stroke:#CBD5E1;stroke-width:1.5;"/><rect fill="none" height="116" rx="8" ry="8" style="stroke:#CBD5E1;stroke-width:1.5;" width="475.9575" x="717.9624" y="1160"/><text fill="#000000" font-family="Helvetica" font-size="14" font-weight="bold" lengthAdjust="spacing" textLength="21.7656" x="732.9624" y="1171.7803">opt</text><text fill="#000000" font-family="Helvetica" font-size="14" font-weight="bold" lengthAdjust="spacing" textLength="243.4619" x="799.728" y="1172.7803">[supported mutable drift is detected]</text><g class="message" data-entity-1="part4" data-entity-2="part5" id="msg17"><polygon fill="#0F172A" points="1142.4751,1206,1152.4751,1210,1142.4751,1214,1146.4751,1210" style="stroke:#0F172A;stroke-width:1;"/><line style="stroke:#0F172A;stroke-width:1;" x1="816.1587" x2="1148.4751" y1="1210" y2="1210"/><text fill="#000000" font-family="Helvetica" font-size="14" lengthAdjust="spacing" textLength="240.4814" x="823.1587" y="1190.7803">Apply UpdateDatabaseBackup only for</text><text fill="#000000" font-family="Helvetica" font-size="14" lengthAdjust="spacing" textLength="176.6543" x="823.1587" y="1204.7803">mutable fields display_name</text></g><path d="M735.9624,1225 L802.5073,1225 L802.5073,1231 L792.5073,1241 L727.9624,1241 L727.9624,1233 A8,8 0 0 1 735.9624,1225" fill="#F8FAFC" style="stroke:#CBD5E1;stroke-width:1.5;"/><rect fill="none" height="44" rx="8" ry="8" style="stroke:#CBD5E1;stroke-width:1.5;" width="455.9575" x="727.9624" y="1225"/><text fill="#000000" font-family="Helvetica" font-size="14" font-weight="bold" lengthAdjust="spacing" textLength="29.5449" x="742.9624" y="1236.7803">loop</text><text fill="#000000" font-family="Helvetica" font-size="14" font-weight="bold" lengthAdjust="spacing" textLength="190.5381" x="817.5073" y="1237.7803">[update pending UPDATING]</text><g class="message" data-entity-1="part4" data-entity-2="part5" id="msg18"><polygon fill="#0F172A" points="1142.4751,1257,1152.4751,1261,1142.4751,1265,1146.4751,1261" style="stroke:#0F172A;stroke-width:1;"/><line style="stroke:#0F172A;stroke-width:1;" x1="816.1587" x2="1148.4751" y1="1261" y2="1261"/><text fill="#000000" font-family="Helvetica" font-size="14" lengthAdjust="spacing" textLength="129.1924" x="823.1587" y="1255.7803">GetDatabaseBackup</text></g><g class="message" data-entity-1="part4" data-entity-2="part5" id="msg19"><polygon fill="#0F172A" points="1142.4751,1369,1152.4751,1373,1142.4751,1377,1146.4751,1373" style="stroke:#0F172A;stroke-width:1;"/><line style="stroke:#0F172A;stroke-width:1;" x1="816.1587" x2="1148.4751" y1="1373" y2="1373"/><text fill="#000000" font-family="Helvetica" font-size="14" lengthAdjust="spacing" textLength="104.2891" x="823.1587" y="1297.7803">run helper hooks</text><text fill="#000000" font-family="Helvetica" font-size="14" lengthAdjust="spacing" textLength="219.0508" x="823.1587" y="1311.7803">create=tfresource.CreateResource,</text><text fill="#000000" font-family="Helvetica" font-size="14" lengthAdjust="spacing" textLength="314.3164" x="823.1587" y="1325.7803">tfresource.WaitForWorkRequestWithErrorHandling</text><text fill="#000000" font-family="Helvetica" font-size="14" lengthAdjust="spacing" textLength="215.5439" x="823.1587" y="1339.7803">entity=template action=CREATED;</text><text fill="#000000" font-family="Helvetica" font-size="14" lengthAdjust="spacing" textLength="226.085" x="823.1587" y="1353.7803">update=tfresource.UpdateResource;</text><text fill="#000000" font-family="Helvetica" font-size="14" lengthAdjust="spacing" textLength="212.8438" x="823.1587" y="1367.7803">delete=tfresource.DeleteResource</text></g><g class="message" data-entity-1="part4" data-entity-2="part3" id="msg20"><polygon fill="#0F172A" points="542.5659,1418,532.5659,1422,542.5659,1426,538.5659,1422" style="stroke:#0F172A;stroke-width:1;"/><line style="stroke:#0F172A;stroke-width:1;stroke-dasharray:2,2;" x1="536.5659" x2="815.1587" y1="1422" y2="1422"/><text fill="#000000" font-family="Helvetica" font-size="14" lengthAdjust="spacing" textLength="100.7822" x="548.5659" y="1402.7803">status=required,</text><text fill="#000000" font-family="Helvetica" font-size="14" lengthAdjust="spacing" textLength="230.7197" x="548.5659" y="1416.7803">finalizer=retain-until-confirmed-delete</text></g><g class="message" data-entity-1="part3" data-entity-2="part2" id="msg21"><polygon fill="#0F172A" points="303.7397,1467,293.7397,1471,303.7397,1475,299.7397,1471" style="stroke:#0F172A;stroke-width:1;"/><line style="stroke:#0F172A;stroke-width:1;stroke-dasharray:2,2;" x1="297.7397" x2="530.5659" y1="1471" y2="1471"/><text fill="#000000" font-family="Helvetica" font-size="14" lengthAdjust="spacing" textLength="214.8262" x="309.7397" y="1451.7803">requeue on provisioning, updating,</text><text fill="#000000" font-family="Helvetica" font-size="14" lengthAdjust="spacing" textLength="69.2549" x="309.7397" y="1465.7803">terminating</text></g><path d="M821,1492 L821,1948 A8,8 0 0 0 829,1956 L1141,1956 A8,8 0 0 0 1149,1948 L1149,1494 L1139,1484 L829,1484 A8,8 0 0 0 821,1492" fill="#FFF7D6" style="stroke:#B45309;stroke-width:0.5;"/><path d="M1139,1484 L1139,1490 A4,4 0 0 0 1143,1494 L1149,1494 L1139,1484" fill="#FFF7D6" style="stroke:#B45309;stroke-width:0.5;"/><text fill="#334155" font-family="Helvetica" font-size="14" lengthAdjust="spacing" textLength="101.165" x="827" y="1499.7803">shared diagram:</text><text fill="#334155" font-family="Helvetica" font-size="14" lengthAdjust="spacing" textLength="307.3916" x="827" y="1513.7803">shared/diagrams/shared-resolution-sequence.svg</text><text fill="#334155" font-family="Helvetica" font-size="14" lengthAdjust="spacing" textLength="143.1992" x="827" y="1527.7803">shared delete diagram:</text><text fill="#334155" font-family="Helvetica" font-size="14" lengthAdjust="spacing" textLength="284.833" x="827" y="1541.7803">shared/diagrams/shared-delete-sequence.svg</text><text fill="#334155" font-family="Helvetica" font-size="14" lengthAdjust="spacing" textLength="280.9297" x="827" y="1555.7803">Start from the shared resolution sequence for</text><text fill="#334155" font-family="Helvetica" font-size="14" lengthAdjust="spacing" textLength="260.7295" x="827" y="1569.7803">OCID binding, datasource pagination, and</text><text fill="#334155" font-family="Helvetica" font-size="14" lengthAdjust="spacing" textLength="163.4268" x="827" y="1583.7803">create-or-update dispatch.</text><text fill="#334155" font-family="Helvetica" font-size="14" lengthAdjust="spacing" textLength="301.1982" x="827" y="1597.7803">Layer the shared delete sequence when finalizer</text><text fill="#334155" font-family="Helvetica" font-size="14" lengthAdjust="spacing" textLength="269.2471" x="827" y="1611.7803">retention, delete confirmation, work-request</text><text fill="#334155" font-family="Helvetica" font-size="14" lengthAdjust="spacing" textLength="199.2334" x="827" y="1625.7803">polling, or Secret cleanup apply.</text><text fill="#334155" font-family="Helvetica" font-size="14" lengthAdjust="spacing" textLength="281.709" x="827" y="1639.7803">archetype batch: Generated service-manager</text><text fill="#334155" font-family="Helvetica" font-size="14" lengthAdjust="spacing" textLength="266.1504" x="827" y="1653.7803">controllers follow the shared resolution and</text><text fill="#334155" font-family="Helvetica" font-size="14" lengthAdjust="spacing" textLength="259.9297" x="827" y="1667.7803">delete sequences with imported waits and</text><text fill="#334155" font-family="Helvetica" font-size="14" lengthAdjust="spacing" textLength="134.6064" x="827" y="1681.7803">controller-local policy.</text><text fill="#334155" font-family="Helvetica" font-size="14" lengthAdjust="spacing" textLength="109.7305" x="827" y="1695.7803">service: database</text><text fill="#334155" font-family="Helvetica" font-size="14" lengthAdjust="spacing" textLength="136.2129" x="827" y="1709.7803">slug: databasebackup</text><text fill="#334155" font-family="Helvetica" font-size="14" lengthAdjust="spacing" textLength="140.0889" x="827" y="1723.7803">kind: DatabaseBackup</text><text fill="#334155" font-family="Helvetica" font-size="14" lengthAdjust="spacing" textLength="241.2402" x="827" y="1737.7803">archetype: generated-service-manager</text><text fill="#334155" font-family="Helvetica" font-size="14" lengthAdjust="spacing" textLength="156.4063" x="827" y="1751.7803">status/finalizer: required /</text><text fill="#334155" font-family="Helvetica" font-size="14" lengthAdjust="spacing" textLength="174.3027" x="827" y="1765.7803">retain-until-confirmed-delete</text><text fill="#334155" font-family="Helvetica" font-size="14" lengthAdjust="spacing" textLength="272.3984" x="827" y="1779.7803">requeue: provisioning, updating, terminating</text><text fill="#334155" font-family="Helvetica" font-size="14" lengthAdjust="spacing" textLength="295.6816" x="827" y="1793.7803">provider states: create PROVISIONING; update</text><text fill="#334155" font-family="Helvetica" font-size="14" lengthAdjust="spacing" textLength="192.165" x="827" y="1807.7803">UPDATING; delete DELETING</text><text fill="#334155" font-family="Helvetica" font-size="14" lengthAdjust="spacing" textLength="183.6611" x="827" y="1821.7803">supported drift: display_name</text><text fill="#334155" font-family="Helvetica" font-size="14" lengthAdjust="spacing" textLength="230.3301" x="827" y="1835.7803">reject before mutate: force-new fields</text><text fill="#334155" font-family="Helvetica" font-size="14" lengthAdjust="spacing" textLength="100.3789" x="827" y="1849.7803">compartment_id</text><text fill="#334155" font-family="Helvetica" font-size="14" lengthAdjust="spacing" textLength="294.2119" x="827" y="1863.7803">list lookup: scaffold_database_databasebackup</text><text fill="#334155" font-family="Helvetica" font-size="14" lengthAdjust="spacing" textLength="175.8477" x="827" y="1877.7803">filters compartment_id, state</text><text fill="#334155" font-family="Helvetica" font-size="14" lengthAdjust="spacing" textLength="89.4961" x="827" y="1891.7803">conflicts: none</text><text fill="#334155" font-family="Helvetica" font-size="14" lengthAdjust="spacing" textLength="104.3164" x="827" y="1905.7803">open gaps: none</text><text fill="#334155" font-family="Helvetica" font-size="14" lengthAdjust="spacing" textLength="224.9023" x="827" y="1919.7803">Scaffold metadata only; replace with</text><text fill="#334155" font-family="Helvetica" font-size="14" lengthAdjust="spacing" textLength="244.3232" x="827" y="1933.7803">controller-specific runtime states before</text><text fill="#334155" font-family="Helvetica" font-size="14" lengthAdjust="spacing" textLength="66.1445" x="827" y="1947.7803">promotion.</text><?plantuml-src fLVRRjiu47tNLmowBorW9KsJzE8W2xH9jWsQJOgutRuO26XfP7DBaIf9sVKkzjztU94iAVOsxI8FaKLoBcVEdA7C5ouhfba9Pi5ojU9o3WKJ1XFJhinOzcMkLItpCoMKXb-AZFxopeuS2rOB-vkIzfgL2EzGBD7oZ6tVC-5_8HmSTHQPrceLhJyj3buywvwKokARUp4KnOly-N2NqZdgk6DsT7puzDLWXtCVrmyFZmwEZplhtdocj4GD1yyJowr0cE3N6cM6a4BEB9inW_ldyS45LLV9WkS8XL9sfhvrp9dcvDy90CkiqhtmOfhDqZ0_V8OlYwUqJCO8ILunQRUVxsvuY9KE1AqDmGkyuh8FuAiZTZXxIQlEPDLRocRvCHwqI_UAyx9WHPRya_ZSu7qzGqBLeaawSS0P1QAL4AXxhzyGihUOAPdnuTAZcydD-mdg9S_mToRP7FKZO0Rwhtf7Riuk4rTuK4igQz_sQ72EMa1Z3XgD4hNbIexZg_sSipdLrEo7t-bcIzgKUSyivus570Lbk_DqMEwVH9bxWYORi23zjOFH653I_XgXJpyAD-QJR3Qxe_rSnz0-FzREiR5FaluMTwYFo7XZd78otEKs8Byd05mfvK9XbCICopnXmeBLj8CE407mMoMe8BuQGDqYgRVMm8H6bgzfbHjhahvh5mpj7iDRj0ENIFBKMc-jSGCbDuO4R9UbAtBJD_MuuCAYDkEfp5JfQ5EIjJkUZy1OPl69JqHZRTYC873HkyhNchgQ_56zgE-9zhiydb625WVX2wKgoFmAL5Hs9xaVRc_-k9nStbnVNh_z0I38imTZUuG_ZU-MXBRmgIBWo71eboMLebTSBZs4jV7c78o1zH39Xtcaphb_lIkwi3e8SCTU2gtWkcmSBJcxdznK4Xtl4o4K9HviYd9-SNNnyKSAGbIVoYt66mGoWKpwRL1moGIDGKruq5lZ-JGJod7w8U1hj8mWZX5xilhke_Tw7KWHrnonwO6a2jJCaEM7EWXXRG9b1RNAVQk1XGqJ7GT2D9IF3yRnyc4EWxgj5hmbSaav6gBIL7ORP0IVFfo__kYVsXfvxu8l6p2SET8hGmcWo5Es8kMTobppmW8kcQYP3pvoqBzU4832wSTcNlJZ7hbXCgchIcdYBzHLxZoPMXSimp7at5I2hUyaNO6IM_mJCmipB9H6A6iNr9ZKWXepbRWAOPcaBpj9rD56bc2hAcrcXQfinoJHohK0AQrrz0svKXboAbXc7rhsRjYk2ZxqfixEeMa1S4jETRxlANRCwweIQ_ZaSHksZgILmZLGOpKWr4VLjsd4lMdJXWm_g9kxLLlN4XOeIDzWGVKmD1oyMf_Qej7MlQ3ij_7dQ2exQvyPfqkM_gpqbziWTf-vNLpG5LU_YnIRoY2JfnQfZtppPWxaqxFRYzSVByvFfZ9asVKPS6jyqfRGYzqjGIwRBGzLyY3Kfx5bSigcxVhJ83HfJU6AD2fiUuNn3eQNYC6jfUbhqfzAgoKtb2OXC0fbT4y47kgIFDgs-JIVBooe0hRVqEA5wlzTpxvhPTirRMAf7Q7GgWIxGBXtOzpS-edB2T7ft5-8VCBk-o6EvehDVRvAZfni9u5WgT9f9BTZFRFPOY-vOcj2jUEiqVp6qMg1SYFJ2HNCSSjPRhNQLoswMn4jqpY4augAv6DJJkieYisGOgvNznAcimNQTONq6KZnk7QYxoFcsj-4sgHbB4xMLfrKb_whrGwCNCQ3B0oig4U0br5QLjH39a3JMarfF38153FFABBeVjn-boL6rFFDprbeTleUoyV3MskRrHZcJJxfC9_G5lijjEDcgEImd_ntNqJIZtTH7hgCztlesogekrFzS3diphoJg7f9etOdJNNR2RZHPQ_7WtcaVseU2NV14tueaKnahA2wvdSDmdS3gEFOsZ6rcjb42KebtV0YtivPrVoUHFDG4hJEify99mGwPU5uJWJfii5KcF62PqwlBI_Zu3SnHOTggHpTzjfv-Iy0?></g></svg>