<?plantuml 1.2026.1?><svg xmlns="http://www.w3.org/2000/svg" xmlns:xlink="http://www.w3.org/1999/xlink" contentStyleType="text/css" data-diagram-type="ACTIVITY" height="2277px" preserveAspectRatio="none" style="width:1268px;height:2277px;background:#FCFCFD;" version="1.1" viewBox="0 0 1268 2277" width="1268px" zoomAndPan="magnify"><title>Activity - mediaservices/MediaServicesStreamDistributionChannels</title><defs/><g><rect fill="#FCFCFD" height="2277" style="stroke:none;stroke-width:1;" width="1268" x="0" y="0"/><g class="title" data-source-line="10"><text fill="#000000" font-family="Helvetica" font-size="14" font-weight="bold" lengthAdjust="spacing" textLength="449.7295" x="408.0093" y="30.7803">Activity - mediaservices/MediaServicesStreamDistributionChannels</text></g><ellipse cx="671.7113" cy="55" fill="#1D4ED8" rx="10" ry="10" style="stroke:#222222;stroke-width:1;"/><rect fill="none" height="472" rx="8" ry="8" style="stroke:#000000;stroke-width:1.5;" width="696.8184" x="328.1659" y="75"/><path d="M450.2343,75 L450.2343,82 L440.2343,92 L328.1659,92" fill="none" style="stroke:#000000;stroke-width:1.5;"/><text fill="#000000" font-family="Helvetica" font-size="14" lengthAdjust="spacing" textLength="112.0684" x="331.1659" y="86.7803">Observe and Bind</text><rect fill="#F8FAFC" height="48" rx="8" ry="8" style="stroke:#0F172A;stroke-width:0.5;" width="304.7852" x="519.3187" y="109"/><text fill="#0F172A" font-family="Helvetica" font-size="14" lengthAdjust="spacing" textLength="136.9375" x="529.3187" y="129.7803">Start from shared flow</text><text fill="#0F172A" font-family="Helvetica" font-size="14" lengthAdjust="spacing" textLength="284.7852" x="529.3187" y="143.7803">shared/diagrams/shared-reconcile-activity.svg</text><rect fill="#F8FAFC" height="62" rx="8" ry="8" style="stroke:#0F172A;stroke-width:0.5;" width="323.4678" x="509.9774" y="177"/><text fill="#0F172A" font-family="Helvetica" font-size="14" lengthAdjust="spacing" textLength="83.2754" x="519.9774" y="197.7803">Read desired</text><text fill="#0F172A" font-family="Helvetica" font-size="14" lengthAdjust="spacing" textLength="303.4678" x="519.9774" y="211.7803">MediaServicesStreamDistributionChannels spec,</text><text fill="#0F172A" font-family="Helvetica" font-size="14" lengthAdjust="spacing" textLength="198.4609" x="519.9774" y="225.7803">tracked status, and delete intent</text><polygon fill="#E2E8F0" points="542.2455,259,801.1771,259,813.1771,271,801.1771,283,542.2455,283,530.2455,271,542.2455,259" style="stroke:#1D4ED8;stroke-width:0.5;"/><text fill="#0F172A" font-family="Helvetica" font-size="14" lengthAdjust="spacing" textLength="258.9316" x="542.2455" y="274.7803">"Tracked or explicit OCI identity present?"</text><text fill="#000000" font-family="Helvetica" font-size="14" lengthAdjust="spacing" textLength="21.7861" x="508.4594" y="267.7803">yes</text><text fill="#000000" font-family="Helvetica" font-size="14" lengthAdjust="spacing" textLength="15.5723" x="813.1771" y="267.7803">no</text><rect fill="#F8FAFC" height="48" rx="8" ry="8" style="stroke:#0F172A;stroke-width:0.5;" width="308.6816" x="348.1659" y="293"/><text fill="#0F172A" font-family="Helvetica" font-size="14" lengthAdjust="spacing" textLength="202.3027" x="358.1659" y="313.7803">Get the current OCI resource via</text><text fill="#0F172A" font-family="Helvetica" font-size="14" lengthAdjust="spacing" textLength="288.6816" x="358.1659" y="327.7803">GetMediaServicesStreamDistributionChannels</text><rect fill="#F8FAFC" height="62" rx="8" ry="8" style="stroke:#0F172A;stroke-width:0.5;" width="307.9023" x="686.9647" y="293"/><text fill="#0F172A" font-family="Helvetica" font-size="14" lengthAdjust="spacing" textLength="259.9092" x="696.9647" y="313.7803">Resolve an existing OCI resource through</text><text fill="#0F172A" font-family="Helvetica" font-size="14" lengthAdjust="spacing" textLength="287.9023" x="696.9647" y="327.7803">ListMediaServicesStreamDistributionChannels</text><text fill="#0F172A" font-family="Helvetica" font-size="14" lengthAdjust="spacing" textLength="213.2061" x="696.9647" y="341.7803">using filters compartment_id, state</text><rect fill="#F8FAFC" height="62" rx="8" ry="8" style="stroke:#0F172A;stroke-width:0.5;" width="328.1367" x="676.8475" y="375"/><text fill="#0F172A" font-family="Helvetica" font-size="14" lengthAdjust="spacing" textLength="174.2959" x="686.8475" y="395.7803">Create the OCI resource via</text><text fill="#0F172A" font-family="Helvetica" font-size="14" lengthAdjust="spacing" textLength="308.1367" x="686.8475" y="409.7803">CreateMediaServicesStreamDistributionChannels</text><text fill="#0F172A" font-family="Helvetica" font-size="14" lengthAdjust="spacing" textLength="205.4609" x="686.8475" y="423.7803">when no reusable match is found</text><rect fill="#F8FAFC" height="48" rx="8" ry="8" style="stroke:#0F172A;stroke-width:0.5;" width="286.8955" x="697.4681" y="457"/><text fill="#0F172A" font-family="Helvetica" font-size="14" lengthAdjust="spacing" textLength="266.8955" x="707.4681" y="477.7803">Persist the resolved or created OCI identity</text><text fill="#0F172A" font-family="Helvetica" font-size="14" lengthAdjust="spacing" textLength="63.8135" x="707.4681" y="491.7803">into status</text><polygon fill="#E2E8F0" points="671.7113,511,683.7113,523,671.7113,535,659.7113,523,671.7113,511" style="stroke:#1D4ED8;stroke-width:0.5;"/><polygon fill="#E2E8F0" points="609.535,567,733.8876,567,745.8876,579,733.8876,591,609.535,591,597.535,579,609.535,567" style="stroke:#1D4ED8;stroke-width:0.5;"/><text fill="#0F172A" font-family="Helvetica" font-size="14" lengthAdjust="spacing" textLength="124.3525" x="609.535" y="582.7803">"Delete requested?"</text><text fill="#000000" font-family="Helvetica" font-size="14" lengthAdjust="spacing" textLength="21.7861" x="575.7489" y="575.7803">yes</text><text fill="#000000" font-family="Helvetica" font-size="14" lengthAdjust="spacing" textLength="15.5723" x="745.8876" y="575.7803">no</text><rect fill="none" height="408" rx="8" ry="8" style="stroke:#000000;stroke-width:1.5;" width="644.4814" x="11" y="601"/><path d="M61.4688,601 L61.4688,608 L51.4688,618 L11,618" fill="none" style="stroke:#000000;stroke-width:1.5;"/><text fill="#000000" font-family="Helvetica" font-size="14" lengthAdjust="spacing" textLength="40.4688" x="14" y="612.7803">Delete</text><rect fill="#F8FAFC" height="104" rx="8" ry="8" style="stroke:#0F172A;stroke-width:0.5;" width="326.585" x="176.4517" y="635"/><text fill="#0F172A" font-family="Helvetica" font-size="14" lengthAdjust="spacing" textLength="105.0684" x="186.4517" y="655.7803">Delete path uses</text><text fill="#0F172A" font-family="Helvetica" font-size="14" lengthAdjust="spacing" textLength="306.585" x="186.4517" y="669.7803">DeleteMediaServicesStreamDistributionChannels</text><text fill="#0F172A" font-family="Helvetica" font-size="14" lengthAdjust="spacing" textLength="101.9375" x="186.4517" y="683.7803">with required via</text><text fill="#0F172A" font-family="Helvetica" font-size="14" lengthAdjust="spacing" textLength="305.0195" x="186.4517" y="697.7803">GetMediaServicesStreamDistributionChannels or</text><text fill="#0F172A" font-family="Helvetica" font-size="14" lengthAdjust="spacing" textLength="303.4678" x="186.4517" y="711.7803">ListMediaServicesStreamDistributionChannels to</text><text fill="#0F172A" font-family="Helvetica" font-size="14" lengthAdjust="spacing" textLength="144.7168" x="186.4517" y="725.7803">DELETED confirmation</text><rect fill="#F8FAFC" height="76" rx="8" ry="8" style="stroke:#0F172A;stroke-width:0.5;" width="325.0195" x="177.2344" y="766"/><text fill="#0F172A" font-family="Helvetica" font-size="14" lengthAdjust="spacing" textLength="123.7236" x="187.2344" y="786.7803">Confirm deletion via</text><text fill="#0F172A" font-family="Helvetica" font-size="14" lengthAdjust="spacing" textLength="305.0195" x="187.2344" y="800.7803">GetMediaServicesStreamDistributionChannels or</text><text fill="#0F172A" font-family="Helvetica" font-size="14" lengthAdjust="spacing" textLength="287.9023" x="187.2344" y="814.7803">ListMediaServicesStreamDistributionChannels</text><text fill="#0F172A" font-family="Helvetica" font-size="14" lengthAdjust="spacing" textLength="176.6201" x="187.2344" y="828.7803">until OCI reaches DELETED</text><polygon fill="#E2E8F0" points="191.5718,877,487.9165,877,499.9165,889,487.9165,901,191.5718,901,179.5718,889,191.5718,877" style="stroke:#1D4ED8;stroke-width:0.5;"/><text fill="#0F172A" font-family="Helvetica" font-size="14" lengthAdjust="spacing" textLength="296.3447" x="191.5718" y="892.7803">"Delete cleanup and finalizer release succeed?"</text><text fill="#000000" font-family="Helvetica" font-size="14" lengthAdjust="spacing" textLength="21.7861" x="157.7856" y="885.7803">yes</text><text fill="#000000" font-family="Helvetica" font-size="14" lengthAdjust="spacing" textLength="15.5723" x="499.9165" y="885.7803">no</text><rect fill="#F8FAFC" height="34" rx="8" ry="8" style="stroke:#0F172A;stroke-width:0.5;" width="293.1436" x="23" y="911"/><text fill="#0F172A" font-family="Helvetica" font-size="14" lengthAdjust="spacing" textLength="273.1436" x="33" y="931.7803">Remove the finalizer after delete completion</text><rect fill="#F8FAFC" height="48" rx="8" ry="8" style="stroke:#0F172A;stroke-width:0.5;" width="251.1299" x="384.3516" y="911"/><text fill="#0F172A" font-family="Helvetica" font-size="14" lengthAdjust="spacing" textLength="231.1299" x="394.3516" y="931.7803">Stay blocked until cleanup or finalizer</text><text fill="#0F172A" font-family="Helvetica" font-size="14" lengthAdjust="spacing" textLength="108.9512" x="394.3516" y="945.7803">release succeeds</text><polygon fill="#E2E8F0" points="339.7441,965,351.7441,977,339.7441,989,327.7441,977,339.7441,965" style="stroke:#1D4ED8;stroke-width:0.5;"/><ellipse cx="339.7441" cy="1054" fill="none" rx="11" ry="11" style="stroke:#222222;stroke-width:1;"/><ellipse cx="339.7441" cy="1054" fill="#222222" rx="6" ry="6" style="stroke:#222222;stroke-width:1;"/><rect fill="none" height="450" rx="8" ry="8" style="stroke:#000000;stroke-width:1.5;" width="345.916" x="836.7205" y="601"/><path d="M987.5544,601 L987.5544,608 L977.5544,618 L836.7205,618" fill="none" style="stroke:#000000;stroke-width:1.5;"/><text fill="#000000" font-family="Helvetica" font-size="14" lengthAdjust="spacing" textLength="140.834" x="839.7205" y="612.7803">Lifecycle Classification</text><rect fill="#F8FAFC" height="48" rx="8" ry="8" style="stroke:#0F172A;stroke-width:0.5;" width="280.5928" x="863.3821" y="684"/><text fill="#0F172A" font-family="Helvetica" font-size="14" lengthAdjust="spacing" textLength="240.4541" x="873.3821" y="704.7803">Request requeue while OCI remains in</text><text fill="#0F172A" font-family="Helvetica" font-size="14" lengthAdjust="spacing" textLength="260.5928" x="873.3821" y="718.7803">PROVISIONING, UPDATING, DELETING</text><ellipse cx="1003.6785" cy="770" fill="none" rx="11" ry="11" style="stroke:#222222;stroke-width:1;"/><ellipse cx="1003.6785" cy="770" fill="#222222" rx="6" ry="6" style="stroke:#222222;stroke-width:1;"/><polygon fill="#E2E8F0" points="917.3953,635,1089.9617,635,1101.9617,647,1089.9617,659,917.3953,659,905.3953,647,917.3953,635" style="stroke:#1D4ED8;stroke-width:0.5;"/><text fill="#000000" font-family="Helvetica" font-size="14" lengthAdjust="spacing" textLength="21.7861" x="1007.6785" y="669.7803">yes</text><text fill="#0F172A" font-family="Helvetica" font-size="14" lengthAdjust="spacing" textLength="172.5664" x="917.3953" y="650.7803">"OCI state in retryable set?"</text><rect fill="#F8FAFC" height="48" rx="8" ry="8" style="stroke:#0F172A;stroke-width:0.5;" width="293.916" x="856.7205" y="896"/><text fill="#0F172A" font-family="Helvetica" font-size="14" lengthAdjust="spacing" textLength="273.916" x="866.7205" y="916.7803">Return an unsuccessful reconcile result until</text><text fill="#0F172A" font-family="Helvetica" font-size="14" lengthAdjust="spacing" textLength="133.041" x="866.7205" y="930.7803">OCI reaches ACTIVE</text><ellipse cx="1003.6785" cy="990" fill="none" rx="11" ry="11" style="stroke:#222222;stroke-width:1;"/><ellipse cx="1003.6785" cy="990" fill="#222222" rx="6" ry="6" style="stroke:#222222;stroke-width:1;"/><polygon fill="#E2E8F0" points="883.1575,847,1124.1995,847,1136.1995,859,1124.1995,871,883.1575,871,871.1575,859,883.1575,847" style="stroke:#1D4ED8;stroke-width:0.5;"/><text fill="#000000" font-family="Helvetica" font-size="14" lengthAdjust="spacing" textLength="21.7861" x="1007.6785" y="881.7803">yes</text><text fill="#0F172A" font-family="Helvetica" font-size="14" lengthAdjust="spacing" textLength="241.042" x="883.1575" y="862.7803">"OCI state is outside success targets?"</text><rect fill="none" height="736.5" rx="8" ry="8" style="stroke:#000000;stroke-width:1.5;" width="582.2666" x="675.4814" y="1075"/><path d="M841.9014,1075 L841.9014,1082 L831.9014,1092 L675.4814,1092" fill="none" style="stroke:#000000;stroke-width:1.5;"/><text fill="#000000" font-family="Helvetica" font-size="14" lengthAdjust="spacing" textLength="156.4199" x="678.4814" y="1086.7803">Ready and Drift Handling</text><rect fill="#F8FAFC" height="48" rx="8" ry="8" style="stroke:#0F172A;stroke-width:0.5;" width="296.2402" x="855.5583" y="1109"/><text fill="#0F172A" font-family="Helvetica" font-size="14" lengthAdjust="spacing" textLength="276.2402" x="865.5583" y="1129.7803">Compare live OCI state against the imported</text><text fill="#0F172A" font-family="Helvetica" font-size="14" lengthAdjust="spacing" textLength="75.4824" x="865.5583" y="1143.7803">field surface</text><rect fill="#F8FAFC" height="48" rx="8" ry="8" style="stroke:#0F172A;stroke-width:0.5;" width="302.4473" x="852.4548" y="1226"/><text fill="#0F172A" font-family="Helvetica" font-size="14" lengthAdjust="spacing" textLength="282.4473" x="862.4548" y="1246.7803">Reject drift before OCI mutation for force-new</text><text fill="#0F172A" font-family="Helvetica" font-size="14" lengthAdjust="spacing" textLength="136.9512" x="862.4548" y="1260.7803">fields compartment_id</text><ellipse cx="1003.6785" cy="1306.5" fill="none" rx="11" ry="11" style="stroke:#222222;stroke-width:1;"/><ellipse cx="1003.6785" cy="1306.5" fill="#222222" rx="6" ry="6" style="stroke:#222222;stroke-width:1;"/><polygon fill="#E2E8F0" points="878.0955,1177,1129.2615,1177,1141.2615,1189,1129.2615,1201,878.0955,1201,866.0955,1189,878.0955,1177" style="stroke:#1D4ED8;stroke-width:0.5;"/><text fill="#000000" font-family="Helvetica" font-size="14" lengthAdjust="spacing" textLength="21.7861" x="1007.6785" y="1211.7803">yes</text><text fill="#0F172A" font-family="Helvetica" font-size="14" lengthAdjust="spacing" textLength="251.166" x="878.0955" y="1192.7803">"Force-new or conflicting drift detected?"</text><polygon fill="#E2E8F0" points="893.2507,1359.5,1114.1062,1359.5,1126.1062,1371.5,1114.1062,1383.5,893.2507,1383.5,881.2507,1371.5,893.2507,1359.5" style="stroke:#1D4ED8;stroke-width:0.5;"/><text fill="#0F172A" font-family="Helvetica" font-size="14" lengthAdjust="spacing" textLength="220.8555" x="893.2507" y="1375.2803">"Supported mutable drift detected?"</text><text fill="#000000" font-family="Helvetica" font-size="14" lengthAdjust="spacing" textLength="21.7861" x="859.4646" y="1368.2803">yes</text><text fill="#000000" font-family="Helvetica" font-size="14" lengthAdjust="spacing" textLength="15.5723" x="1126.1062" y="1368.2803">no</text><rect fill="#F8FAFC" height="62" rx="8" ry="8" style="stroke:#0F172A;stroke-width:0.5;" width="331.2607" x="695.4814" y="1393.5"/><text fill="#0F172A" font-family="Helvetica" font-size="14" lengthAdjust="spacing" textLength="35.0205" x="705.4814" y="1414.2803">Apply</text><text fill="#0F172A" font-family="Helvetica" font-size="14" lengthAdjust="spacing" textLength="311.2607" x="705.4814" y="1428.2803">UpdateMediaServicesStreamDistributionChannels</text><text fill="#0F172A" font-family="Helvetica" font-size="14" lengthAdjust="spacing" textLength="226.4541" x="705.4814" y="1442.2803">only for mutable fields display_name</text><rect fill="#F8FAFC" height="34" rx="8" ry="8" style="stroke:#0F172A;stroke-width:0.5;" width="199.0059" x="1046.7422" y="1393.5"/><text fill="#0F172A" font-family="Helvetica" font-size="14" lengthAdjust="spacing" textLength="179.0059" x="1056.7422" y="1414.2803">Skip the no-op mutation path</text><polygon fill="#E2E8F0" points="1003.6785,1461.5,1015.6785,1473.5,1003.6785,1485.5,991.6785,1473.5,1003.6785,1461.5" style="stroke:#1D4ED8;stroke-width:0.5;"/><rect fill="#F8FAFC" height="118" rx="8" ry="8" style="stroke:#0F172A;stroke-width:0.5;" width="334.3164" x="836.5203" y="1505.5"/><text fill="#0F172A" font-family="Helvetica" font-size="14" lengthAdjust="spacing" textLength="164.2061" x="846.5203" y="1526.2803">Run provider helper hooks</text><text fill="#0F172A" font-family="Helvetica" font-size="14" lengthAdjust="spacing" textLength="219.0508" x="846.5203" y="1540.2803">create=tfresource.CreateResource,</text><text fill="#0F172A" font-family="Helvetica" font-size="14" lengthAdjust="spacing" textLength="314.3164" x="846.5203" y="1554.2803">tfresource.WaitForWorkRequestWithErrorHandling</text><text fill="#0F172A" font-family="Helvetica" font-size="14" lengthAdjust="spacing" textLength="215.5439" x="846.5203" y="1568.2803">entity=template action=CREATED;</text><text fill="#0F172A" font-family="Helvetica" font-size="14" lengthAdjust="spacing" textLength="226.085" x="846.5203" y="1582.2803">update=tfresource.UpdateResource;</text><text fill="#0F172A" font-family="Helvetica" font-size="14" lengthAdjust="spacing" textLength="273.5537" x="846.5203" y="1596.2803">delete=tfresource.DeleteResource when the</text><text fill="#0F172A" font-family="Helvetica" font-size="14" lengthAdjust="spacing" textLength="220.2334" x="846.5203" y="1610.2803">matching field-driven path executes</text><rect fill="#F8FAFC" height="34" rx="8" ry="8" style="stroke:#0F172A;stroke-width:0.5;" width="303.2197" x="852.0686" y="1643.5"/><text fill="#0F172A" font-family="Helvetica" font-size="14" lengthAdjust="spacing" textLength="283.2197" x="862.0686" y="1664.2803">Return success for the ACTIVE success state</text><rect fill="#F8FAFC" height="48" rx="8" ry="8" style="stroke:#0F172A;stroke-width:0.5;" width="279.1299" x="864.1135" y="1697.5"/><text fill="#0F172A" font-family="Helvetica" font-size="14" lengthAdjust="spacing" textLength="259.1299" x="874.1135" y="1718.2803">Project required status and finalizer policy</text><text fill="#0F172A" font-family="Helvetica" font-size="14" lengthAdjust="spacing" textLength="174.3027" x="874.1135" y="1732.2803">retain-until-confirmed-delete</text><rect fill="#F8FAFC" height="34" rx="8" ry="8" style="stroke:#0F172A;stroke-width:0.5;" width="313.4189" x="846.969" y="1765.5"/><text fill="#0F172A" font-family="Helvetica" font-size="14" lengthAdjust="spacing" textLength="293.4189" x="856.969" y="1786.2803">Requeue on provisioning, updating, terminating</text><path d="M702.7113,1821.5 L702.7113,2039.5 L682.7113,2043.5 L702.7113,2047.5 L702.7113,2265.5 A0,0 0 0 0 702.7113,2265.5 L1133.0131,2265.5 A0,0 0 0 0 1133.0131,2265.5 L1133.0131,1831.5 L1123.0131,1821.5 L702.7113,1821.5 A0,0 0 0 0 702.7113,1821.5" fill="#FFF7D6" style="stroke:#B45309;stroke-width:0.5;"/><path d="M1123.0131,1821.5 L1123.0131,1831.5 L1133.0131,1831.5 L1123.0131,1821.5" fill="#FFF7D6" style="stroke:#B45309;stroke-width:0.5;"/><text fill="#334155" font-family="Helvetica" font-size="14" lengthAdjust="spacing" textLength="101.165" x="708.7113" y="1837.2803">shared diagram:</text><text fill="#334155" font-family="Helvetica" font-size="14" lengthAdjust="spacing" textLength="284.7852" x="708.7113" y="1851.2803">shared/diagrams/shared-reconcile-activity.svg</text><text fill="#334155" font-family="Helvetica" font-size="14" lengthAdjust="spacing" textLength="265.3438" x="708.7113" y="1865.2803">Start from the shared reconcile activity and</text><text fill="#334155" font-family="Helvetica" font-size="14" lengthAdjust="spacing" textLength="273.8955" x="708.7113" y="1879.2803">specialize provider-backed CRUD, wait, and</text><text fill="#334155" font-family="Helvetica" font-size="14" lengthAdjust="spacing" textLength="182.875" x="708.7113" y="1893.2803">status-projection details here.</text><text fill="#334155" font-family="Helvetica" font-size="14" lengthAdjust="spacing" textLength="229.5371" x="708.7113" y="1907.2803">Controller-local activity diagrams add</text><text fill="#334155" font-family="Helvetica" font-size="14" lengthAdjust="spacing" textLength="238.8955" x="708.7113" y="1921.2803">list-lookup hints, secret policies, delete</text><text fill="#334155" font-family="Helvetica" font-size="14" lengthAdjust="spacing" textLength="200.0332" x="708.7113" y="1935.2803">handling, and open formal gaps.</text><text fill="#334155" font-family="Helvetica" font-size="14" lengthAdjust="spacing" textLength="281.709" x="708.7113" y="1949.2803">archetype batch: Generated service-manager</text><text fill="#334155" font-family="Helvetica" font-size="14" lengthAdjust="spacing" textLength="291.0469" x="708.7113" y="1963.2803">controllers specialize the shared reconcile path</text><text fill="#334155" font-family="Helvetica" font-size="14" lengthAdjust="spacing" textLength="189.8477" x="708.7113" y="1977.2803">with formal runtime ownership.</text><text fill="#334155" font-family="Helvetica" font-size="14" lengthAdjust="spacing" textLength="141.5996" x="708.7113" y="1991.2803">service: mediaservices</text><text fill="#334155" font-family="Helvetica" font-size="14" lengthAdjust="spacing" textLength="289.4678" x="708.7113" y="2005.2803">slug: mediaservicesstreamdistributionchannels</text><text fill="#334155" font-family="Helvetica" font-size="14" lengthAdjust="spacing" textLength="299.5781" x="708.7113" y="2019.2803">kind: MediaServicesStreamDistributionChannels</text><text fill="#334155" font-family="Helvetica" font-size="14" lengthAdjust="spacing" textLength="241.2402" x="708.7113" y="2033.2803">archetype: generated-service-manager</text><text fill="#334155" font-family="Helvetica" font-size="14" lengthAdjust="spacing" textLength="156.4063" x="708.7113" y="2047.2803">status/finalizer: required /</text><text fill="#334155" font-family="Helvetica" font-size="14" lengthAdjust="spacing" textLength="174.3027" x="708.7113" y="2061.2803">retain-until-confirmed-delete</text><text fill="#334155" font-family="Helvetica" font-size="14" lengthAdjust="spacing" textLength="272.3984" x="708.7113" y="2075.2803">requeue: provisioning, updating, terminating</text><text fill="#334155" font-family="Helvetica" font-size="14" lengthAdjust="spacing" textLength="295.6816" x="708.7113" y="2089.2803">provider states: create PROVISIONING; update</text><text fill="#334155" font-family="Helvetica" font-size="14" lengthAdjust="spacing" textLength="192.165" x="708.7113" y="2103.2803">UPDATING; delete DELETING</text><text fill="#334155" font-family="Helvetica" font-size="14" lengthAdjust="spacing" textLength="183.6611" x="708.7113" y="2117.2803">supported drift: display_name</text><text fill="#334155" font-family="Helvetica" font-size="14" lengthAdjust="spacing" textLength="230.3301" x="708.7113" y="2131.2803">reject before mutate: force-new fields</text><text fill="#334155" font-family="Helvetica" font-size="14" lengthAdjust="spacing" textLength="100.3789" x="708.7113" y="2145.2803">compartment_id</text><text fill="#334155" font-family="Helvetica" font-size="14" lengthAdjust="spacing" textLength="66.1445" x="708.7113" y="2159.2803">list lookup:</text><text fill="#334155" font-family="Helvetica" font-size="14" lengthAdjust="spacing" textLength="409.3018" x="708.7113" y="2173.2803">scaffold_mediaservices_mediaservicesstreamdistributionchannels</text><text fill="#334155" font-family="Helvetica" font-size="14" lengthAdjust="spacing" textLength="175.8477" x="708.7113" y="2187.2803">filters compartment_id, state</text><text fill="#334155" font-family="Helvetica" font-size="14" lengthAdjust="spacing" textLength="89.4961" x="708.7113" y="2201.2803">conflicts: none</text><text fill="#334155" font-family="Helvetica" font-size="14" lengthAdjust="spacing" textLength="104.3164" x="708.7113" y="2215.2803">open gaps: none</text><text fill="#334155" font-family="Helvetica" font-size="14" lengthAdjust="spacing" textLength="224.9023" x="708.7113" y="2229.2803">Scaffold metadata only; replace with</text><text fill="#334155" font-family="Helvetica" font-size="14" lengthAdjust="spacing" textLength="244.3232" x="708.7113" y="2243.2803">controller-specific runtime states before</text><text fill="#334155" font-family="Helvetica" font-size="14" lengthAdjust="spacing" textLength="66.1445" x="708.7113" y="2257.2803">promotion.</text><ellipse cx="671.7113" cy="2043.5" fill="none" rx="11" ry="11" style="stroke:#222222;stroke-width:1;"/><ellipse cx="671.7113" cy="2043.5" fill="#222222" rx="6" ry="6" style="stroke:#222222;stroke-width:1;"/><line style="stroke:#0F172A;stroke-width:1;" x1="671.7113" x2="671.7113" y1="157" y2="177"/><polygon fill="#0F172A" points="667.7113,167,671.7113,177,675.7113,167,671.7113,171" style="stroke:#0F172A;stroke-width:1;"/><line style="stroke:#0F172A;stroke-width:1;" x1="840.9159" x2="840.9159" y1="355" y2="375"/><polygon fill="#0F172A" points="836.9159,365,840.9159,375,844.9159,365,840.9159,369" style="stroke:#0F172A;stroke-width:1;"/><line style="stroke:#0F172A;stroke-width:1;" x1="840.9159" x2="840.9159" y1="437" y2="457"/><polygon fill="#0F172A" points="836.9159,447,840.9159,457,844.9159,447,840.9159,451" style="stroke:#0F172A;stroke-width:1;"/><line style="stroke:#0F172A;stroke-width:1;" x1="530.2455" x2="502.5067" y1="271" y2="271"/><line style="stroke:#0F172A;stroke-width:1;" x1="502.5067" x2="502.5067" y1="271" y2="293"/><polygon fill="#0F172A" points="498.5067,283,502.5067,293,506.5067,283,502.5067,287" style="stroke:#0F172A;stroke-width:1;"/><line style="stroke:#0F172A;stroke-width:1;" x1="813.1771" x2="840.9159" y1="271" y2="271"/><line style="stroke:#0F172A;stroke-width:1;" x1="840.9159" x2="840.9159" y1="271" y2="293"/><polygon fill="#0F172A" points="836.9159,283,840.9159,293,844.9159,283,840.9159,287" style="stroke:#0F172A;stroke-width:1;"/><line style="stroke:#0F172A;stroke-width:1;" x1="502.5067" x2="502.5067" y1="341" y2="523"/><line style="stroke:#0F172A;stroke-width:1;" x1="502.5067" x2="659.7113" y1="523" y2="523"/><polygon fill="#0F172A" points="649.7113,519,659.7113,523,649.7113,527,653.7113,523" style="stroke:#0F172A;stroke-width:1;"/><line style="stroke:#0F172A;stroke-width:1;" x1="840.9159" x2="840.9159" y1="505" y2="523"/><line style="stroke:#0F172A;stroke-width:1;" x1="840.9159" x2="683.7113" y1="523" y2="523"/><polygon fill="#0F172A" points="693.7113,519,683.7113,523,693.7113,527,689.7113,523" style="stroke:#0F172A;stroke-width:1;"/><line style="stroke:#0F172A;stroke-width:1;" x1="671.7113" x2="671.7113" y1="239" y2="259"/><polygon fill="#0F172A" points="667.7113,249,671.7113,259,675.7113,249,671.7113,253" style="stroke:#0F172A;stroke-width:1;"/><line style="stroke:#0F172A;stroke-width:1;" x1="671.7113" x2="671.7113" y1="65" y2="109"/><polygon fill="#0F172A" points="667.7113,99,671.7113,109,675.7113,99,671.7113,103" style="stroke:#0F172A;stroke-width:1;"/><line style="stroke:#0F172A;stroke-width:1;" x1="339.7441" x2="339.7441" y1="739" y2="766"/><polygon fill="#0F172A" points="335.7441,756,339.7441,766,343.7441,756,339.7441,760" style="stroke:#0F172A;stroke-width:1;"/><line style="stroke:#0F172A;stroke-width:1;" x1="179.5718" x2="169.5718" y1="889" y2="889"/><line style="stroke:#0F172A;stroke-width:1;" x1="169.5718" x2="169.5718" y1="889" y2="911"/><polygon fill="#0F172A" points="165.5718,901,169.5718,911,173.5718,901,169.5718,905" style="stroke:#0F172A;stroke-width:1;"/><line style="stroke:#0F172A;stroke-width:1;" x1="499.9165" x2="509.9165" y1="889" y2="889"/><line style="stroke:#0F172A;stroke-width:1;" x1="509.9165" x2="509.9165" y1="889" y2="911"/><polygon fill="#0F172A" points="505.9165,901,509.9165,911,513.9165,901,509.9165,905" style="stroke:#0F172A;stroke-width:1;"/><line style="stroke:#0F172A;stroke-width:1;" x1="169.5718" x2="169.5718" y1="945" y2="977"/><line style="stroke:#0F172A;stroke-width:1;" x1="169.5718" x2="327.7441" y1="977" y2="977"/><polygon fill="#0F172A" points="317.7441,973,327.7441,977,317.7441,981,321.7441,977" style="stroke:#0F172A;stroke-width:1;"/><line style="stroke:#0F172A;stroke-width:1;" x1="509.9165" x2="509.9165" y1="959" y2="977"/><line style="stroke:#0F172A;stroke-width:1;" x1="509.9165" x2="351.7441" y1="977" y2="977"/><polygon fill="#0F172A" points="361.7441,973,351.7441,977,361.7441,981,357.7441,977" style="stroke:#0F172A;stroke-width:1;"/><line style="stroke:#0F172A;stroke-width:1;" x1="339.7441" x2="339.7441" y1="842" y2="877"/><polygon fill="#0F172A" points="335.7441,867,339.7441,877,343.7441,867,339.7441,871" style="stroke:#0F172A;stroke-width:1;"/><line style="stroke:#0F172A;stroke-width:1;" x1="339.7441" x2="339.7441" y1="989" y2="1043"/><polygon fill="#0F172A" points="335.7441,1033,339.7441,1043,343.7441,1033,339.7441,1037" style="stroke:#0F172A;stroke-width:1;"/><line style="stroke:#0F172A;stroke-width:1;" x1="1003.6785" x2="1003.6785" y1="732" y2="759"/><polygon fill="#0F172A" points="999.6785,749,1003.6785,759,1007.6785,749,1003.6785,753" style="stroke:#0F172A;stroke-width:1;"/><line style="stroke:#0F172A;stroke-width:1;" x1="1003.6785" x2="1003.6785" y1="659" y2="684"/><polygon fill="#0F172A" points="999.6785,674,1003.6785,684,1007.6785,674,1003.6785,678" style="stroke:#0F172A;stroke-width:1;"/><line style="stroke:#0F172A;stroke-width:1;" x1="1101.9617" x2="1153.9749" y1="647" y2="647"/><polygon fill="#0F172A" points="1149.9749,723.5,1153.9749,733.5,1157.9749,723.5,1153.9749,727.5" style="stroke:#0F172A;stroke-width:1;"/><line style="stroke:#0F172A;stroke-width:1;" x1="1153.9749" x2="1153.9749" y1="647" y2="812"/><line style="stroke:#0F172A;stroke-width:1;" x1="1153.9749" x2="1003.6785" y1="812" y2="812"/><line style="stroke:#0F172A;stroke-width:1;" x1="1003.6785" x2="1003.6785" y1="812" y2="847"/><polygon fill="#0F172A" points="999.6785,837,1003.6785,847,1007.6785,837,1003.6785,841" style="stroke:#0F172A;stroke-width:1;"/><line style="stroke:#0F172A;stroke-width:1;" x1="1003.6785" x2="1003.6785" y1="944" y2="979"/><polygon fill="#0F172A" points="999.6785,969,1003.6785,979,1007.6785,969,1003.6785,973" style="stroke:#0F172A;stroke-width:1;"/><line style="stroke:#0F172A;stroke-width:1;" x1="1003.6785" x2="1003.6785" y1="871" y2="896"/><polygon fill="#0F172A" points="999.6785,886,1003.6785,896,1007.6785,886,1003.6785,890" style="stroke:#0F172A;stroke-width:1;"/><line style="stroke:#0F172A;stroke-width:1;" x1="1136.1995" x2="1160.6365" y1="859" y2="859"/><polygon fill="#0F172A" points="1156.6365,935.5,1160.6365,945.5,1164.6365,935.5,1160.6365,939.5" style="stroke:#0F172A;stroke-width:1;"/><line style="stroke:#0F172A;stroke-width:1;" x1="1160.6365" x2="1160.6365" y1="859" y2="1031"/><line style="stroke:#0F172A;stroke-width:1;" x1="1160.6365" x2="1003.6785" y1="1031" y2="1031"/><line style="stroke:#0F172A;stroke-width:1;" x1="1003.6785" x2="1003.6785" y1="1031" y2="1109"/><polygon fill="#0F172A" points="999.6785,1099,1003.6785,1109,1007.6785,1099,1003.6785,1103" style="stroke:#0F172A;stroke-width:1;"/><line style="stroke:#0F172A;stroke-width:1;" x1="1003.6785" x2="1003.6785" y1="1274" y2="1295.5"/><polygon fill="#0F172A" points="999.6785,1285.5,1003.6785,1295.5,1007.6785,1285.5,1003.6785,1289.5" style="stroke:#0F172A;stroke-width:1;"/><line style="stroke:#0F172A;stroke-width:1;" x1="1003.6785" x2="1003.6785" y1="1201" y2="1226"/><polygon fill="#0F172A" points="999.6785,1216,1003.6785,1226,1007.6785,1216,1003.6785,1220" style="stroke:#0F172A;stroke-width:1;"/><line style="stroke:#0F172A;stroke-width:1;" x1="1141.2615" x2="1164.9021" y1="1189" y2="1189"/><polygon fill="#0F172A" points="1160.9021,1265.5,1164.9021,1275.5,1168.9021,1265.5,1164.9021,1269.5" style="stroke:#0F172A;stroke-width:1;"/><line style="stroke:#0F172A;stroke-width:1;" x1="1164.9021" x2="1164.9021" y1="1189" y2="1339.5"/><line style="stroke:#0F172A;stroke-width:1;" x1="1164.9021" x2="1003.6785" y1="1339.5" y2="1339.5"/><line style="stroke:#0F172A;stroke-width:1;" x1="1003.6785" x2="1003.6785" y1="1339.5" y2="1359.5"/><polygon fill="#0F172A" points="999.6785,1349.5,1003.6785,1359.5,1007.6785,1349.5,1003.6785,1353.5" style="stroke:#0F172A;stroke-width:1;"/><line style="stroke:#0F172A;stroke-width:1;" x1="1003.6785" x2="1003.6785" y1="1157" y2="1177"/><polygon fill="#0F172A" points="999.6785,1167,1003.6785,1177,1007.6785,1167,1003.6785,1171" style="stroke:#0F172A;stroke-width:1;"/><line style="stroke:#0F172A;stroke-width:1;" x1="881.2507" x2="861.1118" y1="1371.5" y2="1371.5"/><line style="stroke:#0F172A;stroke-width:1;" x1="861.1118" x2="861.1118" y1="1371.5" y2="1393.5"/><polygon fill="#0F172A" points="857.1118,1383.5,861.1118,1393.5,865.1118,1383.5,861.1118,1387.5" style="stroke:#0F172A;stroke-width:1;"/><line style="stroke:#0F172A;stroke-width:1;" x1="1126.1062" x2="1146.2451" y1="1371.5" y2="1371.5"/><line style="stroke:#0F172A;stroke-width:1;" x1="1146.2451" x2="1146.2451" y1="1371.5" y2="1393.5"/><polygon fill="#0F172A" points="1142.2451,1383.5,1146.2451,1393.5,1150.2451,1383.5,1146.2451,1387.5" style="stroke:#0F172A;stroke-width:1;"/><line style="stroke:#0F172A;stroke-width:1;" x1="861.1118" x2="861.1118" y1="1455.5" y2="1473.5"/><line style="stroke:#0F172A;stroke-width:1;" x1="861.1118" x2="991.6785" y1="1473.5" y2="1473.5"/><polygon fill="#0F172A" points="981.6785,1469.5,991.6785,1473.5,981.6785,1477.5,985.6785,1473.5" style="stroke:#0F172A;stroke-width:1;"/><line style="stroke:#0F172A;stroke-width:1;" x1="1146.2451" x2="1146.2451" y1="1427.5" y2="1473.5"/><line style="stroke:#0F172A;stroke-width:1;" x1="1146.2451" x2="1015.6785" y1="1473.5" y2="1473.5"/><polygon fill="#0F172A" points="1025.6785,1469.5,1015.6785,1473.5,1025.6785,1477.5,1021.6785,1473.5" style="stroke:#0F172A;stroke-width:1;"/><line style="stroke:#0F172A;stroke-width:1;" x1="1003.6785" x2="1003.6785" y1="1485.5" y2="1505.5"/><polygon fill="#0F172A" points="999.6785,1495.5,1003.6785,1505.5,1007.6785,1495.5,1003.6785,1499.5" style="stroke:#0F172A;stroke-width:1;"/><line style="stroke:#0F172A;stroke-width:1;" x1="1003.6785" x2="1003.6785" y1="1623.5" y2="1643.5"/><polygon fill="#0F172A" points="999.6785,1633.5,1003.6785,1643.5,1007.6785,1633.5,1003.6785,1637.5" style="stroke:#0F172A;stroke-width:1;"/><line style="stroke:#0F172A;stroke-width:1;" x1="1003.6785" x2="1003.6785" y1="1677.5" y2="1697.5"/><polygon fill="#0F172A" points="999.6785,1687.5,1003.6785,1697.5,1007.6785,1687.5,1003.6785,1691.5" style="stroke:#0F172A;stroke-width:1;"/><line style="stroke:#0F172A;stroke-width:1;" x1="1003.6785" x2="1003.6785" y1="1745.5" y2="1765.5"/><polygon fill="#0F172A" points="999.6785,1755.5,1003.6785,1765.5,1007.6785,1755.5,1003.6785,1759.5" style="stroke:#0F172A;stroke-width:1;"/><line style="stroke:#0F172A;stroke-width:1;" x1="597.535" x2="339.7441" y1="579" y2="579"/><line style="stroke:#0F172A;stroke-width:1;" x1="339.7441" x2="339.7441" y1="579" y2="635"/><polygon fill="#0F172A" points="335.7441,625,339.7441,635,343.7441,625,339.7441,629" style="stroke:#0F172A;stroke-width:1;"/><line style="stroke:#0F172A;stroke-width:1;" x1="745.8876" x2="1003.6785" y1="579" y2="579"/><line style="stroke:#0F172A;stroke-width:1;" x1="1003.6785" x2="1003.6785" y1="579" y2="635"/><polygon fill="#0F172A" points="999.6785,625,1003.6785,635,1007.6785,625,1003.6785,629" style="stroke:#0F172A;stroke-width:1;"/><line style="stroke:#0F172A;stroke-width:1;" x1="1003.6785" x2="1003.6785" y1="1799.5" y2="1816.5"/><line style="stroke:#0F172A;stroke-width:1;" x1="1003.6785" x2="671.7113" y1="1816.5" y2="1816.5"/><line style="stroke:#0F172A;stroke-width:1;" x1="671.7113" x2="671.7113" y1="1816.5" y2="2032.5"/><polygon fill="#0F172A" points="667.7113,2022.5,671.7113,2032.5,675.7113,2022.5,671.7113,2026.5" style="stroke:#0F172A;stroke-width:1;"/><line style="stroke:#0F172A;stroke-width:1;" x1="671.7113" x2="671.7113" y1="535" y2="567"/><polygon fill="#0F172A" points="667.7113,557,671.7113,567,675.7113,557,671.7113,561" style="stroke:#0F172A;stroke-width:1;"/><?plantuml-src jLVRRjiu47tNLn3PbnQ8asQRNjP6iKYTj0tGRO8uRLyC1BGqihcXI2r9sUjTzD_ty29PTeB2ULWKRIrnE9mvS-PmPE-5ghdX5RCBNkYLK7DMScafiztAZEVtSwCRLOorr8RzKkRuK_Gi2Yfv8zq7hTmNNX7xH799JkJySPk9-8VOoMblaHkZLydxY_BapQ_zdKexUlyWXh9yKxpUjTAc89CiPgUlNhxuRSV27v_MNxuyFNdrghSUtEVQA3Biv7NcX9F4pd8dbiAjsO1LL0XkoIn5JlRu3_yqIKyJPuXNvy8w8sQD4rgD5rmfahQVPElgtumz0khRafUvN-adaS1WhDm4thr309LMnGDiw5TwMxxe6VGzdXIdLBpTB7vunB5rtBXTU-hyTtOplkFrHnQsPaWOy046Td0ryv0HuwfWxuKg3f3-SEAjM6bqu9sXWfLIhwOgFXmZj3aGiyVnUM0eroeNaWOjXaTsEHzbmnlY1PXb1QocQi-IC5jJVZXLpW0u78sGNMCFGuG5INB4X7Aat2WJ9NjsS9lia2VzNKkH2yUknfTC5B3nzQmDMVpy_U0vSmjIxDcQxFDi-96SVsPvOmoMmnvOwiRan9Q2JnKizenvbE4VOi-KVkwpjbe6I14GZ7tJRZbt2z1XlfYgprZTyuIfQcpeVY4T6SjoNVagLeZyJXI70IK2v6CuS1GIUvXGNDpxn9L7IsauQIoVeTigxl854nPq1vrnsZL2mTPmd8bfXqBauQ1YgmvJXRBfL4u0fWfHWf6XXkUnheR-QiXYuqwjUdoDbe6bQLFDtO8rbX1mVBD_VW8x_PcUdqyjET9yKW6PqmZmulF5xSKvggTAOG0d37pHucEajq_pVuu5P499P688pnTaMGfjj5MGN19NJHrwhnIAIrmD1blm6dItJPxJWsA1_vLUHWfkzl0Ij6txrvCtPhhLE92TDPj97TevHjW604vrlgPg9u0UcwpJTSzbZpYVHKdv6lxOM79hHOdxpwzuAeMKFHYXYo0lID6PTU2y9VSmmK3JIDU6s6e1xKjWLbme2mzJTNrpzUroSddrvVBBnqFszVhyx3Ry2a3ZroW56oBVZG0bRPn5wyGSBUZ3pPoSVHYBQupoMjEeP5esadMIxDiIztg4Swhw5JyRtrv-kzWAuqSVCQ_Uwr3wSoDAnpxXfuG6XUOR1_qX9iKofXu3vtEVVnG4KTNQEA_yfI098MzCoNDA3FkW8Ki3HQkW5sW0A7UGoY8SLe0dkNkCN7_YVJAQKQbDFBvgN2WdfCdulz5tEdfNBXz2Fsdg66nmvEl-yp3Ewbf2qRxMnLC4LIkv3W6sXwJe2c5hoTTt2jFPTaVSYpfWgVH0rvialUQrf1_UD7XXz19iCMn1ilR_QNsF0wCEltDbUmySnIlW9ZtwQtQpzfqB383ckpRtYUBVeP0N6FvCM_kfYcB-pX5QE5Gyzn6z6zzSd7dvWBG4JFfdHfJQCs4IPQ1l4lMcDM7Xva7UKnMkd7Zn0Qe1ghAac3ykLyeRHtRKTK7RAnvYZrfaUFUwlIElZGuawgG_taaxAbThC7BjnSQ1quFGG8Cat1XwOWwZf0PG0PsgO0470Zva0OZm2z9NmQz_6A77Ojq21VtGouoOBroM9gqqN0sp9mrRMMzayvadPniPwAPR99dv2Kk4D3lY36PnYXhVV3q_P2imuJ2Q1cW6TOJCSw_mUE3EMP2XemnNbpDQIdY0S7EvEQWDdF6Yo2Jw0GRw7bgESZhCSvR0JXTX5eGN4T5iaQWM9pvTK-Zf2gxdlBP76JTGBxUk2VCjk35a7mcV167SIDF_eEAApybaUHTSd2fJpey2v2cLXOaWdMPynV6rf5TmRnUYFigI_-7sjqPcPJFVUMU32XGz5SZRBmvyS1H3jk_tIPVjaCtRF0UxUSOY7NVS7MweVPpzbBzPkiE6-t0twrGcT98TfZcFzQ-wKTnBMNlZZTfRlxtuCjk9RH3PuPR-8QBGd4dRW-GXl4xIasPcsueU2COYmT0wEIzBBOkxhPhSxLkXdyxOMNjN8Nq8EcM1ePwQwNcI3WSX70SId7dP7w4aoD5h6pZMO-OW41FJI4Uu26u2m6DUQH_UaTUDy9Ny7m00?></g></svg>