<?plantuml 1.2026.1?><svg xmlns="http://www.w3.org/2000/svg" xmlns:xlink="http://www.w3.org/1999/xlink" contentStyleType="text/css" data-diagram-type="ACTIVITY" height="2249px" preserveAspectRatio="none" style="width:1271px;height:2249px;background:#FCFCFD;" version="1.1" viewBox="0 0 1271 2249" width="1271px" zoomAndPan="magnify"><title>Activity - databasemanagement/DatabaseManagementCloudClusters</title><defs/><g><rect fill="#FCFCFD" height="2249" style="stroke:none;stroke-width:1;" width="1271" x="0" y="0"/><g class="title" data-source-line="10"><text fill="#000000" font-family="Helvetica" font-size="14" font-weight="bold" lengthAdjust="spacing" textLength="457.4609" x="405.3262" y="30.7803">Activity - databasemanagement/DatabaseManagementCloudClusters</text></g><ellipse cx="672.5983" cy="55" fill="#1D4ED8" rx="10" ry="10" style="stroke:#222222;stroke-width:1;"/><rect fill="none" height="458" rx="8" ry="8" style="stroke:#000000;stroke-width:1.5;" width="680.5488" x="351.3927" y="75"/><path d="M473.4611,75 L473.4611,82 L463.4611,92 L351.3927,92" fill="none" style="stroke:#000000;stroke-width:1.5;"/><text fill="#000000" font-family="Helvetica" font-size="14" lengthAdjust="spacing" textLength="112.0684" x="354.3927" y="86.7803">Observe and Bind</text><rect fill="#F8FAFC" height="48" rx="8" ry="8" style="stroke:#0F172A;stroke-width:0.5;" width="304.7852" x="520.2057" y="109"/><text fill="#0F172A" font-family="Helvetica" font-size="14" lengthAdjust="spacing" textLength="136.9375" x="530.2057" y="129.7803">Start from shared flow</text><text fill="#0F172A" font-family="Helvetica" font-size="14" lengthAdjust="spacing" textLength="284.7852" x="530.2057" y="143.7803">shared/diagrams/shared-reconcile-activity.svg</text><rect fill="#F8FAFC" height="48" rx="8" ry="8" style="stroke:#0F172A;stroke-width:0.5;" width="336.7363" x="504.2301" y="177"/><text fill="#0F172A" font-family="Helvetica" font-size="14" lengthAdjust="spacing" textLength="316.7363" x="514.2301" y="197.7803">Read desired DatabaseManagementCloudClusters</text><text fill="#0F172A" font-family="Helvetica" font-size="14" lengthAdjust="spacing" textLength="235.8125" x="514.2301" y="211.7803">spec, tracked status, and delete intent</text><polygon fill="#E2E8F0" points="543.1324,245,802.0641,245,814.0641,257,802.0641,269,543.1324,269,531.1324,257,543.1324,245" style="stroke:#1D4ED8;stroke-width:0.5;"/><text fill="#0F172A" font-family="Helvetica" font-size="14" lengthAdjust="spacing" textLength="258.9316" x="543.1324" y="260.7803">"Tracked or explicit OCI identity present?"</text><text fill="#000000" font-family="Helvetica" font-size="14" lengthAdjust="spacing" textLength="21.7861" x="509.3463" y="253.7803">yes</text><text fill="#000000" font-family="Helvetica" font-size="14" lengthAdjust="spacing" textLength="15.5723" x="814.0641" y="253.7803">no</text><rect fill="#F8FAFC" height="48" rx="8" ry="8" style="stroke:#0F172A;stroke-width:0.5;" width="272.1367" x="371.3927" y="279"/><text fill="#0F172A" font-family="Helvetica" font-size="14" lengthAdjust="spacing" textLength="202.3027" x="381.3927" y="299.7803">Get the current OCI resource via</text><text fill="#0F172A" font-family="Helvetica" font-size="14" lengthAdjust="spacing" textLength="252.1367" x="381.3927" y="313.7803">GetDatabaseManagementCloudClusters</text><rect fill="#F8FAFC" height="62" rx="8" ry="8" style="stroke:#0F172A;stroke-width:0.5;" width="308.7158" x="683.3776" y="279"/><text fill="#0F172A" font-family="Helvetica" font-size="14" lengthAdjust="spacing" textLength="259.9092" x="693.3776" y="299.7803">Resolve an existing OCI resource through</text><text fill="#0F172A" font-family="Helvetica" font-size="14" lengthAdjust="spacing" textLength="288.7158" x="693.3776" y="313.7803">ListDatabaseManagementCloudClusters using</text><text fill="#0F172A" font-family="Helvetica" font-size="14" lengthAdjust="spacing" textLength="175.8477" x="693.3776" y="327.7803">filters compartment_id, state</text><rect fill="#F8FAFC" height="62" rx="8" ry="8" style="stroke:#0F172A;stroke-width:0.5;" width="348.4121" x="663.5294" y="361"/><text fill="#0F172A" font-family="Helvetica" font-size="14" lengthAdjust="spacing" textLength="174.2959" x="673.5294" y="381.7803">Create the OCI resource via</text><text fill="#0F172A" font-family="Helvetica" font-size="14" lengthAdjust="spacing" textLength="328.4121" x="673.5294" y="395.7803">CreateDatabaseManagementCloudClusters when no</text><text fill="#0F172A" font-family="Helvetica" font-size="14" lengthAdjust="spacing" textLength="148.6406" x="673.5294" y="409.7803">reusable match is found</text><rect fill="#F8FAFC" height="48" rx="8" ry="8" style="stroke:#0F172A;stroke-width:0.5;" width="286.8955" x="694.2877" y="443"/><text fill="#0F172A" font-family="Helvetica" font-size="14" lengthAdjust="spacing" textLength="266.8955" x="704.2877" y="463.7803">Persist the resolved or created OCI identity</text><text fill="#0F172A" font-family="Helvetica" font-size="14" lengthAdjust="spacing" textLength="63.8135" x="704.2877" y="477.7803">into status</text><polygon fill="#E2E8F0" points="672.5983,497,684.5983,509,672.5983,521,660.5983,509,672.5983,497" style="stroke:#1D4ED8;stroke-width:0.5;"/><polygon fill="#E2E8F0" points="610.422,553,734.7745,553,746.7745,565,734.7745,577,610.422,577,598.422,565,610.422,553" style="stroke:#1D4ED8;stroke-width:0.5;"/><text fill="#0F172A" font-family="Helvetica" font-size="14" lengthAdjust="spacing" textLength="124.3525" x="610.422" y="568.7803">"Delete requested?"</text><text fill="#000000" font-family="Helvetica" font-size="14" lengthAdjust="spacing" textLength="21.7861" x="576.6359" y="561.7803">yes</text><text fill="#000000" font-family="Helvetica" font-size="14" lengthAdjust="spacing" textLength="15.5723" x="746.7745" y="561.7803">no</text><rect fill="none" height="408" rx="8" ry="8" style="stroke:#000000;stroke-width:1.5;" width="644.4814" x="11" y="587"/><path d="M61.4688,587 L61.4688,594 L51.4688,604 L11,604" fill="none" style="stroke:#000000;stroke-width:1.5;"/><text fill="#000000" font-family="Helvetica" font-size="14" lengthAdjust="spacing" textLength="40.4688" x="14" y="598.7803">Delete</text><rect fill="#F8FAFC" height="104" rx="8" ry="8" style="stroke:#0F172A;stroke-width:0.5;" width="355.3848" x="162.0518" y="621"/><text fill="#0F172A" font-family="Helvetica" font-size="14" lengthAdjust="spacing" textLength="105.0684" x="172.0518" y="641.7803">Delete path uses</text><text fill="#0F172A" font-family="Helvetica" font-size="14" lengthAdjust="spacing" textLength="298.8262" x="172.0518" y="655.7803">DeleteDatabaseManagementCloudClusters with</text><text fill="#0F172A" font-family="Helvetica" font-size="14" lengthAdjust="spacing" textLength="73.1514" x="172.0518" y="669.7803">required via</text><text fill="#0F172A" font-family="Helvetica" font-size="14" lengthAdjust="spacing" textLength="268.4746" x="172.0518" y="683.7803">GetDatabaseManagementCloudClusters or</text><text fill="#0F172A" font-family="Helvetica" font-size="14" lengthAdjust="spacing" textLength="335.3848" x="172.0518" y="697.7803">ListDatabaseManagementCloudClusters to DELETED</text><text fill="#0F172A" font-family="Helvetica" font-size="14" lengthAdjust="spacing" textLength="76.2549" x="172.0518" y="711.7803">confirmation</text><rect fill="#F8FAFC" height="76" rx="8" ry="8" style="stroke:#0F172A;stroke-width:0.5;" width="329.709" x="174.8896" y="752"/><text fill="#0F172A" font-family="Helvetica" font-size="14" lengthAdjust="spacing" textLength="123.7236" x="184.8896" y="772.7803">Confirm deletion via</text><text fill="#0F172A" font-family="Helvetica" font-size="14" lengthAdjust="spacing" textLength="268.4746" x="184.8896" y="786.7803">GetDatabaseManagementCloudClusters or</text><text fill="#0F172A" font-family="Helvetica" font-size="14" lengthAdjust="spacing" textLength="309.709" x="184.8896" y="800.7803">ListDatabaseManagementCloudClusters until OCI</text><text fill="#0F172A" font-family="Helvetica" font-size="14" lengthAdjust="spacing" textLength="118.2686" x="184.8896" y="814.7803">reaches DELETED</text><polygon fill="#E2E8F0" points="191.5718,863,487.9165,863,499.9165,875,487.9165,887,191.5718,887,179.5718,875,191.5718,863" style="stroke:#1D4ED8;stroke-width:0.5;"/><text fill="#0F172A" font-family="Helvetica" font-size="14" lengthAdjust="spacing" textLength="296.3447" x="191.5718" y="878.7803">"Delete cleanup and finalizer release succeed?"</text><text fill="#000000" font-family="Helvetica" font-size="14" lengthAdjust="spacing" textLength="21.7861" x="157.7856" y="871.7803">yes</text><text fill="#000000" font-family="Helvetica" font-size="14" lengthAdjust="spacing" textLength="15.5723" x="499.9165" y="871.7803">no</text><rect fill="#F8FAFC" height="34" rx="8" ry="8" style="stroke:#0F172A;stroke-width:0.5;" width="293.1436" x="23" y="897"/><text fill="#0F172A" font-family="Helvetica" font-size="14" lengthAdjust="spacing" textLength="273.1436" x="33" y="917.7803">Remove the finalizer after delete completion</text><rect fill="#F8FAFC" height="48" rx="8" ry="8" style="stroke:#0F172A;stroke-width:0.5;" width="251.1299" x="384.3516" y="897"/><text fill="#0F172A" font-family="Helvetica" font-size="14" lengthAdjust="spacing" textLength="231.1299" x="394.3516" y="917.7803">Stay blocked until cleanup or finalizer</text><text fill="#0F172A" font-family="Helvetica" font-size="14" lengthAdjust="spacing" textLength="108.9512" x="394.3516" y="931.7803">release succeeds</text><polygon fill="#E2E8F0" points="339.7441,951,351.7441,963,339.7441,975,327.7441,963,339.7441,951" style="stroke:#1D4ED8;stroke-width:0.5;"/><ellipse cx="339.7441" cy="1040" fill="none" rx="11" ry="11" style="stroke:#222222;stroke-width:1;"/><ellipse cx="339.7441" cy="1040" fill="#222222" rx="6" ry="6" style="stroke:#222222;stroke-width:1;"/><rect fill="none" height="450" rx="8" ry="8" style="stroke:#000000;stroke-width:1.5;" width="345.916" x="838.4944" y="587"/><path d="M989.3284,587 L989.3284,594 L979.3284,604 L838.4944,604" fill="none" style="stroke:#000000;stroke-width:1.5;"/><text fill="#000000" font-family="Helvetica" font-size="14" lengthAdjust="spacing" textLength="140.834" x="841.4944" y="598.7803">Lifecycle Classification</text><rect fill="#F8FAFC" height="48" rx="8" ry="8" style="stroke:#0F172A;stroke-width:0.5;" width="280.5928" x="865.156" y="670"/><text fill="#0F172A" font-family="Helvetica" font-size="14" lengthAdjust="spacing" textLength="240.4541" x="875.156" y="690.7803">Request requeue while OCI remains in</text><text fill="#0F172A" font-family="Helvetica" font-size="14" lengthAdjust="spacing" textLength="260.5928" x="875.156" y="704.7803">PROVISIONING, UPDATING, DELETING</text><ellipse cx="1005.4524" cy="756" fill="none" rx="11" ry="11" style="stroke:#222222;stroke-width:1;"/><ellipse cx="1005.4524" cy="756" fill="#222222" rx="6" ry="6" style="stroke:#222222;stroke-width:1;"/><polygon fill="#E2E8F0" points="919.1692,621,1091.7356,621,1103.7356,633,1091.7356,645,919.1692,645,907.1692,633,919.1692,621" style="stroke:#1D4ED8;stroke-width:0.5;"/><text fill="#000000" font-family="Helvetica" font-size="14" lengthAdjust="spacing" textLength="21.7861" x="1009.4524" y="655.7803">yes</text><text fill="#0F172A" font-family="Helvetica" font-size="14" lengthAdjust="spacing" textLength="172.5664" x="919.1692" y="636.7803">"OCI state in retryable set?"</text><rect fill="#F8FAFC" height="48" rx="8" ry="8" style="stroke:#0F172A;stroke-width:0.5;" width="293.916" x="858.4944" y="882"/><text fill="#0F172A" font-family="Helvetica" font-size="14" lengthAdjust="spacing" textLength="273.916" x="868.4944" y="902.7803">Return an unsuccessful reconcile result until</text><text fill="#0F172A" font-family="Helvetica" font-size="14" lengthAdjust="spacing" textLength="133.041" x="868.4944" y="916.7803">OCI reaches ACTIVE</text><ellipse cx="1005.4524" cy="976" fill="none" rx="11" ry="11" style="stroke:#222222;stroke-width:1;"/><ellipse cx="1005.4524" cy="976" fill="#222222" rx="6" ry="6" style="stroke:#222222;stroke-width:1;"/><polygon fill="#E2E8F0" points="884.9314,833,1125.9734,833,1137.9734,845,1125.9734,857,884.9314,857,872.9314,845,884.9314,833" style="stroke:#1D4ED8;stroke-width:0.5;"/><text fill="#000000" font-family="Helvetica" font-size="14" lengthAdjust="spacing" textLength="21.7861" x="1009.4524" y="867.7803">yes</text><text fill="#0F172A" font-family="Helvetica" font-size="14" lengthAdjust="spacing" textLength="241.042" x="884.9314" y="848.7803">"OCI state is outside success targets?"</text><rect fill="none" height="722.5" rx="8" ry="8" style="stroke:#000000;stroke-width:1.5;" width="584.6318" x="675.4814" y="1061"/><path d="M841.9014,1061 L841.9014,1068 L831.9014,1078 L675.4814,1078" fill="none" style="stroke:#000000;stroke-width:1.5;"/><text fill="#000000" font-family="Helvetica" font-size="14" lengthAdjust="spacing" textLength="156.4199" x="678.4814" y="1072.7803">Ready and Drift Handling</text><rect fill="#F8FAFC" height="48" rx="8" ry="8" style="stroke:#0F172A;stroke-width:0.5;" width="296.2402" x="857.3323" y="1095"/><text fill="#0F172A" font-family="Helvetica" font-size="14" lengthAdjust="spacing" textLength="276.2402" x="867.3323" y="1115.7803">Compare live OCI state against the imported</text><text fill="#0F172A" font-family="Helvetica" font-size="14" lengthAdjust="spacing" textLength="75.4824" x="867.3323" y="1129.7803">field surface</text><rect fill="#F8FAFC" height="48" rx="8" ry="8" style="stroke:#0F172A;stroke-width:0.5;" width="302.4473" x="854.2288" y="1212"/><text fill="#0F172A" font-family="Helvetica" font-size="14" lengthAdjust="spacing" textLength="282.4473" x="864.2288" y="1232.7803">Reject drift before OCI mutation for force-new</text><text fill="#0F172A" font-family="Helvetica" font-size="14" lengthAdjust="spacing" textLength="136.9512" x="864.2288" y="1246.7803">fields compartment_id</text><ellipse cx="1005.4524" cy="1292.5" fill="none" rx="11" ry="11" style="stroke:#222222;stroke-width:1;"/><ellipse cx="1005.4524" cy="1292.5" fill="#222222" rx="6" ry="6" style="stroke:#222222;stroke-width:1;"/><polygon fill="#E2E8F0" points="879.8694,1163,1131.0354,1163,1143.0354,1175,1131.0354,1187,879.8694,1187,867.8694,1175,879.8694,1163" style="stroke:#1D4ED8;stroke-width:0.5;"/><text fill="#000000" font-family="Helvetica" font-size="14" lengthAdjust="spacing" textLength="21.7861" x="1009.4524" y="1197.7803">yes</text><text fill="#0F172A" font-family="Helvetica" font-size="14" lengthAdjust="spacing" textLength="251.166" x="879.8694" y="1178.7803">"Force-new or conflicting drift detected?"</text><polygon fill="#E2E8F0" points="895.0247,1345.5,1115.8801,1345.5,1127.8801,1357.5,1115.8801,1369.5,895.0247,1369.5,883.0247,1357.5,895.0247,1345.5" style="stroke:#1D4ED8;stroke-width:0.5;"/><text fill="#0F172A" font-family="Helvetica" font-size="14" lengthAdjust="spacing" textLength="220.8555" x="895.0247" y="1361.2803">"Supported mutable drift detected?"</text><text fill="#000000" font-family="Helvetica" font-size="14" lengthAdjust="spacing" textLength="21.7861" x="861.2385" y="1354.2803">yes</text><text fill="#000000" font-family="Helvetica" font-size="14" lengthAdjust="spacing" textLength="15.5723" x="1127.8801" y="1354.2803">no</text><rect fill="#F8FAFC" height="48" rx="8" ry="8" style="stroke:#0F172A;stroke-width:0.5;" width="333.626" x="695.4814" y="1379.5"/><text fill="#0F172A" font-family="Helvetica" font-size="14" lengthAdjust="spacing" textLength="313.626" x="705.4814" y="1400.2803">Apply UpdateDatabaseManagementCloudClusters</text><text fill="#0F172A" font-family="Helvetica" font-size="14" lengthAdjust="spacing" textLength="226.4541" x="705.4814" y="1414.2803">only for mutable fields display_name</text><rect fill="#F8FAFC" height="34" rx="8" ry="8" style="stroke:#0F172A;stroke-width:0.5;" width="199.0059" x="1049.1074" y="1379.5"/><text fill="#0F172A" font-family="Helvetica" font-size="14" lengthAdjust="spacing" textLength="179.0059" x="1059.1074" y="1400.2803">Skip the no-op mutation path</text><polygon fill="#E2E8F0" points="1005.4524,1433.5,1017.4524,1445.5,1005.4524,1457.5,993.4524,1445.5,1005.4524,1433.5" style="stroke:#1D4ED8;stroke-width:0.5;"/><rect fill="#F8FAFC" height="118" rx="8" ry="8" style="stroke:#0F172A;stroke-width:0.5;" width="334.3164" x="838.2942" y="1477.5"/><text fill="#0F172A" font-family="Helvetica" font-size="14" lengthAdjust="spacing" textLength="164.2061" x="848.2942" y="1498.2803">Run provider helper hooks</text><text fill="#0F172A" font-family="Helvetica" font-size="14" lengthAdjust="spacing" textLength="219.0508" x="848.2942" y="1512.2803">create=tfresource.CreateResource,</text><text fill="#0F172A" font-family="Helvetica" font-size="14" lengthAdjust="spacing" textLength="314.3164" x="848.2942" y="1526.2803">tfresource.WaitForWorkRequestWithErrorHandling</text><text fill="#0F172A" font-family="Helvetica" font-size="14" lengthAdjust="spacing" textLength="215.5439" x="848.2942" y="1540.2803">entity=template action=CREATED;</text><text fill="#0F172A" font-family="Helvetica" font-size="14" lengthAdjust="spacing" textLength="226.085" x="848.2942" y="1554.2803">update=tfresource.UpdateResource;</text><text fill="#0F172A" font-family="Helvetica" font-size="14" lengthAdjust="spacing" textLength="273.5537" x="848.2942" y="1568.2803">delete=tfresource.DeleteResource when the</text><text fill="#0F172A" font-family="Helvetica" font-size="14" lengthAdjust="spacing" textLength="220.2334" x="848.2942" y="1582.2803">matching field-driven path executes</text><rect fill="#F8FAFC" height="34" rx="8" ry="8" style="stroke:#0F172A;stroke-width:0.5;" width="303.2197" x="853.8425" y="1615.5"/><text fill="#0F172A" font-family="Helvetica" font-size="14" lengthAdjust="spacing" textLength="283.2197" x="863.8425" y="1636.2803">Return success for the ACTIVE success state</text><rect fill="#F8FAFC" height="48" rx="8" ry="8" style="stroke:#0F172A;stroke-width:0.5;" width="279.1299" x="865.8875" y="1669.5"/><text fill="#0F172A" font-family="Helvetica" font-size="14" lengthAdjust="spacing" textLength="259.1299" x="875.8875" y="1690.2803">Project required status and finalizer policy</text><text fill="#0F172A" font-family="Helvetica" font-size="14" lengthAdjust="spacing" textLength="174.3027" x="875.8875" y="1704.2803">retain-until-confirmed-delete</text><rect fill="#F8FAFC" height="34" rx="8" ry="8" style="stroke:#0F172A;stroke-width:0.5;" width="313.4189" x="848.7429" y="1737.5"/><text fill="#0F172A" font-family="Helvetica" font-size="14" lengthAdjust="spacing" textLength="293.4189" x="858.7429" y="1758.2803">Requeue on provisioning, updating, terminating</text><path d="M703.5983,1793.5 L703.5983,2011.5 L683.5983,2015.5 L703.5983,2019.5 L703.5983,2237.5 A0,0 0 0 0 703.5983,2237.5 L1148.7682,2237.5 A0,0 0 0 0 1148.7682,2237.5 L1148.7682,1803.5 L1138.7682,1793.5 L703.5983,1793.5 A0,0 0 0 0 703.5983,1793.5" fill="#FFF7D6" style="stroke:#B45309;stroke-width:0.5;"/><path d="M1138.7682,1793.5 L1138.7682,1803.5 L1148.7682,1803.5 L1138.7682,1793.5" fill="#FFF7D6" style="stroke:#B45309;stroke-width:0.5;"/><text fill="#334155" font-family="Helvetica" font-size="14" lengthAdjust="spacing" textLength="101.165" x="709.5983" y="1809.2803">shared diagram:</text><text fill="#334155" font-family="Helvetica" font-size="14" lengthAdjust="spacing" textLength="284.7852" x="709.5983" y="1823.2803">shared/diagrams/shared-reconcile-activity.svg</text><text fill="#334155" font-family="Helvetica" font-size="14" lengthAdjust="spacing" textLength="265.3438" x="709.5983" y="1837.2803">Start from the shared reconcile activity and</text><text fill="#334155" font-family="Helvetica" font-size="14" lengthAdjust="spacing" textLength="273.8955" x="709.5983" y="1851.2803">specialize provider-backed CRUD, wait, and</text><text fill="#334155" font-family="Helvetica" font-size="14" lengthAdjust="spacing" textLength="182.875" x="709.5983" y="1865.2803">status-projection details here.</text><text fill="#334155" font-family="Helvetica" font-size="14" lengthAdjust="spacing" textLength="229.5371" x="709.5983" y="1879.2803">Controller-local activity diagrams add</text><text fill="#334155" font-family="Helvetica" font-size="14" lengthAdjust="spacing" textLength="238.8955" x="709.5983" y="1893.2803">list-lookup hints, secret policies, delete</text><text fill="#334155" font-family="Helvetica" font-size="14" lengthAdjust="spacing" textLength="200.0332" x="709.5983" y="1907.2803">handling, and open formal gaps.</text><text fill="#334155" font-family="Helvetica" font-size="14" lengthAdjust="spacing" textLength="281.709" x="709.5983" y="1921.2803">archetype batch: Generated service-manager</text><text fill="#334155" font-family="Helvetica" font-size="14" lengthAdjust="spacing" textLength="291.0469" x="709.5983" y="1935.2803">controllers specialize the shared reconcile path</text><text fill="#334155" font-family="Helvetica" font-size="14" lengthAdjust="spacing" textLength="189.8477" x="709.5983" y="1949.2803">with formal runtime ownership.</text><text fill="#334155" font-family="Helvetica" font-size="14" lengthAdjust="spacing" textLength="191.4473" x="709.5983" y="1963.2803">service: databasemanagement</text><text fill="#334155" font-family="Helvetica" font-size="14" lengthAdjust="spacing" textLength="254.4883" x="709.5983" y="1977.2803">slug: databasemanagementcloudclusters</text><text fill="#334155" font-family="Helvetica" font-size="14" lengthAdjust="spacing" textLength="263.0332" x="709.5983" y="1991.2803">kind: DatabaseManagementCloudClusters</text><text fill="#334155" font-family="Helvetica" font-size="14" lengthAdjust="spacing" textLength="241.2402" x="709.5983" y="2005.2803">archetype: generated-service-manager</text><text fill="#334155" font-family="Helvetica" font-size="14" lengthAdjust="spacing" textLength="156.4063" x="709.5983" y="2019.2803">status/finalizer: required /</text><text fill="#334155" font-family="Helvetica" font-size="14" lengthAdjust="spacing" textLength="174.3027" x="709.5983" y="2033.2803">retain-until-confirmed-delete</text><text fill="#334155" font-family="Helvetica" font-size="14" lengthAdjust="spacing" textLength="272.3984" x="709.5983" y="2047.2803">requeue: provisioning, updating, terminating</text><text fill="#334155" font-family="Helvetica" font-size="14" lengthAdjust="spacing" textLength="295.6816" x="709.5983" y="2061.2803">provider states: create PROVISIONING; update</text><text fill="#334155" font-family="Helvetica" font-size="14" lengthAdjust="spacing" textLength="192.165" x="709.5983" y="2075.2803">UPDATING; delete DELETING</text><text fill="#334155" font-family="Helvetica" font-size="14" lengthAdjust="spacing" textLength="183.6611" x="709.5983" y="2089.2803">supported drift: display_name</text><text fill="#334155" font-family="Helvetica" font-size="14" lengthAdjust="spacing" textLength="230.3301" x="709.5983" y="2103.2803">reject before mutate: force-new fields</text><text fill="#334155" font-family="Helvetica" font-size="14" lengthAdjust="spacing" textLength="100.3789" x="709.5983" y="2117.2803">compartment_id</text><text fill="#334155" font-family="Helvetica" font-size="14" lengthAdjust="spacing" textLength="66.1445" x="709.5983" y="2131.2803">list lookup:</text><text fill="#334155" font-family="Helvetica" font-size="14" lengthAdjust="spacing" textLength="424.1699" x="709.5983" y="2145.2803">scaffold_databasemanagement_databasemanagementcloudclusters</text><text fill="#334155" font-family="Helvetica" font-size="14" lengthAdjust="spacing" textLength="175.8477" x="709.5983" y="2159.2803">filters compartment_id, state</text><text fill="#334155" font-family="Helvetica" font-size="14" lengthAdjust="spacing" textLength="89.4961" x="709.5983" y="2173.2803">conflicts: none</text><text fill="#334155" font-family="Helvetica" font-size="14" lengthAdjust="spacing" textLength="104.3164" x="709.5983" y="2187.2803">open gaps: none</text><text fill="#334155" font-family="Helvetica" font-size="14" lengthAdjust="spacing" textLength="224.9023" x="709.5983" y="2201.2803">Scaffold metadata only; replace with</text><text fill="#334155" font-family="Helvetica" font-size="14" lengthAdjust="spacing" textLength="244.3232" x="709.5983" y="2215.2803">controller-specific runtime states before</text><text fill="#334155" font-family="Helvetica" font-size="14" lengthAdjust="spacing" textLength="66.1445" x="709.5983" y="2229.2803">promotion.</text><ellipse cx="672.5983" cy="2015.5" fill="none" rx="11" ry="11" style="stroke:#222222;stroke-width:1;"/><ellipse cx="672.5983" cy="2015.5" fill="#222222" rx="6" ry="6" style="stroke:#222222;stroke-width:1;"/><line style="stroke:#0F172A;stroke-width:1;" x1="672.5983" x2="672.5983" y1="157" y2="177"/><polygon fill="#0F172A" points="668.5983,167,672.5983,177,676.5983,167,672.5983,171" style="stroke:#0F172A;stroke-width:1;"/><line style="stroke:#0F172A;stroke-width:1;" x1="837.7355" x2="837.7355" y1="341" y2="361"/><polygon fill="#0F172A" points="833.7355,351,837.7355,361,841.7355,351,837.7355,355" style="stroke:#0F172A;stroke-width:1;"/><line style="stroke:#0F172A;stroke-width:1;" x1="837.7355" x2="837.7355" y1="423" y2="443"/><polygon fill="#0F172A" points="833.7355,433,837.7355,443,841.7355,433,837.7355,437" style="stroke:#0F172A;stroke-width:1;"/><line style="stroke:#0F172A;stroke-width:1;" x1="531.1324" x2="507.4611" y1="257" y2="257"/><line style="stroke:#0F172A;stroke-width:1;" x1="507.4611" x2="507.4611" y1="257" y2="279"/><polygon fill="#0F172A" points="503.4611,269,507.4611,279,511.4611,269,507.4611,273" style="stroke:#0F172A;stroke-width:1;"/><line style="stroke:#0F172A;stroke-width:1;" x1="814.0641" x2="837.7355" y1="257" y2="257"/><line style="stroke:#0F172A;stroke-width:1;" x1="837.7355" x2="837.7355" y1="257" y2="279"/><polygon fill="#0F172A" points="833.7355,269,837.7355,279,841.7355,269,837.7355,273" style="stroke:#0F172A;stroke-width:1;"/><line style="stroke:#0F172A;stroke-width:1;" x1="507.4611" x2="507.4611" y1="327" y2="509"/><line style="stroke:#0F172A;stroke-width:1;" x1="507.4611" x2="660.5983" y1="509" y2="509"/><polygon fill="#0F172A" points="650.5983,505,660.5983,509,650.5983,513,654.5983,509" style="stroke:#0F172A;stroke-width:1;"/><line style="stroke:#0F172A;stroke-width:1;" x1="837.7355" x2="837.7355" y1="491" y2="509"/><line style="stroke:#0F172A;stroke-width:1;" x1="837.7355" x2="684.5983" y1="509" y2="509"/><polygon fill="#0F172A" points="694.5983,505,684.5983,509,694.5983,513,690.5983,509" style="stroke:#0F172A;stroke-width:1;"/><line style="stroke:#0F172A;stroke-width:1;" x1="672.5983" x2="672.5983" y1="225" y2="245"/><polygon fill="#0F172A" points="668.5983,235,672.5983,245,676.5983,235,672.5983,239" style="stroke:#0F172A;stroke-width:1;"/><line style="stroke:#0F172A;stroke-width:1;" x1="672.5983" x2="672.5983" y1="65" y2="109"/><polygon fill="#0F172A" points="668.5983,99,672.5983,109,676.5983,99,672.5983,103" style="stroke:#0F172A;stroke-width:1;"/><line style="stroke:#0F172A;stroke-width:1;" x1="339.7441" x2="339.7441" y1="725" y2="752"/><polygon fill="#0F172A" points="335.7441,742,339.7441,752,343.7441,742,339.7441,746" style="stroke:#0F172A;stroke-width:1;"/><line style="stroke:#0F172A;stroke-width:1;" x1="179.5718" x2="169.5718" y1="875" y2="875"/><line style="stroke:#0F172A;stroke-width:1;" x1="169.5718" x2="169.5718" y1="875" y2="897"/><polygon fill="#0F172A" points="165.5718,887,169.5718,897,173.5718,887,169.5718,891" style="stroke:#0F172A;stroke-width:1;"/><line style="stroke:#0F172A;stroke-width:1;" x1="499.9165" x2="509.9165" y1="875" y2="875"/><line style="stroke:#0F172A;stroke-width:1;" x1="509.9165" x2="509.9165" y1="875" y2="897"/><polygon fill="#0F172A" points="505.9165,887,509.9165,897,513.9165,887,509.9165,891" style="stroke:#0F172A;stroke-width:1;"/><line style="stroke:#0F172A;stroke-width:1;" x1="169.5718" x2="169.5718" y1="931" y2="963"/><line style="stroke:#0F172A;stroke-width:1;" x1="169.5718" x2="327.7441" y1="963" y2="963"/><polygon fill="#0F172A" points="317.7441,959,327.7441,963,317.7441,967,321.7441,963" style="stroke:#0F172A;stroke-width:1;"/><line style="stroke:#0F172A;stroke-width:1;" x1="509.9165" x2="509.9165" y1="945" y2="963"/><line style="stroke:#0F172A;stroke-width:1;" x1="509.9165" x2="351.7441" y1="963" y2="963"/><polygon fill="#0F172A" points="361.7441,959,351.7441,963,361.7441,967,357.7441,963" style="stroke:#0F172A;stroke-width:1;"/><line style="stroke:#0F172A;stroke-width:1;" x1="339.7441" x2="339.7441" y1="828" y2="863"/><polygon fill="#0F172A" points="335.7441,853,339.7441,863,343.7441,853,339.7441,857" style="stroke:#0F172A;stroke-width:1;"/><line style="stroke:#0F172A;stroke-width:1;" x1="339.7441" x2="339.7441" y1="975" y2="1029"/><polygon fill="#0F172A" points="335.7441,1019,339.7441,1029,343.7441,1019,339.7441,1023" style="stroke:#0F172A;stroke-width:1;"/><line style="stroke:#0F172A;stroke-width:1;" x1="1005.4524" x2="1005.4524" y1="718" y2="745"/><polygon fill="#0F172A" points="1001.4524,735,1005.4524,745,1009.4524,735,1005.4524,739" style="stroke:#0F172A;stroke-width:1;"/><line style="stroke:#0F172A;stroke-width:1;" x1="1005.4524" x2="1005.4524" y1="645" y2="670"/><polygon fill="#0F172A" points="1001.4524,660,1005.4524,670,1009.4524,660,1005.4524,664" style="stroke:#0F172A;stroke-width:1;"/><line style="stroke:#0F172A;stroke-width:1;" x1="1103.7356" x2="1155.7488" y1="633" y2="633"/><polygon fill="#0F172A" points="1151.7488,709.5,1155.7488,719.5,1159.7488,709.5,1155.7488,713.5" style="stroke:#0F172A;stroke-width:1;"/><line style="stroke:#0F172A;stroke-width:1;" x1="1155.7488" x2="1155.7488" y1="633" y2="798"/><line style="stroke:#0F172A;stroke-width:1;" x1="1155.7488" x2="1005.4524" y1="798" y2="798"/><line style="stroke:#0F172A;stroke-width:1;" x1="1005.4524" x2="1005.4524" y1="798" y2="833"/><polygon fill="#0F172A" points="1001.4524,823,1005.4524,833,1009.4524,823,1005.4524,827" style="stroke:#0F172A;stroke-width:1;"/><line style="stroke:#0F172A;stroke-width:1;" x1="1005.4524" x2="1005.4524" y1="930" y2="965"/><polygon fill="#0F172A" points="1001.4524,955,1005.4524,965,1009.4524,955,1005.4524,959" style="stroke:#0F172A;stroke-width:1;"/><line style="stroke:#0F172A;stroke-width:1;" x1="1005.4524" x2="1005.4524" y1="857" y2="882"/><polygon fill="#0F172A" points="1001.4524,872,1005.4524,882,1009.4524,872,1005.4524,876" style="stroke:#0F172A;stroke-width:1;"/><line style="stroke:#0F172A;stroke-width:1;" x1="1137.9734" x2="1162.4104" y1="845" y2="845"/><polygon fill="#0F172A" points="1158.4104,921.5,1162.4104,931.5,1166.4104,921.5,1162.4104,925.5" style="stroke:#0F172A;stroke-width:1;"/><line style="stroke:#0F172A;stroke-width:1;" x1="1162.4104" x2="1162.4104" y1="845" y2="1017"/><line style="stroke:#0F172A;stroke-width:1;" x1="1162.4104" x2="1005.4524" y1="1017" y2="1017"/><line style="stroke:#0F172A;stroke-width:1;" x1="1005.4524" x2="1005.4524" y1="1017" y2="1095"/><polygon fill="#0F172A" points="1001.4524,1085,1005.4524,1095,1009.4524,1085,1005.4524,1089" style="stroke:#0F172A;stroke-width:1;"/><line style="stroke:#0F172A;stroke-width:1;" x1="1005.4524" x2="1005.4524" y1="1260" y2="1281.5"/><polygon fill="#0F172A" points="1001.4524,1271.5,1005.4524,1281.5,1009.4524,1271.5,1005.4524,1275.5" style="stroke:#0F172A;stroke-width:1;"/><line style="stroke:#0F172A;stroke-width:1;" x1="1005.4524" x2="1005.4524" y1="1187" y2="1212"/><polygon fill="#0F172A" points="1001.4524,1202,1005.4524,1212,1009.4524,1202,1005.4524,1206" style="stroke:#0F172A;stroke-width:1;"/><line style="stroke:#0F172A;stroke-width:1;" x1="1143.0354" x2="1166.676" y1="1175" y2="1175"/><polygon fill="#0F172A" points="1162.676,1251.5,1166.676,1261.5,1170.676,1251.5,1166.676,1255.5" style="stroke:#0F172A;stroke-width:1;"/><line style="stroke:#0F172A;stroke-width:1;" x1="1166.676" x2="1166.676" y1="1175" y2="1325.5"/><line style="stroke:#0F172A;stroke-width:1;" x1="1166.676" x2="1005.4524" y1="1325.5" y2="1325.5"/><line style="stroke:#0F172A;stroke-width:1;" x1="1005.4524" x2="1005.4524" y1="1325.5" y2="1345.5"/><polygon fill="#0F172A" points="1001.4524,1335.5,1005.4524,1345.5,1009.4524,1335.5,1005.4524,1339.5" style="stroke:#0F172A;stroke-width:1;"/><line style="stroke:#0F172A;stroke-width:1;" x1="1005.4524" x2="1005.4524" y1="1143" y2="1163"/><polygon fill="#0F172A" points="1001.4524,1153,1005.4524,1163,1009.4524,1153,1005.4524,1157" style="stroke:#0F172A;stroke-width:1;"/><line style="stroke:#0F172A;stroke-width:1;" x1="883.0247" x2="862.2944" y1="1357.5" y2="1357.5"/><line style="stroke:#0F172A;stroke-width:1;" x1="862.2944" x2="862.2944" y1="1357.5" y2="1379.5"/><polygon fill="#0F172A" points="858.2944,1369.5,862.2944,1379.5,866.2944,1369.5,862.2944,1373.5" style="stroke:#0F172A;stroke-width:1;"/><line style="stroke:#0F172A;stroke-width:1;" x1="1127.8801" x2="1148.6104" y1="1357.5" y2="1357.5"/><line style="stroke:#0F172A;stroke-width:1;" x1="1148.6104" x2="1148.6104" y1="1357.5" y2="1379.5"/><polygon fill="#0F172A" points="1144.6104,1369.5,1148.6104,1379.5,1152.6104,1369.5,1148.6104,1373.5" style="stroke:#0F172A;stroke-width:1;"/><line style="stroke:#0F172A;stroke-width:1;" x1="862.2944" x2="862.2944" y1="1427.5" y2="1445.5"/><line style="stroke:#0F172A;stroke-width:1;" x1="862.2944" x2="993.4524" y1="1445.5" y2="1445.5"/><polygon fill="#0F172A" points="983.4524,1441.5,993.4524,1445.5,983.4524,1449.5,987.4524,1445.5" style="stroke:#0F172A;stroke-width:1;"/><line style="stroke:#0F172A;stroke-width:1;" x1="1148.6104" x2="1148.6104" y1="1413.5" y2="1445.5"/><line style="stroke:#0F172A;stroke-width:1;" x1="1148.6104" x2="1017.4524" y1="1445.5" y2="1445.5"/><polygon fill="#0F172A" points="1027.4524,1441.5,1017.4524,1445.5,1027.4524,1449.5,1023.4524,1445.5" style="stroke:#0F172A;stroke-width:1;"/><line style="stroke:#0F172A;stroke-width:1;" x1="1005.4524" x2="1005.4524" y1="1457.5" y2="1477.5"/><polygon fill="#0F172A" points="1001.4524,1467.5,1005.4524,1477.5,1009.4524,1467.5,1005.4524,1471.5" style="stroke:#0F172A;stroke-width:1;"/><line style="stroke:#0F172A;stroke-width:1;" x1="1005.4524" x2="1005.4524" y1="1595.5" y2="1615.5"/><polygon fill="#0F172A" points="1001.4524,1605.5,1005.4524,1615.5,1009.4524,1605.5,1005.4524,1609.5" style="stroke:#0F172A;stroke-width:1;"/><line style="stroke:#0F172A;stroke-width:1;" x1="1005.4524" x2="1005.4524" y1="1649.5" y2="1669.5"/><polygon fill="#0F172A" points="1001.4524,1659.5,1005.4524,1669.5,1009.4524,1659.5,1005.4524,1663.5" style="stroke:#0F172A;stroke-width:1;"/><line style="stroke:#0F172A;stroke-width:1;" x1="1005.4524" x2="1005.4524" y1="1717.5" y2="1737.5"/><polygon fill="#0F172A" points="1001.4524,1727.5,1005.4524,1737.5,1009.4524,1727.5,1005.4524,1731.5" style="stroke:#0F172A;stroke-width:1;"/><line style="stroke:#0F172A;stroke-width:1;" x1="598.422" x2="339.7441" y1="565" y2="565"/><line style="stroke:#0F172A;stroke-width:1;" x1="339.7441" x2="339.7441" y1="565" y2="621"/><polygon fill="#0F172A" points="335.7441,611,339.7441,621,343.7441,611,339.7441,615" style="stroke:#0F172A;stroke-width:1;"/><line style="stroke:#0F172A;stroke-width:1;" x1="746.7745" x2="1005.4524" y1="565" y2="565"/><line style="stroke:#0F172A;stroke-width:1;" x1="1005.4524" x2="1005.4524" y1="565" y2="621"/><polygon fill="#0F172A" points="1001.4524,611,1005.4524,621,1009.4524,611,1005.4524,615" style="stroke:#0F172A;stroke-width:1;"/><line style="stroke:#0F172A;stroke-width:1;" x1="1005.4524" x2="1005.4524" y1="1771.5" y2="1788.5"/><line style="stroke:#0F172A;stroke-width:1;" x1="1005.4524" x2="672.5983" y1="1788.5" y2="1788.5"/><line style="stroke:#0F172A;stroke-width:1;" x1="672.5983" x2="672.5983" y1="1788.5" y2="2004.5"/><polygon fill="#0F172A" points="668.5983,1994.5,672.5983,2004.5,676.5983,1994.5,672.5983,1998.5" style="stroke:#0F172A;stroke-width:1;"/><line style="stroke:#0F172A;stroke-width:1;" x1="672.5983" x2="672.5983" y1="521" y2="553"/><polygon fill="#0F172A" points="668.5983,543,672.5983,553,676.5983,543,672.5983,547" style="stroke:#0F172A;stroke-width:1;"/><?plantuml-src hLVRRXit47tVho3SbmImx3XnBfKG58xi90RIsB2Tv4M0GIrd9TOKkIMvSjKY_zx3owvMaX6dG14OsILdXpDdpXoEt9tKDRTymToS2tClzOnLN3agNBSpvUNTp9f6Yx5Hnh9VgXB_HCz2KCKRvTyRxJ_p1R6Ff9RaPSaVjhcMVnCxEkvjSclDVVR-h3fw_Rp_fJQUtkt4K5MlnQjjAsC5sMmnFNxvujclMnRX-Bp_uiNnqSkNlVtelZHMasL7hmellI9sKdgvb7x51anmpwVSqO9hFgC5QNzucfT-xvR6oZHYh1hdoRf-XgsVVmhs0A9lAbwLOQUVGKQ2iMeTTRSc95yOBNQ0eUVqfdhMC-XxF1B79DwiDzy_uDXvRlssFNN-Exift_BwlOYV5aWOs4cZsTx5r95T4kDQi7TIYpsaFxmELgoo9fBEac2LClSJdLuE4TeCYBd3z3wmL1fTIaM35iC3jvoDYk4LSG5QEHbSF589UA-ft6VU0Y-O8rBVkFqOc215dfZK7b-D2bcn9titsGxfqL-ragNqx69ypgI0JIXZRSdXyRUzfypFIRCdAt9FY-47yk6TbOsrs8xVmD8qjYIsb7oYOV58hAE2q83iYJPFGvBEg8WW0f7EXmRTSEhdgFviFj6ViFk8PzOuV3_HbLJnjJIBKAnWTol5VaI5WEpO4XvY8hi9fCt7JheFe6WpqPOQnwVef0NtvPn91pQ3hJZb4dQ8EHvZKveHy38U83RmdcYKn-Io0I0jP0N2nLgTflfP-hCX72wsQjAZOxAC9CmVrTpFWGg186dbqRoaduUa_cmYxNwof4Zhvmg474_FFftTd9rED6XVIGlO47ieIdfDT0tf_DzdDq1Q1TH3VhoSasjZ6Mq0NIhYkgbZxrHISmKvju0Vow2jQygITee07Y_CCb5g_GslS73RVu6CARED1e1QhDXKcTYEASGs072bynLYtWYWnnBdJTrpsIF49rbHkO8_DbRSELdXpWexWI8nvS31s1MG1wJexIfosP7VJJ3IBz6m8JG092ktpu9BxU1XeY-lBhwUNvzVV3x__66VVRayFRc9Jn5eF8roi37oxGXGoiOxj4JAqO4ktCx8kzrOV6Drq8n6PzEgKQnJqj1kk8iJd1ETWamLFndVd7yzsmZZUn-n8BghMFfJAolFFk9HGLHYKusZdX1JSfbIJu7pMSW_DRfSrCQYIOC8aO8GDxRY9MM6lJUGcO6c-wW383oKDqgUY8S9yAJq3v7h3wndeobLngRZ5usFvOJasF2NVEUZj-Ll5_hhfax1HaUXxZyEuwIkrOfzgSNZ-ZZHHiCsnDNwpa49wMh5LxSQWzHc8zp9EaAepS3Kwzo2XBLS7rurMB1c2P9ODYTLX_-CkSE1ILRV-ggLyuEav5VvTN-YUtlVkCIiPhyPUvUP_GtATuOvpRObd-YapMyzeNDZeSiGqTlnrTb9K8q9cbHidPdGQS-4IUh-lacIcTOatIJ8UwBZ3H8dr03L0CLOKieVToELZIStwiZVjaY0EA2MYDqjjrVTfJMHEvsYfojcIzng0oAkWiPuK7aG-sQGzHaZIifXb4K0pMzo5HpWGC3xB08Hdr3z1Vo6bn5QAzKjCY_CfypAsTmNUIxAez2m-4-ZKT4Ri4BcsTcw-xjP54aMOIwICSsEE8Df6dx6LrzEzzazcB2VJ2CqWpf15hWd0XxAWMcM3WhSKDuQfU01UitL-g0sSCQ5A1Jk8XYOEqWuokanXZa2Ets2MH8M4gB5F5Cj3MgcfjZA2xYUyTeT5Dn2jFog9aoZuCQGVI1Cxt5w28EdHCEdQTqMPHSSYh_E-K600gMASDEtfzbGSVomCVTmx-QoFYYo_-43FmiAfvhPGnjba82o_N60tmPY-DZWkavno6PjSeFjv59b3Zl23jTyFYn-IDeYtrV3do5iqKbBR1ytpBCQwrzhe_Gj5UtjDcfl-FQIArmdh55GXnkYXuXYHsOTZpg7y3hvpa9PRAftP1LBh4A_bBogZ1AtkpMuVQmiFnoEY_PIGkwGS2eY9mCPy_jrFfajW7euYWMX7w4UI32e6LZLu-8WKX5ZHqUnX6pEFW2-CA7L3e9In9-m_m80?></g></svg>