<?plantuml 1.2026.1?><svg xmlns="http://www.w3.org/2000/svg" xmlns:xlink="http://www.w3.org/1999/xlink" contentStyleType="text/css" data-diagram-type="SEQUENCE" height="2090px" preserveAspectRatio="none" style="width:1279px;height:2090px;background:#FCFCFD;" version="1.1" viewBox="0 0 1279 2090" width="1279px" zoomAndPan="magnify"><title>Sequence - databasemanagement/DatabaseManagementCloudClusters</title><defs/><g><rect fill="#FCFCFD" height="2090" style="stroke:none;stroke-width:1;" width="1279" x="0" y="0"/><text fill="#000000" font-family="Helvetica" font-size="14" font-weight="bold" lengthAdjust="spacing" textLength="473.0264" x="408.0718" y="25.7803">Sequence - databasemanagement/DatabaseManagementCloudClusters</text><rect fill="none" height="290" rx="8" ry="8" style="stroke:#CBD5E1;stroke-width:1.5;" width="738.3779" x="470.1768" y="356"/><rect fill="none" height="146" rx="8" ry="8" style="stroke:#CBD5E1;stroke-width:1.5;" width="475.9575" x="722.5972" y="465"/><rect fill="none" height="44" rx="8" ry="8" style="stroke:#CBD5E1;stroke-width:1.5;" width="455.9575" x="732.5972" y="516"/><rect fill="none" height="868" rx="8" ry="8" style="stroke:#CBD5E1;stroke-width:1.5;" width="774.7808" x="450.1768" y="660"/><rect fill="none" height="302" rx="8" ry="8" style="stroke:#CBD5E1;stroke-width:1.5;" width="738.3779" x="460.1768" y="683"/><rect fill="none" height="72" rx="8" ry="8" style="stroke:#CBD5E1;stroke-width:1.5;" width="455.9575" x="732.5972" y="804"/><rect fill="none" height="88" rx="8" ry="8" style="stroke:#CBD5E1;stroke-width:1.5;" width="438.813" x="470.1768" y="890"/><rect fill="none" height="392" rx="8" ry="8" style="stroke:#CBD5E1;stroke-width:1.5;" width="754.7808" x="460.1768" y="1087"/><rect fill="none" height="44" rx="8" ry="8" style="stroke:#CBD5E1;stroke-width:1.5;" width="438.813" x="470.1768" y="1186"/><rect fill="none" height="130" rx="8" ry="8" style="stroke:#CBD5E1;stroke-width:1.5;" width="475.9575" x="722.5972" y="1244"/><rect fill="none" height="44" rx="8" ry="8" style="stroke:#CBD5E1;stroke-width:1.5;" width="455.9575" x="732.5972" y="1323"/><g class="participant-lifeline" data-entity-uid="part1" data-qualified-name="Kubernetes" id="part1-lifeline"><g><title>Kubernetes</title><rect fill="#000000" fill-opacity="0.00000" height="1969" width="8" x="39.8032" y="114"/><line style="stroke:#94A3B8;stroke-width:0.5;stroke-dasharray:5,5;" x1="43" x2="43" y1="114" y2="2083"/></g></g><g class="participant-lifeline" data-entity-uid="part2" data-qualified-name="Controller" id="part2-lifeline"><g><title>Controller</title><rect fill="#000000" fill-opacity="0.00000" height="1969" width="8" x="293.3745" y="114"/><line style="stroke:#94A3B8;stroke-width:0.5;stroke-dasharray:5,5;" x1="297.0298" x2="297.0298" y1="114" y2="2083"/></g></g><g class="participant-lifeline" data-entity-uid="part3" data-qualified-name="BaseReconciler" id="part3-lifeline"><g><title>BaseReconciler</title><rect fill="#000000" fill-opacity="0.00000" height="1969" width="8" x="532.2007" y="114"/><line style="stroke:#94A3B8;stroke-width:0.5;stroke-dasharray:5,5;" x1="536.1768" x2="536.1768" y1="114" y2="2083"/></g></g><g class="participant-lifeline" data-entity-uid="part4" data-qualified-name="ServiceManager" id="part4-lifeline"><g><title>OSOKServiceManager</title><rect fill="#000000" fill-opacity="0.00000" height="1969" width="8" x="816.7935" y="114"/><line style="stroke:#94A3B8;stroke-width:0.5;stroke-dasharray:5,5;" x1="820.5972" x2="820.5972" y1="114" y2="2083"/></g></g><g class="participant-lifeline" data-entity-uid="part5" data-qualified-name="OCI" id="part5-lifeline"><g><title>OCI</title><rect fill="#000000" fill-opacity="0.00000" height="1969" width="8" x="1155.1099" y="114"/><line style="stroke:#94A3B8;stroke-width:0.5;stroke-dasharray:5,5;" x1="1158.665" x2="1158.665" y1="114" y2="2083"/></g></g><g class="participant participant-head" data-entity-uid="part1" data-qualified-name="Kubernetes" id="part1-head"><text fill="#000000" font-family="Helvetica" font-size="14" lengthAdjust="spacing" textLength="71.6064" x="5" y="110.7803">Kubernetes</text><ellipse cx="43.8032" cy="48.5" fill="#E2E8F0" rx="8" ry="8" style="stroke:#0F172A;stroke-width:0.5;"/><path d="M43.8032,56.5 L43.8032,83.5 M30.8032,64.5 L56.8032,64.5 M43.8032,83.5 L30.8032,98.5 M43.8032,83.5 L56.8032,98.5" fill="none" style="stroke:#0F172A;stroke-width:0.5;"/></g><g class="participant participant-head" data-entity-uid="part2" data-qualified-name="Controller" id="part2-head"><rect fill="#E2E8F0" height="28" rx="8" ry="8" style="stroke:#0F172A;stroke-width:0.5;" width="74.6895" x="260.0298" y="85"/><text fill="#0F172A" font-family="Helvetica" font-size="14" lengthAdjust="spacing" textLength="60.6895" x="267.0298" y="102.7803">Controller</text></g><g class="participant participant-head" data-entity-uid="part3" data-qualified-name="BaseReconciler" id="part3-head"><rect fill="#E2E8F0" height="28" rx="8" ry="8" style="stroke:#0F172A;stroke-width:0.5;" width="112.0479" x="480.1768" y="85"/><text fill="#0F172A" font-family="Helvetica" font-size="14" lengthAdjust="spacing" textLength="98.0479" x="487.1768" y="102.7803">BaseReconciler</text></g><g class="participant participant-head" data-entity-uid="part4" data-qualified-name="ServiceManager" id="part4-head"><rect fill="#E2E8F0" height="28" rx="8" ry="8" style="stroke:#0F172A;stroke-width:0.5;" width="156.3926" x="742.5972" y="85"/><text fill="#0F172A" font-family="Helvetica" font-size="14" lengthAdjust="spacing" textLength="142.3926" x="749.5972" y="102.7803">OSOKServiceManager</text></g><g class="participant participant-head" data-entity-uid="part5" data-qualified-name="OCI" id="part5-head"><rect fill="#E2E8F0" height="28" rx="8" ry="8" style="stroke:#0F172A;stroke-width:0.5;" width="38.8896" x="1139.665" y="85"/><text fill="#0F172A" font-family="Helvetica" font-size="14" lengthAdjust="spacing" textLength="24.8896" x="1146.665" y="102.7803">OCI</text></g><path d="M471,137 L471,187 A8,8 0 0 0 479,195 L876,195 A8,8 0 0 0 884,187 L884,139 L874,129 L479,129 A8,8 0 0 0 471,137" fill="#FFF7D6" style="stroke:#B45309;stroke-width:0.5;"/><path d="M874,129 L874,135 A4,4 0 0 0 878,139 L884,139 L874,129" fill="#FFF7D6" style="stroke:#B45309;stroke-width:0.5;"/><text fill="#334155" font-family="Helvetica" font-size="14" lengthAdjust="spacing" textLength="111.2891" x="519.7107" y="144.7803">shared resolution:</text><text fill="#334155" font-family="Helvetica" font-size="14" lengthAdjust="spacing" textLength="307.3916" x="519.7107" y="158.7803">shared/diagrams/shared-resolution-sequence.svg</text><text fill="#334155" font-family="Helvetica" font-size="14" lengthAdjust="spacing" textLength="88.7305" x="519.7107" y="172.7803">shared delete:</text><text fill="#334155" font-family="Helvetica" font-size="14" lengthAdjust="spacing" textLength="284.833" x="519.7107" y="186.7803">shared/diagrams/shared-delete-sequence.svg</text><g class="message" data-entity-1="part1" data-entity-2="part2" id="msg1"><polygon fill="#0F172A" points="285.3745,244,295.3745,248,285.3745,252,289.3745,248" style="stroke:#0F172A;stroke-width:1;"/><line style="stroke:#0F172A;stroke-width:1;" x1="43.8032" x2="291.3745" y1="248" y2="248"/><text fill="#000000" font-family="Helvetica" font-size="14" lengthAdjust="spacing" textLength="54.5029" x="50.8032" y="214.7803">enqueue</text><text fill="#000000" font-family="Helvetica" font-size="14" lengthAdjust="spacing" textLength="229.5713" x="50.8032" y="228.7803">DatabaseManagementCloudClusters</text><text fill="#000000" font-family="Helvetica" font-size="14" lengthAdjust="spacing" textLength="56.0273" x="50.8032" y="242.7803">reconcile</text></g><g class="message" data-entity-1="part2" data-entity-2="part3" id="msg2"><polygon fill="#0F172A" points="524.2007,272,534.2007,276,524.2007,280,528.2007,276" style="stroke:#0F172A;stroke-width:1;"/><line style="stroke:#0F172A;stroke-width:1;" x1="297.3745" x2="530.2007" y1="276" y2="276"/><text fill="#000000" font-family="Helvetica" font-size="14" lengthAdjust="spacing" textLength="117.4961" x="304.3745" y="270.7803">Reconcile(request)</text></g><g class="message" data-entity-1="part3" data-entity-2="part4" id="msg3"><polygon fill="#0F172A" points="808.7935,314,818.7935,318,808.7935,322,812.7935,318" style="stroke:#0F172A;stroke-width:1;"/><line style="stroke:#0F172A;stroke-width:1;" x1="536.2007" x2="814.7935" y1="318" y2="318"/><text fill="#000000" font-family="Helvetica" font-size="14" lengthAdjust="spacing" textLength="105.834" x="543.2007" y="298.7803">reconcile desired</text><text fill="#000000" font-family="Helvetica" font-size="14" lengthAdjust="spacing" textLength="229.5713" x="543.2007" y="312.7803">DatabaseManagementCloudClusters</text></g><path d="M478.1768,356 L531.5146,356 L531.5146,362 L521.5146,372 L470.1768,372 L470.1768,364 A8,8 0 0 1 478.1768,356" fill="#F8FAFC" style="stroke:#CBD5E1;stroke-width:1.5;"/><rect fill="none" height="290" rx="8" ry="8" style="stroke:#CBD5E1;stroke-width:1.5;" width="738.3779" x="470.1768" y="356"/><text fill="#000000" font-family="Helvetica" font-size="14" font-weight="bold" lengthAdjust="spacing" textLength="16.3379" x="485.1768" y="367.7803">alt</text><text fill="#000000" font-family="Helvetica" font-size="14" font-weight="bold" lengthAdjust="spacing" textLength="308.1094" x="546.5146" y="368.7803">[tracked or explicit OCI identity already exists]</text><g class="message" data-entity-1="part4" data-entity-2="part5" id="msg4"><polygon fill="#0F172A" points="1147.1099,388,1157.1099,392,1147.1099,396,1151.1099,392" style="stroke:#0F172A;stroke-width:1;"/><line style="stroke:#0F172A;stroke-width:1;" x1="820.7935" x2="1153.1099" y1="392" y2="392"/><text fill="#000000" font-family="Helvetica" font-size="14" lengthAdjust="spacing" textLength="252.1367" x="827.7935" y="386.7803">GetDatabaseManagementCloudClusters</text></g><line style="stroke:#CBD5E1;stroke-width:1;stroke-dasharray:2,2;" x1="470.1768" x2="1208.5547" y1="401" y2="401"/><text fill="#000000" font-family="Helvetica" font-size="14" font-weight="bold" lengthAdjust="spacing" textLength="185.1582" x="475.1768" y="411.7803">[tracked identity is missing]</text><g class="message" data-entity-1="part4" data-entity-2="part5" id="msg5"><polygon fill="#0F172A" points="1147.1099,446,1157.1099,450,1147.1099,454,1151.1099,450" style="stroke:#0F172A;stroke-width:1;"/><line style="stroke:#0F172A;stroke-width:1;" x1="820.7935" x2="1153.1099" y1="450" y2="450"/><text fill="#000000" font-family="Helvetica" font-size="14" lengthAdjust="spacing" textLength="293.3574" x="827.7935" y="430.7803">ListDatabaseManagementCloudClusters(filters:</text><text fill="#000000" font-family="Helvetica" font-size="14" lengthAdjust="spacing" textLength="143.1719" x="827.7935" y="444.7803">compartment_id, state)</text></g><path d="M730.5972,465 L783.9351,465 L783.9351,471 L773.9351,481 L722.5972,481 L722.5972,473 A8,8 0 0 1 730.5972,465" fill="#F8FAFC" style="stroke:#CBD5E1;stroke-width:1.5;"/><rect fill="none" height="146" rx="8" ry="8" style="stroke:#CBD5E1;stroke-width:1.5;" width="475.9575" x="722.5972" y="465"/><text fill="#000000" font-family="Helvetica" font-size="14" font-weight="bold" lengthAdjust="spacing" textLength="16.3379" x="737.5972" y="476.7803">alt</text><text fill="#000000" font-family="Helvetica" font-size="14" font-weight="bold" lengthAdjust="spacing" textLength="242.7031" x="798.9351" y="477.7803">[reusable OCI resource is not found]</text><g class="message" data-entity-1="part4" data-entity-2="part5" id="msg6"><polygon fill="#0F172A" points="1147.1099,497,1157.1099,501,1147.1099,505,1151.1099,501" style="stroke:#0F172A;stroke-width:1;"/><line style="stroke:#0F172A;stroke-width:1;" x1="820.7935" x2="1153.1099" y1="501" y2="501"/><text fill="#000000" font-family="Helvetica" font-size="14" lengthAdjust="spacing" textLength="271.5918" x="827.7935" y="495.7803">CreateDatabaseManagementCloudClusters</text></g><path d="M740.5972,516 L807.1421,516 L807.1421,522 L797.1421,532 L732.5972,532 L732.5972,524 A8,8 0 0 1 740.5972,516" fill="#F8FAFC" style="stroke:#CBD5E1;stroke-width:1.5;"/><rect fill="none" height="44" rx="8" ry="8" style="stroke:#CBD5E1;stroke-width:1.5;" width="455.9575" x="732.5972" y="516"/><text fill="#000000" font-family="Helvetica" font-size="14" font-weight="bold" lengthAdjust="spacing" textLength="29.5449" x="747.5972" y="527.7803">loop</text><text fill="#000000" font-family="Helvetica" font-size="14" font-weight="bold" lengthAdjust="spacing" textLength="215.4756" x="822.1421" y="528.7803">[create pending PROVISIONING]</text><g class="message" data-entity-1="part4" data-entity-2="part5" id="msg7"><polygon fill="#0F172A" points="1147.1099,548,1157.1099,552,1147.1099,556,1151.1099,552" style="stroke:#0F172A;stroke-width:1;"/><line style="stroke:#0F172A;stroke-width:1;" x1="820.7935" x2="1153.1099" y1="552" y2="552"/><text fill="#000000" font-family="Helvetica" font-size="14" lengthAdjust="spacing" textLength="252.1367" x="827.7935" y="546.7803">GetDatabaseManagementCloudClusters</text></g><line style="stroke:#CBD5E1;stroke-width:1;stroke-dasharray:2,2;" x1="722.5972" x2="1198.5547" y1="568" y2="568"/><text fill="#000000" font-family="Helvetica" font-size="14" font-weight="bold" lengthAdjust="spacing" textLength="255.2334" x="727.5972" y="578.7803">[reusable OCI resource already exists]</text><g class="message" data-entity-1="part4" data-entity-2="part5" id="msg8"><polygon fill="#0F172A" points="1147.1099,599,1157.1099,603,1147.1099,607,1151.1099,603" style="stroke:#0F172A;stroke-width:1;"/><line style="stroke:#0F172A;stroke-width:1;" x1="820.7935" x2="1153.1099" y1="603" y2="603"/><text fill="#000000" font-family="Helvetica" font-size="14" lengthAdjust="spacing" textLength="252.1367" x="827.7935" y="597.7803">GetDatabaseManagementCloudClusters</text></g><g class="message" data-entity-1="part4" data-entity-2="part3" id="msg9"><polygon fill="#0F172A" points="547.2007,634,537.2007,638,547.2007,642,543.2007,638" style="stroke:#0F172A;stroke-width:1;"/><line style="stroke:#0F172A;stroke-width:1;stroke-dasharray:2,2;" x1="541.2007" x2="819.7935" y1="638" y2="638"/><text fill="#000000" font-family="Helvetica" font-size="14" lengthAdjust="spacing" textLength="231.0957" x="553.2007" y="632.7803">persist resolved OCI identity in status</text></g><path d="M458.1768,660 L511.5146,660 L511.5146,666 L501.5146,676 L450.1768,676 L450.1768,668 A8,8 0 0 1 458.1768,660" fill="#F8FAFC" style="stroke:#CBD5E1;stroke-width:1.5;"/><rect fill="none" height="868" rx="8" ry="8" style="stroke:#CBD5E1;stroke-width:1.5;" width="774.7808" x="450.1768" y="660"/><text fill="#000000" font-family="Helvetica" font-size="14" font-weight="bold" lengthAdjust="spacing" textLength="16.3379" x="465.1768" y="671.7803">alt</text><text fill="#000000" font-family="Helvetica" font-size="14" font-weight="bold" lengthAdjust="spacing" textLength="120.5859" x="526.5146" y="672.7803">[delete requested]</text><path d="M468.1768,683 L547.1973,683 L547.1973,689 L537.1973,699 L460.1768,699 L460.1768,691 A8,8 0 0 1 468.1768,683" fill="#F8FAFC" style="stroke:#CBD5E1;stroke-width:1.5;"/><rect fill="none" height="302" rx="8" ry="8" style="stroke:#CBD5E1;stroke-width:1.5;" width="738.3779" x="460.1768" y="683"/><text fill="#000000" font-family="Helvetica" font-size="14" font-weight="bold" lengthAdjust="spacing" textLength="42.0205" x="475.1768" y="694.7803">Delete</text><g class="message" data-entity-1="part4" data-entity-2="part5" id="msg10"><polygon fill="#0F172A" points="1147.1099,715,1157.1099,719,1147.1099,723,1151.1099,719" style="stroke:#0F172A;stroke-width:1;"/><line style="stroke:#0F172A;stroke-width:1;" x1="820.7935" x2="1153.1099" y1="719" y2="719"/><text fill="#000000" font-family="Helvetica" font-size="14" lengthAdjust="spacing" textLength="270.04" x="827.7935" y="713.7803">DeleteDatabaseManagementCloudClusters</text></g><g class="message" data-entity-1="part4" data-entity-2="part5" id="msg11"><polygon fill="#0F172A" points="1147.1099,785,1157.1099,789,1147.1099,793,1151.1099,789" style="stroke:#0F172A;stroke-width:1;"/><line style="stroke:#0F172A;stroke-width:1;" x1="820.7935" x2="1153.1099" y1="789" y2="789"/><text fill="#000000" font-family="Helvetica" font-size="14" lengthAdjust="spacing" textLength="109.7168" x="827.7935" y="741.7803">confirm delete via</text><text fill="#000000" font-family="Helvetica" font-size="14" lengthAdjust="spacing" textLength="252.1367" x="827.7935" y="755.7803">GetDatabaseManagementCloudClusters</text><text fill="#000000" font-family="Helvetica" font-size="14" lengthAdjust="spacing" textLength="12.4482" x="827.7935" y="769.7803">or</text><text fill="#000000" font-family="Helvetica" font-size="14" lengthAdjust="spacing" textLength="251.3574" x="827.7935" y="783.7803">ListDatabaseManagementCloudClusters</text></g><path d="M740.5972,804 L807.1421,804 L807.1421,810 L797.1421,820 L732.5972,820 L732.5972,812 A8,8 0 0 1 740.5972,804" fill="#F8FAFC" style="stroke:#CBD5E1;stroke-width:1.5;"/><rect fill="none" height="72" rx="8" ry="8" style="stroke:#CBD5E1;stroke-width:1.5;" width="455.9575" x="732.5972" y="804"/><text fill="#000000" font-family="Helvetica" font-size="14" font-weight="bold" lengthAdjust="spacing" textLength="29.5449" x="747.5972" y="815.7803">loop</text><text fill="#000000" font-family="Helvetica" font-size="14" font-weight="bold" lengthAdjust="spacing" textLength="182.7793" x="822.1421" y="816.7803">[delete pending DELETING]</text><g class="message" data-entity-1="part4" data-entity-2="part5" id="msg12"><polygon fill="#0F172A" points="1147.1099,864,1157.1099,868,1147.1099,872,1151.1099,868" style="stroke:#0F172A;stroke-width:1;"/><line style="stroke:#0F172A;stroke-width:1;" x1="820.7935" x2="1153.1099" y1="868" y2="868"/><text fill="#000000" font-family="Helvetica" font-size="14" lengthAdjust="spacing" textLength="252.1367" x="827.7935" y="834.7803">GetDatabaseManagementCloudClusters</text><text fill="#000000" font-family="Helvetica" font-size="14" lengthAdjust="spacing" textLength="12.4482" x="827.7935" y="848.7803">or</text><text fill="#000000" font-family="Helvetica" font-size="14" lengthAdjust="spacing" textLength="251.3574" x="827.7935" y="862.7803">ListDatabaseManagementCloudClusters</text></g><path d="M478.1768,890 L531.5146,890 L531.5146,896 L521.5146,906 L470.1768,906 L470.1768,898 A8,8 0 0 1 478.1768,890" fill="#F8FAFC" style="stroke:#CBD5E1;stroke-width:1.5;"/><rect fill="none" height="88" rx="8" ry="8" style="stroke:#CBD5E1;stroke-width:1.5;" width="438.813" x="470.1768" y="890"/><text fill="#000000" font-family="Helvetica" font-size="14" font-weight="bold" lengthAdjust="spacing" textLength="16.3379" x="485.1768" y="901.7803">alt</text><text fill="#000000" font-family="Helvetica" font-size="14" font-weight="bold" lengthAdjust="spacing" textLength="261.4268" x="546.5146" y="902.7803">[cleanup or finalizer release is blocked]</text><g class="message" data-entity-1="part4" data-entity-2="part3" id="msg13"><polygon fill="#0F172A" points="547.2007,922,537.2007,926,547.2007,930,543.2007,926" style="stroke:#0F172A;stroke-width:1;"/><line style="stroke:#0F172A;stroke-width:1;stroke-dasharray:2,2;" x1="541.2007" x2="819.7935" y1="926" y2="926"/><text fill="#000000" font-family="Helvetica" font-size="14" lengthAdjust="spacing" textLength="170.4336" x="553.2007" y="920.7803">retain delete state and retry</text></g><line style="stroke:#CBD5E1;stroke-width:1;stroke-dasharray:2,2;" x1="470.1768" x2="908.9897" y1="935" y2="935"/><text fill="#000000" font-family="Helvetica" font-size="14" font-weight="bold" lengthAdjust="spacing" textLength="194.4824" x="475.1768" y="945.7803">[delete completion observed]</text><g class="message" data-entity-1="part4" data-entity-2="part3" id="msg14"><polygon fill="#0F172A" points="547.2007,966,537.2007,970,547.2007,974,543.2007,970" style="stroke:#0F172A;stroke-width:1;"/><line style="stroke:#0F172A;stroke-width:1;stroke-dasharray:2,2;" x1="541.2007" x2="819.7935" y1="970" y2="970"/><text fill="#000000" font-family="Helvetica" font-size="14" lengthAdjust="spacing" textLength="243.5781" x="553.2007" y="964.7803">release finalizer after delete completion</text></g><line style="stroke:#CBD5E1;stroke-width:1;stroke-dasharray:2,2;" x1="450.1768" x2="1224.9575" y1="993" y2="993"/><text fill="#000000" font-family="Helvetica" font-size="14" font-weight="bold" lengthAdjust="spacing" textLength="149.3857" x="455.1768" y="1003.7803">[OCI state is retryable]</text><g class="message" data-entity-1="part4" data-entity-2="part3" id="msg15"><polygon fill="#0F172A" points="547.2007,1038,537.2007,1042,547.2007,1046,543.2007,1042" style="stroke:#0F172A;stroke-width:1;"/><line style="stroke:#0F172A;stroke-width:1;stroke-dasharray:2,2;" x1="541.2007" x2="819.7935" y1="1042" y2="1042"/><text fill="#000000" font-family="Helvetica" font-size="14" lengthAdjust="spacing" textLength="184.4199" x="553.2007" y="1022.7803">requeue while OCI remains in</text><text fill="#000000" font-family="Helvetica" font-size="14" lengthAdjust="spacing" textLength="260.5928" x="553.2007" y="1036.7803">PROVISIONING, UPDATING, DELETING</text></g><line style="stroke:#CBD5E1;stroke-width:1;stroke-dasharray:2,2;" x1="450.1768" x2="1224.9575" y1="1051" y2="1051"/><text fill="#000000" font-family="Helvetica" font-size="14" font-weight="bold" lengthAdjust="spacing" textLength="200.751" x="455.1768" y="1061.7803">[live state requires field-aware</text><text fill="#000000" font-family="Helvetica" font-size="14" font-weight="bold" lengthAdjust="spacing" textLength="105.0068" x="455.1768" y="1075.7803">drift evaluation]</text><path d="M468.1768,1087 L596.1631,1087 L596.1631,1093 L586.1631,1103 L460.1768,1103 L460.1768,1095 A8,8 0 0 1 468.1768,1087" fill="#F8FAFC" style="stroke:#CBD5E1;stroke-width:1.5;"/><rect fill="none" height="392" rx="8" ry="8" style="stroke:#CBD5E1;stroke-width:1.5;" width="754.7808" x="460.1768" y="1087"/><text fill="#000000" font-family="Helvetica" font-size="14" font-weight="bold" lengthAdjust="spacing" textLength="90.9863" x="475.1768" y="1098.7803">Drift handling</text><path d="M774,1116 L774,1166 A8,8 0 0 0 782,1174 L1196,1174 A8,8 0 0 0 1204,1166 L1204,1118 L1194,1108 L782,1108 A8,8 0 0 0 774,1116" fill="#FFF7D6" style="stroke:#B45309;stroke-width:0.5;"/><path d="M1194,1108 L1194,1114 A4,4 0 0 0 1198,1118 L1204,1118 L1194,1108" fill="#FFF7D6" style="stroke:#B45309;stroke-width:0.5;"/><text fill="#334155" font-family="Helvetica" font-size="14" lengthAdjust="spacing" textLength="255.2813" x="857.3381" y="1123.7803">Supported update surface: display_name</text><text fill="#334155" font-family="Helvetica" font-size="14" lengthAdjust="spacing" textLength="235.7783" x="857.3381" y="1137.7803">Reject before mutate: force-new fields</text><text fill="#334155" font-family="Helvetica" font-size="14" lengthAdjust="spacing" textLength="100.3789" x="857.3381" y="1151.7803">compartment_id</text><text fill="#334155" font-family="Helvetica" font-size="14" lengthAdjust="spacing" textLength="229.5576" x="857.3381" y="1165.7803">Lookup filters: compartment_id, state</text><path d="M478.1768,1186 L536.9424,1186 L536.9424,1192 L526.9424,1202 L470.1768,1202 L470.1768,1194 A8,8 0 0 1 478.1768,1186" fill="#F8FAFC" style="stroke:#CBD5E1;stroke-width:1.5;"/><rect fill="none" height="44" rx="8" ry="8" style="stroke:#CBD5E1;stroke-width:1.5;" width="438.813" x="470.1768" y="1186"/><text fill="#000000" font-family="Helvetica" font-size="14" font-weight="bold" lengthAdjust="spacing" textLength="21.7656" x="485.1768" y="1197.7803">opt</text><text fill="#000000" font-family="Helvetica" font-size="14" font-weight="bold" lengthAdjust="spacing" textLength="276.1309" x="551.9424" y="1198.7803">[force-new or conflicting drift is detected]</text><g class="message" data-entity-1="part4" data-entity-2="part3" id="msg16"><polygon fill="#0F172A" points="547.2007,1218,537.2007,1222,547.2007,1226,543.2007,1222" style="stroke:#0F172A;stroke-width:1;"/><line style="stroke:#0F172A;stroke-width:1;stroke-dasharray:2,2;" x1="541.2007" x2="819.7935" y1="1222" y2="1222"/><text fill="#000000" font-family="Helvetica" font-size="14" lengthAdjust="spacing" textLength="164.1855" x="553.2007" y="1216.7803">reject before OCI mutation</text></g><path d="M730.5972,1244 L789.3628,1244 L789.3628,1250 L779.3628,1260 L722.5972,1260 L722.5972,1252 A8,8 0 0 1 730.5972,1244" fill="#F8FAFC" style="stroke:#CBD5E1;stroke-width:1.5;"/><rect fill="none" height="130" rx="8" ry="8" style="stroke:#CBD5E1;stroke-width:1.5;" width="475.9575" x="722.5972" y="1244"/><text fill="#000000" font-family="Helvetica" font-size="14" font-weight="bold" lengthAdjust="spacing" textLength="21.7656" x="737.5972" y="1255.7803">opt</text><text fill="#000000" font-family="Helvetica" font-size="14" font-weight="bold" lengthAdjust="spacing" textLength="243.4619" x="804.3628" y="1256.7803">[supported mutable drift is detected]</text><g class="message" data-entity-1="part4" data-entity-2="part5" id="msg17"><polygon fill="#0F172A" points="1147.1099,1304,1157.1099,1308,1147.1099,1312,1151.1099,1308" style="stroke:#0F172A;stroke-width:1;"/><line style="stroke:#0F172A;stroke-width:1;" x1="820.7935" x2="1153.1099" y1="1308" y2="1308"/><text fill="#000000" font-family="Helvetica" font-size="14" lengthAdjust="spacing" textLength="35.0205" x="827.7935" y="1274.7803">Apply</text><text fill="#000000" font-family="Helvetica" font-size="14" lengthAdjust="spacing" textLength="274.7158" x="827.7935" y="1288.7803">UpdateDatabaseManagementCloudClusters</text><text fill="#000000" font-family="Helvetica" font-size="14" lengthAdjust="spacing" textLength="226.4541" x="827.7935" y="1302.7803">only for mutable fields display_name</text></g><path d="M740.5972,1323 L807.1421,1323 L807.1421,1329 L797.1421,1339 L732.5972,1339 L732.5972,1331 A8,8 0 0 1 740.5972,1323" fill="#F8FAFC" style="stroke:#CBD5E1;stroke-width:1.5;"/><rect fill="none" height="44" rx="8" ry="8" style="stroke:#CBD5E1;stroke-width:1.5;" width="455.9575" x="732.5972" y="1323"/><text fill="#000000" font-family="Helvetica" font-size="14" font-weight="bold" lengthAdjust="spacing" textLength="29.5449" x="747.5972" y="1334.7803">loop</text><text fill="#000000" font-family="Helvetica" font-size="14" font-weight="bold" lengthAdjust="spacing" textLength="190.5381" x="822.1421" y="1335.7803">[update pending UPDATING]</text><g class="message" data-entity-1="part4" data-entity-2="part5" id="msg18"><polygon fill="#0F172A" points="1147.1099,1355,1157.1099,1359,1147.1099,1363,1151.1099,1359" style="stroke:#0F172A;stroke-width:1;"/><line style="stroke:#0F172A;stroke-width:1;" x1="820.7935" x2="1153.1099" y1="1359" y2="1359"/><text fill="#000000" font-family="Helvetica" font-size="14" lengthAdjust="spacing" textLength="252.1367" x="827.7935" y="1353.7803">GetDatabaseManagementCloudClusters</text></g><g class="message" data-entity-1="part4" data-entity-2="part5" id="msg19"><polygon fill="#0F172A" points="1147.1099,1467,1157.1099,1471,1147.1099,1475,1151.1099,1471" style="stroke:#0F172A;stroke-width:1;"/><line style="stroke:#0F172A;stroke-width:1;" x1="820.7935" x2="1153.1099" y1="1471" y2="1471"/><text fill="#000000" font-family="Helvetica" font-size="14" lengthAdjust="spacing" textLength="104.2891" x="827.7935" y="1395.7803">run helper hooks</text><text fill="#000000" font-family="Helvetica" font-size="14" lengthAdjust="spacing" textLength="219.0508" x="827.7935" y="1409.7803">create=tfresource.CreateResource,</text><text fill="#000000" font-family="Helvetica" font-size="14" lengthAdjust="spacing" textLength="314.3164" x="827.7935" y="1423.7803">tfresource.WaitForWorkRequestWithErrorHandling</text><text fill="#000000" font-family="Helvetica" font-size="14" lengthAdjust="spacing" textLength="215.5439" x="827.7935" y="1437.7803">entity=template action=CREATED;</text><text fill="#000000" font-family="Helvetica" font-size="14" lengthAdjust="spacing" textLength="226.085" x="827.7935" y="1451.7803">update=tfresource.UpdateResource;</text><text fill="#000000" font-family="Helvetica" font-size="14" lengthAdjust="spacing" textLength="212.8438" x="827.7935" y="1465.7803">delete=tfresource.DeleteResource</text></g><g class="message" data-entity-1="part4" data-entity-2="part3" id="msg20"><polygon fill="#0F172A" points="547.2007,1516,537.2007,1520,547.2007,1524,543.2007,1520" style="stroke:#0F172A;stroke-width:1;"/><line style="stroke:#0F172A;stroke-width:1;stroke-dasharray:2,2;" x1="541.2007" x2="819.7935" y1="1520" y2="1520"/><text fill="#000000" font-family="Helvetica" font-size="14" lengthAdjust="spacing" textLength="100.7822" x="553.2007" y="1500.7803">status=required,</text><text fill="#000000" font-family="Helvetica" font-size="14" lengthAdjust="spacing" textLength="230.7197" x="553.2007" y="1514.7803">finalizer=retain-until-confirmed-delete</text></g><g class="message" data-entity-1="part3" data-entity-2="part2" id="msg21"><polygon fill="#0F172A" points="308.3745,1565,298.3745,1569,308.3745,1573,304.3745,1569" style="stroke:#0F172A;stroke-width:1;"/><line style="stroke:#0F172A;stroke-width:1;stroke-dasharray:2,2;" x1="302.3745" x2="535.2007" y1="1569" y2="1569"/><text fill="#000000" font-family="Helvetica" font-size="14" lengthAdjust="spacing" textLength="214.8262" x="314.3745" y="1549.7803">requeue on provisioning, updating,</text><text fill="#000000" font-family="Helvetica" font-size="14" lengthAdjust="spacing" textLength="69.2549" x="314.3745" y="1563.7803">terminating</text></g><path d="M825,1590 L825,2060 A8,8 0 0 0 833,2068 L1262,2068 A8,8 0 0 0 1270,2060 L1270,1592 L1260,1582 L833,1582 A8,8 0 0 0 825,1590" fill="#FFF7D6" style="stroke:#B45309;stroke-width:0.5;"/><path d="M1260,1582 L1260,1588 A4,4 0 0 0 1264,1592 L1270,1592 L1260,1582" fill="#FFF7D6" style="stroke:#B45309;stroke-width:0.5;"/><text fill="#334155" font-family="Helvetica" font-size="14" lengthAdjust="spacing" textLength="101.165" x="831" y="1597.7803">shared diagram:</text><text fill="#334155" font-family="Helvetica" font-size="14" lengthAdjust="spacing" textLength="307.3916" x="831" y="1611.7803">shared/diagrams/shared-resolution-sequence.svg</text><text fill="#334155" font-family="Helvetica" font-size="14" lengthAdjust="spacing" textLength="143.1992" x="831" y="1625.7803">shared delete diagram:</text><text fill="#334155" font-family="Helvetica" font-size="14" lengthAdjust="spacing" textLength="284.833" x="831" y="1639.7803">shared/diagrams/shared-delete-sequence.svg</text><text fill="#334155" font-family="Helvetica" font-size="14" lengthAdjust="spacing" textLength="280.9297" x="831" y="1653.7803">Start from the shared resolution sequence for</text><text fill="#334155" font-family="Helvetica" font-size="14" lengthAdjust="spacing" textLength="260.7295" x="831" y="1667.7803">OCID binding, datasource pagination, and</text><text fill="#334155" font-family="Helvetica" font-size="14" lengthAdjust="spacing" textLength="163.4268" x="831" y="1681.7803">create-or-update dispatch.</text><text fill="#334155" font-family="Helvetica" font-size="14" lengthAdjust="spacing" textLength="301.1982" x="831" y="1695.7803">Layer the shared delete sequence when finalizer</text><text fill="#334155" font-family="Helvetica" font-size="14" lengthAdjust="spacing" textLength="269.2471" x="831" y="1709.7803">retention, delete confirmation, work-request</text><text fill="#334155" font-family="Helvetica" font-size="14" lengthAdjust="spacing" textLength="199.2334" x="831" y="1723.7803">polling, or Secret cleanup apply.</text><text fill="#334155" font-family="Helvetica" font-size="14" lengthAdjust="spacing" textLength="281.709" x="831" y="1737.7803">archetype batch: Generated service-manager</text><text fill="#334155" font-family="Helvetica" font-size="14" lengthAdjust="spacing" textLength="266.1504" x="831" y="1751.7803">controllers follow the shared resolution and</text><text fill="#334155" font-family="Helvetica" font-size="14" lengthAdjust="spacing" textLength="259.9297" x="831" y="1765.7803">delete sequences with imported waits and</text><text fill="#334155" font-family="Helvetica" font-size="14" lengthAdjust="spacing" textLength="134.6064" x="831" y="1779.7803">controller-local policy.</text><text fill="#334155" font-family="Helvetica" font-size="14" lengthAdjust="spacing" textLength="191.4473" x="831" y="1793.7803">service: databasemanagement</text><text fill="#334155" font-family="Helvetica" font-size="14" lengthAdjust="spacing" textLength="254.4883" x="831" y="1807.7803">slug: databasemanagementcloudclusters</text><text fill="#334155" font-family="Helvetica" font-size="14" lengthAdjust="spacing" textLength="263.0332" x="831" y="1821.7803">kind: DatabaseManagementCloudClusters</text><text fill="#334155" font-family="Helvetica" font-size="14" lengthAdjust="spacing" textLength="241.2402" x="831" y="1835.7803">archetype: generated-service-manager</text><text fill="#334155" font-family="Helvetica" font-size="14" lengthAdjust="spacing" textLength="156.4063" x="831" y="1849.7803">status/finalizer: required /</text><text fill="#334155" font-family="Helvetica" font-size="14" lengthAdjust="spacing" textLength="174.3027" x="831" y="1863.7803">retain-until-confirmed-delete</text><text fill="#334155" font-family="Helvetica" font-size="14" lengthAdjust="spacing" textLength="272.3984" x="831" y="1877.7803">requeue: provisioning, updating, terminating</text><text fill="#334155" font-family="Helvetica" font-size="14" lengthAdjust="spacing" textLength="295.6816" x="831" y="1891.7803">provider states: create PROVISIONING; update</text><text fill="#334155" font-family="Helvetica" font-size="14" lengthAdjust="spacing" textLength="192.165" x="831" y="1905.7803">UPDATING; delete DELETING</text><text fill="#334155" font-family="Helvetica" font-size="14" lengthAdjust="spacing" textLength="183.6611" x="831" y="1919.7803">supported drift: display_name</text><text fill="#334155" font-family="Helvetica" font-size="14" lengthAdjust="spacing" textLength="230.3301" x="831" y="1933.7803">reject before mutate: force-new fields</text><text fill="#334155" font-family="Helvetica" font-size="14" lengthAdjust="spacing" textLength="100.3789" x="831" y="1947.7803">compartment_id</text><text fill="#334155" font-family="Helvetica" font-size="14" lengthAdjust="spacing" textLength="66.1445" x="831" y="1961.7803">list lookup:</text><text fill="#334155" font-family="Helvetica" font-size="14" lengthAdjust="spacing" textLength="424.1699" x="831" y="1975.7803">scaffold_databasemanagement_databasemanagementcloudclusters</text><text fill="#334155" font-family="Helvetica" font-size="14" lengthAdjust="spacing" textLength="175.8477" x="831" y="1989.7803">filters compartment_id, state</text><text fill="#334155" font-family="Helvetica" font-size="14" lengthAdjust="spacing" textLength="89.4961" x="831" y="2003.7803">conflicts: none</text><text fill="#334155" font-family="Helvetica" font-size="14" lengthAdjust="spacing" textLength="104.3164" x="831" y="2017.7803">open gaps: none</text><text fill="#334155" font-family="Helvetica" font-size="14" lengthAdjust="spacing" textLength="224.9023" x="831" y="2031.7803">Scaffold metadata only; replace with</text><text fill="#334155" font-family="Helvetica" font-size="14" lengthAdjust="spacing" textLength="244.3232" x="831" y="2045.7803">controller-specific runtime states before</text><text fill="#334155" font-family="Helvetica" font-size="14" lengthAdjust="spacing" textLength="66.1445" x="831" y="2059.7803">promotion.</text><?plantuml-src hLTRRzis57xNhpZeNbh0JfecwSL11hHErWRDaY9krnS30IqTsLmeKYCfkzwm_xx3YsJ9iMTZ6VnWMoJFzVk-Gva7BakcMG5cnZAru78AEHC64zEiJ5ZwCDMgajbG2QNXfpobJzRQaM7EAc5_KTBUi0BX4uevMfwopNj6_4-4evFM8jDQBQBrb_dHcrVjar9P_F0eXZn_axrUtwLqXZhkc9oS7hzyjxR3kO_hnySdHwUdhNLlFbLQeeQZrudbLY2Cy8yAPOhGXunPDc462oRP50kKzl0YFlgrUJGKgig6eZ8MjKbcF4F8bR8JzQFboTH6_qe0M6gLxaGUAr0lhQUEh_1j_fAMoHWLcPTCsitdsnlsiTAgJcD3y1olkUpMzjq9EvwyfLLdikmifPFi58-QfKTzUvkpF4t-JdnkyBcQ81NSeabQSS2G0j5A2DITnn-er7UOAfdozQLdjwFRpoFKSvx6RkXdm0nq7tMEt0wl4eS9K7FgUDTsR-qSiKDZ1XgD4fNbIWxYeyECiodrr1o6__tLbdxTvWCpdzOMCXIKxTRJORbx4cNciPkiYWNzdrir6W1Asb_XMEu0v5ZgEiLaTTvPwwO_WERtS-rYCVP5qjtY3dMBD836EALfEEMpCw34emIkbNgWBqQPJhZC4YOiM4tOeOeHIl17AQXhlcL0b9B4pIKmeP5bIrhbnfga6umBZtOFu2FQNJ4WwLtZhZ7F3HJS65B4RQQloUyEsyzpBjptO2nJLJZqkIttFEk1iSpY2v-gnigm2PNDvUS0L6aI1mg0saxoGUpP5iAGIc1nLu92gH9IlnLAWfDJ-IztjxzTZQvkRwvkFZwbTXIRhz_c7Fw_7csemGRObhINF0MYpgcT7SHmwQjU1NEkye5l436EMSJZXN-yBTomkYlYBOSfrfphelOyvsmiT-S_bagFvHw02xsEnkjUNrnUNtvzKf_tzrzNDXN899MIw9jpoGJDV4rrfgV6GtiYbEFRFatLQ1crBYRbUUEbWfxhPK1VN7CSenyalg0cXYplwo24jGgKvPJCOwi1xZNa7RP2D9IF3yOHO3-7NgzXCUCDOmhAqH14nx9DpHvy-tBn_gl_rRJHUnTyNXV3cIEvDPG0YgpF5ZHBnZBJFBU0SoOgveEFsFQFPrH0uRHjDG6xSVVSU1nLPQaqyGAgCdEUJALpbk80CcvAmPRtakvxoHt-Zgc52UPA8nIL2sf0maKAq9Uu266PfAk0IHJzMY5Xeq2kffygRSiamSenYSQ2TGWFkL8RCcfOQlTjUpjirmKVUjrdvz0q1N1BJjvsUugaUb-MOZcMttpXTjDBYgLBh_4JQjQji-Tsx4JDxHeUJzNmxJD6Ln9cA4XQOKOjes33A3ctUQtp1s4EtSM_lR5ihNrdd6wM-hlI3tT1PxzpExkaAx_-554uba6XpoqIrJo_KzU7y-7TvVklbnTdOndIRliCbQrzqfP0r_QMeDJrbds7I9WHvv5L6MNJ2CDvqA9-HU6AVjJovjxc7QnVazQkQZNrIQ9AhURSK9fKWLxeg_j5nKDTa4VRy5FpwSo2oc7pjJJU8fzs9zrfPTFTT6I9iP1hLO2T8Jow9gzUTGZR2S7fmb_mVCBkVIfU4qeszVagsNFAdWI0zPNkHxGx6Z2RpWwIQxQaghQSrMEXThIOeLmfUK8DSzXobXivzrsBxXO4otwS_qb9JVAnAIU75CLgZZ57vuE4wNI6TbaYlHPJF8vVzBx8d4AOq9j-4PkJDbqdOQPljTXI8vVnMXO65iGHu4LKdmLno8JID5RxD46P08gPfnHPT3_Oy9wQ655DDosaJWVIMWVe_JIZsyqEjMWgC81fdNj_FVT0eSEc3ODwHcLmcFmxXo911jle0Mrs-3tqyXc6XHiYuPRR7g5dKJAJMYhFQYGq0tKbyrxUryQR_a_ZJRXxgF0pZYYLifmmaDq_xi7zhhR40RbbFjPJa7Ad8UB69C5_oihw_oXwXeAgxbo16pLdr0zAqD65SDO6bIanvJbFdUnRNiGhXedPku8Nog7se9dC_m00?></g></svg>