<?plantuml 1.2026.1?><svg xmlns="http://www.w3.org/2000/svg" xmlns:xlink="http://www.w3.org/1999/xlink" contentStyleType="text/css" data-diagram-type="STATE" height="625px" preserveAspectRatio="none" style="width:4208px;height:625px;background:#FCFCFD;" version="1.1" viewBox="0 0 4208 625" width="4208px" zoomAndPan="magnify"><title>State Machine - containerengine/ContainerengineClusterStartCredentialRotationManagement</title><defs/><g><rect fill="#FCFCFD" height="625" style="stroke:none;stroke-width:1;" width="4208" x="0" y="0"/><g class="title" data-source-line="10"><text fill="#000000" font-family="Helvetica" font-size="14" font-weight="bold" lengthAdjust="spacing" textLength="619.9854" x="1787.0353" y="20.7803">State Machine - containerengine/ContainerengineClusterStartCredentialRotationManagement</text></g><g><rect fill="#F8FAFC" height="62" rx="8" ry="8" style="stroke:#0F172A;stroke-width:0.5;" width="264.3643" x="504" y="423"/><line style="stroke:#0F172A;stroke-width:0.5;" x1="504" x2="768.3643" y1="447" y2="447"/><text fill="#0F172A" font-family="Helvetica" font-size="14" lengthAdjust="spacing" textLength="52.9102" x="609.7271" y="438.7803">Observe</text><text fill="#0F172A" font-family="Helvetica" font-size="14" lengthAdjust="spacing" textLength="244.3643" x="509" y="462.7803">read spec, tracked status, delete intent,</text><text fill="#0F172A" font-family="Helvetica" font-size="14" lengthAdjust="spacing" textLength="153.2822" x="509" y="476.7803">and current OCI lifecycle</text></g><rect fill="#F8FAFC" height="40" rx="8" ry="8" style="stroke:#0F172A;stroke-width:0.5;" width="104.9512" x="1565.36" y="266"/><text fill="#0F172A" font-family="Helvetica" font-size="14" lengthAdjust="spacing" textLength="94.9512" x="1570.36" y="289.7803">EvaluateReady</text><rect fill="#F8FAFC" height="40" rx="8" ry="8" style="stroke:#0F172A;stroke-width:0.5;" width="50.4688" x="2324.32" y="266"/><text fill="#0F172A" font-family="Helvetica" font-size="14" lengthAdjust="spacing" textLength="40.4688" x="2329.32" y="289.7803">Ready</text><rect fill="#F8FAFC" height="40" rx="8" ry="8" style="stroke:#0F172A;stroke-width:0.5;" width="69.917" x="1582.88" y="401"/><text fill="#0F172A" font-family="Helvetica" font-size="14" lengthAdjust="spacing" textLength="59.917" x="1587.88" y="424.7803">Retryable</text><rect fill="#F8FAFC" height="40" rx="8" ry="8" style="stroke:#0F172A;stroke-width:0.5;" width="50" x="1592.84" y="520"/><text fill="#0F172A" font-family="Helvetica" font-size="14" lengthAdjust="spacing" textLength="38.1309" x="1598.7746" y="543.7803">Failed</text><rect fill="#F8FAFC" height="40" rx="8" ry="8" style="stroke:#0F172A;stroke-width:0.5;" width="122.8477" x="1046.44" y="377"/><text fill="#0F172A" font-family="Helvetica" font-size="14" lengthAdjust="spacing" textLength="112.8477" x="1051.44" y="400.7803">ResolveByLookup</text><rect fill="#F8FAFC" height="40" rx="8" ry="8" style="stroke:#0F172A;stroke-width:0.5;" width="155.5098" x="1899.56" y="356"/><text fill="#0F172A" font-family="Helvetica" font-size="14" lengthAdjust="spacing" textLength="145.5098" x="1904.56" y="379.7803">RejectUnsupportedDrift</text><rect fill="#F8FAFC" height="40" rx="8" ry="8" style="stroke:#0F172A;stroke-width:0.5;" width="90.165" x="1932.23" y="195"/><text fill="#0F172A" font-family="Helvetica" font-size="14" lengthAdjust="spacing" textLength="80.165" x="1937.23" y="218.7803">ApplyUpdate</text><rect fill="#F8FAFC" height="40" rx="8" ry="8" style="stroke:#0F172A;stroke-width:0.5;" width="101.8477" x="2760.69" y="520"/><text fill="#0F172A" font-family="Helvetica" font-size="14" lengthAdjust="spacing" textLength="91.8477" x="2765.69" y="543.7803">DeletePending</text><rect fill="#F8FAFC" height="40" rx="8" ry="8" style="stroke:#0F172A;stroke-width:0.5;" width="58.2549" x="4119.34" y="447"/><text fill="#0F172A" font-family="Helvetica" font-size="14" lengthAdjust="spacing" textLength="48.2549" x="4124.34" y="470.7803">Deleted</text><rect fill="#F8FAFC" height="40" rx="8" ry="8" style="stroke:#0F172A;stroke-width:0.5;" width="152.4268" x="3550.18" y="447"/><text fill="#0F172A" font-family="Helvetica" font-size="14" lengthAdjust="spacing" textLength="142.4268" x="3555.18" y="470.7803">DeleteCleanupBlocked</text><ellipse cx="16" cy="454" fill="#222222" rx="10" ry="10" style="stroke:#222222;stroke-width:1;"/><g class="entity" data-qualified-name="GMN2" data-source-line="55" id="ent0003"><path d="M2540.78,49 L2540.78,272.5 L2374.96,284.78 L2540.78,280.5 L2540.78,477 A8,8 0 0 0 2548.78,485 L3074.446,485 A8,8 0 0 0 3082.446,477 L3082.446,51 L3072.446,41 L2548.78,41 A8,8 0 0 0 2540.78,49" fill="#FFF7D6" style="stroke:#B45309;stroke-width:0.5;"/><path d="M3072.446,41 L3072.446,47 A4,4 0 0 0 3076.446,51 L3082.446,51 L3072.446,41" fill="#FFF7D6" style="stroke:#B45309;stroke-width:0.5;"/><text fill="#334155" font-family="Helvetica" font-size="14" lengthAdjust="spacing" textLength="101.165" x="2546.78" y="56.7803">shared diagram:</text><text fill="#334155" font-family="Helvetica" font-size="14" lengthAdjust="spacing" textLength="331.4814" x="2546.78" y="70.7803">shared/diagrams/shared-controller-state-machine.svg</text><text fill="#334155" font-family="Helvetica" font-size="14" lengthAdjust="spacing" textLength="304.2744" x="2546.78" y="84.7803">Start from the shared controller phase model and</text><text fill="#334155" font-family="Helvetica" font-size="14" lengthAdjust="spacing" textLength="261.4678" x="2546.78" y="98.7803">specialize imported provider states, delete</text><text fill="#334155" font-family="Helvetica" font-size="14" lengthAdjust="spacing" textLength="184.4336" x="2546.78" y="112.7803">targets, and failure exits here.</text><text fill="#334155" font-family="Helvetica" font-size="14" lengthAdjust="spacing" textLength="281.709" x="2546.78" y="126.7803">archetype batch: Generated service-manager</text><text fill="#334155" font-family="Helvetica" font-size="14" lengthAdjust="spacing" textLength="287.9229" x="2546.78" y="140.7803">controllers map provider states into the shared</text><text fill="#334155" font-family="Helvetica" font-size="14" lengthAdjust="spacing" textLength="261.4609" x="2546.78" y="154.7803">controller phases with explicit finalizer and</text><text fill="#334155" font-family="Helvetica" font-size="14" lengthAdjust="spacing" textLength="105.8477" x="2546.78" y="168.7803">requeue policies.</text><text fill="#334155" font-family="Helvetica" font-size="14" lengthAdjust="spacing" textLength="151.7578" x="2546.78" y="182.7803">service: containerengine</text><text fill="#334155" font-family="Helvetica" font-size="14" lengthAdjust="spacing" textLength="29.5723" x="2546.78" y="196.7803">slug:</text><text fill="#334155" font-family="Helvetica" font-size="14" lengthAdjust="spacing" textLength="357.2119" x="2546.78" y="210.7803">containerengineclusterstartcredentialrotationmanagement</text><text fill="#334155" font-family="Helvetica" font-size="14" lengthAdjust="spacing" textLength="29.5723" x="2546.78" y="224.7803">kind:</text><text fill="#334155" font-family="Helvetica" font-size="14" lengthAdjust="spacing" textLength="374.3291" x="2546.78" y="238.7803">ContainerengineClusterStartCredentialRotationManagement</text><text fill="#334155" font-family="Helvetica" font-size="14" lengthAdjust="spacing" textLength="241.2402" x="2546.78" y="252.7803">archetype: generated-service-manager</text><text fill="#334155" font-family="Helvetica" font-size="14" lengthAdjust="spacing" textLength="156.4063" x="2546.78" y="266.7803">status/finalizer: required /</text><text fill="#334155" font-family="Helvetica" font-size="14" lengthAdjust="spacing" textLength="174.3027" x="2546.78" y="280.7803">retain-until-confirmed-delete</text><text fill="#334155" font-family="Helvetica" font-size="14" lengthAdjust="spacing" textLength="272.3984" x="2546.78" y="294.7803">requeue: provisioning, updating, terminating</text><text fill="#334155" font-family="Helvetica" font-size="14" lengthAdjust="spacing" textLength="295.6816" x="2546.78" y="308.7803">provider states: create PROVISIONING; update</text><text fill="#334155" font-family="Helvetica" font-size="14" lengthAdjust="spacing" textLength="192.165" x="2546.78" y="322.7803">UPDATING; delete DELETING</text><text fill="#334155" font-family="Helvetica" font-size="14" lengthAdjust="spacing" textLength="183.6611" x="2546.78" y="336.7803">supported drift: display_name</text><text fill="#334155" font-family="Helvetica" font-size="14" lengthAdjust="spacing" textLength="230.3301" x="2546.78" y="350.7803">reject before mutate: force-new fields</text><text fill="#334155" font-family="Helvetica" font-size="14" lengthAdjust="spacing" textLength="100.3789" x="2546.78" y="364.7803">compartment_id</text><text fill="#334155" font-family="Helvetica" font-size="14" lengthAdjust="spacing" textLength="66.1445" x="2546.78" y="378.7803">list lookup:</text><text fill="#334155" font-family="Helvetica" font-size="14" lengthAdjust="spacing" textLength="520.666" x="2546.78" y="392.7803">scaffold_containerengine_containerengineclusterstartcredentialrotationmanagement</text><text fill="#334155" font-family="Helvetica" font-size="14" lengthAdjust="spacing" textLength="175.8477" x="2546.78" y="406.7803">filters compartment_id, state</text><text fill="#334155" font-family="Helvetica" font-size="14" lengthAdjust="spacing" textLength="89.4961" x="2546.78" y="420.7803">conflicts: none</text><text fill="#334155" font-family="Helvetica" font-size="14" lengthAdjust="spacing" textLength="104.3164" x="2546.78" y="434.7803">open gaps: none</text><text fill="#334155" font-family="Helvetica" font-size="14" lengthAdjust="spacing" textLength="224.9023" x="2546.78" y="448.7803">Scaffold metadata only; replace with</text><text fill="#334155" font-family="Helvetica" font-size="14" lengthAdjust="spacing" textLength="244.3232" x="2546.78" y="462.7803">controller-specific runtime states before</text><text fill="#334155" font-family="Helvetica" font-size="14" lengthAdjust="spacing" textLength="66.1445" x="2546.78" y="476.7803">promotion.</text></g><g class="entity" data-qualified-name="GMN5" data-source-line="88" id="ent0006"><path d="M3417.45,530 L3417.45,557.57 L2862.85,541.79 L3417.45,565.57 L3417.45,608 A8,8 0 0 0 3425.45,616 L3827.3445,616 A8,8 0 0 0 3835.3445,608 L3835.3445,532 L3825.3445,522 L3425.45,522 A8,8 0 0 0 3417.45,530" fill="#FFF7D6" style="stroke:#B45309;stroke-width:0.5;"/><path d="M3825.3445,522 L3825.3445,528 A4,4 0 0 0 3829.3445,532 L3835.3445,532 L3825.3445,522" fill="#FFF7D6" style="stroke:#B45309;stroke-width:0.5;"/><text fill="#334155" font-family="Helvetica" font-size="14" lengthAdjust="spacing" textLength="136.9717" x="3423.45" y="537.7803">delete policy: required</text><text fill="#334155" font-family="Helvetica" font-size="14" lengthAdjust="spacing" textLength="95.7305" x="3423.45" y="551.7803">delete observe:</text><text fill="#334155" font-family="Helvetica" font-size="14" lengthAdjust="spacing" textLength="396.8945" x="3423.45" y="565.7803">GetContainerengineClusterStartCredentialRotationManagement</text><text fill="#334155" font-family="Helvetica" font-size="14" lengthAdjust="spacing" textLength="12.4482" x="3423.45" y="579.7803">or</text><text fill="#334155" font-family="Helvetica" font-size="14" lengthAdjust="spacing" textLength="396.1152" x="3423.45" y="593.7803">ListContainerengineClusterStartCredentialRotationManagement</text><text fill="#334155" font-family="Helvetica" font-size="14" lengthAdjust="spacing" textLength="157.1855" x="3423.45" y="607.7803">delete targets: DELETED</text></g><!--link *start* to observe--><g class="link" data-entity-1="ent0002" data-entity-2="ent0002" data-link-type="dependency" data-source-line="32" id="lnk3"><path d="M26.22,454 C78.45,454 334.65,454 497.51,454" fill="none" id="*start*-to-observe" style="stroke:#0F172A;stroke-width:1;"/><polygon fill="#0F172A" points="503.51,454,494.51,450,498.51,454,494.51,458,503.51,454" style="stroke:#0F172A;stroke-width:1;"/><text fill="#000000" font-family="Helvetica" font-size="14" lengthAdjust="spacing" textLength="416.3496" x="57" y="449.7803">CreateContainerengineClusterStartCredentialRotationManagement</text></g><!--link observe to resolve_by_lookup--><g class="link" data-entity-1="ent0002" data-entity-2="ent0007" data-link-type="dependency" data-source-line="33" id="lnk4"><path d="M768.64,438.05 C859.55,427.01 970.3337,413.5731 1040.1837,405.0931" fill="none" id="observe-to-resolve_by_lookup" style="stroke:#0F172A;stroke-width:1;"/><polygon fill="#0F172A" points="1046.14,404.37,1036.7235,401.4838,1041.1764,404.9726,1037.6877,409.4255,1046.14,404.37" style="stroke:#0F172A;stroke-width:1;"/><text fill="#000000" font-family="Helvetica" font-size="14" lengthAdjust="spacing" textLength="145.5029" x="799.36" y="412.8403">tracked identity missing</text></g><!--link resolve_by_lookup to evaluate_ready--><g class="link" data-entity-1="ent0007" data-entity-2="ent0003" data-link-type="dependency" data-source-line="34" id="lnk5"><path d="M1169.57,385.58 C1283.1,364.19 1517.77,319.79 1535.36,315 C1545.07,312.36 1549.6038,311.0543 1559.3838,307.7043" fill="none" id="resolve_by_lookup-to-evaluate_ready" style="stroke:#0F172A;stroke-width:1;"/><polygon fill="#0F172A" points="1565.06,305.76,1555.2494,304.8923,1560.3298,307.3803,1557.8419,312.4606,1565.06,305.76" style="stroke:#0F172A;stroke-width:1;"/><text fill="#000000" font-family="Helvetica" font-size="14" lengthAdjust="spacing" textLength="154.0889" x="1325.86" y="296.7803">lookup or create reaches</text><text fill="#000000" font-family="Helvetica" font-size="14" lengthAdjust="spacing" textLength="50.5654" x="1377.6217" y="310.7803">ACTIVE</text></g><!--link resolve_by_lookup to retryable--><g class="link" data-entity-1="ent0007" data-entity-2="ent0005" data-link-type="dependency" data-source-line="35" id="lnk6"><path d="M1169.63,399.87 C1277.21,404.95 1491.8067,415.0973 1576.5967,419.0973" fill="none" id="resolve_by_lookup-to-retryable" style="stroke:#0F172A;stroke-width:1;"/><polygon fill="#0F172A" points="1582.59,419.38,1573.7885,414.9603,1577.5956,419.1444,1573.4115,422.9514,1582.59,419.38" style="stroke:#0F172A;stroke-width:1;"/><text fill="#000000" font-family="Helvetica" font-size="14" lengthAdjust="spacing" textLength="184.3789" x="1310.86" y="386.5403">OCI state in PROVISIONING,</text><text fill="#000000" font-family="Helvetica" font-size="14" lengthAdjust="spacing" textLength="150.1309" x="1327.984" y="400.5403">UPDATING, DELETING</text></g><!--link resolve_by_lookup to failed--><g class="link" data-entity-1="ent0007" data-entity-2="ent0006" data-link-type="dependency" data-source-line="36" id="lnk7"><path d="M1169.63,414.11 C1281.69,445.65 1510.5847,510.0834 1586.6747,531.5134" fill="none" id="resolve_by_lookup-to-failed" style="stroke:#0F172A;stroke-width:1;"/><polygon fill="#0F172A" points="1592.45,533.14,1584.8714,526.8499,1587.6372,531.7845,1582.7026,534.5504,1592.45,533.14" style="stroke:#0F172A;stroke-width:1;"/><text fill="#000000" font-family="Helvetica" font-size="14" lengthAdjust="spacing" textLength="263.7783" x="1271.36" y="439.0303">unresolved OCI error or non-success state</text></g><!--link observe to evaluate_ready--><g class="link" data-entity-1="ent0002" data-entity-2="ent0003" data-link-type="dependency" data-source-line="37" id="lnk8"><path d="M713.96,422.64 C740.45,412.43 770.47,401.55 798.36,393 C1004.5,329.82 1056.22,306.06 1270.36,281 C1374.33,268.83 1491.0497,275.0341 1558.9897,280.5541" fill="none" id="observe-to-evaluate_ready" style="stroke:#0F172A;stroke-width:1;"/><polygon fill="#0F172A" points="1564.97,281.04,1556.3235,276.3243,1559.9864,280.6351,1555.6756,284.298,1564.97,281.04" style="stroke:#0F172A;stroke-width:1;"/><text fill="#000000" font-family="Helvetica" font-size="14" lengthAdjust="spacing" textLength="128.3721" x="1043.86" y="280.9503">OCI state in ACTIVE</text></g><!--link observe to retryable--><g class="link" data-entity-1="ent0002" data-entity-2="ent0005" data-link-type="dependency" data-source-line="38" id="lnk9"><path d="M768.47,458.33 C831.11,460.38 907.11,462.85 975.36,465 C1224.16,472.84 1296.72,544.79 1535.36,474 C1546.77,470.62 1565.445,458.3638 1584.305,444.9138" fill="none" id="observe-to-retryable" style="stroke:#0F172A;stroke-width:1;"/><polygon fill="#0F172A" points="1589.19,441.43,1579.54,443.3989,1585.1191,444.3331,1584.185,449.9123,1589.19,441.43" style="stroke:#0F172A;stroke-width:1;"/><text fill="#000000" font-family="Helvetica" font-size="14" lengthAdjust="spacing" textLength="184.3789" x="1015.86" y="446.7803">OCI state in PROVISIONING,</text><text fill="#000000" font-family="Helvetica" font-size="14" lengthAdjust="spacing" textLength="150.1309" x="1032.984" y="460.7803">UPDATING, DELETING</text></g><!--link observe to failed--><g class="link" data-entity-1="ent0002" data-entity-2="ent0006" data-link-type="dependency" data-source-line="39" id="lnk10"><path d="M768.52,484.76 C830.83,498.03 906.56,512.26 975.36,520 C1214.8,546.92 1501.4516,542.7695 1586.5616,540.7895" fill="none" id="observe-to-failed" style="stroke:#0F172A;stroke-width:1;"/><polygon fill="#0F172A" points="1592.56,540.65,1583.4694,536.8604,1587.5614,540.7663,1583.6555,544.8582,1592.56,540.65" style="stroke:#0F172A;stroke-width:1;"/><text fill="#000000" font-family="Helvetica" font-size="14" lengthAdjust="spacing" textLength="263.7783" x="976.36" y="515.7803">unresolved OCI error or non-success state</text></g><!--link evaluate_ready to reject_unsupported_drift--><g class="link" data-entity-1="ent0003" data-entity-2="ent0008" data-link-type="dependency" data-source-line="40" id="lnk11"><path d="M1642.06,306.48 C1657.49,318.89 1678.81,333.85 1700.32,342 C1764.53,366.35 1836.6042,373.9058 1893.3042,376.0258" fill="none" id="evaluate_ready-to-reject_unsupported_drift" style="stroke:#0F172A;stroke-width:1;"/><polygon fill="#0F172A" points="1899.3,376.25,1890.4557,371.9165,1894.3035,376.0632,1890.1568,379.9109,1899.3,376.25" style="stroke:#0F172A;stroke-width:1;"/><text fill="#000000" font-family="Helvetica" font-size="14" lengthAdjust="spacing" textLength="143.9512" x="1711.32" y="323.7803">force-new or conflicting</text><text fill="#000000" font-family="Helvetica" font-size="14" lengthAdjust="spacing" textLength="80.9375" x="1742.8268" y="337.7803">drift detected</text></g><!--link reject_unsupported_drift to ready--><g class="link" data-entity-1="ent0008" data-entity-2="ent0004" data-link-type="dependency" data-source-line="41" id="lnk12"><path d="M2055.32,375.06 C2121.2,371.77 2217.3,361 2294.32,328 C2306.36,322.84 2313.4802,318.2363 2322.9202,310.2463" fill="none" id="reject_unsupported_drift-to-ready" style="stroke:#0F172A;stroke-width:1;"/><polygon fill="#0F172A" points="2327.5,306.37,2318.0461,309.1313,2323.6835,309.6003,2323.2146,315.2376,2327.5,306.37" style="stroke:#0F172A;stroke-width:1;"/><text fill="#000000" font-family="Helvetica" font-size="14" lengthAdjust="spacing" textLength="203.8818" x="2090.32" y="323.7803">wait for spec or live state change</text></g><!--link evaluate_ready to apply_update--><g class="link" data-entity-1="ent0003" data-entity-2="ent0009" data-link-type="dependency" data-source-line="42" id="lnk13"><path d="M1670.72,268.96 C1680.49,266.07 1690.67,263.27 1700.32,261 C1781.17,241.95 1871.2022,228.6097 1926.0322,221.3297" fill="none" id="evaluate_ready-to-apply_update" style="stroke:#0F172A;stroke-width:1;"/><polygon fill="#0F172A" points="1931.98,220.54,1922.5318,217.7594,1927.0235,221.1981,1923.5848,225.6898,1931.98,220.54" style="stroke:#0F172A;stroke-width:1;"/><text fill="#000000" font-family="Helvetica" font-size="14" lengthAdjust="spacing" textLength="163.4199" x="1701.32" y="212.0903">supported mutable drift for</text><text fill="#000000" font-family="Helvetica" font-size="14" lengthAdjust="spacing" textLength="86.3857" x="1739.8371" y="226.0903">display_name</text></g><!--link apply_update to ready--><g class="link" data-entity-1="ent0009" data-entity-2="ent0004" data-link-type="dependency" data-source-line="43" id="lnk14"><path d="M2022.88,217.45 C2084.86,221.76 2200.1,233.07 2294.32,261 C2304.36,263.98 2309.5025,265.9001 2318.6125,270.2801" fill="none" id="apply_update-to-ready" style="stroke:#0F172A;stroke-width:1;"/><polygon fill="#0F172A" points="2324.02,272.88,2317.642,265.3752,2319.5138,270.7135,2314.1756,272.5852,2324.02,272.88" style="stroke:#0F172A;stroke-width:1;"/><text fill="#000000" font-family="Helvetica" font-size="14" lengthAdjust="spacing" textLength="141.6543" x="2121.32" y="219.4503">update path completes</text></g><!--link evaluate_ready to ready--><g class="link" data-entity-1="ent0003" data-entity-2="ent0004" data-link-type="dependency" data-source-line="44" id="lnk15"><path d="M1670.73,286 C1815.46,286 2213.77,286 2317.86,286" fill="none" id="evaluate_ready-to-ready" style="stroke:#0F172A;stroke-width:1;"/><polygon fill="#0F172A" points="2323.86,286,2314.86,282,2318.86,286,2314.86,290,2323.86,286" style="stroke:#0F172A;stroke-width:1;"/><text fill="#000000" font-family="Helvetica" font-size="14" lengthAdjust="spacing" textLength="162.6406" x="1896.32" y="281.7803">no supported drift remains</text></g><!--link ready to ready--><g class="link" data-entity-1="ent0004" data-entity-2="ent0004" data-link-type="dependency" data-source-line="45" id="lnk16"><path d="M2332.35,265.69 C2325,248.73 2330.74,231 2349.55,231 C2368.36,231 2376.4858,243.2247 2369.1358,260.1847" fill="none" id="ready-to-ready" style="stroke:#0F172A;stroke-width:1;"/><polygon fill="#0F172A" points="2366.75,265.69,2373.9989,259.0227,2368.7382,261.1023,2366.6586,255.8416,2366.75,265.69" style="stroke:#0F172A;stroke-width:1;"/><text fill="#000000" font-family="Helvetica" font-size="14" lengthAdjust="spacing" textLength="162.6406" x="2268.55" y="221.7803">no supported drift remains</text></g><!--link retryable to retryable--><g class="link" data-entity-1="ent0005" data-entity-2="ent0005" data-link-type="dependency" data-source-line="46" id="lnk17"><path d="M1591.63,400.69 C1580.42,383.73 1589.16,366 1617.84,366 C1646.52,366 1658.5564,378.7232 1647.3564,395.6832" fill="none" id="retryable-to-retryable" style="stroke:#0F172A;stroke-width:1;"/><polygon fill="#0F172A" points="1644.05,400.69,1652.3474,395.3841,1646.8053,396.5177,1645.6717,390.9756,1644.05,400.69" style="stroke:#0F172A;stroke-width:1;"/><text fill="#000000" font-family="Helvetica" font-size="14" lengthAdjust="spacing" textLength="136.9307" x="1549.84" y="356.7803">OCI remains retryable</text></g><!--link failed to failed--><g class="link" data-entity-1="ent0006" data-entity-2="ent0006" data-link-type="dependency" data-source-line="47" id="lnk18"><path d="M1592.41,520.83 C1580.04,503.53 1588.52,485 1617.84,485 C1647.16,485 1659.1298,498.6493 1646.7598,515.9493" fill="none" id="failed-to-failed" style="stroke:#0F172A;stroke-width:1;"/><polygon fill="#0F172A" points="1643.27,520.83,1651.7585,515.8355,1646.1782,516.7628,1645.251,511.1824,1643.27,520.83" style="stroke:#0F172A;stroke-width:1;"/><text fill="#000000" font-family="Helvetica" font-size="14" lengthAdjust="spacing" textLength="132.2549" x="1551.84" y="475.7803">OCI remains terminal</text></g><!--link ready to delete_pending--><g class="link" data-entity-1="ent0004" data-entity-2="ent0010" data-link-type="dependency" data-source-line="48" id="lnk19"><path d="M2375.04,301.51 C2409.67,324.58 2472.93,371.03 2510.78,425 C2532.11,455.41 2511.67,479.94 2540.78,503 C2603.52,552.69 2695.2668,553.4167 2754.2968,547.8167" fill="none" id="ready-to-delete_pending" style="stroke:#0F172A;stroke-width:1;"/><polygon fill="#0F172A" points="2760.27,547.25,2750.9325,544.1179,2755.2923,547.7222,2751.688,552.0821,2760.27,547.25" style="stroke:#0F172A;stroke-width:1;"/><text fill="#000000" font-family="Helvetica" font-size="14" lengthAdjust="spacing" textLength="104.3027" x="2405.78" y="319.3703">delete requested</text></g><!--link retryable to delete_pending--><g class="link" data-entity-1="ent0005" data-entity-2="ent0010" data-link-type="dependency" data-source-line="49" id="lnk20"><path d="M1653.22,424.43 C1821.72,441.26 2554.2597,514.4038 2754.4397,534.3938" fill="none" id="retryable-to-delete_pending" style="stroke:#0F172A;stroke-width:1;"/><polygon fill="#0F172A" points="2760.41,534.99,2751.852,530.1155,2755.4347,534.4932,2751.0571,538.0759,2760.41,534.99" style="stroke:#0F172A;stroke-width:1;"/><text fill="#000000" font-family="Helvetica" font-size="14" lengthAdjust="spacing" textLength="104.3027" x="2139.82" y="464.0003">delete requested</text></g><!--link failed to delete_pending--><g class="link" data-entity-1="ent0006" data-entity-2="ent0010" data-link-type="dependency" data-source-line="50" id="lnk21"><path d="M1643.19,540 C1789.81,540 2549.84,540 2754.37,540" fill="none" id="failed-to-delete_pending" style="stroke:#0F172A;stroke-width:1;"/><polygon fill="#0F172A" points="2760.37,540,2751.37,536,2755.37,540,2751.37,544,2760.37,540" style="stroke:#0F172A;stroke-width:1;"/><text fill="#000000" font-family="Helvetica" font-size="14" lengthAdjust="spacing" textLength="104.3027" x="2139.82" y="535.7803">delete requested</text></g><!--link delete_pending to delete_cleanup_blocked--><g class="link" data-entity-1="ent0010" data-entity-2="ent0012" data-link-type="dependency" data-source-line="51" id="lnk22"><path d="M2862.85,535.49 C3000.77,523.1 3379.9641,489.0468 3543.9541,474.3168" fill="none" id="delete_pending-to-delete_cleanup_blocked" style="stroke:#0F172A;stroke-width:1;"/><polygon fill="#0F172A" points="3549.93,473.78,3540.6082,470.6012,3544.95,474.2273,3541.3239,478.5691,3549.93,473.78" style="stroke:#0F172A;stroke-width:1;"/><text fill="#000000" font-family="Helvetica" font-size="14" lengthAdjust="spacing" textLength="273.1436" x="3113.45" y="484.3503">cleanup or finalizer release remains blocked</text></g><!--link delete_cleanup_blocked to deleted--><g class="link" data-entity-1="ent0012" data-entity-2="ent0011" data-link-type="dependency" data-source-line="52" id="lnk23"><path d="M3703.02,467 C3820.36,467 4034.91,467 4113.1,467" fill="none" id="delete_cleanup_blocked-to-deleted" style="stroke:#0F172A;stroke-width:1;"/><polygon fill="#0F172A" points="4119.1,467,4110.1,463,4114.1,467,4110.1,471,4119.1,467" style="stroke:#0F172A;stroke-width:1;"/><text fill="#000000" font-family="Helvetica" font-size="14" lengthAdjust="spacing" textLength="222.5645" x="3866.34" y="462.7803">retry delete completion until allowed</text></g><!--link deleted to deleted--><g class="link" data-entity-1="ent0011" data-entity-2="ent0011" data-link-type="dependency" data-source-line="53" id="lnk24"><path d="M4121.28,446.69 C4109.66,429.73 4118.73,412 4148.47,412 C4178.22,412 4190.6712,424.7803 4179.0512,441.7403" fill="none" id="deleted-to-deleted" style="stroke:#0F172A;stroke-width:1;"/><polygon fill="#0F172A" points="4175.66,446.69,4184.0467,441.5263,4178.486,442.5653,4177.4471,437.0046,4175.66,446.69" style="stroke:#0F172A;stroke-width:1;"/><text fill="#000000" font-family="Helvetica" font-size="14" lengthAdjust="spacing" textLength="92.5859" x="4102.47" y="402.7803">terminal stutter</text></g><?plantuml-src dLVTRzis47_dNq5qRqESD6lwCHSOq3ff5o1jYgJjopeOD7cIkLAaHb99tM7_--v8IfQL1CMCF4IyE_xk-uuENxLjXHSD3skXtAssDQ-42S32m5a9-RNshhDguOpp_ATAufyQIIYeH6VY6sVZUz40_ntC3KGjnVqor_exyEEJ4LDuxsuB-kFg-FaluvlMHNXznuQgUgwUJQMSL-2BnEhawPF7lquaI7tXFtboSlpqwOYVuANp5Zm_ViQYZWRuTHGH-3iXrze2dt69008_FTWQ_nqjTiyBquK87c_vkF2Wm4Ojp9L35EtiEs553GqIHsf3ql0Fu_S4-aKbAacSiMCbG9nNMsS6MaYQC_5OdO1wWKGO48lSlyn05NbqtEjw7RdI7YHPoDPQ0OUcZHlCM91UjucSZNnqkGhWR-0H5u6x_Dsppcw4wV3h2eJQ904ebAKdKY-tvK_8qM_4oa1XbLFFVYEq0PLuLVfaHJsV9nmUMf07F7eC8QWKqouSe0i6yBgs4MD-yCKAgxZiF2Ohyil5EJUw0hcHMprN41pMxklDXNDVkxOOasZBrMPf4dKh_1T6xPCDNTiw7q6TUbt5SeTOosxBMofYzbTVjQtPV6eL7fAyeFEoIuHUvZGP_m6JXrsPfB8xopQJTkNKI4BjiXO6XEtQryPHSCP8CdEMgynYV_py9v_DVkFRu68H8zA-LTxZ4EQTC29wdo-T8B3c6Xq2kNPNc21sAmhl5nvMjansKYt8DOGlzjNYu_ddimTmXl9222g372rj-OUhoy_dr-UNxy_VlyLo-VJXzDL7-kIdPnTdzFK0OAv9HEji4L09672kUJBFEZiBdPGGGjQs4vexVkqOLLpPZUNU3enXzZ1xOcesvlvQHzpAUGap2xSfHSvMHkEOiVKNcoKK5g6aUdqG8ol8KRaLEX9aQdP2D1eToRxBjR3rlUQDMmj11WMywM8AOLQ4k6YL3gqHcwN5BSPsBexjAAHMn3KwrRJKIk7-oEGBretKPdKU6coemFwdS9_s-ugWI8s6PydlJgh7ajZ3ZRR2ZApO7J4eNqQeXxyx23bLOoD-B3youiV24udHfScemik5GeLGaHVugl08XTG0WulzP7i0PQj0fKs2hlL6bSpYGCFsYDfmOOox7Q2cT_jOOZrs4G-CdXjblRggNtPhuIchMjIu-kVbV5JEuIYVP_J8yCuOyBDKtRCclpyEmqtDqjJbbNSDZslW1N9xXRTh2a3Zq3QE2uzHj-WK7gwRKbUjTpSuT7tkdc5JCiIk8UAPDYLbhlFu7FYcO-1hdFw7J7YSht7J0hvMebpF-Ll0jI08a-QAbcGipN_FjYO5teXsgfEsiXkvmAOk17whiSFWMujJWpf_I39vbMgcmovqn8Lmo8h--VIDneBfwZcRK6NUOUcz98STviiEQxOx31zgQixstO13lEQyxYCrcqOgFrUE1WVdgICqvVM8-WqLpr8DKcLKsZU8KH9MmZ3FqGse7Flc88-ez5NgaWviae5vlpN7M-Db6M-itnql-uOOLiXaF64RZyTc7kLy1JXH8GtP2EDDK6amAZ1gBmmU1Mcf5JCwnBBEiIsag2fdr7AIi-M-EQoq8Jc-g_IWxBH-CGKQlbWl3iSFhqNRdw-BERp1L61i17VMR5vYaj1h2QbCsRXdgU4gBRcdf3NG5tmE2MMXSMJW8SCnbtwMJ8R5v9rNufygVREjZPvUDlgSlOMuzqFDimlCmBxNYoLbUinpgPoT3lxz1m00?></g></svg>