<?plantuml 1.2026.1?><svg xmlns="http://www.w3.org/2000/svg" xmlns:xlink="http://www.w3.org/1999/xlink" contentStyleType="text/css" data-diagram-type="SEQUENCE" height="1357px" preserveAspectRatio="none" style="width:1550px;height:1357px;background:#FCFCFD;" version="1.1" viewBox="0 0 1550 1357" width="1550px" zoomAndPan="magnify"><title>Sequence - osmanagementhub/OsManagementHubManagedInstanceUpdatablePackages</title><defs/><g><rect fill="#FCFCFD" height="1357" style="stroke:none;stroke-width:1;" width="1550" x="0" y="0"/><text fill="#000000" font-family="Helvetica" font-size="14" font-weight="bold" lengthAdjust="spacing" textLength="592.04" x="480.2622" y="25.7803">Sequence - osmanagementhub/OsManagementHubManagedInstanceUpdatablePackages</text><rect fill="none" height="86" rx="8" ry="8" style="stroke:#CBD5E1;stroke-width:1.5;" width="567.3286" x="966.2358" y="361"/><rect fill="none" height="204" rx="8" ry="8" style="stroke:#CBD5E1;stroke-width:1.5;" width="587.3286" x="956.2358" y="461"/><rect fill="none" height="44" rx="8" ry="8" style="stroke:#CBD5E1;stroke-width:1.5;" width="567.3286" x="966.2358" y="512"/><rect fill="none" height="44" rx="8" ry="8" style="stroke:#CBD5E1;stroke-width:1.5;" width="567.3286" x="966.2358" y="614"/><rect fill="none" height="130" rx="8" ry="8" style="stroke:#CBD5E1;stroke-width:1.5;" width="587.3286" x="956.2358" y="679"/><rect fill="none" height="72" rx="8" ry="8" style="stroke:#CBD5E1;stroke-width:1.5;" width="567.3286" x="966.2358" y="730"/><g class="participant-lifeline" data-entity-uid="part1" data-qualified-name="Kubernetes" id="part1-lifeline"><g><title>Kubernetes</title><rect fill="#000000" fill-opacity="0.00000" height="1236" width="8" x="39.8032" y="114"/><line style="stroke:#94A3B8;stroke-width:0.5;stroke-dasharray:5,5;" x1="43" x2="43" y1="114" y2="1350"/></g></g><g class="participant-lifeline" data-entity-uid="part2" data-qualified-name="Controller" id="part2-lifeline"><g><title>Controller</title><rect fill="#000000" fill-opacity="0.00000" height="1236" width="8" x="425.7046" y="114"/><line style="stroke:#94A3B8;stroke-width:0.5;stroke-dasharray:5,5;" x1="429.3599" x2="429.3599" y1="114" y2="1350"/></g></g><g class="participant-lifeline" data-entity-uid="part3" data-qualified-name="BaseReconciler" id="part3-lifeline"><g><title>BaseReconciler</title><rect fill="#000000" fill-opacity="0.00000" height="1236" width="8" x="664.5308" y="114"/><line style="stroke:#94A3B8;stroke-width:0.5;stroke-dasharray:5,5;" x1="668.5068" x2="668.5068" y1="114" y2="1350"/></g></g><g class="participant-lifeline" data-entity-uid="part4" data-qualified-name="ServiceManager" id="part4-lifeline"><g><title>OSOKServiceManager</title><rect fill="#000000" fill-opacity="0.00000" height="1236" width="8" x="1050.4321" y="114"/><line style="stroke:#94A3B8;stroke-width:0.5;stroke-dasharray:5,5;" x1="1054.2358" x2="1054.2358" y1="114" y2="1350"/></g></g><g class="participant-lifeline" data-entity-uid="part5" data-qualified-name="OCI" id="part5-lifeline"><g><title>OCI</title><rect fill="#000000" fill-opacity="0.00000" height="1236" width="8" x="1500.1196" y="114"/><line style="stroke:#94A3B8;stroke-width:0.5;stroke-dasharray:5,5;" x1="1503.6748" x2="1503.6748" y1="114" y2="1350"/></g></g><g class="participant participant-head" data-entity-uid="part1" data-qualified-name="Kubernetes" id="part1-head"><text fill="#000000" font-family="Helvetica" font-size="14" lengthAdjust="spacing" textLength="71.6064" x="5" y="110.7803">Kubernetes</text><ellipse cx="43.8032" cy="48.5" fill="#E2E8F0" rx="8" ry="8" style="stroke:#0F172A;stroke-width:0.5;"/><path d="M43.8032,56.5 L43.8032,83.5 M30.8032,64.5 L56.8032,64.5 M43.8032,83.5 L30.8032,98.5 M43.8032,83.5 L56.8032,98.5" fill="none" style="stroke:#0F172A;stroke-width:0.5;"/></g><g class="participant participant-head" data-entity-uid="part2" data-qualified-name="Controller" id="part2-head"><rect fill="#E2E8F0" height="28" rx="8" ry="8" style="stroke:#0F172A;stroke-width:0.5;" width="74.6895" x="392.3599" y="85"/><text fill="#0F172A" font-family="Helvetica" font-size="14" lengthAdjust="spacing" textLength="60.6895" x="399.3599" y="102.7803">Controller</text></g><g class="participant participant-head" data-entity-uid="part3" data-qualified-name="BaseReconciler" id="part3-head"><rect fill="#E2E8F0" height="28" rx="8" ry="8" style="stroke:#0F172A;stroke-width:0.5;" width="112.0479" x="612.5068" y="85"/><text fill="#0F172A" font-family="Helvetica" font-size="14" lengthAdjust="spacing" textLength="98.0479" x="619.5068" y="102.7803">BaseReconciler</text></g><g class="participant participant-head" data-entity-uid="part4" data-qualified-name="ServiceManager" id="part4-head"><rect fill="#E2E8F0" height="28" rx="8" ry="8" style="stroke:#0F172A;stroke-width:0.5;" width="156.3926" x="976.2358" y="85"/><text fill="#0F172A" font-family="Helvetica" font-size="14" lengthAdjust="spacing" textLength="142.3926" x="983.2358" y="102.7803">OSOKServiceManager</text></g><g class="participant participant-head" data-entity-uid="part5" data-qualified-name="OCI" id="part5-head"><rect fill="#E2E8F0" height="28" rx="8" ry="8" style="stroke:#0F172A;stroke-width:0.5;" width="38.8896" x="1484.6748" y="85"/><text fill="#0F172A" font-family="Helvetica" font-size="14" lengthAdjust="spacing" textLength="24.8896" x="1491.6748" y="102.7803">OCI</text></g><path d="M603,137 L603,187 A8,8 0 0 0 611,195 L1110,195 A8,8 0 0 0 1118,187 L1118,139 L1108,129 L611,129 A8,8 0 0 0 603,137" fill="#FFF7D6" style="stroke:#B45309;stroke-width:0.5;"/><path d="M1108,129 L1108,135 A4,4 0 0 0 1112,139 L1118,139 L1108,129" fill="#FFF7D6" style="stroke:#B45309;stroke-width:0.5;"/><text fill="#334155" font-family="Helvetica" font-size="14" lengthAdjust="spacing" textLength="111.2891" x="702.365" y="144.7803">shared resolution:</text><text fill="#334155" font-family="Helvetica" font-size="14" lengthAdjust="spacing" textLength="307.3916" x="702.365" y="158.7803">shared/diagrams/shared-resolution-sequence.svg</text><text fill="#334155" font-family="Helvetica" font-size="14" lengthAdjust="spacing" textLength="88.7305" x="702.365" y="172.7803">shared delete:</text><text fill="#334155" font-family="Helvetica" font-size="14" lengthAdjust="spacing" textLength="284.833" x="702.365" y="186.7803">shared/diagrams/shared-delete-sequence.svg</text><g class="message" data-entity-1="part1" data-entity-2="part2" id="msg1"><polygon fill="#0F172A" points="417.7046,244,427.7046,248,417.7046,252,421.7046,248" style="stroke:#0F172A;stroke-width:1;"/><line style="stroke:#0F172A;stroke-width:1;" x1="43.8032" x2="423.7046" y1="248" y2="248"/><text fill="#000000" font-family="Helvetica" font-size="14" lengthAdjust="spacing" textLength="54.5029" x="50.8032" y="214.7803">enqueue</text><text fill="#000000" font-family="Helvetica" font-size="14" lengthAdjust="spacing" textLength="361.9014" x="50.8032" y="228.7803">OsManagementHubManagedInstanceUpdatablePackages</text><text fill="#000000" font-family="Helvetica" font-size="14" lengthAdjust="spacing" textLength="56.0273" x="50.8032" y="242.7803">reconcile</text></g><g class="message" data-entity-1="part2" data-entity-2="part3" id="msg2"><polygon fill="#0F172A" points="656.5308,272,666.5308,276,656.5308,280,660.5308,276" style="stroke:#0F172A;stroke-width:1;"/><line style="stroke:#0F172A;stroke-width:1;" x1="429.7046" x2="662.5308" y1="276" y2="276"/><text fill="#000000" font-family="Helvetica" font-size="14" lengthAdjust="spacing" textLength="117.4961" x="436.7046" y="270.7803">Reconcile(request)</text></g><g class="message" data-entity-1="part3" data-entity-2="part4" id="msg3"><polygon fill="#0F172A" points="1042.4321,314,1052.4321,318,1042.4321,322,1046.4321,318" style="stroke:#0F172A;stroke-width:1;"/><line style="stroke:#0F172A;stroke-width:1;" x1="668.5308" x2="1048.4321" y1="318" y2="318"/><text fill="#000000" font-family="Helvetica" font-size="14" lengthAdjust="spacing" textLength="105.834" x="675.5308" y="298.7803">reconcile desired</text><text fill="#000000" font-family="Helvetica" font-size="14" lengthAdjust="spacing" textLength="361.9014" x="675.5308" y="312.7803">OsManagementHubManagedInstanceUpdatablePackages</text></g><g class="message" data-entity-1="part4" data-entity-2="part5" id="msg4"><polygon fill="#0F172A" points="1492.1196,342,1502.1196,346,1492.1196,350,1496.1196,346" style="stroke:#0F172A;stroke-width:1;"/><line style="stroke:#0F172A;stroke-width:1;" x1="1054.4321" x2="1498.1196" y1="346" y2="346"/><text fill="#000000" font-family="Helvetica" font-size="14" lengthAdjust="spacing" textLength="384.4668" x="1061.4321" y="340.7803">GetOsManagementHubManagedInstanceUpdatablePackages</text></g><path d="M974.2358,361 L1033.0015,361 L1033.0015,367 L1023.0015,377 L966.2358,377 L966.2358,369 A8,8 0 0 1 974.2358,361" fill="#F8FAFC" style="stroke:#CBD5E1;stroke-width:1.5;"/><rect fill="none" height="86" rx="8" ry="8" style="stroke:#CBD5E1;stroke-width:1.5;" width="567.3286" x="966.2358" y="361"/><text fill="#000000" font-family="Helvetica" font-size="14" font-weight="bold" lengthAdjust="spacing" textLength="21.7656" x="981.2358" y="372.7803">opt</text><text fill="#000000" font-family="Helvetica" font-size="14" font-weight="bold" lengthAdjust="spacing" textLength="135.3516" x="1048.0015" y="373.7803">[list lookup fallback]</text><g class="message" data-entity-1="part4" data-entity-2="part5" id="msg5"><polygon fill="#0F172A" points="1492.1196,407,1502.1196,411,1492.1196,415,1496.1196,411" style="stroke:#0F172A;stroke-width:1;"/><line style="stroke:#0F172A;stroke-width:1;" x1="1054.4321" x2="1498.1196" y1="411" y2="411"/><text fill="#000000" font-family="Helvetica" font-size="14" lengthAdjust="spacing" textLength="425.6875" x="1061.4321" y="391.7803">ListOsManagementHubManagedInstanceUpdatablePackages(filters:</text><text fill="#000000" font-family="Helvetica" font-size="14" lengthAdjust="spacing" textLength="143.1719" x="1061.4321" y="405.7803">compartment_id, state)</text></g><g class="message" data-entity-1="part5" data-entity-2="part4" id="msg6"><polygon fill="#0F172A" points="1065.4321,435,1055.4321,439,1065.4321,443,1061.4321,439" style="stroke:#0F172A;stroke-width:1;"/><line style="stroke:#0F172A;stroke-width:1;stroke-dasharray:2,2;" x1="1059.4321" x2="1503.1196" y1="439" y2="439"/><text fill="#000000" font-family="Helvetica" font-size="14" lengthAdjust="spacing" textLength="156.3994" x="1071.4321" y="433.7803">matching collection items</text></g><path d="M964.2358,461 L1017.5737,461 L1017.5737,467 L1007.5737,477 L956.2358,477 L956.2358,469 A8,8 0 0 1 964.2358,461" fill="#F8FAFC" style="stroke:#CBD5E1;stroke-width:1.5;"/><rect fill="none" height="204" rx="8" ry="8" style="stroke:#CBD5E1;stroke-width:1.5;" width="587.3286" x="956.2358" y="461"/><text fill="#000000" font-family="Helvetica" font-size="14" font-weight="bold" lengthAdjust="spacing" textLength="16.3379" x="971.2358" y="472.7803">alt</text><text fill="#000000" font-family="Helvetica" font-size="14" font-weight="bold" lengthAdjust="spacing" textLength="135.3447" x="1032.5737" y="473.7803">[create or bind path]</text><g class="message" data-entity-1="part4" data-entity-2="part5" id="msg7"><polygon fill="#0F172A" points="1492.1196,493,1502.1196,497,1492.1196,501,1496.1196,497" style="stroke:#0F172A;stroke-width:1;"/><line style="stroke:#0F172A;stroke-width:1;" x1="1054.4321" x2="1498.1196" y1="497" y2="497"/><text fill="#000000" font-family="Helvetica" font-size="14" lengthAdjust="spacing" textLength="403.9219" x="1061.4321" y="491.7803">CreateOsManagementHubManagedInstanceUpdatablePackages</text></g><path d="M974.2358,512 L1040.7808,512 L1040.7808,518 L1030.7808,528 L966.2358,528 L966.2358,520 A8,8 0 0 1 974.2358,512" fill="#F8FAFC" style="stroke:#CBD5E1;stroke-width:1.5;"/><rect fill="none" height="44" rx="8" ry="8" style="stroke:#CBD5E1;stroke-width:1.5;" width="567.3286" x="966.2358" y="512"/><text fill="#000000" font-family="Helvetica" font-size="14" font-weight="bold" lengthAdjust="spacing" textLength="29.5449" x="981.2358" y="523.7803">loop</text><text fill="#000000" font-family="Helvetica" font-size="14" font-weight="bold" lengthAdjust="spacing" textLength="215.4756" x="1055.7808" y="524.7803">[create pending PROVISIONING]</text><g class="message" data-entity-1="part4" data-entity-2="part5" id="msg8"><polygon fill="#0F172A" points="1492.1196,544,1502.1196,548,1492.1196,552,1496.1196,548" style="stroke:#0F172A;stroke-width:1;"/><line style="stroke:#0F172A;stroke-width:1;" x1="1054.4321" x2="1498.1196" y1="548" y2="548"/><text fill="#000000" font-family="Helvetica" font-size="14" lengthAdjust="spacing" textLength="384.4668" x="1061.4321" y="542.7803">GetOsManagementHubManagedInstanceUpdatablePackages</text></g><line style="stroke:#CBD5E1;stroke-width:1;stroke-dasharray:2,2;" x1="956.2358" x2="1543.5645" y1="564" y2="564"/><text fill="#000000" font-family="Helvetica" font-size="14" font-weight="bold" lengthAdjust="spacing" textLength="137.6484" x="961.2358" y="574.7803">[update or drift path]</text><g class="message" data-entity-1="part4" data-entity-2="part5" id="msg9"><polygon fill="#0F172A" points="1492.1196,595,1502.1196,599,1492.1196,603,1496.1196,599" style="stroke:#0F172A;stroke-width:1;"/><line style="stroke:#0F172A;stroke-width:1;" x1="1054.4321" x2="1498.1196" y1="599" y2="599"/><text fill="#000000" font-family="Helvetica" font-size="14" lengthAdjust="spacing" textLength="407.0459" x="1061.4321" y="593.7803">UpdateOsManagementHubManagedInstanceUpdatablePackages</text></g><path d="M974.2358,614 L1040.7808,614 L1040.7808,620 L1030.7808,630 L966.2358,630 L966.2358,622 A8,8 0 0 1 974.2358,614" fill="#F8FAFC" style="stroke:#CBD5E1;stroke-width:1.5;"/><rect fill="none" height="44" rx="8" ry="8" style="stroke:#CBD5E1;stroke-width:1.5;" width="567.3286" x="966.2358" y="614"/><text fill="#000000" font-family="Helvetica" font-size="14" font-weight="bold" lengthAdjust="spacing" textLength="29.5449" x="981.2358" y="625.7803">loop</text><text fill="#000000" font-family="Helvetica" font-size="14" font-weight="bold" lengthAdjust="spacing" textLength="190.5381" x="1055.7808" y="626.7803">[update pending UPDATING]</text><g class="message" data-entity-1="part4" data-entity-2="part5" id="msg10"><polygon fill="#0F172A" points="1492.1196,646,1502.1196,650,1492.1196,654,1496.1196,650" style="stroke:#0F172A;stroke-width:1;"/><line style="stroke:#0F172A;stroke-width:1;" x1="1054.4321" x2="1498.1196" y1="650" y2="650"/><text fill="#000000" font-family="Helvetica" font-size="14" lengthAdjust="spacing" textLength="384.4668" x="1061.4321" y="644.7803">GetOsManagementHubManagedInstanceUpdatablePackages</text></g><path d="M964.2358,679 L1023.0015,679 L1023.0015,685 L1013.0015,695 L956.2358,695 L956.2358,687 A8,8 0 0 1 964.2358,679" fill="#F8FAFC" style="stroke:#CBD5E1;stroke-width:1.5;"/><rect fill="none" height="130" rx="8" ry="8" style="stroke:#CBD5E1;stroke-width:1.5;" width="587.3286" x="956.2358" y="679"/><text fill="#000000" font-family="Helvetica" font-size="14" font-weight="bold" lengthAdjust="spacing" textLength="21.7656" x="971.2358" y="690.7803">opt</text><text fill="#000000" font-family="Helvetica" font-size="14" font-weight="bold" lengthAdjust="spacing" textLength="120.5859" x="1038.0015" y="691.7803">[delete requested]</text><g class="message" data-entity-1="part4" data-entity-2="part5" id="msg11"><polygon fill="#0F172A" points="1492.1196,711,1502.1196,715,1492.1196,719,1496.1196,715" style="stroke:#0F172A;stroke-width:1;"/><line style="stroke:#0F172A;stroke-width:1;" x1="1054.4321" x2="1498.1196" y1="715" y2="715"/><text fill="#000000" font-family="Helvetica" font-size="14" lengthAdjust="spacing" textLength="402.3701" x="1061.4321" y="709.7803">DeleteOsManagementHubManagedInstanceUpdatablePackages</text></g><path d="M974.2358,730 L1040.7808,730 L1040.7808,736 L1030.7808,746 L966.2358,746 L966.2358,738 A8,8 0 0 1 974.2358,730" fill="#F8FAFC" style="stroke:#CBD5E1;stroke-width:1.5;"/><rect fill="none" height="72" rx="8" ry="8" style="stroke:#CBD5E1;stroke-width:1.5;" width="567.3286" x="966.2358" y="730"/><text fill="#000000" font-family="Helvetica" font-size="14" font-weight="bold" lengthAdjust="spacing" textLength="29.5449" x="981.2358" y="741.7803">loop</text><text fill="#000000" font-family="Helvetica" font-size="14" font-weight="bold" lengthAdjust="spacing" textLength="213.124" x="1055.7808" y="742.7803">[delete confirmation DELETING]</text><g class="message" data-entity-1="part4" data-entity-2="part5" id="msg12"><polygon fill="#0F172A" points="1492.1196,790,1502.1196,794,1492.1196,798,1496.1196,794" style="stroke:#0F172A;stroke-width:1;"/><line style="stroke:#0F172A;stroke-width:1;" x1="1054.4321" x2="1498.1196" y1="794" y2="794"/><text fill="#000000" font-family="Helvetica" font-size="14" lengthAdjust="spacing" textLength="384.4668" x="1061.4321" y="760.7803">GetOsManagementHubManagedInstanceUpdatablePackages</text><text fill="#000000" font-family="Helvetica" font-size="14" lengthAdjust="spacing" textLength="12.4482" x="1061.4321" y="774.7803">or</text><text fill="#000000" font-family="Helvetica" font-size="14" lengthAdjust="spacing" textLength="383.6875" x="1061.4321" y="788.7803">ListOsManagementHubManagedInstanceUpdatablePackages</text></g><g class="message" data-entity-1="part4" data-entity-2="part3" id="msg13"><polygon fill="#0F172A" points="679.5308,846,669.5308,850,679.5308,854,675.5308,850" style="stroke:#0F172A;stroke-width:1;"/><line style="stroke:#0F172A;stroke-width:1;stroke-dasharray:2,2;" x1="673.5308" x2="1053.4321" y1="850" y2="850"/><text fill="#000000" font-family="Helvetica" font-size="14" lengthAdjust="spacing" textLength="100.7822" x="685.5308" y="830.7803">status=required,</text><text fill="#000000" font-family="Helvetica" font-size="14" lengthAdjust="spacing" textLength="230.7197" x="685.5308" y="844.7803">finalizer=retain-until-confirmed-delete</text></g><g class="message" data-entity-1="part3" data-entity-2="part2" id="msg14"><polygon fill="#0F172A" points="440.7046,888,430.7046,892,440.7046,896,436.7046,892" style="stroke:#0F172A;stroke-width:1;"/><line style="stroke:#0F172A;stroke-width:1;stroke-dasharray:2,2;" x1="434.7046" x2="667.5308" y1="892" y2="892"/><text fill="#000000" font-family="Helvetica" font-size="14" lengthAdjust="spacing" textLength="214.8262" x="446.7046" y="872.7803">requeue on provisioning, updating,</text><text fill="#000000" font-family="Helvetica" font-size="14" lengthAdjust="spacing" textLength="69.2549" x="446.7046" y="886.7803">terminating</text></g><path d="M1059,913 L1059,1327 A8,8 0 0 0 1067,1335 L1433,1335 A8,8 0 0 0 1441,1327 L1441,915 L1431,905 L1067,905 A8,8 0 0 0 1059,913" fill="#FFF7D6" style="stroke:#B45309;stroke-width:0.5;"/><path d="M1431,905 L1431,911 A4,4 0 0 0 1435,915 L1441,915 L1431,905" fill="#FFF7D6" style="stroke:#B45309;stroke-width:0.5;"/><text fill="#334155" font-family="Helvetica" font-size="14" lengthAdjust="spacing" textLength="101.165" x="1065" y="920.7803">shared diagram:</text><text fill="#334155" font-family="Helvetica" font-size="14" lengthAdjust="spacing" textLength="307.3916" x="1065" y="934.7803">shared/diagrams/shared-resolution-sequence.svg</text><text fill="#334155" font-family="Helvetica" font-size="14" lengthAdjust="spacing" textLength="143.1992" x="1065" y="948.7803">shared delete diagram:</text><text fill="#334155" font-family="Helvetica" font-size="14" lengthAdjust="spacing" textLength="284.833" x="1065" y="962.7803">shared/diagrams/shared-delete-sequence.svg</text><text fill="#334155" font-family="Helvetica" font-size="14" lengthAdjust="spacing" textLength="280.9297" x="1065" y="976.7803">Start from the shared resolution sequence for</text><text fill="#334155" font-family="Helvetica" font-size="14" lengthAdjust="spacing" textLength="260.7295" x="1065" y="990.7803">OCID binding, datasource pagination, and</text><text fill="#334155" font-family="Helvetica" font-size="14" lengthAdjust="spacing" textLength="163.4268" x="1065" y="1004.7803">create-or-update dispatch.</text><text fill="#334155" font-family="Helvetica" font-size="14" lengthAdjust="spacing" textLength="301.1982" x="1065" y="1018.7803">Layer the shared delete sequence when finalizer</text><text fill="#334155" font-family="Helvetica" font-size="14" lengthAdjust="spacing" textLength="269.2471" x="1065" y="1032.7803">retention, delete confirmation, work-request</text><text fill="#334155" font-family="Helvetica" font-size="14" lengthAdjust="spacing" textLength="199.2334" x="1065" y="1046.7803">polling, or Secret cleanup apply.</text><text fill="#334155" font-family="Helvetica" font-size="14" lengthAdjust="spacing" textLength="281.709" x="1065" y="1060.7803">archetype batch: Generated service-manager</text><text fill="#334155" font-family="Helvetica" font-size="14" lengthAdjust="spacing" textLength="266.1504" x="1065" y="1074.7803">controllers follow the shared resolution and</text><text fill="#334155" font-family="Helvetica" font-size="14" lengthAdjust="spacing" textLength="259.9297" x="1065" y="1088.7803">delete sequences with imported waits and</text><text fill="#334155" font-family="Helvetica" font-size="14" lengthAdjust="spacing" textLength="134.6064" x="1065" y="1102.7803">controller-local policy.</text><text fill="#334155" font-family="Helvetica" font-size="14" lengthAdjust="spacing" textLength="171.9854" x="1065" y="1116.7803">service: osmanagementhub</text><text fill="#334155" font-family="Helvetica" font-size="14" lengthAdjust="spacing" textLength="29.5723" x="1065" y="1130.7803">slug:</text><text fill="#334155" font-family="Helvetica" font-size="14" lengthAdjust="spacing" textLength="351.8184" x="1065" y="1144.7803">osmanagementhubmanagedinstanceupdatablepackages</text><text fill="#334155" font-family="Helvetica" font-size="14" lengthAdjust="spacing" textLength="29.5723" x="1065" y="1158.7803">kind:</text><text fill="#334155" font-family="Helvetica" font-size="14" lengthAdjust="spacing" textLength="361.9014" x="1065" y="1172.7803">OsManagementHubManagedInstanceUpdatablePackages</text><text fill="#334155" font-family="Helvetica" font-size="14" lengthAdjust="spacing" textLength="241.2402" x="1065" y="1186.7803">archetype: generated-service-manager</text><text fill="#334155" font-family="Helvetica" font-size="14" lengthAdjust="spacing" textLength="156.4063" x="1065" y="1200.7803">status/finalizer: required /</text><text fill="#334155" font-family="Helvetica" font-size="14" lengthAdjust="spacing" textLength="174.3027" x="1065" y="1214.7803">retain-until-confirmed-delete</text><text fill="#334155" font-family="Helvetica" font-size="14" lengthAdjust="spacing" textLength="272.3984" x="1065" y="1228.7803">requeue: provisioning, updating, terminating</text><text fill="#334155" font-family="Helvetica" font-size="14" lengthAdjust="spacing" textLength="295.6816" x="1065" y="1242.7803">provider states: create PROVISIONING; update</text><text fill="#334155" font-family="Helvetica" font-size="14" lengthAdjust="spacing" textLength="192.165" x="1065" y="1256.7803">UPDATING; delete DELETING</text><text fill="#334155" font-family="Helvetica" font-size="14" lengthAdjust="spacing" textLength="319.04" x="1065" y="1270.7803">mutable/forceNew: display_name / compartment_id</text><text fill="#334155" font-family="Helvetica" font-size="14" lengthAdjust="spacing" textLength="104.3164" x="1065" y="1284.7803">open gaps: none</text><text fill="#334155" font-family="Helvetica" font-size="14" lengthAdjust="spacing" textLength="224.9023" x="1065" y="1298.7803">Scaffold metadata only; replace with</text><text fill="#334155" font-family="Helvetica" font-size="14" lengthAdjust="spacing" textLength="244.3232" x="1065" y="1312.7803">controller-specific runtime states before</text><text fill="#334155" font-family="Helvetica" font-size="14" lengthAdjust="spacing" textLength="66.1445" x="1065" y="1326.7803">promotion.</text><?plantuml-src jLTjRzis4FxENt7elhI05ITDqgOADc1DkZPe5WVrkay62eewsKGeKYCfUzcm_xwZtY8fTZTd7OmO9kzuTyzpBsJSdTG5jpm7j-AfsKYzX8mhXynraeIBkwKrfKulZ38Mlii4VTAUHeePBvN_oMX_mtE43wZMwANWstNcyW-4evEUa5jhDetrm-pezSl-IMqyldqKGvQzJb-DjOnDqJOQoSdfyU6RaKPmtyYFZq-EJazxyigyC5QZXQDNp4kl4ERuMubQ84HWNCurNsAEsg_AP3fpFtVh3sLIBz8hxJod0v-Bb7kUABobq4dWs4gc29anFZ6_zzowriEV380BR-m0HaD7AnhpW2_nB3iaCHaZncN1jTz-lg_mRwpqgEfiA9dXjTH3ej-SyEFaZAJ1P34GYIGznQDEz2Y9PndF1FkBLTZWOvaWiU-9gruSS461MACKsi7sM-xm4mgZXHoBditciuzpj6ifi4wBVGRSmN1hS6HsSSL2WO1PK_g7jYUZSzGg5bEmw8mglJGwRhQcgUHBogcRrkleGILgqtpWrilMGegAqEuyNOk79r6dLI6p1x8W-g77KGoeIR_4XTwpG1VQjf3PWxrWVKX73DtlvpR4vlmBDbG9XuQanT0P9zXE4hwz0sH3ay49fIs6z-ZtjMGAJyNiwCkOkx88Cq-5ERVBnJNfxkdZUIQLH-lYXHOc3xKM3dwHwGJeXCSNZ2n3j8Mfd7kn2fDOX0o8K3uWFUOkP9znvK5OvA5MBIII2gBWVhKhyejATLz-Y9QYzLAGrn3DxQVPhrVpgzdDrStxRvYAW0dfne4oY2fGgPMP_oggoipJK3LkMbIVRoz__EL_G4H_eSZg7eQcJp3TvUQoqdiIeCO5TLScBTLEA9VBTzVllYsgXJPseP_G1nqTur2s39RG6ANxFh0L9iHaGP0qL_HUiBJfkTHHgRrKKGEs6vAFvize9bRybrHS6Wfhrj8HIPJzILqDuTT2KxFcv2siwgl0okNAWybW-_nlnlL_6_x_Q6NR9J3tD4qWioO7lq9uT1yzl2aoOyEOkQpcH0KuPCUPqfAmuCiAhz4Ju9IWkjyZOwEcHrBfYZ2B3jWrloTMUywQw3j7cnLgw9B5A5bK7PNbBUKvWOsnTr7J5AoW95MnKUlFaQAW0QUGQvhBl2ZK_G7ZLgpGtnT8Zr6A9zGllT8en9GYg78JvKroH9TrH-YLCfiT70N48nGEDjAlGEQ5iS7sXallQcewgv4oWYkWcAMWo1htyVXro9mgbp4RxTOBIaJTAsNRAqNRA_GgJ6EsRuTrzCImR8c9niJKlJNjSbGtHMWpcBAlDrVJFV6kte5-wrGwz0IiRpaNjzT8__euRwOmQwVlULictU3AomhZb2fOu0rkugeQ5R__eiE_65CONgeqRAa0bxmWXzfeP7F1Cyf_2Zb12uHHxwlxSm9DHaB1KgRxQNK52fb90JQGG1xgy251YW03gjo4kZdedc1_0m00?></g></svg>