<?plantuml 1.2026.1?><svg xmlns="http://www.w3.org/2000/svg" xmlns:xlink="http://www.w3.org/1999/xlink" contentStyleType="text/css" data-diagram-type="SEQUENCE" height="1964px" preserveAspectRatio="none" style="width:1150px;height:1964px;background:#FCFCFD;" version="1.1" viewBox="0 0 1150 1964" width="1150px" zoomAndPan="magnify"><title>Sequence - dns/View</title><defs/><g><rect fill="#FCFCFD" height="1964" style="stroke:none;stroke-width:1;" width="1150" x="0" y="0"/><text fill="#000000" font-family="Helvetica" font-size="14" font-weight="bold" lengthAdjust="spacing" textLength="139.2617" x="511.8479" y="25.7803">Sequence - dns/View</text><rect fill="none" height="290" rx="8" ry="8" style="stroke:#CBD5E1;stroke-width:1.5;" width="738.3779" x="389.2598" y="314"/><rect fill="none" height="146" rx="8" ry="8" style="stroke:#CBD5E1;stroke-width:1.5;" width="475.9575" x="641.6802" y="423"/><rect fill="none" height="44" rx="8" ry="8" style="stroke:#CBD5E1;stroke-width:1.5;" width="455.9575" x="651.6802" y="474"/><rect fill="none" height="798" rx="8" ry="8" style="stroke:#CBD5E1;stroke-width:1.5;" width="774.6978" x="369.2598" y="618"/><rect fill="none" height="246" rx="8" ry="8" style="stroke:#CBD5E1;stroke-width:1.5;" width="738.3779" x="379.2598" y="641"/><rect fill="none" height="44" rx="8" ry="8" style="stroke:#CBD5E1;stroke-width:1.5;" width="455.9575" x="651.6802" y="734"/><rect fill="none" height="88" rx="8" ry="8" style="stroke:#CBD5E1;stroke-width:1.5;" width="438.813" x="389.2598" y="792"/><rect fill="none" height="378" rx="8" ry="8" style="stroke:#CBD5E1;stroke-width:1.5;" width="754.6978" x="379.2598" y="989"/><rect fill="none" height="44" rx="8" ry="8" style="stroke:#CBD5E1;stroke-width:1.5;" width="438.813" x="389.2598" y="1088"/><rect fill="none" height="116" rx="8" ry="8" style="stroke:#CBD5E1;stroke-width:1.5;" width="475.9575" x="641.6802" y="1146"/><rect fill="none" height="44" rx="8" ry="8" style="stroke:#CBD5E1;stroke-width:1.5;" width="455.9575" x="651.6802" y="1211"/><g class="participant-lifeline" data-entity-uid="part1" data-qualified-name="Kubernetes" id="part1-lifeline"><g><title>Kubernetes</title><rect fill="#000000" fill-opacity="0.00000" height="1843" width="8" x="39.8032" y="114"/><line style="stroke:#94A3B8;stroke-width:0.5;stroke-dasharray:5,5;" x1="43" x2="43" y1="114" y2="1957"/></g></g><g class="participant-lifeline" data-entity-uid="part2" data-qualified-name="Controller" id="part2-lifeline"><g><title>Controller</title><rect fill="#000000" fill-opacity="0.00000" height="1843" width="8" x="212.4575" y="114"/><line style="stroke:#94A3B8;stroke-width:0.5;stroke-dasharray:5,5;" x1="216.1128" x2="216.1128" y1="114" y2="1957"/></g></g><g class="participant-lifeline" data-entity-uid="part3" data-qualified-name="BaseReconciler" id="part3-lifeline"><g><title>BaseReconciler</title><rect fill="#000000" fill-opacity="0.00000" height="1843" width="8" x="451.2837" y="114"/><line style="stroke:#94A3B8;stroke-width:0.5;stroke-dasharray:5,5;" x1="455.2598" x2="455.2598" y1="114" y2="1957"/></g></g><g class="participant-lifeline" data-entity-uid="part4" data-qualified-name="ServiceManager" id="part4-lifeline"><g><title>OSOKServiceManager</title><rect fill="#000000" fill-opacity="0.00000" height="1843" width="8" x="735.8765" y="114"/><line style="stroke:#94A3B8;stroke-width:0.5;stroke-dasharray:5,5;" x1="739.6802" x2="739.6802" y1="114" y2="1957"/></g></g><g class="participant-lifeline" data-entity-uid="part5" data-qualified-name="OCI" id="part5-lifeline"><g><title>OCI</title><rect fill="#000000" fill-opacity="0.00000" height="1843" width="8" x="1074.1929" y="114"/><line style="stroke:#94A3B8;stroke-width:0.5;stroke-dasharray:5,5;" x1="1077.748" x2="1077.748" y1="114" y2="1957"/></g></g><g class="participant participant-head" data-entity-uid="part1" data-qualified-name="Kubernetes" id="part1-head"><text fill="#000000" font-family="Helvetica" font-size="14" lengthAdjust="spacing" textLength="71.6064" x="5" y="110.7803">Kubernetes</text><ellipse cx="43.8032" cy="48.5" fill="#E2E8F0" rx="8" ry="8" style="stroke:#0F172A;stroke-width:0.5;"/><path d="M43.8032,56.5 L43.8032,83.5 M30.8032,64.5 L56.8032,64.5 M43.8032,83.5 L30.8032,98.5 M43.8032,83.5 L56.8032,98.5" fill="none" style="stroke:#0F172A;stroke-width:0.5;"/></g><g class="participant participant-head" data-entity-uid="part2" data-qualified-name="Controller" id="part2-head"><rect fill="#E2E8F0" height="28" rx="8" ry="8" style="stroke:#0F172A;stroke-width:0.5;" width="74.6895" x="179.1128" y="85"/><text fill="#0F172A" font-family="Helvetica" font-size="14" lengthAdjust="spacing" textLength="60.6895" x="186.1128" y="102.7803">Controller</text></g><g class="participant participant-head" data-entity-uid="part3" data-qualified-name="BaseReconciler" id="part3-head"><rect fill="#E2E8F0" height="28" rx="8" ry="8" style="stroke:#0F172A;stroke-width:0.5;" width="112.0479" x="399.2598" y="85"/><text fill="#0F172A" font-family="Helvetica" font-size="14" lengthAdjust="spacing" textLength="98.0479" x="406.2598" y="102.7803">BaseReconciler</text></g><g class="participant participant-head" data-entity-uid="part4" data-qualified-name="ServiceManager" id="part4-head"><rect fill="#E2E8F0" height="28" rx="8" ry="8" style="stroke:#0F172A;stroke-width:0.5;" width="156.3926" x="661.6802" y="85"/><text fill="#0F172A" font-family="Helvetica" font-size="14" lengthAdjust="spacing" textLength="142.3926" x="668.6802" y="102.7803">OSOKServiceManager</text></g><g class="participant participant-head" data-entity-uid="part5" data-qualified-name="OCI" id="part5-head"><rect fill="#E2E8F0" height="28" rx="8" ry="8" style="stroke:#0F172A;stroke-width:0.5;" width="38.8896" x="1058.748" y="85"/><text fill="#0F172A" font-family="Helvetica" font-size="14" lengthAdjust="spacing" textLength="24.8896" x="1065.748" y="102.7803">OCI</text></g><path d="M390,137 L390,187 A8,8 0 0 0 398,195 L795,195 A8,8 0 0 0 803,187 L803,139 L793,129 L398,129 A8,8 0 0 0 390,137" fill="#FFF7D6" style="stroke:#B45309;stroke-width:0.5;"/><path d="M793,129 L793,135 A4,4 0 0 0 797,139 L803,139 L793,129" fill="#FFF7D6" style="stroke:#B45309;stroke-width:0.5;"/><text fill="#334155" font-family="Helvetica" font-size="14" lengthAdjust="spacing" textLength="111.2891" x="438.7107" y="144.7803">shared resolution:</text><text fill="#334155" font-family="Helvetica" font-size="14" lengthAdjust="spacing" textLength="307.3916" x="438.7107" y="158.7803">shared/diagrams/shared-resolution-sequence.svg</text><text fill="#334155" font-family="Helvetica" font-size="14" lengthAdjust="spacing" textLength="88.7305" x="438.7107" y="172.7803">shared delete:</text><text fill="#334155" font-family="Helvetica" font-size="14" lengthAdjust="spacing" textLength="284.833" x="438.7107" y="186.7803">shared/diagrams/shared-delete-sequence.svg</text><g class="message" data-entity-1="part1" data-entity-2="part2" id="msg1"><polygon fill="#0F172A" points="204.4575,216,214.4575,220,204.4575,224,208.4575,220" style="stroke:#0F172A;stroke-width:1;"/><line style="stroke:#0F172A;stroke-width:1;" x1="43.8032" x2="210.4575" y1="220" y2="220"/><text fill="#000000" font-family="Helvetica" font-size="14" lengthAdjust="spacing" textLength="148.6543" x="50.8032" y="214.7803">enqueue View reconcile</text></g><g class="message" data-entity-1="part2" data-entity-2="part3" id="msg2"><polygon fill="#0F172A" points="443.2837,244,453.2837,248,443.2837,252,447.2837,248" style="stroke:#0F172A;stroke-width:1;"/><line style="stroke:#0F172A;stroke-width:1;" x1="216.4575" x2="449.2837" y1="248" y2="248"/><text fill="#000000" font-family="Helvetica" font-size="14" lengthAdjust="spacing" textLength="117.4961" x="223.4575" y="242.7803">Reconcile(request)</text></g><g class="message" data-entity-1="part3" data-entity-2="part4" id="msg3"><polygon fill="#0F172A" points="727.8765,272,737.8765,276,727.8765,280,731.8765,276" style="stroke:#0F172A;stroke-width:1;"/><line style="stroke:#0F172A;stroke-width:1;" x1="455.2837" x2="733.8765" y1="276" y2="276"/><text fill="#000000" font-family="Helvetica" font-size="14" lengthAdjust="spacing" textLength="140.0684" x="462.2837" y="270.7803">reconcile desired View</text></g><path d="M397.2598,314 L450.5977,314 L450.5977,320 L440.5977,330 L389.2598,330 L389.2598,322 A8,8 0 0 1 397.2598,314" fill="#F8FAFC" style="stroke:#CBD5E1;stroke-width:1.5;"/><rect fill="none" height="290" rx="8" ry="8" style="stroke:#CBD5E1;stroke-width:1.5;" width="738.3779" x="389.2598" y="314"/><text fill="#000000" font-family="Helvetica" font-size="14" font-weight="bold" lengthAdjust="spacing" textLength="16.3379" x="404.2598" y="325.7803">alt</text><text fill="#000000" font-family="Helvetica" font-size="14" font-weight="bold" lengthAdjust="spacing" textLength="308.1094" x="465.5977" y="326.7803">[tracked or explicit OCI identity already exists]</text><g class="message" data-entity-1="part4" data-entity-2="part5" id="msg4"><polygon fill="#0F172A" points="1066.1929,346,1076.1929,350,1066.1929,354,1070.1929,350" style="stroke:#0F172A;stroke-width:1;"/><line style="stroke:#0F172A;stroke-width:1;" x1="739.8765" x2="1072.1929" y1="350" y2="350"/><text fill="#000000" font-family="Helvetica" font-size="14" lengthAdjust="spacing" textLength="52.9102" x="746.8765" y="344.7803">GetView</text></g><line style="stroke:#CBD5E1;stroke-width:1;stroke-dasharray:2,2;" x1="389.2598" x2="1127.6377" y1="359" y2="359"/><text fill="#000000" font-family="Helvetica" font-size="14" font-weight="bold" lengthAdjust="spacing" textLength="185.1582" x="394.2598" y="369.7803">[tracked identity is missing]</text><g class="message" data-entity-1="part4" data-entity-2="part5" id="msg5"><polygon fill="#0F172A" points="1066.1929,404,1076.1929,408,1066.1929,412,1070.1929,408" style="stroke:#0F172A;stroke-width:1;"/><line style="stroke:#0F172A;stroke-width:1;" x1="739.8765" x2="1072.1929" y1="408" y2="408"/><text fill="#000000" font-family="Helvetica" font-size="14" lengthAdjust="spacing" textLength="202.2891" x="746.8765" y="388.7803">ListView(filters: compartment_id,</text><text fill="#000000" font-family="Helvetica" font-size="14" lengthAdjust="spacing" textLength="35.0137" x="746.8765" y="402.7803">state)</text></g><path d="M649.6802,423 L703.0181,423 L703.0181,429 L693.0181,439 L641.6802,439 L641.6802,431 A8,8 0 0 1 649.6802,423" fill="#F8FAFC" style="stroke:#CBD5E1;stroke-width:1.5;"/><rect fill="none" height="146" rx="8" ry="8" style="stroke:#CBD5E1;stroke-width:1.5;" width="475.9575" x="641.6802" y="423"/><text fill="#000000" font-family="Helvetica" font-size="14" font-weight="bold" lengthAdjust="spacing" textLength="16.3379" x="656.6802" y="434.7803">alt</text><text fill="#000000" font-family="Helvetica" font-size="14" font-weight="bold" lengthAdjust="spacing" textLength="242.7031" x="718.0181" y="435.7803">[reusable OCI resource is not found]</text><g class="message" data-entity-1="part4" data-entity-2="part5" id="msg6"><polygon fill="#0F172A" points="1066.1929,455,1076.1929,459,1066.1929,463,1070.1929,459" style="stroke:#0F172A;stroke-width:1;"/><line style="stroke:#0F172A;stroke-width:1;" x1="739.8765" x2="1072.1929" y1="459" y2="459"/><text fill="#000000" font-family="Helvetica" font-size="14" lengthAdjust="spacing" textLength="72.3652" x="746.8765" y="453.7803">CreateView</text></g><path d="M659.6802,474 L726.2251,474 L726.2251,480 L716.2251,490 L651.6802,490 L651.6802,482 A8,8 0 0 1 659.6802,474" fill="#F8FAFC" style="stroke:#CBD5E1;stroke-width:1.5;"/><rect fill="none" height="44" rx="8" ry="8" style="stroke:#CBD5E1;stroke-width:1.5;" width="455.9575" x="651.6802" y="474"/><text fill="#000000" font-family="Helvetica" font-size="14" font-weight="bold" lengthAdjust="spacing" textLength="29.5449" x="666.6802" y="485.7803">loop</text><text fill="#000000" font-family="Helvetica" font-size="14" font-weight="bold" lengthAdjust="spacing" textLength="215.4756" x="741.2251" y="486.7803">[create pending PROVISIONING]</text><g class="message" data-entity-1="part4" data-entity-2="part5" id="msg7"><polygon fill="#0F172A" points="1066.1929,506,1076.1929,510,1066.1929,514,1070.1929,510" style="stroke:#0F172A;stroke-width:1;"/><line style="stroke:#0F172A;stroke-width:1;" x1="739.8765" x2="1072.1929" y1="510" y2="510"/><text fill="#000000" font-family="Helvetica" font-size="14" lengthAdjust="spacing" textLength="52.9102" x="746.8765" y="504.7803">GetView</text></g><line style="stroke:#CBD5E1;stroke-width:1;stroke-dasharray:2,2;" x1="641.6802" x2="1117.6377" y1="526" y2="526"/><text fill="#000000" font-family="Helvetica" font-size="14" font-weight="bold" lengthAdjust="spacing" textLength="255.2334" x="646.6802" y="536.7803">[reusable OCI resource already exists]</text><g class="message" data-entity-1="part4" data-entity-2="part5" id="msg8"><polygon fill="#0F172A" points="1066.1929,557,1076.1929,561,1066.1929,565,1070.1929,561" style="stroke:#0F172A;stroke-width:1;"/><line style="stroke:#0F172A;stroke-width:1;" x1="739.8765" x2="1072.1929" y1="561" y2="561"/><text fill="#000000" font-family="Helvetica" font-size="14" lengthAdjust="spacing" textLength="52.9102" x="746.8765" y="555.7803">GetView</text></g><g class="message" data-entity-1="part4" data-entity-2="part3" id="msg9"><polygon fill="#0F172A" points="466.2837,592,456.2837,596,466.2837,600,462.2837,596" style="stroke:#0F172A;stroke-width:1;"/><line style="stroke:#0F172A;stroke-width:1;stroke-dasharray:2,2;" x1="460.2837" x2="738.8765" y1="596" y2="596"/><text fill="#000000" font-family="Helvetica" font-size="14" lengthAdjust="spacing" textLength="231.0957" x="472.2837" y="590.7803">persist resolved OCI identity in status</text></g><path d="M377.2598,618 L430.5977,618 L430.5977,624 L420.5977,634 L369.2598,634 L369.2598,626 A8,8 0 0 1 377.2598,618" fill="#F8FAFC" style="stroke:#CBD5E1;stroke-width:1.5;"/><rect fill="none" height="798" rx="8" ry="8" style="stroke:#CBD5E1;stroke-width:1.5;" width="774.6978" x="369.2598" y="618"/><text fill="#000000" font-family="Helvetica" font-size="14" font-weight="bold" lengthAdjust="spacing" textLength="16.3379" x="384.2598" y="629.7803">alt</text><text fill="#000000" font-family="Helvetica" font-size="14" font-weight="bold" lengthAdjust="spacing" textLength="120.5859" x="445.5977" y="630.7803">[delete requested]</text><path d="M387.2598,641 L466.2803,641 L466.2803,647 L456.2803,657 L379.2598,657 L379.2598,649 A8,8 0 0 1 387.2598,641" fill="#F8FAFC" style="stroke:#CBD5E1;stroke-width:1.5;"/><rect fill="none" height="246" rx="8" ry="8" style="stroke:#CBD5E1;stroke-width:1.5;" width="738.3779" x="379.2598" y="641"/><text fill="#000000" font-family="Helvetica" font-size="14" font-weight="bold" lengthAdjust="spacing" textLength="42.0205" x="394.2598" y="652.7803">Delete</text><g class="message" data-entity-1="part4" data-entity-2="part5" id="msg10"><polygon fill="#0F172A" points="1066.1929,673,1076.1929,677,1066.1929,681,1070.1929,677" style="stroke:#0F172A;stroke-width:1;"/><line style="stroke:#0F172A;stroke-width:1;" x1="739.8765" x2="1072.1929" y1="677" y2="677"/><text fill="#000000" font-family="Helvetica" font-size="14" lengthAdjust="spacing" textLength="70.8135" x="746.8765" y="671.7803">DeleteView</text></g><g class="message" data-entity-1="part4" data-entity-2="part5" id="msg11"><polygon fill="#0F172A" points="1066.1929,715,1076.1929,719,1066.1929,723,1070.1929,719" style="stroke:#0F172A;stroke-width:1;"/><line style="stroke:#0F172A;stroke-width:1;" x1="739.8765" x2="1072.1929" y1="719" y2="719"/><text fill="#000000" font-family="Helvetica" font-size="14" lengthAdjust="spacing" textLength="182.8545" x="746.8765" y="699.7803">confirm delete via GetView or</text><text fill="#000000" font-family="Helvetica" font-size="14" lengthAdjust="spacing" textLength="52.1309" x="746.8765" y="713.7803">ListView</text></g><path d="M659.6802,734 L726.2251,734 L726.2251,740 L716.2251,750 L651.6802,750 L651.6802,742 A8,8 0 0 1 659.6802,734" fill="#F8FAFC" style="stroke:#CBD5E1;stroke-width:1.5;"/><rect fill="none" height="44" rx="8" ry="8" style="stroke:#CBD5E1;stroke-width:1.5;" width="455.9575" x="651.6802" y="734"/><text fill="#000000" font-family="Helvetica" font-size="14" font-weight="bold" lengthAdjust="spacing" textLength="29.5449" x="666.6802" y="745.7803">loop</text><text fill="#000000" font-family="Helvetica" font-size="14" font-weight="bold" lengthAdjust="spacing" textLength="182.7793" x="741.2251" y="746.7803">[delete pending DELETING]</text><g class="message" data-entity-1="part4" data-entity-2="part5" id="msg12"><polygon fill="#0F172A" points="1066.1929,766,1076.1929,770,1066.1929,774,1070.1929,770" style="stroke:#0F172A;stroke-width:1;"/><line style="stroke:#0F172A;stroke-width:1;" x1="739.8765" x2="1072.1929" y1="770" y2="770"/><text fill="#000000" font-family="Helvetica" font-size="14" lengthAdjust="spacing" textLength="125.2686" x="746.8765" y="764.7803">GetView or ListView</text></g><path d="M397.2598,792 L450.5977,792 L450.5977,798 L440.5977,808 L389.2598,808 L389.2598,800 A8,8 0 0 1 397.2598,792" fill="#F8FAFC" style="stroke:#CBD5E1;stroke-width:1.5;"/><rect fill="none" height="88" rx="8" ry="8" style="stroke:#CBD5E1;stroke-width:1.5;" width="438.813" x="389.2598" y="792"/><text fill="#000000" font-family="Helvetica" font-size="14" font-weight="bold" lengthAdjust="spacing" textLength="16.3379" x="404.2598" y="803.7803">alt</text><text fill="#000000" font-family="Helvetica" font-size="14" font-weight="bold" lengthAdjust="spacing" textLength="261.4268" x="465.5977" y="804.7803">[cleanup or finalizer release is blocked]</text><g class="message" data-entity-1="part4" data-entity-2="part3" id="msg13"><polygon fill="#0F172A" points="466.2837,824,456.2837,828,466.2837,832,462.2837,828" style="stroke:#0F172A;stroke-width:1;"/><line style="stroke:#0F172A;stroke-width:1;stroke-dasharray:2,2;" x1="460.2837" x2="738.8765" y1="828" y2="828"/><text fill="#000000" font-family="Helvetica" font-size="14" lengthAdjust="spacing" textLength="170.4336" x="472.2837" y="822.7803">retain delete state and retry</text></g><line style="stroke:#CBD5E1;stroke-width:1;stroke-dasharray:2,2;" x1="389.2598" x2="828.0728" y1="837" y2="837"/><text fill="#000000" font-family="Helvetica" font-size="14" font-weight="bold" lengthAdjust="spacing" textLength="194.4824" x="394.2598" y="847.7803">[delete completion observed]</text><g class="message" data-entity-1="part4" data-entity-2="part3" id="msg14"><polygon fill="#0F172A" points="466.2837,868,456.2837,872,466.2837,876,462.2837,872" style="stroke:#0F172A;stroke-width:1;"/><line style="stroke:#0F172A;stroke-width:1;stroke-dasharray:2,2;" x1="460.2837" x2="738.8765" y1="872" y2="872"/><text fill="#000000" font-family="Helvetica" font-size="14" lengthAdjust="spacing" textLength="243.5781" x="472.2837" y="866.7803">release finalizer after delete completion</text></g><line style="stroke:#CBD5E1;stroke-width:1;stroke-dasharray:2,2;" x1="369.2598" x2="1143.9575" y1="895" y2="895"/><text fill="#000000" font-family="Helvetica" font-size="14" font-weight="bold" lengthAdjust="spacing" textLength="149.3857" x="374.2598" y="905.7803">[OCI state is retryable]</text><g class="message" data-entity-1="part4" data-entity-2="part3" id="msg15"><polygon fill="#0F172A" points="466.2837,940,456.2837,944,466.2837,948,462.2837,944" style="stroke:#0F172A;stroke-width:1;"/><line style="stroke:#0F172A;stroke-width:1;stroke-dasharray:2,2;" x1="460.2837" x2="738.8765" y1="944" y2="944"/><text fill="#000000" font-family="Helvetica" font-size="14" lengthAdjust="spacing" textLength="184.4199" x="472.2837" y="924.7803">requeue while OCI remains in</text><text fill="#000000" font-family="Helvetica" font-size="14" lengthAdjust="spacing" textLength="260.5928" x="472.2837" y="938.7803">PROVISIONING, UPDATING, DELETING</text></g><line style="stroke:#CBD5E1;stroke-width:1;stroke-dasharray:2,2;" x1="369.2598" x2="1143.9575" y1="953" y2="953"/><text fill="#000000" font-family="Helvetica" font-size="14" font-weight="bold" lengthAdjust="spacing" textLength="200.751" x="374.2598" y="963.7803">[live state requires field-aware</text><text fill="#000000" font-family="Helvetica" font-size="14" font-weight="bold" lengthAdjust="spacing" textLength="105.0068" x="374.2598" y="977.7803">drift evaluation]</text><path d="M387.2598,989 L515.2461,989 L515.2461,995 L505.2461,1005 L379.2598,1005 L379.2598,997 A8,8 0 0 1 387.2598,989" fill="#F8FAFC" style="stroke:#CBD5E1;stroke-width:1.5;"/><rect fill="none" height="378" rx="8" ry="8" style="stroke:#CBD5E1;stroke-width:1.5;" width="754.6978" x="379.2598" y="989"/><text fill="#000000" font-family="Helvetica" font-size="14" font-weight="bold" lengthAdjust="spacing" textLength="90.9863" x="394.2598" y="1000.7803">Drift handling</text><path d="M693,1018 L693,1068 A8,8 0 0 0 701,1076 L1115,1076 A8,8 0 0 0 1123,1068 L1123,1020 L1113,1010 L701,1010 A8,8 0 0 0 693,1018" fill="#FFF7D6" style="stroke:#B45309;stroke-width:0.5;"/><path d="M1113,1010 L1113,1016 A4,4 0 0 0 1117,1020 L1123,1020 L1113,1010" fill="#FFF7D6" style="stroke:#B45309;stroke-width:0.5;"/><text fill="#334155" font-family="Helvetica" font-size="14" lengthAdjust="spacing" textLength="255.2813" x="776.3381" y="1025.7803">Supported update surface: display_name</text><text fill="#334155" font-family="Helvetica" font-size="14" lengthAdjust="spacing" textLength="235.7783" x="776.3381" y="1039.7803">Reject before mutate: force-new fields</text><text fill="#334155" font-family="Helvetica" font-size="14" lengthAdjust="spacing" textLength="100.3789" x="776.3381" y="1053.7803">compartment_id</text><text fill="#334155" font-family="Helvetica" font-size="14" lengthAdjust="spacing" textLength="229.5576" x="776.3381" y="1067.7803">Lookup filters: compartment_id, state</text><path d="M397.2598,1088 L456.0254,1088 L456.0254,1094 L446.0254,1104 L389.2598,1104 L389.2598,1096 A8,8 0 0 1 397.2598,1088" fill="#F8FAFC" style="stroke:#CBD5E1;stroke-width:1.5;"/><rect fill="none" height="44" rx="8" ry="8" style="stroke:#CBD5E1;stroke-width:1.5;" width="438.813" x="389.2598" y="1088"/><text fill="#000000" font-family="Helvetica" font-size="14" font-weight="bold" lengthAdjust="spacing" textLength="21.7656" x="404.2598" y="1099.7803">opt</text><text fill="#000000" font-family="Helvetica" font-size="14" font-weight="bold" lengthAdjust="spacing" textLength="276.1309" x="471.0254" y="1100.7803">[force-new or conflicting drift is detected]</text><g class="message" data-entity-1="part4" data-entity-2="part3" id="msg16"><polygon fill="#0F172A" points="466.2837,1120,456.2837,1124,466.2837,1128,462.2837,1124" style="stroke:#0F172A;stroke-width:1;"/><line style="stroke:#0F172A;stroke-width:1;stroke-dasharray:2,2;" x1="460.2837" x2="738.8765" y1="1124" y2="1124"/><text fill="#000000" font-family="Helvetica" font-size="14" lengthAdjust="spacing" textLength="164.1855" x="472.2837" y="1118.7803">reject before OCI mutation</text></g><path d="M649.6802,1146 L708.4458,1146 L708.4458,1152 L698.4458,1162 L641.6802,1162 L641.6802,1154 A8,8 0 0 1 649.6802,1146" fill="#F8FAFC" style="stroke:#CBD5E1;stroke-width:1.5;"/><rect fill="none" height="116" rx="8" ry="8" style="stroke:#CBD5E1;stroke-width:1.5;" width="475.9575" x="641.6802" y="1146"/><text fill="#000000" font-family="Helvetica" font-size="14" font-weight="bold" lengthAdjust="spacing" textLength="21.7656" x="656.6802" y="1157.7803">opt</text><text fill="#000000" font-family="Helvetica" font-size="14" font-weight="bold" lengthAdjust="spacing" textLength="243.4619" x="723.4458" y="1158.7803">[supported mutable drift is detected]</text><g class="message" data-entity-1="part4" data-entity-2="part5" id="msg17"><polygon fill="#0F172A" points="1066.1929,1192,1076.1929,1196,1066.1929,1200,1070.1929,1196" style="stroke:#0F172A;stroke-width:1;"/><line style="stroke:#0F172A;stroke-width:1;" x1="739.8765" x2="1072.1929" y1="1196" y2="1196"/><text fill="#000000" font-family="Helvetica" font-size="14" lengthAdjust="spacing" textLength="217.8955" x="746.8765" y="1176.7803">Apply UpdateView only for mutable</text><text fill="#000000" font-family="Helvetica" font-size="14" lengthAdjust="spacing" textLength="122.958" x="746.8765" y="1190.7803">fields display_name</text></g><path d="M659.6802,1211 L726.2251,1211 L726.2251,1217 L716.2251,1227 L651.6802,1227 L651.6802,1219 A8,8 0 0 1 659.6802,1211" fill="#F8FAFC" style="stroke:#CBD5E1;stroke-width:1.5;"/><rect fill="none" height="44" rx="8" ry="8" style="stroke:#CBD5E1;stroke-width:1.5;" width="455.9575" x="651.6802" y="1211"/><text fill="#000000" font-family="Helvetica" font-size="14" font-weight="bold" lengthAdjust="spacing" textLength="29.5449" x="666.6802" y="1222.7803">loop</text><text fill="#000000" font-family="Helvetica" font-size="14" font-weight="bold" lengthAdjust="spacing" textLength="190.5381" x="741.2251" y="1223.7803">[update pending UPDATING]</text><g class="message" data-entity-1="part4" data-entity-2="part5" id="msg18"><polygon fill="#0F172A" points="1066.1929,1243,1076.1929,1247,1066.1929,1251,1070.1929,1247" style="stroke:#0F172A;stroke-width:1;"/><line style="stroke:#0F172A;stroke-width:1;" x1="739.8765" x2="1072.1929" y1="1247" y2="1247"/><text fill="#000000" font-family="Helvetica" font-size="14" lengthAdjust="spacing" textLength="52.9102" x="746.8765" y="1241.7803">GetView</text></g><g class="message" data-entity-1="part4" data-entity-2="part5" id="msg19"><polygon fill="#0F172A" points="1066.1929,1355,1076.1929,1359,1066.1929,1363,1070.1929,1359" style="stroke:#0F172A;stroke-width:1;"/><line style="stroke:#0F172A;stroke-width:1;" x1="739.8765" x2="1072.1929" y1="1359" y2="1359"/><text fill="#000000" font-family="Helvetica" font-size="14" lengthAdjust="spacing" textLength="104.2891" x="746.8765" y="1283.7803">run helper hooks</text><text fill="#000000" font-family="Helvetica" font-size="14" lengthAdjust="spacing" textLength="219.0508" x="746.8765" y="1297.7803">create=tfresource.CreateResource,</text><text fill="#000000" font-family="Helvetica" font-size="14" lengthAdjust="spacing" textLength="314.3164" x="746.8765" y="1311.7803">tfresource.WaitForWorkRequestWithErrorHandling</text><text fill="#000000" font-family="Helvetica" font-size="14" lengthAdjust="spacing" textLength="215.5439" x="746.8765" y="1325.7803">entity=template action=CREATED;</text><text fill="#000000" font-family="Helvetica" font-size="14" lengthAdjust="spacing" textLength="226.085" x="746.8765" y="1339.7803">update=tfresource.UpdateResource;</text><text fill="#000000" font-family="Helvetica" font-size="14" lengthAdjust="spacing" textLength="212.8438" x="746.8765" y="1353.7803">delete=tfresource.DeleteResource</text></g><g class="message" data-entity-1="part4" data-entity-2="part3" id="msg20"><polygon fill="#0F172A" points="466.2837,1404,456.2837,1408,466.2837,1412,462.2837,1408" style="stroke:#0F172A;stroke-width:1;"/><line style="stroke:#0F172A;stroke-width:1;stroke-dasharray:2,2;" x1="460.2837" x2="738.8765" y1="1408" y2="1408"/><text fill="#000000" font-family="Helvetica" font-size="14" lengthAdjust="spacing" textLength="100.7822" x="472.2837" y="1388.7803">status=required,</text><text fill="#000000" font-family="Helvetica" font-size="14" lengthAdjust="spacing" textLength="230.7197" x="472.2837" y="1402.7803">finalizer=retain-until-confirmed-delete</text></g><g class="message" data-entity-1="part3" data-entity-2="part2" id="msg21"><polygon fill="#0F172A" points="227.4575,1453,217.4575,1457,227.4575,1461,223.4575,1457" style="stroke:#0F172A;stroke-width:1;"/><line style="stroke:#0F172A;stroke-width:1;stroke-dasharray:2,2;" x1="221.4575" x2="454.2837" y1="1457" y2="1457"/><text fill="#000000" font-family="Helvetica" font-size="14" lengthAdjust="spacing" textLength="214.8262" x="233.4575" y="1437.7803">requeue on provisioning, updating,</text><text fill="#000000" font-family="Helvetica" font-size="14" lengthAdjust="spacing" textLength="69.2549" x="233.4575" y="1451.7803">terminating</text></g><path d="M744,1478 L744,1934 A8,8 0 0 0 752,1942 L1064,1942 A8,8 0 0 0 1072,1934 L1072,1480 L1062,1470 L752,1470 A8,8 0 0 0 744,1478" fill="#FFF7D6" style="stroke:#B45309;stroke-width:0.5;"/><path d="M1062,1470 L1062,1476 A4,4 0 0 0 1066,1480 L1072,1480 L1062,1470" fill="#FFF7D6" style="stroke:#B45309;stroke-width:0.5;"/><text fill="#334155" font-family="Helvetica" font-size="14" lengthAdjust="spacing" textLength="101.165" x="750" y="1485.7803">shared diagram:</text><text fill="#334155" font-family="Helvetica" font-size="14" lengthAdjust="spacing" textLength="307.3916" x="750" y="1499.7803">shared/diagrams/shared-resolution-sequence.svg</text><text fill="#334155" font-family="Helvetica" font-size="14" lengthAdjust="spacing" textLength="143.1992" x="750" y="1513.7803">shared delete diagram:</text><text fill="#334155" font-family="Helvetica" font-size="14" lengthAdjust="spacing" textLength="284.833" x="750" y="1527.7803">shared/diagrams/shared-delete-sequence.svg</text><text fill="#334155" font-family="Helvetica" font-size="14" lengthAdjust="spacing" textLength="280.9297" x="750" y="1541.7803">Start from the shared resolution sequence for</text><text fill="#334155" font-family="Helvetica" font-size="14" lengthAdjust="spacing" textLength="260.7295" x="750" y="1555.7803">OCID binding, datasource pagination, and</text><text fill="#334155" font-family="Helvetica" font-size="14" lengthAdjust="spacing" textLength="163.4268" x="750" y="1569.7803">create-or-update dispatch.</text><text fill="#334155" font-family="Helvetica" font-size="14" lengthAdjust="spacing" textLength="301.1982" x="750" y="1583.7803">Layer the shared delete sequence when finalizer</text><text fill="#334155" font-family="Helvetica" font-size="14" lengthAdjust="spacing" textLength="269.2471" x="750" y="1597.7803">retention, delete confirmation, work-request</text><text fill="#334155" font-family="Helvetica" font-size="14" lengthAdjust="spacing" textLength="199.2334" x="750" y="1611.7803">polling, or Secret cleanup apply.</text><text fill="#334155" font-family="Helvetica" font-size="14" lengthAdjust="spacing" textLength="281.709" x="750" y="1625.7803">archetype batch: Generated service-manager</text><text fill="#334155" font-family="Helvetica" font-size="14" lengthAdjust="spacing" textLength="266.1504" x="750" y="1639.7803">controllers follow the shared resolution and</text><text fill="#334155" font-family="Helvetica" font-size="14" lengthAdjust="spacing" textLength="259.9297" x="750" y="1653.7803">delete sequences with imported waits and</text><text fill="#334155" font-family="Helvetica" font-size="14" lengthAdjust="spacing" textLength="134.6064" x="750" y="1667.7803">controller-local policy.</text><text fill="#334155" font-family="Helvetica" font-size="14" lengthAdjust="spacing" textLength="74.6963" x="750" y="1681.7803">service: dns</text><text fill="#334155" font-family="Helvetica" font-size="14" lengthAdjust="spacing" textLength="61.4688" x="750" y="1695.7803">slug: view</text><text fill="#334155" font-family="Helvetica" font-size="14" lengthAdjust="spacing" textLength="63.8066" x="750" y="1709.7803">kind: View</text><text fill="#334155" font-family="Helvetica" font-size="14" lengthAdjust="spacing" textLength="241.2402" x="750" y="1723.7803">archetype: generated-service-manager</text><text fill="#334155" font-family="Helvetica" font-size="14" lengthAdjust="spacing" textLength="156.4063" x="750" y="1737.7803">status/finalizer: required /</text><text fill="#334155" font-family="Helvetica" font-size="14" lengthAdjust="spacing" textLength="174.3027" x="750" y="1751.7803">retain-until-confirmed-delete</text><text fill="#334155" font-family="Helvetica" font-size="14" lengthAdjust="spacing" textLength="272.3984" x="750" y="1765.7803">requeue: provisioning, updating, terminating</text><text fill="#334155" font-family="Helvetica" font-size="14" lengthAdjust="spacing" textLength="295.6816" x="750" y="1779.7803">provider states: create PROVISIONING; update</text><text fill="#334155" font-family="Helvetica" font-size="14" lengthAdjust="spacing" textLength="192.165" x="750" y="1793.7803">UPDATING; delete DELETING</text><text fill="#334155" font-family="Helvetica" font-size="14" lengthAdjust="spacing" textLength="183.6611" x="750" y="1807.7803">supported drift: display_name</text><text fill="#334155" font-family="Helvetica" font-size="14" lengthAdjust="spacing" textLength="230.3301" x="750" y="1821.7803">reject before mutate: force-new fields</text><text fill="#334155" font-family="Helvetica" font-size="14" lengthAdjust="spacing" textLength="100.3789" x="750" y="1835.7803">compartment_id</text><text fill="#334155" font-family="Helvetica" font-size="14" lengthAdjust="spacing" textLength="221.7715" x="750" y="1849.7803">list lookup: scaffold_dns_view filters</text><text fill="#334155" font-family="Helvetica" font-size="14" lengthAdjust="spacing" textLength="138.5098" x="750" y="1863.7803">compartment_id, state</text><text fill="#334155" font-family="Helvetica" font-size="14" lengthAdjust="spacing" textLength="89.4961" x="750" y="1877.7803">conflicts: none</text><text fill="#334155" font-family="Helvetica" font-size="14" lengthAdjust="spacing" textLength="104.3164" x="750" y="1891.7803">open gaps: none</text><text fill="#334155" font-family="Helvetica" font-size="14" lengthAdjust="spacing" textLength="224.9023" x="750" y="1905.7803">Scaffold metadata only; replace with</text><text fill="#334155" font-family="Helvetica" font-size="14" lengthAdjust="spacing" textLength="244.3232" x="750" y="1919.7803">controller-specific runtime states before</text><text fill="#334155" font-family="Helvetica" font-size="14" lengthAdjust="spacing" textLength="66.1445" x="750" y="1933.7803">promotion.</text><?plantuml-src fLTRRzis57xNho2wbnQ8awP9Ud6G0MsIjK6pfeXxUJ4GqDAHpOKcDPAocmtxx_juaImvzf9jo4CiaJoNxtpdEvIz5QhYXi-PdV52BuMQif9BIvbjLoOylvqQNQlYL4jjs4zbZh-YiwEWajVI_QAL-yJdn3wGN90JET-yPoJ-8BP_s5dankXbilwyt7_redjIQKVlxiLGbg-Ab-kxj2d8f1sJmwE3vs_MTdZtQVtWu73_wAYp7ipdsYWoRFzbveIJn4RqUqqg9pPWXR9xtmGjivaeY9LQkud-qJblcwr_Pepnt6dJYoVbrIoj9qGlw7Nv7Cim1kX4nPNRVBwxuJ5MEZctDgGewLAeFc9l3ld1v3LMlScgjvHFYYFQRvVkLUDroSiy-oiBkR6FzOG0eoERTU9WfmZ4Q2d9z5w_uvQkATSg5-jBJwv6Lnz7P1OYfr-vubCoJnYthF-gT-Jgz2BpbMPwWJhsRU-idGFd3HNCaDMoTaAhONgrLmW-HKtjNdmUhBOCcZBlsiMqiL2GHBPRJyVb_abIHM1ajWAB3NxkO3HafB2_9kP9Xo1J5jbgYp_Gpt38sjzFZNTdtREilyKVwkCmN1b79bRuZ0BHGx7PfTQt-CSHy4Ie8kFICMT00Mn3iUb79G5-G9wXCnGQvuvnQOWNTrWLrjcixz27WDr3zfvSS4HGdDPcQqDODXVMGfEsdR-4SM_WQIca8sE7BDTppuOvJDo8OcUihEEEdeMW3TMMJv2aZzHNj3ReLdX17T3FeFCsFwT8nb48LMfTiJmyimf5z8hv-VhgsyNeukhJnQVt3wOABo7TpT7yIzmsXBo14nMWWRb8z0KWxfLAAEP1gcqmvu6AV6M9G5Ga8fo5rzjYYgiXh2qx450fpBmnln2yIGGy6gkcc17YjAc1-EpyylpBm_1wGhPscdHoILmXVgoLGd69yMEG7DxQKFw9r9vuZq7IaEF0AmKNk1KQ0-_DNQnhMlD4n0ye1jCJ2ykFTH33MWNAIp3xljL8f8PClg0n6kGJWl7KUfp3A3BBcMYvE4UE5hmOgowpTzZNpsTlluHVRJc2ToaM3HZU70J48W6InO0l8O1ZLHXHEaOBBciUWa-42gzd053w9b_9TZ_k7Q_fexggj04PMLqLtfEjJSbp6h92s4hoknk5gqTsJRzHxjY4Ics8pMiVr13DZTuQAF0ZX6MplanaIUAsgKZCRINPkd8Taw2LPpP4q7ccnbnHXW85ozrZozuDsrSXXDxKsJkqBG1-oGl7mvvISxojAdd7lWRSOfSeFCDLOsgi8YvzB4CV9hIRFcmey2YPsowefbPiHXB2n6R0tevLbDGJLpPIk1j5zpezGiexQz-vmBt6VDVczZggr7VXPkUuHfeFYKvZ5VNjn15w9ZHgxW4zERq-V_lb_Enuh69kNPyHeyOdjiI-wsw9EjTiUQm4HuKzIUtX1rFRuITHL0OrmfM399BjhI4uM9_WQnU5feUXDPNH2s6H9X3OYSNplm0UcJaykhRHZ9ZE7DCbstmfIdUO_tSZUj3AfflHoA7rM6dqdBaPiNkNjDL56mpEGAUpS2y92IDTdYPfnQSXNwrsl4HdaM03RGQ9qfxhtEMptUoItm7LZhD6tnj7oncfbIHdA9ZdbhVSwdAeMdAt12q7QNfc5OeKOjDUrn35QY1ntvUx6JVvZDnTHVZKGZo-YV0DmdshsrYRmJmL9s-h3eN5VxtSWf7FU2qBovRe4IRcIKQMw24ReMcj3Z0AkMI8MUI8BBaV-c-VpCfwEiJKHdVZcwSOnZjY6_oGJPkm1-jXH_RljGWEcpbHiBtid-cVk3tSncpM9NROWw-MADXUoED5hJl6ZfEaPOsK7JT5R8VQIcg3nAwD6FEVHepq5p0PvWpK8ESbobVS0DSRZsWpUhBDawUPByX8QUK74FWuvLNpF4hss1nO-Xu82dyCb16svoyAtwsohIWNfSYz3ZinJyFRffmyZ7FjQRJRpho_0G00?></g></svg>