<?plantuml 1.2026.1?><svg xmlns="http://www.w3.org/2000/svg" xmlns:xlink="http://www.w3.org/1999/xlink" contentStyleType="text/css" data-diagram-type="ACTIVITY" height="1371px" preserveAspectRatio="none" style="width:704px;height:1371px;background:#FCFCFD;" version="1.1" viewBox="0 0 704 1371" width="704px" zoomAndPan="magnify"><title>Activity - osmanagementhub/OsManagementHubManagedInstance</title><defs/><g><rect fill="#FCFCFD" height="1371" style="stroke:none;stroke-width:1;" width="704" x="0" y="0"/><g class="title" data-source-line="10"><text fill="#000000" font-family="Helvetica" font-size="14" font-weight="bold" lengthAdjust="spacing" textLength="444.1924" x="128.9015" y="30.7803">Activity - osmanagementhub/OsManagementHubManagedInstance</text></g><ellipse cx="321.9553" cy="55" fill="#1D4ED8" rx="10" ry="10" style="stroke:#222222;stroke-width:1;"/><rect fill="#F8FAFC" height="48" rx="8" ry="8" style="stroke:#0F172A;stroke-width:0.5;" width="304.7852" x="169.5627" y="85"/><text fill="#0F172A" font-family="Helvetica" font-size="14" lengthAdjust="spacing" textLength="136.9375" x="179.5627" y="105.7803">Start from shared flow</text><text fill="#0F172A" font-family="Helvetica" font-size="14" lengthAdjust="spacing" textLength="284.7852" x="179.5627" y="119.7803">shared/diagrams/shared-reconcile-activity.svg</text><rect fill="#F8FAFC" height="48" rx="8" ry="8" style="stroke:#0F172A;stroke-width:0.5;" width="341.4326" x="151.239" y="153"/><text fill="#0F172A" font-family="Helvetica" font-size="14" lengthAdjust="spacing" textLength="321.4326" x="161.239" y="173.7803">Load desired OsManagementHubManagedInstance</text><text fill="#0F172A" font-family="Helvetica" font-size="14" lengthAdjust="spacing" textLength="205.4473" x="161.239" y="187.7803">spec and status from Kubernetes</text><rect fill="#F8FAFC" height="62" rx="8" ry="8" style="stroke:#0F172A;stroke-width:0.5;" width="329.7363" x="157.0872" y="221"/><text fill="#0F172A" font-family="Helvetica" font-size="14" lengthAdjust="spacing" textLength="135.3857" x="167.0872" y="241.7803">Resolve OCI state via</text><text fill="#0F172A" font-family="Helvetica" font-size="14" lengthAdjust="spacing" textLength="287.9434" x="167.0872" y="255.7803">GetOsManagementHubManagedInstance with</text><text fill="#0F172A" font-family="Helvetica" font-size="14" lengthAdjust="spacing" textLength="309.7363" x="167.0872" y="269.7803">ListOsManagementHubManagedInstance fallback</text><rect fill="#F8FAFC" height="76" rx="8" ry="8" style="stroke:#0F172A;stroke-width:0.5;" width="434.0664" x="104.9221" y="303"/><text fill="#0F172A" font-family="Helvetica" font-size="14" lengthAdjust="spacing" textLength="24.8965" x="114.9221" y="323.7803">Use</text><text fill="#0F172A" font-family="Helvetica" font-size="14" lengthAdjust="spacing" textLength="414.0664" x="114.9221" y="337.7803">scaffold_osmanagementhub_osmanagementhubmanagedinstance</text><text fill="#0F172A" font-family="Helvetica" font-size="14" lengthAdjust="spacing" textLength="297.2402" x="114.9221" y="351.7803">filters compartment_id, state when OCID lookup</text><text fill="#0F172A" font-family="Helvetica" font-size="14" lengthAdjust="spacing" textLength="259.9023" x="114.9221" y="365.7803">or bind-versus-create needs list resolution</text><polygon fill="#E2E8F0" points="268.2659,399,375.6448,399,387.6448,411,375.6448,423,268.2659,423,256.2659,411,268.2659,399" style="stroke:#1D4ED8;stroke-width:0.5;"/><text fill="#0F172A" font-family="Helvetica" font-size="14" lengthAdjust="spacing" textLength="107.3789" x="268.2659" y="414.7803">Resource exists?</text><text fill="#000000" font-family="Helvetica" font-size="14" lengthAdjust="spacing" textLength="21.7861" x="234.4797" y="407.7803">yes</text><text fill="#000000" font-family="Helvetica" font-size="14" lengthAdjust="spacing" textLength="15.5723" x="387.6448" y="407.7803">no</text><rect fill="#F8FAFC" height="48" rx="8" ry="8" style="stroke:#0F172A;stroke-width:0.5;" width="301.7363" x="11" y="433"/><text fill="#0F172A" font-family="Helvetica" font-size="14" lengthAdjust="spacing" textLength="108.1787" x="21" y="453.7803">Update path calls</text><text fill="#0F172A" font-family="Helvetica" font-size="14" lengthAdjust="spacing" textLength="281.7363" x="21" y="467.7803">UpdateOsManagementHubManagedInstance</text><rect fill="#F8FAFC" height="48" rx="8" ry="8" style="stroke:#0F172A;stroke-width:0.5;" width="266.7021" x="28.5171" y="501"/><text fill="#0F172A" font-family="Helvetica" font-size="14" lengthAdjust="spacing" textLength="246.7021" x="38.5171" y="521.7803">Guard mutable fields display_name and</text><text fill="#0F172A" font-family="Helvetica" font-size="14" lengthAdjust="spacing" textLength="202.3096" x="38.5171" y="535.7803">force-new fields compartment_id</text><rect fill="#F8FAFC" height="48" rx="8" ry="8" style="stroke:#0F172A;stroke-width:0.5;" width="298.6123" x="332.7363" y="433"/><text fill="#0F172A" font-family="Helvetica" font-size="14" lengthAdjust="spacing" textLength="105.0547" x="342.7363" y="453.7803">Create path calls</text><text fill="#0F172A" font-family="Helvetica" font-size="14" lengthAdjust="spacing" textLength="278.6123" x="342.7363" y="467.7803">CreateOsManagementHubManagedInstance</text><polygon fill="#E2E8F0" points="321.9553,555,333.9553,567,321.9553,579,309.9553,567,321.9553,555" style="stroke:#1D4ED8;stroke-width:0.5;"/><rect fill="#F8FAFC" height="104" rx="8" ry="8" style="stroke:#0F172A;stroke-width:0.5;" width="334.3164" x="154.7971" y="599"/><text fill="#0F172A" font-family="Helvetica" font-size="14" lengthAdjust="spacing" textLength="164.2061" x="164.7971" y="619.7803">Run provider helper hooks</text><text fill="#0F172A" font-family="Helvetica" font-size="14" lengthAdjust="spacing" textLength="219.0508" x="164.7971" y="633.7803">create=tfresource.CreateResource,</text><text fill="#0F172A" font-family="Helvetica" font-size="14" lengthAdjust="spacing" textLength="314.3164" x="164.7971" y="647.7803">tfresource.WaitForWorkRequestWithErrorHandling</text><text fill="#0F172A" font-family="Helvetica" font-size="14" lengthAdjust="spacing" textLength="215.5439" x="164.7971" y="661.7803">entity=template action=CREATED;</text><text fill="#0F172A" font-family="Helvetica" font-size="14" lengthAdjust="spacing" textLength="226.085" x="164.7971" y="675.7803">update=tfresource.UpdateResource;</text><text fill="#0F172A" font-family="Helvetica" font-size="14" lengthAdjust="spacing" textLength="212.8438" x="164.7971" y="689.7803">delete=tfresource.DeleteResource</text><rect fill="#F8FAFC" height="34" rx="8" ry="8" style="stroke:#0F172A;stroke-width:0.5;" width="263.5918" x="190.1594" y="723"/><text fill="#0F172A" font-family="Helvetica" font-size="14" lengthAdjust="spacing" textLength="243.5918" x="200.1594" y="743.7803">Apply repo-authored secret policy none</text><rect fill="#F8FAFC" height="90" rx="8" ry="8" style="stroke:#0F172A;stroke-width:0.5;" width="356.1982" x="143.8562" y="777"/><text fill="#0F172A" font-family="Helvetica" font-size="14" lengthAdjust="spacing" textLength="105.0684" x="153.8562" y="797.7803">Delete path uses</text><text fill="#0F172A" font-family="Helvetica" font-size="14" lengthAdjust="spacing" textLength="305.8467" x="153.8562" y="811.7803">DeleteOsManagementHubManagedInstance with</text><text fill="#0F172A" font-family="Helvetica" font-size="14" lengthAdjust="spacing" textLength="336.1982" x="153.8562" y="825.7803">required via GetOsManagementHubManagedInstance</text><text fill="#0F172A" font-family="Helvetica" font-size="14" lengthAdjust="spacing" textLength="290.2813" x="153.8562" y="839.7803">or ListOsManagementHubManagedInstance to</text><text fill="#0F172A" font-family="Helvetica" font-size="14" lengthAdjust="spacing" textLength="144.7168" x="153.8562" y="853.7803">DELETED confirmation</text><rect fill="#F8FAFC" height="48" rx="8" ry="8" style="stroke:#0F172A;stroke-width:0.5;" width="279.1299" x="182.3904" y="887"/><text fill="#0F172A" font-family="Helvetica" font-size="14" lengthAdjust="spacing" textLength="259.1299" x="192.3904" y="907.7803">Project required status and finalizer policy</text><text fill="#0F172A" font-family="Helvetica" font-size="14" lengthAdjust="spacing" textLength="174.3027" x="192.3904" y="921.7803">retain-until-confirmed-delete</text><rect fill="#F8FAFC" height="34" rx="8" ry="8" style="stroke:#0F172A;stroke-width:0.5;" width="313.4189" x="165.2458" y="955"/><text fill="#0F172A" font-family="Helvetica" font-size="14" lengthAdjust="spacing" textLength="293.4189" x="175.2458" y="975.7803">Requeue on provisioning, updating, terminating</text><path d="M352.9553,999 L352.9553,1175 L332.9553,1179 L352.9553,1183 L352.9553,1359 A0,0 0 0 0 352.9553,1359 L692.9954,1359 A0,0 0 0 0 692.9954,1359 L692.9954,1009 L682.9954,999 L352.9553,999 A0,0 0 0 0 352.9553,999" fill="#FFF7D6" style="stroke:#B45309;stroke-width:0.5;"/><path d="M682.9954,999 L682.9954,1009 L692.9954,1009 L682.9954,999" fill="#FFF7D6" style="stroke:#B45309;stroke-width:0.5;"/><text fill="#334155" font-family="Helvetica" font-size="14" lengthAdjust="spacing" textLength="101.165" x="358.9553" y="1014.7803">shared diagram:</text><text fill="#334155" font-family="Helvetica" font-size="14" lengthAdjust="spacing" textLength="284.7852" x="358.9553" y="1028.7803">shared/diagrams/shared-reconcile-activity.svg</text><text fill="#334155" font-family="Helvetica" font-size="14" lengthAdjust="spacing" textLength="265.3438" x="358.9553" y="1042.7803">Start from the shared reconcile activity and</text><text fill="#334155" font-family="Helvetica" font-size="14" lengthAdjust="spacing" textLength="273.8955" x="358.9553" y="1056.7803">specialize provider-backed CRUD, wait, and</text><text fill="#334155" font-family="Helvetica" font-size="14" lengthAdjust="spacing" textLength="182.875" x="358.9553" y="1070.7803">status-projection details here.</text><text fill="#334155" font-family="Helvetica" font-size="14" lengthAdjust="spacing" textLength="229.5371" x="358.9553" y="1084.7803">Controller-local activity diagrams add</text><text fill="#334155" font-family="Helvetica" font-size="14" lengthAdjust="spacing" textLength="238.8955" x="358.9553" y="1098.7803">list-lookup hints, secret policies, delete</text><text fill="#334155" font-family="Helvetica" font-size="14" lengthAdjust="spacing" textLength="200.0332" x="358.9553" y="1112.7803">handling, and open formal gaps.</text><text fill="#334155" font-family="Helvetica" font-size="14" lengthAdjust="spacing" textLength="281.709" x="358.9553" y="1126.7803">archetype batch: Generated service-manager</text><text fill="#334155" font-family="Helvetica" font-size="14" lengthAdjust="spacing" textLength="291.0469" x="358.9553" y="1140.7803">controllers specialize the shared reconcile path</text><text fill="#334155" font-family="Helvetica" font-size="14" lengthAdjust="spacing" textLength="189.8477" x="358.9553" y="1154.7803">with formal runtime ownership.</text><text fill="#334155" font-family="Helvetica" font-size="14" lengthAdjust="spacing" textLength="171.9854" x="358.9553" y="1168.7803">service: osmanagementhub</text><text fill="#334155" font-family="Helvetica" font-size="14" lengthAdjust="spacing" textLength="263.8467" x="358.9553" y="1182.7803">slug: osmanagementhubmanagedinstance</text><text fill="#334155" font-family="Helvetica" font-size="14" lengthAdjust="spacing" textLength="270.0537" x="358.9553" y="1196.7803">kind: OsManagementHubManagedInstance</text><text fill="#334155" font-family="Helvetica" font-size="14" lengthAdjust="spacing" textLength="241.2402" x="358.9553" y="1210.7803">archetype: generated-service-manager</text><text fill="#334155" font-family="Helvetica" font-size="14" lengthAdjust="spacing" textLength="156.4063" x="358.9553" y="1224.7803">status/finalizer: required /</text><text fill="#334155" font-family="Helvetica" font-size="14" lengthAdjust="spacing" textLength="174.3027" x="358.9553" y="1238.7803">retain-until-confirmed-delete</text><text fill="#334155" font-family="Helvetica" font-size="14" lengthAdjust="spacing" textLength="272.3984" x="358.9553" y="1252.7803">requeue: provisioning, updating, terminating</text><text fill="#334155" font-family="Helvetica" font-size="14" lengthAdjust="spacing" textLength="295.6816" x="358.9553" y="1266.7803">provider states: create PROVISIONING; update</text><text fill="#334155" font-family="Helvetica" font-size="14" lengthAdjust="spacing" textLength="192.165" x="358.9553" y="1280.7803">UPDATING; delete DELETING</text><text fill="#334155" font-family="Helvetica" font-size="14" lengthAdjust="spacing" textLength="319.04" x="358.9553" y="1294.7803">mutable/forceNew: display_name / compartment_id</text><text fill="#334155" font-family="Helvetica" font-size="14" lengthAdjust="spacing" textLength="104.3164" x="358.9553" y="1308.7803">open gaps: none</text><text fill="#334155" font-family="Helvetica" font-size="14" lengthAdjust="spacing" textLength="224.9023" x="358.9553" y="1322.7803">Scaffold metadata only; replace with</text><text fill="#334155" font-family="Helvetica" font-size="14" lengthAdjust="spacing" textLength="244.3232" x="358.9553" y="1336.7803">controller-specific runtime states before</text><text fill="#334155" font-family="Helvetica" font-size="14" lengthAdjust="spacing" textLength="66.1445" x="358.9553" y="1350.7803">promotion.</text><ellipse cx="321.9553" cy="1179" fill="none" rx="11" ry="11" style="stroke:#222222;stroke-width:1;"/><ellipse cx="321.9553" cy="1179" fill="#222222" rx="6" ry="6" style="stroke:#222222;stroke-width:1;"/><line style="stroke:#0F172A;stroke-width:1;" x1="321.9553" x2="321.9553" y1="65" y2="85"/><polygon fill="#0F172A" points="317.9553,75,321.9553,85,325.9553,75,321.9553,79" style="stroke:#0F172A;stroke-width:1;"/><line style="stroke:#0F172A;stroke-width:1;" x1="321.9553" x2="321.9553" y1="133" y2="153"/><polygon fill="#0F172A" points="317.9553,143,321.9553,153,325.9553,143,321.9553,147" style="stroke:#0F172A;stroke-width:1;"/><line style="stroke:#0F172A;stroke-width:1;" x1="321.9553" x2="321.9553" y1="201" y2="221"/><polygon fill="#0F172A" points="317.9553,211,321.9553,221,325.9553,211,321.9553,215" style="stroke:#0F172A;stroke-width:1;"/><line style="stroke:#0F172A;stroke-width:1;" x1="321.9553" x2="321.9553" y1="283" y2="303"/><polygon fill="#0F172A" points="317.9553,293,321.9553,303,325.9553,293,321.9553,297" style="stroke:#0F172A;stroke-width:1;"/><line style="stroke:#0F172A;stroke-width:1;" x1="161.8682" x2="161.8682" y1="481" y2="501"/><polygon fill="#0F172A" points="157.8682,491,161.8682,501,165.8682,491,161.8682,495" style="stroke:#0F172A;stroke-width:1;"/><line style="stroke:#0F172A;stroke-width:1;" x1="256.2659" x2="161.8682" y1="411" y2="411"/><line style="stroke:#0F172A;stroke-width:1;" x1="161.8682" x2="161.8682" y1="411" y2="433"/><polygon fill="#0F172A" points="157.8682,423,161.8682,433,165.8682,423,161.8682,427" style="stroke:#0F172A;stroke-width:1;"/><line style="stroke:#0F172A;stroke-width:1;" x1="387.6448" x2="482.0425" y1="411" y2="411"/><line style="stroke:#0F172A;stroke-width:1;" x1="482.0425" x2="482.0425" y1="411" y2="433"/><polygon fill="#0F172A" points="478.0425,423,482.0425,433,486.0425,423,482.0425,427" style="stroke:#0F172A;stroke-width:1;"/><line style="stroke:#0F172A;stroke-width:1;" x1="161.8682" x2="161.8682" y1="549" y2="567"/><line style="stroke:#0F172A;stroke-width:1;" x1="161.8682" x2="309.9553" y1="567" y2="567"/><polygon fill="#0F172A" points="299.9553,563,309.9553,567,299.9553,571,303.9553,567" style="stroke:#0F172A;stroke-width:1;"/><line style="stroke:#0F172A;stroke-width:1;" x1="482.0425" x2="482.0425" y1="481" y2="567"/><line style="stroke:#0F172A;stroke-width:1;" x1="482.0425" x2="333.9553" y1="567" y2="567"/><polygon fill="#0F172A" points="343.9553,563,333.9553,567,343.9553,571,339.9553,567" style="stroke:#0F172A;stroke-width:1;"/><line style="stroke:#0F172A;stroke-width:1;" x1="321.9553" x2="321.9553" y1="379" y2="399"/><polygon fill="#0F172A" points="317.9553,389,321.9553,399,325.9553,389,321.9553,393" style="stroke:#0F172A;stroke-width:1;"/><line style="stroke:#0F172A;stroke-width:1;" x1="321.9553" x2="321.9553" y1="579" y2="599"/><polygon fill="#0F172A" points="317.9553,589,321.9553,599,325.9553,589,321.9553,593" style="stroke:#0F172A;stroke-width:1;"/><line style="stroke:#0F172A;stroke-width:1;" x1="321.9553" x2="321.9553" y1="703" y2="723"/><polygon fill="#0F172A" points="317.9553,713,321.9553,723,325.9553,713,321.9553,717" style="stroke:#0F172A;stroke-width:1;"/><line style="stroke:#0F172A;stroke-width:1;" x1="321.9553" x2="321.9553" y1="757" y2="777"/><polygon fill="#0F172A" points="317.9553,767,321.9553,777,325.9553,767,321.9553,771" style="stroke:#0F172A;stroke-width:1;"/><line style="stroke:#0F172A;stroke-width:1;" x1="321.9553" x2="321.9553" y1="867" y2="887"/><polygon fill="#0F172A" points="317.9553,877,321.9553,887,325.9553,877,321.9553,881" style="stroke:#0F172A;stroke-width:1;"/><line style="stroke:#0F172A;stroke-width:1;" x1="321.9553" x2="321.9553" y1="935" y2="955"/><polygon fill="#0F172A" points="317.9553,945,321.9553,955,325.9553,945,321.9553,949" style="stroke:#0F172A;stroke-width:1;"/><line style="stroke:#0F172A;stroke-width:1;" x1="321.9553" x2="321.9553" y1="989" y2="1168"/><polygon fill="#0F172A" points="317.9553,1158,321.9553,1168,325.9553,1158,321.9553,1162" style="stroke:#0F172A;stroke-width:1;"/><?plantuml-src bLPHJoCt47xthnYfBvoKJU20ExeHgYXmW8u2WgEyH4BEUZRhuhMtjZTfMlM_TxpUR9Q0W2eFYUtnp7mpttoEUvAwufQNu0ekp4Bg6UHSEMIkEvdox6bcJQt5iL76mazvHX_Hin2OyrhvRqRxAruYdAEQevSPVztcJlwDiBFNE-JMcaNhVJlV-VgvVrCRZx--o27FluelcrR62hIjnNHlVtVxvmsB4BuztztTszdVxvqtxZDZDLhO-SAyz0hXAFDoBlqI4Z2kv9hFi4JjYtewkdQ_TUlpUXeNua8xptNMBo1V-VY7mIlLFCXvdeMJVlPj5G3oTSRTdf2yD5gyA0f-neDyksVGzxWZzb0Sh0-_lUAOKhT-qnux_vtTb6zu_PSrLrbw5xuWjwPXb4K1kJABYOwB4SMUKKdSAAuJYvdHcLIOh8eqTFFPcAMNXWlYZ9F1nTkL9kSLPi2r2FdxsiNmt-ifKYyzEd9tYyuG9-7w-A8nGfXBFj5dwD_s3GlfYuc-bEuzGveQ5NfBmUvTo2dZUMwKUDoWpUOwBeJimEHIURGECbCIVNmmUvHYqAQzA50752UWZ7cgguccBaob5icSBjKkoIm6Euqe72ZA6sp0Ndjfz9Z97BP2BMfBAUDVTEn--GG-EDrQelj4oLSYtA-uBo0ZJ6wYuzRR-0dsMSsjWBBsV4g3aqjKb86Ghb9y-QY3Bb2B29-Xs8d6nShaET0nGv8VsDA6aZcEOFh9nAttaY7EofpQNckeh9bB6WCeK5NXY-f6VcAT3drkst8Ce-TLTGOJtJjxu9AaopuO-tIBVzRe_0CHuvHaovuJAaMwET6K2n7uq6D9a2djG6cZ3uzlJuz-d9wC9xfk2jcF6KkxYaac0XK-DpbfTZeJbXvLbLfILokJyDeN9ao8GyBZeJ9APajIEXqCuyrOlTeXWOux7wAy9PZDyD6WmBjpqj3m0rFY3ILnUdbAzQ2-4zTjoICpqnjh_i0iqBKDt0vpcEjSQgxerR0jmf2Uvr8dDPLS9QqdqfDOlcRWgKirWca9u2W8DMa0JG-QNpHb9VaDYp79bwbOU270obdXMIjUhLwbx7_f5-kf8CtMIWaxu_MBGE1OK2_PmEkucWGbeHl7j_Sd0rWG-GRHj2b9KiLI4IIIIAg3SaHkYqDsJ9fkZLBaGHaQc7MWLUB0XM115fAe7r18xTtW6O4aqaQi92jQTZVnmLGa53J09RcUySeD6RTPWNvP8Rq9FYjIeWgzdyJfm4axbpJgKU4ioxha7FGmlrgWm5aMYBYAPaEdIKBCWjoxGbP3rlfFDnzcvbGzUx6xeRECNcUHllEohD6bC5lXIZPnnQQCEewcQmgFs9iyPJQoDFq8HradPCrBu59efVxczlhtYxkBwwkBgxDnl8li_kRaw4Up4KD1CtMqmLg17ZKwV8MBzBb6ZpRqc3Kz3yrE6rrXT-t31YL1erYSPamjnq6G56_bezVhf6brBhEkXJ5zc29bW05LQGALXq6qcpzf_m40?></g></svg>