<?plantuml 1.2026.1?><svg xmlns="http://www.w3.org/2000/svg" xmlns:xlink="http://www.w3.org/1999/xlink" contentStyleType="text/css" data-diagram-type="STATE" height="590px" preserveAspectRatio="none" style="width:3803px;height:590px;background:#FCFCFD;" version="1.1" viewBox="0 0 3803 590" width="3803px" zoomAndPan="magnify"><title>State Machine - mediaservices/MediaServicesSystemMediaWorkflow</title><defs/><g><rect fill="#FCFCFD" height="590" style="stroke:none;stroke-width:1;" width="3803" x="0" y="0"/><g class="title" data-source-line="10"><text fill="#000000" font-family="Helvetica" font-size="14" font-weight="bold" lengthAdjust="spacing" textLength="456.7432" x="1666.2664" y="20.7803">State Machine - mediaservices/MediaServicesSystemMediaWorkflow</text></g><g><rect fill="#F8FAFC" height="62" rx="8" ry="8" style="stroke:#0F172A;stroke-width:0.5;" width="264.3643" x="364" y="403"/><line style="stroke:#0F172A;stroke-width:0.5;" x1="364" x2="628.3643" y1="427" y2="427"/><text fill="#0F172A" font-family="Helvetica" font-size="14" lengthAdjust="spacing" textLength="52.9102" x="469.7271" y="418.7803">Observe</text><text fill="#0F172A" font-family="Helvetica" font-size="14" lengthAdjust="spacing" textLength="244.3643" x="369" y="442.7803">read spec, tracked status, delete intent,</text><text fill="#0F172A" font-family="Helvetica" font-size="14" lengthAdjust="spacing" textLength="153.2822" x="369" y="456.7803">and current OCI lifecycle</text></g><rect fill="#F8FAFC" height="40" rx="8" ry="8" style="stroke:#0F172A;stroke-width:0.5;" width="104.9512" x="1425.36" y="246"/><text fill="#0F172A" font-family="Helvetica" font-size="14" lengthAdjust="spacing" textLength="94.9512" x="1430.36" y="269.7803">EvaluateReady</text><rect fill="#F8FAFC" height="40" rx="8" ry="8" style="stroke:#0F172A;stroke-width:0.5;" width="50.4688" x="2184.32" y="246"/><text fill="#0F172A" font-family="Helvetica" font-size="14" lengthAdjust="spacing" textLength="40.4688" x="2189.32" y="269.7803">Ready</text><rect fill="#F8FAFC" height="40" rx="8" ry="8" style="stroke:#0F172A;stroke-width:0.5;" width="69.917" x="1442.88" y="381"/><text fill="#0F172A" font-family="Helvetica" font-size="14" lengthAdjust="spacing" textLength="59.917" x="1447.88" y="404.7803">Retryable</text><rect fill="#F8FAFC" height="40" rx="8" ry="8" style="stroke:#0F172A;stroke-width:0.5;" width="50" x="1452.84" y="500"/><text fill="#0F172A" font-family="Helvetica" font-size="14" lengthAdjust="spacing" textLength="38.1309" x="1458.7746" y="523.7803">Failed</text><rect fill="#F8FAFC" height="40" rx="8" ry="8" style="stroke:#0F172A;stroke-width:0.5;" width="122.8477" x="906.44" y="357"/><text fill="#0F172A" font-family="Helvetica" font-size="14" lengthAdjust="spacing" textLength="112.8477" x="911.44" y="380.7803">ResolveByLookup</text><rect fill="#F8FAFC" height="40" rx="8" ry="8" style="stroke:#0F172A;stroke-width:0.5;" width="155.5098" x="1759.56" y="336"/><text fill="#0F172A" font-family="Helvetica" font-size="14" lengthAdjust="spacing" textLength="145.5098" x="1764.56" y="359.7803">RejectUnsupportedDrift</text><rect fill="#F8FAFC" height="40" rx="8" ry="8" style="stroke:#0F172A;stroke-width:0.5;" width="90.165" x="1792.23" y="175"/><text fill="#0F172A" font-family="Helvetica" font-size="14" lengthAdjust="spacing" textLength="80.165" x="1797.23" y="198.7803">ApplyUpdate</text><rect fill="#F8FAFC" height="40" rx="8" ry="8" style="stroke:#0F172A;stroke-width:0.5;" width="101.8477" x="2550.21" y="492"/><text fill="#0F172A" font-family="Helvetica" font-size="14" lengthAdjust="spacing" textLength="91.8477" x="2555.21" y="515.7803">DeletePending</text><rect fill="#F8FAFC" height="40" rx="8" ry="8" style="stroke:#0F172A;stroke-width:0.5;" width="58.2549" x="3714.56" y="426"/><text fill="#0F172A" font-family="Helvetica" font-size="14" lengthAdjust="spacing" textLength="48.2549" x="3719.56" y="449.7803">Deleted</text><rect fill="#F8FAFC" height="40" rx="8" ry="8" style="stroke:#0F172A;stroke-width:0.5;" width="152.4268" x="3207.31" y="426"/><text fill="#0F172A" font-family="Helvetica" font-size="14" lengthAdjust="spacing" textLength="142.4268" x="3212.31" y="449.7803">DeleteCleanupBlocked</text><ellipse cx="16" cy="434" fill="#222222" rx="10" ry="10" style="stroke:#222222;stroke-width:1;"/><g class="entity" data-qualified-name="GMN2" data-source-line="55" id="ent0003"><path d="M2400.78,49 L2400.78,253.72 L2235.22,264.92 L2400.78,261.72 L2400.78,449 A8,8 0 0 0 2408.78,457 L2793.4753,457 A8,8 0 0 0 2801.4753,449 L2801.4753,51 L2791.4753,41 L2408.78,41 A8,8 0 0 0 2400.78,49" fill="#FFF7D6" style="stroke:#B45309;stroke-width:0.5;"/><path d="M2791.4753,41 L2791.4753,47 A4,4 0 0 0 2795.4753,51 L2801.4753,51 L2791.4753,41" fill="#FFF7D6" style="stroke:#B45309;stroke-width:0.5;"/><text fill="#334155" font-family="Helvetica" font-size="14" lengthAdjust="spacing" textLength="101.165" x="2406.78" y="56.7803">shared diagram:</text><text fill="#334155" font-family="Helvetica" font-size="14" lengthAdjust="spacing" textLength="331.4814" x="2406.78" y="70.7803">shared/diagrams/shared-controller-state-machine.svg</text><text fill="#334155" font-family="Helvetica" font-size="14" lengthAdjust="spacing" textLength="304.2744" x="2406.78" y="84.7803">Start from the shared controller phase model and</text><text fill="#334155" font-family="Helvetica" font-size="14" lengthAdjust="spacing" textLength="261.4678" x="2406.78" y="98.7803">specialize imported provider states, delete</text><text fill="#334155" font-family="Helvetica" font-size="14" lengthAdjust="spacing" textLength="184.4336" x="2406.78" y="112.7803">targets, and failure exits here.</text><text fill="#334155" font-family="Helvetica" font-size="14" lengthAdjust="spacing" textLength="281.709" x="2406.78" y="126.7803">archetype batch: Generated service-manager</text><text fill="#334155" font-family="Helvetica" font-size="14" lengthAdjust="spacing" textLength="287.9229" x="2406.78" y="140.7803">controllers map provider states into the shared</text><text fill="#334155" font-family="Helvetica" font-size="14" lengthAdjust="spacing" textLength="261.4609" x="2406.78" y="154.7803">controller phases with explicit finalizer and</text><text fill="#334155" font-family="Helvetica" font-size="14" lengthAdjust="spacing" textLength="105.8477" x="2406.78" y="168.7803">requeue policies.</text><text fill="#334155" font-family="Helvetica" font-size="14" lengthAdjust="spacing" textLength="141.5996" x="2406.78" y="182.7803">service: mediaservices</text><text fill="#334155" font-family="Helvetica" font-size="14" lengthAdjust="spacing" textLength="259.8613" x="2406.78" y="196.7803">slug: mediaservicessystemmediaworkflow</text><text fill="#334155" font-family="Helvetica" font-size="14" lengthAdjust="spacing" textLength="267.6406" x="2406.78" y="210.7803">kind: MediaServicesSystemMediaWorkflow</text><text fill="#334155" font-family="Helvetica" font-size="14" lengthAdjust="spacing" textLength="241.2402" x="2406.78" y="224.7803">archetype: generated-service-manager</text><text fill="#334155" font-family="Helvetica" font-size="14" lengthAdjust="spacing" textLength="156.4063" x="2406.78" y="238.7803">status/finalizer: required /</text><text fill="#334155" font-family="Helvetica" font-size="14" lengthAdjust="spacing" textLength="174.3027" x="2406.78" y="252.7803">retain-until-confirmed-delete</text><text fill="#334155" font-family="Helvetica" font-size="14" lengthAdjust="spacing" textLength="272.3984" x="2406.78" y="266.7803">requeue: provisioning, updating, terminating</text><text fill="#334155" font-family="Helvetica" font-size="14" lengthAdjust="spacing" textLength="295.6816" x="2406.78" y="280.7803">provider states: create PROVISIONING; update</text><text fill="#334155" font-family="Helvetica" font-size="14" lengthAdjust="spacing" textLength="192.165" x="2406.78" y="294.7803">UPDATING; delete DELETING</text><text fill="#334155" font-family="Helvetica" font-size="14" lengthAdjust="spacing" textLength="183.6611" x="2406.78" y="308.7803">supported drift: display_name</text><text fill="#334155" font-family="Helvetica" font-size="14" lengthAdjust="spacing" textLength="230.3301" x="2406.78" y="322.7803">reject before mutate: force-new fields</text><text fill="#334155" font-family="Helvetica" font-size="14" lengthAdjust="spacing" textLength="100.3789" x="2406.78" y="336.7803">compartment_id</text><text fill="#334155" font-family="Helvetica" font-size="14" lengthAdjust="spacing" textLength="66.1445" x="2406.78" y="350.7803">list lookup:</text><text fill="#334155" font-family="Helvetica" font-size="14" lengthAdjust="spacing" textLength="379.6953" x="2406.78" y="364.7803">scaffold_mediaservices_mediaservicessystemmediaworkflow</text><text fill="#334155" font-family="Helvetica" font-size="14" lengthAdjust="spacing" textLength="175.8477" x="2406.78" y="378.7803">filters compartment_id, state</text><text fill="#334155" font-family="Helvetica" font-size="14" lengthAdjust="spacing" textLength="89.4961" x="2406.78" y="392.7803">conflicts: none</text><text fill="#334155" font-family="Helvetica" font-size="14" lengthAdjust="spacing" textLength="104.3164" x="2406.78" y="406.7803">open gaps: none</text><text fill="#334155" font-family="Helvetica" font-size="14" lengthAdjust="spacing" textLength="224.9023" x="2406.78" y="420.7803">Scaffold metadata only; replace with</text><text fill="#334155" font-family="Helvetica" font-size="14" lengthAdjust="spacing" textLength="244.3232" x="2406.78" y="434.7803">controller-specific runtime states before</text><text fill="#334155" font-family="Helvetica" font-size="14" lengthAdjust="spacing" textLength="66.1445" x="2406.78" y="448.7803">promotion.</text></g><g class="entity" data-qualified-name="GMN5" data-source-line="86" id="ent0006"><path d="M3136.48,509 L3136.48,530.77 L2652.44,514.14 L3136.48,538.77 L3136.48,573 A8,8 0 0 0 3144.48,581 L3422.562,581 A8,8 0 0 0 3430.562,573 L3430.562,511 L3420.562,501 L3144.48,501 A8,8 0 0 0 3136.48,509" fill="#FFF7D6" style="stroke:#B45309;stroke-width:0.5;"/><path d="M3420.562,501 L3420.562,507 A4,4 0 0 0 3424.562,511 L3430.562,511 L3420.562,501" fill="#FFF7D6" style="stroke:#B45309;stroke-width:0.5;"/><text fill="#334155" font-family="Helvetica" font-size="14" lengthAdjust="spacing" textLength="136.9717" x="3142.48" y="516.7803">delete policy: required</text><text fill="#334155" font-family="Helvetica" font-size="14" lengthAdjust="spacing" textLength="95.7305" x="3142.48" y="530.7803">delete observe:</text><text fill="#334155" font-family="Helvetica" font-size="14" lengthAdjust="spacing" textLength="273.082" x="3142.48" y="544.7803">GetMediaServicesSystemMediaWorkflow or</text><text fill="#334155" font-family="Helvetica" font-size="14" lengthAdjust="spacing" textLength="255.9648" x="3142.48" y="558.7803">ListMediaServicesSystemMediaWorkflow</text><text fill="#334155" font-family="Helvetica" font-size="14" lengthAdjust="spacing" textLength="157.1855" x="3142.48" y="572.7803">delete targets: DELETED</text></g><!--link *start* to observe--><g class="link" data-entity-1="ent0002" data-entity-2="ent0002" data-link-type="dependency" data-source-line="32" id="lnk3"><path d="M26.13,434 C67.38,434 233.8,434 357.62,434" fill="none" id="*start*-to-observe" style="stroke:#0F172A;stroke-width:1;"/><polygon fill="#0F172A" points="363.62,434,354.62,430,358.62,434,354.62,438,363.62,434" style="stroke:#0F172A;stroke-width:1;"/><text fill="#000000" font-family="Helvetica" font-size="14" lengthAdjust="spacing" textLength="276.1992" x="57" y="429.7803">CreateMediaServicesSystemMediaWorkflow</text></g><!--link observe to resolve_by_lookup--><g class="link" data-entity-1="ent0002" data-entity-2="ent0007" data-link-type="dependency" data-source-line="33" id="lnk4"><path d="M628.64,418.05 C719.55,407.01 830.3337,393.5731 900.1837,385.0931" fill="none" id="observe-to-resolve_by_lookup" style="stroke:#0F172A;stroke-width:1;"/><polygon fill="#0F172A" points="906.14,384.37,896.7235,381.4838,901.1764,384.9726,897.6877,389.4255,906.14,384.37" style="stroke:#0F172A;stroke-width:1;"/><text fill="#000000" font-family="Helvetica" font-size="14" lengthAdjust="spacing" textLength="145.5029" x="659.36" y="392.8403">tracked identity missing</text></g><!--link resolve_by_lookup to evaluate_ready--><g class="link" data-entity-1="ent0007" data-entity-2="ent0003" data-link-type="dependency" data-source-line="34" id="lnk5"><path d="M1029.57,365.58 C1143.1,344.19 1377.77,299.79 1395.36,295 C1405.07,292.36 1409.6038,291.0543 1419.3838,287.7043" fill="none" id="resolve_by_lookup-to-evaluate_ready" style="stroke:#0F172A;stroke-width:1;"/><polygon fill="#0F172A" points="1425.06,285.76,1415.2494,284.8923,1420.3298,287.3803,1417.8419,292.4606,1425.06,285.76" style="stroke:#0F172A;stroke-width:1;"/><text fill="#000000" font-family="Helvetica" font-size="14" lengthAdjust="spacing" textLength="154.0889" x="1185.86" y="276.7803">lookup or create reaches</text><text fill="#000000" font-family="Helvetica" font-size="14" lengthAdjust="spacing" textLength="50.5654" x="1237.6217" y="290.7803">ACTIVE</text></g><!--link resolve_by_lookup to retryable--><g class="link" data-entity-1="ent0007" data-entity-2="ent0005" data-link-type="dependency" data-source-line="35" id="lnk6"><path d="M1029.63,379.87 C1137.21,384.95 1351.8067,395.0973 1436.5967,399.0973" fill="none" id="resolve_by_lookup-to-retryable" style="stroke:#0F172A;stroke-width:1;"/><polygon fill="#0F172A" points="1442.59,399.38,1433.7885,394.9603,1437.5956,399.1444,1433.4115,402.9514,1442.59,399.38" style="stroke:#0F172A;stroke-width:1;"/><text fill="#000000" font-family="Helvetica" font-size="14" lengthAdjust="spacing" textLength="184.3789" x="1170.86" y="366.5403">OCI state in PROVISIONING,</text><text fill="#000000" font-family="Helvetica" font-size="14" lengthAdjust="spacing" textLength="150.1309" x="1187.984" y="380.5403">UPDATING, DELETING</text></g><!--link resolve_by_lookup to failed--><g class="link" data-entity-1="ent0007" data-entity-2="ent0006" data-link-type="dependency" data-source-line="36" id="lnk7"><path d="M1029.63,394.11 C1141.69,425.65 1370.5847,490.0834 1446.6747,511.5134" fill="none" id="resolve_by_lookup-to-failed" style="stroke:#0F172A;stroke-width:1;"/><polygon fill="#0F172A" points="1452.45,513.14,1444.8714,506.8499,1447.6372,511.7845,1442.7026,514.5504,1452.45,513.14" style="stroke:#0F172A;stroke-width:1;"/><text fill="#000000" font-family="Helvetica" font-size="14" lengthAdjust="spacing" textLength="263.7783" x="1131.36" y="419.0303">unresolved OCI error or non-success state</text></g><!--link observe to evaluate_ready--><g class="link" data-entity-1="ent0002" data-entity-2="ent0003" data-link-type="dependency" data-source-line="37" id="lnk8"><path d="M573.96,402.64 C600.45,392.43 630.47,381.55 658.36,373 C864.5,309.82 916.22,286.06 1130.36,261 C1234.33,248.83 1351.0497,255.0341 1418.9897,260.5541" fill="none" id="observe-to-evaluate_ready" style="stroke:#0F172A;stroke-width:1;"/><polygon fill="#0F172A" points="1424.97,261.04,1416.3235,256.3243,1419.9864,260.6351,1415.6756,264.298,1424.97,261.04" style="stroke:#0F172A;stroke-width:1;"/><text fill="#000000" font-family="Helvetica" font-size="14" lengthAdjust="spacing" textLength="128.3721" x="903.86" y="260.9503">OCI state in ACTIVE</text></g><!--link observe to retryable--><g class="link" data-entity-1="ent0002" data-entity-2="ent0005" data-link-type="dependency" data-source-line="38" id="lnk9"><path d="M628.47,438.33 C691.11,440.38 767.11,442.85 835.36,445 C1084.16,452.84 1156.72,524.79 1395.36,454 C1406.77,450.62 1425.445,438.3638 1444.305,424.9138" fill="none" id="observe-to-retryable" style="stroke:#0F172A;stroke-width:1;"/><polygon fill="#0F172A" points="1449.19,421.43,1439.54,423.3989,1445.1191,424.3331,1444.185,429.9123,1449.19,421.43" style="stroke:#0F172A;stroke-width:1;"/><text fill="#000000" font-family="Helvetica" font-size="14" lengthAdjust="spacing" textLength="184.3789" x="875.86" y="426.7803">OCI state in PROVISIONING,</text><text fill="#000000" font-family="Helvetica" font-size="14" lengthAdjust="spacing" textLength="150.1309" x="892.984" y="440.7803">UPDATING, DELETING</text></g><!--link observe to failed--><g class="link" data-entity-1="ent0002" data-entity-2="ent0006" data-link-type="dependency" data-source-line="39" id="lnk10"><path d="M628.52,464.76 C690.83,478.03 766.56,492.26 835.36,500 C1074.8,526.92 1361.4516,522.7695 1446.5616,520.7895" fill="none" id="observe-to-failed" style="stroke:#0F172A;stroke-width:1;"/><polygon fill="#0F172A" points="1452.56,520.65,1443.4694,516.8604,1447.5614,520.7663,1443.6555,524.8582,1452.56,520.65" style="stroke:#0F172A;stroke-width:1;"/><text fill="#000000" font-family="Helvetica" font-size="14" lengthAdjust="spacing" textLength="263.7783" x="836.36" y="495.7803">unresolved OCI error or non-success state</text></g><!--link evaluate_ready to reject_unsupported_drift--><g class="link" data-entity-1="ent0003" data-entity-2="ent0008" data-link-type="dependency" data-source-line="40" id="lnk11"><path d="M1502.06,286.48 C1517.49,298.89 1538.81,313.85 1560.32,322 C1624.53,346.35 1696.6042,353.9058 1753.3042,356.0258" fill="none" id="evaluate_ready-to-reject_unsupported_drift" style="stroke:#0F172A;stroke-width:1;"/><polygon fill="#0F172A" points="1759.3,356.25,1750.4557,351.9165,1754.3035,356.0632,1750.1568,359.9109,1759.3,356.25" style="stroke:#0F172A;stroke-width:1;"/><text fill="#000000" font-family="Helvetica" font-size="14" lengthAdjust="spacing" textLength="143.9512" x="1571.32" y="303.7803">force-new or conflicting</text><text fill="#000000" font-family="Helvetica" font-size="14" lengthAdjust="spacing" textLength="80.9375" x="1602.8268" y="317.7803">drift detected</text></g><!--link reject_unsupported_drift to ready--><g class="link" data-entity-1="ent0008" data-entity-2="ent0004" data-link-type="dependency" data-source-line="41" id="lnk12"><path d="M1915.32,355.06 C1981.2,351.77 2077.3,341 2154.32,308 C2166.36,302.84 2173.4802,298.2363 2182.9202,290.2463" fill="none" id="reject_unsupported_drift-to-ready" style="stroke:#0F172A;stroke-width:1;"/><polygon fill="#0F172A" points="2187.5,286.37,2178.0461,289.1313,2183.6835,289.6003,2183.2146,295.2376,2187.5,286.37" style="stroke:#0F172A;stroke-width:1;"/><text fill="#000000" font-family="Helvetica" font-size="14" lengthAdjust="spacing" textLength="203.8818" x="1950.32" y="303.7803">wait for spec or live state change</text></g><!--link evaluate_ready to apply_update--><g class="link" data-entity-1="ent0003" data-entity-2="ent0009" data-link-type="dependency" data-source-line="42" id="lnk13"><path d="M1530.72,248.96 C1540.49,246.07 1550.67,243.27 1560.32,241 C1641.17,221.95 1731.2022,208.6097 1786.0322,201.3297" fill="none" id="evaluate_ready-to-apply_update" style="stroke:#0F172A;stroke-width:1;"/><polygon fill="#0F172A" points="1791.98,200.54,1782.5318,197.7594,1787.0235,201.1981,1783.5848,205.6898,1791.98,200.54" style="stroke:#0F172A;stroke-width:1;"/><text fill="#000000" font-family="Helvetica" font-size="14" lengthAdjust="spacing" textLength="163.4199" x="1561.32" y="192.0903">supported mutable drift for</text><text fill="#000000" font-family="Helvetica" font-size="14" lengthAdjust="spacing" textLength="86.3857" x="1599.8371" y="206.0903">display_name</text></g><!--link apply_update to ready--><g class="link" data-entity-1="ent0009" data-entity-2="ent0004" data-link-type="dependency" data-source-line="43" id="lnk14"><path d="M1882.88,197.45 C1944.86,201.76 2060.1,213.07 2154.32,241 C2164.36,243.98 2169.5025,245.9001 2178.6125,250.2801" fill="none" id="apply_update-to-ready" style="stroke:#0F172A;stroke-width:1;"/><polygon fill="#0F172A" points="2184.02,252.88,2177.642,245.3752,2179.5138,250.7135,2174.1756,252.5852,2184.02,252.88" style="stroke:#0F172A;stroke-width:1;"/><text fill="#000000" font-family="Helvetica" font-size="14" lengthAdjust="spacing" textLength="141.6543" x="1981.32" y="199.4503">update path completes</text></g><!--link evaluate_ready to ready--><g class="link" data-entity-1="ent0003" data-entity-2="ent0004" data-link-type="dependency" data-source-line="44" id="lnk15"><path d="M1530.73,266 C1675.46,266 2073.77,266 2177.86,266" fill="none" id="evaluate_ready-to-ready" style="stroke:#0F172A;stroke-width:1;"/><polygon fill="#0F172A" points="2183.86,266,2174.86,262,2178.86,266,2174.86,270,2183.86,266" style="stroke:#0F172A;stroke-width:1;"/><text fill="#000000" font-family="Helvetica" font-size="14" lengthAdjust="spacing" textLength="162.6406" x="1756.32" y="261.7803">no supported drift remains</text></g><!--link ready to ready--><g class="link" data-entity-1="ent0004" data-entity-2="ent0004" data-link-type="dependency" data-source-line="45" id="lnk16"><path d="M2192.35,245.69 C2185,228.73 2190.74,211 2209.55,211 C2228.36,211 2236.4858,223.2247 2229.1358,240.1847" fill="none" id="ready-to-ready" style="stroke:#0F172A;stroke-width:1;"/><polygon fill="#0F172A" points="2226.75,245.69,2233.9989,239.0227,2228.7382,241.1023,2226.6586,235.8416,2226.75,245.69" style="stroke:#0F172A;stroke-width:1;"/><text fill="#000000" font-family="Helvetica" font-size="14" lengthAdjust="spacing" textLength="162.6406" x="2128.55" y="201.7803">no supported drift remains</text></g><!--link retryable to retryable--><g class="link" data-entity-1="ent0005" data-entity-2="ent0005" data-link-type="dependency" data-source-line="46" id="lnk17"><path d="M1451.63,380.69 C1440.42,363.73 1449.16,346 1477.84,346 C1506.52,346 1518.5564,358.7232 1507.3564,375.6832" fill="none" id="retryable-to-retryable" style="stroke:#0F172A;stroke-width:1;"/><polygon fill="#0F172A" points="1504.05,380.69,1512.3474,375.3841,1506.8053,376.5177,1505.6717,370.9756,1504.05,380.69" style="stroke:#0F172A;stroke-width:1;"/><text fill="#000000" font-family="Helvetica" font-size="14" lengthAdjust="spacing" textLength="136.9307" x="1409.84" y="336.7803">OCI remains retryable</text></g><!--link failed to failed--><g class="link" data-entity-1="ent0006" data-entity-2="ent0006" data-link-type="dependency" data-source-line="47" id="lnk18"><path d="M1452.41,500.83 C1440.04,483.53 1448.52,465 1477.84,465 C1507.16,465 1519.1298,478.6493 1506.7598,495.9493" fill="none" id="failed-to-failed" style="stroke:#0F172A;stroke-width:1;"/><polygon fill="#0F172A" points="1503.27,500.83,1511.7585,495.8355,1506.1782,496.7628,1505.251,491.1824,1503.27,500.83" style="stroke:#0F172A;stroke-width:1;"/><text fill="#000000" font-family="Helvetica" font-size="14" lengthAdjust="spacing" textLength="132.2549" x="1411.84" y="455.7803">OCI remains terminal</text></g><!--link ready to delete_pending--><g class="link" data-entity-1="ent0004" data-entity-2="ent0010" data-link-type="dependency" data-source-line="48" id="lnk19"><path d="M2235.1,281.72 C2269.51,304.84 2332.19,351.04 2370.78,404 C2390.96,431.68 2374.09,453.53 2400.78,475 C2442.89,508.86 2500.1701,515.4446 2544.1001,515.2646" fill="none" id="ready-to-delete_pending" style="stroke:#0F172A;stroke-width:1;"/><polygon fill="#0F172A" points="2550.1,515.24,2541.0837,511.2769,2545.1,515.2605,2541.1165,519.2768,2550.1,515.24" style="stroke:#0F172A;stroke-width:1;"/><text fill="#000000" font-family="Helvetica" font-size="14" lengthAdjust="spacing" textLength="104.3027" x="2265.78" y="299.3403">delete requested</text></g><!--link retryable to delete_pending--><g class="link" data-entity-1="ent0005" data-entity-2="ent0010" data-link-type="dependency" data-source-line="49" id="lnk20"><path d="M1513.29,404.27 C1632.25,415.59 2036.81,454.24 2370.78,488 C2432.52,494.24 2497.6136,501.0855 2544.0636,506.0255" fill="none" id="retryable-to-delete_pending" style="stroke:#0F172A;stroke-width:1;"/><polygon fill="#0F172A" points="2550.03,506.66,2541.5035,501.7306,2545.058,506.1312,2540.6575,509.6858,2550.03,506.66" style="stroke:#0F172A;stroke-width:1;"/><text fill="#000000" font-family="Helvetica" font-size="14" lengthAdjust="spacing" textLength="104.3027" x="1999.82" y="442.8303">delete requested</text></g><!--link failed to delete_pending--><g class="link" data-entity-1="ent0006" data-entity-2="ent0010" data-link-type="dependency" data-source-line="50" id="lnk21"><path d="M1503.3,519.83 C1644.3,518.82 2347.7802,513.8028 2543.8602,512.4028" fill="none" id="failed-to-delete_pending" style="stroke:#0F172A;stroke-width:1;"/><polygon fill="#0F172A" points="2549.86,512.36,2540.8317,508.4244,2544.8601,512.3957,2540.8888,516.4242,2549.86,512.36" style="stroke:#0F172A;stroke-width:1;"/><text fill="#000000" font-family="Helvetica" font-size="14" lengthAdjust="spacing" textLength="104.3027" x="1999.82" y="511.0503">delete requested</text></g><!--link delete_pending to delete_cleanup_blocked--><g class="link" data-entity-1="ent0010" data-entity-2="ent0012" data-link-type="dependency" data-source-line="51" id="lnk22"><path d="M2652.44,507.12 C2770.72,495.65 3061.068,467.4793 3201.058,453.8993" fill="none" id="delete_pending-to-delete_cleanup_blocked" style="stroke:#0F172A;stroke-width:1;"/><polygon fill="#0F172A" points="3207.03,453.32,3197.6858,450.2077,3202.0534,453.8028,3198.4583,458.1703,3207.03,453.32" style="stroke:#0F172A;stroke-width:1;"/><text fill="#000000" font-family="Helvetica" font-size="14" lengthAdjust="spacing" textLength="273.1436" x="2832.48" y="459.4803">cleanup or finalizer release remains blocked</text></g><!--link delete_cleanup_blocked to deleted--><g class="link" data-entity-1="ent0012" data-entity-2="ent0011" data-link-type="dependency" data-source-line="52" id="lnk23"><path d="M3360.18,446 C3463.62,446 3638.32,446 3708.08,446" fill="none" id="delete_cleanup_blocked-to-deleted" style="stroke:#0F172A;stroke-width:1;"/><polygon fill="#0F172A" points="3714.08,446,3705.08,442,3709.08,446,3705.08,450,3714.08,446" style="stroke:#0F172A;stroke-width:1;"/><text fill="#000000" font-family="Helvetica" font-size="14" lengthAdjust="spacing" textLength="222.5645" x="3461.56" y="441.7803">retry delete completion until allowed</text></g><!--link deleted to deleted--><g class="link" data-entity-1="ent0011" data-entity-2="ent0011" data-link-type="dependency" data-source-line="53" id="lnk24"><path d="M3716.5,425.69 C3704.88,408.73 3713.94,391 3743.69,391 C3773.44,391 3785.8912,403.7803 3774.2712,420.7403" fill="none" id="deleted-to-deleted" style="stroke:#0F172A;stroke-width:1;"/><polygon fill="#0F172A" points="3770.88,425.69,3779.2667,420.5263,3773.706,421.5653,3772.6671,416.0046,3770.88,425.69" style="stroke:#0F172A;stroke-width:1;"/><text fill="#000000" font-family="Helvetica" font-size="14" lengthAdjust="spacing" textLength="92.5859" x="3697.69" y="381.7803">terminal stutter</text></g><?plantuml-src dLTPR-Cs47xdho2sRqMSR9hiKGSea6lJ0DaaY3VRXwOmQ75eiw58bQJYLOl-zmuFoPAImEZ2B-BCSCvlPcZtA7N5B2kfMp5krb8lgM3A0N4TPy6AnwKrjUQdHXbBVn05_dXFWeDWjVAVZFRNh0JwAwWdyB9WBylCvDz0zmzxJ6QjMMVjRyN-Xv_wDxNnSFBC1o4-yFTZAMCvs2onE7ntyFRdaKGmd_a71uVxxzxr-55zOQm6I_VV4o-z0Zhpp0Fzp8gLr40dj0GkcGFx90jmUv_3QPPFiyPvA2FfDsCVXJBhddON5Vr3w0lv_2YOA0Adxt_E0wLYutD7Gsss9UxpG-0VaGYTnYptBr4WFFM6MhbSUSgbXS9BeybASg1GLhx1mhZ2oYgIavDlRXOXGdX3cQCcVRUiyoUcQlow0yQRA02PChU1rCfj-2EojmrRACYiV6hPdvXKm2DFn4-IpTDfr4DT1SKEzHPJ23pcj7Ox6882l2wr1-rt7ZJJd1QrjNYYDwUNL4a1HLDixDo1CmZHa-RAcCUwoiv4sdpHp5MaReJ_nApTQrTNbR4U-9cLmkSxWJMlDxmv3ypswd5LgUQ-udY8yYoSvtKaj39dqVbRB1usNvHAuSohH1hAyPu47x9E5J1TLoVAXEJqDHM9Crya5ldznp_ePF8BtIJt5BFhOIkSsmlXyhDyePgsC8WkZVtJq58w5s9uBXnK3A63zpCF8Ln4XqBHYnMu1try-kNow_ahUZeSeOfGxvGMgUdjtStNozdbpVNbzGNYulxsxFXB-AHdvrVduUiLXGbygAtMMO17nO1poWRtjD4JLnUO9fUi3LBpBAw1KpcKOIw_Eu2-ckzmU-HgSkPbKADUOMm14mthM2AZXP8uJ_JoGIS9ZcWh0Z1VrP4CfAoicVH1PUpge55932J5NgoONhxeNh-7K4bdW9QrZobCXb0lUYLTfLWprxYLoE1YtuzCgfXVOL1b5Nh6lPoPT46RdjbapaB9f7RaVmgtPNy915cgDoLpVGUbxajwiANKJFMy6CuIbC-pqi9VDRXKghuJs-LxJcmN7adqBerc4bxEb0044QB0Lu95LKXrq8NOZh1Nj6mCyBWoCBJMgLnPN7FO7bugoXIEj4xL-6wRIyHZxV50mlCXxr4ZsgssOZPKLR8bxlXfFk_bizjBvmbsYhT6AR2JYEv9cTuJk-vfIMPXbLDXJKdz2cXMkRb2grL8G6dGDugRZOHkaJ4zL9OPLvKrJpXqRUgURYKIrBq4Z-Um4aFbQejx_vlqZgx0mYvX5kUhRoh0PualLbDw0VZ-OK5dVkMWivejCG4RbnmjMJMs6TQlwOL0nY4ukfROOV2jmgaHEhyhSeWgOgR6BZI12swNPFlJuPkBE5KlHpGNLrKahTjLXGylFgLRDreN_vGksyWduyZJEsElStWQ4Iv3dVP2_o0o9n5JeT92MlHaaWkGmvgcR3b47_R1JXevyIlZB1p8AAFJTWlsjy1H7bUatGL7BS2xbJ0QDzYM_J6OHZDT04v8Y4FJGt-o2mcAEnBQ1O5PuYAVIqwKT3wlPuHvmOGmYiy7LPXlhOcGoWVq37Nlv5NKxXCNPgR6ZOfJWovPrPvdsIhMtZDC0QD6g-O8Qu715H3HHVgj5lf4o8BQK9iIMfoco4EoInF6mIx1wHJ_7OnwVFGEoscE06qs46ZfUH5FoGNuRR336KUkCADRuPbrvpQUfXgVdtKU_mS0?></g></svg>